{
    "header": {
        "PPQ": 480,
        "timeSignature": [
            7,
            4
        ],
        "bpm": 43.500010875002715,
        "name": "Etude No. 1 aus Grandes Etudes de Paganini"
    },
    "startTime": 0,
    "duration": 538.2757275000039,
    "tracks": [
        {
            "startTime": 0,
            "duration": 0,
            "length": 0,
            "notes": [],
            "controlChanges": {},
            "id": 0,
            "name": "Etude No. 1 aus Grandes Etudes de Paganini"
        },
        {
            "startTime": 7.75861875,
            "duration": 538.2757275000039,
            "length": 504,
            "notes": [
                {
                    "name": "A#2",
                    "midi": 46,
                    "time": 7.75861875,
                    "velocity": 0.6220472440944882,
                    "duration": 2.126436250000001
                },
                {
                    "name": "D3",
                    "midi": 50,
                    "time": 9.885055000000001,
                    "velocity": 0.47244094488188976,
                    "duration": 0.22988499999999945
                },
                {
                    "name": "G3",
                    "midi": 55,
                    "time": 10.11494,
                    "velocity": 0.4881889763779528,
                    "duration": 0.22988499999999945
                },
                {
                    "name": "A#3",
                    "midi": 58,
                    "time": 10.344825,
                    "velocity": 0.49606299212598426,
                    "duration": 0.22988499999999945
                },
                {
                    "name": "D4",
                    "midi": 62,
                    "time": 10.57471,
                    "velocity": 0.5039370078740157,
                    "duration": 0.22988499999999945
                },
                {
                    "name": "G4",
                    "midi": 67,
                    "time": 10.804594999999999,
                    "velocity": 0.5118110236220472,
                    "duration": 0.22988499999999945
                },
                {
                    "name": "A#4",
                    "midi": 70,
                    "time": 11.034479999999999,
                    "velocity": 0.5275590551181102,
                    "duration": 0.22988499999999945
                },
                {
                    "name": "D5",
                    "midi": 74,
                    "time": 11.264364999999998,
                    "velocity": 0.5354330708661418,
                    "duration": 0.22988499999999945
                },
                {
                    "name": "G5",
                    "midi": 79,
                    "time": 11.494249999999997,
                    "velocity": 0.5511811023622047,
                    "duration": 0.22988499999999945
                },
                {
                    "name": "A#5",
                    "midi": 82,
                    "time": 11.724134999999997,
                    "velocity": 0.5590551181102362,
                    "duration": 0.22988499999999945
                },
                {
                    "name": "D6",
                    "midi": 86,
                    "time": 11.954019999999996,
                    "velocity": 0.5669291338582677,
                    "duration": 0.22988499999999945
                },
                {
                    "name": "G6",
                    "midi": 91,
                    "time": 12.183904999999996,
                    "velocity": 0.6062992125984252,
                    "duration": 0.22988499999999945
                },
                {
                    "name": "A#6",
                    "midi": 94,
                    "time": 12.413789999999995,
                    "velocity": 0.6299212598425197,
                    "duration": 1.5517237500000007
                },
                {
                    "name": "A6",
                    "midi": 93,
                    "time": 13.965513749999996,
                    "velocity": 0.4566929133858268,
                    "duration": 0.17241375000000048
                },
                {
                    "name": "G6",
                    "midi": 91,
                    "time": 14.137927499999996,
                    "velocity": 0.4645669291338583,
                    "duration": 0.17241375000000048
                },
                {
                    "name": "F#6",
                    "midi": 90,
                    "time": 14.310341249999997,
                    "velocity": 0.4645669291338583,
                    "duration": 0.17241375000000048
                },
                {
                    "name": "D#6",
                    "midi": 87,
                    "time": 14.482754999999997,
                    "velocity": 0.47244094488188976,
                    "duration": 0.17241375000000048
                },
                {
                    "name": "D6",
                    "midi": 86,
                    "time": 14.655168749999998,
                    "velocity": 0.47244094488188976,
                    "duration": 0.17241375000000048
                },
                {
                    "name": "C6",
                    "midi": 84,
                    "time": 14.827582499999998,
                    "velocity": 0.48031496062992124,
                    "duration": 0.17241375000000048
                },
                {
                    "name": "A#5",
                    "midi": 82,
                    "time": 14.999996249999999,
                    "velocity": 0.4881889763779528,
                    "duration": 0.17241375000000048
                },
                {
                    "name": "A5",
                    "midi": 81,
                    "time": 15.17241,
                    "velocity": 0.4881889763779528,
                    "duration": 0.17241375000000048
                },
                {
                    "name": "G5",
                    "midi": 79,
                    "time": 15.34482375,
                    "velocity": 0.49606299212598426,
                    "duration": 0.17241375000000048
                },
                {
                    "name": "F#5",
                    "midi": 78,
                    "time": 15.5172375,
                    "velocity": 0.49606299212598426,
                    "duration": 0.17241375000000048
                },
                {
                    "name": "D#5",
                    "midi": 75,
                    "time": 15.68965125,
                    "velocity": 0.49606299212598426,
                    "duration": 0.17241375000000048
                },
                {
                    "name": "D5",
                    "midi": 74,
                    "time": 15.862065000000001,
                    "velocity": 0.49606299212598426,
                    "duration": 0.17241375000000048
                },
                {
                    "name": "C5",
                    "midi": 72,
                    "time": 16.03447875,
                    "velocity": 0.5039370078740157,
                    "duration": 0.17241375000000048
                },
                {
                    "name": "A#4",
                    "midi": 70,
                    "time": 16.206892500000002,
                    "velocity": 0.5039370078740157,
                    "duration": 0.17241375000000048
                },
                {
                    "name": "A4",
                    "midi": 69,
                    "time": 16.379306250000003,
                    "velocity": 0.5118110236220472,
                    "duration": 0.17241375000000048
                },
                {
                    "name": "G4",
                    "midi": 67,
                    "time": 16.551720000000003,
                    "velocity": 0.5118110236220472,
                    "duration": 0.17241375000000048
                },
                {
                    "name": "F#4",
                    "midi": 66,
                    "time": 16.724133750000004,
                    "velocity": 0.5196850393700787,
                    "duration": 0.17241375000000048
                },
                {
                    "name": "D#4",
                    "midi": 63,
                    "time": 16.896547500000004,
                    "velocity": 0.5196850393700787,
                    "duration": 0.17241375000000048
                },
                {
                    "name": "D4",
                    "midi": 62,
                    "time": 17.068961250000005,
                    "velocity": 0.5275590551181102,
                    "duration": 0.17241375000000048
                },
                {
                    "name": "C4",
                    "midi": 60,
                    "time": 17.241375000000005,
                    "velocity": 0.5354330708661418,
                    "duration": 0.17241375000000048
                },
                {
                    "name": "A#3",
                    "midi": 58,
                    "time": 17.413788750000005,
                    "velocity": 0.5354330708661418,
                    "duration": 0.17241375000000048
                },
                {
                    "name": "A3",
                    "midi": 57,
                    "time": 17.586202500000006,
                    "velocity": 0.5433070866141733,
                    "duration": 0.17241375000000048
                },
                {
                    "name": "G3",
                    "midi": 55,
                    "time": 17.758616250000006,
                    "velocity": 0.5433070866141733,
                    "duration": 0.17241375000000048
                },
                {
                    "name": "F#3",
                    "midi": 54,
                    "time": 17.931030000000007,
                    "velocity": 0.5511811023622047,
                    "duration": 0.17241375000000048
                },
                {
                    "name": "D#3",
                    "midi": 51,
                    "time": 18.103443750000007,
                    "velocity": 0.5511811023622047,
                    "duration": 0.17241375000000048
                },
                {
                    "name": "D3",
                    "midi": 50,
                    "time": 18.275857500000008,
                    "velocity": 0.5590551181102362,
                    "duration": 0.17241375000000048
                },
                {
                    "name": "C3",
                    "midi": 48,
                    "time": 18.44827125000001,
                    "velocity": 0.5590551181102362,
                    "duration": 0.17241375000000048
                },
                {
                    "name": "A#2",
                    "midi": 46,
                    "time": 18.62068500000001,
                    "velocity": 0.5669291338582677,
                    "duration": 0.17241375000000048
                },
                {
                    "name": "A2",
                    "midi": 45,
                    "time": 18.79309875000001,
                    "velocity": 0.5669291338582677,
                    "duration": 0.17241375000000048
                },
                {
                    "name": "G2",
                    "midi": 43,
                    "time": 18.96551250000001,
                    "velocity": 0.6299212598425197,
                    "duration": 1.8965512500000017
                },
                {
                    "name": "A#2",
                    "midi": 46,
                    "time": 20.86206375000001,
                    "velocity": 0.47244094488188976,
                    "duration": 0.17241375000000048
                },
                {
                    "name": "D3",
                    "midi": 50,
                    "time": 21.034477500000012,
                    "velocity": 0.4881889763779528,
                    "duration": 0.17241375000000048
                },
                {
                    "name": "G3",
                    "midi": 55,
                    "time": 21.206891250000012,
                    "velocity": 0.49606299212598426,
                    "duration": 0.17241375000000048
                },
                {
                    "name": "A#3",
                    "midi": 58,
                    "time": 21.379305000000013,
                    "velocity": 0.5039370078740157,
                    "duration": 0.17241375000000048
                },
                {
                    "name": "D4",
                    "midi": 62,
                    "time": 21.551718750000013,
                    "velocity": 0.5118110236220472,
                    "duration": 0.17241375000000048
                },
                {
                    "name": "G4",
                    "midi": 67,
                    "time": 21.724132500000014,
                    "velocity": 0.5275590551181102,
                    "duration": 0.17241375000000048
                },
                {
                    "name": "A#4",
                    "midi": 70,
                    "time": 21.896546250000014,
                    "velocity": 0.5354330708661418,
                    "duration": 0.17241375000000048
                },
                {
                    "name": "D5",
                    "midi": 74,
                    "time": 22.068960000000015,
                    "velocity": 0.5511811023622047,
                    "duration": 0.17241375000000048
                },
                {
                    "name": "G5",
                    "midi": 79,
                    "time": 22.241373750000015,
                    "velocity": 0.5590551181102362,
                    "duration": 0.17241375000000048
                },
                {
                    "name": "A#5",
                    "midi": 82,
                    "time": 22.413787500000016,
                    "velocity": 0.5669291338582677,
                    "duration": 0.17241375000000048
                },
                {
                    "name": "D6",
                    "midi": 86,
                    "time": 22.586201250000016,
                    "velocity": 0.5748031496062992,
                    "duration": 0.17241375000000048
                },
                {
                    "name": "G6",
                    "midi": 91,
                    "time": 22.758615000000017,
                    "velocity": 0.5905511811023622,
                    "duration": 0.17241375000000048
                },
                {
                    "name": "A#6",
                    "midi": 94,
                    "time": 22.931028750000017,
                    "velocity": 0.6141732283464567,
                    "duration": 2.068965000000002
                },
                {
                    "name": "D7",
                    "midi": 98,
                    "time": 23.103442500000018,
                    "velocity": 0.6299212598425197,
                    "duration": 1.8965512500000017
                },
                {
                    "name": "C7",
                    "midi": 96,
                    "time": 24.99999375000002,
                    "velocity": 0.4566929133858268,
                    "duration": 0.17241375000000048
                },
                {
                    "name": "A#6",
                    "midi": 94,
                    "time": 25.17240750000002,
                    "velocity": 0.4566929133858268,
                    "duration": 0.17241375000000048
                },
                {
                    "name": "A6",
                    "midi": 93,
                    "time": 25.34482125000002,
                    "velocity": 0.4566929133858268,
                    "duration": 0.17241375000000048
                },
                {
                    "name": "G6",
                    "midi": 91,
                    "time": 25.51723500000002,
                    "velocity": 0.4645669291338583,
                    "duration": 0.17241375000000048
                },
                {
                    "name": "F#6",
                    "midi": 90,
                    "time": 25.68964875000002,
                    "velocity": 0.4645669291338583,
                    "duration": 0.17241375000000048
                },
                {
                    "name": "D#6",
                    "midi": 87,
                    "time": 25.86206250000002,
                    "velocity": 0.47244094488188976,
                    "duration": 0.17241375000000048
                },
                {
                    "name": "D6",
                    "midi": 86,
                    "time": 26.034476250000022,
                    "velocity": 0.47244094488188976,
                    "duration": 0.17241375000000048
                },
                {
                    "name": "C6",
                    "midi": 84,
                    "time": 26.206890000000023,
                    "velocity": 0.48031496062992124,
                    "duration": 0.17241375000000048
                },
                {
                    "name": "A#5",
                    "midi": 82,
                    "time": 26.379303750000023,
                    "velocity": 0.4881889763779528,
                    "duration": 0.17241375000000048
                },
                {
                    "name": "A5",
                    "midi": 81,
                    "time": 26.551717500000024,
                    "velocity": 0.4881889763779528,
                    "duration": 0.17241375000000048
                },
                {
                    "name": "G5",
                    "midi": 79,
                    "time": 26.724131250000024,
                    "velocity": 0.49606299212598426,
                    "duration": 0.17241375000000048
                },
                {
                    "name": "F#5",
                    "midi": 78,
                    "time": 26.896545000000025,
                    "velocity": 0.49606299212598426,
                    "duration": 0.17241375000000048
                },
                {
                    "name": "D#5",
                    "midi": 75,
                    "time": 27.068958750000025,
                    "velocity": 0.49606299212598426,
                    "duration": 0.17241375000000048
                },
                {
                    "name": "D5",
                    "midi": 74,
                    "time": 27.241372500000026,
                    "velocity": 0.49606299212598426,
                    "duration": 0.17241375000000048
                },
                {
                    "name": "C5",
                    "midi": 72,
                    "time": 27.413786250000026,
                    "velocity": 0.5039370078740157,
                    "duration": 0.17241375000000048
                },
                {
                    "name": "A#4",
                    "midi": 70,
                    "time": 27.586200000000026,
                    "velocity": 0.5039370078740157,
                    "duration": 0.17241375000000048
                },
                {
                    "name": "A4",
                    "midi": 69,
                    "time": 27.758613750000027,
                    "velocity": 0.5118110236220472,
                    "duration": 0.17241375000000048
                },
                {
                    "name": "G4",
                    "midi": 67,
                    "time": 27.931027500000027,
                    "velocity": 0.5118110236220472,
                    "duration": 0.17241375000000048
                },
                {
                    "name": "F#4",
                    "midi": 66,
                    "time": 28.103441250000028,
                    "velocity": 0.5196850393700787,
                    "duration": 0.17241375000000048
                },
                {
                    "name": "D#4",
                    "midi": 63,
                    "time": 28.27585500000003,
                    "velocity": 0.5196850393700787,
                    "duration": 0.17241375000000048
                },
                {
                    "name": "D4",
                    "midi": 62,
                    "time": 28.44826875000003,
                    "velocity": 0.5275590551181102,
                    "duration": 0.17241375000000048
                },
                {
                    "name": "C4",
                    "midi": 60,
                    "time": 28.62068250000003,
                    "velocity": 0.5354330708661418,
                    "duration": 0.17241375000000048
                },
                {
                    "name": "A#3",
                    "midi": 58,
                    "time": 28.79309625000003,
                    "velocity": 0.5354330708661418,
                    "duration": 0.17241375000000048
                },
                {
                    "name": "A3",
                    "midi": 57,
                    "time": 28.96551000000003,
                    "velocity": 0.5433070866141733,
                    "duration": 0.17241375000000048
                },
                {
                    "name": "G3",
                    "midi": 55,
                    "time": 29.13792375000003,
                    "velocity": 0.5433070866141733,
                    "duration": 0.17241375000000048
                },
                {
                    "name": "F#3",
                    "midi": 54,
                    "time": 29.31033750000003,
                    "velocity": 0.5511811023622047,
                    "duration": 0.17241375000000048
                },
                {
                    "name": "D#3",
                    "midi": 51,
                    "time": 29.48275125000003,
                    "velocity": 0.5433070866141733,
                    "duration": 0.17241375000000048
                },
                {
                    "name": "D3",
                    "midi": 50,
                    "time": 29.655165000000032,
                    "velocity": 0.5511811023622047,
                    "duration": 0.17241375000000048
                },
                {
                    "name": "C3",
                    "midi": 48,
                    "time": 29.827578750000033,
                    "velocity": 0.5669291338582677,
                    "duration": 0.17241375000000048
                },
                {
                    "name": "A#2",
                    "midi": 46,
                    "time": 29.999992500000033,
                    "velocity": 0.5748031496062992,
                    "duration": 0.17241375000000048
                },
                {
                    "name": "A2",
                    "midi": 45,
                    "time": 30.172406250000034,
                    "velocity": 0.5826771653543307,
                    "duration": 0.17241375000000048
                },
                {
                    "name": "G2",
                    "midi": 43,
                    "time": 30.344820000000034,
                    "velocity": 0.6299212598425197,
                    "duration": 1.5517237500000007
                },
                {
                    "name": "G#2",
                    "midi": 44,
                    "time": 31.896543750000035,
                    "velocity": 0.48031496062992124,
                    "duration": 0.17241374999999692
                },
                {
                    "name": "A2",
                    "midi": 45,
                    "time": 32.06895750000003,
                    "velocity": 0.48031496062992124,
                    "duration": 0.17241374999999692
                },
                {
                    "name": "A#2",
                    "midi": 46,
                    "time": 32.24137125000003,
                    "velocity": 0.4881889763779528,
                    "duration": 0.17241374999999692
                },
                {
                    "name": "B2",
                    "midi": 47,
                    "time": 32.413785000000026,
                    "velocity": 0.49606299212598426,
                    "duration": 0.17241374999999692
                },
                {
                    "name": "C3",
                    "midi": 48,
                    "time": 32.58619875000002,
                    "velocity": 0.49606299212598426,
                    "duration": 0.17241374999999692
                },
                {
                    "name": "C#3",
                    "midi": 49,
                    "time": 32.75861250000002,
                    "velocity": 0.49606299212598426,
                    "duration": 0.17241374999999692
                },
                {
                    "name": "D3",
                    "midi": 50,
                    "time": 32.931026250000016,
                    "velocity": 0.5039370078740157,
                    "duration": 0.17241374999999692
                },
                {
                    "name": "D#3",
                    "midi": 51,
                    "time": 33.10344000000001,
                    "velocity": 0.5039370078740157,
                    "duration": 0.17241374999999692
                },
                {
                    "name": "E3",
                    "midi": 52,
                    "time": 33.27585375000001,
                    "velocity": 0.5118110236220472,
                    "duration": 0.17241374999999692
                },
                {
                    "name": "F3",
                    "midi": 53,
                    "time": 33.44826750000001,
                    "velocity": 0.5196850393700787,
                    "duration": 0.17241374999999692
                },
                {
                    "name": "F#3",
                    "midi": 54,
                    "time": 33.620681250000004,
                    "velocity": 0.5196850393700787,
                    "duration": 0.17241374999999692
                },
                {
                    "name": "G3",
                    "midi": 55,
                    "time": 33.793095,
                    "velocity": 0.5275590551181102,
                    "duration": 0.17241374999999692
                },
                {
                    "name": "G#3",
                    "midi": 56,
                    "time": 33.96550875,
                    "velocity": 0.5354330708661418,
                    "duration": 0.17241374999999692
                },
                {
                    "name": "A3",
                    "midi": 57,
                    "time": 34.137922499999995,
                    "velocity": 0.5354330708661418,
                    "duration": 0.17241374999999692
                },
                {
                    "name": "A#3",
                    "midi": 58,
                    "time": 34.31033624999999,
                    "velocity": 0.5433070866141733,
                    "duration": 0.17241374999999692
                },
                {
                    "name": "B3",
                    "midi": 59,
                    "time": 34.48274999999999,
                    "velocity": 0.5433070866141733,
                    "duration": 0.17241374999999692
                },
                {
                    "name": "C4",
                    "midi": 60,
                    "time": 34.655163749999986,
                    "velocity": 0.5511811023622047,
                    "duration": 0.17241374999999692
                },
                {
                    "name": "C#4",
                    "midi": 61,
                    "time": 34.82757749999998,
                    "velocity": 0.5590551181102362,
                    "duration": 0.17241374999999692
                },
                {
                    "name": "D4",
                    "midi": 62,
                    "time": 34.99999124999998,
                    "velocity": 0.5669291338582677,
                    "duration": 0.17241374999999692
                },
                {
                    "name": "D#4",
                    "midi": 63,
                    "time": 35.172404999999976,
                    "velocity": 0.5669291338582677,
                    "duration": 0.17241374999999692
                },
                {
                    "name": "E4",
                    "midi": 64,
                    "time": 35.34481874999997,
                    "velocity": 0.5669291338582677,
                    "duration": 0.17241374999999692
                },
                {
                    "name": "F4",
                    "midi": 65,
                    "time": 35.51723249999997,
                    "velocity": 0.5669291338582677,
                    "duration": 0.17241374999999692
                },
                {
                    "name": "F#4",
                    "midi": 66,
                    "time": 35.68964624999997,
                    "velocity": 0.5748031496062992,
                    "duration": 0.17241374999999692
                },
                {
                    "name": "G4",
                    "midi": 67,
                    "time": 35.862059999999964,
                    "velocity": 0.5984251968503937,
                    "duration": 0.17241374999999692
                },
                {
                    "name": "F#4",
                    "midi": 66,
                    "time": 36.03447374999996,
                    "velocity": 0.5905511811023622,
                    "duration": 0.17241374999999692
                },
                {
                    "name": "F4",
                    "midi": 65,
                    "time": 36.20688749999996,
                    "velocity": 0.5826771653543307,
                    "duration": 0.17241374999999692
                },
                {
                    "name": "E4",
                    "midi": 64,
                    "time": 36.379301249999955,
                    "velocity": 0.5669291338582677,
                    "duration": 0.17241374999999692
                },
                {
                    "name": "D#4",
                    "midi": 63,
                    "time": 36.55171499999995,
                    "velocity": 0.5669291338582677,
                    "duration": 0.17241374999999692
                },
                {
                    "name": "D4",
                    "midi": 62,
                    "time": 36.72412874999995,
                    "velocity": 0.5590551181102362,
                    "duration": 0.17241374999999692
                },
                {
                    "name": "C#4",
                    "midi": 61,
                    "time": 36.896542499999946,
                    "velocity": 0.5511811023622047,
                    "duration": 0.17241374999999692
                },
                {
                    "name": "C4",
                    "midi": 60,
                    "time": 37.06895624999994,
                    "velocity": 0.5354330708661418,
                    "duration": 0.17241374999999692
                },
                {
                    "name": "B3",
                    "midi": 59,
                    "time": 37.24136999999994,
                    "velocity": 0.5196850393700787,
                    "duration": 0.17241374999999692
                },
                {
                    "name": "A#3",
                    "midi": 58,
                    "time": 37.413783749999936,
                    "velocity": 0.5275590551181102,
                    "duration": 0.17241374999999692
                },
                {
                    "name": "A3",
                    "midi": 57,
                    "time": 37.58619749999993,
                    "velocity": 0.5354330708661418,
                    "duration": 0.17241374999999692
                },
                {
                    "name": "G#3",
                    "midi": 56,
                    "time": 37.75861124999993,
                    "velocity": 0.5433070866141733,
                    "duration": 0.17241374999999692
                },
                {
                    "name": "G3",
                    "midi": 55,
                    "time": 37.93102499999993,
                    "velocity": 0.5511811023622047,
                    "duration": 0.17241374999999692
                },
                {
                    "name": "F#3",
                    "midi": 54,
                    "time": 38.103438749999924,
                    "velocity": 0.5590551181102362,
                    "duration": 0.17241374999999692
                },
                {
                    "name": "F3",
                    "midi": 53,
                    "time": 38.27585249999992,
                    "velocity": 0.5669291338582677,
                    "duration": 0.17241374999999692
                },
                {
                    "name": "E3",
                    "midi": 52,
                    "time": 38.44826624999992,
                    "velocity": 0.5748031496062992,
                    "duration": 0.17241374999999692
                },
                {
                    "name": "D#3",
                    "midi": 51,
                    "time": 38.620679999999915,
                    "velocity": 0.5826771653543307,
                    "duration": 0.17241374999999692
                },
                {
                    "name": "D3",
                    "midi": 50,
                    "time": 38.79309374999991,
                    "velocity": 0.5905511811023622,
                    "duration": 0.17241374999999692
                },
                {
                    "name": "C#3",
                    "midi": 49,
                    "time": 38.96550749999991,
                    "velocity": 0.6062992125984252,
                    "duration": 0.17241374999999692
                },
                {
                    "name": "C3",
                    "midi": 48,
                    "time": 39.137921249999906,
                    "velocity": 0.6220472440944882,
                    "duration": 0.17241374999999692
                },
                {
                    "name": "B2",
                    "midi": 47,
                    "time": 39.3103349999999,
                    "velocity": 0.6299212598425197,
                    "duration": 0.17241374999999692
                },
                {
                    "name": "A#2",
                    "midi": 46,
                    "time": 39.4827487499999,
                    "velocity": 0.6377952755905512,
                    "duration": 0.17241374999999692
                },
                {
                    "name": "A2",
                    "midi": 45,
                    "time": 39.655162499999896,
                    "velocity": 0.6535433070866141,
                    "duration": 0.17241374999999692
                },
                {
                    "name": "G#2",
                    "midi": 44,
                    "time": 39.82757624999989,
                    "velocity": 0.6692913385826772,
                    "duration": 0.17241374999999692
                },
                {
                    "name": "G2",
                    "midi": 43,
                    "time": 39.99998999999989,
                    "velocity": 0.7637795275590551,
                    "duration": 0.34482750000000095
                },
                {
                    "name": "G7",
                    "midi": 103,
                    "time": 41.379299999999894,
                    "velocity": 0.7559055118110236,
                    "duration": 0.34482750000000095
                },
                {
                    "name": "D7",
                    "midi": 98,
                    "time": 41.379299999999894,
                    "velocity": 0.6377952755905512,
                    "duration": 0.34482750000000095
                },
                {
                    "name": "A#6",
                    "midi": 94,
                    "time": 41.379299999999894,
                    "velocity": 0.5433070866141733,
                    "duration": 0.34482750000000095
                },
                {
                    "name": "G6",
                    "midi": 91,
                    "time": 41.379299999999894,
                    "velocity": 0.5433070866141733,
                    "duration": 0.34482750000000095
                },
                {
                    "name": "A#4",
                    "midi": 70,
                    "time": 121.3792799999999,
                    "velocity": 0.5905511811023622,
                    "duration": 1.3793100000000038
                },
                {
                    "name": "C#5",
                    "midi": 73,
                    "time": 122.7585899999999,
                    "velocity": 0.6141732283464567,
                    "duration": 1.3793100000000038
                },
                {
                    "name": "D5",
                    "midi": 74,
                    "time": 124.1378999999999,
                    "velocity": 0.6377952755905512,
                    "duration": 1.3793100000000038
                },
                {
                    "name": "A#4",
                    "midi": 70,
                    "time": 125.5172099999999,
                    "velocity": 0.5826771653543307,
                    "duration": 1.3793100000000038
                },
                {
                    "name": "C4",
                    "midi": 60,
                    "time": 158.6206499999999,
                    "velocity": 0.41732283464566927,
                    "duration": 1.3793100000000038
                },
                {
                    "name": "D4",
                    "midi": 62,
                    "time": 158.6206499999999,
                    "velocity": 0.5196850393700787,
                    "duration": 1.3793100000000038
                },
                {
                    "name": "F4",
                    "midi": 65,
                    "time": 161.3792699999999,
                    "velocity": 0.5433070866141733,
                    "duration": 1.3793100000000038
                },
                {
                    "name": "D#4",
                    "midi": 63,
                    "time": 161.3792699999999,
                    "velocity": 0.4251968503937008,
                    "duration": 1.3793100000000038
                },
                {
                    "name": "F4",
                    "midi": 65,
                    "time": 164.1378899999999,
                    "velocity": 0.44881889763779526,
                    "duration": 1.3793100000000038
                },
                {
                    "name": "A4",
                    "midi": 69,
                    "time": 164.1378899999999,
                    "velocity": 0.5669291338582677,
                    "duration": 1.3793100000000038
                },
                {
                    "name": "A#4",
                    "midi": 70,
                    "time": 166.89650999999992,
                    "velocity": 0.5669291338582677,
                    "duration": 1.3793100000000038
                },
                {
                    "name": "C#5",
                    "midi": 73,
                    "time": 169.65512999999993,
                    "velocity": 0.5905511811023622,
                    "duration": 1.3793100000000038
                },
                {
                    "name": "A#5",
                    "midi": 82,
                    "time": 172.41374999999994,
                    "velocity": 0.6220472440944882,
                    "duration": 1.3793100000000038
                },
                {
                    "name": "D5",
                    "midi": 74,
                    "time": 175.17236999999994,
                    "velocity": 0.5669291338582677,
                    "duration": 1.3793100000000038
                },
                {
                    "name": "F4",
                    "midi": 65,
                    "time": 177.93098999999995,
                    "velocity": 0.5511811023622047,
                    "duration": 1.3793100000000038
                },
                {
                    "name": "F#4",
                    "midi": 66,
                    "time": 179.31029999999996,
                    "velocity": 0.5039370078740157,
                    "duration": 1.3793100000000038
                },
                {
                    "name": "D3",
                    "midi": 50,
                    "time": 195.86201999999997,
                    "velocity": 0.5196850393700787,
                    "duration": 2.0689649999999915
                },
                {
                    "name": "D4",
                    "midi": 62,
                    "time": 195.86201999999997,
                    "velocity": 0.5196850393700787,
                    "duration": 2.0689649999999915
                },
                {
                    "name": "D3",
                    "midi": 50,
                    "time": 197.93098499999996,
                    "velocity": 0.5275590551181102,
                    "duration": 0.6896549999999877
                },
                {
                    "name": "D4",
                    "midi": 62,
                    "time": 197.93098499999996,
                    "velocity": 0.5275590551181102,
                    "duration": 0.6896549999999877
                },
                {
                    "name": "G4",
                    "midi": 67,
                    "time": 202.75856999999996,
                    "velocity": 0.5590551181102362,
                    "duration": 1.3793100000000038
                },
                {
                    "name": "G5",
                    "midi": 79,
                    "time": 202.75856999999996,
                    "velocity": 0.5590551181102362,
                    "duration": 1.3793100000000038
                },
                {
                    "name": "F#4",
                    "midi": 66,
                    "time": 204.13787999999997,
                    "velocity": 0.5433070866141733,
                    "duration": 1.3793100000000038
                },
                {
                    "name": "F#5",
                    "midi": 78,
                    "time": 204.13787999999997,
                    "velocity": 0.5433070866141733,
                    "duration": 1.3793100000000038
                },
                {
                    "name": "F4",
                    "midi": 65,
                    "time": 205.51718999999997,
                    "velocity": 0.5275590551181102,
                    "duration": 1.3793100000000038
                },
                {
                    "name": "F5",
                    "midi": 77,
                    "time": 205.51718999999997,
                    "velocity": 0.5275590551181102,
                    "duration": 1.3793100000000038
                },
                {
                    "name": "D#4",
                    "midi": 63,
                    "time": 206.89649999999997,
                    "velocity": 0.5196850393700787,
                    "duration": 1.3793100000000038
                },
                {
                    "name": "D#5",
                    "midi": 75,
                    "time": 206.89649999999997,
                    "velocity": 0.5196850393700787,
                    "duration": 1.3793100000000038
                },
                {
                    "name": "G#4",
                    "midi": 68,
                    "time": 208.27580999999998,
                    "velocity": 0.4645669291338583,
                    "duration": 1.3793100000000038
                },
                {
                    "name": "B4",
                    "midi": 71,
                    "time": 208.27580999999998,
                    "velocity": 0.5118110236220472,
                    "duration": 1.3793100000000038
                },
                {
                    "name": "D5",
                    "midi": 74,
                    "time": 208.27580999999998,
                    "velocity": 0.5118110236220472,
                    "duration": 1.3793100000000038
                },
                {
                    "name": "G4",
                    "midi": 67,
                    "time": 209.65511999999998,
                    "velocity": 0.49606299212598426,
                    "duration": 1.3793100000000038
                },
                {
                    "name": "C5",
                    "midi": 72,
                    "time": 209.65511999999998,
                    "velocity": 0.49606299212598426,
                    "duration": 1.3793100000000038
                },
                {
                    "name": "B3",
                    "midi": 59,
                    "time": 219.999945,
                    "velocity": 0.4251968503937008,
                    "duration": 1.3793100000000038
                },
                {
                    "name": "D4",
                    "midi": 62,
                    "time": 219.999945,
                    "velocity": 0.4251968503937008,
                    "duration": 1.3793100000000038
                },
                {
                    "name": "B4",
                    "midi": 71,
                    "time": 219.999945,
                    "velocity": 0.5118110236220472,
                    "duration": 1.3793100000000038
                },
                {
                    "name": "C4",
                    "midi": 60,
                    "time": 221.379255,
                    "velocity": 0.4645669291338583,
                    "duration": 1.3793100000000038
                },
                {
                    "name": "D#4",
                    "midi": 63,
                    "time": 221.379255,
                    "velocity": 0.4645669291338583,
                    "duration": 1.3793100000000038
                },
                {
                    "name": "C5",
                    "midi": 72,
                    "time": 221.379255,
                    "velocity": 0.5590551181102362,
                    "duration": 1.3793100000000038
                },
                {
                    "name": "D4",
                    "midi": 62,
                    "time": 222.758565,
                    "velocity": 0.47244094488188976,
                    "duration": 1.3793100000000038
                },
                {
                    "name": "F4",
                    "midi": 65,
                    "time": 222.758565,
                    "velocity": 0.47244094488188976,
                    "duration": 1.3793100000000038
                },
                {
                    "name": "D5",
                    "midi": 74,
                    "time": 222.758565,
                    "velocity": 0.5669291338582677,
                    "duration": 1.3793100000000038
                },
                {
                    "name": "D#4",
                    "midi": 63,
                    "time": 224.137875,
                    "velocity": 0.49606299212598426,
                    "duration": 1.3793100000000038
                },
                {
                    "name": "G4",
                    "midi": 67,
                    "time": 224.137875,
                    "velocity": 0.49606299212598426,
                    "duration": 1.3793100000000038
                },
                {
                    "name": "D#5",
                    "midi": 75,
                    "time": 224.137875,
                    "velocity": 0.5826771653543307,
                    "duration": 1.3793100000000038
                },
                {
                    "name": "F4",
                    "midi": 65,
                    "time": 225.517185,
                    "velocity": 0.5039370078740157,
                    "duration": 1.3793100000000038
                },
                {
                    "name": "D5",
                    "midi": 74,
                    "time": 225.517185,
                    "velocity": 0.5039370078740157,
                    "duration": 1.3793100000000038
                },
                {
                    "name": "F5",
                    "midi": 77,
                    "time": 225.517185,
                    "velocity": 0.5984251968503937,
                    "duration": 1.3793100000000038
                },
                {
                    "name": "G4",
                    "midi": 67,
                    "time": 226.89649500000002,
                    "velocity": 0.5275590551181102,
                    "duration": 1.3793100000000038
                },
                {
                    "name": "D#5",
                    "midi": 75,
                    "time": 226.89649500000002,
                    "velocity": 0.5275590551181102,
                    "duration": 1.3793100000000038
                },
                {
                    "name": "G5",
                    "midi": 79,
                    "time": 226.89649500000002,
                    "velocity": 0.6220472440944882,
                    "duration": 1.3793100000000038
                },
                {
                    "name": "G4",
                    "midi": 67,
                    "time": 228.27580500000002,
                    "velocity": 0.5511811023622047,
                    "duration": 1.3793100000000038
                },
                {
                    "name": "F5",
                    "midi": 77,
                    "time": 228.27580500000002,
                    "velocity": 0.5511811023622047,
                    "duration": 1.3793100000000038
                },
                {
                    "name": "G5",
                    "midi": 79,
                    "time": 228.27580500000002,
                    "velocity": 0.6456692913385826,
                    "duration": 1.3793100000000038
                },
                {
                    "name": "D#6",
                    "midi": 87,
                    "time": 229.65511500000002,
                    "velocity": 0.7086614173228346,
                    "duration": 1.3793100000000038
                },
                {
                    "name": "G5",
                    "midi": 79,
                    "time": 229.65511500000002,
                    "velocity": 0.5984251968503937,
                    "duration": 1.3793100000000038
                },
                {
                    "name": "D#5",
                    "midi": 75,
                    "time": 229.65511500000002,
                    "velocity": 0.5984251968503937,
                    "duration": 1.3793100000000038
                },
                {
                    "name": "D6",
                    "midi": 86,
                    "time": 231.03442500000003,
                    "velocity": 0.7165354330708661,
                    "duration": 0.6896549999999877
                },
                {
                    "name": "G#5",
                    "midi": 80,
                    "time": 231.03442500000003,
                    "velocity": 0.5984251968503937,
                    "duration": 0.6896549999999877
                },
                {
                    "name": "D5",
                    "midi": 74,
                    "time": 231.03442500000003,
                    "velocity": 0.5984251968503937,
                    "duration": 0.6896549999999877
                },
                {
                    "name": "C#6",
                    "midi": 85,
                    "time": 231.72408000000001,
                    "velocity": 0.7480314960629921,
                    "duration": 0.6896549999999877
                },
                {
                    "name": "A5",
                    "midi": 81,
                    "time": 231.72408000000001,
                    "velocity": 0.6299212598425197,
                    "duration": 0.6896549999999877
                },
                {
                    "name": "C#5",
                    "midi": 73,
                    "time": 231.72408000000001,
                    "velocity": 0.6299212598425197,
                    "duration": 0.6896549999999877
                },
                {
                    "name": "A4",
                    "midi": 69,
                    "time": 235.86201,
                    "velocity": 0.5590551181102362,
                    "duration": 1.3793100000000038
                },
                {
                    "name": "A5",
                    "midi": 81,
                    "time": 235.86201,
                    "velocity": 0.5590551181102362,
                    "duration": 1.3793100000000038
                },
                {
                    "name": "G#4",
                    "midi": 68,
                    "time": 237.24132,
                    "velocity": 0.5433070866141733,
                    "duration": 1.3793100000000038
                },
                {
                    "name": "G#5",
                    "midi": 80,
                    "time": 237.24132,
                    "velocity": 0.5433070866141733,
                    "duration": 1.3793100000000038
                },
                {
                    "name": "G4",
                    "midi": 67,
                    "time": 238.62063,
                    "velocity": 0.5275590551181102,
                    "duration": 1.3793100000000038
                },
                {
                    "name": "G5",
                    "midi": 79,
                    "time": 238.62063,
                    "velocity": 0.5275590551181102,
                    "duration": 1.3793100000000038
                },
                {
                    "name": "F4",
                    "midi": 65,
                    "time": 239.99994,
                    "velocity": 0.5196850393700787,
                    "duration": 1.3793100000000038
                },
                {
                    "name": "F5",
                    "midi": 77,
                    "time": 239.99994,
                    "velocity": 0.5196850393700787,
                    "duration": 1.3793100000000038
                },
                {
                    "name": "A#4",
                    "midi": 70,
                    "time": 241.37925,
                    "velocity": 0.4645669291338583,
                    "duration": 1.3793100000000038
                },
                {
                    "name": "C#5",
                    "midi": 73,
                    "time": 241.37925,
                    "velocity": 0.5118110236220472,
                    "duration": 1.3793100000000038
                },
                {
                    "name": "E5",
                    "midi": 76,
                    "time": 241.37925,
                    "velocity": 0.5118110236220472,
                    "duration": 1.3793100000000038
                },
                {
                    "name": "A4",
                    "midi": 69,
                    "time": 242.75856000000002,
                    "velocity": 0.49606299212598426,
                    "duration": 1.3793100000000038
                },
                {
                    "name": "D5",
                    "midi": 74,
                    "time": 242.75856000000002,
                    "velocity": 0.49606299212598426,
                    "duration": 1.3793100000000038
                },
                {
                    "name": "C#4",
                    "midi": 61,
                    "time": 253.10338500000003,
                    "velocity": 0.4251968503937008,
                    "duration": 1.3793100000000038
                },
                {
                    "name": "E4",
                    "midi": 64,
                    "time": 253.10338500000003,
                    "velocity": 0.4251968503937008,
                    "duration": 1.3793100000000038
                },
                {
                    "name": "C#5",
                    "midi": 73,
                    "time": 253.10338500000003,
                    "velocity": 0.5118110236220472,
                    "duration": 1.3793100000000038
                },
                {
                    "name": "D4",
                    "midi": 62,
                    "time": 254.48269500000004,
                    "velocity": 0.4645669291338583,
                    "duration": 1.3793100000000038
                },
                {
                    "name": "F4",
                    "midi": 65,
                    "time": 254.48269500000004,
                    "velocity": 0.4645669291338583,
                    "duration": 1.3793100000000038
                },
                {
                    "name": "D5",
                    "midi": 74,
                    "time": 254.48269500000004,
                    "velocity": 0.5590551181102362,
                    "duration": 1.3793100000000038
                },
                {
                    "name": "E4",
                    "midi": 64,
                    "time": 255.86200500000004,
                    "velocity": 0.47244094488188976,
                    "duration": 1.3793100000000038
                },
                {
                    "name": "G4",
                    "midi": 67,
                    "time": 255.86200500000004,
                    "velocity": 0.47244094488188976,
                    "duration": 1.3793100000000038
                },
                {
                    "name": "E5",
                    "midi": 76,
                    "time": 255.86200500000004,
                    "velocity": 0.5669291338582677,
                    "duration": 1.3793100000000038
                },
                {
                    "name": "F4",
                    "midi": 65,
                    "time": 257.24131500000004,
                    "velocity": 0.49606299212598426,
                    "duration": 1.3793099999999754
                },
                {
                    "name": "A4",
                    "midi": 69,
                    "time": 257.24131500000004,
                    "velocity": 0.49606299212598426,
                    "duration": 1.3793099999999754
                },
                {
                    "name": "F5",
                    "midi": 77,
                    "time": 257.24131500000004,
                    "velocity": 0.5826771653543307,
                    "duration": 1.3793099999999754
                },
                {
                    "name": "G4",
                    "midi": 67,
                    "time": 258.620625,
                    "velocity": 0.5118110236220472,
                    "duration": 1.3793099999999754
                },
                {
                    "name": "E5",
                    "midi": 76,
                    "time": 258.620625,
                    "velocity": 0.5118110236220472,
                    "duration": 1.3793099999999754
                },
                {
                    "name": "G5",
                    "midi": 79,
                    "time": 258.620625,
                    "velocity": 0.6062992125984252,
                    "duration": 1.3793099999999754
                },
                {
                    "name": "A4",
                    "midi": 69,
                    "time": 259.999935,
                    "velocity": 0.5433070866141733,
                    "duration": 1.3793099999999754
                },
                {
                    "name": "F5",
                    "midi": 77,
                    "time": 259.999935,
                    "velocity": 0.5433070866141733,
                    "duration": 1.3793099999999754
                },
                {
                    "name": "A5",
                    "midi": 81,
                    "time": 259.999935,
                    "velocity": 0.6377952755905512,
                    "duration": 1.3793099999999754
                },
                {
                    "name": "A4",
                    "midi": 69,
                    "time": 261.37924499999997,
                    "velocity": 0.5669291338582677,
                    "duration": 1.3793099999999754
                },
                {
                    "name": "G5",
                    "midi": 79,
                    "time": 261.37924499999997,
                    "velocity": 0.5669291338582677,
                    "duration": 1.3793099999999754
                },
                {
                    "name": "A5",
                    "midi": 81,
                    "time": 261.37924499999997,
                    "velocity": 0.6614173228346457,
                    "duration": 1.3793099999999754
                },
                {
                    "name": "F6",
                    "midi": 89,
                    "time": 262.75855499999994,
                    "velocity": 0.7401574803149606,
                    "duration": 1.3793099999999754
                },
                {
                    "name": "A5",
                    "midi": 81,
                    "time": 262.75855499999994,
                    "velocity": 0.6220472440944882,
                    "duration": 1.3793099999999754
                },
                {
                    "name": "F5",
                    "midi": 77,
                    "time": 262.75855499999994,
                    "velocity": 0.6062992125984252,
                    "duration": 1.3793099999999754
                },
                {
                    "name": "E6",
                    "midi": 88,
                    "time": 264.1378649999999,
                    "velocity": 0.7401574803149606,
                    "duration": 0.6896550000000161
                },
                {
                    "name": "A5",
                    "midi": 81,
                    "time": 264.1378649999999,
                    "velocity": 0.6141732283464567,
                    "duration": 0.6896550000000161
                },
                {
                    "name": "E5",
                    "midi": 76,
                    "time": 264.1378649999999,
                    "velocity": 0.5826771653543307,
                    "duration": 0.6896550000000161
                },
                {
                    "name": "A5",
                    "midi": 81,
                    "time": 268.9654499999999,
                    "velocity": 0.6535433070866141,
                    "duration": 0.45402287500002103
                },
                {
                    "name": "B5",
                    "midi": 83,
                    "time": 270.34475999999995,
                    "velocity": 0.6929133858267716,
                    "duration": 0.45402287500002103
                },
                {
                    "name": "C6",
                    "midi": 84,
                    "time": 271.72407,
                    "velocity": 0.7165354330708661,
                    "duration": 0.45402287500002103
                },
                {
                    "name": "C6",
                    "midi": 84,
                    "time": 274.48269,
                    "velocity": 0.7165354330708661,
                    "duration": 0.45402287500002103
                },
                {
                    "name": "B5",
                    "midi": 83,
                    "time": 275.862,
                    "velocity": 0.7086614173228346,
                    "duration": 0.45402287500002103
                },
                {
                    "name": "A#5",
                    "midi": 82,
                    "time": 277.24131000000006,
                    "velocity": 0.7086614173228346,
                    "duration": 0.45402287500002103
                },
                {
                    "name": "A5",
                    "midi": 81,
                    "time": 278.6206200000001,
                    "velocity": 0.6929133858267716,
                    "duration": 0.45402287500002103
                },
                {
                    "name": "G#5",
                    "midi": 80,
                    "time": 279.9999300000001,
                    "velocity": 0.6850393700787402,
                    "duration": 0.45402287500002103
                },
                {
                    "name": "A#5",
                    "midi": 82,
                    "time": 285.51717000000014,
                    "velocity": 0.6535433070866141,
                    "duration": 0.45402287500002103
                },
                {
                    "name": "C6",
                    "midi": 84,
                    "time": 286.89648000000017,
                    "velocity": 0.6929133858267716,
                    "duration": 0.45402287500002103
                },
                {
                    "name": "C#6",
                    "midi": 85,
                    "time": 288.2757900000002,
                    "velocity": 0.7165354330708661,
                    "duration": 0.45402287500002103
                },
                {
                    "name": "C#6",
                    "midi": 85,
                    "time": 291.0344100000002,
                    "velocity": 0.7165354330708661,
                    "duration": 0.45402287500002103
                },
                {
                    "name": "C6",
                    "midi": 84,
                    "time": 292.41372000000024,
                    "velocity": 0.7086614173228346,
                    "duration": 0.45402287500002103
                },
                {
                    "name": "B5",
                    "midi": 83,
                    "time": 293.7930300000003,
                    "velocity": 0.7086614173228346,
                    "duration": 0.45402287500002103
                },
                {
                    "name": "A#5",
                    "midi": 82,
                    "time": 295.1723400000003,
                    "velocity": 0.6929133858267716,
                    "duration": 0.45402287500002103
                },
                {
                    "name": "A5",
                    "midi": 81,
                    "time": 296.55165000000034,
                    "velocity": 0.6850393700787402,
                    "duration": 0.45402287500002103
                },
                {
                    "name": "C6",
                    "midi": 84,
                    "time": 302.06889000000035,
                    "velocity": 0.6535433070866141,
                    "duration": 0.45402287500002103
                },
                {
                    "name": "D6",
                    "midi": 86,
                    "time": 303.4482000000004,
                    "velocity": 0.6929133858267716,
                    "duration": 0.45402287500002103
                },
                {
                    "name": "D#6",
                    "midi": 87,
                    "time": 304.8275100000004,
                    "velocity": 0.7165354330708661,
                    "duration": 0.45402287500002103
                },
                {
                    "name": "G6",
                    "midi": 91,
                    "time": 306.4367050000004,
                    "velocity": 0.7165354330708661,
                    "duration": 0.45402287500002103
                },
                {
                    "name": "F6",
                    "midi": 89,
                    "time": 307.81601500000045,
                    "velocity": 0.7086614173228346,
                    "duration": 0.45402287500002103
                },
                {
                    "name": "D#6",
                    "midi": 87,
                    "time": 309.1953250000005,
                    "velocity": 0.7086614173228346,
                    "duration": 0.45402287500002103
                },
                {
                    "name": "C6",
                    "midi": 84,
                    "time": 310.5746350000005,
                    "velocity": 0.6929133858267716,
                    "duration": 0.45402287500002103
                },
                {
                    "name": "D#6",
                    "midi": 87,
                    "time": 311.95394500000054,
                    "velocity": 0.6850393700787402,
                    "duration": 0.45402287500002103
                },
                {
                    "name": "C6",
                    "midi": 84,
                    "time": 313.3332550000006,
                    "velocity": 0.6850393700787402,
                    "duration": 0.45402287500002103
                },
                {
                    "name": "F6",
                    "midi": 89,
                    "time": 314.7125650000006,
                    "velocity": 0.7165354330708661,
                    "duration": 0.45402287500002103
                },
                {
                    "name": "D#6",
                    "midi": 87,
                    "time": 316.09187500000064,
                    "velocity": 0.7086614173228346,
                    "duration": 0.45402287500002103
                },
                {
                    "name": "D6",
                    "midi": 86,
                    "time": 317.4711850000007,
                    "velocity": 0.7086614173228346,
                    "duration": 0.45402287500002103
                },
                {
                    "name": "A#5",
                    "midi": 82,
                    "time": 318.8504950000007,
                    "velocity": 0.6929133858267716,
                    "duration": 0.45402287500002103
                },
                {
                    "name": "D6",
                    "midi": 86,
                    "time": 320.22980500000074,
                    "velocity": 0.6850393700787402,
                    "duration": 0.45402287500002103
                },
                {
                    "name": "A#5",
                    "midi": 82,
                    "time": 321.60911500000077,
                    "velocity": 0.6850393700787402,
                    "duration": 0.45402287500002103
                },
                {
                    "name": "D#6",
                    "midi": 87,
                    "time": 322.9884250000008,
                    "velocity": 0.7165354330708661,
                    "duration": 0.45402287500002103
                },
                {
                    "name": "D6",
                    "midi": 86,
                    "time": 324.36773500000083,
                    "velocity": 0.7086614173228346,
                    "duration": 0.45402287500002103
                },
                {
                    "name": "C6",
                    "midi": 84,
                    "time": 325.74704500000087,
                    "velocity": 0.7086614173228346,
                    "duration": 0.45402287500002103
                },
                {
                    "name": "A5",
                    "midi": 81,
                    "time": 327.1263550000009,
                    "velocity": 0.6929133858267716,
                    "duration": 0.45402287500002103
                },
                {
                    "name": "C6",
                    "midi": 84,
                    "time": 328.50566500000093,
                    "velocity": 0.6850393700787402,
                    "duration": 0.45402287500002103
                },
                {
                    "name": "A5",
                    "midi": 81,
                    "time": 329.88497500000096,
                    "velocity": 0.6850393700787402,
                    "duration": 0.45402287500002103
                },
                {
                    "name": "D6",
                    "midi": 86,
                    "time": 331.264285000001,
                    "velocity": 0.7165354330708661,
                    "duration": 0.45402287500002103
                },
                {
                    "name": "C6",
                    "midi": 84,
                    "time": 332.643595000001,
                    "velocity": 0.7086614173228346,
                    "duration": 0.45402287500002103
                },
                {
                    "name": "A#5",
                    "midi": 82,
                    "time": 334.02290500000106,
                    "velocity": 0.7086614173228346,
                    "duration": 0.45402287500002103
                },
                {
                    "name": "D6",
                    "midi": 86,
                    "time": 335.4022150000011,
                    "velocity": 0.6929133858267716,
                    "duration": 0.45402287500002103
                },
                {
                    "name": "D6",
                    "midi": 86,
                    "time": 336.7815250000011,
                    "velocity": 0.6850393700787402,
                    "duration": 0.45402287500002103
                },
                {
                    "name": "C#6",
                    "midi": 85,
                    "time": 338.16083500000116,
                    "velocity": 0.6850393700787402,
                    "duration": 0.45402287500002103
                },
                {
                    "name": "F4",
                    "midi": 65,
                    "time": 397.2412800000012,
                    "velocity": 0.4330708661417323,
                    "duration": 2.7586200000000076
                },
                {
                    "name": "E4",
                    "midi": 64,
                    "time": 399.9999000000012,
                    "velocity": 0.3937007874015748,
                    "duration": 1.3793099999999754
                },
                {
                    "name": "D#4",
                    "midi": 63,
                    "time": 401.3792100000012,
                    "velocity": 0.47244094488188976,
                    "duration": 1.3793099999999754
                },
                {
                    "name": "D4",
                    "midi": 62,
                    "time": 402.75852000000117,
                    "velocity": 0.4409448818897638,
                    "duration": 1.3793099999999754
                },
                {
                    "name": "D#4",
                    "midi": 63,
                    "time": 404.13783000000114,
                    "velocity": 0.4566929133858268,
                    "duration": 1.3793099999999754
                },
                {
                    "name": "D#4",
                    "midi": 63,
                    "time": 405.5171400000011,
                    "velocity": 0.4330708661417323,
                    "duration": 2.7586200000000076
                },
                {
                    "name": "D#4",
                    "midi": 63,
                    "time": 408.2757600000011,
                    "velocity": 0.3937007874015748,
                    "duration": 1.3793099999999754
                },
                {
                    "name": "D#4",
                    "midi": 63,
                    "time": 409.6550700000011,
                    "velocity": 0.4409448818897638,
                    "duration": 1.3793099999999754
                },
                {
                    "name": "D4",
                    "midi": 62,
                    "time": 411.0343800000011,
                    "velocity": 0.41732283464566927,
                    "duration": 1.3793099999999754
                },
                {
                    "name": "D4",
                    "midi": 62,
                    "time": 412.41369000000105,
                    "velocity": 0.4251968503937008,
                    "duration": 1.3793099999999754
                },
                {
                    "name": "D4",
                    "midi": 62,
                    "time": 413.79300000000103,
                    "velocity": 0.41732283464566927,
                    "duration": 1.3793099999999754
                },
                {
                    "name": "C#4",
                    "midi": 61,
                    "time": 415.172310000001,
                    "velocity": 0.3937007874015748,
                    "duration": 1.3793099999999754
                },
                {
                    "name": "D4",
                    "midi": 62,
                    "time": 416.551620000001,
                    "velocity": 0.3937007874015748,
                    "duration": 1.3793099999999754
                },
                {
                    "name": "A#3",
                    "midi": 58,
                    "time": 417.93093000000096,
                    "velocity": 0.3937007874015748,
                    "duration": 1.3793099999999754
                },
                {
                    "name": "C4",
                    "midi": 60,
                    "time": 419.31024000000093,
                    "velocity": 0.3543307086614173,
                    "duration": 1.3793099999999754
                },
                {
                    "name": "A3",
                    "midi": 57,
                    "time": 420.6895500000009,
                    "velocity": 0.3543307086614173,
                    "duration": 1.3793099999999754
                },
                {
                    "name": "A#3",
                    "midi": 58,
                    "time": 422.0688600000009,
                    "velocity": 0.3543307086614173,
                    "duration": 1.3735628750000046
                },
                {
                    "name": "D4",
                    "midi": 62,
                    "time": 423.4481700000009,
                    "velocity": 0.3700787401574803,
                    "duration": 1.3793099999999754
                },
                {
                    "name": "A#3",
                    "midi": 58,
                    "time": 424.8274800000009,
                    "velocity": 0.3937007874015748,
                    "duration": 1.3735628750000046
                },
                {
                    "name": "D4",
                    "midi": 62,
                    "time": 426.2067900000009,
                    "velocity": 0.4251968503937008,
                    "duration": 1.3793099999999754
                },
                {
                    "name": "D4",
                    "midi": 62,
                    "time": 427.5861000000009,
                    "velocity": 0.4330708661417323,
                    "duration": 1.3735628750000046
                },
                {
                    "name": "F4",
                    "midi": 65,
                    "time": 428.96541000000093,
                    "velocity": 0.48031496062992124,
                    "duration": 1.3793099999999754
                },
                {
                    "name": "G4",
                    "midi": 67,
                    "time": 430.3447200000009,
                    "velocity": 0.4881889763779528,
                    "duration": 1.3793099999999754
                },
                {
                    "name": "D#4",
                    "midi": 63,
                    "time": 431.7240300000009,
                    "velocity": 0.49606299212598426,
                    "duration": 1.3793099999999754
                },
                {
                    "name": "D4",
                    "midi": 62,
                    "time": 433.10334000000086,
                    "velocity": 0.4566929133858268,
                    "duration": 1.3793099999999754
                },
                {
                    "name": "A#3",
                    "midi": 58,
                    "time": 434.48265000000083,
                    "velocity": 0.4409448818897638,
                    "duration": 1.3793099999999754
                },
                {
                    "name": "C4",
                    "midi": 60,
                    "time": 435.8619600000008,
                    "velocity": 0.4094488188976378,
                    "duration": 1.3793099999999754
                },
                {
                    "name": "A3",
                    "midi": 57,
                    "time": 437.2412700000008,
                    "velocity": 0.3937007874015748,
                    "duration": 1.3793099999999754
                },
                {
                    "name": "A#3",
                    "midi": 58,
                    "time": 438.62058000000076,
                    "velocity": 0.3543307086614173,
                    "duration": 1.3735628750000046
                },
                {
                    "name": "D4",
                    "midi": 62,
                    "time": 439.9998900000008,
                    "velocity": 0.3779527559055118,
                    "duration": 1.3793099999999754
                },
                {
                    "name": "A#3",
                    "midi": 58,
                    "time": 441.37920000000076,
                    "velocity": 0.3937007874015748,
                    "duration": 1.3735628750000046
                },
                {
                    "name": "D4",
                    "midi": 62,
                    "time": 442.7585100000008,
                    "velocity": 0.4251968503937008,
                    "duration": 1.3793099999999754
                },
                {
                    "name": "D4",
                    "midi": 62,
                    "time": 444.1378200000008,
                    "velocity": 0.4330708661417323,
                    "duration": 1.3735628750000046
                },
                {
                    "name": "F4",
                    "midi": 65,
                    "time": 445.5171300000008,
                    "velocity": 0.48031496062992124,
                    "duration": 1.3793099999999754
                },
                {
                    "name": "G4",
                    "midi": 67,
                    "time": 446.8964400000008,
                    "velocity": 0.4881889763779528,
                    "duration": 1.3793099999999754
                },
                {
                    "name": "D#4",
                    "midi": 63,
                    "time": 448.27575000000076,
                    "velocity": 0.49606299212598426,
                    "duration": 1.3793099999999754
                },
                {
                    "name": "D4",
                    "midi": 62,
                    "time": 449.65506000000073,
                    "velocity": 0.4566929133858268,
                    "duration": 1.3793099999999754
                },
                {
                    "name": "A#3",
                    "midi": 58,
                    "time": 451.0343700000007,
                    "velocity": 0.4409448818897638,
                    "duration": 1.3793099999999754
                },
                {
                    "name": "C4",
                    "midi": 60,
                    "time": 452.4136800000007,
                    "velocity": 0.4094488188976378,
                    "duration": 1.3793099999999754
                },
                {
                    "name": "A3",
                    "midi": 57,
                    "time": 453.79299000000066,
                    "velocity": 0.3937007874015748,
                    "duration": 1.3793099999999754
                },
                {
                    "name": "G6",
                    "midi": 91,
                    "time": 459.3102300000006,
                    "velocity": 0.5669291338582677,
                    "duration": 1.3793099999999754
                },
                {
                    "name": "G5",
                    "midi": 79,
                    "time": 459.3102300000006,
                    "velocity": 0.4881889763779528,
                    "duration": 1.3793099999999754
                },
                {
                    "name": "F#5",
                    "midi": 78,
                    "time": 460.6895400000006,
                    "velocity": 0.4645669291338583,
                    "duration": 2.0689649999999915
                },
                {
                    "name": "F#6",
                    "midi": 90,
                    "time": 460.6895400000006,
                    "velocity": 0.5511811023622047,
                    "duration": 2.0689649999999915
                },
                {
                    "name": "D#5",
                    "midi": 75,
                    "time": 462.7585050000006,
                    "velocity": 0.44881889763779526,
                    "duration": 0.6896550000000161
                },
                {
                    "name": "D#6",
                    "midi": 87,
                    "time": 462.7585050000006,
                    "velocity": 0.5275590551181102,
                    "duration": 0.6896550000000161
                },
                {
                    "name": "D5",
                    "midi": 74,
                    "time": 463.4481600000006,
                    "velocity": 0.3937007874015748,
                    "duration": 1.3793099999999754
                },
                {
                    "name": "D6",
                    "midi": 86,
                    "time": 463.4481600000006,
                    "velocity": 0.47244094488188976,
                    "duration": 1.3793099999999754
                },
                {
                    "name": "G4",
                    "midi": 67,
                    "time": 467.5860900000006,
                    "velocity": 0.4645669291338583,
                    "duration": 1.3793099999999754
                },
                {
                    "name": "G5",
                    "midi": 79,
                    "time": 467.5860900000006,
                    "velocity": 0.5511811023622047,
                    "duration": 1.3793099999999754
                },
                {
                    "name": "F#4",
                    "midi": 66,
                    "time": 468.96540000000056,
                    "velocity": 0.4409448818897638,
                    "duration": 2.0689649999999915
                },
                {
                    "name": "F#5",
                    "midi": 78,
                    "time": 468.96540000000056,
                    "velocity": 0.5275590551181102,
                    "duration": 2.0689649999999915
                },
                {
                    "name": "D#4",
                    "midi": 63,
                    "time": 471.03436500000055,
                    "velocity": 0.4251968503937008,
                    "duration": 0.6896550000000161
                },
                {
                    "name": "D#5",
                    "midi": 75,
                    "time": 471.03436500000055,
                    "velocity": 0.5039370078740157,
                    "duration": 0.6896550000000161
                },
                {
                    "name": "D5",
                    "midi": 74,
                    "time": 471.72402000000056,
                    "velocity": 0.47244094488188976,
                    "duration": 1.3793099999999754
                },
                {
                    "name": "D4",
                    "midi": 62,
                    "time": 471.72402000000056,
                    "velocity": 0.3937007874015748,
                    "duration": 1.3793099999999754
                },
                {
                    "name": "D5",
                    "midi": 74,
                    "time": 473.10333000000054,
                    "velocity": 0.5511811023622047,
                    "duration": 1.3793099999999754
                },
                {
                    "name": "G4",
                    "midi": 67,
                    "time": 473.10333000000054,
                    "velocity": 0.4645669291338583,
                    "duration": 1.3793099999999754
                },
                {
                    "name": "D4",
                    "midi": 62,
                    "time": 473.10333000000054,
                    "velocity": 0.4645669291338583,
                    "duration": 1.3793099999999754
                },
                {
                    "name": "G4",
                    "midi": 67,
                    "time": 474.4826400000005,
                    "velocity": 0.4409448818897638,
                    "duration": 4.137929999999983
                },
                {
                    "name": "D5",
                    "midi": 74,
                    "time": 474.4826400000005,
                    "velocity": 0.5275590551181102,
                    "duration": 4.137929999999983
                },
                {
                    "name": "D4",
                    "midi": 62,
                    "time": 474.4826400000005,
                    "velocity": 0.4409448818897638,
                    "duration": 4.137929999999983
                },
                {
                    "name": "G4",
                    "midi": 67,
                    "time": 478.6205700000005,
                    "velocity": 0.49606299212598426,
                    "duration": 1.3793099999999754
                },
                {
                    "name": "C5",
                    "midi": 72,
                    "time": 478.6205700000005,
                    "velocity": 0.5748031496062992,
                    "duration": 1.3793099999999754
                },
                {
                    "name": "C4",
                    "midi": 60,
                    "time": 478.6205700000005,
                    "velocity": 0.49606299212598426,
                    "duration": 1.3793099999999754
                },
                {
                    "name": "G4",
                    "midi": 67,
                    "time": 481.37919000000045,
                    "velocity": 0.5826771653543307,
                    "duration": 0.45402287500002103
                },
                {
                    "name": "F#4",
                    "midi": 66,
                    "time": 482.7585000000005,
                    "velocity": 0.5196850393700787,
                    "duration": 1.3793099999999754
                },
                {
                    "name": "E4",
                    "midi": 64,
                    "time": 484.13781000000046,
                    "velocity": 0.5039370078740157,
                    "duration": 1.3793099999999754
                },
                {
                    "name": "D4",
                    "midi": 62,
                    "time": 485.51712000000043,
                    "velocity": 0.5118110236220472,
                    "duration": 1.3793099999999754
                },
                {
                    "name": "B3",
                    "midi": 59,
                    "time": 486.8964300000004,
                    "velocity": 0.5354330708661418,
                    "duration": 0.45402287500002103
                },
                {
                    "name": "G3",
                    "midi": 55,
                    "time": 488.27574000000044,
                    "velocity": 0.5118110236220472,
                    "duration": 0.45402287500002103
                },
                {
                    "name": "F#3",
                    "midi": 54,
                    "time": 489.6550500000005,
                    "velocity": 0.5196850393700787,
                    "duration": 1.3793099999999754
                },
                {
                    "name": "E3",
                    "midi": 52,
                    "time": 491.03436000000045,
                    "velocity": 0.5354330708661418,
                    "duration": 1.3793099999999754
                },
                {
                    "name": "D#3",
                    "midi": 51,
                    "time": 492.4136700000004,
                    "velocity": 0.5433070866141733,
                    "duration": 1.3793099999999754
                },
                {
                    "name": "D3",
                    "midi": 50,
                    "time": 493.7929800000004,
                    "velocity": 0.5590551181102362,
                    "duration": 1.3793099999999754
                },
                {
                    "name": "B2",
                    "midi": 47,
                    "time": 495.1722900000004,
                    "velocity": 0.5669291338582677,
                    "duration": 1.3793099999999754
                },
                {
                    "name": "B2",
                    "midi": 47,
                    "time": 504.31021875000033,
                    "velocity": 0.6220472440944882,
                    "duration": 2.1264362499999834
                },
                {
                    "name": "D3",
                    "midi": 50,
                    "time": 506.4366550000003,
                    "velocity": 0.47244094488188976,
                    "duration": 0.22988500000002432
                },
                {
                    "name": "G3",
                    "midi": 55,
                    "time": 506.66654000000034,
                    "velocity": 0.4881889763779528,
                    "duration": 0.22988500000002432
                },
                {
                    "name": "B3",
                    "midi": 59,
                    "time": 506.89642500000036,
                    "velocity": 0.49606299212598426,
                    "duration": 0.22988500000002432
                },
                {
                    "name": "D4",
                    "midi": 62,
                    "time": 507.1263100000004,
                    "velocity": 0.5039370078740157,
                    "duration": 0.22988500000002432
                },
                {
                    "name": "G4",
                    "midi": 67,
                    "time": 507.3561950000004,
                    "velocity": 0.5118110236220472,
                    "duration": 0.22988500000002432
                },
                {
                    "name": "B4",
                    "midi": 71,
                    "time": 507.58608000000044,
                    "velocity": 0.5275590551181102,
                    "duration": 0.22988500000002432
                },
                {
                    "name": "D5",
                    "midi": 74,
                    "time": 507.81596500000046,
                    "velocity": 0.5354330708661418,
                    "duration": 0.22988500000002432
                },
                {
                    "name": "G5",
                    "midi": 79,
                    "time": 508.0458500000005,
                    "velocity": 0.5511811023622047,
                    "duration": 0.22988500000002432
                },
                {
                    "name": "B5",
                    "midi": 83,
                    "time": 508.2757350000005,
                    "velocity": 0.5590551181102362,
                    "duration": 0.22988500000002432
                },
                {
                    "name": "D6",
                    "midi": 86,
                    "time": 508.50562000000053,
                    "velocity": 0.5669291338582677,
                    "duration": 0.22988500000002432
                },
                {
                    "name": "G6",
                    "midi": 91,
                    "time": 508.73550500000056,
                    "velocity": 0.6062992125984252,
                    "duration": 0.22988500000002432
                },
                {
                    "name": "B6",
                    "midi": 95,
                    "time": 508.9653900000006,
                    "velocity": 0.6299212598425197,
                    "duration": 1.5517237500000078
                },
                {
                    "name": "A6",
                    "midi": 93,
                    "time": 510.5171137500006,
                    "velocity": 0.4566929133858268,
                    "duration": 0.1724137499999756
                },
                {
                    "name": "G6",
                    "midi": 91,
                    "time": 510.68952750000057,
                    "velocity": 0.4645669291338583,
                    "duration": 0.1724137499999756
                },
                {
                    "name": "F#6",
                    "midi": 90,
                    "time": 510.86194125000054,
                    "velocity": 0.4645669291338583,
                    "duration": 0.1724137499999756
                },
                {
                    "name": "E6",
                    "midi": 88,
                    "time": 511.0343550000005,
                    "velocity": 0.47244094488188976,
                    "duration": 0.1724137499999756
                },
                {
                    "name": "D6",
                    "midi": 86,
                    "time": 511.2067687500005,
                    "velocity": 0.47244094488188976,
                    "duration": 0.1724137499999756
                },
                {
                    "name": "C6",
                    "midi": 84,
                    "time": 511.37918250000047,
                    "velocity": 0.48031496062992124,
                    "duration": 0.1724137499999756
                },
                {
                    "name": "B5",
                    "midi": 83,
                    "time": 511.55159625000044,
                    "velocity": 0.4881889763779528,
                    "duration": 0.1724137499999756
                },
                {
                    "name": "A5",
                    "midi": 81,
                    "time": 511.7240100000004,
                    "velocity": 0.4881889763779528,
                    "duration": 0.1724137499999756
                },
                {
                    "name": "G5",
                    "midi": 79,
                    "time": 511.8964237500004,
                    "velocity": 0.49606299212598426,
                    "duration": 0.17241375000003245
                },
                {
                    "name": "F#5",
                    "midi": 78,
                    "time": 512.0688375000004,
                    "velocity": 0.49606299212598426,
                    "duration": 0.17241375000003245
                },
                {
                    "name": "E5",
                    "midi": 76,
                    "time": 512.2412512500005,
                    "velocity": 0.49606299212598426,
                    "duration": 0.17241375000003245
                },
                {
                    "name": "D5",
                    "midi": 74,
                    "time": 512.4136650000005,
                    "velocity": 0.49606299212598426,
                    "duration": 0.17241375000003245
                },
                {
                    "name": "C5",
                    "midi": 72,
                    "time": 512.5860787500005,
                    "velocity": 0.5039370078740157,
                    "duration": 0.17241375000003245
                },
                {
                    "name": "B4",
                    "midi": 71,
                    "time": 512.7584925000006,
                    "velocity": 0.5039370078740157,
                    "duration": 0.17241375000003245
                },
                {
                    "name": "A4",
                    "midi": 69,
                    "time": 512.9309062500006,
                    "velocity": 0.5118110236220472,
                    "duration": 0.17241375000003245
                },
                {
                    "name": "G4",
                    "midi": 67,
                    "time": 513.1033200000006,
                    "velocity": 0.5118110236220472,
                    "duration": 0.17241375000003245
                },
                {
                    "name": "F#4",
                    "midi": 66,
                    "time": 513.2757337500007,
                    "velocity": 0.5196850393700787,
                    "duration": 0.17241375000003245
                },
                {
                    "name": "E4",
                    "midi": 64,
                    "time": 513.4481475000007,
                    "velocity": 0.5196850393700787,
                    "duration": 0.17241375000003245
                },
                {
                    "name": "D4",
                    "midi": 62,
                    "time": 513.6205612500007,
                    "velocity": 0.5275590551181102,
                    "duration": 0.17241375000003245
                },
                {
                    "name": "C4",
                    "midi": 60,
                    "time": 513.7929750000008,
                    "velocity": 0.5354330708661418,
                    "duration": 0.17241375000003245
                },
                {
                    "name": "B3",
                    "midi": 59,
                    "time": 513.9653887500008,
                    "velocity": 0.5354330708661418,
                    "duration": 0.17241375000003245
                },
                {
                    "name": "A3",
                    "midi": 57,
                    "time": 514.1378025000008,
                    "velocity": 0.5433070866141733,
                    "duration": 0.17241375000003245
                },
                {
                    "name": "G3",
                    "midi": 55,
                    "time": 514.3102162500008,
                    "velocity": 0.5433070866141733,
                    "duration": 0.17241375000003245
                },
                {
                    "name": "F#3",
                    "midi": 54,
                    "time": 514.4826300000009,
                    "velocity": 0.5511811023622047,
                    "duration": 0.17241375000003245
                },
                {
                    "name": "E3",
                    "midi": 52,
                    "time": 514.6550437500009,
                    "velocity": 0.5511811023622047,
                    "duration": 0.17241375000003245
                },
                {
                    "name": "D3",
                    "midi": 50,
                    "time": 514.827457500001,
                    "velocity": 0.5590551181102362,
                    "duration": 0.17241375000003245
                },
                {
                    "name": "C3",
                    "midi": 48,
                    "time": 514.999871250001,
                    "velocity": 0.5590551181102362,
                    "duration": 0.17241375000003245
                },
                {
                    "name": "B2",
                    "midi": 47,
                    "time": 515.172285000001,
                    "velocity": 0.5669291338582677,
                    "duration": 0.17241375000003245
                },
                {
                    "name": "A2",
                    "midi": 45,
                    "time": 515.344698750001,
                    "velocity": 0.5669291338582677,
                    "duration": 0.17241375000003245
                },
                {
                    "name": "G2",
                    "midi": 43,
                    "time": 515.5171125000011,
                    "velocity": 0.6299212598425197,
                    "duration": 1.896551250000016
                },
                {
                    "name": "B2",
                    "midi": 47,
                    "time": 517.4136637500011,
                    "velocity": 0.47244094488188976,
                    "duration": 0.17241375000003245
                },
                {
                    "name": "D3",
                    "midi": 50,
                    "time": 517.5860775000011,
                    "velocity": 0.4881889763779528,
                    "duration": 0.17241375000003245
                },
                {
                    "name": "G3",
                    "midi": 55,
                    "time": 517.7584912500012,
                    "velocity": 0.49606299212598426,
                    "duration": 0.17241375000003245
                },
                {
                    "name": "B3",
                    "midi": 59,
                    "time": 517.9309050000012,
                    "velocity": 0.5039370078740157,
                    "duration": 0.17241375000003245
                },
                {
                    "name": "D4",
                    "midi": 62,
                    "time": 518.1033187500012,
                    "velocity": 0.5118110236220472,
                    "duration": 0.17241375000003245
                },
                {
                    "name": "G4",
                    "midi": 67,
                    "time": 518.2757325000013,
                    "velocity": 0.5275590551181102,
                    "duration": 0.17241375000003245
                },
                {
                    "name": "B4",
                    "midi": 71,
                    "time": 518.4481462500013,
                    "velocity": 0.5354330708661418,
                    "duration": 0.17241375000003245
                },
                {
                    "name": "D5",
                    "midi": 74,
                    "time": 518.6205600000013,
                    "velocity": 0.5511811023622047,
                    "duration": 0.17241375000003245
                },
                {
                    "name": "G5",
                    "midi": 79,
                    "time": 518.7929737500014,
                    "velocity": 0.5590551181102362,
                    "duration": 0.17241375000003245
                },
                {
                    "name": "B5",
                    "midi": 83,
                    "time": 518.9653875000014,
                    "velocity": 0.5669291338582677,
                    "duration": 0.17241375000003245
                },
                {
                    "name": "D6",
                    "midi": 86,
                    "time": 519.1378012500014,
                    "velocity": 0.5748031496062992,
                    "duration": 0.17241375000003245
                },
                {
                    "name": "G6",
                    "midi": 91,
                    "time": 519.3102150000014,
                    "velocity": 0.5905511811023622,
                    "duration": 0.17241375000003245
                },
                {
                    "name": "B6",
                    "midi": 95,
                    "time": 519.4826287500015,
                    "velocity": 0.6141732283464567,
                    "duration": 2.0689650000000483
                },
                {
                    "name": "D7",
                    "midi": 98,
                    "time": 519.6550425000015,
                    "velocity": 0.6299212598425197,
                    "duration": 1.896551250000016
                },
                {
                    "name": "C7",
                    "midi": 96,
                    "time": 521.5515937500015,
                    "velocity": 0.4566929133858268,
                    "duration": 0.17241375000003245
                },
                {
                    "name": "B6",
                    "midi": 95,
                    "time": 521.7240075000016,
                    "velocity": 0.4566929133858268,
                    "duration": 0.17241375000003245
                },
                {
                    "name": "A6",
                    "midi": 93,
                    "time": 521.8964212500016,
                    "velocity": 0.4566929133858268,
                    "duration": 0.17241375000003245
                },
                {
                    "name": "G6",
                    "midi": 91,
                    "time": 522.0688350000016,
                    "velocity": 0.4645669291338583,
                    "duration": 0.17241375000003245
                },
                {
                    "name": "F#6",
                    "midi": 90,
                    "time": 522.2412487500017,
                    "velocity": 0.4645669291338583,
                    "duration": 0.17241375000003245
                },
                {
                    "name": "E6",
                    "midi": 88,
                    "time": 522.4136625000017,
                    "velocity": 0.47244094488188976,
                    "duration": 0.17241375000003245
                },
                {
                    "name": "D6",
                    "midi": 86,
                    "time": 522.5860762500017,
                    "velocity": 0.47244094488188976,
                    "duration": 0.17241375000003245
                },
                {
                    "name": "C6",
                    "midi": 84,
                    "time": 522.7584900000018,
                    "velocity": 0.48031496062992124,
                    "duration": 0.17241375000003245
                },
                {
                    "name": "B5",
                    "midi": 83,
                    "time": 522.9309037500018,
                    "velocity": 0.4881889763779528,
                    "duration": 0.17241375000003245
                },
                {
                    "name": "A5",
                    "midi": 81,
                    "time": 523.1033175000018,
                    "velocity": 0.4881889763779528,
                    "duration": 0.17241375000003245
                },
                {
                    "name": "G5",
                    "midi": 79,
                    "time": 523.2757312500019,
                    "velocity": 0.49606299212598426,
                    "duration": 0.17241375000003245
                },
                {
                    "name": "F#5",
                    "midi": 78,
                    "time": 523.4481450000019,
                    "velocity": 0.49606299212598426,
                    "duration": 0.17241375000003245
                },
                {
                    "name": "E5",
                    "midi": 76,
                    "time": 523.6205587500019,
                    "velocity": 0.49606299212598426,
                    "duration": 0.17241375000003245
                },
                {
                    "name": "D5",
                    "midi": 74,
                    "time": 523.792972500002,
                    "velocity": 0.49606299212598426,
                    "duration": 0.17241375000003245
                },
                {
                    "name": "C5",
                    "midi": 72,
                    "time": 523.965386250002,
                    "velocity": 0.5039370078740157,
                    "duration": 0.17241375000003245
                },
                {
                    "name": "B4",
                    "midi": 71,
                    "time": 524.137800000002,
                    "velocity": 0.5039370078740157,
                    "duration": 0.17241375000003245
                },
                {
                    "name": "A4",
                    "midi": 69,
                    "time": 524.310213750002,
                    "velocity": 0.5118110236220472,
                    "duration": 0.17241375000003245
                },
                {
                    "name": "G4",
                    "midi": 67,
                    "time": 524.4826275000021,
                    "velocity": 0.5118110236220472,
                    "duration": 0.17241375000003245
                },
                {
                    "name": "F#4",
                    "midi": 66,
                    "time": 524.6550412500021,
                    "velocity": 0.5196850393700787,
                    "duration": 0.17241375000003245
                },
                {
                    "name": "E4",
                    "midi": 64,
                    "time": 524.8274550000021,
                    "velocity": 0.5196850393700787,
                    "duration": 0.17241375000003245
                },
                {
                    "name": "D4",
                    "midi": 62,
                    "time": 524.9998687500022,
                    "velocity": 0.5275590551181102,
                    "duration": 0.17241375000003245
                },
                {
                    "name": "C4",
                    "midi": 60,
                    "time": 525.1722825000022,
                    "velocity": 0.5354330708661418,
                    "duration": 0.17241375000003245
                },
                {
                    "name": "B3",
                    "midi": 59,
                    "time": 525.3446962500022,
                    "velocity": 0.5354330708661418,
                    "duration": 0.17241375000003245
                },
                {
                    "name": "A3",
                    "midi": 57,
                    "time": 525.5171100000023,
                    "velocity": 0.5433070866141733,
                    "duration": 0.17241375000003245
                },
                {
                    "name": "G3",
                    "midi": 55,
                    "time": 525.6895237500023,
                    "velocity": 0.5433070866141733,
                    "duration": 0.17241375000003245
                },
                {
                    "name": "F#3",
                    "midi": 54,
                    "time": 525.8619375000023,
                    "velocity": 0.5511811023622047,
                    "duration": 0.17241375000003245
                },
                {
                    "name": "E3",
                    "midi": 52,
                    "time": 526.0343512500024,
                    "velocity": 0.5433070866141733,
                    "duration": 0.17241375000003245
                },
                {
                    "name": "D3",
                    "midi": 50,
                    "time": 526.2067650000024,
                    "velocity": 0.5511811023622047,
                    "duration": 0.17241375000003245
                },
                {
                    "name": "C3",
                    "midi": 48,
                    "time": 526.3791787500024,
                    "velocity": 0.5669291338582677,
                    "duration": 0.17241375000003245
                },
                {
                    "name": "B2",
                    "midi": 47,
                    "time": 526.5515925000025,
                    "velocity": 0.5748031496062992,
                    "duration": 0.17241375000003245
                },
                {
                    "name": "A2",
                    "midi": 45,
                    "time": 526.7240062500025,
                    "velocity": 0.5826771653543307,
                    "duration": 0.17241375000003245
                },
                {
                    "name": "G2",
                    "midi": 43,
                    "time": 526.8964200000025,
                    "velocity": 0.6299212598425197,
                    "duration": 1.551723749999951
                },
                {
                    "name": "G#2",
                    "midi": 44,
                    "time": 528.4481437500025,
                    "velocity": 0.48031496062992124,
                    "duration": 0.17241375000003245
                },
                {
                    "name": "A2",
                    "midi": 45,
                    "time": 528.6205575000025,
                    "velocity": 0.48031496062992124,
                    "duration": 0.17241375000003245
                },
                {
                    "name": "A#2",
                    "midi": 46,
                    "time": 528.7929712500026,
                    "velocity": 0.4881889763779528,
                    "duration": 0.17241375000003245
                },
                {
                    "name": "B2",
                    "midi": 47,
                    "time": 528.9653850000026,
                    "velocity": 0.49606299212598426,
                    "duration": 0.17241375000003245
                },
                {
                    "name": "C3",
                    "midi": 48,
                    "time": 529.1377987500026,
                    "velocity": 0.49606299212598426,
                    "duration": 0.17241375000003245
                },
                {
                    "name": "C#3",
                    "midi": 49,
                    "time": 529.3102125000026,
                    "velocity": 0.49606299212598426,
                    "duration": 0.17241375000003245
                },
                {
                    "name": "D3",
                    "midi": 50,
                    "time": 529.4826262500027,
                    "velocity": 0.5039370078740157,
                    "duration": 0.17241375000003245
                },
                {
                    "name": "D#3",
                    "midi": 51,
                    "time": 529.6550400000027,
                    "velocity": 0.5039370078740157,
                    "duration": 0.17241375000003245
                },
                {
                    "name": "E3",
                    "midi": 52,
                    "time": 529.8274537500027,
                    "velocity": 0.5118110236220472,
                    "duration": 0.17241375000003245
                },
                {
                    "name": "F3",
                    "midi": 53,
                    "time": 529.9998675000028,
                    "velocity": 0.5196850393700787,
                    "duration": 0.17241375000003245
                },
                {
                    "name": "F#3",
                    "midi": 54,
                    "time": 530.1722812500028,
                    "velocity": 0.5196850393700787,
                    "duration": 0.17241375000003245
                },
                {
                    "name": "G3",
                    "midi": 55,
                    "time": 530.3446950000028,
                    "velocity": 0.5275590551181102,
                    "duration": 0.17241375000003245
                },
                {
                    "name": "G#3",
                    "midi": 56,
                    "time": 530.5171087500029,
                    "velocity": 0.5354330708661418,
                    "duration": 0.17241375000003245
                },
                {
                    "name": "A3",
                    "midi": 57,
                    "time": 530.6895225000029,
                    "velocity": 0.5354330708661418,
                    "duration": 0.17241375000003245
                },
                {
                    "name": "A#3",
                    "midi": 58,
                    "time": 530.8619362500029,
                    "velocity": 0.5433070866141733,
                    "duration": 0.17241375000003245
                },
                {
                    "name": "B3",
                    "midi": 59,
                    "time": 531.034350000003,
                    "velocity": 0.5433070866141733,
                    "duration": 0.17241375000003245
                },
                {
                    "name": "C4",
                    "midi": 60,
                    "time": 531.206763750003,
                    "velocity": 0.5511811023622047,
                    "duration": 0.17241375000003245
                },
                {
                    "name": "C#4",
                    "midi": 61,
                    "time": 531.379177500003,
                    "velocity": 0.5590551181102362,
                    "duration": 0.17241375000003245
                },
                {
                    "name": "D4",
                    "midi": 62,
                    "time": 531.5515912500031,
                    "velocity": 0.5669291338582677,
                    "duration": 0.17241375000003245
                },
                {
                    "name": "D#4",
                    "midi": 63,
                    "time": 531.7240050000031,
                    "velocity": 0.5669291338582677,
                    "duration": 0.17241375000003245
                },
                {
                    "name": "E4",
                    "midi": 64,
                    "time": 531.8964187500031,
                    "velocity": 0.5669291338582677,
                    "duration": 0.17241375000003245
                },
                {
                    "name": "F4",
                    "midi": 65,
                    "time": 532.0688325000032,
                    "velocity": 0.5669291338582677,
                    "duration": 0.17241375000003245
                },
                {
                    "name": "F#4",
                    "midi": 66,
                    "time": 532.2412462500032,
                    "velocity": 0.5748031496062992,
                    "duration": 0.17241375000003245
                },
                {
                    "name": "G4",
                    "midi": 67,
                    "time": 532.4136600000032,
                    "velocity": 0.5984251968503937,
                    "duration": 0.17241375000003245
                },
                {
                    "name": "F#4",
                    "midi": 66,
                    "time": 532.5860737500033,
                    "velocity": 0.5905511811023622,
                    "duration": 0.17241375000003245
                },
                {
                    "name": "F4",
                    "midi": 65,
                    "time": 532.7584875000033,
                    "velocity": 0.5826771653543307,
                    "duration": 0.17241375000003245
                },
                {
                    "name": "E4",
                    "midi": 64,
                    "time": 532.9309012500033,
                    "velocity": 0.5669291338582677,
                    "duration": 0.17241375000003245
                },
                {
                    "name": "D#4",
                    "midi": 63,
                    "time": 533.1033150000034,
                    "velocity": 0.5669291338582677,
                    "duration": 0.17241375000003245
                },
                {
                    "name": "D4",
                    "midi": 62,
                    "time": 533.2757287500034,
                    "velocity": 0.5590551181102362,
                    "duration": 0.17241375000003245
                },
                {
                    "name": "C#4",
                    "midi": 61,
                    "time": 533.4481425000034,
                    "velocity": 0.5511811023622047,
                    "duration": 0.17241375000003245
                },
                {
                    "name": "C4",
                    "midi": 60,
                    "time": 533.6205562500035,
                    "velocity": 0.5354330708661418,
                    "duration": 0.17241375000003245
                },
                {
                    "name": "B3",
                    "midi": 59,
                    "time": 533.7929700000035,
                    "velocity": 0.5196850393700787,
                    "duration": 0.17241375000003245
                },
                {
                    "name": "A#3",
                    "midi": 58,
                    "time": 533.9653837500035,
                    "velocity": 0.5275590551181102,
                    "duration": 0.17241375000003245
                },
                {
                    "name": "A3",
                    "midi": 57,
                    "time": 534.1377975000036,
                    "velocity": 0.5354330708661418,
                    "duration": 0.17241375000003245
                },
                {
                    "name": "G#3",
                    "midi": 56,
                    "time": 534.3102112500036,
                    "velocity": 0.5433070866141733,
                    "duration": 0.17241375000003245
                },
                {
                    "name": "G3",
                    "midi": 55,
                    "time": 534.4826250000036,
                    "velocity": 0.5511811023622047,
                    "duration": 0.17241375000003245
                },
                {
                    "name": "F#3",
                    "midi": 54,
                    "time": 534.6550387500037,
                    "velocity": 0.5590551181102362,
                    "duration": 0.17241375000003245
                },
                {
                    "name": "F3",
                    "midi": 53,
                    "time": 534.8274525000037,
                    "velocity": 0.5669291338582677,
                    "duration": 0.17241375000003245
                },
                {
                    "name": "E3",
                    "midi": 52,
                    "time": 534.9998662500037,
                    "velocity": 0.5748031496062992,
                    "duration": 0.17241375000003245
                },
                {
                    "name": "D#3",
                    "midi": 51,
                    "time": 535.1722800000038,
                    "velocity": 0.5826771653543307,
                    "duration": 0.17241375000003245
                },
                {
                    "name": "D3",
                    "midi": 50,
                    "time": 535.3446937500038,
                    "velocity": 0.5905511811023622,
                    "duration": 0.17241375000003245
                },
                {
                    "name": "C#3",
                    "midi": 49,
                    "time": 535.5171075000038,
                    "velocity": 0.6062992125984252,
                    "duration": 0.17241375000003245
                },
                {
                    "name": "C3",
                    "midi": 48,
                    "time": 535.6895212500038,
                    "velocity": 0.6220472440944882,
                    "duration": 0.17241375000003245
                },
                {
                    "name": "B2",
                    "midi": 47,
                    "time": 535.8619350000039,
                    "velocity": 0.6299212598425197,
                    "duration": 0.17241375000003245
                },
                {
                    "name": "A#2",
                    "midi": 46,
                    "time": 536.0343487500039,
                    "velocity": 0.6377952755905512,
                    "duration": 0.17241375000003245
                },
                {
                    "name": "A2",
                    "midi": 45,
                    "time": 536.206762500004,
                    "velocity": 0.6535433070866141,
                    "duration": 0.17241375000003245
                },
                {
                    "name": "G#2",
                    "midi": 44,
                    "time": 536.379176250004,
                    "velocity": 0.6692913385826772,
                    "duration": 0.17241375000003245
                },
                {
                    "name": "G2",
                    "midi": 43,
                    "time": 536.551590000004,
                    "velocity": 0.7637795275590551,
                    "duration": 0.3448274999999512
                },
                {
                    "name": "G7",
                    "midi": 103,
                    "time": 537.9309000000039,
                    "velocity": 0.7952755905511811,
                    "duration": 0.3448274999999512
                },
                {
                    "name": "D7",
                    "midi": 98,
                    "time": 537.9309000000039,
                    "velocity": 0.6771653543307087,
                    "duration": 0.3448274999999512
                },
                {
                    "name": "B6",
                    "midi": 95,
                    "time": 537.9309000000039,
                    "velocity": 0.5669291338582677,
                    "duration": 0.3448274999999512
                },
                {
                    "name": "G6",
                    "midi": 91,
                    "time": 537.9309000000039,
                    "velocity": 0.5669291338582677,
                    "duration": 0.3448274999999512
                }
            ],
            "controlChanges": {
                "7": [
                    {
                        "number": 7,
                        "time": 0,
                        "value": 0.7874015748031497
                    }
                ],
                "10": [
                    {
                        "number": 10,
                        "time": 0,
                        "value": 0.5039370078740157
                    }
                ],
                "91": [
                    {
                        "number": 91,
                        "time": 0,
                        "value": 1
                    },
                    {
                        "number": 91,
                        "time": 496.55160000000035,
                        "value": 1
                    }
                ]
            },
            "id": 1,
            "name": "Piano right",
            "instrumentNumber": 0,
            "instrument": "acoustic grand piano",
            "instrumentFamily": "piano",
            "channelNumber": 0,
            "isPercussion": false
        },
        {
            "startTime": 121.37928000000001,
            "duration": 496.55160000001865,
            "length": 1472,
            "notes": [
                {
                    "name": "C#4",
                    "midi": 61,
                    "time": 121.37928000000001,
                    "velocity": 0.4645669291338583,
                    "duration": 0.17241375000000403
                },
                {
                    "name": "E4",
                    "midi": 64,
                    "time": 121.37928000000001,
                    "velocity": 0.4645669291338583,
                    "duration": 0.17241375000000403
                },
                {
                    "name": "G3",
                    "midi": 55,
                    "time": 121.55169375000001,
                    "velocity": 0.3937007874015748,
                    "duration": 0.17241375000000403
                },
                {
                    "name": "C#4",
                    "midi": 61,
                    "time": 121.72410750000002,
                    "velocity": 0.4645669291338583,
                    "duration": 0.17241375000000403
                },
                {
                    "name": "E4",
                    "midi": 64,
                    "time": 121.72410750000002,
                    "velocity": 0.4645669291338583,
                    "duration": 0.17241375000000403
                },
                {
                    "name": "G3",
                    "midi": 55,
                    "time": 121.89652125000002,
                    "velocity": 0.3937007874015748,
                    "duration": 0.17241375000000403
                },
                {
                    "name": "C#4",
                    "midi": 61,
                    "time": 122.06893500000002,
                    "velocity": 0.47244094488188976,
                    "duration": 0.17241375000000403
                },
                {
                    "name": "E4",
                    "midi": 64,
                    "time": 122.06893500000002,
                    "velocity": 0.47244094488188976,
                    "duration": 0.17241375000000403
                },
                {
                    "name": "G3",
                    "midi": 55,
                    "time": 122.24134875000003,
                    "velocity": 0.4015748031496063,
                    "duration": 0.17241375000000403
                },
                {
                    "name": "C#4",
                    "midi": 61,
                    "time": 122.41376250000003,
                    "velocity": 0.47244094488188976,
                    "duration": 0.17241375000000403
                },
                {
                    "name": "E4",
                    "midi": 64,
                    "time": 122.41376250000003,
                    "velocity": 0.47244094488188976,
                    "duration": 0.17241375000000403
                },
                {
                    "name": "G3",
                    "midi": 55,
                    "time": 122.58617625000004,
                    "velocity": 0.4015748031496063,
                    "duration": 0.17241375000000403
                },
                {
                    "name": "E4",
                    "midi": 64,
                    "time": 122.75859000000004,
                    "velocity": 0.47244094488188976,
                    "duration": 0.17241375000000403
                },
                {
                    "name": "G4",
                    "midi": 67,
                    "time": 122.75859000000004,
                    "velocity": 0.47244094488188976,
                    "duration": 0.17241375000000403
                },
                {
                    "name": "A#3",
                    "midi": 58,
                    "time": 122.93100375000004,
                    "velocity": 0.4094488188976378,
                    "duration": 0.17241375000000403
                },
                {
                    "name": "E4",
                    "midi": 64,
                    "time": 123.10341750000005,
                    "velocity": 0.48031496062992124,
                    "duration": 0.17241375000000403
                },
                {
                    "name": "G4",
                    "midi": 67,
                    "time": 123.10341750000005,
                    "velocity": 0.48031496062992124,
                    "duration": 0.17241375000000403
                },
                {
                    "name": "A#3",
                    "midi": 58,
                    "time": 123.27583125000005,
                    "velocity": 0.4015748031496063,
                    "duration": 0.17241375000000403
                },
                {
                    "name": "E4",
                    "midi": 64,
                    "time": 123.44824500000006,
                    "velocity": 0.4881889763779528,
                    "duration": 0.17241375000000403
                },
                {
                    "name": "G4",
                    "midi": 67,
                    "time": 123.44824500000006,
                    "velocity": 0.4881889763779528,
                    "duration": 0.17241375000000403
                },
                {
                    "name": "A#3",
                    "midi": 58,
                    "time": 123.62065875000006,
                    "velocity": 0.4409448818897638,
                    "duration": 0.17241375000000403
                },
                {
                    "name": "E4",
                    "midi": 64,
                    "time": 123.79307250000006,
                    "velocity": 0.5039370078740157,
                    "duration": 0.17241375000000403
                },
                {
                    "name": "G4",
                    "midi": 67,
                    "time": 123.79307250000006,
                    "velocity": 0.5039370078740157,
                    "duration": 0.17241375000000403
                },
                {
                    "name": "A#3",
                    "midi": 58,
                    "time": 123.96548625000007,
                    "velocity": 0.4015748031496063,
                    "duration": 0.17241375000000403
                },
                {
                    "name": "F4",
                    "midi": 65,
                    "time": 124.13790000000007,
                    "velocity": 0.5039370078740157,
                    "duration": 0.17241375000000403
                },
                {
                    "name": "A#3",
                    "midi": 58,
                    "time": 124.31031375000008,
                    "velocity": 0.4094488188976378,
                    "duration": 0.17241375000000403
                },
                {
                    "name": "F4",
                    "midi": 65,
                    "time": 124.48272750000008,
                    "velocity": 0.49606299212598426,
                    "duration": 0.17241375000000403
                },
                {
                    "name": "A#3",
                    "midi": 58,
                    "time": 124.65514125000009,
                    "velocity": 0.4094488188976378,
                    "duration": 0.17241375000000403
                },
                {
                    "name": "F4",
                    "midi": 65,
                    "time": 124.82755500000009,
                    "velocity": 0.49606299212598426,
                    "duration": 0.17241375000000403
                },
                {
                    "name": "A#3",
                    "midi": 58,
                    "time": 124.9999687500001,
                    "velocity": 0.41732283464566927,
                    "duration": 0.17241375000000403
                },
                {
                    "name": "F4",
                    "midi": 65,
                    "time": 125.1723825000001,
                    "velocity": 0.49606299212598426,
                    "duration": 0.17241375000000403
                },
                {
                    "name": "A#3",
                    "midi": 58,
                    "time": 125.3447962500001,
                    "velocity": 0.4094488188976378,
                    "duration": 0.17241375000000403
                },
                {
                    "name": "D4",
                    "midi": 62,
                    "time": 125.5172100000001,
                    "velocity": 0.49606299212598426,
                    "duration": 0.17241375000000403
                },
                {
                    "name": "F3",
                    "midi": 53,
                    "time": 125.68962375000011,
                    "velocity": 0.4094488188976378,
                    "duration": 0.17241375000000403
                },
                {
                    "name": "D4",
                    "midi": 62,
                    "time": 125.86203750000011,
                    "velocity": 0.4881889763779528,
                    "duration": 0.17241375000000403
                },
                {
                    "name": "F3",
                    "midi": 53,
                    "time": 126.03445125000012,
                    "velocity": 0.4015748031496063,
                    "duration": 0.17241375000000403
                },
                {
                    "name": "D4",
                    "midi": 62,
                    "time": 126.20686500000012,
                    "velocity": 0.48031496062992124,
                    "duration": 0.17241375000000403
                },
                {
                    "name": "F3",
                    "midi": 53,
                    "time": 126.37927875000013,
                    "velocity": 0.3937007874015748,
                    "duration": 0.17241375000000403
                },
                {
                    "name": "D4",
                    "midi": 62,
                    "time": 126.55169250000013,
                    "velocity": 0.47244094488188976,
                    "duration": 0.17241375000000403
                },
                {
                    "name": "F3",
                    "midi": 53,
                    "time": 126.72410625000013,
                    "velocity": 0.3937007874015748,
                    "duration": 0.17241375000000403
                },
                {
                    "name": "A3",
                    "midi": 57,
                    "time": 158.62065000000013,
                    "velocity": 0.3937007874015748,
                    "duration": 0.2298849999999959
                },
                {
                    "name": "F#3",
                    "midi": 54,
                    "time": 158.85053500000012,
                    "velocity": 0.3228346456692913,
                    "duration": 0.2298849999999959
                },
                {
                    "name": "A3",
                    "midi": 57,
                    "time": 159.08042000000012,
                    "velocity": 0.3937007874015748,
                    "duration": 0.2298849999999959
                },
                {
                    "name": "F#3",
                    "midi": 54,
                    "time": 159.3103050000001,
                    "velocity": 0.33858267716535434,
                    "duration": 0.2298849999999959
                },
                {
                    "name": "A3",
                    "midi": 57,
                    "time": 159.5401900000001,
                    "velocity": 0.3937007874015748,
                    "duration": 0.2298849999999959
                },
                {
                    "name": "F#3",
                    "midi": 54,
                    "time": 159.7700750000001,
                    "velocity": 0.33858267716535434,
                    "duration": 0.2298849999999959
                },
                {
                    "name": "C4",
                    "midi": 60,
                    "time": 161.3792700000001,
                    "velocity": 0.41732283464566927,
                    "duration": 0.2298849999999959
                },
                {
                    "name": "A3",
                    "midi": 57,
                    "time": 161.6091550000001,
                    "velocity": 0.33858267716535434,
                    "duration": 0.2298849999999959
                },
                {
                    "name": "C4",
                    "midi": 60,
                    "time": 161.8390400000001,
                    "velocity": 0.41732283464566927,
                    "duration": 0.2298849999999959
                },
                {
                    "name": "A3",
                    "midi": 57,
                    "time": 162.0689250000001,
                    "velocity": 0.3543307086614173,
                    "duration": 0.2298849999999959
                },
                {
                    "name": "C4",
                    "midi": 60,
                    "time": 162.2988100000001,
                    "velocity": 0.41732283464566927,
                    "duration": 0.2298849999999959
                },
                {
                    "name": "A3",
                    "midi": 57,
                    "time": 162.52869500000008,
                    "velocity": 0.3543307086614173,
                    "duration": 0.2298849999999959
                },
                {
                    "name": "D#4",
                    "midi": 63,
                    "time": 164.13789000000008,
                    "velocity": 0.4330708661417323,
                    "duration": 0.2298849999999959
                },
                {
                    "name": "C4",
                    "midi": 60,
                    "time": 164.36777500000008,
                    "velocity": 0.36220472440944884,
                    "duration": 0.2298849999999959
                },
                {
                    "name": "D#4",
                    "midi": 63,
                    "time": 164.59766000000008,
                    "velocity": 0.4330708661417323,
                    "duration": 0.2298849999999959
                },
                {
                    "name": "C4",
                    "midi": 60,
                    "time": 164.82754500000007,
                    "velocity": 0.3779527559055118,
                    "duration": 0.2298849999999959
                },
                {
                    "name": "D#4",
                    "midi": 63,
                    "time": 165.05743000000007,
                    "velocity": 0.4330708661417323,
                    "duration": 0.2298849999999959
                },
                {
                    "name": "C4",
                    "midi": 60,
                    "time": 165.28731500000006,
                    "velocity": 0.3779527559055118,
                    "duration": 0.2298849999999959
                },
                {
                    "name": "F#4",
                    "midi": 66,
                    "time": 166.89651000000006,
                    "velocity": 0.4409448818897638,
                    "duration": 0.2298849999999959
                },
                {
                    "name": "D#4",
                    "midi": 63,
                    "time": 167.12639500000006,
                    "velocity": 0.36220472440944884,
                    "duration": 0.2298849999999959
                },
                {
                    "name": "F#4",
                    "midi": 66,
                    "time": 167.35628000000005,
                    "velocity": 0.4409448818897638,
                    "duration": 0.2298849999999959
                },
                {
                    "name": "D#4",
                    "midi": 63,
                    "time": 167.58616500000005,
                    "velocity": 0.3858267716535433,
                    "duration": 0.2298849999999959
                },
                {
                    "name": "F#4",
                    "midi": 66,
                    "time": 167.81605000000005,
                    "velocity": 0.4409448818897638,
                    "duration": 0.2298849999999959
                },
                {
                    "name": "D#4",
                    "midi": 63,
                    "time": 168.04593500000004,
                    "velocity": 0.3858267716535433,
                    "duration": 0.2298849999999959
                },
                {
                    "name": "G4",
                    "midi": 67,
                    "time": 169.65513000000004,
                    "velocity": 0.36220472440944884,
                    "duration": 0.2298849999999959
                },
                {
                    "name": "A#4",
                    "midi": 70,
                    "time": 169.65513000000004,
                    "velocity": 0.4645669291338583,
                    "duration": 0.2298849999999959
                },
                {
                    "name": "E4",
                    "midi": 64,
                    "time": 169.88501500000004,
                    "velocity": 0.3700787401574803,
                    "duration": 0.2298849999999959
                },
                {
                    "name": "G4",
                    "midi": 67,
                    "time": 170.11490000000003,
                    "velocity": 0.36220472440944884,
                    "duration": 0.2298849999999959
                },
                {
                    "name": "A#4",
                    "midi": 70,
                    "time": 170.11490000000003,
                    "velocity": 0.4645669291338583,
                    "duration": 0.2298849999999959
                },
                {
                    "name": "E4",
                    "midi": 64,
                    "time": 170.34478500000003,
                    "velocity": 0.3858267716535433,
                    "duration": 0.2298849999999959
                },
                {
                    "name": "G4",
                    "midi": 67,
                    "time": 170.57467000000003,
                    "velocity": 0.36220472440944884,
                    "duration": 0.2298849999999959
                },
                {
                    "name": "A#4",
                    "midi": 70,
                    "time": 170.57467000000003,
                    "velocity": 0.4645669291338583,
                    "duration": 0.2298849999999959
                },
                {
                    "name": "E4",
                    "midi": 64,
                    "time": 170.80455500000002,
                    "velocity": 0.3937007874015748,
                    "duration": 0.2298849999999959
                },
                {
                    "name": "C#5",
                    "midi": 73,
                    "time": 172.41375000000002,
                    "velocity": 0.3779527559055118,
                    "duration": 0.2298849999999959
                },
                {
                    "name": "E5",
                    "midi": 76,
                    "time": 172.41375000000002,
                    "velocity": 0.48031496062992124,
                    "duration": 0.2298849999999959
                },
                {
                    "name": "G4",
                    "midi": 67,
                    "time": 172.64363500000002,
                    "velocity": 0.3858267716535433,
                    "duration": 0.2298849999999959
                },
                {
                    "name": "C#5",
                    "midi": 73,
                    "time": 172.87352,
                    "velocity": 0.3779527559055118,
                    "duration": 0.2298849999999959
                },
                {
                    "name": "E5",
                    "midi": 76,
                    "time": 172.87352,
                    "velocity": 0.48031496062992124,
                    "duration": 0.2298849999999959
                },
                {
                    "name": "G4",
                    "midi": 67,
                    "time": 173.103405,
                    "velocity": 0.4094488188976378,
                    "duration": 0.2298849999999959
                },
                {
                    "name": "C#5",
                    "midi": 73,
                    "time": 173.33329,
                    "velocity": 0.3779527559055118,
                    "duration": 0.2298849999999959
                },
                {
                    "name": "E5",
                    "midi": 76,
                    "time": 173.33329,
                    "velocity": 0.48031496062992124,
                    "duration": 0.2298849999999959
                },
                {
                    "name": "G4",
                    "midi": 67,
                    "time": 173.563175,
                    "velocity": 0.4094488188976378,
                    "duration": 0.2298849999999959
                },
                {
                    "name": "F4",
                    "midi": 65,
                    "time": 175.17237,
                    "velocity": 0.3543307086614173,
                    "duration": 0.2298849999999959
                },
                {
                    "name": "A#4",
                    "midi": 70,
                    "time": 175.17237,
                    "velocity": 0.44881889763779526,
                    "duration": 0.2298849999999959
                },
                {
                    "name": "D4",
                    "midi": 62,
                    "time": 175.402255,
                    "velocity": 0.3700787401574803,
                    "duration": 0.2298849999999959
                },
                {
                    "name": "F4",
                    "midi": 65,
                    "time": 175.63214,
                    "velocity": 0.3543307086614173,
                    "duration": 0.2298849999999959
                },
                {
                    "name": "A#4",
                    "midi": 70,
                    "time": 175.63214,
                    "velocity": 0.44881889763779526,
                    "duration": 0.2298849999999959
                },
                {
                    "name": "D4",
                    "midi": 62,
                    "time": 175.862025,
                    "velocity": 0.3858267716535433,
                    "duration": 0.2298849999999959
                },
                {
                    "name": "F4",
                    "midi": 65,
                    "time": 176.09190999999998,
                    "velocity": 0.3543307086614173,
                    "duration": 0.2298849999999959
                },
                {
                    "name": "A#4",
                    "midi": 70,
                    "time": 176.09190999999998,
                    "velocity": 0.4409448818897638,
                    "duration": 0.2298849999999959
                },
                {
                    "name": "D4",
                    "midi": 62,
                    "time": 176.32179499999998,
                    "velocity": 0.3858267716535433,
                    "duration": 0.2298849999999959
                },
                {
                    "name": "A#3",
                    "midi": 58,
                    "time": 177.93098999999998,
                    "velocity": 0.3464566929133858,
                    "duration": 0.2298849999999959
                },
                {
                    "name": "D4",
                    "midi": 62,
                    "time": 177.93098999999998,
                    "velocity": 0.4251968503937008,
                    "duration": 0.2298849999999959
                },
                {
                    "name": "F3",
                    "midi": 53,
                    "time": 178.16087499999998,
                    "velocity": 0.3543307086614173,
                    "duration": 0.2298849999999959
                },
                {
                    "name": "A#3",
                    "midi": 58,
                    "time": 178.39075999999997,
                    "velocity": 0.33858267716535434,
                    "duration": 0.2298849999999959
                },
                {
                    "name": "D4",
                    "midi": 62,
                    "time": 178.39075999999997,
                    "velocity": 0.4251968503937008,
                    "duration": 0.2298849999999959
                },
                {
                    "name": "F3",
                    "midi": 53,
                    "time": 178.62064499999997,
                    "velocity": 0.3700787401574803,
                    "duration": 0.2298849999999959
                },
                {
                    "name": "A#3",
                    "midi": 58,
                    "time": 178.85052999999996,
                    "velocity": 0.33858267716535434,
                    "duration": 0.2298849999999959
                },
                {
                    "name": "D4",
                    "midi": 62,
                    "time": 178.85052999999996,
                    "velocity": 0.4251968503937008,
                    "duration": 0.2298849999999959
                },
                {
                    "name": "F3",
                    "midi": 53,
                    "time": 179.08041499999996,
                    "velocity": 0.36220472440944884,
                    "duration": 0.11494250000001216
                },
                {
                    "name": "A3",
                    "midi": 57,
                    "time": 179.19535749999997,
                    "velocity": 0.33858267716535434,
                    "duration": 0.34482749999997964
                },
                {
                    "name": "C4",
                    "midi": 60,
                    "time": 179.25282874999996,
                    "velocity": 0.4015748031496063,
                    "duration": 0.28735624999998777
                },
                {
                    "name": "D#3",
                    "midi": 51,
                    "time": 179.54018499999995,
                    "velocity": 0.3543307086614173,
                    "duration": 0.2298849999999959
                },
                {
                    "name": "A3",
                    "midi": 57,
                    "time": 179.77006999999995,
                    "velocity": 0.4094488188976378,
                    "duration": 0.2298849999999959
                },
                {
                    "name": "C4",
                    "midi": 60,
                    "time": 179.77006999999995,
                    "velocity": 0.4094488188976378,
                    "duration": 0.2298849999999959
                },
                {
                    "name": "D#3",
                    "midi": 51,
                    "time": 179.99995499999994,
                    "velocity": 0.36220472440944884,
                    "duration": 0.2298849999999959
                },
                {
                    "name": "A3",
                    "midi": 57,
                    "time": 180.22983999999994,
                    "velocity": 0.3937007874015748,
                    "duration": 0.2298849999999959
                },
                {
                    "name": "C4",
                    "midi": 60,
                    "time": 180.22983999999994,
                    "velocity": 0.3937007874015748,
                    "duration": 0.2298849999999959
                },
                {
                    "name": "D#3",
                    "midi": 51,
                    "time": 180.45972499999993,
                    "velocity": 0.3543307086614173,
                    "duration": 0.2298849999999959
                },
                {
                    "name": "D3",
                    "midi": 50,
                    "time": 198.62063999999992,
                    "velocity": 0.41732283464566927,
                    "duration": 0.17241375000000403
                },
                {
                    "name": "B3",
                    "midi": 59,
                    "time": 198.62063999999992,
                    "velocity": 0.41732283464566927,
                    "duration": 0.17241375000000403
                },
                {
                    "name": "D4",
                    "midi": 62,
                    "time": 198.79305374999993,
                    "velocity": 0.3543307086614173,
                    "duration": 0.17241375000000403
                },
                {
                    "name": "D3",
                    "midi": 50,
                    "time": 198.96546749999993,
                    "velocity": 0.41732283464566927,
                    "duration": 0.17241375000000403
                },
                {
                    "name": "B3",
                    "midi": 59,
                    "time": 198.96546749999993,
                    "velocity": 0.41732283464566927,
                    "duration": 0.17241375000000403
                },
                {
                    "name": "D4",
                    "midi": 62,
                    "time": 199.13788124999994,
                    "velocity": 0.36220472440944884,
                    "duration": 0.17241375000000403
                },
                {
                    "name": "D3",
                    "midi": 50,
                    "time": 199.31029499999994,
                    "velocity": 0.4094488188976378,
                    "duration": 0.17241375000000403
                },
                {
                    "name": "B3",
                    "midi": 59,
                    "time": 199.31029499999994,
                    "velocity": 0.4094488188976378,
                    "duration": 0.17241375000000403
                },
                {
                    "name": "D4",
                    "midi": 62,
                    "time": 199.48270874999994,
                    "velocity": 0.3543307086614173,
                    "duration": 0.17241375000000403
                },
                {
                    "name": "D3",
                    "midi": 50,
                    "time": 199.65512249999995,
                    "velocity": 0.4015748031496063,
                    "duration": 0.17241375000000403
                },
                {
                    "name": "B3",
                    "midi": 59,
                    "time": 199.65512249999995,
                    "velocity": 0.4015748031496063,
                    "duration": 0.17241375000000403
                },
                {
                    "name": "D4",
                    "midi": 62,
                    "time": 199.82753624999995,
                    "velocity": 0.36220472440944884,
                    "duration": 0.17241375000000403
                },
                {
                    "name": "D3",
                    "midi": 50,
                    "time": 199.99994999999996,
                    "velocity": 0.4015748031496063,
                    "duration": 0.17241375000000403
                },
                {
                    "name": "B3",
                    "midi": 59,
                    "time": 199.99994999999996,
                    "velocity": 0.4015748031496063,
                    "duration": 0.17241375000000403
                },
                {
                    "name": "D4",
                    "midi": 62,
                    "time": 200.17236374999996,
                    "velocity": 0.3464566929133858,
                    "duration": 0.17241375000000403
                },
                {
                    "name": "D3",
                    "midi": 50,
                    "time": 200.34477749999996,
                    "velocity": 0.3937007874015748,
                    "duration": 0.17241375000000403
                },
                {
                    "name": "B3",
                    "midi": 59,
                    "time": 200.34477749999996,
                    "velocity": 0.3937007874015748,
                    "duration": 0.17241375000000403
                },
                {
                    "name": "D4",
                    "midi": 62,
                    "time": 200.51719124999997,
                    "velocity": 0.3543307086614173,
                    "duration": 0.17241375000000403
                },
                {
                    "name": "D3",
                    "midi": 50,
                    "time": 200.68960499999997,
                    "velocity": 0.3937007874015748,
                    "duration": 0.17241375000000403
                },
                {
                    "name": "B3",
                    "midi": 59,
                    "time": 200.68960499999997,
                    "velocity": 0.3937007874015748,
                    "duration": 0.17241375000000403
                },
                {
                    "name": "D4",
                    "midi": 62,
                    "time": 200.86201874999998,
                    "velocity": 0.3464566929133858,
                    "duration": 0.17241375000000403
                },
                {
                    "name": "D3",
                    "midi": 50,
                    "time": 201.03443249999998,
                    "velocity": 0.3858267716535433,
                    "duration": 0.17241375000000403
                },
                {
                    "name": "B3",
                    "midi": 59,
                    "time": 201.03443249999998,
                    "velocity": 0.3858267716535433,
                    "duration": 0.17241375000000403
                },
                {
                    "name": "D4",
                    "midi": 62,
                    "time": 201.20684624999998,
                    "velocity": 0.3543307086614173,
                    "duration": 0.17241375000000403
                },
                {
                    "name": "D3",
                    "midi": 50,
                    "time": 201.37926,
                    "velocity": 0.3858267716535433,
                    "duration": 0.17241375000000403
                },
                {
                    "name": "B3",
                    "midi": 59,
                    "time": 201.37926,
                    "velocity": 0.3858267716535433,
                    "duration": 0.17241375000000403
                },
                {
                    "name": "D4",
                    "midi": 62,
                    "time": 201.55167375,
                    "velocity": 0.33070866141732286,
                    "duration": 0.17241375000000403
                },
                {
                    "name": "D3",
                    "midi": 50,
                    "time": 201.7240875,
                    "velocity": 0.3779527559055118,
                    "duration": 0.17241375000000403
                },
                {
                    "name": "B3",
                    "midi": 59,
                    "time": 201.7240875,
                    "velocity": 0.3779527559055118,
                    "duration": 0.17241375000000403
                },
                {
                    "name": "D4",
                    "midi": 62,
                    "time": 201.89650125,
                    "velocity": 0.33858267716535434,
                    "duration": 0.17241375000000403
                },
                {
                    "name": "D3",
                    "midi": 50,
                    "time": 202.068915,
                    "velocity": 0.3779527559055118,
                    "duration": 0.17241375000000403
                },
                {
                    "name": "B3",
                    "midi": 59,
                    "time": 202.068915,
                    "velocity": 0.3779527559055118,
                    "duration": 0.17241375000000403
                },
                {
                    "name": "D4",
                    "midi": 62,
                    "time": 202.24132875,
                    "velocity": 0.33070866141732286,
                    "duration": 0.17241375000000403
                },
                {
                    "name": "D3",
                    "midi": 50,
                    "time": 202.4137425,
                    "velocity": 0.3700787401574803,
                    "duration": 0.17241375000000403
                },
                {
                    "name": "B3",
                    "midi": 59,
                    "time": 202.4137425,
                    "velocity": 0.3700787401574803,
                    "duration": 0.17241375000000403
                },
                {
                    "name": "D4",
                    "midi": 62,
                    "time": 202.58615625000002,
                    "velocity": 0.33858267716535434,
                    "duration": 0.17241375000000403
                },
                {
                    "name": "D#4",
                    "midi": 63,
                    "time": 211.03443000000001,
                    "velocity": 0.49606299212598426,
                    "duration": 0.2298849999999959
                },
                {
                    "name": "G3",
                    "midi": 55,
                    "time": 211.03443000000001,
                    "velocity": 0.49606299212598426,
                    "duration": 0.2298849999999959
                },
                {
                    "name": "G4",
                    "midi": 67,
                    "time": 211.264315,
                    "velocity": 0.4015748031496063,
                    "duration": 0.2298849999999959
                },
                {
                    "name": "D#4",
                    "midi": 63,
                    "time": 211.4942,
                    "velocity": 0.4566929133858268,
                    "duration": 0.2298849999999959
                },
                {
                    "name": "G3",
                    "midi": 55,
                    "time": 211.4942,
                    "velocity": 0.4566929133858268,
                    "duration": 0.2298849999999959
                },
                {
                    "name": "G4",
                    "midi": 67,
                    "time": 211.724085,
                    "velocity": 0.4094488188976378,
                    "duration": 0.2298849999999959
                },
                {
                    "name": "G3",
                    "midi": 55,
                    "time": 211.95397,
                    "velocity": 0.47244094488188976,
                    "duration": 0.2298849999999959
                },
                {
                    "name": "D#4",
                    "midi": 63,
                    "time": 211.95397,
                    "velocity": 0.47244094488188976,
                    "duration": 0.2298849999999959
                },
                {
                    "name": "G4",
                    "midi": 67,
                    "time": 212.183855,
                    "velocity": 0.4251968503937008,
                    "duration": 0.2298849999999959
                },
                {
                    "name": "D4",
                    "midi": 62,
                    "time": 212.41374,
                    "velocity": 0.5196850393700787,
                    "duration": 0.2298849999999959
                },
                {
                    "name": "F3",
                    "midi": 53,
                    "time": 212.41374,
                    "velocity": 0.5196850393700787,
                    "duration": 0.2298849999999959
                },
                {
                    "name": "F4",
                    "midi": 65,
                    "time": 212.643625,
                    "velocity": 0.4330708661417323,
                    "duration": 0.2298849999999959
                },
                {
                    "name": "D4",
                    "midi": 62,
                    "time": 212.87350999999998,
                    "velocity": 0.4881889763779528,
                    "duration": 0.2298849999999959
                },
                {
                    "name": "F3",
                    "midi": 53,
                    "time": 212.87350999999998,
                    "velocity": 0.4881889763779528,
                    "duration": 0.2298849999999959
                },
                {
                    "name": "F4",
                    "midi": 65,
                    "time": 213.10339499999998,
                    "velocity": 0.4409448818897638,
                    "duration": 0.2298849999999959
                },
                {
                    "name": "F3",
                    "midi": 53,
                    "time": 213.33327999999997,
                    "velocity": 0.49606299212598426,
                    "duration": 0.2298849999999959
                },
                {
                    "name": "D4",
                    "midi": 62,
                    "time": 213.33327999999997,
                    "velocity": 0.49606299212598426,
                    "duration": 0.2298849999999959
                },
                {
                    "name": "F4",
                    "midi": 65,
                    "time": 213.56316499999997,
                    "velocity": 0.44881889763779526,
                    "duration": 0.2298849999999959
                },
                {
                    "name": "C4",
                    "midi": 60,
                    "time": 213.79304999999997,
                    "velocity": 0.5511811023622047,
                    "duration": 0.2298849999999959
                },
                {
                    "name": "D#3",
                    "midi": 51,
                    "time": 213.79304999999997,
                    "velocity": 0.5511811023622047,
                    "duration": 0.2298849999999959
                },
                {
                    "name": "D#4",
                    "midi": 63,
                    "time": 214.02293499999996,
                    "velocity": 0.4566929133858268,
                    "duration": 0.2298849999999959
                },
                {
                    "name": "C4",
                    "midi": 60,
                    "time": 214.25281999999996,
                    "velocity": 0.5118110236220472,
                    "duration": 0.2298849999999959
                },
                {
                    "name": "D#3",
                    "midi": 51,
                    "time": 214.25281999999996,
                    "velocity": 0.5118110236220472,
                    "duration": 0.2298849999999959
                },
                {
                    "name": "D#4",
                    "midi": 63,
                    "time": 214.48270499999995,
                    "velocity": 0.47244094488188976,
                    "duration": 0.2298849999999959
                },
                {
                    "name": "D#3",
                    "midi": 51,
                    "time": 214.71258999999995,
                    "velocity": 0.5275590551181102,
                    "duration": 0.2298849999999959
                },
                {
                    "name": "C4",
                    "midi": 60,
                    "time": 214.71258999999995,
                    "velocity": 0.5275590551181102,
                    "duration": 0.2298849999999959
                },
                {
                    "name": "D#4",
                    "midi": 63,
                    "time": 214.94247499999994,
                    "velocity": 0.4881889763779528,
                    "duration": 0.2298849999999959
                },
                {
                    "name": "D3",
                    "midi": 50,
                    "time": 215.17235999999994,
                    "velocity": 0.41732283464566927,
                    "duration": 0.17241375000000403
                },
                {
                    "name": "B3",
                    "midi": 59,
                    "time": 215.17235999999994,
                    "velocity": 0.41732283464566927,
                    "duration": 0.17241375000000403
                },
                {
                    "name": "D4",
                    "midi": 62,
                    "time": 215.34477374999994,
                    "velocity": 0.3543307086614173,
                    "duration": 0.17241375000000403
                },
                {
                    "name": "D3",
                    "midi": 50,
                    "time": 215.51718749999995,
                    "velocity": 0.41732283464566927,
                    "duration": 0.17241375000000403
                },
                {
                    "name": "B3",
                    "midi": 59,
                    "time": 215.51718749999995,
                    "velocity": 0.41732283464566927,
                    "duration": 0.17241375000000403
                },
                {
                    "name": "D4",
                    "midi": 62,
                    "time": 215.68960124999995,
                    "velocity": 0.3779527559055118,
                    "duration": 0.17241375000000403
                },
                {
                    "name": "D3",
                    "midi": 50,
                    "time": 215.86201499999996,
                    "velocity": 0.4251968503937008,
                    "duration": 0.17241375000000403
                },
                {
                    "name": "B3",
                    "midi": 59,
                    "time": 215.86201499999996,
                    "velocity": 0.4251968503937008,
                    "duration": 0.17241375000000403
                },
                {
                    "name": "D4",
                    "midi": 62,
                    "time": 216.03442874999996,
                    "velocity": 0.3700787401574803,
                    "duration": 0.17241375000000403
                },
                {
                    "name": "D3",
                    "midi": 50,
                    "time": 216.20684249999996,
                    "velocity": 0.4251968503937008,
                    "duration": 0.17241375000000403
                },
                {
                    "name": "B3",
                    "midi": 59,
                    "time": 216.20684249999996,
                    "velocity": 0.4251968503937008,
                    "duration": 0.17241375000000403
                },
                {
                    "name": "D4",
                    "midi": 62,
                    "time": 216.37925624999997,
                    "velocity": 0.3937007874015748,
                    "duration": 0.17241375000000403
                },
                {
                    "name": "D3",
                    "midi": 50,
                    "time": 216.55166999999997,
                    "velocity": 0.4251968503937008,
                    "duration": 0.17241375000000403
                },
                {
                    "name": "B3",
                    "midi": 59,
                    "time": 216.55166999999997,
                    "velocity": 0.4251968503937008,
                    "duration": 0.17241375000000403
                },
                {
                    "name": "D4",
                    "midi": 62,
                    "time": 216.72408374999998,
                    "velocity": 0.3700787401574803,
                    "duration": 0.17241375000000403
                },
                {
                    "name": "D3",
                    "midi": 50,
                    "time": 216.89649749999998,
                    "velocity": 0.4330708661417323,
                    "duration": 0.17241375000000403
                },
                {
                    "name": "B3",
                    "midi": 59,
                    "time": 216.89649749999998,
                    "velocity": 0.4330708661417323,
                    "duration": 0.17241375000000403
                },
                {
                    "name": "D4",
                    "midi": 62,
                    "time": 217.06891124999999,
                    "velocity": 0.3937007874015748,
                    "duration": 0.17241375000000403
                },
                {
                    "name": "D3",
                    "midi": 50,
                    "time": 217.241325,
                    "velocity": 0.4409448818897638,
                    "duration": 0.17241375000000403
                },
                {
                    "name": "B3",
                    "midi": 59,
                    "time": 217.241325,
                    "velocity": 0.4409448818897638,
                    "duration": 0.17241375000000403
                },
                {
                    "name": "D4",
                    "midi": 62,
                    "time": 217.41373875,
                    "velocity": 0.3937007874015748,
                    "duration": 0.17241375000000403
                },
                {
                    "name": "D3",
                    "midi": 50,
                    "time": 217.5861525,
                    "velocity": 0.4409448818897638,
                    "duration": 0.17241375000000403
                },
                {
                    "name": "B3",
                    "midi": 59,
                    "time": 217.5861525,
                    "velocity": 0.4409448818897638,
                    "duration": 0.17241375000000403
                },
                {
                    "name": "D4",
                    "midi": 62,
                    "time": 217.75856625,
                    "velocity": 0.4094488188976378,
                    "duration": 0.17241375000000403
                },
                {
                    "name": "D3",
                    "midi": 50,
                    "time": 217.93098,
                    "velocity": 0.44881889763779526,
                    "duration": 0.17241375000000403
                },
                {
                    "name": "B3",
                    "midi": 59,
                    "time": 217.93098,
                    "velocity": 0.44881889763779526,
                    "duration": 0.17241375000000403
                },
                {
                    "name": "D4",
                    "midi": 62,
                    "time": 218.10339375,
                    "velocity": 0.3858267716535433,
                    "duration": 0.17241375000000403
                },
                {
                    "name": "D3",
                    "midi": 50,
                    "time": 218.2758075,
                    "velocity": 0.4409448818897638,
                    "duration": 0.17241375000000403
                },
                {
                    "name": "B3",
                    "midi": 59,
                    "time": 218.2758075,
                    "velocity": 0.4409448818897638,
                    "duration": 0.17241375000000403
                },
                {
                    "name": "D4",
                    "midi": 62,
                    "time": 218.44822125000002,
                    "velocity": 0.3937007874015748,
                    "duration": 0.17241375000000403
                },
                {
                    "name": "D3",
                    "midi": 50,
                    "time": 218.62063500000002,
                    "velocity": 0.4251968503937008,
                    "duration": 0.17241375000000403
                },
                {
                    "name": "B3",
                    "midi": 59,
                    "time": 218.62063500000002,
                    "velocity": 0.4251968503937008,
                    "duration": 0.17241375000000403
                },
                {
                    "name": "D4",
                    "midi": 62,
                    "time": 218.79304875000003,
                    "velocity": 0.3779527559055118,
                    "duration": 0.17241375000000403
                },
                {
                    "name": "D3",
                    "midi": 50,
                    "time": 218.96546250000003,
                    "velocity": 0.4251968503937008,
                    "duration": 0.17241375000000403
                },
                {
                    "name": "B3",
                    "midi": 59,
                    "time": 218.96546250000003,
                    "velocity": 0.4251968503937008,
                    "duration": 0.17241375000000403
                },
                {
                    "name": "D4",
                    "midi": 62,
                    "time": 219.13787625000003,
                    "velocity": 0.3779527559055118,
                    "duration": 0.17241375000000403
                },
                {
                    "name": "E3",
                    "midi": 52,
                    "time": 233.10339000000005,
                    "velocity": 0.4330708661417323,
                    "duration": 0.17241375000000403
                },
                {
                    "name": "C#4",
                    "midi": 61,
                    "time": 233.10339000000005,
                    "velocity": 0.4330708661417323,
                    "duration": 0.17241375000000403
                },
                {
                    "name": "E4",
                    "midi": 64,
                    "time": 233.27580375000005,
                    "velocity": 0.3700787401574803,
                    "duration": 0.17241375000000403
                },
                {
                    "name": "E3",
                    "midi": 52,
                    "time": 233.44821750000006,
                    "velocity": 0.4251968503937008,
                    "duration": 0.17241375000000403
                },
                {
                    "name": "C#4",
                    "midi": 61,
                    "time": 233.44821750000006,
                    "velocity": 0.4251968503937008,
                    "duration": 0.17241375000000403
                },
                {
                    "name": "E4",
                    "midi": 64,
                    "time": 233.62063125000006,
                    "velocity": 0.3858267716535433,
                    "duration": 0.17241375000000403
                },
                {
                    "name": "E3",
                    "midi": 52,
                    "time": 233.79304500000006,
                    "velocity": 0.4251968503937008,
                    "duration": 0.17241375000000403
                },
                {
                    "name": "C#4",
                    "midi": 61,
                    "time": 233.79304500000006,
                    "velocity": 0.4251968503937008,
                    "duration": 0.17241375000000403
                },
                {
                    "name": "E4",
                    "midi": 64,
                    "time": 233.96545875000007,
                    "velocity": 0.3700787401574803,
                    "duration": 0.17241375000000403
                },
                {
                    "name": "E3",
                    "midi": 52,
                    "time": 234.13787250000007,
                    "velocity": 0.4251968503937008,
                    "duration": 0.17241375000000403
                },
                {
                    "name": "C#4",
                    "midi": 61,
                    "time": 234.13787250000007,
                    "velocity": 0.4251968503937008,
                    "duration": 0.17241375000000403
                },
                {
                    "name": "E4",
                    "midi": 64,
                    "time": 234.31028625000008,
                    "velocity": 0.3858267716535433,
                    "duration": 0.17241375000000403
                },
                {
                    "name": "E3",
                    "midi": 52,
                    "time": 234.48270000000008,
                    "velocity": 0.4251968503937008,
                    "duration": 0.17241375000000403
                },
                {
                    "name": "C#4",
                    "midi": 61,
                    "time": 234.48270000000008,
                    "velocity": 0.4251968503937008,
                    "duration": 0.17241375000000403
                },
                {
                    "name": "E4",
                    "midi": 64,
                    "time": 234.65511375000008,
                    "velocity": 0.3543307086614173,
                    "duration": 0.17241375000000403
                },
                {
                    "name": "E3",
                    "midi": 52,
                    "time": 234.8275275000001,
                    "velocity": 0.41732283464566927,
                    "duration": 0.17241375000000403
                },
                {
                    "name": "C#4",
                    "midi": 61,
                    "time": 234.8275275000001,
                    "velocity": 0.41732283464566927,
                    "duration": 0.17241375000000403
                },
                {
                    "name": "E4",
                    "midi": 64,
                    "time": 234.9999412500001,
                    "velocity": 0.36220472440944884,
                    "duration": 0.17241375000000403
                },
                {
                    "name": "E3",
                    "midi": 52,
                    "time": 235.1723550000001,
                    "velocity": 0.41732283464566927,
                    "duration": 0.17241375000000403
                },
                {
                    "name": "C#4",
                    "midi": 61,
                    "time": 235.1723550000001,
                    "velocity": 0.41732283464566927,
                    "duration": 0.17241375000000403
                },
                {
                    "name": "E4",
                    "midi": 64,
                    "time": 235.3447687500001,
                    "velocity": 0.3543307086614173,
                    "duration": 0.17241375000000403
                },
                {
                    "name": "E3",
                    "midi": 52,
                    "time": 235.5171825000001,
                    "velocity": 0.4094488188976378,
                    "duration": 0.17241375000000403
                },
                {
                    "name": "C#4",
                    "midi": 61,
                    "time": 235.5171825000001,
                    "velocity": 0.4094488188976378,
                    "duration": 0.17241375000000403
                },
                {
                    "name": "E4",
                    "midi": 64,
                    "time": 235.6895962500001,
                    "velocity": 0.36220472440944884,
                    "duration": 0.17241375000000403
                },
                {
                    "name": "F4",
                    "midi": 65,
                    "time": 244.1378700000001,
                    "velocity": 0.49606299212598426,
                    "duration": 0.2298849999999959
                },
                {
                    "name": "A3",
                    "midi": 57,
                    "time": 244.1378700000001,
                    "velocity": 0.49606299212598426,
                    "duration": 0.2298849999999959
                },
                {
                    "name": "A4",
                    "midi": 69,
                    "time": 244.3677550000001,
                    "velocity": 0.4015748031496063,
                    "duration": 0.2298849999999959
                },
                {
                    "name": "F4",
                    "midi": 65,
                    "time": 244.5976400000001,
                    "velocity": 0.4566929133858268,
                    "duration": 0.2298849999999959
                },
                {
                    "name": "A3",
                    "midi": 57,
                    "time": 244.5976400000001,
                    "velocity": 0.4566929133858268,
                    "duration": 0.2298849999999959
                },
                {
                    "name": "A4",
                    "midi": 69,
                    "time": 244.8275250000001,
                    "velocity": 0.4094488188976378,
                    "duration": 0.2298849999999959
                },
                {
                    "name": "A3",
                    "midi": 57,
                    "time": 245.0574100000001,
                    "velocity": 0.47244094488188976,
                    "duration": 0.2298849999999959
                },
                {
                    "name": "F4",
                    "midi": 65,
                    "time": 245.0574100000001,
                    "velocity": 0.47244094488188976,
                    "duration": 0.2298849999999959
                },
                {
                    "name": "A4",
                    "midi": 69,
                    "time": 245.28729500000009,
                    "velocity": 0.4251968503937008,
                    "duration": 0.2298849999999959
                },
                {
                    "name": "E4",
                    "midi": 64,
                    "time": 245.51718000000008,
                    "velocity": 0.5196850393700787,
                    "duration": 0.2298849999999959
                },
                {
                    "name": "G3",
                    "midi": 55,
                    "time": 245.51718000000008,
                    "velocity": 0.5196850393700787,
                    "duration": 0.2298849999999959
                },
                {
                    "name": "G4",
                    "midi": 67,
                    "time": 245.74706500000008,
                    "velocity": 0.4330708661417323,
                    "duration": 0.2298849999999959
                },
                {
                    "name": "E4",
                    "midi": 64,
                    "time": 245.97695000000007,
                    "velocity": 0.4881889763779528,
                    "duration": 0.2298849999999959
                },
                {
                    "name": "G3",
                    "midi": 55,
                    "time": 245.97695000000007,
                    "velocity": 0.4881889763779528,
                    "duration": 0.2298849999999959
                },
                {
                    "name": "G4",
                    "midi": 67,
                    "time": 246.20683500000007,
                    "velocity": 0.4409448818897638,
                    "duration": 0.2298849999999959
                },
                {
                    "name": "G3",
                    "midi": 55,
                    "time": 246.43672000000007,
                    "velocity": 0.49606299212598426,
                    "duration": 0.2298849999999959
                },
                {
                    "name": "E4",
                    "midi": 64,
                    "time": 246.43672000000007,
                    "velocity": 0.49606299212598426,
                    "duration": 0.2298849999999959
                },
                {
                    "name": "G4",
                    "midi": 67,
                    "time": 246.66660500000006,
                    "velocity": 0.44881889763779526,
                    "duration": 0.2298849999999959
                },
                {
                    "name": "D4",
                    "midi": 62,
                    "time": 246.89649000000006,
                    "velocity": 0.5511811023622047,
                    "duration": 0.2298849999999959
                },
                {
                    "name": "F3",
                    "midi": 53,
                    "time": 246.89649000000006,
                    "velocity": 0.5511811023622047,
                    "duration": 0.2298849999999959
                },
                {
                    "name": "F4",
                    "midi": 65,
                    "time": 247.12637500000005,
                    "velocity": 0.4566929133858268,
                    "duration": 0.2298849999999959
                },
                {
                    "name": "D4",
                    "midi": 62,
                    "time": 247.35626000000005,
                    "velocity": 0.5118110236220472,
                    "duration": 0.2298849999999959
                },
                {
                    "name": "F3",
                    "midi": 53,
                    "time": 247.35626000000005,
                    "velocity": 0.5118110236220472,
                    "duration": 0.2298849999999959
                },
                {
                    "name": "F4",
                    "midi": 65,
                    "time": 247.58614500000004,
                    "velocity": 0.47244094488188976,
                    "duration": 0.2298849999999959
                },
                {
                    "name": "F3",
                    "midi": 53,
                    "time": 247.81603000000004,
                    "velocity": 0.5275590551181102,
                    "duration": 0.2298849999999959
                },
                {
                    "name": "D4",
                    "midi": 62,
                    "time": 247.81603000000004,
                    "velocity": 0.5275590551181102,
                    "duration": 0.2298849999999959
                },
                {
                    "name": "F4",
                    "midi": 65,
                    "time": 248.04591500000004,
                    "velocity": 0.4881889763779528,
                    "duration": 0.2298849999999959
                },
                {
                    "name": "E3",
                    "midi": 52,
                    "time": 248.27580000000003,
                    "velocity": 0.41732283464566927,
                    "duration": 0.17241375000000403
                },
                {
                    "name": "C#4",
                    "midi": 61,
                    "time": 248.27580000000003,
                    "velocity": 0.41732283464566927,
                    "duration": 0.17241375000000403
                },
                {
                    "name": "E4",
                    "midi": 64,
                    "time": 248.44821375000004,
                    "velocity": 0.3543307086614173,
                    "duration": 0.17241375000000403
                },
                {
                    "name": "E3",
                    "midi": 52,
                    "time": 248.62062750000004,
                    "velocity": 0.41732283464566927,
                    "duration": 0.17241375000000403
                },
                {
                    "name": "C#4",
                    "midi": 61,
                    "time": 248.62062750000004,
                    "velocity": 0.41732283464566927,
                    "duration": 0.17241375000000403
                },
                {
                    "name": "E4",
                    "midi": 64,
                    "time": 248.79304125000004,
                    "velocity": 0.3779527559055118,
                    "duration": 0.17241375000000403
                },
                {
                    "name": "E3",
                    "midi": 52,
                    "time": 248.96545500000005,
                    "velocity": 0.4251968503937008,
                    "duration": 0.17241375000000403
                },
                {
                    "name": "C#4",
                    "midi": 61,
                    "time": 248.96545500000005,
                    "velocity": 0.4251968503937008,
                    "duration": 0.17241375000000403
                },
                {
                    "name": "E4",
                    "midi": 64,
                    "time": 249.13786875000005,
                    "velocity": 0.3700787401574803,
                    "duration": 0.17241375000000403
                },
                {
                    "name": "E3",
                    "midi": 52,
                    "time": 249.31028250000006,
                    "velocity": 0.4251968503937008,
                    "duration": 0.17241375000000403
                },
                {
                    "name": "C#4",
                    "midi": 61,
                    "time": 249.31028250000006,
                    "velocity": 0.4251968503937008,
                    "duration": 0.17241375000000403
                },
                {
                    "name": "E4",
                    "midi": 64,
                    "time": 249.48269625000006,
                    "velocity": 0.3937007874015748,
                    "duration": 0.17241375000000403
                },
                {
                    "name": "E3",
                    "midi": 52,
                    "time": 249.65511000000006,
                    "velocity": 0.4251968503937008,
                    "duration": 0.17241375000000403
                },
                {
                    "name": "C#4",
                    "midi": 61,
                    "time": 249.65511000000006,
                    "velocity": 0.4251968503937008,
                    "duration": 0.17241375000000403
                },
                {
                    "name": "E4",
                    "midi": 64,
                    "time": 249.82752375000007,
                    "velocity": 0.3700787401574803,
                    "duration": 0.17241375000000403
                },
                {
                    "name": "E3",
                    "midi": 52,
                    "time": 249.99993750000007,
                    "velocity": 0.4330708661417323,
                    "duration": 0.17241375000000403
                },
                {
                    "name": "C#4",
                    "midi": 61,
                    "time": 249.99993750000007,
                    "velocity": 0.4330708661417323,
                    "duration": 0.17241375000000403
                },
                {
                    "name": "E4",
                    "midi": 64,
                    "time": 250.17235125000008,
                    "velocity": 0.3937007874015748,
                    "duration": 0.17241375000000403
                },
                {
                    "name": "E3",
                    "midi": 52,
                    "time": 250.34476500000008,
                    "velocity": 0.4409448818897638,
                    "duration": 0.17241375000000403
                },
                {
                    "name": "C#4",
                    "midi": 61,
                    "time": 250.34476500000008,
                    "velocity": 0.4409448818897638,
                    "duration": 0.17241375000000403
                },
                {
                    "name": "E4",
                    "midi": 64,
                    "time": 250.51717875000008,
                    "velocity": 0.3937007874015748,
                    "duration": 0.17241375000000403
                },
                {
                    "name": "E3",
                    "midi": 52,
                    "time": 250.6895925000001,
                    "velocity": 0.4409448818897638,
                    "duration": 0.17241375000000403
                },
                {
                    "name": "C#4",
                    "midi": 61,
                    "time": 250.6895925000001,
                    "velocity": 0.4409448818897638,
                    "duration": 0.17241375000000403
                },
                {
                    "name": "E4",
                    "midi": 64,
                    "time": 250.8620062500001,
                    "velocity": 0.4094488188976378,
                    "duration": 0.17241375000000403
                },
                {
                    "name": "E3",
                    "midi": 52,
                    "time": 251.0344200000001,
                    "velocity": 0.44881889763779526,
                    "duration": 0.17241375000000403
                },
                {
                    "name": "C#4",
                    "midi": 61,
                    "time": 251.0344200000001,
                    "velocity": 0.44881889763779526,
                    "duration": 0.17241375000000403
                },
                {
                    "name": "E4",
                    "midi": 64,
                    "time": 251.2068337500001,
                    "velocity": 0.3858267716535433,
                    "duration": 0.17241375000000403
                },
                {
                    "name": "E3",
                    "midi": 52,
                    "time": 251.3792475000001,
                    "velocity": 0.4409448818897638,
                    "duration": 0.17241375000000403
                },
                {
                    "name": "C#4",
                    "midi": 61,
                    "time": 251.3792475000001,
                    "velocity": 0.4409448818897638,
                    "duration": 0.17241375000000403
                },
                {
                    "name": "E4",
                    "midi": 64,
                    "time": 251.5516612500001,
                    "velocity": 0.3937007874015748,
                    "duration": 0.17241375000000403
                },
                {
                    "name": "E3",
                    "midi": 52,
                    "time": 251.7240750000001,
                    "velocity": 0.4251968503937008,
                    "duration": 0.17241375000000403
                },
                {
                    "name": "C#4",
                    "midi": 61,
                    "time": 251.7240750000001,
                    "velocity": 0.4251968503937008,
                    "duration": 0.17241375000000403
                },
                {
                    "name": "E4",
                    "midi": 64,
                    "time": 251.89648875000012,
                    "velocity": 0.3779527559055118,
                    "duration": 0.17241375000000403
                },
                {
                    "name": "E3",
                    "midi": 52,
                    "time": 252.06890250000012,
                    "velocity": 0.4251968503937008,
                    "duration": 0.17241375000000403
                },
                {
                    "name": "C#4",
                    "midi": 61,
                    "time": 252.06890250000012,
                    "velocity": 0.4251968503937008,
                    "duration": 0.17241375000000403
                },
                {
                    "name": "E4",
                    "midi": 64,
                    "time": 252.24131625000012,
                    "velocity": 0.3858267716535433,
                    "duration": 0.17241375000000403
                },
                {
                    "name": "D#5",
                    "midi": 75,
                    "time": 264.8275200000001,
                    "velocity": 0.5118110236220472,
                    "duration": 0.1724137499999756
                },
                {
                    "name": "F5",
                    "midi": 77,
                    "time": 264.8275200000001,
                    "velocity": 0.5118110236220472,
                    "duration": 0.1724137499999756
                },
                {
                    "name": "A5",
                    "midi": 81,
                    "time": 264.8275200000001,
                    "velocity": 0.6141732283464567,
                    "duration": 0.1724137499999756
                },
                {
                    "name": "D#6",
                    "midi": 87,
                    "time": 264.9999337500001,
                    "velocity": 0.5118110236220472,
                    "duration": 0.1724137499999756
                },
                {
                    "name": "D#5",
                    "midi": 75,
                    "time": 265.17234750000006,
                    "velocity": 0.4330708661417323,
                    "duration": 0.1724137499999756
                },
                {
                    "name": "F5",
                    "midi": 77,
                    "time": 265.17234750000006,
                    "velocity": 0.4330708661417323,
                    "duration": 0.1724137499999756
                },
                {
                    "name": "A5",
                    "midi": 81,
                    "time": 265.17234750000006,
                    "velocity": 0.5118110236220472,
                    "duration": 0.1724137499999756
                },
                {
                    "name": "D#6",
                    "midi": 87,
                    "time": 265.34476125000003,
                    "velocity": 0.49606299212598426,
                    "duration": 0.1724137499999756
                },
                {
                    "name": "D#5",
                    "midi": 75,
                    "time": 265.517175,
                    "velocity": 0.4251968503937008,
                    "duration": 0.1724137499999756
                },
                {
                    "name": "F5",
                    "midi": 77,
                    "time": 265.517175,
                    "velocity": 0.4251968503937008,
                    "duration": 0.1724137499999756
                },
                {
                    "name": "A5",
                    "midi": 81,
                    "time": 265.517175,
                    "velocity": 0.5039370078740157,
                    "duration": 0.1724137499999756
                },
                {
                    "name": "D#6",
                    "midi": 87,
                    "time": 265.68958875,
                    "velocity": 0.49606299212598426,
                    "duration": 0.1724137499999756
                },
                {
                    "name": "D#5",
                    "midi": 75,
                    "time": 265.86200249999996,
                    "velocity": 0.4251968503937008,
                    "duration": 0.1724137499999756
                },
                {
                    "name": "F5",
                    "midi": 77,
                    "time": 265.86200249999996,
                    "velocity": 0.4251968503937008,
                    "duration": 0.1724137499999756
                },
                {
                    "name": "A5",
                    "midi": 81,
                    "time": 265.86200249999996,
                    "velocity": 0.5039370078740157,
                    "duration": 0.1724137499999756
                },
                {
                    "name": "D#6",
                    "midi": 87,
                    "time": 266.03441624999994,
                    "velocity": 0.49606299212598426,
                    "duration": 0.1724137499999756
                },
                {
                    "name": "D#5",
                    "midi": 75,
                    "time": 266.2068299999999,
                    "velocity": 0.4409448818897638,
                    "duration": 0.1724137499999756
                },
                {
                    "name": "F5",
                    "midi": 77,
                    "time": 266.2068299999999,
                    "velocity": 0.4409448818897638,
                    "duration": 0.1724137499999756
                },
                {
                    "name": "A5",
                    "midi": 81,
                    "time": 266.2068299999999,
                    "velocity": 0.5354330708661418,
                    "duration": 0.1724137499999756
                },
                {
                    "name": "D#6",
                    "midi": 87,
                    "time": 266.3792437499999,
                    "velocity": 0.48031496062992124,
                    "duration": 0.1724137499999756
                },
                {
                    "name": "D#5",
                    "midi": 75,
                    "time": 266.55165749999986,
                    "velocity": 0.3858267716535433,
                    "duration": 0.1724137499999756
                },
                {
                    "name": "F5",
                    "midi": 77,
                    "time": 266.55165749999986,
                    "velocity": 0.3858267716535433,
                    "duration": 0.1724137499999756
                },
                {
                    "name": "A5",
                    "midi": 81,
                    "time": 266.55165749999986,
                    "velocity": 0.4566929133858268,
                    "duration": 0.1724137499999756
                },
                {
                    "name": "D#6",
                    "midi": 87,
                    "time": 266.72407124999984,
                    "velocity": 0.4566929133858268,
                    "duration": 0.1724137499999756
                },
                {
                    "name": "D#5",
                    "midi": 75,
                    "time": 266.8964849999998,
                    "velocity": 0.3779527559055118,
                    "duration": 0.1724137499999756
                },
                {
                    "name": "F5",
                    "midi": 77,
                    "time": 266.8964849999998,
                    "velocity": 0.3779527559055118,
                    "duration": 0.1724137499999756
                },
                {
                    "name": "A5",
                    "midi": 81,
                    "time": 266.8964849999998,
                    "velocity": 0.44881889763779526,
                    "duration": 0.1724137499999756
                },
                {
                    "name": "D#6",
                    "midi": 87,
                    "time": 267.0688987499998,
                    "velocity": 0.4566929133858268,
                    "duration": 0.1724137499999756
                },
                {
                    "name": "D#5",
                    "midi": 75,
                    "time": 267.24131249999976,
                    "velocity": 0.3700787401574803,
                    "duration": 0.1724137499999756
                },
                {
                    "name": "F5",
                    "midi": 77,
                    "time": 267.24131249999976,
                    "velocity": 0.3700787401574803,
                    "duration": 0.1724137499999756
                },
                {
                    "name": "A5",
                    "midi": 81,
                    "time": 267.24131249999976,
                    "velocity": 0.44881889763779526,
                    "duration": 0.1724137499999756
                },
                {
                    "name": "D#6",
                    "midi": 87,
                    "time": 267.41372624999974,
                    "velocity": 0.4645669291338583,
                    "duration": 0.1724137499999756
                },
                {
                    "name": "D#5",
                    "midi": 75,
                    "time": 267.5861399999997,
                    "velocity": 0.48031496062992124,
                    "duration": 0.1724137499999756
                },
                {
                    "name": "F5",
                    "midi": 77,
                    "time": 267.5861399999997,
                    "velocity": 0.48031496062992124,
                    "duration": 0.1724137499999756
                },
                {
                    "name": "A5",
                    "midi": 81,
                    "time": 267.5861399999997,
                    "velocity": 0.5669291338582677,
                    "duration": 0.1724137499999756
                },
                {
                    "name": "D#6",
                    "midi": 87,
                    "time": 267.7585537499997,
                    "velocity": 0.4881889763779528,
                    "duration": 0.1724137499999756
                },
                {
                    "name": "D#5",
                    "midi": 75,
                    "time": 267.93096749999967,
                    "velocity": 0.3937007874015748,
                    "duration": 0.1724137499999756
                },
                {
                    "name": "F5",
                    "midi": 77,
                    "time": 267.93096749999967,
                    "velocity": 0.3937007874015748,
                    "duration": 0.1724137499999756
                },
                {
                    "name": "A5",
                    "midi": 81,
                    "time": 267.93096749999967,
                    "velocity": 0.47244094488188976,
                    "duration": 0.1724137499999756
                },
                {
                    "name": "D#6",
                    "midi": 87,
                    "time": 268.10338124999964,
                    "velocity": 0.4881889763779528,
                    "duration": 0.1724137499999756
                },
                {
                    "name": "D#5",
                    "midi": 75,
                    "time": 268.2757949999996,
                    "velocity": 0.3937007874015748,
                    "duration": 0.1724137499999756
                },
                {
                    "name": "F5",
                    "midi": 77,
                    "time": 268.2757949999996,
                    "velocity": 0.3937007874015748,
                    "duration": 0.1724137499999756
                },
                {
                    "name": "A5",
                    "midi": 81,
                    "time": 268.2757949999996,
                    "velocity": 0.47244094488188976,
                    "duration": 0.1724137499999756
                },
                {
                    "name": "D#6",
                    "midi": 87,
                    "time": 268.4482087499996,
                    "velocity": 0.4881889763779528,
                    "duration": 0.1724137499999756
                },
                {
                    "name": "D#5",
                    "midi": 75,
                    "time": 268.62062249999957,
                    "velocity": 0.3937007874015748,
                    "duration": 0.1724137499999756
                },
                {
                    "name": "F5",
                    "midi": 77,
                    "time": 268.62062249999957,
                    "velocity": 0.3937007874015748,
                    "duration": 0.1724137499999756
                },
                {
                    "name": "A5",
                    "midi": 81,
                    "time": 268.62062249999957,
                    "velocity": 0.47244094488188976,
                    "duration": 0.1724137499999756
                },
                {
                    "name": "D#6",
                    "midi": 87,
                    "time": 268.79303624999955,
                    "velocity": 0.4881889763779528,
                    "duration": 0.1724137499999756
                },
                {
                    "name": "D#5",
                    "midi": 75,
                    "time": 268.9654499999995,
                    "velocity": 0.4330708661417323,
                    "duration": 0.22988500000002432
                },
                {
                    "name": "F5",
                    "midi": 77,
                    "time": 268.9654499999995,
                    "velocity": 0.5196850393700787,
                    "duration": 0.22988500000002432
                },
                {
                    "name": "D#6",
                    "midi": 87,
                    "time": 269.19533499999955,
                    "velocity": 0.48031496062992124,
                    "duration": 0.22988500000002432
                },
                {
                    "name": "D#5",
                    "midi": 75,
                    "time": 269.42521999999957,
                    "velocity": 0.4330708661417323,
                    "duration": 0.22988500000002432
                },
                {
                    "name": "F5",
                    "midi": 77,
                    "time": 269.42521999999957,
                    "velocity": 0.4330708661417323,
                    "duration": 0.22988500000002432
                },
                {
                    "name": "A5",
                    "midi": 81,
                    "time": 269.42521999999957,
                    "velocity": 0.5196850393700787,
                    "duration": 0.22988500000002432
                },
                {
                    "name": "D#6",
                    "midi": 87,
                    "time": 269.6551049999996,
                    "velocity": 0.48031496062992124,
                    "duration": 0.22988500000002432
                },
                {
                    "name": "D#5",
                    "midi": 75,
                    "time": 269.8849899999996,
                    "velocity": 0.4409448818897638,
                    "duration": 0.22988500000002432
                },
                {
                    "name": "F5",
                    "midi": 77,
                    "time": 269.8849899999996,
                    "velocity": 0.4409448818897638,
                    "duration": 0.22988500000002432
                },
                {
                    "name": "A5",
                    "midi": 81,
                    "time": 269.8849899999996,
                    "velocity": 0.5275590551181102,
                    "duration": 0.22988500000002432
                },
                {
                    "name": "D#6",
                    "midi": 87,
                    "time": 270.11487499999964,
                    "velocity": 0.4881889763779528,
                    "duration": 0.22988500000002432
                },
                {
                    "name": "D#5",
                    "midi": 75,
                    "time": 270.34475999999967,
                    "velocity": 0.44881889763779526,
                    "duration": 0.22988500000002432
                },
                {
                    "name": "F5",
                    "midi": 77,
                    "time": 270.34475999999967,
                    "velocity": 0.5354330708661418,
                    "duration": 0.22988500000002432
                },
                {
                    "name": "D#6",
                    "midi": 87,
                    "time": 270.5746449999997,
                    "velocity": 0.49606299212598426,
                    "duration": 0.22988500000002432
                },
                {
                    "name": "D#5",
                    "midi": 75,
                    "time": 270.8045299999997,
                    "velocity": 0.4566929133858268,
                    "duration": 0.22988500000002432
                },
                {
                    "name": "F5",
                    "midi": 77,
                    "time": 270.8045299999997,
                    "velocity": 0.4566929133858268,
                    "duration": 0.22988500000002432
                },
                {
                    "name": "B5",
                    "midi": 83,
                    "time": 270.8045299999997,
                    "velocity": 0.5433070866141733,
                    "duration": 0.22988500000002432
                },
                {
                    "name": "D#6",
                    "midi": 87,
                    "time": 271.03441499999974,
                    "velocity": 0.49606299212598426,
                    "duration": 0.22988500000002432
                },
                {
                    "name": "D#5",
                    "midi": 75,
                    "time": 271.26429999999976,
                    "velocity": 0.4566929133858268,
                    "duration": 0.22988500000002432
                },
                {
                    "name": "F5",
                    "midi": 77,
                    "time": 271.26429999999976,
                    "velocity": 0.4566929133858268,
                    "duration": 0.22988500000002432
                },
                {
                    "name": "B5",
                    "midi": 83,
                    "time": 271.26429999999976,
                    "velocity": 0.5433070866141733,
                    "duration": 0.22988500000002432
                },
                {
                    "name": "D#6",
                    "midi": 87,
                    "time": 271.4941849999998,
                    "velocity": 0.49606299212598426,
                    "duration": 0.22988500000002432
                },
                {
                    "name": "D#5",
                    "midi": 75,
                    "time": 271.7240699999998,
                    "velocity": 0.4645669291338583,
                    "duration": 0.22988500000002432
                },
                {
                    "name": "F5",
                    "midi": 77,
                    "time": 271.7240699999998,
                    "velocity": 0.5511811023622047,
                    "duration": 0.22988500000002432
                },
                {
                    "name": "D#6",
                    "midi": 87,
                    "time": 271.95395499999984,
                    "velocity": 0.5039370078740157,
                    "duration": 0.22988500000002432
                },
                {
                    "name": "D#5",
                    "midi": 75,
                    "time": 272.18383999999986,
                    "velocity": 0.47244094488188976,
                    "duration": 0.22988500000002432
                },
                {
                    "name": "F5",
                    "midi": 77,
                    "time": 272.18383999999986,
                    "velocity": 0.47244094488188976,
                    "duration": 0.22988500000002432
                },
                {
                    "name": "C6",
                    "midi": 84,
                    "time": 272.18383999999986,
                    "velocity": 0.5590551181102362,
                    "duration": 0.22988500000002432
                },
                {
                    "name": "D#6",
                    "midi": 87,
                    "time": 272.4137249999999,
                    "velocity": 0.5039370078740157,
                    "duration": 0.22988500000002432
                },
                {
                    "name": "D#5",
                    "midi": 75,
                    "time": 272.6436099999999,
                    "velocity": 0.48031496062992124,
                    "duration": 0.22988500000002432
                },
                {
                    "name": "F5",
                    "midi": 77,
                    "time": 272.6436099999999,
                    "velocity": 0.48031496062992124,
                    "duration": 0.22988500000002432
                },
                {
                    "name": "C6",
                    "midi": 84,
                    "time": 272.6436099999999,
                    "velocity": 0.5669291338582677,
                    "duration": 0.22988500000002432
                },
                {
                    "name": "D#6",
                    "midi": 87,
                    "time": 272.87349499999993,
                    "velocity": 0.5118110236220472,
                    "duration": 0.22988500000002432
                },
                {
                    "name": "E5",
                    "midi": 76,
                    "time": 273.10337999999996,
                    "velocity": 0.4881889763779528,
                    "duration": 0.22988500000002432
                },
                {
                    "name": "G#5",
                    "midi": 80,
                    "time": 273.10337999999996,
                    "velocity": 0.5669291338582677,
                    "duration": 0.22988500000002432
                },
                {
                    "name": "E6",
                    "midi": 88,
                    "time": 273.333265,
                    "velocity": 0.5275590551181102,
                    "duration": 0.22988500000002432
                },
                {
                    "name": "E5",
                    "midi": 76,
                    "time": 273.56315,
                    "velocity": 0.49606299212598426,
                    "duration": 0.22988500000002432
                },
                {
                    "name": "G#5",
                    "midi": 80,
                    "time": 273.56315,
                    "velocity": 0.49606299212598426,
                    "duration": 0.22988500000002432
                },
                {
                    "name": "E6",
                    "midi": 88,
                    "time": 273.79303500000003,
                    "velocity": 0.5275590551181102,
                    "duration": 0.22988500000002432
                },
                {
                    "name": "E5",
                    "midi": 76,
                    "time": 274.02292000000006,
                    "velocity": 0.49606299212598426,
                    "duration": 0.22988500000002432
                },
                {
                    "name": "G#5",
                    "midi": 80,
                    "time": 274.02292000000006,
                    "velocity": 0.49606299212598426,
                    "duration": 0.22988500000002432
                },
                {
                    "name": "E6",
                    "midi": 88,
                    "time": 274.2528050000001,
                    "velocity": 0.5354330708661418,
                    "duration": 0.22988500000002432
                },
                {
                    "name": "D#5",
                    "midi": 75,
                    "time": 274.4826900000001,
                    "velocity": 0.4881889763779528,
                    "duration": 0.22988500000002432
                },
                {
                    "name": "D#6",
                    "midi": 87,
                    "time": 274.71257500000013,
                    "velocity": 0.5275590551181102,
                    "duration": 0.22988500000002432
                },
                {
                    "name": "D#5",
                    "midi": 75,
                    "time": 274.94246000000015,
                    "velocity": 0.49606299212598426,
                    "duration": 0.22988500000002432
                },
                {
                    "name": "C6",
                    "midi": 84,
                    "time": 274.94246000000015,
                    "velocity": 0.49606299212598426,
                    "duration": 0.22988500000002432
                },
                {
                    "name": "D#6",
                    "midi": 87,
                    "time": 275.1723450000002,
                    "velocity": 0.5275590551181102,
                    "duration": 0.22988500000002432
                },
                {
                    "name": "D#5",
                    "midi": 75,
                    "time": 275.4022300000002,
                    "velocity": 0.49606299212598426,
                    "duration": 0.22988500000002432
                },
                {
                    "name": "C6",
                    "midi": 84,
                    "time": 275.4022300000002,
                    "velocity": 0.49606299212598426,
                    "duration": 0.22988500000002432
                },
                {
                    "name": "D#6",
                    "midi": 87,
                    "time": 275.6321150000002,
                    "velocity": 0.5354330708661418,
                    "duration": 0.22988500000002432
                },
                {
                    "name": "D5",
                    "midi": 74,
                    "time": 275.86200000000025,
                    "velocity": 0.4881889763779528,
                    "duration": 0.22988500000002432
                },
                {
                    "name": "D6",
                    "midi": 86,
                    "time": 276.0918850000003,
                    "velocity": 0.5275590551181102,
                    "duration": 0.22988500000002432
                },
                {
                    "name": "D5",
                    "midi": 74,
                    "time": 276.3217700000003,
                    "velocity": 0.49606299212598426,
                    "duration": 0.22988500000002432
                },
                {
                    "name": "B5",
                    "midi": 83,
                    "time": 276.3217700000003,
                    "velocity": 0.49606299212598426,
                    "duration": 0.22988500000002432
                },
                {
                    "name": "D6",
                    "midi": 86,
                    "time": 276.5516550000003,
                    "velocity": 0.5275590551181102,
                    "duration": 0.22988500000002432
                },
                {
                    "name": "D5",
                    "midi": 74,
                    "time": 276.78154000000035,
                    "velocity": 0.49606299212598426,
                    "duration": 0.22988500000002432
                },
                {
                    "name": "B5",
                    "midi": 83,
                    "time": 276.78154000000035,
                    "velocity": 0.49606299212598426,
                    "duration": 0.22988500000002432
                },
                {
                    "name": "D6",
                    "midi": 86,
                    "time": 277.0114250000004,
                    "velocity": 0.5354330708661418,
                    "duration": 0.22988500000002432
                },
                {
                    "name": "C#5",
                    "midi": 73,
                    "time": 277.2413100000004,
                    "velocity": 0.4881889763779528,
                    "duration": 0.22988500000002432
                },
                {
                    "name": "C#6",
                    "midi": 85,
                    "time": 277.4711950000004,
                    "velocity": 0.5275590551181102,
                    "duration": 0.22988500000002432
                },
                {
                    "name": "C#5",
                    "midi": 73,
                    "time": 277.70108000000045,
                    "velocity": 0.49606299212598426,
                    "duration": 0.22988500000002432
                },
                {
                    "name": "A#5",
                    "midi": 82,
                    "time": 277.70108000000045,
                    "velocity": 0.49606299212598426,
                    "duration": 0.22988500000002432
                },
                {
                    "name": "C#6",
                    "midi": 85,
                    "time": 277.93096500000047,
                    "velocity": 0.5275590551181102,
                    "duration": 0.22988500000002432
                },
                {
                    "name": "C#5",
                    "midi": 73,
                    "time": 278.1608500000005,
                    "velocity": 0.49606299212598426,
                    "duration": 0.22988500000002432
                },
                {
                    "name": "A#5",
                    "midi": 82,
                    "time": 278.1608500000005,
                    "velocity": 0.49606299212598426,
                    "duration": 0.22988500000002432
                },
                {
                    "name": "C#6",
                    "midi": 85,
                    "time": 278.3907350000005,
                    "velocity": 0.5354330708661418,
                    "duration": 0.22988500000002432
                },
                {
                    "name": "C5",
                    "midi": 72,
                    "time": 278.62062000000054,
                    "velocity": 0.4881889763779528,
                    "duration": 0.22988500000002432
                },
                {
                    "name": "C6",
                    "midi": 84,
                    "time": 278.85050500000057,
                    "velocity": 0.5275590551181102,
                    "duration": 0.22988500000002432
                },
                {
                    "name": "C5",
                    "midi": 72,
                    "time": 279.0803900000006,
                    "velocity": 0.49606299212598426,
                    "duration": 0.22988500000002432
                },
                {
                    "name": "A5",
                    "midi": 81,
                    "time": 279.0803900000006,
                    "velocity": 0.49606299212598426,
                    "duration": 0.22988500000002432
                },
                {
                    "name": "C6",
                    "midi": 84,
                    "time": 279.3102750000006,
                    "velocity": 0.5275590551181102,
                    "duration": 0.22988500000002432
                },
                {
                    "name": "C5",
                    "midi": 72,
                    "time": 279.54016000000064,
                    "velocity": 0.49606299212598426,
                    "duration": 0.22988500000002432
                },
                {
                    "name": "A5",
                    "midi": 81,
                    "time": 279.54016000000064,
                    "velocity": 0.49606299212598426,
                    "duration": 0.22988500000002432
                },
                {
                    "name": "C6",
                    "midi": 84,
                    "time": 279.77004500000066,
                    "velocity": 0.5354330708661418,
                    "duration": 0.22988500000002432
                },
                {
                    "name": "B4",
                    "midi": 71,
                    "time": 279.9999300000007,
                    "velocity": 0.4881889763779528,
                    "duration": 0.22988500000002432
                },
                {
                    "name": "B5",
                    "midi": 83,
                    "time": 280.2298150000007,
                    "velocity": 0.5275590551181102,
                    "duration": 0.22988500000002432
                },
                {
                    "name": "B4",
                    "midi": 71,
                    "time": 280.45970000000074,
                    "velocity": 0.49606299212598426,
                    "duration": 0.22988500000002432
                },
                {
                    "name": "G#5",
                    "midi": 80,
                    "time": 280.45970000000074,
                    "velocity": 0.49606299212598426,
                    "duration": 0.22988500000002432
                },
                {
                    "name": "B5",
                    "midi": 83,
                    "time": 280.68958500000076,
                    "velocity": 0.5275590551181102,
                    "duration": 0.22988500000002432
                },
                {
                    "name": "B4",
                    "midi": 71,
                    "time": 280.9194700000008,
                    "velocity": 0.49606299212598426,
                    "duration": 0.22988500000002432
                },
                {
                    "name": "G#5",
                    "midi": 80,
                    "time": 280.9194700000008,
                    "velocity": 0.49606299212598426,
                    "duration": 0.22988500000002432
                },
                {
                    "name": "B5",
                    "midi": 83,
                    "time": 281.1493550000008,
                    "velocity": 0.5354330708661418,
                    "duration": 0.22988500000002432
                },
                {
                    "name": "E5",
                    "midi": 76,
                    "time": 281.37924000000083,
                    "velocity": 0.5118110236220472,
                    "duration": 0.1724137499999756
                },
                {
                    "name": "G5",
                    "midi": 79,
                    "time": 281.37924000000083,
                    "velocity": 0.5118110236220472,
                    "duration": 0.1724137499999756
                },
                {
                    "name": "A#5",
                    "midi": 82,
                    "time": 281.37924000000083,
                    "velocity": 0.6141732283464567,
                    "duration": 0.1724137499999756
                },
                {
                    "name": "E6",
                    "midi": 88,
                    "time": 281.5516537500008,
                    "velocity": 0.5118110236220472,
                    "duration": 0.1724137499999756
                },
                {
                    "name": "E5",
                    "midi": 76,
                    "time": 281.7240675000008,
                    "velocity": 0.4330708661417323,
                    "duration": 0.1724137499999756
                },
                {
                    "name": "G5",
                    "midi": 79,
                    "time": 281.7240675000008,
                    "velocity": 0.4330708661417323,
                    "duration": 0.1724137499999756
                },
                {
                    "name": "A#5",
                    "midi": 82,
                    "time": 281.7240675000008,
                    "velocity": 0.5118110236220472,
                    "duration": 0.1724137499999756
                },
                {
                    "name": "E6",
                    "midi": 88,
                    "time": 281.89648125000076,
                    "velocity": 0.49606299212598426,
                    "duration": 0.1724137499999756
                },
                {
                    "name": "E5",
                    "midi": 76,
                    "time": 282.06889500000074,
                    "velocity": 0.4251968503937008,
                    "duration": 0.1724137499999756
                },
                {
                    "name": "G5",
                    "midi": 79,
                    "time": 282.06889500000074,
                    "velocity": 0.4251968503937008,
                    "duration": 0.1724137499999756
                },
                {
                    "name": "A#5",
                    "midi": 82,
                    "time": 282.06889500000074,
                    "velocity": 0.5039370078740157,
                    "duration": 0.1724137499999756
                },
                {
                    "name": "E6",
                    "midi": 88,
                    "time": 282.2413087500007,
                    "velocity": 0.49606299212598426,
                    "duration": 0.1724137499999756
                },
                {
                    "name": "E5",
                    "midi": 76,
                    "time": 282.4137225000007,
                    "velocity": 0.4251968503937008,
                    "duration": 0.1724137499999756
                },
                {
                    "name": "G5",
                    "midi": 79,
                    "time": 282.4137225000007,
                    "velocity": 0.4251968503937008,
                    "duration": 0.1724137499999756
                },
                {
                    "name": "A#5",
                    "midi": 82,
                    "time": 282.4137225000007,
                    "velocity": 0.5039370078740157,
                    "duration": 0.1724137499999756
                },
                {
                    "name": "E6",
                    "midi": 88,
                    "time": 282.58613625000066,
                    "velocity": 0.49606299212598426,
                    "duration": 0.1724137499999756
                },
                {
                    "name": "E5",
                    "midi": 76,
                    "time": 282.75855000000064,
                    "velocity": 0.4409448818897638,
                    "duration": 0.1724137499999756
                },
                {
                    "name": "G5",
                    "midi": 79,
                    "time": 282.75855000000064,
                    "velocity": 0.4409448818897638,
                    "duration": 0.1724137499999756
                },
                {
                    "name": "A#5",
                    "midi": 82,
                    "time": 282.75855000000064,
                    "velocity": 0.5354330708661418,
                    "duration": 0.1724137499999756
                },
                {
                    "name": "E6",
                    "midi": 88,
                    "time": 282.9309637500006,
                    "velocity": 0.48031496062992124,
                    "duration": 0.1724137499999756
                },
                {
                    "name": "E5",
                    "midi": 76,
                    "time": 283.1033775000006,
                    "velocity": 0.3858267716535433,
                    "duration": 0.1724137499999756
                },
                {
                    "name": "G5",
                    "midi": 79,
                    "time": 283.1033775000006,
                    "velocity": 0.3858267716535433,
                    "duration": 0.1724137499999756
                },
                {
                    "name": "A#5",
                    "midi": 82,
                    "time": 283.1033775000006,
                    "velocity": 0.4566929133858268,
                    "duration": 0.1724137499999756
                },
                {
                    "name": "E6",
                    "midi": 88,
                    "time": 283.27579125000057,
                    "velocity": 0.4566929133858268,
                    "duration": 0.1724137499999756
                },
                {
                    "name": "E5",
                    "midi": 76,
                    "time": 283.44820500000054,
                    "velocity": 0.3779527559055118,
                    "duration": 0.1724137499999756
                },
                {
                    "name": "G5",
                    "midi": 79,
                    "time": 283.44820500000054,
                    "velocity": 0.3779527559055118,
                    "duration": 0.1724137499999756
                },
                {
                    "name": "A#5",
                    "midi": 82,
                    "time": 283.44820500000054,
                    "velocity": 0.44881889763779526,
                    "duration": 0.1724137499999756
                },
                {
                    "name": "E6",
                    "midi": 88,
                    "time": 283.6206187500005,
                    "velocity": 0.4566929133858268,
                    "duration": 0.1724137499999756
                },
                {
                    "name": "E5",
                    "midi": 76,
                    "time": 283.7930325000005,
                    "velocity": 0.3700787401574803,
                    "duration": 0.1724137499999756
                },
                {
                    "name": "G5",
                    "midi": 79,
                    "time": 283.7930325000005,
                    "velocity": 0.3700787401574803,
                    "duration": 0.1724137499999756
                },
                {
                    "name": "A#5",
                    "midi": 82,
                    "time": 283.7930325000005,
                    "velocity": 0.44881889763779526,
                    "duration": 0.1724137499999756
                },
                {
                    "name": "E6",
                    "midi": 88,
                    "time": 283.96544625000047,
                    "velocity": 0.4645669291338583,
                    "duration": 0.1724137499999756
                },
                {
                    "name": "E5",
                    "midi": 76,
                    "time": 284.13786000000044,
                    "velocity": 0.48031496062992124,
                    "duration": 0.1724137499999756
                },
                {
                    "name": "G5",
                    "midi": 79,
                    "time": 284.13786000000044,
                    "velocity": 0.48031496062992124,
                    "duration": 0.1724137499999756
                },
                {
                    "name": "A#5",
                    "midi": 82,
                    "time": 284.13786000000044,
                    "velocity": 0.5669291338582677,
                    "duration": 0.1724137499999756
                },
                {
                    "name": "E6",
                    "midi": 88,
                    "time": 284.3102737500004,
                    "velocity": 0.4881889763779528,
                    "duration": 0.1724137499999756
                },
                {
                    "name": "E5",
                    "midi": 76,
                    "time": 284.4826875000004,
                    "velocity": 0.3937007874015748,
                    "duration": 0.1724137499999756
                },
                {
                    "name": "G5",
                    "midi": 79,
                    "time": 284.4826875000004,
                    "velocity": 0.3937007874015748,
                    "duration": 0.1724137499999756
                },
                {
                    "name": "A#5",
                    "midi": 82,
                    "time": 284.4826875000004,
                    "velocity": 0.47244094488188976,
                    "duration": 0.1724137499999756
                },
                {
                    "name": "E6",
                    "midi": 88,
                    "time": 284.65510125000037,
                    "velocity": 0.4881889763779528,
                    "duration": 0.1724137499999756
                },
                {
                    "name": "E5",
                    "midi": 76,
                    "time": 284.82751500000035,
                    "velocity": 0.3937007874015748,
                    "duration": 0.1724137499999756
                },
                {
                    "name": "G5",
                    "midi": 79,
                    "time": 284.82751500000035,
                    "velocity": 0.3937007874015748,
                    "duration": 0.1724137499999756
                },
                {
                    "name": "A#5",
                    "midi": 82,
                    "time": 284.82751500000035,
                    "velocity": 0.47244094488188976,
                    "duration": 0.1724137499999756
                },
                {
                    "name": "E6",
                    "midi": 88,
                    "time": 284.9999287500003,
                    "velocity": 0.4881889763779528,
                    "duration": 0.1724137499999756
                },
                {
                    "name": "E5",
                    "midi": 76,
                    "time": 285.1723425000003,
                    "velocity": 0.3937007874015748,
                    "duration": 0.1724137499999756
                },
                {
                    "name": "G5",
                    "midi": 79,
                    "time": 285.1723425000003,
                    "velocity": 0.3937007874015748,
                    "duration": 0.1724137499999756
                },
                {
                    "name": "A#5",
                    "midi": 82,
                    "time": 285.1723425000003,
                    "velocity": 0.47244094488188976,
                    "duration": 0.1724137499999756
                },
                {
                    "name": "E6",
                    "midi": 88,
                    "time": 285.3447562500003,
                    "velocity": 0.4881889763779528,
                    "duration": 0.1724137499999756
                },
                {
                    "name": "E5",
                    "midi": 76,
                    "time": 285.51717000000025,
                    "velocity": 0.4330708661417323,
                    "duration": 0.22988500000002432
                },
                {
                    "name": "G5",
                    "midi": 79,
                    "time": 285.51717000000025,
                    "velocity": 0.5196850393700787,
                    "duration": 0.22988500000002432
                },
                {
                    "name": "E6",
                    "midi": 88,
                    "time": 285.7470550000003,
                    "velocity": 0.48031496062992124,
                    "duration": 0.22988500000002432
                },
                {
                    "name": "E5",
                    "midi": 76,
                    "time": 285.9769400000003,
                    "velocity": 0.4330708661417323,
                    "duration": 0.22988500000002432
                },
                {
                    "name": "G5",
                    "midi": 79,
                    "time": 285.9769400000003,
                    "velocity": 0.4330708661417323,
                    "duration": 0.22988500000002432
                },
                {
                    "name": "A#5",
                    "midi": 82,
                    "time": 285.9769400000003,
                    "velocity": 0.5196850393700787,
                    "duration": 0.22988500000002432
                },
                {
                    "name": "E6",
                    "midi": 88,
                    "time": 286.2068250000003,
                    "velocity": 0.48031496062992124,
                    "duration": 0.22988500000002432
                },
                {
                    "name": "E5",
                    "midi": 76,
                    "time": 286.43671000000035,
                    "velocity": 0.4409448818897638,
                    "duration": 0.22988500000002432
                },
                {
                    "name": "G5",
                    "midi": 79,
                    "time": 286.43671000000035,
                    "velocity": 0.4409448818897638,
                    "duration": 0.22988500000002432
                },
                {
                    "name": "A#5",
                    "midi": 82,
                    "time": 286.43671000000035,
                    "velocity": 0.5275590551181102,
                    "duration": 0.22988500000002432
                },
                {
                    "name": "E6",
                    "midi": 88,
                    "time": 286.66659500000037,
                    "velocity": 0.4881889763779528,
                    "duration": 0.22988500000002432
                },
                {
                    "name": "E5",
                    "midi": 76,
                    "time": 286.8964800000004,
                    "velocity": 0.44881889763779526,
                    "duration": 0.22988500000002432
                },
                {
                    "name": "G5",
                    "midi": 79,
                    "time": 286.8964800000004,
                    "velocity": 0.5354330708661418,
                    "duration": 0.22988500000002432
                },
                {
                    "name": "E6",
                    "midi": 88,
                    "time": 287.1263650000004,
                    "velocity": 0.49606299212598426,
                    "duration": 0.22988500000002432
                },
                {
                    "name": "E5",
                    "midi": 76,
                    "time": 287.35625000000044,
                    "velocity": 0.4566929133858268,
                    "duration": 0.22988500000002432
                },
                {
                    "name": "G5",
                    "midi": 79,
                    "time": 287.35625000000044,
                    "velocity": 0.4566929133858268,
                    "duration": 0.22988500000002432
                },
                {
                    "name": "C6",
                    "midi": 84,
                    "time": 287.35625000000044,
                    "velocity": 0.5433070866141733,
                    "duration": 0.22988500000002432
                },
                {
                    "name": "E6",
                    "midi": 88,
                    "time": 287.58613500000047,
                    "velocity": 0.49606299212598426,
                    "duration": 0.22988500000002432
                },
                {
                    "name": "E5",
                    "midi": 76,
                    "time": 287.8160200000005,
                    "velocity": 0.4566929133858268,
                    "duration": 0.22988500000002432
                },
                {
                    "name": "G5",
                    "midi": 79,
                    "time": 287.8160200000005,
                    "velocity": 0.4566929133858268,
                    "duration": 0.22988500000002432
                },
                {
                    "name": "C6",
                    "midi": 84,
                    "time": 287.8160200000005,
                    "velocity": 0.5433070866141733,
                    "duration": 0.22988500000002432
                },
                {
                    "name": "E6",
                    "midi": 88,
                    "time": 288.0459050000005,
                    "velocity": 0.49606299212598426,
                    "duration": 0.22988500000002432
                },
                {
                    "name": "E5",
                    "midi": 76,
                    "time": 288.27579000000054,
                    "velocity": 0.4645669291338583,
                    "duration": 0.22988500000002432
                },
                {
                    "name": "G5",
                    "midi": 79,
                    "time": 288.27579000000054,
                    "velocity": 0.5511811023622047,
                    "duration": 0.22988500000002432
                },
                {
                    "name": "E6",
                    "midi": 88,
                    "time": 288.50567500000056,
                    "velocity": 0.5039370078740157,
                    "duration": 0.22988500000002432
                },
                {
                    "name": "E5",
                    "midi": 76,
                    "time": 288.7355600000006,
                    "velocity": 0.47244094488188976,
                    "duration": 0.22988500000002432
                },
                {
                    "name": "G5",
                    "midi": 79,
                    "time": 288.7355600000006,
                    "velocity": 0.47244094488188976,
                    "duration": 0.22988500000002432
                },
                {
                    "name": "C#6",
                    "midi": 85,
                    "time": 288.7355600000006,
                    "velocity": 0.5590551181102362,
                    "duration": 0.22988500000002432
                },
                {
                    "name": "E6",
                    "midi": 88,
                    "time": 288.9654450000006,
                    "velocity": 0.5039370078740157,
                    "duration": 0.22988500000002432
                },
                {
                    "name": "E5",
                    "midi": 76,
                    "time": 289.19533000000064,
                    "velocity": 0.48031496062992124,
                    "duration": 0.22988500000002432
                },
                {
                    "name": "G5",
                    "midi": 79,
                    "time": 289.19533000000064,
                    "velocity": 0.48031496062992124,
                    "duration": 0.22988500000002432
                },
                {
                    "name": "C#6",
                    "midi": 85,
                    "time": 289.19533000000064,
                    "velocity": 0.5669291338582677,
                    "duration": 0.22988500000002432
                },
                {
                    "name": "E6",
                    "midi": 88,
                    "time": 289.42521500000066,
                    "velocity": 0.5118110236220472,
                    "duration": 0.22988500000002432
                },
                {
                    "name": "F5",
                    "midi": 77,
                    "time": 289.6551000000007,
                    "velocity": 0.4881889763779528,
                    "duration": 0.22988500000002432
                },
                {
                    "name": "A5",
                    "midi": 81,
                    "time": 289.6551000000007,
                    "velocity": 0.5669291338582677,
                    "duration": 0.22988500000002432
                },
                {
                    "name": "F6",
                    "midi": 89,
                    "time": 289.8849850000007,
                    "velocity": 0.5275590551181102,
                    "duration": 0.22988500000002432
                },
                {
                    "name": "F5",
                    "midi": 77,
                    "time": 290.11487000000074,
                    "velocity": 0.49606299212598426,
                    "duration": 0.22988500000002432
                },
                {
                    "name": "A5",
                    "midi": 81,
                    "time": 290.11487000000074,
                    "velocity": 0.49606299212598426,
                    "duration": 0.22988500000002432
                },
                {
                    "name": "F6",
                    "midi": 89,
                    "time": 290.34475500000076,
                    "velocity": 0.5275590551181102,
                    "duration": 0.22988500000002432
                },
                {
                    "name": "F5",
                    "midi": 77,
                    "time": 290.5746400000008,
                    "velocity": 0.49606299212598426,
                    "duration": 0.22988500000002432
                },
                {
                    "name": "A5",
                    "midi": 81,
                    "time": 290.5746400000008,
                    "velocity": 0.49606299212598426,
                    "duration": 0.22988500000002432
                },
                {
                    "name": "F6",
                    "midi": 89,
                    "time": 290.8045250000008,
                    "velocity": 0.5354330708661418,
                    "duration": 0.22988500000002432
                },
                {
                    "name": "E5",
                    "midi": 76,
                    "time": 291.03441000000083,
                    "velocity": 0.4881889763779528,
                    "duration": 0.22988500000002432
                },
                {
                    "name": "E6",
                    "midi": 88,
                    "time": 291.26429500000086,
                    "velocity": 0.5275590551181102,
                    "duration": 0.22988500000002432
                },
                {
                    "name": "E5",
                    "midi": 76,
                    "time": 291.4941800000009,
                    "velocity": 0.49606299212598426,
                    "duration": 0.22988500000002432
                },
                {
                    "name": "C#6",
                    "midi": 85,
                    "time": 291.4941800000009,
                    "velocity": 0.49606299212598426,
                    "duration": 0.22988500000002432
                },
                {
                    "name": "E6",
                    "midi": 88,
                    "time": 291.7240650000009,
                    "velocity": 0.5275590551181102,
                    "duration": 0.22988500000002432
                },
                {
                    "name": "E5",
                    "midi": 76,
                    "time": 291.95395000000093,
                    "velocity": 0.49606299212598426,
                    "duration": 0.22988500000002432
                },
                {
                    "name": "C#6",
                    "midi": 85,
                    "time": 291.95395000000093,
                    "velocity": 0.49606299212598426,
                    "duration": 0.22988500000002432
                },
                {
                    "name": "E6",
                    "midi": 88,
                    "time": 292.18383500000095,
                    "velocity": 0.5354330708661418,
                    "duration": 0.22988500000002432
                },
                {
                    "name": "D#5",
                    "midi": 75,
                    "time": 292.413720000001,
                    "velocity": 0.4881889763779528,
                    "duration": 0.22988500000002432
                },
                {
                    "name": "D#6",
                    "midi": 87,
                    "time": 292.643605000001,
                    "velocity": 0.5275590551181102,
                    "duration": 0.22988500000002432
                },
                {
                    "name": "D#5",
                    "midi": 75,
                    "time": 292.873490000001,
                    "velocity": 0.49606299212598426,
                    "duration": 0.22988500000002432
                },
                {
                    "name": "C6",
                    "midi": 84,
                    "time": 292.873490000001,
                    "velocity": 0.49606299212598426,
                    "duration": 0.22988500000002432
                },
                {
                    "name": "D#6",
                    "midi": 87,
                    "time": 293.10337500000105,
                    "velocity": 0.5275590551181102,
                    "duration": 0.22988500000002432
                },
                {
                    "name": "D#5",
                    "midi": 75,
                    "time": 293.3332600000011,
                    "velocity": 0.49606299212598426,
                    "duration": 0.22988500000002432
                },
                {
                    "name": "C6",
                    "midi": 84,
                    "time": 293.3332600000011,
                    "velocity": 0.49606299212598426,
                    "duration": 0.22988500000002432
                },
                {
                    "name": "D#6",
                    "midi": 87,
                    "time": 293.5631450000011,
                    "velocity": 0.5354330708661418,
                    "duration": 0.22988500000002432
                },
                {
                    "name": "D5",
                    "midi": 74,
                    "time": 293.7930300000011,
                    "velocity": 0.4881889763779528,
                    "duration": 0.22988500000002432
                },
                {
                    "name": "D6",
                    "midi": 86,
                    "time": 294.02291500000115,
                    "velocity": 0.5275590551181102,
                    "duration": 0.22988500000002432
                },
                {
                    "name": "D5",
                    "midi": 74,
                    "time": 294.2528000000012,
                    "velocity": 0.49606299212598426,
                    "duration": 0.22988500000002432
                },
                {
                    "name": "B5",
                    "midi": 83,
                    "time": 294.2528000000012,
                    "velocity": 0.49606299212598426,
                    "duration": 0.22988500000002432
                },
                {
                    "name": "D6",
                    "midi": 86,
                    "time": 294.4826850000012,
                    "velocity": 0.5275590551181102,
                    "duration": 0.22988500000002432
                },
                {
                    "name": "D5",
                    "midi": 74,
                    "time": 294.7125700000012,
                    "velocity": 0.49606299212598426,
                    "duration": 0.22988500000002432
                },
                {
                    "name": "B5",
                    "midi": 83,
                    "time": 294.7125700000012,
                    "velocity": 0.49606299212598426,
                    "duration": 0.22988500000002432
                },
                {
                    "name": "D6",
                    "midi": 86,
                    "time": 294.94245500000125,
                    "velocity": 0.5354330708661418,
                    "duration": 0.22988500000002432
                },
                {
                    "name": "C#5",
                    "midi": 73,
                    "time": 295.17234000000127,
                    "velocity": 0.4881889763779528,
                    "duration": 0.22988500000002432
                },
                {
                    "name": "C#6",
                    "midi": 85,
                    "time": 295.4022250000013,
                    "velocity": 0.5275590551181102,
                    "duration": 0.22988500000002432
                },
                {
                    "name": "C#5",
                    "midi": 73,
                    "time": 295.6321100000013,
                    "velocity": 0.49606299212598426,
                    "duration": 0.22988500000002432
                },
                {
                    "name": "A#5",
                    "midi": 82,
                    "time": 295.6321100000013,
                    "velocity": 0.49606299212598426,
                    "duration": 0.22988500000002432
                },
                {
                    "name": "C#6",
                    "midi": 85,
                    "time": 295.86199500000134,
                    "velocity": 0.5275590551181102,
                    "duration": 0.22988500000002432
                },
                {
                    "name": "C#5",
                    "midi": 73,
                    "time": 296.09188000000137,
                    "velocity": 0.49606299212598426,
                    "duration": 0.22988500000002432
                },
                {
                    "name": "A#5",
                    "midi": 82,
                    "time": 296.09188000000137,
                    "velocity": 0.49606299212598426,
                    "duration": 0.22988500000002432
                },
                {
                    "name": "C#6",
                    "midi": 85,
                    "time": 296.3217650000014,
                    "velocity": 0.5354330708661418,
                    "duration": 0.22988500000002432
                },
                {
                    "name": "C5",
                    "midi": 72,
                    "time": 296.5516500000014,
                    "velocity": 0.4881889763779528,
                    "duration": 0.22988500000002432
                },
                {
                    "name": "C6",
                    "midi": 84,
                    "time": 296.78153500000144,
                    "velocity": 0.5275590551181102,
                    "duration": 0.22988500000002432
                },
                {
                    "name": "C5",
                    "midi": 72,
                    "time": 297.01142000000146,
                    "velocity": 0.49606299212598426,
                    "duration": 0.22988500000002432
                },
                {
                    "name": "A5",
                    "midi": 81,
                    "time": 297.01142000000146,
                    "velocity": 0.49606299212598426,
                    "duration": 0.22988500000002432
                },
                {
                    "name": "C6",
                    "midi": 84,
                    "time": 297.2413050000015,
                    "velocity": 0.5275590551181102,
                    "duration": 0.22988500000002432
                },
                {
                    "name": "C5",
                    "midi": 72,
                    "time": 297.4711900000015,
                    "velocity": 0.49606299212598426,
                    "duration": 0.22988500000002432
                },
                {
                    "name": "A5",
                    "midi": 81,
                    "time": 297.4711900000015,
                    "velocity": 0.49606299212598426,
                    "duration": 0.22988500000002432
                },
                {
                    "name": "C6",
                    "midi": 84,
                    "time": 297.70107500000154,
                    "velocity": 0.5354330708661418,
                    "duration": 0.22988500000002432
                },
                {
                    "name": "F#5",
                    "midi": 78,
                    "time": 297.93096000000156,
                    "velocity": 0.5118110236220472,
                    "duration": 0.1724137499999756
                },
                {
                    "name": "A5",
                    "midi": 81,
                    "time": 297.93096000000156,
                    "velocity": 0.5118110236220472,
                    "duration": 0.1724137499999756
                },
                {
                    "name": "C6",
                    "midi": 84,
                    "time": 297.93096000000156,
                    "velocity": 0.6141732283464567,
                    "duration": 0.1724137499999756
                },
                {
                    "name": "F#6",
                    "midi": 90,
                    "time": 298.10337375000154,
                    "velocity": 0.5118110236220472,
                    "duration": 0.1724137499999756
                },
                {
                    "name": "F#5",
                    "midi": 78,
                    "time": 298.2757875000015,
                    "velocity": 0.4330708661417323,
                    "duration": 0.1724137499999756
                },
                {
                    "name": "A5",
                    "midi": 81,
                    "time": 298.2757875000015,
                    "velocity": 0.4330708661417323,
                    "duration": 0.1724137499999756
                },
                {
                    "name": "C6",
                    "midi": 84,
                    "time": 298.2757875000015,
                    "velocity": 0.5118110236220472,
                    "duration": 0.1724137499999756
                },
                {
                    "name": "F#6",
                    "midi": 90,
                    "time": 298.4482012500015,
                    "velocity": 0.49606299212598426,
                    "duration": 0.1724137499999756
                },
                {
                    "name": "F#5",
                    "midi": 78,
                    "time": 298.62061500000146,
                    "velocity": 0.4330708661417323,
                    "duration": 0.1724137499999756
                },
                {
                    "name": "A5",
                    "midi": 81,
                    "time": 298.62061500000146,
                    "velocity": 0.4330708661417323,
                    "duration": 0.1724137499999756
                },
                {
                    "name": "C6",
                    "midi": 84,
                    "time": 298.62061500000146,
                    "velocity": 0.5118110236220472,
                    "duration": 0.1724137499999756
                },
                {
                    "name": "F#6",
                    "midi": 90,
                    "time": 298.79302875000144,
                    "velocity": 0.5039370078740157,
                    "duration": 0.1724137499999756
                },
                {
                    "name": "F#5",
                    "midi": 78,
                    "time": 298.9654425000014,
                    "velocity": 0.4330708661417323,
                    "duration": 0.1724137499999756
                },
                {
                    "name": "A5",
                    "midi": 81,
                    "time": 298.9654425000014,
                    "velocity": 0.4330708661417323,
                    "duration": 0.1724137499999756
                },
                {
                    "name": "C6",
                    "midi": 84,
                    "time": 298.9654425000014,
                    "velocity": 0.5118110236220472,
                    "duration": 0.1724137499999756
                },
                {
                    "name": "F#6",
                    "midi": 90,
                    "time": 299.1378562500014,
                    "velocity": 0.5039370078740157,
                    "duration": 0.1724137499999756
                },
                {
                    "name": "F#5",
                    "midi": 78,
                    "time": 299.31027000000137,
                    "velocity": 0.4566929133858268,
                    "duration": 0.1724137499999756
                },
                {
                    "name": "A5",
                    "midi": 81,
                    "time": 299.31027000000137,
                    "velocity": 0.4566929133858268,
                    "duration": 0.1724137499999756
                },
                {
                    "name": "C6",
                    "midi": 84,
                    "time": 299.31027000000137,
                    "velocity": 0.5511811023622047,
                    "duration": 0.1724137499999756
                },
                {
                    "name": "F#6",
                    "midi": 90,
                    "time": 299.48268375000134,
                    "velocity": 0.49606299212598426,
                    "duration": 0.1724137499999756
                },
                {
                    "name": "F#5",
                    "midi": 78,
                    "time": 299.6550975000013,
                    "velocity": 0.4015748031496063,
                    "duration": 0.1724137499999756
                },
                {
                    "name": "A5",
                    "midi": 81,
                    "time": 299.6550975000013,
                    "velocity": 0.4015748031496063,
                    "duration": 0.1724137499999756
                },
                {
                    "name": "C6",
                    "midi": 84,
                    "time": 299.6550975000013,
                    "velocity": 0.48031496062992124,
                    "duration": 0.1724137499999756
                },
                {
                    "name": "F#6",
                    "midi": 90,
                    "time": 299.8275112500013,
                    "velocity": 0.48031496062992124,
                    "duration": 0.1724137499999756
                },
                {
                    "name": "F#5",
                    "midi": 78,
                    "time": 299.99992500000127,
                    "velocity": 0.3937007874015748,
                    "duration": 0.1724137499999756
                },
                {
                    "name": "A5",
                    "midi": 81,
                    "time": 299.99992500000127,
                    "velocity": 0.3937007874015748,
                    "duration": 0.1724137499999756
                },
                {
                    "name": "C6",
                    "midi": 84,
                    "time": 299.99992500000127,
                    "velocity": 0.47244094488188976,
                    "duration": 0.1724137499999756
                },
                {
                    "name": "F#6",
                    "midi": 90,
                    "time": 300.17233875000124,
                    "velocity": 0.48031496062992124,
                    "duration": 0.1724137499999756
                },
                {
                    "name": "F#5",
                    "midi": 78,
                    "time": 300.3447525000012,
                    "velocity": 0.3937007874015748,
                    "duration": 0.1724137499999756
                },
                {
                    "name": "A5",
                    "midi": 81,
                    "time": 300.3447525000012,
                    "velocity": 0.3937007874015748,
                    "duration": 0.1724137499999756
                },
                {
                    "name": "C6",
                    "midi": 84,
                    "time": 300.3447525000012,
                    "velocity": 0.47244094488188976,
                    "duration": 0.1724137499999756
                },
                {
                    "name": "F#6",
                    "midi": 90,
                    "time": 300.5171662500012,
                    "velocity": 0.4881889763779528,
                    "duration": 0.1724137499999756
                },
                {
                    "name": "F#5",
                    "midi": 78,
                    "time": 300.6895800000012,
                    "velocity": 0.48031496062992124,
                    "duration": 0.1724137499999756
                },
                {
                    "name": "A5",
                    "midi": 81,
                    "time": 300.6895800000012,
                    "velocity": 0.48031496062992124,
                    "duration": 0.1724137499999756
                },
                {
                    "name": "C6",
                    "midi": 84,
                    "time": 300.6895800000012,
                    "velocity": 0.5669291338582677,
                    "duration": 0.1724137499999756
                },
                {
                    "name": "F#6",
                    "midi": 90,
                    "time": 300.86199375000115,
                    "velocity": 0.4881889763779528,
                    "duration": 0.1724137499999756
                },
                {
                    "name": "F#5",
                    "midi": 78,
                    "time": 301.0344075000011,
                    "velocity": 0.3937007874015748,
                    "duration": 0.1724137499999756
                },
                {
                    "name": "A5",
                    "midi": 81,
                    "time": 301.0344075000011,
                    "velocity": 0.3937007874015748,
                    "duration": 0.1724137499999756
                },
                {
                    "name": "C6",
                    "midi": 84,
                    "time": 301.0344075000011,
                    "velocity": 0.47244094488188976,
                    "duration": 0.1724137499999756
                },
                {
                    "name": "F#6",
                    "midi": 90,
                    "time": 301.2068212500011,
                    "velocity": 0.4881889763779528,
                    "duration": 0.1724137499999756
                },
                {
                    "name": "F#5",
                    "midi": 78,
                    "time": 301.3792350000011,
                    "velocity": 0.3937007874015748,
                    "duration": 0.1724137499999756
                },
                {
                    "name": "A5",
                    "midi": 81,
                    "time": 301.3792350000011,
                    "velocity": 0.3937007874015748,
                    "duration": 0.1724137499999756
                },
                {
                    "name": "C6",
                    "midi": 84,
                    "time": 301.3792350000011,
                    "velocity": 0.47244094488188976,
                    "duration": 0.1724137499999756
                },
                {
                    "name": "F#6",
                    "midi": 90,
                    "time": 301.55164875000105,
                    "velocity": 0.4881889763779528,
                    "duration": 0.1724137499999756
                },
                {
                    "name": "F#5",
                    "midi": 78,
                    "time": 301.724062500001,
                    "velocity": 0.3937007874015748,
                    "duration": 0.1724137499999756
                },
                {
                    "name": "A5",
                    "midi": 81,
                    "time": 301.724062500001,
                    "velocity": 0.3937007874015748,
                    "duration": 0.1724137499999756
                },
                {
                    "name": "C6",
                    "midi": 84,
                    "time": 301.724062500001,
                    "velocity": 0.47244094488188976,
                    "duration": 0.1724137499999756
                },
                {
                    "name": "F#6",
                    "midi": 90,
                    "time": 301.896476250001,
                    "velocity": 0.4881889763779528,
                    "duration": 0.1724137499999756
                },
                {
                    "name": "F#5",
                    "midi": 78,
                    "time": 302.068890000001,
                    "velocity": 0.4330708661417323,
                    "duration": 0.22988500000002432
                },
                {
                    "name": "A5",
                    "midi": 81,
                    "time": 302.068890000001,
                    "velocity": 0.5196850393700787,
                    "duration": 0.22988500000002432
                },
                {
                    "name": "F#6",
                    "midi": 90,
                    "time": 302.298775000001,
                    "velocity": 0.48031496062992124,
                    "duration": 0.22988500000002432
                },
                {
                    "name": "F#5",
                    "midi": 78,
                    "time": 302.528660000001,
                    "velocity": 0.4330708661417323,
                    "duration": 0.22988500000002432
                },
                {
                    "name": "A5",
                    "midi": 81,
                    "time": 302.528660000001,
                    "velocity": 0.4330708661417323,
                    "duration": 0.22988500000002432
                },
                {
                    "name": "C6",
                    "midi": 84,
                    "time": 302.528660000001,
                    "velocity": 0.5196850393700787,
                    "duration": 0.22988500000002432
                },
                {
                    "name": "F#6",
                    "midi": 90,
                    "time": 302.75854500000105,
                    "velocity": 0.48031496062992124,
                    "duration": 0.22988500000002432
                },
                {
                    "name": "F#5",
                    "midi": 78,
                    "time": 302.9884300000011,
                    "velocity": 0.4409448818897638,
                    "duration": 0.22988500000002432
                },
                {
                    "name": "A5",
                    "midi": 81,
                    "time": 302.9884300000011,
                    "velocity": 0.4409448818897638,
                    "duration": 0.22988500000002432
                },
                {
                    "name": "C6",
                    "midi": 84,
                    "time": 302.9884300000011,
                    "velocity": 0.5275590551181102,
                    "duration": 0.22988500000002432
                },
                {
                    "name": "F#6",
                    "midi": 90,
                    "time": 303.2183150000011,
                    "velocity": 0.4881889763779528,
                    "duration": 0.22988500000002432
                },
                {
                    "name": "F#5",
                    "midi": 78,
                    "time": 303.4482000000011,
                    "velocity": 0.44881889763779526,
                    "duration": 0.22988500000002432
                },
                {
                    "name": "A5",
                    "midi": 81,
                    "time": 303.4482000000011,
                    "velocity": 0.5354330708661418,
                    "duration": 0.22988500000002432
                },
                {
                    "name": "F#6",
                    "midi": 90,
                    "time": 303.67808500000115,
                    "velocity": 0.49606299212598426,
                    "duration": 0.22988500000002432
                },
                {
                    "name": "F#5",
                    "midi": 78,
                    "time": 303.90797000000117,
                    "velocity": 0.4566929133858268,
                    "duration": 0.22988500000002432
                },
                {
                    "name": "A5",
                    "midi": 81,
                    "time": 303.90797000000117,
                    "velocity": 0.4566929133858268,
                    "duration": 0.22988500000002432
                },
                {
                    "name": "D6",
                    "midi": 86,
                    "time": 303.90797000000117,
                    "velocity": 0.5433070866141733,
                    "duration": 0.22988500000002432
                },
                {
                    "name": "F#6",
                    "midi": 90,
                    "time": 304.1378550000012,
                    "velocity": 0.49606299212598426,
                    "duration": 0.22988500000002432
                },
                {
                    "name": "F#5",
                    "midi": 78,
                    "time": 304.3677400000012,
                    "velocity": 0.4566929133858268,
                    "duration": 0.22988500000002432
                },
                {
                    "name": "A5",
                    "midi": 81,
                    "time": 304.3677400000012,
                    "velocity": 0.4566929133858268,
                    "duration": 0.22988500000002432
                },
                {
                    "name": "D6",
                    "midi": 86,
                    "time": 304.3677400000012,
                    "velocity": 0.5433070866141733,
                    "duration": 0.22988500000002432
                },
                {
                    "name": "F#6",
                    "midi": 90,
                    "time": 304.59762500000124,
                    "velocity": 0.49606299212598426,
                    "duration": 0.22988500000002432
                },
                {
                    "name": "F#5",
                    "midi": 78,
                    "time": 304.82751000000127,
                    "velocity": 0.4645669291338583,
                    "duration": 0.22988500000002432
                },
                {
                    "name": "A5",
                    "midi": 81,
                    "time": 304.82751000000127,
                    "velocity": 0.5511811023622047,
                    "duration": 0.22988500000002432
                },
                {
                    "name": "F#6",
                    "midi": 90,
                    "time": 305.0573950000013,
                    "velocity": 0.5039370078740157,
                    "duration": 0.22988500000002432
                },
                {
                    "name": "F#5",
                    "midi": 78,
                    "time": 305.2872800000013,
                    "velocity": 0.47244094488188976,
                    "duration": 0.22988500000002432
                },
                {
                    "name": "A5",
                    "midi": 81,
                    "time": 305.2872800000013,
                    "velocity": 0.47244094488188976,
                    "duration": 0.22988500000002432
                },
                {
                    "name": "D#6",
                    "midi": 87,
                    "time": 305.2872800000013,
                    "velocity": 0.5590551181102362,
                    "duration": 0.22988500000002432
                },
                {
                    "name": "F#6",
                    "midi": 90,
                    "time": 305.51716500000134,
                    "velocity": 0.5039370078740157,
                    "duration": 0.22988500000002432
                },
                {
                    "name": "F#5",
                    "midi": 78,
                    "time": 305.74705000000137,
                    "velocity": 0.48031496062992124,
                    "duration": 0.22988500000002432
                },
                {
                    "name": "A5",
                    "midi": 81,
                    "time": 305.74705000000137,
                    "velocity": 0.48031496062992124,
                    "duration": 0.22988500000002432
                },
                {
                    "name": "D#6",
                    "midi": 87,
                    "time": 305.74705000000137,
                    "velocity": 0.5669291338582677,
                    "duration": 0.22988500000002432
                },
                {
                    "name": "F#6",
                    "midi": 90,
                    "time": 305.9769350000014,
                    "velocity": 0.5118110236220472,
                    "duration": 0.22988500000002432
                },
                {
                    "name": "G5",
                    "midi": 79,
                    "time": 306.2068200000014,
                    "velocity": 0.4881889763779528,
                    "duration": 0.22988500000002432
                },
                {
                    "name": "B5",
                    "midi": 83,
                    "time": 306.2068200000014,
                    "velocity": 0.5669291338582677,
                    "duration": 0.22988500000002432
                },
                {
                    "name": "G5",
                    "midi": 79,
                    "time": 306.66659000000146,
                    "velocity": 0.49606299212598426,
                    "duration": 0.22988500000002432
                },
                {
                    "name": "B5",
                    "midi": 83,
                    "time": 306.66659000000146,
                    "velocity": 0.49606299212598426,
                    "duration": 0.22988500000002432
                },
                {
                    "name": "G6",
                    "midi": 91,
                    "time": 306.8964750000015,
                    "velocity": 0.5275590551181102,
                    "duration": 0.45977000000004864
                },
                {
                    "name": "G5",
                    "midi": 79,
                    "time": 307.1263600000015,
                    "velocity": 0.49606299212598426,
                    "duration": 0.22988500000002432
                },
                {
                    "name": "B5",
                    "midi": 83,
                    "time": 307.1263600000015,
                    "velocity": 0.49606299212598426,
                    "duration": 0.22988500000002432
                },
                {
                    "name": "G6",
                    "midi": 91,
                    "time": 307.35624500000154,
                    "velocity": 0.5354330708661418,
                    "duration": 0.22988500000002432
                },
                {
                    "name": "D6",
                    "midi": 86,
                    "time": 307.58613000000156,
                    "velocity": 0.4881889763779528,
                    "duration": 0.1724137499999756
                },
                {
                    "name": "G5",
                    "midi": 79,
                    "time": 307.58613000000156,
                    "velocity": 0.4881889763779528,
                    "duration": 0.22988499999996748
                },
                {
                    "name": "F5",
                    "midi": 77,
                    "time": 307.58613000000156,
                    "velocity": 0.4881889763779528,
                    "duration": 0.22988499999996748
                },
                {
                    "name": "G5",
                    "midi": 79,
                    "time": 308.04590000000155,
                    "velocity": 0.4881889763779528,
                    "duration": 0.22988500000002432
                },
                {
                    "name": "F5",
                    "midi": 77,
                    "time": 308.04590000000155,
                    "velocity": 0.49606299212598426,
                    "duration": 0.22988500000002432
                },
                {
                    "name": "D6",
                    "midi": 86,
                    "time": 308.04590000000155,
                    "velocity": 0.49606299212598426,
                    "duration": 0.22988500000002432
                },
                {
                    "name": "F6",
                    "midi": 89,
                    "time": 308.2757850000016,
                    "velocity": 0.5275590551181102,
                    "duration": 0.45977000000004864
                },
                {
                    "name": "G5",
                    "midi": 79,
                    "time": 308.5056700000016,
                    "velocity": 0.49606299212598426,
                    "duration": 0.22988500000002432
                },
                {
                    "name": "F5",
                    "midi": 77,
                    "time": 308.5056700000016,
                    "velocity": 0.49606299212598426,
                    "duration": 0.22988500000002432
                },
                {
                    "name": "D6",
                    "midi": 86,
                    "time": 308.5056700000016,
                    "velocity": 0.49606299212598426,
                    "duration": 0.22988500000002432
                },
                {
                    "name": "F6",
                    "midi": 89,
                    "time": 308.7355550000016,
                    "velocity": 0.5354330708661418,
                    "duration": 0.22988500000002432
                },
                {
                    "name": "D#5",
                    "midi": 75,
                    "time": 308.96544000000165,
                    "velocity": 0.4881889763779528,
                    "duration": 0.22988500000002432
                },
                {
                    "name": "G5",
                    "midi": 79,
                    "time": 308.96544000000165,
                    "velocity": 0.4881889763779528,
                    "duration": 0.22988500000002432
                },
                {
                    "name": "D#5",
                    "midi": 75,
                    "time": 309.4252100000017,
                    "velocity": 0.49606299212598426,
                    "duration": 0.22988500000002432
                },
                {
                    "name": "G5",
                    "midi": 79,
                    "time": 309.4252100000017,
                    "velocity": 0.49606299212598426,
                    "duration": 0.22988500000002432
                },
                {
                    "name": "D#6",
                    "midi": 87,
                    "time": 309.6550950000017,
                    "velocity": 0.5275590551181102,
                    "duration": 0.45977000000004864
                },
                {
                    "name": "D#5",
                    "midi": 75,
                    "time": 309.88498000000175,
                    "velocity": 0.49606299212598426,
                    "duration": 0.22988500000002432
                },
                {
                    "name": "G5",
                    "midi": 79,
                    "time": 309.88498000000175,
                    "velocity": 0.49606299212598426,
                    "duration": 0.22988500000002432
                },
                {
                    "name": "D#6",
                    "midi": 87,
                    "time": 310.11486500000177,
                    "velocity": 0.5354330708661418,
                    "duration": 0.22988500000002432
                },
                {
                    "name": "C5",
                    "midi": 72,
                    "time": 310.3447500000018,
                    "velocity": 0.4881889763779528,
                    "duration": 0.22988500000002432
                },
                {
                    "name": "D#5",
                    "midi": 75,
                    "time": 310.3447500000018,
                    "velocity": 0.4881889763779528,
                    "duration": 0.22988500000002432
                },
                {
                    "name": "C5",
                    "midi": 72,
                    "time": 310.80452000000184,
                    "velocity": 0.49606299212598426,
                    "duration": 0.22988500000002432
                },
                {
                    "name": "D#5",
                    "midi": 75,
                    "time": 310.80452000000184,
                    "velocity": 0.49606299212598426,
                    "duration": 0.22988500000002432
                },
                {
                    "name": "C6",
                    "midi": 84,
                    "time": 311.03440500000187,
                    "velocity": 0.5275590551181102,
                    "duration": 0.45977000000004864
                },
                {
                    "name": "C5",
                    "midi": 72,
                    "time": 311.2642900000019,
                    "velocity": 0.49606299212598426,
                    "duration": 0.22988500000002432
                },
                {
                    "name": "D#5",
                    "midi": 75,
                    "time": 311.2642900000019,
                    "velocity": 0.49606299212598426,
                    "duration": 0.22988500000002432
                },
                {
                    "name": "C6",
                    "midi": 84,
                    "time": 311.4941750000019,
                    "velocity": 0.5354330708661418,
                    "duration": 0.22988500000002432
                },
                {
                    "name": "D#5",
                    "midi": 75,
                    "time": 311.72406000000194,
                    "velocity": 0.4881889763779528,
                    "duration": 0.22988500000002432
                },
                {
                    "name": "G5",
                    "midi": 79,
                    "time": 311.72406000000194,
                    "velocity": 0.4881889763779528,
                    "duration": 0.22988500000002432
                },
                {
                    "name": "D#5",
                    "midi": 75,
                    "time": 312.183830000002,
                    "velocity": 0.49606299212598426,
                    "duration": 0.22988500000002432
                },
                {
                    "name": "G5",
                    "midi": 79,
                    "time": 312.183830000002,
                    "velocity": 0.49606299212598426,
                    "duration": 0.22988500000002432
                },
                {
                    "name": "D#6",
                    "midi": 87,
                    "time": 312.413715000002,
                    "velocity": 0.5275590551181102,
                    "duration": 0.45977000000004864
                },
                {
                    "name": "D#5",
                    "midi": 75,
                    "time": 312.64360000000204,
                    "velocity": 0.49606299212598426,
                    "duration": 0.22988500000002432
                },
                {
                    "name": "G5",
                    "midi": 79,
                    "time": 312.64360000000204,
                    "velocity": 0.49606299212598426,
                    "duration": 0.22988500000002432
                },
                {
                    "name": "D#6",
                    "midi": 87,
                    "time": 312.87348500000206,
                    "velocity": 0.5354330708661418,
                    "duration": 0.22988500000002432
                },
                {
                    "name": "C5",
                    "midi": 72,
                    "time": 313.1033700000021,
                    "velocity": 0.4881889763779528,
                    "duration": 0.22988500000002432
                },
                {
                    "name": "D#5",
                    "midi": 75,
                    "time": 313.1033700000021,
                    "velocity": 0.4881889763779528,
                    "duration": 0.22988500000002432
                },
                {
                    "name": "C5",
                    "midi": 72,
                    "time": 313.56314000000214,
                    "velocity": 0.49606299212598426,
                    "duration": 0.22988500000002432
                },
                {
                    "name": "D#5",
                    "midi": 75,
                    "time": 313.56314000000214,
                    "velocity": 0.49606299212598426,
                    "duration": 0.22988500000002432
                },
                {
                    "name": "C6",
                    "midi": 84,
                    "time": 313.79302500000216,
                    "velocity": 0.5275590551181102,
                    "duration": 0.45977000000004864
                },
                {
                    "name": "C5",
                    "midi": 72,
                    "time": 314.0229100000022,
                    "velocity": 0.49606299212598426,
                    "duration": 0.22988500000002432
                },
                {
                    "name": "D#5",
                    "midi": 75,
                    "time": 314.0229100000022,
                    "velocity": 0.49606299212598426,
                    "duration": 0.22988500000002432
                },
                {
                    "name": "C6",
                    "midi": 84,
                    "time": 314.2527950000022,
                    "velocity": 0.5354330708661418,
                    "duration": 0.22988500000002432
                },
                {
                    "name": "F5",
                    "midi": 77,
                    "time": 314.48268000000223,
                    "velocity": 0.4881889763779528,
                    "duration": 0.22988500000002432
                },
                {
                    "name": "A5",
                    "midi": 81,
                    "time": 314.48268000000223,
                    "velocity": 0.5669291338582677,
                    "duration": 0.22988500000002432
                },
                {
                    "name": "F5",
                    "midi": 77,
                    "time": 314.9424500000023,
                    "velocity": 0.49606299212598426,
                    "duration": 0.22988500000002432
                },
                {
                    "name": "A5",
                    "midi": 81,
                    "time": 314.9424500000023,
                    "velocity": 0.49606299212598426,
                    "duration": 0.22988500000002432
                },
                {
                    "name": "F6",
                    "midi": 89,
                    "time": 315.1723350000023,
                    "velocity": 0.5275590551181102,
                    "duration": 0.45977000000004864
                },
                {
                    "name": "F5",
                    "midi": 77,
                    "time": 315.40222000000233,
                    "velocity": 0.49606299212598426,
                    "duration": 0.22988500000002432
                },
                {
                    "name": "A5",
                    "midi": 81,
                    "time": 315.40222000000233,
                    "velocity": 0.49606299212598426,
                    "duration": 0.22988500000002432
                },
                {
                    "name": "F6",
                    "midi": 89,
                    "time": 315.63210500000235,
                    "velocity": 0.5354330708661418,
                    "duration": 0.22988500000002432
                },
                {
                    "name": "C6",
                    "midi": 84,
                    "time": 315.8619900000024,
                    "velocity": 0.4881889763779528,
                    "duration": 0.22988500000002432
                },
                {
                    "name": "D#5",
                    "midi": 75,
                    "time": 315.8619900000024,
                    "velocity": 0.4881889763779528,
                    "duration": 0.22988500000002432
                },
                {
                    "name": "D#5",
                    "midi": 75,
                    "time": 316.3217600000024,
                    "velocity": 0.49606299212598426,
                    "duration": 0.22988500000002432
                },
                {
                    "name": "C6",
                    "midi": 84,
                    "time": 316.3217600000024,
                    "velocity": 0.49606299212598426,
                    "duration": 0.22988500000002432
                },
                {
                    "name": "D#6",
                    "midi": 87,
                    "time": 316.55164500000245,
                    "velocity": 0.5275590551181102,
                    "duration": 0.45977000000004864
                },
                {
                    "name": "D#5",
                    "midi": 75,
                    "time": 316.7815300000025,
                    "velocity": 0.49606299212598426,
                    "duration": 0.22988500000002432
                },
                {
                    "name": "C6",
                    "midi": 84,
                    "time": 316.7815300000025,
                    "velocity": 0.49606299212598426,
                    "duration": 0.22988500000002432
                },
                {
                    "name": "D#6",
                    "midi": 87,
                    "time": 317.0114150000025,
                    "velocity": 0.5354330708661418,
                    "duration": 0.22988500000002432
                },
                {
                    "name": "D5",
                    "midi": 74,
                    "time": 317.2413000000025,
                    "velocity": 0.4881889763779528,
                    "duration": 0.22988500000002432
                },
                {
                    "name": "F5",
                    "midi": 77,
                    "time": 317.2413000000025,
                    "velocity": 0.4881889763779528,
                    "duration": 0.22988500000002432
                },
                {
                    "name": "D5",
                    "midi": 74,
                    "time": 317.7010700000026,
                    "velocity": 0.49606299212598426,
                    "duration": 0.22988500000002432
                },
                {
                    "name": "F5",
                    "midi": 77,
                    "time": 317.7010700000026,
                    "velocity": 0.49606299212598426,
                    "duration": 0.22988500000002432
                },
                {
                    "name": "D6",
                    "midi": 86,
                    "time": 317.9309550000026,
                    "velocity": 0.5275590551181102,
                    "duration": 0.45977000000004864
                },
                {
                    "name": "D5",
                    "midi": 74,
                    "time": 318.1608400000026,
                    "velocity": 0.49606299212598426,
                    "duration": 0.22988500000002432
                },
                {
                    "name": "F5",
                    "midi": 77,
                    "time": 318.1608400000026,
                    "velocity": 0.49606299212598426,
                    "duration": 0.22988500000002432
                },
                {
                    "name": "D6",
                    "midi": 86,
                    "time": 318.39072500000265,
                    "velocity": 0.5354330708661418,
                    "duration": 0.22988500000002432
                },
                {
                    "name": "A#4",
                    "midi": 70,
                    "time": 318.62061000000267,
                    "velocity": 0.4881889763779528,
                    "duration": 0.22988500000002432
                },
                {
                    "name": "D5",
                    "midi": 74,
                    "time": 318.62061000000267,
                    "velocity": 0.4881889763779528,
                    "duration": 0.22988500000002432
                },
                {
                    "name": "A#4",
                    "midi": 70,
                    "time": 319.0803800000027,
                    "velocity": 0.49606299212598426,
                    "duration": 0.22988500000002432
                },
                {
                    "name": "D5",
                    "midi": 74,
                    "time": 319.0803800000027,
                    "velocity": 0.49606299212598426,
                    "duration": 0.22988500000002432
                },
                {
                    "name": "A#5",
                    "midi": 82,
                    "time": 319.31026500000274,
                    "velocity": 0.5275590551181102,
                    "duration": 0.45977000000004864
                },
                {
                    "name": "A#4",
                    "midi": 70,
                    "time": 319.54015000000277,
                    "velocity": 0.49606299212598426,
                    "duration": 0.22988500000002432
                },
                {
                    "name": "D5",
                    "midi": 74,
                    "time": 319.54015000000277,
                    "velocity": 0.49606299212598426,
                    "duration": 0.22988500000002432
                },
                {
                    "name": "A#5",
                    "midi": 82,
                    "time": 319.7700350000028,
                    "velocity": 0.5354330708661418,
                    "duration": 0.22988500000002432
                },
                {
                    "name": "D5",
                    "midi": 74,
                    "time": 319.9999200000028,
                    "velocity": 0.4881889763779528,
                    "duration": 0.22988500000002432
                },
                {
                    "name": "F5",
                    "midi": 77,
                    "time": 319.9999200000028,
                    "velocity": 0.4881889763779528,
                    "duration": 0.22988500000002432
                },
                {
                    "name": "D5",
                    "midi": 74,
                    "time": 320.45969000000287,
                    "velocity": 0.49606299212598426,
                    "duration": 0.22988500000002432
                },
                {
                    "name": "F5",
                    "midi": 77,
                    "time": 320.45969000000287,
                    "velocity": 0.49606299212598426,
                    "duration": 0.22988500000002432
                },
                {
                    "name": "D6",
                    "midi": 86,
                    "time": 320.6895750000029,
                    "velocity": 0.5275590551181102,
                    "duration": 0.45977000000004864
                },
                {
                    "name": "D5",
                    "midi": 74,
                    "time": 320.9194600000029,
                    "velocity": 0.49606299212598426,
                    "duration": 0.22988500000002432
                },
                {
                    "name": "F5",
                    "midi": 77,
                    "time": 320.9194600000029,
                    "velocity": 0.49606299212598426,
                    "duration": 0.22988500000002432
                },
                {
                    "name": "D6",
                    "midi": 86,
                    "time": 321.14934500000294,
                    "velocity": 0.5354330708661418,
                    "duration": 0.22988500000002432
                },
                {
                    "name": "A#4",
                    "midi": 70,
                    "time": 321.37923000000296,
                    "velocity": 0.4881889763779528,
                    "duration": 0.22988500000002432
                },
                {
                    "name": "D5",
                    "midi": 74,
                    "time": 321.37923000000296,
                    "velocity": 0.4881889763779528,
                    "duration": 0.22988500000002432
                },
                {
                    "name": "A#4",
                    "midi": 70,
                    "time": 321.839000000003,
                    "velocity": 0.49606299212598426,
                    "duration": 0.22988500000002432
                },
                {
                    "name": "D5",
                    "midi": 74,
                    "time": 321.839000000003,
                    "velocity": 0.49606299212598426,
                    "duration": 0.22988500000002432
                },
                {
                    "name": "A#5",
                    "midi": 82,
                    "time": 322.06888500000304,
                    "velocity": 0.5275590551181102,
                    "duration": 0.45977000000004864
                },
                {
                    "name": "A#4",
                    "midi": 70,
                    "time": 322.29877000000306,
                    "velocity": 0.49606299212598426,
                    "duration": 0.22988500000002432
                },
                {
                    "name": "D5",
                    "midi": 74,
                    "time": 322.29877000000306,
                    "velocity": 0.49606299212598426,
                    "duration": 0.22988500000002432
                },
                {
                    "name": "A#5",
                    "midi": 82,
                    "time": 322.5286550000031,
                    "velocity": 0.5354330708661418,
                    "duration": 0.22988500000002432
                },
                {
                    "name": "D#5",
                    "midi": 75,
                    "time": 322.7585400000031,
                    "velocity": 0.4881889763779528,
                    "duration": 0.22988500000002432
                },
                {
                    "name": "G5",
                    "midi": 79,
                    "time": 322.7585400000031,
                    "velocity": 0.5669291338582677,
                    "duration": 0.22988500000002432
                },
                {
                    "name": "D#5",
                    "midi": 75,
                    "time": 323.21831000000316,
                    "velocity": 0.49606299212598426,
                    "duration": 0.22988500000002432
                },
                {
                    "name": "G5",
                    "midi": 79,
                    "time": 323.21831000000316,
                    "velocity": 0.49606299212598426,
                    "duration": 0.22988500000002432
                },
                {
                    "name": "D#6",
                    "midi": 87,
                    "time": 323.4481950000032,
                    "velocity": 0.5275590551181102,
                    "duration": 0.45977000000004864
                },
                {
                    "name": "D#5",
                    "midi": 75,
                    "time": 323.6780800000032,
                    "velocity": 0.49606299212598426,
                    "duration": 0.22988500000002432
                },
                {
                    "name": "G5",
                    "midi": 79,
                    "time": 323.6780800000032,
                    "velocity": 0.49606299212598426,
                    "duration": 0.22988500000002432
                },
                {
                    "name": "D#6",
                    "midi": 87,
                    "time": 323.90796500000323,
                    "velocity": 0.5354330708661418,
                    "duration": 0.22988500000002432
                },
                {
                    "name": "A#5",
                    "midi": 82,
                    "time": 324.13785000000325,
                    "velocity": 0.4881889763779528,
                    "duration": 0.22988500000002432
                },
                {
                    "name": "D5",
                    "midi": 74,
                    "time": 324.13785000000325,
                    "velocity": 0.4881889763779528,
                    "duration": 0.22988500000002432
                },
                {
                    "name": "D5",
                    "midi": 74,
                    "time": 324.5976200000033,
                    "velocity": 0.49606299212598426,
                    "duration": 0.22988500000002432
                },
                {
                    "name": "A#5",
                    "midi": 82,
                    "time": 324.5976200000033,
                    "velocity": 0.49606299212598426,
                    "duration": 0.22988500000002432
                },
                {
                    "name": "D6",
                    "midi": 86,
                    "time": 324.8275050000033,
                    "velocity": 0.5275590551181102,
                    "duration": 0.45977000000004864
                },
                {
                    "name": "D5",
                    "midi": 74,
                    "time": 325.05739000000335,
                    "velocity": 0.49606299212598426,
                    "duration": 0.22988500000002432
                },
                {
                    "name": "A#5",
                    "midi": 82,
                    "time": 325.05739000000335,
                    "velocity": 0.49606299212598426,
                    "duration": 0.22988500000002432
                },
                {
                    "name": "D6",
                    "midi": 86,
                    "time": 325.2872750000034,
                    "velocity": 0.5354330708661418,
                    "duration": 0.22988500000002432
                },
                {
                    "name": "C5",
                    "midi": 72,
                    "time": 325.5171600000034,
                    "velocity": 0.4881889763779528,
                    "duration": 0.22988500000002432
                },
                {
                    "name": "D#5",
                    "midi": 75,
                    "time": 325.5171600000034,
                    "velocity": 0.4881889763779528,
                    "duration": 0.22988500000002432
                },
                {
                    "name": "C5",
                    "midi": 72,
                    "time": 325.97693000000345,
                    "velocity": 0.49606299212598426,
                    "duration": 0.22988500000002432
                },
                {
                    "name": "D#5",
                    "midi": 75,
                    "time": 325.97693000000345,
                    "velocity": 0.49606299212598426,
                    "duration": 0.22988500000002432
                },
                {
                    "name": "C6",
                    "midi": 84,
                    "time": 326.2068150000035,
                    "velocity": 0.5275590551181102,
                    "duration": 0.45977000000004864
                },
                {
                    "name": "C5",
                    "midi": 72,
                    "time": 326.4367000000035,
                    "velocity": 0.49606299212598426,
                    "duration": 0.22988500000002432
                },
                {
                    "name": "D#5",
                    "midi": 75,
                    "time": 326.4367000000035,
                    "velocity": 0.49606299212598426,
                    "duration": 0.22988500000002432
                },
                {
                    "name": "C6",
                    "midi": 84,
                    "time": 326.6665850000035,
                    "velocity": 0.5354330708661418,
                    "duration": 0.22988500000002432
                },
                {
                    "name": "A4",
                    "midi": 69,
                    "time": 326.89647000000355,
                    "velocity": 0.4881889763779528,
                    "duration": 0.22988500000002432
                },
                {
                    "name": "C5",
                    "midi": 72,
                    "time": 326.89647000000355,
                    "velocity": 0.4881889763779528,
                    "duration": 0.22988500000002432
                },
                {
                    "name": "A4",
                    "midi": 69,
                    "time": 327.3562400000036,
                    "velocity": 0.49606299212598426,
                    "duration": 0.22988500000002432
                },
                {
                    "name": "C5",
                    "midi": 72,
                    "time": 327.3562400000036,
                    "velocity": 0.49606299212598426,
                    "duration": 0.22988500000002432
                },
                {
                    "name": "A5",
                    "midi": 81,
                    "time": 327.5861250000036,
                    "velocity": 0.5275590551181102,
                    "duration": 0.45977000000004864
                },
                {
                    "name": "A4",
                    "midi": 69,
                    "time": 327.81601000000364,
                    "velocity": 0.49606299212598426,
                    "duration": 0.22988500000002432
                },
                {
                    "name": "C5",
                    "midi": 72,
                    "time": 327.81601000000364,
                    "velocity": 0.49606299212598426,
                    "duration": 0.22988500000002432
                },
                {
                    "name": "A5",
                    "midi": 81,
                    "time": 328.04589500000367,
                    "velocity": 0.5354330708661418,
                    "duration": 0.22988500000002432
                },
                {
                    "name": "C5",
                    "midi": 72,
                    "time": 328.2757800000037,
                    "velocity": 0.4881889763779528,
                    "duration": 0.22988500000002432
                },
                {
                    "name": "D#5",
                    "midi": 75,
                    "time": 328.2757800000037,
                    "velocity": 0.4881889763779528,
                    "duration": 0.22988500000002432
                },
                {
                    "name": "C5",
                    "midi": 72,
                    "time": 328.73555000000374,
                    "velocity": 0.49606299212598426,
                    "duration": 0.22988500000002432
                },
                {
                    "name": "D#5",
                    "midi": 75,
                    "time": 328.73555000000374,
                    "velocity": 0.49606299212598426,
                    "duration": 0.22988500000002432
                },
                {
                    "name": "C6",
                    "midi": 84,
                    "time": 328.96543500000377,
                    "velocity": 0.5275590551181102,
                    "duration": 0.45977000000004864
                },
                {
                    "name": "C5",
                    "midi": 72,
                    "time": 329.1953200000038,
                    "velocity": 0.49606299212598426,
                    "duration": 0.22988500000002432
                },
                {
                    "name": "D#5",
                    "midi": 75,
                    "time": 329.1953200000038,
                    "velocity": 0.49606299212598426,
                    "duration": 0.22988500000002432
                },
                {
                    "name": "C6",
                    "midi": 84,
                    "time": 329.4252050000038,
                    "velocity": 0.5354330708661418,
                    "duration": 0.22988500000002432
                },
                {
                    "name": "A4",
                    "midi": 69,
                    "time": 329.65509000000384,
                    "velocity": 0.4881889763779528,
                    "duration": 0.22988500000002432
                },
                {
                    "name": "C5",
                    "midi": 72,
                    "time": 329.65509000000384,
                    "velocity": 0.4881889763779528,
                    "duration": 0.22988500000002432
                },
                {
                    "name": "A4",
                    "midi": 69,
                    "time": 330.1148600000039,
                    "velocity": 0.49606299212598426,
                    "duration": 0.22988500000002432
                },
                {
                    "name": "C5",
                    "midi": 72,
                    "time": 330.1148600000039,
                    "velocity": 0.49606299212598426,
                    "duration": 0.22988500000002432
                },
                {
                    "name": "A5",
                    "midi": 81,
                    "time": 330.3447450000039,
                    "velocity": 0.5275590551181102,
                    "duration": 0.45977000000004864
                },
                {
                    "name": "A4",
                    "midi": 69,
                    "time": 330.57463000000394,
                    "velocity": 0.49606299212598426,
                    "duration": 0.22988500000002432
                },
                {
                    "name": "C5",
                    "midi": 72,
                    "time": 330.57463000000394,
                    "velocity": 0.49606299212598426,
                    "duration": 0.22988500000002432
                },
                {
                    "name": "A5",
                    "midi": 81,
                    "time": 330.80451500000396,
                    "velocity": 0.5354330708661418,
                    "duration": 0.22988500000002432
                },
                {
                    "name": "D5",
                    "midi": 74,
                    "time": 331.034400000004,
                    "velocity": 0.4881889763779528,
                    "duration": 0.22988500000002432
                },
                {
                    "name": "F#5",
                    "midi": 78,
                    "time": 331.034400000004,
                    "velocity": 0.5669291338582677,
                    "duration": 0.22988500000002432
                },
                {
                    "name": "D5",
                    "midi": 74,
                    "time": 331.49417000000403,
                    "velocity": 0.49606299212598426,
                    "duration": 0.22988500000002432
                },
                {
                    "name": "F#5",
                    "midi": 78,
                    "time": 331.49417000000403,
                    "velocity": 0.49606299212598426,
                    "duration": 0.22988500000002432
                },
                {
                    "name": "D6",
                    "midi": 86,
                    "time": 331.72405500000406,
                    "velocity": 0.5275590551181102,
                    "duration": 0.45977000000004864
                },
                {
                    "name": "D5",
                    "midi": 74,
                    "time": 331.9539400000041,
                    "velocity": 0.49606299212598426,
                    "duration": 0.22988500000002432
                },
                {
                    "name": "F#5",
                    "midi": 78,
                    "time": 331.9539400000041,
                    "velocity": 0.49606299212598426,
                    "duration": 0.22988500000002432
                },
                {
                    "name": "D6",
                    "midi": 86,
                    "time": 332.1838250000041,
                    "velocity": 0.5354330708661418,
                    "duration": 0.22988500000002432
                },
                {
                    "name": "A5",
                    "midi": 81,
                    "time": 332.41371000000413,
                    "velocity": 0.4881889763779528,
                    "duration": 0.22988500000002432
                },
                {
                    "name": "C5",
                    "midi": 72,
                    "time": 332.41371000000413,
                    "velocity": 0.4881889763779528,
                    "duration": 0.22988500000002432
                },
                {
                    "name": "C5",
                    "midi": 72,
                    "time": 332.8734800000042,
                    "velocity": 0.49606299212598426,
                    "duration": 0.22988500000002432
                },
                {
                    "name": "A5",
                    "midi": 81,
                    "time": 332.8734800000042,
                    "velocity": 0.49606299212598426,
                    "duration": 0.22988500000002432
                },
                {
                    "name": "C6",
                    "midi": 84,
                    "time": 333.1033650000042,
                    "velocity": 0.5275590551181102,
                    "duration": 0.45977000000004864
                },
                {
                    "name": "C5",
                    "midi": 72,
                    "time": 333.3332500000042,
                    "velocity": 0.49606299212598426,
                    "duration": 0.22988500000002432
                },
                {
                    "name": "A5",
                    "midi": 81,
                    "time": 333.3332500000042,
                    "velocity": 0.49606299212598426,
                    "duration": 0.22988500000002432
                },
                {
                    "name": "C6",
                    "midi": 84,
                    "time": 333.56313500000425,
                    "velocity": 0.5354330708661418,
                    "duration": 0.22988500000002432
                },
                {
                    "name": "A#4",
                    "midi": 70,
                    "time": 333.7930200000043,
                    "velocity": 0.4881889763779528,
                    "duration": 0.22988500000002432
                },
                {
                    "name": "G5",
                    "midi": 79,
                    "time": 333.7930200000043,
                    "velocity": 0.4881889763779528,
                    "duration": 0.22988500000002432
                },
                {
                    "name": "A#4",
                    "midi": 70,
                    "time": 334.2527900000043,
                    "velocity": 0.49606299212598426,
                    "duration": 0.22988500000002432
                },
                {
                    "name": "G5",
                    "midi": 79,
                    "time": 334.2527900000043,
                    "velocity": 0.49606299212598426,
                    "duration": 0.22988500000002432
                },
                {
                    "name": "A#5",
                    "midi": 82,
                    "time": 334.48267500000435,
                    "velocity": 0.5275590551181102,
                    "duration": 0.45977000000004864
                },
                {
                    "name": "A#4",
                    "midi": 70,
                    "time": 334.7125600000044,
                    "velocity": 0.49606299212598426,
                    "duration": 0.22988500000002432
                },
                {
                    "name": "G5",
                    "midi": 79,
                    "time": 334.7125600000044,
                    "velocity": 0.49606299212598426,
                    "duration": 0.22988500000002432
                },
                {
                    "name": "A#5",
                    "midi": 82,
                    "time": 334.9424450000044,
                    "velocity": 0.5354330708661418,
                    "duration": 0.22988500000002432
                },
                {
                    "name": "D5",
                    "midi": 74,
                    "time": 335.1723300000044,
                    "velocity": 0.4881889763779528,
                    "duration": 0.22988500000002432
                },
                {
                    "name": "A5",
                    "midi": 81,
                    "time": 335.1723300000044,
                    "velocity": 0.4881889763779528,
                    "duration": 0.22988500000002432
                },
                {
                    "name": "D5",
                    "midi": 74,
                    "time": 335.63210000000447,
                    "velocity": 0.49606299212598426,
                    "duration": 0.22988500000002432
                },
                {
                    "name": "A5",
                    "midi": 81,
                    "time": 335.63210000000447,
                    "velocity": 0.49606299212598426,
                    "duration": 0.22988500000002432
                },
                {
                    "name": "D6",
                    "midi": 86,
                    "time": 335.8619850000045,
                    "velocity": 0.5275590551181102,
                    "duration": 0.45977000000004864
                },
                {
                    "name": "D5",
                    "midi": 74,
                    "time": 336.0918700000045,
                    "velocity": 0.49606299212598426,
                    "duration": 0.22988500000002432
                },
                {
                    "name": "A5",
                    "midi": 81,
                    "time": 336.0918700000045,
                    "velocity": 0.49606299212598426,
                    "duration": 0.22988500000002432
                },
                {
                    "name": "D6",
                    "midi": 86,
                    "time": 336.32175500000454,
                    "velocity": 0.5354330708661418,
                    "duration": 0.22988500000002432
                },
                {
                    "name": "D5",
                    "midi": 74,
                    "time": 336.55164000000457,
                    "velocity": 0.4881889763779528,
                    "duration": 0.22988500000002432
                },
                {
                    "name": "G5",
                    "midi": 79,
                    "time": 336.55164000000457,
                    "velocity": 0.4881889763779528,
                    "duration": 0.22988500000002432
                },
                {
                    "name": "D5",
                    "midi": 74,
                    "time": 337.0114100000046,
                    "velocity": 0.49606299212598426,
                    "duration": 0.22988500000002432
                },
                {
                    "name": "G5",
                    "midi": 79,
                    "time": 337.0114100000046,
                    "velocity": 0.49606299212598426,
                    "duration": 0.22988500000002432
                },
                {
                    "name": "D6",
                    "midi": 86,
                    "time": 337.24129500000464,
                    "velocity": 0.5275590551181102,
                    "duration": 0.45977000000004864
                },
                {
                    "name": "D5",
                    "midi": 74,
                    "time": 337.47118000000467,
                    "velocity": 0.49606299212598426,
                    "duration": 0.22988500000002432
                },
                {
                    "name": "G5",
                    "midi": 79,
                    "time": 337.47118000000467,
                    "velocity": 0.49606299212598426,
                    "duration": 0.22988500000002432
                },
                {
                    "name": "D6",
                    "midi": 86,
                    "time": 337.7010650000047,
                    "velocity": 0.5354330708661418,
                    "duration": 0.22988500000002432
                },
                {
                    "name": "C#5",
                    "midi": 73,
                    "time": 337.9309500000047,
                    "velocity": 0.4881889763779528,
                    "duration": 0.22988500000002432
                },
                {
                    "name": "G5",
                    "midi": 79,
                    "time": 337.9309500000047,
                    "velocity": 0.4881889763779528,
                    "duration": 0.22988500000002432
                },
                {
                    "name": "C#5",
                    "midi": 73,
                    "time": 338.39072000000476,
                    "velocity": 0.49606299212598426,
                    "duration": 0.22988500000002432
                },
                {
                    "name": "G5",
                    "midi": 79,
                    "time": 338.39072000000476,
                    "velocity": 0.49606299212598426,
                    "duration": 0.22988500000002432
                },
                {
                    "name": "C#6",
                    "midi": 85,
                    "time": 338.6206050000048,
                    "velocity": 0.5275590551181102,
                    "duration": 0.45977000000004864
                },
                {
                    "name": "C#5",
                    "midi": 73,
                    "time": 338.8504900000048,
                    "velocity": 0.49606299212598426,
                    "duration": 0.22988500000002432
                },
                {
                    "name": "G5",
                    "midi": 79,
                    "time": 338.8504900000048,
                    "velocity": 0.49606299212598426,
                    "duration": 0.22988500000002432
                },
                {
                    "name": "C#6",
                    "midi": 85,
                    "time": 339.08037500000484,
                    "velocity": 0.5354330708661418,
                    "duration": 0.22988500000002432
                },
                {
                    "name": "D5",
                    "midi": 74,
                    "time": 339.31026000000486,
                    "velocity": 0.4881889763779528,
                    "duration": 0.22988500000002432
                },
                {
                    "name": "F#5",
                    "midi": 78,
                    "time": 339.31026000000486,
                    "velocity": 0.5669291338582677,
                    "duration": 0.22988500000002432
                },
                {
                    "name": "D6",
                    "midi": 86,
                    "time": 339.5401450000049,
                    "velocity": 0.5275590551181102,
                    "duration": 0.22988500000002432
                },
                {
                    "name": "D5",
                    "midi": 74,
                    "time": 339.7700300000049,
                    "velocity": 0.49606299212598426,
                    "duration": 0.22988500000002432
                },
                {
                    "name": "D6",
                    "midi": 86,
                    "time": 339.99991500000493,
                    "velocity": 0.5275590551181102,
                    "duration": 0.22988500000002432
                },
                {
                    "name": "D5",
                    "midi": 74,
                    "time": 340.22980000000496,
                    "velocity": 0.49606299212598426,
                    "duration": 0.22988500000002432
                },
                {
                    "name": "D6",
                    "midi": 86,
                    "time": 340.459685000005,
                    "velocity": 0.5275590551181102,
                    "duration": 0.22988500000002432
                },
                {
                    "name": "D5",
                    "midi": 74,
                    "time": 340.689570000005,
                    "velocity": 0.48031496062992124,
                    "duration": 0.22988500000002432
                },
                {
                    "name": "D6",
                    "midi": 86,
                    "time": 340.91945500000503,
                    "velocity": 0.4881889763779528,
                    "duration": 0.22988500000002432
                },
                {
                    "name": "D5",
                    "midi": 74,
                    "time": 341.14934000000505,
                    "velocity": 0.48031496062992124,
                    "duration": 0.22988500000002432
                },
                {
                    "name": "D6",
                    "midi": 86,
                    "time": 341.3792250000051,
                    "velocity": 0.5118110236220472,
                    "duration": 0.1724137499999756
                },
                {
                    "name": "D5",
                    "midi": 74,
                    "time": 341.60911000000505,
                    "velocity": 0.4881889763779528,
                    "duration": 0.22988500000002432
                },
                {
                    "name": "D6",
                    "midi": 86,
                    "time": 341.83899500000507,
                    "velocity": 0.5118110236220472,
                    "duration": 0.22988500000002432
                },
                {
                    "name": "D5",
                    "midi": 74,
                    "time": 342.0688800000051,
                    "velocity": 0.5433070866141733,
                    "duration": 0.22988500000002432
                },
                {
                    "name": "A#5",
                    "midi": 82,
                    "time": 342.0688800000051,
                    "velocity": 0.5433070866141733,
                    "duration": 0.22988500000002432
                },
                {
                    "name": "D6",
                    "midi": 86,
                    "time": 342.2987650000051,
                    "velocity": 0.48031496062992124,
                    "duration": 0.22988500000002432
                },
                {
                    "name": "D5",
                    "midi": 74,
                    "time": 342.52865000000514,
                    "velocity": 0.4645669291338583,
                    "duration": 0.22988500000002432
                },
                {
                    "name": "D6",
                    "midi": 86,
                    "time": 342.75853500000517,
                    "velocity": 0.49606299212598426,
                    "duration": 0.22988500000002432
                },
                {
                    "name": "D5",
                    "midi": 74,
                    "time": 342.9884200000052,
                    "velocity": 0.4645669291338583,
                    "duration": 0.22988500000002432
                },
                {
                    "name": "D6",
                    "midi": 86,
                    "time": 343.2183050000052,
                    "velocity": 0.49606299212598426,
                    "duration": 0.22988500000002432
                },
                {
                    "name": "D6",
                    "midi": 86,
                    "time": 343.67807500000526,
                    "velocity": 0.44881889763779526,
                    "duration": 0.22988500000002432
                },
                {
                    "name": "D5",
                    "midi": 74,
                    "time": 343.9079600000053,
                    "velocity": 0.4409448818897638,
                    "duration": 0.22988500000002432
                },
                {
                    "name": "D6",
                    "midi": 86,
                    "time": 344.1378450000053,
                    "velocity": 0.47244094488188976,
                    "duration": 0.22988500000002432
                },
                {
                    "name": "D5",
                    "midi": 74,
                    "time": 344.36773000000534,
                    "velocity": 0.4330708661417323,
                    "duration": 0.22988500000002432
                },
                {
                    "name": "D6",
                    "midi": 86,
                    "time": 344.59761500000536,
                    "velocity": 0.47244094488188976,
                    "duration": 0.22988500000002432
                },
                {
                    "name": "C6",
                    "midi": 84,
                    "time": 345.0573850000054,
                    "velocity": 0.4566929133858268,
                    "duration": 0.22988500000002432
                },
                {
                    "name": "C5",
                    "midi": 72,
                    "time": 345.28727000000544,
                    "velocity": 0.4251968503937008,
                    "duration": 0.22988500000002432
                },
                {
                    "name": "C6",
                    "midi": 84,
                    "time": 345.51715500000546,
                    "velocity": 0.44881889763779526,
                    "duration": 0.22988500000002432
                },
                {
                    "name": "C5",
                    "midi": 72,
                    "time": 345.7470400000055,
                    "velocity": 0.4251968503937008,
                    "duration": 0.22988500000002432
                },
                {
                    "name": "C6",
                    "midi": 84,
                    "time": 345.9769250000055,
                    "velocity": 0.44881889763779526,
                    "duration": 0.22988500000002432
                },
                {
                    "name": "A#5",
                    "midi": 82,
                    "time": 346.43669500000556,
                    "velocity": 0.4330708661417323,
                    "duration": 0.22988500000002432
                },
                {
                    "name": "A#4",
                    "midi": 70,
                    "time": 346.6665800000056,
                    "velocity": 0.4015748031496063,
                    "duration": 0.22988500000002432
                },
                {
                    "name": "A#5",
                    "midi": 82,
                    "time": 346.8964650000056,
                    "velocity": 0.4330708661417323,
                    "duration": 0.22988500000002432
                },
                {
                    "name": "A#4",
                    "midi": 70,
                    "time": 347.12635000000563,
                    "velocity": 0.4015748031496063,
                    "duration": 0.22988500000002432
                },
                {
                    "name": "A#5",
                    "midi": 82,
                    "time": 347.35623500000565,
                    "velocity": 0.4251968503937008,
                    "duration": 0.22988500000002432
                },
                {
                    "name": "A5",
                    "midi": 81,
                    "time": 347.8160050000057,
                    "velocity": 0.4566929133858268,
                    "duration": 0.22988500000002432
                },
                {
                    "name": "A4",
                    "midi": 69,
                    "time": 348.0458900000057,
                    "velocity": 0.4251968503937008,
                    "duration": 0.22988500000002432
                },
                {
                    "name": "A5",
                    "midi": 81,
                    "time": 348.27577500000575,
                    "velocity": 0.4409448818897638,
                    "duration": 0.22988500000002432
                },
                {
                    "name": "A4",
                    "midi": 69,
                    "time": 348.5056600000058,
                    "velocity": 0.41732283464566927,
                    "duration": 0.22988500000002432
                },
                {
                    "name": "A5",
                    "midi": 81,
                    "time": 348.7355450000058,
                    "velocity": 0.4330708661417323,
                    "duration": 0.22988500000002432
                },
                {
                    "name": "G5",
                    "midi": 79,
                    "time": 349.19531500000585,
                    "velocity": 0.4251968503937008,
                    "duration": 0.22988500000002432
                },
                {
                    "name": "G4",
                    "midi": 67,
                    "time": 349.4252000000059,
                    "velocity": 0.3937007874015748,
                    "duration": 0.22988500000002432
                },
                {
                    "name": "G5",
                    "midi": 79,
                    "time": 349.6550850000059,
                    "velocity": 0.4251968503937008,
                    "duration": 0.22988500000002432
                },
                {
                    "name": "G4",
                    "midi": 67,
                    "time": 349.8849700000059,
                    "velocity": 0.3858267716535433,
                    "duration": 0.22988500000002432
                },
                {
                    "name": "G5",
                    "midi": 79,
                    "time": 350.11485500000595,
                    "velocity": 0.4094488188976378,
                    "duration": 0.22988500000002432
                },
                {
                    "name": "F#5",
                    "midi": 78,
                    "time": 350.574625000006,
                    "velocity": 0.4251968503937008,
                    "duration": 0.22988500000002432
                },
                {
                    "name": "F#4",
                    "midi": 66,
                    "time": 350.804510000006,
                    "velocity": 0.4015748031496063,
                    "duration": 0.22988500000002432
                },
                {
                    "name": "F#5",
                    "midi": 78,
                    "time": 351.03439500000604,
                    "velocity": 0.41732283464566927,
                    "duration": 0.22988500000002432
                },
                {
                    "name": "F#4",
                    "midi": 66,
                    "time": 351.26428000000607,
                    "velocity": 0.4015748031496063,
                    "duration": 0.22988500000002432
                },
                {
                    "name": "F#5",
                    "midi": 78,
                    "time": 351.4941650000061,
                    "velocity": 0.41732283464566927,
                    "duration": 0.22988500000002432
                },
                {
                    "name": "D#5",
                    "midi": 75,
                    "time": 351.95393500000614,
                    "velocity": 0.4015748031496063,
                    "duration": 0.22988500000002432
                },
                {
                    "name": "D#4",
                    "midi": 63,
                    "time": 352.18382000000616,
                    "velocity": 0.3700787401574803,
                    "duration": 0.22988500000002432
                },
                {
                    "name": "D#5",
                    "midi": 75,
                    "time": 352.4137050000062,
                    "velocity": 0.4015748031496063,
                    "duration": 0.22988500000002432
                },
                {
                    "name": "D#4",
                    "midi": 63,
                    "time": 352.6435900000062,
                    "velocity": 0.3700787401574803,
                    "duration": 0.22988500000002432
                },
                {
                    "name": "D#5",
                    "midi": 75,
                    "time": 352.87347500000624,
                    "velocity": 0.3937007874015748,
                    "duration": 0.22988500000002432
                },
                {
                    "name": "D5",
                    "midi": 74,
                    "time": 353.3332450000063,
                    "velocity": 0.4094488188976378,
                    "duration": 0.22988500000002432
                },
                {
                    "name": "D4",
                    "midi": 62,
                    "time": 353.5631300000063,
                    "velocity": 0.3779527559055118,
                    "duration": 0.22988500000002432
                },
                {
                    "name": "D5",
                    "midi": 74,
                    "time": 353.79301500000633,
                    "velocity": 0.4015748031496063,
                    "duration": 0.22988500000002432
                },
                {
                    "name": "D4",
                    "midi": 62,
                    "time": 354.02290000000636,
                    "velocity": 0.3700787401574803,
                    "duration": 0.22988500000002432
                },
                {
                    "name": "D5",
                    "midi": 74,
                    "time": 354.2527850000064,
                    "velocity": 0.4015748031496063,
                    "duration": 0.22988500000002432
                },
                {
                    "name": "D4",
                    "midi": 62,
                    "time": 354.71255500000643,
                    "velocity": 0.3858267716535433,
                    "duration": 0.22988500000002432
                },
                {
                    "name": "A#4",
                    "midi": 70,
                    "time": 354.71255500000643,
                    "velocity": 0.3858267716535433,
                    "duration": 0.22988500000002432
                },
                {
                    "name": "A#3",
                    "midi": 58,
                    "time": 354.94244000000646,
                    "velocity": 0.3543307086614173,
                    "duration": 0.22988500000002432
                },
                {
                    "name": "D4",
                    "midi": 62,
                    "time": 355.1723250000065,
                    "velocity": 0.3700787401574803,
                    "duration": 0.22988500000002432
                },
                {
                    "name": "A#4",
                    "midi": 70,
                    "time": 355.1723250000065,
                    "velocity": 0.3779527559055118,
                    "duration": 0.22988500000002432
                },
                {
                    "name": "A#3",
                    "midi": 58,
                    "time": 355.4022100000065,
                    "velocity": 0.3543307086614173,
                    "duration": 0.22988500000002432
                },
                {
                    "name": "D4",
                    "midi": 62,
                    "time": 355.63209500000653,
                    "velocity": 0.36220472440944884,
                    "duration": 0.22988500000002432
                },
                {
                    "name": "A#4",
                    "midi": 70,
                    "time": 355.63209500000653,
                    "velocity": 0.36220472440944884,
                    "duration": 0.22988500000002432
                },
                {
                    "name": "D4",
                    "midi": 62,
                    "time": 356.0918650000066,
                    "velocity": 0.3543307086614173,
                    "duration": 0.22988500000002432
                },
                {
                    "name": "A4",
                    "midi": 69,
                    "time": 356.0918650000066,
                    "velocity": 0.3858267716535433,
                    "duration": 0.22988500000002432
                },
                {
                    "name": "A3",
                    "midi": 57,
                    "time": 356.3217500000066,
                    "velocity": 0.3543307086614173,
                    "duration": 0.22988500000002432
                },
                {
                    "name": "D4",
                    "midi": 62,
                    "time": 356.5516350000066,
                    "velocity": 0.3464566929133858,
                    "duration": 0.22988500000002432
                },
                {
                    "name": "A4",
                    "midi": 69,
                    "time": 356.5516350000066,
                    "velocity": 0.3700787401574803,
                    "duration": 0.22988500000002432
                },
                {
                    "name": "A3",
                    "midi": 57,
                    "time": 356.78152000000665,
                    "velocity": 0.3464566929133858,
                    "duration": 0.22988500000002432
                },
                {
                    "name": "D4",
                    "midi": 62,
                    "time": 357.0114050000067,
                    "velocity": 0.33858267716535434,
                    "duration": 0.22988500000002432
                },
                {
                    "name": "A4",
                    "midi": 69,
                    "time": 357.0114050000067,
                    "velocity": 0.3543307086614173,
                    "duration": 0.22988500000002432
                },
                {
                    "name": "D4",
                    "midi": 62,
                    "time": 357.4711750000067,
                    "velocity": 0.2992125984251969,
                    "duration": 0.22988500000002432
                },
                {
                    "name": "G4",
                    "midi": 67,
                    "time": 357.4711750000067,
                    "velocity": 0.3464566929133858,
                    "duration": 0.22988500000002432
                },
                {
                    "name": "G3",
                    "midi": 55,
                    "time": 357.70106000000675,
                    "velocity": 0.31496062992125984,
                    "duration": 0.22988500000002432
                },
                {
                    "name": "D4",
                    "midi": 62,
                    "time": 357.9309450000068,
                    "velocity": 0.2992125984251969,
                    "duration": 0.22988500000002432
                },
                {
                    "name": "G4",
                    "midi": 67,
                    "time": 357.9309450000068,
                    "velocity": 0.3464566929133858,
                    "duration": 0.22988500000002432
                },
                {
                    "name": "G3",
                    "midi": 55,
                    "time": 358.1608300000068,
                    "velocity": 0.2992125984251969,
                    "duration": 0.22988500000002432
                },
                {
                    "name": "D4",
                    "midi": 62,
                    "time": 358.3907150000068,
                    "velocity": 0.29133858267716534,
                    "duration": 0.22988500000002432
                },
                {
                    "name": "G4",
                    "midi": 67,
                    "time": 358.3907150000068,
                    "velocity": 0.33070866141732286,
                    "duration": 0.22988500000002432
                },
                {
                    "name": "D4",
                    "midi": 62,
                    "time": 358.85048500000687,
                    "velocity": 0.28346456692913385,
                    "duration": 0.22988500000002432
                },
                {
                    "name": "F#4",
                    "midi": 66,
                    "time": 358.85048500000687,
                    "velocity": 0.3464566929133858,
                    "duration": 0.22988500000002432
                },
                {
                    "name": "F#3",
                    "midi": 54,
                    "time": 359.0803700000069,
                    "velocity": 0.31496062992125984,
                    "duration": 0.22988500000002432
                },
                {
                    "name": "D4",
                    "midi": 62,
                    "time": 359.3102550000069,
                    "velocity": 0.28346456692913385,
                    "duration": 0.22988500000002432
                },
                {
                    "name": "F#4",
                    "midi": 66,
                    "time": 359.3102550000069,
                    "velocity": 0.3228346456692913,
                    "duration": 0.22988500000002432
                },
                {
                    "name": "F#3",
                    "midi": 54,
                    "time": 359.54014000000694,
                    "velocity": 0.30708661417322836,
                    "duration": 0.22988500000002432
                },
                {
                    "name": "D4",
                    "midi": 62,
                    "time": 359.77002500000697,
                    "velocity": 0.2677165354330709,
                    "duration": 0.22988500000002432
                },
                {
                    "name": "F#4",
                    "midi": 66,
                    "time": 359.77002500000697,
                    "velocity": 0.3228346456692913,
                    "duration": 0.22988500000002432
                },
                {
                    "name": "F#3",
                    "midi": 54,
                    "time": 360.229795000007,
                    "velocity": 0.25984251968503935,
                    "duration": 0.22988500000002432
                },
                {
                    "name": "A3",
                    "midi": 57,
                    "time": 360.229795000007,
                    "velocity": 0.2677165354330709,
                    "duration": 0.22988500000002432
                },
                {
                    "name": "D#4",
                    "midi": 63,
                    "time": 360.229795000007,
                    "velocity": 0.30708661417322836,
                    "duration": 0.22988500000002432
                },
                {
                    "name": "D#3",
                    "midi": 51,
                    "time": 360.45968000000704,
                    "velocity": 0.28346456692913385,
                    "duration": 0.22988500000002432
                },
                {
                    "name": "F#3",
                    "midi": 54,
                    "time": 360.68956500000706,
                    "velocity": 0.25984251968503935,
                    "duration": 0.22988500000002432
                },
                {
                    "name": "A3",
                    "midi": 57,
                    "time": 360.68956500000706,
                    "velocity": 0.25984251968503935,
                    "duration": 0.22988500000002432
                },
                {
                    "name": "D#4",
                    "midi": 63,
                    "time": 360.68956500000706,
                    "velocity": 0.2992125984251969,
                    "duration": 0.22988500000002432
                },
                {
                    "name": "D#3",
                    "midi": 51,
                    "time": 360.9194500000071,
                    "velocity": 0.2755905511811024,
                    "duration": 0.22988500000002432
                },
                {
                    "name": "F#3",
                    "midi": 54,
                    "time": 361.1493350000071,
                    "velocity": 0.25984251968503935,
                    "duration": 0.22988500000002432
                },
                {
                    "name": "A3",
                    "midi": 57,
                    "time": 361.1493350000071,
                    "velocity": 0.25984251968503935,
                    "duration": 0.22988500000002432
                },
                {
                    "name": "D#4",
                    "midi": 63,
                    "time": 361.1493350000071,
                    "velocity": 0.28346456692913385,
                    "duration": 0.22988500000002432
                },
                {
                    "name": "G3",
                    "midi": 55,
                    "time": 361.60910500000716,
                    "velocity": 0.25984251968503935,
                    "duration": 0.22988500000002432
                },
                {
                    "name": "A#3",
                    "midi": 58,
                    "time": 361.60910500000716,
                    "velocity": 0.25984251968503935,
                    "duration": 0.22988500000002432
                },
                {
                    "name": "D4",
                    "midi": 62,
                    "time": 361.60910500000716,
                    "velocity": 0.2992125984251969,
                    "duration": 0.22988500000002432
                },
                {
                    "name": "D3",
                    "midi": 50,
                    "time": 361.8389900000072,
                    "velocity": 0.2755905511811024,
                    "duration": 0.22988500000002432
                },
                {
                    "name": "G3",
                    "midi": 55,
                    "time": 362.0688750000072,
                    "velocity": 0.25196850393700787,
                    "duration": 0.22988500000002432
                },
                {
                    "name": "A#3",
                    "midi": 58,
                    "time": 362.0688750000072,
                    "velocity": 0.25196850393700787,
                    "duration": 0.22988500000002432
                },
                {
                    "name": "D4",
                    "midi": 62,
                    "time": 362.0688750000072,
                    "velocity": 0.29133858267716534,
                    "duration": 0.22988500000002432
                },
                {
                    "name": "D3",
                    "midi": 50,
                    "time": 362.29876000000723,
                    "velocity": 0.2677165354330709,
                    "duration": 0.22988500000002432
                },
                {
                    "name": "G3",
                    "midi": 55,
                    "time": 362.52864500000726,
                    "velocity": 0.25196850393700787,
                    "duration": 0.22988500000002432
                },
                {
                    "name": "A#3",
                    "midi": 58,
                    "time": 362.52864500000726,
                    "velocity": 0.25196850393700787,
                    "duration": 0.22988500000002432
                },
                {
                    "name": "D4",
                    "midi": 62,
                    "time": 362.52864500000726,
                    "velocity": 0.28346456692913385,
                    "duration": 0.22988500000002432
                },
                {
                    "name": "C4",
                    "midi": 60,
                    "time": 362.9884150000073,
                    "velocity": 0.2677165354330709,
                    "duration": 0.22988500000002432
                },
                {
                    "name": "F#3",
                    "midi": 54,
                    "time": 362.9884150000073,
                    "velocity": 0.2755905511811024,
                    "duration": 0.22988500000002432
                },
                {
                    "name": "D4",
                    "midi": 62,
                    "time": 362.9884150000073,
                    "velocity": 0.2755905511811024,
                    "duration": 0.22988500000002432
                },
                {
                    "name": "D3",
                    "midi": 50,
                    "time": 363.21830000000733,
                    "velocity": 0.25196850393700787,
                    "duration": 0.22988500000002432
                },
                {
                    "name": "C4",
                    "midi": 60,
                    "time": 363.44818500000736,
                    "velocity": 0.2125984251968504,
                    "duration": 0.22988500000002432
                },
                {
                    "name": "F#3",
                    "midi": 54,
                    "time": 363.44818500000736,
                    "velocity": 0.2204724409448819,
                    "duration": 0.22988500000002432
                },
                {
                    "name": "D4",
                    "midi": 62,
                    "time": 363.44818500000736,
                    "velocity": 0.2677165354330709,
                    "duration": 0.22988500000002432
                },
                {
                    "name": "D3",
                    "midi": 50,
                    "time": 363.6780700000074,
                    "velocity": 0.25196850393700787,
                    "duration": 0.22988500000002432
                },
                {
                    "name": "C4",
                    "midi": 60,
                    "time": 363.9079550000074,
                    "velocity": 0.2125984251968504,
                    "duration": 0.22988500000002432
                },
                {
                    "name": "F#3",
                    "midi": 54,
                    "time": 363.9079550000074,
                    "velocity": 0.2125984251968504,
                    "duration": 0.22988500000002432
                },
                {
                    "name": "D4",
                    "midi": 62,
                    "time": 363.9079550000074,
                    "velocity": 0.25984251968503935,
                    "duration": 0.22988500000002432
                },
                {
                    "name": "D3",
                    "midi": 50,
                    "time": 364.1953112500074,
                    "velocity": 0.31496062992125984,
                    "duration": 1.3218387499999835
                },
                {
                    "name": "G3",
                    "midi": 55,
                    "time": 364.2527825000074,
                    "velocity": 0.33858267716535434,
                    "duration": 1.2643674999999917
                },
                {
                    "name": "A#3",
                    "midi": 58,
                    "time": 364.3102537500074,
                    "velocity": 0.3464566929133858,
                    "duration": 1.2068962499999998
                },
                {
                    "name": "D4",
                    "midi": 62,
                    "time": 364.3677250000074,
                    "velocity": 0.36220472440944884,
                    "duration": 1.149425000000008
                },
                {
                    "name": "A#4",
                    "midi": 70,
                    "time": 365.5171500000074,
                    "velocity": 0.3543307086614173,
                    "duration": 0.22988500000002432
                },
                {
                    "name": "D6",
                    "midi": 86,
                    "time": 365.74703500000743,
                    "velocity": 0.29133858267716534,
                    "duration": 0.22988500000002432
                },
                {
                    "name": "D5",
                    "midi": 74,
                    "time": 365.97692000000745,
                    "velocity": 0.31496062992125984,
                    "duration": 0.22988500000002432
                },
                {
                    "name": "D6",
                    "midi": 86,
                    "time": 366.2068050000075,
                    "velocity": 0.2992125984251969,
                    "duration": 0.22988500000002432
                },
                {
                    "name": "G5",
                    "midi": 79,
                    "time": 366.4366900000075,
                    "velocity": 0.3228346456692913,
                    "duration": 0.22988500000002432
                },
                {
                    "name": "D6",
                    "midi": 86,
                    "time": 366.6665750000075,
                    "velocity": 0.30708661417322836,
                    "duration": 0.22988500000002432
                },
                {
                    "name": "A#5",
                    "midi": 82,
                    "time": 366.89646000000755,
                    "velocity": 0.3700787401574803,
                    "duration": 0.22988500000002432
                },
                {
                    "name": "D6",
                    "midi": 86,
                    "time": 367.1263450000076,
                    "velocity": 0.30708661417322836,
                    "duration": 0.22988500000002432
                },
                {
                    "name": "G5",
                    "midi": 79,
                    "time": 367.3562300000076,
                    "velocity": 0.33858267716535434,
                    "duration": 0.22988500000002432
                },
                {
                    "name": "D6",
                    "midi": 86,
                    "time": 367.5861150000076,
                    "velocity": 0.33858267716535434,
                    "duration": 0.22988500000002432
                },
                {
                    "name": "D5",
                    "midi": 74,
                    "time": 367.81600000000765,
                    "velocity": 0.3464566929133858,
                    "duration": 0.22988500000002432
                },
                {
                    "name": "D6",
                    "midi": 86,
                    "time": 368.0458850000077,
                    "velocity": 0.3228346456692913,
                    "duration": 0.22988500000002432
                },
                {
                    "name": "D#5",
                    "midi": 75,
                    "time": 368.2757700000077,
                    "velocity": 0.3937007874015748,
                    "duration": 0.22988500000002432
                },
                {
                    "name": "G6",
                    "midi": 91,
                    "time": 368.5056550000077,
                    "velocity": 0.33858267716535434,
                    "duration": 0.22988500000002432
                },
                {
                    "name": "G5",
                    "midi": 79,
                    "time": 368.73554000000775,
                    "velocity": 0.3543307086614173,
                    "duration": 0.22988500000002432
                },
                {
                    "name": "G6",
                    "midi": 91,
                    "time": 368.96542500000777,
                    "velocity": 0.33070866141732286,
                    "duration": 0.22988500000002432
                },
                {
                    "name": "D#6",
                    "midi": 87,
                    "time": 369.1953100000078,
                    "velocity": 0.3543307086614173,
                    "duration": 0.22988500000002432
                },
                {
                    "name": "G6",
                    "midi": 91,
                    "time": 369.4251950000078,
                    "velocity": 0.33070866141732286,
                    "duration": 0.22988500000002432
                },
                {
                    "name": "D5",
                    "midi": 74,
                    "time": 369.65508000000784,
                    "velocity": 0.3937007874015748,
                    "duration": 0.22988500000002432
                },
                {
                    "name": "F#6",
                    "midi": 90,
                    "time": 369.88496500000787,
                    "velocity": 0.33070866141732286,
                    "duration": 0.22988500000002432
                },
                {
                    "name": "F#5",
                    "midi": 78,
                    "time": 370.1148500000079,
                    "velocity": 0.3543307086614173,
                    "duration": 0.22988500000002432
                },
                {
                    "name": "F#6",
                    "midi": 90,
                    "time": 370.3447350000079,
                    "velocity": 0.33070866141732286,
                    "duration": 0.22988500000002432
                },
                {
                    "name": "D6",
                    "midi": 86,
                    "time": 370.57462000000794,
                    "velocity": 0.3543307086614173,
                    "duration": 0.22988500000002432
                },
                {
                    "name": "F#6",
                    "midi": 90,
                    "time": 370.80450500000796,
                    "velocity": 0.33070866141732286,
                    "duration": 0.22988500000002432
                },
                {
                    "name": "C5",
                    "midi": 72,
                    "time": 371.034390000008,
                    "velocity": 0.3937007874015748,
                    "duration": 0.22988500000002432
                },
                {
                    "name": "D#6",
                    "midi": 87,
                    "time": 371.264275000008,
                    "velocity": 0.33070866141732286,
                    "duration": 0.22988500000002432
                },
                {
                    "name": "D#5",
                    "midi": 75,
                    "time": 371.49416000000804,
                    "velocity": 0.3543307086614173,
                    "duration": 0.22988500000002432
                },
                {
                    "name": "D#6",
                    "midi": 87,
                    "time": 371.72404500000806,
                    "velocity": 0.33858267716535434,
                    "duration": 0.22988500000002432
                },
                {
                    "name": "G5",
                    "midi": 79,
                    "time": 371.9539300000081,
                    "velocity": 0.3543307086614173,
                    "duration": 0.22988500000002432
                },
                {
                    "name": "D#6",
                    "midi": 87,
                    "time": 372.1838150000081,
                    "velocity": 0.3228346456692913,
                    "duration": 0.22988500000002432
                },
                {
                    "name": "A#4",
                    "midi": 70,
                    "time": 372.41370000000813,
                    "velocity": 0.3937007874015748,
                    "duration": 0.22988500000002432
                },
                {
                    "name": "D6",
                    "midi": 86,
                    "time": 372.64358500000816,
                    "velocity": 0.33070866141732286,
                    "duration": 0.22988500000002432
                },
                {
                    "name": "D5",
                    "midi": 74,
                    "time": 372.8734700000082,
                    "velocity": 0.3543307086614173,
                    "duration": 0.22988500000002432
                },
                {
                    "name": "D6",
                    "midi": 86,
                    "time": 373.1033550000082,
                    "velocity": 0.33858267716535434,
                    "duration": 0.22988500000002432
                },
                {
                    "name": "G5",
                    "midi": 79,
                    "time": 373.33324000000823,
                    "velocity": 0.3543307086614173,
                    "duration": 0.22988500000002432
                },
                {
                    "name": "D6",
                    "midi": 86,
                    "time": 373.56312500000826,
                    "velocity": 0.3228346456692913,
                    "duration": 0.22988500000002432
                },
                {
                    "name": "A#5",
                    "midi": 82,
                    "time": 373.7930100000083,
                    "velocity": 0.3937007874015748,
                    "duration": 0.22988500000002432
                },
                {
                    "name": "D6",
                    "midi": 86,
                    "time": 374.0228950000083,
                    "velocity": 0.33070866141732286,
                    "duration": 0.22988500000002432
                },
                {
                    "name": "G5",
                    "midi": 79,
                    "time": 374.25278000000833,
                    "velocity": 0.3543307086614173,
                    "duration": 0.22988500000002432
                },
                {
                    "name": "D6",
                    "midi": 86,
                    "time": 374.48266500000835,
                    "velocity": 0.33070866141732286,
                    "duration": 0.22988500000002432
                },
                {
                    "name": "D5",
                    "midi": 74,
                    "time": 374.7125500000084,
                    "velocity": 0.3543307086614173,
                    "duration": 0.22988500000002432
                },
                {
                    "name": "D6",
                    "midi": 86,
                    "time": 374.9424350000084,
                    "velocity": 0.33070866141732286,
                    "duration": 0.22988500000002432
                },
                {
                    "name": "A#4",
                    "midi": 70,
                    "time": 375.1723200000084,
                    "velocity": 0.3937007874015748,
                    "duration": 0.22988500000002432
                },
                {
                    "name": "D6",
                    "midi": 86,
                    "time": 375.40220500000845,
                    "velocity": 0.33070866141732286,
                    "duration": 0.22988500000002432
                },
                {
                    "name": "D5",
                    "midi": 74,
                    "time": 375.6320900000085,
                    "velocity": 0.3543307086614173,
                    "duration": 0.22988500000002432
                },
                {
                    "name": "D6",
                    "midi": 86,
                    "time": 375.8619750000085,
                    "velocity": 0.3543307086614173,
                    "duration": 0.22988500000002432
                },
                {
                    "name": "G5",
                    "midi": 79,
                    "time": 376.0918600000085,
                    "velocity": 0.3543307086614173,
                    "duration": 0.22988500000002432
                },
                {
                    "name": "D6",
                    "midi": 86,
                    "time": 376.32174500000855,
                    "velocity": 0.33070866141732286,
                    "duration": 0.22988500000002432
                },
                {
                    "name": "A4",
                    "midi": 69,
                    "time": 376.5516300000086,
                    "velocity": 0.3937007874015748,
                    "duration": 0.22988500000002432
                },
                {
                    "name": "D6",
                    "midi": 86,
                    "time": 376.7815150000086,
                    "velocity": 0.33858267716535434,
                    "duration": 0.22988500000002432
                },
                {
                    "name": "D5",
                    "midi": 74,
                    "time": 377.0114000000086,
                    "velocity": 0.3543307086614173,
                    "duration": 0.22988500000002432
                },
                {
                    "name": "D6",
                    "midi": 86,
                    "time": 377.24128500000865,
                    "velocity": 0.33070866141732286,
                    "duration": 0.22988500000002432
                },
                {
                    "name": "F5",
                    "midi": 77,
                    "time": 377.47117000000867,
                    "velocity": 0.3543307086614173,
                    "duration": 0.22988500000002432
                },
                {
                    "name": "D6",
                    "midi": 86,
                    "time": 377.7010550000087,
                    "velocity": 0.33070866141732286,
                    "duration": 0.22988500000002432
                },
                {
                    "name": "G4",
                    "midi": 67,
                    "time": 377.9309400000087,
                    "velocity": 0.3937007874015748,
                    "duration": 0.22988500000002432
                },
                {
                    "name": "C6",
                    "midi": 84,
                    "time": 378.16082500000874,
                    "velocity": 0.33070866141732286,
                    "duration": 0.22988500000002432
                },
                {
                    "name": "C5",
                    "midi": 72,
                    "time": 378.39071000000877,
                    "velocity": 0.3543307086614173,
                    "duration": 0.22988500000002432
                },
                {
                    "name": "C6",
                    "midi": 84,
                    "time": 378.6205950000088,
                    "velocity": 0.33070866141732286,
                    "duration": 0.22988500000002432
                },
                {
                    "name": "D#5",
                    "midi": 75,
                    "time": 378.8504800000088,
                    "velocity": 0.3543307086614173,
                    "duration": 0.22988500000002432
                },
                {
                    "name": "C6",
                    "midi": 84,
                    "time": 379.08036500000884,
                    "velocity": 0.33070866141732286,
                    "duration": 0.22988500000002432
                },
                {
                    "name": "F4",
                    "midi": 65,
                    "time": 379.31025000000886,
                    "velocity": 0.3937007874015748,
                    "duration": 0.22988500000002432
                },
                {
                    "name": "A#5",
                    "midi": 82,
                    "time": 379.5401350000089,
                    "velocity": 0.33070866141732286,
                    "duration": 0.22988500000002432
                },
                {
                    "name": "A#4",
                    "midi": 70,
                    "time": 379.7700200000089,
                    "velocity": 0.3543307086614173,
                    "duration": 0.22988500000002432
                },
                {
                    "name": "A#5",
                    "midi": 82,
                    "time": 379.99990500000894,
                    "velocity": 0.33858267716535434,
                    "duration": 0.22988500000002432
                },
                {
                    "name": "D5",
                    "midi": 74,
                    "time": 380.22979000000896,
                    "velocity": 0.3543307086614173,
                    "duration": 0.22988500000002432
                },
                {
                    "name": "A#5",
                    "midi": 82,
                    "time": 380.459675000009,
                    "velocity": 0.3228346456692913,
                    "duration": 0.22988500000002432
                },
                {
                    "name": "D#4",
                    "midi": 63,
                    "time": 380.689560000009,
                    "velocity": 0.3937007874015748,
                    "duration": 0.22988500000002432
                },
                {
                    "name": "A5",
                    "midi": 81,
                    "time": 380.91944500000903,
                    "velocity": 0.33070866141732286,
                    "duration": 0.22988500000002432
                },
                {
                    "name": "A4",
                    "midi": 69,
                    "time": 381.14933000000906,
                    "velocity": 0.3543307086614173,
                    "duration": 0.22988500000002432
                },
                {
                    "name": "A5",
                    "midi": 81,
                    "time": 381.3792150000091,
                    "velocity": 0.33858267716535434,
                    "duration": 0.22988500000002432
                },
                {
                    "name": "C5",
                    "midi": 72,
                    "time": 381.6091000000091,
                    "velocity": 0.3543307086614173,
                    "duration": 0.22988500000002432
                },
                {
                    "name": "A5",
                    "midi": 81,
                    "time": 381.83898500000913,
                    "velocity": 0.3228346456692913,
                    "duration": 0.22988500000002432
                },
                {
                    "name": "D#5",
                    "midi": 75,
                    "time": 382.06887000000916,
                    "velocity": 0.3937007874015748,
                    "duration": 0.22988500000002432
                },
                {
                    "name": "A5",
                    "midi": 81,
                    "time": 382.2987550000092,
                    "velocity": 0.33070866141732286,
                    "duration": 0.22988500000002432
                },
                {
                    "name": "C5",
                    "midi": 72,
                    "time": 382.5286400000092,
                    "velocity": 0.3543307086614173,
                    "duration": 0.22988500000002432
                },
                {
                    "name": "A5",
                    "midi": 81,
                    "time": 382.75852500000923,
                    "velocity": 0.33070866141732286,
                    "duration": 0.22988500000002432
                },
                {
                    "name": "A4",
                    "midi": 69,
                    "time": 382.98841000000925,
                    "velocity": 0.3543307086614173,
                    "duration": 0.22988500000002432
                },
                {
                    "name": "A5",
                    "midi": 81,
                    "time": 383.2182950000093,
                    "velocity": 0.33070866141732286,
                    "duration": 0.22988500000002432
                },
                {
                    "name": "D#4",
                    "midi": 63,
                    "time": 383.4481800000093,
                    "velocity": 0.3937007874015748,
                    "duration": 0.22988500000002432
                },
                {
                    "name": "A5",
                    "midi": 81,
                    "time": 383.6780650000093,
                    "velocity": 0.33070866141732286,
                    "duration": 0.22988500000002432
                },
                {
                    "name": "A4",
                    "midi": 69,
                    "time": 383.90795000000935,
                    "velocity": 0.3543307086614173,
                    "duration": 0.22988500000002432
                },
                {
                    "name": "A5",
                    "midi": 81,
                    "time": 384.1378350000094,
                    "velocity": 0.3543307086614173,
                    "duration": 0.22988500000002432
                },
                {
                    "name": "C5",
                    "midi": 72,
                    "time": 384.3677200000094,
                    "velocity": 0.3543307086614173,
                    "duration": 0.22988500000002432
                },
                {
                    "name": "A5",
                    "midi": 81,
                    "time": 384.5976050000094,
                    "velocity": 0.33070866141732286,
                    "duration": 0.22988500000002432
                },
                {
                    "name": "A4",
                    "midi": 69,
                    "time": 384.82749000000945,
                    "velocity": 0.4645669291338583,
                    "duration": 0.22988500000002432
                },
                {
                    "name": "C6",
                    "midi": 84,
                    "time": 385.0573750000095,
                    "velocity": 0.33858267716535434,
                    "duration": 0.22988500000002432
                },
                {
                    "name": "C5",
                    "midi": 72,
                    "time": 385.2872600000095,
                    "velocity": 0.3937007874015748,
                    "duration": 0.22988500000002432
                },
                {
                    "name": "C6",
                    "midi": 84,
                    "time": 385.5171450000095,
                    "velocity": 0.33070866141732286,
                    "duration": 0.22988500000002432
                },
                {
                    "name": "D#5",
                    "midi": 75,
                    "time": 385.74703000000954,
                    "velocity": 0.3700787401574803,
                    "duration": 0.22988500000002432
                },
                {
                    "name": "C6",
                    "midi": 84,
                    "time": 385.97691500000957,
                    "velocity": 0.33070866141732286,
                    "duration": 0.22988500000002432
                },
                {
                    "name": "D#4",
                    "midi": 63,
                    "time": 386.2068000000096,
                    "velocity": 0.3937007874015748,
                    "duration": 0.22988500000002432
                },
                {
                    "name": "A5",
                    "midi": 81,
                    "time": 386.4366850000096,
                    "velocity": 0.33070866141732286,
                    "duration": 0.22988500000002432
                },
                {
                    "name": "A4",
                    "midi": 69,
                    "time": 386.66657000000964,
                    "velocity": 0.3543307086614173,
                    "duration": 0.22988500000002432
                },
                {
                    "name": "A5",
                    "midi": 81,
                    "time": 386.89645500000967,
                    "velocity": 0.33070866141732286,
                    "duration": 0.22988500000002432
                },
                {
                    "name": "C5",
                    "midi": 72,
                    "time": 387.1263400000097,
                    "velocity": 0.3543307086614173,
                    "duration": 0.22988500000002432
                },
                {
                    "name": "A5",
                    "midi": 81,
                    "time": 387.3562250000097,
                    "velocity": 0.33070866141732286,
                    "duration": 0.22988500000002432
                },
                {
                    "name": "E4",
                    "midi": 64,
                    "time": 387.58611000000974,
                    "velocity": 0.3937007874015748,
                    "duration": 0.22988500000002432
                },
                {
                    "name": "G5",
                    "midi": 79,
                    "time": 387.81599500000976,
                    "velocity": 0.33070866141732286,
                    "duration": 0.22988500000002432
                },
                {
                    "name": "A#4",
                    "midi": 70,
                    "time": 388.0458800000098,
                    "velocity": 0.3543307086614173,
                    "duration": 0.22988500000002432
                },
                {
                    "name": "G5",
                    "midi": 79,
                    "time": 388.2757650000098,
                    "velocity": 0.33858267716535434,
                    "duration": 0.22988500000002432
                },
                {
                    "name": "E5",
                    "midi": 76,
                    "time": 388.50565000000984,
                    "velocity": 0.3543307086614173,
                    "duration": 0.22988500000002432
                },
                {
                    "name": "G5",
                    "midi": 79,
                    "time": 388.73553500000986,
                    "velocity": 0.3228346456692913,
                    "duration": 0.22988500000002432
                },
                {
                    "name": "G4",
                    "midi": 67,
                    "time": 388.9654200000099,
                    "velocity": 0.4566929133858268,
                    "duration": 0.22988500000002432
                },
                {
                    "name": "A#5",
                    "midi": 82,
                    "time": 389.1953050000099,
                    "velocity": 0.36220472440944884,
                    "duration": 0.22988500000002432
                },
                {
                    "name": "A#4",
                    "midi": 70,
                    "time": 389.42519000000993,
                    "velocity": 0.3937007874015748,
                    "duration": 0.22988500000002432
                },
                {
                    "name": "A#5",
                    "midi": 82,
                    "time": 389.65507500000996,
                    "velocity": 0.33858267716535434,
                    "duration": 0.22988500000002432
                },
                {
                    "name": "D5",
                    "midi": 74,
                    "time": 389.88496000001,
                    "velocity": 0.3543307086614173,
                    "duration": 0.22988500000002432
                },
                {
                    "name": "A#5",
                    "midi": 82,
                    "time": 390.11484500001,
                    "velocity": 0.3228346456692913,
                    "duration": 0.22988500000002432
                },
                {
                    "name": "G5",
                    "midi": 79,
                    "time": 390.34473000001003,
                    "velocity": 0.3937007874015748,
                    "duration": 0.22988500000002432
                },
                {
                    "name": "A#5",
                    "midi": 82,
                    "time": 390.57461500001006,
                    "velocity": 0.33070866141732286,
                    "duration": 0.22988500000002432
                },
                {
                    "name": "D5",
                    "midi": 74,
                    "time": 390.8045000000101,
                    "velocity": 0.3543307086614173,
                    "duration": 0.22988500000002432
                },
                {
                    "name": "A#5",
                    "midi": 82,
                    "time": 391.0343850000101,
                    "velocity": 0.33070866141732286,
                    "duration": 0.22988500000002432
                },
                {
                    "name": "A#4",
                    "midi": 70,
                    "time": 391.26427000001013,
                    "velocity": 0.3543307086614173,
                    "duration": 0.22988500000002432
                },
                {
                    "name": "A#5",
                    "midi": 82,
                    "time": 391.49415500001015,
                    "velocity": 0.33070866141732286,
                    "duration": 0.22988500000002432
                },
                {
                    "name": "F#4",
                    "midi": 66,
                    "time": 391.7240400000102,
                    "velocity": 0.3937007874015748,
                    "duration": 0.22988500000002432
                },
                {
                    "name": "A5",
                    "midi": 81,
                    "time": 391.9539250000102,
                    "velocity": 0.33070866141732286,
                    "duration": 0.22988500000002432
                },
                {
                    "name": "A4",
                    "midi": 69,
                    "time": 392.1838100000102,
                    "velocity": 0.3543307086614173,
                    "duration": 0.22988500000002432
                },
                {
                    "name": "A5",
                    "midi": 81,
                    "time": 392.41369500001025,
                    "velocity": 0.3543307086614173,
                    "duration": 0.22988500000002432
                },
                {
                    "name": "D5",
                    "midi": 74,
                    "time": 392.6435800000103,
                    "velocity": 0.3543307086614173,
                    "duration": 0.22988500000002432
                },
                {
                    "name": "A5",
                    "midi": 81,
                    "time": 392.8734650000103,
                    "velocity": 0.33070866141732286,
                    "duration": 0.22988500000002432
                },
                {
                    "name": "F#4",
                    "midi": 66,
                    "time": 393.1033500000103,
                    "velocity": 0.3937007874015748,
                    "duration": 0.22988500000002432
                },
                {
                    "name": "A5",
                    "midi": 81,
                    "time": 393.33323500001035,
                    "velocity": 0.33858267716535434,
                    "duration": 0.22988500000002432
                },
                {
                    "name": "A4",
                    "midi": 69,
                    "time": 393.5631200000104,
                    "velocity": 0.3543307086614173,
                    "duration": 0.22988500000002432
                },
                {
                    "name": "A5",
                    "midi": 81,
                    "time": 393.7930050000104,
                    "velocity": 0.33070866141732286,
                    "duration": 0.22988500000002432
                },
                {
                    "name": "D#5",
                    "midi": 75,
                    "time": 394.0228900000104,
                    "velocity": 0.3543307086614173,
                    "duration": 0.22988500000002432
                },
                {
                    "name": "A5",
                    "midi": 81,
                    "time": 394.25277500001044,
                    "velocity": 0.33070866141732286,
                    "duration": 0.22988500000002432
                },
                {
                    "name": "G4",
                    "midi": 67,
                    "time": 394.48266000001047,
                    "velocity": 0.3937007874015748,
                    "duration": 0.22988500000002432
                },
                {
                    "name": "G5",
                    "midi": 79,
                    "time": 394.7125450000105,
                    "velocity": 0.33070866141732286,
                    "duration": 0.22988500000002432
                },
                {
                    "name": "A#4",
                    "midi": 70,
                    "time": 394.9424300000105,
                    "velocity": 0.3543307086614173,
                    "duration": 0.22988500000002432
                },
                {
                    "name": "G5",
                    "midi": 79,
                    "time": 395.17231500001054,
                    "velocity": 0.33070866141732286,
                    "duration": 0.22988500000002432
                },
                {
                    "name": "D5",
                    "midi": 74,
                    "time": 395.40220000001057,
                    "velocity": 0.3543307086614173,
                    "duration": 0.22988500000002432
                },
                {
                    "name": "G5",
                    "midi": 79,
                    "time": 395.6320850000106,
                    "velocity": 0.33070866141732286,
                    "duration": 0.22988500000002432
                },
                {
                    "name": "F#4",
                    "midi": 66,
                    "time": 395.8619700000106,
                    "velocity": 0.3937007874015748,
                    "duration": 0.22988500000002432
                },
                {
                    "name": "F#5",
                    "midi": 78,
                    "time": 396.09185500001064,
                    "velocity": 0.33070866141732286,
                    "duration": 0.22988500000002432
                },
                {
                    "name": "A4",
                    "midi": 69,
                    "time": 396.32174000001066,
                    "velocity": 0.3543307086614173,
                    "duration": 0.22988500000002432
                },
                {
                    "name": "F#5",
                    "midi": 78,
                    "time": 396.5516250000107,
                    "velocity": 0.33858267716535434,
                    "duration": 0.22988500000002432
                },
                {
                    "name": "D5",
                    "midi": 74,
                    "time": 396.7815100000107,
                    "velocity": 0.3543307086614173,
                    "duration": 0.22988500000002432
                },
                {
                    "name": "F#5",
                    "midi": 78,
                    "time": 397.01139500001074,
                    "velocity": 0.3228346456692913,
                    "duration": 0.22988500000002432
                },
                {
                    "name": "F5",
                    "midi": 77,
                    "time": 397.4711650000108,
                    "velocity": 0.36220472440944884,
                    "duration": 0.22988500000002432
                },
                {
                    "name": "G#4",
                    "midi": 68,
                    "time": 397.7010500000108,
                    "velocity": 0.3937007874015748,
                    "duration": 0.22988500000002432
                },
                {
                    "name": "F5",
                    "midi": 77,
                    "time": 397.93093500001083,
                    "velocity": 0.33858267716535434,
                    "duration": 0.22988500000002432
                },
                {
                    "name": "B4",
                    "midi": 71,
                    "time": 398.16082000001086,
                    "velocity": 0.3543307086614173,
                    "duration": 0.22988500000002432
                },
                {
                    "name": "F5",
                    "midi": 77,
                    "time": 398.3907050000109,
                    "velocity": 0.3228346456692913,
                    "duration": 0.22988500000002432
                },
                {
                    "name": "D5",
                    "midi": 74,
                    "time": 398.6205900000109,
                    "velocity": 0.3937007874015748,
                    "duration": 0.22988500000002432
                },
                {
                    "name": "F5",
                    "midi": 77,
                    "time": 398.85047500001093,
                    "velocity": 0.33070866141732286,
                    "duration": 0.22988500000002432
                },
                {
                    "name": "B4",
                    "midi": 71,
                    "time": 399.08036000001096,
                    "velocity": 0.3543307086614173,
                    "duration": 0.22988500000002432
                },
                {
                    "name": "F5",
                    "midi": 77,
                    "time": 399.310245000011,
                    "velocity": 0.33070866141732286,
                    "duration": 0.22988500000002432
                },
                {
                    "name": "G#4",
                    "midi": 68,
                    "time": 399.540130000011,
                    "velocity": 0.3543307086614173,
                    "duration": 0.22988500000002432
                },
                {
                    "name": "F5",
                    "midi": 77,
                    "time": 399.770015000011,
                    "velocity": 0.33070866141732286,
                    "duration": 0.22988500000002432
                },
                {
                    "name": "E5",
                    "midi": 76,
                    "time": 400.2297850000111,
                    "velocity": 0.33070866141732286,
                    "duration": 0.22988500000002432
                },
                {
                    "name": "G4",
                    "midi": 67,
                    "time": 400.4596700000111,
                    "velocity": 0.3543307086614173,
                    "duration": 0.22988500000002432
                },
                {
                    "name": "E5",
                    "midi": 76,
                    "time": 400.6895550000111,
                    "velocity": 0.3543307086614173,
                    "duration": 0.22988500000002432
                },
                {
                    "name": "C5",
                    "midi": 72,
                    "time": 400.91944000001115,
                    "velocity": 0.3543307086614173,
                    "duration": 0.22988500000002432
                },
                {
                    "name": "E5",
                    "midi": 76,
                    "time": 401.1493250000112,
                    "velocity": 0.33070866141732286,
                    "duration": 0.22988500000002432
                },
                {
                    "name": "D#5",
                    "midi": 75,
                    "time": 401.6090950000112,
                    "velocity": 0.33858267716535434,
                    "duration": 0.22988500000002432
                },
                {
                    "name": "G4",
                    "midi": 67,
                    "time": 401.83898000001125,
                    "velocity": 0.3543307086614173,
                    "duration": 0.22988500000002432
                },
                {
                    "name": "D#5",
                    "midi": 75,
                    "time": 402.0688650000113,
                    "velocity": 0.33070866141732286,
                    "duration": 0.22988500000002432
                },
                {
                    "name": "C5",
                    "midi": 72,
                    "time": 402.2987500000113,
                    "velocity": 0.3543307086614173,
                    "duration": 0.22988500000002432
                },
                {
                    "name": "D#5",
                    "midi": 75,
                    "time": 402.5286350000113,
                    "velocity": 0.33070866141732286,
                    "duration": 0.22988500000002432
                },
                {
                    "name": "D5",
                    "midi": 74,
                    "time": 402.98840500001137,
                    "velocity": 0.33070866141732286,
                    "duration": 0.22988500000002432
                },
                {
                    "name": "G4",
                    "midi": 67,
                    "time": 403.2182900000114,
                    "velocity": 0.3543307086614173,
                    "duration": 0.22988500000002432
                },
                {
                    "name": "D5",
                    "midi": 74,
                    "time": 403.4481750000114,
                    "velocity": 0.33070866141732286,
                    "duration": 0.22988500000002432
                },
                {
                    "name": "B4",
                    "midi": 71,
                    "time": 403.67806000001144,
                    "velocity": 0.3543307086614173,
                    "duration": 0.22988500000002432
                },
                {
                    "name": "D5",
                    "midi": 74,
                    "time": 403.90794500001147,
                    "velocity": 0.33070866141732286,
                    "duration": 0.22988500000002432
                },
                {
                    "name": "D#5",
                    "midi": 75,
                    "time": 404.3677150000115,
                    "velocity": 0.33070866141732286,
                    "duration": 0.22988500000002432
                },
                {
                    "name": "G4",
                    "midi": 67,
                    "time": 404.59760000001154,
                    "velocity": 0.3543307086614173,
                    "duration": 0.22988500000002432
                },
                {
                    "name": "D#5",
                    "midi": 75,
                    "time": 404.82748500001156,
                    "velocity": 0.33858267716535434,
                    "duration": 0.22988500000002432
                },
                {
                    "name": "C5",
                    "midi": 72,
                    "time": 405.0573700000116,
                    "velocity": 0.3543307086614173,
                    "duration": 0.22988500000002432
                },
                {
                    "name": "D#5",
                    "midi": 75,
                    "time": 405.2872550000116,
                    "velocity": 0.3228346456692913,
                    "duration": 0.22988500000002432
                },
                {
                    "name": "D#5",
                    "midi": 75,
                    "time": 405.74702500001166,
                    "velocity": 0.36220472440944884,
                    "duration": 0.22988500000002432
                },
                {
                    "name": "G4",
                    "midi": 67,
                    "time": 405.9769100000117,
                    "velocity": 0.3937007874015748,
                    "duration": 0.22988500000002432
                },
                {
                    "name": "D#5",
                    "midi": 75,
                    "time": 406.2067950000117,
                    "velocity": 0.33858267716535434,
                    "duration": 0.22988500000002432
                },
                {
                    "name": "G#4",
                    "midi": 68,
                    "time": 406.43668000001173,
                    "velocity": 0.3543307086614173,
                    "duration": 0.22988500000002432
                },
                {
                    "name": "D#5",
                    "midi": 75,
                    "time": 406.66656500001176,
                    "velocity": 0.3228346456692913,
                    "duration": 0.22988500000002432
                },
                {
                    "name": "C5",
                    "midi": 72,
                    "time": 406.8964500000118,
                    "velocity": 0.3937007874015748,
                    "duration": 0.22988500000002432
                },
                {
                    "name": "D#5",
                    "midi": 75,
                    "time": 407.1263350000118,
                    "velocity": 0.33070866141732286,
                    "duration": 0.22988500000002432
                },
                {
                    "name": "G4",
                    "midi": 67,
                    "time": 407.35622000001183,
                    "velocity": 0.3543307086614173,
                    "duration": 0.22988500000002432
                },
                {
                    "name": "D#5",
                    "midi": 75,
                    "time": 407.58610500001186,
                    "velocity": 0.33070866141732286,
                    "duration": 0.22988500000002432
                },
                {
                    "name": "G#4",
                    "midi": 68,
                    "time": 407.8159900000119,
                    "velocity": 0.3543307086614173,
                    "duration": 0.22988500000002432
                },
                {
                    "name": "D#5",
                    "midi": 75,
                    "time": 408.0458750000119,
                    "velocity": 0.33070866141732286,
                    "duration": 0.22988500000002432
                },
                {
                    "name": "D#5",
                    "midi": 75,
                    "time": 408.50564500001195,
                    "velocity": 0.33070866141732286,
                    "duration": 0.22988500000002432
                },
                {
                    "name": "G#4",
                    "midi": 68,
                    "time": 408.735530000012,
                    "velocity": 0.3543307086614173,
                    "duration": 0.22988500000002432
                },
                {
                    "name": "D#5",
                    "midi": 75,
                    "time": 408.965415000012,
                    "velocity": 0.3543307086614173,
                    "duration": 0.22988500000002432
                },
                {
                    "name": "A4",
                    "midi": 69,
                    "time": 409.195300000012,
                    "velocity": 0.3543307086614173,
                    "duration": 0.22988500000002432
                },
                {
                    "name": "D#5",
                    "midi": 75,
                    "time": 409.42518500001205,
                    "velocity": 0.33070866141732286,
                    "duration": 0.22988500000002432
                },
                {
                    "name": "C5",
                    "midi": 72,
                    "time": 409.6550700000121,
                    "velocity": 0.33070866141732286,
                    "duration": 0.22988500000002432
                },
                {
                    "name": "D#5",
                    "midi": 75,
                    "time": 409.8849550000121,
                    "velocity": 0.33858267716535434,
                    "duration": 0.22988500000002432
                },
                {
                    "name": "G#4",
                    "midi": 68,
                    "time": 410.1148400000121,
                    "velocity": 0.3543307086614173,
                    "duration": 0.22988500000002432
                },
                {
                    "name": "D#5",
                    "midi": 75,
                    "time": 410.34472500001215,
                    "velocity": 0.33070866141732286,
                    "duration": 0.22988500000002432
                },
                {
                    "name": "A4",
                    "midi": 69,
                    "time": 410.57461000001217,
                    "velocity": 0.3543307086614173,
                    "duration": 0.22988500000002432
                },
                {
                    "name": "D#5",
                    "midi": 75,
                    "time": 410.8044950000122,
                    "velocity": 0.33070866141732286,
                    "duration": 0.22988500000002432
                },
                {
                    "name": "D5",
                    "midi": 74,
                    "time": 411.26426500001224,
                    "velocity": 0.33070866141732286,
                    "duration": 0.22988500000002432
                },
                {
                    "name": "A4",
                    "midi": 69,
                    "time": 411.49415000001227,
                    "velocity": 0.3543307086614173,
                    "duration": 0.22988500000002432
                },
                {
                    "name": "D5",
                    "midi": 74,
                    "time": 411.7240350000123,
                    "velocity": 0.33070866141732286,
                    "duration": 0.22988500000002432
                },
                {
                    "name": "A#4",
                    "midi": 70,
                    "time": 411.9539200000123,
                    "velocity": 0.3543307086614173,
                    "duration": 0.22988500000002432
                },
                {
                    "name": "D5",
                    "midi": 74,
                    "time": 412.18380500001234,
                    "velocity": 0.33070866141732286,
                    "duration": 0.22988500000002432
                },
                {
                    "name": "B4",
                    "midi": 71,
                    "time": 412.41369000001237,
                    "velocity": 0.33070866141732286,
                    "duration": 0.22988500000002432
                },
                {
                    "name": "D5",
                    "midi": 74,
                    "time": 412.6435750000124,
                    "velocity": 0.33070866141732286,
                    "duration": 0.22988500000002432
                },
                {
                    "name": "G4",
                    "midi": 67,
                    "time": 412.8734600000124,
                    "velocity": 0.3543307086614173,
                    "duration": 0.22988500000002432
                },
                {
                    "name": "D5",
                    "midi": 74,
                    "time": 413.10334500001244,
                    "velocity": 0.33858267716535434,
                    "duration": 0.22988500000002432
                },
                {
                    "name": "G#4",
                    "midi": 68,
                    "time": 413.33323000001246,
                    "velocity": 0.3543307086614173,
                    "duration": 0.22988500000002432
                },
                {
                    "name": "D5",
                    "midi": 74,
                    "time": 413.5631150000125,
                    "velocity": 0.3228346456692913,
                    "duration": 0.22988500000002432
                },
                {
                    "name": "D5",
                    "midi": 74,
                    "time": 414.02288500001254,
                    "velocity": 0.33070866141732286,
                    "duration": 0.22988500000002432
                },
                {
                    "name": "G4",
                    "midi": 67,
                    "time": 414.25277000001256,
                    "velocity": 0.3543307086614173,
                    "duration": 0.22988500000002432
                },
                {
                    "name": "D5",
                    "midi": 74,
                    "time": 414.4826550000126,
                    "velocity": 0.33070866141732286,
                    "duration": 0.22988500000002432
                },
                {
                    "name": "A4",
                    "midi": 69,
                    "time": 414.7125400000126,
                    "velocity": 0.3543307086614173,
                    "duration": 0.22988500000002432
                },
                {
                    "name": "D5",
                    "midi": 74,
                    "time": 414.94242500001263,
                    "velocity": 0.33070866141732286,
                    "duration": 0.22988500000002432
                },
                {
                    "name": "A#4",
                    "midi": 70,
                    "time": 415.17231000001266,
                    "velocity": 0.33070866141732286,
                    "duration": 0.22988500000002432
                },
                {
                    "name": "C#5",
                    "midi": 73,
                    "time": 415.4021950000127,
                    "velocity": 0.33070866141732286,
                    "duration": 0.22988500000002432
                },
                {
                    "name": "F#4",
                    "midi": 66,
                    "time": 415.6320800000127,
                    "velocity": 0.3543307086614173,
                    "duration": 0.22988500000002432
                },
                {
                    "name": "C#5",
                    "midi": 73,
                    "time": 415.86196500001273,
                    "velocity": 0.33858267716535434,
                    "duration": 0.22988500000002432
                },
                {
                    "name": "G4",
                    "midi": 67,
                    "time": 416.09185000001276,
                    "velocity": 0.3543307086614173,
                    "duration": 0.22988500000002432
                },
                {
                    "name": "C#5",
                    "midi": 73,
                    "time": 416.3217350000128,
                    "velocity": 0.3228346456692913,
                    "duration": 0.22988500000002432
                },
                {
                    "name": "D5",
                    "midi": 74,
                    "time": 416.7815050000128,
                    "velocity": 0.30708661417322836,
                    "duration": 0.22988500000002432
                },
                {
                    "name": "F#4",
                    "midi": 66,
                    "time": 417.01139000001285,
                    "velocity": 0.33070866141732286,
                    "duration": 0.22988500000002432
                },
                {
                    "name": "D5",
                    "midi": 74,
                    "time": 417.2412750000129,
                    "velocity": 0.30708661417322836,
                    "duration": 0.22988500000002432
                },
                {
                    "name": "G4",
                    "midi": 67,
                    "time": 417.4711600000129,
                    "velocity": 0.3228346456692913,
                    "duration": 0.22988500000002432
                },
                {
                    "name": "D5",
                    "midi": 74,
                    "time": 417.7010450000129,
                    "velocity": 0.2992125984251969,
                    "duration": 0.22988500000002432
                },
                {
                    "name": "A#4",
                    "midi": 70,
                    "time": 418.160815000013,
                    "velocity": 0.29133858267716534,
                    "duration": 0.22988500000002432
                },
                {
                    "name": "C#4",
                    "midi": 61,
                    "time": 418.390700000013,
                    "velocity": 0.31496062992125984,
                    "duration": 0.22988500000002432
                },
                {
                    "name": "A#4",
                    "midi": 70,
                    "time": 418.620585000013,
                    "velocity": 0.2992125984251969,
                    "duration": 0.22988500000002432
                },
                {
                    "name": "D4",
                    "midi": 62,
                    "time": 418.85047000001305,
                    "velocity": 0.30708661417322836,
                    "duration": 0.22988500000002432
                },
                {
                    "name": "A#4",
                    "midi": 70,
                    "time": 419.08035500001307,
                    "velocity": 0.28346456692913385,
                    "duration": 0.22988500000002432
                },
                {
                    "name": "C5",
                    "midi": 72,
                    "time": 419.5401250000131,
                    "velocity": 0.28346456692913385,
                    "duration": 0.22988500000002432
                },
                {
                    "name": "D#4",
                    "midi": 63,
                    "time": 419.77001000001314,
                    "velocity": 0.2992125984251969,
                    "duration": 0.22988500000002432
                },
                {
                    "name": "C5",
                    "midi": 72,
                    "time": 419.99989500001317,
                    "velocity": 0.28346456692913385,
                    "duration": 0.22988500000002432
                },
                {
                    "name": "D4",
                    "midi": 62,
                    "time": 420.2297800000132,
                    "velocity": 0.29133858267716534,
                    "duration": 0.22988500000002432
                },
                {
                    "name": "C5",
                    "midi": 72,
                    "time": 420.4596650000132,
                    "velocity": 0.2755905511811024,
                    "duration": 0.22988500000002432
                },
                {
                    "name": "A4",
                    "midi": 69,
                    "time": 420.91943500001327,
                    "velocity": 0.2755905511811024,
                    "duration": 0.22988500000002432
                },
                {
                    "name": "D#4",
                    "midi": 63,
                    "time": 421.1493200000133,
                    "velocity": 0.28346456692913385,
                    "duration": 0.22988500000002432
                },
                {
                    "name": "A4",
                    "midi": 69,
                    "time": 421.3792050000133,
                    "velocity": 0.2755905511811024,
                    "duration": 0.22988500000002432
                },
                {
                    "name": "D4",
                    "midi": 62,
                    "time": 421.60909000001334,
                    "velocity": 0.28346456692913385,
                    "duration": 0.22988500000002432
                },
                {
                    "name": "A4",
                    "midi": 69,
                    "time": 421.83897500001336,
                    "velocity": 0.25984251968503935,
                    "duration": 0.22988500000002432
                },
                {
                    "name": "G4",
                    "midi": 67,
                    "time": 422.2987450000134,
                    "velocity": 0.23622047244094488,
                    "duration": 0.22988500000002432
                },
                {
                    "name": "A#4",
                    "midi": 70,
                    "time": 422.2987450000134,
                    "velocity": 0.28346456692913385,
                    "duration": 0.22988500000002432
                },
                {
                    "name": "C#4",
                    "midi": 61,
                    "time": 422.52863000001344,
                    "velocity": 0.2992125984251969,
                    "duration": 0.22988500000002432
                },
                {
                    "name": "G4",
                    "midi": 67,
                    "time": 422.75851500001346,
                    "velocity": 0.2283464566929134,
                    "duration": 0.22988500000002432
                },
                {
                    "name": "A#4",
                    "midi": 70,
                    "time": 422.75851500001346,
                    "velocity": 0.28346456692913385,
                    "duration": 0.22988500000002432
                },
                {
                    "name": "D4",
                    "midi": 62,
                    "time": 422.9884000000135,
                    "velocity": 0.29133858267716534,
                    "duration": 0.22988500000002432
                },
                {
                    "name": "G4",
                    "midi": 67,
                    "time": 423.2182850000135,
                    "velocity": 0.2283464566929134,
                    "duration": 0.22988500000002432
                },
                {
                    "name": "A#4",
                    "midi": 70,
                    "time": 423.2182850000135,
                    "velocity": 0.28346456692913385,
                    "duration": 0.22988500000002432
                },
                {
                    "name": "A#4",
                    "midi": 70,
                    "time": 423.67805500001356,
                    "velocity": 0.23622047244094488,
                    "duration": 0.22988500000002432
                },
                {
                    "name": "D5",
                    "midi": 74,
                    "time": 423.67805500001356,
                    "velocity": 0.28346456692913385,
                    "duration": 0.22988500000002432
                },
                {
                    "name": "F#4",
                    "midi": 66,
                    "time": 423.9079400000136,
                    "velocity": 0.33858267716535434,
                    "duration": 0.22988500000002432
                },
                {
                    "name": "A#4",
                    "midi": 70,
                    "time": 424.1378250000136,
                    "velocity": 0.2204724409448819,
                    "duration": 0.22988500000002432
                },
                {
                    "name": "D5",
                    "midi": 74,
                    "time": 424.1378250000136,
                    "velocity": 0.28346456692913385,
                    "duration": 0.22988500000002432
                },
                {
                    "name": "G4",
                    "midi": 67,
                    "time": 424.36771000001363,
                    "velocity": 0.33858267716535434,
                    "duration": 0.22988500000002432
                },
                {
                    "name": "A#4",
                    "midi": 70,
                    "time": 424.59759500001365,
                    "velocity": 0.2440944881889764,
                    "duration": 0.22988500000002432
                },
                {
                    "name": "D5",
                    "midi": 74,
                    "time": 424.59759500001365,
                    "velocity": 0.28346456692913385,
                    "duration": 0.22988500000002432
                },
                {
                    "name": "G4",
                    "midi": 67,
                    "time": 425.0573650000137,
                    "velocity": 0.2677165354330709,
                    "duration": 0.22988500000002432
                },
                {
                    "name": "A#4",
                    "midi": 70,
                    "time": 425.0573650000137,
                    "velocity": 0.30708661417322836,
                    "duration": 0.22988500000002432
                },
                {
                    "name": "C#4",
                    "midi": 61,
                    "time": 425.2872500000137,
                    "velocity": 0.33070866141732286,
                    "duration": 0.22988500000002432
                },
                {
                    "name": "G4",
                    "midi": 67,
                    "time": 425.51713500001375,
                    "velocity": 0.25984251968503935,
                    "duration": 0.22988500000002432
                },
                {
                    "name": "A#4",
                    "midi": 70,
                    "time": 425.51713500001375,
                    "velocity": 0.31496062992125984,
                    "duration": 0.22988500000002432
                },
                {
                    "name": "D4",
                    "midi": 62,
                    "time": 425.7470200000138,
                    "velocity": 0.33070866141732286,
                    "duration": 0.22988500000002432
                },
                {
                    "name": "G4",
                    "midi": 67,
                    "time": 425.9769050000138,
                    "velocity": 0.25984251968503935,
                    "duration": 0.22988500000002432
                },
                {
                    "name": "A#4",
                    "midi": 70,
                    "time": 425.9769050000138,
                    "velocity": 0.30708661417322836,
                    "duration": 0.22988500000002432
                },
                {
                    "name": "A#4",
                    "midi": 70,
                    "time": 426.43667500001385,
                    "velocity": 0.2677165354330709,
                    "duration": 0.22988500000002432
                },
                {
                    "name": "D5",
                    "midi": 74,
                    "time": 426.43667500001385,
                    "velocity": 0.3228346456692913,
                    "duration": 0.22988500000002432
                },
                {
                    "name": "F#4",
                    "midi": 66,
                    "time": 426.6665600000139,
                    "velocity": 0.3700787401574803,
                    "duration": 0.22988500000002432
                },
                {
                    "name": "A#4",
                    "midi": 70,
                    "time": 426.8964450000139,
                    "velocity": 0.25196850393700787,
                    "duration": 0.22988500000002432
                },
                {
                    "name": "D5",
                    "midi": 74,
                    "time": 426.8964450000139,
                    "velocity": 0.3228346456692913,
                    "duration": 0.22988500000002432
                },
                {
                    "name": "G4",
                    "midi": 67,
                    "time": 427.1263300000139,
                    "velocity": 0.3858267716535433,
                    "duration": 0.22988500000002432
                },
                {
                    "name": "A#4",
                    "midi": 70,
                    "time": 427.35621500001395,
                    "velocity": 0.2677165354330709,
                    "duration": 0.22988500000002432
                },
                {
                    "name": "D5",
                    "midi": 74,
                    "time": 427.35621500001395,
                    "velocity": 0.31496062992125984,
                    "duration": 0.22988500000002432
                },
                {
                    "name": "B4",
                    "midi": 71,
                    "time": 427.815985000014,
                    "velocity": 0.28346456692913385,
                    "duration": 0.22988500000002432
                },
                {
                    "name": "D5",
                    "midi": 74,
                    "time": 427.815985000014,
                    "velocity": 0.33858267716535434,
                    "duration": 0.22988500000002432
                },
                {
                    "name": "F#4",
                    "midi": 66,
                    "time": 428.045870000014,
                    "velocity": 0.3700787401574803,
                    "duration": 0.22988500000002432
                },
                {
                    "name": "B4",
                    "midi": 71,
                    "time": 428.27575500001404,
                    "velocity": 0.28346456692913385,
                    "duration": 0.22988500000002432
                },
                {
                    "name": "D5",
                    "midi": 74,
                    "time": 428.27575500001404,
                    "velocity": 0.3543307086614173,
                    "duration": 0.22988500000002432
                },
                {
                    "name": "G4",
                    "midi": 67,
                    "time": 428.50564000001407,
                    "velocity": 0.36220472440944884,
                    "duration": 0.22988500000002432
                },
                {
                    "name": "B4",
                    "midi": 71,
                    "time": 428.7355250000141,
                    "velocity": 0.29133858267716534,
                    "duration": 0.22988500000002432
                },
                {
                    "name": "D5",
                    "midi": 74,
                    "time": 428.7355250000141,
                    "velocity": 0.3464566929133858,
                    "duration": 0.22988500000002432
                },
                {
                    "name": "D5",
                    "midi": 74,
                    "time": 429.19529500001414,
                    "velocity": 0.29133858267716534,
                    "duration": 0.22988500000002432
                },
                {
                    "name": "F5",
                    "midi": 77,
                    "time": 429.19529500001414,
                    "velocity": 0.3543307086614173,
                    "duration": 0.22988500000002432
                },
                {
                    "name": "G#4",
                    "midi": 68,
                    "time": 429.42518000001417,
                    "velocity": 0.3937007874015748,
                    "duration": 0.22988500000002432
                },
                {
                    "name": "D5",
                    "midi": 74,
                    "time": 429.6550650000142,
                    "velocity": 0.28346456692913385,
                    "duration": 0.22988500000002432
                },
                {
                    "name": "F5",
                    "midi": 77,
                    "time": 429.6550650000142,
                    "velocity": 0.3543307086614173,
                    "duration": 0.22988500000002432
                },
                {
                    "name": "G4",
                    "midi": 67,
                    "time": 429.8849500000142,
                    "velocity": 0.4015748031496063,
                    "duration": 0.22988500000002432
                },
                {
                    "name": "D5",
                    "midi": 74,
                    "time": 430.11483500001424,
                    "velocity": 0.29133858267716534,
                    "duration": 0.22988500000002432
                },
                {
                    "name": "F5",
                    "midi": 77,
                    "time": 430.11483500001424,
                    "velocity": 0.3543307086614173,
                    "duration": 0.22988500000002432
                },
                {
                    "name": "D#5",
                    "midi": 75,
                    "time": 430.5746050000143,
                    "velocity": 0.3228346456692913,
                    "duration": 0.22988500000002432
                },
                {
                    "name": "G5",
                    "midi": 79,
                    "time": 430.5746050000143,
                    "velocity": 0.3858267716535433,
                    "duration": 0.22988500000002432
                },
                {
                    "name": "B4",
                    "midi": 71,
                    "time": 430.8044900000143,
                    "velocity": 0.4094488188976378,
                    "duration": 0.22988500000002432
                },
                {
                    "name": "D#5",
                    "midi": 75,
                    "time": 431.03437500001434,
                    "velocity": 0.31496062992125984,
                    "duration": 0.22988500000002432
                },
                {
                    "name": "G5",
                    "midi": 79,
                    "time": 431.03437500001434,
                    "velocity": 0.3858267716535433,
                    "duration": 0.22988500000002432
                },
                {
                    "name": "C5",
                    "midi": 72,
                    "time": 431.26426000001436,
                    "velocity": 0.3937007874015748,
                    "duration": 0.22988500000002432
                },
                {
                    "name": "D#5",
                    "midi": 75,
                    "time": 431.4941450000144,
                    "velocity": 0.30708661417322836,
                    "duration": 0.22988500000002432
                },
                {
                    "name": "G5",
                    "midi": 79,
                    "time": 431.4941450000144,
                    "velocity": 0.36220472440944884,
                    "duration": 0.22988500000002432
                },
                {
                    "name": "C5",
                    "midi": 72,
                    "time": 431.95391500001443,
                    "velocity": 0.30708661417322836,
                    "duration": 0.22988500000002432
                },
                {
                    "name": "D#5",
                    "midi": 75,
                    "time": 431.95391500001443,
                    "velocity": 0.36220472440944884,
                    "duration": 0.22988500000002432
                },
                {
                    "name": "F#4",
                    "midi": 66,
                    "time": 432.18380000001446,
                    "velocity": 0.4015748031496063,
                    "duration": 0.22988500000002432
                },
                {
                    "name": "C5",
                    "midi": 72,
                    "time": 432.4136850000145,
                    "velocity": 0.28346456692913385,
                    "duration": 0.22988500000002432
                },
                {
                    "name": "D#5",
                    "midi": 75,
                    "time": 432.4136850000145,
                    "velocity": 0.3543307086614173,
                    "duration": 0.22988500000002432
                },
                {
                    "name": "G4",
                    "midi": 67,
                    "time": 432.6435700000145,
                    "velocity": 0.4015748031496063,
                    "duration": 0.22988500000002432
                },
                {
                    "name": "C5",
                    "midi": 72,
                    "time": 432.87345500001453,
                    "velocity": 0.29133858267716534,
                    "duration": 0.22988500000002432
                },
                {
                    "name": "D#5",
                    "midi": 75,
                    "time": 432.87345500001453,
                    "velocity": 0.3543307086614173,
                    "duration": 0.22988500000002432
                },
                {
                    "name": "A#4",
                    "midi": 70,
                    "time": 433.3332250000146,
                    "velocity": 0.29133858267716534,
                    "duration": 0.22988500000002432
                },
                {
                    "name": "D5",
                    "midi": 74,
                    "time": 433.3332250000146,
                    "velocity": 0.3543307086614173,
                    "duration": 0.22988500000002432
                },
                {
                    "name": "F#4",
                    "midi": 66,
                    "time": 433.5631100000146,
                    "velocity": 0.3779527559055118,
                    "duration": 0.22988500000002432
                },
                {
                    "name": "A#4",
                    "midi": 70,
                    "time": 433.7929950000146,
                    "velocity": 0.28346456692913385,
                    "duration": 0.22988500000002432
                },
                {
                    "name": "D5",
                    "midi": 74,
                    "time": 433.7929950000146,
                    "velocity": 0.3464566929133858,
                    "duration": 0.22988500000002432
                },
                {
                    "name": "G4",
                    "midi": 67,
                    "time": 434.02288000001465,
                    "velocity": 0.3543307086614173,
                    "duration": 0.22988500000002432
                },
                {
                    "name": "A#4",
                    "midi": 70,
                    "time": 434.2527650000147,
                    "velocity": 0.28346456692913385,
                    "duration": 0.22988500000002432
                },
                {
                    "name": "D5",
                    "midi": 74,
                    "time": 434.2527650000147,
                    "velocity": 0.33070866141732286,
                    "duration": 0.22988500000002432
                },
                {
                    "name": "G4",
                    "midi": 67,
                    "time": 434.7125350000147,
                    "velocity": 0.2677165354330709,
                    "duration": 0.22988500000002432
                },
                {
                    "name": "A#4",
                    "midi": 70,
                    "time": 434.7125350000147,
                    "velocity": 0.3228346456692913,
                    "duration": 0.22988500000002432
                },
                {
                    "name": "C#4",
                    "midi": 61,
                    "time": 434.94242000001475,
                    "velocity": 0.36220472440944884,
                    "duration": 0.22988500000002432
                },
                {
                    "name": "G4",
                    "midi": 67,
                    "time": 435.1723050000148,
                    "velocity": 0.25196850393700787,
                    "duration": 0.22988500000002432
                },
                {
                    "name": "A#4",
                    "midi": 70,
                    "time": 435.1723050000148,
                    "velocity": 0.3228346456692913,
                    "duration": 0.22988500000002432
                },
                {
                    "name": "D4",
                    "midi": 62,
                    "time": 435.4021900000148,
                    "velocity": 0.3543307086614173,
                    "duration": 0.22988500000002432
                },
                {
                    "name": "G4",
                    "midi": 67,
                    "time": 435.6320750000148,
                    "velocity": 0.25196850393700787,
                    "duration": 0.22988500000002432
                },
                {
                    "name": "A#4",
                    "midi": 70,
                    "time": 435.6320750000148,
                    "velocity": 0.2992125984251969,
                    "duration": 0.22988500000002432
                },
                {
                    "name": "A4",
                    "midi": 69,
                    "time": 436.09184500001487,
                    "velocity": 0.2677165354330709,
                    "duration": 0.22988500000002432
                },
                {
                    "name": "C5",
                    "midi": 72,
                    "time": 436.09184500001487,
                    "velocity": 0.31496062992125984,
                    "duration": 0.22988500000002432
                },
                {
                    "name": "D#4",
                    "midi": 63,
                    "time": 436.3217300000149,
                    "velocity": 0.33070866141732286,
                    "duration": 0.22988500000002432
                },
                {
                    "name": "A4",
                    "midi": 69,
                    "time": 436.5516150000149,
                    "velocity": 0.25196850393700787,
                    "duration": 0.22988500000002432
                },
                {
                    "name": "C5",
                    "midi": 72,
                    "time": 436.5516150000149,
                    "velocity": 0.30708661417322836,
                    "duration": 0.22988500000002432
                },
                {
                    "name": "D4",
                    "midi": 62,
                    "time": 436.78150000001494,
                    "velocity": 0.31496062992125984,
                    "duration": 0.22988500000002432
                },
                {
                    "name": "A4",
                    "midi": 69,
                    "time": 437.01138500001497,
                    "velocity": 0.23622047244094488,
                    "duration": 0.22988500000002432
                },
                {
                    "name": "C5",
                    "midi": 72,
                    "time": 437.01138500001497,
                    "velocity": 0.28346456692913385,
                    "duration": 0.22988500000002432
                },
                {
                    "name": "F#4",
                    "midi": 66,
                    "time": 437.471155000015,
                    "velocity": 0.23622047244094488,
                    "duration": 0.22988500000002432
                },
                {
                    "name": "A4",
                    "midi": 69,
                    "time": 437.471155000015,
                    "velocity": 0.28346456692913385,
                    "duration": 0.22988500000002432
                },
                {
                    "name": "D#4",
                    "midi": 63,
                    "time": 437.70104000001504,
                    "velocity": 0.33070866141732286,
                    "duration": 0.22988500000002432
                },
                {
                    "name": "F#4",
                    "midi": 66,
                    "time": 437.93092500001507,
                    "velocity": 0.2125984251968504,
                    "duration": 0.22988500000002432
                },
                {
                    "name": "A4",
                    "midi": 69,
                    "time": 437.93092500001507,
                    "velocity": 0.28346456692913385,
                    "duration": 0.22988500000002432
                },
                {
                    "name": "D4",
                    "midi": 62,
                    "time": 438.1608100000151,
                    "velocity": 0.3228346456692913,
                    "duration": 0.22988500000002432
                },
                {
                    "name": "F#4",
                    "midi": 66,
                    "time": 438.3906950000151,
                    "velocity": 0.2204724409448819,
                    "duration": 0.22988500000002432
                },
                {
                    "name": "A4",
                    "midi": 69,
                    "time": 438.3906950000151,
                    "velocity": 0.2677165354330709,
                    "duration": 0.22988500000002432
                },
                {
                    "name": "G4",
                    "midi": 67,
                    "time": 438.85046500001516,
                    "velocity": 0.23622047244094488,
                    "duration": 0.22988500000002432
                },
                {
                    "name": "A#4",
                    "midi": 70,
                    "time": 438.85046500001516,
                    "velocity": 0.28346456692913385,
                    "duration": 0.22988500000002432
                },
                {
                    "name": "C#4",
                    "midi": 61,
                    "time": 439.0803500000152,
                    "velocity": 0.2992125984251969,
                    "duration": 0.22988500000002432
                },
                {
                    "name": "G4",
                    "midi": 67,
                    "time": 439.3102350000152,
                    "velocity": 0.2283464566929134,
                    "duration": 0.22988500000002432
                },
                {
                    "name": "A#4",
                    "midi": 70,
                    "time": 439.3102350000152,
                    "velocity": 0.28346456692913385,
                    "duration": 0.22988500000002432
                },
                {
                    "name": "D4",
                    "midi": 62,
                    "time": 439.54012000001524,
                    "velocity": 0.29133858267716534,
                    "duration": 0.22988500000002432
                },
                {
                    "name": "G4",
                    "midi": 67,
                    "time": 439.77000500001526,
                    "velocity": 0.2283464566929134,
                    "duration": 0.22988500000002432
                },
                {
                    "name": "A#4",
                    "midi": 70,
                    "time": 439.77000500001526,
                    "velocity": 0.28346456692913385,
                    "duration": 0.22988500000002432
                },
                {
                    "name": "A#4",
                    "midi": 70,
                    "time": 440.2297750000153,
                    "velocity": 0.23622047244094488,
                    "duration": 0.22988500000002432
                },
                {
                    "name": "D5",
                    "midi": 74,
                    "time": 440.2297750000153,
                    "velocity": 0.28346456692913385,
                    "duration": 0.22988500000002432
                },
                {
                    "name": "F#4",
                    "midi": 66,
                    "time": 440.45966000001533,
                    "velocity": 0.33858267716535434,
                    "duration": 0.22988500000002432
                },
                {
                    "name": "A#4",
                    "midi": 70,
                    "time": 440.68954500001536,
                    "velocity": 0.2204724409448819,
                    "duration": 0.22988500000002432
                },
                {
                    "name": "D5",
                    "midi": 74,
                    "time": 440.68954500001536,
                    "velocity": 0.28346456692913385,
                    "duration": 0.22988500000002432
                },
                {
                    "name": "G4",
                    "midi": 67,
                    "time": 440.9194300000154,
                    "velocity": 0.33858267716535434,
                    "duration": 0.22988500000002432
                },
                {
                    "name": "A#4",
                    "midi": 70,
                    "time": 441.1493150000154,
                    "velocity": 0.2440944881889764,
                    "duration": 0.22988500000002432
                },
                {
                    "name": "D5",
                    "midi": 74,
                    "time": 441.1493150000154,
                    "velocity": 0.28346456692913385,
                    "duration": 0.22988500000002432
                },
                {
                    "name": "G4",
                    "midi": 67,
                    "time": 441.60908500001545,
                    "velocity": 0.2677165354330709,
                    "duration": 0.22988500000002432
                },
                {
                    "name": "A#4",
                    "midi": 70,
                    "time": 441.60908500001545,
                    "velocity": 0.30708661417322836,
                    "duration": 0.22988500000002432
                },
                {
                    "name": "C#4",
                    "midi": 61,
                    "time": 441.8389700000155,
                    "velocity": 0.33070866141732286,
                    "duration": 0.22988500000002432
                },
                {
                    "name": "G4",
                    "midi": 67,
                    "time": 442.0688550000155,
                    "velocity": 0.25984251968503935,
                    "duration": 0.22988500000002432
                },
                {
                    "name": "A#4",
                    "midi": 70,
                    "time": 442.0688550000155,
                    "velocity": 0.31496062992125984,
                    "duration": 0.22988500000002432
                },
                {
                    "name": "D4",
                    "midi": 62,
                    "time": 442.2987400000155,
                    "velocity": 0.33070866141732286,
                    "duration": 0.22988500000002432
                },
                {
                    "name": "G4",
                    "midi": 67,
                    "time": 442.52862500001555,
                    "velocity": 0.25984251968503935,
                    "duration": 0.22988500000002432
                },
                {
                    "name": "A#4",
                    "midi": 70,
                    "time": 442.52862500001555,
                    "velocity": 0.30708661417322836,
                    "duration": 0.22988500000002432
                },
                {
                    "name": "A#4",
                    "midi": 70,
                    "time": 442.9883950000156,
                    "velocity": 0.2677165354330709,
                    "duration": 0.22988500000002432
                },
                {
                    "name": "D5",
                    "midi": 74,
                    "time": 442.9883950000156,
                    "velocity": 0.3228346456692913,
                    "duration": 0.22988500000002432
                },
                {
                    "name": "F#4",
                    "midi": 66,
                    "time": 443.2182800000156,
                    "velocity": 0.36220472440944884,
                    "duration": 0.22988500000002432
                },
                {
                    "name": "A#4",
                    "midi": 70,
                    "time": 443.44816500001565,
                    "velocity": 0.25196850393700787,
                    "duration": 0.22988500000002432
                },
                {
                    "name": "D5",
                    "midi": 74,
                    "time": 443.44816500001565,
                    "velocity": 0.3228346456692913,
                    "duration": 0.22988500000002432
                },
                {
                    "name": "G4",
                    "midi": 67,
                    "time": 443.6780500000157,
                    "velocity": 0.3700787401574803,
                    "duration": 0.22988500000002432
                },
                {
                    "name": "A#4",
                    "midi": 70,
                    "time": 443.9079350000157,
                    "velocity": 0.2677165354330709,
                    "duration": 0.22988500000002432
                },
                {
                    "name": "D5",
                    "midi": 74,
                    "time": 443.9079350000157,
                    "velocity": 0.31496062992125984,
                    "duration": 0.22988500000002432
                },
                {
                    "name": "B4",
                    "midi": 71,
                    "time": 444.36770500001575,
                    "velocity": 0.28346456692913385,
                    "duration": 0.22988500000002432
                },
                {
                    "name": "D5",
                    "midi": 74,
                    "time": 444.36770500001575,
                    "velocity": 0.33858267716535434,
                    "duration": 0.22988500000002432
                },
                {
                    "name": "F#4",
                    "midi": 66,
                    "time": 444.59759000001577,
                    "velocity": 0.3700787401574803,
                    "duration": 0.22988500000002432
                },
                {
                    "name": "B4",
                    "midi": 71,
                    "time": 444.8274750000158,
                    "velocity": 0.28346456692913385,
                    "duration": 0.22988500000002432
                },
                {
                    "name": "D5",
                    "midi": 74,
                    "time": 444.8274750000158,
                    "velocity": 0.3543307086614173,
                    "duration": 0.22988500000002432
                },
                {
                    "name": "G4",
                    "midi": 67,
                    "time": 445.0573600000158,
                    "velocity": 0.36220472440944884,
                    "duration": 0.22988500000002432
                },
                {
                    "name": "B4",
                    "midi": 71,
                    "time": 445.28724500001584,
                    "velocity": 0.29133858267716534,
                    "duration": 0.22988500000002432
                },
                {
                    "name": "D5",
                    "midi": 74,
                    "time": 445.28724500001584,
                    "velocity": 0.3464566929133858,
                    "duration": 0.22988500000002432
                },
                {
                    "name": "D5",
                    "midi": 74,
                    "time": 445.7470150000159,
                    "velocity": 0.29133858267716534,
                    "duration": 0.22988500000002432
                },
                {
                    "name": "F5",
                    "midi": 77,
                    "time": 445.7470150000159,
                    "velocity": 0.3543307086614173,
                    "duration": 0.22988500000002432
                },
                {
                    "name": "G#4",
                    "midi": 68,
                    "time": 445.9769000000159,
                    "velocity": 0.3937007874015748,
                    "duration": 0.22988500000002432
                },
                {
                    "name": "D5",
                    "midi": 74,
                    "time": 446.20678500001594,
                    "velocity": 0.28346456692913385,
                    "duration": 0.22988500000002432
                },
                {
                    "name": "F5",
                    "midi": 77,
                    "time": 446.20678500001594,
                    "velocity": 0.3543307086614173,
                    "duration": 0.22988500000002432
                },
                {
                    "name": "G4",
                    "midi": 67,
                    "time": 446.43667000001597,
                    "velocity": 0.4094488188976378,
                    "duration": 0.22988500000002432
                },
                {
                    "name": "D5",
                    "midi": 74,
                    "time": 446.666555000016,
                    "velocity": 0.29133858267716534,
                    "duration": 0.22988500000002432
                },
                {
                    "name": "F5",
                    "midi": 77,
                    "time": 446.666555000016,
                    "velocity": 0.3543307086614173,
                    "duration": 0.22988500000002432
                },
                {
                    "name": "D#5",
                    "midi": 75,
                    "time": 447.12632500001604,
                    "velocity": 0.3228346456692913,
                    "duration": 0.22988500000002432
                },
                {
                    "name": "G5",
                    "midi": 79,
                    "time": 447.12632500001604,
                    "velocity": 0.3858267716535433,
                    "duration": 0.22988500000002432
                },
                {
                    "name": "B4",
                    "midi": 71,
                    "time": 447.35621000001606,
                    "velocity": 0.4094488188976378,
                    "duration": 0.22988500000002432
                },
                {
                    "name": "D#5",
                    "midi": 75,
                    "time": 447.5860950000161,
                    "velocity": 0.31496062992125984,
                    "duration": 0.22988500000002432
                },
                {
                    "name": "G5",
                    "midi": 79,
                    "time": 447.5860950000161,
                    "velocity": 0.3858267716535433,
                    "duration": 0.22988500000002432
                },
                {
                    "name": "C5",
                    "midi": 72,
                    "time": 447.8159800000161,
                    "velocity": 0.3937007874015748,
                    "duration": 0.22988500000002432
                },
                {
                    "name": "D#5",
                    "midi": 75,
                    "time": 448.04586500001614,
                    "velocity": 0.30708661417322836,
                    "duration": 0.22988500000002432
                },
                {
                    "name": "G5",
                    "midi": 79,
                    "time": 448.04586500001614,
                    "velocity": 0.36220472440944884,
                    "duration": 0.22988500000002432
                },
                {
                    "name": "C5",
                    "midi": 72,
                    "time": 448.5056350000162,
                    "velocity": 0.30708661417322836,
                    "duration": 0.22988500000002432
                },
                {
                    "name": "D#5",
                    "midi": 75,
                    "time": 448.5056350000162,
                    "velocity": 0.36220472440944884,
                    "duration": 0.22988500000002432
                },
                {
                    "name": "F#4",
                    "midi": 66,
                    "time": 448.7355200000162,
                    "velocity": 0.4094488188976378,
                    "duration": 0.22988500000002432
                },
                {
                    "name": "C5",
                    "midi": 72,
                    "time": 448.96540500001623,
                    "velocity": 0.28346456692913385,
                    "duration": 0.22988500000002432
                },
                {
                    "name": "D#5",
                    "midi": 75,
                    "time": 448.96540500001623,
                    "velocity": 0.3543307086614173,
                    "duration": 0.22988500000002432
                },
                {
                    "name": "G4",
                    "midi": 67,
                    "time": 449.19529000001626,
                    "velocity": 0.3937007874015748,
                    "duration": 0.22988500000002432
                },
                {
                    "name": "C5",
                    "midi": 72,
                    "time": 449.4251750000163,
                    "velocity": 0.29133858267716534,
                    "duration": 0.22988500000002432
                },
                {
                    "name": "D#5",
                    "midi": 75,
                    "time": 449.4251750000163,
                    "velocity": 0.3543307086614173,
                    "duration": 0.22988500000002432
                },
                {
                    "name": "A#4",
                    "midi": 70,
                    "time": 449.88494500001633,
                    "velocity": 0.29133858267716534,
                    "duration": 0.22988500000002432
                },
                {
                    "name": "D5",
                    "midi": 74,
                    "time": 449.88494500001633,
                    "velocity": 0.3543307086614173,
                    "duration": 0.22988500000002432
                },
                {
                    "name": "F#4",
                    "midi": 66,
                    "time": 450.11483000001635,
                    "velocity": 0.3779527559055118,
                    "duration": 0.22988500000002432
                },
                {
                    "name": "A#4",
                    "midi": 70,
                    "time": 450.3447150000164,
                    "velocity": 0.28346456692913385,
                    "duration": 0.22988500000002432
                },
                {
                    "name": "D5",
                    "midi": 74,
                    "time": 450.3447150000164,
                    "velocity": 0.3464566929133858,
                    "duration": 0.22988500000002432
                },
                {
                    "name": "G4",
                    "midi": 67,
                    "time": 450.5746000000164,
                    "velocity": 0.3543307086614173,
                    "duration": 0.22988500000002432
                },
                {
                    "name": "A#4",
                    "midi": 70,
                    "time": 450.8044850000164,
                    "velocity": 0.28346456692913385,
                    "duration": 0.22988500000002432
                },
                {
                    "name": "D5",
                    "midi": 74,
                    "time": 450.8044850000164,
                    "velocity": 0.33070866141732286,
                    "duration": 0.22988500000002432
                },
                {
                    "name": "G4",
                    "midi": 67,
                    "time": 451.2642550000165,
                    "velocity": 0.2677165354330709,
                    "duration": 0.22988500000002432
                },
                {
                    "name": "A#4",
                    "midi": 70,
                    "time": 451.2642550000165,
                    "velocity": 0.3228346456692913,
                    "duration": 0.22988500000002432
                },
                {
                    "name": "C#4",
                    "midi": 61,
                    "time": 451.4941400000165,
                    "velocity": 0.3700787401574803,
                    "duration": 0.22988500000002432
                },
                {
                    "name": "G4",
                    "midi": 67,
                    "time": 451.7240250000165,
                    "velocity": 0.25196850393700787,
                    "duration": 0.22988500000002432
                },
                {
                    "name": "A#4",
                    "midi": 70,
                    "time": 451.7240250000165,
                    "velocity": 0.3228346456692913,
                    "duration": 0.22988500000002432
                },
                {
                    "name": "D4",
                    "midi": 62,
                    "time": 451.95391000001655,
                    "velocity": 0.3700787401574803,
                    "duration": 0.22988500000002432
                },
                {
                    "name": "G4",
                    "midi": 67,
                    "time": 452.1837950000166,
                    "velocity": 0.25196850393700787,
                    "duration": 0.22988500000002432
                },
                {
                    "name": "A#4",
                    "midi": 70,
                    "time": 452.1837950000166,
                    "velocity": 0.2992125984251969,
                    "duration": 0.22988500000002432
                },
                {
                    "name": "A4",
                    "midi": 69,
                    "time": 452.6435650000166,
                    "velocity": 0.2677165354330709,
                    "duration": 0.22988500000002432
                },
                {
                    "name": "C5",
                    "midi": 72,
                    "time": 452.6435650000166,
                    "velocity": 0.31496062992125984,
                    "duration": 0.22988500000002432
                },
                {
                    "name": "D#4",
                    "midi": 63,
                    "time": 452.87345000001665,
                    "velocity": 0.33070866141732286,
                    "duration": 0.22988500000002432
                },
                {
                    "name": "A4",
                    "midi": 69,
                    "time": 453.10333500001667,
                    "velocity": 0.25196850393700787,
                    "duration": 0.22988500000002432
                },
                {
                    "name": "C5",
                    "midi": 72,
                    "time": 453.10333500001667,
                    "velocity": 0.30708661417322836,
                    "duration": 0.22988500000002432
                },
                {
                    "name": "D4",
                    "midi": 62,
                    "time": 453.3332200000167,
                    "velocity": 0.31496062992125984,
                    "duration": 0.22988500000002432
                },
                {
                    "name": "A4",
                    "midi": 69,
                    "time": 453.5631050000167,
                    "velocity": 0.23622047244094488,
                    "duration": 0.22988500000002432
                },
                {
                    "name": "C5",
                    "midi": 72,
                    "time": 453.5631050000167,
                    "velocity": 0.28346456692913385,
                    "duration": 0.22988500000002432
                },
                {
                    "name": "F#4",
                    "midi": 66,
                    "time": 454.02287500001677,
                    "velocity": 0.23622047244094488,
                    "duration": 0.22988500000002432
                },
                {
                    "name": "A4",
                    "midi": 69,
                    "time": 454.02287500001677,
                    "velocity": 0.28346456692913385,
                    "duration": 0.22988500000002432
                },
                {
                    "name": "D#4",
                    "midi": 63,
                    "time": 454.2527600000168,
                    "velocity": 0.33070866141732286,
                    "duration": 0.22988500000002432
                },
                {
                    "name": "F#4",
                    "midi": 66,
                    "time": 454.4826450000168,
                    "velocity": 0.2125984251968504,
                    "duration": 0.22988500000002432
                },
                {
                    "name": "A4",
                    "midi": 69,
                    "time": 454.4826450000168,
                    "velocity": 0.28346456692913385,
                    "duration": 0.22988500000002432
                },
                {
                    "name": "D4",
                    "midi": 62,
                    "time": 454.71253000001684,
                    "velocity": 0.3228346456692913,
                    "duration": 0.22988500000002432
                },
                {
                    "name": "F#4",
                    "midi": 66,
                    "time": 454.94241500001687,
                    "velocity": 0.2204724409448819,
                    "duration": 0.22988500000002432
                },
                {
                    "name": "A4",
                    "midi": 69,
                    "time": 454.94241500001687,
                    "velocity": 0.2677165354330709,
                    "duration": 0.22988500000002432
                },
                {
                    "name": "B3",
                    "midi": 59,
                    "time": 479.9998800000169,
                    "velocity": 0.49606299212598426,
                    "duration": 0.22988500000002432
                },
                {
                    "name": "G4",
                    "midi": 67,
                    "time": 479.9998800000169,
                    "velocity": 0.49606299212598426,
                    "duration": 0.22988500000002432
                },
                {
                    "name": "B4",
                    "midi": 71,
                    "time": 480.2297650000169,
                    "velocity": 0.4015748031496063,
                    "duration": 0.22988500000002432
                },
                {
                    "name": "B3",
                    "midi": 59,
                    "time": 480.45965000001695,
                    "velocity": 0.4251968503937008,
                    "duration": 0.22988500000002432
                },
                {
                    "name": "G4",
                    "midi": 67,
                    "time": 480.45965000001695,
                    "velocity": 0.4251968503937008,
                    "duration": 0.22988500000002432
                },
                {
                    "name": "B4",
                    "midi": 71,
                    "time": 480.689535000017,
                    "velocity": 0.3858267716535433,
                    "duration": 0.22988500000002432
                },
                {
                    "name": "B3",
                    "midi": 59,
                    "time": 480.919420000017,
                    "velocity": 0.4251968503937008,
                    "duration": 0.22988500000002432
                },
                {
                    "name": "G4",
                    "midi": 67,
                    "time": 480.919420000017,
                    "velocity": 0.4251968503937008,
                    "duration": 0.22988500000002432
                },
                {
                    "name": "B4",
                    "midi": 71,
                    "time": 481.149305000017,
                    "velocity": 0.3937007874015748,
                    "duration": 0.22988500000002432
                },
                {
                    "name": "B3",
                    "midi": 59,
                    "time": 481.37919000001705,
                    "velocity": 0.4881889763779528,
                    "duration": 0.22988500000002432
                },
                {
                    "name": "B4",
                    "midi": 71,
                    "time": 481.60907500001707,
                    "velocity": 0.3937007874015748,
                    "duration": 0.22988500000002432
                },
                {
                    "name": "B3",
                    "midi": 59,
                    "time": 481.8389600000171,
                    "velocity": 0.4251968503937008,
                    "duration": 0.22988500000002432
                },
                {
                    "name": "G4",
                    "midi": 67,
                    "time": 481.8389600000171,
                    "velocity": 0.4251968503937008,
                    "duration": 0.22988500000002432
                },
                {
                    "name": "B4",
                    "midi": 71,
                    "time": 482.0688450000171,
                    "velocity": 0.3937007874015748,
                    "duration": 0.22988500000002432
                },
                {
                    "name": "B3",
                    "midi": 59,
                    "time": 482.29873000001714,
                    "velocity": 0.4251968503937008,
                    "duration": 0.22988500000002432
                },
                {
                    "name": "G4",
                    "midi": 67,
                    "time": 482.29873000001714,
                    "velocity": 0.4251968503937008,
                    "duration": 0.22988500000002432
                },
                {
                    "name": "B4",
                    "midi": 71,
                    "time": 482.52861500001717,
                    "velocity": 0.3937007874015748,
                    "duration": 0.22988500000002432
                },
                {
                    "name": "B3",
                    "midi": 59,
                    "time": 482.7585000000172,
                    "velocity": 0.49606299212598426,
                    "duration": 0.22988500000002432
                },
                {
                    "name": "G4",
                    "midi": 67,
                    "time": 482.7585000000172,
                    "velocity": 0.49606299212598426,
                    "duration": 0.22988500000002432
                },
                {
                    "name": "B4",
                    "midi": 71,
                    "time": 482.9883850000172,
                    "velocity": 0.3937007874015748,
                    "duration": 0.22988500000002432
                },
                {
                    "name": "B3",
                    "midi": 59,
                    "time": 483.21827000001724,
                    "velocity": 0.4251968503937008,
                    "duration": 0.22988500000002432
                },
                {
                    "name": "G4",
                    "midi": 67,
                    "time": 483.21827000001724,
                    "velocity": 0.4251968503937008,
                    "duration": 0.22988500000002432
                },
                {
                    "name": "B4",
                    "midi": 71,
                    "time": 483.44815500001727,
                    "velocity": 0.4094488188976378,
                    "duration": 0.22988500000002432
                },
                {
                    "name": "B3",
                    "midi": 59,
                    "time": 483.6780400000173,
                    "velocity": 0.4330708661417323,
                    "duration": 0.22988500000002432
                },
                {
                    "name": "G4",
                    "midi": 67,
                    "time": 483.6780400000173,
                    "velocity": 0.4330708661417323,
                    "duration": 0.22988500000002432
                },
                {
                    "name": "B4",
                    "midi": 71,
                    "time": 483.9079250000173,
                    "velocity": 0.4015748031496063,
                    "duration": 0.22988500000002432
                },
                {
                    "name": "B3",
                    "midi": 59,
                    "time": 484.13781000001734,
                    "velocity": 0.5039370078740157,
                    "duration": 0.22988500000002432
                },
                {
                    "name": "G4",
                    "midi": 67,
                    "time": 484.13781000001734,
                    "velocity": 0.5039370078740157,
                    "duration": 0.22988500000002432
                },
                {
                    "name": "B4",
                    "midi": 71,
                    "time": 484.36769500001736,
                    "velocity": 0.4094488188976378,
                    "duration": 0.22988500000002432
                },
                {
                    "name": "B3",
                    "midi": 59,
                    "time": 484.5975800000174,
                    "velocity": 0.4409448818897638,
                    "duration": 0.22988500000002432
                },
                {
                    "name": "G4",
                    "midi": 67,
                    "time": 484.5975800000174,
                    "velocity": 0.4409448818897638,
                    "duration": 0.22988500000002432
                },
                {
                    "name": "B4",
                    "midi": 71,
                    "time": 484.8274650000174,
                    "velocity": 0.4015748031496063,
                    "duration": 0.22988500000002432
                },
                {
                    "name": "B3",
                    "midi": 59,
                    "time": 485.05735000001744,
                    "velocity": 0.4409448818897638,
                    "duration": 0.22988500000002432
                },
                {
                    "name": "G4",
                    "midi": 67,
                    "time": 485.05735000001744,
                    "velocity": 0.4409448818897638,
                    "duration": 0.22988500000002432
                },
                {
                    "name": "B4",
                    "midi": 71,
                    "time": 485.28723500001746,
                    "velocity": 0.41732283464566927,
                    "duration": 0.22988500000002432
                },
                {
                    "name": "B3",
                    "midi": 59,
                    "time": 485.5171200000175,
                    "velocity": 0.5118110236220472,
                    "duration": 0.22988500000002432
                },
                {
                    "name": "G4",
                    "midi": 67,
                    "time": 485.5171200000175,
                    "velocity": 0.5118110236220472,
                    "duration": 0.22988500000002432
                },
                {
                    "name": "B4",
                    "midi": 71,
                    "time": 485.7470050000175,
                    "velocity": 0.41732283464566927,
                    "duration": 0.22988500000002432
                },
                {
                    "name": "B3",
                    "midi": 59,
                    "time": 485.97689000001753,
                    "velocity": 0.4409448818897638,
                    "duration": 0.22988500000002432
                },
                {
                    "name": "G4",
                    "midi": 67,
                    "time": 485.97689000001753,
                    "velocity": 0.4409448818897638,
                    "duration": 0.22988500000002432
                },
                {
                    "name": "B4",
                    "midi": 71,
                    "time": 486.20677500001756,
                    "velocity": 0.4094488188976378,
                    "duration": 0.22988500000002432
                },
                {
                    "name": "B3",
                    "midi": 59,
                    "time": 486.4366600000176,
                    "velocity": 0.44881889763779526,
                    "duration": 0.22988500000002432
                },
                {
                    "name": "G4",
                    "midi": 67,
                    "time": 486.4366600000176,
                    "velocity": 0.44881889763779526,
                    "duration": 0.22988500000002432
                },
                {
                    "name": "B4",
                    "midi": 71,
                    "time": 486.6665450000176,
                    "velocity": 0.41732283464566927,
                    "duration": 0.22988500000002432
                },
                {
                    "name": "G4",
                    "midi": 67,
                    "time": 486.89643000001763,
                    "velocity": 0.5039370078740157,
                    "duration": 0.22988500000002432
                },
                {
                    "name": "B4",
                    "midi": 71,
                    "time": 487.12631500001766,
                    "velocity": 0.41732283464566927,
                    "duration": 0.22988500000002432
                },
                {
                    "name": "B3",
                    "midi": 59,
                    "time": 487.3562000000177,
                    "velocity": 0.44881889763779526,
                    "duration": 0.22988500000002432
                },
                {
                    "name": "G4",
                    "midi": 67,
                    "time": 487.3562000000177,
                    "velocity": 0.44881889763779526,
                    "duration": 0.22988500000002432
                },
                {
                    "name": "B4",
                    "midi": 71,
                    "time": 487.5860850000177,
                    "velocity": 0.4251968503937008,
                    "duration": 0.22988500000002432
                },
                {
                    "name": "B3",
                    "midi": 59,
                    "time": 487.8159700000177,
                    "velocity": 0.44881889763779526,
                    "duration": 0.22988500000002432
                },
                {
                    "name": "G4",
                    "midi": 67,
                    "time": 487.8159700000177,
                    "velocity": 0.44881889763779526,
                    "duration": 0.22988500000002432
                },
                {
                    "name": "B4",
                    "midi": 71,
                    "time": 488.04585500001775,
                    "velocity": 0.4251968503937008,
                    "duration": 0.22988500000002432
                },
                {
                    "name": "B3",
                    "midi": 59,
                    "time": 488.5056250000178,
                    "velocity": 0.4251968503937008,
                    "duration": 0.22988500000002432
                },
                {
                    "name": "G3",
                    "midi": 55,
                    "time": 488.7355100000178,
                    "velocity": 0.4645669291338583,
                    "duration": 0.22988500000002432
                },
                {
                    "name": "B3",
                    "midi": 59,
                    "time": 488.96539500001785,
                    "velocity": 0.4251968503937008,
                    "duration": 0.22988500000002432
                },
                {
                    "name": "G3",
                    "midi": 55,
                    "time": 489.1952800000179,
                    "velocity": 0.4645669291338583,
                    "duration": 0.22988500000002432
                },
                {
                    "name": "B3",
                    "midi": 59,
                    "time": 489.4251650000179,
                    "velocity": 0.4251968503937008,
                    "duration": 0.22988500000002432
                },
                {
                    "name": "G3",
                    "midi": 55,
                    "time": 489.6550500000179,
                    "velocity": 0.5196850393700787,
                    "duration": 0.22988500000002432
                },
                {
                    "name": "B3",
                    "midi": 59,
                    "time": 489.88493500001795,
                    "velocity": 0.4330708661417323,
                    "duration": 0.22988500000002432
                },
                {
                    "name": "G3",
                    "midi": 55,
                    "time": 490.11482000001797,
                    "velocity": 0.4645669291338583,
                    "duration": 0.22988500000002432
                },
                {
                    "name": "B3",
                    "midi": 59,
                    "time": 490.344705000018,
                    "velocity": 0.4330708661417323,
                    "duration": 0.22988500000002432
                },
                {
                    "name": "G3",
                    "midi": 55,
                    "time": 490.574590000018,
                    "velocity": 0.47244094488188976,
                    "duration": 0.22988500000002432
                },
                {
                    "name": "B3",
                    "midi": 59,
                    "time": 490.80447500001804,
                    "velocity": 0.4251968503937008,
                    "duration": 0.22988500000002432
                },
                {
                    "name": "G3",
                    "midi": 55,
                    "time": 491.03436000001807,
                    "velocity": 0.5354330708661418,
                    "duration": 0.22988500000002432
                },
                {
                    "name": "B3",
                    "midi": 59,
                    "time": 491.2642450000181,
                    "velocity": 0.4330708661417323,
                    "duration": 0.22988500000002432
                },
                {
                    "name": "G3",
                    "midi": 55,
                    "time": 491.4941300000181,
                    "velocity": 0.47244094488188976,
                    "duration": 0.22988500000002432
                },
                {
                    "name": "B3",
                    "midi": 59,
                    "time": 491.72401500001814,
                    "velocity": 0.4251968503937008,
                    "duration": 0.22988500000002432
                },
                {
                    "name": "G3",
                    "midi": 55,
                    "time": 491.95390000001817,
                    "velocity": 0.47244094488188976,
                    "duration": 0.22988500000002432
                },
                {
                    "name": "B3",
                    "midi": 59,
                    "time": 492.1837850000182,
                    "velocity": 0.4330708661417323,
                    "duration": 0.22988500000002432
                },
                {
                    "name": "G3",
                    "midi": 55,
                    "time": 492.4136700000182,
                    "velocity": 0.5511811023622047,
                    "duration": 0.22988500000002432
                },
                {
                    "name": "B3",
                    "midi": 59,
                    "time": 492.64355500001824,
                    "velocity": 0.4330708661417323,
                    "duration": 0.22988500000002432
                },
                {
                    "name": "G3",
                    "midi": 55,
                    "time": 492.87344000001826,
                    "velocity": 0.48031496062992124,
                    "duration": 0.22988500000002432
                },
                {
                    "name": "B3",
                    "midi": 59,
                    "time": 493.1033250000183,
                    "velocity": 0.4409448818897638,
                    "duration": 0.22988500000002432
                },
                {
                    "name": "G3",
                    "midi": 55,
                    "time": 493.3332100000183,
                    "velocity": 0.4881889763779528,
                    "duration": 0.22988500000002432
                },
                {
                    "name": "B3",
                    "midi": 59,
                    "time": 493.56309500001834,
                    "velocity": 0.4409448818897638,
                    "duration": 0.22988500000002432
                },
                {
                    "name": "G3",
                    "midi": 55,
                    "time": 493.79298000001836,
                    "velocity": 0.5511811023622047,
                    "duration": 0.22988500000002432
                },
                {
                    "name": "B3",
                    "midi": 59,
                    "time": 494.0228650000184,
                    "velocity": 0.4409448818897638,
                    "duration": 0.22988500000002432
                },
                {
                    "name": "G3",
                    "midi": 55,
                    "time": 494.2527500000184,
                    "velocity": 0.4881889763779528,
                    "duration": 0.22988500000002432
                },
                {
                    "name": "B3",
                    "midi": 59,
                    "time": 494.48263500001843,
                    "velocity": 0.4409448818897638,
                    "duration": 0.22988500000002432
                },
                {
                    "name": "G3",
                    "midi": 55,
                    "time": 494.71252000001846,
                    "velocity": 0.4881889763779528,
                    "duration": 0.22988500000002432
                },
                {
                    "name": "B3",
                    "midi": 59,
                    "time": 494.9424050000185,
                    "velocity": 0.44881889763779526,
                    "duration": 0.22988500000002432
                },
                {
                    "name": "G3",
                    "midi": 55,
                    "time": 495.1722900000185,
                    "velocity": 0.5669291338582677,
                    "duration": 0.22988500000002432
                },
                {
                    "name": "B3",
                    "midi": 59,
                    "time": 495.40217500001853,
                    "velocity": 0.4566929133858268,
                    "duration": 0.22988500000002432
                },
                {
                    "name": "G3",
                    "midi": 55,
                    "time": 495.63206000001856,
                    "velocity": 0.49606299212598426,
                    "duration": 0.22988500000002432
                },
                {
                    "name": "B3",
                    "midi": 59,
                    "time": 495.8619450000186,
                    "velocity": 0.44881889763779526,
                    "duration": 0.22988500000002432
                },
                {
                    "name": "G3",
                    "midi": 55,
                    "time": 496.0918300000186,
                    "velocity": 0.49606299212598426,
                    "duration": 0.22988500000002432
                },
                {
                    "name": "B3",
                    "midi": 59,
                    "time": 496.3217150000186,
                    "velocity": 0.4645669291338583,
                    "duration": 0.22988500000002432
                }
            ],
            "controlChanges": {
                "7": [
                    {
                        "number": 7,
                        "time": 0,
                        "value": 0.7874015748031497
                    }
                ],
                "10": [
                    {
                        "number": 10,
                        "time": 0,
                        "value": 0.5039370078740157
                    }
                ]
            },
            "id": 2,
            "name": "Piano right2",
            "instrumentNumber": 0,
            "instrument": "acoustic grand piano",
            "instrumentFamily": "piano",
            "channelNumber": 0,
            "isPercussion": false
        },
        {
            "startTime": 0,
            "duration": 538.2757275000008,
            "length": 789,
            "notes": [
                {
                    "name": "G1",
                    "midi": 31,
                    "time": 0,
                    "velocity": 0.6299212598425197,
                    "duration": 1.37931
                },
                {
                    "name": "A#1",
                    "midi": 34,
                    "time": 1.37931,
                    "velocity": 0.4330708661417323,
                    "duration": 0.17241375000000003
                },
                {
                    "name": "D2",
                    "midi": 38,
                    "time": 1.55172375,
                    "velocity": 0.4566929133858268,
                    "duration": 0.17241375000000003
                },
                {
                    "name": "G2",
                    "midi": 43,
                    "time": 1.7241375,
                    "velocity": 0.48031496062992124,
                    "duration": 0.17241375000000003
                },
                {
                    "name": "A#2",
                    "midi": 46,
                    "time": 1.8965512500000001,
                    "velocity": 0.49606299212598426,
                    "duration": 0.1724137499999998
                },
                {
                    "name": "D3",
                    "midi": 50,
                    "time": 2.068965,
                    "velocity": 0.5196850393700787,
                    "duration": 0.17241375000000003
                },
                {
                    "name": "G3",
                    "midi": 55,
                    "time": 2.24137875,
                    "velocity": 0.5354330708661418,
                    "duration": 0.17241375000000003
                },
                {
                    "name": "A#3",
                    "midi": 58,
                    "time": 2.4137925,
                    "velocity": 0.5354330708661418,
                    "duration": 0.17241375000000003
                },
                {
                    "name": "D4",
                    "midi": 62,
                    "time": 2.58620625,
                    "velocity": 0.5590551181102362,
                    "duration": 0.17241375000000003
                },
                {
                    "name": "G4",
                    "midi": 67,
                    "time": 2.75862,
                    "velocity": 0.6062992125984252,
                    "duration": 1.5517237500000003
                },
                {
                    "name": "F#4",
                    "midi": 66,
                    "time": 4.31034375,
                    "velocity": 0.47244094488188976,
                    "duration": 0.1724137499999996
                },
                {
                    "name": "D#4",
                    "midi": 63,
                    "time": 4.4827575,
                    "velocity": 0.48031496062992124,
                    "duration": 0.1724137499999996
                },
                {
                    "name": "D4",
                    "midi": 62,
                    "time": 4.6551712499999995,
                    "velocity": 0.4881889763779528,
                    "duration": 0.1724137499999996
                },
                {
                    "name": "C4",
                    "midi": 60,
                    "time": 4.827584999999999,
                    "velocity": 0.4881889763779528,
                    "duration": 0.1724137499999996
                },
                {
                    "name": "A#3",
                    "midi": 58,
                    "time": 4.999998749999999,
                    "velocity": 0.49606299212598426,
                    "duration": 0.1724137499999996
                },
                {
                    "name": "A3",
                    "midi": 57,
                    "time": 5.172412499999998,
                    "velocity": 0.49606299212598426,
                    "duration": 0.1724137499999996
                },
                {
                    "name": "G3",
                    "midi": 55,
                    "time": 5.344826249999998,
                    "velocity": 0.49606299212598426,
                    "duration": 0.1724137499999996
                },
                {
                    "name": "F#3",
                    "midi": 54,
                    "time": 5.5172399999999975,
                    "velocity": 0.5039370078740157,
                    "duration": 0.1724137499999996
                },
                {
                    "name": "D#3",
                    "midi": 51,
                    "time": 5.689653749999997,
                    "velocity": 0.49606299212598426,
                    "duration": 0.1724137499999996
                },
                {
                    "name": "D3",
                    "midi": 50,
                    "time": 5.862067499999997,
                    "velocity": 0.49606299212598426,
                    "duration": 0.1724137499999996
                },
                {
                    "name": "C3",
                    "midi": 48,
                    "time": 6.034481249999996,
                    "velocity": 0.5039370078740157,
                    "duration": 0.1724137499999996
                },
                {
                    "name": "A#2",
                    "midi": 46,
                    "time": 6.206894999999996,
                    "velocity": 0.5039370078740157,
                    "duration": 0.1724137499999996
                },
                {
                    "name": "A2",
                    "midi": 45,
                    "time": 6.379308749999995,
                    "velocity": 0.5118110236220472,
                    "duration": 0.1724137499999996
                },
                {
                    "name": "G2",
                    "midi": 43,
                    "time": 6.551722499999995,
                    "velocity": 0.5196850393700787,
                    "duration": 0.1724137499999996
                },
                {
                    "name": "F#2",
                    "midi": 42,
                    "time": 6.724136249999995,
                    "velocity": 0.5275590551181102,
                    "duration": 0.1724137499999996
                },
                {
                    "name": "D#2",
                    "midi": 39,
                    "time": 6.896549999999994,
                    "velocity": 0.5354330708661418,
                    "duration": 0.1724137499999996
                },
                {
                    "name": "D2",
                    "midi": 38,
                    "time": 7.068963749999994,
                    "velocity": 0.5433070866141733,
                    "duration": 0.1724137499999996
                },
                {
                    "name": "C2",
                    "midi": 36,
                    "time": 7.241377499999993,
                    "velocity": 0.5511811023622047,
                    "duration": 0.1724137499999996
                },
                {
                    "name": "A#1",
                    "midi": 34,
                    "time": 7.413791249999993,
                    "velocity": 0.5511811023622047,
                    "duration": 0.1724137499999996
                },
                {
                    "name": "A1",
                    "midi": 33,
                    "time": 7.5862049999999925,
                    "velocity": 0.5590551181102362,
                    "duration": 0.1724137499999996
                },
                {
                    "name": "G1",
                    "midi": 31,
                    "time": 7.758618749999992,
                    "velocity": 0.5826771653543307,
                    "duration": 2.1264362499999985
                },
                {
                    "name": "A#1",
                    "midi": 34,
                    "time": 9.88505499999999,
                    "velocity": 0.4251968503937008,
                    "duration": 0.22988499999999945
                },
                {
                    "name": "D2",
                    "midi": 38,
                    "time": 10.11493999999999,
                    "velocity": 0.4330708661417323,
                    "duration": 0.22988499999999945
                },
                {
                    "name": "G2",
                    "midi": 43,
                    "time": 10.34482499999999,
                    "velocity": 0.4409448818897638,
                    "duration": 0.22988499999999945
                },
                {
                    "name": "A#2",
                    "midi": 46,
                    "time": 10.574709999999989,
                    "velocity": 0.4566929133858268,
                    "duration": 0.22988499999999945
                },
                {
                    "name": "D3",
                    "midi": 50,
                    "time": 10.804594999999988,
                    "velocity": 0.4645669291338583,
                    "duration": 0.22988499999999945
                },
                {
                    "name": "G3",
                    "midi": 55,
                    "time": 11.034479999999988,
                    "velocity": 0.47244094488188976,
                    "duration": 0.22988499999999945
                },
                {
                    "name": "A#3",
                    "midi": 58,
                    "time": 11.264364999999987,
                    "velocity": 0.4881889763779528,
                    "duration": 0.22988499999999945
                },
                {
                    "name": "D4",
                    "midi": 62,
                    "time": 11.494249999999987,
                    "velocity": 0.49606299212598426,
                    "duration": 0.22988499999999945
                },
                {
                    "name": "G4",
                    "midi": 67,
                    "time": 11.724134999999986,
                    "velocity": 0.5039370078740157,
                    "duration": 0.22988499999999945
                },
                {
                    "name": "A#4",
                    "midi": 70,
                    "time": 11.954019999999986,
                    "velocity": 0.5118110236220472,
                    "duration": 0.22988499999999945
                },
                {
                    "name": "D5",
                    "midi": 74,
                    "time": 12.183904999999985,
                    "velocity": 0.5275590551181102,
                    "duration": 0.22988499999999945
                },
                {
                    "name": "G5",
                    "midi": 79,
                    "time": 12.413789999999985,
                    "velocity": 0.5905511811023622,
                    "duration": 1.551723749999999
                },
                {
                    "name": "F#5",
                    "midi": 78,
                    "time": 13.965513749999984,
                    "velocity": 0.3937007874015748,
                    "duration": 0.17241375000000048
                },
                {
                    "name": "D#5",
                    "midi": 75,
                    "time": 14.137927499999984,
                    "velocity": 0.4015748031496063,
                    "duration": 0.17241375000000048
                },
                {
                    "name": "D5",
                    "midi": 74,
                    "time": 14.310341249999984,
                    "velocity": 0.4015748031496063,
                    "duration": 0.17241375000000048
                },
                {
                    "name": "C5",
                    "midi": 72,
                    "time": 14.482754999999985,
                    "velocity": 0.4094488188976378,
                    "duration": 0.17241375000000048
                },
                {
                    "name": "A#4",
                    "midi": 70,
                    "time": 14.655168749999985,
                    "velocity": 0.4094488188976378,
                    "duration": 0.17241375000000048
                },
                {
                    "name": "A4",
                    "midi": 69,
                    "time": 14.827582499999986,
                    "velocity": 0.41732283464566927,
                    "duration": 0.17241375000000048
                },
                {
                    "name": "G4",
                    "midi": 67,
                    "time": 14.999996249999986,
                    "velocity": 0.4251968503937008,
                    "duration": 0.17241375000000048
                },
                {
                    "name": "F#4",
                    "midi": 66,
                    "time": 15.172409999999987,
                    "velocity": 0.4251968503937008,
                    "duration": 0.17241375000000048
                },
                {
                    "name": "D#4",
                    "midi": 63,
                    "time": 15.344823749999987,
                    "velocity": 0.4251968503937008,
                    "duration": 0.17241375000000048
                },
                {
                    "name": "D4",
                    "midi": 62,
                    "time": 15.517237499999988,
                    "velocity": 0.4251968503937008,
                    "duration": 0.17241375000000048
                },
                {
                    "name": "C4",
                    "midi": 60,
                    "time": 15.689651249999988,
                    "velocity": 0.4330708661417323,
                    "duration": 0.17241375000000048
                },
                {
                    "name": "A#3",
                    "midi": 58,
                    "time": 15.862064999999989,
                    "velocity": 0.4409448818897638,
                    "duration": 0.1724137499999987
                },
                {
                    "name": "A3",
                    "midi": 57,
                    "time": 16.034478749999987,
                    "velocity": 0.4409448818897638,
                    "duration": 0.17241375000000048
                },
                {
                    "name": "G3",
                    "midi": 55,
                    "time": 16.206892499999988,
                    "velocity": 0.44881889763779526,
                    "duration": 0.17241375000000048
                },
                {
                    "name": "F#3",
                    "midi": 54,
                    "time": 16.37930624999999,
                    "velocity": 0.44881889763779526,
                    "duration": 0.17241375000000048
                },
                {
                    "name": "D#3",
                    "midi": 51,
                    "time": 16.55171999999999,
                    "velocity": 0.4566929133858268,
                    "duration": 0.17241375000000048
                },
                {
                    "name": "D3",
                    "midi": 50,
                    "time": 16.72413374999999,
                    "velocity": 0.4566929133858268,
                    "duration": 0.17241375000000048
                },
                {
                    "name": "C3",
                    "midi": 48,
                    "time": 16.89654749999999,
                    "velocity": 0.4645669291338583,
                    "duration": 0.17241375000000048
                },
                {
                    "name": "A#2",
                    "midi": 46,
                    "time": 17.06896124999999,
                    "velocity": 0.47244094488188976,
                    "duration": 0.17241375000000048
                },
                {
                    "name": "A2",
                    "midi": 45,
                    "time": 17.24137499999999,
                    "velocity": 0.47244094488188976,
                    "duration": 0.17241375000000048
                },
                {
                    "name": "G2",
                    "midi": 43,
                    "time": 17.41378874999999,
                    "velocity": 0.48031496062992124,
                    "duration": 0.17241375000000048
                },
                {
                    "name": "F#2",
                    "midi": 42,
                    "time": 17.58620249999999,
                    "velocity": 0.48031496062992124,
                    "duration": 0.17241375000000048
                },
                {
                    "name": "D#2",
                    "midi": 39,
                    "time": 17.758616249999992,
                    "velocity": 0.4881889763779528,
                    "duration": 0.17241375000000048
                },
                {
                    "name": "D2",
                    "midi": 38,
                    "time": 17.931029999999993,
                    "velocity": 0.49606299212598426,
                    "duration": 0.17241375000000048
                },
                {
                    "name": "C2",
                    "midi": 36,
                    "time": 18.103443749999993,
                    "velocity": 0.49606299212598426,
                    "duration": 0.17241375000000048
                },
                {
                    "name": "A#1",
                    "midi": 34,
                    "time": 18.275857499999994,
                    "velocity": 0.49606299212598426,
                    "duration": 0.17241375000000048
                },
                {
                    "name": "A1",
                    "midi": 33,
                    "time": 18.448271249999994,
                    "velocity": 0.49606299212598426,
                    "duration": 0.17241375000000048
                },
                {
                    "name": "D2",
                    "midi": 38,
                    "time": 18.620684999999995,
                    "velocity": 0.5039370078740157,
                    "duration": 0.17241375000000048
                },
                {
                    "name": "C2",
                    "midi": 36,
                    "time": 18.793098749999995,
                    "velocity": 0.5039370078740157,
                    "duration": 0.17241375000000048
                },
                {
                    "name": "G1",
                    "midi": 31,
                    "time": 18.965512499999996,
                    "velocity": 0.5748031496062992,
                    "duration": 1.8965512499999981
                },
                {
                    "name": "A#1",
                    "midi": 34,
                    "time": 18.965512499999996,
                    "velocity": 0.5748031496062992,
                    "duration": 1.8965512499999981
                },
                {
                    "name": "D2",
                    "midi": 38,
                    "time": 20.862063749999994,
                    "velocity": 0.4251968503937008,
                    "duration": 0.17241375000000048
                },
                {
                    "name": "G2",
                    "midi": 43,
                    "time": 21.034477499999994,
                    "velocity": 0.4330708661417323,
                    "duration": 0.17241375000000048
                },
                {
                    "name": "A#2",
                    "midi": 46,
                    "time": 21.206891249999995,
                    "velocity": 0.4409448818897638,
                    "duration": 0.17241375000000048
                },
                {
                    "name": "D3",
                    "midi": 50,
                    "time": 21.379304999999995,
                    "velocity": 0.4566929133858268,
                    "duration": 0.17241375000000048
                },
                {
                    "name": "G3",
                    "midi": 55,
                    "time": 21.551718749999996,
                    "velocity": 0.4645669291338583,
                    "duration": 0.17241375000000048
                },
                {
                    "name": "A#3",
                    "midi": 58,
                    "time": 21.724132499999996,
                    "velocity": 0.47244094488188976,
                    "duration": 0.17241375000000048
                },
                {
                    "name": "D4",
                    "midi": 62,
                    "time": 21.896546249999997,
                    "velocity": 0.4881889763779528,
                    "duration": 0.17241375000000048
                },
                {
                    "name": "G4",
                    "midi": 67,
                    "time": 22.068959999999997,
                    "velocity": 0.49606299212598426,
                    "duration": 0.17241375000000048
                },
                {
                    "name": "A#4",
                    "midi": 70,
                    "time": 22.241373749999998,
                    "velocity": 0.5039370078740157,
                    "duration": 0.17241375000000048
                },
                {
                    "name": "D5",
                    "midi": 74,
                    "time": 22.413787499999998,
                    "velocity": 0.5118110236220472,
                    "duration": 0.17241375000000048
                },
                {
                    "name": "G5",
                    "midi": 79,
                    "time": 22.58620125,
                    "velocity": 0.5039370078740157,
                    "duration": 0.17241375000000048
                },
                {
                    "name": "A#5",
                    "midi": 82,
                    "time": 22.758615,
                    "velocity": 0.5196850393700787,
                    "duration": 0.17241375000000048
                },
                {
                    "name": "D6",
                    "midi": 86,
                    "time": 22.93102875,
                    "velocity": 0.5354330708661418,
                    "duration": 0.17241375000000048
                },
                {
                    "name": "G6",
                    "midi": 91,
                    "time": 23.1034425,
                    "velocity": 0.5905511811023622,
                    "duration": 1.8965512499999981
                },
                {
                    "name": "D#6",
                    "midi": 87,
                    "time": 24.999993749999998,
                    "velocity": 0.3937007874015748,
                    "duration": 0.17241375000000048
                },
                {
                    "name": "D6",
                    "midi": 86,
                    "time": 25.1724075,
                    "velocity": 0.3937007874015748,
                    "duration": 0.17241375000000048
                },
                {
                    "name": "C6",
                    "midi": 84,
                    "time": 25.34482125,
                    "velocity": 0.3937007874015748,
                    "duration": 0.17241375000000048
                },
                {
                    "name": "A#5",
                    "midi": 82,
                    "time": 25.517235,
                    "velocity": 0.4015748031496063,
                    "duration": 0.17241375000000048
                },
                {
                    "name": "A5",
                    "midi": 81,
                    "time": 25.68964875,
                    "velocity": 0.4015748031496063,
                    "duration": 0.17241375000000048
                },
                {
                    "name": "G5",
                    "midi": 79,
                    "time": 25.8620625,
                    "velocity": 0.4094488188976378,
                    "duration": 0.17241375000000048
                },
                {
                    "name": "F#5",
                    "midi": 78,
                    "time": 26.03447625,
                    "velocity": 0.4094488188976378,
                    "duration": 0.17241375000000048
                },
                {
                    "name": "D#5",
                    "midi": 75,
                    "time": 26.20689,
                    "velocity": 0.41732283464566927,
                    "duration": 0.17241375000000048
                },
                {
                    "name": "D5",
                    "midi": 74,
                    "time": 26.379303750000002,
                    "velocity": 0.4251968503937008,
                    "duration": 0.17241375000000048
                },
                {
                    "name": "C5",
                    "midi": 72,
                    "time": 26.551717500000002,
                    "velocity": 0.4251968503937008,
                    "duration": 0.17241375000000048
                },
                {
                    "name": "A#4",
                    "midi": 70,
                    "time": 26.724131250000003,
                    "velocity": 0.4251968503937008,
                    "duration": 0.17241375000000048
                },
                {
                    "name": "A4",
                    "midi": 69,
                    "time": 26.896545000000003,
                    "velocity": 0.4251968503937008,
                    "duration": 0.17241375000000048
                },
                {
                    "name": "G4",
                    "midi": 67,
                    "time": 27.068958750000004,
                    "velocity": 0.4330708661417323,
                    "duration": 0.17241375000000048
                },
                {
                    "name": "F#4",
                    "midi": 66,
                    "time": 27.241372500000004,
                    "velocity": 0.4409448818897638,
                    "duration": 0.17241375000000048
                },
                {
                    "name": "D#4",
                    "midi": 63,
                    "time": 27.413786250000005,
                    "velocity": 0.4409448818897638,
                    "duration": 0.17241375000000048
                },
                {
                    "name": "D4",
                    "midi": 62,
                    "time": 27.586200000000005,
                    "velocity": 0.44881889763779526,
                    "duration": 0.17241375000000048
                },
                {
                    "name": "C4",
                    "midi": 60,
                    "time": 27.758613750000006,
                    "velocity": 0.44881889763779526,
                    "duration": 0.17241375000000048
                },
                {
                    "name": "A#3",
                    "midi": 58,
                    "time": 27.931027500000006,
                    "velocity": 0.4566929133858268,
                    "duration": 0.17241375000000048
                },
                {
                    "name": "A3",
                    "midi": 57,
                    "time": 28.103441250000007,
                    "velocity": 0.4566929133858268,
                    "duration": 0.17241375000000048
                },
                {
                    "name": "G3",
                    "midi": 55,
                    "time": 28.275855000000007,
                    "velocity": 0.4645669291338583,
                    "duration": 0.17241375000000048
                },
                {
                    "name": "F#3",
                    "midi": 54,
                    "time": 28.448268750000008,
                    "velocity": 0.47244094488188976,
                    "duration": 0.17241375000000048
                },
                {
                    "name": "D#3",
                    "midi": 51,
                    "time": 28.620682500000008,
                    "velocity": 0.47244094488188976,
                    "duration": 0.17241375000000048
                },
                {
                    "name": "D3",
                    "midi": 50,
                    "time": 28.79309625000001,
                    "velocity": 0.48031496062992124,
                    "duration": 0.17241375000000048
                },
                {
                    "name": "C3",
                    "midi": 48,
                    "time": 28.96551000000001,
                    "velocity": 0.48031496062992124,
                    "duration": 0.17241375000000048
                },
                {
                    "name": "A#2",
                    "midi": 46,
                    "time": 29.13792375000001,
                    "velocity": 0.4881889763779528,
                    "duration": 0.17241375000000048
                },
                {
                    "name": "A2",
                    "midi": 45,
                    "time": 29.31033750000001,
                    "velocity": 0.48031496062992124,
                    "duration": 0.17241375000000048
                },
                {
                    "name": "G2",
                    "midi": 43,
                    "time": 29.48275125000001,
                    "velocity": 0.4881889763779528,
                    "duration": 0.17241375000000048
                },
                {
                    "name": "F#2",
                    "midi": 42,
                    "time": 29.65516500000001,
                    "velocity": 0.49606299212598426,
                    "duration": 0.17241375000000048
                },
                {
                    "name": "D#2",
                    "midi": 39,
                    "time": 29.82757875000001,
                    "velocity": 0.49606299212598426,
                    "duration": 0.17241375000000048
                },
                {
                    "name": "D2",
                    "midi": 38,
                    "time": 29.999992500000012,
                    "velocity": 0.5118110236220472,
                    "duration": 0.17241375000000048
                },
                {
                    "name": "C2",
                    "midi": 36,
                    "time": 30.172406250000012,
                    "velocity": 0.5196850393700787,
                    "duration": 0.17241375000000048
                },
                {
                    "name": "G1",
                    "midi": 31,
                    "time": 30.344820000000013,
                    "velocity": 0.5748031496062992,
                    "duration": 1.5517237500000007
                },
                {
                    "name": "A#1",
                    "midi": 34,
                    "time": 30.344820000000013,
                    "velocity": 0.5748031496062992,
                    "duration": 1.5517237500000007
                },
                {
                    "name": "B1",
                    "midi": 35,
                    "time": 31.896543750000014,
                    "velocity": 0.33858267716535434,
                    "duration": 0.17241374999999692
                },
                {
                    "name": "C2",
                    "midi": 36,
                    "time": 32.06895750000001,
                    "velocity": 0.3464566929133858,
                    "duration": 0.17241374999999692
                },
                {
                    "name": "C#2",
                    "midi": 37,
                    "time": 32.24137125000001,
                    "velocity": 0.3464566929133858,
                    "duration": 0.17241374999999692
                },
                {
                    "name": "D2",
                    "midi": 38,
                    "time": 32.413785000000004,
                    "velocity": 0.3543307086614173,
                    "duration": 0.17241374999999692
                },
                {
                    "name": "D#2",
                    "midi": 39,
                    "time": 32.58619875,
                    "velocity": 0.3543307086614173,
                    "duration": 0.17241374999999692
                },
                {
                    "name": "E2",
                    "midi": 40,
                    "time": 32.7586125,
                    "velocity": 0.36220472440944884,
                    "duration": 0.17241374999999692
                },
                {
                    "name": "F2",
                    "midi": 41,
                    "time": 32.931026249999995,
                    "velocity": 0.36220472440944884,
                    "duration": 0.17241374999999692
                },
                {
                    "name": "F#2",
                    "midi": 42,
                    "time": 33.10343999999999,
                    "velocity": 0.3700787401574803,
                    "duration": 0.17241374999999692
                },
                {
                    "name": "G2",
                    "midi": 43,
                    "time": 33.27585374999999,
                    "velocity": 0.3779527559055118,
                    "duration": 0.17241374999999692
                },
                {
                    "name": "G#2",
                    "midi": 44,
                    "time": 33.448267499999986,
                    "velocity": 0.3858267716535433,
                    "duration": 0.17241374999999692
                },
                {
                    "name": "A2",
                    "midi": 45,
                    "time": 33.62068124999998,
                    "velocity": 0.3858267716535433,
                    "duration": 0.17241374999999692
                },
                {
                    "name": "A#2",
                    "midi": 46,
                    "time": 33.79309499999998,
                    "velocity": 0.3937007874015748,
                    "duration": 0.17241374999999692
                },
                {
                    "name": "B2",
                    "midi": 47,
                    "time": 33.96550874999998,
                    "velocity": 0.4015748031496063,
                    "duration": 0.17241374999999692
                },
                {
                    "name": "C3",
                    "midi": 48,
                    "time": 34.13792249999997,
                    "velocity": 0.4094488188976378,
                    "duration": 0.17241374999999692
                },
                {
                    "name": "C#3",
                    "midi": 49,
                    "time": 34.31033624999997,
                    "velocity": 0.4094488188976378,
                    "duration": 0.17241374999999692
                },
                {
                    "name": "D3",
                    "midi": 50,
                    "time": 34.48274999999997,
                    "velocity": 0.41732283464566927,
                    "duration": 0.17241374999999692
                },
                {
                    "name": "D#3",
                    "midi": 51,
                    "time": 34.655163749999964,
                    "velocity": 0.4251968503937008,
                    "duration": 0.17241374999999692
                },
                {
                    "name": "E3",
                    "midi": 52,
                    "time": 34.82757749999996,
                    "velocity": 0.4251968503937008,
                    "duration": 0.17241374999999692
                },
                {
                    "name": "F3",
                    "midi": 53,
                    "time": 34.99999124999996,
                    "velocity": 0.4251968503937008,
                    "duration": 0.17241374999999692
                },
                {
                    "name": "F#3",
                    "midi": 54,
                    "time": 35.172404999999955,
                    "velocity": 0.4330708661417323,
                    "duration": 0.17241374999999692
                },
                {
                    "name": "G3",
                    "midi": 55,
                    "time": 35.34481874999995,
                    "velocity": 0.4409448818897638,
                    "duration": 0.17241374999999692
                },
                {
                    "name": "G#3",
                    "midi": 56,
                    "time": 35.51723249999995,
                    "velocity": 0.44881889763779526,
                    "duration": 0.17241374999999692
                },
                {
                    "name": "A3",
                    "midi": 57,
                    "time": 35.689646249999946,
                    "velocity": 0.44881889763779526,
                    "duration": 0.17241374999999692
                },
                {
                    "name": "A#3",
                    "midi": 58,
                    "time": 35.86205999999994,
                    "velocity": 0.41732283464566927,
                    "duration": 0.17241374999999692
                },
                {
                    "name": "A3",
                    "midi": 57,
                    "time": 36.03447374999994,
                    "velocity": 0.41732283464566927,
                    "duration": 0.17241374999999692
                },
                {
                    "name": "G#3",
                    "midi": 56,
                    "time": 36.20688749999994,
                    "velocity": 0.4094488188976378,
                    "duration": 0.17241374999999692
                },
                {
                    "name": "G3",
                    "midi": 55,
                    "time": 36.37930124999993,
                    "velocity": 0.4015748031496063,
                    "duration": 0.17241374999999692
                },
                {
                    "name": "F#3",
                    "midi": 54,
                    "time": 36.55171499999993,
                    "velocity": 0.4015748031496063,
                    "duration": 0.17241374999999692
                },
                {
                    "name": "F3",
                    "midi": 53,
                    "time": 36.72412874999993,
                    "velocity": 0.3937007874015748,
                    "duration": 0.17241374999999692
                },
                {
                    "name": "E3",
                    "midi": 52,
                    "time": 36.896542499999924,
                    "velocity": 0.3858267716535433,
                    "duration": 0.17241374999999692
                },
                {
                    "name": "D#3",
                    "midi": 51,
                    "time": 37.06895624999992,
                    "velocity": 0.3858267716535433,
                    "duration": 0.17241374999999692
                },
                {
                    "name": "D3",
                    "midi": 50,
                    "time": 37.24136999999992,
                    "velocity": 0.36220472440944884,
                    "duration": 0.17241374999999692
                },
                {
                    "name": "C#3",
                    "midi": 49,
                    "time": 37.413783749999915,
                    "velocity": 0.3700787401574803,
                    "duration": 0.17241374999999692
                },
                {
                    "name": "C3",
                    "midi": 48,
                    "time": 37.58619749999991,
                    "velocity": 0.3779527559055118,
                    "duration": 0.17241374999999692
                },
                {
                    "name": "B2",
                    "midi": 47,
                    "time": 37.75861124999991,
                    "velocity": 0.3937007874015748,
                    "duration": 0.17241374999999692
                },
                {
                    "name": "A#2",
                    "midi": 46,
                    "time": 37.931024999999906,
                    "velocity": 0.4015748031496063,
                    "duration": 0.17241374999999692
                },
                {
                    "name": "A2",
                    "midi": 45,
                    "time": 38.1034387499999,
                    "velocity": 0.41732283464566927,
                    "duration": 0.17241374999999692
                },
                {
                    "name": "G#2",
                    "midi": 44,
                    "time": 38.2758524999999,
                    "velocity": 0.4251968503937008,
                    "duration": 0.17241374999999692
                },
                {
                    "name": "G2",
                    "midi": 43,
                    "time": 38.4482662499999,
                    "velocity": 0.4330708661417323,
                    "duration": 0.17241374999999692
                },
                {
                    "name": "F#2",
                    "midi": 42,
                    "time": 38.62067999999989,
                    "velocity": 0.4645669291338583,
                    "duration": 0.17241374999999692
                },
                {
                    "name": "F2",
                    "midi": 41,
                    "time": 38.79309374999989,
                    "velocity": 0.47244094488188976,
                    "duration": 0.17241374999999692
                },
                {
                    "name": "E2",
                    "midi": 40,
                    "time": 38.96550749999989,
                    "velocity": 0.4881889763779528,
                    "duration": 0.17241374999999692
                },
                {
                    "name": "D#2",
                    "midi": 39,
                    "time": 39.137921249999884,
                    "velocity": 0.49606299212598426,
                    "duration": 0.17241374999999692
                },
                {
                    "name": "D2",
                    "midi": 38,
                    "time": 39.31033499999988,
                    "velocity": 0.5039370078740157,
                    "duration": 0.17241374999999692
                },
                {
                    "name": "C#2",
                    "midi": 37,
                    "time": 39.48274874999988,
                    "velocity": 0.5196850393700787,
                    "duration": 0.17241374999999692
                },
                {
                    "name": "C2",
                    "midi": 36,
                    "time": 39.655162499999875,
                    "velocity": 0.5275590551181102,
                    "duration": 0.17241374999999692
                },
                {
                    "name": "B1",
                    "midi": 35,
                    "time": 39.82757624999987,
                    "velocity": 0.5433070866141733,
                    "duration": 0.17241374999999692
                },
                {
                    "name": "G1",
                    "midi": 31,
                    "time": 39.99998999999987,
                    "velocity": 0.6220472440944882,
                    "duration": 0.34482750000000095
                },
                {
                    "name": "A#1",
                    "midi": 34,
                    "time": 39.99998999999987,
                    "velocity": 0.6220472440944882,
                    "duration": 0.34482750000000095
                },
                {
                    "name": "G4",
                    "midi": 67,
                    "time": 41.37929999999987,
                    "velocity": 0.5984251968503937,
                    "duration": 0.34482749999999385
                },
                {
                    "name": "D4",
                    "midi": 62,
                    "time": 41.37929999999987,
                    "velocity": 0.49606299212598426,
                    "duration": 0.34482749999999385
                },
                {
                    "name": "A#3",
                    "midi": 58,
                    "time": 41.37929999999987,
                    "velocity": 0.49606299212598426,
                    "duration": 0.34482749999999385
                },
                {
                    "name": "G3",
                    "midi": 55,
                    "time": 41.37929999999987,
                    "velocity": 0.4251968503937008,
                    "duration": 0.34482749999999385
                },
                {
                    "name": "D4",
                    "midi": 62,
                    "time": 49.65515999999987,
                    "velocity": 0.3937007874015748,
                    "duration": 4.137929999999997
                },
                {
                    "name": "G4",
                    "midi": 67,
                    "time": 53.793089999999864,
                    "velocity": 0.4409448818897638,
                    "duration": 1.3793099999999967
                },
                {
                    "name": "F#4",
                    "midi": 66,
                    "time": 55.17239999999986,
                    "velocity": 0.4251968503937008,
                    "duration": 1.3793099999999967
                },
                {
                    "name": "D#4",
                    "midi": 63,
                    "time": 56.55170999999986,
                    "velocity": 0.4251968503937008,
                    "duration": 1.3793099999999967
                },
                {
                    "name": "D4",
                    "midi": 62,
                    "time": 57.931019999999855,
                    "velocity": 0.3937007874015748,
                    "duration": 4.137929999999997
                },
                {
                    "name": "D4",
                    "midi": 62,
                    "time": 62.06894999999985,
                    "velocity": 0.4409448818897638,
                    "duration": 1.3793099999999967
                },
                {
                    "name": "C4",
                    "midi": 60,
                    "time": 63.44825999999985,
                    "velocity": 0.4251968503937008,
                    "duration": 1.3793100000000038
                },
                {
                    "name": "A#3",
                    "midi": 58,
                    "time": 64.82756999999985,
                    "velocity": 0.4251968503937008,
                    "duration": 1.3793100000000038
                },
                {
                    "name": "A3",
                    "midi": 57,
                    "time": 66.20687999999986,
                    "velocity": 0.3937007874015748,
                    "duration": 4.137929999999997
                },
                {
                    "name": "C4",
                    "midi": 60,
                    "time": 70.34480999999985,
                    "velocity": 0.5669291338582677,
                    "duration": 1.3793100000000038
                },
                {
                    "name": "A3",
                    "midi": 57,
                    "time": 71.72411999999986,
                    "velocity": 0.5275590551181102,
                    "duration": 1.3793100000000038
                },
                {
                    "name": "G3",
                    "midi": 55,
                    "time": 73.10342999999986,
                    "velocity": 0.48031496062992124,
                    "duration": 1.3793100000000038
                },
                {
                    "name": "A#3",
                    "midi": 58,
                    "time": 74.48273999999986,
                    "velocity": 0.47244094488188976,
                    "duration": 2.7586199999999934
                },
                {
                    "name": "A3",
                    "midi": 57,
                    "time": 77.24135999999986,
                    "velocity": 0.3779527559055118,
                    "duration": 1.3793100000000038
                },
                {
                    "name": "A3",
                    "midi": 57,
                    "time": 78.62066999999986,
                    "velocity": 0.4409448818897638,
                    "duration": 1.3793100000000038
                },
                {
                    "name": "G3",
                    "midi": 55,
                    "time": 79.99997999999987,
                    "velocity": 0.4251968503937008,
                    "duration": 1.3793100000000038
                },
                {
                    "name": "F#3",
                    "midi": 54,
                    "time": 81.37928999999987,
                    "velocity": 0.4251968503937008,
                    "duration": 1.3793100000000038
                },
                {
                    "name": "D4",
                    "midi": 62,
                    "time": 82.75859999999987,
                    "velocity": 0.3937007874015748,
                    "duration": 4.137929999999997
                },
                {
                    "name": "D4",
                    "midi": 62,
                    "time": 86.89652999999987,
                    "velocity": 0.5354330708661418,
                    "duration": 1.3793100000000038
                },
                {
                    "name": "D#4",
                    "midi": 63,
                    "time": 88.27583999999987,
                    "velocity": 0.5669291338582677,
                    "duration": 1.3793100000000038
                },
                {
                    "name": "C4",
                    "midi": 60,
                    "time": 89.65514999999988,
                    "velocity": 0.5196850393700787,
                    "duration": 1.3793100000000038
                },
                {
                    "name": "D#4",
                    "midi": 63,
                    "time": 89.65514999999988,
                    "velocity": 0.5196850393700787,
                    "duration": 1.3793100000000038
                },
                {
                    "name": "C4",
                    "midi": 60,
                    "time": 91.03445999999988,
                    "velocity": 0.48031496062992124,
                    "duration": 4.137929999999997
                },
                {
                    "name": "D#4",
                    "midi": 63,
                    "time": 91.03445999999988,
                    "velocity": 0.48031496062992124,
                    "duration": 4.137929999999997
                },
                {
                    "name": "C4",
                    "midi": 60,
                    "time": 95.17238999999988,
                    "velocity": 0.4409448818897638,
                    "duration": 1.3793100000000038
                },
                {
                    "name": "D#4",
                    "midi": 63,
                    "time": 95.17238999999988,
                    "velocity": 0.4409448818897638,
                    "duration": 1.3793100000000038
                },
                {
                    "name": "D4",
                    "midi": 62,
                    "time": 96.55169999999988,
                    "velocity": 0.4251968503937008,
                    "duration": 1.3793100000000038
                },
                {
                    "name": "D4",
                    "midi": 62,
                    "time": 97.93100999999989,
                    "velocity": 0.4251968503937008,
                    "duration": 1.3793100000000038
                },
                {
                    "name": "C4",
                    "midi": 60,
                    "time": 99.31031999999989,
                    "velocity": 0.3937007874015748,
                    "duration": 4.137929999999997
                },
                {
                    "name": "C#4",
                    "midi": 61,
                    "time": 103.44824999999989,
                    "velocity": 0.5669291338582677,
                    "duration": 1.3793100000000038
                },
                {
                    "name": "C4",
                    "midi": 60,
                    "time": 104.82755999999989,
                    "velocity": 0.5275590551181102,
                    "duration": 1.3793100000000038
                },
                {
                    "name": "A#3",
                    "midi": 58,
                    "time": 106.2068699999999,
                    "velocity": 0.48031496062992124,
                    "duration": 1.3793100000000038
                },
                {
                    "name": "C4",
                    "midi": 60,
                    "time": 107.5861799999999,
                    "velocity": 0.48031496062992124,
                    "duration": 1.3793100000000038
                },
                {
                    "name": "F4",
                    "midi": 65,
                    "time": 108.9654899999999,
                    "velocity": 0.5039370078740157,
                    "duration": 1.3793100000000038
                },
                {
                    "name": "F4",
                    "midi": 65,
                    "time": 110.3447999999999,
                    "velocity": 0.49606299212598426,
                    "duration": 1.3793100000000038
                },
                {
                    "name": "C4",
                    "midi": 60,
                    "time": 111.72410999999991,
                    "velocity": 0.5196850393700787,
                    "duration": 1.3793100000000038
                },
                {
                    "name": "D4",
                    "midi": 62,
                    "time": 113.10341999999991,
                    "velocity": 0.5275590551181102,
                    "duration": 1.3793100000000038
                },
                {
                    "name": "F4",
                    "midi": 65,
                    "time": 114.48272999999992,
                    "velocity": 0.5275590551181102,
                    "duration": 1.3793100000000038
                },
                {
                    "name": "F4",
                    "midi": 65,
                    "time": 115.86203999999992,
                    "velocity": 0.5433070866141733,
                    "duration": 1.3793100000000038
                },
                {
                    "name": "F#4",
                    "midi": 66,
                    "time": 117.24134999999993,
                    "velocity": 0.5826771653543307,
                    "duration": 1.3793100000000038
                },
                {
                    "name": "G4",
                    "midi": 67,
                    "time": 118.62065999999993,
                    "velocity": 0.5669291338582677,
                    "duration": 1.3793100000000038
                },
                {
                    "name": "G4",
                    "midi": 67,
                    "time": 119.99996999999993,
                    "velocity": 0.5905511811023622,
                    "duration": 1.3793100000000038
                },
                {
                    "name": "F4",
                    "midi": 65,
                    "time": 126.89651999999994,
                    "velocity": 0.5511811023622047,
                    "duration": 2.7586199999999934
                },
                {
                    "name": "F4",
                    "midi": 65,
                    "time": 129.65513999999993,
                    "velocity": 0.49606299212598426,
                    "duration": 2.7586200000000076
                },
                {
                    "name": "A#2",
                    "midi": 46,
                    "time": 132.41375999999994,
                    "velocity": 0.3937007874015748,
                    "duration": 4.022987499999999
                },
                {
                    "name": "A#3",
                    "midi": 58,
                    "time": 132.41375999999994,
                    "velocity": 0.3937007874015748,
                    "duration": 4.022987499999999
                },
                {
                    "name": "A#2",
                    "midi": 46,
                    "time": 136.43674749999994,
                    "velocity": 0.3543307086614173,
                    "duration": 1.3793099999999754
                },
                {
                    "name": "F3",
                    "midi": 53,
                    "time": 136.49421874999993,
                    "velocity": 0.33858267716535434,
                    "duration": 1.3218387499999835
                },
                {
                    "name": "D4",
                    "midi": 62,
                    "time": 136.55168999999992,
                    "velocity": 0.4015748031496063,
                    "duration": 1.2643674999999917
                },
                {
                    "name": "A#2",
                    "midi": 46,
                    "time": 137.8160574999999,
                    "velocity": 0.3700787401574803,
                    "duration": 1.3793100000000038
                },
                {
                    "name": "D#4",
                    "midi": 63,
                    "time": 137.93099999999993,
                    "velocity": 0.4409448818897638,
                    "duration": 1.2643674999999917
                },
                {
                    "name": "A#2",
                    "midi": 46,
                    "time": 139.19536749999992,
                    "velocity": 0.3937007874015748,
                    "duration": 1.3793100000000038
                },
                {
                    "name": "D#4",
                    "midi": 63,
                    "time": 139.31030999999993,
                    "velocity": 0.48031496062992124,
                    "duration": 1.2643674999999917
                },
                {
                    "name": "A2",
                    "midi": 45,
                    "time": 140.57467749999992,
                    "velocity": 0.4251968503937008,
                    "duration": 2.7586200000000076
                },
                {
                    "name": "D#4",
                    "midi": 63,
                    "time": 140.68961999999993,
                    "velocity": 0.49606299212598426,
                    "duration": 2.6436774999999955
                },
                {
                    "name": "A#2",
                    "midi": 46,
                    "time": 143.33329749999993,
                    "velocity": 0.4015748031496063,
                    "duration": 1.3793100000000038
                },
                {
                    "name": "D4",
                    "midi": 62,
                    "time": 143.44823999999994,
                    "velocity": 0.48031496062992124,
                    "duration": 1.2643674999999917
                },
                {
                    "name": "A#2",
                    "midi": 46,
                    "time": 144.71260749999993,
                    "velocity": 0.3464566929133858,
                    "duration": 1.3793099999999754
                },
                {
                    "name": "F3",
                    "midi": 53,
                    "time": 144.77007874999993,
                    "velocity": 0.3464566929133858,
                    "duration": 1.3218387499999835
                },
                {
                    "name": "D4",
                    "midi": 62,
                    "time": 144.82754999999992,
                    "velocity": 0.3779527559055118,
                    "duration": 1.2643674999999917
                },
                {
                    "name": "A#2",
                    "midi": 46,
                    "time": 146.0919174999999,
                    "velocity": 0.36220472440944884,
                    "duration": 1.3793100000000038
                },
                {
                    "name": "D#4",
                    "midi": 63,
                    "time": 146.20685999999992,
                    "velocity": 0.4330708661417323,
                    "duration": 1.2643674999999917
                },
                {
                    "name": "A#2",
                    "midi": 46,
                    "time": 147.4712274999999,
                    "velocity": 0.4251968503937008,
                    "duration": 1.3793100000000038
                },
                {
                    "name": "D#4",
                    "midi": 63,
                    "time": 147.58616999999992,
                    "velocity": 0.4881889763779528,
                    "duration": 1.2643674999999917
                },
                {
                    "name": "A2",
                    "midi": 45,
                    "time": 148.85053749999992,
                    "velocity": 0.4251968503937008,
                    "duration": 2.7586200000000076
                },
                {
                    "name": "D#4",
                    "midi": 63,
                    "time": 148.96547999999993,
                    "velocity": 0.49606299212598426,
                    "duration": 2.6436774999999955
                },
                {
                    "name": "A#2",
                    "midi": 46,
                    "time": 151.60915749999992,
                    "velocity": 0.4015748031496063,
                    "duration": 1.494252500000016
                },
                {
                    "name": "D4",
                    "midi": 62,
                    "time": 151.72409999999994,
                    "velocity": 0.48031496062992124,
                    "duration": 1.3793100000000038
                },
                {
                    "name": "G#3",
                    "midi": 56,
                    "time": 153.10340999999994,
                    "velocity": 0.4094488188976378,
                    "duration": 1.3793100000000038
                },
                {
                    "name": "A#3",
                    "midi": 58,
                    "time": 153.10340999999994,
                    "velocity": 0.48031496062992124,
                    "duration": 1.3793100000000038
                },
                {
                    "name": "A#3",
                    "midi": 58,
                    "time": 154.48271999999994,
                    "velocity": 0.48031496062992124,
                    "duration": 1.3793100000000038
                },
                {
                    "name": "A#3",
                    "midi": 58,
                    "time": 155.86202999999995,
                    "velocity": 0.3937007874015748,
                    "duration": 1.3793100000000038
                },
                {
                    "name": "C4",
                    "midi": 60,
                    "time": 155.86202999999995,
                    "velocity": 0.49606299212598426,
                    "duration": 1.3793100000000038
                },
                {
                    "name": "C4",
                    "midi": 60,
                    "time": 157.24133999999995,
                    "velocity": 0.49606299212598426,
                    "duration": 1.3735628750000046
                },
                {
                    "name": "D4",
                    "midi": 62,
                    "time": 159.99995999999996,
                    "velocity": 0.5196850393700787,
                    "duration": 1.3793100000000038
                },
                {
                    "name": "F4",
                    "midi": 65,
                    "time": 162.75857999999997,
                    "velocity": 0.5433070866141733,
                    "duration": 1.3735628750000046
                },
                {
                    "name": "A#4",
                    "midi": 70,
                    "time": 165.51719999999997,
                    "velocity": 0.5669291338582677,
                    "duration": 1.3735628750000046
                },
                {
                    "name": "A#4",
                    "midi": 70,
                    "time": 168.27581999999998,
                    "velocity": 0.48031496062992124,
                    "duration": 1.3793100000000038
                },
                {
                    "name": "C5",
                    "midi": 72,
                    "time": 168.27581999999998,
                    "velocity": 0.5984251968503937,
                    "duration": 1.3793100000000038
                },
                {
                    "name": "G5",
                    "midi": 79,
                    "time": 171.03444,
                    "velocity": 0.6141732283464567,
                    "duration": 1.3793100000000038
                },
                {
                    "name": "F5",
                    "midi": 77,
                    "time": 173.79306,
                    "velocity": 0.5984251968503937,
                    "duration": 1.3793100000000038
                },
                {
                    "name": "A#4",
                    "midi": 70,
                    "time": 176.55168,
                    "velocity": 0.5511811023622047,
                    "duration": 1.3793100000000038
                },
                {
                    "name": "A3",
                    "midi": 57,
                    "time": 180.68961000000002,
                    "velocity": 0.48031496062992124,
                    "duration": 1.3793100000000038
                },
                {
                    "name": "A#3",
                    "midi": 58,
                    "time": 182.06892000000002,
                    "velocity": 0.47244094488188976,
                    "duration": 1.3793100000000038
                },
                {
                    "name": "A3",
                    "midi": 57,
                    "time": 183.44823000000002,
                    "velocity": 0.4566929133858268,
                    "duration": 1.3793100000000038
                },
                {
                    "name": "G#3",
                    "midi": 56,
                    "time": 184.82754000000003,
                    "velocity": 0.44881889763779526,
                    "duration": 1.3793100000000038
                },
                {
                    "name": "G3",
                    "midi": 55,
                    "time": 186.20685000000003,
                    "velocity": 0.4330708661417323,
                    "duration": 1.3793100000000038
                },
                {
                    "name": "F#3",
                    "midi": 54,
                    "time": 187.58616000000004,
                    "velocity": 0.4251968503937008,
                    "duration": 1.3793100000000038
                },
                {
                    "name": "F3",
                    "midi": 53,
                    "time": 188.96547000000004,
                    "velocity": 0.41732283464566927,
                    "duration": 1.3793100000000038
                },
                {
                    "name": "F3",
                    "midi": 53,
                    "time": 190.34478000000004,
                    "velocity": 0.41732283464566927,
                    "duration": 2.7586200000000076
                },
                {
                    "name": "F3",
                    "midi": 53,
                    "time": 193.10340000000005,
                    "velocity": 0.3937007874015748,
                    "duration": 2.7586200000000076
                },
                {
                    "name": "F#3",
                    "midi": 54,
                    "time": 195.86202000000006,
                    "velocity": 0.3937007874015748,
                    "duration": 2.7586200000000076
                },
                {
                    "name": "G1",
                    "midi": 31,
                    "time": 198.62064000000007,
                    "velocity": 0.3937007874015748,
                    "duration": 2.7586200000000076
                },
                {
                    "name": "B1",
                    "midi": 35,
                    "time": 198.62064000000007,
                    "velocity": 0.3937007874015748,
                    "duration": 2.7586200000000076
                },
                {
                    "name": "D2",
                    "midi": 38,
                    "time": 198.62064000000007,
                    "velocity": 0.3937007874015748,
                    "duration": 2.7586200000000076
                },
                {
                    "name": "G2",
                    "midi": 43,
                    "time": 198.62064000000007,
                    "velocity": 0.47244094488188976,
                    "duration": 2.7586200000000076
                },
                {
                    "name": "D#1",
                    "midi": 27,
                    "time": 211.03443000000007,
                    "velocity": 0.4330708661417323,
                    "duration": 1.3793100000000038
                },
                {
                    "name": "D#2",
                    "midi": 39,
                    "time": 211.03443000000007,
                    "velocity": 0.5196850393700787,
                    "duration": 1.3793100000000038
                },
                {
                    "name": "F1",
                    "midi": 29,
                    "time": 212.41374000000008,
                    "velocity": 0.4409448818897638,
                    "duration": 1.3793100000000038
                },
                {
                    "name": "F2",
                    "midi": 41,
                    "time": 212.41374000000008,
                    "velocity": 0.5275590551181102,
                    "duration": 1.3793100000000038
                },
                {
                    "name": "F#1",
                    "midi": 30,
                    "time": 213.79305000000008,
                    "velocity": 0.44881889763779526,
                    "duration": 0.6896549999999877
                },
                {
                    "name": "F#2",
                    "midi": 42,
                    "time": 213.79305000000008,
                    "velocity": 0.5433070866141733,
                    "duration": 0.6896549999999877
                },
                {
                    "name": "G1",
                    "midi": 31,
                    "time": 214.82753250000007,
                    "velocity": 0.4566929133858268,
                    "duration": 0.0862068749999878
                },
                {
                    "name": "B1",
                    "midi": 35,
                    "time": 214.91373937500006,
                    "velocity": 0.4881889763779528,
                    "duration": 0.0862068749999878
                },
                {
                    "name": "D2",
                    "midi": 38,
                    "time": 214.99994625000005,
                    "velocity": 0.5196850393700787,
                    "duration": 0.0862068749999878
                },
                {
                    "name": "G2",
                    "midi": 43,
                    "time": 215.08615312500004,
                    "velocity": 0.5511811023622047,
                    "duration": 0.0862068749999878
                },
                {
                    "name": "B4",
                    "midi": 71,
                    "time": 215.17236000000003,
                    "velocity": 0.6299212598425197,
                    "duration": 4.137930000000011
                },
                {
                    "name": "D5",
                    "midi": 74,
                    "time": 215.17236000000003,
                    "velocity": 0.6299212598425197,
                    "duration": 4.137930000000011
                },
                {
                    "name": "F3",
                    "midi": 53,
                    "time": 219.31029000000004,
                    "velocity": 0.5826771653543307,
                    "duration": 0.34482750000000806
                },
                {
                    "name": "D#3",
                    "midi": 51,
                    "time": 220.68960000000004,
                    "velocity": 0.5905511811023622,
                    "duration": 0.34482750000000806
                },
                {
                    "name": "G#2",
                    "midi": 44,
                    "time": 222.06891000000005,
                    "velocity": 0.5984251968503937,
                    "duration": 0.34482750000000806
                },
                {
                    "name": "G2",
                    "midi": 43,
                    "time": 223.44822000000005,
                    "velocity": 0.6062992125984252,
                    "duration": 0.34482750000000806
                },
                {
                    "name": "F2",
                    "midi": 41,
                    "time": 224.82753000000005,
                    "velocity": 0.6062992125984252,
                    "duration": 0.34482750000000806
                },
                {
                    "name": "D#2",
                    "midi": 39,
                    "time": 226.20684000000006,
                    "velocity": 0.6220472440944882,
                    "duration": 0.34482750000000806
                },
                {
                    "name": "D2",
                    "midi": 38,
                    "time": 227.58615000000006,
                    "velocity": 0.6299212598425197,
                    "duration": 0.34482750000000806
                },
                {
                    "name": "C2",
                    "midi": 36,
                    "time": 228.96546000000006,
                    "velocity": 0.6377952755905512,
                    "duration": 1.3793100000000038
                },
                {
                    "name": "A#1",
                    "midi": 34,
                    "time": 230.34477000000007,
                    "velocity": 0.6377952755905512,
                    "duration": 0.4597699999999918
                },
                {
                    "name": "A1",
                    "midi": 33,
                    "time": 231.72408000000007,
                    "velocity": 0.6220472440944882,
                    "duration": 0.6896549999999877
                },
                {
                    "name": "E2",
                    "midi": 40,
                    "time": 231.72408000000007,
                    "velocity": 0.6220472440944882,
                    "duration": 0.6896549999999877
                },
                {
                    "name": "A2",
                    "midi": 45,
                    "time": 231.72408000000007,
                    "velocity": 0.6220472440944882,
                    "duration": 0.6896549999999877
                },
                {
                    "name": "F1",
                    "midi": 29,
                    "time": 244.13787000000005,
                    "velocity": 0.4330708661417323,
                    "duration": 1.3793100000000038
                },
                {
                    "name": "F2",
                    "midi": 41,
                    "time": 244.13787000000005,
                    "velocity": 0.5196850393700787,
                    "duration": 1.3793100000000038
                },
                {
                    "name": "G1",
                    "midi": 31,
                    "time": 245.51718000000005,
                    "velocity": 0.4409448818897638,
                    "duration": 1.3793100000000038
                },
                {
                    "name": "G2",
                    "midi": 43,
                    "time": 245.51718000000005,
                    "velocity": 0.5275590551181102,
                    "duration": 1.3793100000000038
                },
                {
                    "name": "G#1",
                    "midi": 32,
                    "time": 246.89649000000006,
                    "velocity": 0.44881889763779526,
                    "duration": 0.6896549999999877
                },
                {
                    "name": "G#2",
                    "midi": 44,
                    "time": 246.89649000000006,
                    "velocity": 0.5433070866141733,
                    "duration": 0.6896549999999877
                },
                {
                    "name": "A1",
                    "midi": 33,
                    "time": 247.93097250000005,
                    "velocity": 0.4566929133858268,
                    "duration": 0.0862068749999878
                },
                {
                    "name": "C#2",
                    "midi": 37,
                    "time": 248.01717937500004,
                    "velocity": 0.4881889763779528,
                    "duration": 0.0862068749999878
                },
                {
                    "name": "E2",
                    "midi": 40,
                    "time": 248.10338625000003,
                    "velocity": 0.5196850393700787,
                    "duration": 0.0862068749999878
                },
                {
                    "name": "A2",
                    "midi": 45,
                    "time": 248.18959312500002,
                    "velocity": 0.5511811023622047,
                    "duration": 0.0862068749999878
                },
                {
                    "name": "C#5",
                    "midi": 73,
                    "time": 248.2758,
                    "velocity": 0.6299212598425197,
                    "duration": 4.137930000000011
                },
                {
                    "name": "E5",
                    "midi": 76,
                    "time": 248.2758,
                    "velocity": 0.6299212598425197,
                    "duration": 4.137930000000011
                },
                {
                    "name": "G3",
                    "midi": 55,
                    "time": 252.41373000000002,
                    "velocity": 0.5826771653543307,
                    "duration": 0.34482750000000806
                },
                {
                    "name": "F3",
                    "midi": 53,
                    "time": 253.79304000000002,
                    "velocity": 0.5905511811023622,
                    "duration": 0.34482750000000806
                },
                {
                    "name": "A#2",
                    "midi": 46,
                    "time": 255.17235000000002,
                    "velocity": 0.5984251968503937,
                    "duration": 0.34482750000000806
                },
                {
                    "name": "A2",
                    "midi": 45,
                    "time": 256.55166,
                    "velocity": 0.6062992125984252,
                    "duration": 0.34482750000000806
                },
                {
                    "name": "G2",
                    "midi": 43,
                    "time": 257.93097000000006,
                    "velocity": 0.6141732283464567,
                    "duration": 0.34482750000000806
                },
                {
                    "name": "F2",
                    "midi": 41,
                    "time": 259.3102800000001,
                    "velocity": 0.6299212598425197,
                    "duration": 0.34482750000000806
                },
                {
                    "name": "E2",
                    "midi": 40,
                    "time": 260.6895900000001,
                    "velocity": 0.6377952755905512,
                    "duration": 0.34482750000000806
                },
                {
                    "name": "D2",
                    "midi": 38,
                    "time": 262.06890000000016,
                    "velocity": 0.6456692913385826,
                    "duration": 0.4568964375000064
                },
                {
                    "name": "C#2",
                    "midi": 37,
                    "time": 263.4482100000002,
                    "velocity": 0.6614173228346457,
                    "duration": 0.4597699999999918
                },
                {
                    "name": "C2",
                    "midi": 36,
                    "time": 264.6551062500002,
                    "velocity": 0.6220472440944882,
                    "duration": 0.08620687500001623
                },
                {
                    "name": "C3",
                    "midi": 48,
                    "time": 264.7413131250002,
                    "velocity": 0.6220472440944882,
                    "duration": 0.08620687500001623
                },
                {
                    "name": "C4",
                    "midi": 60,
                    "time": 264.8275200000002,
                    "velocity": 0.7244094488188977,
                    "duration": 2.7586200000000076
                },
                {
                    "name": "B1",
                    "midi": 35,
                    "time": 267.4137262500002,
                    "velocity": 0.6220472440944882,
                    "duration": 0.08620687500001623
                },
                {
                    "name": "B2",
                    "midi": 47,
                    "time": 267.4999331250002,
                    "velocity": 0.6220472440944882,
                    "duration": 0.08620687500001623
                },
                {
                    "name": "B3",
                    "midi": 59,
                    "time": 267.5861400000002,
                    "velocity": 0.7244094488188977,
                    "duration": 1.3793099999999754
                },
                {
                    "name": "C4",
                    "midi": 60,
                    "time": 268.9654500000002,
                    "velocity": 0.5905511811023622,
                    "duration": 1.3793099999999754
                },
                {
                    "name": "C5",
                    "midi": 72,
                    "time": 268.9654500000002,
                    "velocity": 0.5905511811023622,
                    "duration": 1.3793099999999754
                },
                {
                    "name": "B3",
                    "midi": 59,
                    "time": 270.3447600000002,
                    "velocity": 0.6220472440944882,
                    "duration": 1.3793099999999754
                },
                {
                    "name": "B4",
                    "midi": 71,
                    "time": 270.3447600000002,
                    "velocity": 0.6220472440944882,
                    "duration": 1.3793099999999754
                },
                {
                    "name": "A3",
                    "midi": 57,
                    "time": 271.72407000000015,
                    "velocity": 0.6456692913385826,
                    "duration": 1.3793099999999754
                },
                {
                    "name": "A4",
                    "midi": 69,
                    "time": 271.72407000000015,
                    "velocity": 0.6456692913385826,
                    "duration": 1.3793099999999754
                },
                {
                    "name": "E4",
                    "midi": 64,
                    "time": 273.10338000000013,
                    "velocity": 0.6456692913385826,
                    "duration": 1.3793099999999754
                },
                {
                    "name": "D#4",
                    "midi": 63,
                    "time": 274.4826900000001,
                    "velocity": 0.6614173228346457,
                    "duration": 1.3793099999999754
                },
                {
                    "name": "D4",
                    "midi": 62,
                    "time": 275.8620000000001,
                    "velocity": 0.6535433070866141,
                    "duration": 1.3793099999999754
                },
                {
                    "name": "C#4",
                    "midi": 61,
                    "time": 277.24131000000006,
                    "velocity": 0.6456692913385826,
                    "duration": 1.3793099999999754
                },
                {
                    "name": "C4",
                    "midi": 60,
                    "time": 278.62062000000003,
                    "velocity": 0.6377952755905512,
                    "duration": 1.3793099999999754
                },
                {
                    "name": "B3",
                    "midi": 59,
                    "time": 279.99993,
                    "velocity": 0.6377952755905512,
                    "duration": 1.2068962499999998
                },
                {
                    "name": "C#2",
                    "midi": 37,
                    "time": 281.20682625,
                    "velocity": 0.6220472440944882,
                    "duration": 0.08620687500001623
                },
                {
                    "name": "C#3",
                    "midi": 49,
                    "time": 281.293033125,
                    "velocity": 0.6220472440944882,
                    "duration": 0.08620687500001623
                },
                {
                    "name": "C#4",
                    "midi": 61,
                    "time": 281.37924000000004,
                    "velocity": 0.7244094488188977,
                    "duration": 2.7586200000000076
                },
                {
                    "name": "C2",
                    "midi": 36,
                    "time": 283.96544625,
                    "velocity": 0.6220472440944882,
                    "duration": 0.08620687500001623
                },
                {
                    "name": "C3",
                    "midi": 48,
                    "time": 284.05165312500003,
                    "velocity": 0.6220472440944882,
                    "duration": 0.08620687500001623
                },
                {
                    "name": "C4",
                    "midi": 60,
                    "time": 284.13786000000005,
                    "velocity": 0.7244094488188977,
                    "duration": 1.3793099999999754
                },
                {
                    "name": "C#4",
                    "midi": 61,
                    "time": 285.51717,
                    "velocity": 0.5905511811023622,
                    "duration": 1.3793099999999754
                },
                {
                    "name": "C#5",
                    "midi": 73,
                    "time": 285.51717,
                    "velocity": 0.5905511811023622,
                    "duration": 1.3793099999999754
                },
                {
                    "name": "C4",
                    "midi": 60,
                    "time": 286.89648,
                    "velocity": 0.6220472440944882,
                    "duration": 1.3793099999999754
                },
                {
                    "name": "C5",
                    "midi": 72,
                    "time": 286.89648,
                    "velocity": 0.6220472440944882,
                    "duration": 1.3793099999999754
                },
                {
                    "name": "A#3",
                    "midi": 58,
                    "time": 288.27579,
                    "velocity": 0.6456692913385826,
                    "duration": 1.3793099999999754
                },
                {
                    "name": "A#4",
                    "midi": 70,
                    "time": 288.27579,
                    "velocity": 0.6456692913385826,
                    "duration": 1.3793099999999754
                },
                {
                    "name": "F4",
                    "midi": 65,
                    "time": 289.65509999999995,
                    "velocity": 0.6456692913385826,
                    "duration": 1.3793099999999754
                },
                {
                    "name": "E4",
                    "midi": 64,
                    "time": 291.0344099999999,
                    "velocity": 0.6614173228346457,
                    "duration": 1.3793099999999754
                },
                {
                    "name": "D#4",
                    "midi": 63,
                    "time": 292.4137199999999,
                    "velocity": 0.6535433070866141,
                    "duration": 1.3793099999999754
                },
                {
                    "name": "D4",
                    "midi": 62,
                    "time": 293.7930299999999,
                    "velocity": 0.6456692913385826,
                    "duration": 1.3793099999999754
                },
                {
                    "name": "C#4",
                    "midi": 61,
                    "time": 295.17233999999985,
                    "velocity": 0.6377952755905512,
                    "duration": 1.3793099999999754
                },
                {
                    "name": "C4",
                    "midi": 60,
                    "time": 296.5516499999998,
                    "velocity": 0.6377952755905512,
                    "duration": 1.3793100000000322
                },
                {
                    "name": "D#2",
                    "midi": 39,
                    "time": 297.7585462499998,
                    "velocity": 0.6220472440944882,
                    "duration": 0.08620687500001623
                },
                {
                    "name": "D#3",
                    "midi": 51,
                    "time": 297.84475312499984,
                    "velocity": 0.6220472440944882,
                    "duration": 0.08620687500001623
                },
                {
                    "name": "D#4",
                    "midi": 63,
                    "time": 297.93095999999986,
                    "velocity": 0.7244094488188977,
                    "duration": 2.7586200000000076
                },
                {
                    "name": "D2",
                    "midi": 38,
                    "time": 300.51716624999983,
                    "velocity": 0.6220472440944882,
                    "duration": 0.08620687500001623
                },
                {
                    "name": "D3",
                    "midi": 50,
                    "time": 300.60337312499985,
                    "velocity": 0.6220472440944882,
                    "duration": 0.08620687500001623
                },
                {
                    "name": "D4",
                    "midi": 62,
                    "time": 300.68957999999986,
                    "velocity": 0.7244094488188977,
                    "duration": 1.3793099999999754
                },
                {
                    "name": "D#4",
                    "midi": 63,
                    "time": 302.06888999999984,
                    "velocity": 0.5905511811023622,
                    "duration": 1.3793099999999754
                },
                {
                    "name": "D#5",
                    "midi": 75,
                    "time": 302.06888999999984,
                    "velocity": 0.5905511811023622,
                    "duration": 1.3793099999999754
                },
                {
                    "name": "D4",
                    "midi": 62,
                    "time": 303.4481999999998,
                    "velocity": 0.6220472440944882,
                    "duration": 1.3793099999999754
                },
                {
                    "name": "D5",
                    "midi": 74,
                    "time": 303.4481999999998,
                    "velocity": 0.6220472440944882,
                    "duration": 1.3793099999999754
                },
                {
                    "name": "C4",
                    "midi": 60,
                    "time": 304.8275099999998,
                    "velocity": 0.6456692913385826,
                    "duration": 1.3793099999999754
                },
                {
                    "name": "C5",
                    "midi": 72,
                    "time": 304.8275099999998,
                    "velocity": 0.6456692913385826,
                    "duration": 1.3793099999999754
                },
                {
                    "name": "B3",
                    "midi": 59,
                    "time": 306.20681999999977,
                    "velocity": 0.5905511811023622,
                    "duration": 1.3793099999999754
                },
                {
                    "name": "G4",
                    "midi": 67,
                    "time": 306.20681999999977,
                    "velocity": 0.6456692913385826,
                    "duration": 1.3793099999999754
                },
                {
                    "name": "F4",
                    "midi": 65,
                    "time": 307.58612999999974,
                    "velocity": 0.6614173228346457,
                    "duration": 1.3793099999999754
                },
                {
                    "name": "D#4",
                    "midi": 63,
                    "time": 308.9654399999997,
                    "velocity": 0.6535433070866141,
                    "duration": 1.3793099999999754
                },
                {
                    "name": "C4",
                    "midi": 60,
                    "time": 310.3447499999997,
                    "velocity": 0.6456692913385826,
                    "duration": 1.3793099999999754
                },
                {
                    "name": "D#4",
                    "midi": 63,
                    "time": 311.72405999999967,
                    "velocity": 0.6377952755905512,
                    "duration": 1.3793099999999754
                },
                {
                    "name": "C4",
                    "midi": 60,
                    "time": 313.10336999999964,
                    "velocity": 0.6377952755905512,
                    "duration": 1.3793099999999754
                },
                {
                    "name": "A3",
                    "midi": 57,
                    "time": 314.4826799999996,
                    "velocity": 0.5905511811023622,
                    "duration": 1.3793099999999754
                },
                {
                    "name": "F4",
                    "midi": 65,
                    "time": 314.4826799999996,
                    "velocity": 0.6456692913385826,
                    "duration": 1.3793099999999754
                },
                {
                    "name": "D#4",
                    "midi": 63,
                    "time": 315.8619899999996,
                    "velocity": 0.6614173228346457,
                    "duration": 1.3793099999999754
                },
                {
                    "name": "D4",
                    "midi": 62,
                    "time": 317.24129999999957,
                    "velocity": 0.6535433070866141,
                    "duration": 1.3793099999999754
                },
                {
                    "name": "A#3",
                    "midi": 58,
                    "time": 318.62060999999954,
                    "velocity": 0.6456692913385826,
                    "duration": 1.3793099999999754
                },
                {
                    "name": "D4",
                    "midi": 62,
                    "time": 319.9999199999995,
                    "velocity": 0.6377952755905512,
                    "duration": 1.3793099999999754
                },
                {
                    "name": "A#3",
                    "midi": 58,
                    "time": 321.3792299999995,
                    "velocity": 0.6377952755905512,
                    "duration": 1.3793099999999754
                },
                {
                    "name": "G3",
                    "midi": 55,
                    "time": 322.75853999999947,
                    "velocity": 0.5905511811023622,
                    "duration": 1.3793099999999754
                },
                {
                    "name": "D#4",
                    "midi": 63,
                    "time": 322.75853999999947,
                    "velocity": 0.6456692913385826,
                    "duration": 1.3793099999999754
                },
                {
                    "name": "D4",
                    "midi": 62,
                    "time": 324.13784999999945,
                    "velocity": 0.6614173228346457,
                    "duration": 1.3793099999999754
                },
                {
                    "name": "C4",
                    "midi": 60,
                    "time": 325.5171599999994,
                    "velocity": 0.6535433070866141,
                    "duration": 1.3793099999999754
                },
                {
                    "name": "A3",
                    "midi": 57,
                    "time": 326.8964699999994,
                    "velocity": 0.6456692913385826,
                    "duration": 1.3793099999999754
                },
                {
                    "name": "C4",
                    "midi": 60,
                    "time": 328.2757799999994,
                    "velocity": 0.6377952755905512,
                    "duration": 1.3793099999999754
                },
                {
                    "name": "A3",
                    "midi": 57,
                    "time": 329.65508999999935,
                    "velocity": 0.6377952755905512,
                    "duration": 1.3793099999999754
                },
                {
                    "name": "F#3",
                    "midi": 54,
                    "time": 331.0343999999993,
                    "velocity": 0.5905511811023622,
                    "duration": 1.3793099999999754
                },
                {
                    "name": "D4",
                    "midi": 62,
                    "time": 331.0343999999993,
                    "velocity": 0.6456692913385826,
                    "duration": 1.3793099999999754
                },
                {
                    "name": "C4",
                    "midi": 60,
                    "time": 332.4137099999993,
                    "velocity": 0.6614173228346457,
                    "duration": 1.3793099999999754
                },
                {
                    "name": "A#3",
                    "midi": 58,
                    "time": 333.7930199999993,
                    "velocity": 0.6535433070866141,
                    "duration": 1.3793099999999754
                },
                {
                    "name": "D4",
                    "midi": 62,
                    "time": 335.17232999999925,
                    "velocity": 0.6456692913385826,
                    "duration": 1.3793099999999754
                },
                {
                    "name": "D4",
                    "midi": 62,
                    "time": 336.5516399999992,
                    "velocity": 0.6377952755905512,
                    "duration": 1.3793099999999754
                },
                {
                    "name": "C#4",
                    "midi": 61,
                    "time": 337.9309499999992,
                    "velocity": 0.6377952755905512,
                    "duration": 1.3793099999999754
                },
                {
                    "name": "D2",
                    "midi": 38,
                    "time": 339.3102599999992,
                    "velocity": 0.6220472440944882,
                    "duration": 1.3793099999999754
                },
                {
                    "name": "A2",
                    "midi": 45,
                    "time": 339.3102599999992,
                    "velocity": 0.6220472440944882,
                    "duration": 1.3793099999999754
                },
                {
                    "name": "D3",
                    "midi": 50,
                    "time": 339.3102599999992,
                    "velocity": 0.6220472440944882,
                    "duration": 1.3793099999999754
                },
                {
                    "name": "D3",
                    "midi": 50,
                    "time": 340.68956999999915,
                    "velocity": 0.5590551181102362,
                    "duration": 1.2068962499999998
                },
                {
                    "name": "D4",
                    "midi": 62,
                    "time": 340.68956999999915,
                    "velocity": 0.5590551181102362,
                    "duration": 1.2068962499999998
                },
                {
                    "name": "G3",
                    "midi": 55,
                    "time": 341.89646624999915,
                    "velocity": 0.48031496062992124,
                    "duration": 1.3793100000000322
                },
                {
                    "name": "D4",
                    "midi": 62,
                    "time": 341.98267312499917,
                    "velocity": 0.5354330708661418,
                    "duration": 1.293103125000016
                },
                {
                    "name": "A#4",
                    "midi": 70,
                    "time": 342.0688799999992,
                    "velocity": 0.5669291338582677,
                    "duration": 1.2068962499999998
                },
                {
                    "name": "A#3",
                    "midi": 58,
                    "time": 343.2757762499992,
                    "velocity": 0.4881889763779528,
                    "duration": 1.3793100000000322
                },
                {
                    "name": "G4",
                    "midi": 67,
                    "time": 343.3619831249992,
                    "velocity": 0.5275590551181102,
                    "duration": 1.293103125000016
                },
                {
                    "name": "D5",
                    "midi": 74,
                    "time": 343.4481899999992,
                    "velocity": 0.5748031496062992,
                    "duration": 0.45402287500002103
                },
                {
                    "name": "A3",
                    "midi": 57,
                    "time": 344.6550862499992,
                    "velocity": 0.3779527559055118,
                    "duration": 1.3793099999999754
                },
                {
                    "name": "D4",
                    "midi": 62,
                    "time": 344.7125574999992,
                    "velocity": 0.4251968503937008,
                    "duration": 1.3218387499999835
                },
                {
                    "name": "F#4",
                    "midi": 66,
                    "time": 344.7700287499992,
                    "velocity": 0.48031496062992124,
                    "duration": 1.2643674999999917
                },
                {
                    "name": "C5",
                    "midi": 72,
                    "time": 344.8274999999992,
                    "velocity": 0.5196850393700787,
                    "duration": 0.45402287500002103
                },
                {
                    "name": "G3",
                    "midi": 55,
                    "time": 346.0343962499992,
                    "velocity": 0.4330708661417323,
                    "duration": 1.3793100000000322
                },
                {
                    "name": "D4",
                    "midi": 62,
                    "time": 346.1206031249992,
                    "velocity": 0.4881889763779528,
                    "duration": 1.293103125000016
                },
                {
                    "name": "A#4",
                    "midi": 70,
                    "time": 346.2068099999992,
                    "velocity": 0.5354330708661418,
                    "duration": 0.45402287500002103
                },
                {
                    "name": "F#3",
                    "midi": 54,
                    "time": 347.4137062499992,
                    "velocity": 0.4409448818897638,
                    "duration": 1.3793100000000322
                },
                {
                    "name": "D4",
                    "midi": 62,
                    "time": 347.49991312499924,
                    "velocity": 0.47244094488188976,
                    "duration": 1.293103125000016
                },
                {
                    "name": "A4",
                    "midi": 69,
                    "time": 347.58611999999926,
                    "velocity": 0.5196850393700787,
                    "duration": 0.45402287500002103
                },
                {
                    "name": "D#3",
                    "midi": 51,
                    "time": 348.79301624999925,
                    "velocity": 0.4251968503937008,
                    "duration": 1.3793100000000322
                },
                {
                    "name": "D4",
                    "midi": 62,
                    "time": 348.87922312499927,
                    "velocity": 0.4645669291338583,
                    "duration": 1.293103125000016
                },
                {
                    "name": "G4",
                    "midi": 67,
                    "time": 348.9654299999993,
                    "velocity": 0.5118110236220472,
                    "duration": 0.45402287500002103
                },
                {
                    "name": "D3",
                    "midi": 50,
                    "time": 350.1723262499993,
                    "velocity": 0.4251968503937008,
                    "duration": 1.3793100000000322
                },
                {
                    "name": "A3",
                    "midi": 57,
                    "time": 350.2585331249993,
                    "velocity": 0.44881889763779526,
                    "duration": 1.293103125000016
                },
                {
                    "name": "F#4",
                    "midi": 66,
                    "time": 350.3447399999993,
                    "velocity": 0.49606299212598426,
                    "duration": 0.45402287500002103
                },
                {
                    "name": "C3",
                    "midi": 48,
                    "time": 351.5516362499993,
                    "velocity": 0.33070866141732286,
                    "duration": 1.3793099999999754
                },
                {
                    "name": "F#3",
                    "midi": 54,
                    "time": 351.6091074999993,
                    "velocity": 0.36220472440944884,
                    "duration": 1.3218387499999835
                },
                {
                    "name": "A3",
                    "midi": 57,
                    "time": 351.6665787499993,
                    "velocity": 0.4015748031496063,
                    "duration": 1.2643674999999917
                },
                {
                    "name": "D#4",
                    "midi": 63,
                    "time": 351.7240499999993,
                    "velocity": 0.4881889763779528,
                    "duration": 0.45402287500002103
                },
                {
                    "name": "A#2",
                    "midi": 46,
                    "time": 352.9309462499993,
                    "velocity": 0.3779527559055118,
                    "duration": 1.3793100000000322
                },
                {
                    "name": "G3",
                    "midi": 55,
                    "time": 353.0171531249993,
                    "velocity": 0.41732283464566927,
                    "duration": 1.293103125000016
                },
                {
                    "name": "D4",
                    "midi": 62,
                    "time": 353.1033599999993,
                    "velocity": 0.4566929133858268,
                    "duration": 0.45402287500002103
                },
                {
                    "name": "G2",
                    "midi": 43,
                    "time": 354.3102562499993,
                    "velocity": 0.3937007874015748,
                    "duration": 1.3793100000000322
                },
                {
                    "name": "D3",
                    "midi": 50,
                    "time": 354.39646312499934,
                    "velocity": 0.4094488188976378,
                    "duration": 1.293103125000016
                },
                {
                    "name": "A#3",
                    "midi": 58,
                    "time": 354.48266999999936,
                    "velocity": 0.4645669291338583,
                    "duration": 0.45402287500002103
                },
                {
                    "name": "F#2",
                    "midi": 42,
                    "time": 355.68956624999936,
                    "velocity": 0.3700787401574803,
                    "duration": 1.3793100000000322
                },
                {
                    "name": "D3",
                    "midi": 50,
                    "time": 355.7757731249994,
                    "velocity": 0.3937007874015748,
                    "duration": 1.293103125000016
                },
                {
                    "name": "A3",
                    "midi": 57,
                    "time": 355.8619799999994,
                    "velocity": 0.4330708661417323,
                    "duration": 0.45402287500002103
                },
                {
                    "name": "D#2",
                    "midi": 39,
                    "time": 357.0688762499994,
                    "velocity": 0.3464566929133858,
                    "duration": 1.3793100000000322
                },
                {
                    "name": "D3",
                    "midi": 50,
                    "time": 357.1550831249994,
                    "velocity": 0.3779527559055118,
                    "duration": 1.293103125000016
                },
                {
                    "name": "G3",
                    "midi": 55,
                    "time": 357.2412899999994,
                    "velocity": 0.4251968503937008,
                    "duration": 0.45402287500002103
                },
                {
                    "name": "D2",
                    "midi": 38,
                    "time": 358.4481862499994,
                    "velocity": 0.33858267716535434,
                    "duration": 1.3793100000000322
                },
                {
                    "name": "A2",
                    "midi": 45,
                    "time": 358.53439312499944,
                    "velocity": 0.3543307086614173,
                    "duration": 1.293103125000016
                },
                {
                    "name": "F#3",
                    "midi": 54,
                    "time": 358.62059999999946,
                    "velocity": 0.3937007874015748,
                    "duration": 0.45402287500002103
                },
                {
                    "name": "C2",
                    "midi": 36,
                    "time": 359.82749624999946,
                    "velocity": 0.25196850393700787,
                    "duration": 1.3793099999999754
                },
                {
                    "name": "F#2",
                    "midi": 42,
                    "time": 359.88496749999945,
                    "velocity": 0.28346456692913385,
                    "duration": 1.3218387499999835
                },
                {
                    "name": "A2",
                    "midi": 45,
                    "time": 359.94243874999944,
                    "velocity": 0.30708661417322836,
                    "duration": 1.2643674999999917
                },
                {
                    "name": "D#3",
                    "midi": 51,
                    "time": 359.99990999999943,
                    "velocity": 0.3700787401574803,
                    "duration": 0.45402287500002103
                },
                {
                    "name": "A#1",
                    "midi": 34,
                    "time": 361.20680624999943,
                    "velocity": 0.2440944881889764,
                    "duration": 1.3793100000000322
                },
                {
                    "name": "G2",
                    "midi": 43,
                    "time": 361.29301312499945,
                    "velocity": 0.2677165354330709,
                    "duration": 1.293103125000016
                },
                {
                    "name": "D3",
                    "midi": 50,
                    "time": 361.37921999999946,
                    "velocity": 0.3464566929133858,
                    "duration": 0.45402287500002103
                },
                {
                    "name": "A1",
                    "midi": 33,
                    "time": 362.58611624999946,
                    "velocity": 0.2204724409448819,
                    "duration": 1.3793099999999754
                },
                {
                    "name": "D2",
                    "midi": 38,
                    "time": 362.64358749999946,
                    "velocity": 0.2440944881889764,
                    "duration": 1.3218387499999835
                },
                {
                    "name": "F#2",
                    "midi": 42,
                    "time": 362.70105874999945,
                    "velocity": 0.28346456692913385,
                    "duration": 1.2643674999999917
                },
                {
                    "name": "C3",
                    "midi": 48,
                    "time": 362.75852999999944,
                    "velocity": 0.33858267716535434,
                    "duration": 1.2068962499999998
                },
                {
                    "name": "G1",
                    "midi": 31,
                    "time": 363.96542624999944,
                    "velocity": 0.2677165354330709,
                    "duration": 1.5517237500000078
                },
                {
                    "name": "D2",
                    "midi": 38,
                    "time": 364.05163312499946,
                    "velocity": 0.29133858267716534,
                    "duration": 1.4655168749999916
                },
                {
                    "name": "A#2",
                    "midi": 46,
                    "time": 364.13783999999947,
                    "velocity": 0.3464566929133858,
                    "duration": 1.3793099999999754
                },
                {
                    "name": "G3",
                    "midi": 55,
                    "time": 368.18956312499944,
                    "velocity": 0.31496062992125984,
                    "duration": 1.4655168750000485
                },
                {
                    "name": "G4",
                    "midi": 67,
                    "time": 368.27576999999945,
                    "velocity": 0.4251968503937008,
                    "duration": 1.3793100000000322
                },
                {
                    "name": "G3",
                    "midi": 55,
                    "time": 369.56887312499947,
                    "velocity": 0.3228346456692913,
                    "duration": 1.4655168750000485
                },
                {
                    "name": "F#4",
                    "midi": 66,
                    "time": 369.6550799999995,
                    "velocity": 0.4566929133858268,
                    "duration": 1.3793100000000322
                },
                {
                    "name": "G3",
                    "midi": 55,
                    "time": 370.9481831249995,
                    "velocity": 0.33858267716535434,
                    "duration": 1.4655168749999916
                },
                {
                    "name": "D#4",
                    "midi": 63,
                    "time": 371.0343899999995,
                    "velocity": 0.4645669291338583,
                    "duration": 1.3793099999999754
                },
                {
                    "name": "D4",
                    "midi": 62,
                    "time": 372.4136999999995,
                    "velocity": 0.41732283464566927,
                    "duration": 4.137929999999983
                },
                {
                    "name": "G3",
                    "midi": 55,
                    "time": 372.4136999999995,
                    "velocity": 0.3543307086614173,
                    "duration": 1.3793099999999754
                },
                {
                    "name": "F4",
                    "midi": 65,
                    "time": 376.5516299999995,
                    "velocity": 0.4251968503937008,
                    "duration": 1.3793099999999754
                },
                {
                    "name": "D#4",
                    "midi": 63,
                    "time": 377.93093999999945,
                    "velocity": 0.44881889763779526,
                    "duration": 1.3793099999999754
                },
                {
                    "name": "D4",
                    "midi": 62,
                    "time": 379.3102499999994,
                    "velocity": 0.44881889763779526,
                    "duration": 1.3793099999999754
                },
                {
                    "name": "C4",
                    "midi": 60,
                    "time": 380.6895599999994,
                    "velocity": 0.41732283464566927,
                    "duration": 4.137929999999983
                },
                {
                    "name": "C3",
                    "midi": 48,
                    "time": 384.8274899999994,
                    "velocity": 0.3858267716535433,
                    "duration": 1.3793100000000322
                },
                {
                    "name": "D#4",
                    "midi": 63,
                    "time": 384.8274899999994,
                    "velocity": 0.4645669291338583,
                    "duration": 1.3735628750000046
                },
                {
                    "name": "C3",
                    "midi": 48,
                    "time": 386.2067999999994,
                    "velocity": 0.3779527559055118,
                    "duration": 1.3793099999999754
                },
                {
                    "name": "C4",
                    "midi": 60,
                    "time": 386.2067999999994,
                    "velocity": 0.44881889763779526,
                    "duration": 1.3793099999999754
                },
                {
                    "name": "C#3",
                    "midi": 49,
                    "time": 387.5861099999994,
                    "velocity": 0.3779527559055118,
                    "duration": 1.3793099999999754
                },
                {
                    "name": "A#3",
                    "midi": 58,
                    "time": 387.5861099999994,
                    "velocity": 0.44881889763779526,
                    "duration": 1.3793099999999754
                },
                {
                    "name": "D3",
                    "midi": 50,
                    "time": 388.96541999999937,
                    "velocity": 0.3779527559055118,
                    "duration": 2.7586200000000076
                },
                {
                    "name": "A#3",
                    "midi": 58,
                    "time": 388.96541999999937,
                    "velocity": 0.3779527559055118,
                    "duration": 2.7586200000000076
                },
                {
                    "name": "D4",
                    "midi": 62,
                    "time": 388.96541999999937,
                    "velocity": 0.44881889763779526,
                    "duration": 4.137929999999983
                },
                {
                    "name": "D3",
                    "midi": 50,
                    "time": 391.7240399999994,
                    "velocity": 0.3779527559055118,
                    "duration": 1.3793099999999754
                },
                {
                    "name": "A3",
                    "midi": 57,
                    "time": 391.7240399999994,
                    "velocity": 0.3779527559055118,
                    "duration": 1.3793099999999754
                },
                {
                    "name": "C4",
                    "midi": 60,
                    "time": 393.10334999999935,
                    "velocity": 0.3543307086614173,
                    "duration": 1.3793099999999754
                },
                {
                    "name": "D#4",
                    "midi": 63,
                    "time": 393.10334999999935,
                    "velocity": 0.4251968503937008,
                    "duration": 1.3793099999999754
                },
                {
                    "name": "A#3",
                    "midi": 58,
                    "time": 394.4826599999993,
                    "velocity": 0.3779527559055118,
                    "duration": 1.3793099999999754
                },
                {
                    "name": "D4",
                    "midi": 62,
                    "time": 394.4826599999993,
                    "velocity": 0.44881889763779526,
                    "duration": 1.3793099999999754
                },
                {
                    "name": "A3",
                    "midi": 57,
                    "time": 395.8619699999993,
                    "velocity": 0.31496062992125984,
                    "duration": 1.3793099999999754
                },
                {
                    "name": "C4",
                    "midi": 60,
                    "time": 395.8619699999993,
                    "velocity": 0.31496062992125984,
                    "duration": 1.3793099999999754
                },
                {
                    "name": "D4",
                    "midi": 62,
                    "time": 395.8619699999993,
                    "velocity": 0.44881889763779526,
                    "duration": 1.3793099999999754
                },
                {
                    "name": "G#3",
                    "midi": 56,
                    "time": 397.2412799999993,
                    "velocity": 0.3779527559055118,
                    "duration": 2.7586200000000076
                },
                {
                    "name": "B3",
                    "midi": 59,
                    "time": 397.2412799999993,
                    "velocity": 0.3779527559055118,
                    "duration": 2.7586200000000076
                },
                {
                    "name": "D4",
                    "midi": 62,
                    "time": 397.2412799999993,
                    "velocity": 0.44881889763779526,
                    "duration": 2.7586200000000076
                },
                {
                    "name": "G3",
                    "midi": 55,
                    "time": 399.9998999999993,
                    "velocity": 0.3779527559055118,
                    "duration": 1.3793099999999754
                },
                {
                    "name": "G4",
                    "midi": 67,
                    "time": 401.37920999999926,
                    "velocity": 0.4566929133858268,
                    "duration": 1.3793099999999754
                },
                {
                    "name": "F4",
                    "midi": 65,
                    "time": 402.75851999999924,
                    "velocity": 0.4251968503937008,
                    "duration": 1.3793099999999754
                },
                {
                    "name": "G3",
                    "midi": 55,
                    "time": 404.1378299999992,
                    "velocity": 0.3779527559055118,
                    "duration": 1.3793099999999754
                },
                {
                    "name": "C4",
                    "midi": 60,
                    "time": 404.1378299999992,
                    "velocity": 0.4251968503937008,
                    "duration": 1.3793099999999754
                },
                {
                    "name": "F#3",
                    "midi": 54,
                    "time": 405.5171399999992,
                    "velocity": 0.3779527559055118,
                    "duration": 2.7586200000000076
                },
                {
                    "name": "C4",
                    "midi": 60,
                    "time": 405.5171399999992,
                    "velocity": 0.44881889763779526,
                    "duration": 4.137929999999983
                },
                {
                    "name": "F3",
                    "midi": 53,
                    "time": 408.2757599999992,
                    "velocity": 0.3779527559055118,
                    "duration": 1.3793099999999754
                },
                {
                    "name": "F#3",
                    "midi": 54,
                    "time": 409.65506999999917,
                    "velocity": 0.3779527559055118,
                    "duration": 1.3793099999999754
                },
                {
                    "name": "C4",
                    "midi": 60,
                    "time": 409.65506999999917,
                    "velocity": 0.4251968503937008,
                    "duration": 1.3793099999999754
                },
                {
                    "name": "G3",
                    "midi": 55,
                    "time": 411.03437999999915,
                    "velocity": 0.3543307086614173,
                    "duration": 1.3793099999999754
                },
                {
                    "name": "A#3",
                    "midi": 58,
                    "time": 411.03437999999915,
                    "velocity": 0.4015748031496063,
                    "duration": 1.3793099999999754
                },
                {
                    "name": "F3",
                    "midi": 53,
                    "time": 412.4136899999991,
                    "velocity": 0.3543307086614173,
                    "duration": 1.3793099999999754
                },
                {
                    "name": "G#3",
                    "midi": 56,
                    "time": 412.4136899999991,
                    "velocity": 0.4015748031496063,
                    "duration": 1.3793099999999754
                },
                {
                    "name": "E3",
                    "midi": 52,
                    "time": 413.7929999999991,
                    "velocity": 0.3543307086614173,
                    "duration": 1.3793099999999754
                },
                {
                    "name": "G3",
                    "midi": 55,
                    "time": 413.7929999999991,
                    "velocity": 0.4015748031496063,
                    "duration": 1.3793099999999754
                },
                {
                    "name": "D#3",
                    "midi": 51,
                    "time": 415.1723099999991,
                    "velocity": 0.31496062992125984,
                    "duration": 1.3793099999999754
                },
                {
                    "name": "G3",
                    "midi": 55,
                    "time": 415.1723099999991,
                    "velocity": 0.3543307086614173,
                    "duration": 1.3793099999999754
                },
                {
                    "name": "D3",
                    "midi": 50,
                    "time": 416.55161999999905,
                    "velocity": 0.33858267716535434,
                    "duration": 2.7586200000000076
                },
                {
                    "name": "A#3",
                    "midi": 58,
                    "time": 416.55161999999905,
                    "velocity": 0.3779527559055118,
                    "duration": 1.3735628750000046
                },
                {
                    "name": "G3",
                    "midi": 55,
                    "time": 417.9309299999991,
                    "velocity": 0.36220472440944884,
                    "duration": 1.3793099999999754
                },
                {
                    "name": "D3",
                    "midi": 50,
                    "time": 419.31023999999906,
                    "velocity": 0.30708661417322836,
                    "duration": 2.7586200000000076
                },
                {
                    "name": "A3",
                    "midi": 57,
                    "time": 419.31023999999906,
                    "velocity": 0.3543307086614173,
                    "duration": 1.3735628750000046
                },
                {
                    "name": "F#3",
                    "midi": 54,
                    "time": 420.6895499999991,
                    "velocity": 0.33070866141732286,
                    "duration": 1.3793099999999754
                },
                {
                    "name": "G1",
                    "midi": 31,
                    "time": 422.06885999999906,
                    "velocity": 0.28346456692913385,
                    "duration": 1.3793099999999754
                },
                {
                    "name": "G2",
                    "midi": 43,
                    "time": 422.06885999999906,
                    "velocity": 0.3464566929133858,
                    "duration": 1.3793099999999754
                },
                {
                    "name": "D3",
                    "midi": 50,
                    "time": 423.44816999999904,
                    "velocity": 0.2677165354330709,
                    "duration": 1.3793100000000322
                },
                {
                    "name": "G3",
                    "midi": 55,
                    "time": 423.44816999999904,
                    "velocity": 0.2677165354330709,
                    "duration": 1.3793100000000322
                },
                {
                    "name": "A#3",
                    "midi": 58,
                    "time": 423.44816999999904,
                    "velocity": 0.31496062992125984,
                    "duration": 1.3735628750000046
                },
                {
                    "name": "G1",
                    "midi": 31,
                    "time": 424.82747999999907,
                    "velocity": 0.31496062992125984,
                    "duration": 1.3793099999999754
                },
                {
                    "name": "G2",
                    "midi": 43,
                    "time": 424.82747999999907,
                    "velocity": 0.3700787401574803,
                    "duration": 1.3793099999999754
                },
                {
                    "name": "D3",
                    "midi": 50,
                    "time": 426.20678999999905,
                    "velocity": 0.2992125984251969,
                    "duration": 1.3793099999999754
                },
                {
                    "name": "G3",
                    "midi": 55,
                    "time": 426.20678999999905,
                    "velocity": 0.2992125984251969,
                    "duration": 1.3793099999999754
                },
                {
                    "name": "A#3",
                    "midi": 58,
                    "time": 426.20678999999905,
                    "velocity": 0.3543307086614173,
                    "duration": 1.3793099999999754
                },
                {
                    "name": "G1",
                    "midi": 31,
                    "time": 427.586099999999,
                    "velocity": 0.3464566929133858,
                    "duration": 1.3793099999999754
                },
                {
                    "name": "G2",
                    "midi": 43,
                    "time": 427.586099999999,
                    "velocity": 0.41732283464566927,
                    "duration": 1.3793099999999754
                },
                {
                    "name": "G3",
                    "midi": 55,
                    "time": 428.965409999999,
                    "velocity": 0.33070866141732286,
                    "duration": 1.3793099999999754
                },
                {
                    "name": "F3",
                    "midi": 53,
                    "time": 428.965409999999,
                    "velocity": 0.33070866141732286,
                    "duration": 1.3793099999999754
                },
                {
                    "name": "B3",
                    "midi": 59,
                    "time": 428.965409999999,
                    "velocity": 0.33070866141732286,
                    "duration": 1.3793099999999754
                },
                {
                    "name": "D4",
                    "midi": 62,
                    "time": 428.965409999999,
                    "velocity": 0.3937007874015748,
                    "duration": 1.3793099999999754
                },
                {
                    "name": "G1",
                    "midi": 31,
                    "time": 430.344719999999,
                    "velocity": 0.3937007874015748,
                    "duration": 1.3793099999999754
                },
                {
                    "name": "G2",
                    "midi": 43,
                    "time": 430.344719999999,
                    "velocity": 0.47244094488188976,
                    "duration": 1.3793099999999754
                },
                {
                    "name": "D#3",
                    "midi": 51,
                    "time": 431.72402999999895,
                    "velocity": 0.3543307086614173,
                    "duration": 1.3793099999999754
                },
                {
                    "name": "G3",
                    "midi": 55,
                    "time": 431.72402999999895,
                    "velocity": 0.3543307086614173,
                    "duration": 1.3793099999999754
                },
                {
                    "name": "C4",
                    "midi": 60,
                    "time": 431.72402999999895,
                    "velocity": 0.41732283464566927,
                    "duration": 1.3793099999999754
                },
                {
                    "name": "D2",
                    "midi": 38,
                    "time": 433.1033399999989,
                    "velocity": 0.4330708661417323,
                    "duration": 1.3793099999999754
                },
                {
                    "name": "D3",
                    "midi": 50,
                    "time": 434.4826499999989,
                    "velocity": 0.30708661417322836,
                    "duration": 1.3793099999999754
                },
                {
                    "name": "G3",
                    "midi": 55,
                    "time": 434.4826499999989,
                    "velocity": 0.36220472440944884,
                    "duration": 1.3793099999999754
                },
                {
                    "name": "D3",
                    "midi": 50,
                    "time": 435.8619599999989,
                    "velocity": 0.28346456692913385,
                    "duration": 1.3793100000000322
                },
                {
                    "name": "A3",
                    "midi": 57,
                    "time": 435.8619599999989,
                    "velocity": 0.3700787401574803,
                    "duration": 1.3735628750000046
                },
                {
                    "name": "D3",
                    "midi": 50,
                    "time": 437.2412699999989,
                    "velocity": 0.2677165354330709,
                    "duration": 1.3793099999999754
                },
                {
                    "name": "F#3",
                    "midi": 54,
                    "time": 437.2412699999989,
                    "velocity": 0.3228346456692913,
                    "duration": 1.3793099999999754
                },
                {
                    "name": "G1",
                    "midi": 31,
                    "time": 438.6205799999989,
                    "velocity": 0.28346456692913385,
                    "duration": 1.3793099999999754
                },
                {
                    "name": "G2",
                    "midi": 43,
                    "time": 438.6205799999989,
                    "velocity": 0.3464566929133858,
                    "duration": 1.3793099999999754
                },
                {
                    "name": "D3",
                    "midi": 50,
                    "time": 439.99988999999886,
                    "velocity": 0.2677165354330709,
                    "duration": 1.3793100000000322
                },
                {
                    "name": "G3",
                    "midi": 55,
                    "time": 439.99988999999886,
                    "velocity": 0.2677165354330709,
                    "duration": 1.3793100000000322
                },
                {
                    "name": "A#3",
                    "midi": 58,
                    "time": 439.99988999999886,
                    "velocity": 0.31496062992125984,
                    "duration": 1.3735628750000046
                },
                {
                    "name": "G1",
                    "midi": 31,
                    "time": 441.3791999999989,
                    "velocity": 0.31496062992125984,
                    "duration": 1.3793099999999754
                },
                {
                    "name": "G2",
                    "midi": 43,
                    "time": 441.3791999999989,
                    "velocity": 0.3700787401574803,
                    "duration": 1.3793099999999754
                },
                {
                    "name": "D3",
                    "midi": 50,
                    "time": 442.75850999999886,
                    "velocity": 0.2992125984251969,
                    "duration": 1.3793099999999754
                },
                {
                    "name": "G3",
                    "midi": 55,
                    "time": 442.75850999999886,
                    "velocity": 0.2992125984251969,
                    "duration": 1.3793099999999754
                },
                {
                    "name": "A#3",
                    "midi": 58,
                    "time": 442.75850999999886,
                    "velocity": 0.3543307086614173,
                    "duration": 1.3793099999999754
                },
                {
                    "name": "G1",
                    "midi": 31,
                    "time": 444.13781999999884,
                    "velocity": 0.3464566929133858,
                    "duration": 1.3793099999999754
                },
                {
                    "name": "G2",
                    "midi": 43,
                    "time": 444.13781999999884,
                    "velocity": 0.41732283464566927,
                    "duration": 1.3793099999999754
                },
                {
                    "name": "G3",
                    "midi": 55,
                    "time": 445.5171299999988,
                    "velocity": 0.33070866141732286,
                    "duration": 1.3793099999999754
                },
                {
                    "name": "F3",
                    "midi": 53,
                    "time": 445.5171299999988,
                    "velocity": 0.33070866141732286,
                    "duration": 1.3793099999999754
                },
                {
                    "name": "B3",
                    "midi": 59,
                    "time": 445.5171299999988,
                    "velocity": 0.33070866141732286,
                    "duration": 1.3793099999999754
                },
                {
                    "name": "D4",
                    "midi": 62,
                    "time": 445.5171299999988,
                    "velocity": 0.3937007874015748,
                    "duration": 1.3793099999999754
                },
                {
                    "name": "G1",
                    "midi": 31,
                    "time": 446.8964399999988,
                    "velocity": 0.3937007874015748,
                    "duration": 1.3793099999999754
                },
                {
                    "name": "G2",
                    "midi": 43,
                    "time": 446.8964399999988,
                    "velocity": 0.47244094488188976,
                    "duration": 1.3793099999999754
                },
                {
                    "name": "D#3",
                    "midi": 51,
                    "time": 448.27574999999877,
                    "velocity": 0.3543307086614173,
                    "duration": 1.3793099999999754
                },
                {
                    "name": "G3",
                    "midi": 55,
                    "time": 448.27574999999877,
                    "velocity": 0.3543307086614173,
                    "duration": 1.3793099999999754
                },
                {
                    "name": "C4",
                    "midi": 60,
                    "time": 448.27574999999877,
                    "velocity": 0.41732283464566927,
                    "duration": 1.3793099999999754
                },
                {
                    "name": "D2",
                    "midi": 38,
                    "time": 449.65505999999874,
                    "velocity": 0.4330708661417323,
                    "duration": 1.3793099999999754
                },
                {
                    "name": "D3",
                    "midi": 50,
                    "time": 451.0343699999987,
                    "velocity": 0.30708661417322836,
                    "duration": 1.3793099999999754
                },
                {
                    "name": "G3",
                    "midi": 55,
                    "time": 451.0343699999987,
                    "velocity": 0.36220472440944884,
                    "duration": 1.3793099999999754
                },
                {
                    "name": "D3",
                    "midi": 50,
                    "time": 452.4136799999987,
                    "velocity": 0.28346456692913385,
                    "duration": 1.3793100000000322
                },
                {
                    "name": "A3",
                    "midi": 57,
                    "time": 452.4136799999987,
                    "velocity": 0.3700787401574803,
                    "duration": 1.3735628750000046
                },
                {
                    "name": "D3",
                    "midi": 50,
                    "time": 453.7929899999987,
                    "velocity": 0.2677165354330709,
                    "duration": 1.3793099999999754
                },
                {
                    "name": "F#3",
                    "midi": 54,
                    "time": 453.7929899999987,
                    "velocity": 0.3228346456692913,
                    "duration": 1.3793099999999754
                },
                {
                    "name": "D4",
                    "midi": 62,
                    "time": 455.1722999999987,
                    "velocity": 0.4015748031496063,
                    "duration": 1.3793099999999754
                },
                {
                    "name": "G4",
                    "midi": 67,
                    "time": 455.1722999999987,
                    "velocity": 0.4015748031496063,
                    "duration": 1.3793099999999754
                },
                {
                    "name": "D4",
                    "midi": 62,
                    "time": 456.5516099999987,
                    "velocity": 0.4409448818897638,
                    "duration": 1.3793099999999754
                },
                {
                    "name": "F4",
                    "midi": 65,
                    "time": 456.5516099999987,
                    "velocity": 0.4409448818897638,
                    "duration": 1.3793099999999754
                },
                {
                    "name": "E4",
                    "midi": 64,
                    "time": 457.93091999999865,
                    "velocity": 0.4881889763779528,
                    "duration": 1.3793099999999754
                },
                {
                    "name": "D#4",
                    "midi": 63,
                    "time": 459.3102299999986,
                    "velocity": 0.4566929133858268,
                    "duration": 1.3793099999999754
                },
                {
                    "name": "F#4",
                    "midi": 66,
                    "time": 460.6895399999986,
                    "velocity": 0.4566929133858268,
                    "duration": 2.7586200000000076
                },
                {
                    "name": "D4",
                    "midi": 62,
                    "time": 463.4481599999986,
                    "velocity": 0.4015748031496063,
                    "duration": 1.3793099999999754
                },
                {
                    "name": "G4",
                    "midi": 67,
                    "time": 463.4481599999986,
                    "velocity": 0.4015748031496063,
                    "duration": 1.3793099999999754
                },
                {
                    "name": "D4",
                    "midi": 62,
                    "time": 464.8274699999986,
                    "velocity": 0.4409448818897638,
                    "duration": 1.3793099999999754
                },
                {
                    "name": "F4",
                    "midi": 65,
                    "time": 464.8274699999986,
                    "velocity": 0.4409448818897638,
                    "duration": 1.3793099999999754
                },
                {
                    "name": "E4",
                    "midi": 64,
                    "time": 466.20677999999856,
                    "velocity": 0.4881889763779528,
                    "duration": 1.3793099999999754
                },
                {
                    "name": "D#4",
                    "midi": 63,
                    "time": 467.58608999999853,
                    "velocity": 0.4566929133858268,
                    "duration": 1.3793099999999754
                },
                {
                    "name": "G3",
                    "midi": 55,
                    "time": 471.7240199999985,
                    "velocity": 0.4015748031496063,
                    "duration": 1.3793099999999754
                },
                {
                    "name": "F3",
                    "midi": 53,
                    "time": 473.1033299999985,
                    "velocity": 0.4409448818897638,
                    "duration": 1.3793099999999754
                },
                {
                    "name": "G3",
                    "midi": 55,
                    "time": 474.48263999999847,
                    "velocity": 0.4881889763779528,
                    "duration": 2.7586200000000076
                },
                {
                    "name": "G3",
                    "midi": 55,
                    "time": 477.2412599999985,
                    "velocity": 0.49606299212598426,
                    "duration": 2.7586200000000076
                },
                {
                    "name": "G2",
                    "midi": 43,
                    "time": 479.8849374999985,
                    "velocity": 0.3464566929133858,
                    "duration": 0.8045974999999999
                },
                {
                    "name": "D3",
                    "midi": 50,
                    "time": 479.9424087499985,
                    "velocity": 0.3543307086614173,
                    "duration": 0.747126250000008
                },
                {
                    "name": "G3",
                    "midi": 55,
                    "time": 479.9998799999985,
                    "velocity": 0.3858267716535433,
                    "duration": 0.6896550000000161
                },
                {
                    "name": "G2",
                    "midi": 43,
                    "time": 481.3791899999985,
                    "velocity": 0.33070866141732286,
                    "duration": 1.3793099999999754
                },
                {
                    "name": "B2",
                    "midi": 47,
                    "time": 481.3791899999985,
                    "velocity": 0.33070866141732286,
                    "duration": 1.3793099999999754
                },
                {
                    "name": "G3",
                    "midi": 55,
                    "time": 481.3791899999985,
                    "velocity": 0.3937007874015748,
                    "duration": 1.3793099999999754
                },
                {
                    "name": "F#2",
                    "midi": 42,
                    "time": 482.7584999999985,
                    "velocity": 0.33858267716535434,
                    "duration": 1.3793099999999754
                },
                {
                    "name": "B2",
                    "midi": 47,
                    "time": 482.7584999999985,
                    "velocity": 0.33858267716535434,
                    "duration": 1.3793099999999754
                },
                {
                    "name": "F#3",
                    "midi": 54,
                    "time": 482.7584999999985,
                    "velocity": 0.4015748031496063,
                    "duration": 1.3793099999999754
                },
                {
                    "name": "E2",
                    "midi": 40,
                    "time": 484.13780999999847,
                    "velocity": 0.3464566929133858,
                    "duration": 1.3793099999999754
                },
                {
                    "name": "B2",
                    "midi": 47,
                    "time": 484.13780999999847,
                    "velocity": 0.3464566929133858,
                    "duration": 1.3793099999999754
                },
                {
                    "name": "E3",
                    "midi": 52,
                    "time": 484.13780999999847,
                    "velocity": 0.4094488188976378,
                    "duration": 1.3793099999999754
                },
                {
                    "name": "D2",
                    "midi": 38,
                    "time": 485.51711999999844,
                    "velocity": 0.3543307086614173,
                    "duration": 1.3793099999999754
                },
                {
                    "name": "B2",
                    "midi": 47,
                    "time": 485.51711999999844,
                    "velocity": 0.3543307086614173,
                    "duration": 1.3793099999999754
                },
                {
                    "name": "D3",
                    "midi": 50,
                    "time": 485.51711999999844,
                    "velocity": 0.41732283464566927,
                    "duration": 1.3793099999999754
                },
                {
                    "name": "B1",
                    "midi": 35,
                    "time": 486.8964299999984,
                    "velocity": 0.3543307086614173,
                    "duration": 1.3793099999999754
                },
                {
                    "name": "B2",
                    "midi": 47,
                    "time": 486.8964299999984,
                    "velocity": 0.4251968503937008,
                    "duration": 1.3793099999999754
                },
                {
                    "name": "G1",
                    "midi": 31,
                    "time": 488.2757399999984,
                    "velocity": 0.3543307086614173,
                    "duration": 1.3793099999999754
                },
                {
                    "name": "B1",
                    "midi": 35,
                    "time": 488.2757399999984,
                    "velocity": 0.3543307086614173,
                    "duration": 1.3793099999999754
                },
                {
                    "name": "G2",
                    "midi": 43,
                    "time": 488.2757399999984,
                    "velocity": 0.41732283464566927,
                    "duration": 1.3793099999999754
                },
                {
                    "name": "G1",
                    "midi": 31,
                    "time": 489.65504999999837,
                    "velocity": 0.3543307086614173,
                    "duration": 1.3793099999999754
                },
                {
                    "name": "B1",
                    "midi": 35,
                    "time": 489.65504999999837,
                    "velocity": 0.3543307086614173,
                    "duration": 1.3793099999999754
                },
                {
                    "name": "F#2",
                    "midi": 42,
                    "time": 489.65504999999837,
                    "velocity": 0.4251968503937008,
                    "duration": 1.3793099999999754
                },
                {
                    "name": "G1",
                    "midi": 31,
                    "time": 491.03435999999834,
                    "velocity": 0.3700787401574803,
                    "duration": 1.3793099999999754
                },
                {
                    "name": "B1",
                    "midi": 35,
                    "time": 491.03435999999834,
                    "velocity": 0.3700787401574803,
                    "duration": 1.3793099999999754
                },
                {
                    "name": "E2",
                    "midi": 40,
                    "time": 491.03435999999834,
                    "velocity": 0.4409448818897638,
                    "duration": 1.3793099999999754
                },
                {
                    "name": "G1",
                    "midi": 31,
                    "time": 492.4136699999983,
                    "velocity": 0.3858267716535433,
                    "duration": 1.3793099999999754
                },
                {
                    "name": "B1",
                    "midi": 35,
                    "time": 492.4136699999983,
                    "velocity": 0.3858267716535433,
                    "duration": 1.3793099999999754
                },
                {
                    "name": "D#2",
                    "midi": 39,
                    "time": 492.4136699999983,
                    "velocity": 0.4566929133858268,
                    "duration": 1.3793099999999754
                },
                {
                    "name": "G1",
                    "midi": 31,
                    "time": 493.7929799999983,
                    "velocity": 0.4015748031496063,
                    "duration": 1.3793099999999754
                },
                {
                    "name": "B1",
                    "midi": 35,
                    "time": 493.7929799999983,
                    "velocity": 0.4015748031496063,
                    "duration": 1.3793099999999754
                },
                {
                    "name": "D2",
                    "midi": 38,
                    "time": 493.7929799999983,
                    "velocity": 0.48031496062992124,
                    "duration": 1.3793099999999754
                },
                {
                    "name": "G1",
                    "midi": 31,
                    "time": 495.17228999999827,
                    "velocity": 0.41732283464566927,
                    "duration": 1.3793099999999754
                },
                {
                    "name": "B1",
                    "midi": 35,
                    "time": 495.17228999999827,
                    "velocity": 0.49606299212598426,
                    "duration": 1.3793099999999754
                },
                {
                    "name": "G1",
                    "midi": 31,
                    "time": 496.55159999999825,
                    "velocity": 0.6299212598425197,
                    "duration": 1.3793099999999754
                },
                {
                    "name": "B1",
                    "midi": 35,
                    "time": 497.9309099999982,
                    "velocity": 0.4330708661417323,
                    "duration": 0.1724137499999756
                },
                {
                    "name": "D2",
                    "midi": 38,
                    "time": 498.1033237499982,
                    "velocity": 0.4566929133858268,
                    "duration": 0.1724137499999756
                },
                {
                    "name": "G2",
                    "midi": 43,
                    "time": 498.2757374999982,
                    "velocity": 0.48031496062992124,
                    "duration": 0.1724137499999756
                },
                {
                    "name": "B2",
                    "midi": 47,
                    "time": 498.44815124999815,
                    "velocity": 0.49606299212598426,
                    "duration": 0.1724137499999756
                },
                {
                    "name": "D3",
                    "midi": 50,
                    "time": 498.6205649999981,
                    "velocity": 0.5196850393700787,
                    "duration": 0.1724137499999756
                },
                {
                    "name": "G3",
                    "midi": 55,
                    "time": 498.7929787499981,
                    "velocity": 0.5354330708661418,
                    "duration": 0.1724137499999756
                },
                {
                    "name": "B3",
                    "midi": 59,
                    "time": 498.9653924999981,
                    "velocity": 0.5354330708661418,
                    "duration": 0.1724137499999756
                },
                {
                    "name": "D4",
                    "midi": 62,
                    "time": 499.13780624999805,
                    "velocity": 0.5590551181102362,
                    "duration": 0.1724137499999756
                },
                {
                    "name": "G4",
                    "midi": 67,
                    "time": 499.310219999998,
                    "velocity": 0.6062992125984252,
                    "duration": 1.5517237500000078
                },
                {
                    "name": "F#4",
                    "midi": 66,
                    "time": 500.86194374999803,
                    "velocity": 0.47244094488188976,
                    "duration": 0.1724137499999756
                },
                {
                    "name": "E4",
                    "midi": 64,
                    "time": 501.034357499998,
                    "velocity": 0.48031496062992124,
                    "duration": 0.1724137499999756
                },
                {
                    "name": "D4",
                    "midi": 62,
                    "time": 501.206771249998,
                    "velocity": 0.4881889763779528,
                    "duration": 0.1724137499999756
                },
                {
                    "name": "C4",
                    "midi": 60,
                    "time": 501.37918499999796,
                    "velocity": 0.4881889763779528,
                    "duration": 0.1724137499999756
                },
                {
                    "name": "B3",
                    "midi": 59,
                    "time": 501.55159874999794,
                    "velocity": 0.49606299212598426,
                    "duration": 0.1724137499999756
                },
                {
                    "name": "A3",
                    "midi": 57,
                    "time": 501.7240124999979,
                    "velocity": 0.49606299212598426,
                    "duration": 0.1724137499999756
                },
                {
                    "name": "G3",
                    "midi": 55,
                    "time": 501.8964262499979,
                    "velocity": 0.49606299212598426,
                    "duration": 0.1724137499999756
                },
                {
                    "name": "F#3",
                    "midi": 54,
                    "time": 502.06883999999786,
                    "velocity": 0.5039370078740157,
                    "duration": 0.1724137499999756
                },
                {
                    "name": "E3",
                    "midi": 52,
                    "time": 502.24125374999784,
                    "velocity": 0.49606299212598426,
                    "duration": 0.1724137499999756
                },
                {
                    "name": "D3",
                    "midi": 50,
                    "time": 502.4136674999978,
                    "velocity": 0.49606299212598426,
                    "duration": 0.1724137499999756
                },
                {
                    "name": "C3",
                    "midi": 48,
                    "time": 502.5860812499978,
                    "velocity": 0.5039370078740157,
                    "duration": 0.1724137499999756
                },
                {
                    "name": "B2",
                    "midi": 47,
                    "time": 502.75849499999777,
                    "velocity": 0.5039370078740157,
                    "duration": 0.1724137499999756
                },
                {
                    "name": "A2",
                    "midi": 45,
                    "time": 502.93090874999774,
                    "velocity": 0.5118110236220472,
                    "duration": 0.1724137499999756
                },
                {
                    "name": "G2",
                    "midi": 43,
                    "time": 503.1033224999977,
                    "velocity": 0.5196850393700787,
                    "duration": 0.1724137499999756
                },
                {
                    "name": "F#2",
                    "midi": 42,
                    "time": 503.2757362499977,
                    "velocity": 0.5275590551181102,
                    "duration": 0.1724137499999756
                },
                {
                    "name": "E2",
                    "midi": 40,
                    "time": 503.44814999999767,
                    "velocity": 0.5354330708661418,
                    "duration": 0.1724137499999756
                },
                {
                    "name": "D2",
                    "midi": 38,
                    "time": 503.62056374999764,
                    "velocity": 0.5433070866141733,
                    "duration": 0.1724137499999756
                },
                {
                    "name": "C2",
                    "midi": 36,
                    "time": 503.7929774999976,
                    "velocity": 0.5511811023622047,
                    "duration": 0.1724137499999756
                },
                {
                    "name": "B1",
                    "midi": 35,
                    "time": 503.9653912499976,
                    "velocity": 0.5511811023622047,
                    "duration": 0.1724137499999756
                },
                {
                    "name": "A1",
                    "midi": 33,
                    "time": 504.13780499999757,
                    "velocity": 0.5590551181102362,
                    "duration": 0.1724137499999756
                },
                {
                    "name": "G1",
                    "midi": 31,
                    "time": 504.31021874999755,
                    "velocity": 0.5826771653543307,
                    "duration": 2.1264362499999834
                },
                {
                    "name": "B1",
                    "midi": 35,
                    "time": 506.43665499999753,
                    "velocity": 0.4251968503937008,
                    "duration": 0.22988500000002432
                },
                {
                    "name": "D2",
                    "midi": 38,
                    "time": 506.66653999999755,
                    "velocity": 0.4330708661417323,
                    "duration": 0.22988500000002432
                },
                {
                    "name": "G2",
                    "midi": 43,
                    "time": 506.8964249999976,
                    "velocity": 0.4409448818897638,
                    "duration": 0.22988500000002432
                },
                {
                    "name": "B2",
                    "midi": 47,
                    "time": 507.1263099999976,
                    "velocity": 0.4566929133858268,
                    "duration": 0.22988500000002432
                },
                {
                    "name": "D3",
                    "midi": 50,
                    "time": 507.3561949999976,
                    "velocity": 0.4645669291338583,
                    "duration": 0.22988500000002432
                },
                {
                    "name": "G3",
                    "midi": 55,
                    "time": 507.58607999999765,
                    "velocity": 0.47244094488188976,
                    "duration": 0.22988500000002432
                },
                {
                    "name": "B3",
                    "midi": 59,
                    "time": 507.8159649999977,
                    "velocity": 0.4881889763779528,
                    "duration": 0.22988500000002432
                },
                {
                    "name": "D4",
                    "midi": 62,
                    "time": 508.0458499999977,
                    "velocity": 0.49606299212598426,
                    "duration": 0.22988500000002432
                },
                {
                    "name": "G4",
                    "midi": 67,
                    "time": 508.2757349999977,
                    "velocity": 0.5039370078740157,
                    "duration": 0.22988500000002432
                },
                {
                    "name": "B4",
                    "midi": 71,
                    "time": 508.50561999999775,
                    "velocity": 0.5118110236220472,
                    "duration": 0.22988500000002432
                },
                {
                    "name": "D5",
                    "midi": 74,
                    "time": 508.7355049999978,
                    "velocity": 0.5275590551181102,
                    "duration": 0.22988500000002432
                },
                {
                    "name": "G5",
                    "midi": 79,
                    "time": 508.9653899999978,
                    "velocity": 0.5905511811023622,
                    "duration": 1.5517237500000078
                },
                {
                    "name": "F#5",
                    "midi": 78,
                    "time": 510.5171137499978,
                    "velocity": 0.3937007874015748,
                    "duration": 0.1724137499999756
                },
                {
                    "name": "E5",
                    "midi": 76,
                    "time": 510.6895274999978,
                    "velocity": 0.4015748031496063,
                    "duration": 0.1724137499999756
                },
                {
                    "name": "D5",
                    "midi": 74,
                    "time": 510.86194124999776,
                    "velocity": 0.4015748031496063,
                    "duration": 0.1724137499999756
                },
                {
                    "name": "C5",
                    "midi": 72,
                    "time": 511.03435499999773,
                    "velocity": 0.4094488188976378,
                    "duration": 0.1724137499999756
                },
                {
                    "name": "B4",
                    "midi": 71,
                    "time": 511.2067687499977,
                    "velocity": 0.4094488188976378,
                    "duration": 0.1724137499999756
                },
                {
                    "name": "A4",
                    "midi": 69,
                    "time": 511.3791824999977,
                    "velocity": 0.41732283464566927,
                    "duration": 0.1724137499999756
                },
                {
                    "name": "G4",
                    "midi": 67,
                    "time": 511.55159624999766,
                    "velocity": 0.4251968503937008,
                    "duration": 0.1724137499999756
                },
                {
                    "name": "F#4",
                    "midi": 66,
                    "time": 511.72400999999763,
                    "velocity": 0.4251968503937008,
                    "duration": 0.1724137499999756
                },
                {
                    "name": "E4",
                    "midi": 64,
                    "time": 511.8964237499976,
                    "velocity": 0.4251968503937008,
                    "duration": 0.1724137499999756
                },
                {
                    "name": "D4",
                    "midi": 62,
                    "time": 512.0688374999976,
                    "velocity": 0.4251968503937008,
                    "duration": 0.17241375000003245
                },
                {
                    "name": "C4",
                    "midi": 60,
                    "time": 512.2412512499976,
                    "velocity": 0.4330708661417323,
                    "duration": 0.17241375000003245
                },
                {
                    "name": "B3",
                    "midi": 59,
                    "time": 512.4136649999976,
                    "velocity": 0.4409448818897638,
                    "duration": 0.17241375000003245
                },
                {
                    "name": "A3",
                    "midi": 57,
                    "time": 512.5860787499977,
                    "velocity": 0.4409448818897638,
                    "duration": 0.17241375000003245
                },
                {
                    "name": "G3",
                    "midi": 55,
                    "time": 512.7584924999977,
                    "velocity": 0.44881889763779526,
                    "duration": 0.17241375000003245
                },
                {
                    "name": "F#3",
                    "midi": 54,
                    "time": 512.9309062499977,
                    "velocity": 0.44881889763779526,
                    "duration": 0.17241375000003245
                },
                {
                    "name": "E3",
                    "midi": 52,
                    "time": 513.1033199999978,
                    "velocity": 0.4566929133858268,
                    "duration": 0.17241375000003245
                },
                {
                    "name": "D3",
                    "midi": 50,
                    "time": 513.2757337499978,
                    "velocity": 0.4566929133858268,
                    "duration": 0.17241375000003245
                },
                {
                    "name": "C3",
                    "midi": 48,
                    "time": 513.4481474999978,
                    "velocity": 0.4645669291338583,
                    "duration": 0.17241375000003245
                },
                {
                    "name": "B2",
                    "midi": 47,
                    "time": 513.6205612499979,
                    "velocity": 0.47244094488188976,
                    "duration": 0.17241375000003245
                },
                {
                    "name": "A2",
                    "midi": 45,
                    "time": 513.7929749999979,
                    "velocity": 0.47244094488188976,
                    "duration": 0.17241375000003245
                },
                {
                    "name": "G2",
                    "midi": 43,
                    "time": 513.9653887499979,
                    "velocity": 0.48031496062992124,
                    "duration": 0.17241375000003245
                },
                {
                    "name": "F#2",
                    "midi": 42,
                    "time": 514.137802499998,
                    "velocity": 0.48031496062992124,
                    "duration": 0.17241375000003245
                },
                {
                    "name": "E2",
                    "midi": 40,
                    "time": 514.310216249998,
                    "velocity": 0.4881889763779528,
                    "duration": 0.17241375000003245
                },
                {
                    "name": "D2",
                    "midi": 38,
                    "time": 514.482629999998,
                    "velocity": 0.49606299212598426,
                    "duration": 0.17241375000003245
                },
                {
                    "name": "C2",
                    "midi": 36,
                    "time": 514.6550437499981,
                    "velocity": 0.49606299212598426,
                    "duration": 0.17241375000003245
                },
                {
                    "name": "B1",
                    "midi": 35,
                    "time": 514.8274574999981,
                    "velocity": 0.49606299212598426,
                    "duration": 0.17241375000003245
                },
                {
                    "name": "A1",
                    "midi": 33,
                    "time": 514.9998712499981,
                    "velocity": 0.49606299212598426,
                    "duration": 0.17241375000003245
                },
                {
                    "name": "D2",
                    "midi": 38,
                    "time": 515.1722849999982,
                    "velocity": 0.5039370078740157,
                    "duration": 0.17241375000003245
                },
                {
                    "name": "C2",
                    "midi": 36,
                    "time": 515.3446987499982,
                    "velocity": 0.5039370078740157,
                    "duration": 0.17241375000003245
                },
                {
                    "name": "G1",
                    "midi": 31,
                    "time": 515.5171124999982,
                    "velocity": 0.5748031496062992,
                    "duration": 1.8965512499999022
                },
                {
                    "name": "B1",
                    "midi": 35,
                    "time": 515.5171124999982,
                    "velocity": 0.5748031496062992,
                    "duration": 1.8965512499999022
                },
                {
                    "name": "D2",
                    "midi": 38,
                    "time": 517.4136637499981,
                    "velocity": 0.4251968503937008,
                    "duration": 0.17241375000003245
                },
                {
                    "name": "G2",
                    "midi": 43,
                    "time": 517.5860774999982,
                    "velocity": 0.4330708661417323,
                    "duration": 0.17241375000003245
                },
                {
                    "name": "B2",
                    "midi": 47,
                    "time": 517.7584912499982,
                    "velocity": 0.4409448818897638,
                    "duration": 0.17241375000003245
                },
                {
                    "name": "D3",
                    "midi": 50,
                    "time": 517.9309049999982,
                    "velocity": 0.4566929133858268,
                    "duration": 0.17241375000003245
                },
                {
                    "name": "G3",
                    "midi": 55,
                    "time": 518.1033187499983,
                    "velocity": 0.4645669291338583,
                    "duration": 0.17241375000003245
                },
                {
                    "name": "B3",
                    "midi": 59,
                    "time": 518.2757324999983,
                    "velocity": 0.47244094488188976,
                    "duration": 0.17241375000003245
                },
                {
                    "name": "D4",
                    "midi": 62,
                    "time": 518.4481462499983,
                    "velocity": 0.4881889763779528,
                    "duration": 0.17241375000003245
                },
                {
                    "name": "G4",
                    "midi": 67,
                    "time": 518.6205599999984,
                    "velocity": 0.49606299212598426,
                    "duration": 0.17241375000003245
                },
                {
                    "name": "B4",
                    "midi": 71,
                    "time": 518.7929737499984,
                    "velocity": 0.5039370078740157,
                    "duration": 0.17241375000003245
                },
                {
                    "name": "D5",
                    "midi": 74,
                    "time": 518.9653874999984,
                    "velocity": 0.5118110236220472,
                    "duration": 0.17241375000003245
                },
                {
                    "name": "G5",
                    "midi": 79,
                    "time": 519.1378012499985,
                    "velocity": 0.5039370078740157,
                    "duration": 0.17241375000003245
                },
                {
                    "name": "B5",
                    "midi": 83,
                    "time": 519.3102149999985,
                    "velocity": 0.5196850393700787,
                    "duration": 0.17241375000003245
                },
                {
                    "name": "D6",
                    "midi": 86,
                    "time": 519.4826287499985,
                    "velocity": 0.5354330708661418,
                    "duration": 0.17241375000003245
                },
                {
                    "name": "G6",
                    "midi": 91,
                    "time": 519.6550424999986,
                    "velocity": 0.5905511811023622,
                    "duration": 1.8965512499999022
                },
                {
                    "name": "E6",
                    "midi": 88,
                    "time": 521.5515937499985,
                    "velocity": 0.3937007874015748,
                    "duration": 0.17241375000003245
                },
                {
                    "name": "D6",
                    "midi": 86,
                    "time": 521.7240074999985,
                    "velocity": 0.3937007874015748,
                    "duration": 0.17241375000003245
                },
                {
                    "name": "C6",
                    "midi": 84,
                    "time": 521.8964212499985,
                    "velocity": 0.3937007874015748,
                    "duration": 0.17241375000003245
                },
                {
                    "name": "B5",
                    "midi": 83,
                    "time": 522.0688349999986,
                    "velocity": 0.4015748031496063,
                    "duration": 0.17241375000003245
                },
                {
                    "name": "A5",
                    "midi": 81,
                    "time": 522.2412487499986,
                    "velocity": 0.4015748031496063,
                    "duration": 0.17241375000003245
                },
                {
                    "name": "G5",
                    "midi": 79,
                    "time": 522.4136624999986,
                    "velocity": 0.4094488188976378,
                    "duration": 0.17241375000003245
                },
                {
                    "name": "F#5",
                    "midi": 78,
                    "time": 522.5860762499987,
                    "velocity": 0.4094488188976378,
                    "duration": 0.17241375000003245
                },
                {
                    "name": "E5",
                    "midi": 76,
                    "time": 522.7584899999987,
                    "velocity": 0.41732283464566927,
                    "duration": 0.17241375000003245
                },
                {
                    "name": "D5",
                    "midi": 74,
                    "time": 522.9309037499987,
                    "velocity": 0.4251968503937008,
                    "duration": 0.17241375000003245
                },
                {
                    "name": "C5",
                    "midi": 72,
                    "time": 523.1033174999988,
                    "velocity": 0.4251968503937008,
                    "duration": 0.17241375000003245
                },
                {
                    "name": "B4",
                    "midi": 71,
                    "time": 523.2757312499988,
                    "velocity": 0.4251968503937008,
                    "duration": 0.17241375000003245
                },
                {
                    "name": "A4",
                    "midi": 69,
                    "time": 523.4481449999988,
                    "velocity": 0.4251968503937008,
                    "duration": 0.17241375000003245
                },
                {
                    "name": "G4",
                    "midi": 67,
                    "time": 523.6205587499988,
                    "velocity": 0.4330708661417323,
                    "duration": 0.17241375000003245
                },
                {
                    "name": "F#4",
                    "midi": 66,
                    "time": 523.7929724999989,
                    "velocity": 0.4409448818897638,
                    "duration": 0.17241375000003245
                },
                {
                    "name": "E4",
                    "midi": 64,
                    "time": 523.9653862499989,
                    "velocity": 0.4409448818897638,
                    "duration": 0.17241375000003245
                },
                {
                    "name": "D4",
                    "midi": 62,
                    "time": 524.137799999999,
                    "velocity": 0.44881889763779526,
                    "duration": 0.17241375000003245
                },
                {
                    "name": "C4",
                    "midi": 60,
                    "time": 524.310213749999,
                    "velocity": 0.44881889763779526,
                    "duration": 0.17241375000003245
                },
                {
                    "name": "B3",
                    "midi": 59,
                    "time": 524.482627499999,
                    "velocity": 0.4566929133858268,
                    "duration": 0.17241375000003245
                },
                {
                    "name": "A3",
                    "midi": 57,
                    "time": 524.655041249999,
                    "velocity": 0.4566929133858268,
                    "duration": 0.17241375000003245
                },
                {
                    "name": "G3",
                    "midi": 55,
                    "time": 524.8274549999991,
                    "velocity": 0.4645669291338583,
                    "duration": 0.17241375000003245
                },
                {
                    "name": "F#3",
                    "midi": 54,
                    "time": 524.9998687499991,
                    "velocity": 0.47244094488188976,
                    "duration": 0.17241375000003245
                },
                {
                    "name": "E3",
                    "midi": 52,
                    "time": 525.1722824999991,
                    "velocity": 0.47244094488188976,
                    "duration": 0.17241375000003245
                },
                {
                    "name": "D3",
                    "midi": 50,
                    "time": 525.3446962499992,
                    "velocity": 0.48031496062992124,
                    "duration": 0.17241375000003245
                },
                {
                    "name": "C3",
                    "midi": 48,
                    "time": 525.5171099999992,
                    "velocity": 0.48031496062992124,
                    "duration": 0.17241375000003245
                },
                {
                    "name": "B2",
                    "midi": 47,
                    "time": 525.6895237499992,
                    "velocity": 0.4881889763779528,
                    "duration": 0.17241375000003245
                },
                {
                    "name": "A2",
                    "midi": 45,
                    "time": 525.8619374999993,
                    "velocity": 0.48031496062992124,
                    "duration": 0.17241375000003245
                },
                {
                    "name": "G2",
                    "midi": 43,
                    "time": 526.0343512499993,
                    "velocity": 0.4881889763779528,
                    "duration": 0.17241375000003245
                },
                {
                    "name": "F#2",
                    "midi": 42,
                    "time": 526.2067649999993,
                    "velocity": 0.49606299212598426,
                    "duration": 0.17241375000003245
                },
                {
                    "name": "E2",
                    "midi": 40,
                    "time": 526.3791787499994,
                    "velocity": 0.49606299212598426,
                    "duration": 0.17241375000003245
                },
                {
                    "name": "D2",
                    "midi": 38,
                    "time": 526.5515924999994,
                    "velocity": 0.5118110236220472,
                    "duration": 0.17241375000003245
                },
                {
                    "name": "C2",
                    "midi": 36,
                    "time": 526.7240062499994,
                    "velocity": 0.5196850393700787,
                    "duration": 0.17241375000003245
                },
                {
                    "name": "G1",
                    "midi": 31,
                    "time": 526.8964199999995,
                    "velocity": 0.5748031496062992,
                    "duration": 1.551723749999951
                },
                {
                    "name": "B1",
                    "midi": 35,
                    "time": 526.8964199999995,
                    "velocity": 0.5748031496062992,
                    "duration": 1.551723749999951
                },
                {
                    "name": "C2",
                    "midi": 36,
                    "time": 528.4481437499994,
                    "velocity": 0.33858267716535434,
                    "duration": 0.17241375000003245
                },
                {
                    "name": "C#2",
                    "midi": 37,
                    "time": 528.6205574999994,
                    "velocity": 0.3464566929133858,
                    "duration": 0.17241375000003245
                },
                {
                    "name": "D2",
                    "midi": 38,
                    "time": 528.7929712499995,
                    "velocity": 0.3464566929133858,
                    "duration": 0.17241375000003245
                },
                {
                    "name": "D#2",
                    "midi": 39,
                    "time": 528.9653849999995,
                    "velocity": 0.3543307086614173,
                    "duration": 0.17241375000003245
                },
                {
                    "name": "E2",
                    "midi": 40,
                    "time": 529.1377987499995,
                    "velocity": 0.3543307086614173,
                    "duration": 0.17241375000003245
                },
                {
                    "name": "F2",
                    "midi": 41,
                    "time": 529.3102124999996,
                    "velocity": 0.36220472440944884,
                    "duration": 0.17241375000003245
                },
                {
                    "name": "F#2",
                    "midi": 42,
                    "time": 529.4826262499996,
                    "velocity": 0.36220472440944884,
                    "duration": 0.17241375000003245
                },
                {
                    "name": "G2",
                    "midi": 43,
                    "time": 529.6550399999996,
                    "velocity": 0.3700787401574803,
                    "duration": 0.17241375000003245
                },
                {
                    "name": "G#2",
                    "midi": 44,
                    "time": 529.8274537499997,
                    "velocity": 0.3779527559055118,
                    "duration": 0.17241375000003245
                },
                {
                    "name": "A2",
                    "midi": 45,
                    "time": 529.9998674999997,
                    "velocity": 0.3858267716535433,
                    "duration": 0.17241375000003245
                },
                {
                    "name": "A#2",
                    "midi": 46,
                    "time": 530.1722812499997,
                    "velocity": 0.3858267716535433,
                    "duration": 0.17241375000003245
                },
                {
                    "name": "B2",
                    "midi": 47,
                    "time": 530.3446949999998,
                    "velocity": 0.3937007874015748,
                    "duration": 0.17241375000003245
                },
                {
                    "name": "C3",
                    "midi": 48,
                    "time": 530.5171087499998,
                    "velocity": 0.4015748031496063,
                    "duration": 0.17241375000003245
                },
                {
                    "name": "C#3",
                    "midi": 49,
                    "time": 530.6895224999998,
                    "velocity": 0.4094488188976378,
                    "duration": 0.17241375000003245
                },
                {
                    "name": "D3",
                    "midi": 50,
                    "time": 530.8619362499999,
                    "velocity": 0.4094488188976378,
                    "duration": 0.17241375000003245
                },
                {
                    "name": "D#3",
                    "midi": 51,
                    "time": 531.0343499999999,
                    "velocity": 0.41732283464566927,
                    "duration": 0.17241375000003245
                },
                {
                    "name": "E3",
                    "midi": 52,
                    "time": 531.2067637499999,
                    "velocity": 0.4251968503937008,
                    "duration": 0.17241375000003245
                },
                {
                    "name": "F3",
                    "midi": 53,
                    "time": 531.3791775,
                    "velocity": 0.4251968503937008,
                    "duration": 0.17241375000003245
                },
                {
                    "name": "F#3",
                    "midi": 54,
                    "time": 531.55159125,
                    "velocity": 0.4251968503937008,
                    "duration": 0.17241375000003245
                },
                {
                    "name": "G3",
                    "midi": 55,
                    "time": 531.724005,
                    "velocity": 0.4330708661417323,
                    "duration": 0.17241375000003245
                },
                {
                    "name": "G#3",
                    "midi": 56,
                    "time": 531.8964187500001,
                    "velocity": 0.4409448818897638,
                    "duration": 0.17241375000003245
                },
                {
                    "name": "A3",
                    "midi": 57,
                    "time": 532.0688325000001,
                    "velocity": 0.44881889763779526,
                    "duration": 0.17241375000003245
                },
                {
                    "name": "A#3",
                    "midi": 58,
                    "time": 532.2412462500001,
                    "velocity": 0.44881889763779526,
                    "duration": 0.17241375000003245
                },
                {
                    "name": "B3",
                    "midi": 59,
                    "time": 532.4136600000002,
                    "velocity": 0.41732283464566927,
                    "duration": 0.17241375000003245
                },
                {
                    "name": "A#3",
                    "midi": 58,
                    "time": 532.5860737500002,
                    "velocity": 0.41732283464566927,
                    "duration": 0.17241375000003245
                },
                {
                    "name": "A3",
                    "midi": 57,
                    "time": 532.7584875000002,
                    "velocity": 0.4094488188976378,
                    "duration": 0.17241375000003245
                },
                {
                    "name": "G#3",
                    "midi": 56,
                    "time": 532.9309012500003,
                    "velocity": 0.4015748031496063,
                    "duration": 0.17241375000003245
                },
                {
                    "name": "G3",
                    "midi": 55,
                    "time": 533.1033150000003,
                    "velocity": 0.4015748031496063,
                    "duration": 0.17241375000003245
                },
                {
                    "name": "F#3",
                    "midi": 54,
                    "time": 533.2757287500003,
                    "velocity": 0.3937007874015748,
                    "duration": 0.17241375000003245
                },
                {
                    "name": "F3",
                    "midi": 53,
                    "time": 533.4481425000004,
                    "velocity": 0.3858267716535433,
                    "duration": 0.17241375000003245
                },
                {
                    "name": "E3",
                    "midi": 52,
                    "time": 533.6205562500004,
                    "velocity": 0.3858267716535433,
                    "duration": 0.17241375000003245
                },
                {
                    "name": "D#3",
                    "midi": 51,
                    "time": 533.7929700000004,
                    "velocity": 0.36220472440944884,
                    "duration": 0.17241375000003245
                },
                {
                    "name": "D3",
                    "midi": 50,
                    "time": 533.9653837500005,
                    "velocity": 0.3700787401574803,
                    "duration": 0.17241375000003245
                },
                {
                    "name": "C#3",
                    "midi": 49,
                    "time": 534.1377975000005,
                    "velocity": 0.3779527559055118,
                    "duration": 0.17241375000003245
                },
                {
                    "name": "C3",
                    "midi": 48,
                    "time": 534.3102112500005,
                    "velocity": 0.3937007874015748,
                    "duration": 0.17241375000003245
                },
                {
                    "name": "B2",
                    "midi": 47,
                    "time": 534.4826250000006,
                    "velocity": 0.4015748031496063,
                    "duration": 0.17241375000003245
                },
                {
                    "name": "A#2",
                    "midi": 46,
                    "time": 534.6550387500006,
                    "velocity": 0.41732283464566927,
                    "duration": 0.17241375000003245
                },
                {
                    "name": "A2",
                    "midi": 45,
                    "time": 534.8274525000006,
                    "velocity": 0.4251968503937008,
                    "duration": 0.17241375000003245
                },
                {
                    "name": "G#2",
                    "midi": 44,
                    "time": 534.9998662500007,
                    "velocity": 0.4330708661417323,
                    "duration": 0.17241375000003245
                },
                {
                    "name": "G2",
                    "midi": 43,
                    "time": 535.1722800000007,
                    "velocity": 0.4645669291338583,
                    "duration": 0.17241375000003245
                },
                {
                    "name": "F#2",
                    "midi": 42,
                    "time": 535.3446937500007,
                    "velocity": 0.47244094488188976,
                    "duration": 0.17241375000003245
                },
                {
                    "name": "F2",
                    "midi": 41,
                    "time": 535.5171075000007,
                    "velocity": 0.4881889763779528,
                    "duration": 0.17241375000003245
                },
                {
                    "name": "E2",
                    "midi": 40,
                    "time": 535.6895212500008,
                    "velocity": 0.49606299212598426,
                    "duration": 0.17241375000003245
                },
                {
                    "name": "D#2",
                    "midi": 39,
                    "time": 535.8619350000008,
                    "velocity": 0.5039370078740157,
                    "duration": 0.17241375000003245
                },
                {
                    "name": "D2",
                    "midi": 38,
                    "time": 536.0343487500008,
                    "velocity": 0.5196850393700787,
                    "duration": 0.17241375000003245
                },
                {
                    "name": "C#2",
                    "midi": 37,
                    "time": 536.2067625000009,
                    "velocity": 0.5275590551181102,
                    "duration": 0.17241375000003245
                },
                {
                    "name": "C2",
                    "midi": 36,
                    "time": 536.3791762500009,
                    "velocity": 0.5433070866141733,
                    "duration": 0.17241375000003245
                },
                {
                    "name": "G1",
                    "midi": 31,
                    "time": 536.5515900000009,
                    "velocity": 0.6220472440944882,
                    "duration": 0.3448274999999512
                },
                {
                    "name": "B1",
                    "midi": 35,
                    "time": 536.5515900000009,
                    "velocity": 0.6220472440944882,
                    "duration": 0.3448274999999512
                },
                {
                    "name": "G4",
                    "midi": 67,
                    "time": 537.9309000000009,
                    "velocity": 0.6377952755905512,
                    "duration": 0.3448274999999512
                },
                {
                    "name": "D4",
                    "midi": 62,
                    "time": 537.9309000000009,
                    "velocity": 0.5275590551181102,
                    "duration": 0.3448274999999512
                },
                {
                    "name": "B3",
                    "midi": 59,
                    "time": 537.9309000000009,
                    "velocity": 0.5275590551181102,
                    "duration": 0.3448274999999512
                },
                {
                    "name": "G3",
                    "midi": 55,
                    "time": 537.9309000000009,
                    "velocity": 0.4409448818897638,
                    "duration": 0.3448274999999512
                }
            ],
            "controlChanges": {
                "7": [
                    {
                        "number": 7,
                        "time": 0,
                        "value": 0.7874015748031497
                    }
                ],
                "10": [
                    {
                        "number": 10,
                        "time": 0,
                        "value": 0.5039370078740157
                    }
                ],
                "64": [
                    {
                        "number": 64,
                        "time": 0.1149425,
                        "value": 1
                    },
                    {
                        "number": 64,
                        "time": 2.7959763125,
                        "value": 0
                    },
                    {
                        "number": 64,
                        "time": 3.2499991875000003,
                        "value": 1
                    },
                    {
                        "number": 64,
                        "time": 7.807469312499992,
                        "value": 0
                    },
                    {
                        "number": 64,
                        "time": 8.045974999999991,
                        "value": 1
                    },
                    {
                        "number": 64,
                        "time": 12.454019874999984,
                        "value": 0
                    },
                    {
                        "number": 64,
                        "time": 13.005743874999984,
                        "value": 1
                    },
                    {
                        "number": 64,
                        "time": 19.014363062499996,
                        "value": 0
                    },
                    {
                        "number": 64,
                        "time": 19.376431937499994,
                        "value": 1
                    },
                    {
                        "number": 64,
                        "time": 23.488499875,
                        "value": 0
                    },
                    {
                        "number": 64,
                        "time": 23.7844768125,
                        "value": 1
                    },
                    {
                        "number": 64,
                        "time": 30.422406187500012,
                        "value": 0
                    },
                    {
                        "number": 64,
                        "time": 30.672406125000013,
                        "value": 1
                    },
                    {
                        "number": 64,
                        "time": 40.48562206249987,
                        "value": 0
                    },
                    {
                        "number": 64,
                        "time": 41.49998962499987,
                        "value": 1
                    },
                    {
                        "number": 64,
                        "time": 43.488494874999866,
                        "value": 0
                    },
                    {
                        "number": 64,
                        "time": 496.67516318749824,
                        "value": 1
                    },
                    {
                        "number": 64,
                        "time": 499.347576312498,
                        "value": 0
                    },
                    {
                        "number": 64,
                        "time": 499.801599187498,
                        "value": 1
                    },
                    {
                        "number": 64,
                        "time": 504.3590693124975,
                        "value": 0
                    },
                    {
                        "number": 64,
                        "time": 504.62631062499753,
                        "value": 1
                    },
                    {
                        "number": 64,
                        "time": 509.0056198749978,
                        "value": 0
                    },
                    {
                        "number": 64,
                        "time": 509.5573438749978,
                        "value": 1
                    },
                    {
                        "number": 64,
                        "time": 515.5659630624982,
                        "value": 0
                    },
                    {
                        "number": 64,
                        "time": 515.9280319374982,
                        "value": 1
                    },
                    {
                        "number": 64,
                        "time": 520.0400998749985,
                        "value": 0
                    },
                    {
                        "number": 64,
                        "time": 520.3360768124985,
                        "value": 1
                    },
                    {
                        "number": 64,
                        "time": 526.9452705624994,
                        "value": 0
                    },
                    {
                        "number": 64,
                        "time": 527.2240061249994,
                        "value": 1
                    },
                    {
                        "number": 64,
                        "time": 537.0372220625009,
                        "value": 0
                    },
                    {
                        "number": 64,
                        "time": 538.0515896250008,
                        "value": 1
                    },
                    {
                        "number": 64,
                        "time": 540.0400948750008,
                        "value": 0
                    }
                ]
            },
            "id": 3,
            "name": "Piano left",
            "instrumentNumber": 0,
            "instrument": "acoustic grand piano",
            "instrumentFamily": "piano",
            "channelNumber": 0,
            "isPercussion": false
        },
        {
            "startTime": 49.137918750000004,
            "duration": 479.9998800000061,
            "length": 1119,
            "notes": [
                {
                    "name": "G2",
                    "midi": 43,
                    "time": 49.137918750000004,
                    "velocity": 0.29133858267716534,
                    "duration": 3.1034474999999517
                },
                {
                    "name": "D3",
                    "midi": 50,
                    "time": 49.3103325,
                    "velocity": 0.33070866141732286,
                    "duration": 2.931033749999955
                },
                {
                    "name": "A#3",
                    "midi": 58,
                    "time": 49.48274625,
                    "velocity": 0.3700787401574803,
                    "duration": 0.34482750000000095
                },
                {
                    "name": "G3",
                    "midi": 55,
                    "time": 49.82757375,
                    "velocity": 0.25196850393700787,
                    "duration": 0.17241374999999692
                },
                {
                    "name": "A#3",
                    "midi": 58,
                    "time": 49.999987499999996,
                    "velocity": 0.31496062992125984,
                    "duration": 0.17241374999999692
                },
                {
                    "name": "G3",
                    "midi": 55,
                    "time": 50.17240124999999,
                    "velocity": 0.2440944881889764,
                    "duration": 0.17241374999999692
                },
                {
                    "name": "A#3",
                    "midi": 58,
                    "time": 50.34481499999999,
                    "velocity": 0.31496062992125984,
                    "duration": 0.17241374999999692
                },
                {
                    "name": "G3",
                    "midi": 55,
                    "time": 50.51722874999999,
                    "velocity": 0.2440944881889764,
                    "duration": 0.17241374999999692
                },
                {
                    "name": "A#3",
                    "midi": 58,
                    "time": 50.689642499999984,
                    "velocity": 0.31496062992125984,
                    "duration": 0.17241374999999692
                },
                {
                    "name": "G3",
                    "midi": 55,
                    "time": 50.86205624999998,
                    "velocity": 0.25196850393700787,
                    "duration": 0.17241374999999692
                },
                {
                    "name": "A#3",
                    "midi": 58,
                    "time": 51.03446999999998,
                    "velocity": 0.3228346456692913,
                    "duration": 0.17241374999999692
                },
                {
                    "name": "G3",
                    "midi": 55,
                    "time": 51.206883749999974,
                    "velocity": 0.25984251968503935,
                    "duration": 0.17241374999999692
                },
                {
                    "name": "A#3",
                    "midi": 58,
                    "time": 51.37929749999997,
                    "velocity": 0.3228346456692913,
                    "duration": 0.17241374999999692
                },
                {
                    "name": "G3",
                    "midi": 55,
                    "time": 51.55171124999997,
                    "velocity": 0.25984251968503935,
                    "duration": 0.17241374999999692
                },
                {
                    "name": "A#3",
                    "midi": 58,
                    "time": 51.724124999999965,
                    "velocity": 0.33070866141732286,
                    "duration": 0.17241374999999692
                },
                {
                    "name": "G3",
                    "midi": 55,
                    "time": 51.89653874999996,
                    "velocity": 0.25984251968503935,
                    "duration": 0.17241374999999692
                },
                {
                    "name": "A#3",
                    "midi": 58,
                    "time": 52.06895249999996,
                    "velocity": 0.33070866141732286,
                    "duration": 0.17241374999999692
                },
                {
                    "name": "G3",
                    "midi": 55,
                    "time": 52.241366249999956,
                    "velocity": 0.2677165354330709,
                    "duration": 0.17241374999999692
                },
                {
                    "name": "A#3",
                    "midi": 58,
                    "time": 52.41377999999995,
                    "velocity": 0.33070866141732286,
                    "duration": 0.17241374999999692
                },
                {
                    "name": "G3",
                    "midi": 55,
                    "time": 52.58619374999995,
                    "velocity": 0.2677165354330709,
                    "duration": 0.17241374999999692
                },
                {
                    "name": "A#3",
                    "midi": 58,
                    "time": 52.75860749999995,
                    "velocity": 0.33858267716535434,
                    "duration": 0.17241374999999692
                },
                {
                    "name": "G3",
                    "midi": 55,
                    "time": 52.931021249999944,
                    "velocity": 0.2677165354330709,
                    "duration": 0.17241374999999692
                },
                {
                    "name": "A#3",
                    "midi": 58,
                    "time": 53.10343499999994,
                    "velocity": 0.33858267716535434,
                    "duration": 0.17241374999999692
                },
                {
                    "name": "G3",
                    "midi": 55,
                    "time": 53.27584874999994,
                    "velocity": 0.2677165354330709,
                    "duration": 0.17241374999999692
                },
                {
                    "name": "A#3",
                    "midi": 58,
                    "time": 53.448262499999935,
                    "velocity": 0.3464566929133858,
                    "duration": 0.17241374999999692
                },
                {
                    "name": "G3",
                    "midi": 55,
                    "time": 53.62067624999993,
                    "velocity": 0.2755905511811024,
                    "duration": 0.17241374999999692
                },
                {
                    "name": "D#4",
                    "midi": 63,
                    "time": 53.79308999999993,
                    "velocity": 0.3779527559055118,
                    "duration": 0.17241374999999692
                },
                {
                    "name": "G3",
                    "midi": 55,
                    "time": 53.965503749999925,
                    "velocity": 0.28346456692913385,
                    "duration": 0.17241374999999692
                },
                {
                    "name": "D#4",
                    "midi": 63,
                    "time": 54.13791749999992,
                    "velocity": 0.3464566929133858,
                    "duration": 0.17241374999999692
                },
                {
                    "name": "G3",
                    "midi": 55,
                    "time": 54.31033124999992,
                    "velocity": 0.25984251968503935,
                    "duration": 0.17241374999999692
                },
                {
                    "name": "D#4",
                    "midi": 63,
                    "time": 54.482744999999916,
                    "velocity": 0.31496062992125984,
                    "duration": 0.17241374999999692
                },
                {
                    "name": "G3",
                    "midi": 55,
                    "time": 54.65515874999991,
                    "velocity": 0.3543307086614173,
                    "duration": 0.17241374999999692
                },
                {
                    "name": "D#4",
                    "midi": 63,
                    "time": 54.82757249999991,
                    "velocity": 0.2677165354330709,
                    "duration": 0.17241374999999692
                },
                {
                    "name": "G3",
                    "midi": 55,
                    "time": 54.99998624999991,
                    "velocity": 0.31496062992125984,
                    "duration": 0.17241374999999692
                },
                {
                    "name": "D4",
                    "midi": 62,
                    "time": 55.172399999999904,
                    "velocity": 0.3700787401574803,
                    "duration": 0.17241375000000403
                },
                {
                    "name": "G3",
                    "midi": 55,
                    "time": 55.34481374999991,
                    "velocity": 0.2677165354330709,
                    "duration": 0.17241374999999692
                },
                {
                    "name": "D4",
                    "midi": 62,
                    "time": 55.517227499999905,
                    "velocity": 0.33858267716535434,
                    "duration": 0.17241374999999692
                },
                {
                    "name": "G3",
                    "midi": 55,
                    "time": 55.6896412499999,
                    "velocity": 0.2755905511811024,
                    "duration": 0.17241374999999692
                },
                {
                    "name": "D4",
                    "midi": 62,
                    "time": 55.8620549999999,
                    "velocity": 0.31496062992125984,
                    "duration": 0.17241374999999692
                },
                {
                    "name": "G3",
                    "midi": 55,
                    "time": 56.034468749999895,
                    "velocity": 0.2755905511811024,
                    "duration": 0.17241374999999692
                },
                {
                    "name": "D4",
                    "midi": 62,
                    "time": 56.20688249999989,
                    "velocity": 0.3464566929133858,
                    "duration": 0.17241374999999692
                },
                {
                    "name": "G3",
                    "midi": 55,
                    "time": 56.37929624999989,
                    "velocity": 0.31496062992125984,
                    "duration": 0.17241374999999692
                },
                {
                    "name": "C4",
                    "midi": 60,
                    "time": 56.551709999999886,
                    "velocity": 0.3700787401574803,
                    "duration": 0.17241374999999692
                },
                {
                    "name": "G3",
                    "midi": 55,
                    "time": 56.72412374999988,
                    "velocity": 0.25984251968503935,
                    "duration": 0.17241374999999692
                },
                {
                    "name": "C4",
                    "midi": 60,
                    "time": 56.89653749999988,
                    "velocity": 0.33858267716535434,
                    "duration": 0.17241374999999692
                },
                {
                    "name": "G3",
                    "midi": 55,
                    "time": 57.06895124999988,
                    "velocity": 0.2677165354330709,
                    "duration": 0.17241374999999692
                },
                {
                    "name": "C4",
                    "midi": 60,
                    "time": 57.241364999999874,
                    "velocity": 0.33070866141732286,
                    "duration": 0.17241374999999692
                },
                {
                    "name": "G3",
                    "midi": 55,
                    "time": 57.41377874999987,
                    "velocity": 0.25984251968503935,
                    "duration": 0.17241374999999692
                },
                {
                    "name": "C4",
                    "midi": 60,
                    "time": 57.58619249999987,
                    "velocity": 0.33070866141732286,
                    "duration": 0.17241374999999692
                },
                {
                    "name": "G3",
                    "midi": 55,
                    "time": 57.758606249999865,
                    "velocity": 0.2677165354330709,
                    "duration": 0.17241374999999692
                },
                {
                    "name": "A#3",
                    "midi": 58,
                    "time": 57.93101999999986,
                    "velocity": 0.3464566929133858,
                    "duration": 0.17241374999999692
                },
                {
                    "name": "G3",
                    "midi": 55,
                    "time": 58.10343374999986,
                    "velocity": 0.25196850393700787,
                    "duration": 0.17241374999999692
                },
                {
                    "name": "A#3",
                    "midi": 58,
                    "time": 58.275847499999855,
                    "velocity": 0.31496062992125984,
                    "duration": 0.17241374999999692
                },
                {
                    "name": "G3",
                    "midi": 55,
                    "time": 58.44826124999985,
                    "velocity": 0.2440944881889764,
                    "duration": 0.17241374999999692
                },
                {
                    "name": "A#3",
                    "midi": 58,
                    "time": 58.62067499999985,
                    "velocity": 0.31496062992125984,
                    "duration": 0.17241374999999692
                },
                {
                    "name": "G3",
                    "midi": 55,
                    "time": 58.793088749999846,
                    "velocity": 0.2440944881889764,
                    "duration": 0.17241374999999692
                },
                {
                    "name": "A#3",
                    "midi": 58,
                    "time": 58.96550249999984,
                    "velocity": 0.31496062992125984,
                    "duration": 0.17241374999999692
                },
                {
                    "name": "G3",
                    "midi": 55,
                    "time": 59.13791624999984,
                    "velocity": 0.2440944881889764,
                    "duration": 0.17241374999999692
                },
                {
                    "name": "A#3",
                    "midi": 58,
                    "time": 59.31032999999984,
                    "velocity": 0.31496062992125984,
                    "duration": 0.17241374999999692
                },
                {
                    "name": "G3",
                    "midi": 55,
                    "time": 59.482743749999834,
                    "velocity": 0.2440944881889764,
                    "duration": 0.17241374999999692
                },
                {
                    "name": "A#3",
                    "midi": 58,
                    "time": 59.65515749999983,
                    "velocity": 0.30708661417322836,
                    "duration": 0.17241374999999692
                },
                {
                    "name": "G3",
                    "midi": 55,
                    "time": 59.82757124999983,
                    "velocity": 0.23622047244094488,
                    "duration": 0.17241374999999692
                },
                {
                    "name": "A#3",
                    "midi": 58,
                    "time": 59.999984999999825,
                    "velocity": 0.29133858267716534,
                    "duration": 0.17241374999999692
                },
                {
                    "name": "G3",
                    "midi": 55,
                    "time": 60.17239874999982,
                    "velocity": 0.2283464566929134,
                    "duration": 0.17241374999999692
                },
                {
                    "name": "A#3",
                    "midi": 58,
                    "time": 60.34481249999982,
                    "velocity": 0.28346456692913385,
                    "duration": 0.17241374999999692
                },
                {
                    "name": "G3",
                    "midi": 55,
                    "time": 60.517226249999815,
                    "velocity": 0.2283464566929134,
                    "duration": 0.17241374999999692
                },
                {
                    "name": "A#3",
                    "midi": 58,
                    "time": 60.68963999999981,
                    "velocity": 0.25196850393700787,
                    "duration": 0.17241374999999692
                },
                {
                    "name": "G3",
                    "midi": 55,
                    "time": 60.86205374999981,
                    "velocity": 0.2204724409448819,
                    "duration": 0.17241374999999692
                },
                {
                    "name": "A#3",
                    "midi": 58,
                    "time": 61.034467499999806,
                    "velocity": 0.28346456692913385,
                    "duration": 0.17241374999999692
                },
                {
                    "name": "G3",
                    "midi": 55,
                    "time": 61.2068812499998,
                    "velocity": 0.2283464566929134,
                    "duration": 0.17241374999999692
                },
                {
                    "name": "A#3",
                    "midi": 58,
                    "time": 61.3792949999998,
                    "velocity": 0.29133858267716534,
                    "duration": 0.17241374999999692
                },
                {
                    "name": "G3",
                    "midi": 55,
                    "time": 61.5517087499998,
                    "velocity": 0.23622047244094488,
                    "duration": 0.17241374999999692
                },
                {
                    "name": "A#3",
                    "midi": 58,
                    "time": 61.724122499999794,
                    "velocity": 0.30708661417322836,
                    "duration": 0.17241374999999692
                },
                {
                    "name": "G3",
                    "midi": 55,
                    "time": 61.89653624999979,
                    "velocity": 0.2440944881889764,
                    "duration": 0.057471249999998975
                },
                {
                    "name": "F3",
                    "midi": 53,
                    "time": 61.95400749999979,
                    "velocity": 0.2755905511811024,
                    "duration": 0.2873562499999949
                },
                {
                    "name": "A3",
                    "midi": 57,
                    "time": 62.01147874999979,
                    "velocity": 0.3779527559055118,
                    "duration": 0.2298849999999959
                },
                {
                    "name": "F3",
                    "midi": 53,
                    "time": 62.241363749999785,
                    "velocity": 0.28346456692913385,
                    "duration": 0.17241374999999692
                },
                {
                    "name": "A3",
                    "midi": 57,
                    "time": 62.41377749999978,
                    "velocity": 0.3464566929133858,
                    "duration": 0.17241374999999692
                },
                {
                    "name": "F3",
                    "midi": 53,
                    "time": 62.58619124999978,
                    "velocity": 0.25984251968503935,
                    "duration": 0.17241374999999692
                },
                {
                    "name": "A3",
                    "midi": 57,
                    "time": 62.758604999999775,
                    "velocity": 0.31496062992125984,
                    "duration": 0.17241374999999692
                },
                {
                    "name": "F3",
                    "midi": 53,
                    "time": 62.93101874999977,
                    "velocity": 0.3543307086614173,
                    "duration": 0.17241374999999692
                },
                {
                    "name": "A3",
                    "midi": 57,
                    "time": 63.10343249999977,
                    "velocity": 0.2677165354330709,
                    "duration": 0.17241374999999692
                },
                {
                    "name": "F3",
                    "midi": 53,
                    "time": 63.275846249999766,
                    "velocity": 0.31496062992125984,
                    "duration": 0.057471249999998975
                },
                {
                    "name": "D#3",
                    "midi": 51,
                    "time": 63.333317499999765,
                    "velocity": 0.30708661417322836,
                    "duration": 0.287356250000002
                },
                {
                    "name": "G3",
                    "midi": 55,
                    "time": 63.390788749999764,
                    "velocity": 0.3700787401574803,
                    "duration": 0.229885000000003
                },
                {
                    "name": "D#3",
                    "midi": 51,
                    "time": 63.62067374999977,
                    "velocity": 0.2677165354330709,
                    "duration": 0.17241374999999692
                },
                {
                    "name": "G3",
                    "midi": 55,
                    "time": 63.793087499999764,
                    "velocity": 0.33858267716535434,
                    "duration": 0.17241374999999692
                },
                {
                    "name": "D#3",
                    "midi": 51,
                    "time": 63.96550124999976,
                    "velocity": 0.2755905511811024,
                    "duration": 0.17241375000000403
                },
                {
                    "name": "G3",
                    "midi": 55,
                    "time": 64.13791499999977,
                    "velocity": 0.31496062992125984,
                    "duration": 0.17241375000000403
                },
                {
                    "name": "D#3",
                    "midi": 51,
                    "time": 64.31032874999977,
                    "velocity": 0.2755905511811024,
                    "duration": 0.17241375000000403
                },
                {
                    "name": "G3",
                    "midi": 55,
                    "time": 64.48274249999977,
                    "velocity": 0.3464566929133858,
                    "duration": 0.17241375000000403
                },
                {
                    "name": "D#3",
                    "midi": 51,
                    "time": 64.65515624999978,
                    "velocity": 0.31496062992125984,
                    "duration": 0.05747125000000608
                },
                {
                    "name": "D3",
                    "midi": 50,
                    "time": 64.71262749999978,
                    "velocity": 0.30708661417322836,
                    "duration": 0.287356250000002
                },
                {
                    "name": "F3",
                    "midi": 53,
                    "time": 64.77009874999979,
                    "velocity": 0.3700787401574803,
                    "duration": 0.2298849999999959
                },
                {
                    "name": "D3",
                    "midi": 50,
                    "time": 64.99998374999979,
                    "velocity": 0.25984251968503935,
                    "duration": 0.17241375000000403
                },
                {
                    "name": "F3",
                    "midi": 53,
                    "time": 65.17239749999979,
                    "velocity": 0.33858267716535434,
                    "duration": 0.17241375000000403
                },
                {
                    "name": "D3",
                    "midi": 50,
                    "time": 65.3448112499998,
                    "velocity": 0.2677165354330709,
                    "duration": 0.17241375000000403
                },
                {
                    "name": "F3",
                    "midi": 53,
                    "time": 65.5172249999998,
                    "velocity": 0.33070866141732286,
                    "duration": 0.17241375000000403
                },
                {
                    "name": "D3",
                    "midi": 50,
                    "time": 65.6896387499998,
                    "velocity": 0.25984251968503935,
                    "duration": 0.17241375000000403
                },
                {
                    "name": "F3",
                    "midi": 53,
                    "time": 65.8620524999998,
                    "velocity": 0.33070866141732286,
                    "duration": 0.17241375000000403
                },
                {
                    "name": "D3",
                    "midi": 50,
                    "time": 66.03446624999981,
                    "velocity": 0.2677165354330709,
                    "duration": 0.05747125000000608
                },
                {
                    "name": "C3",
                    "midi": 48,
                    "time": 66.09193749999982,
                    "velocity": 0.25196850393700787,
                    "duration": 0.2873562500000162
                },
                {
                    "name": "D#3",
                    "midi": 51,
                    "time": 66.14940874999982,
                    "velocity": 0.3464566929133858,
                    "duration": 0.2298850000000101
                },
                {
                    "name": "C3",
                    "midi": 48,
                    "time": 66.37929374999983,
                    "velocity": 0.25196850393700787,
                    "duration": 0.17241375000000403
                },
                {
                    "name": "D#3",
                    "midi": 51,
                    "time": 66.55170749999984,
                    "velocity": 0.31496062992125984,
                    "duration": 0.17241375000000403
                },
                {
                    "name": "C3",
                    "midi": 48,
                    "time": 66.72412124999984,
                    "velocity": 0.25196850393700787,
                    "duration": 0.17241375000000403
                },
                {
                    "name": "D#3",
                    "midi": 51,
                    "time": 66.89653499999984,
                    "velocity": 0.33070866141732286,
                    "duration": 0.17241375000000403
                },
                {
                    "name": "C3",
                    "midi": 48,
                    "time": 67.06894874999985,
                    "velocity": 0.25984251968503935,
                    "duration": 0.17241375000000403
                },
                {
                    "name": "D#3",
                    "midi": 51,
                    "time": 67.24136249999985,
                    "velocity": 0.33858267716535434,
                    "duration": 0.17241375000000403
                },
                {
                    "name": "C3",
                    "midi": 48,
                    "time": 67.41377624999986,
                    "velocity": 0.25984251968503935,
                    "duration": 0.17241375000000403
                },
                {
                    "name": "D#3",
                    "midi": 51,
                    "time": 67.58618999999986,
                    "velocity": 0.3464566929133858,
                    "duration": 0.17241375000000403
                },
                {
                    "name": "C3",
                    "midi": 48,
                    "time": 67.75860374999986,
                    "velocity": 0.2755905511811024,
                    "duration": 0.17241375000000403
                },
                {
                    "name": "D#3",
                    "midi": 51,
                    "time": 67.93101749999987,
                    "velocity": 0.3543307086614173,
                    "duration": 0.17241375000000403
                },
                {
                    "name": "C3",
                    "midi": 48,
                    "time": 68.10343124999987,
                    "velocity": 0.28346456692913385,
                    "duration": 0.17241375000000403
                },
                {
                    "name": "D#3",
                    "midi": 51,
                    "time": 68.27584499999988,
                    "velocity": 0.3543307086614173,
                    "duration": 0.17241375000000403
                },
                {
                    "name": "C3",
                    "midi": 48,
                    "time": 68.44825874999988,
                    "velocity": 0.28346456692913385,
                    "duration": 0.17241375000000403
                },
                {
                    "name": "D#3",
                    "midi": 51,
                    "time": 68.62067249999988,
                    "velocity": 0.36220472440944884,
                    "duration": 0.17241375000000403
                },
                {
                    "name": "C3",
                    "midi": 48,
                    "time": 68.79308624999989,
                    "velocity": 0.29133858267716534,
                    "duration": 0.17241375000000403
                },
                {
                    "name": "D#3",
                    "midi": 51,
                    "time": 68.96549999999989,
                    "velocity": 0.3779527559055118,
                    "duration": 0.17241375000000403
                },
                {
                    "name": "C3",
                    "midi": 48,
                    "time": 69.1379137499999,
                    "velocity": 0.2992125984251969,
                    "duration": 0.17241375000000403
                },
                {
                    "name": "D#3",
                    "midi": 51,
                    "time": 69.3103274999999,
                    "velocity": 0.3779527559055118,
                    "duration": 0.17241375000000403
                },
                {
                    "name": "C3",
                    "midi": 48,
                    "time": 69.4827412499999,
                    "velocity": 0.30708661417322836,
                    "duration": 0.17241375000000403
                },
                {
                    "name": "D#3",
                    "midi": 51,
                    "time": 69.65515499999991,
                    "velocity": 0.3937007874015748,
                    "duration": 0.17241375000000403
                },
                {
                    "name": "C3",
                    "midi": 48,
                    "time": 69.82756874999991,
                    "velocity": 0.31496062992125984,
                    "duration": 0.17241375000000403
                },
                {
                    "name": "D#3",
                    "midi": 51,
                    "time": 69.99998249999992,
                    "velocity": 0.4015748031496063,
                    "duration": 0.17241375000000403
                },
                {
                    "name": "C3",
                    "midi": 48,
                    "time": 70.17239624999992,
                    "velocity": 0.3228346456692913,
                    "duration": 0.17241375000000403
                },
                {
                    "name": "D#3",
                    "midi": 51,
                    "time": 70.34480999999992,
                    "velocity": 0.44881889763779526,
                    "duration": 0.17241374999998982
                },
                {
                    "name": "C3",
                    "midi": 48,
                    "time": 70.51722374999991,
                    "velocity": 0.30708661417322836,
                    "duration": 0.17241375000000403
                },
                {
                    "name": "D#3",
                    "midi": 51,
                    "time": 70.68963749999992,
                    "velocity": 0.4015748031496063,
                    "duration": 0.17241375000000403
                },
                {
                    "name": "C3",
                    "midi": 48,
                    "time": 70.86205124999992,
                    "velocity": 0.28346456692913385,
                    "duration": 0.17241375000000403
                },
                {
                    "name": "D#3",
                    "midi": 51,
                    "time": 71.03446499999993,
                    "velocity": 0.3464566929133858,
                    "duration": 0.17241375000000403
                },
                {
                    "name": "C3",
                    "midi": 48,
                    "time": 71.20687874999993,
                    "velocity": 0.3779527559055118,
                    "duration": 0.17241375000000403
                },
                {
                    "name": "D#3",
                    "midi": 51,
                    "time": 71.37929249999993,
                    "velocity": 0.28346456692913385,
                    "duration": 0.17241375000000403
                },
                {
                    "name": "C3",
                    "midi": 48,
                    "time": 71.55170624999994,
                    "velocity": 0.33858267716535434,
                    "duration": 0.05747125000000608
                },
                {
                    "name": "C#3",
                    "midi": 49,
                    "time": 71.60917749999994,
                    "velocity": 0.33070866141732286,
                    "duration": 0.287356250000002
                },
                {
                    "name": "E3",
                    "midi": 52,
                    "time": 71.66664874999995,
                    "velocity": 0.4094488188976378,
                    "duration": 0.2298849999999959
                },
                {
                    "name": "C#3",
                    "midi": 49,
                    "time": 71.89653374999995,
                    "velocity": 0.28346456692913385,
                    "duration": 0.17241375000000403
                },
                {
                    "name": "E3",
                    "midi": 52,
                    "time": 72.06894749999995,
                    "velocity": 0.3543307086614173,
                    "duration": 0.17241375000000403
                },
                {
                    "name": "C#3",
                    "midi": 49,
                    "time": 72.24136124999995,
                    "velocity": 0.28346456692913385,
                    "duration": 0.17241375000000403
                },
                {
                    "name": "E3",
                    "midi": 52,
                    "time": 72.41377499999996,
                    "velocity": 0.3464566929133858,
                    "duration": 0.17241375000000403
                },
                {
                    "name": "C#3",
                    "midi": 49,
                    "time": 72.58618874999996,
                    "velocity": 0.2992125984251969,
                    "duration": 0.17241375000000403
                },
                {
                    "name": "E3",
                    "midi": 52,
                    "time": 72.75860249999997,
                    "velocity": 0.3543307086614173,
                    "duration": 0.17241375000000403
                },
                {
                    "name": "C#3",
                    "midi": 49,
                    "time": 72.93101624999997,
                    "velocity": 0.3228346456692913,
                    "duration": 0.17241375000000403
                },
                {
                    "name": "E3",
                    "midi": 52,
                    "time": 73.10342999999997,
                    "velocity": 0.4094488188976378,
                    "duration": 0.17241374999998982
                },
                {
                    "name": "C#3",
                    "midi": 49,
                    "time": 73.27584374999996,
                    "velocity": 0.2677165354330709,
                    "duration": 0.17241375000000403
                },
                {
                    "name": "E3",
                    "midi": 52,
                    "time": 73.44825749999997,
                    "velocity": 0.3464566929133858,
                    "duration": 0.17241375000000403
                },
                {
                    "name": "C#3",
                    "midi": 49,
                    "time": 73.62067124999997,
                    "velocity": 0.2755905511811024,
                    "duration": 0.17241375000000403
                },
                {
                    "name": "E3",
                    "midi": 52,
                    "time": 73.79308499999998,
                    "velocity": 0.33070866141732286,
                    "duration": 0.17241375000000403
                },
                {
                    "name": "C#3",
                    "midi": 49,
                    "time": 73.96549874999998,
                    "velocity": 0.25984251968503935,
                    "duration": 0.17241375000000403
                },
                {
                    "name": "E3",
                    "midi": 52,
                    "time": 74.13791249999998,
                    "velocity": 0.33070866141732286,
                    "duration": 0.17241375000000403
                },
                {
                    "name": "C#3",
                    "midi": 49,
                    "time": 74.31032624999999,
                    "velocity": 0.2677165354330709,
                    "duration": 0.05747125000000608
                },
                {
                    "name": "D3",
                    "midi": 50,
                    "time": 74.3677975,
                    "velocity": 0.3464566929133858,
                    "duration": 0.287356250000002
                },
                {
                    "name": "G3",
                    "midi": 55,
                    "time": 74.42526875,
                    "velocity": 0.3464566929133858,
                    "duration": 0.2298849999999959
                },
                {
                    "name": "D3",
                    "midi": 50,
                    "time": 74.65515375,
                    "velocity": 0.25196850393700787,
                    "duration": 0.17241375000000403
                },
                {
                    "name": "G3",
                    "midi": 55,
                    "time": 74.8275675,
                    "velocity": 0.31496062992125984,
                    "duration": 0.17241375000000403
                },
                {
                    "name": "D3",
                    "midi": 50,
                    "time": 74.99998125,
                    "velocity": 0.25196850393700787,
                    "duration": 0.17241375000000403
                },
                {
                    "name": "G3",
                    "midi": 55,
                    "time": 75.17239500000001,
                    "velocity": 0.33070866141732286,
                    "duration": 0.17241375000000403
                },
                {
                    "name": "D3",
                    "midi": 50,
                    "time": 75.34480875000001,
                    "velocity": 0.25984251968503935,
                    "duration": 0.17241375000000403
                },
                {
                    "name": "G3",
                    "midi": 55,
                    "time": 75.51722250000002,
                    "velocity": 0.33858267716535434,
                    "duration": 0.17241375000000403
                },
                {
                    "name": "D3",
                    "midi": 50,
                    "time": 75.68963625000002,
                    "velocity": 0.25984251968503935,
                    "duration": 0.17241375000000403
                },
                {
                    "name": "G3",
                    "midi": 55,
                    "time": 75.86205000000002,
                    "velocity": 0.3464566929133858,
                    "duration": 0.17241375000000403
                },
                {
                    "name": "D3",
                    "midi": 50,
                    "time": 76.03446375000003,
                    "velocity": 0.2755905511811024,
                    "duration": 0.17241375000000403
                },
                {
                    "name": "G3",
                    "midi": 55,
                    "time": 76.20687750000003,
                    "velocity": 0.33858267716535434,
                    "duration": 0.17241375000000403
                },
                {
                    "name": "D3",
                    "midi": 50,
                    "time": 76.37929125000004,
                    "velocity": 0.2677165354330709,
                    "duration": 0.17241375000000403
                },
                {
                    "name": "G3",
                    "midi": 55,
                    "time": 76.55170500000004,
                    "velocity": 0.33070866141732286,
                    "duration": 0.17241375000000403
                },
                {
                    "name": "D3",
                    "midi": 50,
                    "time": 76.72411875000004,
                    "velocity": 0.25984251968503935,
                    "duration": 0.17241375000000403
                },
                {
                    "name": "G3",
                    "midi": 55,
                    "time": 76.89653250000005,
                    "velocity": 0.3228346456692913,
                    "duration": 0.17241375000000403
                },
                {
                    "name": "D3",
                    "midi": 50,
                    "time": 77.06894625000005,
                    "velocity": 0.25196850393700787,
                    "duration": 0.17241375000000403
                },
                {
                    "name": "F#3",
                    "midi": 54,
                    "time": 77.24136000000006,
                    "velocity": 0.31496062992125984,
                    "duration": 0.17241374999998982
                },
                {
                    "name": "D3",
                    "midi": 50,
                    "time": 77.41377375000005,
                    "velocity": 0.25196850393700787,
                    "duration": 0.17241375000000403
                },
                {
                    "name": "F#3",
                    "midi": 54,
                    "time": 77.58618750000005,
                    "velocity": 0.31496062992125984,
                    "duration": 0.17241375000000403
                },
                {
                    "name": "D3",
                    "midi": 50,
                    "time": 77.75860125000005,
                    "velocity": 0.25196850393700787,
                    "duration": 0.17241375000000403
                },
                {
                    "name": "F#3",
                    "midi": 54,
                    "time": 77.93101500000006,
                    "velocity": 0.31496062992125984,
                    "duration": 0.17241375000000403
                },
                {
                    "name": "D3",
                    "midi": 50,
                    "time": 78.10342875000006,
                    "velocity": 0.25196850393700787,
                    "duration": 0.17241375000000403
                },
                {
                    "name": "F#3",
                    "midi": 54,
                    "time": 78.27584250000007,
                    "velocity": 0.31496062992125984,
                    "duration": 0.17241375000000403
                },
                {
                    "name": "D3",
                    "midi": 50,
                    "time": 78.44825625000007,
                    "velocity": 0.25196850393700787,
                    "duration": 0.05747125000000608
                },
                {
                    "name": "C3",
                    "midi": 48,
                    "time": 78.50572750000008,
                    "velocity": 0.2755905511811024,
                    "duration": 0.287356250000002
                },
                {
                    "name": "D#3",
                    "midi": 51,
                    "time": 78.56319875000008,
                    "velocity": 0.3779527559055118,
                    "duration": 0.2298849999999959
                },
                {
                    "name": "C3",
                    "midi": 48,
                    "time": 78.79308375000008,
                    "velocity": 0.28346456692913385,
                    "duration": 0.17241375000000403
                },
                {
                    "name": "D#3",
                    "midi": 51,
                    "time": 78.96549750000008,
                    "velocity": 0.3464566929133858,
                    "duration": 0.17241375000000403
                },
                {
                    "name": "C3",
                    "midi": 48,
                    "time": 79.13791125000009,
                    "velocity": 0.25984251968503935,
                    "duration": 0.17241375000000403
                },
                {
                    "name": "D#3",
                    "midi": 51,
                    "time": 79.31032500000009,
                    "velocity": 0.31496062992125984,
                    "duration": 0.17241375000000403
                },
                {
                    "name": "C3",
                    "midi": 48,
                    "time": 79.4827387500001,
                    "velocity": 0.3543307086614173,
                    "duration": 0.17241375000000403
                },
                {
                    "name": "D#3",
                    "midi": 51,
                    "time": 79.6551525000001,
                    "velocity": 0.2677165354330709,
                    "duration": 0.17241375000000403
                },
                {
                    "name": "C3",
                    "midi": 48,
                    "time": 79.8275662500001,
                    "velocity": 0.31496062992125984,
                    "duration": 0.05747125000000608
                },
                {
                    "name": "A#2",
                    "midi": 46,
                    "time": 79.88503750000011,
                    "velocity": 0.30708661417322836,
                    "duration": 0.287356250000002
                },
                {
                    "name": "D3",
                    "midi": 50,
                    "time": 79.94250875000012,
                    "velocity": 0.3700787401574803,
                    "duration": 0.2298849999999959
                },
                {
                    "name": "A#2",
                    "midi": 46,
                    "time": 80.17239375000011,
                    "velocity": 0.2677165354330709,
                    "duration": 0.17241375000000403
                },
                {
                    "name": "D3",
                    "midi": 50,
                    "time": 80.34480750000012,
                    "velocity": 0.33858267716535434,
                    "duration": 0.17241375000000403
                },
                {
                    "name": "A#2",
                    "midi": 46,
                    "time": 80.51722125000012,
                    "velocity": 0.2755905511811024,
                    "duration": 0.17241375000000403
                },
                {
                    "name": "D3",
                    "midi": 50,
                    "time": 80.68963500000012,
                    "velocity": 0.31496062992125984,
                    "duration": 0.17241375000000403
                },
                {
                    "name": "A#2",
                    "midi": 46,
                    "time": 80.86204875000013,
                    "velocity": 0.2755905511811024,
                    "duration": 0.17241375000000403
                },
                {
                    "name": "D3",
                    "midi": 50,
                    "time": 81.03446250000013,
                    "velocity": 0.3464566929133858,
                    "duration": 0.17241375000000403
                },
                {
                    "name": "A#2",
                    "midi": 46,
                    "time": 81.20687625000014,
                    "velocity": 0.31496062992125984,
                    "duration": 0.05747125000000608
                },
                {
                    "name": "A2",
                    "midi": 45,
                    "time": 81.26434750000014,
                    "velocity": 0.30708661417322836,
                    "duration": 0.287356250000002
                },
                {
                    "name": "D3",
                    "midi": 50,
                    "time": 81.32181875000015,
                    "velocity": 0.3700787401574803,
                    "duration": 0.2298849999999959
                },
                {
                    "name": "A2",
                    "midi": 45,
                    "time": 81.55170375000014,
                    "velocity": 0.25984251968503935,
                    "duration": 0.17241375000000403
                },
                {
                    "name": "D3",
                    "midi": 50,
                    "time": 81.72411750000015,
                    "velocity": 0.33858267716535434,
                    "duration": 0.17241375000000403
                },
                {
                    "name": "A2",
                    "midi": 45,
                    "time": 81.89653125000015,
                    "velocity": 0.2677165354330709,
                    "duration": 0.17241375000000403
                },
                {
                    "name": "D3",
                    "midi": 50,
                    "time": 82.06894500000016,
                    "velocity": 0.33070866141732286,
                    "duration": 0.17241375000000403
                },
                {
                    "name": "A2",
                    "midi": 45,
                    "time": 82.24135875000016,
                    "velocity": 0.25984251968503935,
                    "duration": 0.17241375000000403
                },
                {
                    "name": "D3",
                    "midi": 50,
                    "time": 82.41377250000016,
                    "velocity": 0.33070866141732286,
                    "duration": 0.17241375000000403
                },
                {
                    "name": "A2",
                    "midi": 45,
                    "time": 82.58618625000017,
                    "velocity": 0.25196850393700787,
                    "duration": 0.0431034374999939
                },
                {
                    "name": "G2",
                    "midi": 43,
                    "time": 82.62928968750016,
                    "velocity": 0.31496062992125984,
                    "duration": 2.93103375000004
                },
                {
                    "name": "D3",
                    "midi": 50,
                    "time": 82.67239312500016,
                    "velocity": 0.31496062992125984,
                    "duration": 2.8448268750000523
                },
                {
                    "name": "A#3",
                    "midi": 58,
                    "time": 82.71549656250015,
                    "velocity": 0.31496062992125984,
                    "duration": 0.21551718749999793
                },
                {
                    "name": "G3",
                    "midi": 55,
                    "time": 82.93101375000015,
                    "velocity": 0.25196850393700787,
                    "duration": 0.17241375000000403
                },
                {
                    "name": "A#3",
                    "midi": 58,
                    "time": 83.10342750000015,
                    "velocity": 0.31496062992125984,
                    "duration": 0.17241375000000403
                },
                {
                    "name": "G3",
                    "midi": 55,
                    "time": 83.27584125000016,
                    "velocity": 0.2440944881889764,
                    "duration": 0.17241375000000403
                },
                {
                    "name": "A#3",
                    "midi": 58,
                    "time": 83.44825500000016,
                    "velocity": 0.31496062992125984,
                    "duration": 0.17241375000000403
                },
                {
                    "name": "G3",
                    "midi": 55,
                    "time": 83.62066875000016,
                    "velocity": 0.2440944881889764,
                    "duration": 0.17241375000000403
                },
                {
                    "name": "A#3",
                    "midi": 58,
                    "time": 83.79308250000017,
                    "velocity": 0.31496062992125984,
                    "duration": 0.17241375000000403
                },
                {
                    "name": "G3",
                    "midi": 55,
                    "time": 83.96549625000017,
                    "velocity": 0.2440944881889764,
                    "duration": 0.17241375000000403
                },
                {
                    "name": "A#3",
                    "midi": 58,
                    "time": 84.13791000000018,
                    "velocity": 0.3228346456692913,
                    "duration": 0.17241375000000403
                },
                {
                    "name": "G3",
                    "midi": 55,
                    "time": 84.31032375000018,
                    "velocity": 0.25984251968503935,
                    "duration": 0.17241375000000403
                },
                {
                    "name": "A#3",
                    "midi": 58,
                    "time": 84.48273750000018,
                    "velocity": 0.3228346456692913,
                    "duration": 0.17241375000000403
                },
                {
                    "name": "G3",
                    "midi": 55,
                    "time": 84.65515125000019,
                    "velocity": 0.25984251968503935,
                    "duration": 0.17241375000000403
                },
                {
                    "name": "A#3",
                    "midi": 58,
                    "time": 84.82756500000019,
                    "velocity": 0.33070866141732286,
                    "duration": 0.17241375000000403
                },
                {
                    "name": "G3",
                    "midi": 55,
                    "time": 84.9999787500002,
                    "velocity": 0.25984251968503935,
                    "duration": 0.17241375000000403
                },
                {
                    "name": "A#3",
                    "midi": 58,
                    "time": 85.1723925000002,
                    "velocity": 0.33070866141732286,
                    "duration": 0.17241375000000403
                },
                {
                    "name": "G3",
                    "midi": 55,
                    "time": 85.3448062500002,
                    "velocity": 0.2677165354330709,
                    "duration": 0.17241375000000403
                },
                {
                    "name": "A#3",
                    "midi": 58,
                    "time": 85.51722000000021,
                    "velocity": 0.33070866141732286,
                    "duration": 0.17241374999998982
                },
                {
                    "name": "G3",
                    "midi": 55,
                    "time": 85.6896337500002,
                    "velocity": 0.2677165354330709,
                    "duration": 0.17241375000000403
                },
                {
                    "name": "A#3",
                    "midi": 58,
                    "time": 85.8620475000002,
                    "velocity": 0.33858267716535434,
                    "duration": 0.17241375000000403
                },
                {
                    "name": "G3",
                    "midi": 55,
                    "time": 86.0344612500002,
                    "velocity": 0.2677165354330709,
                    "duration": 0.17241375000000403
                },
                {
                    "name": "A#3",
                    "midi": 58,
                    "time": 86.20687500000021,
                    "velocity": 0.33858267716535434,
                    "duration": 0.17241375000000403
                },
                {
                    "name": "G3",
                    "midi": 55,
                    "time": 86.37928875000021,
                    "velocity": 0.2677165354330709,
                    "duration": 0.17241375000000403
                },
                {
                    "name": "A#3",
                    "midi": 58,
                    "time": 86.55170250000022,
                    "velocity": 0.3464566929133858,
                    "duration": 0.17241375000000403
                },
                {
                    "name": "G3",
                    "midi": 55,
                    "time": 86.72411625000022,
                    "velocity": 0.2755905511811024,
                    "duration": 0.17241375000000403
                },
                {
                    "name": "B3",
                    "midi": 59,
                    "time": 86.89653000000023,
                    "velocity": 0.41732283464566927,
                    "duration": 0.17241374999998982
                },
                {
                    "name": "G3",
                    "midi": 55,
                    "time": 87.06894375000022,
                    "velocity": 0.30708661417322836,
                    "duration": 0.17241375000000403
                },
                {
                    "name": "B3",
                    "midi": 59,
                    "time": 87.24135750000022,
                    "velocity": 0.3700787401574803,
                    "duration": 0.17241375000000403
                },
                {
                    "name": "G3",
                    "midi": 55,
                    "time": 87.41377125000022,
                    "velocity": 0.28346456692913385,
                    "duration": 0.17241375000000403
                },
                {
                    "name": "B3",
                    "midi": 59,
                    "time": 87.58618500000023,
                    "velocity": 0.3464566929133858,
                    "duration": 0.17241375000000403
                },
                {
                    "name": "G3",
                    "midi": 55,
                    "time": 87.75859875000023,
                    "velocity": 0.3937007874015748,
                    "duration": 0.17241375000000403
                },
                {
                    "name": "B3",
                    "midi": 59,
                    "time": 87.93101250000024,
                    "velocity": 0.29133858267716534,
                    "duration": 0.17241375000000403
                },
                {
                    "name": "G3",
                    "midi": 55,
                    "time": 88.10342625000024,
                    "velocity": 0.3543307086614173,
                    "duration": 0.17241375000000403
                },
                {
                    "name": "C4",
                    "midi": 60,
                    "time": 88.27584000000024,
                    "velocity": 0.4645669291338583,
                    "duration": 0.17241374999998982
                },
                {
                    "name": "G3",
                    "midi": 55,
                    "time": 88.44825375000023,
                    "velocity": 0.3464566929133858,
                    "duration": 0.17241375000000403
                },
                {
                    "name": "C4",
                    "midi": 60,
                    "time": 88.62066750000024,
                    "velocity": 0.41732283464566927,
                    "duration": 0.17241375000000403
                },
                {
                    "name": "G3",
                    "midi": 55,
                    "time": 88.79308125000024,
                    "velocity": 0.33070866141732286,
                    "duration": 0.17241375000000403
                },
                {
                    "name": "C4",
                    "midi": 60,
                    "time": 88.96549500000025,
                    "velocity": 0.3937007874015748,
                    "duration": 0.17241375000000403
                },
                {
                    "name": "G3",
                    "midi": 55,
                    "time": 89.13790875000025,
                    "velocity": 0.3464566929133858,
                    "duration": 0.17241375000000403
                },
                {
                    "name": "C4",
                    "midi": 60,
                    "time": 89.31032250000025,
                    "velocity": 0.3937007874015748,
                    "duration": 0.17241375000000403
                },
                {
                    "name": "G3",
                    "midi": 55,
                    "time": 89.48273625000026,
                    "velocity": 0.36220472440944884,
                    "duration": 0.17241375000000403
                },
                {
                    "name": "A#3",
                    "midi": 58,
                    "time": 89.65515000000026,
                    "velocity": 0.48031496062992124,
                    "duration": 0.17241374999998982
                },
                {
                    "name": "F#3",
                    "midi": 54,
                    "time": 89.82756375000025,
                    "velocity": 0.3464566929133858,
                    "duration": 0.17241375000000403
                },
                {
                    "name": "A#3",
                    "midi": 58,
                    "time": 89.99997750000026,
                    "velocity": 0.4330708661417323,
                    "duration": 0.17241375000000403
                },
                {
                    "name": "F#3",
                    "midi": 54,
                    "time": 90.17239125000026,
                    "velocity": 0.3464566929133858,
                    "duration": 0.17241375000000403
                },
                {
                    "name": "A#3",
                    "midi": 58,
                    "time": 90.34480500000026,
                    "velocity": 0.4094488188976378,
                    "duration": 0.17241375000000403
                },
                {
                    "name": "F#3",
                    "midi": 54,
                    "time": 90.51721875000027,
                    "velocity": 0.2992125984251969,
                    "duration": 0.17241375000000403
                },
                {
                    "name": "A#3",
                    "midi": 58,
                    "time": 90.68963250000027,
                    "velocity": 0.3858267716535433,
                    "duration": 0.17241375000000403
                },
                {
                    "name": "F#3",
                    "midi": 54,
                    "time": 90.86204625000028,
                    "velocity": 0.31496062992125984,
                    "duration": 0.17241375000000403
                },
                {
                    "name": "A3",
                    "midi": 57,
                    "time": 91.03446000000028,
                    "velocity": 0.3464566929133858,
                    "duration": 0.17241375000000403
                },
                {
                    "name": "F3",
                    "midi": 53,
                    "time": 91.20687375000028,
                    "velocity": 0.25196850393700787,
                    "duration": 0.17241375000000403
                },
                {
                    "name": "A3",
                    "midi": 57,
                    "time": 91.37928750000029,
                    "velocity": 0.31496062992125984,
                    "duration": 0.17241375000000403
                },
                {
                    "name": "F3",
                    "midi": 53,
                    "time": 91.55170125000029,
                    "velocity": 0.2440944881889764,
                    "duration": 0.17241375000000403
                },
                {
                    "name": "A3",
                    "midi": 57,
                    "time": 91.7241150000003,
                    "velocity": 0.31496062992125984,
                    "duration": 0.17241375000000403
                },
                {
                    "name": "F3",
                    "midi": 53,
                    "time": 91.8965287500003,
                    "velocity": 0.2440944881889764,
                    "duration": 0.17241375000000403
                },
                {
                    "name": "A3",
                    "midi": 57,
                    "time": 92.0689425000003,
                    "velocity": 0.31496062992125984,
                    "duration": 0.17241375000000403
                },
                {
                    "name": "F3",
                    "midi": 53,
                    "time": 92.24135625000031,
                    "velocity": 0.2440944881889764,
                    "duration": 0.17241375000000403
                },
                {
                    "name": "A3",
                    "midi": 57,
                    "time": 92.41377000000031,
                    "velocity": 0.31496062992125984,
                    "duration": 0.17241375000000403
                },
                {
                    "name": "F3",
                    "midi": 53,
                    "time": 92.58618375000032,
                    "velocity": 0.25196850393700787,
                    "duration": 0.17241375000000403
                },
                {
                    "name": "A3",
                    "midi": 57,
                    "time": 92.75859750000032,
                    "velocity": 0.31496062992125984,
                    "duration": 0.17241375000000403
                },
                {
                    "name": "F3",
                    "midi": 53,
                    "time": 92.93101125000032,
                    "velocity": 0.25196850393700787,
                    "duration": 0.17241375000000403
                },
                {
                    "name": "A3",
                    "midi": 57,
                    "time": 93.10342500000033,
                    "velocity": 0.31496062992125984,
                    "duration": 0.17241375000000403
                },
                {
                    "name": "F3",
                    "midi": 53,
                    "time": 93.27583875000033,
                    "velocity": 0.25196850393700787,
                    "duration": 0.17241375000000403
                },
                {
                    "name": "A3",
                    "midi": 57,
                    "time": 93.44825250000034,
                    "velocity": 0.31496062992125984,
                    "duration": 0.17241375000000403
                },
                {
                    "name": "F3",
                    "midi": 53,
                    "time": 93.62066625000034,
                    "velocity": 0.25196850393700787,
                    "duration": 0.17241375000000403
                },
                {
                    "name": "A3",
                    "midi": 57,
                    "time": 93.79308000000034,
                    "velocity": 0.31496062992125984,
                    "duration": 0.17241375000000403
                },
                {
                    "name": "F3",
                    "midi": 53,
                    "time": 93.96549375000035,
                    "velocity": 0.25196850393700787,
                    "duration": 0.17241375000000403
                },
                {
                    "name": "A3",
                    "midi": 57,
                    "time": 94.13790750000035,
                    "velocity": 0.31496062992125984,
                    "duration": 0.17241375000000403
                },
                {
                    "name": "F3",
                    "midi": 53,
                    "time": 94.31032125000036,
                    "velocity": 0.25984251968503935,
                    "duration": 0.17241375000000403
                },
                {
                    "name": "A3",
                    "midi": 57,
                    "time": 94.48273500000036,
                    "velocity": 0.33070866141732286,
                    "duration": 0.17241375000000403
                },
                {
                    "name": "F3",
                    "midi": 53,
                    "time": 94.65514875000036,
                    "velocity": 0.2677165354330709,
                    "duration": 0.17241375000000403
                },
                {
                    "name": "A3",
                    "midi": 57,
                    "time": 94.82756250000037,
                    "velocity": 0.33858267716535434,
                    "duration": 0.17241375000000403
                },
                {
                    "name": "F3",
                    "midi": 53,
                    "time": 94.99997625000037,
                    "velocity": 0.2755905511811024,
                    "duration": 0.17241375000000403
                },
                {
                    "name": "A3",
                    "midi": 57,
                    "time": 95.17239000000038,
                    "velocity": 0.3779527559055118,
                    "duration": 0.17241374999998982
                },
                {
                    "name": "F#3",
                    "midi": 54,
                    "time": 95.34480375000037,
                    "velocity": 0.28346456692913385,
                    "duration": 0.17241375000000403
                },
                {
                    "name": "A3",
                    "midi": 57,
                    "time": 95.51721750000037,
                    "velocity": 0.3464566929133858,
                    "duration": 0.17241375000000403
                },
                {
                    "name": "F#3",
                    "midi": 54,
                    "time": 95.68963125000037,
                    "velocity": 0.25984251968503935,
                    "duration": 0.17241375000000403
                },
                {
                    "name": "A3",
                    "midi": 57,
                    "time": 95.86204500000038,
                    "velocity": 0.31496062992125984,
                    "duration": 0.17241375000000403
                },
                {
                    "name": "F#3",
                    "midi": 54,
                    "time": 96.03445875000038,
                    "velocity": 0.3543307086614173,
                    "duration": 0.17241375000000403
                },
                {
                    "name": "A3",
                    "midi": 57,
                    "time": 96.20687250000039,
                    "velocity": 0.2677165354330709,
                    "duration": 0.17241375000000403
                },
                {
                    "name": "F#3",
                    "midi": 54,
                    "time": 96.37928625000039,
                    "velocity": 0.31496062992125984,
                    "duration": 0.17241375000000403
                },
                {
                    "name": "A#3",
                    "midi": 58,
                    "time": 96.5517000000004,
                    "velocity": 0.3700787401574803,
                    "duration": 0.17241374999998982
                },
                {
                    "name": "G3",
                    "midi": 55,
                    "time": 96.72411375000038,
                    "velocity": 0.2677165354330709,
                    "duration": 0.17241375000000403
                },
                {
                    "name": "A#3",
                    "midi": 58,
                    "time": 96.89652750000039,
                    "velocity": 0.33858267716535434,
                    "duration": 0.17241375000000403
                },
                {
                    "name": "G3",
                    "midi": 55,
                    "time": 97.06894125000039,
                    "velocity": 0.2755905511811024,
                    "duration": 0.17241375000000403
                },
                {
                    "name": "A#3",
                    "midi": 58,
                    "time": 97.2413550000004,
                    "velocity": 0.31496062992125984,
                    "duration": 0.17241375000000403
                },
                {
                    "name": "G3",
                    "midi": 55,
                    "time": 97.4137687500004,
                    "velocity": 0.2755905511811024,
                    "duration": 0.17241375000000403
                },
                {
                    "name": "A#3",
                    "midi": 58,
                    "time": 97.5861825000004,
                    "velocity": 0.3464566929133858,
                    "duration": 0.17241375000000403
                },
                {
                    "name": "G3",
                    "midi": 55,
                    "time": 97.75859625000041,
                    "velocity": 0.31496062992125984,
                    "duration": 0.17241375000000403
                },
                {
                    "name": "G#3",
                    "midi": 56,
                    "time": 97.93101000000041,
                    "velocity": 0.3700787401574803,
                    "duration": 0.2298849999999959
                },
                {
                    "name": "F3",
                    "midi": 53,
                    "time": 98.1034237500004,
                    "velocity": 0.25984251968503935,
                    "duration": 0.17241375000000403
                },
                {
                    "name": "G#3",
                    "midi": 56,
                    "time": 98.2758375000004,
                    "velocity": 0.33858267716535434,
                    "duration": 0.17241375000000403
                },
                {
                    "name": "F3",
                    "midi": 53,
                    "time": 98.44825125000041,
                    "velocity": 0.2677165354330709,
                    "duration": 0.17241375000000403
                },
                {
                    "name": "G#3",
                    "midi": 56,
                    "time": 98.62066500000041,
                    "velocity": 0.33070866141732286,
                    "duration": 0.17241375000000403
                },
                {
                    "name": "F3",
                    "midi": 53,
                    "time": 98.79307875000042,
                    "velocity": 0.25984251968503935,
                    "duration": 0.17241375000000403
                },
                {
                    "name": "G#3",
                    "midi": 56,
                    "time": 98.96549250000042,
                    "velocity": 0.33070866141732286,
                    "duration": 0.17241375000000403
                },
                {
                    "name": "F3",
                    "midi": 53,
                    "time": 99.13790625000043,
                    "velocity": 0.2677165354330709,
                    "duration": 0.05747125000000608
                },
                {
                    "name": "D#3",
                    "midi": 51,
                    "time": 99.19537750000043,
                    "velocity": 0.25196850393700787,
                    "duration": 0.287356250000002
                },
                {
                    "name": "G3",
                    "midi": 55,
                    "time": 99.25284875000044,
                    "velocity": 0.3464566929133858,
                    "duration": 0.2298849999999959
                },
                {
                    "name": "D#3",
                    "midi": 51,
                    "time": 99.48273375000043,
                    "velocity": 0.25196850393700787,
                    "duration": 0.17241375000000403
                },
                {
                    "name": "G3",
                    "midi": 55,
                    "time": 99.65514750000044,
                    "velocity": 0.31496062992125984,
                    "duration": 0.17241375000000403
                },
                {
                    "name": "D#3",
                    "midi": 51,
                    "time": 99.82756125000044,
                    "velocity": 0.25196850393700787,
                    "duration": 0.17241375000000403
                },
                {
                    "name": "G3",
                    "midi": 55,
                    "time": 99.99997500000045,
                    "velocity": 0.33070866141732286,
                    "duration": 0.17241375000000403
                },
                {
                    "name": "D#3",
                    "midi": 51,
                    "time": 100.17238875000045,
                    "velocity": 0.25984251968503935,
                    "duration": 0.17241375000000403
                },
                {
                    "name": "G3",
                    "midi": 55,
                    "time": 100.34480250000045,
                    "velocity": 0.33858267716535434,
                    "duration": 0.17241375000000403
                },
                {
                    "name": "D#3",
                    "midi": 51,
                    "time": 100.51721625000046,
                    "velocity": 0.25984251968503935,
                    "duration": 0.17241375000000403
                },
                {
                    "name": "G3",
                    "midi": 55,
                    "time": 100.68963000000046,
                    "velocity": 0.3464566929133858,
                    "duration": 0.17241375000000403
                },
                {
                    "name": "D#3",
                    "midi": 51,
                    "time": 100.86204375000047,
                    "velocity": 0.2755905511811024,
                    "duration": 0.17241375000000403
                },
                {
                    "name": "G3",
                    "midi": 55,
                    "time": 101.03445750000047,
                    "velocity": 0.3543307086614173,
                    "duration": 0.17241375000000403
                },
                {
                    "name": "D#3",
                    "midi": 51,
                    "time": 101.20687125000048,
                    "velocity": 0.28346456692913385,
                    "duration": 0.17241375000000403
                },
                {
                    "name": "G3",
                    "midi": 55,
                    "time": 101.37928500000048,
                    "velocity": 0.3543307086614173,
                    "duration": 0.17241375000000403
                },
                {
                    "name": "D#3",
                    "midi": 51,
                    "time": 101.55169875000048,
                    "velocity": 0.28346456692913385,
                    "duration": 0.17241375000000403
                },
                {
                    "name": "G3",
                    "midi": 55,
                    "time": 101.72411250000049,
                    "velocity": 0.36220472440944884,
                    "duration": 0.17241375000000403
                },
                {
                    "name": "D#3",
                    "midi": 51,
                    "time": 101.89652625000049,
                    "velocity": 0.29133858267716534,
                    "duration": 0.17241375000000403
                },
                {
                    "name": "G3",
                    "midi": 55,
                    "time": 102.0689400000005,
                    "velocity": 0.3779527559055118,
                    "duration": 0.17241375000000403
                },
                {
                    "name": "D#3",
                    "midi": 51,
                    "time": 102.2413537500005,
                    "velocity": 0.2992125984251969,
                    "duration": 0.17241375000000403
                },
                {
                    "name": "G3",
                    "midi": 55,
                    "time": 102.4137675000005,
                    "velocity": 0.3779527559055118,
                    "duration": 0.17241375000000403
                },
                {
                    "name": "D#3",
                    "midi": 51,
                    "time": 102.58618125000051,
                    "velocity": 0.30708661417322836,
                    "duration": 0.17241375000000403
                },
                {
                    "name": "G3",
                    "midi": 55,
                    "time": 102.75859500000051,
                    "velocity": 0.3937007874015748,
                    "duration": 0.17241375000000403
                },
                {
                    "name": "D#3",
                    "midi": 51,
                    "time": 102.93100875000052,
                    "velocity": 0.31496062992125984,
                    "duration": 0.17241375000000403
                },
                {
                    "name": "G3",
                    "midi": 55,
                    "time": 103.10342250000052,
                    "velocity": 0.4015748031496063,
                    "duration": 0.17241375000000403
                },
                {
                    "name": "D#3",
                    "midi": 51,
                    "time": 103.27583625000052,
                    "velocity": 0.3228346456692913,
                    "duration": 0.17241375000000403
                },
                {
                    "name": "G3",
                    "midi": 55,
                    "time": 103.44825000000053,
                    "velocity": 0.44881889763779526,
                    "duration": 0.17241374999998982
                },
                {
                    "name": "E3",
                    "midi": 52,
                    "time": 103.62066375000052,
                    "velocity": 0.30708661417322836,
                    "duration": 0.17241375000000403
                },
                {
                    "name": "G3",
                    "midi": 55,
                    "time": 103.79307750000052,
                    "velocity": 0.4015748031496063,
                    "duration": 0.17241375000000403
                },
                {
                    "name": "E3",
                    "midi": 52,
                    "time": 103.96549125000053,
                    "velocity": 0.28346456692913385,
                    "duration": 0.17241375000000403
                },
                {
                    "name": "G3",
                    "midi": 55,
                    "time": 104.13790500000053,
                    "velocity": 0.3464566929133858,
                    "duration": 0.17241375000000403
                },
                {
                    "name": "E3",
                    "midi": 52,
                    "time": 104.31031875000053,
                    "velocity": 0.3779527559055118,
                    "duration": 0.17241375000000403
                },
                {
                    "name": "G3",
                    "midi": 55,
                    "time": 104.48273250000054,
                    "velocity": 0.28346456692913385,
                    "duration": 0.17241375000000403
                },
                {
                    "name": "E3",
                    "midi": 52,
                    "time": 104.65514625000054,
                    "velocity": 0.33858267716535434,
                    "duration": 0.17241375000000403
                },
                {
                    "name": "G3",
                    "midi": 55,
                    "time": 104.82756000000055,
                    "velocity": 0.4094488188976378,
                    "duration": 0.2298849999999959
                },
                {
                    "name": "E3",
                    "midi": 52,
                    "time": 104.99997375000054,
                    "velocity": 0.28346456692913385,
                    "duration": 0.17241375000000403
                },
                {
                    "name": "G3",
                    "midi": 55,
                    "time": 105.17238750000054,
                    "velocity": 0.3543307086614173,
                    "duration": 0.17241375000000403
                },
                {
                    "name": "E3",
                    "midi": 52,
                    "time": 105.34480125000054,
                    "velocity": 0.28346456692913385,
                    "duration": 0.17241375000000403
                },
                {
                    "name": "G3",
                    "midi": 55,
                    "time": 105.51721500000055,
                    "velocity": 0.3464566929133858,
                    "duration": 0.17241375000000403
                },
                {
                    "name": "E3",
                    "midi": 52,
                    "time": 105.68962875000055,
                    "velocity": 0.2992125984251969,
                    "duration": 0.17241375000000403
                },
                {
                    "name": "G3",
                    "midi": 55,
                    "time": 105.86204250000056,
                    "velocity": 0.3543307086614173,
                    "duration": 0.17241375000000403
                },
                {
                    "name": "E3",
                    "midi": 52,
                    "time": 106.03445625000056,
                    "velocity": 0.3228346456692913,
                    "duration": 0.17241375000000403
                },
                {
                    "name": "G3",
                    "midi": 55,
                    "time": 106.20687000000056,
                    "velocity": 0.4094488188976378,
                    "duration": 0.17241374999998982
                },
                {
                    "name": "E3",
                    "midi": 52,
                    "time": 106.37928375000055,
                    "velocity": 0.2677165354330709,
                    "duration": 0.17241375000000403
                },
                {
                    "name": "G3",
                    "midi": 55,
                    "time": 106.55169750000056,
                    "velocity": 0.3464566929133858,
                    "duration": 0.17241375000000403
                },
                {
                    "name": "E3",
                    "midi": 52,
                    "time": 106.72411125000056,
                    "velocity": 0.2755905511811024,
                    "duration": 0.17241375000000403
                },
                {
                    "name": "G3",
                    "midi": 55,
                    "time": 106.89652500000057,
                    "velocity": 0.33070866141732286,
                    "duration": 0.17241375000000403
                },
                {
                    "name": "E3",
                    "midi": 52,
                    "time": 107.06893875000057,
                    "velocity": 0.25984251968503935,
                    "duration": 0.17241375000000403
                },
                {
                    "name": "G3",
                    "midi": 55,
                    "time": 107.24135250000057,
                    "velocity": 0.33070866141732286,
                    "duration": 0.17241375000000403
                },
                {
                    "name": "E3",
                    "midi": 52,
                    "time": 107.41376625000058,
                    "velocity": 0.25984251968503935,
                    "duration": 0.17241375000000403
                },
                {
                    "name": "A3",
                    "midi": 57,
                    "time": 107.58618000000058,
                    "velocity": 0.36220472440944884,
                    "duration": 0.17241375000000403
                },
                {
                    "name": "F3",
                    "midi": 53,
                    "time": 107.75859375000059,
                    "velocity": 0.29133858267716534,
                    "duration": 0.17241375000000403
                },
                {
                    "name": "A3",
                    "midi": 57,
                    "time": 107.93100750000059,
                    "velocity": 0.36220472440944884,
                    "duration": 0.17241375000000403
                },
                {
                    "name": "F3",
                    "midi": 53,
                    "time": 108.1034212500006,
                    "velocity": 0.28346456692913385,
                    "duration": 0.17241375000000403
                },
                {
                    "name": "A3",
                    "midi": 57,
                    "time": 108.2758350000006,
                    "velocity": 0.3543307086614173,
                    "duration": 0.17241375000000403
                },
                {
                    "name": "F3",
                    "midi": 53,
                    "time": 108.4482487500006,
                    "velocity": 0.2677165354330709,
                    "duration": 0.17241375000000403
                },
                {
                    "name": "A3",
                    "midi": 57,
                    "time": 108.6206625000006,
                    "velocity": 0.3543307086614173,
                    "duration": 0.17241375000000403
                },
                {
                    "name": "F3",
                    "midi": 53,
                    "time": 108.79307625000061,
                    "velocity": 0.28346456692913385,
                    "duration": 0.05747125000000608
                },
                {
                    "name": "D#3",
                    "midi": 51,
                    "time": 108.85054750000062,
                    "velocity": 0.28346456692913385,
                    "duration": 0.287356250000002
                },
                {
                    "name": "A3",
                    "midi": 57,
                    "time": 108.90801875000062,
                    "velocity": 0.3543307086614173,
                    "duration": 0.2298849999999959
                },
                {
                    "name": "D#3",
                    "midi": 51,
                    "time": 109.13790375000062,
                    "velocity": 0.2992125984251969,
                    "duration": 0.17241375000000403
                },
                {
                    "name": "A3",
                    "midi": 57,
                    "time": 109.31031750000062,
                    "velocity": 0.3700787401574803,
                    "duration": 0.17241375000000403
                },
                {
                    "name": "D#3",
                    "midi": 51,
                    "time": 109.48273125000063,
                    "velocity": 0.3464566929133858,
                    "duration": 0.17241375000000403
                },
                {
                    "name": "A3",
                    "midi": 57,
                    "time": 109.65514500000063,
                    "velocity": 0.3779527559055118,
                    "duration": 0.17241375000000403
                },
                {
                    "name": "D#3",
                    "midi": 51,
                    "time": 109.82755875000063,
                    "velocity": 0.2992125984251969,
                    "duration": 0.17241375000000403
                },
                {
                    "name": "A3",
                    "midi": 57,
                    "time": 109.99997250000064,
                    "velocity": 0.3543307086614173,
                    "duration": 0.17241375000000403
                },
                {
                    "name": "D#3",
                    "midi": 51,
                    "time": 110.17238625000064,
                    "velocity": 0.29133858267716534,
                    "duration": 0.05747125000000608
                },
                {
                    "name": "D3",
                    "midi": 50,
                    "time": 110.22985750000065,
                    "velocity": 0.31496062992125984,
                    "duration": 0.287356250000002
                },
                {
                    "name": "A#3",
                    "midi": 58,
                    "time": 110.28732875000065,
                    "velocity": 0.36220472440944884,
                    "duration": 0.2298849999999959
                },
                {
                    "name": "D3",
                    "midi": 50,
                    "time": 110.51721375000065,
                    "velocity": 0.2992125984251969,
                    "duration": 0.17241374999998982
                },
                {
                    "name": "A#3",
                    "midi": 58,
                    "time": 110.68962750000064,
                    "velocity": 0.36220472440944884,
                    "duration": 0.17241375000000403
                },
                {
                    "name": "D3",
                    "midi": 50,
                    "time": 110.86204125000064,
                    "velocity": 0.2992125984251969,
                    "duration": 0.17241375000000403
                },
                {
                    "name": "A#3",
                    "midi": 58,
                    "time": 111.03445500000065,
                    "velocity": 0.3700787401574803,
                    "duration": 0.17241375000000403
                },
                {
                    "name": "D3",
                    "midi": 50,
                    "time": 111.20686875000065,
                    "velocity": 0.30708661417322836,
                    "duration": 0.17241375000000403
                },
                {
                    "name": "A#3",
                    "midi": 58,
                    "time": 111.37928250000066,
                    "velocity": 0.3700787401574803,
                    "duration": 0.17241375000000403
                },
                {
                    "name": "D3",
                    "midi": 50,
                    "time": 111.55169625000066,
                    "velocity": 0.30708661417322836,
                    "duration": 0.05747125000000608
                },
                {
                    "name": "F#3",
                    "midi": 54,
                    "time": 111.60916750000067,
                    "velocity": 0.33070866141732286,
                    "duration": 0.287356250000002
                },
                {
                    "name": "A3",
                    "midi": 57,
                    "time": 111.66663875000067,
                    "velocity": 0.3700787401574803,
                    "duration": 0.2298849999999959
                },
                {
                    "name": "F#3",
                    "midi": 54,
                    "time": 111.89652375000067,
                    "velocity": 0.30708661417322836,
                    "duration": 0.17241375000000403
                },
                {
                    "name": "A3",
                    "midi": 57,
                    "time": 112.06893750000067,
                    "velocity": 0.3779527559055118,
                    "duration": 0.17241375000000403
                },
                {
                    "name": "F#3",
                    "midi": 54,
                    "time": 112.24135125000068,
                    "velocity": 0.30708661417322836,
                    "duration": 0.17241375000000403
                },
                {
                    "name": "A3",
                    "midi": 57,
                    "time": 112.41376500000068,
                    "velocity": 0.3779527559055118,
                    "duration": 0.17241375000000403
                },
                {
                    "name": "F#3",
                    "midi": 54,
                    "time": 112.58617875000068,
                    "velocity": 0.31496062992125984,
                    "duration": 0.17241375000000403
                },
                {
                    "name": "A3",
                    "midi": 57,
                    "time": 112.75859250000069,
                    "velocity": 0.3858267716535433,
                    "duration": 0.17241375000000403
                },
                {
                    "name": "F#3",
                    "midi": 54,
                    "time": 112.93100625000069,
                    "velocity": 0.31496062992125984,
                    "duration": 0.05747125000000608
                },
                {
                    "name": "F3",
                    "midi": 53,
                    "time": 112.9884775000007,
                    "velocity": 0.33858267716535434,
                    "duration": 0.287356250000002
                },
                {
                    "name": "A#3",
                    "midi": 58,
                    "time": 113.0459487500007,
                    "velocity": 0.3858267716535433,
                    "duration": 0.2298849999999959
                },
                {
                    "name": "F3",
                    "midi": 53,
                    "time": 113.2758337500007,
                    "velocity": 0.31496062992125984,
                    "duration": 0.17241374999998982
                },
                {
                    "name": "A#3",
                    "midi": 58,
                    "time": 113.44824750000069,
                    "velocity": 0.3937007874015748,
                    "duration": 0.17241375000000403
                },
                {
                    "name": "F3",
                    "midi": 53,
                    "time": 113.6206612500007,
                    "velocity": 0.31496062992125984,
                    "duration": 0.17241375000000403
                },
                {
                    "name": "A#3",
                    "midi": 58,
                    "time": 113.7930750000007,
                    "velocity": 0.3937007874015748,
                    "duration": 0.17241375000000403
                },
                {
                    "name": "F3",
                    "midi": 53,
                    "time": 113.9654887500007,
                    "velocity": 0.3228346456692913,
                    "duration": 0.17241375000000403
                },
                {
                    "name": "A#3",
                    "midi": 58,
                    "time": 114.1379025000007,
                    "velocity": 0.4015748031496063,
                    "duration": 0.17241375000000403
                },
                {
                    "name": "F3",
                    "midi": 53,
                    "time": 114.31031625000071,
                    "velocity": 0.33070866141732286,
                    "duration": 0.05747125000000608
                },
                {
                    "name": "D#3",
                    "midi": 51,
                    "time": 114.36778750000072,
                    "velocity": 0.3464566929133858,
                    "duration": 0.287356250000002
                },
                {
                    "name": "A3",
                    "midi": 57,
                    "time": 114.42525875000072,
                    "velocity": 0.4015748031496063,
                    "duration": 0.2298849999999959
                },
                {
                    "name": "D#3",
                    "midi": 51,
                    "time": 114.65514375000072,
                    "velocity": 0.3464566929133858,
                    "duration": 0.17241375000000403
                },
                {
                    "name": "A3",
                    "midi": 57,
                    "time": 114.82755750000072,
                    "velocity": 0.4094488188976378,
                    "duration": 0.17241375000000403
                },
                {
                    "name": "D#3",
                    "midi": 51,
                    "time": 114.99997125000073,
                    "velocity": 0.33858267716535434,
                    "duration": 0.17241375000000403
                },
                {
                    "name": "A3",
                    "midi": 57,
                    "time": 115.17238500000073,
                    "velocity": 0.4094488188976378,
                    "duration": 0.17241375000000403
                },
                {
                    "name": "D#3",
                    "midi": 51,
                    "time": 115.34479875000073,
                    "velocity": 0.33858267716535434,
                    "duration": 0.17241375000000403
                },
                {
                    "name": "A3",
                    "midi": 57,
                    "time": 115.51721250000074,
                    "velocity": 0.41732283464566927,
                    "duration": 0.17241375000000403
                },
                {
                    "name": "D#3",
                    "midi": 51,
                    "time": 115.68962625000074,
                    "velocity": 0.33858267716535434,
                    "duration": 0.05747125000000608
                },
                {
                    "name": "D3",
                    "midi": 50,
                    "time": 115.74709750000075,
                    "velocity": 0.36220472440944884,
                    "duration": 0.287356250000002
                },
                {
                    "name": "A#3",
                    "midi": 58,
                    "time": 115.80456875000075,
                    "velocity": 0.41732283464566927,
                    "duration": 0.2298849999999959
                },
                {
                    "name": "D3",
                    "midi": 50,
                    "time": 116.03445375000075,
                    "velocity": 0.3464566929133858,
                    "duration": 0.17241375000000403
                },
                {
                    "name": "A#3",
                    "midi": 58,
                    "time": 116.20686750000075,
                    "velocity": 0.4094488188976378,
                    "duration": 0.17241375000000403
                },
                {
                    "name": "D3",
                    "midi": 50,
                    "time": 116.37928125000076,
                    "velocity": 0.33858267716535434,
                    "duration": 0.17241375000000403
                },
                {
                    "name": "A#3",
                    "midi": 58,
                    "time": 116.55169500000076,
                    "velocity": 0.4094488188976378,
                    "duration": 0.17241375000000403
                },
                {
                    "name": "D3",
                    "midi": 50,
                    "time": 116.72410875000077,
                    "velocity": 0.3464566929133858,
                    "duration": 0.17241375000000403
                },
                {
                    "name": "A#3",
                    "midi": 58,
                    "time": 116.89652250000077,
                    "velocity": 0.4094488188976378,
                    "duration": 0.17241375000000403
                },
                {
                    "name": "D3",
                    "midi": 50,
                    "time": 117.06893625000077,
                    "velocity": 0.3464566929133858,
                    "duration": 0.17241375000000403
                },
                {
                    "name": "A#3",
                    "midi": 58,
                    "time": 117.24135000000078,
                    "velocity": 0.4094488188976378,
                    "duration": 0.17241375000000403
                },
                {
                    "name": "D3",
                    "midi": 50,
                    "time": 117.41376375000078,
                    "velocity": 0.3464566929133858,
                    "duration": 0.17241375000000403
                },
                {
                    "name": "A#3",
                    "midi": 58,
                    "time": 117.58617750000079,
                    "velocity": 0.4094488188976378,
                    "duration": 0.17241375000000403
                },
                {
                    "name": "D3",
                    "midi": 50,
                    "time": 117.75859125000079,
                    "velocity": 0.3464566929133858,
                    "duration": 0.17241375000000403
                },
                {
                    "name": "A#3",
                    "midi": 58,
                    "time": 117.9310050000008,
                    "velocity": 0.4094488188976378,
                    "duration": 0.17241375000000403
                },
                {
                    "name": "D3",
                    "midi": 50,
                    "time": 118.1034187500008,
                    "velocity": 0.3543307086614173,
                    "duration": 0.17241375000000403
                },
                {
                    "name": "A#3",
                    "midi": 58,
                    "time": 118.2758325000008,
                    "velocity": 0.4094488188976378,
                    "duration": 0.17241375000000403
                },
                {
                    "name": "D3",
                    "midi": 50,
                    "time": 118.4482462500008,
                    "velocity": 0.3543307086614173,
                    "duration": 0.05747125000000608
                },
                {
                    "name": "D#3",
                    "midi": 51,
                    "time": 118.50571750000081,
                    "velocity": 0.3779527559055118,
                    "duration": 0.2873562500000162
                },
                {
                    "name": "A#3",
                    "midi": 58,
                    "time": 118.56318875000082,
                    "velocity": 0.41732283464566927,
                    "duration": 0.2298850000000101
                },
                {
                    "name": "D#3",
                    "midi": 51,
                    "time": 118.79307375000083,
                    "velocity": 0.3543307086614173,
                    "duration": 0.17241375000000403
                },
                {
                    "name": "A#3",
                    "midi": 58,
                    "time": 118.96548750000083,
                    "velocity": 0.41732283464566927,
                    "duration": 0.17241375000000403
                },
                {
                    "name": "D#3",
                    "midi": 51,
                    "time": 119.13790125000084,
                    "velocity": 0.3543307086614173,
                    "duration": 0.17241375000000403
                },
                {
                    "name": "A#3",
                    "midi": 58,
                    "time": 119.31031500000084,
                    "velocity": 0.4094488188976378,
                    "duration": 0.17241375000000403
                },
                {
                    "name": "D#3",
                    "midi": 51,
                    "time": 119.48272875000085,
                    "velocity": 0.3543307086614173,
                    "duration": 0.17241375000000403
                },
                {
                    "name": "A#3",
                    "midi": 58,
                    "time": 119.65514250000085,
                    "velocity": 0.4251968503937008,
                    "duration": 0.17241375000000403
                },
                {
                    "name": "D#3",
                    "midi": 51,
                    "time": 119.82755625000085,
                    "velocity": 0.36220472440944884,
                    "duration": 0.17241375000000403
                },
                {
                    "name": "C#4",
                    "midi": 61,
                    "time": 119.99997000000086,
                    "velocity": 0.4251968503937008,
                    "duration": 0.17241375000000403
                },
                {
                    "name": "A#3",
                    "midi": 58,
                    "time": 119.99997000000086,
                    "velocity": 0.4251968503937008,
                    "duration": 0.17241375000000403
                },
                {
                    "name": "E3",
                    "midi": 52,
                    "time": 120.17238375000086,
                    "velocity": 0.3700787401574803,
                    "duration": 0.17241375000000403
                },
                {
                    "name": "C#4",
                    "midi": 61,
                    "time": 120.34479750000087,
                    "velocity": 0.4330708661417323,
                    "duration": 0.17241375000000403
                },
                {
                    "name": "A#3",
                    "midi": 58,
                    "time": 120.34479750000087,
                    "velocity": 0.4330708661417323,
                    "duration": 0.17241375000000403
                },
                {
                    "name": "E3",
                    "midi": 52,
                    "time": 120.51721125000087,
                    "velocity": 0.3700787401574803,
                    "duration": 0.17241375000000403
                },
                {
                    "name": "C#4",
                    "midi": 61,
                    "time": 120.68962500000087,
                    "velocity": 0.4409448818897638,
                    "duration": 0.17241375000000403
                },
                {
                    "name": "A#3",
                    "midi": 58,
                    "time": 120.68962500000087,
                    "velocity": 0.4409448818897638,
                    "duration": 0.17241375000000403
                },
                {
                    "name": "E3",
                    "midi": 52,
                    "time": 120.86203875000088,
                    "velocity": 0.3700787401574803,
                    "duration": 0.17241375000000403
                },
                {
                    "name": "C#4",
                    "midi": 61,
                    "time": 121.03445250000088,
                    "velocity": 0.44881889763779526,
                    "duration": 0.17241375000000403
                },
                {
                    "name": "A#3",
                    "midi": 58,
                    "time": 121.03445250000088,
                    "velocity": 0.44881889763779526,
                    "duration": 0.17241375000000403
                },
                {
                    "name": "E3",
                    "midi": 52,
                    "time": 121.20686625000089,
                    "velocity": 0.3779527559055118,
                    "duration": 0.17241375000000403
                },
                {
                    "name": "A#3",
                    "midi": 58,
                    "time": 126.89652000000089,
                    "velocity": 0.4409448818897638,
                    "duration": 0.17241374999998982
                },
                {
                    "name": "D3",
                    "midi": 50,
                    "time": 127.06893375000088,
                    "velocity": 0.36220472440944884,
                    "duration": 0.17241375000000403
                },
                {
                    "name": "A#3",
                    "midi": 58,
                    "time": 127.24134750000088,
                    "velocity": 0.4330708661417323,
                    "duration": 0.17241375000000403
                },
                {
                    "name": "D3",
                    "midi": 50,
                    "time": 127.41376125000089,
                    "velocity": 0.3543307086614173,
                    "duration": 0.17241375000000403
                },
                {
                    "name": "A#3",
                    "midi": 58,
                    "time": 127.58617500000089,
                    "velocity": 0.4330708661417323,
                    "duration": 0.17241375000000403
                },
                {
                    "name": "D3",
                    "midi": 50,
                    "time": 127.7585887500009,
                    "velocity": 0.3543307086614173,
                    "duration": 0.17241375000000403
                },
                {
                    "name": "A#3",
                    "midi": 58,
                    "time": 127.9310025000009,
                    "velocity": 0.4251968503937008,
                    "duration": 0.17241374999998982
                },
                {
                    "name": "D3",
                    "midi": 50,
                    "time": 128.1034162500009,
                    "velocity": 0.3543307086614173,
                    "duration": 0.17241375000000403
                },
                {
                    "name": "B3",
                    "midi": 59,
                    "time": 128.2758300000009,
                    "velocity": 0.4251968503937008,
                    "duration": 0.1724137499999756
                },
                {
                    "name": "D3",
                    "midi": 50,
                    "time": 128.44824375000087,
                    "velocity": 0.3464566929133858,
                    "duration": 0.17241375000000403
                },
                {
                    "name": "B3",
                    "midi": 59,
                    "time": 128.62065750000087,
                    "velocity": 0.4251968503937008,
                    "duration": 0.17241375000000403
                },
                {
                    "name": "D3",
                    "midi": 50,
                    "time": 128.79307125000088,
                    "velocity": 0.3464566929133858,
                    "duration": 0.17241375000000403
                },
                {
                    "name": "B3",
                    "midi": 59,
                    "time": 128.96548500000088,
                    "velocity": 0.41732283464566927,
                    "duration": 0.17241375000000403
                },
                {
                    "name": "D3",
                    "midi": 50,
                    "time": 129.1378987500009,
                    "velocity": 0.3464566929133858,
                    "duration": 0.17241375000000403
                },
                {
                    "name": "B3",
                    "midi": 59,
                    "time": 129.3103125000009,
                    "velocity": 0.4094488188976378,
                    "duration": 0.17241375000000403
                },
                {
                    "name": "D3",
                    "midi": 50,
                    "time": 129.4827262500009,
                    "velocity": 0.33858267716535434,
                    "duration": 0.17241375000000403
                },
                {
                    "name": "C4",
                    "midi": 60,
                    "time": 129.6551400000009,
                    "velocity": 0.4094488188976378,
                    "duration": 0.17241375000003245
                },
                {
                    "name": "D#3",
                    "midi": 51,
                    "time": 129.82755375000093,
                    "velocity": 0.33858267716535434,
                    "duration": 0.17241375000000403
                },
                {
                    "name": "C4",
                    "midi": 60,
                    "time": 129.99996750000093,
                    "velocity": 0.4015748031496063,
                    "duration": 0.17241375000000403
                },
                {
                    "name": "D#3",
                    "midi": 51,
                    "time": 130.17238125000094,
                    "velocity": 0.33070866141732286,
                    "duration": 0.17241375000000403
                },
                {
                    "name": "C4",
                    "midi": 60,
                    "time": 130.34479500000094,
                    "velocity": 0.3937007874015748,
                    "duration": 0.17241375000000403
                },
                {
                    "name": "D#3",
                    "midi": 51,
                    "time": 130.51720875000095,
                    "velocity": 0.3228346456692913,
                    "duration": 0.17241375000000403
                },
                {
                    "name": "C4",
                    "midi": 60,
                    "time": 130.68962250000095,
                    "velocity": 0.3937007874015748,
                    "duration": 0.17241375000000403
                },
                {
                    "name": "D#3",
                    "midi": 51,
                    "time": 130.86203625000095,
                    "velocity": 0.3228346456692913,
                    "duration": 0.17241375000000403
                },
                {
                    "name": "A3",
                    "midi": 57,
                    "time": 131.03445000000096,
                    "velocity": 0.3937007874015748,
                    "duration": 0.17241375000000403
                },
                {
                    "name": "C3",
                    "midi": 48,
                    "time": 131.20686375000096,
                    "velocity": 0.31496062992125984,
                    "duration": 0.17241375000000403
                },
                {
                    "name": "A3",
                    "midi": 57,
                    "time": 131.37927750000097,
                    "velocity": 0.3858267716535433,
                    "duration": 0.17241375000000403
                },
                {
                    "name": "C3",
                    "midi": 48,
                    "time": 131.55169125000097,
                    "velocity": 0.31496062992125984,
                    "duration": 0.17241375000000403
                },
                {
                    "name": "A3",
                    "midi": 57,
                    "time": 131.72410500000097,
                    "velocity": 0.3779527559055118,
                    "duration": 0.17241375000000403
                },
                {
                    "name": "C3",
                    "midi": 48,
                    "time": 131.89651875000098,
                    "velocity": 0.30708661417322836,
                    "duration": 0.17241375000000403
                },
                {
                    "name": "A3",
                    "midi": 57,
                    "time": 132.06893250000098,
                    "velocity": 0.3700787401574803,
                    "duration": 0.17241375000000403
                },
                {
                    "name": "C3",
                    "midi": 48,
                    "time": 132.241346250001,
                    "velocity": 0.30708661417322836,
                    "duration": 0.17241375000000403
                },
                {
                    "name": "D3",
                    "midi": 50,
                    "time": 132.413760000001,
                    "velocity": 0.31496062992125984,
                    "duration": 0.17241375000000403
                },
                {
                    "name": "F3",
                    "midi": 53,
                    "time": 132.586173750001,
                    "velocity": 0.25196850393700787,
                    "duration": 0.17241375000000403
                },
                {
                    "name": "D3",
                    "midi": 50,
                    "time": 132.758587500001,
                    "velocity": 0.31496062992125984,
                    "duration": 0.17241375000000403
                },
                {
                    "name": "F3",
                    "midi": 53,
                    "time": 132.931001250001,
                    "velocity": 0.25196850393700787,
                    "duration": 0.17241375000000403
                },
                {
                    "name": "D3",
                    "midi": 50,
                    "time": 133.103415000001,
                    "velocity": 0.33070866141732286,
                    "duration": 0.17241375000000403
                },
                {
                    "name": "F3",
                    "midi": 53,
                    "time": 133.275828750001,
                    "velocity": 0.2677165354330709,
                    "duration": 0.17241375000000403
                },
                {
                    "name": "D3",
                    "midi": 50,
                    "time": 133.44824250000102,
                    "velocity": 0.3464566929133858,
                    "duration": 0.17241375000000403
                },
                {
                    "name": "F3",
                    "midi": 53,
                    "time": 133.62065625000102,
                    "velocity": 0.2677165354330709,
                    "duration": 0.17241375000000403
                },
                {
                    "name": "D3",
                    "midi": 50,
                    "time": 133.79307000000102,
                    "velocity": 0.3464566929133858,
                    "duration": 0.17241375000000403
                },
                {
                    "name": "F3",
                    "midi": 53,
                    "time": 133.96548375000103,
                    "velocity": 0.25196850393700787,
                    "duration": 0.17241375000000403
                },
                {
                    "name": "D3",
                    "midi": 50,
                    "time": 134.13789750000103,
                    "velocity": 0.33858267716535434,
                    "duration": 0.17241375000000403
                },
                {
                    "name": "F3",
                    "midi": 53,
                    "time": 134.31031125000104,
                    "velocity": 0.2755905511811024,
                    "duration": 0.17241375000000403
                },
                {
                    "name": "D3",
                    "midi": 50,
                    "time": 134.48272500000104,
                    "velocity": 0.3543307086614173,
                    "duration": 0.17241375000000403
                },
                {
                    "name": "F3",
                    "midi": 53,
                    "time": 134.65513875000104,
                    "velocity": 0.2755905511811024,
                    "duration": 0.17241375000000403
                },
                {
                    "name": "D3",
                    "midi": 50,
                    "time": 134.82755250000105,
                    "velocity": 0.36220472440944884,
                    "duration": 0.17241375000000403
                },
                {
                    "name": "F3",
                    "midi": 53,
                    "time": 134.99996625000105,
                    "velocity": 0.2755905511811024,
                    "duration": 0.17241375000000403
                },
                {
                    "name": "D3",
                    "midi": 50,
                    "time": 135.17238000000106,
                    "velocity": 0.3700787401574803,
                    "duration": 0.17241375000000403
                },
                {
                    "name": "F3",
                    "midi": 53,
                    "time": 135.34479375000106,
                    "velocity": 0.28346456692913385,
                    "duration": 0.17241375000000403
                },
                {
                    "name": "D3",
                    "midi": 50,
                    "time": 135.51720750000106,
                    "velocity": 0.3543307086614173,
                    "duration": 0.17241375000000403
                },
                {
                    "name": "F3",
                    "midi": 53,
                    "time": 135.68962125000107,
                    "velocity": 0.2677165354330709,
                    "duration": 0.17241375000000403
                },
                {
                    "name": "D3",
                    "midi": 50,
                    "time": 135.86203500000107,
                    "velocity": 0.3543307086614173,
                    "duration": 0.17241375000000403
                },
                {
                    "name": "F3",
                    "midi": 53,
                    "time": 136.03444875000108,
                    "velocity": 0.2677165354330709,
                    "duration": 0.17241375000000403
                },
                {
                    "name": "D3",
                    "midi": 50,
                    "time": 136.20686250000108,
                    "velocity": 0.3543307086614173,
                    "duration": 0.17241375000000403
                },
                {
                    "name": "F3",
                    "midi": 53,
                    "time": 136.37927625000108,
                    "velocity": 0.2677165354330709,
                    "duration": 0.17241375000000403
                },
                {
                    "name": "G#3",
                    "midi": 56,
                    "time": 136.5516900000011,
                    "velocity": 0.3543307086614173,
                    "duration": 0.17241375000003245
                },
                {
                    "name": "F3",
                    "midi": 53,
                    "time": 136.72410375000112,
                    "velocity": 0.28346456692913385,
                    "duration": 0.17241375000000403
                },
                {
                    "name": "G#3",
                    "midi": 56,
                    "time": 136.89651750000112,
                    "velocity": 0.3464566929133858,
                    "duration": 0.17241375000000403
                },
                {
                    "name": "F3",
                    "midi": 53,
                    "time": 137.06893125000113,
                    "velocity": 0.25196850393700787,
                    "duration": 0.17241375000000403
                },
                {
                    "name": "G#3",
                    "midi": 56,
                    "time": 137.24134500000113,
                    "velocity": 0.3464566929133858,
                    "duration": 0.17241375000000403
                },
                {
                    "name": "F3",
                    "midi": 53,
                    "time": 137.41375875000114,
                    "velocity": 0.28346456692913385,
                    "duration": 0.17241375000000403
                },
                {
                    "name": "G#3",
                    "midi": 56,
                    "time": 137.58617250000114,
                    "velocity": 0.3464566929133858,
                    "duration": 0.17241375000000403
                },
                {
                    "name": "F3",
                    "midi": 53,
                    "time": 137.75858625000114,
                    "velocity": 0.2755905511811024,
                    "duration": 0.17241375000000403
                },
                {
                    "name": "G3",
                    "midi": 55,
                    "time": 137.93100000000115,
                    "velocity": 0.36220472440944884,
                    "duration": 0.17241375000000403
                },
                {
                    "name": "D#3",
                    "midi": 51,
                    "time": 138.10341375000115,
                    "velocity": 0.2992125984251969,
                    "duration": 0.17241375000000403
                },
                {
                    "name": "G3",
                    "midi": 55,
                    "time": 138.27582750000116,
                    "velocity": 0.3779527559055118,
                    "duration": 0.17241375000000403
                },
                {
                    "name": "D#3",
                    "midi": 51,
                    "time": 138.44824125000116,
                    "velocity": 0.28346456692913385,
                    "duration": 0.17241375000000403
                },
                {
                    "name": "G3",
                    "midi": 55,
                    "time": 138.62065500000116,
                    "velocity": 0.3779527559055118,
                    "duration": 0.17241375000000403
                },
                {
                    "name": "D#3",
                    "midi": 51,
                    "time": 138.79306875000117,
                    "velocity": 0.31496062992125984,
                    "duration": 0.17241375000000403
                },
                {
                    "name": "G3",
                    "midi": 55,
                    "time": 138.96548250000117,
                    "velocity": 0.3858267716535433,
                    "duration": 0.17241375000000403
                },
                {
                    "name": "D#3",
                    "midi": 51,
                    "time": 139.13789625000118,
                    "velocity": 0.3228346456692913,
                    "duration": 0.17241375000000403
                },
                {
                    "name": "F#3",
                    "midi": 54,
                    "time": 139.31031000000118,
                    "velocity": 0.3858267716535433,
                    "duration": 0.17241375000000403
                },
                {
                    "name": "C#3",
                    "midi": 49,
                    "time": 139.48272375000118,
                    "velocity": 0.2677165354330709,
                    "duration": 0.17241375000000403
                },
                {
                    "name": "F#3",
                    "midi": 54,
                    "time": 139.6551375000012,
                    "velocity": 0.3937007874015748,
                    "duration": 0.17241375000000403
                },
                {
                    "name": "C#3",
                    "midi": 49,
                    "time": 139.8275512500012,
                    "velocity": 0.2755905511811024,
                    "duration": 0.17241375000000403
                },
                {
                    "name": "F#3",
                    "midi": 54,
                    "time": 139.9999650000012,
                    "velocity": 0.3858267716535433,
                    "duration": 0.17241375000000403
                },
                {
                    "name": "C#3",
                    "midi": 49,
                    "time": 140.1723787500012,
                    "velocity": 0.2992125984251969,
                    "duration": 0.17241375000000403
                },
                {
                    "name": "F#3",
                    "midi": 54,
                    "time": 140.3447925000012,
                    "velocity": 0.3779527559055118,
                    "duration": 0.17241375000000403
                },
                {
                    "name": "C#3",
                    "midi": 49,
                    "time": 140.5172062500012,
                    "velocity": 0.2677165354330709,
                    "duration": 0.17241375000000403
                },
                {
                    "name": "F#3",
                    "midi": 54,
                    "time": 140.6896200000012,
                    "velocity": 0.4015748031496063,
                    "duration": 0.34482750000000806
                },
                {
                    "name": "C3",
                    "midi": 48,
                    "time": 140.86203375000122,
                    "velocity": 0.25196850393700787,
                    "duration": 0.17241375000000403
                },
                {
                    "name": "F#3",
                    "midi": 54,
                    "time": 141.03444750000122,
                    "velocity": 0.31496062992125984,
                    "duration": 0.34482750000000806
                },
                {
                    "name": "C3",
                    "midi": 48,
                    "time": 141.20686125000123,
                    "velocity": 0.25196850393700787,
                    "duration": 0.17241375000000403
                },
                {
                    "name": "F#3",
                    "midi": 54,
                    "time": 141.37927500000123,
                    "velocity": 0.33070866141732286,
                    "duration": 0.34482750000000806
                },
                {
                    "name": "C3",
                    "midi": 48,
                    "time": 141.55168875000123,
                    "velocity": 0.25984251968503935,
                    "duration": 0.17241375000000403
                },
                {
                    "name": "F#3",
                    "midi": 54,
                    "time": 141.72410250000124,
                    "velocity": 0.33858267716535434,
                    "duration": 0.34482750000000806
                },
                {
                    "name": "C3",
                    "midi": 48,
                    "time": 141.89651625000124,
                    "velocity": 0.2677165354330709,
                    "duration": 0.17241375000000403
                },
                {
                    "name": "F3",
                    "midi": 53,
                    "time": 142.06893000000125,
                    "velocity": 0.36220472440944884,
                    "duration": 0.34482750000000806
                },
                {
                    "name": "C3",
                    "midi": 48,
                    "time": 142.24134375000125,
                    "velocity": 0.29133858267716534,
                    "duration": 0.17241375000000403
                },
                {
                    "name": "F3",
                    "midi": 53,
                    "time": 142.41375750000125,
                    "velocity": 0.33070866141732286,
                    "duration": 0.34482750000000806
                },
                {
                    "name": "C3",
                    "midi": 48,
                    "time": 142.58617125000126,
                    "velocity": 0.25196850393700787,
                    "duration": 0.17241375000000403
                },
                {
                    "name": "F3",
                    "midi": 53,
                    "time": 142.75858500000126,
                    "velocity": 0.31496062992125984,
                    "duration": 0.34482750000000806
                },
                {
                    "name": "C3",
                    "midi": 48,
                    "time": 142.93099875000127,
                    "velocity": 0.25196850393700787,
                    "duration": 0.17241375000000403
                },
                {
                    "name": "F3",
                    "midi": 53,
                    "time": 143.10341250000127,
                    "velocity": 0.31496062992125984,
                    "duration": 0.34482750000000806
                },
                {
                    "name": "C3",
                    "midi": 48,
                    "time": 143.27582625000127,
                    "velocity": 0.25196850393700787,
                    "duration": 0.17241375000000403
                },
                {
                    "name": "F3",
                    "midi": 53,
                    "time": 143.44824000000128,
                    "velocity": 0.31496062992125984,
                    "duration": 0.17241375000000403
                },
                {
                    "name": "D3",
                    "midi": 50,
                    "time": 143.62065375000128,
                    "velocity": 0.25196850393700787,
                    "duration": 0.17241375000000403
                },
                {
                    "name": "F3",
                    "midi": 53,
                    "time": 143.79306750000129,
                    "velocity": 0.31496062992125984,
                    "duration": 0.17241375000000403
                },
                {
                    "name": "D3",
                    "midi": 50,
                    "time": 143.9654812500013,
                    "velocity": 0.25196850393700787,
                    "duration": 0.17241375000000403
                },
                {
                    "name": "F3",
                    "midi": 53,
                    "time": 144.1378950000013,
                    "velocity": 0.31496062992125984,
                    "duration": 0.17241375000000403
                },
                {
                    "name": "D3",
                    "midi": 50,
                    "time": 144.3103087500013,
                    "velocity": 0.25196850393700787,
                    "duration": 0.17241375000000403
                },
                {
                    "name": "F3",
                    "midi": 53,
                    "time": 144.4827225000013,
                    "velocity": 0.31496062992125984,
                    "duration": 0.17241375000000403
                },
                {
                    "name": "G#3",
                    "midi": 56,
                    "time": 144.8275500000013,
                    "velocity": 0.3228346456692913,
                    "duration": 0.17241375000003245
                },
                {
                    "name": "F3",
                    "midi": 53,
                    "time": 144.99996375000134,
                    "velocity": 0.2440944881889764,
                    "duration": 0.17241375000000403
                },
                {
                    "name": "G#3",
                    "midi": 56,
                    "time": 145.17237750000135,
                    "velocity": 0.31496062992125984,
                    "duration": 0.17241375000000403
                },
                {
                    "name": "F3",
                    "midi": 53,
                    "time": 145.34479125000135,
                    "velocity": 0.25984251968503935,
                    "duration": 0.17241375000000403
                },
                {
                    "name": "G#3",
                    "midi": 56,
                    "time": 145.51720500000135,
                    "velocity": 0.31496062992125984,
                    "duration": 0.17241375000000403
                },
                {
                    "name": "F3",
                    "midi": 53,
                    "time": 145.68961875000136,
                    "velocity": 0.2677165354330709,
                    "duration": 0.17241375000000403
                },
                {
                    "name": "G#3",
                    "midi": 56,
                    "time": 145.86203250000136,
                    "velocity": 0.3228346456692913,
                    "duration": 0.17241375000000403
                },
                {
                    "name": "F3",
                    "midi": 53,
                    "time": 146.03444625000137,
                    "velocity": 0.2677165354330709,
                    "duration": 0.17241375000000403
                },
                {
                    "name": "G3",
                    "midi": 55,
                    "time": 146.20686000000137,
                    "velocity": 0.3543307086614173,
                    "duration": 0.2298849999999959
                },
                {
                    "name": "D#3",
                    "midi": 51,
                    "time": 146.37927375000137,
                    "velocity": 0.2992125984251969,
                    "duration": 0.17241375000000403
                },
                {
                    "name": "G3",
                    "midi": 55,
                    "time": 146.55168750000138,
                    "velocity": 0.3543307086614173,
                    "duration": 0.17241375000000403
                },
                {
                    "name": "D#3",
                    "midi": 51,
                    "time": 146.72410125000138,
                    "velocity": 0.2755905511811024,
                    "duration": 0.17241375000000403
                },
                {
                    "name": "G3",
                    "midi": 55,
                    "time": 146.8965150000014,
                    "velocity": 0.3543307086614173,
                    "duration": 0.17241375000000403
                },
                {
                    "name": "D#3",
                    "midi": 51,
                    "time": 147.0689287500014,
                    "velocity": 0.2755905511811024,
                    "duration": 0.17241375000000403
                },
                {
                    "name": "G3",
                    "midi": 55,
                    "time": 147.2413425000014,
                    "velocity": 0.3700787401574803,
                    "duration": 0.17241375000000403
                },
                {
                    "name": "D#3",
                    "midi": 51,
                    "time": 147.4137562500014,
                    "velocity": 0.2755905511811024,
                    "duration": 0.17241375000000403
                },
                {
                    "name": "F#3",
                    "midi": 54,
                    "time": 147.5861700000014,
                    "velocity": 0.3700787401574803,
                    "duration": 0.2298849999999959
                },
                {
                    "name": "C#3",
                    "midi": 49,
                    "time": 147.7585837500014,
                    "velocity": 0.25984251968503935,
                    "duration": 0.17241375000000403
                },
                {
                    "name": "F#3",
                    "midi": 54,
                    "time": 147.9309975000014,
                    "velocity": 0.33858267716535434,
                    "duration": 0.17241375000000403
                },
                {
                    "name": "C#3",
                    "midi": 49,
                    "time": 148.10341125000141,
                    "velocity": 0.2677165354330709,
                    "duration": 0.17241375000000403
                },
                {
                    "name": "F#3",
                    "midi": 54,
                    "time": 148.27582500000142,
                    "velocity": 0.33070866141732286,
                    "duration": 0.17241375000000403
                },
                {
                    "name": "C#3",
                    "midi": 49,
                    "time": 148.44823875000142,
                    "velocity": 0.25984251968503935,
                    "duration": 0.17241375000000403
                },
                {
                    "name": "F#3",
                    "midi": 54,
                    "time": 148.62065250000143,
                    "velocity": 0.33070866141732286,
                    "duration": 0.17241375000000403
                },
                {
                    "name": "C#3",
                    "midi": 49,
                    "time": 148.79306625000143,
                    "velocity": 0.25984251968503935,
                    "duration": 0.17241375000000403
                },
                {
                    "name": "F#3",
                    "midi": 54,
                    "time": 148.96548000000143,
                    "velocity": 0.4015748031496063,
                    "duration": 0.34482750000000806
                },
                {
                    "name": "C3",
                    "midi": 48,
                    "time": 149.13789375000144,
                    "velocity": 0.25196850393700787,
                    "duration": 0.17241375000000403
                },
                {
                    "name": "F#3",
                    "midi": 54,
                    "time": 149.31030750000144,
                    "velocity": 0.31496062992125984,
                    "duration": 0.34482750000000806
                },
                {
                    "name": "C3",
                    "midi": 48,
                    "time": 149.48272125000145,
                    "velocity": 0.2440944881889764,
                    "duration": 0.17241375000000403
                },
                {
                    "name": "F#3",
                    "midi": 54,
                    "time": 149.65513500000145,
                    "velocity": 0.3464566929133858,
                    "duration": 0.34482750000000806
                },
                {
                    "name": "C3",
                    "midi": 48,
                    "time": 149.82754875000145,
                    "velocity": 0.2677165354330709,
                    "duration": 0.17241375000000403
                },
                {
                    "name": "F#3",
                    "midi": 54,
                    "time": 149.99996250000146,
                    "velocity": 0.33858267716535434,
                    "duration": 0.34482750000000806
                },
                {
                    "name": "C3",
                    "midi": 48,
                    "time": 150.17237625000146,
                    "velocity": 0.28346456692913385,
                    "duration": 0.17241375000000403
                },
                {
                    "name": "F3",
                    "midi": 53,
                    "time": 150.34479000000147,
                    "velocity": 0.36220472440944884,
                    "duration": 0.34482750000000806
                },
                {
                    "name": "C3",
                    "midi": 48,
                    "time": 150.51720375000147,
                    "velocity": 0.28346456692913385,
                    "duration": 0.17241375000000403
                },
                {
                    "name": "F3",
                    "midi": 53,
                    "time": 150.68961750000148,
                    "velocity": 0.3228346456692913,
                    "duration": 0.34482750000000806
                },
                {
                    "name": "C3",
                    "midi": 48,
                    "time": 150.86203125000148,
                    "velocity": 0.25196850393700787,
                    "duration": 0.17241375000000403
                },
                {
                    "name": "F3",
                    "midi": 53,
                    "time": 151.03444500000148,
                    "velocity": 0.31496062992125984,
                    "duration": 0.34482750000000806
                },
                {
                    "name": "C3",
                    "midi": 48,
                    "time": 151.2068587500015,
                    "velocity": 0.25196850393700787,
                    "duration": 0.17241375000000403
                },
                {
                    "name": "F3",
                    "midi": 53,
                    "time": 151.3792725000015,
                    "velocity": 0.31496062992125984,
                    "duration": 0.34482750000000806
                },
                {
                    "name": "C3",
                    "midi": 48,
                    "time": 151.5516862500015,
                    "velocity": 0.25196850393700787,
                    "duration": 0.17241375000000403
                },
                {
                    "name": "F3",
                    "midi": 53,
                    "time": 151.7241000000015,
                    "velocity": 0.31496062992125984,
                    "duration": 0.2298849999999959
                },
                {
                    "name": "D3",
                    "midi": 50,
                    "time": 151.9539850000015,
                    "velocity": 0.25196850393700787,
                    "duration": 0.2298849999999959
                },
                {
                    "name": "F3",
                    "midi": 53,
                    "time": 152.1838700000015,
                    "velocity": 0.31496062992125984,
                    "duration": 0.2298849999999959
                },
                {
                    "name": "D3",
                    "midi": 50,
                    "time": 152.4137550000015,
                    "velocity": 0.25196850393700787,
                    "duration": 0.2298849999999959
                },
                {
                    "name": "F3",
                    "midi": 53,
                    "time": 152.64364000000148,
                    "velocity": 0.31496062992125984,
                    "duration": 0.2298849999999959
                },
                {
                    "name": "D3",
                    "midi": 50,
                    "time": 152.87352500000148,
                    "velocity": 0.25196850393700787,
                    "duration": 0.2298849999999959
                },
                {
                    "name": "F3",
                    "midi": 53,
                    "time": 153.10341000000147,
                    "velocity": 0.3543307086614173,
                    "duration": 0.2298849999999959
                },
                {
                    "name": "D3",
                    "midi": 50,
                    "time": 153.33329500000147,
                    "velocity": 0.2992125984251969,
                    "duration": 0.2298849999999959
                },
                {
                    "name": "F3",
                    "midi": 53,
                    "time": 153.56318000000147,
                    "velocity": 0.3543307086614173,
                    "duration": 0.2298849999999959
                },
                {
                    "name": "D3",
                    "midi": 50,
                    "time": 153.79306500000146,
                    "velocity": 0.2992125984251969,
                    "duration": 0.2298849999999959
                },
                {
                    "name": "F3",
                    "midi": 53,
                    "time": 154.02295000000146,
                    "velocity": 0.3543307086614173,
                    "duration": 0.2298849999999959
                },
                {
                    "name": "D3",
                    "midi": 50,
                    "time": 154.25283500000145,
                    "velocity": 0.2992125984251969,
                    "duration": 0.2298849999999959
                },
                {
                    "name": "G3",
                    "midi": 55,
                    "time": 154.48272000000145,
                    "velocity": 0.3543307086614173,
                    "duration": 0.2298849999999959
                },
                {
                    "name": "D#3",
                    "midi": 51,
                    "time": 154.71260500000145,
                    "velocity": 0.2992125984251969,
                    "duration": 0.2298849999999959
                },
                {
                    "name": "G3",
                    "midi": 55,
                    "time": 154.94249000000144,
                    "velocity": 0.3543307086614173,
                    "duration": 0.2298849999999959
                },
                {
                    "name": "D#3",
                    "midi": 51,
                    "time": 155.17237500000144,
                    "velocity": 0.2992125984251969,
                    "duration": 0.2298849999999959
                },
                {
                    "name": "G3",
                    "midi": 55,
                    "time": 155.40226000000143,
                    "velocity": 0.3543307086614173,
                    "duration": 0.2298849999999959
                },
                {
                    "name": "D#3",
                    "midi": 51,
                    "time": 155.63214500000143,
                    "velocity": 0.29133858267716534,
                    "duration": 0.2298849999999959
                },
                {
                    "name": "G3",
                    "midi": 55,
                    "time": 155.86203000000143,
                    "velocity": 0.3779527559055118,
                    "duration": 0.2298849999999959
                },
                {
                    "name": "E3",
                    "midi": 52,
                    "time": 156.09191500000142,
                    "velocity": 0.30708661417322836,
                    "duration": 0.2298849999999959
                },
                {
                    "name": "G3",
                    "midi": 55,
                    "time": 156.32180000000142,
                    "velocity": 0.3779527559055118,
                    "duration": 0.2298849999999959
                },
                {
                    "name": "E3",
                    "midi": 52,
                    "time": 156.5516850000014,
                    "velocity": 0.3228346456692913,
                    "duration": 0.2298849999999959
                },
                {
                    "name": "G3",
                    "midi": 55,
                    "time": 156.7815700000014,
                    "velocity": 0.3779527559055118,
                    "duration": 0.2298849999999959
                },
                {
                    "name": "E3",
                    "midi": 52,
                    "time": 157.0114550000014,
                    "velocity": 0.3228346456692913,
                    "duration": 0.2298849999999959
                },
                {
                    "name": "A3",
                    "midi": 57,
                    "time": 157.2413400000014,
                    "velocity": 0.3779527559055118,
                    "duration": 0.2298849999999959
                },
                {
                    "name": "F3",
                    "midi": 53,
                    "time": 157.4712250000014,
                    "velocity": 0.30708661417322836,
                    "duration": 0.2298849999999959
                },
                {
                    "name": "A3",
                    "midi": 57,
                    "time": 157.7011100000014,
                    "velocity": 0.3779527559055118,
                    "duration": 0.2298849999999959
                },
                {
                    "name": "F3",
                    "midi": 53,
                    "time": 157.9309950000014,
                    "velocity": 0.3228346456692913,
                    "duration": 0.2298849999999959
                },
                {
                    "name": "A3",
                    "midi": 57,
                    "time": 158.16088000000138,
                    "velocity": 0.3779527559055118,
                    "duration": 0.2298849999999959
                },
                {
                    "name": "F3",
                    "midi": 53,
                    "time": 158.39076500000138,
                    "velocity": 0.3228346456692913,
                    "duration": 0.2298849999999959
                },
                {
                    "name": "A#3",
                    "midi": 58,
                    "time": 159.99996000000138,
                    "velocity": 0.3937007874015748,
                    "duration": 0.2298849999999959
                },
                {
                    "name": "G3",
                    "midi": 55,
                    "time": 160.22984500000138,
                    "velocity": 0.3228346456692913,
                    "duration": 0.2298849999999959
                },
                {
                    "name": "A#3",
                    "midi": 58,
                    "time": 160.45973000000137,
                    "velocity": 0.3937007874015748,
                    "duration": 0.2298849999999959
                },
                {
                    "name": "G3",
                    "midi": 55,
                    "time": 160.68961500000137,
                    "velocity": 0.33858267716535434,
                    "duration": 0.2298849999999959
                },
                {
                    "name": "A#3",
                    "midi": 58,
                    "time": 160.91950000000136,
                    "velocity": 0.4015748031496063,
                    "duration": 0.2298849999999959
                },
                {
                    "name": "G3",
                    "midi": 55,
                    "time": 161.14938500000136,
                    "velocity": 0.33858267716535434,
                    "duration": 0.2298849999999959
                },
                {
                    "name": "D4",
                    "midi": 62,
                    "time": 162.75858000000133,
                    "velocity": 0.41732283464566927,
                    "duration": 0.2298849999999959
                },
                {
                    "name": "A#3",
                    "midi": 58,
                    "time": 162.98846500000133,
                    "velocity": 0.3464566929133858,
                    "duration": 0.2298849999999959
                },
                {
                    "name": "D4",
                    "midi": 62,
                    "time": 163.21835000000132,
                    "velocity": 0.41732283464566927,
                    "duration": 0.2298849999999959
                },
                {
                    "name": "A#3",
                    "midi": 58,
                    "time": 163.44823500000132,
                    "velocity": 0.3543307086614173,
                    "duration": 0.2298849999999959
                },
                {
                    "name": "D4",
                    "midi": 62,
                    "time": 163.67812000000131,
                    "velocity": 0.41732283464566927,
                    "duration": 0.2298849999999959
                },
                {
                    "name": "A#3",
                    "midi": 58,
                    "time": 163.9080050000013,
                    "velocity": 0.36220472440944884,
                    "duration": 0.2298849999999959
                },
                {
                    "name": "F4",
                    "midi": 65,
                    "time": 165.5172000000013,
                    "velocity": 0.4409448818897638,
                    "duration": 0.2298849999999959
                },
                {
                    "name": "D4",
                    "midi": 62,
                    "time": 165.7470850000013,
                    "velocity": 0.36220472440944884,
                    "duration": 0.2298849999999959
                },
                {
                    "name": "F4",
                    "midi": 65,
                    "time": 165.9769700000013,
                    "velocity": 0.4409448818897638,
                    "duration": 0.2298849999999959
                },
                {
                    "name": "D4",
                    "midi": 62,
                    "time": 166.2068550000013,
                    "velocity": 0.3779527559055118,
                    "duration": 0.2298849999999959
                },
                {
                    "name": "F4",
                    "midi": 65,
                    "time": 166.4367400000013,
                    "velocity": 0.4409448818897638,
                    "duration": 0.2298849999999959
                },
                {
                    "name": "D4",
                    "midi": 62,
                    "time": 166.6666250000013,
                    "velocity": 0.3779527559055118,
                    "duration": 0.2298849999999959
                },
                {
                    "name": "G4",
                    "midi": 67,
                    "time": 168.2758200000013,
                    "velocity": 0.4409448818897638,
                    "duration": 0.2298849999999959
                },
                {
                    "name": "E4",
                    "midi": 64,
                    "time": 168.50570500000129,
                    "velocity": 0.3700787401574803,
                    "duration": 0.2298849999999959
                },
                {
                    "name": "G4",
                    "midi": 67,
                    "time": 168.73559000000128,
                    "velocity": 0.44881889763779526,
                    "duration": 0.2298849999999959
                },
                {
                    "name": "E4",
                    "midi": 64,
                    "time": 168.96547500000128,
                    "velocity": 0.3858267716535433,
                    "duration": 0.2298849999999959
                },
                {
                    "name": "G4",
                    "midi": 67,
                    "time": 169.19536000000127,
                    "velocity": 0.44881889763779526,
                    "duration": 0.2298849999999959
                },
                {
                    "name": "E4",
                    "midi": 64,
                    "time": 169.42524500000127,
                    "velocity": 0.3858267716535433,
                    "duration": 0.2298849999999959
                },
                {
                    "name": "A#4",
                    "midi": 70,
                    "time": 171.03444000000127,
                    "velocity": 0.36220472440944884,
                    "duration": 0.2298849999999959
                },
                {
                    "name": "C#5",
                    "midi": 73,
                    "time": 171.03444000000127,
                    "velocity": 0.4645669291338583,
                    "duration": 0.2298849999999959
                },
                {
                    "name": "E4",
                    "midi": 64,
                    "time": 171.26432500000126,
                    "velocity": 0.3858267716535433,
                    "duration": 0.2298849999999959
                },
                {
                    "name": "A#4",
                    "midi": 70,
                    "time": 171.49421000000126,
                    "velocity": 0.36220472440944884,
                    "duration": 0.2298849999999959
                },
                {
                    "name": "C#5",
                    "midi": 73,
                    "time": 171.49421000000126,
                    "velocity": 0.4645669291338583,
                    "duration": 0.2298849999999959
                },
                {
                    "name": "E4",
                    "midi": 64,
                    "time": 171.72409500000126,
                    "velocity": 0.4094488188976378,
                    "duration": 0.2298849999999959
                },
                {
                    "name": "A#4",
                    "midi": 70,
                    "time": 171.95398000000125,
                    "velocity": 0.36220472440944884,
                    "duration": 0.2298849999999959
                },
                {
                    "name": "C#5",
                    "midi": 73,
                    "time": 171.95398000000125,
                    "velocity": 0.4645669291338583,
                    "duration": 0.2298849999999959
                },
                {
                    "name": "E4",
                    "midi": 64,
                    "time": 172.18386500000125,
                    "velocity": 0.4094488188976378,
                    "duration": 0.2298849999999959
                },
                {
                    "name": "A#4",
                    "midi": 70,
                    "time": 173.79306000000125,
                    "velocity": 0.36220472440944884,
                    "duration": 0.2298849999999959
                },
                {
                    "name": "D5",
                    "midi": 74,
                    "time": 173.79306000000125,
                    "velocity": 0.4645669291338583,
                    "duration": 0.2298849999999959
                },
                {
                    "name": "F4",
                    "midi": 65,
                    "time": 174.02294500000124,
                    "velocity": 0.3858267716535433,
                    "duration": 0.2298849999999959
                },
                {
                    "name": "A#4",
                    "midi": 70,
                    "time": 174.25283000000124,
                    "velocity": 0.36220472440944884,
                    "duration": 0.2298849999999959
                },
                {
                    "name": "D5",
                    "midi": 74,
                    "time": 174.25283000000124,
                    "velocity": 0.4566929133858268,
                    "duration": 0.2298849999999959
                },
                {
                    "name": "F4",
                    "midi": 65,
                    "time": 174.48271500000124,
                    "velocity": 0.3937007874015748,
                    "duration": 0.2298849999999959
                },
                {
                    "name": "A#4",
                    "midi": 70,
                    "time": 174.71260000000123,
                    "velocity": 0.3543307086614173,
                    "duration": 0.2298849999999959
                },
                {
                    "name": "D5",
                    "midi": 74,
                    "time": 174.71260000000123,
                    "velocity": 0.44881889763779526,
                    "duration": 0.2298849999999959
                },
                {
                    "name": "F4",
                    "midi": 65,
                    "time": 174.94248500000123,
                    "velocity": 0.3937007874015748,
                    "duration": 0.2298849999999959
                },
                {
                    "name": "D4",
                    "midi": 62,
                    "time": 176.55168000000123,
                    "velocity": 0.3464566929133858,
                    "duration": 0.2298849999999959
                },
                {
                    "name": "F4",
                    "midi": 65,
                    "time": 176.55168000000123,
                    "velocity": 0.4330708661417323,
                    "duration": 0.2298849999999959
                },
                {
                    "name": "A#3",
                    "midi": 58,
                    "time": 176.78156500000122,
                    "velocity": 0.36220472440944884,
                    "duration": 0.2298849999999959
                },
                {
                    "name": "D4",
                    "midi": 62,
                    "time": 177.01145000000122,
                    "velocity": 0.3464566929133858,
                    "duration": 0.2298849999999959
                },
                {
                    "name": "F4",
                    "midi": 65,
                    "time": 177.01145000000122,
                    "velocity": 0.4251968503937008,
                    "duration": 0.2298849999999959
                },
                {
                    "name": "A#3",
                    "midi": 58,
                    "time": 177.24133500000121,
                    "velocity": 0.3700787401574803,
                    "duration": 0.2298849999999959
                },
                {
                    "name": "D4",
                    "midi": 62,
                    "time": 177.4712200000012,
                    "velocity": 0.33858267716535434,
                    "duration": 0.2298849999999959
                },
                {
                    "name": "F4",
                    "midi": 65,
                    "time": 177.4712200000012,
                    "velocity": 0.4251968503937008,
                    "duration": 0.2298849999999959
                },
                {
                    "name": "A#3",
                    "midi": 58,
                    "time": 177.7011050000012,
                    "velocity": 0.3700787401574803,
                    "duration": 0.2298849999999959
                },
                {
                    "name": "C3",
                    "midi": 48,
                    "time": 180.68961000000118,
                    "velocity": 0.2992125984251969,
                    "duration": 0.2298849999999959
                },
                {
                    "name": "D#3",
                    "midi": 51,
                    "time": 180.68961000000118,
                    "velocity": 0.3779527559055118,
                    "duration": 0.2298849999999959
                },
                {
                    "name": "F2",
                    "midi": 41,
                    "time": 180.91949500000118,
                    "velocity": 0.31496062992125984,
                    "duration": 0.2298849999999959
                },
                {
                    "name": "C3",
                    "midi": 48,
                    "time": 181.14938000000117,
                    "velocity": 0.2992125984251969,
                    "duration": 0.2298849999999959
                },
                {
                    "name": "D#3",
                    "midi": 51,
                    "time": 181.14938000000117,
                    "velocity": 0.3779527559055118,
                    "duration": 0.2298849999999959
                },
                {
                    "name": "F2",
                    "midi": 41,
                    "time": 181.37926500000117,
                    "velocity": 0.3228346456692913,
                    "duration": 0.2298849999999959
                },
                {
                    "name": "C3",
                    "midi": 48,
                    "time": 181.60915000000116,
                    "velocity": 0.2992125984251969,
                    "duration": 0.2298849999999959
                },
                {
                    "name": "D#3",
                    "midi": 51,
                    "time": 181.60915000000116,
                    "velocity": 0.3779527559055118,
                    "duration": 0.2298849999999959
                },
                {
                    "name": "F2",
                    "midi": 41,
                    "time": 181.83903500000116,
                    "velocity": 0.3228346456692913,
                    "duration": 0.2298849999999959
                },
                {
                    "name": "D3",
                    "midi": 50,
                    "time": 182.06892000000116,
                    "velocity": 0.3543307086614173,
                    "duration": 0.22988500000002432
                },
                {
                    "name": "A#2",
                    "midi": 46,
                    "time": 182.29880500000118,
                    "velocity": 0.29133858267716534,
                    "duration": 0.2298849999999959
                },
                {
                    "name": "D3",
                    "midi": 50,
                    "time": 182.52869000000118,
                    "velocity": 0.3543307086614173,
                    "duration": 0.2298849999999959
                },
                {
                    "name": "A#2",
                    "midi": 46,
                    "time": 182.75857500000117,
                    "velocity": 0.28346456692913385,
                    "duration": 0.2298849999999959
                },
                {
                    "name": "D3",
                    "midi": 50,
                    "time": 182.98846000000117,
                    "velocity": 0.3464566929133858,
                    "duration": 0.2298849999999959
                },
                {
                    "name": "A#2",
                    "midi": 46,
                    "time": 183.21834500000116,
                    "velocity": 0.2755905511811024,
                    "duration": 0.2298849999999959
                },
                {
                    "name": "D3",
                    "midi": 50,
                    "time": 183.44823000000116,
                    "velocity": 0.3464566929133858,
                    "duration": 0.2298849999999959
                },
                {
                    "name": "A#2",
                    "midi": 46,
                    "time": 183.67811500000116,
                    "velocity": 0.2755905511811024,
                    "duration": 0.2298849999999959
                },
                {
                    "name": "D3",
                    "midi": 50,
                    "time": 183.90800000000115,
                    "velocity": 0.33858267716535434,
                    "duration": 0.2298849999999959
                },
                {
                    "name": "A#2",
                    "midi": 46,
                    "time": 184.13788500000115,
                    "velocity": 0.2755905511811024,
                    "duration": 0.2298849999999959
                },
                {
                    "name": "D3",
                    "midi": 50,
                    "time": 184.36777000000114,
                    "velocity": 0.33858267716535434,
                    "duration": 0.2298849999999959
                },
                {
                    "name": "A#2",
                    "midi": 46,
                    "time": 184.59765500000114,
                    "velocity": 0.2677165354330709,
                    "duration": 0.2298849999999959
                },
                {
                    "name": "D3",
                    "midi": 50,
                    "time": 184.82754000000114,
                    "velocity": 0.33070866141732286,
                    "duration": 0.22988500000002432
                },
                {
                    "name": "A#2",
                    "midi": 46,
                    "time": 185.05742500000116,
                    "velocity": 0.2677165354330709,
                    "duration": 0.2298849999999959
                },
                {
                    "name": "D3",
                    "midi": 50,
                    "time": 185.28731000000116,
                    "velocity": 0.33070866141732286,
                    "duration": 0.2298849999999959
                },
                {
                    "name": "A#2",
                    "midi": 46,
                    "time": 185.51719500000115,
                    "velocity": 0.2677165354330709,
                    "duration": 0.2298849999999959
                },
                {
                    "name": "D3",
                    "midi": 50,
                    "time": 185.74708000000115,
                    "velocity": 0.3228346456692913,
                    "duration": 0.2298849999999959
                },
                {
                    "name": "A#2",
                    "midi": 46,
                    "time": 185.97696500000114,
                    "velocity": 0.23622047244094488,
                    "duration": 0.2298849999999959
                },
                {
                    "name": "D#3",
                    "midi": 51,
                    "time": 186.20685000000114,
                    "velocity": 0.3228346456692913,
                    "duration": 0.2298849999999959
                },
                {
                    "name": "A#2",
                    "midi": 46,
                    "time": 186.43673500000114,
                    "velocity": 0.25196850393700787,
                    "duration": 0.2298849999999959
                },
                {
                    "name": "D#3",
                    "midi": 51,
                    "time": 186.66662000000113,
                    "velocity": 0.31496062992125984,
                    "duration": 0.2298849999999959
                },
                {
                    "name": "A#2",
                    "midi": 46,
                    "time": 186.89650500000113,
                    "velocity": 0.23622047244094488,
                    "duration": 0.2298849999999959
                },
                {
                    "name": "D#3",
                    "midi": 51,
                    "time": 187.12639000000112,
                    "velocity": 0.31496062992125984,
                    "duration": 0.2298849999999959
                },
                {
                    "name": "A#2",
                    "midi": 46,
                    "time": 187.35627500000112,
                    "velocity": 0.23622047244094488,
                    "duration": 0.2298849999999959
                },
                {
                    "name": "D#3",
                    "midi": 51,
                    "time": 187.58616000000112,
                    "velocity": 0.30708661417322836,
                    "duration": 0.2298849999999959
                },
                {
                    "name": "A2",
                    "midi": 45,
                    "time": 187.8160450000011,
                    "velocity": 0.2440944881889764,
                    "duration": 0.22988500000002432
                },
                {
                    "name": "D#3",
                    "midi": 51,
                    "time": 188.04593000000114,
                    "velocity": 0.30708661417322836,
                    "duration": 0.2298849999999959
                },
                {
                    "name": "A2",
                    "midi": 45,
                    "time": 188.27581500000113,
                    "velocity": 0.2283464566929134,
                    "duration": 0.2298849999999959
                },
                {
                    "name": "D#3",
                    "midi": 51,
                    "time": 188.50570000000113,
                    "velocity": 0.2992125984251969,
                    "duration": 0.2298849999999959
                },
                {
                    "name": "A2",
                    "midi": 45,
                    "time": 188.73558500000112,
                    "velocity": 0.2283464566929134,
                    "duration": 0.2298849999999959
                },
                {
                    "name": "D#3",
                    "midi": 51,
                    "time": 188.96547000000112,
                    "velocity": 0.2992125984251969,
                    "duration": 0.2298849999999959
                },
                {
                    "name": "A2",
                    "midi": 45,
                    "time": 189.19535500000111,
                    "velocity": 0.2283464566929134,
                    "duration": 0.2298849999999959
                },
                {
                    "name": "D#3",
                    "midi": 51,
                    "time": 189.4252400000011,
                    "velocity": 0.29133858267716534,
                    "duration": 0.2298849999999959
                },
                {
                    "name": "A2",
                    "midi": 45,
                    "time": 189.6551250000011,
                    "velocity": 0.2283464566929134,
                    "duration": 0.2298849999999959
                },
                {
                    "name": "D#3",
                    "midi": 51,
                    "time": 189.8850100000011,
                    "velocity": 0.29133858267716534,
                    "duration": 0.2298849999999959
                },
                {
                    "name": "A2",
                    "midi": 45,
                    "time": 190.1148950000011,
                    "velocity": 0.2283464566929134,
                    "duration": 0.2298849999999959
                },
                {
                    "name": "D#3",
                    "midi": 51,
                    "time": 190.3447800000011,
                    "velocity": 0.30708661417322836,
                    "duration": 0.22988500000002432
                },
                {
                    "name": "A#2",
                    "midi": 46,
                    "time": 190.57466500000112,
                    "velocity": 0.25196850393700787,
                    "duration": 0.2298849999999959
                },
                {
                    "name": "D#3",
                    "midi": 51,
                    "time": 190.80455000000111,
                    "velocity": 0.30708661417322836,
                    "duration": 0.2298849999999959
                },
                {
                    "name": "A#2",
                    "midi": 46,
                    "time": 191.0344350000011,
                    "velocity": 0.25196850393700787,
                    "duration": 0.2298849999999959
                },
                {
                    "name": "D#3",
                    "midi": 51,
                    "time": 191.2643200000011,
                    "velocity": 0.2992125984251969,
                    "duration": 0.2298849999999959
                },
                {
                    "name": "A#2",
                    "midi": 46,
                    "time": 191.4942050000011,
                    "velocity": 0.2204724409448819,
                    "duration": 0.2298849999999959
                },
                {
                    "name": "D#3",
                    "midi": 51,
                    "time": 191.7240900000011,
                    "velocity": 0.2992125984251969,
                    "duration": 0.2298849999999959
                },
                {
                    "name": "A#2",
                    "midi": 46,
                    "time": 191.9539750000011,
                    "velocity": 0.23622047244094488,
                    "duration": 0.2298849999999959
                },
                {
                    "name": "D#3",
                    "midi": 51,
                    "time": 192.1838600000011,
                    "velocity": 0.29133858267716534,
                    "duration": 0.2298849999999959
                },
                {
                    "name": "A#2",
                    "midi": 46,
                    "time": 192.4137450000011,
                    "velocity": 0.2204724409448819,
                    "duration": 0.2298849999999959
                },
                {
                    "name": "D#3",
                    "midi": 51,
                    "time": 192.64363000000108,
                    "velocity": 0.29133858267716534,
                    "duration": 0.2298849999999959
                },
                {
                    "name": "A#2",
                    "midi": 46,
                    "time": 192.87351500000108,
                    "velocity": 0.2204724409448819,
                    "duration": 0.2298849999999959
                },
                {
                    "name": "D3",
                    "midi": 50,
                    "time": 193.10340000000107,
                    "velocity": 0.28346456692913385,
                    "duration": 0.2298849999999959
                },
                {
                    "name": "A#2",
                    "midi": 46,
                    "time": 193.33328500000107,
                    "velocity": 0.2283464566929134,
                    "duration": 0.22988500000002432
                },
                {
                    "name": "D3",
                    "midi": 50,
                    "time": 193.5631700000011,
                    "velocity": 0.28346456692913385,
                    "duration": 0.2298849999999959
                },
                {
                    "name": "A#2",
                    "midi": 46,
                    "time": 193.7930550000011,
                    "velocity": 0.2125984251968504,
                    "duration": 0.2298849999999959
                },
                {
                    "name": "D3",
                    "midi": 50,
                    "time": 194.02294000000109,
                    "velocity": 0.28346456692913385,
                    "duration": 0.2298849999999959
                },
                {
                    "name": "A#2",
                    "midi": 46,
                    "time": 194.25282500000108,
                    "velocity": 0.2125984251968504,
                    "duration": 0.2298849999999959
                },
                {
                    "name": "D3",
                    "midi": 50,
                    "time": 194.48271000000108,
                    "velocity": 0.28346456692913385,
                    "duration": 0.2298849999999959
                },
                {
                    "name": "A#2",
                    "midi": 46,
                    "time": 194.71259500000107,
                    "velocity": 0.2125984251968504,
                    "duration": 0.2298849999999959
                },
                {
                    "name": "D3",
                    "midi": 50,
                    "time": 194.94248000000107,
                    "velocity": 0.2755905511811024,
                    "duration": 0.2298849999999959
                },
                {
                    "name": "A#2",
                    "midi": 46,
                    "time": 195.17236500000107,
                    "velocity": 0.2125984251968504,
                    "duration": 0.2298849999999959
                },
                {
                    "name": "D3",
                    "midi": 50,
                    "time": 195.40225000000106,
                    "velocity": 0.2755905511811024,
                    "duration": 0.2298849999999959
                },
                {
                    "name": "A#2",
                    "midi": 46,
                    "time": 195.63213500000106,
                    "velocity": 0.2125984251968504,
                    "duration": 0.2298849999999959
                },
                {
                    "name": "C3",
                    "midi": 48,
                    "time": 195.86202000000105,
                    "velocity": 0.3937007874015748,
                    "duration": 0.2298849999999959
                },
                {
                    "name": "A2",
                    "midi": 45,
                    "time": 196.09190500000105,
                    "velocity": 0.33070866141732286,
                    "duration": 0.2298849999999959
                },
                {
                    "name": "C3",
                    "midi": 48,
                    "time": 196.32179000000104,
                    "velocity": 0.3937007874015748,
                    "duration": 0.2298849999999959
                },
                {
                    "name": "A2",
                    "midi": 45,
                    "time": 196.55167500000104,
                    "velocity": 0.3464566929133858,
                    "duration": 0.2298849999999959
                },
                {
                    "name": "C3",
                    "midi": 48,
                    "time": 196.78156000000104,
                    "velocity": 0.4015748031496063,
                    "duration": 0.2298849999999959
                },
                {
                    "name": "A2",
                    "midi": 45,
                    "time": 197.01144500000103,
                    "velocity": 0.3543307086614173,
                    "duration": 0.2298849999999959
                },
                {
                    "name": "C3",
                    "midi": 48,
                    "time": 197.24133000000103,
                    "velocity": 0.4094488188976378,
                    "duration": 0.2298849999999959
                },
                {
                    "name": "A2",
                    "midi": 45,
                    "time": 197.47121500000102,
                    "velocity": 0.36220472440944884,
                    "duration": 0.2298849999999959
                },
                {
                    "name": "C3",
                    "midi": 48,
                    "time": 197.70110000000102,
                    "velocity": 0.41732283464566927,
                    "duration": 0.2298849999999959
                },
                {
                    "name": "A2",
                    "midi": 45,
                    "time": 197.93098500000102,
                    "velocity": 0.36220472440944884,
                    "duration": 0.2298849999999959
                },
                {
                    "name": "C3",
                    "midi": 48,
                    "time": 198.160870000001,
                    "velocity": 0.4251968503937008,
                    "duration": 0.2298849999999959
                },
                {
                    "name": "A2",
                    "midi": 45,
                    "time": 198.390755000001,
                    "velocity": 0.3700787401574803,
                    "duration": 0.2298849999999959
                },
                {
                    "name": "B2",
                    "midi": 47,
                    "time": 202.75857000000101,
                    "velocity": 0.5039370078740157,
                    "duration": 0.2298849999999959
                },
                {
                    "name": "G3",
                    "midi": 55,
                    "time": 202.988455000001,
                    "velocity": 0.4330708661417323,
                    "duration": 0.2298849999999959
                },
                {
                    "name": "B2",
                    "midi": 47,
                    "time": 203.218340000001,
                    "velocity": 0.49606299212598426,
                    "duration": 0.2298849999999959
                },
                {
                    "name": "G3",
                    "midi": 55,
                    "time": 203.448225000001,
                    "velocity": 0.41732283464566927,
                    "duration": 0.2298849999999959
                },
                {
                    "name": "B2",
                    "midi": 47,
                    "time": 203.678110000001,
                    "velocity": 0.49606299212598426,
                    "duration": 0.2298849999999959
                },
                {
                    "name": "G3",
                    "midi": 55,
                    "time": 203.907995000001,
                    "velocity": 0.4330708661417323,
                    "duration": 0.2298849999999959
                },
                {
                    "name": "C3",
                    "midi": 48,
                    "time": 204.137880000001,
                    "velocity": 0.49606299212598426,
                    "duration": 0.2298849999999959
                },
                {
                    "name": "A3",
                    "midi": 57,
                    "time": 204.367765000001,
                    "velocity": 0.4330708661417323,
                    "duration": 0.2298849999999959
                },
                {
                    "name": "C3",
                    "midi": 48,
                    "time": 204.59765000000098,
                    "velocity": 0.49606299212598426,
                    "duration": 0.2298849999999959
                },
                {
                    "name": "A3",
                    "midi": 57,
                    "time": 204.82753500000098,
                    "velocity": 0.41732283464566927,
                    "duration": 0.2298849999999959
                },
                {
                    "name": "C3",
                    "midi": 48,
                    "time": 205.05742000000097,
                    "velocity": 0.4881889763779528,
                    "duration": 0.2298849999999959
                },
                {
                    "name": "A3",
                    "midi": 57,
                    "time": 205.28730500000097,
                    "velocity": 0.41732283464566927,
                    "duration": 0.2298849999999959
                },
                {
                    "name": "D3",
                    "midi": 50,
                    "time": 205.51719000000097,
                    "velocity": 0.4881889763779528,
                    "duration": 0.2298849999999959
                },
                {
                    "name": "B3",
                    "midi": 59,
                    "time": 205.74707500000096,
                    "velocity": 0.4251968503937008,
                    "duration": 0.2298849999999959
                },
                {
                    "name": "D3",
                    "midi": 50,
                    "time": 205.97696000000096,
                    "velocity": 0.49606299212598426,
                    "duration": 0.2298849999999959
                },
                {
                    "name": "B3",
                    "midi": 59,
                    "time": 206.20684500000095,
                    "velocity": 0.44881889763779526,
                    "duration": 0.2298849999999959
                },
                {
                    "name": "D3",
                    "midi": 50,
                    "time": 206.43673000000095,
                    "velocity": 0.5039370078740157,
                    "duration": 0.2298849999999959
                },
                {
                    "name": "B3",
                    "midi": 59,
                    "time": 206.66661500000095,
                    "velocity": 0.4645669291338583,
                    "duration": 0.2298849999999959
                },
                {
                    "name": "D#3",
                    "midi": 51,
                    "time": 206.89650000000094,
                    "velocity": 0.5275590551181102,
                    "duration": 0.2298849999999959
                },
                {
                    "name": "C4",
                    "midi": 60,
                    "time": 207.12638500000094,
                    "velocity": 0.4251968503937008,
                    "duration": 0.2298849999999959
                },
                {
                    "name": "D#3",
                    "midi": 51,
                    "time": 207.35627000000093,
                    "velocity": 0.47244094488188976,
                    "duration": 0.2298849999999959
                },
                {
                    "name": "C4",
                    "midi": 60,
                    "time": 207.58615500000093,
                    "velocity": 0.4094488188976378,
                    "duration": 0.2298849999999959
                },
                {
                    "name": "D#3",
                    "midi": 51,
                    "time": 207.81604000000092,
                    "velocity": 0.47244094488188976,
                    "duration": 0.2298849999999959
                },
                {
                    "name": "C4",
                    "midi": 60,
                    "time": 208.04592500000092,
                    "velocity": 0.4094488188976378,
                    "duration": 0.2298849999999959
                },
                {
                    "name": "F3",
                    "midi": 53,
                    "time": 208.27581000000092,
                    "velocity": 0.4645669291338583,
                    "duration": 0.2298849999999959
                },
                {
                    "name": "D4",
                    "midi": 62,
                    "time": 208.5056950000009,
                    "velocity": 0.41732283464566927,
                    "duration": 0.2298849999999959
                },
                {
                    "name": "F3",
                    "midi": 53,
                    "time": 208.7355800000009,
                    "velocity": 0.4566929133858268,
                    "duration": 0.2298849999999959
                },
                {
                    "name": "D4",
                    "midi": 62,
                    "time": 208.9654650000009,
                    "velocity": 0.4015748031496063,
                    "duration": 0.2298849999999959
                },
                {
                    "name": "F3",
                    "midi": 53,
                    "time": 209.1953500000009,
                    "velocity": 0.4566929133858268,
                    "duration": 0.2298849999999959
                },
                {
                    "name": "D4",
                    "midi": 62,
                    "time": 209.4252350000009,
                    "velocity": 0.4015748031496063,
                    "duration": 0.2298849999999959
                },
                {
                    "name": "G3",
                    "midi": 55,
                    "time": 209.6551200000009,
                    "velocity": 0.44881889763779526,
                    "duration": 0.2298849999999959
                },
                {
                    "name": "D#4",
                    "midi": 63,
                    "time": 209.8850050000009,
                    "velocity": 0.4015748031496063,
                    "duration": 0.2298849999999959
                },
                {
                    "name": "G3",
                    "midi": 55,
                    "time": 210.11489000000088,
                    "velocity": 0.4409448818897638,
                    "duration": 0.2298849999999959
                },
                {
                    "name": "D#4",
                    "midi": 63,
                    "time": 210.34477500000088,
                    "velocity": 0.3937007874015748,
                    "duration": 0.2298849999999959
                },
                {
                    "name": "G3",
                    "midi": 55,
                    "time": 210.57466000000088,
                    "velocity": 0.44881889763779526,
                    "duration": 0.2298849999999959
                },
                {
                    "name": "D#4",
                    "midi": 63,
                    "time": 210.80454500000087,
                    "velocity": 0.4015748031496063,
                    "duration": 0.2298849999999959
                },
                {
                    "name": "G#3",
                    "midi": 56,
                    "time": 219.54017500000091,
                    "velocity": 0.4251968503937008,
                    "duration": 0.2298849999999959
                },
                {
                    "name": "F3",
                    "midi": 53,
                    "time": 219.7700600000009,
                    "velocity": 0.47244094488188976,
                    "duration": 0.2298849999999959
                },
                {
                    "name": "G#3",
                    "midi": 56,
                    "time": 219.9999450000009,
                    "velocity": 0.4251968503937008,
                    "duration": 0.2298849999999959
                },
                {
                    "name": "F3",
                    "midi": 53,
                    "time": 220.2298300000009,
                    "velocity": 0.47244094488188976,
                    "duration": 0.2298849999999959
                },
                {
                    "name": "G#3",
                    "midi": 56,
                    "time": 220.4597150000009,
                    "velocity": 0.4251968503937008,
                    "duration": 0.2298849999999959
                },
                {
                    "name": "G3",
                    "midi": 55,
                    "time": 220.91948500000092,
                    "velocity": 0.4094488188976378,
                    "duration": 0.2298849999999959
                },
                {
                    "name": "D#3",
                    "midi": 51,
                    "time": 221.1493700000009,
                    "velocity": 0.44881889763779526,
                    "duration": 0.2298849999999959
                },
                {
                    "name": "G3",
                    "midi": 55,
                    "time": 221.3792550000009,
                    "velocity": 0.41732283464566927,
                    "duration": 0.2298849999999959
                },
                {
                    "name": "D#3",
                    "midi": 51,
                    "time": 221.6091400000009,
                    "velocity": 0.44881889763779526,
                    "duration": 0.2298849999999959
                },
                {
                    "name": "G3",
                    "midi": 55,
                    "time": 221.8390250000009,
                    "velocity": 0.4251968503937008,
                    "duration": 0.2298849999999959
                },
                {
                    "name": "F3",
                    "midi": 53,
                    "time": 222.2987950000009,
                    "velocity": 0.4409448818897638,
                    "duration": 0.2298849999999959
                },
                {
                    "name": "G#2",
                    "midi": 44,
                    "time": 222.5286800000009,
                    "velocity": 0.48031496062992124,
                    "duration": 0.2298849999999959
                },
                {
                    "name": "F3",
                    "midi": 53,
                    "time": 222.75856500000089,
                    "velocity": 0.4330708661417323,
                    "duration": 0.2298849999999959
                },
                {
                    "name": "G#2",
                    "midi": 44,
                    "time": 222.98845000000088,
                    "velocity": 0.48031496062992124,
                    "duration": 0.2298849999999959
                },
                {
                    "name": "F3",
                    "midi": 53,
                    "time": 223.21833500000088,
                    "velocity": 0.48031496062992124,
                    "duration": 0.2298849999999959
                },
                {
                    "name": "D#3",
                    "midi": 51,
                    "time": 223.67810500000087,
                    "velocity": 0.4251968503937008,
                    "duration": 0.2298849999999959
                },
                {
                    "name": "G2",
                    "midi": 43,
                    "time": 223.90799000000086,
                    "velocity": 0.47244094488188976,
                    "duration": 0.2298849999999959
                },
                {
                    "name": "D#3",
                    "midi": 51,
                    "time": 224.13787500000086,
                    "velocity": 0.4409448818897638,
                    "duration": 0.2298849999999959
                },
                {
                    "name": "G2",
                    "midi": 43,
                    "time": 224.36776000000086,
                    "velocity": 0.48031496062992124,
                    "duration": 0.2298849999999959
                },
                {
                    "name": "D#3",
                    "midi": 51,
                    "time": 224.59764500000085,
                    "velocity": 0.4330708661417323,
                    "duration": 0.2298849999999959
                },
                {
                    "name": "D3",
                    "midi": 50,
                    "time": 225.05741500000084,
                    "velocity": 0.4566929133858268,
                    "duration": 0.2298849999999959
                },
                {
                    "name": "F2",
                    "midi": 41,
                    "time": 225.28730000000084,
                    "velocity": 0.49606299212598426,
                    "duration": 0.2298849999999959
                },
                {
                    "name": "D3",
                    "midi": 50,
                    "time": 225.51718500000084,
                    "velocity": 0.44881889763779526,
                    "duration": 0.2298849999999959
                },
                {
                    "name": "F2",
                    "midi": 41,
                    "time": 225.74707000000083,
                    "velocity": 0.49606299212598426,
                    "duration": 0.2298849999999959
                },
                {
                    "name": "D3",
                    "midi": 50,
                    "time": 225.97695500000083,
                    "velocity": 0.4409448818897638,
                    "duration": 0.2298849999999959
                },
                {
                    "name": "C3",
                    "midi": 48,
                    "time": 226.43672500000082,
                    "velocity": 0.4645669291338583,
                    "duration": 0.2298849999999959
                },
                {
                    "name": "D#2",
                    "midi": 39,
                    "time": 226.66661000000082,
                    "velocity": 0.49606299212598426,
                    "duration": 0.2298849999999959
                },
                {
                    "name": "C3",
                    "midi": 48,
                    "time": 226.8964950000008,
                    "velocity": 0.47244094488188976,
                    "duration": 0.2298849999999959
                },
                {
                    "name": "D#2",
                    "midi": 39,
                    "time": 227.1263800000008,
                    "velocity": 0.5039370078740157,
                    "duration": 0.2298849999999959
                },
                {
                    "name": "C3",
                    "midi": 48,
                    "time": 227.3562650000008,
                    "velocity": 0.4645669291338583,
                    "duration": 0.2298849999999959
                },
                {
                    "name": "B2",
                    "midi": 47,
                    "time": 227.8160350000008,
                    "velocity": 0.47244094488188976,
                    "duration": 0.2298849999999959
                },
                {
                    "name": "D2",
                    "midi": 38,
                    "time": 228.0459200000008,
                    "velocity": 0.5118110236220472,
                    "duration": 0.2298849999999959
                },
                {
                    "name": "B2",
                    "midi": 47,
                    "time": 228.2758050000008,
                    "velocity": 0.4645669291338583,
                    "duration": 0.2298849999999959
                },
                {
                    "name": "D2",
                    "midi": 38,
                    "time": 228.50569000000078,
                    "velocity": 0.5039370078740157,
                    "duration": 0.2298849999999959
                },
                {
                    "name": "B2",
                    "midi": 47,
                    "time": 228.73557500000078,
                    "velocity": 0.4881889763779528,
                    "duration": 0.2298849999999959
                },
                {
                    "name": "D#2",
                    "midi": 39,
                    "time": 228.96546000000077,
                    "velocity": 0.5905511811023622,
                    "duration": 0.2298849999999959
                },
                {
                    "name": "C3",
                    "midi": 48,
                    "time": 229.19534500000077,
                    "velocity": 0.4881889763779528,
                    "duration": 0.2298849999999959
                },
                {
                    "name": "D#2",
                    "midi": 39,
                    "time": 229.42523000000077,
                    "velocity": 0.5196850393700787,
                    "duration": 0.2298849999999959
                },
                {
                    "name": "C3",
                    "midi": 48,
                    "time": 229.65511500000076,
                    "velocity": 0.48031496062992124,
                    "duration": 0.2298849999999959
                },
                {
                    "name": "D#2",
                    "midi": 39,
                    "time": 229.88500000000076,
                    "velocity": 0.5118110236220472,
                    "duration": 0.2298849999999959
                },
                {
                    "name": "C3",
                    "midi": 48,
                    "time": 230.11488500000075,
                    "velocity": 0.48031496062992124,
                    "duration": 0.2298849999999959
                },
                {
                    "name": "E2",
                    "midi": 40,
                    "time": 230.34477000000075,
                    "velocity": 0.6062992125984252,
                    "duration": 0.2298849999999959
                },
                {
                    "name": "A#2",
                    "midi": 46,
                    "time": 230.57465500000075,
                    "velocity": 0.49606299212598426,
                    "duration": 0.2298849999999959
                },
                {
                    "name": "A#1",
                    "midi": 34,
                    "time": 230.80454000000074,
                    "velocity": 0.5275590551181102,
                    "duration": 0.4597699999999918
                },
                {
                    "name": "E2",
                    "midi": 40,
                    "time": 230.80454000000074,
                    "velocity": 0.5275590551181102,
                    "duration": 0.2298849999999959
                },
                {
                    "name": "A#2",
                    "midi": 46,
                    "time": 231.03442500000074,
                    "velocity": 0.49606299212598426,
                    "duration": 0.2298849999999959
                },
                {
                    "name": "A#1",
                    "midi": 34,
                    "time": 231.26431000000073,
                    "velocity": 0.5275590551181102,
                    "duration": 0.4597699999999918
                },
                {
                    "name": "E2",
                    "midi": 40,
                    "time": 231.26431000000073,
                    "velocity": 0.5196850393700787,
                    "duration": 0.2298849999999959
                },
                {
                    "name": "A#2",
                    "midi": 46,
                    "time": 231.49419500000073,
                    "velocity": 0.49606299212598426,
                    "duration": 0.2298849999999959
                },
                {
                    "name": "C#3",
                    "midi": 49,
                    "time": 235.86201000000074,
                    "velocity": 0.5039370078740157,
                    "duration": 0.22988500000002432
                },
                {
                    "name": "A3",
                    "midi": 57,
                    "time": 236.09189500000076,
                    "velocity": 0.4330708661417323,
                    "duration": 0.2298849999999959
                },
                {
                    "name": "C#3",
                    "midi": 49,
                    "time": 236.32178000000076,
                    "velocity": 0.49606299212598426,
                    "duration": 0.2298849999999959
                },
                {
                    "name": "A3",
                    "midi": 57,
                    "time": 236.55166500000075,
                    "velocity": 0.41732283464566927,
                    "duration": 0.2298849999999959
                },
                {
                    "name": "C#3",
                    "midi": 49,
                    "time": 236.78155000000075,
                    "velocity": 0.49606299212598426,
                    "duration": 0.2298849999999959
                },
                {
                    "name": "A3",
                    "midi": 57,
                    "time": 237.01143500000074,
                    "velocity": 0.4330708661417323,
                    "duration": 0.2298849999999959
                },
                {
                    "name": "D3",
                    "midi": 50,
                    "time": 237.24132000000074,
                    "velocity": 0.49606299212598426,
                    "duration": 0.2298849999999959
                },
                {
                    "name": "B3",
                    "midi": 59,
                    "time": 237.47120500000074,
                    "velocity": 0.4330708661417323,
                    "duration": 0.2298849999999959
                },
                {
                    "name": "D3",
                    "midi": 50,
                    "time": 237.70109000000073,
                    "velocity": 0.49606299212598426,
                    "duration": 0.2298849999999959
                },
                {
                    "name": "B3",
                    "midi": 59,
                    "time": 237.93097500000073,
                    "velocity": 0.41732283464566927,
                    "duration": 0.2298849999999959
                },
                {
                    "name": "D3",
                    "midi": 50,
                    "time": 238.16086000000072,
                    "velocity": 0.4881889763779528,
                    "duration": 0.2298849999999959
                },
                {
                    "name": "B3",
                    "midi": 59,
                    "time": 238.39074500000072,
                    "velocity": 0.41732283464566927,
                    "duration": 0.2298849999999959
                },
                {
                    "name": "E3",
                    "midi": 52,
                    "time": 238.62063000000072,
                    "velocity": 0.4881889763779528,
                    "duration": 0.2298849999999959
                },
                {
                    "name": "C#4",
                    "midi": 61,
                    "time": 238.8505150000007,
                    "velocity": 0.4251968503937008,
                    "duration": 0.2298849999999959
                },
                {
                    "name": "E3",
                    "midi": 52,
                    "time": 239.0804000000007,
                    "velocity": 0.48031496062992124,
                    "duration": 0.2298849999999959
                },
                {
                    "name": "C#4",
                    "midi": 61,
                    "time": 239.3102850000007,
                    "velocity": 0.41732283464566927,
                    "duration": 0.2298849999999959
                },
                {
                    "name": "E3",
                    "midi": 52,
                    "time": 239.5401700000007,
                    "velocity": 0.4881889763779528,
                    "duration": 0.2298849999999959
                },
                {
                    "name": "C#4",
                    "midi": 61,
                    "time": 239.7700550000007,
                    "velocity": 0.4251968503937008,
                    "duration": 0.2298849999999959
                },
                {
                    "name": "F3",
                    "midi": 53,
                    "time": 239.9999400000007,
                    "velocity": 0.5118110236220472,
                    "duration": 0.2298849999999959
                },
                {
                    "name": "D4",
                    "midi": 62,
                    "time": 240.2298250000007,
                    "velocity": 0.4330708661417323,
                    "duration": 0.2298849999999959
                },
                {
                    "name": "F3",
                    "midi": 53,
                    "time": 240.45971000000068,
                    "velocity": 0.47244094488188976,
                    "duration": 0.2298849999999959
                },
                {
                    "name": "D4",
                    "midi": 62,
                    "time": 240.68959500000068,
                    "velocity": 0.4094488188976378,
                    "duration": 0.2298849999999959
                },
                {
                    "name": "F3",
                    "midi": 53,
                    "time": 240.91948000000068,
                    "velocity": 0.47244094488188976,
                    "duration": 0.2298849999999959
                },
                {
                    "name": "D4",
                    "midi": 62,
                    "time": 241.14936500000067,
                    "velocity": 0.4094488188976378,
                    "duration": 0.2298849999999959
                },
                {
                    "name": "G3",
                    "midi": 55,
                    "time": 241.37925000000067,
                    "velocity": 0.4645669291338583,
                    "duration": 0.2298849999999959
                },
                {
                    "name": "E4",
                    "midi": 64,
                    "time": 241.60913500000066,
                    "velocity": 0.41732283464566927,
                    "duration": 0.2298849999999959
                },
                {
                    "name": "G3",
                    "midi": 55,
                    "time": 241.83902000000066,
                    "velocity": 0.4566929133858268,
                    "duration": 0.2298849999999959
                },
                {
                    "name": "E4",
                    "midi": 64,
                    "time": 242.06890500000065,
                    "velocity": 0.4015748031496063,
                    "duration": 0.2298849999999959
                },
                {
                    "name": "G3",
                    "midi": 55,
                    "time": 242.29879000000065,
                    "velocity": 0.4566929133858268,
                    "duration": 0.2298849999999959
                },
                {
                    "name": "E4",
                    "midi": 64,
                    "time": 242.52867500000065,
                    "velocity": 0.4015748031496063,
                    "duration": 0.2298849999999959
                },
                {
                    "name": "A3",
                    "midi": 57,
                    "time": 242.75856000000064,
                    "velocity": 0.44881889763779526,
                    "duration": 0.2298849999999959
                },
                {
                    "name": "F4",
                    "midi": 65,
                    "time": 242.98844500000064,
                    "velocity": 0.4015748031496063,
                    "duration": 0.2298849999999959
                },
                {
                    "name": "A3",
                    "midi": 57,
                    "time": 243.21833000000063,
                    "velocity": 0.4409448818897638,
                    "duration": 0.2298849999999959
                },
                {
                    "name": "F4",
                    "midi": 65,
                    "time": 243.44821500000063,
                    "velocity": 0.3937007874015748,
                    "duration": 0.2298849999999959
                },
                {
                    "name": "A3",
                    "midi": 57,
                    "time": 243.67810000000063,
                    "velocity": 0.44881889763779526,
                    "duration": 0.2298849999999959
                },
                {
                    "name": "F4",
                    "midi": 65,
                    "time": 243.90798500000062,
                    "velocity": 0.4015748031496063,
                    "duration": 0.2298849999999959
                },
                {
                    "name": "A#3",
                    "midi": 58,
                    "time": 252.6436150000006,
                    "velocity": 0.4251968503937008,
                    "duration": 0.2298849999999959
                },
                {
                    "name": "G3",
                    "midi": 55,
                    "time": 252.8735000000006,
                    "velocity": 0.47244094488188976,
                    "duration": 0.2298849999999959
                },
                {
                    "name": "A#3",
                    "midi": 58,
                    "time": 253.1033850000006,
                    "velocity": 0.41732283464566927,
                    "duration": 0.2298849999999959
                },
                {
                    "name": "G3",
                    "midi": 55,
                    "time": 253.3332700000006,
                    "velocity": 0.47244094488188976,
                    "duration": 0.2298849999999959
                },
                {
                    "name": "A#3",
                    "midi": 58,
                    "time": 253.5631550000006,
                    "velocity": 0.4251968503937008,
                    "duration": 0.2298849999999959
                },
                {
                    "name": "A3",
                    "midi": 57,
                    "time": 254.0229250000006,
                    "velocity": 0.4094488188976378,
                    "duration": 0.2298849999999959
                },
                {
                    "name": "F3",
                    "midi": 53,
                    "time": 254.2528100000006,
                    "velocity": 0.44881889763779526,
                    "duration": 0.2298849999999959
                },
                {
                    "name": "A3",
                    "midi": 57,
                    "time": 254.4826950000006,
                    "velocity": 0.4015748031496063,
                    "duration": 0.2298849999999959
                },
                {
                    "name": "F3",
                    "midi": 53,
                    "time": 254.7125800000006,
                    "velocity": 0.44881889763779526,
                    "duration": 0.2298849999999959
                },
                {
                    "name": "A3",
                    "midi": 57,
                    "time": 254.9424650000006,
                    "velocity": 0.41732283464566927,
                    "duration": 0.2298849999999959
                },
                {
                    "name": "G3",
                    "midi": 55,
                    "time": 255.4022350000006,
                    "velocity": 0.4330708661417323,
                    "duration": 0.2298849999999959
                },
                {
                    "name": "A#2",
                    "midi": 46,
                    "time": 255.63212000000058,
                    "velocity": 0.48031496062992124,
                    "duration": 0.2298849999999959
                },
                {
                    "name": "G3",
                    "midi": 55,
                    "time": 255.86200500000058,
                    "velocity": 0.4251968503937008,
                    "duration": 0.22988500000002432
                },
                {
                    "name": "A#2",
                    "midi": 46,
                    "time": 256.0918900000006,
                    "velocity": 0.48031496062992124,
                    "duration": 0.22988500000002432
                },
                {
                    "name": "G3",
                    "midi": 55,
                    "time": 256.3217750000006,
                    "velocity": 0.4251968503937008,
                    "duration": 0.22988500000002432
                },
                {
                    "name": "F3",
                    "midi": 53,
                    "time": 256.7815450000007,
                    "velocity": 0.4251968503937008,
                    "duration": 0.22988500000002432
                },
                {
                    "name": "A2",
                    "midi": 45,
                    "time": 257.0114300000007,
                    "velocity": 0.47244094488188976,
                    "duration": 0.22988500000002432
                },
                {
                    "name": "F3",
                    "midi": 53,
                    "time": 257.2413150000007,
                    "velocity": 0.4251968503937008,
                    "duration": 0.22988500000002432
                },
                {
                    "name": "A2",
                    "midi": 45,
                    "time": 257.47120000000075,
                    "velocity": 0.48031496062992124,
                    "duration": 0.22988500000002432
                },
                {
                    "name": "F3",
                    "midi": 53,
                    "time": 257.7010850000008,
                    "velocity": 0.4330708661417323,
                    "duration": 0.22988500000002432
                },
                {
                    "name": "E3",
                    "midi": 52,
                    "time": 258.1608550000008,
                    "velocity": 0.44881889763779526,
                    "duration": 0.22988500000002432
                },
                {
                    "name": "G2",
                    "midi": 43,
                    "time": 258.39074000000085,
                    "velocity": 0.49606299212598426,
                    "duration": 0.22988500000002432
                },
                {
                    "name": "E3",
                    "midi": 52,
                    "time": 258.62062500000087,
                    "velocity": 0.4409448818897638,
                    "duration": 0.22988500000002432
                },
                {
                    "name": "G2",
                    "midi": 43,
                    "time": 258.8505100000009,
                    "velocity": 0.49606299212598426,
                    "duration": 0.22988500000002432
                },
                {
                    "name": "E3",
                    "midi": 52,
                    "time": 259.0803950000009,
                    "velocity": 0.44881889763779526,
                    "duration": 0.22988500000002432
                },
                {
                    "name": "D3",
                    "midi": 50,
                    "time": 259.54016500000097,
                    "velocity": 0.4566929133858268,
                    "duration": 0.22988500000002432
                },
                {
                    "name": "F2",
                    "midi": 41,
                    "time": 259.770050000001,
                    "velocity": 0.49606299212598426,
                    "duration": 0.22988500000002432
                },
                {
                    "name": "D3",
                    "midi": 50,
                    "time": 259.999935000001,
                    "velocity": 0.4566929133858268,
                    "duration": 0.22988500000002432
                },
                {
                    "name": "F2",
                    "midi": 41,
                    "time": 260.22982000000104,
                    "velocity": 0.5039370078740157,
                    "duration": 0.22988500000002432
                },
                {
                    "name": "D3",
                    "midi": 50,
                    "time": 260.45970500000107,
                    "velocity": 0.47244094488188976,
                    "duration": 0.22988500000002432
                },
                {
                    "name": "C#3",
                    "midi": 49,
                    "time": 260.91947500000106,
                    "velocity": 0.48031496062992124,
                    "duration": 0.22988500000002432
                },
                {
                    "name": "E2",
                    "midi": 40,
                    "time": 261.1493600000011,
                    "velocity": 0.5118110236220472,
                    "duration": 0.22988500000002432
                },
                {
                    "name": "C#3",
                    "midi": 49,
                    "time": 261.3792450000011,
                    "velocity": 0.4645669291338583,
                    "duration": 0.22988500000002432
                },
                {
                    "name": "E2",
                    "midi": 40,
                    "time": 261.60913000000113,
                    "velocity": 0.5039370078740157,
                    "duration": 0.22988500000002432
                },
                {
                    "name": "C#3",
                    "midi": 49,
                    "time": 261.83901500000115,
                    "velocity": 0.47244094488188976,
                    "duration": 0.22988500000002432
                },
                {
                    "name": "A2",
                    "midi": 45,
                    "time": 262.0689000000012,
                    "velocity": 0.5905511811023622,
                    "duration": 0.22988500000002432
                },
                {
                    "name": "F2",
                    "midi": 41,
                    "time": 262.0689000000012,
                    "velocity": 0.5039370078740157,
                    "duration": 0.22988500000002432
                },
                {
                    "name": "D3",
                    "midi": 50,
                    "time": 262.2987850000012,
                    "velocity": 0.49606299212598426,
                    "duration": 0.22988500000002432
                },
                {
                    "name": "A2",
                    "midi": 45,
                    "time": 262.5286700000012,
                    "velocity": 0.44881889763779526,
                    "duration": 0.22988500000002432
                },
                {
                    "name": "D2",
                    "midi": 38,
                    "time": 262.5286700000012,
                    "velocity": 0.44881889763779526,
                    "duration": 0.22988500000002432
                },
                {
                    "name": "F2",
                    "midi": 41,
                    "time": 262.5286700000012,
                    "velocity": 0.5196850393700787,
                    "duration": 0.22988500000002432
                },
                {
                    "name": "D3",
                    "midi": 50,
                    "time": 262.75855500000125,
                    "velocity": 0.4881889763779528,
                    "duration": 0.22988500000002432
                },
                {
                    "name": "A2",
                    "midi": 45,
                    "time": 262.9884400000013,
                    "velocity": 0.49606299212598426,
                    "duration": 0.22988500000002432
                },
                {
                    "name": "D2",
                    "midi": 38,
                    "time": 262.9884400000013,
                    "velocity": 0.49606299212598426,
                    "duration": 0.22988500000002432
                },
                {
                    "name": "F2",
                    "midi": 41,
                    "time": 262.9884400000013,
                    "velocity": 0.5118110236220472,
                    "duration": 0.22988500000002432
                },
                {
                    "name": "D3",
                    "midi": 50,
                    "time": 263.2183250000013,
                    "velocity": 0.4881889763779528,
                    "duration": 0.22988500000002432
                },
                {
                    "name": "A2",
                    "midi": 45,
                    "time": 263.4482100000013,
                    "velocity": 0.6062992125984252,
                    "duration": 0.22988499999996748
                },
                {
                    "name": "E2",
                    "midi": 40,
                    "time": 263.4482100000013,
                    "velocity": 0.6062992125984252,
                    "duration": 0.22988499999996748
                },
                {
                    "name": "C#3",
                    "midi": 49,
                    "time": 263.6780950000013,
                    "velocity": 0.49606299212598426,
                    "duration": 0.22988500000002432
                },
                {
                    "name": "A2",
                    "midi": 45,
                    "time": 263.9079800000013,
                    "velocity": 0.5275590551181102,
                    "duration": 0.22988500000002432
                },
                {
                    "name": "C#2",
                    "midi": 37,
                    "time": 263.9079800000013,
                    "velocity": 0.5275590551181102,
                    "duration": 0.22988500000002432
                },
                {
                    "name": "E2",
                    "midi": 40,
                    "time": 263.9079800000013,
                    "velocity": 0.5275590551181102,
                    "duration": 0.22988500000002432
                },
                {
                    "name": "C#3",
                    "midi": 49,
                    "time": 264.13786500000134,
                    "velocity": 0.4881889763779528,
                    "duration": 0.22988500000002432
                },
                {
                    "name": "E2",
                    "midi": 40,
                    "time": 264.36775000000137,
                    "velocity": 0.5196850393700787,
                    "duration": 0.22988500000002432
                },
                {
                    "name": "C#2",
                    "midi": 37,
                    "time": 264.36775000000137,
                    "velocity": 0.5275590551181102,
                    "duration": 0.22988500000002432
                },
                {
                    "name": "A2",
                    "midi": 45,
                    "time": 264.36775000000137,
                    "velocity": 0.5196850393700787,
                    "duration": 0.22988500000002432
                },
                {
                    "name": "C#3",
                    "midi": 49,
                    "time": 264.5976350000014,
                    "velocity": 0.49606299212598426,
                    "duration": 0.22988500000002432
                },
                {
                    "name": "G#3",
                    "midi": 56,
                    "time": 273.10338000000144,
                    "velocity": 0.5984251968503937,
                    "duration": 0.3448274999999512
                },
                {
                    "name": "E2",
                    "midi": 40,
                    "time": 273.7930350000014,
                    "velocity": 0.49606299212598426,
                    "duration": 0.34482750000000806
                },
                {
                    "name": "C4",
                    "midi": 60,
                    "time": 274.4826900000014,
                    "velocity": 0.5826771653543307,
                    "duration": 0.34482750000000806
                },
                {
                    "name": "E3",
                    "midi": 52,
                    "time": 275.1723450000014,
                    "velocity": 0.49606299212598426,
                    "duration": 0.34482750000000806
                },
                {
                    "name": "B3",
                    "midi": 59,
                    "time": 275.86200000000144,
                    "velocity": 0.5905511811023622,
                    "duration": 0.34482750000000806
                },
                {
                    "name": "E2",
                    "midi": 40,
                    "time": 276.55165500000146,
                    "velocity": 0.5039370078740157,
                    "duration": 0.34482750000000806
                },
                {
                    "name": "A#3",
                    "midi": 58,
                    "time": 277.2413100000015,
                    "velocity": 0.5905511811023622,
                    "duration": 0.34482750000000806
                },
                {
                    "name": "E3",
                    "midi": 52,
                    "time": 277.9309650000015,
                    "velocity": 0.5039370078740157,
                    "duration": 0.34482750000000806
                },
                {
                    "name": "D#3",
                    "midi": 51,
                    "time": 278.6206200000015,
                    "velocity": 0.6062992125984252,
                    "duration": 0.34482750000000806
                },
                {
                    "name": "A3",
                    "midi": 57,
                    "time": 278.6206200000015,
                    "velocity": 0.6062992125984252,
                    "duration": 0.34482750000000806
                },
                {
                    "name": "E2",
                    "midi": 40,
                    "time": 279.3102750000015,
                    "velocity": 0.5039370078740157,
                    "duration": 0.34482750000000806
                },
                {
                    "name": "E3",
                    "midi": 52,
                    "time": 279.99993000000154,
                    "velocity": 0.5275590551181102,
                    "duration": 0.34482750000000806
                },
                {
                    "name": "G#3",
                    "midi": 56,
                    "time": 279.99993000000154,
                    "velocity": 0.6299212598425197,
                    "duration": 0.34482750000000806
                },
                {
                    "name": "A3",
                    "midi": 57,
                    "time": 289.65510000000154,
                    "velocity": 0.5748031496062992,
                    "duration": 0.34482750000000806
                },
                {
                    "name": "F2",
                    "midi": 41,
                    "time": 290.34475500000156,
                    "velocity": 0.49606299212598426,
                    "duration": 0.34482750000000806
                },
                {
                    "name": "C#4",
                    "midi": 61,
                    "time": 291.03441000000157,
                    "velocity": 0.5984251968503937,
                    "duration": 0.34482750000000806
                },
                {
                    "name": "F3",
                    "midi": 53,
                    "time": 291.7240650000016,
                    "velocity": 0.49606299212598426,
                    "duration": 0.34482750000000806
                },
                {
                    "name": "C4",
                    "midi": 60,
                    "time": 292.4137200000016,
                    "velocity": 0.5669291338582677,
                    "duration": 0.34482750000000806
                },
                {
                    "name": "F2",
                    "midi": 41,
                    "time": 293.1033750000016,
                    "velocity": 0.5039370078740157,
                    "duration": 0.34482750000000806
                },
                {
                    "name": "B3",
                    "midi": 59,
                    "time": 293.79303000000164,
                    "velocity": 0.5669291338582677,
                    "duration": 0.34482750000000806
                },
                {
                    "name": "F3",
                    "midi": 53,
                    "time": 294.48268500000165,
                    "velocity": 0.5039370078740157,
                    "duration": 0.34482750000000806
                },
                {
                    "name": "E3",
                    "midi": 52,
                    "time": 295.17234000000167,
                    "velocity": 0.4881889763779528,
                    "duration": 0.34482750000000806
                },
                {
                    "name": "A#3",
                    "midi": 58,
                    "time": 295.17234000000167,
                    "velocity": 0.5669291338582677,
                    "duration": 0.34482750000000806
                },
                {
                    "name": "F2",
                    "midi": 41,
                    "time": 295.8619950000017,
                    "velocity": 0.5039370078740157,
                    "duration": 0.34482750000000806
                },
                {
                    "name": "F3",
                    "midi": 53,
                    "time": 296.5516500000017,
                    "velocity": 0.4881889763779528,
                    "duration": 0.34482750000000806
                },
                {
                    "name": "A3",
                    "midi": 57,
                    "time": 296.5516500000017,
                    "velocity": 0.5669291338582677,
                    "duration": 0.34482750000000806
                },
                {
                    "name": "G3",
                    "midi": 55,
                    "time": 306.2068200000017,
                    "velocity": 0.5669291338582677,
                    "duration": 0.34482750000000806
                },
                {
                    "name": "G2",
                    "midi": 43,
                    "time": 306.8964750000017,
                    "velocity": 0.49606299212598426,
                    "duration": 0.34482750000000806
                },
                {
                    "name": "B3",
                    "midi": 59,
                    "time": 307.58613000000173,
                    "velocity": 0.49606299212598426,
                    "duration": 0.34482750000000806
                },
                {
                    "name": "D4",
                    "midi": 62,
                    "time": 307.58613000000173,
                    "velocity": 0.5669291338582677,
                    "duration": 0.34482750000000806
                },
                {
                    "name": "B2",
                    "midi": 47,
                    "time": 308.27578500000175,
                    "velocity": 0.49606299212598426,
                    "duration": 0.34482750000000806
                },
                {
                    "name": "C4",
                    "midi": 60,
                    "time": 308.96544000000176,
                    "velocity": 0.5669291338582677,
                    "duration": 0.34482750000000806
                },
                {
                    "name": "C3",
                    "midi": 48,
                    "time": 309.6550950000018,
                    "velocity": 0.5039370078740157,
                    "duration": 0.34482750000000806
                },
                {
                    "name": "A#3",
                    "midi": 58,
                    "time": 310.3447500000018,
                    "velocity": 0.5669291338582677,
                    "duration": 0.34482750000000806
                },
                {
                    "name": "A#2",
                    "midi": 46,
                    "time": 311.0344050000018,
                    "velocity": 0.5039370078740157,
                    "duration": 0.34482750000000806
                },
                {
                    "name": "A3",
                    "midi": 57,
                    "time": 311.7240600000018,
                    "velocity": 0.4881889763779528,
                    "duration": 0.34482750000000806
                },
                {
                    "name": "C4",
                    "midi": 60,
                    "time": 311.7240600000018,
                    "velocity": 0.5669291338582677,
                    "duration": 0.34482750000000806
                },
                {
                    "name": "A2",
                    "midi": 45,
                    "time": 312.41371500000184,
                    "velocity": 0.5039370078740157,
                    "duration": 0.34482750000000806
                },
                {
                    "name": "G3",
                    "midi": 55,
                    "time": 313.10337000000186,
                    "velocity": 0.4881889763779528,
                    "duration": 0.34482750000000806
                },
                {
                    "name": "A3",
                    "midi": 57,
                    "time": 313.10337000000186,
                    "velocity": 0.5669291338582677,
                    "duration": 0.34482750000000806
                },
                {
                    "name": "G2",
                    "midi": 43,
                    "time": 313.7930250000019,
                    "velocity": 0.5039370078740157,
                    "duration": 0.34482750000000806
                },
                {
                    "name": "F3",
                    "midi": 53,
                    "time": 314.4826800000019,
                    "velocity": 0.5669291338582677,
                    "duration": 0.34482750000000806
                },
                {
                    "name": "F2",
                    "midi": 41,
                    "time": 315.1723350000019,
                    "velocity": 0.49606299212598426,
                    "duration": 0.34482750000000806
                },
                {
                    "name": "A3",
                    "midi": 57,
                    "time": 315.8619900000019,
                    "velocity": 0.49606299212598426,
                    "duration": 0.34482750000000806
                },
                {
                    "name": "C4",
                    "midi": 60,
                    "time": 315.8619900000019,
                    "velocity": 0.5669291338582677,
                    "duration": 0.34482750000000806
                },
                {
                    "name": "A2",
                    "midi": 45,
                    "time": 316.55164500000194,
                    "velocity": 0.49606299212598426,
                    "duration": 0.34482750000000806
                },
                {
                    "name": "A#3",
                    "midi": 58,
                    "time": 317.24130000000196,
                    "velocity": 0.5669291338582677,
                    "duration": 0.34482750000000806
                },
                {
                    "name": "A#2",
                    "midi": 46,
                    "time": 317.930955000002,
                    "velocity": 0.5039370078740157,
                    "duration": 0.34482750000000806
                },
                {
                    "name": "A3",
                    "midi": 57,
                    "time": 318.620610000002,
                    "velocity": 0.5669291338582677,
                    "duration": 0.34482750000000806
                },
                {
                    "name": "A2",
                    "midi": 45,
                    "time": 319.310265000002,
                    "velocity": 0.5039370078740157,
                    "duration": 0.34482750000000806
                },
                {
                    "name": "G3",
                    "midi": 55,
                    "time": 319.999920000002,
                    "velocity": 0.4881889763779528,
                    "duration": 0.34482750000000806
                },
                {
                    "name": "A#3",
                    "midi": 58,
                    "time": 319.999920000002,
                    "velocity": 0.5669291338582677,
                    "duration": 0.34482750000000806
                },
                {
                    "name": "G2",
                    "midi": 43,
                    "time": 320.68957500000204,
                    "velocity": 0.5039370078740157,
                    "duration": 0.34482750000000806
                },
                {
                    "name": "F3",
                    "midi": 53,
                    "time": 321.37923000000205,
                    "velocity": 0.4881889763779528,
                    "duration": 0.34482750000000806
                },
                {
                    "name": "A3",
                    "midi": 57,
                    "time": 321.37923000000205,
                    "velocity": 0.5669291338582677,
                    "duration": 0.34482750000000806
                },
                {
                    "name": "F2",
                    "midi": 41,
                    "time": 322.06888500000207,
                    "velocity": 0.5039370078740157,
                    "duration": 0.34482750000000806
                },
                {
                    "name": "D#3",
                    "midi": 51,
                    "time": 322.7585400000021,
                    "velocity": 0.5669291338582677,
                    "duration": 0.34482750000000806
                },
                {
                    "name": "D#2",
                    "midi": 39,
                    "time": 323.4481950000021,
                    "velocity": 0.49606299212598426,
                    "duration": 0.34482750000000806
                },
                {
                    "name": "G3",
                    "midi": 55,
                    "time": 324.1378500000021,
                    "velocity": 0.49606299212598426,
                    "duration": 0.34482750000000806
                },
                {
                    "name": "A#3",
                    "midi": 58,
                    "time": 324.1378500000021,
                    "velocity": 0.5669291338582677,
                    "duration": 0.34482750000000806
                },
                {
                    "name": "G2",
                    "midi": 43,
                    "time": 324.82750500000213,
                    "velocity": 0.49606299212598426,
                    "duration": 0.34482750000000806
                },
                {
                    "name": "A3",
                    "midi": 57,
                    "time": 325.51716000000215,
                    "velocity": 0.5669291338582677,
                    "duration": 0.34482750000000806
                },
                {
                    "name": "A2",
                    "midi": 45,
                    "time": 326.20681500000217,
                    "velocity": 0.5039370078740157,
                    "duration": 0.34482750000000806
                },
                {
                    "name": "G3",
                    "midi": 55,
                    "time": 326.8964700000022,
                    "velocity": 0.5669291338582677,
                    "duration": 0.34482750000000806
                },
                {
                    "name": "G2",
                    "midi": 43,
                    "time": 327.5861250000022,
                    "velocity": 0.5039370078740157,
                    "duration": 0.34482750000000806
                },
                {
                    "name": "F#3",
                    "midi": 54,
                    "time": 328.2757800000022,
                    "velocity": 0.4881889763779528,
                    "duration": 0.34482750000000806
                },
                {
                    "name": "A3",
                    "midi": 57,
                    "time": 328.2757800000022,
                    "velocity": 0.5669291338582677,
                    "duration": 0.34482750000000806
                },
                {
                    "name": "F#2",
                    "midi": 42,
                    "time": 328.96543500000223,
                    "velocity": 0.5039370078740157,
                    "duration": 0.34482750000000806
                },
                {
                    "name": "D#3",
                    "midi": 51,
                    "time": 329.65509000000225,
                    "velocity": 0.4881889763779528,
                    "duration": 0.34482750000000806
                },
                {
                    "name": "G3",
                    "midi": 55,
                    "time": 329.65509000000225,
                    "velocity": 0.5669291338582677,
                    "duration": 0.34482750000000806
                },
                {
                    "name": "D#2",
                    "midi": 39,
                    "time": 330.34474500000226,
                    "velocity": 0.5039370078740157,
                    "duration": 0.34482750000000806
                },
                {
                    "name": "D3",
                    "midi": 50,
                    "time": 331.0344000000023,
                    "velocity": 0.5669291338582677,
                    "duration": 0.34482750000000806
                },
                {
                    "name": "D2",
                    "midi": 38,
                    "time": 331.7240550000023,
                    "velocity": 0.49606299212598426,
                    "duration": 0.34482750000000806
                },
                {
                    "name": "F#3",
                    "midi": 54,
                    "time": 332.4137100000023,
                    "velocity": 0.49606299212598426,
                    "duration": 0.34482750000000806
                },
                {
                    "name": "A3",
                    "midi": 57,
                    "time": 332.4137100000023,
                    "velocity": 0.5669291338582677,
                    "duration": 0.34482750000000806
                },
                {
                    "name": "F#2",
                    "midi": 42,
                    "time": 333.1033650000023,
                    "velocity": 0.49606299212598426,
                    "duration": 0.34482750000000806
                },
                {
                    "name": "G3",
                    "midi": 55,
                    "time": 333.79302000000234,
                    "velocity": 0.5669291338582677,
                    "duration": 0.34482750000000806
                },
                {
                    "name": "G2",
                    "midi": 43,
                    "time": 334.48267500000236,
                    "velocity": 0.5039370078740157,
                    "duration": 0.34482750000000806
                },
                {
                    "name": "F3",
                    "midi": 53,
                    "time": 335.1723300000024,
                    "velocity": 0.5511811023622047,
                    "duration": 0.34482750000000806
                },
                {
                    "name": "A3",
                    "midi": 57,
                    "time": 335.1723300000024,
                    "velocity": 0.5669291338582677,
                    "duration": 0.34482750000000806
                },
                {
                    "name": "F2",
                    "midi": 41,
                    "time": 335.8619850000024,
                    "velocity": 0.5039370078740157,
                    "duration": 0.34482750000000806
                },
                {
                    "name": "D#3",
                    "midi": 51,
                    "time": 336.5516400000024,
                    "velocity": 0.4881889763779528,
                    "duration": 0.34482750000000806
                },
                {
                    "name": "G3",
                    "midi": 55,
                    "time": 336.5516400000024,
                    "velocity": 0.5669291338582677,
                    "duration": 0.34482750000000806
                },
                {
                    "name": "D#2",
                    "midi": 39,
                    "time": 337.2412950000024,
                    "velocity": 0.5039370078740157,
                    "duration": 0.34482750000000806
                },
                {
                    "name": "D#3",
                    "midi": 51,
                    "time": 337.93095000000244,
                    "velocity": 0.4881889763779528,
                    "duration": 0.34482750000000806
                },
                {
                    "name": "G3",
                    "midi": 55,
                    "time": 337.93095000000244,
                    "velocity": 0.5669291338582677,
                    "duration": 0.34482750000000806
                },
                {
                    "name": "A#3",
                    "midi": 58,
                    "time": 455.1723000000035,
                    "velocity": 0.3543307086614173,
                    "duration": 0.22988500000002432
                },
                {
                    "name": "G3",
                    "midi": 55,
                    "time": 455.4021850000035,
                    "velocity": 0.30708661417322836,
                    "duration": 0.22988500000002432
                },
                {
                    "name": "A#3",
                    "midi": 58,
                    "time": 455.6320700000035,
                    "velocity": 0.3464566929133858,
                    "duration": 0.22988500000002432
                },
                {
                    "name": "G3",
                    "midi": 55,
                    "time": 455.86195500000355,
                    "velocity": 0.3228346456692913,
                    "duration": 0.22988500000002432
                },
                {
                    "name": "A#3",
                    "midi": 58,
                    "time": 456.0918400000036,
                    "velocity": 0.3858267716535433,
                    "duration": 0.22988500000002432
                },
                {
                    "name": "G3",
                    "midi": 55,
                    "time": 456.3217250000036,
                    "velocity": 0.36220472440944884,
                    "duration": 0.22988500000002432
                },
                {
                    "name": "B3",
                    "midi": 59,
                    "time": 456.5516100000036,
                    "velocity": 0.41732283464566927,
                    "duration": 0.22988500000002432
                },
                {
                    "name": "G3",
                    "midi": 55,
                    "time": 456.78149500000364,
                    "velocity": 0.3700787401574803,
                    "duration": 0.22988500000002432
                },
                {
                    "name": "B3",
                    "midi": 59,
                    "time": 457.01138000000367,
                    "velocity": 0.41732283464566927,
                    "duration": 0.22988500000002432
                },
                {
                    "name": "G3",
                    "midi": 55,
                    "time": 457.2412650000037,
                    "velocity": 0.3937007874015748,
                    "duration": 0.22988500000002432
                },
                {
                    "name": "B3",
                    "midi": 59,
                    "time": 457.4711500000037,
                    "velocity": 0.4251968503937008,
                    "duration": 0.22988500000002432
                },
                {
                    "name": "G3",
                    "midi": 55,
                    "time": 457.70103500000374,
                    "velocity": 0.3937007874015748,
                    "duration": 0.22988500000002432
                },
                {
                    "name": "C4",
                    "midi": 60,
                    "time": 457.93092000000377,
                    "velocity": 0.4645669291338583,
                    "duration": 0.22988500000002432
                },
                {
                    "name": "G3",
                    "midi": 55,
                    "time": 458.1608050000038,
                    "velocity": 0.4094488188976378,
                    "duration": 0.22988500000002432
                },
                {
                    "name": "C4",
                    "midi": 60,
                    "time": 458.3906900000038,
                    "velocity": 0.4251968503937008,
                    "duration": 0.22988500000002432
                },
                {
                    "name": "G3",
                    "midi": 55,
                    "time": 458.62057500000384,
                    "velocity": 0.3543307086614173,
                    "duration": 0.22988500000002432
                },
                {
                    "name": "C4",
                    "midi": 60,
                    "time": 458.85046000000386,
                    "velocity": 0.4015748031496063,
                    "duration": 0.22988500000002432
                },
                {
                    "name": "G3",
                    "midi": 55,
                    "time": 459.0803450000039,
                    "velocity": 0.3464566929133858,
                    "duration": 0.22988500000002432
                },
                {
                    "name": "C4",
                    "midi": 60,
                    "time": 459.3102300000039,
                    "velocity": 0.5039370078740157,
                    "duration": 0.22988500000002432
                },
                {
                    "name": "G3",
                    "midi": 55,
                    "time": 459.54011500000394,
                    "velocity": 0.3937007874015748,
                    "duration": 0.22988500000002432
                },
                {
                    "name": "C4",
                    "midi": 60,
                    "time": 459.77000000000396,
                    "velocity": 0.47244094488188976,
                    "duration": 0.22988500000002432
                },
                {
                    "name": "G3",
                    "midi": 55,
                    "time": 459.999885000004,
                    "velocity": 0.3937007874015748,
                    "duration": 0.22988500000002432
                },
                {
                    "name": "C4",
                    "midi": 60,
                    "time": 460.229770000004,
                    "velocity": 0.4409448818897638,
                    "duration": 0.22988500000002432
                },
                {
                    "name": "G3",
                    "midi": 55,
                    "time": 460.45965500000403,
                    "velocity": 0.36220472440944884,
                    "duration": 2.988505000000316
                },
                {
                    "name": "A3",
                    "midi": 57,
                    "time": 460.68954000000406,
                    "velocity": 0.4015748031496063,
                    "duration": 2.758620000000292
                },
                {
                    "name": "D#4",
                    "midi": 63,
                    "time": 460.68954000000406,
                    "velocity": 0.49606299212598426,
                    "duration": 0.22988500000002432
                },
                {
                    "name": "C4",
                    "midi": 60,
                    "time": 460.9194250000041,
                    "velocity": 0.3779527559055118,
                    "duration": 0.22988500000002432
                },
                {
                    "name": "D#4",
                    "midi": 63,
                    "time": 461.1493100000041,
                    "velocity": 0.4409448818897638,
                    "duration": 0.22988500000002432
                },
                {
                    "name": "C4",
                    "midi": 60,
                    "time": 461.37919500000413,
                    "velocity": 0.3779527559055118,
                    "duration": 0.22988500000002432
                },
                {
                    "name": "D#4",
                    "midi": 63,
                    "time": 461.60908000000416,
                    "velocity": 0.4251968503937008,
                    "duration": 0.22988500000002432
                },
                {
                    "name": "C4",
                    "midi": 60,
                    "time": 461.8389650000042,
                    "velocity": 0.3543307086614173,
                    "duration": 0.22988500000002432
                },
                {
                    "name": "D#4",
                    "midi": 63,
                    "time": 462.0688500000042,
                    "velocity": 0.4094488188976378,
                    "duration": 0.22988500000002432
                },
                {
                    "name": "C4",
                    "midi": 60,
                    "time": 462.2987350000042,
                    "velocity": 0.30708661417322836,
                    "duration": 0.22988500000002432
                },
                {
                    "name": "D#4",
                    "midi": 63,
                    "time": 462.52862000000425,
                    "velocity": 0.3700787401574803,
                    "duration": 0.22988500000002432
                },
                {
                    "name": "C4",
                    "midi": 60,
                    "time": 462.7585050000043,
                    "velocity": 0.2992125984251969,
                    "duration": 0.22988500000002432
                },
                {
                    "name": "D#4",
                    "midi": 63,
                    "time": 462.9883900000043,
                    "velocity": 0.3543307086614173,
                    "duration": 0.22988500000002432
                },
                {
                    "name": "C4",
                    "midi": 60,
                    "time": 463.2182750000043,
                    "velocity": 0.29133858267716534,
                    "duration": 0.22988500000002432
                },
                {
                    "name": "A#3",
                    "midi": 58,
                    "time": 463.44816000000435,
                    "velocity": 0.3543307086614173,
                    "duration": 0.22988500000002432
                },
                {
                    "name": "G3",
                    "midi": 55,
                    "time": 463.6780450000044,
                    "velocity": 0.30708661417322836,
                    "duration": 0.22988500000002432
                },
                {
                    "name": "A#3",
                    "midi": 58,
                    "time": 463.9079300000044,
                    "velocity": 0.3464566929133858,
                    "duration": 0.22988500000002432
                },
                {
                    "name": "G3",
                    "midi": 55,
                    "time": 464.1378150000044,
                    "velocity": 0.3228346456692913,
                    "duration": 0.22988500000002432
                },
                {
                    "name": "A#3",
                    "midi": 58,
                    "time": 464.36770000000445,
                    "velocity": 0.3858267716535433,
                    "duration": 0.22988500000002432
                },
                {
                    "name": "G3",
                    "midi": 55,
                    "time": 464.59758500000447,
                    "velocity": 0.36220472440944884,
                    "duration": 0.22988500000002432
                },
                {
                    "name": "B3",
                    "midi": 59,
                    "time": 464.8274700000045,
                    "velocity": 0.41732283464566927,
                    "duration": 0.22988500000002432
                },
                {
                    "name": "G3",
                    "midi": 55,
                    "time": 465.0573550000045,
                    "velocity": 0.3700787401574803,
                    "duration": 0.22988500000002432
                },
                {
                    "name": "B3",
                    "midi": 59,
                    "time": 465.28724000000454,
                    "velocity": 0.41732283464566927,
                    "duration": 0.22988500000002432
                },
                {
                    "name": "G3",
                    "midi": 55,
                    "time": 465.51712500000457,
                    "velocity": 0.3937007874015748,
                    "duration": 0.22988500000002432
                },
                {
                    "name": "B3",
                    "midi": 59,
                    "time": 465.7470100000046,
                    "velocity": 0.4251968503937008,
                    "duration": 0.22988500000002432
                },
                {
                    "name": "G3",
                    "midi": 55,
                    "time": 465.9768950000046,
                    "velocity": 0.3937007874015748,
                    "duration": 0.22988500000002432
                },
                {
                    "name": "C4",
                    "midi": 60,
                    "time": 466.20678000000464,
                    "velocity": 0.4645669291338583,
                    "duration": 0.22988500000002432
                },
                {
                    "name": "G3",
                    "midi": 55,
                    "time": 466.43666500000467,
                    "velocity": 0.4094488188976378,
                    "duration": 0.22988500000002432
                },
                {
                    "name": "C4",
                    "midi": 60,
                    "time": 466.6665500000047,
                    "velocity": 0.4251968503937008,
                    "duration": 0.22988500000002432
                },
                {
                    "name": "G3",
                    "midi": 55,
                    "time": 466.8964350000047,
                    "velocity": 0.3543307086614173,
                    "duration": 0.22988500000002432
                },
                {
                    "name": "C4",
                    "midi": 60,
                    "time": 467.12632000000474,
                    "velocity": 0.4015748031496063,
                    "duration": 0.22988500000002432
                },
                {
                    "name": "G3",
                    "midi": 55,
                    "time": 467.35620500000476,
                    "velocity": 0.3464566929133858,
                    "duration": 0.22988500000002432
                },
                {
                    "name": "C4",
                    "midi": 60,
                    "time": 467.5860900000048,
                    "velocity": 0.5039370078740157,
                    "duration": 0.22988500000002432
                },
                {
                    "name": "G3",
                    "midi": 55,
                    "time": 467.8159750000048,
                    "velocity": 0.3937007874015748,
                    "duration": 0.22988500000002432
                },
                {
                    "name": "C4",
                    "midi": 60,
                    "time": 468.04586000000484,
                    "velocity": 0.47244094488188976,
                    "duration": 0.22988500000002432
                },
                {
                    "name": "G3",
                    "midi": 55,
                    "time": 468.27574500000486,
                    "velocity": 0.3937007874015748,
                    "duration": 0.22988500000002432
                },
                {
                    "name": "C4",
                    "midi": 60,
                    "time": 468.5056300000049,
                    "velocity": 0.4409448818897638,
                    "duration": 0.22988500000002432
                },
                {
                    "name": "G3",
                    "midi": 55,
                    "time": 468.7355150000049,
                    "velocity": 0.36220472440944884,
                    "duration": 2.988505000000316
                },
                {
                    "name": "A3",
                    "midi": 57,
                    "time": 468.96540000000493,
                    "velocity": 0.49606299212598426,
                    "duration": 0.22988500000002432
                },
                {
                    "name": "C4",
                    "midi": 60,
                    "time": 469.19528500000496,
                    "velocity": 0.3779527559055118,
                    "duration": 0.22988500000002432
                },
                {
                    "name": "A3",
                    "midi": 57,
                    "time": 469.425170000005,
                    "velocity": 0.4409448818897638,
                    "duration": 0.22988500000002432
                },
                {
                    "name": "C4",
                    "midi": 60,
                    "time": 469.655055000005,
                    "velocity": 0.3779527559055118,
                    "duration": 0.22988500000002432
                },
                {
                    "name": "A3",
                    "midi": 57,
                    "time": 469.88494000000503,
                    "velocity": 0.4251968503937008,
                    "duration": 0.22988500000002432
                },
                {
                    "name": "C4",
                    "midi": 60,
                    "time": 470.11482500000506,
                    "velocity": 0.3543307086614173,
                    "duration": 0.22988500000002432
                },
                {
                    "name": "A3",
                    "midi": 57,
                    "time": 470.3447100000051,
                    "velocity": 0.4094488188976378,
                    "duration": 0.22988500000002432
                },
                {
                    "name": "C4",
                    "midi": 60,
                    "time": 470.5745950000051,
                    "velocity": 0.30708661417322836,
                    "duration": 0.22988500000002432
                },
                {
                    "name": "A3",
                    "midi": 57,
                    "time": 470.8044800000051,
                    "velocity": 0.3700787401574803,
                    "duration": 0.22988500000002432
                },
                {
                    "name": "C4",
                    "midi": 60,
                    "time": 471.03436500000515,
                    "velocity": 0.2992125984251969,
                    "duration": 0.22988500000002432
                },
                {
                    "name": "A3",
                    "midi": 57,
                    "time": 471.2642500000052,
                    "velocity": 0.3543307086614173,
                    "duration": 0.22988500000002432
                },
                {
                    "name": "C4",
                    "midi": 60,
                    "time": 471.4941350000052,
                    "velocity": 0.29133858267716534,
                    "duration": 0.22988500000002432
                },
                {
                    "name": "A#2",
                    "midi": 46,
                    "time": 471.7240200000052,
                    "velocity": 0.3543307086614173,
                    "duration": 0.22988500000002432
                },
                {
                    "name": "G2",
                    "midi": 43,
                    "time": 471.95390500000525,
                    "velocity": 0.30708661417322836,
                    "duration": 0.22988500000002432
                },
                {
                    "name": "A#2",
                    "midi": 46,
                    "time": 472.1837900000053,
                    "velocity": 0.3464566929133858,
                    "duration": 0.22988500000002432
                },
                {
                    "name": "G2",
                    "midi": 43,
                    "time": 472.4136750000053,
                    "velocity": 0.3228346456692913,
                    "duration": 0.22988500000002432
                },
                {
                    "name": "A#2",
                    "midi": 46,
                    "time": 472.6435600000053,
                    "velocity": 0.3858267716535433,
                    "duration": 0.22988500000002432
                },
                {
                    "name": "G2",
                    "midi": 43,
                    "time": 472.87344500000535,
                    "velocity": 0.36220472440944884,
                    "duration": 0.22988500000002432
                },
                {
                    "name": "B2",
                    "midi": 47,
                    "time": 473.10333000000537,
                    "velocity": 0.41732283464566927,
                    "duration": 0.22988500000002432
                },
                {
                    "name": "G2",
                    "midi": 43,
                    "time": 473.3332150000054,
                    "velocity": 0.3700787401574803,
                    "duration": 0.22988500000002432
                },
                {
                    "name": "B2",
                    "midi": 47,
                    "time": 473.5631000000054,
                    "velocity": 0.41732283464566927,
                    "duration": 0.22988500000002432
                },
                {
                    "name": "G2",
                    "midi": 43,
                    "time": 473.79298500000544,
                    "velocity": 0.3937007874015748,
                    "duration": 0.22988500000002432
                },
                {
                    "name": "B2",
                    "midi": 47,
                    "time": 474.02287000000547,
                    "velocity": 0.4251968503937008,
                    "duration": 0.22988500000002432
                },
                {
                    "name": "G2",
                    "midi": 43,
                    "time": 474.2527550000055,
                    "velocity": 0.3937007874015748,
                    "duration": 0.22988500000002432
                },
                {
                    "name": "E3",
                    "midi": 52,
                    "time": 474.4826400000055,
                    "velocity": 0.4645669291338583,
                    "duration": 0.22988500000002432
                },
                {
                    "name": "G2",
                    "midi": 43,
                    "time": 474.71252500000554,
                    "velocity": 0.4094488188976378,
                    "duration": 0.22988500000002432
                },
                {
                    "name": "E3",
                    "midi": 52,
                    "time": 474.94241000000557,
                    "velocity": 0.4251968503937008,
                    "duration": 0.22988500000002432
                },
                {
                    "name": "G2",
                    "midi": 43,
                    "time": 475.1722950000056,
                    "velocity": 0.36220472440944884,
                    "duration": 0.22988500000002432
                },
                {
                    "name": "E3",
                    "midi": 52,
                    "time": 475.4021800000056,
                    "velocity": 0.4094488188976378,
                    "duration": 0.22988500000002432
                },
                {
                    "name": "G2",
                    "midi": 43,
                    "time": 475.63206500000564,
                    "velocity": 0.3543307086614173,
                    "duration": 0.22988500000002432
                },
                {
                    "name": "E3",
                    "midi": 52,
                    "time": 475.86195000000566,
                    "velocity": 0.4094488188976378,
                    "duration": 0.22988500000002432
                },
                {
                    "name": "G2",
                    "midi": 43,
                    "time": 476.0918350000057,
                    "velocity": 0.3228346456692913,
                    "duration": 0.22988500000002432
                },
                {
                    "name": "E3",
                    "midi": 52,
                    "time": 476.3217200000057,
                    "velocity": 0.3937007874015748,
                    "duration": 0.22988500000002432
                },
                {
                    "name": "G2",
                    "midi": 43,
                    "time": 476.55160500000574,
                    "velocity": 0.33858267716535434,
                    "duration": 0.22988500000002432
                },
                {
                    "name": "E3",
                    "midi": 52,
                    "time": 476.78149000000576,
                    "velocity": 0.3937007874015748,
                    "duration": 0.22988500000002432
                },
                {
                    "name": "G2",
                    "midi": 43,
                    "time": 477.0113750000058,
                    "velocity": 0.3228346456692913,
                    "duration": 0.22988500000002432
                },
                {
                    "name": "D#3",
                    "midi": 51,
                    "time": 477.2412600000058,
                    "velocity": 0.44881889763779526,
                    "duration": 0.22988500000002432
                },
                {
                    "name": "G2",
                    "midi": 43,
                    "time": 477.47114500000583,
                    "velocity": 0.3543307086614173,
                    "duration": 0.22988500000002432
                },
                {
                    "name": "D#3",
                    "midi": 51,
                    "time": 477.70103000000586,
                    "velocity": 0.41732283464566927,
                    "duration": 0.22988500000002432
                },
                {
                    "name": "G2",
                    "midi": 43,
                    "time": 477.9309150000059,
                    "velocity": 0.36220472440944884,
                    "duration": 0.22988500000002432
                },
                {
                    "name": "D#3",
                    "midi": 51,
                    "time": 478.1608000000059,
                    "velocity": 0.4251968503937008,
                    "duration": 0.22988500000002432
                },
                {
                    "name": "G2",
                    "midi": 43,
                    "time": 478.39068500000593,
                    "velocity": 0.3543307086614173,
                    "duration": 0.22988500000002432
                },
                {
                    "name": "D#3",
                    "midi": 51,
                    "time": 478.62057000000596,
                    "velocity": 0.4251968503937008,
                    "duration": 0.22988500000002432
                },
                {
                    "name": "G2",
                    "midi": 43,
                    "time": 478.850455000006,
                    "velocity": 0.33070866141732286,
                    "duration": 0.22988500000002432
                },
                {
                    "name": "D#3",
                    "midi": 51,
                    "time": 479.080340000006,
                    "velocity": 0.4094488188976378,
                    "duration": 0.22988500000002432
                },
                {
                    "name": "G2",
                    "midi": 43,
                    "time": 479.310225000006,
                    "velocity": 0.33070866141732286,
                    "duration": 0.22988500000002432
                },
                {
                    "name": "D#3",
                    "midi": 51,
                    "time": 479.54011000000605,
                    "velocity": 0.4015748031496063,
                    "duration": 0.22988500000002432
                },
                {
                    "name": "G2",
                    "midi": 43,
                    "time": 479.7699950000061,
                    "velocity": 0.3464566929133858,
                    "duration": 0.22988500000002432
                }
            ],
            "controlChanges": {
                "7": [
                    {
                        "number": 7,
                        "time": 0,
                        "value": 0.7874015748031497
                    }
                ],
                "10": [
                    {
                        "number": 10,
                        "time": 0,
                        "value": 0.5039370078740157
                    }
                ],
                "64": [
                    {
                        "number": 64,
                        "time": 49.6867691875,
                        "value": 1
                    },
                    {
                        "number": 64,
                        "time": 53.83044631249993,
                        "value": 0
                    },
                    {
                        "number": 64,
                        "time": 53.94538881249993,
                        "value": 1
                    },
                    {
                        "number": 64,
                        "time": 55.20113562499991,
                        "value": 0
                    },
                    {
                        "number": 64,
                        "time": 55.304583874999906,
                        "value": 1
                    },
                    {
                        "number": 64,
                        "time": 56.59193987499989,
                        "value": 0
                    },
                    {
                        "number": 64,
                        "time": 56.704008812499886,
                        "value": 1
                    },
                    {
                        "number": 64,
                        "time": 57.98274412499986,
                        "value": 0
                    },
                    {
                        "number": 64,
                        "time": 58.10343374999986,
                        "value": 1
                    },
                    {
                        "number": 64,
                        "time": 62.10630631249979,
                        "value": 0
                    },
                    {
                        "number": 64,
                        "time": 62.22124881249979,
                        "value": 1
                    },
                    {
                        "number": 64,
                        "time": 63.476995624999766,
                        "value": 0
                    },
                    {
                        "number": 64,
                        "time": 63.580443874999766,
                        "value": 1
                    },
                    {
                        "number": 64,
                        "time": 64.86779987499979,
                        "value": 0
                    },
                    {
                        "number": 64,
                        "time": 64.97986881249979,
                        "value": 1
                    },
                    {
                        "number": 64,
                        "time": 66.25860412499982,
                        "value": 0
                    },
                    {
                        "number": 64,
                        "time": 66.31607537499983,
                        "value": 1
                    },
                    {
                        "number": 64,
                        "time": 70.38216631249992,
                        "value": 0
                    },
                    {
                        "number": 64,
                        "time": 70.49710881249992,
                        "value": 1
                    },
                    {
                        "number": 64,
                        "time": 71.75285562499995,
                        "value": 0
                    },
                    {
                        "number": 64,
                        "time": 71.85630387499995,
                        "value": 1
                    },
                    {
                        "number": 64,
                        "time": 73.14365987499997,
                        "value": 0
                    },
                    {
                        "number": 64,
                        "time": 73.25572881249997,
                        "value": 1
                    },
                    {
                        "number": 64,
                        "time": 74.534464125,
                        "value": 0
                    },
                    {
                        "number": 64,
                        "time": 74.65515375,
                        "value": 1
                    },
                    {
                        "number": 64,
                        "time": 77.28158987500005,
                        "value": 0
                    },
                    {
                        "number": 64,
                        "time": 77.36492318750005,
                        "value": 1
                    },
                    {
                        "number": 64,
                        "time": 78.65802631250008,
                        "value": 0
                    },
                    {
                        "number": 64,
                        "time": 78.77296881250008,
                        "value": 1
                    },
                    {
                        "number": 64,
                        "time": 80.02871562500012,
                        "value": 0
                    },
                    {
                        "number": 64,
                        "time": 80.13216387500012,
                        "value": 1
                    },
                    {
                        "number": 64,
                        "time": 81.41951987500015,
                        "value": 0
                    },
                    {
                        "number": 64,
                        "time": 81.53158881250015,
                        "value": 1
                    },
                    {
                        "number": 64,
                        "time": 82.75860000000014,
                        "value": 0
                    },
                    {
                        "number": 64,
                        "time": 82.98273787500015,
                        "value": 1
                    },
                    {
                        "number": 64,
                        "time": 86.93388631250022,
                        "value": 0
                    },
                    {
                        "number": 64,
                        "time": 87.04882881250022,
                        "value": 1
                    },
                    {
                        "number": 64,
                        "time": 88.30457562500024,
                        "value": 0
                    },
                    {
                        "number": 64,
                        "time": 88.40802387500024,
                        "value": 1
                    },
                    {
                        "number": 64,
                        "time": 89.69537987500026,
                        "value": 0
                    },
                    {
                        "number": 64,
                        "time": 89.80744881250025,
                        "value": 1
                    },
                    {
                        "number": 64,
                        "time": 91.08618412500029,
                        "value": 0
                    },
                    {
                        "number": 64,
                        "time": 91.20687375000028,
                        "value": 1
                    },
                    {
                        "number": 64,
                        "time": 95.20974631250037,
                        "value": 0
                    },
                    {
                        "number": 64,
                        "time": 95.32468881250037,
                        "value": 1
                    },
                    {
                        "number": 64,
                        "time": 96.58043562500039,
                        "value": 0
                    },
                    {
                        "number": 64,
                        "time": 96.68388387500039,
                        "value": 1
                    },
                    {
                        "number": 64,
                        "time": 97.9712398750004,
                        "value": 0
                    },
                    {
                        "number": 64,
                        "time": 98.0833088125004,
                        "value": 1
                    },
                    {
                        "number": 64,
                        "time": 99.36204412500044,
                        "value": 0
                    },
                    {
                        "number": 64,
                        "time": 99.48273375000043,
                        "value": 1
                    },
                    {
                        "number": 64,
                        "time": 103.48560631250052,
                        "value": 0
                    },
                    {
                        "number": 64,
                        "time": 103.60054881250052,
                        "value": 1
                    },
                    {
                        "number": 64,
                        "time": 104.85629562500054,
                        "value": 0
                    },
                    {
                        "number": 64,
                        "time": 104.95974387500054,
                        "value": 1
                    },
                    {
                        "number": 64,
                        "time": 106.24709987500056,
                        "value": 0
                    },
                    {
                        "number": 64,
                        "time": 106.35916881250056,
                        "value": 1
                    },
                    {
                        "number": 64,
                        "time": 107.61204206250058,
                        "value": 0
                    },
                    {
                        "number": 64,
                        "time": 107.68388112500058,
                        "value": 1
                    },
                    {
                        "number": 64,
                        "time": 110.37640918750066,
                        "value": 0
                    },
                    {
                        "number": 64,
                        "time": 110.54882293750065,
                        "value": 1
                    },
                    {
                        "number": 64,
                        "time": 111.75571918750067,
                        "value": 0
                    },
                    {
                        "number": 64,
                        "time": 111.89652375000067,
                        "value": 1
                    },
                    {
                        "number": 64,
                        "time": 113.1379027500007,
                        "value": 0
                    },
                    {
                        "number": 64,
                        "time": 113.3016958125007,
                        "value": 1
                    },
                    {
                        "number": 64,
                        "time": 115.91663768750075,
                        "value": 0
                    },
                    {
                        "number": 64,
                        "time": 115.96548825000075,
                        "value": 1
                    },
                    {
                        "number": 64,
                        "time": 117.27008562500077,
                        "value": 0
                    },
                    {
                        "number": 64,
                        "time": 117.33905112500078,
                        "value": 1
                    },
                    {
                        "number": 64,
                        "time": 118.64939562500082,
                        "value": 0
                    },
                    {
                        "number": 64,
                        "time": 118.70111975000083,
                        "value": 1
                    },
                    {
                        "number": 64,
                        "time": 120.01721137500085,
                        "value": 0
                    },
                    {
                        "number": 64,
                        "time": 120.09192400000086,
                        "value": 1
                    },
                    {
                        "number": 64,
                        "time": 121.41663631250088,
                        "value": 0
                    },
                    {
                        "number": 64,
                        "time": 121.47410756250089,
                        "value": 1
                    },
                    {
                        "number": 64,
                        "time": 122.79307275000089,
                        "value": 0
                    },
                    {
                        "number": 64,
                        "time": 122.88502675000089,
                        "value": 1
                    },
                    {
                        "number": 64,
                        "time": 124.1608885000009,
                        "value": 0
                    },
                    {
                        "number": 64,
                        "time": 124.3505436250009,
                        "value": 1
                    },
                    {
                        "number": 64,
                        "time": 126.94537056250088,
                        "value": 0
                    },
                    {
                        "number": 64,
                        "time": 127.06031306250088,
                        "value": 1
                    },
                    {
                        "number": 64,
                        "time": 128.3103127500009,
                        "value": 0
                    },
                    {
                        "number": 64,
                        "time": 128.40801387500088,
                        "value": 1
                    },
                    {
                        "number": 64,
                        "time": 129.6982434375009,
                        "value": 0
                    },
                    {
                        "number": 64,
                        "time": 129.80169168750092,
                        "value": 1
                    },
                    {
                        "number": 64,
                        "time": 132.442495625001,
                        "value": 0
                    },
                    {
                        "number": 64,
                        "time": 132.586173750001,
                        "value": 1
                    },
                    {
                        "number": 64,
                        "time": 136.5890463125011,
                        "value": 0
                    },
                    {
                        "number": 64,
                        "time": 136.7039888125011,
                        "value": 1
                    },
                    {
                        "number": 64,
                        "time": 137.95973562500114,
                        "value": 0
                    },
                    {
                        "number": 64,
                        "time": 138.06318387500116,
                        "value": 1
                    },
                    {
                        "number": 64,
                        "time": 139.35053987500118,
                        "value": 0
                    },
                    {
                        "number": 64,
                        "time": 139.46260881250117,
                        "value": 1
                    },
                    {
                        "number": 64,
                        "time": 140.7413441250012,
                        "value": 0
                    },
                    {
                        "number": 64,
                        "time": 140.86203375000122,
                        "value": 1
                    },
                    {
                        "number": 64,
                        "time": 142.08617137500124,
                        "value": 0
                    },
                    {
                        "number": 64,
                        "time": 142.15801043750125,
                        "value": 1
                    },
                    {
                        "number": 64,
                        "time": 143.48846987500127,
                        "value": 0
                    },
                    {
                        "number": 64,
                        "time": 143.57180318750127,
                        "value": 1
                    },
                    {
                        "number": 64,
                        "time": 144.86490631250132,
                        "value": 0
                    },
                    {
                        "number": 64,
                        "time": 144.97984881250133,
                        "value": 1
                    },
                    {
                        "number": 64,
                        "time": 146.23559562500137,
                        "value": 0
                    },
                    {
                        "number": 64,
                        "time": 146.33904387500138,
                        "value": 1
                    },
                    {
                        "number": 64,
                        "time": 147.6263998750014,
                        "value": 0
                    },
                    {
                        "number": 64,
                        "time": 147.7384688125014,
                        "value": 1
                    },
                    {
                        "number": 64,
                        "time": 149.01720412500143,
                        "value": 0
                    },
                    {
                        "number": 64,
                        "time": 149.13789375000144,
                        "value": 1
                    },
                    {
                        "number": 64,
                        "time": 150.36203137500146,
                        "value": 0
                    },
                    {
                        "number": 64,
                        "time": 150.43387043750147,
                        "value": 1
                    },
                    {
                        "number": 64,
                        "time": 151.7643298750015,
                        "value": 0
                    },
                    {
                        "number": 64,
                        "time": 151.8476631875015,
                        "value": 1
                    },
                    {
                        "number": 64,
                        "time": 153.13214562500147,
                        "value": 0
                    },
                    {
                        "number": 64,
                        "time": 153.24421456250147,
                        "value": 1
                    },
                    {
                        "number": 64,
                        "time": 154.52582343750146,
                        "value": 0
                    },
                    {
                        "number": 64,
                        "time": 154.65513375000145,
                        "value": 1
                    },
                    {
                        "number": 64,
                        "time": 155.89938631250143,
                        "value": 0
                    },
                    {
                        "number": 64,
                        "time": 156.01720237500143,
                        "value": 1
                    },
                    {
                        "number": 64,
                        "time": 157.2643285000014,
                        "value": 0
                    },
                    {
                        "number": 64,
                        "time": 157.3476618125014,
                        "value": 1
                    },
                    {
                        "number": 64,
                        "time": 158.63789137500137,
                        "value": 0
                    },
                    {
                        "number": 64,
                        "time": 158.74421318750137,
                        "value": 1
                    },
                    {
                        "number": 64,
                        "time": 160.02294850000138,
                        "value": 0
                    },
                    {
                        "number": 64,
                        "time": 160.1321438750014,
                        "value": 1
                    },
                    {
                        "number": 64,
                        "time": 161.41375275000135,
                        "value": 0
                    },
                    {
                        "number": 64,
                        "time": 161.60053431250134,
                        "value": 1
                    },
                    {
                        "number": 64,
                        "time": 162.79306275000133,
                        "value": 0
                    },
                    {
                        "number": 64,
                        "time": 162.97122362500133,
                        "value": 1
                    },
                    {
                        "number": 64,
                        "time": 164.16949918750132,
                        "value": 0
                    },
                    {
                        "number": 64,
                        "time": 164.2672003125013,
                        "value": 1
                    },
                    {
                        "number": 64,
                        "time": 165.5401885000013,
                        "value": 0
                    },
                    {
                        "number": 64,
                        "time": 165.6350160625013,
                        "value": 1
                    },
                    {
                        "number": 64,
                        "time": 166.92524562500128,
                        "value": 0
                    },
                    {
                        "number": 64,
                        "time": 166.9913375625013,
                        "value": 1
                    },
                    {
                        "number": 64,
                        "time": 168.3074291875013,
                        "value": 0
                    },
                    {
                        "number": 64,
                        "time": 168.3993831875013,
                        "value": 1
                    },
                    {
                        "number": 64,
                        "time": 169.68961275000126,
                        "value": 0
                    },
                    {
                        "number": 64,
                        "time": 169.79306100000127,
                        "value": 1
                    },
                    {
                        "number": 64,
                        "time": 173.84478412500124,
                        "value": 0
                    },
                    {
                        "number": 64,
                        "time": 173.94535881250124,
                        "value": 1
                    },
                    {
                        "number": 64,
                        "time": 179.3447827500012,
                        "value": 0
                    },
                    {
                        "number": 64,
                        "time": 179.5028286875012,
                        "value": 1
                    },
                    {
                        "number": 64,
                        "time": 180.7097249375012,
                        "value": 0
                    },
                    {
                        "number": 64,
                        "time": 180.80167893750118,
                        "value": 1
                    },
                    {
                        "number": 64,
                        "time": 182.08903493750117,
                        "value": 0
                    },
                    {
                        "number": 64,
                        "time": 182.22121881250118,
                        "value": 1
                    },
                    {
                        "number": 64,
                        "time": 183.48271275000116,
                        "value": 0
                    },
                    {
                        "number": 64,
                        "time": 183.60914950000117,
                        "value": 1
                    },
                    {
                        "number": 64,
                        "time": 184.85340206250115,
                        "value": 0
                    },
                    {
                        "number": 64,
                        "time": 184.96834456250116,
                        "value": 1
                    },
                    {
                        "number": 64,
                        "time": 186.24707987500113,
                        "value": 0
                    },
                    {
                        "number": 64,
                        "time": 186.36776950000115,
                        "value": 1
                    },
                    {
                        "number": 64,
                        "time": 187.6206427500011,
                        "value": 0
                    },
                    {
                        "number": 64,
                        "time": 187.83041281250112,
                        "value": 1
                    },
                    {
                        "number": 64,
                        "time": 188.99707918750113,
                        "value": 0
                    },
                    {
                        "number": 64,
                        "time": 189.14937800000112,
                        "value": 1
                    },
                    {
                        "number": 64,
                        "time": 190.3706420625011,
                        "value": 0
                    },
                    {
                        "number": 64,
                        "time": 190.3763891875011,
                        "value": 0
                    },
                    {
                        "number": 64,
                        "time": 190.48558456250112,
                        "value": 1
                    },
                    {
                        "number": 64,
                        "time": 193.13788275000107,
                        "value": 0
                    },
                    {
                        "number": 64,
                        "time": 193.34765281250108,
                        "value": 1
                    },
                    {
                        "number": 64,
                        "time": 195.89937631250106,
                        "value": 0
                    },
                    {
                        "number": 64,
                        "time": 196.04592800000106,
                        "value": 1
                    },
                    {
                        "number": 64,
                        "time": 198.652249187501,
                        "value": 0
                    },
                    {
                        "number": 64,
                        "time": 198.793053750001,
                        "value": 1
                    },
                    {
                        "number": 64,
                        "time": 202.79017918750102,
                        "value": 0
                    },
                    {
                        "number": 64,
                        "time": 202.882133187501,
                        "value": 1
                    },
                    {
                        "number": 64,
                        "time": 204.166615625001,
                        "value": 0
                    },
                    {
                        "number": 64,
                        "time": 204.28443168750098,
                        "value": 1
                    },
                    {
                        "number": 64,
                        "time": 205.54305206250098,
                        "value": 0
                    },
                    {
                        "number": 64,
                        "time": 205.64075318750096,
                        "value": 1
                    },
                    {
                        "number": 64,
                        "time": 206.92236206250095,
                        "value": 0
                    },
                    {
                        "number": 64,
                        "time": 207.02006318750094,
                        "value": 1
                    },
                    {
                        "number": 64,
                        "time": 208.3160398750009,
                        "value": 0
                    },
                    {
                        "number": 64,
                        "time": 208.3907525000009,
                        "value": 1
                    },
                    {
                        "number": 64,
                        "time": 209.6867291875009,
                        "value": 0
                    },
                    {
                        "number": 64,
                        "time": 209.7614418125009,
                        "value": 1
                    },
                    {
                        "number": 64,
                        "time": 211.08328056250087,
                        "value": 0
                    },
                    {
                        "number": 64,
                        "time": 211.23845293750088,
                        "value": 1
                    },
                    {
                        "number": 64,
                        "time": 212.46833768750088,
                        "value": 0
                    },
                    {
                        "number": 64,
                        "time": 212.62638362500087,
                        "value": 1
                    },
                    {
                        "number": 64,
                        "time": 213.81029137500087,
                        "value": 0
                    },
                    {
                        "number": 64,
                        "time": 213.88213043750088,
                        "value": 1
                    },
                    {
                        "number": 64,
                        "time": 215.1924749375009,
                        "value": 0
                    },
                    {
                        "number": 64,
                        "time": 215.2959231875009,
                        "value": 1
                    },
                    {
                        "number": 64,
                        "time": 219.3505198750009,
                        "value": 0
                    },
                    {
                        "number": 64,
                        "time": 219.4568416875009,
                        "value": 1
                    },
                    {
                        "number": 64,
                        "time": 220.7212091875009,
                        "value": 0
                    },
                    {
                        "number": 64,
                        "time": 220.8045425000009,
                        "value": 1
                    },
                    {
                        "number": 64,
                        "time": 222.1292548125009,
                        "value": 0
                    },
                    {
                        "number": 64,
                        "time": 222.2154616875009,
                        "value": 1
                    },
                    {
                        "number": 64,
                        "time": 223.48270275000087,
                        "value": 0
                    },
                    {
                        "number": 64,
                        "time": 223.54592112500086,
                        "value": 1
                    },
                    {
                        "number": 64,
                        "time": 224.85626562500084,
                        "value": 0
                    },
                    {
                        "number": 64,
                        "time": 224.97408168750084,
                        "value": 1
                    },
                    {
                        "number": 64,
                        "time": 226.23557562500082,
                        "value": 0
                    },
                    {
                        "number": 64,
                        "time": 226.33902387500083,
                        "value": 1
                    },
                    {
                        "number": 64,
                        "time": 227.6235063125008,
                        "value": 0
                    },
                    {
                        "number": 64,
                        "time": 227.7585637500008,
                        "value": 1
                    },
                    {
                        "number": 64,
                        "time": 228.98844850000077,
                        "value": 0
                    },
                    {
                        "number": 64,
                        "time": 229.17810362500077,
                        "value": 1
                    },
                    {
                        "number": 64,
                        "time": 230.36775850000075,
                        "value": 0
                    },
                    {
                        "number": 64,
                        "time": 230.42810331250075,
                        "value": 1
                    },
                    {
                        "number": 64,
                        "time": 231.75568918750074,
                        "value": 0
                    },
                    {
                        "number": 64,
                        "time": 233.23557387500074,
                        "value": 1
                    },
                    {
                        "number": 64,
                        "time": 235.89361918750075,
                        "value": 0
                    },
                    {
                        "number": 64,
                        "time": 236.04304443750075,
                        "value": 1
                    },
                    {
                        "number": 64,
                        "time": 237.27005562500074,
                        "value": 0
                    },
                    {
                        "number": 64,
                        "time": 237.38787168750073,
                        "value": 1
                    },
                    {
                        "number": 64,
                        "time": 238.64649206250073,
                        "value": 0
                    },
                    {
                        "number": 64,
                        "time": 238.7441931875007,
                        "value": 1
                    },
                    {
                        "number": 64,
                        "time": 240.0258020625007,
                        "value": 0
                    },
                    {
                        "number": 64,
                        "time": 240.1235031875007,
                        "value": 1
                    },
                    {
                        "number": 64,
                        "time": 241.41947987500066,
                        "value": 0
                    },
                    {
                        "number": 64,
                        "time": 241.49419250000065,
                        "value": 1
                    },
                    {
                        "number": 64,
                        "time": 242.79016918750065,
                        "value": 0
                    },
                    {
                        "number": 64,
                        "time": 242.86488181250064,
                        "value": 1
                    },
                    {
                        "number": 64,
                        "time": 244.18672056250062,
                        "value": 0
                    },
                    {
                        "number": 64,
                        "time": 244.34189293750063,
                        "value": 1
                    },
                    {
                        "number": 64,
                        "time": 245.57177768750063,
                        "value": 0
                    },
                    {
                        "number": 64,
                        "time": 245.72982362500062,
                        "value": 1
                    },
                    {
                        "number": 64,
                        "time": 246.91373137500062,
                        "value": 0
                    },
                    {
                        "number": 64,
                        "time": 247.03729456250062,
                        "value": 1
                    },
                    {
                        "number": 64,
                        "time": 248.3131563125006,
                        "value": 0
                    },
                    {
                        "number": 64,
                        "time": 248.3993631875006,
                        "value": 1
                    },
                    {
                        "number": 64,
                        "time": 252.4539598750006,
                        "value": 0
                    },
                    {
                        "number": 64,
                        "time": 252.5602816875006,
                        "value": 1
                    },
                    {
                        "number": 64,
                        "time": 253.8246491875006,
                        "value": 0
                    },
                    {
                        "number": 64,
                        "time": 253.9079825000006,
                        "value": 1
                    },
                    {
                        "number": 64,
                        "time": 255.2326948125006,
                        "value": 0
                    },
                    {
                        "number": 64,
                        "time": 255.31890168750058,
                        "value": 1
                    },
                    {
                        "number": 64,
                        "time": 256.58614275000065,
                        "value": 0
                    },
                    {
                        "number": 64,
                        "time": 256.64936112500067,
                        "value": 1
                    },
                    {
                        "number": 64,
                        "time": 257.9597056250008,
                        "value": 0
                    },
                    {
                        "number": 64,
                        "time": 258.07752168750085,
                        "value": 1
                    },
                    {
                        "number": 64,
                        "time": 259.33901562500097,
                        "value": 0
                    },
                    {
                        "number": 64,
                        "time": 259.44246387500095,
                        "value": 1
                    },
                    {
                        "number": 64,
                        "time": 260.72694631250107,
                        "value": 0
                    },
                    {
                        "number": 64,
                        "time": 260.86200375000107,
                        "value": 1
                    },
                    {
                        "number": 64,
                        "time": 262.0918885000012,
                        "value": 0
                    },
                    {
                        "number": 64,
                        "time": 262.2815436250012,
                        "value": 1
                    },
                    {
                        "number": 64,
                        "time": 263.4711985000013,
                        "value": 0
                    },
                    {
                        "number": 64,
                        "time": 263.5315433125013,
                        "value": 1
                    },
                    {
                        "number": 64,
                        "time": 264.8533820625014,
                        "value": 0
                    },
                    {
                        "number": 64,
                        "time": 264.9166004375014,
                        "value": 1
                    },
                    {
                        "number": 64,
                        "time": 267.53728943750144,
                        "value": 0
                    },
                    {
                        "number": 64,
                        "time": 267.5861400000014,
                        "value": 1
                    },
                    {
                        "number": 64,
                        "time": 268.97981781250144,
                        "value": 0
                    },
                    {
                        "number": 64,
                        "time": 269.12349593750145,
                        "value": 1
                    },
                    {
                        "number": 64,
                        "time": 270.3792427500014,
                        "value": 0
                    },
                    {
                        "number": 64,
                        "time": 270.5516565000014,
                        "value": 1
                    },
                    {
                        "number": 64,
                        "time": 271.7757941250014,
                        "value": 0
                    },
                    {
                        "number": 64,
                        "time": 271.9223458125014,
                        "value": 1
                    },
                    {
                        "number": 64,
                        "time": 273.1177478125014,
                        "value": 0
                    },
                    {
                        "number": 64,
                        "time": 273.2010811250014,
                        "value": 1
                    },
                    {
                        "number": 64,
                        "time": 274.5085520625014,
                        "value": 0
                    },
                    {
                        "number": 64,
                        "time": 274.6062531875014,
                        "value": 1
                    },
                    {
                        "number": 64,
                        "time": 275.87924137500147,
                        "value": 0
                    },
                    {
                        "number": 64,
                        "time": 275.95108043750145,
                        "value": 1
                    },
                    {
                        "number": 64,
                        "time": 277.26717206250146,
                        "value": 0
                    },
                    {
                        "number": 64,
                        "time": 277.35625250000146,
                        "value": 1
                    },
                    {
                        "number": 64,
                        "time": 278.6522291875015,
                        "value": 0
                    },
                    {
                        "number": 64,
                        "time": 278.8016544375015,
                        "value": 1
                    },
                    {
                        "number": 64,
                        "time": 280.02866562500157,
                        "value": 0
                    },
                    {
                        "number": 64,
                        "time": 280.14073456250156,
                        "value": 1
                    },
                    {
                        "number": 64,
                        "time": 281.3993549375015,
                        "value": 0
                    },
                    {
                        "number": 64,
                        "time": 281.4683204375015,
                        "value": 1
                    },
                    {
                        "number": 64,
                        "time": 284.0602738125015,
                        "value": 0
                    },
                    {
                        "number": 64,
                        "time": 284.1378600000015,
                        "value": 1
                    },
                    {
                        "number": 64,
                        "time": 285.53153781250154,
                        "value": 0
                    },
                    {
                        "number": 64,
                        "time": 285.60625043750156,
                        "value": 1
                    },
                    {
                        "number": 64,
                        "time": 286.91659493750154,
                        "value": 0
                    },
                    {
                        "number": 64,
                        "time": 287.0114225000015,
                        "value": 1
                    },
                    {
                        "number": 64,
                        "time": 288.3275141250015,
                        "value": 0
                    },
                    {
                        "number": 64,
                        "time": 288.4740658125015,
                        "value": 1
                    },
                    {
                        "number": 64,
                        "time": 289.67521493750155,
                        "value": 0
                    },
                    {
                        "number": 64,
                        "time": 289.75280112500155,
                        "value": 1
                    },
                    {
                        "number": 64,
                        "time": 291.06027206250155,
                        "value": 0
                    },
                    {
                        "number": 64,
                        "time": 291.15797318750157,
                        "value": 1
                    },
                    {
                        "number": 64,
                        "time": 292.43096137500163,
                        "value": 0
                    },
                    {
                        "number": 64,
                        "time": 292.5028004375016,
                        "value": 1
                    },
                    {
                        "number": 64,
                        "time": 293.8188920625016,
                        "value": 0
                    },
                    {
                        "number": 64,
                        "time": 293.9079725000016,
                        "value": 1
                    },
                    {
                        "number": 64,
                        "time": 295.2039491875017,
                        "value": 0
                    },
                    {
                        "number": 64,
                        "time": 295.35337443750166,
                        "value": 1
                    },
                    {
                        "number": 64,
                        "time": 296.5803856250017,
                        "value": 0
                    },
                    {
                        "number": 64,
                        "time": 296.6924545625017,
                        "value": 1
                    },
                    {
                        "number": 64,
                        "time": 297.93096000000173,
                        "value": 0
                    },
                    {
                        "number": 64,
                        "time": 298.02004043750173,
                        "value": 1
                    },
                    {
                        "number": 64,
                        "time": 300.6177409375017,
                        "value": 0
                    },
                    {
                        "number": 64,
                        "time": 300.6895800000017,
                        "value": 1
                    },
                    {
                        "number": 64,
                        "time": 302.0832578125017,
                        "value": 0
                    },
                    {
                        "number": 64,
                        "time": 302.1579704375017,
                        "value": 1
                    },
                    {
                        "number": 64,
                        "time": 303.4683149375017,
                        "value": 0
                    },
                    {
                        "number": 64,
                        "time": 303.5631425000017,
                        "value": 1
                    },
                    {
                        "number": 64,
                        "time": 304.8792341250017,
                        "value": 0
                    },
                    {
                        "number": 64,
                        "time": 305.0257858125017,
                        "value": 1
                    },
                    {
                        "number": 64,
                        "time": 306.2154406875017,
                        "value": 0
                    },
                    {
                        "number": 64,
                        "time": 306.3045211250017,
                        "value": 1
                    },
                    {
                        "number": 64,
                        "time": 307.6119920625017,
                        "value": 0
                    },
                    {
                        "number": 64,
                        "time": 307.7096931875017,
                        "value": 1
                    },
                    {
                        "number": 64,
                        "time": 308.9826813750018,
                        "value": 0
                    },
                    {
                        "number": 64,
                        "time": 309.05452043750176,
                        "value": 1
                    },
                    {
                        "number": 64,
                        "time": 310.3706120625018,
                        "value": 0
                    },
                    {
                        "number": 64,
                        "time": 310.4596925000018,
                        "value": 1
                    },
                    {
                        "number": 64,
                        "time": 311.75566918750184,
                        "value": 0
                    },
                    {
                        "number": 64,
                        "time": 311.9050944375018,
                        "value": 1
                    },
                    {
                        "number": 64,
                        "time": 313.1321056250019,
                        "value": 0
                    },
                    {
                        "number": 64,
                        "time": 313.2441745625019,
                        "value": 1
                    },
                    {
                        "number": 64,
                        "time": 314.4941742500019,
                        "value": 0
                    },
                    {
                        "number": 64,
                        "time": 314.5803811250019,
                        "value": 1
                    },
                    {
                        "number": 64,
                        "time": 315.8878520625019,
                        "value": 0
                    },
                    {
                        "number": 64,
                        "time": 315.9855531875019,
                        "value": 1
                    },
                    {
                        "number": 64,
                        "time": 317.258541375002,
                        "value": 0
                    },
                    {
                        "number": 64,
                        "time": 317.33038043750196,
                        "value": 1
                    },
                    {
                        "number": 64,
                        "time": 318.64647206250197,
                        "value": 0
                    },
                    {
                        "number": 64,
                        "time": 318.735552500002,
                        "value": 1
                    },
                    {
                        "number": 64,
                        "time": 320.03152918750203,
                        "value": 0
                    },
                    {
                        "number": 64,
                        "time": 320.180954437502,
                        "value": 1
                    },
                    {
                        "number": 64,
                        "time": 321.4079656250021,
                        "value": 0
                    },
                    {
                        "number": 64,
                        "time": 321.5200345625021,
                        "value": 1
                    },
                    {
                        "number": 64,
                        "time": 322.7585400000021,
                        "value": 0
                    },
                    {
                        "number": 64,
                        "time": 322.8562411250021,
                        "value": 1
                    },
                    {
                        "number": 64,
                        "time": 324.1637120625021,
                        "value": 0
                    },
                    {
                        "number": 64,
                        "time": 324.2614131875021,
                        "value": 1
                    },
                    {
                        "number": 64,
                        "time": 325.5344013750022,
                        "value": 0
                    },
                    {
                        "number": 64,
                        "time": 325.60624043750215,
                        "value": 1
                    },
                    {
                        "number": 64,
                        "time": 326.92233206250216,
                        "value": 0
                    },
                    {
                        "number": 64,
                        "time": 327.01141250000217,
                        "value": 1
                    },
                    {
                        "number": 64,
                        "time": 328.3073891875022,
                        "value": 0
                    },
                    {
                        "number": 64,
                        "time": 328.4568144375022,
                        "value": 1
                    },
                    {
                        "number": 64,
                        "time": 329.68382562500227,
                        "value": 0
                    },
                    {
                        "number": 64,
                        "time": 329.79589456250227,
                        "value": 1
                    },
                    {
                        "number": 64,
                        "time": 331.0573885000023,
                        "value": 0
                    },
                    {
                        "number": 64,
                        "time": 331.1321011250023,
                        "value": 1
                    },
                    {
                        "number": 64,
                        "time": 332.4395720625023,
                        "value": 0
                    },
                    {
                        "number": 64,
                        "time": 332.5372731875023,
                        "value": 1
                    },
                    {
                        "number": 64,
                        "time": 333.81026137500237,
                        "value": 0
                    },
                    {
                        "number": 64,
                        "time": 333.88210043750234,
                        "value": 1
                    },
                    {
                        "number": 64,
                        "time": 335.19819206250236,
                        "value": 0
                    },
                    {
                        "number": 64,
                        "time": 335.28727250000236,
                        "value": 1
                    },
                    {
                        "number": 64,
                        "time": 336.5832491875024,
                        "value": 0
                    },
                    {
                        "number": 64,
                        "time": 336.7326744375024,
                        "value": 1
                    },
                    {
                        "number": 64,
                        "time": 337.95968562500246,
                        "value": 0
                    },
                    {
                        "number": 64,
                        "time": 338.07175456250246,
                        "value": 1
                    },
                    {
                        "number": 64,
                        "time": 339.32462781250246,
                        "value": 0
                    },
                    {
                        "number": 64,
                        "time": 339.32750137500244,
                        "value": 0
                    },
                    {
                        "number": 64,
                        "time": 339.40796112500243,
                        "value": 1
                    },
                    {
                        "number": 64,
                        "time": 340.71543206250243,
                        "value": 0
                    },
                    {
                        "number": 64,
                        "time": 340.81313318750244,
                        "value": 1
                    },
                    {
                        "number": 64,
                        "time": 342.08612137500245,
                        "value": 0
                    },
                    {
                        "number": 64,
                        "time": 342.1579604375024,
                        "value": 1
                    },
                    {
                        "number": 64,
                        "time": 343.47405206250244,
                        "value": 0
                    },
                    {
                        "number": 64,
                        "time": 343.56313250000244,
                        "value": 1
                    },
                    {
                        "number": 64,
                        "time": 344.85910918750244,
                        "value": 0
                    },
                    {
                        "number": 64,
                        "time": 345.0085344375024,
                        "value": 1
                    },
                    {
                        "number": 64,
                        "time": 346.23554562500243,
                        "value": 0
                    },
                    {
                        "number": 64,
                        "time": 346.34761456250243,
                        "value": 1
                    },
                    {
                        "number": 64,
                        "time": 347.6263498750024,
                        "value": 0
                    },
                    {
                        "number": 64,
                        "time": 347.7671544375024,
                        "value": 1
                    },
                    {
                        "number": 64,
                        "time": 348.99416562500244,
                        "value": 0
                    },
                    {
                        "number": 64,
                        "time": 349.10623456250244,
                        "value": 1
                    },
                    {
                        "number": 64,
                        "time": 350.37634918750246,
                        "value": 0
                    },
                    {
                        "number": 64,
                        "time": 350.52577443750243,
                        "value": 1
                    },
                    {
                        "number": 64,
                        "time": 351.75278562500245,
                        "value": 0
                    },
                    {
                        "number": 64,
                        "time": 351.86485456250244,
                        "value": 1
                    },
                    {
                        "number": 64,
                        "time": 353.13496918750246,
                        "value": 0
                    },
                    {
                        "number": 64,
                        "time": 353.28439443750244,
                        "value": 1
                    },
                    {
                        "number": 64,
                        "time": 354.51140562500245,
                        "value": 0
                    },
                    {
                        "number": 64,
                        "time": 354.62347456250245,
                        "value": 1
                    },
                    {
                        "number": 64,
                        "time": 355.89358918750247,
                        "value": 0
                    },
                    {
                        "number": 64,
                        "time": 356.04301443750245,
                        "value": 1
                    },
                    {
                        "number": 64,
                        "time": 357.27002562500246,
                        "value": 0
                    },
                    {
                        "number": 64,
                        "time": 357.38209456250246,
                        "value": 1
                    },
                    {
                        "number": 64,
                        "time": 358.6522091875025,
                        "value": 0
                    },
                    {
                        "number": 64,
                        "time": 358.80163443750246,
                        "value": 1
                    },
                    {
                        "number": 64,
                        "time": 360.02864562500247,
                        "value": 0
                    },
                    {
                        "number": 64,
                        "time": 360.14071456250247,
                        "value": 1
                    },
                    {
                        "number": 64,
                        "time": 361.4108291875025,
                        "value": 0
                    },
                    {
                        "number": 64,
                        "time": 361.56025443750246,
                        "value": 1
                    },
                    {
                        "number": 64,
                        "time": 362.7872656250025,
                        "value": 0
                    },
                    {
                        "number": 64,
                        "time": 362.8993345625025,
                        "value": 1
                    },
                    {
                        "number": 64,
                        "time": 364.1608285000025,
                        "value": 0
                    },
                    {
                        "number": 64,
                        "time": 364.49990887500246,
                        "value": 1
                    },
                    {
                        "number": 64,
                        "time": 365.57462125000245,
                        "value": 0
                    },
                    {
                        "number": 64,
                        "time": 365.68956375000243,
                        "value": 1
                    },
                    {
                        "number": 64,
                        "time": 368.3073791875024,
                        "value": 0
                    },
                    {
                        "number": 64,
                        "time": 368.4223216875024,
                        "value": 1
                    },
                    {
                        "number": 64,
                        "time": 369.6953098750024,
                        "value": 0
                    },
                    {
                        "number": 64,
                        "time": 369.8188730625024,
                        "value": 1
                    },
                    {
                        "number": 64,
                        "time": 371.0659991875024,
                        "value": 0
                    },
                    {
                        "number": 64,
                        "time": 371.1493325000024,
                        "value": 1
                    },
                    {
                        "number": 64,
                        "time": 372.4711712500024,
                        "value": 0
                    },
                    {
                        "number": 64,
                        "time": 372.57461950000237,
                        "value": 1
                    },
                    {
                        "number": 64,
                        "time": 376.5832391875024,
                        "value": 0
                    },
                    {
                        "number": 64,
                        "time": 376.69818168750237,
                        "value": 1
                    },
                    {
                        "number": 64,
                        "time": 377.9711698750024,
                        "value": 0
                    },
                    {
                        "number": 64,
                        "time": 378.09473306250237,
                        "value": 1
                    },
                    {
                        "number": 64,
                        "time": 379.3418591875024,
                        "value": 0
                    },
                    {
                        "number": 64,
                        "time": 379.42519250000237,
                        "value": 1
                    },
                    {
                        "number": 64,
                        "time": 380.74415768750237,
                        "value": 0
                    },
                    {
                        "number": 64,
                        "time": 380.8504795000024,
                        "value": 1
                    },
                    {
                        "number": 64,
                        "time": 384.8590991875024,
                        "value": 0
                    },
                    {
                        "number": 64,
                        "time": 384.9740416875024,
                        "value": 1
                    },
                    {
                        "number": 64,
                        "time": 386.2470298750024,
                        "value": 0
                    },
                    {
                        "number": 64,
                        "time": 386.3705930625024,
                        "value": 1
                    },
                    {
                        "number": 64,
                        "time": 387.6177191875024,
                        "value": 0
                    },
                    {
                        "number": 64,
                        "time": 387.7010525000024,
                        "value": 1
                    },
                    {
                        "number": 64,
                        "time": 389.0142705625024,
                        "value": 0
                    },
                    {
                        "number": 64,
                        "time": 389.1263395000024,
                        "value": 1
                    },
                    {
                        "number": 64,
                        "time": 391.7642698750024,
                        "value": 0
                    },
                    {
                        "number": 64,
                        "time": 391.92806293750243,
                        "value": 1
                    },
                    {
                        "number": 64,
                        "time": 393.13495918750243,
                        "value": 0
                    },
                    {
                        "number": 64,
                        "time": 393.2499016875024,
                        "value": 1
                    },
                    {
                        "number": 64,
                        "time": 394.5228898750024,
                        "value": 0
                    },
                    {
                        "number": 64,
                        "time": 394.6464530625024,
                        "value": 1
                    },
                    {
                        "number": 64,
                        "time": 395.89357918750244,
                        "value": 0
                    },
                    {
                        "number": 64,
                        "time": 396.03438375000246,
                        "value": 1
                    },
                    {
                        "number": 64,
                        "time": 397.31024550000245,
                        "value": 0
                    },
                    {
                        "number": 64,
                        "time": 397.40219950000244,
                        "value": 1
                    },
                    {
                        "number": 64,
                        "time": 400.04012987500244,
                        "value": 0
                    },
                    {
                        "number": 64,
                        "time": 400.20392293750245,
                        "value": 1
                    },
                    {
                        "number": 64,
                        "time": 401.41081918750245,
                        "value": 0
                    },
                    {
                        "number": 64,
                        "time": 401.52576168750244,
                        "value": 1
                    },
                    {
                        "number": 64,
                        "time": 402.79874987500244,
                        "value": 0
                    },
                    {
                        "number": 64,
                        "time": 402.92231306250244,
                        "value": 1
                    },
                    {
                        "number": 64,
                        "time": 404.16943918750246,
                        "value": 0
                    },
                    {
                        "number": 64,
                        "time": 404.3102437500025,
                        "value": 1
                    },
                    {
                        "number": 64,
                        "time": 405.5832319375025,
                        "value": 0
                    },
                    {
                        "number": 64,
                        "time": 405.67805950000246,
                        "value": 1
                    },
                    {
                        "number": 64,
                        "time": 408.31598987500246,
                        "value": 0
                    },
                    {
                        "number": 64,
                        "time": 408.4797829375025,
                        "value": 1
                    },
                    {
                        "number": 64,
                        "time": 409.6866791875025,
                        "value": 0
                    },
                    {
                        "number": 64,
                        "time": 409.80162168750246,
                        "value": 1
                    },
                    {
                        "number": 64,
                        "time": 411.07460987500247,
                        "value": 0
                    },
                    {
                        "number": 64,
                        "time": 411.19817306250246,
                        "value": 1
                    },
                    {
                        "number": 64,
                        "time": 412.4452991875025,
                        "value": 0
                    },
                    {
                        "number": 64,
                        "time": 412.5861037500025,
                        "value": 1
                    },
                    {
                        "number": 64,
                        "time": 413.83322987500253,
                        "value": 0
                    },
                    {
                        "number": 64,
                        "time": 413.9567930625025,
                        "value": 1
                    },
                    {
                        "number": 64,
                        "time": 415.20391918750255,
                        "value": 0
                    },
                    {
                        "number": 64,
                        "time": 415.3447237500026,
                        "value": 1
                    },
                    {
                        "number": 64,
                        "time": 416.5918498750026,
                        "value": 0
                    },
                    {
                        "number": 64,
                        "time": 416.7154130625026,
                        "value": 1
                    },
                    {
                        "number": 64,
                        "time": 417.9625391875026,
                        "value": 0
                    },
                    {
                        "number": 64,
                        "time": 418.10334375000264,
                        "value": 1
                    },
                    {
                        "number": 64,
                        "time": 419.35046987500266,
                        "value": 0
                    },
                    {
                        "number": 64,
                        "time": 419.47403306250266,
                        "value": 1
                    },
                    {
                        "number": 64,
                        "time": 420.7211591875027,
                        "value": 0
                    },
                    {
                        "number": 64,
                        "time": 420.8619637500027,
                        "value": 1
                    },
                    {
                        "number": 64,
                        "time": 422.1090898750027,
                        "value": 0
                    },
                    {
                        "number": 64,
                        "time": 422.2326530625027,
                        "value": 1
                    },
                    {
                        "number": 64,
                        "time": 423.47977918750274,
                        "value": 0
                    },
                    {
                        "number": 64,
                        "time": 423.62058375000277,
                        "value": 1
                    },
                    {
                        "number": 64,
                        "time": 424.8677098750028,
                        "value": 0
                    },
                    {
                        "number": 64,
                        "time": 424.9912730625028,
                        "value": 1
                    },
                    {
                        "number": 64,
                        "time": 426.2383991875028,
                        "value": 0
                    },
                    {
                        "number": 64,
                        "time": 426.37920375000283,
                        "value": 1
                    },
                    {
                        "number": 64,
                        "time": 427.62632987500285,
                        "value": 0
                    },
                    {
                        "number": 64,
                        "time": 427.74989306250285,
                        "value": 1
                    },
                    {
                        "number": 64,
                        "time": 428.9970191875029,
                        "value": 0
                    },
                    {
                        "number": 64,
                        "time": 429.1378237500029,
                        "value": 1
                    },
                    {
                        "number": 64,
                        "time": 430.3849498750029,
                        "value": 0
                    },
                    {
                        "number": 64,
                        "time": 430.5085130625029,
                        "value": 1
                    },
                    {
                        "number": 64,
                        "time": 431.75563918750294,
                        "value": 0
                    },
                    {
                        "number": 64,
                        "time": 431.89644375000296,
                        "value": 1
                    },
                    {
                        "number": 64,
                        "time": 433.143569875003,
                        "value": 0
                    },
                    {
                        "number": 64,
                        "time": 433.267133062503,
                        "value": 1
                    },
                    {
                        "number": 64,
                        "time": 434.514259187503,
                        "value": 0
                    },
                    {
                        "number": 64,
                        "time": 434.655063750003,
                        "value": 1
                    },
                    {
                        "number": 64,
                        "time": 435.90218987500305,
                        "value": 0
                    },
                    {
                        "number": 64,
                        "time": 436.02575306250304,
                        "value": 1
                    },
                    {
                        "number": 64,
                        "time": 437.27287918750307,
                        "value": 0
                    },
                    {
                        "number": 64,
                        "time": 437.4136837500031,
                        "value": 1
                    },
                    {
                        "number": 64,
                        "time": 438.6608098750031,
                        "value": 0
                    },
                    {
                        "number": 64,
                        "time": 438.7843730625031,
                        "value": 1
                    },
                    {
                        "number": 64,
                        "time": 440.03149918750313,
                        "value": 0
                    },
                    {
                        "number": 64,
                        "time": 440.17230375000315,
                        "value": 1
                    },
                    {
                        "number": 64,
                        "time": 441.4194298750032,
                        "value": 0
                    },
                    {
                        "number": 64,
                        "time": 441.5429930625032,
                        "value": 1
                    },
                    {
                        "number": 64,
                        "time": 442.7901191875032,
                        "value": 0
                    },
                    {
                        "number": 64,
                        "time": 442.9309237500032,
                        "value": 1
                    },
                    {
                        "number": 64,
                        "time": 444.17804987500324,
                        "value": 0
                    },
                    {
                        "number": 64,
                        "time": 444.30161306250324,
                        "value": 1
                    },
                    {
                        "number": 64,
                        "time": 445.54873918750326,
                        "value": 0
                    },
                    {
                        "number": 64,
                        "time": 445.6895437500033,
                        "value": 1
                    },
                    {
                        "number": 64,
                        "time": 446.9366698750033,
                        "value": 0
                    },
                    {
                        "number": 64,
                        "time": 447.0602330625033,
                        "value": 1
                    },
                    {
                        "number": 64,
                        "time": 448.3073591875033,
                        "value": 0
                    },
                    {
                        "number": 64,
                        "time": 448.44816375000335,
                        "value": 1
                    },
                    {
                        "number": 64,
                        "time": 449.69528987500337,
                        "value": 0
                    },
                    {
                        "number": 64,
                        "time": 449.81885306250336,
                        "value": 1
                    },
                    {
                        "number": 64,
                        "time": 451.0659791875034,
                        "value": 0
                    },
                    {
                        "number": 64,
                        "time": 451.2067837500034,
                        "value": 1
                    },
                    {
                        "number": 64,
                        "time": 452.45390987500343,
                        "value": 0
                    },
                    {
                        "number": 64,
                        "time": 452.57747306250343,
                        "value": 1
                    },
                    {
                        "number": 64,
                        "time": 453.82459918750345,
                        "value": 0
                    },
                    {
                        "number": 64,
                        "time": 453.9654037500035,
                        "value": 1
                    },
                    {
                        "number": 64,
                        "time": 455.2125298750035,
                        "value": 0
                    },
                    {
                        "number": 64,
                        "time": 455.3044838750035,
                        "value": 1
                    },
                    {
                        "number": 64,
                        "time": 456.5860927500036,
                        "value": 0
                    },
                    {
                        "number": 64,
                        "time": 456.6521846875036,
                        "value": 1
                    },
                    {
                        "number": 64,
                        "time": 457.9596556250038,
                        "value": 0
                    },
                    {
                        "number": 64,
                        "time": 458.1119544375038,
                        "value": 1
                    },
                    {
                        "number": 64,
                        "time": 459.37344837500393,
                        "value": 0
                    },
                    {
                        "number": 64,
                        "time": 459.47402306250393,
                        "value": 1
                    },
                    {
                        "number": 64,
                        "time": 460.7067813750041,
                        "value": 0
                    },
                    {
                        "number": 64,
                        "time": 460.7872411250041,
                        "value": 1
                    },
                    {
                        "number": 64,
                        "time": 463.4883898750044,
                        "value": 0
                    },
                    {
                        "number": 64,
                        "time": 463.58034387500436,
                        "value": 1
                    },
                    {
                        "number": 64,
                        "time": 464.8619527500045,
                        "value": 0
                    },
                    {
                        "number": 64,
                        "time": 464.9280446875045,
                        "value": 1
                    },
                    {
                        "number": 64,
                        "time": 466.23551562500467,
                        "value": 0
                    },
                    {
                        "number": 64,
                        "time": 466.3878144375047,
                        "value": 1
                    },
                    {
                        "number": 64,
                        "time": 467.6521819375048,
                        "value": 0
                    },
                    {
                        "number": 64,
                        "time": 467.7498830625048,
                        "value": 1
                    },
                    {
                        "number": 64,
                        "time": 468.98264137500496,
                        "value": 0
                    },
                    {
                        "number": 64,
                        "time": 469.06310112500495,
                        "value": 1
                    },
                    {
                        "number": 64,
                        "time": 471.76424987500525,
                        "value": 0
                    },
                    {
                        "number": 64,
                        "time": 471.85620387500524,
                        "value": 1
                    },
                    {
                        "number": 64,
                        "time": 473.13781275000537,
                        "value": 0
                    },
                    {
                        "number": 64,
                        "time": 473.20390468750537,
                        "value": 1
                    },
                    {
                        "number": 64,
                        "time": 474.51137562500554,
                        "value": 0
                    },
                    {
                        "number": 64,
                        "time": 474.66367443750556,
                        "value": 1
                    },
                    {
                        "number": 64,
                        "time": 477.25850137500584,
                        "value": 0
                    },
                    {
                        "number": 64,
                        "time": 477.3389611250058,
                        "value": 1
                    },
                    {
                        "number": 64,
                        "time": 480.0113742500061,
                        "value": 0
                    },
                    {
                        "number": 64,
                        "time": 480.1607995000061,
                        "value": 1
                    },
                    {
                        "number": 64,
                        "time": 488.3073491875061,
                        "value": 0
                    },
                    {
                        "number": 64,
                        "time": 488.4280388125061,
                        "value": 1
                    },
                    {
                        "number": 64,
                        "time": 496.5516000000061,
                        "value": 0
                    }
                ]
            },
            "id": 4,
            "name": "Piano left2",
            "instrumentNumber": 0,
            "instrument": "acoustic grand piano",
            "instrumentFamily": "piano",
            "channelNumber": 0,
            "isPercussion": false
        },
        {
            "startTime": 0,
            "duration": 0,
            "length": 0,
            "notes": [],
            "controlChanges": {},
            "id": 5,
            "name": "Liszt: Etude No. 1 from Grandes Etudes de Paganini"
        },
        {
            "startTime": 0,
            "duration": 0,
            "length": 0,
            "notes": [],
            "controlChanges": {},
            "id": 6,
            "name": "Copyright  2004 by Bernd Krger"
        },
        {
            "startTime": 0,
            "duration": 0,
            "length": 0,
            "notes": [],
            "controlChanges": {},
            "id": 7,
            "name": "http://www.piano-midi.de"
        },
        {
            "startTime": 0,
            "duration": 0,
            "length": 0,
            "notes": [],
            "controlChanges": {},
            "id": 8,
            "name": "Edition: 2014-03-03"
        },
        {
            "startTime": 0,
            "duration": 0,
            "length": 0,
            "notes": [],
            "controlChanges": {},
            "id": 9,
            "name": "Spur 9"
        },
        {
            "startTime": 0,
            "duration": 0,
            "length": 0,
            "notes": [],
            "controlChanges": {},
            "id": 10,
            "name": "Spur 10"
        }
    ]
}