{
    "header": {
        "PPQ": 480,
        "timeSignature": [
            6,
            4
        ],
        "bpm": 100,
        "name": "Promenade - Der Markt von Limoges- Catacombae - Con mortuis in lingua mortua"
    },
    "startTime": 0,
    "duration": 307.80000000000217,
    "tracks": [
        {
            "startTime": 0,
            "duration": 0,
            "length": 0,
            "notes": [],
            "controlChanges": {},
            "id": 0,
            "name": "Promenade - Der Markt von Limoges- Catacombae - Con mortuis in lingua mortua"
        },
        {
            "startTime": 0.00125,
            "duration": 307.79999999998677,
            "length": 2391,
            "notes": [
                {
                    "name": "G4",
                    "midi": 67,
                    "time": 0.00125,
                    "velocity": 0.7086614173228346,
                    "duration": 0.625
                },
                {
                    "name": "F4",
                    "midi": 65,
                    "time": 0.6,
                    "velocity": 0.6692913385826772,
                    "duration": 0.6249999999999999
                },
                {
                    "name": "A#4",
                    "midi": 70,
                    "time": 1.2,
                    "velocity": 0.7007874015748031,
                    "duration": 0.6249999999999998
                },
                {
                    "name": "C5",
                    "midi": 72,
                    "time": 1.7999999999999998,
                    "velocity": 0.6850393700787402,
                    "duration": 0.32499999999999973
                },
                {
                    "name": "F5",
                    "midi": 77,
                    "time": 2.0999999999999996,
                    "velocity": 0.5748031496062992,
                    "duration": 0.32499999999999973
                },
                {
                    "name": "D5",
                    "midi": 74,
                    "time": 2.3999999999999995,
                    "velocity": 0.6771653543307087,
                    "duration": 0.6249999999999996
                },
                {
                    "name": "C5",
                    "midi": 72,
                    "time": 2.999999999999999,
                    "velocity": 0.6692913385826772,
                    "duration": 0.32499999999999973
                },
                {
                    "name": "F5",
                    "midi": 77,
                    "time": 3.299999999999999,
                    "velocity": 0.5826771653543307,
                    "duration": 0.32499999999999973
                },
                {
                    "name": "D5",
                    "midi": 74,
                    "time": 3.5999999999999988,
                    "velocity": 0.6692913385826772,
                    "duration": 0.5625
                },
                {
                    "name": "A#4",
                    "midi": 70,
                    "time": 4.199999999999998,
                    "velocity": 0.6771653543307087,
                    "duration": 0.625
                },
                {
                    "name": "C5",
                    "midi": 72,
                    "time": 4.799999999999998,
                    "velocity": 0.6771653543307087,
                    "duration": 0.6250000000000009
                },
                {
                    "name": "G4",
                    "midi": 67,
                    "time": 5.399999999999999,
                    "velocity": 0.6456692913385826,
                    "duration": 0.6250000000000009
                },
                {
                    "name": "F4",
                    "midi": 65,
                    "time": 5.999999999999999,
                    "velocity": 0.6377952755905512,
                    "duration": 0.5625
                },
                {
                    "name": "A#3",
                    "midi": 58,
                    "time": 6.599999999999999,
                    "velocity": 0.5433070866141733,
                    "duration": 0.5999999999999996
                },
                {
                    "name": "G4",
                    "midi": 67,
                    "time": 6.599999999999999,
                    "velocity": 0.6456692913385826,
                    "duration": 0.5999999999999996
                },
                {
                    "name": "D4",
                    "midi": 62,
                    "time": 6.599999999999999,
                    "velocity": 0.5433070866141733,
                    "duration": 0.5999999999999996
                },
                {
                    "name": "C4",
                    "midi": 60,
                    "time": 7.199999999999998,
                    "velocity": 0.5354330708661418,
                    "duration": 0.5999999999999996
                },
                {
                    "name": "A3",
                    "midi": 57,
                    "time": 7.199999999999998,
                    "velocity": 0.5354330708661418,
                    "duration": 0.5999999999999996
                },
                {
                    "name": "F4",
                    "midi": 65,
                    "time": 7.199999999999998,
                    "velocity": 0.6299212598425197,
                    "duration": 0.5999999999999996
                },
                {
                    "name": "D4",
                    "midi": 62,
                    "time": 7.799999999999998,
                    "velocity": 0.5354330708661418,
                    "duration": 0.6000000000000005
                },
                {
                    "name": "A#3",
                    "midi": 58,
                    "time": 7.799999999999998,
                    "velocity": 0.5354330708661418,
                    "duration": 0.6000000000000005
                },
                {
                    "name": "A#4",
                    "midi": 70,
                    "time": 7.799999999999998,
                    "velocity": 0.6299212598425197,
                    "duration": 0.6000000000000005
                },
                {
                    "name": "C4",
                    "midi": 60,
                    "time": 8.399999999999999,
                    "velocity": 0.5433070866141733,
                    "duration": 0.6000000000000014
                },
                {
                    "name": "C5",
                    "midi": 72,
                    "time": 8.399999999999999,
                    "velocity": 0.6456692913385826,
                    "duration": 0.3000000000000007
                },
                {
                    "name": "A4",
                    "midi": 69,
                    "time": 8.399999999999999,
                    "velocity": 0.5433070866141733,
                    "duration": 0.6000000000000014
                },
                {
                    "name": "F5",
                    "midi": 77,
                    "time": 8.7,
                    "velocity": 0.6141732283464567,
                    "duration": 0.3000000000000007
                },
                {
                    "name": "A4",
                    "midi": 69,
                    "time": 9,
                    "velocity": 0.5354330708661418,
                    "duration": 0.5999999999999996
                },
                {
                    "name": "D5",
                    "midi": 74,
                    "time": 9,
                    "velocity": 0.6377952755905512,
                    "duration": 0.5999999999999996
                },
                {
                    "name": "F4",
                    "midi": 65,
                    "time": 9,
                    "velocity": 0.5354330708661418,
                    "duration": 0.5999999999999996
                },
                {
                    "name": "C4",
                    "midi": 60,
                    "time": 9.6,
                    "velocity": 0.5354330708661418,
                    "duration": 0.6000000000000014
                },
                {
                    "name": "A4",
                    "midi": 69,
                    "time": 9.6,
                    "velocity": 0.5354330708661418,
                    "duration": 0.6000000000000014
                },
                {
                    "name": "C5",
                    "midi": 72,
                    "time": 9.6,
                    "velocity": 0.6377952755905512,
                    "duration": 0.3000000000000007
                },
                {
                    "name": "F5",
                    "midi": 77,
                    "time": 9.9,
                    "velocity": 0.6062992125984252,
                    "duration": 0.3000000000000007
                },
                {
                    "name": "A#4",
                    "midi": 70,
                    "time": 10.200000000000001,
                    "velocity": 0.5590551181102362,
                    "duration": 0.5625
                },
                {
                    "name": "F4",
                    "midi": 65,
                    "time": 10.200000000000001,
                    "velocity": 0.5590551181102362,
                    "duration": 0.5625
                },
                {
                    "name": "D5",
                    "midi": 74,
                    "time": 10.200000000000001,
                    "velocity": 0.6614173228346457,
                    "duration": 0.5625
                },
                {
                    "name": "G4",
                    "midi": 67,
                    "time": 10.8,
                    "velocity": 0.5196850393700787,
                    "duration": 0.5999999999999996
                },
                {
                    "name": "D4",
                    "midi": 62,
                    "time": 10.8,
                    "velocity": 0.5196850393700787,
                    "duration": 0.5999999999999996
                },
                {
                    "name": "A#4",
                    "midi": 70,
                    "time": 10.8,
                    "velocity": 0.6141732283464567,
                    "duration": 0.5999999999999996
                },
                {
                    "name": "G4",
                    "midi": 67,
                    "time": 11.4,
                    "velocity": 0.5118110236220472,
                    "duration": 0.5999999999999996
                },
                {
                    "name": "E4",
                    "midi": 64,
                    "time": 11.4,
                    "velocity": 0.5118110236220472,
                    "duration": 0.5999999999999996
                },
                {
                    "name": "C5",
                    "midi": 72,
                    "time": 11.4,
                    "velocity": 0.6062992125984252,
                    "duration": 0.5999999999999996
                },
                {
                    "name": "C4",
                    "midi": 60,
                    "time": 12,
                    "velocity": 0.4645669291338583,
                    "duration": 0.5999999999999996
                },
                {
                    "name": "G4",
                    "midi": 67,
                    "time": 12,
                    "velocity": 0.5511811023622047,
                    "duration": 0.5999999999999996
                },
                {
                    "name": "G3",
                    "midi": 55,
                    "time": 12,
                    "velocity": 0.4645669291338583,
                    "duration": 0.5999999999999996
                },
                {
                    "name": "F4",
                    "midi": 65,
                    "time": 12.6,
                    "velocity": 0.5196850393700787,
                    "duration": 0.5625
                },
                {
                    "name": "A3",
                    "midi": 57,
                    "time": 12.6,
                    "velocity": 0.4409448818897638,
                    "duration": 0.5625
                },
                {
                    "name": "C4",
                    "midi": 60,
                    "time": 12.6,
                    "velocity": 0.4409448818897638,
                    "duration": 0.5625
                },
                {
                    "name": "F4",
                    "midi": 65,
                    "time": 13.2,
                    "velocity": 0.7244094488188977,
                    "duration": 0.625
                },
                {
                    "name": "G4",
                    "midi": 67,
                    "time": 13.799999999999999,
                    "velocity": 0.6929133858267716,
                    "duration": 0.625
                },
                {
                    "name": "D4",
                    "midi": 62,
                    "time": 14.399999999999999,
                    "velocity": 0.6535433070866141,
                    "duration": 0.625
                },
                {
                    "name": "F4",
                    "midi": 65,
                    "time": 14.999999999999998,
                    "velocity": 0.6771653543307087,
                    "duration": 0.32500000000000107
                },
                {
                    "name": "G4",
                    "midi": 67,
                    "time": 15.299999999999999,
                    "velocity": 0.5826771653543307,
                    "duration": 0.32500000000000107
                },
                {
                    "name": "C4",
                    "midi": 60,
                    "time": 15.6,
                    "velocity": 0.6299212598425197,
                    "duration": 0.6249999999999982
                },
                {
                    "name": "G4",
                    "midi": 67,
                    "time": 16.2,
                    "velocity": 0.6299212598425197,
                    "duration": 0.32499999999999574
                },
                {
                    "name": "A4",
                    "midi": 69,
                    "time": 16.499999999999996,
                    "velocity": 0.5669291338582677,
                    "duration": 0.32499999999999574
                },
                {
                    "name": "F4",
                    "midi": 65,
                    "time": 16.799999999999994,
                    "velocity": 0.6220472440944882,
                    "duration": 0.5625
                },
                {
                    "name": "C5",
                    "midi": 72,
                    "time": 17.399999999999995,
                    "velocity": 0.5590551181102362,
                    "duration": 0.6000000000000014
                },
                {
                    "name": "F4",
                    "midi": 65,
                    "time": 17.399999999999995,
                    "velocity": 0.5590551181102362,
                    "duration": 0.6000000000000014
                },
                {
                    "name": "A4",
                    "midi": 69,
                    "time": 17.399999999999995,
                    "velocity": 0.5590551181102362,
                    "duration": 0.6000000000000014
                },
                {
                    "name": "F5",
                    "midi": 77,
                    "time": 17.399999999999995,
                    "velocity": 0.6614173228346457,
                    "duration": 0.6000000000000014
                },
                {
                    "name": "F4",
                    "midi": 65,
                    "time": 17.999999999999996,
                    "velocity": 0.5433070866141733,
                    "duration": 0.6000000000000014
                },
                {
                    "name": "D4",
                    "midi": 62,
                    "time": 17.999999999999996,
                    "velocity": 0.5433070866141733,
                    "duration": 0.6000000000000014
                },
                {
                    "name": "D5",
                    "midi": 74,
                    "time": 17.999999999999996,
                    "velocity": 0.6456692913385826,
                    "duration": 0.6000000000000014
                },
                {
                    "name": "C5",
                    "midi": 72,
                    "time": 18.599999999999998,
                    "velocity": 0.6299212598425197,
                    "duration": 0.3000000000000007
                },
                {
                    "name": "C4",
                    "midi": 60,
                    "time": 18.599999999999998,
                    "velocity": 0.5354330708661418,
                    "duration": 0.3000000000000007
                },
                {
                    "name": "F4",
                    "midi": 65,
                    "time": 18.599999999999998,
                    "velocity": 0.5354330708661418,
                    "duration": 0.6000000000000014
                },
                {
                    "name": "A#4",
                    "midi": 70,
                    "time": 18.9,
                    "velocity": 0.5826771653543307,
                    "duration": 0.3000000000000007
                },
                {
                    "name": "A#3",
                    "midi": 58,
                    "time": 18.9,
                    "velocity": 0.4881889763779528,
                    "duration": 0.3000000000000007
                },
                {
                    "name": "F4",
                    "midi": 65,
                    "time": 19.2,
                    "velocity": 0.6220472440944882,
                    "duration": 0.5625
                },
                {
                    "name": "F4",
                    "midi": 65,
                    "time": 19.8,
                    "velocity": 0.7244094488188977,
                    "duration": 0.625
                },
                {
                    "name": "G4",
                    "midi": 67,
                    "time": 20.400000000000002,
                    "velocity": 0.6929133858267716,
                    "duration": 0.6249999999999964
                },
                {
                    "name": "D4",
                    "midi": 62,
                    "time": 21,
                    "velocity": 0.6692913385826772,
                    "duration": 0.6249999999999964
                },
                {
                    "name": "F4",
                    "midi": 65,
                    "time": 21.599999999999998,
                    "velocity": 0.6771653543307087,
                    "duration": 0.32499999999999574
                },
                {
                    "name": "G4",
                    "midi": 67,
                    "time": 21.899999999999995,
                    "velocity": 0.6062992125984252,
                    "duration": 0.32499999999999574
                },
                {
                    "name": "D#4",
                    "midi": 63,
                    "time": 22.199999999999992,
                    "velocity": 0.6692913385826772,
                    "duration": 0.6249999999999964
                },
                {
                    "name": "A#4",
                    "midi": 70,
                    "time": 22.79999999999999,
                    "velocity": 0.7401574803149606,
                    "duration": 0.32499999999999574
                },
                {
                    "name": "C5",
                    "midi": 72,
                    "time": 23.099999999999987,
                    "velocity": 0.6141732283464567,
                    "duration": 0.32499999999999574
                },
                {
                    "name": "G#4",
                    "midi": 68,
                    "time": 23.399999999999984,
                    "velocity": 0.6377952755905512,
                    "duration": 0.5625
                },
                {
                    "name": "G#4",
                    "midi": 68,
                    "time": 23.999999999999986,
                    "velocity": 0.5590551181102362,
                    "duration": 0.6000000000000014
                },
                {
                    "name": "C5",
                    "midi": 72,
                    "time": 23.999999999999986,
                    "velocity": 0.5590551181102362,
                    "duration": 0.6000000000000014
                },
                {
                    "name": "D#5",
                    "midi": 75,
                    "time": 23.999999999999986,
                    "velocity": 0.5590551181102362,
                    "duration": 0.6000000000000014
                },
                {
                    "name": "G#5",
                    "midi": 80,
                    "time": 23.999999999999986,
                    "velocity": 0.6614173228346457,
                    "duration": 0.6000000000000014
                },
                {
                    "name": "F5",
                    "midi": 77,
                    "time": 24.599999999999987,
                    "velocity": 0.6299212598425197,
                    "duration": 0.6000000000000014
                },
                {
                    "name": "G#4",
                    "midi": 68,
                    "time": 24.599999999999987,
                    "velocity": 0.5354330708661418,
                    "duration": 0.6000000000000014
                },
                {
                    "name": "F4",
                    "midi": 65,
                    "time": 24.599999999999987,
                    "velocity": 0.5354330708661418,
                    "duration": 0.6000000000000014
                },
                {
                    "name": "D#4",
                    "midi": 63,
                    "time": 25.19999999999999,
                    "velocity": 0.5196850393700787,
                    "duration": 0.3000000000000007
                },
                {
                    "name": "D#5",
                    "midi": 75,
                    "time": 25.19999999999999,
                    "velocity": 0.6141732283464567,
                    "duration": 0.3000000000000007
                },
                {
                    "name": "G#4",
                    "midi": 68,
                    "time": 25.19999999999999,
                    "velocity": 0.5196850393700787,
                    "duration": 0.3000000000000007
                },
                {
                    "name": "C#4",
                    "midi": 61,
                    "time": 25.49999999999999,
                    "velocity": 0.5196850393700787,
                    "duration": 0.3000000000000007
                },
                {
                    "name": "C#5",
                    "midi": 73,
                    "time": 25.49999999999999,
                    "velocity": 0.6141732283464567,
                    "duration": 0.3000000000000007
                },
                {
                    "name": "G#4",
                    "midi": 68,
                    "time": 25.79999999999999,
                    "velocity": 0.5826771653543307,
                    "duration": 0.5625
                },
                {
                    "name": "D#4",
                    "midi": 63,
                    "time": 26.39999999999999,
                    "velocity": 0.3779527559055118,
                    "duration": 1.8000000000000043
                },
                {
                    "name": "G#3",
                    "midi": 56,
                    "time": 26.39999999999999,
                    "velocity": 0.3779527559055118,
                    "duration": 0.6000000000000014
                },
                {
                    "name": "G#4",
                    "midi": 68,
                    "time": 26.39999999999999,
                    "velocity": 0.44881889763779526,
                    "duration": 0.6000000000000014
                },
                {
                    "name": "A#3",
                    "midi": 58,
                    "time": 26.999999999999993,
                    "velocity": 0.3858267716535433,
                    "duration": 0.6000000000000014
                },
                {
                    "name": "A#4",
                    "midi": 70,
                    "time": 26.999999999999993,
                    "velocity": 0.4566929133858268,
                    "duration": 0.6000000000000014
                },
                {
                    "name": "G#4",
                    "midi": 68,
                    "time": 27.599999999999994,
                    "velocity": 0.4566929133858268,
                    "duration": 0.6000000000000014
                },
                {
                    "name": "G#3",
                    "midi": 56,
                    "time": 27.599999999999994,
                    "velocity": 0.3858267716535433,
                    "duration": 0.6000000000000014
                },
                {
                    "name": "D#4",
                    "midi": 63,
                    "time": 28.199999999999996,
                    "velocity": 0.3858267716535433,
                    "duration": 0.9000000000000021
                },
                {
                    "name": "A#3",
                    "midi": 58,
                    "time": 28.199999999999996,
                    "velocity": 0.3858267716535433,
                    "duration": 0.3000000000000007
                },
                {
                    "name": "A#4",
                    "midi": 70,
                    "time": 28.199999999999996,
                    "velocity": 0.4566929133858268,
                    "duration": 0.3000000000000007
                },
                {
                    "name": "C4",
                    "midi": 60,
                    "time": 28.499999999999996,
                    "velocity": 0.3858267716535433,
                    "duration": 0.3000000000000007
                },
                {
                    "name": "C5",
                    "midi": 72,
                    "time": 28.499999999999996,
                    "velocity": 0.4566929133858268,
                    "duration": 0.3000000000000007
                },
                {
                    "name": "D#5",
                    "midi": 75,
                    "time": 28.799999999999997,
                    "velocity": 0.49606299212598426,
                    "duration": 0.3000000000000007
                },
                {
                    "name": "D#4",
                    "midi": 63,
                    "time": 28.799999999999997,
                    "velocity": 0.41732283464566927,
                    "duration": 1.2000000000000028
                },
                {
                    "name": "A#3",
                    "midi": 58,
                    "time": 29.099999999999998,
                    "velocity": 0.3858267716535433,
                    "duration": 0.3000000000000007
                },
                {
                    "name": "A#4",
                    "midi": 70,
                    "time": 29.099999999999998,
                    "velocity": 0.4566929133858268,
                    "duration": 0.3000000000000007
                },
                {
                    "name": "G#3",
                    "midi": 56,
                    "time": 29.4,
                    "velocity": 0.36220472440944884,
                    "duration": 0.6000000000000014
                },
                {
                    "name": "G#4",
                    "midi": 68,
                    "time": 29.4,
                    "velocity": 0.4330708661417323,
                    "duration": 0.6000000000000014
                },
                {
                    "name": "C#5",
                    "midi": 73,
                    "time": 30,
                    "velocity": 0.5748031496062992,
                    "duration": 0.3000000000000007
                },
                {
                    "name": "G#4",
                    "midi": 68,
                    "time": 30,
                    "velocity": 0.4881889763779528,
                    "duration": 0.3000000000000007
                },
                {
                    "name": "C#4",
                    "midi": 61,
                    "time": 30,
                    "velocity": 0.4881889763779528,
                    "duration": 0.3000000000000007
                },
                {
                    "name": "F4",
                    "midi": 65,
                    "time": 30,
                    "velocity": 0.4881889763779528,
                    "duration": 0.3000000000000007
                },
                {
                    "name": "C5",
                    "midi": 72,
                    "time": 30.3,
                    "velocity": 0.4566929133858268,
                    "duration": 0.3000000000000007
                },
                {
                    "name": "D#5",
                    "midi": 75,
                    "time": 30.3,
                    "velocity": 0.5433070866141733,
                    "duration": 0.3000000000000007
                },
                {
                    "name": "G#4",
                    "midi": 68,
                    "time": 30.3,
                    "velocity": 0.4566929133858268,
                    "duration": 0.3000000000000007
                },
                {
                    "name": "D#4",
                    "midi": 63,
                    "time": 30.3,
                    "velocity": 0.4566929133858268,
                    "duration": 0.3000000000000007
                },
                {
                    "name": "F4",
                    "midi": 65,
                    "time": 30.6,
                    "velocity": 0.4881889763779528,
                    "duration": 0.3000000000000007
                },
                {
                    "name": "F5",
                    "midi": 77,
                    "time": 30.6,
                    "velocity": 0.5748031496062992,
                    "duration": 0.3000000000000007
                },
                {
                    "name": "G#4",
                    "midi": 68,
                    "time": 30.6,
                    "velocity": 0.4881889763779528,
                    "duration": 0.3000000000000007
                },
                {
                    "name": "C#5",
                    "midi": 73,
                    "time": 30.6,
                    "velocity": 0.4881889763779528,
                    "duration": 0.3000000000000007
                },
                {
                    "name": "G#4",
                    "midi": 68,
                    "time": 30.900000000000002,
                    "velocity": 0.49606299212598426,
                    "duration": 0.3000000000000007
                },
                {
                    "name": "G#5",
                    "midi": 80,
                    "time": 30.900000000000002,
                    "velocity": 0.5905511811023622,
                    "duration": 0.3000000000000007
                },
                {
                    "name": "F#4",
                    "midi": 66,
                    "time": 31.200000000000003,
                    "velocity": 0.48031496062992124,
                    "duration": 0.3000000000000007
                },
                {
                    "name": "F#5",
                    "midi": 78,
                    "time": 31.200000000000003,
                    "velocity": 0.5669291338582677,
                    "duration": 0.3000000000000007
                },
                {
                    "name": "A#4",
                    "midi": 70,
                    "time": 31.200000000000003,
                    "velocity": 0.48031496062992124,
                    "duration": 0.3000000000000007
                },
                {
                    "name": "D#5",
                    "midi": 75,
                    "time": 31.200000000000003,
                    "velocity": 0.48031496062992124,
                    "duration": 0.3000000000000007
                },
                {
                    "name": "F4",
                    "midi": 65,
                    "time": 31.500000000000004,
                    "velocity": 0.44881889763779526,
                    "duration": 0.3000000000000007
                },
                {
                    "name": "F5",
                    "midi": 77,
                    "time": 31.500000000000004,
                    "velocity": 0.5354330708661418,
                    "duration": 0.3000000000000007
                },
                {
                    "name": "G#4",
                    "midi": 68,
                    "time": 31.500000000000004,
                    "velocity": 0.44881889763779526,
                    "duration": 0.3000000000000007
                },
                {
                    "name": "C#5",
                    "midi": 73,
                    "time": 31.500000000000004,
                    "velocity": 0.44881889763779526,
                    "duration": 0.3000000000000007
                },
                {
                    "name": "C5",
                    "midi": 72,
                    "time": 31.800000000000004,
                    "velocity": 0.49606299212598426,
                    "duration": 0.29999999999999716
                },
                {
                    "name": "D#5",
                    "midi": 75,
                    "time": 31.800000000000004,
                    "velocity": 0.5905511811023622,
                    "duration": 0.29999999999999716
                },
                {
                    "name": "G#4",
                    "midi": 68,
                    "time": 31.800000000000004,
                    "velocity": 0.49606299212598426,
                    "duration": 0.29999999999999716
                },
                {
                    "name": "D#4",
                    "midi": 63,
                    "time": 31.800000000000004,
                    "velocity": 0.49606299212598426,
                    "duration": 0.29999999999999716
                },
                {
                    "name": "F#5",
                    "midi": 78,
                    "time": 32.1,
                    "velocity": 0.5433070866141733,
                    "duration": 0.29999999999999716
                },
                {
                    "name": "F#4",
                    "midi": 66,
                    "time": 32.1,
                    "velocity": 0.4566929133858268,
                    "duration": 0.29999999999999716
                },
                {
                    "name": "C#5",
                    "midi": 73,
                    "time": 32.4,
                    "velocity": 0.4566929133858268,
                    "duration": 0.29999999999999716
                },
                {
                    "name": "F5",
                    "midi": 77,
                    "time": 32.4,
                    "velocity": 0.5433070866141733,
                    "duration": 0.29999999999999716
                },
                {
                    "name": "F4",
                    "midi": 65,
                    "time": 32.4,
                    "velocity": 0.4566929133858268,
                    "duration": 0.29999999999999716
                },
                {
                    "name": "A#4",
                    "midi": 70,
                    "time": 32.4,
                    "velocity": 0.4566929133858268,
                    "duration": 0.29999999999999716
                },
                {
                    "name": "C#4",
                    "midi": 61,
                    "time": 32.699999999999996,
                    "velocity": 0.44881889763779526,
                    "duration": 0.29999999999999716
                },
                {
                    "name": "C#5",
                    "midi": 73,
                    "time": 32.699999999999996,
                    "velocity": 0.5354330708661418,
                    "duration": 0.29999999999999716
                },
                {
                    "name": "G#4",
                    "midi": 68,
                    "time": 32.99999999999999,
                    "velocity": 0.4251968503937008,
                    "duration": 0.6000000000000014
                },
                {
                    "name": "D#4",
                    "midi": 63,
                    "time": 32.99999999999999,
                    "velocity": 0.4251968503937008,
                    "duration": 0.6000000000000014
                },
                {
                    "name": "C5",
                    "midi": 72,
                    "time": 32.99999999999999,
                    "velocity": 0.4251968503937008,
                    "duration": 0.6000000000000014
                },
                {
                    "name": "D#5",
                    "midi": 75,
                    "time": 32.99999999999999,
                    "velocity": 0.5039370078740157,
                    "duration": 0.6000000000000014
                },
                {
                    "name": "D#4",
                    "midi": 63,
                    "time": 33.599999999999994,
                    "velocity": 0.4015748031496063,
                    "duration": 0.6000000000000014
                },
                {
                    "name": "G#3",
                    "midi": 56,
                    "time": 33.599999999999994,
                    "velocity": 0.4015748031496063,
                    "duration": 0.6000000000000014
                },
                {
                    "name": "G#4",
                    "midi": 68,
                    "time": 33.599999999999994,
                    "velocity": 0.48031496062992124,
                    "duration": 0.6000000000000014
                },
                {
                    "name": "D#4",
                    "midi": 63,
                    "time": 34.199999999999996,
                    "velocity": 0.4015748031496063,
                    "duration": 0.6000000000000014
                },
                {
                    "name": "A#4",
                    "midi": 70,
                    "time": 34.199999999999996,
                    "velocity": 0.48031496062992124,
                    "duration": 0.6000000000000014
                },
                {
                    "name": "A#3",
                    "midi": 58,
                    "time": 34.199999999999996,
                    "velocity": 0.4015748031496063,
                    "duration": 0.6000000000000014
                },
                {
                    "name": "G#3",
                    "midi": 56,
                    "time": 34.8,
                    "velocity": 0.4015748031496063,
                    "duration": 0.6000000000000014
                },
                {
                    "name": "D#4",
                    "midi": 63,
                    "time": 34.8,
                    "velocity": 0.4015748031496063,
                    "duration": 0.6000000000000014
                },
                {
                    "name": "G#4",
                    "midi": 68,
                    "time": 34.8,
                    "velocity": 0.48031496062992124,
                    "duration": 0.6000000000000014
                },
                {
                    "name": "A#3",
                    "midi": 58,
                    "time": 35.4,
                    "velocity": 0.3858267716535433,
                    "duration": 0.29999999999999716
                },
                {
                    "name": "D#4",
                    "midi": 63,
                    "time": 35.4,
                    "velocity": 0.3858267716535433,
                    "duration": 0.8999999999999915
                },
                {
                    "name": "A#4",
                    "midi": 70,
                    "time": 35.4,
                    "velocity": 0.4566929133858268,
                    "duration": 0.29999999999999716
                },
                {
                    "name": "C5",
                    "midi": 72,
                    "time": 35.699999999999996,
                    "velocity": 0.4566929133858268,
                    "duration": 0.29999999999999716
                },
                {
                    "name": "C4",
                    "midi": 60,
                    "time": 35.699999999999996,
                    "velocity": 0.3858267716535433,
                    "duration": 0.29999999999999716
                },
                {
                    "name": "D#4",
                    "midi": 63,
                    "time": 35.99999999999999,
                    "velocity": 0.41732283464566927,
                    "duration": 0.29999999999999716
                },
                {
                    "name": "D#5",
                    "midi": 75,
                    "time": 35.99999999999999,
                    "velocity": 0.49606299212598426,
                    "duration": 0.29999999999999716
                },
                {
                    "name": "A#3",
                    "midi": 58,
                    "time": 36.29999999999999,
                    "velocity": 0.3858267716535433,
                    "duration": 0.26250000000000284
                },
                {
                    "name": "A#4",
                    "midi": 70,
                    "time": 36.29999999999999,
                    "velocity": 0.4566929133858268,
                    "duration": 0.26250000000000284
                },
                {
                    "name": "C5",
                    "midi": 72,
                    "time": 36.599999999999994,
                    "velocity": 0.4881889763779528,
                    "duration": 0.6000000000000014
                },
                {
                    "name": "G4",
                    "midi": 67,
                    "time": 36.599999999999994,
                    "velocity": 0.4094488188976378,
                    "duration": 1.8000000000000043
                },
                {
                    "name": "C4",
                    "midi": 60,
                    "time": 36.599999999999994,
                    "velocity": 0.4094488188976378,
                    "duration": 0.6000000000000014
                },
                {
                    "name": "D5",
                    "midi": 74,
                    "time": 37.199999999999996,
                    "velocity": 0.5039370078740157,
                    "duration": 0.6000000000000014
                },
                {
                    "name": "D4",
                    "midi": 62,
                    "time": 37.199999999999996,
                    "velocity": 0.4251968503937008,
                    "duration": 0.6000000000000014
                },
                {
                    "name": "C4",
                    "midi": 60,
                    "time": 37.8,
                    "velocity": 0.41732283464566927,
                    "duration": 0.6000000000000014
                },
                {
                    "name": "C5",
                    "midi": 72,
                    "time": 37.8,
                    "velocity": 0.49606299212598426,
                    "duration": 0.6000000000000014
                },
                {
                    "name": "G4",
                    "midi": 67,
                    "time": 38.4,
                    "velocity": 0.4094488188976378,
                    "duration": 0.8999999999999915
                },
                {
                    "name": "D4",
                    "midi": 62,
                    "time": 38.4,
                    "velocity": 0.4094488188976378,
                    "duration": 0.29999999999999716
                },
                {
                    "name": "D5",
                    "midi": 74,
                    "time": 38.4,
                    "velocity": 0.4881889763779528,
                    "duration": 0.29999999999999716
                },
                {
                    "name": "F4",
                    "midi": 65,
                    "time": 38.699999999999996,
                    "velocity": 0.4094488188976378,
                    "duration": 0.29999999999999716
                },
                {
                    "name": "F5",
                    "midi": 77,
                    "time": 38.699999999999996,
                    "velocity": 0.4881889763779528,
                    "duration": 0.29999999999999716
                },
                {
                    "name": "G5",
                    "midi": 79,
                    "time": 38.99999999999999,
                    "velocity": 0.5039370078740157,
                    "duration": 0.29999999999999716
                },
                {
                    "name": "G4",
                    "midi": 67,
                    "time": 38.99999999999999,
                    "velocity": 0.4251968503937008,
                    "duration": 1.1999999999999957
                },
                {
                    "name": "D5",
                    "midi": 74,
                    "time": 39.29999999999999,
                    "velocity": 0.49606299212598426,
                    "duration": 0.29999999999999716
                },
                {
                    "name": "D4",
                    "midi": 62,
                    "time": 39.29999999999999,
                    "velocity": 0.41732283464566927,
                    "duration": 0.29999999999999716
                },
                {
                    "name": "C5",
                    "midi": 72,
                    "time": 39.59999999999999,
                    "velocity": 0.48031496062992124,
                    "duration": 0.5625
                },
                {
                    "name": "C4",
                    "midi": 60,
                    "time": 39.59999999999999,
                    "velocity": 0.4015748031496063,
                    "duration": 0.5625
                },
                {
                    "name": "C5",
                    "midi": 72,
                    "time": 40.19999999999999,
                    "velocity": 0.5275590551181102,
                    "duration": 0.29999999999999716
                },
                {
                    "name": "F4",
                    "midi": 65,
                    "time": 40.19999999999999,
                    "velocity": 0.5275590551181102,
                    "duration": 0.29999999999999716
                },
                {
                    "name": "A4",
                    "midi": 69,
                    "time": 40.19999999999999,
                    "velocity": 0.5275590551181102,
                    "duration": 0.29999999999999716
                },
                {
                    "name": "F5",
                    "midi": 77,
                    "time": 40.19999999999999,
                    "velocity": 0.6220472440944882,
                    "duration": 0.29999999999999716
                },
                {
                    "name": "C5",
                    "midi": 72,
                    "time": 40.499999999999986,
                    "velocity": 0.48031496062992124,
                    "duration": 0.29999999999999716
                },
                {
                    "name": "G5",
                    "midi": 79,
                    "time": 40.499999999999986,
                    "velocity": 0.5669291338582677,
                    "duration": 0.29999999999999716
                },
                {
                    "name": "E5",
                    "midi": 76,
                    "time": 40.499999999999986,
                    "velocity": 0.48031496062992124,
                    "duration": 0.29999999999999716
                },
                {
                    "name": "G4",
                    "midi": 67,
                    "time": 40.499999999999986,
                    "velocity": 0.48031496062992124,
                    "duration": 0.29999999999999716
                },
                {
                    "name": "A4",
                    "midi": 69,
                    "time": 40.79999999999998,
                    "velocity": 0.5433070866141733,
                    "duration": 0.29999999999999716
                },
                {
                    "name": "A5",
                    "midi": 81,
                    "time": 40.79999999999998,
                    "velocity": 0.6456692913385826,
                    "duration": 0.29999999999999716
                },
                {
                    "name": "F5",
                    "midi": 77,
                    "time": 40.79999999999998,
                    "velocity": 0.5433070866141733,
                    "duration": 0.29999999999999716
                },
                {
                    "name": "C5",
                    "midi": 72,
                    "time": 40.79999999999998,
                    "velocity": 0.5433070866141733,
                    "duration": 0.29999999999999716
                },
                {
                    "name": "C6",
                    "midi": 84,
                    "time": 41.09999999999998,
                    "velocity": 0.5669291338582677,
                    "duration": 0.29999999999999716
                },
                {
                    "name": "C5",
                    "midi": 72,
                    "time": 41.09999999999998,
                    "velocity": 0.48031496062992124,
                    "duration": 0.29999999999999716
                },
                {
                    "name": "G5",
                    "midi": 79,
                    "time": 41.39999999999998,
                    "velocity": 0.5354330708661418,
                    "duration": 0.29999999999999716
                },
                {
                    "name": "A#4",
                    "midi": 70,
                    "time": 41.39999999999998,
                    "velocity": 0.5354330708661418,
                    "duration": 0.29999999999999716
                },
                {
                    "name": "D5",
                    "midi": 74,
                    "time": 41.39999999999998,
                    "velocity": 0.5354330708661418,
                    "duration": 0.29999999999999716
                },
                {
                    "name": "A#5",
                    "midi": 82,
                    "time": 41.39999999999998,
                    "velocity": 0.6377952755905512,
                    "duration": 0.29999999999999716
                },
                {
                    "name": "C5",
                    "midi": 72,
                    "time": 41.699999999999974,
                    "velocity": 0.49606299212598426,
                    "duration": 0.29999999999999716
                },
                {
                    "name": "A5",
                    "midi": 81,
                    "time": 41.699999999999974,
                    "velocity": 0.5905511811023622,
                    "duration": 0.29999999999999716
                },
                {
                    "name": "F5",
                    "midi": 77,
                    "time": 41.699999999999974,
                    "velocity": 0.49606299212598426,
                    "duration": 0.29999999999999716
                },
                {
                    "name": "A4",
                    "midi": 69,
                    "time": 41.699999999999974,
                    "velocity": 0.49606299212598426,
                    "duration": 0.29999999999999716
                },
                {
                    "name": "G4",
                    "midi": 67,
                    "time": 41.99999999999997,
                    "velocity": 0.5354330708661418,
                    "duration": 0.29999999999999716
                },
                {
                    "name": "G5",
                    "midi": 79,
                    "time": 41.99999999999997,
                    "velocity": 0.6377952755905512,
                    "duration": 0.29999999999999716
                },
                {
                    "name": "C5",
                    "midi": 72,
                    "time": 41.99999999999997,
                    "velocity": 0.5354330708661418,
                    "duration": 0.29999999999999716
                },
                {
                    "name": "E5",
                    "midi": 76,
                    "time": 41.99999999999997,
                    "velocity": 0.5354330708661418,
                    "duration": 0.29999999999999716
                },
                {
                    "name": "A#4",
                    "midi": 70,
                    "time": 42.29999999999997,
                    "velocity": 0.49606299212598426,
                    "duration": 0.29999999999999716
                },
                {
                    "name": "A#5",
                    "midi": 82,
                    "time": 42.29999999999997,
                    "velocity": 0.5905511811023622,
                    "duration": 0.29999999999999716
                },
                {
                    "name": "D5",
                    "midi": 74,
                    "time": 42.599999999999966,
                    "velocity": 0.5275590551181102,
                    "duration": 0.29999999999999716
                },
                {
                    "name": "A4",
                    "midi": 69,
                    "time": 42.599999999999966,
                    "velocity": 0.5275590551181102,
                    "duration": 0.29999999999999716
                },
                {
                    "name": "F5",
                    "midi": 77,
                    "time": 42.599999999999966,
                    "velocity": 0.5275590551181102,
                    "duration": 0.29999999999999716
                },
                {
                    "name": "A5",
                    "midi": 81,
                    "time": 42.599999999999966,
                    "velocity": 0.6220472440944882,
                    "duration": 0.29999999999999716
                },
                {
                    "name": "F4",
                    "midi": 65,
                    "time": 42.89999999999996,
                    "velocity": 0.4881889763779528,
                    "duration": 0.29999999999999716
                },
                {
                    "name": "F5",
                    "midi": 77,
                    "time": 42.89999999999996,
                    "velocity": 0.5826771653543307,
                    "duration": 0.29999999999999716
                },
                {
                    "name": "C5",
                    "midi": 72,
                    "time": 43.19999999999996,
                    "velocity": 0.4566929133858268,
                    "duration": 0.6000000000000014
                },
                {
                    "name": "G4",
                    "midi": 67,
                    "time": 43.19999999999996,
                    "velocity": 0.4566929133858268,
                    "duration": 0.6000000000000014
                },
                {
                    "name": "G5",
                    "midi": 79,
                    "time": 43.19999999999996,
                    "velocity": 0.5433070866141733,
                    "duration": 0.6000000000000014
                },
                {
                    "name": "E5",
                    "midi": 76,
                    "time": 43.19999999999996,
                    "velocity": 0.4566929133858268,
                    "duration": 0.6000000000000014
                },
                {
                    "name": "C5",
                    "midi": 72,
                    "time": 43.79999999999996,
                    "velocity": 0.48031496062992124,
                    "duration": 0.6000000000000014
                },
                {
                    "name": "G4",
                    "midi": 67,
                    "time": 43.79999999999996,
                    "velocity": 0.4015748031496063,
                    "duration": 0.6000000000000014
                },
                {
                    "name": "C4",
                    "midi": 60,
                    "time": 43.79999999999996,
                    "velocity": 0.4015748031496063,
                    "duration": 0.6000000000000014
                },
                {
                    "name": "D5",
                    "midi": 74,
                    "time": 44.39999999999996,
                    "velocity": 0.48031496062992124,
                    "duration": 0.6000000000000014
                },
                {
                    "name": "D4",
                    "midi": 62,
                    "time": 44.39999999999996,
                    "velocity": 0.4015748031496063,
                    "duration": 0.6000000000000014
                },
                {
                    "name": "G4",
                    "midi": 67,
                    "time": 44.39999999999996,
                    "velocity": 0.4015748031496063,
                    "duration": 0.6000000000000014
                },
                {
                    "name": "C5",
                    "midi": 72,
                    "time": 44.999999999999964,
                    "velocity": 0.48031496062992124,
                    "duration": 0.6000000000000014
                },
                {
                    "name": "G4",
                    "midi": 67,
                    "time": 44.999999999999964,
                    "velocity": 0.4015748031496063,
                    "duration": 0.6000000000000014
                },
                {
                    "name": "C4",
                    "midi": 60,
                    "time": 44.999999999999964,
                    "velocity": 0.4015748031496063,
                    "duration": 0.6000000000000014
                },
                {
                    "name": "D5",
                    "midi": 74,
                    "time": 45.599999999999966,
                    "velocity": 0.4566929133858268,
                    "duration": 0.29999999999999716
                },
                {
                    "name": "G4",
                    "midi": 67,
                    "time": 45.599999999999966,
                    "velocity": 0.3858267716535433,
                    "duration": 0.29999999999999716
                },
                {
                    "name": "D4",
                    "midi": 62,
                    "time": 45.599999999999966,
                    "velocity": 0.3858267716535433,
                    "duration": 0.29999999999999716
                },
                {
                    "name": "F5",
                    "midi": 77,
                    "time": 45.89999999999996,
                    "velocity": 0.4566929133858268,
                    "duration": 0.29999999999999716
                },
                {
                    "name": "F4",
                    "midi": 65,
                    "time": 45.89999999999996,
                    "velocity": 0.3858267716535433,
                    "duration": 0.29999999999999716
                },
                {
                    "name": "G4",
                    "midi": 67,
                    "time": 46.19999999999996,
                    "velocity": 0.41732283464566927,
                    "duration": 0.29999999999999716
                },
                {
                    "name": "G5",
                    "midi": 79,
                    "time": 46.19999999999996,
                    "velocity": 0.49606299212598426,
                    "duration": 0.29999999999999716
                },
                {
                    "name": "D4",
                    "midi": 62,
                    "time": 46.49999999999996,
                    "velocity": 0.3858267716535433,
                    "duration": 0.26250000000000284
                },
                {
                    "name": "D5",
                    "midi": 74,
                    "time": 46.49999999999996,
                    "velocity": 0.4566929133858268,
                    "duration": 0.26250000000000284
                },
                {
                    "name": "A4",
                    "midi": 69,
                    "time": 46.79999999999996,
                    "velocity": 0.4409448818897638,
                    "duration": 0.6000000000000014
                },
                {
                    "name": "A5",
                    "midi": 81,
                    "time": 46.79999999999996,
                    "velocity": 0.5275590551181102,
                    "duration": 0.6000000000000014
                },
                {
                    "name": "C#5",
                    "midi": 73,
                    "time": 46.79999999999996,
                    "velocity": 0.4409448818897638,
                    "duration": 0.6000000000000014
                },
                {
                    "name": "D5",
                    "midi": 74,
                    "time": 47.39999999999996,
                    "velocity": 0.4251968503937008,
                    "duration": 0.6000000000000014
                },
                {
                    "name": "A4",
                    "midi": 69,
                    "time": 47.39999999999996,
                    "velocity": 0.4251968503937008,
                    "duration": 0.6000000000000014
                },
                {
                    "name": "F5",
                    "midi": 77,
                    "time": 47.39999999999996,
                    "velocity": 0.5039370078740157,
                    "duration": 0.6000000000000014
                },
                {
                    "name": "C#5",
                    "midi": 73,
                    "time": 47.999999999999964,
                    "velocity": 0.4330708661417323,
                    "duration": 0.6000000000000014
                },
                {
                    "name": "A4",
                    "midi": 69,
                    "time": 47.999999999999964,
                    "velocity": 0.4330708661417323,
                    "duration": 0.6000000000000014
                },
                {
                    "name": "A5",
                    "midi": 81,
                    "time": 47.999999999999964,
                    "velocity": 0.5118110236220472,
                    "duration": 0.6000000000000014
                },
                {
                    "name": "D5",
                    "midi": 74,
                    "time": 48.599999999999966,
                    "velocity": 0.48031496062992124,
                    "duration": 0.6000000000000014
                },
                {
                    "name": "A#4",
                    "midi": 70,
                    "time": 48.599999999999966,
                    "velocity": 0.4015748031496063,
                    "duration": 0.6000000000000014
                },
                {
                    "name": "E4",
                    "midi": 64,
                    "time": 48.599999999999966,
                    "velocity": 0.4015748031496063,
                    "duration": 0.6000000000000014
                },
                {
                    "name": "C5",
                    "midi": 72,
                    "time": 49.19999999999997,
                    "velocity": 0.4015748031496063,
                    "duration": 0.6000000000000014
                },
                {
                    "name": "A4",
                    "midi": 69,
                    "time": 49.19999999999997,
                    "velocity": 0.4015748031496063,
                    "duration": 0.6000000000000014
                },
                {
                    "name": "A5",
                    "midi": 81,
                    "time": 49.19999999999997,
                    "velocity": 0.47244094488188976,
                    "duration": 0.6000000000000014
                },
                {
                    "name": "E4",
                    "midi": 64,
                    "time": 49.79999999999997,
                    "velocity": 0.3700787401574803,
                    "duration": 0.6000000000000014
                },
                {
                    "name": "D5",
                    "midi": 74,
                    "time": 49.79999999999997,
                    "velocity": 0.4409448818897638,
                    "duration": 0.6000000000000014
                },
                {
                    "name": "A#4",
                    "midi": 70,
                    "time": 49.79999999999997,
                    "velocity": 0.3700787401574803,
                    "duration": 0.6000000000000014
                },
                {
                    "name": "A4",
                    "midi": 69,
                    "time": 50.39999999999997,
                    "velocity": 0.4409448818897638,
                    "duration": 0.5999999999999943
                },
                {
                    "name": "F5",
                    "midi": 77,
                    "time": 50.39999999999997,
                    "velocity": 0.5196850393700787,
                    "duration": 0.29999999999999716
                },
                {
                    "name": "F4",
                    "midi": 65,
                    "time": 50.39999999999997,
                    "velocity": 0.4409448818897638,
                    "duration": 0.5999999999999943
                },
                {
                    "name": "C5",
                    "midi": 72,
                    "time": 50.69999999999997,
                    "velocity": 0.47244094488188976,
                    "duration": 0.29999999999999716
                },
                {
                    "name": "F4",
                    "midi": 65,
                    "time": 50.999999999999964,
                    "velocity": 0.4251968503937008,
                    "duration": 0.5625
                },
                {
                    "name": "D5",
                    "midi": 74,
                    "time": 50.999999999999964,
                    "velocity": 0.5039370078740157,
                    "duration": 0.5625
                },
                {
                    "name": "A#4",
                    "midi": 70,
                    "time": 50.999999999999964,
                    "velocity": 0.4251968503937008,
                    "duration": 0.5625
                },
                {
                    "name": "A4",
                    "midi": 69,
                    "time": 51.599999999999966,
                    "velocity": 0.4094488188976378,
                    "duration": 0.6000000000000014
                },
                {
                    "name": "F5",
                    "midi": 77,
                    "time": 51.599999999999966,
                    "velocity": 0.4881889763779528,
                    "duration": 0.6000000000000014
                },
                {
                    "name": "F4",
                    "midi": 65,
                    "time": 51.599999999999966,
                    "velocity": 0.4094488188976378,
                    "duration": 0.6000000000000014
                },
                {
                    "name": "A#4",
                    "midi": 70,
                    "time": 52.19999999999997,
                    "velocity": 0.3700787401574803,
                    "duration": 0.6000000000000014
                },
                {
                    "name": "F4",
                    "midi": 65,
                    "time": 52.19999999999997,
                    "velocity": 0.3700787401574803,
                    "duration": 0.6000000000000014
                },
                {
                    "name": "D5",
                    "midi": 74,
                    "time": 52.19999999999997,
                    "velocity": 0.4409448818897638,
                    "duration": 0.6000000000000014
                },
                {
                    "name": "A4",
                    "midi": 69,
                    "time": 52.79999999999997,
                    "velocity": 0.4251968503937008,
                    "duration": 0.5999999999999943
                },
                {
                    "name": "F5",
                    "midi": 77,
                    "time": 52.79999999999997,
                    "velocity": 0.5039370078740157,
                    "duration": 0.29999999999999716
                },
                {
                    "name": "F4",
                    "midi": 65,
                    "time": 52.79999999999997,
                    "velocity": 0.4251968503937008,
                    "duration": 0.5999999999999943
                },
                {
                    "name": "C5",
                    "midi": 72,
                    "time": 53.099999999999966,
                    "velocity": 0.47244094488188976,
                    "duration": 0.29999999999999716
                },
                {
                    "name": "D5",
                    "midi": 74,
                    "time": 53.39999999999996,
                    "velocity": 0.4881889763779528,
                    "duration": 0.5625
                },
                {
                    "name": "F4",
                    "midi": 65,
                    "time": 53.39999999999996,
                    "velocity": 0.4094488188976378,
                    "duration": 0.5625
                },
                {
                    "name": "A#4",
                    "midi": 70,
                    "time": 53.39999999999996,
                    "velocity": 0.4094488188976378,
                    "duration": 0.5625
                },
                {
                    "name": "C5",
                    "midi": 72,
                    "time": 53.999999999999964,
                    "velocity": 0.49606299212598426,
                    "duration": 0.5999999999999943
                },
                {
                    "name": "D#4",
                    "midi": 63,
                    "time": 53.999999999999964,
                    "velocity": 0.41732283464566927,
                    "duration": 0.29999999999999716
                },
                {
                    "name": "G4",
                    "midi": 67,
                    "time": 53.999999999999964,
                    "velocity": 0.41732283464566927,
                    "duration": 0.5999999999999943
                },
                {
                    "name": "E4",
                    "midi": 64,
                    "time": 54.29999999999996,
                    "velocity": 0.36220472440944884,
                    "duration": 0.29999999999999716
                },
                {
                    "name": "C4",
                    "midi": 60,
                    "time": 54.59999999999996,
                    "velocity": 0.3858267716535433,
                    "duration": 0.6000000000000014
                },
                {
                    "name": "A4",
                    "midi": 69,
                    "time": 54.59999999999996,
                    "velocity": 0.4566929133858268,
                    "duration": 0.6000000000000014
                },
                {
                    "name": "F4",
                    "midi": 65,
                    "time": 54.59999999999996,
                    "velocity": 0.3858267716535433,
                    "duration": 0.6000000000000014
                },
                {
                    "name": "F4",
                    "midi": 65,
                    "time": 55.19999999999996,
                    "velocity": 0.36220472440944884,
                    "duration": 0.6000000000000014
                },
                {
                    "name": "A#4",
                    "midi": 70,
                    "time": 55.19999999999996,
                    "velocity": 0.4330708661417323,
                    "duration": 0.6000000000000014
                },
                {
                    "name": "D4",
                    "midi": 62,
                    "time": 55.19999999999996,
                    "velocity": 0.36220472440944884,
                    "duration": 0.6000000000000014
                },
                {
                    "name": "C5",
                    "midi": 72,
                    "time": 55.79999999999996,
                    "velocity": 0.5039370078740157,
                    "duration": 0.5999999999999943
                },
                {
                    "name": "D#4",
                    "midi": 63,
                    "time": 55.79999999999996,
                    "velocity": 0.5039370078740157,
                    "duration": 0.29999999999999716
                },
                {
                    "name": "G4",
                    "midi": 67,
                    "time": 55.79999999999996,
                    "velocity": 0.4251968503937008,
                    "duration": 0.5999999999999943
                },
                {
                    "name": "E4",
                    "midi": 64,
                    "time": 56.09999999999996,
                    "velocity": 0.4409448818897638,
                    "duration": 0.29999999999999716
                },
                {
                    "name": "C4",
                    "midi": 60,
                    "time": 56.399999999999956,
                    "velocity": 0.3858267716535433,
                    "duration": 0.5625
                },
                {
                    "name": "F4",
                    "midi": 65,
                    "time": 56.399999999999956,
                    "velocity": 0.3858267716535433,
                    "duration": 0.5625
                },
                {
                    "name": "A4",
                    "midi": 69,
                    "time": 56.399999999999956,
                    "velocity": 0.4566929133858268,
                    "duration": 0.5625
                },
                {
                    "name": "F4",
                    "midi": 65,
                    "time": 56.99999999999996,
                    "velocity": 0.49606299212598426,
                    "duration": 0.5999999999999943
                },
                {
                    "name": "A#4",
                    "midi": 70,
                    "time": 56.99999999999996,
                    "velocity": 0.5905511811023622,
                    "duration": 0.29999999999999716
                },
                {
                    "name": "D4",
                    "midi": 62,
                    "time": 56.99999999999996,
                    "velocity": 0.49606299212598426,
                    "duration": 0.5999999999999943
                },
                {
                    "name": "D5",
                    "midi": 74,
                    "time": 57.299999999999955,
                    "velocity": 0.6456692913385826,
                    "duration": 0.29999999999999716
                },
                {
                    "name": "F5",
                    "midi": 77,
                    "time": 57.59999999999995,
                    "velocity": 0.6929133858267716,
                    "duration": 0.6000000000000014
                },
                {
                    "name": "F4",
                    "midi": 65,
                    "time": 57.59999999999995,
                    "velocity": 0.5826771653543307,
                    "duration": 0.6000000000000014
                },
                {
                    "name": "D#4",
                    "midi": 63,
                    "time": 58.19999999999995,
                    "velocity": 0.5433070866141733,
                    "duration": 0.29999999999999716
                },
                {
                    "name": "G4",
                    "midi": 67,
                    "time": 58.19999999999995,
                    "velocity": 0.5433070866141733,
                    "duration": 0.29999999999999716
                },
                {
                    "name": "D#5",
                    "midi": 75,
                    "time": 58.19999999999995,
                    "velocity": 0.6456692913385826,
                    "duration": 0.29999999999999716
                },
                {
                    "name": "A#4",
                    "midi": 70,
                    "time": 58.19999999999995,
                    "velocity": 0.5433070866141733,
                    "duration": 0.29999999999999716
                },
                {
                    "name": "D4",
                    "midi": 62,
                    "time": 58.49999999999995,
                    "velocity": 0.5196850393700787,
                    "duration": 0.29999999999999716
                },
                {
                    "name": "D5",
                    "midi": 74,
                    "time": 58.49999999999995,
                    "velocity": 0.6141732283464567,
                    "duration": 0.29999999999999716
                },
                {
                    "name": "C4",
                    "midi": 60,
                    "time": 58.79999999999995,
                    "velocity": 0.49606299212598426,
                    "duration": 0.29999999999999716
                },
                {
                    "name": "F4",
                    "midi": 65,
                    "time": 58.79999999999995,
                    "velocity": 0.49606299212598426,
                    "duration": 0.29999999999999716
                },
                {
                    "name": "A4",
                    "midi": 69,
                    "time": 58.79999999999995,
                    "velocity": 0.49606299212598426,
                    "duration": 0.29999999999999716
                },
                {
                    "name": "C5",
                    "midi": 72,
                    "time": 58.79999999999995,
                    "velocity": 0.5905511811023622,
                    "duration": 0.29999999999999716
                },
                {
                    "name": "A#4",
                    "midi": 70,
                    "time": 59.099999999999945,
                    "velocity": 0.5590551181102362,
                    "duration": 0.29999999999999716
                },
                {
                    "name": "A#3",
                    "midi": 58,
                    "time": 59.099999999999945,
                    "velocity": 0.47244094488188976,
                    "duration": 0.29999999999999716
                },
                {
                    "name": "F4",
                    "midi": 65,
                    "time": 59.39999999999994,
                    "velocity": 0.5433070866141733,
                    "duration": 0.6000000000000014
                },
                {
                    "name": "C5",
                    "midi": 72,
                    "time": 59.39999999999994,
                    "velocity": 0.6456692913385826,
                    "duration": 0.6000000000000014
                },
                {
                    "name": "C4",
                    "midi": 60,
                    "time": 59.39999999999994,
                    "velocity": 0.5433070866141733,
                    "duration": 0.6000000000000014
                },
                {
                    "name": "D4",
                    "midi": 62,
                    "time": 59.99999999999994,
                    "velocity": 0.5590551181102362,
                    "duration": 0.6000000000000014
                },
                {
                    "name": "F4",
                    "midi": 65,
                    "time": 59.99999999999994,
                    "velocity": 0.5590551181102362,
                    "duration": 0.6000000000000014
                },
                {
                    "name": "D5",
                    "midi": 74,
                    "time": 59.99999999999994,
                    "velocity": 0.6614173228346457,
                    "duration": 0.6000000000000014
                },
                {
                    "name": "F5",
                    "midi": 77,
                    "time": 60.599999999999945,
                    "velocity": 0.6771653543307087,
                    "duration": 0.6000000000000014
                },
                {
                    "name": "A4",
                    "midi": 69,
                    "time": 60.599999999999945,
                    "velocity": 0.5748031496062992,
                    "duration": 0.6000000000000014
                },
                {
                    "name": "F4",
                    "midi": 65,
                    "time": 60.599999999999945,
                    "velocity": 0.5748031496062992,
                    "duration": 0.6000000000000014
                },
                {
                    "name": "C5",
                    "midi": 72,
                    "time": 60.599999999999945,
                    "velocity": 0.6771653543307087,
                    "duration": 0.6000000000000014
                },
                {
                    "name": "G5",
                    "midi": 79,
                    "time": 61.199999999999946,
                    "velocity": 0.7086614173228346,
                    "duration": 0.29999999999999716
                },
                {
                    "name": "A#4",
                    "midi": 70,
                    "time": 61.199999999999946,
                    "velocity": 0.5984251968503937,
                    "duration": 0.29999999999999716
                },
                {
                    "name": "D#5",
                    "midi": 75,
                    "time": 61.199999999999946,
                    "velocity": 0.5984251968503937,
                    "duration": 0.29999999999999716
                },
                {
                    "name": "G4",
                    "midi": 67,
                    "time": 61.199999999999946,
                    "velocity": 0.5984251968503937,
                    "duration": 0.29999999999999716
                },
                {
                    "name": "A#4",
                    "midi": 70,
                    "time": 61.49999999999994,
                    "velocity": 0.5433070866141733,
                    "duration": 0.29999999999999716
                },
                {
                    "name": "A#5",
                    "midi": 82,
                    "time": 61.49999999999994,
                    "velocity": 0.6456692913385826,
                    "duration": 0.29999999999999716
                },
                {
                    "name": "F5",
                    "midi": 77,
                    "time": 61.79999999999994,
                    "velocity": 0.7007874015748031,
                    "duration": 0.5625
                },
                {
                    "name": "F4",
                    "midi": 65,
                    "time": 61.79999999999994,
                    "velocity": 0.5905511811023622,
                    "duration": 0.5625
                },
                {
                    "name": "A#4",
                    "midi": 70,
                    "time": 62.39999999999994,
                    "velocity": 0.5354330708661418,
                    "duration": 0.29999999999999716
                },
                {
                    "name": "D#5",
                    "midi": 75,
                    "time": 62.39999999999994,
                    "velocity": 0.6377952755905512,
                    "duration": 0.29999999999999716
                },
                {
                    "name": "G4",
                    "midi": 67,
                    "time": 62.39999999999994,
                    "velocity": 0.5354330708661418,
                    "duration": 0.29999999999999716
                },
                {
                    "name": "D#4",
                    "midi": 63,
                    "time": 62.39999999999994,
                    "velocity": 0.5354330708661418,
                    "duration": 0.29999999999999716
                },
                {
                    "name": "D5",
                    "midi": 74,
                    "time": 62.69999999999994,
                    "velocity": 0.5905511811023622,
                    "duration": 0.29999999999999716
                },
                {
                    "name": "D4",
                    "midi": 62,
                    "time": 62.69999999999994,
                    "velocity": 0.47244094488188976,
                    "duration": 0.29999999999999716
                },
                {
                    "name": "C5",
                    "midi": 72,
                    "time": 62.999999999999936,
                    "velocity": 0.5748031496062992,
                    "duration": 0.29999999999999716
                },
                {
                    "name": "A4",
                    "midi": 69,
                    "time": 62.999999999999936,
                    "velocity": 0.4881889763779528,
                    "duration": 0.29999999999999716
                },
                {
                    "name": "F4",
                    "midi": 65,
                    "time": 62.999999999999936,
                    "velocity": 0.4881889763779528,
                    "duration": 0.29999999999999716
                },
                {
                    "name": "C4",
                    "midi": 60,
                    "time": 62.999999999999936,
                    "velocity": 0.4881889763779528,
                    "duration": 0.29999999999999716
                },
                {
                    "name": "A#3",
                    "midi": 58,
                    "time": 63.29999999999993,
                    "velocity": 0.47244094488188976,
                    "duration": 0.29999999999999716
                },
                {
                    "name": "A#4",
                    "midi": 70,
                    "time": 63.29999999999993,
                    "velocity": 0.5590551181102362,
                    "duration": 0.29999999999999716
                },
                {
                    "name": "F4",
                    "midi": 65,
                    "time": 63.59999999999993,
                    "velocity": 0.49606299212598426,
                    "duration": 0.6000000000000014
                },
                {
                    "name": "C4",
                    "midi": 60,
                    "time": 63.59999999999993,
                    "velocity": 0.49606299212598426,
                    "duration": 0.6000000000000014
                },
                {
                    "name": "C5",
                    "midi": 72,
                    "time": 63.59999999999993,
                    "velocity": 0.5905511811023622,
                    "duration": 0.6000000000000014
                },
                {
                    "name": "F4",
                    "midi": 65,
                    "time": 64.19999999999993,
                    "velocity": 0.5984251968503937,
                    "duration": 0.5999999999999943
                },
                {
                    "name": "D4",
                    "midi": 62,
                    "time": 64.19999999999993,
                    "velocity": 0.5984251968503937,
                    "duration": 0.5999999999999943
                },
                {
                    "name": "D5",
                    "midi": 74,
                    "time": 64.19999999999993,
                    "velocity": 0.7086614173228346,
                    "duration": 0.5999999999999943
                },
                {
                    "name": "A4",
                    "midi": 69,
                    "time": 64.79999999999993,
                    "velocity": 0.5826771653543307,
                    "duration": 0.5999999999999943
                },
                {
                    "name": "C5",
                    "midi": 72,
                    "time": 64.79999999999993,
                    "velocity": 0.5826771653543307,
                    "duration": 0.5999999999999943
                },
                {
                    "name": "F4",
                    "midi": 65,
                    "time": 64.79999999999993,
                    "velocity": 0.5826771653543307,
                    "duration": 0.5999999999999943
                },
                {
                    "name": "F5",
                    "midi": 77,
                    "time": 64.79999999999993,
                    "velocity": 0.6929133858267716,
                    "duration": 0.5999999999999943
                },
                {
                    "name": "G5",
                    "midi": 79,
                    "time": 65.39999999999992,
                    "velocity": 0.7165354330708661,
                    "duration": 0.29999999999999716
                },
                {
                    "name": "G4",
                    "midi": 67,
                    "time": 65.39999999999992,
                    "velocity": 0.6062992125984252,
                    "duration": 0.29999999999999716
                },
                {
                    "name": "E5",
                    "midi": 76,
                    "time": 65.39999999999992,
                    "velocity": 0.7165354330708661,
                    "duration": 0.29999999999999716
                },
                {
                    "name": "C5",
                    "midi": 72,
                    "time": 65.39999999999992,
                    "velocity": 0.6062992125984252,
                    "duration": 0.29999999999999716
                },
                {
                    "name": "A#5",
                    "midi": 82,
                    "time": 65.69999999999992,
                    "velocity": 0.6456692913385826,
                    "duration": 0.29999999999999716
                },
                {
                    "name": "A#4",
                    "midi": 70,
                    "time": 65.69999999999992,
                    "velocity": 0.5433070866141733,
                    "duration": 0.29999999999999716
                },
                {
                    "name": "F5",
                    "midi": 77,
                    "time": 65.99999999999991,
                    "velocity": 0.6929133858267716,
                    "duration": 0.5625
                },
                {
                    "name": "F4",
                    "midi": 65,
                    "time": 65.99999999999991,
                    "velocity": 0.5826771653543307,
                    "duration": 0.5625
                },
                {
                    "name": "G4",
                    "midi": 67,
                    "time": 66.59999999999991,
                    "velocity": 0.6062992125984252,
                    "duration": 0.5999999999999943
                },
                {
                    "name": "G5",
                    "midi": 79,
                    "time": 66.59999999999991,
                    "velocity": 0.7165354330708661,
                    "duration": 0.5999999999999943
                },
                {
                    "name": "F4",
                    "midi": 65,
                    "time": 67.1999999999999,
                    "velocity": 0.5826771653543307,
                    "duration": 0.5625
                },
                {
                    "name": "F5",
                    "midi": 77,
                    "time": 67.1999999999999,
                    "velocity": 0.6929133858267716,
                    "duration": 0.5625
                },
                {
                    "name": "G4",
                    "midi": 67,
                    "time": 67.7999999999999,
                    "velocity": 0.7322834645669292,
                    "duration": 0.5999999999999943
                },
                {
                    "name": "F4",
                    "midi": 65,
                    "time": 68.39999999999989,
                    "velocity": 0.7086614173228346,
                    "duration": 0.5625
                },
                {
                    "name": "D4",
                    "midi": 62,
                    "time": 68.99999999999989,
                    "velocity": 0.5748031496062992,
                    "duration": 0.5999999999999943
                },
                {
                    "name": "A#4",
                    "midi": 70,
                    "time": 68.99999999999989,
                    "velocity": 0.6850393700787402,
                    "duration": 0.5999999999999943
                },
                {
                    "name": "A#3",
                    "midi": 58,
                    "time": 68.99999999999989,
                    "velocity": 0.5748031496062992,
                    "duration": 0.5999999999999943
                },
                {
                    "name": "C5",
                    "midi": 72,
                    "time": 69.59999999999988,
                    "velocity": 0.6692913385826772,
                    "duration": 0.29999999999999716
                },
                {
                    "name": "C4",
                    "midi": 60,
                    "time": 69.59999999999988,
                    "velocity": 0.5669291338582677,
                    "duration": 0.5999999999999943
                },
                {
                    "name": "A4",
                    "midi": 69,
                    "time": 69.59999999999988,
                    "velocity": 0.5669291338582677,
                    "duration": 0.5999999999999943
                },
                {
                    "name": "F4",
                    "midi": 65,
                    "time": 69.89999999999988,
                    "velocity": 0.5354330708661418,
                    "duration": 0.29999999999999716
                },
                {
                    "name": "F5",
                    "midi": 77,
                    "time": 69.89999999999988,
                    "velocity": 0.6299212598425197,
                    "duration": 0.29999999999999716
                },
                {
                    "name": "D5",
                    "midi": 74,
                    "time": 70.19999999999987,
                    "velocity": 0.6771653543307087,
                    "duration": 0.5999999999999943
                },
                {
                    "name": "D4",
                    "midi": 62,
                    "time": 70.19999999999987,
                    "velocity": 0.5748031496062992,
                    "duration": 0.5999999999999943
                },
                {
                    "name": "A#4",
                    "midi": 70,
                    "time": 70.19999999999987,
                    "velocity": 0.5748031496062992,
                    "duration": 0.5999999999999943
                },
                {
                    "name": "C4",
                    "midi": 60,
                    "time": 70.79999999999987,
                    "velocity": 0.5669291338582677,
                    "duration": 0.5999999999999943
                },
                {
                    "name": "A4",
                    "midi": 69,
                    "time": 70.79999999999987,
                    "velocity": 0.5669291338582677,
                    "duration": 0.5999999999999943
                },
                {
                    "name": "C5",
                    "midi": 72,
                    "time": 70.79999999999987,
                    "velocity": 0.6692913385826772,
                    "duration": 0.29999999999999716
                },
                {
                    "name": "F4",
                    "midi": 65,
                    "time": 71.09999999999987,
                    "velocity": 0.5196850393700787,
                    "duration": 0.29999999999999716
                },
                {
                    "name": "F5",
                    "midi": 77,
                    "time": 71.09999999999987,
                    "velocity": 0.6141732283464567,
                    "duration": 0.29999999999999716
                },
                {
                    "name": "D5",
                    "midi": 74,
                    "time": 71.39999999999986,
                    "velocity": 0.6692913385826772,
                    "duration": 0.5625
                },
                {
                    "name": "D4",
                    "midi": 62,
                    "time": 71.39999999999986,
                    "velocity": 0.5669291338582677,
                    "duration": 0.5625
                },
                {
                    "name": "A#4",
                    "midi": 70,
                    "time": 71.39999999999986,
                    "velocity": 0.5669291338582677,
                    "duration": 0.5625
                },
                {
                    "name": "D4",
                    "midi": 62,
                    "time": 71.99999999999986,
                    "velocity": 0.5669291338582677,
                    "duration": 0.5999999999999943
                },
                {
                    "name": "A#3",
                    "midi": 58,
                    "time": 71.99999999999986,
                    "velocity": 0.5669291338582677,
                    "duration": 0.5999999999999943
                },
                {
                    "name": "A#4",
                    "midi": 70,
                    "time": 71.99999999999986,
                    "velocity": 0.6692913385826772,
                    "duration": 0.5999999999999943
                },
                {
                    "name": "G4",
                    "midi": 67,
                    "time": 72.59999999999985,
                    "velocity": 0.5590551181102362,
                    "duration": 0.5999999999999943
                },
                {
                    "name": "C4",
                    "midi": 60,
                    "time": 72.59999999999985,
                    "velocity": 0.5590551181102362,
                    "duration": 0.5999999999999943
                },
                {
                    "name": "C5",
                    "midi": 72,
                    "time": 72.59999999999985,
                    "velocity": 0.6614173228346457,
                    "duration": 0.5999999999999943
                },
                {
                    "name": "G3",
                    "midi": 55,
                    "time": 73.19999999999985,
                    "velocity": 0.5196850393700787,
                    "duration": 0.5999999999999943
                },
                {
                    "name": "C4",
                    "midi": 60,
                    "time": 73.19999999999985,
                    "velocity": 0.5196850393700787,
                    "duration": 0.5999999999999943
                },
                {
                    "name": "G4",
                    "midi": 67,
                    "time": 73.19999999999985,
                    "velocity": 0.6141732283464567,
                    "duration": 0.5999999999999943
                },
                {
                    "name": "F4",
                    "midi": 65,
                    "time": 73.79999999999984,
                    "velocity": 0.5826771653543307,
                    "duration": 0.5625
                },
                {
                    "name": "A3",
                    "midi": 57,
                    "time": 73.79999999999984,
                    "velocity": 0.4881889763779528,
                    "duration": 0.5625
                },
                {
                    "name": "C4",
                    "midi": 60,
                    "time": 73.79999999999984,
                    "velocity": 0.4881889763779528,
                    "duration": 0.5625
                },
                {
                    "name": "A#3",
                    "midi": 58,
                    "time": 74.39999999999984,
                    "velocity": 0.6141732283464567,
                    "duration": 0.5999999999999943
                },
                {
                    "name": "D4",
                    "midi": 62,
                    "time": 74.39999999999984,
                    "velocity": 0.6141732283464567,
                    "duration": 0.5999999999999943
                },
                {
                    "name": "G4",
                    "midi": 67,
                    "time": 74.39999999999984,
                    "velocity": 0.7244094488188977,
                    "duration": 0.5999999999999943
                },
                {
                    "name": "A3",
                    "midi": 57,
                    "time": 74.99999999999983,
                    "velocity": 0.6062992125984252,
                    "duration": 0.5999999999999943
                },
                {
                    "name": "C4",
                    "midi": 60,
                    "time": 74.99999999999983,
                    "velocity": 0.6062992125984252,
                    "duration": 0.5999999999999943
                },
                {
                    "name": "F4",
                    "midi": 65,
                    "time": 74.99999999999983,
                    "velocity": 0.7165354330708661,
                    "duration": 0.5999999999999943
                },
                {
                    "name": "F4",
                    "midi": 65,
                    "time": 75.59999999999982,
                    "velocity": 0.6062992125984252,
                    "duration": 0.5999999999999943
                },
                {
                    "name": "A#4",
                    "midi": 70,
                    "time": 75.59999999999982,
                    "velocity": 0.7165354330708661,
                    "duration": 0.5999999999999943
                },
                {
                    "name": "D4",
                    "midi": 62,
                    "time": 75.59999999999982,
                    "velocity": 0.6062992125984252,
                    "duration": 0.5999999999999943
                },
                {
                    "name": "A#3",
                    "midi": 58,
                    "time": 75.59999999999982,
                    "velocity": 0.6062992125984252,
                    "duration": 0.5999999999999943
                },
                {
                    "name": "A4",
                    "midi": 69,
                    "time": 76.19999999999982,
                    "velocity": 0.5669291338582677,
                    "duration": 0.5999999999999943
                },
                {
                    "name": "F4",
                    "midi": 65,
                    "time": 76.19999999999982,
                    "velocity": 0.5669291338582677,
                    "duration": 0.29999999999999716
                },
                {
                    "name": "C4",
                    "midi": 60,
                    "time": 76.19999999999982,
                    "velocity": 0.5669291338582677,
                    "duration": 0.5999999999999943
                },
                {
                    "name": "C5",
                    "midi": 72,
                    "time": 76.19999999999982,
                    "velocity": 0.6692913385826772,
                    "duration": 0.29999999999999716
                },
                {
                    "name": "F5",
                    "midi": 77,
                    "time": 76.49999999999982,
                    "velocity": 0.6141732283464567,
                    "duration": 0.29999999999999716
                },
                {
                    "name": "F4",
                    "midi": 65,
                    "time": 76.49999999999982,
                    "velocity": 0.5196850393700787,
                    "duration": 0.29999999999999716
                },
                {
                    "name": "A#4",
                    "midi": 70,
                    "time": 76.79999999999981,
                    "velocity": 0.5669291338582677,
                    "duration": 0.5625
                },
                {
                    "name": "D4",
                    "midi": 62,
                    "time": 76.79999999999981,
                    "velocity": 0.5669291338582677,
                    "duration": 0.5625
                },
                {
                    "name": "F4",
                    "midi": 65,
                    "time": 76.79999999999981,
                    "velocity": 0.5669291338582677,
                    "duration": 0.5625
                },
                {
                    "name": "D5",
                    "midi": 74,
                    "time": 76.79999999999981,
                    "velocity": 0.6692913385826772,
                    "duration": 0.5625
                },
                {
                    "name": "F4",
                    "midi": 65,
                    "time": 77.3999999999998,
                    "velocity": 0.5669291338582677,
                    "duration": 0.29999999999999716
                },
                {
                    "name": "A4",
                    "midi": 69,
                    "time": 77.3999999999998,
                    "velocity": 0.5669291338582677,
                    "duration": 0.5999999999999943
                },
                {
                    "name": "C4",
                    "midi": 60,
                    "time": 77.3999999999998,
                    "velocity": 0.5669291338582677,
                    "duration": 0.5999999999999943
                },
                {
                    "name": "C5",
                    "midi": 72,
                    "time": 77.3999999999998,
                    "velocity": 0.6692913385826772,
                    "duration": 0.29999999999999716
                },
                {
                    "name": "F5",
                    "midi": 77,
                    "time": 77.6999999999998,
                    "velocity": 0.6141732283464567,
                    "duration": 0.29999999999999716
                },
                {
                    "name": "F4",
                    "midi": 65,
                    "time": 77.6999999999998,
                    "velocity": 0.5196850393700787,
                    "duration": 0.29999999999999716
                },
                {
                    "name": "D5",
                    "midi": 74,
                    "time": 77.9999999999998,
                    "velocity": 0.6692913385826772,
                    "duration": 0.5625
                },
                {
                    "name": "F4",
                    "midi": 65,
                    "time": 77.9999999999998,
                    "velocity": 0.5669291338582677,
                    "duration": 0.5625
                },
                {
                    "name": "A#4",
                    "midi": 70,
                    "time": 77.9999999999998,
                    "velocity": 0.5669291338582677,
                    "duration": 0.5625
                },
                {
                    "name": "D4",
                    "midi": 62,
                    "time": 77.9999999999998,
                    "velocity": 0.5669291338582677,
                    "duration": 0.5625
                },
                {
                    "name": "A#4",
                    "midi": 70,
                    "time": 78.5999999999998,
                    "velocity": 0.6929133858267716,
                    "duration": 0.5999999999999943
                },
                {
                    "name": "D4",
                    "midi": 62,
                    "time": 78.5999999999998,
                    "velocity": 0.5826771653543307,
                    "duration": 0.5999999999999943
                },
                {
                    "name": "G4",
                    "midi": 67,
                    "time": 78.5999999999998,
                    "velocity": 0.5826771653543307,
                    "duration": 0.5999999999999943
                },
                {
                    "name": "A#3",
                    "midi": 58,
                    "time": 78.5999999999998,
                    "velocity": 0.5826771653543307,
                    "duration": 0.5999999999999943
                },
                {
                    "name": "G4",
                    "midi": 67,
                    "time": 79.19999999999979,
                    "velocity": 0.6220472440944882,
                    "duration": 1.2000000000000028
                },
                {
                    "name": "D#5",
                    "midi": 75,
                    "time": 79.19999999999979,
                    "velocity": 0.7322834645669292,
                    "duration": 1.2000000000000028
                },
                {
                    "name": "C5",
                    "midi": 72,
                    "time": 79.19999999999979,
                    "velocity": 0.6220472440944882,
                    "duration": 1.2000000000000028
                },
                {
                    "name": "D#4",
                    "midi": 63,
                    "time": 79.19999999999979,
                    "velocity": 0.6220472440944882,
                    "duration": 1.2000000000000028
                },
                {
                    "name": "C4",
                    "midi": 60,
                    "time": 80.39999999999979,
                    "velocity": 0.5905511811023622,
                    "duration": 1.2000000000000028
                },
                {
                    "name": "C5",
                    "midi": 72,
                    "time": 80.39999999999979,
                    "velocity": 0.7007874015748031,
                    "duration": 1.2000000000000028
                },
                {
                    "name": "F4",
                    "midi": 65,
                    "time": 80.39999999999979,
                    "velocity": 0.5905511811023622,
                    "duration": 1.2000000000000028
                },
                {
                    "name": "A4",
                    "midi": 69,
                    "time": 80.39999999999979,
                    "velocity": 0.5905511811023622,
                    "duration": 1.2000000000000028
                },
                {
                    "name": "F4",
                    "midi": 65,
                    "time": 81.5999999999998,
                    "velocity": 0.5984251968503937,
                    "duration": 0.29999999999999716
                },
                {
                    "name": "A#4",
                    "midi": 70,
                    "time": 81.5999999999998,
                    "velocity": 0.7086614173228346,
                    "duration": 3
                },
                {
                    "name": "D4",
                    "midi": 62,
                    "time": 81.5999999999998,
                    "velocity": 0.5984251968503937,
                    "duration": 0.29999999999999716
                },
                {
                    "name": "A#4",
                    "midi": 70,
                    "time": 85.19999999999979,
                    "velocity": 0.7007874015748031,
                    "duration": 0.15000000000000568
                },
                {
                    "name": "A4",
                    "midi": 69,
                    "time": 85.3499999999998,
                    "velocity": 0.6062992125984252,
                    "duration": 0.15000000000000568
                },
                {
                    "name": "A#4",
                    "midi": 70,
                    "time": 85.4999999999998,
                    "velocity": 0.6299212598425197,
                    "duration": 0.07500000000000284
                },
                {
                    "name": "A#4",
                    "midi": 70,
                    "time": 85.6499999999998,
                    "velocity": 0.6299212598425197,
                    "duration": 0.07500000000000284
                },
                {
                    "name": "A#4",
                    "midi": 70,
                    "time": 85.79999999999981,
                    "velocity": 0.6692913385826772,
                    "duration": 0.15000000000000568
                },
                {
                    "name": "A4",
                    "midi": 69,
                    "time": 85.94999999999982,
                    "velocity": 0.6062992125984252,
                    "duration": 0.15000000000000568
                },
                {
                    "name": "A#4",
                    "midi": 70,
                    "time": 86.09999999999982,
                    "velocity": 0.6299212598425197,
                    "duration": 0.07500000000000284
                },
                {
                    "name": "A#4",
                    "midi": 70,
                    "time": 86.24999999999983,
                    "velocity": 0.6299212598425197,
                    "duration": 0.07500000000000284
                },
                {
                    "name": "A#4",
                    "midi": 70,
                    "time": 86.39999999999984,
                    "velocity": 0.7007874015748031,
                    "duration": 0.15000000000000568
                },
                {
                    "name": "A4",
                    "midi": 69,
                    "time": 86.54999999999984,
                    "velocity": 0.5905511811023622,
                    "duration": 0.15000000000000568
                },
                {
                    "name": "A#4",
                    "midi": 70,
                    "time": 86.69999999999985,
                    "velocity": 0.6141732283464567,
                    "duration": 0.07500000000000284
                },
                {
                    "name": "A#4",
                    "midi": 70,
                    "time": 86.84999999999985,
                    "velocity": 0.6141732283464567,
                    "duration": 0.07500000000000284
                },
                {
                    "name": "A#4",
                    "midi": 70,
                    "time": 86.99999999999986,
                    "velocity": 0.6377952755905512,
                    "duration": 0.15000000000000568
                },
                {
                    "name": "A4",
                    "midi": 69,
                    "time": 87.14999999999986,
                    "velocity": 0.5433070866141733,
                    "duration": 0.15000000000000568
                },
                {
                    "name": "A#4",
                    "midi": 70,
                    "time": 87.29999999999987,
                    "velocity": 0.5511811023622047,
                    "duration": 0.07500000000000284
                },
                {
                    "name": "A#4",
                    "midi": 70,
                    "time": 87.44999999999987,
                    "velocity": 0.5669291338582677,
                    "duration": 0.07500000000000284
                },
                {
                    "name": "A#4",
                    "midi": 70,
                    "time": 87.59999999999988,
                    "velocity": 0.6692913385826772,
                    "duration": 0.07500000000000284
                },
                {
                    "name": "A4",
                    "midi": 69,
                    "time": 87.74999999999989,
                    "velocity": 0.5826771653543307,
                    "duration": 0.07500000000000284
                },
                {
                    "name": "C5",
                    "midi": 72,
                    "time": 87.89999999999989,
                    "velocity": 0.5984251968503937,
                    "duration": 0.07500000000000284
                },
                {
                    "name": "A#4",
                    "midi": 70,
                    "time": 88.0499999999999,
                    "velocity": 0.5511811023622047,
                    "duration": 0.07500000000000284
                },
                {
                    "name": "D#5",
                    "midi": 75,
                    "time": 88.1999999999999,
                    "velocity": 0.6299212598425197,
                    "duration": 0.07500000000000284
                },
                {
                    "name": "D5",
                    "midi": 74,
                    "time": 88.34999999999991,
                    "velocity": 0.5826771653543307,
                    "duration": 0.07500000000000284
                },
                {
                    "name": "F5",
                    "midi": 77,
                    "time": 88.49999999999991,
                    "velocity": 0.5984251968503937,
                    "duration": 0.07500000000000284
                },
                {
                    "name": "D#5",
                    "midi": 75,
                    "time": 88.64999999999992,
                    "velocity": 0.5669291338582677,
                    "duration": 0.07500000000000284
                },
                {
                    "name": "F#5",
                    "midi": 78,
                    "time": 88.79999999999993,
                    "velocity": 0.6141732283464567,
                    "duration": 0.07500000000000284
                },
                {
                    "name": "G5",
                    "midi": 79,
                    "time": 88.94999999999993,
                    "velocity": 0.5905511811023622,
                    "duration": 0.07500000000000284
                },
                {
                    "name": "C6",
                    "midi": 84,
                    "time": 89.09999999999994,
                    "velocity": 0.6771653543307087,
                    "duration": 0.15000000000000568
                },
                {
                    "name": "A#5",
                    "midi": 82,
                    "time": 89.24999999999994,
                    "velocity": 0.6062992125984252,
                    "duration": 0.15000000000000568
                },
                {
                    "name": "G#5",
                    "midi": 80,
                    "time": 89.39999999999995,
                    "velocity": 0.6377952755905512,
                    "duration": 0.15000000000000568
                },
                {
                    "name": "G5",
                    "midi": 79,
                    "time": 89.54999999999995,
                    "velocity": 0.5826771653543307,
                    "duration": 0.15000000000000568
                },
                {
                    "name": "F5",
                    "midi": 77,
                    "time": 89.69999999999996,
                    "velocity": 0.6141732283464567,
                    "duration": 0.15000000000000568
                },
                {
                    "name": "D#5",
                    "midi": 75,
                    "time": 89.84999999999997,
                    "velocity": 0.5748031496062992,
                    "duration": 0.15000000000000568
                },
                {
                    "name": "B5",
                    "midi": 83,
                    "time": 89.99999999999997,
                    "velocity": 0.5748031496062992,
                    "duration": 0.07500000000000284
                },
                {
                    "name": "F5",
                    "midi": 77,
                    "time": 90.14999999999998,
                    "velocity": 0.5433070866141733,
                    "duration": 0.07500000000000284
                },
                {
                    "name": "A#5",
                    "midi": 82,
                    "time": 90.29999999999998,
                    "velocity": 0.7874015748031497,
                    "duration": 0.15000000000000568
                },
                {
                    "name": "G#5",
                    "midi": 80,
                    "time": 90.44999999999999,
                    "velocity": 0.6141732283464567,
                    "duration": 0.15000000000000568
                },
                {
                    "name": "B5",
                    "midi": 83,
                    "time": 90.6,
                    "velocity": 0.5826771653543307,
                    "duration": 0.07500000000000284
                },
                {
                    "name": "F5",
                    "midi": 77,
                    "time": 90.75,
                    "velocity": 0.5433070866141733,
                    "duration": 0.07500000000000284
                },
                {
                    "name": "A#5",
                    "midi": 82,
                    "time": 90.9,
                    "velocity": 0.7874015748031497,
                    "duration": 0.15000000000000568
                },
                {
                    "name": "G#5",
                    "midi": 80,
                    "time": 91.05000000000001,
                    "velocity": 0.5984251968503937,
                    "duration": 0.15000000000000568
                },
                {
                    "name": "B5",
                    "midi": 83,
                    "time": 91.20000000000002,
                    "velocity": 0.7559055118110236,
                    "duration": 0.07500000000000284
                },
                {
                    "name": "F5",
                    "midi": 77,
                    "time": 91.35000000000002,
                    "velocity": 0.5748031496062992,
                    "duration": 0.07500000000000284
                },
                {
                    "name": "A#5",
                    "midi": 82,
                    "time": 91.50000000000003,
                    "velocity": 0.7322834645669292,
                    "duration": 0.07500000000000284
                },
                {
                    "name": "F5",
                    "midi": 77,
                    "time": 91.65000000000003,
                    "velocity": 0.5590551181102362,
                    "duration": 0.07500000000000284
                },
                {
                    "name": "A5",
                    "midi": 81,
                    "time": 91.80000000000004,
                    "velocity": 0.6850393700787402,
                    "duration": 0.07500000000000284
                },
                {
                    "name": "D5",
                    "midi": 74,
                    "time": 91.95000000000005,
                    "velocity": 0.5433070866141733,
                    "duration": 0.07500000000000284
                },
                {
                    "name": "G#5",
                    "midi": 80,
                    "time": 92.10000000000005,
                    "velocity": 0.6614173228346457,
                    "duration": 0.07500000000000284
                },
                {
                    "name": "D5",
                    "midi": 74,
                    "time": 92.25000000000006,
                    "velocity": 0.5354330708661418,
                    "duration": 0.07500000000000284
                },
                {
                    "name": "A#4",
                    "midi": 70,
                    "time": 92.40000000000006,
                    "velocity": 0.6377952755905512,
                    "duration": 0.07500000000000284
                },
                {
                    "name": "A4",
                    "midi": 69,
                    "time": 92.55000000000007,
                    "velocity": 0.5826771653543307,
                    "duration": 0.07500000000000284
                },
                {
                    "name": "C5",
                    "midi": 72,
                    "time": 92.70000000000007,
                    "velocity": 0.5984251968503937,
                    "duration": 0.07500000000000284
                },
                {
                    "name": "A#4",
                    "midi": 70,
                    "time": 92.85000000000008,
                    "velocity": 0.5511811023622047,
                    "duration": 0.07500000000000284
                },
                {
                    "name": "D#5",
                    "midi": 75,
                    "time": 93.00000000000009,
                    "velocity": 0.6299212598425197,
                    "duration": 0.07500000000000284
                },
                {
                    "name": "D5",
                    "midi": 74,
                    "time": 93.15000000000009,
                    "velocity": 0.5826771653543307,
                    "duration": 0.07500000000000284
                },
                {
                    "name": "F5",
                    "midi": 77,
                    "time": 93.3000000000001,
                    "velocity": 0.5984251968503937,
                    "duration": 0.07500000000000284
                },
                {
                    "name": "D#5",
                    "midi": 75,
                    "time": 93.4500000000001,
                    "velocity": 0.5669291338582677,
                    "duration": 0.07500000000000284
                },
                {
                    "name": "F#5",
                    "midi": 78,
                    "time": 93.60000000000011,
                    "velocity": 0.6141732283464567,
                    "duration": 0.07500000000000284
                },
                {
                    "name": "G5",
                    "midi": 79,
                    "time": 93.75000000000011,
                    "velocity": 0.5905511811023622,
                    "duration": 0.07500000000000284
                },
                {
                    "name": "C6",
                    "midi": 84,
                    "time": 93.90000000000012,
                    "velocity": 0.7244094488188977,
                    "duration": 0.15000000000000568
                },
                {
                    "name": "A#5",
                    "midi": 82,
                    "time": 94.05000000000013,
                    "velocity": 0.6062992125984252,
                    "duration": 0.15000000000000568
                },
                {
                    "name": "G#5",
                    "midi": 80,
                    "time": 94.20000000000013,
                    "velocity": 0.6377952755905512,
                    "duration": 0.15000000000000568
                },
                {
                    "name": "G5",
                    "midi": 79,
                    "time": 94.35000000000014,
                    "velocity": 0.5826771653543307,
                    "duration": 0.15000000000000568
                },
                {
                    "name": "F5",
                    "midi": 77,
                    "time": 94.50000000000014,
                    "velocity": 0.6141732283464567,
                    "duration": 0.15000000000000568
                },
                {
                    "name": "D#5",
                    "midi": 75,
                    "time": 94.65000000000015,
                    "velocity": 0.5748031496062992,
                    "duration": 0.15000000000000568
                },
                {
                    "name": "F#6",
                    "midi": 90,
                    "time": 94.80000000000015,
                    "velocity": 0.6850393700787402,
                    "duration": 0.07500000000000284
                },
                {
                    "name": "D#6",
                    "midi": 87,
                    "time": 94.95000000000016,
                    "velocity": 0.5433070866141733,
                    "duration": 0.07500000000000284
                },
                {
                    "name": "C#6",
                    "midi": 85,
                    "time": 95.10000000000016,
                    "velocity": 0.5748031496062992,
                    "duration": 0.07500000000000284
                },
                {
                    "name": "B5",
                    "midi": 83,
                    "time": 95.25000000000017,
                    "velocity": 0.5433070866141733,
                    "duration": 0.07500000000000284
                },
                {
                    "name": "A#5",
                    "midi": 82,
                    "time": 95.40000000000018,
                    "velocity": 0.6929133858267716,
                    "duration": 0.15000000000000568
                },
                {
                    "name": "C#6",
                    "midi": 85,
                    "time": 95.55000000000018,
                    "velocity": 0.5511811023622047,
                    "duration": 0.15000000000000568
                },
                {
                    "name": "B5",
                    "midi": 83,
                    "time": 95.70000000000019,
                    "velocity": 0.6299212598425197,
                    "duration": 0.15000000000000568
                },
                {
                    "name": "G#5",
                    "midi": 80,
                    "time": 95.8500000000002,
                    "velocity": 0.5826771653543307,
                    "duration": 0.15000000000000568
                },
                {
                    "name": "F#5",
                    "midi": 78,
                    "time": 96.0000000000002,
                    "velocity": 0.6062992125984252,
                    "duration": 0.07500000000000284
                },
                {
                    "name": "D#5",
                    "midi": 75,
                    "time": 96.1500000000002,
                    "velocity": 0.5590551181102362,
                    "duration": 0.07500000000000284
                },
                {
                    "name": "C#5",
                    "midi": 73,
                    "time": 96.30000000000021,
                    "velocity": 0.7480314960629921,
                    "duration": 0.07500000000000284
                },
                {
                    "name": "B4",
                    "midi": 71,
                    "time": 96.45000000000022,
                    "velocity": 0.5984251968503937,
                    "duration": 0.07500000000000284
                },
                {
                    "name": "A#4",
                    "midi": 70,
                    "time": 96.60000000000022,
                    "velocity": 0.7086614173228346,
                    "duration": 0.15000000000000568
                },
                {
                    "name": "C#5",
                    "midi": 73,
                    "time": 96.75000000000023,
                    "velocity": 0.5590551181102362,
                    "duration": 0.15000000000000568
                },
                {
                    "name": "B4",
                    "midi": 71,
                    "time": 96.90000000000023,
                    "velocity": 0.5826771653543307,
                    "duration": 0.15000000000000568
                },
                {
                    "name": "G#4",
                    "midi": 68,
                    "time": 97.05000000000024,
                    "velocity": 0.5354330708661418,
                    "duration": 0.15000000000000568
                },
                {
                    "name": "F4",
                    "midi": 65,
                    "time": 97.20000000000024,
                    "velocity": 0.4881889763779528,
                    "duration": 0.11249999999999716
                },
                {
                    "name": "G#4",
                    "midi": 68,
                    "time": 97.20000000000024,
                    "velocity": 0.4881889763779528,
                    "duration": 0.11249999999999716
                },
                {
                    "name": "A#4",
                    "midi": 70,
                    "time": 97.20000000000024,
                    "velocity": 0.4881889763779528,
                    "duration": 0.5999999999999659
                },
                {
                    "name": "F4",
                    "midi": 65,
                    "time": 97.35000000000024,
                    "velocity": 0.5196850393700787,
                    "duration": 0.11249999999999716
                },
                {
                    "name": "G#4",
                    "midi": 68,
                    "time": 97.35000000000024,
                    "velocity": 0.5196850393700787,
                    "duration": 0.11249999999999716
                },
                {
                    "name": "F4",
                    "midi": 65,
                    "time": 97.50000000000023,
                    "velocity": 0.5433070866141733,
                    "duration": 0.11249999999999716
                },
                {
                    "name": "G#4",
                    "midi": 68,
                    "time": 97.50000000000023,
                    "velocity": 0.5433070866141733,
                    "duration": 0.11249999999999716
                },
                {
                    "name": "F4",
                    "midi": 65,
                    "time": 97.65000000000022,
                    "velocity": 0.5748031496062992,
                    "duration": 0.11249999999999716
                },
                {
                    "name": "G#4",
                    "midi": 68,
                    "time": 97.65000000000022,
                    "velocity": 0.5748031496062992,
                    "duration": 0.11249999999999716
                },
                {
                    "name": "A4",
                    "midi": 69,
                    "time": 97.80000000000021,
                    "velocity": 0.7007874015748031,
                    "duration": 0.6000000000000227
                },
                {
                    "name": "F#5",
                    "midi": 78,
                    "time": 97.95000000000022,
                    "velocity": 0.5354330708661418,
                    "duration": 0.15000000000000568
                },
                {
                    "name": "F5",
                    "midi": 77,
                    "time": 98.10000000000022,
                    "velocity": 0.5354330708661418,
                    "duration": 0.15000000000000568
                },
                {
                    "name": "D#5",
                    "midi": 75,
                    "time": 98.25000000000023,
                    "velocity": 0.5354330708661418,
                    "duration": 0.15000000000000568
                },
                {
                    "name": "F4",
                    "midi": 65,
                    "time": 98.40000000000023,
                    "velocity": 0.4881889763779528,
                    "duration": 0.11249999999999716
                },
                {
                    "name": "G#4",
                    "midi": 68,
                    "time": 98.40000000000023,
                    "velocity": 0.4881889763779528,
                    "duration": 0.11249999999999716
                },
                {
                    "name": "A#4",
                    "midi": 70,
                    "time": 98.40000000000023,
                    "velocity": 0.4881889763779528,
                    "duration": 0.5999999999999659
                },
                {
                    "name": "F4",
                    "midi": 65,
                    "time": 98.55000000000022,
                    "velocity": 0.5118110236220472,
                    "duration": 0.11249999999999716
                },
                {
                    "name": "G#4",
                    "midi": 68,
                    "time": 98.55000000000022,
                    "velocity": 0.5118110236220472,
                    "duration": 0.11249999999999716
                },
                {
                    "name": "F4",
                    "midi": 65,
                    "time": 98.70000000000022,
                    "velocity": 0.5354330708661418,
                    "duration": 0.11249999999999716
                },
                {
                    "name": "G#4",
                    "midi": 68,
                    "time": 98.70000000000022,
                    "velocity": 0.5354330708661418,
                    "duration": 0.11249999999999716
                },
                {
                    "name": "F4",
                    "midi": 65,
                    "time": 98.85000000000021,
                    "velocity": 0.49606299212598426,
                    "duration": 0.11249999999999716
                },
                {
                    "name": "G#4",
                    "midi": 68,
                    "time": 98.85000000000021,
                    "velocity": 0.49606299212598426,
                    "duration": 0.11249999999999716
                },
                {
                    "name": "A4",
                    "midi": 69,
                    "time": 99.0000000000002,
                    "velocity": 0.7165354330708661,
                    "duration": 0.6000000000000227
                },
                {
                    "name": "F#5",
                    "midi": 78,
                    "time": 99.1500000000002,
                    "velocity": 0.5511811023622047,
                    "duration": 0.15000000000000568
                },
                {
                    "name": "F5",
                    "midi": 77,
                    "time": 99.30000000000021,
                    "velocity": 0.5354330708661418,
                    "duration": 0.15000000000000568
                },
                {
                    "name": "D#5",
                    "midi": 75,
                    "time": 99.45000000000022,
                    "velocity": 0.5354330708661418,
                    "duration": 0.15000000000000568
                },
                {
                    "name": "G#4",
                    "midi": 68,
                    "time": 99.60000000000022,
                    "velocity": 0.5118110236220472,
                    "duration": 0.11249999999999716
                },
                {
                    "name": "B4",
                    "midi": 71,
                    "time": 99.60000000000022,
                    "velocity": 0.5118110236220472,
                    "duration": 0.11249999999999716
                },
                {
                    "name": "C#5",
                    "midi": 73,
                    "time": 99.60000000000022,
                    "velocity": 0.5118110236220472,
                    "duration": 0.5999999999999659
                },
                {
                    "name": "G#4",
                    "midi": 68,
                    "time": 99.75000000000021,
                    "velocity": 0.5354330708661418,
                    "duration": 0.11249999999999716
                },
                {
                    "name": "B4",
                    "midi": 71,
                    "time": 99.75000000000021,
                    "velocity": 0.5354330708661418,
                    "duration": 0.11249999999999716
                },
                {
                    "name": "G#4",
                    "midi": 68,
                    "time": 99.9000000000002,
                    "velocity": 0.5511811023622047,
                    "duration": 0.11249999999999716
                },
                {
                    "name": "B4",
                    "midi": 71,
                    "time": 99.9000000000002,
                    "velocity": 0.5511811023622047,
                    "duration": 0.11249999999999716
                },
                {
                    "name": "G#4",
                    "midi": 68,
                    "time": 100.0500000000002,
                    "velocity": 0.5748031496062992,
                    "duration": 0.11249999999999716
                },
                {
                    "name": "B4",
                    "midi": 71,
                    "time": 100.0500000000002,
                    "velocity": 0.5748031496062992,
                    "duration": 0.11249999999999716
                },
                {
                    "name": "C5",
                    "midi": 72,
                    "time": 100.20000000000019,
                    "velocity": 0.6850393700787402,
                    "duration": 0.6000000000000227
                },
                {
                    "name": "A5",
                    "midi": 81,
                    "time": 100.3500000000002,
                    "velocity": 0.5590551181102362,
                    "duration": 0.15000000000000568
                },
                {
                    "name": "G#5",
                    "midi": 80,
                    "time": 100.5000000000002,
                    "velocity": 0.5905511811023622,
                    "duration": 0.15000000000000568
                },
                {
                    "name": "F#5",
                    "midi": 78,
                    "time": 100.6500000000002,
                    "velocity": 0.5590551181102362,
                    "duration": 0.15000000000000568
                },
                {
                    "name": "A#4",
                    "midi": 70,
                    "time": 100.80000000000021,
                    "velocity": 0.5196850393700787,
                    "duration": 0.11249999999999716
                },
                {
                    "name": "D5",
                    "midi": 74,
                    "time": 100.80000000000021,
                    "velocity": 0.5196850393700787,
                    "duration": 0.11249999999999716
                },
                {
                    "name": "D#5",
                    "midi": 75,
                    "time": 100.80000000000021,
                    "velocity": 0.5196850393700787,
                    "duration": 0.5999999999999659
                },
                {
                    "name": "A#4",
                    "midi": 70,
                    "time": 100.9500000000002,
                    "velocity": 0.5354330708661418,
                    "duration": 0.11249999999999716
                },
                {
                    "name": "D5",
                    "midi": 74,
                    "time": 100.9500000000002,
                    "velocity": 0.5354330708661418,
                    "duration": 0.11249999999999716
                },
                {
                    "name": "A#4",
                    "midi": 70,
                    "time": 101.1000000000002,
                    "velocity": 0.5511811023622047,
                    "duration": 0.11249999999999716
                },
                {
                    "name": "D5",
                    "midi": 74,
                    "time": 101.1000000000002,
                    "velocity": 0.5511811023622047,
                    "duration": 0.11249999999999716
                },
                {
                    "name": "A#4",
                    "midi": 70,
                    "time": 101.25000000000018,
                    "velocity": 0.5669291338582677,
                    "duration": 0.11249999999999716
                },
                {
                    "name": "D5",
                    "midi": 74,
                    "time": 101.25000000000018,
                    "velocity": 0.5669291338582677,
                    "duration": 0.11249999999999716
                },
                {
                    "name": "D5",
                    "midi": 74,
                    "time": 101.40000000000018,
                    "velocity": 0.6850393700787402,
                    "duration": 0.6000000000000227
                },
                {
                    "name": "B5",
                    "midi": 83,
                    "time": 101.55000000000018,
                    "velocity": 0.5669291338582677,
                    "duration": 0.15000000000000568
                },
                {
                    "name": "A#5",
                    "midi": 82,
                    "time": 101.70000000000019,
                    "velocity": 0.7165354330708661,
                    "duration": 0.15000000000000568
                },
                {
                    "name": "G#5",
                    "midi": 80,
                    "time": 101.8500000000002,
                    "velocity": 0.5669291338582677,
                    "duration": 0.15000000000000568
                },
                {
                    "name": "G#4",
                    "midi": 68,
                    "time": 102.3000000000002,
                    "velocity": 0.49606299212598426,
                    "duration": 0.30000000000001137
                },
                {
                    "name": "B4",
                    "midi": 71,
                    "time": 102.3000000000002,
                    "velocity": 0.7165354330708661,
                    "duration": 0.30000000000001137
                },
                {
                    "name": "F5",
                    "midi": 77,
                    "time": 102.4500000000002,
                    "velocity": 0.6062992125984252,
                    "duration": 0.15000000000000568
                },
                {
                    "name": "G#4",
                    "midi": 68,
                    "time": 102.9000000000002,
                    "velocity": 0.49606299212598426,
                    "duration": 0.30000000000001137
                },
                {
                    "name": "B4",
                    "midi": 71,
                    "time": 102.9000000000002,
                    "velocity": 0.7165354330708661,
                    "duration": 0.30000000000001137
                },
                {
                    "name": "F5",
                    "midi": 77,
                    "time": 103.05000000000021,
                    "velocity": 0.6062992125984252,
                    "duration": 0.15000000000000568
                },
                {
                    "name": "B4",
                    "midi": 71,
                    "time": 103.20000000000022,
                    "velocity": 0.6062992125984252,
                    "duration": 0.15000000000000568
                },
                {
                    "name": "A#4",
                    "midi": 70,
                    "time": 103.35000000000022,
                    "velocity": 0.5511811023622047,
                    "duration": 0.15000000000000568
                },
                {
                    "name": "B4",
                    "midi": 71,
                    "time": 103.50000000000023,
                    "velocity": 0.5826771653543307,
                    "duration": 0.15000000000000568
                },
                {
                    "name": "A#4",
                    "midi": 70,
                    "time": 103.65000000000023,
                    "velocity": 0.5275590551181102,
                    "duration": 0.15000000000000568
                },
                {
                    "name": "B4",
                    "midi": 71,
                    "time": 103.80000000000024,
                    "velocity": 0.5748031496062992,
                    "duration": 0.15000000000000568
                },
                {
                    "name": "A#4",
                    "midi": 70,
                    "time": 103.95000000000024,
                    "velocity": 0.5275590551181102,
                    "duration": 0.15000000000000568
                },
                {
                    "name": "B4",
                    "midi": 71,
                    "time": 104.10000000000025,
                    "velocity": 0.5748031496062992,
                    "duration": 0.15000000000000568
                },
                {
                    "name": "F5",
                    "midi": 77,
                    "time": 104.25000000000026,
                    "velocity": 0.5275590551181102,
                    "duration": 0.15000000000000568
                },
                {
                    "name": "A#4",
                    "midi": 70,
                    "time": 104.40000000000026,
                    "velocity": 0.6692913385826772,
                    "duration": 0.07500000000000284
                },
                {
                    "name": "A4",
                    "midi": 69,
                    "time": 104.55000000000027,
                    "velocity": 0.5826771653543307,
                    "duration": 0.07500000000000284
                },
                {
                    "name": "C5",
                    "midi": 72,
                    "time": 104.70000000000027,
                    "velocity": 0.5984251968503937,
                    "duration": 0.07500000000000284
                },
                {
                    "name": "A#4",
                    "midi": 70,
                    "time": 104.85000000000028,
                    "velocity": 0.5511811023622047,
                    "duration": 0.07500000000000284
                },
                {
                    "name": "D#5",
                    "midi": 75,
                    "time": 105.00000000000028,
                    "velocity": 0.6299212598425197,
                    "duration": 0.07500000000000284
                },
                {
                    "name": "D5",
                    "midi": 74,
                    "time": 105.15000000000029,
                    "velocity": 0.5826771653543307,
                    "duration": 0.07500000000000284
                },
                {
                    "name": "F5",
                    "midi": 77,
                    "time": 105.3000000000003,
                    "velocity": 0.5984251968503937,
                    "duration": 0.07500000000000284
                },
                {
                    "name": "D#5",
                    "midi": 75,
                    "time": 105.4500000000003,
                    "velocity": 0.5669291338582677,
                    "duration": 0.07500000000000284
                },
                {
                    "name": "F#5",
                    "midi": 78,
                    "time": 105.6000000000003,
                    "velocity": 0.6141732283464567,
                    "duration": 0.07500000000000284
                },
                {
                    "name": "G5",
                    "midi": 79,
                    "time": 105.75000000000031,
                    "velocity": 0.5905511811023622,
                    "duration": 0.07500000000000284
                },
                {
                    "name": "C6",
                    "midi": 84,
                    "time": 105.90000000000032,
                    "velocity": 0.7401574803149606,
                    "duration": 0.15000000000000568
                },
                {
                    "name": "A#5",
                    "midi": 82,
                    "time": 106.05000000000032,
                    "velocity": 0.6062992125984252,
                    "duration": 0.15000000000000568
                },
                {
                    "name": "G#5",
                    "midi": 80,
                    "time": 106.20000000000033,
                    "velocity": 0.6377952755905512,
                    "duration": 0.15000000000000568
                },
                {
                    "name": "G5",
                    "midi": 79,
                    "time": 106.35000000000034,
                    "velocity": 0.5826771653543307,
                    "duration": 0.15000000000000568
                },
                {
                    "name": "F5",
                    "midi": 77,
                    "time": 106.50000000000034,
                    "velocity": 0.6141732283464567,
                    "duration": 0.15000000000000568
                },
                {
                    "name": "D#5",
                    "midi": 75,
                    "time": 106.65000000000035,
                    "velocity": 0.5748031496062992,
                    "duration": 0.15000000000000568
                },
                {
                    "name": "B5",
                    "midi": 83,
                    "time": 106.80000000000035,
                    "velocity": 0.5748031496062992,
                    "duration": 0.07500000000000284
                },
                {
                    "name": "F5",
                    "midi": 77,
                    "time": 106.95000000000036,
                    "velocity": 0.5433070866141733,
                    "duration": 0.07500000000000284
                },
                {
                    "name": "A#5",
                    "midi": 82,
                    "time": 107.10000000000036,
                    "velocity": 0.7559055118110236,
                    "duration": 0.15000000000000568
                },
                {
                    "name": "G#5",
                    "midi": 80,
                    "time": 107.25000000000037,
                    "velocity": 0.6141732283464567,
                    "duration": 0.15000000000000568
                },
                {
                    "name": "B5",
                    "midi": 83,
                    "time": 107.40000000000038,
                    "velocity": 0.5826771653543307,
                    "duration": 0.07500000000000284
                },
                {
                    "name": "F5",
                    "midi": 77,
                    "time": 107.55000000000038,
                    "velocity": 0.5433070866141733,
                    "duration": 0.07500000000000284
                },
                {
                    "name": "A#5",
                    "midi": 82,
                    "time": 107.70000000000039,
                    "velocity": 0.7401574803149606,
                    "duration": 0.15000000000000568
                },
                {
                    "name": "G#5",
                    "midi": 80,
                    "time": 107.85000000000039,
                    "velocity": 0.5984251968503937,
                    "duration": 0.15000000000000568
                },
                {
                    "name": "D#6",
                    "midi": 87,
                    "time": 108.0000000000004,
                    "velocity": 0.7559055118110236,
                    "duration": 0.07500000000000284
                },
                {
                    "name": "D6",
                    "midi": 86,
                    "time": 108.1500000000004,
                    "velocity": 0.5748031496062992,
                    "duration": 0.07500000000000284
                },
                {
                    "name": "F6",
                    "midi": 89,
                    "time": 108.30000000000041,
                    "velocity": 0.6614173228346457,
                    "duration": 0.07500000000000284
                },
                {
                    "name": "D#6",
                    "midi": 87,
                    "time": 108.45000000000041,
                    "velocity": 0.5590551181102362,
                    "duration": 0.07500000000000284
                },
                {
                    "name": "B5",
                    "midi": 83,
                    "time": 108.60000000000042,
                    "velocity": 0.6929133858267716,
                    "duration": 0.15000000000000568
                },
                {
                    "name": "D6",
                    "midi": 86,
                    "time": 108.75000000000043,
                    "velocity": 0.5433070866141733,
                    "duration": 0.15000000000000568
                },
                {
                    "name": "C6",
                    "midi": 84,
                    "time": 108.90000000000043,
                    "velocity": 0.5984251968503937,
                    "duration": 0.15000000000000568
                },
                {
                    "name": "G#5",
                    "midi": 80,
                    "time": 109.05000000000044,
                    "velocity": 0.5354330708661418,
                    "duration": 0.15000000000000568
                },
                {
                    "name": "G5",
                    "midi": 79,
                    "time": 109.20000000000044,
                    "velocity": 0.7007874015748031,
                    "duration": 0.15000000000000568
                },
                {
                    "name": "A#5",
                    "midi": 82,
                    "time": 109.35000000000045,
                    "velocity": 0.5669291338582677,
                    "duration": 0.15000000000000568
                },
                {
                    "name": "G#5",
                    "midi": 80,
                    "time": 109.50000000000045,
                    "velocity": 0.6220472440944882,
                    "duration": 0.15000000000000568
                },
                {
                    "name": "F5",
                    "midi": 77,
                    "time": 109.65000000000046,
                    "velocity": 0.5826771653543307,
                    "duration": 0.15000000000000568
                },
                {
                    "name": "D#5",
                    "midi": 75,
                    "time": 109.80000000000047,
                    "velocity": 0.6692913385826772,
                    "duration": 0.07500000000000284
                },
                {
                    "name": "D5",
                    "midi": 74,
                    "time": 109.95000000000047,
                    "velocity": 0.5748031496062992,
                    "duration": 0.07500000000000284
                },
                {
                    "name": "F5",
                    "midi": 77,
                    "time": 110.10000000000048,
                    "velocity": 0.7165354330708661,
                    "duration": 0.07500000000000284
                },
                {
                    "name": "D#5",
                    "midi": 75,
                    "time": 110.25000000000048,
                    "velocity": 0.5826771653543307,
                    "duration": 0.07500000000000284
                },
                {
                    "name": "A#5",
                    "midi": 82,
                    "time": 110.40000000000049,
                    "velocity": 0.5590551181102362,
                    "duration": 0.07500000000000284
                },
                {
                    "name": "G5",
                    "midi": 79,
                    "time": 110.40000000000049,
                    "velocity": 0.5590551181102362,
                    "duration": 0.07500000000000284
                },
                {
                    "name": "A#5",
                    "midi": 82,
                    "time": 110.5500000000005,
                    "velocity": 0.5748031496062992,
                    "duration": 0.07500000000000284
                },
                {
                    "name": "G5",
                    "midi": 79,
                    "time": 110.5500000000005,
                    "velocity": 0.5748031496062992,
                    "duration": 0.07500000000000284
                },
                {
                    "name": "A#5",
                    "midi": 82,
                    "time": 110.7000000000005,
                    "velocity": 0.5905511811023622,
                    "duration": 0.07500000000000284
                },
                {
                    "name": "G5",
                    "midi": 79,
                    "time": 110.7000000000005,
                    "velocity": 0.5905511811023622,
                    "duration": 0.07500000000000284
                },
                {
                    "name": "A#5",
                    "midi": 82,
                    "time": 110.8500000000005,
                    "velocity": 0.6141732283464567,
                    "duration": 0.07500000000000284
                },
                {
                    "name": "G5",
                    "midi": 79,
                    "time": 110.8500000000005,
                    "velocity": 0.6141732283464567,
                    "duration": 0.07500000000000284
                },
                {
                    "name": "A#5",
                    "midi": 82,
                    "time": 111.00000000000051,
                    "velocity": 0.6299212598425197,
                    "duration": 0.07500000000000284
                },
                {
                    "name": "G5",
                    "midi": 79,
                    "time": 111.00000000000051,
                    "velocity": 0.6299212598425197,
                    "duration": 0.07500000000000284
                },
                {
                    "name": "A#5",
                    "midi": 82,
                    "time": 111.15000000000052,
                    "velocity": 0.6456692913385826,
                    "duration": 0.07500000000000284
                },
                {
                    "name": "G5",
                    "midi": 79,
                    "time": 111.15000000000052,
                    "velocity": 0.6456692913385826,
                    "duration": 0.07500000000000284
                },
                {
                    "name": "A#5",
                    "midi": 82,
                    "time": 111.30000000000052,
                    "velocity": 0.6614173228346457,
                    "duration": 0.07500000000000284
                },
                {
                    "name": "G5",
                    "midi": 79,
                    "time": 111.30000000000052,
                    "velocity": 0.6614173228346457,
                    "duration": 0.07500000000000284
                },
                {
                    "name": "A#5",
                    "midi": 82,
                    "time": 111.45000000000053,
                    "velocity": 0.6692913385826772,
                    "duration": 0.07500000000000284
                },
                {
                    "name": "G5",
                    "midi": 79,
                    "time": 111.45000000000053,
                    "velocity": 0.6692913385826772,
                    "duration": 0.07500000000000284
                },
                {
                    "name": "D6",
                    "midi": 86,
                    "time": 111.60000000000053,
                    "velocity": 0.7401574803149606,
                    "duration": 0.29999999999999716
                },
                {
                    "name": "F#5",
                    "midi": 78,
                    "time": 111.60000000000053,
                    "velocity": 0.7401574803149606,
                    "duration": 0.29999999999999716
                },
                {
                    "name": "D5",
                    "midi": 74,
                    "time": 111.60000000000053,
                    "velocity": 0.7401574803149606,
                    "duration": 0.29999999999999716
                },
                {
                    "name": "F#5",
                    "midi": 78,
                    "time": 111.90000000000053,
                    "velocity": 0.5826771653543307,
                    "duration": 0.11249999999999716
                },
                {
                    "name": "D5",
                    "midi": 74,
                    "time": 111.90000000000053,
                    "velocity": 0.5826771653543307,
                    "duration": 0.11249999999999716
                },
                {
                    "name": "F#5",
                    "midi": 78,
                    "time": 112.05000000000052,
                    "velocity": 0.5511811023622047,
                    "duration": 0.11249999999999716
                },
                {
                    "name": "D5",
                    "midi": 74,
                    "time": 112.05000000000052,
                    "velocity": 0.5511811023622047,
                    "duration": 0.11249999999999716
                },
                {
                    "name": "F#5",
                    "midi": 78,
                    "time": 112.20000000000051,
                    "velocity": 0.5984251968503937,
                    "duration": 0.11249999999999716
                },
                {
                    "name": "D5",
                    "midi": 74,
                    "time": 112.20000000000051,
                    "velocity": 0.5984251968503937,
                    "duration": 0.11249999999999716
                },
                {
                    "name": "F#5",
                    "midi": 78,
                    "time": 112.3500000000005,
                    "velocity": 0.5511811023622047,
                    "duration": 0.11249999999999716
                },
                {
                    "name": "D5",
                    "midi": 74,
                    "time": 112.3500000000005,
                    "velocity": 0.5511811023622047,
                    "duration": 0.11249999999999716
                },
                {
                    "name": "F#5",
                    "midi": 78,
                    "time": 112.5000000000005,
                    "velocity": 0.5905511811023622,
                    "duration": 0.11249999999999716
                },
                {
                    "name": "D5",
                    "midi": 74,
                    "time": 112.5000000000005,
                    "velocity": 0.5905511811023622,
                    "duration": 0.11249999999999716
                },
                {
                    "name": "F#5",
                    "midi": 78,
                    "time": 112.65000000000049,
                    "velocity": 0.5590551181102362,
                    "duration": 0.11249999999999716
                },
                {
                    "name": "D5",
                    "midi": 74,
                    "time": 112.65000000000049,
                    "velocity": 0.5590551181102362,
                    "duration": 0.11249999999999716
                },
                {
                    "name": "E5",
                    "midi": 76,
                    "time": 112.80000000000048,
                    "velocity": 0.7007874015748031,
                    "duration": 0.29999999999999716
                },
                {
                    "name": "D5",
                    "midi": 74,
                    "time": 112.80000000000048,
                    "velocity": 0.7007874015748031,
                    "duration": 0.29999999999999716
                },
                {
                    "name": "A#5",
                    "midi": 82,
                    "time": 113.10000000000048,
                    "velocity": 0.5511811023622047,
                    "duration": 0.07500000000000284
                },
                {
                    "name": "G#5",
                    "midi": 80,
                    "time": 113.10000000000048,
                    "velocity": 0.5511811023622047,
                    "duration": 0.07500000000000284
                },
                {
                    "name": "A#5",
                    "midi": 82,
                    "time": 113.25000000000048,
                    "velocity": 0.5275590551181102,
                    "duration": 0.07500000000000284
                },
                {
                    "name": "G#5",
                    "midi": 80,
                    "time": 113.25000000000048,
                    "velocity": 0.5275590551181102,
                    "duration": 0.07500000000000284
                },
                {
                    "name": "E5",
                    "midi": 76,
                    "time": 113.40000000000049,
                    "velocity": 0.7007874015748031,
                    "duration": 0.29999999999999716
                },
                {
                    "name": "D5",
                    "midi": 74,
                    "time": 113.40000000000049,
                    "velocity": 0.7007874015748031,
                    "duration": 0.29999999999999716
                },
                {
                    "name": "A#5",
                    "midi": 82,
                    "time": 113.70000000000049,
                    "velocity": 0.5354330708661418,
                    "duration": 0.07500000000000284
                },
                {
                    "name": "G#5",
                    "midi": 80,
                    "time": 113.70000000000049,
                    "velocity": 0.5354330708661418,
                    "duration": 0.07500000000000284
                },
                {
                    "name": "A#5",
                    "midi": 82,
                    "time": 113.85000000000049,
                    "velocity": 0.5354330708661418,
                    "duration": 0.07500000000000284
                },
                {
                    "name": "G#5",
                    "midi": 80,
                    "time": 113.85000000000049,
                    "velocity": 0.5354330708661418,
                    "duration": 0.07500000000000284
                },
                {
                    "name": "D5",
                    "midi": 74,
                    "time": 114.0000000000005,
                    "velocity": 0.5590551181102362,
                    "duration": 0.11249999999999716
                },
                {
                    "name": "E5",
                    "midi": 76,
                    "time": 114.0000000000005,
                    "velocity": 0.5590551181102362,
                    "duration": 0.11249999999999716
                },
                {
                    "name": "D5",
                    "midi": 74,
                    "time": 114.15000000000049,
                    "velocity": 0.5590551181102362,
                    "duration": 0.11249999999999716
                },
                {
                    "name": "E5",
                    "midi": 76,
                    "time": 114.15000000000049,
                    "velocity": 0.5590551181102362,
                    "duration": 0.11249999999999716
                },
                {
                    "name": "D5",
                    "midi": 74,
                    "time": 114.30000000000048,
                    "velocity": 0.5590551181102362,
                    "duration": 0.11249999999999716
                },
                {
                    "name": "E5",
                    "midi": 76,
                    "time": 114.30000000000048,
                    "velocity": 0.5590551181102362,
                    "duration": 0.11249999999999716
                },
                {
                    "name": "D5",
                    "midi": 74,
                    "time": 114.45000000000047,
                    "velocity": 0.5590551181102362,
                    "duration": 0.11249999999999716
                },
                {
                    "name": "E5",
                    "midi": 76,
                    "time": 114.45000000000047,
                    "velocity": 0.5590551181102362,
                    "duration": 0.11249999999999716
                },
                {
                    "name": "E5",
                    "midi": 76,
                    "time": 114.60000000000046,
                    "velocity": 0.5826771653543307,
                    "duration": 0.11249999999999716
                },
                {
                    "name": "D5",
                    "midi": 74,
                    "time": 114.60000000000046,
                    "velocity": 0.5826771653543307,
                    "duration": 0.11249999999999716
                },
                {
                    "name": "D5",
                    "midi": 74,
                    "time": 114.75000000000045,
                    "velocity": 0.6062992125984252,
                    "duration": 0.11249999999999716
                },
                {
                    "name": "E5",
                    "midi": 76,
                    "time": 114.75000000000045,
                    "velocity": 0.6062992125984252,
                    "duration": 0.11249999999999716
                },
                {
                    "name": "D5",
                    "midi": 74,
                    "time": 114.90000000000045,
                    "velocity": 0.6299212598425197,
                    "duration": 0.11249999999999716
                },
                {
                    "name": "E5",
                    "midi": 76,
                    "time": 114.90000000000045,
                    "velocity": 0.6299212598425197,
                    "duration": 0.11249999999999716
                },
                {
                    "name": "D5",
                    "midi": 74,
                    "time": 115.05000000000044,
                    "velocity": 0.6614173228346457,
                    "duration": 0.11249999999999716
                },
                {
                    "name": "E5",
                    "midi": 76,
                    "time": 115.05000000000044,
                    "velocity": 0.6614173228346457,
                    "duration": 0.11249999999999716
                },
                {
                    "name": "C#5",
                    "midi": 73,
                    "time": 115.20000000000043,
                    "velocity": 0.7165354330708661,
                    "duration": 0.07500000000000284
                },
                {
                    "name": "E5",
                    "midi": 76,
                    "time": 115.20000000000043,
                    "velocity": 0.7165354330708661,
                    "duration": 0.07500000000000284
                },
                {
                    "name": "C#5",
                    "midi": 73,
                    "time": 115.35000000000043,
                    "velocity": 0.6456692913385826,
                    "duration": 0.07500000000000284
                },
                {
                    "name": "E5",
                    "midi": 76,
                    "time": 115.35000000000043,
                    "velocity": 0.6456692913385826,
                    "duration": 0.07500000000000284
                },
                {
                    "name": "C#5",
                    "midi": 73,
                    "time": 115.50000000000044,
                    "velocity": 0.6850393700787402,
                    "duration": 0.07500000000000284
                },
                {
                    "name": "E5",
                    "midi": 76,
                    "time": 115.50000000000044,
                    "velocity": 0.6850393700787402,
                    "duration": 0.07500000000000284
                },
                {
                    "name": "C#5",
                    "midi": 73,
                    "time": 115.65000000000045,
                    "velocity": 0.6220472440944882,
                    "duration": 0.07500000000000284
                },
                {
                    "name": "E5",
                    "midi": 76,
                    "time": 115.65000000000045,
                    "velocity": 0.6220472440944882,
                    "duration": 0.07500000000000284
                },
                {
                    "name": "A5",
                    "midi": 81,
                    "time": 115.80000000000045,
                    "velocity": 0.7559055118110236,
                    "duration": 0.29999999999999716
                },
                {
                    "name": "C#5",
                    "midi": 73,
                    "time": 115.80000000000045,
                    "velocity": 0.7559055118110236,
                    "duration": 0.29999999999999716
                },
                {
                    "name": "D6",
                    "midi": 86,
                    "time": 116.40000000000045,
                    "velocity": 0.7401574803149606,
                    "duration": 0.29999999999999716
                },
                {
                    "name": "F#5",
                    "midi": 78,
                    "time": 116.40000000000045,
                    "velocity": 0.7401574803149606,
                    "duration": 0.29999999999999716
                },
                {
                    "name": "D5",
                    "midi": 74,
                    "time": 116.40000000000045,
                    "velocity": 0.7401574803149606,
                    "duration": 0.29999999999999716
                },
                {
                    "name": "F#5",
                    "midi": 78,
                    "time": 116.70000000000044,
                    "velocity": 0.5905511811023622,
                    "duration": 0.11249999999999716
                },
                {
                    "name": "D5",
                    "midi": 74,
                    "time": 116.70000000000044,
                    "velocity": 0.5905511811023622,
                    "duration": 0.11249999999999716
                },
                {
                    "name": "F#5",
                    "midi": 78,
                    "time": 116.85000000000043,
                    "velocity": 0.5511811023622047,
                    "duration": 0.11249999999999716
                },
                {
                    "name": "D5",
                    "midi": 74,
                    "time": 116.85000000000043,
                    "velocity": 0.5511811023622047,
                    "duration": 0.11249999999999716
                },
                {
                    "name": "F#5",
                    "midi": 78,
                    "time": 117.00000000000043,
                    "velocity": 0.5905511811023622,
                    "duration": 0.11249999999999716
                },
                {
                    "name": "D5",
                    "midi": 74,
                    "time": 117.00000000000043,
                    "velocity": 0.5905511811023622,
                    "duration": 0.11249999999999716
                },
                {
                    "name": "F#5",
                    "midi": 78,
                    "time": 117.15000000000042,
                    "velocity": 0.5433070866141733,
                    "duration": 0.11249999999999716
                },
                {
                    "name": "D5",
                    "midi": 74,
                    "time": 117.15000000000042,
                    "velocity": 0.5433070866141733,
                    "duration": 0.11249999999999716
                },
                {
                    "name": "F#5",
                    "midi": 78,
                    "time": 117.30000000000041,
                    "velocity": 0.5905511811023622,
                    "duration": 0.11249999999999716
                },
                {
                    "name": "D5",
                    "midi": 74,
                    "time": 117.30000000000041,
                    "velocity": 0.5905511811023622,
                    "duration": 0.11249999999999716
                },
                {
                    "name": "F#5",
                    "midi": 78,
                    "time": 117.4500000000004,
                    "velocity": 0.5511811023622047,
                    "duration": 0.11249999999999716
                },
                {
                    "name": "D5",
                    "midi": 74,
                    "time": 117.4500000000004,
                    "velocity": 0.5511811023622047,
                    "duration": 0.11249999999999716
                },
                {
                    "name": "E5",
                    "midi": 76,
                    "time": 117.60000000000039,
                    "velocity": 0.7007874015748031,
                    "duration": 0.29999999999999716
                },
                {
                    "name": "F#5",
                    "midi": 78,
                    "time": 117.60000000000039,
                    "velocity": 0.7007874015748031,
                    "duration": 0.29999999999999716
                },
                {
                    "name": "C6",
                    "midi": 84,
                    "time": 117.90000000000039,
                    "velocity": 0.5354330708661418,
                    "duration": 0.07500000000000284
                },
                {
                    "name": "A#5",
                    "midi": 82,
                    "time": 117.90000000000039,
                    "velocity": 0.5354330708661418,
                    "duration": 0.07500000000000284
                },
                {
                    "name": "C6",
                    "midi": 84,
                    "time": 118.0500000000004,
                    "velocity": 0.5354330708661418,
                    "duration": 0.07500000000000284
                },
                {
                    "name": "A#5",
                    "midi": 82,
                    "time": 118.0500000000004,
                    "velocity": 0.5354330708661418,
                    "duration": 0.07500000000000284
                },
                {
                    "name": "E5",
                    "midi": 76,
                    "time": 118.2000000000004,
                    "velocity": 0.7007874015748031,
                    "duration": 0.29999999999999716
                },
                {
                    "name": "F#5",
                    "midi": 78,
                    "time": 118.2000000000004,
                    "velocity": 0.7007874015748031,
                    "duration": 0.29999999999999716
                },
                {
                    "name": "C6",
                    "midi": 84,
                    "time": 118.5000000000004,
                    "velocity": 0.5433070866141733,
                    "duration": 0.07500000000000284
                },
                {
                    "name": "A#5",
                    "midi": 82,
                    "time": 118.5000000000004,
                    "velocity": 0.5433070866141733,
                    "duration": 0.07500000000000284
                },
                {
                    "name": "C6",
                    "midi": 84,
                    "time": 118.6500000000004,
                    "velocity": 0.5433070866141733,
                    "duration": 0.07500000000000284
                },
                {
                    "name": "A#5",
                    "midi": 82,
                    "time": 118.6500000000004,
                    "velocity": 0.5433070866141733,
                    "duration": 0.07500000000000284
                },
                {
                    "name": "F#5",
                    "midi": 78,
                    "time": 118.80000000000041,
                    "velocity": 0.5590551181102362,
                    "duration": 0.11249999999999716
                },
                {
                    "name": "E5",
                    "midi": 76,
                    "time": 118.80000000000041,
                    "velocity": 0.5590551181102362,
                    "duration": 0.11249999999999716
                },
                {
                    "name": "F#5",
                    "midi": 78,
                    "time": 118.9500000000004,
                    "velocity": 0.5590551181102362,
                    "duration": 0.11249999999999716
                },
                {
                    "name": "E5",
                    "midi": 76,
                    "time": 118.9500000000004,
                    "velocity": 0.5590551181102362,
                    "duration": 0.11249999999999716
                },
                {
                    "name": "F#5",
                    "midi": 78,
                    "time": 119.10000000000039,
                    "velocity": 0.5590551181102362,
                    "duration": 0.11249999999999716
                },
                {
                    "name": "E5",
                    "midi": 76,
                    "time": 119.10000000000039,
                    "velocity": 0.5590551181102362,
                    "duration": 0.11249999999999716
                },
                {
                    "name": "F#5",
                    "midi": 78,
                    "time": 119.25000000000038,
                    "velocity": 0.5590551181102362,
                    "duration": 0.11249999999999716
                },
                {
                    "name": "E5",
                    "midi": 76,
                    "time": 119.25000000000038,
                    "velocity": 0.5590551181102362,
                    "duration": 0.11249999999999716
                },
                {
                    "name": "E5",
                    "midi": 76,
                    "time": 119.40000000000038,
                    "velocity": 0.5511811023622047,
                    "duration": 0.11249999999999716
                },
                {
                    "name": "F#5",
                    "midi": 78,
                    "time": 119.40000000000038,
                    "velocity": 0.5511811023622047,
                    "duration": 0.11249999999999716
                },
                {
                    "name": "F#5",
                    "midi": 78,
                    "time": 119.55000000000037,
                    "velocity": 0.5590551181102362,
                    "duration": 0.11249999999999716
                },
                {
                    "name": "E5",
                    "midi": 76,
                    "time": 119.55000000000037,
                    "velocity": 0.5590551181102362,
                    "duration": 0.11249999999999716
                },
                {
                    "name": "F#5",
                    "midi": 78,
                    "time": 119.70000000000036,
                    "velocity": 0.5748031496062992,
                    "duration": 0.11249999999999716
                },
                {
                    "name": "E5",
                    "midi": 76,
                    "time": 119.70000000000036,
                    "velocity": 0.5748031496062992,
                    "duration": 0.11249999999999716
                },
                {
                    "name": "F#5",
                    "midi": 78,
                    "time": 119.85000000000035,
                    "velocity": 0.5905511811023622,
                    "duration": 0.11249999999999716
                },
                {
                    "name": "E5",
                    "midi": 76,
                    "time": 119.85000000000035,
                    "velocity": 0.5905511811023622,
                    "duration": 0.11249999999999716
                },
                {
                    "name": "F#5",
                    "midi": 78,
                    "time": 120.00000000000034,
                    "velocity": 0.6377952755905512,
                    "duration": 0.07500000000000284
                },
                {
                    "name": "D#5",
                    "midi": 75,
                    "time": 120.00000000000034,
                    "velocity": 0.6377952755905512,
                    "duration": 0.07500000000000284
                },
                {
                    "name": "F#5",
                    "midi": 78,
                    "time": 120.15000000000035,
                    "velocity": 0.5826771653543307,
                    "duration": 0.07500000000000284
                },
                {
                    "name": "D#5",
                    "midi": 75,
                    "time": 120.15000000000035,
                    "velocity": 0.5826771653543307,
                    "duration": 0.07500000000000284
                },
                {
                    "name": "F#5",
                    "midi": 78,
                    "time": 120.30000000000035,
                    "velocity": 0.6220472440944882,
                    "duration": 0.07500000000000284
                },
                {
                    "name": "D#5",
                    "midi": 75,
                    "time": 120.30000000000035,
                    "velocity": 0.6220472440944882,
                    "duration": 0.07500000000000284
                },
                {
                    "name": "F#5",
                    "midi": 78,
                    "time": 120.45000000000036,
                    "velocity": 0.5590551181102362,
                    "duration": 0.07500000000000284
                },
                {
                    "name": "D#5",
                    "midi": 75,
                    "time": 120.45000000000036,
                    "velocity": 0.5590551181102362,
                    "duration": 0.07500000000000284
                },
                {
                    "name": "B5",
                    "midi": 83,
                    "time": 120.60000000000036,
                    "velocity": 0.6692913385826772,
                    "duration": 0.29999999999999716
                },
                {
                    "name": "D#5",
                    "midi": 75,
                    "time": 120.60000000000036,
                    "velocity": 0.6692913385826772,
                    "duration": 0.29999999999999716
                },
                {
                    "name": "E6",
                    "midi": 88,
                    "time": 121.20000000000036,
                    "velocity": 0.7401574803149606,
                    "duration": 0.29999999999999716
                },
                {
                    "name": "E5",
                    "midi": 76,
                    "time": 121.20000000000036,
                    "velocity": 0.7401574803149606,
                    "duration": 0.29999999999999716
                },
                {
                    "name": "D#5",
                    "midi": 75,
                    "time": 121.50000000000036,
                    "velocity": 0.5511811023622047,
                    "duration": 0.15000000000000568
                },
                {
                    "name": "E5",
                    "midi": 76,
                    "time": 121.65000000000036,
                    "velocity": 0.5275590551181102,
                    "duration": 0.15000000000000568
                },
                {
                    "name": "F#5",
                    "midi": 78,
                    "time": 121.80000000000037,
                    "velocity": 0.5669291338582677,
                    "duration": 0.15000000000000568
                },
                {
                    "name": "G5",
                    "midi": 79,
                    "time": 121.95000000000037,
                    "velocity": 0.5511811023622047,
                    "duration": 0.15000000000000568
                },
                {
                    "name": "A#5",
                    "midi": 82,
                    "time": 122.10000000000038,
                    "velocity": 0.5826771653543307,
                    "duration": 0.15000000000000568
                },
                {
                    "name": "B5",
                    "midi": 83,
                    "time": 122.25000000000038,
                    "velocity": 0.5669291338582677,
                    "duration": 0.15000000000000568
                },
                {
                    "name": "F5",
                    "midi": 77,
                    "time": 122.40000000000039,
                    "velocity": 0.7007874015748031,
                    "duration": 0.29999999999999716
                },
                {
                    "name": "D6",
                    "midi": 86,
                    "time": 122.40000000000039,
                    "velocity": 0.7007874015748031,
                    "duration": 0.29999999999999716
                },
                {
                    "name": "D5",
                    "midi": 74,
                    "time": 122.40000000000039,
                    "velocity": 0.7007874015748031,
                    "duration": 0.29999999999999716
                },
                {
                    "name": "G#5",
                    "midi": 80,
                    "time": 122.70000000000039,
                    "velocity": 0.5826771653543307,
                    "duration": 0.15000000000000568
                },
                {
                    "name": "D5",
                    "midi": 74,
                    "time": 122.70000000000039,
                    "velocity": 0.5826771653543307,
                    "duration": 0.30000000000001137
                },
                {
                    "name": "F5",
                    "midi": 77,
                    "time": 122.70000000000039,
                    "velocity": 0.5826771653543307,
                    "duration": 0.30000000000001137
                },
                {
                    "name": "G5",
                    "midi": 79,
                    "time": 122.85000000000039,
                    "velocity": 0.5984251968503937,
                    "duration": 0.15000000000000568
                },
                {
                    "name": "C6",
                    "midi": 84,
                    "time": 123.0000000000004,
                    "velocity": 0.7401574803149606,
                    "duration": 0.29999999999999716
                },
                {
                    "name": "D#5",
                    "midi": 75,
                    "time": 123.0000000000004,
                    "velocity": 0.6220472440944882,
                    "duration": 0.29999999999999716
                },
                {
                    "name": "B4",
                    "midi": 71,
                    "time": 123.3000000000004,
                    "velocity": 0.5511811023622047,
                    "duration": 0.15000000000000568
                },
                {
                    "name": "C5",
                    "midi": 72,
                    "time": 123.4500000000004,
                    "velocity": 0.5275590551181102,
                    "duration": 0.15000000000000568
                },
                {
                    "name": "D5",
                    "midi": 74,
                    "time": 123.6000000000004,
                    "velocity": 0.5669291338582677,
                    "duration": 0.15000000000000568
                },
                {
                    "name": "D#5",
                    "midi": 75,
                    "time": 123.75000000000041,
                    "velocity": 0.5511811023622047,
                    "duration": 0.15000000000000568
                },
                {
                    "name": "F#5",
                    "midi": 78,
                    "time": 123.90000000000042,
                    "velocity": 0.5826771653543307,
                    "duration": 0.15000000000000568
                },
                {
                    "name": "G5",
                    "midi": 79,
                    "time": 124.05000000000042,
                    "velocity": 0.5669291338582677,
                    "duration": 0.15000000000000568
                },
                {
                    "name": "C#5",
                    "midi": 73,
                    "time": 124.20000000000043,
                    "velocity": 0.7007874015748031,
                    "duration": 0.29999999999999716
                },
                {
                    "name": "A#5",
                    "midi": 82,
                    "time": 124.20000000000043,
                    "velocity": 0.7007874015748031,
                    "duration": 0.29999999999999716
                },
                {
                    "name": "A#4",
                    "midi": 70,
                    "time": 124.20000000000043,
                    "velocity": 0.7007874015748031,
                    "duration": 0.29999999999999716
                },
                {
                    "name": "E5",
                    "midi": 76,
                    "time": 124.50000000000043,
                    "velocity": 0.5826771653543307,
                    "duration": 0.15000000000000568
                },
                {
                    "name": "C#5",
                    "midi": 73,
                    "time": 124.50000000000043,
                    "velocity": 0.5826771653543307,
                    "duration": 0.30000000000001137
                },
                {
                    "name": "A#4",
                    "midi": 70,
                    "time": 124.50000000000043,
                    "velocity": 0.5826771653543307,
                    "duration": 0.30000000000001137
                },
                {
                    "name": "D#5",
                    "midi": 75,
                    "time": 124.65000000000043,
                    "velocity": 0.5511811023622047,
                    "duration": 0.15000000000000568
                },
                {
                    "name": "G#5",
                    "midi": 80,
                    "time": 124.80000000000044,
                    "velocity": 0.7401574803149606,
                    "duration": 0.29999999999999716
                },
                {
                    "name": "C5",
                    "midi": 72,
                    "time": 124.80000000000044,
                    "velocity": 0.6220472440944882,
                    "duration": 0.29999999999999716
                },
                {
                    "name": "D#5",
                    "midi": 75,
                    "time": 124.80000000000044,
                    "velocity": 0.6220472440944882,
                    "duration": 0.29999999999999716
                },
                {
                    "name": "B4",
                    "midi": 71,
                    "time": 125.10000000000043,
                    "velocity": 0.5511811023622047,
                    "duration": 0.15000000000000568
                },
                {
                    "name": "C5",
                    "midi": 72,
                    "time": 125.25000000000044,
                    "velocity": 0.5275590551181102,
                    "duration": 0.15000000000000568
                },
                {
                    "name": "G4",
                    "midi": 67,
                    "time": 125.40000000000045,
                    "velocity": 0.5590551181102362,
                    "duration": 0.15000000000000568
                },
                {
                    "name": "G#4",
                    "midi": 68,
                    "time": 125.55000000000045,
                    "velocity": 0.5275590551181102,
                    "duration": 0.15000000000000568
                },
                {
                    "name": "B4",
                    "midi": 71,
                    "time": 125.70000000000046,
                    "velocity": 0.5669291338582677,
                    "duration": 0.15000000000000568
                },
                {
                    "name": "C5",
                    "midi": 72,
                    "time": 125.85000000000046,
                    "velocity": 0.5354330708661418,
                    "duration": 0.15000000000000568
                },
                {
                    "name": "B4",
                    "midi": 71,
                    "time": 126.30000000000047,
                    "velocity": 0.6929133858267716,
                    "duration": 0.15000000000000568
                },
                {
                    "name": "G#4",
                    "midi": 68,
                    "time": 126.30000000000047,
                    "velocity": 0.6220472440944882,
                    "duration": 0.30000000000001137
                },
                {
                    "name": "F5",
                    "midi": 77,
                    "time": 126.45000000000047,
                    "velocity": 0.6299212598425197,
                    "duration": 0.15000000000000568
                },
                {
                    "name": "G#5",
                    "midi": 80,
                    "time": 126.60000000000048,
                    "velocity": 0.7401574803149606,
                    "duration": 0.29999999999999716
                },
                {
                    "name": "C5",
                    "midi": 72,
                    "time": 126.60000000000048,
                    "velocity": 0.6220472440944882,
                    "duration": 0.29999999999999716
                },
                {
                    "name": "D#5",
                    "midi": 75,
                    "time": 126.60000000000048,
                    "velocity": 0.6220472440944882,
                    "duration": 0.29999999999999716
                },
                {
                    "name": "B4",
                    "midi": 71,
                    "time": 126.90000000000047,
                    "velocity": 0.5511811023622047,
                    "duration": 0.15000000000000568
                },
                {
                    "name": "C5",
                    "midi": 72,
                    "time": 127.05000000000048,
                    "velocity": 0.5118110236220472,
                    "duration": 0.15000000000000568
                },
                {
                    "name": "G4",
                    "midi": 67,
                    "time": 127.20000000000049,
                    "velocity": 0.5590551181102362,
                    "duration": 0.15000000000000568
                },
                {
                    "name": "G#4",
                    "midi": 68,
                    "time": 127.35000000000049,
                    "velocity": 0.5275590551181102,
                    "duration": 0.15000000000000568
                },
                {
                    "name": "B4",
                    "midi": 71,
                    "time": 127.5000000000005,
                    "velocity": 0.5826771653543307,
                    "duration": 0.15000000000000568
                },
                {
                    "name": "C5",
                    "midi": 72,
                    "time": 127.6500000000005,
                    "velocity": 0.5275590551181102,
                    "duration": 0.15000000000000568
                },
                {
                    "name": "B4",
                    "midi": 71,
                    "time": 128.1000000000005,
                    "velocity": 0.6692913385826772,
                    "duration": 0.15000000000000568
                },
                {
                    "name": "G#4",
                    "midi": 68,
                    "time": 128.1000000000005,
                    "velocity": 0.6062992125984252,
                    "duration": 0.30000000000001137
                },
                {
                    "name": "F5",
                    "midi": 77,
                    "time": 128.2500000000005,
                    "velocity": 0.6299212598425197,
                    "duration": 0.15000000000000568
                },
                {
                    "name": "E5",
                    "midi": 76,
                    "time": 128.40000000000052,
                    "velocity": 0.7007874015748031,
                    "duration": 0.30000000000001137
                },
                {
                    "name": "D5",
                    "midi": 74,
                    "time": 128.40000000000052,
                    "velocity": 0.7007874015748031,
                    "duration": 0.30000000000001137
                },
                {
                    "name": "A#5",
                    "midi": 82,
                    "time": 128.70000000000053,
                    "velocity": 0.5354330708661418,
                    "duration": 0.07499999999998863
                },
                {
                    "name": "G#5",
                    "midi": 80,
                    "time": 128.70000000000053,
                    "velocity": 0.5354330708661418,
                    "duration": 0.07499999999998863
                },
                {
                    "name": "A#5",
                    "midi": 82,
                    "time": 128.8500000000005,
                    "velocity": 0.5354330708661418,
                    "duration": 0.07499999999998863
                },
                {
                    "name": "G#5",
                    "midi": 80,
                    "time": 128.8500000000005,
                    "velocity": 0.5354330708661418,
                    "duration": 0.07499999999998863
                },
                {
                    "name": "C#6",
                    "midi": 85,
                    "time": 129.00000000000048,
                    "velocity": 0.7401574803149606,
                    "duration": 0.30000000000001137
                },
                {
                    "name": "C#5",
                    "midi": 73,
                    "time": 129.00000000000048,
                    "velocity": 0.6220472440944882,
                    "duration": 0.30000000000001137
                },
                {
                    "name": "F5",
                    "midi": 77,
                    "time": 129.00000000000048,
                    "velocity": 0.6220472440944882,
                    "duration": 0.30000000000001137
                },
                {
                    "name": "E5",
                    "midi": 76,
                    "time": 129.3000000000005,
                    "velocity": 0.5511811023622047,
                    "duration": 0.15000000000000568
                },
                {
                    "name": "F5",
                    "midi": 77,
                    "time": 129.4500000000005,
                    "velocity": 0.5118110236220472,
                    "duration": 0.15000000000000568
                },
                {
                    "name": "C5",
                    "midi": 72,
                    "time": 129.6000000000005,
                    "velocity": 0.5511811023622047,
                    "duration": 0.15000000000000568
                },
                {
                    "name": "C#5",
                    "midi": 73,
                    "time": 129.7500000000005,
                    "velocity": 0.5196850393700787,
                    "duration": 0.15000000000000568
                },
                {
                    "name": "E5",
                    "midi": 76,
                    "time": 129.90000000000052,
                    "velocity": 0.5590551181102362,
                    "duration": 0.15000000000000568
                },
                {
                    "name": "F5",
                    "midi": 77,
                    "time": 130.05000000000052,
                    "velocity": 0.5275590551181102,
                    "duration": 0.15000000000000568
                },
                {
                    "name": "E5",
                    "midi": 76,
                    "time": 130.50000000000054,
                    "velocity": 0.6692913385826772,
                    "duration": 0.15000000000000568
                },
                {
                    "name": "C#5",
                    "midi": 73,
                    "time": 130.50000000000054,
                    "velocity": 0.6692913385826772,
                    "duration": 0.30000000000001137
                },
                {
                    "name": "A#5",
                    "midi": 82,
                    "time": 130.65000000000055,
                    "velocity": 0.6299212598425197,
                    "duration": 0.15000000000000568
                },
                {
                    "name": "E5",
                    "midi": 76,
                    "time": 130.80000000000055,
                    "velocity": 0.7007874015748031,
                    "duration": 0.30000000000001137
                },
                {
                    "name": "D5",
                    "midi": 74,
                    "time": 130.80000000000055,
                    "velocity": 0.7007874015748031,
                    "duration": 0.30000000000001137
                },
                {
                    "name": "A#5",
                    "midi": 82,
                    "time": 131.10000000000056,
                    "velocity": 0.5354330708661418,
                    "duration": 0.07499999999998863
                },
                {
                    "name": "A5",
                    "midi": 81,
                    "time": 131.10000000000056,
                    "velocity": 0.5354330708661418,
                    "duration": 0.07499999999998863
                },
                {
                    "name": "A#5",
                    "midi": 82,
                    "time": 131.25000000000054,
                    "velocity": 0.5354330708661418,
                    "duration": 0.07499999999998863
                },
                {
                    "name": "A5",
                    "midi": 81,
                    "time": 131.25000000000054,
                    "velocity": 0.5354330708661418,
                    "duration": 0.07499999999998863
                },
                {
                    "name": "E5",
                    "midi": 76,
                    "time": 131.70000000000053,
                    "velocity": 0.6692913385826772,
                    "duration": 0.15000000000000568
                },
                {
                    "name": "C#5",
                    "midi": 73,
                    "time": 131.70000000000053,
                    "velocity": 0.6692913385826772,
                    "duration": 0.30000000000001137
                },
                {
                    "name": "A#5",
                    "midi": 82,
                    "time": 131.85000000000053,
                    "velocity": 0.6299212598425197,
                    "duration": 0.15000000000000568
                },
                {
                    "name": "E5",
                    "midi": 76,
                    "time": 132.30000000000055,
                    "velocity": 0.6692913385826772,
                    "duration": 0.15000000000000568
                },
                {
                    "name": "D5",
                    "midi": 74,
                    "time": 132.30000000000055,
                    "velocity": 0.6692913385826772,
                    "duration": 0.30000000000001137
                },
                {
                    "name": "B5",
                    "midi": 83,
                    "time": 132.45000000000056,
                    "velocity": 0.6299212598425197,
                    "duration": 0.15000000000000568
                },
                {
                    "name": "E5",
                    "midi": 76,
                    "time": 132.60000000000056,
                    "velocity": 0.7007874015748031,
                    "duration": 0.30000000000001137
                },
                {
                    "name": "D5",
                    "midi": 74,
                    "time": 132.60000000000056,
                    "velocity": 0.7007874015748031,
                    "duration": 0.30000000000001137
                },
                {
                    "name": "A#5",
                    "midi": 82,
                    "time": 132.90000000000057,
                    "velocity": 0.5669291338582677,
                    "duration": 0.07499999999998863
                },
                {
                    "name": "G#5",
                    "midi": 80,
                    "time": 132.90000000000057,
                    "velocity": 0.5669291338582677,
                    "duration": 0.07499999999998863
                },
                {
                    "name": "A#5",
                    "midi": 82,
                    "time": 133.05000000000055,
                    "velocity": 0.5669291338582677,
                    "duration": 0.07499999999998863
                },
                {
                    "name": "G#5",
                    "midi": 80,
                    "time": 133.05000000000055,
                    "velocity": 0.5669291338582677,
                    "duration": 0.07499999999998863
                },
                {
                    "name": "E5",
                    "midi": 76,
                    "time": 133.50000000000054,
                    "velocity": 0.6692913385826772,
                    "duration": 0.15000000000000568
                },
                {
                    "name": "D5",
                    "midi": 74,
                    "time": 133.50000000000054,
                    "velocity": 0.6692913385826772,
                    "duration": 0.30000000000001137
                },
                {
                    "name": "B5",
                    "midi": 83,
                    "time": 133.65000000000055,
                    "velocity": 0.6299212598425197,
                    "duration": 0.15000000000000568
                },
                {
                    "name": "G5",
                    "midi": 79,
                    "time": 134.10000000000056,
                    "velocity": 0.6692913385826772,
                    "duration": 0.15000000000000568
                },
                {
                    "name": "E5",
                    "midi": 76,
                    "time": 134.10000000000056,
                    "velocity": 0.6692913385826772,
                    "duration": 0.30000000000001137
                },
                {
                    "name": "C#6",
                    "midi": 85,
                    "time": 134.25000000000057,
                    "velocity": 0.6299212598425197,
                    "duration": 0.15000000000000568
                },
                {
                    "name": "E5",
                    "midi": 76,
                    "time": 134.40000000000057,
                    "velocity": 0.7007874015748031,
                    "duration": 0.30000000000001137
                },
                {
                    "name": "D5",
                    "midi": 74,
                    "time": 134.40000000000057,
                    "velocity": 0.7007874015748031,
                    "duration": 0.30000000000001137
                },
                {
                    "name": "A#5",
                    "midi": 82,
                    "time": 134.70000000000059,
                    "velocity": 0.5748031496062992,
                    "duration": 0.07499999999998863
                },
                {
                    "name": "G#5",
                    "midi": 80,
                    "time": 134.70000000000059,
                    "velocity": 0.5748031496062992,
                    "duration": 0.07499999999998863
                },
                {
                    "name": "A#5",
                    "midi": 82,
                    "time": 134.85000000000056,
                    "velocity": 0.5748031496062992,
                    "duration": 0.07499999999998863
                },
                {
                    "name": "G#5",
                    "midi": 80,
                    "time": 134.85000000000056,
                    "velocity": 0.5748031496062992,
                    "duration": 0.07499999999998863
                },
                {
                    "name": "G5",
                    "midi": 79,
                    "time": 135.30000000000055,
                    "velocity": 0.6692913385826772,
                    "duration": 0.15000000000000568
                },
                {
                    "name": "E5",
                    "midi": 76,
                    "time": 135.30000000000055,
                    "velocity": 0.6692913385826772,
                    "duration": 0.30000000000001137
                },
                {
                    "name": "C#6",
                    "midi": 85,
                    "time": 135.45000000000056,
                    "velocity": 0.6299212598425197,
                    "duration": 0.15000000000000568
                },
                {
                    "name": "G5",
                    "midi": 79,
                    "time": 135.90000000000057,
                    "velocity": 0.6692913385826772,
                    "duration": 0.15000000000000568
                },
                {
                    "name": "E5",
                    "midi": 76,
                    "time": 135.90000000000057,
                    "velocity": 0.6692913385826772,
                    "duration": 0.30000000000001137
                },
                {
                    "name": "C#6",
                    "midi": 85,
                    "time": 136.05000000000058,
                    "velocity": 0.6299212598425197,
                    "duration": 0.15000000000000568
                },
                {
                    "name": "G5",
                    "midi": 79,
                    "time": 136.5000000000006,
                    "velocity": 0.6692913385826772,
                    "duration": 0.15000000000000568
                },
                {
                    "name": "E5",
                    "midi": 76,
                    "time": 136.5000000000006,
                    "velocity": 0.6692913385826772,
                    "duration": 0.30000000000001137
                },
                {
                    "name": "C#6",
                    "midi": 85,
                    "time": 136.6500000000006,
                    "velocity": 0.6299212598425197,
                    "duration": 0.15000000000000568
                },
                {
                    "name": "A5",
                    "midi": 81,
                    "time": 137.10000000000062,
                    "velocity": 0.6692913385826772,
                    "duration": 0.15000000000000568
                },
                {
                    "name": "G5",
                    "midi": 79,
                    "time": 137.10000000000062,
                    "velocity": 0.6692913385826772,
                    "duration": 0.30000000000001137
                },
                {
                    "name": "E6",
                    "midi": 88,
                    "time": 137.25000000000063,
                    "velocity": 0.5984251968503937,
                    "duration": 0.15000000000000568
                },
                {
                    "name": "A5",
                    "midi": 81,
                    "time": 137.40000000000063,
                    "velocity": 0.7007874015748031,
                    "duration": 0.15000000000000568
                },
                {
                    "name": "G5",
                    "midi": 79,
                    "time": 137.40000000000063,
                    "velocity": 0.7007874015748031,
                    "duration": 0.30000000000001137
                },
                {
                    "name": "E6",
                    "midi": 88,
                    "time": 137.55000000000064,
                    "velocity": 0.6377952755905512,
                    "duration": 0.15000000000000568
                },
                {
                    "name": "A5",
                    "midi": 81,
                    "time": 137.70000000000064,
                    "velocity": 0.7322834645669292,
                    "duration": 0.15000000000000568
                },
                {
                    "name": "G5",
                    "midi": 79,
                    "time": 137.70000000000064,
                    "velocity": 0.7322834645669292,
                    "duration": 0.30000000000001137
                },
                {
                    "name": "E6",
                    "midi": 88,
                    "time": 137.85000000000065,
                    "velocity": 0.6299212598425197,
                    "duration": 0.15000000000000568
                },
                {
                    "name": "D5",
                    "midi": 74,
                    "time": 138.00000000000065,
                    "velocity": 0.7401574803149606,
                    "duration": 0.07499999999998863
                },
                {
                    "name": "D5",
                    "midi": 74,
                    "time": 138.15000000000063,
                    "velocity": 0.6771653543307087,
                    "duration": 0.07499999999998863
                },
                {
                    "name": "D5",
                    "midi": 74,
                    "time": 138.3000000000006,
                    "velocity": 0.7401574803149606,
                    "duration": 0.07499999999998863
                },
                {
                    "name": "D5",
                    "midi": 74,
                    "time": 138.45000000000059,
                    "velocity": 0.6692913385826772,
                    "duration": 0.07499999999998863
                },
                {
                    "name": "D5",
                    "midi": 74,
                    "time": 138.60000000000056,
                    "velocity": 0.7401574803149606,
                    "duration": 0.07499999999998863
                },
                {
                    "name": "D#5",
                    "midi": 75,
                    "time": 138.75000000000054,
                    "velocity": 0.6929133858267716,
                    "duration": 0.07499999999998863
                },
                {
                    "name": "D5",
                    "midi": 74,
                    "time": 138.90000000000052,
                    "velocity": 0.7401574803149606,
                    "duration": 0.07499999999998863
                },
                {
                    "name": "F5",
                    "midi": 77,
                    "time": 139.0500000000005,
                    "velocity": 0.6929133858267716,
                    "duration": 0.07499999999998863
                },
                {
                    "name": "D5",
                    "midi": 74,
                    "time": 139.20000000000047,
                    "velocity": 0.7401574803149606,
                    "duration": 0.07499999999998863
                },
                {
                    "name": "D5",
                    "midi": 74,
                    "time": 139.35000000000045,
                    "velocity": 0.6771653543307087,
                    "duration": 0.07499999999998863
                },
                {
                    "name": "D5",
                    "midi": 74,
                    "time": 139.50000000000043,
                    "velocity": 0.7401574803149606,
                    "duration": 0.07499999999998863
                },
                {
                    "name": "D5",
                    "midi": 74,
                    "time": 139.6500000000004,
                    "velocity": 0.6771653543307087,
                    "duration": 0.07499999999998863
                },
                {
                    "name": "D5",
                    "midi": 74,
                    "time": 139.80000000000038,
                    "velocity": 0.7401574803149606,
                    "duration": 0.07499999999998863
                },
                {
                    "name": "E5",
                    "midi": 76,
                    "time": 139.95000000000036,
                    "velocity": 0.6771653543307087,
                    "duration": 0.07499999999998863
                },
                {
                    "name": "D5",
                    "midi": 74,
                    "time": 140.10000000000034,
                    "velocity": 0.7401574803149606,
                    "duration": 0.07499999999998863
                },
                {
                    "name": "A5",
                    "midi": 81,
                    "time": 140.2500000000003,
                    "velocity": 0.6692913385826772,
                    "duration": 0.07499999999998863
                },
                {
                    "name": "D5",
                    "midi": 74,
                    "time": 140.4000000000003,
                    "velocity": 0.7244094488188977,
                    "duration": 0.07499999999998863
                },
                {
                    "name": "D5",
                    "midi": 74,
                    "time": 140.55000000000027,
                    "velocity": 0.6850393700787402,
                    "duration": 0.07499999999998863
                },
                {
                    "name": "D5",
                    "midi": 74,
                    "time": 140.70000000000024,
                    "velocity": 0.6771653543307087,
                    "duration": 0.07499999999998863
                },
                {
                    "name": "D5",
                    "midi": 74,
                    "time": 140.85000000000022,
                    "velocity": 0.6771653543307087,
                    "duration": 0.07499999999998863
                },
                {
                    "name": "D5",
                    "midi": 74,
                    "time": 141.0000000000002,
                    "velocity": 0.7244094488188977,
                    "duration": 0.11250000000001137
                },
                {
                    "name": "D5",
                    "midi": 74,
                    "time": 141.1500000000002,
                    "velocity": 0.7244094488188977,
                    "duration": 0.11250000000001137
                },
                {
                    "name": "D5",
                    "midi": 74,
                    "time": 141.3000000000002,
                    "velocity": 0.7165354330708661,
                    "duration": 0.11250000000001137
                },
                {
                    "name": "D5",
                    "midi": 74,
                    "time": 141.45000000000022,
                    "velocity": 0.7165354330708661,
                    "duration": 0.11250000000001137
                },
                {
                    "name": "D5",
                    "midi": 74,
                    "time": 141.60000000000022,
                    "velocity": 0.7086614173228346,
                    "duration": 0.11250000000001137
                },
                {
                    "name": "D5",
                    "midi": 74,
                    "time": 141.75000000000023,
                    "velocity": 0.7086614173228346,
                    "duration": 0.11250000000001137
                },
                {
                    "name": "D5",
                    "midi": 74,
                    "time": 141.90000000000023,
                    "velocity": 0.7007874015748031,
                    "duration": 0.11250000000001137
                },
                {
                    "name": "D5",
                    "midi": 74,
                    "time": 142.05000000000024,
                    "velocity": 0.6929133858267716,
                    "duration": 0.11250000000001137
                },
                {
                    "name": "D5",
                    "midi": 74,
                    "time": 142.20000000000024,
                    "velocity": 0.6929133858267716,
                    "duration": 0.11250000000001137
                },
                {
                    "name": "D5",
                    "midi": 74,
                    "time": 142.35000000000025,
                    "velocity": 0.6850393700787402,
                    "duration": 0.11250000000001137
                },
                {
                    "name": "D5",
                    "midi": 74,
                    "time": 142.50000000000026,
                    "velocity": 0.6850393700787402,
                    "duration": 0.11250000000001137
                },
                {
                    "name": "D5",
                    "midi": 74,
                    "time": 142.65000000000026,
                    "velocity": 0.6771653543307087,
                    "duration": 0.11250000000001137
                },
                {
                    "name": "A#4",
                    "midi": 70,
                    "time": 142.80000000000027,
                    "velocity": 0.6692913385826772,
                    "duration": 0.07499999999998863
                },
                {
                    "name": "A4",
                    "midi": 69,
                    "time": 142.95000000000024,
                    "velocity": 0.5826771653543307,
                    "duration": 0.07499999999998863
                },
                {
                    "name": "C5",
                    "midi": 72,
                    "time": 143.10000000000022,
                    "velocity": 0.5984251968503937,
                    "duration": 0.07499999999998863
                },
                {
                    "name": "A#4",
                    "midi": 70,
                    "time": 143.2500000000002,
                    "velocity": 0.5511811023622047,
                    "duration": 0.07499999999998863
                },
                {
                    "name": "D#5",
                    "midi": 75,
                    "time": 143.40000000000018,
                    "velocity": 0.6299212598425197,
                    "duration": 0.07499999999998863
                },
                {
                    "name": "D5",
                    "midi": 74,
                    "time": 143.55000000000015,
                    "velocity": 0.5826771653543307,
                    "duration": 0.07499999999998863
                },
                {
                    "name": "F5",
                    "midi": 77,
                    "time": 143.70000000000013,
                    "velocity": 0.5984251968503937,
                    "duration": 0.07499999999998863
                },
                {
                    "name": "D#5",
                    "midi": 75,
                    "time": 143.8500000000001,
                    "velocity": 0.5669291338582677,
                    "duration": 0.07499999999998863
                },
                {
                    "name": "F#5",
                    "midi": 78,
                    "time": 144.00000000000009,
                    "velocity": 0.6141732283464567,
                    "duration": 0.07499999999998863
                },
                {
                    "name": "G5",
                    "midi": 79,
                    "time": 144.15000000000006,
                    "velocity": 0.5905511811023622,
                    "duration": 0.07499999999998863
                },
                {
                    "name": "C6",
                    "midi": 84,
                    "time": 144.30000000000004,
                    "velocity": 0.7322834645669292,
                    "duration": 0.15000000000000568
                },
                {
                    "name": "A#5",
                    "midi": 82,
                    "time": 144.45000000000005,
                    "velocity": 0.6062992125984252,
                    "duration": 0.15000000000000568
                },
                {
                    "name": "G#5",
                    "midi": 80,
                    "time": 144.60000000000005,
                    "velocity": 0.6377952755905512,
                    "duration": 0.15000000000000568
                },
                {
                    "name": "G5",
                    "midi": 79,
                    "time": 144.75000000000006,
                    "velocity": 0.5826771653543307,
                    "duration": 0.15000000000000568
                },
                {
                    "name": "F5",
                    "midi": 77,
                    "time": 144.90000000000006,
                    "velocity": 0.6141732283464567,
                    "duration": 0.15000000000000568
                },
                {
                    "name": "D#5",
                    "midi": 75,
                    "time": 145.05000000000007,
                    "velocity": 0.5748031496062992,
                    "duration": 0.15000000000000568
                },
                {
                    "name": "B5",
                    "midi": 83,
                    "time": 145.20000000000007,
                    "velocity": 0.5748031496062992,
                    "duration": 0.07499999999998863
                },
                {
                    "name": "F5",
                    "midi": 77,
                    "time": 145.35000000000005,
                    "velocity": 0.5433070866141733,
                    "duration": 0.07499999999998863
                },
                {
                    "name": "A#5",
                    "midi": 82,
                    "time": 145.50000000000003,
                    "velocity": 0.7795275590551181,
                    "duration": 0.15000000000000568
                },
                {
                    "name": "G#5",
                    "midi": 80,
                    "time": 145.65000000000003,
                    "velocity": 0.6141732283464567,
                    "duration": 0.15000000000000568
                },
                {
                    "name": "B5",
                    "midi": 83,
                    "time": 145.80000000000004,
                    "velocity": 0.5826771653543307,
                    "duration": 0.07499999999998863
                },
                {
                    "name": "F5",
                    "midi": 77,
                    "time": 145.95000000000002,
                    "velocity": 0.5433070866141733,
                    "duration": 0.07499999999998863
                },
                {
                    "name": "A#5",
                    "midi": 82,
                    "time": 146.1,
                    "velocity": 0.7795275590551181,
                    "duration": 0.15000000000000568
                },
                {
                    "name": "G#5",
                    "midi": 80,
                    "time": 146.25,
                    "velocity": 0.5984251968503937,
                    "duration": 0.15000000000000568
                },
                {
                    "name": "B5",
                    "midi": 83,
                    "time": 146.4,
                    "velocity": 0.7716535433070866,
                    "duration": 0.07499999999998863
                },
                {
                    "name": "F5",
                    "midi": 77,
                    "time": 146.54999999999998,
                    "velocity": 0.5748031496062992,
                    "duration": 0.07499999999998863
                },
                {
                    "name": "A#5",
                    "midi": 82,
                    "time": 146.69999999999996,
                    "velocity": 0.7007874015748031,
                    "duration": 0.07499999999998863
                },
                {
                    "name": "F5",
                    "midi": 77,
                    "time": 146.84999999999994,
                    "velocity": 0.5590551181102362,
                    "duration": 0.07499999999998863
                },
                {
                    "name": "A5",
                    "midi": 81,
                    "time": 146.99999999999991,
                    "velocity": 0.6535433070866141,
                    "duration": 0.07499999999998863
                },
                {
                    "name": "D5",
                    "midi": 74,
                    "time": 147.1499999999999,
                    "velocity": 0.5433070866141733,
                    "duration": 0.07499999999998863
                },
                {
                    "name": "G#5",
                    "midi": 80,
                    "time": 147.29999999999987,
                    "velocity": 0.6456692913385826,
                    "duration": 0.07499999999998863
                },
                {
                    "name": "D5",
                    "midi": 74,
                    "time": 147.44999999999985,
                    "velocity": 0.5354330708661418,
                    "duration": 0.07499999999998863
                },
                {
                    "name": "A#4",
                    "midi": 70,
                    "time": 147.59999999999982,
                    "velocity": 0.6377952755905512,
                    "duration": 0.07499999999998863
                },
                {
                    "name": "A4",
                    "midi": 69,
                    "time": 147.7499999999998,
                    "velocity": 0.5826771653543307,
                    "duration": 0.07499999999998863
                },
                {
                    "name": "C5",
                    "midi": 72,
                    "time": 147.89999999999978,
                    "velocity": 0.5984251968503937,
                    "duration": 0.07499999999998863
                },
                {
                    "name": "A#4",
                    "midi": 70,
                    "time": 148.04999999999976,
                    "velocity": 0.5511811023622047,
                    "duration": 0.07499999999998863
                },
                {
                    "name": "D#5",
                    "midi": 75,
                    "time": 148.19999999999973,
                    "velocity": 0.6299212598425197,
                    "duration": 0.07499999999998863
                },
                {
                    "name": "D5",
                    "midi": 74,
                    "time": 148.3499999999997,
                    "velocity": 0.5826771653543307,
                    "duration": 0.07499999999998863
                },
                {
                    "name": "F5",
                    "midi": 77,
                    "time": 148.4999999999997,
                    "velocity": 0.5984251968503937,
                    "duration": 0.07499999999998863
                },
                {
                    "name": "D#5",
                    "midi": 75,
                    "time": 148.64999999999966,
                    "velocity": 0.5669291338582677,
                    "duration": 0.07499999999998863
                },
                {
                    "name": "F#5",
                    "midi": 78,
                    "time": 148.79999999999964,
                    "velocity": 0.6141732283464567,
                    "duration": 0.07499999999998863
                },
                {
                    "name": "G5",
                    "midi": 79,
                    "time": 148.94999999999962,
                    "velocity": 0.5905511811023622,
                    "duration": 0.07499999999998863
                },
                {
                    "name": "C6",
                    "midi": 84,
                    "time": 149.0999999999996,
                    "velocity": 0.7401574803149606,
                    "duration": 0.15000000000000568
                },
                {
                    "name": "A#5",
                    "midi": 82,
                    "time": 149.2499999999996,
                    "velocity": 0.6062992125984252,
                    "duration": 0.15000000000000568
                },
                {
                    "name": "G#5",
                    "midi": 80,
                    "time": 149.3999999999996,
                    "velocity": 0.6377952755905512,
                    "duration": 0.15000000000000568
                },
                {
                    "name": "G5",
                    "midi": 79,
                    "time": 149.5499999999996,
                    "velocity": 0.5826771653543307,
                    "duration": 0.15000000000000568
                },
                {
                    "name": "F5",
                    "midi": 77,
                    "time": 149.69999999999962,
                    "velocity": 0.6141732283464567,
                    "duration": 0.15000000000000568
                },
                {
                    "name": "D#5",
                    "midi": 75,
                    "time": 149.84999999999962,
                    "velocity": 0.5748031496062992,
                    "duration": 0.15000000000000568
                },
                {
                    "name": "F#6",
                    "midi": 90,
                    "time": 149.99999999999963,
                    "velocity": 0.6850393700787402,
                    "duration": 0.07499999999998863
                },
                {
                    "name": "D#6",
                    "midi": 87,
                    "time": 150.1499999999996,
                    "velocity": 0.5433070866141733,
                    "duration": 0.07499999999998863
                },
                {
                    "name": "C#6",
                    "midi": 85,
                    "time": 150.29999999999959,
                    "velocity": 0.5748031496062992,
                    "duration": 0.07499999999998863
                },
                {
                    "name": "B5",
                    "midi": 83,
                    "time": 150.44999999999956,
                    "velocity": 0.5433070866141733,
                    "duration": 0.07499999999998863
                },
                {
                    "name": "A#5",
                    "midi": 82,
                    "time": 150.59999999999954,
                    "velocity": 0.7559055118110236,
                    "duration": 0.15000000000000568
                },
                {
                    "name": "C#6",
                    "midi": 85,
                    "time": 150.74999999999955,
                    "velocity": 0.5511811023622047,
                    "duration": 0.15000000000000568
                },
                {
                    "name": "B5",
                    "midi": 83,
                    "time": 150.89999999999955,
                    "velocity": 0.6377952755905512,
                    "duration": 0.15000000000000568
                },
                {
                    "name": "G#5",
                    "midi": 80,
                    "time": 151.04999999999956,
                    "velocity": 0.5826771653543307,
                    "duration": 0.15000000000000568
                },
                {
                    "name": "F#5",
                    "midi": 78,
                    "time": 151.19999999999956,
                    "velocity": 0.6062992125984252,
                    "duration": 0.07499999999998863
                },
                {
                    "name": "D#5",
                    "midi": 75,
                    "time": 151.34999999999954,
                    "velocity": 0.5590551181102362,
                    "duration": 0.07499999999998863
                },
                {
                    "name": "C#5",
                    "midi": 73,
                    "time": 151.49999999999952,
                    "velocity": 0.7480314960629921,
                    "duration": 0.07499999999998863
                },
                {
                    "name": "B4",
                    "midi": 71,
                    "time": 151.6499999999995,
                    "velocity": 0.5984251968503937,
                    "duration": 0.07499999999998863
                },
                {
                    "name": "A#4",
                    "midi": 70,
                    "time": 151.79999999999947,
                    "velocity": 0.7716535433070866,
                    "duration": 0.15000000000000568
                },
                {
                    "name": "C#5",
                    "midi": 73,
                    "time": 151.94999999999948,
                    "velocity": 0.5590551181102362,
                    "duration": 0.15000000000000568
                },
                {
                    "name": "B4",
                    "midi": 71,
                    "time": 152.09999999999948,
                    "velocity": 0.5826771653543307,
                    "duration": 0.15000000000000568
                },
                {
                    "name": "G#4",
                    "midi": 68,
                    "time": 152.2499999999995,
                    "velocity": 0.5354330708661418,
                    "duration": 0.15000000000000568
                },
                {
                    "name": "F4",
                    "midi": 65,
                    "time": 152.3999999999995,
                    "velocity": 0.4881889763779528,
                    "duration": 0.11250000000001137
                },
                {
                    "name": "G#4",
                    "midi": 68,
                    "time": 152.3999999999995,
                    "velocity": 0.4881889763779528,
                    "duration": 0.11250000000001137
                },
                {
                    "name": "A#4",
                    "midi": 70,
                    "time": 152.3999999999995,
                    "velocity": 0.4881889763779528,
                    "duration": 0.6000000000000227
                },
                {
                    "name": "F4",
                    "midi": 65,
                    "time": 152.5499999999995,
                    "velocity": 0.5196850393700787,
                    "duration": 0.11250000000001137
                },
                {
                    "name": "G#4",
                    "midi": 68,
                    "time": 152.5499999999995,
                    "velocity": 0.5196850393700787,
                    "duration": 0.11250000000001137
                },
                {
                    "name": "F4",
                    "midi": 65,
                    "time": 152.6999999999995,
                    "velocity": 0.5433070866141733,
                    "duration": 0.11250000000001137
                },
                {
                    "name": "G#4",
                    "midi": 68,
                    "time": 152.6999999999995,
                    "velocity": 0.5433070866141733,
                    "duration": 0.11250000000001137
                },
                {
                    "name": "F4",
                    "midi": 65,
                    "time": 152.8499999999995,
                    "velocity": 0.5748031496062992,
                    "duration": 0.11250000000001137
                },
                {
                    "name": "G#4",
                    "midi": 68,
                    "time": 152.8499999999995,
                    "velocity": 0.5748031496062992,
                    "duration": 0.11250000000001137
                },
                {
                    "name": "A4",
                    "midi": 69,
                    "time": 152.99999999999952,
                    "velocity": 0.6929133858267716,
                    "duration": 0.6000000000000227
                },
                {
                    "name": "F#5",
                    "midi": 78,
                    "time": 153.14999999999952,
                    "velocity": 0.5354330708661418,
                    "duration": 0.15000000000000568
                },
                {
                    "name": "F5",
                    "midi": 77,
                    "time": 153.29999999999953,
                    "velocity": 0.5354330708661418,
                    "duration": 0.15000000000000568
                },
                {
                    "name": "D#5",
                    "midi": 75,
                    "time": 153.44999999999953,
                    "velocity": 0.5354330708661418,
                    "duration": 0.15000000000000568
                },
                {
                    "name": "F4",
                    "midi": 65,
                    "time": 153.59999999999954,
                    "velocity": 0.4881889763779528,
                    "duration": 0.11250000000001137
                },
                {
                    "name": "G#4",
                    "midi": 68,
                    "time": 153.59999999999954,
                    "velocity": 0.4881889763779528,
                    "duration": 0.11250000000001137
                },
                {
                    "name": "A#4",
                    "midi": 70,
                    "time": 153.59999999999954,
                    "velocity": 0.4881889763779528,
                    "duration": 0.6000000000000227
                },
                {
                    "name": "F4",
                    "midi": 65,
                    "time": 153.74999999999955,
                    "velocity": 0.5118110236220472,
                    "duration": 0.11250000000001137
                },
                {
                    "name": "G#4",
                    "midi": 68,
                    "time": 153.74999999999955,
                    "velocity": 0.5118110236220472,
                    "duration": 0.11250000000001137
                },
                {
                    "name": "F4",
                    "midi": 65,
                    "time": 153.89999999999955,
                    "velocity": 0.5354330708661418,
                    "duration": 0.11250000000001137
                },
                {
                    "name": "G#4",
                    "midi": 68,
                    "time": 153.89999999999955,
                    "velocity": 0.5354330708661418,
                    "duration": 0.11250000000001137
                },
                {
                    "name": "F4",
                    "midi": 65,
                    "time": 154.04999999999956,
                    "velocity": 0.49606299212598426,
                    "duration": 0.11250000000001137
                },
                {
                    "name": "G#4",
                    "midi": 68,
                    "time": 154.04999999999956,
                    "velocity": 0.49606299212598426,
                    "duration": 0.11250000000001137
                },
                {
                    "name": "A4",
                    "midi": 69,
                    "time": 154.19999999999956,
                    "velocity": 0.6929133858267716,
                    "duration": 0.6000000000000227
                },
                {
                    "name": "F#5",
                    "midi": 78,
                    "time": 154.34999999999957,
                    "velocity": 0.5511811023622047,
                    "duration": 0.15000000000000568
                },
                {
                    "name": "F5",
                    "midi": 77,
                    "time": 154.49999999999957,
                    "velocity": 0.5354330708661418,
                    "duration": 0.15000000000000568
                },
                {
                    "name": "D#5",
                    "midi": 75,
                    "time": 154.64999999999958,
                    "velocity": 0.5354330708661418,
                    "duration": 0.15000000000000568
                },
                {
                    "name": "G#4",
                    "midi": 68,
                    "time": 154.79999999999959,
                    "velocity": 0.5118110236220472,
                    "duration": 0.11250000000001137
                },
                {
                    "name": "B4",
                    "midi": 71,
                    "time": 154.79999999999959,
                    "velocity": 0.5118110236220472,
                    "duration": 0.11250000000001137
                },
                {
                    "name": "C#5",
                    "midi": 73,
                    "time": 154.79999999999959,
                    "velocity": 0.5118110236220472,
                    "duration": 0.6000000000000227
                },
                {
                    "name": "G#4",
                    "midi": 68,
                    "time": 154.9499999999996,
                    "velocity": 0.5354330708661418,
                    "duration": 0.11250000000001137
                },
                {
                    "name": "B4",
                    "midi": 71,
                    "time": 154.9499999999996,
                    "velocity": 0.5354330708661418,
                    "duration": 0.11250000000001137
                },
                {
                    "name": "G#4",
                    "midi": 68,
                    "time": 155.0999999999996,
                    "velocity": 0.5511811023622047,
                    "duration": 0.11250000000001137
                },
                {
                    "name": "B4",
                    "midi": 71,
                    "time": 155.0999999999996,
                    "velocity": 0.5511811023622047,
                    "duration": 0.11250000000001137
                },
                {
                    "name": "G#4",
                    "midi": 68,
                    "time": 155.2499999999996,
                    "velocity": 0.5748031496062992,
                    "duration": 0.11250000000001137
                },
                {
                    "name": "B4",
                    "midi": 71,
                    "time": 155.2499999999996,
                    "velocity": 0.5748031496062992,
                    "duration": 0.11250000000001137
                },
                {
                    "name": "C5",
                    "midi": 72,
                    "time": 155.3999999999996,
                    "velocity": 0.6692913385826772,
                    "duration": 0.6000000000000227
                },
                {
                    "name": "A5",
                    "midi": 81,
                    "time": 155.5499999999996,
                    "velocity": 0.5590551181102362,
                    "duration": 0.15000000000000568
                },
                {
                    "name": "G#5",
                    "midi": 80,
                    "time": 155.69999999999962,
                    "velocity": 0.6220472440944882,
                    "duration": 0.15000000000000568
                },
                {
                    "name": "F#5",
                    "midi": 78,
                    "time": 155.84999999999962,
                    "velocity": 0.5590551181102362,
                    "duration": 0.15000000000000568
                },
                {
                    "name": "A#4",
                    "midi": 70,
                    "time": 155.99999999999963,
                    "velocity": 0.5196850393700787,
                    "duration": 0.11250000000001137
                },
                {
                    "name": "D5",
                    "midi": 74,
                    "time": 155.99999999999963,
                    "velocity": 0.5196850393700787,
                    "duration": 0.11250000000001137
                },
                {
                    "name": "D#5",
                    "midi": 75,
                    "time": 155.99999999999963,
                    "velocity": 0.5196850393700787,
                    "duration": 0.6000000000000227
                },
                {
                    "name": "A#4",
                    "midi": 70,
                    "time": 156.14999999999964,
                    "velocity": 0.5354330708661418,
                    "duration": 0.11250000000001137
                },
                {
                    "name": "D5",
                    "midi": 74,
                    "time": 156.14999999999964,
                    "velocity": 0.5354330708661418,
                    "duration": 0.11250000000001137
                },
                {
                    "name": "A#4",
                    "midi": 70,
                    "time": 156.29999999999964,
                    "velocity": 0.5511811023622047,
                    "duration": 0.11250000000001137
                },
                {
                    "name": "D5",
                    "midi": 74,
                    "time": 156.29999999999964,
                    "velocity": 0.5511811023622047,
                    "duration": 0.11250000000001137
                },
                {
                    "name": "A#4",
                    "midi": 70,
                    "time": 156.44999999999965,
                    "velocity": 0.5669291338582677,
                    "duration": 0.11250000000001137
                },
                {
                    "name": "D5",
                    "midi": 74,
                    "time": 156.44999999999965,
                    "velocity": 0.5669291338582677,
                    "duration": 0.11250000000001137
                },
                {
                    "name": "D5",
                    "midi": 74,
                    "time": 156.59999999999965,
                    "velocity": 0.6929133858267716,
                    "duration": 0.6000000000000227
                },
                {
                    "name": "B5",
                    "midi": 83,
                    "time": 156.74999999999966,
                    "velocity": 0.5669291338582677,
                    "duration": 0.15000000000000568
                },
                {
                    "name": "A#5",
                    "midi": 82,
                    "time": 156.89999999999966,
                    "velocity": 0.6692913385826772,
                    "duration": 0.15000000000000568
                },
                {
                    "name": "G#5",
                    "midi": 80,
                    "time": 157.04999999999967,
                    "velocity": 0.5669291338582677,
                    "duration": 0.15000000000000568
                },
                {
                    "name": "G#4",
                    "midi": 68,
                    "time": 157.4999999999997,
                    "velocity": 0.5984251968503937,
                    "duration": 0.30000000000001137
                },
                {
                    "name": "B4",
                    "midi": 71,
                    "time": 157.4999999999997,
                    "velocity": 0.6535433070866141,
                    "duration": 0.30000000000001137
                },
                {
                    "name": "F5",
                    "midi": 77,
                    "time": 157.6499999999997,
                    "velocity": 0.6062992125984252,
                    "duration": 0.15000000000000568
                },
                {
                    "name": "G#4",
                    "midi": 68,
                    "time": 158.0999999999997,
                    "velocity": 0.5984251968503937,
                    "duration": 0.30000000000001137
                },
                {
                    "name": "B4",
                    "midi": 71,
                    "time": 158.0999999999997,
                    "velocity": 0.6535433070866141,
                    "duration": 0.30000000000001137
                },
                {
                    "name": "F5",
                    "midi": 77,
                    "time": 158.24999999999972,
                    "velocity": 0.6062992125984252,
                    "duration": 0.15000000000000568
                },
                {
                    "name": "E5",
                    "midi": 76,
                    "time": 158.39999999999972,
                    "velocity": 0.7007874015748031,
                    "duration": 0.30000000000001137
                },
                {
                    "name": "D5",
                    "midi": 74,
                    "time": 158.39999999999972,
                    "velocity": 0.7007874015748031,
                    "duration": 0.30000000000001137
                },
                {
                    "name": "A#5",
                    "midi": 82,
                    "time": 158.69999999999973,
                    "velocity": 0.5511811023622047,
                    "duration": 0.07499999999998863
                },
                {
                    "name": "G#5",
                    "midi": 80,
                    "time": 158.69999999999973,
                    "velocity": 0.5511811023622047,
                    "duration": 0.07499999999998863
                },
                {
                    "name": "A#5",
                    "midi": 82,
                    "time": 158.8499999999997,
                    "velocity": 0.5511811023622047,
                    "duration": 0.07499999999998863
                },
                {
                    "name": "G#5",
                    "midi": 80,
                    "time": 158.8499999999997,
                    "velocity": 0.5511811023622047,
                    "duration": 0.07499999999998863
                },
                {
                    "name": "E5",
                    "midi": 76,
                    "time": 158.9999999999997,
                    "velocity": 0.7007874015748031,
                    "duration": 0.30000000000001137
                },
                {
                    "name": "D5",
                    "midi": 74,
                    "time": 158.9999999999997,
                    "velocity": 0.7007874015748031,
                    "duration": 0.30000000000001137
                },
                {
                    "name": "A#5",
                    "midi": 82,
                    "time": 159.2999999999997,
                    "velocity": 0.5354330708661418,
                    "duration": 0.07499999999998863
                },
                {
                    "name": "G#5",
                    "midi": 80,
                    "time": 159.2999999999997,
                    "velocity": 0.5354330708661418,
                    "duration": 0.07499999999998863
                },
                {
                    "name": "A#5",
                    "midi": 82,
                    "time": 159.44999999999968,
                    "velocity": 0.5354330708661418,
                    "duration": 0.07499999999998863
                },
                {
                    "name": "G#5",
                    "midi": 80,
                    "time": 159.44999999999968,
                    "velocity": 0.5354330708661418,
                    "duration": 0.07499999999998863
                },
                {
                    "name": "A#4",
                    "midi": 70,
                    "time": 159.59999999999965,
                    "velocity": 0.6692913385826772,
                    "duration": 0.15000000000000568
                },
                {
                    "name": "A4",
                    "midi": 69,
                    "time": 159.74999999999966,
                    "velocity": 0.5826771653543307,
                    "duration": 0.15000000000000568
                },
                {
                    "name": "C5",
                    "midi": 72,
                    "time": 159.89999999999966,
                    "velocity": 0.5984251968503937,
                    "duration": 0.15000000000000568
                },
                {
                    "name": "A#4",
                    "midi": 70,
                    "time": 160.04999999999967,
                    "velocity": 0.5511811023622047,
                    "duration": 0.15000000000000568
                },
                {
                    "name": "D#5",
                    "midi": 75,
                    "time": 160.19999999999968,
                    "velocity": 0.6299212598425197,
                    "duration": 0.15000000000000568
                },
                {
                    "name": "D5",
                    "midi": 74,
                    "time": 160.34999999999968,
                    "velocity": 0.5826771653543307,
                    "duration": 0.15000000000000568
                },
                {
                    "name": "F5",
                    "midi": 77,
                    "time": 160.4999999999997,
                    "velocity": 0.5984251968503937,
                    "duration": 0.15000000000000568
                },
                {
                    "name": "D#5",
                    "midi": 75,
                    "time": 160.6499999999997,
                    "velocity": 0.5669291338582677,
                    "duration": 0.15000000000000568
                },
                {
                    "name": "E5",
                    "midi": 76,
                    "time": 160.7999999999997,
                    "velocity": 0.7007874015748031,
                    "duration": 0.30000000000001137
                },
                {
                    "name": "D5",
                    "midi": 74,
                    "time": 160.7999999999997,
                    "velocity": 0.7007874015748031,
                    "duration": 0.30000000000001137
                },
                {
                    "name": "A#5",
                    "midi": 82,
                    "time": 161.0999999999997,
                    "velocity": 0.5354330708661418,
                    "duration": 0.07499999999998863
                },
                {
                    "name": "G#5",
                    "midi": 80,
                    "time": 161.0999999999997,
                    "velocity": 0.5354330708661418,
                    "duration": 0.07499999999998863
                },
                {
                    "name": "A#5",
                    "midi": 82,
                    "time": 161.2499999999997,
                    "velocity": 0.5354330708661418,
                    "duration": 0.07499999999998863
                },
                {
                    "name": "G#5",
                    "midi": 80,
                    "time": 161.2499999999997,
                    "velocity": 0.5354330708661418,
                    "duration": 0.07499999999998863
                },
                {
                    "name": "B4",
                    "midi": 71,
                    "time": 161.69999999999968,
                    "velocity": 0.5826771653543307,
                    "duration": 0.15000000000000568
                },
                {
                    "name": "G#4",
                    "midi": 68,
                    "time": 161.69999999999968,
                    "velocity": 0.5826771653543307,
                    "duration": 0.30000000000001137
                },
                {
                    "name": "F5",
                    "midi": 77,
                    "time": 161.84999999999968,
                    "velocity": 0.6062992125984252,
                    "duration": 0.15000000000000568
                },
                {
                    "name": "F#5",
                    "midi": 78,
                    "time": 161.9999999999997,
                    "velocity": 0.6141732283464567,
                    "duration": 0.07499999999998863
                },
                {
                    "name": "G5",
                    "midi": 79,
                    "time": 162.14999999999966,
                    "velocity": 0.5905511811023622,
                    "duration": 0.07499999999998863
                },
                {
                    "name": "C6",
                    "midi": 84,
                    "time": 162.29999999999964,
                    "velocity": 0.6771653543307087,
                    "duration": 0.15000000000000568
                },
                {
                    "name": "A#5",
                    "midi": 82,
                    "time": 162.44999999999965,
                    "velocity": 0.6062992125984252,
                    "duration": 0.15000000000000568
                },
                {
                    "name": "G#5",
                    "midi": 80,
                    "time": 162.59999999999965,
                    "velocity": 0.6377952755905512,
                    "duration": 0.15000000000000568
                },
                {
                    "name": "G5",
                    "midi": 79,
                    "time": 162.74999999999966,
                    "velocity": 0.5826771653543307,
                    "duration": 0.15000000000000568
                },
                {
                    "name": "F5",
                    "midi": 77,
                    "time": 162.89999999999966,
                    "velocity": 0.6141732283464567,
                    "duration": 0.15000000000000568
                },
                {
                    "name": "D#5",
                    "midi": 75,
                    "time": 163.04999999999967,
                    "velocity": 0.5748031496062992,
                    "duration": 0.15000000000000568
                },
                {
                    "name": "E5",
                    "midi": 76,
                    "time": 163.19999999999968,
                    "velocity": 0.7007874015748031,
                    "duration": 0.30000000000001137
                },
                {
                    "name": "D5",
                    "midi": 74,
                    "time": 163.19999999999968,
                    "velocity": 0.7007874015748031,
                    "duration": 0.30000000000001137
                },
                {
                    "name": "A#5",
                    "midi": 82,
                    "time": 163.4999999999997,
                    "velocity": 0.5354330708661418,
                    "duration": 0.07499999999998863
                },
                {
                    "name": "G#5",
                    "midi": 80,
                    "time": 163.4999999999997,
                    "velocity": 0.5354330708661418,
                    "duration": 0.07499999999998863
                },
                {
                    "name": "A#5",
                    "midi": 82,
                    "time": 163.64999999999966,
                    "velocity": 0.5354330708661418,
                    "duration": 0.07499999999998863
                },
                {
                    "name": "G#5",
                    "midi": 80,
                    "time": 163.64999999999966,
                    "velocity": 0.5354330708661418,
                    "duration": 0.07499999999998863
                },
                {
                    "name": "B4",
                    "midi": 71,
                    "time": 164.09999999999965,
                    "velocity": 0.5984251968503937,
                    "duration": 0.15000000000000568
                },
                {
                    "name": "G#4",
                    "midi": 68,
                    "time": 164.09999999999965,
                    "velocity": 0.5984251968503937,
                    "duration": 0.30000000000001137
                },
                {
                    "name": "F5",
                    "midi": 77,
                    "time": 164.24999999999966,
                    "velocity": 0.6299212598425197,
                    "duration": 0.15000000000000568
                },
                {
                    "name": "F5",
                    "midi": 77,
                    "time": 164.69999999999968,
                    "velocity": 0.7007874015748031,
                    "duration": 0.30000000000001137
                },
                {
                    "name": "F6",
                    "midi": 89,
                    "time": 164.69999999999968,
                    "velocity": 0.7007874015748031,
                    "duration": 0.15000000000000568
                },
                {
                    "name": "A#5",
                    "midi": 82,
                    "time": 164.84999999999968,
                    "velocity": 0.5826771653543307,
                    "duration": 0.15000000000000568
                },
                {
                    "name": "F5",
                    "midi": 77,
                    "time": 165.2999999999997,
                    "velocity": 0.7007874015748031,
                    "duration": 0.30000000000001137
                },
                {
                    "name": "F6",
                    "midi": 89,
                    "time": 165.2999999999997,
                    "velocity": 0.7007874015748031,
                    "duration": 0.15000000000000568
                },
                {
                    "name": "A#5",
                    "midi": 82,
                    "time": 165.4499999999997,
                    "velocity": 0.5826771653543307,
                    "duration": 0.15000000000000568
                },
                {
                    "name": "F5",
                    "midi": 77,
                    "time": 165.89999999999972,
                    "velocity": 0.7165354330708661,
                    "duration": 0.30000000000001137
                },
                {
                    "name": "F6",
                    "midi": 89,
                    "time": 165.89999999999972,
                    "velocity": 0.7165354330708661,
                    "duration": 0.15000000000000568
                },
                {
                    "name": "A#5",
                    "midi": 82,
                    "time": 166.04999999999973,
                    "velocity": 0.5748031496062992,
                    "duration": 0.15000000000000568
                },
                {
                    "name": "G4",
                    "midi": 67,
                    "time": 166.87499999999974,
                    "velocity": 0.4409448818897638,
                    "duration": 0.07499999999998863
                },
                {
                    "name": "A#4",
                    "midi": 70,
                    "time": 166.87499999999974,
                    "velocity": 0.49606299212598426,
                    "duration": 0.07499999999998863
                },
                {
                    "name": "D#4",
                    "midi": 63,
                    "time": 166.87499999999974,
                    "velocity": 0.4409448818897638,
                    "duration": 0.07499999999998863
                },
                {
                    "name": "A#4",
                    "midi": 70,
                    "time": 167.02499999999972,
                    "velocity": 0.5196850393700787,
                    "duration": 0.07499999999998863
                },
                {
                    "name": "G4",
                    "midi": 67,
                    "time": 167.02499999999972,
                    "velocity": 0.4645669291338583,
                    "duration": 0.07499999999998863
                },
                {
                    "name": "D#4",
                    "midi": 63,
                    "time": 167.02499999999972,
                    "velocity": 0.4645669291338583,
                    "duration": 0.07499999999998863
                },
                {
                    "name": "G4",
                    "midi": 67,
                    "time": 167.1749999999997,
                    "velocity": 0.4330708661417323,
                    "duration": 0.07499999999998863
                },
                {
                    "name": "A#4",
                    "midi": 70,
                    "time": 167.1749999999997,
                    "velocity": 0.4881889763779528,
                    "duration": 0.07499999999998863
                },
                {
                    "name": "C5",
                    "midi": 72,
                    "time": 167.32499999999968,
                    "velocity": 0.5511811023622047,
                    "duration": 0.07499999999998863
                },
                {
                    "name": "A#4",
                    "midi": 70,
                    "time": 167.32499999999968,
                    "velocity": 0.49606299212598426,
                    "duration": 0.07499999999998863
                },
                {
                    "name": "G4",
                    "midi": 67,
                    "time": 167.32499999999968,
                    "velocity": 0.49606299212598426,
                    "duration": 0.07499999999998863
                },
                {
                    "name": "G4",
                    "midi": 67,
                    "time": 167.47499999999965,
                    "velocity": 0.4409448818897638,
                    "duration": 0.07499999999998863
                },
                {
                    "name": "A#4",
                    "midi": 70,
                    "time": 167.47499999999965,
                    "velocity": 0.4409448818897638,
                    "duration": 0.07499999999998863
                },
                {
                    "name": "D#5",
                    "midi": 75,
                    "time": 167.47499999999965,
                    "velocity": 0.49606299212598426,
                    "duration": 0.07499999999998863
                },
                {
                    "name": "D#5",
                    "midi": 75,
                    "time": 167.62499999999963,
                    "velocity": 0.48031496062992124,
                    "duration": 0.07499999999998863
                },
                {
                    "name": "A#4",
                    "midi": 70,
                    "time": 167.62499999999963,
                    "velocity": 0.4251968503937008,
                    "duration": 0.07499999999998863
                },
                {
                    "name": "G4",
                    "midi": 67,
                    "time": 167.62499999999963,
                    "velocity": 0.4251968503937008,
                    "duration": 0.07499999999998863
                },
                {
                    "name": "D#5",
                    "midi": 75,
                    "time": 167.7749999999996,
                    "velocity": 0.5275590551181102,
                    "duration": 0.07499999999998863
                },
                {
                    "name": "A#4",
                    "midi": 70,
                    "time": 167.7749999999996,
                    "velocity": 0.47244094488188976,
                    "duration": 0.07499999999998863
                },
                {
                    "name": "D5",
                    "midi": 74,
                    "time": 167.7749999999996,
                    "velocity": 0.47244094488188976,
                    "duration": 0.07499999999998863
                },
                {
                    "name": "D#5",
                    "midi": 75,
                    "time": 167.92499999999959,
                    "velocity": 0.5354330708661418,
                    "duration": 0.07499999999998863
                },
                {
                    "name": "A#4",
                    "midi": 70,
                    "time": 167.92499999999959,
                    "velocity": 0.48031496062992124,
                    "duration": 0.07499999999998863
                },
                {
                    "name": "D5",
                    "midi": 74,
                    "time": 167.92499999999959,
                    "velocity": 0.5354330708661418,
                    "duration": 0.07499999999998863
                },
                {
                    "name": "D#5",
                    "midi": 75,
                    "time": 168.07499999999956,
                    "velocity": 0.49606299212598426,
                    "duration": 0.07499999999998863
                },
                {
                    "name": "C6",
                    "midi": 84,
                    "time": 168.07499999999956,
                    "velocity": 0.5511811023622047,
                    "duration": 0.07499999999998863
                },
                {
                    "name": "G#5",
                    "midi": 80,
                    "time": 168.07499999999956,
                    "velocity": 0.49606299212598426,
                    "duration": 0.07499999999998863
                },
                {
                    "name": "G#5",
                    "midi": 80,
                    "time": 168.22499999999954,
                    "velocity": 0.5039370078740157,
                    "duration": 0.07499999999998863
                },
                {
                    "name": "F5",
                    "midi": 77,
                    "time": 168.22499999999954,
                    "velocity": 0.44881889763779526,
                    "duration": 0.07499999999998863
                },
                {
                    "name": "D#5",
                    "midi": 75,
                    "time": 168.22499999999954,
                    "velocity": 0.44881889763779526,
                    "duration": 0.07499999999998863
                },
                {
                    "name": "F5",
                    "midi": 77,
                    "time": 168.37499999999952,
                    "velocity": 0.5039370078740157,
                    "duration": 0.07499999999998863
                },
                {
                    "name": "D#5",
                    "midi": 75,
                    "time": 168.37499999999952,
                    "velocity": 0.44881889763779526,
                    "duration": 0.07499999999998863
                },
                {
                    "name": "C5",
                    "midi": 72,
                    "time": 168.37499999999952,
                    "velocity": 0.44881889763779526,
                    "duration": 0.07499999999998863
                },
                {
                    "name": "G#4",
                    "midi": 68,
                    "time": 168.5249999999995,
                    "velocity": 0.48031496062992124,
                    "duration": 0.07499999999998863
                },
                {
                    "name": "C5",
                    "midi": 72,
                    "time": 168.5249999999995,
                    "velocity": 0.48031496062992124,
                    "duration": 0.07499999999998863
                },
                {
                    "name": "D#5",
                    "midi": 75,
                    "time": 168.5249999999995,
                    "velocity": 0.5354330708661418,
                    "duration": 0.07499999999998863
                },
                {
                    "name": "C5",
                    "midi": 72,
                    "time": 168.67499999999947,
                    "velocity": 0.5511811023622047,
                    "duration": 0.07499999999998863
                },
                {
                    "name": "A#4",
                    "midi": 70,
                    "time": 168.67499999999947,
                    "velocity": 0.49606299212598426,
                    "duration": 0.07499999999998863
                },
                {
                    "name": "G4",
                    "midi": 67,
                    "time": 168.67499999999947,
                    "velocity": 0.49606299212598426,
                    "duration": 0.07499999999998863
                },
                {
                    "name": "D5",
                    "midi": 74,
                    "time": 168.82499999999945,
                    "velocity": 0.5039370078740157,
                    "duration": 0.07499999999998863
                },
                {
                    "name": "A#4",
                    "midi": 70,
                    "time": 168.82499999999945,
                    "velocity": 0.44881889763779526,
                    "duration": 0.07499999999998863
                },
                {
                    "name": "G4",
                    "midi": 67,
                    "time": 168.82499999999945,
                    "velocity": 0.44881889763779526,
                    "duration": 0.07499999999998863
                },
                {
                    "name": "D#5",
                    "midi": 75,
                    "time": 168.97499999999943,
                    "velocity": 0.5354330708661418,
                    "duration": 0.07499999999998863
                },
                {
                    "name": "A#4",
                    "midi": 70,
                    "time": 168.97499999999943,
                    "velocity": 0.48031496062992124,
                    "duration": 0.07499999999998863
                },
                {
                    "name": "G4",
                    "midi": 67,
                    "time": 168.97499999999943,
                    "velocity": 0.48031496062992124,
                    "duration": 0.07499999999998863
                },
                {
                    "name": "G5",
                    "midi": 79,
                    "time": 169.1249999999994,
                    "velocity": 0.5433070866141733,
                    "duration": 0.07499999999998863
                },
                {
                    "name": "A#4",
                    "midi": 70,
                    "time": 169.1249999999994,
                    "velocity": 0.4881889763779528,
                    "duration": 0.07499999999998863
                },
                {
                    "name": "G4",
                    "midi": 67,
                    "time": 169.1249999999994,
                    "velocity": 0.4881889763779528,
                    "duration": 0.07499999999998863
                },
                {
                    "name": "A#4",
                    "midi": 70,
                    "time": 169.27499999999938,
                    "velocity": 0.49606299212598426,
                    "duration": 0.07499999999998863
                },
                {
                    "name": "G4",
                    "midi": 67,
                    "time": 169.27499999999938,
                    "velocity": 0.4409448818897638,
                    "duration": 0.07499999999998863
                },
                {
                    "name": "D#4",
                    "midi": 63,
                    "time": 169.27499999999938,
                    "velocity": 0.4409448818897638,
                    "duration": 0.07499999999998863
                },
                {
                    "name": "G4",
                    "midi": 67,
                    "time": 169.42499999999936,
                    "velocity": 0.4330708661417323,
                    "duration": 0.07499999999998863
                },
                {
                    "name": "A#4",
                    "midi": 70,
                    "time": 169.42499999999936,
                    "velocity": 0.4881889763779528,
                    "duration": 0.07499999999998863
                },
                {
                    "name": "D#4",
                    "midi": 63,
                    "time": 169.42499999999936,
                    "velocity": 0.4330708661417323,
                    "duration": 0.07499999999998863
                },
                {
                    "name": "G4",
                    "midi": 67,
                    "time": 169.57499999999933,
                    "velocity": 0.48031496062992124,
                    "duration": 0.07499999999998863
                },
                {
                    "name": "A#4",
                    "midi": 70,
                    "time": 169.57499999999933,
                    "velocity": 0.5354330708661418,
                    "duration": 0.07499999999998863
                },
                {
                    "name": "C5",
                    "midi": 72,
                    "time": 169.7249999999993,
                    "velocity": 0.5196850393700787,
                    "duration": 0.07499999999998863
                },
                {
                    "name": "A#4",
                    "midi": 70,
                    "time": 169.7249999999993,
                    "velocity": 0.4645669291338583,
                    "duration": 0.07499999999998863
                },
                {
                    "name": "G4",
                    "midi": 67,
                    "time": 169.7249999999993,
                    "velocity": 0.4645669291338583,
                    "duration": 0.07499999999998863
                },
                {
                    "name": "G4",
                    "midi": 67,
                    "time": 169.8749999999993,
                    "velocity": 0.4409448818897638,
                    "duration": 0.07499999999998863
                },
                {
                    "name": "A#4",
                    "midi": 70,
                    "time": 169.8749999999993,
                    "velocity": 0.4409448818897638,
                    "duration": 0.07499999999998863
                },
                {
                    "name": "D#5",
                    "midi": 75,
                    "time": 169.8749999999993,
                    "velocity": 0.49606299212598426,
                    "duration": 0.07499999999998863
                },
                {
                    "name": "D#5",
                    "midi": 75,
                    "time": 170.02499999999927,
                    "velocity": 0.4881889763779528,
                    "duration": 0.07499999999998863
                },
                {
                    "name": "A#4",
                    "midi": 70,
                    "time": 170.02499999999927,
                    "velocity": 0.4330708661417323,
                    "duration": 0.07499999999998863
                },
                {
                    "name": "G4",
                    "midi": 67,
                    "time": 170.02499999999927,
                    "velocity": 0.4330708661417323,
                    "duration": 0.07499999999998863
                },
                {
                    "name": "A#4",
                    "midi": 70,
                    "time": 170.17499999999924,
                    "velocity": 0.47244094488188976,
                    "duration": 0.07499999999998863
                },
                {
                    "name": "D5",
                    "midi": 74,
                    "time": 170.17499999999924,
                    "velocity": 0.47244094488188976,
                    "duration": 0.07499999999998863
                },
                {
                    "name": "D#5",
                    "midi": 75,
                    "time": 170.17499999999924,
                    "velocity": 0.5275590551181102,
                    "duration": 0.07499999999998863
                },
                {
                    "name": "D#5",
                    "midi": 75,
                    "time": 170.32499999999922,
                    "velocity": 0.5039370078740157,
                    "duration": 0.07499999999998863
                },
                {
                    "name": "A#4",
                    "midi": 70,
                    "time": 170.32499999999922,
                    "velocity": 0.44881889763779526,
                    "duration": 0.07499999999998863
                },
                {
                    "name": "D5",
                    "midi": 74,
                    "time": 170.32499999999922,
                    "velocity": 0.44881889763779526,
                    "duration": 0.07499999999998863
                },
                {
                    "name": "D#5",
                    "midi": 75,
                    "time": 170.4749999999992,
                    "velocity": 0.44881889763779526,
                    "duration": 0.07499999999998863
                },
                {
                    "name": "C6",
                    "midi": 84,
                    "time": 170.4749999999992,
                    "velocity": 0.5039370078740157,
                    "duration": 0.07499999999998863
                },
                {
                    "name": "G#5",
                    "midi": 80,
                    "time": 170.4749999999992,
                    "velocity": 0.44881889763779526,
                    "duration": 0.07499999999998863
                },
                {
                    "name": "D#5",
                    "midi": 75,
                    "time": 170.62499999999918,
                    "velocity": 0.49606299212598426,
                    "duration": 0.07499999999998863
                },
                {
                    "name": "G#5",
                    "midi": 80,
                    "time": 170.62499999999918,
                    "velocity": 0.5590551181102362,
                    "duration": 0.07499999999998863
                },
                {
                    "name": "F5",
                    "midi": 77,
                    "time": 170.62499999999918,
                    "velocity": 0.49606299212598426,
                    "duration": 0.07499999999998863
                },
                {
                    "name": "F5",
                    "midi": 77,
                    "time": 170.77499999999915,
                    "velocity": 0.5511811023622047,
                    "duration": 0.07499999999998863
                },
                {
                    "name": "D#5",
                    "midi": 75,
                    "time": 170.77499999999915,
                    "velocity": 0.49606299212598426,
                    "duration": 0.07499999999998863
                },
                {
                    "name": "C5",
                    "midi": 72,
                    "time": 170.77499999999915,
                    "velocity": 0.49606299212598426,
                    "duration": 0.07499999999998863
                },
                {
                    "name": "G#4",
                    "midi": 68,
                    "time": 170.92499999999913,
                    "velocity": 0.4881889763779528,
                    "duration": 0.07499999999998863
                },
                {
                    "name": "C5",
                    "midi": 72,
                    "time": 170.92499999999913,
                    "velocity": 0.4881889763779528,
                    "duration": 0.07499999999998863
                },
                {
                    "name": "D#5",
                    "midi": 75,
                    "time": 170.92499999999913,
                    "velocity": 0.5433070866141733,
                    "duration": 0.07499999999998863
                },
                {
                    "name": "C5",
                    "midi": 72,
                    "time": 171.0749999999991,
                    "velocity": 0.5354330708661418,
                    "duration": 0.07499999999998863
                },
                {
                    "name": "A#4",
                    "midi": 70,
                    "time": 171.0749999999991,
                    "velocity": 0.48031496062992124,
                    "duration": 0.07499999999998863
                },
                {
                    "name": "G4",
                    "midi": 67,
                    "time": 171.0749999999991,
                    "velocity": 0.48031496062992124,
                    "duration": 0.07499999999998863
                },
                {
                    "name": "D5",
                    "midi": 74,
                    "time": 171.22499999999908,
                    "velocity": 0.5275590551181102,
                    "duration": 0.07499999999998863
                },
                {
                    "name": "A#4",
                    "midi": 70,
                    "time": 171.22499999999908,
                    "velocity": 0.47244094488188976,
                    "duration": 0.07499999999998863
                },
                {
                    "name": "G4",
                    "midi": 67,
                    "time": 171.22499999999908,
                    "velocity": 0.47244094488188976,
                    "duration": 0.07499999999998863
                },
                {
                    "name": "D#5",
                    "midi": 75,
                    "time": 171.37499999999906,
                    "velocity": 0.5196850393700787,
                    "duration": 0.07499999999998863
                },
                {
                    "name": "A#4",
                    "midi": 70,
                    "time": 171.37499999999906,
                    "velocity": 0.4645669291338583,
                    "duration": 0.07499999999998863
                },
                {
                    "name": "G4",
                    "midi": 67,
                    "time": 171.37499999999906,
                    "velocity": 0.4645669291338583,
                    "duration": 0.07499999999998863
                },
                {
                    "name": "G5",
                    "midi": 79,
                    "time": 171.52499999999904,
                    "velocity": 0.5433070866141733,
                    "duration": 0.07499999999998863
                },
                {
                    "name": "A#4",
                    "midi": 70,
                    "time": 171.52499999999904,
                    "velocity": 0.4881889763779528,
                    "duration": 0.07499999999998863
                },
                {
                    "name": "G4",
                    "midi": 67,
                    "time": 171.52499999999904,
                    "velocity": 0.4881889763779528,
                    "duration": 0.07499999999998863
                },
                {
                    "name": "A#4",
                    "midi": 70,
                    "time": 171.67499999999902,
                    "velocity": 0.4645669291338583,
                    "duration": 0.07499999999998863
                },
                {
                    "name": "G5",
                    "midi": 79,
                    "time": 171.67499999999902,
                    "velocity": 0.5196850393700787,
                    "duration": 0.07499999999998863
                },
                {
                    "name": "D#5",
                    "midi": 75,
                    "time": 171.67499999999902,
                    "velocity": 0.4645669291338583,
                    "duration": 0.07499999999998863
                },
                {
                    "name": "F#4",
                    "midi": 66,
                    "time": 171.824999999999,
                    "velocity": 0.4330708661417323,
                    "duration": 0.07499999999998863
                },
                {
                    "name": "A#4",
                    "midi": 70,
                    "time": 171.824999999999,
                    "velocity": 0.4330708661417323,
                    "duration": 0.07499999999998863
                },
                {
                    "name": "D5",
                    "midi": 74,
                    "time": 171.824999999999,
                    "velocity": 0.4881889763779528,
                    "duration": 0.07499999999998863
                },
                {
                    "name": "A#4",
                    "midi": 70,
                    "time": 171.97499999999897,
                    "velocity": 0.4409448818897638,
                    "duration": 0.07499999999998863
                },
                {
                    "name": "G4",
                    "midi": 67,
                    "time": 171.97499999999897,
                    "velocity": 0.4409448818897638,
                    "duration": 0.07499999999998863
                },
                {
                    "name": "D#5",
                    "midi": 75,
                    "time": 171.97499999999897,
                    "velocity": 0.49606299212598426,
                    "duration": 0.07499999999998863
                },
                {
                    "name": "D#4",
                    "midi": 63,
                    "time": 172.12499999999895,
                    "velocity": 0.4251968503937008,
                    "duration": 0.07499999999998863
                },
                {
                    "name": "G4",
                    "midi": 67,
                    "time": 172.12499999999895,
                    "velocity": 0.4251968503937008,
                    "duration": 0.07499999999998863
                },
                {
                    "name": "B4",
                    "midi": 71,
                    "time": 172.12499999999895,
                    "velocity": 0.47244094488188976,
                    "duration": 0.07499999999998863
                },
                {
                    "name": "D#4",
                    "midi": 63,
                    "time": 172.27499999999893,
                    "velocity": 0.4409448818897638,
                    "duration": 0.07499999999998863
                },
                {
                    "name": "G4",
                    "midi": 67,
                    "time": 172.27499999999893,
                    "velocity": 0.4409448818897638,
                    "duration": 0.07499999999998863
                },
                {
                    "name": "C5",
                    "midi": 72,
                    "time": 172.27499999999893,
                    "velocity": 0.49606299212598426,
                    "duration": 0.07499999999998863
                },
                {
                    "name": "C#5",
                    "midi": 73,
                    "time": 172.4249999999989,
                    "velocity": 0.48031496062992124,
                    "duration": 0.07499999999998863
                },
                {
                    "name": "G4",
                    "midi": 67,
                    "time": 172.4249999999989,
                    "velocity": 0.4251968503937008,
                    "duration": 0.07499999999998863
                },
                {
                    "name": "D#4",
                    "midi": 63,
                    "time": 172.4249999999989,
                    "velocity": 0.4251968503937008,
                    "duration": 0.07499999999998863
                },
                {
                    "name": "D5",
                    "midi": 74,
                    "time": 172.57499999999888,
                    "velocity": 0.49606299212598426,
                    "duration": 0.07499999999998863
                },
                {
                    "name": "A#4",
                    "midi": 70,
                    "time": 172.57499999999888,
                    "velocity": 0.4409448818897638,
                    "duration": 0.07499999999998863
                },
                {
                    "name": "G4",
                    "midi": 67,
                    "time": 172.57499999999888,
                    "velocity": 0.4409448818897638,
                    "duration": 0.07499999999998863
                },
                {
                    "name": "F5",
                    "midi": 77,
                    "time": 172.72499999999886,
                    "velocity": 0.49606299212598426,
                    "duration": 0.07499999999998863
                },
                {
                    "name": "D5",
                    "midi": 74,
                    "time": 172.72499999999886,
                    "velocity": 0.4409448818897638,
                    "duration": 0.07499999999998863
                },
                {
                    "name": "G#4",
                    "midi": 68,
                    "time": 172.72499999999886,
                    "velocity": 0.4409448818897638,
                    "duration": 0.07499999999998863
                },
                {
                    "name": "D#5",
                    "midi": 75,
                    "time": 172.87499999999883,
                    "velocity": 0.4409448818897638,
                    "duration": 0.07499999999998863
                },
                {
                    "name": "G5",
                    "midi": 79,
                    "time": 172.87499999999883,
                    "velocity": 0.49606299212598426,
                    "duration": 0.07499999999998863
                },
                {
                    "name": "A#4",
                    "midi": 70,
                    "time": 172.87499999999883,
                    "velocity": 0.4409448818897638,
                    "duration": 0.07499999999998863
                },
                {
                    "name": "A#4",
                    "midi": 70,
                    "time": 173.0249999999988,
                    "velocity": 0.41732283464566927,
                    "duration": 0.07499999999998863
                },
                {
                    "name": "F#4",
                    "midi": 66,
                    "time": 173.0249999999988,
                    "velocity": 0.41732283464566927,
                    "duration": 0.07499999999998863
                },
                {
                    "name": "D5",
                    "midi": 74,
                    "time": 173.0249999999988,
                    "velocity": 0.4645669291338583,
                    "duration": 0.07499999999998863
                },
                {
                    "name": "D#5",
                    "midi": 75,
                    "time": 173.1749999999988,
                    "velocity": 0.49606299212598426,
                    "duration": 0.07499999999998863
                },
                {
                    "name": "G4",
                    "midi": 67,
                    "time": 173.1749999999988,
                    "velocity": 0.4409448818897638,
                    "duration": 0.07499999999998863
                },
                {
                    "name": "A#4",
                    "midi": 70,
                    "time": 173.1749999999988,
                    "velocity": 0.4409448818897638,
                    "duration": 0.07499999999998863
                },
                {
                    "name": "D#4",
                    "midi": 63,
                    "time": 173.32499999999877,
                    "velocity": 0.4094488188976378,
                    "duration": 0.07499999999998863
                },
                {
                    "name": "G4",
                    "midi": 67,
                    "time": 173.32499999999877,
                    "velocity": 0.4094488188976378,
                    "duration": 0.07499999999998863
                },
                {
                    "name": "B4",
                    "midi": 71,
                    "time": 173.32499999999877,
                    "velocity": 0.4566929133858268,
                    "duration": 0.07499999999998863
                },
                {
                    "name": "D#4",
                    "midi": 63,
                    "time": 173.47499999999874,
                    "velocity": 0.4409448818897638,
                    "duration": 0.07499999999998863
                },
                {
                    "name": "G4",
                    "midi": 67,
                    "time": 173.47499999999874,
                    "velocity": 0.4409448818897638,
                    "duration": 0.07499999999998863
                },
                {
                    "name": "C5",
                    "midi": 72,
                    "time": 173.47499999999874,
                    "velocity": 0.49606299212598426,
                    "duration": 0.07499999999998863
                },
                {
                    "name": "D#4",
                    "midi": 63,
                    "time": 173.62499999999872,
                    "velocity": 0.4251968503937008,
                    "duration": 0.07499999999998863
                },
                {
                    "name": "G4",
                    "midi": 67,
                    "time": 173.62499999999872,
                    "velocity": 0.4251968503937008,
                    "duration": 0.07499999999998863
                },
                {
                    "name": "C#5",
                    "midi": 73,
                    "time": 173.62499999999872,
                    "velocity": 0.48031496062992124,
                    "duration": 0.07499999999998863
                },
                {
                    "name": "G4",
                    "midi": 67,
                    "time": 173.7749999999987,
                    "velocity": 0.4409448818897638,
                    "duration": 0.07499999999998863
                },
                {
                    "name": "A#4",
                    "midi": 70,
                    "time": 173.7749999999987,
                    "velocity": 0.4409448818897638,
                    "duration": 0.07499999999998863
                },
                {
                    "name": "D5",
                    "midi": 74,
                    "time": 173.7749999999987,
                    "velocity": 0.49606299212598426,
                    "duration": 0.07499999999998863
                },
                {
                    "name": "G#4",
                    "midi": 68,
                    "time": 173.92499999999868,
                    "velocity": 0.4094488188976378,
                    "duration": 0.07499999999998863
                },
                {
                    "name": "D5",
                    "midi": 74,
                    "time": 173.92499999999868,
                    "velocity": 0.4094488188976378,
                    "duration": 0.07499999999998863
                },
                {
                    "name": "F5",
                    "midi": 77,
                    "time": 173.92499999999868,
                    "velocity": 0.4566929133858268,
                    "duration": 0.07499999999998863
                },
                {
                    "name": "G4",
                    "midi": 67,
                    "time": 174.07499999999865,
                    "velocity": 0.4881889763779528,
                    "duration": 0.07499999999998863
                },
                {
                    "name": "G4",
                    "midi": 67,
                    "time": 174.22499999999863,
                    "velocity": 0.4409448818897638,
                    "duration": 0.07499999999998863
                },
                {
                    "name": "C5",
                    "midi": 72,
                    "time": 174.22499999999863,
                    "velocity": 0.49606299212598426,
                    "duration": 0.07499999999998863
                },
                {
                    "name": "A4",
                    "midi": 69,
                    "time": 174.3749999999986,
                    "velocity": 0.5039370078740157,
                    "duration": 0.07499999999998863
                },
                {
                    "name": "A4",
                    "midi": 69,
                    "time": 174.52499999999858,
                    "velocity": 0.4645669291338583,
                    "duration": 0.07499999999998863
                },
                {
                    "name": "D5",
                    "midi": 74,
                    "time": 174.52499999999858,
                    "velocity": 0.5196850393700787,
                    "duration": 0.07499999999998863
                },
                {
                    "name": "A#4",
                    "midi": 70,
                    "time": 174.67499999999856,
                    "velocity": 0.5354330708661418,
                    "duration": 0.07499999999998863
                },
                {
                    "name": "C5",
                    "midi": 72,
                    "time": 174.82499999999854,
                    "velocity": 0.4881889763779528,
                    "duration": 0.07499999999998863
                },
                {
                    "name": "F5",
                    "midi": 77,
                    "time": 174.82499999999854,
                    "velocity": 0.5433070866141733,
                    "duration": 0.07499999999998863
                },
                {
                    "name": "C#5",
                    "midi": 73,
                    "time": 174.97499999999852,
                    "velocity": 0.5511811023622047,
                    "duration": 0.07499999999998863
                },
                {
                    "name": "G5",
                    "midi": 79,
                    "time": 175.1249999999985,
                    "velocity": 0.5590551181102362,
                    "duration": 0.07499999999998863
                },
                {
                    "name": "D5",
                    "midi": 74,
                    "time": 175.1249999999985,
                    "velocity": 0.49606299212598426,
                    "duration": 0.07499999999998863
                },
                {
                    "name": "D#5",
                    "midi": 75,
                    "time": 175.27499999999847,
                    "velocity": 0.5669291338582677,
                    "duration": 0.07499999999998863
                },
                {
                    "name": "G#5",
                    "midi": 80,
                    "time": 175.42499999999845,
                    "velocity": 0.5826771653543307,
                    "duration": 0.07499999999998863
                },
                {
                    "name": "E5",
                    "midi": 76,
                    "time": 175.42499999999845,
                    "velocity": 0.5196850393700787,
                    "duration": 0.07499999999998863
                },
                {
                    "name": "F#5",
                    "midi": 78,
                    "time": 175.57499999999843,
                    "velocity": 0.5905511811023622,
                    "duration": 0.07499999999998863
                },
                {
                    "name": "C6",
                    "midi": 84,
                    "time": 175.7249999999984,
                    "velocity": 0.6062992125984252,
                    "duration": 0.07499999999998863
                },
                {
                    "name": "G5",
                    "midi": 79,
                    "time": 175.7249999999984,
                    "velocity": 0.5433070866141733,
                    "duration": 0.07499999999998863
                },
                {
                    "name": "G#5",
                    "midi": 80,
                    "time": 175.87499999999838,
                    "velocity": 0.6141732283464567,
                    "duration": 0.07499999999998863
                },
                {
                    "name": "D6",
                    "midi": 86,
                    "time": 176.02499999999836,
                    "velocity": 0.6220472440944882,
                    "duration": 0.07499999999998863
                },
                {
                    "name": "G#5",
                    "midi": 80,
                    "time": 176.02499999999836,
                    "velocity": 0.5590551181102362,
                    "duration": 0.07499999999998863
                },
                {
                    "name": "D6",
                    "midi": 86,
                    "time": 176.17499999999833,
                    "velocity": 0.6377952755905512,
                    "duration": 0.07499999999998863
                },
                {
                    "name": "A#5",
                    "midi": 82,
                    "time": 176.17499999999833,
                    "velocity": 0.5669291338582677,
                    "duration": 0.07499999999998863
                },
                {
                    "name": "G6",
                    "midi": 91,
                    "time": 176.3249999999983,
                    "velocity": 0.6456692913385826,
                    "duration": 0.07499999999998863
                },
                {
                    "name": "A#5",
                    "midi": 82,
                    "time": 176.3249999999983,
                    "velocity": 0.5748031496062992,
                    "duration": 0.07499999999998863
                },
                {
                    "name": "B3",
                    "midi": 59,
                    "time": 176.3999999999983,
                    "velocity": 0.8267716535433071,
                    "duration": 1.8000000000000114
                },
                {
                    "name": "G3",
                    "midi": 55,
                    "time": 178.1999999999983,
                    "velocity": 0.33070866141732286,
                    "duration": 1.8000000000000114
                },
                {
                    "name": "G4",
                    "midi": 67,
                    "time": 179.99999999999832,
                    "velocity": 0.7165354330708661,
                    "duration": 1.8000000000000114
                },
                {
                    "name": "F#4",
                    "midi": 66,
                    "time": 181.79999999999833,
                    "velocity": 0.8582677165354331,
                    "duration": 3.5999999999999943
                },
                {
                    "name": "B3",
                    "midi": 59,
                    "time": 181.79999999999833,
                    "velocity": 0.6692913385826772,
                    "duration": 3.5999999999999943
                },
                {
                    "name": "G3",
                    "midi": 55,
                    "time": 181.79999999999833,
                    "velocity": 0.6692913385826772,
                    "duration": 3.5999999999999943
                },
                {
                    "name": "A#3",
                    "midi": 58,
                    "time": 185.39999999999833,
                    "velocity": 0.6535433070866141,
                    "duration": 1.8000000000000114
                },
                {
                    "name": "F#4",
                    "midi": 66,
                    "time": 185.39999999999833,
                    "velocity": 0.8346456692913385,
                    "duration": 3.6000000000000227
                },
                {
                    "name": "G3",
                    "midi": 55,
                    "time": 185.39999999999833,
                    "velocity": 0.6535433070866141,
                    "duration": 3.6000000000000227
                },
                {
                    "name": "B3",
                    "midi": 59,
                    "time": 187.19999999999834,
                    "velocity": 0.3937007874015748,
                    "duration": 1.8000000000000114
                },
                {
                    "name": "C#4",
                    "midi": 61,
                    "time": 188.99999999999835,
                    "velocity": 0.6850393700787402,
                    "duration": 1.8000000000000114
                },
                {
                    "name": "F#4",
                    "midi": 66,
                    "time": 188.99999999999835,
                    "velocity": 0.8267716535433071,
                    "duration": 1.8000000000000114
                },
                {
                    "name": "G3",
                    "midi": 55,
                    "time": 188.99999999999835,
                    "velocity": 0.6850393700787402,
                    "duration": 1.8000000000000114
                },
                {
                    "name": "D4",
                    "midi": 62,
                    "time": 190.79999999999836,
                    "velocity": 0.5039370078740157,
                    "duration": 1.8000000000000114
                },
                {
                    "name": "F#4",
                    "midi": 66,
                    "time": 190.79999999999836,
                    "velocity": 0.5669291338582677,
                    "duration": 3.6000000000000227
                },
                {
                    "name": "F#3",
                    "midi": 54,
                    "time": 190.79999999999836,
                    "velocity": 0.5039370078740157,
                    "duration": 3.6000000000000227
                },
                {
                    "name": "B3",
                    "midi": 59,
                    "time": 192.59999999999837,
                    "velocity": 0.3543307086614173,
                    "duration": 1.8000000000000114
                },
                {
                    "name": "F#4",
                    "midi": 66,
                    "time": 194.39999999999839,
                    "velocity": 0.31496062992125984,
                    "duration": 1.1999999999999886
                },
                {
                    "name": "C#4",
                    "midi": 61,
                    "time": 194.39999999999839,
                    "velocity": 0.28346456692913385,
                    "duration": 1.1999999999999886
                },
                {
                    "name": "F#3",
                    "midi": 54,
                    "time": 194.39999999999839,
                    "velocity": 0.28346456692913385,
                    "duration": 1.1999999999999886
                },
                {
                    "name": "B2",
                    "midi": 47,
                    "time": 196.19999999999837,
                    "velocity": 0.6771653543307087,
                    "duration": 1.8000000000000114
                },
                {
                    "name": "G3",
                    "midi": 55,
                    "time": 196.19999999999837,
                    "velocity": 0.7559055118110236,
                    "duration": 1.8000000000000114
                },
                {
                    "name": "B3",
                    "midi": 59,
                    "time": 196.19999999999837,
                    "velocity": 0.8188976377952756,
                    "duration": 1.8000000000000114
                },
                {
                    "name": "A#2",
                    "midi": 46,
                    "time": 197.99999999999838,
                    "velocity": 0.6299212598425197,
                    "duration": 1.8000000000000114
                },
                {
                    "name": "A#3",
                    "midi": 58,
                    "time": 197.99999999999838,
                    "velocity": 0.7637795275590551,
                    "duration": 1.8000000000000114
                },
                {
                    "name": "G3",
                    "midi": 55,
                    "time": 197.99999999999838,
                    "velocity": 0.7007874015748031,
                    "duration": 1.8000000000000114
                },
                {
                    "name": "A#3",
                    "midi": 58,
                    "time": 199.7999999999984,
                    "velocity": 0.6456692913385826,
                    "duration": 1.8000000000000114
                },
                {
                    "name": "A#4",
                    "midi": 70,
                    "time": 199.7999999999984,
                    "velocity": 0.7716535433070866,
                    "duration": 1.8000000000000114
                },
                {
                    "name": "G4",
                    "midi": 67,
                    "time": 199.7999999999984,
                    "velocity": 0.7480314960629921,
                    "duration": 1.8000000000000114
                },
                {
                    "name": "D4",
                    "midi": 62,
                    "time": 201.5999999999984,
                    "velocity": 0.47244094488188976,
                    "duration": 1.8000000000000114
                },
                {
                    "name": "E4",
                    "midi": 64,
                    "time": 201.5999999999984,
                    "velocity": 0.47244094488188976,
                    "duration": 3.6000000000000227
                },
                {
                    "name": "A3",
                    "midi": 57,
                    "time": 201.5999999999984,
                    "velocity": 0.4251968503937008,
                    "duration": 3.6000000000000227
                },
                {
                    "name": "E3",
                    "midi": 52,
                    "time": 201.5999999999984,
                    "velocity": 0.4251968503937008,
                    "duration": 3.6000000000000227
                },
                {
                    "name": "C#4",
                    "midi": 61,
                    "time": 203.3999999999984,
                    "velocity": 0.3937007874015748,
                    "duration": 1.8000000000000114
                },
                {
                    "name": "F4",
                    "midi": 65,
                    "time": 205.19999999999843,
                    "velocity": 0.49606299212598426,
                    "duration": 3.5999999999999943
                },
                {
                    "name": "C#4",
                    "midi": 61,
                    "time": 205.19999999999843,
                    "velocity": 0.49606299212598426,
                    "duration": 1.8000000000000114
                },
                {
                    "name": "A4",
                    "midi": 69,
                    "time": 205.19999999999843,
                    "velocity": 0.49606299212598426,
                    "duration": 3
                },
                {
                    "name": "A3",
                    "midi": 57,
                    "time": 205.19999999999843,
                    "velocity": 0.4409448818897638,
                    "duration": 3.5999999999999943
                },
                {
                    "name": "D4",
                    "midi": 62,
                    "time": 206.99999999999844,
                    "velocity": 0.4566929133858268,
                    "duration": 1.1999999999999886
                },
                {
                    "name": "A4",
                    "midi": 69,
                    "time": 208.19999999999843,
                    "velocity": 0.4251968503937008,
                    "duration": 0.5999999999999943
                },
                {
                    "name": "A4",
                    "midi": 69,
                    "time": 208.79999999999842,
                    "velocity": 0.47244094488188976,
                    "duration": 3.5999999999999943
                },
                {
                    "name": "C4",
                    "midi": 60,
                    "time": 208.79999999999842,
                    "velocity": 0.4251968503937008,
                    "duration": 3.5999999999999943
                },
                {
                    "name": "D4",
                    "midi": 62,
                    "time": 208.79999999999842,
                    "velocity": 0.4251968503937008,
                    "duration": 3.5999999999999943
                },
                {
                    "name": "D5",
                    "midi": 74,
                    "time": 208.79999999999842,
                    "velocity": 0.5590551181102362,
                    "duration": 1.8000000000000114
                },
                {
                    "name": "C#5",
                    "midi": 73,
                    "time": 210.59999999999843,
                    "velocity": 0.5196850393700787,
                    "duration": 1.1999999999999886
                },
                {
                    "name": "D5",
                    "midi": 74,
                    "time": 211.79999999999842,
                    "velocity": 0.4881889763779528,
                    "duration": 0.5999999999999943
                },
                {
                    "name": "D4",
                    "midi": 62,
                    "time": 212.3999999999984,
                    "velocity": 0.4409448818897638,
                    "duration": 1.8000000000000114
                },
                {
                    "name": "G4",
                    "midi": 67,
                    "time": 212.3999999999984,
                    "velocity": 0.49606299212598426,
                    "duration": 1.8000000000000114
                },
                {
                    "name": "C5",
                    "midi": 72,
                    "time": 212.3999999999984,
                    "velocity": 0.49606299212598426,
                    "duration": 1.8000000000000114
                },
                {
                    "name": "D4",
                    "midi": 62,
                    "time": 214.19999999999843,
                    "velocity": 0.3543307086614173,
                    "duration": 0.9000000000000057
                },
                {
                    "name": "G4",
                    "midi": 67,
                    "time": 214.19999999999843,
                    "velocity": 0.3937007874015748,
                    "duration": 0.9000000000000057
                },
                {
                    "name": "A#4",
                    "midi": 70,
                    "time": 214.19999999999843,
                    "velocity": 0.3937007874015748,
                    "duration": 0.9000000000000057
                },
                {
                    "name": "G3",
                    "midi": 55,
                    "time": 215.39999999999844,
                    "velocity": 0.8740157480314961,
                    "duration": 0.5999999999999943
                },
                {
                    "name": "G5",
                    "midi": 79,
                    "time": 215.99999999999844,
                    "velocity": 0.8582677165354331,
                    "duration": 1.8000000000000114
                },
                {
                    "name": "D#5",
                    "midi": 75,
                    "time": 215.99999999999844,
                    "velocity": 0.7480314960629921,
                    "duration": 1.8000000000000114
                },
                {
                    "name": "A#4",
                    "midi": 70,
                    "time": 215.99999999999844,
                    "velocity": 0.6456692913385826,
                    "duration": 1.8000000000000114
                },
                {
                    "name": "G4",
                    "midi": 67,
                    "time": 215.99999999999844,
                    "velocity": 0.6456692913385826,
                    "duration": 1.8000000000000114
                },
                {
                    "name": "G3",
                    "midi": 55,
                    "time": 217.79999999999845,
                    "velocity": 0.4330708661417323,
                    "duration": 1.8000000000000114
                },
                {
                    "name": "C4",
                    "midi": 60,
                    "time": 217.79999999999845,
                    "velocity": 0.4330708661417323,
                    "duration": 1.8000000000000114
                },
                {
                    "name": "E4",
                    "midi": 64,
                    "time": 217.79999999999845,
                    "velocity": 0.48031496062992124,
                    "duration": 1.8000000000000114
                },
                {
                    "name": "G4",
                    "midi": 67,
                    "time": 217.79999999999845,
                    "velocity": 0.48031496062992124,
                    "duration": 1.8000000000000114
                },
                {
                    "name": "A#3",
                    "midi": 58,
                    "time": 219.59999999999846,
                    "velocity": 0.5826771653543307,
                    "duration": 1.8000000000000114
                },
                {
                    "name": "E4",
                    "midi": 64,
                    "time": 219.59999999999846,
                    "velocity": 0.6535433070866141,
                    "duration": 1.8000000000000114
                },
                {
                    "name": "G4",
                    "midi": 67,
                    "time": 219.59999999999846,
                    "velocity": 0.6535433070866141,
                    "duration": 1.8000000000000114
                },
                {
                    "name": "B3",
                    "midi": 59,
                    "time": 221.39999999999847,
                    "velocity": 0.5275590551181102,
                    "duration": 1.8000000000000114
                },
                {
                    "name": "D4",
                    "midi": 62,
                    "time": 221.39999999999847,
                    "velocity": 0.5905511811023622,
                    "duration": 1.8000000000000114
                },
                {
                    "name": "F#4",
                    "midi": 66,
                    "time": 221.39999999999847,
                    "velocity": 0.5905511811023622,
                    "duration": 1.8000000000000114
                },
                {
                    "name": "G3",
                    "midi": 55,
                    "time": 223.19999999999848,
                    "velocity": 0.41732283464566927,
                    "duration": 1.8000000000000114
                },
                {
                    "name": "C#4",
                    "midi": 61,
                    "time": 223.19999999999848,
                    "velocity": 0.47244094488188976,
                    "duration": 1.8000000000000114
                },
                {
                    "name": "E4",
                    "midi": 64,
                    "time": 223.19999999999848,
                    "velocity": 0.47244094488188976,
                    "duration": 1.8000000000000114
                },
                {
                    "name": "G#3",
                    "midi": 56,
                    "time": 224.9999999999985,
                    "velocity": 0.3937007874015748,
                    "duration": 1.8000000000000114
                },
                {
                    "name": "B3",
                    "midi": 59,
                    "time": 224.9999999999985,
                    "velocity": 0.4409448818897638,
                    "duration": 1.8000000000000114
                },
                {
                    "name": "D4",
                    "midi": 62,
                    "time": 224.9999999999985,
                    "velocity": 0.4409448818897638,
                    "duration": 1.8000000000000114
                },
                {
                    "name": "F3",
                    "midi": 53,
                    "time": 226.7999999999985,
                    "velocity": 0.6456692913385826,
                    "duration": 3
                },
                {
                    "name": "G#3",
                    "midi": 56,
                    "time": 226.7999999999985,
                    "velocity": 0.6456692913385826,
                    "duration": 3
                },
                {
                    "name": "D4",
                    "midi": 62,
                    "time": 226.7999999999985,
                    "velocity": 0.7874015748031497,
                    "duration": 3
                },
                {
                    "name": "B3",
                    "midi": 59,
                    "time": 226.7999999999985,
                    "velocity": 0.7244094488188977,
                    "duration": 3
                },
                {
                    "name": "F#6",
                    "midi": 90,
                    "time": 230.3999999999985,
                    "velocity": 0.2440944881889764,
                    "duration": 0.07499999999998863
                },
                {
                    "name": "F#5",
                    "midi": 78,
                    "time": 230.4749999999985,
                    "velocity": 0.14960629921259844,
                    "duration": 0.07499999999998863
                },
                {
                    "name": "F#6",
                    "midi": 90,
                    "time": 230.54999999999848,
                    "velocity": 0.2440944881889764,
                    "duration": 0.07499999999998863
                },
                {
                    "name": "F#5",
                    "midi": 78,
                    "time": 230.62499999999847,
                    "velocity": 0.14173228346456693,
                    "duration": 0.07499999999998863
                },
                {
                    "name": "F#6",
                    "midi": 90,
                    "time": 230.69999999999845,
                    "velocity": 0.2440944881889764,
                    "duration": 0.07499999999998863
                },
                {
                    "name": "F#5",
                    "midi": 78,
                    "time": 230.77499999999844,
                    "velocity": 0.14960629921259844,
                    "duration": 0.07499999999998863
                },
                {
                    "name": "F#6",
                    "midi": 90,
                    "time": 230.84999999999843,
                    "velocity": 0.2440944881889764,
                    "duration": 0.07499999999998863
                },
                {
                    "name": "F#5",
                    "midi": 78,
                    "time": 230.92499999999842,
                    "velocity": 0.14960629921259844,
                    "duration": 0.07499999999998863
                },
                {
                    "name": "F#6",
                    "midi": 90,
                    "time": 230.9999999999984,
                    "velocity": 0.2440944881889764,
                    "duration": 0.07499999999998863
                },
                {
                    "name": "F#5",
                    "midi": 78,
                    "time": 231.0749999999984,
                    "velocity": 0.14960629921259844,
                    "duration": 0.07499999999998863
                },
                {
                    "name": "F#6",
                    "midi": 90,
                    "time": 231.14999999999839,
                    "velocity": 0.25196850393700787,
                    "duration": 0.07499999999998863
                },
                {
                    "name": "F#5",
                    "midi": 78,
                    "time": 231.22499999999837,
                    "velocity": 0.14960629921259844,
                    "duration": 0.07499999999998863
                },
                {
                    "name": "F#6",
                    "midi": 90,
                    "time": 231.29999999999836,
                    "velocity": 0.25196850393700787,
                    "duration": 0.07499999999998863
                },
                {
                    "name": "F#5",
                    "midi": 78,
                    "time": 231.37499999999835,
                    "velocity": 0.15748031496062992,
                    "duration": 0.07499999999998863
                },
                {
                    "name": "F#6",
                    "midi": 90,
                    "time": 231.44999999999834,
                    "velocity": 0.25196850393700787,
                    "duration": 0.07499999999998863
                },
                {
                    "name": "F#5",
                    "midi": 78,
                    "time": 231.52499999999833,
                    "velocity": 0.15748031496062992,
                    "duration": 0.07499999999998863
                },
                {
                    "name": "F#6",
                    "midi": 90,
                    "time": 231.59999999999832,
                    "velocity": 0.25196850393700787,
                    "duration": 0.07499999999998863
                },
                {
                    "name": "F#5",
                    "midi": 78,
                    "time": 231.6749999999983,
                    "velocity": 0.15748031496062992,
                    "duration": 0.07499999999998863
                },
                {
                    "name": "F#6",
                    "midi": 90,
                    "time": 231.7499999999983,
                    "velocity": 0.25984251968503935,
                    "duration": 0.07499999999998863
                },
                {
                    "name": "F#5",
                    "midi": 78,
                    "time": 231.82499999999828,
                    "velocity": 0.15748031496062992,
                    "duration": 0.07499999999998863
                },
                {
                    "name": "F#6",
                    "midi": 90,
                    "time": 231.89999999999827,
                    "velocity": 0.25984251968503935,
                    "duration": 0.07499999999998863
                },
                {
                    "name": "F#5",
                    "midi": 78,
                    "time": 231.97499999999826,
                    "velocity": 0.15748031496062992,
                    "duration": 0.07499999999998863
                },
                {
                    "name": "F#6",
                    "midi": 90,
                    "time": 232.04999999999825,
                    "velocity": 0.25984251968503935,
                    "duration": 0.07499999999998863
                },
                {
                    "name": "F#5",
                    "midi": 78,
                    "time": 232.12499999999824,
                    "velocity": 0.15748031496062992,
                    "duration": 0.07499999999998863
                },
                {
                    "name": "F#6",
                    "midi": 90,
                    "time": 232.19999999999823,
                    "velocity": 0.2677165354330709,
                    "duration": 0.07499999999998863
                },
                {
                    "name": "F#5",
                    "midi": 78,
                    "time": 232.27499999999822,
                    "velocity": 0.16535433070866143,
                    "duration": 0.07499999999998863
                },
                {
                    "name": "F#6",
                    "midi": 90,
                    "time": 232.3499999999982,
                    "velocity": 0.2677165354330709,
                    "duration": 0.07499999999998863
                },
                {
                    "name": "F#5",
                    "midi": 78,
                    "time": 232.4249999999982,
                    "velocity": 0.15748031496062992,
                    "duration": 0.07499999999998863
                },
                {
                    "name": "F#6",
                    "midi": 90,
                    "time": 232.49999999999818,
                    "velocity": 0.2677165354330709,
                    "duration": 0.07499999999998863
                },
                {
                    "name": "F#5",
                    "midi": 78,
                    "time": 232.57499999999817,
                    "velocity": 0.16535433070866143,
                    "duration": 0.07499999999998863
                },
                {
                    "name": "F#6",
                    "midi": 90,
                    "time": 232.64999999999816,
                    "velocity": 0.2677165354330709,
                    "duration": 0.07499999999998863
                },
                {
                    "name": "F#5",
                    "midi": 78,
                    "time": 232.72499999999815,
                    "velocity": 0.16535433070866143,
                    "duration": 0.07499999999998863
                },
                {
                    "name": "F#6",
                    "midi": 90,
                    "time": 232.79999999999814,
                    "velocity": 0.2677165354330709,
                    "duration": 0.07499999999998863
                },
                {
                    "name": "F#5",
                    "midi": 78,
                    "time": 232.87499999999812,
                    "velocity": 0.16535433070866143,
                    "duration": 0.07499999999998863
                },
                {
                    "name": "F#6",
                    "midi": 90,
                    "time": 232.9499999999981,
                    "velocity": 0.2677165354330709,
                    "duration": 0.07499999999998863
                },
                {
                    "name": "F#5",
                    "midi": 78,
                    "time": 233.0249999999981,
                    "velocity": 0.16535433070866143,
                    "duration": 0.07499999999998863
                },
                {
                    "name": "F#6",
                    "midi": 90,
                    "time": 233.0999999999981,
                    "velocity": 0.2677165354330709,
                    "duration": 0.07499999999998863
                },
                {
                    "name": "F#5",
                    "midi": 78,
                    "time": 233.17499999999808,
                    "velocity": 0.16535433070866143,
                    "duration": 0.07499999999998863
                },
                {
                    "name": "F#6",
                    "midi": 90,
                    "time": 233.24999999999807,
                    "velocity": 0.2677165354330709,
                    "duration": 0.07499999999998863
                },
                {
                    "name": "F#5",
                    "midi": 78,
                    "time": 233.32499999999806,
                    "velocity": 0.16535433070866143,
                    "duration": 0.07499999999998863
                },
                {
                    "name": "F#6",
                    "midi": 90,
                    "time": 233.39999999999804,
                    "velocity": 0.2677165354330709,
                    "duration": 0.07499999999998863
                },
                {
                    "name": "F#5",
                    "midi": 78,
                    "time": 233.47499999999803,
                    "velocity": 0.16535433070866143,
                    "duration": 0.07499999999998863
                },
                {
                    "name": "F#6",
                    "midi": 90,
                    "time": 233.54999999999802,
                    "velocity": 0.2677165354330709,
                    "duration": 0.07499999999998863
                },
                {
                    "name": "F#5",
                    "midi": 78,
                    "time": 233.624999999998,
                    "velocity": 0.16535433070866143,
                    "duration": 0.07499999999998863
                },
                {
                    "name": "F#6",
                    "midi": 90,
                    "time": 233.699999999998,
                    "velocity": 0.2677165354330709,
                    "duration": 0.07499999999998863
                },
                {
                    "name": "F#5",
                    "midi": 78,
                    "time": 233.774999999998,
                    "velocity": 0.16535433070866143,
                    "duration": 0.07499999999998863
                },
                {
                    "name": "F#6",
                    "midi": 90,
                    "time": 233.84999999999798,
                    "velocity": 0.2677165354330709,
                    "duration": 0.07499999999998863
                },
                {
                    "name": "F#5",
                    "midi": 78,
                    "time": 233.92499999999797,
                    "velocity": 0.16535433070866143,
                    "duration": 0.07499999999998863
                },
                {
                    "name": "F#6",
                    "midi": 90,
                    "time": 233.99999999999795,
                    "velocity": 0.2677165354330709,
                    "duration": 0.07499999999998863
                },
                {
                    "name": "F#5",
                    "midi": 78,
                    "time": 234.07499999999794,
                    "velocity": 0.16535433070866143,
                    "duration": 0.07499999999998863
                },
                {
                    "name": "F#6",
                    "midi": 90,
                    "time": 234.14999999999793,
                    "velocity": 0.2677165354330709,
                    "duration": 0.07499999999998863
                },
                {
                    "name": "F#5",
                    "midi": 78,
                    "time": 234.22499999999792,
                    "velocity": 0.15748031496062992,
                    "duration": 0.07499999999998863
                },
                {
                    "name": "F#6",
                    "midi": 90,
                    "time": 234.2999999999979,
                    "velocity": 0.2677165354330709,
                    "duration": 0.07499999999998863
                },
                {
                    "name": "F#5",
                    "midi": 78,
                    "time": 234.3749999999979,
                    "velocity": 0.16535433070866143,
                    "duration": 0.07499999999998863
                },
                {
                    "name": "F#6",
                    "midi": 90,
                    "time": 234.44999999999789,
                    "velocity": 0.2677165354330709,
                    "duration": 0.07499999999998863
                },
                {
                    "name": "F#5",
                    "midi": 78,
                    "time": 234.52499999999787,
                    "velocity": 0.16535433070866143,
                    "duration": 0.07499999999998863
                },
                {
                    "name": "F#6",
                    "midi": 90,
                    "time": 234.59999999999786,
                    "velocity": 0.2677165354330709,
                    "duration": 0.07499999999998863
                },
                {
                    "name": "F#5",
                    "midi": 78,
                    "time": 234.67499999999785,
                    "velocity": 0.16535433070866143,
                    "duration": 0.07499999999998863
                },
                {
                    "name": "F#6",
                    "midi": 90,
                    "time": 234.74999999999784,
                    "velocity": 0.2677165354330709,
                    "duration": 0.07499999999998863
                },
                {
                    "name": "F#5",
                    "midi": 78,
                    "time": 234.82499999999783,
                    "velocity": 0.16535433070866143,
                    "duration": 0.07499999999998863
                },
                {
                    "name": "F#6",
                    "midi": 90,
                    "time": 234.89999999999782,
                    "velocity": 0.2677165354330709,
                    "duration": 0.07499999999998863
                },
                {
                    "name": "F#5",
                    "midi": 78,
                    "time": 234.9749999999978,
                    "velocity": 0.16535433070866143,
                    "duration": 0.07499999999998863
                },
                {
                    "name": "F#6",
                    "midi": 90,
                    "time": 235.0499999999978,
                    "velocity": 0.2677165354330709,
                    "duration": 0.07499999999998863
                },
                {
                    "name": "F#5",
                    "midi": 78,
                    "time": 235.12499999999778,
                    "velocity": 0.16535433070866143,
                    "duration": 0.07499999999998863
                },
                {
                    "name": "F#6",
                    "midi": 90,
                    "time": 235.19999999999777,
                    "velocity": 0.2677165354330709,
                    "duration": 0.07499999999998863
                },
                {
                    "name": "F#5",
                    "midi": 78,
                    "time": 235.27499999999776,
                    "velocity": 0.16535433070866143,
                    "duration": 0.07499999999998863
                },
                {
                    "name": "F#6",
                    "midi": 90,
                    "time": 235.34999999999775,
                    "velocity": 0.2677165354330709,
                    "duration": 0.07499999999998863
                },
                {
                    "name": "F#5",
                    "midi": 78,
                    "time": 235.42499999999774,
                    "velocity": 0.16535433070866143,
                    "duration": 0.07499999999998863
                },
                {
                    "name": "F#6",
                    "midi": 90,
                    "time": 235.49999999999773,
                    "velocity": 0.2677165354330709,
                    "duration": 0.07499999999998863
                },
                {
                    "name": "F#5",
                    "midi": 78,
                    "time": 235.57499999999771,
                    "velocity": 0.16535433070866143,
                    "duration": 0.07499999999998863
                },
                {
                    "name": "F#6",
                    "midi": 90,
                    "time": 235.6499999999977,
                    "velocity": 0.2677165354330709,
                    "duration": 0.07499999999998863
                },
                {
                    "name": "F#5",
                    "midi": 78,
                    "time": 235.7249999999977,
                    "velocity": 0.16535433070866143,
                    "duration": 0.07499999999998863
                },
                {
                    "name": "F#6",
                    "midi": 90,
                    "time": 235.79999999999768,
                    "velocity": 0.2677165354330709,
                    "duration": 0.07499999999998863
                },
                {
                    "name": "F#5",
                    "midi": 78,
                    "time": 235.87499999999767,
                    "velocity": 0.16535433070866143,
                    "duration": 0.07499999999998863
                },
                {
                    "name": "F#6",
                    "midi": 90,
                    "time": 235.94999999999766,
                    "velocity": 0.2677165354330709,
                    "duration": 0.07499999999998863
                },
                {
                    "name": "F#5",
                    "midi": 78,
                    "time": 236.02499999999765,
                    "velocity": 0.15748031496062992,
                    "duration": 0.07499999999998863
                },
                {
                    "name": "F#6",
                    "midi": 90,
                    "time": 236.09999999999764,
                    "velocity": 0.2677165354330709,
                    "duration": 0.07499999999998863
                },
                {
                    "name": "F#5",
                    "midi": 78,
                    "time": 236.17499999999762,
                    "velocity": 0.16535433070866143,
                    "duration": 0.07499999999998863
                },
                {
                    "name": "F#6",
                    "midi": 90,
                    "time": 236.2499999999976,
                    "velocity": 0.2677165354330709,
                    "duration": 0.07499999999998863
                },
                {
                    "name": "F#5",
                    "midi": 78,
                    "time": 236.3249999999976,
                    "velocity": 0.16535433070866143,
                    "duration": 0.07499999999998863
                },
                {
                    "name": "F#6",
                    "midi": 90,
                    "time": 236.3999999999976,
                    "velocity": 0.2677165354330709,
                    "duration": 0.07499999999998863
                },
                {
                    "name": "F#5",
                    "midi": 78,
                    "time": 236.47499999999758,
                    "velocity": 0.16535433070866143,
                    "duration": 0.07499999999998863
                },
                {
                    "name": "F#6",
                    "midi": 90,
                    "time": 236.54999999999757,
                    "velocity": 0.2677165354330709,
                    "duration": 0.07499999999998863
                },
                {
                    "name": "F#5",
                    "midi": 78,
                    "time": 236.62499999999756,
                    "velocity": 0.16535433070866143,
                    "duration": 0.07499999999998863
                },
                {
                    "name": "F#6",
                    "midi": 90,
                    "time": 236.69999999999754,
                    "velocity": 0.2677165354330709,
                    "duration": 0.07499999999998863
                },
                {
                    "name": "F#5",
                    "midi": 78,
                    "time": 236.77499999999753,
                    "velocity": 0.16535433070866143,
                    "duration": 0.07499999999998863
                },
                {
                    "name": "F#6",
                    "midi": 90,
                    "time": 236.84999999999752,
                    "velocity": 0.2677165354330709,
                    "duration": 0.07499999999998863
                },
                {
                    "name": "F#5",
                    "midi": 78,
                    "time": 236.9249999999975,
                    "velocity": 0.16535433070866143,
                    "duration": 0.07499999999998863
                },
                {
                    "name": "F#6",
                    "midi": 90,
                    "time": 236.9999999999975,
                    "velocity": 0.2677165354330709,
                    "duration": 0.07499999999998863
                },
                {
                    "name": "F#5",
                    "midi": 78,
                    "time": 237.0749999999975,
                    "velocity": 0.14960629921259844,
                    "duration": 0.07499999999998863
                },
                {
                    "name": "F#6",
                    "midi": 90,
                    "time": 237.14999999999748,
                    "velocity": 0.2677165354330709,
                    "duration": 0.07499999999998863
                },
                {
                    "name": "F#5",
                    "midi": 78,
                    "time": 237.22499999999746,
                    "velocity": 0.15748031496062992,
                    "duration": 0.07499999999998863
                },
                {
                    "name": "F#6",
                    "midi": 90,
                    "time": 237.29999999999745,
                    "velocity": 0.25984251968503935,
                    "duration": 0.07499999999998863
                },
                {
                    "name": "F#5",
                    "midi": 78,
                    "time": 237.37499999999744,
                    "velocity": 0.15748031496062992,
                    "duration": 0.07499999999998863
                },
                {
                    "name": "F#6",
                    "midi": 90,
                    "time": 237.44999999999743,
                    "velocity": 0.25196850393700787,
                    "duration": 0.07499999999998863
                },
                {
                    "name": "F#5",
                    "midi": 78,
                    "time": 237.52499999999742,
                    "velocity": 0.15748031496062992,
                    "duration": 0.07499999999998863
                },
                {
                    "name": "F#6",
                    "midi": 90,
                    "time": 237.5999999999974,
                    "velocity": 0.2677165354330709,
                    "duration": 0.07499999999998863
                },
                {
                    "name": "F#5",
                    "midi": 78,
                    "time": 237.6749999999974,
                    "velocity": 0.16535433070866143,
                    "duration": 0.07499999999998863
                },
                {
                    "name": "F#6",
                    "midi": 90,
                    "time": 237.74999999999739,
                    "velocity": 0.2677165354330709,
                    "duration": 0.07499999999998863
                },
                {
                    "name": "F#5",
                    "midi": 78,
                    "time": 237.82499999999737,
                    "velocity": 0.15748031496062992,
                    "duration": 0.07499999999998863
                },
                {
                    "name": "F#6",
                    "midi": 90,
                    "time": 237.89999999999736,
                    "velocity": 0.2677165354330709,
                    "duration": 0.07499999999998863
                },
                {
                    "name": "F#5",
                    "midi": 78,
                    "time": 237.97499999999735,
                    "velocity": 0.16535433070866143,
                    "duration": 0.07499999999998863
                },
                {
                    "name": "F#6",
                    "midi": 90,
                    "time": 238.04999999999734,
                    "velocity": 0.2677165354330709,
                    "duration": 0.07499999999998863
                },
                {
                    "name": "F#5",
                    "midi": 78,
                    "time": 238.12499999999733,
                    "velocity": 0.16535433070866143,
                    "duration": 0.07499999999998863
                },
                {
                    "name": "F#6",
                    "midi": 90,
                    "time": 238.19999999999732,
                    "velocity": 0.2677165354330709,
                    "duration": 0.07499999999998863
                },
                {
                    "name": "F#5",
                    "midi": 78,
                    "time": 238.2749999999973,
                    "velocity": 0.16535433070866143,
                    "duration": 0.07499999999998863
                },
                {
                    "name": "F#6",
                    "midi": 90,
                    "time": 238.3499999999973,
                    "velocity": 0.2677165354330709,
                    "duration": 0.07499999999998863
                },
                {
                    "name": "F#5",
                    "midi": 78,
                    "time": 238.42499999999728,
                    "velocity": 0.16535433070866143,
                    "duration": 0.07499999999998863
                },
                {
                    "name": "F#6",
                    "midi": 90,
                    "time": 238.49999999999727,
                    "velocity": 0.2677165354330709,
                    "duration": 0.07499999999998863
                },
                {
                    "name": "F#5",
                    "midi": 78,
                    "time": 238.57499999999726,
                    "velocity": 0.16535433070866143,
                    "duration": 0.07499999999998863
                },
                {
                    "name": "F#6",
                    "midi": 90,
                    "time": 238.64999999999725,
                    "velocity": 0.2677165354330709,
                    "duration": 0.07499999999998863
                },
                {
                    "name": "F#5",
                    "midi": 78,
                    "time": 238.72499999999724,
                    "velocity": 0.16535433070866143,
                    "duration": 0.07499999999998863
                },
                {
                    "name": "F#6",
                    "midi": 90,
                    "time": 238.79999999999723,
                    "velocity": 0.25196850393700787,
                    "duration": 0.07499999999998863
                },
                {
                    "name": "F#5",
                    "midi": 78,
                    "time": 238.87499999999721,
                    "velocity": 0.16535433070866143,
                    "duration": 0.07499999999998863
                },
                {
                    "name": "F#6",
                    "midi": 90,
                    "time": 238.9499999999972,
                    "velocity": 0.25984251968503935,
                    "duration": 0.07499999999998863
                },
                {
                    "name": "F#5",
                    "midi": 78,
                    "time": 239.0249999999972,
                    "velocity": 0.15748031496062992,
                    "duration": 0.07499999999998863
                },
                {
                    "name": "F#6",
                    "midi": 90,
                    "time": 239.09999999999718,
                    "velocity": 0.25984251968503935,
                    "duration": 0.07499999999998863
                },
                {
                    "name": "F#5",
                    "midi": 78,
                    "time": 239.17499999999717,
                    "velocity": 0.15748031496062992,
                    "duration": 0.07499999999998863
                },
                {
                    "name": "F#6",
                    "midi": 90,
                    "time": 239.24999999999716,
                    "velocity": 0.25196850393700787,
                    "duration": 0.07499999999998863
                },
                {
                    "name": "F#5",
                    "midi": 78,
                    "time": 239.32499999999715,
                    "velocity": 0.15748031496062992,
                    "duration": 0.07499999999998863
                },
                {
                    "name": "F#6",
                    "midi": 90,
                    "time": 239.39999999999714,
                    "velocity": 0.2677165354330709,
                    "duration": 0.07499999999998863
                },
                {
                    "name": "F#5",
                    "midi": 78,
                    "time": 239.47499999999712,
                    "velocity": 0.16535433070866143,
                    "duration": 0.07499999999998863
                },
                {
                    "name": "F#6",
                    "midi": 90,
                    "time": 239.5499999999971,
                    "velocity": 0.2677165354330709,
                    "duration": 0.07499999999998863
                },
                {
                    "name": "F#5",
                    "midi": 78,
                    "time": 239.6249999999971,
                    "velocity": 0.15748031496062992,
                    "duration": 0.07499999999998863
                },
                {
                    "name": "F#6",
                    "midi": 90,
                    "time": 239.6999999999971,
                    "velocity": 0.2677165354330709,
                    "duration": 0.07499999999998863
                },
                {
                    "name": "F#5",
                    "midi": 78,
                    "time": 239.77499999999708,
                    "velocity": 0.16535433070866143,
                    "duration": 0.07499999999998863
                },
                {
                    "name": "F#6",
                    "midi": 90,
                    "time": 239.84999999999707,
                    "velocity": 0.2677165354330709,
                    "duration": 0.07499999999998863
                },
                {
                    "name": "F#5",
                    "midi": 78,
                    "time": 239.92499999999706,
                    "velocity": 0.16535433070866143,
                    "duration": 0.07499999999998863
                },
                {
                    "name": "F#6",
                    "midi": 90,
                    "time": 239.99999999999704,
                    "velocity": 0.2677165354330709,
                    "duration": 0.07499999999998863
                },
                {
                    "name": "F#5",
                    "midi": 78,
                    "time": 240.07499999999703,
                    "velocity": 0.16535433070866143,
                    "duration": 0.07499999999998863
                },
                {
                    "name": "F#6",
                    "midi": 90,
                    "time": 240.14999999999702,
                    "velocity": 0.2677165354330709,
                    "duration": 0.07499999999998863
                },
                {
                    "name": "F#5",
                    "midi": 78,
                    "time": 240.224999999997,
                    "velocity": 0.16535433070866143,
                    "duration": 0.07499999999998863
                },
                {
                    "name": "F#6",
                    "midi": 90,
                    "time": 240.299999999997,
                    "velocity": 0.2677165354330709,
                    "duration": 0.07499999999998863
                },
                {
                    "name": "F#5",
                    "midi": 78,
                    "time": 240.374999999997,
                    "velocity": 0.16535433070866143,
                    "duration": 0.07499999999998863
                },
                {
                    "name": "F#6",
                    "midi": 90,
                    "time": 240.44999999999698,
                    "velocity": 0.2677165354330709,
                    "duration": 0.07499999999998863
                },
                {
                    "name": "F#5",
                    "midi": 78,
                    "time": 240.52499999999696,
                    "velocity": 0.16535433070866143,
                    "duration": 0.07499999999998863
                },
                {
                    "name": "F#6",
                    "midi": 90,
                    "time": 240.59999999999695,
                    "velocity": 0.25984251968503935,
                    "duration": 0.07499999999998863
                },
                {
                    "name": "F#5",
                    "midi": 78,
                    "time": 240.67499999999694,
                    "velocity": 0.16535433070866143,
                    "duration": 0.07499999999998863
                },
                {
                    "name": "F#6",
                    "midi": 90,
                    "time": 240.74999999999693,
                    "velocity": 0.2440944881889764,
                    "duration": 0.07499999999998863
                },
                {
                    "name": "F#5",
                    "midi": 78,
                    "time": 240.82499999999692,
                    "velocity": 0.16535433070866143,
                    "duration": 0.07499999999998863
                },
                {
                    "name": "F#6",
                    "midi": 90,
                    "time": 240.8999999999969,
                    "velocity": 0.25196850393700787,
                    "duration": 0.07499999999998863
                },
                {
                    "name": "F#5",
                    "midi": 78,
                    "time": 240.9749999999969,
                    "velocity": 0.16535433070866143,
                    "duration": 0.07499999999998863
                },
                {
                    "name": "F#6",
                    "midi": 90,
                    "time": 241.04999999999688,
                    "velocity": 0.2677165354330709,
                    "duration": 0.07499999999998863
                },
                {
                    "name": "F#5",
                    "midi": 78,
                    "time": 241.12499999999687,
                    "velocity": 0.16535433070866143,
                    "duration": 0.07499999999998863
                },
                {
                    "name": "F#6",
                    "midi": 90,
                    "time": 241.19999999999686,
                    "velocity": 0.25984251968503935,
                    "duration": 0.07499999999998863
                },
                {
                    "name": "F#5",
                    "midi": 78,
                    "time": 241.27499999999685,
                    "velocity": 0.16535433070866143,
                    "duration": 0.07499999999998863
                },
                {
                    "name": "F#6",
                    "midi": 90,
                    "time": 241.34999999999684,
                    "velocity": 0.25984251968503935,
                    "duration": 0.07499999999998863
                },
                {
                    "name": "F#5",
                    "midi": 78,
                    "time": 241.42499999999683,
                    "velocity": 0.15748031496062992,
                    "duration": 0.07499999999998863
                },
                {
                    "name": "F#6",
                    "midi": 90,
                    "time": 241.49999999999682,
                    "velocity": 0.25196850393700787,
                    "duration": 0.07499999999998863
                },
                {
                    "name": "F#5",
                    "midi": 78,
                    "time": 241.5749999999968,
                    "velocity": 0.16535433070866143,
                    "duration": 0.07499999999998863
                },
                {
                    "name": "F#6",
                    "midi": 90,
                    "time": 241.6499999999968,
                    "velocity": 0.25196850393700787,
                    "duration": 0.07499999999998863
                },
                {
                    "name": "F#5",
                    "midi": 78,
                    "time": 241.72499999999678,
                    "velocity": 0.16535433070866143,
                    "duration": 0.07499999999998863
                },
                {
                    "name": "F#6",
                    "midi": 90,
                    "time": 241.79999999999677,
                    "velocity": 0.28346456692913385,
                    "duration": 0.07499999999998863
                },
                {
                    "name": "F#5",
                    "midi": 78,
                    "time": 241.87499999999676,
                    "velocity": 0.2047244094488189,
                    "duration": 0.07499999999998863
                },
                {
                    "name": "F#6",
                    "midi": 90,
                    "time": 241.94999999999675,
                    "velocity": 0.29133858267716534,
                    "duration": 0.07499999999998863
                },
                {
                    "name": "F#5",
                    "midi": 78,
                    "time": 242.02499999999674,
                    "velocity": 0.2204724409448819,
                    "duration": 0.07499999999998863
                },
                {
                    "name": "F#6",
                    "midi": 90,
                    "time": 242.09999999999673,
                    "velocity": 0.31496062992125984,
                    "duration": 0.07499999999998863
                },
                {
                    "name": "F#5",
                    "midi": 78,
                    "time": 242.17499999999671,
                    "velocity": 0.2283464566929134,
                    "duration": 0.07499999999998863
                },
                {
                    "name": "F#6",
                    "midi": 90,
                    "time": 242.2499999999967,
                    "velocity": 0.31496062992125984,
                    "duration": 0.07499999999998863
                },
                {
                    "name": "F#5",
                    "midi": 78,
                    "time": 242.3249999999967,
                    "velocity": 0.2440944881889764,
                    "duration": 0.07499999999998863
                },
                {
                    "name": "F#6",
                    "midi": 90,
                    "time": 242.39999999999668,
                    "velocity": 0.31496062992125984,
                    "duration": 0.07499999999998863
                },
                {
                    "name": "F#5",
                    "midi": 78,
                    "time": 242.47499999999667,
                    "velocity": 0.2440944881889764,
                    "duration": 0.07499999999998863
                },
                {
                    "name": "F#6",
                    "midi": 90,
                    "time": 242.54999999999666,
                    "velocity": 0.31496062992125984,
                    "duration": 0.07499999999998863
                },
                {
                    "name": "F#5",
                    "midi": 78,
                    "time": 242.62499999999665,
                    "velocity": 0.2440944881889764,
                    "duration": 0.07499999999998863
                },
                {
                    "name": "F#6",
                    "midi": 90,
                    "time": 242.69999999999663,
                    "velocity": 0.3228346456692913,
                    "duration": 0.07499999999998863
                },
                {
                    "name": "F#5",
                    "midi": 78,
                    "time": 242.77499999999662,
                    "velocity": 0.25196850393700787,
                    "duration": 0.07499999999998863
                },
                {
                    "name": "F#6",
                    "midi": 90,
                    "time": 242.8499999999966,
                    "velocity": 0.33070866141732286,
                    "duration": 0.07499999999998863
                },
                {
                    "name": "F#5",
                    "midi": 78,
                    "time": 242.9249999999966,
                    "velocity": 0.2677165354330709,
                    "duration": 0.07499999999998863
                },
                {
                    "name": "F6",
                    "midi": 89,
                    "time": 242.9999999999966,
                    "velocity": 0.3779527559055118,
                    "duration": 0.07499999999998863
                },
                {
                    "name": "F5",
                    "midi": 77,
                    "time": 243.07499999999658,
                    "velocity": 0.30708661417322836,
                    "duration": 0.07499999999998863
                },
                {
                    "name": "F6",
                    "midi": 89,
                    "time": 243.14999999999657,
                    "velocity": 0.3700787401574803,
                    "duration": 0.07499999999998863
                },
                {
                    "name": "F5",
                    "midi": 77,
                    "time": 243.22499999999656,
                    "velocity": 0.2755905511811024,
                    "duration": 0.07499999999998863
                },
                {
                    "name": "F6",
                    "midi": 89,
                    "time": 243.29999999999654,
                    "velocity": 0.3779527559055118,
                    "duration": 0.07499999999998863
                },
                {
                    "name": "F5",
                    "midi": 77,
                    "time": 243.37499999999653,
                    "velocity": 0.30708661417322836,
                    "duration": 0.07499999999998863
                },
                {
                    "name": "F6",
                    "midi": 89,
                    "time": 243.44999999999652,
                    "velocity": 0.3779527559055118,
                    "duration": 0.07499999999998863
                },
                {
                    "name": "F5",
                    "midi": 77,
                    "time": 243.5249999999965,
                    "velocity": 0.30708661417322836,
                    "duration": 0.07499999999998863
                },
                {
                    "name": "E6",
                    "midi": 88,
                    "time": 243.5999999999965,
                    "velocity": 0.3937007874015748,
                    "duration": 0.07499999999998863
                },
                {
                    "name": "E5",
                    "midi": 76,
                    "time": 243.6749999999965,
                    "velocity": 0.31496062992125984,
                    "duration": 0.07499999999998863
                },
                {
                    "name": "E6",
                    "midi": 88,
                    "time": 243.74999999999648,
                    "velocity": 0.3937007874015748,
                    "duration": 0.07499999999998863
                },
                {
                    "name": "E5",
                    "midi": 76,
                    "time": 243.82499999999646,
                    "velocity": 0.30708661417322836,
                    "duration": 0.07499999999998863
                },
                {
                    "name": "E6",
                    "midi": 88,
                    "time": 243.89999999999645,
                    "velocity": 0.3858267716535433,
                    "duration": 0.07499999999998863
                },
                {
                    "name": "E5",
                    "midi": 76,
                    "time": 243.97499999999644,
                    "velocity": 0.30708661417322836,
                    "duration": 0.07499999999998863
                },
                {
                    "name": "E6",
                    "midi": 88,
                    "time": 244.04999999999643,
                    "velocity": 0.3858267716535433,
                    "duration": 0.07499999999998863
                },
                {
                    "name": "E5",
                    "midi": 76,
                    "time": 244.12499999999642,
                    "velocity": 0.30708661417322836,
                    "duration": 0.07499999999998863
                },
                {
                    "name": "D6",
                    "midi": 86,
                    "time": 244.1999999999964,
                    "velocity": 0.4409448818897638,
                    "duration": 0.07499999999998863
                },
                {
                    "name": "D5",
                    "midi": 74,
                    "time": 244.2749999999964,
                    "velocity": 0.33070866141732286,
                    "duration": 0.07499999999998863
                },
                {
                    "name": "D6",
                    "midi": 86,
                    "time": 244.34999999999638,
                    "velocity": 0.4409448818897638,
                    "duration": 0.07499999999998863
                },
                {
                    "name": "D5",
                    "midi": 74,
                    "time": 244.42499999999637,
                    "velocity": 0.33858267716535434,
                    "duration": 0.07499999999998863
                },
                {
                    "name": "D6",
                    "midi": 86,
                    "time": 244.49999999999636,
                    "velocity": 0.4409448818897638,
                    "duration": 0.07499999999998863
                },
                {
                    "name": "D5",
                    "midi": 74,
                    "time": 244.57499999999635,
                    "velocity": 0.33858267716535434,
                    "duration": 0.07499999999998863
                },
                {
                    "name": "D6",
                    "midi": 86,
                    "time": 244.64999999999634,
                    "velocity": 0.4409448818897638,
                    "duration": 0.07499999999998863
                },
                {
                    "name": "D5",
                    "midi": 74,
                    "time": 244.72499999999633,
                    "velocity": 0.33070866141732286,
                    "duration": 0.07499999999998863
                },
                {
                    "name": "B5",
                    "midi": 83,
                    "time": 244.79999999999632,
                    "velocity": 0.4094488188976378,
                    "duration": 0.07499999999998863
                },
                {
                    "name": "B4",
                    "midi": 71,
                    "time": 244.8749999999963,
                    "velocity": 0.33858267716535434,
                    "duration": 0.07499999999998863
                },
                {
                    "name": "B5",
                    "midi": 83,
                    "time": 244.9499999999963,
                    "velocity": 0.4094488188976378,
                    "duration": 0.07499999999998863
                },
                {
                    "name": "B4",
                    "midi": 71,
                    "time": 245.02499999999628,
                    "velocity": 0.3228346456692913,
                    "duration": 0.07499999999998863
                },
                {
                    "name": "B5",
                    "midi": 83,
                    "time": 245.09999999999627,
                    "velocity": 0.4094488188976378,
                    "duration": 0.07499999999998863
                },
                {
                    "name": "B4",
                    "midi": 71,
                    "time": 245.17499999999626,
                    "velocity": 0.33070866141732286,
                    "duration": 0.07499999999998863
                },
                {
                    "name": "B5",
                    "midi": 83,
                    "time": 245.24999999999625,
                    "velocity": 0.4094488188976378,
                    "duration": 0.07499999999998863
                },
                {
                    "name": "B4",
                    "midi": 71,
                    "time": 245.32499999999624,
                    "velocity": 0.33070866141732286,
                    "duration": 0.07499999999998863
                },
                {
                    "name": "A#5",
                    "midi": 82,
                    "time": 245.39999999999623,
                    "velocity": 0.4015748031496063,
                    "duration": 0.07499999999998863
                },
                {
                    "name": "A#4",
                    "midi": 70,
                    "time": 245.47499999999621,
                    "velocity": 0.33070866141732286,
                    "duration": 0.07499999999998863
                },
                {
                    "name": "A#5",
                    "midi": 82,
                    "time": 245.5499999999962,
                    "velocity": 0.4015748031496063,
                    "duration": 0.07499999999998863
                },
                {
                    "name": "A#4",
                    "midi": 70,
                    "time": 245.6249999999962,
                    "velocity": 0.33070866141732286,
                    "duration": 0.07499999999998863
                },
                {
                    "name": "A#5",
                    "midi": 82,
                    "time": 245.69999999999618,
                    "velocity": 0.4015748031496063,
                    "duration": 0.07499999999998863
                },
                {
                    "name": "A#4",
                    "midi": 70,
                    "time": 245.77499999999617,
                    "velocity": 0.33070866141732286,
                    "duration": 0.07499999999998863
                },
                {
                    "name": "A#5",
                    "midi": 82,
                    "time": 245.84999999999616,
                    "velocity": 0.4015748031496063,
                    "duration": 0.07499999999998863
                },
                {
                    "name": "A#4",
                    "midi": 70,
                    "time": 245.92499999999615,
                    "velocity": 0.3228346456692913,
                    "duration": 0.07499999999998863
                },
                {
                    "name": "A5",
                    "midi": 81,
                    "time": 245.99999999999613,
                    "velocity": 0.3937007874015748,
                    "duration": 0.07499999999998863
                },
                {
                    "name": "A4",
                    "midi": 69,
                    "time": 246.07499999999612,
                    "velocity": 0.31496062992125984,
                    "duration": 0.07499999999998863
                },
                {
                    "name": "A5",
                    "midi": 81,
                    "time": 246.1499999999961,
                    "velocity": 0.3858267716535433,
                    "duration": 0.07499999999998863
                },
                {
                    "name": "A4",
                    "midi": 69,
                    "time": 246.2249999999961,
                    "velocity": 0.30708661417322836,
                    "duration": 0.07499999999998863
                },
                {
                    "name": "A5",
                    "midi": 81,
                    "time": 246.2999999999961,
                    "velocity": 0.3779527559055118,
                    "duration": 0.07499999999998863
                },
                {
                    "name": "A4",
                    "midi": 69,
                    "time": 246.37499999999608,
                    "velocity": 0.30708661417322836,
                    "duration": 0.07499999999998863
                },
                {
                    "name": "A5",
                    "midi": 81,
                    "time": 246.44999999999607,
                    "velocity": 0.3779527559055118,
                    "duration": 0.07499999999998863
                },
                {
                    "name": "A4",
                    "midi": 69,
                    "time": 246.52499999999606,
                    "velocity": 0.30708661417322836,
                    "duration": 0.07499999999998863
                },
                {
                    "name": "G#5",
                    "midi": 80,
                    "time": 246.59999999999604,
                    "velocity": 0.3779527559055118,
                    "duration": 0.07499999999998863
                },
                {
                    "name": "G#4",
                    "midi": 68,
                    "time": 246.67499999999603,
                    "velocity": 0.30708661417322836,
                    "duration": 0.07499999999998863
                },
                {
                    "name": "G#5",
                    "midi": 80,
                    "time": 246.74999999999602,
                    "velocity": 0.3779527559055118,
                    "duration": 0.07499999999998863
                },
                {
                    "name": "G#4",
                    "midi": 68,
                    "time": 246.824999999996,
                    "velocity": 0.30708661417322836,
                    "duration": 0.07499999999998863
                },
                {
                    "name": "G#5",
                    "midi": 80,
                    "time": 246.899999999996,
                    "velocity": 0.3779527559055118,
                    "duration": 0.07499999999998863
                },
                {
                    "name": "G#4",
                    "midi": 68,
                    "time": 246.974999999996,
                    "velocity": 0.30708661417322836,
                    "duration": 0.07499999999998863
                },
                {
                    "name": "G#5",
                    "midi": 80,
                    "time": 247.04999999999598,
                    "velocity": 0.3779527559055118,
                    "duration": 0.07499999999998863
                },
                {
                    "name": "G#4",
                    "midi": 68,
                    "time": 247.12499999999596,
                    "velocity": 0.30708661417322836,
                    "duration": 0.07499999999998863
                },
                {
                    "name": "G5",
                    "midi": 79,
                    "time": 247.19999999999595,
                    "velocity": 0.33858267716535434,
                    "duration": 0.07499999999998863
                },
                {
                    "name": "G4",
                    "midi": 67,
                    "time": 247.27499999999594,
                    "velocity": 0.2677165354330709,
                    "duration": 0.07499999999998863
                },
                {
                    "name": "G5",
                    "midi": 79,
                    "time": 247.34999999999593,
                    "velocity": 0.3464566929133858,
                    "duration": 0.07499999999998863
                },
                {
                    "name": "G4",
                    "midi": 67,
                    "time": 247.42499999999592,
                    "velocity": 0.2755905511811024,
                    "duration": 0.07499999999998863
                },
                {
                    "name": "G5",
                    "midi": 79,
                    "time": 247.4999999999959,
                    "velocity": 0.33858267716535434,
                    "duration": 0.07499999999998863
                },
                {
                    "name": "G4",
                    "midi": 67,
                    "time": 247.5749999999959,
                    "velocity": 0.2755905511811024,
                    "duration": 0.07499999999998863
                },
                {
                    "name": "G5",
                    "midi": 79,
                    "time": 247.64999999999588,
                    "velocity": 0.3700787401574803,
                    "duration": 0.07499999999998863
                },
                {
                    "name": "G4",
                    "midi": 67,
                    "time": 247.72499999999587,
                    "velocity": 0.2677165354330709,
                    "duration": 0.07499999999998863
                },
                {
                    "name": "G5",
                    "midi": 79,
                    "time": 247.79999999999586,
                    "velocity": 0.33070866141732286,
                    "duration": 0.07499999999998863
                },
                {
                    "name": "G4",
                    "midi": 67,
                    "time": 247.87499999999585,
                    "velocity": 0.2755905511811024,
                    "duration": 0.07499999999998863
                },
                {
                    "name": "G5",
                    "midi": 79,
                    "time": 247.94999999999584,
                    "velocity": 0.33070866141732286,
                    "duration": 0.07499999999998863
                },
                {
                    "name": "G4",
                    "midi": 67,
                    "time": 248.02499999999583,
                    "velocity": 0.2755905511811024,
                    "duration": 0.07499999999998863
                },
                {
                    "name": "G5",
                    "midi": 79,
                    "time": 248.09999999999582,
                    "velocity": 0.33070866141732286,
                    "duration": 0.07499999999998863
                },
                {
                    "name": "G4",
                    "midi": 67,
                    "time": 248.1749999999958,
                    "velocity": 0.2755905511811024,
                    "duration": 0.07499999999998863
                },
                {
                    "name": "G5",
                    "midi": 79,
                    "time": 248.2499999999958,
                    "velocity": 0.33070866141732286,
                    "duration": 0.07499999999998863
                },
                {
                    "name": "G4",
                    "midi": 67,
                    "time": 248.32499999999578,
                    "velocity": 0.2755905511811024,
                    "duration": 0.07499999999998863
                },
                {
                    "name": "F5",
                    "midi": 77,
                    "time": 248.39999999999577,
                    "velocity": 0.3464566929133858,
                    "duration": 0.07499999999998863
                },
                {
                    "name": "F4",
                    "midi": 65,
                    "time": 248.47499999999576,
                    "velocity": 0.28346456692913385,
                    "duration": 0.07499999999998863
                },
                {
                    "name": "F5",
                    "midi": 77,
                    "time": 248.54999999999575,
                    "velocity": 0.3464566929133858,
                    "duration": 0.07499999999998863
                },
                {
                    "name": "F4",
                    "midi": 65,
                    "time": 248.62499999999574,
                    "velocity": 0.2677165354330709,
                    "duration": 0.07499999999998863
                },
                {
                    "name": "F5",
                    "midi": 77,
                    "time": 248.69999999999573,
                    "velocity": 0.3464566929133858,
                    "duration": 0.07499999999998863
                },
                {
                    "name": "F4",
                    "midi": 65,
                    "time": 248.7749999999957,
                    "velocity": 0.2677165354330709,
                    "duration": 0.07499999999998863
                },
                {
                    "name": "F5",
                    "midi": 77,
                    "time": 248.8499999999957,
                    "velocity": 0.3464566929133858,
                    "duration": 0.07499999999998863
                },
                {
                    "name": "F4",
                    "midi": 65,
                    "time": 248.9249999999957,
                    "velocity": 0.25984251968503935,
                    "duration": 0.07499999999998863
                },
                {
                    "name": "F5",
                    "midi": 77,
                    "time": 248.99999999999568,
                    "velocity": 0.3464566929133858,
                    "duration": 0.07499999999998863
                },
                {
                    "name": "F4",
                    "midi": 65,
                    "time": 249.07499999999567,
                    "velocity": 0.25196850393700787,
                    "duration": 0.07499999999998863
                },
                {
                    "name": "F5",
                    "midi": 77,
                    "time": 249.14999999999566,
                    "velocity": 0.33070866141732286,
                    "duration": 0.07499999999998863
                },
                {
                    "name": "F4",
                    "midi": 65,
                    "time": 249.22499999999565,
                    "velocity": 0.25196850393700787,
                    "duration": 0.07499999999998863
                },
                {
                    "name": "F5",
                    "midi": 77,
                    "time": 249.29999999999563,
                    "velocity": 0.3228346456692913,
                    "duration": 0.07499999999998863
                },
                {
                    "name": "F4",
                    "midi": 65,
                    "time": 249.37499999999562,
                    "velocity": 0.25196850393700787,
                    "duration": 0.07499999999998863
                },
                {
                    "name": "F5",
                    "midi": 77,
                    "time": 249.4499999999956,
                    "velocity": 0.3228346456692913,
                    "duration": 0.07499999999998863
                },
                {
                    "name": "F4",
                    "midi": 65,
                    "time": 249.5249999999956,
                    "velocity": 0.25984251968503935,
                    "duration": 0.07499999999998863
                },
                {
                    "name": "F#5",
                    "midi": 78,
                    "time": 249.5999999999956,
                    "velocity": 0.30708661417322836,
                    "duration": 0.07499999999998863
                },
                {
                    "name": "F#4",
                    "midi": 66,
                    "time": 249.67499999999558,
                    "velocity": 0.25196850393700787,
                    "duration": 0.07499999999998863
                },
                {
                    "name": "F#5",
                    "midi": 78,
                    "time": 249.74999999999557,
                    "velocity": 0.30708661417322836,
                    "duration": 0.07499999999998863
                },
                {
                    "name": "F#4",
                    "midi": 66,
                    "time": 249.82499999999555,
                    "velocity": 0.2440944881889764,
                    "duration": 0.07499999999998863
                },
                {
                    "name": "F#5",
                    "midi": 78,
                    "time": 249.89999999999554,
                    "velocity": 0.29133858267716534,
                    "duration": 0.07499999999998863
                },
                {
                    "name": "F#4",
                    "midi": 66,
                    "time": 249.97499999999553,
                    "velocity": 0.2440944881889764,
                    "duration": 0.07499999999998863
                },
                {
                    "name": "F#5",
                    "midi": 78,
                    "time": 250.04999999999552,
                    "velocity": 0.29133858267716534,
                    "duration": 0.07499999999998863
                },
                {
                    "name": "F#4",
                    "midi": 66,
                    "time": 250.1249999999955,
                    "velocity": 0.2283464566929134,
                    "duration": 0.07499999999998863
                },
                {
                    "name": "F#6",
                    "midi": 90,
                    "time": 250.1999999999955,
                    "velocity": 0.28346456692913385,
                    "duration": 0.07499999999998863
                },
                {
                    "name": "F#5",
                    "midi": 78,
                    "time": 250.2749999999955,
                    "velocity": 0.2204724409448819,
                    "duration": 0.07499999999998863
                },
                {
                    "name": "F#6",
                    "midi": 90,
                    "time": 250.34999999999548,
                    "velocity": 0.28346456692913385,
                    "duration": 0.07499999999998863
                },
                {
                    "name": "F#5",
                    "midi": 78,
                    "time": 250.42499999999546,
                    "velocity": 0.2204724409448819,
                    "duration": 0.07499999999998863
                },
                {
                    "name": "F#6",
                    "midi": 90,
                    "time": 250.49999999999545,
                    "velocity": 0.2755905511811024,
                    "duration": 0.07499999999998863
                },
                {
                    "name": "F#5",
                    "midi": 78,
                    "time": 250.57499999999544,
                    "velocity": 0.2125984251968504,
                    "duration": 0.07499999999998863
                },
                {
                    "name": "F#6",
                    "midi": 90,
                    "time": 250.64999999999543,
                    "velocity": 0.2755905511811024,
                    "duration": 0.07499999999998863
                },
                {
                    "name": "F#5",
                    "midi": 78,
                    "time": 250.72499999999542,
                    "velocity": 0.2047244094488189,
                    "duration": 0.07499999999998863
                },
                {
                    "name": "F#6",
                    "midi": 90,
                    "time": 250.7999999999954,
                    "velocity": 0.28346456692913385,
                    "duration": 0.07499999999998863
                },
                {
                    "name": "F#5",
                    "midi": 78,
                    "time": 250.8749999999954,
                    "velocity": 0.2204724409448819,
                    "duration": 0.07499999999998863
                },
                {
                    "name": "F#6",
                    "midi": 90,
                    "time": 250.94999999999538,
                    "velocity": 0.30708661417322836,
                    "duration": 0.07499999999998863
                },
                {
                    "name": "F#5",
                    "midi": 78,
                    "time": 251.02499999999537,
                    "velocity": 0.2204724409448819,
                    "duration": 0.07499999999998863
                },
                {
                    "name": "F#6",
                    "midi": 90,
                    "time": 251.09999999999536,
                    "velocity": 0.29133858267716534,
                    "duration": 0.07499999999998863
                },
                {
                    "name": "F#5",
                    "midi": 78,
                    "time": 251.17499999999535,
                    "velocity": 0.2283464566929134,
                    "duration": 0.07499999999998863
                },
                {
                    "name": "F#6",
                    "midi": 90,
                    "time": 251.24999999999534,
                    "velocity": 0.29133858267716534,
                    "duration": 0.07499999999998863
                },
                {
                    "name": "F#5",
                    "midi": 78,
                    "time": 251.32499999999533,
                    "velocity": 0.2677165354330709,
                    "duration": 0.07499999999998863
                },
                {
                    "name": "F6",
                    "midi": 89,
                    "time": 251.39999999999532,
                    "velocity": 0.33070866141732286,
                    "duration": 0.07499999999998863
                },
                {
                    "name": "F5",
                    "midi": 77,
                    "time": 251.4749999999953,
                    "velocity": 0.2755905511811024,
                    "duration": 0.07499999999998863
                },
                {
                    "name": "F6",
                    "midi": 89,
                    "time": 251.5499999999953,
                    "velocity": 0.33070866141732286,
                    "duration": 0.07499999999998863
                },
                {
                    "name": "F5",
                    "midi": 77,
                    "time": 251.62499999999528,
                    "velocity": 0.2755905511811024,
                    "duration": 0.07499999999998863
                },
                {
                    "name": "F6",
                    "midi": 89,
                    "time": 251.69999999999527,
                    "velocity": 0.33070866141732286,
                    "duration": 0.07499999999998863
                },
                {
                    "name": "F5",
                    "midi": 77,
                    "time": 251.77499999999526,
                    "velocity": 0.2755905511811024,
                    "duration": 0.07499999999998863
                },
                {
                    "name": "F6",
                    "midi": 89,
                    "time": 251.84999999999525,
                    "velocity": 0.33070866141732286,
                    "duration": 0.07499999999998863
                },
                {
                    "name": "F5",
                    "midi": 77,
                    "time": 251.92499999999524,
                    "velocity": 0.2755905511811024,
                    "duration": 0.07499999999998863
                },
                {
                    "name": "E6",
                    "midi": 88,
                    "time": 251.99999999999523,
                    "velocity": 0.36220472440944884,
                    "duration": 0.07499999999998863
                },
                {
                    "name": "E5",
                    "midi": 76,
                    "time": 252.0749999999952,
                    "velocity": 0.29133858267716534,
                    "duration": 0.07499999999998863
                },
                {
                    "name": "E6",
                    "midi": 88,
                    "time": 252.1499999999952,
                    "velocity": 0.36220472440944884,
                    "duration": 0.07499999999998863
                },
                {
                    "name": "E5",
                    "midi": 76,
                    "time": 252.2249999999952,
                    "velocity": 0.30708661417322836,
                    "duration": 0.07499999999998863
                },
                {
                    "name": "E6",
                    "midi": 88,
                    "time": 252.29999999999518,
                    "velocity": 0.36220472440944884,
                    "duration": 0.07499999999998863
                },
                {
                    "name": "E5",
                    "midi": 76,
                    "time": 252.37499999999517,
                    "velocity": 0.31496062992125984,
                    "duration": 0.07499999999998863
                },
                {
                    "name": "E6",
                    "midi": 88,
                    "time": 252.44999999999516,
                    "velocity": 0.36220472440944884,
                    "duration": 0.07499999999998863
                },
                {
                    "name": "E5",
                    "midi": 76,
                    "time": 252.52499999999515,
                    "velocity": 0.31496062992125984,
                    "duration": 0.07499999999998863
                },
                {
                    "name": "C#6",
                    "midi": 85,
                    "time": 252.59999999999513,
                    "velocity": 0.4015748031496063,
                    "duration": 0.07499999999998863
                },
                {
                    "name": "C#5",
                    "midi": 73,
                    "time": 252.67499999999512,
                    "velocity": 0.31496062992125984,
                    "duration": 0.07499999999998863
                },
                {
                    "name": "C#6",
                    "midi": 85,
                    "time": 252.7499999999951,
                    "velocity": 0.3937007874015748,
                    "duration": 0.07499999999998863
                },
                {
                    "name": "C#5",
                    "midi": 73,
                    "time": 252.8249999999951,
                    "velocity": 0.30708661417322836,
                    "duration": 0.07499999999998863
                },
                {
                    "name": "C#6",
                    "midi": 85,
                    "time": 252.8999999999951,
                    "velocity": 0.3937007874015748,
                    "duration": 0.07499999999998863
                },
                {
                    "name": "C#5",
                    "midi": 73,
                    "time": 252.97499999999508,
                    "velocity": 0.31496062992125984,
                    "duration": 0.07499999999998863
                },
                {
                    "name": "C#6",
                    "midi": 85,
                    "time": 253.04999999999507,
                    "velocity": 0.3779527559055118,
                    "duration": 0.07499999999998863
                },
                {
                    "name": "C#5",
                    "midi": 73,
                    "time": 253.12499999999505,
                    "velocity": 0.31496062992125984,
                    "duration": 0.07499999999998863
                },
                {
                    "name": "B5",
                    "midi": 83,
                    "time": 253.19999999999504,
                    "velocity": 0.36220472440944884,
                    "duration": 0.07499999999998863
                },
                {
                    "name": "B4",
                    "midi": 71,
                    "time": 253.27499999999503,
                    "velocity": 0.29133858267716534,
                    "duration": 0.07499999999998863
                },
                {
                    "name": "B5",
                    "midi": 83,
                    "time": 253.34999999999502,
                    "velocity": 0.36220472440944884,
                    "duration": 0.07499999999998863
                },
                {
                    "name": "B4",
                    "midi": 71,
                    "time": 253.424999999995,
                    "velocity": 0.30708661417322836,
                    "duration": 0.07499999999998863
                },
                {
                    "name": "B5",
                    "midi": 83,
                    "time": 253.499999999995,
                    "velocity": 0.36220472440944884,
                    "duration": 0.07499999999998863
                },
                {
                    "name": "B4",
                    "midi": 71,
                    "time": 253.574999999995,
                    "velocity": 0.31496062992125984,
                    "duration": 0.07499999999998863
                },
                {
                    "name": "B5",
                    "midi": 83,
                    "time": 253.64999999999498,
                    "velocity": 0.36220472440944884,
                    "duration": 0.07499999999998863
                },
                {
                    "name": "B4",
                    "midi": 71,
                    "time": 253.72499999999496,
                    "velocity": 0.31496062992125984,
                    "duration": 0.07499999999998863
                },
                {
                    "name": "A5",
                    "midi": 81,
                    "time": 253.79999999999495,
                    "velocity": 0.33858267716535434,
                    "duration": 0.07499999999998863
                },
                {
                    "name": "A4",
                    "midi": 69,
                    "time": 253.87499999999494,
                    "velocity": 0.2755905511811024,
                    "duration": 0.07499999999998863
                },
                {
                    "name": "A5",
                    "midi": 81,
                    "time": 253.94999999999493,
                    "velocity": 0.33070866141732286,
                    "duration": 0.07499999999998863
                },
                {
                    "name": "A4",
                    "midi": 69,
                    "time": 254.02499999999492,
                    "velocity": 0.2755905511811024,
                    "duration": 0.07499999999998863
                },
                {
                    "name": "A5",
                    "midi": 81,
                    "time": 254.0999999999949,
                    "velocity": 0.33070866141732286,
                    "duration": 0.07499999999998863
                },
                {
                    "name": "A4",
                    "midi": 69,
                    "time": 254.1749999999949,
                    "velocity": 0.2677165354330709,
                    "duration": 0.07499999999998863
                },
                {
                    "name": "A5",
                    "midi": 81,
                    "time": 254.24999999999488,
                    "velocity": 0.33070866141732286,
                    "duration": 0.07499999999998863
                },
                {
                    "name": "A4",
                    "midi": 69,
                    "time": 254.32499999999487,
                    "velocity": 0.2677165354330709,
                    "duration": 0.07499999999998863
                },
                {
                    "name": "D6",
                    "midi": 86,
                    "time": 254.39999999999486,
                    "velocity": 0.4251968503937008,
                    "duration": 0.07499999999998863
                },
                {
                    "name": "D5",
                    "midi": 74,
                    "time": 254.47499999999485,
                    "velocity": 0.3464566929133858,
                    "duration": 0.07499999999998863
                },
                {
                    "name": "D6",
                    "midi": 86,
                    "time": 254.54999999999484,
                    "velocity": 0.4251968503937008,
                    "duration": 0.07499999999998863
                },
                {
                    "name": "D5",
                    "midi": 74,
                    "time": 254.62499999999483,
                    "velocity": 0.36220472440944884,
                    "duration": 0.07499999999998863
                },
                {
                    "name": "D6",
                    "midi": 86,
                    "time": 254.69999999999482,
                    "velocity": 0.4251968503937008,
                    "duration": 0.07499999999998863
                },
                {
                    "name": "D5",
                    "midi": 74,
                    "time": 254.7749999999948,
                    "velocity": 0.36220472440944884,
                    "duration": 0.07499999999998863
                },
                {
                    "name": "D6",
                    "midi": 86,
                    "time": 254.8499999999948,
                    "velocity": 0.4251968503937008,
                    "duration": 0.07499999999998863
                },
                {
                    "name": "D5",
                    "midi": 74,
                    "time": 254.92499999999478,
                    "velocity": 0.36220472440944884,
                    "duration": 0.07499999999998863
                },
                {
                    "name": "D6",
                    "midi": 86,
                    "time": 254.99999999999477,
                    "velocity": 0.4409448818897638,
                    "duration": 0.07499999999998863
                },
                {
                    "name": "D5",
                    "midi": 74,
                    "time": 255.07499999999476,
                    "velocity": 0.3858267716535433,
                    "duration": 0.07499999999998863
                },
                {
                    "name": "D6",
                    "midi": 86,
                    "time": 255.14999999999475,
                    "velocity": 0.4330708661417323,
                    "duration": 0.07499999999998863
                },
                {
                    "name": "D5",
                    "midi": 74,
                    "time": 255.22499999999474,
                    "velocity": 0.4015748031496063,
                    "duration": 0.07499999999998863
                },
                {
                    "name": "D6",
                    "midi": 86,
                    "time": 255.29999999999472,
                    "velocity": 0.4409448818897638,
                    "duration": 0.07499999999998863
                },
                {
                    "name": "D5",
                    "midi": 74,
                    "time": 255.3749999999947,
                    "velocity": 0.3858267716535433,
                    "duration": 0.07499999999998863
                },
                {
                    "name": "D6",
                    "midi": 86,
                    "time": 255.4499999999947,
                    "velocity": 0.4409448818897638,
                    "duration": 0.07499999999998863
                },
                {
                    "name": "D5",
                    "midi": 74,
                    "time": 255.5249999999947,
                    "velocity": 0.3464566929133858,
                    "duration": 0.07499999999998863
                },
                {
                    "name": "C#6",
                    "midi": 85,
                    "time": 255.59999999999468,
                    "velocity": 0.3937007874015748,
                    "duration": 0.07499999999998863
                },
                {
                    "name": "C#5",
                    "midi": 73,
                    "time": 255.67499999999467,
                    "velocity": 0.30708661417322836,
                    "duration": 0.07499999999998863
                },
                {
                    "name": "C#6",
                    "midi": 85,
                    "time": 255.74999999999466,
                    "velocity": 0.3937007874015748,
                    "duration": 0.07499999999998863
                },
                {
                    "name": "C#5",
                    "midi": 73,
                    "time": 255.82499999999465,
                    "velocity": 0.29133858267716534,
                    "duration": 0.07499999999998863
                },
                {
                    "name": "C#6",
                    "midi": 85,
                    "time": 255.89999999999463,
                    "velocity": 0.3858267716535433,
                    "duration": 0.07499999999998863
                },
                {
                    "name": "C#5",
                    "midi": 73,
                    "time": 255.97499999999462,
                    "velocity": 0.29133858267716534,
                    "duration": 0.07499999999998863
                },
                {
                    "name": "C#6",
                    "midi": 85,
                    "time": 256.0499999999946,
                    "velocity": 0.3858267716535433,
                    "duration": 0.07499999999998863
                },
                {
                    "name": "C#5",
                    "midi": 73,
                    "time": 256.1249999999946,
                    "velocity": 0.30708661417322836,
                    "duration": 0.07499999999998863
                },
                {
                    "name": "F#6",
                    "midi": 90,
                    "time": 256.1999999999946,
                    "velocity": 0.33070866141732286,
                    "duration": 0.07499999999998863
                },
                {
                    "name": "F#5",
                    "midi": 78,
                    "time": 256.2749999999946,
                    "velocity": 0.2677165354330709,
                    "duration": 0.07499999999998863
                },
                {
                    "name": "F#6",
                    "midi": 90,
                    "time": 256.34999999999457,
                    "velocity": 0.33070866141732286,
                    "duration": 0.07499999999998863
                },
                {
                    "name": "F#5",
                    "midi": 78,
                    "time": 256.42499999999455,
                    "velocity": 0.2677165354330709,
                    "duration": 0.07499999999998863
                },
                {
                    "name": "F#6",
                    "midi": 90,
                    "time": 256.49999999999454,
                    "velocity": 0.33070866141732286,
                    "duration": 0.07499999999998863
                },
                {
                    "name": "F#5",
                    "midi": 78,
                    "time": 256.57499999999453,
                    "velocity": 0.2677165354330709,
                    "duration": 0.07499999999998863
                },
                {
                    "name": "F#6",
                    "midi": 90,
                    "time": 256.6499999999945,
                    "velocity": 0.33070866141732286,
                    "duration": 0.07499999999998863
                },
                {
                    "name": "F#5",
                    "midi": 78,
                    "time": 256.7249999999945,
                    "velocity": 0.2677165354330709,
                    "duration": 0.07499999999998863
                },
                {
                    "name": "A6",
                    "midi": 93,
                    "time": 256.7999999999945,
                    "velocity": 0.3858267716535433,
                    "duration": 0.07499999999998863
                },
                {
                    "name": "A5",
                    "midi": 81,
                    "time": 256.8749999999945,
                    "velocity": 0.29133858267716534,
                    "duration": 0.07499999999998863
                },
                {
                    "name": "A6",
                    "midi": 93,
                    "time": 256.9499999999945,
                    "velocity": 0.3858267716535433,
                    "duration": 0.07499999999998863
                },
                {
                    "name": "A5",
                    "midi": 81,
                    "time": 257.02499999999446,
                    "velocity": 0.30708661417322836,
                    "duration": 0.07499999999998863
                },
                {
                    "name": "A6",
                    "midi": 93,
                    "time": 257.09999999999445,
                    "velocity": 0.3858267716535433,
                    "duration": 0.07499999999998863
                },
                {
                    "name": "A5",
                    "midi": 81,
                    "time": 257.17499999999444,
                    "velocity": 0.30708661417322836,
                    "duration": 0.07499999999998863
                },
                {
                    "name": "A6",
                    "midi": 93,
                    "time": 257.24999999999443,
                    "velocity": 0.3858267716535433,
                    "duration": 0.07499999999998863
                },
                {
                    "name": "A5",
                    "midi": 81,
                    "time": 257.3249999999944,
                    "velocity": 0.30708661417322836,
                    "duration": 0.07499999999998863
                },
                {
                    "name": "F#6",
                    "midi": 90,
                    "time": 257.3999999999944,
                    "velocity": 0.3858267716535433,
                    "duration": 0.07499999999998863
                },
                {
                    "name": "F#5",
                    "midi": 78,
                    "time": 257.4749999999944,
                    "velocity": 0.29133858267716534,
                    "duration": 0.07499999999998863
                },
                {
                    "name": "F#6",
                    "midi": 90,
                    "time": 257.5499999999944,
                    "velocity": 0.33070866141732286,
                    "duration": 0.07499999999998863
                },
                {
                    "name": "F#5",
                    "midi": 78,
                    "time": 257.6249999999944,
                    "velocity": 0.2755905511811024,
                    "duration": 0.07499999999998863
                },
                {
                    "name": "F#6",
                    "midi": 90,
                    "time": 257.69999999999436,
                    "velocity": 0.3228346456692913,
                    "duration": 0.07499999999998863
                },
                {
                    "name": "F#5",
                    "midi": 78,
                    "time": 257.77499999999435,
                    "velocity": 0.2677165354330709,
                    "duration": 0.07499999999998863
                },
                {
                    "name": "F#6",
                    "midi": 90,
                    "time": 257.84999999999434,
                    "velocity": 0.3228346456692913,
                    "duration": 0.07499999999998863
                },
                {
                    "name": "F#5",
                    "midi": 78,
                    "time": 257.9249999999943,
                    "velocity": 0.2677165354330709,
                    "duration": 0.07499999999998863
                },
                {
                    "name": "F#6",
                    "midi": 90,
                    "time": 257.9999999999943,
                    "velocity": 0.31496062992125984,
                    "duration": 0.07499999999998863
                },
                {
                    "name": "F#5",
                    "midi": 78,
                    "time": 258.0749999999943,
                    "velocity": 0.25984251968503935,
                    "duration": 0.07499999999998863
                },
                {
                    "name": "F#6",
                    "midi": 90,
                    "time": 258.1499999999943,
                    "velocity": 0.31496062992125984,
                    "duration": 0.07499999999998863
                },
                {
                    "name": "F#5",
                    "midi": 78,
                    "time": 258.2249999999943,
                    "velocity": 0.25984251968503935,
                    "duration": 0.07499999999998863
                },
                {
                    "name": "F#6",
                    "midi": 90,
                    "time": 258.29999999999427,
                    "velocity": 0.30708661417322836,
                    "duration": 0.07499999999998863
                },
                {
                    "name": "F#5",
                    "midi": 78,
                    "time": 258.37499999999426,
                    "velocity": 0.25196850393700787,
                    "duration": 0.07499999999998863
                },
                {
                    "name": "F#6",
                    "midi": 90,
                    "time": 258.44999999999425,
                    "velocity": 0.29133858267716534,
                    "duration": 0.07499999999998863
                },
                {
                    "name": "F#5",
                    "midi": 78,
                    "time": 258.52499999999424,
                    "velocity": 0.2440944881889764,
                    "duration": 0.07499999999998863
                },
                {
                    "name": "F#6",
                    "midi": 90,
                    "time": 258.5999999999942,
                    "velocity": 0.29133858267716534,
                    "duration": 0.07499999999998863
                },
                {
                    "name": "F#5",
                    "midi": 78,
                    "time": 258.6749999999942,
                    "velocity": 0.2283464566929134,
                    "duration": 0.07499999999998863
                },
                {
                    "name": "F#6",
                    "midi": 90,
                    "time": 258.7499999999942,
                    "velocity": 0.28346456692913385,
                    "duration": 0.07499999999998863
                },
                {
                    "name": "F#5",
                    "midi": 78,
                    "time": 258.8249999999942,
                    "velocity": 0.2283464566929134,
                    "duration": 0.07499999999998863
                },
                {
                    "name": "F#6",
                    "midi": 90,
                    "time": 258.8999999999942,
                    "velocity": 0.28346456692913385,
                    "duration": 0.07499999999998863
                },
                {
                    "name": "F#5",
                    "midi": 78,
                    "time": 258.97499999999417,
                    "velocity": 0.2440944881889764,
                    "duration": 0.07499999999998863
                },
                {
                    "name": "F#6",
                    "midi": 90,
                    "time": 259.04999999999416,
                    "velocity": 0.2755905511811024,
                    "duration": 0.07499999999998863
                },
                {
                    "name": "F#5",
                    "midi": 78,
                    "time": 259.12499999999415,
                    "velocity": 0.2204724409448819,
                    "duration": 0.07499999999998863
                },
                {
                    "name": "F#6",
                    "midi": 90,
                    "time": 259.19999999999413,
                    "velocity": 0.2677165354330709,
                    "duration": 0.07499999999998863
                },
                {
                    "name": "F#5",
                    "midi": 78,
                    "time": 259.2749999999941,
                    "velocity": 0.2125984251968504,
                    "duration": 0.07499999999998863
                },
                {
                    "name": "F#6",
                    "midi": 90,
                    "time": 259.3499999999941,
                    "velocity": 0.2677165354330709,
                    "duration": 0.07499999999998863
                },
                {
                    "name": "F#5",
                    "midi": 78,
                    "time": 259.4249999999941,
                    "velocity": 0.2047244094488189,
                    "duration": 0.07499999999998863
                },
                {
                    "name": "F#6",
                    "midi": 90,
                    "time": 259.4999999999941,
                    "velocity": 0.2677165354330709,
                    "duration": 0.07499999999998863
                },
                {
                    "name": "F#5",
                    "midi": 78,
                    "time": 259.5749999999941,
                    "velocity": 0.2125984251968504,
                    "duration": 0.07499999999998863
                },
                {
                    "name": "F#6",
                    "midi": 90,
                    "time": 259.64999999999407,
                    "velocity": 0.2677165354330709,
                    "duration": 0.07499999999998863
                },
                {
                    "name": "F#5",
                    "midi": 78,
                    "time": 259.72499999999405,
                    "velocity": 0.2047244094488189,
                    "duration": 0.07499999999998863
                },
                {
                    "name": "E6",
                    "midi": 88,
                    "time": 259.79999999999404,
                    "velocity": 0.4094488188976378,
                    "duration": 0.07499999999998863
                },
                {
                    "name": "E5",
                    "midi": 76,
                    "time": 259.87499999999403,
                    "velocity": 0.33070866141732286,
                    "duration": 0.07499999999998863
                },
                {
                    "name": "E6",
                    "midi": 88,
                    "time": 259.949999999994,
                    "velocity": 0.4094488188976378,
                    "duration": 0.07499999999998863
                },
                {
                    "name": "E5",
                    "midi": 76,
                    "time": 260.024999999994,
                    "velocity": 0.33070866141732286,
                    "duration": 0.07499999999998863
                },
                {
                    "name": "E6",
                    "midi": 88,
                    "time": 260.099999999994,
                    "velocity": 0.4094488188976378,
                    "duration": 0.07499999999998863
                },
                {
                    "name": "E5",
                    "midi": 76,
                    "time": 260.174999999994,
                    "velocity": 0.3464566929133858,
                    "duration": 0.07499999999998863
                },
                {
                    "name": "E6",
                    "midi": 88,
                    "time": 260.249999999994,
                    "velocity": 0.4094488188976378,
                    "duration": 0.07499999999998863
                },
                {
                    "name": "E5",
                    "midi": 76,
                    "time": 260.32499999999396,
                    "velocity": 0.3464566929133858,
                    "duration": 0.07499999999998863
                },
                {
                    "name": "E6",
                    "midi": 88,
                    "time": 260.39999999999395,
                    "velocity": 0.4094488188976378,
                    "duration": 0.07499999999998863
                },
                {
                    "name": "E5",
                    "midi": 76,
                    "time": 260.47499999999394,
                    "velocity": 0.3464566929133858,
                    "duration": 0.07499999999998863
                },
                {
                    "name": "E6",
                    "midi": 88,
                    "time": 260.54999999999393,
                    "velocity": 0.4094488188976378,
                    "duration": 0.07499999999998863
                },
                {
                    "name": "E5",
                    "midi": 76,
                    "time": 260.6249999999939,
                    "velocity": 0.33070866141732286,
                    "duration": 0.07499999999998863
                },
                {
                    "name": "E6",
                    "midi": 88,
                    "time": 260.6999999999939,
                    "velocity": 0.4094488188976378,
                    "duration": 0.07499999999998863
                },
                {
                    "name": "E5",
                    "midi": 76,
                    "time": 260.7749999999939,
                    "velocity": 0.33858267716535434,
                    "duration": 0.07499999999998863
                },
                {
                    "name": "E6",
                    "midi": 88,
                    "time": 260.8499999999939,
                    "velocity": 0.4094488188976378,
                    "duration": 0.07499999999998863
                },
                {
                    "name": "E5",
                    "midi": 76,
                    "time": 260.9249999999939,
                    "velocity": 0.33858267716535434,
                    "duration": 0.07499999999998863
                },
                {
                    "name": "C#6",
                    "midi": 85,
                    "time": 260.99999999999386,
                    "velocity": 0.3937007874015748,
                    "duration": 0.07499999999998863
                },
                {
                    "name": "C#5",
                    "midi": 73,
                    "time": 261.07499999999385,
                    "velocity": 0.3228346456692913,
                    "duration": 0.07499999999998863
                },
                {
                    "name": "C#6",
                    "midi": 85,
                    "time": 261.14999999999384,
                    "velocity": 0.3937007874015748,
                    "duration": 0.07499999999998863
                },
                {
                    "name": "C#5",
                    "midi": 73,
                    "time": 261.2249999999938,
                    "velocity": 0.33070866141732286,
                    "duration": 0.07499999999998863
                },
                {
                    "name": "C#6",
                    "midi": 85,
                    "time": 261.2999999999938,
                    "velocity": 0.3937007874015748,
                    "duration": 0.07499999999998863
                },
                {
                    "name": "C#5",
                    "midi": 73,
                    "time": 261.3749999999938,
                    "velocity": 0.33070866141732286,
                    "duration": 0.07499999999998863
                },
                {
                    "name": "C#6",
                    "midi": 85,
                    "time": 261.4499999999938,
                    "velocity": 0.3937007874015748,
                    "duration": 0.07499999999998863
                },
                {
                    "name": "C#5",
                    "midi": 73,
                    "time": 261.5249999999938,
                    "velocity": 0.33070866141732286,
                    "duration": 0.07499999999998863
                },
                {
                    "name": "E6",
                    "midi": 88,
                    "time": 261.59999999999377,
                    "velocity": 0.4094488188976378,
                    "duration": 0.07499999999998863
                },
                {
                    "name": "E5",
                    "midi": 76,
                    "time": 261.67499999999376,
                    "velocity": 0.3464566929133858,
                    "duration": 0.07499999999998863
                },
                {
                    "name": "E6",
                    "midi": 88,
                    "time": 261.74999999999375,
                    "velocity": 0.4094488188976378,
                    "duration": 0.07499999999998863
                },
                {
                    "name": "E5",
                    "midi": 76,
                    "time": 261.82499999999374,
                    "velocity": 0.3464566929133858,
                    "duration": 0.07499999999998863
                },
                {
                    "name": "E6",
                    "midi": 88,
                    "time": 261.8999999999937,
                    "velocity": 0.4094488188976378,
                    "duration": 0.07499999999998863
                },
                {
                    "name": "E5",
                    "midi": 76,
                    "time": 261.9749999999937,
                    "velocity": 0.3464566929133858,
                    "duration": 0.07499999999998863
                },
                {
                    "name": "E6",
                    "midi": 88,
                    "time": 262.0499999999937,
                    "velocity": 0.4094488188976378,
                    "duration": 0.07499999999998863
                },
                {
                    "name": "E5",
                    "midi": 76,
                    "time": 262.1249999999937,
                    "velocity": 0.33858267716535434,
                    "duration": 0.07499999999998863
                },
                {
                    "name": "E6",
                    "midi": 88,
                    "time": 262.1999999999937,
                    "velocity": 0.4566929133858268,
                    "duration": 0.07499999999998863
                },
                {
                    "name": "E5",
                    "midi": 76,
                    "time": 262.27499999999367,
                    "velocity": 0.3937007874015748,
                    "duration": 0.07499999999998863
                },
                {
                    "name": "E6",
                    "midi": 88,
                    "time": 262.34999999999366,
                    "velocity": 0.4566929133858268,
                    "duration": 0.07499999999998863
                },
                {
                    "name": "E5",
                    "midi": 76,
                    "time": 262.42499999999364,
                    "velocity": 0.3937007874015748,
                    "duration": 0.07499999999998863
                },
                {
                    "name": "E6",
                    "midi": 88,
                    "time": 262.49999999999363,
                    "velocity": 0.4566929133858268,
                    "duration": 0.07499999999998863
                },
                {
                    "name": "E5",
                    "midi": 76,
                    "time": 262.5749999999936,
                    "velocity": 0.3937007874015748,
                    "duration": 0.07499999999998863
                },
                {
                    "name": "E6",
                    "midi": 88,
                    "time": 262.6499999999936,
                    "velocity": 0.4566929133858268,
                    "duration": 0.07499999999998863
                },
                {
                    "name": "E5",
                    "midi": 76,
                    "time": 262.7249999999936,
                    "velocity": 0.4015748031496063,
                    "duration": 0.07499999999998863
                },
                {
                    "name": "C#6",
                    "midi": 85,
                    "time": 262.7999999999936,
                    "velocity": 0.4330708661417323,
                    "duration": 0.07499999999998863
                },
                {
                    "name": "C#5",
                    "midi": 73,
                    "time": 262.8749999999936,
                    "velocity": 0.36220472440944884,
                    "duration": 0.07499999999998863
                },
                {
                    "name": "C#6",
                    "midi": 85,
                    "time": 262.94999999999357,
                    "velocity": 0.4330708661417323,
                    "duration": 0.07499999999998863
                },
                {
                    "name": "C#5",
                    "midi": 73,
                    "time": 263.02499999999355,
                    "velocity": 0.3779527559055118,
                    "duration": 0.07499999999998863
                },
                {
                    "name": "C#6",
                    "midi": 85,
                    "time": 263.09999999999354,
                    "velocity": 0.4330708661417323,
                    "duration": 0.07499999999998863
                },
                {
                    "name": "C#5",
                    "midi": 73,
                    "time": 263.17499999999353,
                    "velocity": 0.3700787401574803,
                    "duration": 0.07499999999998863
                },
                {
                    "name": "C#6",
                    "midi": 85,
                    "time": 263.2499999999935,
                    "velocity": 0.4330708661417323,
                    "duration": 0.07499999999998863
                },
                {
                    "name": "C#5",
                    "midi": 73,
                    "time": 263.3249999999935,
                    "velocity": 0.3779527559055118,
                    "duration": 0.07499999999998863
                },
                {
                    "name": "C6",
                    "midi": 84,
                    "time": 263.3999999999935,
                    "velocity": 0.4409448818897638,
                    "duration": 0.07499999999998863
                },
                {
                    "name": "C5",
                    "midi": 72,
                    "time": 263.4749999999935,
                    "velocity": 0.3779527559055118,
                    "duration": 0.07499999999998863
                },
                {
                    "name": "C6",
                    "midi": 84,
                    "time": 263.5499999999935,
                    "velocity": 0.4409448818897638,
                    "duration": 0.07499999999998863
                },
                {
                    "name": "C5",
                    "midi": 72,
                    "time": 263.62499999999346,
                    "velocity": 0.3700787401574803,
                    "duration": 0.07499999999998863
                },
                {
                    "name": "C6",
                    "midi": 84,
                    "time": 263.69999999999345,
                    "velocity": 0.4409448818897638,
                    "duration": 0.07499999999998863
                },
                {
                    "name": "C5",
                    "midi": 72,
                    "time": 263.77499999999344,
                    "velocity": 0.36220472440944884,
                    "duration": 0.07499999999998863
                },
                {
                    "name": "C6",
                    "midi": 84,
                    "time": 263.84999999999343,
                    "velocity": 0.4409448818897638,
                    "duration": 0.07499999999998863
                },
                {
                    "name": "C5",
                    "midi": 72,
                    "time": 263.9249999999934,
                    "velocity": 0.3779527559055118,
                    "duration": 0.07499999999998863
                },
                {
                    "name": "B5",
                    "midi": 83,
                    "time": 263.9999999999934,
                    "velocity": 0.4330708661417323,
                    "duration": 0.07499999999998863
                },
                {
                    "name": "B4",
                    "midi": 71,
                    "time": 264.0749999999934,
                    "velocity": 0.3779527559055118,
                    "duration": 0.07499999999998863
                },
                {
                    "name": "B5",
                    "midi": 83,
                    "time": 264.1499999999934,
                    "velocity": 0.4330708661417323,
                    "duration": 0.07499999999998863
                },
                {
                    "name": "B4",
                    "midi": 71,
                    "time": 264.2249999999934,
                    "velocity": 0.3779527559055118,
                    "duration": 0.07499999999998863
                },
                {
                    "name": "B5",
                    "midi": 83,
                    "time": 264.29999999999336,
                    "velocity": 0.4330708661417323,
                    "duration": 0.07499999999998863
                },
                {
                    "name": "B4",
                    "midi": 71,
                    "time": 264.37499999999335,
                    "velocity": 0.3779527559055118,
                    "duration": 0.07499999999998863
                },
                {
                    "name": "B5",
                    "midi": 83,
                    "time": 264.44999999999334,
                    "velocity": 0.4330708661417323,
                    "duration": 0.07499999999998863
                },
                {
                    "name": "B4",
                    "midi": 71,
                    "time": 264.5249999999933,
                    "velocity": 0.3700787401574803,
                    "duration": 0.07499999999998863
                },
                {
                    "name": "A#5",
                    "midi": 82,
                    "time": 264.5999999999933,
                    "velocity": 0.3937007874015748,
                    "duration": 0.07499999999998863
                },
                {
                    "name": "A#4",
                    "midi": 70,
                    "time": 264.6749999999933,
                    "velocity": 0.33858267716535434,
                    "duration": 0.07499999999998863
                },
                {
                    "name": "A#5",
                    "midi": 82,
                    "time": 264.7499999999933,
                    "velocity": 0.3937007874015748,
                    "duration": 0.07499999999998863
                },
                {
                    "name": "A#4",
                    "midi": 70,
                    "time": 264.8249999999933,
                    "velocity": 0.3228346456692913,
                    "duration": 0.07499999999998863
                },
                {
                    "name": "A#5",
                    "midi": 82,
                    "time": 264.89999999999327,
                    "velocity": 0.3937007874015748,
                    "duration": 0.07499999999998863
                },
                {
                    "name": "A#4",
                    "midi": 70,
                    "time": 264.97499999999326,
                    "velocity": 0.3228346456692913,
                    "duration": 0.07499999999998863
                },
                {
                    "name": "A#5",
                    "midi": 82,
                    "time": 265.04999999999325,
                    "velocity": 0.3937007874015748,
                    "duration": 0.07499999999998863
                },
                {
                    "name": "A#4",
                    "midi": 70,
                    "time": 265.12499999999324,
                    "velocity": 0.33070866141732286,
                    "duration": 0.07499999999998863
                },
                {
                    "name": "A5",
                    "midi": 81,
                    "time": 265.1999999999932,
                    "velocity": 0.3700787401574803,
                    "duration": 0.07499999999998863
                },
                {
                    "name": "A4",
                    "midi": 69,
                    "time": 265.2749999999932,
                    "velocity": 0.31496062992125984,
                    "duration": 0.07499999999998863
                },
                {
                    "name": "A5",
                    "midi": 81,
                    "time": 265.3499999999932,
                    "velocity": 0.3700787401574803,
                    "duration": 0.07499999999998863
                },
                {
                    "name": "A4",
                    "midi": 69,
                    "time": 265.4249999999932,
                    "velocity": 0.31496062992125984,
                    "duration": 0.07499999999998863
                },
                {
                    "name": "A5",
                    "midi": 81,
                    "time": 265.4999999999932,
                    "velocity": 0.3700787401574803,
                    "duration": 0.07499999999998863
                },
                {
                    "name": "A4",
                    "midi": 69,
                    "time": 265.57499999999317,
                    "velocity": 0.31496062992125984,
                    "duration": 0.07499999999998863
                },
                {
                    "name": "A5",
                    "midi": 81,
                    "time": 265.64999999999316,
                    "velocity": 0.3700787401574803,
                    "duration": 0.07499999999998863
                },
                {
                    "name": "A4",
                    "midi": 69,
                    "time": 265.72499999999314,
                    "velocity": 0.3228346456692913,
                    "duration": 0.07499999999998863
                },
                {
                    "name": "G#5",
                    "midi": 80,
                    "time": 265.79999999999313,
                    "velocity": 0.4251968503937008,
                    "duration": 0.07499999999998863
                },
                {
                    "name": "G#4",
                    "midi": 68,
                    "time": 265.8749999999931,
                    "velocity": 0.36220472440944884,
                    "duration": 0.07499999999998863
                },
                {
                    "name": "G#5",
                    "midi": 80,
                    "time": 265.9499999999931,
                    "velocity": 0.4251968503937008,
                    "duration": 0.07499999999998863
                },
                {
                    "name": "G#4",
                    "midi": 68,
                    "time": 266.0249999999931,
                    "velocity": 0.3464566929133858,
                    "duration": 0.07499999999998863
                },
                {
                    "name": "G#5",
                    "midi": 80,
                    "time": 266.0999999999931,
                    "velocity": 0.4251968503937008,
                    "duration": 0.07499999999998863
                },
                {
                    "name": "G#4",
                    "midi": 68,
                    "time": 266.1749999999931,
                    "velocity": 0.3464566929133858,
                    "duration": 0.07499999999998863
                },
                {
                    "name": "G#5",
                    "midi": 80,
                    "time": 266.24999999999307,
                    "velocity": 0.4251968503937008,
                    "duration": 0.07499999999998863
                },
                {
                    "name": "G#4",
                    "midi": 68,
                    "time": 266.32499999999305,
                    "velocity": 0.36220472440944884,
                    "duration": 0.07499999999998863
                },
                {
                    "name": "G5",
                    "midi": 79,
                    "time": 266.39999999999304,
                    "velocity": 0.4251968503937008,
                    "duration": 0.07499999999998863
                },
                {
                    "name": "G4",
                    "midi": 67,
                    "time": 266.47499999999303,
                    "velocity": 0.33858267716535434,
                    "duration": 0.07499999999998863
                },
                {
                    "name": "G5",
                    "midi": 79,
                    "time": 266.549999999993,
                    "velocity": 0.3937007874015748,
                    "duration": 0.07499999999998863
                },
                {
                    "name": "G4",
                    "midi": 67,
                    "time": 266.624999999993,
                    "velocity": 0.33070866141732286,
                    "duration": 0.07499999999998863
                },
                {
                    "name": "G5",
                    "midi": 79,
                    "time": 266.699999999993,
                    "velocity": 0.3937007874015748,
                    "duration": 0.07499999999998863
                },
                {
                    "name": "G4",
                    "midi": 67,
                    "time": 266.774999999993,
                    "velocity": 0.3464566929133858,
                    "duration": 0.07499999999998863
                },
                {
                    "name": "G5",
                    "midi": 79,
                    "time": 266.849999999993,
                    "velocity": 0.3937007874015748,
                    "duration": 0.07499999999998863
                },
                {
                    "name": "G4",
                    "midi": 67,
                    "time": 266.92499999999296,
                    "velocity": 0.33070866141732286,
                    "duration": 0.07499999999998863
                },
                {
                    "name": "F5",
                    "midi": 77,
                    "time": 266.99999999999295,
                    "velocity": 0.3779527559055118,
                    "duration": 0.07499999999998863
                },
                {
                    "name": "F4",
                    "midi": 65,
                    "time": 267.07499999999294,
                    "velocity": 0.3228346456692913,
                    "duration": 0.07499999999998863
                },
                {
                    "name": "F5",
                    "midi": 77,
                    "time": 267.14999999999293,
                    "velocity": 0.3779527559055118,
                    "duration": 0.07499999999998863
                },
                {
                    "name": "F4",
                    "midi": 65,
                    "time": 267.2249999999929,
                    "velocity": 0.3228346456692913,
                    "duration": 0.07499999999998863
                },
                {
                    "name": "F5",
                    "midi": 77,
                    "time": 267.2999999999929,
                    "velocity": 0.3779527559055118,
                    "duration": 0.07499999999998863
                },
                {
                    "name": "F4",
                    "midi": 65,
                    "time": 267.3749999999929,
                    "velocity": 0.3228346456692913,
                    "duration": 0.07499999999998863
                },
                {
                    "name": "F5",
                    "midi": 77,
                    "time": 267.4499999999929,
                    "velocity": 0.36220472440944884,
                    "duration": 0.07499999999998863
                },
                {
                    "name": "F4",
                    "midi": 65,
                    "time": 267.5249999999929,
                    "velocity": 0.30708661417322836,
                    "duration": 0.07499999999998863
                },
                {
                    "name": "F5",
                    "midi": 77,
                    "time": 267.59999999999286,
                    "velocity": 0.3779527559055118,
                    "duration": 0.07499999999998863
                },
                {
                    "name": "F4",
                    "midi": 65,
                    "time": 267.67499999999285,
                    "velocity": 0.30708661417322836,
                    "duration": 0.07499999999998863
                },
                {
                    "name": "F5",
                    "midi": 77,
                    "time": 267.74999999999284,
                    "velocity": 0.3464566929133858,
                    "duration": 0.07499999999998863
                },
                {
                    "name": "F4",
                    "midi": 65,
                    "time": 267.8249999999928,
                    "velocity": 0.30708661417322836,
                    "duration": 0.07499999999998863
                },
                {
                    "name": "F5",
                    "midi": 77,
                    "time": 267.8999999999928,
                    "velocity": 0.3464566929133858,
                    "duration": 0.07499999999998863
                },
                {
                    "name": "F4",
                    "midi": 65,
                    "time": 267.9749999999928,
                    "velocity": 0.29133858267716534,
                    "duration": 0.07499999999998863
                },
                {
                    "name": "F5",
                    "midi": 77,
                    "time": 268.0499999999928,
                    "velocity": 0.3464566929133858,
                    "duration": 0.07499999999998863
                },
                {
                    "name": "F4",
                    "midi": 65,
                    "time": 268.1249999999928,
                    "velocity": 0.30708661417322836,
                    "duration": 0.07499999999998863
                },
                {
                    "name": "F#5",
                    "midi": 78,
                    "time": 268.19999999999277,
                    "velocity": 0.3228346456692913,
                    "duration": 0.07499999999998863
                },
                {
                    "name": "F#4",
                    "midi": 66,
                    "time": 268.27499999999276,
                    "velocity": 0.29133858267716534,
                    "duration": 0.07499999999998863
                },
                {
                    "name": "F#5",
                    "midi": 78,
                    "time": 268.34999999999275,
                    "velocity": 0.3228346456692913,
                    "duration": 0.07499999999998863
                },
                {
                    "name": "F#4",
                    "midi": 66,
                    "time": 268.42499999999274,
                    "velocity": 0.28346456692913385,
                    "duration": 0.07499999999998863
                },
                {
                    "name": "F#5",
                    "midi": 78,
                    "time": 268.4999999999927,
                    "velocity": 0.3228346456692913,
                    "duration": 0.07499999999998863
                },
                {
                    "name": "F#4",
                    "midi": 66,
                    "time": 268.5749999999927,
                    "velocity": 0.2677165354330709,
                    "duration": 0.07499999999998863
                },
                {
                    "name": "F#5",
                    "midi": 78,
                    "time": 268.6499999999927,
                    "velocity": 0.31496062992125984,
                    "duration": 0.07499999999998863
                },
                {
                    "name": "F#4",
                    "midi": 66,
                    "time": 268.7249999999927,
                    "velocity": 0.2677165354330709,
                    "duration": 0.07499999999998863
                },
                {
                    "name": "F#5",
                    "midi": 78,
                    "time": 268.7999999999927,
                    "velocity": 0.31496062992125984,
                    "duration": 0.07499999999998863
                },
                {
                    "name": "F#4",
                    "midi": 66,
                    "time": 268.87499999999267,
                    "velocity": 0.25196850393700787,
                    "duration": 0.07499999999998863
                },
                {
                    "name": "F#5",
                    "midi": 78,
                    "time": 268.94999999999266,
                    "velocity": 0.31496062992125984,
                    "duration": 0.07499999999998863
                },
                {
                    "name": "F#4",
                    "midi": 66,
                    "time": 269.02499999999264,
                    "velocity": 0.25196850393700787,
                    "duration": 0.07499999999998863
                },
                {
                    "name": "F#5",
                    "midi": 78,
                    "time": 269.09999999999263,
                    "velocity": 0.30708661417322836,
                    "duration": 0.07499999999998863
                },
                {
                    "name": "F#4",
                    "midi": 66,
                    "time": 269.1749999999926,
                    "velocity": 0.2440944881889764,
                    "duration": 0.07499999999998863
                },
                {
                    "name": "F#5",
                    "midi": 78,
                    "time": 269.2499999999926,
                    "velocity": 0.30708661417322836,
                    "duration": 0.07499999999998863
                },
                {
                    "name": "F#4",
                    "midi": 66,
                    "time": 269.3249999999926,
                    "velocity": 0.2440944881889764,
                    "duration": 0.07499999999998863
                },
                {
                    "name": "F#5",
                    "midi": 78,
                    "time": 269.3999999999926,
                    "velocity": 0.30708661417322836,
                    "duration": 0.07499999999998863
                },
                {
                    "name": "F#4",
                    "midi": 66,
                    "time": 269.4749999999926,
                    "velocity": 0.2204724409448819,
                    "duration": 0.07499999999998863
                },
                {
                    "name": "F#5",
                    "midi": 78,
                    "time": 269.54999999999256,
                    "velocity": 0.29133858267716534,
                    "duration": 0.07499999999998863
                },
                {
                    "name": "F#4",
                    "midi": 66,
                    "time": 269.62499999999255,
                    "velocity": 0.2204724409448819,
                    "duration": 0.07499999999998863
                },
                {
                    "name": "F#5",
                    "midi": 78,
                    "time": 269.69999999999254,
                    "velocity": 0.29133858267716534,
                    "duration": 0.07499999999998863
                },
                {
                    "name": "F#4",
                    "midi": 66,
                    "time": 269.77499999999253,
                    "velocity": 0.2204724409448819,
                    "duration": 0.07499999999998863
                },
                {
                    "name": "F#5",
                    "midi": 78,
                    "time": 269.8499999999925,
                    "velocity": 0.2677165354330709,
                    "duration": 0.07499999999998863
                },
                {
                    "name": "F#4",
                    "midi": 66,
                    "time": 269.9249999999925,
                    "velocity": 0.1968503937007874,
                    "duration": 0.07499999999998863
                },
                {
                    "name": "F#4",
                    "midi": 66,
                    "time": 269.9999999999925,
                    "velocity": 0.33858267716535434,
                    "duration": 0.14999999999997726
                },
                {
                    "name": "C5",
                    "midi": 72,
                    "time": 269.9999999999925,
                    "velocity": 0.4094488188976378,
                    "duration": 2.9999999999995453
                },
                {
                    "name": "E5",
                    "midi": 76,
                    "time": 269.9999999999925,
                    "velocity": 0.4094488188976378,
                    "duration": 1.7999999999997272
                },
                {
                    "name": "F#5",
                    "midi": 78,
                    "time": 269.9999999999925,
                    "velocity": 0.29133858267716534,
                    "duration": 0.07499999999998863
                },
                {
                    "name": "F#4",
                    "midi": 66,
                    "time": 270.0749999999925,
                    "velocity": 0.1968503937007874,
                    "duration": 0.2249999999999659
                },
                {
                    "name": "F#5",
                    "midi": 78,
                    "time": 270.1499999999925,
                    "velocity": 0.29133858267716534,
                    "duration": 0.07499999999998863
                },
                {
                    "name": "F#4",
                    "midi": 66,
                    "time": 270.22499999999246,
                    "velocity": 0.1968503937007874,
                    "duration": 0.2249999999999659
                },
                {
                    "name": "F#5",
                    "midi": 78,
                    "time": 270.29999999999245,
                    "velocity": 0.29133858267716534,
                    "duration": 0.07499999999998863
                },
                {
                    "name": "F#4",
                    "midi": 66,
                    "time": 270.37499999999244,
                    "velocity": 0.1968503937007874,
                    "duration": 0.2249999999999659
                },
                {
                    "name": "F#5",
                    "midi": 78,
                    "time": 270.44999999999243,
                    "velocity": 0.29133858267716534,
                    "duration": 0.07499999999998863
                },
                {
                    "name": "F#4",
                    "midi": 66,
                    "time": 270.5249999999924,
                    "velocity": 0.1968503937007874,
                    "duration": 0.2249999999999659
                },
                {
                    "name": "F#5",
                    "midi": 78,
                    "time": 270.5999999999924,
                    "velocity": 0.29133858267716534,
                    "duration": 0.07499999999998863
                },
                {
                    "name": "F#4",
                    "midi": 66,
                    "time": 270.6749999999924,
                    "velocity": 0.1968503937007874,
                    "duration": 0.2249999999999659
                },
                {
                    "name": "F#5",
                    "midi": 78,
                    "time": 270.7499999999924,
                    "velocity": 0.29133858267716534,
                    "duration": 0.07499999999998863
                },
                {
                    "name": "F#4",
                    "midi": 66,
                    "time": 270.8249999999924,
                    "velocity": 0.1968503937007874,
                    "duration": 0.2249999999999659
                },
                {
                    "name": "F#5",
                    "midi": 78,
                    "time": 270.89999999999236,
                    "velocity": 0.29133858267716534,
                    "duration": 0.07499999999998863
                },
                {
                    "name": "F#4",
                    "midi": 66,
                    "time": 270.97499999999235,
                    "velocity": 0.1968503937007874,
                    "duration": 0.2249999999999659
                },
                {
                    "name": "F#5",
                    "midi": 78,
                    "time": 271.04999999999234,
                    "velocity": 0.29133858267716534,
                    "duration": 0.07499999999998863
                },
                {
                    "name": "F#4",
                    "midi": 66,
                    "time": 271.1249999999923,
                    "velocity": 0.1968503937007874,
                    "duration": 0.2249999999999659
                },
                {
                    "name": "F#5",
                    "midi": 78,
                    "time": 271.1999999999923,
                    "velocity": 0.29133858267716534,
                    "duration": 0.07499999999998863
                },
                {
                    "name": "F#4",
                    "midi": 66,
                    "time": 271.2749999999923,
                    "velocity": 0.1968503937007874,
                    "duration": 0.2249999999999659
                },
                {
                    "name": "F#5",
                    "midi": 78,
                    "time": 271.3499999999923,
                    "velocity": 0.29133858267716534,
                    "duration": 0.07499999999998863
                },
                {
                    "name": "F#4",
                    "midi": 66,
                    "time": 271.4249999999923,
                    "velocity": 0.1968503937007874,
                    "duration": 0.2249999999999659
                },
                {
                    "name": "F#5",
                    "midi": 78,
                    "time": 271.49999999999227,
                    "velocity": 0.29133858267716534,
                    "duration": 0.07499999999998863
                },
                {
                    "name": "F#4",
                    "midi": 66,
                    "time": 271.57499999999226,
                    "velocity": 0.1968503937007874,
                    "duration": 0.2249999999999659
                },
                {
                    "name": "F#5",
                    "midi": 78,
                    "time": 271.64999999999225,
                    "velocity": 0.29133858267716534,
                    "duration": 0.07499999999998863
                },
                {
                    "name": "F#4",
                    "midi": 66,
                    "time": 271.72499999999224,
                    "velocity": 0.1968503937007874,
                    "duration": 0.2249999999999659
                },
                {
                    "name": "D5",
                    "midi": 74,
                    "time": 271.7999999999922,
                    "velocity": 0.3937007874015748,
                    "duration": 1.199999999999818
                },
                {
                    "name": "F#5",
                    "midi": 78,
                    "time": 271.7999999999922,
                    "velocity": 0.3937007874015748,
                    "duration": 0.07499999999998863
                },
                {
                    "name": "F#4",
                    "midi": 66,
                    "time": 271.8749999999922,
                    "velocity": 0.1968503937007874,
                    "duration": 0.2249999999999659
                },
                {
                    "name": "F#5",
                    "midi": 78,
                    "time": 271.9499999999922,
                    "velocity": 0.29133858267716534,
                    "duration": 0.07499999999998863
                },
                {
                    "name": "F#4",
                    "midi": 66,
                    "time": 272.0249999999922,
                    "velocity": 0.1968503937007874,
                    "duration": 0.2249999999999659
                },
                {
                    "name": "F#5",
                    "midi": 78,
                    "time": 272.0999999999922,
                    "velocity": 0.29133858267716534,
                    "duration": 0.07499999999998863
                },
                {
                    "name": "F#4",
                    "midi": 66,
                    "time": 272.17499999999217,
                    "velocity": 0.1968503937007874,
                    "duration": 0.2249999999999659
                },
                {
                    "name": "F#5",
                    "midi": 78,
                    "time": 272.24999999999216,
                    "velocity": 0.29133858267716534,
                    "duration": 0.07499999999998863
                },
                {
                    "name": "F#4",
                    "midi": 66,
                    "time": 272.32499999999214,
                    "velocity": 0.1968503937007874,
                    "duration": 0.2249999999999659
                },
                {
                    "name": "F#5",
                    "midi": 78,
                    "time": 272.39999999999213,
                    "velocity": 0.29133858267716534,
                    "duration": 0.07499999999998863
                },
                {
                    "name": "F#4",
                    "midi": 66,
                    "time": 272.4749999999921,
                    "velocity": 0.1968503937007874,
                    "duration": 0.2249999999999659
                },
                {
                    "name": "F#5",
                    "midi": 78,
                    "time": 272.5499999999921,
                    "velocity": 0.29133858267716534,
                    "duration": 0.07499999999998863
                },
                {
                    "name": "F#4",
                    "midi": 66,
                    "time": 272.6249999999921,
                    "velocity": 0.1968503937007874,
                    "duration": 0.2249999999999659
                },
                {
                    "name": "F#5",
                    "midi": 78,
                    "time": 272.6999999999921,
                    "velocity": 0.29133858267716534,
                    "duration": 0.07499999999998863
                },
                {
                    "name": "F#4",
                    "midi": 66,
                    "time": 272.7749999999921,
                    "velocity": 0.1968503937007874,
                    "duration": 0.2249999999999659
                },
                {
                    "name": "F#5",
                    "midi": 78,
                    "time": 272.84999999999206,
                    "velocity": 0.29133858267716534,
                    "duration": 0.07499999999998863
                },
                {
                    "name": "F#4",
                    "midi": 66,
                    "time": 272.92499999999205,
                    "velocity": 0.1968503937007874,
                    "duration": 0.2249999999999659
                },
                {
                    "name": "C5",
                    "midi": 72,
                    "time": 272.99999999999204,
                    "velocity": 0.3779527559055118,
                    "duration": 0.599999999999909
                },
                {
                    "name": "F#5",
                    "midi": 78,
                    "time": 272.99999999999204,
                    "velocity": 0.3779527559055118,
                    "duration": 0.07499999999998863
                },
                {
                    "name": "F#4",
                    "midi": 66,
                    "time": 273.07499999999203,
                    "velocity": 0.1968503937007874,
                    "duration": 0.2249999999999659
                },
                {
                    "name": "F#5",
                    "midi": 78,
                    "time": 273.149999999992,
                    "velocity": 0.29133858267716534,
                    "duration": 0.07499999999998863
                },
                {
                    "name": "F#4",
                    "midi": 66,
                    "time": 273.224999999992,
                    "velocity": 0.1968503937007874,
                    "duration": 0.2249999999999659
                },
                {
                    "name": "F#5",
                    "midi": 78,
                    "time": 273.299999999992,
                    "velocity": 0.29133858267716534,
                    "duration": 0.07499999999998863
                },
                {
                    "name": "F#4",
                    "midi": 66,
                    "time": 273.374999999992,
                    "velocity": 0.1968503937007874,
                    "duration": 0.2249999999999659
                },
                {
                    "name": "F#5",
                    "midi": 78,
                    "time": 273.449999999992,
                    "velocity": 0.29133858267716534,
                    "duration": 0.07499999999998863
                },
                {
                    "name": "F#4",
                    "midi": 66,
                    "time": 273.52499999999196,
                    "velocity": 0.1968503937007874,
                    "duration": 0.07499999999998863
                },
                {
                    "name": "F#5",
                    "midi": 78,
                    "time": 273.59999999999195,
                    "velocity": 0.3779527559055118,
                    "duration": 0.2249999999999659
                },
                {
                    "name": "F#4",
                    "midi": 66,
                    "time": 273.59999999999195,
                    "velocity": 0.29133858267716534,
                    "duration": 0.14999999999997726
                },
                {
                    "name": "A#4",
                    "midi": 70,
                    "time": 273.59999999999195,
                    "velocity": 0.29133858267716534,
                    "duration": 0.599999999999909
                },
                {
                    "name": "C#5",
                    "midi": 73,
                    "time": 273.59999999999195,
                    "velocity": 0.29133858267716534,
                    "duration": 0.599999999999909
                },
                {
                    "name": "F#4",
                    "midi": 66,
                    "time": 273.67499999999194,
                    "velocity": 0.1968503937007874,
                    "duration": 0.2249999999999659
                },
                {
                    "name": "F#5",
                    "midi": 78,
                    "time": 273.7499999999919,
                    "velocity": 0.29133858267716534,
                    "duration": 0.2249999999999659
                },
                {
                    "name": "F#4",
                    "midi": 66,
                    "time": 273.8249999999919,
                    "velocity": 0.1968503937007874,
                    "duration": 0.2249999999999659
                },
                {
                    "name": "F#5",
                    "midi": 78,
                    "time": 273.8999999999919,
                    "velocity": 0.29133858267716534,
                    "duration": 0.2249999999999659
                },
                {
                    "name": "F#4",
                    "midi": 66,
                    "time": 273.9749999999919,
                    "velocity": 0.1968503937007874,
                    "duration": 0.2249999999999659
                },
                {
                    "name": "F#5",
                    "midi": 78,
                    "time": 274.0499999999919,
                    "velocity": 0.29133858267716534,
                    "duration": 0.14999999999997726
                },
                {
                    "name": "F#4",
                    "midi": 66,
                    "time": 274.12499999999187,
                    "velocity": 0.1968503937007874,
                    "duration": 0.07499999999998863
                },
                {
                    "name": "F#5",
                    "midi": 78,
                    "time": 274.19999999999186,
                    "velocity": 0.25196850393700787,
                    "duration": 0.07499999999998863
                },
                {
                    "name": "F#4",
                    "midi": 66,
                    "time": 274.27499999999185,
                    "velocity": 0.15748031496062992,
                    "duration": 0.07499999999998863
                },
                {
                    "name": "F#5",
                    "midi": 78,
                    "time": 274.34999999999184,
                    "velocity": 0.25196850393700787,
                    "duration": 0.07499999999998863
                },
                {
                    "name": "F#4",
                    "midi": 66,
                    "time": 274.4249999999918,
                    "velocity": 0.15748031496062992,
                    "duration": 0.07499999999998863
                },
                {
                    "name": "F#5",
                    "midi": 78,
                    "time": 274.4999999999918,
                    "velocity": 0.25196850393700787,
                    "duration": 0.07499999999998863
                },
                {
                    "name": "F#4",
                    "midi": 66,
                    "time": 274.5749999999918,
                    "velocity": 0.15748031496062992,
                    "duration": 0.07499999999998863
                },
                {
                    "name": "F#5",
                    "midi": 78,
                    "time": 274.6499999999918,
                    "velocity": 0.25196850393700787,
                    "duration": 0.07499999999998863
                },
                {
                    "name": "F#4",
                    "midi": 66,
                    "time": 274.7249999999918,
                    "velocity": 0.16535433070866143,
                    "duration": 0.07499999999998863
                },
                {
                    "name": "F#5",
                    "midi": 78,
                    "time": 274.79999999999177,
                    "velocity": 0.25984251968503935,
                    "duration": 0.07499999999998863
                },
                {
                    "name": "F#4",
                    "midi": 66,
                    "time": 274.87499999999176,
                    "velocity": 0.16535433070866143,
                    "duration": 0.07499999999998863
                },
                {
                    "name": "F#5",
                    "midi": 78,
                    "time": 274.94999999999175,
                    "velocity": 0.25984251968503935,
                    "duration": 0.07499999999998863
                },
                {
                    "name": "F#4",
                    "midi": 66,
                    "time": 275.02499999999173,
                    "velocity": 0.16535433070866143,
                    "duration": 0.07499999999998863
                },
                {
                    "name": "F#5",
                    "midi": 78,
                    "time": 275.0999999999917,
                    "velocity": 0.25984251968503935,
                    "duration": 0.07499999999998863
                },
                {
                    "name": "F#4",
                    "midi": 66,
                    "time": 275.1749999999917,
                    "velocity": 0.16535433070866143,
                    "duration": 0.07499999999998863
                },
                {
                    "name": "F#5",
                    "midi": 78,
                    "time": 275.2499999999917,
                    "velocity": 0.25984251968503935,
                    "duration": 0.07499999999998863
                },
                {
                    "name": "F#4",
                    "midi": 66,
                    "time": 275.3249999999917,
                    "velocity": 0.16535433070866143,
                    "duration": 0.07499999999998863
                },
                {
                    "name": "F#5",
                    "midi": 78,
                    "time": 275.3999999999917,
                    "velocity": 0.2677165354330709,
                    "duration": 0.07499999999998863
                },
                {
                    "name": "F#4",
                    "midi": 66,
                    "time": 275.47499999999167,
                    "velocity": 0.18110236220472442,
                    "duration": 0.07499999999998863
                },
                {
                    "name": "F#5",
                    "midi": 78,
                    "time": 275.54999999999166,
                    "velocity": 0.2677165354330709,
                    "duration": 0.07499999999998863
                },
                {
                    "name": "F#4",
                    "midi": 66,
                    "time": 275.62499999999164,
                    "velocity": 0.18110236220472442,
                    "duration": 0.07499999999998863
                },
                {
                    "name": "F#5",
                    "midi": 78,
                    "time": 275.69999999999163,
                    "velocity": 0.2677165354330709,
                    "duration": 0.07499999999998863
                },
                {
                    "name": "F#4",
                    "midi": 66,
                    "time": 275.7749999999916,
                    "velocity": 0.18110236220472442,
                    "duration": 0.07499999999998863
                },
                {
                    "name": "F#5",
                    "midi": 78,
                    "time": 275.8499999999916,
                    "velocity": 0.2677165354330709,
                    "duration": 0.07499999999998863
                },
                {
                    "name": "F#4",
                    "midi": 66,
                    "time": 275.9249999999916,
                    "velocity": 0.18110236220472442,
                    "duration": 0.07499999999998863
                },
                {
                    "name": "F#5",
                    "midi": 78,
                    "time": 275.9999999999916,
                    "velocity": 0.2755905511811024,
                    "duration": 0.07499999999998863
                },
                {
                    "name": "F#4",
                    "midi": 66,
                    "time": 276.0749999999916,
                    "velocity": 0.18110236220472442,
                    "duration": 0.07499999999998863
                },
                {
                    "name": "F#5",
                    "midi": 78,
                    "time": 276.14999999999156,
                    "velocity": 0.2755905511811024,
                    "duration": 0.07499999999998863
                },
                {
                    "name": "F#4",
                    "midi": 66,
                    "time": 276.22499999999155,
                    "velocity": 0.18110236220472442,
                    "duration": 0.07499999999998863
                },
                {
                    "name": "F#5",
                    "midi": 78,
                    "time": 276.29999999999154,
                    "velocity": 0.2755905511811024,
                    "duration": 0.07499999999998863
                },
                {
                    "name": "F#4",
                    "midi": 66,
                    "time": 276.37499999999153,
                    "velocity": 0.18110236220472442,
                    "duration": 0.07499999999998863
                },
                {
                    "name": "F#5",
                    "midi": 78,
                    "time": 276.4499999999915,
                    "velocity": 0.2755905511811024,
                    "duration": 0.07499999999998863
                },
                {
                    "name": "F#4",
                    "midi": 66,
                    "time": 276.5249999999915,
                    "velocity": 0.1889763779527559,
                    "duration": 0.07499999999998863
                },
                {
                    "name": "F#5",
                    "midi": 78,
                    "time": 276.5999999999915,
                    "velocity": 0.28346456692913385,
                    "duration": 0.07499999999998863
                },
                {
                    "name": "F#4",
                    "midi": 66,
                    "time": 276.6749999999915,
                    "velocity": 0.1889763779527559,
                    "duration": 0.07499999999998863
                },
                {
                    "name": "F#5",
                    "midi": 78,
                    "time": 276.7499999999915,
                    "velocity": 0.28346456692913385,
                    "duration": 0.07499999999998863
                },
                {
                    "name": "F#4",
                    "midi": 66,
                    "time": 276.82499999999146,
                    "velocity": 0.1889763779527559,
                    "duration": 0.07499999999998863
                },
                {
                    "name": "F#5",
                    "midi": 78,
                    "time": 276.89999999999145,
                    "velocity": 0.28346456692913385,
                    "duration": 0.07499999999998863
                },
                {
                    "name": "F#4",
                    "midi": 66,
                    "time": 276.97499999999144,
                    "velocity": 0.1889763779527559,
                    "duration": 0.07499999999998863
                },
                {
                    "name": "F#5",
                    "midi": 78,
                    "time": 277.0499999999914,
                    "velocity": 0.28346456692913385,
                    "duration": 0.07499999999998863
                },
                {
                    "name": "F#4",
                    "midi": 66,
                    "time": 277.1249999999914,
                    "velocity": 0.1889763779527559,
                    "duration": 0.07499999999998863
                },
                {
                    "name": "F#4",
                    "midi": 66,
                    "time": 277.1999999999914,
                    "velocity": 0.33858267716535434,
                    "duration": 0.14999999999997726
                },
                {
                    "name": "C5",
                    "midi": 72,
                    "time": 277.1999999999914,
                    "velocity": 0.4094488188976378,
                    "duration": 2.9999999999995453
                },
                {
                    "name": "E5",
                    "midi": 76,
                    "time": 277.1999999999914,
                    "velocity": 0.4094488188976378,
                    "duration": 1.7999999999997272
                },
                {
                    "name": "F#5",
                    "midi": 78,
                    "time": 277.1999999999914,
                    "velocity": 0.29133858267716534,
                    "duration": 0.07499999999998863
                },
                {
                    "name": "F#4",
                    "midi": 66,
                    "time": 277.2749999999914,
                    "velocity": 0.16535433070866143,
                    "duration": 0.2249999999999659
                },
                {
                    "name": "F#5",
                    "midi": 78,
                    "time": 277.3499999999914,
                    "velocity": 0.25196850393700787,
                    "duration": 0.07499999999998863
                },
                {
                    "name": "F#4",
                    "midi": 66,
                    "time": 277.42499999999137,
                    "velocity": 0.15748031496062992,
                    "duration": 0.2249999999999659
                },
                {
                    "name": "F#5",
                    "midi": 78,
                    "time": 277.49999999999136,
                    "velocity": 0.25196850393700787,
                    "duration": 0.07499999999998863
                },
                {
                    "name": "F#4",
                    "midi": 66,
                    "time": 277.57499999999135,
                    "velocity": 0.16535433070866143,
                    "duration": 0.2249999999999659
                },
                {
                    "name": "F#5",
                    "midi": 78,
                    "time": 277.64999999999134,
                    "velocity": 0.25196850393700787,
                    "duration": 0.07499999999998863
                },
                {
                    "name": "F#4",
                    "midi": 66,
                    "time": 277.7249999999913,
                    "velocity": 0.16535433070866143,
                    "duration": 0.2249999999999659
                },
                {
                    "name": "F#5",
                    "midi": 78,
                    "time": 277.7999999999913,
                    "velocity": 0.25984251968503935,
                    "duration": 0.07499999999998863
                },
                {
                    "name": "F#4",
                    "midi": 66,
                    "time": 277.8749999999913,
                    "velocity": 0.16535433070866143,
                    "duration": 0.2249999999999659
                },
                {
                    "name": "F#5",
                    "midi": 78,
                    "time": 277.9499999999913,
                    "velocity": 0.2677165354330709,
                    "duration": 0.07499999999998863
                },
                {
                    "name": "F#4",
                    "midi": 66,
                    "time": 278.0249999999913,
                    "velocity": 0.16535433070866143,
                    "duration": 0.2249999999999659
                },
                {
                    "name": "F#5",
                    "midi": 78,
                    "time": 278.09999999999127,
                    "velocity": 0.2677165354330709,
                    "duration": 0.07499999999998863
                },
                {
                    "name": "F#4",
                    "midi": 66,
                    "time": 278.17499999999126,
                    "velocity": 0.16535433070866143,
                    "duration": 0.2249999999999659
                },
                {
                    "name": "F#5",
                    "midi": 78,
                    "time": 278.24999999999125,
                    "velocity": 0.2755905511811024,
                    "duration": 0.07499999999998863
                },
                {
                    "name": "F#4",
                    "midi": 66,
                    "time": 278.32499999999123,
                    "velocity": 0.18110236220472442,
                    "duration": 0.2249999999999659
                },
                {
                    "name": "F#5",
                    "midi": 78,
                    "time": 278.3999999999912,
                    "velocity": 0.2755905511811024,
                    "duration": 0.07499999999998863
                },
                {
                    "name": "F#4",
                    "midi": 66,
                    "time": 278.4749999999912,
                    "velocity": 0.18110236220472442,
                    "duration": 0.2249999999999659
                },
                {
                    "name": "F#5",
                    "midi": 78,
                    "time": 278.5499999999912,
                    "velocity": 0.2755905511811024,
                    "duration": 0.07499999999998863
                },
                {
                    "name": "F#4",
                    "midi": 66,
                    "time": 278.6249999999912,
                    "velocity": 0.18110236220472442,
                    "duration": 0.2249999999999659
                },
                {
                    "name": "F#5",
                    "midi": 78,
                    "time": 278.6999999999912,
                    "velocity": 0.2755905511811024,
                    "duration": 0.07499999999998863
                },
                {
                    "name": "F#4",
                    "midi": 66,
                    "time": 278.77499999999117,
                    "velocity": 0.1968503937007874,
                    "duration": 0.2249999999999659
                },
                {
                    "name": "F#5",
                    "midi": 78,
                    "time": 278.84999999999116,
                    "velocity": 0.28346456692913385,
                    "duration": 0.07499999999998863
                },
                {
                    "name": "F#4",
                    "midi": 66,
                    "time": 278.92499999999114,
                    "velocity": 0.1968503937007874,
                    "duration": 0.2249999999999659
                },
                {
                    "name": "D5",
                    "midi": 74,
                    "time": 278.99999999999113,
                    "velocity": 0.3937007874015748,
                    "duration": 1.199999999999818
                },
                {
                    "name": "F#5",
                    "midi": 78,
                    "time": 278.99999999999113,
                    "velocity": 0.3937007874015748,
                    "duration": 0.07499999999998863
                },
                {
                    "name": "F#4",
                    "midi": 66,
                    "time": 279.0749999999911,
                    "velocity": 0.1968503937007874,
                    "duration": 0.2249999999999659
                },
                {
                    "name": "F#5",
                    "midi": 78,
                    "time": 279.1499999999911,
                    "velocity": 0.29133858267716534,
                    "duration": 0.07499999999998863
                },
                {
                    "name": "F#4",
                    "midi": 66,
                    "time": 279.2249999999911,
                    "velocity": 0.1968503937007874,
                    "duration": 0.2249999999999659
                },
                {
                    "name": "F#5",
                    "midi": 78,
                    "time": 279.2999999999911,
                    "velocity": 0.29133858267716534,
                    "duration": 0.07499999999998863
                },
                {
                    "name": "F#4",
                    "midi": 66,
                    "time": 279.3749999999911,
                    "velocity": 0.1968503937007874,
                    "duration": 0.2249999999999659
                },
                {
                    "name": "F#5",
                    "midi": 78,
                    "time": 279.44999999999106,
                    "velocity": 0.29133858267716534,
                    "duration": 0.07499999999998863
                },
                {
                    "name": "F#4",
                    "midi": 66,
                    "time": 279.52499999999105,
                    "velocity": 0.1968503937007874,
                    "duration": 0.2249999999999659
                },
                {
                    "name": "F#5",
                    "midi": 78,
                    "time": 279.59999999999104,
                    "velocity": 0.28346456692913385,
                    "duration": 0.07499999999998863
                },
                {
                    "name": "F#4",
                    "midi": 66,
                    "time": 279.67499999999103,
                    "velocity": 0.1968503937007874,
                    "duration": 0.2249999999999659
                },
                {
                    "name": "F#5",
                    "midi": 78,
                    "time": 279.749999999991,
                    "velocity": 0.28346456692913385,
                    "duration": 0.07499999999998863
                },
                {
                    "name": "F#4",
                    "midi": 66,
                    "time": 279.824999999991,
                    "velocity": 0.1968503937007874,
                    "duration": 0.2249999999999659
                },
                {
                    "name": "F#5",
                    "midi": 78,
                    "time": 279.899999999991,
                    "velocity": 0.29133858267716534,
                    "duration": 0.07499999999998863
                },
                {
                    "name": "F#4",
                    "midi": 66,
                    "time": 279.974999999991,
                    "velocity": 0.1968503937007874,
                    "duration": 0.2249999999999659
                },
                {
                    "name": "F#5",
                    "midi": 78,
                    "time": 280.049999999991,
                    "velocity": 0.29133858267716534,
                    "duration": 0.07499999999998863
                },
                {
                    "name": "F#4",
                    "midi": 66,
                    "time": 280.12499999999096,
                    "velocity": 0.1968503937007874,
                    "duration": 0.2249999999999659
                },
                {
                    "name": "C5",
                    "midi": 72,
                    "time": 280.19999999999095,
                    "velocity": 0.3779527559055118,
                    "duration": 0.599999999999909
                },
                {
                    "name": "F#5",
                    "midi": 78,
                    "time": 280.19999999999095,
                    "velocity": 0.3779527559055118,
                    "duration": 0.07499999999998863
                },
                {
                    "name": "F#4",
                    "midi": 66,
                    "time": 280.27499999999094,
                    "velocity": 0.16535433070866143,
                    "duration": 0.2249999999999659
                },
                {
                    "name": "F#5",
                    "midi": 78,
                    "time": 280.3499999999909,
                    "velocity": 0.28346456692913385,
                    "duration": 0.07499999999998863
                },
                {
                    "name": "F#4",
                    "midi": 66,
                    "time": 280.4249999999909,
                    "velocity": 0.16535433070866143,
                    "duration": 0.2249999999999659
                },
                {
                    "name": "F#5",
                    "midi": 78,
                    "time": 280.4999999999909,
                    "velocity": 0.29133858267716534,
                    "duration": 0.07499999999998863
                },
                {
                    "name": "F#4",
                    "midi": 66,
                    "time": 280.5749999999909,
                    "velocity": 0.16535433070866143,
                    "duration": 0.2249999999999659
                },
                {
                    "name": "F#5",
                    "midi": 78,
                    "time": 280.6499999999909,
                    "velocity": 0.2677165354330709,
                    "duration": 0.07499999999998863
                },
                {
                    "name": "F#4",
                    "midi": 66,
                    "time": 280.72499999999087,
                    "velocity": 0.1968503937007874,
                    "duration": 0.07499999999998863
                },
                {
                    "name": "F#5",
                    "midi": 78,
                    "time": 280.79999999999086,
                    "velocity": 0.3779527559055118,
                    "duration": 0.2249999999999659
                },
                {
                    "name": "F#4",
                    "midi": 66,
                    "time": 280.79999999999086,
                    "velocity": 0.29133858267716534,
                    "duration": 0.14999999999997726
                },
                {
                    "name": "A#4",
                    "midi": 70,
                    "time": 280.79999999999086,
                    "velocity": 0.29133858267716534,
                    "duration": 0.599999999999909
                },
                {
                    "name": "C#5",
                    "midi": 73,
                    "time": 280.79999999999086,
                    "velocity": 0.29133858267716534,
                    "duration": 0.599999999999909
                },
                {
                    "name": "F#4",
                    "midi": 66,
                    "time": 280.87499999999085,
                    "velocity": 0.1968503937007874,
                    "duration": 0.2249999999999659
                },
                {
                    "name": "F#5",
                    "midi": 78,
                    "time": 280.94999999999084,
                    "velocity": 0.29133858267716534,
                    "duration": 0.2249999999999659
                },
                {
                    "name": "F#4",
                    "midi": 66,
                    "time": 281.0249999999908,
                    "velocity": 0.1968503937007874,
                    "duration": 0.2249999999999659
                },
                {
                    "name": "F#5",
                    "midi": 78,
                    "time": 281.0999999999908,
                    "velocity": 0.28346456692913385,
                    "duration": 0.2249999999999659
                },
                {
                    "name": "F#4",
                    "midi": 66,
                    "time": 281.1749999999908,
                    "velocity": 0.1968503937007874,
                    "duration": 0.2249999999999659
                },
                {
                    "name": "F#5",
                    "midi": 78,
                    "time": 281.2499999999908,
                    "velocity": 0.2677165354330709,
                    "duration": 0.14999999999997726
                },
                {
                    "name": "F#4",
                    "midi": 66,
                    "time": 281.3249999999908,
                    "velocity": 0.1968503937007874,
                    "duration": 0.07499999999998863
                },
                {
                    "name": "F#5",
                    "midi": 78,
                    "time": 281.39999999999077,
                    "velocity": 0.25196850393700787,
                    "duration": 0.07499999999998863
                },
                {
                    "name": "F#4",
                    "midi": 66,
                    "time": 281.47499999999076,
                    "velocity": 0.15748031496062992,
                    "duration": 0.07499999999998863
                },
                {
                    "name": "F#5",
                    "midi": 78,
                    "time": 281.54999999999075,
                    "velocity": 0.25196850393700787,
                    "duration": 0.07499999999998863
                },
                {
                    "name": "F#4",
                    "midi": 66,
                    "time": 281.62499999999073,
                    "velocity": 0.15748031496062992,
                    "duration": 0.07499999999998863
                },
                {
                    "name": "F#5",
                    "midi": 78,
                    "time": 281.6999999999907,
                    "velocity": 0.25196850393700787,
                    "duration": 0.07499999999998863
                },
                {
                    "name": "F#4",
                    "midi": 66,
                    "time": 281.7749999999907,
                    "velocity": 0.15748031496062992,
                    "duration": 0.07499999999998863
                },
                {
                    "name": "F#5",
                    "midi": 78,
                    "time": 281.8499999999907,
                    "velocity": 0.25196850393700787,
                    "duration": 0.07499999999998863
                },
                {
                    "name": "F#4",
                    "midi": 66,
                    "time": 281.9249999999907,
                    "velocity": 0.16535433070866143,
                    "duration": 0.07499999999998863
                },
                {
                    "name": "F#5",
                    "midi": 78,
                    "time": 281.9999999999907,
                    "velocity": 0.25984251968503935,
                    "duration": 0.07499999999998863
                },
                {
                    "name": "F#4",
                    "midi": 66,
                    "time": 282.07499999999067,
                    "velocity": 0.16535433070866143,
                    "duration": 0.07499999999998863
                },
                {
                    "name": "F#5",
                    "midi": 78,
                    "time": 282.14999999999065,
                    "velocity": 0.25984251968503935,
                    "duration": 0.07499999999998863
                },
                {
                    "name": "F#4",
                    "midi": 66,
                    "time": 282.22499999999064,
                    "velocity": 0.16535433070866143,
                    "duration": 0.07499999999998863
                },
                {
                    "name": "F#5",
                    "midi": 78,
                    "time": 282.29999999999063,
                    "velocity": 0.25984251968503935,
                    "duration": 0.07499999999998863
                },
                {
                    "name": "F#4",
                    "midi": 66,
                    "time": 282.3749999999906,
                    "velocity": 0.16535433070866143,
                    "duration": 0.07499999999998863
                },
                {
                    "name": "F#5",
                    "midi": 78,
                    "time": 282.4499999999906,
                    "velocity": 0.25984251968503935,
                    "duration": 0.07499999999998863
                },
                {
                    "name": "F#4",
                    "midi": 66,
                    "time": 282.5249999999906,
                    "velocity": 0.16535433070866143,
                    "duration": 0.07499999999998863
                },
                {
                    "name": "F#5",
                    "midi": 78,
                    "time": 282.5999999999906,
                    "velocity": 0.2677165354330709,
                    "duration": 0.07499999999998863
                },
                {
                    "name": "F#4",
                    "midi": 66,
                    "time": 282.6749999999906,
                    "velocity": 0.18110236220472442,
                    "duration": 0.07499999999998863
                },
                {
                    "name": "F#5",
                    "midi": 78,
                    "time": 282.74999999999056,
                    "velocity": 0.2677165354330709,
                    "duration": 0.07499999999998863
                },
                {
                    "name": "F#4",
                    "midi": 66,
                    "time": 282.82499999999055,
                    "velocity": 0.18110236220472442,
                    "duration": 0.07499999999998863
                },
                {
                    "name": "F#5",
                    "midi": 78,
                    "time": 282.89999999999054,
                    "velocity": 0.2677165354330709,
                    "duration": 0.07499999999998863
                },
                {
                    "name": "F#4",
                    "midi": 66,
                    "time": 282.97499999999053,
                    "velocity": 0.18110236220472442,
                    "duration": 0.07499999999998863
                },
                {
                    "name": "F#5",
                    "midi": 78,
                    "time": 283.0499999999905,
                    "velocity": 0.2677165354330709,
                    "duration": 0.07499999999998863
                },
                {
                    "name": "F#4",
                    "midi": 66,
                    "time": 283.1249999999905,
                    "velocity": 0.18110236220472442,
                    "duration": 0.07499999999998863
                },
                {
                    "name": "F#5",
                    "midi": 78,
                    "time": 283.1999999999905,
                    "velocity": 0.2755905511811024,
                    "duration": 0.07499999999998863
                },
                {
                    "name": "F#4",
                    "midi": 66,
                    "time": 283.2749999999905,
                    "velocity": 0.18110236220472442,
                    "duration": 0.07499999999998863
                },
                {
                    "name": "F#5",
                    "midi": 78,
                    "time": 283.3499999999905,
                    "velocity": 0.2755905511811024,
                    "duration": 0.07499999999998863
                },
                {
                    "name": "F#4",
                    "midi": 66,
                    "time": 283.42499999999046,
                    "velocity": 0.18110236220472442,
                    "duration": 0.07499999999998863
                },
                {
                    "name": "F#5",
                    "midi": 78,
                    "time": 283.49999999999045,
                    "velocity": 0.2755905511811024,
                    "duration": 0.07499999999998863
                },
                {
                    "name": "F#4",
                    "midi": 66,
                    "time": 283.57499999999044,
                    "velocity": 0.18110236220472442,
                    "duration": 0.07499999999998863
                },
                {
                    "name": "F#5",
                    "midi": 78,
                    "time": 283.6499999999904,
                    "velocity": 0.2755905511811024,
                    "duration": 0.07499999999998863
                },
                {
                    "name": "F#4",
                    "midi": 66,
                    "time": 283.7249999999904,
                    "velocity": 0.1889763779527559,
                    "duration": 0.07499999999998863
                },
                {
                    "name": "F#5",
                    "midi": 78,
                    "time": 283.7999999999904,
                    "velocity": 0.28346456692913385,
                    "duration": 0.07499999999998863
                },
                {
                    "name": "F#4",
                    "midi": 66,
                    "time": 283.8749999999904,
                    "velocity": 0.1889763779527559,
                    "duration": 0.07499999999998863
                },
                {
                    "name": "F#5",
                    "midi": 78,
                    "time": 283.9499999999904,
                    "velocity": 0.28346456692913385,
                    "duration": 0.07499999999998863
                },
                {
                    "name": "F#4",
                    "midi": 66,
                    "time": 284.02499999999037,
                    "velocity": 0.1889763779527559,
                    "duration": 0.07499999999998863
                },
                {
                    "name": "F#5",
                    "midi": 78,
                    "time": 284.09999999999036,
                    "velocity": 0.28346456692913385,
                    "duration": 0.07499999999998863
                },
                {
                    "name": "F#4",
                    "midi": 66,
                    "time": 284.17499999999035,
                    "velocity": 0.1889763779527559,
                    "duration": 0.07499999999998863
                },
                {
                    "name": "F#5",
                    "midi": 78,
                    "time": 284.24999999999034,
                    "velocity": 0.28346456692913385,
                    "duration": 0.07499999999998863
                },
                {
                    "name": "F#4",
                    "midi": 66,
                    "time": 284.3249999999903,
                    "velocity": 0.1889763779527559,
                    "duration": 0.07499999999998863
                },
                {
                    "name": "F#4",
                    "midi": 66,
                    "time": 284.3999999999903,
                    "velocity": 0.33858267716535434,
                    "duration": 0.14999999999997726
                },
                {
                    "name": "C#5",
                    "midi": 73,
                    "time": 284.3999999999903,
                    "velocity": 0.4094488188976378,
                    "duration": 3.5999999999994543
                },
                {
                    "name": "D#5",
                    "midi": 75,
                    "time": 284.3999999999903,
                    "velocity": 0.4094488188976378,
                    "duration": 1.7999999999997272
                },
                {
                    "name": "F#5",
                    "midi": 78,
                    "time": 284.3999999999903,
                    "velocity": 0.29133858267716534,
                    "duration": 0.07499999999998863
                },
                {
                    "name": "F#4",
                    "midi": 66,
                    "time": 284.4749999999903,
                    "velocity": 0.1968503937007874,
                    "duration": 0.2249999999999659
                },
                {
                    "name": "F#5",
                    "midi": 78,
                    "time": 284.5499999999903,
                    "velocity": 0.29133858267716534,
                    "duration": 0.07499999999998863
                },
                {
                    "name": "F#4",
                    "midi": 66,
                    "time": 284.6249999999903,
                    "velocity": 0.1968503937007874,
                    "duration": 0.2249999999999659
                },
                {
                    "name": "F#5",
                    "midi": 78,
                    "time": 284.69999999999027,
                    "velocity": 0.29133858267716534,
                    "duration": 0.07499999999998863
                },
                {
                    "name": "F#4",
                    "midi": 66,
                    "time": 284.77499999999026,
                    "velocity": 0.1968503937007874,
                    "duration": 0.2249999999999659
                },
                {
                    "name": "F#5",
                    "midi": 78,
                    "time": 284.84999999999025,
                    "velocity": 0.29133858267716534,
                    "duration": 0.07499999999998863
                },
                {
                    "name": "F#4",
                    "midi": 66,
                    "time": 284.92499999999023,
                    "velocity": 0.1968503937007874,
                    "duration": 0.2249999999999659
                },
                {
                    "name": "F#5",
                    "midi": 78,
                    "time": 284.9999999999902,
                    "velocity": 0.29133858267716534,
                    "duration": 0.07499999999998863
                },
                {
                    "name": "F#4",
                    "midi": 66,
                    "time": 285.0749999999902,
                    "velocity": 0.1968503937007874,
                    "duration": 0.2249999999999659
                },
                {
                    "name": "F#5",
                    "midi": 78,
                    "time": 285.1499999999902,
                    "velocity": 0.29133858267716534,
                    "duration": 0.07499999999998863
                },
                {
                    "name": "F#4",
                    "midi": 66,
                    "time": 285.2249999999902,
                    "velocity": 0.1968503937007874,
                    "duration": 0.2249999999999659
                },
                {
                    "name": "F#5",
                    "midi": 78,
                    "time": 285.2999999999902,
                    "velocity": 0.29133858267716534,
                    "duration": 0.07499999999998863
                },
                {
                    "name": "F#4",
                    "midi": 66,
                    "time": 285.37499999999017,
                    "velocity": 0.1968503937007874,
                    "duration": 0.2249999999999659
                },
                {
                    "name": "F#5",
                    "midi": 78,
                    "time": 285.44999999999015,
                    "velocity": 0.29133858267716534,
                    "duration": 0.07499999999998863
                },
                {
                    "name": "F#4",
                    "midi": 66,
                    "time": 285.52499999999014,
                    "velocity": 0.1968503937007874,
                    "duration": 0.2249999999999659
                },
                {
                    "name": "F#5",
                    "midi": 78,
                    "time": 285.59999999999013,
                    "velocity": 0.29133858267716534,
                    "duration": 0.07499999999998863
                },
                {
                    "name": "F#4",
                    "midi": 66,
                    "time": 285.6749999999901,
                    "velocity": 0.1968503937007874,
                    "duration": 0.2249999999999659
                },
                {
                    "name": "F#5",
                    "midi": 78,
                    "time": 285.7499999999901,
                    "velocity": 0.29133858267716534,
                    "duration": 0.07499999999998863
                },
                {
                    "name": "F#4",
                    "midi": 66,
                    "time": 285.8249999999901,
                    "velocity": 0.1968503937007874,
                    "duration": 0.2249999999999659
                },
                {
                    "name": "F#5",
                    "midi": 78,
                    "time": 285.8999999999901,
                    "velocity": 0.30708661417322836,
                    "duration": 0.07499999999998863
                },
                {
                    "name": "F#4",
                    "midi": 66,
                    "time": 285.9749999999901,
                    "velocity": 0.1968503937007874,
                    "duration": 0.2249999999999659
                },
                {
                    "name": "F#5",
                    "midi": 78,
                    "time": 286.04999999999006,
                    "velocity": 0.30708661417322836,
                    "duration": 0.07499999999998863
                },
                {
                    "name": "F#4",
                    "midi": 66,
                    "time": 286.12499999999005,
                    "velocity": 0.1968503937007874,
                    "duration": 0.2249999999999659
                },
                {
                    "name": "A4",
                    "midi": 69,
                    "time": 286.19999999999004,
                    "velocity": 0.3700787401574803,
                    "duration": 1.199999999999818
                },
                {
                    "name": "F#5",
                    "midi": 78,
                    "time": 286.19999999999004,
                    "velocity": 0.3700787401574803,
                    "duration": 0.07499999999998863
                },
                {
                    "name": "F#4",
                    "midi": 66,
                    "time": 286.27499999999003,
                    "velocity": 0.1968503937007874,
                    "duration": 0.2249999999999659
                },
                {
                    "name": "F#5",
                    "midi": 78,
                    "time": 286.34999999999,
                    "velocity": 0.28346456692913385,
                    "duration": 0.07499999999998863
                },
                {
                    "name": "F#4",
                    "midi": 66,
                    "time": 286.42499999999,
                    "velocity": 0.1968503937007874,
                    "duration": 0.2249999999999659
                },
                {
                    "name": "F#5",
                    "midi": 78,
                    "time": 286.49999999999,
                    "velocity": 0.28346456692913385,
                    "duration": 0.07499999999998863
                },
                {
                    "name": "F#4",
                    "midi": 66,
                    "time": 286.57499999999,
                    "velocity": 0.18110236220472442,
                    "duration": 0.2249999999999659
                },
                {
                    "name": "F#5",
                    "midi": 78,
                    "time": 286.64999999999,
                    "velocity": 0.2677165354330709,
                    "duration": 0.07499999999998863
                },
                {
                    "name": "F#4",
                    "midi": 66,
                    "time": 286.72499999998996,
                    "velocity": 0.1968503937007874,
                    "duration": 0.2249999999999659
                },
                {
                    "name": "F#5",
                    "midi": 78,
                    "time": 286.79999999998995,
                    "velocity": 0.2755905511811024,
                    "duration": 0.07499999999998863
                },
                {
                    "name": "F#4",
                    "midi": 66,
                    "time": 286.87499999998994,
                    "velocity": 0.18110236220472442,
                    "duration": 0.2249999999999659
                },
                {
                    "name": "F#5",
                    "midi": 78,
                    "time": 286.9499999999899,
                    "velocity": 0.2677165354330709,
                    "duration": 0.07499999999998863
                },
                {
                    "name": "F#4",
                    "midi": 66,
                    "time": 287.0249999999899,
                    "velocity": 0.16535433070866143,
                    "duration": 0.2249999999999659
                },
                {
                    "name": "F#5",
                    "midi": 78,
                    "time": 287.0999999999899,
                    "velocity": 0.2677165354330709,
                    "duration": 0.07499999999998863
                },
                {
                    "name": "F#4",
                    "midi": 66,
                    "time": 287.1749999999899,
                    "velocity": 0.18110236220472442,
                    "duration": 0.2249999999999659
                },
                {
                    "name": "F#5",
                    "midi": 78,
                    "time": 287.2499999999899,
                    "velocity": 0.25984251968503935,
                    "duration": 0.07499999999998863
                },
                {
                    "name": "F#4",
                    "midi": 66,
                    "time": 287.32499999998987,
                    "velocity": 0.18110236220472442,
                    "duration": 0.2249999999999659
                },
                {
                    "name": "A#4",
                    "midi": 70,
                    "time": 287.39999999998986,
                    "velocity": 0.31496062992125984,
                    "duration": 0.599999999999909
                },
                {
                    "name": "F#5",
                    "midi": 78,
                    "time": 287.39999999998986,
                    "velocity": 0.31496062992125984,
                    "duration": 0.07499999999998863
                },
                {
                    "name": "F#4",
                    "midi": 66,
                    "time": 287.47499999998985,
                    "velocity": 0.1968503937007874,
                    "duration": 0.2249999999999659
                },
                {
                    "name": "F#5",
                    "midi": 78,
                    "time": 287.54999999998984,
                    "velocity": 0.25196850393700787,
                    "duration": 0.07499999999998863
                },
                {
                    "name": "F#4",
                    "midi": 66,
                    "time": 287.6249999999898,
                    "velocity": 0.16535433070866143,
                    "duration": 0.2249999999999659
                },
                {
                    "name": "F#5",
                    "midi": 78,
                    "time": 287.6999999999898,
                    "velocity": 0.25196850393700787,
                    "duration": 0.07499999999998863
                },
                {
                    "name": "F#4",
                    "midi": 66,
                    "time": 287.7749999999898,
                    "velocity": 0.15748031496062992,
                    "duration": 0.2249999999999659
                },
                {
                    "name": "F#5",
                    "midi": 78,
                    "time": 287.8499999999898,
                    "velocity": 0.2677165354330709,
                    "duration": 0.07499999999998863
                },
                {
                    "name": "F#4",
                    "midi": 66,
                    "time": 287.9249999999898,
                    "velocity": 0.18110236220472442,
                    "duration": 0.07499999999998863
                },
                {
                    "name": "F#5",
                    "midi": 78,
                    "time": 287.99999999998977,
                    "velocity": 0.33070866141732286,
                    "duration": 0.2249999999999659
                },
                {
                    "name": "F#4",
                    "midi": 66,
                    "time": 287.99999999998977,
                    "velocity": 0.25984251968503935,
                    "duration": 0.14999999999997726
                },
                {
                    "name": "A#4",
                    "midi": 70,
                    "time": 287.99999999998977,
                    "velocity": 0.25984251968503935,
                    "duration": 1.199999999999818
                },
                {
                    "name": "C#5",
                    "midi": 73,
                    "time": 287.99999999998977,
                    "velocity": 0.25984251968503935,
                    "duration": 1.199999999999818
                },
                {
                    "name": "F#4",
                    "midi": 66,
                    "time": 288.07499999998976,
                    "velocity": 0.1968503937007874,
                    "duration": 0.2249999999999659
                },
                {
                    "name": "F#5",
                    "midi": 78,
                    "time": 288.14999999998975,
                    "velocity": 0.28346456692913385,
                    "duration": 0.2249999999999659
                },
                {
                    "name": "F#4",
                    "midi": 66,
                    "time": 288.22499999998973,
                    "velocity": 0.1889763779527559,
                    "duration": 0.2249999999999659
                },
                {
                    "name": "F#5",
                    "midi": 78,
                    "time": 288.2999999999897,
                    "velocity": 0.2755905511811024,
                    "duration": 0.2249999999999659
                },
                {
                    "name": "F#4",
                    "midi": 66,
                    "time": 288.3749999999897,
                    "velocity": 0.1889763779527559,
                    "duration": 0.2249999999999659
                },
                {
                    "name": "F#5",
                    "midi": 78,
                    "time": 288.4499999999897,
                    "velocity": 0.2755905511811024,
                    "duration": 0.2249999999999659
                },
                {
                    "name": "F#4",
                    "midi": 66,
                    "time": 288.5249999999897,
                    "velocity": 0.1889763779527559,
                    "duration": 0.2249999999999659
                },
                {
                    "name": "F#5",
                    "midi": 78,
                    "time": 288.5999999999897,
                    "velocity": 0.29133858267716534,
                    "duration": 0.2249999999999659
                },
                {
                    "name": "F#4",
                    "midi": 66,
                    "time": 288.67499999998967,
                    "velocity": 0.18110236220472442,
                    "duration": 0.2249999999999659
                },
                {
                    "name": "F#5",
                    "midi": 78,
                    "time": 288.74999999998965,
                    "velocity": 0.2755905511811024,
                    "duration": 0.2249999999999659
                },
                {
                    "name": "F#4",
                    "midi": 66,
                    "time": 288.82499999998964,
                    "velocity": 0.18110236220472442,
                    "duration": 0.2249999999999659
                },
                {
                    "name": "F#5",
                    "midi": 78,
                    "time": 288.89999999998963,
                    "velocity": 0.2677165354330709,
                    "duration": 0.2249999999999659
                },
                {
                    "name": "F#4",
                    "midi": 66,
                    "time": 288.9749999999896,
                    "velocity": 0.18110236220472442,
                    "duration": 0.2249999999999659
                },
                {
                    "name": "F#5",
                    "midi": 78,
                    "time": 289.0499999999896,
                    "velocity": 0.2677165354330709,
                    "duration": 0.14999999999997726
                },
                {
                    "name": "F#4",
                    "midi": 66,
                    "time": 289.1249999999896,
                    "velocity": 0.18110236220472442,
                    "duration": 0.07499999999998863
                },
                {
                    "name": "F#5",
                    "midi": 78,
                    "time": 289.1999999999896,
                    "velocity": 0.25984251968503935,
                    "duration": 0.07499999999998863
                },
                {
                    "name": "F#4",
                    "midi": 66,
                    "time": 289.2749999999896,
                    "velocity": 0.16535433070866143,
                    "duration": 0.07499999999998863
                },
                {
                    "name": "F#5",
                    "midi": 78,
                    "time": 289.34999999998956,
                    "velocity": 0.25984251968503935,
                    "duration": 0.07499999999998863
                },
                {
                    "name": "F#4",
                    "midi": 66,
                    "time": 289.42499999998955,
                    "velocity": 0.16535433070866143,
                    "duration": 0.07499999999998863
                },
                {
                    "name": "F#5",
                    "midi": 78,
                    "time": 289.49999999998954,
                    "velocity": 0.25984251968503935,
                    "duration": 0.07499999999998863
                },
                {
                    "name": "F#4",
                    "midi": 66,
                    "time": 289.57499999998953,
                    "velocity": 0.16535433070866143,
                    "duration": 0.07499999999998863
                },
                {
                    "name": "F#5",
                    "midi": 78,
                    "time": 289.6499999999895,
                    "velocity": 0.25196850393700787,
                    "duration": 0.07499999999998863
                },
                {
                    "name": "F#4",
                    "midi": 66,
                    "time": 289.7249999999895,
                    "velocity": 0.15748031496062992,
                    "duration": 0.07499999999998863
                },
                {
                    "name": "F#5",
                    "midi": 78,
                    "time": 289.7999999999895,
                    "velocity": 0.25196850393700787,
                    "duration": 0.07499999999998863
                },
                {
                    "name": "F#4",
                    "midi": 66,
                    "time": 289.8749999999895,
                    "velocity": 0.15748031496062992,
                    "duration": 0.07499999999998863
                },
                {
                    "name": "F#5",
                    "midi": 78,
                    "time": 289.9499999999895,
                    "velocity": 0.25196850393700787,
                    "duration": 0.07499999999998863
                },
                {
                    "name": "F#4",
                    "midi": 66,
                    "time": 290.02499999998946,
                    "velocity": 0.15748031496062992,
                    "duration": 0.07499999999998863
                },
                {
                    "name": "F#5",
                    "midi": 78,
                    "time": 290.09999999998945,
                    "velocity": 0.25196850393700787,
                    "duration": 0.07499999999998863
                },
                {
                    "name": "F#4",
                    "midi": 66,
                    "time": 290.17499999998944,
                    "velocity": 0.15748031496062992,
                    "duration": 0.07499999999998863
                },
                {
                    "name": "F#5",
                    "midi": 78,
                    "time": 290.2499999999894,
                    "velocity": 0.25196850393700787,
                    "duration": 0.07499999999998863
                },
                {
                    "name": "F#4",
                    "midi": 66,
                    "time": 290.3249999999894,
                    "velocity": 0.15748031496062992,
                    "duration": 0.07499999999998863
                },
                {
                    "name": "F#5",
                    "midi": 78,
                    "time": 290.3999999999894,
                    "velocity": 0.25196850393700787,
                    "duration": 0.07499999999998863
                },
                {
                    "name": "F#4",
                    "midi": 66,
                    "time": 290.4749999999894,
                    "velocity": 0.15748031496062992,
                    "duration": 0.07499999999998863
                },
                {
                    "name": "F#5",
                    "midi": 78,
                    "time": 290.5499999999894,
                    "velocity": 0.25196850393700787,
                    "duration": 0.07499999999998863
                },
                {
                    "name": "F#4",
                    "midi": 66,
                    "time": 290.62499999998937,
                    "velocity": 0.15748031496062992,
                    "duration": 0.07499999999998863
                },
                {
                    "name": "F#5",
                    "midi": 78,
                    "time": 290.69999999998936,
                    "velocity": 0.25196850393700787,
                    "duration": 0.07499999999998863
                },
                {
                    "name": "F#4",
                    "midi": 66,
                    "time": 290.77499999998935,
                    "velocity": 0.15748031496062992,
                    "duration": 0.07499999999998863
                },
                {
                    "name": "F#5",
                    "midi": 78,
                    "time": 290.84999999998934,
                    "velocity": 0.25196850393700787,
                    "duration": 0.07499999999998863
                },
                {
                    "name": "F#4",
                    "midi": 66,
                    "time": 290.9249999999893,
                    "velocity": 0.15748031496062992,
                    "duration": 0.07499999999998863
                },
                {
                    "name": "F#5",
                    "midi": 78,
                    "time": 290.9999999999893,
                    "velocity": 0.25196850393700787,
                    "duration": 0.07499999999998863
                },
                {
                    "name": "F#4",
                    "midi": 66,
                    "time": 291.0749999999893,
                    "velocity": 0.15748031496062992,
                    "duration": 0.07499999999998863
                },
                {
                    "name": "F#5",
                    "midi": 78,
                    "time": 291.1499999999893,
                    "velocity": 0.25196850393700787,
                    "duration": 0.07499999999998863
                },
                {
                    "name": "F#4",
                    "midi": 66,
                    "time": 291.2249999999893,
                    "velocity": 0.15748031496062992,
                    "duration": 0.07499999999998863
                },
                {
                    "name": "F#5",
                    "midi": 78,
                    "time": 291.29999999998927,
                    "velocity": 0.25196850393700787,
                    "duration": 0.07499999999998863
                },
                {
                    "name": "F#4",
                    "midi": 66,
                    "time": 291.37499999998926,
                    "velocity": 0.15748031496062992,
                    "duration": 0.07499999999998863
                },
                {
                    "name": "F#5",
                    "midi": 78,
                    "time": 291.44999999998925,
                    "velocity": 0.25196850393700787,
                    "duration": 0.07499999999998863
                },
                {
                    "name": "F#4",
                    "midi": 66,
                    "time": 291.52499999998923,
                    "velocity": 0.15748031496062992,
                    "duration": 0.07499999999998863
                },
                {
                    "name": "F#4",
                    "midi": 66,
                    "time": 291.5999999999892,
                    "velocity": 0.33858267716535434,
                    "duration": 0.14999999999997726
                },
                {
                    "name": "C#5",
                    "midi": 73,
                    "time": 291.5999999999892,
                    "velocity": 0.4094488188976378,
                    "duration": 3.5999999999994543
                },
                {
                    "name": "D#5",
                    "midi": 75,
                    "time": 291.5999999999892,
                    "velocity": 0.4094488188976378,
                    "duration": 1.7999999999997272
                },
                {
                    "name": "F#5",
                    "midi": 78,
                    "time": 291.5999999999892,
                    "velocity": 0.29133858267716534,
                    "duration": 0.07499999999998863
                },
                {
                    "name": "F#4",
                    "midi": 66,
                    "time": 291.6749999999892,
                    "velocity": 0.1968503937007874,
                    "duration": 0.2249999999999659
                },
                {
                    "name": "F#5",
                    "midi": 78,
                    "time": 291.7499999999892,
                    "velocity": 0.29133858267716534,
                    "duration": 0.07499999999998863
                },
                {
                    "name": "F#4",
                    "midi": 66,
                    "time": 291.8249999999892,
                    "velocity": 0.1968503937007874,
                    "duration": 0.2249999999999659
                },
                {
                    "name": "F#5",
                    "midi": 78,
                    "time": 291.8999999999892,
                    "velocity": 0.29133858267716534,
                    "duration": 0.07499999999998863
                },
                {
                    "name": "F#4",
                    "midi": 66,
                    "time": 291.97499999998917,
                    "velocity": 0.1968503937007874,
                    "duration": 0.2249999999999659
                },
                {
                    "name": "F#5",
                    "midi": 78,
                    "time": 292.04999999998915,
                    "velocity": 0.29133858267716534,
                    "duration": 0.07499999999998863
                },
                {
                    "name": "F#4",
                    "midi": 66,
                    "time": 292.12499999998914,
                    "velocity": 0.1968503937007874,
                    "duration": 0.2249999999999659
                },
                {
                    "name": "F#5",
                    "midi": 78,
                    "time": 292.19999999998913,
                    "velocity": 0.29133858267716534,
                    "duration": 0.07499999999998863
                },
                {
                    "name": "F#4",
                    "midi": 66,
                    "time": 292.2749999999891,
                    "velocity": 0.1968503937007874,
                    "duration": 0.2249999999999659
                },
                {
                    "name": "F#5",
                    "midi": 78,
                    "time": 292.3499999999891,
                    "velocity": 0.29133858267716534,
                    "duration": 0.07499999999998863
                },
                {
                    "name": "F#4",
                    "midi": 66,
                    "time": 292.4249999999891,
                    "velocity": 0.1968503937007874,
                    "duration": 0.2249999999999659
                },
                {
                    "name": "F#5",
                    "midi": 78,
                    "time": 292.4999999999891,
                    "velocity": 0.29133858267716534,
                    "duration": 0.07499999999998863
                },
                {
                    "name": "F#4",
                    "midi": 66,
                    "time": 292.5749999999891,
                    "velocity": 0.1968503937007874,
                    "duration": 0.2249999999999659
                },
                {
                    "name": "F#5",
                    "midi": 78,
                    "time": 292.64999999998906,
                    "velocity": 0.29133858267716534,
                    "duration": 0.07499999999998863
                },
                {
                    "name": "F#4",
                    "midi": 66,
                    "time": 292.72499999998905,
                    "velocity": 0.1968503937007874,
                    "duration": 0.2249999999999659
                },
                {
                    "name": "F#5",
                    "midi": 78,
                    "time": 292.79999999998904,
                    "velocity": 0.29133858267716534,
                    "duration": 0.07499999999998863
                },
                {
                    "name": "F#4",
                    "midi": 66,
                    "time": 292.87499999998903,
                    "velocity": 0.1968503937007874,
                    "duration": 0.2249999999999659
                },
                {
                    "name": "F#5",
                    "midi": 78,
                    "time": 292.949999999989,
                    "velocity": 0.29133858267716534,
                    "duration": 0.07499999999998863
                },
                {
                    "name": "F#4",
                    "midi": 66,
                    "time": 293.024999999989,
                    "velocity": 0.1968503937007874,
                    "duration": 0.2249999999999659
                },
                {
                    "name": "F#5",
                    "midi": 78,
                    "time": 293.099999999989,
                    "velocity": 0.30708661417322836,
                    "duration": 0.07499999999998863
                },
                {
                    "name": "F#4",
                    "midi": 66,
                    "time": 293.174999999989,
                    "velocity": 0.1968503937007874,
                    "duration": 0.2249999999999659
                },
                {
                    "name": "F#5",
                    "midi": 78,
                    "time": 293.249999999989,
                    "velocity": 0.30708661417322836,
                    "duration": 0.07499999999998863
                },
                {
                    "name": "F#4",
                    "midi": 66,
                    "time": 293.32499999998896,
                    "velocity": 0.1968503937007874,
                    "duration": 0.2249999999999659
                },
                {
                    "name": "A4",
                    "midi": 69,
                    "time": 293.39999999998895,
                    "velocity": 0.3700787401574803,
                    "duration": 1.199999999999818
                },
                {
                    "name": "F#5",
                    "midi": 78,
                    "time": 293.39999999998895,
                    "velocity": 0.3700787401574803,
                    "duration": 0.07499999999998863
                },
                {
                    "name": "F#4",
                    "midi": 66,
                    "time": 293.47499999998894,
                    "velocity": 0.1968503937007874,
                    "duration": 0.2249999999999659
                },
                {
                    "name": "F#5",
                    "midi": 78,
                    "time": 293.5499999999889,
                    "velocity": 0.29133858267716534,
                    "duration": 0.07499999999998863
                },
                {
                    "name": "F#4",
                    "midi": 66,
                    "time": 293.6249999999889,
                    "velocity": 0.1968503937007874,
                    "duration": 0.2249999999999659
                },
                {
                    "name": "F#5",
                    "midi": 78,
                    "time": 293.6999999999889,
                    "velocity": 0.29133858267716534,
                    "duration": 0.07499999999998863
                },
                {
                    "name": "F#4",
                    "midi": 66,
                    "time": 293.7749999999889,
                    "velocity": 0.1968503937007874,
                    "duration": 0.2249999999999659
                },
                {
                    "name": "F#5",
                    "midi": 78,
                    "time": 293.8499999999889,
                    "velocity": 0.29133858267716534,
                    "duration": 0.07499999999998863
                },
                {
                    "name": "F#4",
                    "midi": 66,
                    "time": 293.92499999998887,
                    "velocity": 0.1968503937007874,
                    "duration": 0.2249999999999659
                },
                {
                    "name": "F#5",
                    "midi": 78,
                    "time": 293.99999999998886,
                    "velocity": 0.29133858267716534,
                    "duration": 0.07499999999998863
                },
                {
                    "name": "F#4",
                    "midi": 66,
                    "time": 294.07499999998885,
                    "velocity": 0.1968503937007874,
                    "duration": 0.2249999999999659
                },
                {
                    "name": "F#5",
                    "midi": 78,
                    "time": 294.14999999998884,
                    "velocity": 0.29133858267716534,
                    "duration": 0.07499999999998863
                },
                {
                    "name": "F#4",
                    "midi": 66,
                    "time": 294.2249999999888,
                    "velocity": 0.1968503937007874,
                    "duration": 0.2249999999999659
                },
                {
                    "name": "F#5",
                    "midi": 78,
                    "time": 294.2999999999888,
                    "velocity": 0.29133858267716534,
                    "duration": 0.07499999999998863
                },
                {
                    "name": "F#4",
                    "midi": 66,
                    "time": 294.3749999999888,
                    "velocity": 0.1968503937007874,
                    "duration": 0.2249999999999659
                },
                {
                    "name": "F#5",
                    "midi": 78,
                    "time": 294.4499999999888,
                    "velocity": 0.29133858267716534,
                    "duration": 0.07499999999998863
                },
                {
                    "name": "F#4",
                    "midi": 66,
                    "time": 294.5249999999888,
                    "velocity": 0.1968503937007874,
                    "duration": 0.2249999999999659
                },
                {
                    "name": "A#4",
                    "midi": 70,
                    "time": 294.59999999998877,
                    "velocity": 0.31496062992125984,
                    "duration": 0.599999999999909
                },
                {
                    "name": "F#5",
                    "midi": 78,
                    "time": 294.59999999998877,
                    "velocity": 0.31496062992125984,
                    "duration": 0.07499999999998863
                },
                {
                    "name": "F#4",
                    "midi": 66,
                    "time": 294.67499999998876,
                    "velocity": 0.1968503937007874,
                    "duration": 0.2249999999999659
                },
                {
                    "name": "F#5",
                    "midi": 78,
                    "time": 294.74999999998875,
                    "velocity": 0.2755905511811024,
                    "duration": 0.07499999999998863
                },
                {
                    "name": "F#4",
                    "midi": 66,
                    "time": 294.82499999998873,
                    "velocity": 0.1968503937007874,
                    "duration": 0.2249999999999659
                },
                {
                    "name": "F#5",
                    "midi": 78,
                    "time": 294.8999999999887,
                    "velocity": 0.2677165354330709,
                    "duration": 0.07499999999998863
                },
                {
                    "name": "F#4",
                    "midi": 66,
                    "time": 294.9749999999887,
                    "velocity": 0.1968503937007874,
                    "duration": 0.2249999999999659
                },
                {
                    "name": "F#5",
                    "midi": 78,
                    "time": 295.0499999999887,
                    "velocity": 0.2677165354330709,
                    "duration": 0.07499999999998863
                },
                {
                    "name": "F#4",
                    "midi": 66,
                    "time": 295.1249999999887,
                    "velocity": 0.1968503937007874,
                    "duration": 0.07499999999998863
                },
                {
                    "name": "F#5",
                    "midi": 78,
                    "time": 295.1999999999887,
                    "velocity": 0.33070866141732286,
                    "duration": 0.2249999999999659
                },
                {
                    "name": "F#4",
                    "midi": 66,
                    "time": 295.1999999999887,
                    "velocity": 0.25984251968503935,
                    "duration": 0.14999999999997726
                },
                {
                    "name": "A#4",
                    "midi": 70,
                    "time": 295.1999999999887,
                    "velocity": 0.25984251968503935,
                    "duration": 1.199999999999818
                },
                {
                    "name": "C#5",
                    "midi": 73,
                    "time": 295.1999999999887,
                    "velocity": 0.25984251968503935,
                    "duration": 1.199999999999818
                },
                {
                    "name": "F#4",
                    "midi": 66,
                    "time": 295.27499999998867,
                    "velocity": 0.1968503937007874,
                    "duration": 0.2249999999999659
                },
                {
                    "name": "F#5",
                    "midi": 78,
                    "time": 295.34999999998865,
                    "velocity": 0.28346456692913385,
                    "duration": 0.2249999999999659
                },
                {
                    "name": "F#4",
                    "midi": 66,
                    "time": 295.42499999998864,
                    "velocity": 0.1889763779527559,
                    "duration": 0.2249999999999659
                },
                {
                    "name": "F#5",
                    "midi": 78,
                    "time": 295.49999999998863,
                    "velocity": 0.2755905511811024,
                    "duration": 0.2249999999999659
                },
                {
                    "name": "F#4",
                    "midi": 66,
                    "time": 295.5749999999886,
                    "velocity": 0.1889763779527559,
                    "duration": 0.2249999999999659
                },
                {
                    "name": "F#5",
                    "midi": 78,
                    "time": 295.6499999999886,
                    "velocity": 0.2755905511811024,
                    "duration": 0.2249999999999659
                },
                {
                    "name": "F#4",
                    "midi": 66,
                    "time": 295.7249999999886,
                    "velocity": 0.1889763779527559,
                    "duration": 0.2249999999999659
                },
                {
                    "name": "F#5",
                    "midi": 78,
                    "time": 295.7999999999886,
                    "velocity": 0.29133858267716534,
                    "duration": 0.2249999999999659
                },
                {
                    "name": "F#4",
                    "midi": 66,
                    "time": 295.8749999999886,
                    "velocity": 0.18110236220472442,
                    "duration": 0.2249999999999659
                },
                {
                    "name": "F#5",
                    "midi": 78,
                    "time": 295.94999999998856,
                    "velocity": 0.2755905511811024,
                    "duration": 0.2249999999999659
                },
                {
                    "name": "F#4",
                    "midi": 66,
                    "time": 296.02499999998855,
                    "velocity": 0.18110236220472442,
                    "duration": 0.2249999999999659
                },
                {
                    "name": "F#5",
                    "midi": 78,
                    "time": 296.09999999998854,
                    "velocity": 0.2677165354330709,
                    "duration": 0.2249999999999659
                },
                {
                    "name": "F#4",
                    "midi": 66,
                    "time": 296.17499999998853,
                    "velocity": 0.18110236220472442,
                    "duration": 0.2249999999999659
                },
                {
                    "name": "F#5",
                    "midi": 78,
                    "time": 296.2499999999885,
                    "velocity": 0.2677165354330709,
                    "duration": 0.14999999999997726
                },
                {
                    "name": "F#4",
                    "midi": 66,
                    "time": 296.3249999999885,
                    "velocity": 0.18110236220472442,
                    "duration": 0.07499999999998863
                },
                {
                    "name": "F#5",
                    "midi": 78,
                    "time": 296.3999999999885,
                    "velocity": 0.25984251968503935,
                    "duration": 0.07499999999998863
                },
                {
                    "name": "F#4",
                    "midi": 66,
                    "time": 296.4749999999885,
                    "velocity": 0.16535433070866143,
                    "duration": 0.07499999999998863
                },
                {
                    "name": "F#5",
                    "midi": 78,
                    "time": 296.5499999999885,
                    "velocity": 0.25984251968503935,
                    "duration": 0.07499999999998863
                },
                {
                    "name": "F#4",
                    "midi": 66,
                    "time": 296.62499999998846,
                    "velocity": 0.16535433070866143,
                    "duration": 0.07499999999998863
                },
                {
                    "name": "F#5",
                    "midi": 78,
                    "time": 296.69999999998845,
                    "velocity": 0.25984251968503935,
                    "duration": 0.07499999999998863
                },
                {
                    "name": "F#4",
                    "midi": 66,
                    "time": 296.77499999998844,
                    "velocity": 0.16535433070866143,
                    "duration": 0.07499999999998863
                },
                {
                    "name": "F#5",
                    "midi": 78,
                    "time": 296.8499999999884,
                    "velocity": 0.25196850393700787,
                    "duration": 0.07499999999998863
                },
                {
                    "name": "F#4",
                    "midi": 66,
                    "time": 296.9249999999884,
                    "velocity": 0.15748031496062992,
                    "duration": 0.07499999999998863
                },
                {
                    "name": "F#5",
                    "midi": 78,
                    "time": 296.9999999999884,
                    "velocity": 0.25196850393700787,
                    "duration": 0.07499999999998863
                },
                {
                    "name": "F#4",
                    "midi": 66,
                    "time": 297.0749999999884,
                    "velocity": 0.15748031496062992,
                    "duration": 0.07499999999998863
                },
                {
                    "name": "F#5",
                    "midi": 78,
                    "time": 297.1499999999884,
                    "velocity": 0.25196850393700787,
                    "duration": 0.07499999999998863
                },
                {
                    "name": "F#4",
                    "midi": 66,
                    "time": 297.22499999998837,
                    "velocity": 0.15748031496062992,
                    "duration": 0.07499999999998863
                },
                {
                    "name": "F#5",
                    "midi": 78,
                    "time": 297.29999999998836,
                    "velocity": 0.25196850393700787,
                    "duration": 0.07499999999998863
                },
                {
                    "name": "F#4",
                    "midi": 66,
                    "time": 297.37499999998835,
                    "velocity": 0.15748031496062992,
                    "duration": 0.07499999999998863
                },
                {
                    "name": "F#5",
                    "midi": 78,
                    "time": 297.44999999998834,
                    "velocity": 0.25196850393700787,
                    "duration": 0.07499999999998863
                },
                {
                    "name": "F#4",
                    "midi": 66,
                    "time": 297.5249999999883,
                    "velocity": 0.15748031496062992,
                    "duration": 0.07499999999998863
                },
                {
                    "name": "F#5",
                    "midi": 78,
                    "time": 297.5999999999883,
                    "velocity": 0.25196850393700787,
                    "duration": 0.07499999999998863
                },
                {
                    "name": "F#4",
                    "midi": 66,
                    "time": 297.6749999999883,
                    "velocity": 0.15748031496062992,
                    "duration": 0.07499999999998863
                },
                {
                    "name": "F#5",
                    "midi": 78,
                    "time": 297.7499999999883,
                    "velocity": 0.25196850393700787,
                    "duration": 0.07499999999998863
                },
                {
                    "name": "F#4",
                    "midi": 66,
                    "time": 297.8249999999883,
                    "velocity": 0.15748031496062992,
                    "duration": 0.07499999999998863
                },
                {
                    "name": "F#5",
                    "midi": 78,
                    "time": 297.89999999998827,
                    "velocity": 0.25196850393700787,
                    "duration": 0.07499999999998863
                },
                {
                    "name": "F#4",
                    "midi": 66,
                    "time": 297.97499999998826,
                    "velocity": 0.15748031496062992,
                    "duration": 0.07499999999998863
                },
                {
                    "name": "F#5",
                    "midi": 78,
                    "time": 298.04999999998824,
                    "velocity": 0.25196850393700787,
                    "duration": 0.07499999999998863
                },
                {
                    "name": "F#4",
                    "midi": 66,
                    "time": 298.12499999998823,
                    "velocity": 0.15748031496062992,
                    "duration": 0.07499999999998863
                },
                {
                    "name": "F#5",
                    "midi": 78,
                    "time": 298.1999999999882,
                    "velocity": 0.25196850393700787,
                    "duration": 0.07499999999998863
                },
                {
                    "name": "F#4",
                    "midi": 66,
                    "time": 298.2749999999882,
                    "velocity": 0.15748031496062992,
                    "duration": 0.07499999999998863
                },
                {
                    "name": "F#5",
                    "midi": 78,
                    "time": 298.3499999999882,
                    "velocity": 0.25196850393700787,
                    "duration": 0.07499999999998863
                },
                {
                    "name": "F#4",
                    "midi": 66,
                    "time": 298.4249999999882,
                    "velocity": 0.15748031496062992,
                    "duration": 0.07499999999998863
                },
                {
                    "name": "F#5",
                    "midi": 78,
                    "time": 298.4999999999882,
                    "velocity": 0.25196850393700787,
                    "duration": 0.07499999999998863
                },
                {
                    "name": "F#4",
                    "midi": 66,
                    "time": 298.57499999998817,
                    "velocity": 0.15748031496062992,
                    "duration": 0.07499999999998863
                },
                {
                    "name": "F#5",
                    "midi": 78,
                    "time": 298.64999999998815,
                    "velocity": 0.25196850393700787,
                    "duration": 0.07499999999998863
                },
                {
                    "name": "F#4",
                    "midi": 66,
                    "time": 298.72499999998814,
                    "velocity": 0.15748031496062992,
                    "duration": 0.07499999999998863
                },
                {
                    "name": "F#5",
                    "midi": 78,
                    "time": 298.79999999998813,
                    "velocity": 0.33070866141732286,
                    "duration": 0.2249999999999659
                },
                {
                    "name": "F#4",
                    "midi": 66,
                    "time": 298.79999999998813,
                    "velocity": 0.25984251968503935,
                    "duration": 0.14999999999997726
                },
                {
                    "name": "B4",
                    "midi": 71,
                    "time": 298.79999999998813,
                    "velocity": 0.25984251968503935,
                    "duration": 2.9999999999995453
                },
                {
                    "name": "D#5",
                    "midi": 75,
                    "time": 298.79999999998813,
                    "velocity": 0.33070866141732286,
                    "duration": 2.9999999999995453
                },
                {
                    "name": "F#4",
                    "midi": 66,
                    "time": 298.8749999999881,
                    "velocity": 0.1968503937007874,
                    "duration": 0.2249999999999659
                },
                {
                    "name": "F#5",
                    "midi": 78,
                    "time": 298.9499999999881,
                    "velocity": 0.29133858267716534,
                    "duration": 0.2249999999999659
                },
                {
                    "name": "F#4",
                    "midi": 66,
                    "time": 299.0249999999881,
                    "velocity": 0.1968503937007874,
                    "duration": 0.2249999999999659
                },
                {
                    "name": "F#5",
                    "midi": 78,
                    "time": 299.0999999999881,
                    "velocity": 0.28346456692913385,
                    "duration": 0.2249999999999659
                },
                {
                    "name": "F#4",
                    "midi": 66,
                    "time": 299.1749999999881,
                    "velocity": 0.1968503937007874,
                    "duration": 0.2249999999999659
                },
                {
                    "name": "F#5",
                    "midi": 78,
                    "time": 299.24999999998806,
                    "velocity": 0.28346456692913385,
                    "duration": 0.2249999999999659
                },
                {
                    "name": "F#4",
                    "midi": 66,
                    "time": 299.32499999998805,
                    "velocity": 0.1968503937007874,
                    "duration": 0.2249999999999659
                },
                {
                    "name": "F#5",
                    "midi": 78,
                    "time": 299.39999999998804,
                    "velocity": 0.25196850393700787,
                    "duration": 0.2249999999999659
                },
                {
                    "name": "F#4",
                    "midi": 66,
                    "time": 299.47499999998803,
                    "velocity": 0.14960629921259844,
                    "duration": 0.2249999999999659
                },
                {
                    "name": "F#5",
                    "midi": 78,
                    "time": 299.549999999988,
                    "velocity": 0.2283464566929134,
                    "duration": 0.2249999999999659
                },
                {
                    "name": "F#4",
                    "midi": 66,
                    "time": 299.624999999988,
                    "velocity": 0.14960629921259844,
                    "duration": 0.2249999999999659
                },
                {
                    "name": "F#5",
                    "midi": 78,
                    "time": 299.699999999988,
                    "velocity": 0.2283464566929134,
                    "duration": 0.2249999999999659
                },
                {
                    "name": "F#4",
                    "midi": 66,
                    "time": 299.774999999988,
                    "velocity": 0.14960629921259844,
                    "duration": 0.2249999999999659
                },
                {
                    "name": "F#5",
                    "midi": 78,
                    "time": 299.849999999988,
                    "velocity": 0.2283464566929134,
                    "duration": 0.2249999999999659
                },
                {
                    "name": "F#4",
                    "midi": 66,
                    "time": 299.92499999998796,
                    "velocity": 0.14960629921259844,
                    "duration": 0.2249999999999659
                },
                {
                    "name": "F#5",
                    "midi": 78,
                    "time": 299.99999999998795,
                    "velocity": 0.2440944881889764,
                    "duration": 0.2249999999999659
                },
                {
                    "name": "F#4",
                    "midi": 66,
                    "time": 300.07499999998794,
                    "velocity": 0.15748031496062992,
                    "duration": 0.2249999999999659
                },
                {
                    "name": "F#5",
                    "midi": 78,
                    "time": 300.1499999999879,
                    "velocity": 0.2440944881889764,
                    "duration": 0.2249999999999659
                },
                {
                    "name": "F#4",
                    "midi": 66,
                    "time": 300.2249999999879,
                    "velocity": 0.15748031496062992,
                    "duration": 0.2249999999999659
                },
                {
                    "name": "F#5",
                    "midi": 78,
                    "time": 300.2999999999879,
                    "velocity": 0.2440944881889764,
                    "duration": 0.2249999999999659
                },
                {
                    "name": "F#4",
                    "midi": 66,
                    "time": 300.3749999999879,
                    "velocity": 0.15748031496062992,
                    "duration": 0.2249999999999659
                },
                {
                    "name": "F#5",
                    "midi": 78,
                    "time": 300.4499999999879,
                    "velocity": 0.2440944881889764,
                    "duration": 0.2249999999999659
                },
                {
                    "name": "F#4",
                    "midi": 66,
                    "time": 300.52499999998787,
                    "velocity": 0.15748031496062992,
                    "duration": 0.2249999999999659
                },
                {
                    "name": "F#5",
                    "midi": 78,
                    "time": 300.59999999998786,
                    "velocity": 0.2440944881889764,
                    "duration": 0.2249999999999659
                },
                {
                    "name": "F#4",
                    "midi": 66,
                    "time": 300.67499999998785,
                    "velocity": 0.15748031496062992,
                    "duration": 0.2249999999999659
                },
                {
                    "name": "F#5",
                    "midi": 78,
                    "time": 300.74999999998784,
                    "velocity": 0.2440944881889764,
                    "duration": 0.2249999999999659
                },
                {
                    "name": "F#4",
                    "midi": 66,
                    "time": 300.8249999999878,
                    "velocity": 0.15748031496062992,
                    "duration": 0.2249999999999659
                },
                {
                    "name": "F#5",
                    "midi": 78,
                    "time": 300.8999999999878,
                    "velocity": 0.25196850393700787,
                    "duration": 0.2249999999999659
                },
                {
                    "name": "F#4",
                    "midi": 66,
                    "time": 300.9749999999878,
                    "velocity": 0.15748031496062992,
                    "duration": 0.2249999999999659
                },
                {
                    "name": "F#5",
                    "midi": 78,
                    "time": 301.0499999999878,
                    "velocity": 0.25196850393700787,
                    "duration": 0.2249999999999659
                },
                {
                    "name": "F#4",
                    "midi": 66,
                    "time": 301.1249999999878,
                    "velocity": 0.15748031496062992,
                    "duration": 0.2249999999999659
                },
                {
                    "name": "F#5",
                    "midi": 78,
                    "time": 301.19999999998777,
                    "velocity": 0.25196850393700787,
                    "duration": 0.2249999999999659
                },
                {
                    "name": "F#4",
                    "midi": 66,
                    "time": 301.27499999998776,
                    "velocity": 0.15748031496062992,
                    "duration": 0.2249999999999659
                },
                {
                    "name": "F#5",
                    "midi": 78,
                    "time": 301.34999999998774,
                    "velocity": 0.25196850393700787,
                    "duration": 0.2249999999999659
                },
                {
                    "name": "F#4",
                    "midi": 66,
                    "time": 301.42499999998773,
                    "velocity": 0.15748031496062992,
                    "duration": 0.2249999999999659
                },
                {
                    "name": "F#5",
                    "midi": 78,
                    "time": 301.4999999999877,
                    "velocity": 0.25196850393700787,
                    "duration": 0.2249999999999659
                },
                {
                    "name": "F#4",
                    "midi": 66,
                    "time": 301.5749999999877,
                    "velocity": 0.16535433070866143,
                    "duration": 0.2249999999999659
                },
                {
                    "name": "F#5",
                    "midi": 78,
                    "time": 301.6499999999877,
                    "velocity": 0.25196850393700787,
                    "duration": 0.14999999999997726
                },
                {
                    "name": "F#4",
                    "midi": 66,
                    "time": 301.7249999999877,
                    "velocity": 0.16535433070866143,
                    "duration": 0.07499999999998863
                },
                {
                    "name": "F#5",
                    "midi": 78,
                    "time": 301.7999999999877,
                    "velocity": 0.25984251968503935,
                    "duration": 0.07499999999998863
                },
                {
                    "name": "F#4",
                    "midi": 66,
                    "time": 301.87499999998766,
                    "velocity": 0.16535433070866143,
                    "duration": 0.07499999999998863
                },
                {
                    "name": "F#5",
                    "midi": 78,
                    "time": 301.94999999998765,
                    "velocity": 0.25984251968503935,
                    "duration": 0.07499999999998863
                },
                {
                    "name": "F#4",
                    "midi": 66,
                    "time": 302.02499999998764,
                    "velocity": 0.16535433070866143,
                    "duration": 0.07499999999998863
                },
                {
                    "name": "F#5",
                    "midi": 78,
                    "time": 302.09999999998763,
                    "velocity": 0.25984251968503935,
                    "duration": 0.07499999999998863
                },
                {
                    "name": "F#4",
                    "midi": 66,
                    "time": 302.1749999999876,
                    "velocity": 0.16535433070866143,
                    "duration": 0.07499999999998863
                },
                {
                    "name": "F#5",
                    "midi": 78,
                    "time": 302.2499999999876,
                    "velocity": 0.25984251968503935,
                    "duration": 0.07499999999998863
                },
                {
                    "name": "F#4",
                    "midi": 66,
                    "time": 302.3249999999876,
                    "velocity": 0.16535433070866143,
                    "duration": 0.07499999999998863
                },
                {
                    "name": "F#5",
                    "midi": 78,
                    "time": 302.3999999999876,
                    "velocity": 0.25196850393700787,
                    "duration": 0.07499999999998863
                },
                {
                    "name": "F#4",
                    "midi": 66,
                    "time": 302.4749999999876,
                    "velocity": 0.14960629921259844,
                    "duration": 0.07499999999998863
                },
                {
                    "name": "F#5",
                    "midi": 78,
                    "time": 302.54999999998756,
                    "velocity": 0.25984251968503935,
                    "duration": 0.07499999999998863
                },
                {
                    "name": "F#4",
                    "midi": 66,
                    "time": 302.62499999998755,
                    "velocity": 0.14960629921259844,
                    "duration": 0.07499999999998863
                },
                {
                    "name": "F#5",
                    "midi": 78,
                    "time": 302.69999999998754,
                    "velocity": 0.25196850393700787,
                    "duration": 0.07499999999998863
                },
                {
                    "name": "F#4",
                    "midi": 66,
                    "time": 302.77499999998753,
                    "velocity": 0.14960629921259844,
                    "duration": 0.07499999999998863
                },
                {
                    "name": "F#5",
                    "midi": 78,
                    "time": 302.8499999999875,
                    "velocity": 0.25196850393700787,
                    "duration": 0.07499999999998863
                },
                {
                    "name": "F#4",
                    "midi": 66,
                    "time": 302.9249999999875,
                    "velocity": 0.15748031496062992,
                    "duration": 0.07499999999998863
                },
                {
                    "name": "F#5",
                    "midi": 78,
                    "time": 302.9999999999875,
                    "velocity": 0.2677165354330709,
                    "duration": 0.07499999999998863
                },
                {
                    "name": "F#4",
                    "midi": 66,
                    "time": 303.0749999999875,
                    "velocity": 0.15748031496062992,
                    "duration": 0.07499999999998863
                },
                {
                    "name": "F#5",
                    "midi": 78,
                    "time": 303.1499999999875,
                    "velocity": 0.25196850393700787,
                    "duration": 0.07499999999998863
                },
                {
                    "name": "F#4",
                    "midi": 66,
                    "time": 303.22499999998746,
                    "velocity": 0.15748031496062992,
                    "duration": 0.07499999999998863
                },
                {
                    "name": "F#5",
                    "midi": 78,
                    "time": 303.29999999998745,
                    "velocity": 0.2440944881889764,
                    "duration": 0.07499999999998863
                },
                {
                    "name": "F#4",
                    "midi": 66,
                    "time": 303.37499999998744,
                    "velocity": 0.15748031496062992,
                    "duration": 0.07499999999998863
                },
                {
                    "name": "F#5",
                    "midi": 78,
                    "time": 303.4499999999874,
                    "velocity": 0.2440944881889764,
                    "duration": 0.07499999999998863
                },
                {
                    "name": "F#4",
                    "midi": 66,
                    "time": 303.5249999999874,
                    "velocity": 0.15748031496062992,
                    "duration": 0.07499999999998863
                },
                {
                    "name": "F#5",
                    "midi": 78,
                    "time": 303.5999999999874,
                    "velocity": 0.2283464566929134,
                    "duration": 0.07499999999998863
                },
                {
                    "name": "F#4",
                    "midi": 66,
                    "time": 303.6749999999874,
                    "velocity": 0.14960629921259844,
                    "duration": 0.07499999999998863
                },
                {
                    "name": "F#5",
                    "midi": 78,
                    "time": 303.7499999999874,
                    "velocity": 0.2283464566929134,
                    "duration": 0.07499999999998863
                },
                {
                    "name": "F#4",
                    "midi": 66,
                    "time": 303.82499999998737,
                    "velocity": 0.14173228346456693,
                    "duration": 0.07499999999998863
                },
                {
                    "name": "F#5",
                    "midi": 78,
                    "time": 303.89999999998736,
                    "velocity": 0.2283464566929134,
                    "duration": 0.07499999999998863
                },
                {
                    "name": "F#4",
                    "midi": 66,
                    "time": 303.97499999998735,
                    "velocity": 0.14173228346456693,
                    "duration": 0.07499999999998863
                },
                {
                    "name": "F#5",
                    "midi": 78,
                    "time": 304.04999999998734,
                    "velocity": 0.2204724409448819,
                    "duration": 0.07499999999998863
                },
                {
                    "name": "F#4",
                    "midi": 66,
                    "time": 304.1249999999873,
                    "velocity": 0.14173228346456693,
                    "duration": 0.07499999999998863
                },
                {
                    "name": "F#5",
                    "midi": 78,
                    "time": 304.1999999999873,
                    "velocity": 0.2125984251968504,
                    "duration": 0.07499999999998863
                },
                {
                    "name": "F#4",
                    "midi": 66,
                    "time": 304.2749999999873,
                    "velocity": 0.14173228346456693,
                    "duration": 0.07499999999998863
                },
                {
                    "name": "F#5",
                    "midi": 78,
                    "time": 304.3499999999873,
                    "velocity": 0.2125984251968504,
                    "duration": 0.07499999999998863
                },
                {
                    "name": "F#4",
                    "midi": 66,
                    "time": 304.4249999999873,
                    "velocity": 0.13385826771653545,
                    "duration": 0.07499999999998863
                },
                {
                    "name": "F#5",
                    "midi": 78,
                    "time": 304.49999999998727,
                    "velocity": 0.2047244094488189,
                    "duration": 0.07499999999998863
                },
                {
                    "name": "F#4",
                    "midi": 66,
                    "time": 304.57499999998726,
                    "velocity": 0.13385826771653545,
                    "duration": 0.07499999999998863
                },
                {
                    "name": "F#5",
                    "midi": 78,
                    "time": 304.64999999998724,
                    "velocity": 0.2047244094488189,
                    "duration": 0.07499999999998863
                },
                {
                    "name": "F#4",
                    "midi": 66,
                    "time": 304.72499999998723,
                    "velocity": 0.13385826771653545,
                    "duration": 0.07499999999998863
                },
                {
                    "name": "F#5",
                    "midi": 78,
                    "time": 304.7999999999872,
                    "velocity": 0.1889763779527559,
                    "duration": 0.07499999999998863
                },
                {
                    "name": "F#4",
                    "midi": 66,
                    "time": 304.8749999999872,
                    "velocity": 0.12598425196850394,
                    "duration": 0.07499999999998863
                },
                {
                    "name": "F#5",
                    "midi": 78,
                    "time": 304.9499999999872,
                    "velocity": 0.1889763779527559,
                    "duration": 0.07499999999998863
                },
                {
                    "name": "F#4",
                    "midi": 66,
                    "time": 305.0249999999872,
                    "velocity": 0.11811023622047244,
                    "duration": 0.07499999999998863
                },
                {
                    "name": "F#5",
                    "midi": 78,
                    "time": 305.0999999999872,
                    "velocity": 0.1889763779527559,
                    "duration": 0.07499999999998863
                },
                {
                    "name": "F#4",
                    "midi": 66,
                    "time": 305.17499999998716,
                    "velocity": 0.11811023622047244,
                    "duration": 0.07499999999998863
                },
                {
                    "name": "F#5",
                    "midi": 78,
                    "time": 305.24999999998715,
                    "velocity": 0.18110236220472442,
                    "duration": 0.07499999999998863
                },
                {
                    "name": "F#4",
                    "midi": 66,
                    "time": 305.32499999998714,
                    "velocity": 0.11811023622047244,
                    "duration": 0.07499999999998863
                },
                {
                    "name": "F#5",
                    "midi": 78,
                    "time": 305.39999999998713,
                    "velocity": 0.1732283464566929,
                    "duration": 0.07499999999998863
                },
                {
                    "name": "F#4",
                    "midi": 66,
                    "time": 305.4749999999871,
                    "velocity": 0.11811023622047244,
                    "duration": 0.07499999999998863
                },
                {
                    "name": "F#5",
                    "midi": 78,
                    "time": 305.5499999999871,
                    "velocity": 0.1732283464566929,
                    "duration": 0.07499999999998863
                },
                {
                    "name": "F#4",
                    "midi": 66,
                    "time": 305.6249999999871,
                    "velocity": 0.11023622047244094,
                    "duration": 0.07499999999998863
                },
                {
                    "name": "F#5",
                    "midi": 78,
                    "time": 305.6999999999871,
                    "velocity": 0.1732283464566929,
                    "duration": 0.07499999999998863
                },
                {
                    "name": "F#4",
                    "midi": 66,
                    "time": 305.7749999999871,
                    "velocity": 0.11023622047244094,
                    "duration": 0.07499999999998863
                },
                {
                    "name": "F#5",
                    "midi": 78,
                    "time": 305.84999999998706,
                    "velocity": 0.1732283464566929,
                    "duration": 0.07499999999998863
                },
                {
                    "name": "F#4",
                    "midi": 66,
                    "time": 305.92499999998705,
                    "velocity": 0.11023622047244094,
                    "duration": 0.07499999999998863
                },
                {
                    "name": "F#5",
                    "midi": 78,
                    "time": 305.99999999998704,
                    "velocity": 0.1732283464566929,
                    "duration": 0.07499999999998863
                },
                {
                    "name": "F#4",
                    "midi": 66,
                    "time": 306.074999999987,
                    "velocity": 0.11811023622047244,
                    "duration": 0.07499999999998863
                },
                {
                    "name": "F#5",
                    "midi": 78,
                    "time": 306.149999999987,
                    "velocity": 0.1732283464566929,
                    "duration": 0.07499999999998863
                },
                {
                    "name": "F#4",
                    "midi": 66,
                    "time": 306.224999999987,
                    "velocity": 0.11023622047244094,
                    "duration": 0.07499999999998863
                },
                {
                    "name": "F#5",
                    "midi": 78,
                    "time": 306.299999999987,
                    "velocity": 0.1732283464566929,
                    "duration": 0.07499999999998863
                },
                {
                    "name": "F#4",
                    "midi": 66,
                    "time": 306.374999999987,
                    "velocity": 0.11023622047244094,
                    "duration": 0.07499999999998863
                },
                {
                    "name": "F#5",
                    "midi": 78,
                    "time": 306.44999999998697,
                    "velocity": 0.1732283464566929,
                    "duration": 0.07499999999998863
                },
                {
                    "name": "F#4",
                    "midi": 66,
                    "time": 306.52499999998696,
                    "velocity": 0.11023622047244094,
                    "duration": 0.07499999999998863
                },
                {
                    "name": "F#5",
                    "midi": 78,
                    "time": 306.59999999998695,
                    "velocity": 0.15748031496062992,
                    "duration": 0.07499999999998863
                },
                {
                    "name": "F#4",
                    "midi": 66,
                    "time": 306.67499999998694,
                    "velocity": 0.10236220472440945,
                    "duration": 0.07499999999998863
                },
                {
                    "name": "F#5",
                    "midi": 78,
                    "time": 306.7499999999869,
                    "velocity": 0.15748031496062992,
                    "duration": 0.07499999999998863
                },
                {
                    "name": "F#4",
                    "midi": 66,
                    "time": 306.8249999999869,
                    "velocity": 0.09448818897637795,
                    "duration": 0.07499999999998863
                },
                {
                    "name": "F#5",
                    "midi": 78,
                    "time": 306.8999999999869,
                    "velocity": 0.15748031496062992,
                    "duration": 0.07499999999998863
                },
                {
                    "name": "F#4",
                    "midi": 66,
                    "time": 306.9749999999869,
                    "velocity": 0.09448818897637795,
                    "duration": 0.07499999999998863
                },
                {
                    "name": "F#5",
                    "midi": 78,
                    "time": 307.0499999999869,
                    "velocity": 0.14960629921259844,
                    "duration": 0.07499999999998863
                },
                {
                    "name": "F#4",
                    "midi": 66,
                    "time": 307.12499999998687,
                    "velocity": 0.09448818897637795,
                    "duration": 0.07499999999998863
                },
                {
                    "name": "F#5",
                    "midi": 78,
                    "time": 307.19999999998686,
                    "velocity": 0.14173228346456693,
                    "duration": 0.07499999999998863
                },
                {
                    "name": "F#4",
                    "midi": 66,
                    "time": 307.27499999998685,
                    "velocity": 0.09448818897637795,
                    "duration": 0.07499999999998863
                },
                {
                    "name": "F#5",
                    "midi": 78,
                    "time": 307.34999999998684,
                    "velocity": 0.14173228346456693,
                    "duration": 0.07499999999998863
                },
                {
                    "name": "F#4",
                    "midi": 66,
                    "time": 307.4249999999868,
                    "velocity": 0.08661417322834646,
                    "duration": 0.07499999999998863
                },
                {
                    "name": "F#5",
                    "midi": 78,
                    "time": 307.4999999999868,
                    "velocity": 0.14173228346456693,
                    "duration": 0.07499999999998863
                },
                {
                    "name": "F#4",
                    "midi": 66,
                    "time": 307.5749999999868,
                    "velocity": 0.08661417322834646,
                    "duration": 0.07499999999998863
                },
                {
                    "name": "F#5",
                    "midi": 78,
                    "time": 307.6499999999868,
                    "velocity": 0.14173228346456693,
                    "duration": 0.07499999999998863
                },
                {
                    "name": "F#4",
                    "midi": 66,
                    "time": 307.7249999999868,
                    "velocity": 0.08661417322834646,
                    "duration": 0.07499999999998863
                }
            ],
            "controlChanges": {
                "7": [
                    {
                        "number": 7,
                        "time": 0,
                        "value": 0.7874015748031497
                    }
                ],
                "10": [
                    {
                        "number": 10,
                        "time": 0,
                        "value": 0.5039370078740157
                    }
                ],
                "91": [
                    {
                        "number": 91,
                        "time": 0,
                        "value": 1
                    },
                    {
                        "number": 91,
                        "time": 0,
                        "value": 1
                    }
                ]
            },
            "id": 1,
            "name": "Piano right",
            "instrumentNumber": 0,
            "instrument": "acoustic grand piano",
            "instrumentFamily": "piano",
            "channelNumber": 0,
            "isPercussion": false
        },
        {
            "startTime": 0.00125,
            "duration": 307.80000000000217,
            "length": 1397,
            "notes": [
                {
                    "name": "G3",
                    "midi": 55,
                    "time": 0.00125,
                    "velocity": 0.5354330708661418,
                    "duration": 0.625
                },
                {
                    "name": "F3",
                    "midi": 53,
                    "time": 0.6,
                    "velocity": 0.5039370078740157,
                    "duration": 0.6249999999999999
                },
                {
                    "name": "A#3",
                    "midi": 58,
                    "time": 1.2,
                    "velocity": 0.5275590551181102,
                    "duration": 0.6249999999999998
                },
                {
                    "name": "C4",
                    "midi": 60,
                    "time": 1.7999999999999998,
                    "velocity": 0.5118110236220472,
                    "duration": 0.32499999999999973
                },
                {
                    "name": "F4",
                    "midi": 65,
                    "time": 2.0999999999999996,
                    "velocity": 0.4330708661417323,
                    "duration": 0.32499999999999973
                },
                {
                    "name": "D4",
                    "midi": 62,
                    "time": 2.3999999999999995,
                    "velocity": 0.5118110236220472,
                    "duration": 0.6249999999999996
                },
                {
                    "name": "C4",
                    "midi": 60,
                    "time": 2.999999999999999,
                    "velocity": 0.5039370078740157,
                    "duration": 0.32499999999999973
                },
                {
                    "name": "F4",
                    "midi": 65,
                    "time": 3.299999999999999,
                    "velocity": 0.4330708661417323,
                    "duration": 0.32499999999999973
                },
                {
                    "name": "D4",
                    "midi": 62,
                    "time": 3.5999999999999988,
                    "velocity": 0.5039370078740157,
                    "duration": 0.625
                },
                {
                    "name": "A#3",
                    "midi": 58,
                    "time": 4.199999999999998,
                    "velocity": 0.5118110236220472,
                    "duration": 0.5625
                },
                {
                    "name": "C4",
                    "midi": 60,
                    "time": 4.799999999999998,
                    "velocity": 0.5118110236220472,
                    "duration": 0.625
                },
                {
                    "name": "G3",
                    "midi": 55,
                    "time": 5.399999999999998,
                    "velocity": 0.4881889763779528,
                    "duration": 0.6250000000000009
                },
                {
                    "name": "F3",
                    "midi": 53,
                    "time": 5.999999999999998,
                    "velocity": 0.48031496062992124,
                    "duration": 0.5625
                },
                {
                    "name": "G3",
                    "midi": 55,
                    "time": 6.599999999999998,
                    "velocity": 0.5826771653543307,
                    "duration": 0.5999999999999996
                },
                {
                    "name": "G2",
                    "midi": 43,
                    "time": 6.599999999999998,
                    "velocity": 0.4881889763779528,
                    "duration": 0.5999999999999996
                },
                {
                    "name": "F3",
                    "midi": 53,
                    "time": 7.1999999999999975,
                    "velocity": 0.5433070866141733,
                    "duration": 0.5999999999999996
                },
                {
                    "name": "A2",
                    "midi": 45,
                    "time": 7.1999999999999975,
                    "velocity": 0.4566929133858268,
                    "duration": 0.5999999999999996
                },
                {
                    "name": "G3",
                    "midi": 55,
                    "time": 7.799999999999997,
                    "velocity": 0.5433070866141733,
                    "duration": 0.5999999999999996
                },
                {
                    "name": "G2",
                    "midi": 43,
                    "time": 7.799999999999997,
                    "velocity": 0.4566929133858268,
                    "duration": 0.5999999999999996
                },
                {
                    "name": "F3",
                    "midi": 53,
                    "time": 8.399999999999997,
                    "velocity": 0.5196850393700787,
                    "duration": 0.5999999999999996
                },
                {
                    "name": "F2",
                    "midi": 41,
                    "time": 8.399999999999997,
                    "velocity": 0.4409448818897638,
                    "duration": 0.5999999999999996
                },
                {
                    "name": "D3",
                    "midi": 50,
                    "time": 8.999999999999996,
                    "velocity": 0.47244094488188976,
                    "duration": 0.5999999999999996
                },
                {
                    "name": "D2",
                    "midi": 38,
                    "time": 8.999999999999996,
                    "velocity": 0.4015748031496063,
                    "duration": 0.5999999999999996
                },
                {
                    "name": "F2",
                    "midi": 41,
                    "time": 9.599999999999996,
                    "velocity": 0.4566929133858268,
                    "duration": 0.5999999999999996
                },
                {
                    "name": "F3",
                    "midi": 53,
                    "time": 9.599999999999996,
                    "velocity": 0.5433070866141733,
                    "duration": 0.5999999999999996
                },
                {
                    "name": "A#2",
                    "midi": 46,
                    "time": 10.199999999999996,
                    "velocity": 0.4409448818897638,
                    "duration": 0.5625
                },
                {
                    "name": "A#3",
                    "midi": 58,
                    "time": 10.199999999999996,
                    "velocity": 0.5275590551181102,
                    "duration": 0.5625
                },
                {
                    "name": "G2",
                    "midi": 43,
                    "time": 10.799999999999995,
                    "velocity": 0.41732283464566927,
                    "duration": 0.5999999999999996
                },
                {
                    "name": "G3",
                    "midi": 55,
                    "time": 10.799999999999995,
                    "velocity": 0.49606299212598426,
                    "duration": 0.5999999999999996
                },
                {
                    "name": "C2",
                    "midi": 36,
                    "time": 11.399999999999995,
                    "velocity": 0.4409448818897638,
                    "duration": 0.5999999999999996
                },
                {
                    "name": "C3",
                    "midi": 48,
                    "time": 11.399999999999995,
                    "velocity": 0.5275590551181102,
                    "duration": 0.5999999999999996
                },
                {
                    "name": "E3",
                    "midi": 52,
                    "time": 11.999999999999995,
                    "velocity": 0.4566929133858268,
                    "duration": 0.5999999999999996
                },
                {
                    "name": "E2",
                    "midi": 40,
                    "time": 11.999999999999995,
                    "velocity": 0.3858267716535433,
                    "duration": 0.5999999999999996
                },
                {
                    "name": "F3",
                    "midi": 53,
                    "time": 12.599999999999994,
                    "velocity": 0.4409448818897638,
                    "duration": 0.5625
                },
                {
                    "name": "F2",
                    "midi": 41,
                    "time": 12.599999999999994,
                    "velocity": 0.3700787401574803,
                    "duration": 0.5625
                },
                {
                    "name": "F3",
                    "midi": 53,
                    "time": 13.199999999999994,
                    "velocity": 0.5511811023622047,
                    "duration": 0.625
                },
                {
                    "name": "G3",
                    "midi": 55,
                    "time": 13.799999999999994,
                    "velocity": 0.5196850393700787,
                    "duration": 0.625
                },
                {
                    "name": "D3",
                    "midi": 50,
                    "time": 14.399999999999993,
                    "velocity": 0.49606299212598426,
                    "duration": 0.625
                },
                {
                    "name": "F3",
                    "midi": 53,
                    "time": 14.999999999999993,
                    "velocity": 0.5118110236220472,
                    "duration": 0.32500000000000107
                },
                {
                    "name": "G3",
                    "midi": 55,
                    "time": 15.299999999999994,
                    "velocity": 0.4330708661417323,
                    "duration": 0.32500000000000107
                },
                {
                    "name": "C3",
                    "midi": 48,
                    "time": 15.599999999999994,
                    "velocity": 0.48031496062992124,
                    "duration": 0.625
                },
                {
                    "name": "G3",
                    "midi": 55,
                    "time": 16.199999999999996,
                    "velocity": 0.48031496062992124,
                    "duration": 0.32499999999999574
                },
                {
                    "name": "A3",
                    "midi": 57,
                    "time": 16.499999999999993,
                    "velocity": 0.4251968503937008,
                    "duration": 0.32499999999999574
                },
                {
                    "name": "F3",
                    "midi": 53,
                    "time": 16.79999999999999,
                    "velocity": 0.47244094488188976,
                    "duration": 0.5625
                },
                {
                    "name": "F1",
                    "midi": 29,
                    "time": 17.39999999999999,
                    "velocity": 0.4881889763779528,
                    "duration": 0.6000000000000014
                },
                {
                    "name": "F2",
                    "midi": 41,
                    "time": 17.39999999999999,
                    "velocity": 0.5748031496062992,
                    "duration": 0.6000000000000014
                },
                {
                    "name": "A#1",
                    "midi": 34,
                    "time": 17.999999999999993,
                    "velocity": 0.4566929133858268,
                    "duration": 0.6000000000000014
                },
                {
                    "name": "A#2",
                    "midi": 46,
                    "time": 17.999999999999993,
                    "velocity": 0.5433070866141733,
                    "duration": 0.6000000000000014
                },
                {
                    "name": "A2",
                    "midi": 45,
                    "time": 18.599999999999994,
                    "velocity": 0.5275590551181102,
                    "duration": 0.3000000000000007
                },
                {
                    "name": "A1",
                    "midi": 33,
                    "time": 18.599999999999994,
                    "velocity": 0.4409448818897638,
                    "duration": 0.3000000000000007
                },
                {
                    "name": "G1",
                    "midi": 31,
                    "time": 18.899999999999995,
                    "velocity": 0.4251968503937008,
                    "duration": 0.3000000000000007
                },
                {
                    "name": "G2",
                    "midi": 43,
                    "time": 18.899999999999995,
                    "velocity": 0.5039370078740157,
                    "duration": 0.3000000000000007
                },
                {
                    "name": "F1",
                    "midi": 29,
                    "time": 19.199999999999996,
                    "velocity": 0.4015748031496063,
                    "duration": 0.5625
                },
                {
                    "name": "F2",
                    "midi": 41,
                    "time": 19.199999999999996,
                    "velocity": 0.48031496062992124,
                    "duration": 0.5625
                },
                {
                    "name": "F3",
                    "midi": 53,
                    "time": 19.799999999999997,
                    "velocity": 0.5511811023622047,
                    "duration": 0.625
                },
                {
                    "name": "G3",
                    "midi": 55,
                    "time": 20.4,
                    "velocity": 0.5196850393700787,
                    "duration": 0.6249999999999964
                },
                {
                    "name": "D3",
                    "midi": 50,
                    "time": 20.999999999999996,
                    "velocity": 0.5039370078740157,
                    "duration": 0.6249999999999964
                },
                {
                    "name": "F3",
                    "midi": 53,
                    "time": 21.599999999999994,
                    "velocity": 0.5118110236220472,
                    "duration": 0.32499999999999574
                },
                {
                    "name": "G3",
                    "midi": 55,
                    "time": 21.89999999999999,
                    "velocity": 0.4566929133858268,
                    "duration": 0.32499999999999574
                },
                {
                    "name": "D#3",
                    "midi": 51,
                    "time": 22.19999999999999,
                    "velocity": 0.5039370078740157,
                    "duration": 0.6249999999999964
                },
                {
                    "name": "A#3",
                    "midi": 58,
                    "time": 22.799999999999986,
                    "velocity": 0.5590551181102362,
                    "duration": 0.32499999999999574
                },
                {
                    "name": "C4",
                    "midi": 60,
                    "time": 23.099999999999984,
                    "velocity": 0.47244094488188976,
                    "duration": 0.32499999999999574
                },
                {
                    "name": "G#3",
                    "midi": 56,
                    "time": 23.39999999999998,
                    "velocity": 0.47244094488188976,
                    "duration": 0.5625
                },
                {
                    "name": "G#2",
                    "midi": 44,
                    "time": 23.999999999999982,
                    "velocity": 0.5748031496062992,
                    "duration": 0.6000000000000014
                },
                {
                    "name": "G#1",
                    "midi": 32,
                    "time": 23.999999999999982,
                    "velocity": 0.4881889763779528,
                    "duration": 0.6000000000000014
                },
                {
                    "name": "C#2",
                    "midi": 37,
                    "time": 24.599999999999984,
                    "velocity": 0.44881889763779526,
                    "duration": 0.6000000000000014
                },
                {
                    "name": "C#3",
                    "midi": 49,
                    "time": 24.599999999999984,
                    "velocity": 0.5354330708661418,
                    "duration": 0.6000000000000014
                },
                {
                    "name": "C2",
                    "midi": 36,
                    "time": 25.199999999999985,
                    "velocity": 0.4409448818897638,
                    "duration": 0.3000000000000007
                },
                {
                    "name": "C3",
                    "midi": 48,
                    "time": 25.199999999999985,
                    "velocity": 0.5275590551181102,
                    "duration": 0.3000000000000007
                },
                {
                    "name": "A#2",
                    "midi": 46,
                    "time": 25.499999999999986,
                    "velocity": 0.49606299212598426,
                    "duration": 0.3000000000000007
                },
                {
                    "name": "A#1",
                    "midi": 34,
                    "time": 25.499999999999986,
                    "velocity": 0.4015748031496063,
                    "duration": 0.3000000000000007
                },
                {
                    "name": "G#1",
                    "midi": 32,
                    "time": 25.799999999999986,
                    "velocity": 0.4251968503937008,
                    "duration": 0.5625
                },
                {
                    "name": "G#2",
                    "midi": 44,
                    "time": 25.799999999999986,
                    "velocity": 0.5039370078740157,
                    "duration": 0.5625
                },
                {
                    "name": "F#1",
                    "midi": 30,
                    "time": 26.399999999999988,
                    "velocity": 0.29133858267716534,
                    "duration": 0.6000000000000014
                },
                {
                    "name": "F#2",
                    "midi": 42,
                    "time": 26.399999999999988,
                    "velocity": 0.3464566929133858,
                    "duration": 0.6000000000000014
                },
                {
                    "name": "F#2",
                    "midi": 42,
                    "time": 26.99999999999999,
                    "velocity": 0.30708661417322836,
                    "duration": 0.6000000000000014
                },
                {
                    "name": "F#1",
                    "midi": 30,
                    "time": 26.99999999999999,
                    "velocity": 0.25984251968503935,
                    "duration": 0.6000000000000014
                },
                {
                    "name": "F1",
                    "midi": 29,
                    "time": 27.59999999999999,
                    "velocity": 0.2677165354330709,
                    "duration": 0.6000000000000014
                },
                {
                    "name": "F2",
                    "midi": 41,
                    "time": 27.59999999999999,
                    "velocity": 0.31496062992125984,
                    "duration": 0.6000000000000014
                },
                {
                    "name": "F#1",
                    "midi": 30,
                    "time": 28.199999999999992,
                    "velocity": 0.29133858267716534,
                    "duration": 0.6000000000000014
                },
                {
                    "name": "F#2",
                    "midi": 42,
                    "time": 28.199999999999992,
                    "velocity": 0.3464566929133858,
                    "duration": 0.6000000000000014
                },
                {
                    "name": "F#2",
                    "midi": 42,
                    "time": 28.799999999999994,
                    "velocity": 0.3228346456692913,
                    "duration": 0.6000000000000014
                },
                {
                    "name": "F#1",
                    "midi": 30,
                    "time": 28.799999999999994,
                    "velocity": 0.2677165354330709,
                    "duration": 0.6000000000000014
                },
                {
                    "name": "F#3",
                    "midi": 54,
                    "time": 29.399999999999995,
                    "velocity": 0.3858267716535433,
                    "duration": 0.3000000000000007
                },
                {
                    "name": "F#2",
                    "midi": 42,
                    "time": 29.399999999999995,
                    "velocity": 0.3228346456692913,
                    "duration": 0.3000000000000007
                },
                {
                    "name": "D#2",
                    "midi": 39,
                    "time": 29.699999999999996,
                    "velocity": 0.30708661417322836,
                    "duration": 0.3000000000000007
                },
                {
                    "name": "D#3",
                    "midi": 51,
                    "time": 29.699999999999996,
                    "velocity": 0.36220472440944884,
                    "duration": 0.3000000000000007
                },
                {
                    "name": "F2",
                    "midi": 41,
                    "time": 29.999999999999996,
                    "velocity": 0.36220472440944884,
                    "duration": 0.3000000000000007
                },
                {
                    "name": "F3",
                    "midi": 53,
                    "time": 29.999999999999996,
                    "velocity": 0.4330708661417323,
                    "duration": 0.3000000000000007
                },
                {
                    "name": "D#3",
                    "midi": 51,
                    "time": 30.299999999999997,
                    "velocity": 0.3937007874015748,
                    "duration": 0.3000000000000007
                },
                {
                    "name": "D#2",
                    "midi": 39,
                    "time": 30.299999999999997,
                    "velocity": 0.33070866141732286,
                    "duration": 0.3000000000000007
                },
                {
                    "name": "C#2",
                    "midi": 37,
                    "time": 30.599999999999998,
                    "velocity": 0.36220472440944884,
                    "duration": 0.3000000000000007
                },
                {
                    "name": "C#3",
                    "midi": 49,
                    "time": 30.599999999999998,
                    "velocity": 0.4330708661417323,
                    "duration": 0.3000000000000007
                },
                {
                    "name": "C#2",
                    "midi": 37,
                    "time": 30.9,
                    "velocity": 0.4330708661417323,
                    "duration": 0.3000000000000007
                },
                {
                    "name": "C#1",
                    "midi": 25,
                    "time": 30.9,
                    "velocity": 0.36220472440944884,
                    "duration": 0.3000000000000007
                },
                {
                    "name": "D#3",
                    "midi": 51,
                    "time": 31.2,
                    "velocity": 0.4409448818897638,
                    "duration": 0.3000000000000007
                },
                {
                    "name": "D#2",
                    "midi": 39,
                    "time": 31.2,
                    "velocity": 0.3700787401574803,
                    "duration": 0.3000000000000007
                },
                {
                    "name": "F3",
                    "midi": 53,
                    "time": 31.5,
                    "velocity": 0.4015748031496063,
                    "duration": 0.3000000000000007
                },
                {
                    "name": "F2",
                    "midi": 41,
                    "time": 31.5,
                    "velocity": 0.33858267716535434,
                    "duration": 0.3000000000000007
                },
                {
                    "name": "G#3",
                    "midi": 56,
                    "time": 31.8,
                    "velocity": 0.4409448818897638,
                    "duration": 0.3000000000000007
                },
                {
                    "name": "G#2",
                    "midi": 44,
                    "time": 31.8,
                    "velocity": 0.3700787401574803,
                    "duration": 0.3000000000000007
                },
                {
                    "name": "G#2",
                    "midi": 44,
                    "time": 32.1,
                    "velocity": 0.4409448818897638,
                    "duration": 0.29999999999999716
                },
                {
                    "name": "G#1",
                    "midi": 32,
                    "time": 32.1,
                    "velocity": 0.3700787401574803,
                    "duration": 0.29999999999999716
                },
                {
                    "name": "A#1",
                    "midi": 34,
                    "time": 32.4,
                    "velocity": 0.30708661417322836,
                    "duration": 0.29999999999999716
                },
                {
                    "name": "A#2",
                    "midi": 46,
                    "time": 32.4,
                    "velocity": 0.36220472440944884,
                    "duration": 0.29999999999999716
                },
                {
                    "name": "C#2",
                    "midi": 37,
                    "time": 32.699999999999996,
                    "velocity": 0.30708661417322836,
                    "duration": 0.29999999999999716
                },
                {
                    "name": "C#3",
                    "midi": 49,
                    "time": 32.699999999999996,
                    "velocity": 0.36220472440944884,
                    "duration": 0.29999999999999716
                },
                {
                    "name": "C2",
                    "midi": 36,
                    "time": 32.99999999999999,
                    "velocity": 0.33858267716535434,
                    "duration": 0.29999999999999716
                },
                {
                    "name": "C3",
                    "midi": 48,
                    "time": 32.99999999999999,
                    "velocity": 0.4015748031496063,
                    "duration": 0.29999999999999716
                },
                {
                    "name": "G#1",
                    "midi": 32,
                    "time": 33.29999999999999,
                    "velocity": 0.31496062992125984,
                    "duration": 0.29999999999999716
                },
                {
                    "name": "G#2",
                    "midi": 44,
                    "time": 33.29999999999999,
                    "velocity": 0.3779527559055118,
                    "duration": 0.29999999999999716
                },
                {
                    "name": "F#1",
                    "midi": 30,
                    "time": 33.59999999999999,
                    "velocity": 0.2755905511811024,
                    "duration": 0.6000000000000014
                },
                {
                    "name": "F#2",
                    "midi": 42,
                    "time": 33.59999999999999,
                    "velocity": 0.33070866141732286,
                    "duration": 0.6000000000000014
                },
                {
                    "name": "F#1",
                    "midi": 30,
                    "time": 34.19999999999999,
                    "velocity": 0.2440944881889764,
                    "duration": 0.6000000000000014
                },
                {
                    "name": "F#2",
                    "midi": 42,
                    "time": 34.19999999999999,
                    "velocity": 0.29133858267716534,
                    "duration": 0.6000000000000014
                },
                {
                    "name": "F#2",
                    "midi": 42,
                    "time": 34.79999999999999,
                    "velocity": 0.3464566929133858,
                    "duration": 0.6000000000000014
                },
                {
                    "name": "F#1",
                    "midi": 30,
                    "time": 34.79999999999999,
                    "velocity": 0.29133858267716534,
                    "duration": 0.6000000000000014
                },
                {
                    "name": "F#1",
                    "midi": 30,
                    "time": 35.39999999999999,
                    "velocity": 0.2755905511811024,
                    "duration": 0.6000000000000014
                },
                {
                    "name": "F#2",
                    "midi": 42,
                    "time": 35.39999999999999,
                    "velocity": 0.33070866141732286,
                    "duration": 0.6000000000000014
                },
                {
                    "name": "F#3",
                    "midi": 54,
                    "time": 35.99999999999999,
                    "velocity": 0.3543307086614173,
                    "duration": 0.29999999999999716
                },
                {
                    "name": "F#2",
                    "midi": 42,
                    "time": 35.99999999999999,
                    "velocity": 0.2992125984251969,
                    "duration": 0.29999999999999716
                },
                {
                    "name": "A#2",
                    "midi": 46,
                    "time": 36.59999999999999,
                    "velocity": 0.3228346456692913,
                    "duration": 0.6000000000000014
                },
                {
                    "name": "A#1",
                    "midi": 34,
                    "time": 36.59999999999999,
                    "velocity": 0.2677165354330709,
                    "duration": 0.6000000000000014
                },
                {
                    "name": "A#2",
                    "midi": 46,
                    "time": 37.19999999999999,
                    "velocity": 0.2992125984251969,
                    "duration": 0.6000000000000014
                },
                {
                    "name": "A#1",
                    "midi": 34,
                    "time": 37.19999999999999,
                    "velocity": 0.25196850393700787,
                    "duration": 0.6000000000000014
                },
                {
                    "name": "A1",
                    "midi": 33,
                    "time": 37.79999999999999,
                    "velocity": 0.2677165354330709,
                    "duration": 0.6000000000000014
                },
                {
                    "name": "A2",
                    "midi": 45,
                    "time": 37.79999999999999,
                    "velocity": 0.31496062992125984,
                    "duration": 0.6000000000000014
                },
                {
                    "name": "A#1",
                    "midi": 34,
                    "time": 38.39999999999999,
                    "velocity": 0.2755905511811024,
                    "duration": 0.6000000000000014
                },
                {
                    "name": "A#2",
                    "midi": 46,
                    "time": 38.39999999999999,
                    "velocity": 0.33070866141732286,
                    "duration": 0.6000000000000014
                },
                {
                    "name": "A#1",
                    "midi": 34,
                    "time": 38.99999999999999,
                    "velocity": 0.2677165354330709,
                    "duration": 0.6000000000000014
                },
                {
                    "name": "A#2",
                    "midi": 46,
                    "time": 38.99999999999999,
                    "velocity": 0.3228346456692913,
                    "duration": 0.6000000000000014
                },
                {
                    "name": "A#3",
                    "midi": 58,
                    "time": 39.599999999999994,
                    "velocity": 0.3228346456692913,
                    "duration": 0.5625
                },
                {
                    "name": "A#2",
                    "midi": 46,
                    "time": 39.599999999999994,
                    "velocity": 0.2677165354330709,
                    "duration": 0.5625
                },
                {
                    "name": "A3",
                    "midi": 57,
                    "time": 40.199999999999996,
                    "velocity": 0.4881889763779528,
                    "duration": 0.29999999999999716
                },
                {
                    "name": "A2",
                    "midi": 45,
                    "time": 40.199999999999996,
                    "velocity": 0.4094488188976378,
                    "duration": 0.29999999999999716
                },
                {
                    "name": "G2",
                    "midi": 43,
                    "time": 40.49999999999999,
                    "velocity": 0.3700787401574803,
                    "duration": 0.29999999999999716
                },
                {
                    "name": "G3",
                    "midi": 55,
                    "time": 40.49999999999999,
                    "velocity": 0.4409448818897638,
                    "duration": 0.29999999999999716
                },
                {
                    "name": "F2",
                    "midi": 41,
                    "time": 40.79999999999999,
                    "velocity": 0.4015748031496063,
                    "duration": 0.29999999999999716
                },
                {
                    "name": "F3",
                    "midi": 53,
                    "time": 40.79999999999999,
                    "velocity": 0.48031496062992124,
                    "duration": 0.29999999999999716
                },
                {
                    "name": "F1",
                    "midi": 29,
                    "time": 41.09999999999999,
                    "velocity": 0.3700787401574803,
                    "duration": 0.29999999999999716
                },
                {
                    "name": "F2",
                    "midi": 41,
                    "time": 41.09999999999999,
                    "velocity": 0.4409448818897638,
                    "duration": 0.29999999999999716
                },
                {
                    "name": "G2",
                    "midi": 43,
                    "time": 41.399999999999984,
                    "velocity": 0.4015748031496063,
                    "duration": 0.29999999999999716
                },
                {
                    "name": "G3",
                    "midi": 55,
                    "time": 41.399999999999984,
                    "velocity": 0.48031496062992124,
                    "duration": 0.29999999999999716
                },
                {
                    "name": "A3",
                    "midi": 57,
                    "time": 41.69999999999998,
                    "velocity": 0.4409448818897638,
                    "duration": 0.29999999999999716
                },
                {
                    "name": "A2",
                    "midi": 45,
                    "time": 41.69999999999998,
                    "velocity": 0.3700787401574803,
                    "duration": 0.29999999999999716
                },
                {
                    "name": "C3",
                    "midi": 48,
                    "time": 41.99999999999998,
                    "velocity": 0.4094488188976378,
                    "duration": 0.29999999999999716
                },
                {
                    "name": "C4",
                    "midi": 60,
                    "time": 41.99999999999998,
                    "velocity": 0.4881889763779528,
                    "duration": 0.29999999999999716
                },
                {
                    "name": "C2",
                    "midi": 36,
                    "time": 42.299999999999976,
                    "velocity": 0.3858267716535433,
                    "duration": 0.29999999999999716
                },
                {
                    "name": "C3",
                    "midi": 48,
                    "time": 42.299999999999976,
                    "velocity": 0.4566929133858268,
                    "duration": 0.29999999999999716
                },
                {
                    "name": "D2",
                    "midi": 38,
                    "time": 42.59999999999997,
                    "velocity": 0.4015748031496063,
                    "duration": 0.29999999999999716
                },
                {
                    "name": "D3",
                    "midi": 50,
                    "time": 42.59999999999997,
                    "velocity": 0.47244094488188976,
                    "duration": 0.29999999999999716
                },
                {
                    "name": "F2",
                    "midi": 41,
                    "time": 42.89999999999997,
                    "velocity": 0.4015748031496063,
                    "duration": 0.29999999999999716
                },
                {
                    "name": "F3",
                    "midi": 53,
                    "time": 42.89999999999997,
                    "velocity": 0.47244094488188976,
                    "duration": 0.29999999999999716
                },
                {
                    "name": "E2",
                    "midi": 40,
                    "time": 43.19999999999997,
                    "velocity": 0.3858267716535433,
                    "duration": 0.29999999999999716
                },
                {
                    "name": "E3",
                    "midi": 52,
                    "time": 43.19999999999997,
                    "velocity": 0.4566929133858268,
                    "duration": 0.29999999999999716
                },
                {
                    "name": "C3",
                    "midi": 48,
                    "time": 43.499999999999964,
                    "velocity": 0.4566929133858268,
                    "duration": 0.29999999999999716
                },
                {
                    "name": "C2",
                    "midi": 36,
                    "time": 43.499999999999964,
                    "velocity": 0.3858267716535433,
                    "duration": 0.29999999999999716
                },
                {
                    "name": "A#1",
                    "midi": 34,
                    "time": 43.79999999999996,
                    "velocity": 0.2755905511811024,
                    "duration": 0.6000000000000014
                },
                {
                    "name": "A#2",
                    "midi": 46,
                    "time": 43.79999999999996,
                    "velocity": 0.33070866141732286,
                    "duration": 0.6000000000000014
                },
                {
                    "name": "A#2",
                    "midi": 46,
                    "time": 44.39999999999996,
                    "velocity": 0.33070866141732286,
                    "duration": 0.6000000000000014
                },
                {
                    "name": "A#1",
                    "midi": 34,
                    "time": 44.39999999999996,
                    "velocity": 0.2755905511811024,
                    "duration": 0.6000000000000014
                },
                {
                    "name": "A#1",
                    "midi": 34,
                    "time": 44.999999999999964,
                    "velocity": 0.29133858267716534,
                    "duration": 0.6000000000000014
                },
                {
                    "name": "A#2",
                    "midi": 46,
                    "time": 44.999999999999964,
                    "velocity": 0.3464566929133858,
                    "duration": 0.6000000000000014
                },
                {
                    "name": "A#1",
                    "midi": 34,
                    "time": 45.599999999999966,
                    "velocity": 0.2755905511811024,
                    "duration": 0.6000000000000014
                },
                {
                    "name": "A#2",
                    "midi": 46,
                    "time": 45.599999999999966,
                    "velocity": 0.33070866141732286,
                    "duration": 0.6000000000000014
                },
                {
                    "name": "A#3",
                    "midi": 58,
                    "time": 46.19999999999997,
                    "velocity": 0.3543307086614173,
                    "duration": 0.29999999999999716
                },
                {
                    "name": "A#2",
                    "midi": 46,
                    "time": 46.19999999999997,
                    "velocity": 0.2992125984251969,
                    "duration": 0.29999999999999716
                },
                {
                    "name": "A3",
                    "midi": 57,
                    "time": 46.79999999999996,
                    "velocity": 0.4015748031496063,
                    "duration": 0.6000000000000014
                },
                {
                    "name": "A2",
                    "midi": 45,
                    "time": 46.79999999999996,
                    "velocity": 0.33858267716535434,
                    "duration": 0.6000000000000014
                },
                {
                    "name": "D4",
                    "midi": 62,
                    "time": 47.39999999999996,
                    "velocity": 0.36220472440944884,
                    "duration": 0.6000000000000014
                },
                {
                    "name": "D3",
                    "midi": 50,
                    "time": 47.39999999999996,
                    "velocity": 0.36220472440944884,
                    "duration": 0.6000000000000014
                },
                {
                    "name": "A3",
                    "midi": 57,
                    "time": 47.999999999999964,
                    "velocity": 0.4015748031496063,
                    "duration": 0.6000000000000014
                },
                {
                    "name": "A2",
                    "midi": 45,
                    "time": 47.999999999999964,
                    "velocity": 0.33858267716535434,
                    "duration": 0.6000000000000014
                },
                {
                    "name": "G2",
                    "midi": 43,
                    "time": 48.599999999999966,
                    "velocity": 0.29133858267716534,
                    "duration": 0.6000000000000014
                },
                {
                    "name": "G3",
                    "midi": 55,
                    "time": 48.599999999999966,
                    "velocity": 0.3464566929133858,
                    "duration": 0.6000000000000014
                },
                {
                    "name": "F2",
                    "midi": 41,
                    "time": 49.19999999999997,
                    "velocity": 0.33070866141732286,
                    "duration": 0.6000000000000014
                },
                {
                    "name": "F3",
                    "midi": 53,
                    "time": 49.19999999999997,
                    "velocity": 0.3937007874015748,
                    "duration": 0.6000000000000014
                },
                {
                    "name": "G3",
                    "midi": 55,
                    "time": 49.79999999999997,
                    "velocity": 0.3464566929133858,
                    "duration": 0.6000000000000014
                },
                {
                    "name": "G2",
                    "midi": 43,
                    "time": 49.79999999999997,
                    "velocity": 0.29133858267716534,
                    "duration": 0.6000000000000014
                },
                {
                    "name": "D3",
                    "midi": 50,
                    "time": 50.39999999999997,
                    "velocity": 0.4094488188976378,
                    "duration": 0.6000000000000014
                },
                {
                    "name": "D2",
                    "midi": 38,
                    "time": 50.39999999999997,
                    "velocity": 0.3464566929133858,
                    "duration": 0.6000000000000014
                },
                {
                    "name": "G2",
                    "midi": 43,
                    "time": 50.99999999999997,
                    "velocity": 0.3228346456692913,
                    "duration": 0.5625
                },
                {
                    "name": "G3",
                    "midi": 55,
                    "time": 50.99999999999997,
                    "velocity": 0.3858267716535433,
                    "duration": 0.5625
                },
                {
                    "name": "D2",
                    "midi": 38,
                    "time": 51.59999999999997,
                    "velocity": 0.3464566929133858,
                    "duration": 0.6000000000000014
                },
                {
                    "name": "D3",
                    "midi": 50,
                    "time": 51.59999999999997,
                    "velocity": 0.4094488188976378,
                    "duration": 0.6000000000000014
                },
                {
                    "name": "G3",
                    "midi": 55,
                    "time": 52.199999999999974,
                    "velocity": 0.33070866141732286,
                    "duration": 0.6000000000000014
                },
                {
                    "name": "G2",
                    "midi": 43,
                    "time": 52.199999999999974,
                    "velocity": 0.2755905511811024,
                    "duration": 0.6000000000000014
                },
                {
                    "name": "D2",
                    "midi": 38,
                    "time": 52.799999999999976,
                    "velocity": 0.3464566929133858,
                    "duration": 0.6000000000000014
                },
                {
                    "name": "D3",
                    "midi": 50,
                    "time": 52.799999999999976,
                    "velocity": 0.4094488188976378,
                    "duration": 0.6000000000000014
                },
                {
                    "name": "G2",
                    "midi": 43,
                    "time": 53.39999999999998,
                    "velocity": 0.31496062992125984,
                    "duration": 0.5625
                },
                {
                    "name": "G3",
                    "midi": 55,
                    "time": 53.39999999999998,
                    "velocity": 0.3779527559055118,
                    "duration": 0.5625
                },
                {
                    "name": "C2",
                    "midi": 36,
                    "time": 53.99999999999998,
                    "velocity": 0.33858267716535434,
                    "duration": 0.6000000000000014
                },
                {
                    "name": "C3",
                    "midi": 48,
                    "time": 53.99999999999998,
                    "velocity": 0.4015748031496063,
                    "duration": 0.6000000000000014
                },
                {
                    "name": "F3",
                    "midi": 53,
                    "time": 54.59999999999998,
                    "velocity": 0.3858267716535433,
                    "duration": 0.6000000000000014
                },
                {
                    "name": "F2",
                    "midi": 41,
                    "time": 54.59999999999998,
                    "velocity": 0.3228346456692913,
                    "duration": 0.6000000000000014
                },
                {
                    "name": "G3",
                    "midi": 55,
                    "time": 55.19999999999998,
                    "velocity": 0.33070866141732286,
                    "duration": 0.6000000000000014
                },
                {
                    "name": "G2",
                    "midi": 43,
                    "time": 55.19999999999998,
                    "velocity": 0.2755905511811024,
                    "duration": 0.6000000000000014
                },
                {
                    "name": "C2",
                    "midi": 36,
                    "time": 55.79999999999998,
                    "velocity": 0.33070866141732286,
                    "duration": 0.6000000000000014
                },
                {
                    "name": "C3",
                    "midi": 48,
                    "time": 55.79999999999998,
                    "velocity": 0.3937007874015748,
                    "duration": 0.6000000000000014
                },
                {
                    "name": "F3",
                    "midi": 53,
                    "time": 56.399999999999984,
                    "velocity": 0.3779527559055118,
                    "duration": 0.5625
                },
                {
                    "name": "F2",
                    "midi": 41,
                    "time": 56.399999999999984,
                    "velocity": 0.31496062992125984,
                    "duration": 0.5625
                },
                {
                    "name": "G2",
                    "midi": 43,
                    "time": 56.999999999999986,
                    "velocity": 0.3700787401574803,
                    "duration": 0.6000000000000014
                },
                {
                    "name": "G3",
                    "midi": 55,
                    "time": 56.999999999999986,
                    "velocity": 0.4409448818897638,
                    "duration": 0.6000000000000014
                },
                {
                    "name": "F2",
                    "midi": 41,
                    "time": 57.59999999999999,
                    "velocity": 0.47244094488188976,
                    "duration": 0.6000000000000014
                },
                {
                    "name": "F1",
                    "midi": 29,
                    "time": 57.59999999999999,
                    "velocity": 0.4015748031496063,
                    "duration": 0.6000000000000014
                },
                {
                    "name": "G1",
                    "midi": 31,
                    "time": 58.19999999999999,
                    "velocity": 0.4409448818897638,
                    "duration": 0.6000000000000014
                },
                {
                    "name": "G2",
                    "midi": 43,
                    "time": 58.19999999999999,
                    "velocity": 0.5275590551181102,
                    "duration": 0.6000000000000014
                },
                {
                    "name": "A1",
                    "midi": 33,
                    "time": 58.79999999999999,
                    "velocity": 0.4094488188976378,
                    "duration": 0.29999999999999716
                },
                {
                    "name": "A2",
                    "midi": 45,
                    "time": 58.79999999999999,
                    "velocity": 0.4881889763779528,
                    "duration": 0.29999999999999716
                },
                {
                    "name": "A#2",
                    "midi": 46,
                    "time": 59.09999999999999,
                    "velocity": 0.4409448818897638,
                    "duration": 0.29999999999999716
                },
                {
                    "name": "A#1",
                    "midi": 34,
                    "time": 59.09999999999999,
                    "velocity": 0.3700787401574803,
                    "duration": 0.29999999999999716
                },
                {
                    "name": "A2",
                    "midi": 45,
                    "time": 59.399999999999984,
                    "velocity": 0.5039370078740157,
                    "duration": 0.6000000000000014
                },
                {
                    "name": "A1",
                    "midi": 33,
                    "time": 59.399999999999984,
                    "velocity": 0.4251968503937008,
                    "duration": 0.6000000000000014
                },
                {
                    "name": "A#1",
                    "midi": 34,
                    "time": 59.999999999999986,
                    "velocity": 0.4409448818897638,
                    "duration": 0.6000000000000014
                },
                {
                    "name": "A#2",
                    "midi": 46,
                    "time": 59.999999999999986,
                    "velocity": 0.5196850393700787,
                    "duration": 0.6000000000000014
                },
                {
                    "name": "A2",
                    "midi": 45,
                    "time": 60.59999999999999,
                    "velocity": 0.5196850393700787,
                    "duration": 0.6000000000000014
                },
                {
                    "name": "A1",
                    "midi": 33,
                    "time": 60.59999999999999,
                    "velocity": 0.4409448818897638,
                    "duration": 0.6000000000000014
                },
                {
                    "name": "G1",
                    "midi": 31,
                    "time": 61.19999999999999,
                    "velocity": 0.41732283464566927,
                    "duration": 0.6000000000000014
                },
                {
                    "name": "G2",
                    "midi": 43,
                    "time": 61.19999999999999,
                    "velocity": 0.49606299212598426,
                    "duration": 0.6000000000000014
                },
                {
                    "name": "F2",
                    "midi": 41,
                    "time": 61.79999999999999,
                    "velocity": 0.5275590551181102,
                    "duration": 0.5625
                },
                {
                    "name": "F1",
                    "midi": 29,
                    "time": 61.79999999999999,
                    "velocity": 0.4409448818897638,
                    "duration": 0.5625
                },
                {
                    "name": "G1",
                    "midi": 31,
                    "time": 62.39999999999999,
                    "velocity": 0.41732283464566927,
                    "duration": 0.6000000000000014
                },
                {
                    "name": "G2",
                    "midi": 43,
                    "time": 62.39999999999999,
                    "velocity": 0.49606299212598426,
                    "duration": 0.6000000000000014
                },
                {
                    "name": "A2",
                    "midi": 45,
                    "time": 62.99999999999999,
                    "velocity": 0.4881889763779528,
                    "duration": 0.29999999999999716
                },
                {
                    "name": "A1",
                    "midi": 33,
                    "time": 62.99999999999999,
                    "velocity": 0.4094488188976378,
                    "duration": 0.29999999999999716
                },
                {
                    "name": "A#2",
                    "midi": 46,
                    "time": 63.29999999999999,
                    "velocity": 0.4330708661417323,
                    "duration": 0.29999999999999716
                },
                {
                    "name": "A#1",
                    "midi": 34,
                    "time": 63.29999999999999,
                    "velocity": 0.36220472440944884,
                    "duration": 0.29999999999999716
                },
                {
                    "name": "A1",
                    "midi": 33,
                    "time": 63.59999999999999,
                    "velocity": 0.4094488188976378,
                    "duration": 0.6000000000000014
                },
                {
                    "name": "A2",
                    "midi": 45,
                    "time": 63.59999999999999,
                    "velocity": 0.4881889763779528,
                    "duration": 0.6000000000000014
                },
                {
                    "name": "A#1",
                    "midi": 34,
                    "time": 64.19999999999999,
                    "velocity": 0.44881889763779526,
                    "duration": 0.5999999999999943
                },
                {
                    "name": "A#2",
                    "midi": 46,
                    "time": 64.19999999999999,
                    "velocity": 0.5354330708661418,
                    "duration": 0.5999999999999943
                },
                {
                    "name": "A2",
                    "midi": 45,
                    "time": 64.79999999999998,
                    "velocity": 0.5354330708661418,
                    "duration": 0.5999999999999943
                },
                {
                    "name": "A1",
                    "midi": 33,
                    "time": 64.79999999999998,
                    "velocity": 0.44881889763779526,
                    "duration": 0.5999999999999943
                },
                {
                    "name": "G2",
                    "midi": 43,
                    "time": 65.39999999999998,
                    "velocity": 0.5433070866141733,
                    "duration": 0.5999999999999943
                },
                {
                    "name": "G1",
                    "midi": 31,
                    "time": 65.39999999999998,
                    "velocity": 0.4566929133858268,
                    "duration": 0.5999999999999943
                },
                {
                    "name": "F2",
                    "midi": 41,
                    "time": 65.99999999999997,
                    "velocity": 0.5196850393700787,
                    "duration": 0.5625
                },
                {
                    "name": "F1",
                    "midi": 29,
                    "time": 65.99999999999997,
                    "velocity": 0.4409448818897638,
                    "duration": 0.5625
                },
                {
                    "name": "G2",
                    "midi": 43,
                    "time": 66.59999999999997,
                    "velocity": 0.5433070866141733,
                    "duration": 0.5999999999999943
                },
                {
                    "name": "G1",
                    "midi": 31,
                    "time": 66.59999999999997,
                    "velocity": 0.4566929133858268,
                    "duration": 0.5999999999999943
                },
                {
                    "name": "F1",
                    "midi": 29,
                    "time": 67.19999999999996,
                    "velocity": 0.4409448818897638,
                    "duration": 0.5625
                },
                {
                    "name": "F2",
                    "midi": 41,
                    "time": 67.19999999999996,
                    "velocity": 0.5196850393700787,
                    "duration": 0.5625
                },
                {
                    "name": "G3",
                    "midi": 55,
                    "time": 67.79999999999995,
                    "velocity": 0.5433070866141733,
                    "duration": 0.5999999999999943
                },
                {
                    "name": "F3",
                    "midi": 53,
                    "time": 68.39999999999995,
                    "velocity": 0.5354330708661418,
                    "duration": 0.5625
                },
                {
                    "name": "G2",
                    "midi": 43,
                    "time": 68.99999999999994,
                    "velocity": 0.4409448818897638,
                    "duration": 0.5999999999999943
                },
                {
                    "name": "G3",
                    "midi": 55,
                    "time": 68.99999999999994,
                    "velocity": 0.5196850393700787,
                    "duration": 0.5999999999999943
                },
                {
                    "name": "F3",
                    "midi": 53,
                    "time": 69.59999999999994,
                    "velocity": 0.5354330708661418,
                    "duration": 0.5999999999999943
                },
                {
                    "name": "F2",
                    "midi": 41,
                    "time": 69.59999999999994,
                    "velocity": 0.44881889763779526,
                    "duration": 0.5999999999999943
                },
                {
                    "name": "G2",
                    "midi": 43,
                    "time": 70.19999999999993,
                    "velocity": 0.4094488188976378,
                    "duration": 0.5999999999999943
                },
                {
                    "name": "G3",
                    "midi": 55,
                    "time": 70.19999999999993,
                    "velocity": 0.4881889763779528,
                    "duration": 0.5999999999999943
                },
                {
                    "name": "A3",
                    "midi": 57,
                    "time": 70.79999999999993,
                    "velocity": 0.5354330708661418,
                    "duration": 0.5999999999999943
                },
                {
                    "name": "A2",
                    "midi": 45,
                    "time": 70.79999999999993,
                    "velocity": 0.44881889763779526,
                    "duration": 0.5999999999999943
                },
                {
                    "name": "A#3",
                    "midi": 58,
                    "time": 71.39999999999992,
                    "velocity": 0.4881889763779528,
                    "duration": 0.5625
                },
                {
                    "name": "A#2",
                    "midi": 46,
                    "time": 71.39999999999992,
                    "velocity": 0.4094488188976378,
                    "duration": 0.5625
                },
                {
                    "name": "G3",
                    "midi": 55,
                    "time": 71.99999999999991,
                    "velocity": 0.4881889763779528,
                    "duration": 0.5999999999999943
                },
                {
                    "name": "G2",
                    "midi": 43,
                    "time": 71.99999999999991,
                    "velocity": 0.4094488188976378,
                    "duration": 0.5999999999999943
                },
                {
                    "name": "D#3",
                    "midi": 51,
                    "time": 72.59999999999991,
                    "velocity": 0.5039370078740157,
                    "duration": 0.5999999999999943
                },
                {
                    "name": "D#2",
                    "midi": 39,
                    "time": 72.59999999999991,
                    "velocity": 0.4251968503937008,
                    "duration": 0.5999999999999943
                },
                {
                    "name": "E2",
                    "midi": 40,
                    "time": 73.1999999999999,
                    "velocity": 0.3858267716535433,
                    "duration": 0.5999999999999943
                },
                {
                    "name": "E3",
                    "midi": 52,
                    "time": 73.1999999999999,
                    "velocity": 0.4566929133858268,
                    "duration": 0.5999999999999943
                },
                {
                    "name": "F3",
                    "midi": 53,
                    "time": 73.7999999999999,
                    "velocity": 0.44881889763779526,
                    "duration": 0.5625
                },
                {
                    "name": "F2",
                    "midi": 41,
                    "time": 73.7999999999999,
                    "velocity": 0.3779527559055118,
                    "duration": 0.5625
                },
                {
                    "name": "A#1",
                    "midi": 34,
                    "time": 74.39999999999989,
                    "velocity": 0.4566929133858268,
                    "duration": 0.5999999999999943
                },
                {
                    "name": "A#2",
                    "midi": 46,
                    "time": 74.39999999999989,
                    "velocity": 0.5433070866141733,
                    "duration": 0.5999999999999943
                },
                {
                    "name": "A1",
                    "midi": 33,
                    "time": 74.99999999999989,
                    "velocity": 0.4409448818897638,
                    "duration": 0.5999999999999943
                },
                {
                    "name": "A2",
                    "midi": 45,
                    "time": 74.99999999999989,
                    "velocity": 0.5196850393700787,
                    "duration": 0.5999999999999943
                },
                {
                    "name": "G2",
                    "midi": 43,
                    "time": 75.59999999999988,
                    "velocity": 0.5275590551181102,
                    "duration": 0.5999999999999943
                },
                {
                    "name": "G1",
                    "midi": 31,
                    "time": 75.59999999999988,
                    "velocity": 0.4409448818897638,
                    "duration": 0.5999999999999943
                },
                {
                    "name": "F2",
                    "midi": 41,
                    "time": 76.19999999999987,
                    "velocity": 0.5354330708661418,
                    "duration": 0.5999999999999943
                },
                {
                    "name": "F1",
                    "midi": 29,
                    "time": 76.19999999999987,
                    "velocity": 0.44881889763779526,
                    "duration": 0.5999999999999943
                },
                {
                    "name": "A#1",
                    "midi": 34,
                    "time": 76.79999999999987,
                    "velocity": 0.4251968503937008,
                    "duration": 0.5625
                },
                {
                    "name": "A#2",
                    "midi": 46,
                    "time": 76.79999999999987,
                    "velocity": 0.5039370078740157,
                    "duration": 0.5625
                },
                {
                    "name": "A2",
                    "midi": 45,
                    "time": 77.39999999999986,
                    "velocity": 0.5354330708661418,
                    "duration": 0.5999999999999943
                },
                {
                    "name": "A1",
                    "midi": 33,
                    "time": 77.39999999999986,
                    "velocity": 0.44881889763779526,
                    "duration": 0.5999999999999943
                },
                {
                    "name": "A#1",
                    "midi": 34,
                    "time": 77.99999999999986,
                    "velocity": 0.4251968503937008,
                    "duration": 0.5625
                },
                {
                    "name": "A#2",
                    "midi": 46,
                    "time": 77.99999999999986,
                    "velocity": 0.5039370078740157,
                    "duration": 0.5625
                },
                {
                    "name": "G3",
                    "midi": 55,
                    "time": 78.59999999999985,
                    "velocity": 0.47244094488188976,
                    "duration": 0.5999999999999943
                },
                {
                    "name": "G2",
                    "midi": 43,
                    "time": 78.59999999999985,
                    "velocity": 0.4015748031496063,
                    "duration": 0.5999999999999943
                },
                {
                    "name": "C3",
                    "midi": 48,
                    "time": 79.19999999999985,
                    "velocity": 0.5275590551181102,
                    "duration": 1.2000000000000028
                },
                {
                    "name": "C2",
                    "midi": 36,
                    "time": 79.19999999999985,
                    "velocity": 0.4409448818897638,
                    "duration": 1.2000000000000028
                },
                {
                    "name": "F3",
                    "midi": 53,
                    "time": 80.39999999999985,
                    "velocity": 0.48031496062992124,
                    "duration": 1.2000000000000028
                },
                {
                    "name": "F2",
                    "midi": 41,
                    "time": 80.39999999999985,
                    "velocity": 0.4015748031496063,
                    "duration": 1.2000000000000028
                },
                {
                    "name": "A#3",
                    "midi": 58,
                    "time": 81.59999999999985,
                    "velocity": 0.5433070866141733,
                    "duration": 0.29999999999999716
                },
                {
                    "name": "A#2",
                    "midi": 46,
                    "time": 81.59999999999985,
                    "velocity": 0.4566929133858268,
                    "duration": 0.29999999999999716
                },
                {
                    "name": "D#4",
                    "midi": 63,
                    "time": 85.19999999999985,
                    "velocity": 0.5433070866141733,
                    "duration": 0.15000000000000568
                },
                {
                    "name": "G4",
                    "midi": 67,
                    "time": 85.19999999999985,
                    "velocity": 0.5433070866141733,
                    "duration": 0.15000000000000568
                },
                {
                    "name": "A#3",
                    "midi": 58,
                    "time": 85.34999999999985,
                    "velocity": 0.4409448818897638,
                    "duration": 0.15000000000000568
                },
                {
                    "name": "D#4",
                    "midi": 63,
                    "time": 85.49999999999986,
                    "velocity": 0.48031496062992124,
                    "duration": 0.07500000000000284
                },
                {
                    "name": "G4",
                    "midi": 67,
                    "time": 85.49999999999986,
                    "velocity": 0.48031496062992124,
                    "duration": 0.07500000000000284
                },
                {
                    "name": "D#4",
                    "midi": 63,
                    "time": 85.64999999999986,
                    "velocity": 0.48031496062992124,
                    "duration": 0.07500000000000284
                },
                {
                    "name": "G4",
                    "midi": 67,
                    "time": 85.64999999999986,
                    "velocity": 0.48031496062992124,
                    "duration": 0.07500000000000284
                },
                {
                    "name": "D#4",
                    "midi": 63,
                    "time": 85.79999999999987,
                    "velocity": 0.5275590551181102,
                    "duration": 0.15000000000000568
                },
                {
                    "name": "G4",
                    "midi": 67,
                    "time": 85.79999999999987,
                    "velocity": 0.5275590551181102,
                    "duration": 0.15000000000000568
                },
                {
                    "name": "A#3",
                    "midi": 58,
                    "time": 85.94999999999987,
                    "velocity": 0.4330708661417323,
                    "duration": 0.15000000000000568
                },
                {
                    "name": "D#4",
                    "midi": 63,
                    "time": 86.09999999999988,
                    "velocity": 0.48031496062992124,
                    "duration": 0.07500000000000284
                },
                {
                    "name": "G4",
                    "midi": 67,
                    "time": 86.09999999999988,
                    "velocity": 0.48031496062992124,
                    "duration": 0.07500000000000284
                },
                {
                    "name": "D#4",
                    "midi": 63,
                    "time": 86.24999999999989,
                    "velocity": 0.48031496062992124,
                    "duration": 0.07500000000000284
                },
                {
                    "name": "G4",
                    "midi": 67,
                    "time": 86.24999999999989,
                    "velocity": 0.48031496062992124,
                    "duration": 0.07500000000000284
                },
                {
                    "name": "D#4",
                    "midi": 63,
                    "time": 86.39999999999989,
                    "velocity": 0.5433070866141733,
                    "duration": 0.15000000000000568
                },
                {
                    "name": "G4",
                    "midi": 67,
                    "time": 86.39999999999989,
                    "velocity": 0.5433070866141733,
                    "duration": 0.15000000000000568
                },
                {
                    "name": "A#3",
                    "midi": 58,
                    "time": 86.5499999999999,
                    "velocity": 0.4330708661417323,
                    "duration": 0.15000000000000568
                },
                {
                    "name": "D#4",
                    "midi": 63,
                    "time": 86.6999999999999,
                    "velocity": 0.4645669291338583,
                    "duration": 0.07500000000000284
                },
                {
                    "name": "G4",
                    "midi": 67,
                    "time": 86.6999999999999,
                    "velocity": 0.4645669291338583,
                    "duration": 0.07500000000000284
                },
                {
                    "name": "D#4",
                    "midi": 63,
                    "time": 86.84999999999991,
                    "velocity": 0.4566929133858268,
                    "duration": 0.07500000000000284
                },
                {
                    "name": "G4",
                    "midi": 67,
                    "time": 86.84999999999991,
                    "velocity": 0.4566929133858268,
                    "duration": 0.07500000000000284
                },
                {
                    "name": "D#4",
                    "midi": 63,
                    "time": 86.99999999999991,
                    "velocity": 0.48031496062992124,
                    "duration": 0.15000000000000568
                },
                {
                    "name": "G4",
                    "midi": 67,
                    "time": 86.99999999999991,
                    "velocity": 0.48031496062992124,
                    "duration": 0.15000000000000568
                },
                {
                    "name": "A#3",
                    "midi": 58,
                    "time": 87.14999999999992,
                    "velocity": 0.3858267716535433,
                    "duration": 0.15000000000000568
                },
                {
                    "name": "D#4",
                    "midi": 63,
                    "time": 87.29999999999993,
                    "velocity": 0.4330708661417323,
                    "duration": 0.07500000000000284
                },
                {
                    "name": "G4",
                    "midi": 67,
                    "time": 87.29999999999993,
                    "velocity": 0.4330708661417323,
                    "duration": 0.07500000000000284
                },
                {
                    "name": "D#4",
                    "midi": 63,
                    "time": 87.44999999999993,
                    "velocity": 0.4330708661417323,
                    "duration": 0.07500000000000284
                },
                {
                    "name": "G4",
                    "midi": 67,
                    "time": 87.44999999999993,
                    "velocity": 0.4330708661417323,
                    "duration": 0.07500000000000284
                },
                {
                    "name": "D#4",
                    "midi": 63,
                    "time": 87.59999999999994,
                    "velocity": 0.4409448818897638,
                    "duration": 0.07500000000000284
                },
                {
                    "name": "G4",
                    "midi": 67,
                    "time": 87.59999999999994,
                    "velocity": 0.4409448818897638,
                    "duration": 0.07500000000000284
                },
                {
                    "name": "D#4",
                    "midi": 63,
                    "time": 87.74999999999994,
                    "velocity": 0.4094488188976378,
                    "duration": 0.07500000000000284
                },
                {
                    "name": "G4",
                    "midi": 67,
                    "time": 87.74999999999994,
                    "velocity": 0.4094488188976378,
                    "duration": 0.07500000000000284
                },
                {
                    "name": "D#4",
                    "midi": 63,
                    "time": 87.89999999999995,
                    "velocity": 0.4409448818897638,
                    "duration": 0.07500000000000284
                },
                {
                    "name": "G4",
                    "midi": 67,
                    "time": 87.89999999999995,
                    "velocity": 0.4409448818897638,
                    "duration": 0.07500000000000284
                },
                {
                    "name": "D#4",
                    "midi": 63,
                    "time": 88.04999999999995,
                    "velocity": 0.3937007874015748,
                    "duration": 0.07500000000000284
                },
                {
                    "name": "G4",
                    "midi": 67,
                    "time": 88.04999999999995,
                    "velocity": 0.3937007874015748,
                    "duration": 0.07500000000000284
                },
                {
                    "name": "D#4",
                    "midi": 63,
                    "time": 88.19999999999996,
                    "velocity": 0.4409448818897638,
                    "duration": 0.07500000000000284
                },
                {
                    "name": "G4",
                    "midi": 67,
                    "time": 88.19999999999996,
                    "velocity": 0.4409448818897638,
                    "duration": 0.07500000000000284
                },
                {
                    "name": "D#4",
                    "midi": 63,
                    "time": 88.34999999999997,
                    "velocity": 0.4094488188976378,
                    "duration": 0.07500000000000284
                },
                {
                    "name": "G4",
                    "midi": 67,
                    "time": 88.34999999999997,
                    "velocity": 0.4094488188976378,
                    "duration": 0.07500000000000284
                },
                {
                    "name": "D#4",
                    "midi": 63,
                    "time": 88.49999999999997,
                    "velocity": 0.4409448818897638,
                    "duration": 0.07500000000000284
                },
                {
                    "name": "G4",
                    "midi": 67,
                    "time": 88.49999999999997,
                    "velocity": 0.4409448818897638,
                    "duration": 0.07500000000000284
                },
                {
                    "name": "D#4",
                    "midi": 63,
                    "time": 88.64999999999998,
                    "velocity": 0.3937007874015748,
                    "duration": 0.07500000000000284
                },
                {
                    "name": "G4",
                    "midi": 67,
                    "time": 88.64999999999998,
                    "velocity": 0.3937007874015748,
                    "duration": 0.07500000000000284
                },
                {
                    "name": "A#4",
                    "midi": 70,
                    "time": 88.79999999999998,
                    "velocity": 0.4409448818897638,
                    "duration": 0.07500000000000284
                },
                {
                    "name": "G4",
                    "midi": 67,
                    "time": 88.79999999999998,
                    "velocity": 0.4409448818897638,
                    "duration": 0.07500000000000284
                },
                {
                    "name": "A#4",
                    "midi": 70,
                    "time": 88.94999999999999,
                    "velocity": 0.3937007874015748,
                    "duration": 0.07500000000000284
                },
                {
                    "name": "G4",
                    "midi": 67,
                    "time": 88.94999999999999,
                    "velocity": 0.3937007874015748,
                    "duration": 0.07500000000000284
                },
                {
                    "name": "A#4",
                    "midi": 70,
                    "time": 89.1,
                    "velocity": 0.4645669291338583,
                    "duration": 0.07500000000000284
                },
                {
                    "name": "G4",
                    "midi": 67,
                    "time": 89.1,
                    "velocity": 0.4645669291338583,
                    "duration": 0.07500000000000284
                },
                {
                    "name": "A#4",
                    "midi": 70,
                    "time": 89.25,
                    "velocity": 0.4015748031496063,
                    "duration": 0.07500000000000284
                },
                {
                    "name": "G4",
                    "midi": 67,
                    "time": 89.25,
                    "velocity": 0.4015748031496063,
                    "duration": 0.07500000000000284
                },
                {
                    "name": "A#4",
                    "midi": 70,
                    "time": 89.4,
                    "velocity": 0.4566929133858268,
                    "duration": 0.07500000000000284
                },
                {
                    "name": "G4",
                    "midi": 67,
                    "time": 89.4,
                    "velocity": 0.4566929133858268,
                    "duration": 0.07500000000000284
                },
                {
                    "name": "G4",
                    "midi": 67,
                    "time": 89.55000000000001,
                    "velocity": 0.41732283464566927,
                    "duration": 0.07500000000000284
                },
                {
                    "name": "A#4",
                    "midi": 70,
                    "time": 89.55000000000001,
                    "velocity": 0.41732283464566927,
                    "duration": 0.07500000000000284
                },
                {
                    "name": "A#4",
                    "midi": 70,
                    "time": 89.70000000000002,
                    "velocity": 0.4409448818897638,
                    "duration": 0.07500000000000284
                },
                {
                    "name": "G4",
                    "midi": 67,
                    "time": 89.70000000000002,
                    "velocity": 0.4409448818897638,
                    "duration": 0.07500000000000284
                },
                {
                    "name": "A#4",
                    "midi": 70,
                    "time": 89.85000000000002,
                    "velocity": 0.4015748031496063,
                    "duration": 0.07500000000000284
                },
                {
                    "name": "G4",
                    "midi": 67,
                    "time": 89.85000000000002,
                    "velocity": 0.4015748031496063,
                    "duration": 0.07500000000000284
                },
                {
                    "name": "G#4",
                    "midi": 68,
                    "time": 90.00000000000003,
                    "velocity": 0.4251968503937008,
                    "duration": 0.11249999999999716
                },
                {
                    "name": "B4",
                    "midi": 71,
                    "time": 90.00000000000003,
                    "velocity": 0.4251968503937008,
                    "duration": 0.11249999999999716
                },
                {
                    "name": "G#4",
                    "midi": 68,
                    "time": 90.15000000000002,
                    "velocity": 0.3779527559055118,
                    "duration": 0.11249999999999716
                },
                {
                    "name": "B4",
                    "midi": 71,
                    "time": 90.15000000000002,
                    "velocity": 0.3779527559055118,
                    "duration": 0.11249999999999716
                },
                {
                    "name": "B4",
                    "midi": 71,
                    "time": 90.30000000000001,
                    "velocity": 0.4251968503937008,
                    "duration": 0.11249999999999716
                },
                {
                    "name": "D#5",
                    "midi": 75,
                    "time": 90.30000000000001,
                    "velocity": 0.4251968503937008,
                    "duration": 0.11249999999999716
                },
                {
                    "name": "B4",
                    "midi": 71,
                    "time": 90.45,
                    "velocity": 0.3858267716535433,
                    "duration": 0.11249999999999716
                },
                {
                    "name": "D#5",
                    "midi": 75,
                    "time": 90.45,
                    "velocity": 0.3858267716535433,
                    "duration": 0.11249999999999716
                },
                {
                    "name": "G#4",
                    "midi": 68,
                    "time": 90.6,
                    "velocity": 0.4330708661417323,
                    "duration": 0.11249999999999716
                },
                {
                    "name": "B4",
                    "midi": 71,
                    "time": 90.6,
                    "velocity": 0.4330708661417323,
                    "duration": 0.11249999999999716
                },
                {
                    "name": "G#4",
                    "midi": 68,
                    "time": 90.74999999999999,
                    "velocity": 0.4015748031496063,
                    "duration": 0.11249999999999716
                },
                {
                    "name": "B4",
                    "midi": 71,
                    "time": 90.74999999999999,
                    "velocity": 0.4015748031496063,
                    "duration": 0.11249999999999716
                },
                {
                    "name": "B4",
                    "midi": 71,
                    "time": 90.89999999999998,
                    "velocity": 0.4251968503937008,
                    "duration": 0.11249999999999716
                },
                {
                    "name": "D#5",
                    "midi": 75,
                    "time": 90.89999999999998,
                    "velocity": 0.4251968503937008,
                    "duration": 0.11249999999999716
                },
                {
                    "name": "B4",
                    "midi": 71,
                    "time": 91.04999999999997,
                    "velocity": 0.4015748031496063,
                    "duration": 0.11249999999999716
                },
                {
                    "name": "D#5",
                    "midi": 75,
                    "time": 91.04999999999997,
                    "velocity": 0.4015748031496063,
                    "duration": 0.11249999999999716
                },
                {
                    "name": "G#4",
                    "midi": 68,
                    "time": 91.19999999999996,
                    "velocity": 0.4251968503937008,
                    "duration": 0.11249999999999716
                },
                {
                    "name": "D5",
                    "midi": 74,
                    "time": 91.19999999999996,
                    "velocity": 0.4251968503937008,
                    "duration": 0.11249999999999716
                },
                {
                    "name": "G#4",
                    "midi": 68,
                    "time": 91.34999999999995,
                    "velocity": 0.30708661417322836,
                    "duration": 0.11249999999999716
                },
                {
                    "name": "D5",
                    "midi": 74,
                    "time": 91.34999999999995,
                    "velocity": 0.30708661417322836,
                    "duration": 0.11249999999999716
                },
                {
                    "name": "G#4",
                    "midi": 68,
                    "time": 91.49999999999994,
                    "velocity": 0.4015748031496063,
                    "duration": 0.11249999999999716
                },
                {
                    "name": "D5",
                    "midi": 74,
                    "time": 91.49999999999994,
                    "velocity": 0.4015748031496063,
                    "duration": 0.11249999999999716
                },
                {
                    "name": "G#4",
                    "midi": 68,
                    "time": 91.64999999999993,
                    "velocity": 0.30708661417322836,
                    "duration": 0.11249999999999716
                },
                {
                    "name": "D5",
                    "midi": 74,
                    "time": 91.64999999999993,
                    "velocity": 0.30708661417322836,
                    "duration": 0.11249999999999716
                },
                {
                    "name": "F4",
                    "midi": 65,
                    "time": 91.79999999999993,
                    "velocity": 0.3858267716535433,
                    "duration": 0.11249999999999716
                },
                {
                    "name": "A#4",
                    "midi": 70,
                    "time": 91.79999999999993,
                    "velocity": 0.3858267716535433,
                    "duration": 0.11249999999999716
                },
                {
                    "name": "F4",
                    "midi": 65,
                    "time": 91.94999999999992,
                    "velocity": 0.29133858267716534,
                    "duration": 0.11249999999999716
                },
                {
                    "name": "A#4",
                    "midi": 70,
                    "time": 91.94999999999992,
                    "velocity": 0.29133858267716534,
                    "duration": 0.11249999999999716
                },
                {
                    "name": "F4",
                    "midi": 65,
                    "time": 92.09999999999991,
                    "velocity": 0.36220472440944884,
                    "duration": 0.11249999999999716
                },
                {
                    "name": "A#4",
                    "midi": 70,
                    "time": 92.09999999999991,
                    "velocity": 0.36220472440944884,
                    "duration": 0.11249999999999716
                },
                {
                    "name": "F4",
                    "midi": 65,
                    "time": 92.2499999999999,
                    "velocity": 0.2755905511811024,
                    "duration": 0.11249999999999716
                },
                {
                    "name": "A#4",
                    "midi": 70,
                    "time": 92.2499999999999,
                    "velocity": 0.2755905511811024,
                    "duration": 0.11249999999999716
                },
                {
                    "name": "D#4",
                    "midi": 63,
                    "time": 92.39999999999989,
                    "velocity": 0.4409448818897638,
                    "duration": 0.07500000000000284
                },
                {
                    "name": "G4",
                    "midi": 67,
                    "time": 92.39999999999989,
                    "velocity": 0.4409448818897638,
                    "duration": 0.07500000000000284
                },
                {
                    "name": "D#4",
                    "midi": 63,
                    "time": 92.5499999999999,
                    "velocity": 0.4094488188976378,
                    "duration": 0.07500000000000284
                },
                {
                    "name": "G4",
                    "midi": 67,
                    "time": 92.5499999999999,
                    "velocity": 0.4094488188976378,
                    "duration": 0.07500000000000284
                },
                {
                    "name": "D#4",
                    "midi": 63,
                    "time": 92.6999999999999,
                    "velocity": 0.4409448818897638,
                    "duration": 0.07500000000000284
                },
                {
                    "name": "G4",
                    "midi": 67,
                    "time": 92.6999999999999,
                    "velocity": 0.4409448818897638,
                    "duration": 0.07500000000000284
                },
                {
                    "name": "D#4",
                    "midi": 63,
                    "time": 92.84999999999991,
                    "velocity": 0.3937007874015748,
                    "duration": 0.07500000000000284
                },
                {
                    "name": "G4",
                    "midi": 67,
                    "time": 92.84999999999991,
                    "velocity": 0.3937007874015748,
                    "duration": 0.07500000000000284
                },
                {
                    "name": "D#4",
                    "midi": 63,
                    "time": 92.99999999999991,
                    "velocity": 0.4409448818897638,
                    "duration": 0.07500000000000284
                },
                {
                    "name": "G4",
                    "midi": 67,
                    "time": 92.99999999999991,
                    "velocity": 0.4409448818897638,
                    "duration": 0.07500000000000284
                },
                {
                    "name": "D#4",
                    "midi": 63,
                    "time": 93.14999999999992,
                    "velocity": 0.4094488188976378,
                    "duration": 0.07500000000000284
                },
                {
                    "name": "G4",
                    "midi": 67,
                    "time": 93.14999999999992,
                    "velocity": 0.4094488188976378,
                    "duration": 0.07500000000000284
                },
                {
                    "name": "D#4",
                    "midi": 63,
                    "time": 93.29999999999993,
                    "velocity": 0.4409448818897638,
                    "duration": 0.07500000000000284
                },
                {
                    "name": "G4",
                    "midi": 67,
                    "time": 93.29999999999993,
                    "velocity": 0.4409448818897638,
                    "duration": 0.07500000000000284
                },
                {
                    "name": "D#4",
                    "midi": 63,
                    "time": 93.44999999999993,
                    "velocity": 0.3937007874015748,
                    "duration": 0.07500000000000284
                },
                {
                    "name": "G4",
                    "midi": 67,
                    "time": 93.44999999999993,
                    "velocity": 0.3937007874015748,
                    "duration": 0.07500000000000284
                },
                {
                    "name": "A#4",
                    "midi": 70,
                    "time": 93.59999999999994,
                    "velocity": 0.4409448818897638,
                    "duration": 0.07500000000000284
                },
                {
                    "name": "G4",
                    "midi": 67,
                    "time": 93.59999999999994,
                    "velocity": 0.4409448818897638,
                    "duration": 0.07500000000000284
                },
                {
                    "name": "A#4",
                    "midi": 70,
                    "time": 93.74999999999994,
                    "velocity": 0.3937007874015748,
                    "duration": 0.07500000000000284
                },
                {
                    "name": "G4",
                    "midi": 67,
                    "time": 93.74999999999994,
                    "velocity": 0.3937007874015748,
                    "duration": 0.07500000000000284
                },
                {
                    "name": "A#4",
                    "midi": 70,
                    "time": 93.89999999999995,
                    "velocity": 0.4645669291338583,
                    "duration": 0.07500000000000284
                },
                {
                    "name": "G4",
                    "midi": 67,
                    "time": 93.89999999999995,
                    "velocity": 0.4645669291338583,
                    "duration": 0.07500000000000284
                },
                {
                    "name": "A#4",
                    "midi": 70,
                    "time": 94.04999999999995,
                    "velocity": 0.4015748031496063,
                    "duration": 0.07500000000000284
                },
                {
                    "name": "G4",
                    "midi": 67,
                    "time": 94.04999999999995,
                    "velocity": 0.4015748031496063,
                    "duration": 0.07500000000000284
                },
                {
                    "name": "A#4",
                    "midi": 70,
                    "time": 94.19999999999996,
                    "velocity": 0.4566929133858268,
                    "duration": 0.07500000000000284
                },
                {
                    "name": "G4",
                    "midi": 67,
                    "time": 94.19999999999996,
                    "velocity": 0.4566929133858268,
                    "duration": 0.07500000000000284
                },
                {
                    "name": "A#4",
                    "midi": 70,
                    "time": 94.34999999999997,
                    "velocity": 0.41732283464566927,
                    "duration": 0.07500000000000284
                },
                {
                    "name": "G4",
                    "midi": 67,
                    "time": 94.34999999999997,
                    "velocity": 0.41732283464566927,
                    "duration": 0.07500000000000284
                },
                {
                    "name": "A#4",
                    "midi": 70,
                    "time": 94.49999999999997,
                    "velocity": 0.4409448818897638,
                    "duration": 0.07500000000000284
                },
                {
                    "name": "G4",
                    "midi": 67,
                    "time": 94.49999999999997,
                    "velocity": 0.4409448818897638,
                    "duration": 0.07500000000000284
                },
                {
                    "name": "A#4",
                    "midi": 70,
                    "time": 94.64999999999998,
                    "velocity": 0.4015748031496063,
                    "duration": 0.07500000000000284
                },
                {
                    "name": "G4",
                    "midi": 67,
                    "time": 94.64999999999998,
                    "velocity": 0.4015748031496063,
                    "duration": 0.07500000000000284
                },
                {
                    "name": "B4",
                    "midi": 71,
                    "time": 94.79999999999998,
                    "velocity": 0.44881889763779526,
                    "duration": 0.11249999999999716
                },
                {
                    "name": "D#5",
                    "midi": 75,
                    "time": 94.79999999999998,
                    "velocity": 0.44881889763779526,
                    "duration": 0.11249999999999716
                },
                {
                    "name": "F#5",
                    "midi": 78,
                    "time": 94.79999999999998,
                    "velocity": 0.44881889763779526,
                    "duration": 0.5999999999999659
                },
                {
                    "name": "B4",
                    "midi": 71,
                    "time": 94.94999999999997,
                    "velocity": 0.4015748031496063,
                    "duration": 0.11249999999999716
                },
                {
                    "name": "D#5",
                    "midi": 75,
                    "time": 94.94999999999997,
                    "velocity": 0.4015748031496063,
                    "duration": 0.11249999999999716
                },
                {
                    "name": "B4",
                    "midi": 71,
                    "time": 95.09999999999997,
                    "velocity": 0.41732283464566927,
                    "duration": 0.11249999999999716
                },
                {
                    "name": "D#5",
                    "midi": 75,
                    "time": 95.09999999999997,
                    "velocity": 0.41732283464566927,
                    "duration": 0.11249999999999716
                },
                {
                    "name": "B4",
                    "midi": 71,
                    "time": 95.24999999999996,
                    "velocity": 0.3700787401574803,
                    "duration": 0.11249999999999716
                },
                {
                    "name": "D#5",
                    "midi": 75,
                    "time": 95.24999999999996,
                    "velocity": 0.3700787401574803,
                    "duration": 0.11249999999999716
                },
                {
                    "name": "G#4",
                    "midi": 68,
                    "time": 95.39999999999995,
                    "velocity": 0.41732283464566927,
                    "duration": 0.11249999999999716
                },
                {
                    "name": "B4",
                    "midi": 71,
                    "time": 95.39999999999995,
                    "velocity": 0.41732283464566927,
                    "duration": 0.11249999999999716
                },
                {
                    "name": "E5",
                    "midi": 76,
                    "time": 95.39999999999995,
                    "velocity": 0.41732283464566927,
                    "duration": 0.5999999999999659
                },
                {
                    "name": "G#4",
                    "midi": 68,
                    "time": 95.54999999999994,
                    "velocity": 0.3700787401574803,
                    "duration": 0.11249999999999716
                },
                {
                    "name": "B4",
                    "midi": 71,
                    "time": 95.54999999999994,
                    "velocity": 0.3700787401574803,
                    "duration": 0.11249999999999716
                },
                {
                    "name": "G#4",
                    "midi": 68,
                    "time": 95.69999999999993,
                    "velocity": 0.4330708661417323,
                    "duration": 0.11249999999999716
                },
                {
                    "name": "B4",
                    "midi": 71,
                    "time": 95.69999999999993,
                    "velocity": 0.4330708661417323,
                    "duration": 0.11249999999999716
                },
                {
                    "name": "G#4",
                    "midi": 68,
                    "time": 95.84999999999992,
                    "velocity": 0.3779527559055118,
                    "duration": 0.11249999999999716
                },
                {
                    "name": "B4",
                    "midi": 71,
                    "time": 95.84999999999992,
                    "velocity": 0.3779527559055118,
                    "duration": 0.11249999999999716
                },
                {
                    "name": "D#4",
                    "midi": 63,
                    "time": 95.99999999999991,
                    "velocity": 0.4094488188976378,
                    "duration": 0.11249999999999716
                },
                {
                    "name": "F#4",
                    "midi": 66,
                    "time": 95.99999999999991,
                    "velocity": 0.4094488188976378,
                    "duration": 0.11249999999999716
                },
                {
                    "name": "B4",
                    "midi": 71,
                    "time": 95.99999999999991,
                    "velocity": 0.4094488188976378,
                    "duration": 0.5999999999999659
                },
                {
                    "name": "D#4",
                    "midi": 63,
                    "time": 96.1499999999999,
                    "velocity": 0.36220472440944884,
                    "duration": 0.11249999999999716
                },
                {
                    "name": "F#4",
                    "midi": 66,
                    "time": 96.1499999999999,
                    "velocity": 0.36220472440944884,
                    "duration": 0.11249999999999716
                },
                {
                    "name": "D#4",
                    "midi": 63,
                    "time": 96.2999999999999,
                    "velocity": 0.4251968503937008,
                    "duration": 0.11249999999999716
                },
                {
                    "name": "F#4",
                    "midi": 66,
                    "time": 96.2999999999999,
                    "velocity": 0.4251968503937008,
                    "duration": 0.11249999999999716
                },
                {
                    "name": "D#4",
                    "midi": 63,
                    "time": 96.44999999999989,
                    "velocity": 0.3700787401574803,
                    "duration": 0.11249999999999716
                },
                {
                    "name": "F#4",
                    "midi": 66,
                    "time": 96.44999999999989,
                    "velocity": 0.3700787401574803,
                    "duration": 0.11249999999999716
                },
                {
                    "name": "B3",
                    "midi": 59,
                    "time": 96.59999999999988,
                    "velocity": 0.4330708661417323,
                    "duration": 0.11249999999999716
                },
                {
                    "name": "E4",
                    "midi": 64,
                    "time": 96.59999999999988,
                    "velocity": 0.4330708661417323,
                    "duration": 0.11249999999999716
                },
                {
                    "name": "G#4",
                    "midi": 68,
                    "time": 96.59999999999988,
                    "velocity": 0.4330708661417323,
                    "duration": 0.5999999999999659
                },
                {
                    "name": "B3",
                    "midi": 59,
                    "time": 96.74999999999987,
                    "velocity": 0.3700787401574803,
                    "duration": 0.11249999999999716
                },
                {
                    "name": "E4",
                    "midi": 64,
                    "time": 96.74999999999987,
                    "velocity": 0.3700787401574803,
                    "duration": 0.11249999999999716
                },
                {
                    "name": "B3",
                    "midi": 59,
                    "time": 96.89999999999986,
                    "velocity": 0.4015748031496063,
                    "duration": 0.11249999999999716
                },
                {
                    "name": "E4",
                    "midi": 64,
                    "time": 96.89999999999986,
                    "velocity": 0.4015748031496063,
                    "duration": 0.11249999999999716
                },
                {
                    "name": "B3",
                    "midi": 59,
                    "time": 97.04999999999986,
                    "velocity": 0.3779527559055118,
                    "duration": 0.11249999999999716
                },
                {
                    "name": "E4",
                    "midi": 64,
                    "time": 97.04999999999986,
                    "velocity": 0.3779527559055118,
                    "duration": 0.11249999999999716
                },
                {
                    "name": "A#3",
                    "midi": 58,
                    "time": 97.19999999999985,
                    "velocity": 0.33070866141732286,
                    "duration": 0.15000000000000568
                },
                {
                    "name": "C4",
                    "midi": 60,
                    "time": 97.34999999999985,
                    "velocity": 0.3464566929133858,
                    "duration": 0.15000000000000568
                },
                {
                    "name": "C#4",
                    "midi": 61,
                    "time": 97.49999999999986,
                    "velocity": 0.36220472440944884,
                    "duration": 0.15000000000000568
                },
                {
                    "name": "D4",
                    "midi": 62,
                    "time": 97.64999999999986,
                    "velocity": 0.3779527559055118,
                    "duration": 0.15000000000000568
                },
                {
                    "name": "D#4",
                    "midi": 63,
                    "time": 97.79999999999987,
                    "velocity": 0.4330708661417323,
                    "duration": 0.11249999999999716
                },
                {
                    "name": "F#4",
                    "midi": 66,
                    "time": 97.79999999999987,
                    "velocity": 0.4330708661417323,
                    "duration": 0.11249999999999716
                },
                {
                    "name": "D#4",
                    "midi": 63,
                    "time": 97.94999999999986,
                    "velocity": 0.3937007874015748,
                    "duration": 0.11249999999999716
                },
                {
                    "name": "F#4",
                    "midi": 66,
                    "time": 97.94999999999986,
                    "velocity": 0.3937007874015748,
                    "duration": 0.11249999999999716
                },
                {
                    "name": "D#4",
                    "midi": 63,
                    "time": 98.09999999999985,
                    "velocity": 0.3937007874015748,
                    "duration": 0.11249999999999716
                },
                {
                    "name": "F#4",
                    "midi": 66,
                    "time": 98.09999999999985,
                    "velocity": 0.3937007874015748,
                    "duration": 0.11249999999999716
                },
                {
                    "name": "D#4",
                    "midi": 63,
                    "time": 98.24999999999984,
                    "velocity": 0.3937007874015748,
                    "duration": 0.11249999999999716
                },
                {
                    "name": "F#4",
                    "midi": 66,
                    "time": 98.24999999999984,
                    "velocity": 0.3937007874015748,
                    "duration": 0.11249999999999716
                },
                {
                    "name": "A#3",
                    "midi": 58,
                    "time": 98.39999999999984,
                    "velocity": 0.31496062992125984,
                    "duration": 0.15000000000000568
                },
                {
                    "name": "C4",
                    "midi": 60,
                    "time": 98.54999999999984,
                    "velocity": 0.33070866141732286,
                    "duration": 0.15000000000000568
                },
                {
                    "name": "C#4",
                    "midi": 61,
                    "time": 98.69999999999985,
                    "velocity": 0.3464566929133858,
                    "duration": 0.15000000000000568
                },
                {
                    "name": "D4",
                    "midi": 62,
                    "time": 98.84999999999985,
                    "velocity": 0.36220472440944884,
                    "duration": 0.15000000000000568
                },
                {
                    "name": "D#4",
                    "midi": 63,
                    "time": 98.99999999999986,
                    "velocity": 0.4330708661417323,
                    "duration": 0.11249999999999716
                },
                {
                    "name": "F#4",
                    "midi": 66,
                    "time": 98.99999999999986,
                    "velocity": 0.4330708661417323,
                    "duration": 0.11249999999999716
                },
                {
                    "name": "D#4",
                    "midi": 63,
                    "time": 99.14999999999985,
                    "velocity": 0.3779527559055118,
                    "duration": 0.11249999999999716
                },
                {
                    "name": "F#4",
                    "midi": 66,
                    "time": 99.14999999999985,
                    "velocity": 0.3779527559055118,
                    "duration": 0.11249999999999716
                },
                {
                    "name": "D#4",
                    "midi": 63,
                    "time": 99.29999999999984,
                    "velocity": 0.3779527559055118,
                    "duration": 0.11249999999999716
                },
                {
                    "name": "F#4",
                    "midi": 66,
                    "time": 99.29999999999984,
                    "velocity": 0.3779527559055118,
                    "duration": 0.11249999999999716
                },
                {
                    "name": "D#4",
                    "midi": 63,
                    "time": 99.44999999999983,
                    "velocity": 0.3858267716535433,
                    "duration": 0.11249999999999716
                },
                {
                    "name": "F#4",
                    "midi": 66,
                    "time": 99.44999999999983,
                    "velocity": 0.3858267716535433,
                    "duration": 0.11249999999999716
                },
                {
                    "name": "C#4",
                    "midi": 61,
                    "time": 99.59999999999982,
                    "velocity": 0.33070866141732286,
                    "duration": 0.15000000000000568
                },
                {
                    "name": "D#4",
                    "midi": 63,
                    "time": 99.74999999999983,
                    "velocity": 0.3464566929133858,
                    "duration": 0.15000000000000568
                },
                {
                    "name": "E4",
                    "midi": 64,
                    "time": 99.89999999999984,
                    "velocity": 0.36220472440944884,
                    "duration": 0.15000000000000568
                },
                {
                    "name": "F4",
                    "midi": 65,
                    "time": 100.04999999999984,
                    "velocity": 0.3779527559055118,
                    "duration": 0.15000000000000568
                },
                {
                    "name": "F#4",
                    "midi": 66,
                    "time": 100.19999999999985,
                    "velocity": 0.4566929133858268,
                    "duration": 0.11249999999999716
                },
                {
                    "name": "A4",
                    "midi": 69,
                    "time": 100.19999999999985,
                    "velocity": 0.4566929133858268,
                    "duration": 0.11249999999999716
                },
                {
                    "name": "F#4",
                    "midi": 66,
                    "time": 100.34999999999984,
                    "velocity": 0.3937007874015748,
                    "duration": 0.11249999999999716
                },
                {
                    "name": "A4",
                    "midi": 69,
                    "time": 100.34999999999984,
                    "velocity": 0.3937007874015748,
                    "duration": 0.11249999999999716
                },
                {
                    "name": "F#4",
                    "midi": 66,
                    "time": 100.49999999999983,
                    "velocity": 0.4251968503937008,
                    "duration": 0.11249999999999716
                },
                {
                    "name": "A4",
                    "midi": 69,
                    "time": 100.49999999999983,
                    "velocity": 0.4251968503937008,
                    "duration": 0.11249999999999716
                },
                {
                    "name": "F#4",
                    "midi": 66,
                    "time": 100.64999999999982,
                    "velocity": 0.3937007874015748,
                    "duration": 0.11249999999999716
                },
                {
                    "name": "A4",
                    "midi": 69,
                    "time": 100.64999999999982,
                    "velocity": 0.3937007874015748,
                    "duration": 0.11249999999999716
                },
                {
                    "name": "D#4",
                    "midi": 63,
                    "time": 100.79999999999981,
                    "velocity": 0.33070866141732286,
                    "duration": 0.15000000000000568
                },
                {
                    "name": "F4",
                    "midi": 65,
                    "time": 100.94999999999982,
                    "velocity": 0.3464566929133858,
                    "duration": 0.15000000000000568
                },
                {
                    "name": "F#4",
                    "midi": 66,
                    "time": 101.09999999999982,
                    "velocity": 0.36220472440944884,
                    "duration": 0.15000000000000568
                },
                {
                    "name": "F#4",
                    "midi": 66,
                    "time": 101.24999999999983,
                    "velocity": 0.3779527559055118,
                    "duration": 0.15000000000000568
                },
                {
                    "name": "G#4",
                    "midi": 68,
                    "time": 101.39999999999984,
                    "velocity": 0.44881889763779526,
                    "duration": 0.11249999999999716
                },
                {
                    "name": "B4",
                    "midi": 71,
                    "time": 101.39999999999984,
                    "velocity": 0.44881889763779526,
                    "duration": 0.11249999999999716
                },
                {
                    "name": "G#4",
                    "midi": 68,
                    "time": 101.54999999999983,
                    "velocity": 0.3779527559055118,
                    "duration": 0.11249999999999716
                },
                {
                    "name": "B4",
                    "midi": 71,
                    "time": 101.54999999999983,
                    "velocity": 0.3779527559055118,
                    "duration": 0.11249999999999716
                },
                {
                    "name": "G#4",
                    "midi": 68,
                    "time": 101.69999999999982,
                    "velocity": 0.4094488188976378,
                    "duration": 0.11249999999999716
                },
                {
                    "name": "B4",
                    "midi": 71,
                    "time": 101.69999999999982,
                    "velocity": 0.4094488188976378,
                    "duration": 0.11249999999999716
                },
                {
                    "name": "G#4",
                    "midi": 68,
                    "time": 101.84999999999981,
                    "velocity": 0.3858267716535433,
                    "duration": 0.11249999999999716
                },
                {
                    "name": "B4",
                    "midi": 71,
                    "time": 101.84999999999981,
                    "velocity": 0.3858267716535433,
                    "duration": 0.11249999999999716
                },
                {
                    "name": "A#3",
                    "midi": 58,
                    "time": 101.9999999999998,
                    "velocity": 0.4251968503937008,
                    "duration": 0.15000000000000568
                },
                {
                    "name": "B3",
                    "midi": 59,
                    "time": 102.1499999999998,
                    "velocity": 0.4251968503937008,
                    "duration": 0.15000000000000568
                },
                {
                    "name": "D#4",
                    "midi": 63,
                    "time": 102.29999999999981,
                    "velocity": 0.3464566929133858,
                    "duration": 0.29999999999999716
                },
                {
                    "name": "F4",
                    "midi": 65,
                    "time": 102.29999999999981,
                    "velocity": 0.3464566929133858,
                    "duration": 0.29999999999999716
                },
                {
                    "name": "A#3",
                    "midi": 58,
                    "time": 102.59999999999981,
                    "velocity": 0.4251968503937008,
                    "duration": 0.15000000000000568
                },
                {
                    "name": "B3",
                    "midi": 59,
                    "time": 102.74999999999982,
                    "velocity": 0.4251968503937008,
                    "duration": 0.15000000000000568
                },
                {
                    "name": "D#4",
                    "midi": 63,
                    "time": 102.89999999999982,
                    "velocity": 0.3543307086614173,
                    "duration": 0.29999999999999716
                },
                {
                    "name": "F4",
                    "midi": 65,
                    "time": 102.89999999999982,
                    "velocity": 0.3543307086614173,
                    "duration": 0.29999999999999716
                },
                {
                    "name": "F4",
                    "midi": 65,
                    "time": 103.34999999999982,
                    "velocity": 0.4409448818897638,
                    "duration": 0.29999999999999716
                },
                {
                    "name": "G#4",
                    "midi": 68,
                    "time": 103.34999999999982,
                    "velocity": 0.4409448818897638,
                    "duration": 0.29999999999999716
                },
                {
                    "name": "E4",
                    "midi": 64,
                    "time": 103.64999999999982,
                    "velocity": 0.4094488188976378,
                    "duration": 0.29999999999999716
                },
                {
                    "name": "G4",
                    "midi": 67,
                    "time": 103.64999999999982,
                    "velocity": 0.4094488188976378,
                    "duration": 0.29999999999999716
                },
                {
                    "name": "D#4",
                    "midi": 63,
                    "time": 103.94999999999982,
                    "velocity": 0.3858267716535433,
                    "duration": 0.29999999999999716
                },
                {
                    "name": "F#4",
                    "midi": 66,
                    "time": 103.94999999999982,
                    "velocity": 0.3858267716535433,
                    "duration": 0.29999999999999716
                },
                {
                    "name": "D4",
                    "midi": 62,
                    "time": 104.24999999999982,
                    "velocity": 0.3779527559055118,
                    "duration": 0.15000000000000568
                },
                {
                    "name": "F4",
                    "midi": 65,
                    "time": 104.24999999999982,
                    "velocity": 0.3779527559055118,
                    "duration": 0.15000000000000568
                },
                {
                    "name": "D#4",
                    "midi": 63,
                    "time": 104.39999999999982,
                    "velocity": 0.4409448818897638,
                    "duration": 0.07500000000000284
                },
                {
                    "name": "G4",
                    "midi": 67,
                    "time": 104.39999999999982,
                    "velocity": 0.4409448818897638,
                    "duration": 0.07500000000000284
                },
                {
                    "name": "D#4",
                    "midi": 63,
                    "time": 104.54999999999983,
                    "velocity": 0.4094488188976378,
                    "duration": 0.07500000000000284
                },
                {
                    "name": "G4",
                    "midi": 67,
                    "time": 104.54999999999983,
                    "velocity": 0.4094488188976378,
                    "duration": 0.07500000000000284
                },
                {
                    "name": "D#4",
                    "midi": 63,
                    "time": 104.69999999999983,
                    "velocity": 0.4409448818897638,
                    "duration": 0.07500000000000284
                },
                {
                    "name": "G4",
                    "midi": 67,
                    "time": 104.69999999999983,
                    "velocity": 0.4409448818897638,
                    "duration": 0.07500000000000284
                },
                {
                    "name": "D#4",
                    "midi": 63,
                    "time": 104.84999999999984,
                    "velocity": 0.3937007874015748,
                    "duration": 0.07500000000000284
                },
                {
                    "name": "G4",
                    "midi": 67,
                    "time": 104.84999999999984,
                    "velocity": 0.3937007874015748,
                    "duration": 0.07500000000000284
                },
                {
                    "name": "D#4",
                    "midi": 63,
                    "time": 104.99999999999984,
                    "velocity": 0.4409448818897638,
                    "duration": 0.07500000000000284
                },
                {
                    "name": "G4",
                    "midi": 67,
                    "time": 104.99999999999984,
                    "velocity": 0.4409448818897638,
                    "duration": 0.07500000000000284
                },
                {
                    "name": "D#4",
                    "midi": 63,
                    "time": 105.14999999999985,
                    "velocity": 0.4094488188976378,
                    "duration": 0.07500000000000284
                },
                {
                    "name": "G4",
                    "midi": 67,
                    "time": 105.14999999999985,
                    "velocity": 0.4094488188976378,
                    "duration": 0.07500000000000284
                },
                {
                    "name": "D#4",
                    "midi": 63,
                    "time": 105.29999999999986,
                    "velocity": 0.4409448818897638,
                    "duration": 0.07500000000000284
                },
                {
                    "name": "G4",
                    "midi": 67,
                    "time": 105.29999999999986,
                    "velocity": 0.4409448818897638,
                    "duration": 0.07500000000000284
                },
                {
                    "name": "D#4",
                    "midi": 63,
                    "time": 105.44999999999986,
                    "velocity": 0.3937007874015748,
                    "duration": 0.07500000000000284
                },
                {
                    "name": "G4",
                    "midi": 67,
                    "time": 105.44999999999986,
                    "velocity": 0.3937007874015748,
                    "duration": 0.07500000000000284
                },
                {
                    "name": "A#4",
                    "midi": 70,
                    "time": 105.59999999999987,
                    "velocity": 0.4409448818897638,
                    "duration": 0.07500000000000284
                },
                {
                    "name": "G4",
                    "midi": 67,
                    "time": 105.59999999999987,
                    "velocity": 0.4409448818897638,
                    "duration": 0.07500000000000284
                },
                {
                    "name": "A#4",
                    "midi": 70,
                    "time": 105.74999999999987,
                    "velocity": 0.3937007874015748,
                    "duration": 0.07500000000000284
                },
                {
                    "name": "G4",
                    "midi": 67,
                    "time": 105.74999999999987,
                    "velocity": 0.3937007874015748,
                    "duration": 0.07500000000000284
                },
                {
                    "name": "A#4",
                    "midi": 70,
                    "time": 105.89999999999988,
                    "velocity": 0.4645669291338583,
                    "duration": 0.07500000000000284
                },
                {
                    "name": "G4",
                    "midi": 67,
                    "time": 105.89999999999988,
                    "velocity": 0.4645669291338583,
                    "duration": 0.07500000000000284
                },
                {
                    "name": "A#4",
                    "midi": 70,
                    "time": 106.04999999999988,
                    "velocity": 0.4015748031496063,
                    "duration": 0.07500000000000284
                },
                {
                    "name": "G4",
                    "midi": 67,
                    "time": 106.04999999999988,
                    "velocity": 0.4015748031496063,
                    "duration": 0.07500000000000284
                },
                {
                    "name": "A#4",
                    "midi": 70,
                    "time": 106.19999999999989,
                    "velocity": 0.4566929133858268,
                    "duration": 0.07500000000000284
                },
                {
                    "name": "G4",
                    "midi": 67,
                    "time": 106.19999999999989,
                    "velocity": 0.4566929133858268,
                    "duration": 0.07500000000000284
                },
                {
                    "name": "A#4",
                    "midi": 70,
                    "time": 106.3499999999999,
                    "velocity": 0.41732283464566927,
                    "duration": 0.07500000000000284
                },
                {
                    "name": "G4",
                    "midi": 67,
                    "time": 106.3499999999999,
                    "velocity": 0.41732283464566927,
                    "duration": 0.07500000000000284
                },
                {
                    "name": "A#4",
                    "midi": 70,
                    "time": 106.4999999999999,
                    "velocity": 0.4409448818897638,
                    "duration": 0.07500000000000284
                },
                {
                    "name": "G4",
                    "midi": 67,
                    "time": 106.4999999999999,
                    "velocity": 0.4409448818897638,
                    "duration": 0.07500000000000284
                },
                {
                    "name": "A#4",
                    "midi": 70,
                    "time": 106.6499999999999,
                    "velocity": 0.4015748031496063,
                    "duration": 0.07500000000000284
                },
                {
                    "name": "G4",
                    "midi": 67,
                    "time": 106.6499999999999,
                    "velocity": 0.4015748031496063,
                    "duration": 0.07500000000000284
                },
                {
                    "name": "G#4",
                    "midi": 68,
                    "time": 106.79999999999991,
                    "velocity": 0.4251968503937008,
                    "duration": 0.11249999999999716
                },
                {
                    "name": "B4",
                    "midi": 71,
                    "time": 106.79999999999991,
                    "velocity": 0.4251968503937008,
                    "duration": 0.11249999999999716
                },
                {
                    "name": "G#4",
                    "midi": 68,
                    "time": 106.9499999999999,
                    "velocity": 0.3779527559055118,
                    "duration": 0.11249999999999716
                },
                {
                    "name": "B4",
                    "midi": 71,
                    "time": 106.9499999999999,
                    "velocity": 0.3779527559055118,
                    "duration": 0.11249999999999716
                },
                {
                    "name": "B4",
                    "midi": 71,
                    "time": 107.0999999999999,
                    "velocity": 0.4251968503937008,
                    "duration": 0.11249999999999716
                },
                {
                    "name": "D#5",
                    "midi": 75,
                    "time": 107.0999999999999,
                    "velocity": 0.4251968503937008,
                    "duration": 0.11249999999999716
                },
                {
                    "name": "B4",
                    "midi": 71,
                    "time": 107.24999999999989,
                    "velocity": 0.3858267716535433,
                    "duration": 0.11249999999999716
                },
                {
                    "name": "D#5",
                    "midi": 75,
                    "time": 107.24999999999989,
                    "velocity": 0.3858267716535433,
                    "duration": 0.11249999999999716
                },
                {
                    "name": "G#4",
                    "midi": 68,
                    "time": 107.39999999999988,
                    "velocity": 0.4330708661417323,
                    "duration": 0.11249999999999716
                },
                {
                    "name": "B4",
                    "midi": 71,
                    "time": 107.39999999999988,
                    "velocity": 0.4330708661417323,
                    "duration": 0.11249999999999716
                },
                {
                    "name": "G#4",
                    "midi": 68,
                    "time": 107.54999999999987,
                    "velocity": 0.4015748031496063,
                    "duration": 0.11249999999999716
                },
                {
                    "name": "B4",
                    "midi": 71,
                    "time": 107.54999999999987,
                    "velocity": 0.4015748031496063,
                    "duration": 0.11249999999999716
                },
                {
                    "name": "B4",
                    "midi": 71,
                    "time": 107.69999999999986,
                    "velocity": 0.4251968503937008,
                    "duration": 0.11249999999999716
                },
                {
                    "name": "D#5",
                    "midi": 75,
                    "time": 107.69999999999986,
                    "velocity": 0.4251968503937008,
                    "duration": 0.11249999999999716
                },
                {
                    "name": "B4",
                    "midi": 71,
                    "time": 107.84999999999985,
                    "velocity": 0.4015748031496063,
                    "duration": 0.11249999999999716
                },
                {
                    "name": "D#5",
                    "midi": 75,
                    "time": 107.84999999999985,
                    "velocity": 0.4015748031496063,
                    "duration": 0.11249999999999716
                },
                {
                    "name": "G#4",
                    "midi": 68,
                    "time": 107.99999999999984,
                    "velocity": 0.33858267716535434,
                    "duration": 0.5999999999999659
                },
                {
                    "name": "C5",
                    "midi": 72,
                    "time": 107.99999999999984,
                    "velocity": 0.4251968503937008,
                    "duration": 0.11249999999999716
                },
                {
                    "name": "D#5",
                    "midi": 75,
                    "time": 107.99999999999984,
                    "velocity": 0.4251968503937008,
                    "duration": 0.11249999999999716
                },
                {
                    "name": "C5",
                    "midi": 72,
                    "time": 108.14999999999984,
                    "velocity": 0.36220472440944884,
                    "duration": 0.11249999999999716
                },
                {
                    "name": "D#5",
                    "midi": 75,
                    "time": 108.14999999999984,
                    "velocity": 0.36220472440944884,
                    "duration": 0.11249999999999716
                },
                {
                    "name": "C5",
                    "midi": 72,
                    "time": 108.29999999999983,
                    "velocity": 0.4251968503937008,
                    "duration": 0.11249999999999716
                },
                {
                    "name": "D#5",
                    "midi": 75,
                    "time": 108.29999999999983,
                    "velocity": 0.4251968503937008,
                    "duration": 0.11249999999999716
                },
                {
                    "name": "C5",
                    "midi": 72,
                    "time": 108.44999999999982,
                    "velocity": 0.3464566929133858,
                    "duration": 0.11249999999999716
                },
                {
                    "name": "D#5",
                    "midi": 75,
                    "time": 108.44999999999982,
                    "velocity": 0.3464566929133858,
                    "duration": 0.11249999999999716
                },
                {
                    "name": "D#4",
                    "midi": 63,
                    "time": 108.59999999999981,
                    "velocity": 0.33858267716535434,
                    "duration": 0.5999999999999659
                },
                {
                    "name": "G#4",
                    "midi": 68,
                    "time": 108.59999999999981,
                    "velocity": 0.41732283464566927,
                    "duration": 0.11249999999999716
                },
                {
                    "name": "C5",
                    "midi": 72,
                    "time": 108.59999999999981,
                    "velocity": 0.41732283464566927,
                    "duration": 0.11249999999999716
                },
                {
                    "name": "G#4",
                    "midi": 68,
                    "time": 108.7499999999998,
                    "velocity": 0.33858267716535434,
                    "duration": 0.11249999999999716
                },
                {
                    "name": "C5",
                    "midi": 72,
                    "time": 108.7499999999998,
                    "velocity": 0.33858267716535434,
                    "duration": 0.11249999999999716
                },
                {
                    "name": "G#4",
                    "midi": 68,
                    "time": 108.89999999999979,
                    "velocity": 0.3937007874015748,
                    "duration": 0.11249999999999716
                },
                {
                    "name": "C5",
                    "midi": 72,
                    "time": 108.89999999999979,
                    "velocity": 0.3937007874015748,
                    "duration": 0.11249999999999716
                },
                {
                    "name": "G#4",
                    "midi": 68,
                    "time": 109.04999999999978,
                    "velocity": 0.33858267716535434,
                    "duration": 0.11249999999999716
                },
                {
                    "name": "C5",
                    "midi": 72,
                    "time": 109.04999999999978,
                    "velocity": 0.33858267716535434,
                    "duration": 0.11249999999999716
                },
                {
                    "name": "C4",
                    "midi": 60,
                    "time": 109.19999999999978,
                    "velocity": 0.4094488188976378,
                    "duration": 0.5999999999999659
                },
                {
                    "name": "D#4",
                    "midi": 63,
                    "time": 109.19999999999978,
                    "velocity": 0.4094488188976378,
                    "duration": 0.11249999999999716
                },
                {
                    "name": "G#4",
                    "midi": 68,
                    "time": 109.19999999999978,
                    "velocity": 0.4094488188976378,
                    "duration": 0.11249999999999716
                },
                {
                    "name": "D#4",
                    "midi": 63,
                    "time": 109.34999999999977,
                    "velocity": 0.33858267716535434,
                    "duration": 0.11249999999999716
                },
                {
                    "name": "G#4",
                    "midi": 68,
                    "time": 109.34999999999977,
                    "velocity": 0.33858267716535434,
                    "duration": 0.11249999999999716
                },
                {
                    "name": "D#4",
                    "midi": 63,
                    "time": 109.49999999999976,
                    "velocity": 0.3858267716535433,
                    "duration": 0.11249999999999716
                },
                {
                    "name": "G#4",
                    "midi": 68,
                    "time": 109.49999999999976,
                    "velocity": 0.3858267716535433,
                    "duration": 0.11249999999999716
                },
                {
                    "name": "D#4",
                    "midi": 63,
                    "time": 109.64999999999975,
                    "velocity": 0.33858267716535434,
                    "duration": 0.11249999999999716
                },
                {
                    "name": "G#4",
                    "midi": 68,
                    "time": 109.64999999999975,
                    "velocity": 0.33858267716535434,
                    "duration": 0.11249999999999716
                },
                {
                    "name": "G#3",
                    "midi": 56,
                    "time": 109.79999999999974,
                    "velocity": 0.3858267716535433,
                    "duration": 0.5999999999999659
                },
                {
                    "name": "C4",
                    "midi": 60,
                    "time": 109.79999999999974,
                    "velocity": 0.3858267716535433,
                    "duration": 0.11249999999999716
                },
                {
                    "name": "D#4",
                    "midi": 63,
                    "time": 109.79999999999974,
                    "velocity": 0.3858267716535433,
                    "duration": 0.11249999999999716
                },
                {
                    "name": "C4",
                    "midi": 60,
                    "time": 109.94999999999973,
                    "velocity": 0.33858267716535434,
                    "duration": 0.11249999999999716
                },
                {
                    "name": "D#4",
                    "midi": 63,
                    "time": 109.94999999999973,
                    "velocity": 0.33858267716535434,
                    "duration": 0.11249999999999716
                },
                {
                    "name": "C4",
                    "midi": 60,
                    "time": 110.09999999999972,
                    "velocity": 0.4094488188976378,
                    "duration": 0.11249999999999716
                },
                {
                    "name": "D#4",
                    "midi": 63,
                    "time": 110.09999999999972,
                    "velocity": 0.4094488188976378,
                    "duration": 0.11249999999999716
                },
                {
                    "name": "C4",
                    "midi": 60,
                    "time": 110.24999999999972,
                    "velocity": 0.33858267716535434,
                    "duration": 0.11249999999999716
                },
                {
                    "name": "D#4",
                    "midi": 63,
                    "time": 110.24999999999972,
                    "velocity": 0.33858267716535434,
                    "duration": 0.11249999999999716
                },
                {
                    "name": "G3",
                    "midi": 55,
                    "time": 110.39999999999971,
                    "velocity": 0.47244094488188976,
                    "duration": 0.30000000000001137
                },
                {
                    "name": "A#3",
                    "midi": 58,
                    "time": 110.39999999999971,
                    "velocity": 0.47244094488188976,
                    "duration": 0.30000000000001137
                },
                {
                    "name": "G4",
                    "midi": 67,
                    "time": 110.39999999999971,
                    "velocity": 0.47244094488188976,
                    "duration": 0.30000000000001137
                },
                {
                    "name": "D#4",
                    "midi": 63,
                    "time": 110.39999999999971,
                    "velocity": 0.47244094488188976,
                    "duration": 0.30000000000001137
                },
                {
                    "name": "A#3",
                    "midi": 58,
                    "time": 110.54999999999971,
                    "velocity": 0.49606299212598426,
                    "duration": 0.15000000000000568
                },
                {
                    "name": "D4",
                    "midi": 62,
                    "time": 110.69999999999972,
                    "velocity": 0.5196850393700787,
                    "duration": 0.15000000000000568
                },
                {
                    "name": "D#4",
                    "midi": 63,
                    "time": 110.84999999999972,
                    "velocity": 0.5433070866141733,
                    "duration": 0.15000000000000568
                },
                {
                    "name": "G4",
                    "midi": 67,
                    "time": 110.99999999999973,
                    "velocity": 0.5669291338582677,
                    "duration": 0.15000000000000568
                },
                {
                    "name": "A#4",
                    "midi": 70,
                    "time": 111.14999999999974,
                    "velocity": 0.5905511811023622,
                    "duration": 0.15000000000000568
                },
                {
                    "name": "D5",
                    "midi": 74,
                    "time": 111.29999999999974,
                    "velocity": 0.6141732283464567,
                    "duration": 0.15000000000000568
                },
                {
                    "name": "D#5",
                    "midi": 75,
                    "time": 111.44999999999975,
                    "velocity": 0.6377952755905512,
                    "duration": 0.15000000000000568
                },
                {
                    "name": "F#4",
                    "midi": 66,
                    "time": 111.59999999999975,
                    "velocity": 0.6614173228346457,
                    "duration": 0.29999999999999716
                },
                {
                    "name": "A4",
                    "midi": 69,
                    "time": 111.59999999999975,
                    "velocity": 0.6614173228346457,
                    "duration": 0.29999999999999716
                },
                {
                    "name": "A3",
                    "midi": 57,
                    "time": 111.89999999999975,
                    "velocity": 0.5590551181102362,
                    "duration": 0.15000000000000568
                },
                {
                    "name": "C#4",
                    "midi": 61,
                    "time": 112.04999999999976,
                    "velocity": 0.5196850393700787,
                    "duration": 0.15000000000000568
                },
                {
                    "name": "D4",
                    "midi": 62,
                    "time": 112.19999999999976,
                    "velocity": 0.5511811023622047,
                    "duration": 0.15000000000000568
                },
                {
                    "name": "E4",
                    "midi": 64,
                    "time": 112.34999999999977,
                    "velocity": 0.5196850393700787,
                    "duration": 0.15000000000000568
                },
                {
                    "name": "F#4",
                    "midi": 66,
                    "time": 112.49999999999977,
                    "velocity": 0.5511811023622047,
                    "duration": 0.15000000000000568
                },
                {
                    "name": "A4",
                    "midi": 69,
                    "time": 112.64999999999978,
                    "velocity": 0.5118110236220472,
                    "duration": 0.15000000000000568
                },
                {
                    "name": "A#4",
                    "midi": 70,
                    "time": 112.79999999999978,
                    "velocity": 0.6141732283464567,
                    "duration": 0.15000000000000568
                },
                {
                    "name": "G#4",
                    "midi": 68,
                    "time": 112.94999999999979,
                    "velocity": 0.5826771653543307,
                    "duration": 0.15000000000000568
                },
                {
                    "name": "D4",
                    "midi": 62,
                    "time": 113.0999999999998,
                    "velocity": 0.5039370078740157,
                    "duration": 0.15000000000000568
                },
                {
                    "name": "E4",
                    "midi": 64,
                    "time": 113.0999999999998,
                    "velocity": 0.5039370078740157,
                    "duration": 0.15000000000000568
                },
                {
                    "name": "A#4",
                    "midi": 70,
                    "time": 113.3999999999998,
                    "velocity": 0.6062992125984252,
                    "duration": 0.15000000000000568
                },
                {
                    "name": "G#4",
                    "midi": 68,
                    "time": 113.54999999999981,
                    "velocity": 0.5669291338582677,
                    "duration": 0.15000000000000568
                },
                {
                    "name": "D4",
                    "midi": 62,
                    "time": 113.69999999999982,
                    "velocity": 0.5275590551181102,
                    "duration": 0.15000000000000568
                },
                {
                    "name": "E4",
                    "midi": 64,
                    "time": 113.69999999999982,
                    "velocity": 0.5275590551181102,
                    "duration": 0.15000000000000568
                },
                {
                    "name": "A#3",
                    "midi": 58,
                    "time": 113.99999999999983,
                    "velocity": 0.5590551181102362,
                    "duration": 0.5999999999999943
                },
                {
                    "name": "A3",
                    "midi": 57,
                    "time": 114.59999999999982,
                    "velocity": 0.4881889763779528,
                    "duration": 0.15000000000000568
                },
                {
                    "name": "G#3",
                    "midi": 56,
                    "time": 114.74999999999983,
                    "velocity": 0.4881889763779528,
                    "duration": 0.15000000000000568
                },
                {
                    "name": "B3",
                    "midi": 59,
                    "time": 114.89999999999984,
                    "velocity": 0.4881889763779528,
                    "duration": 0.15000000000000568
                },
                {
                    "name": "A#3",
                    "midi": 58,
                    "time": 115.04999999999984,
                    "velocity": 0.4881889763779528,
                    "duration": 0.15000000000000568
                },
                {
                    "name": "A3",
                    "midi": 57,
                    "time": 115.19999999999985,
                    "velocity": 0.49606299212598426,
                    "duration": 0.07500000000000284
                },
                {
                    "name": "B3",
                    "midi": 59,
                    "time": 115.34999999999985,
                    "velocity": 0.5196850393700787,
                    "duration": 0.07500000000000284
                },
                {
                    "name": "C4",
                    "midi": 60,
                    "time": 115.49999999999986,
                    "velocity": 0.5433070866141733,
                    "duration": 0.07500000000000284
                },
                {
                    "name": "C#4",
                    "midi": 61,
                    "time": 115.64999999999986,
                    "velocity": 0.5590551181102362,
                    "duration": 0.07500000000000284
                },
                {
                    "name": "F#4",
                    "midi": 66,
                    "time": 115.79999999999987,
                    "velocity": 0.6141732283464567,
                    "duration": 0.15000000000000568
                },
                {
                    "name": "E4",
                    "midi": 64,
                    "time": 115.94999999999987,
                    "velocity": 0.5511811023622047,
                    "duration": 0.15000000000000568
                },
                {
                    "name": "C#4",
                    "midi": 61,
                    "time": 116.09999999999988,
                    "velocity": 0.5826771653543307,
                    "duration": 0.15000000000000568
                },
                {
                    "name": "A3",
                    "midi": 57,
                    "time": 116.24999999999989,
                    "velocity": 0.5433070866141733,
                    "duration": 0.15000000000000568
                },
                {
                    "name": "F#4",
                    "midi": 66,
                    "time": 116.39999999999989,
                    "velocity": 0.6535433070866141,
                    "duration": 0.29999999999999716
                },
                {
                    "name": "A4",
                    "midi": 69,
                    "time": 116.39999999999989,
                    "velocity": 0.6535433070866141,
                    "duration": 0.29999999999999716
                },
                {
                    "name": "A3",
                    "midi": 57,
                    "time": 116.69999999999989,
                    "velocity": 0.5511811023622047,
                    "duration": 0.15000000000000568
                },
                {
                    "name": "C#4",
                    "midi": 61,
                    "time": 116.8499999999999,
                    "velocity": 0.5118110236220472,
                    "duration": 0.15000000000000568
                },
                {
                    "name": "D4",
                    "midi": 62,
                    "time": 116.9999999999999,
                    "velocity": 0.5511811023622047,
                    "duration": 0.15000000000000568
                },
                {
                    "name": "E4",
                    "midi": 64,
                    "time": 117.1499999999999,
                    "velocity": 0.5118110236220472,
                    "duration": 0.15000000000000568
                },
                {
                    "name": "F#4",
                    "midi": 66,
                    "time": 117.29999999999991,
                    "velocity": 0.5511811023622047,
                    "duration": 0.15000000000000568
                },
                {
                    "name": "A4",
                    "midi": 69,
                    "time": 117.44999999999992,
                    "velocity": 0.5196850393700787,
                    "duration": 0.15000000000000568
                },
                {
                    "name": "C5",
                    "midi": 72,
                    "time": 117.59999999999992,
                    "velocity": 0.6141732283464567,
                    "duration": 0.15000000000000568
                },
                {
                    "name": "A#4",
                    "midi": 70,
                    "time": 117.74999999999993,
                    "velocity": 0.5748031496062992,
                    "duration": 0.15000000000000568
                },
                {
                    "name": "F#4",
                    "midi": 66,
                    "time": 117.89999999999993,
                    "velocity": 0.5275590551181102,
                    "duration": 0.15000000000000568
                },
                {
                    "name": "E4",
                    "midi": 64,
                    "time": 117.89999999999993,
                    "velocity": 0.5275590551181102,
                    "duration": 0.15000000000000568
                },
                {
                    "name": "C5",
                    "midi": 72,
                    "time": 118.19999999999995,
                    "velocity": 0.6062992125984252,
                    "duration": 0.15000000000000568
                },
                {
                    "name": "A#4",
                    "midi": 70,
                    "time": 118.34999999999995,
                    "velocity": 0.5669291338582677,
                    "duration": 0.15000000000000568
                },
                {
                    "name": "F#4",
                    "midi": 66,
                    "time": 118.49999999999996,
                    "velocity": 0.5196850393700787,
                    "duration": 0.15000000000000568
                },
                {
                    "name": "E4",
                    "midi": 64,
                    "time": 118.49999999999996,
                    "velocity": 0.5196850393700787,
                    "duration": 0.15000000000000568
                },
                {
                    "name": "C4",
                    "midi": 60,
                    "time": 118.79999999999997,
                    "velocity": 0.5590551181102362,
                    "duration": 0.5999999999999943
                },
                {
                    "name": "B3",
                    "midi": 59,
                    "time": 119.39999999999996,
                    "velocity": 0.4881889763779528,
                    "duration": 0.15000000000000568
                },
                {
                    "name": "A#3",
                    "midi": 58,
                    "time": 119.54999999999997,
                    "velocity": 0.4881889763779528,
                    "duration": 0.15000000000000568
                },
                {
                    "name": "C#4",
                    "midi": 61,
                    "time": 119.69999999999997,
                    "velocity": 0.4881889763779528,
                    "duration": 0.15000000000000568
                },
                {
                    "name": "C4",
                    "midi": 60,
                    "time": 119.84999999999998,
                    "velocity": 0.4881889763779528,
                    "duration": 0.15000000000000568
                },
                {
                    "name": "B3",
                    "midi": 59,
                    "time": 119.99999999999999,
                    "velocity": 0.48031496062992124,
                    "duration": 0.07500000000000284
                },
                {
                    "name": "C#4",
                    "midi": 61,
                    "time": 120.14999999999999,
                    "velocity": 0.49606299212598426,
                    "duration": 0.07500000000000284
                },
                {
                    "name": "D4",
                    "midi": 62,
                    "time": 120.3,
                    "velocity": 0.5118110236220472,
                    "duration": 0.07500000000000284
                },
                {
                    "name": "D#4",
                    "midi": 63,
                    "time": 120.45,
                    "velocity": 0.5275590551181102,
                    "duration": 0.07500000000000284
                },
                {
                    "name": "G4",
                    "midi": 67,
                    "time": 120.60000000000001,
                    "velocity": 0.5748031496062992,
                    "duration": 0.15000000000000568
                },
                {
                    "name": "F4",
                    "midi": 65,
                    "time": 120.75000000000001,
                    "velocity": 0.5196850393700787,
                    "duration": 0.15000000000000568
                },
                {
                    "name": "D#4",
                    "midi": 63,
                    "time": 120.90000000000002,
                    "velocity": 0.5590551181102362,
                    "duration": 0.15000000000000568
                },
                {
                    "name": "B3",
                    "midi": 59,
                    "time": 121.05000000000003,
                    "velocity": 0.5196850393700787,
                    "duration": 0.15000000000000568
                },
                {
                    "name": "B4",
                    "midi": 71,
                    "time": 121.20000000000003,
                    "velocity": 0.6535433070866141,
                    "duration": 0.29999999999999716
                },
                {
                    "name": "E4",
                    "midi": 64,
                    "time": 121.20000000000003,
                    "velocity": 0.6535433070866141,
                    "duration": 0.29999999999999716
                },
                {
                    "name": "G4",
                    "midi": 67,
                    "time": 121.20000000000003,
                    "velocity": 0.6535433070866141,
                    "duration": 0.29999999999999716
                },
                {
                    "name": "G4",
                    "midi": 67,
                    "time": 121.50000000000003,
                    "velocity": 0.5196850393700787,
                    "duration": 0.11249999999999716
                },
                {
                    "name": "E4",
                    "midi": 64,
                    "time": 121.50000000000003,
                    "velocity": 0.5196850393700787,
                    "duration": 0.11249999999999716
                },
                {
                    "name": "E4",
                    "midi": 64,
                    "time": 121.65000000000002,
                    "velocity": 0.4566929133858268,
                    "duration": 0.11249999999999716
                },
                {
                    "name": "G4",
                    "midi": 67,
                    "time": 121.65000000000002,
                    "velocity": 0.4566929133858268,
                    "duration": 0.11249999999999716
                },
                {
                    "name": "E4",
                    "midi": 64,
                    "time": 121.80000000000001,
                    "velocity": 0.5196850393700787,
                    "duration": 0.11249999999999716
                },
                {
                    "name": "G4",
                    "midi": 67,
                    "time": 121.80000000000001,
                    "velocity": 0.5196850393700787,
                    "duration": 0.11249999999999716
                },
                {
                    "name": "E4",
                    "midi": 64,
                    "time": 121.95,
                    "velocity": 0.4566929133858268,
                    "duration": 0.11249999999999716
                },
                {
                    "name": "G4",
                    "midi": 67,
                    "time": 121.95,
                    "velocity": 0.4566929133858268,
                    "duration": 0.11249999999999716
                },
                {
                    "name": "E4",
                    "midi": 64,
                    "time": 122.1,
                    "velocity": 0.5196850393700787,
                    "duration": 0.11249999999999716
                },
                {
                    "name": "G4",
                    "midi": 67,
                    "time": 122.1,
                    "velocity": 0.5196850393700787,
                    "duration": 0.11249999999999716
                },
                {
                    "name": "E4",
                    "midi": 64,
                    "time": 122.24999999999999,
                    "velocity": 0.4645669291338583,
                    "duration": 0.11249999999999716
                },
                {
                    "name": "G4",
                    "midi": 67,
                    "time": 122.24999999999999,
                    "velocity": 0.4645669291338583,
                    "duration": 0.11249999999999716
                },
                {
                    "name": "D4",
                    "midi": 62,
                    "time": 122.39999999999998,
                    "velocity": 0.5511811023622047,
                    "duration": 0.30000000000001137
                },
                {
                    "name": "A4",
                    "midi": 69,
                    "time": 122.39999999999998,
                    "velocity": 0.5511811023622047,
                    "duration": 0.15000000000000568
                },
                {
                    "name": "A4",
                    "midi": 69,
                    "time": 122.54999999999998,
                    "velocity": 0.5118110236220472,
                    "duration": 0.15000000000000568
                },
                {
                    "name": "B4",
                    "midi": 71,
                    "time": 122.69999999999999,
                    "velocity": 0.5196850393700787,
                    "duration": 0.15000000000000568
                },
                {
                    "name": "B4",
                    "midi": 71,
                    "time": 122.85,
                    "velocity": 0.4645669291338583,
                    "duration": 0.15000000000000568
                },
                {
                    "name": "C5",
                    "midi": 72,
                    "time": 123,
                    "velocity": 0.5748031496062992,
                    "duration": 0.29999999999999716
                },
                {
                    "name": "D#4",
                    "midi": 63,
                    "time": 123,
                    "velocity": 0.4881889763779528,
                    "duration": 0.29999999999999716
                },
                {
                    "name": "G4",
                    "midi": 67,
                    "time": 123,
                    "velocity": 0.4881889763779528,
                    "duration": 0.29999999999999716
                },
                {
                    "name": "C4",
                    "midi": 60,
                    "time": 123.3,
                    "velocity": 0.5196850393700787,
                    "duration": 0.11249999999999716
                },
                {
                    "name": "D#4",
                    "midi": 63,
                    "time": 123.3,
                    "velocity": 0.5196850393700787,
                    "duration": 0.11249999999999716
                },
                {
                    "name": "D#4",
                    "midi": 63,
                    "time": 123.44999999999999,
                    "velocity": 0.4566929133858268,
                    "duration": 0.11249999999999716
                },
                {
                    "name": "C4",
                    "midi": 60,
                    "time": 123.44999999999999,
                    "velocity": 0.4566929133858268,
                    "duration": 0.11249999999999716
                },
                {
                    "name": "D#4",
                    "midi": 63,
                    "time": 123.59999999999998,
                    "velocity": 0.5196850393700787,
                    "duration": 0.11249999999999716
                },
                {
                    "name": "C4",
                    "midi": 60,
                    "time": 123.59999999999998,
                    "velocity": 0.5196850393700787,
                    "duration": 0.11249999999999716
                },
                {
                    "name": "D#4",
                    "midi": 63,
                    "time": 123.74999999999997,
                    "velocity": 0.4566929133858268,
                    "duration": 0.11249999999999716
                },
                {
                    "name": "C4",
                    "midi": 60,
                    "time": 123.74999999999997,
                    "velocity": 0.4566929133858268,
                    "duration": 0.11249999999999716
                },
                {
                    "name": "D#4",
                    "midi": 63,
                    "time": 123.89999999999996,
                    "velocity": 0.5196850393700787,
                    "duration": 0.11249999999999716
                },
                {
                    "name": "C4",
                    "midi": 60,
                    "time": 123.89999999999996,
                    "velocity": 0.5196850393700787,
                    "duration": 0.11249999999999716
                },
                {
                    "name": "D#4",
                    "midi": 63,
                    "time": 124.04999999999995,
                    "velocity": 0.4645669291338583,
                    "duration": 0.11249999999999716
                },
                {
                    "name": "C4",
                    "midi": 60,
                    "time": 124.04999999999995,
                    "velocity": 0.4645669291338583,
                    "duration": 0.11249999999999716
                },
                {
                    "name": "A#3",
                    "midi": 58,
                    "time": 124.19999999999995,
                    "velocity": 0.5511811023622047,
                    "duration": 0.30000000000001137
                },
                {
                    "name": "F4",
                    "midi": 65,
                    "time": 124.19999999999995,
                    "velocity": 0.5511811023622047,
                    "duration": 0.15000000000000568
                },
                {
                    "name": "F4",
                    "midi": 65,
                    "time": 124.34999999999995,
                    "velocity": 0.5118110236220472,
                    "duration": 0.15000000000000568
                },
                {
                    "name": "G4",
                    "midi": 67,
                    "time": 124.49999999999996,
                    "velocity": 0.5196850393700787,
                    "duration": 0.15000000000000568
                },
                {
                    "name": "G4",
                    "midi": 67,
                    "time": 124.64999999999996,
                    "velocity": 0.4645669291338583,
                    "duration": 0.15000000000000568
                },
                {
                    "name": "G#4",
                    "midi": 68,
                    "time": 124.79999999999997,
                    "velocity": 0.5905511811023622,
                    "duration": 0.29999999999999716
                },
                {
                    "name": "D#4",
                    "midi": 63,
                    "time": 124.79999999999997,
                    "velocity": 0.49606299212598426,
                    "duration": 0.29999999999999716
                },
                {
                    "name": "C4",
                    "midi": 60,
                    "time": 124.79999999999997,
                    "velocity": 0.49606299212598426,
                    "duration": 0.29999999999999716
                },
                {
                    "name": "G#4",
                    "midi": 68,
                    "time": 125.09999999999997,
                    "velocity": 0.5196850393700787,
                    "duration": 0.11249999999999716
                },
                {
                    "name": "D#4",
                    "midi": 63,
                    "time": 125.09999999999997,
                    "velocity": 0.5196850393700787,
                    "duration": 0.11249999999999716
                },
                {
                    "name": "D#4",
                    "midi": 63,
                    "time": 125.24999999999996,
                    "velocity": 0.4566929133858268,
                    "duration": 0.11249999999999716
                },
                {
                    "name": "G#4",
                    "midi": 68,
                    "time": 125.24999999999996,
                    "velocity": 0.4566929133858268,
                    "duration": 0.11249999999999716
                },
                {
                    "name": "D#4",
                    "midi": 63,
                    "time": 125.39999999999995,
                    "velocity": 0.5196850393700787,
                    "duration": 0.11249999999999716
                },
                {
                    "name": "C4",
                    "midi": 60,
                    "time": 125.39999999999995,
                    "velocity": 0.5196850393700787,
                    "duration": 0.11249999999999716
                },
                {
                    "name": "D#4",
                    "midi": 63,
                    "time": 125.54999999999994,
                    "velocity": 0.4566929133858268,
                    "duration": 0.11249999999999716
                },
                {
                    "name": "C4",
                    "midi": 60,
                    "time": 125.54999999999994,
                    "velocity": 0.4566929133858268,
                    "duration": 0.11249999999999716
                },
                {
                    "name": "D#4",
                    "midi": 63,
                    "time": 125.69999999999993,
                    "velocity": 0.5196850393700787,
                    "duration": 0.11249999999999716
                },
                {
                    "name": "G#3",
                    "midi": 56,
                    "time": 125.69999999999993,
                    "velocity": 0.5196850393700787,
                    "duration": 0.11249999999999716
                },
                {
                    "name": "D#4",
                    "midi": 63,
                    "time": 125.84999999999992,
                    "velocity": 0.4645669291338583,
                    "duration": 0.11249999999999716
                },
                {
                    "name": "G#3",
                    "midi": 56,
                    "time": 125.84999999999992,
                    "velocity": 0.4645669291338583,
                    "duration": 0.11249999999999716
                },
                {
                    "name": "A#3",
                    "midi": 58,
                    "time": 125.99999999999991,
                    "velocity": 0.5511811023622047,
                    "duration": 0.15000000000000568
                },
                {
                    "name": "B3",
                    "midi": 59,
                    "time": 126.14999999999992,
                    "velocity": 0.5118110236220472,
                    "duration": 0.15000000000000568
                },
                {
                    "name": "D#4",
                    "midi": 63,
                    "time": 126.29999999999993,
                    "velocity": 0.5196850393700787,
                    "duration": 0.29999999999999716
                },
                {
                    "name": "F4",
                    "midi": 65,
                    "time": 126.29999999999993,
                    "velocity": 0.5196850393700787,
                    "duration": 0.29999999999999716
                },
                {
                    "name": "G#4",
                    "midi": 68,
                    "time": 126.59999999999992,
                    "velocity": 0.5748031496062992,
                    "duration": 0.29999999999999716
                },
                {
                    "name": "D#4",
                    "midi": 63,
                    "time": 126.59999999999992,
                    "velocity": 0.4881889763779528,
                    "duration": 0.29999999999999716
                },
                {
                    "name": "C4",
                    "midi": 60,
                    "time": 126.59999999999992,
                    "velocity": 0.4881889763779528,
                    "duration": 0.29999999999999716
                },
                {
                    "name": "G#4",
                    "midi": 68,
                    "time": 126.89999999999992,
                    "velocity": 0.5196850393700787,
                    "duration": 0.11249999999999716
                },
                {
                    "name": "D#4",
                    "midi": 63,
                    "time": 126.89999999999992,
                    "velocity": 0.5196850393700787,
                    "duration": 0.11249999999999716
                },
                {
                    "name": "D#4",
                    "midi": 63,
                    "time": 127.04999999999991,
                    "velocity": 0.4566929133858268,
                    "duration": 0.11249999999999716
                },
                {
                    "name": "G#4",
                    "midi": 68,
                    "time": 127.04999999999991,
                    "velocity": 0.4566929133858268,
                    "duration": 0.11249999999999716
                },
                {
                    "name": "D#4",
                    "midi": 63,
                    "time": 127.1999999999999,
                    "velocity": 0.5196850393700787,
                    "duration": 0.11249999999999716
                },
                {
                    "name": "C4",
                    "midi": 60,
                    "time": 127.1999999999999,
                    "velocity": 0.5196850393700787,
                    "duration": 0.11249999999999716
                },
                {
                    "name": "D#4",
                    "midi": 63,
                    "time": 127.3499999999999,
                    "velocity": 0.4566929133858268,
                    "duration": 0.11249999999999716
                },
                {
                    "name": "C4",
                    "midi": 60,
                    "time": 127.3499999999999,
                    "velocity": 0.4566929133858268,
                    "duration": 0.11249999999999716
                },
                {
                    "name": "D#4",
                    "midi": 63,
                    "time": 127.49999999999989,
                    "velocity": 0.5196850393700787,
                    "duration": 0.11249999999999716
                },
                {
                    "name": "G#3",
                    "midi": 56,
                    "time": 127.49999999999989,
                    "velocity": 0.5196850393700787,
                    "duration": 0.11249999999999716
                },
                {
                    "name": "D#4",
                    "midi": 63,
                    "time": 127.64999999999988,
                    "velocity": 0.4645669291338583,
                    "duration": 0.11249999999999716
                },
                {
                    "name": "G#3",
                    "midi": 56,
                    "time": 127.64999999999988,
                    "velocity": 0.4645669291338583,
                    "duration": 0.11249999999999716
                },
                {
                    "name": "A#3",
                    "midi": 58,
                    "time": 127.79999999999987,
                    "velocity": 0.5511811023622047,
                    "duration": 0.15000000000000568
                },
                {
                    "name": "B3",
                    "midi": 59,
                    "time": 127.94999999999987,
                    "velocity": 0.5118110236220472,
                    "duration": 0.15000000000000568
                },
                {
                    "name": "D#4",
                    "midi": 63,
                    "time": 128.09999999999988,
                    "velocity": 0.5196850393700787,
                    "duration": 0.30000000000001137
                },
                {
                    "name": "F4",
                    "midi": 65,
                    "time": 128.09999999999988,
                    "velocity": 0.5196850393700787,
                    "duration": 0.30000000000001137
                },
                {
                    "name": "A#4",
                    "midi": 70,
                    "time": 128.3999999999999,
                    "velocity": 0.6062992125984252,
                    "duration": 0.15000000000000568
                },
                {
                    "name": "G#4",
                    "midi": 68,
                    "time": 128.5499999999999,
                    "velocity": 0.5669291338582677,
                    "duration": 0.15000000000000568
                },
                {
                    "name": "D4",
                    "midi": 62,
                    "time": 128.6999999999999,
                    "velocity": 0.5275590551181102,
                    "duration": 0.30000000000001137
                },
                {
                    "name": "E4",
                    "midi": 64,
                    "time": 128.6999999999999,
                    "velocity": 0.5275590551181102,
                    "duration": 0.30000000000001137
                },
                {
                    "name": "C#4",
                    "midi": 61,
                    "time": 128.99999999999991,
                    "velocity": 0.5511811023622047,
                    "duration": 0.30000000000001137
                },
                {
                    "name": "G#4",
                    "midi": 68,
                    "time": 128.99999999999991,
                    "velocity": 0.5511811023622047,
                    "duration": 0.30000000000001137
                },
                {
                    "name": "B4",
                    "midi": 71,
                    "time": 128.99999999999991,
                    "velocity": 0.6535433070866141,
                    "duration": 0.30000000000001137
                },
                {
                    "name": "G#4",
                    "midi": 68,
                    "time": 129.29999999999993,
                    "velocity": 0.5196850393700787,
                    "duration": 0.11250000000001137
                },
                {
                    "name": "B4",
                    "midi": 71,
                    "time": 129.29999999999993,
                    "velocity": 0.5196850393700787,
                    "duration": 0.11250000000001137
                },
                {
                    "name": "B4",
                    "midi": 71,
                    "time": 129.44999999999993,
                    "velocity": 0.4566929133858268,
                    "duration": 0.11250000000001137
                },
                {
                    "name": "G#4",
                    "midi": 68,
                    "time": 129.44999999999993,
                    "velocity": 0.4566929133858268,
                    "duration": 0.11250000000001137
                },
                {
                    "name": "F4",
                    "midi": 65,
                    "time": 129.59999999999994,
                    "velocity": 0.5196850393700787,
                    "duration": 0.11250000000001137
                },
                {
                    "name": "G#4",
                    "midi": 68,
                    "time": 129.59999999999994,
                    "velocity": 0.5196850393700787,
                    "duration": 0.11250000000001137
                },
                {
                    "name": "F4",
                    "midi": 65,
                    "time": 129.74999999999994,
                    "velocity": 0.4566929133858268,
                    "duration": 0.11250000000001137
                },
                {
                    "name": "G#4",
                    "midi": 68,
                    "time": 129.74999999999994,
                    "velocity": 0.4566929133858268,
                    "duration": 0.11250000000001137
                },
                {
                    "name": "G#4",
                    "midi": 68,
                    "time": 129.89999999999995,
                    "velocity": 0.5196850393700787,
                    "duration": 0.11250000000001137
                },
                {
                    "name": "C#4",
                    "midi": 61,
                    "time": 129.89999999999995,
                    "velocity": 0.5196850393700787,
                    "duration": 0.11250000000001137
                },
                {
                    "name": "G#4",
                    "midi": 68,
                    "time": 130.04999999999995,
                    "velocity": 0.4645669291338583,
                    "duration": 0.11250000000001137
                },
                {
                    "name": "C#4",
                    "midi": 61,
                    "time": 130.04999999999995,
                    "velocity": 0.4645669291338583,
                    "duration": 0.11250000000001137
                },
                {
                    "name": "D#4",
                    "midi": 63,
                    "time": 130.19999999999996,
                    "velocity": 0.5511811023622047,
                    "duration": 0.15000000000000568
                },
                {
                    "name": "E4",
                    "midi": 64,
                    "time": 130.34999999999997,
                    "velocity": 0.5118110236220472,
                    "duration": 0.15000000000000568
                },
                {
                    "name": "G#4",
                    "midi": 68,
                    "time": 130.49999999999997,
                    "velocity": 0.5196850393700787,
                    "duration": 0.30000000000001137
                },
                {
                    "name": "A#4",
                    "midi": 70,
                    "time": 130.49999999999997,
                    "velocity": 0.5196850393700787,
                    "duration": 0.30000000000001137
                },
                {
                    "name": "A#4",
                    "midi": 70,
                    "time": 130.79999999999998,
                    "velocity": 0.6062992125984252,
                    "duration": 0.15000000000000568
                },
                {
                    "name": "G#4",
                    "midi": 68,
                    "time": 130.95,
                    "velocity": 0.5669291338582677,
                    "duration": 0.15000000000000568
                },
                {
                    "name": "D4",
                    "midi": 62,
                    "time": 131.1,
                    "velocity": 0.5275590551181102,
                    "duration": 0.15000000000000568
                },
                {
                    "name": "E4",
                    "midi": 64,
                    "time": 131.1,
                    "velocity": 0.5275590551181102,
                    "duration": 0.15000000000000568
                },
                {
                    "name": "D#4",
                    "midi": 63,
                    "time": 131.4,
                    "velocity": 0.5511811023622047,
                    "duration": 0.15000000000000568
                },
                {
                    "name": "E4",
                    "midi": 64,
                    "time": 131.55,
                    "velocity": 0.5118110236220472,
                    "duration": 0.15000000000000568
                },
                {
                    "name": "G#4",
                    "midi": 68,
                    "time": 131.70000000000002,
                    "velocity": 0.5196850393700787,
                    "duration": 0.30000000000001137
                },
                {
                    "name": "A#4",
                    "midi": 70,
                    "time": 131.70000000000002,
                    "velocity": 0.5196850393700787,
                    "duration": 0.30000000000001137
                },
                {
                    "name": "D#4",
                    "midi": 63,
                    "time": 132.00000000000003,
                    "velocity": 0.5511811023622047,
                    "duration": 0.15000000000000568
                },
                {
                    "name": "E4",
                    "midi": 64,
                    "time": 132.15000000000003,
                    "velocity": 0.5118110236220472,
                    "duration": 0.15000000000000568
                },
                {
                    "name": "G#4",
                    "midi": 68,
                    "time": 132.30000000000004,
                    "velocity": 0.5196850393700787,
                    "duration": 0.30000000000001137
                },
                {
                    "name": "B4",
                    "midi": 71,
                    "time": 132.30000000000004,
                    "velocity": 0.5196850393700787,
                    "duration": 0.30000000000001137
                },
                {
                    "name": "A#4",
                    "midi": 70,
                    "time": 132.60000000000005,
                    "velocity": 0.6062992125984252,
                    "duration": 0.15000000000000568
                },
                {
                    "name": "G#4",
                    "midi": 68,
                    "time": 132.75000000000006,
                    "velocity": 0.5669291338582677,
                    "duration": 0.15000000000000568
                },
                {
                    "name": "D4",
                    "midi": 62,
                    "time": 132.90000000000006,
                    "velocity": 0.5275590551181102,
                    "duration": 0.30000000000001137
                },
                {
                    "name": "E4",
                    "midi": 64,
                    "time": 132.90000000000006,
                    "velocity": 0.5275590551181102,
                    "duration": 0.30000000000001137
                },
                {
                    "name": "D#4",
                    "midi": 63,
                    "time": 133.20000000000007,
                    "velocity": 0.5511811023622047,
                    "duration": 0.15000000000000568
                },
                {
                    "name": "E4",
                    "midi": 64,
                    "time": 133.35000000000008,
                    "velocity": 0.5118110236220472,
                    "duration": 0.15000000000000568
                },
                {
                    "name": "G#4",
                    "midi": 68,
                    "time": 133.50000000000009,
                    "velocity": 0.5196850393700787,
                    "duration": 0.30000000000001137
                },
                {
                    "name": "B4",
                    "midi": 71,
                    "time": 133.50000000000009,
                    "velocity": 0.5196850393700787,
                    "duration": 0.30000000000001137
                },
                {
                    "name": "D#4",
                    "midi": 63,
                    "time": 133.8000000000001,
                    "velocity": 0.5511811023622047,
                    "duration": 0.15000000000000568
                },
                {
                    "name": "E4",
                    "midi": 64,
                    "time": 133.9500000000001,
                    "velocity": 0.5118110236220472,
                    "duration": 0.15000000000000568
                },
                {
                    "name": "A4",
                    "midi": 69,
                    "time": 134.1000000000001,
                    "velocity": 0.5196850393700787,
                    "duration": 0.30000000000001137
                },
                {
                    "name": "C#5",
                    "midi": 73,
                    "time": 134.1000000000001,
                    "velocity": 0.5196850393700787,
                    "duration": 0.30000000000001137
                },
                {
                    "name": "A#4",
                    "midi": 70,
                    "time": 134.40000000000012,
                    "velocity": 0.6062992125984252,
                    "duration": 0.15000000000000568
                },
                {
                    "name": "G#4",
                    "midi": 68,
                    "time": 134.55000000000013,
                    "velocity": 0.5669291338582677,
                    "duration": 0.15000000000000568
                },
                {
                    "name": "D4",
                    "midi": 62,
                    "time": 134.70000000000013,
                    "velocity": 0.5275590551181102,
                    "duration": 0.15000000000000568
                },
                {
                    "name": "E4",
                    "midi": 64,
                    "time": 134.70000000000013,
                    "velocity": 0.5275590551181102,
                    "duration": 0.15000000000000568
                },
                {
                    "name": "D#4",
                    "midi": 63,
                    "time": 135.00000000000014,
                    "velocity": 0.5511811023622047,
                    "duration": 0.15000000000000568
                },
                {
                    "name": "E4",
                    "midi": 64,
                    "time": 135.15000000000015,
                    "velocity": 0.5118110236220472,
                    "duration": 0.15000000000000568
                },
                {
                    "name": "A4",
                    "midi": 69,
                    "time": 135.30000000000015,
                    "velocity": 0.5196850393700787,
                    "duration": 0.30000000000001137
                },
                {
                    "name": "C#5",
                    "midi": 73,
                    "time": 135.30000000000015,
                    "velocity": 0.5196850393700787,
                    "duration": 0.30000000000001137
                },
                {
                    "name": "D#4",
                    "midi": 63,
                    "time": 135.60000000000016,
                    "velocity": 0.5511811023622047,
                    "duration": 0.15000000000000568
                },
                {
                    "name": "E4",
                    "midi": 64,
                    "time": 135.75000000000017,
                    "velocity": 0.5118110236220472,
                    "duration": 0.15000000000000568
                },
                {
                    "name": "A4",
                    "midi": 69,
                    "time": 135.90000000000018,
                    "velocity": 0.5196850393700787,
                    "duration": 0.30000000000001137
                },
                {
                    "name": "C#5",
                    "midi": 73,
                    "time": 135.90000000000018,
                    "velocity": 0.5196850393700787,
                    "duration": 0.30000000000001137
                },
                {
                    "name": "D#4",
                    "midi": 63,
                    "time": 136.2000000000002,
                    "velocity": 0.5511811023622047,
                    "duration": 0.15000000000000568
                },
                {
                    "name": "E4",
                    "midi": 64,
                    "time": 136.3500000000002,
                    "velocity": 0.5118110236220472,
                    "duration": 0.15000000000000568
                },
                {
                    "name": "A4",
                    "midi": 69,
                    "time": 136.5000000000002,
                    "velocity": 0.5196850393700787,
                    "duration": 0.30000000000001137
                },
                {
                    "name": "C#5",
                    "midi": 73,
                    "time": 136.5000000000002,
                    "velocity": 0.5196850393700787,
                    "duration": 0.30000000000001137
                },
                {
                    "name": "G#4",
                    "midi": 68,
                    "time": 136.8000000000002,
                    "velocity": 0.5511811023622047,
                    "duration": 0.15000000000000568
                },
                {
                    "name": "A4",
                    "midi": 69,
                    "time": 136.95000000000022,
                    "velocity": 0.5118110236220472,
                    "duration": 0.15000000000000568
                },
                {
                    "name": "E5",
                    "midi": 76,
                    "time": 137.10000000000022,
                    "velocity": 0.5196850393700787,
                    "duration": 0.30000000000001137
                },
                {
                    "name": "C#5",
                    "midi": 73,
                    "time": 137.10000000000022,
                    "velocity": 0.5196850393700787,
                    "duration": 0.30000000000001137
                },
                {
                    "name": "E5",
                    "midi": 76,
                    "time": 137.40000000000023,
                    "velocity": 0.5196850393700787,
                    "duration": 0.30000000000001137
                },
                {
                    "name": "C#5",
                    "midi": 73,
                    "time": 137.40000000000023,
                    "velocity": 0.5196850393700787,
                    "duration": 0.30000000000001137
                },
                {
                    "name": "E5",
                    "midi": 76,
                    "time": 137.70000000000024,
                    "velocity": 0.5196850393700787,
                    "duration": 0.30000000000001137
                },
                {
                    "name": "C#5",
                    "midi": 73,
                    "time": 137.70000000000024,
                    "velocity": 0.5196850393700787,
                    "duration": 0.30000000000001137
                },
                {
                    "name": "D4",
                    "midi": 62,
                    "time": 138.00000000000026,
                    "velocity": 0.6220472440944882,
                    "duration": 0.07499999999998863
                },
                {
                    "name": "D4",
                    "midi": 62,
                    "time": 138.15000000000023,
                    "velocity": 0.5590551181102362,
                    "duration": 0.07499999999998863
                },
                {
                    "name": "D4",
                    "midi": 62,
                    "time": 138.3000000000002,
                    "velocity": 0.6220472440944882,
                    "duration": 0.07499999999998863
                },
                {
                    "name": "D4",
                    "midi": 62,
                    "time": 138.4500000000002,
                    "velocity": 0.5590551181102362,
                    "duration": 0.07499999999998863
                },
                {
                    "name": "D4",
                    "midi": 62,
                    "time": 138.60000000000016,
                    "velocity": 0.6299212598425197,
                    "duration": 0.07499999999998863
                },
                {
                    "name": "D#4",
                    "midi": 63,
                    "time": 138.75000000000014,
                    "velocity": 0.5748031496062992,
                    "duration": 0.07499999999998863
                },
                {
                    "name": "D4",
                    "midi": 62,
                    "time": 138.90000000000012,
                    "velocity": 0.6377952755905512,
                    "duration": 0.07499999999998863
                },
                {
                    "name": "F4",
                    "midi": 65,
                    "time": 139.0500000000001,
                    "velocity": 0.5590551181102362,
                    "duration": 0.07499999999998863
                },
                {
                    "name": "D4",
                    "midi": 62,
                    "time": 139.20000000000007,
                    "velocity": 0.6377952755905512,
                    "duration": 0.07499999999998863
                },
                {
                    "name": "D4",
                    "midi": 62,
                    "time": 139.35000000000005,
                    "velocity": 0.5669291338582677,
                    "duration": 0.07499999999998863
                },
                {
                    "name": "D4",
                    "midi": 62,
                    "time": 139.50000000000003,
                    "velocity": 0.6377952755905512,
                    "duration": 0.07499999999998863
                },
                {
                    "name": "D4",
                    "midi": 62,
                    "time": 139.65,
                    "velocity": 0.5748031496062992,
                    "duration": 0.07499999999998863
                },
                {
                    "name": "D4",
                    "midi": 62,
                    "time": 139.79999999999998,
                    "velocity": 0.6377952755905512,
                    "duration": 0.07499999999998863
                },
                {
                    "name": "E4",
                    "midi": 64,
                    "time": 139.94999999999996,
                    "velocity": 0.5748031496062992,
                    "duration": 0.07499999999998863
                },
                {
                    "name": "D4",
                    "midi": 62,
                    "time": 140.09999999999994,
                    "velocity": 0.6377952755905512,
                    "duration": 0.07499999999998863
                },
                {
                    "name": "A4",
                    "midi": 69,
                    "time": 140.24999999999991,
                    "velocity": 0.5669291338582677,
                    "duration": 0.07499999999998863
                },
                {
                    "name": "C#5",
                    "midi": 73,
                    "time": 141.1499999999999,
                    "velocity": 0.5905511811023622,
                    "duration": 0.15000000000000568
                },
                {
                    "name": "C5",
                    "midi": 72,
                    "time": 141.2999999999999,
                    "velocity": 0.5826771653543307,
                    "duration": 0.15000000000000568
                },
                {
                    "name": "B4",
                    "midi": 71,
                    "time": 141.4499999999999,
                    "velocity": 0.5748031496062992,
                    "duration": 0.15000000000000568
                },
                {
                    "name": "A#4",
                    "midi": 70,
                    "time": 141.5999999999999,
                    "velocity": 0.5669291338582677,
                    "duration": 0.15000000000000568
                },
                {
                    "name": "A4",
                    "midi": 69,
                    "time": 141.74999999999991,
                    "velocity": 0.5669291338582677,
                    "duration": 0.15000000000000568
                },
                {
                    "name": "G#4",
                    "midi": 68,
                    "time": 141.89999999999992,
                    "velocity": 0.5590551181102362,
                    "duration": 0.15000000000000568
                },
                {
                    "name": "G4",
                    "midi": 67,
                    "time": 142.04999999999993,
                    "velocity": 0.5511811023622047,
                    "duration": 0.15000000000000568
                },
                {
                    "name": "F#4",
                    "midi": 66,
                    "time": 142.19999999999993,
                    "velocity": 0.5433070866141733,
                    "duration": 0.15000000000000568
                },
                {
                    "name": "F4",
                    "midi": 65,
                    "time": 142.34999999999994,
                    "velocity": 0.5354330708661418,
                    "duration": 0.15000000000000568
                },
                {
                    "name": "E4",
                    "midi": 64,
                    "time": 142.49999999999994,
                    "velocity": 0.5275590551181102,
                    "duration": 0.15000000000000568
                },
                {
                    "name": "D#4",
                    "midi": 63,
                    "time": 142.64999999999995,
                    "velocity": 0.5196850393700787,
                    "duration": 0.15000000000000568
                },
                {
                    "name": "D#4",
                    "midi": 63,
                    "time": 142.79999999999995,
                    "velocity": 0.4409448818897638,
                    "duration": 0.11250000000001137
                },
                {
                    "name": "G4",
                    "midi": 67,
                    "time": 142.79999999999995,
                    "velocity": 0.4409448818897638,
                    "duration": 0.11250000000001137
                },
                {
                    "name": "D#4",
                    "midi": 63,
                    "time": 142.94999999999996,
                    "velocity": 0.4094488188976378,
                    "duration": 0.11250000000001137
                },
                {
                    "name": "G4",
                    "midi": 67,
                    "time": 142.94999999999996,
                    "velocity": 0.4094488188976378,
                    "duration": 0.11250000000001137
                },
                {
                    "name": "D#4",
                    "midi": 63,
                    "time": 143.09999999999997,
                    "velocity": 0.4409448818897638,
                    "duration": 0.11250000000001137
                },
                {
                    "name": "G4",
                    "midi": 67,
                    "time": 143.09999999999997,
                    "velocity": 0.4409448818897638,
                    "duration": 0.11250000000001137
                },
                {
                    "name": "D#4",
                    "midi": 63,
                    "time": 143.24999999999997,
                    "velocity": 0.3937007874015748,
                    "duration": 0.11250000000001137
                },
                {
                    "name": "G4",
                    "midi": 67,
                    "time": 143.24999999999997,
                    "velocity": 0.3937007874015748,
                    "duration": 0.11250000000001137
                },
                {
                    "name": "D#4",
                    "midi": 63,
                    "time": 143.39999999999998,
                    "velocity": 0.4409448818897638,
                    "duration": 0.11250000000001137
                },
                {
                    "name": "G4",
                    "midi": 67,
                    "time": 143.39999999999998,
                    "velocity": 0.4409448818897638,
                    "duration": 0.11250000000001137
                },
                {
                    "name": "D#4",
                    "midi": 63,
                    "time": 143.54999999999998,
                    "velocity": 0.4094488188976378,
                    "duration": 0.11250000000001137
                },
                {
                    "name": "G4",
                    "midi": 67,
                    "time": 143.54999999999998,
                    "velocity": 0.4094488188976378,
                    "duration": 0.11250000000001137
                },
                {
                    "name": "D#4",
                    "midi": 63,
                    "time": 143.7,
                    "velocity": 0.4409448818897638,
                    "duration": 0.11250000000001137
                },
                {
                    "name": "G4",
                    "midi": 67,
                    "time": 143.7,
                    "velocity": 0.4409448818897638,
                    "duration": 0.11250000000001137
                },
                {
                    "name": "D#4",
                    "midi": 63,
                    "time": 143.85,
                    "velocity": 0.3937007874015748,
                    "duration": 0.11250000000001137
                },
                {
                    "name": "G4",
                    "midi": 67,
                    "time": 143.85,
                    "velocity": 0.3937007874015748,
                    "duration": 0.11250000000001137
                },
                {
                    "name": "A#4",
                    "midi": 70,
                    "time": 144,
                    "velocity": 0.4409448818897638,
                    "duration": 0.11250000000001137
                },
                {
                    "name": "G4",
                    "midi": 67,
                    "time": 144,
                    "velocity": 0.4409448818897638,
                    "duration": 0.11250000000001137
                },
                {
                    "name": "A#4",
                    "midi": 70,
                    "time": 144.15,
                    "velocity": 0.3937007874015748,
                    "duration": 0.11250000000001137
                },
                {
                    "name": "G4",
                    "midi": 67,
                    "time": 144.15,
                    "velocity": 0.3937007874015748,
                    "duration": 0.11250000000001137
                },
                {
                    "name": "A#4",
                    "midi": 70,
                    "time": 144.3,
                    "velocity": 0.4645669291338583,
                    "duration": 0.11250000000001137
                },
                {
                    "name": "G4",
                    "midi": 67,
                    "time": 144.3,
                    "velocity": 0.4645669291338583,
                    "duration": 0.11250000000001137
                },
                {
                    "name": "A#4",
                    "midi": 70,
                    "time": 144.45000000000002,
                    "velocity": 0.4015748031496063,
                    "duration": 0.11250000000001137
                },
                {
                    "name": "G4",
                    "midi": 67,
                    "time": 144.45000000000002,
                    "velocity": 0.4015748031496063,
                    "duration": 0.11250000000001137
                },
                {
                    "name": "A#4",
                    "midi": 70,
                    "time": 144.60000000000002,
                    "velocity": 0.4566929133858268,
                    "duration": 0.11250000000001137
                },
                {
                    "name": "G4",
                    "midi": 67,
                    "time": 144.60000000000002,
                    "velocity": 0.4566929133858268,
                    "duration": 0.11250000000001137
                },
                {
                    "name": "A#4",
                    "midi": 70,
                    "time": 144.75000000000003,
                    "velocity": 0.41732283464566927,
                    "duration": 0.11250000000001137
                },
                {
                    "name": "G4",
                    "midi": 67,
                    "time": 144.75000000000003,
                    "velocity": 0.41732283464566927,
                    "duration": 0.11250000000001137
                },
                {
                    "name": "A#4",
                    "midi": 70,
                    "time": 144.90000000000003,
                    "velocity": 0.4409448818897638,
                    "duration": 0.11250000000001137
                },
                {
                    "name": "G4",
                    "midi": 67,
                    "time": 144.90000000000003,
                    "velocity": 0.4409448818897638,
                    "duration": 0.11250000000001137
                },
                {
                    "name": "A#4",
                    "midi": 70,
                    "time": 145.05000000000004,
                    "velocity": 0.4015748031496063,
                    "duration": 0.11250000000001137
                },
                {
                    "name": "G4",
                    "midi": 67,
                    "time": 145.05000000000004,
                    "velocity": 0.4015748031496063,
                    "duration": 0.11250000000001137
                },
                {
                    "name": "G#4",
                    "midi": 68,
                    "time": 145.20000000000005,
                    "velocity": 0.4251968503937008,
                    "duration": 0.11250000000001137
                },
                {
                    "name": "B4",
                    "midi": 71,
                    "time": 145.20000000000005,
                    "velocity": 0.4251968503937008,
                    "duration": 0.11250000000001137
                },
                {
                    "name": "G#4",
                    "midi": 68,
                    "time": 145.35000000000005,
                    "velocity": 0.3779527559055118,
                    "duration": 0.11250000000001137
                },
                {
                    "name": "B4",
                    "midi": 71,
                    "time": 145.35000000000005,
                    "velocity": 0.3779527559055118,
                    "duration": 0.11250000000001137
                },
                {
                    "name": "B4",
                    "midi": 71,
                    "time": 145.50000000000006,
                    "velocity": 0.4251968503937008,
                    "duration": 0.11250000000001137
                },
                {
                    "name": "D#5",
                    "midi": 75,
                    "time": 145.50000000000006,
                    "velocity": 0.4251968503937008,
                    "duration": 0.11250000000001137
                },
                {
                    "name": "B4",
                    "midi": 71,
                    "time": 145.65000000000006,
                    "velocity": 0.3858267716535433,
                    "duration": 0.11250000000001137
                },
                {
                    "name": "D#5",
                    "midi": 75,
                    "time": 145.65000000000006,
                    "velocity": 0.3858267716535433,
                    "duration": 0.11250000000001137
                },
                {
                    "name": "G#4",
                    "midi": 68,
                    "time": 145.80000000000007,
                    "velocity": 0.4330708661417323,
                    "duration": 0.11250000000001137
                },
                {
                    "name": "B4",
                    "midi": 71,
                    "time": 145.80000000000007,
                    "velocity": 0.4330708661417323,
                    "duration": 0.11250000000001137
                },
                {
                    "name": "G#4",
                    "midi": 68,
                    "time": 145.95000000000007,
                    "velocity": 0.4015748031496063,
                    "duration": 0.11250000000001137
                },
                {
                    "name": "B4",
                    "midi": 71,
                    "time": 145.95000000000007,
                    "velocity": 0.4015748031496063,
                    "duration": 0.11250000000001137
                },
                {
                    "name": "B4",
                    "midi": 71,
                    "time": 146.10000000000008,
                    "velocity": 0.4251968503937008,
                    "duration": 0.11250000000001137
                },
                {
                    "name": "D#5",
                    "midi": 75,
                    "time": 146.10000000000008,
                    "velocity": 0.4251968503937008,
                    "duration": 0.11250000000001137
                },
                {
                    "name": "B4",
                    "midi": 71,
                    "time": 146.25000000000009,
                    "velocity": 0.4015748031496063,
                    "duration": 0.11250000000001137
                },
                {
                    "name": "D#5",
                    "midi": 75,
                    "time": 146.25000000000009,
                    "velocity": 0.4015748031496063,
                    "duration": 0.11250000000001137
                },
                {
                    "name": "G#4",
                    "midi": 68,
                    "time": 146.4000000000001,
                    "velocity": 0.4015748031496063,
                    "duration": 0.11250000000001137
                },
                {
                    "name": "D5",
                    "midi": 74,
                    "time": 146.4000000000001,
                    "velocity": 0.4015748031496063,
                    "duration": 0.11250000000001137
                },
                {
                    "name": "G#4",
                    "midi": 68,
                    "time": 146.5500000000001,
                    "velocity": 0.33070866141732286,
                    "duration": 0.11250000000001137
                },
                {
                    "name": "D5",
                    "midi": 74,
                    "time": 146.5500000000001,
                    "velocity": 0.33070866141732286,
                    "duration": 0.11250000000001137
                },
                {
                    "name": "G#4",
                    "midi": 68,
                    "time": 146.7000000000001,
                    "velocity": 0.3858267716535433,
                    "duration": 0.11250000000001137
                },
                {
                    "name": "D5",
                    "midi": 74,
                    "time": 146.7000000000001,
                    "velocity": 0.3858267716535433,
                    "duration": 0.11250000000001137
                },
                {
                    "name": "G#4",
                    "midi": 68,
                    "time": 146.8500000000001,
                    "velocity": 0.30708661417322836,
                    "duration": 0.11250000000001137
                },
                {
                    "name": "D5",
                    "midi": 74,
                    "time": 146.8500000000001,
                    "velocity": 0.30708661417322836,
                    "duration": 0.11250000000001137
                },
                {
                    "name": "F4",
                    "midi": 65,
                    "time": 147.0000000000001,
                    "velocity": 0.3700787401574803,
                    "duration": 0.11250000000001137
                },
                {
                    "name": "A#4",
                    "midi": 70,
                    "time": 147.0000000000001,
                    "velocity": 0.3700787401574803,
                    "duration": 0.11250000000001137
                },
                {
                    "name": "F4",
                    "midi": 65,
                    "time": 147.15000000000012,
                    "velocity": 0.2992125984251969,
                    "duration": 0.11250000000001137
                },
                {
                    "name": "A#4",
                    "midi": 70,
                    "time": 147.15000000000012,
                    "velocity": 0.2992125984251969,
                    "duration": 0.11250000000001137
                },
                {
                    "name": "F4",
                    "midi": 65,
                    "time": 147.30000000000013,
                    "velocity": 0.36220472440944884,
                    "duration": 0.11250000000001137
                },
                {
                    "name": "A#4",
                    "midi": 70,
                    "time": 147.30000000000013,
                    "velocity": 0.36220472440944884,
                    "duration": 0.11250000000001137
                },
                {
                    "name": "F4",
                    "midi": 65,
                    "time": 147.45000000000013,
                    "velocity": 0.28346456692913385,
                    "duration": 0.11250000000001137
                },
                {
                    "name": "A#4",
                    "midi": 70,
                    "time": 147.45000000000013,
                    "velocity": 0.28346456692913385,
                    "duration": 0.11250000000001137
                },
                {
                    "name": "D#4",
                    "midi": 63,
                    "time": 147.60000000000014,
                    "velocity": 0.4409448818897638,
                    "duration": 0.11250000000001137
                },
                {
                    "name": "G4",
                    "midi": 67,
                    "time": 147.60000000000014,
                    "velocity": 0.4409448818897638,
                    "duration": 0.11250000000001137
                },
                {
                    "name": "D#4",
                    "midi": 63,
                    "time": 147.75000000000014,
                    "velocity": 0.4094488188976378,
                    "duration": 0.11250000000001137
                },
                {
                    "name": "G4",
                    "midi": 67,
                    "time": 147.75000000000014,
                    "velocity": 0.4094488188976378,
                    "duration": 0.11250000000001137
                },
                {
                    "name": "D#4",
                    "midi": 63,
                    "time": 147.90000000000015,
                    "velocity": 0.4409448818897638,
                    "duration": 0.11250000000001137
                },
                {
                    "name": "G4",
                    "midi": 67,
                    "time": 147.90000000000015,
                    "velocity": 0.4409448818897638,
                    "duration": 0.11250000000001137
                },
                {
                    "name": "D#4",
                    "midi": 63,
                    "time": 148.05000000000015,
                    "velocity": 0.3937007874015748,
                    "duration": 0.11250000000001137
                },
                {
                    "name": "G4",
                    "midi": 67,
                    "time": 148.05000000000015,
                    "velocity": 0.3937007874015748,
                    "duration": 0.11250000000001137
                },
                {
                    "name": "D#4",
                    "midi": 63,
                    "time": 148.20000000000016,
                    "velocity": 0.4409448818897638,
                    "duration": 0.11250000000001137
                },
                {
                    "name": "G4",
                    "midi": 67,
                    "time": 148.20000000000016,
                    "velocity": 0.4409448818897638,
                    "duration": 0.11250000000001137
                },
                {
                    "name": "D#4",
                    "midi": 63,
                    "time": 148.35000000000016,
                    "velocity": 0.4094488188976378,
                    "duration": 0.11250000000001137
                },
                {
                    "name": "G4",
                    "midi": 67,
                    "time": 148.35000000000016,
                    "velocity": 0.4094488188976378,
                    "duration": 0.11250000000001137
                },
                {
                    "name": "D#4",
                    "midi": 63,
                    "time": 148.50000000000017,
                    "velocity": 0.4409448818897638,
                    "duration": 0.11250000000001137
                },
                {
                    "name": "G4",
                    "midi": 67,
                    "time": 148.50000000000017,
                    "velocity": 0.4409448818897638,
                    "duration": 0.11250000000001137
                },
                {
                    "name": "D#4",
                    "midi": 63,
                    "time": 148.65000000000018,
                    "velocity": 0.3937007874015748,
                    "duration": 0.11250000000001137
                },
                {
                    "name": "G4",
                    "midi": 67,
                    "time": 148.65000000000018,
                    "velocity": 0.3937007874015748,
                    "duration": 0.11250000000001137
                },
                {
                    "name": "A#4",
                    "midi": 70,
                    "time": 148.80000000000018,
                    "velocity": 0.4409448818897638,
                    "duration": 0.11250000000001137
                },
                {
                    "name": "G4",
                    "midi": 67,
                    "time": 148.80000000000018,
                    "velocity": 0.4409448818897638,
                    "duration": 0.11250000000001137
                },
                {
                    "name": "A#4",
                    "midi": 70,
                    "time": 148.9500000000002,
                    "velocity": 0.3937007874015748,
                    "duration": 0.11250000000001137
                },
                {
                    "name": "G4",
                    "midi": 67,
                    "time": 148.9500000000002,
                    "velocity": 0.3937007874015748,
                    "duration": 0.11250000000001137
                },
                {
                    "name": "A#4",
                    "midi": 70,
                    "time": 149.1000000000002,
                    "velocity": 0.4645669291338583,
                    "duration": 0.11250000000001137
                },
                {
                    "name": "G4",
                    "midi": 67,
                    "time": 149.1000000000002,
                    "velocity": 0.4645669291338583,
                    "duration": 0.11250000000001137
                },
                {
                    "name": "A#4",
                    "midi": 70,
                    "time": 149.2500000000002,
                    "velocity": 0.4015748031496063,
                    "duration": 0.11250000000001137
                },
                {
                    "name": "G4",
                    "midi": 67,
                    "time": 149.2500000000002,
                    "velocity": 0.4015748031496063,
                    "duration": 0.11250000000001137
                },
                {
                    "name": "A#4",
                    "midi": 70,
                    "time": 149.4000000000002,
                    "velocity": 0.4566929133858268,
                    "duration": 0.11250000000001137
                },
                {
                    "name": "G4",
                    "midi": 67,
                    "time": 149.4000000000002,
                    "velocity": 0.4566929133858268,
                    "duration": 0.11250000000001137
                },
                {
                    "name": "A#4",
                    "midi": 70,
                    "time": 149.5500000000002,
                    "velocity": 0.41732283464566927,
                    "duration": 0.11250000000001137
                },
                {
                    "name": "G4",
                    "midi": 67,
                    "time": 149.5500000000002,
                    "velocity": 0.41732283464566927,
                    "duration": 0.11250000000001137
                },
                {
                    "name": "A#4",
                    "midi": 70,
                    "time": 149.70000000000022,
                    "velocity": 0.4409448818897638,
                    "duration": 0.11250000000001137
                },
                {
                    "name": "G4",
                    "midi": 67,
                    "time": 149.70000000000022,
                    "velocity": 0.4409448818897638,
                    "duration": 0.11250000000001137
                },
                {
                    "name": "A#4",
                    "midi": 70,
                    "time": 149.85000000000022,
                    "velocity": 0.4015748031496063,
                    "duration": 0.11250000000001137
                },
                {
                    "name": "G4",
                    "midi": 67,
                    "time": 149.85000000000022,
                    "velocity": 0.4015748031496063,
                    "duration": 0.11250000000001137
                },
                {
                    "name": "B4",
                    "midi": 71,
                    "time": 150.00000000000023,
                    "velocity": 0.44881889763779526,
                    "duration": 0.11250000000001137
                },
                {
                    "name": "D#5",
                    "midi": 75,
                    "time": 150.00000000000023,
                    "velocity": 0.44881889763779526,
                    "duration": 0.11250000000001137
                },
                {
                    "name": "F#5",
                    "midi": 78,
                    "time": 150.00000000000023,
                    "velocity": 0.44881889763779526,
                    "duration": 0.6000000000000227
                },
                {
                    "name": "B4",
                    "midi": 71,
                    "time": 150.15000000000023,
                    "velocity": 0.4015748031496063,
                    "duration": 0.11250000000001137
                },
                {
                    "name": "D#5",
                    "midi": 75,
                    "time": 150.15000000000023,
                    "velocity": 0.4015748031496063,
                    "duration": 0.11250000000001137
                },
                {
                    "name": "B4",
                    "midi": 71,
                    "time": 150.30000000000024,
                    "velocity": 0.41732283464566927,
                    "duration": 0.11250000000001137
                },
                {
                    "name": "D#5",
                    "midi": 75,
                    "time": 150.30000000000024,
                    "velocity": 0.41732283464566927,
                    "duration": 0.11250000000001137
                },
                {
                    "name": "B4",
                    "midi": 71,
                    "time": 150.45000000000024,
                    "velocity": 0.3700787401574803,
                    "duration": 0.11250000000001137
                },
                {
                    "name": "D#5",
                    "midi": 75,
                    "time": 150.45000000000024,
                    "velocity": 0.3700787401574803,
                    "duration": 0.11250000000001137
                },
                {
                    "name": "G#4",
                    "midi": 68,
                    "time": 150.60000000000025,
                    "velocity": 0.41732283464566927,
                    "duration": 0.11250000000001137
                },
                {
                    "name": "B4",
                    "midi": 71,
                    "time": 150.60000000000025,
                    "velocity": 0.41732283464566927,
                    "duration": 0.11250000000001137
                },
                {
                    "name": "E5",
                    "midi": 76,
                    "time": 150.60000000000025,
                    "velocity": 0.41732283464566927,
                    "duration": 0.6000000000000227
                },
                {
                    "name": "G#4",
                    "midi": 68,
                    "time": 150.75000000000026,
                    "velocity": 0.3700787401574803,
                    "duration": 0.11250000000001137
                },
                {
                    "name": "B4",
                    "midi": 71,
                    "time": 150.75000000000026,
                    "velocity": 0.3700787401574803,
                    "duration": 0.11250000000001137
                },
                {
                    "name": "G#4",
                    "midi": 68,
                    "time": 150.90000000000026,
                    "velocity": 0.4330708661417323,
                    "duration": 0.11250000000001137
                },
                {
                    "name": "B4",
                    "midi": 71,
                    "time": 150.90000000000026,
                    "velocity": 0.4330708661417323,
                    "duration": 0.11250000000001137
                },
                {
                    "name": "G#4",
                    "midi": 68,
                    "time": 151.05000000000027,
                    "velocity": 0.3779527559055118,
                    "duration": 0.11250000000001137
                },
                {
                    "name": "B4",
                    "midi": 71,
                    "time": 151.05000000000027,
                    "velocity": 0.3779527559055118,
                    "duration": 0.11250000000001137
                },
                {
                    "name": "D#4",
                    "midi": 63,
                    "time": 151.20000000000027,
                    "velocity": 0.4094488188976378,
                    "duration": 0.11250000000001137
                },
                {
                    "name": "F#4",
                    "midi": 66,
                    "time": 151.20000000000027,
                    "velocity": 0.4094488188976378,
                    "duration": 0.11250000000001137
                },
                {
                    "name": "B4",
                    "midi": 71,
                    "time": 151.20000000000027,
                    "velocity": 0.4094488188976378,
                    "duration": 0.6000000000000227
                },
                {
                    "name": "D#4",
                    "midi": 63,
                    "time": 151.35000000000028,
                    "velocity": 0.36220472440944884,
                    "duration": 0.11250000000001137
                },
                {
                    "name": "F#4",
                    "midi": 66,
                    "time": 151.35000000000028,
                    "velocity": 0.36220472440944884,
                    "duration": 0.11250000000001137
                },
                {
                    "name": "D#4",
                    "midi": 63,
                    "time": 151.50000000000028,
                    "velocity": 0.4251968503937008,
                    "duration": 0.11250000000001137
                },
                {
                    "name": "F#4",
                    "midi": 66,
                    "time": 151.50000000000028,
                    "velocity": 0.4251968503937008,
                    "duration": 0.11250000000001137
                },
                {
                    "name": "D#4",
                    "midi": 63,
                    "time": 151.6500000000003,
                    "velocity": 0.3700787401574803,
                    "duration": 0.11250000000001137
                },
                {
                    "name": "F#4",
                    "midi": 66,
                    "time": 151.6500000000003,
                    "velocity": 0.3700787401574803,
                    "duration": 0.11250000000001137
                },
                {
                    "name": "B3",
                    "midi": 59,
                    "time": 151.8000000000003,
                    "velocity": 0.4330708661417323,
                    "duration": 0.11250000000001137
                },
                {
                    "name": "E4",
                    "midi": 64,
                    "time": 151.8000000000003,
                    "velocity": 0.4330708661417323,
                    "duration": 0.11250000000001137
                },
                {
                    "name": "G#4",
                    "midi": 68,
                    "time": 151.8000000000003,
                    "velocity": 0.4330708661417323,
                    "duration": 0.6000000000000227
                },
                {
                    "name": "B3",
                    "midi": 59,
                    "time": 151.9500000000003,
                    "velocity": 0.3700787401574803,
                    "duration": 0.11250000000001137
                },
                {
                    "name": "E4",
                    "midi": 64,
                    "time": 151.9500000000003,
                    "velocity": 0.3700787401574803,
                    "duration": 0.11250000000001137
                },
                {
                    "name": "B3",
                    "midi": 59,
                    "time": 152.1000000000003,
                    "velocity": 0.4015748031496063,
                    "duration": 0.11250000000001137
                },
                {
                    "name": "E4",
                    "midi": 64,
                    "time": 152.1000000000003,
                    "velocity": 0.4015748031496063,
                    "duration": 0.11250000000001137
                },
                {
                    "name": "B3",
                    "midi": 59,
                    "time": 152.2500000000003,
                    "velocity": 0.3779527559055118,
                    "duration": 0.11250000000001137
                },
                {
                    "name": "E4",
                    "midi": 64,
                    "time": 152.2500000000003,
                    "velocity": 0.3779527559055118,
                    "duration": 0.11250000000001137
                },
                {
                    "name": "A#3",
                    "midi": 58,
                    "time": 152.40000000000032,
                    "velocity": 0.33070866141732286,
                    "duration": 0.15000000000000568
                },
                {
                    "name": "C4",
                    "midi": 60,
                    "time": 152.55000000000032,
                    "velocity": 0.3464566929133858,
                    "duration": 0.15000000000000568
                },
                {
                    "name": "C#4",
                    "midi": 61,
                    "time": 152.70000000000033,
                    "velocity": 0.36220472440944884,
                    "duration": 0.15000000000000568
                },
                {
                    "name": "D4",
                    "midi": 62,
                    "time": 152.85000000000034,
                    "velocity": 0.3779527559055118,
                    "duration": 0.15000000000000568
                },
                {
                    "name": "D#4",
                    "midi": 63,
                    "time": 153.00000000000034,
                    "velocity": 0.4330708661417323,
                    "duration": 0.11250000000001137
                },
                {
                    "name": "F#4",
                    "midi": 66,
                    "time": 153.00000000000034,
                    "velocity": 0.4330708661417323,
                    "duration": 0.11250000000001137
                },
                {
                    "name": "D#4",
                    "midi": 63,
                    "time": 153.15000000000035,
                    "velocity": 0.3937007874015748,
                    "duration": 0.11250000000001137
                },
                {
                    "name": "F#4",
                    "midi": 66,
                    "time": 153.15000000000035,
                    "velocity": 0.3937007874015748,
                    "duration": 0.11250000000001137
                },
                {
                    "name": "D#4",
                    "midi": 63,
                    "time": 153.30000000000035,
                    "velocity": 0.3937007874015748,
                    "duration": 0.11250000000001137
                },
                {
                    "name": "F#4",
                    "midi": 66,
                    "time": 153.30000000000035,
                    "velocity": 0.3937007874015748,
                    "duration": 0.11250000000001137
                },
                {
                    "name": "D#4",
                    "midi": 63,
                    "time": 153.45000000000036,
                    "velocity": 0.3937007874015748,
                    "duration": 0.11250000000001137
                },
                {
                    "name": "F#4",
                    "midi": 66,
                    "time": 153.45000000000036,
                    "velocity": 0.3937007874015748,
                    "duration": 0.11250000000001137
                },
                {
                    "name": "A#3",
                    "midi": 58,
                    "time": 153.60000000000036,
                    "velocity": 0.31496062992125984,
                    "duration": 0.15000000000000568
                },
                {
                    "name": "C4",
                    "midi": 60,
                    "time": 153.75000000000037,
                    "velocity": 0.33070866141732286,
                    "duration": 0.15000000000000568
                },
                {
                    "name": "C#4",
                    "midi": 61,
                    "time": 153.90000000000038,
                    "velocity": 0.3464566929133858,
                    "duration": 0.15000000000000568
                },
                {
                    "name": "D4",
                    "midi": 62,
                    "time": 154.05000000000038,
                    "velocity": 0.36220472440944884,
                    "duration": 0.15000000000000568
                },
                {
                    "name": "D#4",
                    "midi": 63,
                    "time": 154.2000000000004,
                    "velocity": 0.4330708661417323,
                    "duration": 0.11250000000001137
                },
                {
                    "name": "F#4",
                    "midi": 66,
                    "time": 154.2000000000004,
                    "velocity": 0.4330708661417323,
                    "duration": 0.11250000000001137
                },
                {
                    "name": "D#4",
                    "midi": 63,
                    "time": 154.3500000000004,
                    "velocity": 0.3779527559055118,
                    "duration": 0.11250000000001137
                },
                {
                    "name": "F#4",
                    "midi": 66,
                    "time": 154.3500000000004,
                    "velocity": 0.3779527559055118,
                    "duration": 0.11250000000001137
                },
                {
                    "name": "D#4",
                    "midi": 63,
                    "time": 154.5000000000004,
                    "velocity": 0.3779527559055118,
                    "duration": 0.11250000000001137
                },
                {
                    "name": "F#4",
                    "midi": 66,
                    "time": 154.5000000000004,
                    "velocity": 0.3779527559055118,
                    "duration": 0.11250000000001137
                },
                {
                    "name": "D#4",
                    "midi": 63,
                    "time": 154.6500000000004,
                    "velocity": 0.3858267716535433,
                    "duration": 0.11250000000001137
                },
                {
                    "name": "F#4",
                    "midi": 66,
                    "time": 154.6500000000004,
                    "velocity": 0.3858267716535433,
                    "duration": 0.11250000000001137
                },
                {
                    "name": "C#4",
                    "midi": 61,
                    "time": 154.8000000000004,
                    "velocity": 0.33070866141732286,
                    "duration": 0.15000000000000568
                },
                {
                    "name": "D#4",
                    "midi": 63,
                    "time": 154.95000000000041,
                    "velocity": 0.3464566929133858,
                    "duration": 0.15000000000000568
                },
                {
                    "name": "E4",
                    "midi": 64,
                    "time": 155.10000000000042,
                    "velocity": 0.36220472440944884,
                    "duration": 0.15000000000000568
                },
                {
                    "name": "F4",
                    "midi": 65,
                    "time": 155.25000000000043,
                    "velocity": 0.3779527559055118,
                    "duration": 0.15000000000000568
                },
                {
                    "name": "F#4",
                    "midi": 66,
                    "time": 155.40000000000043,
                    "velocity": 0.4566929133858268,
                    "duration": 0.11250000000001137
                },
                {
                    "name": "A4",
                    "midi": 69,
                    "time": 155.40000000000043,
                    "velocity": 0.4566929133858268,
                    "duration": 0.11250000000001137
                },
                {
                    "name": "F#4",
                    "midi": 66,
                    "time": 155.55000000000044,
                    "velocity": 0.3937007874015748,
                    "duration": 0.11250000000001137
                },
                {
                    "name": "A4",
                    "midi": 69,
                    "time": 155.55000000000044,
                    "velocity": 0.3937007874015748,
                    "duration": 0.11250000000001137
                },
                {
                    "name": "F#4",
                    "midi": 66,
                    "time": 155.70000000000044,
                    "velocity": 0.4330708661417323,
                    "duration": 0.11250000000001137
                },
                {
                    "name": "A4",
                    "midi": 69,
                    "time": 155.70000000000044,
                    "velocity": 0.4330708661417323,
                    "duration": 0.11250000000001137
                },
                {
                    "name": "F#4",
                    "midi": 66,
                    "time": 155.85000000000045,
                    "velocity": 0.3937007874015748,
                    "duration": 0.11250000000001137
                },
                {
                    "name": "A4",
                    "midi": 69,
                    "time": 155.85000000000045,
                    "velocity": 0.3937007874015748,
                    "duration": 0.11250000000001137
                },
                {
                    "name": "D#4",
                    "midi": 63,
                    "time": 156.00000000000045,
                    "velocity": 0.33070866141732286,
                    "duration": 0.15000000000000568
                },
                {
                    "name": "F4",
                    "midi": 65,
                    "time": 156.15000000000046,
                    "velocity": 0.3464566929133858,
                    "duration": 0.15000000000000568
                },
                {
                    "name": "F#4",
                    "midi": 66,
                    "time": 156.30000000000047,
                    "velocity": 0.36220472440944884,
                    "duration": 0.15000000000000568
                },
                {
                    "name": "F#4",
                    "midi": 66,
                    "time": 156.45000000000047,
                    "velocity": 0.3779527559055118,
                    "duration": 0.15000000000000568
                },
                {
                    "name": "G#4",
                    "midi": 68,
                    "time": 156.60000000000048,
                    "velocity": 0.44881889763779526,
                    "duration": 0.11250000000001137
                },
                {
                    "name": "B4",
                    "midi": 71,
                    "time": 156.60000000000048,
                    "velocity": 0.44881889763779526,
                    "duration": 0.11250000000001137
                },
                {
                    "name": "G#4",
                    "midi": 68,
                    "time": 156.75000000000048,
                    "velocity": 0.3779527559055118,
                    "duration": 0.11250000000001137
                },
                {
                    "name": "B4",
                    "midi": 71,
                    "time": 156.75000000000048,
                    "velocity": 0.3779527559055118,
                    "duration": 0.11250000000001137
                },
                {
                    "name": "G#4",
                    "midi": 68,
                    "time": 156.9000000000005,
                    "velocity": 0.41732283464566927,
                    "duration": 0.11250000000001137
                },
                {
                    "name": "B4",
                    "midi": 71,
                    "time": 156.9000000000005,
                    "velocity": 0.41732283464566927,
                    "duration": 0.11250000000001137
                },
                {
                    "name": "G#4",
                    "midi": 68,
                    "time": 157.0500000000005,
                    "velocity": 0.3858267716535433,
                    "duration": 0.11250000000001137
                },
                {
                    "name": "B4",
                    "midi": 71,
                    "time": 157.0500000000005,
                    "velocity": 0.3858267716535433,
                    "duration": 0.11250000000001137
                },
                {
                    "name": "A#3",
                    "midi": 58,
                    "time": 157.2000000000005,
                    "velocity": 0.4251968503937008,
                    "duration": 0.15000000000000568
                },
                {
                    "name": "B3",
                    "midi": 59,
                    "time": 157.3500000000005,
                    "velocity": 0.4251968503937008,
                    "duration": 0.15000000000000568
                },
                {
                    "name": "D#4",
                    "midi": 63,
                    "time": 157.5000000000005,
                    "velocity": 0.4251968503937008,
                    "duration": 0.30000000000001137
                },
                {
                    "name": "F4",
                    "midi": 65,
                    "time": 157.5000000000005,
                    "velocity": 0.4251968503937008,
                    "duration": 0.30000000000001137
                },
                {
                    "name": "A#3",
                    "midi": 58,
                    "time": 157.80000000000052,
                    "velocity": 0.4251968503937008,
                    "duration": 0.15000000000000568
                },
                {
                    "name": "B3",
                    "midi": 59,
                    "time": 157.95000000000053,
                    "velocity": 0.4251968503937008,
                    "duration": 0.15000000000000568
                },
                {
                    "name": "D#4",
                    "midi": 63,
                    "time": 158.10000000000053,
                    "velocity": 0.4251968503937008,
                    "duration": 0.30000000000001137
                },
                {
                    "name": "F4",
                    "midi": 65,
                    "time": 158.10000000000053,
                    "velocity": 0.4251968503937008,
                    "duration": 0.30000000000001137
                },
                {
                    "name": "A#4",
                    "midi": 70,
                    "time": 158.40000000000055,
                    "velocity": 0.6141732283464567,
                    "duration": 0.15000000000000568
                },
                {
                    "name": "G#4",
                    "midi": 68,
                    "time": 158.55000000000055,
                    "velocity": 0.5826771653543307,
                    "duration": 0.15000000000000568
                },
                {
                    "name": "D4",
                    "midi": 62,
                    "time": 158.70000000000056,
                    "velocity": 0.5039370078740157,
                    "duration": 0.15000000000000568
                },
                {
                    "name": "E4",
                    "midi": 64,
                    "time": 158.70000000000056,
                    "velocity": 0.5039370078740157,
                    "duration": 0.15000000000000568
                },
                {
                    "name": "A#4",
                    "midi": 70,
                    "time": 159.00000000000057,
                    "velocity": 0.6062992125984252,
                    "duration": 0.15000000000000568
                },
                {
                    "name": "G#4",
                    "midi": 68,
                    "time": 159.15000000000057,
                    "velocity": 0.5669291338582677,
                    "duration": 0.15000000000000568
                },
                {
                    "name": "D4",
                    "midi": 62,
                    "time": 159.30000000000058,
                    "velocity": 0.49606299212598426,
                    "duration": 0.15000000000000568
                },
                {
                    "name": "E4",
                    "midi": 64,
                    "time": 159.30000000000058,
                    "velocity": 0.49606299212598426,
                    "duration": 0.15000000000000568
                },
                {
                    "name": "D#4",
                    "midi": 63,
                    "time": 159.6000000000006,
                    "velocity": 0.4409448818897638,
                    "duration": 0.11250000000001137
                },
                {
                    "name": "G4",
                    "midi": 67,
                    "time": 159.6000000000006,
                    "velocity": 0.4409448818897638,
                    "duration": 0.11250000000001137
                },
                {
                    "name": "D#4",
                    "midi": 63,
                    "time": 159.7500000000006,
                    "velocity": 0.4094488188976378,
                    "duration": 0.11250000000001137
                },
                {
                    "name": "G4",
                    "midi": 67,
                    "time": 159.7500000000006,
                    "velocity": 0.4094488188976378,
                    "duration": 0.11250000000001137
                },
                {
                    "name": "D#4",
                    "midi": 63,
                    "time": 159.9000000000006,
                    "velocity": 0.4409448818897638,
                    "duration": 0.11250000000001137
                },
                {
                    "name": "G4",
                    "midi": 67,
                    "time": 159.9000000000006,
                    "velocity": 0.4409448818897638,
                    "duration": 0.11250000000001137
                },
                {
                    "name": "D#4",
                    "midi": 63,
                    "time": 160.0500000000006,
                    "velocity": 0.3937007874015748,
                    "duration": 0.11250000000001137
                },
                {
                    "name": "G4",
                    "midi": 67,
                    "time": 160.0500000000006,
                    "velocity": 0.3937007874015748,
                    "duration": 0.11250000000001137
                },
                {
                    "name": "D#4",
                    "midi": 63,
                    "time": 160.2000000000006,
                    "velocity": 0.4409448818897638,
                    "duration": 0.11250000000001137
                },
                {
                    "name": "G4",
                    "midi": 67,
                    "time": 160.2000000000006,
                    "velocity": 0.4409448818897638,
                    "duration": 0.11250000000001137
                },
                {
                    "name": "D#4",
                    "midi": 63,
                    "time": 160.35000000000062,
                    "velocity": 0.4094488188976378,
                    "duration": 0.11250000000001137
                },
                {
                    "name": "G4",
                    "midi": 67,
                    "time": 160.35000000000062,
                    "velocity": 0.4094488188976378,
                    "duration": 0.11250000000001137
                },
                {
                    "name": "D#4",
                    "midi": 63,
                    "time": 160.50000000000063,
                    "velocity": 0.4409448818897638,
                    "duration": 0.11250000000001137
                },
                {
                    "name": "G4",
                    "midi": 67,
                    "time": 160.50000000000063,
                    "velocity": 0.4409448818897638,
                    "duration": 0.11250000000001137
                },
                {
                    "name": "D#4",
                    "midi": 63,
                    "time": 160.65000000000063,
                    "velocity": 0.3937007874015748,
                    "duration": 0.11250000000001137
                },
                {
                    "name": "G4",
                    "midi": 67,
                    "time": 160.65000000000063,
                    "velocity": 0.3937007874015748,
                    "duration": 0.11250000000001137
                },
                {
                    "name": "A#4",
                    "midi": 70,
                    "time": 160.80000000000064,
                    "velocity": 0.6062992125984252,
                    "duration": 0.15000000000000568
                },
                {
                    "name": "G#4",
                    "midi": 68,
                    "time": 160.95000000000064,
                    "velocity": 0.5669291338582677,
                    "duration": 0.15000000000000568
                },
                {
                    "name": "D4",
                    "midi": 62,
                    "time": 161.10000000000065,
                    "velocity": 0.5275590551181102,
                    "duration": 0.30000000000001137
                },
                {
                    "name": "E4",
                    "midi": 64,
                    "time": 161.10000000000065,
                    "velocity": 0.5275590551181102,
                    "duration": 0.30000000000001137
                },
                {
                    "name": "A#3",
                    "midi": 58,
                    "time": 161.40000000000066,
                    "velocity": 0.5511811023622047,
                    "duration": 0.15000000000000568
                },
                {
                    "name": "B3",
                    "midi": 59,
                    "time": 161.55000000000067,
                    "velocity": 0.4645669291338583,
                    "duration": 0.15000000000000568
                },
                {
                    "name": "D#4",
                    "midi": 63,
                    "time": 161.70000000000067,
                    "velocity": 0.3937007874015748,
                    "duration": 0.30000000000001137
                },
                {
                    "name": "F4",
                    "midi": 65,
                    "time": 161.70000000000067,
                    "velocity": 0.3937007874015748,
                    "duration": 0.30000000000001137
                },
                {
                    "name": "D#4",
                    "midi": 63,
                    "time": 162.00000000000068,
                    "velocity": 0.4409448818897638,
                    "duration": 0.11250000000001137
                },
                {
                    "name": "G4",
                    "midi": 67,
                    "time": 162.00000000000068,
                    "velocity": 0.4409448818897638,
                    "duration": 0.11250000000001137
                },
                {
                    "name": "D#4",
                    "midi": 63,
                    "time": 162.1500000000007,
                    "velocity": 0.3937007874015748,
                    "duration": 0.11250000000001137
                },
                {
                    "name": "G4",
                    "midi": 67,
                    "time": 162.1500000000007,
                    "velocity": 0.3937007874015748,
                    "duration": 0.11250000000001137
                },
                {
                    "name": "D#4",
                    "midi": 63,
                    "time": 162.3000000000007,
                    "velocity": 0.4645669291338583,
                    "duration": 0.11250000000001137
                },
                {
                    "name": "G4",
                    "midi": 67,
                    "time": 162.3000000000007,
                    "velocity": 0.4645669291338583,
                    "duration": 0.11250000000001137
                },
                {
                    "name": "D#4",
                    "midi": 63,
                    "time": 162.4500000000007,
                    "velocity": 0.4015748031496063,
                    "duration": 0.11250000000001137
                },
                {
                    "name": "G4",
                    "midi": 67,
                    "time": 162.4500000000007,
                    "velocity": 0.4015748031496063,
                    "duration": 0.11250000000001137
                },
                {
                    "name": "A#4",
                    "midi": 70,
                    "time": 162.6000000000007,
                    "velocity": 0.4566929133858268,
                    "duration": 0.11250000000001137
                },
                {
                    "name": "G4",
                    "midi": 67,
                    "time": 162.6000000000007,
                    "velocity": 0.4566929133858268,
                    "duration": 0.11250000000001137
                },
                {
                    "name": "A#4",
                    "midi": 70,
                    "time": 162.7500000000007,
                    "velocity": 0.41732283464566927,
                    "duration": 0.11250000000001137
                },
                {
                    "name": "G4",
                    "midi": 67,
                    "time": 162.7500000000007,
                    "velocity": 0.41732283464566927,
                    "duration": 0.11250000000001137
                },
                {
                    "name": "A#4",
                    "midi": 70,
                    "time": 162.90000000000072,
                    "velocity": 0.4409448818897638,
                    "duration": 0.11250000000001137
                },
                {
                    "name": "G4",
                    "midi": 67,
                    "time": 162.90000000000072,
                    "velocity": 0.4409448818897638,
                    "duration": 0.11250000000001137
                },
                {
                    "name": "A#4",
                    "midi": 70,
                    "time": 163.05000000000072,
                    "velocity": 0.4015748031496063,
                    "duration": 0.11250000000001137
                },
                {
                    "name": "G4",
                    "midi": 67,
                    "time": 163.05000000000072,
                    "velocity": 0.4015748031496063,
                    "duration": 0.11250000000001137
                },
                {
                    "name": "A#4",
                    "midi": 70,
                    "time": 163.20000000000073,
                    "velocity": 0.6062992125984252,
                    "duration": 0.15000000000000568
                },
                {
                    "name": "G#4",
                    "midi": 68,
                    "time": 163.35000000000073,
                    "velocity": 0.5669291338582677,
                    "duration": 0.15000000000000568
                },
                {
                    "name": "D4",
                    "midi": 62,
                    "time": 163.50000000000074,
                    "velocity": 0.5275590551181102,
                    "duration": 0.30000000000001137
                },
                {
                    "name": "E4",
                    "midi": 64,
                    "time": 163.50000000000074,
                    "velocity": 0.5275590551181102,
                    "duration": 0.30000000000001137
                },
                {
                    "name": "A#3",
                    "midi": 58,
                    "time": 163.80000000000075,
                    "velocity": 0.5511811023622047,
                    "duration": 0.15000000000000568
                },
                {
                    "name": "B3",
                    "midi": 59,
                    "time": 163.95000000000076,
                    "velocity": 0.5118110236220472,
                    "duration": 0.15000000000000568
                },
                {
                    "name": "D#4",
                    "midi": 63,
                    "time": 164.10000000000076,
                    "velocity": 0.4645669291338583,
                    "duration": 0.30000000000001137
                },
                {
                    "name": "F4",
                    "midi": 65,
                    "time": 164.10000000000076,
                    "velocity": 0.4645669291338583,
                    "duration": 0.30000000000001137
                },
                {
                    "name": "B4",
                    "midi": 71,
                    "time": 164.40000000000077,
                    "velocity": 0.5748031496062992,
                    "duration": 0.15000000000000568
                },
                {
                    "name": "F4",
                    "midi": 65,
                    "time": 164.40000000000077,
                    "velocity": 0.5748031496062992,
                    "duration": 0.30000000000001137
                },
                {
                    "name": "A#4",
                    "midi": 70,
                    "time": 164.55000000000078,
                    "velocity": 0.5826771653543307,
                    "duration": 0.15000000000000568
                },
                {
                    "name": "D4",
                    "midi": 62,
                    "time": 164.70000000000078,
                    "velocity": 0.5433070866141733,
                    "duration": 0.30000000000001137
                },
                {
                    "name": "D5",
                    "midi": 74,
                    "time": 164.70000000000078,
                    "velocity": 0.5433070866141733,
                    "duration": 0.30000000000001137
                },
                {
                    "name": "B4",
                    "midi": 71,
                    "time": 165.0000000000008,
                    "velocity": 0.5748031496062992,
                    "duration": 0.15000000000000568
                },
                {
                    "name": "F4",
                    "midi": 65,
                    "time": 165.0000000000008,
                    "velocity": 0.5748031496062992,
                    "duration": 0.30000000000001137
                },
                {
                    "name": "A#4",
                    "midi": 70,
                    "time": 165.1500000000008,
                    "velocity": 0.5905511811023622,
                    "duration": 0.15000000000000568
                },
                {
                    "name": "D4",
                    "midi": 62,
                    "time": 165.3000000000008,
                    "velocity": 0.5511811023622047,
                    "duration": 0.30000000000001137
                },
                {
                    "name": "D5",
                    "midi": 74,
                    "time": 165.3000000000008,
                    "velocity": 0.5511811023622047,
                    "duration": 0.30000000000001137
                },
                {
                    "name": "B4",
                    "midi": 71,
                    "time": 165.60000000000082,
                    "velocity": 0.5826771653543307,
                    "duration": 0.15000000000000568
                },
                {
                    "name": "F4",
                    "midi": 65,
                    "time": 165.60000000000082,
                    "velocity": 0.5826771653543307,
                    "duration": 0.30000000000001137
                },
                {
                    "name": "A#4",
                    "midi": 70,
                    "time": 165.75000000000082,
                    "velocity": 0.5905511811023622,
                    "duration": 0.15000000000000568
                },
                {
                    "name": "D4",
                    "midi": 62,
                    "time": 165.90000000000083,
                    "velocity": 0.5669291338582677,
                    "duration": 0.30000000000001137
                },
                {
                    "name": "D5",
                    "midi": 74,
                    "time": 165.90000000000083,
                    "velocity": 0.5669291338582677,
                    "duration": 0.30000000000001137
                },
                {
                    "name": "A#3",
                    "midi": 58,
                    "time": 166.80000000000084,
                    "velocity": 0.6929133858267716,
                    "duration": 0.15000000000000568
                },
                {
                    "name": "C4",
                    "midi": 60,
                    "time": 166.95000000000084,
                    "velocity": 0.6141732283464567,
                    "duration": 0.15000000000000568
                },
                {
                    "name": "D4",
                    "midi": 62,
                    "time": 167.10000000000085,
                    "velocity": 0.6377952755905512,
                    "duration": 0.15000000000000568
                },
                {
                    "name": "D#4",
                    "midi": 63,
                    "time": 167.25000000000085,
                    "velocity": 0.6535433070866141,
                    "duration": 0.15000000000000568
                },
                {
                    "name": "D4",
                    "midi": 62,
                    "time": 167.40000000000086,
                    "velocity": 0.7086614173228346,
                    "duration": 0.15000000000000568
                },
                {
                    "name": "D#4",
                    "midi": 63,
                    "time": 167.55000000000086,
                    "velocity": 0.6220472440944882,
                    "duration": 0.15000000000000568
                },
                {
                    "name": "F4",
                    "midi": 65,
                    "time": 167.70000000000087,
                    "velocity": 0.6456692913385826,
                    "duration": 0.15000000000000568
                },
                {
                    "name": "G4",
                    "midi": 67,
                    "time": 167.85000000000088,
                    "velocity": 0.6141732283464567,
                    "duration": 0.15000000000000568
                },
                {
                    "name": "F4",
                    "midi": 65,
                    "time": 168.00000000000088,
                    "velocity": 0.6929133858267716,
                    "duration": 0.15000000000000568
                },
                {
                    "name": "C5",
                    "midi": 72,
                    "time": 168.1500000000009,
                    "velocity": 0.6535433070866141,
                    "duration": 0.15000000000000568
                },
                {
                    "name": "G#4",
                    "midi": 68,
                    "time": 168.3000000000009,
                    "velocity": 0.6614173228346457,
                    "duration": 0.15000000000000568
                },
                {
                    "name": "F4",
                    "midi": 65,
                    "time": 168.4500000000009,
                    "velocity": 0.6456692913385826,
                    "duration": 0.15000000000000568
                },
                {
                    "name": "D#4",
                    "midi": 63,
                    "time": 168.6000000000009,
                    "velocity": 0.7165354330708661,
                    "duration": 0.15000000000000568
                },
                {
                    "name": "D4",
                    "midi": 62,
                    "time": 168.7500000000009,
                    "velocity": 0.6535433070866141,
                    "duration": 0.15000000000000568
                },
                {
                    "name": "C4",
                    "midi": 60,
                    "time": 168.90000000000092,
                    "velocity": 0.7007874015748031,
                    "duration": 0.15000000000000568
                },
                {
                    "name": "A#3",
                    "midi": 58,
                    "time": 169.05000000000092,
                    "velocity": 0.6299212598425197,
                    "duration": 0.15000000000000568
                },
                {
                    "name": "A#3",
                    "midi": 58,
                    "time": 169.20000000000093,
                    "velocity": 0.6929133858267716,
                    "duration": 0.15000000000000568
                },
                {
                    "name": "C4",
                    "midi": 60,
                    "time": 169.35000000000093,
                    "velocity": 0.6456692913385826,
                    "duration": 0.15000000000000568
                },
                {
                    "name": "D4",
                    "midi": 62,
                    "time": 169.50000000000094,
                    "velocity": 0.6614173228346457,
                    "duration": 0.15000000000000568
                },
                {
                    "name": "D#4",
                    "midi": 63,
                    "time": 169.65000000000094,
                    "velocity": 0.6220472440944882,
                    "duration": 0.15000000000000568
                },
                {
                    "name": "D4",
                    "midi": 62,
                    "time": 169.80000000000095,
                    "velocity": 0.7086614173228346,
                    "duration": 0.15000000000000568
                },
                {
                    "name": "D#4",
                    "midi": 63,
                    "time": 169.95000000000095,
                    "velocity": 0.6141732283464567,
                    "duration": 0.15000000000000568
                },
                {
                    "name": "F4",
                    "midi": 65,
                    "time": 170.10000000000096,
                    "velocity": 0.6535433070866141,
                    "duration": 0.15000000000000568
                },
                {
                    "name": "G4",
                    "midi": 67,
                    "time": 170.25000000000097,
                    "velocity": 0.6220472440944882,
                    "duration": 0.15000000000000568
                },
                {
                    "name": "F4",
                    "midi": 65,
                    "time": 170.40000000000097,
                    "velocity": 0.6929133858267716,
                    "duration": 0.15000000000000568
                },
                {
                    "name": "C5",
                    "midi": 72,
                    "time": 170.55000000000098,
                    "velocity": 0.6377952755905512,
                    "duration": 0.15000000000000568
                },
                {
                    "name": "G#4",
                    "midi": 68,
                    "time": 170.70000000000098,
                    "velocity": 0.6692913385826772,
                    "duration": 0.15000000000000568
                },
                {
                    "name": "F4",
                    "midi": 65,
                    "time": 170.850000000001,
                    "velocity": 0.6299212598425197,
                    "duration": 0.15000000000000568
                },
                {
                    "name": "D#4",
                    "midi": 63,
                    "time": 171.000000000001,
                    "velocity": 0.7007874015748031,
                    "duration": 0.15000000000000568
                },
                {
                    "name": "D4",
                    "midi": 62,
                    "time": 171.150000000001,
                    "velocity": 0.6141732283464567,
                    "duration": 0.15000000000000568
                },
                {
                    "name": "C4",
                    "midi": 60,
                    "time": 171.300000000001,
                    "velocity": 0.6614173228346457,
                    "duration": 0.15000000000000568
                },
                {
                    "name": "A#3",
                    "midi": 58,
                    "time": 171.450000000001,
                    "velocity": 0.6141732283464567,
                    "duration": 0.15000000000000568
                },
                {
                    "name": "G4",
                    "midi": 67,
                    "time": 171.60000000000102,
                    "velocity": 0.6929133858267716,
                    "duration": 0.15000000000000568
                },
                {
                    "name": "D4",
                    "midi": 62,
                    "time": 171.75000000000102,
                    "velocity": 0.6377952755905512,
                    "duration": 0.15000000000000568
                },
                {
                    "name": "D#4",
                    "midi": 63,
                    "time": 171.90000000000103,
                    "velocity": 0.6929133858267716,
                    "duration": 0.15000000000000568
                },
                {
                    "name": "B3",
                    "midi": 59,
                    "time": 172.05000000000103,
                    "velocity": 0.6220472440944882,
                    "duration": 0.15000000000000568
                },
                {
                    "name": "C4",
                    "midi": 60,
                    "time": 172.20000000000104,
                    "velocity": 0.6535433070866141,
                    "duration": 0.15000000000000568
                },
                {
                    "name": "C#4",
                    "midi": 61,
                    "time": 172.35000000000105,
                    "velocity": 0.5905511811023622,
                    "duration": 0.15000000000000568
                },
                {
                    "name": "D4",
                    "midi": 62,
                    "time": 172.50000000000105,
                    "velocity": 0.6377952755905512,
                    "duration": 0.15000000000000568
                },
                {
                    "name": "A#3",
                    "midi": 58,
                    "time": 172.65000000000106,
                    "velocity": 0.6141732283464567,
                    "duration": 0.15000000000000568
                },
                {
                    "name": "G4",
                    "midi": 67,
                    "time": 172.80000000000106,
                    "velocity": 0.6929133858267716,
                    "duration": 0.15000000000000568
                },
                {
                    "name": "D4",
                    "midi": 62,
                    "time": 172.95000000000107,
                    "velocity": 0.6220472440944882,
                    "duration": 0.15000000000000568
                },
                {
                    "name": "D#4",
                    "midi": 63,
                    "time": 173.10000000000107,
                    "velocity": 0.6614173228346457,
                    "duration": 0.15000000000000568
                },
                {
                    "name": "B3",
                    "midi": 59,
                    "time": 173.25000000000108,
                    "velocity": 0.6141732283464567,
                    "duration": 0.15000000000000568
                },
                {
                    "name": "C4",
                    "midi": 60,
                    "time": 173.40000000000109,
                    "velocity": 0.6614173228346457,
                    "duration": 0.15000000000000568
                },
                {
                    "name": "C#4",
                    "midi": 61,
                    "time": 173.5500000000011,
                    "velocity": 0.5905511811023622,
                    "duration": 0.15000000000000568
                },
                {
                    "name": "D4",
                    "midi": 62,
                    "time": 173.7000000000011,
                    "velocity": 0.6535433070866141,
                    "duration": 0.15000000000000568
                },
                {
                    "name": "A#3",
                    "midi": 58,
                    "time": 173.8500000000011,
                    "velocity": 0.6062992125984252,
                    "duration": 0.15000000000000568
                },
                {
                    "name": "D#4",
                    "midi": 63,
                    "time": 174.0000000000011,
                    "velocity": 0.6456692913385826,
                    "duration": 0.15000000000000568
                },
                {
                    "name": "E4",
                    "midi": 64,
                    "time": 174.1500000000011,
                    "velocity": 0.6535433070866141,
                    "duration": 0.15000000000000568
                },
                {
                    "name": "F4",
                    "midi": 65,
                    "time": 174.30000000000112,
                    "velocity": 0.6614173228346457,
                    "duration": 0.15000000000000568
                },
                {
                    "name": "F#4",
                    "midi": 66,
                    "time": 174.45000000000113,
                    "velocity": 0.6692913385826772,
                    "duration": 0.15000000000000568
                },
                {
                    "name": "G4",
                    "midi": 67,
                    "time": 174.60000000000113,
                    "velocity": 0.6771653543307087,
                    "duration": 0.15000000000000568
                },
                {
                    "name": "G#4",
                    "midi": 68,
                    "time": 174.75000000000114,
                    "velocity": 0.6929133858267716,
                    "duration": 0.15000000000000568
                },
                {
                    "name": "A4",
                    "midi": 69,
                    "time": 174.90000000000114,
                    "velocity": 0.6929133858267716,
                    "duration": 0.15000000000000568
                },
                {
                    "name": "A#4",
                    "midi": 70,
                    "time": 175.05000000000115,
                    "velocity": 0.7007874015748031,
                    "duration": 0.15000000000000568
                },
                {
                    "name": "C5",
                    "midi": 72,
                    "time": 175.20000000000115,
                    "velocity": 0.7086614173228346,
                    "duration": 0.15000000000000568
                },
                {
                    "name": "C#5",
                    "midi": 73,
                    "time": 175.35000000000116,
                    "velocity": 0.7165354330708661,
                    "duration": 0.15000000000000568
                },
                {
                    "name": "D5",
                    "midi": 74,
                    "time": 175.50000000000117,
                    "velocity": 0.7244094488188977,
                    "duration": 0.15000000000000568
                },
                {
                    "name": "D#5",
                    "midi": 75,
                    "time": 175.65000000000117,
                    "velocity": 0.7322834645669292,
                    "duration": 0.15000000000000568
                },
                {
                    "name": "E5",
                    "midi": 76,
                    "time": 175.80000000000118,
                    "velocity": 0.7401574803149606,
                    "duration": 0.15000000000000568
                },
                {
                    "name": "F5",
                    "midi": 77,
                    "time": 175.95000000000118,
                    "velocity": 0.7480314960629921,
                    "duration": 0.15000000000000568
                },
                {
                    "name": "F#5",
                    "midi": 78,
                    "time": 176.1000000000012,
                    "velocity": 0.7559055118110236,
                    "duration": 0.15000000000000568
                },
                {
                    "name": "G5",
                    "midi": 79,
                    "time": 176.2500000000012,
                    "velocity": 0.7637795275590551,
                    "duration": 0.15000000000000568
                },
                {
                    "name": "B1",
                    "midi": 35,
                    "time": 176.4000000000012,
                    "velocity": 0.5826771653543307,
                    "duration": 1.8000000000000114
                },
                {
                    "name": "B2",
                    "midi": 47,
                    "time": 176.4000000000012,
                    "velocity": 0.7322834645669292,
                    "duration": 1.8000000000000114
                },
                {
                    "name": "G1",
                    "midi": 31,
                    "time": 178.2000000000012,
                    "velocity": 0.23622047244094488,
                    "duration": 1.8000000000000114
                },
                {
                    "name": "G2",
                    "midi": 43,
                    "time": 178.2000000000012,
                    "velocity": 0.30708661417322836,
                    "duration": 1.8000000000000114
                },
                {
                    "name": "G2",
                    "midi": 43,
                    "time": 180.00000000000122,
                    "velocity": 0.5039370078740157,
                    "duration": 1.8000000000000114
                },
                {
                    "name": "G3",
                    "midi": 55,
                    "time": 180.00000000000122,
                    "velocity": 0.6220472440944882,
                    "duration": 1.8000000000000114
                },
                {
                    "name": "D2",
                    "midi": 38,
                    "time": 181.80000000000123,
                    "velocity": 0.44881889763779526,
                    "duration": 1.8000000000000114
                },
                {
                    "name": "D3",
                    "midi": 50,
                    "time": 181.80000000000123,
                    "velocity": 0.5669291338582677,
                    "duration": 1.8000000000000114
                },
                {
                    "name": "C#2",
                    "midi": 37,
                    "time": 183.60000000000124,
                    "velocity": 0.2992125984251969,
                    "duration": 1.8000000000000114
                },
                {
                    "name": "C#3",
                    "midi": 49,
                    "time": 183.60000000000124,
                    "velocity": 0.3779527559055118,
                    "duration": 1.8000000000000114
                },
                {
                    "name": "C2",
                    "midi": 36,
                    "time": 185.40000000000126,
                    "velocity": 0.3937007874015748,
                    "duration": 1.8000000000000114
                },
                {
                    "name": "C3",
                    "midi": 48,
                    "time": 185.40000000000126,
                    "velocity": 0.5275590551181102,
                    "duration": 1.8000000000000114
                },
                {
                    "name": "B1",
                    "midi": 35,
                    "time": 187.20000000000127,
                    "velocity": 0.25984251968503935,
                    "duration": 1.8000000000000114
                },
                {
                    "name": "B2",
                    "midi": 47,
                    "time": 187.20000000000127,
                    "velocity": 0.33070866141732286,
                    "duration": 1.8000000000000114
                },
                {
                    "name": "A#1",
                    "midi": 34,
                    "time": 189.00000000000128,
                    "velocity": 0.48031496062992124,
                    "duration": 1.8000000000000114
                },
                {
                    "name": "A#2",
                    "midi": 46,
                    "time": 189.00000000000128,
                    "velocity": 0.6062992125984252,
                    "duration": 1.8000000000000114
                },
                {
                    "name": "A1",
                    "midi": 33,
                    "time": 190.8000000000013,
                    "velocity": 0.36220472440944884,
                    "duration": 1.8000000000000114
                },
                {
                    "name": "A2",
                    "midi": 45,
                    "time": 190.8000000000013,
                    "velocity": 0.4566929133858268,
                    "duration": 1.8000000000000114
                },
                {
                    "name": "G1",
                    "midi": 31,
                    "time": 192.6000000000013,
                    "velocity": 0.2677165354330709,
                    "duration": 1.8000000000000114
                },
                {
                    "name": "G2",
                    "midi": 43,
                    "time": 192.6000000000013,
                    "velocity": 0.33858267716535434,
                    "duration": 1.8000000000000114
                },
                {
                    "name": "F#1",
                    "midi": 30,
                    "time": 194.4000000000013,
                    "velocity": 0.1732283464566929,
                    "duration": 1.1999999999999886
                },
                {
                    "name": "F#2",
                    "midi": 42,
                    "time": 194.4000000000013,
                    "velocity": 0.2204724409448819,
                    "duration": 1.1999999999999886
                },
                {
                    "name": "G1",
                    "midi": 31,
                    "time": 196.2000000000013,
                    "velocity": 0.4881889763779528,
                    "duration": 1.8000000000000114
                },
                {
                    "name": "B1",
                    "midi": 35,
                    "time": 196.2000000000013,
                    "velocity": 0.4881889763779528,
                    "duration": 1.8000000000000114
                },
                {
                    "name": "G2",
                    "midi": 43,
                    "time": 196.2000000000013,
                    "velocity": 0.6141732283464567,
                    "duration": 1.8000000000000114
                },
                {
                    "name": "A#1",
                    "midi": 34,
                    "time": 198.0000000000013,
                    "velocity": 0.4566929133858268,
                    "duration": 1.8000000000000114
                },
                {
                    "name": "G1",
                    "midi": 31,
                    "time": 198.0000000000013,
                    "velocity": 0.4566929133858268,
                    "duration": 1.8000000000000114
                },
                {
                    "name": "G2",
                    "midi": 43,
                    "time": 198.0000000000013,
                    "velocity": 0.5826771653543307,
                    "duration": 1.8000000000000114
                },
                {
                    "name": "A#2",
                    "midi": 46,
                    "time": 199.80000000000132,
                    "velocity": 0.4409448818897638,
                    "duration": 1.8000000000000114
                },
                {
                    "name": "G2",
                    "midi": 43,
                    "time": 199.80000000000132,
                    "velocity": 0.4409448818897638,
                    "duration": 1.8000000000000114
                },
                {
                    "name": "G3",
                    "midi": 55,
                    "time": 199.80000000000132,
                    "velocity": 0.5590551181102362,
                    "duration": 1.8000000000000114
                },
                {
                    "name": "A1",
                    "midi": 33,
                    "time": 201.60000000000133,
                    "velocity": 0.25984251968503935,
                    "duration": 3.5999999999999943
                },
                {
                    "name": "E2",
                    "midi": 40,
                    "time": 201.60000000000133,
                    "velocity": 0.25984251968503935,
                    "duration": 3.5999999999999943
                },
                {
                    "name": "A2",
                    "midi": 45,
                    "time": 201.60000000000133,
                    "velocity": 0.33070866141732286,
                    "duration": 3.5999999999999943
                },
                {
                    "name": "A1",
                    "midi": 33,
                    "time": 205.20000000000132,
                    "velocity": 0.28346456692913385,
                    "duration": 3.5999999999999943
                },
                {
                    "name": "F2",
                    "midi": 41,
                    "time": 205.20000000000132,
                    "velocity": 0.28346456692913385,
                    "duration": 3.5999999999999943
                },
                {
                    "name": "A2",
                    "midi": 45,
                    "time": 205.20000000000132,
                    "velocity": 0.36220472440944884,
                    "duration": 3.5999999999999943
                },
                {
                    "name": "A1",
                    "midi": 33,
                    "time": 208.80000000000132,
                    "velocity": 0.28346456692913385,
                    "duration": 6.299999999999983
                },
                {
                    "name": "F#2",
                    "midi": 42,
                    "time": 208.80000000000132,
                    "velocity": 0.28346456692913385,
                    "duration": 3.5999999999999943
                },
                {
                    "name": "A2",
                    "midi": 45,
                    "time": 208.80000000000132,
                    "velocity": 0.36220472440944884,
                    "duration": 3.5999999999999943
                },
                {
                    "name": "D3",
                    "midi": 50,
                    "time": 212.4000000000013,
                    "velocity": 0.3228346456692913,
                    "duration": 2.6999999999999886
                },
                {
                    "name": "G2",
                    "midi": 43,
                    "time": 212.4000000000013,
                    "velocity": 0.3228346456692913,
                    "duration": 2.6999999999999886
                },
                {
                    "name": "G1",
                    "midi": 31,
                    "time": 215.4000000000013,
                    "velocity": 0.4566929133858268,
                    "duration": 0.5999999999999943
                },
                {
                    "name": "G2",
                    "midi": 43,
                    "time": 215.4000000000013,
                    "velocity": 0.5748031496062992,
                    "duration": 0.5999999999999943
                },
                {
                    "name": "D#4",
                    "midi": 63,
                    "time": 216.0000000000013,
                    "velocity": 0.6299212598425197,
                    "duration": 1.8000000000000114
                },
                {
                    "name": "A#3",
                    "midi": 58,
                    "time": 216.0000000000013,
                    "velocity": 0.5669291338582677,
                    "duration": 1.8000000000000114
                },
                {
                    "name": "G3",
                    "midi": 55,
                    "time": 216.0000000000013,
                    "velocity": 0.5039370078740157,
                    "duration": 1.8000000000000114
                },
                {
                    "name": "E3",
                    "midi": 52,
                    "time": 217.80000000000132,
                    "velocity": 0.3779527559055118,
                    "duration": 1.8000000000000114
                },
                {
                    "name": "G2",
                    "midi": 43,
                    "time": 217.83375000000132,
                    "velocity": 0.2992125984251969,
                    "duration": 1.8000000000000114
                },
                {
                    "name": "C3",
                    "midi": 48,
                    "time": 219.60000000000133,
                    "velocity": 0.4094488188976378,
                    "duration": 0.5999999999999943
                },
                {
                    "name": "F#2",
                    "midi": 42,
                    "time": 219.60000000000133,
                    "velocity": 0.3700787401574803,
                    "duration": 5.400000000000006
                },
                {
                    "name": "C#3",
                    "midi": 49,
                    "time": 220.20000000000132,
                    "velocity": 0.4094488188976378,
                    "duration": 1.1999999999999886
                },
                {
                    "name": "D3",
                    "midi": 50,
                    "time": 221.4000000000013,
                    "velocity": 0.4330708661417323,
                    "duration": 1.8000000000000114
                },
                {
                    "name": "E3",
                    "midi": 52,
                    "time": 223.20000000000132,
                    "velocity": 0.3464566929133858,
                    "duration": 1.8000000000000114
                },
                {
                    "name": "F3",
                    "midi": 53,
                    "time": 225.00000000000134,
                    "velocity": 0.30708661417322836,
                    "duration": 1.8000000000000114
                },
                {
                    "name": "F#2",
                    "midi": 42,
                    "time": 225.00000000000134,
                    "velocity": 0.30708661417322836,
                    "duration": 1.8000000000000114
                },
                {
                    "name": "F#2",
                    "midi": 42,
                    "time": 226.80000000000135,
                    "velocity": 0.49606299212598426,
                    "duration": 3
                },
                {
                    "name": "B2",
                    "midi": 47,
                    "time": 226.80000000000135,
                    "velocity": 0.5590551181102362,
                    "duration": 3
                },
                {
                    "name": "D3",
                    "midi": 50,
                    "time": 226.80000000000135,
                    "velocity": 0.6220472440944882,
                    "duration": 3
                },
                {
                    "name": "B3",
                    "midi": 59,
                    "time": 234.60000000000136,
                    "velocity": 0.33070866141732286,
                    "duration": 0.5999999999999943
                },
                {
                    "name": "E4",
                    "midi": 64,
                    "time": 234.60000000000136,
                    "velocity": 0.33070866141732286,
                    "duration": 0.5999999999999943
                },
                {
                    "name": "G4",
                    "midi": 67,
                    "time": 234.60000000000136,
                    "velocity": 0.4251968503937008,
                    "duration": 0.5999999999999943
                },
                {
                    "name": "A#3",
                    "midi": 58,
                    "time": 235.20000000000135,
                    "velocity": 0.2755905511811024,
                    "duration": 0.5999999999999943
                },
                {
                    "name": "C#4",
                    "midi": 61,
                    "time": 235.20000000000135,
                    "velocity": 0.2755905511811024,
                    "duration": 0.5999999999999943
                },
                {
                    "name": "F#4",
                    "midi": 66,
                    "time": 235.20000000000135,
                    "velocity": 0.3464566929133858,
                    "duration": 0.5999999999999943
                },
                {
                    "name": "D4",
                    "midi": 62,
                    "time": 235.80000000000135,
                    "velocity": 0.33858267716535434,
                    "duration": 0.5999999999999943
                },
                {
                    "name": "F#4",
                    "midi": 66,
                    "time": 235.80000000000135,
                    "velocity": 0.33858267716535434,
                    "duration": 0.5999999999999943
                },
                {
                    "name": "B4",
                    "midi": 71,
                    "time": 235.80000000000135,
                    "velocity": 0.4330708661417323,
                    "duration": 0.5999999999999943
                },
                {
                    "name": "F#4",
                    "midi": 66,
                    "time": 236.40000000000134,
                    "velocity": 0.3228346456692913,
                    "duration": 0.5999999999999943
                },
                {
                    "name": "A#4",
                    "midi": 70,
                    "time": 236.40000000000134,
                    "velocity": 0.3228346456692913,
                    "duration": 0.9000000000000057
                },
                {
                    "name": "C#5",
                    "midi": 73,
                    "time": 236.40000000000134,
                    "velocity": 0.4094488188976378,
                    "duration": 0.5999999999999943
                },
                {
                    "name": "F#5",
                    "midi": 78,
                    "time": 237.00000000000134,
                    "velocity": 0.4094488188976378,
                    "duration": 0.0625
                },
                {
                    "name": "G4",
                    "midi": 67,
                    "time": 237.60000000000136,
                    "velocity": 0.3464566929133858,
                    "duration": 0.5999999999999943
                },
                {
                    "name": "B4",
                    "midi": 71,
                    "time": 237.60000000000136,
                    "velocity": 0.3464566929133858,
                    "duration": 0.5999999999999943
                },
                {
                    "name": "D5",
                    "midi": 74,
                    "time": 237.60000000000136,
                    "velocity": 0.4409448818897638,
                    "duration": 0.5999999999999943
                },
                {
                    "name": "F4",
                    "midi": 65,
                    "time": 238.20000000000135,
                    "velocity": 0.3228346456692913,
                    "duration": 0.5999999999999943
                },
                {
                    "name": "B4",
                    "midi": 71,
                    "time": 238.20000000000135,
                    "velocity": 0.3228346456692913,
                    "duration": 0.5999999999999943
                },
                {
                    "name": "C#5",
                    "midi": 73,
                    "time": 238.20000000000135,
                    "velocity": 0.4015748031496063,
                    "duration": 0.5999999999999943
                },
                {
                    "name": "F#4",
                    "midi": 66,
                    "time": 238.80000000000135,
                    "velocity": 0.36220472440944884,
                    "duration": 0.30000000000001137
                },
                {
                    "name": "A#4",
                    "midi": 70,
                    "time": 238.80000000000135,
                    "velocity": 0.36220472440944884,
                    "duration": 0.30000000000001137
                },
                {
                    "name": "F#5",
                    "midi": 78,
                    "time": 238.80000000000135,
                    "velocity": 0.44881889763779526,
                    "duration": 0.0625
                },
                {
                    "name": "B4",
                    "midi": 71,
                    "time": 239.40000000000137,
                    "velocity": 0.33858267716535434,
                    "duration": 0.5999999999999943
                },
                {
                    "name": "D5",
                    "midi": 74,
                    "time": 239.40000000000137,
                    "velocity": 0.4330708661417323,
                    "duration": 0.5999999999999943
                },
                {
                    "name": "F#4",
                    "midi": 66,
                    "time": 240.00000000000136,
                    "velocity": 0.3228346456692913,
                    "duration": 0.5999999999999943
                },
                {
                    "name": "C#5",
                    "midi": 73,
                    "time": 240.00000000000136,
                    "velocity": 0.4094488188976378,
                    "duration": 0.5999999999999943
                },
                {
                    "name": "G4",
                    "midi": 67,
                    "time": 240.60000000000136,
                    "velocity": 0.31496062992125984,
                    "duration": 0.5999999999999943
                },
                {
                    "name": "B4",
                    "midi": 71,
                    "time": 240.60000000000136,
                    "velocity": 0.3937007874015748,
                    "duration": 0.5999999999999943
                },
                {
                    "name": "F#4",
                    "midi": 66,
                    "time": 241.20000000000135,
                    "velocity": 0.3937007874015748,
                    "duration": 0.5999999999999943
                },
                {
                    "name": "G1",
                    "midi": 31,
                    "time": 241.80000000000135,
                    "velocity": 0.33858267716535434,
                    "duration": 0.5999999999999943
                },
                {
                    "name": "G2",
                    "midi": 43,
                    "time": 241.80000000000135,
                    "velocity": 0.4330708661417323,
                    "duration": 0.5999999999999943
                },
                {
                    "name": "F#1",
                    "midi": 30,
                    "time": 242.40000000000134,
                    "velocity": 0.3228346456692913,
                    "duration": 0.5999999999999943
                },
                {
                    "name": "F#2",
                    "midi": 42,
                    "time": 242.40000000000134,
                    "velocity": 0.4015748031496063,
                    "duration": 0.5999999999999943
                },
                {
                    "name": "B1",
                    "midi": 35,
                    "time": 243.00000000000134,
                    "velocity": 0.33858267716535434,
                    "duration": 0.5999999999999943
                },
                {
                    "name": "B2",
                    "midi": 47,
                    "time": 243.00000000000134,
                    "velocity": 0.4330708661417323,
                    "duration": 0.5999999999999943
                },
                {
                    "name": "C#2",
                    "midi": 37,
                    "time": 243.60000000000133,
                    "velocity": 0.31496062992125984,
                    "duration": 0.5999999999999943
                },
                {
                    "name": "C#3",
                    "midi": 49,
                    "time": 243.60000000000133,
                    "velocity": 0.3937007874015748,
                    "duration": 0.5999999999999943
                },
                {
                    "name": "F#2",
                    "midi": 42,
                    "time": 244.20000000000132,
                    "velocity": 0.33070866141732286,
                    "duration": 0.5999999999999943
                },
                {
                    "name": "F#3",
                    "midi": 54,
                    "time": 244.20000000000132,
                    "velocity": 0.4251968503937008,
                    "duration": 0.5999999999999943
                },
                {
                    "name": "D2",
                    "midi": 38,
                    "time": 244.80000000000132,
                    "velocity": 0.33858267716535434,
                    "duration": 0.5999999999999943
                },
                {
                    "name": "D3",
                    "midi": 50,
                    "time": 244.80000000000132,
                    "velocity": 0.4330708661417323,
                    "duration": 0.5999999999999943
                },
                {
                    "name": "C#2",
                    "midi": 37,
                    "time": 245.4000000000013,
                    "velocity": 0.31496062992125984,
                    "duration": 0.5999999999999943
                },
                {
                    "name": "C#3",
                    "midi": 49,
                    "time": 245.4000000000013,
                    "velocity": 0.3937007874015748,
                    "duration": 0.5999999999999943
                },
                {
                    "name": "F#2",
                    "midi": 42,
                    "time": 246.0000000000013,
                    "velocity": 0.3228346456692913,
                    "duration": 0.5999999999999943
                },
                {
                    "name": "F#3",
                    "midi": 54,
                    "time": 246.0000000000013,
                    "velocity": 0.4015748031496063,
                    "duration": 0.5999999999999943
                },
                {
                    "name": "D2",
                    "midi": 38,
                    "time": 246.6000000000013,
                    "velocity": 0.33858267716535434,
                    "duration": 1.1999999999999886
                },
                {
                    "name": "D3",
                    "midi": 50,
                    "time": 246.6000000000013,
                    "velocity": 0.4330708661417323,
                    "duration": 1.1999999999999886
                },
                {
                    "name": "B1",
                    "midi": 35,
                    "time": 247.8000000000013,
                    "velocity": 0.3228346456692913,
                    "duration": 0.5999999999999943
                },
                {
                    "name": "B2",
                    "midi": 47,
                    "time": 247.8000000000013,
                    "velocity": 0.4094488188976378,
                    "duration": 0.5999999999999943
                },
                {
                    "name": "C#2",
                    "midi": 37,
                    "time": 248.40000000000128,
                    "velocity": 0.3464566929133858,
                    "duration": 0.5999999999999943
                },
                {
                    "name": "C#3",
                    "midi": 49,
                    "time": 248.40000000000128,
                    "velocity": 0.4409448818897638,
                    "duration": 0.5999999999999943
                },
                {
                    "name": "B1",
                    "midi": 35,
                    "time": 249.00000000000128,
                    "velocity": 0.3228346456692913,
                    "duration": 0.5999999999999943
                },
                {
                    "name": "B2",
                    "midi": 47,
                    "time": 249.00000000000128,
                    "velocity": 0.4094488188976378,
                    "duration": 0.5999999999999943
                },
                {
                    "name": "F#1",
                    "midi": 30,
                    "time": 249.60000000000127,
                    "velocity": 0.28346456692913385,
                    "duration": 0.5999999999999943
                },
                {
                    "name": "F#2",
                    "midi": 42,
                    "time": 249.60000000000127,
                    "velocity": 0.36220472440944884,
                    "duration": 0.5999999999999943
                },
                {
                    "name": "A#3",
                    "midi": 58,
                    "time": 250.80000000000126,
                    "velocity": 0.3464566929133858,
                    "duration": 0.5999999999999943
                },
                {
                    "name": "C#4",
                    "midi": 61,
                    "time": 250.80000000000126,
                    "velocity": 0.3464566929133858,
                    "duration": 0.5999999999999943
                },
                {
                    "name": "F#4",
                    "midi": 66,
                    "time": 250.80000000000126,
                    "velocity": 0.4409448818897638,
                    "duration": 0.5999999999999943
                },
                {
                    "name": "B3",
                    "midi": 59,
                    "time": 251.40000000000126,
                    "velocity": 0.33070866141732286,
                    "duration": 0.5999999999999943
                },
                {
                    "name": "D4",
                    "midi": 62,
                    "time": 251.40000000000126,
                    "velocity": 0.33070866141732286,
                    "duration": 0.5999999999999943
                },
                {
                    "name": "G4",
                    "midi": 67,
                    "time": 251.40000000000126,
                    "velocity": 0.4251968503937008,
                    "duration": 0.5999999999999943
                },
                {
                    "name": "G3",
                    "midi": 55,
                    "time": 252.00000000000125,
                    "velocity": 0.3228346456692913,
                    "duration": 0.5999999999999943
                },
                {
                    "name": "C4",
                    "midi": 60,
                    "time": 252.00000000000125,
                    "velocity": 0.3228346456692913,
                    "duration": 0.5999999999999943
                },
                {
                    "name": "E4",
                    "midi": 64,
                    "time": 252.00000000000125,
                    "velocity": 0.4015748031496063,
                    "duration": 0.5999999999999943
                },
                {
                    "name": "F#3",
                    "midi": 54,
                    "time": 252.60000000000124,
                    "velocity": 0.36220472440944884,
                    "duration": 0.5999999999999943
                },
                {
                    "name": "A#3",
                    "midi": 58,
                    "time": 252.60000000000124,
                    "velocity": 0.36220472440944884,
                    "duration": 0.5999999999999943
                },
                {
                    "name": "F#4",
                    "midi": 66,
                    "time": 252.60000000000124,
                    "velocity": 0.4566929133858268,
                    "duration": 0.5999999999999943
                },
                {
                    "name": "B3",
                    "midi": 59,
                    "time": 253.20000000000124,
                    "velocity": 0.3464566929133858,
                    "duration": 0.5999999999999943
                },
                {
                    "name": "G3",
                    "midi": 55,
                    "time": 253.20000000000124,
                    "velocity": 0.3464566929133858,
                    "duration": 0.5999999999999943
                },
                {
                    "name": "G4",
                    "midi": 67,
                    "time": 253.20000000000124,
                    "velocity": 0.4409448818897638,
                    "duration": 0.5999999999999943
                },
                {
                    "name": "A3",
                    "midi": 57,
                    "time": 253.80000000000123,
                    "velocity": 0.33070866141732286,
                    "duration": 0.5999999999999943
                },
                {
                    "name": "C4",
                    "midi": 60,
                    "time": 253.80000000000123,
                    "velocity": 0.33070866141732286,
                    "duration": 0.5999999999999943
                },
                {
                    "name": "E4",
                    "midi": 64,
                    "time": 253.80000000000123,
                    "velocity": 0.4251968503937008,
                    "duration": 0.5999999999999943
                },
                {
                    "name": "D4",
                    "midi": 62,
                    "time": 254.40000000000123,
                    "velocity": 0.36220472440944884,
                    "duration": 1.1999999999999886
                },
                {
                    "name": "F#4",
                    "midi": 66,
                    "time": 254.40000000000123,
                    "velocity": 0.36220472440944884,
                    "duration": 0.5999999999999943
                },
                {
                    "name": "A4",
                    "midi": 69,
                    "time": 254.40000000000123,
                    "velocity": 0.4566929133858268,
                    "duration": 0.5999999999999943
                },
                {
                    "name": "G4",
                    "midi": 67,
                    "time": 255.00000000000122,
                    "velocity": 0.36220472440944884,
                    "duration": 0.5999999999999943
                },
                {
                    "name": "B4",
                    "midi": 71,
                    "time": 255.00000000000122,
                    "velocity": 0.44881889763779526,
                    "duration": 0.5999999999999943
                },
                {
                    "name": "F#4",
                    "midi": 66,
                    "time": 255.60000000000122,
                    "velocity": 0.4330708661417323,
                    "duration": 2.400000000000091
                },
                {
                    "name": "A#3",
                    "midi": 58,
                    "time": 255.60000000000122,
                    "velocity": 0.3858267716535433,
                    "duration": 0.6000000000000227
                },
                {
                    "name": "C#4",
                    "midi": 61,
                    "time": 255.60000000000122,
                    "velocity": 0.33858267716535434,
                    "duration": 1.2000000000000455
                },
                {
                    "name": "F#3",
                    "midi": 54,
                    "time": 256.20000000000124,
                    "velocity": 0.33070866141732286,
                    "duration": 0.6000000000000227
                },
                {
                    "name": "A4",
                    "midi": 69,
                    "time": 256.80000000000126,
                    "velocity": 0.33070866141732286,
                    "duration": 0.6000000000000227
                },
                {
                    "name": "D5",
                    "midi": 74,
                    "time": 256.80000000000126,
                    "velocity": 0.33070866141732286,
                    "duration": 0.6000000000000227
                },
                {
                    "name": "F#5",
                    "midi": 78,
                    "time": 256.80000000000126,
                    "velocity": 0.4251968503937008,
                    "duration": 0.0625
                },
                {
                    "name": "B4",
                    "midi": 71,
                    "time": 257.4000000000013,
                    "velocity": 0.3779527559055118,
                    "duration": 0.6000000000000227
                },
                {
                    "name": "D5",
                    "midi": 74,
                    "time": 257.4000000000013,
                    "velocity": 0.47244094488188976,
                    "duration": 0.6000000000000227
                },
                {
                    "name": "F#4",
                    "midi": 66,
                    "time": 258.0000000000013,
                    "velocity": 0.36220472440944884,
                    "duration": 0.6000000000000227
                },
                {
                    "name": "C#5",
                    "midi": 73,
                    "time": 258.0000000000013,
                    "velocity": 0.4566929133858268,
                    "duration": 0.6000000000000227
                },
                {
                    "name": "G4",
                    "midi": 67,
                    "time": 258.60000000000133,
                    "velocity": 0.3228346456692913,
                    "duration": 0.6000000000000227
                },
                {
                    "name": "B4",
                    "midi": 71,
                    "time": 258.60000000000133,
                    "velocity": 0.4094488188976378,
                    "duration": 0.6000000000000227
                },
                {
                    "name": "F#4",
                    "midi": 66,
                    "time": 259.20000000000135,
                    "velocity": 0.3858267716535433,
                    "duration": 0.6000000000000227
                },
                {
                    "name": "F#1",
                    "midi": 30,
                    "time": 259.8000000000014,
                    "velocity": 0.36220472440944884,
                    "duration": 0.6000000000000227
                },
                {
                    "name": "F#2",
                    "midi": 42,
                    "time": 259.8000000000014,
                    "velocity": 0.4566929133858268,
                    "duration": 0.6000000000000227
                },
                {
                    "name": "G1",
                    "midi": 31,
                    "time": 260.4000000000014,
                    "velocity": 0.36220472440944884,
                    "duration": 0.6000000000000227
                },
                {
                    "name": "G2",
                    "midi": 43,
                    "time": 260.4000000000014,
                    "velocity": 0.44881889763779526,
                    "duration": 0.6000000000000227
                },
                {
                    "name": "E1",
                    "midi": 28,
                    "time": 261.0000000000014,
                    "velocity": 0.33858267716535434,
                    "duration": 0.6000000000000227
                },
                {
                    "name": "E2",
                    "midi": 40,
                    "time": 261.0000000000014,
                    "velocity": 0.4330708661417323,
                    "duration": 0.6000000000000227
                },
                {
                    "name": "F#1",
                    "midi": 30,
                    "time": 261.60000000000144,
                    "velocity": 0.36220472440944884,
                    "duration": 0.6000000000000227
                },
                {
                    "name": "F#2",
                    "midi": 42,
                    "time": 261.60000000000144,
                    "velocity": 0.44881889763779526,
                    "duration": 0.6000000000000227
                },
                {
                    "name": "G1",
                    "midi": 31,
                    "time": 262.20000000000147,
                    "velocity": 0.33858267716535434,
                    "duration": 0.6000000000000227
                },
                {
                    "name": "G2",
                    "midi": 43,
                    "time": 262.20000000000147,
                    "velocity": 0.4330708661417323,
                    "duration": 0.6000000000000227
                },
                {
                    "name": "E1",
                    "midi": 28,
                    "time": 262.8000000000015,
                    "velocity": 0.33858267716535434,
                    "duration": 0.6000000000000227
                },
                {
                    "name": "E2",
                    "midi": 40,
                    "time": 262.8000000000015,
                    "velocity": 0.4330708661417323,
                    "duration": 0.6000000000000227
                },
                {
                    "name": "A1",
                    "midi": 33,
                    "time": 263.4000000000015,
                    "velocity": 0.36220472440944884,
                    "duration": 0.6000000000000227
                },
                {
                    "name": "A2",
                    "midi": 45,
                    "time": 263.4000000000015,
                    "velocity": 0.4566929133858268,
                    "duration": 0.6000000000000227
                },
                {
                    "name": "B1",
                    "midi": 35,
                    "time": 264.00000000000153,
                    "velocity": 0.33858267716535434,
                    "duration": 0.6000000000000227
                },
                {
                    "name": "B2",
                    "midi": 47,
                    "time": 264.00000000000153,
                    "velocity": 0.4330708661417323,
                    "duration": 0.6000000000000227
                },
                {
                    "name": "F#1",
                    "midi": 30,
                    "time": 264.60000000000156,
                    "velocity": 0.33070866141732286,
                    "duration": 1.1999999999999886
                },
                {
                    "name": "F#2",
                    "midi": 42,
                    "time": 264.60000000000156,
                    "velocity": 0.4251968503937008,
                    "duration": 1.1999999999999886
                },
                {
                    "name": "F#2",
                    "midi": 42,
                    "time": 265.80000000000155,
                    "velocity": 0.36220472440944884,
                    "duration": 0.6000000000000227
                },
                {
                    "name": "F#3",
                    "midi": 54,
                    "time": 265.80000000000155,
                    "velocity": 0.4566929133858268,
                    "duration": 0.6000000000000227
                },
                {
                    "name": "D2",
                    "midi": 38,
                    "time": 266.40000000000157,
                    "velocity": 0.3700787401574803,
                    "duration": 0.6000000000000227
                },
                {
                    "name": "D3",
                    "midi": 50,
                    "time": 266.40000000000157,
                    "velocity": 0.4645669291338583,
                    "duration": 0.6000000000000227
                },
                {
                    "name": "C#2",
                    "midi": 37,
                    "time": 267.0000000000016,
                    "velocity": 0.33858267716535434,
                    "duration": 0.6000000000000227
                },
                {
                    "name": "C#3",
                    "midi": 49,
                    "time": 267.0000000000016,
                    "velocity": 0.4330708661417323,
                    "duration": 0.6000000000000227
                },
                {
                    "name": "B1",
                    "midi": 35,
                    "time": 267.6000000000016,
                    "velocity": 0.33858267716535434,
                    "duration": 0.6000000000000227
                },
                {
                    "name": "B2",
                    "midi": 47,
                    "time": 267.6000000000016,
                    "velocity": 0.4330708661417323,
                    "duration": 0.6000000000000227
                },
                {
                    "name": "F#1",
                    "midi": 30,
                    "time": 268.20000000000164,
                    "velocity": 0.3228346456692913,
                    "duration": 0.6000000000000227
                },
                {
                    "name": "F#2",
                    "midi": 42,
                    "time": 268.20000000000164,
                    "velocity": 0.4094488188976378,
                    "duration": 0.6000000000000227
                },
                {
                    "name": "D3",
                    "midi": 50,
                    "time": 270.00000000000165,
                    "velocity": 0.2677165354330709,
                    "duration": 3.6000000000000227
                },
                {
                    "name": "A3",
                    "midi": 57,
                    "time": 270.00000000000165,
                    "velocity": 0.2677165354330709,
                    "duration": 3.6000000000000227
                },
                {
                    "name": "C4",
                    "midi": 60,
                    "time": 270.00000000000165,
                    "velocity": 0.2677165354330709,
                    "duration": 3.6000000000000227
                },
                {
                    "name": "E4",
                    "midi": 64,
                    "time": 270.00000000000165,
                    "velocity": 0.33858267716535434,
                    "duration": 1.8000000000000114
                },
                {
                    "name": "D4",
                    "midi": 62,
                    "time": 271.80000000000166,
                    "velocity": 0.3228346456692913,
                    "duration": 1.1999999999999886
                },
                {
                    "name": "C4",
                    "midi": 60,
                    "time": 273.00000000000165,
                    "velocity": 0.30708661417322836,
                    "duration": 0.6000000000000227
                },
                {
                    "name": "F#3",
                    "midi": 54,
                    "time": 273.60000000000167,
                    "velocity": 0.25984251968503935,
                    "duration": 0.6000000000000227
                },
                {
                    "name": "A#3",
                    "midi": 58,
                    "time": 273.60000000000167,
                    "velocity": 0.25984251968503935,
                    "duration": 0.6000000000000227
                },
                {
                    "name": "C#4",
                    "midi": 61,
                    "time": 273.60000000000167,
                    "velocity": 0.33070866141732286,
                    "duration": 0.6000000000000227
                },
                {
                    "name": "F#2",
                    "midi": 42,
                    "time": 274.2000000000017,
                    "velocity": 0.29133858267716534,
                    "duration": 0.6000000000000227
                },
                {
                    "name": "C#3",
                    "midi": 49,
                    "time": 274.8000000000017,
                    "velocity": 0.30708661417322836,
                    "duration": 0.6000000000000227
                },
                {
                    "name": "F#3",
                    "midi": 54,
                    "time": 275.40000000000174,
                    "velocity": 0.33070866141732286,
                    "duration": 0.6000000000000227
                },
                {
                    "name": "A#3",
                    "midi": 58,
                    "time": 276.00000000000176,
                    "velocity": 0.3464566929133858,
                    "duration": 0.6000000000000227
                },
                {
                    "name": "C#4",
                    "midi": 61,
                    "time": 276.6000000000018,
                    "velocity": 0.3858267716535433,
                    "duration": 0.6000000000000227
                },
                {
                    "name": "D3",
                    "midi": 50,
                    "time": 277.2000000000018,
                    "velocity": 0.2677165354330709,
                    "duration": 3.6000000000000227
                },
                {
                    "name": "A3",
                    "midi": 57,
                    "time": 277.2000000000018,
                    "velocity": 0.2677165354330709,
                    "duration": 3.6000000000000227
                },
                {
                    "name": "C4",
                    "midi": 60,
                    "time": 277.2000000000018,
                    "velocity": 0.33858267716535434,
                    "duration": 3.6000000000000227
                },
                {
                    "name": "E4",
                    "midi": 64,
                    "time": 277.2000000000018,
                    "velocity": 0.33858267716535434,
                    "duration": 1.8000000000000114
                },
                {
                    "name": "D4",
                    "midi": 62,
                    "time": 279.0000000000018,
                    "velocity": 0.3228346456692913,
                    "duration": 1.1999999999999886
                },
                {
                    "name": "C4",
                    "midi": 60,
                    "time": 280.2000000000018,
                    "velocity": 0.30708661417322836,
                    "duration": 0.6000000000000227
                },
                {
                    "name": "F#3",
                    "midi": 54,
                    "time": 280.80000000000183,
                    "velocity": 0.25984251968503935,
                    "duration": 0.6000000000000227
                },
                {
                    "name": "A#3",
                    "midi": 58,
                    "time": 280.80000000000183,
                    "velocity": 0.25984251968503935,
                    "duration": 0.6000000000000227
                },
                {
                    "name": "C#4",
                    "midi": 61,
                    "time": 280.80000000000183,
                    "velocity": 0.33070866141732286,
                    "duration": 0.6000000000000227
                },
                {
                    "name": "F#2",
                    "midi": 42,
                    "time": 281.40000000000185,
                    "velocity": 0.29133858267716534,
                    "duration": 0.6000000000000227
                },
                {
                    "name": "C#3",
                    "midi": 49,
                    "time": 282.0000000000019,
                    "velocity": 0.30708661417322836,
                    "duration": 0.6000000000000227
                },
                {
                    "name": "F#3",
                    "midi": 54,
                    "time": 282.6000000000019,
                    "velocity": 0.3228346456692913,
                    "duration": 0.6000000000000227
                },
                {
                    "name": "A#3",
                    "midi": 58,
                    "time": 283.2000000000019,
                    "velocity": 0.3464566929133858,
                    "duration": 0.6000000000000227
                },
                {
                    "name": "C#4",
                    "midi": 61,
                    "time": 283.80000000000194,
                    "velocity": 0.3858267716535433,
                    "duration": 0.6000000000000227
                },
                {
                    "name": "D#4",
                    "midi": 63,
                    "time": 284.40000000000197,
                    "velocity": 0.2677165354330709,
                    "duration": 1.8000000000000114
                },
                {
                    "name": "B2",
                    "midi": 47,
                    "time": 284.40000000000197,
                    "velocity": 0.2677165354330709,
                    "duration": 3.6000000000000227
                },
                {
                    "name": "F#3",
                    "midi": 54,
                    "time": 284.40000000000197,
                    "velocity": 0.2677165354330709,
                    "duration": 3.6000000000000227
                },
                {
                    "name": "A3",
                    "midi": 57,
                    "time": 286.200000000002,
                    "velocity": 0.31496062992125984,
                    "duration": 1.1999999999999886
                },
                {
                    "name": "A#3",
                    "midi": 58,
                    "time": 287.40000000000197,
                    "velocity": 0.30708661417322836,
                    "duration": 0.6000000000000227
                },
                {
                    "name": "F#3",
                    "midi": 54,
                    "time": 288.000000000002,
                    "velocity": 0.2204724409448819,
                    "duration": 3
                },
                {
                    "name": "A#3",
                    "midi": 58,
                    "time": 288.000000000002,
                    "velocity": 0.2204724409448819,
                    "duration": 3
                },
                {
                    "name": "C#4",
                    "midi": 61,
                    "time": 288.000000000002,
                    "velocity": 0.28346456692913385,
                    "duration": 3
                },
                {
                    "name": "B1",
                    "midi": 35,
                    "time": 289.800000000002,
                    "velocity": 0.1889763779527559,
                    "duration": 1.5
                },
                {
                    "name": "F#2",
                    "midi": 42,
                    "time": 289.800000000002,
                    "velocity": 0.2440944881889764,
                    "duration": 1.5
                },
                {
                    "name": "D#4",
                    "midi": 63,
                    "time": 291.600000000002,
                    "velocity": 0.2677165354330709,
                    "duration": 1.8000000000000114
                },
                {
                    "name": "B2",
                    "midi": 47,
                    "time": 291.600000000002,
                    "velocity": 0.2677165354330709,
                    "duration": 3.6000000000000227
                },
                {
                    "name": "F#3",
                    "midi": 54,
                    "time": 291.600000000002,
                    "velocity": 0.2677165354330709,
                    "duration": 1.8000000000000114
                },
                {
                    "name": "A3",
                    "midi": 57,
                    "time": 293.400000000002,
                    "velocity": 0.31496062992125984,
                    "duration": 1.1999999999999886
                },
                {
                    "name": "A#3",
                    "midi": 58,
                    "time": 294.600000000002,
                    "velocity": 0.30708661417322836,
                    "duration": 0.6000000000000227
                },
                {
                    "name": "F#3",
                    "midi": 54,
                    "time": 295.20000000000203,
                    "velocity": 0.2204724409448819,
                    "duration": 3
                },
                {
                    "name": "A#3",
                    "midi": 58,
                    "time": 295.20000000000203,
                    "velocity": 0.2204724409448819,
                    "duration": 3
                },
                {
                    "name": "C#4",
                    "midi": 61,
                    "time": 295.20000000000203,
                    "velocity": 0.28346456692913385,
                    "duration": 3
                },
                {
                    "name": "B1",
                    "midi": 35,
                    "time": 297.00000000000205,
                    "velocity": 0.1889763779527559,
                    "duration": 1.5
                },
                {
                    "name": "F#2",
                    "midi": 42,
                    "time": 297.00000000000205,
                    "velocity": 0.2440944881889764,
                    "duration": 1.5
                },
                {
                    "name": "F#3",
                    "midi": 54,
                    "time": 298.80000000000206,
                    "velocity": 0.2047244094488189,
                    "duration": 3.0000000000001137
                },
                {
                    "name": "B3",
                    "midi": 59,
                    "time": 298.80000000000206,
                    "velocity": 0.2047244094488189,
                    "duration": 3.0000000000001137
                },
                {
                    "name": "D#4",
                    "midi": 63,
                    "time": 298.80000000000206,
                    "velocity": 0.25984251968503935,
                    "duration": 3.0000000000001137
                },
                {
                    "name": "B1",
                    "midi": 35,
                    "time": 299.4000000000021,
                    "velocity": 0.28346456692913385,
                    "duration": 0.6000000000000227
                },
                {
                    "name": "F#2",
                    "midi": 42,
                    "time": 300.0000000000021,
                    "velocity": 0.28346456692913385,
                    "duration": 0.6000000000000227
                },
                {
                    "name": "D#3",
                    "midi": 51,
                    "time": 300.6000000000021,
                    "velocity": 0.28346456692913385,
                    "duration": 0.6000000000000227
                },
                {
                    "name": "B3",
                    "midi": 59,
                    "time": 301.20000000000215,
                    "velocity": 0.2677165354330709,
                    "duration": 0.6000000000000227
                },
                {
                    "name": "D#4",
                    "midi": 63,
                    "time": 301.80000000000217,
                    "velocity": 0.2677165354330709,
                    "duration": 0.6000000000000227
                },
                {
                    "name": "F#6",
                    "midi": 90,
                    "time": 302.4000000000022,
                    "velocity": 0.2992125984251969,
                    "duration": 5.399999999999977
                },
                {
                    "name": "D#6",
                    "midi": 87,
                    "time": 302.4000000000022,
                    "velocity": 0.2992125984251969,
                    "duration": 5.399999999999977
                },
                {
                    "name": "B5",
                    "midi": 83,
                    "time": 302.4000000000022,
                    "velocity": 0.2992125984251969,
                    "duration": 5.399999999999977
                }
            ],
            "controlChanges": {
                "7": [
                    {
                        "number": 7,
                        "time": 0,
                        "value": 0.7874015748031497
                    }
                ],
                "10": [
                    {
                        "number": 10,
                        "time": 0,
                        "value": 0.5039370078740157
                    }
                ],
                "91": [
                    {
                        "number": 91,
                        "time": 0,
                        "value": 1
                    },
                    {
                        "number": 91,
                        "time": 0,
                        "value": 1
                    }
                ]
            },
            "id": 2,
            "name": "Piano left",
            "instrumentNumber": 0,
            "instrument": "acoustic grand piano",
            "instrumentFamily": "piano",
            "channelNumber": 0,
            "isPercussion": false
        },
        {
            "startTime": 0,
            "duration": 0,
            "length": 0,
            "notes": [],
            "controlChanges": {
                "64": [
                    {
                        "number": 64,
                        "time": 0,
                        "value": 0
                    },
                    {
                        "number": 64,
                        "time": 0.08875,
                        "value": 1
                    },
                    {
                        "number": 64,
                        "time": 0.6174999999999999,
                        "value": 0
                    },
                    {
                        "number": 64,
                        "time": 0.8125,
                        "value": 1
                    },
                    {
                        "number": 64,
                        "time": 1.2175,
                        "value": 0
                    },
                    {
                        "number": 64,
                        "time": 1.43,
                        "value": 1
                    },
                    {
                        "number": 64,
                        "time": 1.80625,
                        "value": 0
                    },
                    {
                        "number": 64,
                        "time": 2.0124999999999997,
                        "value": 1
                    },
                    {
                        "number": 64,
                        "time": 2.41125,
                        "value": 0
                    },
                    {
                        "number": 64,
                        "time": 2.63,
                        "value": 1
                    },
                    {
                        "number": 64,
                        "time": 3,
                        "value": 0
                    },
                    {
                        "number": 64,
                        "time": 3.14125,
                        "value": 1
                    },
                    {
                        "number": 64,
                        "time": 3.61125,
                        "value": 0
                    },
                    {
                        "number": 64,
                        "time": 3.795,
                        "value": 1
                    },
                    {
                        "number": 64,
                        "time": 4.21125,
                        "value": 0
                    },
                    {
                        "number": 64,
                        "time": 4.4125,
                        "value": 1
                    },
                    {
                        "number": 64,
                        "time": 4.67625,
                        "value": 0
                    },
                    {
                        "number": 64,
                        "time": 5.047499999999999,
                        "value": 1
                    },
                    {
                        "number": 64,
                        "time": 5.4125,
                        "value": 0
                    },
                    {
                        "number": 64,
                        "time": 5.63,
                        "value": 1
                    },
                    {
                        "number": 64,
                        "time": 6.0112499999999995,
                        "value": 0
                    },
                    {
                        "number": 64,
                        "time": 6.2299999999999995,
                        "value": 1
                    },
                    {
                        "number": 64,
                        "time": 6.476249999999999,
                        "value": 0
                    },
                    {
                        "number": 64,
                        "time": 6.864999999999999,
                        "value": 1
                    },
                    {
                        "number": 64,
                        "time": 7.217499999999999,
                        "value": 0
                    },
                    {
                        "number": 64,
                        "time": 7.464999999999999,
                        "value": 1
                    },
                    {
                        "number": 64,
                        "time": 7.814999999999999,
                        "value": 0
                    },
                    {
                        "number": 64,
                        "time": 8.064999999999998,
                        "value": 1
                    },
                    {
                        "number": 64,
                        "time": 8.417499999999997,
                        "value": 0
                    },
                    {
                        "number": 64,
                        "time": 8.647499999999997,
                        "value": 1
                    },
                    {
                        "number": 64,
                        "time": 9.013749999999998,
                        "value": 0
                    },
                    {
                        "number": 64,
                        "time": 9.247499999999999,
                        "value": 1
                    },
                    {
                        "number": 64,
                        "time": 9.599999999999998,
                        "value": 0
                    },
                    {
                        "number": 64,
                        "time": 9.829999999999998,
                        "value": 1
                    },
                    {
                        "number": 64,
                        "time": 10.211249999999998,
                        "value": 0
                    },
                    {
                        "number": 64,
                        "time": 10.358749999999999,
                        "value": 1
                    },
                    {
                        "number": 64,
                        "time": 10.65875,
                        "value": 0
                    },
                    {
                        "number": 64,
                        "time": 11.0475,
                        "value": 1
                    },
                    {
                        "number": 64,
                        "time": 11.417499999999999,
                        "value": 0
                    },
                    {
                        "number": 64,
                        "time": 11.629999999999999,
                        "value": 1
                    },
                    {
                        "number": 64,
                        "time": 12.017499999999998,
                        "value": 0
                    },
                    {
                        "number": 64,
                        "time": 12.229999999999999,
                        "value": 1
                    },
                    {
                        "number": 64,
                        "time": 12.614999999999998,
                        "value": 0
                    },
                    {
                        "number": 64,
                        "time": 12.917499999999999,
                        "value": 1
                    },
                    {
                        "number": 64,
                        "time": 13.112499999999999,
                        "value": 0
                    },
                    {
                        "number": 64,
                        "time": 13.4125,
                        "value": 1
                    },
                    {
                        "number": 64,
                        "time": 13.81875,
                        "value": 0
                    },
                    {
                        "number": 64,
                        "time": 14.01125,
                        "value": 1
                    },
                    {
                        "number": 64,
                        "time": 14.4175,
                        "value": 0
                    },
                    {
                        "number": 64,
                        "time": 14.6475,
                        "value": 1
                    },
                    {
                        "number": 64,
                        "time": 15.0175,
                        "value": 0
                    },
                    {
                        "number": 64,
                        "time": 15.2475,
                        "value": 1
                    },
                    {
                        "number": 64,
                        "time": 15.61125,
                        "value": 0
                    },
                    {
                        "number": 64,
                        "time": 15.83,
                        "value": 1
                    },
                    {
                        "number": 64,
                        "time": 16.21125,
                        "value": 0
                    },
                    {
                        "number": 64,
                        "time": 16.447499999999998,
                        "value": 1
                    },
                    {
                        "number": 64,
                        "time": 16.808749999999996,
                        "value": 0
                    },
                    {
                        "number": 64,
                        "time": 16.994999999999997,
                        "value": 1
                    },
                    {
                        "number": 64,
                        "time": 17.294999999999998,
                        "value": 0
                    },
                    {
                        "number": 64,
                        "time": 17.7,
                        "value": 1
                    },
                    {
                        "number": 64,
                        "time": 18.02125,
                        "value": 0
                    },
                    {
                        "number": 64,
                        "time": 18.264999999999997,
                        "value": 1
                    },
                    {
                        "number": 64,
                        "time": 18.609999999999996,
                        "value": 0
                    },
                    {
                        "number": 64,
                        "time": 18.812499999999996,
                        "value": 1
                    },
                    {
                        "number": 64,
                        "time": 19.217499999999998,
                        "value": 0
                    },
                    {
                        "number": 64,
                        "time": 19.482499999999998,
                        "value": 1
                    },
                    {
                        "number": 64,
                        "time": 19.75875,
                        "value": 0
                    },
                    {
                        "number": 64,
                        "time": 20.029999999999998,
                        "value": 1
                    },
                    {
                        "number": 64,
                        "time": 20.421249999999997,
                        "value": 0
                    },
                    {
                        "number": 64,
                        "time": 20.593749999999996,
                        "value": 1
                    },
                    {
                        "number": 64,
                        "time": 21.016249999999996,
                        "value": 0
                    },
                    {
                        "number": 64,
                        "time": 21.247499999999995,
                        "value": 1
                    },
                    {
                        "number": 64,
                        "time": 21.609999999999996,
                        "value": 0
                    },
                    {
                        "number": 64,
                        "time": 21.758749999999996,
                        "value": 1
                    },
                    {
                        "number": 64,
                        "time": 22.213749999999994,
                        "value": 0
                    },
                    {
                        "number": 64,
                        "time": 22.482499999999995,
                        "value": 1
                    },
                    {
                        "number": 64,
                        "time": 22.806249999999995,
                        "value": 0
                    },
                    {
                        "number": 64,
                        "time": 22.986249999999995,
                        "value": 1
                    },
                    {
                        "number": 64,
                        "time": 23.408749999999994,
                        "value": 0
                    },
                    {
                        "number": 64,
                        "time": 23.557499999999994,
                        "value": 1
                    },
                    {
                        "number": 64,
                        "time": 23.814999999999994,
                        "value": 0
                    },
                    {
                        "number": 64,
                        "time": 24.157499999999995,
                        "value": 1
                    },
                    {
                        "number": 64,
                        "time": 24.513749999999995,
                        "value": 0
                    },
                    {
                        "number": 64,
                        "time": 24.671249999999993,
                        "value": 1
                    },
                    {
                        "number": 64,
                        "time": 25.216249999999995,
                        "value": 0
                    },
                    {
                        "number": 64,
                        "time": 25.428749999999994,
                        "value": 1
                    },
                    {
                        "number": 64,
                        "time": 25.813749999999995,
                        "value": 0
                    },
                    {
                        "number": 64,
                        "time": 26.028749999999995,
                        "value": 1
                    },
                    {
                        "number": 64,
                        "time": 26.359999999999996,
                        "value": 0
                    },
                    {
                        "number": 64,
                        "time": 26.586249999999996,
                        "value": 1
                    },
                    {
                        "number": 64,
                        "time": 27.017499999999995,
                        "value": 0
                    },
                    {
                        "number": 64,
                        "time": 27.214999999999996,
                        "value": 1
                    },
                    {
                        "number": 64,
                        "time": 27.616249999999997,
                        "value": 0
                    },
                    {
                        "number": 64,
                        "time": 27.78625,
                        "value": 1
                    },
                    {
                        "number": 64,
                        "time": 28.213749999999997,
                        "value": 0
                    },
                    {
                        "number": 64,
                        "time": 28.386249999999997,
                        "value": 1
                    },
                    {
                        "number": 64,
                        "time": 28.809999999999995,
                        "value": 0
                    },
                    {
                        "number": 64,
                        "time": 28.986249999999995,
                        "value": 1
                    },
                    {
                        "number": 64,
                        "time": 29.413749999999993,
                        "value": 0
                    },
                    {
                        "number": 64,
                        "time": 29.599999999999994,
                        "value": 1
                    },
                    {
                        "number": 64,
                        "time": 30.007499999999993,
                        "value": 0
                    },
                    {
                        "number": 64,
                        "time": 30.143749999999994,
                        "value": 1
                    },
                    {
                        "number": 64,
                        "time": 30.361249999999995,
                        "value": 0
                    },
                    {
                        "number": 64,
                        "time": 30.499999999999996,
                        "value": 1
                    },
                    {
                        "number": 64,
                        "time": 30.611249999999995,
                        "value": 0
                    },
                    {
                        "number": 64,
                        "time": 30.786249999999995,
                        "value": 1
                    },
                    {
                        "number": 64,
                        "time": 31.213749999999994,
                        "value": 0
                    },
                    {
                        "number": 64,
                        "time": 31.371249999999993,
                        "value": 1
                    },
                    {
                        "number": 64,
                        "time": 31.506249999999994,
                        "value": 0
                    },
                    {
                        "number": 64,
                        "time": 31.643749999999994,
                        "value": 1
                    },
                    {
                        "number": 64,
                        "time": 31.813749999999995,
                        "value": 0
                    },
                    {
                        "number": 64,
                        "time": 31.999999999999996,
                        "value": 1
                    },
                    {
                        "number": 64,
                        "time": 32.418749999999996,
                        "value": 0
                    },
                    {
                        "number": 64,
                        "time": 32.64375,
                        "value": 1
                    },
                    {
                        "number": 64,
                        "time": 33.0175,
                        "value": 0
                    },
                    {
                        "number": 64,
                        "time": 33.214999999999996,
                        "value": 1
                    },
                    {
                        "number": 64,
                        "time": 33.61,
                        "value": 0
                    },
                    {
                        "number": 64,
                        "time": 33.77125,
                        "value": 1
                    },
                    {
                        "number": 64,
                        "time": 34.2125,
                        "value": 0
                    },
                    {
                        "number": 64,
                        "time": 34.4,
                        "value": 1
                    },
                    {
                        "number": 64,
                        "time": 34.817499999999995,
                        "value": 0
                    },
                    {
                        "number": 64,
                        "time": 35.0575,
                        "value": 1
                    },
                    {
                        "number": 64,
                        "time": 35.41375,
                        "value": 0
                    },
                    {
                        "number": 64,
                        "time": 35.6,
                        "value": 1
                    },
                    {
                        "number": 64,
                        "time": 36.01375,
                        "value": 0
                    },
                    {
                        "number": 64,
                        "time": 36.2,
                        "value": 1
                    },
                    {
                        "number": 64,
                        "time": 36.56,
                        "value": 0
                    },
                    {
                        "number": 64,
                        "time": 36.8125,
                        "value": 1
                    },
                    {
                        "number": 64,
                        "time": 37.21625,
                        "value": 0
                    },
                    {
                        "number": 64,
                        "time": 37.43,
                        "value": 1
                    },
                    {
                        "number": 64,
                        "time": 37.8175,
                        "value": 0
                    },
                    {
                        "number": 64,
                        "time": 38.03,
                        "value": 1
                    },
                    {
                        "number": 64,
                        "time": 38.417500000000004,
                        "value": 0
                    },
                    {
                        "number": 64,
                        "time": 38.665000000000006,
                        "value": 1
                    },
                    {
                        "number": 64,
                        "time": 39.017500000000005,
                        "value": 0
                    },
                    {
                        "number": 64,
                        "time": 39.212500000000006,
                        "value": 1
                    },
                    {
                        "number": 64,
                        "time": 39.61750000000001,
                        "value": 0
                    },
                    {
                        "number": 64,
                        "time": 39.830000000000005,
                        "value": 1
                    },
                    {
                        "number": 64,
                        "time": 40.157500000000006,
                        "value": 0
                    },
                    {
                        "number": 64,
                        "time": 40.34375000000001,
                        "value": 1
                    },
                    {
                        "number": 64,
                        "time": 40.511250000000004,
                        "value": 0
                    },
                    {
                        "number": 64,
                        "time": 40.628750000000004,
                        "value": 1
                    },
                    {
                        "number": 64,
                        "time": 40.816250000000004,
                        "value": 0
                    },
                    {
                        "number": 64,
                        "time": 40.9575,
                        "value": 1
                    },
                    {
                        "number": 64,
                        "time": 41.41375,
                        "value": 0
                    },
                    {
                        "number": 64,
                        "time": 41.57125,
                        "value": 1
                    },
                    {
                        "number": 64,
                        "time": 41.7575,
                        "value": 0
                    },
                    {
                        "number": 64,
                        "time": 41.82875,
                        "value": 1
                    },
                    {
                        "number": 64,
                        "time": 42.015,
                        "value": 0
                    },
                    {
                        "number": 64,
                        "time": 42.17125,
                        "value": 1
                    },
                    {
                        "number": 64,
                        "time": 42.615,
                        "value": 0
                    },
                    {
                        "number": 64,
                        "time": 42.78625,
                        "value": 1
                    },
                    {
                        "number": 64,
                        "time": 43.21625,
                        "value": 0
                    },
                    {
                        "number": 64,
                        "time": 43.37125,
                        "value": 1
                    },
                    {
                        "number": 64,
                        "time": 43.800000000000004,
                        "value": 0
                    },
                    {
                        "number": 64,
                        "time": 43.97625000000001,
                        "value": 1
                    },
                    {
                        "number": 64,
                        "time": 44.41125000000001,
                        "value": 0
                    },
                    {
                        "number": 64,
                        "time": 44.59500000000001,
                        "value": 1
                    },
                    {
                        "number": 64,
                        "time": 45.016250000000014,
                        "value": 0
                    },
                    {
                        "number": 64,
                        "time": 45.23000000000001,
                        "value": 1
                    },
                    {
                        "number": 64,
                        "time": 45.61625000000001,
                        "value": 0
                    },
                    {
                        "number": 64,
                        "time": 45.84750000000001,
                        "value": 1
                    },
                    {
                        "number": 64,
                        "time": 46.211250000000014,
                        "value": 0
                    },
                    {
                        "number": 64,
                        "time": 46.37625000000001,
                        "value": 1
                    },
                    {
                        "number": 64,
                        "time": 46.77000000000001,
                        "value": 0
                    },
                    {
                        "number": 64,
                        "time": 47.11500000000001,
                        "value": 1
                    },
                    {
                        "number": 64,
                        "time": 47.41625000000001,
                        "value": 0
                    },
                    {
                        "number": 64,
                        "time": 47.57125000000001,
                        "value": 1
                    },
                    {
                        "number": 64,
                        "time": 48.00875000000001,
                        "value": 0
                    },
                    {
                        "number": 64,
                        "time": 48.22875000000001,
                        "value": 1
                    },
                    {
                        "number": 64,
                        "time": 48.61125000000001,
                        "value": 0
                    },
                    {
                        "number": 64,
                        "time": 48.857500000000016,
                        "value": 1
                    },
                    {
                        "number": 64,
                        "time": 49.20750000000002,
                        "value": 0
                    },
                    {
                        "number": 64,
                        "time": 49.428750000000015,
                        "value": 1
                    },
                    {
                        "number": 64,
                        "time": 49.818750000000016,
                        "value": 0
                    },
                    {
                        "number": 64,
                        "time": 50.05750000000002,
                        "value": 1
                    },
                    {
                        "number": 64,
                        "time": 50.40750000000002,
                        "value": 0
                    },
                    {
                        "number": 64,
                        "time": 50.66500000000002,
                        "value": 1
                    },
                    {
                        "number": 64,
                        "time": 51.01750000000002,
                        "value": 0
                    },
                    {
                        "number": 64,
                        "time": 51.19500000000002,
                        "value": 1
                    },
                    {
                        "number": 64,
                        "time": 51.56250000000002,
                        "value": 0
                    },
                    {
                        "number": 64,
                        "time": 51.86500000000002,
                        "value": 1
                    },
                    {
                        "number": 64,
                        "time": 52.215000000000025,
                        "value": 0
                    },
                    {
                        "number": 64,
                        "time": 52.41250000000002,
                        "value": 1
                    },
                    {
                        "number": 64,
                        "time": 52.817500000000024,
                        "value": 0
                    },
                    {
                        "number": 64,
                        "time": 53.065000000000026,
                        "value": 1
                    },
                    {
                        "number": 64,
                        "time": 53.417500000000025,
                        "value": 0
                    },
                    {
                        "number": 64,
                        "time": 53.612500000000026,
                        "value": 1
                    },
                    {
                        "number": 64,
                        "time": 53.96250000000003,
                        "value": 0
                    },
                    {
                        "number": 64,
                        "time": 54.228750000000026,
                        "value": 1
                    },
                    {
                        "number": 64,
                        "time": 54.61750000000003,
                        "value": 0
                    },
                    {
                        "number": 64,
                        "time": 54.800000000000026,
                        "value": 1
                    },
                    {
                        "number": 64,
                        "time": 55.216250000000024,
                        "value": 0
                    },
                    {
                        "number": 64,
                        "time": 55.457500000000024,
                        "value": 1
                    },
                    {
                        "number": 64,
                        "time": 55.815000000000026,
                        "value": 0
                    },
                    {
                        "number": 64,
                        "time": 56.028750000000024,
                        "value": 1
                    },
                    {
                        "number": 64,
                        "time": 56.416250000000026,
                        "value": 0
                    },
                    {
                        "number": 64,
                        "time": 56.628750000000025,
                        "value": 1
                    },
                    {
                        "number": 64,
                        "time": 56.97000000000003,
                        "value": 0
                    },
                    {
                        "number": 64,
                        "time": 57.200000000000024,
                        "value": 1
                    },
                    {
                        "number": 64,
                        "time": 57.60000000000002,
                        "value": 0
                    },
                    {
                        "number": 64,
                        "time": 57.706250000000026,
                        "value": 1
                    },
                    {
                        "number": 64,
                        "time": 58.216250000000024,
                        "value": 0
                    },
                    {
                        "number": 64,
                        "time": 58.447500000000026,
                        "value": 1
                    },
                    {
                        "number": 64,
                        "time": 58.82000000000003,
                        "value": 0
                    },
                    {
                        "number": 64,
                        "time": 58.94125000000003,
                        "value": 1
                    },
                    {
                        "number": 64,
                        "time": 59.10000000000003,
                        "value": 0
                    },
                    {
                        "number": 64,
                        "time": 59.21375000000003,
                        "value": 1
                    },
                    {
                        "number": 64,
                        "time": 59.41750000000003,
                        "value": 0
                    },
                    {
                        "number": 64,
                        "time": 59.665000000000035,
                        "value": 1
                    },
                    {
                        "number": 64,
                        "time": 60.017500000000034,
                        "value": 0
                    },
                    {
                        "number": 64,
                        "time": 60.265000000000036,
                        "value": 1
                    },
                    {
                        "number": 64,
                        "time": 60.617500000000035,
                        "value": 0
                    },
                    {
                        "number": 64,
                        "time": 60.84750000000003,
                        "value": 1
                    },
                    {
                        "number": 64,
                        "time": 61.22125000000003,
                        "value": 0
                    },
                    {
                        "number": 64,
                        "time": 61.46500000000003,
                        "value": 1
                    },
                    {
                        "number": 64,
                        "time": 61.806250000000034,
                        "value": 0
                    },
                    {
                        "number": 64,
                        "time": 61.986250000000034,
                        "value": 1
                    },
                    {
                        "number": 64,
                        "time": 62.36250000000003,
                        "value": 0
                    },
                    {
                        "number": 64,
                        "time": 62.611250000000034,
                        "value": 1
                    },
                    {
                        "number": 64,
                        "time": 63.017500000000034,
                        "value": 0
                    },
                    {
                        "number": 64,
                        "time": 63.141250000000035,
                        "value": 1
                    },
                    {
                        "number": 64,
                        "time": 63.305000000000035,
                        "value": 0
                    },
                    {
                        "number": 64,
                        "time": 63.415000000000035,
                        "value": 1
                    },
                    {
                        "number": 64,
                        "time": 63.617500000000035,
                        "value": 0
                    },
                    {
                        "number": 64,
                        "time": 63.87125000000003,
                        "value": 1
                    },
                    {
                        "number": 64,
                        "time": 64.21875000000003,
                        "value": 0
                    },
                    {
                        "number": 64,
                        "time": 64.42875000000002,
                        "value": 1
                    },
                    {
                        "number": 64,
                        "time": 64.81375000000003,
                        "value": 0
                    },
                    {
                        "number": 64,
                        "time": 65.02875000000003,
                        "value": 1
                    },
                    {
                        "number": 64,
                        "time": 65.41875000000003,
                        "value": 0
                    },
                    {
                        "number": 64,
                        "time": 65.65750000000003,
                        "value": 1
                    },
                    {
                        "number": 64,
                        "time": 66.00875000000002,
                        "value": 0
                    },
                    {
                        "number": 64,
                        "time": 66.30000000000003,
                        "value": 1
                    },
                    {
                        "number": 64,
                        "time": 66.57375000000003,
                        "value": 0
                    },
                    {
                        "number": 64,
                        "time": 66.86750000000004,
                        "value": 1
                    },
                    {
                        "number": 64,
                        "time": 67.21750000000003,
                        "value": 0
                    },
                    {
                        "number": 64,
                        "time": 67.50000000000003,
                        "value": 1
                    },
                    {
                        "number": 64,
                        "time": 67.76000000000003,
                        "value": 0
                    },
                    {
                        "number": 64,
                        "time": 68.06750000000004,
                        "value": 1
                    },
                    {
                        "number": 64,
                        "time": 68.40875000000004,
                        "value": 0
                    },
                    {
                        "number": 64,
                        "time": 68.73375000000004,
                        "value": 1
                    },
                    {
                        "number": 64,
                        "time": 68.96125000000005,
                        "value": 0
                    },
                    {
                        "number": 64,
                        "time": 69.23000000000005,
                        "value": 1
                    },
                    {
                        "number": 64,
                        "time": 69.61625000000005,
                        "value": 0
                    },
                    {
                        "number": 64,
                        "time": 69.88250000000005,
                        "value": 1
                    },
                    {
                        "number": 64,
                        "time": 70.21750000000004,
                        "value": 0
                    },
                    {
                        "number": 64,
                        "time": 70.44750000000005,
                        "value": 1
                    },
                    {
                        "number": 64,
                        "time": 70.80875000000005,
                        "value": 0
                    },
                    {
                        "number": 64,
                        "time": 70.99375000000005,
                        "value": 1
                    },
                    {
                        "number": 64,
                        "time": 71.41375000000005,
                        "value": 0
                    },
                    {
                        "number": 64,
                        "time": 71.61250000000005,
                        "value": 1
                    },
                    {
                        "number": 64,
                        "time": 71.96000000000005,
                        "value": 0
                    },
                    {
                        "number": 64,
                        "time": 72.31750000000005,
                        "value": 1
                    },
                    {
                        "number": 64,
                        "time": 72.60500000000005,
                        "value": 0
                    },
                    {
                        "number": 64,
                        "time": 72.88625000000005,
                        "value": 1
                    },
                    {
                        "number": 64,
                        "time": 73.22125000000004,
                        "value": 0
                    },
                    {
                        "number": 64,
                        "time": 73.45750000000004,
                        "value": 1
                    },
                    {
                        "number": 64,
                        "time": 73.81625000000004,
                        "value": 0
                    },
                    {
                        "number": 64,
                        "time": 74.05750000000003,
                        "value": 1
                    },
                    {
                        "number": 64,
                        "time": 74.36000000000003,
                        "value": 0
                    },
                    {
                        "number": 64,
                        "time": 74.68625000000003,
                        "value": 1
                    },
                    {
                        "number": 64,
                        "time": 75.01500000000003,
                        "value": 0
                    },
                    {
                        "number": 64,
                        "time": 75.31500000000003,
                        "value": 1
                    },
                    {
                        "number": 64,
                        "time": 75.60625000000003,
                        "value": 0
                    },
                    {
                        "number": 64,
                        "time": 75.81250000000003,
                        "value": 1
                    },
                    {
                        "number": 64,
                        "time": 76.21750000000003,
                        "value": 0
                    },
                    {
                        "number": 64,
                        "time": 76.44750000000003,
                        "value": 1
                    },
                    {
                        "number": 64,
                        "time": 76.80875000000003,
                        "value": 0
                    },
                    {
                        "number": 64,
                        "time": 77.06500000000003,
                        "value": 1
                    },
                    {
                        "number": 64,
                        "time": 77.36625000000002,
                        "value": 0
                    },
                    {
                        "number": 64,
                        "time": 77.61250000000003,
                        "value": 1
                    },
                    {
                        "number": 64,
                        "time": 78.01750000000003,
                        "value": 0
                    },
                    {
                        "number": 64,
                        "time": 78.24750000000003,
                        "value": 1
                    },
                    {
                        "number": 64,
                        "time": 78.56250000000003,
                        "value": 0
                    },
                    {
                        "number": 64,
                        "time": 78.88250000000002,
                        "value": 1
                    },
                    {
                        "number": 64,
                        "time": 79.20375000000003,
                        "value": 0
                    },
                    {
                        "number": 64,
                        "time": 79.41250000000002,
                        "value": 1
                    },
                    {
                        "number": 64,
                        "time": 80.41750000000002,
                        "value": 0
                    },
                    {
                        "number": 64,
                        "time": 80.80625000000002,
                        "value": 1
                    },
                    {
                        "number": 64,
                        "time": 81.61875000000002,
                        "value": 0
                    },
                    {
                        "number": 64,
                        "time": 81.83000000000003,
                        "value": 1
                    },
                    {
                        "number": 64,
                        "time": 84.50000000000003,
                        "value": 0
                    },
                    {
                        "number": 64,
                        "time": 85.21750000000003,
                        "value": 1
                    },
                    {
                        "number": 64,
                        "time": 85.38625000000003,
                        "value": 0
                    },
                    {
                        "number": 64,
                        "time": 85.84000000000003,
                        "value": 1
                    },
                    {
                        "number": 64,
                        "time": 85.99875000000003,
                        "value": 0
                    },
                    {
                        "number": 64,
                        "time": 86.43500000000003,
                        "value": 1
                    },
                    {
                        "number": 64,
                        "time": 86.67000000000003,
                        "value": 0
                    },
                    {
                        "number": 64,
                        "time": 87.03500000000003,
                        "value": 1
                    },
                    {
                        "number": 64,
                        "time": 87.24750000000003,
                        "value": 0
                    },
                    {
                        "number": 64,
                        "time": 90.35000000000004,
                        "value": 1
                    },
                    {
                        "number": 64,
                        "time": 90.51125000000003,
                        "value": 0
                    },
                    {
                        "number": 64,
                        "time": 90.91500000000003,
                        "value": 1
                    },
                    {
                        "number": 64,
                        "time": 91.14375000000004,
                        "value": 0
                    },
                    {
                        "number": 64,
                        "time": 95.43625000000004,
                        "value": 1
                    },
                    {
                        "number": 64,
                        "time": 95.70750000000004,
                        "value": 0
                    },
                    {
                        "number": 64,
                        "time": 95.74625000000003,
                        "value": 1
                    },
                    {
                        "number": 64,
                        "time": 96.01625000000003,
                        "value": 0
                    },
                    {
                        "number": 64,
                        "time": 96.62500000000003,
                        "value": 1
                    },
                    {
                        "number": 64,
                        "time": 96.91500000000003,
                        "value": 0
                    },
                    {
                        "number": 64,
                        "time": 96.96500000000003,
                        "value": 1
                    },
                    {
                        "number": 64,
                        "time": 97.20750000000004,
                        "value": 0
                    },
                    {
                        "number": 64,
                        "time": 97.85750000000004,
                        "value": 1
                    },
                    {
                        "number": 64,
                        "time": 98.11500000000004,
                        "value": 0
                    },
                    {
                        "number": 64,
                        "time": 98.17125000000004,
                        "value": 1
                    },
                    {
                        "number": 64,
                        "time": 98.42125000000004,
                        "value": 0
                    },
                    {
                        "number": 64,
                        "time": 99.07875000000004,
                        "value": 1
                    },
                    {
                        "number": 64,
                        "time": 99.31375000000004,
                        "value": 0
                    },
                    {
                        "number": 64,
                        "time": 99.42125000000004,
                        "value": 1
                    },
                    {
                        "number": 64,
                        "time": 99.61375000000004,
                        "value": 0
                    },
                    {
                        "number": 64,
                        "time": 100.23250000000004,
                        "value": 1
                    },
                    {
                        "number": 64,
                        "time": 100.51000000000005,
                        "value": 0
                    },
                    {
                        "number": 64,
                        "time": 100.54500000000004,
                        "value": 1
                    },
                    {
                        "number": 64,
                        "time": 100.81250000000004,
                        "value": 0
                    },
                    {
                        "number": 64,
                        "time": 101.43250000000005,
                        "value": 1
                    },
                    {
                        "number": 64,
                        "time": 101.71375000000005,
                        "value": 0
                    },
                    {
                        "number": 64,
                        "time": 101.76500000000004,
                        "value": 1
                    },
                    {
                        "number": 64,
                        "time": 102.01125000000005,
                        "value": 0
                    },
                    {
                        "number": 64,
                        "time": 102.39625000000005,
                        "value": 1
                    },
                    {
                        "number": 64,
                        "time": 102.61250000000005,
                        "value": 0
                    },
                    {
                        "number": 64,
                        "time": 102.95375000000006,
                        "value": 1
                    },
                    {
                        "number": 64,
                        "time": 103.14625000000005,
                        "value": 0
                    },
                    {
                        "number": 64,
                        "time": 107.16125000000005,
                        "value": 1
                    },
                    {
                        "number": 64,
                        "time": 107.34375000000006,
                        "value": 0
                    },
                    {
                        "number": 64,
                        "time": 107.75000000000006,
                        "value": 1
                    },
                    {
                        "number": 64,
                        "time": 107.95000000000006,
                        "value": 0
                    },
                    {
                        "number": 64,
                        "time": 108.64375000000005,
                        "value": 1
                    },
                    {
                        "number": 64,
                        "time": 108.91500000000005,
                        "value": 0
                    },
                    {
                        "number": 64,
                        "time": 108.96125000000005,
                        "value": 1
                    },
                    {
                        "number": 64,
                        "time": 109.20875000000005,
                        "value": 0
                    },
                    {
                        "number": 64,
                        "time": 109.24875000000006,
                        "value": 1
                    },
                    {
                        "number": 64,
                        "time": 109.50500000000005,
                        "value": 0
                    },
                    {
                        "number": 64,
                        "time": 109.54875000000006,
                        "value": 1
                    },
                    {
                        "number": 64,
                        "time": 109.81750000000005,
                        "value": 0
                    },
                    {
                        "number": 64,
                        "time": 135.67125000000004,
                        "value": 1
                    },
                    {
                        "number": 64,
                        "time": 135.92000000000004,
                        "value": 0
                    },
                    {
                        "number": 64,
                        "time": 135.98625000000004,
                        "value": 1
                    },
                    {
                        "number": 64,
                        "time": 136.21375000000003,
                        "value": 0
                    },
                    {
                        "number": 64,
                        "time": 136.28625000000002,
                        "value": 1
                    },
                    {
                        "number": 64,
                        "time": 136.50750000000002,
                        "value": 0
                    },
                    {
                        "number": 64,
                        "time": 136.59375000000003,
                        "value": 1
                    },
                    {
                        "number": 64,
                        "time": 136.82125000000002,
                        "value": 0
                    },
                    {
                        "number": 64,
                        "time": 136.88625000000002,
                        "value": 1
                    },
                    {
                        "number": 64,
                        "time": 137.11,
                        "value": 0
                    },
                    {
                        "number": 64,
                        "time": 137.2075,
                        "value": 1
                    },
                    {
                        "number": 64,
                        "time": 138.01000000000002,
                        "value": 0
                    },
                    {
                        "number": 64,
                        "time": 138.05375,
                        "value": 1
                    },
                    {
                        "number": 64,
                        "time": 138.62125,
                        "value": 0
                    },
                    {
                        "number": 64,
                        "time": 138.66125,
                        "value": 1
                    },
                    {
                        "number": 64,
                        "time": 139.2125,
                        "value": 0
                    },
                    {
                        "number": 64,
                        "time": 139.26125000000002,
                        "value": 1
                    },
                    {
                        "number": 64,
                        "time": 139.82125000000002,
                        "value": 0
                    },
                    {
                        "number": 64,
                        "time": 139.87500000000003,
                        "value": 1
                    },
                    {
                        "number": 64,
                        "time": 140.41375000000002,
                        "value": 0
                    },
                    {
                        "number": 64,
                        "time": 140.46625000000003,
                        "value": 1
                    },
                    {
                        "number": 64,
                        "time": 141.02000000000004,
                        "value": 0
                    },
                    {
                        "number": 64,
                        "time": 141.08000000000004,
                        "value": 1
                    },
                    {
                        "number": 64,
                        "time": 141.61750000000004,
                        "value": 0
                    },
                    {
                        "number": 64,
                        "time": 141.67500000000004,
                        "value": 1
                    },
                    {
                        "number": 64,
                        "time": 142.21375000000003,
                        "value": 0
                    },
                    {
                        "number": 64,
                        "time": 142.26625000000004,
                        "value": 1
                    },
                    {
                        "number": 64,
                        "time": 142.80000000000004,
                        "value": 0
                    },
                    {
                        "number": 64,
                        "time": 145.51125000000005,
                        "value": 1
                    },
                    {
                        "number": 64,
                        "time": 145.73625000000004,
                        "value": 0
                    },
                    {
                        "number": 64,
                        "time": 146.14375000000004,
                        "value": 1
                    },
                    {
                        "number": 64,
                        "time": 146.34000000000003,
                        "value": 0
                    },
                    {
                        "number": 64,
                        "time": 150.61125000000004,
                        "value": 1
                    },
                    {
                        "number": 64,
                        "time": 150.91500000000005,
                        "value": 0
                    },
                    {
                        "number": 64,
                        "time": 150.97500000000005,
                        "value": 1
                    },
                    {
                        "number": 64,
                        "time": 151.20750000000004,
                        "value": 0
                    },
                    {
                        "number": 64,
                        "time": 151.82125000000005,
                        "value": 1
                    },
                    {
                        "number": 64,
                        "time": 152.11250000000004,
                        "value": 0
                    },
                    {
                        "number": 64,
                        "time": 152.14625000000004,
                        "value": 1
                    },
                    {
                        "number": 64,
                        "time": 152.42125000000004,
                        "value": 0
                    },
                    {
                        "number": 64,
                        "time": 153.02875000000003,
                        "value": 1
                    },
                    {
                        "number": 64,
                        "time": 153.31500000000003,
                        "value": 0
                    },
                    {
                        "number": 64,
                        "time": 153.39375000000004,
                        "value": 1
                    },
                    {
                        "number": 64,
                        "time": 153.61500000000004,
                        "value": 0
                    },
                    {
                        "number": 64,
                        "time": 154.26500000000004,
                        "value": 1
                    },
                    {
                        "number": 64,
                        "time": 154.50750000000005,
                        "value": 0
                    },
                    {
                        "number": 64,
                        "time": 154.56500000000005,
                        "value": 1
                    },
                    {
                        "number": 64,
                        "time": 154.81000000000006,
                        "value": 0
                    },
                    {
                        "number": 64,
                        "time": 155.44125000000005,
                        "value": 1
                    },
                    {
                        "number": 64,
                        "time": 155.70875000000007,
                        "value": 0
                    },
                    {
                        "number": 64,
                        "time": 155.74875000000006,
                        "value": 1
                    },
                    {
                        "number": 64,
                        "time": 156.01125000000005,
                        "value": 0
                    },
                    {
                        "number": 64,
                        "time": 156.62875000000005,
                        "value": 1
                    },
                    {
                        "number": 64,
                        "time": 156.91250000000005,
                        "value": 0
                    },
                    {
                        "number": 64,
                        "time": 156.95250000000004,
                        "value": 1
                    },
                    {
                        "number": 64,
                        "time": 157.20625000000004,
                        "value": 0
                    },
                    {
                        "number": 64,
                        "time": 157.53250000000003,
                        "value": 1
                    },
                    {
                        "number": 64,
                        "time": 157.81375000000003,
                        "value": 0
                    },
                    {
                        "number": 64,
                        "time": 158.13250000000002,
                        "value": 1
                    },
                    {
                        "number": 64,
                        "time": 158.42000000000002,
                        "value": 0
                    },
                    {
                        "number": 64,
                        "time": 158.46,
                        "value": 1
                    },
                    {
                        "number": 64,
                        "time": 158.71,
                        "value": 0
                    },
                    {
                        "number": 64,
                        "time": 159.04375000000002,
                        "value": 1
                    },
                    {
                        "number": 64,
                        "time": 159.32000000000002,
                        "value": 0
                    },
                    {
                        "number": 64,
                        "time": 160.8,
                        "value": 1
                    },
                    {
                        "number": 64,
                        "time": 160.98625,
                        "value": 0
                    },
                    {
                        "number": 64,
                        "time": 161.74375,
                        "value": 1
                    },
                    {
                        "number": 64,
                        "time": 162.025,
                        "value": 0
                    },
                    {
                        "number": 64,
                        "time": 163.22875000000002,
                        "value": 1
                    },
                    {
                        "number": 64,
                        "time": 163.46875000000003,
                        "value": 0
                    },
                    {
                        "number": 64,
                        "time": 164.15375000000003,
                        "value": 1
                    },
                    {
                        "number": 64,
                        "time": 164.41500000000002,
                        "value": 0
                    },
                    {
                        "number": 64,
                        "time": 164.45000000000002,
                        "value": 1
                    },
                    {
                        "number": 64,
                        "time": 164.72125000000003,
                        "value": 0
                    },
                    {
                        "number": 64,
                        "time": 164.78625000000002,
                        "value": 1
                    },
                    {
                        "number": 64,
                        "time": 165.02250000000004,
                        "value": 0
                    },
                    {
                        "number": 64,
                        "time": 165.07875000000004,
                        "value": 1
                    },
                    {
                        "number": 64,
                        "time": 165.31250000000003,
                        "value": 0
                    },
                    {
                        "number": 64,
                        "time": 165.37125000000003,
                        "value": 1
                    },
                    {
                        "number": 64,
                        "time": 165.62125000000003,
                        "value": 0
                    },
                    {
                        "number": 64,
                        "time": 165.67875000000004,
                        "value": 1
                    },
                    {
                        "number": 64,
                        "time": 165.91125000000002,
                        "value": 0
                    },
                    {
                        "number": 64,
                        "time": 165.97875000000002,
                        "value": 1
                    },
                    {
                        "number": 64,
                        "time": 166.24375,
                        "value": 0
                    },
                    {
                        "number": 64,
                        "time": 166.8325,
                        "value": 1
                    },
                    {
                        "number": 64,
                        "time": 167.11125,
                        "value": 0
                    },
                    {
                        "number": 64,
                        "time": 167.14375,
                        "value": 1
                    },
                    {
                        "number": 64,
                        "time": 167.39625,
                        "value": 0
                    },
                    {
                        "number": 64,
                        "time": 167.4275,
                        "value": 1
                    },
                    {
                        "number": 64,
                        "time": 167.705,
                        "value": 0
                    },
                    {
                        "number": 64,
                        "time": 167.74375,
                        "value": 1
                    },
                    {
                        "number": 64,
                        "time": 168.01125000000002,
                        "value": 0
                    },
                    {
                        "number": 64,
                        "time": 168.06000000000003,
                        "value": 1
                    },
                    {
                        "number": 64,
                        "time": 168.30875000000003,
                        "value": 0
                    },
                    {
                        "number": 64,
                        "time": 168.35500000000002,
                        "value": 1
                    },
                    {
                        "number": 64,
                        "time": 168.61125,
                        "value": 0
                    },
                    {
                        "number": 64,
                        "time": 168.66000000000003,
                        "value": 1
                    },
                    {
                        "number": 64,
                        "time": 168.90875000000003,
                        "value": 0
                    },
                    {
                        "number": 64,
                        "time": 168.95125000000002,
                        "value": 1
                    },
                    {
                        "number": 64,
                        "time": 169.22500000000002,
                        "value": 0
                    },
                    {
                        "number": 64,
                        "time": 169.25500000000002,
                        "value": 1
                    },
                    {
                        "number": 64,
                        "time": 169.51625,
                        "value": 0
                    },
                    {
                        "number": 64,
                        "time": 169.56375000000003,
                        "value": 1
                    },
                    {
                        "number": 64,
                        "time": 169.81250000000003,
                        "value": 0
                    },
                    {
                        "number": 64,
                        "time": 169.85500000000002,
                        "value": 1
                    },
                    {
                        "number": 64,
                        "time": 170.10750000000002,
                        "value": 0
                    },
                    {
                        "number": 64,
                        "time": 170.16000000000003,
                        "value": 1
                    },
                    {
                        "number": 64,
                        "time": 170.42000000000002,
                        "value": 0
                    },
                    {
                        "number": 64,
                        "time": 170.48375000000001,
                        "value": 1
                    },
                    {
                        "number": 64,
                        "time": 170.71375,
                        "value": 0
                    },
                    {
                        "number": 64,
                        "time": 170.775,
                        "value": 1
                    },
                    {
                        "number": 64,
                        "time": 171.01625,
                        "value": 0
                    },
                    {
                        "number": 64,
                        "time": 171.055,
                        "value": 1
                    },
                    {
                        "number": 64,
                        "time": 171.30375,
                        "value": 0
                    },
                    {
                        "number": 64,
                        "time": 171.37875,
                        "value": 1
                    },
                    {
                        "number": 64,
                        "time": 171.61124999999998,
                        "value": 0
                    },
                    {
                        "number": 64,
                        "time": 171.64374999999998,
                        "value": 1
                    },
                    {
                        "number": 64,
                        "time": 171.91375,
                        "value": 0
                    },
                    {
                        "number": 64,
                        "time": 171.95749999999998,
                        "value": 1
                    },
                    {
                        "number": 64,
                        "time": 172.20999999999998,
                        "value": 0
                    },
                    {
                        "number": 64,
                        "time": 172.2575,
                        "value": 1
                    },
                    {
                        "number": 64,
                        "time": 172.51125,
                        "value": 0
                    },
                    {
                        "number": 64,
                        "time": 172.565,
                        "value": 1
                    },
                    {
                        "number": 64,
                        "time": 172.8075,
                        "value": 0
                    },
                    {
                        "number": 64,
                        "time": 172.84375,
                        "value": 1
                    },
                    {
                        "number": 64,
                        "time": 173.105,
                        "value": 0
                    },
                    {
                        "number": 64,
                        "time": 173.15375,
                        "value": 1
                    },
                    {
                        "number": 64,
                        "time": 173.41375,
                        "value": 0
                    },
                    {
                        "number": 64,
                        "time": 173.45,
                        "value": 1
                    },
                    {
                        "number": 64,
                        "time": 173.71124999999998,
                        "value": 0
                    },
                    {
                        "number": 64,
                        "time": 173.79,
                        "value": 1
                    },
                    {
                        "number": 64,
                        "time": 174.0125,
                        "value": 0
                    },
                    {
                        "number": 64,
                        "time": 174.05374999999998,
                        "value": 1
                    },
                    {
                        "number": 64,
                        "time": 174.61249999999998,
                        "value": 0
                    },
                    {
                        "number": 64,
                        "time": 174.65749999999997,
                        "value": 1
                    },
                    {
                        "number": 64,
                        "time": 175.21124999999998,
                        "value": 0
                    },
                    {
                        "number": 64,
                        "time": 175.26125,
                        "value": 1
                    },
                    {
                        "number": 64,
                        "time": 175.80374999999998,
                        "value": 0
                    },
                    {
                        "number": 64,
                        "time": 175.84624999999997,
                        "value": 1
                    },
                    {
                        "number": 64,
                        "time": 176.41249999999997,
                        "value": 0
                    },
                    {
                        "number": 64,
                        "time": 176.89999999999998,
                        "value": 1
                    },
                    {
                        "number": 64,
                        "time": 178.21124999999998,
                        "value": 0
                    },
                    {
                        "number": 64,
                        "time": 178.86749999999998,
                        "value": 1
                    },
                    {
                        "number": 64,
                        "time": 180.01749999999998,
                        "value": 0
                    },
                    {
                        "number": 64,
                        "time": 180.6,
                        "value": 1
                    },
                    {
                        "number": 64,
                        "time": 181.82,
                        "value": 0
                    },
                    {
                        "number": 64,
                        "time": 182.29999999999998,
                        "value": 1
                    },
                    {
                        "number": 64,
                        "time": 183.60999999999999,
                        "value": 0
                    },
                    {
                        "number": 64,
                        "time": 184.06625,
                        "value": 1
                    },
                    {
                        "number": 64,
                        "time": 185.4125,
                        "value": 0
                    },
                    {
                        "number": 64,
                        "time": 185.93375,
                        "value": 1
                    },
                    {
                        "number": 64,
                        "time": 187.21,
                        "value": 0
                    },
                    {
                        "number": 64,
                        "time": 187.5675,
                        "value": 1
                    },
                    {
                        "number": 64,
                        "time": 189.0125,
                        "value": 0
                    },
                    {
                        "number": 64,
                        "time": 189.53375,
                        "value": 1
                    },
                    {
                        "number": 64,
                        "time": 190.81375,
                        "value": 0
                    },
                    {
                        "number": 64,
                        "time": 191.4,
                        "value": 1
                    },
                    {
                        "number": 64,
                        "time": 192.60750000000002,
                        "value": 0
                    },
                    {
                        "number": 64,
                        "time": 193.03375000000003,
                        "value": 1
                    },
                    {
                        "number": 64,
                        "time": 194.41500000000002,
                        "value": 0
                    },
                    {
                        "number": 64,
                        "time": 194.83375,
                        "value": 1
                    },
                    {
                        "number": 64,
                        "time": 195.60000000000002,
                        "value": 0
                    },
                    {
                        "number": 64,
                        "time": 196.70000000000002,
                        "value": 1
                    },
                    {
                        "number": 64,
                        "time": 198.00750000000002,
                        "value": 0
                    },
                    {
                        "number": 64,
                        "time": 198.60000000000002,
                        "value": 1
                    },
                    {
                        "number": 64,
                        "time": 199.81125000000003,
                        "value": 0
                    },
                    {
                        "number": 64,
                        "time": 200.33375000000004,
                        "value": 1
                    },
                    {
                        "number": 64,
                        "time": 201.60750000000004,
                        "value": 0
                    },
                    {
                        "number": 64,
                        "time": 202.13375000000005,
                        "value": 1
                    },
                    {
                        "number": 64,
                        "time": 203.40625000000006,
                        "value": 0
                    },
                    {
                        "number": 64,
                        "time": 204.00000000000006,
                        "value": 1
                    },
                    {
                        "number": 64,
                        "time": 205.20750000000007,
                        "value": 0
                    },
                    {
                        "number": 64,
                        "time": 205.66750000000008,
                        "value": 1
                    },
                    {
                        "number": 64,
                        "time": 207.01000000000008,
                        "value": 0
                    },
                    {
                        "number": 64,
                        "time": 207.63375000000008,
                        "value": 1
                    },
                    {
                        "number": 64,
                        "time": 208.8112500000001,
                        "value": 0
                    },
                    {
                        "number": 64,
                        "time": 209.2337500000001,
                        "value": 1
                    },
                    {
                        "number": 64,
                        "time": 210.6112500000001,
                        "value": 0
                    },
                    {
                        "number": 64,
                        "time": 211.2675000000001,
                        "value": 1
                    },
                    {
                        "number": 64,
                        "time": 212.40750000000008,
                        "value": 0
                    },
                    {
                        "number": 64,
                        "time": 213.06750000000008,
                        "value": 1
                    },
                    {
                        "number": 64,
                        "time": 214.20500000000007,
                        "value": 0
                    },
                    {
                        "number": 64,
                        "time": 214.46500000000006,
                        "value": 1
                    },
                    {
                        "number": 64,
                        "time": 215.04750000000007,
                        "value": 0
                    },
                    {
                        "number": 64,
                        "time": 215.52375000000006,
                        "value": 1
                    },
                    {
                        "number": 64,
                        "time": 216.01875000000007,
                        "value": 0
                    },
                    {
                        "number": 64,
                        "time": 216.53375000000005,
                        "value": 1
                    },
                    {
                        "number": 64,
                        "time": 217.81375000000006,
                        "value": 0
                    },
                    {
                        "number": 64,
                        "time": 218.26750000000007,
                        "value": 1
                    },
                    {
                        "number": 64,
                        "time": 219.61125000000007,
                        "value": 0
                    },
                    {
                        "number": 64,
                        "time": 219.82875000000007,
                        "value": 1
                    },
                    {
                        "number": 64,
                        "time": 220.22125000000008,
                        "value": 0
                    },
                    {
                        "number": 64,
                        "time": 220.6862500000001,
                        "value": 1
                    },
                    {
                        "number": 64,
                        "time": 221.41375000000008,
                        "value": 0
                    },
                    {
                        "number": 64,
                        "time": 221.9000000000001,
                        "value": 1
                    },
                    {
                        "number": 64,
                        "time": 223.21875000000009,
                        "value": 0
                    },
                    {
                        "number": 64,
                        "time": 223.50000000000009,
                        "value": 1
                    },
                    {
                        "number": 64,
                        "time": 225.00500000000008,
                        "value": 0
                    },
                    {
                        "number": 64,
                        "time": 225.60000000000008,
                        "value": 1
                    },
                    {
                        "number": 64,
                        "time": 226.8050000000001,
                        "value": 0
                    },
                    {
                        "number": 64,
                        "time": 227.53375000000008,
                        "value": 1
                    },
                    {
                        "number": 64,
                        "time": 229.3662500000001,
                        "value": 0
                    },
                    {
                        "number": 64,
                        "time": 230.4137500000001,
                        "value": 1
                    },
                    {
                        "number": 64,
                        "time": 235.21750000000011,
                        "value": 0
                    },
                    {
                        "number": 64,
                        "time": 235.26625000000013,
                        "value": 1
                    },
                    {
                        "number": 64,
                        "time": 235.80875000000012,
                        "value": 0
                    },
                    {
                        "number": 64,
                        "time": 235.9100000000001,
                        "value": 1
                    },
                    {
                        "number": 64,
                        "time": 236.4162500000001,
                        "value": 0
                    },
                    {
                        "number": 64,
                        "time": 236.4925000000001,
                        "value": 1
                    },
                    {
                        "number": 64,
                        "time": 237.6050000000001,
                        "value": 0
                    },
                    {
                        "number": 64,
                        "time": 237.7287500000001,
                        "value": 1
                    },
                    {
                        "number": 64,
                        "time": 238.21625000000012,
                        "value": 0
                    },
                    {
                        "number": 64,
                        "time": 238.33625000000012,
                        "value": 1
                    },
                    {
                        "number": 64,
                        "time": 238.8175000000001,
                        "value": 0
                    },
                    {
                        "number": 64,
                        "time": 238.8837500000001,
                        "value": 1
                    },
                    {
                        "number": 64,
                        "time": 239.4125000000001,
                        "value": 0
                    },
                    {
                        "number": 64,
                        "time": 239.55500000000012,
                        "value": 1
                    },
                    {
                        "number": 64,
                        "time": 240.01750000000013,
                        "value": 0
                    },
                    {
                        "number": 64,
                        "time": 240.09750000000014,
                        "value": 1
                    },
                    {
                        "number": 64,
                        "time": 240.61125000000013,
                        "value": 0
                    },
                    {
                        "number": 64,
                        "time": 240.66125000000014,
                        "value": 1
                    },
                    {
                        "number": 64,
                        "time": 241.21000000000015,
                        "value": 0
                    },
                    {
                        "number": 64,
                        "time": 241.26875000000015,
                        "value": 1
                    },
                    {
                        "number": 64,
                        "time": 241.80625000000015,
                        "value": 0
                    },
                    {
                        "number": 64,
                        "time": 241.90375000000014,
                        "value": 1
                    },
                    {
                        "number": 64,
                        "time": 242.41375000000014,
                        "value": 0
                    },
                    {
                        "number": 64,
                        "time": 242.49375000000015,
                        "value": 1
                    },
                    {
                        "number": 64,
                        "time": 243.01625000000016,
                        "value": 0
                    },
                    {
                        "number": 64,
                        "time": 243.07875000000016,
                        "value": 1
                    },
                    {
                        "number": 64,
                        "time": 243.62125000000015,
                        "value": 0
                    },
                    {
                        "number": 64,
                        "time": 243.66375000000014,
                        "value": 1
                    },
                    {
                        "number": 64,
                        "time": 244.21750000000014,
                        "value": 0
                    },
                    {
                        "number": 64,
                        "time": 244.32500000000013,
                        "value": 1
                    },
                    {
                        "number": 64,
                        "time": 244.81125000000014,
                        "value": 0
                    },
                    {
                        "number": 64,
                        "time": 244.85750000000013,
                        "value": 1
                    },
                    {
                        "number": 64,
                        "time": 245.41500000000013,
                        "value": 0
                    },
                    {
                        "number": 64,
                        "time": 245.50000000000014,
                        "value": 1
                    },
                    {
                        "number": 64,
                        "time": 246.01750000000015,
                        "value": 0
                    },
                    {
                        "number": 64,
                        "time": 246.08625000000015,
                        "value": 1
                    },
                    {
                        "number": 64,
                        "time": 246.62125000000015,
                        "value": 0
                    },
                    {
                        "number": 64,
                        "time": 246.68625000000014,
                        "value": 1
                    },
                    {
                        "number": 64,
                        "time": 247.21375000000015,
                        "value": 0
                    },
                    {
                        "number": 64,
                        "time": 247.30000000000015,
                        "value": 1
                    },
                    {
                        "number": 64,
                        "time": 247.81375000000014,
                        "value": 0
                    },
                    {
                        "number": 64,
                        "time": 247.86125000000015,
                        "value": 1
                    },
                    {
                        "number": 64,
                        "time": 248.41250000000016,
                        "value": 0
                    },
                    {
                        "number": 64,
                        "time": 248.47125000000017,
                        "value": 1
                    },
                    {
                        "number": 64,
                        "time": 249.02125000000018,
                        "value": 0
                    },
                    {
                        "number": 64,
                        "time": 249.0712500000002,
                        "value": 1
                    },
                    {
                        "number": 64,
                        "time": 249.6212500000002,
                        "value": 0
                    },
                    {
                        "number": 64,
                        "time": 249.6862500000002,
                        "value": 1
                    },
                    {
                        "number": 64,
                        "time": 250.2212500000002,
                        "value": 0
                    },
                    {
                        "number": 64,
                        "time": 250.2575000000002,
                        "value": 1
                    },
                    {
                        "number": 64,
                        "time": 250.8125000000002,
                        "value": 0
                    },
                    {
                        "number": 64,
                        "time": 250.8937500000002,
                        "value": 1
                    },
                    {
                        "number": 64,
                        "time": 251.41250000000022,
                        "value": 0
                    },
                    {
                        "number": 64,
                        "time": 251.51125000000022,
                        "value": 1
                    },
                    {
                        "number": 64,
                        "time": 252.00875000000022,
                        "value": 0
                    },
                    {
                        "number": 64,
                        "time": 252.07125000000022,
                        "value": 1
                    },
                    {
                        "number": 64,
                        "time": 252.6137500000002,
                        "value": 0
                    },
                    {
                        "number": 64,
                        "time": 252.6837500000002,
                        "value": 1
                    },
                    {
                        "number": 64,
                        "time": 253.2125000000002,
                        "value": 0
                    },
                    {
                        "number": 64,
                        "time": 253.3100000000002,
                        "value": 1
                    },
                    {
                        "number": 64,
                        "time": 253.8150000000002,
                        "value": 0
                    },
                    {
                        "number": 64,
                        "time": 253.8887500000002,
                        "value": 1
                    },
                    {
                        "number": 64,
                        "time": 254.4087500000002,
                        "value": 0
                    },
                    {
                        "number": 64,
                        "time": 254.5062500000002,
                        "value": 1
                    },
                    {
                        "number": 64,
                        "time": 255.6075000000002,
                        "value": 0
                    },
                    {
                        "number": 64,
                        "time": 255.7287500000002,
                        "value": 1
                    },
                    {
                        "number": 64,
                        "time": 256.8112500000002,
                        "value": 0
                    },
                    {
                        "number": 64,
                        "time": 256.9012500000002,
                        "value": 1
                    },
                    {
                        "number": 64,
                        "time": 257.4125000000002,
                        "value": 0
                    },
                    {
                        "number": 64,
                        "time": 257.5062500000002,
                        "value": 1
                    },
                    {
                        "number": 64,
                        "time": 258.0187500000002,
                        "value": 0
                    },
                    {
                        "number": 64,
                        "time": 258.1237500000002,
                        "value": 1
                    },
                    {
                        "number": 64,
                        "time": 258.6137500000002,
                        "value": 0
                    },
                    {
                        "number": 64,
                        "time": 258.7150000000002,
                        "value": 1
                    },
                    {
                        "number": 64,
                        "time": 259.1737500000002,
                        "value": 0
                    },
                    {
                        "number": 64,
                        "time": 259.2437500000002,
                        "value": 1
                    },
                    {
                        "number": 64,
                        "time": 259.80750000000023,
                        "value": 0
                    },
                    {
                        "number": 64,
                        "time": 259.87125000000026,
                        "value": 1
                    },
                    {
                        "number": 64,
                        "time": 260.4087500000003,
                        "value": 0
                    },
                    {
                        "number": 64,
                        "time": 260.4487500000003,
                        "value": 1
                    },
                    {
                        "number": 64,
                        "time": 261.0062500000003,
                        "value": 0
                    },
                    {
                        "number": 64,
                        "time": 261.0837500000003,
                        "value": 1
                    },
                    {
                        "number": 64,
                        "time": 261.60875000000027,
                        "value": 0
                    },
                    {
                        "number": 64,
                        "time": 261.71500000000026,
                        "value": 1
                    },
                    {
                        "number": 64,
                        "time": 262.21125000000023,
                        "value": 0
                    },
                    {
                        "number": 64,
                        "time": 262.3150000000002,
                        "value": 1
                    },
                    {
                        "number": 64,
                        "time": 262.81000000000023,
                        "value": 0
                    },
                    {
                        "number": 64,
                        "time": 262.8537500000002,
                        "value": 1
                    },
                    {
                        "number": 64,
                        "time": 263.4150000000002,
                        "value": 0
                    },
                    {
                        "number": 64,
                        "time": 263.4962500000002,
                        "value": 1
                    },
                    {
                        "number": 64,
                        "time": 264.0062500000002,
                        "value": 0
                    },
                    {
                        "number": 64,
                        "time": 264.0750000000002,
                        "value": 1
                    },
                    {
                        "number": 64,
                        "time": 264.6137500000002,
                        "value": 0
                    },
                    {
                        "number": 64,
                        "time": 264.7075000000002,
                        "value": 1
                    },
                    {
                        "number": 64,
                        "time": 265.2125000000002,
                        "value": 0
                    },
                    {
                        "number": 64,
                        "time": 265.2712500000002,
                        "value": 1
                    },
                    {
                        "number": 64,
                        "time": 265.81500000000017,
                        "value": 0
                    },
                    {
                        "number": 64,
                        "time": 265.88250000000016,
                        "value": 1
                    },
                    {
                        "number": 64,
                        "time": 266.41000000000014,
                        "value": 0
                    },
                    {
                        "number": 64,
                        "time": 266.43875000000014,
                        "value": 1
                    },
                    {
                        "number": 64,
                        "time": 267.0187500000001,
                        "value": 0
                    },
                    {
                        "number": 64,
                        "time": 267.07125000000013,
                        "value": 1
                    },
                    {
                        "number": 64,
                        "time": 268.2137500000001,
                        "value": 0
                    },
                    {
                        "number": 64,
                        "time": 268.3075000000001,
                        "value": 1
                    },
                    {
                        "number": 64,
                        "time": 270.0100000000001,
                        "value": 0
                    },
                    {
                        "number": 64,
                        "time": 270.0975000000001,
                        "value": 1
                    },
                    {
                        "number": 64,
                        "time": 271.80750000000006,
                        "value": 0
                    },
                    {
                        "number": 64,
                        "time": 271.89250000000004,
                        "value": 1
                    },
                    {
                        "number": 64,
                        "time": 273.01375,
                        "value": 0
                    },
                    {
                        "number": 64,
                        "time": 273.07125,
                        "value": 1
                    },
                    {
                        "number": 64,
                        "time": 273.61125000000004,
                        "value": 0
                    },
                    {
                        "number": 64,
                        "time": 273.72375000000005,
                        "value": 1
                    },
                    {
                        "number": 64,
                        "time": 277.21375000000006,
                        "value": 0
                    },
                    {
                        "number": 64,
                        "time": 277.28375000000005,
                        "value": 1
                    },
                    {
                        "number": 64,
                        "time": 279.01625000000007,
                        "value": 0
                    },
                    {
                        "number": 64,
                        "time": 279.11000000000007,
                        "value": 1
                    },
                    {
                        "number": 64,
                        "time": 280.21125000000006,
                        "value": 0
                    },
                    {
                        "number": 64,
                        "time": 280.2750000000001,
                        "value": 1
                    },
                    {
                        "number": 64,
                        "time": 280.80500000000006,
                        "value": 0
                    },
                    {
                        "number": 64,
                        "time": 280.89250000000004,
                        "value": 1
                    },
                    {
                        "number": 64,
                        "time": 284.41125000000005,
                        "value": 0
                    },
                    {
                        "number": 64,
                        "time": 284.51500000000004,
                        "value": 1
                    },
                    {
                        "number": 64,
                        "time": 286.20750000000004,
                        "value": 0
                    },
                    {
                        "number": 64,
                        "time": 286.28875000000005,
                        "value": 1
                    },
                    {
                        "number": 64,
                        "time": 287.41,
                        "value": 0
                    },
                    {
                        "number": 64,
                        "time": 287.46625,
                        "value": 1
                    },
                    {
                        "number": 64,
                        "time": 288.01375,
                        "value": 0
                    },
                    {
                        "number": 64,
                        "time": 288.14625,
                        "value": 1
                    },
                    {
                        "number": 64,
                        "time": 291.61375,
                        "value": 0
                    },
                    {
                        "number": 64,
                        "time": 291.70124999999996,
                        "value": 1
                    },
                    {
                        "number": 64,
                        "time": 293.41124999999994,
                        "value": 0
                    },
                    {
                        "number": 64,
                        "time": 293.50624999999997,
                        "value": 1
                    },
                    {
                        "number": 64,
                        "time": 294.60999999999996,
                        "value": 0
                    },
                    {
                        "number": 64,
                        "time": 294.67499999999995,
                        "value": 1
                    },
                    {
                        "number": 64,
                        "time": 295.21124999999995,
                        "value": 0
                    },
                    {
                        "number": 64,
                        "time": 295.28,
                        "value": 1
                    },
                    {
                        "number": 64,
                        "time": 298.81624999999997,
                        "value": 0
                    },
                    {
                        "number": 64,
                        "time": 298.8925,
                        "value": 1
                    },
                    {
                        "number": 64,
                        "time": 307.77375,
                        "value": 0
                    }
                ]
            },
            "id": 3,
            "name": "Pedal"
        },
        {
            "startTime": 0,
            "duration": 0,
            "length": 0,
            "notes": [],
            "controlChanges": {
                "91": [
                    {
                        "number": 91,
                        "time": 0,
                        "value": 1
                    }
                ]
            },
            "id": 4,
            "name": "Modest Mussorgski: Bilder einer Ausstellung (7)"
        },
        {
            "startTime": 0,
            "duration": 0,
            "length": 0,
            "notes": [],
            "controlChanges": {},
            "id": 5,
            "name": "Copyright  2000 by Bernd Krger"
        },
        {
            "startTime": 0,
            "duration": 0,
            "length": 0,
            "notes": [],
            "controlChanges": {},
            "id": 6,
            "name": "http://www.piano-midi.de"
        },
        {
            "startTime": 0,
            "duration": 0,
            "length": 0,
            "notes": [],
            "controlChanges": {},
            "id": 7,
            "name": "Edition: 2013-12-16"
        }
    ]
}