{
    "header": {
        "PPQ": 480,
        "timeSignature": [
            12,
            8
        ],
        "bpm": 165.83014570942137,
        "name": "Appassionata"
    },
    "startTime": 0,
    "duration": 570.9456480000237,
    "tracks": [
        {
            "startTime": 0,
            "duration": 0,
            "length": 0,
            "notes": [],
            "controlChanges": {},
            "id": 0,
            "name": "Appassionata"
        },
        {
            "startTime": 1.628172,
            "duration": 570.9456480000237,
            "length": 3207,
            "notes": [
                {
                    "name": "C4",
                    "midi": 60,
                    "time": 1.628172,
                    "velocity": 0.2755905511811024,
                    "duration": 0.45226999999999973
                },
                {
                    "name": "G#3",
                    "midi": 56,
                    "time": 2.0804419999999997,
                    "velocity": 0.2440944881889764,
                    "duration": 0.09045399999999981
                },
                {
                    "name": "F3",
                    "midi": 53,
                    "time": 2.1708959999999995,
                    "velocity": 0.2204724409448819,
                    "duration": 1.6281719999999997
                },
                {
                    "name": "G#3",
                    "midi": 56,
                    "time": 3.7990679999999992,
                    "velocity": 0.2755905511811024,
                    "duration": 0.4522699999999995
                },
                {
                    "name": "C4",
                    "midi": 60,
                    "time": 4.251337999999999,
                    "velocity": 0.23622047244094488,
                    "duration": 0.09045400000000026
                },
                {
                    "name": "F4",
                    "midi": 65,
                    "time": 4.341791999999999,
                    "velocity": 0.2755905511811024,
                    "duration": 0.5427239999999998
                },
                {
                    "name": "G#4",
                    "midi": 68,
                    "time": 4.884515999999999,
                    "velocity": 0.2755905511811024,
                    "duration": 0.4522699999999995
                },
                {
                    "name": "C5",
                    "midi": 72,
                    "time": 5.336785999999998,
                    "velocity": 0.23622047244094488,
                    "duration": 0.09045400000000026
                },
                {
                    "name": "F5",
                    "midi": 77,
                    "time": 5.4272399999999985,
                    "velocity": 0.2755905511811024,
                    "duration": 0.5351861666666666
                },
                {
                    "name": "F4",
                    "midi": 65,
                    "time": 5.969963999999998,
                    "velocity": 0.25984251968503935,
                    "duration": 0.5427239999999998
                },
                {
                    "name": "C5",
                    "midi": 72,
                    "time": 6.512687999999998,
                    "velocity": 0.2755905511811024,
                    "duration": 0.9045399999999999
                },
                {
                    "name": "D5",
                    "midi": 74,
                    "time": 7.417227999999998,
                    "velocity": 0.25984251968503935,
                    "duration": 0.13568099999999994
                },
                {
                    "name": "C5",
                    "midi": 72,
                    "time": 7.552908999999998,
                    "velocity": 0.2440944881889764,
                    "duration": 0.045226999999999684
                },
                {
                    "name": "D5",
                    "midi": 74,
                    "time": 7.598135999999998,
                    "velocity": 0.25196850393700787,
                    "duration": 0.06030266666666684
                },
                {
                    "name": "E5",
                    "midi": 76,
                    "time": 7.658438666666664,
                    "velocity": 0.2204724409448819,
                    "duration": 0.06030266666666684
                },
                {
                    "name": "D5",
                    "midi": 74,
                    "time": 7.718741333333331,
                    "velocity": 0.25196850393700787,
                    "duration": 0.06030266666666684
                },
                {
                    "name": "E5",
                    "midi": 76,
                    "time": 7.779043999999998,
                    "velocity": 0.2204724409448819,
                    "duration": 0.06030266666666684
                },
                {
                    "name": "D5",
                    "midi": 74,
                    "time": 7.839346666666665,
                    "velocity": 0.25196850393700787,
                    "duration": 0.06030266666666684
                },
                {
                    "name": "E5",
                    "midi": 76,
                    "time": 7.899649333333332,
                    "velocity": 0.2283464566929134,
                    "duration": 0.06030266666666684
                },
                {
                    "name": "D5",
                    "midi": 74,
                    "time": 7.959951999999999,
                    "velocity": 0.25196850393700787,
                    "duration": 0.06030266666666595
                },
                {
                    "name": "E5",
                    "midi": 76,
                    "time": 8.020254666666665,
                    "velocity": 0.2204724409448819,
                    "duration": 0.06030266666666684
                },
                {
                    "name": "D5",
                    "midi": 74,
                    "time": 8.080557333333331,
                    "velocity": 0.2440944881889764,
                    "duration": 0.06030266666666684
                },
                {
                    "name": "E5",
                    "midi": 76,
                    "time": 8.140859999999998,
                    "velocity": 0.2283464566929134,
                    "duration": 0.06030266666666684
                },
                {
                    "name": "D5",
                    "midi": 74,
                    "time": 8.201162666666665,
                    "velocity": 0.2125984251968504,
                    "duration": 0.06030266666666684
                },
                {
                    "name": "E5",
                    "midi": 76,
                    "time": 8.261465333333332,
                    "velocity": 0.25196850393700787,
                    "duration": 0.06030266666666684
                },
                {
                    "name": "D5",
                    "midi": 74,
                    "time": 8.321767999999999,
                    "velocity": 0.2125984251968504,
                    "duration": 0.09045399999999937
                },
                {
                    "name": "C5",
                    "midi": 72,
                    "time": 8.412221999999998,
                    "velocity": 0.2204724409448819,
                    "duration": 0.09045399999999937
                },
                {
                    "name": "E5",
                    "midi": 76,
                    "time": 8.502675999999997,
                    "velocity": 0.2440944881889764,
                    "duration": 0.09045399999999937
                },
                {
                    "name": "D5",
                    "midi": 74,
                    "time": 8.593129999999997,
                    "velocity": 0.2204724409448819,
                    "duration": 0.09045399999999937
                },
                {
                    "name": "C5",
                    "midi": 72,
                    "time": 8.683583999999996,
                    "velocity": 0.2755905511811024,
                    "duration": 0.36181599999999925
                },
                {
                    "name": "C#4",
                    "midi": 61,
                    "time": 10.311755999999995,
                    "velocity": 0.2755905511811024,
                    "duration": 0.4522700000000004
                },
                {
                    "name": "A#3",
                    "midi": 58,
                    "time": 10.764025999999996,
                    "velocity": 0.2440944881889764,
                    "duration": 0.09045399999999937
                },
                {
                    "name": "F#3",
                    "midi": 54,
                    "time": 10.854479999999995,
                    "velocity": 0.2204724409448819,
                    "duration": 1.6281719999999993
                },
                {
                    "name": "A#3",
                    "midi": 58,
                    "time": 12.482651999999995,
                    "velocity": 0.2755905511811024,
                    "duration": 0.4522700000000004
                },
                {
                    "name": "C#4",
                    "midi": 61,
                    "time": 12.934921999999995,
                    "velocity": 0.23622047244094488,
                    "duration": 0.09045399999999937
                },
                {
                    "name": "F#4",
                    "midi": 66,
                    "time": 13.025375999999994,
                    "velocity": 0.2755905511811024,
                    "duration": 0.5427239999999998
                },
                {
                    "name": "A#4",
                    "midi": 70,
                    "time": 13.568099999999994,
                    "velocity": 0.2755905511811024,
                    "duration": 0.4522700000000004
                },
                {
                    "name": "C#5",
                    "midi": 73,
                    "time": 14.020369999999994,
                    "velocity": 0.23622047244094488,
                    "duration": 0.09045399999999937
                },
                {
                    "name": "F#5",
                    "midi": 78,
                    "time": 14.110823999999994,
                    "velocity": 0.2677165354330709,
                    "duration": 0.5427239999999998
                },
                {
                    "name": "F#4",
                    "midi": 66,
                    "time": 14.653547999999994,
                    "velocity": 0.25984251968503935,
                    "duration": 0.5427239999999998
                },
                {
                    "name": "C#5",
                    "midi": 73,
                    "time": 15.196271999999993,
                    "velocity": 0.2755905511811024,
                    "duration": 0.9045400000000008
                },
                {
                    "name": "D#5",
                    "midi": 75,
                    "time": 16.100811999999994,
                    "velocity": 0.25196850393700787,
                    "duration": 0.13568100000000172
                },
                {
                    "name": "C#5",
                    "midi": 73,
                    "time": 16.236492999999996,
                    "velocity": 0.2440944881889764,
                    "duration": 0.04522700000000057
                },
                {
                    "name": "D#5",
                    "midi": 75,
                    "time": 16.281719999999996,
                    "velocity": 0.23622047244094488,
                    "duration": 0.06030266666666506
                },
                {
                    "name": "F5",
                    "midi": 77,
                    "time": 16.34202266666666,
                    "velocity": 0.2125984251968504,
                    "duration": 0.06030266666666506
                },
                {
                    "name": "D#5",
                    "midi": 75,
                    "time": 16.402325333333327,
                    "velocity": 0.23622047244094488,
                    "duration": 0.06030266666666506
                },
                {
                    "name": "F5",
                    "midi": 77,
                    "time": 16.46262799999999,
                    "velocity": 0.2125984251968504,
                    "duration": 0.06030266666666506
                },
                {
                    "name": "D#5",
                    "midi": 75,
                    "time": 16.522930666666657,
                    "velocity": 0.23622047244094488,
                    "duration": 0.06030266666666506
                },
                {
                    "name": "F5",
                    "midi": 77,
                    "time": 16.58323333333332,
                    "velocity": 0.2125984251968504,
                    "duration": 0.06030266666666506
                },
                {
                    "name": "D#5",
                    "midi": 75,
                    "time": 16.643535999999987,
                    "velocity": 0.2283464566929134,
                    "duration": 0.06030266666666506
                },
                {
                    "name": "F5",
                    "midi": 77,
                    "time": 16.703838666666652,
                    "velocity": 0.2125984251968504,
                    "duration": 0.06030266666666506
                },
                {
                    "name": "D#5",
                    "midi": 75,
                    "time": 16.764141333333317,
                    "velocity": 0.2283464566929134,
                    "duration": 0.06030266666666506
                },
                {
                    "name": "F5",
                    "midi": 77,
                    "time": 16.824443999999982,
                    "velocity": 0.2204724409448819,
                    "duration": 0.06030266666666506
                },
                {
                    "name": "D#5",
                    "midi": 75,
                    "time": 16.884746666666647,
                    "velocity": 0.23622047244094488,
                    "duration": 0.06030266666666506
                },
                {
                    "name": "F5",
                    "midi": 77,
                    "time": 16.945049333333312,
                    "velocity": 0.2204724409448819,
                    "duration": 0.06030266666666506
                },
                {
                    "name": "D#5",
                    "midi": 75,
                    "time": 17.005351999999977,
                    "velocity": 0.2047244094488189,
                    "duration": 0.09045400000000114
                },
                {
                    "name": "C#5",
                    "midi": 73,
                    "time": 17.09580599999998,
                    "velocity": 0.2204724409448819,
                    "duration": 0.09045400000000114
                },
                {
                    "name": "F5",
                    "midi": 77,
                    "time": 17.18625999999998,
                    "velocity": 0.2440944881889764,
                    "duration": 0.09045400000000114
                },
                {
                    "name": "D#5",
                    "midi": 75,
                    "time": 17.27671399999998,
                    "velocity": 0.2283464566929134,
                    "duration": 0.09045400000000114
                },
                {
                    "name": "C#5",
                    "midi": 73,
                    "time": 17.36716799999998,
                    "velocity": 0.2755905511811024,
                    "duration": 0.361816000000001
                },
                {
                    "name": "C5",
                    "midi": 72,
                    "time": 19.538063999999984,
                    "velocity": 0.2755905511811024,
                    "duration": 0.9045400000000008
                },
                {
                    "name": "D5",
                    "midi": 74,
                    "time": 20.442603999999985,
                    "velocity": 0.33070866141732286,
                    "duration": 0.13568100000000172
                },
                {
                    "name": "C5",
                    "midi": 72,
                    "time": 20.578284999999987,
                    "velocity": 0.2992125984251969,
                    "duration": 0.04522700000000057
                },
                {
                    "name": "D5",
                    "midi": 74,
                    "time": 20.623511999999987,
                    "velocity": 0.33858267716535434,
                    "duration": 0.06030266666666506
                },
                {
                    "name": "E5",
                    "midi": 76,
                    "time": 20.683814666666652,
                    "velocity": 0.2755905511811024,
                    "duration": 0.06030266666666506
                },
                {
                    "name": "D5",
                    "midi": 74,
                    "time": 20.744117333333318,
                    "velocity": 0.31496062992125984,
                    "duration": 0.06030266666666506
                },
                {
                    "name": "E5",
                    "midi": 76,
                    "time": 20.804419999999983,
                    "velocity": 0.28346456692913385,
                    "duration": 0.06030266666666506
                },
                {
                    "name": "D5",
                    "midi": 74,
                    "time": 20.864722666666648,
                    "velocity": 0.30708661417322836,
                    "duration": 0.06030266666666506
                },
                {
                    "name": "E5",
                    "midi": 76,
                    "time": 20.925025333333313,
                    "velocity": 0.28346456692913385,
                    "duration": 0.06030266666666506
                },
                {
                    "name": "D5",
                    "midi": 74,
                    "time": 20.985327999999978,
                    "velocity": 0.3228346456692913,
                    "duration": 0.06030266666666506
                },
                {
                    "name": "E5",
                    "midi": 76,
                    "time": 21.045630666666643,
                    "velocity": 0.29133858267716534,
                    "duration": 0.06030266666666506
                },
                {
                    "name": "D5",
                    "midi": 74,
                    "time": 21.105933333333308,
                    "velocity": 0.31496062992125984,
                    "duration": 0.06030266666666506
                },
                {
                    "name": "E5",
                    "midi": 76,
                    "time": 21.166235999999973,
                    "velocity": 0.2755905511811024,
                    "duration": 0.06030266666666506
                },
                {
                    "name": "D5",
                    "midi": 74,
                    "time": 21.226538666666638,
                    "velocity": 0.2440944881889764,
                    "duration": 0.06030266666666506
                },
                {
                    "name": "E5",
                    "midi": 76,
                    "time": 21.286841333333303,
                    "velocity": 0.29133858267716534,
                    "duration": 0.06030266666666506
                },
                {
                    "name": "D5",
                    "midi": 74,
                    "time": 21.347143999999968,
                    "velocity": 0.25984251968503935,
                    "duration": 0.09045400000000114
                },
                {
                    "name": "C5",
                    "midi": 72,
                    "time": 21.43759799999997,
                    "velocity": 0.25984251968503935,
                    "duration": 0.09045400000000114
                },
                {
                    "name": "E5",
                    "midi": 76,
                    "time": 21.52805199999997,
                    "velocity": 0.29133858267716534,
                    "duration": 0.09045400000000114
                },
                {
                    "name": "D5",
                    "midi": 74,
                    "time": 21.61850599999997,
                    "velocity": 0.25984251968503935,
                    "duration": 0.09045400000000114
                },
                {
                    "name": "C5",
                    "midi": 72,
                    "time": 21.708959999999973,
                    "velocity": 0.2755905511811024,
                    "duration": 0.361816000000001
                },
                {
                    "name": "E5",
                    "midi": 76,
                    "time": 23.879855999999975,
                    "velocity": 0.2755905511811024,
                    "duration": 0.9045400000000008
                },
                {
                    "name": "F5",
                    "midi": 77,
                    "time": 24.784395999999976,
                    "velocity": 0.2992125984251969,
                    "duration": 0.18090799999999874
                },
                {
                    "name": "F5",
                    "midi": 77,
                    "time": 24.965303999999975,
                    "velocity": 0.30708661417322836,
                    "duration": 0.06030266666666506
                },
                {
                    "name": "G5",
                    "midi": 79,
                    "time": 25.02560666666664,
                    "velocity": 0.2677165354330709,
                    "duration": 0.06030266666666506
                },
                {
                    "name": "F5",
                    "midi": 77,
                    "time": 25.085909333333305,
                    "velocity": 0.30708661417322836,
                    "duration": 0.06030266666666506
                },
                {
                    "name": "G5",
                    "midi": 79,
                    "time": 25.14621199999997,
                    "velocity": 0.2755905511811024,
                    "duration": 0.06030266666666506
                },
                {
                    "name": "F5",
                    "midi": 77,
                    "time": 25.206514666666635,
                    "velocity": 0.30708661417322836,
                    "duration": 0.06030266666666506
                },
                {
                    "name": "G5",
                    "midi": 79,
                    "time": 25.2668173333333,
                    "velocity": 0.2755905511811024,
                    "duration": 0.06030266666666506
                },
                {
                    "name": "F5",
                    "midi": 77,
                    "time": 25.327119999999965,
                    "velocity": 0.30708661417322836,
                    "duration": 0.06030266666666506
                },
                {
                    "name": "G5",
                    "midi": 79,
                    "time": 25.38742266666663,
                    "velocity": 0.2755905511811024,
                    "duration": 0.06030266666666506
                },
                {
                    "name": "F5",
                    "midi": 77,
                    "time": 25.447725333333295,
                    "velocity": 0.30708661417322836,
                    "duration": 0.06030266666666506
                },
                {
                    "name": "G5",
                    "midi": 79,
                    "time": 25.50802799999996,
                    "velocity": 0.28346456692913385,
                    "duration": 0.06030266666666506
                },
                {
                    "name": "F5",
                    "midi": 77,
                    "time": 25.568330666666625,
                    "velocity": 0.25984251968503935,
                    "duration": 0.06030266666666506
                },
                {
                    "name": "G5",
                    "midi": 79,
                    "time": 25.62863333333329,
                    "velocity": 0.30708661417322836,
                    "duration": 0.06030266666666506
                },
                {
                    "name": "F5",
                    "midi": 77,
                    "time": 25.688935999999956,
                    "velocity": 0.25984251968503935,
                    "duration": 0.09045400000000114
                },
                {
                    "name": "E5",
                    "midi": 76,
                    "time": 25.779389999999957,
                    "velocity": 0.2677165354330709,
                    "duration": 0.09045400000000114
                },
                {
                    "name": "G5",
                    "midi": 79,
                    "time": 25.869843999999958,
                    "velocity": 0.31496062992125984,
                    "duration": 0.09045400000000114
                },
                {
                    "name": "F5",
                    "midi": 77,
                    "time": 25.96029799999996,
                    "velocity": 0.2755905511811024,
                    "duration": 0.09045400000000114
                },
                {
                    "name": "E5",
                    "midi": 76,
                    "time": 26.05075199999996,
                    "velocity": 0.2755905511811024,
                    "duration": 0.361816000000001
                },
                {
                    "name": "E5",
                    "midi": 76,
                    "time": 27.67892399999996,
                    "velocity": 0.2755905511811024,
                    "duration": 0.18090799999999874
                },
                {
                    "name": "G5",
                    "midi": 79,
                    "time": 27.67892399999996,
                    "velocity": 0.2755905511811024,
                    "duration": 0.18090799999999874
                },
                {
                    "name": "G5",
                    "midi": 79,
                    "time": 27.859831999999958,
                    "velocity": 0.2440944881889764,
                    "duration": 0.18090799999999874
                },
                {
                    "name": "E5",
                    "midi": 76,
                    "time": 27.859831999999958,
                    "velocity": 0.2440944881889764,
                    "duration": 0.18090799999999874
                },
                {
                    "name": "E5",
                    "midi": 76,
                    "time": 28.040739999999957,
                    "velocity": 0.2755905511811024,
                    "duration": 0.18090799999999874
                },
                {
                    "name": "G5",
                    "midi": 79,
                    "time": 28.040739999999957,
                    "velocity": 0.2755905511811024,
                    "duration": 0.18090799999999874
                },
                {
                    "name": "G5",
                    "midi": 79,
                    "time": 28.221647999999956,
                    "velocity": 0.2755905511811024,
                    "duration": 0.361816000000001
                },
                {
                    "name": "A#5",
                    "midi": 82,
                    "time": 28.221647999999956,
                    "velocity": 0.2755905511811024,
                    "duration": 0.361816000000001
                },
                {
                    "name": "A#5",
                    "midi": 82,
                    "time": 29.849819999999955,
                    "velocity": 0.6535433070866141,
                    "duration": 0.18090799999999874
                },
                {
                    "name": "G5",
                    "midi": 79,
                    "time": 29.849819999999955,
                    "velocity": 0.6535433070866141,
                    "duration": 0.18090799999999874
                },
                {
                    "name": "A#5",
                    "midi": 82,
                    "time": 30.030727999999954,
                    "velocity": 0.6062992125984252,
                    "duration": 0.18090799999999874
                },
                {
                    "name": "G5",
                    "midi": 79,
                    "time": 30.030727999999954,
                    "velocity": 0.6062992125984252,
                    "duration": 0.18090799999999874
                },
                {
                    "name": "G5",
                    "midi": 79,
                    "time": 30.211635999999952,
                    "velocity": 0.6535433070866141,
                    "duration": 0.18090799999999874
                },
                {
                    "name": "A#5",
                    "midi": 82,
                    "time": 30.211635999999952,
                    "velocity": 0.6535433070866141,
                    "duration": 0.18090799999999874
                },
                {
                    "name": "E6",
                    "midi": 88,
                    "time": 30.39254399999995,
                    "velocity": 0.6692913385826772,
                    "duration": 0.09045400000000114
                },
                {
                    "name": "A#5",
                    "midi": 82,
                    "time": 30.482997999999952,
                    "velocity": 0.5984251968503937,
                    "duration": 0.09045400000000114
                },
                {
                    "name": "G6",
                    "midi": 91,
                    "time": 30.573451999999953,
                    "velocity": 0.6692913385826772,
                    "duration": 0.09045400000000114
                },
                {
                    "name": "E6",
                    "midi": 88,
                    "time": 30.663905999999955,
                    "velocity": 0.5905511811023622,
                    "duration": 0.09045400000000114
                },
                {
                    "name": "A#6",
                    "midi": 94,
                    "time": 30.754359999999956,
                    "velocity": 0.6692913385826772,
                    "duration": 0.09045400000000114
                },
                {
                    "name": "G6",
                    "midi": 91,
                    "time": 30.844813999999957,
                    "velocity": 0.5984251968503937,
                    "duration": 0.09045400000000114
                },
                {
                    "name": "E6",
                    "midi": 88,
                    "time": 30.935267999999958,
                    "velocity": 0.6692913385826772,
                    "duration": 0.09045400000000114
                },
                {
                    "name": "G6",
                    "midi": 91,
                    "time": 31.02572199999996,
                    "velocity": 0.5984251968503937,
                    "duration": 0.09045400000000114
                },
                {
                    "name": "A#5",
                    "midi": 82,
                    "time": 31.11617599999996,
                    "velocity": 0.6535433070866141,
                    "duration": 0.09045400000000114
                },
                {
                    "name": "E6",
                    "midi": 88,
                    "time": 31.20662999999996,
                    "velocity": 0.5905511811023622,
                    "duration": 0.09045400000000114
                },
                {
                    "name": "G5",
                    "midi": 79,
                    "time": 31.297083999999963,
                    "velocity": 0.6535433070866141,
                    "duration": 0.09045400000000114
                },
                {
                    "name": "A#5",
                    "midi": 82,
                    "time": 31.387537999999964,
                    "velocity": 0.5826771653543307,
                    "duration": 0.09045400000000114
                },
                {
                    "name": "E5",
                    "midi": 76,
                    "time": 31.477991999999965,
                    "velocity": 0.6377952755905512,
                    "duration": 0.09045400000000114
                },
                {
                    "name": "G5",
                    "midi": 79,
                    "time": 31.568445999999966,
                    "velocity": 0.5826771653543307,
                    "duration": 0.09045400000000114
                },
                {
                    "name": "A#4",
                    "midi": 70,
                    "time": 31.658899999999967,
                    "velocity": 0.6377952755905512,
                    "duration": 0.09045400000000114
                },
                {
                    "name": "E5",
                    "midi": 76,
                    "time": 31.74935399999997,
                    "velocity": 0.5590551181102362,
                    "duration": 0.09045400000000114
                },
                {
                    "name": "G4",
                    "midi": 67,
                    "time": 31.83980799999997,
                    "velocity": 0.6299212598425197,
                    "duration": 0.09045400000000114
                },
                {
                    "name": "A#4",
                    "midi": 70,
                    "time": 31.93026199999997,
                    "velocity": 0.5748031496062992,
                    "duration": 0.09045400000000114
                },
                {
                    "name": "E4",
                    "midi": 64,
                    "time": 32.02071599999997,
                    "velocity": 0.6299212598425197,
                    "duration": 0.09045400000000114
                },
                {
                    "name": "G4",
                    "midi": 67,
                    "time": 32.11116999999997,
                    "velocity": 0.5511811023622047,
                    "duration": 0.09045400000000114
                },
                {
                    "name": "A#3",
                    "midi": 58,
                    "time": 32.201623999999974,
                    "velocity": 0.6220472440944882,
                    "duration": 0.09045400000000114
                },
                {
                    "name": "E4",
                    "midi": 64,
                    "time": 32.292077999999975,
                    "velocity": 0.5590551181102362,
                    "duration": 0.09045400000000114
                },
                {
                    "name": "C4",
                    "midi": 60,
                    "time": 36.36250799999998,
                    "velocity": 0.2755905511811024,
                    "duration": 0.4522699999999986
                },
                {
                    "name": "G#3",
                    "midi": 56,
                    "time": 36.814777999999976,
                    "velocity": 0.2440944881889764,
                    "duration": 0.09045400000000114
                },
                {
                    "name": "F3",
                    "midi": 53,
                    "time": 36.90523199999998,
                    "velocity": 0.8110236220472441,
                    "duration": 0.1809080000000023
                },
                {
                    "name": "C4",
                    "midi": 60,
                    "time": 37.08613999999998,
                    "velocity": 0.6692913385826772,
                    "duration": 0.35804708333333224
                },
                {
                    "name": "F4",
                    "midi": 65,
                    "time": 37.08613999999998,
                    "velocity": 0.7952755905511811,
                    "duration": 0.35804708333333224
                },
                {
                    "name": "G#3",
                    "midi": 56,
                    "time": 37.08613999999998,
                    "velocity": 0.5905511811023622,
                    "duration": 0.35804708333333224
                },
                {
                    "name": "F3",
                    "midi": 53,
                    "time": 37.08613999999998,
                    "velocity": 0.5905511811023622,
                    "duration": 0.35804708333333224
                },
                {
                    "name": "C4",
                    "midi": 60,
                    "time": 37.44795599999998,
                    "velocity": 0.5669291338582677,
                    "duration": 0.35804708333333224
                },
                {
                    "name": "G#3",
                    "midi": 56,
                    "time": 37.44795599999998,
                    "velocity": 0.5669291338582677,
                    "duration": 0.35804708333333224
                },
                {
                    "name": "F4",
                    "midi": 65,
                    "time": 37.44795599999998,
                    "velocity": 0.6377952755905512,
                    "duration": 0.35804708333333224
                },
                {
                    "name": "G#4",
                    "midi": 68,
                    "time": 37.44795599999998,
                    "velocity": 0.7559055118110236,
                    "duration": 0.35804708333333224
                },
                {
                    "name": "C4",
                    "midi": 60,
                    "time": 37.809771999999974,
                    "velocity": 0.5590551181102362,
                    "duration": 0.35804708333333224
                },
                {
                    "name": "C5",
                    "midi": 72,
                    "time": 37.809771999999974,
                    "velocity": 0.7559055118110236,
                    "duration": 0.35804708333333224
                },
                {
                    "name": "F4",
                    "midi": 65,
                    "time": 37.809771999999974,
                    "velocity": 0.5590551181102362,
                    "duration": 0.35804708333333224
                },
                {
                    "name": "G#4",
                    "midi": 68,
                    "time": 37.809771999999974,
                    "velocity": 0.6220472440944882,
                    "duration": 0.35804708333333224
                },
                {
                    "name": "C5",
                    "midi": 72,
                    "time": 38.17158799999997,
                    "velocity": 0.6299212598425197,
                    "duration": 0.35804708333333224
                },
                {
                    "name": "F5",
                    "midi": 77,
                    "time": 38.17158799999997,
                    "velocity": 0.7480314960629921,
                    "duration": 0.35804708333333224
                },
                {
                    "name": "F4",
                    "midi": 65,
                    "time": 38.17158799999997,
                    "velocity": 0.5669291338582677,
                    "duration": 0.35804708333333224
                },
                {
                    "name": "G#4",
                    "midi": 68,
                    "time": 38.17158799999997,
                    "velocity": 0.5669291338582677,
                    "duration": 0.35804708333333224
                },
                {
                    "name": "F5",
                    "midi": 77,
                    "time": 38.53340399999997,
                    "velocity": 0.6771653543307087,
                    "duration": 0.35804708333333224
                },
                {
                    "name": "G#4",
                    "midi": 68,
                    "time": 38.53340399999997,
                    "velocity": 0.5984251968503937,
                    "duration": 0.35804708333333224
                },
                {
                    "name": "C5",
                    "midi": 72,
                    "time": 38.53340399999997,
                    "velocity": 0.5984251968503937,
                    "duration": 0.35804708333333224
                },
                {
                    "name": "G#5",
                    "midi": 80,
                    "time": 38.53340399999997,
                    "velocity": 0.8110236220472441,
                    "duration": 0.35804708333333224
                },
                {
                    "name": "F5",
                    "midi": 77,
                    "time": 38.895219999999966,
                    "velocity": 0.6141732283464567,
                    "duration": 0.17940043333333477
                },
                {
                    "name": "C6",
                    "midi": 84,
                    "time": 38.895219999999966,
                    "velocity": 0.7401574803149606,
                    "duration": 0.17940043333333477
                },
                {
                    "name": "G#5",
                    "midi": 80,
                    "time": 38.895219999999966,
                    "velocity": 0.6141732283464567,
                    "duration": 0.17940043333333477
                },
                {
                    "name": "C5",
                    "midi": 72,
                    "time": 38.895219999999966,
                    "velocity": 0.5590551181102362,
                    "duration": 0.17940043333333477
                },
                {
                    "name": "F6",
                    "midi": 89,
                    "time": 39.07612799999997,
                    "velocity": 0.8110236220472441,
                    "duration": 1.6281719999999993
                },
                {
                    "name": "F5",
                    "midi": 77,
                    "time": 39.07612799999997,
                    "velocity": 0.5984251968503937,
                    "duration": 1.6281719999999993
                },
                {
                    "name": "C6",
                    "midi": 84,
                    "time": 39.07612799999997,
                    "velocity": 0.6771653543307087,
                    "duration": 1.6281719999999993
                },
                {
                    "name": "G#5",
                    "midi": 80,
                    "time": 39.07612799999997,
                    "velocity": 0.6771653543307087,
                    "duration": 1.6281719999999993
                },
                {
                    "name": "G#3",
                    "midi": 56,
                    "time": 40.70429999999997,
                    "velocity": 0.3228346456692913,
                    "duration": 0.4522699999999986
                },
                {
                    "name": "C4",
                    "midi": 60,
                    "time": 41.15656999999997,
                    "velocity": 0.2755905511811024,
                    "duration": 0.09045400000000114
                },
                {
                    "name": "F4",
                    "midi": 65,
                    "time": 41.24702399999997,
                    "velocity": 0.30708661417322836,
                    "duration": 0.5427239999999998
                },
                {
                    "name": "G#4",
                    "midi": 68,
                    "time": 41.78974799999997,
                    "velocity": 0.3228346456692913,
                    "duration": 0.4522699999999986
                },
                {
                    "name": "C5",
                    "midi": 72,
                    "time": 42.242017999999966,
                    "velocity": 0.28346456692913385,
                    "duration": 0.09045400000000114
                },
                {
                    "name": "F5",
                    "midi": 77,
                    "time": 42.33247199999997,
                    "velocity": 0.30708661417322836,
                    "duration": 0.5389550833333345
                },
                {
                    "name": "F4",
                    "midi": 65,
                    "time": 42.87519599999997,
                    "velocity": 0.30708661417322836,
                    "duration": 0.5427239999999998
                },
                {
                    "name": "C4",
                    "midi": 60,
                    "time": 43.41791999999997,
                    "velocity": 0.8110236220472441,
                    "duration": 0.1809080000000023
                },
                {
                    "name": "C4",
                    "midi": 60,
                    "time": 43.59882799999997,
                    "velocity": 0.6692913385826772,
                    "duration": 0.35804708333333224
                },
                {
                    "name": "E4",
                    "midi": 64,
                    "time": 43.59882799999997,
                    "velocity": 0.7952755905511811,
                    "duration": 0.35804708333333224
                },
                {
                    "name": "E4",
                    "midi": 64,
                    "time": 43.96064399999997,
                    "velocity": 0.6377952755905512,
                    "duration": 0.35804708333333224
                },
                {
                    "name": "G4",
                    "midi": 67,
                    "time": 43.96064399999997,
                    "velocity": 0.7559055118110236,
                    "duration": 0.35804708333333224
                },
                {
                    "name": "C4",
                    "midi": 60,
                    "time": 43.96064399999997,
                    "velocity": 0.5669291338582677,
                    "duration": 0.35804708333333224
                },
                {
                    "name": "C5",
                    "midi": 72,
                    "time": 44.322459999999964,
                    "velocity": 0.7559055118110236,
                    "duration": 0.35804708333333224
                },
                {
                    "name": "E4",
                    "midi": 64,
                    "time": 44.322459999999964,
                    "velocity": 0.5590551181102362,
                    "duration": 0.35804708333333224
                },
                {
                    "name": "G4",
                    "midi": 67,
                    "time": 44.322459999999964,
                    "velocity": 0.6220472440944882,
                    "duration": 0.35804708333333224
                },
                {
                    "name": "E5",
                    "midi": 76,
                    "time": 44.68427599999996,
                    "velocity": 0.7480314960629921,
                    "duration": 0.35804708333333224
                },
                {
                    "name": "G4",
                    "midi": 67,
                    "time": 44.68427599999996,
                    "velocity": 0.5669291338582677,
                    "duration": 0.35804708333333224
                },
                {
                    "name": "C5",
                    "midi": 72,
                    "time": 44.68427599999996,
                    "velocity": 0.6299212598425197,
                    "duration": 0.35804708333333224
                },
                {
                    "name": "G5",
                    "midi": 79,
                    "time": 45.04609199999996,
                    "velocity": 0.8110236220472441,
                    "duration": 0.35804708333333224
                },
                {
                    "name": "C5",
                    "midi": 72,
                    "time": 45.04609199999996,
                    "velocity": 0.5984251968503937,
                    "duration": 0.35804708333333224
                },
                {
                    "name": "E5",
                    "midi": 76,
                    "time": 45.04609199999996,
                    "velocity": 0.6771653543307087,
                    "duration": 0.35804708333333224
                },
                {
                    "name": "C6",
                    "midi": 84,
                    "time": 45.407907999999956,
                    "velocity": 0.7401574803149606,
                    "duration": 0.17940043333333477
                },
                {
                    "name": "E5",
                    "midi": 76,
                    "time": 45.407907999999956,
                    "velocity": 0.6141732283464567,
                    "duration": 0.17940043333333477
                },
                {
                    "name": "G5",
                    "midi": 79,
                    "time": 45.407907999999956,
                    "velocity": 0.6141732283464567,
                    "duration": 0.17940043333333477
                },
                {
                    "name": "C5",
                    "midi": 72,
                    "time": 45.58881599999996,
                    "velocity": 0.3228346456692913,
                    "duration": 0.9045399999999972
                },
                {
                    "name": "D5",
                    "midi": 74,
                    "time": 46.493355999999956,
                    "velocity": 0.3543307086614173,
                    "duration": 0.1809080000000023
                },
                {
                    "name": "D5",
                    "midi": 74,
                    "time": 46.67426399999996,
                    "velocity": 0.30708661417322836,
                    "duration": 0.06030266666666506
                },
                {
                    "name": "E5",
                    "midi": 76,
                    "time": 46.73456666666662,
                    "velocity": 0.2755905511811024,
                    "duration": 0.09045400000000114
                },
                {
                    "name": "D5",
                    "midi": 74,
                    "time": 46.79486933333329,
                    "velocity": 0.30708661417322836,
                    "duration": 0.06030266666667217
                },
                {
                    "name": "E5",
                    "midi": 76,
                    "time": 46.85517199999996,
                    "velocity": 0.28346456692913385,
                    "duration": 0.06030266666666506
                },
                {
                    "name": "D5",
                    "midi": 74,
                    "time": 46.915474666666626,
                    "velocity": 0.2992125984251969,
                    "duration": 0.06030266666666506
                },
                {
                    "name": "E5",
                    "midi": 76,
                    "time": 46.97577733333329,
                    "velocity": 0.28346456692913385,
                    "duration": 0.06030266666666506
                },
                {
                    "name": "D5",
                    "midi": 74,
                    "time": 47.036079999999956,
                    "velocity": 0.2992125984251969,
                    "duration": 0.06030266666666506
                },
                {
                    "name": "E5",
                    "midi": 76,
                    "time": 47.09638266666662,
                    "velocity": 0.28346456692913385,
                    "duration": 0.06030266666666506
                },
                {
                    "name": "D5",
                    "midi": 74,
                    "time": 47.156685333333286,
                    "velocity": 0.30708661417322836,
                    "duration": 0.06030266666666506
                },
                {
                    "name": "E5",
                    "midi": 76,
                    "time": 47.21698799999995,
                    "velocity": 0.29133858267716534,
                    "duration": 0.06030266666666506
                },
                {
                    "name": "D5",
                    "midi": 74,
                    "time": 47.277290666666616,
                    "velocity": 0.2755905511811024,
                    "duration": 0.06030266666666506
                },
                {
                    "name": "E5",
                    "midi": 76,
                    "time": 47.33759333333328,
                    "velocity": 0.30708661417322836,
                    "duration": 0.06030266666666506
                },
                {
                    "name": "D5",
                    "midi": 74,
                    "time": 47.397895999999946,
                    "velocity": 0.2755905511811024,
                    "duration": 0.09045400000000114
                },
                {
                    "name": "C5",
                    "midi": 72,
                    "time": 47.48834999999995,
                    "velocity": 0.28346456692913385,
                    "duration": 0.09045400000000114
                },
                {
                    "name": "E5",
                    "midi": 76,
                    "time": 47.57880399999995,
                    "velocity": 0.3228346456692913,
                    "duration": 0.09045400000000114
                },
                {
                    "name": "D5",
                    "midi": 74,
                    "time": 47.66925799999995,
                    "velocity": 0.2992125984251969,
                    "duration": 0.09045400000000114
                },
                {
                    "name": "C4",
                    "midi": 60,
                    "time": 47.75971199999995,
                    "velocity": 0.8110236220472441,
                    "duration": 0.17940043333333477
                },
                {
                    "name": "C4",
                    "midi": 60,
                    "time": 47.94061999999995,
                    "velocity": 0.6692913385826772,
                    "duration": 0.35804708333333224
                },
                {
                    "name": "E4",
                    "midi": 64,
                    "time": 47.94061999999995,
                    "velocity": 0.7952755905511811,
                    "duration": 0.35804708333333224
                },
                {
                    "name": "C4",
                    "midi": 60,
                    "time": 48.30243599999995,
                    "velocity": 0.5669291338582677,
                    "duration": 0.35804708333333224
                },
                {
                    "name": "E4",
                    "midi": 64,
                    "time": 48.30243599999995,
                    "velocity": 0.6377952755905512,
                    "duration": 0.35804708333333224
                },
                {
                    "name": "G4",
                    "midi": 67,
                    "time": 48.30243599999995,
                    "velocity": 0.7559055118110236,
                    "duration": 0.35804708333333224
                },
                {
                    "name": "E4",
                    "midi": 64,
                    "time": 48.66425199999995,
                    "velocity": 0.5590551181102362,
                    "duration": 0.35804708333333224
                },
                {
                    "name": "G4",
                    "midi": 67,
                    "time": 48.66425199999995,
                    "velocity": 0.6220472440944882,
                    "duration": 0.35804708333333224
                },
                {
                    "name": "C5",
                    "midi": 72,
                    "time": 48.66425199999995,
                    "velocity": 0.7559055118110236,
                    "duration": 0.35804708333333224
                },
                {
                    "name": "G4",
                    "midi": 67,
                    "time": 49.026067999999945,
                    "velocity": 0.5669291338582677,
                    "duration": 0.35804708333333224
                },
                {
                    "name": "C5",
                    "midi": 72,
                    "time": 49.026067999999945,
                    "velocity": 0.6299212598425197,
                    "duration": 0.35804708333333224
                },
                {
                    "name": "E5",
                    "midi": 76,
                    "time": 49.026067999999945,
                    "velocity": 0.7480314960629921,
                    "duration": 0.35804708333333224
                },
                {
                    "name": "C5",
                    "midi": 72,
                    "time": 49.38788399999994,
                    "velocity": 0.5984251968503937,
                    "duration": 0.35804708333333224
                },
                {
                    "name": "E5",
                    "midi": 76,
                    "time": 49.38788399999994,
                    "velocity": 0.6771653543307087,
                    "duration": 0.35804708333333224
                },
                {
                    "name": "G5",
                    "midi": 79,
                    "time": 49.38788399999994,
                    "velocity": 0.8110236220472441,
                    "duration": 0.35804708333333224
                },
                {
                    "name": "E5",
                    "midi": 76,
                    "time": 49.74969999999994,
                    "velocity": 0.6141732283464567,
                    "duration": 0.17940043333333477
                },
                {
                    "name": "C6",
                    "midi": 84,
                    "time": 49.74969999999994,
                    "velocity": 0.7401574803149606,
                    "duration": 0.17940043333333477
                },
                {
                    "name": "G5",
                    "midi": 79,
                    "time": 49.74969999999994,
                    "velocity": 0.6141732283464567,
                    "duration": 0.17940043333333477
                },
                {
                    "name": "C5",
                    "midi": 72,
                    "time": 49.93060799999994,
                    "velocity": 0.3779527559055118,
                    "duration": 0.9045399999999972
                },
                {
                    "name": "C#5",
                    "midi": 73,
                    "time": 50.83514799999994,
                    "velocity": 0.4094488188976378,
                    "duration": 0.13568099999999816
                },
                {
                    "name": "C5",
                    "midi": 72,
                    "time": 50.97082899999994,
                    "velocity": 0.3779527559055118,
                    "duration": 0.04522699999999702
                },
                {
                    "name": "C#5",
                    "midi": 73,
                    "time": 51.016055999999935,
                    "velocity": 0.36220472440944884,
                    "duration": 0.06030266666666506
                },
                {
                    "name": "D#5",
                    "midi": 75,
                    "time": 51.0763586666666,
                    "velocity": 0.3228346456692913,
                    "duration": 0.06030266666666506
                },
                {
                    "name": "C#5",
                    "midi": 73,
                    "time": 51.136661333333265,
                    "velocity": 0.36220472440944884,
                    "duration": 0.06030266666666506
                },
                {
                    "name": "D#5",
                    "midi": 75,
                    "time": 51.19696399999993,
                    "velocity": 0.3228346456692913,
                    "duration": 0.06030266666666506
                },
                {
                    "name": "C#5",
                    "midi": 73,
                    "time": 51.257266666666595,
                    "velocity": 0.3464566929133858,
                    "duration": 0.06030266666666506
                },
                {
                    "name": "D#5",
                    "midi": 75,
                    "time": 51.31756933333326,
                    "velocity": 0.3228346456692913,
                    "duration": 0.06030266666666506
                },
                {
                    "name": "C#5",
                    "midi": 73,
                    "time": 51.377871999999925,
                    "velocity": 0.36220472440944884,
                    "duration": 0.06030266666666506
                },
                {
                    "name": "D#5",
                    "midi": 75,
                    "time": 51.43817466666659,
                    "velocity": 0.33070866141732286,
                    "duration": 0.06030266666666506
                },
                {
                    "name": "C#5",
                    "midi": 73,
                    "time": 51.498477333333256,
                    "velocity": 0.36220472440944884,
                    "duration": 0.06030266666666506
                },
                {
                    "name": "D#5",
                    "midi": 75,
                    "time": 51.55877999999992,
                    "velocity": 0.33858267716535434,
                    "duration": 0.09045400000000114
                },
                {
                    "name": "C#5",
                    "midi": 73,
                    "time": 51.64923399999992,
                    "velocity": 0.31496062992125984,
                    "duration": 0.09045400000000114
                },
                {
                    "name": "D#5",
                    "midi": 75,
                    "time": 51.73968799999992,
                    "velocity": 0.36220472440944884,
                    "duration": 0.09045400000000114
                },
                {
                    "name": "C#5",
                    "midi": 73,
                    "time": 51.830141999999924,
                    "velocity": 0.33070866141732286,
                    "duration": 0.09045400000000114
                },
                {
                    "name": "C5",
                    "midi": 72,
                    "time": 51.920595999999925,
                    "velocity": 0.3779527559055118,
                    "duration": 0.09045400000000114
                },
                {
                    "name": "C#5",
                    "midi": 73,
                    "time": 52.011049999999926,
                    "velocity": 0.3464566929133858,
                    "duration": 0.09045400000000114
                },
                {
                    "name": "G5",
                    "midi": 79,
                    "time": 52.10150399999993,
                    "velocity": 0.4566929133858268,
                    "duration": 0.5427239999999998
                },
                {
                    "name": "A#5",
                    "midi": 82,
                    "time": 52.10150399999993,
                    "velocity": 0.4566929133858268,
                    "duration": 0.5427239999999998
                },
                {
                    "name": "B5",
                    "midi": 83,
                    "time": 54.27239999999993,
                    "velocity": 0.4409448818897638,
                    "duration": 0.5427239999999998
                },
                {
                    "name": "G#5",
                    "midi": 80,
                    "time": 54.27239999999993,
                    "velocity": 0.4409448818897638,
                    "duration": 0.5427239999999998
                },
                {
                    "name": "E6",
                    "midi": 88,
                    "time": 56.443295999999926,
                    "velocity": 0.5905511811023622,
                    "duration": 2.170895999999999
                },
                {
                    "name": "G#5",
                    "midi": 80,
                    "time": 56.443295999999926,
                    "velocity": 0.5905511811023622,
                    "duration": 2.170895999999999
                },
                {
                    "name": "B5",
                    "midi": 83,
                    "time": 56.443295999999926,
                    "velocity": 0.5905511811023622,
                    "duration": 2.170895999999999
                },
                {
                    "name": "A#5",
                    "midi": 82,
                    "time": 58.614191999999925,
                    "velocity": 0.4094488188976378,
                    "duration": 0.3618159999999975
                },
                {
                    "name": "D#6",
                    "midi": 87,
                    "time": 58.614191999999925,
                    "velocity": 0.4094488188976378,
                    "duration": 0.3618159999999975
                },
                {
                    "name": "G5",
                    "midi": 79,
                    "time": 58.614191999999925,
                    "velocity": 0.4094488188976378,
                    "duration": 0.3618159999999975
                },
                {
                    "name": "G5",
                    "midi": 79,
                    "time": 60.242363999999924,
                    "velocity": 0.4409448818897638,
                    "duration": 0.4522699999999986
                },
                {
                    "name": "A#5",
                    "midi": 82,
                    "time": 60.242363999999924,
                    "velocity": 0.4409448818897638,
                    "duration": 0.4522699999999986
                },
                {
                    "name": "A#5",
                    "midi": 82,
                    "time": 60.69463399999992,
                    "velocity": 0.4094488188976378,
                    "duration": 0.09045400000000114
                },
                {
                    "name": "G5",
                    "midi": 79,
                    "time": 60.69463399999992,
                    "velocity": 0.4094488188976378,
                    "duration": 0.09045400000000114
                },
                {
                    "name": "B5",
                    "midi": 83,
                    "time": 60.785087999999924,
                    "velocity": 0.4566929133858268,
                    "duration": 0.3618159999999975
                },
                {
                    "name": "G#5",
                    "midi": 80,
                    "time": 60.785087999999924,
                    "velocity": 0.4566929133858268,
                    "duration": 0.3618159999999975
                },
                {
                    "name": "G5",
                    "midi": 79,
                    "time": 61.14690399999992,
                    "velocity": 0.4094488188976378,
                    "duration": 0.1809080000000023
                },
                {
                    "name": "A#5",
                    "midi": 82,
                    "time": 61.14690399999992,
                    "velocity": 0.4094488188976378,
                    "duration": 0.1809080000000023
                },
                {
                    "name": "A#4",
                    "midi": 70,
                    "time": 61.68962799999992,
                    "velocity": 0.3937007874015748,
                    "duration": 0.1809080000000023
                },
                {
                    "name": "G4",
                    "midi": 67,
                    "time": 61.68962799999992,
                    "velocity": 0.3937007874015748,
                    "duration": 0.1809080000000023
                },
                {
                    "name": "A#3",
                    "midi": 58,
                    "time": 62.23235199999992,
                    "velocity": 0.3858267716535433,
                    "duration": 0.1809080000000023
                },
                {
                    "name": "G3",
                    "midi": 55,
                    "time": 62.23235199999992,
                    "velocity": 0.3858267716535433,
                    "duration": 0.1809080000000023
                },
                {
                    "name": "G5",
                    "midi": 79,
                    "time": 62.86552999999992,
                    "velocity": 0.4566929133858268,
                    "duration": 0.09045400000000114
                },
                {
                    "name": "A#5",
                    "midi": 82,
                    "time": 62.86552999999992,
                    "velocity": 0.4566929133858268,
                    "duration": 0.09045400000000114
                },
                {
                    "name": "C#6",
                    "midi": 85,
                    "time": 62.95598399999992,
                    "velocity": 0.48031496062992124,
                    "duration": 0.3618159999999975
                },
                {
                    "name": "A#5",
                    "midi": 82,
                    "time": 62.95598399999992,
                    "velocity": 0.48031496062992124,
                    "duration": 0.3618159999999975
                },
                {
                    "name": "B5",
                    "midi": 83,
                    "time": 63.31779999999992,
                    "velocity": 0.4094488188976378,
                    "duration": 0.1809080000000023
                },
                {
                    "name": "G#5",
                    "midi": 80,
                    "time": 63.31779999999992,
                    "velocity": 0.4094488188976378,
                    "duration": 0.1809080000000023
                },
                {
                    "name": "B4",
                    "midi": 71,
                    "time": 63.86052399999992,
                    "velocity": 0.3858267716535433,
                    "duration": 0.18090799999999518
                },
                {
                    "name": "G#4",
                    "midi": 68,
                    "time": 63.86052399999992,
                    "velocity": 0.3858267716535433,
                    "duration": 0.18090799999999518
                },
                {
                    "name": "B3",
                    "midi": 59,
                    "time": 64.40324799999992,
                    "velocity": 0.3700787401574803,
                    "duration": 0.17713908333332995
                },
                {
                    "name": "G#3",
                    "midi": 56,
                    "time": 64.40324799999992,
                    "velocity": 0.3700787401574803,
                    "duration": 0.17713908333332995
                },
                {
                    "name": "G#5",
                    "midi": 80,
                    "time": 65.03642599999992,
                    "velocity": 0.4094488188976378,
                    "duration": 0.09045399999999404
                },
                {
                    "name": "B5",
                    "midi": 83,
                    "time": 65.03642599999992,
                    "velocity": 0.4094488188976378,
                    "duration": 0.09045399999999404
                },
                {
                    "name": "G#5",
                    "midi": 80,
                    "time": 65.12687999999991,
                    "velocity": 0.5905511811023622,
                    "duration": 2.170895999999999
                },
                {
                    "name": "E6",
                    "midi": 88,
                    "time": 65.12687999999991,
                    "velocity": 0.5905511811023622,
                    "duration": 2.170895999999999
                },
                {
                    "name": "B5",
                    "midi": 83,
                    "time": 65.12687999999991,
                    "velocity": 0.5905511811023622,
                    "duration": 2.170895999999999
                },
                {
                    "name": "G5",
                    "midi": 79,
                    "time": 67.29777599999991,
                    "velocity": 0.48031496062992124,
                    "duration": 0.3618160000000046
                },
                {
                    "name": "D#6",
                    "midi": 87,
                    "time": 67.29777599999991,
                    "velocity": 0.48031496062992124,
                    "duration": 0.3618160000000046
                },
                {
                    "name": "A#5",
                    "midi": 82,
                    "time": 67.29777599999991,
                    "velocity": 0.48031496062992124,
                    "duration": 0.3618160000000046
                },
                {
                    "name": "D#5",
                    "midi": 75,
                    "time": 68.38322399999991,
                    "velocity": 0.4094488188976378,
                    "duration": 1.0854479999999995
                },
                {
                    "name": "F#4",
                    "midi": 66,
                    "time": 68.38322399999991,
                    "velocity": 0.4094488188976378,
                    "duration": 1.0854479999999995
                },
                {
                    "name": "A4",
                    "midi": 69,
                    "time": 68.38322399999991,
                    "velocity": 0.4094488188976378,
                    "duration": 1.0854479999999995
                },
                {
                    "name": "D5",
                    "midi": 74,
                    "time": 69.46867199999991,
                    "velocity": 0.4094488188976378,
                    "duration": 0.3618160000000046
                },
                {
                    "name": "F4",
                    "midi": 65,
                    "time": 69.46867199999991,
                    "velocity": 0.4094488188976378,
                    "duration": 0.3618160000000046
                },
                {
                    "name": "G#4",
                    "midi": 68,
                    "time": 69.46867199999991,
                    "velocity": 0.4094488188976378,
                    "duration": 0.3618160000000046
                },
                {
                    "name": "C#5",
                    "midi": 73,
                    "time": 70.55411999999991,
                    "velocity": 0.36220472440944884,
                    "duration": 0.3618160000000046
                },
                {
                    "name": "E4",
                    "midi": 64,
                    "time": 70.55411999999991,
                    "velocity": 0.36220472440944884,
                    "duration": 0.3618160000000046
                },
                {
                    "name": "G4",
                    "midi": 67,
                    "time": 70.55411999999991,
                    "velocity": 0.36220472440944884,
                    "duration": 0.3618160000000046
                },
                {
                    "name": "C#5",
                    "midi": 73,
                    "time": 71.63956799999991,
                    "velocity": 0.3228346456692913,
                    "duration": 0.5427240000000069
                },
                {
                    "name": "D#4",
                    "midi": 63,
                    "time": 71.63956799999991,
                    "velocity": 0.3228346456692913,
                    "duration": 0.5427240000000069
                },
                {
                    "name": "G4",
                    "midi": 67,
                    "time": 71.63956799999991,
                    "velocity": 0.3228346456692913,
                    "duration": 0.5427240000000069
                },
                {
                    "name": "C4",
                    "midi": 60,
                    "time": 77.60953199999992,
                    "velocity": 0.3464566929133858,
                    "duration": 0.4522699999999986
                },
                {
                    "name": "D#4",
                    "midi": 63,
                    "time": 78.06180199999991,
                    "velocity": 0.31496062992125984,
                    "duration": 0.09045399999999404
                },
                {
                    "name": "G#3",
                    "midi": 56,
                    "time": 78.15225599999991,
                    "velocity": 0.2992125984251969,
                    "duration": 0.5427240000000069
                },
                {
                    "name": "G#4",
                    "midi": 68,
                    "time": 78.15225599999991,
                    "velocity": 0.3228346456692913,
                    "duration": 0.5427240000000069
                },
                {
                    "name": "C5",
                    "midi": 72,
                    "time": 78.69497999999992,
                    "velocity": 0.3464566929133858,
                    "duration": 0.4522699999999986
                },
                {
                    "name": "C4",
                    "midi": 60,
                    "time": 78.69497999999992,
                    "velocity": 0.31496062992125984,
                    "duration": 0.4522699999999986
                },
                {
                    "name": "G#3",
                    "midi": 56,
                    "time": 79.14724999999991,
                    "velocity": 0.28346456692913385,
                    "duration": 0.09045399999999404
                },
                {
                    "name": "G#4",
                    "midi": 68,
                    "time": 79.14724999999991,
                    "velocity": 0.30708661417322836,
                    "duration": 0.09045399999999404
                },
                {
                    "name": "G4",
                    "midi": 67,
                    "time": 79.23770399999991,
                    "velocity": 0.3228346456692913,
                    "duration": 0.5427240000000069
                },
                {
                    "name": "G3",
                    "midi": 55,
                    "time": 79.23770399999991,
                    "velocity": 0.2992125984251969,
                    "duration": 0.5427240000000069
                },
                {
                    "name": "A#3",
                    "midi": 58,
                    "time": 79.78042799999992,
                    "velocity": 0.31496062992125984,
                    "duration": 0.4522699999999986
                },
                {
                    "name": "A#4",
                    "midi": 70,
                    "time": 79.78042799999992,
                    "velocity": 0.3464566929133858,
                    "duration": 0.4522699999999986
                },
                {
                    "name": "G3",
                    "midi": 55,
                    "time": 80.23269799999991,
                    "velocity": 0.28346456692913385,
                    "duration": 0.09045399999999404
                },
                {
                    "name": "G4",
                    "midi": 67,
                    "time": 80.23269799999991,
                    "velocity": 0.30708661417322836,
                    "duration": 0.09045399999999404
                },
                {
                    "name": "G#4",
                    "midi": 68,
                    "time": 80.32315199999991,
                    "velocity": 0.3228346456692913,
                    "duration": 0.5427240000000069
                },
                {
                    "name": "G#3",
                    "midi": 56,
                    "time": 80.32315199999991,
                    "velocity": 0.2992125984251969,
                    "duration": 0.5427240000000069
                },
                {
                    "name": "D#4",
                    "midi": 63,
                    "time": 80.86587599999991,
                    "velocity": 0.31496062992125984,
                    "duration": 1.0854479999999995
                },
                {
                    "name": "F4",
                    "midi": 65,
                    "time": 81.95132399999991,
                    "velocity": 0.3464566929133858,
                    "duration": 0.4522699999999986
                },
                {
                    "name": "C#4",
                    "midi": 61,
                    "time": 82.40359399999991,
                    "velocity": 0.31496062992125984,
                    "duration": 0.09045399999999404
                },
                {
                    "name": "C4",
                    "midi": 60,
                    "time": 82.4940479999999,
                    "velocity": 0.3464566929133858,
                    "duration": 0.5427240000000069
                },
                {
                    "name": "D#4",
                    "midi": 63,
                    "time": 83.03677199999991,
                    "velocity": 0.3464566929133858,
                    "duration": 0.4522699999999986
                },
                {
                    "name": "C4",
                    "midi": 60,
                    "time": 83.48904199999991,
                    "velocity": 0.30708661417322836,
                    "duration": 0.09045399999999404
                },
                {
                    "name": "A#3",
                    "midi": 58,
                    "time": 83.5794959999999,
                    "velocity": 0.3464566929133858,
                    "duration": 0.5427240000000069
                },
                {
                    "name": "D#4",
                    "midi": 63,
                    "time": 84.12221999999991,
                    "velocity": 0.3464566929133858,
                    "duration": 0.4522699999999986
                },
                {
                    "name": "C#4",
                    "midi": 61,
                    "time": 84.57448999999991,
                    "velocity": 0.30708661417322836,
                    "duration": 0.09045399999999404
                },
                {
                    "name": "C4",
                    "midi": 60,
                    "time": 84.6649439999999,
                    "velocity": 0.33070866141732286,
                    "duration": 0.5427240000000069
                },
                {
                    "name": "D#4",
                    "midi": 63,
                    "time": 85.20766799999991,
                    "velocity": 0.33070866141732286,
                    "duration": 1.0854479999999995
                },
                {
                    "name": "C5",
                    "midi": 72,
                    "time": 86.29311599999991,
                    "velocity": 0.4330708661417323,
                    "duration": 0.4522699999999986
                },
                {
                    "name": "D#5",
                    "midi": 75,
                    "time": 86.74538599999991,
                    "velocity": 0.41732283464566927,
                    "duration": 0.09045399999999404
                },
                {
                    "name": "G#5",
                    "midi": 80,
                    "time": 86.8358399999999,
                    "velocity": 0.4409448818897638,
                    "duration": 0.5427240000000069
                },
                {
                    "name": "G#4",
                    "midi": 68,
                    "time": 86.8358399999999,
                    "velocity": 0.4015748031496063,
                    "duration": 0.5427240000000069
                },
                {
                    "name": "C5",
                    "midi": 72,
                    "time": 87.37856399999991,
                    "velocity": 0.44881889763779526,
                    "duration": 0.4522699999999986
                },
                {
                    "name": "C6",
                    "midi": 84,
                    "time": 87.37856399999991,
                    "velocity": 0.4881889763779528,
                    "duration": 0.4522699999999986
                },
                {
                    "name": "G#5",
                    "midi": 80,
                    "time": 87.83083399999991,
                    "velocity": 0.4566929133858268,
                    "duration": 0.09045399999999404
                },
                {
                    "name": "G#4",
                    "midi": 68,
                    "time": 87.83083399999991,
                    "velocity": 0.41732283464566927,
                    "duration": 0.09045399999999404
                },
                {
                    "name": "G4",
                    "midi": 67,
                    "time": 87.9212879999999,
                    "velocity": 0.44881889763779526,
                    "duration": 0.5427240000000069
                },
                {
                    "name": "G5",
                    "midi": 79,
                    "time": 87.9212879999999,
                    "velocity": 0.48031496062992124,
                    "duration": 0.5427240000000069
                },
                {
                    "name": "A#4",
                    "midi": 70,
                    "time": 88.46401199999991,
                    "velocity": 0.4881889763779528,
                    "duration": 0.4522699999999986
                },
                {
                    "name": "A#5",
                    "midi": 82,
                    "time": 88.46401199999991,
                    "velocity": 0.5354330708661418,
                    "duration": 0.4522699999999986
                },
                {
                    "name": "G5",
                    "midi": 79,
                    "time": 88.91628199999991,
                    "velocity": 0.49606299212598426,
                    "duration": 0.09045399999999404
                },
                {
                    "name": "G4",
                    "midi": 67,
                    "time": 88.91628199999991,
                    "velocity": 0.4566929133858268,
                    "duration": 0.09045399999999404
                },
                {
                    "name": "G#4",
                    "midi": 68,
                    "time": 89.0067359999999,
                    "velocity": 0.4015748031496063,
                    "duration": 0.5427240000000069
                },
                {
                    "name": "G#5",
                    "midi": 80,
                    "time": 89.0067359999999,
                    "velocity": 0.44881889763779526,
                    "duration": 0.5427240000000069
                },
                {
                    "name": "D#4",
                    "midi": 63,
                    "time": 89.54945999999991,
                    "velocity": 0.3543307086614173,
                    "duration": 1.6281720000000064
                },
                {
                    "name": "D#5",
                    "midi": 75,
                    "time": 89.54945999999991,
                    "velocity": 0.4094488188976378,
                    "duration": 1.6281720000000064
                },
                {
                    "name": "E5",
                    "midi": 76,
                    "time": 91.17763199999992,
                    "velocity": 0.6692913385826772,
                    "duration": 0.5427240000000069
                },
                {
                    "name": "E4",
                    "midi": 64,
                    "time": 91.17763199999992,
                    "velocity": 0.5669291338582677,
                    "duration": 0.5427240000000069
                },
                {
                    "name": "C#4",
                    "midi": 61,
                    "time": 91.72035599999992,
                    "velocity": 0.5433070866141733,
                    "duration": 1.6281720000000064
                },
                {
                    "name": "C#5",
                    "midi": 73,
                    "time": 91.72035599999992,
                    "velocity": 0.6377952755905512,
                    "duration": 1.6281720000000064
                },
                {
                    "name": "B4",
                    "midi": 71,
                    "time": 93.34852799999993,
                    "velocity": 0.4566929133858268,
                    "duration": 1.6281720000000064
                },
                {
                    "name": "A#4",
                    "midi": 70,
                    "time": 94.97669999999994,
                    "velocity": 0.4015748031496063,
                    "duration": 0.3618160000000046
                },
                {
                    "name": "G#4",
                    "midi": 68,
                    "time": 95.33851599999994,
                    "velocity": 0.3858267716535433,
                    "duration": 0.13568100000000527
                },
                {
                    "name": "A4",
                    "midi": 69,
                    "time": 95.47419699999995,
                    "velocity": 0.2992125984251969,
                    "duration": 0.04522699999999702
                },
                {
                    "name": "A#4",
                    "midi": 70,
                    "time": 95.51942399999994,
                    "velocity": 0.3464566929133858,
                    "duration": 0.09045399999999404
                },
                {
                    "name": "B4",
                    "midi": 71,
                    "time": 95.60987799999994,
                    "velocity": 0.2992125984251969,
                    "duration": 0.09045399999999404
                },
                {
                    "name": "A#4",
                    "midi": 70,
                    "time": 95.70033199999993,
                    "velocity": 0.36220472440944884,
                    "duration": 0.09045399999999404
                },
                {
                    "name": "B4",
                    "midi": 71,
                    "time": 95.79078599999993,
                    "velocity": 0.31496062992125984,
                    "duration": 0.09045399999999404
                },
                {
                    "name": "A#4",
                    "midi": 70,
                    "time": 95.88123999999992,
                    "velocity": 0.3700787401574803,
                    "duration": 0.09045399999999404
                },
                {
                    "name": "B4",
                    "midi": 71,
                    "time": 95.97169399999991,
                    "velocity": 0.31496062992125984,
                    "duration": 0.09045399999999404
                },
                {
                    "name": "A#4",
                    "midi": 70,
                    "time": 96.06214799999991,
                    "velocity": 0.3779527559055118,
                    "duration": 0.09045399999999404
                },
                {
                    "name": "B4",
                    "midi": 71,
                    "time": 96.1526019999999,
                    "velocity": 0.3228346456692913,
                    "duration": 0.09045399999999404
                },
                {
                    "name": "A#4",
                    "midi": 70,
                    "time": 96.2430559999999,
                    "velocity": 0.3858267716535433,
                    "duration": 0.09045399999999404
                },
                {
                    "name": "B4",
                    "midi": 71,
                    "time": 96.33350999999989,
                    "velocity": 0.33070866141732286,
                    "duration": 0.09045399999999404
                },
                {
                    "name": "A#4",
                    "midi": 70,
                    "time": 96.42396399999988,
                    "velocity": 0.3937007874015748,
                    "duration": 0.09045399999999404
                },
                {
                    "name": "B4",
                    "midi": 71,
                    "time": 96.51441799999988,
                    "velocity": 0.33070866141732286,
                    "duration": 0.09045399999999404
                },
                {
                    "name": "A#4",
                    "midi": 70,
                    "time": 96.60487199999987,
                    "velocity": 0.4015748031496063,
                    "duration": 0.09045399999999404
                },
                {
                    "name": "B4",
                    "midi": 71,
                    "time": 96.69532599999987,
                    "velocity": 0.3464566929133858,
                    "duration": 0.09045399999999404
                },
                {
                    "name": "A#4",
                    "midi": 70,
                    "time": 96.78577999999986,
                    "velocity": 0.4015748031496063,
                    "duration": 0.09045399999999404
                },
                {
                    "name": "B4",
                    "midi": 71,
                    "time": 96.87623399999985,
                    "velocity": 0.3543307086614173,
                    "duration": 0.09045399999999404
                },
                {
                    "name": "A#4",
                    "midi": 70,
                    "time": 96.96668799999985,
                    "velocity": 0.4094488188976378,
                    "duration": 0.09045399999999404
                },
                {
                    "name": "B4",
                    "midi": 71,
                    "time": 97.05714199999984,
                    "velocity": 0.36220472440944884,
                    "duration": 0.09045399999999404
                },
                {
                    "name": "A#4",
                    "midi": 70,
                    "time": 97.14759599999984,
                    "velocity": 0.41732283464566927,
                    "duration": 0.09045399999999404
                },
                {
                    "name": "B4",
                    "midi": 71,
                    "time": 97.23804999999983,
                    "velocity": 0.3779527559055118,
                    "duration": 0.09045399999999404
                },
                {
                    "name": "A#4",
                    "midi": 70,
                    "time": 97.32850399999982,
                    "velocity": 0.4330708661417323,
                    "duration": 0.09045399999999404
                },
                {
                    "name": "B4",
                    "midi": 71,
                    "time": 97.41895799999982,
                    "velocity": 0.3779527559055118,
                    "duration": 0.09045399999999404
                },
                {
                    "name": "A#4",
                    "midi": 70,
                    "time": 97.50941199999981,
                    "velocity": 0.4409448818897638,
                    "duration": 0.09045399999999404
                },
                {
                    "name": "B4",
                    "midi": 71,
                    "time": 97.5998659999998,
                    "velocity": 0.3779527559055118,
                    "duration": 0.09045399999999404
                },
                {
                    "name": "E5",
                    "midi": 76,
                    "time": 97.6903199999998,
                    "velocity": 0.36220472440944884,
                    "duration": 0.09045399999999404
                },
                {
                    "name": "D#5",
                    "midi": 75,
                    "time": 97.7807739999998,
                    "velocity": 0.30708661417322836,
                    "duration": 0.09045399999999404
                },
                {
                    "name": "E5",
                    "midi": 76,
                    "time": 97.87122799999979,
                    "velocity": 0.36220472440944884,
                    "duration": 0.09045399999999404
                },
                {
                    "name": "D#5",
                    "midi": 75,
                    "time": 97.96168199999978,
                    "velocity": 0.31496062992125984,
                    "duration": 0.09045399999999404
                },
                {
                    "name": "E5",
                    "midi": 76,
                    "time": 98.05213599999978,
                    "velocity": 0.3779527559055118,
                    "duration": 0.09045399999999404
                },
                {
                    "name": "D#5",
                    "midi": 75,
                    "time": 98.14258999999977,
                    "velocity": 0.3228346456692913,
                    "duration": 0.09045399999999404
                },
                {
                    "name": "E5",
                    "midi": 76,
                    "time": 98.23304399999977,
                    "velocity": 0.3937007874015748,
                    "duration": 0.09045399999999404
                },
                {
                    "name": "D#5",
                    "midi": 75,
                    "time": 98.32349799999976,
                    "velocity": 0.3464566929133858,
                    "duration": 0.09045399999999404
                },
                {
                    "name": "E5",
                    "midi": 76,
                    "time": 98.41395199999975,
                    "velocity": 0.4015748031496063,
                    "duration": 0.09045399999999404
                },
                {
                    "name": "D#5",
                    "midi": 75,
                    "time": 98.50440599999975,
                    "velocity": 0.3543307086614173,
                    "duration": 0.09045399999999404
                },
                {
                    "name": "E5",
                    "midi": 76,
                    "time": 98.59485999999974,
                    "velocity": 0.41732283464566927,
                    "duration": 0.09045399999999404
                },
                {
                    "name": "D#5",
                    "midi": 75,
                    "time": 98.68531399999974,
                    "velocity": 0.3700787401574803,
                    "duration": 0.09045399999999404
                },
                {
                    "name": "E5",
                    "midi": 76,
                    "time": 98.77576799999973,
                    "velocity": 0.4409448818897638,
                    "duration": 0.09045399999999404
                },
                {
                    "name": "D#5",
                    "midi": 75,
                    "time": 98.86622199999972,
                    "velocity": 0.3779527559055118,
                    "duration": 0.09045399999999404
                },
                {
                    "name": "E5",
                    "midi": 76,
                    "time": 98.95667599999972,
                    "velocity": 0.4409448818897638,
                    "duration": 0.09045399999999404
                },
                {
                    "name": "D#5",
                    "midi": 75,
                    "time": 99.04712999999971,
                    "velocity": 0.3700787401574803,
                    "duration": 0.09045399999999404
                },
                {
                    "name": "E5",
                    "midi": 76,
                    "time": 99.1375839999997,
                    "velocity": 0.4409448818897638,
                    "duration": 0.09045399999999404
                },
                {
                    "name": "D#5",
                    "midi": 75,
                    "time": 99.2280379999997,
                    "velocity": 0.3779527559055118,
                    "duration": 0.09045399999999404
                },
                {
                    "name": "E5",
                    "midi": 76,
                    "time": 99.3184919999997,
                    "velocity": 0.4409448818897638,
                    "duration": 0.09045399999999404
                },
                {
                    "name": "D#5",
                    "midi": 75,
                    "time": 99.40894599999969,
                    "velocity": 0.3858267716535433,
                    "duration": 0.09045399999999404
                },
                {
                    "name": "E5",
                    "midi": 76,
                    "time": 99.49939999999968,
                    "velocity": 0.4409448818897638,
                    "duration": 0.09045399999999404
                },
                {
                    "name": "D#5",
                    "midi": 75,
                    "time": 99.58985399999968,
                    "velocity": 0.3858267716535433,
                    "duration": 0.09045399999999404
                },
                {
                    "name": "D5",
                    "midi": 74,
                    "time": 99.68030799999967,
                    "velocity": 0.4409448818897638,
                    "duration": 0.09045399999999404
                },
                {
                    "name": "D#5",
                    "midi": 75,
                    "time": 99.77076199999966,
                    "velocity": 0.3779527559055118,
                    "duration": 0.09045399999999404
                },
                {
                    "name": "E6",
                    "midi": 88,
                    "time": 99.86121599999966,
                    "velocity": 0.4330708661417323,
                    "duration": 0.09045399999999404
                },
                {
                    "name": "D#6",
                    "midi": 87,
                    "time": 99.95166999999965,
                    "velocity": 0.36220472440944884,
                    "duration": 0.09045399999999404
                },
                {
                    "name": "E6",
                    "midi": 88,
                    "time": 100.04212399999965,
                    "velocity": 0.4330708661417323,
                    "duration": 0.09045399999999404
                },
                {
                    "name": "D#6",
                    "midi": 87,
                    "time": 100.13257799999964,
                    "velocity": 0.3779527559055118,
                    "duration": 0.09045399999999404
                },
                {
                    "name": "E6",
                    "midi": 88,
                    "time": 100.22303199999963,
                    "velocity": 0.44881889763779526,
                    "duration": 0.09045399999999404
                },
                {
                    "name": "D#6",
                    "midi": 87,
                    "time": 100.31348599999963,
                    "velocity": 0.3937007874015748,
                    "duration": 0.09045399999999404
                },
                {
                    "name": "E6",
                    "midi": 88,
                    "time": 100.40393999999962,
                    "velocity": 0.47244094488188976,
                    "duration": 0.09045399999999404
                },
                {
                    "name": "D#6",
                    "midi": 87,
                    "time": 100.49439399999962,
                    "velocity": 0.4015748031496063,
                    "duration": 0.09045399999999404
                },
                {
                    "name": "E6",
                    "midi": 88,
                    "time": 100.58484799999961,
                    "velocity": 0.4881889763779528,
                    "duration": 0.09045399999999404
                },
                {
                    "name": "D#6",
                    "midi": 87,
                    "time": 100.6753019999996,
                    "velocity": 0.4094488188976378,
                    "duration": 0.09045399999999404
                },
                {
                    "name": "E6",
                    "midi": 88,
                    "time": 100.7657559999996,
                    "velocity": 0.49606299212598426,
                    "duration": 0.09045399999999404
                },
                {
                    "name": "D#6",
                    "midi": 87,
                    "time": 100.85620999999959,
                    "velocity": 0.4330708661417323,
                    "duration": 0.09045399999999404
                },
                {
                    "name": "E6",
                    "midi": 88,
                    "time": 100.94666399999959,
                    "velocity": 0.5275590551181102,
                    "duration": 0.09045399999999404
                },
                {
                    "name": "D#6",
                    "midi": 87,
                    "time": 101.03711799999958,
                    "velocity": 0.4409448818897638,
                    "duration": 0.09045399999999404
                },
                {
                    "name": "E6",
                    "midi": 88,
                    "time": 101.12757199999957,
                    "velocity": 0.5354330708661418,
                    "duration": 0.09045399999999404
                },
                {
                    "name": "D#6",
                    "midi": 87,
                    "time": 101.21802599999957,
                    "velocity": 0.44881889763779526,
                    "duration": 0.09045399999999404
                },
                {
                    "name": "E6",
                    "midi": 88,
                    "time": 101.30847999999956,
                    "velocity": 0.5275590551181102,
                    "duration": 0.09045399999999404
                },
                {
                    "name": "D#6",
                    "midi": 87,
                    "time": 101.39893399999956,
                    "velocity": 0.4409448818897638,
                    "duration": 0.09045399999999404
                },
                {
                    "name": "E6",
                    "midi": 88,
                    "time": 101.48938799999955,
                    "velocity": 0.5275590551181102,
                    "duration": 0.09045399999999404
                },
                {
                    "name": "D#6",
                    "midi": 87,
                    "time": 101.57984199999954,
                    "velocity": 0.4566929133858268,
                    "duration": 0.09045399999999404
                },
                {
                    "name": "E6",
                    "midi": 88,
                    "time": 101.67029599999954,
                    "velocity": 0.5275590551181102,
                    "duration": 0.09045399999999404
                },
                {
                    "name": "D#6",
                    "midi": 87,
                    "time": 101.76074999999953,
                    "velocity": 0.4566929133858268,
                    "duration": 0.09045399999999404
                },
                {
                    "name": "D6",
                    "midi": 86,
                    "time": 101.85120399999953,
                    "velocity": 0.5275590551181102,
                    "duration": 0.09045399999999404
                },
                {
                    "name": "D#6",
                    "midi": 87,
                    "time": 101.94165799999952,
                    "velocity": 0.4409448818897638,
                    "duration": 0.09045399999999404
                },
                {
                    "name": "E6",
                    "midi": 88,
                    "time": 102.03211199999951,
                    "velocity": 0.5039370078740157,
                    "duration": 0.1809080000000023
                },
                {
                    "name": "D#6",
                    "midi": 87,
                    "time": 102.21301999999952,
                    "velocity": 0.4330708661417323,
                    "duration": 0.1809080000000023
                },
                {
                    "name": "C#6",
                    "midi": 85,
                    "time": 102.39392799999952,
                    "velocity": 0.3779527559055118,
                    "duration": 0.1809080000000023
                },
                {
                    "name": "B5",
                    "midi": 83,
                    "time": 102.57483599999952,
                    "velocity": 0.3858267716535433,
                    "duration": 0.1809080000000023
                },
                {
                    "name": "A#5",
                    "midi": 82,
                    "time": 102.75574399999952,
                    "velocity": 0.3779527559055118,
                    "duration": 0.1809080000000023
                },
                {
                    "name": "G#5",
                    "midi": 80,
                    "time": 102.93665199999953,
                    "velocity": 0.3779527559055118,
                    "duration": 0.1809080000000023
                },
                {
                    "name": "G5",
                    "midi": 79,
                    "time": 103.11755999999953,
                    "velocity": 0.3858267716535433,
                    "duration": 0.1809080000000023
                },
                {
                    "name": "F#5",
                    "midi": 78,
                    "time": 103.29846799999953,
                    "velocity": 0.3700787401574803,
                    "duration": 0.1809080000000023
                },
                {
                    "name": "E5",
                    "midi": 76,
                    "time": 103.47937599999953,
                    "velocity": 0.3700787401574803,
                    "duration": 0.1809080000000023
                },
                {
                    "name": "D#5",
                    "midi": 75,
                    "time": 103.66028399999954,
                    "velocity": 0.3779527559055118,
                    "duration": 0.1809080000000023
                },
                {
                    "name": "C#5",
                    "midi": 73,
                    "time": 103.84119199999954,
                    "velocity": 0.3779527559055118,
                    "duration": 0.1809080000000023
                },
                {
                    "name": "B4",
                    "midi": 71,
                    "time": 104.02209999999954,
                    "velocity": 0.3543307086614173,
                    "duration": 0.1809080000000023
                },
                {
                    "name": "A#4",
                    "midi": 70,
                    "time": 104.20300799999954,
                    "velocity": 0.3779527559055118,
                    "duration": 0.1809080000000023
                },
                {
                    "name": "G#4",
                    "midi": 68,
                    "time": 104.38391599999954,
                    "velocity": 0.3464566929133858,
                    "duration": 0.1809080000000023
                },
                {
                    "name": "G4",
                    "midi": 67,
                    "time": 104.56482399999955,
                    "velocity": 0.3464566929133858,
                    "duration": 0.1809080000000023
                },
                {
                    "name": "F#4",
                    "midi": 66,
                    "time": 104.74573199999955,
                    "velocity": 0.3543307086614173,
                    "duration": 0.1809080000000023
                },
                {
                    "name": "E4",
                    "midi": 64,
                    "time": 104.92663999999955,
                    "velocity": 0.3543307086614173,
                    "duration": 0.1809080000000023
                },
                {
                    "name": "D#4",
                    "midi": 63,
                    "time": 105.10754799999955,
                    "velocity": 0.3543307086614173,
                    "duration": 0.1809080000000023
                },
                {
                    "name": "C#4",
                    "midi": 61,
                    "time": 105.28845599999956,
                    "velocity": 0.3543307086614173,
                    "duration": 0.1809080000000023
                },
                {
                    "name": "G#3",
                    "midi": 56,
                    "time": 110.71569599999955,
                    "velocity": 0.6535433070866141,
                    "duration": 0.09045399999999404
                },
                {
                    "name": "D#3",
                    "midi": 51,
                    "time": 110.80614999999955,
                    "velocity": 0.5196850393700787,
                    "duration": 0.09045399999999404
                },
                {
                    "name": "B2",
                    "midi": 47,
                    "time": 110.89660399999954,
                    "velocity": 0.5196850393700787,
                    "duration": 0.09045399999999404
                },
                {
                    "name": "D#3",
                    "midi": 51,
                    "time": 110.98705799999954,
                    "velocity": 0.5196850393700787,
                    "duration": 0.09045399999999404
                },
                {
                    "name": "G#3",
                    "midi": 56,
                    "time": 111.07751199999953,
                    "velocity": 0.6299212598425197,
                    "duration": 0.09045399999999404
                },
                {
                    "name": "D#3",
                    "midi": 51,
                    "time": 111.16796599999952,
                    "velocity": 0.5039370078740157,
                    "duration": 0.09045399999999404
                },
                {
                    "name": "B3",
                    "midi": 59,
                    "time": 111.25841999999952,
                    "velocity": 0.6614173228346457,
                    "duration": 0.09045399999999404
                },
                {
                    "name": "D#3",
                    "midi": 51,
                    "time": 111.34887399999951,
                    "velocity": 0.5196850393700787,
                    "duration": 0.09045399999999404
                },
                {
                    "name": "A#3",
                    "midi": 58,
                    "time": 111.4393279999995,
                    "velocity": 0.6535433070866141,
                    "duration": 0.09045399999999404
                },
                {
                    "name": "D#3",
                    "midi": 51,
                    "time": 111.5297819999995,
                    "velocity": 0.5196850393700787,
                    "duration": 0.09045399999999404
                },
                {
                    "name": "G#3",
                    "midi": 56,
                    "time": 111.6202359999995,
                    "velocity": 0.6377952755905512,
                    "duration": 0.09045399999999404
                },
                {
                    "name": "D#3",
                    "midi": 51,
                    "time": 111.71068999999949,
                    "velocity": 0.5196850393700787,
                    "duration": 0.09045399999999404
                },
                {
                    "name": "G#3",
                    "midi": 56,
                    "time": 111.80114399999948,
                    "velocity": 0.6535433070866141,
                    "duration": 0.09045399999999404
                },
                {
                    "name": "D#3",
                    "midi": 51,
                    "time": 111.89159799999948,
                    "velocity": 0.49606299212598426,
                    "duration": 0.09045399999999404
                },
                {
                    "name": "B2",
                    "midi": 47,
                    "time": 111.98205199999947,
                    "velocity": 0.49606299212598426,
                    "duration": 0.09045399999999404
                },
                {
                    "name": "D#3",
                    "midi": 51,
                    "time": 112.07250599999946,
                    "velocity": 0.49606299212598426,
                    "duration": 0.09045399999999404
                },
                {
                    "name": "G#3",
                    "midi": 56,
                    "time": 112.16295999999946,
                    "velocity": 0.6220472440944882,
                    "duration": 0.09045399999999404
                },
                {
                    "name": "D#3",
                    "midi": 51,
                    "time": 112.25341399999945,
                    "velocity": 0.4881889763779528,
                    "duration": 0.09045399999999404
                },
                {
                    "name": "B3",
                    "midi": 59,
                    "time": 112.34386799999945,
                    "velocity": 0.6535433070866141,
                    "duration": 0.09045399999999404
                },
                {
                    "name": "D#3",
                    "midi": 51,
                    "time": 112.43432199999944,
                    "velocity": 0.49606299212598426,
                    "duration": 0.09045399999999404
                },
                {
                    "name": "A#3",
                    "midi": 58,
                    "time": 112.52477599999943,
                    "velocity": 0.6299212598425197,
                    "duration": 0.09045399999999404
                },
                {
                    "name": "D#3",
                    "midi": 51,
                    "time": 112.61522999999943,
                    "velocity": 0.5196850393700787,
                    "duration": 0.09045399999999404
                },
                {
                    "name": "G#3",
                    "midi": 56,
                    "time": 112.70568399999942,
                    "velocity": 0.6299212598425197,
                    "duration": 0.09045399999999404
                },
                {
                    "name": "D#3",
                    "midi": 51,
                    "time": 112.79613799999942,
                    "velocity": 0.5039370078740157,
                    "duration": 0.09045399999999404
                },
                {
                    "name": "E4",
                    "midi": 64,
                    "time": 112.88659199999941,
                    "velocity": 0.6535433070866141,
                    "duration": 0.09045399999999404
                },
                {
                    "name": "B3",
                    "midi": 59,
                    "time": 112.9770459999994,
                    "velocity": 0.5196850393700787,
                    "duration": 0.09045399999999404
                },
                {
                    "name": "G#3",
                    "midi": 56,
                    "time": 113.0674999999994,
                    "velocity": 0.5196850393700787,
                    "duration": 0.09045399999999404
                },
                {
                    "name": "B3",
                    "midi": 59,
                    "time": 113.15795399999939,
                    "velocity": 0.5196850393700787,
                    "duration": 0.09045399999999404
                },
                {
                    "name": "E4",
                    "midi": 64,
                    "time": 113.24840799999939,
                    "velocity": 0.6299212598425197,
                    "duration": 0.09045399999999404
                },
                {
                    "name": "B3",
                    "midi": 59,
                    "time": 113.33886199999938,
                    "velocity": 0.5039370078740157,
                    "duration": 0.09045399999999404
                },
                {
                    "name": "G#4",
                    "midi": 68,
                    "time": 113.42931599999937,
                    "velocity": 0.6614173228346457,
                    "duration": 0.09045399999999404
                },
                {
                    "name": "B3",
                    "midi": 59,
                    "time": 113.51976999999937,
                    "velocity": 0.5196850393700787,
                    "duration": 0.09045399999999404
                },
                {
                    "name": "F#4",
                    "midi": 66,
                    "time": 113.61022399999936,
                    "velocity": 0.6535433070866141,
                    "duration": 0.09045399999999404
                },
                {
                    "name": "B3",
                    "midi": 59,
                    "time": 113.70067799999936,
                    "velocity": 0.5196850393700787,
                    "duration": 0.09045399999999404
                },
                {
                    "name": "E4",
                    "midi": 64,
                    "time": 113.79113199999935,
                    "velocity": 0.6377952755905512,
                    "duration": 0.09045399999999404
                },
                {
                    "name": "B3",
                    "midi": 59,
                    "time": 113.88158599999934,
                    "velocity": 0.5196850393700787,
                    "duration": 0.09045399999999404
                },
                {
                    "name": "E4",
                    "midi": 64,
                    "time": 113.97203999999934,
                    "velocity": 0.6535433070866141,
                    "duration": 0.09045399999999404
                },
                {
                    "name": "B3",
                    "midi": 59,
                    "time": 114.06249399999933,
                    "velocity": 0.49606299212598426,
                    "duration": 0.09045399999999404
                },
                {
                    "name": "G#3",
                    "midi": 56,
                    "time": 114.15294799999933,
                    "velocity": 0.49606299212598426,
                    "duration": 0.09045399999999404
                },
                {
                    "name": "B3",
                    "midi": 59,
                    "time": 114.24340199999932,
                    "velocity": 0.49606299212598426,
                    "duration": 0.09045399999999404
                },
                {
                    "name": "E4",
                    "midi": 64,
                    "time": 114.33385599999932,
                    "velocity": 0.6299212598425197,
                    "duration": 0.09045399999999404
                },
                {
                    "name": "B3",
                    "midi": 59,
                    "time": 114.42430999999931,
                    "velocity": 0.4881889763779528,
                    "duration": 0.09045399999999404
                },
                {
                    "name": "G#4",
                    "midi": 68,
                    "time": 114.5147639999993,
                    "velocity": 0.6535433070866141,
                    "duration": 0.09045399999999404
                },
                {
                    "name": "B3",
                    "midi": 59,
                    "time": 114.6052179999993,
                    "velocity": 0.49606299212598426,
                    "duration": 0.09045399999999404
                },
                {
                    "name": "F#4",
                    "midi": 66,
                    "time": 114.69567199999929,
                    "velocity": 0.6299212598425197,
                    "duration": 0.09045399999999404
                },
                {
                    "name": "B3",
                    "midi": 59,
                    "time": 114.78612599999929,
                    "velocity": 0.5196850393700787,
                    "duration": 0.09045399999999404
                },
                {
                    "name": "E4",
                    "midi": 64,
                    "time": 114.87657999999928,
                    "velocity": 0.6299212598425197,
                    "duration": 0.09045399999999404
                },
                {
                    "name": "B3",
                    "midi": 59,
                    "time": 114.96703399999927,
                    "velocity": 0.5039370078740157,
                    "duration": 0.09045399999999404
                },
                {
                    "name": "C#5",
                    "midi": 73,
                    "time": 115.05748799999927,
                    "velocity": 0.7244094488188977,
                    "duration": 0.09045399999999404
                },
                {
                    "name": "E5",
                    "midi": 76,
                    "time": 115.14794199999926,
                    "velocity": 0.5275590551181102,
                    "duration": 0.09045399999999404
                },
                {
                    "name": "C#5",
                    "midi": 73,
                    "time": 115.23839599999926,
                    "velocity": 0.6062992125984252,
                    "duration": 0.09045399999999404
                },
                {
                    "name": "E5",
                    "midi": 76,
                    "time": 115.32884999999925,
                    "velocity": 0.5275590551181102,
                    "duration": 0.09045399999999404
                },
                {
                    "name": "C#5",
                    "midi": 73,
                    "time": 115.41930399999924,
                    "velocity": 0.5826771653543307,
                    "duration": 0.09045399999999404
                },
                {
                    "name": "E5",
                    "midi": 76,
                    "time": 115.50975799999924,
                    "velocity": 0.5275590551181102,
                    "duration": 0.09045399999999404
                },
                {
                    "name": "C#5",
                    "midi": 73,
                    "time": 115.60021199999923,
                    "velocity": 0.5748031496062992,
                    "duration": 0.09045399999999404
                },
                {
                    "name": "E5",
                    "midi": 76,
                    "time": 115.69066599999923,
                    "velocity": 0.5275590551181102,
                    "duration": 0.09045399999999404
                },
                {
                    "name": "C#5",
                    "midi": 73,
                    "time": 115.78111999999922,
                    "velocity": 0.5748031496062992,
                    "duration": 0.09045399999999404
                },
                {
                    "name": "E5",
                    "midi": 76,
                    "time": 115.87157399999921,
                    "velocity": 0.5275590551181102,
                    "duration": 0.09045399999999404
                },
                {
                    "name": "C#5",
                    "midi": 73,
                    "time": 115.96202799999921,
                    "velocity": 0.5748031496062992,
                    "duration": 0.09045399999999404
                },
                {
                    "name": "E5",
                    "midi": 76,
                    "time": 116.0524819999992,
                    "velocity": 0.5275590551181102,
                    "duration": 0.09045399999999404
                },
                {
                    "name": "C#5",
                    "midi": 73,
                    "time": 116.1429359999992,
                    "velocity": 0.5748031496062992,
                    "duration": 0.09045399999999404
                },
                {
                    "name": "E5",
                    "midi": 76,
                    "time": 116.23338999999919,
                    "velocity": 0.5275590551181102,
                    "duration": 0.09045399999999404
                },
                {
                    "name": "C#5",
                    "midi": 73,
                    "time": 116.32384399999918,
                    "velocity": 0.5748031496062992,
                    "duration": 0.09045399999999404
                },
                {
                    "name": "E5",
                    "midi": 76,
                    "time": 116.41429799999918,
                    "velocity": 0.5275590551181102,
                    "duration": 0.09045399999999404
                },
                {
                    "name": "C#5",
                    "midi": 73,
                    "time": 116.50475199999917,
                    "velocity": 0.5669291338582677,
                    "duration": 0.09045399999999404
                },
                {
                    "name": "E5",
                    "midi": 76,
                    "time": 116.59520599999917,
                    "velocity": 0.5275590551181102,
                    "duration": 0.09045399999999404
                },
                {
                    "name": "C#5",
                    "midi": 73,
                    "time": 116.68565999999916,
                    "velocity": 0.7480314960629921,
                    "duration": 0.09045399999999404
                },
                {
                    "name": "E5",
                    "midi": 76,
                    "time": 116.77611399999915,
                    "velocity": 0.6141732283464567,
                    "duration": 0.09045399999999404
                },
                {
                    "name": "A#4",
                    "midi": 70,
                    "time": 116.86656799999915,
                    "velocity": 0.7007874015748031,
                    "duration": 0.09045399999999404
                },
                {
                    "name": "C#5",
                    "midi": 73,
                    "time": 116.95702199999914,
                    "velocity": 0.6141732283464567,
                    "duration": 0.09045399999999404
                },
                {
                    "name": "G4",
                    "midi": 67,
                    "time": 117.04747599999914,
                    "velocity": 0.6614173228346457,
                    "duration": 0.09045399999999404
                },
                {
                    "name": "A#4",
                    "midi": 70,
                    "time": 117.13792999999913,
                    "velocity": 0.6062992125984252,
                    "duration": 0.09045399999999404
                },
                {
                    "name": "E4",
                    "midi": 64,
                    "time": 117.22838399999912,
                    "velocity": 0.6456692913385826,
                    "duration": 0.09045399999999404
                },
                {
                    "name": "G4",
                    "midi": 67,
                    "time": 117.31883799999912,
                    "velocity": 0.5511811023622047,
                    "duration": 0.09045399999999404
                },
                {
                    "name": "C#4",
                    "midi": 61,
                    "time": 117.40929199999911,
                    "velocity": 0.6377952755905512,
                    "duration": 0.09045399999999404
                },
                {
                    "name": "E4",
                    "midi": 64,
                    "time": 117.4997459999991,
                    "velocity": 0.5590551181102362,
                    "duration": 0.09045399999999404
                },
                {
                    "name": "A#3",
                    "midi": 58,
                    "time": 117.5901999999991,
                    "velocity": 0.6456692913385826,
                    "duration": 0.09045399999999404
                },
                {
                    "name": "C#4",
                    "midi": 61,
                    "time": 117.6806539999991,
                    "velocity": 0.5354330708661418,
                    "duration": 0.09045399999999404
                },
                {
                    "name": "G#3",
                    "midi": 56,
                    "time": 117.77110799999909,
                    "velocity": 0.6377952755905512,
                    "duration": 0.09045399999999404
                },
                {
                    "name": "A#3",
                    "midi": 58,
                    "time": 117.86156199999908,
                    "velocity": 0.5511811023622047,
                    "duration": 0.09045399999999404
                },
                {
                    "name": "C#4",
                    "midi": 61,
                    "time": 117.95201599999908,
                    "velocity": 0.6299212598425197,
                    "duration": 0.09045399999999404
                },
                {
                    "name": "A#3",
                    "midi": 58,
                    "time": 118.04246999999907,
                    "velocity": 0.5511811023622047,
                    "duration": 0.09045399999999404
                },
                {
                    "name": "G#3",
                    "midi": 56,
                    "time": 118.13292399999906,
                    "velocity": 0.6299212598425197,
                    "duration": 0.09045399999999404
                },
                {
                    "name": "A#3",
                    "midi": 58,
                    "time": 118.22337799999906,
                    "velocity": 0.5433070866141733,
                    "duration": 0.09045399999999404
                },
                {
                    "name": "G#3",
                    "midi": 56,
                    "time": 118.40428599999905,
                    "velocity": 0.5511811023622047,
                    "duration": 0.09045399999999404
                },
                {
                    "name": "C#4",
                    "midi": 61,
                    "time": 118.49473999999904,
                    "velocity": 0.6299212598425197,
                    "duration": 0.09045399999999404
                },
                {
                    "name": "A#3",
                    "midi": 58,
                    "time": 118.58519399999903,
                    "velocity": 0.5433070866141733,
                    "duration": 0.09045399999999404
                },
                {
                    "name": "G#3",
                    "midi": 56,
                    "time": 118.67564799999903,
                    "velocity": 0.6062992125984252,
                    "duration": 0.09045399999999404
                },
                {
                    "name": "C#4",
                    "midi": 61,
                    "time": 118.76610199999902,
                    "velocity": 0.5511811023622047,
                    "duration": 0.09045399999999404
                },
                {
                    "name": "G3",
                    "midi": 55,
                    "time": 118.94700999999901,
                    "velocity": 0.5433070866141733,
                    "duration": 0.09045399999999404
                },
                {
                    "name": "C#4",
                    "midi": 61,
                    "time": 119.037463999999,
                    "velocity": 0.6299212598425197,
                    "duration": 0.09045399999999404
                },
                {
                    "name": "A#3",
                    "midi": 58,
                    "time": 119.127917999999,
                    "velocity": 0.5433070866141733,
                    "duration": 0.09045399999999404
                },
                {
                    "name": "G3",
                    "midi": 55,
                    "time": 119.218371999999,
                    "velocity": 0.6141732283464567,
                    "duration": 0.09045399999999404
                },
                {
                    "name": "C#4",
                    "midi": 61,
                    "time": 119.30882599999899,
                    "velocity": 0.5433070866141733,
                    "duration": 0.09045399999999404
                },
                {
                    "name": "G#4",
                    "midi": 68,
                    "time": 119.39927999999898,
                    "velocity": 0.6535433070866141,
                    "duration": 0.09045399999999404
                },
                {
                    "name": "D#4",
                    "midi": 63,
                    "time": 119.48973399999898,
                    "velocity": 0.5196850393700787,
                    "duration": 0.09045399999999404
                },
                {
                    "name": "B3",
                    "midi": 59,
                    "time": 119.58018799999897,
                    "velocity": 0.5196850393700787,
                    "duration": 0.09045399999999404
                },
                {
                    "name": "D#4",
                    "midi": 63,
                    "time": 119.67064199999896,
                    "velocity": 0.5196850393700787,
                    "duration": 0.09045399999999404
                },
                {
                    "name": "G#4",
                    "midi": 68,
                    "time": 119.76109599999896,
                    "velocity": 0.6299212598425197,
                    "duration": 0.09045399999999404
                },
                {
                    "name": "D#4",
                    "midi": 63,
                    "time": 119.85154999999895,
                    "velocity": 0.5039370078740157,
                    "duration": 0.09045399999999404
                },
                {
                    "name": "B4",
                    "midi": 71,
                    "time": 119.94200399999895,
                    "velocity": 0.6614173228346457,
                    "duration": 0.09045399999999404
                },
                {
                    "name": "D#4",
                    "midi": 63,
                    "time": 120.03245799999894,
                    "velocity": 0.5196850393700787,
                    "duration": 0.09045399999999404
                },
                {
                    "name": "A#4",
                    "midi": 70,
                    "time": 120.12291199999893,
                    "velocity": 0.6535433070866141,
                    "duration": 0.09045399999999404
                },
                {
                    "name": "D#4",
                    "midi": 63,
                    "time": 120.21336599999893,
                    "velocity": 0.5196850393700787,
                    "duration": 0.09045399999999404
                },
                {
                    "name": "G#4",
                    "midi": 68,
                    "time": 120.30381999999892,
                    "velocity": 0.6377952755905512,
                    "duration": 0.09045399999999404
                },
                {
                    "name": "D#4",
                    "midi": 63,
                    "time": 120.39427399999892,
                    "velocity": 0.5196850393700787,
                    "duration": 0.09045399999999404
                },
                {
                    "name": "G#4",
                    "midi": 68,
                    "time": 120.48472799999891,
                    "velocity": 0.6535433070866141,
                    "duration": 0.09045399999999404
                },
                {
                    "name": "D#4",
                    "midi": 63,
                    "time": 120.5751819999989,
                    "velocity": 0.49606299212598426,
                    "duration": 0.09045399999999404
                },
                {
                    "name": "B3",
                    "midi": 59,
                    "time": 120.6656359999989,
                    "velocity": 0.49606299212598426,
                    "duration": 0.09045399999999404
                },
                {
                    "name": "D#4",
                    "midi": 63,
                    "time": 120.75608999999889,
                    "velocity": 0.49606299212598426,
                    "duration": 0.09045399999999404
                },
                {
                    "name": "G#4",
                    "midi": 68,
                    "time": 120.84654399999889,
                    "velocity": 0.6299212598425197,
                    "duration": 0.09045399999999404
                },
                {
                    "name": "D#4",
                    "midi": 63,
                    "time": 120.93699799999888,
                    "velocity": 0.4881889763779528,
                    "duration": 0.09045399999999404
                },
                {
                    "name": "B4",
                    "midi": 71,
                    "time": 121.02745199999887,
                    "velocity": 0.6535433070866141,
                    "duration": 0.09045399999999404
                },
                {
                    "name": "D#4",
                    "midi": 63,
                    "time": 121.11790599999887,
                    "velocity": 0.49606299212598426,
                    "duration": 0.09045399999999404
                },
                {
                    "name": "A#4",
                    "midi": 70,
                    "time": 121.20835999999886,
                    "velocity": 0.6299212598425197,
                    "duration": 0.09045399999999404
                },
                {
                    "name": "D#4",
                    "midi": 63,
                    "time": 121.29881399999886,
                    "velocity": 0.5196850393700787,
                    "duration": 0.09045399999999404
                },
                {
                    "name": "G#4",
                    "midi": 68,
                    "time": 121.38926799999885,
                    "velocity": 0.6299212598425197,
                    "duration": 0.09045399999999404
                },
                {
                    "name": "D#4",
                    "midi": 63,
                    "time": 121.47972199999884,
                    "velocity": 0.5039370078740157,
                    "duration": 0.09045399999999404
                },
                {
                    "name": "E5",
                    "midi": 76,
                    "time": 121.57017599999884,
                    "velocity": 0.6535433070866141,
                    "duration": 0.09045399999999404
                },
                {
                    "name": "B4",
                    "midi": 71,
                    "time": 121.66062999999883,
                    "velocity": 0.5196850393700787,
                    "duration": 0.09045399999999404
                },
                {
                    "name": "G#4",
                    "midi": 68,
                    "time": 121.75108399999883,
                    "velocity": 0.5196850393700787,
                    "duration": 0.09045399999999404
                },
                {
                    "name": "B4",
                    "midi": 71,
                    "time": 121.84153799999882,
                    "velocity": 0.5196850393700787,
                    "duration": 0.09045399999999404
                },
                {
                    "name": "E5",
                    "midi": 76,
                    "time": 121.93199199999881,
                    "velocity": 0.6299212598425197,
                    "duration": 0.09045399999999404
                },
                {
                    "name": "B4",
                    "midi": 71,
                    "time": 122.02244599999881,
                    "velocity": 0.5039370078740157,
                    "duration": 0.09045399999999404
                },
                {
                    "name": "G#5",
                    "midi": 80,
                    "time": 122.1128999999988,
                    "velocity": 0.6614173228346457,
                    "duration": 0.09045399999999404
                },
                {
                    "name": "B4",
                    "midi": 71,
                    "time": 122.2033539999988,
                    "velocity": 0.5196850393700787,
                    "duration": 0.09045399999999404
                },
                {
                    "name": "F#5",
                    "midi": 78,
                    "time": 122.29380799999879,
                    "velocity": 0.6535433070866141,
                    "duration": 0.09045399999999404
                },
                {
                    "name": "B4",
                    "midi": 71,
                    "time": 122.38426199999878,
                    "velocity": 0.5196850393700787,
                    "duration": 0.09045399999999404
                },
                {
                    "name": "E5",
                    "midi": 76,
                    "time": 122.47471599999878,
                    "velocity": 0.6377952755905512,
                    "duration": 0.09045399999999404
                },
                {
                    "name": "B4",
                    "midi": 71,
                    "time": 122.56516999999877,
                    "velocity": 0.5196850393700787,
                    "duration": 0.09045399999999404
                },
                {
                    "name": "E5",
                    "midi": 76,
                    "time": 122.65562399999877,
                    "velocity": 0.6535433070866141,
                    "duration": 0.09045399999999404
                },
                {
                    "name": "B4",
                    "midi": 71,
                    "time": 122.74607799999876,
                    "velocity": 0.49606299212598426,
                    "duration": 0.09045399999999404
                },
                {
                    "name": "G#4",
                    "midi": 68,
                    "time": 122.83653199999875,
                    "velocity": 0.49606299212598426,
                    "duration": 0.09045399999999404
                },
                {
                    "name": "B4",
                    "midi": 71,
                    "time": 122.92698599999875,
                    "velocity": 0.49606299212598426,
                    "duration": 0.09045399999999404
                },
                {
                    "name": "E5",
                    "midi": 76,
                    "time": 123.01743999999874,
                    "velocity": 0.6299212598425197,
                    "duration": 0.09045399999999404
                },
                {
                    "name": "B4",
                    "midi": 71,
                    "time": 123.10789399999874,
                    "velocity": 0.4881889763779528,
                    "duration": 0.09045399999999404
                },
                {
                    "name": "G#5",
                    "midi": 80,
                    "time": 123.19834799999873,
                    "velocity": 0.6535433070866141,
                    "duration": 0.09045399999999404
                },
                {
                    "name": "B4",
                    "midi": 71,
                    "time": 123.28880199999873,
                    "velocity": 0.49606299212598426,
                    "duration": 0.09045399999999404
                },
                {
                    "name": "F#5",
                    "midi": 78,
                    "time": 123.37925599999872,
                    "velocity": 0.6299212598425197,
                    "duration": 0.09045399999999404
                },
                {
                    "name": "B4",
                    "midi": 71,
                    "time": 123.46970999999871,
                    "velocity": 0.5196850393700787,
                    "duration": 0.09045399999999404
                },
                {
                    "name": "E5",
                    "midi": 76,
                    "time": 123.56016399999871,
                    "velocity": 0.6299212598425197,
                    "duration": 0.09045399999999404
                },
                {
                    "name": "B4",
                    "midi": 71,
                    "time": 123.6506179999987,
                    "velocity": 0.5039370078740157,
                    "duration": 0.09045399999999404
                },
                {
                    "name": "C#6",
                    "midi": 85,
                    "time": 123.7410719999987,
                    "velocity": 0.7401574803149606,
                    "duration": 0.09045399999999404
                },
                {
                    "name": "E6",
                    "midi": 88,
                    "time": 123.83152599999869,
                    "velocity": 0.6062992125984252,
                    "duration": 0.09045399999999404
                },
                {
                    "name": "C#6",
                    "midi": 85,
                    "time": 123.92197999999868,
                    "velocity": 0.6141732283464567,
                    "duration": 0.09045399999999404
                },
                {
                    "name": "E6",
                    "midi": 88,
                    "time": 124.01243399999868,
                    "velocity": 0.5433070866141733,
                    "duration": 0.09045399999999404
                },
                {
                    "name": "C#6",
                    "midi": 85,
                    "time": 124.10288799999867,
                    "velocity": 0.5905511811023622,
                    "duration": 0.09045399999999404
                },
                {
                    "name": "E6",
                    "midi": 88,
                    "time": 124.19334199999867,
                    "velocity": 0.5433070866141733,
                    "duration": 0.09045399999999404
                },
                {
                    "name": "C#6",
                    "midi": 85,
                    "time": 124.28379599999866,
                    "velocity": 0.5905511811023622,
                    "duration": 0.09045399999999404
                },
                {
                    "name": "E6",
                    "midi": 88,
                    "time": 124.37424999999865,
                    "velocity": 0.5433070866141733,
                    "duration": 0.09045399999999404
                },
                {
                    "name": "C#6",
                    "midi": 85,
                    "time": 124.46470399999865,
                    "velocity": 0.5826771653543307,
                    "duration": 0.09045399999999404
                },
                {
                    "name": "E6",
                    "midi": 88,
                    "time": 124.55515799999864,
                    "velocity": 0.5433070866141733,
                    "duration": 0.09045399999999404
                },
                {
                    "name": "C#6",
                    "midi": 85,
                    "time": 124.64561199999864,
                    "velocity": 0.5590551181102362,
                    "duration": 0.09045399999999404
                },
                {
                    "name": "E6",
                    "midi": 88,
                    "time": 124.73606599999863,
                    "velocity": 0.5433070866141733,
                    "duration": 0.09045399999999404
                },
                {
                    "name": "C#6",
                    "midi": 85,
                    "time": 124.82651999999862,
                    "velocity": 0.5590551181102362,
                    "duration": 0.09045399999999404
                },
                {
                    "name": "E6",
                    "midi": 88,
                    "time": 124.91697399999862,
                    "velocity": 0.5433070866141733,
                    "duration": 0.09045399999999404
                },
                {
                    "name": "C#6",
                    "midi": 85,
                    "time": 125.00742799999861,
                    "velocity": 0.5590551181102362,
                    "duration": 0.09045399999999404
                },
                {
                    "name": "E6",
                    "midi": 88,
                    "time": 125.0978819999986,
                    "velocity": 0.5433070866141733,
                    "duration": 0.09045399999999404
                },
                {
                    "name": "C#6",
                    "midi": 85,
                    "time": 125.1883359999986,
                    "velocity": 0.5748031496062992,
                    "duration": 0.09045399999999404
                },
                {
                    "name": "E6",
                    "midi": 88,
                    "time": 125.2787899999986,
                    "velocity": 0.5433070866141733,
                    "duration": 0.09045399999999404
                },
                {
                    "name": "C#6",
                    "midi": 85,
                    "time": 125.36924399999859,
                    "velocity": 0.5984251968503937,
                    "duration": 0.09045399999999404
                },
                {
                    "name": "E6",
                    "midi": 88,
                    "time": 125.45969799999858,
                    "velocity": 0.5433070866141733,
                    "duration": 0.09045399999999404
                },
                {
                    "name": "C#6",
                    "midi": 85,
                    "time": 125.55015199999858,
                    "velocity": 0.6062992125984252,
                    "duration": 0.09045399999999404
                },
                {
                    "name": "E6",
                    "midi": 88,
                    "time": 125.64060599999857,
                    "velocity": 0.5433070866141733,
                    "duration": 0.09045399999999404
                },
                {
                    "name": "C#6",
                    "midi": 85,
                    "time": 125.73105999999856,
                    "velocity": 0.6062992125984252,
                    "duration": 0.09045399999999404
                },
                {
                    "name": "E6",
                    "midi": 88,
                    "time": 125.82151399999856,
                    "velocity": 0.5433070866141733,
                    "duration": 0.09045399999999404
                },
                {
                    "name": "C#6",
                    "midi": 85,
                    "time": 125.91196799999855,
                    "velocity": 0.6456692913385826,
                    "duration": 0.09045399999999404
                },
                {
                    "name": "E6",
                    "midi": 88,
                    "time": 126.00242199999855,
                    "velocity": 0.5511811023622047,
                    "duration": 0.09045399999999404
                },
                {
                    "name": "A#5",
                    "midi": 82,
                    "time": 126.09287599999854,
                    "velocity": 0.6377952755905512,
                    "duration": 0.09045399999999404
                },
                {
                    "name": "C#6",
                    "midi": 85,
                    "time": 126.18332999999853,
                    "velocity": 0.5590551181102362,
                    "duration": 0.09045399999999404
                },
                {
                    "name": "G#5",
                    "midi": 80,
                    "time": 126.27378399999853,
                    "velocity": 0.6456692913385826,
                    "duration": 0.09045399999999404
                },
                {
                    "name": "A#5",
                    "midi": 82,
                    "time": 126.36423799999852,
                    "velocity": 0.5354330708661418,
                    "duration": 0.09045399999999404
                },
                {
                    "name": "G#5",
                    "midi": 80,
                    "time": 126.45469199999852,
                    "velocity": 0.6377952755905512,
                    "duration": 0.09045399999999404
                },
                {
                    "name": "A#5",
                    "midi": 82,
                    "time": 126.54514599999851,
                    "velocity": 0.5511811023622047,
                    "duration": 0.09045399999999404
                },
                {
                    "name": "C#6",
                    "midi": 85,
                    "time": 126.6355999999985,
                    "velocity": 0.6299212598425197,
                    "duration": 0.09045399999999404
                },
                {
                    "name": "A#5",
                    "midi": 82,
                    "time": 126.7260539999985,
                    "velocity": 0.5511811023622047,
                    "duration": 0.09045399999999404
                },
                {
                    "name": "G#5",
                    "midi": 80,
                    "time": 126.81650799999849,
                    "velocity": 0.6299212598425197,
                    "duration": 0.09045399999999404
                },
                {
                    "name": "A#5",
                    "midi": 82,
                    "time": 126.90696199999849,
                    "velocity": 0.5433070866141733,
                    "duration": 0.09045399999999404
                },
                {
                    "name": "G#5",
                    "midi": 80,
                    "time": 127.08786999999847,
                    "velocity": 0.5669291338582677,
                    "duration": 0.09045399999999404
                },
                {
                    "name": "C#6",
                    "midi": 85,
                    "time": 127.17832399999847,
                    "velocity": 0.6062992125984252,
                    "duration": 0.09045399999999404
                },
                {
                    "name": "A#5",
                    "midi": 82,
                    "time": 127.26877799999846,
                    "velocity": 0.5511811023622047,
                    "duration": 0.09045399999999404
                },
                {
                    "name": "G#5",
                    "midi": 80,
                    "time": 127.35923199999846,
                    "velocity": 0.5826771653543307,
                    "duration": 0.09045399999999404
                },
                {
                    "name": "C#6",
                    "midi": 85,
                    "time": 127.44968599999845,
                    "velocity": 0.5433070866141733,
                    "duration": 0.09045399999999404
                },
                {
                    "name": "G5",
                    "midi": 79,
                    "time": 127.63059399999844,
                    "velocity": 0.5275590551181102,
                    "duration": 0.09045399999999404
                },
                {
                    "name": "C#6",
                    "midi": 85,
                    "time": 127.72104799999843,
                    "velocity": 0.5590551181102362,
                    "duration": 0.09045399999999404
                },
                {
                    "name": "A#5",
                    "midi": 82,
                    "time": 127.81150199999843,
                    "velocity": 0.5039370078740157,
                    "duration": 0.09045399999999404
                },
                {
                    "name": "G5",
                    "midi": 79,
                    "time": 127.90195599999842,
                    "velocity": 0.5354330708661418,
                    "duration": 0.09045399999999404
                },
                {
                    "name": "C#6",
                    "midi": 85,
                    "time": 127.99240999999842,
                    "velocity": 0.4881889763779528,
                    "duration": 0.09045399999999404
                },
                {
                    "name": "E5",
                    "midi": 76,
                    "time": 128.1733179999984,
                    "velocity": 0.5669291338582677,
                    "duration": 0.09045399999999404
                },
                {
                    "name": "C#6",
                    "midi": 85,
                    "time": 128.2637719999984,
                    "velocity": 0.6141732283464567,
                    "duration": 0.09045399999999404
                },
                {
                    "name": "A#5",
                    "midi": 82,
                    "time": 128.3542259999984,
                    "velocity": 0.5511811023622047,
                    "duration": 0.09045399999999404
                },
                {
                    "name": "E5",
                    "midi": 76,
                    "time": 128.44467999999839,
                    "velocity": 0.6062992125984252,
                    "duration": 0.09045399999999404
                },
                {
                    "name": "C#6",
                    "midi": 85,
                    "time": 128.53513399999838,
                    "velocity": 0.5433070866141733,
                    "duration": 0.09045399999999404
                },
                {
                    "name": "D#5",
                    "midi": 75,
                    "time": 128.71604199999837,
                    "velocity": 0.5275590551181102,
                    "duration": 0.09045399999999404
                },
                {
                    "name": "C#6",
                    "midi": 85,
                    "time": 128.80649599999836,
                    "velocity": 0.5826771653543307,
                    "duration": 0.09045399999999404
                },
                {
                    "name": "A#5",
                    "midi": 82,
                    "time": 128.89694999999836,
                    "velocity": 0.5039370078740157,
                    "duration": 0.09045399999999404
                },
                {
                    "name": "D#5",
                    "midi": 75,
                    "time": 128.98740399999835,
                    "velocity": 0.5511811023622047,
                    "duration": 0.09045399999999404
                },
                {
                    "name": "C#6",
                    "midi": 85,
                    "time": 129.07785799999834,
                    "velocity": 0.4881889763779528,
                    "duration": 0.09045399999999404
                },
                {
                    "name": "G#5",
                    "midi": 80,
                    "time": 129.25876599999833,
                    "velocity": 0.5669291338582677,
                    "duration": 0.09045399999999404
                },
                {
                    "name": "C#6",
                    "midi": 85,
                    "time": 129.34921999999833,
                    "velocity": 0.6141732283464567,
                    "duration": 0.09045399999999404
                },
                {
                    "name": "A#5",
                    "midi": 82,
                    "time": 129.43967399999832,
                    "velocity": 0.5511811023622047,
                    "duration": 0.09045399999999404
                },
                {
                    "name": "G#5",
                    "midi": 80,
                    "time": 129.5301279999983,
                    "velocity": 0.5984251968503937,
                    "duration": 0.09045399999999404
                },
                {
                    "name": "C#6",
                    "midi": 85,
                    "time": 129.6205819999983,
                    "velocity": 0.5433070866141733,
                    "duration": 0.09045399999999404
                },
                {
                    "name": "G5",
                    "midi": 79,
                    "time": 129.8014899999983,
                    "velocity": 0.5275590551181102,
                    "duration": 0.09045399999999404
                },
                {
                    "name": "C#6",
                    "midi": 85,
                    "time": 129.8919439999983,
                    "velocity": 0.5748031496062992,
                    "duration": 0.09045399999999404
                },
                {
                    "name": "A#5",
                    "midi": 82,
                    "time": 129.98239799999828,
                    "velocity": 0.5039370078740157,
                    "duration": 0.09045399999999404
                },
                {
                    "name": "G5",
                    "midi": 79,
                    "time": 130.07285199999828,
                    "velocity": 0.5511811023622047,
                    "duration": 0.09045399999999404
                },
                {
                    "name": "C#6",
                    "midi": 85,
                    "time": 130.16330599999827,
                    "velocity": 0.4881889763779528,
                    "duration": 0.09045399999999404
                },
                {
                    "name": "B5",
                    "midi": 83,
                    "time": 130.52512199999828,
                    "velocity": 0.6220472440944882,
                    "duration": 0.09045399999999404
                },
                {
                    "name": "D6",
                    "midi": 86,
                    "time": 130.61557599999827,
                    "velocity": 0.6535433070866141,
                    "duration": 0.09045399999999404
                },
                {
                    "name": "F6",
                    "midi": 89,
                    "time": 130.70602999999826,
                    "velocity": 0.5826771653543307,
                    "duration": 0.09045399999999404
                },
                {
                    "name": "G#6",
                    "midi": 92,
                    "time": 130.79648399999826,
                    "velocity": 0.6692913385826772,
                    "duration": 0.09045399999999404
                },
                {
                    "name": "F6",
                    "midi": 89,
                    "time": 130.88693799999825,
                    "velocity": 0.6377952755905512,
                    "duration": 0.09045399999999404
                },
                {
                    "name": "D6",
                    "midi": 86,
                    "time": 130.97739199999825,
                    "velocity": 0.6771653543307087,
                    "duration": 0.09045399999999404
                },
                {
                    "name": "B6",
                    "midi": 95,
                    "time": 131.06784599999824,
                    "velocity": 0.6535433070866141,
                    "duration": 0.09045399999999404
                },
                {
                    "name": "A#6",
                    "midi": 94,
                    "time": 131.15829999999823,
                    "velocity": 0.6771653543307087,
                    "duration": 0.09045399999999404
                },
                {
                    "name": "G#6",
                    "midi": 92,
                    "time": 131.24875399999823,
                    "velocity": 0.6141732283464567,
                    "duration": 0.09045399999999404
                },
                {
                    "name": "G6",
                    "midi": 91,
                    "time": 131.33920799999822,
                    "velocity": 0.6535433070866141,
                    "duration": 0.09045399999999404
                },
                {
                    "name": "A#6",
                    "midi": 94,
                    "time": 131.42966199999822,
                    "velocity": 0.6377952755905512,
                    "duration": 0.09045399999999404
                },
                {
                    "name": "G#6",
                    "midi": 92,
                    "time": 131.5201159999982,
                    "velocity": 0.6614173228346457,
                    "duration": 0.09045399999999404
                },
                {
                    "name": "G6",
                    "midi": 91,
                    "time": 131.6105699999982,
                    "velocity": 0.6456692913385826,
                    "duration": 0.09045399999999404
                },
                {
                    "name": "E6",
                    "midi": 88,
                    "time": 131.7010239999982,
                    "velocity": 0.6377952755905512,
                    "duration": 0.09045399999999404
                },
                {
                    "name": "D#6",
                    "midi": 87,
                    "time": 131.7914779999982,
                    "velocity": 0.5826771653543307,
                    "duration": 0.09045399999999404
                },
                {
                    "name": "C#6",
                    "midi": 85,
                    "time": 131.8819319999982,
                    "velocity": 0.6141732283464567,
                    "duration": 0.09045399999999404
                },
                {
                    "name": "E6",
                    "midi": 88,
                    "time": 131.97238599999818,
                    "velocity": 0.5905511811023622,
                    "duration": 0.09045399999999404
                },
                {
                    "name": "D#6",
                    "midi": 87,
                    "time": 132.06283999999818,
                    "velocity": 0.5826771653543307,
                    "duration": 0.09045399999999404
                },
                {
                    "name": "C#6",
                    "midi": 85,
                    "time": 132.15329399999817,
                    "velocity": 0.5669291338582677,
                    "duration": 0.09045399999999404
                },
                {
                    "name": "B5",
                    "midi": 83,
                    "time": 132.24374799999816,
                    "velocity": 0.5590551181102362,
                    "duration": 0.09045399999999404
                },
                {
                    "name": "A#5",
                    "midi": 82,
                    "time": 132.33420199999816,
                    "velocity": 0.5196850393700787,
                    "duration": 0.09045399999999404
                },
                {
                    "name": "G#5",
                    "midi": 80,
                    "time": 132.51510999999815,
                    "velocity": 0.33070866141732286,
                    "duration": 0.09045399999999404
                },
                {
                    "name": "B5",
                    "midi": 83,
                    "time": 132.60556399999814,
                    "velocity": 0.3543307086614173,
                    "duration": 0.09045399999999404
                },
                {
                    "name": "D#6",
                    "midi": 87,
                    "time": 132.69601799999813,
                    "velocity": 0.3700787401574803,
                    "duration": 0.09045399999999404
                },
                {
                    "name": "G#6",
                    "midi": 92,
                    "time": 132.78647199999813,
                    "velocity": 0.3858267716535433,
                    "duration": 0.09045399999999404
                },
                {
                    "name": "G#5",
                    "midi": 80,
                    "time": 132.87692599999812,
                    "velocity": 0.3543307086614173,
                    "duration": 0.09045399999999404
                },
                {
                    "name": "G#6",
                    "midi": 92,
                    "time": 133.23874199999813,
                    "velocity": 0.3858267716535433,
                    "duration": 0.09045399999999404
                },
                {
                    "name": "G#5",
                    "midi": 80,
                    "time": 133.32919599999812,
                    "velocity": 0.3543307086614173,
                    "duration": 0.09045399999999404
                },
                {
                    "name": "G#6",
                    "midi": 92,
                    "time": 133.41964999999811,
                    "velocity": 0.3858267716535433,
                    "duration": 0.09045399999999404
                },
                {
                    "name": "G#6",
                    "midi": 92,
                    "time": 133.78146599999812,
                    "velocity": 0.3779527559055118,
                    "duration": 0.09045399999999404
                },
                {
                    "name": "G#5",
                    "midi": 80,
                    "time": 133.8719199999981,
                    "velocity": 0.3543307086614173,
                    "duration": 0.09045399999999404
                },
                {
                    "name": "G#6",
                    "midi": 92,
                    "time": 133.9623739999981,
                    "velocity": 0.3779527559055118,
                    "duration": 0.09045399999999404
                },
                {
                    "name": "G6",
                    "midi": 91,
                    "time": 134.3241899999981,
                    "velocity": 0.3779527559055118,
                    "duration": 0.09045399999999404
                },
                {
                    "name": "G5",
                    "midi": 79,
                    "time": 134.4146439999981,
                    "velocity": 0.3543307086614173,
                    "duration": 0.09045399999999404
                },
                {
                    "name": "G6",
                    "midi": 91,
                    "time": 134.5050979999981,
                    "velocity": 0.3858267716535433,
                    "duration": 0.09045399999999404
                },
                {
                    "name": "G#5",
                    "midi": 80,
                    "time": 134.6860059999981,
                    "velocity": 0.33070866141732286,
                    "duration": 0.09045399999999404
                },
                {
                    "name": "B5",
                    "midi": 83,
                    "time": 134.77645999999808,
                    "velocity": 0.3543307086614173,
                    "duration": 0.09045399999999404
                },
                {
                    "name": "D#6",
                    "midi": 87,
                    "time": 134.86691399999808,
                    "velocity": 0.3700787401574803,
                    "duration": 0.09045399999999404
                },
                {
                    "name": "G#6",
                    "midi": 92,
                    "time": 134.95736799999807,
                    "velocity": 0.3858267716535433,
                    "duration": 0.09045399999999404
                },
                {
                    "name": "G#5",
                    "midi": 80,
                    "time": 135.04782199999806,
                    "velocity": 0.3543307086614173,
                    "duration": 0.09045399999999404
                },
                {
                    "name": "G#5",
                    "midi": 80,
                    "time": 135.40963799999807,
                    "velocity": 0.3858267716535433,
                    "duration": 0.09045399999999404
                },
                {
                    "name": "G#4",
                    "midi": 68,
                    "time": 135.50009199999806,
                    "velocity": 0.3543307086614173,
                    "duration": 0.09045399999999404
                },
                {
                    "name": "G#5",
                    "midi": 80,
                    "time": 135.59054599999806,
                    "velocity": 0.3858267716535433,
                    "duration": 0.09045399999999404
                },
                {
                    "name": "G#5",
                    "midi": 80,
                    "time": 135.95236199999806,
                    "velocity": 0.3779527559055118,
                    "duration": 0.09045399999999404
                },
                {
                    "name": "G#4",
                    "midi": 68,
                    "time": 136.04281599999806,
                    "velocity": 0.3543307086614173,
                    "duration": 0.09045399999999404
                },
                {
                    "name": "G#5",
                    "midi": 80,
                    "time": 136.13326999999805,
                    "velocity": 0.3779527559055118,
                    "duration": 0.09045399999999404
                },
                {
                    "name": "G5",
                    "midi": 79,
                    "time": 136.49508599999805,
                    "velocity": 0.3779527559055118,
                    "duration": 0.09045399999999404
                },
                {
                    "name": "G4",
                    "midi": 67,
                    "time": 136.58553999999805,
                    "velocity": 0.3543307086614173,
                    "duration": 0.09045399999999404
                },
                {
                    "name": "G5",
                    "midi": 79,
                    "time": 136.67599399999804,
                    "velocity": 0.3858267716535433,
                    "duration": 0.09045399999999404
                },
                {
                    "name": "G#5",
                    "midi": 80,
                    "time": 136.85690199999803,
                    "velocity": 0.33070866141732286,
                    "duration": 0.09045399999999404
                },
                {
                    "name": "B5",
                    "midi": 83,
                    "time": 136.94735599999802,
                    "velocity": 0.3543307086614173,
                    "duration": 0.09045399999999404
                },
                {
                    "name": "D#6",
                    "midi": 87,
                    "time": 137.03780999999802,
                    "velocity": 0.3700787401574803,
                    "duration": 0.09045399999999404
                },
                {
                    "name": "G#6",
                    "midi": 92,
                    "time": 137.128263999998,
                    "velocity": 0.3858267716535433,
                    "duration": 0.09045399999999404
                },
                {
                    "name": "G#5",
                    "midi": 80,
                    "time": 137.218717999998,
                    "velocity": 0.3543307086614173,
                    "duration": 0.09045399999999404
                },
                {
                    "name": "G#6",
                    "midi": 92,
                    "time": 137.580533999998,
                    "velocity": 0.3858267716535433,
                    "duration": 0.09045399999999404
                },
                {
                    "name": "G#5",
                    "midi": 80,
                    "time": 137.670987999998,
                    "velocity": 0.3543307086614173,
                    "duration": 0.09045399999999404
                },
                {
                    "name": "G#6",
                    "midi": 92,
                    "time": 137.761441999998,
                    "velocity": 0.3858267716535433,
                    "duration": 0.09045399999999404
                },
                {
                    "name": "G#6",
                    "midi": 92,
                    "time": 138.123257999998,
                    "velocity": 0.3779527559055118,
                    "duration": 0.09045399999999404
                },
                {
                    "name": "G#5",
                    "midi": 80,
                    "time": 138.213711999998,
                    "velocity": 0.3543307086614173,
                    "duration": 0.09045399999999404
                },
                {
                    "name": "G#6",
                    "midi": 92,
                    "time": 138.304165999998,
                    "velocity": 0.3779527559055118,
                    "duration": 0.09045399999999404
                },
                {
                    "name": "G6",
                    "midi": 91,
                    "time": 138.665981999998,
                    "velocity": 0.3779527559055118,
                    "duration": 0.09045399999999404
                },
                {
                    "name": "G5",
                    "midi": 79,
                    "time": 138.756435999998,
                    "velocity": 0.3543307086614173,
                    "duration": 0.09045399999999404
                },
                {
                    "name": "G6",
                    "midi": 91,
                    "time": 138.84688999999798,
                    "velocity": 0.3858267716535433,
                    "duration": 0.09045399999999404
                },
                {
                    "name": "G#6",
                    "midi": 92,
                    "time": 138.93734399999798,
                    "velocity": 0.3779527559055118,
                    "duration": 0.09045399999999404
                },
                {
                    "name": "D#6",
                    "midi": 87,
                    "time": 139.02779799999797,
                    "velocity": 0.3543307086614173,
                    "duration": 0.09045399999999404
                },
                {
                    "name": "B5",
                    "midi": 83,
                    "time": 139.11825199999797,
                    "velocity": 0.3464566929133858,
                    "duration": 0.09045399999999404
                },
                {
                    "name": "D#6",
                    "midi": 87,
                    "time": 139.20870599999796,
                    "velocity": 0.30708661417322836,
                    "duration": 0.09045399999999404
                },
                {
                    "name": "G#6",
                    "midi": 92,
                    "time": 139.29915999999795,
                    "velocity": 0.33070866141732286,
                    "duration": 0.09045399999999404
                },
                {
                    "name": "D#6",
                    "midi": 87,
                    "time": 139.38961399999795,
                    "velocity": 0.30708661417322836,
                    "duration": 0.09045399999999404
                },
                {
                    "name": "B5",
                    "midi": 83,
                    "time": 139.48006799999794,
                    "velocity": 0.36220472440944884,
                    "duration": 0.09045399999999404
                },
                {
                    "name": "D#6",
                    "midi": 87,
                    "time": 139.57052199999794,
                    "velocity": 0.3228346456692913,
                    "duration": 0.09045399999999404
                },
                {
                    "name": "G#6",
                    "midi": 92,
                    "time": 139.66097599999793,
                    "velocity": 0.3228346456692913,
                    "duration": 0.09045399999999404
                },
                {
                    "name": "D#6",
                    "midi": 87,
                    "time": 139.75142999999792,
                    "velocity": 0.29133858267716534,
                    "duration": 0.09045399999999404
                },
                {
                    "name": "B5",
                    "midi": 83,
                    "time": 139.84188399999792,
                    "velocity": 0.31496062992125984,
                    "duration": 0.09045399999999404
                },
                {
                    "name": "D#6",
                    "midi": 87,
                    "time": 139.9323379999979,
                    "velocity": 0.28346456692913385,
                    "duration": 0.09045399999999404
                },
                {
                    "name": "G#6",
                    "midi": 92,
                    "time": 140.0227919999979,
                    "velocity": 0.33070866141732286,
                    "duration": 0.09045399999999404
                },
                {
                    "name": "D#6",
                    "midi": 87,
                    "time": 140.1132459999979,
                    "velocity": 0.30708661417322836,
                    "duration": 0.09045399999999404
                },
                {
                    "name": "B5",
                    "midi": 83,
                    "time": 140.2036999999979,
                    "velocity": 0.30708661417322836,
                    "duration": 0.09045399999999404
                },
                {
                    "name": "D#6",
                    "midi": 87,
                    "time": 140.2941539999979,
                    "velocity": 0.2755905511811024,
                    "duration": 0.09045399999999404
                },
                {
                    "name": "G#6",
                    "midi": 92,
                    "time": 140.38460799999788,
                    "velocity": 0.2992125984251969,
                    "duration": 0.09045399999999404
                },
                {
                    "name": "D#6",
                    "midi": 87,
                    "time": 140.47506199999788,
                    "velocity": 0.2677165354330709,
                    "duration": 0.09045399999999404
                },
                {
                    "name": "G#6",
                    "midi": 92,
                    "time": 140.56551599999787,
                    "velocity": 0.30708661417322836,
                    "duration": 0.09045399999999404
                },
                {
                    "name": "D#6",
                    "midi": 87,
                    "time": 140.65596999999786,
                    "velocity": 0.2755905511811024,
                    "duration": 0.09045399999999404
                },
                {
                    "name": "G#6",
                    "midi": 92,
                    "time": 140.74642399999786,
                    "velocity": 0.29133858267716534,
                    "duration": 0.09045399999999404
                },
                {
                    "name": "D#6",
                    "midi": 87,
                    "time": 140.83687799999785,
                    "velocity": 0.2440944881889764,
                    "duration": 0.09045399999999404
                },
                {
                    "name": "G#6",
                    "midi": 92,
                    "time": 140.92733199999785,
                    "velocity": 0.28346456692913385,
                    "duration": 0.09045399999999404
                },
                {
                    "name": "D#6",
                    "midi": 87,
                    "time": 141.01778599999784,
                    "velocity": 0.23622047244094488,
                    "duration": 0.09045399999999404
                },
                {
                    "name": "G#6",
                    "midi": 92,
                    "time": 141.10823999999783,
                    "velocity": 0.25984251968503935,
                    "duration": 1.6281720000000064
                },
                {
                    "name": "B3",
                    "midi": 59,
                    "time": 142.73641199999784,
                    "velocity": 0.2755905511811024,
                    "duration": 0.4522699999999986
                },
                {
                    "name": "G#3",
                    "midi": 56,
                    "time": 143.18868199999784,
                    "velocity": 0.2440944881889764,
                    "duration": 0.09045399999999404
                },
                {
                    "name": "D#3",
                    "midi": 51,
                    "time": 143.27913599999783,
                    "velocity": 0.2204724409448819,
                    "duration": 1.6281720000000064
                },
                {
                    "name": "B3",
                    "midi": 59,
                    "time": 144.90730799999784,
                    "velocity": 0.2755905511811024,
                    "duration": 0.4522699999999986
                },
                {
                    "name": "G#3",
                    "midi": 56,
                    "time": 145.35957799999784,
                    "velocity": 0.2440944881889764,
                    "duration": 0.09045399999999404
                },
                {
                    "name": "E3",
                    "midi": 52,
                    "time": 145.45003199999783,
                    "velocity": 0.2204724409448819,
                    "duration": 1.6281720000000064
                },
                {
                    "name": "G#3",
                    "midi": 56,
                    "time": 147.07820399999784,
                    "velocity": 0.2755905511811024,
                    "duration": 0.4522699999999986
                },
                {
                    "name": "B3",
                    "midi": 59,
                    "time": 147.53047399999784,
                    "velocity": 0.23622047244094488,
                    "duration": 0.09045399999999404
                },
                {
                    "name": "E4",
                    "midi": 64,
                    "time": 147.62092799999783,
                    "velocity": 0.2755905511811024,
                    "duration": 0.5427239999999927
                },
                {
                    "name": "G#4",
                    "midi": 68,
                    "time": 148.16365199999782,
                    "velocity": 0.28346456692913385,
                    "duration": 0.4522699999999986
                },
                {
                    "name": "B4",
                    "midi": 71,
                    "time": 148.61592199999782,
                    "velocity": 0.2440944881889764,
                    "duration": 0.09045399999999404
                },
                {
                    "name": "E5",
                    "midi": 76,
                    "time": 148.70637599999782,
                    "velocity": 0.28346456692913385,
                    "duration": 0.5389550833333203
                },
                {
                    "name": "E4",
                    "midi": 64,
                    "time": 149.2490999999978,
                    "velocity": 0.2677165354330709,
                    "duration": 0.5427239999999927
                },
                {
                    "name": "B4",
                    "midi": 71,
                    "time": 149.7918239999978,
                    "velocity": 0.2755905511811024,
                    "duration": 0.9045399999999972
                },
                {
                    "name": "C#5",
                    "midi": 73,
                    "time": 150.6963639999978,
                    "velocity": 0.25984251968503935,
                    "duration": 0.13568100000000527
                },
                {
                    "name": "B4",
                    "midi": 71,
                    "time": 150.8320449999978,
                    "velocity": 0.2677165354330709,
                    "duration": 0.04522700000001123
                },
                {
                    "name": "C#5",
                    "midi": 73,
                    "time": 150.87727199999782,
                    "velocity": 0.2440944881889764,
                    "duration": 0.06030266666667217
                },
                {
                    "name": "D#5",
                    "midi": 75,
                    "time": 150.9375746666645,
                    "velocity": 0.2125984251968504,
                    "duration": 0.06030266666667217
                },
                {
                    "name": "C#5",
                    "midi": 73,
                    "time": 150.99787733333116,
                    "velocity": 0.2440944881889764,
                    "duration": 0.06030266666667217
                },
                {
                    "name": "D#5",
                    "midi": 75,
                    "time": 151.05817999999783,
                    "velocity": 0.2125984251968504,
                    "duration": 0.06030266666667217
                },
                {
                    "name": "C#5",
                    "midi": 73,
                    "time": 151.1184826666645,
                    "velocity": 0.2440944881889764,
                    "duration": 0.06030266666667217
                },
                {
                    "name": "D#5",
                    "midi": 75,
                    "time": 151.17878533333118,
                    "velocity": 0.2204724409448819,
                    "duration": 0.06030266666667217
                },
                {
                    "name": "C#5",
                    "midi": 73,
                    "time": 151.23908799999785,
                    "velocity": 0.2440944881889764,
                    "duration": 0.06030266666667217
                },
                {
                    "name": "D#5",
                    "midi": 75,
                    "time": 151.29939066666452,
                    "velocity": 0.2125984251968504,
                    "duration": 0.06030266666667217
                },
                {
                    "name": "C#5",
                    "midi": 73,
                    "time": 151.3596933333312,
                    "velocity": 0.2440944881889764,
                    "duration": 0.06030266666667217
                },
                {
                    "name": "D#5",
                    "midi": 75,
                    "time": 151.41999599999787,
                    "velocity": 0.2204724409448819,
                    "duration": 0.06030266666667217
                },
                {
                    "name": "C#5",
                    "midi": 73,
                    "time": 151.48029866666454,
                    "velocity": 0.2047244094488189,
                    "duration": 0.06030266666667217
                },
                {
                    "name": "D#5",
                    "midi": 75,
                    "time": 151.5406013333312,
                    "velocity": 0.2440944881889764,
                    "duration": 0.06030266666667217
                },
                {
                    "name": "C#5",
                    "midi": 73,
                    "time": 151.60090399999788,
                    "velocity": 0.2047244094488189,
                    "duration": 0.09045399999999404
                },
                {
                    "name": "B4",
                    "midi": 71,
                    "time": 151.69135799999788,
                    "velocity": 0.23622047244094488,
                    "duration": 0.09045399999999404
                },
                {
                    "name": "D#5",
                    "midi": 75,
                    "time": 151.78181199999787,
                    "velocity": 0.2755905511811024,
                    "duration": 0.09045399999999404
                },
                {
                    "name": "C#5",
                    "midi": 73,
                    "time": 151.87226599999786,
                    "velocity": 0.2440944881889764,
                    "duration": 0.09045399999999404
                },
                {
                    "name": "B4",
                    "midi": 71,
                    "time": 151.96271999999786,
                    "velocity": 0.2755905511811024,
                    "duration": 0.3618160000000046
                },
                {
                    "name": "F#5",
                    "midi": 78,
                    "time": 154.13361599999786,
                    "velocity": 0.2755905511811024,
                    "duration": 0.9045399999999972
                },
                {
                    "name": "G#5",
                    "midi": 80,
                    "time": 155.03815599999785,
                    "velocity": 0.2755905511811024,
                    "duration": 0.18090799999998808
                },
                {
                    "name": "F5",
                    "midi": 77,
                    "time": 155.21906399999784,
                    "velocity": 0.2755905511811024,
                    "duration": 1.0854480000000422
                },
                {
                    "name": "G#5",
                    "midi": 80,
                    "time": 155.21906399999784,
                    "velocity": 0.3464566929133858,
                    "duration": 0.06030266666667217
                },
                {
                    "name": "A5",
                    "midi": 81,
                    "time": 155.27936666666452,
                    "velocity": 0.2755905511811024,
                    "duration": 0.06030266666667217
                },
                {
                    "name": "G#5",
                    "midi": 80,
                    "time": 155.3396693333312,
                    "velocity": 0.31496062992125984,
                    "duration": 0.06030266666667217
                },
                {
                    "name": "A5",
                    "midi": 81,
                    "time": 155.39997199999786,
                    "velocity": 0.28346456692913385,
                    "duration": 0.06030266666667217
                },
                {
                    "name": "G#5",
                    "midi": 80,
                    "time": 155.46027466666453,
                    "velocity": 0.30708661417322836,
                    "duration": 0.06030266666667217
                },
                {
                    "name": "A5",
                    "midi": 81,
                    "time": 155.5205773333312,
                    "velocity": 0.28346456692913385,
                    "duration": 0.06030266666667217
                },
                {
                    "name": "G#5",
                    "midi": 80,
                    "time": 155.58087999999788,
                    "velocity": 0.2992125984251969,
                    "duration": 0.06030266666667217
                },
                {
                    "name": "A5",
                    "midi": 81,
                    "time": 155.64118266666455,
                    "velocity": 0.2677165354330709,
                    "duration": 0.06030266666667217
                },
                {
                    "name": "G#5",
                    "midi": 80,
                    "time": 155.70148533333122,
                    "velocity": 0.29133858267716534,
                    "duration": 0.06030266666667217
                },
                {
                    "name": "A5",
                    "midi": 81,
                    "time": 155.7617879999979,
                    "velocity": 0.2755905511811024,
                    "duration": 0.06030266666667217
                },
                {
                    "name": "G#5",
                    "midi": 80,
                    "time": 155.82209066666456,
                    "velocity": 0.2440944881889764,
                    "duration": 0.06030266666667217
                },
                {
                    "name": "A5",
                    "midi": 81,
                    "time": 155.88239333333124,
                    "velocity": 0.28346456692913385,
                    "duration": 0.06030266666667217
                },
                {
                    "name": "G#5",
                    "midi": 80,
                    "time": 155.9426959999979,
                    "velocity": 0.25984251968503935,
                    "duration": 0.09045399999999404
                },
                {
                    "name": "F#5",
                    "midi": 78,
                    "time": 156.0331499999979,
                    "velocity": 0.25984251968503935,
                    "duration": 0.09045399999999404
                },
                {
                    "name": "A5",
                    "midi": 81,
                    "time": 156.1236039999979,
                    "velocity": 0.29133858267716534,
                    "duration": 0.09045399999999404
                },
                {
                    "name": "G#5",
                    "midi": 80,
                    "time": 156.2140579999979,
                    "velocity": 0.25984251968503935,
                    "duration": 0.09045399999999404
                },
                {
                    "name": "F#5",
                    "midi": 78,
                    "time": 156.30451199999789,
                    "velocity": 0.2755905511811024,
                    "duration": 0.3618160000000046
                },
                {
                    "name": "E4",
                    "midi": 64,
                    "time": 158.47540799999788,
                    "velocity": 0.2755905511811024,
                    "duration": 0.9045399999999972
                },
                {
                    "name": "F#4",
                    "midi": 66,
                    "time": 159.37994799999788,
                    "velocity": 0.2755905511811024,
                    "duration": 0.18090799999998808
                },
                {
                    "name": "D#4",
                    "midi": 63,
                    "time": 159.56085599999787,
                    "velocity": 0.2755905511811024,
                    "duration": 1.0854480000000422
                },
                {
                    "name": "F#4",
                    "midi": 66,
                    "time": 159.56085599999787,
                    "velocity": 0.3464566929133858,
                    "duration": 0.06030266666667217
                },
                {
                    "name": "G#4",
                    "midi": 68,
                    "time": 159.62115866666454,
                    "velocity": 0.2755905511811024,
                    "duration": 0.06030266666667217
                },
                {
                    "name": "F#4",
                    "midi": 66,
                    "time": 159.6814613333312,
                    "velocity": 0.31496062992125984,
                    "duration": 0.06030266666667217
                },
                {
                    "name": "G#4",
                    "midi": 68,
                    "time": 159.7417639999979,
                    "velocity": 0.28346456692913385,
                    "duration": 0.06030266666667217
                },
                {
                    "name": "F#4",
                    "midi": 66,
                    "time": 159.80206666666456,
                    "velocity": 0.30708661417322836,
                    "duration": 0.06030266666667217
                },
                {
                    "name": "G#4",
                    "midi": 68,
                    "time": 159.86236933333123,
                    "velocity": 0.28346456692913385,
                    "duration": 0.06030266666667217
                },
                {
                    "name": "F#4",
                    "midi": 66,
                    "time": 159.9226719999979,
                    "velocity": 0.30708661417322836,
                    "duration": 0.06030266666667217
                },
                {
                    "name": "G#4",
                    "midi": 68,
                    "time": 159.98297466666457,
                    "velocity": 0.2755905511811024,
                    "duration": 0.06030266666667217
                },
                {
                    "name": "F#4",
                    "midi": 66,
                    "time": 160.04327733333125,
                    "velocity": 0.30708661417322836,
                    "duration": 0.06030266666667217
                },
                {
                    "name": "G#4",
                    "midi": 68,
                    "time": 160.10357999999792,
                    "velocity": 0.2755905511811024,
                    "duration": 0.06030266666667217
                },
                {
                    "name": "F#4",
                    "midi": 66,
                    "time": 160.1638826666646,
                    "velocity": 0.2440944881889764,
                    "duration": 0.06030266666667217
                },
                {
                    "name": "G#4",
                    "midi": 68,
                    "time": 160.22418533333126,
                    "velocity": 0.28346456692913385,
                    "duration": 0.06030266666667217
                },
                {
                    "name": "F#4",
                    "midi": 66,
                    "time": 160.28448799999794,
                    "velocity": 0.25984251968503935,
                    "duration": 0.09045399999999404
                },
                {
                    "name": "E4",
                    "midi": 64,
                    "time": 160.37494199999793,
                    "velocity": 0.25984251968503935,
                    "duration": 0.09045399999999404
                },
                {
                    "name": "G#4",
                    "midi": 68,
                    "time": 160.46539599999792,
                    "velocity": 0.29133858267716534,
                    "duration": 0.09045399999999404
                },
                {
                    "name": "F#4",
                    "midi": 66,
                    "time": 160.55584999999792,
                    "velocity": 0.25984251968503935,
                    "duration": 0.09045399999999404
                },
                {
                    "name": "E4",
                    "midi": 64,
                    "time": 160.6463039999979,
                    "velocity": 0.2755905511811024,
                    "duration": 0.5427239999999927
                },
                {
                    "name": "A3",
                    "midi": 57,
                    "time": 161.1890279999979,
                    "velocity": 0.3543307086614173,
                    "duration": 1.0854480000000137
                },
                {
                    "name": "C#4",
                    "midi": 61,
                    "time": 161.1890279999979,
                    "velocity": 0.3543307086614173,
                    "duration": 1.0854480000000137
                },
                {
                    "name": "A4",
                    "midi": 69,
                    "time": 161.1890279999979,
                    "velocity": 0.41732283464566927,
                    "duration": 1.0854480000000137
                },
                {
                    "name": "A3",
                    "midi": 57,
                    "time": 162.27447599999792,
                    "velocity": 0.28346456692913385,
                    "duration": 0.5427239999999927
                },
                {
                    "name": "C#4",
                    "midi": 61,
                    "time": 162.27447599999792,
                    "velocity": 0.28346456692913385,
                    "duration": 0.5427239999999927
                },
                {
                    "name": "F#4",
                    "midi": 66,
                    "time": 162.27447599999792,
                    "velocity": 0.3464566929133858,
                    "duration": 0.4522699999999986
                },
                {
                    "name": "G#4",
                    "midi": 68,
                    "time": 162.72674599999792,
                    "velocity": 0.30708661417322836,
                    "duration": 0.09045399999999404
                },
                {
                    "name": "E4",
                    "midi": 64,
                    "time": 162.8171999999979,
                    "velocity": 0.33070866141732286,
                    "duration": 1.0854480000000137
                },
                {
                    "name": "G#3",
                    "midi": 56,
                    "time": 162.8171999999979,
                    "velocity": 0.2755905511811024,
                    "duration": 1.0854480000000137
                },
                {
                    "name": "B3",
                    "midi": 59,
                    "time": 162.8171999999979,
                    "velocity": 0.2755905511811024,
                    "duration": 1.0854480000000137
                },
                {
                    "name": "D#4",
                    "midi": 63,
                    "time": 163.90264799999792,
                    "velocity": 0.28346456692913385,
                    "duration": 1.0854480000000137
                },
                {
                    "name": "A3",
                    "midi": 57,
                    "time": 163.90264799999792,
                    "velocity": 0.23622047244094488,
                    "duration": 1.0854480000000137
                },
                {
                    "name": "F#3",
                    "midi": 54,
                    "time": 163.90264799999792,
                    "velocity": 0.23622047244094488,
                    "duration": 1.0854480000000137
                },
                {
                    "name": "E5",
                    "midi": 76,
                    "time": 164.98809599999794,
                    "velocity": 0.2755905511811024,
                    "duration": 0.9045399999999972
                },
                {
                    "name": "F#5",
                    "midi": 78,
                    "time": 165.89263599999794,
                    "velocity": 0.2755905511811024,
                    "duration": 0.18090799999998808
                },
                {
                    "name": "F#5",
                    "midi": 78,
                    "time": 166.07354399999792,
                    "velocity": 0.28346456692913385,
                    "duration": 0.06030266666667217
                },
                {
                    "name": "D#5",
                    "midi": 75,
                    "time": 166.07354399999792,
                    "velocity": 0.2283464566929134,
                    "duration": 1.0854480000000422
                },
                {
                    "name": "G#5",
                    "midi": 80,
                    "time": 166.1338466666646,
                    "velocity": 0.25984251968503935,
                    "duration": 0.06030266666667217
                },
                {
                    "name": "F#5",
                    "midi": 78,
                    "time": 166.19414933333127,
                    "velocity": 0.28346456692913385,
                    "duration": 0.06030266666667217
                },
                {
                    "name": "G#5",
                    "midi": 80,
                    "time": 166.25445199999794,
                    "velocity": 0.2677165354330709,
                    "duration": 0.06030266666667217
                },
                {
                    "name": "F#5",
                    "midi": 78,
                    "time": 166.3147546666646,
                    "velocity": 0.28346456692913385,
                    "duration": 0.06030266666667217
                },
                {
                    "name": "G#5",
                    "midi": 80,
                    "time": 166.37505733333128,
                    "velocity": 0.2677165354330709,
                    "duration": 0.06030266666667217
                },
                {
                    "name": "F#5",
                    "midi": 78,
                    "time": 166.43535999999796,
                    "velocity": 0.28346456692913385,
                    "duration": 0.06030266666667217
                },
                {
                    "name": "G#5",
                    "midi": 80,
                    "time": 166.49566266666463,
                    "velocity": 0.25196850393700787,
                    "duration": 0.06030266666667217
                },
                {
                    "name": "F#5",
                    "midi": 78,
                    "time": 166.5559653333313,
                    "velocity": 0.28346456692913385,
                    "duration": 0.06030266666667217
                },
                {
                    "name": "G#5",
                    "midi": 80,
                    "time": 166.61626799999797,
                    "velocity": 0.25984251968503935,
                    "duration": 0.06030266666667217
                },
                {
                    "name": "F#5",
                    "midi": 78,
                    "time": 166.67657066666465,
                    "velocity": 0.23622047244094488,
                    "duration": 0.06030266666667217
                },
                {
                    "name": "G#5",
                    "midi": 80,
                    "time": 166.73687333333132,
                    "velocity": 0.2677165354330709,
                    "duration": 0.06030266666667217
                },
                {
                    "name": "F#5",
                    "midi": 78,
                    "time": 166.797175999998,
                    "velocity": 0.2440944881889764,
                    "duration": 0.09045399999999404
                },
                {
                    "name": "E5",
                    "midi": 76,
                    "time": 166.88762999999798,
                    "velocity": 0.25984251968503935,
                    "duration": 0.09045399999999404
                },
                {
                    "name": "G#5",
                    "midi": 80,
                    "time": 166.97808399999798,
                    "velocity": 0.29133858267716534,
                    "duration": 0.09045399999999404
                },
                {
                    "name": "F#5",
                    "midi": 78,
                    "time": 167.06853799999797,
                    "velocity": 0.25984251968503935,
                    "duration": 0.09045399999999404
                },
                {
                    "name": "E5",
                    "midi": 76,
                    "time": 167.15899199999797,
                    "velocity": 0.2755905511811024,
                    "duration": 0.5427239999999927
                },
                {
                    "name": "A4",
                    "midi": 69,
                    "time": 167.70171599999796,
                    "velocity": 0.3543307086614173,
                    "duration": 1.0854480000000137
                },
                {
                    "name": "C#5",
                    "midi": 73,
                    "time": 167.70171599999796,
                    "velocity": 0.3543307086614173,
                    "duration": 1.0854480000000137
                },
                {
                    "name": "A5",
                    "midi": 81,
                    "time": 167.70171599999796,
                    "velocity": 0.41732283464566927,
                    "duration": 1.0854480000000137
                },
                {
                    "name": "A4",
                    "midi": 69,
                    "time": 168.78716399999797,
                    "velocity": 0.28346456692913385,
                    "duration": 0.5427239999999927
                },
                {
                    "name": "C#5",
                    "midi": 73,
                    "time": 168.78716399999797,
                    "velocity": 0.28346456692913385,
                    "duration": 0.5427239999999927
                },
                {
                    "name": "F#5",
                    "midi": 78,
                    "time": 168.78716399999797,
                    "velocity": 0.3464566929133858,
                    "duration": 0.4522699999999986
                },
                {
                    "name": "G#5",
                    "midi": 80,
                    "time": 169.23943399999797,
                    "velocity": 0.30708661417322836,
                    "duration": 0.09045399999999404
                },
                {
                    "name": "G#4",
                    "midi": 68,
                    "time": 169.32988799999796,
                    "velocity": 0.2755905511811024,
                    "duration": 1.0854480000000137
                },
                {
                    "name": "E5",
                    "midi": 76,
                    "time": 169.32988799999796,
                    "velocity": 0.33070866141732286,
                    "duration": 1.0854480000000137
                },
                {
                    "name": "B4",
                    "midi": 71,
                    "time": 169.32988799999796,
                    "velocity": 0.2755905511811024,
                    "duration": 1.0854480000000137
                },
                {
                    "name": "D#5",
                    "midi": 75,
                    "time": 170.41533599999798,
                    "velocity": 0.28346456692913385,
                    "duration": 0.3618160000000046
                },
                {
                    "name": "A4",
                    "midi": 69,
                    "time": 170.41533599999798,
                    "velocity": 0.23622047244094488,
                    "duration": 0.3618160000000046
                },
                {
                    "name": "F#4",
                    "midi": 66,
                    "time": 170.41533599999798,
                    "velocity": 0.23622047244094488,
                    "duration": 0.3618160000000046
                },
                {
                    "name": "B4",
                    "midi": 71,
                    "time": 171.500783999998,
                    "velocity": 0.5511811023622047,
                    "duration": 0.09045399999999404
                },
                {
                    "name": "G4",
                    "midi": 67,
                    "time": 171.591237999998,
                    "velocity": 0.48031496062992124,
                    "duration": 0.09045399999999404
                },
                {
                    "name": "B4",
                    "midi": 71,
                    "time": 171.68169199999798,
                    "velocity": 0.5511811023622047,
                    "duration": 0.09045399999999404
                },
                {
                    "name": "G4",
                    "midi": 67,
                    "time": 171.77214599999797,
                    "velocity": 0.47244094488188976,
                    "duration": 0.09045399999999404
                },
                {
                    "name": "B4",
                    "midi": 71,
                    "time": 171.86259999999797,
                    "velocity": 0.5511811023622047,
                    "duration": 0.09045399999999404
                },
                {
                    "name": "G4",
                    "midi": 67,
                    "time": 171.95305399999796,
                    "velocity": 0.48031496062992124,
                    "duration": 0.09045399999999404
                },
                {
                    "name": "B4",
                    "midi": 71,
                    "time": 172.04350799999796,
                    "velocity": 0.5511811023622047,
                    "duration": 0.09045399999999404
                },
                {
                    "name": "G4",
                    "midi": 67,
                    "time": 172.13396199999795,
                    "velocity": 0.47244094488188976,
                    "duration": 0.09045399999999404
                },
                {
                    "name": "B4",
                    "midi": 71,
                    "time": 172.22441599999794,
                    "velocity": 0.5511811023622047,
                    "duration": 0.09045399999999404
                },
                {
                    "name": "G4",
                    "midi": 67,
                    "time": 172.31486999999794,
                    "velocity": 0.47244094488188976,
                    "duration": 0.09045399999999404
                },
                {
                    "name": "B4",
                    "midi": 71,
                    "time": 172.40532399999793,
                    "velocity": 0.5511811023622047,
                    "duration": 0.09045399999999404
                },
                {
                    "name": "G4",
                    "midi": 67,
                    "time": 172.49577799999793,
                    "velocity": 0.4645669291338583,
                    "duration": 0.09045399999999404
                },
                {
                    "name": "B4",
                    "midi": 71,
                    "time": 172.58623199999792,
                    "velocity": 0.5511811023622047,
                    "duration": 0.09045399999999404
                },
                {
                    "name": "G4",
                    "midi": 67,
                    "time": 172.67668599999791,
                    "velocity": 0.48031496062992124,
                    "duration": 0.09045399999999404
                },
                {
                    "name": "B4",
                    "midi": 71,
                    "time": 172.7671399999979,
                    "velocity": 0.5511811023622047,
                    "duration": 0.09045399999999404
                },
                {
                    "name": "G4",
                    "midi": 67,
                    "time": 172.8575939999979,
                    "velocity": 0.47244094488188976,
                    "duration": 0.09045399999999404
                },
                {
                    "name": "B4",
                    "midi": 71,
                    "time": 172.9480479999979,
                    "velocity": 0.5511811023622047,
                    "duration": 0.09045399999999404
                },
                {
                    "name": "G4",
                    "midi": 67,
                    "time": 173.0385019999979,
                    "velocity": 0.48031496062992124,
                    "duration": 0.09045399999999404
                },
                {
                    "name": "B4",
                    "midi": 71,
                    "time": 173.12895599999788,
                    "velocity": 0.5511811023622047,
                    "duration": 0.09045399999999404
                },
                {
                    "name": "G4",
                    "midi": 67,
                    "time": 173.21940999999788,
                    "velocity": 0.47244094488188976,
                    "duration": 0.09045399999999404
                },
                {
                    "name": "B4",
                    "midi": 71,
                    "time": 173.30986399999787,
                    "velocity": 0.5511811023622047,
                    "duration": 0.09045399999999404
                },
                {
                    "name": "G4",
                    "midi": 67,
                    "time": 173.40031799999787,
                    "velocity": 0.47244094488188976,
                    "duration": 0.09045399999999404
                },
                {
                    "name": "B4",
                    "midi": 71,
                    "time": 173.49077199999786,
                    "velocity": 0.5511811023622047,
                    "duration": 0.09045399999999404
                },
                {
                    "name": "G4",
                    "midi": 67,
                    "time": 173.58122599999786,
                    "velocity": 0.4645669291338583,
                    "duration": 0.09045399999999404
                },
                {
                    "name": "B4",
                    "midi": 71,
                    "time": 173.67167999999785,
                    "velocity": 0.5511811023622047,
                    "duration": 0.09045399999999404
                },
                {
                    "name": "G4",
                    "midi": 67,
                    "time": 173.76213399999784,
                    "velocity": 0.48031496062992124,
                    "duration": 0.09045399999999404
                },
                {
                    "name": "B4",
                    "midi": 71,
                    "time": 173.85258799999784,
                    "velocity": 0.5511811023622047,
                    "duration": 0.09045399999999404
                },
                {
                    "name": "G4",
                    "midi": 67,
                    "time": 173.94304199999783,
                    "velocity": 0.47244094488188976,
                    "duration": 0.09045399999999404
                },
                {
                    "name": "B4",
                    "midi": 71,
                    "time": 174.03349599999783,
                    "velocity": 0.5511811023622047,
                    "duration": 0.09045399999999404
                },
                {
                    "name": "G4",
                    "midi": 67,
                    "time": 174.12394999999782,
                    "velocity": 0.48031496062992124,
                    "duration": 0.09045399999999404
                },
                {
                    "name": "B4",
                    "midi": 71,
                    "time": 174.2144039999978,
                    "velocity": 0.5511811023622047,
                    "duration": 0.09045399999999404
                },
                {
                    "name": "G4",
                    "midi": 67,
                    "time": 174.3048579999978,
                    "velocity": 0.47244094488188976,
                    "duration": 0.09045399999999404
                },
                {
                    "name": "B4",
                    "midi": 71,
                    "time": 174.3953119999978,
                    "velocity": 0.5511811023622047,
                    "duration": 0.09045399999999404
                },
                {
                    "name": "G4",
                    "midi": 67,
                    "time": 174.4857659999978,
                    "velocity": 0.47244094488188976,
                    "duration": 0.09045399999999404
                },
                {
                    "name": "B4",
                    "midi": 71,
                    "time": 174.5762199999978,
                    "velocity": 0.5511811023622047,
                    "duration": 0.09045399999999404
                },
                {
                    "name": "G4",
                    "midi": 67,
                    "time": 174.66667399999778,
                    "velocity": 0.4645669291338583,
                    "duration": 0.09045399999999404
                },
                {
                    "name": "B4",
                    "midi": 71,
                    "time": 174.75712799999778,
                    "velocity": 0.5511811023622047,
                    "duration": 0.09045399999999404
                },
                {
                    "name": "G4",
                    "midi": 67,
                    "time": 174.84758199999777,
                    "velocity": 0.48031496062992124,
                    "duration": 0.09045399999999404
                },
                {
                    "name": "B4",
                    "midi": 71,
                    "time": 174.93803599999777,
                    "velocity": 0.5511811023622047,
                    "duration": 0.09045399999999404
                },
                {
                    "name": "G4",
                    "midi": 67,
                    "time": 175.02848999999776,
                    "velocity": 0.47244094488188976,
                    "duration": 0.09045399999999404
                },
                {
                    "name": "B4",
                    "midi": 71,
                    "time": 175.11894399999775,
                    "velocity": 0.5511811023622047,
                    "duration": 0.09045399999999404
                },
                {
                    "name": "G4",
                    "midi": 67,
                    "time": 175.20939799999775,
                    "velocity": 0.48031496062992124,
                    "duration": 0.09045399999999404
                },
                {
                    "name": "B4",
                    "midi": 71,
                    "time": 175.29985199999774,
                    "velocity": 0.5511811023622047,
                    "duration": 0.09045399999999404
                },
                {
                    "name": "G4",
                    "midi": 67,
                    "time": 175.39030599999774,
                    "velocity": 0.47244094488188976,
                    "duration": 0.09045399999999404
                },
                {
                    "name": "B4",
                    "midi": 71,
                    "time": 175.48075999999773,
                    "velocity": 0.5511811023622047,
                    "duration": 0.09045399999999404
                },
                {
                    "name": "G4",
                    "midi": 67,
                    "time": 175.57121399999772,
                    "velocity": 0.47244094488188976,
                    "duration": 0.09045399999999404
                },
                {
                    "name": "B4",
                    "midi": 71,
                    "time": 175.66166799999772,
                    "velocity": 0.5511811023622047,
                    "duration": 0.09045399999999404
                },
                {
                    "name": "G4",
                    "midi": 67,
                    "time": 175.7521219999977,
                    "velocity": 0.4645669291338583,
                    "duration": 0.09045399999999404
                },
                {
                    "name": "F4",
                    "midi": 65,
                    "time": 175.8425759999977,
                    "velocity": 0.6535433070866141,
                    "duration": 0.10854480000000422
                },
                {
                    "name": "G4",
                    "midi": 67,
                    "time": 175.9511207999977,
                    "velocity": 0.5275590551181102,
                    "duration": 0.10854480000000422
                },
                {
                    "name": "B4",
                    "midi": 71,
                    "time": 176.05966559999771,
                    "velocity": 0.5511811023622047,
                    "duration": 0.10854480000000422
                },
                {
                    "name": "G4",
                    "midi": 67,
                    "time": 176.16821039999772,
                    "velocity": 0.5354330708661418,
                    "duration": 0.10854480000000422
                },
                {
                    "name": "F4",
                    "midi": 65,
                    "time": 176.27675519999772,
                    "velocity": 0.5354330708661418,
                    "duration": 0.10854480000000422
                },
                {
                    "name": "D4",
                    "midi": 62,
                    "time": 176.38529999999773,
                    "velocity": 0.6377952755905512,
                    "duration": 0.10854480000000422
                },
                {
                    "name": "F4",
                    "midi": 65,
                    "time": 176.49384479999773,
                    "velocity": 0.5275590551181102,
                    "duration": 0.10854480000000422
                },
                {
                    "name": "G4",
                    "midi": 67,
                    "time": 176.60238959999774,
                    "velocity": 0.5511811023622047,
                    "duration": 0.10854480000000422
                },
                {
                    "name": "F4",
                    "midi": 65,
                    "time": 176.71093439999774,
                    "velocity": 0.5354330708661418,
                    "duration": 0.10854480000000422
                },
                {
                    "name": "D4",
                    "midi": 62,
                    "time": 176.81947919999774,
                    "velocity": 0.5354330708661418,
                    "duration": 0.10854480000000422
                },
                {
                    "name": "B3",
                    "midi": 59,
                    "time": 176.92802399999775,
                    "velocity": 0.6062992125984252,
                    "duration": 0.10854480000000422
                },
                {
                    "name": "D4",
                    "midi": 62,
                    "time": 177.03656879999775,
                    "velocity": 0.4881889763779528,
                    "duration": 0.10854480000000422
                },
                {
                    "name": "F4",
                    "midi": 65,
                    "time": 177.14511359999776,
                    "velocity": 0.5275590551181102,
                    "duration": 0.10854480000000422
                },
                {
                    "name": "D4",
                    "midi": 62,
                    "time": 177.25365839999776,
                    "velocity": 0.49606299212598426,
                    "duration": 0.10854480000000422
                },
                {
                    "name": "B3",
                    "midi": 59,
                    "time": 177.36220319999777,
                    "velocity": 0.49606299212598426,
                    "duration": 0.10854480000000422
                },
                {
                    "name": "B4",
                    "midi": 71,
                    "time": 177.47074799999777,
                    "velocity": 0.7007874015748031,
                    "duration": 0.4522699999999986
                },
                {
                    "name": "D5",
                    "midi": 74,
                    "time": 177.92301799999777,
                    "velocity": 0.6299212598425197,
                    "duration": 0.09045399999999404
                },
                {
                    "name": "G5",
                    "midi": 79,
                    "time": 178.01347199999776,
                    "velocity": 0.7007874015748031,
                    "duration": 0.5427239999999927
                },
                {
                    "name": "B5",
                    "midi": 83,
                    "time": 178.55619599999775,
                    "velocity": 0.7165354330708661,
                    "duration": 0.4522699999999986
                },
                {
                    "name": "D6",
                    "midi": 86,
                    "time": 179.00846599999775,
                    "velocity": 0.6299212598425197,
                    "duration": 0.09045399999999404
                },
                {
                    "name": "G5",
                    "midi": 79,
                    "time": 179.09891999999775,
                    "velocity": 0.6456692913385826,
                    "duration": 0.5427239999999927
                },
                {
                    "name": "G6",
                    "midi": 91,
                    "time": 179.09891999999775,
                    "velocity": 0.7086614173228346,
                    "duration": 0.5427239999999927
                },
                {
                    "name": "G6",
                    "midi": 91,
                    "time": 179.64164399999774,
                    "velocity": 0.6771653543307087,
                    "duration": 0.5427239999999927
                },
                {
                    "name": "G5",
                    "midi": 79,
                    "time": 179.64164399999774,
                    "velocity": 0.6220472440944882,
                    "duration": 0.5427239999999927
                },
                {
                    "name": "G5",
                    "midi": 79,
                    "time": 180.18436799999773,
                    "velocity": 0.7165354330708661,
                    "duration": 0.10854480000000422
                },
                {
                    "name": "G6",
                    "midi": 91,
                    "time": 180.18436799999773,
                    "velocity": 0.7165354330708661,
                    "duration": 0.10854480000000422
                },
                {
                    "name": "D#6",
                    "midi": 87,
                    "time": 180.29291279999774,
                    "velocity": 0.5748031496062992,
                    "duration": 0.10854480000000422
                },
                {
                    "name": "G6",
                    "midi": 91,
                    "time": 180.40145759999774,
                    "velocity": 0.6062992125984252,
                    "duration": 0.10854480000000422
                },
                {
                    "name": "D#6",
                    "midi": 87,
                    "time": 180.51000239999775,
                    "velocity": 0.5826771653543307,
                    "duration": 0.10854480000000422
                },
                {
                    "name": "C6",
                    "midi": 84,
                    "time": 180.61854719999775,
                    "velocity": 0.5826771653543307,
                    "duration": 0.10854480000000422
                },
                {
                    "name": "G5",
                    "midi": 79,
                    "time": 180.72709199999775,
                    "velocity": 0.7165354330708661,
                    "duration": 0.10854480000000422
                },
                {
                    "name": "C6",
                    "midi": 84,
                    "time": 180.83563679999776,
                    "velocity": 0.5748031496062992,
                    "duration": 0.10854480000000422
                },
                {
                    "name": "D#6",
                    "midi": 87,
                    "time": 180.94418159999776,
                    "velocity": 0.6062992125984252,
                    "duration": 0.10854480000000422
                },
                {
                    "name": "C6",
                    "midi": 84,
                    "time": 181.05272639999777,
                    "velocity": 0.5826771653543307,
                    "duration": 0.10854480000000422
                },
                {
                    "name": "G5",
                    "midi": 79,
                    "time": 181.16127119999777,
                    "velocity": 0.5826771653543307,
                    "duration": 0.10854480000000422
                },
                {
                    "name": "D#5",
                    "midi": 75,
                    "time": 181.26981599999777,
                    "velocity": 0.7165354330708661,
                    "duration": 0.10854480000000422
                },
                {
                    "name": "G5",
                    "midi": 79,
                    "time": 181.37836079999778,
                    "velocity": 0.5748031496062992,
                    "duration": 0.10854480000000422
                },
                {
                    "name": "C6",
                    "midi": 84,
                    "time": 181.48690559999778,
                    "velocity": 0.6062992125984252,
                    "duration": 0.10854480000000422
                },
                {
                    "name": "G5",
                    "midi": 79,
                    "time": 181.5954503999978,
                    "velocity": 0.5826771653543307,
                    "duration": 0.10854480000000422
                },
                {
                    "name": "D#5",
                    "midi": 75,
                    "time": 181.7039951999978,
                    "velocity": 0.5826771653543307,
                    "duration": 0.10854480000000422
                },
                {
                    "name": "C5",
                    "midi": 72,
                    "time": 181.8125399999978,
                    "velocity": 0.7165354330708661,
                    "duration": 0.10854480000000422
                },
                {
                    "name": "D#5",
                    "midi": 75,
                    "time": 181.9210847999978,
                    "velocity": 0.5748031496062992,
                    "duration": 0.10854480000000422
                },
                {
                    "name": "G5",
                    "midi": 79,
                    "time": 182.0296295999978,
                    "velocity": 0.6062992125984252,
                    "duration": 0.10854480000000422
                },
                {
                    "name": "D#5",
                    "midi": 75,
                    "time": 182.1381743999978,
                    "velocity": 0.5826771653543307,
                    "duration": 0.10854480000000422
                },
                {
                    "name": "C5",
                    "midi": 72,
                    "time": 182.2467191999978,
                    "velocity": 0.5826771653543307,
                    "duration": 0.10854480000000422
                },
                {
                    "name": "G4",
                    "midi": 67,
                    "time": 182.35526399999782,
                    "velocity": 0.7165354330708661,
                    "duration": 0.10854480000000422
                },
                {
                    "name": "C5",
                    "midi": 72,
                    "time": 182.46380879999782,
                    "velocity": 0.5748031496062992,
                    "duration": 0.10854480000000422
                },
                {
                    "name": "D#5",
                    "midi": 75,
                    "time": 182.57235359999783,
                    "velocity": 0.6062992125984252,
                    "duration": 0.10854480000000422
                },
                {
                    "name": "C5",
                    "midi": 72,
                    "time": 182.68089839999783,
                    "velocity": 0.5826771653543307,
                    "duration": 0.10854480000000422
                },
                {
                    "name": "G4",
                    "midi": 67,
                    "time": 182.78944319999783,
                    "velocity": 0.5826771653543307,
                    "duration": 0.10854480000000422
                },
                {
                    "name": "D#4",
                    "midi": 63,
                    "time": 182.89798799999784,
                    "velocity": 0.7165354330708661,
                    "duration": 0.10854480000000422
                },
                {
                    "name": "G4",
                    "midi": 67,
                    "time": 183.00653279999784,
                    "velocity": 0.5748031496062992,
                    "duration": 0.10854480000000422
                },
                {
                    "name": "C5",
                    "midi": 72,
                    "time": 183.11507759999785,
                    "velocity": 0.6062992125984252,
                    "duration": 0.10854480000000422
                },
                {
                    "name": "G4",
                    "midi": 67,
                    "time": 183.22362239999785,
                    "velocity": 0.5826771653543307,
                    "duration": 0.10854480000000422
                },
                {
                    "name": "D#4",
                    "midi": 63,
                    "time": 183.33216719999785,
                    "velocity": 0.5826771653543307,
                    "duration": 0.10854480000000422
                },
                {
                    "name": "D#4",
                    "midi": 63,
                    "time": 183.44071199999786,
                    "velocity": 0.7165354330708661,
                    "duration": 0.10854480000000422
                },
                {
                    "name": "G4",
                    "midi": 67,
                    "time": 183.54925679999786,
                    "velocity": 0.5748031496062992,
                    "duration": 0.10854480000000422
                },
                {
                    "name": "C5",
                    "midi": 72,
                    "time": 183.65780159999787,
                    "velocity": 0.6062992125984252,
                    "duration": 0.10854480000000422
                },
                {
                    "name": "G4",
                    "midi": 67,
                    "time": 183.76634639999787,
                    "velocity": 0.5826771653543307,
                    "duration": 0.10854480000000422
                },
                {
                    "name": "D#4",
                    "midi": 63,
                    "time": 183.87489119999788,
                    "velocity": 0.5826771653543307,
                    "duration": 0.10854480000000422
                },
                {
                    "name": "D#4",
                    "midi": 63,
                    "time": 183.98343599999788,
                    "velocity": 0.7165354330708661,
                    "duration": 0.10854480000000422
                },
                {
                    "name": "G4",
                    "midi": 67,
                    "time": 184.09198079999788,
                    "velocity": 0.5748031496062992,
                    "duration": 0.10854480000000422
                },
                {
                    "name": "C5",
                    "midi": 72,
                    "time": 184.2005255999979,
                    "velocity": 0.6062992125984252,
                    "duration": 0.10854480000000422
                },
                {
                    "name": "G4",
                    "midi": 67,
                    "time": 184.3090703999979,
                    "velocity": 0.5826771653543307,
                    "duration": 0.10854480000000422
                },
                {
                    "name": "D#4",
                    "midi": 63,
                    "time": 184.4176151999979,
                    "velocity": 0.5826771653543307,
                    "duration": 0.10854480000000422
                },
                {
                    "name": "C#4",
                    "midi": 61,
                    "time": 184.5261599999979,
                    "velocity": 0.6535433070866141,
                    "duration": 0.10854480000000422
                },
                {
                    "name": "D#4",
                    "midi": 63,
                    "time": 184.6347047999979,
                    "velocity": 0.5275590551181102,
                    "duration": 0.10854480000000422
                },
                {
                    "name": "G4",
                    "midi": 67,
                    "time": 184.7432495999979,
                    "velocity": 0.5511811023622047,
                    "duration": 0.10854480000000422
                },
                {
                    "name": "D#4",
                    "midi": 63,
                    "time": 184.8517943999979,
                    "velocity": 0.5354330708661418,
                    "duration": 0.10854480000000422
                },
                {
                    "name": "C#4",
                    "midi": 61,
                    "time": 184.96033919999792,
                    "velocity": 0.5354330708661418,
                    "duration": 0.10854480000000422
                },
                {
                    "name": "A#3",
                    "midi": 58,
                    "time": 185.06888399999792,
                    "velocity": 0.6377952755905512,
                    "duration": 0.10854480000000422
                },
                {
                    "name": "C#4",
                    "midi": 61,
                    "time": 185.17742879999793,
                    "velocity": 0.5275590551181102,
                    "duration": 0.10854480000000422
                },
                {
                    "name": "D#4",
                    "midi": 63,
                    "time": 185.28597359999793,
                    "velocity": 0.5511811023622047,
                    "duration": 0.10854480000000422
                },
                {
                    "name": "C#4",
                    "midi": 61,
                    "time": 185.39451839999793,
                    "velocity": 0.5354330708661418,
                    "duration": 0.10854480000000422
                },
                {
                    "name": "A#3",
                    "midi": 58,
                    "time": 185.50306319999794,
                    "velocity": 0.5354330708661418,
                    "duration": 0.10854480000000422
                },
                {
                    "name": "G3",
                    "midi": 55,
                    "time": 185.61160799999794,
                    "velocity": 0.6062992125984252,
                    "duration": 0.10854480000000422
                },
                {
                    "name": "A#3",
                    "midi": 58,
                    "time": 185.72015279999795,
                    "velocity": 0.4881889763779528,
                    "duration": 0.10854480000000422
                },
                {
                    "name": "C#4",
                    "midi": 61,
                    "time": 185.82869759999795,
                    "velocity": 0.5275590551181102,
                    "duration": 0.10854480000000422
                },
                {
                    "name": "A#3",
                    "midi": 58,
                    "time": 185.93724239999796,
                    "velocity": 0.49606299212598426,
                    "duration": 0.10854480000000422
                },
                {
                    "name": "G3",
                    "midi": 55,
                    "time": 186.04578719999796,
                    "velocity": 0.49606299212598426,
                    "duration": 0.10854480000000422
                },
                {
                    "name": "G4",
                    "midi": 67,
                    "time": 186.15433199999796,
                    "velocity": 0.7007874015748031,
                    "duration": 0.4522699999999986
                },
                {
                    "name": "A#4",
                    "midi": 70,
                    "time": 186.60660199999796,
                    "velocity": 0.6299212598425197,
                    "duration": 0.09045399999999404
                },
                {
                    "name": "D#5",
                    "midi": 75,
                    "time": 186.69705599999796,
                    "velocity": 0.7007874015748031,
                    "duration": 0.5427239999999927
                },
                {
                    "name": "G5",
                    "midi": 79,
                    "time": 187.23977999999795,
                    "velocity": 0.7165354330708661,
                    "duration": 0.4522699999999986
                },
                {
                    "name": "A#5",
                    "midi": 82,
                    "time": 187.69204999999795,
                    "velocity": 0.6299212598425197,
                    "duration": 0.09045399999999404
                },
                {
                    "name": "D#5",
                    "midi": 75,
                    "time": 187.78250399999794,
                    "velocity": 0.6456692913385826,
                    "duration": 0.5427239999999927
                },
                {
                    "name": "D#6",
                    "midi": 87,
                    "time": 187.78250399999794,
                    "velocity": 0.7086614173228346,
                    "duration": 0.5427239999999927
                },
                {
                    "name": "D#5",
                    "midi": 75,
                    "time": 188.32522799999794,
                    "velocity": 0.6220472440944882,
                    "duration": 0.5427239999999927
                },
                {
                    "name": "D#6",
                    "midi": 87,
                    "time": 188.32522799999794,
                    "velocity": 0.6771653543307087,
                    "duration": 0.5427239999999927
                },
                {
                    "name": "D#6",
                    "midi": 87,
                    "time": 188.86795199999793,
                    "velocity": 0.7874015748031497,
                    "duration": 0.10854480000000422
                },
                {
                    "name": "G#6",
                    "midi": 92,
                    "time": 188.97649679999793,
                    "velocity": 0.6299212598425197,
                    "duration": 0.10854480000000422
                },
                {
                    "name": "C7",
                    "midi": 96,
                    "time": 189.08504159999794,
                    "velocity": 0.6535433070866141,
                    "duration": 0.10854480000000422
                },
                {
                    "name": "G#6",
                    "midi": 92,
                    "time": 189.19358639999794,
                    "velocity": 0.6377952755905512,
                    "duration": 0.10854480000000422
                },
                {
                    "name": "D#6",
                    "midi": 87,
                    "time": 189.30213119999794,
                    "velocity": 0.6299212598425197,
                    "duration": 0.10854480000000422
                },
                {
                    "name": "C6",
                    "midi": 84,
                    "time": 189.41067599999795,
                    "velocity": 0.7637795275590551,
                    "duration": 0.10854480000000422
                },
                {
                    "name": "D#6",
                    "midi": 87,
                    "time": 189.51922079999795,
                    "velocity": 0.6141732283464567,
                    "duration": 0.10854480000000422
                },
                {
                    "name": "G#6",
                    "midi": 92,
                    "time": 189.62776559999796,
                    "velocity": 0.6377952755905512,
                    "duration": 0.10854480000000422
                },
                {
                    "name": "D#6",
                    "midi": 87,
                    "time": 189.73631039999796,
                    "velocity": 0.6220472440944882,
                    "duration": 0.10854480000000422
                },
                {
                    "name": "C6",
                    "midi": 84,
                    "time": 189.84485519999797,
                    "velocity": 0.5905511811023622,
                    "duration": 0.10854480000000422
                },
                {
                    "name": "G#5",
                    "midi": 80,
                    "time": 189.95339999999797,
                    "velocity": 0.7480314960629921,
                    "duration": 0.10854480000000422
                },
                {
                    "name": "C6",
                    "midi": 84,
                    "time": 190.06194479999797,
                    "velocity": 0.6062992125984252,
                    "duration": 0.10854480000000422
                },
                {
                    "name": "D#6",
                    "midi": 87,
                    "time": 190.17048959999798,
                    "velocity": 0.6220472440944882,
                    "duration": 0.10854480000000422
                },
                {
                    "name": "C6",
                    "midi": 84,
                    "time": 190.27903439999798,
                    "velocity": 0.6062992125984252,
                    "duration": 0.10854480000000422
                },
                {
                    "name": "G#5",
                    "midi": 80,
                    "time": 190.387579199998,
                    "velocity": 0.6062992125984252,
                    "duration": 0.10854480000000422
                },
                {
                    "name": "D#5",
                    "midi": 75,
                    "time": 190.496123999998,
                    "velocity": 0.7322834645669292,
                    "duration": 0.10854480000000422
                },
                {
                    "name": "G#5",
                    "midi": 80,
                    "time": 190.604668799998,
                    "velocity": 0.5826771653543307,
                    "duration": 0.10854480000000422
                },
                {
                    "name": "C6",
                    "midi": 84,
                    "time": 190.713213599998,
                    "velocity": 0.6141732283464567,
                    "duration": 0.10854480000000422
                },
                {
                    "name": "G#5",
                    "midi": 80,
                    "time": 190.821758399998,
                    "velocity": 0.5826771653543307,
                    "duration": 0.10854480000000422
                },
                {
                    "name": "D#5",
                    "midi": 75,
                    "time": 190.930303199998,
                    "velocity": 0.5826771653543307,
                    "duration": 0.10854480000000422
                },
                {
                    "name": "C5",
                    "midi": 72,
                    "time": 191.038847999998,
                    "velocity": 0.7165354330708661,
                    "duration": 0.10854480000000422
                },
                {
                    "name": "D#5",
                    "midi": 75,
                    "time": 191.14739279999802,
                    "velocity": 0.5748031496062992,
                    "duration": 0.10854480000000422
                },
                {
                    "name": "G#5",
                    "midi": 80,
                    "time": 191.25593759999802,
                    "velocity": 0.6062992125984252,
                    "duration": 0.10854480000000422
                },
                {
                    "name": "D#5",
                    "midi": 75,
                    "time": 191.36448239999802,
                    "velocity": 0.5826771653543307,
                    "duration": 0.10854480000000422
                },
                {
                    "name": "C5",
                    "midi": 72,
                    "time": 191.47302719999803,
                    "velocity": 0.5826771653543307,
                    "duration": 0.10854480000000422
                },
                {
                    "name": "G#4",
                    "midi": 68,
                    "time": 191.58157199999803,
                    "velocity": 0.7165354330708661,
                    "duration": 0.10854480000000422
                },
                {
                    "name": "C5",
                    "midi": 72,
                    "time": 191.69011679999804,
                    "velocity": 0.5748031496062992,
                    "duration": 0.10854480000000422
                },
                {
                    "name": "D#5",
                    "midi": 75,
                    "time": 191.79866159999804,
                    "velocity": 0.6062992125984252,
                    "duration": 0.10854480000000422
                },
                {
                    "name": "C5",
                    "midi": 72,
                    "time": 191.90720639999805,
                    "velocity": 0.5826771653543307,
                    "duration": 0.10854480000000422
                },
                {
                    "name": "G#4",
                    "midi": 68,
                    "time": 192.01575119999805,
                    "velocity": 0.5826771653543307,
                    "duration": 0.10854480000000422
                },
                {
                    "name": "D#4",
                    "midi": 63,
                    "time": 192.12429599999805,
                    "velocity": 0.7165354330708661,
                    "duration": 0.10854480000000422
                },
                {
                    "name": "G#4",
                    "midi": 68,
                    "time": 192.23284079999806,
                    "velocity": 0.5748031496062992,
                    "duration": 0.10854480000000422
                },
                {
                    "name": "C5",
                    "midi": 72,
                    "time": 192.34138559999806,
                    "velocity": 0.6062992125984252,
                    "duration": 0.10854480000000422
                },
                {
                    "name": "G#4",
                    "midi": 68,
                    "time": 192.44993039999807,
                    "velocity": 0.5826771653543307,
                    "duration": 0.10854480000000422
                },
                {
                    "name": "D#4",
                    "midi": 63,
                    "time": 192.55847519999807,
                    "velocity": 0.5826771653543307,
                    "duration": 0.10854480000000422
                },
                {
                    "name": "C4",
                    "midi": 60,
                    "time": 192.66701999999808,
                    "velocity": 0.7165354330708661,
                    "duration": 0.10854480000000422
                },
                {
                    "name": "D#4",
                    "midi": 63,
                    "time": 192.77556479999808,
                    "velocity": 0.5748031496062992,
                    "duration": 0.10854480000000422
                },
                {
                    "name": "G#4",
                    "midi": 68,
                    "time": 192.88410959999808,
                    "velocity": 0.6062992125984252,
                    "duration": 0.10854480000000422
                },
                {
                    "name": "D#4",
                    "midi": 63,
                    "time": 192.9926543999981,
                    "velocity": 0.5826771653543307,
                    "duration": 0.10854480000000422
                },
                {
                    "name": "C4",
                    "midi": 60,
                    "time": 193.1011991999981,
                    "velocity": 0.5826771653543307,
                    "duration": 0.10854480000000422
                },
                {
                    "name": "F#4",
                    "midi": 66,
                    "time": 193.2097439999981,
                    "velocity": 0.6535433070866141,
                    "duration": 1.6281720000000064
                },
                {
                    "name": "C5",
                    "midi": 72,
                    "time": 194.8379159999981,
                    "velocity": 0.7007874015748031,
                    "duration": 0.4522699999999986
                },
                {
                    "name": "D#5",
                    "midi": 75,
                    "time": 195.2901859999981,
                    "velocity": 0.6692913385826772,
                    "duration": 0.09045399999999404
                },
                {
                    "name": "F#5",
                    "midi": 78,
                    "time": 195.3806399999981,
                    "velocity": 0.7244094488188977,
                    "duration": 0.5427239999999927
                },
                {
                    "name": "C6",
                    "midi": 84,
                    "time": 195.9233639999981,
                    "velocity": 0.7480314960629921,
                    "duration": 0.4522699999999986
                },
                {
                    "name": "D#6",
                    "midi": 87,
                    "time": 196.3756339999981,
                    "velocity": 0.6614173228346457,
                    "duration": 0.09045399999999404
                },
                {
                    "name": "F#6",
                    "midi": 90,
                    "time": 196.46608799999808,
                    "velocity": 0.7559055118110236,
                    "duration": 0.5427239999999927
                },
                {
                    "name": "F#6",
                    "midi": 90,
                    "time": 197.00881199999807,
                    "velocity": 0.7322834645669292,
                    "duration": 0.5427239999999927
                },
                {
                    "name": "F#6",
                    "midi": 90,
                    "time": 197.55153599999807,
                    "velocity": 0.8267716535433071,
                    "duration": 0.7236320000000092
                },
                {
                    "name": "F#6",
                    "midi": 90,
                    "time": 198.27516799999808,
                    "velocity": 0.6062992125984252,
                    "duration": 0.09045399999999404
                },
                {
                    "name": "D#6",
                    "midi": 87,
                    "time": 198.36562199999807,
                    "velocity": 0.5984251968503937,
                    "duration": 0.09045399999999404
                },
                {
                    "name": "C6",
                    "midi": 84,
                    "time": 198.45607599999806,
                    "velocity": 0.5905511811023622,
                    "duration": 0.09045399999999404
                },
                {
                    "name": "F#5",
                    "midi": 78,
                    "time": 198.54652999999806,
                    "velocity": 0.5905511811023622,
                    "duration": 0.09045399999999404
                },
                {
                    "name": "F#6",
                    "midi": 90,
                    "time": 198.63698399999805,
                    "velocity": 0.8110236220472441,
                    "duration": 0.7236320000000092
                },
                {
                    "name": "F#5",
                    "midi": 78,
                    "time": 199.36061599999806,
                    "velocity": 0.6062992125984252,
                    "duration": 0.09045399999999404
                },
                {
                    "name": "D#5",
                    "midi": 75,
                    "time": 199.45106999999805,
                    "velocity": 0.5984251968503937,
                    "duration": 0.09045399999999404
                },
                {
                    "name": "C5",
                    "midi": 72,
                    "time": 199.54152399999805,
                    "velocity": 0.5905511811023622,
                    "duration": 0.09045399999999404
                },
                {
                    "name": "F#4",
                    "midi": 66,
                    "time": 199.63197799999804,
                    "velocity": 0.5905511811023622,
                    "duration": 0.09045399999999404
                },
                {
                    "name": "F#5",
                    "midi": 78,
                    "time": 199.72243199999804,
                    "velocity": 0.7401574803149606,
                    "duration": 0.7236320000000092
                },
                {
                    "name": "F#4",
                    "midi": 66,
                    "time": 200.44606399999805,
                    "velocity": 0.5669291338582677,
                    "duration": 0.09045399999999404
                },
                {
                    "name": "D#4",
                    "midi": 63,
                    "time": 200.53651799999804,
                    "velocity": 0.5590551181102362,
                    "duration": 0.09045399999999404
                },
                {
                    "name": "C4",
                    "midi": 60,
                    "time": 200.62697199999803,
                    "velocity": 0.5433070866141733,
                    "duration": 0.09045399999999404
                },
                {
                    "name": "F#3",
                    "midi": 54,
                    "time": 200.71742599999803,
                    "velocity": 0.5433070866141733,
                    "duration": 0.09045399999999404
                },
                {
                    "name": "F#4",
                    "midi": 66,
                    "time": 200.80787999999802,
                    "velocity": 0.7165354330708661,
                    "duration": 0.18090799999998808
                },
                {
                    "name": "F#4",
                    "midi": 66,
                    "time": 200.988787999998,
                    "velocity": 0.5826771653543307,
                    "duration": 0.09045399999999404
                },
                {
                    "name": "D#4",
                    "midi": 63,
                    "time": 201.079241999998,
                    "velocity": 0.5511811023622047,
                    "duration": 0.09045399999999404
                },
                {
                    "name": "C4",
                    "midi": 60,
                    "time": 201.169695999998,
                    "velocity": 0.5511811023622047,
                    "duration": 0.09045399999999404
                },
                {
                    "name": "F#3",
                    "midi": 54,
                    "time": 201.260149999998,
                    "velocity": 0.5433070866141733,
                    "duration": 0.09045399999999404
                },
                {
                    "name": "F#4",
                    "midi": 66,
                    "time": 201.350603999998,
                    "velocity": 0.7007874015748031,
                    "duration": 0.18090799999998808
                },
                {
                    "name": "F#4",
                    "midi": 66,
                    "time": 201.53151199999797,
                    "velocity": 0.5826771653543307,
                    "duration": 0.09045399999999404
                },
                {
                    "name": "D#4",
                    "midi": 63,
                    "time": 201.62196599999797,
                    "velocity": 0.5669291338582677,
                    "duration": 0.09045399999999404
                },
                {
                    "name": "C4",
                    "midi": 60,
                    "time": 201.71241999999796,
                    "velocity": 0.5669291338582677,
                    "duration": 0.09045399999999404
                },
                {
                    "name": "F#3",
                    "midi": 54,
                    "time": 201.80287399999796,
                    "velocity": 0.5590551181102362,
                    "duration": 0.09045399999999404
                },
                {
                    "name": "F#4",
                    "midi": 66,
                    "time": 201.89332799999795,
                    "velocity": 0.6614173228346457,
                    "duration": 0.5427239999999927
                },
                {
                    "name": "D#4",
                    "midi": 63,
                    "time": 204.06422399999795,
                    "velocity": 0.4566929133858268,
                    "duration": 0.5427239999999927
                },
                {
                    "name": "C4",
                    "midi": 60,
                    "time": 204.06422399999795,
                    "velocity": 0.4566929133858268,
                    "duration": 0.5427239999999927
                },
                {
                    "name": "C5",
                    "midi": 72,
                    "time": 205.14967199999793,
                    "velocity": 0.4645669291338583,
                    "duration": 0.5427239999999927
                },
                {
                    "name": "D#5",
                    "midi": 75,
                    "time": 205.14967199999793,
                    "velocity": 0.4645669291338583,
                    "duration": 0.5427239999999927
                },
                {
                    "name": "F4",
                    "midi": 65,
                    "time": 206.23511999999792,
                    "velocity": 0.4330708661417323,
                    "duration": 0.5427239999999927
                },
                {
                    "name": "C#4",
                    "midi": 61,
                    "time": 206.23511999999792,
                    "velocity": 0.4330708661417323,
                    "duration": 0.5427239999999927
                },
                {
                    "name": "C#5",
                    "midi": 73,
                    "time": 207.3205679999979,
                    "velocity": 0.4566929133858268,
                    "duration": 0.5427239999999927
                },
                {
                    "name": "F5",
                    "midi": 77,
                    "time": 207.3205679999979,
                    "velocity": 0.4566929133858268,
                    "duration": 0.5427239999999927
                },
                {
                    "name": "C#4",
                    "midi": 61,
                    "time": 208.4060159999979,
                    "velocity": 0.48031496062992124,
                    "duration": 2.170895999999999
                },
                {
                    "name": "A#4",
                    "midi": 70,
                    "time": 208.4060159999979,
                    "velocity": 0.48031496062992124,
                    "duration": 2.170895999999999
                },
                {
                    "name": "F4",
                    "midi": 65,
                    "time": 208.4060159999979,
                    "velocity": 0.48031496062992124,
                    "duration": 2.170895999999999
                },
                {
                    "name": "C4",
                    "midi": 60,
                    "time": 210.5769119999979,
                    "velocity": 0.4094488188976378,
                    "duration": 0.3618160000000046
                },
                {
                    "name": "D#4",
                    "midi": 63,
                    "time": 210.5769119999979,
                    "velocity": 0.4094488188976378,
                    "duration": 0.3618160000000046
                },
                {
                    "name": "G#4",
                    "midi": 68,
                    "time": 210.5769119999979,
                    "velocity": 0.4094488188976378,
                    "duration": 0.3618160000000046
                },
                {
                    "name": "C4",
                    "midi": 60,
                    "time": 212.2050839999979,
                    "velocity": 0.4330708661417323,
                    "duration": 0.4522699999999986
                },
                {
                    "name": "D#4",
                    "midi": 63,
                    "time": 212.2050839999979,
                    "velocity": 0.4330708661417323,
                    "duration": 0.4522699999999986
                },
                {
                    "name": "C4",
                    "midi": 60,
                    "time": 212.6573539999979,
                    "velocity": 0.3937007874015748,
                    "duration": 0.09045399999999404
                },
                {
                    "name": "D#4",
                    "midi": 63,
                    "time": 212.6573539999979,
                    "velocity": 0.3937007874015748,
                    "duration": 0.09045399999999404
                },
                {
                    "name": "C#4",
                    "midi": 61,
                    "time": 212.7478079999979,
                    "velocity": 0.4330708661417323,
                    "duration": 0.3618160000000046
                },
                {
                    "name": "F4",
                    "midi": 65,
                    "time": 212.7478079999979,
                    "velocity": 0.4330708661417323,
                    "duration": 0.3618160000000046
                },
                {
                    "name": "C4",
                    "midi": 60,
                    "time": 213.1096239999979,
                    "velocity": 0.3937007874015748,
                    "duration": 0.18090799999998808
                },
                {
                    "name": "D#4",
                    "midi": 63,
                    "time": 213.1096239999979,
                    "velocity": 0.3937007874015748,
                    "duration": 0.18090799999998808
                },
                {
                    "name": "C5",
                    "midi": 72,
                    "time": 213.6523479999979,
                    "velocity": 0.4566929133858268,
                    "duration": 0.18090799999998808
                },
                {
                    "name": "D#5",
                    "midi": 75,
                    "time": 213.6523479999979,
                    "velocity": 0.4566929133858268,
                    "duration": 0.18090799999998808
                },
                {
                    "name": "D#6",
                    "midi": 87,
                    "time": 214.19507199999788,
                    "velocity": 0.4409448818897638,
                    "duration": 0.18090799999998808
                },
                {
                    "name": "C6",
                    "midi": 84,
                    "time": 214.19507199999788,
                    "velocity": 0.4409448818897638,
                    "duration": 0.18090799999998808
                },
                {
                    "name": "C4",
                    "midi": 60,
                    "time": 214.82824999999787,
                    "velocity": 0.41732283464566927,
                    "duration": 0.09045399999999404
                },
                {
                    "name": "D#4",
                    "midi": 63,
                    "time": 214.82824999999787,
                    "velocity": 0.41732283464566927,
                    "duration": 0.09045399999999404
                },
                {
                    "name": "D#4",
                    "midi": 63,
                    "time": 214.91870399999786,
                    "velocity": 0.44881889763779526,
                    "duration": 0.3618160000000046
                },
                {
                    "name": "F#4",
                    "midi": 66,
                    "time": 214.91870399999786,
                    "velocity": 0.44881889763779526,
                    "duration": 0.3618160000000046
                },
                {
                    "name": "F4",
                    "midi": 65,
                    "time": 215.28051999999786,
                    "velocity": 0.4094488188976378,
                    "duration": 0.18090799999998808
                },
                {
                    "name": "C#4",
                    "midi": 61,
                    "time": 215.28051999999786,
                    "velocity": 0.4094488188976378,
                    "duration": 0.18090799999998808
                },
                {
                    "name": "C#5",
                    "midi": 73,
                    "time": 215.82324399999786,
                    "velocity": 0.47244094488188976,
                    "duration": 0.18090799999998808
                },
                {
                    "name": "F5",
                    "midi": 77,
                    "time": 215.82324399999786,
                    "velocity": 0.47244094488188976,
                    "duration": 0.18090799999998808
                },
                {
                    "name": "F6",
                    "midi": 89,
                    "time": 216.36596799999785,
                    "velocity": 0.4409448818897638,
                    "duration": 0.17713908333334416
                },
                {
                    "name": "C#6",
                    "midi": 85,
                    "time": 216.36596799999785,
                    "velocity": 0.4409448818897638,
                    "duration": 0.17713908333334416
                },
                {
                    "name": "F4",
                    "midi": 65,
                    "time": 216.99914599999786,
                    "velocity": 0.4094488188976378,
                    "duration": 0.09045399999999404
                },
                {
                    "name": "C#4",
                    "midi": 61,
                    "time": 216.99914599999786,
                    "velocity": 0.4094488188976378,
                    "duration": 0.09045399999999404
                },
                {
                    "name": "C#4",
                    "midi": 61,
                    "time": 217.08959999999786,
                    "velocity": 0.48031496062992124,
                    "duration": 2.170895999999999
                },
                {
                    "name": "F4",
                    "midi": 65,
                    "time": 217.08959999999786,
                    "velocity": 0.48031496062992124,
                    "duration": 2.170895999999999
                },
                {
                    "name": "A#4",
                    "midi": 70,
                    "time": 217.08959999999786,
                    "velocity": 0.48031496062992124,
                    "duration": 2.170895999999999
                },
                {
                    "name": "C4",
                    "midi": 60,
                    "time": 219.26049599999786,
                    "velocity": 0.4409448818897638,
                    "duration": 0.3618160000000046
                },
                {
                    "name": "D#4",
                    "midi": 63,
                    "time": 219.26049599999786,
                    "velocity": 0.4409448818897638,
                    "duration": 0.3618160000000046
                },
                {
                    "name": "G#4",
                    "midi": 68,
                    "time": 219.26049599999786,
                    "velocity": 0.4409448818897638,
                    "duration": 0.3618160000000046
                },
                {
                    "name": "C#4",
                    "midi": 61,
                    "time": 220.34594399999787,
                    "velocity": 0.4094488188976378,
                    "duration": 1.0854480000000137
                },
                {
                    "name": "E4",
                    "midi": 64,
                    "time": 220.34594399999787,
                    "velocity": 0.4094488188976378,
                    "duration": 1.0854480000000137
                },
                {
                    "name": "A4",
                    "midi": 69,
                    "time": 220.34594399999787,
                    "velocity": 0.4094488188976378,
                    "duration": 1.0854480000000137
                },
                {
                    "name": "C4",
                    "midi": 60,
                    "time": 221.43139199999789,
                    "velocity": 0.44881889763779526,
                    "duration": 0.3618160000000046
                },
                {
                    "name": "G#4",
                    "midi": 68,
                    "time": 221.43139199999789,
                    "velocity": 0.44881889763779526,
                    "duration": 0.3618160000000046
                },
                {
                    "name": "D#4",
                    "midi": 63,
                    "time": 221.43139199999789,
                    "velocity": 0.44881889763779526,
                    "duration": 0.3618160000000046
                },
                {
                    "name": "C#5",
                    "midi": 73,
                    "time": 222.5168399999979,
                    "velocity": 0.4566929133858268,
                    "duration": 1.0854480000000137
                },
                {
                    "name": "A5",
                    "midi": 81,
                    "time": 222.5168399999979,
                    "velocity": 0.4566929133858268,
                    "duration": 1.0854480000000137
                },
                {
                    "name": "E5",
                    "midi": 76,
                    "time": 222.5168399999979,
                    "velocity": 0.4566929133858268,
                    "duration": 1.0854480000000137
                },
                {
                    "name": "D#5",
                    "midi": 75,
                    "time": 223.6022879999979,
                    "velocity": 0.4409448818897638,
                    "duration": 0.3618160000000046
                },
                {
                    "name": "G#5",
                    "midi": 80,
                    "time": 223.6022879999979,
                    "velocity": 0.4409448818897638,
                    "duration": 0.3618160000000046
                },
                {
                    "name": "C5",
                    "midi": 72,
                    "time": 223.6022879999979,
                    "velocity": 0.4409448818897638,
                    "duration": 0.3618160000000046
                },
                {
                    "name": "D4",
                    "midi": 62,
                    "time": 224.68773599999793,
                    "velocity": 0.36220472440944884,
                    "duration": 0.3618160000000046
                },
                {
                    "name": "B3",
                    "midi": 59,
                    "time": 224.68773599999793,
                    "velocity": 0.36220472440944884,
                    "duration": 0.3618160000000046
                },
                {
                    "name": "G#4",
                    "midi": 68,
                    "time": 224.68773599999793,
                    "velocity": 0.36220472440944884,
                    "duration": 0.3618160000000046
                },
                {
                    "name": "C#4",
                    "midi": 61,
                    "time": 225.77318399999794,
                    "velocity": 0.3464566929133858,
                    "duration": 0.3618160000000046
                },
                {
                    "name": "A#3",
                    "midi": 58,
                    "time": 225.77318399999794,
                    "velocity": 0.3464566929133858,
                    "duration": 0.3618160000000046
                },
                {
                    "name": "G4",
                    "midi": 67,
                    "time": 225.77318399999794,
                    "velocity": 0.3464566929133858,
                    "duration": 0.3618160000000046
                },
                {
                    "name": "A3",
                    "midi": 57,
                    "time": 226.85863199999795,
                    "velocity": 0.30708661417322836,
                    "duration": 0.3618160000000046
                },
                {
                    "name": "C4",
                    "midi": 60,
                    "time": 226.85863199999795,
                    "velocity": 0.30708661417322836,
                    "duration": 0.3618160000000046
                },
                {
                    "name": "F#4",
                    "midi": 66,
                    "time": 226.85863199999795,
                    "velocity": 0.30708661417322836,
                    "duration": 0.3618160000000046
                },
                {
                    "name": "F#4",
                    "midi": 66,
                    "time": 227.94407999999797,
                    "velocity": 0.3700787401574803,
                    "duration": 0.3618160000000046
                },
                {
                    "name": "C4",
                    "midi": 60,
                    "time": 227.94407999999797,
                    "velocity": 0.3700787401574803,
                    "duration": 0.3618160000000046
                },
                {
                    "name": "G#3",
                    "midi": 56,
                    "time": 227.94407999999797,
                    "velocity": 0.3700787401574803,
                    "duration": 0.3618160000000046
                },
                {
                    "name": "D#5",
                    "midi": 75,
                    "time": 229.02952799999798,
                    "velocity": 0.5275590551181102,
                    "duration": 0.18090799999998808
                },
                {
                    "name": "F5",
                    "midi": 77,
                    "time": 229.21043599999797,
                    "velocity": 0.48031496062992124,
                    "duration": 0.18090799999998808
                },
                {
                    "name": "D#5",
                    "midi": 75,
                    "time": 229.39134399999796,
                    "velocity": 0.4645669291338583,
                    "duration": 0.18090799999998808
                },
                {
                    "name": "C#5",
                    "midi": 73,
                    "time": 229.57225199999795,
                    "velocity": 0.5433070866141733,
                    "duration": 0.18090799999998808
                },
                {
                    "name": "D#5",
                    "midi": 75,
                    "time": 229.75315999999793,
                    "velocity": 0.5196850393700787,
                    "duration": 0.18090799999998808
                },
                {
                    "name": "C#5",
                    "midi": 73,
                    "time": 229.93406799999792,
                    "velocity": 0.5039370078740157,
                    "duration": 0.18090799999998808
                },
                {
                    "name": "C5",
                    "midi": 72,
                    "time": 230.1149759999979,
                    "velocity": 0.5511811023622047,
                    "duration": 0.18090799999998808
                },
                {
                    "name": "F#5",
                    "midi": 78,
                    "time": 230.2958839999979,
                    "velocity": 0.5196850393700787,
                    "duration": 0.18090799999998808
                },
                {
                    "name": "F#5",
                    "midi": 78,
                    "time": 231.2004239999979,
                    "velocity": 0.5748031496062992,
                    "duration": 0.18090799999998808
                },
                {
                    "name": "G#5",
                    "midi": 80,
                    "time": 231.38133199999788,
                    "velocity": 0.5511811023622047,
                    "duration": 0.18090799999998808
                },
                {
                    "name": "F#5",
                    "midi": 78,
                    "time": 231.56223999999787,
                    "velocity": 0.5511811023622047,
                    "duration": 0.18090799999998808
                },
                {
                    "name": "F5",
                    "midi": 77,
                    "time": 231.74314799999786,
                    "velocity": 0.5826771653543307,
                    "duration": 0.18090799999998808
                },
                {
                    "name": "F#5",
                    "midi": 78,
                    "time": 231.92405599999785,
                    "velocity": 0.5590551181102362,
                    "duration": 0.18090799999998808
                },
                {
                    "name": "F5",
                    "midi": 77,
                    "time": 232.10496399999784,
                    "velocity": 0.5354330708661418,
                    "duration": 0.18090799999998808
                },
                {
                    "name": "D#5",
                    "midi": 75,
                    "time": 232.28587199999782,
                    "velocity": 0.6377952755905512,
                    "duration": 0.18090799999998808
                },
                {
                    "name": "D#6",
                    "midi": 87,
                    "time": 232.4667799999978,
                    "velocity": 0.5669291338582677,
                    "duration": 0.18090799999998808
                },
                {
                    "name": "D#6",
                    "midi": 87,
                    "time": 233.3713199999978,
                    "velocity": 0.6535433070866141,
                    "duration": 0.18090799999998808
                },
                {
                    "name": "F6",
                    "midi": 89,
                    "time": 233.5522279999978,
                    "velocity": 0.6062992125984252,
                    "duration": 0.18090799999998808
                },
                {
                    "name": "D#6",
                    "midi": 87,
                    "time": 233.73313599999778,
                    "velocity": 0.5748031496062992,
                    "duration": 0.18090799999998808
                },
                {
                    "name": "C#6",
                    "midi": 85,
                    "time": 233.91404399999777,
                    "velocity": 0.6062992125984252,
                    "duration": 0.18090799999998808
                },
                {
                    "name": "D#6",
                    "midi": 87,
                    "time": 234.09495199999776,
                    "velocity": 0.5905511811023622,
                    "duration": 0.18090799999998808
                },
                {
                    "name": "C#6",
                    "midi": 85,
                    "time": 234.27585999999775,
                    "velocity": 0.5748031496062992,
                    "duration": 0.18090799999998808
                },
                {
                    "name": "C6",
                    "midi": 84,
                    "time": 234.45676799999774,
                    "velocity": 0.5984251968503937,
                    "duration": 0.18090799999998808
                },
                {
                    "name": "C#6",
                    "midi": 85,
                    "time": 234.63767599999773,
                    "velocity": 0.5905511811023622,
                    "duration": 0.18090799999998808
                },
                {
                    "name": "C6",
                    "midi": 84,
                    "time": 234.8185839999977,
                    "velocity": 0.5669291338582677,
                    "duration": 0.18090799999998808
                },
                {
                    "name": "A#5",
                    "midi": 82,
                    "time": 234.9994919999977,
                    "velocity": 0.5984251968503937,
                    "duration": 0.18090799999998808
                },
                {
                    "name": "C6",
                    "midi": 84,
                    "time": 235.1803999999977,
                    "velocity": 0.5748031496062992,
                    "duration": 0.18090799999998808
                },
                {
                    "name": "A#5",
                    "midi": 82,
                    "time": 235.36130799999768,
                    "velocity": 0.5433070866141733,
                    "duration": 0.18090799999998808
                },
                {
                    "name": "G#5",
                    "midi": 80,
                    "time": 235.54221599999767,
                    "velocity": 0.5826771653543307,
                    "duration": 0.18090799999998808
                },
                {
                    "name": "A#5",
                    "midi": 82,
                    "time": 235.72312399999765,
                    "velocity": 0.5511811023622047,
                    "duration": 0.18090799999998808
                },
                {
                    "name": "G#5",
                    "midi": 80,
                    "time": 235.90403199999764,
                    "velocity": 0.5275590551181102,
                    "duration": 0.18090799999998808
                },
                {
                    "name": "F#5",
                    "midi": 78,
                    "time": 236.08493999999763,
                    "velocity": 0.5669291338582677,
                    "duration": 0.18090799999998808
                },
                {
                    "name": "G#5",
                    "midi": 80,
                    "time": 236.26584799999762,
                    "velocity": 0.5196850393700787,
                    "duration": 0.18090799999998808
                },
                {
                    "name": "F#5",
                    "midi": 78,
                    "time": 236.4467559999976,
                    "velocity": 0.49606299212598426,
                    "duration": 0.18090799999998808
                },
                {
                    "name": "F5",
                    "midi": 77,
                    "time": 236.6276639999976,
                    "velocity": 0.5748031496062992,
                    "duration": 0.3618160000000046
                },
                {
                    "name": "F4",
                    "midi": 65,
                    "time": 238.2558359999976,
                    "velocity": 0.4330708661417323,
                    "duration": 0.4522699999999986
                },
                {
                    "name": "F3",
                    "midi": 53,
                    "time": 238.2558359999976,
                    "velocity": 0.3464566929133858,
                    "duration": 0.4522699999999986
                },
                {
                    "name": "G#4",
                    "midi": 68,
                    "time": 238.7081059999976,
                    "velocity": 0.3858267716535433,
                    "duration": 0.09045399999999404
                },
                {
                    "name": "G#3",
                    "midi": 56,
                    "time": 238.7081059999976,
                    "velocity": 0.30708661417322836,
                    "duration": 0.09045399999999404
                },
                {
                    "name": "C#5",
                    "midi": 73,
                    "time": 238.7985599999976,
                    "velocity": 0.41732283464566927,
                    "duration": 0.5427239999999927
                },
                {
                    "name": "C#4",
                    "midi": 61,
                    "time": 238.7985599999976,
                    "velocity": 0.3858267716535433,
                    "duration": 0.5427239999999927
                },
                {
                    "name": "F5",
                    "midi": 77,
                    "time": 239.3412839999976,
                    "velocity": 0.44881889763779526,
                    "duration": 0.4522699999999986
                },
                {
                    "name": "F4",
                    "midi": 65,
                    "time": 239.3412839999976,
                    "velocity": 0.4094488188976378,
                    "duration": 0.4522699999999986
                },
                {
                    "name": "C#5",
                    "midi": 73,
                    "time": 239.79355399999758,
                    "velocity": 0.3937007874015748,
                    "duration": 0.09045399999999404
                },
                {
                    "name": "C#4",
                    "midi": 61,
                    "time": 239.79355399999758,
                    "velocity": 0.36220472440944884,
                    "duration": 0.09045399999999404
                },
                {
                    "name": "C5",
                    "midi": 72,
                    "time": 239.88400799999758,
                    "velocity": 0.41732283464566927,
                    "duration": 0.5427239999999927
                },
                {
                    "name": "C4",
                    "midi": 60,
                    "time": 239.88400799999758,
                    "velocity": 0.3858267716535433,
                    "duration": 0.5427239999999927
                },
                {
                    "name": "D#4",
                    "midi": 63,
                    "time": 240.42673199999757,
                    "velocity": 0.4094488188976378,
                    "duration": 0.4522699999999986
                },
                {
                    "name": "D#5",
                    "midi": 75,
                    "time": 240.42673199999757,
                    "velocity": 0.44881889763779526,
                    "duration": 0.4522699999999986
                },
                {
                    "name": "C4",
                    "midi": 60,
                    "time": 240.87900199999757,
                    "velocity": 0.36220472440944884,
                    "duration": 0.09045399999999404
                },
                {
                    "name": "C5",
                    "midi": 72,
                    "time": 240.87900199999757,
                    "velocity": 0.3937007874015748,
                    "duration": 0.09045399999999404
                },
                {
                    "name": "C#5",
                    "midi": 73,
                    "time": 240.96945599999756,
                    "velocity": 0.41732283464566927,
                    "duration": 0.5427239999999927
                },
                {
                    "name": "C#4",
                    "midi": 61,
                    "time": 240.96945599999756,
                    "velocity": 0.3858267716535433,
                    "duration": 0.5427239999999927
                },
                {
                    "name": "G#3",
                    "midi": 56,
                    "time": 241.51217999999756,
                    "velocity": 0.4094488188976378,
                    "duration": 1.0854480000000137
                },
                {
                    "name": "G#4",
                    "midi": 68,
                    "time": 241.51217999999756,
                    "velocity": 0.4094488188976378,
                    "duration": 1.0854480000000137
                },
                {
                    "name": "A#3",
                    "midi": 58,
                    "time": 242.59762799999757,
                    "velocity": 0.4094488188976378,
                    "duration": 0.4522699999999986
                },
                {
                    "name": "A#4",
                    "midi": 70,
                    "time": 242.59762799999757,
                    "velocity": 0.44881889763779526,
                    "duration": 0.4522699999999986
                },
                {
                    "name": "F#4",
                    "midi": 66,
                    "time": 243.04989799999757,
                    "velocity": 0.41732283464566927,
                    "duration": 0.09045399999999404
                },
                {
                    "name": "F4",
                    "midi": 65,
                    "time": 243.14035199999756,
                    "velocity": 0.4645669291338583,
                    "duration": 0.5427239999999927
                },
                {
                    "name": "G#4",
                    "midi": 68,
                    "time": 243.68307599999756,
                    "velocity": 0.48031496062992124,
                    "duration": 0.4522699999999986
                },
                {
                    "name": "F4",
                    "midi": 65,
                    "time": 244.13534599999755,
                    "velocity": 0.4330708661417323,
                    "duration": 0.09045399999999404
                },
                {
                    "name": "D#4",
                    "midi": 63,
                    "time": 244.22579999999755,
                    "velocity": 0.49606299212598426,
                    "duration": 0.5427239999999927
                },
                {
                    "name": "F#4",
                    "midi": 66,
                    "time": 244.76852399999754,
                    "velocity": 0.5196850393700787,
                    "duration": 0.4522699999999986
                },
                {
                    "name": "D#4",
                    "midi": 63,
                    "time": 245.22079399999754,
                    "velocity": 0.4645669291338583,
                    "duration": 0.09045399999999404
                },
                {
                    "name": "C4",
                    "midi": 60,
                    "time": 245.31124799999753,
                    "velocity": 0.5669291338582677,
                    "duration": 0.5427239999999927
                },
                {
                    "name": "F4",
                    "midi": 65,
                    "time": 245.85397199999753,
                    "velocity": 0.49606299212598426,
                    "duration": 1.0854480000000137
                },
                {
                    "name": "C#5",
                    "midi": 73,
                    "time": 246.93941999999754,
                    "velocity": 0.47244094488188976,
                    "duration": 0.4522699999999986
                },
                {
                    "name": "C#4",
                    "midi": 61,
                    "time": 246.93941999999754,
                    "velocity": 0.4409448818897638,
                    "duration": 0.4522699999999986
                },
                {
                    "name": "F5",
                    "midi": 77,
                    "time": 247.39168999999754,
                    "velocity": 0.4566929133858268,
                    "duration": 0.09045399999999404
                },
                {
                    "name": "F4",
                    "midi": 65,
                    "time": 247.39168999999754,
                    "velocity": 0.41732283464566927,
                    "duration": 0.09045399999999404
                },
                {
                    "name": "A#5",
                    "midi": 82,
                    "time": 247.48214399999753,
                    "velocity": 0.47244094488188976,
                    "duration": 0.5427239999999927
                },
                {
                    "name": "A#4",
                    "midi": 70,
                    "time": 247.48214399999753,
                    "velocity": 0.4015748031496063,
                    "duration": 0.5427239999999927
                },
                {
                    "name": "C#6",
                    "midi": 85,
                    "time": 248.02486799999753,
                    "velocity": 0.4881889763779528,
                    "duration": 0.4522699999999986
                },
                {
                    "name": "C#5",
                    "midi": 73,
                    "time": 248.02486799999753,
                    "velocity": 0.44881889763779526,
                    "duration": 0.4522699999999986
                },
                {
                    "name": "A#4",
                    "midi": 70,
                    "time": 248.47713799999752,
                    "velocity": 0.41732283464566927,
                    "duration": 0.09045399999999404
                },
                {
                    "name": "A#5",
                    "midi": 82,
                    "time": 248.47713799999752,
                    "velocity": 0.4566929133858268,
                    "duration": 0.09045399999999404
                },
                {
                    "name": "A5",
                    "midi": 81,
                    "time": 248.56759199999752,
                    "velocity": 0.48031496062992124,
                    "duration": 0.5427239999999927
                },
                {
                    "name": "A4",
                    "midi": 69,
                    "time": 248.56759199999752,
                    "velocity": 0.44881889763779526,
                    "duration": 0.5427239999999927
                },
                {
                    "name": "C5",
                    "midi": 72,
                    "time": 249.1103159999975,
                    "velocity": 0.4645669291338583,
                    "duration": 0.4522699999999986
                },
                {
                    "name": "C6",
                    "midi": 84,
                    "time": 249.1103159999975,
                    "velocity": 0.5118110236220472,
                    "duration": 0.4522699999999986
                },
                {
                    "name": "A4",
                    "midi": 69,
                    "time": 249.5625859999975,
                    "velocity": 0.4566929133858268,
                    "duration": 0.09045399999999404
                },
                {
                    "name": "A5",
                    "midi": 81,
                    "time": 249.5625859999975,
                    "velocity": 0.49606299212598426,
                    "duration": 0.09045399999999404
                },
                {
                    "name": "A#4",
                    "midi": 70,
                    "time": 249.6530399999975,
                    "velocity": 0.4015748031496063,
                    "duration": 0.5427239999999927
                },
                {
                    "name": "A#5",
                    "midi": 82,
                    "time": 249.6530399999975,
                    "velocity": 0.44881889763779526,
                    "duration": 0.5427239999999927
                },
                {
                    "name": "F5",
                    "midi": 77,
                    "time": 250.1957639999975,
                    "velocity": 0.4094488188976378,
                    "duration": 1.0854480000000137
                },
                {
                    "name": "F4",
                    "midi": 65,
                    "time": 250.1957639999975,
                    "velocity": 0.4094488188976378,
                    "duration": 1.0854480000000137
                },
                {
                    "name": "F#5",
                    "midi": 78,
                    "time": 251.2812119999975,
                    "velocity": 0.5354330708661418,
                    "duration": 0.4522699999999986
                },
                {
                    "name": "F#4",
                    "midi": 66,
                    "time": 251.2812119999975,
                    "velocity": 0.4881889763779528,
                    "duration": 0.5427239999999927
                },
                {
                    "name": "D#5",
                    "midi": 75,
                    "time": 251.7334819999975,
                    "velocity": 0.49606299212598426,
                    "duration": 0.09045399999999404
                },
                {
                    "name": "C#5",
                    "midi": 73,
                    "time": 251.8239359999975,
                    "velocity": 0.5511811023622047,
                    "duration": 0.5427239999999927
                },
                {
                    "name": "F5",
                    "midi": 77,
                    "time": 252.3666599999975,
                    "velocity": 0.5275590551181102,
                    "duration": 0.4522699999999986
                },
                {
                    "name": "C#5",
                    "midi": 73,
                    "time": 252.8189299999975,
                    "velocity": 0.48031496062992124,
                    "duration": 0.09045399999999404
                },
                {
                    "name": "C5",
                    "midi": 72,
                    "time": 252.9093839999975,
                    "velocity": 0.5511811023622047,
                    "duration": 0.5427239999999927
                },
                {
                    "name": "D#5",
                    "midi": 75,
                    "time": 253.45210799999748,
                    "velocity": 0.5590551181102362,
                    "duration": 0.4522699999999986
                },
                {
                    "name": "C5",
                    "midi": 72,
                    "time": 253.90437799999748,
                    "velocity": 0.5275590551181102,
                    "duration": 0.09045399999999404
                },
                {
                    "name": "A#4",
                    "midi": 70,
                    "time": 253.99483199999747,
                    "velocity": 0.6141732283464567,
                    "duration": 0.5427239999999927
                },
                {
                    "name": "C#5",
                    "midi": 73,
                    "time": 254.53755599999747,
                    "velocity": 0.5748031496062992,
                    "duration": 1.0854480000000137
                },
                {
                    "name": "A#4",
                    "midi": 70,
                    "time": 255.62300399999748,
                    "velocity": 0.5748031496062992,
                    "duration": 0.4522699999999986
                },
                {
                    "name": "A#5",
                    "midi": 82,
                    "time": 255.62300399999748,
                    "velocity": 0.6220472440944882,
                    "duration": 0.4522699999999986
                },
                {
                    "name": "C#6",
                    "midi": 85,
                    "time": 256.0752739999975,
                    "velocity": 0.5905511811023622,
                    "duration": 0.09045400000002246
                },
                {
                    "name": "C#5",
                    "midi": 73,
                    "time": 256.0752739999975,
                    "velocity": 0.5433070866141733,
                    "duration": 0.09045400000002246
                },
                {
                    "name": "F#5",
                    "midi": 78,
                    "time": 256.1657279999975,
                    "velocity": 0.5590551181102362,
                    "duration": 0.5427240000000211
                },
                {
                    "name": "F#6",
                    "midi": 90,
                    "time": 256.1657279999975,
                    "velocity": 0.6299212598425197,
                    "duration": 0.5427240000000211
                },
                {
                    "name": "A#5",
                    "midi": 82,
                    "time": 256.7084519999975,
                    "velocity": 0.5826771653543307,
                    "duration": 0.4522699999999986
                },
                {
                    "name": "A#6",
                    "midi": 94,
                    "time": 256.7084519999975,
                    "velocity": 0.6377952755905512,
                    "duration": 0.4522699999999986
                },
                {
                    "name": "F#6",
                    "midi": 90,
                    "time": 257.1607219999975,
                    "velocity": 0.5905511811023622,
                    "duration": 0.09045400000002246
                },
                {
                    "name": "F#5",
                    "midi": 78,
                    "time": 257.1607219999975,
                    "velocity": 0.5433070866141733,
                    "duration": 0.09045400000002246
                },
                {
                    "name": "F5",
                    "midi": 77,
                    "time": 257.25117599999754,
                    "velocity": 0.5826771653543307,
                    "duration": 0.5427240000000211
                },
                {
                    "name": "F6",
                    "midi": 89,
                    "time": 257.25117599999754,
                    "velocity": 0.6299212598425197,
                    "duration": 0.5427240000000211
                },
                {
                    "name": "G#5",
                    "midi": 80,
                    "time": 257.79389999999756,
                    "velocity": 0.6062992125984252,
                    "duration": 0.4522699999999986
                },
                {
                    "name": "G#6",
                    "midi": 92,
                    "time": 257.79389999999756,
                    "velocity": 0.6692913385826772,
                    "duration": 0.4522699999999986
                },
                {
                    "name": "F5",
                    "midi": 77,
                    "time": 258.24616999999756,
                    "velocity": 0.5905511811023622,
                    "duration": 0.09045400000002246
                },
                {
                    "name": "F6",
                    "midi": 89,
                    "time": 258.24616999999756,
                    "velocity": 0.6456692913385826,
                    "duration": 0.09045400000002246
                },
                {
                    "name": "F#5",
                    "midi": 78,
                    "time": 258.3366239999976,
                    "velocity": 0.6299212598425197,
                    "duration": 0.5427240000000211
                },
                {
                    "name": "F#6",
                    "midi": 90,
                    "time": 258.3366239999976,
                    "velocity": 0.7007874015748031,
                    "duration": 0.5427240000000211
                },
                {
                    "name": "C#5",
                    "midi": 73,
                    "time": 258.8793479999976,
                    "velocity": 0.5354330708661418,
                    "duration": 1.6281720000000064
                },
                {
                    "name": "C#6",
                    "midi": 85,
                    "time": 258.8793479999976,
                    "velocity": 0.6377952755905512,
                    "duration": 1.6281720000000064
                },
                {
                    "name": "F#6",
                    "midi": 90,
                    "time": 260.5075199999976,
                    "velocity": 0.7007874015748031,
                    "duration": 0.5427240000000211
                },
                {
                    "name": "F#5",
                    "midi": 78,
                    "time": 260.5075199999976,
                    "velocity": 0.6299212598425197,
                    "duration": 0.5427240000000211
                },
                {
                    "name": "D6",
                    "midi": 86,
                    "time": 261.05024399999763,
                    "velocity": 0.6535433070866141,
                    "duration": 1.6281720000000064
                },
                {
                    "name": "D5",
                    "midi": 74,
                    "time": 261.05024399999763,
                    "velocity": 0.5511811023622047,
                    "duration": 1.6281720000000064
                },
                {
                    "name": "G5",
                    "midi": 79,
                    "time": 262.67841599999764,
                    "velocity": 0.7559055118110236,
                    "duration": 0.5427240000000211
                },
                {
                    "name": "G6",
                    "midi": 91,
                    "time": 262.67841599999764,
                    "velocity": 0.7559055118110236,
                    "duration": 0.5427240000000211
                },
                {
                    "name": "D5",
                    "midi": 74,
                    "time": 263.22113999999766,
                    "velocity": 0.5826771653543307,
                    "duration": 1.6281720000000064
                },
                {
                    "name": "D6",
                    "midi": 86,
                    "time": 263.22113999999766,
                    "velocity": 0.7007874015748031,
                    "duration": 1.6281720000000064
                },
                {
                    "name": "G5",
                    "midi": 79,
                    "time": 264.84931199999767,
                    "velocity": 0.8031496062992126,
                    "duration": 0.5427240000000211
                },
                {
                    "name": "G6",
                    "midi": 91,
                    "time": 264.84931199999767,
                    "velocity": 0.8031496062992126,
                    "duration": 0.5427240000000211
                },
                {
                    "name": "E6",
                    "midi": 88,
                    "time": 265.3920359999977,
                    "velocity": 0.7401574803149606,
                    "duration": 1.6281720000000064
                },
                {
                    "name": "E5",
                    "midi": 76,
                    "time": 265.3920359999977,
                    "velocity": 0.6299212598425197,
                    "duration": 1.6281720000000064
                },
                {
                    "name": "G5",
                    "midi": 79,
                    "time": 267.5629319999977,
                    "velocity": 0.5905511811023622,
                    "duration": 0.4522700000001123
                },
                {
                    "name": "A#5",
                    "midi": 82,
                    "time": 267.65338599999774,
                    "velocity": 0.5590551181102362,
                    "duration": 0.2713620000000674
                },
                {
                    "name": "C#6",
                    "midi": 85,
                    "time": 267.74383999999776,
                    "velocity": 0.5511811023622047,
                    "duration": 0.09045400000002246
                },
                {
                    "name": "E6",
                    "midi": 88,
                    "time": 267.8342939999978,
                    "velocity": 0.5511811023622047,
                    "duration": 0.18090800000004492
                },
                {
                    "name": "G6",
                    "midi": 91,
                    "time": 267.9247479999978,
                    "velocity": 0.5748031496062992,
                    "duration": 0.09045400000002246
                },
                {
                    "name": "G5",
                    "midi": 79,
                    "time": 268.0152019999978,
                    "velocity": 0.5590551181102362,
                    "duration": 0.09045400000002246
                },
                {
                    "name": "G5",
                    "midi": 79,
                    "time": 268.64837999999787,
                    "velocity": 0.6062992125984252,
                    "duration": 0.4522700000001123
                },
                {
                    "name": "A#5",
                    "midi": 82,
                    "time": 268.7388339999979,
                    "velocity": 0.5669291338582677,
                    "duration": 0.2713620000000674
                },
                {
                    "name": "C#6",
                    "midi": 85,
                    "time": 268.8292879999979,
                    "velocity": 0.5669291338582677,
                    "duration": 0.09045400000002246
                },
                {
                    "name": "E6",
                    "midi": 88,
                    "time": 268.91974199999794,
                    "velocity": 0.5511811023622047,
                    "duration": 0.18090800000004492
                },
                {
                    "name": "G6",
                    "midi": 91,
                    "time": 269.01019599999796,
                    "velocity": 0.5826771653543307,
                    "duration": 0.09045400000002246
                },
                {
                    "name": "G5",
                    "midi": 79,
                    "time": 269.100649999998,
                    "velocity": 0.5669291338582677,
                    "duration": 0.09045400000002246
                },
                {
                    "name": "G5",
                    "midi": 79,
                    "time": 269.733827999998,
                    "velocity": 0.6062992125984252,
                    "duration": 0.4522700000001123
                },
                {
                    "name": "A#5",
                    "midi": 82,
                    "time": 269.82428199999805,
                    "velocity": 0.5590551181102362,
                    "duration": 0.2713620000000674
                },
                {
                    "name": "C#6",
                    "midi": 85,
                    "time": 269.9147359999981,
                    "velocity": 0.5590551181102362,
                    "duration": 0.09045400000002246
                },
                {
                    "name": "E6",
                    "midi": 88,
                    "time": 270.0051899999981,
                    "velocity": 0.5511811023622047,
                    "duration": 0.18090800000004492
                },
                {
                    "name": "G6",
                    "midi": 91,
                    "time": 270.0956439999981,
                    "velocity": 0.5984251968503937,
                    "duration": 0.09045400000002246
                },
                {
                    "name": "G5",
                    "midi": 79,
                    "time": 270.18609799999814,
                    "velocity": 0.5590551181102362,
                    "duration": 0.09045400000002246
                },
                {
                    "name": "G5",
                    "midi": 79,
                    "time": 270.8192759999982,
                    "velocity": 0.6062992125984252,
                    "duration": 0.4522700000001123
                },
                {
                    "name": "A#5",
                    "midi": 82,
                    "time": 270.9097299999982,
                    "velocity": 0.5590551181102362,
                    "duration": 0.2713620000000674
                },
                {
                    "name": "C#6",
                    "midi": 85,
                    "time": 271.0001839999982,
                    "velocity": 0.5748031496062992,
                    "duration": 0.09045400000002246
                },
                {
                    "name": "E6",
                    "midi": 88,
                    "time": 271.09063799999825,
                    "velocity": 0.5511811023622047,
                    "duration": 0.18090800000004492
                },
                {
                    "name": "G6",
                    "midi": 91,
                    "time": 271.1810919999983,
                    "velocity": 0.5984251968503937,
                    "duration": 0.09045400000002246
                },
                {
                    "name": "G5",
                    "midi": 79,
                    "time": 271.2715459999983,
                    "velocity": 0.5590551181102362,
                    "duration": 0.09045400000002246
                },
                {
                    "name": "A#5",
                    "midi": 82,
                    "time": 271.5429079999983,
                    "velocity": 0.6062992125984252,
                    "duration": 0.36181600000008984
                },
                {
                    "name": "C#6",
                    "midi": 85,
                    "time": 271.63336199999833,
                    "velocity": 0.5590551181102362,
                    "duration": 0.2713620000000674
                },
                {
                    "name": "E6",
                    "midi": 88,
                    "time": 271.72381599999835,
                    "velocity": 0.5826771653543307,
                    "duration": 0.09045400000002246
                },
                {
                    "name": "G6",
                    "midi": 91,
                    "time": 271.8142699999984,
                    "velocity": 0.5511811023622047,
                    "duration": 0.09045400000002246
                },
                {
                    "name": "C#6",
                    "midi": 85,
                    "time": 272.0856319999984,
                    "velocity": 0.6062992125984252,
                    "duration": 0.36181600000008984
                },
                {
                    "name": "E6",
                    "midi": 88,
                    "time": 272.1760859999984,
                    "velocity": 0.5669291338582677,
                    "duration": 0.2713620000000674
                },
                {
                    "name": "G6",
                    "midi": 91,
                    "time": 272.26653999999843,
                    "velocity": 0.5826771653543307,
                    "duration": 0.09045400000002246
                },
                {
                    "name": "A#6",
                    "midi": 94,
                    "time": 272.35699399999845,
                    "velocity": 0.5511811023622047,
                    "duration": 0.09045400000002246
                },
                {
                    "name": "E6",
                    "midi": 88,
                    "time": 272.7188099999985,
                    "velocity": 0.5748031496062992,
                    "duration": 0.09045400000002246
                },
                {
                    "name": "G6",
                    "midi": 91,
                    "time": 272.8092639999985,
                    "velocity": 0.5826771653543307,
                    "duration": 0.09045400000002246
                },
                {
                    "name": "A#6",
                    "midi": 94,
                    "time": 272.89971799999853,
                    "velocity": 0.5748031496062992,
                    "duration": 0.09045400000002246
                },
                {
                    "name": "E6",
                    "midi": 88,
                    "time": 273.26153399999856,
                    "velocity": 0.5748031496062992,
                    "duration": 0.09045400000002246
                },
                {
                    "name": "G6",
                    "midi": 91,
                    "time": 273.3519879999986,
                    "velocity": 0.5826771653543307,
                    "duration": 0.09045400000002246
                },
                {
                    "name": "A#6",
                    "midi": 94,
                    "time": 273.4424419999986,
                    "velocity": 0.5748031496062992,
                    "duration": 0.09045400000002246
                },
                {
                    "name": "E6",
                    "midi": 88,
                    "time": 273.7138039999986,
                    "velocity": 0.6062992125984252,
                    "duration": 0.09045400000002246
                },
                {
                    "name": "G6",
                    "midi": 91,
                    "time": 273.80425799999864,
                    "velocity": 0.5905511811023622,
                    "duration": 0.09045400000002246
                },
                {
                    "name": "A#6",
                    "midi": 94,
                    "time": 273.89471199999866,
                    "velocity": 0.5826771653543307,
                    "duration": 0.18090799999998808
                },
                {
                    "name": "C#6",
                    "midi": 85,
                    "time": 274.25652799999864,
                    "velocity": 0.6062992125984252,
                    "duration": 0.09045400000002246
                },
                {
                    "name": "E6",
                    "midi": 88,
                    "time": 274.34698199999866,
                    "velocity": 0.5905511811023622,
                    "duration": 0.09045400000002246
                },
                {
                    "name": "G6",
                    "midi": 91,
                    "time": 274.4374359999987,
                    "velocity": 0.5826771653543307,
                    "duration": 0.18090799999998808
                },
                {
                    "name": "A#5",
                    "midi": 82,
                    "time": 274.79925199999866,
                    "velocity": 0.6062992125984252,
                    "duration": 0.09045400000002246
                },
                {
                    "name": "C#6",
                    "midi": 85,
                    "time": 274.8897059999987,
                    "velocity": 0.5905511811023622,
                    "duration": 0.09045400000002246
                },
                {
                    "name": "E6",
                    "midi": 88,
                    "time": 274.9801599999987,
                    "velocity": 0.5826771653543307,
                    "duration": 0.18090799999998808
                },
                {
                    "name": "G5",
                    "midi": 79,
                    "time": 275.3419759999987,
                    "velocity": 0.6062992125984252,
                    "duration": 0.09045400000002246
                },
                {
                    "name": "A#5",
                    "midi": 82,
                    "time": 275.4324299999987,
                    "velocity": 0.5905511811023622,
                    "duration": 0.09045400000002246
                },
                {
                    "name": "C#6",
                    "midi": 85,
                    "time": 275.5228839999987,
                    "velocity": 0.5826771653543307,
                    "duration": 0.18090799999998808
                },
                {
                    "name": "E5",
                    "midi": 76,
                    "time": 275.8846999999987,
                    "velocity": 0.6062992125984252,
                    "duration": 0.09045400000002246
                },
                {
                    "name": "G5",
                    "midi": 79,
                    "time": 275.9751539999987,
                    "velocity": 0.5669291338582677,
                    "duration": 0.09045400000002246
                },
                {
                    "name": "A#5",
                    "midi": 82,
                    "time": 276.06560799999875,
                    "velocity": 0.5826771653543307,
                    "duration": 0.18090799999998808
                },
                {
                    "name": "C#5",
                    "midi": 73,
                    "time": 276.4274239999987,
                    "velocity": 0.6062992125984252,
                    "duration": 0.09045400000002246
                },
                {
                    "name": "E5",
                    "midi": 76,
                    "time": 276.51787799999875,
                    "velocity": 0.5905511811023622,
                    "duration": 0.09045400000002246
                },
                {
                    "name": "G5",
                    "midi": 79,
                    "time": 276.60833199999877,
                    "velocity": 0.5826771653543307,
                    "duration": 0.18090799999998808
                },
                {
                    "name": "A#4",
                    "midi": 70,
                    "time": 276.97014799999874,
                    "velocity": 0.6062992125984252,
                    "duration": 0.09045400000002246
                },
                {
                    "name": "C#5",
                    "midi": 73,
                    "time": 277.06060199999877,
                    "velocity": 0.5905511811023622,
                    "duration": 0.09045400000002246
                },
                {
                    "name": "E5",
                    "midi": 76,
                    "time": 277.1510559999988,
                    "velocity": 0.5826771653543307,
                    "duration": 0.18090799999998808
                },
                {
                    "name": "G4",
                    "midi": 67,
                    "time": 277.51287199999877,
                    "velocity": 0.6062992125984252,
                    "duration": 0.09045400000002246
                },
                {
                    "name": "A#4",
                    "midi": 70,
                    "time": 277.6033259999988,
                    "velocity": 0.5905511811023622,
                    "duration": 0.09045400000002246
                },
                {
                    "name": "C#5",
                    "midi": 73,
                    "time": 277.6937799999988,
                    "velocity": 0.5826771653543307,
                    "duration": 0.18090799999998808
                },
                {
                    "name": "E4",
                    "midi": 64,
                    "time": 278.0555959999988,
                    "velocity": 0.5669291338582677,
                    "duration": 0.09045400000002246
                },
                {
                    "name": "G4",
                    "midi": 67,
                    "time": 278.1460499999988,
                    "velocity": 0.5590551181102362,
                    "duration": 0.09045400000002246
                },
                {
                    "name": "A#4",
                    "midi": 70,
                    "time": 278.23650399999883,
                    "velocity": 0.5511811023622047,
                    "duration": 0.18090799999998808
                },
                {
                    "name": "C#4",
                    "midi": 61,
                    "time": 278.5983199999988,
                    "velocity": 0.5669291338582677,
                    "duration": 0.09045400000002246
                },
                {
                    "name": "E4",
                    "midi": 64,
                    "time": 278.68877399999883,
                    "velocity": 0.5590551181102362,
                    "duration": 0.09045400000002246
                },
                {
                    "name": "G4",
                    "midi": 67,
                    "time": 278.77922799999885,
                    "velocity": 0.5511811023622047,
                    "duration": 0.18090799999998808
                },
                {
                    "name": "A#3",
                    "midi": 58,
                    "time": 279.14104399999883,
                    "velocity": 0.5669291338582677,
                    "duration": 0.09045400000002246
                },
                {
                    "name": "C#4",
                    "midi": 61,
                    "time": 279.23149799999885,
                    "velocity": 0.5590551181102362,
                    "duration": 0.09045400000002246
                },
                {
                    "name": "E4",
                    "midi": 64,
                    "time": 279.3219519999989,
                    "velocity": 0.5511811023622047,
                    "duration": 0.18090799999998808
                },
                {
                    "name": "G3",
                    "midi": 55,
                    "time": 279.68376799999885,
                    "velocity": 0.5669291338582677,
                    "duration": 0.09045400000002246
                },
                {
                    "name": "A#3",
                    "midi": 58,
                    "time": 279.7742219999989,
                    "velocity": 0.5590551181102362,
                    "duration": 0.09045400000002246
                },
                {
                    "name": "C#4",
                    "midi": 61,
                    "time": 279.8646759999989,
                    "velocity": 0.5511811023622047,
                    "duration": 0.18090799999998808
                },
                {
                    "name": "E3",
                    "midi": 52,
                    "time": 280.22649199999887,
                    "velocity": 0.5669291338582677,
                    "duration": 0.09045400000002246
                },
                {
                    "name": "G3",
                    "midi": 55,
                    "time": 280.3169459999989,
                    "velocity": 0.5590551181102362,
                    "duration": 0.09045400000002246
                },
                {
                    "name": "A#3",
                    "midi": 58,
                    "time": 280.4073999999989,
                    "velocity": 0.5511811023622047,
                    "duration": 0.18090799999998808
                },
                {
                    "name": "C#3",
                    "midi": 49,
                    "time": 280.7692159999989,
                    "velocity": 0.5669291338582677,
                    "duration": 0.09045400000002246
                },
                {
                    "name": "E3",
                    "midi": 52,
                    "time": 280.8596699999989,
                    "velocity": 0.5590551181102362,
                    "duration": 0.09045400000002246
                },
                {
                    "name": "G3",
                    "midi": 55,
                    "time": 280.95012399999894,
                    "velocity": 0.5511811023622047,
                    "duration": 0.18090799999998808
                },
                {
                    "name": "A#2",
                    "midi": 46,
                    "time": 281.3119399999989,
                    "velocity": 0.5669291338582677,
                    "duration": 0.09045400000002246
                },
                {
                    "name": "C#3",
                    "midi": 49,
                    "time": 281.40239399999894,
                    "velocity": 0.5590551181102362,
                    "duration": 0.09045400000002246
                },
                {
                    "name": "E3",
                    "midi": 52,
                    "time": 281.49284799999896,
                    "velocity": 0.5511811023622047,
                    "duration": 0.18090799999998808
                },
                {
                    "name": "G2",
                    "midi": 43,
                    "time": 281.85466399999893,
                    "velocity": 0.5669291338582677,
                    "duration": 0.09045400000002246
                },
                {
                    "name": "A#2",
                    "midi": 46,
                    "time": 281.94511799999896,
                    "velocity": 0.5590551181102362,
                    "duration": 0.09045400000002246
                },
                {
                    "name": "C#3",
                    "midi": 49,
                    "time": 282.035571999999,
                    "velocity": 0.5511811023622047,
                    "duration": 0.18090799999998808
                },
                {
                    "name": "A#2",
                    "midi": 46,
                    "time": 282.21647999999897,
                    "velocity": 0.5590551181102362,
                    "duration": 0.09045400000002246
                },
                {
                    "name": "G2",
                    "midi": 43,
                    "time": 282.21647999999897,
                    "velocity": 0.5590551181102362,
                    "duration": 0.09045400000002246
                },
                {
                    "name": "E3",
                    "midi": 52,
                    "time": 282.306933999999,
                    "velocity": 0.49606299212598426,
                    "duration": 0.09045400000002246
                },
                {
                    "name": "A#2",
                    "midi": 46,
                    "time": 282.397387999999,
                    "velocity": 0.5590551181102362,
                    "duration": 0.09045400000002246
                },
                {
                    "name": "G2",
                    "midi": 43,
                    "time": 282.397387999999,
                    "velocity": 0.5590551181102362,
                    "duration": 0.09045400000002246
                },
                {
                    "name": "E3",
                    "midi": 52,
                    "time": 282.48784199999903,
                    "velocity": 0.49606299212598426,
                    "duration": 0.09045400000002246
                },
                {
                    "name": "A#2",
                    "midi": 46,
                    "time": 282.57829599999906,
                    "velocity": 0.5590551181102362,
                    "duration": 0.09045400000002246
                },
                {
                    "name": "G2",
                    "midi": 43,
                    "time": 282.57829599999906,
                    "velocity": 0.5590551181102362,
                    "duration": 0.09045400000002246
                },
                {
                    "name": "E3",
                    "midi": 52,
                    "time": 282.6687499999991,
                    "velocity": 0.49606299212598426,
                    "duration": 0.09045400000002246
                },
                {
                    "name": "A#2",
                    "midi": 46,
                    "time": 282.7592039999991,
                    "velocity": 0.5590551181102362,
                    "duration": 0.09045400000002246
                },
                {
                    "name": "G2",
                    "midi": 43,
                    "time": 282.7592039999991,
                    "velocity": 0.5590551181102362,
                    "duration": 0.09045400000002246
                },
                {
                    "name": "E3",
                    "midi": 52,
                    "time": 282.8496579999991,
                    "velocity": 0.49606299212598426,
                    "duration": 0.09045400000002246
                },
                {
                    "name": "A#2",
                    "midi": 46,
                    "time": 282.94011199999915,
                    "velocity": 0.5590551181102362,
                    "duration": 0.09045400000002246
                },
                {
                    "name": "G2",
                    "midi": 43,
                    "time": 282.94011199999915,
                    "velocity": 0.5590551181102362,
                    "duration": 0.09045400000002246
                },
                {
                    "name": "E3",
                    "midi": 52,
                    "time": 283.03056599999917,
                    "velocity": 0.49606299212598426,
                    "duration": 0.09045400000002246
                },
                {
                    "name": "G2",
                    "midi": 43,
                    "time": 283.1210199999992,
                    "velocity": 0.5590551181102362,
                    "duration": 0.09045400000002246
                },
                {
                    "name": "A#2",
                    "midi": 46,
                    "time": 283.1210199999992,
                    "velocity": 0.5590551181102362,
                    "duration": 0.09045400000002246
                },
                {
                    "name": "E3",
                    "midi": 52,
                    "time": 283.2114739999992,
                    "velocity": 0.49606299212598426,
                    "duration": 0.09045400000002246
                },
                {
                    "name": "A#2",
                    "midi": 46,
                    "time": 283.30192799999924,
                    "velocity": 0.5590551181102362,
                    "duration": 0.09045400000002246
                },
                {
                    "name": "G2",
                    "midi": 43,
                    "time": 283.30192799999924,
                    "velocity": 0.5590551181102362,
                    "duration": 0.09045400000002246
                },
                {
                    "name": "E3",
                    "midi": 52,
                    "time": 283.39238199999926,
                    "velocity": 0.49606299212598426,
                    "duration": 0.09045400000002246
                },
                {
                    "name": "G2",
                    "midi": 43,
                    "time": 283.4828359999993,
                    "velocity": 0.5590551181102362,
                    "duration": 0.09045400000002246
                },
                {
                    "name": "A#2",
                    "midi": 46,
                    "time": 283.4828359999993,
                    "velocity": 0.5590551181102362,
                    "duration": 0.09045400000002246
                },
                {
                    "name": "E3",
                    "midi": 52,
                    "time": 283.5732899999993,
                    "velocity": 0.49606299212598426,
                    "duration": 0.09045400000002246
                },
                {
                    "name": "A#2",
                    "midi": 46,
                    "time": 283.6637439999993,
                    "velocity": 0.5590551181102362,
                    "duration": 0.09045400000002246
                },
                {
                    "name": "G2",
                    "midi": 43,
                    "time": 283.6637439999993,
                    "velocity": 0.5590551181102362,
                    "duration": 0.09045400000002246
                },
                {
                    "name": "E3",
                    "midi": 52,
                    "time": 283.75419799999935,
                    "velocity": 0.49606299212598426,
                    "duration": 0.09045400000002246
                },
                {
                    "name": "A#2",
                    "midi": 46,
                    "time": 283.84465199999937,
                    "velocity": 0.5590551181102362,
                    "duration": 0.09045400000002246
                },
                {
                    "name": "G2",
                    "midi": 43,
                    "time": 283.84465199999937,
                    "velocity": 0.5590551181102362,
                    "duration": 0.09045400000002246
                },
                {
                    "name": "E3",
                    "midi": 52,
                    "time": 283.9351059999994,
                    "velocity": 0.49606299212598426,
                    "duration": 0.09045400000002246
                },
                {
                    "name": "A#2",
                    "midi": 46,
                    "time": 284.0255599999994,
                    "velocity": 0.5590551181102362,
                    "duration": 0.09045400000002246
                },
                {
                    "name": "G2",
                    "midi": 43,
                    "time": 284.0255599999994,
                    "velocity": 0.5590551181102362,
                    "duration": 0.09045400000002246
                },
                {
                    "name": "E3",
                    "midi": 52,
                    "time": 284.11601399999944,
                    "velocity": 0.49606299212598426,
                    "duration": 0.09045400000002246
                },
                {
                    "name": "G2",
                    "midi": 43,
                    "time": 284.20646799999946,
                    "velocity": 0.5590551181102362,
                    "duration": 0.09045400000002246
                },
                {
                    "name": "A#2",
                    "midi": 46,
                    "time": 284.20646799999946,
                    "velocity": 0.5590551181102362,
                    "duration": 0.09045400000002246
                },
                {
                    "name": "E3",
                    "midi": 52,
                    "time": 284.2969219999995,
                    "velocity": 0.49606299212598426,
                    "duration": 0.09045400000002246
                },
                {
                    "name": "G2",
                    "midi": 43,
                    "time": 284.3873759999995,
                    "velocity": 0.5590551181102362,
                    "duration": 0.09045400000002246
                },
                {
                    "name": "A#2",
                    "midi": 46,
                    "time": 284.3873759999995,
                    "velocity": 0.5590551181102362,
                    "duration": 0.09045400000002246
                },
                {
                    "name": "E3",
                    "midi": 52,
                    "time": 284.4778299999995,
                    "velocity": 0.49606299212598426,
                    "duration": 0.09045400000002246
                },
                {
                    "name": "A#2",
                    "midi": 46,
                    "time": 284.56828399999955,
                    "velocity": 0.5590551181102362,
                    "duration": 0.09045400000002246
                },
                {
                    "name": "G2",
                    "midi": 43,
                    "time": 284.56828399999955,
                    "velocity": 0.5590551181102362,
                    "duration": 0.09045400000002246
                },
                {
                    "name": "E3",
                    "midi": 52,
                    "time": 284.6587379999996,
                    "velocity": 0.49606299212598426,
                    "duration": 0.09045400000002246
                },
                {
                    "name": "G2",
                    "midi": 43,
                    "time": 284.7491919999996,
                    "velocity": 0.5590551181102362,
                    "duration": 0.09045400000002246
                },
                {
                    "name": "A#2",
                    "midi": 46,
                    "time": 284.7491919999996,
                    "velocity": 0.5590551181102362,
                    "duration": 0.09045400000002246
                },
                {
                    "name": "E3",
                    "midi": 52,
                    "time": 284.8396459999996,
                    "velocity": 0.49606299212598426,
                    "duration": 0.09045400000002246
                },
                {
                    "name": "G2",
                    "midi": 43,
                    "time": 284.93009999999964,
                    "velocity": 0.5590551181102362,
                    "duration": 0.09045400000002246
                },
                {
                    "name": "A#2",
                    "midi": 46,
                    "time": 284.93009999999964,
                    "velocity": 0.5590551181102362,
                    "duration": 0.09045400000002246
                },
                {
                    "name": "E3",
                    "midi": 52,
                    "time": 285.02055399999966,
                    "velocity": 0.49606299212598426,
                    "duration": 0.09045400000002246
                },
                {
                    "name": "A#2",
                    "midi": 46,
                    "time": 285.1110079999997,
                    "velocity": 0.5590551181102362,
                    "duration": 0.09045400000002246
                },
                {
                    "name": "G2",
                    "midi": 43,
                    "time": 285.1110079999997,
                    "velocity": 0.5590551181102362,
                    "duration": 0.09045400000002246
                },
                {
                    "name": "E3",
                    "midi": 52,
                    "time": 285.2014619999997,
                    "velocity": 0.49606299212598426,
                    "duration": 0.09045400000002246
                },
                {
                    "name": "G2",
                    "midi": 43,
                    "time": 285.29191599999973,
                    "velocity": 0.5590551181102362,
                    "duration": 0.09045400000002246
                },
                {
                    "name": "A#2",
                    "midi": 46,
                    "time": 285.29191599999973,
                    "velocity": 0.5590551181102362,
                    "duration": 0.09045400000002246
                },
                {
                    "name": "E3",
                    "midi": 52,
                    "time": 285.38236999999975,
                    "velocity": 0.49606299212598426,
                    "duration": 0.09045400000002246
                },
                {
                    "name": "G2",
                    "midi": 43,
                    "time": 285.4728239999998,
                    "velocity": 0.5590551181102362,
                    "duration": 0.09045400000002246
                },
                {
                    "name": "A#2",
                    "midi": 46,
                    "time": 285.4728239999998,
                    "velocity": 0.5590551181102362,
                    "duration": 0.09045400000002246
                },
                {
                    "name": "E3",
                    "midi": 52,
                    "time": 285.5632779999998,
                    "velocity": 0.49606299212598426,
                    "duration": 0.09045400000002246
                },
                {
                    "name": "G2",
                    "midi": 43,
                    "time": 285.6537319999998,
                    "velocity": 0.5590551181102362,
                    "duration": 0.09045400000002246
                },
                {
                    "name": "A#2",
                    "midi": 46,
                    "time": 285.6537319999998,
                    "velocity": 0.5590551181102362,
                    "duration": 0.09045400000002246
                },
                {
                    "name": "E3",
                    "midi": 52,
                    "time": 285.74418599999984,
                    "velocity": 0.49606299212598426,
                    "duration": 0.09045400000002246
                },
                {
                    "name": "G2",
                    "midi": 43,
                    "time": 285.83463999999987,
                    "velocity": 0.5590551181102362,
                    "duration": 0.09045400000002246
                },
                {
                    "name": "A#2",
                    "midi": 46,
                    "time": 285.83463999999987,
                    "velocity": 0.5590551181102362,
                    "duration": 0.09045400000002246
                },
                {
                    "name": "E3",
                    "midi": 52,
                    "time": 285.9250939999999,
                    "velocity": 0.49606299212598426,
                    "duration": 0.09045400000002246
                },
                {
                    "name": "A#2",
                    "midi": 46,
                    "time": 286.0155479999999,
                    "velocity": 0.5590551181102362,
                    "duration": 0.09045400000002246
                },
                {
                    "name": "G2",
                    "midi": 43,
                    "time": 286.0155479999999,
                    "velocity": 0.5590551181102362,
                    "duration": 0.09045400000002246
                },
                {
                    "name": "E3",
                    "midi": 52,
                    "time": 286.10600199999993,
                    "velocity": 0.49606299212598426,
                    "duration": 0.09045400000002246
                },
                {
                    "name": "G2",
                    "midi": 43,
                    "time": 286.19645599999996,
                    "velocity": 0.5590551181102362,
                    "duration": 0.09045400000002246
                },
                {
                    "name": "A#2",
                    "midi": 46,
                    "time": 286.19645599999996,
                    "velocity": 0.5590551181102362,
                    "duration": 0.09045400000002246
                },
                {
                    "name": "E3",
                    "midi": 52,
                    "time": 286.28691,
                    "velocity": 0.49606299212598426,
                    "duration": 0.09045400000002246
                },
                {
                    "name": "A#2",
                    "midi": 46,
                    "time": 286.377364,
                    "velocity": 0.5590551181102362,
                    "duration": 0.09045400000002246
                },
                {
                    "name": "G2",
                    "midi": 43,
                    "time": 286.377364,
                    "velocity": 0.5590551181102362,
                    "duration": 0.09045400000002246
                },
                {
                    "name": "E3",
                    "midi": 52,
                    "time": 286.467818,
                    "velocity": 0.49606299212598426,
                    "duration": 0.09045400000002246
                },
                {
                    "name": "A#2",
                    "midi": 46,
                    "time": 286.55827200000004,
                    "velocity": 0.5590551181102362,
                    "duration": 0.09045400000002246
                },
                {
                    "name": "G2",
                    "midi": 43,
                    "time": 286.55827200000004,
                    "velocity": 0.5590551181102362,
                    "duration": 0.09045400000002246
                },
                {
                    "name": "E3",
                    "midi": 52,
                    "time": 286.64872600000007,
                    "velocity": 0.49606299212598426,
                    "duration": 0.09045400000002246
                },
                {
                    "name": "G2",
                    "midi": 43,
                    "time": 286.7391800000001,
                    "velocity": 0.5590551181102362,
                    "duration": 0.09045400000002246
                },
                {
                    "name": "A#2",
                    "midi": 46,
                    "time": 286.7391800000001,
                    "velocity": 0.5590551181102362,
                    "duration": 0.09045400000002246
                },
                {
                    "name": "E3",
                    "midi": 52,
                    "time": 286.8296340000001,
                    "velocity": 0.49606299212598426,
                    "duration": 0.09045400000002246
                },
                {
                    "name": "G2",
                    "midi": 43,
                    "time": 286.92008800000013,
                    "velocity": 0.5590551181102362,
                    "duration": 0.09045400000002246
                },
                {
                    "name": "A#2",
                    "midi": 46,
                    "time": 286.92008800000013,
                    "velocity": 0.5590551181102362,
                    "duration": 0.09045400000002246
                },
                {
                    "name": "E3",
                    "midi": 52,
                    "time": 287.01054200000016,
                    "velocity": 0.49606299212598426,
                    "duration": 0.09045400000002246
                },
                {
                    "name": "A#2",
                    "midi": 46,
                    "time": 287.1009960000002,
                    "velocity": 0.5590551181102362,
                    "duration": 0.09045400000002246
                },
                {
                    "name": "G2",
                    "midi": 43,
                    "time": 287.1009960000002,
                    "velocity": 0.5590551181102362,
                    "duration": 0.09045400000002246
                },
                {
                    "name": "E3",
                    "midi": 52,
                    "time": 287.1914500000002,
                    "velocity": 0.49606299212598426,
                    "duration": 0.09045400000002246
                },
                {
                    "name": "G2",
                    "midi": 43,
                    "time": 287.2819040000002,
                    "velocity": 0.5590551181102362,
                    "duration": 0.09045400000002246
                },
                {
                    "name": "A#2",
                    "midi": 46,
                    "time": 287.2819040000002,
                    "velocity": 0.5590551181102362,
                    "duration": 0.09045400000002246
                },
                {
                    "name": "E3",
                    "midi": 52,
                    "time": 287.37235800000025,
                    "velocity": 0.49606299212598426,
                    "duration": 0.09045400000002246
                },
                {
                    "name": "A#2",
                    "midi": 46,
                    "time": 287.46281200000027,
                    "velocity": 0.5590551181102362,
                    "duration": 0.09045400000002246
                },
                {
                    "name": "G2",
                    "midi": 43,
                    "time": 287.46281200000027,
                    "velocity": 0.5590551181102362,
                    "duration": 0.09045400000002246
                },
                {
                    "name": "E3",
                    "midi": 52,
                    "time": 287.5532660000003,
                    "velocity": 0.49606299212598426,
                    "duration": 0.09045400000002246
                },
                {
                    "name": "A#2",
                    "midi": 46,
                    "time": 287.6437200000003,
                    "velocity": 0.5590551181102362,
                    "duration": 0.09045400000002246
                },
                {
                    "name": "G2",
                    "midi": 43,
                    "time": 287.6437200000003,
                    "velocity": 0.5590551181102362,
                    "duration": 0.09045400000002246
                },
                {
                    "name": "E3",
                    "midi": 52,
                    "time": 287.73417400000034,
                    "velocity": 0.49606299212598426,
                    "duration": 0.09045400000002246
                },
                {
                    "name": "G2",
                    "midi": 43,
                    "time": 287.82462800000036,
                    "velocity": 0.5590551181102362,
                    "duration": 0.09045400000002246
                },
                {
                    "name": "A#2",
                    "midi": 46,
                    "time": 287.82462800000036,
                    "velocity": 0.5590551181102362,
                    "duration": 0.09045400000002246
                },
                {
                    "name": "E3",
                    "midi": 52,
                    "time": 287.9150820000004,
                    "velocity": 0.49606299212598426,
                    "duration": 0.09045400000002246
                },
                {
                    "name": "G2",
                    "midi": 43,
                    "time": 288.0055360000004,
                    "velocity": 0.5590551181102362,
                    "duration": 0.09045400000002246
                },
                {
                    "name": "A#2",
                    "midi": 46,
                    "time": 288.0055360000004,
                    "velocity": 0.5590551181102362,
                    "duration": 0.09045400000002246
                },
                {
                    "name": "E3",
                    "midi": 52,
                    "time": 288.0959900000004,
                    "velocity": 0.49606299212598426,
                    "duration": 0.09045400000002246
                },
                {
                    "name": "A#2",
                    "midi": 46,
                    "time": 288.18644400000045,
                    "velocity": 0.5590551181102362,
                    "duration": 0.09045400000002246
                },
                {
                    "name": "G2",
                    "midi": 43,
                    "time": 288.18644400000045,
                    "velocity": 0.5590551181102362,
                    "duration": 0.09045400000002246
                },
                {
                    "name": "E3",
                    "midi": 52,
                    "time": 288.2768980000005,
                    "velocity": 0.49606299212598426,
                    "duration": 0.09045400000002246
                },
                {
                    "name": "G2",
                    "midi": 43,
                    "time": 288.3673520000005,
                    "velocity": 0.5590551181102362,
                    "duration": 0.09045400000002246
                },
                {
                    "name": "A#2",
                    "midi": 46,
                    "time": 288.3673520000005,
                    "velocity": 0.5590551181102362,
                    "duration": 0.09045400000002246
                },
                {
                    "name": "E3",
                    "midi": 52,
                    "time": 288.4578060000005,
                    "velocity": 0.49606299212598426,
                    "duration": 0.09045400000002246
                },
                {
                    "name": "G2",
                    "midi": 43,
                    "time": 288.54826000000054,
                    "velocity": 0.5590551181102362,
                    "duration": 0.09045400000002246
                },
                {
                    "name": "A#2",
                    "midi": 46,
                    "time": 288.54826000000054,
                    "velocity": 0.5590551181102362,
                    "duration": 0.09045400000002246
                },
                {
                    "name": "E3",
                    "midi": 52,
                    "time": 288.63871400000056,
                    "velocity": 0.49606299212598426,
                    "duration": 0.09045400000002246
                },
                {
                    "name": "G2",
                    "midi": 43,
                    "time": 288.7291680000006,
                    "velocity": 0.5590551181102362,
                    "duration": 0.09045400000002246
                },
                {
                    "name": "A#2",
                    "midi": 46,
                    "time": 288.7291680000006,
                    "velocity": 0.5590551181102362,
                    "duration": 0.09045400000002246
                },
                {
                    "name": "E3",
                    "midi": 52,
                    "time": 288.8196220000006,
                    "velocity": 0.49606299212598426,
                    "duration": 0.09045400000002246
                },
                {
                    "name": "G2",
                    "midi": 43,
                    "time": 288.91007600000063,
                    "velocity": 0.5590551181102362,
                    "duration": 0.09045400000002246
                },
                {
                    "name": "A#2",
                    "midi": 46,
                    "time": 288.91007600000063,
                    "velocity": 0.5590551181102362,
                    "duration": 0.09045400000002246
                },
                {
                    "name": "E3",
                    "midi": 52,
                    "time": 289.00053000000065,
                    "velocity": 0.49606299212598426,
                    "duration": 0.09045400000002246
                },
                {
                    "name": "G2",
                    "midi": 43,
                    "time": 289.0909840000007,
                    "velocity": 0.5590551181102362,
                    "duration": 0.09045400000002246
                },
                {
                    "name": "A#2",
                    "midi": 46,
                    "time": 289.0909840000007,
                    "velocity": 0.5590551181102362,
                    "duration": 0.09045400000002246
                },
                {
                    "name": "E3",
                    "midi": 52,
                    "time": 289.1814380000007,
                    "velocity": 0.49606299212598426,
                    "duration": 0.09045400000002246
                },
                {
                    "name": "A#2",
                    "midi": 46,
                    "time": 289.2718920000007,
                    "velocity": 0.5590551181102362,
                    "duration": 0.09045400000002246
                },
                {
                    "name": "G2",
                    "midi": 43,
                    "time": 289.2718920000007,
                    "velocity": 0.5590551181102362,
                    "duration": 0.09045400000002246
                },
                {
                    "name": "E3",
                    "midi": 52,
                    "time": 289.36234600000074,
                    "velocity": 0.49606299212598426,
                    "duration": 0.09045400000002246
                },
                {
                    "name": "G2",
                    "midi": 43,
                    "time": 289.45280000000076,
                    "velocity": 0.5590551181102362,
                    "duration": 0.09045400000002246
                },
                {
                    "name": "A#2",
                    "midi": 46,
                    "time": 289.45280000000076,
                    "velocity": 0.5590551181102362,
                    "duration": 0.09045400000002246
                },
                {
                    "name": "E3",
                    "midi": 52,
                    "time": 289.5432540000008,
                    "velocity": 0.49606299212598426,
                    "duration": 0.09045400000002246
                },
                {
                    "name": "A#2",
                    "midi": 46,
                    "time": 289.6337080000008,
                    "velocity": 0.5590551181102362,
                    "duration": 0.09045400000002246
                },
                {
                    "name": "G2",
                    "midi": 43,
                    "time": 289.6337080000008,
                    "velocity": 0.5590551181102362,
                    "duration": 0.09045400000002246
                },
                {
                    "name": "E3",
                    "midi": 52,
                    "time": 289.72416200000083,
                    "velocity": 0.49606299212598426,
                    "duration": 0.09045400000002246
                },
                {
                    "name": "A#2",
                    "midi": 46,
                    "time": 289.81461600000085,
                    "velocity": 0.5590551181102362,
                    "duration": 0.09045400000002246
                },
                {
                    "name": "G2",
                    "midi": 43,
                    "time": 289.81461600000085,
                    "velocity": 0.5590551181102362,
                    "duration": 0.09045400000002246
                },
                {
                    "name": "E3",
                    "midi": 52,
                    "time": 289.9050700000009,
                    "velocity": 0.49606299212598426,
                    "duration": 0.09045400000002246
                },
                {
                    "name": "G2",
                    "midi": 43,
                    "time": 289.9955240000009,
                    "velocity": 0.5590551181102362,
                    "duration": 0.09045400000002246
                },
                {
                    "name": "A#2",
                    "midi": 46,
                    "time": 289.9955240000009,
                    "velocity": 0.5590551181102362,
                    "duration": 0.09045400000002246
                },
                {
                    "name": "E3",
                    "midi": 52,
                    "time": 290.0859780000009,
                    "velocity": 0.49606299212598426,
                    "duration": 0.09045400000002246
                },
                {
                    "name": "G2",
                    "midi": 43,
                    "time": 290.17643200000094,
                    "velocity": 0.5590551181102362,
                    "duration": 0.09045400000002246
                },
                {
                    "name": "A#2",
                    "midi": 46,
                    "time": 290.17643200000094,
                    "velocity": 0.5590551181102362,
                    "duration": 0.09045400000002246
                },
                {
                    "name": "E3",
                    "midi": 52,
                    "time": 290.26688600000097,
                    "velocity": 0.49606299212598426,
                    "duration": 0.09045400000002246
                },
                {
                    "name": "G2",
                    "midi": 43,
                    "time": 290.357340000001,
                    "velocity": 0.5590551181102362,
                    "duration": 0.09045400000002246
                },
                {
                    "name": "A#2",
                    "midi": 46,
                    "time": 290.357340000001,
                    "velocity": 0.5590551181102362,
                    "duration": 0.09045400000002246
                },
                {
                    "name": "E3",
                    "midi": 52,
                    "time": 290.447794000001,
                    "velocity": 0.49606299212598426,
                    "duration": 0.09045400000002246
                },
                {
                    "name": "A#2",
                    "midi": 46,
                    "time": 290.53824800000103,
                    "velocity": 0.5590551181102362,
                    "duration": 0.09045400000002246
                },
                {
                    "name": "G2",
                    "midi": 43,
                    "time": 290.53824800000103,
                    "velocity": 0.5590551181102362,
                    "duration": 0.09045400000002246
                },
                {
                    "name": "E3",
                    "midi": 52,
                    "time": 290.62870200000106,
                    "velocity": 0.49606299212598426,
                    "duration": 0.09045400000002246
                },
                {
                    "name": "G2",
                    "midi": 43,
                    "time": 290.7191560000011,
                    "velocity": 0.5590551181102362,
                    "duration": 0.09045400000002246
                },
                {
                    "name": "A#2",
                    "midi": 46,
                    "time": 290.7191560000011,
                    "velocity": 0.5590551181102362,
                    "duration": 0.09045400000002246
                },
                {
                    "name": "E3",
                    "midi": 52,
                    "time": 290.8096100000011,
                    "velocity": 0.49606299212598426,
                    "duration": 0.09045400000002246
                },
                {
                    "name": "G2",
                    "midi": 43,
                    "time": 290.9000640000011,
                    "velocity": 0.5118110236220472,
                    "duration": 0.36181599999997616
                },
                {
                    "name": "E3",
                    "midi": 52,
                    "time": 290.9000640000011,
                    "velocity": 0.5118110236220472,
                    "duration": 0.36181599999997616
                },
                {
                    "name": "A#2",
                    "midi": 46,
                    "time": 290.9000640000011,
                    "velocity": 0.5118110236220472,
                    "duration": 0.36181599999997616
                },
                {
                    "name": "C3",
                    "midi": 48,
                    "time": 294.6991320000011,
                    "velocity": 0.2125984251968504,
                    "duration": 0.4522699999999986
                },
                {
                    "name": "C4",
                    "midi": 60,
                    "time": 294.6991320000011,
                    "velocity": 0.2755905511811024,
                    "duration": 0.4522699999999986
                },
                {
                    "name": "G#3",
                    "midi": 56,
                    "time": 295.1514020000011,
                    "velocity": 0.2440944881889764,
                    "duration": 0.09045400000002246
                },
                {
                    "name": "G#2",
                    "midi": 44,
                    "time": 295.1514020000011,
                    "velocity": 0.1968503937007874,
                    "duration": 0.09045400000002246
                },
                {
                    "name": "F2",
                    "midi": 41,
                    "time": 295.2418560000011,
                    "velocity": 0.1732283464566929,
                    "duration": 1.6281720000000064
                },
                {
                    "name": "F3",
                    "midi": 53,
                    "time": 295.2418560000011,
                    "velocity": 0.2204724409448819,
                    "duration": 1.6281720000000064
                },
                {
                    "name": "G#3",
                    "midi": 56,
                    "time": 296.8700280000011,
                    "velocity": 0.2755905511811024,
                    "duration": 0.4522699999999986
                },
                {
                    "name": "G#2",
                    "midi": 44,
                    "time": 296.8700280000011,
                    "velocity": 0.2125984251968504,
                    "duration": 0.4522699999999986
                },
                {
                    "name": "C3",
                    "midi": 48,
                    "time": 297.3222980000011,
                    "velocity": 0.1889763779527559,
                    "duration": 0.09045400000002246
                },
                {
                    "name": "C4",
                    "midi": 60,
                    "time": 297.3222980000011,
                    "velocity": 0.23622047244094488,
                    "duration": 0.09045400000002246
                },
                {
                    "name": "F4",
                    "midi": 65,
                    "time": 297.41275200000115,
                    "velocity": 0.2755905511811024,
                    "duration": 0.5427240000000211
                },
                {
                    "name": "F3",
                    "midi": 53,
                    "time": 297.41275200000115,
                    "velocity": 0.2125984251968504,
                    "duration": 0.5427240000000211
                },
                {
                    "name": "G#4",
                    "midi": 68,
                    "time": 297.95547600000117,
                    "velocity": 0.28346456692913385,
                    "duration": 0.4522699999999986
                },
                {
                    "name": "G#3",
                    "midi": 56,
                    "time": 297.95547600000117,
                    "velocity": 0.2204724409448819,
                    "duration": 0.4522699999999986
                },
                {
                    "name": "C5",
                    "midi": 72,
                    "time": 298.40774600000117,
                    "velocity": 0.2440944881889764,
                    "duration": 0.09045400000002246
                },
                {
                    "name": "C4",
                    "midi": 60,
                    "time": 298.40774600000117,
                    "velocity": 0.1968503937007874,
                    "duration": 0.09045400000002246
                },
                {
                    "name": "F5",
                    "midi": 77,
                    "time": 298.4982000000012,
                    "velocity": 0.31496062992125984,
                    "duration": 0.5389550833333487
                },
                {
                    "name": "F4",
                    "midi": 65,
                    "time": 298.4982000000012,
                    "velocity": 0.2440944881889764,
                    "duration": 0.5389550833333487
                },
                {
                    "name": "F4",
                    "midi": 65,
                    "time": 299.0409240000012,
                    "velocity": 0.25984251968503935,
                    "duration": 0.5427240000000211
                },
                {
                    "name": "F3",
                    "midi": 53,
                    "time": 299.0409240000012,
                    "velocity": 0.2047244094488189,
                    "duration": 0.5427240000000211
                },
                {
                    "name": "G4",
                    "midi": 67,
                    "time": 299.58364800000123,
                    "velocity": 0.2047244094488189,
                    "duration": 1.0854479999999853
                },
                {
                    "name": "E4",
                    "midi": 64,
                    "time": 299.58364800000123,
                    "velocity": 0.2047244094488189,
                    "duration": 1.0854479999999853
                },
                {
                    "name": "C5",
                    "midi": 72,
                    "time": 299.58364800000123,
                    "velocity": 0.2755905511811024,
                    "duration": 0.9045399999999972
                },
                {
                    "name": "D5",
                    "midi": 74,
                    "time": 300.48818800000123,
                    "velocity": 0.25984251968503935,
                    "duration": 0.18090799999998808
                },
                {
                    "name": "F4",
                    "midi": 65,
                    "time": 300.6690960000012,
                    "velocity": 0.2047244094488189,
                    "duration": 1.0854479999998148
                },
                {
                    "name": "B4",
                    "midi": 71,
                    "time": 300.6690960000012,
                    "velocity": 0.2047244094488189,
                    "duration": 1.0854479999998148
                },
                {
                    "name": "D5",
                    "midi": 74,
                    "time": 300.6690960000012,
                    "velocity": 0.25984251968503935,
                    "duration": 0.060302666666643745
                },
                {
                    "name": "E5",
                    "midi": 76,
                    "time": 300.72939866666786,
                    "velocity": 0.2283464566929134,
                    "duration": 0.060302666666643745
                },
                {
                    "name": "D5",
                    "midi": 74,
                    "time": 300.7897013333345,
                    "velocity": 0.25984251968503935,
                    "duration": 0.060302666666643745
                },
                {
                    "name": "E5",
                    "midi": 76,
                    "time": 300.85000400000115,
                    "velocity": 0.2283464566929134,
                    "duration": 0.060302666666643745
                },
                {
                    "name": "D5",
                    "midi": 74,
                    "time": 300.9103066666678,
                    "velocity": 0.25984251968503935,
                    "duration": 0.060302666666643745
                },
                {
                    "name": "E5",
                    "midi": 76,
                    "time": 300.97060933333444,
                    "velocity": 0.23622047244094488,
                    "duration": 0.060302666666643745
                },
                {
                    "name": "D5",
                    "midi": 74,
                    "time": 301.0309120000011,
                    "velocity": 0.25984251968503935,
                    "duration": 0.060302666666643745
                },
                {
                    "name": "E5",
                    "midi": 76,
                    "time": 301.0912146666677,
                    "velocity": 0.2283464566929134,
                    "duration": 0.060302666666643745
                },
                {
                    "name": "D5",
                    "midi": 74,
                    "time": 301.15151733333437,
                    "velocity": 0.25984251968503935,
                    "duration": 0.060302666666643745
                },
                {
                    "name": "E5",
                    "midi": 76,
                    "time": 301.211820000001,
                    "velocity": 0.23622047244094488,
                    "duration": 0.060302666666643745
                },
                {
                    "name": "D5",
                    "midi": 74,
                    "time": 301.27212266666766,
                    "velocity": 0.2204724409448819,
                    "duration": 0.060302666666643745
                },
                {
                    "name": "E5",
                    "midi": 76,
                    "time": 301.3324253333343,
                    "velocity": 0.25984251968503935,
                    "duration": 0.060302666666643745
                },
                {
                    "name": "D5",
                    "midi": 74,
                    "time": 301.39272800000094,
                    "velocity": 0.2204724409448819,
                    "duration": 0.09045400000002246
                },
                {
                    "name": "C5",
                    "midi": 72,
                    "time": 301.48318200000097,
                    "velocity": 0.23622047244094488,
                    "duration": 0.09045400000002246
                },
                {
                    "name": "E5",
                    "midi": 76,
                    "time": 301.573636000001,
                    "velocity": 0.2755905511811024,
                    "duration": 0.09045400000002246
                },
                {
                    "name": "D5",
                    "midi": 74,
                    "time": 301.664090000001,
                    "velocity": 0.2440944881889764,
                    "duration": 0.09045400000002246
                },
                {
                    "name": "C5",
                    "midi": 72,
                    "time": 301.75454400000103,
                    "velocity": 0.2755905511811024,
                    "duration": 0.36181599999997616
                },
                {
                    "name": "E4",
                    "midi": 64,
                    "time": 301.75454400000103,
                    "velocity": 0.14960629921259844,
                    "duration": 0.36181599999997616
                },
                {
                    "name": "G4",
                    "midi": 67,
                    "time": 301.75454400000103,
                    "velocity": 0.1732283464566929,
                    "duration": 0.36181599999997616
                },
                {
                    "name": "C#4",
                    "midi": 61,
                    "time": 303.382716000001,
                    "velocity": 0.2755905511811024,
                    "duration": 0.4522699999999986
                },
                {
                    "name": "C#3",
                    "midi": 49,
                    "time": 303.382716000001,
                    "velocity": 0.2125984251968504,
                    "duration": 0.4522699999999986
                },
                {
                    "name": "A#3",
                    "midi": 58,
                    "time": 303.834986000001,
                    "velocity": 0.2440944881889764,
                    "duration": 0.09045400000002246
                },
                {
                    "name": "A#2",
                    "midi": 46,
                    "time": 303.834986000001,
                    "velocity": 0.1968503937007874,
                    "duration": 0.09045400000002246
                },
                {
                    "name": "F#3",
                    "midi": 54,
                    "time": 303.925440000001,
                    "velocity": 0.2204724409448819,
                    "duration": 1.6281720000000064
                },
                {
                    "name": "F#2",
                    "midi": 42,
                    "time": 303.925440000001,
                    "velocity": 0.1732283464566929,
                    "duration": 1.6281720000000064
                },
                {
                    "name": "A#2",
                    "midi": 46,
                    "time": 305.553612000001,
                    "velocity": 0.2125984251968504,
                    "duration": 0.4522699999999986
                },
                {
                    "name": "A#3",
                    "midi": 58,
                    "time": 305.553612000001,
                    "velocity": 0.2755905511811024,
                    "duration": 0.4522699999999986
                },
                {
                    "name": "C#4",
                    "midi": 61,
                    "time": 306.005882000001,
                    "velocity": 0.23622047244094488,
                    "duration": 0.09045400000002246
                },
                {
                    "name": "C#3",
                    "midi": 49,
                    "time": 306.005882000001,
                    "velocity": 0.1889763779527559,
                    "duration": 0.09045400000002246
                },
                {
                    "name": "F#3",
                    "midi": 54,
                    "time": 306.09633600000103,
                    "velocity": 0.2125984251968504,
                    "duration": 0.5427240000000211
                },
                {
                    "name": "F#4",
                    "midi": 66,
                    "time": 306.09633600000103,
                    "velocity": 0.2755905511811024,
                    "duration": 0.5427240000000211
                },
                {
                    "name": "A#4",
                    "midi": 70,
                    "time": 306.63906000000105,
                    "velocity": 0.28346456692913385,
                    "duration": 0.4522699999999986
                },
                {
                    "name": "A#3",
                    "midi": 58,
                    "time": 306.63906000000105,
                    "velocity": 0.2204724409448819,
                    "duration": 0.4522699999999986
                },
                {
                    "name": "C#4",
                    "midi": 61,
                    "time": 307.09133000000105,
                    "velocity": 0.1968503937007874,
                    "duration": 0.09045400000002246
                },
                {
                    "name": "C#5",
                    "midi": 73,
                    "time": 307.09133000000105,
                    "velocity": 0.2440944881889764,
                    "duration": 0.09045400000002246
                },
                {
                    "name": "F#5",
                    "midi": 78,
                    "time": 307.1817840000011,
                    "velocity": 0.31496062992125984,
                    "duration": 0.5427240000000211
                },
                {
                    "name": "F#4",
                    "midi": 66,
                    "time": 307.1817840000011,
                    "velocity": 0.2440944881889764,
                    "duration": 0.5427240000000211
                },
                {
                    "name": "F#3",
                    "midi": 54,
                    "time": 307.7245080000011,
                    "velocity": 0.2047244094488189,
                    "duration": 0.5427240000000211
                },
                {
                    "name": "F#4",
                    "midi": 66,
                    "time": 307.7245080000011,
                    "velocity": 0.25984251968503935,
                    "duration": 0.5427240000000211
                },
                {
                    "name": "F4",
                    "midi": 65,
                    "time": 308.2672320000011,
                    "velocity": 0.2047244094488189,
                    "duration": 1.0854479999999853
                },
                {
                    "name": "G#4",
                    "midi": 68,
                    "time": 308.2672320000011,
                    "velocity": 0.2047244094488189,
                    "duration": 1.0854479999999853
                },
                {
                    "name": "C#5",
                    "midi": 73,
                    "time": 308.2672320000011,
                    "velocity": 0.2755905511811024,
                    "duration": 0.9045399999999972
                },
                {
                    "name": "D#5",
                    "midi": 75,
                    "time": 309.1717720000011,
                    "velocity": 0.25984251968503935,
                    "duration": 0.18090799999998808
                },
                {
                    "name": "D#5",
                    "midi": 75,
                    "time": 309.3526800000011,
                    "velocity": 0.2204724409448819,
                    "duration": 0.060302666666643745
                },
                {
                    "name": "F#4",
                    "midi": 66,
                    "time": 309.3526800000011,
                    "velocity": 0.2047244094488189,
                    "duration": 1.0854479999998148
                },
                {
                    "name": "C5",
                    "midi": 72,
                    "time": 309.3526800000011,
                    "velocity": 0.2047244094488189,
                    "duration": 1.0854479999998148
                },
                {
                    "name": "F5",
                    "midi": 77,
                    "time": 309.41298266666774,
                    "velocity": 0.1968503937007874,
                    "duration": 0.060302666666643745
                },
                {
                    "name": "D#5",
                    "midi": 75,
                    "time": 309.4732853333344,
                    "velocity": 0.2204724409448819,
                    "duration": 0.060302666666643745
                },
                {
                    "name": "F5",
                    "midi": 77,
                    "time": 309.53358800000103,
                    "velocity": 0.1968503937007874,
                    "duration": 0.060302666666643745
                },
                {
                    "name": "D#5",
                    "midi": 75,
                    "time": 309.5938906666677,
                    "velocity": 0.2204724409448819,
                    "duration": 0.060302666666643745
                },
                {
                    "name": "F5",
                    "midi": 77,
                    "time": 309.6541933333343,
                    "velocity": 0.1968503937007874,
                    "duration": 0.060302666666643745
                },
                {
                    "name": "D#5",
                    "midi": 75,
                    "time": 309.71449600000096,
                    "velocity": 0.2283464566929134,
                    "duration": 0.060302666666643745
                },
                {
                    "name": "F5",
                    "midi": 77,
                    "time": 309.7747986666676,
                    "velocity": 0.1968503937007874,
                    "duration": 0.060302666666643745
                },
                {
                    "name": "D#5",
                    "midi": 75,
                    "time": 309.83510133333425,
                    "velocity": 0.2283464566929134,
                    "duration": 0.060302666666643745
                },
                {
                    "name": "F5",
                    "midi": 77,
                    "time": 309.8954040000009,
                    "velocity": 0.2047244094488189,
                    "duration": 0.060302666666643745
                },
                {
                    "name": "D#5",
                    "midi": 75,
                    "time": 309.95570666666754,
                    "velocity": 0.2283464566929134,
                    "duration": 0.060302666666643745
                },
                {
                    "name": "F5",
                    "midi": 77,
                    "time": 310.0160093333342,
                    "velocity": 0.2125984251968504,
                    "duration": 0.060302666666643745
                },
                {
                    "name": "D#5",
                    "midi": 75,
                    "time": 310.0763120000008,
                    "velocity": 0.1889763779527559,
                    "duration": 0.09045400000002246
                },
                {
                    "name": "C#5",
                    "midi": 73,
                    "time": 310.16676600000085,
                    "velocity": 0.23622047244094488,
                    "duration": 0.09045400000002246
                },
                {
                    "name": "F5",
                    "midi": 77,
                    "time": 310.25722000000087,
                    "velocity": 0.2755905511811024,
                    "duration": 0.09045400000002246
                },
                {
                    "name": "D#5",
                    "midi": 75,
                    "time": 310.3476740000009,
                    "velocity": 0.2440944881889764,
                    "duration": 0.09045400000002246
                },
                {
                    "name": "C#5",
                    "midi": 73,
                    "time": 310.4381280000009,
                    "velocity": 0.2755905511811024,
                    "duration": 0.36181599999997616
                },
                {
                    "name": "F4",
                    "midi": 65,
                    "time": 310.4381280000009,
                    "velocity": 0.14960629921259844,
                    "duration": 0.36181599999997616
                },
                {
                    "name": "G#4",
                    "midi": 68,
                    "time": 310.4381280000009,
                    "velocity": 0.1732283464566929,
                    "duration": 0.36181599999997616
                },
                {
                    "name": "C5",
                    "midi": 72,
                    "time": 312.6090240000009,
                    "velocity": 0.2755905511811024,
                    "duration": 0.9045399999999972
                },
                {
                    "name": "D5",
                    "midi": 74,
                    "time": 313.5135640000009,
                    "velocity": 0.2992125984251969,
                    "duration": 0.13568099999997685
                },
                {
                    "name": "C5",
                    "midi": 72,
                    "time": 313.64924500000086,
                    "velocity": 0.2992125984251969,
                    "duration": 0.04522700000001123
                },
                {
                    "name": "D5",
                    "midi": 74,
                    "time": 313.69447200000087,
                    "velocity": 0.29133858267716534,
                    "duration": 0.060302666666643745
                },
                {
                    "name": "E5",
                    "midi": 76,
                    "time": 313.7547746666675,
                    "velocity": 0.25196850393700787,
                    "duration": 0.060302666666643745
                },
                {
                    "name": "D5",
                    "midi": 74,
                    "time": 313.81507733333416,
                    "velocity": 0.29133858267716534,
                    "duration": 0.060302666666643745
                },
                {
                    "name": "E5",
                    "midi": 76,
                    "time": 313.8753800000008,
                    "velocity": 0.25984251968503935,
                    "duration": 0.060302666666643745
                },
                {
                    "name": "D5",
                    "midi": 74,
                    "time": 313.93568266666745,
                    "velocity": 0.29133858267716534,
                    "duration": 0.060302666666643745
                },
                {
                    "name": "E5",
                    "midi": 76,
                    "time": 313.9959853333341,
                    "velocity": 0.25984251968503935,
                    "duration": 0.060302666666643745
                },
                {
                    "name": "D5",
                    "midi": 74,
                    "time": 314.05628800000073,
                    "velocity": 0.29133858267716534,
                    "duration": 0.060302666666643745
                },
                {
                    "name": "E5",
                    "midi": 76,
                    "time": 314.1165906666674,
                    "velocity": 0.25984251968503935,
                    "duration": 0.060302666666643745
                },
                {
                    "name": "D5",
                    "midi": 74,
                    "time": 314.176893333334,
                    "velocity": 0.29133858267716534,
                    "duration": 0.060302666666643745
                },
                {
                    "name": "E5",
                    "midi": 76,
                    "time": 314.23719600000067,
                    "velocity": 0.2677165354330709,
                    "duration": 0.060302666666643745
                },
                {
                    "name": "D5",
                    "midi": 74,
                    "time": 314.2974986666673,
                    "velocity": 0.2440944881889764,
                    "duration": 0.060302666666643745
                },
                {
                    "name": "E5",
                    "midi": 76,
                    "time": 314.35780133333395,
                    "velocity": 0.29133858267716534,
                    "duration": 0.060302666666643745
                },
                {
                    "name": "D5",
                    "midi": 74,
                    "time": 314.4181040000006,
                    "velocity": 0.2440944881889764,
                    "duration": 0.09045400000002246
                },
                {
                    "name": "C5",
                    "midi": 72,
                    "time": 314.5085580000006,
                    "velocity": 0.2677165354330709,
                    "duration": 0.09045400000002246
                },
                {
                    "name": "E5",
                    "midi": 76,
                    "time": 314.59901200000064,
                    "velocity": 0.31496062992125984,
                    "duration": 0.09045400000002246
                },
                {
                    "name": "D5",
                    "midi": 74,
                    "time": 314.68946600000066,
                    "velocity": 0.2755905511811024,
                    "duration": 0.09045400000002246
                },
                {
                    "name": "C5",
                    "midi": 72,
                    "time": 314.7799200000007,
                    "velocity": 0.2755905511811024,
                    "duration": 0.36181599999997616
                },
                {
                    "name": "E5",
                    "midi": 76,
                    "time": 316.95081600000066,
                    "velocity": 0.31496062992125984,
                    "duration": 0.9045399999999972
                },
                {
                    "name": "F5",
                    "midi": 77,
                    "time": 317.85535600000065,
                    "velocity": 0.2992125984251969,
                    "duration": 0.13568099999997685
                },
                {
                    "name": "E5",
                    "midi": 76,
                    "time": 317.99103700000063,
                    "velocity": 0.2992125984251969,
                    "duration": 0.04522700000001123
                },
                {
                    "name": "F5",
                    "midi": 77,
                    "time": 318.03626400000064,
                    "velocity": 0.29133858267716534,
                    "duration": 0.060302666666643745
                },
                {
                    "name": "G5",
                    "midi": 79,
                    "time": 318.0965666666673,
                    "velocity": 0.25196850393700787,
                    "duration": 0.060302666666643745
                },
                {
                    "name": "F5",
                    "midi": 77,
                    "time": 318.15686933333393,
                    "velocity": 0.29133858267716534,
                    "duration": 0.060302666666643745
                },
                {
                    "name": "G5",
                    "midi": 79,
                    "time": 318.2171720000006,
                    "velocity": 0.25984251968503935,
                    "duration": 0.060302666666643745
                },
                {
                    "name": "F5",
                    "midi": 77,
                    "time": 318.2774746666672,
                    "velocity": 0.29133858267716534,
                    "duration": 0.060302666666643745
                },
                {
                    "name": "G5",
                    "midi": 79,
                    "time": 318.33777733333386,
                    "velocity": 0.25984251968503935,
                    "duration": 0.060302666666643745
                },
                {
                    "name": "F5",
                    "midi": 77,
                    "time": 318.3980800000005,
                    "velocity": 0.29133858267716534,
                    "duration": 0.060302666666643745
                },
                {
                    "name": "G5",
                    "midi": 79,
                    "time": 318.45838266666715,
                    "velocity": 0.25984251968503935,
                    "duration": 0.060302666666643745
                },
                {
                    "name": "F5",
                    "midi": 77,
                    "time": 318.5186853333338,
                    "velocity": 0.29133858267716534,
                    "duration": 0.060302666666643745
                },
                {
                    "name": "G5",
                    "midi": 79,
                    "time": 318.57898800000044,
                    "velocity": 0.2677165354330709,
                    "duration": 0.060302666666643745
                },
                {
                    "name": "F5",
                    "midi": 77,
                    "time": 318.6392906666671,
                    "velocity": 0.2440944881889764,
                    "duration": 0.060302666666643745
                },
                {
                    "name": "G5",
                    "midi": 79,
                    "time": 318.6995933333337,
                    "velocity": 0.29133858267716534,
                    "duration": 0.060302666666643745
                },
                {
                    "name": "F5",
                    "midi": 77,
                    "time": 318.75989600000037,
                    "velocity": 0.2440944881889764,
                    "duration": 0.09045400000002246
                },
                {
                    "name": "E5",
                    "midi": 76,
                    "time": 318.8503500000004,
                    "velocity": 0.2677165354330709,
                    "duration": 0.09045400000002246
                },
                {
                    "name": "G5",
                    "midi": 79,
                    "time": 318.9408040000004,
                    "velocity": 0.31496062992125984,
                    "duration": 0.09045400000002246
                },
                {
                    "name": "F5",
                    "midi": 77,
                    "time": 319.03125800000043,
                    "velocity": 0.2755905511811024,
                    "duration": 0.09045400000002246
                },
                {
                    "name": "E5",
                    "midi": 76,
                    "time": 319.12171200000046,
                    "velocity": 0.2755905511811024,
                    "duration": 0.36181599999997616
                },
                {
                    "name": "E5",
                    "midi": 76,
                    "time": 320.7498840000004,
                    "velocity": 0.2755905511811024,
                    "duration": 0.18090799999998808
                },
                {
                    "name": "G5",
                    "midi": 79,
                    "time": 320.7498840000004,
                    "velocity": 0.2755905511811024,
                    "duration": 0.18090799999998808
                },
                {
                    "name": "E5",
                    "midi": 76,
                    "time": 320.9307920000004,
                    "velocity": 0.2440944881889764,
                    "duration": 0.18090799999998808
                },
                {
                    "name": "G5",
                    "midi": 79,
                    "time": 320.9307920000004,
                    "velocity": 0.2440944881889764,
                    "duration": 0.18090799999998808
                },
                {
                    "name": "G5",
                    "midi": 79,
                    "time": 321.1117000000004,
                    "velocity": 0.2755905511811024,
                    "duration": 0.18090799999998808
                },
                {
                    "name": "E5",
                    "midi": 76,
                    "time": 321.1117000000004,
                    "velocity": 0.2755905511811024,
                    "duration": 0.18090799999998808
                },
                {
                    "name": "A#5",
                    "midi": 82,
                    "time": 321.29260800000037,
                    "velocity": 0.2755905511811024,
                    "duration": 0.36181599999997616
                },
                {
                    "name": "G5",
                    "midi": 79,
                    "time": 321.29260800000037,
                    "velocity": 0.2755905511811024,
                    "duration": 0.36181599999997616
                },
                {
                    "name": "G5",
                    "midi": 79,
                    "time": 322.9207800000003,
                    "velocity": 0.5196850393700787,
                    "duration": 0.18090799999998808
                },
                {
                    "name": "A#5",
                    "midi": 82,
                    "time": 322.9207800000003,
                    "velocity": 0.5196850393700787,
                    "duration": 0.18090799999998808
                },
                {
                    "name": "G5",
                    "midi": 79,
                    "time": 323.1016880000003,
                    "velocity": 0.4881889763779528,
                    "duration": 0.18090799999998808
                },
                {
                    "name": "A#5",
                    "midi": 82,
                    "time": 323.1016880000003,
                    "velocity": 0.4881889763779528,
                    "duration": 0.18090799999998808
                },
                {
                    "name": "A#5",
                    "midi": 82,
                    "time": 323.2825960000003,
                    "velocity": 0.5354330708661418,
                    "duration": 0.18090799999998808
                },
                {
                    "name": "G5",
                    "midi": 79,
                    "time": 323.2825960000003,
                    "velocity": 0.5354330708661418,
                    "duration": 0.18090799999998808
                },
                {
                    "name": "E6",
                    "midi": 88,
                    "time": 323.4635040000003,
                    "velocity": 0.5590551181102362,
                    "duration": 0.09045400000002246
                },
                {
                    "name": "A#5",
                    "midi": 82,
                    "time": 323.5539580000003,
                    "velocity": 0.5039370078740157,
                    "duration": 0.09045400000002246
                },
                {
                    "name": "G6",
                    "midi": 91,
                    "time": 323.64441200000033,
                    "velocity": 0.5669291338582677,
                    "duration": 0.09045400000002246
                },
                {
                    "name": "E6",
                    "midi": 88,
                    "time": 323.73486600000035,
                    "velocity": 0.5039370078740157,
                    "duration": 0.09045400000002246
                },
                {
                    "name": "A#6",
                    "midi": 94,
                    "time": 323.8253200000004,
                    "velocity": 0.5748031496062992,
                    "duration": 0.09045400000002246
                },
                {
                    "name": "G6",
                    "midi": 91,
                    "time": 323.9157740000004,
                    "velocity": 0.5196850393700787,
                    "duration": 0.09045400000002246
                },
                {
                    "name": "E6",
                    "midi": 88,
                    "time": 324.0062280000004,
                    "velocity": 0.5826771653543307,
                    "duration": 0.09045400000002246
                },
                {
                    "name": "G6",
                    "midi": 91,
                    "time": 324.09668200000044,
                    "velocity": 0.5275590551181102,
                    "duration": 0.09045400000002246
                },
                {
                    "name": "A#5",
                    "midi": 82,
                    "time": 324.18713600000046,
                    "velocity": 0.5826771653543307,
                    "duration": 0.09045400000002246
                },
                {
                    "name": "E6",
                    "midi": 88,
                    "time": 324.2775900000005,
                    "velocity": 0.5354330708661418,
                    "duration": 0.09045400000002246
                },
                {
                    "name": "G5",
                    "midi": 79,
                    "time": 324.3680440000005,
                    "velocity": 0.5905511811023622,
                    "duration": 0.09045400000002246
                },
                {
                    "name": "A#5",
                    "midi": 82,
                    "time": 324.45849800000053,
                    "velocity": 0.5354330708661418,
                    "duration": 0.09045400000002246
                },
                {
                    "name": "E5",
                    "midi": 76,
                    "time": 324.54895200000055,
                    "velocity": 0.5905511811023622,
                    "duration": 0.09045400000002246
                },
                {
                    "name": "G5",
                    "midi": 79,
                    "time": 324.6394060000006,
                    "velocity": 0.5433070866141733,
                    "duration": 0.09045400000002246
                },
                {
                    "name": "A#4",
                    "midi": 70,
                    "time": 324.7298600000006,
                    "velocity": 0.5984251968503937,
                    "duration": 0.09045400000002246
                },
                {
                    "name": "E5",
                    "midi": 76,
                    "time": 324.8203140000006,
                    "velocity": 0.5275590551181102,
                    "duration": 0.09045400000002246
                },
                {
                    "name": "G4",
                    "midi": 67,
                    "time": 324.91076800000064,
                    "velocity": 0.5984251968503937,
                    "duration": 0.09045400000002246
                },
                {
                    "name": "A#4",
                    "midi": 70,
                    "time": 325.00122200000067,
                    "velocity": 0.5511811023622047,
                    "duration": 0.09045400000002246
                },
                {
                    "name": "E4",
                    "midi": 64,
                    "time": 325.0916760000007,
                    "velocity": 0.6062992125984252,
                    "duration": 0.09045400000002246
                },
                {
                    "name": "G4",
                    "midi": 67,
                    "time": 325.1821300000007,
                    "velocity": 0.5354330708661418,
                    "duration": 0.09045400000002246
                },
                {
                    "name": "A#3",
                    "midi": 58,
                    "time": 325.27258400000073,
                    "velocity": 0.6141732283464567,
                    "duration": 0.09045400000002246
                },
                {
                    "name": "E4",
                    "midi": 64,
                    "time": 325.36303800000076,
                    "velocity": 0.5590551181102362,
                    "duration": 0.09045400000002246
                },
                {
                    "name": "C4",
                    "midi": 60,
                    "time": 329.4334680000008,
                    "velocity": 0.2755905511811024,
                    "duration": 0.4522699999999986
                },
                {
                    "name": "A3",
                    "midi": 57,
                    "time": 329.8857380000008,
                    "velocity": 0.2440944881889764,
                    "duration": 0.09045400000002246
                },
                {
                    "name": "F3",
                    "midi": 53,
                    "time": 329.9761920000008,
                    "velocity": 0.8110236220472441,
                    "duration": 0.17940043333334188
                },
                {
                    "name": "A3",
                    "midi": 57,
                    "time": 330.1571000000008,
                    "velocity": 0.5905511811023622,
                    "duration": 0.35804708333336066
                },
                {
                    "name": "F3",
                    "midi": 53,
                    "time": 330.1571000000008,
                    "velocity": 0.5905511811023622,
                    "duration": 0.35804708333336066
                },
                {
                    "name": "C4",
                    "midi": 60,
                    "time": 330.1571000000008,
                    "velocity": 0.6692913385826772,
                    "duration": 0.35804708333336066
                },
                {
                    "name": "F4",
                    "midi": 65,
                    "time": 330.1571000000008,
                    "velocity": 0.7952755905511811,
                    "duration": 0.35804708333336066
                },
                {
                    "name": "C4",
                    "midi": 60,
                    "time": 330.51891600000084,
                    "velocity": 0.5669291338582677,
                    "duration": 0.35804708333336066
                },
                {
                    "name": "F4",
                    "midi": 65,
                    "time": 330.51891600000084,
                    "velocity": 0.6377952755905512,
                    "duration": 0.35804708333336066
                },
                {
                    "name": "A4",
                    "midi": 69,
                    "time": 330.51891600000084,
                    "velocity": 0.7559055118110236,
                    "duration": 0.35804708333336066
                },
                {
                    "name": "A3",
                    "midi": 57,
                    "time": 330.51891600000084,
                    "velocity": 0.5669291338582677,
                    "duration": 0.35804708333336066
                },
                {
                    "name": "C4",
                    "midi": 60,
                    "time": 330.8807320000009,
                    "velocity": 0.5590551181102362,
                    "duration": 0.35804708333336066
                },
                {
                    "name": "F4",
                    "midi": 65,
                    "time": 330.8807320000009,
                    "velocity": 0.5590551181102362,
                    "duration": 0.35804708333336066
                },
                {
                    "name": "C5",
                    "midi": 72,
                    "time": 330.8807320000009,
                    "velocity": 0.7559055118110236,
                    "duration": 0.35804708333336066
                },
                {
                    "name": "A4",
                    "midi": 69,
                    "time": 330.8807320000009,
                    "velocity": 0.6220472440944882,
                    "duration": 0.35804708333336066
                },
                {
                    "name": "A4",
                    "midi": 69,
                    "time": 331.2425480000009,
                    "velocity": 0.5669291338582677,
                    "duration": 0.35804708333336066
                },
                {
                    "name": "F5",
                    "midi": 77,
                    "time": 331.2425480000009,
                    "velocity": 0.7480314960629921,
                    "duration": 0.35804708333336066
                },
                {
                    "name": "C5",
                    "midi": 72,
                    "time": 331.2425480000009,
                    "velocity": 0.6299212598425197,
                    "duration": 0.35804708333336066
                },
                {
                    "name": "F4",
                    "midi": 65,
                    "time": 331.2425480000009,
                    "velocity": 0.5669291338582677,
                    "duration": 0.35804708333336066
                },
                {
                    "name": "F5",
                    "midi": 77,
                    "time": 331.60436400000094,
                    "velocity": 0.6771653543307087,
                    "duration": 0.35804708333336066
                },
                {
                    "name": "A4",
                    "midi": 69,
                    "time": 331.60436400000094,
                    "velocity": 0.5984251968503937,
                    "duration": 0.35804708333336066
                },
                {
                    "name": "C5",
                    "midi": 72,
                    "time": 331.60436400000094,
                    "velocity": 0.5984251968503937,
                    "duration": 0.35804708333336066
                },
                {
                    "name": "A5",
                    "midi": 81,
                    "time": 331.60436400000094,
                    "velocity": 0.8110236220472441,
                    "duration": 0.35804708333336066
                },
                {
                    "name": "F5",
                    "midi": 77,
                    "time": 331.966180000001,
                    "velocity": 0.6141732283464567,
                    "duration": 0.17940043333334188
                },
                {
                    "name": "C6",
                    "midi": 84,
                    "time": 331.966180000001,
                    "velocity": 0.7401574803149606,
                    "duration": 0.17940043333334188
                },
                {
                    "name": "C5",
                    "midi": 72,
                    "time": 331.966180000001,
                    "velocity": 0.5590551181102362,
                    "duration": 0.17940043333334188
                },
                {
                    "name": "A5",
                    "midi": 81,
                    "time": 331.966180000001,
                    "velocity": 0.6141732283464567,
                    "duration": 0.17940043333334188
                },
                {
                    "name": "A5",
                    "midi": 81,
                    "time": 332.14708800000096,
                    "velocity": 0.6771653543307087,
                    "duration": 1.6281720000000064
                },
                {
                    "name": "C6",
                    "midi": 84,
                    "time": 332.14708800000096,
                    "velocity": 0.6771653543307087,
                    "duration": 1.6281720000000064
                },
                {
                    "name": "F6",
                    "midi": 89,
                    "time": 332.14708800000096,
                    "velocity": 0.8110236220472441,
                    "duration": 1.6281720000000064
                },
                {
                    "name": "F5",
                    "midi": 77,
                    "time": 332.14708800000096,
                    "velocity": 0.5984251968503937,
                    "duration": 1.6281720000000064
                },
                {
                    "name": "A3",
                    "midi": 57,
                    "time": 333.77526000000097,
                    "velocity": 0.3228346456692913,
                    "duration": 0.4522699999999986
                },
                {
                    "name": "C4",
                    "midi": 60,
                    "time": 334.22753000000097,
                    "velocity": 0.2755905511811024,
                    "duration": 0.09045400000002246
                },
                {
                    "name": "F4",
                    "midi": 65,
                    "time": 334.317984000001,
                    "velocity": 0.31496062992125984,
                    "duration": 0.5427240000000211
                },
                {
                    "name": "A4",
                    "midi": 69,
                    "time": 334.860708000001,
                    "velocity": 0.33858267716535434,
                    "duration": 0.4522699999999986
                },
                {
                    "name": "C5",
                    "midi": 72,
                    "time": 335.312978000001,
                    "velocity": 0.29133858267716534,
                    "duration": 0.09045400000002246
                },
                {
                    "name": "F5",
                    "midi": 77,
                    "time": 335.40343200000103,
                    "velocity": 0.31496062992125984,
                    "duration": 0.5389550833333487
                },
                {
                    "name": "F4",
                    "midi": 65,
                    "time": 335.94615600000105,
                    "velocity": 0.31496062992125984,
                    "duration": 0.5427240000000211
                },
                {
                    "name": "C4",
                    "midi": 60,
                    "time": 336.4888800000011,
                    "velocity": 0.8110236220472441,
                    "duration": 0.17940043333334188
                },
                {
                    "name": "C4",
                    "midi": 60,
                    "time": 336.66978800000106,
                    "velocity": 0.6692913385826772,
                    "duration": 0.35804708333336066
                },
                {
                    "name": "E4",
                    "midi": 64,
                    "time": 336.66978800000106,
                    "velocity": 0.7952755905511811,
                    "duration": 0.35804708333336066
                },
                {
                    "name": "C4",
                    "midi": 60,
                    "time": 337.0316040000011,
                    "velocity": 0.5669291338582677,
                    "duration": 0.35804708333336066
                },
                {
                    "name": "G4",
                    "midi": 67,
                    "time": 337.0316040000011,
                    "velocity": 0.7559055118110236,
                    "duration": 0.35804708333336066
                },
                {
                    "name": "E4",
                    "midi": 64,
                    "time": 337.0316040000011,
                    "velocity": 0.6377952755905512,
                    "duration": 0.35804708333336066
                },
                {
                    "name": "G4",
                    "midi": 67,
                    "time": 337.39342000000113,
                    "velocity": 0.6377952755905512,
                    "duration": 0.35804708333336066
                },
                {
                    "name": "C5",
                    "midi": 72,
                    "time": 337.39342000000113,
                    "velocity": 0.7716535433070866,
                    "duration": 0.35804708333336066
                },
                {
                    "name": "E4",
                    "midi": 64,
                    "time": 337.39342000000113,
                    "velocity": 0.5669291338582677,
                    "duration": 0.35804708333336066
                },
                {
                    "name": "E5",
                    "midi": 76,
                    "time": 337.75523600000116,
                    "velocity": 0.7480314960629921,
                    "duration": 0.35804708333336066
                },
                {
                    "name": "G4",
                    "midi": 67,
                    "time": 337.75523600000116,
                    "velocity": 0.5669291338582677,
                    "duration": 0.35804708333336066
                },
                {
                    "name": "C5",
                    "midi": 72,
                    "time": 337.75523600000116,
                    "velocity": 0.6299212598425197,
                    "duration": 0.35804708333336066
                },
                {
                    "name": "G5",
                    "midi": 79,
                    "time": 338.1170520000012,
                    "velocity": 0.8110236220472441,
                    "duration": 0.35804708333336066
                },
                {
                    "name": "C5",
                    "midi": 72,
                    "time": 338.1170520000012,
                    "velocity": 0.5984251968503937,
                    "duration": 0.35804708333336066
                },
                {
                    "name": "E5",
                    "midi": 76,
                    "time": 338.1170520000012,
                    "velocity": 0.6771653543307087,
                    "duration": 0.35804708333336066
                },
                {
                    "name": "C6",
                    "midi": 84,
                    "time": 338.4788680000012,
                    "velocity": 0.7401574803149606,
                    "duration": 0.17940043333334188
                },
                {
                    "name": "E5",
                    "midi": 76,
                    "time": 338.4788680000012,
                    "velocity": 0.6141732283464567,
                    "duration": 0.17940043333334188
                },
                {
                    "name": "G5",
                    "midi": 79,
                    "time": 338.4788680000012,
                    "velocity": 0.6141732283464567,
                    "duration": 0.17940043333334188
                },
                {
                    "name": "C5",
                    "midi": 72,
                    "time": 338.6597760000012,
                    "velocity": 0.3228346456692913,
                    "duration": 0.9045399999999972
                },
                {
                    "name": "D5",
                    "midi": 74,
                    "time": 339.5643160000012,
                    "velocity": 0.3543307086614173,
                    "duration": 0.18090799999998808
                },
                {
                    "name": "D5",
                    "midi": 74,
                    "time": 339.7452240000012,
                    "velocity": 0.2992125984251969,
                    "duration": 0.060302666666643745
                },
                {
                    "name": "E5",
                    "midi": 76,
                    "time": 339.80552666666784,
                    "velocity": 0.2755905511811024,
                    "duration": 0.09045399999996562
                },
                {
                    "name": "D5",
                    "midi": 74,
                    "time": 339.8658293333345,
                    "velocity": 0.2992125984251969,
                    "duration": 0.060302666666643745
                },
                {
                    "name": "E5",
                    "midi": 76,
                    "time": 339.92613200000113,
                    "velocity": 0.28346456692913385,
                    "duration": 0.060302666666643745
                },
                {
                    "name": "D5",
                    "midi": 74,
                    "time": 339.9864346666678,
                    "velocity": 0.30708661417322836,
                    "duration": 0.060302666666643745
                },
                {
                    "name": "E5",
                    "midi": 76,
                    "time": 340.0467373333344,
                    "velocity": 0.28346456692913385,
                    "duration": 0.060302666666643745
                },
                {
                    "name": "D5",
                    "midi": 74,
                    "time": 340.10704000000106,
                    "velocity": 0.2992125984251969,
                    "duration": 0.060302666666643745
                },
                {
                    "name": "E5",
                    "midi": 76,
                    "time": 340.1673426666677,
                    "velocity": 0.28346456692913385,
                    "duration": 0.060302666666643745
                },
                {
                    "name": "D5",
                    "midi": 74,
                    "time": 340.22764533333435,
                    "velocity": 0.30708661417322836,
                    "duration": 0.060302666666643745
                },
                {
                    "name": "E5",
                    "midi": 76,
                    "time": 340.287948000001,
                    "velocity": 0.29133858267716534,
                    "duration": 0.060302666666643745
                },
                {
                    "name": "D5",
                    "midi": 74,
                    "time": 340.34825066666764,
                    "velocity": 0.2755905511811024,
                    "duration": 0.060302666666643745
                },
                {
                    "name": "E5",
                    "midi": 76,
                    "time": 340.4085533333343,
                    "velocity": 0.30708661417322836,
                    "duration": 0.060302666666643745
                },
                {
                    "name": "D5",
                    "midi": 74,
                    "time": 340.4688560000009,
                    "velocity": 0.2755905511811024,
                    "duration": 0.09045400000002246
                },
                {
                    "name": "C5",
                    "midi": 72,
                    "time": 340.55931000000095,
                    "velocity": 0.28346456692913385,
                    "duration": 0.09045400000002246
                },
                {
                    "name": "E5",
                    "midi": 76,
                    "time": 340.64976400000097,
                    "velocity": 0.3228346456692913,
                    "duration": 0.09045400000002246
                },
                {
                    "name": "D5",
                    "midi": 74,
                    "time": 340.740218000001,
                    "velocity": 0.2992125984251969,
                    "duration": 0.09045400000002246
                },
                {
                    "name": "C4",
                    "midi": 60,
                    "time": 340.830672000001,
                    "velocity": 0.8110236220472441,
                    "duration": 0.17940043333334188
                },
                {
                    "name": "E4",
                    "midi": 64,
                    "time": 341.011580000001,
                    "velocity": 0.7952755905511811,
                    "duration": 0.35804708333336066
                },
                {
                    "name": "C4",
                    "midi": 60,
                    "time": 341.011580000001,
                    "velocity": 0.6692913385826772,
                    "duration": 0.35804708333336066
                },
                {
                    "name": "E4",
                    "midi": 64,
                    "time": 341.37339600000104,
                    "velocity": 0.6377952755905512,
                    "duration": 0.35804708333336066
                },
                {
                    "name": "G4",
                    "midi": 67,
                    "time": 341.37339600000104,
                    "velocity": 0.7559055118110236,
                    "duration": 0.35804708333336066
                },
                {
                    "name": "C4",
                    "midi": 60,
                    "time": 341.37339600000104,
                    "velocity": 0.5669291338582677,
                    "duration": 0.35804708333336066
                },
                {
                    "name": "C5",
                    "midi": 72,
                    "time": 341.73521200000107,
                    "velocity": 0.7716535433070866,
                    "duration": 0.35804708333336066
                },
                {
                    "name": "E4",
                    "midi": 64,
                    "time": 341.73521200000107,
                    "velocity": 0.5669291338582677,
                    "duration": 0.35804708333336066
                },
                {
                    "name": "G4",
                    "midi": 67,
                    "time": 341.73521200000107,
                    "velocity": 0.6377952755905512,
                    "duration": 0.35804708333336066
                },
                {
                    "name": "E5",
                    "midi": 76,
                    "time": 342.0970280000011,
                    "velocity": 0.7480314960629921,
                    "duration": 0.35804708333336066
                },
                {
                    "name": "G4",
                    "midi": 67,
                    "time": 342.0970280000011,
                    "velocity": 0.5669291338582677,
                    "duration": 0.35804708333336066
                },
                {
                    "name": "C5",
                    "midi": 72,
                    "time": 342.0970280000011,
                    "velocity": 0.6299212598425197,
                    "duration": 0.35804708333336066
                },
                {
                    "name": "G5",
                    "midi": 79,
                    "time": 342.45884400000114,
                    "velocity": 0.8110236220472441,
                    "duration": 0.35804708333336066
                },
                {
                    "name": "C5",
                    "midi": 72,
                    "time": 342.45884400000114,
                    "velocity": 0.5984251968503937,
                    "duration": 0.35804708333336066
                },
                {
                    "name": "E5",
                    "midi": 76,
                    "time": 342.45884400000114,
                    "velocity": 0.6771653543307087,
                    "duration": 0.35804708333336066
                },
                {
                    "name": "E5",
                    "midi": 76,
                    "time": 342.82066000000117,
                    "velocity": 0.6141732283464567,
                    "duration": 0.17940043333334188
                },
                {
                    "name": "C6",
                    "midi": 84,
                    "time": 342.82066000000117,
                    "velocity": 0.7401574803149606,
                    "duration": 0.17940043333334188
                },
                {
                    "name": "G5",
                    "midi": 79,
                    "time": 342.82066000000117,
                    "velocity": 0.6141732283464567,
                    "duration": 0.17940043333334188
                },
                {
                    "name": "C5",
                    "midi": 72,
                    "time": 343.00156800000116,
                    "velocity": 0.3228346456692913,
                    "duration": 0.9045399999999972
                },
                {
                    "name": "D5",
                    "midi": 74,
                    "time": 343.90610800000115,
                    "velocity": 0.3543307086614173,
                    "duration": 0.18090799999998808
                },
                {
                    "name": "D5",
                    "midi": 74,
                    "time": 344.08701600000114,
                    "velocity": 0.3464566929133858,
                    "duration": 0.060302666666643745
                },
                {
                    "name": "E5",
                    "midi": 76,
                    "time": 344.1473186666678,
                    "velocity": 0.30708661417322836,
                    "duration": 0.060302666666643745
                },
                {
                    "name": "D5",
                    "midi": 74,
                    "time": 344.20762133333443,
                    "velocity": 0.33070866141732286,
                    "duration": 0.060302666666643745
                },
                {
                    "name": "E5",
                    "midi": 76,
                    "time": 344.2679240000011,
                    "velocity": 0.29133858267716534,
                    "duration": 0.060302666666643745
                },
                {
                    "name": "D5",
                    "midi": 74,
                    "time": 344.3282266666677,
                    "velocity": 0.3228346456692913,
                    "duration": 0.060302666666643745
                },
                {
                    "name": "E5",
                    "midi": 76,
                    "time": 344.38852933333436,
                    "velocity": 0.28346456692913385,
                    "duration": 0.060302666666643745
                },
                {
                    "name": "D5",
                    "midi": 74,
                    "time": 344.448832000001,
                    "velocity": 0.31496062992125984,
                    "duration": 0.060302666666643745
                },
                {
                    "name": "E5",
                    "midi": 76,
                    "time": 344.50913466666765,
                    "velocity": 0.29133858267716534,
                    "duration": 0.060302666666643745
                },
                {
                    "name": "D5",
                    "midi": 74,
                    "time": 344.5694373333343,
                    "velocity": 0.3228346456692913,
                    "duration": 0.060302666666643745
                },
                {
                    "name": "E5",
                    "midi": 76,
                    "time": 344.62974000000094,
                    "velocity": 0.2992125984251969,
                    "duration": 0.09045400000002246
                },
                {
                    "name": "D5",
                    "midi": 74,
                    "time": 344.72019400000096,
                    "velocity": 0.29133858267716534,
                    "duration": 0.09045400000002246
                },
                {
                    "name": "E5",
                    "midi": 76,
                    "time": 344.810648000001,
                    "velocity": 0.33070866141732286,
                    "duration": 0.09045400000002246
                },
                {
                    "name": "D5",
                    "midi": 74,
                    "time": 344.901102000001,
                    "velocity": 0.3228346456692913,
                    "duration": 0.09045400000002246
                },
                {
                    "name": "C5",
                    "midi": 72,
                    "time": 344.991556000001,
                    "velocity": 0.3779527559055118,
                    "duration": 0.09045400000002246
                },
                {
                    "name": "D5",
                    "midi": 74,
                    "time": 345.08201000000105,
                    "velocity": 0.3464566929133858,
                    "duration": 0.09045400000002246
                },
                {
                    "name": "G3",
                    "midi": 55,
                    "time": 345.17246400000107,
                    "velocity": 0.6377952755905512,
                    "duration": 0.17940043333334188
                },
                {
                    "name": "E4",
                    "midi": 64,
                    "time": 345.17246400000107,
                    "velocity": 0.8110236220472441,
                    "duration": 0.17940043333334188
                },
                {
                    "name": "A#3",
                    "midi": 58,
                    "time": 345.17246400000107,
                    "velocity": 0.6377952755905512,
                    "duration": 0.17940043333334188
                },
                {
                    "name": "E4",
                    "midi": 64,
                    "time": 345.35337200000106,
                    "velocity": 0.6692913385826772,
                    "duration": 0.35804708333336066
                },
                {
                    "name": "A#3",
                    "midi": 58,
                    "time": 345.35337200000106,
                    "velocity": 0.6692913385826772,
                    "duration": 0.35804708333336066
                },
                {
                    "name": "G4",
                    "midi": 67,
                    "time": 345.35337200000106,
                    "velocity": 0.7952755905511811,
                    "duration": 0.35804708333336066
                },
                {
                    "name": "G4",
                    "midi": 67,
                    "time": 345.7151880000011,
                    "velocity": 0.6377952755905512,
                    "duration": 0.35804708333336066
                },
                {
                    "name": "A#4",
                    "midi": 70,
                    "time": 345.7151880000011,
                    "velocity": 0.7559055118110236,
                    "duration": 0.35804708333336066
                },
                {
                    "name": "E4",
                    "midi": 64,
                    "time": 345.7151880000011,
                    "velocity": 0.5669291338582677,
                    "duration": 0.35804708333336066
                },
                {
                    "name": "A#4",
                    "midi": 70,
                    "time": 346.0770040000011,
                    "velocity": 0.6692913385826772,
                    "duration": 0.35804708333336066
                },
                {
                    "name": "E5",
                    "midi": 76,
                    "time": 346.0770040000011,
                    "velocity": 0.7952755905511811,
                    "duration": 0.35804708333336066
                },
                {
                    "name": "G4",
                    "midi": 67,
                    "time": 346.0770040000011,
                    "velocity": 0.5905511811023622,
                    "duration": 0.35804708333336066
                },
                {
                    "name": "A#4",
                    "midi": 70,
                    "time": 346.43882000000116,
                    "velocity": 0.5669291338582677,
                    "duration": 0.35804708333336066
                },
                {
                    "name": "G5",
                    "midi": 79,
                    "time": 346.43882000000116,
                    "velocity": 0.7480314960629921,
                    "duration": 0.35804708333336066
                },
                {
                    "name": "E5",
                    "midi": 76,
                    "time": 346.43882000000116,
                    "velocity": 0.6299212598425197,
                    "duration": 0.35804708333336066
                },
                {
                    "name": "E5",
                    "midi": 76,
                    "time": 346.8006360000012,
                    "velocity": 0.5984251968503937,
                    "duration": 0.35804708333336066
                },
                {
                    "name": "A#5",
                    "midi": 82,
                    "time": 346.8006360000012,
                    "velocity": 0.8110236220472441,
                    "duration": 0.35804708333336066
                },
                {
                    "name": "G5",
                    "midi": 79,
                    "time": 346.8006360000012,
                    "velocity": 0.6771653543307087,
                    "duration": 0.35804708333336066
                },
                {
                    "name": "G5",
                    "midi": 79,
                    "time": 347.1624520000012,
                    "velocity": 0.6141732283464567,
                    "duration": 0.17940043333334188
                },
                {
                    "name": "E6",
                    "midi": 88,
                    "time": 347.1624520000012,
                    "velocity": 0.7401574803149606,
                    "duration": 0.17940043333334188
                },
                {
                    "name": "A#5",
                    "midi": 82,
                    "time": 347.1624520000012,
                    "velocity": 0.6141732283464567,
                    "duration": 0.17940043333334188
                },
                {
                    "name": "E5",
                    "midi": 76,
                    "time": 347.3433600000012,
                    "velocity": 0.3779527559055118,
                    "duration": 0.9045399999999972
                },
                {
                    "name": "F5",
                    "midi": 77,
                    "time": 348.2479000000012,
                    "velocity": 0.4094488188976378,
                    "duration": 0.18090799999998808
                },
                {
                    "name": "F5",
                    "midi": 77,
                    "time": 348.4288080000012,
                    "velocity": 0.36220472440944884,
                    "duration": 0.060302666666643745
                },
                {
                    "name": "G5",
                    "midi": 79,
                    "time": 348.48911066666784,
                    "velocity": 0.3228346456692913,
                    "duration": 0.060302666666643745
                },
                {
                    "name": "F5",
                    "midi": 77,
                    "time": 348.5494133333345,
                    "velocity": 0.36220472440944884,
                    "duration": 0.060302666666643745
                },
                {
                    "name": "G5",
                    "midi": 79,
                    "time": 348.60971600000113,
                    "velocity": 0.3228346456692913,
                    "duration": 0.060302666666643745
                },
                {
                    "name": "F5",
                    "midi": 77,
                    "time": 348.6700186666678,
                    "velocity": 0.36220472440944884,
                    "duration": 0.060302666666643745
                },
                {
                    "name": "G5",
                    "midi": 79,
                    "time": 348.7303213333344,
                    "velocity": 0.3228346456692913,
                    "duration": 0.060302666666643745
                },
                {
                    "name": "F5",
                    "midi": 77,
                    "time": 348.79062400000106,
                    "velocity": 0.36220472440944884,
                    "duration": 0.060302666666643745
                },
                {
                    "name": "G5",
                    "midi": 79,
                    "time": 348.8509266666677,
                    "velocity": 0.33070866141732286,
                    "duration": 0.060302666666643745
                },
                {
                    "name": "F5",
                    "midi": 77,
                    "time": 348.91122933333435,
                    "velocity": 0.36220472440944884,
                    "duration": 0.060302666666643745
                },
                {
                    "name": "G5",
                    "midi": 79,
                    "time": 348.971532000001,
                    "velocity": 0.33858267716535434,
                    "duration": 0.09045400000002246
                },
                {
                    "name": "F5",
                    "midi": 77,
                    "time": 349.061986000001,
                    "velocity": 0.31496062992125984,
                    "duration": 0.09045400000002246
                },
                {
                    "name": "G5",
                    "midi": 79,
                    "time": 349.15244000000104,
                    "velocity": 0.36220472440944884,
                    "duration": 0.09045400000002246
                },
                {
                    "name": "F5",
                    "midi": 77,
                    "time": 349.24289400000106,
                    "velocity": 0.33070866141732286,
                    "duration": 0.09045400000002246
                },
                {
                    "name": "E5",
                    "midi": 76,
                    "time": 349.3333480000011,
                    "velocity": 0.3779527559055118,
                    "duration": 0.09045400000002246
                },
                {
                    "name": "F5",
                    "midi": 77,
                    "time": 349.4238020000011,
                    "velocity": 0.3464566929133858,
                    "duration": 0.09045400000002246
                },
                {
                    "name": "G4",
                    "midi": 67,
                    "time": 349.5142560000011,
                    "velocity": 0.8110236220472441,
                    "duration": 0.17940043333334188
                },
                {
                    "name": "E4",
                    "midi": 64,
                    "time": 349.5142560000011,
                    "velocity": 0.6377952755905512,
                    "duration": 0.17940043333334188
                },
                {
                    "name": "E5",
                    "midi": 76,
                    "time": 349.6951640000011,
                    "velocity": 0.7952755905511811,
                    "duration": 0.35804708333336066
                },
                {
                    "name": "C#5",
                    "midi": 73,
                    "time": 349.6951640000011,
                    "velocity": 0.6692913385826772,
                    "duration": 0.35804708333336066
                },
                {
                    "name": "E5",
                    "midi": 76,
                    "time": 350.05698000000115,
                    "velocity": 0.6377952755905512,
                    "duration": 0.35804708333336066
                },
                {
                    "name": "G5",
                    "midi": 79,
                    "time": 350.05698000000115,
                    "velocity": 0.7559055118110236,
                    "duration": 0.35804708333336066
                },
                {
                    "name": "A#5",
                    "midi": 82,
                    "time": 350.4187960000012,
                    "velocity": 0.7952755905511811,
                    "duration": 0.35804708333336066
                },
                {
                    "name": "G5",
                    "midi": 79,
                    "time": 350.4187960000012,
                    "velocity": 0.6692913385826772,
                    "duration": 0.35804708333336066
                },
                {
                    "name": "A#5",
                    "midi": 82,
                    "time": 350.7806120000012,
                    "velocity": 0.6299212598425197,
                    "duration": 0.35804708333336066
                },
                {
                    "name": "C#6",
                    "midi": 85,
                    "time": 350.7806120000012,
                    "velocity": 0.7480314960629921,
                    "duration": 0.35804708333336066
                },
                {
                    "name": "C#6",
                    "midi": 85,
                    "time": 351.14242800000125,
                    "velocity": 0.6771653543307087,
                    "duration": 0.35804708333336066
                },
                {
                    "name": "E6",
                    "midi": 88,
                    "time": 351.14242800000125,
                    "velocity": 0.8110236220472441,
                    "duration": 0.35804708333336066
                },
                {
                    "name": "E6",
                    "midi": 88,
                    "time": 351.5042440000013,
                    "velocity": 0.6141732283464567,
                    "duration": 0.17940043333334188
                },
                {
                    "name": "G6",
                    "midi": 91,
                    "time": 351.5042440000013,
                    "velocity": 0.7401574803149606,
                    "duration": 0.17940043333334188
                },
                {
                    "name": "G5",
                    "midi": 79,
                    "time": 351.68515200000127,
                    "velocity": 0.6220472440944882,
                    "duration": 0.9045399999999972
                },
                {
                    "name": "E5",
                    "midi": 76,
                    "time": 351.68515200000127,
                    "velocity": 0.4645669291338583,
                    "duration": 1.0854479999999853
                },
                {
                    "name": "G#5",
                    "midi": 80,
                    "time": 352.58969200000126,
                    "velocity": 0.6850393700787402,
                    "duration": 0.18090799999998808
                },
                {
                    "name": "F5",
                    "midi": 77,
                    "time": 352.77060000000125,
                    "velocity": 0.5039370078740157,
                    "duration": 1.0854480000002695
                },
                {
                    "name": "G#5",
                    "midi": 80,
                    "time": 352.77060000000125,
                    "velocity": 0.5984251968503937,
                    "duration": 0.09045400000002246
                },
                {
                    "name": "A#5",
                    "midi": 82,
                    "time": 352.8610540000013,
                    "velocity": 0.5354330708661418,
                    "duration": 0.09045400000002246
                },
                {
                    "name": "G#5",
                    "midi": 80,
                    "time": 352.9515080000013,
                    "velocity": 0.5984251968503937,
                    "duration": 0.09045400000002246
                },
                {
                    "name": "A#5",
                    "midi": 82,
                    "time": 353.0419620000013,
                    "velocity": 0.5354330708661418,
                    "duration": 0.09045400000002246
                },
                {
                    "name": "G#5",
                    "midi": 80,
                    "time": 353.13241600000134,
                    "velocity": 0.5984251968503937,
                    "duration": 0.09045400000002246
                },
                {
                    "name": "A#5",
                    "midi": 82,
                    "time": 353.22287000000136,
                    "velocity": 0.5354330708661418,
                    "duration": 0.09045400000002246
                },
                {
                    "name": "G#5",
                    "midi": 80,
                    "time": 353.3133240000014,
                    "velocity": 0.5984251968503937,
                    "duration": 0.09045400000002246
                },
                {
                    "name": "A#5",
                    "midi": 82,
                    "time": 353.4037780000014,
                    "velocity": 0.5275590551181102,
                    "duration": 0.09045400000002246
                },
                {
                    "name": "G#5",
                    "midi": 80,
                    "time": 353.49423200000143,
                    "velocity": 0.5275590551181102,
                    "duration": 0.09045400000002246
                },
                {
                    "name": "G5",
                    "midi": 79,
                    "time": 353.58468600000145,
                    "velocity": 0.5511811023622047,
                    "duration": 0.09045400000002246
                },
                {
                    "name": "A#5",
                    "midi": 82,
                    "time": 353.6751400000015,
                    "velocity": 0.6220472440944882,
                    "duration": 0.09045400000002246
                },
                {
                    "name": "G#5",
                    "midi": 80,
                    "time": 353.7655940000015,
                    "velocity": 0.5748031496062992,
                    "duration": 0.09045400000002246
                },
                {
                    "name": "E5",
                    "midi": 76,
                    "time": 353.8560480000015,
                    "velocity": 0.4566929133858268,
                    "duration": 0.5427240000000211
                },
                {
                    "name": "G5",
                    "midi": 79,
                    "time": 353.8560480000015,
                    "velocity": 0.4566929133858268,
                    "duration": 0.5427240000000211
                },
                {
                    "name": "F5",
                    "midi": 77,
                    "time": 356.02694400000155,
                    "velocity": 0.4409448818897638,
                    "duration": 0.5427240000000211
                },
                {
                    "name": "G#5",
                    "midi": 80,
                    "time": 356.02694400000155,
                    "velocity": 0.4409448818897638,
                    "duration": 0.5427240000000211
                },
                {
                    "name": "G#5",
                    "midi": 80,
                    "time": 358.1978400000016,
                    "velocity": 0.5905511811023622,
                    "duration": 2.1708960000000275
                },
                {
                    "name": "F5",
                    "midi": 77,
                    "time": 358.1978400000016,
                    "velocity": 0.5905511811023622,
                    "duration": 2.1708960000000275
                },
                {
                    "name": "C#6",
                    "midi": 85,
                    "time": 358.1978400000016,
                    "velocity": 0.5905511811023622,
                    "duration": 2.1708960000000275
                },
                {
                    "name": "G5",
                    "midi": 79,
                    "time": 360.3687360000016,
                    "velocity": 0.4094488188976378,
                    "duration": 0.36181599999997616
                },
                {
                    "name": "E5",
                    "midi": 76,
                    "time": 360.3687360000016,
                    "velocity": 0.4094488188976378,
                    "duration": 0.36181599999997616
                },
                {
                    "name": "C6",
                    "midi": 84,
                    "time": 360.3687360000016,
                    "velocity": 0.4094488188976378,
                    "duration": 0.36181599999997616
                },
                {
                    "name": "E5",
                    "midi": 76,
                    "time": 361.99690800000155,
                    "velocity": 0.4409448818897638,
                    "duration": 0.4522699999999986
                },
                {
                    "name": "G5",
                    "midi": 79,
                    "time": 361.99690800000155,
                    "velocity": 0.4409448818897638,
                    "duration": 0.4522699999999986
                },
                {
                    "name": "G5",
                    "midi": 79,
                    "time": 362.44917800000155,
                    "velocity": 0.4094488188976378,
                    "duration": 0.09045400000002246
                },
                {
                    "name": "E5",
                    "midi": 76,
                    "time": 362.44917800000155,
                    "velocity": 0.4094488188976378,
                    "duration": 0.09045400000002246
                },
                {
                    "name": "G#5",
                    "midi": 80,
                    "time": 362.5396320000016,
                    "velocity": 0.4566929133858268,
                    "duration": 0.36181599999997616
                },
                {
                    "name": "F5",
                    "midi": 77,
                    "time": 362.5396320000016,
                    "velocity": 0.4566929133858268,
                    "duration": 0.36181599999997616
                },
                {
                    "name": "G5",
                    "midi": 79,
                    "time": 362.90144800000155,
                    "velocity": 0.4094488188976378,
                    "duration": 0.18090799999998808
                },
                {
                    "name": "E5",
                    "midi": 76,
                    "time": 362.90144800000155,
                    "velocity": 0.4094488188976378,
                    "duration": 0.18090799999998808
                },
                {
                    "name": "G4",
                    "midi": 67,
                    "time": 363.4441720000015,
                    "velocity": 0.3937007874015748,
                    "duration": 0.18090799999998808
                },
                {
                    "name": "E4",
                    "midi": 64,
                    "time": 363.4441720000015,
                    "velocity": 0.3937007874015748,
                    "duration": 0.18090799999998808
                },
                {
                    "name": "G3",
                    "midi": 55,
                    "time": 363.9868960000015,
                    "velocity": 0.3858267716535433,
                    "duration": 0.18090799999998808
                },
                {
                    "name": "E3",
                    "midi": 52,
                    "time": 363.9868960000015,
                    "velocity": 0.3858267716535433,
                    "duration": 0.18090799999998808
                },
                {
                    "name": "G5",
                    "midi": 79,
                    "time": 364.62007400000147,
                    "velocity": 0.4566929133858268,
                    "duration": 0.09045400000002246
                },
                {
                    "name": "E5",
                    "midi": 76,
                    "time": 364.62007400000147,
                    "velocity": 0.4566929133858268,
                    "duration": 0.09045400000002246
                },
                {
                    "name": "A#5",
                    "midi": 82,
                    "time": 364.7105280000015,
                    "velocity": 0.48031496062992124,
                    "duration": 0.36181599999997616
                },
                {
                    "name": "G5",
                    "midi": 79,
                    "time": 364.7105280000015,
                    "velocity": 0.48031496062992124,
                    "duration": 0.36181599999997616
                },
                {
                    "name": "F5",
                    "midi": 77,
                    "time": 365.07234400000146,
                    "velocity": 0.4094488188976378,
                    "duration": 0.18090799999998808
                },
                {
                    "name": "G#5",
                    "midi": 80,
                    "time": 365.07234400000146,
                    "velocity": 0.4094488188976378,
                    "duration": 0.18090799999998808
                },
                {
                    "name": "F4",
                    "midi": 65,
                    "time": 365.61506800000143,
                    "velocity": 0.3858267716535433,
                    "duration": 0.18090799999998808
                },
                {
                    "name": "G#4",
                    "midi": 68,
                    "time": 365.61506800000143,
                    "velocity": 0.3858267716535433,
                    "duration": 0.18090799999998808
                },
                {
                    "name": "F3",
                    "midi": 53,
                    "time": 366.1577920000014,
                    "velocity": 0.3700787401574803,
                    "duration": 0.17713908333331574
                },
                {
                    "name": "G#3",
                    "midi": 56,
                    "time": 366.1577920000014,
                    "velocity": 0.3700787401574803,
                    "duration": 0.17713908333331574
                },
                {
                    "name": "F5",
                    "midi": 77,
                    "time": 366.7909700000014,
                    "velocity": 0.4094488188976378,
                    "duration": 0.09045400000002246
                },
                {
                    "name": "G#5",
                    "midi": 80,
                    "time": 366.7909700000014,
                    "velocity": 0.4094488188976378,
                    "duration": 0.09045400000002246
                },
                {
                    "name": "G#5",
                    "midi": 80,
                    "time": 366.8814240000014,
                    "velocity": 0.5905511811023622,
                    "duration": 2.1708960000000275
                },
                {
                    "name": "F5",
                    "midi": 77,
                    "time": 366.8814240000014,
                    "velocity": 0.5905511811023622,
                    "duration": 2.1708960000000275
                },
                {
                    "name": "C#6",
                    "midi": 85,
                    "time": 366.8814240000014,
                    "velocity": 0.5905511811023622,
                    "duration": 2.1708960000000275
                },
                {
                    "name": "G5",
                    "midi": 79,
                    "time": 369.05232000000143,
                    "velocity": 0.48031496062992124,
                    "duration": 0.36181599999997616
                },
                {
                    "name": "E5",
                    "midi": 76,
                    "time": 369.05232000000143,
                    "velocity": 0.48031496062992124,
                    "duration": 0.36181599999997616
                },
                {
                    "name": "C6",
                    "midi": 84,
                    "time": 369.05232000000143,
                    "velocity": 0.48031496062992124,
                    "duration": 0.36181599999997616
                },
                {
                    "name": "F#4",
                    "midi": 66,
                    "time": 370.1377680000014,
                    "velocity": 0.4094488188976378,
                    "duration": 1.0854479999999853
                },
                {
                    "name": "D#4",
                    "midi": 63,
                    "time": 370.1377680000014,
                    "velocity": 0.4094488188976378,
                    "duration": 1.0854479999999853
                },
                {
                    "name": "C5",
                    "midi": 72,
                    "time": 370.1377680000014,
                    "velocity": 0.4094488188976378,
                    "duration": 1.0854479999999853
                },
                {
                    "name": "F4",
                    "midi": 65,
                    "time": 371.2232160000014,
                    "velocity": 0.4094488188976378,
                    "duration": 0.36181599999997616
                },
                {
                    "name": "B4",
                    "midi": 71,
                    "time": 371.2232160000014,
                    "velocity": 0.4094488188976378,
                    "duration": 0.36181599999997616
                },
                {
                    "name": "D4",
                    "midi": 62,
                    "time": 371.2232160000014,
                    "velocity": 0.4094488188976378,
                    "duration": 0.36181599999997616
                },
                {
                    "name": "C#4",
                    "midi": 61,
                    "time": 372.3086640000014,
                    "velocity": 0.36220472440944884,
                    "duration": 0.36181599999997616
                },
                {
                    "name": "A#4",
                    "midi": 70,
                    "time": 372.3086640000014,
                    "velocity": 0.36220472440944884,
                    "duration": 0.36181599999997616
                },
                {
                    "name": "F4",
                    "midi": 65,
                    "time": 372.3086640000014,
                    "velocity": 0.36220472440944884,
                    "duration": 0.36181599999997616
                },
                {
                    "name": "C4",
                    "midi": 60,
                    "time": 373.39411200000137,
                    "velocity": 0.3228346456692913,
                    "duration": 0.5427240000000211
                },
                {
                    "name": "G#4",
                    "midi": 68,
                    "time": 373.39411200000137,
                    "velocity": 0.3228346456692913,
                    "duration": 0.5427240000000211
                },
                {
                    "name": "F4",
                    "midi": 65,
                    "time": 373.39411200000137,
                    "velocity": 0.3228346456692913,
                    "duration": 0.5427240000000211
                },
                {
                    "name": "A3",
                    "midi": 57,
                    "time": 379.3640760000014,
                    "velocity": 0.3464566929133858,
                    "duration": 0.4522699999999986
                },
                {
                    "name": "C4",
                    "midi": 60,
                    "time": 379.8163460000014,
                    "velocity": 0.31496062992125984,
                    "duration": 0.09045400000002246
                },
                {
                    "name": "F3",
                    "midi": 53,
                    "time": 379.9068000000014,
                    "velocity": 0.2992125984251969,
                    "duration": 0.5427240000000211
                },
                {
                    "name": "F4",
                    "midi": 65,
                    "time": 379.9068000000014,
                    "velocity": 0.3228346456692913,
                    "duration": 0.5427240000000211
                },
                {
                    "name": "A3",
                    "midi": 57,
                    "time": 380.4495240000014,
                    "velocity": 0.31496062992125984,
                    "duration": 0.4522699999999986
                },
                {
                    "name": "A4",
                    "midi": 69,
                    "time": 380.4495240000014,
                    "velocity": 0.3464566929133858,
                    "duration": 0.4522699999999986
                },
                {
                    "name": "F4",
                    "midi": 65,
                    "time": 380.9017940000014,
                    "velocity": 0.30708661417322836,
                    "duration": 0.09045400000002246
                },
                {
                    "name": "F3",
                    "midi": 53,
                    "time": 380.9017940000014,
                    "velocity": 0.28346456692913385,
                    "duration": 0.09045400000002246
                },
                {
                    "name": "E4",
                    "midi": 64,
                    "time": 380.99224800000144,
                    "velocity": 0.3228346456692913,
                    "duration": 0.5427240000000211
                },
                {
                    "name": "E3",
                    "midi": 52,
                    "time": 380.99224800000144,
                    "velocity": 0.2992125984251969,
                    "duration": 0.5427240000000211
                },
                {
                    "name": "G4",
                    "midi": 67,
                    "time": 381.53497200000146,
                    "velocity": 0.3464566929133858,
                    "duration": 0.4522699999999986
                },
                {
                    "name": "G3",
                    "midi": 55,
                    "time": 381.53497200000146,
                    "velocity": 0.31496062992125984,
                    "duration": 0.4522699999999986
                },
                {
                    "name": "E4",
                    "midi": 64,
                    "time": 381.98724200000146,
                    "velocity": 0.30708661417322836,
                    "duration": 0.09045400000002246
                },
                {
                    "name": "E3",
                    "midi": 52,
                    "time": 381.98724200000146,
                    "velocity": 0.28346456692913385,
                    "duration": 0.09045400000002246
                },
                {
                    "name": "F3",
                    "midi": 53,
                    "time": 382.0776960000015,
                    "velocity": 0.2992125984251969,
                    "duration": 0.5427240000000211
                },
                {
                    "name": "F4",
                    "midi": 65,
                    "time": 382.0776960000015,
                    "velocity": 0.3228346456692913,
                    "duration": 0.5427240000000211
                },
                {
                    "name": "C4",
                    "midi": 60,
                    "time": 382.6204200000015,
                    "velocity": 0.31496062992125984,
                    "duration": 1.0854479999999853
                },
                {
                    "name": "D4",
                    "midi": 62,
                    "time": 383.7058680000015,
                    "velocity": 0.3464566929133858,
                    "duration": 0.4522699999999986
                },
                {
                    "name": "A#3",
                    "midi": 58,
                    "time": 384.1581380000015,
                    "velocity": 0.31496062992125984,
                    "duration": 0.09045400000002246
                },
                {
                    "name": "A3",
                    "midi": 57,
                    "time": 384.2485920000015,
                    "velocity": 0.3464566929133858,
                    "duration": 0.5427240000000211
                },
                {
                    "name": "C4",
                    "midi": 60,
                    "time": 384.79131600000153,
                    "velocity": 0.3464566929133858,
                    "duration": 0.4522699999999986
                },
                {
                    "name": "A3",
                    "midi": 57,
                    "time": 385.2435860000015,
                    "velocity": 0.30708661417322836,
                    "duration": 0.09045400000002246
                },
                {
                    "name": "G3",
                    "midi": 55,
                    "time": 385.33404000000155,
                    "velocity": 0.3464566929133858,
                    "duration": 0.5427240000000211
                },
                {
                    "name": "C4",
                    "midi": 60,
                    "time": 385.8767640000016,
                    "velocity": 0.3464566929133858,
                    "duration": 0.4522699999999986
                },
                {
                    "name": "A#3",
                    "midi": 58,
                    "time": 386.32903400000157,
                    "velocity": 0.30708661417322836,
                    "duration": 0.09045400000002246
                },
                {
                    "name": "A3",
                    "midi": 57,
                    "time": 386.4194880000016,
                    "velocity": 0.33070866141732286,
                    "duration": 0.5427240000000211
                },
                {
                    "name": "C4",
                    "midi": 60,
                    "time": 386.9622120000016,
                    "velocity": 0.33070866141732286,
                    "duration": 1.0854479999999853
                },
                {
                    "name": "A4",
                    "midi": 69,
                    "time": 388.0476600000016,
                    "velocity": 0.4330708661417323,
                    "duration": 0.4522699999999986
                },
                {
                    "name": "C5",
                    "midi": 72,
                    "time": 388.4999300000016,
                    "velocity": 0.41732283464566927,
                    "duration": 0.09045400000002246
                },
                {
                    "name": "F4",
                    "midi": 65,
                    "time": 388.5903840000016,
                    "velocity": 0.4015748031496063,
                    "duration": 0.5427240000000211
                },
                {
                    "name": "F5",
                    "midi": 77,
                    "time": 388.5903840000016,
                    "velocity": 0.4409448818897638,
                    "duration": 0.5427240000000211
                },
                {
                    "name": "A5",
                    "midi": 81,
                    "time": 389.13310800000164,
                    "velocity": 0.4881889763779528,
                    "duration": 0.4522699999999986
                },
                {
                    "name": "A4",
                    "midi": 69,
                    "time": 389.13310800000164,
                    "velocity": 0.44881889763779526,
                    "duration": 0.4522699999999986
                },
                {
                    "name": "F5",
                    "midi": 77,
                    "time": 389.58537800000164,
                    "velocity": 0.4566929133858268,
                    "duration": 0.09045400000002246
                },
                {
                    "name": "F4",
                    "midi": 65,
                    "time": 389.58537800000164,
                    "velocity": 0.41732283464566927,
                    "duration": 0.09045400000002246
                },
                {
                    "name": "E5",
                    "midi": 76,
                    "time": 389.67583200000166,
                    "velocity": 0.48031496062992124,
                    "duration": 0.5427240000000211
                },
                {
                    "name": "E4",
                    "midi": 64,
                    "time": 389.67583200000166,
                    "velocity": 0.44881889763779526,
                    "duration": 0.5427240000000211
                },
                {
                    "name": "G5",
                    "midi": 79,
                    "time": 390.2185560000017,
                    "velocity": 0.5354330708661418,
                    "duration": 0.4522699999999986
                },
                {
                    "name": "G4",
                    "midi": 67,
                    "time": 390.2185560000017,
                    "velocity": 0.4881889763779528,
                    "duration": 0.4522699999999986
                },
                {
                    "name": "E5",
                    "midi": 76,
                    "time": 390.6708260000017,
                    "velocity": 0.49606299212598426,
                    "duration": 0.09045400000002246
                },
                {
                    "name": "E4",
                    "midi": 64,
                    "time": 390.6708260000017,
                    "velocity": 0.4566929133858268,
                    "duration": 0.09045400000002246
                },
                {
                    "name": "F5",
                    "midi": 77,
                    "time": 390.7612800000017,
                    "velocity": 0.44881889763779526,
                    "duration": 0.5427240000000211
                },
                {
                    "name": "F4",
                    "midi": 65,
                    "time": 390.7612800000017,
                    "velocity": 0.4015748031496063,
                    "duration": 0.5427240000000211
                },
                {
                    "name": "C4",
                    "midi": 60,
                    "time": 391.3040040000017,
                    "velocity": 0.3779527559055118,
                    "duration": 1.6281720000000064
                },
                {
                    "name": "C5",
                    "midi": 72,
                    "time": 391.3040040000017,
                    "velocity": 0.4094488188976378,
                    "duration": 1.6281720000000064
                },
                {
                    "name": "C#4",
                    "midi": 61,
                    "time": 392.93217600000173,
                    "velocity": 0.5669291338582677,
                    "duration": 0.5427240000000211
                },
                {
                    "name": "C#5",
                    "midi": 73,
                    "time": 392.93217600000173,
                    "velocity": 0.6692913385826772,
                    "duration": 0.5427240000000211
                },
                {
                    "name": "A#3",
                    "midi": 58,
                    "time": 393.47490000000175,
                    "velocity": 0.5433070866141733,
                    "duration": 1.6281720000000064
                },
                {
                    "name": "A#4",
                    "midi": 70,
                    "time": 393.47490000000175,
                    "velocity": 0.6377952755905512,
                    "duration": 1.6281720000000064
                },
                {
                    "name": "G#4",
                    "midi": 68,
                    "time": 395.10307200000176,
                    "velocity": 0.4566929133858268,
                    "duration": 1.6281720000000064
                },
                {
                    "name": "G4",
                    "midi": 67,
                    "time": 396.73124400000177,
                    "velocity": 0.4015748031496063,
                    "duration": 0.36181599999997616
                },
                {
                    "name": "F4",
                    "midi": 65,
                    "time": 397.09306000000174,
                    "velocity": 0.3858267716535433,
                    "duration": 0.18090799999998808
                },
                {
                    "name": "G4",
                    "midi": 67,
                    "time": 397.27396800000173,
                    "velocity": 0.36220472440944884,
                    "duration": 0.09045400000002246
                },
                {
                    "name": "G#4",
                    "midi": 68,
                    "time": 397.36442200000175,
                    "velocity": 0.30708661417322836,
                    "duration": 0.09045400000002246
                },
                {
                    "name": "G4",
                    "midi": 67,
                    "time": 397.4548760000018,
                    "velocity": 0.36220472440944884,
                    "duration": 0.09045400000002246
                },
                {
                    "name": "G#4",
                    "midi": 68,
                    "time": 397.5453300000018,
                    "velocity": 0.31496062992125984,
                    "duration": 0.09045400000002246
                },
                {
                    "name": "G4",
                    "midi": 67,
                    "time": 397.6357840000018,
                    "velocity": 0.3700787401574803,
                    "duration": 0.09045400000002246
                },
                {
                    "name": "G#4",
                    "midi": 68,
                    "time": 397.72623800000184,
                    "velocity": 0.31496062992125984,
                    "duration": 0.09045400000002246
                },
                {
                    "name": "G4",
                    "midi": 67,
                    "time": 397.81669200000186,
                    "velocity": 0.3779527559055118,
                    "duration": 0.09045400000002246
                },
                {
                    "name": "G#4",
                    "midi": 68,
                    "time": 397.9071460000019,
                    "velocity": 0.3228346456692913,
                    "duration": 0.09045400000002246
                },
                {
                    "name": "G4",
                    "midi": 67,
                    "time": 397.9976000000019,
                    "velocity": 0.3858267716535433,
                    "duration": 0.09045400000002246
                },
                {
                    "name": "G#4",
                    "midi": 68,
                    "time": 398.08805400000193,
                    "velocity": 0.33070866141732286,
                    "duration": 0.09045400000002246
                },
                {
                    "name": "G4",
                    "midi": 67,
                    "time": 398.17850800000195,
                    "velocity": 0.3937007874015748,
                    "duration": 0.09045400000002246
                },
                {
                    "name": "G#4",
                    "midi": 68,
                    "time": 398.268962000002,
                    "velocity": 0.33070866141732286,
                    "duration": 0.09045400000002246
                },
                {
                    "name": "G4",
                    "midi": 67,
                    "time": 398.359416000002,
                    "velocity": 0.4015748031496063,
                    "duration": 0.09045400000002246
                },
                {
                    "name": "G#4",
                    "midi": 68,
                    "time": 398.449870000002,
                    "velocity": 0.3464566929133858,
                    "duration": 0.09045400000002246
                },
                {
                    "name": "G4",
                    "midi": 67,
                    "time": 398.54032400000204,
                    "velocity": 0.4015748031496063,
                    "duration": 0.09045400000002246
                },
                {
                    "name": "G#4",
                    "midi": 68,
                    "time": 398.63077800000207,
                    "velocity": 0.3543307086614173,
                    "duration": 0.09045400000002246
                },
                {
                    "name": "G4",
                    "midi": 67,
                    "time": 398.7212320000021,
                    "velocity": 0.4094488188976378,
                    "duration": 0.09045400000002246
                },
                {
                    "name": "G#4",
                    "midi": 68,
                    "time": 398.8116860000021,
                    "velocity": 0.36220472440944884,
                    "duration": 0.09045400000002246
                },
                {
                    "name": "G4",
                    "midi": 67,
                    "time": 398.90214000000213,
                    "velocity": 0.41732283464566927,
                    "duration": 0.09045400000002246
                },
                {
                    "name": "G#4",
                    "midi": 68,
                    "time": 398.99259400000216,
                    "velocity": 0.3779527559055118,
                    "duration": 0.09045400000002246
                },
                {
                    "name": "G4",
                    "midi": 67,
                    "time": 399.0830480000022,
                    "velocity": 0.4330708661417323,
                    "duration": 0.09045400000002246
                },
                {
                    "name": "G#4",
                    "midi": 68,
                    "time": 399.1735020000022,
                    "velocity": 0.3779527559055118,
                    "duration": 0.09045400000002246
                },
                {
                    "name": "G4",
                    "midi": 67,
                    "time": 399.2639560000022,
                    "velocity": 0.4409448818897638,
                    "duration": 0.09045400000002246
                },
                {
                    "name": "G#4",
                    "midi": 68,
                    "time": 399.35441000000225,
                    "velocity": 0.3779527559055118,
                    "duration": 0.09045400000002246
                },
                {
                    "name": "C#5",
                    "midi": 73,
                    "time": 399.44486400000227,
                    "velocity": 0.36220472440944884,
                    "duration": 0.09045400000002246
                },
                {
                    "name": "C5",
                    "midi": 72,
                    "time": 399.5353180000023,
                    "velocity": 0.30708661417322836,
                    "duration": 0.09045400000002246
                },
                {
                    "name": "C#5",
                    "midi": 73,
                    "time": 399.6257720000023,
                    "velocity": 0.36220472440944884,
                    "duration": 0.09045400000002246
                },
                {
                    "name": "C5",
                    "midi": 72,
                    "time": 399.71622600000234,
                    "velocity": 0.31496062992125984,
                    "duration": 0.09045400000002246
                },
                {
                    "name": "C#5",
                    "midi": 73,
                    "time": 399.80668000000236,
                    "velocity": 0.3779527559055118,
                    "duration": 0.09045400000002246
                },
                {
                    "name": "C5",
                    "midi": 72,
                    "time": 399.8971340000024,
                    "velocity": 0.3228346456692913,
                    "duration": 0.09045400000002246
                },
                {
                    "name": "C#5",
                    "midi": 73,
                    "time": 399.9875880000024,
                    "velocity": 0.3937007874015748,
                    "duration": 0.09045400000002246
                },
                {
                    "name": "C5",
                    "midi": 72,
                    "time": 400.0780420000024,
                    "velocity": 0.3464566929133858,
                    "duration": 0.09045400000002246
                },
                {
                    "name": "C#5",
                    "midi": 73,
                    "time": 400.16849600000245,
                    "velocity": 0.4015748031496063,
                    "duration": 0.09045400000002246
                },
                {
                    "name": "C5",
                    "midi": 72,
                    "time": 400.25895000000247,
                    "velocity": 0.3543307086614173,
                    "duration": 0.09045400000002246
                },
                {
                    "name": "C#5",
                    "midi": 73,
                    "time": 400.3494040000025,
                    "velocity": 0.41732283464566927,
                    "duration": 0.09045400000002246
                },
                {
                    "name": "C5",
                    "midi": 72,
                    "time": 400.4398580000025,
                    "velocity": 0.3700787401574803,
                    "duration": 0.09045400000002246
                },
                {
                    "name": "C#5",
                    "midi": 73,
                    "time": 400.53031200000254,
                    "velocity": 0.4409448818897638,
                    "duration": 0.09045400000002246
                },
                {
                    "name": "C5",
                    "midi": 72,
                    "time": 400.62076600000256,
                    "velocity": 0.3779527559055118,
                    "duration": 0.09045400000002246
                },
                {
                    "name": "C#5",
                    "midi": 73,
                    "time": 400.7112200000026,
                    "velocity": 0.4409448818897638,
                    "duration": 0.09045400000002246
                },
                {
                    "name": "C5",
                    "midi": 72,
                    "time": 400.8016740000026,
                    "velocity": 0.3700787401574803,
                    "duration": 0.09045400000002246
                },
                {
                    "name": "C#5",
                    "midi": 73,
                    "time": 400.89212800000263,
                    "velocity": 0.4409448818897638,
                    "duration": 0.09045400000002246
                },
                {
                    "name": "C5",
                    "midi": 72,
                    "time": 400.98258200000265,
                    "velocity": 0.3779527559055118,
                    "duration": 0.09045400000002246
                },
                {
                    "name": "C#5",
                    "midi": 73,
                    "time": 401.0730360000027,
                    "velocity": 0.4409448818897638,
                    "duration": 0.09045400000002246
                },
                {
                    "name": "C5",
                    "midi": 72,
                    "time": 401.1634900000027,
                    "velocity": 0.3858267716535433,
                    "duration": 0.09045400000002246
                },
                {
                    "name": "C#5",
                    "midi": 73,
                    "time": 401.2539440000027,
                    "velocity": 0.4409448818897638,
                    "duration": 0.09045400000002246
                },
                {
                    "name": "C5",
                    "midi": 72,
                    "time": 401.34439800000274,
                    "velocity": 0.3858267716535433,
                    "duration": 0.09045400000002246
                },
                {
                    "name": "B4",
                    "midi": 71,
                    "time": 401.43485200000276,
                    "velocity": 0.4409448818897638,
                    "duration": 0.09045400000002246
                },
                {
                    "name": "C5",
                    "midi": 72,
                    "time": 401.5253060000028,
                    "velocity": 0.3779527559055118,
                    "duration": 0.09045400000002246
                },
                {
                    "name": "C#6",
                    "midi": 85,
                    "time": 401.6157600000028,
                    "velocity": 0.3858267716535433,
                    "duration": 0.09045400000002246
                },
                {
                    "name": "C6",
                    "midi": 84,
                    "time": 401.70621400000283,
                    "velocity": 0.3228346456692913,
                    "duration": 0.09045400000002246
                },
                {
                    "name": "C#6",
                    "midi": 85,
                    "time": 401.79666800000285,
                    "velocity": 0.3858267716535433,
                    "duration": 0.09045400000002246
                },
                {
                    "name": "C6",
                    "midi": 84,
                    "time": 401.8871220000029,
                    "velocity": 0.33858267716535434,
                    "duration": 0.09045400000002246
                },
                {
                    "name": "C#6",
                    "midi": 85,
                    "time": 401.9775760000029,
                    "velocity": 0.4015748031496063,
                    "duration": 0.09045400000002246
                },
                {
                    "name": "C6",
                    "midi": 84,
                    "time": 402.0680300000029,
                    "velocity": 0.3543307086614173,
                    "duration": 0.09045400000002246
                },
                {
                    "name": "C#6",
                    "midi": 85,
                    "time": 402.15848400000294,
                    "velocity": 0.4251968503937008,
                    "duration": 0.09045400000002246
                },
                {
                    "name": "C6",
                    "midi": 84,
                    "time": 402.24893800000297,
                    "velocity": 0.3543307086614173,
                    "duration": 0.09045400000002246
                },
                {
                    "name": "C#6",
                    "midi": 85,
                    "time": 402.339392000003,
                    "velocity": 0.4330708661417323,
                    "duration": 0.09045400000002246
                },
                {
                    "name": "C6",
                    "midi": 84,
                    "time": 402.429846000003,
                    "velocity": 0.36220472440944884,
                    "duration": 0.09045400000002246
                },
                {
                    "name": "C#6",
                    "midi": 85,
                    "time": 402.52030000000303,
                    "velocity": 0.4409448818897638,
                    "duration": 0.09045400000002246
                },
                {
                    "name": "C6",
                    "midi": 84,
                    "time": 402.61075400000306,
                    "velocity": 0.3858267716535433,
                    "duration": 0.09045400000002246
                },
                {
                    "name": "C#6",
                    "midi": 85,
                    "time": 402.7012080000031,
                    "velocity": 0.47244094488188976,
                    "duration": 0.09045400000002246
                },
                {
                    "name": "C6",
                    "midi": 84,
                    "time": 402.7916620000031,
                    "velocity": 0.3858267716535433,
                    "duration": 0.09045400000002246
                },
                {
                    "name": "C#6",
                    "midi": 85,
                    "time": 402.8821160000031,
                    "velocity": 0.4566929133858268,
                    "duration": 0.09045400000002246
                },
                {
                    "name": "C6",
                    "midi": 84,
                    "time": 402.97257000000315,
                    "velocity": 0.3779527559055118,
                    "duration": 0.09045400000002246
                },
                {
                    "name": "C#6",
                    "midi": 85,
                    "time": 403.06302400000317,
                    "velocity": 0.4330708661417323,
                    "duration": 0.09045400000002246
                },
                {
                    "name": "C6",
                    "midi": 84,
                    "time": 403.1534780000032,
                    "velocity": 0.3543307086614173,
                    "duration": 0.09045400000002246
                },
                {
                    "name": "C#6",
                    "midi": 85,
                    "time": 403.2439320000032,
                    "velocity": 0.4251968503937008,
                    "duration": 0.09045400000002246
                },
                {
                    "name": "C6",
                    "midi": 84,
                    "time": 403.33438600000324,
                    "velocity": 0.3543307086614173,
                    "duration": 0.09045400000002246
                },
                {
                    "name": "C#6",
                    "midi": 85,
                    "time": 403.42484000000326,
                    "velocity": 0.4094488188976378,
                    "duration": 0.09045400000002246
                },
                {
                    "name": "C6",
                    "midi": 84,
                    "time": 403.5152940000033,
                    "velocity": 0.3464566929133858,
                    "duration": 0.09045400000002246
                },
                {
                    "name": "B5",
                    "midi": 83,
                    "time": 403.6057480000033,
                    "velocity": 0.3937007874015748,
                    "duration": 0.09045400000002246
                },
                {
                    "name": "C6",
                    "midi": 84,
                    "time": 403.6962020000033,
                    "velocity": 0.31496062992125984,
                    "duration": 0.09045400000002246
                },
                {
                    "name": "C#6",
                    "midi": 85,
                    "time": 403.78665600000335,
                    "velocity": 0.3700787401574803,
                    "duration": 0.18090799999998808
                },
                {
                    "name": "C6",
                    "midi": 84,
                    "time": 403.96756400000334,
                    "velocity": 0.3700787401574803,
                    "duration": 0.18090799999998808
                },
                {
                    "name": "A#5",
                    "midi": 82,
                    "time": 404.1484720000033,
                    "velocity": 0.3543307086614173,
                    "duration": 0.18090799999998808
                },
                {
                    "name": "G#5",
                    "midi": 80,
                    "time": 404.3293800000033,
                    "velocity": 0.33070866141732286,
                    "duration": 0.18090799999998808
                },
                {
                    "name": "G5",
                    "midi": 79,
                    "time": 404.5102880000033,
                    "velocity": 0.33858267716535434,
                    "duration": 0.18090799999998808
                },
                {
                    "name": "F#5",
                    "midi": 78,
                    "time": 404.6911960000033,
                    "velocity": 0.33070866141732286,
                    "duration": 0.18090799999998808
                },
                {
                    "name": "F5",
                    "midi": 77,
                    "time": 404.8721040000033,
                    "velocity": 0.33070866141732286,
                    "duration": 0.18090799999998808
                },
                {
                    "name": "E5",
                    "midi": 76,
                    "time": 405.05301200000326,
                    "velocity": 0.33070866141732286,
                    "duration": 0.18090799999998808
                },
                {
                    "name": "D#5",
                    "midi": 75,
                    "time": 405.23392000000325,
                    "velocity": 0.33070866141732286,
                    "duration": 0.18090799999998808
                },
                {
                    "name": "C#5",
                    "midi": 73,
                    "time": 405.41482800000324,
                    "velocity": 0.33070866141732286,
                    "duration": 0.18090799999998808
                },
                {
                    "name": "C5",
                    "midi": 72,
                    "time": 405.5957360000032,
                    "velocity": 0.3228346456692913,
                    "duration": 0.18090799999998808
                },
                {
                    "name": "A#4",
                    "midi": 70,
                    "time": 405.7766440000032,
                    "velocity": 0.3228346456692913,
                    "duration": 0.18090799999998808
                },
                {
                    "name": "G#4",
                    "midi": 68,
                    "time": 405.9575520000032,
                    "velocity": 0.3228346456692913,
                    "duration": 0.18090799999998808
                },
                {
                    "name": "G4",
                    "midi": 67,
                    "time": 406.1384600000032,
                    "velocity": 0.30708661417322836,
                    "duration": 0.18090799999998808
                },
                {
                    "name": "F#4",
                    "midi": 66,
                    "time": 406.3193680000032,
                    "velocity": 0.30708661417322836,
                    "duration": 0.18090799999998808
                },
                {
                    "name": "F4",
                    "midi": 65,
                    "time": 406.50027600000317,
                    "velocity": 0.2992125984251969,
                    "duration": 0.18090799999998808
                },
                {
                    "name": "E4",
                    "midi": 64,
                    "time": 406.68118400000316,
                    "velocity": 0.29133858267716534,
                    "duration": 0.18090799999998808
                },
                {
                    "name": "D#4",
                    "midi": 63,
                    "time": 406.86209200000314,
                    "velocity": 0.28346456692913385,
                    "duration": 0.18090799999998808
                },
                {
                    "name": "C#4",
                    "midi": 61,
                    "time": 407.04300000000313,
                    "velocity": 0.28346456692913385,
                    "duration": 0.18090799999998808
                },
                {
                    "name": "C4",
                    "midi": 60,
                    "time": 407.2239080000031,
                    "velocity": 0.28346456692913385,
                    "duration": 0.18090799999998808
                },
                {
                    "name": "A#3",
                    "midi": 58,
                    "time": 407.4048160000031,
                    "velocity": 0.2755905511811024,
                    "duration": 0.18090799999998808
                },
                {
                    "name": "F3",
                    "midi": 53,
                    "time": 412.4702400000031,
                    "velocity": 0.6535433070866141,
                    "duration": 0.09045400000002246
                },
                {
                    "name": "C3",
                    "midi": 48,
                    "time": 412.56069400000314,
                    "velocity": 0.5196850393700787,
                    "duration": 0.09045400000002246
                },
                {
                    "name": "G#2",
                    "midi": 44,
                    "time": 412.65114800000316,
                    "velocity": 0.5196850393700787,
                    "duration": 0.09045400000002246
                },
                {
                    "name": "C3",
                    "midi": 48,
                    "time": 412.7416020000032,
                    "velocity": 0.5196850393700787,
                    "duration": 0.09045400000002246
                },
                {
                    "name": "F3",
                    "midi": 53,
                    "time": 412.8320560000032,
                    "velocity": 0.5669291338582677,
                    "duration": 0.09045400000002246
                },
                {
                    "name": "C3",
                    "midi": 48,
                    "time": 412.92251000000323,
                    "velocity": 0.5039370078740157,
                    "duration": 0.09045400000002246
                },
                {
                    "name": "G#3",
                    "midi": 56,
                    "time": 413.01296400000325,
                    "velocity": 0.6614173228346457,
                    "duration": 0.09045400000002246
                },
                {
                    "name": "C3",
                    "midi": 48,
                    "time": 413.1034180000033,
                    "velocity": 0.5196850393700787,
                    "duration": 0.09045400000002246
                },
                {
                    "name": "G3",
                    "midi": 55,
                    "time": 413.1938720000033,
                    "velocity": 0.6535433070866141,
                    "duration": 0.09045400000002246
                },
                {
                    "name": "C3",
                    "midi": 48,
                    "time": 413.2843260000033,
                    "velocity": 0.5196850393700787,
                    "duration": 0.09045400000002246
                },
                {
                    "name": "F3",
                    "midi": 53,
                    "time": 413.37478000000334,
                    "velocity": 0.6377952755905512,
                    "duration": 0.09045400000002246
                },
                {
                    "name": "C3",
                    "midi": 48,
                    "time": 413.46523400000336,
                    "velocity": 0.5196850393700787,
                    "duration": 0.09045400000002246
                },
                {
                    "name": "F3",
                    "midi": 53,
                    "time": 413.5556880000034,
                    "velocity": 0.6535433070866141,
                    "duration": 0.09045400000002246
                },
                {
                    "name": "C3",
                    "midi": 48,
                    "time": 413.6461420000034,
                    "velocity": 0.49606299212598426,
                    "duration": 0.09045400000002246
                },
                {
                    "name": "G#2",
                    "midi": 44,
                    "time": 413.73659600000343,
                    "velocity": 0.49606299212598426,
                    "duration": 0.09045400000002246
                },
                {
                    "name": "C3",
                    "midi": 48,
                    "time": 413.82705000000345,
                    "velocity": 0.49606299212598426,
                    "duration": 0.09045400000002246
                },
                {
                    "name": "F3",
                    "midi": 53,
                    "time": 413.9175040000035,
                    "velocity": 0.5196850393700787,
                    "duration": 0.09045400000002246
                },
                {
                    "name": "C3",
                    "midi": 48,
                    "time": 414.0079580000035,
                    "velocity": 0.4881889763779528,
                    "duration": 0.09045400000002246
                },
                {
                    "name": "G#3",
                    "midi": 56,
                    "time": 414.0984120000035,
                    "velocity": 0.6535433070866141,
                    "duration": 0.09045400000002246
                },
                {
                    "name": "C3",
                    "midi": 48,
                    "time": 414.18886600000354,
                    "velocity": 0.49606299212598426,
                    "duration": 0.09045400000002246
                },
                {
                    "name": "G3",
                    "midi": 55,
                    "time": 414.27932000000357,
                    "velocity": 0.6299212598425197,
                    "duration": 0.09045400000002246
                },
                {
                    "name": "C3",
                    "midi": 48,
                    "time": 414.3697740000036,
                    "velocity": 0.5196850393700787,
                    "duration": 0.09045400000002246
                },
                {
                    "name": "F3",
                    "midi": 53,
                    "time": 414.4602280000036,
                    "velocity": 0.6299212598425197,
                    "duration": 0.09045400000002246
                },
                {
                    "name": "C3",
                    "midi": 48,
                    "time": 414.55068200000363,
                    "velocity": 0.5039370078740157,
                    "duration": 0.09045400000002246
                },
                {
                    "name": "C#4",
                    "midi": 61,
                    "time": 414.64113600000366,
                    "velocity": 0.6535433070866141,
                    "duration": 0.09045400000002246
                },
                {
                    "name": "G#3",
                    "midi": 56,
                    "time": 414.7315900000037,
                    "velocity": 0.5196850393700787,
                    "duration": 0.09045400000002246
                },
                {
                    "name": "F3",
                    "midi": 53,
                    "time": 414.8220440000037,
                    "velocity": 0.5196850393700787,
                    "duration": 0.09045400000002246
                },
                {
                    "name": "G#3",
                    "midi": 56,
                    "time": 414.9124980000037,
                    "velocity": 0.5196850393700787,
                    "duration": 0.09045400000002246
                },
                {
                    "name": "C#4",
                    "midi": 61,
                    "time": 415.00295200000375,
                    "velocity": 0.6062992125984252,
                    "duration": 0.09045400000002246
                },
                {
                    "name": "G#3",
                    "midi": 56,
                    "time": 415.09340600000377,
                    "velocity": 0.5039370078740157,
                    "duration": 0.09045400000002246
                },
                {
                    "name": "F4",
                    "midi": 65,
                    "time": 415.1838600000038,
                    "velocity": 0.6614173228346457,
                    "duration": 0.09045400000002246
                },
                {
                    "name": "G#3",
                    "midi": 56,
                    "time": 415.2743140000038,
                    "velocity": 0.5196850393700787,
                    "duration": 0.09045400000002246
                },
                {
                    "name": "D#4",
                    "midi": 63,
                    "time": 415.36476800000383,
                    "velocity": 0.6535433070866141,
                    "duration": 0.09045400000002246
                },
                {
                    "name": "G#3",
                    "midi": 56,
                    "time": 415.45522200000386,
                    "velocity": 0.5196850393700787,
                    "duration": 0.09045400000002246
                },
                {
                    "name": "C#4",
                    "midi": 61,
                    "time": 415.5456760000039,
                    "velocity": 0.6377952755905512,
                    "duration": 0.09045400000002246
                },
                {
                    "name": "G#3",
                    "midi": 56,
                    "time": 415.6361300000039,
                    "velocity": 0.5196850393700787,
                    "duration": 0.09045400000002246
                },
                {
                    "name": "C#4",
                    "midi": 61,
                    "time": 415.7265840000039,
                    "velocity": 0.6535433070866141,
                    "duration": 0.09045400000002246
                },
                {
                    "name": "G#3",
                    "midi": 56,
                    "time": 415.81703800000395,
                    "velocity": 0.49606299212598426,
                    "duration": 0.09045400000002246
                },
                {
                    "name": "F3",
                    "midi": 53,
                    "time": 415.90749200000397,
                    "velocity": 0.49606299212598426,
                    "duration": 0.09045400000002246
                },
                {
                    "name": "G#3",
                    "midi": 56,
                    "time": 415.997946000004,
                    "velocity": 0.49606299212598426,
                    "duration": 0.09045400000002246
                },
                {
                    "name": "C#4",
                    "midi": 61,
                    "time": 416.088400000004,
                    "velocity": 0.5905511811023622,
                    "duration": 0.09045400000002246
                },
                {
                    "name": "G#3",
                    "midi": 56,
                    "time": 416.17885400000404,
                    "velocity": 0.4881889763779528,
                    "duration": 0.09045400000002246
                },
                {
                    "name": "F4",
                    "midi": 65,
                    "time": 416.26930800000406,
                    "velocity": 0.6535433070866141,
                    "duration": 0.09045400000002246
                },
                {
                    "name": "G#3",
                    "midi": 56,
                    "time": 416.3597620000041,
                    "velocity": 0.49606299212598426,
                    "duration": 0.09045400000002246
                },
                {
                    "name": "D#4",
                    "midi": 63,
                    "time": 416.4502160000041,
                    "velocity": 0.6299212598425197,
                    "duration": 0.09045400000002246
                },
                {
                    "name": "G#3",
                    "midi": 56,
                    "time": 416.5406700000041,
                    "velocity": 0.5196850393700787,
                    "duration": 0.09045400000002246
                },
                {
                    "name": "C#4",
                    "midi": 61,
                    "time": 416.63112400000415,
                    "velocity": 0.6299212598425197,
                    "duration": 0.09045400000002246
                },
                {
                    "name": "G#3",
                    "midi": 56,
                    "time": 416.7215780000042,
                    "velocity": 0.5039370078740157,
                    "duration": 0.09045400000002246
                },
                {
                    "name": "A#4",
                    "midi": 70,
                    "time": 416.8120320000042,
                    "velocity": 0.7322834645669292,
                    "duration": 0.09045400000002246
                },
                {
                    "name": "C#5",
                    "midi": 73,
                    "time": 416.9024860000042,
                    "velocity": 0.5826771653543307,
                    "duration": 0.09045400000002246
                },
                {
                    "name": "A#4",
                    "midi": 70,
                    "time": 416.99294000000424,
                    "velocity": 0.5984251968503937,
                    "duration": 0.09045400000002246
                },
                {
                    "name": "C#5",
                    "midi": 73,
                    "time": 417.08339400000426,
                    "velocity": 0.5275590551181102,
                    "duration": 0.09045400000002246
                },
                {
                    "name": "A#4",
                    "midi": 70,
                    "time": 417.1738480000043,
                    "velocity": 0.5669291338582677,
                    "duration": 0.09045400000002246
                },
                {
                    "name": "C#5",
                    "midi": 73,
                    "time": 417.2643020000043,
                    "velocity": 0.5275590551181102,
                    "duration": 0.09045400000002246
                },
                {
                    "name": "A#4",
                    "midi": 70,
                    "time": 417.35475600000433,
                    "velocity": 0.5669291338582677,
                    "duration": 0.09045400000002246
                },
                {
                    "name": "C#5",
                    "midi": 73,
                    "time": 417.44521000000435,
                    "velocity": 0.5275590551181102,
                    "duration": 0.09045400000002246
                },
                {
                    "name": "A#4",
                    "midi": 70,
                    "time": 417.5356640000044,
                    "velocity": 0.5669291338582677,
                    "duration": 0.09045400000002246
                },
                {
                    "name": "C#5",
                    "midi": 73,
                    "time": 417.6261180000044,
                    "velocity": 0.5275590551181102,
                    "duration": 0.09045400000002246
                },
                {
                    "name": "A#4",
                    "midi": 70,
                    "time": 417.7165720000044,
                    "velocity": 0.5669291338582677,
                    "duration": 0.09045400000002246
                },
                {
                    "name": "C#5",
                    "midi": 73,
                    "time": 417.80702600000444,
                    "velocity": 0.5275590551181102,
                    "duration": 0.09045400000002246
                },
                {
                    "name": "A#4",
                    "midi": 70,
                    "time": 417.89748000000446,
                    "velocity": 0.5984251968503937,
                    "duration": 0.09045400000002246
                },
                {
                    "name": "C#5",
                    "midi": 73,
                    "time": 417.9879340000045,
                    "velocity": 0.5275590551181102,
                    "duration": 0.09045400000002246
                },
                {
                    "name": "A#4",
                    "midi": 70,
                    "time": 418.0783880000045,
                    "velocity": 0.5984251968503937,
                    "duration": 0.09045400000002246
                },
                {
                    "name": "C#5",
                    "midi": 73,
                    "time": 418.16884200000453,
                    "velocity": 0.5275590551181102,
                    "duration": 0.09045400000002246
                },
                {
                    "name": "A#4",
                    "midi": 70,
                    "time": 418.25929600000455,
                    "velocity": 0.5984251968503937,
                    "duration": 0.09045400000002246
                },
                {
                    "name": "C#5",
                    "midi": 73,
                    "time": 418.3497500000046,
                    "velocity": 0.5275590551181102,
                    "duration": 0.09045400000002246
                },
                {
                    "name": "A#4",
                    "midi": 70,
                    "time": 418.4402040000046,
                    "velocity": 0.7480314960629921,
                    "duration": 0.09045400000002246
                },
                {
                    "name": "C#5",
                    "midi": 73,
                    "time": 418.5306580000046,
                    "velocity": 0.6141732283464567,
                    "duration": 0.09045400000002246
                },
                {
                    "name": "G4",
                    "midi": 67,
                    "time": 418.62111200000464,
                    "velocity": 0.7007874015748031,
                    "duration": 0.09045400000002246
                },
                {
                    "name": "A#4",
                    "midi": 70,
                    "time": 418.71156600000467,
                    "velocity": 0.6141732283464567,
                    "duration": 0.09045400000002246
                },
                {
                    "name": "E4",
                    "midi": 64,
                    "time": 418.8020200000047,
                    "velocity": 0.6614173228346457,
                    "duration": 0.09045400000002246
                },
                {
                    "name": "G4",
                    "midi": 67,
                    "time": 418.8924740000047,
                    "velocity": 0.6062992125984252,
                    "duration": 0.09045400000002246
                },
                {
                    "name": "C#4",
                    "midi": 61,
                    "time": 418.98292800000473,
                    "velocity": 0.6456692913385826,
                    "duration": 0.09045400000002246
                },
                {
                    "name": "E4",
                    "midi": 64,
                    "time": 419.07338200000476,
                    "velocity": 0.5511811023622047,
                    "duration": 0.09045400000002246
                },
                {
                    "name": "A#3",
                    "midi": 58,
                    "time": 419.1638360000048,
                    "velocity": 0.6377952755905512,
                    "duration": 0.09045400000002246
                },
                {
                    "name": "C#4",
                    "midi": 61,
                    "time": 419.2542900000048,
                    "velocity": 0.5590551181102362,
                    "duration": 0.09045400000002246
                },
                {
                    "name": "G3",
                    "midi": 55,
                    "time": 419.3447440000048,
                    "velocity": 0.6456692913385826,
                    "duration": 0.09045400000002246
                },
                {
                    "name": "A#3",
                    "midi": 58,
                    "time": 419.43519800000485,
                    "velocity": 0.5354330708661418,
                    "duration": 0.09045400000002246
                },
                {
                    "name": "F3",
                    "midi": 53,
                    "time": 419.52565200000487,
                    "velocity": 0.6377952755905512,
                    "duration": 0.09045400000002246
                },
                {
                    "name": "G3",
                    "midi": 55,
                    "time": 419.6161060000049,
                    "velocity": 0.5511811023622047,
                    "duration": 0.09045400000002246
                },
                {
                    "name": "A#3",
                    "midi": 58,
                    "time": 419.7065600000049,
                    "velocity": 0.6299212598425197,
                    "duration": 0.09045400000002246
                },
                {
                    "name": "G3",
                    "midi": 55,
                    "time": 419.79701400000494,
                    "velocity": 0.5511811023622047,
                    "duration": 0.09045400000002246
                },
                {
                    "name": "F3",
                    "midi": 53,
                    "time": 419.88746800000496,
                    "velocity": 0.6299212598425197,
                    "duration": 0.09045400000002246
                },
                {
                    "name": "G3",
                    "midi": 55,
                    "time": 419.977922000005,
                    "velocity": 0.5433070866141733,
                    "duration": 0.09045400000002246
                },
                {
                    "name": "F3",
                    "midi": 53,
                    "time": 420.158830000005,
                    "velocity": 0.5511811023622047,
                    "duration": 0.09045400000002246
                },
                {
                    "name": "A#3",
                    "midi": 58,
                    "time": 420.24928400000505,
                    "velocity": 0.6299212598425197,
                    "duration": 0.09045400000002246
                },
                {
                    "name": "G3",
                    "midi": 55,
                    "time": 420.33973800000507,
                    "velocity": 0.5433070866141733,
                    "duration": 0.09045400000002246
                },
                {
                    "name": "F3",
                    "midi": 53,
                    "time": 420.4301920000051,
                    "velocity": 0.6062992125984252,
                    "duration": 0.09045400000002246
                },
                {
                    "name": "A#3",
                    "midi": 58,
                    "time": 420.5206460000051,
                    "velocity": 0.5511811023622047,
                    "duration": 0.09045400000002246
                },
                {
                    "name": "E3",
                    "midi": 52,
                    "time": 420.70155400000516,
                    "velocity": 0.5433070866141733,
                    "duration": 0.09045400000002246
                },
                {
                    "name": "A#3",
                    "midi": 58,
                    "time": 420.7920080000052,
                    "velocity": 0.6299212598425197,
                    "duration": 0.09045400000002246
                },
                {
                    "name": "G3",
                    "midi": 55,
                    "time": 420.8824620000052,
                    "velocity": 0.5433070866141733,
                    "duration": 0.09045400000002246
                },
                {
                    "name": "E3",
                    "midi": 52,
                    "time": 420.9729160000052,
                    "velocity": 0.6141732283464567,
                    "duration": 0.09045400000002246
                },
                {
                    "name": "A#3",
                    "midi": 58,
                    "time": 421.06337000000525,
                    "velocity": 0.5433070866141733,
                    "duration": 0.09045400000002246
                },
                {
                    "name": "F4",
                    "midi": 65,
                    "time": 421.1538240000053,
                    "velocity": 0.6535433070866141,
                    "duration": 0.09045400000002246
                },
                {
                    "name": "C4",
                    "midi": 60,
                    "time": 421.2442780000053,
                    "velocity": 0.5196850393700787,
                    "duration": 0.09045400000002246
                },
                {
                    "name": "G#3",
                    "midi": 56,
                    "time": 421.3347320000053,
                    "velocity": 0.5196850393700787,
                    "duration": 0.09045400000002246
                },
                {
                    "name": "C4",
                    "midi": 60,
                    "time": 421.42518600000534,
                    "velocity": 0.5196850393700787,
                    "duration": 0.09045400000002246
                },
                {
                    "name": "F4",
                    "midi": 65,
                    "time": 421.51564000000536,
                    "velocity": 0.6299212598425197,
                    "duration": 0.09045400000002246
                },
                {
                    "name": "C4",
                    "midi": 60,
                    "time": 421.6060940000054,
                    "velocity": 0.5039370078740157,
                    "duration": 0.09045400000002246
                },
                {
                    "name": "G#4",
                    "midi": 68,
                    "time": 421.6965480000054,
                    "velocity": 0.6614173228346457,
                    "duration": 0.09045400000002246
                },
                {
                    "name": "C4",
                    "midi": 60,
                    "time": 421.78700200000543,
                    "velocity": 0.5196850393700787,
                    "duration": 0.09045400000002246
                },
                {
                    "name": "G4",
                    "midi": 67,
                    "time": 421.87745600000545,
                    "velocity": 0.6535433070866141,
                    "duration": 0.09045400000002246
                },
                {
                    "name": "C4",
                    "midi": 60,
                    "time": 421.9679100000055,
                    "velocity": 0.5196850393700787,
                    "duration": 0.09045400000002246
                },
                {
                    "name": "F4",
                    "midi": 65,
                    "time": 422.0583640000055,
                    "velocity": 0.6377952755905512,
                    "duration": 0.09045400000002246
                },
                {
                    "name": "C4",
                    "midi": 60,
                    "time": 422.1488180000055,
                    "velocity": 0.5196850393700787,
                    "duration": 0.09045400000002246
                },
                {
                    "name": "F4",
                    "midi": 65,
                    "time": 422.23927200000554,
                    "velocity": 0.6535433070866141,
                    "duration": 0.09045400000002246
                },
                {
                    "name": "C4",
                    "midi": 60,
                    "time": 422.32972600000556,
                    "velocity": 0.49606299212598426,
                    "duration": 0.09045400000002246
                },
                {
                    "name": "G#3",
                    "midi": 56,
                    "time": 422.4201800000056,
                    "velocity": 0.49606299212598426,
                    "duration": 0.09045400000002246
                },
                {
                    "name": "C4",
                    "midi": 60,
                    "time": 422.5106340000056,
                    "velocity": 0.49606299212598426,
                    "duration": 0.09045400000002246
                },
                {
                    "name": "F4",
                    "midi": 65,
                    "time": 422.60108800000563,
                    "velocity": 0.6299212598425197,
                    "duration": 0.09045400000002246
                },
                {
                    "name": "C4",
                    "midi": 60,
                    "time": 422.69154200000565,
                    "velocity": 0.4881889763779528,
                    "duration": 0.09045400000002246
                },
                {
                    "name": "G#4",
                    "midi": 68,
                    "time": 422.7819960000057,
                    "velocity": 0.6535433070866141,
                    "duration": 0.09045400000002246
                },
                {
                    "name": "C4",
                    "midi": 60,
                    "time": 422.8724500000057,
                    "velocity": 0.49606299212598426,
                    "duration": 0.09045400000002246
                },
                {
                    "name": "G4",
                    "midi": 67,
                    "time": 422.9629040000057,
                    "velocity": 0.6299212598425197,
                    "duration": 0.09045400000002246
                },
                {
                    "name": "C4",
                    "midi": 60,
                    "time": 423.05335800000574,
                    "velocity": 0.5196850393700787,
                    "duration": 0.09045400000002246
                },
                {
                    "name": "F4",
                    "midi": 65,
                    "time": 423.14381200000577,
                    "velocity": 0.6299212598425197,
                    "duration": 0.09045400000002246
                },
                {
                    "name": "C4",
                    "midi": 60,
                    "time": 423.2342660000058,
                    "velocity": 0.5039370078740157,
                    "duration": 0.09045400000002246
                },
                {
                    "name": "C#5",
                    "midi": 73,
                    "time": 423.3247200000058,
                    "velocity": 0.6535433070866141,
                    "duration": 0.09045400000002246
                },
                {
                    "name": "G#4",
                    "midi": 68,
                    "time": 423.41517400000583,
                    "velocity": 0.5196850393700787,
                    "duration": 0.09045400000002246
                },
                {
                    "name": "F4",
                    "midi": 65,
                    "time": 423.50562800000586,
                    "velocity": 0.5196850393700787,
                    "duration": 0.09045400000002246
                },
                {
                    "name": "G#4",
                    "midi": 68,
                    "time": 423.5960820000059,
                    "velocity": 0.5196850393700787,
                    "duration": 0.09045400000002246
                },
                {
                    "name": "C#5",
                    "midi": 73,
                    "time": 423.6865360000059,
                    "velocity": 0.6299212598425197,
                    "duration": 0.09045400000002246
                },
                {
                    "name": "G#4",
                    "midi": 68,
                    "time": 423.7769900000059,
                    "velocity": 0.5039370078740157,
                    "duration": 0.09045400000002246
                },
                {
                    "name": "F5",
                    "midi": 77,
                    "time": 423.86744400000595,
                    "velocity": 0.6614173228346457,
                    "duration": 0.09045400000002246
                },
                {
                    "name": "G#4",
                    "midi": 68,
                    "time": 423.95789800000597,
                    "velocity": 0.5196850393700787,
                    "duration": 0.09045400000002246
                },
                {
                    "name": "D#5",
                    "midi": 75,
                    "time": 424.048352000006,
                    "velocity": 0.6535433070866141,
                    "duration": 0.09045400000002246
                },
                {
                    "name": "G#4",
                    "midi": 68,
                    "time": 424.138806000006,
                    "velocity": 0.5196850393700787,
                    "duration": 0.09045400000002246
                },
                {
                    "name": "C#5",
                    "midi": 73,
                    "time": 424.22926000000604,
                    "velocity": 0.6377952755905512,
                    "duration": 0.09045400000002246
                },
                {
                    "name": "G#4",
                    "midi": 68,
                    "time": 424.31971400000606,
                    "velocity": 0.5196850393700787,
                    "duration": 0.09045400000002246
                },
                {
                    "name": "C#5",
                    "midi": 73,
                    "time": 424.4101680000061,
                    "velocity": 0.6535433070866141,
                    "duration": 0.09045400000002246
                },
                {
                    "name": "G#4",
                    "midi": 68,
                    "time": 424.5006220000061,
                    "velocity": 0.49606299212598426,
                    "duration": 0.09045400000002246
                },
                {
                    "name": "F4",
                    "midi": 65,
                    "time": 424.5910760000061,
                    "velocity": 0.49606299212598426,
                    "duration": 0.09045400000002246
                },
                {
                    "name": "G#4",
                    "midi": 68,
                    "time": 424.68153000000615,
                    "velocity": 0.49606299212598426,
                    "duration": 0.09045400000002246
                },
                {
                    "name": "C#5",
                    "midi": 73,
                    "time": 424.77198400000617,
                    "velocity": 0.6299212598425197,
                    "duration": 0.09045400000002246
                },
                {
                    "name": "G#4",
                    "midi": 68,
                    "time": 424.8624380000062,
                    "velocity": 0.4881889763779528,
                    "duration": 0.09045400000002246
                },
                {
                    "name": "F5",
                    "midi": 77,
                    "time": 424.9528920000062,
                    "velocity": 0.6535433070866141,
                    "duration": 0.09045400000002246
                },
                {
                    "name": "G#4",
                    "midi": 68,
                    "time": 425.04334600000624,
                    "velocity": 0.49606299212598426,
                    "duration": 0.09045400000002246
                },
                {
                    "name": "D#5",
                    "midi": 75,
                    "time": 425.13380000000626,
                    "velocity": 0.6299212598425197,
                    "duration": 0.09045400000002246
                },
                {
                    "name": "G#4",
                    "midi": 68,
                    "time": 425.2242540000063,
                    "velocity": 0.5196850393700787,
                    "duration": 0.09045400000002246
                },
                {
                    "name": "C#5",
                    "midi": 73,
                    "time": 425.3147080000063,
                    "velocity": 0.6299212598425197,
                    "duration": 0.09045400000002246
                },
                {
                    "name": "G#4",
                    "midi": 68,
                    "time": 425.4051620000063,
                    "velocity": 0.5039370078740157,
                    "duration": 0.09045400000002246
                },
                {
                    "name": "A#5",
                    "midi": 82,
                    "time": 425.49561600000635,
                    "velocity": 0.7322834645669292,
                    "duration": 0.09045400000002246
                },
                {
                    "name": "C#6",
                    "midi": 85,
                    "time": 425.5860700000064,
                    "velocity": 0.5905511811023622,
                    "duration": 0.09045400000002246
                },
                {
                    "name": "A#5",
                    "midi": 82,
                    "time": 425.6765240000064,
                    "velocity": 0.6299212598425197,
                    "duration": 0.09045400000002246
                },
                {
                    "name": "C#6",
                    "midi": 85,
                    "time": 425.7669780000064,
                    "velocity": 0.5433070866141733,
                    "duration": 0.09045400000002246
                },
                {
                    "name": "A#5",
                    "midi": 82,
                    "time": 425.85743200000644,
                    "velocity": 0.6062992125984252,
                    "duration": 0.09045400000002246
                },
                {
                    "name": "C#6",
                    "midi": 85,
                    "time": 425.94788600000646,
                    "velocity": 0.5433070866141733,
                    "duration": 0.09045400000002246
                },
                {
                    "name": "A#5",
                    "midi": 82,
                    "time": 426.0383400000065,
                    "velocity": 0.6141732283464567,
                    "duration": 0.09045400000002246
                },
                {
                    "name": "C#6",
                    "midi": 85,
                    "time": 426.1287940000065,
                    "velocity": 0.5433070866141733,
                    "duration": 0.09045400000002246
                },
                {
                    "name": "A#5",
                    "midi": 82,
                    "time": 426.21924800000653,
                    "velocity": 0.5826771653543307,
                    "duration": 0.09045400000002246
                },
                {
                    "name": "C#6",
                    "midi": 85,
                    "time": 426.30970200000655,
                    "velocity": 0.5433070866141733,
                    "duration": 0.09045400000002246
                },
                {
                    "name": "A#5",
                    "midi": 82,
                    "time": 426.4001560000066,
                    "velocity": 0.5826771653543307,
                    "duration": 0.09045400000002246
                },
                {
                    "name": "C#6",
                    "midi": 85,
                    "time": 426.4906100000066,
                    "velocity": 0.5433070866141733,
                    "duration": 0.09045400000002246
                },
                {
                    "name": "A#5",
                    "midi": 82,
                    "time": 426.5810640000066,
                    "velocity": 0.5826771653543307,
                    "duration": 0.09045400000002246
                },
                {
                    "name": "C#6",
                    "midi": 85,
                    "time": 426.67151800000664,
                    "velocity": 0.5433070866141733,
                    "duration": 0.09045400000002246
                },
                {
                    "name": "A#5",
                    "midi": 82,
                    "time": 426.76197200000666,
                    "velocity": 0.5826771653543307,
                    "duration": 0.09045400000002246
                },
                {
                    "name": "C#6",
                    "midi": 85,
                    "time": 426.8524260000067,
                    "velocity": 0.5433070866141733,
                    "duration": 0.09045400000002246
                },
                {
                    "name": "A#5",
                    "midi": 82,
                    "time": 426.9428800000067,
                    "velocity": 0.5826771653543307,
                    "duration": 0.09045400000002246
                },
                {
                    "name": "C#6",
                    "midi": 85,
                    "time": 427.03333400000673,
                    "velocity": 0.5433070866141733,
                    "duration": 0.09045400000002246
                },
                {
                    "name": "A#5",
                    "midi": 82,
                    "time": 427.12378800000675,
                    "velocity": 0.5905511811023622,
                    "duration": 0.09045400000002246
                },
                {
                    "name": "C#6",
                    "midi": 85,
                    "time": 427.2142420000068,
                    "velocity": 0.5433070866141733,
                    "duration": 0.09045400000002246
                },
                {
                    "name": "A#5",
                    "midi": 82,
                    "time": 427.3046960000068,
                    "velocity": 0.6062992125984252,
                    "duration": 0.09045400000002246
                },
                {
                    "name": "C#6",
                    "midi": 85,
                    "time": 427.3951500000068,
                    "velocity": 0.5433070866141733,
                    "duration": 0.09045400000002246
                },
                {
                    "name": "A#5",
                    "midi": 82,
                    "time": 427.48560400000684,
                    "velocity": 0.6062992125984252,
                    "duration": 0.09045400000002246
                },
                {
                    "name": "C#6",
                    "midi": 85,
                    "time": 427.57605800000687,
                    "velocity": 0.5433070866141733,
                    "duration": 0.09045400000002246
                },
                {
                    "name": "A#5",
                    "midi": 82,
                    "time": 427.6665120000069,
                    "velocity": 0.6456692913385826,
                    "duration": 0.09045400000002246
                },
                {
                    "name": "C#6",
                    "midi": 85,
                    "time": 427.7569660000069,
                    "velocity": 0.5511811023622047,
                    "duration": 0.09045400000002246
                },
                {
                    "name": "G5",
                    "midi": 79,
                    "time": 427.84742000000693,
                    "velocity": 0.6377952755905512,
                    "duration": 0.09045400000002246
                },
                {
                    "name": "A#5",
                    "midi": 82,
                    "time": 427.93787400000696,
                    "velocity": 0.5590551181102362,
                    "duration": 0.09045400000002246
                },
                {
                    "name": "F5",
                    "midi": 77,
                    "time": 428.028328000007,
                    "velocity": 0.6456692913385826,
                    "duration": 0.09045400000002246
                },
                {
                    "name": "G5",
                    "midi": 79,
                    "time": 428.118782000007,
                    "velocity": 0.5354330708661418,
                    "duration": 0.09045400000002246
                },
                {
                    "name": "F5",
                    "midi": 77,
                    "time": 428.209236000007,
                    "velocity": 0.6377952755905512,
                    "duration": 0.09045400000002246
                },
                {
                    "name": "G5",
                    "midi": 79,
                    "time": 428.29969000000705,
                    "velocity": 0.5511811023622047,
                    "duration": 0.09045400000002246
                },
                {
                    "name": "A#5",
                    "midi": 82,
                    "time": 428.39014400000707,
                    "velocity": 0.6299212598425197,
                    "duration": 0.09045400000002246
                },
                {
                    "name": "G5",
                    "midi": 79,
                    "time": 428.4805980000071,
                    "velocity": 0.5511811023622047,
                    "duration": 0.09045400000002246
                },
                {
                    "name": "F5",
                    "midi": 77,
                    "time": 428.5710520000071,
                    "velocity": 0.6299212598425197,
                    "duration": 0.09045400000002246
                },
                {
                    "name": "G5",
                    "midi": 79,
                    "time": 428.66150600000714,
                    "velocity": 0.5433070866141733,
                    "duration": 0.09045400000002246
                },
                {
                    "name": "F5",
                    "midi": 77,
                    "time": 428.8424140000072,
                    "velocity": 0.5669291338582677,
                    "duration": 0.09045400000002246
                },
                {
                    "name": "A#5",
                    "midi": 82,
                    "time": 428.9328680000072,
                    "velocity": 0.6456692913385826,
                    "duration": 0.09045400000002246
                },
                {
                    "name": "G5",
                    "midi": 79,
                    "time": 429.0233220000072,
                    "velocity": 0.5511811023622047,
                    "duration": 0.09045400000002246
                },
                {
                    "name": "F5",
                    "midi": 77,
                    "time": 429.11377600000725,
                    "velocity": 0.6062992125984252,
                    "duration": 0.09045400000002246
                },
                {
                    "name": "A#5",
                    "midi": 82,
                    "time": 429.20423000000727,
                    "velocity": 0.5433070866141733,
                    "duration": 0.09045400000002246
                },
                {
                    "name": "E5",
                    "midi": 76,
                    "time": 429.3851380000073,
                    "velocity": 0.5275590551181102,
                    "duration": 0.09045400000002246
                },
                {
                    "name": "A#5",
                    "midi": 82,
                    "time": 429.47559200000734,
                    "velocity": 0.5905511811023622,
                    "duration": 0.09045400000002246
                },
                {
                    "name": "G5",
                    "midi": 79,
                    "time": 429.56604600000736,
                    "velocity": 0.5039370078740157,
                    "duration": 0.09045400000002246
                },
                {
                    "name": "E5",
                    "midi": 76,
                    "time": 429.6565000000074,
                    "velocity": 0.5669291338582677,
                    "duration": 0.09045400000002246
                },
                {
                    "name": "A#5",
                    "midi": 82,
                    "time": 429.7469540000074,
                    "velocity": 0.4881889763779528,
                    "duration": 0.09045400000002246
                },
                {
                    "name": "C#5",
                    "midi": 73,
                    "time": 429.92786200000745,
                    "velocity": 0.5669291338582677,
                    "duration": 0.09045400000002246
                },
                {
                    "name": "A#5",
                    "midi": 82,
                    "time": 430.0183160000075,
                    "velocity": 0.6456692913385826,
                    "duration": 0.09045400000002246
                },
                {
                    "name": "G5",
                    "midi": 79,
                    "time": 430.1087700000075,
                    "velocity": 0.5511811023622047,
                    "duration": 0.09045400000002246
                },
                {
                    "name": "C#5",
                    "midi": 73,
                    "time": 430.1992240000075,
                    "velocity": 0.6062992125984252,
                    "duration": 0.09045400000002246
                },
                {
                    "name": "A#5",
                    "midi": 82,
                    "time": 430.28967800000754,
                    "velocity": 0.5433070866141733,
                    "duration": 0.09045400000002246
                },
                {
                    "name": "C5",
                    "midi": 72,
                    "time": 430.4705860000076,
                    "velocity": 0.5275590551181102,
                    "duration": 0.09045400000002246
                },
                {
                    "name": "A#5",
                    "midi": 82,
                    "time": 430.5610400000076,
                    "velocity": 0.5905511811023622,
                    "duration": 0.09045400000002246
                },
                {
                    "name": "G5",
                    "midi": 79,
                    "time": 430.65149400000763,
                    "velocity": 0.5039370078740157,
                    "duration": 0.09045400000002246
                },
                {
                    "name": "C5",
                    "midi": 72,
                    "time": 430.74194800000765,
                    "velocity": 0.5669291338582677,
                    "duration": 0.09045400000002246
                },
                {
                    "name": "A#5",
                    "midi": 82,
                    "time": 430.8324020000077,
                    "velocity": 0.4881889763779528,
                    "duration": 0.09045400000002246
                },
                {
                    "name": "F5",
                    "midi": 77,
                    "time": 431.0133100000077,
                    "velocity": 0.5669291338582677,
                    "duration": 0.09045400000002246
                },
                {
                    "name": "A#5",
                    "midi": 82,
                    "time": 431.10376400000774,
                    "velocity": 0.6456692913385826,
                    "duration": 0.09045400000002246
                },
                {
                    "name": "G5",
                    "midi": 79,
                    "time": 431.19421800000777,
                    "velocity": 0.5511811023622047,
                    "duration": 0.09045400000002246
                },
                {
                    "name": "F5",
                    "midi": 77,
                    "time": 431.2846720000078,
                    "velocity": 0.6062992125984252,
                    "duration": 0.09045400000002246
                },
                {
                    "name": "A#5",
                    "midi": 82,
                    "time": 431.3751260000078,
                    "velocity": 0.5433070866141733,
                    "duration": 0.09045400000002246
                },
                {
                    "name": "E5",
                    "midi": 76,
                    "time": 431.55603400000786,
                    "velocity": 0.5275590551181102,
                    "duration": 0.09045400000002246
                },
                {
                    "name": "A#5",
                    "midi": 82,
                    "time": 431.6464880000079,
                    "velocity": 0.5905511811023622,
                    "duration": 0.09045400000002246
                },
                {
                    "name": "G5",
                    "midi": 79,
                    "time": 431.7369420000079,
                    "velocity": 0.5039370078740157,
                    "duration": 0.09045400000002246
                },
                {
                    "name": "E5",
                    "midi": 76,
                    "time": 431.8273960000079,
                    "velocity": 0.5669291338582677,
                    "duration": 0.09045400000002246
                },
                {
                    "name": "A#5",
                    "midi": 82,
                    "time": 431.91785000000795,
                    "velocity": 0.4881889763779528,
                    "duration": 0.09045400000002246
                },
                {
                    "name": "B5",
                    "midi": 83,
                    "time": 432.37012000000794,
                    "velocity": 0.6535433070866141,
                    "duration": 0.09045400000002246
                },
                {
                    "name": "D6",
                    "midi": 86,
                    "time": 432.46057400000797,
                    "velocity": 0.6220472440944882,
                    "duration": 0.09045400000002246
                },
                {
                    "name": "F6",
                    "midi": 89,
                    "time": 432.551028000008,
                    "velocity": 0.6850393700787402,
                    "duration": 0.09045400000002246
                },
                {
                    "name": "D6",
                    "midi": 86,
                    "time": 432.641482000008,
                    "velocity": 0.6220472440944882,
                    "duration": 0.09045400000002246
                },
                {
                    "name": "B5",
                    "midi": 83,
                    "time": 432.73193600000803,
                    "velocity": 0.6771653543307087,
                    "duration": 0.09045400000002246
                },
                {
                    "name": "G#6",
                    "midi": 92,
                    "time": 432.82239000000806,
                    "velocity": 0.6535433070866141,
                    "duration": 0.09045400000002246
                },
                {
                    "name": "G6",
                    "midi": 91,
                    "time": 432.9128440000081,
                    "velocity": 0.6614173228346457,
                    "duration": 0.09045400000002246
                },
                {
                    "name": "F6",
                    "midi": 89,
                    "time": 433.0032980000081,
                    "velocity": 0.6220472440944882,
                    "duration": 0.09045400000002246
                },
                {
                    "name": "E6",
                    "midi": 88,
                    "time": 433.0937520000081,
                    "velocity": 0.6220472440944882,
                    "duration": 0.09045400000002246
                },
                {
                    "name": "G6",
                    "midi": 91,
                    "time": 433.18420600000815,
                    "velocity": 0.5826771653543307,
                    "duration": 0.09045400000002246
                },
                {
                    "name": "F6",
                    "midi": 89,
                    "time": 433.27466000000817,
                    "velocity": 0.6220472440944882,
                    "duration": 0.09045400000002246
                },
                {
                    "name": "E6",
                    "midi": 88,
                    "time": 433.3651140000082,
                    "velocity": 0.5669291338582677,
                    "duration": 0.09045400000002246
                },
                {
                    "name": "C#6",
                    "midi": 85,
                    "time": 433.4555680000082,
                    "velocity": 0.5748031496062992,
                    "duration": 0.09045400000002246
                },
                {
                    "name": "C6",
                    "midi": 84,
                    "time": 433.54602200000824,
                    "velocity": 0.5669291338582677,
                    "duration": 0.09045400000002246
                },
                {
                    "name": "A#5",
                    "midi": 82,
                    "time": 433.63647600000826,
                    "velocity": 0.6141732283464567,
                    "duration": 0.09045400000002246
                },
                {
                    "name": "C#6",
                    "midi": 85,
                    "time": 433.7269300000083,
                    "velocity": 0.5748031496062992,
                    "duration": 0.09045400000002246
                },
                {
                    "name": "C6",
                    "midi": 84,
                    "time": 433.8173840000083,
                    "velocity": 0.5905511811023622,
                    "duration": 0.09045400000002246
                },
                {
                    "name": "A#5",
                    "midi": 82,
                    "time": 433.9078380000083,
                    "velocity": 0.5669291338582677,
                    "duration": 0.09045400000002246
                },
                {
                    "name": "G#5",
                    "midi": 80,
                    "time": 433.99829200000835,
                    "velocity": 0.5590551181102362,
                    "duration": 0.09045400000002246
                },
                {
                    "name": "G5",
                    "midi": 79,
                    "time": 434.08874600000837,
                    "velocity": 0.5511811023622047,
                    "duration": 0.09045400000002246
                },
                {
                    "name": "F5",
                    "midi": 77,
                    "time": 434.2696540000084,
                    "velocity": 0.30708661417322836,
                    "duration": 0.09045400000002246
                },
                {
                    "name": "G#5",
                    "midi": 80,
                    "time": 434.36010800000844,
                    "velocity": 0.3228346456692913,
                    "duration": 0.09045400000002246
                },
                {
                    "name": "C6",
                    "midi": 84,
                    "time": 434.45056200000846,
                    "velocity": 0.33858267716535434,
                    "duration": 0.09045400000002246
                },
                {
                    "name": "F6",
                    "midi": 89,
                    "time": 434.5410160000085,
                    "velocity": 0.3543307086614173,
                    "duration": 0.09045400000002246
                },
                {
                    "name": "F5",
                    "midi": 77,
                    "time": 434.6314700000085,
                    "velocity": 0.3228346456692913,
                    "duration": 0.09045400000002246
                },
                {
                    "name": "F6",
                    "midi": 89,
                    "time": 434.99328600000854,
                    "velocity": 0.3543307086614173,
                    "duration": 0.09045400000002246
                },
                {
                    "name": "F5",
                    "midi": 77,
                    "time": 435.08374000000856,
                    "velocity": 0.3228346456692913,
                    "duration": 0.09045400000002246
                },
                {
                    "name": "F6",
                    "midi": 89,
                    "time": 435.1741940000086,
                    "velocity": 0.3543307086614173,
                    "duration": 0.09045400000002246
                },
                {
                    "name": "F6",
                    "midi": 89,
                    "time": 435.5360100000086,
                    "velocity": 0.3464566929133858,
                    "duration": 0.09045400000002246
                },
                {
                    "name": "F5",
                    "midi": 77,
                    "time": 435.62646400000864,
                    "velocity": 0.3228346456692913,
                    "duration": 0.09045400000002246
                },
                {
                    "name": "F6",
                    "midi": 89,
                    "time": 435.71691800000866,
                    "velocity": 0.3464566929133858,
                    "duration": 0.09045400000002246
                },
                {
                    "name": "E6",
                    "midi": 88,
                    "time": 436.0787340000087,
                    "velocity": 0.3464566929133858,
                    "duration": 0.09045400000002246
                },
                {
                    "name": "E5",
                    "midi": 76,
                    "time": 436.1691880000087,
                    "velocity": 0.3228346456692913,
                    "duration": 0.09045400000002246
                },
                {
                    "name": "E6",
                    "midi": 88,
                    "time": 436.25964200000874,
                    "velocity": 0.3543307086614173,
                    "duration": 0.09045400000002246
                },
                {
                    "name": "F5",
                    "midi": 77,
                    "time": 436.4405500000088,
                    "velocity": 0.30708661417322836,
                    "duration": 0.09045400000002246
                },
                {
                    "name": "G#5",
                    "midi": 80,
                    "time": 436.5310040000088,
                    "velocity": 0.3228346456692913,
                    "duration": 0.09045400000002246
                },
                {
                    "name": "C6",
                    "midi": 84,
                    "time": 436.62145800000883,
                    "velocity": 0.33858267716535434,
                    "duration": 0.09045400000002246
                },
                {
                    "name": "F6",
                    "midi": 89,
                    "time": 436.71191200000885,
                    "velocity": 0.3543307086614173,
                    "duration": 0.09045400000002246
                },
                {
                    "name": "F5",
                    "midi": 77,
                    "time": 436.8023660000089,
                    "velocity": 0.3228346456692913,
                    "duration": 0.09045400000002246
                },
                {
                    "name": "F5",
                    "midi": 77,
                    "time": 437.1641820000089,
                    "velocity": 0.3543307086614173,
                    "duration": 0.09045400000002246
                },
                {
                    "name": "F4",
                    "midi": 65,
                    "time": 437.25463600000893,
                    "velocity": 0.3228346456692913,
                    "duration": 0.09045400000002246
                },
                {
                    "name": "F5",
                    "midi": 77,
                    "time": 437.34509000000895,
                    "velocity": 0.3543307086614173,
                    "duration": 0.09045400000002246
                },
                {
                    "name": "F5",
                    "midi": 77,
                    "time": 437.706906000009,
                    "velocity": 0.3464566929133858,
                    "duration": 0.09045400000002246
                },
                {
                    "name": "F4",
                    "midi": 65,
                    "time": 437.797360000009,
                    "velocity": 0.3228346456692913,
                    "duration": 0.09045400000002246
                },
                {
                    "name": "F5",
                    "midi": 77,
                    "time": 437.88781400000903,
                    "velocity": 0.3464566929133858,
                    "duration": 0.09045400000002246
                },
                {
                    "name": "E5",
                    "midi": 76,
                    "time": 438.24963000000906,
                    "velocity": 0.3464566929133858,
                    "duration": 0.09045400000002246
                },
                {
                    "name": "E4",
                    "midi": 64,
                    "time": 438.3400840000091,
                    "velocity": 0.3228346456692913,
                    "duration": 0.09045400000002246
                },
                {
                    "name": "E5",
                    "midi": 76,
                    "time": 438.4305380000091,
                    "velocity": 0.3543307086614173,
                    "duration": 0.09045400000002246
                },
                {
                    "name": "F5",
                    "midi": 77,
                    "time": 438.61144600000915,
                    "velocity": 0.30708661417322836,
                    "duration": 0.09045400000002246
                },
                {
                    "name": "G#5",
                    "midi": 80,
                    "time": 438.7019000000092,
                    "velocity": 0.3228346456692913,
                    "duration": 0.09045400000002246
                },
                {
                    "name": "C6",
                    "midi": 84,
                    "time": 438.7923540000092,
                    "velocity": 0.33858267716535434,
                    "duration": 0.09045400000002246
                },
                {
                    "name": "F6",
                    "midi": 89,
                    "time": 438.8828080000092,
                    "velocity": 0.3543307086614173,
                    "duration": 0.09045400000002246
                },
                {
                    "name": "F5",
                    "midi": 77,
                    "time": 438.97326200000924,
                    "velocity": 0.3228346456692913,
                    "duration": 0.09045400000002246
                },
                {
                    "name": "F6",
                    "midi": 89,
                    "time": 439.3350780000093,
                    "velocity": 0.3543307086614173,
                    "duration": 0.09045400000002246
                },
                {
                    "name": "F5",
                    "midi": 77,
                    "time": 439.4255320000093,
                    "velocity": 0.3228346456692913,
                    "duration": 0.09045400000002246
                },
                {
                    "name": "F6",
                    "midi": 89,
                    "time": 439.5159860000093,
                    "velocity": 0.3543307086614173,
                    "duration": 0.09045400000002246
                },
                {
                    "name": "F6",
                    "midi": 89,
                    "time": 439.87780200000935,
                    "velocity": 0.3464566929133858,
                    "duration": 0.09045400000002246
                },
                {
                    "name": "F5",
                    "midi": 77,
                    "time": 439.9682560000094,
                    "velocity": 0.3228346456692913,
                    "duration": 0.09045400000002246
                },
                {
                    "name": "F6",
                    "midi": 89,
                    "time": 440.0587100000094,
                    "velocity": 0.3464566929133858,
                    "duration": 0.09045400000002246
                },
                {
                    "name": "E6",
                    "midi": 88,
                    "time": 440.42052600000943,
                    "velocity": 0.3464566929133858,
                    "duration": 0.09045400000002246
                },
                {
                    "name": "E5",
                    "midi": 76,
                    "time": 440.51098000000945,
                    "velocity": 0.3228346456692913,
                    "duration": 0.09045400000002246
                },
                {
                    "name": "E6",
                    "midi": 88,
                    "time": 440.6014340000095,
                    "velocity": 0.3543307086614173,
                    "duration": 0.09045400000002246
                },
                {
                    "name": "F6",
                    "midi": 89,
                    "time": 440.6918880000095,
                    "velocity": 0.3464566929133858,
                    "duration": 0.09045400000002246
                },
                {
                    "name": "C6",
                    "midi": 84,
                    "time": 440.7823420000095,
                    "velocity": 0.3228346456692913,
                    "duration": 0.09045400000002246
                },
                {
                    "name": "G#5",
                    "midi": 80,
                    "time": 440.87279600000954,
                    "velocity": 0.31496062992125984,
                    "duration": 0.09045400000002246
                },
                {
                    "name": "C6",
                    "midi": 84,
                    "time": 440.96325000000957,
                    "velocity": 0.28346456692913385,
                    "duration": 0.09045400000002246
                },
                {
                    "name": "F6",
                    "midi": 89,
                    "time": 441.0537040000096,
                    "velocity": 0.30708661417322836,
                    "duration": 0.09045400000002246
                },
                {
                    "name": "C6",
                    "midi": 84,
                    "time": 441.1441580000096,
                    "velocity": 0.28346456692913385,
                    "duration": 0.09045400000002246
                },
                {
                    "name": "G#5",
                    "midi": 80,
                    "time": 441.23461200000963,
                    "velocity": 0.33070866141732286,
                    "duration": 0.09045400000002246
                },
                {
                    "name": "C6",
                    "midi": 84,
                    "time": 441.32506600000966,
                    "velocity": 0.2992125984251969,
                    "duration": 0.09045400000002246
                },
                {
                    "name": "F6",
                    "midi": 89,
                    "time": 441.4155200000097,
                    "velocity": 0.2992125984251969,
                    "duration": 0.09045400000002246
                },
                {
                    "name": "C6",
                    "midi": 84,
                    "time": 441.5059740000097,
                    "velocity": 0.2677165354330709,
                    "duration": 0.09045400000002246
                },
                {
                    "name": "G#5",
                    "midi": 80,
                    "time": 441.5964280000097,
                    "velocity": 0.29133858267716534,
                    "duration": 0.09045400000002246
                },
                {
                    "name": "C6",
                    "midi": 84,
                    "time": 441.68688200000975,
                    "velocity": 0.25984251968503935,
                    "duration": 0.09045400000002246
                },
                {
                    "name": "F6",
                    "midi": 89,
                    "time": 441.77733600000977,
                    "velocity": 0.30708661417322836,
                    "duration": 0.09045400000002246
                },
                {
                    "name": "C6",
                    "midi": 84,
                    "time": 441.8677900000098,
                    "velocity": 0.28346456692913385,
                    "duration": 0.09045400000002246
                },
                {
                    "name": "G#5",
                    "midi": 80,
                    "time": 441.9582440000098,
                    "velocity": 0.28346456692913385,
                    "duration": 0.09045400000002246
                },
                {
                    "name": "C6",
                    "midi": 84,
                    "time": 442.04869800000984,
                    "velocity": 0.25196850393700787,
                    "duration": 0.09045400000002246
                },
                {
                    "name": "F6",
                    "midi": 89,
                    "time": 442.13915200000986,
                    "velocity": 0.2755905511811024,
                    "duration": 0.09045400000002246
                },
                {
                    "name": "C6",
                    "midi": 84,
                    "time": 442.2296060000099,
                    "velocity": 0.2440944881889764,
                    "duration": 0.09045400000002246
                },
                {
                    "name": "F6",
                    "midi": 89,
                    "time": 442.3200600000099,
                    "velocity": 0.28346456692913385,
                    "duration": 0.09045400000002246
                },
                {
                    "name": "C6",
                    "midi": 84,
                    "time": 442.4105140000099,
                    "velocity": 0.2677165354330709,
                    "duration": 0.09045400000002246
                },
                {
                    "name": "F6",
                    "midi": 89,
                    "time": 442.50096800000995,
                    "velocity": 0.2677165354330709,
                    "duration": 0.09045400000002246
                },
                {
                    "name": "C6",
                    "midi": 84,
                    "time": 442.59142200000997,
                    "velocity": 0.23622047244094488,
                    "duration": 0.09045400000002246
                },
                {
                    "name": "F6",
                    "midi": 89,
                    "time": 442.68187600001,
                    "velocity": 0.25984251968503935,
                    "duration": 0.09045400000002246
                },
                {
                    "name": "C6",
                    "midi": 84,
                    "time": 442.77233000001,
                    "velocity": 0.23622047244094488,
                    "duration": 0.09045400000002246
                },
                {
                    "name": "F6",
                    "midi": 89,
                    "time": 442.86278400001004,
                    "velocity": 0.2992125984251969,
                    "duration": 0.09045400000002246
                },
                {
                    "name": "C6",
                    "midi": 84,
                    "time": 442.95323800001006,
                    "velocity": 0.23622047244094488,
                    "duration": 0.09045400000002246
                },
                {
                    "name": "G#5",
                    "midi": 80,
                    "time": 443.0436920000101,
                    "velocity": 0.29133858267716534,
                    "duration": 0.09045400000002246
                },
                {
                    "name": "C6",
                    "midi": 84,
                    "time": 443.1341460000101,
                    "velocity": 0.23622047244094488,
                    "duration": 0.09045400000002246
                },
                {
                    "name": "F6",
                    "midi": 89,
                    "time": 443.2246000000101,
                    "velocity": 0.25984251968503935,
                    "duration": 0.09045400000002246
                },
                {
                    "name": "C6",
                    "midi": 84,
                    "time": 443.31505400001015,
                    "velocity": 0.23622047244094488,
                    "duration": 0.09045400000002246
                },
                {
                    "name": "G#5",
                    "midi": 80,
                    "time": 443.4055080000102,
                    "velocity": 0.28346456692913385,
                    "duration": 0.09045400000002246
                },
                {
                    "name": "C6",
                    "midi": 84,
                    "time": 443.4959620000102,
                    "velocity": 0.23622047244094488,
                    "duration": 0.09045400000002246
                },
                {
                    "name": "F6",
                    "midi": 89,
                    "time": 443.5864160000102,
                    "velocity": 0.2755905511811024,
                    "duration": 0.09045400000002246
                },
                {
                    "name": "C6",
                    "midi": 84,
                    "time": 443.67687000001024,
                    "velocity": 0.23622047244094488,
                    "duration": 0.09045400000002246
                },
                {
                    "name": "G#5",
                    "midi": 80,
                    "time": 443.76732400001026,
                    "velocity": 0.2440944881889764,
                    "duration": 0.09045400000002246
                },
                {
                    "name": "C6",
                    "midi": 84,
                    "time": 443.8577780000103,
                    "velocity": 0.23622047244094488,
                    "duration": 0.09045400000002246
                },
                {
                    "name": "F6",
                    "midi": 89,
                    "time": 443.9482320000103,
                    "velocity": 0.2992125984251969,
                    "duration": 0.09045400000002246
                },
                {
                    "name": "C6",
                    "midi": 84,
                    "time": 444.03868600001033,
                    "velocity": 0.23622047244094488,
                    "duration": 0.09045400000002246
                },
                {
                    "name": "G#5",
                    "midi": 80,
                    "time": 444.12914000001035,
                    "velocity": 0.25984251968503935,
                    "duration": 0.09045400000002246
                },
                {
                    "name": "C6",
                    "midi": 84,
                    "time": 444.2195940000104,
                    "velocity": 0.2283464566929134,
                    "duration": 0.09045400000002246
                },
                {
                    "name": "F6",
                    "midi": 89,
                    "time": 444.3100480000104,
                    "velocity": 0.25984251968503935,
                    "duration": 0.09045400000002246
                },
                {
                    "name": "C6",
                    "midi": 84,
                    "time": 444.4005020000104,
                    "velocity": 0.2204724409448819,
                    "duration": 0.09045400000002246
                },
                {
                    "name": "F6",
                    "midi": 89,
                    "time": 444.49095600001044,
                    "velocity": 0.29133858267716534,
                    "duration": 0.09045400000002246
                },
                {
                    "name": "C6",
                    "midi": 84,
                    "time": 444.58141000001046,
                    "velocity": 0.25984251968503935,
                    "duration": 0.09045400000002246
                },
                {
                    "name": "G#5",
                    "midi": 80,
                    "time": 444.6718640000105,
                    "velocity": 0.2677165354330709,
                    "duration": 0.09045400000002246
                },
                {
                    "name": "C6",
                    "midi": 84,
                    "time": 444.7623180000105,
                    "velocity": 0.2283464566929134,
                    "duration": 0.09045400000002246
                },
                {
                    "name": "F6",
                    "midi": 89,
                    "time": 444.85277200001053,
                    "velocity": 0.25984251968503935,
                    "duration": 0.09045400000002246
                },
                {
                    "name": "C6",
                    "midi": 84,
                    "time": 444.94322600001055,
                    "velocity": 0.2283464566929134,
                    "duration": 0.09045400000002246
                },
                {
                    "name": "F6",
                    "midi": 89,
                    "time": 445.0336800000106,
                    "velocity": 0.2992125984251969,
                    "duration": 0.09045400000002246
                },
                {
                    "name": "C6",
                    "midi": 84,
                    "time": 445.1241340000106,
                    "velocity": 0.23622047244094488,
                    "duration": 0.09045400000002246
                },
                {
                    "name": "G#5",
                    "midi": 80,
                    "time": 445.2145880000106,
                    "velocity": 0.29133858267716534,
                    "duration": 0.09045400000002246
                },
                {
                    "name": "C6",
                    "midi": 84,
                    "time": 445.30504200001064,
                    "velocity": 0.23622047244094488,
                    "duration": 0.09045400000002246
                },
                {
                    "name": "F6",
                    "midi": 89,
                    "time": 445.39549600001067,
                    "velocity": 0.25984251968503935,
                    "duration": 0.09045400000002246
                },
                {
                    "name": "C6",
                    "midi": 84,
                    "time": 445.4859500000107,
                    "velocity": 0.23622047244094488,
                    "duration": 0.09045400000002246
                },
                {
                    "name": "F6",
                    "midi": 89,
                    "time": 445.5764040000107,
                    "velocity": 0.28346456692913385,
                    "duration": 0.09045400000002246
                },
                {
                    "name": "C6",
                    "midi": 84,
                    "time": 445.66685800001073,
                    "velocity": 0.23622047244094488,
                    "duration": 0.09045400000002246
                },
                {
                    "name": "G#5",
                    "midi": 80,
                    "time": 445.75731200001076,
                    "velocity": 0.2755905511811024,
                    "duration": 0.09045400000002246
                },
                {
                    "name": "C6",
                    "midi": 84,
                    "time": 445.8477660000108,
                    "velocity": 0.23622047244094488,
                    "duration": 0.09045400000002246
                },
                {
                    "name": "F6",
                    "midi": 89,
                    "time": 445.9382200000108,
                    "velocity": 0.2440944881889764,
                    "duration": 0.09045400000002246
                },
                {
                    "name": "C6",
                    "midi": 84,
                    "time": 446.0286740000108,
                    "velocity": 0.23622047244094488,
                    "duration": 0.09045400000002246
                },
                {
                    "name": "F6",
                    "midi": 89,
                    "time": 446.11912800001085,
                    "velocity": 0.2992125984251969,
                    "duration": 0.09045400000002246
                },
                {
                    "name": "C6",
                    "midi": 84,
                    "time": 446.20958200001087,
                    "velocity": 0.23622047244094488,
                    "duration": 0.09045400000002246
                },
                {
                    "name": "G#5",
                    "midi": 80,
                    "time": 446.3000360000109,
                    "velocity": 0.25984251968503935,
                    "duration": 0.09045400000002246
                },
                {
                    "name": "C6",
                    "midi": 84,
                    "time": 446.3904900000109,
                    "velocity": 0.2283464566929134,
                    "duration": 0.09045400000002246
                },
                {
                    "name": "F6",
                    "midi": 89,
                    "time": 446.48094400001094,
                    "velocity": 0.25984251968503935,
                    "duration": 0.09045400000002246
                },
                {
                    "name": "C6",
                    "midi": 84,
                    "time": 446.57139800001096,
                    "velocity": 0.2204724409448819,
                    "duration": 0.09045400000002246
                },
                {
                    "name": "F6",
                    "midi": 89,
                    "time": 446.661852000011,
                    "velocity": 0.29133858267716534,
                    "duration": 0.09045400000002246
                },
                {
                    "name": "C6",
                    "midi": 84,
                    "time": 446.752306000011,
                    "velocity": 0.25984251968503935,
                    "duration": 0.09045400000002246
                },
                {
                    "name": "G#5",
                    "midi": 80,
                    "time": 446.842760000011,
                    "velocity": 0.2677165354330709,
                    "duration": 0.09045400000002246
                },
                {
                    "name": "C6",
                    "midi": 84,
                    "time": 446.93321400001105,
                    "velocity": 0.2283464566929134,
                    "duration": 0.09045400000002246
                },
                {
                    "name": "F6",
                    "midi": 89,
                    "time": 447.02366800001107,
                    "velocity": 0.25984251968503935,
                    "duration": 0.09045400000002246
                },
                {
                    "name": "C6",
                    "midi": 84,
                    "time": 447.1141220000111,
                    "velocity": 0.2283464566929134,
                    "duration": 0.09045400000002246
                },
                {
                    "name": "D#6",
                    "midi": 87,
                    "time": 447.2045760000111,
                    "velocity": 0.2992125984251969,
                    "duration": 0.09045400000002246
                },
                {
                    "name": "C6",
                    "midi": 84,
                    "time": 447.29503000001114,
                    "velocity": 0.23622047244094488,
                    "duration": 0.09045400000002246
                },
                {
                    "name": "G#5",
                    "midi": 80,
                    "time": 447.38548400001116,
                    "velocity": 0.29133858267716534,
                    "duration": 0.09045400000002246
                },
                {
                    "name": "C6",
                    "midi": 84,
                    "time": 447.4759380000112,
                    "velocity": 0.23622047244094488,
                    "duration": 0.09045400000002246
                },
                {
                    "name": "D#6",
                    "midi": 87,
                    "time": 447.5663920000112,
                    "velocity": 0.25984251968503935,
                    "duration": 0.09045400000002246
                },
                {
                    "name": "C6",
                    "midi": 84,
                    "time": 447.6568460000112,
                    "velocity": 0.23622047244094488,
                    "duration": 0.09045400000002246
                },
                {
                    "name": "G#5",
                    "midi": 80,
                    "time": 447.74730000001125,
                    "velocity": 0.28346456692913385,
                    "duration": 0.09045400000002246
                },
                {
                    "name": "C6",
                    "midi": 84,
                    "time": 447.8377540000113,
                    "velocity": 0.23622047244094488,
                    "duration": 0.09045400000002246
                },
                {
                    "name": "D#6",
                    "midi": 87,
                    "time": 447.9282080000113,
                    "velocity": 0.2755905511811024,
                    "duration": 0.09045400000002246
                },
                {
                    "name": "C6",
                    "midi": 84,
                    "time": 448.0186620000113,
                    "velocity": 0.23622047244094488,
                    "duration": 0.09045400000002246
                },
                {
                    "name": "G#5",
                    "midi": 80,
                    "time": 448.10911600001134,
                    "velocity": 0.2440944881889764,
                    "duration": 0.09045400000002246
                },
                {
                    "name": "C6",
                    "midi": 84,
                    "time": 448.19957000001136,
                    "velocity": 0.23622047244094488,
                    "duration": 0.09045400000002246
                },
                {
                    "name": "D#6",
                    "midi": 87,
                    "time": 448.2900240000114,
                    "velocity": 0.2992125984251969,
                    "duration": 0.09045400000002246
                },
                {
                    "name": "C6",
                    "midi": 84,
                    "time": 448.3804780000114,
                    "velocity": 0.23622047244094488,
                    "duration": 0.09045400000002246
                },
                {
                    "name": "G#5",
                    "midi": 80,
                    "time": 448.47093200001143,
                    "velocity": 0.25984251968503935,
                    "duration": 0.09045400000002246
                },
                {
                    "name": "C6",
                    "midi": 84,
                    "time": 448.56138600001145,
                    "velocity": 0.2283464566929134,
                    "duration": 0.09045400000002246
                },
                {
                    "name": "D#6",
                    "midi": 87,
                    "time": 448.6518400000115,
                    "velocity": 0.25984251968503935,
                    "duration": 0.09045400000002246
                },
                {
                    "name": "C6",
                    "midi": 84,
                    "time": 448.7422940000115,
                    "velocity": 0.2204724409448819,
                    "duration": 0.09045400000002246
                },
                {
                    "name": "D#6",
                    "midi": 87,
                    "time": 448.8327480000115,
                    "velocity": 0.29133858267716534,
                    "duration": 0.09045400000002246
                },
                {
                    "name": "C6",
                    "midi": 84,
                    "time": 448.92320200001154,
                    "velocity": 0.25984251968503935,
                    "duration": 0.09045400000002246
                },
                {
                    "name": "G#5",
                    "midi": 80,
                    "time": 449.01365600001157,
                    "velocity": 0.2677165354330709,
                    "duration": 0.09045400000002246
                },
                {
                    "name": "C6",
                    "midi": 84,
                    "time": 449.1041100000116,
                    "velocity": 0.2283464566929134,
                    "duration": 0.09045400000002246
                },
                {
                    "name": "D#6",
                    "midi": 87,
                    "time": 449.1945640000116,
                    "velocity": 0.25984251968503935,
                    "duration": 0.09045400000002246
                },
                {
                    "name": "C6",
                    "midi": 84,
                    "time": 449.28501800001163,
                    "velocity": 0.2283464566929134,
                    "duration": 0.09045400000002246
                },
                {
                    "name": "D#6",
                    "midi": 87,
                    "time": 449.37547200001165,
                    "velocity": 0.2992125984251969,
                    "duration": 0.09045400000002246
                },
                {
                    "name": "C6",
                    "midi": 84,
                    "time": 449.4659260000117,
                    "velocity": 0.23622047244094488,
                    "duration": 0.09045400000002246
                },
                {
                    "name": "G#5",
                    "midi": 80,
                    "time": 449.5563800000117,
                    "velocity": 0.29133858267716534,
                    "duration": 0.09045400000002246
                },
                {
                    "name": "C6",
                    "midi": 84,
                    "time": 449.6468340000117,
                    "velocity": 0.23622047244094488,
                    "duration": 0.09045400000002246
                },
                {
                    "name": "D#6",
                    "midi": 87,
                    "time": 449.73728800001174,
                    "velocity": 0.25984251968503935,
                    "duration": 0.09045400000002246
                },
                {
                    "name": "C6",
                    "midi": 84,
                    "time": 449.82774200001177,
                    "velocity": 0.23622047244094488,
                    "duration": 0.09045400000002246
                },
                {
                    "name": "D#6",
                    "midi": 87,
                    "time": 449.9181960000118,
                    "velocity": 0.28346456692913385,
                    "duration": 0.09045400000002246
                },
                {
                    "name": "C6",
                    "midi": 84,
                    "time": 450.0086500000118,
                    "velocity": 0.23622047244094488,
                    "duration": 0.09045400000002246
                },
                {
                    "name": "G#5",
                    "midi": 80,
                    "time": 450.09910400001183,
                    "velocity": 0.2755905511811024,
                    "duration": 0.09045400000002246
                },
                {
                    "name": "C6",
                    "midi": 84,
                    "time": 450.18955800001186,
                    "velocity": 0.23622047244094488,
                    "duration": 0.09045400000002246
                },
                {
                    "name": "D#6",
                    "midi": 87,
                    "time": 450.2800120000119,
                    "velocity": 0.2440944881889764,
                    "duration": 0.09045400000002246
                },
                {
                    "name": "C6",
                    "midi": 84,
                    "time": 450.3704660000119,
                    "velocity": 0.23622047244094488,
                    "duration": 0.09045400000002246
                },
                {
                    "name": "D#6",
                    "midi": 87,
                    "time": 450.4609200000119,
                    "velocity": 0.2992125984251969,
                    "duration": 0.09045400000002246
                },
                {
                    "name": "C6",
                    "midi": 84,
                    "time": 450.55137400001195,
                    "velocity": 0.23622047244094488,
                    "duration": 0.09045400000002246
                },
                {
                    "name": "G#5",
                    "midi": 80,
                    "time": 450.64182800001197,
                    "velocity": 0.25984251968503935,
                    "duration": 0.09045400000002246
                },
                {
                    "name": "C6",
                    "midi": 84,
                    "time": 450.732282000012,
                    "velocity": 0.2283464566929134,
                    "duration": 0.09045400000002246
                },
                {
                    "name": "D#6",
                    "midi": 87,
                    "time": 450.822736000012,
                    "velocity": 0.25984251968503935,
                    "duration": 0.09045400000002246
                },
                {
                    "name": "C6",
                    "midi": 84,
                    "time": 450.91319000001204,
                    "velocity": 0.2204724409448819,
                    "duration": 0.09045400000002246
                },
                {
                    "name": "D#6",
                    "midi": 87,
                    "time": 451.00364400001206,
                    "velocity": 0.29133858267716534,
                    "duration": 0.09045400000002246
                },
                {
                    "name": "C6",
                    "midi": 84,
                    "time": 451.0940980000121,
                    "velocity": 0.25984251968503935,
                    "duration": 0.09045400000002246
                },
                {
                    "name": "G#5",
                    "midi": 80,
                    "time": 451.1845520000121,
                    "velocity": 0.2677165354330709,
                    "duration": 0.09045400000002246
                },
                {
                    "name": "C6",
                    "midi": 84,
                    "time": 451.2750060000121,
                    "velocity": 0.2283464566929134,
                    "duration": 0.09045400000002246
                },
                {
                    "name": "D#6",
                    "midi": 87,
                    "time": 451.36546000001215,
                    "velocity": 0.25984251968503935,
                    "duration": 0.09045400000002246
                },
                {
                    "name": "C6",
                    "midi": 84,
                    "time": 451.45591400001217,
                    "velocity": 0.2283464566929134,
                    "duration": 0.09045400000002246
                },
                {
                    "name": "F6",
                    "midi": 89,
                    "time": 451.5463680000122,
                    "velocity": 0.2992125984251969,
                    "duration": 0.09045400000002246
                },
                {
                    "name": "C#6",
                    "midi": 85,
                    "time": 451.6368220000122,
                    "velocity": 0.23622047244094488,
                    "duration": 0.09045400000002246
                },
                {
                    "name": "G#5",
                    "midi": 80,
                    "time": 451.72727600001224,
                    "velocity": 0.29133858267716534,
                    "duration": 0.09045400000002246
                },
                {
                    "name": "C#6",
                    "midi": 85,
                    "time": 451.81773000001226,
                    "velocity": 0.23622047244094488,
                    "duration": 0.09045400000002246
                },
                {
                    "name": "F6",
                    "midi": 89,
                    "time": 451.9081840000123,
                    "velocity": 0.25984251968503935,
                    "duration": 0.09045400000002246
                },
                {
                    "name": "C#6",
                    "midi": 85,
                    "time": 451.9986380000123,
                    "velocity": 0.2440944881889764,
                    "duration": 0.09045400000002246
                },
                {
                    "name": "F6",
                    "midi": 89,
                    "time": 452.08909200001233,
                    "velocity": 0.29133858267716534,
                    "duration": 0.09045400000002246
                },
                {
                    "name": "C#6",
                    "midi": 85,
                    "time": 452.17954600001235,
                    "velocity": 0.23622047244094488,
                    "duration": 0.09045400000002246
                },
                {
                    "name": "G#5",
                    "midi": 80,
                    "time": 452.2700000000124,
                    "velocity": 0.28346456692913385,
                    "duration": 0.09045400000002246
                },
                {
                    "name": "C#6",
                    "midi": 85,
                    "time": 452.3604540000124,
                    "velocity": 0.2440944881889764,
                    "duration": 0.09045400000002246
                },
                {
                    "name": "F6",
                    "midi": 89,
                    "time": 452.4509080000124,
                    "velocity": 0.2677165354330709,
                    "duration": 0.09045400000002246
                },
                {
                    "name": "C#6",
                    "midi": 85,
                    "time": 452.54136200001244,
                    "velocity": 0.25984251968503935,
                    "duration": 0.09045400000002246
                },
                {
                    "name": "F6",
                    "midi": 89,
                    "time": 452.63181600001246,
                    "velocity": 0.31496062992125984,
                    "duration": 0.09045400000002246
                },
                {
                    "name": "C#6",
                    "midi": 85,
                    "time": 452.7222700000125,
                    "velocity": 0.25984251968503935,
                    "duration": 0.09045400000002246
                },
                {
                    "name": "G#5",
                    "midi": 80,
                    "time": 452.8127240000125,
                    "velocity": 0.2755905511811024,
                    "duration": 0.09045400000002246
                },
                {
                    "name": "C#6",
                    "midi": 85,
                    "time": 452.90317800001253,
                    "velocity": 0.2440944881889764,
                    "duration": 0.09045400000002246
                },
                {
                    "name": "F6",
                    "midi": 89,
                    "time": 452.99363200001255,
                    "velocity": 0.2755905511811024,
                    "duration": 0.09045400000002246
                },
                {
                    "name": "C#6",
                    "midi": 85,
                    "time": 453.0840860000126,
                    "velocity": 0.23622047244094488,
                    "duration": 0.09045400000002246
                },
                {
                    "name": "F6",
                    "midi": 89,
                    "time": 453.1745400000126,
                    "velocity": 0.31496062992125984,
                    "duration": 0.09045400000002246
                },
                {
                    "name": "C#6",
                    "midi": 85,
                    "time": 453.2649940000126,
                    "velocity": 0.28346456692913385,
                    "duration": 0.09045400000002246
                },
                {
                    "name": "G#5",
                    "midi": 80,
                    "time": 453.35544800001264,
                    "velocity": 0.29133858267716534,
                    "duration": 0.09045400000002246
                },
                {
                    "name": "C#6",
                    "midi": 85,
                    "time": 453.44590200001267,
                    "velocity": 0.25984251968503935,
                    "duration": 0.09045400000002246
                },
                {
                    "name": "F6",
                    "midi": 89,
                    "time": 453.5363560000127,
                    "velocity": 0.28346456692913385,
                    "duration": 0.09045400000002246
                },
                {
                    "name": "C#6",
                    "midi": 85,
                    "time": 453.6268100000127,
                    "velocity": 0.25984251968503935,
                    "duration": 0.09045400000002246
                },
                {
                    "name": "F#6",
                    "midi": 90,
                    "time": 453.71726400001273,
                    "velocity": 0.31496062992125984,
                    "duration": 0.09045400000002246
                },
                {
                    "name": "C6",
                    "midi": 84,
                    "time": 453.80771800001276,
                    "velocity": 0.2755905511811024,
                    "duration": 0.09045400000002246
                },
                {
                    "name": "G#5",
                    "midi": 80,
                    "time": 453.8981720000128,
                    "velocity": 0.31496062992125984,
                    "duration": 0.09045400000002246
                },
                {
                    "name": "C6",
                    "midi": 84,
                    "time": 453.9886260000128,
                    "velocity": 0.2755905511811024,
                    "duration": 0.09045400000002246
                },
                {
                    "name": "F#6",
                    "midi": 90,
                    "time": 454.0790800000128,
                    "velocity": 0.29133858267716534,
                    "duration": 0.09045400000002246
                },
                {
                    "name": "C6",
                    "midi": 84,
                    "time": 454.16953400001285,
                    "velocity": 0.28346456692913385,
                    "duration": 0.09045400000002246
                },
                {
                    "name": "F#6",
                    "midi": 90,
                    "time": 454.25998800001287,
                    "velocity": 0.33070866141732286,
                    "duration": 0.09045400000002246
                },
                {
                    "name": "C6",
                    "midi": 84,
                    "time": 454.3504420000129,
                    "velocity": 0.2755905511811024,
                    "duration": 0.09045400000002246
                },
                {
                    "name": "G#5",
                    "midi": 80,
                    "time": 454.4408960000129,
                    "velocity": 0.3228346456692913,
                    "duration": 0.09045400000002246
                },
                {
                    "name": "C6",
                    "midi": 84,
                    "time": 454.53135000001294,
                    "velocity": 0.29133858267716534,
                    "duration": 0.09045400000002246
                },
                {
                    "name": "F#6",
                    "midi": 90,
                    "time": 454.62180400001296,
                    "velocity": 0.2992125984251969,
                    "duration": 0.09045400000002246
                },
                {
                    "name": "C6",
                    "midi": 84,
                    "time": 454.712258000013,
                    "velocity": 0.29133858267716534,
                    "duration": 0.09045400000002246
                },
                {
                    "name": "F#6",
                    "midi": 90,
                    "time": 454.802712000013,
                    "velocity": 0.3464566929133858,
                    "duration": 0.09045400000002246
                },
                {
                    "name": "C6",
                    "midi": 84,
                    "time": 454.893166000013,
                    "velocity": 0.28346456692913385,
                    "duration": 0.09045400000002246
                },
                {
                    "name": "G#5",
                    "midi": 80,
                    "time": 454.98362000001305,
                    "velocity": 0.3464566929133858,
                    "duration": 0.09045400000002246
                },
                {
                    "name": "C6",
                    "midi": 84,
                    "time": 455.07407400001307,
                    "velocity": 0.2992125984251969,
                    "duration": 0.09045400000002246
                },
                {
                    "name": "F#6",
                    "midi": 90,
                    "time": 455.1645280000131,
                    "velocity": 0.30708661417322836,
                    "duration": 0.09045400000002246
                },
                {
                    "name": "C6",
                    "midi": 84,
                    "time": 455.2549820000131,
                    "velocity": 0.2992125984251969,
                    "duration": 0.09045400000002246
                },
                {
                    "name": "F#6",
                    "midi": 90,
                    "time": 455.34543600001314,
                    "velocity": 0.3543307086614173,
                    "duration": 0.09045400000002246
                },
                {
                    "name": "D#6",
                    "midi": 87,
                    "time": 455.43589000001316,
                    "velocity": 0.2992125984251969,
                    "duration": 0.09045400000002246
                },
                {
                    "name": "G#5",
                    "midi": 80,
                    "time": 455.5263440000132,
                    "velocity": 0.3464566929133858,
                    "duration": 0.09045400000002246
                },
                {
                    "name": "D#6",
                    "midi": 87,
                    "time": 455.6167980000132,
                    "velocity": 0.30708661417322836,
                    "duration": 0.09045400000002246
                },
                {
                    "name": "F#6",
                    "midi": 90,
                    "time": 455.7072520000132,
                    "velocity": 0.30708661417322836,
                    "duration": 0.09045400000002246
                },
                {
                    "name": "D#6",
                    "midi": 87,
                    "time": 455.79770600001325,
                    "velocity": 0.30708661417322836,
                    "duration": 0.09045400000002246
                },
                {
                    "name": "F6",
                    "midi": 89,
                    "time": 455.8881600000133,
                    "velocity": 0.4330708661417323,
                    "duration": 0.36181599999997616
                },
                {
                    "name": "F5",
                    "midi": 77,
                    "time": 457.5163320000132,
                    "velocity": 0.4881889763779528,
                    "duration": 0.4522699999999986
                },
                {
                    "name": "G#5",
                    "midi": 80,
                    "time": 457.9686020000132,
                    "velocity": 0.44881889763779526,
                    "duration": 0.09045400000002246
                },
                {
                    "name": "C#6",
                    "midi": 85,
                    "time": 458.05905600001324,
                    "velocity": 0.5196850393700787,
                    "duration": 0.5427240000000211
                },
                {
                    "name": "F6",
                    "midi": 89,
                    "time": 458.60178000001326,
                    "velocity": 0.4881889763779528,
                    "duration": 0.4522699999999986
                },
                {
                    "name": "C#6",
                    "midi": 85,
                    "time": 459.05405000001326,
                    "velocity": 0.4330708661417323,
                    "duration": 0.09045400000002246
                },
                {
                    "name": "C6",
                    "midi": 84,
                    "time": 459.1445040000133,
                    "velocity": 0.49606299212598426,
                    "duration": 0.5427240000000211
                },
                {
                    "name": "D#6",
                    "midi": 87,
                    "time": 459.6872280000133,
                    "velocity": 0.5196850393700787,
                    "duration": 0.4522699999999986
                },
                {
                    "name": "C6",
                    "midi": 84,
                    "time": 460.1394980000133,
                    "velocity": 0.4330708661417323,
                    "duration": 0.09045400000002246
                },
                {
                    "name": "C#6",
                    "midi": 85,
                    "time": 460.2299520000133,
                    "velocity": 0.5196850393700787,
                    "duration": 0.5427240000000211
                },
                {
                    "name": "G#5",
                    "midi": 80,
                    "time": 460.77267600001335,
                    "velocity": 0.4645669291338583,
                    "duration": 1.0854479999999853
                },
                {
                    "name": "F5",
                    "midi": 77,
                    "time": 461.85812400001333,
                    "velocity": 0.5354330708661418,
                    "duration": 0.4522699999999986
                },
                {
                    "name": "G#5",
                    "midi": 80,
                    "time": 462.31039400001333,
                    "velocity": 0.4881889763779528,
                    "duration": 0.09045400000002246
                },
                {
                    "name": "C#6",
                    "midi": 85,
                    "time": 462.40084800001335,
                    "velocity": 0.5590551181102362,
                    "duration": 0.5427240000000211
                },
                {
                    "name": "F6",
                    "midi": 89,
                    "time": 462.9435720000134,
                    "velocity": 0.5826771653543307,
                    "duration": 0.4522699999999986
                },
                {
                    "name": "C#6",
                    "midi": 85,
                    "time": 463.3958420000134,
                    "velocity": 0.5039370078740157,
                    "duration": 0.09045400000002246
                },
                {
                    "name": "C6",
                    "midi": 84,
                    "time": 463.4862960000134,
                    "velocity": 0.5905511811023622,
                    "duration": 0.5427240000000211
                },
                {
                    "name": "D#6",
                    "midi": 87,
                    "time": 464.0290200000134,
                    "velocity": 0.6299212598425197,
                    "duration": 0.4522699999999986
                },
                {
                    "name": "C6",
                    "midi": 84,
                    "time": 464.4812900000134,
                    "velocity": 0.5590551181102362,
                    "duration": 0.09045400000002246
                },
                {
                    "name": "B5",
                    "midi": 83,
                    "time": 464.57174400001344,
                    "velocity": 0.6692913385826772,
                    "duration": 0.5427240000000211
                },
                {
                    "name": "D6",
                    "midi": 86,
                    "time": 465.11446800001346,
                    "velocity": 0.7480314960629921,
                    "duration": 1.0854479999999853
                },
                {
                    "name": "D6",
                    "midi": 86,
                    "time": 466.19991600001345,
                    "velocity": 0.6614173228346457,
                    "duration": 0.4522699999999986
                },
                {
                    "name": "B5",
                    "midi": 83,
                    "time": 466.65218600001344,
                    "velocity": 0.6220472440944882,
                    "duration": 0.09045400000002246
                },
                {
                    "name": "C6",
                    "midi": 84,
                    "time": 466.74264000001347,
                    "velocity": 0.6692913385826772,
                    "duration": 0.5427240000000211
                },
                {
                    "name": "E6",
                    "midi": 88,
                    "time": 467.2853640000135,
                    "velocity": 0.7637795275590551,
                    "duration": 1.0854479999999853
                },
                {
                    "name": "G6",
                    "midi": 91,
                    "time": 468.3708120000135,
                    "velocity": 0.6614173228346457,
                    "duration": 0.4522699999999986
                },
                {
                    "name": "G5",
                    "midi": 79,
                    "time": 468.3708120000135,
                    "velocity": 0.5590551181102362,
                    "duration": 0.4522699999999986
                },
                {
                    "name": "F5",
                    "midi": 77,
                    "time": 468.82308200001347,
                    "velocity": 0.5275590551181102,
                    "duration": 0.09045400000002246
                },
                {
                    "name": "F6",
                    "midi": 89,
                    "time": 468.82308200001347,
                    "velocity": 0.6220472440944882,
                    "duration": 0.09045400000002246
                },
                {
                    "name": "E6",
                    "midi": 88,
                    "time": 468.9135360000135,
                    "velocity": 0.6692913385826772,
                    "duration": 0.5427240000000211
                },
                {
                    "name": "E5",
                    "midi": 76,
                    "time": 468.9135360000135,
                    "velocity": 0.5669291338582677,
                    "duration": 0.5427240000000211
                },
                {
                    "name": "G5",
                    "midi": 79,
                    "time": 469.4562600000135,
                    "velocity": 0.6220472440944882,
                    "duration": 1.0854479999999853
                },
                {
                    "name": "G6",
                    "midi": 91,
                    "time": 469.4562600000135,
                    "velocity": 0.7322834645669292,
                    "duration": 1.0854479999999853
                },
                {
                    "name": "G5",
                    "midi": 79,
                    "time": 470.5417080000135,
                    "velocity": 0.5826771653543307,
                    "duration": 0.4522699999999986
                },
                {
                    "name": "G6",
                    "midi": 91,
                    "time": 470.5417080000135,
                    "velocity": 0.6929133858267716,
                    "duration": 0.4522699999999986
                },
                {
                    "name": "E5",
                    "midi": 76,
                    "time": 470.9939780000135,
                    "velocity": 0.5511811023622047,
                    "duration": 0.09045400000002246
                },
                {
                    "name": "E6",
                    "midi": 88,
                    "time": 470.9939780000135,
                    "velocity": 0.6456692913385826,
                    "duration": 0.09045400000002246
                },
                {
                    "name": "F6",
                    "midi": 89,
                    "time": 471.0844320000135,
                    "velocity": 0.7007874015748031,
                    "duration": 0.5427240000000211
                },
                {
                    "name": "F5",
                    "midi": 77,
                    "time": 471.0844320000135,
                    "velocity": 0.5905511811023622,
                    "duration": 0.5427240000000211
                },
                {
                    "name": "G#6",
                    "midi": 92,
                    "time": 471.62715600001354,
                    "velocity": 0.7559055118110236,
                    "duration": 1.0854479999999853
                },
                {
                    "name": "G#5",
                    "midi": 80,
                    "time": 471.62715600001354,
                    "velocity": 0.6377952755905512,
                    "duration": 1.0854479999999853
                },
                {
                    "name": "G#6",
                    "midi": 92,
                    "time": 472.7126040000135,
                    "velocity": 0.6929133858267716,
                    "duration": 0.4522699999999986
                },
                {
                    "name": "G#5",
                    "midi": 80,
                    "time": 472.7126040000135,
                    "velocity": 0.5826771653543307,
                    "duration": 0.4522699999999986
                },
                {
                    "name": "F6",
                    "midi": 89,
                    "time": 473.1648740000135,
                    "velocity": 0.6456692913385826,
                    "duration": 0.09045400000002246
                },
                {
                    "name": "F5",
                    "midi": 77,
                    "time": 473.1648740000135,
                    "velocity": 0.5511811023622047,
                    "duration": 0.09045400000002246
                },
                {
                    "name": "C#4",
                    "midi": 61,
                    "time": 473.34578200001357,
                    "velocity": 0.6299212598425197,
                    "duration": 0.09045400000002246
                },
                {
                    "name": "A#3",
                    "midi": 58,
                    "time": 473.4362360000136,
                    "velocity": 0.6062992125984252,
                    "duration": 0.09045400000002246
                },
                {
                    "name": "F#4",
                    "midi": 66,
                    "time": 473.5266900000136,
                    "velocity": 0.5669291338582677,
                    "duration": 0.09045400000002246
                },
                {
                    "name": "F#4",
                    "midi": 66,
                    "time": 473.88850600001365,
                    "velocity": 0.5905511811023622,
                    "duration": 0.09045400000002246
                },
                {
                    "name": "C#4",
                    "midi": 61,
                    "time": 473.97896000001367,
                    "velocity": 0.6141732283464567,
                    "duration": 0.09045400000002246
                },
                {
                    "name": "A#4",
                    "midi": 70,
                    "time": 474.0694140000137,
                    "velocity": 0.5748031496062992,
                    "duration": 0.09045400000002246
                },
                {
                    "name": "A#4",
                    "midi": 70,
                    "time": 474.4312300000137,
                    "velocity": 0.5826771653543307,
                    "duration": 0.09045400000002246
                },
                {
                    "name": "F#4",
                    "midi": 66,
                    "time": 474.52168400001375,
                    "velocity": 0.6299212598425197,
                    "duration": 0.09045400000002246
                },
                {
                    "name": "C#5",
                    "midi": 73,
                    "time": 474.6121380000138,
                    "velocity": 0.5826771653543307,
                    "duration": 0.09045400000002246
                },
                {
                    "name": "C#5",
                    "midi": 73,
                    "time": 474.9739540000138,
                    "velocity": 0.5905511811023622,
                    "duration": 0.09045400000002246
                },
                {
                    "name": "A#4",
                    "midi": 70,
                    "time": 475.0644080000138,
                    "velocity": 0.6299212598425197,
                    "duration": 0.09045400000002246
                },
                {
                    "name": "F#5",
                    "midi": 78,
                    "time": 475.15486200001385,
                    "velocity": 0.5669291338582677,
                    "duration": 0.09045400000002246
                },
                {
                    "name": "F#5",
                    "midi": 78,
                    "time": 475.5166780000139,
                    "velocity": 0.5826771653543307,
                    "duration": 0.09045400000002246
                },
                {
                    "name": "C#5",
                    "midi": 73,
                    "time": 475.6071320000139,
                    "velocity": 0.6062992125984252,
                    "duration": 0.09045400000002246
                },
                {
                    "name": "A#5",
                    "midi": 82,
                    "time": 475.6975860000139,
                    "velocity": 0.5669291338582677,
                    "duration": 0.09045400000002246
                },
                {
                    "name": "A#5",
                    "midi": 82,
                    "time": 476.05940200001396,
                    "velocity": 0.5590551181102362,
                    "duration": 0.09045400000002246
                },
                {
                    "name": "F#5",
                    "midi": 78,
                    "time": 476.149856000014,
                    "velocity": 0.5905511811023622,
                    "duration": 0.09045400000002246
                },
                {
                    "name": "C#6",
                    "midi": 85,
                    "time": 476.240310000014,
                    "velocity": 0.5748031496062992,
                    "duration": 0.09045400000002246
                },
                {
                    "name": "C#6",
                    "midi": 85,
                    "time": 476.60212600001404,
                    "velocity": 0.5826771653543307,
                    "duration": 0.09045400000002246
                },
                {
                    "name": "A#5",
                    "midi": 82,
                    "time": 476.69258000001406,
                    "velocity": 0.6299212598425197,
                    "duration": 0.09045400000002246
                },
                {
                    "name": "F#6",
                    "midi": 90,
                    "time": 476.7830340000141,
                    "velocity": 0.5826771653543307,
                    "duration": 0.09045400000002246
                },
                {
                    "name": "F#6",
                    "midi": 90,
                    "time": 477.2353040000141,
                    "velocity": 0.6456692913385826,
                    "duration": 0.09045400000002246
                },
                {
                    "name": "C#6",
                    "midi": 85,
                    "time": 477.3257580000141,
                    "velocity": 0.6220472440944882,
                    "duration": 0.09045400000002246
                },
                {
                    "name": "A#6",
                    "midi": 94,
                    "time": 477.4162120000141,
                    "velocity": 0.6614173228346457,
                    "duration": 0.18090799999998808
                },
                {
                    "name": "D#4",
                    "midi": 63,
                    "time": 477.68757400001414,
                    "velocity": 0.6299212598425197,
                    "duration": 0.09045400000002246
                },
                {
                    "name": "C4",
                    "midi": 60,
                    "time": 477.77802800001416,
                    "velocity": 0.6062992125984252,
                    "duration": 0.09045400000002246
                },
                {
                    "name": "A4",
                    "midi": 69,
                    "time": 477.8684820000142,
                    "velocity": 0.5669291338582677,
                    "duration": 0.09045400000002246
                },
                {
                    "name": "A4",
                    "midi": 69,
                    "time": 478.2302980000142,
                    "velocity": 0.5905511811023622,
                    "duration": 0.09045400000002246
                },
                {
                    "name": "D#4",
                    "midi": 63,
                    "time": 478.32075200001424,
                    "velocity": 0.6141732283464567,
                    "duration": 0.09045400000002246
                },
                {
                    "name": "C5",
                    "midi": 72,
                    "time": 478.41120600001426,
                    "velocity": 0.5748031496062992,
                    "duration": 0.09045400000002246
                },
                {
                    "name": "C5",
                    "midi": 72,
                    "time": 478.7730220000143,
                    "velocity": 0.5826771653543307,
                    "duration": 0.09045400000002246
                },
                {
                    "name": "A4",
                    "midi": 69,
                    "time": 478.8634760000143,
                    "velocity": 0.6299212598425197,
                    "duration": 0.09045400000002246
                },
                {
                    "name": "D#5",
                    "midi": 75,
                    "time": 478.95393000001434,
                    "velocity": 0.5826771653543307,
                    "duration": 0.09045400000002246
                },
                {
                    "name": "D#5",
                    "midi": 75,
                    "time": 479.31574600001437,
                    "velocity": 0.5905511811023622,
                    "duration": 0.09045400000002246
                },
                {
                    "name": "C5",
                    "midi": 72,
                    "time": 479.4062000000144,
                    "velocity": 0.6299212598425197,
                    "duration": 0.09045400000002246
                },
                {
                    "name": "A5",
                    "midi": 81,
                    "time": 479.4966540000144,
                    "velocity": 0.5669291338582677,
                    "duration": 0.09045400000002246
                },
                {
                    "name": "A5",
                    "midi": 81,
                    "time": 479.85847000001445,
                    "velocity": 0.5905511811023622,
                    "duration": 0.09045400000002246
                },
                {
                    "name": "D#5",
                    "midi": 75,
                    "time": 479.9489240000145,
                    "velocity": 0.6062992125984252,
                    "duration": 0.09045400000002246
                },
                {
                    "name": "C6",
                    "midi": 84,
                    "time": 480.0393780000145,
                    "velocity": 0.5669291338582677,
                    "duration": 0.09045400000002246
                },
                {
                    "name": "C6",
                    "midi": 84,
                    "time": 480.4011940000145,
                    "velocity": 0.5590551181102362,
                    "duration": 0.09045400000002246
                },
                {
                    "name": "A5",
                    "midi": 81,
                    "time": 480.49164800001455,
                    "velocity": 0.5905511811023622,
                    "duration": 0.09045400000002246
                },
                {
                    "name": "D#6",
                    "midi": 87,
                    "time": 480.5821020000146,
                    "velocity": 0.5748031496062992,
                    "duration": 0.09045400000002246
                },
                {
                    "name": "D#6",
                    "midi": 87,
                    "time": 480.9439180000146,
                    "velocity": 0.5826771653543307,
                    "duration": 0.09045400000002246
                },
                {
                    "name": "C6",
                    "midi": 84,
                    "time": 481.0343720000146,
                    "velocity": 0.6299212598425197,
                    "duration": 0.09045400000002246
                },
                {
                    "name": "A6",
                    "midi": 93,
                    "time": 481.12482600001465,
                    "velocity": 0.5826771653543307,
                    "duration": 0.09045400000002246
                },
                {
                    "name": "A6",
                    "midi": 93,
                    "time": 481.57709600001465,
                    "velocity": 0.6535433070866141,
                    "duration": 0.09045400000002246
                },
                {
                    "name": "D#6",
                    "midi": 87,
                    "time": 481.66755000001467,
                    "velocity": 0.6062992125984252,
                    "duration": 0.09045400000002246
                },
                {
                    "name": "C7",
                    "midi": 96,
                    "time": 481.7580040000147,
                    "velocity": 0.6535433070866141,
                    "duration": 0.18090799999998808
                },
                {
                    "name": "F4",
                    "midi": 65,
                    "time": 482.0293660000147,
                    "velocity": 0.5826771653543307,
                    "duration": 0.09045400000002246
                },
                {
                    "name": "C#4",
                    "midi": 61,
                    "time": 482.1198200000147,
                    "velocity": 0.6062992125984252,
                    "duration": 0.09045400000002246
                },
                {
                    "name": "A#4",
                    "midi": 70,
                    "time": 482.21027400001475,
                    "velocity": 0.5669291338582677,
                    "duration": 0.09045400000002246
                },
                {
                    "name": "A#4",
                    "midi": 70,
                    "time": 482.66254400001475,
                    "velocity": 0.5905511811023622,
                    "duration": 0.09045400000002246
                },
                {
                    "name": "F4",
                    "midi": 65,
                    "time": 482.75299800001477,
                    "velocity": 0.5669291338582677,
                    "duration": 0.09045400000002246
                },
                {
                    "name": "C#5",
                    "midi": 73,
                    "time": 482.8434520000148,
                    "velocity": 0.5748031496062992,
                    "duration": 0.18090799999998808
                },
                {
                    "name": "G4",
                    "midi": 67,
                    "time": 483.1148140000148,
                    "velocity": 0.5905511811023622,
                    "duration": 0.09045400000002246
                },
                {
                    "name": "E4",
                    "midi": 64,
                    "time": 483.2052680000148,
                    "velocity": 0.6062992125984252,
                    "duration": 0.09045400000002246
                },
                {
                    "name": "C5",
                    "midi": 72,
                    "time": 483.29572200001485,
                    "velocity": 0.5669291338582677,
                    "duration": 0.09045400000002246
                },
                {
                    "name": "C5",
                    "midi": 72,
                    "time": 483.74799200001485,
                    "velocity": 0.5905511811023622,
                    "duration": 0.09045400000002246
                },
                {
                    "name": "G4",
                    "midi": 67,
                    "time": 483.83844600001487,
                    "velocity": 0.5669291338582677,
                    "duration": 0.09045400000002246
                },
                {
                    "name": "E5",
                    "midi": 76,
                    "time": 483.9289000000149,
                    "velocity": 0.5748031496062992,
                    "duration": 0.18090799999998808
                },
                {
                    "name": "G#4",
                    "midi": 68,
                    "time": 484.2002620000149,
                    "velocity": 0.5748031496062992,
                    "duration": 0.09045400000002246
                },
                {
                    "name": "F4",
                    "midi": 65,
                    "time": 484.2907160000149,
                    "velocity": 0.6062992125984252,
                    "duration": 0.09045400000002246
                },
                {
                    "name": "C#5",
                    "midi": 73,
                    "time": 484.38117000001495,
                    "velocity": 0.5669291338582677,
                    "duration": 0.09045400000002246
                },
                {
                    "name": "C#5",
                    "midi": 73,
                    "time": 484.83344000001495,
                    "velocity": 0.5905511811023622,
                    "duration": 0.09045400000002246
                },
                {
                    "name": "G#4",
                    "midi": 68,
                    "time": 484.92389400001497,
                    "velocity": 0.5590551181102362,
                    "duration": 0.09045400000002246
                },
                {
                    "name": "F5",
                    "midi": 77,
                    "time": 485.014348000015,
                    "velocity": 0.5748031496062992,
                    "duration": 0.18090799999998808
                },
                {
                    "name": "A#4",
                    "midi": 70,
                    "time": 485.285710000015,
                    "velocity": 0.6299212598425197,
                    "duration": 0.09045400000002246
                },
                {
                    "name": "G4",
                    "midi": 67,
                    "time": 485.376164000015,
                    "velocity": 0.6062992125984252,
                    "duration": 0.09045400000002246
                },
                {
                    "name": "E5",
                    "midi": 76,
                    "time": 485.46661800001505,
                    "velocity": 0.5669291338582677,
                    "duration": 0.09045400000002246
                },
                {
                    "name": "E5",
                    "midi": 76,
                    "time": 485.91888800001504,
                    "velocity": 0.5905511811023622,
                    "duration": 0.09045400000002246
                },
                {
                    "name": "A#4",
                    "midi": 70,
                    "time": 486.00934200001507,
                    "velocity": 0.5748031496062992,
                    "duration": 0.09045400000002246
                },
                {
                    "name": "G5",
                    "midi": 79,
                    "time": 486.0997960000151,
                    "velocity": 0.5748031496062992,
                    "duration": 0.18090799999998808
                },
                {
                    "name": "C5",
                    "midi": 72,
                    "time": 486.3711580000151,
                    "velocity": 0.5039370078740157,
                    "duration": 0.09045400000002246
                },
                {
                    "name": "G#4",
                    "midi": 68,
                    "time": 486.4616120000151,
                    "velocity": 0.5433070866141733,
                    "duration": 0.09045400000002246
                },
                {
                    "name": "F5",
                    "midi": 77,
                    "time": 486.55206600001515,
                    "velocity": 0.5039370078740157,
                    "duration": 0.09045400000002246
                },
                {
                    "name": "C#5",
                    "midi": 73,
                    "time": 486.9138820000152,
                    "velocity": 0.5039370078740157,
                    "duration": 0.09045400000002246
                },
                {
                    "name": "A#4",
                    "midi": 70,
                    "time": 487.0043360000152,
                    "velocity": 0.5433070866141733,
                    "duration": 0.09045400000002246
                },
                {
                    "name": "G5",
                    "midi": 79,
                    "time": 487.0947900000152,
                    "velocity": 0.5275590551181102,
                    "duration": 0.09045400000002246
                },
                {
                    "name": "D#5",
                    "midi": 75,
                    "time": 487.45660600001526,
                    "velocity": 0.5433070866141733,
                    "duration": 0.09045400000002246
                },
                {
                    "name": "C5",
                    "midi": 72,
                    "time": 487.5470600000153,
                    "velocity": 0.5748031496062992,
                    "duration": 0.09045400000002246
                },
                {
                    "name": "A5",
                    "midi": 81,
                    "time": 487.6375140000153,
                    "velocity": 0.5433070866141733,
                    "duration": 0.09045400000002246
                },
                {
                    "name": "F5",
                    "midi": 77,
                    "time": 487.99933000001533,
                    "velocity": 0.5590551181102362,
                    "duration": 0.09045400000002246
                },
                {
                    "name": "C#5",
                    "midi": 73,
                    "time": 488.08978400001536,
                    "velocity": 0.5354330708661418,
                    "duration": 0.09045400000002246
                },
                {
                    "name": "A#5",
                    "midi": 82,
                    "time": 488.1802380000154,
                    "velocity": 0.5511811023622047,
                    "duration": 0.09045400000002246
                },
                {
                    "name": "G5",
                    "midi": 79,
                    "time": 488.5420540000154,
                    "velocity": 0.5590551181102362,
                    "duration": 0.09045400000002246
                },
                {
                    "name": "E5",
                    "midi": 76,
                    "time": 488.63250800001543,
                    "velocity": 0.5748031496062992,
                    "duration": 0.09045400000002246
                },
                {
                    "name": "C6",
                    "midi": 84,
                    "time": 488.72296200001546,
                    "velocity": 0.5511811023622047,
                    "duration": 0.09045400000002246
                },
                {
                    "name": "G#5",
                    "midi": 80,
                    "time": 489.0847780000155,
                    "velocity": 0.5433070866141733,
                    "duration": 0.09045400000002246
                },
                {
                    "name": "F5",
                    "midi": 77,
                    "time": 489.1752320000155,
                    "velocity": 0.5748031496062992,
                    "duration": 0.09045400000002246
                },
                {
                    "name": "C#6",
                    "midi": 85,
                    "time": 489.26568600001553,
                    "velocity": 0.5669291338582677,
                    "duration": 0.09045400000002246
                },
                {
                    "name": "A#5",
                    "midi": 82,
                    "time": 489.62750200001557,
                    "velocity": 0.5826771653543307,
                    "duration": 0.09045400000002246
                },
                {
                    "name": "G5",
                    "midi": 79,
                    "time": 489.7179560000156,
                    "velocity": 0.6141732283464567,
                    "duration": 0.09045400000002246
                },
                {
                    "name": "E6",
                    "midi": 88,
                    "time": 489.8084100000156,
                    "velocity": 0.5826771653543307,
                    "duration": 0.09045400000002246
                },
                {
                    "name": "C6",
                    "midi": 84,
                    "time": 490.17022600001565,
                    "velocity": 0.5905511811023622,
                    "duration": 0.09045400000002246
                },
                {
                    "name": "G#5",
                    "midi": 80,
                    "time": 490.26068000001567,
                    "velocity": 0.6062992125984252,
                    "duration": 0.09045400000002246
                },
                {
                    "name": "F6",
                    "midi": 89,
                    "time": 490.3511340000157,
                    "velocity": 0.5905511811023622,
                    "duration": 0.09045400000002246
                },
                {
                    "name": "C#6",
                    "midi": 85,
                    "time": 490.7129500000157,
                    "velocity": 0.6141732283464567,
                    "duration": 0.09045400000002246
                },
                {
                    "name": "A#5",
                    "midi": 82,
                    "time": 490.80340400001575,
                    "velocity": 0.6220472440944882,
                    "duration": 0.09045400000002246
                },
                {
                    "name": "G6",
                    "midi": 91,
                    "time": 490.89385800001577,
                    "velocity": 0.5826771653543307,
                    "duration": 0.09045400000002246
                },
                {
                    "name": "D#6",
                    "midi": 87,
                    "time": 491.2556740000158,
                    "velocity": 0.5826771653543307,
                    "duration": 0.09045400000002246
                },
                {
                    "name": "C6",
                    "midi": 84,
                    "time": 491.3461280000158,
                    "velocity": 0.6220472440944882,
                    "duration": 0.09045400000002246
                },
                {
                    "name": "A6",
                    "midi": 93,
                    "time": 491.43658200001585,
                    "velocity": 0.5826771653543307,
                    "duration": 0.09045400000002246
                },
                {
                    "name": "F6",
                    "midi": 89,
                    "time": 491.7983980000159,
                    "velocity": 0.6220472440944882,
                    "duration": 0.09045400000002246
                },
                {
                    "name": "C#6",
                    "midi": 85,
                    "time": 491.8888520000159,
                    "velocity": 0.6299212598425197,
                    "duration": 0.09045400000002246
                },
                {
                    "name": "A#6",
                    "midi": 94,
                    "time": 491.9793060000159,
                    "velocity": 0.6220472440944882,
                    "duration": 0.09045400000002246
                },
                {
                    "name": "F6",
                    "midi": 89,
                    "time": 492.34112200001596,
                    "velocity": 0.6377952755905512,
                    "duration": 0.09045400000002246
                },
                {
                    "name": "C#6",
                    "midi": 85,
                    "time": 492.431576000016,
                    "velocity": 0.6535433070866141,
                    "duration": 0.09045400000002246
                },
                {
                    "name": "A#6",
                    "midi": 94,
                    "time": 492.522030000016,
                    "velocity": 0.6299212598425197,
                    "duration": 0.09045400000002246
                },
                {
                    "name": "F6",
                    "midi": 89,
                    "time": 493.064754000016,
                    "velocity": 0.6141732283464567,
                    "duration": 0.09045400000002246
                },
                {
                    "name": "C#6",
                    "midi": 85,
                    "time": 493.15520800001605,
                    "velocity": 0.6456692913385826,
                    "duration": 0.09045400000002246
                },
                {
                    "name": "A#6",
                    "midi": 94,
                    "time": 493.24566200001607,
                    "velocity": 0.6220472440944882,
                    "duration": 0.09045400000002246
                },
                {
                    "name": "F6",
                    "midi": 89,
                    "time": 493.3361160000161,
                    "velocity": 0.7007874015748031,
                    "duration": 0.09045400000002246
                },
                {
                    "name": "C#6",
                    "midi": 85,
                    "time": 493.4265700000161,
                    "velocity": 0.6535433070866141,
                    "duration": 0.09045400000002246
                },
                {
                    "name": "A#5",
                    "midi": 82,
                    "time": 493.51702400001614,
                    "velocity": 0.6141732283464567,
                    "duration": 0.09045400000002246
                },
                {
                    "name": "F5",
                    "midi": 77,
                    "time": 493.60747800001616,
                    "velocity": 0.6141732283464567,
                    "duration": 0.09045400000002246
                },
                {
                    "name": "C#5",
                    "midi": 73,
                    "time": 493.6979320000162,
                    "velocity": 0.6456692913385826,
                    "duration": 0.09045400000002246
                },
                {
                    "name": "A#5",
                    "midi": 82,
                    "time": 493.7883860000162,
                    "velocity": 0.6220472440944882,
                    "duration": 0.09045400000002246
                },
                {
                    "name": "F5",
                    "midi": 77,
                    "time": 493.8788400000162,
                    "velocity": 0.6771653543307087,
                    "duration": 0.09045400000002246
                },
                {
                    "name": "C#5",
                    "midi": 73,
                    "time": 493.96929400001625,
                    "velocity": 0.6456692913385826,
                    "duration": 0.09045400000002246
                },
                {
                    "name": "A#4",
                    "midi": 70,
                    "time": 494.05974800001627,
                    "velocity": 0.6299212598425197,
                    "duration": 0.09045400000002246
                },
                {
                    "name": "F4",
                    "midi": 65,
                    "time": 494.1502020000163,
                    "velocity": 0.5826771653543307,
                    "duration": 0.09045400000002246
                },
                {
                    "name": "C#4",
                    "midi": 61,
                    "time": 494.2406560000163,
                    "velocity": 0.6141732283464567,
                    "duration": 0.09045400000002246
                },
                {
                    "name": "A#4",
                    "midi": 70,
                    "time": 494.33111000001634,
                    "velocity": 0.5748031496062992,
                    "duration": 0.09045400000002246
                },
                {
                    "name": "F4",
                    "midi": 65,
                    "time": 494.42156400001636,
                    "velocity": 0.6377952755905512,
                    "duration": 0.09045400000002246
                },
                {
                    "name": "C#4",
                    "midi": 61,
                    "time": 494.5120180000164,
                    "velocity": 0.6141732283464567,
                    "duration": 0.09045400000002246
                },
                {
                    "name": "C#4",
                    "midi": 61,
                    "time": 495.5070120000164,
                    "velocity": 0.6299212598425197,
                    "duration": 0.09045400000002246
                },
                {
                    "name": "F4",
                    "midi": 65,
                    "time": 495.5974660000164,
                    "velocity": 0.5905511811023622,
                    "duration": 0.09045400000002246
                },
                {
                    "name": "A#4",
                    "midi": 70,
                    "time": 495.68792000001645,
                    "velocity": 0.5905511811023622,
                    "duration": 0.09045400000002246
                },
                {
                    "name": "C#5",
                    "midi": 73,
                    "time": 495.77837400001647,
                    "velocity": 0.5905511811023622,
                    "duration": 0.09045400000002246
                },
                {
                    "name": "F5",
                    "midi": 77,
                    "time": 495.8688280000165,
                    "velocity": 0.6220472440944882,
                    "duration": 0.09045400000002246
                },
                {
                    "name": "C#5",
                    "midi": 73,
                    "time": 495.9592820000165,
                    "velocity": 0.5748031496062992,
                    "duration": 0.09045400000002246
                },
                {
                    "name": "A#4",
                    "midi": 70,
                    "time": 496.04973600001654,
                    "velocity": 0.6299212598425197,
                    "duration": 0.09045400000002246
                },
                {
                    "name": "C#5",
                    "midi": 73,
                    "time": 496.14019000001656,
                    "velocity": 0.5826771653543307,
                    "duration": 0.09045400000002246
                },
                {
                    "name": "F5",
                    "midi": 77,
                    "time": 496.2306440000166,
                    "velocity": 0.6220472440944882,
                    "duration": 0.09045400000002246
                },
                {
                    "name": "A#5",
                    "midi": 82,
                    "time": 496.3210980000166,
                    "velocity": 0.5826771653543307,
                    "duration": 0.09045400000002246
                },
                {
                    "name": "C#6",
                    "midi": 85,
                    "time": 496.4115520000166,
                    "velocity": 0.6456692913385826,
                    "duration": 0.09045400000002246
                },
                {
                    "name": "A#5",
                    "midi": 82,
                    "time": 496.50200600001665,
                    "velocity": 0.5905511811023622,
                    "duration": 0.09045400000002246
                },
                {
                    "name": "F6",
                    "midi": 89,
                    "time": 496.5924600000167,
                    "velocity": 0.6535433070866141,
                    "duration": 0.09045400000002246
                },
                {
                    "name": "C#6",
                    "midi": 85,
                    "time": 496.6829140000167,
                    "velocity": 0.6141732283464567,
                    "duration": 0.09045400000002246
                },
                {
                    "name": "A#6",
                    "midi": 94,
                    "time": 496.7733680000167,
                    "velocity": 0.6535433070866141,
                    "duration": 0.09045400000002246
                },
                {
                    "name": "F6",
                    "midi": 89,
                    "time": 496.86382200001674,
                    "velocity": 0.6141732283464567,
                    "duration": 0.09045400000002246
                },
                {
                    "name": "C#6",
                    "midi": 85,
                    "time": 496.95427600001676,
                    "velocity": 0.6299212598425197,
                    "duration": 0.09045400000002246
                },
                {
                    "name": "A#5",
                    "midi": 82,
                    "time": 497.0447300000168,
                    "velocity": 0.5905511811023622,
                    "duration": 0.09045400000002246
                },
                {
                    "name": "G#6",
                    "midi": 92,
                    "time": 497.4065460000168,
                    "velocity": 0.6141732283464567,
                    "duration": 0.09045400000002246
                },
                {
                    "name": "F6",
                    "midi": 89,
                    "time": 497.49700000001684,
                    "velocity": 0.6692913385826772,
                    "duration": 0.09045400000002246
                },
                {
                    "name": "B6",
                    "midi": 95,
                    "time": 497.58745400001686,
                    "velocity": 0.6377952755905512,
                    "duration": 0.09045400000002246
                },
                {
                    "name": "G#6",
                    "midi": 92,
                    "time": 497.6779080000169,
                    "velocity": 0.7244094488188977,
                    "duration": 0.09045400000002246
                },
                {
                    "name": "F6",
                    "midi": 89,
                    "time": 497.7683620000169,
                    "velocity": 0.6299212598425197,
                    "duration": 0.09045400000002246
                },
                {
                    "name": "D6",
                    "midi": 86,
                    "time": 497.85881600001693,
                    "velocity": 0.6377952755905512,
                    "duration": 0.09045400000002246
                },
                {
                    "name": "B5",
                    "midi": 83,
                    "time": 497.94927000001695,
                    "velocity": 0.6062992125984252,
                    "duration": 0.09045400000002246
                },
                {
                    "name": "G#5",
                    "midi": 80,
                    "time": 498.039724000017,
                    "velocity": 0.6377952755905512,
                    "duration": 0.09045400000002246
                },
                {
                    "name": "F5",
                    "midi": 77,
                    "time": 498.130178000017,
                    "velocity": 0.6220472440944882,
                    "duration": 0.09045400000002246
                },
                {
                    "name": "B5",
                    "midi": 83,
                    "time": 498.220632000017,
                    "velocity": 0.6692913385826772,
                    "duration": 0.09045400000002246
                },
                {
                    "name": "G#5",
                    "midi": 80,
                    "time": 498.31108600001704,
                    "velocity": 0.6456692913385826,
                    "duration": 0.09045400000002246
                },
                {
                    "name": "F5",
                    "midi": 77,
                    "time": 498.40154000001706,
                    "velocity": 0.6141732283464567,
                    "duration": 0.09045400000002246
                },
                {
                    "name": "D5",
                    "midi": 74,
                    "time": 498.4919940000171,
                    "velocity": 0.5826771653543307,
                    "duration": 0.09045400000002246
                },
                {
                    "name": "B4",
                    "midi": 71,
                    "time": 498.5824480000171,
                    "velocity": 0.5905511811023622,
                    "duration": 0.09045400000002246
                },
                {
                    "name": "G#4",
                    "midi": 68,
                    "time": 498.67290200001713,
                    "velocity": 0.5748031496062992,
                    "duration": 0.09045400000002246
                },
                {
                    "name": "D5",
                    "midi": 74,
                    "time": 498.76335600001715,
                    "velocity": 0.6377952755905512,
                    "duration": 0.09045400000002246
                },
                {
                    "name": "B4",
                    "midi": 71,
                    "time": 498.8538100000172,
                    "velocity": 0.6141732283464567,
                    "duration": 0.09045400000002246
                },
                {
                    "name": "G#4",
                    "midi": 68,
                    "time": 498.9442640000172,
                    "velocity": 0.5826771653543307,
                    "duration": 0.09045400000002246
                },
                {
                    "name": "F4",
                    "midi": 65,
                    "time": 499.0347180000172,
                    "velocity": 0.5826771653543307,
                    "duration": 0.09045400000002246
                },
                {
                    "name": "D4",
                    "midi": 62,
                    "time": 499.12517200001724,
                    "velocity": 0.5826771653543307,
                    "duration": 0.09045400000002246
                },
                {
                    "name": "B3",
                    "midi": 59,
                    "time": 499.21562600001727,
                    "velocity": 0.5826771653543307,
                    "duration": 0.09045400000002246
                },
                {
                    "name": "G#4",
                    "midi": 68,
                    "time": 499.3060800000173,
                    "velocity": 0.6220472440944882,
                    "duration": 0.09045400000002246
                },
                {
                    "name": "F4",
                    "midi": 65,
                    "time": 499.3965340000173,
                    "velocity": 0.5590551181102362,
                    "duration": 0.09045400000002246
                },
                {
                    "name": "D4",
                    "midi": 62,
                    "time": 499.48698800001733,
                    "velocity": 0.5826771653543307,
                    "duration": 0.09045400000002246
                },
                {
                    "name": "D4",
                    "midi": 62,
                    "time": 500.39152800001733,
                    "velocity": 0.6299212598425197,
                    "duration": 0.09045400000002246
                },
                {
                    "name": "F4",
                    "midi": 65,
                    "time": 500.48198200001735,
                    "velocity": 0.5826771653543307,
                    "duration": 0.09045400000002246
                },
                {
                    "name": "G#4",
                    "midi": 68,
                    "time": 500.5724360000174,
                    "velocity": 0.6220472440944882,
                    "duration": 0.09045400000002246
                },
                {
                    "name": "B4",
                    "midi": 71,
                    "time": 500.6628900000174,
                    "velocity": 0.5826771653543307,
                    "duration": 0.09045400000002246
                },
                {
                    "name": "D5",
                    "midi": 74,
                    "time": 500.7533440000174,
                    "velocity": 0.6456692913385826,
                    "duration": 0.09045400000002246
                },
                {
                    "name": "F5",
                    "midi": 77,
                    "time": 500.84379800001744,
                    "velocity": 0.5905511811023622,
                    "duration": 0.09045400000002246
                },
                {
                    "name": "G#5",
                    "midi": 80,
                    "time": 500.93425200001747,
                    "velocity": 0.6535433070866141,
                    "duration": 0.09045400000002246
                },
                {
                    "name": "B5",
                    "midi": 83,
                    "time": 501.0247060000175,
                    "velocity": 0.6141732283464567,
                    "duration": 0.09045400000002246
                },
                {
                    "name": "D6",
                    "midi": 86,
                    "time": 501.1151600000175,
                    "velocity": 0.6535433070866141,
                    "duration": 0.09045400000002246
                },
                {
                    "name": "F6",
                    "midi": 89,
                    "time": 501.20561400001753,
                    "velocity": 0.6141732283464567,
                    "duration": 0.09045400000002246
                },
                {
                    "name": "G#6",
                    "midi": 92,
                    "time": 501.29606800001756,
                    "velocity": 0.6299212598425197,
                    "duration": 0.09045400000002246
                },
                {
                    "name": "B6",
                    "midi": 95,
                    "time": 501.3865220000176,
                    "velocity": 0.5905511811023622,
                    "duration": 0.09045400000002246
                },
                {
                    "name": "G#6",
                    "midi": 92,
                    "time": 501.7483380000176,
                    "velocity": 0.6141732283464567,
                    "duration": 0.09045400000002246
                },
                {
                    "name": "F6",
                    "midi": 89,
                    "time": 501.83879200001763,
                    "velocity": 0.6456692913385826,
                    "duration": 0.09045400000002246
                },
                {
                    "name": "C7",
                    "midi": 96,
                    "time": 501.92924600001766,
                    "velocity": 0.6220472440944882,
                    "duration": 0.09045400000002246
                },
                {
                    "name": "G#6",
                    "midi": 92,
                    "time": 502.0197000000177,
                    "velocity": 0.7244094488188977,
                    "duration": 0.09045400000002246
                },
                {
                    "name": "F6",
                    "midi": 89,
                    "time": 502.1101540000177,
                    "velocity": 0.6535433070866141,
                    "duration": 0.09045400000002246
                },
                {
                    "name": "C6",
                    "midi": 84,
                    "time": 502.2006080000177,
                    "velocity": 0.6456692913385826,
                    "duration": 0.09045400000002246
                },
                {
                    "name": "G#5",
                    "midi": 80,
                    "time": 502.29106200001775,
                    "velocity": 0.6141732283464567,
                    "duration": 0.09045400000002246
                },
                {
                    "name": "F5",
                    "midi": 77,
                    "time": 502.38151600001777,
                    "velocity": 0.6456692913385826,
                    "duration": 0.09045400000002246
                },
                {
                    "name": "C6",
                    "midi": 84,
                    "time": 502.4719700000178,
                    "velocity": 0.6220472440944882,
                    "duration": 0.09045400000002246
                },
                {
                    "name": "G#5",
                    "midi": 80,
                    "time": 502.5624240000178,
                    "velocity": 0.6771653543307087,
                    "duration": 0.09045400000002246
                },
                {
                    "name": "F5",
                    "midi": 77,
                    "time": 502.65287800001784,
                    "velocity": 0.6456692913385826,
                    "duration": 0.09045400000002246
                },
                {
                    "name": "C5",
                    "midi": 72,
                    "time": 502.74333200001786,
                    "velocity": 0.6299212598425197,
                    "duration": 0.09045400000002246
                },
                {
                    "name": "G#4",
                    "midi": 68,
                    "time": 502.8337860000179,
                    "velocity": 0.5826771653543307,
                    "duration": 0.09045400000002246
                },
                {
                    "name": "F4",
                    "midi": 65,
                    "time": 502.9242400000179,
                    "velocity": 0.6141732283464567,
                    "duration": 0.09045400000002246
                },
                {
                    "name": "C5",
                    "midi": 72,
                    "time": 503.0146940000179,
                    "velocity": 0.5748031496062992,
                    "duration": 0.09045400000002246
                },
                {
                    "name": "G#4",
                    "midi": 68,
                    "time": 503.10514800001795,
                    "velocity": 0.6377952755905512,
                    "duration": 0.09045400000002246
                },
                {
                    "name": "F4",
                    "midi": 65,
                    "time": 503.19560200001797,
                    "velocity": 0.6141732283464567,
                    "duration": 0.09045400000002246
                },
                {
                    "name": "F4",
                    "midi": 65,
                    "time": 504.733320000018,
                    "velocity": 0.6299212598425197,
                    "duration": 0.09045400000002246
                },
                {
                    "name": "G#4",
                    "midi": 68,
                    "time": 504.82377400001803,
                    "velocity": 0.5826771653543307,
                    "duration": 0.09045400000002246
                },
                {
                    "name": "C5",
                    "midi": 72,
                    "time": 504.91422800001806,
                    "velocity": 0.6220472440944882,
                    "duration": 0.09045400000002246
                },
                {
                    "name": "F5",
                    "midi": 77,
                    "time": 505.0046820000181,
                    "velocity": 0.5826771653543307,
                    "duration": 0.09045400000002246
                },
                {
                    "name": "G#5",
                    "midi": 80,
                    "time": 505.0951360000181,
                    "velocity": 0.6141732283464567,
                    "duration": 0.09045400000002246
                },
                {
                    "name": "C6",
                    "midi": 84,
                    "time": 505.1855900000181,
                    "velocity": 0.5905511811023622,
                    "duration": 0.09045400000002246
                },
                {
                    "name": "F6",
                    "midi": 89,
                    "time": 505.27604400001815,
                    "velocity": 0.6535433070866141,
                    "duration": 0.09045400000002246
                },
                {
                    "name": "G#6",
                    "midi": 92,
                    "time": 505.36649800001817,
                    "velocity": 0.6141732283464567,
                    "duration": 0.09045400000002246
                },
                {
                    "name": "C7",
                    "midi": 96,
                    "time": 505.4569520000182,
                    "velocity": 0.6535433070866141,
                    "duration": 0.09045400000002246
                },
                {
                    "name": "G#6",
                    "midi": 92,
                    "time": 505.5474060000182,
                    "velocity": 0.6141732283464567,
                    "duration": 0.09045400000002246
                },
                {
                    "name": "F6",
                    "midi": 89,
                    "time": 505.63786000001824,
                    "velocity": 0.6299212598425197,
                    "duration": 0.09045400000002246
                },
                {
                    "name": "C6",
                    "midi": 84,
                    "time": 505.72831400001826,
                    "velocity": 0.5905511811023622,
                    "duration": 0.09045400000002246
                },
                {
                    "name": "G6",
                    "midi": 91,
                    "time": 506.0901300000183,
                    "velocity": 0.5669291338582677,
                    "duration": 0.09045400000002246
                },
                {
                    "name": "E6",
                    "midi": 88,
                    "time": 506.1805840000183,
                    "velocity": 0.6062992125984252,
                    "duration": 0.09045400000002246
                },
                {
                    "name": "A#6",
                    "midi": 94,
                    "time": 506.27103800001834,
                    "velocity": 0.5748031496062992,
                    "duration": 0.09045400000002246
                },
                {
                    "name": "G6",
                    "midi": 91,
                    "time": 506.36149200001836,
                    "velocity": 0.6141732283464567,
                    "duration": 0.09045400000002246
                },
                {
                    "name": "E6",
                    "midi": 88,
                    "time": 506.4519460000184,
                    "velocity": 0.6062992125984252,
                    "duration": 0.09045400000002246
                },
                {
                    "name": "C6",
                    "midi": 84,
                    "time": 506.5424000000184,
                    "velocity": 0.5826771653543307,
                    "duration": 0.09045400000002246
                },
                {
                    "name": "A#5",
                    "midi": 82,
                    "time": 506.6328540000184,
                    "velocity": 0.5669291338582677,
                    "duration": 0.09045400000002246
                },
                {
                    "name": "G5",
                    "midi": 79,
                    "time": 506.72330800001845,
                    "velocity": 0.6062992125984252,
                    "duration": 0.09045400000002246
                },
                {
                    "name": "E5",
                    "midi": 76,
                    "time": 506.81376200001847,
                    "velocity": 0.5748031496062992,
                    "duration": 0.09045400000002246
                },
                {
                    "name": "C5",
                    "midi": 72,
                    "time": 506.9042160000185,
                    "velocity": 0.6141732283464567,
                    "duration": 0.09045400000002246
                },
                {
                    "name": "A#4",
                    "midi": 70,
                    "time": 506.9946700000185,
                    "velocity": 0.5905511811023622,
                    "duration": 0.09045400000002246
                },
                {
                    "name": "G4",
                    "midi": 67,
                    "time": 507.08512400001854,
                    "velocity": 0.5590551181102362,
                    "duration": 0.09045400000002246
                },
                {
                    "name": "E4",
                    "midi": 64,
                    "time": 507.17557800001856,
                    "velocity": 0.5511811023622047,
                    "duration": 0.09045400000002246
                },
                {
                    "name": "C4",
                    "midi": 60,
                    "time": 508.7132960000186,
                    "velocity": 0.5590551181102362,
                    "duration": 0.09045400000002246
                },
                {
                    "name": "E4",
                    "midi": 64,
                    "time": 508.8037500000186,
                    "velocity": 0.5590551181102362,
                    "duration": 0.09045400000002246
                },
                {
                    "name": "G4",
                    "midi": 67,
                    "time": 508.89420400001865,
                    "velocity": 0.5748031496062992,
                    "duration": 0.09045400000002246
                },
                {
                    "name": "A#4",
                    "midi": 70,
                    "time": 508.98465800001867,
                    "velocity": 0.5433070866141733,
                    "duration": 0.09045400000002246
                },
                {
                    "name": "C5",
                    "midi": 72,
                    "time": 509.0751120000187,
                    "velocity": 0.5748031496062992,
                    "duration": 0.09045400000002246
                },
                {
                    "name": "E5",
                    "midi": 76,
                    "time": 509.1655660000187,
                    "velocity": 0.5196850393700787,
                    "duration": 0.09045400000002246
                },
                {
                    "name": "G5",
                    "midi": 79,
                    "time": 509.25602000001874,
                    "velocity": 0.5511811023622047,
                    "duration": 0.09045400000002246
                },
                {
                    "name": "E5",
                    "midi": 76,
                    "time": 509.34647400001876,
                    "velocity": 0.5196850393700787,
                    "duration": 0.09045400000002246
                },
                {
                    "name": "C5",
                    "midi": 72,
                    "time": 509.4369280000188,
                    "velocity": 0.5511811023622047,
                    "duration": 0.09045400000002246
                },
                {
                    "name": "E5",
                    "midi": 76,
                    "time": 509.5273820000188,
                    "velocity": 0.5196850393700787,
                    "duration": 0.09045400000002246
                },
                {
                    "name": "G5",
                    "midi": 79,
                    "time": 509.6178360000188,
                    "velocity": 0.5511811023622047,
                    "duration": 0.09045400000002246
                },
                {
                    "name": "E5",
                    "midi": 76,
                    "time": 509.70829000001885,
                    "velocity": 0.47244094488188976,
                    "duration": 0.09045400000002246
                },
                {
                    "name": "A#5",
                    "midi": 82,
                    "time": 509.79874400001887,
                    "velocity": 0.5118110236220472,
                    "duration": 0.09045400000002246
                },
                {
                    "name": "G5",
                    "midi": 79,
                    "time": 509.8891980000189,
                    "velocity": 0.4566929133858268,
                    "duration": 0.09045400000002246
                },
                {
                    "name": "E5",
                    "midi": 76,
                    "time": 509.9796520000189,
                    "velocity": 0.49606299212598426,
                    "duration": 0.09045400000002246
                },
                {
                    "name": "G5",
                    "midi": 79,
                    "time": 510.07010600001894,
                    "velocity": 0.4409448818897638,
                    "duration": 0.09045400000002246
                },
                {
                    "name": "A#5",
                    "midi": 82,
                    "time": 510.16056000001896,
                    "velocity": 0.44881889763779526,
                    "duration": 0.36181599999997616
                },
                {
                    "name": "G5",
                    "midi": 79,
                    "time": 511.7887320000189,
                    "velocity": 0.36220472440944884,
                    "duration": 0.18090799999998808
                },
                {
                    "name": "E5",
                    "midi": 76,
                    "time": 511.7887320000189,
                    "velocity": 0.36220472440944884,
                    "duration": 0.18090799999998808
                },
                {
                    "name": "E5",
                    "midi": 76,
                    "time": 511.9696400000189,
                    "velocity": 0.33070866141732286,
                    "duration": 0.18090800000004492
                },
                {
                    "name": "G5",
                    "midi": 79,
                    "time": 511.9696400000189,
                    "velocity": 0.33070866141732286,
                    "duration": 0.18090800000004492
                },
                {
                    "name": "E5",
                    "midi": 76,
                    "time": 512.150548000019,
                    "velocity": 0.36220472440944884,
                    "duration": 0.18090800000004492
                },
                {
                    "name": "G5",
                    "midi": 79,
                    "time": 512.150548000019,
                    "velocity": 0.36220472440944884,
                    "duration": 0.18090800000004492
                },
                {
                    "name": "A#5",
                    "midi": 82,
                    "time": 512.331456000019,
                    "velocity": 0.36220472440944884,
                    "duration": 0.36181599999997616
                },
                {
                    "name": "G5",
                    "midi": 79,
                    "time": 512.331456000019,
                    "velocity": 0.36220472440944884,
                    "duration": 0.36181599999997616
                },
                {
                    "name": "E4",
                    "midi": 64,
                    "time": 513.9596280000189,
                    "velocity": 0.30708661417322836,
                    "duration": 0.18090800000004492
                },
                {
                    "name": "G4",
                    "midi": 67,
                    "time": 513.9596280000189,
                    "velocity": 0.30708661417322836,
                    "duration": 0.18090800000004492
                },
                {
                    "name": "E4",
                    "midi": 64,
                    "time": 514.140536000019,
                    "velocity": 0.29133858267716534,
                    "duration": 0.18090800000004492
                },
                {
                    "name": "G4",
                    "midi": 67,
                    "time": 514.140536000019,
                    "velocity": 0.29133858267716534,
                    "duration": 0.18090800000004492
                },
                {
                    "name": "G4",
                    "midi": 67,
                    "time": 514.321444000019,
                    "velocity": 0.29133858267716534,
                    "duration": 0.18090800000004492
                },
                {
                    "name": "E4",
                    "midi": 64,
                    "time": 514.321444000019,
                    "velocity": 0.29133858267716534,
                    "duration": 0.18090800000004492
                },
                {
                    "name": "G4",
                    "midi": 67,
                    "time": 514.5023520000191,
                    "velocity": 0.3228346456692913,
                    "duration": 0.36181599999997616
                },
                {
                    "name": "A#4",
                    "midi": 70,
                    "time": 514.5023520000191,
                    "velocity": 0.3228346456692913,
                    "duration": 0.36181599999997616
                },
                {
                    "name": "A#4",
                    "midi": 70,
                    "time": 517.2159720000191,
                    "velocity": 0.25196850393700787,
                    "duration": 0.18090800000004492
                },
                {
                    "name": "G4",
                    "midi": 67,
                    "time": 517.2159720000191,
                    "velocity": 0.25196850393700787,
                    "duration": 0.18090800000004492
                },
                {
                    "name": "E5",
                    "midi": 76,
                    "time": 517.2159720000191,
                    "velocity": 0.25196850393700787,
                    "duration": 0.18090800000004492
                },
                {
                    "name": "E5",
                    "midi": 76,
                    "time": 517.3968800000191,
                    "velocity": 0.28346456692913385,
                    "duration": 0.18090800000004492
                },
                {
                    "name": "A#4",
                    "midi": 70,
                    "time": 517.3968800000191,
                    "velocity": 0.28346456692913385,
                    "duration": 0.18090800000004492
                },
                {
                    "name": "G4",
                    "midi": 67,
                    "time": 517.3968800000191,
                    "velocity": 0.28346456692913385,
                    "duration": 0.18090800000004492
                },
                {
                    "name": "E5",
                    "midi": 76,
                    "time": 517.5777880000192,
                    "velocity": 0.30708661417322836,
                    "duration": 0.18090800000004492
                },
                {
                    "name": "G4",
                    "midi": 67,
                    "time": 517.5777880000192,
                    "velocity": 0.30708661417322836,
                    "duration": 0.18090800000004492
                },
                {
                    "name": "A#4",
                    "midi": 70,
                    "time": 517.5777880000192,
                    "velocity": 0.30708661417322836,
                    "duration": 0.18090800000004492
                },
                {
                    "name": "E5",
                    "midi": 76,
                    "time": 517.7586960000192,
                    "velocity": 0.33858267716535434,
                    "duration": 0.5427240000000211
                },
                {
                    "name": "A#4",
                    "midi": 70,
                    "time": 517.7586960000192,
                    "velocity": 0.33858267716535434,
                    "duration": 0.5427240000000211
                },
                {
                    "name": "G4",
                    "midi": 67,
                    "time": 517.7586960000192,
                    "velocity": 0.33858267716535434,
                    "duration": 0.5427240000000211
                },
                {
                    "name": "C6",
                    "midi": 84,
                    "time": 518.3014200000192,
                    "velocity": 0.6850393700787402,
                    "duration": 0.18090800000004492
                },
                {
                    "name": "A#5",
                    "midi": 82,
                    "time": 518.3014200000192,
                    "velocity": 0.6850393700787402,
                    "duration": 0.18090800000004492
                },
                {
                    "name": "G5",
                    "midi": 79,
                    "time": 518.3014200000192,
                    "velocity": 0.6850393700787402,
                    "duration": 0.18090800000004492
                },
                {
                    "name": "E5",
                    "midi": 76,
                    "time": 518.3014200000192,
                    "velocity": 0.6850393700787402,
                    "duration": 0.18090800000004492
                },
                {
                    "name": "E6",
                    "midi": 88,
                    "time": 518.3014200000192,
                    "velocity": 0.8031496062992126,
                    "duration": 0.18090800000004492
                },
                {
                    "name": "E5",
                    "midi": 76,
                    "time": 518.4823280000193,
                    "velocity": 0.6141732283464567,
                    "duration": 0.18090800000004492
                },
                {
                    "name": "C6",
                    "midi": 84,
                    "time": 518.4823280000193,
                    "velocity": 0.6141732283464567,
                    "duration": 0.18090800000004492
                },
                {
                    "name": "G5",
                    "midi": 79,
                    "time": 518.4823280000193,
                    "velocity": 0.6141732283464567,
                    "duration": 0.18090800000004492
                },
                {
                    "name": "E6",
                    "midi": 88,
                    "time": 518.4823280000193,
                    "velocity": 0.7322834645669292,
                    "duration": 0.18090800000004492
                },
                {
                    "name": "A#5",
                    "midi": 82,
                    "time": 518.4823280000193,
                    "velocity": 0.6141732283464567,
                    "duration": 0.18090800000004492
                },
                {
                    "name": "G5",
                    "midi": 79,
                    "time": 518.6632360000193,
                    "velocity": 0.6141732283464567,
                    "duration": 0.18090800000004492
                },
                {
                    "name": "E5",
                    "midi": 76,
                    "time": 518.6632360000193,
                    "velocity": 0.6141732283464567,
                    "duration": 0.18090800000004492
                },
                {
                    "name": "A#5",
                    "midi": 82,
                    "time": 518.6632360000193,
                    "velocity": 0.6141732283464567,
                    "duration": 0.18090800000004492
                },
                {
                    "name": "C6",
                    "midi": 84,
                    "time": 518.6632360000193,
                    "velocity": 0.6141732283464567,
                    "duration": 0.18090800000004492
                },
                {
                    "name": "E6",
                    "midi": 88,
                    "time": 518.6632360000193,
                    "velocity": 0.7322834645669292,
                    "duration": 0.18090800000004492
                },
                {
                    "name": "C6",
                    "midi": 84,
                    "time": 518.8441440000194,
                    "velocity": 0.6850393700787402,
                    "duration": 0.36181599999997616
                },
                {
                    "name": "G#5",
                    "midi": 80,
                    "time": 518.8441440000194,
                    "velocity": 0.6850393700787402,
                    "duration": 0.36181599999997616
                },
                {
                    "name": "F6",
                    "midi": 89,
                    "time": 518.8441440000194,
                    "velocity": 0.8031496062992126,
                    "duration": 0.36181599999997616
                },
                {
                    "name": "F5",
                    "midi": 77,
                    "time": 518.8441440000194,
                    "velocity": 0.6850393700787402,
                    "duration": 0.36181599999997616
                },
                {
                    "name": "G#4",
                    "midi": 68,
                    "time": 520.4723160000193,
                    "velocity": 0.5196850393700787,
                    "duration": 0.4522699999999986
                },
                {
                    "name": "C5",
                    "midi": 72,
                    "time": 520.9245860000193,
                    "velocity": 0.4566929133858268,
                    "duration": 0.09045400000002246
                },
                {
                    "name": "F5",
                    "midi": 77,
                    "time": 521.0150400000193,
                    "velocity": 0.49606299212598426,
                    "duration": 0.5427240000000211
                },
                {
                    "name": "G#5",
                    "midi": 80,
                    "time": 521.5577640000193,
                    "velocity": 0.5354330708661418,
                    "duration": 0.4522699999999986
                },
                {
                    "name": "F5",
                    "midi": 77,
                    "time": 522.0100340000193,
                    "velocity": 0.47244094488188976,
                    "duration": 0.09045400000002246
                },
                {
                    "name": "E5",
                    "midi": 76,
                    "time": 522.1004880000194,
                    "velocity": 0.49606299212598426,
                    "duration": 0.5427240000000211
                },
                {
                    "name": "G5",
                    "midi": 79,
                    "time": 522.6432120000194,
                    "velocity": 0.5354330708661418,
                    "duration": 0.4522699999999986
                },
                {
                    "name": "E5",
                    "midi": 76,
                    "time": 523.0954820000194,
                    "velocity": 0.47244094488188976,
                    "duration": 0.09045400000002246
                },
                {
                    "name": "F5",
                    "midi": 77,
                    "time": 523.1859360000194,
                    "velocity": 0.49606299212598426,
                    "duration": 0.5427240000000211
                },
                {
                    "name": "C5",
                    "midi": 72,
                    "time": 523.7286600000194,
                    "velocity": 0.4881889763779528,
                    "duration": 1.0854480000000422
                },
                {
                    "name": "G#5",
                    "midi": 80,
                    "time": 524.8141080000195,
                    "velocity": 0.5590551181102362,
                    "duration": 0.4522699999999986
                },
                {
                    "name": "G#4",
                    "midi": 68,
                    "time": 524.8141080000195,
                    "velocity": 0.47244094488188976,
                    "duration": 0.4522699999999986
                },
                {
                    "name": "C6",
                    "midi": 84,
                    "time": 525.2663780000195,
                    "velocity": 0.4881889763779528,
                    "duration": 0.09045400000002246
                },
                {
                    "name": "C5",
                    "midi": 72,
                    "time": 525.2663780000195,
                    "velocity": 0.4094488188976378,
                    "duration": 0.09045400000002246
                },
                {
                    "name": "F5",
                    "midi": 77,
                    "time": 525.3568320000195,
                    "velocity": 0.48031496062992124,
                    "duration": 0.5427240000000211
                },
                {
                    "name": "F6",
                    "midi": 89,
                    "time": 525.3568320000195,
                    "velocity": 0.5748031496062992,
                    "duration": 0.5427240000000211
                },
                {
                    "name": "G#6",
                    "midi": 92,
                    "time": 525.8995560000195,
                    "velocity": 0.6141732283464567,
                    "duration": 0.4522699999999986
                },
                {
                    "name": "G#5",
                    "midi": 80,
                    "time": 525.8995560000195,
                    "velocity": 0.5118110236220472,
                    "duration": 0.4522699999999986
                },
                {
                    "name": "F6",
                    "midi": 89,
                    "time": 526.3518260000195,
                    "velocity": 0.5590551181102362,
                    "duration": 0.09045400000002246
                },
                {
                    "name": "F5",
                    "midi": 77,
                    "time": 526.3518260000195,
                    "velocity": 0.4645669291338583,
                    "duration": 0.09045400000002246
                },
                {
                    "name": "E6",
                    "midi": 88,
                    "time": 526.4422800000195,
                    "velocity": 0.5984251968503937,
                    "duration": 0.5427240000000211
                },
                {
                    "name": "E5",
                    "midi": 76,
                    "time": 526.4422800000195,
                    "velocity": 0.5039370078740157,
                    "duration": 0.5427240000000211
                },
                {
                    "name": "G6",
                    "midi": 91,
                    "time": 526.9850040000196,
                    "velocity": 0.6456692913385826,
                    "duration": 0.4522699999999986
                },
                {
                    "name": "G5",
                    "midi": 79,
                    "time": 526.9850040000196,
                    "velocity": 0.5354330708661418,
                    "duration": 0.4522699999999986
                },
                {
                    "name": "E6",
                    "midi": 88,
                    "time": 527.4372740000196,
                    "velocity": 0.6062992125984252,
                    "duration": 0.09045400000002246
                },
                {
                    "name": "E5",
                    "midi": 76,
                    "time": 527.4372740000196,
                    "velocity": 0.5118110236220472,
                    "duration": 0.09045400000002246
                },
                {
                    "name": "F#6",
                    "midi": 90,
                    "time": 527.5277280000196,
                    "velocity": 0.7795275590551181,
                    "duration": 0.5427240000000211
                },
                {
                    "name": "F#5",
                    "midi": 78,
                    "time": 527.5277280000196,
                    "velocity": 0.6456692913385826,
                    "duration": 0.5427240000000211
                },
                {
                    "name": "C5",
                    "midi": 72,
                    "time": 528.0704520000196,
                    "velocity": 0.49606299212598426,
                    "duration": 1.0854480000000422
                },
                {
                    "name": "C6",
                    "midi": 84,
                    "time": 528.0704520000196,
                    "velocity": 0.6220472440944882,
                    "duration": 1.0854480000000422
                },
                {
                    "name": "D#5",
                    "midi": 75,
                    "time": 529.1559000000196,
                    "velocity": 0.5511811023622047,
                    "duration": 0.4522699999999986
                },
                {
                    "name": "D#6",
                    "midi": 87,
                    "time": 529.1559000000196,
                    "velocity": 0.6614173228346457,
                    "duration": 0.4522699999999986
                },
                {
                    "name": "C5",
                    "midi": 72,
                    "time": 529.6081700000196,
                    "velocity": 0.5196850393700787,
                    "duration": 0.09045400000002246
                },
                {
                    "name": "C6",
                    "midi": 84,
                    "time": 529.6081700000196,
                    "velocity": 0.6141732283464567,
                    "duration": 0.09045400000002246
                },
                {
                    "name": "F6",
                    "midi": 89,
                    "time": 529.6986240000197,
                    "velocity": 0.7795275590551181,
                    "duration": 0.5427240000000211
                },
                {
                    "name": "F5",
                    "midi": 77,
                    "time": 529.6986240000197,
                    "velocity": 0.6456692913385826,
                    "duration": 0.5427240000000211
                },
                {
                    "name": "A#4",
                    "midi": 70,
                    "time": 530.2413480000197,
                    "velocity": 0.49606299212598426,
                    "duration": 1.0854480000000422
                },
                {
                    "name": "A#5",
                    "midi": 82,
                    "time": 530.2413480000197,
                    "velocity": 0.6220472440944882,
                    "duration": 1.0854480000000422
                },
                {
                    "name": "C#5",
                    "midi": 73,
                    "time": 531.3267960000197,
                    "velocity": 0.5511811023622047,
                    "duration": 0.4522699999999986
                },
                {
                    "name": "C#6",
                    "midi": 85,
                    "time": 531.3267960000197,
                    "velocity": 0.6614173228346457,
                    "duration": 0.4522699999999986
                },
                {
                    "name": "A#5",
                    "midi": 82,
                    "time": 531.7790660000197,
                    "velocity": 0.6141732283464567,
                    "duration": 0.09045400000002246
                },
                {
                    "name": "A#4",
                    "midi": 70,
                    "time": 531.7790660000197,
                    "velocity": 0.5196850393700787,
                    "duration": 0.09045400000002246
                },
                {
                    "name": "G#4",
                    "midi": 68,
                    "time": 531.8695200000197,
                    "velocity": 0.5905511811023622,
                    "duration": 0.5427240000000211
                },
                {
                    "name": "G#5",
                    "midi": 80,
                    "time": 531.8695200000197,
                    "velocity": 0.7086614173228346,
                    "duration": 0.5427240000000211
                },
                {
                    "name": "C6",
                    "midi": 84,
                    "time": 532.4122440000198,
                    "velocity": 0.6614173228346457,
                    "duration": 0.4522699999999986
                },
                {
                    "name": "C5",
                    "midi": 72,
                    "time": 532.4122440000198,
                    "velocity": 0.5511811023622047,
                    "duration": 0.4522699999999986
                },
                {
                    "name": "G#5",
                    "midi": 80,
                    "time": 532.8645140000198,
                    "velocity": 0.6141732283464567,
                    "duration": 0.09045400000002246
                },
                {
                    "name": "G#4",
                    "midi": 68,
                    "time": 532.8645140000198,
                    "velocity": 0.5196850393700787,
                    "duration": 0.09045400000002246
                },
                {
                    "name": "G5",
                    "midi": 79,
                    "time": 532.9549680000198,
                    "velocity": 0.7086614173228346,
                    "duration": 0.5427240000000211
                },
                {
                    "name": "G4",
                    "midi": 67,
                    "time": 532.9549680000198,
                    "velocity": 0.5905511811023622,
                    "duration": 0.5427240000000211
                },
                {
                    "name": "G5",
                    "midi": 79,
                    "time": 533.4976920000198,
                    "velocity": 0.6062992125984252,
                    "duration": 0.4522699999999986
                },
                {
                    "name": "G6",
                    "midi": 91,
                    "time": 533.4976920000198,
                    "velocity": 0.7244094488188977,
                    "duration": 0.4522699999999986
                },
                {
                    "name": "E5",
                    "midi": 76,
                    "time": 533.9499620000198,
                    "velocity": 0.5669291338582677,
                    "duration": 0.09045400000002246
                },
                {
                    "name": "E6",
                    "midi": 88,
                    "time": 533.9499620000198,
                    "velocity": 0.6692913385826772,
                    "duration": 0.09045400000002246
                },
                {
                    "name": "F#5",
                    "midi": 78,
                    "time": 534.0253403333531,
                    "velocity": 0.6614173228346457,
                    "duration": 0.5427240000000211
                },
                {
                    "name": "F#6",
                    "midi": 90,
                    "time": 534.0253403333531,
                    "velocity": 0.8110236220472441,
                    "duration": 0.5427240000000211
                },
                {
                    "name": "C5",
                    "midi": 72,
                    "time": 534.5831400000199,
                    "velocity": 0.5433070866141733,
                    "duration": 1.0854480000000422
                },
                {
                    "name": "C6",
                    "midi": 84,
                    "time": 534.5831400000199,
                    "velocity": 0.6771653543307087,
                    "duration": 1.0854480000000422
                },
                {
                    "name": "D#6",
                    "midi": 87,
                    "time": 535.6685880000199,
                    "velocity": 0.7244094488188977,
                    "duration": 0.4522699999999986
                },
                {
                    "name": "D#5",
                    "midi": 75,
                    "time": 535.6685880000199,
                    "velocity": 0.6062992125984252,
                    "duration": 0.4522699999999986
                },
                {
                    "name": "C5",
                    "midi": 72,
                    "time": 536.1208580000199,
                    "velocity": 0.5669291338582677,
                    "duration": 0.09045400000002246
                },
                {
                    "name": "C6",
                    "midi": 84,
                    "time": 536.1208580000199,
                    "velocity": 0.6692913385826772,
                    "duration": 0.09045400000002246
                },
                {
                    "name": "F6",
                    "midi": 89,
                    "time": 536.2113120000199,
                    "velocity": 0.8110236220472441,
                    "duration": 0.5427240000000211
                },
                {
                    "name": "F5",
                    "midi": 77,
                    "time": 536.2113120000199,
                    "velocity": 0.6614173228346457,
                    "duration": 0.5427240000000211
                },
                {
                    "name": "A#5",
                    "midi": 82,
                    "time": 536.7540360000199,
                    "velocity": 0.6771653543307087,
                    "duration": 1.0854480000000422
                },
                {
                    "name": "A#4",
                    "midi": 70,
                    "time": 536.7540360000199,
                    "velocity": 0.5433070866141733,
                    "duration": 1.0854480000000422
                },
                {
                    "name": "C#5",
                    "midi": 73,
                    "time": 537.83948400002,
                    "velocity": 0.6062992125984252,
                    "duration": 0.4522699999999986
                },
                {
                    "name": "C#6",
                    "midi": 85,
                    "time": 537.83948400002,
                    "velocity": 0.7244094488188977,
                    "duration": 0.4522699999999986
                },
                {
                    "name": "A#4",
                    "midi": 70,
                    "time": 538.29175400002,
                    "velocity": 0.5669291338582677,
                    "duration": 0.09045400000002246
                },
                {
                    "name": "A#5",
                    "midi": 82,
                    "time": 538.29175400002,
                    "velocity": 0.6692913385826772,
                    "duration": 0.09045400000002246
                },
                {
                    "name": "G#4",
                    "midi": 68,
                    "time": 538.38220800002,
                    "velocity": 0.6456692913385826,
                    "duration": 0.5427240000000211
                },
                {
                    "name": "G#5",
                    "midi": 80,
                    "time": 538.38220800002,
                    "velocity": 0.7795275590551181,
                    "duration": 0.5427240000000211
                },
                {
                    "name": "C6",
                    "midi": 84,
                    "time": 538.92493200002,
                    "velocity": 0.7244094488188977,
                    "duration": 0.4522699999999986
                },
                {
                    "name": "C5",
                    "midi": 72,
                    "time": 538.92493200002,
                    "velocity": 0.6062992125984252,
                    "duration": 0.4522699999999986
                },
                {
                    "name": "G#5",
                    "midi": 80,
                    "time": 539.37720200002,
                    "velocity": 0.6692913385826772,
                    "duration": 0.09045400000002246
                },
                {
                    "name": "G#4",
                    "midi": 68,
                    "time": 539.37720200002,
                    "velocity": 0.5669291338582677,
                    "duration": 0.09045400000002246
                },
                {
                    "name": "G5",
                    "midi": 79,
                    "time": 539.46765600002,
                    "velocity": 0.7795275590551181,
                    "duration": 0.5427240000000211
                },
                {
                    "name": "G4",
                    "midi": 67,
                    "time": 539.46765600002,
                    "velocity": 0.6456692913385826,
                    "duration": 0.5427240000000211
                },
                {
                    "name": "C6",
                    "midi": 84,
                    "time": 540.0103800000201,
                    "velocity": 0.7952755905511811,
                    "duration": 0.36181599999997616
                },
                {
                    "name": "C5",
                    "midi": 72,
                    "time": 540.0103800000201,
                    "velocity": 0.6614173228346457,
                    "duration": 0.36181599999997616
                },
                {
                    "name": "C6",
                    "midi": 84,
                    "time": 540.37219600002,
                    "velocity": 0.7480314960629921,
                    "duration": 0.18090800000004492
                },
                {
                    "name": "C5",
                    "midi": 72,
                    "time": 540.37219600002,
                    "velocity": 0.6299212598425197,
                    "duration": 0.18090800000004492
                },
                {
                    "name": "C6",
                    "midi": 84,
                    "time": 540.5531040000201,
                    "velocity": 0.8267716535433071,
                    "duration": 0.18090800000004492
                },
                {
                    "name": "C5",
                    "midi": 72,
                    "time": 540.5531040000201,
                    "velocity": 0.6850393700787402,
                    "duration": 0.18090800000004492
                },
                {
                    "name": "F4",
                    "midi": 65,
                    "time": 540.7340120000201,
                    "velocity": 0.4645669291338583,
                    "duration": 0.16583233333335556
                },
                {
                    "name": "C4",
                    "midi": 60,
                    "time": 540.7340120000201,
                    "velocity": 0.4645669291338583,
                    "duration": 0.16583233333335556
                },
                {
                    "name": "C5",
                    "midi": 72,
                    "time": 540.7340120000201,
                    "velocity": 0.6220472440944882,
                    "duration": 0.16583233333335556
                },
                {
                    "name": "G#4",
                    "midi": 68,
                    "time": 540.7340120000201,
                    "velocity": 0.5196850393700787,
                    "duration": 0.16583233333335556
                },
                {
                    "name": "G#4",
                    "midi": 68,
                    "time": 540.9149200000202,
                    "velocity": 0.5196850393700787,
                    "duration": 0.16583233333335556
                },
                {
                    "name": "C5",
                    "midi": 72,
                    "time": 540.9149200000202,
                    "velocity": 0.6220472440944882,
                    "duration": 0.16583233333335556
                },
                {
                    "name": "C4",
                    "midi": 60,
                    "time": 540.9149200000202,
                    "velocity": 0.4645669291338583,
                    "duration": 0.16583233333335556
                },
                {
                    "name": "F4",
                    "midi": 65,
                    "time": 540.9149200000202,
                    "velocity": 0.4645669291338583,
                    "duration": 0.16583233333335556
                },
                {
                    "name": "G#4",
                    "midi": 68,
                    "time": 541.0958280000202,
                    "velocity": 0.5433070866141733,
                    "duration": 0.5427240000000211
                },
                {
                    "name": "F4",
                    "midi": 65,
                    "time": 541.0958280000202,
                    "velocity": 0.4881889763779528,
                    "duration": 0.5427240000000211
                },
                {
                    "name": "C5",
                    "midi": 72,
                    "time": 541.0958280000202,
                    "velocity": 0.6614173228346457,
                    "duration": 0.5427240000000211
                },
                {
                    "name": "C4",
                    "midi": 60,
                    "time": 541.0958280000202,
                    "velocity": 0.4881889763779528,
                    "duration": 0.5427240000000211
                },
                {
                    "name": "C4",
                    "midi": 60,
                    "time": 541.8194600000203,
                    "velocity": 0.4645669291338583,
                    "duration": 0.16583233333335556
                },
                {
                    "name": "C5",
                    "midi": 72,
                    "time": 541.8194600000203,
                    "velocity": 0.6220472440944882,
                    "duration": 0.16583233333335556
                },
                {
                    "name": "E4",
                    "midi": 64,
                    "time": 541.8194600000203,
                    "velocity": 0.5196850393700787,
                    "duration": 0.16583233333335556
                },
                {
                    "name": "G4",
                    "midi": 67,
                    "time": 541.8194600000203,
                    "velocity": 0.5196850393700787,
                    "duration": 0.16583233333335556
                },
                {
                    "name": "C5",
                    "midi": 72,
                    "time": 542.0003680000203,
                    "velocity": 0.6220472440944882,
                    "duration": 0.16583233333335556
                },
                {
                    "name": "C4",
                    "midi": 60,
                    "time": 542.0003680000203,
                    "velocity": 0.4645669291338583,
                    "duration": 0.16583233333335556
                },
                {
                    "name": "E4",
                    "midi": 64,
                    "time": 542.0003680000203,
                    "velocity": 0.5196850393700787,
                    "duration": 0.16583233333335556
                },
                {
                    "name": "G4",
                    "midi": 67,
                    "time": 542.0003680000203,
                    "velocity": 0.5196850393700787,
                    "duration": 0.16583233333335556
                },
                {
                    "name": "C5",
                    "midi": 72,
                    "time": 542.1812760000204,
                    "velocity": 0.6614173228346457,
                    "duration": 0.5427240000000211
                },
                {
                    "name": "A#4",
                    "midi": 70,
                    "time": 542.1812760000204,
                    "velocity": 0.5433070866141733,
                    "duration": 0.5427240000000211
                },
                {
                    "name": "G4",
                    "midi": 67,
                    "time": 542.1812760000204,
                    "velocity": 0.4881889763779528,
                    "duration": 0.5427240000000211
                },
                {
                    "name": "C4",
                    "midi": 60,
                    "time": 542.1812760000204,
                    "velocity": 0.4881889763779528,
                    "duration": 0.5427240000000211
                },
                {
                    "name": "G#4",
                    "midi": 68,
                    "time": 542.9049080000204,
                    "velocity": 0.5196850393700787,
                    "duration": 0.16583233333335556
                },
                {
                    "name": "C4",
                    "midi": 60,
                    "time": 542.9049080000204,
                    "velocity": 0.4645669291338583,
                    "duration": 0.16583233333335556
                },
                {
                    "name": "F4",
                    "midi": 65,
                    "time": 542.9049080000204,
                    "velocity": 0.4645669291338583,
                    "duration": 0.16583233333335556
                },
                {
                    "name": "C5",
                    "midi": 72,
                    "time": 542.9049080000204,
                    "velocity": 0.6220472440944882,
                    "duration": 0.16583233333335556
                },
                {
                    "name": "G#4",
                    "midi": 68,
                    "time": 543.0858160000205,
                    "velocity": 0.5196850393700787,
                    "duration": 0.16583233333335556
                },
                {
                    "name": "C5",
                    "midi": 72,
                    "time": 543.0858160000205,
                    "velocity": 0.6220472440944882,
                    "duration": 0.16583233333335556
                },
                {
                    "name": "C4",
                    "midi": 60,
                    "time": 543.0858160000205,
                    "velocity": 0.4645669291338583,
                    "duration": 0.16583233333335556
                },
                {
                    "name": "F4",
                    "midi": 65,
                    "time": 543.0858160000205,
                    "velocity": 0.4645669291338583,
                    "duration": 0.16583233333335556
                },
                {
                    "name": "C4",
                    "midi": 60,
                    "time": 543.2667240000205,
                    "velocity": 0.4881889763779528,
                    "duration": 0.5427240000000211
                },
                {
                    "name": "G#4",
                    "midi": 68,
                    "time": 543.2667240000205,
                    "velocity": 0.5433070866141733,
                    "duration": 0.5427240000000211
                },
                {
                    "name": "F4",
                    "midi": 65,
                    "time": 543.2667240000205,
                    "velocity": 0.4881889763779528,
                    "duration": 0.5427240000000211
                },
                {
                    "name": "C5",
                    "midi": 72,
                    "time": 543.2667240000205,
                    "velocity": 0.6614173228346457,
                    "duration": 0.5427240000000211
                },
                {
                    "name": "E4",
                    "midi": 64,
                    "time": 543.9903560000206,
                    "velocity": 0.5196850393700787,
                    "duration": 0.16583233333335556
                },
                {
                    "name": "C4",
                    "midi": 60,
                    "time": 543.9903560000206,
                    "velocity": 0.4645669291338583,
                    "duration": 0.16583233333335556
                },
                {
                    "name": "C5",
                    "midi": 72,
                    "time": 543.9903560000206,
                    "velocity": 0.6220472440944882,
                    "duration": 0.16583233333335556
                },
                {
                    "name": "G4",
                    "midi": 67,
                    "time": 543.9903560000206,
                    "velocity": 0.5196850393700787,
                    "duration": 0.16583233333335556
                },
                {
                    "name": "E4",
                    "midi": 64,
                    "time": 544.1712640000206,
                    "velocity": 0.5196850393700787,
                    "duration": 0.16583233333335556
                },
                {
                    "name": "G4",
                    "midi": 67,
                    "time": 544.1712640000206,
                    "velocity": 0.5196850393700787,
                    "duration": 0.16583233333335556
                },
                {
                    "name": "C4",
                    "midi": 60,
                    "time": 544.1712640000206,
                    "velocity": 0.4645669291338583,
                    "duration": 0.16583233333335556
                },
                {
                    "name": "C5",
                    "midi": 72,
                    "time": 544.1712640000206,
                    "velocity": 0.6220472440944882,
                    "duration": 0.16583233333335556
                },
                {
                    "name": "C5",
                    "midi": 72,
                    "time": 544.3521720000207,
                    "velocity": 0.6614173228346457,
                    "duration": 0.5427240000000211
                },
                {
                    "name": "G4",
                    "midi": 67,
                    "time": 544.3521720000207,
                    "velocity": 0.4881889763779528,
                    "duration": 0.5427240000000211
                },
                {
                    "name": "A#4",
                    "midi": 70,
                    "time": 544.3521720000207,
                    "velocity": 0.5433070866141733,
                    "duration": 0.5427240000000211
                },
                {
                    "name": "C4",
                    "midi": 60,
                    "time": 544.3521720000207,
                    "velocity": 0.4881889763779528,
                    "duration": 0.5427240000000211
                },
                {
                    "name": "F4",
                    "midi": 65,
                    "time": 545.0758040000208,
                    "velocity": 0.5118110236220472,
                    "duration": 0.16583233333335556
                },
                {
                    "name": "C4",
                    "midi": 60,
                    "time": 545.0758040000208,
                    "velocity": 0.5118110236220472,
                    "duration": 0.16583233333335556
                },
                {
                    "name": "C5",
                    "midi": 72,
                    "time": 545.0758040000208,
                    "velocity": 0.6062992125984252,
                    "duration": 0.16583233333335556
                },
                {
                    "name": "G#4",
                    "midi": 68,
                    "time": 545.0758040000208,
                    "velocity": 0.5118110236220472,
                    "duration": 0.16583233333335556
                },
                {
                    "name": "F4",
                    "midi": 65,
                    "time": 545.4376200000207,
                    "velocity": 0.5748031496062992,
                    "duration": 0.16583233333335556
                },
                {
                    "name": "C#4",
                    "midi": 61,
                    "time": 545.4376200000207,
                    "velocity": 0.5748031496062992,
                    "duration": 0.16583233333335556
                },
                {
                    "name": "C#5",
                    "midi": 73,
                    "time": 545.4376200000207,
                    "velocity": 0.6692913385826772,
                    "duration": 0.16583233333335556
                },
                {
                    "name": "G4",
                    "midi": 67,
                    "time": 545.4376200000207,
                    "velocity": 0.5748031496062992,
                    "duration": 0.16583233333335556
                },
                {
                    "name": "C#4",
                    "midi": 61,
                    "time": 545.7994360000207,
                    "velocity": 0.5118110236220472,
                    "duration": 0.16583233333335556
                },
                {
                    "name": "F4",
                    "midi": 65,
                    "time": 545.7994360000207,
                    "velocity": 0.5118110236220472,
                    "duration": 0.16583233333335556
                },
                {
                    "name": "G4",
                    "midi": 67,
                    "time": 545.7994360000207,
                    "velocity": 0.5118110236220472,
                    "duration": 0.16583233333335556
                },
                {
                    "name": "C#5",
                    "midi": 73,
                    "time": 545.7994360000207,
                    "velocity": 0.6062992125984252,
                    "duration": 0.16583233333335556
                },
                {
                    "name": "C4",
                    "midi": 60,
                    "time": 546.1612520000207,
                    "velocity": 0.5433070866141733,
                    "duration": 0.16583233333335556
                },
                {
                    "name": "C5",
                    "midi": 72,
                    "time": 546.1612520000207,
                    "velocity": 0.6535433070866141,
                    "duration": 0.16583233333335556
                },
                {
                    "name": "G#4",
                    "midi": 68,
                    "time": 546.1612520000207,
                    "velocity": 0.5433070866141733,
                    "duration": 0.16583233333335556
                },
                {
                    "name": "F4",
                    "midi": 65,
                    "time": 546.1612520000207,
                    "velocity": 0.5433070866141733,
                    "duration": 0.16583233333335556
                },
                {
                    "name": "C4",
                    "midi": 60,
                    "time": 546.5230680000207,
                    "velocity": 0.5511811023622047,
                    "duration": 0.16583233333335556
                },
                {
                    "name": "E4",
                    "midi": 64,
                    "time": 546.5230680000207,
                    "velocity": 0.5511811023622047,
                    "duration": 0.16583233333335556
                },
                {
                    "name": "C5",
                    "midi": 72,
                    "time": 546.5230680000207,
                    "velocity": 0.6456692913385826,
                    "duration": 0.16583233333335556
                },
                {
                    "name": "G4",
                    "midi": 67,
                    "time": 546.5230680000207,
                    "velocity": 0.5511811023622047,
                    "duration": 0.16583233333335556
                },
                {
                    "name": "E4",
                    "midi": 64,
                    "time": 546.8848840000206,
                    "velocity": 0.4645669291338583,
                    "duration": 0.16583233333335556
                },
                {
                    "name": "G4",
                    "midi": 67,
                    "time": 546.8848840000206,
                    "velocity": 0.4645669291338583,
                    "duration": 0.16583233333335556
                },
                {
                    "name": "C4",
                    "midi": 60,
                    "time": 546.8848840000206,
                    "velocity": 0.4645669291338583,
                    "duration": 0.16583233333335556
                },
                {
                    "name": "C5",
                    "midi": 72,
                    "time": 546.8848840000206,
                    "velocity": 0.5590551181102362,
                    "duration": 0.16583233333335556
                },
                {
                    "name": "F4",
                    "midi": 65,
                    "time": 547.0657920000207,
                    "velocity": 0.5984251968503937,
                    "duration": 0.18090800000004492
                },
                {
                    "name": "G#4",
                    "midi": 68,
                    "time": 547.0657920000207,
                    "velocity": 0.5984251968503937,
                    "duration": 0.18090800000004492
                },
                {
                    "name": "C4",
                    "midi": 60,
                    "time": 547.0657920000207,
                    "velocity": 0.5984251968503937,
                    "duration": 0.18090800000004492
                },
                {
                    "name": "C5",
                    "midi": 72,
                    "time": 547.0657920000207,
                    "velocity": 0.7244094488188977,
                    "duration": 0.18090800000004492
                },
                {
                    "name": "F3",
                    "midi": 53,
                    "time": 547.2467000000207,
                    "velocity": 0.4645669291338583,
                    "duration": 0.16583233333335556
                },
                {
                    "name": "C3",
                    "midi": 48,
                    "time": 547.2467000000207,
                    "velocity": 0.4645669291338583,
                    "duration": 0.16583233333335556
                },
                {
                    "name": "G#3",
                    "midi": 56,
                    "time": 547.2467000000207,
                    "velocity": 0.5196850393700787,
                    "duration": 0.16583233333335556
                },
                {
                    "name": "C4",
                    "midi": 60,
                    "time": 547.2467000000207,
                    "velocity": 0.6220472440944882,
                    "duration": 0.16583233333335556
                },
                {
                    "name": "C3",
                    "midi": 48,
                    "time": 547.4276080000208,
                    "velocity": 0.4645669291338583,
                    "duration": 0.16583233333335556
                },
                {
                    "name": "C4",
                    "midi": 60,
                    "time": 547.4276080000208,
                    "velocity": 0.6220472440944882,
                    "duration": 0.16583233333335556
                },
                {
                    "name": "G#3",
                    "midi": 56,
                    "time": 547.4276080000208,
                    "velocity": 0.5196850393700787,
                    "duration": 0.16583233333335556
                },
                {
                    "name": "F3",
                    "midi": 53,
                    "time": 547.4276080000208,
                    "velocity": 0.4645669291338583,
                    "duration": 0.16583233333335556
                },
                {
                    "name": "C3",
                    "midi": 48,
                    "time": 547.6085160000208,
                    "velocity": 0.4881889763779528,
                    "duration": 0.5427240000000211
                },
                {
                    "name": "F3",
                    "midi": 53,
                    "time": 547.6085160000208,
                    "velocity": 0.4881889763779528,
                    "duration": 0.5427240000000211
                },
                {
                    "name": "C4",
                    "midi": 60,
                    "time": 547.6085160000208,
                    "velocity": 0.6614173228346457,
                    "duration": 0.5427240000000211
                },
                {
                    "name": "G#3",
                    "midi": 56,
                    "time": 547.6085160000208,
                    "velocity": 0.5433070866141733,
                    "duration": 0.5427240000000211
                },
                {
                    "name": "C3",
                    "midi": 48,
                    "time": 548.3321480000209,
                    "velocity": 0.4645669291338583,
                    "duration": 0.16583233333335556
                },
                {
                    "name": "G3",
                    "midi": 55,
                    "time": 548.3321480000209,
                    "velocity": 0.5196850393700787,
                    "duration": 0.16583233333335556
                },
                {
                    "name": "C4",
                    "midi": 60,
                    "time": 548.3321480000209,
                    "velocity": 0.6220472440944882,
                    "duration": 0.16583233333335556
                },
                {
                    "name": "E3",
                    "midi": 52,
                    "time": 548.3321480000209,
                    "velocity": 0.5196850393700787,
                    "duration": 0.16583233333335556
                },
                {
                    "name": "G3",
                    "midi": 55,
                    "time": 548.5130560000209,
                    "velocity": 0.5196850393700787,
                    "duration": 0.16583233333335556
                },
                {
                    "name": "E3",
                    "midi": 52,
                    "time": 548.5130560000209,
                    "velocity": 0.5196850393700787,
                    "duration": 0.16583233333335556
                },
                {
                    "name": "C3",
                    "midi": 48,
                    "time": 548.5130560000209,
                    "velocity": 0.4645669291338583,
                    "duration": 0.16583233333335556
                },
                {
                    "name": "C4",
                    "midi": 60,
                    "time": 548.5130560000209,
                    "velocity": 0.6220472440944882,
                    "duration": 0.16583233333335556
                },
                {
                    "name": "G3",
                    "midi": 55,
                    "time": 548.693964000021,
                    "velocity": 0.4881889763779528,
                    "duration": 0.5427240000000211
                },
                {
                    "name": "A#3",
                    "midi": 58,
                    "time": 548.693964000021,
                    "velocity": 0.5433070866141733,
                    "duration": 0.5427240000000211
                },
                {
                    "name": "C4",
                    "midi": 60,
                    "time": 548.693964000021,
                    "velocity": 0.6614173228346457,
                    "duration": 0.5427240000000211
                },
                {
                    "name": "C3",
                    "midi": 48,
                    "time": 548.693964000021,
                    "velocity": 0.4881889763779528,
                    "duration": 0.5427240000000211
                },
                {
                    "name": "C3",
                    "midi": 48,
                    "time": 549.417596000021,
                    "velocity": 0.4645669291338583,
                    "duration": 0.16583233333335556
                },
                {
                    "name": "F3",
                    "midi": 53,
                    "time": 549.417596000021,
                    "velocity": 0.4645669291338583,
                    "duration": 0.16583233333335556
                },
                {
                    "name": "G#3",
                    "midi": 56,
                    "time": 549.417596000021,
                    "velocity": 0.5196850393700787,
                    "duration": 0.16583233333335556
                },
                {
                    "name": "C4",
                    "midi": 60,
                    "time": 549.417596000021,
                    "velocity": 0.6220472440944882,
                    "duration": 0.16583233333335556
                },
                {
                    "name": "C3",
                    "midi": 48,
                    "time": 549.5985040000211,
                    "velocity": 0.4645669291338583,
                    "duration": 0.16583233333335556
                },
                {
                    "name": "G#3",
                    "midi": 56,
                    "time": 549.5985040000211,
                    "velocity": 0.5196850393700787,
                    "duration": 0.16583233333335556
                },
                {
                    "name": "C4",
                    "midi": 60,
                    "time": 549.5985040000211,
                    "velocity": 0.6220472440944882,
                    "duration": 0.16583233333335556
                },
                {
                    "name": "F3",
                    "midi": 53,
                    "time": 549.5985040000211,
                    "velocity": 0.4645669291338583,
                    "duration": 0.16583233333335556
                },
                {
                    "name": "F3",
                    "midi": 53,
                    "time": 549.7794120000211,
                    "velocity": 0.4881889763779528,
                    "duration": 0.5427240000000211
                },
                {
                    "name": "C3",
                    "midi": 48,
                    "time": 549.7794120000211,
                    "velocity": 0.4881889763779528,
                    "duration": 0.5427240000000211
                },
                {
                    "name": "G#3",
                    "midi": 56,
                    "time": 549.7794120000211,
                    "velocity": 0.5433070866141733,
                    "duration": 0.5427240000000211
                },
                {
                    "name": "C4",
                    "midi": 60,
                    "time": 549.7794120000211,
                    "velocity": 0.6614173228346457,
                    "duration": 0.5427240000000211
                },
                {
                    "name": "E3",
                    "midi": 52,
                    "time": 550.5030440000212,
                    "velocity": 0.5196850393700787,
                    "duration": 0.16583233333335556
                },
                {
                    "name": "G3",
                    "midi": 55,
                    "time": 550.5030440000212,
                    "velocity": 0.5196850393700787,
                    "duration": 0.16583233333335556
                },
                {
                    "name": "C3",
                    "midi": 48,
                    "time": 550.5030440000212,
                    "velocity": 0.4645669291338583,
                    "duration": 0.16583233333335556
                },
                {
                    "name": "C4",
                    "midi": 60,
                    "time": 550.5030440000212,
                    "velocity": 0.6220472440944882,
                    "duration": 0.16583233333335556
                },
                {
                    "name": "G3",
                    "midi": 55,
                    "time": 550.6839520000212,
                    "velocity": 0.5196850393700787,
                    "duration": 0.16583233333335556
                },
                {
                    "name": "C4",
                    "midi": 60,
                    "time": 550.6839520000212,
                    "velocity": 0.6220472440944882,
                    "duration": 0.16583233333335556
                },
                {
                    "name": "E3",
                    "midi": 52,
                    "time": 550.6839520000212,
                    "velocity": 0.5196850393700787,
                    "duration": 0.16583233333335556
                },
                {
                    "name": "C3",
                    "midi": 48,
                    "time": 550.6839520000212,
                    "velocity": 0.4645669291338583,
                    "duration": 0.16583233333335556
                },
                {
                    "name": "A#3",
                    "midi": 58,
                    "time": 550.8648600000213,
                    "velocity": 0.5433070866141733,
                    "duration": 0.5427240000000211
                },
                {
                    "name": "C3",
                    "midi": 48,
                    "time": 550.8648600000213,
                    "velocity": 0.4881889763779528,
                    "duration": 0.5427240000000211
                },
                {
                    "name": "G3",
                    "midi": 55,
                    "time": 550.8648600000213,
                    "velocity": 0.4881889763779528,
                    "duration": 0.5427240000000211
                },
                {
                    "name": "C4",
                    "midi": 60,
                    "time": 550.8648600000213,
                    "velocity": 0.6614173228346457,
                    "duration": 0.5427240000000211
                },
                {
                    "name": "F3",
                    "midi": 53,
                    "time": 551.5884920000213,
                    "velocity": 0.49606299212598426,
                    "duration": 0.16583233333335556
                },
                {
                    "name": "G#3",
                    "midi": 56,
                    "time": 551.5884920000213,
                    "velocity": 0.49606299212598426,
                    "duration": 0.16583233333335556
                },
                {
                    "name": "C4",
                    "midi": 60,
                    "time": 551.5884920000213,
                    "velocity": 0.6377952755905512,
                    "duration": 0.16583233333335556
                },
                {
                    "name": "C3",
                    "midi": 48,
                    "time": 551.5884920000213,
                    "velocity": 0.49606299212598426,
                    "duration": 0.16583233333335556
                },
                {
                    "name": "C#3",
                    "midi": 49,
                    "time": 551.9503080000213,
                    "velocity": 0.5433070866141733,
                    "duration": 0.16583233333335556
                },
                {
                    "name": "C#4",
                    "midi": 61,
                    "time": 551.9503080000213,
                    "velocity": 0.7007874015748031,
                    "duration": 0.16583233333335556
                },
                {
                    "name": "G3",
                    "midi": 55,
                    "time": 551.9503080000213,
                    "velocity": 0.5433070866141733,
                    "duration": 0.16583233333335556
                },
                {
                    "name": "F3",
                    "midi": 53,
                    "time": 551.9503080000213,
                    "velocity": 0.5433070866141733,
                    "duration": 0.16583233333335556
                },
                {
                    "name": "C#3",
                    "midi": 49,
                    "time": 552.3121240000213,
                    "velocity": 0.49606299212598426,
                    "duration": 0.16583233333335556
                },
                {
                    "name": "F3",
                    "midi": 53,
                    "time": 552.3121240000213,
                    "velocity": 0.49606299212598426,
                    "duration": 0.16583233333335556
                },
                {
                    "name": "G3",
                    "midi": 55,
                    "time": 552.3121240000213,
                    "velocity": 0.49606299212598426,
                    "duration": 0.16583233333335556
                },
                {
                    "name": "C#4",
                    "midi": 61,
                    "time": 552.3121240000213,
                    "velocity": 0.6377952755905512,
                    "duration": 0.16583233333335556
                },
                {
                    "name": "G#3",
                    "midi": 56,
                    "time": 552.6739400000213,
                    "velocity": 0.5196850393700787,
                    "duration": 0.16583233333335556
                },
                {
                    "name": "C4",
                    "midi": 60,
                    "time": 552.6739400000213,
                    "velocity": 0.6850393700787402,
                    "duration": 0.16583233333335556
                },
                {
                    "name": "C3",
                    "midi": 48,
                    "time": 552.6739400000213,
                    "velocity": 0.5196850393700787,
                    "duration": 0.16583233333335556
                },
                {
                    "name": "F3",
                    "midi": 53,
                    "time": 552.6739400000213,
                    "velocity": 0.5196850393700787,
                    "duration": 0.16583233333335556
                },
                {
                    "name": "G3",
                    "midi": 55,
                    "time": 553.0357560000213,
                    "velocity": 0.5196850393700787,
                    "duration": 0.16583233333335556
                },
                {
                    "name": "E3",
                    "midi": 52,
                    "time": 553.0357560000213,
                    "velocity": 0.5196850393700787,
                    "duration": 0.16583233333335556
                },
                {
                    "name": "C4",
                    "midi": 60,
                    "time": 553.0357560000213,
                    "velocity": 0.6850393700787402,
                    "duration": 0.16583233333335556
                },
                {
                    "name": "C3",
                    "midi": 48,
                    "time": 553.0357560000213,
                    "velocity": 0.5196850393700787,
                    "duration": 0.16583233333335556
                },
                {
                    "name": "E3",
                    "midi": 52,
                    "time": 553.3975720000212,
                    "velocity": 0.49606299212598426,
                    "duration": 0.16583233333335556
                },
                {
                    "name": "G3",
                    "midi": 55,
                    "time": 553.3975720000212,
                    "velocity": 0.49606299212598426,
                    "duration": 0.16583233333335556
                },
                {
                    "name": "C3",
                    "midi": 48,
                    "time": 553.3975720000212,
                    "velocity": 0.49606299212598426,
                    "duration": 0.16583233333335556
                },
                {
                    "name": "C4",
                    "midi": 60,
                    "time": 553.3975720000212,
                    "velocity": 0.6377952755905512,
                    "duration": 0.16583233333335556
                },
                {
                    "name": "G#4",
                    "midi": 68,
                    "time": 553.7593880000212,
                    "velocity": 0.49606299212598426,
                    "duration": 0.16583233333335556
                },
                {
                    "name": "C5",
                    "midi": 72,
                    "time": 553.7593880000212,
                    "velocity": 0.6377952755905512,
                    "duration": 0.16583233333335556
                },
                {
                    "name": "F4",
                    "midi": 65,
                    "time": 553.7593880000212,
                    "velocity": 0.49606299212598426,
                    "duration": 0.16583233333335556
                },
                {
                    "name": "C4",
                    "midi": 60,
                    "time": 553.7593880000212,
                    "velocity": 0.49606299212598426,
                    "duration": 0.16583233333335556
                },
                {
                    "name": "F4",
                    "midi": 65,
                    "time": 554.1212040000212,
                    "velocity": 0.5433070866141733,
                    "duration": 0.16583233333335556
                },
                {
                    "name": "C#4",
                    "midi": 61,
                    "time": 554.1212040000212,
                    "velocity": 0.5433070866141733,
                    "duration": 0.16583233333335556
                },
                {
                    "name": "C#5",
                    "midi": 73,
                    "time": 554.1212040000212,
                    "velocity": 0.7007874015748031,
                    "duration": 0.16583233333335556
                },
                {
                    "name": "G4",
                    "midi": 67,
                    "time": 554.1212040000212,
                    "velocity": 0.5433070866141733,
                    "duration": 0.16583233333335556
                },
                {
                    "name": "F4",
                    "midi": 65,
                    "time": 554.4830200000212,
                    "velocity": 0.49606299212598426,
                    "duration": 0.16583233333335556
                },
                {
                    "name": "C#4",
                    "midi": 61,
                    "time": 554.4830200000212,
                    "velocity": 0.49606299212598426,
                    "duration": 0.16583233333335556
                },
                {
                    "name": "G4",
                    "midi": 67,
                    "time": 554.4830200000212,
                    "velocity": 0.49606299212598426,
                    "duration": 0.16583233333335556
                },
                {
                    "name": "C#5",
                    "midi": 73,
                    "time": 554.4830200000212,
                    "velocity": 0.6377952755905512,
                    "duration": 0.16583233333335556
                },
                {
                    "name": "C5",
                    "midi": 72,
                    "time": 554.8448360000211,
                    "velocity": 0.6850393700787402,
                    "duration": 0.16583233333335556
                },
                {
                    "name": "F4",
                    "midi": 65,
                    "time": 554.8448360000211,
                    "velocity": 0.5196850393700787,
                    "duration": 0.16583233333335556
                },
                {
                    "name": "C4",
                    "midi": 60,
                    "time": 554.8448360000211,
                    "velocity": 0.5196850393700787,
                    "duration": 0.16583233333335556
                },
                {
                    "name": "G#4",
                    "midi": 68,
                    "time": 554.8448360000211,
                    "velocity": 0.5196850393700787,
                    "duration": 0.16583233333335556
                },
                {
                    "name": "C4",
                    "midi": 60,
                    "time": 555.2066520000211,
                    "velocity": 0.5196850393700787,
                    "duration": 0.16583233333335556
                },
                {
                    "name": "E4",
                    "midi": 64,
                    "time": 555.2066520000211,
                    "velocity": 0.5196850393700787,
                    "duration": 0.16583233333335556
                },
                {
                    "name": "C5",
                    "midi": 72,
                    "time": 555.2066520000211,
                    "velocity": 0.6850393700787402,
                    "duration": 0.16583233333335556
                },
                {
                    "name": "G4",
                    "midi": 67,
                    "time": 555.2066520000211,
                    "velocity": 0.5196850393700787,
                    "duration": 0.16583233333335556
                },
                {
                    "name": "E4",
                    "midi": 64,
                    "time": 555.5684680000211,
                    "velocity": 0.49606299212598426,
                    "duration": 0.16583233333335556
                },
                {
                    "name": "G4",
                    "midi": 67,
                    "time": 555.5684680000211,
                    "velocity": 0.49606299212598426,
                    "duration": 0.16583233333335556
                },
                {
                    "name": "C4",
                    "midi": 60,
                    "time": 555.5684680000211,
                    "velocity": 0.49606299212598426,
                    "duration": 0.16583233333335556
                },
                {
                    "name": "C5",
                    "midi": 72,
                    "time": 555.5684680000211,
                    "velocity": 0.6377952755905512,
                    "duration": 0.16583233333335556
                },
                {
                    "name": "G#5",
                    "midi": 80,
                    "time": 555.9302840000211,
                    "velocity": 0.5669291338582677,
                    "duration": 0.16583233333335556
                },
                {
                    "name": "C6",
                    "midi": 84,
                    "time": 555.9302840000211,
                    "velocity": 0.7322834645669292,
                    "duration": 0.16583233333335556
                },
                {
                    "name": "F5",
                    "midi": 77,
                    "time": 555.9302840000211,
                    "velocity": 0.5669291338582677,
                    "duration": 0.16583233333335556
                },
                {
                    "name": "C5",
                    "midi": 72,
                    "time": 555.9302840000211,
                    "velocity": 0.5669291338582677,
                    "duration": 0.16583233333335556
                },
                {
                    "name": "G5",
                    "midi": 79,
                    "time": 556.292100000021,
                    "velocity": 0.6220472440944882,
                    "duration": 0.16583233333335556
                },
                {
                    "name": "C#5",
                    "midi": 73,
                    "time": 556.292100000021,
                    "velocity": 0.6220472440944882,
                    "duration": 0.16583233333335556
                },
                {
                    "name": "F5",
                    "midi": 77,
                    "time": 556.292100000021,
                    "velocity": 0.6220472440944882,
                    "duration": 0.16583233333335556
                },
                {
                    "name": "C#6",
                    "midi": 85,
                    "time": 556.292100000021,
                    "velocity": 0.7952755905511811,
                    "duration": 0.16583233333335556
                },
                {
                    "name": "C#6",
                    "midi": 85,
                    "time": 556.653916000021,
                    "velocity": 0.7322834645669292,
                    "duration": 0.16583233333335556
                },
                {
                    "name": "C#5",
                    "midi": 73,
                    "time": 556.653916000021,
                    "velocity": 0.5669291338582677,
                    "duration": 0.16583233333335556
                },
                {
                    "name": "F5",
                    "midi": 77,
                    "time": 556.653916000021,
                    "velocity": 0.5669291338582677,
                    "duration": 0.16583233333335556
                },
                {
                    "name": "G5",
                    "midi": 79,
                    "time": 556.653916000021,
                    "velocity": 0.5669291338582677,
                    "duration": 0.16583233333335556
                },
                {
                    "name": "C6",
                    "midi": 84,
                    "time": 557.015732000021,
                    "velocity": 0.7795275590551181,
                    "duration": 0.16583233333335556
                },
                {
                    "name": "G#5",
                    "midi": 80,
                    "time": 557.015732000021,
                    "velocity": 0.5984251968503937,
                    "duration": 0.16583233333335556
                },
                {
                    "name": "F5",
                    "midi": 77,
                    "time": 557.015732000021,
                    "velocity": 0.5984251968503937,
                    "duration": 0.16583233333335556
                },
                {
                    "name": "C5",
                    "midi": 72,
                    "time": 557.015732000021,
                    "velocity": 0.5984251968503937,
                    "duration": 0.16583233333335556
                },
                {
                    "name": "C6",
                    "midi": 84,
                    "time": 557.377548000021,
                    "velocity": 0.7795275590551181,
                    "duration": 0.16583233333335556
                },
                {
                    "name": "C5",
                    "midi": 72,
                    "time": 557.377548000021,
                    "velocity": 0.5905511811023622,
                    "duration": 0.16583233333335556
                },
                {
                    "name": "E5",
                    "midi": 76,
                    "time": 557.377548000021,
                    "velocity": 0.5905511811023622,
                    "duration": 0.16583233333335556
                },
                {
                    "name": "G5",
                    "midi": 79,
                    "time": 557.377548000021,
                    "velocity": 0.5905511811023622,
                    "duration": 0.16583233333335556
                },
                {
                    "name": "C6",
                    "midi": 84,
                    "time": 557.7393640000209,
                    "velocity": 0.7322834645669292,
                    "duration": 0.16583233333335556
                },
                {
                    "name": "E5",
                    "midi": 76,
                    "time": 557.7393640000209,
                    "velocity": 0.5669291338582677,
                    "duration": 0.16583233333335556
                },
                {
                    "name": "C5",
                    "midi": 72,
                    "time": 557.7393640000209,
                    "velocity": 0.5669291338582677,
                    "duration": 0.16583233333335556
                },
                {
                    "name": "G5",
                    "midi": 79,
                    "time": 557.7393640000209,
                    "velocity": 0.5669291338582677,
                    "duration": 0.16583233333335556
                },
                {
                    "name": "C4",
                    "midi": 60,
                    "time": 557.920272000021,
                    "velocity": 0.5039370078740157,
                    "duration": 0.09045400000002246
                },
                {
                    "name": "G#3",
                    "midi": 56,
                    "time": 558.010726000021,
                    "velocity": 0.4330708661417323,
                    "duration": 0.09045400000002246
                },
                {
                    "name": "C4",
                    "midi": 60,
                    "time": 558.101180000021,
                    "velocity": 0.4645669291338583,
                    "duration": 0.09045400000002246
                },
                {
                    "name": "G#3",
                    "midi": 56,
                    "time": 558.191634000021,
                    "velocity": 0.3937007874015748,
                    "duration": 0.09045400000002246
                },
                {
                    "name": "C4",
                    "midi": 60,
                    "time": 558.2820880000211,
                    "velocity": 0.4330708661417323,
                    "duration": 0.09045400000002246
                },
                {
                    "name": "G#3",
                    "midi": 56,
                    "time": 558.3725420000211,
                    "velocity": 0.3779527559055118,
                    "duration": 0.09045400000002246
                },
                {
                    "name": "C4",
                    "midi": 60,
                    "time": 558.4629960000211,
                    "velocity": 0.33858267716535434,
                    "duration": 0.09045400000002246
                },
                {
                    "name": "G#3",
                    "midi": 56,
                    "time": 558.5534500000211,
                    "velocity": 0.29133858267716534,
                    "duration": 0.09045400000002246
                },
                {
                    "name": "C4",
                    "midi": 60,
                    "time": 558.6439040000212,
                    "velocity": 0.33858267716535434,
                    "duration": 0.09045400000002246
                },
                {
                    "name": "G#3",
                    "midi": 56,
                    "time": 558.7343580000212,
                    "velocity": 0.29133858267716534,
                    "duration": 0.09045400000002246
                },
                {
                    "name": "C4",
                    "midi": 60,
                    "time": 558.8248120000212,
                    "velocity": 0.33858267716535434,
                    "duration": 0.09045400000002246
                },
                {
                    "name": "G#3",
                    "midi": 56,
                    "time": 558.9152660000212,
                    "velocity": 0.28346456692913385,
                    "duration": 0.09045400000002246
                },
                {
                    "name": "C4",
                    "midi": 60,
                    "time": 559.0057200000213,
                    "velocity": 0.33858267716535434,
                    "duration": 0.09045400000002246
                },
                {
                    "name": "G#3",
                    "midi": 56,
                    "time": 559.0961740000213,
                    "velocity": 0.28346456692913385,
                    "duration": 0.09045400000002246
                },
                {
                    "name": "C4",
                    "midi": 60,
                    "time": 559.1866280000213,
                    "velocity": 0.33070866141732286,
                    "duration": 0.09045400000002246
                },
                {
                    "name": "G#3",
                    "midi": 56,
                    "time": 559.2770820000213,
                    "velocity": 0.28346456692913385,
                    "duration": 0.09045400000002246
                },
                {
                    "name": "C4",
                    "midi": 60,
                    "time": 559.3675360000213,
                    "velocity": 0.33070866141732286,
                    "duration": 0.09045400000002246
                },
                {
                    "name": "G#3",
                    "midi": 56,
                    "time": 559.4579900000214,
                    "velocity": 0.2755905511811024,
                    "duration": 0.09045400000002246
                },
                {
                    "name": "C4",
                    "midi": 60,
                    "time": 559.5484440000214,
                    "velocity": 0.33070866141732286,
                    "duration": 0.09045400000002246
                },
                {
                    "name": "G#3",
                    "midi": 56,
                    "time": 559.6388980000214,
                    "velocity": 0.2755905511811024,
                    "duration": 0.09045400000002246
                },
                {
                    "name": "C4",
                    "midi": 60,
                    "time": 559.7293520000214,
                    "velocity": 0.3228346456692913,
                    "duration": 0.09045400000002246
                },
                {
                    "name": "G#3",
                    "midi": 56,
                    "time": 559.8198060000215,
                    "velocity": 0.2755905511811024,
                    "duration": 0.09045400000002246
                },
                {
                    "name": "C4",
                    "midi": 60,
                    "time": 559.9102600000215,
                    "velocity": 0.3228346456692913,
                    "duration": 0.09045400000002246
                },
                {
                    "name": "G#3",
                    "midi": 56,
                    "time": 560.0007140000215,
                    "velocity": 0.2755905511811024,
                    "duration": 0.09045400000002246
                },
                {
                    "name": "C4",
                    "midi": 60,
                    "time": 560.0911680000215,
                    "velocity": 0.3228346456692913,
                    "duration": 0.09045400000002246
                },
                {
                    "name": "G#3",
                    "midi": 56,
                    "time": 560.1816220000215,
                    "velocity": 0.2755905511811024,
                    "duration": 0.09045400000002246
                },
                {
                    "name": "C4",
                    "midi": 60,
                    "time": 560.2720760000216,
                    "velocity": 0.3228346456692913,
                    "duration": 0.09045400000002246
                },
                {
                    "name": "G#3",
                    "midi": 56,
                    "time": 560.3625300000216,
                    "velocity": 0.2677165354330709,
                    "duration": 0.09045400000002246
                },
                {
                    "name": "C4",
                    "midi": 60,
                    "time": 560.4529840000216,
                    "velocity": 0.31496062992125984,
                    "duration": 0.09045400000002246
                },
                {
                    "name": "G#3",
                    "midi": 56,
                    "time": 560.5434380000216,
                    "velocity": 0.2677165354330709,
                    "duration": 0.09045400000002246
                },
                {
                    "name": "C4",
                    "midi": 60,
                    "time": 560.6338920000217,
                    "velocity": 0.31496062992125984,
                    "duration": 0.09045400000002246
                },
                {
                    "name": "G#3",
                    "midi": 56,
                    "time": 560.7243460000217,
                    "velocity": 0.2677165354330709,
                    "duration": 0.09045400000002246
                },
                {
                    "name": "C4",
                    "midi": 60,
                    "time": 560.8148000000217,
                    "velocity": 0.31496062992125984,
                    "duration": 0.09045400000002246
                },
                {
                    "name": "G#3",
                    "midi": 56,
                    "time": 560.9052540000217,
                    "velocity": 0.25984251968503935,
                    "duration": 0.09045400000002246
                },
                {
                    "name": "C4",
                    "midi": 60,
                    "time": 560.9957080000218,
                    "velocity": 0.31496062992125984,
                    "duration": 0.09045400000002246
                },
                {
                    "name": "G#3",
                    "midi": 56,
                    "time": 561.0861620000218,
                    "velocity": 0.25984251968503935,
                    "duration": 0.09045400000002246
                },
                {
                    "name": "C4",
                    "midi": 60,
                    "time": 561.1766160000218,
                    "velocity": 0.31496062992125984,
                    "duration": 0.09045400000002246
                },
                {
                    "name": "G#3",
                    "midi": 56,
                    "time": 561.2670700000218,
                    "velocity": 0.25984251968503935,
                    "duration": 0.09045400000002246
                },
                {
                    "name": "C4",
                    "midi": 60,
                    "time": 561.3575240000218,
                    "velocity": 0.30708661417322836,
                    "duration": 0.09045400000002246
                },
                {
                    "name": "G#3",
                    "midi": 56,
                    "time": 561.4479780000219,
                    "velocity": 0.25984251968503935,
                    "duration": 0.09045400000002246
                },
                {
                    "name": "C4",
                    "midi": 60,
                    "time": 561.5384320000219,
                    "velocity": 0.30708661417322836,
                    "duration": 0.09045400000002246
                },
                {
                    "name": "G#3",
                    "midi": 56,
                    "time": 561.6288860000219,
                    "velocity": 0.25984251968503935,
                    "duration": 0.09045400000002246
                },
                {
                    "name": "C4",
                    "midi": 60,
                    "time": 561.7193400000219,
                    "velocity": 0.30708661417322836,
                    "duration": 0.09045400000002246
                },
                {
                    "name": "G#3",
                    "midi": 56,
                    "time": 561.809794000022,
                    "velocity": 0.25196850393700787,
                    "duration": 0.09045400000002246
                },
                {
                    "name": "C4",
                    "midi": 60,
                    "time": 561.900248000022,
                    "velocity": 0.2992125984251969,
                    "duration": 0.09045400000002246
                },
                {
                    "name": "G#3",
                    "midi": 56,
                    "time": 561.990702000022,
                    "velocity": 0.25196850393700787,
                    "duration": 0.09045400000002246
                },
                {
                    "name": "C4",
                    "midi": 60,
                    "time": 562.081156000022,
                    "velocity": 0.2992125984251969,
                    "duration": 0.09045400000002246
                },
                {
                    "name": "G#3",
                    "midi": 56,
                    "time": 562.171610000022,
                    "velocity": 0.25196850393700787,
                    "duration": 0.09045400000002246
                },
                {
                    "name": "C4",
                    "midi": 60,
                    "time": 562.2620640000221,
                    "velocity": 0.2992125984251969,
                    "duration": 0.09045400000002246
                },
                {
                    "name": "G#3",
                    "midi": 56,
                    "time": 562.3525180000221,
                    "velocity": 0.25196850393700787,
                    "duration": 0.09045400000002246
                },
                {
                    "name": "C4",
                    "midi": 60,
                    "time": 562.4429720000221,
                    "velocity": 0.29133858267716534,
                    "duration": 0.09045400000002246
                },
                {
                    "name": "G#3",
                    "midi": 56,
                    "time": 562.5334260000221,
                    "velocity": 0.2440944881889764,
                    "duration": 0.09045400000002246
                },
                {
                    "name": "C4",
                    "midi": 60,
                    "time": 562.6238800000222,
                    "velocity": 0.29133858267716534,
                    "duration": 0.09045400000002246
                },
                {
                    "name": "G#3",
                    "midi": 56,
                    "time": 562.7143340000222,
                    "velocity": 0.2440944881889764,
                    "duration": 0.09045400000002246
                },
                {
                    "name": "C5",
                    "midi": 72,
                    "time": 562.8047880000222,
                    "velocity": 0.29133858267716534,
                    "duration": 0.09045400000002246
                },
                {
                    "name": "G#4",
                    "midi": 68,
                    "time": 562.8952420000222,
                    "velocity": 0.2440944881889764,
                    "duration": 0.09045400000002246
                },
                {
                    "name": "C5",
                    "midi": 72,
                    "time": 562.9856960000222,
                    "velocity": 0.29133858267716534,
                    "duration": 0.09045400000002246
                },
                {
                    "name": "G#4",
                    "midi": 68,
                    "time": 563.0761500000223,
                    "velocity": 0.2440944881889764,
                    "duration": 0.09045400000002246
                },
                {
                    "name": "C5",
                    "midi": 72,
                    "time": 563.1666040000223,
                    "velocity": 0.28346456692913385,
                    "duration": 0.09045400000002246
                },
                {
                    "name": "G#4",
                    "midi": 68,
                    "time": 563.2570580000223,
                    "velocity": 0.2440944881889764,
                    "duration": 0.09045400000002246
                },
                {
                    "name": "C5",
                    "midi": 72,
                    "time": 563.3475120000223,
                    "velocity": 0.28346456692913385,
                    "duration": 0.09045400000002246
                },
                {
                    "name": "G#4",
                    "midi": 68,
                    "time": 563.4379660000224,
                    "velocity": 0.23622047244094488,
                    "duration": 0.09045400000002246
                },
                {
                    "name": "C5",
                    "midi": 72,
                    "time": 563.5284200000224,
                    "velocity": 0.28346456692913385,
                    "duration": 0.09045400000002246
                },
                {
                    "name": "G#4",
                    "midi": 68,
                    "time": 563.6188740000224,
                    "velocity": 0.23622047244094488,
                    "duration": 0.09045400000002246
                },
                {
                    "name": "C5",
                    "midi": 72,
                    "time": 563.7093280000224,
                    "velocity": 0.2755905511811024,
                    "duration": 0.09045400000002246
                },
                {
                    "name": "G#4",
                    "midi": 68,
                    "time": 563.7997820000224,
                    "velocity": 0.23622047244094488,
                    "duration": 0.09045400000002246
                },
                {
                    "name": "C5",
                    "midi": 72,
                    "time": 563.8902360000225,
                    "velocity": 0.2755905511811024,
                    "duration": 0.09045400000002246
                },
                {
                    "name": "G#4",
                    "midi": 68,
                    "time": 563.9806900000225,
                    "velocity": 0.23622047244094488,
                    "duration": 0.09045400000002246
                },
                {
                    "name": "C5",
                    "midi": 72,
                    "time": 564.0711440000225,
                    "velocity": 0.2755905511811024,
                    "duration": 0.09045400000002246
                },
                {
                    "name": "G#4",
                    "midi": 68,
                    "time": 564.1615980000225,
                    "velocity": 0.23622047244094488,
                    "duration": 0.09045400000002246
                },
                {
                    "name": "C5",
                    "midi": 72,
                    "time": 564.2520520000226,
                    "velocity": 0.2677165354330709,
                    "duration": 0.09045400000002246
                },
                {
                    "name": "G#4",
                    "midi": 68,
                    "time": 564.3425060000226,
                    "velocity": 0.2283464566929134,
                    "duration": 0.09045400000002246
                },
                {
                    "name": "C5",
                    "midi": 72,
                    "time": 564.4329600000226,
                    "velocity": 0.2677165354330709,
                    "duration": 0.09045400000002246
                },
                {
                    "name": "G#4",
                    "midi": 68,
                    "time": 564.5234140000226,
                    "velocity": 0.2283464566929134,
                    "duration": 0.09045400000002246
                },
                {
                    "name": "C5",
                    "midi": 72,
                    "time": 564.6138680000226,
                    "velocity": 0.2677165354330709,
                    "duration": 0.09045400000002246
                },
                {
                    "name": "G#4",
                    "midi": 68,
                    "time": 564.7043220000227,
                    "velocity": 0.2204724409448819,
                    "duration": 0.09045400000002246
                },
                {
                    "name": "C5",
                    "midi": 72,
                    "time": 564.7947760000227,
                    "velocity": 0.25984251968503935,
                    "duration": 0.09045400000002246
                },
                {
                    "name": "G#4",
                    "midi": 68,
                    "time": 564.8852300000227,
                    "velocity": 0.2125984251968504,
                    "duration": 0.09045400000002246
                },
                {
                    "name": "C5",
                    "midi": 72,
                    "time": 564.9756840000227,
                    "velocity": 0.25984251968503935,
                    "duration": 0.09045400000002246
                },
                {
                    "name": "G#4",
                    "midi": 68,
                    "time": 565.0661380000228,
                    "velocity": 0.2125984251968504,
                    "duration": 0.09045400000002246
                },
                {
                    "name": "C5",
                    "midi": 72,
                    "time": 565.1565920000228,
                    "velocity": 0.25196850393700787,
                    "duration": 0.09045400000002246
                },
                {
                    "name": "G#4",
                    "midi": 68,
                    "time": 565.2470460000228,
                    "velocity": 0.2125984251968504,
                    "duration": 0.09045400000002246
                },
                {
                    "name": "C5",
                    "midi": 72,
                    "time": 565.3375000000228,
                    "velocity": 0.2440944881889764,
                    "duration": 0.09045400000002246
                },
                {
                    "name": "G#4",
                    "midi": 68,
                    "time": 565.4279540000229,
                    "velocity": 0.2047244094488189,
                    "duration": 0.09045400000002246
                },
                {
                    "name": "C5",
                    "midi": 72,
                    "time": 565.5184080000229,
                    "velocity": 0.2440944881889764,
                    "duration": 0.09045400000002246
                },
                {
                    "name": "G#4",
                    "midi": 68,
                    "time": 565.6088620000229,
                    "velocity": 0.2047244094488189,
                    "duration": 0.09045400000002246
                },
                {
                    "name": "C5",
                    "midi": 72,
                    "time": 565.6993160000229,
                    "velocity": 0.2440944881889764,
                    "duration": 0.09045400000002246
                },
                {
                    "name": "G#4",
                    "midi": 68,
                    "time": 565.7897700000229,
                    "velocity": 0.1968503937007874,
                    "duration": 0.09045400000002246
                },
                {
                    "name": "C5",
                    "midi": 72,
                    "time": 565.880224000023,
                    "velocity": 0.23622047244094488,
                    "duration": 0.09045400000002246
                },
                {
                    "name": "G#4",
                    "midi": 68,
                    "time": 565.970678000023,
                    "velocity": 0.1968503937007874,
                    "duration": 0.09045400000002246
                },
                {
                    "name": "C5",
                    "midi": 72,
                    "time": 566.061132000023,
                    "velocity": 0.2283464566929134,
                    "duration": 0.09045400000002246
                },
                {
                    "name": "G#4",
                    "midi": 68,
                    "time": 566.151586000023,
                    "velocity": 0.1968503937007874,
                    "duration": 0.09045400000002246
                },
                {
                    "name": "C5",
                    "midi": 72,
                    "time": 566.242040000023,
                    "velocity": 0.2283464566929134,
                    "duration": 0.09045400000002246
                },
                {
                    "name": "G#4",
                    "midi": 68,
                    "time": 566.3324940000231,
                    "velocity": 0.1889763779527559,
                    "duration": 0.09045400000002246
                },
                {
                    "name": "C5",
                    "midi": 72,
                    "time": 566.4229480000231,
                    "velocity": 0.2283464566929134,
                    "duration": 0.09045400000002246
                },
                {
                    "name": "G#4",
                    "midi": 68,
                    "time": 566.5134020000231,
                    "velocity": 0.1889763779527559,
                    "duration": 0.09045400000002246
                },
                {
                    "name": "C5",
                    "midi": 72,
                    "time": 566.6038560000231,
                    "velocity": 0.2204724409448819,
                    "duration": 0.09045400000002246
                },
                {
                    "name": "G#4",
                    "midi": 68,
                    "time": 566.6943100000232,
                    "velocity": 0.18110236220472442,
                    "duration": 0.09045400000002246
                },
                {
                    "name": "C5",
                    "midi": 72,
                    "time": 566.7847640000232,
                    "velocity": 0.2125984251968504,
                    "duration": 0.09045400000002246
                },
                {
                    "name": "G#4",
                    "midi": 68,
                    "time": 566.8752180000232,
                    "velocity": 0.18110236220472442,
                    "duration": 0.09045400000002246
                },
                {
                    "name": "C5",
                    "midi": 72,
                    "time": 566.9656720000232,
                    "velocity": 0.2047244094488189,
                    "duration": 0.09045400000002246
                },
                {
                    "name": "G#4",
                    "midi": 68,
                    "time": 567.0561260000233,
                    "velocity": 0.1732283464566929,
                    "duration": 0.09045400000002246
                },
                {
                    "name": "C5",
                    "midi": 72,
                    "time": 567.1465800000233,
                    "velocity": 0.2047244094488189,
                    "duration": 0.09045400000002246
                },
                {
                    "name": "G#4",
                    "midi": 68,
                    "time": 567.2370340000233,
                    "velocity": 0.1732283464566929,
                    "duration": 0.09045400000002246
                },
                {
                    "name": "C5",
                    "midi": 72,
                    "time": 567.3274880000233,
                    "velocity": 0.1968503937007874,
                    "duration": 0.09045400000002246
                },
                {
                    "name": "G#4",
                    "midi": 68,
                    "time": 567.4179420000233,
                    "velocity": 0.16535433070866143,
                    "duration": 0.09045400000002246
                },
                {
                    "name": "C5",
                    "midi": 72,
                    "time": 567.5083960000234,
                    "velocity": 0.1889763779527559,
                    "duration": 0.09045400000002246
                },
                {
                    "name": "G#4",
                    "midi": 68,
                    "time": 567.5988500000234,
                    "velocity": 0.15748031496062992,
                    "duration": 0.09045400000002246
                },
                {
                    "name": "C5",
                    "midi": 72,
                    "time": 567.6893040000234,
                    "velocity": 0.18110236220472442,
                    "duration": 0.09045400000002246
                },
                {
                    "name": "G#4",
                    "midi": 68,
                    "time": 567.7797580000234,
                    "velocity": 0.15748031496062992,
                    "duration": 0.09045400000002246
                },
                {
                    "name": "C5",
                    "midi": 72,
                    "time": 567.8702120000235,
                    "velocity": 0.18110236220472442,
                    "duration": 0.09045400000002246
                },
                {
                    "name": "G#4",
                    "midi": 68,
                    "time": 567.9606660000235,
                    "velocity": 0.14960629921259844,
                    "duration": 0.09045400000002246
                },
                {
                    "name": "C5",
                    "midi": 72,
                    "time": 568.0511200000235,
                    "velocity": 0.1732283464566929,
                    "duration": 0.09045400000002246
                },
                {
                    "name": "G#4",
                    "midi": 68,
                    "time": 568.1415740000235,
                    "velocity": 0.14173228346456693,
                    "duration": 0.09045400000002246
                },
                {
                    "name": "C5",
                    "midi": 72,
                    "time": 568.2320280000235,
                    "velocity": 0.16535433070866143,
                    "duration": 0.09045400000002246
                },
                {
                    "name": "G#4",
                    "midi": 68,
                    "time": 568.3224820000236,
                    "velocity": 0.14173228346456693,
                    "duration": 0.09045400000002246
                },
                {
                    "name": "C5",
                    "midi": 72,
                    "time": 568.4129360000236,
                    "velocity": 0.16535433070866143,
                    "duration": 0.09045400000002246
                },
                {
                    "name": "G#4",
                    "midi": 68,
                    "time": 568.5033900000236,
                    "velocity": 0.13385826771653545,
                    "duration": 0.09045400000002246
                },
                {
                    "name": "C5",
                    "midi": 72,
                    "time": 568.5938440000236,
                    "velocity": 0.15748031496062992,
                    "duration": 0.09045400000002246
                },
                {
                    "name": "G#4",
                    "midi": 68,
                    "time": 568.6842980000237,
                    "velocity": 0.13385826771653545,
                    "duration": 0.09045400000002246
                },
                {
                    "name": "C5",
                    "midi": 72,
                    "time": 568.7747520000237,
                    "velocity": 0.14173228346456693,
                    "duration": 2.1708959999999706
                },
                {
                    "name": "G#4",
                    "midi": 68,
                    "time": 568.7747520000237,
                    "velocity": 0.11811023622047244,
                    "duration": 2.1708959999999706
                }
            ],
            "controlChanges": {
                "7": [
                    {
                        "number": 7,
                        "time": 0,
                        "value": 0.7874015748031497
                    }
                ],
                "10": [
                    {
                        "number": 10,
                        "time": 0,
                        "value": 0.5039370078740157
                    }
                ],
                "91": [
                    {
                        "number": 91,
                        "time": 0,
                        "value": 1
                    }
                ]
            },
            "id": 1,
            "name": "Piano right",
            "instrumentNumber": 0,
            "instrument": "acoustic grand piano",
            "instrumentFamily": "piano",
            "channelNumber": 0,
            "isPercussion": false
        },
        {
            "startTime": 1.628172,
            "duration": 570.9456480000172,
            "length": 3170,
            "notes": [
                {
                    "name": "C2",
                    "midi": 36,
                    "time": 1.628172,
                    "velocity": 0.2125984251968504,
                    "duration": 0.45226999999999973
                },
                {
                    "name": "G#1",
                    "midi": 32,
                    "time": 2.0804419999999997,
                    "velocity": 0.1968503937007874,
                    "duration": 0.09045399999999981
                },
                {
                    "name": "F1",
                    "midi": 29,
                    "time": 2.1708959999999995,
                    "velocity": 0.1732283464566929,
                    "duration": 1.6281719999999997
                },
                {
                    "name": "G#1",
                    "midi": 32,
                    "time": 3.7990679999999992,
                    "velocity": 0.2125984251968504,
                    "duration": 0.4522699999999995
                },
                {
                    "name": "C2",
                    "midi": 36,
                    "time": 4.251337999999999,
                    "velocity": 0.1889763779527559,
                    "duration": 0.09045400000000026
                },
                {
                    "name": "F2",
                    "midi": 41,
                    "time": 4.341791999999999,
                    "velocity": 0.2125984251968504,
                    "duration": 0.5427239999999998
                },
                {
                    "name": "G#2",
                    "midi": 44,
                    "time": 4.884515999999999,
                    "velocity": 0.2125984251968504,
                    "duration": 0.4522699999999995
                },
                {
                    "name": "C3",
                    "midi": 48,
                    "time": 5.336785999999998,
                    "velocity": 0.1889763779527559,
                    "duration": 0.09045400000000026
                },
                {
                    "name": "F3",
                    "midi": 53,
                    "time": 5.4272399999999985,
                    "velocity": 0.2125984251968504,
                    "duration": 0.5351861666666666
                },
                {
                    "name": "G#3",
                    "midi": 56,
                    "time": 5.969963999999998,
                    "velocity": 0.2047244094488189,
                    "duration": 0.5427239999999998
                },
                {
                    "name": "G3",
                    "midi": 55,
                    "time": 6.512687999999998,
                    "velocity": 0.2047244094488189,
                    "duration": 1.0854480000000004
                },
                {
                    "name": "C4",
                    "midi": 60,
                    "time": 6.512687999999998,
                    "velocity": 0.2047244094488189,
                    "duration": 1.0854480000000004
                },
                {
                    "name": "E3",
                    "midi": 52,
                    "time": 6.512687999999998,
                    "velocity": 0.2047244094488189,
                    "duration": 1.0854480000000004
                },
                {
                    "name": "F3",
                    "midi": 53,
                    "time": 7.5981359999999984,
                    "velocity": 0.2047244094488189,
                    "duration": 1.0854479999999995
                },
                {
                    "name": "B3",
                    "midi": 59,
                    "time": 7.5981359999999984,
                    "velocity": 0.2047244094488189,
                    "duration": 1.0854479999999995
                },
                {
                    "name": "G#3",
                    "midi": 56,
                    "time": 7.5981359999999984,
                    "velocity": 0.2047244094488189,
                    "duration": 1.0854479999999995
                },
                {
                    "name": "G3",
                    "midi": 55,
                    "time": 8.683583999999998,
                    "velocity": 0.1732283464566929,
                    "duration": 0.36181599999999925
                },
                {
                    "name": "E3",
                    "midi": 52,
                    "time": 8.683583999999998,
                    "velocity": 0.14960629921259844,
                    "duration": 0.36181599999999925
                },
                {
                    "name": "C4",
                    "midi": 60,
                    "time": 8.683583999999998,
                    "velocity": 0.2047244094488189,
                    "duration": 0.36181599999999925
                },
                {
                    "name": "C#2",
                    "midi": 37,
                    "time": 10.311755999999997,
                    "velocity": 0.2125984251968504,
                    "duration": 0.4522700000000004
                },
                {
                    "name": "A#1",
                    "midi": 34,
                    "time": 10.764025999999998,
                    "velocity": 0.1968503937007874,
                    "duration": 0.09045399999999937
                },
                {
                    "name": "F#1",
                    "midi": 30,
                    "time": 10.854479999999997,
                    "velocity": 0.1732283464566929,
                    "duration": 1.6281719999999993
                },
                {
                    "name": "A#1",
                    "midi": 34,
                    "time": 12.482651999999996,
                    "velocity": 0.2125984251968504,
                    "duration": 0.4522700000000004
                },
                {
                    "name": "C#2",
                    "midi": 37,
                    "time": 12.934921999999997,
                    "velocity": 0.1889763779527559,
                    "duration": 0.09045399999999937
                },
                {
                    "name": "F#2",
                    "midi": 42,
                    "time": 13.025375999999996,
                    "velocity": 0.2125984251968504,
                    "duration": 0.5427239999999998
                },
                {
                    "name": "A#2",
                    "midi": 46,
                    "time": 13.568099999999996,
                    "velocity": 0.2125984251968504,
                    "duration": 0.4522700000000004
                },
                {
                    "name": "C#3",
                    "midi": 49,
                    "time": 14.020369999999996,
                    "velocity": 0.1889763779527559,
                    "duration": 0.09045399999999937
                },
                {
                    "name": "F#3",
                    "midi": 54,
                    "time": 14.110823999999996,
                    "velocity": 0.2283464566929134,
                    "duration": 0.5427239999999998
                },
                {
                    "name": "A#3",
                    "midi": 58,
                    "time": 14.653547999999995,
                    "velocity": 0.2047244094488189,
                    "duration": 0.5427239999999998
                },
                {
                    "name": "F3",
                    "midi": 53,
                    "time": 15.196271999999995,
                    "velocity": 0.2047244094488189,
                    "duration": 1.0854480000000013
                },
                {
                    "name": "C#4",
                    "midi": 61,
                    "time": 15.196271999999995,
                    "velocity": 0.2047244094488189,
                    "duration": 1.0854480000000013
                },
                {
                    "name": "G#3",
                    "midi": 56,
                    "time": 15.196271999999995,
                    "velocity": 0.2047244094488189,
                    "duration": 1.0854480000000013
                },
                {
                    "name": "A3",
                    "midi": 57,
                    "time": 16.281719999999996,
                    "velocity": 0.2047244094488189,
                    "duration": 1.0854479999999995
                },
                {
                    "name": "C4",
                    "midi": 60,
                    "time": 16.281719999999996,
                    "velocity": 0.2047244094488189,
                    "duration": 1.0854479999999995
                },
                {
                    "name": "F#3",
                    "midi": 54,
                    "time": 16.281719999999996,
                    "velocity": 0.2047244094488189,
                    "duration": 1.0854479999999995
                },
                {
                    "name": "F3",
                    "midi": 53,
                    "time": 17.367167999999996,
                    "velocity": 0.14960629921259844,
                    "duration": 0.361816000000001
                },
                {
                    "name": "G#3",
                    "midi": 56,
                    "time": 17.367167999999996,
                    "velocity": 0.1732283464566929,
                    "duration": 0.361816000000001
                },
                {
                    "name": "C#4",
                    "midi": 61,
                    "time": 17.367167999999996,
                    "velocity": 0.2047244094488189,
                    "duration": 0.361816000000001
                },
                {
                    "name": "G4",
                    "midi": 67,
                    "time": 19.538064,
                    "velocity": 0.2047244094488189,
                    "duration": 1.0854479999999995
                },
                {
                    "name": "E4",
                    "midi": 64,
                    "time": 19.538064,
                    "velocity": 0.2047244094488189,
                    "duration": 1.0854479999999995
                },
                {
                    "name": "G#4",
                    "midi": 68,
                    "time": 20.623511999999998,
                    "velocity": 0.2047244094488189,
                    "duration": 1.0854479999999995
                },
                {
                    "name": "B4",
                    "midi": 71,
                    "time": 20.623511999999998,
                    "velocity": 0.2047244094488189,
                    "duration": 1.0854479999999995
                },
                {
                    "name": "F4",
                    "midi": 65,
                    "time": 20.623511999999998,
                    "velocity": 0.2047244094488189,
                    "duration": 1.0854479999999995
                },
                {
                    "name": "E4",
                    "midi": 64,
                    "time": 21.708959999999998,
                    "velocity": 0.1732283464566929,
                    "duration": 0.361816000000001
                },
                {
                    "name": "G4",
                    "midi": 67,
                    "time": 21.708959999999998,
                    "velocity": 0.2047244094488189,
                    "duration": 0.361816000000001
                },
                {
                    "name": "C#2",
                    "midi": 37,
                    "time": 22.251683999999997,
                    "velocity": 0.2125984251968504,
                    "duration": 0.09045400000000114
                },
                {
                    "name": "C#2",
                    "midi": 37,
                    "time": 22.432592,
                    "velocity": 0.2047244094488189,
                    "duration": 0.09045400000000114
                },
                {
                    "name": "C#2",
                    "midi": 37,
                    "time": 22.613500000000002,
                    "velocity": 0.2047244094488189,
                    "duration": 0.09045400000000114
                },
                {
                    "name": "C2",
                    "midi": 36,
                    "time": 22.794408000000004,
                    "velocity": 0.2047244094488189,
                    "duration": 0.18090799999999874
                },
                {
                    "name": "G4",
                    "midi": 67,
                    "time": 23.879856000000004,
                    "velocity": 0.2047244094488189,
                    "duration": 1.0854479999999995
                },
                {
                    "name": "C#5",
                    "midi": 73,
                    "time": 23.879856000000004,
                    "velocity": 0.2047244094488189,
                    "duration": 1.0854479999999995
                },
                {
                    "name": "A#4",
                    "midi": 70,
                    "time": 23.879856000000004,
                    "velocity": 0.2047244094488189,
                    "duration": 1.0854479999999995
                },
                {
                    "name": "A#4",
                    "midi": 70,
                    "time": 24.965304000000003,
                    "velocity": 0.2047244094488189,
                    "duration": 1.0854479999999995
                },
                {
                    "name": "C#5",
                    "midi": 73,
                    "time": 24.965304000000003,
                    "velocity": 0.2047244094488189,
                    "duration": 1.0854479999999995
                },
                {
                    "name": "G#4",
                    "midi": 68,
                    "time": 24.965304000000003,
                    "velocity": 0.2047244094488189,
                    "duration": 1.0854479999999995
                },
                {
                    "name": "G4",
                    "midi": 67,
                    "time": 26.050752000000003,
                    "velocity": 0.1732283464566929,
                    "duration": 0.361816000000001
                },
                {
                    "name": "A#4",
                    "midi": 70,
                    "time": 26.050752000000003,
                    "velocity": 0.1732283464566929,
                    "duration": 0.361816000000001
                },
                {
                    "name": "C#5",
                    "midi": 73,
                    "time": 26.050752000000003,
                    "velocity": 0.2047244094488189,
                    "duration": 0.361816000000001
                },
                {
                    "name": "C#2",
                    "midi": 37,
                    "time": 26.593476000000003,
                    "velocity": 0.2125984251968504,
                    "duration": 0.09045400000000114
                },
                {
                    "name": "C#2",
                    "midi": 37,
                    "time": 26.774384000000005,
                    "velocity": 0.2047244094488189,
                    "duration": 0.09045400000000114
                },
                {
                    "name": "C#2",
                    "midi": 37,
                    "time": 26.955292000000007,
                    "velocity": 0.2047244094488189,
                    "duration": 0.09045400000000114
                },
                {
                    "name": "C2",
                    "midi": 36,
                    "time": 27.13620000000001,
                    "velocity": 0.2047244094488189,
                    "duration": 0.18090799999999874
                },
                {
                    "name": "C#2",
                    "midi": 37,
                    "time": 28.76437200000001,
                    "velocity": 0.2125984251968504,
                    "duration": 0.18090799999999874
                },
                {
                    "name": "C#2",
                    "midi": 37,
                    "time": 28.945280000000007,
                    "velocity": 0.2047244094488189,
                    "duration": 0.18090799999999874
                },
                {
                    "name": "C#2",
                    "midi": 37,
                    "time": 29.126188000000006,
                    "velocity": 0.2047244094488189,
                    "duration": 0.18090799999999874
                },
                {
                    "name": "C2",
                    "midi": 36,
                    "time": 29.307096000000005,
                    "velocity": 0.2047244094488189,
                    "duration": 0.361816000000001
                },
                {
                    "name": "G3",
                    "midi": 55,
                    "time": 32.382532000000005,
                    "velocity": 0.5905511811023622,
                    "duration": 0.09045400000000114
                },
                {
                    "name": "A#3",
                    "midi": 58,
                    "time": 32.472986000000006,
                    "velocity": 0.49606299212598426,
                    "duration": 0.09045400000000114
                },
                {
                    "name": "E3",
                    "midi": 52,
                    "time": 32.56344000000001,
                    "velocity": 0.5905511811023622,
                    "duration": 0.09045400000000114
                },
                {
                    "name": "G3",
                    "midi": 55,
                    "time": 32.65389400000001,
                    "velocity": 0.5039370078740157,
                    "duration": 0.09045400000000114
                },
                {
                    "name": "A#2",
                    "midi": 46,
                    "time": 32.74434800000001,
                    "velocity": 0.5905511811023622,
                    "duration": 0.09045400000000114
                },
                {
                    "name": "E3",
                    "midi": 52,
                    "time": 32.83480200000001,
                    "velocity": 0.47244094488188976,
                    "duration": 0.09045400000000114
                },
                {
                    "name": "G1",
                    "midi": 31,
                    "time": 32.92525600000001,
                    "velocity": 0.5748031496062992,
                    "duration": 0.09045400000000114
                },
                {
                    "name": "A#1",
                    "midi": 34,
                    "time": 33.01571000000001,
                    "velocity": 0.5275590551181102,
                    "duration": 0.09045400000000114
                },
                {
                    "name": "E2",
                    "midi": 40,
                    "time": 33.106164000000014,
                    "velocity": 0.6062992125984252,
                    "duration": 0.09045400000000114
                },
                {
                    "name": "G2",
                    "midi": 43,
                    "time": 33.196618000000015,
                    "velocity": 0.5275590551181102,
                    "duration": 0.09045400000000114
                },
                {
                    "name": "A#2",
                    "midi": 46,
                    "time": 33.287072000000016,
                    "velocity": 0.6062992125984252,
                    "duration": 0.09045400000000114
                },
                {
                    "name": "C#3",
                    "midi": 49,
                    "time": 33.37752600000002,
                    "velocity": 0.5275590551181102,
                    "duration": 0.09045400000000114
                },
                {
                    "name": "E3",
                    "midi": 52,
                    "time": 33.46798000000002,
                    "velocity": 0.6456692913385826,
                    "duration": 0.09045400000000114
                },
                {
                    "name": "G3",
                    "midi": 55,
                    "time": 33.55843400000002,
                    "velocity": 0.5748031496062992,
                    "duration": 0.09045400000000114
                },
                {
                    "name": "A#3",
                    "midi": 58,
                    "time": 33.64888800000002,
                    "velocity": 0.7007874015748031,
                    "duration": 0.1809080000000023
                },
                {
                    "name": "F2",
                    "midi": 41,
                    "time": 34.19161200000002,
                    "velocity": 0.5669291338582677,
                    "duration": 0.1809080000000023
                },
                {
                    "name": "F1",
                    "midi": 29,
                    "time": 34.19161200000002,
                    "velocity": 0.5669291338582677,
                    "duration": 0.1809080000000023
                },
                {
                    "name": "G#3",
                    "midi": 56,
                    "time": 34.19161200000002,
                    "velocity": 0.6771653543307087,
                    "duration": 0.1809080000000023
                },
                {
                    "name": "C#4",
                    "midi": 61,
                    "time": 34.19161200000002,
                    "velocity": 0.6771653543307087,
                    "duration": 0.1809080000000023
                },
                {
                    "name": "C#3",
                    "midi": 49,
                    "time": 34.19161200000002,
                    "velocity": 0.6771653543307087,
                    "duration": 0.1809080000000023
                },
                {
                    "name": "E2",
                    "midi": 40,
                    "time": 34.73433600000002,
                    "velocity": 0.31496062992125984,
                    "duration": 1.5829450000000023
                },
                {
                    "name": "E3",
                    "midi": 52,
                    "time": 34.73433600000002,
                    "velocity": 0.3779527559055118,
                    "duration": 1.5829450000000023
                },
                {
                    "name": "C3",
                    "midi": 48,
                    "time": 34.73433600000002,
                    "velocity": 0.31496062992125984,
                    "duration": 1.5829450000000023
                },
                {
                    "name": "C4",
                    "midi": 60,
                    "time": 34.73433600000002,
                    "velocity": 0.3779527559055118,
                    "duration": 1.5829450000000023
                },
                {
                    "name": "G3",
                    "midi": 55,
                    "time": 34.73433600000002,
                    "velocity": 0.3779527559055118,
                    "duration": 1.5829450000000023
                },
                {
                    "name": "C2",
                    "midi": 36,
                    "time": 36.36250800000002,
                    "velocity": 0.2125984251968504,
                    "duration": 0.4522699999999986
                },
                {
                    "name": "G#1",
                    "midi": 32,
                    "time": 36.81477800000002,
                    "velocity": 0.1968503937007874,
                    "duration": 0.09045400000000114
                },
                {
                    "name": "F1",
                    "midi": 29,
                    "time": 36.90523200000002,
                    "velocity": 0.6377952755905512,
                    "duration": 0.1809080000000023
                },
                {
                    "name": "G#1",
                    "midi": 32,
                    "time": 37.267048000000024,
                    "velocity": 0.48031496062992124,
                    "duration": 0.35804708333333224
                },
                {
                    "name": "F1",
                    "midi": 29,
                    "time": 37.267048000000024,
                    "velocity": 0.48031496062992124,
                    "duration": 0.35804708333333224
                },
                {
                    "name": "F2",
                    "midi": 41,
                    "time": 37.267048000000024,
                    "velocity": 0.6377952755905512,
                    "duration": 0.35804708333333224
                },
                {
                    "name": "C2",
                    "midi": 36,
                    "time": 37.267048000000024,
                    "velocity": 0.5433070866141733,
                    "duration": 0.35804708333333224
                },
                {
                    "name": "G#1",
                    "midi": 32,
                    "time": 37.62886400000002,
                    "velocity": 0.44881889763779526,
                    "duration": 0.35804708333333224
                },
                {
                    "name": "C2",
                    "midi": 36,
                    "time": 37.62886400000002,
                    "velocity": 0.5039370078740157,
                    "duration": 0.35804708333333224
                },
                {
                    "name": "F2",
                    "midi": 41,
                    "time": 37.62886400000002,
                    "velocity": 0.5984251968503937,
                    "duration": 0.35804708333333224
                },
                {
                    "name": "F1",
                    "midi": 29,
                    "time": 37.62886400000002,
                    "velocity": 0.44881889763779526,
                    "duration": 0.35804708333333224
                },
                {
                    "name": "G#1",
                    "midi": 32,
                    "time": 37.99068000000002,
                    "velocity": 0.4330708661417323,
                    "duration": 0.35804708333333224
                },
                {
                    "name": "C2",
                    "midi": 36,
                    "time": 37.99068000000002,
                    "velocity": 0.49606299212598426,
                    "duration": 0.35804708333333224
                },
                {
                    "name": "F2",
                    "midi": 41,
                    "time": 37.99068000000002,
                    "velocity": 0.5748031496062992,
                    "duration": 0.35804708333333224
                },
                {
                    "name": "F1",
                    "midi": 29,
                    "time": 37.99068000000002,
                    "velocity": 0.4330708661417323,
                    "duration": 0.35804708333333224
                },
                {
                    "name": "G#1",
                    "midi": 32,
                    "time": 38.352496000000016,
                    "velocity": 0.48031496062992124,
                    "duration": 0.35804708333333224
                },
                {
                    "name": "F1",
                    "midi": 29,
                    "time": 38.352496000000016,
                    "velocity": 0.48031496062992124,
                    "duration": 0.35804708333333224
                },
                {
                    "name": "F2",
                    "midi": 41,
                    "time": 38.352496000000016,
                    "velocity": 0.6377952755905512,
                    "duration": 0.35804708333333224
                },
                {
                    "name": "C2",
                    "midi": 36,
                    "time": 38.352496000000016,
                    "velocity": 0.5433070866141733,
                    "duration": 0.35804708333333224
                },
                {
                    "name": "G#1",
                    "midi": 32,
                    "time": 38.714312000000014,
                    "velocity": 0.4330708661417323,
                    "duration": 0.35804708333333224
                },
                {
                    "name": "C2",
                    "midi": 36,
                    "time": 38.714312000000014,
                    "velocity": 0.49606299212598426,
                    "duration": 0.35804708333333224
                },
                {
                    "name": "F2",
                    "midi": 41,
                    "time": 38.714312000000014,
                    "velocity": 0.5748031496062992,
                    "duration": 0.35804708333333224
                },
                {
                    "name": "F1",
                    "midi": 29,
                    "time": 38.714312000000014,
                    "velocity": 0.4330708661417323,
                    "duration": 0.35804708333333224
                },
                {
                    "name": "F1",
                    "midi": 29,
                    "time": 39.07612800000001,
                    "velocity": 0.48031496062992124,
                    "duration": 1.6281719999999993
                },
                {
                    "name": "C2",
                    "midi": 36,
                    "time": 39.07612800000001,
                    "velocity": 0.5433070866141733,
                    "duration": 1.6281719999999993
                },
                {
                    "name": "F2",
                    "midi": 41,
                    "time": 39.07612800000001,
                    "velocity": 0.6377952755905512,
                    "duration": 1.6281719999999993
                },
                {
                    "name": "G#1",
                    "midi": 32,
                    "time": 39.07612800000001,
                    "velocity": 0.48031496062992124,
                    "duration": 1.6281719999999993
                },
                {
                    "name": "G#1",
                    "midi": 32,
                    "time": 40.70430000000001,
                    "velocity": 0.25984251968503935,
                    "duration": 0.4522699999999986
                },
                {
                    "name": "C2",
                    "midi": 36,
                    "time": 41.15657000000001,
                    "velocity": 0.2204724409448819,
                    "duration": 0.09045400000000114
                },
                {
                    "name": "F2",
                    "midi": 41,
                    "time": 41.24702400000001,
                    "velocity": 0.25984251968503935,
                    "duration": 0.5427239999999998
                },
                {
                    "name": "G#2",
                    "midi": 44,
                    "time": 41.78974800000001,
                    "velocity": 0.25984251968503935,
                    "duration": 0.4522699999999986
                },
                {
                    "name": "C3",
                    "midi": 48,
                    "time": 42.24201800000001,
                    "velocity": 0.2204724409448819,
                    "duration": 0.09045400000000114
                },
                {
                    "name": "F3",
                    "midi": 53,
                    "time": 42.33247200000001,
                    "velocity": 0.25984251968503935,
                    "duration": 0.5389550833333345
                },
                {
                    "name": "F2",
                    "midi": 41,
                    "time": 42.87519600000001,
                    "velocity": 0.23622047244094488,
                    "duration": 0.5427239999999998
                },
                {
                    "name": "G3",
                    "midi": 55,
                    "time": 43.41792000000001,
                    "velocity": 0.6377952755905512,
                    "duration": 0.1809080000000023
                },
                {
                    "name": "E3",
                    "midi": 52,
                    "time": 43.41792000000001,
                    "velocity": 0.6377952755905512,
                    "duration": 0.1809080000000023
                },
                {
                    "name": "G3",
                    "midi": 55,
                    "time": 43.59882800000001,
                    "velocity": 0.5905511811023622,
                    "duration": 0.35804708333333224
                },
                {
                    "name": "G2",
                    "midi": 43,
                    "time": 43.779736000000014,
                    "velocity": 0.5433070866141733,
                    "duration": 0.35804708333333224
                },
                {
                    "name": "C3",
                    "midi": 48,
                    "time": 43.779736000000014,
                    "velocity": 0.6377952755905512,
                    "duration": 0.35804708333333224
                },
                {
                    "name": "E2",
                    "midi": 40,
                    "time": 43.779736000000014,
                    "velocity": 0.48031496062992124,
                    "duration": 0.35804708333333224
                },
                {
                    "name": "E2",
                    "midi": 40,
                    "time": 44.14155200000001,
                    "velocity": 0.44881889763779526,
                    "duration": 0.35804708333333224
                },
                {
                    "name": "C3",
                    "midi": 48,
                    "time": 44.14155200000001,
                    "velocity": 0.5984251968503937,
                    "duration": 0.35804708333333224
                },
                {
                    "name": "G2",
                    "midi": 43,
                    "time": 44.14155200000001,
                    "velocity": 0.5039370078740157,
                    "duration": 0.35804708333333224
                },
                {
                    "name": "G2",
                    "midi": 43,
                    "time": 44.50336800000001,
                    "velocity": 0.49606299212598426,
                    "duration": 0.35804708333333224
                },
                {
                    "name": "E2",
                    "midi": 40,
                    "time": 44.50336800000001,
                    "velocity": 0.4330708661417323,
                    "duration": 0.35804708333333224
                },
                {
                    "name": "C3",
                    "midi": 48,
                    "time": 44.50336800000001,
                    "velocity": 0.5748031496062992,
                    "duration": 0.35804708333333224
                },
                {
                    "name": "E2",
                    "midi": 40,
                    "time": 44.865184000000006,
                    "velocity": 0.48031496062992124,
                    "duration": 0.35804708333333224
                },
                {
                    "name": "C3",
                    "midi": 48,
                    "time": 44.865184000000006,
                    "velocity": 0.6377952755905512,
                    "duration": 0.35804708333333224
                },
                {
                    "name": "G2",
                    "midi": 43,
                    "time": 44.865184000000006,
                    "velocity": 0.5433070866141733,
                    "duration": 0.35804708333333224
                },
                {
                    "name": "G2",
                    "midi": 43,
                    "time": 45.227000000000004,
                    "velocity": 0.49606299212598426,
                    "duration": 0.35804708333333224
                },
                {
                    "name": "C3",
                    "midi": 48,
                    "time": 45.227000000000004,
                    "velocity": 0.5748031496062992,
                    "duration": 0.35804708333333224
                },
                {
                    "name": "E2",
                    "midi": 40,
                    "time": 45.227000000000004,
                    "velocity": 0.4330708661417323,
                    "duration": 0.35804708333333224
                },
                {
                    "name": "G4",
                    "midi": 67,
                    "time": 45.588816,
                    "velocity": 0.23622047244094488,
                    "duration": 1.0854479999999995
                },
                {
                    "name": "E4",
                    "midi": 64,
                    "time": 45.588816,
                    "velocity": 0.23622047244094488,
                    "duration": 1.0854479999999995
                },
                {
                    "name": "G#4",
                    "midi": 68,
                    "time": 46.674264,
                    "velocity": 0.23622047244094488,
                    "duration": 1.0854479999999995
                },
                {
                    "name": "B4",
                    "midi": 71,
                    "time": 46.674264,
                    "velocity": 0.23622047244094488,
                    "duration": 1.0854479999999995
                },
                {
                    "name": "F4",
                    "midi": 65,
                    "time": 46.674264,
                    "velocity": 0.23622047244094488,
                    "duration": 1.0854479999999995
                },
                {
                    "name": "G3",
                    "midi": 55,
                    "time": 47.759712,
                    "velocity": 0.6377952755905512,
                    "duration": 0.17940043333333477
                },
                {
                    "name": "E3",
                    "midi": 52,
                    "time": 47.759712,
                    "velocity": 0.6377952755905512,
                    "duration": 0.17940043333333477
                },
                {
                    "name": "G3",
                    "midi": 55,
                    "time": 47.94062,
                    "velocity": 0.5905511811023622,
                    "duration": 0.35804708333333224
                },
                {
                    "name": "G2",
                    "midi": 43,
                    "time": 48.121528000000005,
                    "velocity": 0.5433070866141733,
                    "duration": 0.35804708333333224
                },
                {
                    "name": "C3",
                    "midi": 48,
                    "time": 48.121528000000005,
                    "velocity": 0.6377952755905512,
                    "duration": 0.35804708333333224
                },
                {
                    "name": "E2",
                    "midi": 40,
                    "time": 48.121528000000005,
                    "velocity": 0.48031496062992124,
                    "duration": 0.35804708333333224
                },
                {
                    "name": "E2",
                    "midi": 40,
                    "time": 48.483344,
                    "velocity": 0.44881889763779526,
                    "duration": 0.35804708333333224
                },
                {
                    "name": "C3",
                    "midi": 48,
                    "time": 48.483344,
                    "velocity": 0.5984251968503937,
                    "duration": 0.35804708333333224
                },
                {
                    "name": "G2",
                    "midi": 43,
                    "time": 48.483344,
                    "velocity": 0.5039370078740157,
                    "duration": 0.35804708333333224
                },
                {
                    "name": "G2",
                    "midi": 43,
                    "time": 48.84516,
                    "velocity": 0.49606299212598426,
                    "duration": 0.35804708333333224
                },
                {
                    "name": "E2",
                    "midi": 40,
                    "time": 48.84516,
                    "velocity": 0.4330708661417323,
                    "duration": 0.35804708333333224
                },
                {
                    "name": "C3",
                    "midi": 48,
                    "time": 48.84516,
                    "velocity": 0.5748031496062992,
                    "duration": 0.35804708333333224
                },
                {
                    "name": "E2",
                    "midi": 40,
                    "time": 49.206976,
                    "velocity": 0.48031496062992124,
                    "duration": 0.35804708333333224
                },
                {
                    "name": "C3",
                    "midi": 48,
                    "time": 49.206976,
                    "velocity": 0.6377952755905512,
                    "duration": 0.35804708333333224
                },
                {
                    "name": "G2",
                    "midi": 43,
                    "time": 49.206976,
                    "velocity": 0.5433070866141733,
                    "duration": 0.35804708333333224
                },
                {
                    "name": "G2",
                    "midi": 43,
                    "time": 49.568791999999995,
                    "velocity": 0.49606299212598426,
                    "duration": 0.35804708333333224
                },
                {
                    "name": "C3",
                    "midi": 48,
                    "time": 49.568791999999995,
                    "velocity": 0.5748031496062992,
                    "duration": 0.35804708333333224
                },
                {
                    "name": "E2",
                    "midi": 40,
                    "time": 49.568791999999995,
                    "velocity": 0.4330708661417323,
                    "duration": 0.35804708333333224
                },
                {
                    "name": "G4",
                    "midi": 67,
                    "time": 49.93060799999999,
                    "velocity": 0.28346456692913385,
                    "duration": 1.0854479999999995
                },
                {
                    "name": "E4",
                    "midi": 64,
                    "time": 49.93060799999999,
                    "velocity": 0.28346456692913385,
                    "duration": 1.0854479999999995
                },
                {
                    "name": "G4",
                    "midi": 67,
                    "time": 51.01605599999999,
                    "velocity": 0.28346456692913385,
                    "duration": 1.2663560000000018
                },
                {
                    "name": "D#4",
                    "midi": 63,
                    "time": 51.01605599999999,
                    "velocity": 0.28346456692913385,
                    "duration": 1.2663560000000018
                },
                {
                    "name": "D#5",
                    "midi": 75,
                    "time": 52.282411999999994,
                    "velocity": 0.28346456692913385,
                    "duration": 0.16583233333333425
                },
                {
                    "name": "D#5",
                    "midi": 75,
                    "time": 52.463319999999996,
                    "velocity": 0.28346456692913385,
                    "duration": 0.16583233333333425
                },
                {
                    "name": "D#5",
                    "midi": 75,
                    "time": 52.644228,
                    "velocity": 0.30708661417322836,
                    "duration": 0.16583233333333425
                },
                {
                    "name": "D#5",
                    "midi": 75,
                    "time": 52.825136,
                    "velocity": 0.29133858267716534,
                    "duration": 0.16583233333333425
                },
                {
                    "name": "D#5",
                    "midi": 75,
                    "time": 53.006044,
                    "velocity": 0.28346456692913385,
                    "duration": 0.16583233333333425
                },
                {
                    "name": "D#5",
                    "midi": 75,
                    "time": 53.186952000000005,
                    "velocity": 0.30708661417322836,
                    "duration": 0.16583233333333425
                },
                {
                    "name": "D#5",
                    "midi": 75,
                    "time": 53.36786000000001,
                    "velocity": 0.2755905511811024,
                    "duration": 0.16583233333333425
                },
                {
                    "name": "D#5",
                    "midi": 75,
                    "time": 53.54876800000001,
                    "velocity": 0.2755905511811024,
                    "duration": 0.16583233333333425
                },
                {
                    "name": "D#5",
                    "midi": 75,
                    "time": 53.72967600000001,
                    "velocity": 0.30708661417322836,
                    "duration": 0.16583233333333425
                },
                {
                    "name": "D#5",
                    "midi": 75,
                    "time": 53.910584000000014,
                    "velocity": 0.28346456692913385,
                    "duration": 0.16583233333333425
                },
                {
                    "name": "D#5",
                    "midi": 75,
                    "time": 54.09149200000002,
                    "velocity": 0.28346456692913385,
                    "duration": 0.16583233333333425
                },
                {
                    "name": "D#5",
                    "midi": 75,
                    "time": 54.453308000000014,
                    "velocity": 0.2992125984251969,
                    "duration": 0.16583233333333425
                },
                {
                    "name": "D#5",
                    "midi": 75,
                    "time": 54.634216000000016,
                    "velocity": 0.2992125984251969,
                    "duration": 0.16583233333333425
                },
                {
                    "name": "B4",
                    "midi": 71,
                    "time": 54.81512400000002,
                    "velocity": 0.30708661417322836,
                    "duration": 0.1809080000000023
                },
                {
                    "name": "G#4",
                    "midi": 68,
                    "time": 54.81512400000002,
                    "velocity": 0.30708661417322836,
                    "duration": 0.1809080000000023
                },
                {
                    "name": "D#5",
                    "midi": 75,
                    "time": 54.99603200000002,
                    "velocity": 0.29133858267716534,
                    "duration": 0.16583233333333425
                },
                {
                    "name": "D#5",
                    "midi": 75,
                    "time": 55.17694000000002,
                    "velocity": 0.29133858267716534,
                    "duration": 0.16583233333333425
                },
                {
                    "name": "D#5",
                    "midi": 75,
                    "time": 55.357848000000025,
                    "velocity": 0.3228346456692913,
                    "duration": 0.16583233333333425
                },
                {
                    "name": "D#5",
                    "midi": 75,
                    "time": 55.53875600000003,
                    "velocity": 0.29133858267716534,
                    "duration": 0.16583233333333425
                },
                {
                    "name": "D#5",
                    "midi": 75,
                    "time": 55.71966400000003,
                    "velocity": 0.2992125984251969,
                    "duration": 0.16583233333333425
                },
                {
                    "name": "D#5",
                    "midi": 75,
                    "time": 55.90057200000003,
                    "velocity": 0.36220472440944884,
                    "duration": 0.16583233333333425
                },
                {
                    "name": "D#5",
                    "midi": 75,
                    "time": 56.081480000000035,
                    "velocity": 0.31496062992125984,
                    "duration": 0.16583233333333425
                },
                {
                    "name": "D#5",
                    "midi": 75,
                    "time": 56.26238800000004,
                    "velocity": 0.31496062992125984,
                    "duration": 0.16583233333333425
                },
                {
                    "name": "D#5",
                    "midi": 75,
                    "time": 56.624204000000034,
                    "velocity": 0.2992125984251969,
                    "duration": 0.16583233333333425
                },
                {
                    "name": "D#5",
                    "midi": 75,
                    "time": 56.80511200000004,
                    "velocity": 0.2992125984251969,
                    "duration": 0.16583233333333425
                },
                {
                    "name": "G#4",
                    "midi": 68,
                    "time": 56.98602000000004,
                    "velocity": 0.31496062992125984,
                    "duration": 0.1809080000000023
                },
                {
                    "name": "B4",
                    "midi": 71,
                    "time": 56.98602000000004,
                    "velocity": 0.31496062992125984,
                    "duration": 0.1809080000000023
                },
                {
                    "name": "D#5",
                    "midi": 75,
                    "time": 57.16692800000004,
                    "velocity": 0.29133858267716534,
                    "duration": 0.16583233333333425
                },
                {
                    "name": "D#5",
                    "midi": 75,
                    "time": 57.347836000000044,
                    "velocity": 0.29133858267716534,
                    "duration": 0.16583233333333425
                },
                {
                    "name": "G#4",
                    "midi": 68,
                    "time": 57.528744000000046,
                    "velocity": 0.29133858267716534,
                    "duration": 0.1809080000000023
                },
                {
                    "name": "B4",
                    "midi": 71,
                    "time": 57.528744000000046,
                    "velocity": 0.29133858267716534,
                    "duration": 0.1809080000000023
                },
                {
                    "name": "D#5",
                    "midi": 75,
                    "time": 57.70965200000005,
                    "velocity": 0.29133858267716534,
                    "duration": 0.16583233333333425
                },
                {
                    "name": "D#5",
                    "midi": 75,
                    "time": 57.89056000000005,
                    "velocity": 0.29133858267716534,
                    "duration": 0.16583233333333425
                },
                {
                    "name": "G#4",
                    "midi": 68,
                    "time": 58.07146800000005,
                    "velocity": 0.29133858267716534,
                    "duration": 0.1809080000000023
                },
                {
                    "name": "B4",
                    "midi": 71,
                    "time": 58.07146800000005,
                    "velocity": 0.29133858267716534,
                    "duration": 0.1809080000000023
                },
                {
                    "name": "D#5",
                    "midi": 75,
                    "time": 58.252376000000055,
                    "velocity": 0.29133858267716534,
                    "duration": 0.16583233333333425
                },
                {
                    "name": "D#5",
                    "midi": 75,
                    "time": 58.43328400000006,
                    "velocity": 0.29133858267716534,
                    "duration": 0.16583233333333425
                },
                {
                    "name": "G4",
                    "midi": 67,
                    "time": 58.61419200000006,
                    "velocity": 0.30708661417322836,
                    "duration": 0.1809080000000023
                },
                {
                    "name": "A#4",
                    "midi": 70,
                    "time": 58.61419200000006,
                    "velocity": 0.30708661417322836,
                    "duration": 0.1809080000000023
                },
                {
                    "name": "D#4",
                    "midi": 63,
                    "time": 58.79510000000006,
                    "velocity": 0.29133858267716534,
                    "duration": 0.16583233333333425
                },
                {
                    "name": "D#4",
                    "midi": 63,
                    "time": 58.976008000000064,
                    "velocity": 0.29133858267716534,
                    "duration": 0.16583233333333425
                },
                {
                    "name": "D#4",
                    "midi": 63,
                    "time": 59.156916000000066,
                    "velocity": 0.2992125984251969,
                    "duration": 0.16583233333333425
                },
                {
                    "name": "D#4",
                    "midi": 63,
                    "time": 59.33782400000007,
                    "velocity": 0.29133858267716534,
                    "duration": 0.16583233333333425
                },
                {
                    "name": "D#4",
                    "midi": 63,
                    "time": 59.51873200000007,
                    "velocity": 0.29133858267716534,
                    "duration": 0.16583233333333425
                },
                {
                    "name": "D#4",
                    "midi": 63,
                    "time": 59.69964000000007,
                    "velocity": 0.29133858267716534,
                    "duration": 0.16583233333333425
                },
                {
                    "name": "D#4",
                    "midi": 63,
                    "time": 59.880548000000076,
                    "velocity": 0.29133858267716534,
                    "duration": 0.16583233333333425
                },
                {
                    "name": "D#4",
                    "midi": 63,
                    "time": 60.06145600000008,
                    "velocity": 0.29133858267716534,
                    "duration": 0.16583233333333425
                },
                {
                    "name": "D#4",
                    "midi": 63,
                    "time": 60.24236400000008,
                    "velocity": 0.2992125984251969,
                    "duration": 0.16583233333333425
                },
                {
                    "name": "D#4",
                    "midi": 63,
                    "time": 60.42327200000008,
                    "velocity": 0.29133858267716534,
                    "duration": 0.16583233333333425
                },
                {
                    "name": "D#4",
                    "midi": 63,
                    "time": 60.604180000000085,
                    "velocity": 0.29133858267716534,
                    "duration": 0.16583233333333425
                },
                {
                    "name": "D#4",
                    "midi": 63,
                    "time": 60.78508800000009,
                    "velocity": 0.30708661417322836,
                    "duration": 0.16583233333333425
                },
                {
                    "name": "D#4",
                    "midi": 63,
                    "time": 60.96599600000009,
                    "velocity": 0.29133858267716534,
                    "duration": 0.16583233333333425
                },
                {
                    "name": "D#4",
                    "midi": 63,
                    "time": 61.14690400000009,
                    "velocity": 0.29133858267716534,
                    "duration": 0.16583233333333425
                },
                {
                    "name": "D#4",
                    "midi": 63,
                    "time": 61.327812000000094,
                    "velocity": 0.2992125984251969,
                    "duration": 0.16583233333333425
                },
                {
                    "name": "D#4",
                    "midi": 63,
                    "time": 61.508720000000096,
                    "velocity": 0.29133858267716534,
                    "duration": 0.16583233333333425
                },
                {
                    "name": "D#4",
                    "midi": 63,
                    "time": 61.6896280000001,
                    "velocity": 0.29133858267716534,
                    "duration": 0.16583233333333425
                },
                {
                    "name": "D#4",
                    "midi": 63,
                    "time": 61.8705360000001,
                    "velocity": 0.2992125984251969,
                    "duration": 0.16583233333333425
                },
                {
                    "name": "D#4",
                    "midi": 63,
                    "time": 62.0514440000001,
                    "velocity": 0.30708661417322836,
                    "duration": 0.16583233333333425
                },
                {
                    "name": "D#4",
                    "midi": 63,
                    "time": 62.232352000000105,
                    "velocity": 0.29133858267716534,
                    "duration": 0.16583233333333425
                },
                {
                    "name": "A#3",
                    "midi": 58,
                    "time": 62.41326000000011,
                    "velocity": 0.3464566929133858,
                    "duration": 0.1809080000000023
                },
                {
                    "name": "C#4",
                    "midi": 61,
                    "time": 62.41326000000011,
                    "velocity": 0.3464566929133858,
                    "duration": 0.1809080000000023
                },
                {
                    "name": "D#4",
                    "midi": 63,
                    "time": 62.59416800000011,
                    "velocity": 0.29133858267716534,
                    "duration": 0.16583233333333425
                },
                {
                    "name": "D#4",
                    "midi": 63,
                    "time": 62.77507600000011,
                    "velocity": 0.29133858267716534,
                    "duration": 0.16583233333333425
                },
                {
                    "name": "D#4",
                    "midi": 63,
                    "time": 62.955984000000115,
                    "velocity": 0.30708661417322836,
                    "duration": 0.16583233333333425
                },
                {
                    "name": "D#4",
                    "midi": 63,
                    "time": 63.13689200000012,
                    "velocity": 0.29133858267716534,
                    "duration": 0.16583233333333425
                },
                {
                    "name": "D#4",
                    "midi": 63,
                    "time": 63.31780000000012,
                    "velocity": 0.29133858267716534,
                    "duration": 0.16583233333333425
                },
                {
                    "name": "D#4",
                    "midi": 63,
                    "time": 63.49870800000012,
                    "velocity": 0.29133858267716534,
                    "duration": 0.16583233333333425
                },
                {
                    "name": "D#4",
                    "midi": 63,
                    "time": 63.679616000000124,
                    "velocity": 0.29133858267716534,
                    "duration": 0.16583233333333425
                },
                {
                    "name": "D#4",
                    "midi": 63,
                    "time": 63.860524000000126,
                    "velocity": 0.29133858267716534,
                    "duration": 0.16583233333332714
                },
                {
                    "name": "D#4",
                    "midi": 63,
                    "time": 64.04143200000011,
                    "velocity": 0.2992125984251969,
                    "duration": 0.16583233333332714
                },
                {
                    "name": "D#4",
                    "midi": 63,
                    "time": 64.2223400000001,
                    "velocity": 0.29133858267716534,
                    "duration": 0.16583233333332714
                },
                {
                    "name": "D#4",
                    "midi": 63,
                    "time": 64.40324800000009,
                    "velocity": 0.29133858267716534,
                    "duration": 0.16583233333332714
                },
                {
                    "name": "B3",
                    "midi": 59,
                    "time": 64.58415600000008,
                    "velocity": 0.3779527559055118,
                    "duration": 0.1809080000000023
                },
                {
                    "name": "G#3",
                    "midi": 56,
                    "time": 64.58415600000008,
                    "velocity": 0.3464566929133858,
                    "duration": 0.1809080000000023
                },
                {
                    "name": "D#4",
                    "midi": 63,
                    "time": 64.76506400000008,
                    "velocity": 0.29133858267716534,
                    "duration": 0.16583233333332714
                },
                {
                    "name": "D#4",
                    "midi": 63,
                    "time": 64.94597200000007,
                    "velocity": 0.29133858267716534,
                    "duration": 0.16583233333332714
                },
                {
                    "name": "D#4",
                    "midi": 63,
                    "time": 65.30778800000006,
                    "velocity": 0.2992125984251969,
                    "duration": 0.16583233333332714
                },
                {
                    "name": "D#4",
                    "midi": 63,
                    "time": 65.48869600000005,
                    "velocity": 0.2992125984251969,
                    "duration": 0.16583233333332714
                },
                {
                    "name": "G#3",
                    "midi": 56,
                    "time": 65.66960400000004,
                    "velocity": 0.31496062992125984,
                    "duration": 0.1809080000000023
                },
                {
                    "name": "B3",
                    "midi": 59,
                    "time": 65.66960400000004,
                    "velocity": 0.31496062992125984,
                    "duration": 0.1809080000000023
                },
                {
                    "name": "D#4",
                    "midi": 63,
                    "time": 65.85051200000004,
                    "velocity": 0.29133858267716534,
                    "duration": 0.16583233333332714
                },
                {
                    "name": "D#4",
                    "midi": 63,
                    "time": 66.03142000000003,
                    "velocity": 0.29133858267716534,
                    "duration": 0.16583233333332714
                },
                {
                    "name": "B3",
                    "midi": 59,
                    "time": 66.21232800000001,
                    "velocity": 0.29133858267716534,
                    "duration": 0.1809080000000023
                },
                {
                    "name": "G#3",
                    "midi": 56,
                    "time": 66.21232800000001,
                    "velocity": 0.29133858267716534,
                    "duration": 0.1809080000000023
                },
                {
                    "name": "D#4",
                    "midi": 63,
                    "time": 66.39323600000002,
                    "velocity": 0.29133858267716534,
                    "duration": 0.16583233333332714
                },
                {
                    "name": "D#4",
                    "midi": 63,
                    "time": 66.574144,
                    "velocity": 0.29133858267716534,
                    "duration": 0.16583233333332714
                },
                {
                    "name": "B3",
                    "midi": 59,
                    "time": 66.75505199999999,
                    "velocity": 0.28346456692913385,
                    "duration": 0.1809080000000023
                },
                {
                    "name": "G#3",
                    "midi": 56,
                    "time": 66.75505199999999,
                    "velocity": 0.28346456692913385,
                    "duration": 0.1809080000000023
                },
                {
                    "name": "D#4",
                    "midi": 63,
                    "time": 66.93596,
                    "velocity": 0.29133858267716534,
                    "duration": 0.16583233333332714
                },
                {
                    "name": "D#4",
                    "midi": 63,
                    "time": 67.11686799999998,
                    "velocity": 0.29133858267716534,
                    "duration": 0.16583233333332714
                },
                {
                    "name": "D#4",
                    "midi": 63,
                    "time": 67.47868399999997,
                    "velocity": 0.2992125984251969,
                    "duration": 0.16583233333332714
                },
                {
                    "name": "D#4",
                    "midi": 63,
                    "time": 67.65959199999996,
                    "velocity": 0.2992125984251969,
                    "duration": 0.16583233333332714
                },
                {
                    "name": "A#3",
                    "midi": 58,
                    "time": 67.84049999999995,
                    "velocity": 0.31496062992125984,
                    "duration": 0.1809080000000023
                },
                {
                    "name": "G3",
                    "midi": 55,
                    "time": 67.84049999999995,
                    "velocity": 0.31496062992125984,
                    "duration": 0.1809080000000023
                },
                {
                    "name": "D#4",
                    "midi": 63,
                    "time": 68.02140799999995,
                    "velocity": 0.29133858267716534,
                    "duration": 0.16583233333332714
                },
                {
                    "name": "D#4",
                    "midi": 63,
                    "time": 68.20231599999994,
                    "velocity": 0.29133858267716534,
                    "duration": 0.16583233333332714
                },
                {
                    "name": "D#4",
                    "midi": 63,
                    "time": 68.56413199999993,
                    "velocity": 0.29133858267716534,
                    "duration": 0.16583233333332714
                },
                {
                    "name": "D#4",
                    "midi": 63,
                    "time": 68.74503999999992,
                    "velocity": 0.29133858267716534,
                    "duration": 0.16583233333332714
                },
                {
                    "name": "F#3",
                    "midi": 54,
                    "time": 68.9259479999999,
                    "velocity": 0.28346456692913385,
                    "duration": 0.1809080000000023
                },
                {
                    "name": "A3",
                    "midi": 57,
                    "time": 68.9259479999999,
                    "velocity": 0.28346456692913385,
                    "duration": 0.1809080000000023
                },
                {
                    "name": "D#4",
                    "midi": 63,
                    "time": 69.10685599999991,
                    "velocity": 0.29133858267716534,
                    "duration": 0.16583233333332714
                },
                {
                    "name": "D#4",
                    "midi": 63,
                    "time": 69.2877639999999,
                    "velocity": 0.29133858267716534,
                    "duration": 0.16583233333332714
                },
                {
                    "name": "D#4",
                    "midi": 63,
                    "time": 69.64957999999989,
                    "velocity": 0.29133858267716534,
                    "duration": 0.16583233333332714
                },
                {
                    "name": "D#4",
                    "midi": 63,
                    "time": 69.83048799999987,
                    "velocity": 0.28346456692913385,
                    "duration": 0.16583233333332714
                },
                {
                    "name": "G#3",
                    "midi": 56,
                    "time": 70.01139599999986,
                    "velocity": 0.2992125984251969,
                    "duration": 0.1809080000000023
                },
                {
                    "name": "F3",
                    "midi": 53,
                    "time": 70.01139599999986,
                    "velocity": 0.2992125984251969,
                    "duration": 0.1809080000000023
                },
                {
                    "name": "D#4",
                    "midi": 63,
                    "time": 70.19230399999987,
                    "velocity": 0.2677165354330709,
                    "duration": 0.16583233333332714
                },
                {
                    "name": "D#4",
                    "midi": 63,
                    "time": 70.37321199999985,
                    "velocity": 0.2677165354330709,
                    "duration": 0.16583233333332714
                },
                {
                    "name": "D#4",
                    "midi": 63,
                    "time": 70.73502799999984,
                    "velocity": 0.25196850393700787,
                    "duration": 0.16583233333332714
                },
                {
                    "name": "D#4",
                    "midi": 63,
                    "time": 70.91593599999983,
                    "velocity": 0.25196850393700787,
                    "duration": 0.16583233333332714
                },
                {
                    "name": "E3",
                    "midi": 52,
                    "time": 71.09684399999982,
                    "velocity": 0.23622047244094488,
                    "duration": 0.1809080000000023
                },
                {
                    "name": "G3",
                    "midi": 55,
                    "time": 71.09684399999982,
                    "velocity": 0.23622047244094488,
                    "duration": 0.1809080000000023
                },
                {
                    "name": "D#4",
                    "midi": 63,
                    "time": 71.27775199999982,
                    "velocity": 0.2440944881889764,
                    "duration": 0.16583233333332714
                },
                {
                    "name": "D#4",
                    "midi": 63,
                    "time": 71.45865999999981,
                    "velocity": 0.23622047244094488,
                    "duration": 0.16583233333332714
                },
                {
                    "name": "D#3",
                    "midi": 51,
                    "time": 71.8204759999998,
                    "velocity": 0.1968503937007874,
                    "duration": 0.16583233333332714
                },
                {
                    "name": "D#3",
                    "midi": 51,
                    "time": 72.00138399999979,
                    "velocity": 0.2047244094488189,
                    "duration": 0.16583233333332714
                },
                {
                    "name": "D#3",
                    "midi": 51,
                    "time": 72.18229199999978,
                    "velocity": 0.2204724409448819,
                    "duration": 0.16583233333332714
                },
                {
                    "name": "D#3",
                    "midi": 51,
                    "time": 72.36319999999976,
                    "velocity": 0.2047244094488189,
                    "duration": 0.16583233333332714
                },
                {
                    "name": "D#3",
                    "midi": 51,
                    "time": 72.54410799999975,
                    "velocity": 0.2047244094488189,
                    "duration": 0.16583233333332714
                },
                {
                    "name": "D#3",
                    "midi": 51,
                    "time": 72.72501599999974,
                    "velocity": 0.2204724409448819,
                    "duration": 0.16583233333332714
                },
                {
                    "name": "D#3",
                    "midi": 51,
                    "time": 72.90592399999973,
                    "velocity": 0.2047244094488189,
                    "duration": 0.16583233333332714
                },
                {
                    "name": "D#3",
                    "midi": 51,
                    "time": 73.08683199999972,
                    "velocity": 0.2047244094488189,
                    "duration": 0.16583233333332714
                },
                {
                    "name": "D#3",
                    "midi": 51,
                    "time": 73.2677399999997,
                    "velocity": 0.2204724409448819,
                    "duration": 0.16583233333332714
                },
                {
                    "name": "D#3",
                    "midi": 51,
                    "time": 73.4486479999997,
                    "velocity": 0.2047244094488189,
                    "duration": 0.16583233333332714
                },
                {
                    "name": "D#3",
                    "midi": 51,
                    "time": 73.62955599999968,
                    "velocity": 0.2125984251968504,
                    "duration": 0.16583233333332714
                },
                {
                    "name": "A#3",
                    "midi": 58,
                    "time": 73.81046399999967,
                    "velocity": 0.3228346456692913,
                    "duration": 0.5427239999999784
                },
                {
                    "name": "C#4",
                    "midi": 61,
                    "time": 73.81046399999967,
                    "velocity": 0.3228346456692913,
                    "duration": 0.5427239999999784
                },
                {
                    "name": "G3",
                    "midi": 55,
                    "time": 73.81046399999967,
                    "velocity": 0.3228346456692913,
                    "duration": 0.5427239999999784
                },
                {
                    "name": "D#2",
                    "midi": 39,
                    "time": 73.99137199999967,
                    "velocity": 0.1968503937007874,
                    "duration": 0.16583233333332714
                },
                {
                    "name": "D#2",
                    "midi": 39,
                    "time": 74.17227999999966,
                    "velocity": 0.2047244094488189,
                    "duration": 0.16583233333332714
                },
                {
                    "name": "D#2",
                    "midi": 39,
                    "time": 74.35318799999965,
                    "velocity": 0.2204724409448819,
                    "duration": 0.16583233333332714
                },
                {
                    "name": "D#2",
                    "midi": 39,
                    "time": 74.53409599999964,
                    "velocity": 0.2047244094488189,
                    "duration": 0.16583233333332714
                },
                {
                    "name": "D#2",
                    "midi": 39,
                    "time": 74.71500399999962,
                    "velocity": 0.2047244094488189,
                    "duration": 0.16583233333332714
                },
                {
                    "name": "D#2",
                    "midi": 39,
                    "time": 74.89591199999961,
                    "velocity": 0.2204724409448819,
                    "duration": 0.16583233333332714
                },
                {
                    "name": "D#2",
                    "midi": 39,
                    "time": 75.0768199999996,
                    "velocity": 0.2047244094488189,
                    "duration": 0.16583233333332714
                },
                {
                    "name": "D#2",
                    "midi": 39,
                    "time": 75.25772799999959,
                    "velocity": 0.2047244094488189,
                    "duration": 0.16583233333332714
                },
                {
                    "name": "D#2",
                    "midi": 39,
                    "time": 75.43863599999958,
                    "velocity": 0.2204724409448819,
                    "duration": 0.16583233333332714
                },
                {
                    "name": "D#2",
                    "midi": 39,
                    "time": 75.61954399999956,
                    "velocity": 0.2047244094488189,
                    "duration": 0.16583233333332714
                },
                {
                    "name": "D#2",
                    "midi": 39,
                    "time": 75.80045199999955,
                    "velocity": 0.2125984251968504,
                    "duration": 0.16583233333332714
                },
                {
                    "name": "G#1",
                    "midi": 32,
                    "time": 75.98135999999954,
                    "velocity": 0.2204724409448819,
                    "duration": 0.1809080000000023
                },
                {
                    "name": "G#2",
                    "midi": 44,
                    "time": 76.16226799999954,
                    "velocity": 0.1968503937007874,
                    "duration": 0.1809080000000023
                },
                {
                    "name": "C2",
                    "midi": 36,
                    "time": 76.16226799999954,
                    "velocity": 0.15748031496062992,
                    "duration": 0.1809080000000023
                },
                {
                    "name": "D#2",
                    "midi": 39,
                    "time": 76.16226799999954,
                    "velocity": 0.15748031496062992,
                    "duration": 0.1809080000000023
                },
                {
                    "name": "G#1",
                    "midi": 32,
                    "time": 76.34317599999954,
                    "velocity": 0.2047244094488189,
                    "duration": 0.1809080000000023
                },
                {
                    "name": "G#2",
                    "midi": 44,
                    "time": 76.52408399999955,
                    "velocity": 0.2204724409448819,
                    "duration": 0.1809080000000023
                },
                {
                    "name": "C2",
                    "midi": 36,
                    "time": 76.52408399999955,
                    "velocity": 0.1732283464566929,
                    "duration": 0.1809080000000023
                },
                {
                    "name": "D#2",
                    "midi": 39,
                    "time": 76.52408399999955,
                    "velocity": 0.1732283464566929,
                    "duration": 0.1809080000000023
                },
                {
                    "name": "G#1",
                    "midi": 32,
                    "time": 76.70499199999955,
                    "velocity": 0.2047244094488189,
                    "duration": 0.1809080000000023
                },
                {
                    "name": "G#2",
                    "midi": 44,
                    "time": 76.88589999999955,
                    "velocity": 0.2047244094488189,
                    "duration": 0.1809080000000023
                },
                {
                    "name": "C2",
                    "midi": 36,
                    "time": 76.88589999999955,
                    "velocity": 0.15748031496062992,
                    "duration": 0.1809080000000023
                },
                {
                    "name": "D#2",
                    "midi": 39,
                    "time": 76.88589999999955,
                    "velocity": 0.15748031496062992,
                    "duration": 0.1809080000000023
                },
                {
                    "name": "G#1",
                    "midi": 32,
                    "time": 77.06680799999955,
                    "velocity": 0.2204724409448819,
                    "duration": 0.1809080000000023
                },
                {
                    "name": "G#2",
                    "midi": 44,
                    "time": 77.24771599999956,
                    "velocity": 0.2047244094488189,
                    "duration": 0.1809080000000023
                },
                {
                    "name": "D#2",
                    "midi": 39,
                    "time": 77.24771599999956,
                    "velocity": 0.15748031496062992,
                    "duration": 0.1809080000000023
                },
                {
                    "name": "C2",
                    "midi": 36,
                    "time": 77.24771599999956,
                    "velocity": 0.15748031496062992,
                    "duration": 0.1809080000000023
                },
                {
                    "name": "G#1",
                    "midi": 32,
                    "time": 77.42862399999956,
                    "velocity": 0.2047244094488189,
                    "duration": 0.1809080000000023
                },
                {
                    "name": "C2",
                    "midi": 36,
                    "time": 77.60953199999956,
                    "velocity": 0.1732283464566929,
                    "duration": 0.1809080000000023
                },
                {
                    "name": "C3",
                    "midi": 48,
                    "time": 77.60953199999956,
                    "velocity": 0.31496062992125984,
                    "duration": 0.4522699999999986
                },
                {
                    "name": "G#2",
                    "midi": 44,
                    "time": 77.60953199999956,
                    "velocity": 0.2204724409448819,
                    "duration": 0.1809080000000023
                },
                {
                    "name": "D#2",
                    "midi": 39,
                    "time": 77.60953199999956,
                    "velocity": 0.1732283464566929,
                    "duration": 0.1809080000000023
                },
                {
                    "name": "G#1",
                    "midi": 32,
                    "time": 77.79043999999956,
                    "velocity": 0.2047244094488189,
                    "duration": 0.1809080000000023
                },
                {
                    "name": "C2",
                    "midi": 36,
                    "time": 77.97134799999957,
                    "velocity": 0.16535433070866143,
                    "duration": 0.18090799999998808
                },
                {
                    "name": "D#2",
                    "midi": 39,
                    "time": 77.97134799999957,
                    "velocity": 0.16535433070866143,
                    "duration": 0.18090799999998808
                },
                {
                    "name": "G#2",
                    "midi": 44,
                    "time": 77.97134799999957,
                    "velocity": 0.2125984251968504,
                    "duration": 0.18090799999998808
                },
                {
                    "name": "D#3",
                    "midi": 51,
                    "time": 78.06180199999956,
                    "velocity": 0.29133858267716534,
                    "duration": 0.09045399999999404
                },
                {
                    "name": "G#1",
                    "midi": 32,
                    "time": 78.15225599999955,
                    "velocity": 0.2204724409448819,
                    "duration": 0.1809080000000023
                },
                {
                    "name": "G#2",
                    "midi": 44,
                    "time": 78.33316399999956,
                    "velocity": 0.1968503937007874,
                    "duration": 0.1809080000000023
                },
                {
                    "name": "C2",
                    "midi": 36,
                    "time": 78.33316399999956,
                    "velocity": 0.15748031496062992,
                    "duration": 0.1809080000000023
                },
                {
                    "name": "D#2",
                    "midi": 39,
                    "time": 78.33316399999956,
                    "velocity": 0.15748031496062992,
                    "duration": 0.1809080000000023
                },
                {
                    "name": "G#1",
                    "midi": 32,
                    "time": 78.51407199999956,
                    "velocity": 0.2047244094488189,
                    "duration": 0.1809080000000023
                },
                {
                    "name": "G#2",
                    "midi": 44,
                    "time": 78.69497999999956,
                    "velocity": 0.2204724409448819,
                    "duration": 0.1809080000000023
                },
                {
                    "name": "C2",
                    "midi": 36,
                    "time": 78.69497999999956,
                    "velocity": 0.1732283464566929,
                    "duration": 0.1809080000000023
                },
                {
                    "name": "D#2",
                    "midi": 39,
                    "time": 78.69497999999956,
                    "velocity": 0.1732283464566929,
                    "duration": 0.1809080000000023
                },
                {
                    "name": "G#1",
                    "midi": 32,
                    "time": 78.87588799999956,
                    "velocity": 0.2047244094488189,
                    "duration": 0.1809080000000023
                },
                {
                    "name": "C2",
                    "midi": 36,
                    "time": 79.05679599999957,
                    "velocity": 0.15748031496062992,
                    "duration": 0.1809080000000023
                },
                {
                    "name": "D#2",
                    "midi": 39,
                    "time": 79.05679599999957,
                    "velocity": 0.15748031496062992,
                    "duration": 0.1809080000000023
                },
                {
                    "name": "G#2",
                    "midi": 44,
                    "time": 79.05679599999957,
                    "velocity": 0.2047244094488189,
                    "duration": 0.1809080000000023
                },
                {
                    "name": "A#1",
                    "midi": 34,
                    "time": 79.23770399999957,
                    "velocity": 0.2204724409448819,
                    "duration": 0.1809080000000023
                },
                {
                    "name": "A#2",
                    "midi": 46,
                    "time": 79.41861199999957,
                    "velocity": 0.2047244094488189,
                    "duration": 0.1809080000000023
                },
                {
                    "name": "D#2",
                    "midi": 39,
                    "time": 79.41861199999957,
                    "velocity": 0.15748031496062992,
                    "duration": 0.1809080000000023
                },
                {
                    "name": "C#2",
                    "midi": 37,
                    "time": 79.41861199999957,
                    "velocity": 0.15748031496062992,
                    "duration": 0.1809080000000023
                },
                {
                    "name": "A#1",
                    "midi": 34,
                    "time": 79.59951999999957,
                    "velocity": 0.2047244094488189,
                    "duration": 0.1809080000000023
                },
                {
                    "name": "D#2",
                    "midi": 39,
                    "time": 79.78042799999957,
                    "velocity": 0.1732283464566929,
                    "duration": 0.1809080000000023
                },
                {
                    "name": "A#2",
                    "midi": 46,
                    "time": 79.78042799999957,
                    "velocity": 0.2204724409448819,
                    "duration": 0.1809080000000023
                },
                {
                    "name": "C#2",
                    "midi": 37,
                    "time": 79.78042799999957,
                    "velocity": 0.1732283464566929,
                    "duration": 0.1809080000000023
                },
                {
                    "name": "A#1",
                    "midi": 34,
                    "time": 79.96133599999958,
                    "velocity": 0.2047244094488189,
                    "duration": 0.1809080000000023
                },
                {
                    "name": "C#2",
                    "midi": 37,
                    "time": 80.14224399999958,
                    "velocity": 0.16535433070866143,
                    "duration": 0.1809080000000023
                },
                {
                    "name": "A#2",
                    "midi": 46,
                    "time": 80.14224399999958,
                    "velocity": 0.2125984251968504,
                    "duration": 0.1809080000000023
                },
                {
                    "name": "D#2",
                    "midi": 39,
                    "time": 80.14224399999958,
                    "velocity": 0.16535433070866143,
                    "duration": 0.1809080000000023
                },
                {
                    "name": "C2",
                    "midi": 36,
                    "time": 80.32315199999958,
                    "velocity": 0.2204724409448819,
                    "duration": 0.1809080000000023
                },
                {
                    "name": "D#2",
                    "midi": 39,
                    "time": 80.50405999999958,
                    "velocity": 0.15748031496062992,
                    "duration": 0.1809080000000023
                },
                {
                    "name": "G#2",
                    "midi": 44,
                    "time": 80.50405999999958,
                    "velocity": 0.15748031496062992,
                    "duration": 0.1809080000000023
                },
                {
                    "name": "C3",
                    "midi": 48,
                    "time": 80.50405999999958,
                    "velocity": 0.1968503937007874,
                    "duration": 0.1809080000000023
                },
                {
                    "name": "C2",
                    "midi": 36,
                    "time": 80.68496799999959,
                    "velocity": 0.2047244094488189,
                    "duration": 0.1809080000000023
                },
                {
                    "name": "D#2",
                    "midi": 39,
                    "time": 80.86587599999959,
                    "velocity": 0.1732283464566929,
                    "duration": 0.1809080000000023
                },
                {
                    "name": "D#3",
                    "midi": 51,
                    "time": 80.86587599999959,
                    "velocity": 0.31496062992125984,
                    "duration": 1.0854480000000137
                },
                {
                    "name": "G#2",
                    "midi": 44,
                    "time": 80.86587599999959,
                    "velocity": 0.1732283464566929,
                    "duration": 0.1809080000000023
                },
                {
                    "name": "C3",
                    "midi": 48,
                    "time": 80.86587599999959,
                    "velocity": 0.2204724409448819,
                    "duration": 0.1809080000000023
                },
                {
                    "name": "C2",
                    "midi": 36,
                    "time": 81.04678399999959,
                    "velocity": 0.2047244094488189,
                    "duration": 0.1809080000000023
                },
                {
                    "name": "G#2",
                    "midi": 44,
                    "time": 81.22769199999959,
                    "velocity": 0.15748031496062992,
                    "duration": 0.1809080000000023
                },
                {
                    "name": "C3",
                    "midi": 48,
                    "time": 81.22769199999959,
                    "velocity": 0.2047244094488189,
                    "duration": 0.1809080000000023
                },
                {
                    "name": "D#2",
                    "midi": 39,
                    "time": 81.22769199999959,
                    "velocity": 0.15748031496062992,
                    "duration": 0.1809080000000023
                },
                {
                    "name": "C2",
                    "midi": 36,
                    "time": 81.4085999999996,
                    "velocity": 0.2204724409448819,
                    "duration": 0.1809080000000023
                },
                {
                    "name": "D#2",
                    "midi": 39,
                    "time": 81.5895079999996,
                    "velocity": 0.15748031496062992,
                    "duration": 0.1809080000000023
                },
                {
                    "name": "G#2",
                    "midi": 44,
                    "time": 81.5895079999996,
                    "velocity": 0.15748031496062992,
                    "duration": 0.1809080000000023
                },
                {
                    "name": "C3",
                    "midi": 48,
                    "time": 81.5895079999996,
                    "velocity": 0.2047244094488189,
                    "duration": 0.1809080000000023
                },
                {
                    "name": "C2",
                    "midi": 36,
                    "time": 81.7704159999996,
                    "velocity": 0.2047244094488189,
                    "duration": 0.1809080000000023
                },
                {
                    "name": "F3",
                    "midi": 53,
                    "time": 81.9513239999996,
                    "velocity": 0.31496062992125984,
                    "duration": 0.4522699999999986
                },
                {
                    "name": "G#2",
                    "midi": 44,
                    "time": 81.9513239999996,
                    "velocity": 0.2204724409448819,
                    "duration": 0.1809080000000023
                },
                {
                    "name": "C#2",
                    "midi": 37,
                    "time": 82.1322319999996,
                    "velocity": 0.2047244094488189,
                    "duration": 0.1809080000000023
                },
                {
                    "name": "G#2",
                    "midi": 44,
                    "time": 82.3131399999996,
                    "velocity": 0.2125984251968504,
                    "duration": 0.18090799999998808
                },
                {
                    "name": "C#3",
                    "midi": 49,
                    "time": 82.4035939999996,
                    "velocity": 0.29133858267716534,
                    "duration": 0.09045399999999404
                },
                {
                    "name": "C3",
                    "midi": 48,
                    "time": 82.4940479999996,
                    "velocity": 0.31496062992125984,
                    "duration": 0.5427240000000069
                },
                {
                    "name": "D#2",
                    "midi": 39,
                    "time": 82.4940479999996,
                    "velocity": 0.2204724409448819,
                    "duration": 0.1809080000000023
                },
                {
                    "name": "G#2",
                    "midi": 44,
                    "time": 82.6749559999996,
                    "velocity": 0.1968503937007874,
                    "duration": 0.1809080000000023
                },
                {
                    "name": "D#2",
                    "midi": 39,
                    "time": 82.8558639999996,
                    "velocity": 0.2047244094488189,
                    "duration": 0.1809080000000023
                },
                {
                    "name": "G#2",
                    "midi": 44,
                    "time": 83.0367719999996,
                    "velocity": 0.2204724409448819,
                    "duration": 0.1809080000000023
                },
                {
                    "name": "D#3",
                    "midi": 51,
                    "time": 83.0367719999996,
                    "velocity": 0.31496062992125984,
                    "duration": 0.4522699999999986
                },
                {
                    "name": "D#2",
                    "midi": 39,
                    "time": 83.2176799999996,
                    "velocity": 0.1968503937007874,
                    "duration": 0.1809080000000023
                },
                {
                    "name": "G#2",
                    "midi": 44,
                    "time": 83.3985879999996,
                    "velocity": 0.1968503937007874,
                    "duration": 0.18090799999998808
                },
                {
                    "name": "C3",
                    "midi": 48,
                    "time": 83.4890419999996,
                    "velocity": 0.28346456692913385,
                    "duration": 0.09045399999999404
                },
                {
                    "name": "A#2",
                    "midi": 46,
                    "time": 83.5794959999996,
                    "velocity": 0.31496062992125984,
                    "duration": 0.5427240000000069
                },
                {
                    "name": "D#2",
                    "midi": 39,
                    "time": 83.5794959999996,
                    "velocity": 0.2204724409448819,
                    "duration": 0.1809080000000023
                },
                {
                    "name": "G2",
                    "midi": 43,
                    "time": 83.7604039999996,
                    "velocity": 0.1968503937007874,
                    "duration": 0.1809080000000023
                },
                {
                    "name": "D#2",
                    "midi": 39,
                    "time": 83.9413119999996,
                    "velocity": 0.1968503937007874,
                    "duration": 0.1809080000000023
                },
                {
                    "name": "D#3",
                    "midi": 51,
                    "time": 84.1222199999996,
                    "velocity": 0.31496062992125984,
                    "duration": 0.4522699999999986
                },
                {
                    "name": "G2",
                    "midi": 43,
                    "time": 84.1222199999996,
                    "velocity": 0.2204724409448819,
                    "duration": 0.1809080000000023
                },
                {
                    "name": "D#2",
                    "midi": 39,
                    "time": 84.3031279999996,
                    "velocity": 0.1968503937007874,
                    "duration": 0.1809080000000023
                },
                {
                    "name": "G2",
                    "midi": 43,
                    "time": 84.4840359999996,
                    "velocity": 0.1968503937007874,
                    "duration": 0.18090799999998808
                },
                {
                    "name": "C#3",
                    "midi": 49,
                    "time": 84.5744899999996,
                    "velocity": 0.28346456692913385,
                    "duration": 0.09045399999999404
                },
                {
                    "name": "G#2",
                    "midi": 44,
                    "time": 84.6649439999996,
                    "velocity": 0.2204724409448819,
                    "duration": 0.1809080000000023
                },
                {
                    "name": "G#3",
                    "midi": 56,
                    "time": 84.8458519999996,
                    "velocity": 0.1968503937007874,
                    "duration": 0.1809080000000023
                },
                {
                    "name": "C3",
                    "midi": 48,
                    "time": 84.8458519999996,
                    "velocity": 0.15748031496062992,
                    "duration": 0.1809080000000023
                },
                {
                    "name": "D#3",
                    "midi": 51,
                    "time": 84.8458519999996,
                    "velocity": 0.15748031496062992,
                    "duration": 0.1809080000000023
                },
                {
                    "name": "G#2",
                    "midi": 44,
                    "time": 85.0267599999996,
                    "velocity": 0.2125984251968504,
                    "duration": 0.1809080000000023
                },
                {
                    "name": "G#3",
                    "midi": 56,
                    "time": 85.2076679999996,
                    "velocity": 0.2283464566929134,
                    "duration": 0.1809080000000023
                },
                {
                    "name": "C3",
                    "midi": 48,
                    "time": 85.2076679999996,
                    "velocity": 0.18110236220472442,
                    "duration": 0.1809080000000023
                },
                {
                    "name": "D#3",
                    "midi": 51,
                    "time": 85.2076679999996,
                    "velocity": 0.18110236220472442,
                    "duration": 0.1809080000000023
                },
                {
                    "name": "G#2",
                    "midi": 44,
                    "time": 85.3885759999996,
                    "velocity": 0.2204724409448819,
                    "duration": 0.1809080000000023
                },
                {
                    "name": "G#3",
                    "midi": 56,
                    "time": 85.5694839999996,
                    "velocity": 0.2283464566929134,
                    "duration": 0.1809080000000023
                },
                {
                    "name": "C3",
                    "midi": 48,
                    "time": 85.5694839999996,
                    "velocity": 0.1732283464566929,
                    "duration": 0.1809080000000023
                },
                {
                    "name": "D#3",
                    "midi": 51,
                    "time": 85.5694839999996,
                    "velocity": 0.1732283464566929,
                    "duration": 0.1809080000000023
                },
                {
                    "name": "G#2",
                    "midi": 44,
                    "time": 85.75039199999961,
                    "velocity": 0.25196850393700787,
                    "duration": 0.1809080000000023
                },
                {
                    "name": "G#3",
                    "midi": 56,
                    "time": 85.93129999999961,
                    "velocity": 0.2440944881889764,
                    "duration": 0.1809080000000023
                },
                {
                    "name": "D#3",
                    "midi": 51,
                    "time": 85.93129999999961,
                    "velocity": 0.1889763779527559,
                    "duration": 0.1809080000000023
                },
                {
                    "name": "C3",
                    "midi": 48,
                    "time": 85.93129999999961,
                    "velocity": 0.1889763779527559,
                    "duration": 0.1809080000000023
                },
                {
                    "name": "G#2",
                    "midi": 44,
                    "time": 86.11220799999961,
                    "velocity": 0.2440944881889764,
                    "duration": 0.1809080000000023
                },
                {
                    "name": "C3",
                    "midi": 48,
                    "time": 86.29311599999961,
                    "velocity": 0.2125984251968504,
                    "duration": 0.1809080000000023
                },
                {
                    "name": "D#3",
                    "midi": 51,
                    "time": 86.29311599999961,
                    "velocity": 0.2125984251968504,
                    "duration": 0.1809080000000023
                },
                {
                    "name": "G#3",
                    "midi": 56,
                    "time": 86.29311599999961,
                    "velocity": 0.2755905511811024,
                    "duration": 0.1809080000000023
                },
                {
                    "name": "C4",
                    "midi": 60,
                    "time": 86.29311599999961,
                    "velocity": 0.4015748031496063,
                    "duration": 0.4522699999999986
                },
                {
                    "name": "G#2",
                    "midi": 44,
                    "time": 86.47402399999962,
                    "velocity": 0.25984251968503935,
                    "duration": 0.1809080000000023
                },
                {
                    "name": "C3",
                    "midi": 48,
                    "time": 86.65493199999962,
                    "velocity": 0.2125984251968504,
                    "duration": 0.18090799999998808
                },
                {
                    "name": "D#3",
                    "midi": 51,
                    "time": 86.65493199999962,
                    "velocity": 0.2125984251968504,
                    "duration": 0.18090799999998808
                },
                {
                    "name": "G#3",
                    "midi": 56,
                    "time": 86.65493199999962,
                    "velocity": 0.2677165354330709,
                    "duration": 0.18090799999998808
                },
                {
                    "name": "D#4",
                    "midi": 63,
                    "time": 86.74538599999961,
                    "velocity": 0.3858267716535433,
                    "duration": 0.09045399999999404
                },
                {
                    "name": "G#2",
                    "midi": 44,
                    "time": 86.8358399999996,
                    "velocity": 0.29133858267716534,
                    "duration": 0.1809080000000023
                },
                {
                    "name": "G#3",
                    "midi": 56,
                    "time": 87.01674799999961,
                    "velocity": 0.2677165354330709,
                    "duration": 0.1809080000000023
                },
                {
                    "name": "D#3",
                    "midi": 51,
                    "time": 87.01674799999961,
                    "velocity": 0.2125984251968504,
                    "duration": 0.1809080000000023
                },
                {
                    "name": "C3",
                    "midi": 48,
                    "time": 87.01674799999961,
                    "velocity": 0.2125984251968504,
                    "duration": 0.1809080000000023
                },
                {
                    "name": "G#2",
                    "midi": 44,
                    "time": 87.19765599999961,
                    "velocity": 0.28346456692913385,
                    "duration": 0.1809080000000023
                },
                {
                    "name": "G#3",
                    "midi": 56,
                    "time": 87.37856399999961,
                    "velocity": 0.30708661417322836,
                    "duration": 0.1809080000000023
                },
                {
                    "name": "D#3",
                    "midi": 51,
                    "time": 87.37856399999961,
                    "velocity": 0.23622047244094488,
                    "duration": 0.1809080000000023
                },
                {
                    "name": "C3",
                    "midi": 48,
                    "time": 87.37856399999961,
                    "velocity": 0.23622047244094488,
                    "duration": 0.1809080000000023
                },
                {
                    "name": "G#2",
                    "midi": 44,
                    "time": 87.55947199999962,
                    "velocity": 0.29133858267716534,
                    "duration": 0.1809080000000023
                },
                {
                    "name": "C3",
                    "midi": 48,
                    "time": 87.74037999999962,
                    "velocity": 0.2283464566929134,
                    "duration": 0.1809080000000023
                },
                {
                    "name": "G#3",
                    "midi": 56,
                    "time": 87.74037999999962,
                    "velocity": 0.2992125984251969,
                    "duration": 0.1809080000000023
                },
                {
                    "name": "D#3",
                    "midi": 51,
                    "time": 87.74037999999962,
                    "velocity": 0.2283464566929134,
                    "duration": 0.1809080000000023
                },
                {
                    "name": "A#2",
                    "midi": 46,
                    "time": 87.92128799999962,
                    "velocity": 0.31496062992125984,
                    "duration": 0.1809080000000023
                },
                {
                    "name": "A#3",
                    "midi": 58,
                    "time": 88.10219599999962,
                    "velocity": 0.2992125984251969,
                    "duration": 0.1809080000000023
                },
                {
                    "name": "D#3",
                    "midi": 51,
                    "time": 88.10219599999962,
                    "velocity": 0.2283464566929134,
                    "duration": 0.1809080000000023
                },
                {
                    "name": "C#3",
                    "midi": 49,
                    "time": 88.10219599999962,
                    "velocity": 0.2283464566929134,
                    "duration": 0.1809080000000023
                },
                {
                    "name": "A#2",
                    "midi": 46,
                    "time": 88.28310399999962,
                    "velocity": 0.30708661417322836,
                    "duration": 0.1809080000000023
                },
                {
                    "name": "D#3",
                    "midi": 51,
                    "time": 88.46401199999963,
                    "velocity": 0.2677165354330709,
                    "duration": 0.1809080000000023
                },
                {
                    "name": "A#3",
                    "midi": 58,
                    "time": 88.46401199999963,
                    "velocity": 0.33070866141732286,
                    "duration": 0.1809080000000023
                },
                {
                    "name": "C#3",
                    "midi": 49,
                    "time": 88.46401199999963,
                    "velocity": 0.2677165354330709,
                    "duration": 0.1809080000000023
                },
                {
                    "name": "A#2",
                    "midi": 46,
                    "time": 88.64491999999963,
                    "velocity": 0.31496062992125984,
                    "duration": 0.1809080000000023
                },
                {
                    "name": "C#3",
                    "midi": 49,
                    "time": 88.82582799999963,
                    "velocity": 0.25984251968503935,
                    "duration": 0.1809080000000023
                },
                {
                    "name": "A#3",
                    "midi": 58,
                    "time": 88.82582799999963,
                    "velocity": 0.33070866141732286,
                    "duration": 0.1809080000000023
                },
                {
                    "name": "D#3",
                    "midi": 51,
                    "time": 88.82582799999963,
                    "velocity": 0.25984251968503935,
                    "duration": 0.1809080000000023
                },
                {
                    "name": "C4",
                    "midi": 60,
                    "time": 89.00673599999963,
                    "velocity": 0.28346456692913385,
                    "duration": 2.170895999999999
                },
                {
                    "name": "D#3",
                    "midi": 51,
                    "time": 89.00673599999963,
                    "velocity": 0.2204724409448819,
                    "duration": 2.170895999999999
                },
                {
                    "name": "C3",
                    "midi": 48,
                    "time": 89.00673599999963,
                    "velocity": 0.2204724409448819,
                    "duration": 2.170895999999999
                },
                {
                    "name": "G#3",
                    "midi": 56,
                    "time": 89.00673599999963,
                    "velocity": 0.28346456692913385,
                    "duration": 2.170895999999999
                },
                {
                    "name": "G#3",
                    "midi": 56,
                    "time": 91.17763199999963,
                    "velocity": 0.4645669291338583,
                    "duration": 0.5427240000000069
                },
                {
                    "name": "C#3",
                    "midi": 49,
                    "time": 91.17763199999963,
                    "velocity": 0.3937007874015748,
                    "duration": 2.1708960000000133
                },
                {
                    "name": "E3",
                    "midi": 52,
                    "time": 91.17763199999963,
                    "velocity": 0.3937007874015748,
                    "duration": 2.1708960000000133
                },
                {
                    "name": "A3",
                    "midi": 57,
                    "time": 91.72035599999964,
                    "velocity": 0.44881889763779526,
                    "duration": 1.6281720000000064
                },
                {
                    "name": "G#3",
                    "midi": 56,
                    "time": 93.34852799999965,
                    "velocity": 0.28346456692913385,
                    "duration": 2.170895999999999
                },
                {
                    "name": "D#3",
                    "midi": 51,
                    "time": 93.34852799999965,
                    "velocity": 0.2204724409448819,
                    "duration": 2.170895999999999
                },
                {
                    "name": "B3",
                    "midi": 59,
                    "time": 93.34852799999965,
                    "velocity": 0.28346456692913385,
                    "duration": 2.170895999999999
                },
                {
                    "name": "G3",
                    "midi": 55,
                    "time": 95.51942399999965,
                    "velocity": 0.2440944881889764,
                    "duration": 2.170895999999999
                },
                {
                    "name": "C#4",
                    "midi": 61,
                    "time": 95.51942399999965,
                    "velocity": 0.2440944881889764,
                    "duration": 2.170895999999999
                },
                {
                    "name": "D#3",
                    "midi": 51,
                    "time": 95.51942399999965,
                    "velocity": 0.1968503937007874,
                    "duration": 2.170895999999999
                },
                {
                    "name": "B3",
                    "midi": 59,
                    "time": 105.46936399999964,
                    "velocity": 0.3464566929133858,
                    "duration": 0.1809080000000023
                },
                {
                    "name": "A#3",
                    "midi": 58,
                    "time": 105.65027199999965,
                    "velocity": 0.33070866141732286,
                    "duration": 0.1809080000000023
                },
                {
                    "name": "G#3",
                    "midi": 56,
                    "time": 105.83117999999965,
                    "velocity": 0.33070866141732286,
                    "duration": 0.1809080000000023
                },
                {
                    "name": "G3",
                    "midi": 55,
                    "time": 106.01208799999965,
                    "velocity": 0.3228346456692913,
                    "duration": 0.1809080000000023
                },
                {
                    "name": "F#3",
                    "midi": 54,
                    "time": 106.19299599999965,
                    "velocity": 0.30708661417322836,
                    "duration": 0.1809080000000023
                },
                {
                    "name": "E3",
                    "midi": 52,
                    "time": 106.37390399999965,
                    "velocity": 0.33070866141732286,
                    "duration": 0.1809080000000023
                },
                {
                    "name": "D#3",
                    "midi": 51,
                    "time": 106.55481199999966,
                    "velocity": 0.3228346456692913,
                    "duration": 0.1809080000000023
                },
                {
                    "name": "C#3",
                    "midi": 49,
                    "time": 106.73571999999966,
                    "velocity": 0.3228346456692913,
                    "duration": 0.1809080000000023
                },
                {
                    "name": "B2",
                    "midi": 47,
                    "time": 106.91662799999966,
                    "velocity": 0.31496062992125984,
                    "duration": 0.1809080000000023
                },
                {
                    "name": "A#2",
                    "midi": 46,
                    "time": 107.09753599999966,
                    "velocity": 0.30708661417322836,
                    "duration": 0.1809080000000023
                },
                {
                    "name": "G#2",
                    "midi": 44,
                    "time": 107.27844399999967,
                    "velocity": 0.30708661417322836,
                    "duration": 0.1809080000000023
                },
                {
                    "name": "G2",
                    "midi": 43,
                    "time": 107.45935199999967,
                    "velocity": 0.33070866141732286,
                    "duration": 0.1809080000000023
                },
                {
                    "name": "F#2",
                    "midi": 42,
                    "time": 107.64025999999967,
                    "velocity": 0.3228346456692913,
                    "duration": 0.1809080000000023
                },
                {
                    "name": "F2",
                    "midi": 41,
                    "time": 107.82116799999967,
                    "velocity": 0.3228346456692913,
                    "duration": 0.1809080000000023
                },
                {
                    "name": "D#2",
                    "midi": 39,
                    "time": 108.00207599999968,
                    "velocity": 0.3228346456692913,
                    "duration": 0.1809080000000023
                },
                {
                    "name": "C#2",
                    "midi": 37,
                    "time": 108.18298399999968,
                    "velocity": 0.3228346456692913,
                    "duration": 0.1809080000000023
                },
                {
                    "name": "B1",
                    "midi": 35,
                    "time": 108.36389199999968,
                    "velocity": 0.3228346456692913,
                    "duration": 0.1809080000000023
                },
                {
                    "name": "A#1",
                    "midi": 34,
                    "time": 108.54479999999968,
                    "velocity": 0.33070866141732286,
                    "duration": 0.1809080000000023
                },
                {
                    "name": "B1",
                    "midi": 35,
                    "time": 108.72570799999968,
                    "velocity": 0.33070866141732286,
                    "duration": 0.1809080000000023
                },
                {
                    "name": "C#2",
                    "midi": 37,
                    "time": 108.90661599999969,
                    "velocity": 0.33070866141732286,
                    "duration": 0.1809080000000023
                },
                {
                    "name": "D#2",
                    "midi": 39,
                    "time": 109.08752399999969,
                    "velocity": 0.33070866141732286,
                    "duration": 0.1809080000000023
                },
                {
                    "name": "E2",
                    "midi": 40,
                    "time": 109.26843199999969,
                    "velocity": 0.3228346456692913,
                    "duration": 0.1809080000000023
                },
                {
                    "name": "D#2",
                    "midi": 39,
                    "time": 109.4493399999997,
                    "velocity": 0.30708661417322836,
                    "duration": 0.1809080000000023
                },
                {
                    "name": "C#2",
                    "midi": 37,
                    "time": 109.6302479999997,
                    "velocity": 0.33070866141732286,
                    "duration": 0.1809080000000023
                },
                {
                    "name": "B1",
                    "midi": 35,
                    "time": 109.8111559999997,
                    "velocity": 0.31496062992125984,
                    "duration": 0.1809080000000023
                },
                {
                    "name": "A#1",
                    "midi": 34,
                    "time": 109.9920639999997,
                    "velocity": 0.31496062992125984,
                    "duration": 0.1809080000000023
                },
                {
                    "name": "D#2",
                    "midi": 39,
                    "time": 110.1729719999997,
                    "velocity": 0.3543307086614173,
                    "duration": 0.1809080000000023
                },
                {
                    "name": "C#2",
                    "midi": 37,
                    "time": 110.3538799999997,
                    "velocity": 0.33070866141732286,
                    "duration": 0.1809080000000023
                },
                {
                    "name": "D#2",
                    "midi": 39,
                    "time": 110.53478799999971,
                    "velocity": 0.31496062992125984,
                    "duration": 0.1809080000000023
                },
                {
                    "name": "G#1",
                    "midi": 32,
                    "time": 110.71569599999971,
                    "velocity": 0.5039370078740157,
                    "duration": 0.09045399999999404
                },
                {
                    "name": "D#2",
                    "midi": 39,
                    "time": 110.8061499999997,
                    "velocity": 0.4094488188976378,
                    "duration": 0.09045399999999404
                },
                {
                    "name": "G#2",
                    "midi": 44,
                    "time": 110.8966039999997,
                    "velocity": 0.4094488188976378,
                    "duration": 0.09045399999999404
                },
                {
                    "name": "D#2",
                    "midi": 39,
                    "time": 110.98705799999969,
                    "velocity": 0.4094488188976378,
                    "duration": 0.09045399999999404
                },
                {
                    "name": "G#1",
                    "midi": 32,
                    "time": 111.07751199999969,
                    "velocity": 0.4566929133858268,
                    "duration": 0.09045399999999404
                },
                {
                    "name": "D#2",
                    "midi": 39,
                    "time": 111.16796599999968,
                    "velocity": 0.4015748031496063,
                    "duration": 0.09045399999999404
                },
                {
                    "name": "G#1",
                    "midi": 32,
                    "time": 111.25841999999967,
                    "velocity": 0.5354330708661418,
                    "duration": 0.09045399999999404
                },
                {
                    "name": "D#2",
                    "midi": 39,
                    "time": 111.34887399999967,
                    "velocity": 0.4094488188976378,
                    "duration": 0.09045399999999404
                },
                {
                    "name": "G#1",
                    "midi": 32,
                    "time": 111.43932799999966,
                    "velocity": 0.5039370078740157,
                    "duration": 0.09045399999999404
                },
                {
                    "name": "D#2",
                    "midi": 39,
                    "time": 111.52978199999966,
                    "velocity": 0.4094488188976378,
                    "duration": 0.09045399999999404
                },
                {
                    "name": "G#1",
                    "midi": 32,
                    "time": 111.62023599999965,
                    "velocity": 0.4881889763779528,
                    "duration": 0.09045399999999404
                },
                {
                    "name": "D#2",
                    "midi": 39,
                    "time": 111.71068999999964,
                    "velocity": 0.4094488188976378,
                    "duration": 0.09045399999999404
                },
                {
                    "name": "G#1",
                    "midi": 32,
                    "time": 111.80114399999964,
                    "velocity": 0.5039370078740157,
                    "duration": 0.09045399999999404
                },
                {
                    "name": "D#2",
                    "midi": 39,
                    "time": 111.89159799999963,
                    "velocity": 0.4094488188976378,
                    "duration": 0.09045399999999404
                },
                {
                    "name": "G#2",
                    "midi": 44,
                    "time": 111.98205199999963,
                    "velocity": 0.4094488188976378,
                    "duration": 0.09045399999999404
                },
                {
                    "name": "D#2",
                    "midi": 39,
                    "time": 112.07250599999962,
                    "velocity": 0.4094488188976378,
                    "duration": 0.09045399999999404
                },
                {
                    "name": "G#1",
                    "midi": 32,
                    "time": 112.16295999999961,
                    "velocity": 0.4566929133858268,
                    "duration": 0.09045399999999404
                },
                {
                    "name": "D#2",
                    "midi": 39,
                    "time": 112.25341399999961,
                    "velocity": 0.4015748031496063,
                    "duration": 0.09045399999999404
                },
                {
                    "name": "G#1",
                    "midi": 32,
                    "time": 112.3438679999996,
                    "velocity": 0.5354330708661418,
                    "duration": 0.09045399999999404
                },
                {
                    "name": "D#2",
                    "midi": 39,
                    "time": 112.4343219999996,
                    "velocity": 0.4094488188976378,
                    "duration": 0.09045399999999404
                },
                {
                    "name": "G#1",
                    "midi": 32,
                    "time": 112.52477599999959,
                    "velocity": 0.5039370078740157,
                    "duration": 0.09045399999999404
                },
                {
                    "name": "D#2",
                    "midi": 39,
                    "time": 112.61522999999958,
                    "velocity": 0.4094488188976378,
                    "duration": 0.09045399999999404
                },
                {
                    "name": "G#1",
                    "midi": 32,
                    "time": 112.70568399999958,
                    "velocity": 0.4881889763779528,
                    "duration": 0.09045399999999404
                },
                {
                    "name": "D#2",
                    "midi": 39,
                    "time": 112.79613799999957,
                    "velocity": 0.4094488188976378,
                    "duration": 0.09045399999999404
                },
                {
                    "name": "G#1",
                    "midi": 32,
                    "time": 112.88659199999957,
                    "velocity": 0.5039370078740157,
                    "duration": 0.09045399999999404
                },
                {
                    "name": "E2",
                    "midi": 40,
                    "time": 112.97704599999956,
                    "velocity": 0.4094488188976378,
                    "duration": 0.09045399999999404
                },
                {
                    "name": "G#2",
                    "midi": 44,
                    "time": 113.06749999999955,
                    "velocity": 0.4094488188976378,
                    "duration": 0.09045399999999404
                },
                {
                    "name": "E2",
                    "midi": 40,
                    "time": 113.15795399999955,
                    "velocity": 0.4094488188976378,
                    "duration": 0.09045399999999404
                },
                {
                    "name": "G#1",
                    "midi": 32,
                    "time": 113.24840799999954,
                    "velocity": 0.4566929133858268,
                    "duration": 0.09045399999999404
                },
                {
                    "name": "E2",
                    "midi": 40,
                    "time": 113.33886199999954,
                    "velocity": 0.4015748031496063,
                    "duration": 0.09045399999999404
                },
                {
                    "name": "G#1",
                    "midi": 32,
                    "time": 113.42931599999953,
                    "velocity": 0.5354330708661418,
                    "duration": 0.09045399999999404
                },
                {
                    "name": "E2",
                    "midi": 40,
                    "time": 113.51976999999953,
                    "velocity": 0.4094488188976378,
                    "duration": 0.09045399999999404
                },
                {
                    "name": "G#1",
                    "midi": 32,
                    "time": 113.61022399999952,
                    "velocity": 0.5039370078740157,
                    "duration": 0.09045399999999404
                },
                {
                    "name": "E2",
                    "midi": 40,
                    "time": 113.70067799999951,
                    "velocity": 0.4094488188976378,
                    "duration": 0.09045399999999404
                },
                {
                    "name": "G#1",
                    "midi": 32,
                    "time": 113.79113199999951,
                    "velocity": 0.4881889763779528,
                    "duration": 0.09045399999999404
                },
                {
                    "name": "E2",
                    "midi": 40,
                    "time": 113.8815859999995,
                    "velocity": 0.4094488188976378,
                    "duration": 0.09045399999999404
                },
                {
                    "name": "G#1",
                    "midi": 32,
                    "time": 113.9720399999995,
                    "velocity": 0.5039370078740157,
                    "duration": 0.09045399999999404
                },
                {
                    "name": "E2",
                    "midi": 40,
                    "time": 114.06249399999949,
                    "velocity": 0.4094488188976378,
                    "duration": 0.09045399999999404
                },
                {
                    "name": "G#2",
                    "midi": 44,
                    "time": 114.15294799999948,
                    "velocity": 0.4094488188976378,
                    "duration": 0.09045399999999404
                },
                {
                    "name": "E2",
                    "midi": 40,
                    "time": 114.24340199999948,
                    "velocity": 0.4094488188976378,
                    "duration": 0.09045399999999404
                },
                {
                    "name": "G#1",
                    "midi": 32,
                    "time": 114.33385599999947,
                    "velocity": 0.4566929133858268,
                    "duration": 0.09045399999999404
                },
                {
                    "name": "E2",
                    "midi": 40,
                    "time": 114.42430999999947,
                    "velocity": 0.4015748031496063,
                    "duration": 0.09045399999999404
                },
                {
                    "name": "G#1",
                    "midi": 32,
                    "time": 114.51476399999946,
                    "velocity": 0.5354330708661418,
                    "duration": 0.09045399999999404
                },
                {
                    "name": "E2",
                    "midi": 40,
                    "time": 114.60521799999945,
                    "velocity": 0.4094488188976378,
                    "duration": 0.09045399999999404
                },
                {
                    "name": "G#1",
                    "midi": 32,
                    "time": 114.69567199999945,
                    "velocity": 0.5039370078740157,
                    "duration": 0.09045399999999404
                },
                {
                    "name": "E2",
                    "midi": 40,
                    "time": 114.78612599999944,
                    "velocity": 0.4094488188976378,
                    "duration": 0.09045399999999404
                },
                {
                    "name": "G#1",
                    "midi": 32,
                    "time": 114.87657999999944,
                    "velocity": 0.4881889763779528,
                    "duration": 0.09045399999999404
                },
                {
                    "name": "E2",
                    "midi": 40,
                    "time": 114.96703399999943,
                    "velocity": 0.4094488188976378,
                    "duration": 0.09045399999999404
                },
                {
                    "name": "A1",
                    "midi": 33,
                    "time": 115.05748799999942,
                    "velocity": 0.7086614173228346,
                    "duration": 1.6281720000000064
                },
                {
                    "name": "A2",
                    "midi": 45,
                    "time": 115.05748799999942,
                    "velocity": 0.8346456692913385,
                    "duration": 1.6281720000000064
                },
                {
                    "name": "A#2",
                    "midi": 46,
                    "time": 116.68565999999943,
                    "velocity": 0.6929133858267716,
                    "duration": 0.1809080000000023
                },
                {
                    "name": "A#1",
                    "midi": 34,
                    "time": 116.68565999999943,
                    "velocity": 0.5826771653543307,
                    "duration": 0.1809080000000023
                },
                {
                    "name": "C#2",
                    "midi": 37,
                    "time": 116.86656799999943,
                    "velocity": 0.5669291338582677,
                    "duration": 0.1809080000000023
                },
                {
                    "name": "E2",
                    "midi": 40,
                    "time": 117.04747599999943,
                    "velocity": 0.6456692913385826,
                    "duration": 0.1809080000000023
                },
                {
                    "name": "G2",
                    "midi": 43,
                    "time": 117.22838399999944,
                    "velocity": 0.7480314960629921,
                    "duration": 0.1809080000000023
                },
                {
                    "name": "A#2",
                    "midi": 46,
                    "time": 117.40929199999944,
                    "velocity": 0.6456692913385826,
                    "duration": 0.1809080000000023
                },
                {
                    "name": "C#3",
                    "midi": 49,
                    "time": 117.59019999999944,
                    "velocity": 0.6456692913385826,
                    "duration": 0.1809080000000023
                },
                {
                    "name": "E3",
                    "midi": 52,
                    "time": 117.77110799999944,
                    "velocity": 0.6692913385826772,
                    "duration": 0.17337016666667182
                },
                {
                    "name": "E3",
                    "midi": 52,
                    "time": 117.95201599999945,
                    "velocity": 0.6535433070866141,
                    "duration": 0.17337016666667182
                },
                {
                    "name": "E3",
                    "midi": 52,
                    "time": 118.13292399999945,
                    "velocity": 0.6535433070866141,
                    "duration": 0.17337016666667182
                },
                {
                    "name": "E3",
                    "midi": 52,
                    "time": 118.31383199999945,
                    "velocity": 0.7637795275590551,
                    "duration": 0.5427240000000069
                },
                {
                    "name": "D#3",
                    "midi": 51,
                    "time": 118.85655599999946,
                    "velocity": 0.7007874015748031,
                    "duration": 0.5427240000000069
                },
                {
                    "name": "G#2",
                    "midi": 44,
                    "time": 119.39927999999946,
                    "velocity": 0.5039370078740157,
                    "duration": 0.09045399999999404
                },
                {
                    "name": "D#3",
                    "midi": 51,
                    "time": 119.48973399999946,
                    "velocity": 0.4094488188976378,
                    "duration": 0.09045399999999404
                },
                {
                    "name": "G#3",
                    "midi": 56,
                    "time": 119.58018799999945,
                    "velocity": 0.4094488188976378,
                    "duration": 0.09045399999999404
                },
                {
                    "name": "D#3",
                    "midi": 51,
                    "time": 119.67064199999945,
                    "velocity": 0.4094488188976378,
                    "duration": 0.09045399999999404
                },
                {
                    "name": "G#2",
                    "midi": 44,
                    "time": 119.76109599999944,
                    "velocity": 0.4566929133858268,
                    "duration": 0.09045399999999404
                },
                {
                    "name": "D#3",
                    "midi": 51,
                    "time": 119.85154999999943,
                    "velocity": 0.4015748031496063,
                    "duration": 0.09045399999999404
                },
                {
                    "name": "G#2",
                    "midi": 44,
                    "time": 119.94200399999943,
                    "velocity": 0.5354330708661418,
                    "duration": 0.09045399999999404
                },
                {
                    "name": "D#3",
                    "midi": 51,
                    "time": 120.03245799999942,
                    "velocity": 0.4094488188976378,
                    "duration": 0.09045399999999404
                },
                {
                    "name": "G#2",
                    "midi": 44,
                    "time": 120.12291199999942,
                    "velocity": 0.5039370078740157,
                    "duration": 0.09045399999999404
                },
                {
                    "name": "D#3",
                    "midi": 51,
                    "time": 120.21336599999941,
                    "velocity": 0.4094488188976378,
                    "duration": 0.09045399999999404
                },
                {
                    "name": "G#2",
                    "midi": 44,
                    "time": 120.3038199999994,
                    "velocity": 0.4881889763779528,
                    "duration": 0.09045399999999404
                },
                {
                    "name": "D#3",
                    "midi": 51,
                    "time": 120.3942739999994,
                    "velocity": 0.4094488188976378,
                    "duration": 0.09045399999999404
                },
                {
                    "name": "G#2",
                    "midi": 44,
                    "time": 120.4847279999994,
                    "velocity": 0.5039370078740157,
                    "duration": 0.09045399999999404
                },
                {
                    "name": "D#3",
                    "midi": 51,
                    "time": 120.57518199999939,
                    "velocity": 0.4094488188976378,
                    "duration": 0.09045399999999404
                },
                {
                    "name": "G#3",
                    "midi": 56,
                    "time": 120.66563599999938,
                    "velocity": 0.4094488188976378,
                    "duration": 0.09045399999999404
                },
                {
                    "name": "D#3",
                    "midi": 51,
                    "time": 120.75608999999938,
                    "velocity": 0.4094488188976378,
                    "duration": 0.09045399999999404
                },
                {
                    "name": "G#2",
                    "midi": 44,
                    "time": 120.84654399999937,
                    "velocity": 0.4566929133858268,
                    "duration": 0.09045399999999404
                },
                {
                    "name": "D#3",
                    "midi": 51,
                    "time": 120.93699799999936,
                    "velocity": 0.4015748031496063,
                    "duration": 0.09045399999999404
                },
                {
                    "name": "G#2",
                    "midi": 44,
                    "time": 121.02745199999936,
                    "velocity": 0.5354330708661418,
                    "duration": 0.09045399999999404
                },
                {
                    "name": "D#3",
                    "midi": 51,
                    "time": 121.11790599999935,
                    "velocity": 0.4094488188976378,
                    "duration": 0.09045399999999404
                },
                {
                    "name": "G#2",
                    "midi": 44,
                    "time": 121.20835999999935,
                    "velocity": 0.5039370078740157,
                    "duration": 0.09045399999999404
                },
                {
                    "name": "D#3",
                    "midi": 51,
                    "time": 121.29881399999934,
                    "velocity": 0.4094488188976378,
                    "duration": 0.09045399999999404
                },
                {
                    "name": "G#2",
                    "midi": 44,
                    "time": 121.38926799999933,
                    "velocity": 0.4881889763779528,
                    "duration": 0.09045399999999404
                },
                {
                    "name": "D#3",
                    "midi": 51,
                    "time": 121.47972199999933,
                    "velocity": 0.4094488188976378,
                    "duration": 0.09045399999999404
                },
                {
                    "name": "G#2",
                    "midi": 44,
                    "time": 121.57017599999932,
                    "velocity": 0.5039370078740157,
                    "duration": 0.09045399999999404
                },
                {
                    "name": "E3",
                    "midi": 52,
                    "time": 121.66062999999932,
                    "velocity": 0.4094488188976378,
                    "duration": 0.09045399999999404
                },
                {
                    "name": "G#3",
                    "midi": 56,
                    "time": 121.75108399999931,
                    "velocity": 0.4094488188976378,
                    "duration": 0.09045399999999404
                },
                {
                    "name": "E3",
                    "midi": 52,
                    "time": 121.8415379999993,
                    "velocity": 0.4094488188976378,
                    "duration": 0.09045399999999404
                },
                {
                    "name": "G#2",
                    "midi": 44,
                    "time": 121.9319919999993,
                    "velocity": 0.4566929133858268,
                    "duration": 0.09045399999999404
                },
                {
                    "name": "E3",
                    "midi": 52,
                    "time": 122.02244599999929,
                    "velocity": 0.4015748031496063,
                    "duration": 0.09045399999999404
                },
                {
                    "name": "G#2",
                    "midi": 44,
                    "time": 122.11289999999929,
                    "velocity": 0.5354330708661418,
                    "duration": 0.09045399999999404
                },
                {
                    "name": "E3",
                    "midi": 52,
                    "time": 122.20335399999928,
                    "velocity": 0.4094488188976378,
                    "duration": 0.09045399999999404
                },
                {
                    "name": "G#2",
                    "midi": 44,
                    "time": 122.29380799999927,
                    "velocity": 0.5039370078740157,
                    "duration": 0.09045399999999404
                },
                {
                    "name": "E3",
                    "midi": 52,
                    "time": 122.38426199999927,
                    "velocity": 0.4094488188976378,
                    "duration": 0.09045399999999404
                },
                {
                    "name": "G#2",
                    "midi": 44,
                    "time": 122.47471599999926,
                    "velocity": 0.4881889763779528,
                    "duration": 0.09045399999999404
                },
                {
                    "name": "E3",
                    "midi": 52,
                    "time": 122.56516999999926,
                    "velocity": 0.4094488188976378,
                    "duration": 0.09045399999999404
                },
                {
                    "name": "G#2",
                    "midi": 44,
                    "time": 122.65562399999925,
                    "velocity": 0.5039370078740157,
                    "duration": 0.09045399999999404
                },
                {
                    "name": "E3",
                    "midi": 52,
                    "time": 122.74607799999924,
                    "velocity": 0.4094488188976378,
                    "duration": 0.09045399999999404
                },
                {
                    "name": "G#3",
                    "midi": 56,
                    "time": 122.83653199999924,
                    "velocity": 0.4094488188976378,
                    "duration": 0.09045399999999404
                },
                {
                    "name": "E3",
                    "midi": 52,
                    "time": 122.92698599999923,
                    "velocity": 0.4094488188976378,
                    "duration": 0.09045399999999404
                },
                {
                    "name": "G#2",
                    "midi": 44,
                    "time": 123.01743999999923,
                    "velocity": 0.4566929133858268,
                    "duration": 0.09045399999999404
                },
                {
                    "name": "E3",
                    "midi": 52,
                    "time": 123.10789399999922,
                    "velocity": 0.4015748031496063,
                    "duration": 0.09045399999999404
                },
                {
                    "name": "G#2",
                    "midi": 44,
                    "time": 123.19834799999921,
                    "velocity": 0.5354330708661418,
                    "duration": 0.09045399999999404
                },
                {
                    "name": "E3",
                    "midi": 52,
                    "time": 123.28880199999921,
                    "velocity": 0.4094488188976378,
                    "duration": 0.09045399999999404
                },
                {
                    "name": "G#2",
                    "midi": 44,
                    "time": 123.3792559999992,
                    "velocity": 0.5039370078740157,
                    "duration": 0.09045399999999404
                },
                {
                    "name": "E3",
                    "midi": 52,
                    "time": 123.4697099999992,
                    "velocity": 0.4094488188976378,
                    "duration": 0.09045399999999404
                },
                {
                    "name": "G#2",
                    "midi": 44,
                    "time": 123.56016399999919,
                    "velocity": 0.4881889763779528,
                    "duration": 0.09045399999999404
                },
                {
                    "name": "E3",
                    "midi": 52,
                    "time": 123.65061799999918,
                    "velocity": 0.4094488188976378,
                    "duration": 0.09045399999999404
                },
                {
                    "name": "A3",
                    "midi": 57,
                    "time": 123.74107199999918,
                    "velocity": 0.8346456692913385,
                    "duration": 1.6281720000000064
                },
                {
                    "name": "A2",
                    "midi": 45,
                    "time": 123.74107199999918,
                    "velocity": 0.7086614173228346,
                    "duration": 1.6281720000000064
                },
                {
                    "name": "A#2",
                    "midi": 46,
                    "time": 125.36924399999918,
                    "velocity": 0.4645669291338583,
                    "duration": 0.1809080000000023
                },
                {
                    "name": "A#3",
                    "midi": 58,
                    "time": 125.36924399999918,
                    "velocity": 0.6929133858267716,
                    "duration": 0.1809080000000023
                },
                {
                    "name": "C#4",
                    "midi": 61,
                    "time": 125.55015199999919,
                    "velocity": 0.5669291338582677,
                    "duration": 0.1809080000000023
                },
                {
                    "name": "C#3",
                    "midi": 49,
                    "time": 125.55015199999919,
                    "velocity": 0.4566929133858268,
                    "duration": 0.1809080000000023
                },
                {
                    "name": "E4",
                    "midi": 64,
                    "time": 125.73105999999919,
                    "velocity": 0.6456692913385826,
                    "duration": 0.1809080000000023
                },
                {
                    "name": "E3",
                    "midi": 52,
                    "time": 125.73105999999919,
                    "velocity": 0.49606299212598426,
                    "duration": 0.1809080000000023
                },
                {
                    "name": "G4",
                    "midi": 67,
                    "time": 125.91196799999919,
                    "velocity": 0.7480314960629921,
                    "duration": 0.1809080000000023
                },
                {
                    "name": "G3",
                    "midi": 55,
                    "time": 125.91196799999919,
                    "velocity": 0.5905511811023622,
                    "duration": 0.1809080000000023
                },
                {
                    "name": "A#4",
                    "midi": 70,
                    "time": 126.0928759999992,
                    "velocity": 0.6456692913385826,
                    "duration": 0.1809080000000023
                },
                {
                    "name": "A#3",
                    "midi": 58,
                    "time": 126.0928759999992,
                    "velocity": 0.49606299212598426,
                    "duration": 0.1809080000000023
                },
                {
                    "name": "C#5",
                    "midi": 73,
                    "time": 126.2737839999992,
                    "velocity": 0.6456692913385826,
                    "duration": 0.1809080000000023
                },
                {
                    "name": "C#4",
                    "midi": 61,
                    "time": 126.2737839999992,
                    "velocity": 0.49606299212598426,
                    "duration": 0.1809080000000023
                },
                {
                    "name": "E4",
                    "midi": 64,
                    "time": 126.4546919999992,
                    "velocity": 0.5354330708661418,
                    "duration": 0.17337016666667182
                },
                {
                    "name": "E5",
                    "midi": 76,
                    "time": 126.4546919999992,
                    "velocity": 0.6692913385826772,
                    "duration": 0.17337016666667182
                },
                {
                    "name": "E5",
                    "midi": 76,
                    "time": 126.6355999999992,
                    "velocity": 0.6535433070866141,
                    "duration": 0.17337016666667182
                },
                {
                    "name": "E4",
                    "midi": 64,
                    "time": 126.6355999999992,
                    "velocity": 0.5039370078740157,
                    "duration": 0.17337016666667182
                },
                {
                    "name": "E5",
                    "midi": 76,
                    "time": 126.8165079999992,
                    "velocity": 0.6535433070866141,
                    "duration": 0.17337016666667182
                },
                {
                    "name": "E4",
                    "midi": 64,
                    "time": 126.8165079999992,
                    "velocity": 0.5039370078740157,
                    "duration": 0.17337016666667182
                },
                {
                    "name": "E4",
                    "midi": 64,
                    "time": 126.9974159999992,
                    "velocity": 0.6299212598425197,
                    "duration": 0.5427240000000069
                },
                {
                    "name": "E5",
                    "midi": 76,
                    "time": 126.9974159999992,
                    "velocity": 0.8031496062992126,
                    "duration": 0.5427240000000069
                },
                {
                    "name": "D#5",
                    "midi": 75,
                    "time": 127.54013999999921,
                    "velocity": 0.6771653543307087,
                    "duration": 0.5427239999999927
                },
                {
                    "name": "D#4",
                    "midi": 63,
                    "time": 127.54013999999921,
                    "velocity": 0.5433070866141733,
                    "duration": 0.5427239999999927
                },
                {
                    "name": "G#4",
                    "midi": 68,
                    "time": 128.0828639999992,
                    "velocity": 0.8031496062992126,
                    "duration": 0.5427239999999927
                },
                {
                    "name": "G4",
                    "midi": 67,
                    "time": 128.6255879999992,
                    "velocity": 0.6771653543307087,
                    "duration": 0.5427239999999927
                },
                {
                    "name": "E5",
                    "midi": 76,
                    "time": 129.1683119999992,
                    "velocity": 0.8031496062992126,
                    "duration": 0.5427239999999927
                },
                {
                    "name": "D#5",
                    "midi": 75,
                    "time": 129.71103599999918,
                    "velocity": 0.6771653543307087,
                    "duration": 0.5427239999999927
                },
                {
                    "name": "D5",
                    "midi": 74,
                    "time": 130.25375999999918,
                    "velocity": 0.7637795275590551,
                    "duration": 1.0854479999999853
                },
                {
                    "name": "F5",
                    "midi": 77,
                    "time": 130.34421399999917,
                    "velocity": 0.7165354330708661,
                    "duration": 0.9949939999999913
                },
                {
                    "name": "G#5",
                    "midi": 80,
                    "time": 130.43466799999916,
                    "velocity": 0.7637795275590551,
                    "duration": 0.9045399999999972
                },
                {
                    "name": "D#5",
                    "midi": 75,
                    "time": 131.33920799999916,
                    "velocity": 0.6692913385826772,
                    "duration": 1.0854479999999853
                },
                {
                    "name": "G5",
                    "midi": 79,
                    "time": 131.42966199999915,
                    "velocity": 0.6062992125984252,
                    "duration": 0.9949939999999913
                },
                {
                    "name": "G#4",
                    "midi": 68,
                    "time": 132.42465599999915,
                    "velocity": 0.3543307086614173,
                    "duration": 0.5427239999999927
                },
                {
                    "name": "B4",
                    "midi": 71,
                    "time": 132.42465599999915,
                    "velocity": 0.3543307086614173,
                    "duration": 0.5427239999999927
                },
                {
                    "name": "C#5",
                    "midi": 73,
                    "time": 132.96737999999914,
                    "velocity": 0.3464566929133858,
                    "duration": 0.5427239999999927
                },
                {
                    "name": "E5",
                    "midi": 76,
                    "time": 132.96737999999914,
                    "velocity": 0.3464566929133858,
                    "duration": 0.5427239999999927
                },
                {
                    "name": "B4",
                    "midi": 71,
                    "time": 133.51010399999913,
                    "velocity": 0.3543307086614173,
                    "duration": 0.5427239999999927
                },
                {
                    "name": "D#5",
                    "midi": 75,
                    "time": 133.51010399999913,
                    "velocity": 0.3543307086614173,
                    "duration": 0.5427239999999927
                },
                {
                    "name": "D#5",
                    "midi": 75,
                    "time": 134.05282799999912,
                    "velocity": 0.47244094488188976,
                    "duration": 0.5427239999999927
                },
                {
                    "name": "A#4",
                    "midi": 70,
                    "time": 134.05282799999912,
                    "velocity": 0.47244094488188976,
                    "duration": 0.5427239999999927
                },
                {
                    "name": "C#5",
                    "midi": 73,
                    "time": 134.05282799999912,
                    "velocity": 0.47244094488188976,
                    "duration": 0.5427239999999927
                },
                {
                    "name": "G#4",
                    "midi": 68,
                    "time": 134.59555199999912,
                    "velocity": 0.3543307086614173,
                    "duration": 0.5427239999999927
                },
                {
                    "name": "B4",
                    "midi": 71,
                    "time": 134.59555199999912,
                    "velocity": 0.3543307086614173,
                    "duration": 0.5427239999999927
                },
                {
                    "name": "C#4",
                    "midi": 61,
                    "time": 135.1382759999991,
                    "velocity": 0.3464566929133858,
                    "duration": 0.5427239999999927
                },
                {
                    "name": "E4",
                    "midi": 64,
                    "time": 135.1382759999991,
                    "velocity": 0.3464566929133858,
                    "duration": 0.5427239999999927
                },
                {
                    "name": "B3",
                    "midi": 59,
                    "time": 135.6809999999991,
                    "velocity": 0.3543307086614173,
                    "duration": 0.5427239999999927
                },
                {
                    "name": "D#4",
                    "midi": 63,
                    "time": 135.6809999999991,
                    "velocity": 0.3543307086614173,
                    "duration": 0.5427239999999927
                },
                {
                    "name": "A#3",
                    "midi": 58,
                    "time": 136.2237239999991,
                    "velocity": 0.47244094488188976,
                    "duration": 0.5427239999999927
                },
                {
                    "name": "C#4",
                    "midi": 61,
                    "time": 136.2237239999991,
                    "velocity": 0.47244094488188976,
                    "duration": 0.5427239999999927
                },
                {
                    "name": "D#4",
                    "midi": 63,
                    "time": 136.2237239999991,
                    "velocity": 0.47244094488188976,
                    "duration": 0.5427239999999927
                },
                {
                    "name": "B3",
                    "midi": 59,
                    "time": 136.7664479999991,
                    "velocity": 0.3543307086614173,
                    "duration": 0.5427239999999927
                },
                {
                    "name": "G#3",
                    "midi": 56,
                    "time": 136.7664479999991,
                    "velocity": 0.3543307086614173,
                    "duration": 0.5427239999999927
                },
                {
                    "name": "E3",
                    "midi": 52,
                    "time": 137.30917199999908,
                    "velocity": 0.3464566929133858,
                    "duration": 0.5427239999999927
                },
                {
                    "name": "C#3",
                    "midi": 49,
                    "time": 137.30917199999908,
                    "velocity": 0.3464566929133858,
                    "duration": 0.5427239999999927
                },
                {
                    "name": "D#3",
                    "midi": 51,
                    "time": 137.85189599999907,
                    "velocity": 0.3543307086614173,
                    "duration": 0.5427239999999927
                },
                {
                    "name": "B2",
                    "midi": 47,
                    "time": 137.85189599999907,
                    "velocity": 0.3543307086614173,
                    "duration": 0.5427239999999927
                },
                {
                    "name": "D#3",
                    "midi": 51,
                    "time": 138.39461999999907,
                    "velocity": 0.47244094488188976,
                    "duration": 0.5427239999999927
                },
                {
                    "name": "C#3",
                    "midi": 49,
                    "time": 138.39461999999907,
                    "velocity": 0.47244094488188976,
                    "duration": 0.5427239999999927
                },
                {
                    "name": "A#2",
                    "midi": 46,
                    "time": 138.39461999999907,
                    "velocity": 0.47244094488188976,
                    "duration": 0.5427239999999927
                },
                {
                    "name": "G#2",
                    "midi": 44,
                    "time": 138.93734399999906,
                    "velocity": 0.3779527559055118,
                    "duration": 1.0854480000000137
                },
                {
                    "name": "D#2",
                    "midi": 39,
                    "time": 140.02279199999907,
                    "velocity": 0.2992125984251969,
                    "duration": 0.5427239999999927
                },
                {
                    "name": "B1",
                    "midi": 35,
                    "time": 140.56551599999906,
                    "velocity": 0.23622047244094488,
                    "duration": 0.5427239999999927
                },
                {
                    "name": "G#1",
                    "midi": 32,
                    "time": 141.10823999999906,
                    "velocity": 0.2125984251968504,
                    "duration": 1.6281720000000064
                },
                {
                    "name": "B2",
                    "midi": 47,
                    "time": 142.73641199999906,
                    "velocity": 0.2125984251968504,
                    "duration": 0.4522699999999986
                },
                {
                    "name": "G#2",
                    "midi": 44,
                    "time": 143.18868199999906,
                    "velocity": 0.1968503937007874,
                    "duration": 0.09045399999999404
                },
                {
                    "name": "D#2",
                    "midi": 39,
                    "time": 143.27913599999906,
                    "velocity": 0.1732283464566929,
                    "duration": 1.6281720000000064
                },
                {
                    "name": "B2",
                    "midi": 47,
                    "time": 144.90730799999906,
                    "velocity": 0.2125984251968504,
                    "duration": 0.4522699999999986
                },
                {
                    "name": "G#2",
                    "midi": 44,
                    "time": 145.35957799999906,
                    "velocity": 0.1968503937007874,
                    "duration": 0.09045399999999404
                },
                {
                    "name": "E2",
                    "midi": 40,
                    "time": 145.45003199999906,
                    "velocity": 0.1732283464566929,
                    "duration": 1.6281720000000064
                },
                {
                    "name": "G#2",
                    "midi": 44,
                    "time": 147.07820399999906,
                    "velocity": 0.2125984251968504,
                    "duration": 0.4522699999999986
                },
                {
                    "name": "B2",
                    "midi": 47,
                    "time": 147.53047399999906,
                    "velocity": 0.1889763779527559,
                    "duration": 0.09045399999999404
                },
                {
                    "name": "E3",
                    "midi": 52,
                    "time": 147.62092799999905,
                    "velocity": 0.2125984251968504,
                    "duration": 0.5427239999999927
                },
                {
                    "name": "G#3",
                    "midi": 56,
                    "time": 148.16365199999905,
                    "velocity": 0.2204724409448819,
                    "duration": 0.4522699999999986
                },
                {
                    "name": "B3",
                    "midi": 59,
                    "time": 148.61592199999905,
                    "velocity": 0.1968503937007874,
                    "duration": 0.09045399999999404
                },
                {
                    "name": "E4",
                    "midi": 64,
                    "time": 148.70637599999904,
                    "velocity": 0.2204724409448819,
                    "duration": 0.5389550833333203
                },
                {
                    "name": "E3",
                    "midi": 52,
                    "time": 149.24909999999903,
                    "velocity": 0.2125984251968504,
                    "duration": 0.5427239999999927
                },
                {
                    "name": "F#3",
                    "midi": 54,
                    "time": 149.79182399999902,
                    "velocity": 0.2047244094488189,
                    "duration": 1.0854480000000137
                },
                {
                    "name": "D#3",
                    "midi": 51,
                    "time": 149.79182399999902,
                    "velocity": 0.2047244094488189,
                    "duration": 1.0854480000000137
                },
                {
                    "name": "B3",
                    "midi": 59,
                    "time": 149.79182399999902,
                    "velocity": 0.2047244094488189,
                    "duration": 1.0854480000000137
                },
                {
                    "name": "E3",
                    "midi": 52,
                    "time": 150.87727199999904,
                    "velocity": 0.2047244094488189,
                    "duration": 1.0854480000000137
                },
                {
                    "name": "A#3",
                    "midi": 58,
                    "time": 150.87727199999904,
                    "velocity": 0.2047244094488189,
                    "duration": 1.0854480000000137
                },
                {
                    "name": "G3",
                    "midi": 55,
                    "time": 150.87727199999904,
                    "velocity": 0.2047244094488189,
                    "duration": 1.0854480000000137
                },
                {
                    "name": "F#3",
                    "midi": 54,
                    "time": 151.96271999999905,
                    "velocity": 0.1732283464566929,
                    "duration": 0.3618160000000046
                },
                {
                    "name": "D#3",
                    "midi": 51,
                    "time": 151.96271999999905,
                    "velocity": 0.14960629921259844,
                    "duration": 0.3618160000000046
                },
                {
                    "name": "B3",
                    "midi": 59,
                    "time": 151.96271999999905,
                    "velocity": 0.2047244094488189,
                    "duration": 0.3618160000000046
                },
                {
                    "name": "C#5",
                    "midi": 73,
                    "time": 154.13361599999905,
                    "velocity": 0.2047244094488189,
                    "duration": 1.0854480000000137
                },
                {
                    "name": "A4",
                    "midi": 69,
                    "time": 154.13361599999905,
                    "velocity": 0.2047244094488189,
                    "duration": 1.0854480000000137
                },
                {
                    "name": "B4",
                    "midi": 71,
                    "time": 155.21906399999907,
                    "velocity": 0.2204724409448819,
                    "duration": 1.0854480000000137
                },
                {
                    "name": "D5",
                    "midi": 74,
                    "time": 155.21906399999907,
                    "velocity": 0.2204724409448819,
                    "duration": 1.0854480000000137
                },
                {
                    "name": "A4",
                    "midi": 69,
                    "time": 156.30451199999908,
                    "velocity": 0.1732283464566929,
                    "duration": 0.3618160000000046
                },
                {
                    "name": "C#5",
                    "midi": 73,
                    "time": 156.30451199999908,
                    "velocity": 0.2047244094488189,
                    "duration": 0.3618160000000046
                },
                {
                    "name": "B3",
                    "midi": 59,
                    "time": 158.47540799999908,
                    "velocity": 0.2047244094488189,
                    "duration": 1.0854480000000137
                },
                {
                    "name": "G#3",
                    "midi": 56,
                    "time": 158.47540799999908,
                    "velocity": 0.2047244094488189,
                    "duration": 1.0854480000000137
                },
                {
                    "name": "A3",
                    "midi": 57,
                    "time": 159.5608559999991,
                    "velocity": 0.2204724409448819,
                    "duration": 1.0854480000000137
                },
                {
                    "name": "C4",
                    "midi": 60,
                    "time": 159.5608559999991,
                    "velocity": 0.2204724409448819,
                    "duration": 1.0854480000000137
                },
                {
                    "name": "G#3",
                    "midi": 56,
                    "time": 160.6463039999991,
                    "velocity": 0.1732283464566929,
                    "duration": 0.5427239999999927
                },
                {
                    "name": "B3",
                    "midi": 59,
                    "time": 160.6463039999991,
                    "velocity": 0.2047244094488189,
                    "duration": 0.5427239999999927
                },
                {
                    "name": "F#2",
                    "midi": 42,
                    "time": 161.1890279999991,
                    "velocity": 0.3464566929133858,
                    "duration": 1.0854480000000137
                },
                {
                    "name": "A2",
                    "midi": 45,
                    "time": 162.2744759999991,
                    "velocity": 0.31496062992125984,
                    "duration": 0.5427239999999927
                },
                {
                    "name": "B2",
                    "midi": 47,
                    "time": 162.8171999999991,
                    "velocity": 0.2755905511811024,
                    "duration": 1.0854480000000137
                },
                {
                    "name": "B1",
                    "midi": 35,
                    "time": 163.90264799999912,
                    "velocity": 0.23622047244094488,
                    "duration": 1.0854480000000137
                },
                {
                    "name": "B4",
                    "midi": 71,
                    "time": 164.98809599999913,
                    "velocity": 0.2047244094488189,
                    "duration": 1.0854480000000137
                },
                {
                    "name": "G#4",
                    "midi": 68,
                    "time": 164.98809599999913,
                    "velocity": 0.2047244094488189,
                    "duration": 1.0854480000000137
                },
                {
                    "name": "A4",
                    "midi": 69,
                    "time": 166.07354399999915,
                    "velocity": 0.2204724409448819,
                    "duration": 1.0854480000000137
                },
                {
                    "name": "C5",
                    "midi": 72,
                    "time": 166.07354399999915,
                    "velocity": 0.2204724409448819,
                    "duration": 1.0854480000000137
                },
                {
                    "name": "G#4",
                    "midi": 68,
                    "time": 167.15899199999916,
                    "velocity": 0.1732283464566929,
                    "duration": 0.5427239999999927
                },
                {
                    "name": "B4",
                    "midi": 71,
                    "time": 167.15899199999916,
                    "velocity": 0.2047244094488189,
                    "duration": 0.5427239999999927
                },
                {
                    "name": "F#4",
                    "midi": 66,
                    "time": 167.70171599999915,
                    "velocity": 0.3464566929133858,
                    "duration": 1.0854480000000137
                },
                {
                    "name": "F#3",
                    "midi": 54,
                    "time": 167.70171599999915,
                    "velocity": 0.2992125984251969,
                    "duration": 1.0854480000000137
                },
                {
                    "name": "A3",
                    "midi": 57,
                    "time": 168.78716399999917,
                    "velocity": 0.31496062992125984,
                    "duration": 0.5427239999999927
                },
                {
                    "name": "B3",
                    "midi": 59,
                    "time": 169.32988799999916,
                    "velocity": 0.2755905511811024,
                    "duration": 1.0854480000000137
                },
                {
                    "name": "B2",
                    "midi": 47,
                    "time": 170.41533599999917,
                    "velocity": 0.23622047244094488,
                    "duration": 0.3618160000000046
                },
                {
                    "name": "B2",
                    "midi": 47,
                    "time": 170.95805999999916,
                    "velocity": 0.6535433070866141,
                    "duration": 0.4522699999999986
                },
                {
                    "name": "G2",
                    "midi": 43,
                    "time": 171.41032999999916,
                    "velocity": 0.5905511811023622,
                    "duration": 0.09045399999999404
                },
                {
                    "name": "E2",
                    "midi": 40,
                    "time": 171.50078399999916,
                    "velocity": 0.6299212598425197,
                    "duration": 1.6281720000000064
                },
                {
                    "name": "G2",
                    "midi": 43,
                    "time": 173.12895599999916,
                    "velocity": 0.6377952755905512,
                    "duration": 0.4522699999999986
                },
                {
                    "name": "B2",
                    "midi": 47,
                    "time": 173.58122599999916,
                    "velocity": 0.5748031496062992,
                    "duration": 0.09045399999999404
                },
                {
                    "name": "E3",
                    "midi": 52,
                    "time": 173.67167999999916,
                    "velocity": 0.6377952755905512,
                    "duration": 0.5427239999999927
                },
                {
                    "name": "G3",
                    "midi": 55,
                    "time": 174.21440399999915,
                    "velocity": 0.6535433070866141,
                    "duration": 0.4522699999999986
                },
                {
                    "name": "B3",
                    "midi": 59,
                    "time": 174.66667399999915,
                    "velocity": 0.5748031496062992,
                    "duration": 0.09045399999999404
                },
                {
                    "name": "E4",
                    "midi": 64,
                    "time": 174.75712799999914,
                    "velocity": 0.6456692913385826,
                    "duration": 0.5427239999999927
                },
                {
                    "name": "E4",
                    "midi": 64,
                    "time": 175.29985199999913,
                    "velocity": 0.6220472440944882,
                    "duration": 0.5427239999999927
                },
                {
                    "name": "G3",
                    "midi": 55,
                    "time": 177.47074799999913,
                    "velocity": 0.5511811023622047,
                    "duration": 0.10854480000000422
                },
                {
                    "name": "B3",
                    "midi": 59,
                    "time": 177.57929279999914,
                    "velocity": 0.4645669291338583,
                    "duration": 0.10854480000000422
                },
                {
                    "name": "D4",
                    "midi": 62,
                    "time": 177.68783759999914,
                    "velocity": 0.4881889763779528,
                    "duration": 0.10854480000000422
                },
                {
                    "name": "B3",
                    "midi": 59,
                    "time": 177.79638239999915,
                    "velocity": 0.47244094488188976,
                    "duration": 0.10854480000000422
                },
                {
                    "name": "G3",
                    "midi": 55,
                    "time": 177.90492719999915,
                    "velocity": 0.47244094488188976,
                    "duration": 0.10854480000000422
                },
                {
                    "name": "F3",
                    "midi": 53,
                    "time": 178.01347199999915,
                    "velocity": 0.5511811023622047,
                    "duration": 0.10854480000000422
                },
                {
                    "name": "G3",
                    "midi": 55,
                    "time": 178.12201679999916,
                    "velocity": 0.4645669291338583,
                    "duration": 0.10854480000000422
                },
                {
                    "name": "B3",
                    "midi": 59,
                    "time": 178.23056159999916,
                    "velocity": 0.4881889763779528,
                    "duration": 0.10854480000000422
                },
                {
                    "name": "G3",
                    "midi": 55,
                    "time": 178.33910639999917,
                    "velocity": 0.47244094488188976,
                    "duration": 0.10854480000000422
                },
                {
                    "name": "F3",
                    "midi": 53,
                    "time": 178.44765119999917,
                    "velocity": 0.47244094488188976,
                    "duration": 0.10854480000000422
                },
                {
                    "name": "D3",
                    "midi": 50,
                    "time": 178.55619599999918,
                    "velocity": 0.5511811023622047,
                    "duration": 0.10854480000000422
                },
                {
                    "name": "F3",
                    "midi": 53,
                    "time": 178.66474079999918,
                    "velocity": 0.4645669291338583,
                    "duration": 0.10854480000000422
                },
                {
                    "name": "G3",
                    "midi": 55,
                    "time": 178.77328559999918,
                    "velocity": 0.4881889763779528,
                    "duration": 0.10854480000000422
                },
                {
                    "name": "F3",
                    "midi": 53,
                    "time": 178.8818303999992,
                    "velocity": 0.47244094488188976,
                    "duration": 0.10854480000000422
                },
                {
                    "name": "D3",
                    "midi": 50,
                    "time": 178.9903751999992,
                    "velocity": 0.47244094488188976,
                    "duration": 0.10854480000000422
                },
                {
                    "name": "B2",
                    "midi": 47,
                    "time": 179.0989199999992,
                    "velocity": 0.5511811023622047,
                    "duration": 0.09045399999999404
                },
                {
                    "name": "D3",
                    "midi": 50,
                    "time": 179.1893739999992,
                    "velocity": 0.4645669291338583,
                    "duration": 0.09045399999999404
                },
                {
                    "name": "F3",
                    "midi": 53,
                    "time": 179.27982799999918,
                    "velocity": 0.47244094488188976,
                    "duration": 0.09045399999999404
                },
                {
                    "name": "D3",
                    "midi": 50,
                    "time": 179.37028199999918,
                    "velocity": 0.5196850393700787,
                    "duration": 0.09045399999999404
                },
                {
                    "name": "B2",
                    "midi": 47,
                    "time": 179.46073599999917,
                    "velocity": 0.4645669291338583,
                    "duration": 0.09045399999999404
                },
                {
                    "name": "G2",
                    "midi": 43,
                    "time": 179.55118999999917,
                    "velocity": 0.47244094488188976,
                    "duration": 0.09045399999999404
                },
                {
                    "name": "F2",
                    "midi": 41,
                    "time": 179.64164399999916,
                    "velocity": 0.5511811023622047,
                    "duration": 0.09045399999999404
                },
                {
                    "name": "G2",
                    "midi": 43,
                    "time": 179.73209799999916,
                    "velocity": 0.47244094488188976,
                    "duration": 0.09045399999999404
                },
                {
                    "name": "B2",
                    "midi": 47,
                    "time": 179.82255199999915,
                    "velocity": 0.47244094488188976,
                    "duration": 0.09045399999999404
                },
                {
                    "name": "G2",
                    "midi": 43,
                    "time": 179.91300599999914,
                    "velocity": 0.5196850393700787,
                    "duration": 0.09045399999999404
                },
                {
                    "name": "F2",
                    "midi": 41,
                    "time": 180.00345999999914,
                    "velocity": 0.5196850393700787,
                    "duration": 0.09045399999999404
                },
                {
                    "name": "D2",
                    "midi": 38,
                    "time": 180.09391399999913,
                    "velocity": 0.47244094488188976,
                    "duration": 0.09045399999999404
                },
                {
                    "name": "C2",
                    "midi": 36,
                    "time": 180.18436799999913,
                    "velocity": 0.6299212598425197,
                    "duration": 1.6281720000000064
                },
                {
                    "name": "D#2",
                    "midi": 39,
                    "time": 181.81253999999913,
                    "velocity": 0.6377952755905512,
                    "duration": 0.4522699999999986
                },
                {
                    "name": "G2",
                    "midi": 43,
                    "time": 182.26480999999913,
                    "velocity": 0.5748031496062992,
                    "duration": 0.09045399999999404
                },
                {
                    "name": "C3",
                    "midi": 48,
                    "time": 182.35526399999912,
                    "velocity": 0.6377952755905512,
                    "duration": 0.5427239999999927
                },
                {
                    "name": "D#3",
                    "midi": 51,
                    "time": 182.89798799999912,
                    "velocity": 0.6535433070866141,
                    "duration": 0.4522699999999986
                },
                {
                    "name": "G3",
                    "midi": 55,
                    "time": 183.35025799999912,
                    "velocity": 0.5748031496062992,
                    "duration": 0.09045399999999404
                },
                {
                    "name": "C4",
                    "midi": 60,
                    "time": 183.4407119999991,
                    "velocity": 0.6456692913385826,
                    "duration": 0.5427239999999927
                },
                {
                    "name": "C4",
                    "midi": 60,
                    "time": 183.9834359999991,
                    "velocity": 0.6220472440944882,
                    "duration": 0.5427239999999927
                },
                {
                    "name": "D#3",
                    "midi": 51,
                    "time": 186.1543319999991,
                    "velocity": 0.5511811023622047,
                    "duration": 0.10854480000000422
                },
                {
                    "name": "G3",
                    "midi": 55,
                    "time": 186.2628767999991,
                    "velocity": 0.4645669291338583,
                    "duration": 0.10854480000000422
                },
                {
                    "name": "A#3",
                    "midi": 58,
                    "time": 186.3714215999991,
                    "velocity": 0.4881889763779528,
                    "duration": 0.10854480000000422
                },
                {
                    "name": "G3",
                    "midi": 55,
                    "time": 186.4799663999991,
                    "velocity": 0.47244094488188976,
                    "duration": 0.10854480000000422
                },
                {
                    "name": "D#3",
                    "midi": 51,
                    "time": 186.58851119999912,
                    "velocity": 0.47244094488188976,
                    "duration": 0.10854480000000422
                },
                {
                    "name": "C#3",
                    "midi": 49,
                    "time": 186.69705599999912,
                    "velocity": 0.5511811023622047,
                    "duration": 0.10854480000000422
                },
                {
                    "name": "D#3",
                    "midi": 51,
                    "time": 186.80560079999913,
                    "velocity": 0.4645669291338583,
                    "duration": 0.10854480000000422
                },
                {
                    "name": "G3",
                    "midi": 55,
                    "time": 186.91414559999913,
                    "velocity": 0.4881889763779528,
                    "duration": 0.10854480000000422
                },
                {
                    "name": "D#3",
                    "midi": 51,
                    "time": 187.02269039999914,
                    "velocity": 0.47244094488188976,
                    "duration": 0.10854480000000422
                },
                {
                    "name": "C#3",
                    "midi": 49,
                    "time": 187.13123519999914,
                    "velocity": 0.47244094488188976,
                    "duration": 0.10854480000000422
                },
                {
                    "name": "A#2",
                    "midi": 46,
                    "time": 187.23977999999914,
                    "velocity": 0.5511811023622047,
                    "duration": 0.10854480000000422
                },
                {
                    "name": "C#3",
                    "midi": 49,
                    "time": 187.34832479999915,
                    "velocity": 0.4645669291338583,
                    "duration": 0.10854480000000422
                },
                {
                    "name": "D#3",
                    "midi": 51,
                    "time": 187.45686959999915,
                    "velocity": 0.4881889763779528,
                    "duration": 0.10854480000000422
                },
                {
                    "name": "C#3",
                    "midi": 49,
                    "time": 187.56541439999916,
                    "velocity": 0.47244094488188976,
                    "duration": 0.10854480000000422
                },
                {
                    "name": "A#2",
                    "midi": 46,
                    "time": 187.67395919999916,
                    "velocity": 0.47244094488188976,
                    "duration": 0.10854480000000422
                },
                {
                    "name": "G2",
                    "midi": 43,
                    "time": 187.78250399999916,
                    "velocity": 0.5511811023622047,
                    "duration": 0.09045399999999404
                },
                {
                    "name": "A#2",
                    "midi": 46,
                    "time": 187.87295799999916,
                    "velocity": 0.4645669291338583,
                    "duration": 0.09045399999999404
                },
                {
                    "name": "C#3",
                    "midi": 49,
                    "time": 187.96341199999915,
                    "velocity": 0.47244094488188976,
                    "duration": 0.09045399999999404
                },
                {
                    "name": "A#2",
                    "midi": 46,
                    "time": 188.05386599999915,
                    "velocity": 0.5196850393700787,
                    "duration": 0.09045399999999404
                },
                {
                    "name": "G2",
                    "midi": 43,
                    "time": 188.14431999999914,
                    "velocity": 0.4645669291338583,
                    "duration": 0.09045399999999404
                },
                {
                    "name": "D#2",
                    "midi": 39,
                    "time": 188.23477399999913,
                    "velocity": 0.47244094488188976,
                    "duration": 0.09045399999999404
                },
                {
                    "name": "C#2",
                    "midi": 37,
                    "time": 188.32522799999913,
                    "velocity": 0.5511811023622047,
                    "duration": 0.09045399999999404
                },
                {
                    "name": "D#2",
                    "midi": 39,
                    "time": 188.41568199999912,
                    "velocity": 0.47244094488188976,
                    "duration": 0.09045399999999404
                },
                {
                    "name": "G2",
                    "midi": 43,
                    "time": 188.50613599999912,
                    "velocity": 0.47244094488188976,
                    "duration": 0.09045399999999404
                },
                {
                    "name": "D#2",
                    "midi": 39,
                    "time": 188.5965899999991,
                    "velocity": 0.5196850393700787,
                    "duration": 0.09045399999999404
                },
                {
                    "name": "C#2",
                    "midi": 37,
                    "time": 188.6870439999991,
                    "velocity": 0.5196850393700787,
                    "duration": 0.09045399999999404
                },
                {
                    "name": "A#1",
                    "midi": 34,
                    "time": 188.7774979999991,
                    "velocity": 0.47244094488188976,
                    "duration": 0.09045399999999404
                },
                {
                    "name": "G#1",
                    "midi": 32,
                    "time": 188.8679519999991,
                    "velocity": 0.6299212598425197,
                    "duration": 1.6281720000000064
                },
                {
                    "name": "C2",
                    "midi": 36,
                    "time": 190.4961239999991,
                    "velocity": 0.6377952755905512,
                    "duration": 0.4522699999999986
                },
                {
                    "name": "D#2",
                    "midi": 39,
                    "time": 190.9483939999991,
                    "velocity": 0.5748031496062992,
                    "duration": 0.09045399999999404
                },
                {
                    "name": "G#2",
                    "midi": 44,
                    "time": 191.0388479999991,
                    "velocity": 0.6377952755905512,
                    "duration": 0.5427239999999927
                },
                {
                    "name": "C3",
                    "midi": 48,
                    "time": 191.58157199999908,
                    "velocity": 0.6535433070866141,
                    "duration": 0.4522699999999986
                },
                {
                    "name": "D#3",
                    "midi": 51,
                    "time": 192.03384199999908,
                    "velocity": 0.5748031496062992,
                    "duration": 0.09045399999999404
                },
                {
                    "name": "G#3",
                    "midi": 56,
                    "time": 192.12429599999908,
                    "velocity": 0.6456692913385826,
                    "duration": 0.5427239999999927
                },
                {
                    "name": "G#3",
                    "midi": 56,
                    "time": 192.66701999999907,
                    "velocity": 0.6220472440944882,
                    "duration": 0.5427239999999927
                },
                {
                    "name": "A3",
                    "midi": 57,
                    "time": 193.20974399999906,
                    "velocity": 0.6535433070866141,
                    "duration": 0.10854480000000422
                },
                {
                    "name": "C4",
                    "midi": 60,
                    "time": 193.31828879999907,
                    "velocity": 0.5275590551181102,
                    "duration": 0.10854480000000422
                },
                {
                    "name": "D#4",
                    "midi": 63,
                    "time": 193.42683359999907,
                    "velocity": 0.5511811023622047,
                    "duration": 0.10854480000000422
                },
                {
                    "name": "C4",
                    "midi": 60,
                    "time": 193.53537839999908,
                    "velocity": 0.5354330708661418,
                    "duration": 0.10854480000000422
                },
                {
                    "name": "A3",
                    "midi": 57,
                    "time": 193.64392319999908,
                    "velocity": 0.5354330708661418,
                    "duration": 0.10854480000000422
                },
                {
                    "name": "F#3",
                    "midi": 54,
                    "time": 193.75246799999908,
                    "velocity": 0.6377952755905512,
                    "duration": 0.10854480000000422
                },
                {
                    "name": "A3",
                    "midi": 57,
                    "time": 193.8610127999991,
                    "velocity": 0.5275590551181102,
                    "duration": 0.10854480000000422
                },
                {
                    "name": "C4",
                    "midi": 60,
                    "time": 193.9695575999991,
                    "velocity": 0.5511811023622047,
                    "duration": 0.10854480000000422
                },
                {
                    "name": "A3",
                    "midi": 57,
                    "time": 194.0781023999991,
                    "velocity": 0.5354330708661418,
                    "duration": 0.10854480000000422
                },
                {
                    "name": "F#3",
                    "midi": 54,
                    "time": 194.1866471999991,
                    "velocity": 0.5354330708661418,
                    "duration": 0.10854480000000422
                },
                {
                    "name": "D#3",
                    "midi": 51,
                    "time": 194.2951919999991,
                    "velocity": 0.6062992125984252,
                    "duration": 0.10854480000000422
                },
                {
                    "name": "F#3",
                    "midi": 54,
                    "time": 194.4037367999991,
                    "velocity": 0.4881889763779528,
                    "duration": 0.10854480000000422
                },
                {
                    "name": "A3",
                    "midi": 57,
                    "time": 194.5122815999991,
                    "velocity": 0.5275590551181102,
                    "duration": 0.10854480000000422
                },
                {
                    "name": "F#3",
                    "midi": 54,
                    "time": 194.62082639999912,
                    "velocity": 0.49606299212598426,
                    "duration": 0.10854480000000422
                },
                {
                    "name": "D#3",
                    "midi": 51,
                    "time": 194.72937119999912,
                    "velocity": 0.49606299212598426,
                    "duration": 0.10854480000000422
                },
                {
                    "name": "C3",
                    "midi": 48,
                    "time": 194.83791599999913,
                    "velocity": 0.5511811023622047,
                    "duration": 0.10854480000000422
                },
                {
                    "name": "D#3",
                    "midi": 51,
                    "time": 194.94646079999913,
                    "velocity": 0.4645669291338583,
                    "duration": 0.10854480000000422
                },
                {
                    "name": "F#3",
                    "midi": 54,
                    "time": 195.05500559999913,
                    "velocity": 0.4881889763779528,
                    "duration": 0.10854480000000422
                },
                {
                    "name": "D#3",
                    "midi": 51,
                    "time": 195.16355039999914,
                    "velocity": 0.47244094488188976,
                    "duration": 0.10854480000000422
                },
                {
                    "name": "C3",
                    "midi": 48,
                    "time": 195.27209519999914,
                    "velocity": 0.47244094488188976,
                    "duration": 0.10854480000000422
                },
                {
                    "name": "A2",
                    "midi": 45,
                    "time": 195.38063999999915,
                    "velocity": 0.5511811023622047,
                    "duration": 0.10854480000000422
                },
                {
                    "name": "C3",
                    "midi": 48,
                    "time": 195.48918479999915,
                    "velocity": 0.4645669291338583,
                    "duration": 0.10854480000000422
                },
                {
                    "name": "D#3",
                    "midi": 51,
                    "time": 195.59772959999916,
                    "velocity": 0.4881889763779528,
                    "duration": 0.10854480000000422
                },
                {
                    "name": "C3",
                    "midi": 48,
                    "time": 195.70627439999916,
                    "velocity": 0.47244094488188976,
                    "duration": 0.10854480000000422
                },
                {
                    "name": "A2",
                    "midi": 45,
                    "time": 195.81481919999916,
                    "velocity": 0.47244094488188976,
                    "duration": 0.10854480000000422
                },
                {
                    "name": "F#2",
                    "midi": 42,
                    "time": 195.92336399999917,
                    "velocity": 0.5511811023622047,
                    "duration": 0.10854480000000422
                },
                {
                    "name": "A2",
                    "midi": 45,
                    "time": 196.03190879999917,
                    "velocity": 0.4645669291338583,
                    "duration": 0.10854480000000422
                },
                {
                    "name": "C3",
                    "midi": 48,
                    "time": 196.14045359999918,
                    "velocity": 0.4881889763779528,
                    "duration": 0.10854480000000422
                },
                {
                    "name": "A2",
                    "midi": 45,
                    "time": 196.24899839999918,
                    "velocity": 0.47244094488188976,
                    "duration": 0.10854480000000422
                },
                {
                    "name": "F#2",
                    "midi": 42,
                    "time": 196.35754319999918,
                    "velocity": 0.47244094488188976,
                    "duration": 0.10854480000000422
                },
                {
                    "name": "D#2",
                    "midi": 39,
                    "time": 196.4660879999992,
                    "velocity": 0.5511811023622047,
                    "duration": 0.09045399999999404
                },
                {
                    "name": "F#2",
                    "midi": 42,
                    "time": 196.55654199999918,
                    "velocity": 0.4645669291338583,
                    "duration": 0.09045399999999404
                },
                {
                    "name": "A2",
                    "midi": 45,
                    "time": 196.64699599999918,
                    "velocity": 0.47244094488188976,
                    "duration": 0.09045399999999404
                },
                {
                    "name": "F#2",
                    "midi": 42,
                    "time": 196.73744999999917,
                    "velocity": 0.5196850393700787,
                    "duration": 0.09045399999999404
                },
                {
                    "name": "D#2",
                    "midi": 39,
                    "time": 196.82790399999917,
                    "velocity": 0.4645669291338583,
                    "duration": 0.09045399999999404
                },
                {
                    "name": "C2",
                    "midi": 36,
                    "time": 196.91835799999916,
                    "velocity": 0.47244094488188976,
                    "duration": 0.09045399999999404
                },
                {
                    "name": "A1",
                    "midi": 33,
                    "time": 197.00881199999915,
                    "velocity": 0.5511811023622047,
                    "duration": 0.09045399999999404
                },
                {
                    "name": "C2",
                    "midi": 36,
                    "time": 197.09926599999915,
                    "velocity": 0.47244094488188976,
                    "duration": 0.09045399999999404
                },
                {
                    "name": "D#2",
                    "midi": 39,
                    "time": 197.18971999999914,
                    "velocity": 0.47244094488188976,
                    "duration": 0.09045399999999404
                },
                {
                    "name": "F#2",
                    "midi": 42,
                    "time": 197.28017399999914,
                    "velocity": 0.5196850393700787,
                    "duration": 0.09045399999999404
                },
                {
                    "name": "D#2",
                    "midi": 39,
                    "time": 197.37062799999913,
                    "velocity": 0.5196850393700787,
                    "duration": 0.09045399999999404
                },
                {
                    "name": "C2",
                    "midi": 36,
                    "time": 197.46108199999912,
                    "velocity": 0.47244094488188976,
                    "duration": 0.09045399999999404
                },
                {
                    "name": "G#1",
                    "midi": 32,
                    "time": 197.55153599999912,
                    "velocity": 0.5511811023622047,
                    "duration": 0.09045399999999404
                },
                {
                    "name": "C2",
                    "midi": 36,
                    "time": 197.6419899999991,
                    "velocity": 0.47244094488188976,
                    "duration": 0.09045399999999404
                },
                {
                    "name": "D#2",
                    "midi": 39,
                    "time": 197.7324439999991,
                    "velocity": 0.47244094488188976,
                    "duration": 0.09045399999999404
                },
                {
                    "name": "F#2",
                    "midi": 42,
                    "time": 197.8228979999991,
                    "velocity": 0.5196850393700787,
                    "duration": 0.09045399999999404
                },
                {
                    "name": "D#2",
                    "midi": 39,
                    "time": 197.9133519999991,
                    "velocity": 0.5196850393700787,
                    "duration": 0.09045399999999404
                },
                {
                    "name": "C2",
                    "midi": 36,
                    "time": 198.0038059999991,
                    "velocity": 0.47244094488188976,
                    "duration": 0.09045399999999404
                },
                {
                    "name": "A1",
                    "midi": 33,
                    "time": 198.09425999999908,
                    "velocity": 0.5511811023622047,
                    "duration": 0.09045399999999404
                },
                {
                    "name": "C2",
                    "midi": 36,
                    "time": 198.18471399999908,
                    "velocity": 0.47244094488188976,
                    "duration": 0.09045399999999404
                },
                {
                    "name": "D#2",
                    "midi": 39,
                    "time": 198.27516799999907,
                    "velocity": 0.47244094488188976,
                    "duration": 0.09045399999999404
                },
                {
                    "name": "F#2",
                    "midi": 42,
                    "time": 198.36562199999906,
                    "velocity": 0.5196850393700787,
                    "duration": 0.09045399999999404
                },
                {
                    "name": "D#2",
                    "midi": 39,
                    "time": 198.45607599999906,
                    "velocity": 0.5196850393700787,
                    "duration": 0.09045399999999404
                },
                {
                    "name": "C2",
                    "midi": 36,
                    "time": 198.54652999999905,
                    "velocity": 0.47244094488188976,
                    "duration": 0.09045399999999404
                },
                {
                    "name": "G#1",
                    "midi": 32,
                    "time": 198.63698399999905,
                    "velocity": 0.5511811023622047,
                    "duration": 0.09045399999999404
                },
                {
                    "name": "C2",
                    "midi": 36,
                    "time": 198.72743799999904,
                    "velocity": 0.47244094488188976,
                    "duration": 0.09045399999999404
                },
                {
                    "name": "D#2",
                    "midi": 39,
                    "time": 198.81789199999903,
                    "velocity": 0.47244094488188976,
                    "duration": 0.09045399999999404
                },
                {
                    "name": "F#2",
                    "midi": 42,
                    "time": 198.90834599999903,
                    "velocity": 0.5196850393700787,
                    "duration": 0.09045399999999404
                },
                {
                    "name": "D#2",
                    "midi": 39,
                    "time": 198.99879999999902,
                    "velocity": 0.5196850393700787,
                    "duration": 0.09045399999999404
                },
                {
                    "name": "C2",
                    "midi": 36,
                    "time": 199.08925399999902,
                    "velocity": 0.47244094488188976,
                    "duration": 0.09045399999999404
                },
                {
                    "name": "A1",
                    "midi": 33,
                    "time": 199.179707999999,
                    "velocity": 0.5511811023622047,
                    "duration": 0.09045399999999404
                },
                {
                    "name": "C2",
                    "midi": 36,
                    "time": 199.270161999999,
                    "velocity": 0.47244094488188976,
                    "duration": 0.09045399999999404
                },
                {
                    "name": "D#2",
                    "midi": 39,
                    "time": 199.360615999999,
                    "velocity": 0.47244094488188976,
                    "duration": 0.09045399999999404
                },
                {
                    "name": "F#2",
                    "midi": 42,
                    "time": 199.451069999999,
                    "velocity": 0.5196850393700787,
                    "duration": 0.09045399999999404
                },
                {
                    "name": "D#2",
                    "midi": 39,
                    "time": 199.541523999999,
                    "velocity": 0.5196850393700787,
                    "duration": 0.09045399999999404
                },
                {
                    "name": "C2",
                    "midi": 36,
                    "time": 199.63197799999898,
                    "velocity": 0.47244094488188976,
                    "duration": 0.09045399999999404
                },
                {
                    "name": "G#1",
                    "midi": 32,
                    "time": 199.72243199999897,
                    "velocity": 0.5511811023622047,
                    "duration": 0.09045399999999404
                },
                {
                    "name": "C2",
                    "midi": 36,
                    "time": 199.81288599999897,
                    "velocity": 0.47244094488188976,
                    "duration": 0.09045399999999404
                },
                {
                    "name": "D#2",
                    "midi": 39,
                    "time": 199.90333999999896,
                    "velocity": 0.47244094488188976,
                    "duration": 0.09045399999999404
                },
                {
                    "name": "F#2",
                    "midi": 42,
                    "time": 199.99379399999896,
                    "velocity": 0.47244094488188976,
                    "duration": 0.09045399999999404
                },
                {
                    "name": "D#2",
                    "midi": 39,
                    "time": 200.08424799999895,
                    "velocity": 0.5196850393700787,
                    "duration": 0.09045399999999404
                },
                {
                    "name": "C2",
                    "midi": 36,
                    "time": 200.17470199999894,
                    "velocity": 0.47244094488188976,
                    "duration": 0.09045399999999404
                },
                {
                    "name": "A1",
                    "midi": 33,
                    "time": 200.26515599999894,
                    "velocity": 0.5511811023622047,
                    "duration": 0.09045399999999404
                },
                {
                    "name": "C2",
                    "midi": 36,
                    "time": 200.35560999999893,
                    "velocity": 0.47244094488188976,
                    "duration": 0.09045399999999404
                },
                {
                    "name": "D#2",
                    "midi": 39,
                    "time": 200.44606399999893,
                    "velocity": 0.47244094488188976,
                    "duration": 0.09045399999999404
                },
                {
                    "name": "F#2",
                    "midi": 42,
                    "time": 200.53651799999892,
                    "velocity": 0.48031496062992124,
                    "duration": 0.09045399999999404
                },
                {
                    "name": "D#2",
                    "midi": 39,
                    "time": 200.62697199999891,
                    "velocity": 0.5196850393700787,
                    "duration": 0.09045399999999404
                },
                {
                    "name": "C2",
                    "midi": 36,
                    "time": 200.7174259999989,
                    "velocity": 0.47244094488188976,
                    "duration": 0.09045399999999404
                },
                {
                    "name": "G#1",
                    "midi": 32,
                    "time": 200.8078799999989,
                    "velocity": 0.5511811023622047,
                    "duration": 0.09045399999999404
                },
                {
                    "name": "C2",
                    "midi": 36,
                    "time": 200.8983339999989,
                    "velocity": 0.47244094488188976,
                    "duration": 0.09045399999999404
                },
                {
                    "name": "D#2",
                    "midi": 39,
                    "time": 200.9887879999989,
                    "velocity": 0.47244094488188976,
                    "duration": 0.09045399999999404
                },
                {
                    "name": "F#2",
                    "midi": 42,
                    "time": 201.07924199999889,
                    "velocity": 0.48031496062992124,
                    "duration": 0.09045399999999404
                },
                {
                    "name": "D#2",
                    "midi": 39,
                    "time": 201.16969599999888,
                    "velocity": 0.5196850393700787,
                    "duration": 0.09045399999999404
                },
                {
                    "name": "C2",
                    "midi": 36,
                    "time": 201.26014999999887,
                    "velocity": 0.47244094488188976,
                    "duration": 0.09045399999999404
                },
                {
                    "name": "A1",
                    "midi": 33,
                    "time": 201.35060399999887,
                    "velocity": 0.5511811023622047,
                    "duration": 0.09045399999999404
                },
                {
                    "name": "C2",
                    "midi": 36,
                    "time": 201.44105799999886,
                    "velocity": 0.47244094488188976,
                    "duration": 0.09045399999999404
                },
                {
                    "name": "D#2",
                    "midi": 39,
                    "time": 201.53151199999886,
                    "velocity": 0.47244094488188976,
                    "duration": 0.09045399999999404
                },
                {
                    "name": "F#2",
                    "midi": 42,
                    "time": 201.62196599999885,
                    "velocity": 0.47244094488188976,
                    "duration": 0.09045399999999404
                },
                {
                    "name": "D#2",
                    "midi": 39,
                    "time": 201.71241999999884,
                    "velocity": 0.5196850393700787,
                    "duration": 0.09045399999999404
                },
                {
                    "name": "C2",
                    "midi": 36,
                    "time": 201.80287399999884,
                    "velocity": 0.47244094488188976,
                    "duration": 0.09045399999999404
                },
                {
                    "name": "G#1",
                    "midi": 32,
                    "time": 201.89332799999883,
                    "velocity": 0.47244094488188976,
                    "duration": 0.18090799999998808
                },
                {
                    "name": "G#2",
                    "midi": 44,
                    "time": 201.89332799999883,
                    "velocity": 0.47244094488188976,
                    "duration": 0.18090799999998808
                },
                {
                    "name": "G#3",
                    "midi": 56,
                    "time": 202.07423599999882,
                    "velocity": 0.28346456692913385,
                    "duration": 0.16583233333332714
                },
                {
                    "name": "G#3",
                    "midi": 56,
                    "time": 202.2551439999988,
                    "velocity": 0.28346456692913385,
                    "duration": 0.16583233333332714
                },
                {
                    "name": "G#3",
                    "midi": 56,
                    "time": 202.4360519999988,
                    "velocity": 0.30708661417322836,
                    "duration": 0.16583233333332714
                },
                {
                    "name": "G#3",
                    "midi": 56,
                    "time": 202.61695999999878,
                    "velocity": 0.29133858267716534,
                    "duration": 0.16583233333332714
                },
                {
                    "name": "G#3",
                    "midi": 56,
                    "time": 202.79786799999877,
                    "velocity": 0.28346456692913385,
                    "duration": 0.16583233333332714
                },
                {
                    "name": "G#3",
                    "midi": 56,
                    "time": 202.97877599999876,
                    "velocity": 0.30708661417322836,
                    "duration": 0.16583233333332714
                },
                {
                    "name": "G#3",
                    "midi": 56,
                    "time": 203.15968399999875,
                    "velocity": 0.2755905511811024,
                    "duration": 0.16583233333332714
                },
                {
                    "name": "G#3",
                    "midi": 56,
                    "time": 203.34059199999874,
                    "velocity": 0.2755905511811024,
                    "duration": 0.16583233333332714
                },
                {
                    "name": "G#3",
                    "midi": 56,
                    "time": 203.52149999999872,
                    "velocity": 0.30708661417322836,
                    "duration": 0.16583233333332714
                },
                {
                    "name": "G#3",
                    "midi": 56,
                    "time": 203.7024079999987,
                    "velocity": 0.28346456692913385,
                    "duration": 0.16583233333332714
                },
                {
                    "name": "G#3",
                    "midi": 56,
                    "time": 203.8833159999987,
                    "velocity": 0.28346456692913385,
                    "duration": 0.16583233333332714
                },
                {
                    "name": "G#3",
                    "midi": 56,
                    "time": 204.2451319999987,
                    "velocity": 0.28346456692913385,
                    "duration": 0.16583233333332714
                },
                {
                    "name": "G#3",
                    "midi": 56,
                    "time": 204.4260399999987,
                    "velocity": 0.28346456692913385,
                    "duration": 0.16583233333332714
                },
                {
                    "name": "G#3",
                    "midi": 56,
                    "time": 204.60694799999868,
                    "velocity": 0.30708661417322836,
                    "duration": 0.16583233333332714
                },
                {
                    "name": "G#3",
                    "midi": 56,
                    "time": 204.78785599999867,
                    "velocity": 0.29133858267716534,
                    "duration": 0.16583233333332714
                },
                {
                    "name": "G#3",
                    "midi": 56,
                    "time": 204.96876399999866,
                    "velocity": 0.28346456692913385,
                    "duration": 0.16583233333332714
                },
                {
                    "name": "F#3",
                    "midi": 54,
                    "time": 205.14967199999865,
                    "velocity": 0.30708661417322836,
                    "duration": 0.18090799999998808
                },
                {
                    "name": "G#3",
                    "midi": 56,
                    "time": 205.33057999999863,
                    "velocity": 0.2755905511811024,
                    "duration": 0.16583233333332714
                },
                {
                    "name": "G#3",
                    "midi": 56,
                    "time": 205.51148799999862,
                    "velocity": 0.2755905511811024,
                    "duration": 0.16583233333332714
                },
                {
                    "name": "G#3",
                    "midi": 56,
                    "time": 205.6923959999986,
                    "velocity": 0.30708661417322836,
                    "duration": 0.16583233333332714
                },
                {
                    "name": "G#3",
                    "midi": 56,
                    "time": 205.8733039999986,
                    "velocity": 0.28346456692913385,
                    "duration": 0.16583233333332714
                },
                {
                    "name": "G#3",
                    "midi": 56,
                    "time": 206.05421199999859,
                    "velocity": 0.28346456692913385,
                    "duration": 0.16583233333332714
                },
                {
                    "name": "G#3",
                    "midi": 56,
                    "time": 206.4160279999986,
                    "velocity": 0.28346456692913385,
                    "duration": 0.16583233333332714
                },
                {
                    "name": "G#3",
                    "midi": 56,
                    "time": 206.59693599999858,
                    "velocity": 0.28346456692913385,
                    "duration": 0.16583233333332714
                },
                {
                    "name": "G#3",
                    "midi": 56,
                    "time": 206.77784399999857,
                    "velocity": 0.30708661417322836,
                    "duration": 0.16583233333332714
                },
                {
                    "name": "G#3",
                    "midi": 56,
                    "time": 206.95875199999855,
                    "velocity": 0.29133858267716534,
                    "duration": 0.16583233333332714
                },
                {
                    "name": "G#3",
                    "midi": 56,
                    "time": 207.13965999999854,
                    "velocity": 0.28346456692913385,
                    "duration": 0.16583233333332714
                },
                {
                    "name": "F3",
                    "midi": 53,
                    "time": 207.32056799999853,
                    "velocity": 0.30708661417322836,
                    "duration": 0.18090799999998808
                },
                {
                    "name": "G#3",
                    "midi": 56,
                    "time": 207.50147599999852,
                    "velocity": 0.2755905511811024,
                    "duration": 0.16583233333332714
                },
                {
                    "name": "G#3",
                    "midi": 56,
                    "time": 207.6823839999985,
                    "velocity": 0.2755905511811024,
                    "duration": 0.16583233333332714
                },
                {
                    "name": "G#3",
                    "midi": 56,
                    "time": 207.8632919999985,
                    "velocity": 0.30708661417322836,
                    "duration": 0.16583233333332714
                },
                {
                    "name": "G#3",
                    "midi": 56,
                    "time": 208.04419999999848,
                    "velocity": 0.28346456692913385,
                    "duration": 0.16583233333332714
                },
                {
                    "name": "G#3",
                    "midi": 56,
                    "time": 208.22510799999847,
                    "velocity": 0.28346456692913385,
                    "duration": 0.16583233333332714
                },
                {
                    "name": "G#3",
                    "midi": 56,
                    "time": 208.58692399999848,
                    "velocity": 0.2992125984251969,
                    "duration": 0.16583233333332714
                },
                {
                    "name": "G#3",
                    "midi": 56,
                    "time": 208.76783199999846,
                    "velocity": 0.2992125984251969,
                    "duration": 0.16583233333332714
                },
                {
                    "name": "F3",
                    "midi": 53,
                    "time": 208.94873999999845,
                    "velocity": 0.31496062992125984,
                    "duration": 0.18090799999998808
                },
                {
                    "name": "C#3",
                    "midi": 49,
                    "time": 208.94873999999845,
                    "velocity": 0.31496062992125984,
                    "duration": 0.18090799999998808
                },
                {
                    "name": "G#3",
                    "midi": 56,
                    "time": 209.12964799999844,
                    "velocity": 0.29133858267716534,
                    "duration": 0.16583233333332714
                },
                {
                    "name": "G#3",
                    "midi": 56,
                    "time": 209.31055599999843,
                    "velocity": 0.29133858267716534,
                    "duration": 0.16583233333332714
                },
                {
                    "name": "C#3",
                    "midi": 49,
                    "time": 209.49146399999842,
                    "velocity": 0.29133858267716534,
                    "duration": 0.18090799999998808
                },
                {
                    "name": "F3",
                    "midi": 53,
                    "time": 209.49146399999842,
                    "velocity": 0.29133858267716534,
                    "duration": 0.18090799999998808
                },
                {
                    "name": "G#3",
                    "midi": 56,
                    "time": 209.6723719999984,
                    "velocity": 0.29133858267716534,
                    "duration": 0.16583233333332714
                },
                {
                    "name": "G#3",
                    "midi": 56,
                    "time": 209.8532799999984,
                    "velocity": 0.29133858267716534,
                    "duration": 0.16583233333332714
                },
                {
                    "name": "C#3",
                    "midi": 49,
                    "time": 210.03418799999838,
                    "velocity": 0.29133858267716534,
                    "duration": 0.18090799999998808
                },
                {
                    "name": "F3",
                    "midi": 53,
                    "time": 210.03418799999838,
                    "velocity": 0.29133858267716534,
                    "duration": 0.18090799999998808
                },
                {
                    "name": "G#3",
                    "midi": 56,
                    "time": 210.21509599999837,
                    "velocity": 0.29133858267716534,
                    "duration": 0.16583233333332714
                },
                {
                    "name": "G#3",
                    "midi": 56,
                    "time": 210.39600399999836,
                    "velocity": 0.29133858267716534,
                    "duration": 0.16583233333332714
                },
                {
                    "name": "C3",
                    "midi": 48,
                    "time": 210.57691199999834,
                    "velocity": 0.30708661417322836,
                    "duration": 0.18090799999998808
                },
                {
                    "name": "D#3",
                    "midi": 51,
                    "time": 210.57691199999834,
                    "velocity": 0.30708661417322836,
                    "duration": 0.18090799999998808
                },
                {
                    "name": "G#3",
                    "midi": 56,
                    "time": 210.75781999999833,
                    "velocity": 0.29133858267716534,
                    "duration": 0.16583233333332714
                },
                {
                    "name": "G#3",
                    "midi": 56,
                    "time": 210.93872799999832,
                    "velocity": 0.29133858267716534,
                    "duration": 0.16583233333332714
                },
                {
                    "name": "G#3",
                    "midi": 56,
                    "time": 211.1196359999983,
                    "velocity": 0.2992125984251969,
                    "duration": 0.16583233333332714
                },
                {
                    "name": "G#3",
                    "midi": 56,
                    "time": 211.3005439999983,
                    "velocity": 0.29133858267716534,
                    "duration": 0.16583233333332714
                },
                {
                    "name": "G#3",
                    "midi": 56,
                    "time": 211.48145199999828,
                    "velocity": 0.29133858267716534,
                    "duration": 0.16583233333332714
                },
                {
                    "name": "G#3",
                    "midi": 56,
                    "time": 211.66235999999827,
                    "velocity": 0.29133858267716534,
                    "duration": 0.16583233333332714
                },
                {
                    "name": "G#3",
                    "midi": 56,
                    "time": 211.84326799999826,
                    "velocity": 0.29133858267716534,
                    "duration": 0.16583233333332714
                },
                {
                    "name": "G#3",
                    "midi": 56,
                    "time": 212.02417599999825,
                    "velocity": 0.29133858267716534,
                    "duration": 0.16583233333332714
                },
                {
                    "name": "G#3",
                    "midi": 56,
                    "time": 212.20508399999824,
                    "velocity": 0.2992125984251969,
                    "duration": 0.16583233333332714
                },
                {
                    "name": "G#3",
                    "midi": 56,
                    "time": 212.38599199999823,
                    "velocity": 0.29133858267716534,
                    "duration": 0.16583233333332714
                },
                {
                    "name": "G#3",
                    "midi": 56,
                    "time": 212.5668999999982,
                    "velocity": 0.29133858267716534,
                    "duration": 0.16583233333332714
                },
                {
                    "name": "G#3",
                    "midi": 56,
                    "time": 212.7478079999982,
                    "velocity": 0.30708661417322836,
                    "duration": 0.16583233333332714
                },
                {
                    "name": "G#3",
                    "midi": 56,
                    "time": 212.9287159999982,
                    "velocity": 0.29133858267716534,
                    "duration": 0.16583233333332714
                },
                {
                    "name": "G#3",
                    "midi": 56,
                    "time": 213.10962399999818,
                    "velocity": 0.29133858267716534,
                    "duration": 0.16583233333332714
                },
                {
                    "name": "G#3",
                    "midi": 56,
                    "time": 213.29053199999817,
                    "velocity": 0.2992125984251969,
                    "duration": 0.16583233333332714
                },
                {
                    "name": "G#3",
                    "midi": 56,
                    "time": 213.47143999999815,
                    "velocity": 0.29133858267716534,
                    "duration": 0.16583233333332714
                },
                {
                    "name": "G#3",
                    "midi": 56,
                    "time": 213.65234799999814,
                    "velocity": 0.29133858267716534,
                    "duration": 0.16583233333332714
                },
                {
                    "name": "G#3",
                    "midi": 56,
                    "time": 213.83325599999813,
                    "velocity": 0.2992125984251969,
                    "duration": 0.16583233333332714
                },
                {
                    "name": "G#3",
                    "midi": 56,
                    "time": 214.01416399999812,
                    "velocity": 0.30708661417322836,
                    "duration": 0.16583233333332714
                },
                {
                    "name": "F#3",
                    "midi": 54,
                    "time": 214.37597999999812,
                    "velocity": 0.3464566929133858,
                    "duration": 0.18090799999998808
                },
                {
                    "name": "D#3",
                    "midi": 51,
                    "time": 214.37597999999812,
                    "velocity": 0.3464566929133858,
                    "duration": 0.18090799999998808
                },
                {
                    "name": "G#3",
                    "midi": 56,
                    "time": 214.5568879999981,
                    "velocity": 0.29133858267716534,
                    "duration": 0.16583233333332714
                },
                {
                    "name": "G#3",
                    "midi": 56,
                    "time": 214.7377959999981,
                    "velocity": 0.29133858267716534,
                    "duration": 0.16583233333332714
                },
                {
                    "name": "G#3",
                    "midi": 56,
                    "time": 214.9187039999981,
                    "velocity": 0.30708661417322836,
                    "duration": 0.16583233333332714
                },
                {
                    "name": "G#3",
                    "midi": 56,
                    "time": 215.09961199999807,
                    "velocity": 0.29133858267716534,
                    "duration": 0.16583233333332714
                },
                {
                    "name": "G#3",
                    "midi": 56,
                    "time": 215.28051999999806,
                    "velocity": 0.29133858267716534,
                    "duration": 0.16583233333332714
                },
                {
                    "name": "G#3",
                    "midi": 56,
                    "time": 215.46142799999805,
                    "velocity": 0.29133858267716534,
                    "duration": 0.16583233333332714
                },
                {
                    "name": "G#3",
                    "midi": 56,
                    "time": 215.64233599999804,
                    "velocity": 0.29133858267716534,
                    "duration": 0.16583233333332714
                },
                {
                    "name": "G#3",
                    "midi": 56,
                    "time": 215.82324399999803,
                    "velocity": 0.29133858267716534,
                    "duration": 0.16583233333332714
                },
                {
                    "name": "G#3",
                    "midi": 56,
                    "time": 216.00415199999802,
                    "velocity": 0.2992125984251969,
                    "duration": 0.16583233333332714
                },
                {
                    "name": "G#3",
                    "midi": 56,
                    "time": 216.185059999998,
                    "velocity": 0.29133858267716534,
                    "duration": 0.16583233333332714
                },
                {
                    "name": "G#3",
                    "midi": 56,
                    "time": 216.365967999998,
                    "velocity": 0.29133858267716534,
                    "duration": 0.16583233333332714
                },
                {
                    "name": "C#3",
                    "midi": 49,
                    "time": 216.54687599999798,
                    "velocity": 0.3464566929133858,
                    "duration": 0.18090799999998808
                },
                {
                    "name": "F3",
                    "midi": 53,
                    "time": 216.54687599999798,
                    "velocity": 0.3779527559055118,
                    "duration": 0.18090799999998808
                },
                {
                    "name": "G#3",
                    "midi": 56,
                    "time": 216.72778399999797,
                    "velocity": 0.29133858267716534,
                    "duration": 0.16583233333332714
                },
                {
                    "name": "G#3",
                    "midi": 56,
                    "time": 216.90869199999796,
                    "velocity": 0.29133858267716534,
                    "duration": 0.16583233333332714
                },
                {
                    "name": "G#3",
                    "midi": 56,
                    "time": 217.27050799999796,
                    "velocity": 0.2992125984251969,
                    "duration": 0.16583233333332714
                },
                {
                    "name": "G#3",
                    "midi": 56,
                    "time": 217.45141599999795,
                    "velocity": 0.2992125984251969,
                    "duration": 0.16583233333332714
                },
                {
                    "name": "F3",
                    "midi": 53,
                    "time": 217.63232399999794,
                    "velocity": 0.31496062992125984,
                    "duration": 0.18090799999998808
                },
                {
                    "name": "C#3",
                    "midi": 49,
                    "time": 217.63232399999794,
                    "velocity": 0.31496062992125984,
                    "duration": 0.18090799999998808
                },
                {
                    "name": "G#3",
                    "midi": 56,
                    "time": 217.81323199999792,
                    "velocity": 0.29133858267716534,
                    "duration": 0.16583233333332714
                },
                {
                    "name": "G#3",
                    "midi": 56,
                    "time": 217.9941399999979,
                    "velocity": 0.29133858267716534,
                    "duration": 0.16583233333332714
                },
                {
                    "name": "C#3",
                    "midi": 49,
                    "time": 218.1750479999979,
                    "velocity": 0.29133858267716534,
                    "duration": 0.18090799999998808
                },
                {
                    "name": "F3",
                    "midi": 53,
                    "time": 218.1750479999979,
                    "velocity": 0.29133858267716534,
                    "duration": 0.18090799999998808
                },
                {
                    "name": "G#3",
                    "midi": 56,
                    "time": 218.3559559999979,
                    "velocity": 0.29133858267716534,
                    "duration": 0.16583233333332714
                },
                {
                    "name": "G#3",
                    "midi": 56,
                    "time": 218.53686399999788,
                    "velocity": 0.29133858267716534,
                    "duration": 0.16583233333332714
                },
                {
                    "name": "C#3",
                    "midi": 49,
                    "time": 218.71777199999786,
                    "velocity": 0.28346456692913385,
                    "duration": 0.18090799999998808
                },
                {
                    "name": "F3",
                    "midi": 53,
                    "time": 218.71777199999786,
                    "velocity": 0.28346456692913385,
                    "duration": 0.18090799999998808
                },
                {
                    "name": "G#3",
                    "midi": 56,
                    "time": 218.89867999999785,
                    "velocity": 0.29133858267716534,
                    "duration": 0.16583233333332714
                },
                {
                    "name": "G#3",
                    "midi": 56,
                    "time": 219.07958799999784,
                    "velocity": 0.29133858267716534,
                    "duration": 0.16583233333332714
                },
                {
                    "name": "G#3",
                    "midi": 56,
                    "time": 219.44140399999785,
                    "velocity": 0.2992125984251969,
                    "duration": 0.16583233333332714
                },
                {
                    "name": "G#3",
                    "midi": 56,
                    "time": 219.62231199999783,
                    "velocity": 0.2992125984251969,
                    "duration": 0.16583233333332714
                },
                {
                    "name": "D#3",
                    "midi": 51,
                    "time": 219.80321999999782,
                    "velocity": 0.31496062992125984,
                    "duration": 0.18090799999998808
                },
                {
                    "name": "C3",
                    "midi": 48,
                    "time": 219.80321999999782,
                    "velocity": 0.31496062992125984,
                    "duration": 0.18090799999998808
                },
                {
                    "name": "G#3",
                    "midi": 56,
                    "time": 219.9841279999978,
                    "velocity": 0.29133858267716534,
                    "duration": 0.16583233333332714
                },
                {
                    "name": "G#3",
                    "midi": 56,
                    "time": 220.1650359999978,
                    "velocity": 0.29133858267716534,
                    "duration": 0.16583233333332714
                },
                {
                    "name": "G#3",
                    "midi": 56,
                    "time": 220.5268519999978,
                    "velocity": 0.29133858267716534,
                    "duration": 0.16583233333332714
                },
                {
                    "name": "G#3",
                    "midi": 56,
                    "time": 220.7077599999978,
                    "velocity": 0.29133858267716534,
                    "duration": 0.16583233333332714
                },
                {
                    "name": "C#3",
                    "midi": 49,
                    "time": 220.88866799999778,
                    "velocity": 0.28346456692913385,
                    "duration": 0.18090799999998808
                },
                {
                    "name": "E3",
                    "midi": 52,
                    "time": 220.88866799999778,
                    "velocity": 0.28346456692913385,
                    "duration": 0.18090799999998808
                },
                {
                    "name": "G#3",
                    "midi": 56,
                    "time": 221.06957599999777,
                    "velocity": 0.29133858267716534,
                    "duration": 0.16583233333332714
                },
                {
                    "name": "G#3",
                    "midi": 56,
                    "time": 221.25048399999775,
                    "velocity": 0.29133858267716534,
                    "duration": 0.16583233333332714
                },
                {
                    "name": "G#3",
                    "midi": 56,
                    "time": 221.61229999999776,
                    "velocity": 0.2992125984251969,
                    "duration": 0.16583233333332714
                },
                {
                    "name": "G#3",
                    "midi": 56,
                    "time": 221.79320799999775,
                    "velocity": 0.2992125984251969,
                    "duration": 0.16583233333332714
                },
                {
                    "name": "D#3",
                    "midi": 51,
                    "time": 221.97411599999774,
                    "velocity": 0.31496062992125984,
                    "duration": 0.18090799999998808
                },
                {
                    "name": "C3",
                    "midi": 48,
                    "time": 221.97411599999774,
                    "velocity": 0.31496062992125984,
                    "duration": 0.18090799999998808
                },
                {
                    "name": "G#3",
                    "midi": 56,
                    "time": 222.15502399999772,
                    "velocity": 0.29133858267716534,
                    "duration": 0.16583233333332714
                },
                {
                    "name": "G#3",
                    "midi": 56,
                    "time": 222.3359319999977,
                    "velocity": 0.29133858267716534,
                    "duration": 0.16583233333332714
                },
                {
                    "name": "G#3",
                    "midi": 56,
                    "time": 222.69774799999772,
                    "velocity": 0.29133858267716534,
                    "duration": 0.16583233333332714
                },
                {
                    "name": "G#3",
                    "midi": 56,
                    "time": 222.8786559999977,
                    "velocity": 0.29133858267716534,
                    "duration": 0.16583233333332714
                },
                {
                    "name": "C#3",
                    "midi": 49,
                    "time": 223.0595639999977,
                    "velocity": 0.28346456692913385,
                    "duration": 0.18090799999998808
                },
                {
                    "name": "E3",
                    "midi": 52,
                    "time": 223.0595639999977,
                    "velocity": 0.28346456692913385,
                    "duration": 0.18090799999998808
                },
                {
                    "name": "G#3",
                    "midi": 56,
                    "time": 223.24047199999768,
                    "velocity": 0.29133858267716534,
                    "duration": 0.16583233333332714
                },
                {
                    "name": "G#3",
                    "midi": 56,
                    "time": 223.42137999999767,
                    "velocity": 0.29133858267716534,
                    "duration": 0.16583233333332714
                },
                {
                    "name": "G#3",
                    "midi": 56,
                    "time": 223.78319599999767,
                    "velocity": 0.29133858267716534,
                    "duration": 0.16583233333332714
                },
                {
                    "name": "G#3",
                    "midi": 56,
                    "time": 223.96410399999766,
                    "velocity": 0.28346456692913385,
                    "duration": 0.16583233333332714
                },
                {
                    "name": "D#3",
                    "midi": 51,
                    "time": 224.14501199999765,
                    "velocity": 0.2992125984251969,
                    "duration": 0.18090799999998808
                },
                {
                    "name": "C3",
                    "midi": 48,
                    "time": 224.14501199999765,
                    "velocity": 0.2992125984251969,
                    "duration": 0.18090799999998808
                },
                {
                    "name": "G#3",
                    "midi": 56,
                    "time": 224.32591999999764,
                    "velocity": 0.2677165354330709,
                    "duration": 0.16583233333332714
                },
                {
                    "name": "G#3",
                    "midi": 56,
                    "time": 224.50682799999763,
                    "velocity": 0.2677165354330709,
                    "duration": 0.16583233333332714
                },
                {
                    "name": "G#3",
                    "midi": 56,
                    "time": 224.86864399999763,
                    "velocity": 0.25196850393700787,
                    "duration": 0.16583233333332714
                },
                {
                    "name": "G#3",
                    "midi": 56,
                    "time": 225.04955199999762,
                    "velocity": 0.25196850393700787,
                    "duration": 0.16583233333332714
                },
                {
                    "name": "B2",
                    "midi": 47,
                    "time": 225.2304599999976,
                    "velocity": 0.23622047244094488,
                    "duration": 0.18090799999998808
                },
                {
                    "name": "D3",
                    "midi": 50,
                    "time": 225.2304599999976,
                    "velocity": 0.23622047244094488,
                    "duration": 0.18090799999998808
                },
                {
                    "name": "G#3",
                    "midi": 56,
                    "time": 225.4113679999976,
                    "velocity": 0.2440944881889764,
                    "duration": 0.16583233333332714
                },
                {
                    "name": "G#3",
                    "midi": 56,
                    "time": 225.59227599999758,
                    "velocity": 0.23622047244094488,
                    "duration": 0.16583233333332714
                },
                {
                    "name": "G#3",
                    "midi": 56,
                    "time": 225.9540919999976,
                    "velocity": 0.2440944881889764,
                    "duration": 0.16583233333332714
                },
                {
                    "name": "G#3",
                    "midi": 56,
                    "time": 226.13499999999758,
                    "velocity": 0.23622047244094488,
                    "duration": 0.16583233333332714
                },
                {
                    "name": "C#3",
                    "midi": 49,
                    "time": 226.31590799999756,
                    "velocity": 0.25196850393700787,
                    "duration": 0.18090799999998808
                },
                {
                    "name": "A#2",
                    "midi": 46,
                    "time": 226.31590799999756,
                    "velocity": 0.25196850393700787,
                    "duration": 0.18090799999998808
                },
                {
                    "name": "G#3",
                    "midi": 56,
                    "time": 226.49681599999755,
                    "velocity": 0.2204724409448819,
                    "duration": 0.16583233333332714
                },
                {
                    "name": "G#3",
                    "midi": 56,
                    "time": 226.67772399999754,
                    "velocity": 0.2204724409448819,
                    "duration": 0.16583233333332714
                },
                {
                    "name": "G#3",
                    "midi": 56,
                    "time": 227.03953999999754,
                    "velocity": 0.2125984251968504,
                    "duration": 0.16583233333332714
                },
                {
                    "name": "G#3",
                    "midi": 56,
                    "time": 227.22044799999753,
                    "velocity": 0.2125984251968504,
                    "duration": 0.16583233333332714
                },
                {
                    "name": "C3",
                    "midi": 48,
                    "time": 227.40135599999752,
                    "velocity": 0.1968503937007874,
                    "duration": 0.18090799999998808
                },
                {
                    "name": "A2",
                    "midi": 45,
                    "time": 227.40135599999752,
                    "velocity": 0.1968503937007874,
                    "duration": 0.18090799999998808
                },
                {
                    "name": "G#3",
                    "midi": 56,
                    "time": 227.5822639999975,
                    "velocity": 0.2047244094488189,
                    "duration": 0.16583233333332714
                },
                {
                    "name": "G#3",
                    "midi": 56,
                    "time": 227.7631719999975,
                    "velocity": 0.1968503937007874,
                    "duration": 0.16583233333332714
                },
                {
                    "name": "G#2",
                    "midi": 44,
                    "time": 228.1249879999975,
                    "velocity": 0.3464566929133858,
                    "duration": 0.36181599999997616
                },
                {
                    "name": "G2",
                    "midi": 43,
                    "time": 228.3058959999975,
                    "velocity": 0.30708661417322836,
                    "duration": 0.18090799999998808
                },
                {
                    "name": "G#2",
                    "midi": 44,
                    "time": 228.48680399999748,
                    "velocity": 0.3464566929133858,
                    "duration": 0.36181599999997616
                },
                {
                    "name": "A#2",
                    "midi": 46,
                    "time": 228.66771199999746,
                    "velocity": 0.3228346456692913,
                    "duration": 0.18090799999998808
                },
                {
                    "name": "G#2",
                    "midi": 44,
                    "time": 228.84861999999745,
                    "velocity": 0.3543307086614173,
                    "duration": 0.36181599999997616
                },
                {
                    "name": "F#2",
                    "midi": 42,
                    "time": 229.02952799999744,
                    "velocity": 0.3228346456692913,
                    "duration": 0.18090799999998808
                },
                {
                    "name": "G#2",
                    "midi": 44,
                    "time": 229.21043599999743,
                    "velocity": 0.3228346456692913,
                    "duration": 0.9045399999999404
                },
                {
                    "name": "F#2",
                    "midi": 42,
                    "time": 229.39134399999742,
                    "velocity": 0.3779527559055118,
                    "duration": 0.18090799999998808
                },
                {
                    "name": "F2",
                    "midi": 41,
                    "time": 229.5722519999974,
                    "velocity": 0.33070866141732286,
                    "duration": 0.18090799999998808
                },
                {
                    "name": "F#2",
                    "midi": 42,
                    "time": 229.7531599999974,
                    "velocity": 0.33070866141732286,
                    "duration": 0.18090799999998808
                },
                {
                    "name": "F2",
                    "midi": 41,
                    "time": 229.93406799999738,
                    "velocity": 0.3700787401574803,
                    "duration": 0.18090799999998808
                },
                {
                    "name": "D#2",
                    "midi": 39,
                    "time": 230.11497599999737,
                    "velocity": 0.4330708661417323,
                    "duration": 0.18090799999998808
                },
                {
                    "name": "G#2",
                    "midi": 44,
                    "time": 230.29588399999736,
                    "velocity": 0.3779527559055118,
                    "duration": 0.36181599999997616
                },
                {
                    "name": "G2",
                    "midi": 43,
                    "time": 230.47679199999735,
                    "velocity": 0.33070866141732286,
                    "duration": 0.18090799999998808
                },
                {
                    "name": "G#2",
                    "midi": 44,
                    "time": 230.65769999999733,
                    "velocity": 0.3779527559055118,
                    "duration": 0.36181599999997616
                },
                {
                    "name": "A#2",
                    "midi": 46,
                    "time": 230.83860799999732,
                    "velocity": 0.3543307086614173,
                    "duration": 0.18090799999998808
                },
                {
                    "name": "G#2",
                    "midi": 44,
                    "time": 231.0195159999973,
                    "velocity": 0.3858267716535433,
                    "duration": 1.2663559999999165
                },
                {
                    "name": "D#2",
                    "midi": 39,
                    "time": 231.2004239999973,
                    "velocity": 0.36220472440944884,
                    "duration": 0.18090799999998808
                },
                {
                    "name": "F2",
                    "midi": 41,
                    "time": 231.3813319999973,
                    "velocity": 0.36220472440944884,
                    "duration": 0.18090799999998808
                },
                {
                    "name": "D#2",
                    "midi": 39,
                    "time": 231.56223999999727,
                    "velocity": 0.3937007874015748,
                    "duration": 0.18090799999998808
                },
                {
                    "name": "C#2",
                    "midi": 37,
                    "time": 231.74314799999726,
                    "velocity": 0.3700787401574803,
                    "duration": 0.18090799999998808
                },
                {
                    "name": "D#2",
                    "midi": 39,
                    "time": 231.92405599999725,
                    "velocity": 0.3700787401574803,
                    "duration": 0.18090799999998808
                },
                {
                    "name": "C#2",
                    "midi": 37,
                    "time": 232.10496399999724,
                    "velocity": 0.4015748031496063,
                    "duration": 0.18090799999998808
                },
                {
                    "name": "C2",
                    "midi": 36,
                    "time": 232.28587199999723,
                    "velocity": 0.44881889763779526,
                    "duration": 0.18090799999998808
                },
                {
                    "name": "G#2",
                    "midi": 44,
                    "time": 232.46677999999721,
                    "velocity": 0.4094488188976378,
                    "duration": 0.36181599999997616
                },
                {
                    "name": "G2",
                    "midi": 43,
                    "time": 232.6476879999972,
                    "velocity": 0.3700787401574803,
                    "duration": 0.18090799999998808
                },
                {
                    "name": "G#2",
                    "midi": 44,
                    "time": 232.8285959999972,
                    "velocity": 0.4094488188976378,
                    "duration": 0.36181599999997616
                },
                {
                    "name": "A#2",
                    "midi": 46,
                    "time": 233.00950399999718,
                    "velocity": 0.3858267716535433,
                    "duration": 0.18090799999998808
                },
                {
                    "name": "G#2",
                    "midi": 44,
                    "time": 233.19041199999717,
                    "velocity": 0.41732283464566927,
                    "duration": 1.2663559999999165
                },
                {
                    "name": "C2",
                    "midi": 36,
                    "time": 233.37131999999716,
                    "velocity": 0.3937007874015748,
                    "duration": 0.18090799999998808
                },
                {
                    "name": "C#2",
                    "midi": 37,
                    "time": 233.55222799999714,
                    "velocity": 0.3937007874015748,
                    "duration": 0.18090799999998808
                },
                {
                    "name": "C2",
                    "midi": 36,
                    "time": 233.73313599999713,
                    "velocity": 0.4251968503937008,
                    "duration": 0.18090799999998808
                },
                {
                    "name": "A#1",
                    "midi": 34,
                    "time": 233.91404399999712,
                    "velocity": 0.3937007874015748,
                    "duration": 0.18090799999998808
                },
                {
                    "name": "C2",
                    "midi": 36,
                    "time": 234.0949519999971,
                    "velocity": 0.4015748031496063,
                    "duration": 0.18090799999998808
                },
                {
                    "name": "A#1",
                    "midi": 34,
                    "time": 234.2758599999971,
                    "velocity": 0.4015748031496063,
                    "duration": 0.18090799999998808
                },
                {
                    "name": "G#1",
                    "midi": 32,
                    "time": 234.45676799999708,
                    "velocity": 0.4330708661417323,
                    "duration": 0.18090799999998808
                },
                {
                    "name": "G1",
                    "midi": 31,
                    "time": 234.63767599999707,
                    "velocity": 0.3858267716535433,
                    "duration": 0.18090799999998808
                },
                {
                    "name": "G#1",
                    "midi": 32,
                    "time": 234.81858399999706,
                    "velocity": 0.3858267716535433,
                    "duration": 0.18090799999998808
                },
                {
                    "name": "A#1",
                    "midi": 34,
                    "time": 234.99949199999705,
                    "velocity": 0.41732283464566927,
                    "duration": 0.18090799999998808
                },
                {
                    "name": "G#1",
                    "midi": 32,
                    "time": 235.18039999999704,
                    "velocity": 0.36220472440944884,
                    "duration": 0.18090799999998808
                },
                {
                    "name": "A#1",
                    "midi": 34,
                    "time": 235.36130799999702,
                    "velocity": 0.3543307086614173,
                    "duration": 0.18090799999998808
                },
                {
                    "name": "B1",
                    "midi": 35,
                    "time": 235.542215999997,
                    "velocity": 0.3937007874015748,
                    "duration": 0.18090799999998808
                },
                {
                    "name": "A#1",
                    "midi": 34,
                    "time": 235.723123999997,
                    "velocity": 0.3464566929133858,
                    "duration": 0.18090799999998808
                },
                {
                    "name": "B1",
                    "midi": 35,
                    "time": 235.904031999997,
                    "velocity": 0.33070866141732286,
                    "duration": 0.18090799999998808
                },
                {
                    "name": "C2",
                    "midi": 36,
                    "time": 236.08493999999698,
                    "velocity": 0.3700787401574803,
                    "duration": 0.18090799999998808
                },
                {
                    "name": "B1",
                    "midi": 35,
                    "time": 236.26584799999696,
                    "velocity": 0.31496062992125984,
                    "duration": 0.18090799999998808
                },
                {
                    "name": "C2",
                    "midi": 36,
                    "time": 236.44675599999695,
                    "velocity": 0.31496062992125984,
                    "duration": 0.18090799999998808
                },
                {
                    "name": "C#2",
                    "midi": 37,
                    "time": 236.62766399999694,
                    "velocity": 0.28346456692913385,
                    "duration": 0.18090799999998808
                },
                {
                    "name": "C#3",
                    "midi": 49,
                    "time": 236.80857199999693,
                    "velocity": 0.25196850393700787,
                    "duration": 0.18090799999998808
                },
                {
                    "name": "F2",
                    "midi": 41,
                    "time": 236.80857199999693,
                    "velocity": 0.2047244094488189,
                    "duration": 0.18090799999998808
                },
                {
                    "name": "G#2",
                    "midi": 44,
                    "time": 236.80857199999693,
                    "velocity": 0.2047244094488189,
                    "duration": 0.18090799999998808
                },
                {
                    "name": "C#2",
                    "midi": 37,
                    "time": 236.98947999999692,
                    "velocity": 0.25984251968503935,
                    "duration": 0.18090799999998808
                },
                {
                    "name": "C#3",
                    "midi": 49,
                    "time": 237.1703879999969,
                    "velocity": 0.28346456692913385,
                    "duration": 0.18090799999998808
                },
                {
                    "name": "F2",
                    "midi": 41,
                    "time": 237.1703879999969,
                    "velocity": 0.2204724409448819,
                    "duration": 0.18090799999998808
                },
                {
                    "name": "G#2",
                    "midi": 44,
                    "time": 237.1703879999969,
                    "velocity": 0.2204724409448819,
                    "duration": 0.18090799999998808
                },
                {
                    "name": "C#2",
                    "midi": 37,
                    "time": 237.3512959999969,
                    "velocity": 0.25984251968503935,
                    "duration": 0.18090799999998808
                },
                {
                    "name": "C#3",
                    "midi": 49,
                    "time": 237.53220399999688,
                    "velocity": 0.25984251968503935,
                    "duration": 0.18090799999998808
                },
                {
                    "name": "G#2",
                    "midi": 44,
                    "time": 237.53220399999688,
                    "velocity": 0.2047244094488189,
                    "duration": 0.18090799999998808
                },
                {
                    "name": "F2",
                    "midi": 41,
                    "time": 237.53220399999688,
                    "velocity": 0.2047244094488189,
                    "duration": 0.18090799999998808
                },
                {
                    "name": "C#2",
                    "midi": 37,
                    "time": 237.71311199999687,
                    "velocity": 0.28346456692913385,
                    "duration": 0.18090799999998808
                },
                {
                    "name": "C#3",
                    "midi": 49,
                    "time": 237.89401999999686,
                    "velocity": 0.25984251968503935,
                    "duration": 0.18090799999998808
                },
                {
                    "name": "F2",
                    "midi": 41,
                    "time": 237.89401999999686,
                    "velocity": 0.2047244094488189,
                    "duration": 0.18090799999998808
                },
                {
                    "name": "G#2",
                    "midi": 44,
                    "time": 237.89401999999686,
                    "velocity": 0.2047244094488189,
                    "duration": 0.18090799999998808
                },
                {
                    "name": "C#2",
                    "midi": 37,
                    "time": 238.07492799999685,
                    "velocity": 0.25984251968503935,
                    "duration": 0.18090799999998808
                },
                {
                    "name": "G#2",
                    "midi": 44,
                    "time": 238.25583599999683,
                    "velocity": 0.2204724409448819,
                    "duration": 0.18090799999998808
                },
                {
                    "name": "F2",
                    "midi": 41,
                    "time": 238.25583599999683,
                    "velocity": 0.2204724409448819,
                    "duration": 0.18090799999998808
                },
                {
                    "name": "C#3",
                    "midi": 49,
                    "time": 238.25583599999683,
                    "velocity": 0.28346456692913385,
                    "duration": 0.18090799999998808
                },
                {
                    "name": "C#2",
                    "midi": 37,
                    "time": 238.43674399999682,
                    "velocity": 0.25984251968503935,
                    "duration": 0.18090799999998808
                },
                {
                    "name": "C#3",
                    "midi": 49,
                    "time": 238.6176519999968,
                    "velocity": 0.2755905511811024,
                    "duration": 0.18090799999998808
                },
                {
                    "name": "F2",
                    "midi": 41,
                    "time": 238.6176519999968,
                    "velocity": 0.2125984251968504,
                    "duration": 0.18090799999998808
                },
                {
                    "name": "G#2",
                    "midi": 44,
                    "time": 238.6176519999968,
                    "velocity": 0.2125984251968504,
                    "duration": 0.18090799999998808
                },
                {
                    "name": "C#2",
                    "midi": 37,
                    "time": 238.7985599999968,
                    "velocity": 0.28346456692913385,
                    "duration": 0.18090799999998808
                },
                {
                    "name": "C#3",
                    "midi": 49,
                    "time": 238.97946799999679,
                    "velocity": 0.25196850393700787,
                    "duration": 0.18090799999998808
                },
                {
                    "name": "G#2",
                    "midi": 44,
                    "time": 238.97946799999679,
                    "velocity": 0.2047244094488189,
                    "duration": 0.18090799999998808
                },
                {
                    "name": "F2",
                    "midi": 41,
                    "time": 238.97946799999679,
                    "velocity": 0.2047244094488189,
                    "duration": 0.18090799999998808
                },
                {
                    "name": "C#2",
                    "midi": 37,
                    "time": 239.16037599999677,
                    "velocity": 0.25984251968503935,
                    "duration": 0.18090799999998808
                },
                {
                    "name": "C#3",
                    "midi": 49,
                    "time": 239.34128399999676,
                    "velocity": 0.28346456692913385,
                    "duration": 0.18090799999998808
                },
                {
                    "name": "G#2",
                    "midi": 44,
                    "time": 239.34128399999676,
                    "velocity": 0.2204724409448819,
                    "duration": 0.18090799999998808
                },
                {
                    "name": "F2",
                    "midi": 41,
                    "time": 239.34128399999676,
                    "velocity": 0.2204724409448819,
                    "duration": 0.18090799999998808
                },
                {
                    "name": "C#2",
                    "midi": 37,
                    "time": 239.52219199999675,
                    "velocity": 0.25984251968503935,
                    "duration": 0.18090799999998808
                },
                {
                    "name": "F2",
                    "midi": 41,
                    "time": 239.70309999999674,
                    "velocity": 0.2047244094488189,
                    "duration": 0.18090799999998808
                },
                {
                    "name": "C#3",
                    "midi": 49,
                    "time": 239.70309999999674,
                    "velocity": 0.25984251968503935,
                    "duration": 0.18090799999998808
                },
                {
                    "name": "G#2",
                    "midi": 44,
                    "time": 239.70309999999674,
                    "velocity": 0.2047244094488189,
                    "duration": 0.18090799999998808
                },
                {
                    "name": "D#2",
                    "midi": 39,
                    "time": 239.88400799999673,
                    "velocity": 0.28346456692913385,
                    "duration": 0.18090799999998808
                },
                {
                    "name": "D#3",
                    "midi": 51,
                    "time": 240.0649159999967,
                    "velocity": 0.25984251968503935,
                    "duration": 0.18090799999998808
                },
                {
                    "name": "F#2",
                    "midi": 42,
                    "time": 240.0649159999967,
                    "velocity": 0.2047244094488189,
                    "duration": 0.18090799999998808
                },
                {
                    "name": "G#2",
                    "midi": 44,
                    "time": 240.0649159999967,
                    "velocity": 0.2047244094488189,
                    "duration": 0.18090799999998808
                },
                {
                    "name": "D#2",
                    "midi": 39,
                    "time": 240.2458239999967,
                    "velocity": 0.25984251968503935,
                    "duration": 0.18090799999998808
                },
                {
                    "name": "G#2",
                    "midi": 44,
                    "time": 240.4267319999967,
                    "velocity": 0.2204724409448819,
                    "duration": 0.18090799999998808
                },
                {
                    "name": "F#2",
                    "midi": 42,
                    "time": 240.4267319999967,
                    "velocity": 0.2204724409448819,
                    "duration": 0.18090799999998808
                },
                {
                    "name": "D#3",
                    "midi": 51,
                    "time": 240.4267319999967,
                    "velocity": 0.28346456692913385,
                    "duration": 0.18090799999998808
                },
                {
                    "name": "D#2",
                    "midi": 39,
                    "time": 240.60763999999668,
                    "velocity": 0.25984251968503935,
                    "duration": 0.18090799999998808
                },
                {
                    "name": "F#2",
                    "midi": 42,
                    "time": 240.78854799999667,
                    "velocity": 0.2125984251968504,
                    "duration": 0.18090799999998808
                },
                {
                    "name": "G#2",
                    "midi": 44,
                    "time": 240.78854799999667,
                    "velocity": 0.2125984251968504,
                    "duration": 0.18090799999998808
                },
                {
                    "name": "D#3",
                    "midi": 51,
                    "time": 240.78854799999667,
                    "velocity": 0.2755905511811024,
                    "duration": 0.18090799999998808
                },
                {
                    "name": "F2",
                    "midi": 41,
                    "time": 240.96945599999665,
                    "velocity": 0.28346456692913385,
                    "duration": 0.18090799999998808
                },
                {
                    "name": "G#2",
                    "midi": 44,
                    "time": 241.15036399999664,
                    "velocity": 0.2047244094488189,
                    "duration": 0.18090799999998808
                },
                {
                    "name": "F3",
                    "midi": 53,
                    "time": 241.15036399999664,
                    "velocity": 0.25196850393700787,
                    "duration": 0.18090799999998808
                },
                {
                    "name": "C#3",
                    "midi": 49,
                    "time": 241.15036399999664,
                    "velocity": 0.2047244094488189,
                    "duration": 0.18090799999998808
                },
                {
                    "name": "F2",
                    "midi": 41,
                    "time": 241.33127199999663,
                    "velocity": 0.25984251968503935,
                    "duration": 0.18090799999998808
                },
                {
                    "name": "F3",
                    "midi": 53,
                    "time": 241.51217999999662,
                    "velocity": 0.28346456692913385,
                    "duration": 0.18090799999998808
                },
                {
                    "name": "C#3",
                    "midi": 49,
                    "time": 241.51217999999662,
                    "velocity": 0.2204724409448819,
                    "duration": 0.18090799999998808
                },
                {
                    "name": "G#2",
                    "midi": 44,
                    "time": 241.51217999999662,
                    "velocity": 0.2204724409448819,
                    "duration": 0.18090799999998808
                },
                {
                    "name": "F2",
                    "midi": 41,
                    "time": 241.6930879999966,
                    "velocity": 0.25984251968503935,
                    "duration": 0.18090799999998808
                },
                {
                    "name": "G#2",
                    "midi": 44,
                    "time": 241.8739959999966,
                    "velocity": 0.2047244094488189,
                    "duration": 0.18090799999998808
                },
                {
                    "name": "F3",
                    "midi": 53,
                    "time": 241.8739959999966,
                    "velocity": 0.25984251968503935,
                    "duration": 0.18090799999998808
                },
                {
                    "name": "C#3",
                    "midi": 49,
                    "time": 241.8739959999966,
                    "velocity": 0.2047244094488189,
                    "duration": 0.18090799999998808
                },
                {
                    "name": "F2",
                    "midi": 41,
                    "time": 242.05490399999658,
                    "velocity": 0.28346456692913385,
                    "duration": 0.18090799999998808
                },
                {
                    "name": "F3",
                    "midi": 53,
                    "time": 242.23581199999657,
                    "velocity": 0.25984251968503935,
                    "duration": 0.18090799999998808
                },
                {
                    "name": "G#2",
                    "midi": 44,
                    "time": 242.23581199999657,
                    "velocity": 0.2047244094488189,
                    "duration": 0.18090799999998808
                },
                {
                    "name": "C#3",
                    "midi": 49,
                    "time": 242.23581199999657,
                    "velocity": 0.2047244094488189,
                    "duration": 0.18090799999998808
                },
                {
                    "name": "F2",
                    "midi": 41,
                    "time": 242.41671999999656,
                    "velocity": 0.25984251968503935,
                    "duration": 0.18090799999998808
                },
                {
                    "name": "C#3",
                    "midi": 49,
                    "time": 242.59762799999655,
                    "velocity": 0.2204724409448819,
                    "duration": 0.18090799999998808
                },
                {
                    "name": "F#3",
                    "midi": 54,
                    "time": 242.59762799999655,
                    "velocity": 0.28346456692913385,
                    "duration": 0.18090799999998808
                },
                {
                    "name": "D#3",
                    "midi": 51,
                    "time": 242.59762799999655,
                    "velocity": 0.2204724409448819,
                    "duration": 0.18090799999998808
                },
                {
                    "name": "F#2",
                    "midi": 42,
                    "time": 242.77853599999654,
                    "velocity": 0.25984251968503935,
                    "duration": 0.18090799999998808
                },
                {
                    "name": "C#3",
                    "midi": 49,
                    "time": 242.95944399999652,
                    "velocity": 0.2125984251968504,
                    "duration": 0.18090799999998808
                },
                {
                    "name": "F#3",
                    "midi": 54,
                    "time": 242.95944399999652,
                    "velocity": 0.2755905511811024,
                    "duration": 0.18090799999998808
                },
                {
                    "name": "D#3",
                    "midi": 51,
                    "time": 242.95944399999652,
                    "velocity": 0.2125984251968504,
                    "duration": 0.18090799999998808
                },
                {
                    "name": "G#2",
                    "midi": 44,
                    "time": 243.1403519999965,
                    "velocity": 0.29133858267716534,
                    "duration": 0.18090799999998808
                },
                {
                    "name": "C#3",
                    "midi": 49,
                    "time": 243.3212599999965,
                    "velocity": 0.2125984251968504,
                    "duration": 0.18090799999998808
                },
                {
                    "name": "G#3",
                    "midi": 56,
                    "time": 243.3212599999965,
                    "velocity": 0.25984251968503935,
                    "duration": 0.18090799999998808
                },
                {
                    "name": "F3",
                    "midi": 53,
                    "time": 243.3212599999965,
                    "velocity": 0.2125984251968504,
                    "duration": 0.18090799999998808
                },
                {
                    "name": "G#2",
                    "midi": 44,
                    "time": 243.5021679999965,
                    "velocity": 0.2677165354330709,
                    "duration": 0.18090799999998808
                },
                {
                    "name": "C#3",
                    "midi": 49,
                    "time": 243.68307599999648,
                    "velocity": 0.23622047244094488,
                    "duration": 0.18090799999998808
                },
                {
                    "name": "G#3",
                    "midi": 56,
                    "time": 243.68307599999648,
                    "velocity": 0.2992125984251969,
                    "duration": 0.18090799999998808
                },
                {
                    "name": "F3",
                    "midi": 53,
                    "time": 243.68307599999648,
                    "velocity": 0.23622047244094488,
                    "duration": 0.18090799999998808
                },
                {
                    "name": "G#2",
                    "midi": 44,
                    "time": 243.86398399999646,
                    "velocity": 0.2677165354330709,
                    "duration": 0.18090799999998808
                },
                {
                    "name": "C#3",
                    "midi": 49,
                    "time": 244.04489199999645,
                    "velocity": 0.2204724409448819,
                    "duration": 0.18090799999998808
                },
                {
                    "name": "G#3",
                    "midi": 56,
                    "time": 244.04489199999645,
                    "velocity": 0.2755905511811024,
                    "duration": 0.18090799999998808
                },
                {
                    "name": "F3",
                    "midi": 53,
                    "time": 244.04489199999645,
                    "velocity": 0.2204724409448819,
                    "duration": 0.18090799999998808
                },
                {
                    "name": "G#2",
                    "midi": 44,
                    "time": 244.22579999999644,
                    "velocity": 0.31496062992125984,
                    "duration": 0.18090799999998808
                },
                {
                    "name": "C3",
                    "midi": 48,
                    "time": 244.40670799999643,
                    "velocity": 0.2283464566929134,
                    "duration": 0.18090799999998808
                },
                {
                    "name": "G#3",
                    "midi": 56,
                    "time": 244.40670799999643,
                    "velocity": 0.28346456692913385,
                    "duration": 0.18090799999998808
                },
                {
                    "name": "D#3",
                    "midi": 51,
                    "time": 244.40670799999643,
                    "velocity": 0.2283464566929134,
                    "duration": 0.18090799999998808
                },
                {
                    "name": "G#2",
                    "midi": 44,
                    "time": 244.58761599999642,
                    "velocity": 0.28346456692913385,
                    "duration": 0.18090799999998808
                },
                {
                    "name": "C3",
                    "midi": 48,
                    "time": 244.7685239999964,
                    "velocity": 0.25196850393700787,
                    "duration": 0.18090799999998808
                },
                {
                    "name": "G#3",
                    "midi": 56,
                    "time": 244.7685239999964,
                    "velocity": 0.3228346456692913,
                    "duration": 0.18090799999998808
                },
                {
                    "name": "D#3",
                    "midi": 51,
                    "time": 244.7685239999964,
                    "velocity": 0.25196850393700787,
                    "duration": 0.18090799999998808
                },
                {
                    "name": "G#2",
                    "midi": 44,
                    "time": 244.9494319999964,
                    "velocity": 0.29133858267716534,
                    "duration": 0.18090799999998808
                },
                {
                    "name": "C3",
                    "midi": 48,
                    "time": 245.13033999999638,
                    "velocity": 0.23622047244094488,
                    "duration": 0.18090799999998808
                },
                {
                    "name": "G#3",
                    "midi": 56,
                    "time": 245.13033999999638,
                    "velocity": 0.29133858267716534,
                    "duration": 0.18090799999998808
                },
                {
                    "name": "D#3",
                    "midi": 51,
                    "time": 245.13033999999638,
                    "velocity": 0.23622047244094488,
                    "duration": 0.18090799999998808
                },
                {
                    "name": "A2",
                    "midi": 45,
                    "time": 245.31124799999637,
                    "velocity": 0.4015748031496063,
                    "duration": 0.18090799999998808
                },
                {
                    "name": "C3",
                    "midi": 48,
                    "time": 245.49215599999636,
                    "velocity": 0.25984251968503935,
                    "duration": 0.18090799999998808
                },
                {
                    "name": "F3",
                    "midi": 53,
                    "time": 245.49215599999636,
                    "velocity": 0.25984251968503935,
                    "duration": 0.18090799999998808
                },
                {
                    "name": "A3",
                    "midi": 57,
                    "time": 245.49215599999636,
                    "velocity": 0.3228346456692913,
                    "duration": 0.18090799999998808
                },
                {
                    "name": "A2",
                    "midi": 45,
                    "time": 245.67306399999634,
                    "velocity": 0.3543307086614173,
                    "duration": 0.18090799999998808
                },
                {
                    "name": "C3",
                    "midi": 48,
                    "time": 245.85397199999633,
                    "velocity": 0.2283464566929134,
                    "duration": 0.18090799999998808
                },
                {
                    "name": "F3",
                    "midi": 53,
                    "time": 245.85397199999633,
                    "velocity": 0.2283464566929134,
                    "duration": 0.18090799999998808
                },
                {
                    "name": "A3",
                    "midi": 57,
                    "time": 245.85397199999633,
                    "velocity": 0.2992125984251969,
                    "duration": 0.18090799999998808
                },
                {
                    "name": "A2",
                    "midi": 45,
                    "time": 246.03487999999632,
                    "velocity": 0.28346456692913385,
                    "duration": 0.18090799999998808
                },
                {
                    "name": "C3",
                    "midi": 48,
                    "time": 246.2157879999963,
                    "velocity": 0.2204724409448819,
                    "duration": 0.18090799999998808
                },
                {
                    "name": "F3",
                    "midi": 53,
                    "time": 246.2157879999963,
                    "velocity": 0.2204724409448819,
                    "duration": 0.18090799999998808
                },
                {
                    "name": "A3",
                    "midi": 57,
                    "time": 246.2157879999963,
                    "velocity": 0.2992125984251969,
                    "duration": 0.18090799999998808
                },
                {
                    "name": "A2",
                    "midi": 45,
                    "time": 246.3966959999963,
                    "velocity": 0.30708661417322836,
                    "duration": 0.18090799999998808
                },
                {
                    "name": "C3",
                    "midi": 48,
                    "time": 246.57760399999628,
                    "velocity": 0.2204724409448819,
                    "duration": 0.18090799999998808
                },
                {
                    "name": "F3",
                    "midi": 53,
                    "time": 246.57760399999628,
                    "velocity": 0.2204724409448819,
                    "duration": 0.18090799999998808
                },
                {
                    "name": "A3",
                    "midi": 57,
                    "time": 246.57760399999628,
                    "velocity": 0.28346456692913385,
                    "duration": 0.18090799999998808
                },
                {
                    "name": "A2",
                    "midi": 45,
                    "time": 246.75851199999627,
                    "velocity": 0.30708661417322836,
                    "duration": 0.18090799999998808
                },
                {
                    "name": "F3",
                    "midi": 53,
                    "time": 246.93941999999626,
                    "velocity": 0.2125984251968504,
                    "duration": 0.18090799999998808
                },
                {
                    "name": "A#3",
                    "midi": 58,
                    "time": 246.93941999999626,
                    "velocity": 0.2755905511811024,
                    "duration": 0.18090799999998808
                },
                {
                    "name": "C#3",
                    "midi": 49,
                    "time": 246.93941999999626,
                    "velocity": 0.2125984251968504,
                    "duration": 0.18090799999998808
                },
                {
                    "name": "A#2",
                    "midi": 46,
                    "time": 247.12032799999625,
                    "velocity": 0.25984251968503935,
                    "duration": 0.18090799999998808
                },
                {
                    "name": "C#3",
                    "midi": 49,
                    "time": 247.30123599999624,
                    "velocity": 0.2125984251968504,
                    "duration": 0.18090799999998808
                },
                {
                    "name": "F3",
                    "midi": 53,
                    "time": 247.30123599999624,
                    "velocity": 0.2125984251968504,
                    "duration": 0.18090799999998808
                },
                {
                    "name": "A#3",
                    "midi": 58,
                    "time": 247.30123599999624,
                    "velocity": 0.2677165354330709,
                    "duration": 0.18090799999998808
                },
                {
                    "name": "A#2",
                    "midi": 46,
                    "time": 247.48214399999623,
                    "velocity": 0.29133858267716534,
                    "duration": 0.18090799999998808
                },
                {
                    "name": "C#3",
                    "midi": 49,
                    "time": 247.6630519999962,
                    "velocity": 0.2125984251968504,
                    "duration": 0.18090799999998808
                },
                {
                    "name": "F3",
                    "midi": 53,
                    "time": 247.6630519999962,
                    "velocity": 0.2125984251968504,
                    "duration": 0.18090799999998808
                },
                {
                    "name": "A#3",
                    "midi": 58,
                    "time": 247.6630519999962,
                    "velocity": 0.2677165354330709,
                    "duration": 0.18090799999998808
                },
                {
                    "name": "A#2",
                    "midi": 46,
                    "time": 247.8439599999962,
                    "velocity": 0.28346456692913385,
                    "duration": 0.18090799999998808
                },
                {
                    "name": "C#3",
                    "midi": 49,
                    "time": 248.0248679999962,
                    "velocity": 0.23622047244094488,
                    "duration": 0.18090799999998808
                },
                {
                    "name": "F3",
                    "midi": 53,
                    "time": 248.0248679999962,
                    "velocity": 0.23622047244094488,
                    "duration": 0.18090799999998808
                },
                {
                    "name": "A#3",
                    "midi": 58,
                    "time": 248.0248679999962,
                    "velocity": 0.30708661417322836,
                    "duration": 0.18090799999998808
                },
                {
                    "name": "A#2",
                    "midi": 46,
                    "time": 248.20577599999618,
                    "velocity": 0.29133858267716534,
                    "duration": 0.18090799999998808
                },
                {
                    "name": "F3",
                    "midi": 53,
                    "time": 248.38668399999617,
                    "velocity": 0.2283464566929134,
                    "duration": 0.18090799999998808
                },
                {
                    "name": "A#3",
                    "midi": 58,
                    "time": 248.38668399999617,
                    "velocity": 0.2992125984251969,
                    "duration": 0.18090799999998808
                },
                {
                    "name": "C#3",
                    "midi": 49,
                    "time": 248.38668399999617,
                    "velocity": 0.2283464566929134,
                    "duration": 0.18090799999998808
                },
                {
                    "name": "C3",
                    "midi": 48,
                    "time": 248.56759199999615,
                    "velocity": 0.31496062992125984,
                    "duration": 0.18090799999998808
                },
                {
                    "name": "D#3",
                    "midi": 51,
                    "time": 248.74849999999614,
                    "velocity": 0.2283464566929134,
                    "duration": 0.18090799999998808
                },
                {
                    "name": "F3",
                    "midi": 53,
                    "time": 248.74849999999614,
                    "velocity": 0.2283464566929134,
                    "duration": 0.18090799999998808
                },
                {
                    "name": "C4",
                    "midi": 60,
                    "time": 248.74849999999614,
                    "velocity": 0.2992125984251969,
                    "duration": 0.18090799999998808
                },
                {
                    "name": "C3",
                    "midi": 48,
                    "time": 248.92940799999613,
                    "velocity": 0.30708661417322836,
                    "duration": 0.18090799999998808
                },
                {
                    "name": "D#3",
                    "midi": 51,
                    "time": 249.11031599999612,
                    "velocity": 0.2677165354330709,
                    "duration": 0.18090799999998808
                },
                {
                    "name": "C4",
                    "midi": 60,
                    "time": 249.11031599999612,
                    "velocity": 0.33070866141732286,
                    "duration": 0.18090799999998808
                },
                {
                    "name": "F3",
                    "midi": 53,
                    "time": 249.11031599999612,
                    "velocity": 0.2677165354330709,
                    "duration": 0.18090799999998808
                },
                {
                    "name": "C3",
                    "midi": 48,
                    "time": 249.2912239999961,
                    "velocity": 0.31496062992125984,
                    "duration": 0.18090799999998808
                },
                {
                    "name": "F3",
                    "midi": 53,
                    "time": 249.4721319999961,
                    "velocity": 0.25984251968503935,
                    "duration": 0.18090799999998808
                },
                {
                    "name": "C4",
                    "midi": 60,
                    "time": 249.4721319999961,
                    "velocity": 0.33070866141732286,
                    "duration": 0.18090799999998808
                },
                {
                    "name": "D#3",
                    "midi": 51,
                    "time": 249.4721319999961,
                    "velocity": 0.25984251968503935,
                    "duration": 0.18090799999998808
                },
                {
                    "name": "C#3",
                    "midi": 49,
                    "time": 249.65303999999608,
                    "velocity": 0.29133858267716534,
                    "duration": 0.18090799999998808
                },
                {
                    "name": "F3",
                    "midi": 53,
                    "time": 249.83394799999607,
                    "velocity": 0.2125984251968504,
                    "duration": 0.18090799999998808
                },
                {
                    "name": "A#3",
                    "midi": 58,
                    "time": 249.83394799999607,
                    "velocity": 0.2125984251968504,
                    "duration": 0.18090799999998808
                },
                {
                    "name": "C#4",
                    "midi": 61,
                    "time": 249.83394799999607,
                    "velocity": 0.2677165354330709,
                    "duration": 0.18090799999998808
                },
                {
                    "name": "C#3",
                    "midi": 49,
                    "time": 250.01485599999606,
                    "velocity": 0.28346456692913385,
                    "duration": 0.18090799999998808
                },
                {
                    "name": "F3",
                    "midi": 53,
                    "time": 250.19576399999605,
                    "velocity": 0.23622047244094488,
                    "duration": 0.18090799999998808
                },
                {
                    "name": "A#3",
                    "midi": 58,
                    "time": 250.19576399999605,
                    "velocity": 0.23622047244094488,
                    "duration": 0.18090799999998808
                },
                {
                    "name": "C#4",
                    "midi": 61,
                    "time": 250.19576399999605,
                    "velocity": 0.30708661417322836,
                    "duration": 0.18090799999998808
                },
                {
                    "name": "C#3",
                    "midi": 49,
                    "time": 250.37667199999603,
                    "velocity": 0.29133858267716534,
                    "duration": 0.18090799999998808
                },
                {
                    "name": "A#3",
                    "midi": 58,
                    "time": 250.55757999999602,
                    "velocity": 0.2283464566929134,
                    "duration": 0.18090799999998808
                },
                {
                    "name": "C#4",
                    "midi": 61,
                    "time": 250.55757999999602,
                    "velocity": 0.2992125984251969,
                    "duration": 0.18090799999998808
                },
                {
                    "name": "F3",
                    "midi": 53,
                    "time": 250.55757999999602,
                    "velocity": 0.2283464566929134,
                    "duration": 0.18090799999998808
                },
                {
                    "name": "C#3",
                    "midi": 49,
                    "time": 250.738487999996,
                    "velocity": 0.31496062992125984,
                    "duration": 0.18090799999998808
                },
                {
                    "name": "F3",
                    "midi": 53,
                    "time": 250.919395999996,
                    "velocity": 0.2283464566929134,
                    "duration": 0.18090799999998808
                },
                {
                    "name": "A#3",
                    "midi": 58,
                    "time": 250.919395999996,
                    "velocity": 0.2283464566929134,
                    "duration": 0.18090799999998808
                },
                {
                    "name": "C#4",
                    "midi": 61,
                    "time": 250.919395999996,
                    "velocity": 0.2992125984251969,
                    "duration": 0.18090799999998808
                },
                {
                    "name": "C#3",
                    "midi": 49,
                    "time": 251.100303999996,
                    "velocity": 0.30708661417322836,
                    "duration": 0.18090799999998808
                },
                {
                    "name": "F#3",
                    "midi": 54,
                    "time": 251.28121199999597,
                    "velocity": 0.2204724409448819,
                    "duration": 0.18090799999998808
                },
                {
                    "name": "D#4",
                    "midi": 63,
                    "time": 251.28121199999597,
                    "velocity": 0.28346456692913385,
                    "duration": 0.18090799999998808
                },
                {
                    "name": "A#3",
                    "midi": 58,
                    "time": 251.28121199999597,
                    "velocity": 0.2204724409448819,
                    "duration": 0.18090799999998808
                },
                {
                    "name": "D#3",
                    "midi": 51,
                    "time": 251.46211999999596,
                    "velocity": 0.25984251968503935,
                    "duration": 0.18090799999998808
                },
                {
                    "name": "F#3",
                    "midi": 54,
                    "time": 251.64302799999595,
                    "velocity": 0.2125984251968504,
                    "duration": 0.18090799999998808
                },
                {
                    "name": "D#4",
                    "midi": 63,
                    "time": 251.64302799999595,
                    "velocity": 0.2755905511811024,
                    "duration": 0.18090799999998808
                },
                {
                    "name": "A#3",
                    "midi": 58,
                    "time": 251.64302799999595,
                    "velocity": 0.2125984251968504,
                    "duration": 0.18090799999998808
                },
                {
                    "name": "F3",
                    "midi": 53,
                    "time": 251.82393599999594,
                    "velocity": 0.29133858267716534,
                    "duration": 0.18090799999998808
                },
                {
                    "name": "A#3",
                    "midi": 58,
                    "time": 252.00484399999593,
                    "velocity": 0.2125984251968504,
                    "duration": 0.18090799999998808
                },
                {
                    "name": "F4",
                    "midi": 65,
                    "time": 252.00484399999593,
                    "velocity": 0.25984251968503935,
                    "duration": 0.18090799999998808
                },
                {
                    "name": "C#4",
                    "midi": 61,
                    "time": 252.00484399999593,
                    "velocity": 0.2125984251968504,
                    "duration": 0.18090799999998808
                },
                {
                    "name": "F3",
                    "midi": 53,
                    "time": 252.18575199999592,
                    "velocity": 0.2677165354330709,
                    "duration": 0.18090799999998808
                },
                {
                    "name": "A#3",
                    "midi": 58,
                    "time": 252.3666599999959,
                    "velocity": 0.23622047244094488,
                    "duration": 0.18090799999998808
                },
                {
                    "name": "F4",
                    "midi": 65,
                    "time": 252.3666599999959,
                    "velocity": 0.2992125984251969,
                    "duration": 0.18090799999998808
                },
                {
                    "name": "C#4",
                    "midi": 61,
                    "time": 252.3666599999959,
                    "velocity": 0.23622047244094488,
                    "duration": 0.18090799999998808
                },
                {
                    "name": "F3",
                    "midi": 53,
                    "time": 252.5475679999959,
                    "velocity": 0.2677165354330709,
                    "duration": 0.18090799999998808
                },
                {
                    "name": "C#4",
                    "midi": 61,
                    "time": 252.72847599999588,
                    "velocity": 0.2204724409448819,
                    "duration": 0.18090799999998808
                },
                {
                    "name": "F4",
                    "midi": 65,
                    "time": 252.72847599999588,
                    "velocity": 0.2755905511811024,
                    "duration": 0.18090799999998808
                },
                {
                    "name": "A#3",
                    "midi": 58,
                    "time": 252.72847599999588,
                    "velocity": 0.2204724409448819,
                    "duration": 0.18090799999998808
                },
                {
                    "name": "F3",
                    "midi": 53,
                    "time": 252.90938399999587,
                    "velocity": 0.31496062992125984,
                    "duration": 0.18090799999998808
                },
                {
                    "name": "C4",
                    "midi": 60,
                    "time": 253.09029199999586,
                    "velocity": 0.2283464566929134,
                    "duration": 0.18090799999998808
                },
                {
                    "name": "A3",
                    "midi": 57,
                    "time": 253.09029199999586,
                    "velocity": 0.2283464566929134,
                    "duration": 0.18090799999998808
                },
                {
                    "name": "D#4",
                    "midi": 63,
                    "time": 253.09029199999586,
                    "velocity": 0.29133858267716534,
                    "duration": 0.18090799999998808
                },
                {
                    "name": "F3",
                    "midi": 53,
                    "time": 253.27119999999584,
                    "velocity": 0.29133858267716534,
                    "duration": 0.18090799999998808
                },
                {
                    "name": "C4",
                    "midi": 60,
                    "time": 253.45210799999583,
                    "velocity": 0.25984251968503935,
                    "duration": 0.18090799999998808
                },
                {
                    "name": "A3",
                    "midi": 57,
                    "time": 253.45210799999583,
                    "velocity": 0.25984251968503935,
                    "duration": 0.18090799999998808
                },
                {
                    "name": "D#4",
                    "midi": 63,
                    "time": 253.45210799999583,
                    "velocity": 0.33070866141732286,
                    "duration": 0.18090799999998808
                },
                {
                    "name": "F3",
                    "midi": 53,
                    "time": 253.63301599999582,
                    "velocity": 0.2992125984251969,
                    "duration": 0.18090799999998808
                },
                {
                    "name": "C4",
                    "midi": 60,
                    "time": 253.8139239999958,
                    "velocity": 0.2440944881889764,
                    "duration": 0.18090799999998808
                },
                {
                    "name": "A3",
                    "midi": 57,
                    "time": 253.8139239999958,
                    "velocity": 0.2440944881889764,
                    "duration": 0.18090799999998808
                },
                {
                    "name": "D#4",
                    "midi": 63,
                    "time": 253.8139239999958,
                    "velocity": 0.2992125984251969,
                    "duration": 0.18090799999998808
                },
                {
                    "name": "F#3",
                    "midi": 54,
                    "time": 253.9948319999958,
                    "velocity": 0.41732283464566927,
                    "duration": 0.18090799999998808
                },
                {
                    "name": "F#4",
                    "midi": 66,
                    "time": 254.17573999999578,
                    "velocity": 0.33858267716535434,
                    "duration": 0.18090799999998808
                },
                {
                    "name": "C#4",
                    "midi": 61,
                    "time": 254.17573999999578,
                    "velocity": 0.2677165354330709,
                    "duration": 0.18090799999998808
                },
                {
                    "name": "A#3",
                    "midi": 58,
                    "time": 254.17573999999578,
                    "velocity": 0.2677165354330709,
                    "duration": 0.18090799999998808
                },
                {
                    "name": "F#3",
                    "midi": 54,
                    "time": 254.35664799999577,
                    "velocity": 0.3700787401574803,
                    "duration": 0.18090799999998808
                },
                {
                    "name": "F#4",
                    "midi": 66,
                    "time": 254.53755599999576,
                    "velocity": 0.36220472440944884,
                    "duration": 0.18090799999998808
                },
                {
                    "name": "C#4",
                    "midi": 61,
                    "time": 254.53755599999576,
                    "velocity": 0.2755905511811024,
                    "duration": 0.18090799999998808
                },
                {
                    "name": "A#3",
                    "midi": 58,
                    "time": 254.53755599999576,
                    "velocity": 0.2755905511811024,
                    "duration": 0.18090799999998808
                },
                {
                    "name": "F#3",
                    "midi": 54,
                    "time": 254.71846399999575,
                    "velocity": 0.33858267716535434,
                    "duration": 0.18090799999998808
                },
                {
                    "name": "F#4",
                    "midi": 66,
                    "time": 254.89937199999574,
                    "velocity": 0.36220472440944884,
                    "duration": 0.18090799999998808
                },
                {
                    "name": "C#4",
                    "midi": 61,
                    "time": 254.89937199999574,
                    "velocity": 0.2677165354330709,
                    "duration": 0.18090799999998808
                },
                {
                    "name": "A#3",
                    "midi": 58,
                    "time": 254.89937199999574,
                    "velocity": 0.2677165354330709,
                    "duration": 0.18090799999998808
                },
                {
                    "name": "F#3",
                    "midi": 54,
                    "time": 255.08027999999572,
                    "velocity": 0.3700787401574803,
                    "duration": 0.18090799999998808
                },
                {
                    "name": "F#4",
                    "midi": 66,
                    "time": 255.2611879999957,
                    "velocity": 0.3464566929133858,
                    "duration": 0.18090799999998808
                },
                {
                    "name": "C#4",
                    "midi": 61,
                    "time": 255.2611879999957,
                    "velocity": 0.2677165354330709,
                    "duration": 0.18090799999998808
                },
                {
                    "name": "A#3",
                    "midi": 58,
                    "time": 255.2611879999957,
                    "velocity": 0.2677165354330709,
                    "duration": 0.18090799999998808
                },
                {
                    "name": "F#3",
                    "midi": 54,
                    "time": 255.4420959999957,
                    "velocity": 0.3700787401574803,
                    "duration": 0.18090799999998808
                },
                {
                    "name": "A#3",
                    "midi": 58,
                    "time": 255.6230039999957,
                    "velocity": 0.2755905511811024,
                    "duration": 0.18090799999998808
                },
                {
                    "name": "C#4",
                    "midi": 61,
                    "time": 255.6230039999957,
                    "velocity": 0.2755905511811024,
                    "duration": 0.18090799999998808
                },
                {
                    "name": "F#4",
                    "midi": 66,
                    "time": 255.6230039999957,
                    "velocity": 0.36220472440944884,
                    "duration": 0.18090799999998808
                },
                {
                    "name": "F#3",
                    "midi": 54,
                    "time": 255.80391199999568,
                    "velocity": 0.33070866141732286,
                    "duration": 0.18090799999998808
                },
                {
                    "name": "F#4",
                    "midi": 66,
                    "time": 255.98481999999566,
                    "velocity": 0.3464566929133858,
                    "duration": 0.1809080000000165
                },
                {
                    "name": "A#3",
                    "midi": 58,
                    "time": 255.98481999999566,
                    "velocity": 0.2755905511811024,
                    "duration": 0.1809080000000165
                },
                {
                    "name": "C#4",
                    "midi": 61,
                    "time": 255.98481999999566,
                    "velocity": 0.2755905511811024,
                    "duration": 0.1809080000000165
                },
                {
                    "name": "F#3",
                    "midi": 54,
                    "time": 256.1657279999957,
                    "velocity": 0.3779527559055118,
                    "duration": 0.18090799999998808
                },
                {
                    "name": "F#4",
                    "midi": 66,
                    "time": 256.34663599999567,
                    "velocity": 0.3464566929133858,
                    "duration": 0.18090799999998808
                },
                {
                    "name": "C#4",
                    "midi": 61,
                    "time": 256.34663599999567,
                    "velocity": 0.2755905511811024,
                    "duration": 0.18090799999998808
                },
                {
                    "name": "A#3",
                    "midi": 58,
                    "time": 256.34663599999567,
                    "velocity": 0.2755905511811024,
                    "duration": 0.18090799999998808
                },
                {
                    "name": "F#3",
                    "midi": 54,
                    "time": 256.52754399999566,
                    "velocity": 0.3700787401574803,
                    "duration": 0.18090799999998808
                },
                {
                    "name": "F#4",
                    "midi": 66,
                    "time": 256.70845199999565,
                    "velocity": 0.3937007874015748,
                    "duration": 0.18090799999998808
                },
                {
                    "name": "C#4",
                    "midi": 61,
                    "time": 256.70845199999565,
                    "velocity": 0.30708661417322836,
                    "duration": 0.18090799999998808
                },
                {
                    "name": "A#3",
                    "midi": 58,
                    "time": 256.70845199999565,
                    "velocity": 0.30708661417322836,
                    "duration": 0.18090799999998808
                },
                {
                    "name": "F#3",
                    "midi": 54,
                    "time": 256.88935999999563,
                    "velocity": 0.3779527559055118,
                    "duration": 0.18090799999998808
                },
                {
                    "name": "A#3",
                    "midi": 58,
                    "time": 257.0702679999956,
                    "velocity": 0.29133858267716534,
                    "duration": 0.18090799999998808
                },
                {
                    "name": "F#4",
                    "midi": 66,
                    "time": 257.0702679999956,
                    "velocity": 0.3858267716535433,
                    "duration": 0.18090799999998808
                },
                {
                    "name": "C#4",
                    "midi": 61,
                    "time": 257.0702679999956,
                    "velocity": 0.29133858267716534,
                    "duration": 0.18090799999998808
                },
                {
                    "name": "G#3",
                    "midi": 56,
                    "time": 257.2511759999956,
                    "velocity": 0.4094488188976378,
                    "duration": 0.18090799999998808
                },
                {
                    "name": "G#4",
                    "midi": 68,
                    "time": 257.4320839999956,
                    "velocity": 0.3858267716535433,
                    "duration": 0.18090799999998808
                },
                {
                    "name": "B3",
                    "midi": 59,
                    "time": 257.4320839999956,
                    "velocity": 0.29133858267716534,
                    "duration": 0.18090799999998808
                },
                {
                    "name": "C#4",
                    "midi": 61,
                    "time": 257.4320839999956,
                    "velocity": 0.29133858267716534,
                    "duration": 0.18090799999998808
                },
                {
                    "name": "G#3",
                    "midi": 56,
                    "time": 257.6129919999956,
                    "velocity": 0.3937007874015748,
                    "duration": 0.18090799999998808
                },
                {
                    "name": "C#4",
                    "midi": 61,
                    "time": 257.7938999999956,
                    "velocity": 0.3464566929133858,
                    "duration": 0.18090799999998808
                },
                {
                    "name": "G#4",
                    "midi": 68,
                    "time": 257.7938999999956,
                    "velocity": 0.4330708661417323,
                    "duration": 0.18090799999998808
                },
                {
                    "name": "B3",
                    "midi": 59,
                    "time": 257.7938999999956,
                    "velocity": 0.3464566929133858,
                    "duration": 0.18090799999998808
                },
                {
                    "name": "G#3",
                    "midi": 56,
                    "time": 257.97480799999556,
                    "velocity": 0.4094488188976378,
                    "duration": 0.18090799999998808
                },
                {
                    "name": "B3",
                    "midi": 59,
                    "time": 258.15571599999555,
                    "velocity": 0.33070866141732286,
                    "duration": 0.18090799999998808
                },
                {
                    "name": "G#4",
                    "midi": 68,
                    "time": 258.15571599999555,
                    "velocity": 0.4330708661417323,
                    "duration": 0.18090799999998808
                },
                {
                    "name": "C#4",
                    "midi": 61,
                    "time": 258.15571599999555,
                    "velocity": 0.33070866141732286,
                    "duration": 0.18090799999998808
                },
                {
                    "name": "A#3",
                    "midi": 58,
                    "time": 258.33662399999554,
                    "velocity": 0.3779527559055118,
                    "duration": 0.18090799999998808
                },
                {
                    "name": "A#4",
                    "midi": 70,
                    "time": 258.5175319999955,
                    "velocity": 0.3464566929133858,
                    "duration": 0.18090799999998808
                },
                {
                    "name": "C#4",
                    "midi": 61,
                    "time": 258.5175319999955,
                    "velocity": 0.2755905511811024,
                    "duration": 0.18090799999998808
                },
                {
                    "name": "F#4",
                    "midi": 66,
                    "time": 258.5175319999955,
                    "velocity": 0.2755905511811024,
                    "duration": 0.18090799999998808
                },
                {
                    "name": "A#3",
                    "midi": 58,
                    "time": 258.6984399999955,
                    "velocity": 0.3700787401574803,
                    "duration": 0.18090799999998808
                },
                {
                    "name": "A#4",
                    "midi": 70,
                    "time": 258.8793479999955,
                    "velocity": 0.33070866141732286,
                    "duration": 0.18090799999998808
                },
                {
                    "name": "C#4",
                    "midi": 61,
                    "time": 258.8793479999955,
                    "velocity": 0.25984251968503935,
                    "duration": 0.18090799999998808
                },
                {
                    "name": "F#4",
                    "midi": 66,
                    "time": 258.8793479999955,
                    "velocity": 0.25984251968503935,
                    "duration": 0.18090799999998808
                },
                {
                    "name": "A#3",
                    "midi": 58,
                    "time": 259.0602559999955,
                    "velocity": 0.31496062992125984,
                    "duration": 0.18090799999998808
                },
                {
                    "name": "C#4",
                    "midi": 61,
                    "time": 259.2411639999955,
                    "velocity": 0.25984251968503935,
                    "duration": 0.18090799999998808
                },
                {
                    "name": "F#4",
                    "midi": 66,
                    "time": 259.2411639999955,
                    "velocity": 0.25984251968503935,
                    "duration": 0.18090799999998808
                },
                {
                    "name": "A#4",
                    "midi": 70,
                    "time": 259.2411639999955,
                    "velocity": 0.3464566929133858,
                    "duration": 0.18090799999998808
                },
                {
                    "name": "A#3",
                    "midi": 58,
                    "time": 259.42207199999547,
                    "velocity": 0.3937007874015748,
                    "duration": 0.18090799999998808
                },
                {
                    "name": "A#4",
                    "midi": 70,
                    "time": 259.60297999999545,
                    "velocity": 0.3858267716535433,
                    "duration": 0.18090799999998808
                },
                {
                    "name": "F#4",
                    "midi": 66,
                    "time": 259.60297999999545,
                    "velocity": 0.29133858267716534,
                    "duration": 0.18090799999998808
                },
                {
                    "name": "C#4",
                    "midi": 61,
                    "time": 259.60297999999545,
                    "velocity": 0.29133858267716534,
                    "duration": 0.18090799999998808
                },
                {
                    "name": "A#3",
                    "midi": 58,
                    "time": 259.78388799999544,
                    "velocity": 0.4094488188976378,
                    "duration": 0.18090799999998808
                },
                {
                    "name": "F#4",
                    "midi": 66,
                    "time": 259.96479599999543,
                    "velocity": 0.2992125984251969,
                    "duration": 0.18090799999998808
                },
                {
                    "name": "A#4",
                    "midi": 70,
                    "time": 259.96479599999543,
                    "velocity": 0.4015748031496063,
                    "duration": 0.18090799999998808
                },
                {
                    "name": "C#4",
                    "midi": 61,
                    "time": 259.96479599999543,
                    "velocity": 0.2992125984251969,
                    "duration": 0.18090799999998808
                },
                {
                    "name": "A#3",
                    "midi": 58,
                    "time": 260.1457039999954,
                    "velocity": 0.3779527559055118,
                    "duration": 0.18090799999998808
                },
                {
                    "name": "F#4",
                    "midi": 66,
                    "time": 260.3266119999954,
                    "velocity": 0.3228346456692913,
                    "duration": 0.18090799999998808
                },
                {
                    "name": "A#4",
                    "midi": 70,
                    "time": 260.3266119999954,
                    "velocity": 0.4330708661417323,
                    "duration": 0.18090799999998808
                },
                {
                    "name": "C#4",
                    "midi": 61,
                    "time": 260.3266119999954,
                    "velocity": 0.3228346456692913,
                    "duration": 0.18090799999998808
                },
                {
                    "name": "B3",
                    "midi": 59,
                    "time": 260.5075199999954,
                    "velocity": 0.44881889763779526,
                    "duration": 0.18090799999998808
                },
                {
                    "name": "B4",
                    "midi": 71,
                    "time": 260.6884279999954,
                    "velocity": 0.3464566929133858,
                    "duration": 0.18090799999998808
                },
                {
                    "name": "D4",
                    "midi": 62,
                    "time": 260.6884279999954,
                    "velocity": 0.2755905511811024,
                    "duration": 0.18090799999998808
                },
                {
                    "name": "F#4",
                    "midi": 66,
                    "time": 260.6884279999954,
                    "velocity": 0.2755905511811024,
                    "duration": 0.18090799999998808
                },
                {
                    "name": "B3",
                    "midi": 59,
                    "time": 260.86933599999537,
                    "velocity": 0.3700787401574803,
                    "duration": 0.18090799999998808
                },
                {
                    "name": "B4",
                    "midi": 71,
                    "time": 261.05024399999536,
                    "velocity": 0.33070866141732286,
                    "duration": 0.18090799999998808
                },
                {
                    "name": "D4",
                    "midi": 62,
                    "time": 261.05024399999536,
                    "velocity": 0.25984251968503935,
                    "duration": 0.18090799999998808
                },
                {
                    "name": "F#4",
                    "midi": 66,
                    "time": 261.05024399999536,
                    "velocity": 0.25984251968503935,
                    "duration": 0.18090799999998808
                },
                {
                    "name": "B3",
                    "midi": 59,
                    "time": 261.23115199999535,
                    "velocity": 0.31496062992125984,
                    "duration": 0.18090799999998808
                },
                {
                    "name": "D4",
                    "midi": 62,
                    "time": 261.41205999999534,
                    "velocity": 0.25984251968503935,
                    "duration": 0.18090799999998808
                },
                {
                    "name": "F#4",
                    "midi": 66,
                    "time": 261.41205999999534,
                    "velocity": 0.25984251968503935,
                    "duration": 0.18090799999998808
                },
                {
                    "name": "B4",
                    "midi": 71,
                    "time": 261.41205999999534,
                    "velocity": 0.3464566929133858,
                    "duration": 0.18090799999998808
                },
                {
                    "name": "B3",
                    "midi": 59,
                    "time": 261.5929679999953,
                    "velocity": 0.3937007874015748,
                    "duration": 0.18090799999998808
                },
                {
                    "name": "B4",
                    "midi": 71,
                    "time": 261.7738759999953,
                    "velocity": 0.3858267716535433,
                    "duration": 0.18090799999998808
                },
                {
                    "name": "F#4",
                    "midi": 66,
                    "time": 261.7738759999953,
                    "velocity": 0.29133858267716534,
                    "duration": 0.18090799999998808
                },
                {
                    "name": "D4",
                    "midi": 62,
                    "time": 261.7738759999953,
                    "velocity": 0.29133858267716534,
                    "duration": 0.18090799999998808
                },
                {
                    "name": "B3",
                    "midi": 59,
                    "time": 261.9547839999953,
                    "velocity": 0.41732283464566927,
                    "duration": 0.18090799999998808
                },
                {
                    "name": "F#4",
                    "midi": 66,
                    "time": 262.1356919999953,
                    "velocity": 0.2992125984251969,
                    "duration": 0.18090799999998808
                },
                {
                    "name": "B4",
                    "midi": 71,
                    "time": 262.1356919999953,
                    "velocity": 0.4094488188976378,
                    "duration": 0.18090799999998808
                },
                {
                    "name": "D4",
                    "midi": 62,
                    "time": 262.1356919999953,
                    "velocity": 0.2992125984251969,
                    "duration": 0.18090799999998808
                },
                {
                    "name": "B3",
                    "midi": 59,
                    "time": 262.3165999999953,
                    "velocity": 0.3858267716535433,
                    "duration": 0.18090799999998808
                },
                {
                    "name": "F#4",
                    "midi": 66,
                    "time": 262.49750799999526,
                    "velocity": 0.33070866141732286,
                    "duration": 0.18090799999998808
                },
                {
                    "name": "B4",
                    "midi": 71,
                    "time": 262.49750799999526,
                    "velocity": 0.4409448818897638,
                    "duration": 0.18090799999998808
                },
                {
                    "name": "D4",
                    "midi": 62,
                    "time": 262.49750799999526,
                    "velocity": 0.33070866141732286,
                    "duration": 0.18090799999998808
                },
                {
                    "name": "B3",
                    "midi": 59,
                    "time": 262.67841599999525,
                    "velocity": 0.47244094488188976,
                    "duration": 0.18090799999998808
                },
                {
                    "name": "D4",
                    "midi": 62,
                    "time": 262.85932399999524,
                    "velocity": 0.28346456692913385,
                    "duration": 0.18090799999998808
                },
                {
                    "name": "G4",
                    "midi": 67,
                    "time": 262.85932399999524,
                    "velocity": 0.28346456692913385,
                    "duration": 0.18090799999998808
                },
                {
                    "name": "B4",
                    "midi": 71,
                    "time": 262.85932399999524,
                    "velocity": 0.36220472440944884,
                    "duration": 0.18090799999998808
                },
                {
                    "name": "B3",
                    "midi": 59,
                    "time": 263.0402319999952,
                    "velocity": 0.3858267716535433,
                    "duration": 0.18090799999998808
                },
                {
                    "name": "D4",
                    "midi": 62,
                    "time": 263.2211399999952,
                    "velocity": 0.2677165354330709,
                    "duration": 0.18090799999998808
                },
                {
                    "name": "G4",
                    "midi": 67,
                    "time": 263.2211399999952,
                    "velocity": 0.2677165354330709,
                    "duration": 0.18090799999998808
                },
                {
                    "name": "B4",
                    "midi": 71,
                    "time": 263.2211399999952,
                    "velocity": 0.3543307086614173,
                    "duration": 0.18090799999998808
                },
                {
                    "name": "B3",
                    "midi": 59,
                    "time": 263.4020479999952,
                    "velocity": 0.33070866141732286,
                    "duration": 0.18090799999998808
                },
                {
                    "name": "G4",
                    "midi": 67,
                    "time": 263.5829559999952,
                    "velocity": 0.2755905511811024,
                    "duration": 0.18090799999998808
                },
                {
                    "name": "B4",
                    "midi": 71,
                    "time": 263.5829559999952,
                    "velocity": 0.3700787401574803,
                    "duration": 0.18090799999998808
                },
                {
                    "name": "D4",
                    "midi": 62,
                    "time": 263.5829559999952,
                    "velocity": 0.2755905511811024,
                    "duration": 0.18090799999998808
                },
                {
                    "name": "B3",
                    "midi": 59,
                    "time": 263.7638639999952,
                    "velocity": 0.41732283464566927,
                    "duration": 0.18090799999998808
                },
                {
                    "name": "D4",
                    "midi": 62,
                    "time": 263.94477199999517,
                    "velocity": 0.30708661417322836,
                    "duration": 0.18090799999998808
                },
                {
                    "name": "G4",
                    "midi": 67,
                    "time": 263.94477199999517,
                    "velocity": 0.30708661417322836,
                    "duration": 0.18090799999998808
                },
                {
                    "name": "B4",
                    "midi": 71,
                    "time": 263.94477199999517,
                    "velocity": 0.4015748031496063,
                    "duration": 0.18090799999998808
                },
                {
                    "name": "B3",
                    "midi": 59,
                    "time": 264.12567999999516,
                    "velocity": 0.4409448818897638,
                    "duration": 0.18090799999998808
                },
                {
                    "name": "D4",
                    "midi": 62,
                    "time": 264.30658799999514,
                    "velocity": 0.31496062992125984,
                    "duration": 0.18090799999998808
                },
                {
                    "name": "B4",
                    "midi": 71,
                    "time": 264.30658799999514,
                    "velocity": 0.4330708661417323,
                    "duration": 0.18090799999998808
                },
                {
                    "name": "G4",
                    "midi": 67,
                    "time": 264.30658799999514,
                    "velocity": 0.31496062992125984,
                    "duration": 0.18090799999998808
                },
                {
                    "name": "B3",
                    "midi": 59,
                    "time": 264.48749599999513,
                    "velocity": 0.4015748031496063,
                    "duration": 0.18090799999998808
                },
                {
                    "name": "D4",
                    "midi": 62,
                    "time": 264.6684039999951,
                    "velocity": 0.3464566929133858,
                    "duration": 0.18090799999998808
                },
                {
                    "name": "B4",
                    "midi": 71,
                    "time": 264.6684039999951,
                    "velocity": 0.4645669291338583,
                    "duration": 0.18090799999998808
                },
                {
                    "name": "G4",
                    "midi": 67,
                    "time": 264.6684039999951,
                    "velocity": 0.3464566929133858,
                    "duration": 0.18090799999998808
                },
                {
                    "name": "C4",
                    "midi": 60,
                    "time": 264.8493119999951,
                    "velocity": 0.5039370078740157,
                    "duration": 0.18090799999998808
                },
                {
                    "name": "E4",
                    "midi": 64,
                    "time": 265.0302199999951,
                    "velocity": 0.2992125984251969,
                    "duration": 0.18090799999998808
                },
                {
                    "name": "G4",
                    "midi": 67,
                    "time": 265.0302199999951,
                    "velocity": 0.2992125984251969,
                    "duration": 0.18090799999998808
                },
                {
                    "name": "C5",
                    "midi": 72,
                    "time": 265.0302199999951,
                    "velocity": 0.3779527559055118,
                    "duration": 0.18090799999998808
                },
                {
                    "name": "C4",
                    "midi": 60,
                    "time": 265.2111279999951,
                    "velocity": 0.4015748031496063,
                    "duration": 0.18090799999998808
                },
                {
                    "name": "E4",
                    "midi": 64,
                    "time": 265.3920359999951,
                    "velocity": 0.29133858267716534,
                    "duration": 0.18090799999998808
                },
                {
                    "name": "G4",
                    "midi": 67,
                    "time": 265.3920359999951,
                    "velocity": 0.29133858267716534,
                    "duration": 0.18090799999998808
                },
                {
                    "name": "C5",
                    "midi": 72,
                    "time": 265.3920359999951,
                    "velocity": 0.3779527559055118,
                    "duration": 0.18090799999998808
                },
                {
                    "name": "C4",
                    "midi": 60,
                    "time": 265.57294399999506,
                    "velocity": 0.3700787401574803,
                    "duration": 0.18090799999998808
                },
                {
                    "name": "G4",
                    "midi": 67,
                    "time": 265.75385199999505,
                    "velocity": 0.29133858267716534,
                    "duration": 0.18090799999998808
                },
                {
                    "name": "C5",
                    "midi": 72,
                    "time": 265.75385199999505,
                    "velocity": 0.3937007874015748,
                    "duration": 0.18090799999998808
                },
                {
                    "name": "E4",
                    "midi": 64,
                    "time": 265.75385199999505,
                    "velocity": 0.29133858267716534,
                    "duration": 0.18090799999998808
                },
                {
                    "name": "C4",
                    "midi": 60,
                    "time": 265.93475999999504,
                    "velocity": 0.44881889763779526,
                    "duration": 0.18090799999998808
                },
                {
                    "name": "E4",
                    "midi": 64,
                    "time": 266.115667999995,
                    "velocity": 0.3228346456692913,
                    "duration": 0.18090799999998808
                },
                {
                    "name": "G4",
                    "midi": 67,
                    "time": 266.115667999995,
                    "velocity": 0.3228346456692913,
                    "duration": 0.18090799999998808
                },
                {
                    "name": "C5",
                    "midi": 72,
                    "time": 266.115667999995,
                    "velocity": 0.4330708661417323,
                    "duration": 0.18090799999998808
                },
                {
                    "name": "C4",
                    "midi": 60,
                    "time": 266.296575999995,
                    "velocity": 0.4645669291338583,
                    "duration": 0.18090799999998808
                },
                {
                    "name": "E4",
                    "midi": 64,
                    "time": 266.477483999995,
                    "velocity": 0.3464566929133858,
                    "duration": 0.18090799999998808
                },
                {
                    "name": "C5",
                    "midi": 72,
                    "time": 266.477483999995,
                    "velocity": 0.4566929133858268,
                    "duration": 0.18090799999998808
                },
                {
                    "name": "G4",
                    "midi": 67,
                    "time": 266.477483999995,
                    "velocity": 0.3464566929133858,
                    "duration": 0.18090799999998808
                },
                {
                    "name": "C4",
                    "midi": 60,
                    "time": 266.658391999995,
                    "velocity": 0.4330708661417323,
                    "duration": 0.18090799999998808
                },
                {
                    "name": "E4",
                    "midi": 64,
                    "time": 266.839299999995,
                    "velocity": 0.3700787401574803,
                    "duration": 0.18090799999998808
                },
                {
                    "name": "C5",
                    "midi": 72,
                    "time": 266.839299999995,
                    "velocity": 0.48031496062992124,
                    "duration": 0.18090799999998808
                },
                {
                    "name": "G4",
                    "midi": 67,
                    "time": 266.839299999995,
                    "velocity": 0.3700787401574803,
                    "duration": 0.18090799999998808
                },
                {
                    "name": "C#4",
                    "midi": 61,
                    "time": 267.02020799999497,
                    "velocity": 0.8031496062992126,
                    "duration": 1.085448000000099
                },
                {
                    "name": "E4",
                    "midi": 64,
                    "time": 267.110661999995,
                    "velocity": 0.6141732283464567,
                    "duration": 0.9949940000000765
                },
                {
                    "name": "G4",
                    "midi": 67,
                    "time": 267.201115999995,
                    "velocity": 0.6141732283464567,
                    "duration": 0.9045400000000541
                },
                {
                    "name": "A#4",
                    "midi": 70,
                    "time": 267.29156999999503,
                    "velocity": 0.6141732283464567,
                    "duration": 0.8140860000000316
                },
                {
                    "name": "C#5",
                    "midi": 73,
                    "time": 267.38202399999506,
                    "velocity": 0.6141732283464567,
                    "duration": 0.7236320000000092
                },
                {
                    "name": "E4",
                    "midi": 64,
                    "time": 268.10565599999507,
                    "velocity": 0.7952755905511811,
                    "duration": 1.085448000000099
                },
                {
                    "name": "G4",
                    "midi": 67,
                    "time": 268.1961099999951,
                    "velocity": 0.6141732283464567,
                    "duration": 0.9949940000000765
                },
                {
                    "name": "A#4",
                    "midi": 70,
                    "time": 268.2865639999951,
                    "velocity": 0.6141732283464567,
                    "duration": 0.9045400000000541
                },
                {
                    "name": "C#5",
                    "midi": 73,
                    "time": 268.37701799999513,
                    "velocity": 0.6141732283464567,
                    "duration": 0.8140860000000316
                },
                {
                    "name": "E5",
                    "midi": 76,
                    "time": 268.46747199999515,
                    "velocity": 0.6220472440944882,
                    "duration": 0.7236320000000092
                },
                {
                    "name": "G4",
                    "midi": 67,
                    "time": 269.19110399999516,
                    "velocity": 0.7952755905511811,
                    "duration": 1.0854480000000422
                },
                {
                    "name": "A#4",
                    "midi": 70,
                    "time": 269.2815579999952,
                    "velocity": 0.6614173228346457,
                    "duration": 0.9949940000000197
                },
                {
                    "name": "C#5",
                    "midi": 73,
                    "time": 269.3720119999952,
                    "velocity": 0.6614173228346457,
                    "duration": 0.9045399999999972
                },
                {
                    "name": "E5",
                    "midi": 76,
                    "time": 269.46246599999523,
                    "velocity": 0.6614173228346457,
                    "duration": 0.8140859999999748
                },
                {
                    "name": "A#4",
                    "midi": 70,
                    "time": 270.2765519999952,
                    "velocity": 0.7874015748031497,
                    "duration": 1.0854480000000422
                },
                {
                    "name": "C#5",
                    "midi": 73,
                    "time": 270.36700599999523,
                    "velocity": 0.6614173228346457,
                    "duration": 0.9949940000000197
                },
                {
                    "name": "E5",
                    "midi": 76,
                    "time": 270.45745999999525,
                    "velocity": 0.6771653543307087,
                    "duration": 0.9045399999999972
                },
                {
                    "name": "C#5",
                    "midi": 73,
                    "time": 271.36199999999525,
                    "velocity": 0.7559055118110236,
                    "duration": 0.5427240000000211
                },
                {
                    "name": "E5",
                    "midi": 76,
                    "time": 271.45245399999527,
                    "velocity": 0.6614173228346457,
                    "duration": 0.4522699999999986
                },
                {
                    "name": "G5",
                    "midi": 79,
                    "time": 271.5429079999953,
                    "velocity": 0.6614173228346457,
                    "duration": 0.36181599999997616
                },
                {
                    "name": "E5",
                    "midi": 76,
                    "time": 271.90472399999527,
                    "velocity": 0.7716535433070866,
                    "duration": 0.5427240000000211
                },
                {
                    "name": "G5",
                    "midi": 79,
                    "time": 271.9951779999953,
                    "velocity": 0.6614173228346457,
                    "duration": 0.4522699999999986
                },
                {
                    "name": "A#5",
                    "midi": 82,
                    "time": 272.0856319999953,
                    "velocity": 0.6614173228346457,
                    "duration": 0.36181599999997616
                },
                {
                    "name": "G5",
                    "midi": 79,
                    "time": 272.4474479999953,
                    "velocity": 0.7874015748031497,
                    "duration": 0.09045400000002246
                },
                {
                    "name": "A#5",
                    "midi": 82,
                    "time": 272.5379019999953,
                    "velocity": 0.6614173228346457,
                    "duration": 0.09045400000002246
                },
                {
                    "name": "C#6",
                    "midi": 85,
                    "time": 272.62835599999534,
                    "velocity": 0.6614173228346457,
                    "duration": 0.09045400000002246
                },
                {
                    "name": "A#5",
                    "midi": 82,
                    "time": 272.99017199999537,
                    "velocity": 0.7874015748031497,
                    "duration": 0.09045400000002246
                },
                {
                    "name": "C#6",
                    "midi": 85,
                    "time": 273.0806259999954,
                    "velocity": 0.6614173228346457,
                    "duration": 0.09045400000002246
                },
                {
                    "name": "E6",
                    "midi": 88,
                    "time": 273.1710799999954,
                    "velocity": 0.6614173228346457,
                    "duration": 0.09045400000002246
                },
                {
                    "name": "C#6",
                    "midi": 85,
                    "time": 273.53289599999545,
                    "velocity": 0.8031496062992126,
                    "duration": 0.09045400000002246
                },
                {
                    "name": "E6",
                    "midi": 88,
                    "time": 273.62334999999547,
                    "velocity": 0.6614173228346457,
                    "duration": 0.08593130000002702
                },
                {
                    "name": "A#5",
                    "midi": 82,
                    "time": 274.07561999999547,
                    "velocity": 0.7637795275590551,
                    "duration": 0.09045400000002246
                },
                {
                    "name": "C#6",
                    "midi": 85,
                    "time": 274.1660739999955,
                    "velocity": 0.6614173228346457,
                    "duration": 0.08593130000002702
                },
                {
                    "name": "G5",
                    "midi": 79,
                    "time": 274.6183439999955,
                    "velocity": 0.7559055118110236,
                    "duration": 0.09045400000002246
                },
                {
                    "name": "A#5",
                    "midi": 82,
                    "time": 274.7087979999955,
                    "velocity": 0.6614173228346457,
                    "duration": 0.08593130000002702
                },
                {
                    "name": "E5",
                    "midi": 76,
                    "time": 275.1610679999955,
                    "velocity": 0.7559055118110236,
                    "duration": 0.09045400000002246
                },
                {
                    "name": "G5",
                    "midi": 79,
                    "time": 275.25152199999553,
                    "velocity": 0.6614173228346457,
                    "duration": 0.08593130000002702
                },
                {
                    "name": "C#5",
                    "midi": 73,
                    "time": 275.70379199999553,
                    "velocity": 0.7559055118110236,
                    "duration": 0.09045400000002246
                },
                {
                    "name": "E5",
                    "midi": 76,
                    "time": 275.79424599999555,
                    "velocity": 0.6614173228346457,
                    "duration": 0.08593130000002702
                },
                {
                    "name": "A#4",
                    "midi": 70,
                    "time": 276.24651599999555,
                    "velocity": 0.7559055118110236,
                    "duration": 0.09045400000002246
                },
                {
                    "name": "C#5",
                    "midi": 73,
                    "time": 276.3369699999956,
                    "velocity": 0.6614173228346457,
                    "duration": 0.08593130000002702
                },
                {
                    "name": "G4",
                    "midi": 67,
                    "time": 276.7892399999956,
                    "velocity": 0.7559055118110236,
                    "duration": 0.09045400000002246
                },
                {
                    "name": "A#4",
                    "midi": 70,
                    "time": 276.8796939999956,
                    "velocity": 0.6614173228346457,
                    "duration": 0.08593130000002702
                },
                {
                    "name": "E4",
                    "midi": 64,
                    "time": 277.3319639999956,
                    "velocity": 0.7559055118110236,
                    "duration": 0.09045400000002246
                },
                {
                    "name": "G4",
                    "midi": 67,
                    "time": 277.4224179999956,
                    "velocity": 0.6614173228346457,
                    "duration": 0.08593130000002702
                },
                {
                    "name": "C#4",
                    "midi": 61,
                    "time": 277.8746879999956,
                    "velocity": 0.7165354330708661,
                    "duration": 0.09045400000002246
                },
                {
                    "name": "E4",
                    "midi": 64,
                    "time": 277.96514199999564,
                    "velocity": 0.6299212598425197,
                    "duration": 0.08593130000002702
                },
                {
                    "name": "A#3",
                    "midi": 58,
                    "time": 278.41741199999564,
                    "velocity": 0.7165354330708661,
                    "duration": 0.09045400000002246
                },
                {
                    "name": "C#4",
                    "midi": 61,
                    "time": 278.50786599999566,
                    "velocity": 0.6299212598425197,
                    "duration": 0.08593130000002702
                },
                {
                    "name": "G3",
                    "midi": 55,
                    "time": 278.96013599999566,
                    "velocity": 0.7165354330708661,
                    "duration": 0.09045400000002246
                },
                {
                    "name": "A#3",
                    "midi": 58,
                    "time": 279.0505899999957,
                    "velocity": 0.6299212598425197,
                    "duration": 0.08593130000002702
                },
                {
                    "name": "E3",
                    "midi": 52,
                    "time": 279.5028599999957,
                    "velocity": 0.7165354330708661,
                    "duration": 0.09045400000002246
                },
                {
                    "name": "G3",
                    "midi": 55,
                    "time": 279.5933139999957,
                    "velocity": 0.6299212598425197,
                    "duration": 0.08593130000002702
                },
                {
                    "name": "C#3",
                    "midi": 49,
                    "time": 280.0455839999957,
                    "velocity": 0.7165354330708661,
                    "duration": 0.09045400000002246
                },
                {
                    "name": "E3",
                    "midi": 52,
                    "time": 280.1360379999957,
                    "velocity": 0.6299212598425197,
                    "duration": 0.08593130000002702
                },
                {
                    "name": "A#2",
                    "midi": 46,
                    "time": 280.5883079999957,
                    "velocity": 0.7165354330708661,
                    "duration": 0.09045400000002246
                },
                {
                    "name": "C#3",
                    "midi": 49,
                    "time": 280.67876199999574,
                    "velocity": 0.6299212598425197,
                    "duration": 0.08593130000002702
                },
                {
                    "name": "G2",
                    "midi": 43,
                    "time": 281.13103199999574,
                    "velocity": 0.7165354330708661,
                    "duration": 0.09045400000002246
                },
                {
                    "name": "A#2",
                    "midi": 46,
                    "time": 281.22148599999576,
                    "velocity": 0.6299212598425197,
                    "duration": 0.08593130000002702
                },
                {
                    "name": "E2",
                    "midi": 40,
                    "time": 281.67375599999576,
                    "velocity": 0.7165354330708661,
                    "duration": 0.09045400000002246
                },
                {
                    "name": "G2",
                    "midi": 43,
                    "time": 281.7642099999958,
                    "velocity": 0.6299212598425197,
                    "duration": 0.08593130000002702
                },
                {
                    "name": "C#2",
                    "midi": 37,
                    "time": 282.2164799999958,
                    "velocity": 0.8188976377952756,
                    "duration": 0.36181599999997616
                },
                {
                    "name": "C#5",
                    "midi": 73,
                    "time": 282.75920399999575,
                    "velocity": 0.8346456692913385,
                    "duration": 0.18090799999998808
                },
                {
                    "name": "C#5",
                    "midi": 73,
                    "time": 282.94011199999574,
                    "velocity": 0.7874015748031497,
                    "duration": 0.18090799999998808
                },
                {
                    "name": "C#5",
                    "midi": 73,
                    "time": 283.1210199999957,
                    "velocity": 0.7874015748031497,
                    "duration": 0.18090799999998808
                },
                {
                    "name": "C#5",
                    "midi": 73,
                    "time": 283.3019279999957,
                    "velocity": 0.8267716535433071,
                    "duration": 0.36181599999997616
                },
                {
                    "name": "C#2",
                    "midi": 37,
                    "time": 283.8446519999957,
                    "velocity": 0.7716535433070866,
                    "duration": 0.18090799999998808
                },
                {
                    "name": "C#2",
                    "midi": 37,
                    "time": 284.02555999999566,
                    "velocity": 0.7322834645669292,
                    "duration": 0.18090799999998808
                },
                {
                    "name": "C#2",
                    "midi": 37,
                    "time": 284.20646799999565,
                    "velocity": 0.7322834645669292,
                    "duration": 0.18090799999998808
                },
                {
                    "name": "C#2",
                    "midi": 37,
                    "time": 284.38737599999564,
                    "velocity": 0.7874015748031497,
                    "duration": 0.36181599999997616
                },
                {
                    "name": "C#5",
                    "midi": 73,
                    "time": 284.9300999999956,
                    "velocity": 0.8346456692913385,
                    "duration": 0.18090799999998808
                },
                {
                    "name": "C#5",
                    "midi": 73,
                    "time": 285.1110079999956,
                    "velocity": 0.7874015748031497,
                    "duration": 0.18090799999998808
                },
                {
                    "name": "C#5",
                    "midi": 73,
                    "time": 285.2919159999956,
                    "velocity": 0.7874015748031497,
                    "duration": 0.18090799999998808
                },
                {
                    "name": "C#5",
                    "midi": 73,
                    "time": 285.47282399999557,
                    "velocity": 0.8267716535433071,
                    "duration": 0.36181599999997616
                },
                {
                    "name": "C#2",
                    "midi": 37,
                    "time": 286.01554799999553,
                    "velocity": 0.7716535433070866,
                    "duration": 0.18090799999998808
                },
                {
                    "name": "C#2",
                    "midi": 37,
                    "time": 286.1964559999955,
                    "velocity": 0.7322834645669292,
                    "duration": 0.18090799999998808
                },
                {
                    "name": "C#2",
                    "midi": 37,
                    "time": 286.3773639999955,
                    "velocity": 0.7322834645669292,
                    "duration": 0.18090799999998808
                },
                {
                    "name": "C2",
                    "midi": 36,
                    "time": 286.5582719999955,
                    "velocity": 0.7874015748031497,
                    "duration": 0.36181599999997616
                },
                {
                    "name": "C#5",
                    "midi": 73,
                    "time": 287.10099599999546,
                    "velocity": 0.8346456692913385,
                    "duration": 0.18090799999998808
                },
                {
                    "name": "C#5",
                    "midi": 73,
                    "time": 287.28190399999545,
                    "velocity": 0.7874015748031497,
                    "duration": 0.18090799999998808
                },
                {
                    "name": "C#5",
                    "midi": 73,
                    "time": 287.46281199999544,
                    "velocity": 0.7874015748031497,
                    "duration": 0.18090799999998808
                },
                {
                    "name": "C5",
                    "midi": 72,
                    "time": 287.6437199999954,
                    "velocity": 0.8267716535433071,
                    "duration": 0.36181599999997616
                },
                {
                    "name": "C#2",
                    "midi": 37,
                    "time": 288.1864439999954,
                    "velocity": 0.7716535433070866,
                    "duration": 0.18090799999998808
                },
                {
                    "name": "C#2",
                    "midi": 37,
                    "time": 288.3673519999954,
                    "velocity": 0.7322834645669292,
                    "duration": 0.18090799999998808
                },
                {
                    "name": "C#2",
                    "midi": 37,
                    "time": 288.54825999999537,
                    "velocity": 0.7322834645669292,
                    "duration": 0.18090799999998808
                },
                {
                    "name": "C2",
                    "midi": 36,
                    "time": 288.72916799999535,
                    "velocity": 0.7874015748031497,
                    "duration": 0.36181599999997616
                },
                {
                    "name": "C#5",
                    "midi": 73,
                    "time": 289.2718919999953,
                    "velocity": 0.8346456692913385,
                    "duration": 0.18090799999998808
                },
                {
                    "name": "C#5",
                    "midi": 73,
                    "time": 289.4527999999953,
                    "velocity": 0.7874015748031497,
                    "duration": 0.18090799999998808
                },
                {
                    "name": "C#5",
                    "midi": 73,
                    "time": 289.6337079999953,
                    "velocity": 0.7874015748031497,
                    "duration": 0.18090799999998808
                },
                {
                    "name": "C5",
                    "midi": 72,
                    "time": 289.8146159999953,
                    "velocity": 0.8267716535433071,
                    "duration": 0.36181599999997616
                },
                {
                    "name": "C#2",
                    "midi": 37,
                    "time": 290.35733999999525,
                    "velocity": 0.8661417322834646,
                    "duration": 0.18090799999998808
                },
                {
                    "name": "C#2",
                    "midi": 37,
                    "time": 290.53824799999524,
                    "velocity": 0.8267716535433071,
                    "duration": 0.18090799999998808
                },
                {
                    "name": "C#2",
                    "midi": 37,
                    "time": 290.7191559999952,
                    "velocity": 0.8267716535433071,
                    "duration": 0.18090799999998808
                },
                {
                    "name": "C2",
                    "midi": 36,
                    "time": 290.9000639999952,
                    "velocity": 0.4645669291338583,
                    "duration": 0.16583233333335556
                },
                {
                    "name": "C2",
                    "midi": 36,
                    "time": 291.08097199999526,
                    "velocity": 0.23622047244094488,
                    "duration": 0.16583233333335556
                },
                {
                    "name": "C2",
                    "midi": 36,
                    "time": 291.2618799999953,
                    "velocity": 0.23622047244094488,
                    "duration": 0.16583233333335556
                },
                {
                    "name": "C2",
                    "midi": 36,
                    "time": 291.44278799999535,
                    "velocity": 0.25196850393700787,
                    "duration": 0.16583233333335556
                },
                {
                    "name": "C2",
                    "midi": 36,
                    "time": 291.6236959999954,
                    "velocity": 0.2125984251968504,
                    "duration": 0.16583233333335556
                },
                {
                    "name": "C2",
                    "midi": 36,
                    "time": 291.80460399999544,
                    "velocity": 0.2125984251968504,
                    "duration": 0.16583233333335556
                },
                {
                    "name": "C2",
                    "midi": 36,
                    "time": 291.9855119999955,
                    "velocity": 0.23622047244094488,
                    "duration": 0.16583233333335556
                },
                {
                    "name": "C2",
                    "midi": 36,
                    "time": 292.1664199999955,
                    "velocity": 0.1889763779527559,
                    "duration": 0.16583233333335556
                },
                {
                    "name": "C2",
                    "midi": 36,
                    "time": 292.34732799999557,
                    "velocity": 0.1889763779527559,
                    "duration": 0.16583233333335556
                },
                {
                    "name": "C2",
                    "midi": 36,
                    "time": 292.5282359999956,
                    "velocity": 0.2204724409448819,
                    "duration": 0.16583233333335556
                },
                {
                    "name": "C2",
                    "midi": 36,
                    "time": 292.70914399999566,
                    "velocity": 0.1732283464566929,
                    "duration": 0.16583233333335556
                },
                {
                    "name": "C2",
                    "midi": 36,
                    "time": 292.8900519999957,
                    "velocity": 0.1732283464566929,
                    "duration": 0.16583233333335556
                },
                {
                    "name": "C2",
                    "midi": 36,
                    "time": 293.07095999999575,
                    "velocity": 0.1889763779527559,
                    "duration": 0.16583233333335556
                },
                {
                    "name": "C2",
                    "midi": 36,
                    "time": 293.2518679999958,
                    "velocity": 0.1732283464566929,
                    "duration": 0.16583233333335556
                },
                {
                    "name": "C2",
                    "midi": 36,
                    "time": 293.43277599999584,
                    "velocity": 0.1732283464566929,
                    "duration": 0.16583233333335556
                },
                {
                    "name": "C2",
                    "midi": 36,
                    "time": 293.6136839999959,
                    "velocity": 0.1889763779527559,
                    "duration": 0.16583233333335556
                },
                {
                    "name": "C2",
                    "midi": 36,
                    "time": 293.79459199999593,
                    "velocity": 0.15748031496062992,
                    "duration": 0.16583233333335556
                },
                {
                    "name": "C2",
                    "midi": 36,
                    "time": 293.975499999996,
                    "velocity": 0.15748031496062992,
                    "duration": 0.16583233333335556
                },
                {
                    "name": "C2",
                    "midi": 36,
                    "time": 294.156407999996,
                    "velocity": 0.18110236220472442,
                    "duration": 0.16583233333335556
                },
                {
                    "name": "C2",
                    "midi": 36,
                    "time": 294.33731599999606,
                    "velocity": 0.14173228346456693,
                    "duration": 0.16583233333335556
                },
                {
                    "name": "C2",
                    "midi": 36,
                    "time": 294.5182239999961,
                    "velocity": 0.18110236220472442,
                    "duration": 0.16583233333335556
                },
                {
                    "name": "C2",
                    "midi": 36,
                    "time": 294.69913199999615,
                    "velocity": 0.18110236220472442,
                    "duration": 0.16583233333335556
                },
                {
                    "name": "C2",
                    "midi": 36,
                    "time": 294.8800399999962,
                    "velocity": 0.15748031496062992,
                    "duration": 0.16583233333335556
                },
                {
                    "name": "C2",
                    "midi": 36,
                    "time": 295.06094799999624,
                    "velocity": 0.1732283464566929,
                    "duration": 0.16583233333335556
                },
                {
                    "name": "C2",
                    "midi": 36,
                    "time": 295.2418559999963,
                    "velocity": 0.18110236220472442,
                    "duration": 0.16583233333335556
                },
                {
                    "name": "C2",
                    "midi": 36,
                    "time": 295.42276399999633,
                    "velocity": 0.15748031496062992,
                    "duration": 0.16583233333335556
                },
                {
                    "name": "C2",
                    "midi": 36,
                    "time": 295.6036719999964,
                    "velocity": 0.1732283464566929,
                    "duration": 0.16583233333335556
                },
                {
                    "name": "C2",
                    "midi": 36,
                    "time": 295.7845799999964,
                    "velocity": 0.18110236220472442,
                    "duration": 0.16583233333335556
                },
                {
                    "name": "C2",
                    "midi": 36,
                    "time": 295.96548799999647,
                    "velocity": 0.15748031496062992,
                    "duration": 0.16583233333335556
                },
                {
                    "name": "C2",
                    "midi": 36,
                    "time": 296.1463959999965,
                    "velocity": 0.1732283464566929,
                    "duration": 0.16583233333335556
                },
                {
                    "name": "C2",
                    "midi": 36,
                    "time": 296.32730399999656,
                    "velocity": 0.18110236220472442,
                    "duration": 0.16583233333335556
                },
                {
                    "name": "C2",
                    "midi": 36,
                    "time": 296.5082119999966,
                    "velocity": 0.15748031496062992,
                    "duration": 0.16583233333335556
                },
                {
                    "name": "C2",
                    "midi": 36,
                    "time": 296.68911999999665,
                    "velocity": 0.1732283464566929,
                    "duration": 0.16583233333335556
                },
                {
                    "name": "C2",
                    "midi": 36,
                    "time": 296.8700279999967,
                    "velocity": 0.18110236220472442,
                    "duration": 0.16583233333335556
                },
                {
                    "name": "C2",
                    "midi": 36,
                    "time": 297.05093599999674,
                    "velocity": 0.15748031496062992,
                    "duration": 0.16583233333335556
                },
                {
                    "name": "C2",
                    "midi": 36,
                    "time": 297.2318439999968,
                    "velocity": 0.1732283464566929,
                    "duration": 0.16583233333335556
                },
                {
                    "name": "C2",
                    "midi": 36,
                    "time": 297.41275199999683,
                    "velocity": 0.18110236220472442,
                    "duration": 0.16583233333335556
                },
                {
                    "name": "C2",
                    "midi": 36,
                    "time": 297.5936599999969,
                    "velocity": 0.15748031496062992,
                    "duration": 0.16583233333335556
                },
                {
                    "name": "C2",
                    "midi": 36,
                    "time": 297.7745679999969,
                    "velocity": 0.1732283464566929,
                    "duration": 0.16583233333335556
                },
                {
                    "name": "C2",
                    "midi": 36,
                    "time": 297.95547599999696,
                    "velocity": 0.18110236220472442,
                    "duration": 0.16583233333335556
                },
                {
                    "name": "C2",
                    "midi": 36,
                    "time": 298.136383999997,
                    "velocity": 0.15748031496062992,
                    "duration": 0.16583233333335556
                },
                {
                    "name": "C2",
                    "midi": 36,
                    "time": 298.31729199999705,
                    "velocity": 0.1732283464566929,
                    "duration": 0.16583233333335556
                },
                {
                    "name": "C2",
                    "midi": 36,
                    "time": 298.4981999999971,
                    "velocity": 0.18110236220472442,
                    "duration": 0.16583233333335556
                },
                {
                    "name": "C2",
                    "midi": 36,
                    "time": 298.67910799999714,
                    "velocity": 0.15748031496062992,
                    "duration": 0.16583233333335556
                },
                {
                    "name": "C2",
                    "midi": 36,
                    "time": 298.8600159999972,
                    "velocity": 0.1732283464566929,
                    "duration": 0.16583233333335556
                },
                {
                    "name": "C2",
                    "midi": 36,
                    "time": 299.04092399999723,
                    "velocity": 0.18110236220472442,
                    "duration": 0.16583233333335556
                },
                {
                    "name": "C2",
                    "midi": 36,
                    "time": 299.2218319999973,
                    "velocity": 0.15748031496062992,
                    "duration": 0.16583233333335556
                },
                {
                    "name": "C2",
                    "midi": 36,
                    "time": 299.4027399999973,
                    "velocity": 0.1732283464566929,
                    "duration": 0.16583233333335556
                },
                {
                    "name": "C2",
                    "midi": 36,
                    "time": 299.58364799999737,
                    "velocity": 0.18110236220472442,
                    "duration": 0.16583233333335556
                },
                {
                    "name": "C2",
                    "midi": 36,
                    "time": 299.7645559999974,
                    "velocity": 0.15748031496062992,
                    "duration": 0.16583233333335556
                },
                {
                    "name": "C2",
                    "midi": 36,
                    "time": 299.94546399999746,
                    "velocity": 0.1732283464566929,
                    "duration": 0.16583233333335556
                },
                {
                    "name": "C2",
                    "midi": 36,
                    "time": 300.1263719999975,
                    "velocity": 0.18110236220472442,
                    "duration": 0.16583233333335556
                },
                {
                    "name": "C2",
                    "midi": 36,
                    "time": 300.30727999999755,
                    "velocity": 0.15748031496062992,
                    "duration": 0.16583233333335556
                },
                {
                    "name": "C2",
                    "midi": 36,
                    "time": 300.4881879999976,
                    "velocity": 0.1732283464566929,
                    "duration": 0.16583233333335556
                },
                {
                    "name": "C2",
                    "midi": 36,
                    "time": 300.66909599999764,
                    "velocity": 0.18110236220472442,
                    "duration": 0.16583233333335556
                },
                {
                    "name": "C2",
                    "midi": 36,
                    "time": 300.8500039999977,
                    "velocity": 0.15748031496062992,
                    "duration": 0.16583233333335556
                },
                {
                    "name": "C2",
                    "midi": 36,
                    "time": 301.0309119999977,
                    "velocity": 0.1732283464566929,
                    "duration": 0.16583233333335556
                },
                {
                    "name": "C2",
                    "midi": 36,
                    "time": 301.2118199999978,
                    "velocity": 0.18110236220472442,
                    "duration": 0.16583233333335556
                },
                {
                    "name": "C2",
                    "midi": 36,
                    "time": 301.3927279999978,
                    "velocity": 0.15748031496062992,
                    "duration": 0.16583233333335556
                },
                {
                    "name": "C2",
                    "midi": 36,
                    "time": 301.57363599999786,
                    "velocity": 0.1732283464566929,
                    "duration": 0.16583233333335556
                },
                {
                    "name": "C2",
                    "midi": 36,
                    "time": 301.7545439999979,
                    "velocity": 0.18110236220472442,
                    "duration": 0.16583233333335556
                },
                {
                    "name": "C2",
                    "midi": 36,
                    "time": 301.93545199999795,
                    "velocity": 0.15748031496062992,
                    "duration": 0.16583233333335556
                },
                {
                    "name": "C2",
                    "midi": 36,
                    "time": 302.116359999998,
                    "velocity": 0.1732283464566929,
                    "duration": 0.16583233333335556
                },
                {
                    "name": "C2",
                    "midi": 36,
                    "time": 302.29726799999804,
                    "velocity": 0.18110236220472442,
                    "duration": 0.16583233333335556
                },
                {
                    "name": "C2",
                    "midi": 36,
                    "time": 302.4781759999981,
                    "velocity": 0.15748031496062992,
                    "duration": 0.16583233333335556
                },
                {
                    "name": "C2",
                    "midi": 36,
                    "time": 302.65908399999813,
                    "velocity": 0.1732283464566929,
                    "duration": 0.16583233333335556
                },
                {
                    "name": "C2",
                    "midi": 36,
                    "time": 302.8399919999982,
                    "velocity": 0.18110236220472442,
                    "duration": 0.16583233333335556
                },
                {
                    "name": "C#2",
                    "midi": 37,
                    "time": 303.0208999999982,
                    "velocity": 0.15748031496062992,
                    "duration": 0.16583233333335556
                },
                {
                    "name": "C#2",
                    "midi": 37,
                    "time": 303.20180799999827,
                    "velocity": 0.1732283464566929,
                    "duration": 0.16583233333335556
                },
                {
                    "name": "C#2",
                    "midi": 37,
                    "time": 303.3827159999983,
                    "velocity": 0.18110236220472442,
                    "duration": 0.16583233333335556
                },
                {
                    "name": "C#2",
                    "midi": 37,
                    "time": 303.56362399999836,
                    "velocity": 0.15748031496062992,
                    "duration": 0.16583233333335556
                },
                {
                    "name": "C#2",
                    "midi": 37,
                    "time": 303.7445319999984,
                    "velocity": 0.1732283464566929,
                    "duration": 0.16583233333335556
                },
                {
                    "name": "C#2",
                    "midi": 37,
                    "time": 303.92543999999845,
                    "velocity": 0.18110236220472442,
                    "duration": 0.16583233333335556
                },
                {
                    "name": "C#2",
                    "midi": 37,
                    "time": 304.1063479999985,
                    "velocity": 0.15748031496062992,
                    "duration": 0.16583233333335556
                },
                {
                    "name": "C#2",
                    "midi": 37,
                    "time": 304.28725599999854,
                    "velocity": 0.1732283464566929,
                    "duration": 0.16583233333335556
                },
                {
                    "name": "C#2",
                    "midi": 37,
                    "time": 304.4681639999986,
                    "velocity": 0.18110236220472442,
                    "duration": 0.16583233333335556
                },
                {
                    "name": "C#2",
                    "midi": 37,
                    "time": 304.6490719999986,
                    "velocity": 0.15748031496062992,
                    "duration": 0.16583233333335556
                },
                {
                    "name": "C#2",
                    "midi": 37,
                    "time": 304.82997999999867,
                    "velocity": 0.1732283464566929,
                    "duration": 0.16583233333335556
                },
                {
                    "name": "C#2",
                    "midi": 37,
                    "time": 305.0108879999987,
                    "velocity": 0.18110236220472442,
                    "duration": 0.16583233333335556
                },
                {
                    "name": "C#2",
                    "midi": 37,
                    "time": 305.19179599999876,
                    "velocity": 0.15748031496062992,
                    "duration": 0.16583233333335556
                },
                {
                    "name": "C#2",
                    "midi": 37,
                    "time": 305.3727039999988,
                    "velocity": 0.1732283464566929,
                    "duration": 0.16583233333335556
                },
                {
                    "name": "C#2",
                    "midi": 37,
                    "time": 305.55361199999885,
                    "velocity": 0.18110236220472442,
                    "duration": 0.16583233333335556
                },
                {
                    "name": "C#2",
                    "midi": 37,
                    "time": 305.7345199999989,
                    "velocity": 0.15748031496062992,
                    "duration": 0.16583233333335556
                },
                {
                    "name": "C#2",
                    "midi": 37,
                    "time": 305.91542799999894,
                    "velocity": 0.1732283464566929,
                    "duration": 0.16583233333335556
                },
                {
                    "name": "C#2",
                    "midi": 37,
                    "time": 306.096335999999,
                    "velocity": 0.18110236220472442,
                    "duration": 0.16583233333335556
                },
                {
                    "name": "C#2",
                    "midi": 37,
                    "time": 306.27724399999903,
                    "velocity": 0.15748031496062992,
                    "duration": 0.16583233333335556
                },
                {
                    "name": "C#2",
                    "midi": 37,
                    "time": 306.4581519999991,
                    "velocity": 0.1732283464566929,
                    "duration": 0.16583233333335556
                },
                {
                    "name": "C#2",
                    "midi": 37,
                    "time": 306.6390599999991,
                    "velocity": 0.18110236220472442,
                    "duration": 0.16583233333335556
                },
                {
                    "name": "C#2",
                    "midi": 37,
                    "time": 306.81996799999916,
                    "velocity": 0.15748031496062992,
                    "duration": 0.16583233333335556
                },
                {
                    "name": "C#2",
                    "midi": 37,
                    "time": 307.0008759999992,
                    "velocity": 0.1732283464566929,
                    "duration": 0.16583233333335556
                },
                {
                    "name": "C#2",
                    "midi": 37,
                    "time": 307.18178399999925,
                    "velocity": 0.18110236220472442,
                    "duration": 0.16583233333335556
                },
                {
                    "name": "C#2",
                    "midi": 37,
                    "time": 307.3626919999993,
                    "velocity": 0.15748031496062992,
                    "duration": 0.16583233333335556
                },
                {
                    "name": "C#2",
                    "midi": 37,
                    "time": 307.54359999999934,
                    "velocity": 0.1732283464566929,
                    "duration": 0.16583233333335556
                },
                {
                    "name": "C#2",
                    "midi": 37,
                    "time": 307.7245079999994,
                    "velocity": 0.18110236220472442,
                    "duration": 0.16583233333335556
                },
                {
                    "name": "C#2",
                    "midi": 37,
                    "time": 307.90541599999943,
                    "velocity": 0.15748031496062992,
                    "duration": 0.16583233333335556
                },
                {
                    "name": "C#2",
                    "midi": 37,
                    "time": 308.0863239999995,
                    "velocity": 0.1732283464566929,
                    "duration": 0.16583233333335556
                },
                {
                    "name": "C#2",
                    "midi": 37,
                    "time": 308.2672319999995,
                    "velocity": 0.18110236220472442,
                    "duration": 0.16583233333335556
                },
                {
                    "name": "C#2",
                    "midi": 37,
                    "time": 308.44813999999957,
                    "velocity": 0.15748031496062992,
                    "duration": 0.16583233333335556
                },
                {
                    "name": "C#2",
                    "midi": 37,
                    "time": 308.6290479999996,
                    "velocity": 0.1732283464566929,
                    "duration": 0.16583233333335556
                },
                {
                    "name": "C#2",
                    "midi": 37,
                    "time": 308.80995599999966,
                    "velocity": 0.18110236220472442,
                    "duration": 0.16583233333335556
                },
                {
                    "name": "C#2",
                    "midi": 37,
                    "time": 308.9908639999997,
                    "velocity": 0.15748031496062992,
                    "duration": 0.16583233333335556
                },
                {
                    "name": "C#2",
                    "midi": 37,
                    "time": 309.17177199999975,
                    "velocity": 0.1732283464566929,
                    "duration": 0.16583233333335556
                },
                {
                    "name": "C#2",
                    "midi": 37,
                    "time": 309.3526799999998,
                    "velocity": 0.18110236220472442,
                    "duration": 0.16583233333335556
                },
                {
                    "name": "C#2",
                    "midi": 37,
                    "time": 309.53358799999984,
                    "velocity": 0.15748031496062992,
                    "duration": 0.16583233333335556
                },
                {
                    "name": "C#2",
                    "midi": 37,
                    "time": 309.7144959999999,
                    "velocity": 0.1732283464566929,
                    "duration": 0.16583233333335556
                },
                {
                    "name": "C#2",
                    "midi": 37,
                    "time": 309.8954039999999,
                    "velocity": 0.18110236220472442,
                    "duration": 0.16583233333335556
                },
                {
                    "name": "C#2",
                    "midi": 37,
                    "time": 310.076312,
                    "velocity": 0.15748031496062992,
                    "duration": 0.16583233333335556
                },
                {
                    "name": "C#2",
                    "midi": 37,
                    "time": 310.25722,
                    "velocity": 0.1732283464566929,
                    "duration": 0.16583233333335556
                },
                {
                    "name": "C#2",
                    "midi": 37,
                    "time": 310.43812800000006,
                    "velocity": 0.18110236220472442,
                    "duration": 0.16583233333335556
                },
                {
                    "name": "F2",
                    "midi": 41,
                    "time": 310.6190360000001,
                    "velocity": 0.15748031496062992,
                    "duration": 0.16583233333335556
                },
                {
                    "name": "B1",
                    "midi": 35,
                    "time": 310.6190360000001,
                    "velocity": 0.11811023622047244,
                    "duration": 0.16583233333335556
                },
                {
                    "name": "F2",
                    "midi": 41,
                    "time": 310.79994400000015,
                    "velocity": 0.1732283464566929,
                    "duration": 0.16583233333335556
                },
                {
                    "name": "B1",
                    "midi": 35,
                    "time": 310.79994400000015,
                    "velocity": 0.12598425196850394,
                    "duration": 0.16583233333335556
                },
                {
                    "name": "F2",
                    "midi": 41,
                    "time": 310.9808520000002,
                    "velocity": 0.18110236220472442,
                    "duration": 0.16583233333335556
                },
                {
                    "name": "B1",
                    "midi": 35,
                    "time": 310.9808520000002,
                    "velocity": 0.13385826771653545,
                    "duration": 0.16583233333335556
                },
                {
                    "name": "F2",
                    "midi": 41,
                    "time": 311.16176000000024,
                    "velocity": 0.15748031496062992,
                    "duration": 0.16583233333335556
                },
                {
                    "name": "B1",
                    "midi": 35,
                    "time": 311.16176000000024,
                    "velocity": 0.11811023622047244,
                    "duration": 0.16583233333335556
                },
                {
                    "name": "F2",
                    "midi": 41,
                    "time": 311.3426680000003,
                    "velocity": 0.1732283464566929,
                    "duration": 0.16583233333335556
                },
                {
                    "name": "B1",
                    "midi": 35,
                    "time": 311.3426680000003,
                    "velocity": 0.12598425196850394,
                    "duration": 0.16583233333335556
                },
                {
                    "name": "F2",
                    "midi": 41,
                    "time": 311.52357600000033,
                    "velocity": 0.18110236220472442,
                    "duration": 0.16583233333335556
                },
                {
                    "name": "B1",
                    "midi": 35,
                    "time": 311.52357600000033,
                    "velocity": 0.13385826771653545,
                    "duration": 0.16583233333335556
                },
                {
                    "name": "B1",
                    "midi": 35,
                    "time": 311.7044840000004,
                    "velocity": 0.11811023622047244,
                    "duration": 0.16583233333335556
                },
                {
                    "name": "F2",
                    "midi": 41,
                    "time": 311.7044840000004,
                    "velocity": 0.15748031496062992,
                    "duration": 0.16583233333335556
                },
                {
                    "name": "B1",
                    "midi": 35,
                    "time": 311.8853920000004,
                    "velocity": 0.12598425196850394,
                    "duration": 0.16583233333335556
                },
                {
                    "name": "F2",
                    "midi": 41,
                    "time": 311.8853920000004,
                    "velocity": 0.1732283464566929,
                    "duration": 0.16583233333335556
                },
                {
                    "name": "B1",
                    "midi": 35,
                    "time": 312.06630000000047,
                    "velocity": 0.13385826771653545,
                    "duration": 0.16583233333335556
                },
                {
                    "name": "F2",
                    "midi": 41,
                    "time": 312.06630000000047,
                    "velocity": 0.18110236220472442,
                    "duration": 0.16583233333335556
                },
                {
                    "name": "B1",
                    "midi": 35,
                    "time": 312.2472080000005,
                    "velocity": 0.11811023622047244,
                    "duration": 0.16583233333335556
                },
                {
                    "name": "F2",
                    "midi": 41,
                    "time": 312.2472080000005,
                    "velocity": 0.15748031496062992,
                    "duration": 0.16583233333335556
                },
                {
                    "name": "B1",
                    "midi": 35,
                    "time": 312.42811600000056,
                    "velocity": 0.12598425196850394,
                    "duration": 0.16583233333335556
                },
                {
                    "name": "F2",
                    "midi": 41,
                    "time": 312.42811600000056,
                    "velocity": 0.1732283464566929,
                    "duration": 0.16583233333335556
                },
                {
                    "name": "E2",
                    "midi": 40,
                    "time": 312.6090240000006,
                    "velocity": 0.2047244094488189,
                    "duration": 1.0854480000002127
                },
                {
                    "name": "C2",
                    "midi": 36,
                    "time": 312.7899320000006,
                    "velocity": 0.15748031496062992,
                    "duration": 0.16583233333335556
                },
                {
                    "name": "C2",
                    "midi": 36,
                    "time": 312.97084000000063,
                    "velocity": 0.1732283464566929,
                    "duration": 0.16583233333335556
                },
                {
                    "name": "C2",
                    "midi": 36,
                    "time": 313.1517480000007,
                    "velocity": 0.18110236220472442,
                    "duration": 0.16583233333335556
                },
                {
                    "name": "C2",
                    "midi": 36,
                    "time": 313.3326560000007,
                    "velocity": 0.15748031496062992,
                    "duration": 0.16583233333335556
                },
                {
                    "name": "C2",
                    "midi": 36,
                    "time": 313.51356400000077,
                    "velocity": 0.1732283464566929,
                    "duration": 0.16583233333335556
                },
                {
                    "name": "F2",
                    "midi": 41,
                    "time": 313.6944720000008,
                    "velocity": 0.2047244094488189,
                    "duration": 1.0854480000002127
                },
                {
                    "name": "C2",
                    "midi": 36,
                    "time": 313.8753800000008,
                    "velocity": 0.15748031496062992,
                    "duration": 0.16583233333335556
                },
                {
                    "name": "C2",
                    "midi": 36,
                    "time": 314.05628800000085,
                    "velocity": 0.1732283464566929,
                    "duration": 0.16583233333335556
                },
                {
                    "name": "C2",
                    "midi": 36,
                    "time": 314.2371960000009,
                    "velocity": 0.18110236220472442,
                    "duration": 0.16583233333335556
                },
                {
                    "name": "C2",
                    "midi": 36,
                    "time": 314.41810400000094,
                    "velocity": 0.15748031496062992,
                    "duration": 0.16583233333335556
                },
                {
                    "name": "C2",
                    "midi": 36,
                    "time": 314.599012000001,
                    "velocity": 0.1732283464566929,
                    "duration": 0.16583233333335556
                },
                {
                    "name": "E2",
                    "midi": 40,
                    "time": 314.779920000001,
                    "velocity": 0.2047244094488189,
                    "duration": 0.16583233333335556
                },
                {
                    "name": "C2",
                    "midi": 36,
                    "time": 314.9608280000011,
                    "velocity": 0.15748031496062992,
                    "duration": 0.16583233333335556
                },
                {
                    "name": "C2",
                    "midi": 36,
                    "time": 315.1417360000011,
                    "velocity": 0.1732283464566929,
                    "duration": 0.16583233333335556
                },
                {
                    "name": "C#3",
                    "midi": 49,
                    "time": 315.32264400000116,
                    "velocity": 0.2125984251968504,
                    "duration": 0.16583233333335556
                },
                {
                    "name": "C2",
                    "midi": 36,
                    "time": 315.32264400000116,
                    "velocity": 0.18110236220472442,
                    "duration": 0.16583233333335556
                },
                {
                    "name": "C2",
                    "midi": 36,
                    "time": 315.5035520000012,
                    "velocity": 0.15748031496062992,
                    "duration": 0.16583233333335556
                },
                {
                    "name": "C#3",
                    "midi": 49,
                    "time": 315.5035520000012,
                    "velocity": 0.2047244094488189,
                    "duration": 0.16583233333335556
                },
                {
                    "name": "C#3",
                    "midi": 49,
                    "time": 315.68446000000125,
                    "velocity": 0.2047244094488189,
                    "duration": 0.16583233333335556
                },
                {
                    "name": "C2",
                    "midi": 36,
                    "time": 315.68446000000125,
                    "velocity": 0.1732283464566929,
                    "duration": 0.16583233333335556
                },
                {
                    "name": "C3",
                    "midi": 48,
                    "time": 315.8653680000013,
                    "velocity": 0.2047244094488189,
                    "duration": 0.36181600000008984
                },
                {
                    "name": "C2",
                    "midi": 36,
                    "time": 315.8653680000013,
                    "velocity": 0.2047244094488189,
                    "duration": 0.16583233333335556
                },
                {
                    "name": "C2",
                    "midi": 36,
                    "time": 316.04627600000134,
                    "velocity": 0.15748031496062992,
                    "duration": 0.16583233333335556
                },
                {
                    "name": "C2",
                    "midi": 36,
                    "time": 316.2271840000014,
                    "velocity": 0.1732283464566929,
                    "duration": 0.16583233333335556
                },
                {
                    "name": "C2",
                    "midi": 36,
                    "time": 316.40809200000143,
                    "velocity": 0.18110236220472442,
                    "duration": 0.16583233333335556
                },
                {
                    "name": "C2",
                    "midi": 36,
                    "time": 316.5890000000015,
                    "velocity": 0.15748031496062992,
                    "duration": 0.16583233333335556
                },
                {
                    "name": "C2",
                    "midi": 36,
                    "time": 316.7699080000015,
                    "velocity": 0.1732283464566929,
                    "duration": 0.16583233333335556
                },
                {
                    "name": "G2",
                    "midi": 43,
                    "time": 316.95081600000157,
                    "velocity": 0.2047244094488189,
                    "duration": 1.0854480000002127
                },
                {
                    "name": "C2",
                    "midi": 36,
                    "time": 317.13172400000155,
                    "velocity": 0.15748031496062992,
                    "duration": 0.16583233333335556
                },
                {
                    "name": "C2",
                    "midi": 36,
                    "time": 317.3126320000016,
                    "velocity": 0.1732283464566929,
                    "duration": 0.16583233333335556
                },
                {
                    "name": "C2",
                    "midi": 36,
                    "time": 317.49354000000164,
                    "velocity": 0.18110236220472442,
                    "duration": 0.16583233333335556
                },
                {
                    "name": "C2",
                    "midi": 36,
                    "time": 317.6744480000017,
                    "velocity": 0.15748031496062992,
                    "duration": 0.16583233333335556
                },
                {
                    "name": "C2",
                    "midi": 36,
                    "time": 317.85535600000173,
                    "velocity": 0.1732283464566929,
                    "duration": 0.16583233333335556
                },
                {
                    "name": "G#2",
                    "midi": 44,
                    "time": 318.0362640000018,
                    "velocity": 0.2047244094488189,
                    "duration": 1.0854480000002127
                },
                {
                    "name": "C2",
                    "midi": 36,
                    "time": 318.21717200000177,
                    "velocity": 0.15748031496062992,
                    "duration": 0.16583233333335556
                },
                {
                    "name": "C2",
                    "midi": 36,
                    "time": 318.3980800000018,
                    "velocity": 0.1732283464566929,
                    "duration": 0.16583233333335556
                },
                {
                    "name": "C2",
                    "midi": 36,
                    "time": 318.57898800000186,
                    "velocity": 0.18110236220472442,
                    "duration": 0.16583233333335556
                },
                {
                    "name": "C2",
                    "midi": 36,
                    "time": 318.7598960000019,
                    "velocity": 0.15748031496062992,
                    "duration": 0.16583233333335556
                },
                {
                    "name": "C2",
                    "midi": 36,
                    "time": 318.94080400000195,
                    "velocity": 0.1732283464566929,
                    "duration": 0.16583233333335556
                },
                {
                    "name": "G2",
                    "midi": 43,
                    "time": 319.121712000002,
                    "velocity": 0.2047244094488189,
                    "duration": 0.16583233333335556
                },
                {
                    "name": "C2",
                    "midi": 36,
                    "time": 319.30262000000204,
                    "velocity": 0.15748031496062992,
                    "duration": 0.16583233333335556
                },
                {
                    "name": "C2",
                    "midi": 36,
                    "time": 319.4835280000021,
                    "velocity": 0.1732283464566929,
                    "duration": 0.16583233333335556
                },
                {
                    "name": "C2",
                    "midi": 36,
                    "time": 319.6644360000021,
                    "velocity": 0.18110236220472442,
                    "duration": 0.16583233333335556
                },
                {
                    "name": "C#3",
                    "midi": 49,
                    "time": 319.6644360000021,
                    "velocity": 0.2125984251968504,
                    "duration": 0.16583233333335556
                },
                {
                    "name": "C#3",
                    "midi": 49,
                    "time": 319.84534400000217,
                    "velocity": 0.2047244094488189,
                    "duration": 0.16583233333335556
                },
                {
                    "name": "C2",
                    "midi": 36,
                    "time": 319.84534400000217,
                    "velocity": 0.15748031496062992,
                    "duration": 0.16583233333335556
                },
                {
                    "name": "C#3",
                    "midi": 49,
                    "time": 320.0262520000022,
                    "velocity": 0.2047244094488189,
                    "duration": 0.16583233333335556
                },
                {
                    "name": "C2",
                    "midi": 36,
                    "time": 320.0262520000022,
                    "velocity": 0.1732283464566929,
                    "duration": 0.16583233333335556
                },
                {
                    "name": "C3",
                    "midi": 48,
                    "time": 320.20716000000226,
                    "velocity": 0.2047244094488189,
                    "duration": 0.36181600000008984
                },
                {
                    "name": "C2",
                    "midi": 36,
                    "time": 320.20716000000226,
                    "velocity": 0.2047244094488189,
                    "duration": 0.16583233333335556
                },
                {
                    "name": "C2",
                    "midi": 36,
                    "time": 320.3880680000023,
                    "velocity": 0.15748031496062992,
                    "duration": 0.16583233333335556
                },
                {
                    "name": "C2",
                    "midi": 36,
                    "time": 320.56897600000235,
                    "velocity": 0.1732283464566929,
                    "duration": 0.16583233333335556
                },
                {
                    "name": "C2",
                    "midi": 36,
                    "time": 320.7498840000024,
                    "velocity": 0.18110236220472442,
                    "duration": 0.16583233333335556
                },
                {
                    "name": "C2",
                    "midi": 36,
                    "time": 320.93079200000244,
                    "velocity": 0.15748031496062992,
                    "duration": 0.16583233333335556
                },
                {
                    "name": "C2",
                    "midi": 36,
                    "time": 321.1117000000025,
                    "velocity": 0.1732283464566929,
                    "duration": 0.16583233333335556
                },
                {
                    "name": "C2",
                    "midi": 36,
                    "time": 321.29260800000253,
                    "velocity": 0.2047244094488189,
                    "duration": 0.16583233333335556
                },
                {
                    "name": "C2",
                    "midi": 36,
                    "time": 321.4735160000026,
                    "velocity": 0.15748031496062992,
                    "duration": 0.16583233333335556
                },
                {
                    "name": "C2",
                    "midi": 36,
                    "time": 321.6544240000026,
                    "velocity": 0.1732283464566929,
                    "duration": 0.16583233333335556
                },
                {
                    "name": "C#3",
                    "midi": 49,
                    "time": 321.83533200000267,
                    "velocity": 0.2125984251968504,
                    "duration": 0.16583233333335556
                },
                {
                    "name": "C2",
                    "midi": 36,
                    "time": 321.83533200000267,
                    "velocity": 0.18110236220472442,
                    "duration": 0.16583233333335556
                },
                {
                    "name": "C2",
                    "midi": 36,
                    "time": 322.0162400000027,
                    "velocity": 0.15748031496062992,
                    "duration": 0.16583233333335556
                },
                {
                    "name": "C#3",
                    "midi": 49,
                    "time": 322.0162400000027,
                    "velocity": 0.2047244094488189,
                    "duration": 0.16583233333335556
                },
                {
                    "name": "C2",
                    "midi": 36,
                    "time": 322.19714800000276,
                    "velocity": 0.1732283464566929,
                    "duration": 0.16583233333335556
                },
                {
                    "name": "C#3",
                    "midi": 49,
                    "time": 322.19714800000276,
                    "velocity": 0.2047244094488189,
                    "duration": 0.16583233333335556
                },
                {
                    "name": "C3",
                    "midi": 48,
                    "time": 322.3780560000028,
                    "velocity": 0.2047244094488189,
                    "duration": 0.36181600000008984
                },
                {
                    "name": "C2",
                    "midi": 36,
                    "time": 322.3780560000028,
                    "velocity": 0.2047244094488189,
                    "duration": 0.16583233333335556
                },
                {
                    "name": "C2",
                    "midi": 36,
                    "time": 322.55896400000285,
                    "velocity": 0.15748031496062992,
                    "duration": 0.16583233333335556
                },
                {
                    "name": "C2",
                    "midi": 36,
                    "time": 322.7398720000029,
                    "velocity": 0.1732283464566929,
                    "duration": 0.16583233333335556
                },
                {
                    "name": "C2",
                    "midi": 36,
                    "time": 322.92078000000294,
                    "velocity": 0.33858267716535434,
                    "duration": 0.16583233333335556
                },
                {
                    "name": "C2",
                    "midi": 36,
                    "time": 323.101688000003,
                    "velocity": 0.2992125984251969,
                    "duration": 0.16583233333335556
                },
                {
                    "name": "C2",
                    "midi": 36,
                    "time": 323.282596000003,
                    "velocity": 0.3228346456692913,
                    "duration": 0.16583233333335556
                },
                {
                    "name": "C2",
                    "midi": 36,
                    "time": 323.46350400000307,
                    "velocity": 0.3937007874015748,
                    "duration": 0.16583233333335556
                },
                {
                    "name": "C2",
                    "midi": 36,
                    "time": 323.6444120000031,
                    "velocity": 0.31496062992125984,
                    "duration": 0.16583233333335556
                },
                {
                    "name": "C2",
                    "midi": 36,
                    "time": 323.82532000000316,
                    "velocity": 0.33858267716535434,
                    "duration": 0.16583233333335556
                },
                {
                    "name": "C2",
                    "midi": 36,
                    "time": 324.0062280000032,
                    "velocity": 0.3700787401574803,
                    "duration": 0.16583233333335556
                },
                {
                    "name": "C2",
                    "midi": 36,
                    "time": 324.18713600000325,
                    "velocity": 0.33858267716535434,
                    "duration": 0.16583233333335556
                },
                {
                    "name": "C2",
                    "midi": 36,
                    "time": 324.3680440000033,
                    "velocity": 0.3543307086614173,
                    "duration": 0.16583233333335556
                },
                {
                    "name": "C2",
                    "midi": 36,
                    "time": 324.54895200000334,
                    "velocity": 0.4330708661417323,
                    "duration": 0.16583233333335556
                },
                {
                    "name": "C2",
                    "midi": 36,
                    "time": 324.7298600000034,
                    "velocity": 0.3543307086614173,
                    "duration": 0.16583233333335556
                },
                {
                    "name": "C2",
                    "midi": 36,
                    "time": 324.91076800000343,
                    "velocity": 0.3779527559055118,
                    "duration": 0.16583233333335556
                },
                {
                    "name": "C2",
                    "midi": 36,
                    "time": 325.0916760000035,
                    "velocity": 0.4094488188976378,
                    "duration": 0.16583233333335556
                },
                {
                    "name": "C2",
                    "midi": 36,
                    "time": 325.2725840000035,
                    "velocity": 0.3700787401574803,
                    "duration": 0.16583233333335556
                },
                {
                    "name": "G3",
                    "midi": 55,
                    "time": 325.45349200000356,
                    "velocity": 0.5905511811023622,
                    "duration": 0.09045400000002246
                },
                {
                    "name": "C2",
                    "midi": 36,
                    "time": 325.45349200000356,
                    "velocity": 0.3937007874015748,
                    "duration": 0.16583233333335556
                },
                {
                    "name": "A#3",
                    "midi": 58,
                    "time": 325.5439460000036,
                    "velocity": 0.49606299212598426,
                    "duration": 0.09045400000002246
                },
                {
                    "name": "C2",
                    "midi": 36,
                    "time": 325.6344000000036,
                    "velocity": 0.48031496062992124,
                    "duration": 0.16583233333335556
                },
                {
                    "name": "E3",
                    "midi": 52,
                    "time": 325.6344000000036,
                    "velocity": 0.5984251968503937,
                    "duration": 0.09045400000002246
                },
                {
                    "name": "G3",
                    "midi": 55,
                    "time": 325.72485400000363,
                    "velocity": 0.5118110236220472,
                    "duration": 0.09045400000002246
                },
                {
                    "name": "C2",
                    "midi": 36,
                    "time": 325.81530800000365,
                    "velocity": 0.3858267716535433,
                    "duration": 0.16583233333335556
                },
                {
                    "name": "A#2",
                    "midi": 46,
                    "time": 325.81530800000365,
                    "velocity": 0.6062992125984252,
                    "duration": 0.09045400000002246
                },
                {
                    "name": "E3",
                    "midi": 52,
                    "time": 325.9057620000037,
                    "velocity": 0.4881889763779528,
                    "duration": 0.09045400000002246
                },
                {
                    "name": "G2",
                    "midi": 43,
                    "time": 325.9962160000037,
                    "velocity": 0.5984251968503937,
                    "duration": 0.09045400000002246
                },
                {
                    "name": "C2",
                    "midi": 36,
                    "time": 325.9962160000037,
                    "velocity": 0.4094488188976378,
                    "duration": 0.16583233333335556
                },
                {
                    "name": "A#2",
                    "midi": 46,
                    "time": 326.0866700000037,
                    "velocity": 0.5433070866141733,
                    "duration": 0.09045400000002246
                },
                {
                    "name": "C2",
                    "midi": 36,
                    "time": 326.17712400000374,
                    "velocity": 0.44881889763779526,
                    "duration": 0.16583233333335556
                },
                {
                    "name": "C#3",
                    "midi": 49,
                    "time": 326.17712400000374,
                    "velocity": 0.6299212598425197,
                    "duration": 0.09045400000002246
                },
                {
                    "name": "A#2",
                    "midi": 46,
                    "time": 326.26757800000377,
                    "velocity": 0.5511811023622047,
                    "duration": 0.09045400000002246
                },
                {
                    "name": "E3",
                    "midi": 52,
                    "time": 326.3580320000038,
                    "velocity": 0.6377952755905512,
                    "duration": 0.09045400000002246
                },
                {
                    "name": "C2",
                    "midi": 36,
                    "time": 326.3580320000038,
                    "velocity": 0.4015748031496063,
                    "duration": 0.16583233333335556
                },
                {
                    "name": "C#3",
                    "midi": 49,
                    "time": 326.4484860000038,
                    "velocity": 0.5590551181102362,
                    "duration": 0.09045400000002246
                },
                {
                    "name": "C2",
                    "midi": 36,
                    "time": 326.53894000000383,
                    "velocity": 0.4251968503937008,
                    "duration": 0.16583233333335556
                },
                {
                    "name": "G3",
                    "midi": 55,
                    "time": 326.53894000000383,
                    "velocity": 0.6771653543307087,
                    "duration": 0.09045400000002246
                },
                {
                    "name": "E3",
                    "midi": 52,
                    "time": 326.62939400000386,
                    "velocity": 0.6141732283464567,
                    "duration": 0.09045400000002246
                },
                {
                    "name": "A#3",
                    "midi": 58,
                    "time": 326.7198480000039,
                    "velocity": 0.7401574803149606,
                    "duration": 0.18090799999998808
                },
                {
                    "name": "G2",
                    "midi": 43,
                    "time": 326.7198480000039,
                    "velocity": 0.5196850393700787,
                    "duration": 0.18090799999998808
                },
                {
                    "name": "G1",
                    "midi": 31,
                    "time": 326.7198480000039,
                    "velocity": 0.48031496062992124,
                    "duration": 0.18090799999998808
                },
                {
                    "name": "C2",
                    "midi": 36,
                    "time": 326.90075600000387,
                    "velocity": 0.4566929133858268,
                    "duration": 0.18090799999998808
                },
                {
                    "name": "C2",
                    "midi": 36,
                    "time": 327.08166400000385,
                    "velocity": 0.44881889763779526,
                    "duration": 0.18090799999998808
                },
                {
                    "name": "C#3",
                    "midi": 49,
                    "time": 327.26257200000384,
                    "velocity": 0.7322834645669292,
                    "duration": 0.18090799999998808
                },
                {
                    "name": "C#4",
                    "midi": 61,
                    "time": 327.26257200000384,
                    "velocity": 0.7322834645669292,
                    "duration": 0.18090799999998808
                },
                {
                    "name": "G#3",
                    "midi": 56,
                    "time": 327.26257200000384,
                    "velocity": 0.7322834645669292,
                    "duration": 0.18090799999998808
                },
                {
                    "name": "F2",
                    "midi": 41,
                    "time": 327.26257200000384,
                    "velocity": 0.5354330708661418,
                    "duration": 0.18090799999998808
                },
                {
                    "name": "F1",
                    "midi": 29,
                    "time": 327.26257200000384,
                    "velocity": 0.4881889763779528,
                    "duration": 0.18090799999998808
                },
                {
                    "name": "C2",
                    "midi": 36,
                    "time": 327.44348000000383,
                    "velocity": 0.6141732283464567,
                    "duration": 0.18090799999998808
                },
                {
                    "name": "C2",
                    "midi": 36,
                    "time": 327.6243880000038,
                    "velocity": 0.5196850393700787,
                    "duration": 0.18090799999998808
                },
                {
                    "name": "E3",
                    "midi": 52,
                    "time": 327.8052960000038,
                    "velocity": 0.3779527559055118,
                    "duration": 1.5829449999999952
                },
                {
                    "name": "C2",
                    "midi": 36,
                    "time": 327.8052960000038,
                    "velocity": 0.31496062992125984,
                    "duration": 1.5829449999999952
                },
                {
                    "name": "C4",
                    "midi": 60,
                    "time": 327.8052960000038,
                    "velocity": 0.3779527559055118,
                    "duration": 1.5829449999999952
                },
                {
                    "name": "E2",
                    "midi": 40,
                    "time": 327.8052960000038,
                    "velocity": 0.31496062992125984,
                    "duration": 1.5829449999999952
                },
                {
                    "name": "G3",
                    "midi": 55,
                    "time": 327.8052960000038,
                    "velocity": 0.3779527559055118,
                    "duration": 1.5829449999999952
                },
                {
                    "name": "C2",
                    "midi": 36,
                    "time": 329.4334680000038,
                    "velocity": 0.2125984251968504,
                    "duration": 0.4522699999999986
                },
                {
                    "name": "A1",
                    "midi": 33,
                    "time": 329.8857380000038,
                    "velocity": 0.1968503937007874,
                    "duration": 0.09045400000002246
                },
                {
                    "name": "F1",
                    "midi": 29,
                    "time": 329.97619200000383,
                    "velocity": 0.6377952755905512,
                    "duration": 0.18090799999998808
                },
                {
                    "name": "A1",
                    "midi": 33,
                    "time": 330.3380080000038,
                    "velocity": 0.48031496062992124,
                    "duration": 0.35804708333336066
                },
                {
                    "name": "F1",
                    "midi": 29,
                    "time": 330.3380080000038,
                    "velocity": 0.48031496062992124,
                    "duration": 0.35804708333336066
                },
                {
                    "name": "F2",
                    "midi": 41,
                    "time": 330.3380080000038,
                    "velocity": 0.6377952755905512,
                    "duration": 0.35804708333336066
                },
                {
                    "name": "C2",
                    "midi": 36,
                    "time": 330.3380080000038,
                    "velocity": 0.5433070866141733,
                    "duration": 0.35804708333336066
                },
                {
                    "name": "A1",
                    "midi": 33,
                    "time": 330.69982400000384,
                    "velocity": 0.44881889763779526,
                    "duration": 0.35804708333336066
                },
                {
                    "name": "C2",
                    "midi": 36,
                    "time": 330.69982400000384,
                    "velocity": 0.5039370078740157,
                    "duration": 0.35804708333336066
                },
                {
                    "name": "F2",
                    "midi": 41,
                    "time": 330.69982400000384,
                    "velocity": 0.5984251968503937,
                    "duration": 0.35804708333336066
                },
                {
                    "name": "F1",
                    "midi": 29,
                    "time": 330.69982400000384,
                    "velocity": 0.44881889763779526,
                    "duration": 0.35804708333336066
                },
                {
                    "name": "A1",
                    "midi": 33,
                    "time": 331.0616400000039,
                    "velocity": 0.4330708661417323,
                    "duration": 0.35804708333336066
                },
                {
                    "name": "F1",
                    "midi": 29,
                    "time": 331.0616400000039,
                    "velocity": 0.4330708661417323,
                    "duration": 0.35804708333336066
                },
                {
                    "name": "F2",
                    "midi": 41,
                    "time": 331.0616400000039,
                    "velocity": 0.5748031496062992,
                    "duration": 0.35804708333336066
                },
                {
                    "name": "C2",
                    "midi": 36,
                    "time": 331.0616400000039,
                    "velocity": 0.49606299212598426,
                    "duration": 0.35804708333336066
                },
                {
                    "name": "A1",
                    "midi": 33,
                    "time": 331.4234560000039,
                    "velocity": 0.48031496062992124,
                    "duration": 0.35804708333336066
                },
                {
                    "name": "C2",
                    "midi": 36,
                    "time": 331.4234560000039,
                    "velocity": 0.5433070866141733,
                    "duration": 0.35804708333336066
                },
                {
                    "name": "F2",
                    "midi": 41,
                    "time": 331.4234560000039,
                    "velocity": 0.6377952755905512,
                    "duration": 0.35804708333336066
                },
                {
                    "name": "F1",
                    "midi": 29,
                    "time": 331.4234560000039,
                    "velocity": 0.48031496062992124,
                    "duration": 0.35804708333336066
                },
                {
                    "name": "A1",
                    "midi": 33,
                    "time": 331.78527200000394,
                    "velocity": 0.4330708661417323,
                    "duration": 0.35804708333336066
                },
                {
                    "name": "F1",
                    "midi": 29,
                    "time": 331.78527200000394,
                    "velocity": 0.4330708661417323,
                    "duration": 0.35804708333336066
                },
                {
                    "name": "F2",
                    "midi": 41,
                    "time": 331.78527200000394,
                    "velocity": 0.5748031496062992,
                    "duration": 0.35804708333336066
                },
                {
                    "name": "C2",
                    "midi": 36,
                    "time": 331.78527200000394,
                    "velocity": 0.49606299212598426,
                    "duration": 0.35804708333336066
                },
                {
                    "name": "F1",
                    "midi": 29,
                    "time": 332.147088000004,
                    "velocity": 0.48031496062992124,
                    "duration": 1.6281720000000064
                },
                {
                    "name": "A1",
                    "midi": 33,
                    "time": 332.147088000004,
                    "velocity": 0.48031496062992124,
                    "duration": 1.6281720000000064
                },
                {
                    "name": "C2",
                    "midi": 36,
                    "time": 332.147088000004,
                    "velocity": 0.5433070866141733,
                    "duration": 1.6281720000000064
                },
                {
                    "name": "F2",
                    "midi": 41,
                    "time": 332.147088000004,
                    "velocity": 0.6377952755905512,
                    "duration": 1.6281720000000064
                },
                {
                    "name": "A1",
                    "midi": 33,
                    "time": 333.775260000004,
                    "velocity": 0.25984251968503935,
                    "duration": 0.4522699999999986
                },
                {
                    "name": "C2",
                    "midi": 36,
                    "time": 334.227530000004,
                    "velocity": 0.2204724409448819,
                    "duration": 0.09045400000002246
                },
                {
                    "name": "F2",
                    "midi": 41,
                    "time": 334.317984000004,
                    "velocity": 0.2677165354330709,
                    "duration": 0.5427240000000211
                },
                {
                    "name": "A2",
                    "midi": 45,
                    "time": 334.860708000004,
                    "velocity": 0.2677165354330709,
                    "duration": 0.4522699999999986
                },
                {
                    "name": "C3",
                    "midi": 48,
                    "time": 335.312978000004,
                    "velocity": 0.2283464566929134,
                    "duration": 0.09045400000002246
                },
                {
                    "name": "F3",
                    "midi": 53,
                    "time": 335.40343200000405,
                    "velocity": 0.2677165354330709,
                    "duration": 0.5389550833333487
                },
                {
                    "name": "F2",
                    "midi": 41,
                    "time": 335.94615600000407,
                    "velocity": 0.2440944881889764,
                    "duration": 0.5427240000000211
                },
                {
                    "name": "E3",
                    "midi": 52,
                    "time": 336.4888800000041,
                    "velocity": 0.6377952755905512,
                    "duration": 0.17940043333334188
                },
                {
                    "name": "G3",
                    "midi": 55,
                    "time": 336.4888800000041,
                    "velocity": 0.6377952755905512,
                    "duration": 0.17940043333334188
                },
                {
                    "name": "G3",
                    "midi": 55,
                    "time": 336.6697880000041,
                    "velocity": 0.5905511811023622,
                    "duration": 0.3580470833333038
                },
                {
                    "name": "E2",
                    "midi": 40,
                    "time": 336.85069600000406,
                    "velocity": 0.48031496062992124,
                    "duration": 0.3580470833333038
                },
                {
                    "name": "C3",
                    "midi": 48,
                    "time": 336.85069600000406,
                    "velocity": 0.6377952755905512,
                    "duration": 0.3580470833333038
                },
                {
                    "name": "G2",
                    "midi": 43,
                    "time": 336.85069600000406,
                    "velocity": 0.5433070866141733,
                    "duration": 0.3580470833333038
                },
                {
                    "name": "G2",
                    "midi": 43,
                    "time": 337.21251200000404,
                    "velocity": 0.5039370078740157,
                    "duration": 0.35804708333336066
                },
                {
                    "name": "E2",
                    "midi": 40,
                    "time": 337.21251200000404,
                    "velocity": 0.44881889763779526,
                    "duration": 0.35804708333336066
                },
                {
                    "name": "C3",
                    "midi": 48,
                    "time": 337.21251200000404,
                    "velocity": 0.5984251968503937,
                    "duration": 0.35804708333336066
                },
                {
                    "name": "E2",
                    "midi": 40,
                    "time": 337.5743280000041,
                    "velocity": 0.4330708661417323,
                    "duration": 0.35804708333336066
                },
                {
                    "name": "C3",
                    "midi": 48,
                    "time": 337.5743280000041,
                    "velocity": 0.5748031496062992,
                    "duration": 0.35804708333336066
                },
                {
                    "name": "G2",
                    "midi": 43,
                    "time": 337.5743280000041,
                    "velocity": 0.49606299212598426,
                    "duration": 0.35804708333336066
                },
                {
                    "name": "G2",
                    "midi": 43,
                    "time": 337.9361440000041,
                    "velocity": 0.5433070866141733,
                    "duration": 0.35804708333336066
                },
                {
                    "name": "C3",
                    "midi": 48,
                    "time": 337.9361440000041,
                    "velocity": 0.6377952755905512,
                    "duration": 0.35804708333336066
                },
                {
                    "name": "E2",
                    "midi": 40,
                    "time": 337.9361440000041,
                    "velocity": 0.48031496062992124,
                    "duration": 0.35804708333336066
                },
                {
                    "name": "E2",
                    "midi": 40,
                    "time": 338.29796000000414,
                    "velocity": 0.4330708661417323,
                    "duration": 0.35804708333336066
                },
                {
                    "name": "C3",
                    "midi": 48,
                    "time": 338.29796000000414,
                    "velocity": 0.5748031496062992,
                    "duration": 0.35804708333336066
                },
                {
                    "name": "G2",
                    "midi": 43,
                    "time": 338.29796000000414,
                    "velocity": 0.49606299212598426,
                    "duration": 0.35804708333336066
                },
                {
                    "name": "E4",
                    "midi": 64,
                    "time": 338.6597760000042,
                    "velocity": 0.23622047244094488,
                    "duration": 1.0854479999999853
                },
                {
                    "name": "G4",
                    "midi": 67,
                    "time": 338.6597760000042,
                    "velocity": 0.23622047244094488,
                    "duration": 1.0854479999999853
                },
                {
                    "name": "F4",
                    "midi": 65,
                    "time": 339.74522400000416,
                    "velocity": 0.23622047244094488,
                    "duration": 1.0854479999999853
                },
                {
                    "name": "B4",
                    "midi": 71,
                    "time": 339.74522400000416,
                    "velocity": 0.23622047244094488,
                    "duration": 1.0854479999999853
                },
                {
                    "name": "G#4",
                    "midi": 68,
                    "time": 339.74522400000416,
                    "velocity": 0.23622047244094488,
                    "duration": 1.0854479999999853
                },
                {
                    "name": "G3",
                    "midi": 55,
                    "time": 340.83067200000414,
                    "velocity": 0.6377952755905512,
                    "duration": 0.17940043333334188
                },
                {
                    "name": "E3",
                    "midi": 52,
                    "time": 340.83067200000414,
                    "velocity": 0.6377952755905512,
                    "duration": 0.17940043333334188
                },
                {
                    "name": "G3",
                    "midi": 55,
                    "time": 341.01158000000413,
                    "velocity": 0.5905511811023622,
                    "duration": 0.3580470833333038
                },
                {
                    "name": "G2",
                    "midi": 43,
                    "time": 341.1924880000041,
                    "velocity": 0.5433070866141733,
                    "duration": 0.3580470833333038
                },
                {
                    "name": "E2",
                    "midi": 40,
                    "time": 341.1924880000041,
                    "velocity": 0.48031496062992124,
                    "duration": 0.3580470833333038
                },
                {
                    "name": "C3",
                    "midi": 48,
                    "time": 341.1924880000041,
                    "velocity": 0.6377952755905512,
                    "duration": 0.3580470833333038
                },
                {
                    "name": "E2",
                    "midi": 40,
                    "time": 341.5543040000041,
                    "velocity": 0.44881889763779526,
                    "duration": 0.35804708333336066
                },
                {
                    "name": "C3",
                    "midi": 48,
                    "time": 341.5543040000041,
                    "velocity": 0.5984251968503937,
                    "duration": 0.35804708333336066
                },
                {
                    "name": "G2",
                    "midi": 43,
                    "time": 341.5543040000041,
                    "velocity": 0.5039370078740157,
                    "duration": 0.35804708333336066
                },
                {
                    "name": "G2",
                    "midi": 43,
                    "time": 341.9161200000041,
                    "velocity": 0.49606299212598426,
                    "duration": 0.35804708333336066
                },
                {
                    "name": "C3",
                    "midi": 48,
                    "time": 341.9161200000041,
                    "velocity": 0.5748031496062992,
                    "duration": 0.35804708333336066
                },
                {
                    "name": "E2",
                    "midi": 40,
                    "time": 341.9161200000041,
                    "velocity": 0.4330708661417323,
                    "duration": 0.35804708333336066
                },
                {
                    "name": "E2",
                    "midi": 40,
                    "time": 342.27793600000416,
                    "velocity": 0.48031496062992124,
                    "duration": 0.35804708333336066
                },
                {
                    "name": "C3",
                    "midi": 48,
                    "time": 342.27793600000416,
                    "velocity": 0.6377952755905512,
                    "duration": 0.35804708333336066
                },
                {
                    "name": "G2",
                    "midi": 43,
                    "time": 342.27793600000416,
                    "velocity": 0.5433070866141733,
                    "duration": 0.35804708333336066
                },
                {
                    "name": "G2",
                    "midi": 43,
                    "time": 342.6397520000042,
                    "velocity": 0.49606299212598426,
                    "duration": 0.35804708333336066
                },
                {
                    "name": "C3",
                    "midi": 48,
                    "time": 342.6397520000042,
                    "velocity": 0.5748031496062992,
                    "duration": 0.35804708333336066
                },
                {
                    "name": "E2",
                    "midi": 40,
                    "time": 342.6397520000042,
                    "velocity": 0.4330708661417323,
                    "duration": 0.35804708333336066
                },
                {
                    "name": "G4",
                    "midi": 67,
                    "time": 343.0015680000042,
                    "velocity": 0.23622047244094488,
                    "duration": 1.0854479999999853
                },
                {
                    "name": "E4",
                    "midi": 64,
                    "time": 343.0015680000042,
                    "velocity": 0.23622047244094488,
                    "duration": 1.0854479999999853
                },
                {
                    "name": "G#4",
                    "midi": 68,
                    "time": 344.0870160000042,
                    "velocity": 0.2283464566929134,
                    "duration": 1.0854479999999853
                },
                {
                    "name": "F4",
                    "midi": 65,
                    "time": 344.0870160000042,
                    "velocity": 0.23622047244094488,
                    "duration": 1.0854479999999853
                },
                {
                    "name": "G2",
                    "midi": 43,
                    "time": 345.5342800000042,
                    "velocity": 0.48031496062992124,
                    "duration": 0.35804708333336066
                },
                {
                    "name": "E3",
                    "midi": 52,
                    "time": 345.5342800000042,
                    "velocity": 0.6377952755905512,
                    "duration": 0.35804708333336066
                },
                {
                    "name": "A#2",
                    "midi": 46,
                    "time": 345.5342800000042,
                    "velocity": 0.5433070866141733,
                    "duration": 0.35804708333336066
                },
                {
                    "name": "A#2",
                    "midi": 46,
                    "time": 345.8960960000042,
                    "velocity": 0.5039370078740157,
                    "duration": 0.35804708333336066
                },
                {
                    "name": "G2",
                    "midi": 43,
                    "time": 345.8960960000042,
                    "velocity": 0.44881889763779526,
                    "duration": 0.35804708333336066
                },
                {
                    "name": "E3",
                    "midi": 52,
                    "time": 345.8960960000042,
                    "velocity": 0.5984251968503937,
                    "duration": 0.35804708333336066
                },
                {
                    "name": "G2",
                    "midi": 43,
                    "time": 346.25791200000424,
                    "velocity": 0.4330708661417323,
                    "duration": 0.35804708333336066
                },
                {
                    "name": "E3",
                    "midi": 52,
                    "time": 346.25791200000424,
                    "velocity": 0.5748031496062992,
                    "duration": 0.35804708333336066
                },
                {
                    "name": "A#2",
                    "midi": 46,
                    "time": 346.25791200000424,
                    "velocity": 0.49606299212598426,
                    "duration": 0.35804708333336066
                },
                {
                    "name": "A#2",
                    "midi": 46,
                    "time": 346.6197280000043,
                    "velocity": 0.5433070866141733,
                    "duration": 0.35804708333336066
                },
                {
                    "name": "E3",
                    "midi": 52,
                    "time": 346.6197280000043,
                    "velocity": 0.6377952755905512,
                    "duration": 0.35804708333336066
                },
                {
                    "name": "G2",
                    "midi": 43,
                    "time": 346.6197280000043,
                    "velocity": 0.48031496062992124,
                    "duration": 0.35804708333336066
                },
                {
                    "name": "G2",
                    "midi": 43,
                    "time": 346.9815440000043,
                    "velocity": 0.4330708661417323,
                    "duration": 0.35804708333336066
                },
                {
                    "name": "E3",
                    "midi": 52,
                    "time": 346.9815440000043,
                    "velocity": 0.5748031496062992,
                    "duration": 0.35804708333336066
                },
                {
                    "name": "A#2",
                    "midi": 46,
                    "time": 346.9815440000043,
                    "velocity": 0.49606299212598426,
                    "duration": 0.35804708333336066
                },
                {
                    "name": "G4",
                    "midi": 67,
                    "time": 347.34336000000434,
                    "velocity": 0.28346456692913385,
                    "duration": 1.0854479999999853
                },
                {
                    "name": "A#4",
                    "midi": 70,
                    "time": 347.34336000000434,
                    "velocity": 0.28346456692913385,
                    "duration": 1.0854479999999853
                },
                {
                    "name": "G#4",
                    "midi": 68,
                    "time": 348.4288080000043,
                    "velocity": 0.28346456692913385,
                    "duration": 1.0854479999999853
                },
                {
                    "name": "C5",
                    "midi": 72,
                    "time": 348.4288080000043,
                    "velocity": 0.28346456692913385,
                    "duration": 1.0854479999999853
                },
                {
                    "name": "A#2",
                    "midi": 46,
                    "time": 349.8760720000043,
                    "velocity": 0.48031496062992124,
                    "duration": 0.35804708333336066
                },
                {
                    "name": "E3",
                    "midi": 52,
                    "time": 349.8760720000043,
                    "velocity": 0.5433070866141733,
                    "duration": 0.35804708333336066
                },
                {
                    "name": "G3",
                    "midi": 55,
                    "time": 349.8760720000043,
                    "velocity": 0.6377952755905512,
                    "duration": 0.35804708333336066
                },
                {
                    "name": "C#3",
                    "midi": 49,
                    "time": 349.8760720000043,
                    "velocity": 0.48031496062992124,
                    "duration": 0.35804708333336066
                },
                {
                    "name": "A#3",
                    "midi": 58,
                    "time": 350.2378880000043,
                    "velocity": 0.44881889763779526,
                    "duration": 0.35804708333336066
                },
                {
                    "name": "E4",
                    "midi": 64,
                    "time": 350.2378880000043,
                    "velocity": 0.5039370078740157,
                    "duration": 0.35804708333336066
                },
                {
                    "name": "C#4",
                    "midi": 61,
                    "time": 350.2378880000043,
                    "velocity": 0.44881889763779526,
                    "duration": 0.35804708333336066
                },
                {
                    "name": "G4",
                    "midi": 67,
                    "time": 350.2378880000043,
                    "velocity": 0.5984251968503937,
                    "duration": 0.35804708333336066
                },
                {
                    "name": "A#3",
                    "midi": 58,
                    "time": 350.59970400000435,
                    "velocity": 0.4330708661417323,
                    "duration": 0.35804708333336066
                },
                {
                    "name": "E4",
                    "midi": 64,
                    "time": 350.59970400000435,
                    "velocity": 0.49606299212598426,
                    "duration": 0.35804708333336066
                },
                {
                    "name": "G4",
                    "midi": 67,
                    "time": 350.59970400000435,
                    "velocity": 0.5748031496062992,
                    "duration": 0.35804708333336066
                },
                {
                    "name": "C#4",
                    "midi": 61,
                    "time": 350.59970400000435,
                    "velocity": 0.4330708661417323,
                    "duration": 0.35804708333336066
                },
                {
                    "name": "C#4",
                    "midi": 61,
                    "time": 350.9615200000044,
                    "velocity": 0.48031496062992124,
                    "duration": 0.35804708333336066
                },
                {
                    "name": "E4",
                    "midi": 64,
                    "time": 350.9615200000044,
                    "velocity": 0.5433070866141733,
                    "duration": 0.35804708333336066
                },
                {
                    "name": "G4",
                    "midi": 67,
                    "time": 350.9615200000044,
                    "velocity": 0.6377952755905512,
                    "duration": 0.35804708333336066
                },
                {
                    "name": "A#3",
                    "midi": 58,
                    "time": 350.9615200000044,
                    "velocity": 0.48031496062992124,
                    "duration": 0.35804708333336066
                },
                {
                    "name": "C#4",
                    "midi": 61,
                    "time": 351.3233360000044,
                    "velocity": 0.4330708661417323,
                    "duration": 0.35804708333336066
                },
                {
                    "name": "A#3",
                    "midi": 58,
                    "time": 351.3233360000044,
                    "velocity": 0.4330708661417323,
                    "duration": 0.35804708333336066
                },
                {
                    "name": "G4",
                    "midi": 67,
                    "time": 351.3233360000044,
                    "velocity": 0.5748031496062992,
                    "duration": 0.35804708333336066
                },
                {
                    "name": "E4",
                    "midi": 64,
                    "time": 351.3233360000044,
                    "velocity": 0.49606299212598426,
                    "duration": 0.35804708333336066
                },
                {
                    "name": "A#4",
                    "midi": 70,
                    "time": 351.68515200000445,
                    "velocity": 0.4645669291338583,
                    "duration": 1.0854479999999853
                },
                {
                    "name": "C#5",
                    "midi": 73,
                    "time": 351.68515200000445,
                    "velocity": 0.4645669291338583,
                    "duration": 1.0854479999999853
                },
                {
                    "name": "B4",
                    "midi": 71,
                    "time": 352.77060000000444,
                    "velocity": 0.4645669291338583,
                    "duration": 1.0854479999999853
                },
                {
                    "name": "D5",
                    "midi": 74,
                    "time": 352.77060000000444,
                    "velocity": 0.4645669291338583,
                    "duration": 1.0854479999999853
                },
                {
                    "name": "C4",
                    "midi": 60,
                    "time": 353.8560480000044,
                    "velocity": 0.30708661417322836,
                    "duration": 0.18090799999998808
                },
                {
                    "name": "C5",
                    "midi": 72,
                    "time": 354.0369560000044,
                    "velocity": 0.28346456692913385,
                    "duration": 0.16583233333335556
                },
                {
                    "name": "C5",
                    "midi": 72,
                    "time": 354.21786400000445,
                    "velocity": 0.28346456692913385,
                    "duration": 0.16583233333335556
                },
                {
                    "name": "C5",
                    "midi": 72,
                    "time": 354.3987720000045,
                    "velocity": 0.30708661417322836,
                    "duration": 0.16583233333335556
                },
                {
                    "name": "C5",
                    "midi": 72,
                    "time": 354.57968000000454,
                    "velocity": 0.29133858267716534,
                    "duration": 0.16583233333335556
                },
                {
                    "name": "C5",
                    "midi": 72,
                    "time": 354.7605880000046,
                    "velocity": 0.28346456692913385,
                    "duration": 0.16583233333335556
                },
                {
                    "name": "C5",
                    "midi": 72,
                    "time": 354.94149600000463,
                    "velocity": 0.30708661417322836,
                    "duration": 0.16583233333335556
                },
                {
                    "name": "C5",
                    "midi": 72,
                    "time": 355.1224040000047,
                    "velocity": 0.2755905511811024,
                    "duration": 0.16583233333335556
                },
                {
                    "name": "C5",
                    "midi": 72,
                    "time": 355.3033120000047,
                    "velocity": 0.2755905511811024,
                    "duration": 0.16583233333335556
                },
                {
                    "name": "C5",
                    "midi": 72,
                    "time": 355.48422000000477,
                    "velocity": 0.30708661417322836,
                    "duration": 0.16583233333335556
                },
                {
                    "name": "C5",
                    "midi": 72,
                    "time": 355.6651280000048,
                    "velocity": 0.28346456692913385,
                    "duration": 0.16583233333335556
                },
                {
                    "name": "C5",
                    "midi": 72,
                    "time": 355.84603600000486,
                    "velocity": 0.28346456692913385,
                    "duration": 0.16583233333335556
                },
                {
                    "name": "C5",
                    "midi": 72,
                    "time": 356.2078520000049,
                    "velocity": 0.2992125984251969,
                    "duration": 0.16583233333335556
                },
                {
                    "name": "C5",
                    "midi": 72,
                    "time": 356.38876000000494,
                    "velocity": 0.2992125984251969,
                    "duration": 0.16583233333335556
                },
                {
                    "name": "G#4",
                    "midi": 68,
                    "time": 356.569668000005,
                    "velocity": 0.30708661417322836,
                    "duration": 0.18090799999998808
                },
                {
                    "name": "F4",
                    "midi": 65,
                    "time": 356.569668000005,
                    "velocity": 0.30708661417322836,
                    "duration": 0.18090799999998808
                },
                {
                    "name": "C5",
                    "midi": 72,
                    "time": 356.75057600000497,
                    "velocity": 0.29133858267716534,
                    "duration": 0.16583233333335556
                },
                {
                    "name": "C5",
                    "midi": 72,
                    "time": 356.931484000005,
                    "velocity": 0.29133858267716534,
                    "duration": 0.16583233333335556
                },
                {
                    "name": "C5",
                    "midi": 72,
                    "time": 357.11239200000506,
                    "velocity": 0.3228346456692913,
                    "duration": 0.16583233333335556
                },
                {
                    "name": "C5",
                    "midi": 72,
                    "time": 357.2933000000051,
                    "velocity": 0.29133858267716534,
                    "duration": 0.16583233333335556
                },
                {
                    "name": "C5",
                    "midi": 72,
                    "time": 357.47420800000515,
                    "velocity": 0.2992125984251969,
                    "duration": 0.16583233333335556
                },
                {
                    "name": "C5",
                    "midi": 72,
                    "time": 357.6551160000052,
                    "velocity": 0.36220472440944884,
                    "duration": 0.16583233333335556
                },
                {
                    "name": "C5",
                    "midi": 72,
                    "time": 357.83602400000524,
                    "velocity": 0.31496062992125984,
                    "duration": 0.16583233333335556
                },
                {
                    "name": "C5",
                    "midi": 72,
                    "time": 358.0169320000053,
                    "velocity": 0.31496062992125984,
                    "duration": 0.16583233333335556
                },
                {
                    "name": "C5",
                    "midi": 72,
                    "time": 358.3787480000053,
                    "velocity": 0.2992125984251969,
                    "duration": 0.16583233333335556
                },
                {
                    "name": "C5",
                    "midi": 72,
                    "time": 358.55965600000536,
                    "velocity": 0.2992125984251969,
                    "duration": 0.16583233333335556
                },
                {
                    "name": "G#4",
                    "midi": 68,
                    "time": 358.7405640000054,
                    "velocity": 0.31496062992125984,
                    "duration": 0.18090799999998808
                },
                {
                    "name": "F4",
                    "midi": 65,
                    "time": 358.7405640000054,
                    "velocity": 0.31496062992125984,
                    "duration": 0.18090799999998808
                },
                {
                    "name": "C5",
                    "midi": 72,
                    "time": 358.9214720000054,
                    "velocity": 0.29133858267716534,
                    "duration": 0.16583233333335556
                },
                {
                    "name": "C5",
                    "midi": 72,
                    "time": 359.10238000000544,
                    "velocity": 0.29133858267716534,
                    "duration": 0.16583233333335556
                },
                {
                    "name": "F4",
                    "midi": 65,
                    "time": 359.2832880000055,
                    "velocity": 0.29133858267716534,
                    "duration": 0.18090799999998808
                },
                {
                    "name": "G#4",
                    "midi": 68,
                    "time": 359.2832880000055,
                    "velocity": 0.29133858267716534,
                    "duration": 0.18090799999998808
                },
                {
                    "name": "C5",
                    "midi": 72,
                    "time": 359.4641960000055,
                    "velocity": 0.29133858267716534,
                    "duration": 0.16583233333335556
                },
                {
                    "name": "C5",
                    "midi": 72,
                    "time": 359.6451040000055,
                    "velocity": 0.29133858267716534,
                    "duration": 0.16583233333335556
                },
                {
                    "name": "F4",
                    "midi": 65,
                    "time": 359.82601200000556,
                    "velocity": 0.29133858267716534,
                    "duration": 0.18090799999998808
                },
                {
                    "name": "G#4",
                    "midi": 68,
                    "time": 359.82601200000556,
                    "velocity": 0.29133858267716534,
                    "duration": 0.18090799999998808
                },
                {
                    "name": "C5",
                    "midi": 72,
                    "time": 360.00692000000555,
                    "velocity": 0.29133858267716534,
                    "duration": 0.16583233333335556
                },
                {
                    "name": "C5",
                    "midi": 72,
                    "time": 360.1878280000056,
                    "velocity": 0.29133858267716534,
                    "duration": 0.16583233333335556
                },
                {
                    "name": "E4",
                    "midi": 64,
                    "time": 360.36873600000564,
                    "velocity": 0.30708661417322836,
                    "duration": 0.18090799999998808
                },
                {
                    "name": "G4",
                    "midi": 67,
                    "time": 360.36873600000564,
                    "velocity": 0.30708661417322836,
                    "duration": 0.18090799999998808
                },
                {
                    "name": "C4",
                    "midi": 60,
                    "time": 360.5496440000056,
                    "velocity": 0.29133858267716534,
                    "duration": 0.16583233333335556
                },
                {
                    "name": "C4",
                    "midi": 60,
                    "time": 360.7305520000057,
                    "velocity": 0.29133858267716534,
                    "duration": 0.16583233333335556
                },
                {
                    "name": "C4",
                    "midi": 60,
                    "time": 360.9114600000057,
                    "velocity": 0.2992125984251969,
                    "duration": 0.16583233333335556
                },
                {
                    "name": "C4",
                    "midi": 60,
                    "time": 361.09236800000576,
                    "velocity": 0.29133858267716534,
                    "duration": 0.16583233333335556
                },
                {
                    "name": "C4",
                    "midi": 60,
                    "time": 361.2732760000058,
                    "velocity": 0.29133858267716534,
                    "duration": 0.16583233333335556
                },
                {
                    "name": "C4",
                    "midi": 60,
                    "time": 361.45418400000585,
                    "velocity": 0.29133858267716534,
                    "duration": 0.16583233333335556
                },
                {
                    "name": "C4",
                    "midi": 60,
                    "time": 361.6350920000059,
                    "velocity": 0.29133858267716534,
                    "duration": 0.16583233333335556
                },
                {
                    "name": "C4",
                    "midi": 60,
                    "time": 361.81600000000594,
                    "velocity": 0.29133858267716534,
                    "duration": 0.16583233333335556
                },
                {
                    "name": "C4",
                    "midi": 60,
                    "time": 361.996908000006,
                    "velocity": 0.2992125984251969,
                    "duration": 0.16583233333335556
                },
                {
                    "name": "C4",
                    "midi": 60,
                    "time": 362.17781600000603,
                    "velocity": 0.29133858267716534,
                    "duration": 0.16583233333335556
                },
                {
                    "name": "C4",
                    "midi": 60,
                    "time": 362.3587240000061,
                    "velocity": 0.29133858267716534,
                    "duration": 0.16583233333335556
                },
                {
                    "name": "C4",
                    "midi": 60,
                    "time": 362.5396320000061,
                    "velocity": 0.30708661417322836,
                    "duration": 0.16583233333335556
                },
                {
                    "name": "C4",
                    "midi": 60,
                    "time": 362.72054000000617,
                    "velocity": 0.29133858267716534,
                    "duration": 0.16583233333335556
                },
                {
                    "name": "C4",
                    "midi": 60,
                    "time": 362.9014480000062,
                    "velocity": 0.29133858267716534,
                    "duration": 0.16583233333335556
                },
                {
                    "name": "C4",
                    "midi": 60,
                    "time": 363.08235600000626,
                    "velocity": 0.2992125984251969,
                    "duration": 0.16583233333335556
                },
                {
                    "name": "C4",
                    "midi": 60,
                    "time": 363.2632640000063,
                    "velocity": 0.29133858267716534,
                    "duration": 0.16583233333335556
                },
                {
                    "name": "C4",
                    "midi": 60,
                    "time": 363.44417200000635,
                    "velocity": 0.29133858267716534,
                    "duration": 0.16583233333335556
                },
                {
                    "name": "C4",
                    "midi": 60,
                    "time": 363.6250800000064,
                    "velocity": 0.2992125984251969,
                    "duration": 0.16583233333335556
                },
                {
                    "name": "C4",
                    "midi": 60,
                    "time": 363.80598800000644,
                    "velocity": 0.30708661417322836,
                    "duration": 0.16583233333335556
                },
                {
                    "name": "C4",
                    "midi": 60,
                    "time": 363.9868960000065,
                    "velocity": 0.29133858267716534,
                    "duration": 0.16583233333335556
                },
                {
                    "name": "G3",
                    "midi": 55,
                    "time": 364.1678040000065,
                    "velocity": 0.3464566929133858,
                    "duration": 0.18090799999998808
                },
                {
                    "name": "A#3",
                    "midi": 58,
                    "time": 364.1678040000065,
                    "velocity": 0.3464566929133858,
                    "duration": 0.18090799999998808
                },
                {
                    "name": "C4",
                    "midi": 60,
                    "time": 364.3487120000065,
                    "velocity": 0.29133858267716534,
                    "duration": 0.16583233333335556
                },
                {
                    "name": "C4",
                    "midi": 60,
                    "time": 364.52962000000656,
                    "velocity": 0.29133858267716534,
                    "duration": 0.16583233333335556
                },
                {
                    "name": "C4",
                    "midi": 60,
                    "time": 364.7105280000066,
                    "velocity": 0.30708661417322836,
                    "duration": 0.16583233333335556
                },
                {
                    "name": "C4",
                    "midi": 60,
                    "time": 364.89143600000665,
                    "velocity": 0.29133858267716534,
                    "duration": 0.16583233333335556
                },
                {
                    "name": "C4",
                    "midi": 60,
                    "time": 365.0723440000067,
                    "velocity": 0.29133858267716534,
                    "duration": 0.16583233333335556
                },
                {
                    "name": "C4",
                    "midi": 60,
                    "time": 365.25325200000674,
                    "velocity": 0.29133858267716534,
                    "duration": 0.16583233333335556
                },
                {
                    "name": "C4",
                    "midi": 60,
                    "time": 365.4341600000068,
                    "velocity": 0.29133858267716534,
                    "duration": 0.16583233333335556
                },
                {
                    "name": "C4",
                    "midi": 60,
                    "time": 365.61506800000683,
                    "velocity": 0.29133858267716534,
                    "duration": 0.16583233333335556
                },
                {
                    "name": "C4",
                    "midi": 60,
                    "time": 365.7959760000069,
                    "velocity": 0.2992125984251969,
                    "duration": 0.16583233333335556
                },
                {
                    "name": "C4",
                    "midi": 60,
                    "time": 365.9768840000069,
                    "velocity": 0.29133858267716534,
                    "duration": 0.16583233333335556
                },
                {
                    "name": "C4",
                    "midi": 60,
                    "time": 366.15779200000696,
                    "velocity": 0.29133858267716534,
                    "duration": 0.16583233333335556
                },
                {
                    "name": "G#3",
                    "midi": 56,
                    "time": 366.338700000007,
                    "velocity": 0.3779527559055118,
                    "duration": 0.18090799999998808
                },
                {
                    "name": "F3",
                    "midi": 53,
                    "time": 366.338700000007,
                    "velocity": 0.3464566929133858,
                    "duration": 0.18090799999998808
                },
                {
                    "name": "C4",
                    "midi": 60,
                    "time": 366.519608000007,
                    "velocity": 0.29133858267716534,
                    "duration": 0.16583233333335556
                },
                {
                    "name": "C4",
                    "midi": 60,
                    "time": 366.70051600000704,
                    "velocity": 0.29133858267716534,
                    "duration": 0.16583233333335556
                },
                {
                    "name": "C4",
                    "midi": 60,
                    "time": 367.0623320000071,
                    "velocity": 0.2992125984251969,
                    "duration": 0.16583233333335556
                },
                {
                    "name": "C4",
                    "midi": 60,
                    "time": 367.2432400000071,
                    "velocity": 0.2992125984251969,
                    "duration": 0.16583233333335556
                },
                {
                    "name": "F3",
                    "midi": 53,
                    "time": 367.42414800000716,
                    "velocity": 0.31496062992125984,
                    "duration": 0.18090799999998808
                },
                {
                    "name": "G#3",
                    "midi": 56,
                    "time": 367.42414800000716,
                    "velocity": 0.31496062992125984,
                    "duration": 0.18090799999998808
                },
                {
                    "name": "C4",
                    "midi": 60,
                    "time": 367.60505600000715,
                    "velocity": 0.29133858267716534,
                    "duration": 0.16583233333335556
                },
                {
                    "name": "C4",
                    "midi": 60,
                    "time": 367.7859640000072,
                    "velocity": 0.29133858267716534,
                    "duration": 0.16583233333335556
                },
                {
                    "name": "G#3",
                    "midi": 56,
                    "time": 367.96687200000724,
                    "velocity": 0.29133858267716534,
                    "duration": 0.18090799999998808
                },
                {
                    "name": "F3",
                    "midi": 53,
                    "time": 367.96687200000724,
                    "velocity": 0.29133858267716534,
                    "duration": 0.18090799999998808
                },
                {
                    "name": "C4",
                    "midi": 60,
                    "time": 368.14778000000723,
                    "velocity": 0.29133858267716534,
                    "duration": 0.16583233333335556
                },
                {
                    "name": "C4",
                    "midi": 60,
                    "time": 368.3286880000073,
                    "velocity": 0.29133858267716534,
                    "duration": 0.16583233333335556
                },
                {
                    "name": "G#3",
                    "midi": 56,
                    "time": 368.5095960000073,
                    "velocity": 0.28346456692913385,
                    "duration": 0.18090799999998808
                },
                {
                    "name": "F3",
                    "midi": 53,
                    "time": 368.5095960000073,
                    "velocity": 0.28346456692913385,
                    "duration": 0.18090799999998808
                },
                {
                    "name": "C4",
                    "midi": 60,
                    "time": 368.6905040000073,
                    "velocity": 0.29133858267716534,
                    "duration": 0.16583233333335556
                },
                {
                    "name": "C4",
                    "midi": 60,
                    "time": 368.87141200000735,
                    "velocity": 0.29133858267716534,
                    "duration": 0.16583233333335556
                },
                {
                    "name": "C4",
                    "midi": 60,
                    "time": 369.2332280000074,
                    "velocity": 0.2992125984251969,
                    "duration": 0.16583233333335556
                },
                {
                    "name": "C4",
                    "midi": 60,
                    "time": 369.41413600000743,
                    "velocity": 0.2992125984251969,
                    "duration": 0.16583233333335556
                },
                {
                    "name": "E3",
                    "midi": 52,
                    "time": 369.5950440000075,
                    "velocity": 0.31496062992125984,
                    "duration": 0.18090799999998808
                },
                {
                    "name": "G3",
                    "midi": 55,
                    "time": 369.5950440000075,
                    "velocity": 0.31496062992125984,
                    "duration": 0.18090799999998808
                },
                {
                    "name": "C4",
                    "midi": 60,
                    "time": 369.77595200000746,
                    "velocity": 0.29133858267716534,
                    "duration": 0.16583233333335556
                },
                {
                    "name": "C4",
                    "midi": 60,
                    "time": 369.9568600000075,
                    "velocity": 0.29133858267716534,
                    "duration": 0.16583233333335556
                },
                {
                    "name": "C4",
                    "midi": 60,
                    "time": 370.31867600000754,
                    "velocity": 0.29133858267716534,
                    "duration": 0.16583233333335556
                },
                {
                    "name": "C4",
                    "midi": 60,
                    "time": 370.4995840000076,
                    "velocity": 0.29133858267716534,
                    "duration": 0.16583233333335556
                },
                {
                    "name": "F#3",
                    "midi": 54,
                    "time": 370.68049200000763,
                    "velocity": 0.28346456692913385,
                    "duration": 0.18090799999998808
                },
                {
                    "name": "D#3",
                    "midi": 51,
                    "time": 370.68049200000763,
                    "velocity": 0.28346456692913385,
                    "duration": 0.18090799999998808
                },
                {
                    "name": "C4",
                    "midi": 60,
                    "time": 370.8614000000076,
                    "velocity": 0.29133858267716534,
                    "duration": 0.16583233333335556
                },
                {
                    "name": "C4",
                    "midi": 60,
                    "time": 371.04230800000767,
                    "velocity": 0.29133858267716534,
                    "duration": 0.16583233333335556
                },
                {
                    "name": "C4",
                    "midi": 60,
                    "time": 371.4041240000077,
                    "velocity": 0.29133858267716534,
                    "duration": 0.16583233333335556
                },
                {
                    "name": "C4",
                    "midi": 60,
                    "time": 371.58503200000774,
                    "velocity": 0.28346456692913385,
                    "duration": 0.16583233333335556
                },
                {
                    "name": "D3",
                    "midi": 50,
                    "time": 371.7659400000078,
                    "velocity": 0.2992125984251969,
                    "duration": 0.18090799999998808
                },
                {
                    "name": "F3",
                    "midi": 53,
                    "time": 371.7659400000078,
                    "velocity": 0.2992125984251969,
                    "duration": 0.18090799999998808
                },
                {
                    "name": "C4",
                    "midi": 60,
                    "time": 371.9468480000078,
                    "velocity": 0.2677165354330709,
                    "duration": 0.16583233333335556
                },
                {
                    "name": "C4",
                    "midi": 60,
                    "time": 372.1277560000078,
                    "velocity": 0.2677165354330709,
                    "duration": 0.16583233333335556
                },
                {
                    "name": "C4",
                    "midi": 60,
                    "time": 372.48957200000785,
                    "velocity": 0.25196850393700787,
                    "duration": 0.16583233333335556
                },
                {
                    "name": "C4",
                    "midi": 60,
                    "time": 372.6704800000079,
                    "velocity": 0.25196850393700787,
                    "duration": 0.16583233333335556
                },
                {
                    "name": "F3",
                    "midi": 53,
                    "time": 372.85138800000794,
                    "velocity": 0.23622047244094488,
                    "duration": 0.18090799999998808
                },
                {
                    "name": "C#3",
                    "midi": 49,
                    "time": 372.85138800000794,
                    "velocity": 0.23622047244094488,
                    "duration": 0.18090799999998808
                },
                {
                    "name": "C4",
                    "midi": 60,
                    "time": 373.03229600000793,
                    "velocity": 0.2440944881889764,
                    "duration": 0.16583233333335556
                },
                {
                    "name": "C4",
                    "midi": 60,
                    "time": 373.213204000008,
                    "velocity": 0.23622047244094488,
                    "duration": 0.16583233333335556
                },
                {
                    "name": "C3",
                    "midi": 48,
                    "time": 373.575020000008,
                    "velocity": 0.1968503937007874,
                    "duration": 0.16583233333335556
                },
                {
                    "name": "C3",
                    "midi": 48,
                    "time": 373.75592800000805,
                    "velocity": 0.2047244094488189,
                    "duration": 0.16583233333335556
                },
                {
                    "name": "C3",
                    "midi": 48,
                    "time": 373.9368360000081,
                    "velocity": 0.2204724409448819,
                    "duration": 0.16583233333335556
                },
                {
                    "name": "C3",
                    "midi": 48,
                    "time": 374.11774400000814,
                    "velocity": 0.2047244094488189,
                    "duration": 0.16583233333335556
                },
                {
                    "name": "C3",
                    "midi": 48,
                    "time": 374.2986520000082,
                    "velocity": 0.2047244094488189,
                    "duration": 0.16583233333335556
                },
                {
                    "name": "C3",
                    "midi": 48,
                    "time": 374.47956000000823,
                    "velocity": 0.2204724409448819,
                    "duration": 0.16583233333335556
                },
                {
                    "name": "C3",
                    "midi": 48,
                    "time": 374.6604680000083,
                    "velocity": 0.2047244094488189,
                    "duration": 0.16583233333335556
                },
                {
                    "name": "C3",
                    "midi": 48,
                    "time": 374.8413760000083,
                    "velocity": 0.2047244094488189,
                    "duration": 0.16583233333335556
                },
                {
                    "name": "C3",
                    "midi": 48,
                    "time": 375.02228400000837,
                    "velocity": 0.2204724409448819,
                    "duration": 0.16583233333335556
                },
                {
                    "name": "C3",
                    "midi": 48,
                    "time": 375.2031920000084,
                    "velocity": 0.2047244094488189,
                    "duration": 0.16583233333335556
                },
                {
                    "name": "C3",
                    "midi": 48,
                    "time": 375.38410000000846,
                    "velocity": 0.2125984251968504,
                    "duration": 0.16583233333335556
                },
                {
                    "name": "G3",
                    "midi": 55,
                    "time": 375.5650080000085,
                    "velocity": 0.3228346456692913,
                    "duration": 0.5427239999999642
                },
                {
                    "name": "A#2",
                    "midi": 46,
                    "time": 375.5650080000085,
                    "velocity": 0.3228346456692913,
                    "duration": 0.5427239999999642
                },
                {
                    "name": "E3",
                    "midi": 52,
                    "time": 375.5650080000085,
                    "velocity": 0.3228346456692913,
                    "duration": 0.5427239999999642
                },
                {
                    "name": "C3",
                    "midi": 48,
                    "time": 375.5650080000085,
                    "velocity": 0.3228346456692913,
                    "duration": 0.5427239999999642
                },
                {
                    "name": "C2",
                    "midi": 36,
                    "time": 375.7459160000085,
                    "velocity": 0.1968503937007874,
                    "duration": 0.18090799999998808
                },
                {
                    "name": "C2",
                    "midi": 36,
                    "time": 375.9268240000085,
                    "velocity": 0.2047244094488189,
                    "duration": 0.18090799999998808
                },
                {
                    "name": "C2",
                    "midi": 36,
                    "time": 376.10773200000847,
                    "velocity": 0.2204724409448819,
                    "duration": 0.18090799999998808
                },
                {
                    "name": "C2",
                    "midi": 36,
                    "time": 376.28864000000846,
                    "velocity": 0.2047244094488189,
                    "duration": 0.18090799999998808
                },
                {
                    "name": "C2",
                    "midi": 36,
                    "time": 376.46954800000844,
                    "velocity": 0.2047244094488189,
                    "duration": 0.18090799999998808
                },
                {
                    "name": "C2",
                    "midi": 36,
                    "time": 376.65045600000843,
                    "velocity": 0.2204724409448819,
                    "duration": 0.18090799999998808
                },
                {
                    "name": "C2",
                    "midi": 36,
                    "time": 376.8313640000084,
                    "velocity": 0.2047244094488189,
                    "duration": 0.18090799999998808
                },
                {
                    "name": "C2",
                    "midi": 36,
                    "time": 377.0122720000084,
                    "velocity": 0.2047244094488189,
                    "duration": 0.18090799999998808
                },
                {
                    "name": "C2",
                    "midi": 36,
                    "time": 377.1931800000084,
                    "velocity": 0.2204724409448819,
                    "duration": 0.18090799999998808
                },
                {
                    "name": "C2",
                    "midi": 36,
                    "time": 377.3740880000084,
                    "velocity": 0.2047244094488189,
                    "duration": 0.18090799999998808
                },
                {
                    "name": "C2",
                    "midi": 36,
                    "time": 377.5549960000084,
                    "velocity": 0.2125984251968504,
                    "duration": 0.18090799999998808
                },
                {
                    "name": "F1",
                    "midi": 29,
                    "time": 377.73590400000836,
                    "velocity": 0.2204724409448819,
                    "duration": 0.18090799999998808
                },
                {
                    "name": "A1",
                    "midi": 33,
                    "time": 377.91681200000835,
                    "velocity": 0.15748031496062992,
                    "duration": 0.18090799999998808
                },
                {
                    "name": "C2",
                    "midi": 36,
                    "time": 377.91681200000835,
                    "velocity": 0.15748031496062992,
                    "duration": 0.18090799999998808
                },
                {
                    "name": "F2",
                    "midi": 41,
                    "time": 377.91681200000835,
                    "velocity": 0.1968503937007874,
                    "duration": 0.18090799999998808
                },
                {
                    "name": "F1",
                    "midi": 29,
                    "time": 378.09772000000834,
                    "velocity": 0.2047244094488189,
                    "duration": 0.18090799999998808
                },
                {
                    "name": "A1",
                    "midi": 33,
                    "time": 378.2786280000083,
                    "velocity": 0.1732283464566929,
                    "duration": 0.18090799999998808
                },
                {
                    "name": "C2",
                    "midi": 36,
                    "time": 378.2786280000083,
                    "velocity": 0.1732283464566929,
                    "duration": 0.18090799999998808
                },
                {
                    "name": "F2",
                    "midi": 41,
                    "time": 378.2786280000083,
                    "velocity": 0.2204724409448819,
                    "duration": 0.18090799999998808
                },
                {
                    "name": "F1",
                    "midi": 29,
                    "time": 378.4595360000083,
                    "velocity": 0.2047244094488189,
                    "duration": 0.18090799999998808
                },
                {
                    "name": "A1",
                    "midi": 33,
                    "time": 378.6404440000083,
                    "velocity": 0.15748031496062992,
                    "duration": 0.18090799999998808
                },
                {
                    "name": "C2",
                    "midi": 36,
                    "time": 378.6404440000083,
                    "velocity": 0.15748031496062992,
                    "duration": 0.18090799999998808
                },
                {
                    "name": "F2",
                    "midi": 41,
                    "time": 378.6404440000083,
                    "velocity": 0.2047244094488189,
                    "duration": 0.18090799999998808
                },
                {
                    "name": "F1",
                    "midi": 29,
                    "time": 378.8213520000083,
                    "velocity": 0.2204724409448819,
                    "duration": 0.18090799999998808
                },
                {
                    "name": "A1",
                    "midi": 33,
                    "time": 379.0022600000083,
                    "velocity": 0.15748031496062992,
                    "duration": 0.18090799999998808
                },
                {
                    "name": "C2",
                    "midi": 36,
                    "time": 379.0022600000083,
                    "velocity": 0.15748031496062992,
                    "duration": 0.18090799999998808
                },
                {
                    "name": "F2",
                    "midi": 41,
                    "time": 379.0022600000083,
                    "velocity": 0.2047244094488189,
                    "duration": 0.18090799999998808
                },
                {
                    "name": "F1",
                    "midi": 29,
                    "time": 379.18316800000827,
                    "velocity": 0.2047244094488189,
                    "duration": 0.18090799999998808
                },
                {
                    "name": "A2",
                    "midi": 45,
                    "time": 379.36407600000825,
                    "velocity": 0.31496062992125984,
                    "duration": 0.4522699999999986
                },
                {
                    "name": "C2",
                    "midi": 36,
                    "time": 379.36407600000825,
                    "velocity": 0.1732283464566929,
                    "duration": 0.18090799999998808
                },
                {
                    "name": "A1",
                    "midi": 33,
                    "time": 379.36407600000825,
                    "velocity": 0.1732283464566929,
                    "duration": 0.18090799999998808
                },
                {
                    "name": "F2",
                    "midi": 41,
                    "time": 379.36407600000825,
                    "velocity": 0.2204724409448819,
                    "duration": 0.18090799999998808
                },
                {
                    "name": "F1",
                    "midi": 29,
                    "time": 379.54498400000824,
                    "velocity": 0.2047244094488189,
                    "duration": 0.18090799999998808
                },
                {
                    "name": "F2",
                    "midi": 41,
                    "time": 379.72589200000823,
                    "velocity": 0.2125984251968504,
                    "duration": 0.18090800000004492
                },
                {
                    "name": "A1",
                    "midi": 33,
                    "time": 379.72589200000823,
                    "velocity": 0.16535433070866143,
                    "duration": 0.18090800000004492
                },
                {
                    "name": "C2",
                    "midi": 36,
                    "time": 379.72589200000823,
                    "velocity": 0.16535433070866143,
                    "duration": 0.18090800000004492
                },
                {
                    "name": "C3",
                    "midi": 48,
                    "time": 379.81634600000825,
                    "velocity": 0.29133858267716534,
                    "duration": 0.09045400000002246
                },
                {
                    "name": "F1",
                    "midi": 29,
                    "time": 379.9068000000083,
                    "velocity": 0.2204724409448819,
                    "duration": 0.18090799999998808
                },
                {
                    "name": "A1",
                    "midi": 33,
                    "time": 380.08770800000826,
                    "velocity": 0.15748031496062992,
                    "duration": 0.18090799999998808
                },
                {
                    "name": "C2",
                    "midi": 36,
                    "time": 380.08770800000826,
                    "velocity": 0.15748031496062992,
                    "duration": 0.18090799999998808
                },
                {
                    "name": "F2",
                    "midi": 41,
                    "time": 380.08770800000826,
                    "velocity": 0.1968503937007874,
                    "duration": 0.18090799999998808
                },
                {
                    "name": "F1",
                    "midi": 29,
                    "time": 380.26861600000825,
                    "velocity": 0.2047244094488189,
                    "duration": 0.18090799999998808
                },
                {
                    "name": "F2",
                    "midi": 41,
                    "time": 380.44952400000824,
                    "velocity": 0.2204724409448819,
                    "duration": 0.18090799999998808
                },
                {
                    "name": "C2",
                    "midi": 36,
                    "time": 380.44952400000824,
                    "velocity": 0.1732283464566929,
                    "duration": 0.18090799999998808
                },
                {
                    "name": "A1",
                    "midi": 33,
                    "time": 380.44952400000824,
                    "velocity": 0.1732283464566929,
                    "duration": 0.18090799999998808
                },
                {
                    "name": "F1",
                    "midi": 29,
                    "time": 380.6304320000082,
                    "velocity": 0.2047244094488189,
                    "duration": 0.18090799999998808
                },
                {
                    "name": "C2",
                    "midi": 36,
                    "time": 380.8113400000082,
                    "velocity": 0.15748031496062992,
                    "duration": 0.18090799999998808
                },
                {
                    "name": "F2",
                    "midi": 41,
                    "time": 380.8113400000082,
                    "velocity": 0.2047244094488189,
                    "duration": 0.18090799999998808
                },
                {
                    "name": "A1",
                    "midi": 33,
                    "time": 380.8113400000082,
                    "velocity": 0.15748031496062992,
                    "duration": 0.18090799999998808
                },
                {
                    "name": "G1",
                    "midi": 31,
                    "time": 380.9922480000082,
                    "velocity": 0.2204724409448819,
                    "duration": 0.18090799999998808
                },
                {
                    "name": "A#1",
                    "midi": 34,
                    "time": 381.1731560000082,
                    "velocity": 0.15748031496062992,
                    "duration": 0.18090799999998808
                },
                {
                    "name": "E2",
                    "midi": 40,
                    "time": 381.1731560000082,
                    "velocity": 0.15748031496062992,
                    "duration": 0.18090799999998808
                },
                {
                    "name": "G2",
                    "midi": 43,
                    "time": 381.1731560000082,
                    "velocity": 0.2047244094488189,
                    "duration": 0.18090799999998808
                },
                {
                    "name": "G1",
                    "midi": 31,
                    "time": 381.3540640000082,
                    "velocity": 0.2047244094488189,
                    "duration": 0.18090799999998808
                },
                {
                    "name": "A#1",
                    "midi": 34,
                    "time": 381.53497200000817,
                    "velocity": 0.1732283464566929,
                    "duration": 0.18090799999998808
                },
                {
                    "name": "G2",
                    "midi": 43,
                    "time": 381.53497200000817,
                    "velocity": 0.2204724409448819,
                    "duration": 0.18090799999998808
                },
                {
                    "name": "E2",
                    "midi": 40,
                    "time": 381.53497200000817,
                    "velocity": 0.1732283464566929,
                    "duration": 0.18090799999998808
                },
                {
                    "name": "G1",
                    "midi": 31,
                    "time": 381.71588000000816,
                    "velocity": 0.2047244094488189,
                    "duration": 0.18090799999998808
                },
                {
                    "name": "E2",
                    "midi": 40,
                    "time": 381.89678800000814,
                    "velocity": 0.16535433070866143,
                    "duration": 0.18090799999998808
                },
                {
                    "name": "G2",
                    "midi": 43,
                    "time": 381.89678800000814,
                    "velocity": 0.2125984251968504,
                    "duration": 0.18090799999998808
                },
                {
                    "name": "A#1",
                    "midi": 34,
                    "time": 381.89678800000814,
                    "velocity": 0.16535433070866143,
                    "duration": 0.18090799999998808
                },
                {
                    "name": "A1",
                    "midi": 33,
                    "time": 382.07769600000813,
                    "velocity": 0.2204724409448819,
                    "duration": 0.18090799999998808
                },
                {
                    "name": "F2",
                    "midi": 41,
                    "time": 382.2586040000081,
                    "velocity": 0.15748031496062992,
                    "duration": 0.18090799999998808
                },
                {
                    "name": "A2",
                    "midi": 45,
                    "time": 382.2586040000081,
                    "velocity": 0.1968503937007874,
                    "duration": 0.18090799999998808
                },
                {
                    "name": "C2",
                    "midi": 36,
                    "time": 382.2586040000081,
                    "velocity": 0.15748031496062992,
                    "duration": 0.18090799999998808
                },
                {
                    "name": "A1",
                    "midi": 33,
                    "time": 382.4395120000081,
                    "velocity": 0.2047244094488189,
                    "duration": 0.18090799999998808
                },
                {
                    "name": "C3",
                    "midi": 48,
                    "time": 382.6204200000081,
                    "velocity": 0.31496062992125984,
                    "duration": 1.0854479999999285
                },
                {
                    "name": "A2",
                    "midi": 45,
                    "time": 382.6204200000081,
                    "velocity": 0.2204724409448819,
                    "duration": 0.18090799999998808
                },
                {
                    "name": "F2",
                    "midi": 41,
                    "time": 382.6204200000081,
                    "velocity": 0.1732283464566929,
                    "duration": 0.18090799999998808
                },
                {
                    "name": "C2",
                    "midi": 36,
                    "time": 382.6204200000081,
                    "velocity": 0.1732283464566929,
                    "duration": 0.18090799999998808
                },
                {
                    "name": "A1",
                    "midi": 33,
                    "time": 382.8013280000081,
                    "velocity": 0.2047244094488189,
                    "duration": 0.18090799999998808
                },
                {
                    "name": "C2",
                    "midi": 36,
                    "time": 382.9822360000081,
                    "velocity": 0.15748031496062992,
                    "duration": 0.18090799999998808
                },
                {
                    "name": "A2",
                    "midi": 45,
                    "time": 382.9822360000081,
                    "velocity": 0.2047244094488189,
                    "duration": 0.18090799999998808
                },
                {
                    "name": "F2",
                    "midi": 41,
                    "time": 382.9822360000081,
                    "velocity": 0.15748031496062992,
                    "duration": 0.18090799999998808
                },
                {
                    "name": "A1",
                    "midi": 33,
                    "time": 383.16314400000806,
                    "velocity": 0.2204724409448819,
                    "duration": 0.18090799999998808
                },
                {
                    "name": "A2",
                    "midi": 45,
                    "time": 383.34405200000805,
                    "velocity": 0.2047244094488189,
                    "duration": 0.18090799999998808
                },
                {
                    "name": "C2",
                    "midi": 36,
                    "time": 383.34405200000805,
                    "velocity": 0.15748031496062992,
                    "duration": 0.18090799999998808
                },
                {
                    "name": "F2",
                    "midi": 41,
                    "time": 383.34405200000805,
                    "velocity": 0.15748031496062992,
                    "duration": 0.18090799999998808
                },
                {
                    "name": "A1",
                    "midi": 33,
                    "time": 383.52496000000804,
                    "velocity": 0.2047244094488189,
                    "duration": 0.18090799999998808
                },
                {
                    "name": "F2",
                    "midi": 41,
                    "time": 383.705868000008,
                    "velocity": 0.2204724409448819,
                    "duration": 0.18090799999998808
                },
                {
                    "name": "D3",
                    "midi": 50,
                    "time": 383.705868000008,
                    "velocity": 0.31496062992125984,
                    "duration": 0.4522699999999986
                },
                {
                    "name": "A#1",
                    "midi": 34,
                    "time": 383.886776000008,
                    "velocity": 0.2047244094488189,
                    "duration": 0.18090799999998808
                },
                {
                    "name": "F2",
                    "midi": 41,
                    "time": 384.067684000008,
                    "velocity": 0.2125984251968504,
                    "duration": 0.18090800000004492
                },
                {
                    "name": "A#2",
                    "midi": 46,
                    "time": 384.158138000008,
                    "velocity": 0.29133858267716534,
                    "duration": 0.09045400000002246
                },
                {
                    "name": "A2",
                    "midi": 45,
                    "time": 384.24859200000805,
                    "velocity": 0.31496062992125984,
                    "duration": 0.5427239999999642
                },
                {
                    "name": "C2",
                    "midi": 36,
                    "time": 384.24859200000805,
                    "velocity": 0.2204724409448819,
                    "duration": 0.18090799999998808
                },
                {
                    "name": "F2",
                    "midi": 41,
                    "time": 384.42950000000803,
                    "velocity": 0.1968503937007874,
                    "duration": 0.18090799999998808
                },
                {
                    "name": "C2",
                    "midi": 36,
                    "time": 384.610408000008,
                    "velocity": 0.2047244094488189,
                    "duration": 0.18090799999998808
                },
                {
                    "name": "F2",
                    "midi": 41,
                    "time": 384.791316000008,
                    "velocity": 0.2204724409448819,
                    "duration": 0.18090799999998808
                },
                {
                    "name": "C3",
                    "midi": 48,
                    "time": 384.791316000008,
                    "velocity": 0.31496062992125984,
                    "duration": 0.4522699999999986
                },
                {
                    "name": "C2",
                    "midi": 36,
                    "time": 384.972224000008,
                    "velocity": 0.1968503937007874,
                    "duration": 0.18090799999998808
                },
                {
                    "name": "F2",
                    "midi": 41,
                    "time": 385.153132000008,
                    "velocity": 0.1968503937007874,
                    "duration": 0.18090800000004492
                },
                {
                    "name": "A2",
                    "midi": 45,
                    "time": 385.243586000008,
                    "velocity": 0.28346456692913385,
                    "duration": 0.09045400000002246
                },
                {
                    "name": "G2",
                    "midi": 43,
                    "time": 385.33404000000803,
                    "velocity": 0.31496062992125984,
                    "duration": 0.5427239999999642
                },
                {
                    "name": "C2",
                    "midi": 36,
                    "time": 385.33404000000803,
                    "velocity": 0.2204724409448819,
                    "duration": 0.18090799999998808
                },
                {
                    "name": "E2",
                    "midi": 40,
                    "time": 385.514948000008,
                    "velocity": 0.1968503937007874,
                    "duration": 0.18090799999998808
                },
                {
                    "name": "C2",
                    "midi": 36,
                    "time": 385.695856000008,
                    "velocity": 0.1968503937007874,
                    "duration": 0.18090799999998808
                },
                {
                    "name": "C3",
                    "midi": 48,
                    "time": 385.876764000008,
                    "velocity": 0.31496062992125984,
                    "duration": 0.4522699999999986
                },
                {
                    "name": "E2",
                    "midi": 40,
                    "time": 385.876764000008,
                    "velocity": 0.2204724409448819,
                    "duration": 0.18090799999998808
                },
                {
                    "name": "C2",
                    "midi": 36,
                    "time": 386.057672000008,
                    "velocity": 0.1968503937007874,
                    "duration": 0.18090799999998808
                },
                {
                    "name": "E2",
                    "midi": 40,
                    "time": 386.23858000000797,
                    "velocity": 0.1968503937007874,
                    "duration": 0.18090800000004492
                },
                {
                    "name": "A#2",
                    "midi": 46,
                    "time": 386.329034000008,
                    "velocity": 0.28346456692913385,
                    "duration": 0.09045400000002246
                },
                {
                    "name": "F2",
                    "midi": 41,
                    "time": 386.419488000008,
                    "velocity": 0.2204724409448819,
                    "duration": 0.18090799999998808
                },
                {
                    "name": "A2",
                    "midi": 45,
                    "time": 386.600396000008,
                    "velocity": 0.15748031496062992,
                    "duration": 0.18090799999998808
                },
                {
                    "name": "C3",
                    "midi": 48,
                    "time": 386.600396000008,
                    "velocity": 0.15748031496062992,
                    "duration": 0.18090799999998808
                },
                {
                    "name": "F3",
                    "midi": 53,
                    "time": 386.600396000008,
                    "velocity": 0.1968503937007874,
                    "duration": 0.18090799999998808
                },
                {
                    "name": "F2",
                    "midi": 41,
                    "time": 386.781304000008,
                    "velocity": 0.2125984251968504,
                    "duration": 0.18090799999998808
                },
                {
                    "name": "A2",
                    "midi": 45,
                    "time": 386.962212000008,
                    "velocity": 0.18110236220472442,
                    "duration": 0.18090799999998808
                },
                {
                    "name": "C3",
                    "midi": 48,
                    "time": 386.962212000008,
                    "velocity": 0.18110236220472442,
                    "duration": 0.18090799999998808
                },
                {
                    "name": "F3",
                    "midi": 53,
                    "time": 386.962212000008,
                    "velocity": 0.2283464566929134,
                    "duration": 0.18090799999998808
                },
                {
                    "name": "F2",
                    "midi": 41,
                    "time": 387.14312000000797,
                    "velocity": 0.2204724409448819,
                    "duration": 0.18090799999998808
                },
                {
                    "name": "A2",
                    "midi": 45,
                    "time": 387.32402800000796,
                    "velocity": 0.1732283464566929,
                    "duration": 0.18090799999998808
                },
                {
                    "name": "C3",
                    "midi": 48,
                    "time": 387.32402800000796,
                    "velocity": 0.1732283464566929,
                    "duration": 0.18090799999998808
                },
                {
                    "name": "F3",
                    "midi": 53,
                    "time": 387.32402800000796,
                    "velocity": 0.2283464566929134,
                    "duration": 0.18090799999998808
                },
                {
                    "name": "F2",
                    "midi": 41,
                    "time": 387.50493600000794,
                    "velocity": 0.25196850393700787,
                    "duration": 0.18090799999998808
                },
                {
                    "name": "A2",
                    "midi": 45,
                    "time": 387.68584400000793,
                    "velocity": 0.1889763779527559,
                    "duration": 0.18090799999998808
                },
                {
                    "name": "C3",
                    "midi": 48,
                    "time": 387.68584400000793,
                    "velocity": 0.1889763779527559,
                    "duration": 0.18090799999998808
                },
                {
                    "name": "F3",
                    "midi": 53,
                    "time": 387.68584400000793,
                    "velocity": 0.2440944881889764,
                    "duration": 0.18090799999998808
                },
                {
                    "name": "F2",
                    "midi": 41,
                    "time": 387.8667520000079,
                    "velocity": 0.2440944881889764,
                    "duration": 0.18090799999998808
                },
                {
                    "name": "A3",
                    "midi": 57,
                    "time": 388.0476600000079,
                    "velocity": 0.4015748031496063,
                    "duration": 0.4522699999999986
                },
                {
                    "name": "C3",
                    "midi": 48,
                    "time": 388.0476600000079,
                    "velocity": 0.2125984251968504,
                    "duration": 0.18090799999998808
                },
                {
                    "name": "A2",
                    "midi": 45,
                    "time": 388.0476600000079,
                    "velocity": 0.2125984251968504,
                    "duration": 0.18090799999998808
                },
                {
                    "name": "F3",
                    "midi": 53,
                    "time": 388.0476600000079,
                    "velocity": 0.2755905511811024,
                    "duration": 0.18090799999998808
                },
                {
                    "name": "F2",
                    "midi": 41,
                    "time": 388.2285680000079,
                    "velocity": 0.25984251968503935,
                    "duration": 0.18090799999998808
                },
                {
                    "name": "F3",
                    "midi": 53,
                    "time": 388.4094760000079,
                    "velocity": 0.2677165354330709,
                    "duration": 0.18090800000004492
                },
                {
                    "name": "A2",
                    "midi": 45,
                    "time": 388.4094760000079,
                    "velocity": 0.2125984251968504,
                    "duration": 0.18090800000004492
                },
                {
                    "name": "C3",
                    "midi": 48,
                    "time": 388.4094760000079,
                    "velocity": 0.2125984251968504,
                    "duration": 0.18090800000004492
                },
                {
                    "name": "C4",
                    "midi": 60,
                    "time": 388.4999300000079,
                    "velocity": 0.3858267716535433,
                    "duration": 0.09045400000002246
                },
                {
                    "name": "F2",
                    "midi": 41,
                    "time": 388.59038400000793,
                    "velocity": 0.29133858267716534,
                    "duration": 0.18090799999998808
                },
                {
                    "name": "A2",
                    "midi": 45,
                    "time": 388.7712920000079,
                    "velocity": 0.2125984251968504,
                    "duration": 0.18090799999998808
                },
                {
                    "name": "C3",
                    "midi": 48,
                    "time": 388.7712920000079,
                    "velocity": 0.2125984251968504,
                    "duration": 0.18090799999998808
                },
                {
                    "name": "F3",
                    "midi": 53,
                    "time": 388.7712920000079,
                    "velocity": 0.2677165354330709,
                    "duration": 0.18090799999998808
                },
                {
                    "name": "F2",
                    "midi": 41,
                    "time": 388.9522000000079,
                    "velocity": 0.28346456692913385,
                    "duration": 0.18090799999998808
                },
                {
                    "name": "A2",
                    "midi": 45,
                    "time": 389.1331080000079,
                    "velocity": 0.23622047244094488,
                    "duration": 0.18090799999998808
                },
                {
                    "name": "C3",
                    "midi": 48,
                    "time": 389.1331080000079,
                    "velocity": 0.23622047244094488,
                    "duration": 0.18090799999998808
                },
                {
                    "name": "F3",
                    "midi": 53,
                    "time": 389.1331080000079,
                    "velocity": 0.30708661417322836,
                    "duration": 0.18090799999998808
                },
                {
                    "name": "F2",
                    "midi": 41,
                    "time": 389.3140160000079,
                    "velocity": 0.29133858267716534,
                    "duration": 0.18090799999998808
                },
                {
                    "name": "C3",
                    "midi": 48,
                    "time": 389.49492400000787,
                    "velocity": 0.2283464566929134,
                    "duration": 0.18090799999998808
                },
                {
                    "name": "F3",
                    "midi": 53,
                    "time": 389.49492400000787,
                    "velocity": 0.2992125984251969,
                    "duration": 0.18090799999998808
                },
                {
                    "name": "A2",
                    "midi": 45,
                    "time": 389.49492400000787,
                    "velocity": 0.2283464566929134,
                    "duration": 0.18090799999998808
                },
                {
                    "name": "G2",
                    "midi": 43,
                    "time": 389.67583200000786,
                    "velocity": 0.31496062992125984,
                    "duration": 0.18090799999998808
                },
                {
                    "name": "A#2",
                    "midi": 46,
                    "time": 389.85674000000785,
                    "velocity": 0.2283464566929134,
                    "duration": 0.18090799999998808
                },
                {
                    "name": "C3",
                    "midi": 48,
                    "time": 389.85674000000785,
                    "velocity": 0.2283464566929134,
                    "duration": 0.18090799999998808
                },
                {
                    "name": "G3",
                    "midi": 55,
                    "time": 389.85674000000785,
                    "velocity": 0.2992125984251969,
                    "duration": 0.18090799999998808
                },
                {
                    "name": "G2",
                    "midi": 43,
                    "time": 390.03764800000783,
                    "velocity": 0.30708661417322836,
                    "duration": 0.18090799999998808
                },
                {
                    "name": "A#2",
                    "midi": 46,
                    "time": 390.2185560000078,
                    "velocity": 0.2677165354330709,
                    "duration": 0.18090799999998808
                },
                {
                    "name": "G3",
                    "midi": 55,
                    "time": 390.2185560000078,
                    "velocity": 0.33070866141732286,
                    "duration": 0.18090799999998808
                },
                {
                    "name": "C3",
                    "midi": 48,
                    "time": 390.2185560000078,
                    "velocity": 0.2677165354330709,
                    "duration": 0.18090799999998808
                },
                {
                    "name": "G2",
                    "midi": 43,
                    "time": 390.3994640000078,
                    "velocity": 0.31496062992125984,
                    "duration": 0.18090799999998808
                },
                {
                    "name": "C3",
                    "midi": 48,
                    "time": 390.5803720000078,
                    "velocity": 0.25984251968503935,
                    "duration": 0.18090799999998808
                },
                {
                    "name": "G3",
                    "midi": 55,
                    "time": 390.5803720000078,
                    "velocity": 0.33070866141732286,
                    "duration": 0.18090799999998808
                },
                {
                    "name": "A#2",
                    "midi": 46,
                    "time": 390.5803720000078,
                    "velocity": 0.25984251968503935,
                    "duration": 0.18090799999998808
                },
                {
                    "name": "A3",
                    "midi": 57,
                    "time": 390.7612800000078,
                    "velocity": 0.28346456692913385,
                    "duration": 2.1708960000000275
                },
                {
                    "name": "C3",
                    "midi": 48,
                    "time": 390.7612800000078,
                    "velocity": 0.2204724409448819,
                    "duration": 2.1708960000000275
                },
                {
                    "name": "A2",
                    "midi": 45,
                    "time": 390.7612800000078,
                    "velocity": 0.2204724409448819,
                    "duration": 2.1708960000000275
                },
                {
                    "name": "F3",
                    "midi": 53,
                    "time": 390.7612800000078,
                    "velocity": 0.28346456692913385,
                    "duration": 2.1708960000000275
                },
                {
                    "name": "C#3",
                    "midi": 49,
                    "time": 392.9321760000078,
                    "velocity": 0.3937007874015748,
                    "duration": 2.1708960000000275
                },
                {
                    "name": "F3",
                    "midi": 53,
                    "time": 392.9321760000078,
                    "velocity": 0.4645669291338583,
                    "duration": 0.5427240000000211
                },
                {
                    "name": "A#2",
                    "midi": 46,
                    "time": 392.9321760000078,
                    "velocity": 0.3937007874015748,
                    "duration": 2.1708960000000275
                },
                {
                    "name": "F#3",
                    "midi": 54,
                    "time": 393.47490000000784,
                    "velocity": 0.44881889763779526,
                    "duration": 1.6281720000000064
                },
                {
                    "name": "C3",
                    "midi": 48,
                    "time": 395.10307200000784,
                    "velocity": 0.2204724409448819,
                    "duration": 2.1708960000000275
                },
                {
                    "name": "G#3",
                    "midi": 56,
                    "time": 395.10307200000784,
                    "velocity": 0.28346456692913385,
                    "duration": 2.1708960000000275
                },
                {
                    "name": "F3",
                    "midi": 53,
                    "time": 395.10307200000784,
                    "velocity": 0.28346456692913385,
                    "duration": 2.1708960000000275
                },
                {
                    "name": "C3",
                    "midi": 48,
                    "time": 397.27396800000787,
                    "velocity": 0.1968503937007874,
                    "duration": 2.1708960000000275
                },
                {
                    "name": "E3",
                    "midi": 52,
                    "time": 397.27396800000787,
                    "velocity": 0.2440944881889764,
                    "duration": 2.1708960000000275
                },
                {
                    "name": "A#3",
                    "midi": 58,
                    "time": 397.27396800000787,
                    "velocity": 0.2440944881889764,
                    "duration": 2.1708960000000275
                },
                {
                    "name": "G#3",
                    "midi": 56,
                    "time": 407.5857240000079,
                    "velocity": 0.2677165354330709,
                    "duration": 0.18090799999998808
                },
                {
                    "name": "G3",
                    "midi": 55,
                    "time": 407.76663200000786,
                    "velocity": 0.2755905511811024,
                    "duration": 0.18090799999998808
                },
                {
                    "name": "F#3",
                    "midi": 54,
                    "time": 407.94754000000785,
                    "velocity": 0.25984251968503935,
                    "duration": 0.18090799999998808
                },
                {
                    "name": "F3",
                    "midi": 53,
                    "time": 408.12844800000784,
                    "velocity": 0.2677165354330709,
                    "duration": 0.18090799999998808
                },
                {
                    "name": "E3",
                    "midi": 52,
                    "time": 408.3093560000078,
                    "velocity": 0.25984251968503935,
                    "duration": 0.18090799999998808
                },
                {
                    "name": "D#3",
                    "midi": 51,
                    "time": 408.4902640000078,
                    "velocity": 0.25984251968503935,
                    "duration": 0.18090799999998808
                },
                {
                    "name": "C#3",
                    "midi": 49,
                    "time": 408.6711720000078,
                    "velocity": 0.25984251968503935,
                    "duration": 0.18090799999998808
                },
                {
                    "name": "C3",
                    "midi": 48,
                    "time": 408.8520800000078,
                    "velocity": 0.25196850393700787,
                    "duration": 0.18090799999998808
                },
                {
                    "name": "A#2",
                    "midi": 46,
                    "time": 409.0329880000078,
                    "velocity": 0.25196850393700787,
                    "duration": 0.18090799999998808
                },
                {
                    "name": "G#2",
                    "midi": 44,
                    "time": 409.21389600000776,
                    "velocity": 0.2677165354330709,
                    "duration": 0.18090799999998808
                },
                {
                    "name": "G2",
                    "midi": 43,
                    "time": 409.39480400000775,
                    "velocity": 0.25984251968503935,
                    "duration": 0.18090799999998808
                },
                {
                    "name": "F#2",
                    "midi": 42,
                    "time": 409.57571200000774,
                    "velocity": 0.25984251968503935,
                    "duration": 0.18090799999998808
                },
                {
                    "name": "F2",
                    "midi": 41,
                    "time": 409.75662000000773,
                    "velocity": 0.25984251968503935,
                    "duration": 0.18090799999998808
                },
                {
                    "name": "E2",
                    "midi": 40,
                    "time": 409.9375280000077,
                    "velocity": 0.25984251968503935,
                    "duration": 0.18090799999998808
                },
                {
                    "name": "D#2",
                    "midi": 39,
                    "time": 410.1184360000077,
                    "velocity": 0.25984251968503935,
                    "duration": 0.18090799999998808
                },
                {
                    "name": "C#2",
                    "midi": 37,
                    "time": 410.2993440000077,
                    "velocity": 0.2677165354330709,
                    "duration": 0.18090799999998808
                },
                {
                    "name": "C2",
                    "midi": 36,
                    "time": 410.4802520000077,
                    "velocity": 0.2677165354330709,
                    "duration": 0.18090799999998808
                },
                {
                    "name": "A#1",
                    "midi": 34,
                    "time": 410.66116000000767,
                    "velocity": 0.2677165354330709,
                    "duration": 0.18090799999998808
                },
                {
                    "name": "G#1",
                    "midi": 32,
                    "time": 410.84206800000766,
                    "velocity": 0.2677165354330709,
                    "duration": 0.18090799999998808
                },
                {
                    "name": "G1",
                    "midi": 31,
                    "time": 411.02297600000765,
                    "velocity": 0.25984251968503935,
                    "duration": 0.18090799999998808
                },
                {
                    "name": "G#1",
                    "midi": 32,
                    "time": 411.20388400000763,
                    "velocity": 0.2440944881889764,
                    "duration": 0.18090799999998808
                },
                {
                    "name": "A#1",
                    "midi": 34,
                    "time": 411.3847920000076,
                    "velocity": 0.2677165354330709,
                    "duration": 0.18090799999998808
                },
                {
                    "name": "C2",
                    "midi": 36,
                    "time": 411.5657000000076,
                    "velocity": 0.25984251968503935,
                    "duration": 0.18090799999998808
                },
                {
                    "name": "B1",
                    "midi": 35,
                    "time": 411.7466080000076,
                    "velocity": 0.25984251968503935,
                    "duration": 0.18090799999998808
                },
                {
                    "name": "C2",
                    "midi": 36,
                    "time": 411.9275160000076,
                    "velocity": 0.28346456692913385,
                    "duration": 0.18090799999998808
                },
                {
                    "name": "B1",
                    "midi": 35,
                    "time": 412.1084240000076,
                    "velocity": 0.2677165354330709,
                    "duration": 0.18090799999998808
                },
                {
                    "name": "C2",
                    "midi": 36,
                    "time": 412.28933200000756,
                    "velocity": 0.25984251968503935,
                    "duration": 0.18090799999998808
                },
                {
                    "name": "F1",
                    "midi": 29,
                    "time": 412.47024000000755,
                    "velocity": 0.5039370078740157,
                    "duration": 0.09045400000002246
                },
                {
                    "name": "C2",
                    "midi": 36,
                    "time": 412.5606940000076,
                    "velocity": 0.4094488188976378,
                    "duration": 0.09045400000002246
                },
                {
                    "name": "F2",
                    "midi": 41,
                    "time": 412.6511480000076,
                    "velocity": 0.4094488188976378,
                    "duration": 0.09045400000002246
                },
                {
                    "name": "C2",
                    "midi": 36,
                    "time": 412.7416020000076,
                    "velocity": 0.4094488188976378,
                    "duration": 0.09045400000002246
                },
                {
                    "name": "F1",
                    "midi": 29,
                    "time": 412.83205600000764,
                    "velocity": 0.4566929133858268,
                    "duration": 0.09045400000002246
                },
                {
                    "name": "C2",
                    "midi": 36,
                    "time": 412.92251000000766,
                    "velocity": 0.4015748031496063,
                    "duration": 0.09045400000002246
                },
                {
                    "name": "F1",
                    "midi": 29,
                    "time": 413.0129640000077,
                    "velocity": 0.5354330708661418,
                    "duration": 0.09045400000002246
                },
                {
                    "name": "C2",
                    "midi": 36,
                    "time": 413.1034180000077,
                    "velocity": 0.4094488188976378,
                    "duration": 0.09045400000002246
                },
                {
                    "name": "F1",
                    "midi": 29,
                    "time": 413.19387200000773,
                    "velocity": 0.5039370078740157,
                    "duration": 0.09045400000002246
                },
                {
                    "name": "C2",
                    "midi": 36,
                    "time": 413.28432600000775,
                    "velocity": 0.4094488188976378,
                    "duration": 0.09045400000002246
                },
                {
                    "name": "F1",
                    "midi": 29,
                    "time": 413.3747800000078,
                    "velocity": 0.4881889763779528,
                    "duration": 0.09045400000002246
                },
                {
                    "name": "C2",
                    "midi": 36,
                    "time": 413.4652340000078,
                    "velocity": 0.4094488188976378,
                    "duration": 0.09045400000002246
                },
                {
                    "name": "F1",
                    "midi": 29,
                    "time": 413.5556880000078,
                    "velocity": 0.5039370078740157,
                    "duration": 0.09045400000002246
                },
                {
                    "name": "C2",
                    "midi": 36,
                    "time": 413.64614200000784,
                    "velocity": 0.4094488188976378,
                    "duration": 0.09045400000002246
                },
                {
                    "name": "F2",
                    "midi": 41,
                    "time": 413.73659600000786,
                    "velocity": 0.4094488188976378,
                    "duration": 0.09045400000002246
                },
                {
                    "name": "C2",
                    "midi": 36,
                    "time": 413.8270500000079,
                    "velocity": 0.4094488188976378,
                    "duration": 0.09045400000002246
                },
                {
                    "name": "F1",
                    "midi": 29,
                    "time": 413.9175040000079,
                    "velocity": 0.4566929133858268,
                    "duration": 0.09045400000002246
                },
                {
                    "name": "C2",
                    "midi": 36,
                    "time": 414.00795800000793,
                    "velocity": 0.4015748031496063,
                    "duration": 0.09045400000002246
                },
                {
                    "name": "F1",
                    "midi": 29,
                    "time": 414.09841200000795,
                    "velocity": 0.5354330708661418,
                    "duration": 0.09045400000002246
                },
                {
                    "name": "C2",
                    "midi": 36,
                    "time": 414.188866000008,
                    "velocity": 0.4094488188976378,
                    "duration": 0.09045400000002246
                },
                {
                    "name": "F1",
                    "midi": 29,
                    "time": 414.279320000008,
                    "velocity": 0.5039370078740157,
                    "duration": 0.09045400000002246
                },
                {
                    "name": "C2",
                    "midi": 36,
                    "time": 414.369774000008,
                    "velocity": 0.4094488188976378,
                    "duration": 0.09045400000002246
                },
                {
                    "name": "F1",
                    "midi": 29,
                    "time": 414.46022800000804,
                    "velocity": 0.4881889763779528,
                    "duration": 0.09045400000002246
                },
                {
                    "name": "C2",
                    "midi": 36,
                    "time": 414.55068200000807,
                    "velocity": 0.4094488188976378,
                    "duration": 0.09045400000002246
                },
                {
                    "name": "F1",
                    "midi": 29,
                    "time": 414.6411360000081,
                    "velocity": 0.5039370078740157,
                    "duration": 0.09045400000002246
                },
                {
                    "name": "C#2",
                    "midi": 37,
                    "time": 414.7315900000081,
                    "velocity": 0.4094488188976378,
                    "duration": 0.09045400000002246
                },
                {
                    "name": "F2",
                    "midi": 41,
                    "time": 414.82204400000813,
                    "velocity": 0.4094488188976378,
                    "duration": 0.09045400000002246
                },
                {
                    "name": "C#2",
                    "midi": 37,
                    "time": 414.91249800000816,
                    "velocity": 0.4094488188976378,
                    "duration": 0.09045400000002246
                },
                {
                    "name": "F1",
                    "midi": 29,
                    "time": 415.0029520000082,
                    "velocity": 0.4566929133858268,
                    "duration": 0.09045400000002246
                },
                {
                    "name": "C#2",
                    "midi": 37,
                    "time": 415.0934060000082,
                    "velocity": 0.4015748031496063,
                    "duration": 0.09045400000002246
                },
                {
                    "name": "F1",
                    "midi": 29,
                    "time": 415.1838600000082,
                    "velocity": 0.5354330708661418,
                    "duration": 0.09045400000002246
                },
                {
                    "name": "C#2",
                    "midi": 37,
                    "time": 415.27431400000825,
                    "velocity": 0.4094488188976378,
                    "duration": 0.09045400000002246
                },
                {
                    "name": "F1",
                    "midi": 29,
                    "time": 415.36476800000827,
                    "velocity": 0.5039370078740157,
                    "duration": 0.09045400000002246
                },
                {
                    "name": "C#2",
                    "midi": 37,
                    "time": 415.4552220000083,
                    "velocity": 0.4094488188976378,
                    "duration": 0.09045400000002246
                },
                {
                    "name": "F1",
                    "midi": 29,
                    "time": 415.5456760000083,
                    "velocity": 0.4881889763779528,
                    "duration": 0.09045400000002246
                },
                {
                    "name": "C#2",
                    "midi": 37,
                    "time": 415.63613000000834,
                    "velocity": 0.4094488188976378,
                    "duration": 0.09045400000002246
                },
                {
                    "name": "F1",
                    "midi": 29,
                    "time": 415.72658400000836,
                    "velocity": 0.5039370078740157,
                    "duration": 0.09045400000002246
                },
                {
                    "name": "C#2",
                    "midi": 37,
                    "time": 415.8170380000084,
                    "velocity": 0.4094488188976378,
                    "duration": 0.09045400000002246
                },
                {
                    "name": "F2",
                    "midi": 41,
                    "time": 415.9074920000084,
                    "velocity": 0.4094488188976378,
                    "duration": 0.09045400000002246
                },
                {
                    "name": "C#2",
                    "midi": 37,
                    "time": 415.9979460000084,
                    "velocity": 0.4094488188976378,
                    "duration": 0.09045400000002246
                },
                {
                    "name": "F1",
                    "midi": 29,
                    "time": 416.08840000000845,
                    "velocity": 0.4566929133858268,
                    "duration": 0.09045400000002246
                },
                {
                    "name": "C#2",
                    "midi": 37,
                    "time": 416.17885400000847,
                    "velocity": 0.4015748031496063,
                    "duration": 0.09045400000002246
                },
                {
                    "name": "F1",
                    "midi": 29,
                    "time": 416.2693080000085,
                    "velocity": 0.5354330708661418,
                    "duration": 0.09045400000002246
                },
                {
                    "name": "C#2",
                    "midi": 37,
                    "time": 416.3597620000085,
                    "velocity": 0.4094488188976378,
                    "duration": 0.09045400000002246
                },
                {
                    "name": "F1",
                    "midi": 29,
                    "time": 416.45021600000854,
                    "velocity": 0.5039370078740157,
                    "duration": 0.09045400000002246
                },
                {
                    "name": "C#2",
                    "midi": 37,
                    "time": 416.54067000000856,
                    "velocity": 0.4094488188976378,
                    "duration": 0.09045400000002246
                },
                {
                    "name": "F1",
                    "midi": 29,
                    "time": 416.6311240000086,
                    "velocity": 0.4881889763779528,
                    "duration": 0.09045400000002246
                },
                {
                    "name": "C#2",
                    "midi": 37,
                    "time": 416.7215780000086,
                    "velocity": 0.4094488188976378,
                    "duration": 0.09045400000002246
                },
                {
                    "name": "F#2",
                    "midi": 42,
                    "time": 416.8120320000086,
                    "velocity": 0.84251968503937,
                    "duration": 1.6281720000000064
                },
                {
                    "name": "F#1",
                    "midi": 30,
                    "time": 416.8120320000086,
                    "velocity": 0.7165354330708661,
                    "duration": 1.6281720000000064
                },
                {
                    "name": "G1",
                    "midi": 31,
                    "time": 418.44020400000863,
                    "velocity": 0.5826771653543307,
                    "duration": 0.18090799999998808
                },
                {
                    "name": "G2",
                    "midi": 43,
                    "time": 418.44020400000863,
                    "velocity": 0.6929133858267716,
                    "duration": 0.18090799999998808
                },
                {
                    "name": "A#1",
                    "midi": 34,
                    "time": 418.6211120000086,
                    "velocity": 0.5669291338582677,
                    "duration": 0.18090799999998808
                },
                {
                    "name": "C#2",
                    "midi": 37,
                    "time": 418.8020200000086,
                    "velocity": 0.6456692913385826,
                    "duration": 0.18090799999998808
                },
                {
                    "name": "E2",
                    "midi": 40,
                    "time": 418.9829280000086,
                    "velocity": 0.7480314960629921,
                    "duration": 0.18090799999998808
                },
                {
                    "name": "G2",
                    "midi": 43,
                    "time": 419.1638360000086,
                    "velocity": 0.6456692913385826,
                    "duration": 0.18090799999998808
                },
                {
                    "name": "A#2",
                    "midi": 46,
                    "time": 419.3447440000086,
                    "velocity": 0.6456692913385826,
                    "duration": 0.18090799999998808
                },
                {
                    "name": "C#3",
                    "midi": 49,
                    "time": 419.52565200000856,
                    "velocity": 0.6692913385826772,
                    "duration": 0.1733701666666434
                },
                {
                    "name": "C#3",
                    "midi": 49,
                    "time": 419.70656000000855,
                    "velocity": 0.6535433070866141,
                    "duration": 0.1733701666666434
                },
                {
                    "name": "C#3",
                    "midi": 49,
                    "time": 419.88746800000854,
                    "velocity": 0.6535433070866141,
                    "duration": 0.1733701666666434
                },
                {
                    "name": "C#3",
                    "midi": 49,
                    "time": 420.0683760000085,
                    "velocity": 0.7637795275590551,
                    "duration": 0.5427240000000211
                },
                {
                    "name": "C3",
                    "midi": 48,
                    "time": 420.61110000000855,
                    "velocity": 0.7007874015748031,
                    "duration": 0.5427240000000211
                },
                {
                    "name": "F2",
                    "midi": 41,
                    "time": 421.15382400000857,
                    "velocity": 0.5039370078740157,
                    "duration": 0.09045400000002246
                },
                {
                    "name": "C3",
                    "midi": 48,
                    "time": 421.2442780000086,
                    "velocity": 0.4094488188976378,
                    "duration": 0.09045400000002246
                },
                {
                    "name": "F3",
                    "midi": 53,
                    "time": 421.3347320000086,
                    "velocity": 0.4094488188976378,
                    "duration": 0.09045400000002246
                },
                {
                    "name": "C3",
                    "midi": 48,
                    "time": 421.42518600000864,
                    "velocity": 0.4094488188976378,
                    "duration": 0.09045400000002246
                },
                {
                    "name": "F2",
                    "midi": 41,
                    "time": 421.51564000000866,
                    "velocity": 0.4566929133858268,
                    "duration": 0.09045400000002246
                },
                {
                    "name": "C3",
                    "midi": 48,
                    "time": 421.6060940000087,
                    "velocity": 0.4015748031496063,
                    "duration": 0.09045400000002246
                },
                {
                    "name": "F2",
                    "midi": 41,
                    "time": 421.6965480000087,
                    "velocity": 0.5354330708661418,
                    "duration": 0.09045400000002246
                },
                {
                    "name": "C3",
                    "midi": 48,
                    "time": 421.7870020000087,
                    "velocity": 0.4094488188976378,
                    "duration": 0.09045400000002246
                },
                {
                    "name": "F2",
                    "midi": 41,
                    "time": 421.87745600000875,
                    "velocity": 0.5039370078740157,
                    "duration": 0.09045400000002246
                },
                {
                    "name": "C3",
                    "midi": 48,
                    "time": 421.96791000000877,
                    "velocity": 0.4094488188976378,
                    "duration": 0.09045400000002246
                },
                {
                    "name": "F2",
                    "midi": 41,
                    "time": 422.0583640000088,
                    "velocity": 0.4881889763779528,
                    "duration": 0.09045400000002246
                },
                {
                    "name": "C3",
                    "midi": 48,
                    "time": 422.1488180000088,
                    "velocity": 0.4094488188976378,
                    "duration": 0.09045400000002246
                },
                {
                    "name": "F2",
                    "midi": 41,
                    "time": 422.23927200000884,
                    "velocity": 0.5039370078740157,
                    "duration": 0.09045400000002246
                },
                {
                    "name": "C3",
                    "midi": 48,
                    "time": 422.32972600000886,
                    "velocity": 0.4094488188976378,
                    "duration": 0.09045400000002246
                },
                {
                    "name": "F3",
                    "midi": 53,
                    "time": 422.4201800000089,
                    "velocity": 0.4094488188976378,
                    "duration": 0.09045400000002246
                },
                {
                    "name": "C3",
                    "midi": 48,
                    "time": 422.5106340000089,
                    "velocity": 0.4094488188976378,
                    "duration": 0.09045400000002246
                },
                {
                    "name": "F2",
                    "midi": 41,
                    "time": 422.60108800000893,
                    "velocity": 0.4566929133858268,
                    "duration": 0.09045400000002246
                },
                {
                    "name": "C3",
                    "midi": 48,
                    "time": 422.69154200000895,
                    "velocity": 0.4015748031496063,
                    "duration": 0.09045400000002246
                },
                {
                    "name": "F2",
                    "midi": 41,
                    "time": 422.781996000009,
                    "velocity": 0.5354330708661418,
                    "duration": 0.09045400000002246
                },
                {
                    "name": "C3",
                    "midi": 48,
                    "time": 422.872450000009,
                    "velocity": 0.4094488188976378,
                    "duration": 0.09045400000002246
                },
                {
                    "name": "F2",
                    "midi": 41,
                    "time": 422.962904000009,
                    "velocity": 0.5039370078740157,
                    "duration": 0.09045400000002246
                },
                {
                    "name": "C3",
                    "midi": 48,
                    "time": 423.05335800000904,
                    "velocity": 0.4094488188976378,
                    "duration": 0.09045400000002246
                },
                {
                    "name": "F2",
                    "midi": 41,
                    "time": 423.14381200000906,
                    "velocity": 0.4881889763779528,
                    "duration": 0.09045400000002246
                },
                {
                    "name": "C3",
                    "midi": 48,
                    "time": 423.2342660000091,
                    "velocity": 0.4094488188976378,
                    "duration": 0.09045400000002246
                },
                {
                    "name": "F2",
                    "midi": 41,
                    "time": 423.3247200000091,
                    "velocity": 0.5039370078740157,
                    "duration": 0.09045400000002246
                },
                {
                    "name": "C#3",
                    "midi": 49,
                    "time": 423.41517400000913,
                    "velocity": 0.4094488188976378,
                    "duration": 0.09045400000002246
                },
                {
                    "name": "F3",
                    "midi": 53,
                    "time": 423.50562800000915,
                    "velocity": 0.4094488188976378,
                    "duration": 0.09045400000002246
                },
                {
                    "name": "C#3",
                    "midi": 49,
                    "time": 423.5960820000092,
                    "velocity": 0.4094488188976378,
                    "duration": 0.09045400000002246
                },
                {
                    "name": "F2",
                    "midi": 41,
                    "time": 423.6865360000092,
                    "velocity": 0.4566929133858268,
                    "duration": 0.09045400000002246
                },
                {
                    "name": "C#3",
                    "midi": 49,
                    "time": 423.7769900000092,
                    "velocity": 0.4015748031496063,
                    "duration": 0.09045400000002246
                },
                {
                    "name": "F2",
                    "midi": 41,
                    "time": 423.86744400000924,
                    "velocity": 0.5354330708661418,
                    "duration": 0.09045400000002246
                },
                {
                    "name": "C#3",
                    "midi": 49,
                    "time": 423.95789800000927,
                    "velocity": 0.4094488188976378,
                    "duration": 0.09045400000002246
                },
                {
                    "name": "F2",
                    "midi": 41,
                    "time": 424.0483520000093,
                    "velocity": 0.5039370078740157,
                    "duration": 0.09045400000002246
                },
                {
                    "name": "C#3",
                    "midi": 49,
                    "time": 424.1388060000093,
                    "velocity": 0.4094488188976378,
                    "duration": 0.09045400000002246
                },
                {
                    "name": "F2",
                    "midi": 41,
                    "time": 424.22926000000933,
                    "velocity": 0.4881889763779528,
                    "duration": 0.09045400000002246
                },
                {
                    "name": "C#3",
                    "midi": 49,
                    "time": 424.31971400000936,
                    "velocity": 0.4094488188976378,
                    "duration": 0.09045400000002246
                },
                {
                    "name": "F2",
                    "midi": 41,
                    "time": 424.4101680000094,
                    "velocity": 0.5039370078740157,
                    "duration": 0.09045400000002246
                },
                {
                    "name": "C#3",
                    "midi": 49,
                    "time": 424.5006220000094,
                    "velocity": 0.4094488188976378,
                    "duration": 0.09045400000002246
                },
                {
                    "name": "F3",
                    "midi": 53,
                    "time": 424.5910760000094,
                    "velocity": 0.4094488188976378,
                    "duration": 0.09045400000002246
                },
                {
                    "name": "C#3",
                    "midi": 49,
                    "time": 424.68153000000945,
                    "velocity": 0.4094488188976378,
                    "duration": 0.09045400000002246
                },
                {
                    "name": "F2",
                    "midi": 41,
                    "time": 424.77198400000947,
                    "velocity": 0.4566929133858268,
                    "duration": 0.09045400000002246
                },
                {
                    "name": "C#3",
                    "midi": 49,
                    "time": 424.8624380000095,
                    "velocity": 0.4015748031496063,
                    "duration": 0.09045400000002246
                },
                {
                    "name": "F2",
                    "midi": 41,
                    "time": 424.9528920000095,
                    "velocity": 0.5354330708661418,
                    "duration": 0.09045400000002246
                },
                {
                    "name": "C#3",
                    "midi": 49,
                    "time": 425.04334600000954,
                    "velocity": 0.4094488188976378,
                    "duration": 0.09045400000002246
                },
                {
                    "name": "F2",
                    "midi": 41,
                    "time": 425.13380000000956,
                    "velocity": 0.5039370078740157,
                    "duration": 0.09045400000002246
                },
                {
                    "name": "C#3",
                    "midi": 49,
                    "time": 425.2242540000096,
                    "velocity": 0.4094488188976378,
                    "duration": 0.09045400000002246
                },
                {
                    "name": "F2",
                    "midi": 41,
                    "time": 425.3147080000096,
                    "velocity": 0.4881889763779528,
                    "duration": 0.09045400000002246
                },
                {
                    "name": "C#3",
                    "midi": 49,
                    "time": 425.4051620000096,
                    "velocity": 0.4094488188976378,
                    "duration": 0.09045400000002246
                },
                {
                    "name": "F#2",
                    "midi": 42,
                    "time": 425.49561600000965,
                    "velocity": 0.7086614173228346,
                    "duration": 1.6281720000000064
                },
                {
                    "name": "F#3",
                    "midi": 54,
                    "time": 425.49561600000965,
                    "velocity": 0.8346456692913385,
                    "duration": 1.6281720000000064
                },
                {
                    "name": "G3",
                    "midi": 55,
                    "time": 427.12378800000965,
                    "velocity": 0.6929133858267716,
                    "duration": 0.18090799999998808
                },
                {
                    "name": "G2",
                    "midi": 43,
                    "time": 427.12378800000965,
                    "velocity": 0.4645669291338583,
                    "duration": 0.18090799999998808
                },
                {
                    "name": "A#2",
                    "midi": 46,
                    "time": 427.30469600000964,
                    "velocity": 0.4566929133858268,
                    "duration": 0.18090799999998808
                },
                {
                    "name": "A#3",
                    "midi": 58,
                    "time": 427.30469600000964,
                    "velocity": 0.5669291338582677,
                    "duration": 0.18090799999998808
                },
                {
                    "name": "C#3",
                    "midi": 49,
                    "time": 427.48560400000963,
                    "velocity": 0.49606299212598426,
                    "duration": 0.18090799999998808
                },
                {
                    "name": "C#4",
                    "midi": 61,
                    "time": 427.48560400000963,
                    "velocity": 0.6456692913385826,
                    "duration": 0.18090799999998808
                },
                {
                    "name": "E4",
                    "midi": 64,
                    "time": 427.6665120000096,
                    "velocity": 0.7480314960629921,
                    "duration": 0.18090799999998808
                },
                {
                    "name": "E3",
                    "midi": 52,
                    "time": 427.6665120000096,
                    "velocity": 0.5905511811023622,
                    "duration": 0.18090799999998808
                },
                {
                    "name": "G3",
                    "midi": 55,
                    "time": 427.8474200000096,
                    "velocity": 0.49606299212598426,
                    "duration": 0.18090799999998808
                },
                {
                    "name": "G4",
                    "midi": 67,
                    "time": 427.8474200000096,
                    "velocity": 0.6456692913385826,
                    "duration": 0.18090799999998808
                },
                {
                    "name": "A#3",
                    "midi": 58,
                    "time": 428.0283280000096,
                    "velocity": 0.49606299212598426,
                    "duration": 0.18090799999998808
                },
                {
                    "name": "A#4",
                    "midi": 70,
                    "time": 428.0283280000096,
                    "velocity": 0.6456692913385826,
                    "duration": 0.18090799999998808
                },
                {
                    "name": "C#5",
                    "midi": 73,
                    "time": 428.2092360000096,
                    "velocity": 0.6692913385826772,
                    "duration": 0.1733701666666434
                },
                {
                    "name": "C#4",
                    "midi": 61,
                    "time": 428.2092360000096,
                    "velocity": 0.5354330708661418,
                    "duration": 0.1733701666666434
                },
                {
                    "name": "C#4",
                    "midi": 61,
                    "time": 428.39014400000957,
                    "velocity": 0.5039370078740157,
                    "duration": 0.1733701666666434
                },
                {
                    "name": "C#5",
                    "midi": 73,
                    "time": 428.39014400000957,
                    "velocity": 0.6535433070866141,
                    "duration": 0.1733701666666434
                },
                {
                    "name": "C#4",
                    "midi": 61,
                    "time": 428.57105200000956,
                    "velocity": 0.5039370078740157,
                    "duration": 0.1733701666666434
                },
                {
                    "name": "C#5",
                    "midi": 73,
                    "time": 428.57105200000956,
                    "velocity": 0.6535433070866141,
                    "duration": 0.1733701666666434
                },
                {
                    "name": "C#5",
                    "midi": 73,
                    "time": 428.75196000000955,
                    "velocity": 0.8031496062992126,
                    "duration": 0.5427240000000211
                },
                {
                    "name": "C#4",
                    "midi": 61,
                    "time": 428.75196000000955,
                    "velocity": 0.6299212598425197,
                    "duration": 0.5427240000000211
                },
                {
                    "name": "C4",
                    "midi": 60,
                    "time": 429.29468400000957,
                    "velocity": 0.5433070866141733,
                    "duration": 0.5427240000000211
                },
                {
                    "name": "C5",
                    "midi": 72,
                    "time": 429.29468400000957,
                    "velocity": 0.6771653543307087,
                    "duration": 0.5427240000000211
                },
                {
                    "name": "F4",
                    "midi": 65,
                    "time": 429.8374080000096,
                    "velocity": 0.8031496062992126,
                    "duration": 0.5427240000000211
                },
                {
                    "name": "E4",
                    "midi": 64,
                    "time": 430.3801320000096,
                    "velocity": 0.6771653543307087,
                    "duration": 0.5427240000000211
                },
                {
                    "name": "C#5",
                    "midi": 73,
                    "time": 430.92285600000963,
                    "velocity": 0.8031496062992126,
                    "duration": 0.5427240000000211
                },
                {
                    "name": "C5",
                    "midi": 72,
                    "time": 431.46558000000965,
                    "velocity": 0.6771653543307087,
                    "duration": 0.5427240000000211
                },
                {
                    "name": "B4",
                    "midi": 71,
                    "time": 432.0083040000097,
                    "velocity": 0.7637795275590551,
                    "duration": 1.0854480000000422
                },
                {
                    "name": "D5",
                    "midi": 74,
                    "time": 432.0987580000097,
                    "velocity": 0.7165354330708661,
                    "duration": 0.9949940000000197
                },
                {
                    "name": "F5",
                    "midi": 77,
                    "time": 432.1892120000097,
                    "velocity": 0.7480314960629921,
                    "duration": 0.9045399999999972
                },
                {
                    "name": "G#5",
                    "midi": 80,
                    "time": 432.27966600000974,
                    "velocity": 0.6850393700787402,
                    "duration": 0.8140859999999748
                },
                {
                    "name": "C5",
                    "midi": 72,
                    "time": 433.0937520000097,
                    "velocity": 0.6692913385826772,
                    "duration": 1.0854480000000422
                },
                {
                    "name": "E5",
                    "midi": 76,
                    "time": 433.18420600000974,
                    "velocity": 0.6062992125984252,
                    "duration": 0.9949940000000197
                },
                {
                    "name": "G5",
                    "midi": 79,
                    "time": 433.27466000000976,
                    "velocity": 0.6062992125984252,
                    "duration": 0.9045399999999972
                },
                {
                    "name": "G#4",
                    "midi": 68,
                    "time": 434.17920000000976,
                    "velocity": 0.3228346456692913,
                    "duration": 0.5427240000000211
                },
                {
                    "name": "F4",
                    "midi": 65,
                    "time": 434.17920000000976,
                    "velocity": 0.3228346456692913,
                    "duration": 0.5427240000000211
                },
                {
                    "name": "C#5",
                    "midi": 73,
                    "time": 434.7219240000098,
                    "velocity": 0.31496062992125984,
                    "duration": 0.5427240000000211
                },
                {
                    "name": "A#4",
                    "midi": 70,
                    "time": 434.7219240000098,
                    "velocity": 0.31496062992125984,
                    "duration": 0.5427240000000211
                },
                {
                    "name": "C5",
                    "midi": 72,
                    "time": 435.2646480000098,
                    "velocity": 0.3228346456692913,
                    "duration": 0.5427240000000211
                },
                {
                    "name": "G#4",
                    "midi": 68,
                    "time": 435.2646480000098,
                    "velocity": 0.3228346456692913,
                    "duration": 0.5427240000000211
                },
                {
                    "name": "C5",
                    "midi": 72,
                    "time": 435.8073720000098,
                    "velocity": 0.4330708661417323,
                    "duration": 0.5427240000000211
                },
                {
                    "name": "A#4",
                    "midi": 70,
                    "time": 435.8073720000098,
                    "velocity": 0.4330708661417323,
                    "duration": 0.5427240000000211
                },
                {
                    "name": "G4",
                    "midi": 67,
                    "time": 435.8073720000098,
                    "velocity": 0.4330708661417323,
                    "duration": 0.5427240000000211
                },
                {
                    "name": "F4",
                    "midi": 65,
                    "time": 436.35009600000984,
                    "velocity": 0.3228346456692913,
                    "duration": 0.5427240000000211
                },
                {
                    "name": "G#4",
                    "midi": 68,
                    "time": 436.35009600000984,
                    "velocity": 0.3228346456692913,
                    "duration": 0.5427240000000211
                },
                {
                    "name": "A#3",
                    "midi": 58,
                    "time": 436.89282000000986,
                    "velocity": 0.31496062992125984,
                    "duration": 0.5427240000000211
                },
                {
                    "name": "C#4",
                    "midi": 61,
                    "time": 436.89282000000986,
                    "velocity": 0.31496062992125984,
                    "duration": 0.5427240000000211
                },
                {
                    "name": "G#3",
                    "midi": 56,
                    "time": 437.4355440000099,
                    "velocity": 0.3228346456692913,
                    "duration": 0.5427240000000211
                },
                {
                    "name": "C4",
                    "midi": 60,
                    "time": 437.4355440000099,
                    "velocity": 0.3228346456692913,
                    "duration": 0.5427240000000211
                },
                {
                    "name": "C4",
                    "midi": 60,
                    "time": 437.9782680000099,
                    "velocity": 0.4330708661417323,
                    "duration": 0.5427240000000211
                },
                {
                    "name": "A#3",
                    "midi": 58,
                    "time": 437.9782680000099,
                    "velocity": 0.4330708661417323,
                    "duration": 0.5427240000000211
                },
                {
                    "name": "G3",
                    "midi": 55,
                    "time": 437.9782680000099,
                    "velocity": 0.4330708661417323,
                    "duration": 0.5427240000000211
                },
                {
                    "name": "F3",
                    "midi": 53,
                    "time": 438.5209920000099,
                    "velocity": 0.3228346456692913,
                    "duration": 0.5427240000000211
                },
                {
                    "name": "G#3",
                    "midi": 56,
                    "time": 438.5209920000099,
                    "velocity": 0.3228346456692913,
                    "duration": 0.5427240000000211
                },
                {
                    "name": "A#2",
                    "midi": 46,
                    "time": 439.06371600000995,
                    "velocity": 0.31496062992125984,
                    "duration": 0.5427240000000211
                },
                {
                    "name": "C#3",
                    "midi": 49,
                    "time": 439.06371600000995,
                    "velocity": 0.31496062992125984,
                    "duration": 0.5427240000000211
                },
                {
                    "name": "G#2",
                    "midi": 44,
                    "time": 439.60644000000997,
                    "velocity": 0.3228346456692913,
                    "duration": 0.5427240000000211
                },
                {
                    "name": "C3",
                    "midi": 48,
                    "time": 439.60644000000997,
                    "velocity": 0.3228346456692913,
                    "duration": 0.5427240000000211
                },
                {
                    "name": "G2",
                    "midi": 43,
                    "time": 440.14916400001,
                    "velocity": 0.4330708661417323,
                    "duration": 0.5427240000000211
                },
                {
                    "name": "A#2",
                    "midi": 46,
                    "time": 440.14916400001,
                    "velocity": 0.4330708661417323,
                    "duration": 0.5427240000000211
                },
                {
                    "name": "C3",
                    "midi": 48,
                    "time": 440.14916400001,
                    "velocity": 0.4330708661417323,
                    "duration": 0.5427240000000211
                },
                {
                    "name": "F2",
                    "midi": 41,
                    "time": 440.69188800001,
                    "velocity": 0.3464566929133858,
                    "duration": 1.0854479999999853
                },
                {
                    "name": "C2",
                    "midi": 36,
                    "time": 441.77733600001,
                    "velocity": 0.28346456692913385,
                    "duration": 0.5427240000000211
                },
                {
                    "name": "G#1",
                    "midi": 32,
                    "time": 442.32006000001,
                    "velocity": 0.23622047244094488,
                    "duration": 0.5427240000000211
                },
                {
                    "name": "F1",
                    "midi": 29,
                    "time": 442.86278400001004,
                    "velocity": 0.1889763779527559,
                    "duration": 1.6281720000000064
                },
                {
                    "name": "G#1",
                    "midi": 32,
                    "time": 444.49095600001004,
                    "velocity": 0.2283464566929134,
                    "duration": 0.4522699999999986
                },
                {
                    "name": "C2",
                    "midi": 36,
                    "time": 444.94322600001004,
                    "velocity": 0.2047244094488189,
                    "duration": 0.09045400000002246
                },
                {
                    "name": "F2",
                    "midi": 41,
                    "time": 445.03368000001007,
                    "velocity": 0.2283464566929134,
                    "duration": 0.5427240000000211
                },
                {
                    "name": "G#2",
                    "midi": 44,
                    "time": 445.5764040000101,
                    "velocity": 0.2283464566929134,
                    "duration": 0.4522699999999986
                },
                {
                    "name": "C3",
                    "midi": 48,
                    "time": 446.0286740000101,
                    "velocity": 0.2047244094488189,
                    "duration": 0.09045400000002246
                },
                {
                    "name": "F3",
                    "midi": 53,
                    "time": 446.1191280000101,
                    "velocity": 0.2283464566929134,
                    "duration": 0.5427240000000211
                },
                {
                    "name": "F2",
                    "midi": 41,
                    "time": 446.66185200001013,
                    "velocity": 0.2204724409448819,
                    "duration": 0.5427240000000211
                },
                {
                    "name": "F#2",
                    "midi": 42,
                    "time": 447.20457600001015,
                    "velocity": 0.2677165354330709,
                    "duration": 1.6281720000000064
                },
                {
                    "name": "C3",
                    "midi": 48,
                    "time": 448.83274800001016,
                    "velocity": 0.25984251968503935,
                    "duration": 0.4522699999999986
                },
                {
                    "name": "D#3",
                    "midi": 51,
                    "time": 449.28501800001015,
                    "velocity": 0.2204724409448819,
                    "duration": 0.09045400000002246
                },
                {
                    "name": "F#3",
                    "midi": 54,
                    "time": 449.3754720000102,
                    "velocity": 0.25984251968503935,
                    "duration": 0.5427240000000211
                },
                {
                    "name": "C4",
                    "midi": 60,
                    "time": 449.9181960000102,
                    "velocity": 0.25984251968503935,
                    "duration": 0.4522699999999986
                },
                {
                    "name": "D#4",
                    "midi": 63,
                    "time": 450.3704660000102,
                    "velocity": 0.2204724409448819,
                    "duration": 0.09045400000002246
                },
                {
                    "name": "F#4",
                    "midi": 66,
                    "time": 450.4609200000102,
                    "velocity": 0.25984251968503935,
                    "duration": 0.5427240000000211
                },
                {
                    "name": "F#3",
                    "midi": 54,
                    "time": 451.00364400001024,
                    "velocity": 0.23622047244094488,
                    "duration": 0.5427240000000211
                },
                {
                    "name": "F3",
                    "midi": 53,
                    "time": 451.54636800001026,
                    "velocity": 0.25984251968503935,
                    "duration": 0.5427240000000211
                },
                {
                    "name": "G#3",
                    "midi": 56,
                    "time": 452.0890920000103,
                    "velocity": 0.2677165354330709,
                    "duration": 0.4522699999999986
                },
                {
                    "name": "C#4",
                    "midi": 61,
                    "time": 452.5413620000103,
                    "velocity": 0.23622047244094488,
                    "duration": 0.09045400000002246
                },
                {
                    "name": "F4",
                    "midi": 65,
                    "time": 452.6318160000103,
                    "velocity": 0.28346456692913385,
                    "duration": 0.5427240000000211
                },
                {
                    "name": "F3",
                    "midi": 53,
                    "time": 453.1745400000103,
                    "velocity": 0.2755905511811024,
                    "duration": 0.5427240000000211
                },
                {
                    "name": "D#3",
                    "midi": 51,
                    "time": 453.71726400001035,
                    "velocity": 0.31496062992125984,
                    "duration": 0.4522699999999986
                },
                {
                    "name": "F#3",
                    "midi": 54,
                    "time": 454.16953400001034,
                    "velocity": 0.28346456692913385,
                    "duration": 0.09045400000002246
                },
                {
                    "name": "G#3",
                    "midi": 56,
                    "time": 454.25998800001037,
                    "velocity": 0.33070866141732286,
                    "duration": 0.4522699999999986
                },
                {
                    "name": "C4",
                    "midi": 60,
                    "time": 454.71225800001037,
                    "velocity": 0.2992125984251969,
                    "duration": 0.09045400000002246
                },
                {
                    "name": "D#4",
                    "midi": 63,
                    "time": 454.8027120000104,
                    "velocity": 0.3464566929133858,
                    "duration": 0.4522699999999986
                },
                {
                    "name": "F#4",
                    "midi": 66,
                    "time": 455.2549820000104,
                    "velocity": 0.30708661417322836,
                    "duration": 0.09045400000002246
                },
                {
                    "name": "G#4",
                    "midi": 68,
                    "time": 455.3454360000104,
                    "velocity": 0.3700787401574803,
                    "duration": 0.4522699999999986
                },
                {
                    "name": "C5",
                    "midi": 72,
                    "time": 455.7977060000104,
                    "velocity": 0.33070866141732286,
                    "duration": 0.09045400000002246
                },
                {
                    "name": "C#4",
                    "midi": 61,
                    "time": 455.88816000001043,
                    "velocity": 0.25984251968503935,
                    "duration": 0.18090799999998808
                },
                {
                    "name": "F4",
                    "midi": 65,
                    "time": 456.0690680000104,
                    "velocity": 0.1889763779527559,
                    "duration": 0.18090799999998808
                },
                {
                    "name": "G#4",
                    "midi": 68,
                    "time": 456.0690680000104,
                    "velocity": 0.1889763779527559,
                    "duration": 0.18090799999998808
                },
                {
                    "name": "C#5",
                    "midi": 73,
                    "time": 456.0690680000104,
                    "velocity": 0.23622047244094488,
                    "duration": 0.18090799999998808
                },
                {
                    "name": "C#4",
                    "midi": 61,
                    "time": 456.2499760000104,
                    "velocity": 0.2440944881889764,
                    "duration": 0.18090799999998808
                },
                {
                    "name": "F4",
                    "midi": 65,
                    "time": 456.4308840000104,
                    "velocity": 0.2047244094488189,
                    "duration": 0.18090799999998808
                },
                {
                    "name": "G#4",
                    "midi": 68,
                    "time": 456.4308840000104,
                    "velocity": 0.2047244094488189,
                    "duration": 0.18090799999998808
                },
                {
                    "name": "C#5",
                    "midi": 73,
                    "time": 456.4308840000104,
                    "velocity": 0.25984251968503935,
                    "duration": 0.18090799999998808
                },
                {
                    "name": "C#4",
                    "midi": 61,
                    "time": 456.6117920000104,
                    "velocity": 0.2440944881889764,
                    "duration": 0.18090799999998808
                },
                {
                    "name": "F4",
                    "midi": 65,
                    "time": 456.79270000001037,
                    "velocity": 0.1889763779527559,
                    "duration": 0.18090799999998808
                },
                {
                    "name": "G#4",
                    "midi": 68,
                    "time": 456.79270000001037,
                    "velocity": 0.1889763779527559,
                    "duration": 0.18090799999998808
                },
                {
                    "name": "C#5",
                    "midi": 73,
                    "time": 456.79270000001037,
                    "velocity": 0.2440944881889764,
                    "duration": 0.18090799999998808
                },
                {
                    "name": "C#4",
                    "midi": 61,
                    "time": 456.97360800001036,
                    "velocity": 0.25984251968503935,
                    "duration": 0.18090799999998808
                },
                {
                    "name": "F4",
                    "midi": 65,
                    "time": 457.15451600001035,
                    "velocity": 0.1889763779527559,
                    "duration": 0.18090799999998808
                },
                {
                    "name": "G#4",
                    "midi": 68,
                    "time": 457.15451600001035,
                    "velocity": 0.1889763779527559,
                    "duration": 0.18090799999998808
                },
                {
                    "name": "C#5",
                    "midi": 73,
                    "time": 457.15451600001035,
                    "velocity": 0.2440944881889764,
                    "duration": 0.18090799999998808
                },
                {
                    "name": "C#4",
                    "midi": 61,
                    "time": 457.33542400001033,
                    "velocity": 0.2440944881889764,
                    "duration": 0.18090799999998808
                },
                {
                    "name": "F4",
                    "midi": 65,
                    "time": 457.5163320000103,
                    "velocity": 0.2047244094488189,
                    "duration": 0.18090799999998808
                },
                {
                    "name": "C#5",
                    "midi": 73,
                    "time": 457.5163320000103,
                    "velocity": 0.25984251968503935,
                    "duration": 0.18090799999998808
                },
                {
                    "name": "G#4",
                    "midi": 68,
                    "time": 457.5163320000103,
                    "velocity": 0.2047244094488189,
                    "duration": 0.18090799999998808
                },
                {
                    "name": "C#4",
                    "midi": 61,
                    "time": 457.6972400000103,
                    "velocity": 0.2440944881889764,
                    "duration": 0.18090799999998808
                },
                {
                    "name": "F4",
                    "midi": 65,
                    "time": 457.8781480000103,
                    "velocity": 0.1968503937007874,
                    "duration": 0.18090799999998808
                },
                {
                    "name": "G#4",
                    "midi": 68,
                    "time": 457.8781480000103,
                    "velocity": 0.1968503937007874,
                    "duration": 0.18090799999998808
                },
                {
                    "name": "C#5",
                    "midi": 73,
                    "time": 457.8781480000103,
                    "velocity": 0.25196850393700787,
                    "duration": 0.18090799999998808
                },
                {
                    "name": "C#4",
                    "midi": 61,
                    "time": 458.0590560000103,
                    "velocity": 0.25984251968503935,
                    "duration": 0.18090799999998808
                },
                {
                    "name": "F4",
                    "midi": 65,
                    "time": 458.2399640000103,
                    "velocity": 0.1889763779527559,
                    "duration": 0.18090799999998808
                },
                {
                    "name": "G#4",
                    "midi": 68,
                    "time": 458.2399640000103,
                    "velocity": 0.1889763779527559,
                    "duration": 0.18090799999998808
                },
                {
                    "name": "C#5",
                    "midi": 73,
                    "time": 458.2399640000103,
                    "velocity": 0.23622047244094488,
                    "duration": 0.18090799999998808
                },
                {
                    "name": "C#4",
                    "midi": 61,
                    "time": 458.42087200001026,
                    "velocity": 0.2440944881889764,
                    "duration": 0.18090799999998808
                },
                {
                    "name": "F4",
                    "midi": 65,
                    "time": 458.60178000001025,
                    "velocity": 0.2047244094488189,
                    "duration": 0.18090799999998808
                },
                {
                    "name": "G#4",
                    "midi": 68,
                    "time": 458.60178000001025,
                    "velocity": 0.2047244094488189,
                    "duration": 0.18090799999998808
                },
                {
                    "name": "C#5",
                    "midi": 73,
                    "time": 458.60178000001025,
                    "velocity": 0.25984251968503935,
                    "duration": 0.18090799999998808
                },
                {
                    "name": "C#4",
                    "midi": 61,
                    "time": 458.78268800001024,
                    "velocity": 0.2440944881889764,
                    "duration": 0.18090799999998808
                },
                {
                    "name": "G#4",
                    "midi": 68,
                    "time": 458.9635960000102,
                    "velocity": 0.1889763779527559,
                    "duration": 0.18090799999998808
                },
                {
                    "name": "C#5",
                    "midi": 73,
                    "time": 458.9635960000102,
                    "velocity": 0.2440944881889764,
                    "duration": 0.18090799999998808
                },
                {
                    "name": "F4",
                    "midi": 65,
                    "time": 458.9635960000102,
                    "velocity": 0.1889763779527559,
                    "duration": 0.18090799999998808
                },
                {
                    "name": "D#4",
                    "midi": 63,
                    "time": 459.1445040000102,
                    "velocity": 0.25984251968503935,
                    "duration": 0.18090799999998808
                },
                {
                    "name": "F#4",
                    "midi": 66,
                    "time": 459.3254120000102,
                    "velocity": 0.1889763779527559,
                    "duration": 0.18090799999998808
                },
                {
                    "name": "G#4",
                    "midi": 68,
                    "time": 459.3254120000102,
                    "velocity": 0.1889763779527559,
                    "duration": 0.18090799999998808
                },
                {
                    "name": "D#5",
                    "midi": 75,
                    "time": 459.3254120000102,
                    "velocity": 0.2440944881889764,
                    "duration": 0.18090799999998808
                },
                {
                    "name": "D#4",
                    "midi": 63,
                    "time": 459.5063200000102,
                    "velocity": 0.2440944881889764,
                    "duration": 0.18090799999998808
                },
                {
                    "name": "G#4",
                    "midi": 68,
                    "time": 459.6872280000102,
                    "velocity": 0.2047244094488189,
                    "duration": 0.18090799999998808
                },
                {
                    "name": "F#4",
                    "midi": 66,
                    "time": 459.6872280000102,
                    "velocity": 0.2047244094488189,
                    "duration": 0.18090799999998808
                },
                {
                    "name": "D#5",
                    "midi": 75,
                    "time": 459.6872280000102,
                    "velocity": 0.25984251968503935,
                    "duration": 0.18090799999998808
                },
                {
                    "name": "D#4",
                    "midi": 63,
                    "time": 459.86813600001017,
                    "velocity": 0.2440944881889764,
                    "duration": 0.18090799999998808
                },
                {
                    "name": "F#4",
                    "midi": 66,
                    "time": 460.04904400001016,
                    "velocity": 0.1968503937007874,
                    "duration": 0.18090799999998808
                },
                {
                    "name": "G#4",
                    "midi": 68,
                    "time": 460.04904400001016,
                    "velocity": 0.1968503937007874,
                    "duration": 0.18090799999998808
                },
                {
                    "name": "D#5",
                    "midi": 75,
                    "time": 460.04904400001016,
                    "velocity": 0.25196850393700787,
                    "duration": 0.18090799999998808
                },
                {
                    "name": "F4",
                    "midi": 65,
                    "time": 460.22995200001014,
                    "velocity": 0.25984251968503935,
                    "duration": 0.18090799999998808
                },
                {
                    "name": "G#4",
                    "midi": 68,
                    "time": 460.41086000001013,
                    "velocity": 0.1889763779527559,
                    "duration": 0.18090799999998808
                },
                {
                    "name": "F5",
                    "midi": 77,
                    "time": 460.41086000001013,
                    "velocity": 0.23622047244094488,
                    "duration": 0.18090799999998808
                },
                {
                    "name": "C#5",
                    "midi": 73,
                    "time": 460.41086000001013,
                    "velocity": 0.1889763779527559,
                    "duration": 0.18090799999998808
                },
                {
                    "name": "F4",
                    "midi": 65,
                    "time": 460.5917680000101,
                    "velocity": 0.2440944881889764,
                    "duration": 0.18090799999998808
                },
                {
                    "name": "F5",
                    "midi": 77,
                    "time": 460.7726760000101,
                    "velocity": 0.25984251968503935,
                    "duration": 0.18090799999998808
                },
                {
                    "name": "C#5",
                    "midi": 73,
                    "time": 460.7726760000101,
                    "velocity": 0.2047244094488189,
                    "duration": 0.18090799999998808
                },
                {
                    "name": "G#4",
                    "midi": 68,
                    "time": 460.7726760000101,
                    "velocity": 0.2047244094488189,
                    "duration": 0.18090799999998808
                },
                {
                    "name": "F4",
                    "midi": 65,
                    "time": 460.9535840000101,
                    "velocity": 0.2440944881889764,
                    "duration": 0.18090799999998808
                },
                {
                    "name": "G#4",
                    "midi": 68,
                    "time": 461.1344920000101,
                    "velocity": 0.1889763779527559,
                    "duration": 0.18090799999998808
                },
                {
                    "name": "F5",
                    "midi": 77,
                    "time": 461.1344920000101,
                    "velocity": 0.2440944881889764,
                    "duration": 0.18090799999998808
                },
                {
                    "name": "C#5",
                    "midi": 73,
                    "time": 461.1344920000101,
                    "velocity": 0.1889763779527559,
                    "duration": 0.18090799999998808
                },
                {
                    "name": "F4",
                    "midi": 65,
                    "time": 461.3154000000101,
                    "velocity": 0.25984251968503935,
                    "duration": 0.18090799999998808
                },
                {
                    "name": "F5",
                    "midi": 77,
                    "time": 461.49630800001006,
                    "velocity": 0.2440944881889764,
                    "duration": 0.18090799999998808
                },
                {
                    "name": "G#4",
                    "midi": 68,
                    "time": 461.49630800001006,
                    "velocity": 0.1889763779527559,
                    "duration": 0.18090799999998808
                },
                {
                    "name": "C#5",
                    "midi": 73,
                    "time": 461.49630800001006,
                    "velocity": 0.1889763779527559,
                    "duration": 0.18090799999998808
                },
                {
                    "name": "F4",
                    "midi": 65,
                    "time": 461.67721600001005,
                    "velocity": 0.2440944881889764,
                    "duration": 0.18090799999998808
                },
                {
                    "name": "C#5",
                    "midi": 73,
                    "time": 461.85812400001004,
                    "velocity": 0.28346456692913385,
                    "duration": 0.18090799999998808
                },
                {
                    "name": "G#4",
                    "midi": 68,
                    "time": 461.85812400001004,
                    "velocity": 0.28346456692913385,
                    "duration": 0.18090799999998808
                },
                {
                    "name": "G#4",
                    "midi": 68,
                    "time": 462.03903200001,
                    "velocity": 0.2677165354330709,
                    "duration": 0.18090799999998808
                },
                {
                    "name": "G#4",
                    "midi": 68,
                    "time": 462.21994000001,
                    "velocity": 0.2755905511811024,
                    "duration": 0.18090799999998808
                },
                {
                    "name": "C#5",
                    "midi": 73,
                    "time": 462.21994000001,
                    "velocity": 0.2755905511811024,
                    "duration": 0.18090799999998808
                },
                {
                    "name": "F4",
                    "midi": 65,
                    "time": 462.40084800001,
                    "velocity": 0.28346456692913385,
                    "duration": 0.18090799999998808
                },
                {
                    "name": "G#4",
                    "midi": 68,
                    "time": 462.58175600001,
                    "velocity": 0.2047244094488189,
                    "duration": 0.18090799999998808
                },
                {
                    "name": "C#5",
                    "midi": 73,
                    "time": 462.58175600001,
                    "velocity": 0.2047244094488189,
                    "duration": 0.18090799999998808
                },
                {
                    "name": "F5",
                    "midi": 77,
                    "time": 462.58175600001,
                    "velocity": 0.25984251968503935,
                    "duration": 0.18090799999998808
                },
                {
                    "name": "F4",
                    "midi": 65,
                    "time": 462.76266400001,
                    "velocity": 0.2677165354330709,
                    "duration": 0.18090799999998808
                },
                {
                    "name": "C#5",
                    "midi": 73,
                    "time": 462.94357200000996,
                    "velocity": 0.2283464566929134,
                    "duration": 0.18090799999998808
                },
                {
                    "name": "G#4",
                    "midi": 68,
                    "time": 462.94357200000996,
                    "velocity": 0.2283464566929134,
                    "duration": 0.18090799999998808
                },
                {
                    "name": "F5",
                    "midi": 77,
                    "time": 462.94357200000996,
                    "velocity": 0.29133858267716534,
                    "duration": 0.18090799999998808
                },
                {
                    "name": "F4",
                    "midi": 65,
                    "time": 463.12448000000995,
                    "velocity": 0.2755905511811024,
                    "duration": 0.18090799999998808
                },
                {
                    "name": "F5",
                    "midi": 77,
                    "time": 463.30538800000994,
                    "velocity": 0.28346456692913385,
                    "duration": 0.18090799999998808
                },
                {
                    "name": "C#5",
                    "midi": 73,
                    "time": 463.30538800000994,
                    "velocity": 0.2125984251968504,
                    "duration": 0.18090799999998808
                },
                {
                    "name": "G#4",
                    "midi": 68,
                    "time": 463.30538800000994,
                    "velocity": 0.2125984251968504,
                    "duration": 0.18090799999998808
                },
                {
                    "name": "F#4",
                    "midi": 66,
                    "time": 463.48629600000993,
                    "velocity": 0.30708661417322836,
                    "duration": 0.18090799999998808
                },
                {
                    "name": "A4",
                    "midi": 69,
                    "time": 463.6672040000099,
                    "velocity": 0.2204724409448819,
                    "duration": 0.18090799999998808
                },
                {
                    "name": "D#5",
                    "midi": 75,
                    "time": 463.6672040000099,
                    "velocity": 0.29133858267716534,
                    "duration": 0.18090799999998808
                },
                {
                    "name": "C5",
                    "midi": 72,
                    "time": 463.6672040000099,
                    "velocity": 0.2204724409448819,
                    "duration": 0.18090799999998808
                },
                {
                    "name": "F#4",
                    "midi": 66,
                    "time": 463.8481120000099,
                    "velocity": 0.2992125984251969,
                    "duration": 0.18090799999998808
                },
                {
                    "name": "D#5",
                    "midi": 75,
                    "time": 464.0290200000099,
                    "velocity": 0.31496062992125984,
                    "duration": 0.18090799999998808
                },
                {
                    "name": "A4",
                    "midi": 69,
                    "time": 464.0290200000099,
                    "velocity": 0.31496062992125984,
                    "duration": 0.18090799999998808
                },
                {
                    "name": "C5",
                    "midi": 72,
                    "time": 464.0290200000099,
                    "velocity": 0.31496062992125984,
                    "duration": 0.18090799999998808
                },
                {
                    "name": "F#4",
                    "midi": 66,
                    "time": 464.2099280000099,
                    "velocity": 0.2992125984251969,
                    "duration": 0.18090799999998808
                },
                {
                    "name": "D#5",
                    "midi": 75,
                    "time": 464.39083600000987,
                    "velocity": 0.31496062992125984,
                    "duration": 0.18090799999998808
                },
                {
                    "name": "A4",
                    "midi": 69,
                    "time": 464.39083600000987,
                    "velocity": 0.31496062992125984,
                    "duration": 0.18090799999998808
                },
                {
                    "name": "C5",
                    "midi": 72,
                    "time": 464.39083600000987,
                    "velocity": 0.31496062992125984,
                    "duration": 0.18090799999998808
                },
                {
                    "name": "F4",
                    "midi": 65,
                    "time": 464.57174400000986,
                    "velocity": 0.3858267716535433,
                    "duration": 0.18090799999998808
                },
                {
                    "name": "D5",
                    "midi": 74,
                    "time": 464.75265200000985,
                    "velocity": 0.30708661417322836,
                    "duration": 0.18090799999998808
                },
                {
                    "name": "B4",
                    "midi": 71,
                    "time": 464.75265200000985,
                    "velocity": 0.23622047244094488,
                    "duration": 0.18090799999998808
                },
                {
                    "name": "G#4",
                    "midi": 68,
                    "time": 464.75265200000985,
                    "velocity": 0.23622047244094488,
                    "duration": 0.18090799999998808
                },
                {
                    "name": "F4",
                    "midi": 65,
                    "time": 464.93356000000983,
                    "velocity": 0.3228346456692913,
                    "duration": 0.18090799999998808
                },
                {
                    "name": "G#4",
                    "midi": 68,
                    "time": 465.1144680000098,
                    "velocity": 0.2755905511811024,
                    "duration": 0.18090799999998808
                },
                {
                    "name": "D5",
                    "midi": 74,
                    "time": 465.1144680000098,
                    "velocity": 0.3464566929133858,
                    "duration": 0.18090799999998808
                },
                {
                    "name": "B4",
                    "midi": 71,
                    "time": 465.1144680000098,
                    "velocity": 0.2755905511811024,
                    "duration": 0.18090799999998808
                },
                {
                    "name": "F4",
                    "midi": 65,
                    "time": 465.2953760000098,
                    "velocity": 0.33070866141732286,
                    "duration": 0.18090799999998808
                },
                {
                    "name": "G#4",
                    "midi": 68,
                    "time": 465.4762840000098,
                    "velocity": 0.2677165354330709,
                    "duration": 0.18090799999998808
                },
                {
                    "name": "D5",
                    "midi": 74,
                    "time": 465.4762840000098,
                    "velocity": 0.3464566929133858,
                    "duration": 0.18090799999998808
                },
                {
                    "name": "B4",
                    "midi": 71,
                    "time": 465.4762840000098,
                    "velocity": 0.2677165354330709,
                    "duration": 0.18090799999998808
                },
                {
                    "name": "F4",
                    "midi": 65,
                    "time": 465.6571920000098,
                    "velocity": 0.3858267716535433,
                    "duration": 0.18090799999998808
                },
                {
                    "name": "G#4",
                    "midi": 68,
                    "time": 465.8381000000098,
                    "velocity": 0.28346456692913385,
                    "duration": 0.18090799999998808
                },
                {
                    "name": "B4",
                    "midi": 71,
                    "time": 465.8381000000098,
                    "velocity": 0.28346456692913385,
                    "duration": 0.18090799999998808
                },
                {
                    "name": "D5",
                    "midi": 74,
                    "time": 465.8381000000098,
                    "velocity": 0.3779527559055118,
                    "duration": 0.18090799999998808
                },
                {
                    "name": "F4",
                    "midi": 65,
                    "time": 466.01900800000976,
                    "velocity": 0.3779527559055118,
                    "duration": 0.18090799999998808
                },
                {
                    "name": "B4",
                    "midi": 71,
                    "time": 466.19991600000975,
                    "velocity": 0.3228346456692913,
                    "duration": 0.18090799999998808
                },
                {
                    "name": "G#4",
                    "midi": 68,
                    "time": 466.19991600000975,
                    "velocity": 0.3228346456692913,
                    "duration": 0.18090799999998808
                },
                {
                    "name": "D5",
                    "midi": 74,
                    "time": 466.19991600000975,
                    "velocity": 0.4330708661417323,
                    "duration": 0.18090799999998808
                },
                {
                    "name": "F4",
                    "midi": 65,
                    "time": 466.38082400000974,
                    "velocity": 0.3937007874015748,
                    "duration": 0.18090799999998808
                },
                {
                    "name": "D5",
                    "midi": 74,
                    "time": 466.5617320000097,
                    "velocity": 0.4094488188976378,
                    "duration": 0.18090799999998808
                },
                {
                    "name": "G#4",
                    "midi": 68,
                    "time": 466.5617320000097,
                    "velocity": 0.3228346456692913,
                    "duration": 0.18090799999998808
                },
                {
                    "name": "B4",
                    "midi": 71,
                    "time": 466.5617320000097,
                    "velocity": 0.3228346456692913,
                    "duration": 0.18090799999998808
                },
                {
                    "name": "E4",
                    "midi": 64,
                    "time": 466.7426400000097,
                    "velocity": 0.4251968503937008,
                    "duration": 0.18090799999998808
                },
                {
                    "name": "E5",
                    "midi": 76,
                    "time": 466.9235480000097,
                    "velocity": 0.3700787401574803,
                    "duration": 0.18090799999998808
                },
                {
                    "name": "C5",
                    "midi": 72,
                    "time": 466.9235480000097,
                    "velocity": 0.29133858267716534,
                    "duration": 0.18090799999998808
                },
                {
                    "name": "G4",
                    "midi": 67,
                    "time": 466.9235480000097,
                    "velocity": 0.29133858267716534,
                    "duration": 0.18090799999998808
                },
                {
                    "name": "E4",
                    "midi": 64,
                    "time": 467.1044560000097,
                    "velocity": 0.4015748031496063,
                    "duration": 0.18090799999998808
                },
                {
                    "name": "G4",
                    "midi": 67,
                    "time": 467.2853640000097,
                    "velocity": 0.33070866141732286,
                    "duration": 0.18090799999998808
                },
                {
                    "name": "E5",
                    "midi": 76,
                    "time": 467.2853640000097,
                    "velocity": 0.41732283464566927,
                    "duration": 0.18090799999998808
                },
                {
                    "name": "C5",
                    "midi": 72,
                    "time": 467.2853640000097,
                    "velocity": 0.33070866141732286,
                    "duration": 0.18090799999998808
                },
                {
                    "name": "E4",
                    "midi": 64,
                    "time": 467.46627200000967,
                    "velocity": 0.3700787401574803,
                    "duration": 0.18090799999998808
                },
                {
                    "name": "G4",
                    "midi": 67,
                    "time": 467.64718000000966,
                    "velocity": 0.3228346456692913,
                    "duration": 0.18090799999998808
                },
                {
                    "name": "E5",
                    "midi": 76,
                    "time": 467.64718000000966,
                    "velocity": 0.4094488188976378,
                    "duration": 0.18090799999998808
                },
                {
                    "name": "C5",
                    "midi": 72,
                    "time": 467.64718000000966,
                    "velocity": 0.3228346456692913,
                    "duration": 0.18090799999998808
                },
                {
                    "name": "E4",
                    "midi": 64,
                    "time": 467.82808800000964,
                    "velocity": 0.3858267716535433,
                    "duration": 0.18090799999998808
                },
                {
                    "name": "G4",
                    "midi": 67,
                    "time": 468.00899600000963,
                    "velocity": 0.33858267716535434,
                    "duration": 0.18090799999998808
                },
                {
                    "name": "C5",
                    "midi": 72,
                    "time": 468.00899600000963,
                    "velocity": 0.33858267716535434,
                    "duration": 0.18090799999998808
                },
                {
                    "name": "E5",
                    "midi": 76,
                    "time": 468.00899600000963,
                    "velocity": 0.4251968503937008,
                    "duration": 0.18090799999998808
                },
                {
                    "name": "E4",
                    "midi": 64,
                    "time": 468.1899040000096,
                    "velocity": 0.3779527559055118,
                    "duration": 0.18090799999998808
                },
                {
                    "name": "C5",
                    "midi": 72,
                    "time": 468.3708120000096,
                    "velocity": 0.3228346456692913,
                    "duration": 0.18090799999998808
                },
                {
                    "name": "G4",
                    "midi": 67,
                    "time": 468.3708120000096,
                    "velocity": 0.3228346456692913,
                    "duration": 0.18090799999998808
                },
                {
                    "name": "E5",
                    "midi": 76,
                    "time": 468.3708120000096,
                    "velocity": 0.4330708661417323,
                    "duration": 0.18090799999998808
                },
                {
                    "name": "E4",
                    "midi": 64,
                    "time": 468.5517200000096,
                    "velocity": 0.3937007874015748,
                    "duration": 0.18090799999998808
                },
                {
                    "name": "E5",
                    "midi": 76,
                    "time": 468.7326280000096,
                    "velocity": 0.4094488188976378,
                    "duration": 0.18090799999998808
                },
                {
                    "name": "G4",
                    "midi": 67,
                    "time": 468.7326280000096,
                    "velocity": 0.3228346456692913,
                    "duration": 0.18090799999998808
                },
                {
                    "name": "C5",
                    "midi": 72,
                    "time": 468.7326280000096,
                    "velocity": 0.3228346456692913,
                    "duration": 0.18090799999998808
                },
                {
                    "name": "A#3",
                    "midi": 58,
                    "time": 468.9135360000096,
                    "velocity": 0.4251968503937008,
                    "duration": 0.18090799999998808
                },
                {
                    "name": "G4",
                    "midi": 67,
                    "time": 469.09444400000956,
                    "velocity": 0.3700787401574803,
                    "duration": 0.18090799999998808
                },
                {
                    "name": "E4",
                    "midi": 64,
                    "time": 469.09444400000956,
                    "velocity": 0.29133858267716534,
                    "duration": 0.18090799999998808
                },
                {
                    "name": "C#4",
                    "midi": 61,
                    "time": 469.09444400000956,
                    "velocity": 0.29133858267716534,
                    "duration": 0.18090799999998808
                },
                {
                    "name": "A#3",
                    "midi": 58,
                    "time": 469.27535200000955,
                    "velocity": 0.4015748031496063,
                    "duration": 0.18090799999998808
                },
                {
                    "name": "C#4",
                    "midi": 61,
                    "time": 469.45626000000954,
                    "velocity": 0.33070866141732286,
                    "duration": 0.18090799999998808
                },
                {
                    "name": "G4",
                    "midi": 67,
                    "time": 469.45626000000954,
                    "velocity": 0.41732283464566927,
                    "duration": 0.18090799999998808
                },
                {
                    "name": "E4",
                    "midi": 64,
                    "time": 469.45626000000954,
                    "velocity": 0.33070866141732286,
                    "duration": 0.18090799999998808
                },
                {
                    "name": "A#3",
                    "midi": 58,
                    "time": 469.6371680000095,
                    "velocity": 0.3700787401574803,
                    "duration": 0.18090799999998808
                },
                {
                    "name": "C#4",
                    "midi": 61,
                    "time": 469.8180760000095,
                    "velocity": 0.3228346456692913,
                    "duration": 0.18090799999998808
                },
                {
                    "name": "G4",
                    "midi": 67,
                    "time": 469.8180760000095,
                    "velocity": 0.4094488188976378,
                    "duration": 0.18090799999998808
                },
                {
                    "name": "E4",
                    "midi": 64,
                    "time": 469.8180760000095,
                    "velocity": 0.3228346456692913,
                    "duration": 0.18090799999998808
                },
                {
                    "name": "A#3",
                    "midi": 58,
                    "time": 469.9989840000095,
                    "velocity": 0.3858267716535433,
                    "duration": 0.18090799999998808
                },
                {
                    "name": "E4",
                    "midi": 64,
                    "time": 470.1798920000095,
                    "velocity": 0.33858267716535434,
                    "duration": 0.18090799999998808
                },
                {
                    "name": "G4",
                    "midi": 67,
                    "time": 470.1798920000095,
                    "velocity": 0.4251968503937008,
                    "duration": 0.18090799999998808
                },
                {
                    "name": "C#4",
                    "midi": 61,
                    "time": 470.1798920000095,
                    "velocity": 0.33858267716535434,
                    "duration": 0.18090799999998808
                },
                {
                    "name": "A#3",
                    "midi": 58,
                    "time": 470.3608000000095,
                    "velocity": 0.3779527559055118,
                    "duration": 0.18090799999998808
                },
                {
                    "name": "C#4",
                    "midi": 61,
                    "time": 470.54170800000946,
                    "velocity": 0.33858267716535434,
                    "duration": 0.18090799999998808
                },
                {
                    "name": "G4",
                    "midi": 67,
                    "time": 470.54170800000946,
                    "velocity": 0.44881889763779526,
                    "duration": 0.18090799999998808
                },
                {
                    "name": "E4",
                    "midi": 64,
                    "time": 470.54170800000946,
                    "velocity": 0.33858267716535434,
                    "duration": 0.18090799999998808
                },
                {
                    "name": "A#3",
                    "midi": 58,
                    "time": 470.72261600000945,
                    "velocity": 0.4094488188976378,
                    "duration": 0.18090799999998808
                },
                {
                    "name": "C#4",
                    "midi": 61,
                    "time": 470.90352400000944,
                    "velocity": 0.33858267716535434,
                    "duration": 0.18090799999998808
                },
                {
                    "name": "E4",
                    "midi": 64,
                    "time": 470.90352400000944,
                    "velocity": 0.33858267716535434,
                    "duration": 0.18090799999998808
                },
                {
                    "name": "G4",
                    "midi": 67,
                    "time": 470.90352400000944,
                    "velocity": 0.4251968503937008,
                    "duration": 0.18090799999998808
                },
                {
                    "name": "G#3",
                    "midi": 56,
                    "time": 471.08443200000943,
                    "velocity": 0.4409448818897638,
                    "duration": 0.18090799999998808
                },
                {
                    "name": "C4",
                    "midi": 60,
                    "time": 471.2653400000094,
                    "velocity": 0.2992125984251969,
                    "duration": 0.18090799999998808
                },
                {
                    "name": "F4",
                    "midi": 65,
                    "time": 471.2653400000094,
                    "velocity": 0.2992125984251969,
                    "duration": 0.18090799999998808
                },
                {
                    "name": "G#4",
                    "midi": 68,
                    "time": 471.2653400000094,
                    "velocity": 0.3858267716535433,
                    "duration": 0.18090799999998808
                },
                {
                    "name": "G#3",
                    "midi": 56,
                    "time": 471.4462480000094,
                    "velocity": 0.41732283464566927,
                    "duration": 0.18090799999998808
                },
                {
                    "name": "F4",
                    "midi": 65,
                    "time": 471.6271560000094,
                    "velocity": 0.3464566929133858,
                    "duration": 0.18090799999998808
                },
                {
                    "name": "G#4",
                    "midi": 68,
                    "time": 471.6271560000094,
                    "velocity": 0.4330708661417323,
                    "duration": 0.18090799999998808
                },
                {
                    "name": "C4",
                    "midi": 60,
                    "time": 471.6271560000094,
                    "velocity": 0.3464566929133858,
                    "duration": 0.18090799999998808
                },
                {
                    "name": "G#3",
                    "midi": 56,
                    "time": 471.8080640000094,
                    "velocity": 0.3858267716535433,
                    "duration": 0.18090799999998808
                },
                {
                    "name": "F4",
                    "midi": 65,
                    "time": 471.98897200000937,
                    "velocity": 0.33858267716535434,
                    "duration": 0.18090799999998808
                },
                {
                    "name": "G#4",
                    "midi": 68,
                    "time": 471.98897200000937,
                    "velocity": 0.4251968503937008,
                    "duration": 0.18090799999998808
                },
                {
                    "name": "C4",
                    "midi": 60,
                    "time": 471.98897200000937,
                    "velocity": 0.33858267716535434,
                    "duration": 0.18090799999998808
                },
                {
                    "name": "G#3",
                    "midi": 56,
                    "time": 472.16988000000936,
                    "velocity": 0.4015748031496063,
                    "duration": 0.18090799999998808
                },
                {
                    "name": "F4",
                    "midi": 65,
                    "time": 472.35078800000935,
                    "velocity": 0.3543307086614173,
                    "duration": 0.18090799999998808
                },
                {
                    "name": "G#4",
                    "midi": 68,
                    "time": 472.35078800000935,
                    "velocity": 0.4409448818897638,
                    "duration": 0.18090799999998808
                },
                {
                    "name": "C4",
                    "midi": 60,
                    "time": 472.35078800000935,
                    "velocity": 0.3543307086614173,
                    "duration": 0.18090799999998808
                },
                {
                    "name": "G#3",
                    "midi": 56,
                    "time": 472.53169600000933,
                    "velocity": 0.3937007874015748,
                    "duration": 0.18090799999998808
                },
                {
                    "name": "C4",
                    "midi": 60,
                    "time": 472.7126040000093,
                    "velocity": 0.33858267716535434,
                    "duration": 0.18090799999998808
                },
                {
                    "name": "G#4",
                    "midi": 68,
                    "time": 472.7126040000093,
                    "velocity": 0.44881889763779526,
                    "duration": 0.18090799999998808
                },
                {
                    "name": "F4",
                    "midi": 65,
                    "time": 472.7126040000093,
                    "velocity": 0.33858267716535434,
                    "duration": 0.18090799999998808
                },
                {
                    "name": "G#3",
                    "midi": 56,
                    "time": 472.8935120000093,
                    "velocity": 0.4094488188976378,
                    "duration": 0.18090799999998808
                },
                {
                    "name": "C4",
                    "midi": 60,
                    "time": 473.0744200000093,
                    "velocity": 0.33858267716535434,
                    "duration": 0.18090799999998808
                },
                {
                    "name": "F4",
                    "midi": 65,
                    "time": 473.0744200000093,
                    "velocity": 0.33858267716535434,
                    "duration": 0.18090799999998808
                },
                {
                    "name": "G#4",
                    "midi": 68,
                    "time": 473.0744200000093,
                    "velocity": 0.4251968503937008,
                    "duration": 0.18090799999998808
                },
                {
                    "name": "A#1",
                    "midi": 34,
                    "time": 473.2553280000093,
                    "velocity": 0.7952755905511811,
                    "duration": 0.18090799999998808
                },
                {
                    "name": "A#2",
                    "midi": 46,
                    "time": 473.2553280000093,
                    "velocity": 0.7952755905511811,
                    "duration": 0.18090799999998808
                },
                {
                    "name": "C#3",
                    "midi": 49,
                    "time": 473.61714400000926,
                    "velocity": 0.5905511811023622,
                    "duration": 0.09045400000002246
                },
                {
                    "name": "F#3",
                    "midi": 54,
                    "time": 473.7075980000093,
                    "velocity": 0.5433070866141733,
                    "duration": 0.09045400000002246
                },
                {
                    "name": "A#3",
                    "midi": 58,
                    "time": 473.7980520000093,
                    "velocity": 0.6771653543307087,
                    "duration": 0.18090799999998808
                },
                {
                    "name": "F#3",
                    "midi": 54,
                    "time": 474.1598680000093,
                    "velocity": 0.5905511811023622,
                    "duration": 0.09045400000002246
                },
                {
                    "name": "A#3",
                    "midi": 58,
                    "time": 474.2503220000093,
                    "velocity": 0.5748031496062992,
                    "duration": 0.09045400000002246
                },
                {
                    "name": "C#4",
                    "midi": 61,
                    "time": 474.3407760000093,
                    "velocity": 0.6771653543307087,
                    "duration": 0.18090799999998808
                },
                {
                    "name": "A#3",
                    "midi": 58,
                    "time": 474.7025920000093,
                    "velocity": 0.6141732283464567,
                    "duration": 0.09045400000002246
                },
                {
                    "name": "C#4",
                    "midi": 61,
                    "time": 474.7930460000093,
                    "velocity": 0.5748031496062992,
                    "duration": 0.09045400000002246
                },
                {
                    "name": "F#4",
                    "midi": 66,
                    "time": 474.88350000000935,
                    "velocity": 0.6614173228346457,
                    "duration": 0.18090799999998808
                },
                {
                    "name": "C#4",
                    "midi": 61,
                    "time": 475.2453160000093,
                    "velocity": 0.6062992125984252,
                    "duration": 0.09045400000002246
                },
                {
                    "name": "F#4",
                    "midi": 66,
                    "time": 475.33577000000935,
                    "velocity": 0.5590551181102362,
                    "duration": 0.09045400000002246
                },
                {
                    "name": "A#4",
                    "midi": 70,
                    "time": 475.42622400000937,
                    "velocity": 0.6377952755905512,
                    "duration": 0.18090799999998808
                },
                {
                    "name": "F#4",
                    "midi": 66,
                    "time": 475.78804000000935,
                    "velocity": 0.5905511811023622,
                    "duration": 0.09045400000002246
                },
                {
                    "name": "A#4",
                    "midi": 70,
                    "time": 475.87849400000937,
                    "velocity": 0.5826771653543307,
                    "duration": 0.09045400000002246
                },
                {
                    "name": "C#5",
                    "midi": 73,
                    "time": 475.9689480000094,
                    "velocity": 0.6377952755905512,
                    "duration": 0.18090799999998808
                },
                {
                    "name": "A#4",
                    "midi": 70,
                    "time": 476.33076400000937,
                    "velocity": 0.5905511811023622,
                    "duration": 0.09045400000002246
                },
                {
                    "name": "C#5",
                    "midi": 73,
                    "time": 476.4212180000094,
                    "velocity": 0.5748031496062992,
                    "duration": 0.09045400000002246
                },
                {
                    "name": "F#5",
                    "midi": 78,
                    "time": 476.5116720000094,
                    "velocity": 0.6614173228346457,
                    "duration": 0.18090799999998808
                },
                {
                    "name": "C#5",
                    "midi": 73,
                    "time": 476.8734880000094,
                    "velocity": 0.5905511811023622,
                    "duration": 0.09045400000002246
                },
                {
                    "name": "F#5",
                    "midi": 78,
                    "time": 476.9639420000094,
                    "velocity": 0.5826771653543307,
                    "duration": 0.09045400000002246
                },
                {
                    "name": "A#5",
                    "midi": 82,
                    "time": 477.05439600000943,
                    "velocity": 0.6535433070866141,
                    "duration": 0.18090799999998808
                },
                {
                    "name": "C3",
                    "midi": 48,
                    "time": 477.5971200000094,
                    "velocity": 0.7952755905511811,
                    "duration": 0.18090799999998808
                },
                {
                    "name": "C2",
                    "midi": 36,
                    "time": 477.5971200000094,
                    "velocity": 0.7952755905511811,
                    "duration": 0.18090799999998808
                },
                {
                    "name": "D#3",
                    "midi": 51,
                    "time": 477.9589360000094,
                    "velocity": 0.6299212598425197,
                    "duration": 0.09045400000002246
                },
                {
                    "name": "A3",
                    "midi": 57,
                    "time": 478.0493900000094,
                    "velocity": 0.5748031496062992,
                    "duration": 0.09045400000002246
                },
                {
                    "name": "C4",
                    "midi": 60,
                    "time": 478.1398440000094,
                    "velocity": 0.7007874015748031,
                    "duration": 0.18090799999998808
                },
                {
                    "name": "A3",
                    "midi": 57,
                    "time": 478.5016600000094,
                    "velocity": 0.6141732283464567,
                    "duration": 0.09045400000002246
                },
                {
                    "name": "C4",
                    "midi": 60,
                    "time": 478.5921140000094,
                    "velocity": 0.5748031496062992,
                    "duration": 0.09045400000002246
                },
                {
                    "name": "D#4",
                    "midi": 63,
                    "time": 478.68256800000944,
                    "velocity": 0.6771653543307087,
                    "duration": 0.18090799999998808
                },
                {
                    "name": "C4",
                    "midi": 60,
                    "time": 479.0443840000094,
                    "velocity": 0.6141732283464567,
                    "duration": 0.09045400000002246
                },
                {
                    "name": "D#4",
                    "midi": 63,
                    "time": 479.13483800000944,
                    "velocity": 0.5748031496062992,
                    "duration": 0.09045400000002246
                },
                {
                    "name": "A4",
                    "midi": 69,
                    "time": 479.22529200000946,
                    "velocity": 0.6614173228346457,
                    "duration": 0.18090799999998808
                },
                {
                    "name": "D#4",
                    "midi": 63,
                    "time": 479.58710800000944,
                    "velocity": 0.6062992125984252,
                    "duration": 0.09045400000002246
                },
                {
                    "name": "A4",
                    "midi": 69,
                    "time": 479.67756200000946,
                    "velocity": 0.5590551181102362,
                    "duration": 0.09045400000002246
                },
                {
                    "name": "C5",
                    "midi": 72,
                    "time": 479.7680160000095,
                    "velocity": 0.6456692913385826,
                    "duration": 0.18090799999998808
                },
                {
                    "name": "A4",
                    "midi": 69,
                    "time": 480.12983200000946,
                    "velocity": 0.5905511811023622,
                    "duration": 0.09045400000002246
                },
                {
                    "name": "C5",
                    "midi": 72,
                    "time": 480.2202860000095,
                    "velocity": 0.5748031496062992,
                    "duration": 0.09045400000002246
                },
                {
                    "name": "D#5",
                    "midi": 75,
                    "time": 480.3107400000095,
                    "velocity": 0.6692913385826772,
                    "duration": 0.18090799999998808
                },
                {
                    "name": "C5",
                    "midi": 72,
                    "time": 480.6725560000095,
                    "velocity": 0.5905511811023622,
                    "duration": 0.09045400000002246
                },
                {
                    "name": "D#5",
                    "midi": 75,
                    "time": 480.7630100000095,
                    "velocity": 0.5748031496062992,
                    "duration": 0.09045400000002246
                },
                {
                    "name": "A5",
                    "midi": 81,
                    "time": 480.8534640000095,
                    "velocity": 0.6614173228346457,
                    "duration": 0.18090799999998808
                },
                {
                    "name": "D#5",
                    "midi": 75,
                    "time": 481.2152800000095,
                    "velocity": 0.6299212598425197,
                    "duration": 0.09045400000002246
                },
                {
                    "name": "A5",
                    "midi": 81,
                    "time": 481.3057340000095,
                    "velocity": 0.5826771653543307,
                    "duration": 0.09045400000002246
                },
                {
                    "name": "C6",
                    "midi": 84,
                    "time": 481.39618800000954,
                    "velocity": 0.6692913385826772,
                    "duration": 0.18090799999998808
                },
                {
                    "name": "C#2",
                    "midi": 37,
                    "time": 481.9389120000095,
                    "velocity": 0.7952755905511811,
                    "duration": 0.18090799999998808
                },
                {
                    "name": "C#3",
                    "midi": 49,
                    "time": 481.9389120000095,
                    "velocity": 0.7952755905511811,
                    "duration": 0.18090799999998808
                },
                {
                    "name": "F3",
                    "midi": 53,
                    "time": 482.3007280000095,
                    "velocity": 0.6141732283464567,
                    "duration": 0.09045400000002246
                },
                {
                    "name": "A#3",
                    "midi": 58,
                    "time": 482.3911820000095,
                    "velocity": 0.5748031496062992,
                    "duration": 0.09045400000002246
                },
                {
                    "name": "C#4",
                    "midi": 61,
                    "time": 482.48163600000953,
                    "velocity": 0.6614173228346457,
                    "duration": 0.18090799999998808
                },
                {
                    "name": "E3",
                    "midi": 52,
                    "time": 483.0243600000095,
                    "velocity": 0.7952755905511811,
                    "duration": 0.18090799999998808
                },
                {
                    "name": "E2",
                    "midi": 40,
                    "time": 483.0243600000095,
                    "velocity": 0.7952755905511811,
                    "duration": 0.18090799999998808
                },
                {
                    "name": "G3",
                    "midi": 55,
                    "time": 483.38617600000947,
                    "velocity": 0.6299212598425197,
                    "duration": 0.09045400000002246
                },
                {
                    "name": "C4",
                    "midi": 60,
                    "time": 483.4766300000095,
                    "velocity": 0.5748031496062992,
                    "duration": 0.09045400000002246
                },
                {
                    "name": "E4",
                    "midi": 64,
                    "time": 483.5670840000095,
                    "velocity": 0.6456692913385826,
                    "duration": 0.18090799999998808
                },
                {
                    "name": "F3",
                    "midi": 53,
                    "time": 484.1098080000095,
                    "velocity": 0.7952755905511811,
                    "duration": 0.18090799999998808
                },
                {
                    "name": "F2",
                    "midi": 41,
                    "time": 484.1098080000095,
                    "velocity": 0.7952755905511811,
                    "duration": 0.18090799999998808
                },
                {
                    "name": "G#3",
                    "midi": 56,
                    "time": 484.47162400000946,
                    "velocity": 0.6299212598425197,
                    "duration": 0.09045400000002246
                },
                {
                    "name": "C#4",
                    "midi": 61,
                    "time": 484.5620780000095,
                    "velocity": 0.5748031496062992,
                    "duration": 0.09045400000002246
                },
                {
                    "name": "F4",
                    "midi": 65,
                    "time": 484.6525320000095,
                    "velocity": 0.6771653543307087,
                    "duration": 0.18090799999998808
                },
                {
                    "name": "G2",
                    "midi": 43,
                    "time": 485.19525600000946,
                    "velocity": 0.7952755905511811,
                    "duration": 0.18090799999998808
                },
                {
                    "name": "G3",
                    "midi": 55,
                    "time": 485.19525600000946,
                    "velocity": 0.7952755905511811,
                    "duration": 0.18090799999998808
                },
                {
                    "name": "A#3",
                    "midi": 58,
                    "time": 485.55707200000944,
                    "velocity": 0.6299212598425197,
                    "duration": 0.09045400000002246
                },
                {
                    "name": "E4",
                    "midi": 64,
                    "time": 485.64752600000946,
                    "velocity": 0.5748031496062992,
                    "duration": 0.09045400000002246
                },
                {
                    "name": "G4",
                    "midi": 67,
                    "time": 485.7379800000095,
                    "velocity": 0.6771653543307087,
                    "duration": 0.18090799999998808
                },
                {
                    "name": "G#2",
                    "midi": 44,
                    "time": 486.28070400000945,
                    "velocity": 0.5905511811023622,
                    "duration": 0.18090799999998808
                },
                {
                    "name": "G#3",
                    "midi": 56,
                    "time": 486.6425200000094,
                    "velocity": 0.5433070866141733,
                    "duration": 0.09045400000002246
                },
                {
                    "name": "C4",
                    "midi": 60,
                    "time": 486.73297400000945,
                    "velocity": 0.48031496062992124,
                    "duration": 0.09045400000002246
                },
                {
                    "name": "A#2",
                    "midi": 46,
                    "time": 486.82342800000947,
                    "velocity": 0.6062992125984252,
                    "duration": 0.18090799999998808
                },
                {
                    "name": "A#3",
                    "midi": 58,
                    "time": 487.18524400000945,
                    "velocity": 0.5433070866141733,
                    "duration": 0.09045400000002246
                },
                {
                    "name": "C#4",
                    "midi": 61,
                    "time": 487.27569800000947,
                    "velocity": 0.5039370078740157,
                    "duration": 0.09045400000002246
                },
                {
                    "name": "C3",
                    "midi": 48,
                    "time": 487.3661520000095,
                    "velocity": 0.6141732283464567,
                    "duration": 0.18090799999998808
                },
                {
                    "name": "C4",
                    "midi": 60,
                    "time": 487.72796800000947,
                    "velocity": 0.5590551181102362,
                    "duration": 0.09045400000002246
                },
                {
                    "name": "D#4",
                    "midi": 63,
                    "time": 487.8184220000095,
                    "velocity": 0.5275590551181102,
                    "duration": 0.09045400000002246
                },
                {
                    "name": "C#3",
                    "midi": 49,
                    "time": 487.9088760000095,
                    "velocity": 0.6377952755905512,
                    "duration": 0.18090799999998808
                },
                {
                    "name": "C#4",
                    "midi": 61,
                    "time": 488.2706920000095,
                    "velocity": 0.6062992125984252,
                    "duration": 0.09045400000002246
                },
                {
                    "name": "F4",
                    "midi": 65,
                    "time": 488.3611460000095,
                    "velocity": 0.5590551181102362,
                    "duration": 0.09045400000002246
                },
                {
                    "name": "E3",
                    "midi": 52,
                    "time": 488.45160000000953,
                    "velocity": 0.6299212598425197,
                    "duration": 0.18090799999998808
                },
                {
                    "name": "E4",
                    "midi": 64,
                    "time": 488.8134160000095,
                    "velocity": 0.6062992125984252,
                    "duration": 0.09045400000002246
                },
                {
                    "name": "G4",
                    "midi": 67,
                    "time": 488.90387000000953,
                    "velocity": 0.5748031496062992,
                    "duration": 0.09045400000002246
                },
                {
                    "name": "F3",
                    "midi": 53,
                    "time": 488.99432400000956,
                    "velocity": 0.6535433070866141,
                    "duration": 0.18090799999998808
                },
                {
                    "name": "F4",
                    "midi": 65,
                    "time": 489.35614000000953,
                    "velocity": 0.6062992125984252,
                    "duration": 0.09045400000002246
                },
                {
                    "name": "G#4",
                    "midi": 68,
                    "time": 489.44659400000955,
                    "velocity": 0.5669291338582677,
                    "duration": 0.09045400000002246
                },
                {
                    "name": "G3",
                    "midi": 55,
                    "time": 489.5370480000096,
                    "velocity": 0.6614173228346457,
                    "duration": 0.18090799999998808
                },
                {
                    "name": "G4",
                    "midi": 67,
                    "time": 489.89886400000955,
                    "velocity": 0.6141732283464567,
                    "duration": 0.09045400000002246
                },
                {
                    "name": "A#4",
                    "midi": 70,
                    "time": 489.9893180000096,
                    "velocity": 0.5826771653543307,
                    "duration": 0.09045400000002246
                },
                {
                    "name": "G#3",
                    "midi": 56,
                    "time": 490.0797720000096,
                    "velocity": 0.6692913385826772,
                    "duration": 0.18090799999998808
                },
                {
                    "name": "G#4",
                    "midi": 68,
                    "time": 490.4415880000096,
                    "velocity": 0.6062992125984252,
                    "duration": 0.09045400000002246
                },
                {
                    "name": "C5",
                    "midi": 72,
                    "time": 490.5320420000096,
                    "velocity": 0.5748031496062992,
                    "duration": 0.09045400000002246
                },
                {
                    "name": "A#3",
                    "midi": 58,
                    "time": 490.6224960000096,
                    "velocity": 0.6771653543307087,
                    "duration": 0.18090799999998808
                },
                {
                    "name": "A#4",
                    "midi": 70,
                    "time": 490.9843120000096,
                    "velocity": 0.6377952755905512,
                    "duration": 0.09045400000002246
                },
                {
                    "name": "C#5",
                    "midi": 73,
                    "time": 491.0747660000096,
                    "velocity": 0.6062992125984252,
                    "duration": 0.09045400000002246
                },
                {
                    "name": "C4",
                    "midi": 60,
                    "time": 491.16522000000964,
                    "velocity": 0.7007874015748031,
                    "duration": 0.18090799999998808
                },
                {
                    "name": "C5",
                    "midi": 72,
                    "time": 491.5270360000096,
                    "velocity": 0.6299212598425197,
                    "duration": 0.09045400000002246
                },
                {
                    "name": "D#5",
                    "midi": 75,
                    "time": 491.61749000000964,
                    "velocity": 0.6141732283464567,
                    "duration": 0.09045400000002246
                },
                {
                    "name": "C#4",
                    "midi": 61,
                    "time": 491.70794400000966,
                    "velocity": 0.7007874015748031,
                    "duration": 0.18090799999998808
                },
                {
                    "name": "C#5",
                    "midi": 73,
                    "time": 492.06976000000964,
                    "velocity": 0.6535433070866141,
                    "duration": 0.09045400000002246
                },
                {
                    "name": "F5",
                    "midi": 77,
                    "time": 492.16021400000966,
                    "velocity": 0.6299212598425197,
                    "duration": 0.09045400000002246
                },
                {
                    "name": "C#4",
                    "midi": 61,
                    "time": 492.2506680000097,
                    "velocity": 0.7244094488188977,
                    "duration": 0.18090799999998808
                },
                {
                    "name": "C#5",
                    "midi": 73,
                    "time": 492.61248400000966,
                    "velocity": 0.6614173228346457,
                    "duration": 0.09045400000002246
                },
                {
                    "name": "F5",
                    "midi": 77,
                    "time": 492.7029380000097,
                    "velocity": 0.6299212598425197,
                    "duration": 0.09045400000002246
                },
                {
                    "name": "F2",
                    "midi": 41,
                    "time": 492.7933920000097,
                    "velocity": 0.8503937007874016,
                    "duration": 0.09045400000002246
                },
                {
                    "name": "F3",
                    "midi": 53,
                    "time": 492.8838460000097,
                    "velocity": 0.7874015748031497,
                    "duration": 0.09045400000002246
                },
                {
                    "name": "G#3",
                    "midi": 56,
                    "time": 492.97430000000975,
                    "velocity": 0.7244094488188977,
                    "duration": 0.09045400000002246
                },
                {
                    "name": "A#3",
                    "midi": 58,
                    "time": 494.60247200000975,
                    "velocity": 0.5826771653543307,
                    "duration": 0.09045400000002246
                },
                {
                    "name": "F3",
                    "midi": 53,
                    "time": 494.6929260000098,
                    "velocity": 0.5826771653543307,
                    "duration": 0.09045400000002246
                },
                {
                    "name": "C#3",
                    "midi": 49,
                    "time": 494.7833800000098,
                    "velocity": 0.5826771653543307,
                    "duration": 0.09045400000002246
                },
                {
                    "name": "A#3",
                    "midi": 58,
                    "time": 494.8738340000098,
                    "velocity": 0.5826771653543307,
                    "duration": 0.09045400000002246
                },
                {
                    "name": "F3",
                    "midi": 53,
                    "time": 494.96428800000984,
                    "velocity": 0.6220472440944882,
                    "duration": 0.09045400000002246
                },
                {
                    "name": "C#3",
                    "midi": 49,
                    "time": 495.05474200000987,
                    "velocity": 0.5590551181102362,
                    "duration": 0.09045400000002246
                },
                {
                    "name": "A#2",
                    "midi": 46,
                    "time": 495.1451960000099,
                    "velocity": 0.5826771653543307,
                    "duration": 0.09045400000002246
                },
                {
                    "name": "C#3",
                    "midi": 49,
                    "time": 495.2356500000099,
                    "velocity": 0.5590551181102362,
                    "duration": 0.09045400000002246
                },
                {
                    "name": "F3",
                    "midi": 53,
                    "time": 495.32610400000993,
                    "velocity": 0.5826771653543307,
                    "duration": 0.09045400000002246
                },
                {
                    "name": "A#3",
                    "midi": 58,
                    "time": 495.41655800000996,
                    "velocity": 0.5669291338582677,
                    "duration": 0.09045400000002246
                },
                {
                    "name": "D4",
                    "midi": 62,
                    "time": 497.13518400001,
                    "velocity": 0.8267716535433071,
                    "duration": 0.09045400000002246
                },
                {
                    "name": "D5",
                    "midi": 74,
                    "time": 497.22563800001,
                    "velocity": 0.7874015748031497,
                    "duration": 0.09045400000002246
                },
                {
                    "name": "F5",
                    "midi": 77,
                    "time": 497.31609200001003,
                    "velocity": 0.7244094488188977,
                    "duration": 0.09045400000002246
                },
                {
                    "name": "B3",
                    "midi": 59,
                    "time": 499.5774420000101,
                    "velocity": 0.5590551181102362,
                    "duration": 0.09045400000002246
                },
                {
                    "name": "G#3",
                    "midi": 56,
                    "time": 499.6678960000101,
                    "velocity": 0.5826771653543307,
                    "duration": 0.09045400000002246
                },
                {
                    "name": "F3",
                    "midi": 53,
                    "time": 499.7583500000101,
                    "velocity": 0.5669291338582677,
                    "duration": 0.09045400000002246
                },
                {
                    "name": "D3",
                    "midi": 50,
                    "time": 499.84880400001015,
                    "velocity": 0.6299212598425197,
                    "duration": 0.09045400000002246
                },
                {
                    "name": "B2",
                    "midi": 47,
                    "time": 499.93925800001017,
                    "velocity": 0.5905511811023622,
                    "duration": 0.09045400000002246
                },
                {
                    "name": "D3",
                    "midi": 50,
                    "time": 500.0297120000102,
                    "velocity": 0.5905511811023622,
                    "duration": 0.09045400000002246
                },
                {
                    "name": "F3",
                    "midi": 53,
                    "time": 500.1201660000102,
                    "velocity": 0.5905511811023622,
                    "duration": 0.09045400000002246
                },
                {
                    "name": "G#3",
                    "midi": 56,
                    "time": 500.21062000001024,
                    "velocity": 0.6220472440944882,
                    "duration": 0.09045400000002246
                },
                {
                    "name": "B3",
                    "midi": 59,
                    "time": 500.30107400001026,
                    "velocity": 0.5748031496062992,
                    "duration": 0.09045400000002246
                },
                {
                    "name": "C2",
                    "midi": 36,
                    "time": 501.47697600001027,
                    "velocity": 0.984251968503937,
                    "duration": 0.18090799999998808
                },
                {
                    "name": "C4",
                    "midi": 60,
                    "time": 503.28605600001026,
                    "velocity": 0.5826771653543307,
                    "duration": 0.09045400000002246
                },
                {
                    "name": "G#3",
                    "midi": 56,
                    "time": 503.3765100000103,
                    "velocity": 0.5826771653543307,
                    "duration": 0.09045400000002246
                },
                {
                    "name": "F3",
                    "midi": 53,
                    "time": 503.4669640000103,
                    "velocity": 0.5826771653543307,
                    "duration": 0.09045400000002246
                },
                {
                    "name": "C4",
                    "midi": 60,
                    "time": 503.55741800001033,
                    "velocity": 0.5826771653543307,
                    "duration": 0.09045400000002246
                },
                {
                    "name": "G#3",
                    "midi": 56,
                    "time": 503.64787200001035,
                    "velocity": 0.6220472440944882,
                    "duration": 0.09045400000002246
                },
                {
                    "name": "F3",
                    "midi": 53,
                    "time": 503.7383260000104,
                    "velocity": 0.5590551181102362,
                    "duration": 0.09045400000002246
                },
                {
                    "name": "C3",
                    "midi": 48,
                    "time": 503.8287800000104,
                    "velocity": 0.5826771653543307,
                    "duration": 0.09045400000002246
                },
                {
                    "name": "G#2",
                    "midi": 44,
                    "time": 503.9192340000104,
                    "velocity": 0.5590551181102362,
                    "duration": 0.09045400000002246
                },
                {
                    "name": "F2",
                    "midi": 41,
                    "time": 504.00968800001044,
                    "velocity": 0.5826771653543307,
                    "duration": 0.09045400000002246
                },
                {
                    "name": "C2",
                    "midi": 36,
                    "time": 504.10014200001046,
                    "velocity": 0.5669291338582677,
                    "duration": 0.09045400000002246
                },
                {
                    "name": "F2",
                    "midi": 41,
                    "time": 504.1905960000105,
                    "velocity": 0.6299212598425197,
                    "duration": 0.09045400000002246
                },
                {
                    "name": "G#2",
                    "midi": 44,
                    "time": 504.2810500000105,
                    "velocity": 0.5905511811023622,
                    "duration": 0.09045400000002246
                },
                {
                    "name": "C3",
                    "midi": 48,
                    "time": 504.37150400001053,
                    "velocity": 0.5905511811023622,
                    "duration": 0.09045400000002246
                },
                {
                    "name": "F3",
                    "midi": 53,
                    "time": 504.46195800001055,
                    "velocity": 0.5905511811023622,
                    "duration": 0.09045400000002246
                },
                {
                    "name": "G#3",
                    "midi": 56,
                    "time": 504.5524120000106,
                    "velocity": 0.6220472440944882,
                    "duration": 0.09045400000002246
                },
                {
                    "name": "C4",
                    "midi": 60,
                    "time": 504.6428660000106,
                    "velocity": 0.5748031496062992,
                    "duration": 0.09045400000002246
                },
                {
                    "name": "C2",
                    "midi": 36,
                    "time": 505.8187680000106,
                    "velocity": 0.6456692913385826,
                    "duration": 0.09045400000002246
                },
                {
                    "name": "C3",
                    "midi": 48,
                    "time": 505.90922200001063,
                    "velocity": 0.5669291338582677,
                    "duration": 0.09045400000002246
                },
                {
                    "name": "E3",
                    "midi": 52,
                    "time": 505.99967600001065,
                    "velocity": 0.5748031496062992,
                    "duration": 0.09045400000002246
                },
                {
                    "name": "G3",
                    "midi": 55,
                    "time": 506.0901300000107,
                    "velocity": 0.5826771653543307,
                    "duration": 0.09045400000002246
                },
                {
                    "name": "A#3",
                    "midi": 58,
                    "time": 506.1805840000107,
                    "velocity": 0.5826771653543307,
                    "duration": 0.18090799999998808
                },
                {
                    "name": "C4",
                    "midi": 60,
                    "time": 507.2660320000107,
                    "velocity": 0.5748031496062992,
                    "duration": 0.09045400000002246
                },
                {
                    "name": "A#3",
                    "midi": 58,
                    "time": 507.3564860000107,
                    "velocity": 0.5433070866141733,
                    "duration": 0.09045400000002246
                },
                {
                    "name": "G3",
                    "midi": 55,
                    "time": 507.4469400000107,
                    "velocity": 0.5826771653543307,
                    "duration": 0.09045400000002246
                },
                {
                    "name": "E3",
                    "midi": 52,
                    "time": 507.53739400001075,
                    "velocity": 0.5433070866141733,
                    "duration": 0.09045400000002246
                },
                {
                    "name": "C3",
                    "midi": 48,
                    "time": 507.6278480000108,
                    "velocity": 0.5590551181102362,
                    "duration": 0.09045400000002246
                },
                {
                    "name": "A#2",
                    "midi": 46,
                    "time": 507.7183020000108,
                    "velocity": 0.5511811023622047,
                    "duration": 0.09045400000002246
                },
                {
                    "name": "G2",
                    "midi": 43,
                    "time": 507.8087560000108,
                    "velocity": 0.5511811023622047,
                    "duration": 0.09045400000002246
                },
                {
                    "name": "E2",
                    "midi": 40,
                    "time": 507.89921000001084,
                    "velocity": 0.5511811023622047,
                    "duration": 0.09045400000002246
                },
                {
                    "name": "C2",
                    "midi": 36,
                    "time": 507.98966400001086,
                    "velocity": 0.5905511811023622,
                    "duration": 0.09045400000002246
                },
                {
                    "name": "E2",
                    "midi": 40,
                    "time": 508.0801180000109,
                    "velocity": 0.5275590551181102,
                    "duration": 0.09045400000002246
                },
                {
                    "name": "G2",
                    "midi": 43,
                    "time": 508.1705720000109,
                    "velocity": 0.5511811023622047,
                    "duration": 0.09045400000002246
                },
                {
                    "name": "A#2",
                    "midi": 46,
                    "time": 508.26102600001093,
                    "velocity": 0.5275590551181102,
                    "duration": 0.09045400000002246
                },
                {
                    "name": "C3",
                    "midi": 48,
                    "time": 508.35148000001095,
                    "velocity": 0.5511811023622047,
                    "duration": 0.09045400000002246
                },
                {
                    "name": "E3",
                    "midi": 52,
                    "time": 508.441934000011,
                    "velocity": 0.5354330708661418,
                    "duration": 0.09045400000002246
                },
                {
                    "name": "G3",
                    "midi": 55,
                    "time": 508.532388000011,
                    "velocity": 0.5984251968503937,
                    "duration": 0.09045400000002246
                },
                {
                    "name": "A#3",
                    "midi": 58,
                    "time": 508.622842000011,
                    "velocity": 0.5590551181102362,
                    "duration": 0.09045400000002246
                },
                {
                    "name": "C#3",
                    "midi": 49,
                    "time": 510.703284000011,
                    "velocity": 0.29133858267716534,
                    "duration": 0.18090799999998808
                },
                {
                    "name": "C#3",
                    "midi": 49,
                    "time": 510.884192000011,
                    "velocity": 0.2755905511811024,
                    "duration": 0.18090799999998808
                },
                {
                    "name": "C#3",
                    "midi": 49,
                    "time": 511.065100000011,
                    "velocity": 0.2755905511811024,
                    "duration": 0.18090799999998808
                },
                {
                    "name": "C3",
                    "midi": 48,
                    "time": 511.246008000011,
                    "velocity": 0.28346456692913385,
                    "duration": 0.36181599999997616
                },
                {
                    "name": "C#3",
                    "midi": 49,
                    "time": 512.8741800000109,
                    "velocity": 0.2755905511811024,
                    "duration": 0.18090800000004492
                },
                {
                    "name": "C#3",
                    "midi": 49,
                    "time": 513.055088000011,
                    "velocity": 0.25984251968503935,
                    "duration": 0.18090800000004492
                },
                {
                    "name": "C#3",
                    "midi": 49,
                    "time": 513.235996000011,
                    "velocity": 0.25984251968503935,
                    "duration": 0.18090800000004492
                },
                {
                    "name": "C3",
                    "midi": 48,
                    "time": 513.4169040000111,
                    "velocity": 0.2677165354330709,
                    "duration": 0.36181599999997616
                },
                {
                    "name": "C#2",
                    "midi": 37,
                    "time": 515.045076000011,
                    "velocity": 0.25196850393700787,
                    "duration": 0.18090800000004492
                },
                {
                    "name": "C#2",
                    "midi": 37,
                    "time": 515.2259840000111,
                    "velocity": 0.23622047244094488,
                    "duration": 0.18090800000004492
                },
                {
                    "name": "C#2",
                    "midi": 37,
                    "time": 515.4068920000111,
                    "velocity": 0.23622047244094488,
                    "duration": 0.18090800000004492
                },
                {
                    "name": "C2",
                    "midi": 36,
                    "time": 515.5878000000112,
                    "velocity": 0.2440944881889764,
                    "duration": 0.5427240000000211
                },
                {
                    "name": "C#2",
                    "midi": 37,
                    "time": 516.1305240000112,
                    "velocity": 0.2440944881889764,
                    "duration": 0.18090800000004492
                },
                {
                    "name": "C#2",
                    "midi": 37,
                    "time": 516.3114320000112,
                    "velocity": 0.2283464566929134,
                    "duration": 0.18090800000004492
                },
                {
                    "name": "C#2",
                    "midi": 37,
                    "time": 516.4923400000113,
                    "velocity": 0.2283464566929134,
                    "duration": 0.18090800000004492
                },
                {
                    "name": "C2",
                    "midi": 36,
                    "time": 516.6732480000113,
                    "velocity": 0.2283464566929134,
                    "duration": 0.5427240000000211
                },
                {
                    "name": "C#2",
                    "midi": 37,
                    "time": 517.2159720000113,
                    "velocity": 0.16535433070866143,
                    "duration": 0.18090800000004492
                },
                {
                    "name": "C#2",
                    "midi": 37,
                    "time": 517.3968800000114,
                    "velocity": 0.1889763779527559,
                    "duration": 0.18090800000004492
                },
                {
                    "name": "C#2",
                    "midi": 37,
                    "time": 517.5777880000114,
                    "velocity": 0.2047244094488189,
                    "duration": 0.18090800000004492
                },
                {
                    "name": "C2",
                    "midi": 36,
                    "time": 517.7586960000115,
                    "velocity": 0.2204724409448819,
                    "duration": 0.5427240000000211
                },
                {
                    "name": "C2",
                    "midi": 36,
                    "time": 518.3014200000115,
                    "velocity": 0.5511811023622047,
                    "duration": 0.18090800000004492
                },
                {
                    "name": "C3",
                    "midi": 48,
                    "time": 518.3014200000115,
                    "velocity": 0.6535433070866141,
                    "duration": 0.18090800000004492
                },
                {
                    "name": "C3",
                    "midi": 48,
                    "time": 518.4823280000115,
                    "velocity": 0.6141732283464567,
                    "duration": 0.18090800000004492
                },
                {
                    "name": "C2",
                    "midi": 36,
                    "time": 518.4823280000115,
                    "velocity": 0.5118110236220472,
                    "duration": 0.18090800000004492
                },
                {
                    "name": "C3",
                    "midi": 48,
                    "time": 518.6632360000116,
                    "velocity": 0.6141732283464567,
                    "duration": 0.18090800000004492
                },
                {
                    "name": "C2",
                    "midi": 36,
                    "time": 518.6632360000116,
                    "velocity": 0.5118110236220472,
                    "duration": 0.18090800000004492
                },
                {
                    "name": "F1",
                    "midi": 29,
                    "time": 518.8441440000116,
                    "velocity": 0.5590551181102362,
                    "duration": 0.18090800000004492
                },
                {
                    "name": "F2",
                    "midi": 41,
                    "time": 518.8441440000116,
                    "velocity": 0.6692913385826772,
                    "duration": 0.18090800000004492
                },
                {
                    "name": "F4",
                    "midi": 65,
                    "time": 519.0250520000117,
                    "velocity": 0.23622047244094488,
                    "duration": 0.18090800000004492
                },
                {
                    "name": "C4",
                    "midi": 60,
                    "time": 519.0250520000117,
                    "velocity": 0.23622047244094488,
                    "duration": 0.18090800000004492
                },
                {
                    "name": "G#3",
                    "midi": 56,
                    "time": 519.2059600000117,
                    "velocity": 0.29133858267716534,
                    "duration": 0.18090800000004492
                },
                {
                    "name": "F4",
                    "midi": 65,
                    "time": 519.3868680000118,
                    "velocity": 0.33070866141732286,
                    "duration": 0.18090800000004492
                },
                {
                    "name": "C4",
                    "midi": 60,
                    "time": 519.3868680000118,
                    "velocity": 0.25196850393700787,
                    "duration": 0.18090800000004492
                },
                {
                    "name": "G#3",
                    "midi": 56,
                    "time": 519.5677760000118,
                    "velocity": 0.29133858267716534,
                    "duration": 0.18090800000004492
                },
                {
                    "name": "C4",
                    "midi": 60,
                    "time": 519.7486840000118,
                    "velocity": 0.23622047244094488,
                    "duration": 0.18090800000004492
                },
                {
                    "name": "F4",
                    "midi": 65,
                    "time": 519.7486840000118,
                    "velocity": 0.29133858267716534,
                    "duration": 0.18090800000004492
                },
                {
                    "name": "G#3",
                    "midi": 56,
                    "time": 519.9295920000119,
                    "velocity": 0.33070866141732286,
                    "duration": 0.18090800000004492
                },
                {
                    "name": "F4",
                    "midi": 65,
                    "time": 520.1105000000119,
                    "velocity": 0.29133858267716534,
                    "duration": 0.18090800000004492
                },
                {
                    "name": "C4",
                    "midi": 60,
                    "time": 520.1105000000119,
                    "velocity": 0.23622047244094488,
                    "duration": 0.18090800000004492
                },
                {
                    "name": "G#3",
                    "midi": 56,
                    "time": 520.291408000012,
                    "velocity": 0.29133858267716534,
                    "duration": 0.18090800000004492
                },
                {
                    "name": "F4",
                    "midi": 65,
                    "time": 520.472316000012,
                    "velocity": 0.33070866141732286,
                    "duration": 0.18090800000004492
                },
                {
                    "name": "C4",
                    "midi": 60,
                    "time": 520.472316000012,
                    "velocity": 0.25196850393700787,
                    "duration": 0.18090800000004492
                },
                {
                    "name": "G#3",
                    "midi": 56,
                    "time": 520.6532240000121,
                    "velocity": 0.29133858267716534,
                    "duration": 0.18090800000004492
                },
                {
                    "name": "F4",
                    "midi": 65,
                    "time": 520.8341320000121,
                    "velocity": 0.3228346456692913,
                    "duration": 0.18090800000004492
                },
                {
                    "name": "C4",
                    "midi": 60,
                    "time": 520.8341320000121,
                    "velocity": 0.2440944881889764,
                    "duration": 0.18090800000004492
                },
                {
                    "name": "G#3",
                    "midi": 56,
                    "time": 521.0150400000122,
                    "velocity": 0.33070866141732286,
                    "duration": 0.18090800000004492
                },
                {
                    "name": "C4",
                    "midi": 60,
                    "time": 521.1959480000122,
                    "velocity": 0.23622047244094488,
                    "duration": 0.18090800000004492
                },
                {
                    "name": "F4",
                    "midi": 65,
                    "time": 521.1959480000122,
                    "velocity": 0.28346456692913385,
                    "duration": 0.18090800000004492
                },
                {
                    "name": "G#3",
                    "midi": 56,
                    "time": 521.3768560000123,
                    "velocity": 0.29133858267716534,
                    "duration": 0.18090800000004492
                },
                {
                    "name": "F4",
                    "midi": 65,
                    "time": 521.5577640000123,
                    "velocity": 0.33070866141732286,
                    "duration": 0.18090800000004492
                },
                {
                    "name": "C4",
                    "midi": 60,
                    "time": 521.5577640000123,
                    "velocity": 0.25196850393700787,
                    "duration": 0.18090800000004492
                },
                {
                    "name": "G#3",
                    "midi": 56,
                    "time": 521.7386720000123,
                    "velocity": 0.29133858267716534,
                    "duration": 0.18090800000004492
                },
                {
                    "name": "F4",
                    "midi": 65,
                    "time": 521.9195800000124,
                    "velocity": 0.29133858267716534,
                    "duration": 0.18090800000004492
                },
                {
                    "name": "C4",
                    "midi": 60,
                    "time": 521.9195800000124,
                    "velocity": 0.23622047244094488,
                    "duration": 0.18090800000004492
                },
                {
                    "name": "A#3",
                    "midi": 58,
                    "time": 522.1004880000124,
                    "velocity": 0.33070866141732286,
                    "duration": 0.18090800000004492
                },
                {
                    "name": "G4",
                    "midi": 67,
                    "time": 522.2813960000125,
                    "velocity": 0.29133858267716534,
                    "duration": 0.18090800000004492
                },
                {
                    "name": "C4",
                    "midi": 60,
                    "time": 522.2813960000125,
                    "velocity": 0.23622047244094488,
                    "duration": 0.18090800000004492
                },
                {
                    "name": "A#3",
                    "midi": 58,
                    "time": 522.4623040000125,
                    "velocity": 0.29133858267716534,
                    "duration": 0.18090800000004492
                },
                {
                    "name": "G4",
                    "midi": 67,
                    "time": 522.6432120000126,
                    "velocity": 0.33070866141732286,
                    "duration": 0.18090800000004492
                },
                {
                    "name": "C4",
                    "midi": 60,
                    "time": 522.6432120000126,
                    "velocity": 0.25196850393700787,
                    "duration": 0.18090800000004492
                },
                {
                    "name": "A#3",
                    "midi": 58,
                    "time": 522.8241200000126,
                    "velocity": 0.29133858267716534,
                    "duration": 0.18090800000004492
                },
                {
                    "name": "G4",
                    "midi": 67,
                    "time": 523.0050280000127,
                    "velocity": 0.3228346456692913,
                    "duration": 0.18090800000004492
                },
                {
                    "name": "C4",
                    "midi": 60,
                    "time": 523.0050280000127,
                    "velocity": 0.2440944881889764,
                    "duration": 0.18090800000004492
                },
                {
                    "name": "G#3",
                    "midi": 56,
                    "time": 523.1859360000127,
                    "velocity": 0.33070866141732286,
                    "duration": 0.18090800000004492
                },
                {
                    "name": "C4",
                    "midi": 60,
                    "time": 523.3668440000127,
                    "velocity": 0.23622047244094488,
                    "duration": 0.18090800000004492
                },
                {
                    "name": "F4",
                    "midi": 65,
                    "time": 523.3668440000127,
                    "velocity": 0.28346456692913385,
                    "duration": 0.18090800000004492
                },
                {
                    "name": "G#3",
                    "midi": 56,
                    "time": 523.5477520000128,
                    "velocity": 0.29133858267716534,
                    "duration": 0.18090800000004492
                },
                {
                    "name": "C4",
                    "midi": 60,
                    "time": 523.7286600000128,
                    "velocity": 0.25196850393700787,
                    "duration": 0.18090800000004492
                },
                {
                    "name": "F4",
                    "midi": 65,
                    "time": 523.7286600000128,
                    "velocity": 0.33070866141732286,
                    "duration": 0.18090800000004492
                },
                {
                    "name": "G#3",
                    "midi": 56,
                    "time": 523.9095680000129,
                    "velocity": 0.29133858267716534,
                    "duration": 0.18090800000004492
                },
                {
                    "name": "C4",
                    "midi": 60,
                    "time": 524.0904760000129,
                    "velocity": 0.23622047244094488,
                    "duration": 0.18090800000004492
                },
                {
                    "name": "F4",
                    "midi": 65,
                    "time": 524.0904760000129,
                    "velocity": 0.29133858267716534,
                    "duration": 0.18090800000004492
                },
                {
                    "name": "G#3",
                    "midi": 56,
                    "time": 524.271384000013,
                    "velocity": 0.33070866141732286,
                    "duration": 0.18090800000004492
                },
                {
                    "name": "C4",
                    "midi": 60,
                    "time": 524.452292000013,
                    "velocity": 0.23622047244094488,
                    "duration": 0.18090800000004492
                },
                {
                    "name": "F4",
                    "midi": 65,
                    "time": 524.452292000013,
                    "velocity": 0.29133858267716534,
                    "duration": 0.18090800000004492
                },
                {
                    "name": "G#3",
                    "midi": 56,
                    "time": 524.6332000000131,
                    "velocity": 0.33070866141732286,
                    "duration": 0.18090800000004492
                },
                {
                    "name": "C4",
                    "midi": 60,
                    "time": 524.8141080000131,
                    "velocity": 0.2677165354330709,
                    "duration": 0.18090800000004492
                },
                {
                    "name": "F4",
                    "midi": 65,
                    "time": 524.8141080000131,
                    "velocity": 0.3464566929133858,
                    "duration": 0.18090800000004492
                },
                {
                    "name": "G#3",
                    "midi": 56,
                    "time": 524.9950160000132,
                    "velocity": 0.31496062992125984,
                    "duration": 0.18090800000004492
                },
                {
                    "name": "C4",
                    "midi": 60,
                    "time": 525.1759240000132,
                    "velocity": 0.25984251968503935,
                    "duration": 0.18090800000004492
                },
                {
                    "name": "F4",
                    "midi": 65,
                    "time": 525.1759240000132,
                    "velocity": 0.3464566929133858,
                    "duration": 0.18090800000004492
                },
                {
                    "name": "G#3",
                    "midi": 56,
                    "time": 525.3568320000132,
                    "velocity": 0.36220472440944884,
                    "duration": 0.18090800000004492
                },
                {
                    "name": "G#4",
                    "midi": 68,
                    "time": 525.5377400000133,
                    "velocity": 0.31496062992125984,
                    "duration": 0.18090800000004492
                },
                {
                    "name": "C4",
                    "midi": 60,
                    "time": 525.5377400000133,
                    "velocity": 0.2677165354330709,
                    "duration": 0.18090800000004492
                },
                {
                    "name": "F4",
                    "midi": 65,
                    "time": 525.5377400000133,
                    "velocity": 0.31496062992125984,
                    "duration": 0.18090800000004492
                },
                {
                    "name": "G#3",
                    "midi": 56,
                    "time": 525.7186480000133,
                    "velocity": 0.33070866141732286,
                    "duration": 0.18090800000004492
                },
                {
                    "name": "G#4",
                    "midi": 68,
                    "time": 525.8995560000134,
                    "velocity": 0.3700787401574803,
                    "duration": 0.18090800000004492
                },
                {
                    "name": "C4",
                    "midi": 60,
                    "time": 525.8995560000134,
                    "velocity": 0.28346456692913385,
                    "duration": 0.18090800000004492
                },
                {
                    "name": "F4",
                    "midi": 65,
                    "time": 525.8995560000134,
                    "velocity": 0.3700787401574803,
                    "duration": 0.18090800000004492
                },
                {
                    "name": "G#3",
                    "midi": 56,
                    "time": 526.0804640000134,
                    "velocity": 0.33858267716535434,
                    "duration": 0.18090800000004492
                },
                {
                    "name": "G#4",
                    "midi": 68,
                    "time": 526.2613720000135,
                    "velocity": 0.3464566929133858,
                    "duration": 0.18090800000004492
                },
                {
                    "name": "F4",
                    "midi": 65,
                    "time": 526.2613720000135,
                    "velocity": 0.3464566929133858,
                    "duration": 0.18090800000004492
                },
                {
                    "name": "C4",
                    "midi": 60,
                    "time": 526.2613720000135,
                    "velocity": 0.28346456692913385,
                    "duration": 0.18090800000004492
                },
                {
                    "name": "A#3",
                    "midi": 58,
                    "time": 526.4422800000135,
                    "velocity": 0.3858267716535433,
                    "duration": 0.18090800000004492
                },
                {
                    "name": "E4",
                    "midi": 64,
                    "time": 526.6231880000136,
                    "velocity": 0.28346456692913385,
                    "duration": 0.18090800000004492
                },
                {
                    "name": "C4",
                    "midi": 60,
                    "time": 526.6231880000136,
                    "velocity": 0.28346456692913385,
                    "duration": 0.18090800000004492
                },
                {
                    "name": "G4",
                    "midi": 67,
                    "time": 526.6231880000136,
                    "velocity": 0.3543307086614173,
                    "duration": 0.18090800000004492
                },
                {
                    "name": "A#3",
                    "midi": 58,
                    "time": 526.8040960000136,
                    "velocity": 0.36220472440944884,
                    "duration": 0.18090800000004492
                },
                {
                    "name": "E4",
                    "midi": 64,
                    "time": 526.9850040000136,
                    "velocity": 0.30708661417322836,
                    "duration": 0.18090800000004492
                },
                {
                    "name": "G4",
                    "midi": 67,
                    "time": 526.9850040000136,
                    "velocity": 0.4015748031496063,
                    "duration": 0.18090800000004492
                },
                {
                    "name": "C4",
                    "midi": 60,
                    "time": 526.9850040000136,
                    "velocity": 0.30708661417322836,
                    "duration": 0.18090800000004492
                },
                {
                    "name": "A#3",
                    "midi": 58,
                    "time": 527.1659120000137,
                    "velocity": 0.3700787401574803,
                    "duration": 0.18090800000004492
                },
                {
                    "name": "E4",
                    "midi": 64,
                    "time": 527.3468200000137,
                    "velocity": 0.2992125984251969,
                    "duration": 0.18090800000004492
                },
                {
                    "name": "G4",
                    "midi": 67,
                    "time": 527.3468200000137,
                    "velocity": 0.4015748031496063,
                    "duration": 0.18090800000004492
                },
                {
                    "name": "C4",
                    "midi": 60,
                    "time": 527.3468200000137,
                    "velocity": 0.2992125984251969,
                    "duration": 0.18090800000004492
                },
                {
                    "name": "A3",
                    "midi": 57,
                    "time": 527.5277280000138,
                    "velocity": 0.4330708661417323,
                    "duration": 0.18090800000004492
                },
                {
                    "name": "F#4",
                    "midi": 66,
                    "time": 527.7086360000138,
                    "velocity": 0.3779527559055118,
                    "duration": 0.18090800000004492
                },
                {
                    "name": "D#4",
                    "midi": 63,
                    "time": 527.7086360000138,
                    "velocity": 0.3779527559055118,
                    "duration": 0.18090800000004492
                },
                {
                    "name": "C4",
                    "midi": 60,
                    "time": 527.7086360000138,
                    "velocity": 0.30708661417322836,
                    "duration": 0.18090800000004492
                },
                {
                    "name": "A3",
                    "midi": 57,
                    "time": 527.8895440000139,
                    "velocity": 0.3858267716535433,
                    "duration": 0.18090800000004492
                },
                {
                    "name": "F#4",
                    "midi": 66,
                    "time": 528.0704520000139,
                    "velocity": 0.4330708661417323,
                    "duration": 0.18090800000004492
                },
                {
                    "name": "C4",
                    "midi": 60,
                    "time": 528.0704520000139,
                    "velocity": 0.3228346456692913,
                    "duration": 0.18090800000004492
                },
                {
                    "name": "D#4",
                    "midi": 63,
                    "time": 528.0704520000139,
                    "velocity": 0.4330708661417323,
                    "duration": 0.18090800000004492
                },
                {
                    "name": "A3",
                    "midi": 57,
                    "time": 528.251360000014,
                    "velocity": 0.3858267716535433,
                    "duration": 0.18090800000004492
                },
                {
                    "name": "C4",
                    "midi": 60,
                    "time": 528.432268000014,
                    "velocity": 0.30708661417322836,
                    "duration": 0.18090800000004492
                },
                {
                    "name": "D#4",
                    "midi": 63,
                    "time": 528.432268000014,
                    "velocity": 0.3858267716535433,
                    "duration": 0.18090800000004492
                },
                {
                    "name": "F#4",
                    "midi": 66,
                    "time": 528.432268000014,
                    "velocity": 0.3858267716535433,
                    "duration": 0.18090800000004492
                },
                {
                    "name": "A3",
                    "midi": 57,
                    "time": 528.613176000014,
                    "velocity": 0.4330708661417323,
                    "duration": 0.18090800000004492
                },
                {
                    "name": "F#4",
                    "midi": 66,
                    "time": 528.7940840000141,
                    "velocity": 0.3858267716535433,
                    "duration": 0.18090800000004492
                },
                {
                    "name": "C4",
                    "midi": 60,
                    "time": 528.7940840000141,
                    "velocity": 0.30708661417322836,
                    "duration": 0.18090800000004492
                },
                {
                    "name": "D#4",
                    "midi": 63,
                    "time": 528.7940840000141,
                    "velocity": 0.3858267716535433,
                    "duration": 0.18090800000004492
                },
                {
                    "name": "A3",
                    "midi": 57,
                    "time": 528.9749920000141,
                    "velocity": 0.4330708661417323,
                    "duration": 0.18090800000004492
                },
                {
                    "name": "D#4",
                    "midi": 63,
                    "time": 529.1559000000142,
                    "velocity": 0.31496062992125984,
                    "duration": 0.18090800000004492
                },
                {
                    "name": "F#4",
                    "midi": 66,
                    "time": 529.1559000000142,
                    "velocity": 0.41732283464566927,
                    "duration": 0.18090800000004492
                },
                {
                    "name": "C4",
                    "midi": 60,
                    "time": 529.1559000000142,
                    "velocity": 0.31496062992125984,
                    "duration": 0.18090800000004492
                },
                {
                    "name": "A3",
                    "midi": 57,
                    "time": 529.3368080000142,
                    "velocity": 0.3779527559055118,
                    "duration": 0.18090800000004492
                },
                {
                    "name": "D#4",
                    "midi": 63,
                    "time": 529.5177160000143,
                    "velocity": 0.30708661417322836,
                    "duration": 0.18090800000004492
                },
                {
                    "name": "F#4",
                    "midi": 66,
                    "time": 529.5177160000143,
                    "velocity": 0.4094488188976378,
                    "duration": 0.18090800000004492
                },
                {
                    "name": "C4",
                    "midi": 60,
                    "time": 529.5177160000143,
                    "velocity": 0.30708661417322836,
                    "duration": 0.18090800000004492
                },
                {
                    "name": "A3",
                    "midi": 57,
                    "time": 529.6986240000143,
                    "velocity": 0.4330708661417323,
                    "duration": 0.18090800000004492
                },
                {
                    "name": "F4",
                    "midi": 65,
                    "time": 529.8795320000144,
                    "velocity": 0.3779527559055118,
                    "duration": 0.18090800000004492
                },
                {
                    "name": "D#4",
                    "midi": 63,
                    "time": 529.8795320000144,
                    "velocity": 0.3779527559055118,
                    "duration": 0.18090800000004492
                },
                {
                    "name": "C4",
                    "midi": 60,
                    "time": 529.8795320000144,
                    "velocity": 0.30708661417322836,
                    "duration": 0.18090800000004492
                },
                {
                    "name": "A3",
                    "midi": 57,
                    "time": 530.0604400000144,
                    "velocity": 0.3858267716535433,
                    "duration": 0.18090800000004492
                },
                {
                    "name": "F4",
                    "midi": 65,
                    "time": 530.2413480000145,
                    "velocity": 0.4330708661417323,
                    "duration": 0.18090800000004492
                },
                {
                    "name": "C#4",
                    "midi": 61,
                    "time": 530.2413480000145,
                    "velocity": 0.4330708661417323,
                    "duration": 0.18090800000004492
                },
                {
                    "name": "A#3",
                    "midi": 58,
                    "time": 530.4222560000145,
                    "velocity": 0.3858267716535433,
                    "duration": 0.18090800000004492
                },
                {
                    "name": "C#4",
                    "midi": 61,
                    "time": 530.6031640000145,
                    "velocity": 0.3858267716535433,
                    "duration": 0.18090800000004492
                },
                {
                    "name": "F4",
                    "midi": 65,
                    "time": 530.6031640000145,
                    "velocity": 0.3858267716535433,
                    "duration": 0.18090800000004492
                },
                {
                    "name": "A#3",
                    "midi": 58,
                    "time": 530.7840720000146,
                    "velocity": 0.4330708661417323,
                    "duration": 0.18090800000004492
                },
                {
                    "name": "F4",
                    "midi": 65,
                    "time": 530.9649800000146,
                    "velocity": 0.3858267716535433,
                    "duration": 0.18090800000004492
                },
                {
                    "name": "C#4",
                    "midi": 61,
                    "time": 530.9649800000146,
                    "velocity": 0.3858267716535433,
                    "duration": 0.18090800000004492
                },
                {
                    "name": "A#3",
                    "midi": 58,
                    "time": 531.1458880000147,
                    "velocity": 0.4330708661417323,
                    "duration": 0.18090800000004492
                },
                {
                    "name": "G4",
                    "midi": 67,
                    "time": 531.3267960000147,
                    "velocity": 0.41732283464566927,
                    "duration": 0.18090800000004492
                },
                {
                    "name": "E4",
                    "midi": 64,
                    "time": 531.3267960000147,
                    "velocity": 0.31496062992125984,
                    "duration": 0.18090800000004492
                },
                {
                    "name": "A#3",
                    "midi": 58,
                    "time": 531.5077040000148,
                    "velocity": 0.3779527559055118,
                    "duration": 0.18090800000004492
                },
                {
                    "name": "E4",
                    "midi": 64,
                    "time": 531.6886120000148,
                    "velocity": 0.30708661417322836,
                    "duration": 0.18090800000004492
                },
                {
                    "name": "G4",
                    "midi": 67,
                    "time": 531.6886120000148,
                    "velocity": 0.4094488188976378,
                    "duration": 0.18090800000004492
                },
                {
                    "name": "C3",
                    "midi": 48,
                    "time": 531.8695200000149,
                    "velocity": 0.4330708661417323,
                    "duration": 0.18090800000004492
                },
                {
                    "name": "F3",
                    "midi": 53,
                    "time": 532.0504280000149,
                    "velocity": 0.30708661417322836,
                    "duration": 0.18090800000004492
                },
                {
                    "name": "G#3",
                    "midi": 56,
                    "time": 532.0504280000149,
                    "velocity": 0.3779527559055118,
                    "duration": 0.18090800000004492
                },
                {
                    "name": "C4",
                    "midi": 60,
                    "time": 532.0504280000149,
                    "velocity": 0.3779527559055118,
                    "duration": 0.18090800000004492
                },
                {
                    "name": "C3",
                    "midi": 48,
                    "time": 532.231336000015,
                    "velocity": 0.3858267716535433,
                    "duration": 0.18090800000004492
                },
                {
                    "name": "G#3",
                    "midi": 56,
                    "time": 532.412244000015,
                    "velocity": 0.31496062992125984,
                    "duration": 0.18090800000004492
                },
                {
                    "name": "C4",
                    "midi": 60,
                    "time": 532.412244000015,
                    "velocity": 0.41732283464566927,
                    "duration": 0.18090800000004492
                },
                {
                    "name": "F3",
                    "midi": 53,
                    "time": 532.412244000015,
                    "velocity": 0.31496062992125984,
                    "duration": 0.18090800000004492
                },
                {
                    "name": "C3",
                    "midi": 48,
                    "time": 532.593152000015,
                    "velocity": 0.3779527559055118,
                    "duration": 0.18090800000004492
                },
                {
                    "name": "G#3",
                    "midi": 56,
                    "time": 532.7740600000151,
                    "velocity": 0.30708661417322836,
                    "duration": 0.18090800000004492
                },
                {
                    "name": "F3",
                    "midi": 53,
                    "time": 532.7740600000151,
                    "velocity": 0.30708661417322836,
                    "duration": 0.18090800000004492
                },
                {
                    "name": "C4",
                    "midi": 60,
                    "time": 532.7740600000151,
                    "velocity": 0.4094488188976378,
                    "duration": 0.18090800000004492
                },
                {
                    "name": "A#2",
                    "midi": 46,
                    "time": 532.9549680000151,
                    "velocity": 0.4330708661417323,
                    "duration": 0.18090800000004492
                },
                {
                    "name": "C3",
                    "midi": 48,
                    "time": 533.1358760000152,
                    "velocity": 0.30708661417322836,
                    "duration": 0.18090800000004492
                },
                {
                    "name": "E3",
                    "midi": 52,
                    "time": 533.1358760000152,
                    "velocity": 0.3779527559055118,
                    "duration": 0.18090800000004492
                },
                {
                    "name": "G3",
                    "midi": 55,
                    "time": 533.1358760000152,
                    "velocity": 0.3779527559055118,
                    "duration": 0.18090800000004492
                },
                {
                    "name": "A#2",
                    "midi": 46,
                    "time": 533.3167840000152,
                    "velocity": 0.3858267716535433,
                    "duration": 0.18090800000004492
                },
                {
                    "name": "E3",
                    "midi": 52,
                    "time": 533.4976920000153,
                    "velocity": 0.30708661417322836,
                    "duration": 0.18090800000004492
                },
                {
                    "name": "C3",
                    "midi": 48,
                    "time": 533.4976920000153,
                    "velocity": 0.30708661417322836,
                    "duration": 0.18090800000004492
                },
                {
                    "name": "G3",
                    "midi": 55,
                    "time": 533.4976920000153,
                    "velocity": 0.4015748031496063,
                    "duration": 0.18090800000004492
                },
                {
                    "name": "A#2",
                    "midi": 46,
                    "time": 533.6786000000153,
                    "velocity": 0.3700787401574803,
                    "duration": 0.18090800000004492
                },
                {
                    "name": "G3",
                    "midi": 55,
                    "time": 533.8595080000154,
                    "velocity": 0.3937007874015748,
                    "duration": 0.18090800000004492
                },
                {
                    "name": "C3",
                    "midi": 48,
                    "time": 533.8595080000154,
                    "velocity": 0.2992125984251969,
                    "duration": 0.18090800000004492
                },
                {
                    "name": "E3",
                    "midi": 52,
                    "time": 533.8595080000154,
                    "velocity": 0.2992125984251969,
                    "duration": 0.18090800000004492
                },
                {
                    "name": "A2",
                    "midi": 45,
                    "time": 534.0404160000154,
                    "velocity": 0.41732283464566927,
                    "duration": 0.18090800000004492
                },
                {
                    "name": "D#3",
                    "midi": 51,
                    "time": 534.2213240000154,
                    "velocity": 0.2992125984251969,
                    "duration": 0.18090800000004492
                },
                {
                    "name": "A3",
                    "midi": 57,
                    "time": 534.2213240000154,
                    "velocity": 0.3700787401574803,
                    "duration": 0.18090800000004492
                },
                {
                    "name": "F#3",
                    "midi": 54,
                    "time": 534.2213240000154,
                    "velocity": 0.3700787401574803,
                    "duration": 0.18090800000004492
                },
                {
                    "name": "A2",
                    "midi": 45,
                    "time": 534.3871563333488,
                    "velocity": 0.3779527559055118,
                    "duration": 0.18090800000004492
                },
                {
                    "name": "D#3",
                    "midi": 51,
                    "time": 534.5831400000155,
                    "velocity": 0.41732283464566927,
                    "duration": 0.18090800000004492
                },
                {
                    "name": "A3",
                    "midi": 57,
                    "time": 534.5831400000155,
                    "velocity": 0.41732283464566927,
                    "duration": 0.18090800000004492
                },
                {
                    "name": "F#3",
                    "midi": 54,
                    "time": 534.5831400000155,
                    "velocity": 0.41732283464566927,
                    "duration": 0.18090800000004492
                },
                {
                    "name": "A2",
                    "midi": 45,
                    "time": 534.7640480000156,
                    "velocity": 0.3779527559055118,
                    "duration": 0.18090800000004492
                },
                {
                    "name": "D#3",
                    "midi": 51,
                    "time": 534.9449560000156,
                    "velocity": 0.3779527559055118,
                    "duration": 0.18090800000004492
                },
                {
                    "name": "A3",
                    "midi": 57,
                    "time": 534.9449560000156,
                    "velocity": 0.3779527559055118,
                    "duration": 0.18090800000004492
                },
                {
                    "name": "F#3",
                    "midi": 54,
                    "time": 534.9449560000156,
                    "velocity": 0.3779527559055118,
                    "duration": 0.18090800000004492
                },
                {
                    "name": "A2",
                    "midi": 45,
                    "time": 535.1258640000157,
                    "velocity": 0.41732283464566927,
                    "duration": 0.18090800000004492
                },
                {
                    "name": "D#3",
                    "midi": 51,
                    "time": 535.3067720000157,
                    "velocity": 0.3779527559055118,
                    "duration": 0.18090800000004492
                },
                {
                    "name": "A3",
                    "midi": 57,
                    "time": 535.3067720000157,
                    "velocity": 0.3779527559055118,
                    "duration": 0.18090800000004492
                },
                {
                    "name": "F#3",
                    "midi": 54,
                    "time": 535.3067720000157,
                    "velocity": 0.3779527559055118,
                    "duration": 0.18090800000004492
                },
                {
                    "name": "A2",
                    "midi": 45,
                    "time": 535.4876800000158,
                    "velocity": 0.41732283464566927,
                    "duration": 0.18090800000004492
                },
                {
                    "name": "F#3",
                    "midi": 54,
                    "time": 535.6685880000158,
                    "velocity": 0.3543307086614173,
                    "duration": 0.18090800000004492
                },
                {
                    "name": "A3",
                    "midi": 57,
                    "time": 535.6685880000158,
                    "velocity": 0.4645669291338583,
                    "duration": 0.18090800000004492
                },
                {
                    "name": "D#3",
                    "midi": 51,
                    "time": 535.6685880000158,
                    "velocity": 0.3543307086614173,
                    "duration": 0.18090800000004492
                },
                {
                    "name": "A2",
                    "midi": 45,
                    "time": 535.8494960000158,
                    "velocity": 0.3858267716535433,
                    "duration": 0.18090800000004492
                },
                {
                    "name": "F#3",
                    "midi": 54,
                    "time": 536.0304040000159,
                    "velocity": 0.30708661417322836,
                    "duration": 0.18090800000004492
                },
                {
                    "name": "A3",
                    "midi": 57,
                    "time": 536.0304040000159,
                    "velocity": 0.4330708661417323,
                    "duration": 0.18090800000004492
                },
                {
                    "name": "D#3",
                    "midi": 51,
                    "time": 536.0304040000159,
                    "velocity": 0.30708661417322836,
                    "duration": 0.18090800000004492
                },
                {
                    "name": "A2",
                    "midi": 45,
                    "time": 536.2113120000159,
                    "velocity": 0.44881889763779526,
                    "duration": 0.18090800000004492
                },
                {
                    "name": "A3",
                    "midi": 57,
                    "time": 536.392220000016,
                    "velocity": 0.3858267716535433,
                    "duration": 0.18090800000004492
                },
                {
                    "name": "F3",
                    "midi": 53,
                    "time": 536.392220000016,
                    "velocity": 0.3858267716535433,
                    "duration": 0.18090800000004492
                },
                {
                    "name": "D#3",
                    "midi": 51,
                    "time": 536.392220000016,
                    "velocity": 0.30708661417322836,
                    "duration": 0.18090800000004492
                },
                {
                    "name": "A2",
                    "midi": 45,
                    "time": 536.573128000016,
                    "velocity": 0.3858267716535433,
                    "duration": 0.18090800000004492
                },
                {
                    "name": "C#3",
                    "midi": 49,
                    "time": 536.7540360000161,
                    "velocity": 0.44881889763779526,
                    "duration": 0.18090800000004492
                },
                {
                    "name": "F3",
                    "midi": 53,
                    "time": 536.7540360000161,
                    "velocity": 0.44881889763779526,
                    "duration": 0.18090800000004492
                },
                {
                    "name": "A#3",
                    "midi": 58,
                    "time": 536.7540360000161,
                    "velocity": 0.44881889763779526,
                    "duration": 0.18090800000004492
                },
                {
                    "name": "A#2",
                    "midi": 46,
                    "time": 536.9349440000161,
                    "velocity": 0.3858267716535433,
                    "duration": 0.18090800000004492
                },
                {
                    "name": "C#3",
                    "midi": 49,
                    "time": 537.1158520000162,
                    "velocity": 0.3858267716535433,
                    "duration": 0.18090800000004492
                },
                {
                    "name": "F3",
                    "midi": 53,
                    "time": 537.1158520000162,
                    "velocity": 0.3858267716535433,
                    "duration": 0.18090800000004492
                },
                {
                    "name": "A#3",
                    "midi": 58,
                    "time": 537.1158520000162,
                    "velocity": 0.3858267716535433,
                    "duration": 0.18090800000004492
                },
                {
                    "name": "A#2",
                    "midi": 46,
                    "time": 537.2967600000162,
                    "velocity": 0.44881889763779526,
                    "duration": 0.18090800000004492
                },
                {
                    "name": "C#3",
                    "midi": 49,
                    "time": 537.4776680000163,
                    "velocity": 0.3858267716535433,
                    "duration": 0.18090800000004492
                },
                {
                    "name": "F3",
                    "midi": 53,
                    "time": 537.4776680000163,
                    "velocity": 0.3858267716535433,
                    "duration": 0.18090800000004492
                },
                {
                    "name": "A#3",
                    "midi": 58,
                    "time": 537.4776680000163,
                    "velocity": 0.3858267716535433,
                    "duration": 0.18090800000004492
                },
                {
                    "name": "A#2",
                    "midi": 46,
                    "time": 537.6585760000163,
                    "velocity": 0.44881889763779526,
                    "duration": 0.18090800000004492
                },
                {
                    "name": "G3",
                    "midi": 55,
                    "time": 537.8394840000163,
                    "velocity": 0.4409448818897638,
                    "duration": 0.18090800000004492
                },
                {
                    "name": "A#3",
                    "midi": 58,
                    "time": 537.8394840000163,
                    "velocity": 0.4409448818897638,
                    "duration": 0.18090800000004492
                },
                {
                    "name": "E3",
                    "midi": 52,
                    "time": 537.8394840000163,
                    "velocity": 0.31496062992125984,
                    "duration": 0.18090800000004492
                },
                {
                    "name": "A#2",
                    "midi": 46,
                    "time": 538.0203920000164,
                    "velocity": 0.3858267716535433,
                    "duration": 0.18090800000004492
                },
                {
                    "name": "E3",
                    "midi": 52,
                    "time": 538.2013000000164,
                    "velocity": 0.30708661417322836,
                    "duration": 0.18090800000004492
                },
                {
                    "name": "A#3",
                    "midi": 58,
                    "time": 538.2013000000164,
                    "velocity": 0.4330708661417323,
                    "duration": 0.18090800000004492
                },
                {
                    "name": "G3",
                    "midi": 55,
                    "time": 538.2013000000164,
                    "velocity": 0.4330708661417323,
                    "duration": 0.18090800000004492
                },
                {
                    "name": "C3",
                    "midi": 48,
                    "time": 538.3822080000165,
                    "velocity": 0.44881889763779526,
                    "duration": 0.18090800000004492
                },
                {
                    "name": "C4",
                    "midi": 60,
                    "time": 538.5631160000165,
                    "velocity": 0.3858267716535433,
                    "duration": 0.18090800000004492
                },
                {
                    "name": "G#3",
                    "midi": 56,
                    "time": 538.5631160000165,
                    "velocity": 0.3858267716535433,
                    "duration": 0.18090800000004492
                },
                {
                    "name": "F3",
                    "midi": 53,
                    "time": 538.5631160000165,
                    "velocity": 0.30708661417322836,
                    "duration": 0.18090800000004492
                },
                {
                    "name": "C3",
                    "midi": 48,
                    "time": 538.7440240000166,
                    "velocity": 0.3858267716535433,
                    "duration": 0.18090800000004492
                },
                {
                    "name": "F3",
                    "midi": 53,
                    "time": 538.9249320000166,
                    "velocity": 0.31496062992125984,
                    "duration": 0.18090800000004492
                },
                {
                    "name": "C4",
                    "midi": 60,
                    "time": 538.9249320000166,
                    "velocity": 0.4409448818897638,
                    "duration": 0.18090800000004492
                },
                {
                    "name": "G#3",
                    "midi": 56,
                    "time": 538.9249320000166,
                    "velocity": 0.31496062992125984,
                    "duration": 0.18090800000004492
                },
                {
                    "name": "C3",
                    "midi": 48,
                    "time": 539.1058400000167,
                    "velocity": 0.3858267716535433,
                    "duration": 0.18090800000004492
                },
                {
                    "name": "F3",
                    "midi": 53,
                    "time": 539.2867480000167,
                    "velocity": 0.30708661417322836,
                    "duration": 0.18090800000004492
                },
                {
                    "name": "C4",
                    "midi": 60,
                    "time": 539.2867480000167,
                    "velocity": 0.4330708661417323,
                    "duration": 0.18090800000004492
                },
                {
                    "name": "G#3",
                    "midi": 56,
                    "time": 539.2867480000167,
                    "velocity": 0.30708661417322836,
                    "duration": 0.18090800000004492
                },
                {
                    "name": "C3",
                    "midi": 48,
                    "time": 539.4676560000167,
                    "velocity": 0.44881889763779526,
                    "duration": 0.18090800000004492
                },
                {
                    "name": "C4",
                    "midi": 60,
                    "time": 539.6485640000168,
                    "velocity": 0.3858267716535433,
                    "duration": 0.18090800000004492
                },
                {
                    "name": "E3",
                    "midi": 52,
                    "time": 539.6485640000168,
                    "velocity": 0.3858267716535433,
                    "duration": 0.18090800000004492
                },
                {
                    "name": "G3",
                    "midi": 55,
                    "time": 539.6485640000168,
                    "velocity": 0.30708661417322836,
                    "duration": 0.18090800000004492
                },
                {
                    "name": "C3",
                    "midi": 48,
                    "time": 539.8294720000168,
                    "velocity": 0.3858267716535433,
                    "duration": 0.18090800000004492
                },
                {
                    "name": "C4",
                    "midi": 60,
                    "time": 540.0103800000169,
                    "velocity": 0.3858267716535433,
                    "duration": 0.18090800000004492
                },
                {
                    "name": "G3",
                    "midi": 55,
                    "time": 540.0103800000169,
                    "velocity": 0.29133858267716534,
                    "duration": 0.18090800000004492
                },
                {
                    "name": "E3",
                    "midi": 52,
                    "time": 540.0103800000169,
                    "velocity": 0.29133858267716534,
                    "duration": 0.18090800000004492
                },
                {
                    "name": "C3",
                    "midi": 48,
                    "time": 540.1912880000169,
                    "velocity": 0.3464566929133858,
                    "duration": 0.18090800000004492
                },
                {
                    "name": "C4",
                    "midi": 60,
                    "time": 540.372196000017,
                    "velocity": 0.3779527559055118,
                    "duration": 0.18090800000004492
                },
                {
                    "name": "G3",
                    "midi": 55,
                    "time": 540.372196000017,
                    "velocity": 0.28346456692913385,
                    "duration": 0.18090800000004492
                },
                {
                    "name": "E3",
                    "midi": 52,
                    "time": 540.372196000017,
                    "velocity": 0.28346456692913385,
                    "duration": 0.18090800000004492
                },
                {
                    "name": "F2",
                    "midi": 41,
                    "time": 540.553104000017,
                    "velocity": 0.49606299212598426,
                    "duration": 0.36181599999997616
                },
                {
                    "name": "C3",
                    "midi": 48,
                    "time": 540.553104000017,
                    "velocity": 0.49606299212598426,
                    "duration": 0.36181599999997616
                },
                {
                    "name": "F3",
                    "midi": 53,
                    "time": 540.553104000017,
                    "velocity": 0.5905511811023622,
                    "duration": 0.36181599999997616
                },
                {
                    "name": "G#2",
                    "midi": 44,
                    "time": 540.553104000017,
                    "velocity": 0.49606299212598426,
                    "duration": 0.36181599999997616
                },
                {
                    "name": "F3",
                    "midi": 53,
                    "time": 541.276736000017,
                    "velocity": 0.6220472440944882,
                    "duration": 0.16583233333335556
                },
                {
                    "name": "G#3",
                    "midi": 56,
                    "time": 541.276736000017,
                    "velocity": 0.6220472440944882,
                    "duration": 0.16583233333335556
                },
                {
                    "name": "F3",
                    "midi": 53,
                    "time": 541.457644000017,
                    "velocity": 0.5984251968503937,
                    "duration": 0.16583233333335556
                },
                {
                    "name": "G#3",
                    "midi": 56,
                    "time": 541.457644000017,
                    "velocity": 0.5984251968503937,
                    "duration": 0.16583233333335556
                },
                {
                    "name": "E3",
                    "midi": 52,
                    "time": 541.6385520000171,
                    "velocity": 0.6299212598425197,
                    "duration": 0.36181599999997616
                },
                {
                    "name": "G3",
                    "midi": 55,
                    "time": 541.6385520000171,
                    "velocity": 0.6299212598425197,
                    "duration": 0.36181599999997616
                },
                {
                    "name": "G3",
                    "midi": 55,
                    "time": 542.362184000017,
                    "velocity": 0.6220472440944882,
                    "duration": 0.16583233333335556
                },
                {
                    "name": "A#3",
                    "midi": 58,
                    "time": 542.362184000017,
                    "velocity": 0.6220472440944882,
                    "duration": 0.16583233333335556
                },
                {
                    "name": "G3",
                    "midi": 55,
                    "time": 542.543092000017,
                    "velocity": 0.5984251968503937,
                    "duration": 0.16583233333335556
                },
                {
                    "name": "A#3",
                    "midi": 58,
                    "time": 542.543092000017,
                    "velocity": 0.5984251968503937,
                    "duration": 0.16583233333335556
                },
                {
                    "name": "F3",
                    "midi": 53,
                    "time": 542.7240000000171,
                    "velocity": 0.6299212598425197,
                    "duration": 0.36181599999997616
                },
                {
                    "name": "G#3",
                    "midi": 56,
                    "time": 542.7240000000171,
                    "velocity": 0.6299212598425197,
                    "duration": 0.36181599999997616
                },
                {
                    "name": "G#3",
                    "midi": 56,
                    "time": 543.447632000017,
                    "velocity": 0.6220472440944882,
                    "duration": 0.16583233333335556
                },
                {
                    "name": "F3",
                    "midi": 53,
                    "time": 543.447632000017,
                    "velocity": 0.6220472440944882,
                    "duration": 0.16583233333335556
                },
                {
                    "name": "G#3",
                    "midi": 56,
                    "time": 543.6285400000171,
                    "velocity": 0.5984251968503937,
                    "duration": 0.16583233333335556
                },
                {
                    "name": "F3",
                    "midi": 53,
                    "time": 543.6285400000171,
                    "velocity": 0.5984251968503937,
                    "duration": 0.16583233333335556
                },
                {
                    "name": "G3",
                    "midi": 55,
                    "time": 543.8094480000171,
                    "velocity": 0.6299212598425197,
                    "duration": 0.36181599999997616
                },
                {
                    "name": "E3",
                    "midi": 52,
                    "time": 543.8094480000171,
                    "velocity": 0.6299212598425197,
                    "duration": 0.36181599999997616
                },
                {
                    "name": "A#3",
                    "midi": 58,
                    "time": 544.5330800000171,
                    "velocity": 0.6220472440944882,
                    "duration": 0.16583233333335556
                },
                {
                    "name": "G3",
                    "midi": 55,
                    "time": 544.5330800000171,
                    "velocity": 0.6220472440944882,
                    "duration": 0.16583233333335556
                },
                {
                    "name": "G3",
                    "midi": 55,
                    "time": 544.7139880000171,
                    "velocity": 0.5984251968503937,
                    "duration": 0.16583233333335556
                },
                {
                    "name": "A#3",
                    "midi": 58,
                    "time": 544.7139880000171,
                    "velocity": 0.5984251968503937,
                    "duration": 0.16583233333335556
                },
                {
                    "name": "G#3",
                    "midi": 56,
                    "time": 544.8948960000172,
                    "velocity": 0.6299212598425197,
                    "duration": 0.16583233333335556
                },
                {
                    "name": "F3",
                    "midi": 53,
                    "time": 544.8948960000172,
                    "velocity": 0.5196850393700787,
                    "duration": 0.16583233333335556
                },
                {
                    "name": "G#3",
                    "midi": 56,
                    "time": 545.2567120000172,
                    "velocity": 0.5984251968503937,
                    "duration": 0.16583233333335556
                },
                {
                    "name": "F3",
                    "midi": 53,
                    "time": 545.2567120000172,
                    "velocity": 0.49606299212598426,
                    "duration": 0.16583233333335556
                },
                {
                    "name": "F3",
                    "midi": 53,
                    "time": 545.6185280000171,
                    "velocity": 0.4645669291338583,
                    "duration": 0.16583233333335556
                },
                {
                    "name": "A#2",
                    "midi": 46,
                    "time": 545.6185280000171,
                    "velocity": 0.4645669291338583,
                    "duration": 0.16583233333335556
                },
                {
                    "name": "G3",
                    "midi": 55,
                    "time": 545.6185280000171,
                    "velocity": 0.5748031496062992,
                    "duration": 0.16583233333335556
                },
                {
                    "name": "F3",
                    "midi": 53,
                    "time": 545.9803440000171,
                    "velocity": 0.5196850393700787,
                    "duration": 0.16583233333335556
                },
                {
                    "name": "G#3",
                    "midi": 56,
                    "time": 545.9803440000171,
                    "velocity": 0.6299212598425197,
                    "duration": 0.16583233333335556
                },
                {
                    "name": "C3",
                    "midi": 48,
                    "time": 545.9803440000171,
                    "velocity": 0.5196850393700787,
                    "duration": 0.16583233333335556
                },
                {
                    "name": "F3",
                    "midi": 53,
                    "time": 546.3421600000171,
                    "velocity": 0.49606299212598426,
                    "duration": 0.16583233333335556
                },
                {
                    "name": "G#3",
                    "midi": 56,
                    "time": 546.3421600000171,
                    "velocity": 0.5984251968503937,
                    "duration": 0.16583233333335556
                },
                {
                    "name": "C3",
                    "midi": 48,
                    "time": 546.3421600000171,
                    "velocity": 0.49606299212598426,
                    "duration": 0.16583233333335556
                },
                {
                    "name": "C3",
                    "midi": 48,
                    "time": 546.7039760000171,
                    "velocity": 0.49606299212598426,
                    "duration": 0.16583233333335556
                },
                {
                    "name": "G3",
                    "midi": 55,
                    "time": 546.7039760000171,
                    "velocity": 0.5984251968503937,
                    "duration": 0.16583233333335556
                },
                {
                    "name": "E3",
                    "midi": 52,
                    "time": 546.7039760000171,
                    "velocity": 0.49606299212598426,
                    "duration": 0.16583233333335556
                },
                {
                    "name": "G#2",
                    "midi": 44,
                    "time": 547.065792000017,
                    "velocity": 0.48031496062992124,
                    "duration": 0.36181599999997616
                },
                {
                    "name": "C3",
                    "midi": 48,
                    "time": 547.065792000017,
                    "velocity": 0.48031496062992124,
                    "duration": 0.36181599999997616
                },
                {
                    "name": "F3",
                    "midi": 53,
                    "time": 547.065792000017,
                    "velocity": 0.5748031496062992,
                    "duration": 0.36181599999997616
                },
                {
                    "name": "F2",
                    "midi": 41,
                    "time": 547.065792000017,
                    "velocity": 0.48031496062992124,
                    "duration": 0.36181599999997616
                },
                {
                    "name": "G#2",
                    "midi": 44,
                    "time": 547.789424000017,
                    "velocity": 0.5905511811023622,
                    "duration": 0.16583233333335556
                },
                {
                    "name": "F2",
                    "midi": 41,
                    "time": 547.789424000017,
                    "velocity": 0.5905511811023622,
                    "duration": 0.16583233333335556
                },
                {
                    "name": "G#2",
                    "midi": 44,
                    "time": 547.970332000017,
                    "velocity": 0.5669291338582677,
                    "duration": 0.16583233333335556
                },
                {
                    "name": "F2",
                    "midi": 41,
                    "time": 547.970332000017,
                    "velocity": 0.5669291338582677,
                    "duration": 0.16583233333335556
                },
                {
                    "name": "G2",
                    "midi": 43,
                    "time": 548.1512400000171,
                    "velocity": 0.5984251968503937,
                    "duration": 0.36181599999997616
                },
                {
                    "name": "E2",
                    "midi": 40,
                    "time": 548.1512400000171,
                    "velocity": 0.5984251968503937,
                    "duration": 0.36181599999997616
                },
                {
                    "name": "A#2",
                    "midi": 46,
                    "time": 548.874872000017,
                    "velocity": 0.5905511811023622,
                    "duration": 0.16583233333335556
                },
                {
                    "name": "G2",
                    "midi": 43,
                    "time": 548.874872000017,
                    "velocity": 0.5905511811023622,
                    "duration": 0.16583233333335556
                },
                {
                    "name": "A#2",
                    "midi": 46,
                    "time": 549.0557800000171,
                    "velocity": 0.5669291338582677,
                    "duration": 0.16583233333335556
                },
                {
                    "name": "G2",
                    "midi": 43,
                    "time": 549.0557800000171,
                    "velocity": 0.5669291338582677,
                    "duration": 0.16583233333335556
                },
                {
                    "name": "G#2",
                    "midi": 44,
                    "time": 549.2366880000171,
                    "velocity": 0.5984251968503937,
                    "duration": 0.36181599999997616
                },
                {
                    "name": "F2",
                    "midi": 41,
                    "time": 549.2366880000171,
                    "velocity": 0.5984251968503937,
                    "duration": 0.36181599999997616
                },
                {
                    "name": "G#2",
                    "midi": 44,
                    "time": 549.9603200000171,
                    "velocity": 0.5905511811023622,
                    "duration": 0.16583233333335556
                },
                {
                    "name": "F2",
                    "midi": 41,
                    "time": 549.9603200000171,
                    "velocity": 0.5905511811023622,
                    "duration": 0.16583233333335556
                },
                {
                    "name": "G#2",
                    "midi": 44,
                    "time": 550.1412280000171,
                    "velocity": 0.5669291338582677,
                    "duration": 0.16583233333335556
                },
                {
                    "name": "F2",
                    "midi": 41,
                    "time": 550.1412280000171,
                    "velocity": 0.5669291338582677,
                    "duration": 0.16583233333335556
                },
                {
                    "name": "G2",
                    "midi": 43,
                    "time": 550.3221360000172,
                    "velocity": 0.5984251968503937,
                    "duration": 0.36181599999997616
                },
                {
                    "name": "E2",
                    "midi": 40,
                    "time": 550.3221360000172,
                    "velocity": 0.5984251968503937,
                    "duration": 0.36181599999997616
                },
                {
                    "name": "A#2",
                    "midi": 46,
                    "time": 551.0457680000171,
                    "velocity": 0.5905511811023622,
                    "duration": 0.16583233333335556
                },
                {
                    "name": "G2",
                    "midi": 43,
                    "time": 551.0457680000171,
                    "velocity": 0.5905511811023622,
                    "duration": 0.16583233333335556
                },
                {
                    "name": "A#2",
                    "midi": 46,
                    "time": 551.2266760000172,
                    "velocity": 0.5669291338582677,
                    "duration": 0.16583233333335556
                },
                {
                    "name": "G2",
                    "midi": 43,
                    "time": 551.2266760000172,
                    "velocity": 0.5669291338582677,
                    "duration": 0.16583233333335556
                },
                {
                    "name": "F2",
                    "midi": 41,
                    "time": 551.4075840000172,
                    "velocity": 0.5196850393700787,
                    "duration": 0.16583233333335556
                },
                {
                    "name": "G#2",
                    "midi": 44,
                    "time": 551.4075840000172,
                    "velocity": 0.6220472440944882,
                    "duration": 0.16583233333335556
                },
                {
                    "name": "G#2",
                    "midi": 44,
                    "time": 551.7694000000172,
                    "velocity": 0.5590551181102362,
                    "duration": 0.16583233333335556
                },
                {
                    "name": "F2",
                    "midi": 41,
                    "time": 551.7694000000172,
                    "velocity": 0.4645669291338583,
                    "duration": 0.16583233333335556
                },
                {
                    "name": "A#1",
                    "midi": 34,
                    "time": 552.1312160000172,
                    "velocity": 0.4330708661417323,
                    "duration": 0.16583233333335556
                },
                {
                    "name": "G2",
                    "midi": 43,
                    "time": 552.1312160000172,
                    "velocity": 0.5196850393700787,
                    "duration": 0.16583233333335556
                },
                {
                    "name": "F2",
                    "midi": 41,
                    "time": 552.1312160000172,
                    "velocity": 0.4330708661417323,
                    "duration": 0.16583233333335556
                },
                {
                    "name": "G#2",
                    "midi": 44,
                    "time": 552.4930320000171,
                    "velocity": 0.5905511811023622,
                    "duration": 0.16583233333335556
                },
                {
                    "name": "C2",
                    "midi": 36,
                    "time": 552.4930320000171,
                    "velocity": 0.4881889763779528,
                    "duration": 0.16583233333335556
                },
                {
                    "name": "F2",
                    "midi": 41,
                    "time": 552.4930320000171,
                    "velocity": 0.4881889763779528,
                    "duration": 0.16583233333335556
                },
                {
                    "name": "G#2",
                    "midi": 44,
                    "time": 552.8548480000171,
                    "velocity": 0.5590551181102362,
                    "duration": 0.16583233333335556
                },
                {
                    "name": "C2",
                    "midi": 36,
                    "time": 552.8548480000171,
                    "velocity": 0.4645669291338583,
                    "duration": 0.16583233333335556
                },
                {
                    "name": "F2",
                    "midi": 41,
                    "time": 552.8548480000171,
                    "velocity": 0.4645669291338583,
                    "duration": 0.16583233333335556
                },
                {
                    "name": "E2",
                    "midi": 40,
                    "time": 553.2166640000171,
                    "velocity": 0.4645669291338583,
                    "duration": 0.16583233333335556
                },
                {
                    "name": "G2",
                    "midi": 43,
                    "time": 553.2166640000171,
                    "velocity": 0.5590551181102362,
                    "duration": 0.16583233333335556
                },
                {
                    "name": "C2",
                    "midi": 36,
                    "time": 553.2166640000171,
                    "velocity": 0.4645669291338583,
                    "duration": 0.16583233333335556
                },
                {
                    "name": "C2",
                    "midi": 36,
                    "time": 553.5784800000171,
                    "velocity": 0.4881889763779528,
                    "duration": 0.16583233333335556
                },
                {
                    "name": "F2",
                    "midi": 41,
                    "time": 553.5784800000171,
                    "velocity": 0.4881889763779528,
                    "duration": 0.16583233333335556
                },
                {
                    "name": "G#2",
                    "midi": 44,
                    "time": 553.5784800000171,
                    "velocity": 0.5905511811023622,
                    "duration": 0.16583233333335556
                },
                {
                    "name": "G#1",
                    "midi": 32,
                    "time": 553.5784800000171,
                    "velocity": 0.4881889763779528,
                    "duration": 0.16583233333335556
                },
                {
                    "name": "G#1",
                    "midi": 32,
                    "time": 553.940296000017,
                    "velocity": 0.4645669291338583,
                    "duration": 0.16583233333335556
                },
                {
                    "name": "F2",
                    "midi": 41,
                    "time": 553.940296000017,
                    "velocity": 0.4645669291338583,
                    "duration": 0.16583233333335556
                },
                {
                    "name": "C2",
                    "midi": 36,
                    "time": 553.940296000017,
                    "velocity": 0.4645669291338583,
                    "duration": 0.16583233333335556
                },
                {
                    "name": "G#2",
                    "midi": 44,
                    "time": 553.940296000017,
                    "velocity": 0.5590551181102362,
                    "duration": 0.16583233333335556
                },
                {
                    "name": "A#2",
                    "midi": 46,
                    "time": 554.302112000017,
                    "velocity": 0.5196850393700787,
                    "duration": 0.16583233333335556
                },
                {
                    "name": "F2",
                    "midi": 41,
                    "time": 554.302112000017,
                    "velocity": 0.4330708661417323,
                    "duration": 0.16583233333335556
                },
                {
                    "name": "G2",
                    "midi": 43,
                    "time": 554.302112000017,
                    "velocity": 0.47244094488188976,
                    "duration": 0.16583233333335556
                },
                {
                    "name": "A#1",
                    "midi": 34,
                    "time": 554.302112000017,
                    "velocity": 0.4330708661417323,
                    "duration": 0.16583233333335556
                },
                {
                    "name": "C3",
                    "midi": 48,
                    "time": 554.663928000017,
                    "velocity": 0.5905511811023622,
                    "duration": 0.16583233333335556
                },
                {
                    "name": "G#2",
                    "midi": 44,
                    "time": 554.663928000017,
                    "velocity": 0.5433070866141733,
                    "duration": 0.16583233333335556
                },
                {
                    "name": "F2",
                    "midi": 41,
                    "time": 554.663928000017,
                    "velocity": 0.4881889763779528,
                    "duration": 0.16583233333335556
                },
                {
                    "name": "C2",
                    "midi": 36,
                    "time": 554.663928000017,
                    "velocity": 0.4881889763779528,
                    "duration": 0.16583233333335556
                },
                {
                    "name": "C3",
                    "midi": 48,
                    "time": 555.025744000017,
                    "velocity": 0.5590551181102362,
                    "duration": 0.16583233333335556
                },
                {
                    "name": "F2",
                    "midi": 41,
                    "time": 555.025744000017,
                    "velocity": 0.4645669291338583,
                    "duration": 0.16583233333335556
                },
                {
                    "name": "G#2",
                    "midi": 44,
                    "time": 555.025744000017,
                    "velocity": 0.5196850393700787,
                    "duration": 0.16583233333335556
                },
                {
                    "name": "C2",
                    "midi": 36,
                    "time": 555.025744000017,
                    "velocity": 0.4645669291338583,
                    "duration": 0.16583233333335556
                },
                {
                    "name": "A#2",
                    "midi": 46,
                    "time": 555.387560000017,
                    "velocity": 0.5590551181102362,
                    "duration": 0.16583233333335556
                },
                {
                    "name": "E2",
                    "midi": 40,
                    "time": 555.387560000017,
                    "velocity": 0.4645669291338583,
                    "duration": 0.16583233333335556
                },
                {
                    "name": "G2",
                    "midi": 43,
                    "time": 555.387560000017,
                    "velocity": 0.5196850393700787,
                    "duration": 0.16583233333335556
                },
                {
                    "name": "A#1",
                    "midi": 34,
                    "time": 555.387560000017,
                    "velocity": 0.4645669291338583,
                    "duration": 0.16583233333335556
                },
                {
                    "name": "C2",
                    "midi": 36,
                    "time": 555.7493760000169,
                    "velocity": 0.5118110236220472,
                    "duration": 0.16583233333335556
                },
                {
                    "name": "F2",
                    "midi": 41,
                    "time": 555.7493760000169,
                    "velocity": 0.5118110236220472,
                    "duration": 0.16583233333335556
                },
                {
                    "name": "G#2",
                    "midi": 44,
                    "time": 555.7493760000169,
                    "velocity": 0.6062992125984252,
                    "duration": 0.16583233333335556
                },
                {
                    "name": "G#1",
                    "midi": 32,
                    "time": 555.7493760000169,
                    "velocity": 0.5118110236220472,
                    "duration": 0.16583233333335556
                },
                {
                    "name": "G#1",
                    "midi": 32,
                    "time": 556.1111920000169,
                    "velocity": 0.4881889763779528,
                    "duration": 0.16583233333335556
                },
                {
                    "name": "F2",
                    "midi": 41,
                    "time": 556.1111920000169,
                    "velocity": 0.4881889763779528,
                    "duration": 0.16583233333335556
                },
                {
                    "name": "C2",
                    "midi": 36,
                    "time": 556.1111920000169,
                    "velocity": 0.4881889763779528,
                    "duration": 0.16583233333335556
                },
                {
                    "name": "G#2",
                    "midi": 44,
                    "time": 556.1111920000169,
                    "velocity": 0.5826771653543307,
                    "duration": 0.16583233333335556
                },
                {
                    "name": "A#2",
                    "midi": 46,
                    "time": 556.4730080000169,
                    "velocity": 0.5433070866141733,
                    "duration": 0.16583233333335556
                },
                {
                    "name": "F2",
                    "midi": 41,
                    "time": 556.4730080000169,
                    "velocity": 0.44881889763779526,
                    "duration": 0.16583233333335556
                },
                {
                    "name": "G2",
                    "midi": 43,
                    "time": 556.4730080000169,
                    "velocity": 0.49606299212598426,
                    "duration": 0.16583233333335556
                },
                {
                    "name": "A#1",
                    "midi": 34,
                    "time": 556.4730080000169,
                    "velocity": 0.44881889763779526,
                    "duration": 0.16583233333335556
                },
                {
                    "name": "C3",
                    "midi": 48,
                    "time": 556.8348240000169,
                    "velocity": 0.6062992125984252,
                    "duration": 0.16583233333335556
                },
                {
                    "name": "F2",
                    "midi": 41,
                    "time": 556.8348240000169,
                    "velocity": 0.5118110236220472,
                    "duration": 0.16583233333335556
                },
                {
                    "name": "C2",
                    "midi": 36,
                    "time": 556.8348240000169,
                    "velocity": 0.5118110236220472,
                    "duration": 0.16583233333335556
                },
                {
                    "name": "G#2",
                    "midi": 44,
                    "time": 556.8348240000169,
                    "velocity": 0.5669291338582677,
                    "duration": 0.16583233333335556
                },
                {
                    "name": "G#2",
                    "midi": 44,
                    "time": 557.1966400000168,
                    "velocity": 0.5433070866141733,
                    "duration": 0.16583233333335556
                },
                {
                    "name": "F2",
                    "midi": 41,
                    "time": 557.1966400000168,
                    "velocity": 0.4881889763779528,
                    "duration": 0.16583233333335556
                },
                {
                    "name": "C2",
                    "midi": 36,
                    "time": 557.1966400000168,
                    "velocity": 0.4881889763779528,
                    "duration": 0.16583233333335556
                },
                {
                    "name": "C3",
                    "midi": 48,
                    "time": 557.1966400000168,
                    "velocity": 0.5826771653543307,
                    "duration": 0.16583233333335556
                },
                {
                    "name": "C2",
                    "midi": 36,
                    "time": 557.5584560000168,
                    "velocity": 0.4881889763779528,
                    "duration": 0.16583233333335556
                },
                {
                    "name": "C3",
                    "midi": 48,
                    "time": 557.5584560000168,
                    "velocity": 0.5826771653543307,
                    "duration": 0.16583233333335556
                },
                {
                    "name": "G2",
                    "midi": 43,
                    "time": 557.5584560000168,
                    "velocity": 0.5433070866141733,
                    "duration": 0.16583233333335556
                },
                {
                    "name": "E2",
                    "midi": 40,
                    "time": 557.5584560000168,
                    "velocity": 0.4881889763779528,
                    "duration": 0.16583233333335556
                },
                {
                    "name": "F1",
                    "midi": 29,
                    "time": 557.9202720000168,
                    "velocity": 0.6456692913385826,
                    "duration": 0.36181599999997616
                },
                {
                    "name": "F2",
                    "midi": 41,
                    "time": 557.9202720000168,
                    "velocity": 0.8661417322834646,
                    "duration": 0.36181599999997616
                },
                {
                    "name": "G#4",
                    "midi": 68,
                    "time": 558.4629960000168,
                    "velocity": 0.4881889763779528,
                    "duration": 0.4522699999999986
                },
                {
                    "name": "C5",
                    "midi": 72,
                    "time": 558.9152660000168,
                    "velocity": 0.4251968503937008,
                    "duration": 0.09045400000002246
                },
                {
                    "name": "F5",
                    "midi": 77,
                    "time": 559.0057200000168,
                    "velocity": 0.4645669291338583,
                    "duration": 0.5427240000000211
                },
                {
                    "name": "G#5",
                    "midi": 80,
                    "time": 559.5484440000168,
                    "velocity": 0.47244094488188976,
                    "duration": 0.4522699999999986
                },
                {
                    "name": "C6",
                    "midi": 84,
                    "time": 560.0007140000168,
                    "velocity": 0.4094488188976378,
                    "duration": 0.09045400000002246
                },
                {
                    "name": "F6",
                    "midi": 89,
                    "time": 560.0911680000169,
                    "velocity": 0.4409448818897638,
                    "duration": 0.5427240000000211
                },
                {
                    "name": "C6",
                    "midi": 84,
                    "time": 560.6338920000169,
                    "velocity": 0.4566929133858268,
                    "duration": 0.4522699999999986
                },
                {
                    "name": "G#5",
                    "midi": 80,
                    "time": 561.0861620000169,
                    "velocity": 0.3937007874015748,
                    "duration": 0.09045400000002246
                },
                {
                    "name": "F5",
                    "midi": 77,
                    "time": 561.1766160000169,
                    "velocity": 0.4251968503937008,
                    "duration": 0.5427240000000211
                },
                {
                    "name": "C5",
                    "midi": 72,
                    "time": 561.7193400000169,
                    "velocity": 0.4409448818897638,
                    "duration": 0.4522699999999986
                },
                {
                    "name": "G#4",
                    "midi": 68,
                    "time": 562.1716100000169,
                    "velocity": 0.3779527559055118,
                    "duration": 0.09045400000002246
                },
                {
                    "name": "F4",
                    "midi": 65,
                    "time": 562.262064000017,
                    "velocity": 0.4094488188976378,
                    "duration": 0.5427240000000211
                },
                {
                    "name": "C4",
                    "midi": 60,
                    "time": 562.804788000017,
                    "velocity": 0.3700787401574803,
                    "duration": 0.4522699999999986
                },
                {
                    "name": "G#3",
                    "midi": 56,
                    "time": 563.257058000017,
                    "velocity": 0.3228346456692913,
                    "duration": 0.09045400000002246
                },
                {
                    "name": "F3",
                    "midi": 53,
                    "time": 563.347512000017,
                    "velocity": 0.3464566929133858,
                    "duration": 0.5427240000000211
                },
                {
                    "name": "C3",
                    "midi": 48,
                    "time": 563.890236000017,
                    "velocity": 0.3543307086614173,
                    "duration": 0.4522699999999986
                },
                {
                    "name": "G#2",
                    "midi": 44,
                    "time": 564.342506000017,
                    "velocity": 0.30708661417322836,
                    "duration": 0.09045400000002246
                },
                {
                    "name": "F2",
                    "midi": 41,
                    "time": 564.432960000017,
                    "velocity": 0.33070866141732286,
                    "duration": 0.5427240000000211
                },
                {
                    "name": "C2",
                    "midi": 36,
                    "time": 564.975684000017,
                    "velocity": 0.2992125984251969,
                    "duration": 0.4522699999999986
                },
                {
                    "name": "G#1",
                    "midi": 32,
                    "time": 565.427954000017,
                    "velocity": 0.2125984251968504,
                    "duration": 0.09045400000002246
                },
                {
                    "name": "F1",
                    "midi": 29,
                    "time": 565.5184080000171,
                    "velocity": 0.2204724409448819,
                    "duration": 0.5427240000000211
                },
                {
                    "name": "F1",
                    "midi": 29,
                    "time": 566.0611320000171,
                    "velocity": 0.2125984251968504,
                    "duration": 0.5427240000000211
                },
                {
                    "name": "F1",
                    "midi": 29,
                    "time": 566.6038560000171,
                    "velocity": 0.2125984251968504,
                    "duration": 1.0854480000000422
                },
                {
                    "name": "F1",
                    "midi": 29,
                    "time": 567.6893040000172,
                    "velocity": 0.14960629921259844,
                    "duration": 1.0854480000000422
                },
                {
                    "name": "F1",
                    "midi": 29,
                    "time": 568.7747520000172,
                    "velocity": 0.09448818897637795,
                    "duration": 2.1708959999999706
                }
            ],
            "controlChanges": {
                "7": [
                    {
                        "number": 7,
                        "time": 0,
                        "value": 0.7874015748031497
                    }
                ],
                "10": [
                    {
                        "number": 10,
                        "time": 0,
                        "value": 0.5039370078740157
                    }
                ],
                "64": [
                    {
                        "number": 64,
                        "time": 184.48394813333243,
                        "value": 0
                    },
                    {
                        "number": 64,
                        "time": 245.37004309999637,
                        "value": 1
                    },
                    {
                        "number": 64,
                        "time": 416.8203236166753,
                        "value": 1
                    },
                    {
                        "number": 64,
                        "time": 486.21210971667614,
                        "value": 0
                    }
                ]
            },
            "id": 2,
            "name": "Piano left",
            "instrumentNumber": 0,
            "instrument": "acoustic grand piano",
            "instrumentFamily": "piano",
            "channelNumber": 0,
            "isPercussion": false
        },
        {
            "startTime": 0,
            "duration": 0,
            "length": 0,
            "notes": [],
            "controlChanges": {
                "64": [
                    {
                        "number": 64,
                        "time": 0.010552966666666667,
                        "value": 0
                    },
                    {
                        "number": 64,
                        "time": 6.7456070499999985,
                        "value": 1
                    },
                    {
                        "number": 64,
                        "time": 7.607181399999998,
                        "value": 0
                    },
                    {
                        "number": 64,
                        "time": 7.6735143333333315,
                        "value": 1
                    },
                    {
                        "number": 64,
                        "time": 8.689614266666664,
                        "value": 0
                    },
                    {
                        "number": 64,
                        "time": 15.44351293333333,
                        "value": 1
                    },
                    {
                        "number": 64,
                        "time": 16.290011616666664,
                        "value": 0
                    },
                    {
                        "number": 64,
                        "time": 16.351068066666663,
                        "value": 1
                    },
                    {
                        "number": 64,
                        "time": 17.373952049999996,
                        "value": 0
                    },
                    {
                        "number": 64,
                        "time": 19.75590738333333,
                        "value": 1
                    },
                    {
                        "number": 64,
                        "time": 20.62878848333333,
                        "value": 0
                    },
                    {
                        "number": 64,
                        "time": 20.67552305,
                        "value": 1
                    },
                    {
                        "number": 64,
                        "time": 21.708959999999998,
                        "value": 0
                    },
                    {
                        "number": 64,
                        "time": 24.145941516666664,
                        "value": 1
                    },
                    {
                        "number": 64,
                        "time": 24.974349399999998,
                        "value": 0
                    },
                    {
                        "number": 64,
                        "time": 25.03163693333333,
                        "value": 1
                    },
                    {
                        "number": 64,
                        "time": 26.06205875,
                        "value": 0
                    },
                    {
                        "number": 64,
                        "time": 30.43174073333333,
                        "value": 1
                    },
                    {
                        "number": 64,
                        "time": 33.799644666666666,
                        "value": 0
                    },
                    {
                        "number": 64,
                        "time": 34.25643736666667,
                        "value": 1
                    },
                    {
                        "number": 64,
                        "time": 34.475788316666666,
                        "value": 0
                    },
                    {
                        "number": 64,
                        "time": 37.075587033333335,
                        "value": 1
                    },
                    {
                        "number": 64,
                        "time": 40.592740066666664,
                        "value": 0
                    },
                    {
                        "number": 64,
                        "time": 43.460885649999994,
                        "value": 1
                    },
                    {
                        "number": 64,
                        "time": 45.588815999999994,
                        "value": 0
                    },
                    {
                        "number": 64,
                        "time": 45.820227483333326,
                        "value": 1
                    },
                    {
                        "number": 64,
                        "time": 46.50692409999999,
                        "value": 0
                    },
                    {
                        "number": 64,
                        "time": 46.730043966666656,
                        "value": 1
                    },
                    {
                        "number": 64,
                        "time": 47.76951118333332,
                        "value": 0
                    },
                    {
                        "number": 64,
                        "time": 47.914991366666655,
                        "value": 1
                    },
                    {
                        "number": 64,
                        "time": 49.94266853333332,
                        "value": 0
                    },
                    {
                        "number": 64,
                        "time": 50.14392868333332,
                        "value": 1
                    },
                    {
                        "number": 64,
                        "time": 51.02434761666665,
                        "value": 0
                    },
                    {
                        "number": 64,
                        "time": 51.071835966666654,
                        "value": 1
                    },
                    {
                        "number": 64,
                        "time": 52.10979561666665,
                        "value": 0
                    },
                    {
                        "number": 64,
                        "time": 76.15171503333332,
                        "value": 1
                    },
                    {
                        "number": 64,
                        "time": 78.16356274999998,
                        "value": 0
                    },
                    {
                        "number": 64,
                        "time": 78.28039916666665,
                        "value": 1
                    },
                    {
                        "number": 64,
                        "time": 79.25353344999999,
                        "value": 0
                    },
                    {
                        "number": 64,
                        "time": 79.35529419999999,
                        "value": 1
                    },
                    {
                        "number": 64,
                        "time": 80.33068983333332,
                        "value": 0
                    },
                    {
                        "number": 64,
                        "time": 80.41888248333332,
                        "value": 1
                    },
                    {
                        "number": 64,
                        "time": 81.96187696666665,
                        "value": 0
                    },
                    {
                        "number": 64,
                        "time": 82.01011909999998,
                        "value": 1
                    },
                    {
                        "number": 64,
                        "time": 82.50158583333332,
                        "value": 0
                    },
                    {
                        "number": 64,
                        "time": 82.60033144999998,
                        "value": 1
                    },
                    {
                        "number": 64,
                        "time": 83.58100356666665,
                        "value": 0
                    },
                    {
                        "number": 64,
                        "time": 83.65412054999999,
                        "value": 1
                    },
                    {
                        "number": 64,
                        "time": 84.67323561666666,
                        "value": 0
                    },
                    {
                        "number": 64,
                        "time": 84.77122745,
                        "value": 1
                    },
                    {
                        "number": 64,
                        "time": 86.84413161666666,
                        "value": 0
                    },
                    {
                        "number": 64,
                        "time": 86.90518806666665,
                        "value": 1
                    },
                    {
                        "number": 64,
                        "time": 87.93334853333332,
                        "value": 0
                    },
                    {
                        "number": 64,
                        "time": 88.01701848333332,
                        "value": 1
                    },
                    {
                        "number": 64,
                        "time": 89.01427383333332,
                        "value": 0
                    },
                    {
                        "number": 64,
                        "time": 89.24794666666665,
                        "value": 1
                    },
                    {
                        "number": 64,
                        "time": 91.18667739999998,
                        "value": 0
                    },
                    {
                        "number": 64,
                        "time": 91.35853999999998,
                        "value": 1
                    },
                    {
                        "number": 64,
                        "time": 91.73543166666664,
                        "value": 0
                    },
                    {
                        "number": 64,
                        "time": 91.9766423333333,
                        "value": 1
                    },
                    {
                        "number": 64,
                        "time": 93.35908096666664,
                        "value": 0
                    },
                    {
                        "number": 64,
                        "time": 93.52114438333331,
                        "value": 1
                    },
                    {
                        "number": 64,
                        "time": 95.34906896666664,
                        "value": 0
                    },
                    {
                        "number": 64,
                        "time": 95.59254098333331,
                        "value": 1
                    },
                    {
                        "number": 64,
                        "time": 97.70087296666664,
                        "value": 0
                    },
                    {
                        "number": 64,
                        "time": 97.7679596833333,
                        "value": 1
                    },
                    {
                        "number": 64,
                        "time": 99.86800004999996,
                        "value": 0
                    },
                    {
                        "number": 64,
                        "time": 99.9388556833333,
                        "value": 1
                    },
                    {
                        "number": 64,
                        "time": 102.03889604999996,
                        "value": 0
                    },
                    {
                        "number": 64,
                        "time": 110.74132463333329,
                        "value": 1
                    },
                    {
                        "number": 64,
                        "time": 111.18530301666662,
                        "value": 0
                    },
                    {
                        "number": 64,
                        "time": 111.2885713333333,
                        "value": 1
                    },
                    {
                        "number": 64,
                        "time": 111.38731694999996,
                        "value": 0
                    },
                    {
                        "number": 64,
                        "time": 111.48229364999996,
                        "value": 1
                    },
                    {
                        "number": 64,
                        "time": 111.56445603333329,
                        "value": 0
                    },
                    {
                        "number": 64,
                        "time": 111.65867894999995,
                        "value": 1
                    },
                    {
                        "number": 64,
                        "time": 111.73631863333328,
                        "value": 0
                    },
                    {
                        "number": 64,
                        "time": 111.84863234999995,
                        "value": 1
                    },
                    {
                        "number": 64,
                        "time": 112.29185694999994,
                        "value": 0
                    },
                    {
                        "number": 64,
                        "time": 112.39587904999993,
                        "value": 1
                    },
                    {
                        "number": 64,
                        "time": 112.4946246666666,
                        "value": 0
                    },
                    {
                        "number": 64,
                        "time": 112.56774164999993,
                        "value": 1
                    },
                    {
                        "number": 64,
                        "time": 112.65819564999993,
                        "value": 0
                    },
                    {
                        "number": 64,
                        "time": 112.73583533333326,
                        "value": 1
                    },
                    {
                        "number": 64,
                        "time": 112.84362634999992,
                        "value": 0
                    },
                    {
                        "number": 64,
                        "time": 112.91222063333326,
                        "value": 1
                    },
                    {
                        "number": 64,
                        "time": 113.3561990166666,
                        "value": 0
                    },
                    {
                        "number": 64,
                        "time": 113.45946733333327,
                        "value": 1
                    },
                    {
                        "number": 64,
                        "time": 113.55821294999993,
                        "value": 0
                    },
                    {
                        "number": 64,
                        "time": 113.65318964999993,
                        "value": 1
                    },
                    {
                        "number": 64,
                        "time": 113.73535203333326,
                        "value": 0
                    },
                    {
                        "number": 64,
                        "time": 113.82957494999992,
                        "value": 1
                    },
                    {
                        "number": 64,
                        "time": 113.90721463333325,
                        "value": 0
                    },
                    {
                        "number": 64,
                        "time": 114.01952834999992,
                        "value": 1
                    },
                    {
                        "number": 64,
                        "time": 114.46275294999991,
                        "value": 0
                    },
                    {
                        "number": 64,
                        "time": 114.5667750499999,
                        "value": 1
                    },
                    {
                        "number": 64,
                        "time": 114.66552066666657,
                        "value": 0
                    },
                    {
                        "number": 64,
                        "time": 114.7386376499999,
                        "value": 1
                    },
                    {
                        "number": 64,
                        "time": 114.8290916499999,
                        "value": 0
                    },
                    {
                        "number": 64,
                        "time": 114.90673133333323,
                        "value": 1
                    },
                    {
                        "number": 64,
                        "time": 115.0145223499999,
                        "value": 0
                    },
                    {
                        "number": 64,
                        "time": 115.07030231666656,
                        "value": 1
                    },
                    {
                        "number": 64,
                        "time": 116.69545918333323,
                        "value": 0
                    },
                    {
                        "number": 64,
                        "time": 116.75048536666657,
                        "value": 1
                    },
                    {
                        "number": 64,
                        "time": 117.24345966666657,
                        "value": 0
                    },
                    {
                        "number": 64,
                        "time": 117.2758723499999,
                        "value": 1
                    },
                    {
                        "number": 64,
                        "time": 117.77713826666657,
                        "value": 0
                    },
                    {
                        "number": 64,
                        "time": 117.8231190499999,
                        "value": 1
                    },
                    {
                        "number": 64,
                        "time": 118.3228773999999,
                        "value": 0
                    },
                    {
                        "number": 64,
                        "time": 118.38318006666657,
                        "value": 1
                    },
                    {
                        "number": 64,
                        "time": 118.87163166666657,
                        "value": 0
                    },
                    {
                        "number": 64,
                        "time": 118.92590406666658,
                        "value": 1
                    },
                    {
                        "number": 64,
                        "time": 119.3992799999999,
                        "value": 0
                    },
                    {
                        "number": 64,
                        "time": 119.47239698333324,
                        "value": 1
                    },
                    {
                        "number": 64,
                        "time": 119.89903834999991,
                        "value": 0
                    },
                    {
                        "number": 64,
                        "time": 119.97215533333325,
                        "value": 1
                    },
                    {
                        "number": 64,
                        "time": 120.07090094999991,
                        "value": 0
                    },
                    {
                        "number": 64,
                        "time": 120.16587764999991,
                        "value": 1
                    },
                    {
                        "number": 64,
                        "time": 120.24804003333324,
                        "value": 0
                    },
                    {
                        "number": 64,
                        "time": 120.3422629499999,
                        "value": 1
                    },
                    {
                        "number": 64,
                        "time": 120.41990263333324,
                        "value": 0
                    },
                    {
                        "number": 64,
                        "time": 120.5322163499999,
                        "value": 1
                    },
                    {
                        "number": 64,
                        "time": 120.97544094999989,
                        "value": 0
                    },
                    {
                        "number": 64,
                        "time": 121.07946304999989,
                        "value": 1
                    },
                    {
                        "number": 64,
                        "time": 121.17820866666655,
                        "value": 0
                    },
                    {
                        "number": 64,
                        "time": 121.25132564999988,
                        "value": 1
                    },
                    {
                        "number": 64,
                        "time": 121.34177964999988,
                        "value": 0
                    },
                    {
                        "number": 64,
                        "time": 121.41941933333321,
                        "value": 1
                    },
                    {
                        "number": 64,
                        "time": 121.52721034999988,
                        "value": 0
                    },
                    {
                        "number": 64,
                        "time": 121.59580463333322,
                        "value": 1
                    },
                    {
                        "number": 64,
                        "time": 122.03978301666655,
                        "value": 0
                    },
                    {
                        "number": 64,
                        "time": 122.14305133333322,
                        "value": 1
                    },
                    {
                        "number": 64,
                        "time": 122.24179694999988,
                        "value": 0
                    },
                    {
                        "number": 64,
                        "time": 122.33677364999988,
                        "value": 1
                    },
                    {
                        "number": 64,
                        "time": 122.41893603333321,
                        "value": 0
                    },
                    {
                        "number": 64,
                        "time": 122.51315894999988,
                        "value": 1
                    },
                    {
                        "number": 64,
                        "time": 122.59079863333321,
                        "value": 0
                    },
                    {
                        "number": 64,
                        "time": 122.70311234999987,
                        "value": 1
                    },
                    {
                        "number": 64,
                        "time": 123.14633694999986,
                        "value": 0
                    },
                    {
                        "number": 64,
                        "time": 123.25035904999986,
                        "value": 1
                    },
                    {
                        "number": 64,
                        "time": 123.34910466666652,
                        "value": 0
                    },
                    {
                        "number": 64,
                        "time": 123.42222164999986,
                        "value": 1
                    },
                    {
                        "number": 64,
                        "time": 123.51267564999985,
                        "value": 0
                    },
                    {
                        "number": 64,
                        "time": 123.59031533333318,
                        "value": 1
                    },
                    {
                        "number": 64,
                        "time": 123.69810634999985,
                        "value": 0
                    },
                    {
                        "number": 64,
                        "time": 123.79760574999985,
                        "value": 1
                    },
                    {
                        "number": 64,
                        "time": 125.37602804999985,
                        "value": 0
                    },
                    {
                        "number": 64,
                        "time": 125.43859206666652,
                        "value": 1
                    },
                    {
                        "number": 64,
                        "time": 125.92025961666651,
                        "value": 0
                    },
                    {
                        "number": 64,
                        "time": 125.96850174999985,
                        "value": 1
                    },
                    {
                        "number": 64,
                        "time": 126.46675253333318,
                        "value": 0
                    },
                    {
                        "number": 64,
                        "time": 126.53233168333318,
                        "value": 1
                    },
                    {
                        "number": 64,
                        "time": 127.00796896666651,
                        "value": 0
                    },
                    {
                        "number": 64,
                        "time": 127.07505568333318,
                        "value": 1
                    },
                    {
                        "number": 64,
                        "time": 127.55220053333318,
                        "value": 0
                    },
                    {
                        "number": 64,
                        "time": 127.60948806666651,
                        "value": 1
                    },
                    {
                        "number": 64,
                        "time": 128.09190939999985,
                        "value": 0
                    },
                    {
                        "number": 64,
                        "time": 128.15221206666652,
                        "value": 1
                    },
                    {
                        "number": 64,
                        "time": 128.63463339999984,
                        "value": 0
                    },
                    {
                        "number": 64,
                        "time": 128.68212174999985,
                        "value": 1
                    },
                    {
                        "number": 64,
                        "time": 129.1743422666665,
                        "value": 0
                    },
                    {
                        "number": 64,
                        "time": 129.24595168333317,
                        "value": 1
                    },
                    {
                        "number": 64,
                        "time": 129.7238503166665,
                        "value": 0
                    },
                    {
                        "number": 64,
                        "time": 129.7803840666665,
                        "value": 1
                    },
                    {
                        "number": 64,
                        "time": 130.2688356666665,
                        "value": 0
                    },
                    {
                        "number": 64,
                        "time": 130.32687698333316,
                        "value": 1
                    },
                    {
                        "number": 64,
                        "time": 131.3474996166665,
                        "value": 0
                    },
                    {
                        "number": 64,
                        "time": 131.42966199999984,
                        "value": 1
                    },
                    {
                        "number": 64,
                        "time": 132.43144004999985,
                        "value": 0
                    },
                    {
                        "number": 64,
                        "time": 132.48948136666652,
                        "value": 1
                    },
                    {
                        "number": 64,
                        "time": 132.97642539999987,
                        "value": 0
                    },
                    {
                        "number": 64,
                        "time": 133.0404969833332,
                        "value": 1
                    },
                    {
                        "number": 64,
                        "time": 133.52819479999988,
                        "value": 0
                    },
                    {
                        "number": 64,
                        "time": 133.6005579999999,
                        "value": 1
                    },
                    {
                        "number": 64,
                        "time": 134.06564231666655,
                        "value": 0
                    },
                    {
                        "number": 64,
                        "time": 134.12594498333323,
                        "value": 1
                    },
                    {
                        "number": 64,
                        "time": 134.60158226666655,
                        "value": 0
                    },
                    {
                        "number": 64,
                        "time": 134.66866898333322,
                        "value": 1
                    },
                    {
                        "number": 64,
                        "time": 135.1473213999999,
                        "value": 0
                    },
                    {
                        "number": 64,
                        "time": 135.19857866666655,
                        "value": 1
                    },
                    {
                        "number": 64,
                        "time": 135.6900453999999,
                        "value": 0
                    },
                    {
                        "number": 64,
                        "time": 135.7330110499999,
                        "value": 1
                    },
                    {
                        "number": 64,
                        "time": 136.23201561666656,
                        "value": 0
                    },
                    {
                        "number": 64,
                        "time": 136.29684098333323,
                        "value": 1
                    },
                    {
                        "number": 64,
                        "time": 136.77850853333322,
                        "value": 0
                    },
                    {
                        "number": 64,
                        "time": 136.8659473999999,
                        "value": 1
                    },
                    {
                        "number": 64,
                        "time": 137.3182173999999,
                        "value": 0
                    },
                    {
                        "number": 64,
                        "time": 137.36947466666655,
                        "value": 1
                    },
                    {
                        "number": 64,
                        "time": 137.86244896666653,
                        "value": 0
                    },
                    {
                        "number": 64,
                        "time": 137.9385810833332,
                        "value": 1
                    },
                    {
                        "number": 64,
                        "time": 138.40517296666653,
                        "value": 0
                    },
                    {
                        "number": 64,
                        "time": 138.4677369833332,
                        "value": 1
                    },
                    {
                        "number": 64,
                        "time": 138.94638939999987,
                        "value": 0
                    },
                    {
                        "number": 64,
                        "time": 138.99764666666653,
                        "value": 1
                    },
                    {
                        "number": 64,
                        "time": 141.11728539999987,
                        "value": 0
                    },
                    {
                        "number": 64,
                        "time": 141.31100771666655,
                        "value": 1
                    },
                    {
                        "number": 64,
                        "time": 142.20499474999988,
                        "value": 0
                    },
                    {
                        "number": 64,
                        "time": 150.05037168333322,
                        "value": 1
                    },
                    {
                        "number": 64,
                        "time": 150.89008631666655,
                        "value": 0
                    },
                    {
                        "number": 64,
                        "time": 150.9315443999999,
                        "value": 1
                    },
                    {
                        "number": 64,
                        "time": 151.97553431666657,
                        "value": 0
                    },
                    {
                        "number": 64,
                        "time": 154.36804261666657,
                        "value": 1
                    },
                    {
                        "number": 64,
                        "time": 155.2326320999999,
                        "value": 0
                    },
                    {
                        "number": 64,
                        "time": 155.26730613333325,
                        "value": 1
                    },
                    {
                        "number": 64,
                        "time": 156.30978848333325,
                        "value": 0
                    },
                    {
                        "number": 64,
                        "time": 158.69325138333326,
                        "value": 1
                    },
                    {
                        "number": 64,
                        "time": 159.39803879999994,
                        "value": 0
                    },
                    {
                        "number": 64,
                        "time": 159.62115866666662,
                        "value": 1
                    },
                    {
                        "number": 64,
                        "time": 160.65308804999995,
                        "value": 0
                    },
                    {
                        "number": 64,
                        "time": 161.32697034999995,
                        "value": 1
                    },
                    {
                        "number": 64,
                        "time": 162.28427518333328,
                        "value": 0
                    },
                    {
                        "number": 64,
                        "time": 162.36492999999996,
                        "value": 1
                    },
                    {
                        "number": 64,
                        "time": 162.83001431666662,
                        "value": 0
                    },
                    {
                        "number": 64,
                        "time": 163.0282593333333,
                        "value": 1
                    },
                    {
                        "number": 64,
                        "time": 163.91772366666663,
                        "value": 0
                    },
                    {
                        "number": 64,
                        "time": 164.12878299999997,
                        "value": 1
                    },
                    {
                        "number": 64,
                        "time": 164.99261869999998,
                        "value": 0
                    },
                    {
                        "number": 64,
                        "time": 165.123777,
                        "value": 1
                    },
                    {
                        "number": 64,
                        "time": 165.90997301666667,
                        "value": 0
                    },
                    {
                        "number": 64,
                        "time": 166.118771,
                        "value": 1
                    },
                    {
                        "number": 64,
                        "time": 167.16728361666668,
                        "value": 0
                    },
                    {
                        "number": 64,
                        "time": 167.8615180666667,
                        "value": 1
                    },
                    {
                        "number": 64,
                        "time": 168.7962094,
                        "value": 0
                    },
                    {
                        "number": 64,
                        "time": 168.86480368333335,
                        "value": 1
                    },
                    {
                        "number": 64,
                        "time": 169.34270231666667,
                        "value": 0
                    },
                    {
                        "number": 64,
                        "time": 169.50551951666668,
                        "value": 1
                    },
                    {
                        "number": 64,
                        "time": 170.42513518333334,
                        "value": 0
                    },
                    {
                        "number": 64,
                        "time": 170.54347916666669,
                        "value": 1
                    },
                    {
                        "number": 64,
                        "time": 170.8148411666667,
                        "value": 0
                    },
                    {
                        "number": 64,
                        "time": 171.6017909666667,
                        "value": 1
                    },
                    {
                        "number": 64,
                        "time": 175.84257600000004,
                        "value": 0
                    },
                    {
                        "number": 64,
                        "time": 175.87725003333338,
                        "value": 1
                    },
                    {
                        "number": 64,
                        "time": 176.3996218833334,
                        "value": 0
                    },
                    {
                        "number": 64,
                        "time": 176.4335421333334,
                        "value": 1
                    },
                    {
                        "number": 64,
                        "time": 176.93857696666672,
                        "value": 0
                    },
                    {
                        "number": 64,
                        "time": 176.97325100000006,
                        "value": 1
                    },
                    {
                        "number": 64,
                        "time": 177.48506988333338,
                        "value": 0
                    },
                    {
                        "number": 64,
                        "time": 177.52426661666672,
                        "value": 1
                    },
                    {
                        "number": 64,
                        "time": 178.02176361666673,
                        "value": 0
                    },
                    {
                        "number": 64,
                        "time": 178.0639754833334,
                        "value": 1
                    },
                    {
                        "number": 64,
                        "time": 179.10796540000007,
                        "value": 0
                    },
                    {
                        "number": 64,
                        "time": 179.15469996666673,
                        "value": 1
                    },
                    {
                        "number": 64,
                        "time": 180.19492096666673,
                        "value": 0
                    },
                    {
                        "number": 64,
                        "time": 180.22959500000007,
                        "value": 1
                    },
                    {
                        "number": 64,
                        "time": 181.82309296666674,
                        "value": 0
                    },
                    {
                        "number": 64,
                        "time": 181.86605861666675,
                        "value": 1
                    },
                    {
                        "number": 64,
                        "time": 182.36657075000008,
                        "value": 0
                    },
                    {
                        "number": 64,
                        "time": 182.3876766833334,
                        "value": 1
                    },
                    {
                        "number": 64,
                        "time": 183.4437271333334,
                        "value": 0
                    },
                    {
                        "number": 64,
                        "time": 183.52588951666672,
                        "value": 1
                    },
                    {
                        "number": 64,
                        "time": 184.53143648333338,
                        "value": 0
                    },
                    {
                        "number": 64,
                        "time": 184.5744021333334,
                        "value": 1
                    },
                    {
                        "number": 64,
                        "time": 186.1686538833334,
                        "value": 0
                    },
                    {
                        "number": 64,
                        "time": 186.19729765000008,
                        "value": 1
                    },
                    {
                        "number": 64,
                        "time": 186.71288545000007,
                        "value": 0
                    },
                    {
                        "number": 64,
                        "time": 186.75283596666674,
                        "value": 1
                    },
                    {
                        "number": 64,
                        "time": 187.79531831666674,
                        "value": 0
                    },
                    {
                        "number": 64,
                        "time": 187.83828396666675,
                        "value": 1
                    },
                    {
                        "number": 64,
                        "time": 188.8732284833334,
                        "value": 0
                    },
                    {
                        "number": 64,
                        "time": 188.91845548333342,
                        "value": 1
                    },
                    {
                        "number": 64,
                        "time": 190.50969210000008,
                        "value": 0
                    },
                    {
                        "number": 64,
                        "time": 190.56547206666676,
                        "value": 1
                    },
                    {
                        "number": 64,
                        "time": 191.04864718333343,
                        "value": 0
                    },
                    {
                        "number": 64,
                        "time": 191.0840750000001,
                        "value": 1
                    },
                    {
                        "number": 64,
                        "time": 192.13937166666676,
                        "value": 0
                    },
                    {
                        "number": 64,
                        "time": 192.18007596666675,
                        "value": 1
                    },
                    {
                        "number": 64,
                        "time": 193.2150204833334,
                        "value": 0
                    },
                    {
                        "number": 64,
                        "time": 193.26024748333342,
                        "value": 1
                    },
                    {
                        "number": 64,
                        "time": 194.8522378833334,
                        "value": 0
                    },
                    {
                        "number": 64,
                        "time": 194.8884194833334,
                        "value": 1
                    },
                    {
                        "number": 64,
                        "time": 195.3949618833334,
                        "value": 0
                    },
                    {
                        "number": 64,
                        "time": 195.4469729333334,
                        "value": 1
                    },
                    {
                        "number": 64,
                        "time": 196.4758871833334,
                        "value": 0
                    },
                    {
                        "number": 64,
                        "time": 196.52488310000007,
                        "value": 1
                    },
                    {
                        "number": 64,
                        "time": 197.5681192333334,
                        "value": 0
                    },
                    {
                        "number": 64,
                        "time": 197.60354705000006,
                        "value": 1
                    },
                    {
                        "number": 64,
                        "time": 198.10707431666674,
                        "value": 0
                    },
                    {
                        "number": 64,
                        "time": 198.15908536666674,
                        "value": 1
                    },
                    {
                        "number": 64,
                        "time": 198.6437680500001,
                        "value": 0
                    },
                    {
                        "number": 64,
                        "time": 198.71914638333342,
                        "value": 1
                    },
                    {
                        "number": 64,
                        "time": 199.1955374500001,
                        "value": 0
                    },
                    {
                        "number": 64,
                        "time": 199.25282498333343,
                        "value": 1
                    },
                    {
                        "number": 64,
                        "time": 199.72770848333343,
                        "value": 0
                    },
                    {
                        "number": 64,
                        "time": 199.7744430500001,
                        "value": 1
                    },
                    {
                        "number": 64,
                        "time": 200.2794778833334,
                        "value": 0
                    },
                    {
                        "number": 64,
                        "time": 200.3382729833334,
                        "value": 1
                    },
                    {
                        "number": 64,
                        "time": 200.8146640500001,
                        "value": 0
                    },
                    {
                        "number": 64,
                        "time": 200.86818266666677,
                        "value": 1
                    },
                    {
                        "number": 64,
                        "time": 201.3641721000001,
                        "value": 0
                    },
                    {
                        "number": 64,
                        "time": 201.41090666666676,
                        "value": 1
                    },
                    {
                        "number": 64,
                        "time": 201.89935826666675,
                        "value": 0
                    },
                    {
                        "number": 64,
                        "time": 236.73394745000007,
                        "value": 1
                    },
                    {
                        "number": 64,
                        "time": 237.72894145000006,
                        "value": 0
                    },
                    {
                        "number": 64,
                        "time": 237.78246006666674,
                        "value": 1
                    },
                    {
                        "number": 64,
                        "time": 238.80760540000009,
                        "value": 0
                    },
                    {
                        "number": 64,
                        "time": 238.87695346666675,
                        "value": 1
                    },
                    {
                        "number": 64,
                        "time": 239.89531475000007,
                        "value": 0
                    },
                    {
                        "number": 64,
                        "time": 240.0159200833334,
                        "value": 1
                    },
                    {
                        "number": 64,
                        "time": 240.97548626666673,
                        "value": 0
                    },
                    {
                        "number": 64,
                        "time": 241.02598975000006,
                        "value": 1
                    },
                    {
                        "number": 64,
                        "time": 242.6119498833334,
                        "value": 0
                    },
                    {
                        "number": 64,
                        "time": 242.6797903833334,
                        "value": 1
                    },
                    {
                        "number": 64,
                        "time": 243.1478898333334,
                        "value": 0
                    },
                    {
                        "number": 64,
                        "time": 243.22025303333342,
                        "value": 1
                    },
                    {
                        "number": 64,
                        "time": 244.23635296666674,
                        "value": 0
                    },
                    {
                        "number": 64,
                        "time": 244.31097751666675,
                        "value": 1
                    },
                    {
                        "number": 64,
                        "time": 245.3112480000001,
                        "value": 0
                    },
                    {
                        "number": 64,
                        "time": 245.37531958333344,
                        "value": 1
                    },
                    {
                        "number": 64,
                        "time": 246.95223431666676,
                        "value": 0
                    },
                    {
                        "number": 64,
                        "time": 247.0034915833334,
                        "value": 1
                    },
                    {
                        "number": 64,
                        "time": 247.4896818333334,
                        "value": 0
                    },
                    {
                        "number": 64,
                        "time": 247.57259800000008,
                        "value": 1
                    },
                    {
                        "number": 64,
                        "time": 248.5819138833334,
                        "value": 0
                    },
                    {
                        "number": 64,
                        "time": 248.69573516666674,
                        "value": 1
                    },
                    {
                        "number": 64,
                        "time": 249.66133161666673,
                        "value": 0
                    },
                    {
                        "number": 64,
                        "time": 249.70655861666674,
                        "value": 1
                    },
                    {
                        "number": 64,
                        "time": 251.29478010000008,
                        "value": 0
                    },
                    {
                        "number": 64,
                        "time": 251.3400071000001,
                        "value": 1
                    },
                    {
                        "number": 64,
                        "time": 251.82921248333344,
                        "value": 0
                    },
                    {
                        "number": 64,
                        "time": 251.9143900000001,
                        "value": 1
                    },
                    {
                        "number": 64,
                        "time": 252.92069075000012,
                        "value": 0
                    },
                    {
                        "number": 64,
                        "time": 253.00511448333344,
                        "value": 1
                    },
                    {
                        "number": 64,
                        "time": 254.0038774000001,
                        "value": 0
                    },
                    {
                        "number": 64,
                        "time": 254.0852860000001,
                        "value": 1
                    },
                    {
                        "number": 64,
                        "time": 255.63581831666679,
                        "value": 0
                    },
                    {
                        "number": 64,
                        "time": 255.74059420000012,
                        "value": 1
                    },
                    {
                        "number": 64,
                        "time": 256.17100448333343,
                        "value": 0
                    },
                    {
                        "number": 64,
                        "time": 256.2539206500001,
                        "value": 1
                    },
                    {
                        "number": 64,
                        "time": 257.26549788333347,
                        "value": 0
                    },
                    {
                        "number": 64,
                        "time": 257.34916783333347,
                        "value": 1
                    },
                    {
                        "number": 64,
                        "time": 258.3426542666668,
                        "value": 0
                    },
                    {
                        "number": 64,
                        "time": 258.47456635000015,
                        "value": 1
                    },
                    {
                        "number": 64,
                        "time": 260.5678226666668,
                        "value": 0
                    },
                    {
                        "number": 64,
                        "time": 260.6454623500002,
                        "value": 1
                    },
                    {
                        "number": 64,
                        "time": 262.6836924833335,
                        "value": 0
                    },
                    {
                        "number": 64,
                        "time": 262.83369536666686,
                        "value": 1
                    },
                    {
                        "number": 64,
                        "time": 264.8568498333335,
                        "value": 0
                    },
                    {
                        "number": 64,
                        "time": 264.9442887000002,
                        "value": 1
                    },
                    {
                        "number": 64,
                        "time": 267.02699205000016,
                        "value": 0
                    },
                    {
                        "number": 64,
                        "time": 267.0722190500002,
                        "value": 1
                    },
                    {
                        "number": 64,
                        "time": 268.1147014000002,
                        "value": 0
                    },
                    {
                        "number": 64,
                        "time": 268.1832956833335,
                        "value": 1
                    },
                    {
                        "number": 64,
                        "time": 269.1971342666668,
                        "value": 0
                    },
                    {
                        "number": 64,
                        "time": 269.2604520666668,
                        "value": 1
                    },
                    {
                        "number": 64,
                        "time": 270.2961503666668,
                        "value": 0
                    },
                    {
                        "number": 64,
                        "time": 270.35871438333345,
                        "value": 1
                    },
                    {
                        "number": 64,
                        "time": 271.3695378333334,
                        "value": 0
                    },
                    {
                        "number": 64,
                        "time": 271.4185337500001,
                        "value": 1
                    },
                    {
                        "number": 64,
                        "time": 271.9152769666668,
                        "value": 0
                    },
                    {
                        "number": 64,
                        "time": 271.9740720666668,
                        "value": 1
                    },
                    {
                        "number": 64,
                        "time": 272.4557396166668,
                        "value": 0
                    },
                    {
                        "number": 64,
                        "time": 272.5341330833335,
                        "value": 1
                    },
                    {
                        "number": 64,
                        "time": 273.54118761666683,
                        "value": 0
                    },
                    {
                        "number": 64,
                        "time": 273.60601298333347,
                        "value": 1
                    },
                    {
                        "number": 64,
                        "time": 275.7098222666668,
                        "value": 0
                    },
                    {
                        "number": 64,
                        "time": 275.7640946666668,
                        "value": 1
                    },
                    {
                        "number": 64,
                        "time": 277.88674853333345,
                        "value": 0
                    },
                    {
                        "number": 64,
                        "time": 277.95232768333346,
                        "value": 1
                    },
                    {
                        "number": 64,
                        "time": 280.0546294000001,
                        "value": 0
                    },
                    {
                        "number": 64,
                        "time": 280.11870098333344,
                        "value": 1
                    },
                    {
                        "number": 64,
                        "time": 282.2255254000001,
                        "value": 0
                    },
                    {
                        "number": 64,
                        "time": 282.2730137500001,
                        "value": 1
                    },
                    {
                        "number": 64,
                        "time": 282.76523426666677,
                        "value": 0
                    },
                    {
                        "number": 64,
                        "time": 282.83232098333343,
                        "value": 1
                    },
                    {
                        "number": 64,
                        "time": 283.83183768333345,
                        "value": 0
                    },
                    {
                        "number": 64,
                        "time": 283.90118575000014,
                        "value": 1
                    },
                    {
                        "number": 64,
                        "time": 284.4009441000001,
                        "value": 0
                    },
                    {
                        "number": 64,
                        "time": 284.4439097500001,
                        "value": 1
                    },
                    {
                        "number": 64,
                        "time": 284.94743701666675,
                        "value": 0
                    },
                    {
                        "number": 64,
                        "time": 285.0250767000001,
                        "value": 1
                    },
                    {
                        "number": 64,
                        "time": 286.0328850166668,
                        "value": 0
                    },
                    {
                        "number": 64,
                        "time": 286.0758506666668,
                        "value": 1
                    },
                    {
                        "number": 64,
                        "time": 286.56656361666677,
                        "value": 0
                    },
                    {
                        "number": 64,
                        "time": 286.6012376500001,
                        "value": 1
                    },
                    {
                        "number": 64,
                        "time": 287.1100414000001,
                        "value": 0
                    },
                    {
                        "number": 64,
                        "time": 287.16582136666676,
                        "value": 1
                    },
                    {
                        "number": 64,
                        "time": 288.2045348000001,
                        "value": 0
                    },
                    {
                        "number": 64,
                        "time": 288.2686063833334,
                        "value": 1
                    },
                    {
                        "number": 64,
                        "time": 288.7367058333334,
                        "value": 0
                    },
                    {
                        "number": 64,
                        "time": 288.7811790500001,
                        "value": 1
                    },
                    {
                        "number": 64,
                        "time": 289.28470631666676,
                        "value": 0
                    },
                    {
                        "number": 64,
                        "time": 289.3412400666668,
                        "value": 1
                    },
                    {
                        "number": 64,
                        "time": 290.3686467500001,
                        "value": 0
                    },
                    {
                        "number": 64,
                        "time": 290.42668806666677,
                        "value": 1
                    },
                    {
                        "number": 64,
                        "time": 290.9136321000001,
                        "value": 0
                    },
                    {
                        "number": 64,
                        "time": 299.65299606666673,
                        "value": 1
                    },
                    {
                        "number": 64,
                        "time": 300.6781414000001,
                        "value": 0
                    },
                    {
                        "number": 64,
                        "time": 300.72110705000006,
                        "value": 1
                    },
                    {
                        "number": 64,
                        "time": 301.7598204833334,
                        "value": 0
                    },
                    {
                        "number": 64,
                        "time": 308.35768600000006,
                        "value": 1
                    },
                    {
                        "number": 64,
                        "time": 309.3632329666667,
                        "value": 0
                    },
                    {
                        "number": 64,
                        "time": 309.4114751000001,
                        "value": 1
                    },
                    {
                        "number": 64,
                        "time": 310.4456658333334,
                        "value": 0
                    },
                    {
                        "number": 64,
                        "time": 312.64595938333343,
                        "value": 1
                    },
                    {
                        "number": 64,
                        "time": 313.70728631666674,
                        "value": 0
                    },
                    {
                        "number": 64,
                        "time": 313.7396990000001,
                        "value": 1
                    },
                    {
                        "number": 64,
                        "time": 314.7829351333334,
                        "value": 0
                    },
                    {
                        "number": 64,
                        "time": 317.04127000000005,
                        "value": 1
                    },
                    {
                        "number": 64,
                        "time": 318.04983210000006,
                        "value": 0
                    },
                    {
                        "number": 64,
                        "time": 318.1025969333334,
                        "value": 1
                    },
                    {
                        "number": 64,
                        "time": 319.1284960500001,
                        "value": 0
                    },
                    {
                        "number": 64,
                        "time": 323.5200377500001,
                        "value": 1
                    },
                    {
                        "number": 64,
                        "time": 326.73266231666673,
                        "value": 0
                    },
                    {
                        "number": 64,
                        "time": 326.7974876833334,
                        "value": 1
                    },
                    {
                        "number": 64,
                        "time": 326.94372165000004,
                        "value": 0
                    },
                    {
                        "number": 64,
                        "time": 327.29724603333335,
                        "value": 1
                    },
                    {
                        "number": 64,
                        "time": 327.48644565,
                        "value": 0
                    },
                    {
                        "number": 64,
                        "time": 330.14880838333335,
                        "value": 1
                    },
                    {
                        "number": 64,
                        "time": 333.4458566833333,
                        "value": 0
                    },
                    {
                        "number": 64,
                        "time": 336.54918266666664,
                        "value": 1
                    },
                    {
                        "number": 64,
                        "time": 338.66656005,
                        "value": 0
                    },
                    {
                        "number": 64,
                        "time": 338.8678202,
                        "value": 1
                    },
                    {
                        "number": 64,
                        "time": 339.7542694,
                        "value": 0
                    },
                    {
                        "number": 64,
                        "time": 339.80100396666666,
                        "value": 1
                    },
                    {
                        "number": 64,
                        "time": 340.8359484833333,
                        "value": 0
                    },
                    {
                        "number": 64,
                        "time": 341.0206254,
                        "value": 1
                    },
                    {
                        "number": 64,
                        "time": 343.01061339999995,
                        "value": 0
                    },
                    {
                        "number": 64,
                        "time": 343.2239340833333,
                        "value": 1
                    },
                    {
                        "number": 64,
                        "time": 343.92118366666665,
                        "value": 0
                    },
                    {
                        "number": 64,
                        "time": 344.13450435,
                        "value": 1
                    },
                    {
                        "number": 64,
                        "time": 345.1777404833333,
                        "value": 0
                    },
                    {
                        "number": 64,
                        "time": 345.31040635,
                        "value": 1
                    },
                    {
                        "number": 64,
                        "time": 347.3508978333333,
                        "value": 0
                    },
                    {
                        "number": 64,
                        "time": 347.59361606666664,
                        "value": 1
                    },
                    {
                        "number": 64,
                        "time": 348.2644832333333,
                        "value": 0
                    },
                    {
                        "number": 64,
                        "time": 348.4951409333333,
                        "value": 1
                    },
                    {
                        "number": 64,
                        "time": 349.52028626666663,
                        "value": 0
                    },
                    {
                        "number": 64,
                        "time": 349.6514445666666,
                        "value": 1
                    },
                    {
                        "number": 64,
                        "time": 351.6979663166666,
                        "value": 0
                    },
                    {
                        "number": 64,
                        "time": 351.90902564999993,
                        "value": 1
                    },
                    {
                        "number": 64,
                        "time": 352.78039918333326,
                        "value": 0
                    },
                    {
                        "number": 64,
                        "time": 352.88215993333324,
                        "value": 1
                    },
                    {
                        "number": 64,
                        "time": 353.8718774499999,
                        "value": 0
                    },
                    {
                        "number": 64,
                        "time": 377.89042958333323,
                        "value": 1
                    },
                    {
                        "number": 64,
                        "time": 378.8334125333332,
                        "value": 0
                    },
                    {
                        "number": 64,
                        "time": 378.9389421999999,
                        "value": 1
                    },
                    {
                        "number": 64,
                        "time": 379.91283026666656,
                        "value": 0
                    },
                    {
                        "number": 64,
                        "time": 379.9814245499999,
                        "value": 1
                    },
                    {
                        "number": 64,
                        "time": 381.0065698833332,
                        "value": 0
                    },
                    {
                        "number": 64,
                        "time": 381.0985314499999,
                        "value": 1
                    },
                    {
                        "number": 64,
                        "time": 382.09051031666655,
                        "value": 0
                    },
                    {
                        "number": 64,
                        "time": 382.1952861999999,
                        "value": 1
                    },
                    {
                        "number": 64,
                        "time": 383.17595831666654,
                        "value": 0
                    },
                    {
                        "number": 64,
                        "time": 383.2535979999999,
                        "value": 1
                    },
                    {
                        "number": 64,
                        "time": 384.25386848333324,
                        "value": 0
                    },
                    {
                        "number": 64,
                        "time": 384.34432248333326,
                        "value": 1
                    },
                    {
                        "number": 64,
                        "time": 385.34233161666657,
                        "value": 0
                    },
                    {
                        "number": 64,
                        "time": 385.41394103333323,
                        "value": 1
                    },
                    {
                        "number": 64,
                        "time": 386.42928718333326,
                        "value": 0
                    },
                    {
                        "number": 64,
                        "time": 386.5257714499999,
                        "value": 1
                    },
                    {
                        "number": 64,
                        "time": 387.51699653333327,
                        "value": 0
                    },
                    {
                        "number": 64,
                        "time": 387.61121944999996,
                        "value": 1
                    },
                    {
                        "number": 64,
                        "time": 388.60319831666664,
                        "value": 0
                    },
                    {
                        "number": 64,
                        "time": 388.6702850333333,
                        "value": 1
                    },
                    {
                        "number": 64,
                        "time": 389.69166144999997,
                        "value": 0
                    },
                    {
                        "number": 64,
                        "time": 389.7986986833333,
                        "value": 1
                    },
                    {
                        "number": 64,
                        "time": 390.76128,
                        "value": 0
                    },
                    {
                        "number": 64,
                        "time": 391.09294466666665,
                        "value": 1
                    },
                    {
                        "number": 64,
                        "time": 392.93745248333335,
                        "value": 0
                    },
                    {
                        "number": 64,
                        "time": 393.113084,
                        "value": 1
                    },
                    {
                        "number": 64,
                        "time": 393.4899756666667,
                        "value": 0
                    },
                    {
                        "number": 64,
                        "time": 393.67088366666667,
                        "value": 1
                    },
                    {
                        "number": 64,
                        "time": 395.11136361666667,
                        "value": 0
                    },
                    {
                        "number": 64,
                        "time": 395.2523211,
                        "value": 1
                    },
                    {
                        "number": 64,
                        "time": 397.28075205,
                        "value": 0
                    },
                    {
                        "number": 64,
                        "time": 397.34331606666666,
                        "value": 1
                    },
                    {
                        "number": 64,
                        "time": 399.45692453333334,
                        "value": 0
                    },
                    {
                        "number": 64,
                        "time": 399.50139775,
                        "value": 1
                    },
                    {
                        "number": 64,
                        "time": 401.6240516166667,
                        "value": 0
                    },
                    {
                        "number": 64,
                        "time": 401.6851080666667,
                        "value": 1
                    },
                    {
                        "number": 64,
                        "time": 403.79796275000007,
                        "value": 0
                    },
                    {
                        "number": 64,
                        "time": 412.4958686333334,
                        "value": 1
                    },
                    {
                        "number": 64,
                        "time": 412.9398470166667,
                        "value": 0
                    },
                    {
                        "number": 64,
                        "time": 413.0431153333334,
                        "value": 1
                    },
                    {
                        "number": 64,
                        "time": 413.1418609500001,
                        "value": 0
                    },
                    {
                        "number": 64,
                        "time": 413.2368376500001,
                        "value": 1
                    },
                    {
                        "number": 64,
                        "time": 413.31900003333345,
                        "value": 0
                    },
                    {
                        "number": 64,
                        "time": 413.41322295000015,
                        "value": 1
                    },
                    {
                        "number": 64,
                        "time": 413.4908626333335,
                        "value": 0
                    },
                    {
                        "number": 64,
                        "time": 413.6031763500002,
                        "value": 1
                    },
                    {
                        "number": 64,
                        "time": 414.0464009500002,
                        "value": 0
                    },
                    {
                        "number": 64,
                        "time": 414.1504230500002,
                        "value": 1
                    },
                    {
                        "number": 64,
                        "time": 414.2491686666669,
                        "value": 0
                    },
                    {
                        "number": 64,
                        "time": 414.3222856500002,
                        "value": 1
                    },
                    {
                        "number": 64,
                        "time": 414.4127396500002,
                        "value": 0
                    },
                    {
                        "number": 64,
                        "time": 414.4903793333336,
                        "value": 1
                    },
                    {
                        "number": 64,
                        "time": 414.59817035000026,
                        "value": 0
                    },
                    {
                        "number": 64,
                        "time": 414.66676463333357,
                        "value": 1
                    },
                    {
                        "number": 64,
                        "time": 415.1303413833336,
                        "value": 0
                    },
                    {
                        "number": 64,
                        "time": 415.2140113333336,
                        "value": 1
                    },
                    {
                        "number": 64,
                        "time": 415.3127569500003,
                        "value": 0
                    },
                    {
                        "number": 64,
                        "time": 415.4077336500003,
                        "value": 1
                    },
                    {
                        "number": 64,
                        "time": 415.48989603333365,
                        "value": 0
                    },
                    {
                        "number": 64,
                        "time": 415.58411895000035,
                        "value": 1
                    },
                    {
                        "number": 64,
                        "time": 415.6617586333337,
                        "value": 0
                    },
                    {
                        "number": 64,
                        "time": 415.7740723500004,
                        "value": 1
                    },
                    {
                        "number": 64,
                        "time": 416.2172969500004,
                        "value": 0
                    },
                    {
                        "number": 64,
                        "time": 416.3213190500004,
                        "value": 1
                    },
                    {
                        "number": 64,
                        "time": 416.4200646666671,
                        "value": 0
                    },
                    {
                        "number": 64,
                        "time": 416.4931816500004,
                        "value": 1
                    },
                    {
                        "number": 64,
                        "time": 416.5836356500004,
                        "value": 0
                    },
                    {
                        "number": 64,
                        "time": 416.6612753333338,
                        "value": 1
                    },
                    {
                        "number": 64,
                        "time": 416.76906635000046,
                        "value": 0
                    },
                    {
                        "number": 64,
                        "time": 416.8851489833338,
                        "value": 1
                    },
                    {
                        "number": 64,
                        "time": 418.45151075000047,
                        "value": 0
                    },
                    {
                        "number": 64,
                        "time": 418.5223663833338,
                        "value": 1
                    },
                    {
                        "number": 64,
                        "time": 419.54148145000045,
                        "value": 0
                    },
                    {
                        "number": 64,
                        "time": 419.61610600000046,
                        "value": 1
                    },
                    {
                        "number": 64,
                        "time": 420.08194410000044,
                        "value": 0
                    },
                    {
                        "number": 64,
                        "time": 420.1588300000004,
                        "value": 1
                    },
                    {
                        "number": 64,
                        "time": 420.62542188333373,
                        "value": 0
                    },
                    {
                        "number": 64,
                        "time": 420.7105994000004,
                        "value": 1
                    },
                    {
                        "number": 64,
                        "time": 421.1538240000004,
                        "value": 0
                    },
                    {
                        "number": 64,
                        "time": 421.1794526333337,
                        "value": 1
                    },
                    {
                        "number": 64,
                        "time": 421.62343101666704,
                        "value": 0
                    },
                    {
                        "number": 64,
                        "time": 421.7266993333337,
                        "value": 1
                    },
                    {
                        "number": 64,
                        "time": 421.8254449500004,
                        "value": 0
                    },
                    {
                        "number": 64,
                        "time": 421.92042165000043,
                        "value": 1
                    },
                    {
                        "number": 64,
                        "time": 422.0025840333338,
                        "value": 0
                    },
                    {
                        "number": 64,
                        "time": 422.0968069500005,
                        "value": 1
                    },
                    {
                        "number": 64,
                        "time": 422.17444663333384,
                        "value": 0
                    },
                    {
                        "number": 64,
                        "time": 422.2867603500005,
                        "value": 1
                    },
                    {
                        "number": 64,
                        "time": 422.7299849500005,
                        "value": 0
                    },
                    {
                        "number": 64,
                        "time": 422.83400705000054,
                        "value": 1
                    },
                    {
                        "number": 64,
                        "time": 422.9327526666672,
                        "value": 0
                    },
                    {
                        "number": 64,
                        "time": 423.00586965000053,
                        "value": 1
                    },
                    {
                        "number": 64,
                        "time": 423.09632365000056,
                        "value": 0
                    },
                    {
                        "number": 64,
                        "time": 423.1739633333339,
                        "value": 1
                    },
                    {
                        "number": 64,
                        "time": 423.2817543500006,
                        "value": 0
                    },
                    {
                        "number": 64,
                        "time": 423.3503486333339,
                        "value": 1
                    },
                    {
                        "number": 64,
                        "time": 423.79432701666724,
                        "value": 0
                    },
                    {
                        "number": 64,
                        "time": 423.8975953333339,
                        "value": 1
                    },
                    {
                        "number": 64,
                        "time": 423.9963409500006,
                        "value": 0
                    },
                    {
                        "number": 64,
                        "time": 424.09131765000063,
                        "value": 1
                    },
                    {
                        "number": 64,
                        "time": 424.173480033334,
                        "value": 0
                    },
                    {
                        "number": 64,
                        "time": 424.2677029500007,
                        "value": 1
                    },
                    {
                        "number": 64,
                        "time": 424.34534263333404,
                        "value": 0
                    },
                    {
                        "number": 64,
                        "time": 424.4576563500007,
                        "value": 1
                    },
                    {
                        "number": 64,
                        "time": 424.9008809500007,
                        "value": 0
                    },
                    {
                        "number": 64,
                        "time": 425.00490305000073,
                        "value": 1
                    },
                    {
                        "number": 64,
                        "time": 425.1036486666674,
                        "value": 0
                    },
                    {
                        "number": 64,
                        "time": 425.17676565000073,
                        "value": 1
                    },
                    {
                        "number": 64,
                        "time": 425.26721965000075,
                        "value": 0
                    },
                    {
                        "number": 64,
                        "time": 425.3448593333341,
                        "value": 1
                    },
                    {
                        "number": 64,
                        "time": 425.4526503500008,
                        "value": 0
                    },
                    {
                        "number": 64,
                        "time": 425.55968758333415,
                        "value": 1
                    },
                    {
                        "number": 64,
                        "time": 427.1343409666675,
                        "value": 0
                    },
                    {
                        "number": 64,
                        "time": 427.2036890333342,
                        "value": 1
                    },
                    {
                        "number": 64,
                        "time": 427.67103470000086,
                        "value": 0
                    },
                    {
                        "number": 64,
                        "time": 427.71852305000084,
                        "value": 1
                    },
                    {
                        "number": 64,
                        "time": 428.2220503166675,
                        "value": 0
                    },
                    {
                        "number": 64,
                        "time": 428.27406136666747,
                        "value": 1
                    },
                    {
                        "number": 64,
                        "time": 428.7625129666675,
                        "value": 0
                    },
                    {
                        "number": 64,
                        "time": 428.83864508333414,
                        "value": 1
                    },
                    {
                        "number": 64,
                        "time": 429.30674453333415,
                        "value": 0
                    },
                    {
                        "number": 64,
                        "time": 429.38966070000083,
                        "value": 1
                    },
                    {
                        "number": 64,
                        "time": 429.85172988333414,
                        "value": 0
                    },
                    {
                        "number": 64,
                        "time": 429.9323847000008,
                        "value": 1
                    },
                    {
                        "number": 64,
                        "time": 430.3914387500008,
                        "value": 0
                    },
                    {
                        "number": 64,
                        "time": 430.45777168333416,
                        "value": 1
                    },
                    {
                        "number": 64,
                        "time": 430.9371778833342,
                        "value": 0
                    },
                    {
                        "number": 64,
                        "time": 430.9959729833342,
                        "value": 1
                    },
                    {
                        "number": 64,
                        "time": 431.47462540000083,
                        "value": 0
                    },
                    {
                        "number": 64,
                        "time": 431.5349280666675,
                        "value": 1
                    },
                    {
                        "number": 64,
                        "time": 432.0128267000008,
                        "value": 0
                    },
                    {
                        "number": 64,
                        "time": 432.0859436833341,
                        "value": 1
                    },
                    {
                        "number": 64,
                        "time": 433.1035511833341,
                        "value": 0
                    },
                    {
                        "number": 64,
                        "time": 433.15857736666743,
                        "value": 1
                    },
                    {
                        "number": 64,
                        "time": 434.18598405000074,
                        "value": 0
                    },
                    {
                        "number": 64,
                        "time": 434.2395026666674,
                        "value": 1
                    },
                    {
                        "number": 64,
                        "time": 434.7347383166674,
                        "value": 0
                    },
                    {
                        "number": 64,
                        "time": 434.8040863833341,
                        "value": 1
                    },
                    {
                        "number": 64,
                        "time": 435.27369340000075,
                        "value": 0
                    },
                    {
                        "number": 64,
                        "time": 435.3339960666674,
                        "value": 1
                    },
                    {
                        "number": 64,
                        "time": 435.8201863166674,
                        "value": 0
                    },
                    {
                        "number": 64,
                        "time": 435.885011683334,
                        "value": 1
                    },
                    {
                        "number": 64,
                        "time": 436.3546187000007,
                        "value": 0
                    },
                    {
                        "number": 64,
                        "time": 436.4194440666673,
                        "value": 1
                    },
                    {
                        "number": 64,
                        "time": 436.90186540000064,
                        "value": 0
                    },
                    {
                        "number": 64,
                        "time": 436.979505083334,
                        "value": 1
                    },
                    {
                        "number": 64,
                        "time": 437.4468507500007,
                        "value": 0
                    },
                    {
                        "number": 64,
                        "time": 437.5259980000007,
                        "value": 1
                    },
                    {
                        "number": 64,
                        "time": 437.992589883334,
                        "value": 0
                    },
                    {
                        "number": 64,
                        "time": 438.060430383334,
                        "value": 1
                    },
                    {
                        "number": 64,
                        "time": 438.53531388333397,
                        "value": 0
                    },
                    {
                        "number": 64,
                        "time": 438.5812946666673,
                        "value": 1
                    },
                    {
                        "number": 64,
                        "time": 439.073515183334,
                        "value": 0
                    },
                    {
                        "number": 64,
                        "time": 439.1285413666673,
                        "value": 1
                    },
                    {
                        "number": 64,
                        "time": 439.62000810000063,
                        "value": 0
                    },
                    {
                        "number": 64,
                        "time": 439.6757880666673,
                        "value": 1
                    },
                    {
                        "number": 64,
                        "time": 440.1582094000006,
                        "value": 0
                    },
                    {
                        "number": 64,
                        "time": 440.2222809833339,
                        "value": 1
                    },
                    {
                        "number": 64,
                        "time": 440.6994258333339,
                        "value": 0
                    },
                    {
                        "number": 64,
                        "time": 440.75595958333395,
                        "value": 1
                    },
                    {
                        "number": 64,
                        "time": 444.5015089666673,
                        "value": 0
                    },
                    {
                        "number": 64,
                        "time": 444.60251593333396,
                        "value": 1
                    },
                    {
                        "number": 64,
                        "time": 445.041217833334,
                        "value": 0
                    },
                    {
                        "number": 64,
                        "time": 445.10830455000064,
                        "value": 1
                    },
                    {
                        "number": 64,
                        "time": 446.12666583333396,
                        "value": 0
                    },
                    {
                        "number": 64,
                        "time": 446.2043055166673,
                        "value": 1
                    },
                    {
                        "number": 64,
                        "time": 447.2113600500007,
                        "value": 0
                    },
                    {
                        "number": 64,
                        "time": 447.27920055000067,
                        "value": 1
                    },
                    {
                        "number": 64,
                        "time": 448.8485774500007,
                        "value": 0
                    },
                    {
                        "number": 64,
                        "time": 448.944307933334,
                        "value": 1
                    },
                    {
                        "number": 64,
                        "time": 449.3822560500007,
                        "value": 0
                    },
                    {
                        "number": 64,
                        "time": 449.455373033334,
                        "value": 1
                    },
                    {
                        "number": 64,
                        "time": 450.47071918333404,
                        "value": 0
                    },
                    {
                        "number": 64,
                        "time": 450.5619269666674,
                        "value": 1
                    },
                    {
                        "number": 64,
                        "time": 451.55315205000073,
                        "value": 0
                    },
                    {
                        "number": 64,
                        "time": 451.6209925500007,
                        "value": 1
                    },
                    {
                        "number": 64,
                        "time": 453.7300783166674,
                        "value": 0
                    },
                    {
                        "number": 64,
                        "time": 453.7602296500007,
                        "value": 1
                    },
                    {
                        "number": 64,
                        "time": 455.89569783333405,
                        "value": 0
                    },
                    {
                        "number": 64,
                        "time": 455.98389048333405,
                        "value": 1
                    },
                    {
                        "number": 64,
                        "time": 456.9894374500007,
                        "value": 0
                    },
                    {
                        "number": 64,
                        "time": 457.07989145000073,
                        "value": 1
                    },
                    {
                        "number": 64,
                        "time": 458.0696089666674,
                        "value": 0
                    },
                    {
                        "number": 64,
                        "time": 458.16157053333404,
                        "value": 1
                    },
                    {
                        "number": 64,
                        "time": 459.1580721000007,
                        "value": 0
                    },
                    {
                        "number": 64,
                        "time": 459.2372193500007,
                        "value": 1
                    },
                    {
                        "number": 64,
                        "time": 460.2389974000007,
                        "value": 0
                    },
                    {
                        "number": 64,
                        "time": 460.33095896666737,
                        "value": 1
                    },
                    {
                        "number": 64,
                        "time": 462.40913961666735,
                        "value": 0
                    },
                    {
                        "number": 64,
                        "time": 462.4913020000007,
                        "value": 1
                    },
                    {
                        "number": 64,
                        "time": 463.50137166666735,
                        "value": 0
                    },
                    {
                        "number": 64,
                        "time": 463.60916268333403,
                        "value": 1
                    },
                    {
                        "number": 64,
                        "time": 464.5785280500007,
                        "value": 0
                    },
                    {
                        "number": 64,
                        "time": 464.65164503333403,
                        "value": 1
                    },
                    {
                        "number": 64,
                        "time": 466.7486702666674,
                        "value": 0
                    },
                    {
                        "number": 64,
                        "time": 466.8278175166674,
                        "value": 1
                    },
                    {
                        "number": 64,
                        "time": 468.9240889666674,
                        "value": 0
                    },
                    {
                        "number": 64,
                        "time": 468.9828840666674,
                        "value": 1
                    },
                    {
                        "number": 64,
                        "time": 471.0934774000007,
                        "value": 0
                    },
                    {
                        "number": 64,
                        "time": 471.15378006666737,
                        "value": 1
                    },
                    {
                        "number": 64,
                        "time": 473.2666347500007,
                        "value": 0
                    },
                    {
                        "number": 64,
                        "time": 473.33749038333406,
                        "value": 1
                    },
                    {
                        "number": 64,
                        "time": 477.50289708333406,
                        "value": 0
                    },
                    {
                        "number": 64,
                        "time": 477.6966194000007,
                        "value": 1
                    },
                    {
                        "number": 64,
                        "time": 481.8703177166674,
                        "value": 0
                    },
                    {
                        "number": 64,
                        "time": 482.0037373666674,
                        "value": 1
                    },
                    {
                        "number": 64,
                        "time": 482.96858003333404,
                        "value": 0
                    },
                    {
                        "number": 64,
                        "time": 483.0891853666674,
                        "value": 1
                    },
                    {
                        "number": 64,
                        "time": 484.03216831666737,
                        "value": 0
                    },
                    {
                        "number": 64,
                        "time": 484.1618190500007,
                        "value": 1
                    },
                    {
                        "number": 64,
                        "time": 485.14399873333406,
                        "value": 0
                    },
                    {
                        "number": 64,
                        "time": 485.25178975000074,
                        "value": 1
                    },
                    {
                        "number": 64,
                        "time": 486.1992954000007,
                        "value": 0
                    },
                    {
                        "number": 64,
                        "time": 486.3839723166674,
                        "value": 1
                    },
                    {
                        "number": 64,
                        "time": 486.83548853333406,
                        "value": 0
                    },
                    {
                        "number": 64,
                        "time": 486.91840470000074,
                        "value": 1
                    },
                    {
                        "number": 64,
                        "time": 487.37595118333405,
                        "value": 0
                    },
                    {
                        "number": 64,
                        "time": 487.44831438333404,
                        "value": 1
                    },
                    {
                        "number": 64,
                        "time": 487.92169031666737,
                        "value": 0
                    },
                    {
                        "number": 64,
                        "time": 487.99103838333406,
                        "value": 1
                    },
                    {
                        "number": 64,
                        "time": 488.46290675000074,
                        "value": 0
                    },
                    {
                        "number": 64,
                        "time": 488.5209480666674,
                        "value": 1
                    },
                    {
                        "number": 64,
                        "time": 489.0071383166674,
                        "value": 0
                    },
                    {
                        "number": 64,
                        "time": 489.0810090833341,
                        "value": 1
                    },
                    {
                        "number": 64,
                        "time": 489.5483547500008,
                        "value": 0
                    },
                    {
                        "number": 64,
                        "time": 489.6365474000008,
                        "value": 1
                    },
                    {
                        "number": 64,
                        "time": 490.09258631666745,
                        "value": 0
                    },
                    {
                        "number": 64,
                        "time": 490.16193438333414,
                        "value": 1
                    },
                    {
                        "number": 64,
                        "time": 490.62928005000083,
                        "value": 0
                    },
                    {
                        "number": 64,
                        "time": 490.6918440666675,
                        "value": 1
                    },
                    {
                        "number": 64,
                        "time": 491.17954188333414,
                        "value": 0
                    },
                    {
                        "number": 64,
                        "time": 491.2519050833341,
                        "value": 1
                    },
                    {
                        "number": 64,
                        "time": 491.72000453333413,
                        "value": 0
                    },
                    {
                        "number": 64,
                        "time": 491.8029207000008,
                        "value": 1
                    },
                    {
                        "number": 64,
                        "time": 492.26272853333415,
                        "value": 0
                    },
                    {
                        "number": 64,
                        "time": 492.34564470000083,
                        "value": 1
                    },
                    {
                        "number": 64,
                        "time": 492.8039449666675,
                        "value": 0
                    },
                    {
                        "number": 64,
                        "time": 492.92153516666747,
                        "value": 1
                    },
                    {
                        "number": 64,
                        "time": 497.1412142666675,
                        "value": 0
                    },
                    {
                        "number": 64,
                        "time": 497.1954866666675,
                        "value": 1
                    },
                    {
                        "number": 64,
                        "time": 501.48752896666747,
                        "value": 0
                    },
                    {
                        "number": 64,
                        "time": 501.5621535166675,
                        "value": 1
                    },
                    {
                        "number": 64,
                        "time": 505.8270596166675,
                        "value": 0
                    },
                    {
                        "number": 64,
                        "time": 505.8835933666675,
                        "value": 1
                    },
                    {
                        "number": 64,
                        "time": 510.1703591833342,
                        "value": 0
                    },
                    {
                        "number": 64,
                        "time": 510.3761420333342,
                        "value": 1
                    },
                    {
                        "number": 64,
                        "time": 511.25505340000086,
                        "value": 0
                    },
                    {
                        "number": 64,
                        "time": 511.40128736666753,
                        "value": 1
                    },
                    {
                        "number": 64,
                        "time": 512.3405014000009,
                        "value": 0
                    },
                    {
                        "number": 64,
                        "time": 512.4611067333342,
                        "value": 1
                    },
                    {
                        "number": 64,
                        "time": 513.4267031833342,
                        "value": 0
                    },
                    {
                        "number": 64,
                        "time": 513.5548463500008,
                        "value": 1
                    },
                    {
                        "number": 64,
                        "time": 514.5166738833342,
                        "value": 0
                    },
                    {
                        "number": 64,
                        "time": 514.6938129666676,
                        "value": 1
                    },
                    {
                        "number": 64,
                        "time": 515.5968454000009,
                        "value": 0
                    },
                    {
                        "number": 64,
                        "time": 515.768708000001,
                        "value": 1
                    },
                    {
                        "number": 64,
                        "time": 516.1395694000009,
                        "value": 0
                    },
                    {
                        "number": 64,
                        "time": 516.2586671666676,
                        "value": 1
                    },
                    {
                        "number": 64,
                        "time": 516.6792782666676,
                        "value": 0
                    },
                    {
                        "number": 64,
                        "time": 517.2973806000009,
                        "value": 1
                    },
                    {
                        "number": 64,
                        "time": 517.7730178833342,
                        "value": 0
                    },
                    {
                        "number": 64,
                        "time": 517.8401046000009,
                        "value": 1
                    },
                    {
                        "number": 64,
                        "time": 518.314988100001,
                        "value": 0
                    },
                    {
                        "number": 64,
                        "time": 518.382828600001,
                        "value": 1
                    },
                    {
                        "number": 64,
                        "time": 518.8539431833343,
                        "value": 0
                    },
                    {
                        "number": 64,
                        "time": 518.934598000001,
                        "value": 1
                    },
                    {
                        "number": 64,
                        "time": 522.1540066166676,
                        "value": 0
                    },
                    {
                        "number": 64,
                        "time": 522.2550135833343,
                        "value": 1
                    },
                    {
                        "number": 64,
                        "time": 523.192720050001,
                        "value": 0
                    },
                    {
                        "number": 64,
                        "time": 523.2816664833343,
                        "value": 1
                    },
                    {
                        "number": 64,
                        "time": 526.4543405333343,
                        "value": 0
                    },
                    {
                        "number": 64,
                        "time": 526.5704231666676,
                        "value": 1
                    },
                    {
                        "number": 64,
                        "time": 527.5367734000009,
                        "value": 0
                    },
                    {
                        "number": 64,
                        "time": 527.6234584833343,
                        "value": 1
                    },
                    {
                        "number": 64,
                        "time": 529.6986240000009,
                        "value": 0
                    },
                    {
                        "number": 64,
                        "time": 529.8049074500009,
                        "value": 1
                    },
                    {
                        "number": 64,
                        "time": 530.2534085333342,
                        "value": 0
                    },
                    {
                        "number": 64,
                        "time": 530.3642146833342,
                        "value": 1
                    },
                    {
                        "number": 64,
                        "time": 531.3373489666676,
                        "value": 0
                    },
                    {
                        "number": 64,
                        "time": 531.4066970333342,
                        "value": 1
                    },
                    {
                        "number": 64,
                        "time": 531.8838418833342,
                        "value": 0
                    },
                    {
                        "number": 64,
                        "time": 531.9343453666676,
                        "value": 1
                    },
                    {
                        "number": 64,
                        "time": 532.9647671833343,
                        "value": 0
                    },
                    {
                        "number": 64,
                        "time": 533.0280849833343,
                        "value": 1
                    },
                    {
                        "number": 64,
                        "time": 534.0487076166677,
                        "value": 0
                    },
                    {
                        "number": 64,
                        "time": 534.1188094666677,
                        "value": 1
                    },
                    {
                        "number": 64,
                        "time": 536.2173422666677,
                        "value": 0
                    },
                    {
                        "number": 64,
                        "time": 536.270107100001,
                        "value": 1
                    },
                    {
                        "number": 64,
                        "time": 536.7660965333343,
                        "value": 0
                    },
                    {
                        "number": 64,
                        "time": 536.8769026833344,
                        "value": 1
                    },
                    {
                        "number": 64,
                        "time": 537.8515445333344,
                        "value": 0
                    },
                    {
                        "number": 64,
                        "time": 537.929938000001,
                        "value": 1
                    },
                    {
                        "number": 64,
                        "time": 538.3957761000011,
                        "value": 0
                    },
                    {
                        "number": 64,
                        "time": 538.4884914500011,
                        "value": 1
                    },
                    {
                        "number": 64,
                        "time": 539.4797165333345,
                        "value": 0
                    },
                    {
                        "number": 64,
                        "time": 539.5581100000011,
                        "value": 1
                    },
                    {
                        "number": 64,
                        "time": 540.5598880500011,
                        "value": 0
                    },
                    {
                        "number": 64,
                        "time": 540.6827547333344,
                        "value": 1
                    },
                    {
                        "number": 64,
                        "time": 541.2820124833344,
                        "value": 0
                    },
                    {
                        "number": 64,
                        "time": 541.8458424166677,
                        "value": 1
                    },
                    {
                        "number": 64,
                        "time": 542.371229400001,
                        "value": 0
                    },
                    {
                        "number": 64,
                        "time": 542.8106850833343,
                        "value": 1
                    },
                    {
                        "number": 64,
                        "time": 543.4604463166677,
                        "value": 0
                    },
                    {
                        "number": 64,
                        "time": 544.0506586666677,
                        "value": 1
                    },
                    {
                        "number": 64,
                        "time": 544.5451405333343,
                        "value": 0
                    },
                    {
                        "number": 64,
                        "time": 544.9551986666677,
                        "value": 1
                    },
                    {
                        "number": 64,
                        "time": 545.4504343166677,
                        "value": 0
                    },
                    {
                        "number": 64,
                        "time": 545.5499337166677,
                        "value": 1
                    },
                    {
                        "number": 64,
                        "time": 545.9908969666677,
                        "value": 0
                    },
                    {
                        "number": 64,
                        "time": 546.075320700001,
                        "value": 1
                    },
                    {
                        "number": 64,
                        "time": 546.5373898833344,
                        "value": 0
                    },
                    {
                        "number": 64,
                        "time": 546.6263363166678,
                        "value": 1
                    },
                    {
                        "number": 64,
                        "time": 547.0710684833344,
                        "value": 0
                    },
                    {
                        "number": 64,
                        "time": 547.2037343500011,
                        "value": 1
                    },
                    {
                        "number": 64,
                        "time": 547.7984694000012,
                        "value": 0
                    },
                    {
                        "number": 64,
                        "time": 548.2982277500012,
                        "value": 1
                    },
                    {
                        "number": 64,
                        "time": 548.8861787500011,
                        "value": 0
                    },
                    {
                        "number": 64,
                        "time": 549.3399563166678,
                        "value": 1
                    },
                    {
                        "number": 64,
                        "time": 549.9693654000012,
                        "value": 0
                    },
                    {
                        "number": 64,
                        "time": 550.5203810166678,
                        "value": 1
                    },
                    {
                        "number": 64,
                        "time": 551.0570747500011,
                        "value": 0
                    },
                    {
                        "number": 64,
                        "time": 551.4595950500011,
                        "value": 1
                    },
                    {
                        "number": 64,
                        "time": 551.9623685333345,
                        "value": 0
                    },
                    {
                        "number": 64,
                        "time": 552.0626217166678,
                        "value": 1
                    },
                    {
                        "number": 64,
                        "time": 552.5043387500011,
                        "value": 0
                    },
                    {
                        "number": 64,
                        "time": 552.6136373333345,
                        "value": 1
                    },
                    {
                        "number": 64,
                        "time": 553.0448014000011,
                        "value": 0
                    },
                    {
                        "number": 64,
                        "time": 553.1224410833345,
                        "value": 1
                    },
                    {
                        "number": 64,
                        "time": 553.5852640500011,
                        "value": 0
                    },
                    {
                        "number": 64,
                        "time": 553.6907937166678,
                        "value": 1
                    },
                    {
                        "number": 64,
                        "time": 554.1340183166678,
                        "value": 0
                    },
                    {
                        "number": 64,
                        "time": 554.2161807000011,
                        "value": 1
                    },
                    {
                        "number": 64,
                        "time": 554.6759885333345,
                        "value": 0
                    },
                    {
                        "number": 64,
                        "time": 554.7589047000012,
                        "value": 1
                    },
                    {
                        "number": 64,
                        "time": 555.2179587500011,
                        "value": 0
                    },
                    {
                        "number": 64,
                        "time": 555.3016287000011,
                        "value": 1
                    },
                    {
                        "number": 64,
                        "time": 555.760682750001,
                        "value": 0
                    },
                    {
                        "number": 64,
                        "time": 555.8270156833344,
                        "value": 1
                    },
                    {
                        "number": 64,
                        "time": 556.3041605333343,
                        "value": 0
                    },
                    {
                        "number": 64,
                        "time": 556.387076700001,
                        "value": 1
                    },
                    {
                        "number": 64,
                        "time": 556.8468845333343,
                        "value": 0
                    },
                    {
                        "number": 64,
                        "time": 556.9124636833343,
                        "value": 1
                    },
                    {
                        "number": 64,
                        "time": 557.3918698833343,
                        "value": 0
                    },
                    {
                        "number": 64,
                        "time": 557.4642330833343,
                        "value": 1
                    },
                    {
                        "number": 64,
                        "time": 557.9285636166676,
                        "value": 0
                    },
                    {
                        "number": 64,
                        "time": 557.9843435833343,
                        "value": 1
                    },
                    {
                        "number": 64,
                        "time": 572.799955000001,
                        "value": 0
                    }
                ]
            },
            "id": 3,
            "name": "Pedal"
        },
        {
            "startTime": 0,
            "duration": 0,
            "length": 0,
            "notes": [],
            "controlChanges": {},
            "id": 4,
            "name": "Beethoven: Sonate Op. 57 (Appassionata) 1. Satz"
        },
        {
            "startTime": 0,
            "duration": 0,
            "length": 0,
            "notes": [],
            "controlChanges": {},
            "id": 5,
            "name": "Copyright  2001 by Bernd Krger"
        },
        {
            "startTime": 0,
            "duration": 0,
            "length": 0,
            "notes": [],
            "controlChanges": {},
            "id": 6,
            "name": "http://www.piano-midi.de"
        },
        {
            "startTime": 0,
            "duration": 0,
            "length": 0,
            "notes": [],
            "controlChanges": {},
            "id": 7,
            "name": "Edition: 2012-07-21"
        },
        {
            "startTime": 0,
            "duration": 0,
            "length": 0,
            "notes": [],
            "controlChanges": {},
            "id": 8,
            "name": "Spur 8"
        },
        {
            "startTime": 0,
            "duration": 0,
            "length": 0,
            "notes": [],
            "controlChanges": {},
            "id": 9,
            "name": "Spur 9"
        },
        {
            "startTime": 0,
            "duration": 0,
            "length": 0,
            "notes": [],
            "controlChanges": {},
            "id": 10,
            "name": "Spur 10"
        }
    ]
}