{
    "header": {
        "PPQ": 480,
        "timeSignature": [
            6,
            8
        ],
        "bpm": 45.99999386666749,
        "name": "Hammerklaviersonate: 3. Satz"
    },
    "startTime": 0,
    "duration": 729.1305320000037,
    "tracks": [
        {
            "startTime": 0,
            "duration": 0,
            "length": 0,
            "notes": [],
            "controlChanges": {},
            "id": 0,
            "name": "Hammerklaviersonate: 3. Satz"
        },
        {
            "startTime": 0,
            "duration": 729.1305320000037,
            "length": 2467,
            "notes": [
                {
                    "name": "A3",
                    "midi": 57,
                    "time": 0,
                    "velocity": 0.33070866141732286,
                    "duration": 1.9565219999999997
                },
                {
                    "name": "C#4",
                    "midi": 61,
                    "time": 1.9565219999999997,
                    "velocity": 0.31496062992125984,
                    "duration": 1.9565219999999997
                },
                {
                    "name": "F#4",
                    "midi": 66,
                    "time": 3.9130439999999993,
                    "velocity": 0.31496062992125984,
                    "duration": 1.9565219999999997
                },
                {
                    "name": "C#4",
                    "midi": 61,
                    "time": 3.9130439999999993,
                    "velocity": 0.31496062992125984,
                    "duration": 1.9565219999999997
                },
                {
                    "name": "C#5",
                    "midi": 73,
                    "time": 3.9130439999999993,
                    "velocity": 0.3779527559055118,
                    "duration": 1.304348
                },
                {
                    "name": "A4",
                    "midi": 69,
                    "time": 3.9130439999999993,
                    "velocity": 0.31496062992125984,
                    "duration": 1.304348
                },
                {
                    "name": "A4",
                    "midi": 69,
                    "time": 5.217391999999999,
                    "velocity": 0.33070866141732286,
                    "duration": 0.6521739999999996
                },
                {
                    "name": "C#4",
                    "midi": 61,
                    "time": 5.869565999999999,
                    "velocity": 0.30708661417322836,
                    "duration": 0.6521739999999996
                },
                {
                    "name": "A4",
                    "midi": 69,
                    "time": 5.869565999999999,
                    "velocity": 0.3700787401574803,
                    "duration": 0.6521739999999996
                },
                {
                    "name": "C#4",
                    "midi": 61,
                    "time": 6.5217399999999985,
                    "velocity": 0.2677165354330709,
                    "duration": 0.6521739999999996
                },
                {
                    "name": "F#4",
                    "midi": 66,
                    "time": 6.5217399999999985,
                    "velocity": 0.3228346456692913,
                    "duration": 0.6521739999999996
                },
                {
                    "name": "B3",
                    "midi": 59,
                    "time": 7.173913999999998,
                    "velocity": 0.2677165354330709,
                    "duration": 0.6521739999999996
                },
                {
                    "name": "F4",
                    "midi": 65,
                    "time": 7.173913999999998,
                    "velocity": 0.2677165354330709,
                    "duration": 0.6521739999999996
                },
                {
                    "name": "G#4",
                    "midi": 68,
                    "time": 7.173913999999998,
                    "velocity": 0.3228346456692913,
                    "duration": 0.6521739999999996
                },
                {
                    "name": "C#4",
                    "midi": 61,
                    "time": 7.173913999999998,
                    "velocity": 0.2677165354330709,
                    "duration": 0.6521739999999996
                },
                {
                    "name": "A3",
                    "midi": 57,
                    "time": 7.826087999999998,
                    "velocity": 0.33070866141732286,
                    "duration": 1.9565220000000005
                },
                {
                    "name": "F#4",
                    "midi": 66,
                    "time": 7.826087999999998,
                    "velocity": 0.33070866141732286,
                    "duration": 1.9565220000000005
                },
                {
                    "name": "A4",
                    "midi": 69,
                    "time": 7.826087999999998,
                    "velocity": 0.3937007874015748,
                    "duration": 1.9565220000000005
                },
                {
                    "name": "C#4",
                    "midi": 61,
                    "time": 7.826087999999998,
                    "velocity": 0.33070866141732286,
                    "duration": 1.9565220000000005
                },
                {
                    "name": "B3",
                    "midi": 59,
                    "time": 9.782609999999998,
                    "velocity": 0.3700787401574803,
                    "duration": 1.3043479999999992
                },
                {
                    "name": "B4",
                    "midi": 71,
                    "time": 9.782609999999998,
                    "velocity": 0.4409448818897638,
                    "duration": 1.3043479999999992
                },
                {
                    "name": "F#4",
                    "midi": 66,
                    "time": 9.782609999999998,
                    "velocity": 0.3700787401574803,
                    "duration": 1.3043479999999992
                },
                {
                    "name": "F#4",
                    "midi": 66,
                    "time": 11.086957999999997,
                    "velocity": 0.36220472440944884,
                    "duration": 0.646739216666667
                },
                {
                    "name": "D4",
                    "midi": 62,
                    "time": 11.086957999999997,
                    "velocity": 0.36220472440944884,
                    "duration": 0.646739216666667
                },
                {
                    "name": "D5",
                    "midi": 74,
                    "time": 11.086957999999997,
                    "velocity": 0.4330708661417323,
                    "duration": 0.646739216666667
                },
                {
                    "name": "D4",
                    "midi": 62,
                    "time": 11.739131999999998,
                    "velocity": 0.4094488188976378,
                    "duration": 1.3043479999999992
                },
                {
                    "name": "D5",
                    "midi": 74,
                    "time": 11.739131999999998,
                    "velocity": 0.4881889763779528,
                    "duration": 1.3043479999999992
                },
                {
                    "name": "F#4",
                    "midi": 66,
                    "time": 11.739131999999998,
                    "velocity": 0.4094488188976378,
                    "duration": 1.3043479999999992
                },
                {
                    "name": "F#4",
                    "midi": 66,
                    "time": 13.043479999999997,
                    "velocity": 0.3779527559055118,
                    "duration": 0.646739216666667
                },
                {
                    "name": "C#5",
                    "midi": 73,
                    "time": 13.043479999999997,
                    "velocity": 0.44881889763779526,
                    "duration": 0.646739216666667
                },
                {
                    "name": "C#4",
                    "midi": 61,
                    "time": 13.043479999999997,
                    "velocity": 0.3779527559055118,
                    "duration": 0.646739216666667
                },
                {
                    "name": "F#4",
                    "midi": 66,
                    "time": 13.695653999999998,
                    "velocity": 0.41732283464566927,
                    "duration": 0.6521740000000005
                },
                {
                    "name": "C#5",
                    "midi": 73,
                    "time": 13.695653999999998,
                    "velocity": 0.5039370078740157,
                    "duration": 0.6521740000000005
                },
                {
                    "name": "C#4",
                    "midi": 61,
                    "time": 13.695653999999998,
                    "velocity": 0.41732283464566927,
                    "duration": 0.6521740000000005
                },
                {
                    "name": "F4",
                    "midi": 65,
                    "time": 14.347827999999998,
                    "velocity": 0.3858267716535433,
                    "duration": 0.6521740000000005
                },
                {
                    "name": "B4",
                    "midi": 71,
                    "time": 14.347827999999998,
                    "velocity": 0.3858267716535433,
                    "duration": 0.6521740000000005
                },
                {
                    "name": "C#5",
                    "midi": 73,
                    "time": 14.347827999999998,
                    "velocity": 0.3858267716535433,
                    "duration": 0.6521740000000005
                },
                {
                    "name": "F5",
                    "midi": 77,
                    "time": 14.347827999999998,
                    "velocity": 0.47244094488188976,
                    "duration": 0.6521740000000005
                },
                {
                    "name": "C#5",
                    "midi": 73,
                    "time": 15.000001999999999,
                    "velocity": 0.44881889763779526,
                    "duration": 0.6521740000000005
                },
                {
                    "name": "A4",
                    "midi": 69,
                    "time": 15.000001999999999,
                    "velocity": 0.4094488188976378,
                    "duration": 0.6521740000000005
                },
                {
                    "name": "F#4",
                    "midi": 66,
                    "time": 15.000001999999999,
                    "velocity": 0.4094488188976378,
                    "duration": 0.6521740000000005
                },
                {
                    "name": "F#5",
                    "midi": 78,
                    "time": 15.000001999999999,
                    "velocity": 0.5354330708661418,
                    "duration": 0.6521740000000005
                },
                {
                    "name": "G#5",
                    "midi": 80,
                    "time": 15.652175999999999,
                    "velocity": 0.5669291338582677,
                    "duration": 1.9565219999999979
                },
                {
                    "name": "C#5",
                    "midi": 73,
                    "time": 15.652175999999999,
                    "velocity": 0.48031496062992124,
                    "duration": 1.9565219999999979
                },
                {
                    "name": "G#4",
                    "midi": 68,
                    "time": 15.652175999999999,
                    "velocity": 0.48031496062992124,
                    "duration": 1.9565219999999979
                },
                {
                    "name": "D5",
                    "midi": 74,
                    "time": 17.608697999999997,
                    "velocity": 0.4015748031496063,
                    "duration": 1.9565219999999997
                },
                {
                    "name": "B4",
                    "midi": 71,
                    "time": 17.608697999999997,
                    "velocity": 0.33858267716535434,
                    "duration": 1.9565219999999997
                },
                {
                    "name": "G#4",
                    "midi": 68,
                    "time": 17.608697999999997,
                    "velocity": 0.33858267716535434,
                    "duration": 1.9565219999999997
                },
                {
                    "name": "G#4",
                    "midi": 68,
                    "time": 19.565219999999997,
                    "velocity": 0.33070866141732286,
                    "duration": 1.9565219999999997
                },
                {
                    "name": "B4",
                    "midi": 71,
                    "time": 19.565219999999997,
                    "velocity": 0.33070866141732286,
                    "duration": 1.9565219999999997
                },
                {
                    "name": "D5",
                    "midi": 74,
                    "time": 19.565219999999997,
                    "velocity": 0.3937007874015748,
                    "duration": 1.9565219999999997
                },
                {
                    "name": "D4",
                    "midi": 62,
                    "time": 20.869567999999997,
                    "velocity": 0.33070866141732286,
                    "duration": 0.6521739999999987
                },
                {
                    "name": "C#4",
                    "midi": 61,
                    "time": 21.521741999999996,
                    "velocity": 0.28346456692913385,
                    "duration": 1.304348000000001
                },
                {
                    "name": "A4",
                    "midi": 69,
                    "time": 21.521741999999996,
                    "velocity": 0.28346456692913385,
                    "duration": 1.304348000000001
                },
                {
                    "name": "C#5",
                    "midi": 73,
                    "time": 21.521741999999996,
                    "velocity": 0.33858267716535434,
                    "duration": 1.304348000000001
                },
                {
                    "name": "B3",
                    "midi": 59,
                    "time": 22.826089999999997,
                    "velocity": 0.2755905511811024,
                    "duration": 0.646739216666667
                },
                {
                    "name": "D4",
                    "midi": 62,
                    "time": 22.826089999999997,
                    "velocity": 0.2755905511811024,
                    "duration": 0.646739216666667
                },
                {
                    "name": "F4",
                    "midi": 65,
                    "time": 22.826089999999997,
                    "velocity": 0.2755905511811024,
                    "duration": 0.646739216666667
                },
                {
                    "name": "B4",
                    "midi": 71,
                    "time": 22.826089999999997,
                    "velocity": 0.33070866141732286,
                    "duration": 0.646739216666667
                },
                {
                    "name": "B3",
                    "midi": 59,
                    "time": 23.478263999999996,
                    "velocity": 0.31496062992125984,
                    "duration": 1.9375002583333334
                },
                {
                    "name": "D4",
                    "midi": 62,
                    "time": 23.478263999999996,
                    "velocity": 0.31496062992125984,
                    "duration": 1.9375002583333334
                },
                {
                    "name": "F4",
                    "midi": 65,
                    "time": 23.478263999999996,
                    "velocity": 0.31496062992125984,
                    "duration": 1.9375002583333334
                },
                {
                    "name": "B4",
                    "midi": 71,
                    "time": 23.478263999999996,
                    "velocity": 0.3779527559055118,
                    "duration": 1.9375002583333334
                },
                {
                    "name": "B3",
                    "midi": 59,
                    "time": 25.434785999999995,
                    "velocity": 0.30708661417322836,
                    "duration": 0.6521739999999987
                },
                {
                    "name": "F4",
                    "midi": 65,
                    "time": 25.434785999999995,
                    "velocity": 0.30708661417322836,
                    "duration": 0.6521739999999987
                },
                {
                    "name": "D4",
                    "midi": 62,
                    "time": 25.434785999999995,
                    "velocity": 0.30708661417322836,
                    "duration": 0.6521739999999987
                },
                {
                    "name": "B4",
                    "midi": 71,
                    "time": 25.434785999999995,
                    "velocity": 0.3700787401574803,
                    "duration": 0.6521739999999987
                },
                {
                    "name": "F#4",
                    "midi": 66,
                    "time": 26.086959999999994,
                    "velocity": 0.2677165354330709,
                    "duration": 0.6521739999999987
                },
                {
                    "name": "A3",
                    "midi": 57,
                    "time": 26.086959999999994,
                    "velocity": 0.2677165354330709,
                    "duration": 0.6521739999999987
                },
                {
                    "name": "C#4",
                    "midi": 61,
                    "time": 26.086959999999994,
                    "velocity": 0.2677165354330709,
                    "duration": 0.6521739999999987
                },
                {
                    "name": "A4",
                    "midi": 69,
                    "time": 26.086959999999994,
                    "velocity": 0.3228346456692913,
                    "duration": 0.6521739999999987
                },
                {
                    "name": "G#3",
                    "midi": 56,
                    "time": 26.739133999999993,
                    "velocity": 0.2677165354330709,
                    "duration": 0.6521739999999987
                },
                {
                    "name": "D4",
                    "midi": 62,
                    "time": 26.739133999999993,
                    "velocity": 0.2677165354330709,
                    "duration": 0.6521739999999987
                },
                {
                    "name": "F#4",
                    "midi": 66,
                    "time": 26.739133999999993,
                    "velocity": 0.2677165354330709,
                    "duration": 0.6521739999999987
                },
                {
                    "name": "G#4",
                    "midi": 68,
                    "time": 26.739133999999993,
                    "velocity": 0.3228346456692913,
                    "duration": 0.6521739999999987
                },
                {
                    "name": "F#4",
                    "midi": 66,
                    "time": 27.39130799999999,
                    "velocity": 0.31496062992125984,
                    "duration": 1.2907610416666664
                },
                {
                    "name": "G#3",
                    "midi": 56,
                    "time": 27.39130799999999,
                    "velocity": 0.31496062992125984,
                    "duration": 1.2907610416666664
                },
                {
                    "name": "D#4",
                    "midi": 63,
                    "time": 27.39130799999999,
                    "velocity": 0.31496062992125984,
                    "duration": 1.2907610416666664
                },
                {
                    "name": "G#4",
                    "midi": 68,
                    "time": 27.39130799999999,
                    "velocity": 0.3779527559055118,
                    "duration": 1.2907610416666664
                },
                {
                    "name": "D#4",
                    "midi": 63,
                    "time": 28.695655999999993,
                    "velocity": 0.28346456692913385,
                    "duration": 0.646739216666667
                },
                {
                    "name": "G#3",
                    "midi": 56,
                    "time": 28.695655999999993,
                    "velocity": 0.28346456692913385,
                    "duration": 0.646739216666667
                },
                {
                    "name": "F#4",
                    "midi": 66,
                    "time": 28.695655999999993,
                    "velocity": 0.28346456692913385,
                    "duration": 0.646739216666667
                },
                {
                    "name": "G#4",
                    "midi": 68,
                    "time": 28.695655999999993,
                    "velocity": 0.33858267716535434,
                    "duration": 0.646739216666667
                },
                {
                    "name": "D#4",
                    "midi": 63,
                    "time": 29.34782999999999,
                    "velocity": 0.3543307086614173,
                    "duration": 0.6521739999999987
                },
                {
                    "name": "F#4",
                    "midi": 66,
                    "time": 29.34782999999999,
                    "velocity": 0.3543307086614173,
                    "duration": 0.6521739999999987
                },
                {
                    "name": "G#3",
                    "midi": 56,
                    "time": 29.34782999999999,
                    "velocity": 0.3543307086614173,
                    "duration": 0.6521739999999987
                },
                {
                    "name": "G#4",
                    "midi": 68,
                    "time": 29.34782999999999,
                    "velocity": 0.41732283464566927,
                    "duration": 0.6521739999999987
                },
                {
                    "name": "F#4",
                    "midi": 66,
                    "time": 30.00000399999999,
                    "velocity": 0.31496062992125984,
                    "duration": 0.6521739999999987
                },
                {
                    "name": "D#4",
                    "midi": 63,
                    "time": 30.00000399999999,
                    "velocity": 0.31496062992125984,
                    "duration": 0.6521739999999987
                },
                {
                    "name": "A3",
                    "midi": 57,
                    "time": 30.00000399999999,
                    "velocity": 0.31496062992125984,
                    "duration": 0.6521739999999987
                },
                {
                    "name": "A4",
                    "midi": 69,
                    "time": 30.00000399999999,
                    "velocity": 0.3858267716535433,
                    "duration": 0.6521739999999987
                },
                {
                    "name": "F#3",
                    "midi": 54,
                    "time": 30.65217799999999,
                    "velocity": 0.33070866141732286,
                    "duration": 0.6521739999999987
                },
                {
                    "name": "A3",
                    "midi": 57,
                    "time": 30.65217799999999,
                    "velocity": 0.33070866141732286,
                    "duration": 0.6521739999999987
                },
                {
                    "name": "D#4",
                    "midi": 63,
                    "time": 30.65217799999999,
                    "velocity": 0.33070866141732286,
                    "duration": 0.6521739999999987
                },
                {
                    "name": "F#4",
                    "midi": 66,
                    "time": 30.65217799999999,
                    "velocity": 0.4094488188976378,
                    "duration": 0.6521739999999987
                },
                {
                    "name": "F#3",
                    "midi": 54,
                    "time": 31.304351999999987,
                    "velocity": 0.3464566929133858,
                    "duration": 1.9565219999999997
                },
                {
                    "name": "A3",
                    "midi": 57,
                    "time": 31.304351999999987,
                    "velocity": 0.3464566929133858,
                    "duration": 1.9565219999999997
                },
                {
                    "name": "D#4",
                    "midi": 63,
                    "time": 31.304351999999987,
                    "velocity": 0.3464566929133858,
                    "duration": 0.6521739999999987
                },
                {
                    "name": "F#4",
                    "midi": 66,
                    "time": 31.304351999999987,
                    "velocity": 0.41732283464566927,
                    "duration": 1.9565219999999997
                },
                {
                    "name": "C4",
                    "midi": 60,
                    "time": 31.956525999999986,
                    "velocity": 0.3543307086614173,
                    "duration": 0.6521739999999987
                },
                {
                    "name": "C#4",
                    "midi": 61,
                    "time": 32.608699999999985,
                    "velocity": 0.36220472440944884,
                    "duration": 0.6521740000000023
                },
                {
                    "name": "G#3",
                    "midi": 56,
                    "time": 33.26087399999999,
                    "velocity": 0.28346456692913385,
                    "duration": 0.6521740000000023
                },
                {
                    "name": "F4",
                    "midi": 65,
                    "time": 33.26087399999999,
                    "velocity": 0.4330708661417323,
                    "duration": 0.6521740000000023
                },
                {
                    "name": "F3",
                    "midi": 53,
                    "time": 33.26087399999999,
                    "velocity": 0.28346456692913385,
                    "duration": 0.6521740000000023
                },
                {
                    "name": "C#4",
                    "midi": 61,
                    "time": 33.26087399999999,
                    "velocity": 0.36220472440944884,
                    "duration": 0.6521740000000023
                },
                {
                    "name": "G#4",
                    "midi": 68,
                    "time": 33.91304799999999,
                    "velocity": 0.44881889763779526,
                    "duration": 0.6521740000000023
                },
                {
                    "name": "B4",
                    "midi": 71,
                    "time": 34.56522199999999,
                    "velocity": 0.4645669291338583,
                    "duration": 0.6521740000000023
                },
                {
                    "name": "D4",
                    "midi": 62,
                    "time": 35.217395999999994,
                    "velocity": 0.3937007874015748,
                    "duration": 1.3043480000000045
                },
                {
                    "name": "F4",
                    "midi": 65,
                    "time": 35.217395999999994,
                    "velocity": 0.3937007874015748,
                    "duration": 0.6521740000000023
                },
                {
                    "name": "B4",
                    "midi": 71,
                    "time": 35.217395999999994,
                    "velocity": 0.47244094488188976,
                    "duration": 1.3043480000000045
                },
                {
                    "name": "G#4",
                    "midi": 68,
                    "time": 35.869569999999996,
                    "velocity": 0.3937007874015748,
                    "duration": 0.6521740000000023
                },
                {
                    "name": "C#4",
                    "midi": 61,
                    "time": 36.521744,
                    "velocity": 0.3543307086614173,
                    "duration": 0.646739216666667
                },
                {
                    "name": "A4",
                    "midi": 69,
                    "time": 36.521744,
                    "velocity": 0.3937007874015748,
                    "duration": 0.646739216666667
                },
                {
                    "name": "F#4",
                    "midi": 66,
                    "time": 36.521744,
                    "velocity": 0.3543307086614173,
                    "duration": 0.646739216666667
                },
                {
                    "name": "A4",
                    "midi": 69,
                    "time": 37.173918,
                    "velocity": 0.4566929133858268,
                    "duration": 0.6521740000000023
                },
                {
                    "name": "C#4",
                    "midi": 61,
                    "time": 37.173918,
                    "velocity": 0.3779527559055118,
                    "duration": 0.6521740000000023
                },
                {
                    "name": "F#4",
                    "midi": 66,
                    "time": 37.173918,
                    "velocity": 0.3779527559055118,
                    "duration": 0.6521740000000023
                },
                {
                    "name": "F4",
                    "midi": 65,
                    "time": 37.826092,
                    "velocity": 0.33070866141732286,
                    "duration": 0.6521740000000023
                },
                {
                    "name": "G#4",
                    "midi": 68,
                    "time": 37.826092,
                    "velocity": 0.4015748031496063,
                    "duration": 0.6521740000000023
                },
                {
                    "name": "B3",
                    "midi": 59,
                    "time": 37.826092,
                    "velocity": 0.33070866141732286,
                    "duration": 0.6521740000000023
                },
                {
                    "name": "D4",
                    "midi": 62,
                    "time": 37.826092,
                    "velocity": 0.33070866141732286,
                    "duration": 0.6521740000000023
                },
                {
                    "name": "F#4",
                    "midi": 66,
                    "time": 38.478266000000005,
                    "velocity": 0.4015748031496063,
                    "duration": 0.6521740000000023
                },
                {
                    "name": "D#4",
                    "midi": 63,
                    "time": 38.478266000000005,
                    "velocity": 0.33070866141732286,
                    "duration": 0.6521740000000023
                },
                {
                    "name": "A3",
                    "midi": 57,
                    "time": 38.478266000000005,
                    "velocity": 0.33070866141732286,
                    "duration": 0.3260870000000011
                },
                {
                    "name": "C4",
                    "midi": 60,
                    "time": 38.804353000000006,
                    "velocity": 0.33070866141732286,
                    "duration": 0.3260870000000011
                },
                {
                    "name": "D#4",
                    "midi": 63,
                    "time": 39.13044000000001,
                    "velocity": 0.3937007874015748,
                    "duration": 1.3043479999999974
                },
                {
                    "name": "F#4",
                    "midi": 66,
                    "time": 39.13044000000001,
                    "velocity": 0.47244094488188976,
                    "duration": 1.3043479999999974
                },
                {
                    "name": "A3",
                    "midi": 57,
                    "time": 39.13044000000001,
                    "velocity": 0.3937007874015748,
                    "duration": 1.3043479999999974
                },
                {
                    "name": "C4",
                    "midi": 60,
                    "time": 39.13044000000001,
                    "velocity": 0.3937007874015748,
                    "duration": 1.3043479999999974
                },
                {
                    "name": "F4",
                    "midi": 65,
                    "time": 40.434788000000005,
                    "velocity": 0.3937007874015748,
                    "duration": 0.6521740000000023
                },
                {
                    "name": "C#4",
                    "midi": 61,
                    "time": 40.434788000000005,
                    "velocity": 0.3543307086614173,
                    "duration": 0.6521740000000023
                },
                {
                    "name": "G#3",
                    "midi": 56,
                    "time": 40.434788000000005,
                    "velocity": 0.3543307086614173,
                    "duration": 0.6521740000000023
                },
                {
                    "name": "F4",
                    "midi": 65,
                    "time": 41.08696200000001,
                    "velocity": 0.5196850393700787,
                    "duration": 0.6521740000000023
                },
                {
                    "name": "G#4",
                    "midi": 68,
                    "time": 41.73913600000001,
                    "velocity": 0.47244094488188976,
                    "duration": 0.6521740000000023
                },
                {
                    "name": "F4",
                    "midi": 65,
                    "time": 42.39131000000001,
                    "velocity": 0.33070866141732286,
                    "duration": 1.3043479999999974
                },
                {
                    "name": "B4",
                    "midi": 71,
                    "time": 42.39131000000001,
                    "velocity": 0.49606299212598426,
                    "duration": 0.3260870000000011
                },
                {
                    "name": "G#4",
                    "midi": 68,
                    "time": 42.39131000000001,
                    "velocity": 0.33070866141732286,
                    "duration": 1.3043479999999974
                },
                {
                    "name": "D5",
                    "midi": 74,
                    "time": 42.71739700000001,
                    "velocity": 0.49606299212598426,
                    "duration": 0.32336960833332995
                },
                {
                    "name": "B4",
                    "midi": 71,
                    "time": 43.04348400000001,
                    "velocity": 0.3937007874015748,
                    "duration": 1.3043480000000045
                },
                {
                    "name": "D5",
                    "midi": 74,
                    "time": 43.04348400000001,
                    "velocity": 0.5669291338582677,
                    "duration": 1.3043480000000045
                },
                {
                    "name": "F4",
                    "midi": 65,
                    "time": 43.69565800000001,
                    "velocity": 0.28346456692913385,
                    "duration": 0.6521740000000023
                },
                {
                    "name": "G#4",
                    "midi": 68,
                    "time": 43.69565800000001,
                    "velocity": 0.28346456692913385,
                    "duration": 0.6521740000000023
                },
                {
                    "name": "F#4",
                    "midi": 66,
                    "time": 44.34783200000001,
                    "velocity": 0.3779527559055118,
                    "duration": 0.646739216666667
                },
                {
                    "name": "C#5",
                    "midi": 73,
                    "time": 44.34783200000001,
                    "velocity": 0.4251968503937008,
                    "duration": 0.646739216666667
                },
                {
                    "name": "A4",
                    "midi": 69,
                    "time": 44.34783200000001,
                    "velocity": 0.3779527559055118,
                    "duration": 0.646739216666667
                },
                {
                    "name": "C#5",
                    "midi": 73,
                    "time": 45.00000600000001,
                    "velocity": 0.4330708661417323,
                    "duration": 0.6521740000000023
                },
                {
                    "name": "A4",
                    "midi": 69,
                    "time": 45.00000600000001,
                    "velocity": 0.36220472440944884,
                    "duration": 0.6521740000000023
                },
                {
                    "name": "F#4",
                    "midi": 66,
                    "time": 45.326093000000014,
                    "velocity": 0.36220472440944884,
                    "duration": 0.3260870000000011
                },
                {
                    "name": "D4",
                    "midi": 62,
                    "time": 45.652180000000016,
                    "velocity": 0.30708661417322836,
                    "duration": 0.6521740000000023
                },
                {
                    "name": "G#4",
                    "midi": 68,
                    "time": 45.652180000000016,
                    "velocity": 0.30708661417322836,
                    "duration": 0.6521740000000023
                },
                {
                    "name": "B4",
                    "midi": 71,
                    "time": 45.652180000000016,
                    "velocity": 0.3700787401574803,
                    "duration": 0.6521740000000023
                },
                {
                    "name": "F4",
                    "midi": 65,
                    "time": 45.652180000000016,
                    "velocity": 0.30708661417322836,
                    "duration": 0.6521740000000023
                },
                {
                    "name": "C4",
                    "midi": 60,
                    "time": 46.30435400000002,
                    "velocity": 0.30708661417322836,
                    "duration": 0.646739216666667
                },
                {
                    "name": "F#4",
                    "midi": 66,
                    "time": 46.30435400000002,
                    "velocity": 0.30708661417322836,
                    "duration": 0.646739216666667
                },
                {
                    "name": "A4",
                    "midi": 69,
                    "time": 46.30435400000002,
                    "velocity": 0.3700787401574803,
                    "duration": 0.646739216666667
                },
                {
                    "name": "D#4",
                    "midi": 63,
                    "time": 46.30435400000002,
                    "velocity": 0.30708661417322836,
                    "duration": 0.646739216666667
                },
                {
                    "name": "F#4",
                    "midi": 66,
                    "time": 46.95652800000002,
                    "velocity": 0.3543307086614173,
                    "duration": 1.3043480000000045
                },
                {
                    "name": "A4",
                    "midi": 69,
                    "time": 46.95652800000002,
                    "velocity": 0.4251968503937008,
                    "duration": 1.3043480000000045
                },
                {
                    "name": "C4",
                    "midi": 60,
                    "time": 47.60870200000002,
                    "velocity": 0.3464566929133858,
                    "duration": 0.6521740000000023
                },
                {
                    "name": "D#4",
                    "midi": 63,
                    "time": 47.60870200000002,
                    "velocity": 0.3464566929133858,
                    "duration": 0.6521740000000023
                },
                {
                    "name": "C#4",
                    "midi": 61,
                    "time": 48.260876000000025,
                    "velocity": 0.2992125984251969,
                    "duration": 0.646739216666667
                },
                {
                    "name": "F4",
                    "midi": 65,
                    "time": 48.260876000000025,
                    "velocity": 0.2992125984251969,
                    "duration": 0.646739216666667
                },
                {
                    "name": "G#4",
                    "midi": 68,
                    "time": 48.260876000000025,
                    "velocity": 0.3464566929133858,
                    "duration": 0.646739216666667
                },
                {
                    "name": "G#4",
                    "midi": 68,
                    "time": 48.91305000000003,
                    "velocity": 0.33858267716535434,
                    "duration": 1.3043479999999974
                },
                {
                    "name": "F4",
                    "midi": 65,
                    "time": 48.91305000000003,
                    "velocity": 0.2755905511811024,
                    "duration": 1.3043479999999974
                },
                {
                    "name": "C#4",
                    "midi": 61,
                    "time": 48.91305000000003,
                    "velocity": 0.2755905511811024,
                    "duration": 1.3043479999999974
                },
                {
                    "name": "E4",
                    "midi": 64,
                    "time": 50.217398000000024,
                    "velocity": 0.2677165354330709,
                    "duration": 0.4891305000000017
                },
                {
                    "name": "G4",
                    "midi": 67,
                    "time": 50.217398000000024,
                    "velocity": 0.30708661417322836,
                    "duration": 0.4891305000000017
                },
                {
                    "name": "C#4",
                    "midi": 61,
                    "time": 50.217398000000024,
                    "velocity": 0.2677165354330709,
                    "duration": 0.4891305000000017
                },
                {
                    "name": "G4",
                    "midi": 67,
                    "time": 50.706528500000026,
                    "velocity": 0.41732283464566927,
                    "duration": 0.16304350000000056
                },
                {
                    "name": "B5",
                    "midi": 83,
                    "time": 50.869572000000026,
                    "velocity": 0.5118110236220472,
                    "duration": 1.3043479999999974
                },
                {
                    "name": "A5",
                    "midi": 81,
                    "time": 52.173920000000024,
                    "velocity": 0.4881889763779528,
                    "duration": 0.6521740000000023
                },
                {
                    "name": "G4",
                    "midi": 67,
                    "time": 52.826094000000026,
                    "velocity": 0.4330708661417323,
                    "duration": 1.9565219999999997
                },
                {
                    "name": "G5",
                    "midi": 79,
                    "time": 52.826094000000026,
                    "velocity": 0.5118110236220472,
                    "duration": 1.3043479999999974
                },
                {
                    "name": "F#5",
                    "midi": 78,
                    "time": 54.13044200000002,
                    "velocity": 0.5039370078740157,
                    "duration": 0.6521740000000023
                },
                {
                    "name": "G4",
                    "midi": 67,
                    "time": 54.782616000000026,
                    "velocity": 0.4330708661417323,
                    "duration": 1.9565219999999997
                },
                {
                    "name": "E5",
                    "midi": 76,
                    "time": 54.782616000000026,
                    "velocity": 0.5118110236220472,
                    "duration": 1.3043479999999974
                },
                {
                    "name": "F#5",
                    "midi": 78,
                    "time": 56.08696400000002,
                    "velocity": 0.49606299212598426,
                    "duration": 0.6521740000000023
                },
                {
                    "name": "G4",
                    "midi": 67,
                    "time": 56.739138000000025,
                    "velocity": 0.4330708661417323,
                    "duration": 1.3043479999999974
                },
                {
                    "name": "G5",
                    "midi": 79,
                    "time": 56.739138000000025,
                    "velocity": 0.5118110236220472,
                    "duration": 1.3043479999999974
                },
                {
                    "name": "F#4",
                    "midi": 66,
                    "time": 58.04348600000002,
                    "velocity": 0.5039370078740157,
                    "duration": 0.646739216666667
                },
                {
                    "name": "F#4",
                    "midi": 66,
                    "time": 58.695660000000025,
                    "velocity": 0.47244094488188976,
                    "duration": 0.6521740000000023
                },
                {
                    "name": "F#4",
                    "midi": 66,
                    "time": 59.34783400000003,
                    "velocity": 0.3543307086614173,
                    "duration": 0.6521740000000023
                },
                {
                    "name": "A4",
                    "midi": 69,
                    "time": 59.34783400000003,
                    "velocity": 0.41732283464566927,
                    "duration": 0.6521740000000023
                },
                {
                    "name": "F#4",
                    "midi": 66,
                    "time": 60.00000800000003,
                    "velocity": 0.33858267716535434,
                    "duration": 0.6521740000000023
                },
                {
                    "name": "A4",
                    "midi": 69,
                    "time": 60.00000800000003,
                    "velocity": 0.33858267716535434,
                    "duration": 0.6521740000000023
                },
                {
                    "name": "C#5",
                    "midi": 73,
                    "time": 60.00000800000003,
                    "velocity": 0.4015748031496063,
                    "duration": 0.6521740000000023
                },
                {
                    "name": "C#5",
                    "midi": 73,
                    "time": 60.65218200000003,
                    "velocity": 0.4251968503937008,
                    "duration": 1.29076104166667
                },
                {
                    "name": "F4",
                    "midi": 65,
                    "time": 60.65218200000003,
                    "velocity": 0.3543307086614173,
                    "duration": 1.29076104166667
                },
                {
                    "name": "G#4",
                    "midi": 68,
                    "time": 60.65218200000003,
                    "velocity": 0.3543307086614173,
                    "duration": 1.29076104166667
                },
                {
                    "name": "C#5",
                    "midi": 73,
                    "time": 61.956530000000036,
                    "velocity": 0.33858267716535434,
                    "duration": 0.646739216666667
                },
                {
                    "name": "G#4",
                    "midi": 68,
                    "time": 61.956530000000036,
                    "velocity": 0.28346456692913385,
                    "duration": 0.646739216666667
                },
                {
                    "name": "F4",
                    "midi": 65,
                    "time": 61.956530000000036,
                    "velocity": 0.28346456692913385,
                    "duration": 0.646739216666667
                },
                {
                    "name": "G#4",
                    "midi": 68,
                    "time": 62.60870400000004,
                    "velocity": 0.31496062992125984,
                    "duration": 1.3043479999999974
                },
                {
                    "name": "F4",
                    "midi": 65,
                    "time": 62.60870400000004,
                    "velocity": 0.31496062992125984,
                    "duration": 1.3043479999999974
                },
                {
                    "name": "C#5",
                    "midi": 73,
                    "time": 62.60870400000004,
                    "velocity": 0.3779527559055118,
                    "duration": 1.3043479999999974
                },
                {
                    "name": "F#4",
                    "midi": 66,
                    "time": 63.913052000000036,
                    "velocity": 0.28346456692913385,
                    "duration": 0.6467392166666599
                },
                {
                    "name": "A4",
                    "midi": 69,
                    "time": 63.913052000000036,
                    "velocity": 0.33858267716535434,
                    "duration": 0.6467392166666599
                },
                {
                    "name": "F#4",
                    "midi": 66,
                    "time": 64.56522600000002,
                    "velocity": 0.29133858267716534,
                    "duration": 0.6467392166666599
                },
                {
                    "name": "A4",
                    "midi": 69,
                    "time": 64.56522600000002,
                    "velocity": 0.3700787401574803,
                    "duration": 0.6467392166666599
                },
                {
                    "name": "C#4",
                    "midi": 61,
                    "time": 65.21740000000001,
                    "velocity": 0.29133858267716534,
                    "duration": 0.6521740000000023
                },
                {
                    "name": "F#4",
                    "midi": 66,
                    "time": 65.21740000000001,
                    "velocity": 0.3543307086614173,
                    "duration": 0.6521740000000023
                },
                {
                    "name": "G#4",
                    "midi": 68,
                    "time": 65.86957400000001,
                    "velocity": 0.3464566929133858,
                    "duration": 0.3260870000000011
                },
                {
                    "name": "F4",
                    "midi": 65,
                    "time": 65.86957400000001,
                    "velocity": 0.3464566929133858,
                    "duration": 0.3260870000000011
                },
                {
                    "name": "C#4",
                    "midi": 61,
                    "time": 65.86957400000001,
                    "velocity": 0.3464566929133858,
                    "duration": 0.6521740000000023
                },
                {
                    "name": "F#4",
                    "midi": 66,
                    "time": 66.19566100000002,
                    "velocity": 0.3700787401574803,
                    "duration": 0.3260870000000011
                },
                {
                    "name": "A4",
                    "midi": 69,
                    "time": 66.19566100000002,
                    "velocity": 0.3700787401574803,
                    "duration": 0.3260870000000011
                },
                {
                    "name": "G#4",
                    "midi": 68,
                    "time": 66.52174800000002,
                    "velocity": 0.4015748031496063,
                    "duration": 1.3043480000000045
                },
                {
                    "name": "B4",
                    "midi": 71,
                    "time": 66.52174800000002,
                    "velocity": 0.4015748031496063,
                    "duration": 1.3043480000000045
                },
                {
                    "name": "D4",
                    "midi": 62,
                    "time": 67.17392200000002,
                    "velocity": 0.3937007874015748,
                    "duration": 0.6521740000000023
                },
                {
                    "name": "C#4",
                    "midi": 61,
                    "time": 67.82609600000002,
                    "velocity": 0.3700787401574803,
                    "duration": 0.6521740000000023
                },
                {
                    "name": "F#4",
                    "midi": 66,
                    "time": 67.82609600000002,
                    "velocity": 0.3700787401574803,
                    "duration": 0.6521740000000023
                },
                {
                    "name": "A4",
                    "midi": 69,
                    "time": 67.82609600000002,
                    "velocity": 0.4566929133858268,
                    "duration": 0.6521740000000023
                },
                {
                    "name": "B3",
                    "midi": 59,
                    "time": 68.47827000000002,
                    "velocity": 0.4015748031496063,
                    "duration": 1.3043480000000045
                },
                {
                    "name": "A4",
                    "midi": 69,
                    "time": 68.47827000000002,
                    "velocity": 0.47244094488188976,
                    "duration": 0.6521740000000023
                },
                {
                    "name": "F4",
                    "midi": 65,
                    "time": 68.47827000000002,
                    "velocity": 0.4015748031496063,
                    "duration": 1.3043480000000045
                },
                {
                    "name": "D4",
                    "midi": 62,
                    "time": 68.47827000000002,
                    "velocity": 0.4015748031496063,
                    "duration": 1.3043480000000045
                },
                {
                    "name": "G#4",
                    "midi": 68,
                    "time": 69.13044400000003,
                    "velocity": 0.44881889763779526,
                    "duration": 0.6521740000000023
                },
                {
                    "name": "F#4",
                    "midi": 66,
                    "time": 69.78261800000003,
                    "velocity": 0.4251968503937008,
                    "duration": 0.6521740000000023
                },
                {
                    "name": "D#4",
                    "midi": 63,
                    "time": 69.78261800000003,
                    "velocity": 0.3543307086614173,
                    "duration": 0.6521740000000023
                },
                {
                    "name": "A3",
                    "midi": 57,
                    "time": 69.78261800000003,
                    "velocity": 0.3543307086614173,
                    "duration": 0.6521740000000023
                },
                {
                    "name": "A3",
                    "midi": 57,
                    "time": 70.43479200000003,
                    "velocity": 0.3937007874015748,
                    "duration": 0.6521740000000023
                },
                {
                    "name": "C#4",
                    "midi": 61,
                    "time": 70.43479200000003,
                    "velocity": 0.3937007874015748,
                    "duration": 1.9565219999999925
                },
                {
                    "name": "F#4",
                    "midi": 66,
                    "time": 70.43479200000003,
                    "velocity": 0.47244094488188976,
                    "duration": 0.6521740000000023
                },
                {
                    "name": "G3",
                    "midi": 55,
                    "time": 71.08696600000003,
                    "velocity": 0.3937007874015748,
                    "duration": 0.6521740000000023
                },
                {
                    "name": "E4",
                    "midi": 64,
                    "time": 71.08696600000003,
                    "velocity": 0.4409448818897638,
                    "duration": 0.6521740000000023
                },
                {
                    "name": "G#3",
                    "midi": 56,
                    "time": 71.73914000000003,
                    "velocity": 0.3937007874015748,
                    "duration": 0.6467392166666599
                },
                {
                    "name": "F4",
                    "midi": 65,
                    "time": 71.73914000000003,
                    "velocity": 0.4409448818897638,
                    "duration": 0.6467392166666599
                },
                {
                    "name": "G#3",
                    "midi": 56,
                    "time": 72.39131400000002,
                    "velocity": 0.3937007874015748,
                    "duration": 0.9782610000000034
                },
                {
                    "name": "C#4",
                    "midi": 61,
                    "time": 72.39131400000002,
                    "velocity": 0.3937007874015748,
                    "duration": 0.9782610000000034
                },
                {
                    "name": "F4",
                    "midi": 65,
                    "time": 72.39131400000002,
                    "velocity": 0.4645669291338583,
                    "duration": 0.9782610000000034
                },
                {
                    "name": "G#4",
                    "midi": 68,
                    "time": 73.36957500000003,
                    "velocity": 0.47244094488188976,
                    "duration": 0.3260870000000011
                },
                {
                    "name": "B4",
                    "midi": 71,
                    "time": 73.69566200000003,
                    "velocity": 0.49606299212598426,
                    "duration": 0.3260870000000011
                },
                {
                    "name": "D5",
                    "midi": 74,
                    "time": 74.02174900000003,
                    "velocity": 0.5196850393700787,
                    "duration": 0.32336960833333706
                },
                {
                    "name": "G#4",
                    "midi": 68,
                    "time": 74.34783600000003,
                    "velocity": 0.28346456692913385,
                    "duration": 0.6521740000000023
                },
                {
                    "name": "B4",
                    "midi": 71,
                    "time": 74.34783600000003,
                    "velocity": 0.3937007874015748,
                    "duration": 0.6521740000000023
                },
                {
                    "name": "D5",
                    "midi": 74,
                    "time": 74.34783600000003,
                    "velocity": 0.5590551181102362,
                    "duration": 1.3043480000000045
                },
                {
                    "name": "F4",
                    "midi": 65,
                    "time": 74.34783600000003,
                    "velocity": 0.28346456692913385,
                    "duration": 0.6521740000000023
                },
                {
                    "name": "D4",
                    "midi": 62,
                    "time": 74.34783600000003,
                    "velocity": 0.28346456692913385,
                    "duration": 0.6521740000000023
                },
                {
                    "name": "F4",
                    "midi": 65,
                    "time": 75.00001000000003,
                    "velocity": 0.28346456692913385,
                    "duration": 0.6521740000000023
                },
                {
                    "name": "G#4",
                    "midi": 68,
                    "time": 75.00001000000003,
                    "velocity": 0.28346456692913385,
                    "duration": 0.6521740000000023
                },
                {
                    "name": "A4",
                    "midi": 69,
                    "time": 75.65218400000003,
                    "velocity": 0.3779527559055118,
                    "duration": 0.6521740000000023
                },
                {
                    "name": "C#5",
                    "midi": 73,
                    "time": 75.65218400000003,
                    "velocity": 0.4251968503937008,
                    "duration": 0.6521740000000023
                },
                {
                    "name": "F4",
                    "midi": 65,
                    "time": 76.30435800000004,
                    "velocity": 0.30708661417322836,
                    "duration": 1.3043480000000045
                },
                {
                    "name": "D4",
                    "midi": 62,
                    "time": 76.30435800000004,
                    "velocity": 0.30708661417322836,
                    "duration": 1.3043480000000045
                },
                {
                    "name": "C#5",
                    "midi": 73,
                    "time": 76.30435800000004,
                    "velocity": 0.4330708661417323,
                    "duration": 0.6521740000000023
                },
                {
                    "name": "G#4",
                    "midi": 68,
                    "time": 76.30435800000004,
                    "velocity": 0.30708661417322836,
                    "duration": 1.3043480000000045
                },
                {
                    "name": "B4",
                    "midi": 71,
                    "time": 76.95653200000004,
                    "velocity": 0.3700787401574803,
                    "duration": 0.6521740000000023
                },
                {
                    "name": "D#4",
                    "midi": 63,
                    "time": 77.60870600000004,
                    "velocity": 0.30708661417322836,
                    "duration": 0.6521740000000023
                },
                {
                    "name": "F#4",
                    "midi": 66,
                    "time": 77.60870600000004,
                    "velocity": 0.30708661417322836,
                    "duration": 0.6521740000000023
                },
                {
                    "name": "A4",
                    "midi": 69,
                    "time": 77.60870600000004,
                    "velocity": 0.3700787401574803,
                    "duration": 0.6521740000000023
                },
                {
                    "name": "F#4",
                    "midi": 66,
                    "time": 78.26088000000004,
                    "velocity": 0.3543307086614173,
                    "duration": 1.3043480000000045
                },
                {
                    "name": "D#4",
                    "midi": 63,
                    "time": 78.26088000000004,
                    "velocity": 0.3464566929133858,
                    "duration": 0.6521740000000023
                },
                {
                    "name": "C4",
                    "midi": 60,
                    "time": 78.26088000000004,
                    "velocity": 0.3464566929133858,
                    "duration": 0.6521740000000023
                },
                {
                    "name": "A4",
                    "midi": 69,
                    "time": 78.26088000000004,
                    "velocity": 0.4251968503937008,
                    "duration": 1.3043480000000045
                },
                {
                    "name": "C4",
                    "midi": 60,
                    "time": 78.91305400000005,
                    "velocity": 0.30708661417322836,
                    "duration": 0.6521740000000023
                },
                {
                    "name": "D#4",
                    "midi": 63,
                    "time": 78.91305400000005,
                    "velocity": 0.30708661417322836,
                    "duration": 0.6521740000000023
                },
                {
                    "name": "C#4",
                    "midi": 61,
                    "time": 79.56522800000005,
                    "velocity": 0.2992125984251969,
                    "duration": 0.6521740000000023
                },
                {
                    "name": "F4",
                    "midi": 65,
                    "time": 79.56522800000005,
                    "velocity": 0.2992125984251969,
                    "duration": 0.6521740000000023
                },
                {
                    "name": "G#4",
                    "midi": 68,
                    "time": 79.56522800000005,
                    "velocity": 0.3464566929133858,
                    "duration": 0.6521740000000023
                },
                {
                    "name": "F4",
                    "midi": 65,
                    "time": 80.21740200000005,
                    "velocity": 0.2755905511811024,
                    "duration": 0.6521740000000023
                },
                {
                    "name": "C#4",
                    "midi": 61,
                    "time": 80.21740200000005,
                    "velocity": 0.2755905511811024,
                    "duration": 0.6521740000000023
                },
                {
                    "name": "G#4",
                    "midi": 68,
                    "time": 80.21740200000005,
                    "velocity": 0.33858267716535434,
                    "duration": 0.6521740000000023
                },
                {
                    "name": "E4",
                    "midi": 64,
                    "time": 80.86957600000005,
                    "velocity": 0.2677165354330709,
                    "duration": 0.6521740000000023
                },
                {
                    "name": "G4",
                    "midi": 67,
                    "time": 80.86957600000005,
                    "velocity": 0.30708661417322836,
                    "duration": 0.6521740000000023
                },
                {
                    "name": "D4",
                    "midi": 62,
                    "time": 81.52175000000005,
                    "velocity": 0.2677165354330709,
                    "duration": 0.4891305000000017
                },
                {
                    "name": "G4",
                    "midi": 67,
                    "time": 82.01088050000006,
                    "velocity": 0.41732283464566927,
                    "duration": 0.16304350000000056
                },
                {
                    "name": "B5",
                    "midi": 83,
                    "time": 82.17392400000006,
                    "velocity": 0.5118110236220472,
                    "duration": 1.3043479999999903
                },
                {
                    "name": "A5",
                    "midi": 81,
                    "time": 83.45925025833338,
                    "velocity": 0.47244094488188976,
                    "duration": 0.6467392166666599
                },
                {
                    "name": "A5",
                    "midi": 81,
                    "time": 84.13044600000005,
                    "velocity": 0.5118110236220472,
                    "duration": 0.6521740000000023
                },
                {
                    "name": "G6",
                    "midi": 91,
                    "time": 84.78262000000005,
                    "velocity": 0.5118110236220472,
                    "duration": 0.6521740000000023
                },
                {
                    "name": "G5",
                    "midi": 79,
                    "time": 84.78262000000005,
                    "velocity": 0.36220472440944884,
                    "duration": 0.6521740000000023
                },
                {
                    "name": "F#5",
                    "midi": 78,
                    "time": 85.43479400000005,
                    "velocity": 0.4251968503937008,
                    "duration": 0.6467392166666599
                },
                {
                    "name": "F#6",
                    "midi": 90,
                    "time": 85.43479400000005,
                    "velocity": 0.5039370078740157,
                    "duration": 0.6467392166666599
                },
                {
                    "name": "F#6",
                    "midi": 90,
                    "time": 86.08696800000004,
                    "velocity": 0.5433070866141733,
                    "duration": 0.6521740000000023
                },
                {
                    "name": "F#5",
                    "midi": 78,
                    "time": 86.08696800000004,
                    "velocity": 0.4566929133858268,
                    "duration": 0.6521740000000023
                },
                {
                    "name": "E5",
                    "midi": 76,
                    "time": 86.73914200000004,
                    "velocity": 0.4409448818897638,
                    "duration": 0.6521740000000023
                },
                {
                    "name": "E6",
                    "midi": 88,
                    "time": 86.73914200000004,
                    "velocity": 0.5275590551181102,
                    "duration": 0.6521740000000023
                },
                {
                    "name": "F#5",
                    "midi": 78,
                    "time": 87.39131600000005,
                    "velocity": 0.47244094488188976,
                    "duration": 0.6467392166666599
                },
                {
                    "name": "F#6",
                    "midi": 90,
                    "time": 87.39131600000005,
                    "velocity": 0.5590551181102362,
                    "duration": 0.6467392166666599
                },
                {
                    "name": "F#6",
                    "midi": 90,
                    "time": 88.04349000000003,
                    "velocity": 0.5905511811023622,
                    "duration": 0.6521740000000023
                },
                {
                    "name": "F#5",
                    "midi": 78,
                    "time": 88.04349000000003,
                    "velocity": 0.49606299212598426,
                    "duration": 0.6521740000000023
                },
                {
                    "name": "G6",
                    "midi": 91,
                    "time": 88.69566400000004,
                    "velocity": 0.5669291338582677,
                    "duration": 0.9782610000000034
                },
                {
                    "name": "G5",
                    "midi": 79,
                    "time": 88.69566400000004,
                    "velocity": 0.48031496062992124,
                    "duration": 0.9782610000000034
                },
                {
                    "name": "F#5",
                    "midi": 78,
                    "time": 89.67392500000004,
                    "velocity": 0.5039370078740157,
                    "duration": 0.32336960833333706
                },
                {
                    "name": "F#4",
                    "midi": 66,
                    "time": 89.67392500000004,
                    "velocity": 0.44881889763779526,
                    "duration": 0.32336960833333706
                },
                {
                    "name": "F#4",
                    "midi": 66,
                    "time": 90.00001200000004,
                    "velocity": 0.4251968503937008,
                    "duration": 0.6521740000000023
                },
                {
                    "name": "F#5",
                    "midi": 78,
                    "time": 90.00001200000004,
                    "velocity": 0.4251968503937008,
                    "duration": 0.6521740000000023
                },
                {
                    "name": "A5",
                    "midi": 81,
                    "time": 90.65218600000004,
                    "velocity": 0.4094488188976378,
                    "duration": 0.6521740000000023
                },
                {
                    "name": "A4",
                    "midi": 69,
                    "time": 90.65218600000004,
                    "velocity": 0.4094488188976378,
                    "duration": 0.6521740000000023
                },
                {
                    "name": "C#6",
                    "midi": 85,
                    "time": 91.30436000000005,
                    "velocity": 0.4645669291338583,
                    "duration": 0.6467392166666599
                },
                {
                    "name": "C#5",
                    "midi": 73,
                    "time": 91.30436000000005,
                    "velocity": 0.4645669291338583,
                    "duration": 0.6467392166666599
                },
                {
                    "name": "C#5",
                    "midi": 73,
                    "time": 91.95653400000003,
                    "velocity": 0.4881889763779528,
                    "duration": 1.3043480000000045
                },
                {
                    "name": "C#6",
                    "midi": 85,
                    "time": 91.95653400000003,
                    "velocity": 0.4881889763779528,
                    "duration": 1.3043480000000045
                },
                {
                    "name": "C#6",
                    "midi": 85,
                    "time": 93.26088200000004,
                    "velocity": 0.44881889763779526,
                    "duration": 0.6467392166666599
                },
                {
                    "name": "C#5",
                    "midi": 73,
                    "time": 93.26088200000004,
                    "velocity": 0.44881889763779526,
                    "duration": 0.6467392166666599
                },
                {
                    "name": "C#6",
                    "midi": 85,
                    "time": 93.91305600000003,
                    "velocity": 0.49606299212598426,
                    "duration": 0.6521740000000023
                },
                {
                    "name": "C#5",
                    "midi": 73,
                    "time": 93.91305600000003,
                    "velocity": 0.41732283464566927,
                    "duration": 0.6521740000000023
                },
                {
                    "name": "D5",
                    "midi": 74,
                    "time": 94.56523000000003,
                    "velocity": 0.4094488188976378,
                    "duration": 0.6521740000000023
                },
                {
                    "name": "D6",
                    "midi": 86,
                    "time": 94.56523000000003,
                    "velocity": 0.4881889763779528,
                    "duration": 0.6521740000000023
                },
                {
                    "name": "G4",
                    "midi": 67,
                    "time": 95.21740400000003,
                    "velocity": 0.3700787401574803,
                    "duration": 0.6521740000000023
                },
                {
                    "name": "G5",
                    "midi": 79,
                    "time": 95.21740400000003,
                    "velocity": 0.4409448818897638,
                    "duration": 0.6521740000000023
                },
                {
                    "name": "B5",
                    "midi": 83,
                    "time": 95.86957800000003,
                    "velocity": 0.49606299212598426,
                    "duration": 0.6521740000000023
                },
                {
                    "name": "B4",
                    "midi": 71,
                    "time": 95.86957800000003,
                    "velocity": 0.41732283464566927,
                    "duration": 0.6521740000000023
                },
                {
                    "name": "C#4",
                    "midi": 61,
                    "time": 96.52175200000003,
                    "velocity": 0.3779527559055118,
                    "duration": 0.6521740000000023
                },
                {
                    "name": "C#5",
                    "midi": 73,
                    "time": 96.52175200000003,
                    "velocity": 0.44881889763779526,
                    "duration": 0.6521740000000023
                },
                {
                    "name": "F4",
                    "midi": 65,
                    "time": 97.17392600000004,
                    "velocity": 0.3700787401574803,
                    "duration": 0.6521740000000023
                },
                {
                    "name": "F5",
                    "midi": 77,
                    "time": 97.17392600000004,
                    "velocity": 0.4409448818897638,
                    "duration": 0.6521740000000023
                },
                {
                    "name": "F#5",
                    "midi": 78,
                    "time": 97.82610000000004,
                    "velocity": 0.49606299212598426,
                    "duration": 0.6521740000000023
                },
                {
                    "name": "F#4",
                    "midi": 66,
                    "time": 97.82610000000004,
                    "velocity": 0.41732283464566927,
                    "duration": 0.6521740000000023
                },
                {
                    "name": "C#5",
                    "midi": 73,
                    "time": 98.47827400000004,
                    "velocity": 0.44881889763779526,
                    "duration": 0.9782610000000034
                },
                {
                    "name": "C#6",
                    "midi": 85,
                    "time": 98.47827400000004,
                    "velocity": 0.5354330708661418,
                    "duration": 0.9782610000000034
                },
                {
                    "name": "G#4",
                    "midi": 68,
                    "time": 99.45653500000004,
                    "velocity": 0.3228346456692913,
                    "duration": 0.3260870000000011
                },
                {
                    "name": "G#5",
                    "midi": 80,
                    "time": 99.45653500000004,
                    "velocity": 0.3858267716535433,
                    "duration": 0.3260870000000011
                },
                {
                    "name": "A5",
                    "midi": 81,
                    "time": 99.78262200000005,
                    "velocity": 0.41732283464566927,
                    "duration": 0.6521740000000023
                },
                {
                    "name": "A4",
                    "midi": 69,
                    "time": 99.78262200000005,
                    "velocity": 0.3543307086614173,
                    "duration": 0.6521740000000023
                },
                {
                    "name": "A4",
                    "midi": 69,
                    "time": 100.43479600000005,
                    "velocity": 0.3543307086614173,
                    "duration": 0.9782610000000034
                },
                {
                    "name": "A5",
                    "midi": 81,
                    "time": 100.43479600000005,
                    "velocity": 0.4251968503937008,
                    "duration": 0.9782610000000034
                },
                {
                    "name": "F4",
                    "midi": 65,
                    "time": 101.41305700000005,
                    "velocity": 0.29133858267716534,
                    "duration": 0.3260870000000011
                },
                {
                    "name": "F5",
                    "midi": 77,
                    "time": 101.41305700000005,
                    "velocity": 0.3464566929133858,
                    "duration": 0.3260870000000011
                },
                {
                    "name": "C#5",
                    "midi": 73,
                    "time": 105.32610100000005,
                    "velocity": 0.3464566929133858,
                    "duration": 0.6467392166666599
                },
                {
                    "name": "C#5",
                    "midi": 73,
                    "time": 105.97827500000004,
                    "velocity": 0.3464566929133858,
                    "duration": 0.6467392166666599
                },
                {
                    "name": "C#5",
                    "midi": 73,
                    "time": 106.63044900000003,
                    "velocity": 0.3464566929133858,
                    "duration": 0.6467392166666741
                },
                {
                    "name": "F#5",
                    "midi": 78,
                    "time": 106.95653600000003,
                    "velocity": 0.4330708661417323,
                    "duration": 0.6467392166666741
                },
                {
                    "name": "C#5",
                    "midi": 73,
                    "time": 107.28262300000003,
                    "velocity": 0.3464566929133858,
                    "duration": 0.6467392166666741
                },
                {
                    "name": "F#5",
                    "midi": 78,
                    "time": 107.60871000000003,
                    "velocity": 0.49606299212598426,
                    "duration": 0.6521740000000023
                },
                {
                    "name": "C#5",
                    "midi": 73,
                    "time": 107.93479700000003,
                    "velocity": 0.3464566929133858,
                    "duration": 0.6467392166666741
                },
                {
                    "name": "A5",
                    "midi": 81,
                    "time": 108.26088400000003,
                    "velocity": 0.49606299212598426,
                    "duration": 0.6521740000000023
                },
                {
                    "name": "C#5",
                    "midi": 73,
                    "time": 108.58697100000003,
                    "velocity": 0.3779527559055118,
                    "duration": 0.6467392166666741
                },
                {
                    "name": "C#6",
                    "midi": 85,
                    "time": 108.91305800000004,
                    "velocity": 0.5354330708661418,
                    "duration": 0.6467392166666741
                },
                {
                    "name": "C#5",
                    "midi": 73,
                    "time": 109.23914500000004,
                    "velocity": 0.3937007874015748,
                    "duration": 0.3260870000000011
                },
                {
                    "name": "C#6",
                    "midi": 85,
                    "time": 109.56523200000004,
                    "velocity": 0.5590551181102362,
                    "duration": 1.3043479999999903
                },
                {
                    "name": "F5",
                    "midi": 77,
                    "time": 109.89131900000004,
                    "velocity": 0.4094488188976378,
                    "duration": 0.6467392166666599
                },
                {
                    "name": "B5",
                    "midi": 83,
                    "time": 109.89131900000004,
                    "velocity": 0.4094488188976378,
                    "duration": 0.6467392166666599
                },
                {
                    "name": "F5",
                    "midi": 77,
                    "time": 110.54349300000003,
                    "velocity": 0.29133858267716534,
                    "duration": 0.6521740000000023
                },
                {
                    "name": "B5",
                    "midi": 83,
                    "time": 110.54349300000003,
                    "velocity": 0.3464566929133858,
                    "duration": 0.6521740000000023
                },
                {
                    "name": "E6",
                    "midi": 88,
                    "time": 110.86958000000003,
                    "velocity": 0.5905511811023622,
                    "duration": 0.3260870000000011
                },
                {
                    "name": "D6",
                    "midi": 86,
                    "time": 111.19566700000003,
                    "velocity": 0.5275590551181102,
                    "duration": 0.3260870000000011
                },
                {
                    "name": "D6",
                    "midi": 86,
                    "time": 111.52175400000003,
                    "velocity": 0.5748031496062992,
                    "duration": 0.6521740000000023
                },
                {
                    "name": "B4",
                    "midi": 71,
                    "time": 111.84784100000003,
                    "velocity": 0.3464566929133858,
                    "duration": 0.6467392166666741
                },
                {
                    "name": "F5",
                    "midi": 77,
                    "time": 112.17392800000003,
                    "velocity": 0.5039370078740157,
                    "duration": 0.6521740000000023
                },
                {
                    "name": "B4",
                    "midi": 71,
                    "time": 112.50001500000003,
                    "velocity": 0.3464566929133858,
                    "duration": 0.6467392166666741
                },
                {
                    "name": "B5",
                    "midi": 83,
                    "time": 112.82610200000003,
                    "velocity": 0.5039370078740157,
                    "duration": 0.6521740000000023
                },
                {
                    "name": "B4",
                    "midi": 71,
                    "time": 113.15218900000004,
                    "velocity": 0.3464566929133858,
                    "duration": 0.6521740000000023
                },
                {
                    "name": "B5",
                    "midi": 83,
                    "time": 113.47827600000004,
                    "velocity": 0.5826771653543307,
                    "duration": 0.6521740000000023
                },
                {
                    "name": "F4",
                    "midi": 65,
                    "time": 113.80436300000004,
                    "velocity": 0.3464566929133858,
                    "duration": 0.6467392166666741
                },
                {
                    "name": "B4",
                    "midi": 71,
                    "time": 114.13045000000004,
                    "velocity": 0.4330708661417323,
                    "duration": 0.6521740000000023
                },
                {
                    "name": "F4",
                    "midi": 65,
                    "time": 114.45653700000004,
                    "velocity": 0.30708661417322836,
                    "duration": 0.6467392166666741
                },
                {
                    "name": "C#5",
                    "midi": 73,
                    "time": 114.78262400000004,
                    "velocity": 0.49606299212598426,
                    "duration": 0.3260870000000011
                },
                {
                    "name": "F4",
                    "midi": 65,
                    "time": 115.10871100000004,
                    "velocity": 0.29133858267716534,
                    "duration": 0.6467392166666741
                },
                {
                    "name": "D5",
                    "midi": 74,
                    "time": 115.10871100000004,
                    "velocity": 0.5118110236220472,
                    "duration": 0.32336960833333706
                },
                {
                    "name": "B4",
                    "midi": 71,
                    "time": 115.43479800000004,
                    "velocity": 0.31496062992125984,
                    "duration": 0.6521740000000023
                },
                {
                    "name": "D5",
                    "midi": 74,
                    "time": 115.43479800000004,
                    "velocity": 0.5196850393700787,
                    "duration": 0.6521740000000023
                },
                {
                    "name": "F4",
                    "midi": 65,
                    "time": 115.76088500000004,
                    "velocity": 0.29133858267716534,
                    "duration": 0.6467392166666741
                },
                {
                    "name": "B4",
                    "midi": 71,
                    "time": 115.76088500000004,
                    "velocity": 0.3464566929133858,
                    "duration": 0.6467392166666741
                },
                {
                    "name": "C#5",
                    "midi": 73,
                    "time": 116.08697200000005,
                    "velocity": 0.49606299212598426,
                    "duration": 0.9782609999999892
                },
                {
                    "name": "B4",
                    "midi": 71,
                    "time": 116.41305900000005,
                    "velocity": 0.3464566929133858,
                    "duration": 0.6467392166666599
                },
                {
                    "name": "F4",
                    "midi": 65,
                    "time": 116.41305900000005,
                    "velocity": 0.29133858267716534,
                    "duration": 0.6467392166666599
                },
                {
                    "name": "F4",
                    "midi": 65,
                    "time": 117.06523300000003,
                    "velocity": 0.29133858267716534,
                    "duration": 0.3260870000000011
                },
                {
                    "name": "B4",
                    "midi": 71,
                    "time": 117.06523300000003,
                    "velocity": 0.5196850393700787,
                    "duration": 0.3260870000000011
                },
                {
                    "name": "B4",
                    "midi": 71,
                    "time": 117.39132000000004,
                    "velocity": 0.49606299212598426,
                    "duration": 0.3260870000000011
                },
                {
                    "name": "A4",
                    "midi": 69,
                    "time": 117.71740700000004,
                    "velocity": 0.4251968503937008,
                    "duration": 0.6521740000000023
                },
                {
                    "name": "C#5",
                    "midi": 73,
                    "time": 118.36958100000004,
                    "velocity": 0.49606299212598426,
                    "duration": 0.6521740000000023
                },
                {
                    "name": "F#5",
                    "midi": 78,
                    "time": 119.02175500000004,
                    "velocity": 0.5275590551181102,
                    "duration": 0.54347833333334
                },
                {
                    "name": "A5",
                    "midi": 81,
                    "time": 119.56523333333338,
                    "velocity": 0.5196850393700787,
                    "duration": 0.21739133333333882
                },
                {
                    "name": "C#6",
                    "midi": 85,
                    "time": 119.78262466666672,
                    "velocity": 0.5275590551181102,
                    "duration": 0.43478266666666343
                },
                {
                    "name": "F#6",
                    "midi": 90,
                    "time": 120.21740733333338,
                    "velocity": 0.5511811023622047,
                    "duration": 0.21739133333333882
                },
                {
                    "name": "G#6",
                    "midi": 92,
                    "time": 120.43479866666672,
                    "velocity": 0.5590551181102362,
                    "duration": 0.21739133333333882
                },
                {
                    "name": "A6",
                    "midi": 93,
                    "time": 120.65219000000006,
                    "velocity": 0.5905511811023622,
                    "duration": 0.21739133333333882
                },
                {
                    "name": "F#6",
                    "midi": 90,
                    "time": 120.8695813333334,
                    "velocity": 0.5748031496062992,
                    "duration": 0.21739133333333882
                },
                {
                    "name": "C#6",
                    "midi": 85,
                    "time": 121.08697266666674,
                    "velocity": 0.49606299212598426,
                    "duration": 0.21739133333333882
                },
                {
                    "name": "C#6",
                    "midi": 85,
                    "time": 121.30436400000008,
                    "velocity": 0.5354330708661418,
                    "duration": 0.16304350000000056
                },
                {
                    "name": "D6",
                    "midi": 86,
                    "time": 121.46740750000008,
                    "velocity": 0.49606299212598426,
                    "duration": 0.16304350000000056
                },
                {
                    "name": "C#6",
                    "midi": 85,
                    "time": 121.63045100000008,
                    "velocity": 0.4645669291338583,
                    "duration": 0.08152174999999318
                },
                {
                    "name": "D6",
                    "midi": 86,
                    "time": 121.71197275000007,
                    "velocity": 0.47244094488188976,
                    "duration": 0.08152174999999318
                },
                {
                    "name": "C#6",
                    "midi": 85,
                    "time": 121.79349450000007,
                    "velocity": 0.4881889763779528,
                    "duration": 0.08152174999999318
                },
                {
                    "name": "D6",
                    "midi": 86,
                    "time": 121.87501625000006,
                    "velocity": 0.49606299212598426,
                    "duration": 0.08152174999999318
                },
                {
                    "name": "C#6",
                    "midi": 85,
                    "time": 121.95653800000005,
                    "velocity": 0.5039370078740157,
                    "duration": 0.08152174999999318
                },
                {
                    "name": "D6",
                    "midi": 86,
                    "time": 122.03805975000004,
                    "velocity": 0.5118110236220472,
                    "duration": 0.08152174999999318
                },
                {
                    "name": "C#6",
                    "midi": 85,
                    "time": 122.11958150000004,
                    "velocity": 0.5196850393700787,
                    "duration": 0.16304350000000056
                },
                {
                    "name": "C6",
                    "midi": 84,
                    "time": 122.28262500000004,
                    "velocity": 0.5433070866141733,
                    "duration": 0.16304350000000056
                },
                {
                    "name": "C#6",
                    "midi": 85,
                    "time": 122.44566850000004,
                    "velocity": 0.5590551181102362,
                    "duration": 0.16304350000000056
                },
                {
                    "name": "E6",
                    "midi": 88,
                    "time": 122.60871200000004,
                    "velocity": 0.5826771653543307,
                    "duration": 0.21739133333333882
                },
                {
                    "name": "C#6",
                    "midi": 85,
                    "time": 122.82610333333338,
                    "velocity": 0.5433070866141733,
                    "duration": 0.21739133333333882
                },
                {
                    "name": "D6",
                    "midi": 86,
                    "time": 123.04349466666672,
                    "velocity": 0.5511811023622047,
                    "duration": 0.21467394166666054
                },
                {
                    "name": "D6",
                    "midi": 86,
                    "time": 123.26088600000004,
                    "velocity": 0.5984251968503937,
                    "duration": 0.21739133333333882
                },
                {
                    "name": "E5",
                    "midi": 76,
                    "time": 123.47827733333338,
                    "velocity": 0.4881889763779528,
                    "duration": 0.21739133333333882
                },
                {
                    "name": "F5",
                    "midi": 77,
                    "time": 123.69566866666672,
                    "velocity": 0.4881889763779528,
                    "duration": 0.21739133333333882
                },
                {
                    "name": "F5",
                    "midi": 77,
                    "time": 123.91306000000006,
                    "velocity": 0.5511811023622047,
                    "duration": 0.21739133333333882
                },
                {
                    "name": "D6",
                    "midi": 86,
                    "time": 124.1304513333334,
                    "velocity": 0.4645669291338583,
                    "duration": 0.21739133333333882
                },
                {
                    "name": "C#6",
                    "midi": 85,
                    "time": 124.34784266666674,
                    "velocity": 0.47244094488188976,
                    "duration": 0.21467394166666054
                },
                {
                    "name": "C#6",
                    "midi": 85,
                    "time": 124.56523400000006,
                    "velocity": 0.5275590551181102,
                    "duration": 0.21739133333333882
                },
                {
                    "name": "A#5",
                    "midi": 82,
                    "time": 124.7826253333334,
                    "velocity": 0.4566929133858268,
                    "duration": 0.21739133333333882
                },
                {
                    "name": "B5",
                    "midi": 83,
                    "time": 125.00001666666674,
                    "velocity": 0.41732283464566927,
                    "duration": 0.21467394166666054
                },
                {
                    "name": "B5",
                    "midi": 83,
                    "time": 125.21740800000006,
                    "velocity": 0.4645669291338583,
                    "duration": 0.16304350000000056
                },
                {
                    "name": "F4",
                    "midi": 65,
                    "time": 125.38045150000006,
                    "velocity": 0.36220472440944884,
                    "duration": 0.16304350000000056
                },
                {
                    "name": "F#4",
                    "midi": 66,
                    "time": 125.54349500000006,
                    "velocity": 0.3700787401574803,
                    "duration": 0.16304350000000056
                },
                {
                    "name": "G#4",
                    "midi": 68,
                    "time": 125.70653850000006,
                    "velocity": 0.3779527559055118,
                    "duration": 0.16304350000000056
                },
                {
                    "name": "A4",
                    "midi": 69,
                    "time": 125.86958200000007,
                    "velocity": 0.3858267716535433,
                    "duration": 0.16304350000000056
                },
                {
                    "name": "A#4",
                    "midi": 70,
                    "time": 126.03262550000007,
                    "velocity": 0.3937007874015748,
                    "duration": 0.16304350000000056
                },
                {
                    "name": "B4",
                    "midi": 71,
                    "time": 126.19566900000007,
                    "velocity": 0.4015748031496063,
                    "duration": 0.16304350000000056
                },
                {
                    "name": "C5",
                    "midi": 72,
                    "time": 126.35871250000007,
                    "velocity": 0.4094488188976378,
                    "duration": 0.16304350000000056
                },
                {
                    "name": "C#5",
                    "midi": 73,
                    "time": 126.52175600000007,
                    "velocity": 0.4251968503937008,
                    "duration": 0.21739133333333882
                },
                {
                    "name": "D5",
                    "midi": 74,
                    "time": 126.7391473333334,
                    "velocity": 0.4330708661417323,
                    "duration": 0.21739133333333882
                },
                {
                    "name": "D#5",
                    "midi": 75,
                    "time": 126.95653866666675,
                    "velocity": 0.44881889763779526,
                    "duration": 0.21739133333333882
                },
                {
                    "name": "E5",
                    "midi": 76,
                    "time": 127.17393000000008,
                    "velocity": 0.4566929133858268,
                    "duration": 0.21739133333333882
                },
                {
                    "name": "C#5",
                    "midi": 73,
                    "time": 127.39132133333342,
                    "velocity": 0.47244094488188976,
                    "duration": 0.21739133333333882
                },
                {
                    "name": "D5",
                    "midi": 74,
                    "time": 127.60871266666676,
                    "velocity": 0.48031496062992124,
                    "duration": 0.21467394166666054
                },
                {
                    "name": "D5",
                    "midi": 74,
                    "time": 127.82610400000009,
                    "velocity": 0.5039370078740157,
                    "duration": 0.16304350000000056
                },
                {
                    "name": "B5",
                    "midi": 83,
                    "time": 127.98914750000009,
                    "velocity": 0.4881889763779528,
                    "duration": 0.16304349999998635
                },
                {
                    "name": "G#5",
                    "midi": 80,
                    "time": 128.15219100000007,
                    "velocity": 0.4409448818897638,
                    "duration": 0.16304349999998635
                },
                {
                    "name": "F5",
                    "midi": 77,
                    "time": 128.31523450000006,
                    "velocity": 0.4409448818897638,
                    "duration": 0.16304349999998635
                },
                {
                    "name": "D5",
                    "midi": 74,
                    "time": 128.47827800000005,
                    "velocity": 0.4881889763779528,
                    "duration": 0.16304349999998635
                },
                {
                    "name": "C5",
                    "midi": 72,
                    "time": 128.64132150000003,
                    "velocity": 0.44881889763779526,
                    "duration": 0.16304349999998635
                },
                {
                    "name": "D5",
                    "midi": 74,
                    "time": 128.80436500000002,
                    "velocity": 0.4330708661417323,
                    "duration": 0.16304349999998635
                },
                {
                    "name": "C#5",
                    "midi": 73,
                    "time": 128.9674085,
                    "velocity": 0.4330708661417323,
                    "duration": 0.16304349999998635
                },
                {
                    "name": "C#5",
                    "midi": 73,
                    "time": 129.130452,
                    "velocity": 0.44881889763779526,
                    "duration": 0.6521740000000023
                },
                {
                    "name": "F#4",
                    "midi": 66,
                    "time": 129.456539,
                    "velocity": 0.3779527559055118,
                    "duration": 0.6467392166666741
                },
                {
                    "name": "F#5",
                    "midi": 78,
                    "time": 129.782626,
                    "velocity": 0.4881889763779528,
                    "duration": 0.9782610000000034
                },
                {
                    "name": "F#4",
                    "midi": 66,
                    "time": 130.108713,
                    "velocity": 0.3779527559055118,
                    "duration": 0.6521740000000023
                },
                {
                    "name": "C#5",
                    "midi": 73,
                    "time": 130.760887,
                    "velocity": 0.4409448818897638,
                    "duration": 0.3260870000000011
                },
                {
                    "name": "D5",
                    "midi": 74,
                    "time": 131.086974,
                    "velocity": 0.4881889763779528,
                    "duration": 1.3043480000000045
                },
                {
                    "name": "B4",
                    "midi": 71,
                    "time": 131.413061,
                    "velocity": 0.33858267716535434,
                    "duration": 0.6467392166666741
                },
                {
                    "name": "F4",
                    "midi": 65,
                    "time": 131.413061,
                    "velocity": 0.28346456692913385,
                    "duration": 0.6467392166666741
                },
                {
                    "name": "F4",
                    "midi": 65,
                    "time": 132.065235,
                    "velocity": 0.28346456692913385,
                    "duration": 0.6467392166666741
                },
                {
                    "name": "B4",
                    "midi": 71,
                    "time": 132.065235,
                    "velocity": 0.33858267716535434,
                    "duration": 0.6467392166666741
                },
                {
                    "name": "C#5",
                    "midi": 73,
                    "time": 132.391322,
                    "velocity": 0.4409448818897638,
                    "duration": 0.6521740000000023
                },
                {
                    "name": "F4",
                    "midi": 65,
                    "time": 132.717409,
                    "velocity": 0.28346456692913385,
                    "duration": 0.3260870000000011
                },
                {
                    "name": "B4",
                    "midi": 71,
                    "time": 132.717409,
                    "velocity": 0.33858267716535434,
                    "duration": 0.3260870000000011
                },
                {
                    "name": "C#5",
                    "midi": 73,
                    "time": 133.043496,
                    "velocity": 0.4881889763779528,
                    "duration": 0.2173913333333246
                },
                {
                    "name": "C#6",
                    "midi": 85,
                    "time": 133.26088733333333,
                    "velocity": 0.44881889763779526,
                    "duration": 0.2173913333333246
                },
                {
                    "name": "G#5",
                    "midi": 80,
                    "time": 133.47827866666665,
                    "velocity": 0.44881889763779526,
                    "duration": 0.2173913333333246
                },
                {
                    "name": "B5",
                    "midi": 83,
                    "time": 133.69566999999998,
                    "velocity": 0.49606299212598426,
                    "duration": 0.16304349999998635
                },
                {
                    "name": "A5",
                    "midi": 81,
                    "time": 133.85871349999996,
                    "velocity": 0.5118110236220472,
                    "duration": 0.16304349999998635
                },
                {
                    "name": "F5",
                    "midi": 77,
                    "time": 134.02175699999995,
                    "velocity": 0.5354330708661418,
                    "duration": 0.16304349999998635
                },
                {
                    "name": "F#5",
                    "midi": 78,
                    "time": 134.18480049999994,
                    "velocity": 0.5511811023622047,
                    "duration": 0.16304349999998635
                },
                {
                    "name": "G#5",
                    "midi": 80,
                    "time": 134.34784399999992,
                    "velocity": 0.5590551181102362,
                    "duration": 0.16304349999998635
                },
                {
                    "name": "F#5",
                    "midi": 78,
                    "time": 134.5108874999999,
                    "velocity": 0.5511811023622047,
                    "duration": 0.16304349999998635
                },
                {
                    "name": "A5",
                    "midi": 81,
                    "time": 134.6739309999999,
                    "velocity": 0.5354330708661418,
                    "duration": 0.10869566666667652
                },
                {
                    "name": "F#5",
                    "midi": 78,
                    "time": 134.78262666666657,
                    "velocity": 0.5275590551181102,
                    "duration": 0.10869566666667652
                },
                {
                    "name": "C#5",
                    "midi": 73,
                    "time": 134.8940397249999,
                    "velocity": 0.5118110236220472,
                    "duration": 0.10869566666667652
                },
                {
                    "name": "E5",
                    "midi": 76,
                    "time": 135.00001799999993,
                    "velocity": 0.5196850393700787,
                    "duration": 0.3260870000000011
                },
                {
                    "name": "D#5",
                    "midi": 75,
                    "time": 135.32610499999993,
                    "velocity": 0.4881889763779528,
                    "duration": 0.3260870000000011
                },
                {
                    "name": "B4",
                    "midi": 71,
                    "time": 135.32610499999993,
                    "velocity": 0.4094488188976378,
                    "duration": 0.6467392166666741
                },
                {
                    "name": "F4",
                    "midi": 65,
                    "time": 135.32610499999993,
                    "velocity": 0.33858267716535434,
                    "duration": 0.6467392166666741
                },
                {
                    "name": "D5",
                    "midi": 74,
                    "time": 135.65219199999993,
                    "velocity": 0.4881889763779528,
                    "duration": 0.3260870000000011
                },
                {
                    "name": "D5",
                    "midi": 74,
                    "time": 135.97827899999993,
                    "velocity": 0.4566929133858268,
                    "duration": 0.6467392166666741
                },
                {
                    "name": "B4",
                    "midi": 71,
                    "time": 135.97827899999993,
                    "velocity": 0.3779527559055118,
                    "duration": 0.6467392166666741
                },
                {
                    "name": "F4",
                    "midi": 65,
                    "time": 135.97827899999993,
                    "velocity": 0.3228346456692913,
                    "duration": 0.6467392166666741
                },
                {
                    "name": "F4",
                    "midi": 65,
                    "time": 136.63045299999993,
                    "velocity": 0.3228346456692913,
                    "duration": 0.3260870000000011
                },
                {
                    "name": "B4",
                    "midi": 71,
                    "time": 136.63045299999993,
                    "velocity": 0.3779527559055118,
                    "duration": 0.3260870000000011
                },
                {
                    "name": "C#5",
                    "midi": 73,
                    "time": 136.63045299999993,
                    "velocity": 0.4566929133858268,
                    "duration": 0.3260870000000011
                },
                {
                    "name": "C#5",
                    "midi": 73,
                    "time": 136.95653999999993,
                    "velocity": 0.47244094488188976,
                    "duration": 0.9782610000000034
                },
                {
                    "name": "F#4",
                    "midi": 66,
                    "time": 137.28262699999993,
                    "velocity": 0.31496062992125984,
                    "duration": 0.6521740000000023
                },
                {
                    "name": "F#5",
                    "midi": 78,
                    "time": 137.93480099999994,
                    "velocity": 0.4881889763779528,
                    "duration": 0.6467392166666741
                },
                {
                    "name": "F#5",
                    "midi": 78,
                    "time": 138.58697499999994,
                    "velocity": 0.49606299212598426,
                    "duration": 1.2907610416666557
                },
                {
                    "name": "F#4",
                    "midi": 66,
                    "time": 139.23914899999994,
                    "velocity": 0.31496062992125984,
                    "duration": 0.6521739999999738
                },
                {
                    "name": "F#5",
                    "midi": 78,
                    "time": 139.89132299999991,
                    "velocity": 0.5118110236220472,
                    "duration": 0.6467392166666741
                },
                {
                    "name": "F#5",
                    "midi": 78,
                    "time": 140.54349699999992,
                    "velocity": 0.5275590551181102,
                    "duration": 1.3043480000000045
                },
                {
                    "name": "B4",
                    "midi": 71,
                    "time": 141.19567099999992,
                    "velocity": 0.3543307086614173,
                    "duration": 0.6521740000000023
                },
                {
                    "name": "B5",
                    "midi": 83,
                    "time": 141.84784499999992,
                    "velocity": 0.5433070866141733,
                    "duration": 0.6467392166666741
                },
                {
                    "name": "B5",
                    "midi": 83,
                    "time": 142.50001899999992,
                    "velocity": 0.5590551181102362,
                    "duration": 1.2907610416666557
                },
                {
                    "name": "B4",
                    "midi": 71,
                    "time": 143.15219299999993,
                    "velocity": 0.48031496062992124,
                    "duration": 0.6521739999999738
                },
                {
                    "name": "B4",
                    "midi": 71,
                    "time": 143.8043669999999,
                    "velocity": 0.4881889763779528,
                    "duration": 0.6467392166666741
                },
                {
                    "name": "B5",
                    "midi": 83,
                    "time": 143.8043669999999,
                    "velocity": 0.5748031496062992,
                    "duration": 0.6467392166666741
                },
                {
                    "name": "B4",
                    "midi": 71,
                    "time": 144.4565409999999,
                    "velocity": 0.49606299212598426,
                    "duration": 0.6467392166666741
                },
                {
                    "name": "B5",
                    "midi": 83,
                    "time": 144.4565409999999,
                    "velocity": 0.5905511811023622,
                    "duration": 0.6467392166666741
                },
                {
                    "name": "B4",
                    "midi": 71,
                    "time": 145.1087149999999,
                    "velocity": 0.5039370078740157,
                    "duration": 0.6467392166666741
                },
                {
                    "name": "B5",
                    "midi": 83,
                    "time": 145.1087149999999,
                    "velocity": 0.5984251968503937,
                    "duration": 0.6467392166666741
                },
                {
                    "name": "B4",
                    "midi": 71,
                    "time": 145.7608889999999,
                    "velocity": 0.5118110236220472,
                    "duration": 0.6467392166666741
                },
                {
                    "name": "B5",
                    "midi": 83,
                    "time": 145.7608889999999,
                    "velocity": 0.6062992125984252,
                    "duration": 0.6467392166666741
                },
                {
                    "name": "B4",
                    "midi": 71,
                    "time": 146.4130629999999,
                    "velocity": 0.5196850393700787,
                    "duration": 0.32336960833333706
                },
                {
                    "name": "B5",
                    "midi": 83,
                    "time": 146.4130629999999,
                    "velocity": 0.6141732283464567,
                    "duration": 0.6467392166666741
                },
                {
                    "name": "E6",
                    "midi": 88,
                    "time": 147.0652369999999,
                    "velocity": 0.6299212598425197,
                    "duration": 0.6467392166666741
                },
                {
                    "name": "B5",
                    "midi": 83,
                    "time": 147.0652369999999,
                    "velocity": 0.5354330708661418,
                    "duration": 0.6467392166666741
                },
                {
                    "name": "E5",
                    "midi": 76,
                    "time": 147.0652369999999,
                    "velocity": 0.5354330708661418,
                    "duration": 0.6467392166666741
                },
                {
                    "name": "D6",
                    "midi": 86,
                    "time": 147.7174109999999,
                    "velocity": 0.6377952755905512,
                    "duration": 0.6467392166666741
                },
                {
                    "name": "E6",
                    "midi": 88,
                    "time": 147.7174109999999,
                    "velocity": 0.6377952755905512,
                    "duration": 0.6467392166666741
                },
                {
                    "name": "B5",
                    "midi": 83,
                    "time": 147.7174109999999,
                    "velocity": 0.5354330708661418,
                    "duration": 0.6467392166666741
                },
                {
                    "name": "E5",
                    "midi": 76,
                    "time": 147.7174109999999,
                    "velocity": 0.5354330708661418,
                    "duration": 0.6467392166666741
                },
                {
                    "name": "E6",
                    "midi": 88,
                    "time": 148.36958499999992,
                    "velocity": 0.6456692913385826,
                    "duration": 0.32336960833333706
                },
                {
                    "name": "C#6",
                    "midi": 85,
                    "time": 148.36958499999992,
                    "velocity": 0.5433070866141733,
                    "duration": 0.32336960833333706
                },
                {
                    "name": "A5",
                    "midi": 81,
                    "time": 148.36958499999992,
                    "velocity": 0.5433070866141733,
                    "duration": 0.32336960833333706
                },
                {
                    "name": "E5",
                    "midi": 76,
                    "time": 148.36958499999992,
                    "velocity": 0.5433070866141733,
                    "duration": 0.32336960833333706
                },
                {
                    "name": "E5",
                    "midi": 76,
                    "time": 148.69567199999992,
                    "velocity": 0.4409448818897638,
                    "duration": 0.6521740000000023
                },
                {
                    "name": "E6",
                    "midi": 88,
                    "time": 148.69567199999992,
                    "velocity": 0.5748031496062992,
                    "duration": 0.3260870000000011
                },
                {
                    "name": "G#5",
                    "midi": 80,
                    "time": 149.02175899999992,
                    "velocity": 0.44881889763779526,
                    "duration": 0.3260870000000011
                },
                {
                    "name": "E5",
                    "midi": 76,
                    "time": 149.34784599999992,
                    "velocity": 0.4251968503937008,
                    "duration": 0.6521740000000023
                },
                {
                    "name": "B5",
                    "midi": 83,
                    "time": 149.34784599999992,
                    "velocity": 0.5039370078740157,
                    "duration": 0.3260870000000011
                },
                {
                    "name": "A5",
                    "midi": 81,
                    "time": 149.67393299999992,
                    "velocity": 0.47244094488188976,
                    "duration": 0.3260870000000011
                },
                {
                    "name": "F#5",
                    "midi": 78,
                    "time": 150.00001999999992,
                    "velocity": 0.4015748031496063,
                    "duration": 0.9782610000000034
                },
                {
                    "name": "G#5",
                    "midi": 80,
                    "time": 150.00001999999992,
                    "velocity": 0.47244094488188976,
                    "duration": 0.3260870000000011
                },
                {
                    "name": "A5",
                    "midi": 81,
                    "time": 150.32610699999992,
                    "velocity": 0.47244094488188976,
                    "duration": 0.3260870000000011
                },
                {
                    "name": "C6",
                    "midi": 84,
                    "time": 150.65219399999992,
                    "velocity": 0.5433070866141733,
                    "duration": 0.6521740000000023
                },
                {
                    "name": "F#5",
                    "midi": 78,
                    "time": 150.97828099999992,
                    "velocity": 0.47244094488188976,
                    "duration": 0.3260870000000011
                },
                {
                    "name": "A5",
                    "midi": 81,
                    "time": 151.30436799999993,
                    "velocity": 0.5118110236220472,
                    "duration": 0.9782610000000034
                },
                {
                    "name": "B5",
                    "midi": 83,
                    "time": 151.30436799999993,
                    "velocity": 0.4330708661417323,
                    "duration": 1.9565220000000068
                },
                {
                    "name": "G5",
                    "midi": 79,
                    "time": 151.63045499999993,
                    "velocity": 0.44881889763779526,
                    "duration": 0.3260870000000011
                },
                {
                    "name": "F#5",
                    "midi": 78,
                    "time": 151.95654199999993,
                    "velocity": 0.47244094488188976,
                    "duration": 0.3260870000000011
                },
                {
                    "name": "G5",
                    "midi": 79,
                    "time": 152.28262899999993,
                    "velocity": 0.4330708661417323,
                    "duration": 0.3260870000000011
                },
                {
                    "name": "F5",
                    "midi": 77,
                    "time": 152.60871599999993,
                    "velocity": 0.4409448818897638,
                    "duration": 0.6521740000000023
                },
                {
                    "name": "G#5",
                    "midi": 80,
                    "time": 152.93480299999993,
                    "velocity": 0.44881889763779526,
                    "duration": 0.3260870000000011
                },
                {
                    "name": "E5",
                    "midi": 76,
                    "time": 153.26088999999993,
                    "velocity": 0.4251968503937008,
                    "duration": 1.6304350000000056
                },
                {
                    "name": "A#5",
                    "midi": 82,
                    "time": 153.26088999999993,
                    "velocity": 0.5039370078740157,
                    "duration": 0.3260870000000011
                },
                {
                    "name": "A5",
                    "midi": 81,
                    "time": 153.58697699999993,
                    "velocity": 0.47244094488188976,
                    "duration": 0.3260870000000011
                },
                {
                    "name": "G#5",
                    "midi": 80,
                    "time": 153.91306399999993,
                    "velocity": 0.47244094488188976,
                    "duration": 0.3260870000000011
                },
                {
                    "name": "A5",
                    "midi": 81,
                    "time": 154.23915099999994,
                    "velocity": 0.47244094488188976,
                    "duration": 0.3260870000000011
                },
                {
                    "name": "B5",
                    "midi": 83,
                    "time": 154.56523799999994,
                    "velocity": 0.5433070866141733,
                    "duration": 0.6521740000000023
                },
                {
                    "name": "E5",
                    "midi": 76,
                    "time": 154.89132499999994,
                    "velocity": 0.47244094488188976,
                    "duration": 0.3260870000000011
                },
                {
                    "name": "G5",
                    "midi": 79,
                    "time": 155.21741199999994,
                    "velocity": 0.5118110236220472,
                    "duration": 0.3260870000000011
                },
                {
                    "name": "A5",
                    "midi": 81,
                    "time": 155.21741199999994,
                    "velocity": 0.4330708661417323,
                    "duration": 1.6304350000000056
                },
                {
                    "name": "F#5",
                    "midi": 78,
                    "time": 155.54349899999994,
                    "velocity": 0.44881889763779526,
                    "duration": 0.3260870000000011
                },
                {
                    "name": "F5",
                    "midi": 77,
                    "time": 155.86958599999994,
                    "velocity": 0.47244094488188976,
                    "duration": 0.3260870000000011
                },
                {
                    "name": "F#5",
                    "midi": 78,
                    "time": 156.19567299999994,
                    "velocity": 0.4330708661417323,
                    "duration": 0.3260870000000011
                },
                {
                    "name": "D#5",
                    "midi": 75,
                    "time": 156.52175999999994,
                    "velocity": 0.3937007874015748,
                    "duration": 0.6521740000000023
                },
                {
                    "name": "F#5",
                    "midi": 78,
                    "time": 156.84784699999994,
                    "velocity": 0.41732283464566927,
                    "duration": 0.3260870000000011
                },
                {
                    "name": "E5",
                    "midi": 76,
                    "time": 157.17393399999995,
                    "velocity": 0.4015748031496063,
                    "duration": 0.6521740000000023
                },
                {
                    "name": "A5",
                    "midi": 81,
                    "time": 157.17393399999995,
                    "velocity": 0.48031496062992124,
                    "duration": 0.3260870000000011
                },
                {
                    "name": "G5",
                    "midi": 79,
                    "time": 157.50002099999995,
                    "velocity": 0.4330708661417323,
                    "duration": 0.3260870000000011
                },
                {
                    "name": "C#5",
                    "midi": 73,
                    "time": 157.82610799999995,
                    "velocity": 0.4015748031496063,
                    "duration": 0.6521740000000023
                },
                {
                    "name": "F#5",
                    "midi": 78,
                    "time": 157.82610799999995,
                    "velocity": 0.48031496062992124,
                    "duration": 0.3260870000000011
                },
                {
                    "name": "G5",
                    "midi": 79,
                    "time": 158.15219499999995,
                    "velocity": 0.4330708661417323,
                    "duration": 0.32336960833333706
                },
                {
                    "name": "G5",
                    "midi": 79,
                    "time": 158.47828199999995,
                    "velocity": 0.49606299212598426,
                    "duration": 0.3260870000000011
                },
                {
                    "name": "C#5",
                    "midi": 73,
                    "time": 158.47828199999995,
                    "velocity": 0.41732283464566927,
                    "duration": 0.6521740000000023
                },
                {
                    "name": "E5",
                    "midi": 76,
                    "time": 158.80436899999995,
                    "velocity": 0.44881889763779526,
                    "duration": 0.3260870000000011
                },
                {
                    "name": "D5",
                    "midi": 74,
                    "time": 159.13045599999995,
                    "velocity": 0.4409448818897638,
                    "duration": 0.6521740000000023
                },
                {
                    "name": "G5",
                    "midi": 79,
                    "time": 159.13045599999995,
                    "velocity": 0.5275590551181102,
                    "duration": 0.3260870000000011
                },
                {
                    "name": "F#5",
                    "midi": 78,
                    "time": 159.45654299999995,
                    "velocity": 0.4566929133858268,
                    "duration": 0.3260870000000011
                },
                {
                    "name": "E5",
                    "midi": 76,
                    "time": 159.78262999999995,
                    "velocity": 0.5354330708661418,
                    "duration": 0.3260870000000011
                },
                {
                    "name": "B4",
                    "midi": 71,
                    "time": 159.78262999999995,
                    "velocity": 0.44881889763779526,
                    "duration": 0.9782610000000034
                },
                {
                    "name": "F5",
                    "midi": 77,
                    "time": 160.10871699999996,
                    "velocity": 0.48031496062992124,
                    "duration": 0.32336960833333706
                },
                {
                    "name": "F5",
                    "midi": 77,
                    "time": 160.43480399999996,
                    "velocity": 0.5590551181102362,
                    "duration": 0.6521740000000023
                },
                {
                    "name": "F4",
                    "midi": 65,
                    "time": 160.76089099999996,
                    "velocity": 0.48031496062992124,
                    "duration": 0.3260870000000011
                },
                {
                    "name": "E4",
                    "midi": 64,
                    "time": 161.08697799999996,
                    "velocity": 0.44881889763779526,
                    "duration": 0.6521740000000023
                },
                {
                    "name": "A#4",
                    "midi": 70,
                    "time": 161.08697799999996,
                    "velocity": 0.5354330708661418,
                    "duration": 0.3260870000000011
                },
                {
                    "name": "E5",
                    "midi": 76,
                    "time": 161.08697799999996,
                    "velocity": 0.5354330708661418,
                    "duration": 0.6521740000000023
                },
                {
                    "name": "A4",
                    "midi": 69,
                    "time": 161.41306499999996,
                    "velocity": 0.4645669291338583,
                    "duration": 0.3260870000000011
                },
                {
                    "name": "F#4",
                    "midi": 66,
                    "time": 161.73915199999996,
                    "velocity": 0.4566929133858268,
                    "duration": 0.6521740000000023
                },
                {
                    "name": "G#4",
                    "midi": 68,
                    "time": 161.73915199999996,
                    "velocity": 0.5433070866141733,
                    "duration": 0.3260870000000011
                },
                {
                    "name": "D5",
                    "midi": 74,
                    "time": 161.73915199999996,
                    "velocity": 0.5433070866141733,
                    "duration": 0.6521740000000023
                },
                {
                    "name": "A4",
                    "midi": 69,
                    "time": 162.06523899999996,
                    "velocity": 0.47244094488188976,
                    "duration": 0.3260870000000011
                },
                {
                    "name": "G5",
                    "midi": 79,
                    "time": 162.39132599999996,
                    "velocity": 0.5826771653543307,
                    "duration": 0.6521740000000023
                },
                {
                    "name": "C#5",
                    "midi": 73,
                    "time": 162.39132599999996,
                    "velocity": 0.5275590551181102,
                    "duration": 0.3260870000000011
                },
                {
                    "name": "E5",
                    "midi": 76,
                    "time": 162.71741299999996,
                    "velocity": 0.4881889763779528,
                    "duration": 0.3260870000000011
                },
                {
                    "name": "F#5",
                    "midi": 78,
                    "time": 163.04349999999997,
                    "velocity": 0.5590551181102362,
                    "duration": 0.6521740000000023
                },
                {
                    "name": "D5",
                    "midi": 74,
                    "time": 163.04349999999997,
                    "velocity": 0.47244094488188976,
                    "duration": 0.6521740000000023
                },
                {
                    "name": "F5",
                    "midi": 77,
                    "time": 163.69567399999997,
                    "velocity": 0.4566929133858268,
                    "duration": 0.6521740000000023
                },
                {
                    "name": "B5",
                    "midi": 83,
                    "time": 163.69567399999997,
                    "velocity": 0.5433070866141733,
                    "duration": 1.3043480000000045
                },
                {
                    "name": "B4",
                    "midi": 71,
                    "time": 163.69567399999997,
                    "velocity": 0.4566929133858268,
                    "duration": 0.6521740000000023
                },
                {
                    "name": "B4",
                    "midi": 71,
                    "time": 164.34784799999997,
                    "velocity": 0.48031496062992124,
                    "duration": 0.6521740000000023
                },
                {
                    "name": "G#5",
                    "midi": 80,
                    "time": 164.34784799999997,
                    "velocity": 0.5669291338582677,
                    "duration": 0.6521740000000023
                },
                {
                    "name": "D5",
                    "midi": 74,
                    "time": 164.34784799999997,
                    "velocity": 0.48031496062992124,
                    "duration": 0.6521740000000023
                },
                {
                    "name": "D5",
                    "midi": 74,
                    "time": 165.00002199999997,
                    "velocity": 0.4881889763779528,
                    "duration": 0.6521740000000023
                },
                {
                    "name": "A4",
                    "midi": 69,
                    "time": 165.00002199999997,
                    "velocity": 0.4881889763779528,
                    "duration": 0.6521740000000023
                },
                {
                    "name": "A5",
                    "midi": 81,
                    "time": 165.00002199999997,
                    "velocity": 0.5826771653543307,
                    "duration": 0.6521740000000023
                },
                {
                    "name": "D5",
                    "midi": 74,
                    "time": 165.65219599999998,
                    "velocity": 0.6299212598425197,
                    "duration": 0.6521740000000023
                },
                {
                    "name": "D6",
                    "midi": 86,
                    "time": 165.65219599999998,
                    "velocity": 0.7165354330708661,
                    "duration": 1.3043480000000045
                },
                {
                    "name": "D5",
                    "midi": 74,
                    "time": 166.30436999999998,
                    "velocity": 0.6456692913385826,
                    "duration": 0.6521740000000023
                },
                {
                    "name": "G5",
                    "midi": 79,
                    "time": 166.30436999999998,
                    "velocity": 0.6456692913385826,
                    "duration": 0.6521740000000023
                },
                {
                    "name": "E5",
                    "midi": 76,
                    "time": 166.95654399999998,
                    "velocity": 0.5748031496062992,
                    "duration": 0.6521740000000023
                },
                {
                    "name": "C#5",
                    "midi": 73,
                    "time": 166.95654399999998,
                    "velocity": 0.5748031496062992,
                    "duration": 0.6521740000000023
                },
                {
                    "name": "C#6",
                    "midi": 85,
                    "time": 166.95654399999998,
                    "velocity": 0.6850393700787402,
                    "duration": 0.6521740000000023
                },
                {
                    "name": "G5",
                    "midi": 79,
                    "time": 166.95654399999998,
                    "velocity": 0.5748031496062992,
                    "duration": 0.6521740000000023
                },
                {
                    "name": "C#6",
                    "midi": 85,
                    "time": 167.60871799999998,
                    "velocity": 0.6141732283464567,
                    "duration": 1.6304350000000056
                },
                {
                    "name": "G5",
                    "midi": 79,
                    "time": 167.60871799999998,
                    "velocity": 0.6141732283464567,
                    "duration": 1.6304350000000056
                },
                {
                    "name": "G6",
                    "midi": 91,
                    "time": 167.60871799999998,
                    "velocity": 0.7480314960629921,
                    "duration": 1.6304350000000056
                },
                {
                    "name": "E6",
                    "midi": 88,
                    "time": 167.60871799999998,
                    "velocity": 0.6299212598425197,
                    "duration": 1.6304350000000056
                },
                {
                    "name": "G4",
                    "midi": 67,
                    "time": 169.239153,
                    "velocity": 0.3937007874015748,
                    "duration": 0.3260870000000011
                },
                {
                    "name": "E4",
                    "midi": 64,
                    "time": 169.56524,
                    "velocity": 0.4251968503937008,
                    "duration": 0.3260870000000011
                },
                {
                    "name": "A#4",
                    "midi": 70,
                    "time": 169.891327,
                    "velocity": 0.3543307086614173,
                    "duration": 0.3260870000000011
                },
                {
                    "name": "G#4",
                    "midi": 68,
                    "time": 170.217414,
                    "velocity": 0.4094488188976378,
                    "duration": 0.3260870000000011
                },
                {
                    "name": "A4",
                    "midi": 69,
                    "time": 170.543501,
                    "velocity": 0.3543307086614173,
                    "duration": 0.3260870000000011
                },
                {
                    "name": "E4",
                    "midi": 64,
                    "time": 170.869588,
                    "velocity": 0.3937007874015748,
                    "duration": 0.3260870000000011
                },
                {
                    "name": "B4",
                    "midi": 71,
                    "time": 171.195675,
                    "velocity": 0.3543307086614173,
                    "duration": 0.3260870000000011
                },
                {
                    "name": "A4",
                    "midi": 69,
                    "time": 171.521762,
                    "velocity": 0.3858267716535433,
                    "duration": 0.3260870000000011
                },
                {
                    "name": "G4",
                    "midi": 67,
                    "time": 171.847849,
                    "velocity": 0.3543307086614173,
                    "duration": 0.3260870000000011
                },
                {
                    "name": "F#4",
                    "midi": 66,
                    "time": 172.173936,
                    "velocity": 0.3858267716535433,
                    "duration": 0.6521740000000023
                },
                {
                    "name": "D2",
                    "midi": 38,
                    "time": 173.478284,
                    "velocity": 0.4566929133858268,
                    "duration": 1.9565220000000068
                },
                {
                    "name": "D2",
                    "midi": 38,
                    "time": 175.434806,
                    "velocity": 0.4094488188976378,
                    "duration": 0.3260870000000011
                },
                {
                    "name": "A1",
                    "midi": 33,
                    "time": 175.760893,
                    "velocity": 0.36220472440944884,
                    "duration": 0.3260870000000011
                },
                {
                    "name": "A1",
                    "midi": 33,
                    "time": 176.08698,
                    "velocity": 0.4094488188976378,
                    "duration": 1.9510872166666786
                },
                {
                    "name": "A1",
                    "midi": 33,
                    "time": 178.04350200000002,
                    "velocity": 0.4094488188976378,
                    "duration": 1.2989132166666764
                },
                {
                    "name": "A1",
                    "midi": 33,
                    "time": 179.34785000000002,
                    "velocity": 0.4094488188976378,
                    "duration": 0.6521740000000023
                },
                {
                    "name": "F#1",
                    "midi": 30,
                    "time": 180.00002400000002,
                    "velocity": 0.4094488188976378,
                    "duration": 0.6521740000000023
                },
                {
                    "name": "D6",
                    "midi": 86,
                    "time": 181.30437200000003,
                    "velocity": 0.48031496062992124,
                    "duration": 1.9565220000000068
                },
                {
                    "name": "D5",
                    "midi": 74,
                    "time": 181.30437200000003,
                    "velocity": 0.41732283464566927,
                    "duration": 1.9565220000000068
                },
                {
                    "name": "D6",
                    "midi": 86,
                    "time": 183.26089400000004,
                    "velocity": 0.4330708661417323,
                    "duration": 0.3260870000000011
                },
                {
                    "name": "D5",
                    "midi": 74,
                    "time": 183.26089400000004,
                    "velocity": 0.3779527559055118,
                    "duration": 0.3260870000000011
                },
                {
                    "name": "A5",
                    "midi": 81,
                    "time": 183.58698100000004,
                    "velocity": 0.3779527559055118,
                    "duration": 0.32336960833333706
                },
                {
                    "name": "A4",
                    "midi": 69,
                    "time": 183.58698100000004,
                    "velocity": 0.33070866141732286,
                    "duration": 0.32336960833333706
                },
                {
                    "name": "A5",
                    "midi": 81,
                    "time": 183.91306800000004,
                    "velocity": 0.4330708661417323,
                    "duration": 1.9510872166666786
                },
                {
                    "name": "A4",
                    "midi": 69,
                    "time": 183.91306800000004,
                    "velocity": 0.3779527559055118,
                    "duration": 1.9510872166666786
                },
                {
                    "name": "A5",
                    "midi": 81,
                    "time": 185.86959000000004,
                    "velocity": 0.4330708661417323,
                    "duration": 1.2989132166666764
                },
                {
                    "name": "A4",
                    "midi": 69,
                    "time": 185.86959000000004,
                    "velocity": 0.3779527559055118,
                    "duration": 1.2989132166666764
                },
                {
                    "name": "A5",
                    "midi": 81,
                    "time": 187.17393800000005,
                    "velocity": 0.4330708661417323,
                    "duration": 0.6521740000000023
                },
                {
                    "name": "A4",
                    "midi": 69,
                    "time": 187.17393800000005,
                    "velocity": 0.3779527559055118,
                    "duration": 0.6521740000000023
                },
                {
                    "name": "F#5",
                    "midi": 78,
                    "time": 187.82611200000005,
                    "velocity": 0.41732283464566927,
                    "duration": 0.6521740000000023
                },
                {
                    "name": "F#4",
                    "midi": 66,
                    "time": 187.82611200000005,
                    "velocity": 0.3543307086614173,
                    "duration": 0.6521740000000023
                },
                {
                    "name": "D2",
                    "midi": 38,
                    "time": 189.13046000000006,
                    "velocity": 0.4566929133858268,
                    "duration": 1.2989132166666764
                },
                {
                    "name": "D2",
                    "midi": 38,
                    "time": 190.43480800000006,
                    "velocity": 0.4409448818897638,
                    "duration": 0.6467392166666741
                },
                {
                    "name": "D2",
                    "midi": 38,
                    "time": 191.08698200000006,
                    "velocity": 0.4409448818897638,
                    "duration": 0.2173913333333246
                },
                {
                    "name": "C#2",
                    "midi": 37,
                    "time": 191.3043733333334,
                    "velocity": 0.3937007874015748,
                    "duration": 0.2173913333333246
                },
                {
                    "name": "D2",
                    "midi": 38,
                    "time": 191.5217646666667,
                    "velocity": 0.3937007874015748,
                    "duration": 0.16304349999998635
                },
                {
                    "name": "A1",
                    "midi": 33,
                    "time": 191.73915600000004,
                    "velocity": 0.4094488188976378,
                    "duration": 1.2989132166666764
                },
                {
                    "name": "A1",
                    "midi": 33,
                    "time": 193.04350400000004,
                    "velocity": 0.4094488188976378,
                    "duration": 1.2989132166666764
                },
                {
                    "name": "A1",
                    "midi": 33,
                    "time": 194.34785200000005,
                    "velocity": 0.4094488188976378,
                    "duration": 1.3043480000000045
                },
                {
                    "name": "F#1",
                    "midi": 30,
                    "time": 195.65220000000005,
                    "velocity": 0.4094488188976378,
                    "duration": 0.6521740000000023
                },
                {
                    "name": "D6",
                    "midi": 86,
                    "time": 196.95654800000005,
                    "velocity": 0.5511811023622047,
                    "duration": 1.2989132166666764
                },
                {
                    "name": "D5",
                    "midi": 74,
                    "time": 196.95654800000005,
                    "velocity": 0.48031496062992124,
                    "duration": 1.2989132166666764
                },
                {
                    "name": "D5",
                    "midi": 74,
                    "time": 198.26089600000006,
                    "velocity": 0.48031496062992124,
                    "duration": 0.6467392166666741
                },
                {
                    "name": "D6",
                    "midi": 86,
                    "time": 198.26089600000006,
                    "velocity": 0.5511811023622047,
                    "duration": 0.6467392166666741
                },
                {
                    "name": "D6",
                    "midi": 86,
                    "time": 198.91307000000006,
                    "velocity": 0.5354330708661418,
                    "duration": 0.22010872499998868
                },
                {
                    "name": "D5",
                    "midi": 74,
                    "time": 198.91307000000006,
                    "velocity": 0.4645669291338583,
                    "duration": 0.22010872499998868
                },
                {
                    "name": "C#5",
                    "midi": 73,
                    "time": 199.1304613333334,
                    "velocity": 0.41732283464566927,
                    "duration": 0.2173913333333246
                },
                {
                    "name": "C#6",
                    "midi": 85,
                    "time": 199.1304613333334,
                    "velocity": 0.47244094488188976,
                    "duration": 0.2173913333333246
                },
                {
                    "name": "D5",
                    "midi": 74,
                    "time": 199.3478526666667,
                    "velocity": 0.41732283464566927,
                    "duration": 0.2173913333333246
                },
                {
                    "name": "D6",
                    "midi": 86,
                    "time": 199.3478526666667,
                    "velocity": 0.47244094488188976,
                    "duration": 0.16304349999998635
                },
                {
                    "name": "A5",
                    "midi": 81,
                    "time": 199.56524400000004,
                    "velocity": 0.5275590551181102,
                    "duration": 1.2989132166666764
                },
                {
                    "name": "A4",
                    "midi": 69,
                    "time": 199.56524400000004,
                    "velocity": 0.4645669291338583,
                    "duration": 1.3016306083333404
                },
                {
                    "name": "A4",
                    "midi": 69,
                    "time": 200.86959200000004,
                    "velocity": 0.4881889763779528,
                    "duration": 1.2989132166666764
                },
                {
                    "name": "A5",
                    "midi": 81,
                    "time": 200.86959200000004,
                    "velocity": 0.5511811023622047,
                    "duration": 1.2989132166666764
                },
                {
                    "name": "A4",
                    "midi": 69,
                    "time": 202.17394000000004,
                    "velocity": 0.48031496062992124,
                    "duration": 1.08695666666668
                },
                {
                    "name": "A5",
                    "midi": 81,
                    "time": 202.17394000000004,
                    "velocity": 0.5511811023622047,
                    "duration": 1.08695666666668
                },
                {
                    "name": "G4",
                    "midi": 67,
                    "time": 203.26089666666672,
                    "velocity": 0.3543307086614173,
                    "duration": 0.2173913333333246
                },
                {
                    "name": "G5",
                    "midi": 79,
                    "time": 203.26089666666672,
                    "velocity": 0.3937007874015748,
                    "duration": 0.2173913333333246
                },
                {
                    "name": "F#4",
                    "midi": 66,
                    "time": 203.47828800000005,
                    "velocity": 0.3937007874015748,
                    "duration": 0.6521740000000023
                },
                {
                    "name": "F#5",
                    "midi": 78,
                    "time": 203.47828800000005,
                    "velocity": 0.3937007874015748,
                    "duration": 0.6521740000000023
                },
                {
                    "name": "F#4",
                    "midi": 66,
                    "time": 204.13046200000005,
                    "velocity": 0.31496062992125984,
                    "duration": 0.2173913333333246
                },
                {
                    "name": "F#5",
                    "midi": 78,
                    "time": 204.13046200000005,
                    "velocity": 0.3937007874015748,
                    "duration": 1.3043479999999477
                },
                {
                    "name": "E5",
                    "midi": 76,
                    "time": 204.34785333333338,
                    "velocity": 0.31496062992125984,
                    "duration": 0.2173913333333246
                },
                {
                    "name": "D5",
                    "midi": 74,
                    "time": 204.5652446666667,
                    "velocity": 0.31496062992125984,
                    "duration": 0.2173913333333246
                },
                {
                    "name": "C#5",
                    "midi": 73,
                    "time": 204.78263600000002,
                    "velocity": 0.3937007874015748,
                    "duration": 0.2173913333333246
                },
                {
                    "name": "B4",
                    "midi": 71,
                    "time": 205.00002733333335,
                    "velocity": 0.3228346456692913,
                    "duration": 0.2173913333333246
                },
                {
                    "name": "A4",
                    "midi": 69,
                    "time": 205.21741866666667,
                    "velocity": 0.33858267716535434,
                    "duration": 0.2173913333333246
                },
                {
                    "name": "G4",
                    "midi": 67,
                    "time": 205.43481,
                    "velocity": 0.3937007874015748,
                    "duration": 0.2173913333333246
                },
                {
                    "name": "G5",
                    "midi": 79,
                    "time": 205.43481,
                    "velocity": 0.3937007874015748,
                    "duration": 1.9565219999999215
                },
                {
                    "name": "A#4",
                    "midi": 70,
                    "time": 205.65220133333332,
                    "velocity": 0.33070866141732286,
                    "duration": 0.2173913333333246
                },
                {
                    "name": "A4",
                    "midi": 69,
                    "time": 205.86959266666665,
                    "velocity": 0.33070866141732286,
                    "duration": 0.2173913333333246
                },
                {
                    "name": "G4",
                    "midi": 67,
                    "time": 206.08698399999997,
                    "velocity": 0.3937007874015748,
                    "duration": 0.2173913333333246
                },
                {
                    "name": "A4",
                    "midi": 69,
                    "time": 206.3043753333333,
                    "velocity": 0.31496062992125984,
                    "duration": 0.2173913333333246
                },
                {
                    "name": "B4",
                    "midi": 71,
                    "time": 206.52176666666662,
                    "velocity": 0.31496062992125984,
                    "duration": 0.2173913333333246
                },
                {
                    "name": "C#5",
                    "midi": 73,
                    "time": 206.73915799999995,
                    "velocity": 0.3937007874015748,
                    "duration": 0.2173913333333246
                },
                {
                    "name": "D5",
                    "midi": 74,
                    "time": 206.95654933333327,
                    "velocity": 0.3228346456692913,
                    "duration": 0.2173913333333246
                },
                {
                    "name": "E5",
                    "midi": 76,
                    "time": 207.1739406666666,
                    "velocity": 0.3228346456692913,
                    "duration": 0.2173913333333246
                },
                {
                    "name": "A4",
                    "midi": 69,
                    "time": 207.39133199999992,
                    "velocity": 0.3937007874015748,
                    "duration": 0.6521740000000023
                },
                {
                    "name": "A5",
                    "midi": 81,
                    "time": 207.39133199999992,
                    "velocity": 0.3937007874015748,
                    "duration": 0.6521740000000023
                },
                {
                    "name": "A4",
                    "midi": 69,
                    "time": 208.04350599999992,
                    "velocity": 0.33070866141732286,
                    "duration": 0.2173913333333246
                },
                {
                    "name": "A5",
                    "midi": 81,
                    "time": 208.04350599999992,
                    "velocity": 0.4094488188976378,
                    "duration": 1.3043479999999477
                },
                {
                    "name": "G5",
                    "midi": 79,
                    "time": 208.26089733333325,
                    "velocity": 0.33070866141732286,
                    "duration": 0.2173913333333246
                },
                {
                    "name": "F#5",
                    "midi": 78,
                    "time": 208.47828866666657,
                    "velocity": 0.33858267716535434,
                    "duration": 0.2173913333333246
                },
                {
                    "name": "E5",
                    "midi": 76,
                    "time": 208.6956799999999,
                    "velocity": 0.4330708661417323,
                    "duration": 0.2173913333333246
                },
                {
                    "name": "D5",
                    "midi": 74,
                    "time": 208.91307133333322,
                    "velocity": 0.3543307086614173,
                    "duration": 0.2173913333333246
                },
                {
                    "name": "C5",
                    "midi": 72,
                    "time": 209.13046266666655,
                    "velocity": 0.3779527559055118,
                    "duration": 0.2173913333333246
                },
                {
                    "name": "B4",
                    "midi": 71,
                    "time": 209.34785399999987,
                    "velocity": 0.44881889763779526,
                    "duration": 0.2173913333333246
                },
                {
                    "name": "B5",
                    "midi": 83,
                    "time": 209.34785399999987,
                    "velocity": 0.44881889763779526,
                    "duration": 1.9565219999999215
                },
                {
                    "name": "D5",
                    "midi": 74,
                    "time": 209.5652453333332,
                    "velocity": 0.3779527559055118,
                    "duration": 0.2173913333333246
                },
                {
                    "name": "C5",
                    "midi": 72,
                    "time": 209.78263666666652,
                    "velocity": 0.3858267716535433,
                    "duration": 0.2173913333333246
                },
                {
                    "name": "B4",
                    "midi": 71,
                    "time": 210.00002799999984,
                    "velocity": 0.47244094488188976,
                    "duration": 0.2173913333333246
                },
                {
                    "name": "C5",
                    "midi": 72,
                    "time": 210.21741933333317,
                    "velocity": 0.3779527559055118,
                    "duration": 0.2173913333333246
                },
                {
                    "name": "D5",
                    "midi": 74,
                    "time": 210.4348106666665,
                    "velocity": 0.3858267716535433,
                    "duration": 0.2173913333333246
                },
                {
                    "name": "E5",
                    "midi": 76,
                    "time": 210.65220199999982,
                    "velocity": 0.4881889763779528,
                    "duration": 0.2173913333333246
                },
                {
                    "name": "F#5",
                    "midi": 78,
                    "time": 210.86959333333314,
                    "velocity": 0.4015748031496063,
                    "duration": 0.2173913333333246
                },
                {
                    "name": "G5",
                    "midi": 79,
                    "time": 211.08698466666647,
                    "velocity": 0.4094488188976378,
                    "duration": 0.4347826666666492
                },
                {
                    "name": "C#6",
                    "midi": 85,
                    "time": 211.3043759999998,
                    "velocity": 0.5118110236220472,
                    "duration": 0.6521739999999738
                },
                {
                    "name": "G5",
                    "midi": 79,
                    "time": 211.52176733333312,
                    "velocity": 0.41732283464566927,
                    "duration": 0.2173913333333246
                },
                {
                    "name": "F#5",
                    "midi": 78,
                    "time": 211.73915866666644,
                    "velocity": 0.4251968503937008,
                    "duration": 0.2173913333333246
                },
                {
                    "name": "E5",
                    "midi": 76,
                    "time": 211.95654999999977,
                    "velocity": 0.4251968503937008,
                    "duration": 0.2173913333333246
                },
                {
                    "name": "D5",
                    "midi": 74,
                    "time": 212.1739413333331,
                    "velocity": 0.4251968503937008,
                    "duration": 0.2173913333333246
                },
                {
                    "name": "C#5",
                    "midi": 73,
                    "time": 212.39133266666641,
                    "velocity": 0.4330708661417323,
                    "duration": 0.2173913333333246
                },
                {
                    "name": "D6",
                    "midi": 86,
                    "time": 212.60872399999974,
                    "velocity": 0.5511811023622047,
                    "duration": 0.6521739999999738
                },
                {
                    "name": "D5",
                    "midi": 74,
                    "time": 212.60872399999974,
                    "velocity": 0.5511811023622047,
                    "duration": 0.2173913333333246
                },
                {
                    "name": "E5",
                    "midi": 76,
                    "time": 212.82611533333306,
                    "velocity": 0.44881889763779526,
                    "duration": 0.2173913333333246
                },
                {
                    "name": "F#5",
                    "midi": 78,
                    "time": 213.0435066666664,
                    "velocity": 0.48031496062992124,
                    "duration": 0.2173913333333246
                },
                {
                    "name": "E5",
                    "midi": 76,
                    "time": 213.2608979999997,
                    "velocity": 0.5669291338582677,
                    "duration": 0.2173913333333246
                },
                {
                    "name": "E6",
                    "midi": 88,
                    "time": 213.2608979999997,
                    "velocity": 0.6062992125984252,
                    "duration": 1.3043479999999477
                },
                {
                    "name": "A#5",
                    "midi": 82,
                    "time": 213.47828933333304,
                    "velocity": 0.48031496062992124,
                    "duration": 0.2173913333333246
                },
                {
                    "name": "A5",
                    "midi": 81,
                    "time": 213.69568066666636,
                    "velocity": 0.4881889763779528,
                    "duration": 0.2173913333333246
                },
                {
                    "name": "G5",
                    "midi": 79,
                    "time": 213.9130719999997,
                    "velocity": 0.5905511811023622,
                    "duration": 0.2173913333333246
                },
                {
                    "name": "F#5",
                    "midi": 78,
                    "time": 214.130463333333,
                    "velocity": 0.47244094488188976,
                    "duration": 0.2173913333333246
                },
                {
                    "name": "E5",
                    "midi": 76,
                    "time": 214.34785466666634,
                    "velocity": 0.48031496062992124,
                    "duration": 0.2173913333333246
                },
                {
                    "name": "F#5",
                    "midi": 78,
                    "time": 214.56524599999966,
                    "velocity": 0.6062992125984252,
                    "duration": 0.2173913333333246
                },
                {
                    "name": "F#6",
                    "midi": 90,
                    "time": 214.56524599999966,
                    "velocity": 0.6535433070866141,
                    "duration": 0.6521739999999738
                },
                {
                    "name": "G5",
                    "midi": 79,
                    "time": 214.78263733333299,
                    "velocity": 0.49606299212598426,
                    "duration": 0.2173913333333246
                },
                {
                    "name": "A5",
                    "midi": 81,
                    "time": 215.0000286666663,
                    "velocity": 0.5039370078740157,
                    "duration": 0.2173913333333246
                },
                {
                    "name": "G6",
                    "midi": 91,
                    "time": 215.21741999999963,
                    "velocity": 0.6929133858267716,
                    "duration": 0.6521739999999738
                },
                {
                    "name": "G5",
                    "midi": 79,
                    "time": 215.21741999999963,
                    "velocity": 0.5669291338582677,
                    "duration": 0.2173913333333246
                },
                {
                    "name": "F#5",
                    "midi": 78,
                    "time": 215.43481133333296,
                    "velocity": 0.48031496062992124,
                    "duration": 0.2173913333333246
                },
                {
                    "name": "E5",
                    "midi": 76,
                    "time": 215.65220266666628,
                    "velocity": 0.4881889763779528,
                    "duration": 0.2173913333333246
                },
                {
                    "name": "A5",
                    "midi": 81,
                    "time": 215.8695939999996,
                    "velocity": 0.5826771653543307,
                    "duration": 0.6521739999999738
                },
                {
                    "name": "D#5",
                    "midi": 75,
                    "time": 215.8695939999996,
                    "velocity": 0.49606299212598426,
                    "duration": 0.2173913333333246
                },
                {
                    "name": "D5",
                    "midi": 74,
                    "time": 216.08698533333293,
                    "velocity": 0.4015748031496063,
                    "duration": 0.2173913333333246
                },
                {
                    "name": "D#5",
                    "midi": 75,
                    "time": 216.30437666666626,
                    "velocity": 0.4015748031496063,
                    "duration": 0.2173913333333246
                },
                {
                    "name": "B5",
                    "midi": 83,
                    "time": 216.52176799999958,
                    "velocity": 0.5511811023622047,
                    "duration": 0.6521739999999738
                },
                {
                    "name": "D5",
                    "midi": 74,
                    "time": 216.52176799999958,
                    "velocity": 0.5118110236220472,
                    "duration": 0.2173913333333246
                },
                {
                    "name": "C5",
                    "midi": 72,
                    "time": 216.7391593333329,
                    "velocity": 0.41732283464566927,
                    "duration": 0.2173913333333246
                },
                {
                    "name": "B4",
                    "midi": 71,
                    "time": 216.95655066666623,
                    "velocity": 0.4251968503937008,
                    "duration": 0.2173913333333246
                },
                {
                    "name": "D5",
                    "midi": 74,
                    "time": 217.17394199999956,
                    "velocity": 0.41732283464566927,
                    "duration": 0.2173913333333246
                },
                {
                    "name": "F5",
                    "midi": 77,
                    "time": 217.17394199999956,
                    "velocity": 0.5511811023622047,
                    "duration": 1.3043479999999477
                },
                {
                    "name": "C#5",
                    "midi": 73,
                    "time": 217.39133333333288,
                    "velocity": 0.3779527559055118,
                    "duration": 0.2173913333333246
                },
                {
                    "name": "B4",
                    "midi": 71,
                    "time": 217.6087246666662,
                    "velocity": 0.3700787401574803,
                    "duration": 0.2173913333333246
                },
                {
                    "name": "G#4",
                    "midi": 68,
                    "time": 217.82611599999953,
                    "velocity": 0.4094488188976378,
                    "duration": 0.2173913333333246
                },
                {
                    "name": "A4",
                    "midi": 69,
                    "time": 218.04350733333285,
                    "velocity": 0.36220472440944884,
                    "duration": 0.2173913333333246
                },
                {
                    "name": "B4",
                    "midi": 71,
                    "time": 218.26089866666618,
                    "velocity": 0.3543307086614173,
                    "duration": 0.2173913333333246
                },
                {
                    "name": "C#5",
                    "midi": 73,
                    "time": 218.4782899999995,
                    "velocity": 0.3700787401574803,
                    "duration": 0.2173913333333246
                },
                {
                    "name": "E5",
                    "midi": 76,
                    "time": 218.4782899999995,
                    "velocity": 0.4566929133858268,
                    "duration": 0.6521739999999738
                },
                {
                    "name": "A#4",
                    "midi": 70,
                    "time": 218.69568133333283,
                    "velocity": 0.3464566929133858,
                    "duration": 0.2173913333333246
                },
                {
                    "name": "A4",
                    "midi": 69,
                    "time": 218.91307266666615,
                    "velocity": 0.33858267716535434,
                    "duration": 0.2173913333333246
                },
                {
                    "name": "D#5",
                    "midi": 75,
                    "time": 219.13046399999948,
                    "velocity": 0.4015748031496063,
                    "duration": 1.9565220000000068
                },
                {
                    "name": "A5",
                    "midi": 81,
                    "time": 219.13046399999948,
                    "velocity": 0.48031496062992124,
                    "duration": 1.9565220000000068
                },
                {
                    "name": "B5",
                    "midi": 83,
                    "time": 221.08698599999948,
                    "velocity": 0.4094488188976378,
                    "duration": 1.2989132166666764
                },
                {
                    "name": "F#5",
                    "midi": 78,
                    "time": 221.08698599999948,
                    "velocity": 0.3464566929133858,
                    "duration": 1.2989132166666764
                },
                {
                    "name": "B4",
                    "midi": 71,
                    "time": 221.08698599999948,
                    "velocity": 0.3464566929133858,
                    "duration": 1.2989132166666764
                },
                {
                    "name": "F#5",
                    "midi": 78,
                    "time": 222.3913339999995,
                    "velocity": 0.4015748031496063,
                    "duration": 0.6521740000000023
                },
                {
                    "name": "D#5",
                    "midi": 75,
                    "time": 222.3913339999995,
                    "velocity": 0.33858267716535434,
                    "duration": 0.6521740000000023
                },
                {
                    "name": "B4",
                    "midi": 71,
                    "time": 222.3913339999995,
                    "velocity": 0.33858267716535434,
                    "duration": 0.6521740000000023
                },
                {
                    "name": "A5",
                    "midi": 81,
                    "time": 223.0435079999995,
                    "velocity": 0.48031496062992124,
                    "duration": 0.3260870000000011
                },
                {
                    "name": "F#5",
                    "midi": 78,
                    "time": 223.3695949999995,
                    "velocity": 0.44881889763779526,
                    "duration": 0.3260870000000011
                },
                {
                    "name": "G6",
                    "midi": 91,
                    "time": 223.6956819999995,
                    "velocity": 0.5196850393700787,
                    "duration": 0.3260870000000011
                },
                {
                    "name": "G5",
                    "midi": 79,
                    "time": 223.6956819999995,
                    "velocity": 0.5196850393700787,
                    "duration": 0.3260870000000011
                },
                {
                    "name": "B4",
                    "midi": 71,
                    "time": 224.0217689999995,
                    "velocity": 0.4881889763779528,
                    "duration": 0.3260870000000011
                },
                {
                    "name": "B5",
                    "midi": 83,
                    "time": 224.0217689999995,
                    "velocity": 0.4881889763779528,
                    "duration": 0.3260870000000011
                },
                {
                    "name": "F#6",
                    "midi": 90,
                    "time": 224.3478559999995,
                    "velocity": 0.5433070866141733,
                    "duration": 0.3260870000000011
                },
                {
                    "name": "F#5",
                    "midi": 78,
                    "time": 224.3478559999995,
                    "velocity": 0.5433070866141733,
                    "duration": 0.3260870000000011
                },
                {
                    "name": "E6",
                    "midi": 88,
                    "time": 224.6739429999995,
                    "velocity": 0.4881889763779528,
                    "duration": 0.3260870000000011
                },
                {
                    "name": "E5",
                    "midi": 76,
                    "time": 224.6739429999995,
                    "velocity": 0.4881889763779528,
                    "duration": 0.3260870000000011
                },
                {
                    "name": "D6",
                    "midi": 86,
                    "time": 225.0000299999995,
                    "velocity": 0.4094488188976378,
                    "duration": 1.3043480000000045
                },
                {
                    "name": "D5",
                    "midi": 74,
                    "time": 225.0000299999995,
                    "velocity": 0.4881889763779528,
                    "duration": 0.3260870000000011
                },
                {
                    "name": "F5",
                    "midi": 77,
                    "time": 225.3261169999995,
                    "velocity": 0.5118110236220472,
                    "duration": 0.3260870000000011
                },
                {
                    "name": "G5",
                    "midi": 79,
                    "time": 225.6522039999995,
                    "velocity": 0.5433070866141733,
                    "duration": 0.3260870000000011
                },
                {
                    "name": "F#5",
                    "midi": 78,
                    "time": 225.9782909999995,
                    "velocity": 0.5039370078740157,
                    "duration": 0.3260870000000011
                },
                {
                    "name": "C#5",
                    "midi": 73,
                    "time": 226.3043779999995,
                    "velocity": 0.4251968503937008,
                    "duration": 0.3260870000000011
                },
                {
                    "name": "A5",
                    "midi": 81,
                    "time": 226.3043779999995,
                    "velocity": 0.4251968503937008,
                    "duration": 0.3260870000000011
                },
                {
                    "name": "C#6",
                    "midi": 85,
                    "time": 226.3043779999995,
                    "velocity": 0.5039370078740157,
                    "duration": 0.3260870000000011
                },
                {
                    "name": "E5",
                    "midi": 76,
                    "time": 226.3043779999995,
                    "velocity": 0.4251968503937008,
                    "duration": 0.3260870000000011
                },
                {
                    "name": "C5",
                    "midi": 72,
                    "time": 226.6304649999995,
                    "velocity": 0.4566929133858268,
                    "duration": 0.3260870000000011
                },
                {
                    "name": "A5",
                    "midi": 81,
                    "time": 226.6304649999995,
                    "velocity": 0.4566929133858268,
                    "duration": 0.3260870000000011
                },
                {
                    "name": "C6",
                    "midi": 84,
                    "time": 226.6304649999995,
                    "velocity": 0.5433070866141733,
                    "duration": 0.3260870000000011
                },
                {
                    "name": "D#5",
                    "midi": 75,
                    "time": 226.6304649999995,
                    "velocity": 0.4566929133858268,
                    "duration": 0.3260870000000011
                },
                {
                    "name": "C6",
                    "midi": 84,
                    "time": 226.9565519999995,
                    "velocity": 0.5669291338582677,
                    "duration": 0.6521739999999454
                },
                {
                    "name": "A5",
                    "midi": 81,
                    "time": 226.9565519999995,
                    "velocity": 0.48031496062992124,
                    "duration": 0.16304349999998635
                },
                {
                    "name": "F#5",
                    "midi": 78,
                    "time": 227.1195954999995,
                    "velocity": 0.5590551181102362,
                    "duration": 0.16304349999998635
                },
                {
                    "name": "D#5",
                    "midi": 75,
                    "time": 227.28263899999948,
                    "velocity": 0.5433070866141733,
                    "duration": 0.16304349999998635
                },
                {
                    "name": "C5",
                    "midi": 72,
                    "time": 227.44568249999946,
                    "velocity": 0.5354330708661418,
                    "duration": 0.16304349999998635
                },
                {
                    "name": "C5",
                    "midi": 72,
                    "time": 227.60872599999945,
                    "velocity": 0.5196850393700787,
                    "duration": 0.9782609999999181
                },
                {
                    "name": "A4",
                    "midi": 69,
                    "time": 227.60872599999945,
                    "velocity": 0.4409448818897638,
                    "duration": 0.16304349999998635
                },
                {
                    "name": "F#4",
                    "midi": 66,
                    "time": 227.77176949999944,
                    "velocity": 0.48031496062992124,
                    "duration": 0.16304349999998635
                },
                {
                    "name": "D#4",
                    "midi": 63,
                    "time": 227.93481299999942,
                    "velocity": 0.4645669291338583,
                    "duration": 0.16304349999998635
                },
                {
                    "name": "C4",
                    "midi": 60,
                    "time": 228.0978564999994,
                    "velocity": 0.4566929133858268,
                    "duration": 0.16304349999998635
                },
                {
                    "name": "A4",
                    "midi": 69,
                    "time": 228.2608999999994,
                    "velocity": 0.47244094488188976,
                    "duration": 0.16304349999998635
                },
                {
                    "name": "D#4",
                    "midi": 63,
                    "time": 228.42394349999938,
                    "velocity": 0.3779527559055118,
                    "duration": 0.16304349999998635
                },
                {
                    "name": "B4",
                    "midi": 71,
                    "time": 228.58698699999937,
                    "velocity": 0.3779527559055118,
                    "duration": 0.3260869999999727
                },
                {
                    "name": "B3",
                    "midi": 59,
                    "time": 228.58698699999937,
                    "velocity": 0.31496062992125984,
                    "duration": 0.16304349999998635
                },
                {
                    "name": "D4",
                    "midi": 62,
                    "time": 228.58698699999937,
                    "velocity": 0.3779527559055118,
                    "duration": 0.16304349999998635
                },
                {
                    "name": "G4",
                    "midi": 67,
                    "time": 228.75003049999935,
                    "velocity": 0.3779527559055118,
                    "duration": 0.16304349999998635
                },
                {
                    "name": "A#3",
                    "midi": 58,
                    "time": 228.91307399999934,
                    "velocity": 0.2755905511811024,
                    "duration": 1.3043480000000045
                },
                {
                    "name": "A#4",
                    "midi": 70,
                    "time": 228.91307399999934,
                    "velocity": 0.3228346456692913,
                    "duration": 1.3043480000000045
                },
                {
                    "name": "G4",
                    "midi": 67,
                    "time": 228.91307399999934,
                    "velocity": 0.2755905511811024,
                    "duration": 1.3043480000000045
                },
                {
                    "name": "D4",
                    "midi": 62,
                    "time": 228.91307399999934,
                    "velocity": 0.2755905511811024,
                    "duration": 1.3043480000000045
                },
                {
                    "name": "A4",
                    "midi": 69,
                    "time": 230.86959599999935,
                    "velocity": 0.48031496062992124,
                    "duration": 0.6521739999999738
                },
                {
                    "name": "F#4",
                    "midi": 66,
                    "time": 230.86959599999935,
                    "velocity": 0.4015748031496063,
                    "duration": 0.2173913333333246
                },
                {
                    "name": "D4",
                    "midi": 62,
                    "time": 231.08698733333267,
                    "velocity": 0.4330708661417323,
                    "duration": 0.2173913333333246
                },
                {
                    "name": "A3",
                    "midi": 57,
                    "time": 231.304378666666,
                    "velocity": 0.4330708661417323,
                    "duration": 0.2173913333333246
                },
                {
                    "name": "A4",
                    "midi": 69,
                    "time": 231.52176999999932,
                    "velocity": 0.48031496062992124,
                    "duration": 0.9782609999999181
                },
                {
                    "name": "F#4",
                    "midi": 66,
                    "time": 231.52176999999932,
                    "velocity": 0.4015748031496063,
                    "duration": 0.16304349999998635
                },
                {
                    "name": "D4",
                    "midi": 62,
                    "time": 231.6848134999993,
                    "velocity": 0.4251968503937008,
                    "duration": 0.16304349999998635
                },
                {
                    "name": "A3",
                    "midi": 57,
                    "time": 231.8478569999993,
                    "velocity": 0.4330708661417323,
                    "duration": 0.16304349999998635
                },
                {
                    "name": "F#4",
                    "midi": 66,
                    "time": 232.01090049999928,
                    "velocity": 0.4330708661417323,
                    "duration": 0.16304349999998635
                },
                {
                    "name": "F#4",
                    "midi": 66,
                    "time": 232.17394399999927,
                    "velocity": 0.49606299212598426,
                    "duration": 0.16304349999998635
                },
                {
                    "name": "D4",
                    "midi": 62,
                    "time": 232.33698749999925,
                    "velocity": 0.4251968503937008,
                    "duration": 0.16304349999998635
                },
                {
                    "name": "G#4",
                    "midi": 68,
                    "time": 232.50003099999924,
                    "velocity": 0.4645669291338583,
                    "duration": 0.3260869999999727
                },
                {
                    "name": "F4",
                    "midi": 65,
                    "time": 232.50003099999924,
                    "velocity": 0.3937007874015748,
                    "duration": 0.16304349999998635
                },
                {
                    "name": "D4",
                    "midi": 62,
                    "time": 232.66307449999923,
                    "velocity": 0.3937007874015748,
                    "duration": 0.16304349999998635
                },
                {
                    "name": "E4",
                    "midi": 64,
                    "time": 232.8261179999992,
                    "velocity": 0.3779527559055118,
                    "duration": 0.6467392166666741
                },
                {
                    "name": "A#3",
                    "midi": 58,
                    "time": 232.8261179999992,
                    "velocity": 0.3779527559055118,
                    "duration": 0.6467392166666741
                },
                {
                    "name": "G3",
                    "midi": 55,
                    "time": 232.8261179999992,
                    "velocity": 0.3779527559055118,
                    "duration": 0.6467392166666741
                },
                {
                    "name": "G4",
                    "midi": 67,
                    "time": 232.8261179999992,
                    "velocity": 0.44881889763779526,
                    "duration": 0.6467392166666741
                },
                {
                    "name": "D#4",
                    "midi": 63,
                    "time": 236.73916199999923,
                    "velocity": 0.2992125984251969,
                    "duration": 1.2907610416666557
                },
                {
                    "name": "F#4",
                    "midi": 66,
                    "time": 236.73916199999923,
                    "velocity": 0.3543307086614173,
                    "duration": 1.2907610416666557
                },
                {
                    "name": "D#4",
                    "midi": 63,
                    "time": 238.0435099999992,
                    "velocity": 0.28346456692913385,
                    "duration": 0.6467392166666741
                },
                {
                    "name": "F#4",
                    "midi": 66,
                    "time": 238.0435099999992,
                    "velocity": 0.28346456692913385,
                    "duration": 0.6467392166666741
                },
                {
                    "name": "B4",
                    "midi": 71,
                    "time": 238.0435099999992,
                    "velocity": 0.33070866141732286,
                    "duration": 0.6467392166666741
                },
                {
                    "name": "B3",
                    "midi": 59,
                    "time": 238.6956839999992,
                    "velocity": 0.2992125984251969,
                    "duration": 1.2907610416666557
                },
                {
                    "name": "D#4",
                    "midi": 63,
                    "time": 238.6956839999992,
                    "velocity": 0.2992125984251969,
                    "duration": 1.2907610416666557
                },
                {
                    "name": "B4",
                    "midi": 71,
                    "time": 238.6956839999992,
                    "velocity": 0.3543307086614173,
                    "duration": 1.2907610416666557
                },
                {
                    "name": "F#4",
                    "midi": 66,
                    "time": 238.6956839999992,
                    "velocity": 0.2992125984251969,
                    "duration": 1.2907610416666557
                },
                {
                    "name": "D#4",
                    "midi": 63,
                    "time": 240.00003199999918,
                    "velocity": 0.28346456692913385,
                    "duration": 0.6467392166666741
                },
                {
                    "name": "B3",
                    "midi": 59,
                    "time": 240.00003199999918,
                    "velocity": 0.28346456692913385,
                    "duration": 0.6467392166666741
                },
                {
                    "name": "B4",
                    "midi": 71,
                    "time": 240.00003199999918,
                    "velocity": 0.3464566929133858,
                    "duration": 0.6467392166666741
                },
                {
                    "name": "F#4",
                    "midi": 66,
                    "time": 240.00003199999918,
                    "velocity": 0.28346456692913385,
                    "duration": 0.6467392166666741
                },
                {
                    "name": "E4",
                    "midi": 64,
                    "time": 240.65220599999918,
                    "velocity": 0.2992125984251969,
                    "duration": 0.6467392166666741
                },
                {
                    "name": "B3",
                    "midi": 59,
                    "time": 240.65220599999918,
                    "velocity": 0.2992125984251969,
                    "duration": 0.6467392166666741
                },
                {
                    "name": "B4",
                    "midi": 71,
                    "time": 240.65220599999918,
                    "velocity": 0.3543307086614173,
                    "duration": 0.6467392166666741
                },
                {
                    "name": "A3",
                    "midi": 57,
                    "time": 241.30437999999918,
                    "velocity": 0.2755905511811024,
                    "duration": 1.2907610416666557
                },
                {
                    "name": "E4",
                    "midi": 64,
                    "time": 241.30437999999918,
                    "velocity": 0.2755905511811024,
                    "duration": 1.2907610416666557
                },
                {
                    "name": "C#4",
                    "midi": 61,
                    "time": 241.30437999999918,
                    "velocity": 0.2755905511811024,
                    "duration": 1.2907610416666557
                },
                {
                    "name": "A4",
                    "midi": 69,
                    "time": 241.30437999999918,
                    "velocity": 0.3228346456692913,
                    "duration": 1.2907610416666557
                },
                {
                    "name": "A3",
                    "midi": 57,
                    "time": 242.60872799999916,
                    "velocity": 0.2755905511811024,
                    "duration": 1.3043480000000045
                },
                {
                    "name": "F#4",
                    "midi": 66,
                    "time": 242.60872799999916,
                    "velocity": 0.2755905511811024,
                    "duration": 1.3043480000000045
                },
                {
                    "name": "D4",
                    "midi": 62,
                    "time": 242.60872799999916,
                    "velocity": 0.2755905511811024,
                    "duration": 1.3043480000000045
                },
                {
                    "name": "A4",
                    "midi": 69,
                    "time": 242.60872799999916,
                    "velocity": 0.3228346456692913,
                    "duration": 1.3043480000000045
                },
                {
                    "name": "F#4",
                    "midi": 66,
                    "time": 243.91307599999917,
                    "velocity": 0.25984251968503935,
                    "duration": 0.6521740000000023
                },
                {
                    "name": "A3",
                    "midi": 57,
                    "time": 244.56524999999917,
                    "velocity": 0.33070866141732286,
                    "duration": 1.3043480000000045
                },
                {
                    "name": "A4",
                    "midi": 69,
                    "time": 245.86959799999917,
                    "velocity": 0.28346456692913385,
                    "duration": 0.6521740000000023
                },
                {
                    "name": "F#4",
                    "midi": 66,
                    "time": 246.52177199999917,
                    "velocity": 0.31496062992125984,
                    "duration": 1.3043480000000045
                },
                {
                    "name": "F#6",
                    "midi": 90,
                    "time": 247.82611999999918,
                    "velocity": 0.4645669291338583,
                    "duration": 0.6521740000000023
                },
                {
                    "name": "F#5",
                    "midi": 78,
                    "time": 247.82611999999918,
                    "velocity": 0.3858267716535433,
                    "duration": 0.6521740000000023
                },
                {
                    "name": "A5",
                    "midi": 81,
                    "time": 247.82611999999918,
                    "velocity": 0.3858267716535433,
                    "duration": 0.6521740000000023
                },
                {
                    "name": "G5",
                    "midi": 79,
                    "time": 248.47829399999918,
                    "velocity": 0.41732283464566927,
                    "duration": 1.3043480000000045
                },
                {
                    "name": "E5",
                    "midi": 76,
                    "time": 248.47829399999918,
                    "velocity": 0.41732283464566927,
                    "duration": 1.3043480000000045
                },
                {
                    "name": "E6",
                    "midi": 88,
                    "time": 248.47829399999918,
                    "velocity": 0.49606299212598426,
                    "duration": 1.3043480000000045
                },
                {
                    "name": "A5",
                    "midi": 81,
                    "time": 249.78264199999919,
                    "velocity": 0.4015748031496063,
                    "duration": 0.6467392166666741
                },
                {
                    "name": "E5",
                    "midi": 76,
                    "time": 249.78264199999919,
                    "velocity": 0.33858267716535434,
                    "duration": 0.6467392166666741
                },
                {
                    "name": "A4",
                    "midi": 69,
                    "time": 249.78264199999919,
                    "velocity": 0.33858267716535434,
                    "duration": 0.6467392166666741
                },
                {
                    "name": "G5",
                    "midi": 79,
                    "time": 249.78264199999919,
                    "velocity": 0.33858267716535434,
                    "duration": 0.6467392166666741
                },
                {
                    "name": "A4",
                    "midi": 69,
                    "time": 250.4348159999992,
                    "velocity": 0.3543307086614173,
                    "duration": 1.3043480000000045
                },
                {
                    "name": "A5",
                    "midi": 81,
                    "time": 250.4348159999992,
                    "velocity": 0.4251968503937008,
                    "duration": 1.3043480000000045
                },
                {
                    "name": "F#5",
                    "midi": 78,
                    "time": 250.4348159999992,
                    "velocity": 0.3543307086614173,
                    "duration": 1.3043480000000045
                },
                {
                    "name": "F#5",
                    "midi": 78,
                    "time": 251.7391639999992,
                    "velocity": 0.33858267716535434,
                    "duration": 0.6521740000000023
                },
                {
                    "name": "A4",
                    "midi": 69,
                    "time": 252.3913379999992,
                    "velocity": 0.3937007874015748,
                    "duration": 1.3043480000000045
                },
                {
                    "name": "A4",
                    "midi": 69,
                    "time": 253.6956859999992,
                    "velocity": 0.30708661417322836,
                    "duration": 0.6521740000000023
                },
                {
                    "name": "A5",
                    "midi": 81,
                    "time": 253.6956859999992,
                    "velocity": 0.3700787401574803,
                    "duration": 0.6521740000000023
                },
                {
                    "name": "F#5",
                    "midi": 78,
                    "time": 254.3478599999992,
                    "velocity": 0.4251968503937008,
                    "duration": 1.3043480000000045
                },
                {
                    "name": "F#4",
                    "midi": 66,
                    "time": 254.3478599999992,
                    "velocity": 0.3543307086614173,
                    "duration": 1.3043480000000045
                },
                {
                    "name": "A4",
                    "midi": 69,
                    "time": 255.6522079999992,
                    "velocity": 0.31496062992125984,
                    "duration": 0.6521739999999738
                },
                {
                    "name": "A5",
                    "midi": 81,
                    "time": 255.6522079999992,
                    "velocity": 0.3779527559055118,
                    "duration": 0.6521739999999738
                },
                {
                    "name": "G5",
                    "midi": 79,
                    "time": 256.3043819999992,
                    "velocity": 0.4409448818897638,
                    "duration": 1.3043480000000045
                },
                {
                    "name": "B5",
                    "midi": 83,
                    "time": 256.3043819999992,
                    "velocity": 0.4409448818897638,
                    "duration": 1.3043480000000045
                },
                {
                    "name": "B4",
                    "midi": 71,
                    "time": 256.3043819999992,
                    "velocity": 0.3700787401574803,
                    "duration": 1.3043480000000045
                },
                {
                    "name": "C#6",
                    "midi": 85,
                    "time": 257.6087299999992,
                    "velocity": 0.4251968503937008,
                    "duration": 0.6521740000000023
                },
                {
                    "name": "E5",
                    "midi": 76,
                    "time": 257.6087299999992,
                    "velocity": 0.3543307086614173,
                    "duration": 0.6521740000000023
                },
                {
                    "name": "G5",
                    "midi": 79,
                    "time": 257.6087299999992,
                    "velocity": 0.3543307086614173,
                    "duration": 0.6521740000000023
                },
                {
                    "name": "C#5",
                    "midi": 73,
                    "time": 257.6087299999992,
                    "velocity": 0.3543307086614173,
                    "duration": 0.6521740000000023
                },
                {
                    "name": "F#5",
                    "midi": 78,
                    "time": 258.2609039999992,
                    "velocity": 0.3937007874015748,
                    "duration": 1.9565220000000068
                },
                {
                    "name": "D5",
                    "midi": 74,
                    "time": 258.2609039999992,
                    "velocity": 0.3937007874015748,
                    "duration": 1.9565220000000068
                },
                {
                    "name": "D6",
                    "midi": 86,
                    "time": 258.2609039999992,
                    "velocity": 0.47244094488188976,
                    "duration": 1.9565220000000068
                },
                {
                    "name": "E6",
                    "midi": 88,
                    "time": 260.2174259999992,
                    "velocity": 0.5354330708661418,
                    "duration": 1.9375002583333298
                },
                {
                    "name": "C#6",
                    "midi": 85,
                    "time": 260.2174259999992,
                    "velocity": 0.4409448818897638,
                    "duration": 1.9375002583333298
                },
                {
                    "name": "E5",
                    "midi": 76,
                    "time": 260.2174259999992,
                    "velocity": 0.4409448818897638,
                    "duration": 1.9375002583333298
                },
                {
                    "name": "E5",
                    "midi": 76,
                    "time": 262.1739479999992,
                    "velocity": 0.4881889763779528,
                    "duration": 1.3043480000000045
                },
                {
                    "name": "E6",
                    "midi": 88,
                    "time": 262.1739479999992,
                    "velocity": 0.5748031496062992,
                    "duration": 1.3043480000000045
                },
                {
                    "name": "C#6",
                    "midi": 85,
                    "time": 262.1739479999992,
                    "velocity": 0.4881889763779528,
                    "duration": 1.3043480000000045
                },
                {
                    "name": "D#6",
                    "midi": 87,
                    "time": 263.4782959999992,
                    "velocity": 0.5511811023622047,
                    "duration": 0.6521740000000023
                },
                {
                    "name": "F#6",
                    "midi": 90,
                    "time": 263.4782959999992,
                    "velocity": 0.5511811023622047,
                    "duration": 0.6521740000000023
                },
                {
                    "name": "F#5",
                    "midi": 78,
                    "time": 263.4782959999992,
                    "velocity": 0.4645669291338583,
                    "duration": 0.6521740000000023
                },
                {
                    "name": "G6",
                    "midi": 91,
                    "time": 264.1304699999992,
                    "velocity": 0.5905511811023622,
                    "duration": 0.6467392166666741
                },
                {
                    "name": "G5",
                    "midi": 79,
                    "time": 264.1304699999992,
                    "velocity": 0.49606299212598426,
                    "duration": 0.6467392166666741
                },
                {
                    "name": "E6",
                    "midi": 88,
                    "time": 264.1304699999992,
                    "velocity": 0.5905511811023622,
                    "duration": 0.6467392166666741
                },
                {
                    "name": "E6",
                    "midi": 88,
                    "time": 264.7826439999992,
                    "velocity": 0.6299212598425197,
                    "duration": 0.6467392166666741
                },
                {
                    "name": "A6",
                    "midi": 93,
                    "time": 264.7826439999992,
                    "velocity": 0.6299212598425197,
                    "duration": 0.6467392166666741
                },
                {
                    "name": "A5",
                    "midi": 81,
                    "time": 264.7826439999992,
                    "velocity": 0.5354330708661418,
                    "duration": 0.6467392166666741
                },
                {
                    "name": "E6",
                    "midi": 88,
                    "time": 265.4348179999992,
                    "velocity": 0.5669291338582677,
                    "duration": 0.6467392166666741
                },
                {
                    "name": "A6",
                    "midi": 93,
                    "time": 265.4348179999992,
                    "velocity": 0.6692913385826772,
                    "duration": 0.6467392166666741
                },
                {
                    "name": "G6",
                    "midi": 91,
                    "time": 265.4348179999992,
                    "velocity": 0.6692913385826772,
                    "duration": 0.6467392166666741
                },
                {
                    "name": "A5",
                    "midi": 81,
                    "time": 265.4348179999992,
                    "velocity": 0.5669291338582677,
                    "duration": 0.6467392166666741
                },
                {
                    "name": "A6",
                    "midi": 93,
                    "time": 266.0869919999992,
                    "velocity": 0.5826771653543307,
                    "duration": 0.6521740000000023
                },
                {
                    "name": "A5",
                    "midi": 81,
                    "time": 266.0869919999992,
                    "velocity": 0.4881889763779528,
                    "duration": 0.6521740000000023
                },
                {
                    "name": "A4",
                    "midi": 69,
                    "time": 266.7391659999992,
                    "velocity": 0.36220472440944884,
                    "duration": 0.6521740000000023
                },
                {
                    "name": "A5",
                    "midi": 81,
                    "time": 266.7391659999992,
                    "velocity": 0.4330708661417323,
                    "duration": 0.6521740000000023
                },
                {
                    "name": "F#4",
                    "midi": 66,
                    "time": 267.3913399999992,
                    "velocity": 0.36220472440944884,
                    "duration": 0.6467392166666741
                },
                {
                    "name": "F#5",
                    "midi": 78,
                    "time": 267.3913399999992,
                    "velocity": 0.4330708661417323,
                    "duration": 0.6467392166666741
                },
                {
                    "name": "F#4",
                    "midi": 66,
                    "time": 268.0435139999992,
                    "velocity": 0.4015748031496063,
                    "duration": 0.6521740000000023
                },
                {
                    "name": "F#5",
                    "midi": 78,
                    "time": 268.0435139999992,
                    "velocity": 0.47244094488188976,
                    "duration": 0.6521740000000023
                },
                {
                    "name": "D4",
                    "midi": 62,
                    "time": 268.6956879999992,
                    "velocity": 0.36220472440944884,
                    "duration": 0.6521740000000023
                },
                {
                    "name": "D5",
                    "midi": 74,
                    "time": 268.6956879999992,
                    "velocity": 0.4330708661417323,
                    "duration": 0.6521740000000023
                },
                {
                    "name": "E4",
                    "midi": 64,
                    "time": 269.3478619999992,
                    "velocity": 0.3700787401574803,
                    "duration": 0.6521740000000023
                },
                {
                    "name": "E5",
                    "midi": 76,
                    "time": 269.3478619999992,
                    "velocity": 0.4409448818897638,
                    "duration": 0.6521740000000023
                },
                {
                    "name": "F#4",
                    "midi": 66,
                    "time": 270.0000359999992,
                    "velocity": 0.4015748031496063,
                    "duration": 1.9565220000000068
                },
                {
                    "name": "F#5",
                    "midi": 78,
                    "time": 270.0000359999992,
                    "velocity": 0.47244094488188976,
                    "duration": 1.9565220000000068
                },
                {
                    "name": "G4",
                    "midi": 67,
                    "time": 271.95655799999923,
                    "velocity": 0.4015748031496063,
                    "duration": 1.3043480000000045
                },
                {
                    "name": "G5",
                    "midi": 79,
                    "time": 271.95655799999923,
                    "velocity": 0.47244094488188976,
                    "duration": 1.3043480000000045
                },
                {
                    "name": "B4",
                    "midi": 71,
                    "time": 273.26090599999924,
                    "velocity": 0.41732283464566927,
                    "duration": 0.6467392166666741
                },
                {
                    "name": "B5",
                    "midi": 83,
                    "time": 273.26090599999924,
                    "velocity": 0.49606299212598426,
                    "duration": 0.6467392166666741
                },
                {
                    "name": "B4",
                    "midi": 71,
                    "time": 273.91307999999924,
                    "velocity": 0.4409448818897638,
                    "duration": 1.3043480000000045
                },
                {
                    "name": "G5",
                    "midi": 79,
                    "time": 273.91307999999924,
                    "velocity": 0.4409448818897638,
                    "duration": 1.3043480000000045
                },
                {
                    "name": "B5",
                    "midi": 83,
                    "time": 273.91307999999924,
                    "velocity": 0.5275590551181102,
                    "duration": 1.3043480000000045
                },
                {
                    "name": "G5",
                    "midi": 79,
                    "time": 275.21742799999925,
                    "velocity": 0.4330708661417323,
                    "duration": 0.6467392166666741
                },
                {
                    "name": "A#5",
                    "midi": 82,
                    "time": 275.21742799999925,
                    "velocity": 0.5118110236220472,
                    "duration": 0.6467392166666741
                },
                {
                    "name": "A#4",
                    "midi": 70,
                    "time": 275.21742799999925,
                    "velocity": 0.4330708661417323,
                    "duration": 0.6467392166666741
                },
                {
                    "name": "A#4",
                    "midi": 70,
                    "time": 275.86960199999925,
                    "velocity": 0.4330708661417323,
                    "duration": 0.6521740000000023
                },
                {
                    "name": "A#5",
                    "midi": 82,
                    "time": 275.86960199999925,
                    "velocity": 0.5118110236220472,
                    "duration": 0.6521740000000023
                },
                {
                    "name": "E6",
                    "midi": 88,
                    "time": 276.52177599999925,
                    "velocity": 0.5039370078740157,
                    "duration": 0.6521740000000023
                },
                {
                    "name": "E5",
                    "midi": 76,
                    "time": 276.52177599999925,
                    "velocity": 0.4251968503937008,
                    "duration": 0.6521740000000023
                },
                {
                    "name": "F6",
                    "midi": 89,
                    "time": 277.17394999999925,
                    "velocity": 0.5196850393700787,
                    "duration": 0.3260869999999727
                },
                {
                    "name": "F5",
                    "midi": 77,
                    "time": 277.17394999999925,
                    "velocity": 0.4409448818897638,
                    "duration": 0.3260869999999727
                },
                {
                    "name": "F#5",
                    "midi": 78,
                    "time": 277.5000369999992,
                    "velocity": 0.44881889763779526,
                    "duration": 0.32336960833333706
                },
                {
                    "name": "F#6",
                    "midi": 90,
                    "time": 277.5000369999992,
                    "velocity": 0.5354330708661418,
                    "duration": 0.32336960833333706
                },
                {
                    "name": "F#6",
                    "midi": 90,
                    "time": 277.82612399999925,
                    "velocity": 0.5433070866141733,
                    "duration": 1.9565220000000068
                },
                {
                    "name": "F#5",
                    "midi": 78,
                    "time": 277.82612399999925,
                    "velocity": 0.4566929133858268,
                    "duration": 1.9565220000000068
                },
                {
                    "name": "D#5",
                    "midi": 75,
                    "time": 279.78264599999926,
                    "velocity": 0.5354330708661418,
                    "duration": 0.3260869999999727
                },
                {
                    "name": "F#5",
                    "midi": 78,
                    "time": 280.10873299999923,
                    "velocity": 0.5511811023622047,
                    "duration": 0.3260869999999727
                },
                {
                    "name": "G#5",
                    "midi": 80,
                    "time": 280.4348199999992,
                    "velocity": 0.5433070866141733,
                    "duration": 0.3260869999999727
                },
                {
                    "name": "D#6",
                    "midi": 87,
                    "time": 280.7609069999992,
                    "velocity": 0.5748031496062992,
                    "duration": 0.3260869999999727
                },
                {
                    "name": "F#6",
                    "midi": 90,
                    "time": 281.08699399999915,
                    "velocity": 0.5826771653543307,
                    "duration": 0.3260869999999727
                },
                {
                    "name": "G#6",
                    "midi": 92,
                    "time": 281.4130809999991,
                    "velocity": 0.5984251968503937,
                    "duration": 0.3260869999999727
                },
                {
                    "name": "F4",
                    "midi": 65,
                    "time": 281.7391679999991,
                    "velocity": 0.4015748031496063,
                    "duration": 1.9565220000000068
                },
                {
                    "name": "F5",
                    "midi": 77,
                    "time": 281.7391679999991,
                    "velocity": 0.47244094488188976,
                    "duration": 1.9565220000000068
                },
                {
                    "name": "G#4",
                    "midi": 68,
                    "time": 283.6956899999991,
                    "velocity": 0.4015748031496063,
                    "duration": 0.6521740000000023
                },
                {
                    "name": "G#5",
                    "midi": 80,
                    "time": 283.6956899999991,
                    "velocity": 0.47244094488188976,
                    "duration": 1.3043480000000045
                },
                {
                    "name": "F5",
                    "midi": 77,
                    "time": 284.3478639999991,
                    "velocity": 0.44881889763779526,
                    "duration": 0.6521740000000023
                },
                {
                    "name": "G#5",
                    "midi": 80,
                    "time": 285.0000379999991,
                    "velocity": 0.48031496062992124,
                    "duration": 0.6521740000000023
                },
                {
                    "name": "F#5",
                    "midi": 78,
                    "time": 285.0000379999991,
                    "velocity": 0.3543307086614173,
                    "duration": 0.6521740000000023
                },
                {
                    "name": "C#6",
                    "midi": 85,
                    "time": 285.6522119999991,
                    "velocity": 0.5433070866141733,
                    "duration": 1.9565220000000068
                },
                {
                    "name": "G#5",
                    "midi": 80,
                    "time": 285.6522119999991,
                    "velocity": 0.4566929133858268,
                    "duration": 0.6521740000000023
                },
                {
                    "name": "C#5",
                    "midi": 73,
                    "time": 286.3043859999991,
                    "velocity": 0.47244094488188976,
                    "duration": 0.6521740000000023
                },
                {
                    "name": "C#5",
                    "midi": 73,
                    "time": 286.9565599999991,
                    "velocity": 0.47244094488188976,
                    "duration": 0.6467392166666741
                },
                {
                    "name": "A5",
                    "midi": 81,
                    "time": 287.6087339999991,
                    "velocity": 0.5354330708661418,
                    "duration": 1.3043480000000045
                },
                {
                    "name": "C#5",
                    "midi": 73,
                    "time": 287.6087339999991,
                    "velocity": 0.44881889763779526,
                    "duration": 0.6521740000000023
                },
                {
                    "name": "A4",
                    "midi": 69,
                    "time": 288.2609079999991,
                    "velocity": 0.4409448818897638,
                    "duration": 0.6521740000000023
                },
                {
                    "name": "C#5",
                    "midi": 73,
                    "time": 288.9130819999991,
                    "velocity": 0.4015748031496063,
                    "duration": 0.6521740000000023
                },
                {
                    "name": "F#5",
                    "midi": 78,
                    "time": 288.9130819999991,
                    "velocity": 0.47244094488188976,
                    "duration": 0.6467392166666741
                },
                {
                    "name": "F#4",
                    "midi": 66,
                    "time": 288.9130819999991,
                    "velocity": 0.4015748031496063,
                    "duration": 0.6521740000000023
                },
                {
                    "name": "F#6",
                    "midi": 90,
                    "time": 289.5652559999991,
                    "velocity": 0.5748031496062992,
                    "duration": 1.3043480000000045
                },
                {
                    "name": "F#5",
                    "midi": 78,
                    "time": 289.5652559999991,
                    "velocity": 0.4881889763779528,
                    "duration": 0.6521740000000023
                },
                {
                    "name": "D#6",
                    "midi": 87,
                    "time": 290.2174299999991,
                    "velocity": 0.5511811023622047,
                    "duration": 0.6521740000000023
                },
                {
                    "name": "F#5",
                    "midi": 78,
                    "time": 290.86960399999913,
                    "velocity": 0.4645669291338583,
                    "duration": 0.6467392166666741
                },
                {
                    "name": "D#6",
                    "midi": 87,
                    "time": 290.86960399999913,
                    "velocity": 0.5511811023622047,
                    "duration": 0.6467392166666741
                },
                {
                    "name": "F#6",
                    "midi": 90,
                    "time": 290.86960399999913,
                    "velocity": 0.5511811023622047,
                    "duration": 0.6467392166666741
                },
                {
                    "name": "F#5",
                    "midi": 78,
                    "time": 291.52177799999913,
                    "velocity": 0.5039370078740157,
                    "duration": 0.6521740000000023
                },
                {
                    "name": "D#6",
                    "midi": 87,
                    "time": 291.52177799999913,
                    "velocity": 0.5984251968503937,
                    "duration": 0.6521740000000023
                },
                {
                    "name": "F#6",
                    "midi": 90,
                    "time": 291.52177799999913,
                    "velocity": 0.5984251968503937,
                    "duration": 0.6521740000000023
                },
                {
                    "name": "D#6",
                    "midi": 87,
                    "time": 292.17395199999913,
                    "velocity": 0.5748031496062992,
                    "duration": 0.6521740000000023
                },
                {
                    "name": "G#5",
                    "midi": 80,
                    "time": 292.17395199999913,
                    "velocity": 0.4881889763779528,
                    "duration": 0.6521740000000023
                },
                {
                    "name": "F#5",
                    "midi": 78,
                    "time": 292.17395199999913,
                    "velocity": 0.4881889763779528,
                    "duration": 0.6521740000000023
                },
                {
                    "name": "C#6",
                    "midi": 85,
                    "time": 292.82612599999914,
                    "velocity": 0.5748031496062992,
                    "duration": 0.6521740000000023
                },
                {
                    "name": "G#5",
                    "midi": 80,
                    "time": 292.82612599999914,
                    "velocity": 0.4881889763779528,
                    "duration": 0.6521740000000023
                },
                {
                    "name": "F5",
                    "midi": 77,
                    "time": 292.82612599999914,
                    "velocity": 0.4881889763779528,
                    "duration": 0.6521740000000023
                },
                {
                    "name": "B5",
                    "midi": 83,
                    "time": 293.47829999999914,
                    "velocity": 0.5748031496062992,
                    "duration": 1.95652199999995
                },
                {
                    "name": "G#5",
                    "midi": 80,
                    "time": 293.47829999999914,
                    "velocity": 0.4881889763779528,
                    "duration": 1.3043480000000045
                },
                {
                    "name": "F5",
                    "midi": 77,
                    "time": 293.47829999999914,
                    "velocity": 0.4881889763779528,
                    "duration": 1.3043480000000045
                },
                {
                    "name": "G#5",
                    "midi": 80,
                    "time": 294.78264799999914,
                    "velocity": 0.5511811023622047,
                    "duration": 0.298913083333332
                },
                {
                    "name": "F5",
                    "midi": 77,
                    "time": 295.1087349999991,
                    "velocity": 0.5275590551181102,
                    "duration": 0.3260869999999727
                },
                {
                    "name": "D3",
                    "midi": 50,
                    "time": 295.4348219999991,
                    "velocity": 0.48031496062992124,
                    "duration": 0.3260869999999727
                },
                {
                    "name": "F3",
                    "midi": 53,
                    "time": 295.76090899999906,
                    "velocity": 0.47244094488188976,
                    "duration": 0.3260869999999727
                },
                {
                    "name": "A#3",
                    "midi": 58,
                    "time": 296.08699599999903,
                    "velocity": 0.4881889763779528,
                    "duration": 0.3260869999999727
                },
                {
                    "name": "D4",
                    "midi": 62,
                    "time": 296.413082999999,
                    "velocity": 0.5039370078740157,
                    "duration": 0.3260869999999727
                },
                {
                    "name": "F4",
                    "midi": 65,
                    "time": 296.739169999999,
                    "velocity": 0.5275590551181102,
                    "duration": 0.3260869999999727
                },
                {
                    "name": "A#4",
                    "midi": 70,
                    "time": 297.06525699999895,
                    "velocity": 0.5433070866141733,
                    "duration": 0.32065221666664456
                },
                {
                    "name": "A#4",
                    "midi": 70,
                    "time": 297.3913439999989,
                    "velocity": 0.4881889763779528,
                    "duration": 1.3043480000000045
                },
                {
                    "name": "A#5",
                    "midi": 82,
                    "time": 297.3913439999989,
                    "velocity": 0.5748031496062992,
                    "duration": 1.3043480000000045
                },
                {
                    "name": "G4",
                    "midi": 67,
                    "time": 298.6956919999989,
                    "velocity": 0.4409448818897638,
                    "duration": 0.6467392166666741
                },
                {
                    "name": "G5",
                    "midi": 79,
                    "time": 298.6956919999989,
                    "velocity": 0.5275590551181102,
                    "duration": 0.6467392166666741
                },
                {
                    "name": "G4",
                    "midi": 67,
                    "time": 299.34786599999893,
                    "velocity": 0.4881889763779528,
                    "duration": 0.6521740000000023
                },
                {
                    "name": "G5",
                    "midi": 79,
                    "time": 299.34786599999893,
                    "velocity": 0.5748031496062992,
                    "duration": 0.6521740000000023
                },
                {
                    "name": "D#4",
                    "midi": 63,
                    "time": 300.00003999999893,
                    "velocity": 0.44881889763779526,
                    "duration": 0.6521740000000023
                },
                {
                    "name": "D#5",
                    "midi": 75,
                    "time": 300.00003999999893,
                    "velocity": 0.5354330708661418,
                    "duration": 0.6521740000000023
                },
                {
                    "name": "F5",
                    "midi": 77,
                    "time": 300.65221399999893,
                    "velocity": 0.5354330708661418,
                    "duration": 0.6521739999999454
                },
                {
                    "name": "A#4",
                    "midi": 70,
                    "time": 300.65221399999893,
                    "velocity": 0.44881889763779526,
                    "duration": 0.6521739999999454
                },
                {
                    "name": "F4",
                    "midi": 65,
                    "time": 300.65221399999893,
                    "velocity": 0.44881889763779526,
                    "duration": 0.3260869999999727
                },
                {
                    "name": "D5",
                    "midi": 74,
                    "time": 300.65221399999893,
                    "velocity": 0.44881889763779526,
                    "duration": 0.6521739999999454
                },
                {
                    "name": "G#4",
                    "midi": 68,
                    "time": 300.9783009999989,
                    "velocity": 0.5354330708661418,
                    "duration": 0.3260869999999727
                },
                {
                    "name": "G5",
                    "midi": 79,
                    "time": 301.3043879999989,
                    "velocity": 0.5748031496062992,
                    "duration": 1.3043480000000045
                },
                {
                    "name": "G4",
                    "midi": 67,
                    "time": 301.3043879999989,
                    "velocity": 0.4881889763779528,
                    "duration": 1.3043480000000045
                },
                {
                    "name": "A#4",
                    "midi": 70,
                    "time": 301.3043879999989,
                    "velocity": 0.4881889763779528,
                    "duration": 1.3043480000000045
                },
                {
                    "name": "D#5",
                    "midi": 75,
                    "time": 301.3043879999989,
                    "velocity": 0.4881889763779528,
                    "duration": 1.3043480000000045
                },
                {
                    "name": "B5",
                    "midi": 83,
                    "time": 302.6087359999989,
                    "velocity": 0.5748031496062992,
                    "duration": 0.6521740000000023
                },
                {
                    "name": "B4",
                    "midi": 71,
                    "time": 302.6087359999989,
                    "velocity": 0.4881889763779528,
                    "duration": 0.6521740000000023
                },
                {
                    "name": "G#5",
                    "midi": 80,
                    "time": 303.2609099999989,
                    "velocity": 0.5905511811023622,
                    "duration": 1.3043480000000045
                },
                {
                    "name": "G#4",
                    "midi": 68,
                    "time": 303.2609099999989,
                    "velocity": 0.49606299212598426,
                    "duration": 1.3043480000000045
                },
                {
                    "name": "F5",
                    "midi": 77,
                    "time": 304.5652579999989,
                    "velocity": 0.5354330708661418,
                    "duration": 0.6521740000000023
                },
                {
                    "name": "F4",
                    "midi": 65,
                    "time": 304.5652579999989,
                    "velocity": 0.44881889763779526,
                    "duration": 0.6521740000000023
                },
                {
                    "name": "C#6",
                    "midi": 85,
                    "time": 305.2174319999989,
                    "velocity": 0.6614173228346457,
                    "duration": 1.3043480000000045
                },
                {
                    "name": "C#5",
                    "midi": 73,
                    "time": 305.2174319999989,
                    "velocity": 0.5590551181102362,
                    "duration": 1.3043480000000045
                },
                {
                    "name": "A#4",
                    "midi": 70,
                    "time": 306.5217799999989,
                    "velocity": 0.5196850393700787,
                    "duration": 0.6521740000000023
                },
                {
                    "name": "A#5",
                    "midi": 82,
                    "time": 306.5217799999989,
                    "velocity": 0.6141732283464567,
                    "duration": 0.6521740000000023
                },
                {
                    "name": "G5",
                    "midi": 79,
                    "time": 307.1739539999989,
                    "velocity": 0.6377952755905512,
                    "duration": 1.3043480000000045
                },
                {
                    "name": "G4",
                    "midi": 67,
                    "time": 307.1739539999989,
                    "velocity": 0.5354330708661418,
                    "duration": 1.3043480000000045
                },
                {
                    "name": "D#5",
                    "midi": 75,
                    "time": 308.4783019999989,
                    "velocity": 0.4251968503937008,
                    "duration": 0.6521739999999454
                },
                {
                    "name": "D#4",
                    "midi": 63,
                    "time": 308.8043889999989,
                    "velocity": 0.2125984251968504,
                    "duration": 0.3260869999999727
                },
                {
                    "name": "G4",
                    "midi": 67,
                    "time": 308.8043889999989,
                    "velocity": 0.25984251968503935,
                    "duration": 0.3260869999999727
                },
                {
                    "name": "D#4",
                    "midi": 63,
                    "time": 309.13047599999885,
                    "velocity": 0.30708661417322836,
                    "duration": 0.6521740000000023
                },
                {
                    "name": "B4",
                    "midi": 71,
                    "time": 309.13047599999885,
                    "velocity": 0.36220472440944884,
                    "duration": 1.3043480000000045
                },
                {
                    "name": "G#4",
                    "midi": 68,
                    "time": 309.13047599999885,
                    "velocity": 0.30708661417322836,
                    "duration": 0.6521740000000023
                },
                {
                    "name": "G#4",
                    "midi": 68,
                    "time": 310.43482399999886,
                    "velocity": 0.4094488188976378,
                    "duration": 0.6521740000000023
                },
                {
                    "name": "E5",
                    "midi": 76,
                    "time": 311.08699799999886,
                    "velocity": 0.4566929133858268,
                    "duration": 1.3043480000000045
                },
                {
                    "name": "C#5",
                    "midi": 73,
                    "time": 312.39134599999886,
                    "velocity": 0.4409448818897638,
                    "duration": 0.6521740000000023
                },
                {
                    "name": "A#4",
                    "midi": 70,
                    "time": 313.04351999999886,
                    "velocity": 0.47244094488188976,
                    "duration": 1.3043480000000045
                },
                {
                    "name": "F#5",
                    "midi": 78,
                    "time": 314.34786799999887,
                    "velocity": 0.5354330708661418,
                    "duration": 0.6521740000000023
                },
                {
                    "name": "F#6",
                    "midi": 90,
                    "time": 314.34786799999887,
                    "velocity": 0.6299212598425197,
                    "duration": 0.6521740000000023
                },
                {
                    "name": "D#5",
                    "midi": 75,
                    "time": 315.00004199999887,
                    "velocity": 0.5748031496062992,
                    "duration": 1.3043480000000045
                },
                {
                    "name": "D#6",
                    "midi": 87,
                    "time": 315.00004199999887,
                    "velocity": 0.6850393700787402,
                    "duration": 1.3043480000000045
                },
                {
                    "name": "C5",
                    "midi": 72,
                    "time": 316.3043899999989,
                    "velocity": 0.5511811023622047,
                    "duration": 0.6521740000000023
                },
                {
                    "name": "C6",
                    "midi": 84,
                    "time": 316.3043899999989,
                    "velocity": 0.6535433070866141,
                    "duration": 0.6521740000000023
                },
                {
                    "name": "G#5",
                    "midi": 80,
                    "time": 316.9565639999989,
                    "velocity": 0.5826771653543307,
                    "duration": 1.3043480000000045
                },
                {
                    "name": "G#6",
                    "midi": 92,
                    "time": 316.9565639999989,
                    "velocity": 0.6850393700787402,
                    "duration": 1.3043480000000045
                },
                {
                    "name": "E5",
                    "midi": 76,
                    "time": 318.2609119999989,
                    "velocity": 0.5354330708661418,
                    "duration": 0.6521740000000023
                },
                {
                    "name": "E6",
                    "midi": 88,
                    "time": 318.2609119999989,
                    "velocity": 0.6299212598425197,
                    "duration": 0.6521740000000023
                },
                {
                    "name": "C#5",
                    "midi": 73,
                    "time": 318.9130859999989,
                    "velocity": 0.5748031496062992,
                    "duration": 1.3043480000000045
                },
                {
                    "name": "C#6",
                    "midi": 85,
                    "time": 318.9130859999989,
                    "velocity": 0.6850393700787402,
                    "duration": 1.3043480000000045
                },
                {
                    "name": "A3",
                    "midi": 57,
                    "time": 320.2174339999989,
                    "velocity": 0.3543307086614173,
                    "duration": 0.6521740000000023
                },
                {
                    "name": "A4",
                    "midi": 69,
                    "time": 320.2174339999989,
                    "velocity": 0.41732283464566927,
                    "duration": 0.6521740000000023
                },
                {
                    "name": "A3",
                    "midi": 57,
                    "time": 320.8696079999989,
                    "velocity": 0.33858267716535434,
                    "duration": 0.6385870416666535
                },
                {
                    "name": "F#4",
                    "midi": 66,
                    "time": 320.8696079999989,
                    "velocity": 0.4015748031496063,
                    "duration": 1.3043480000000045
                },
                {
                    "name": "D#4",
                    "midi": 63,
                    "time": 322.1739559999989,
                    "velocity": 0.4409448818897638,
                    "duration": 0.6521740000000023
                },
                {
                    "name": "B5",
                    "midi": 83,
                    "time": 322.8261299999989,
                    "velocity": 0.49606299212598426,
                    "duration": 1.3043480000000045
                },
                {
                    "name": "G#5",
                    "midi": 80,
                    "time": 324.1304779999989,
                    "velocity": 0.41732283464566927,
                    "duration": 0.6521740000000023
                },
                {
                    "name": "F5",
                    "midi": 77,
                    "time": 324.7826519999989,
                    "velocity": 0.4015748031496063,
                    "duration": 1.3043480000000045
                },
                {
                    "name": "C#6",
                    "midi": 85,
                    "time": 326.0869999999989,
                    "velocity": 0.4645669291338583,
                    "duration": 0.6521740000000023
                },
                {
                    "name": "C#5",
                    "midi": 73,
                    "time": 326.0869999999989,
                    "velocity": 0.4251968503937008,
                    "duration": 0.6521740000000023
                },
                {
                    "name": "A5",
                    "midi": 81,
                    "time": 326.7391739999989,
                    "velocity": 0.47244094488188976,
                    "duration": 1.3043479999999477
                },
                {
                    "name": "C#5",
                    "midi": 73,
                    "time": 326.7391739999989,
                    "velocity": 0.4015748031496063,
                    "duration": 0.3260869999999727
                },
                {
                    "name": "F#5",
                    "midi": 78,
                    "time": 327.0652609999989,
                    "velocity": 0.4015748031496063,
                    "duration": 0.6467392166666741
                },
                {
                    "name": "A4",
                    "midi": 69,
                    "time": 327.7174349999989,
                    "velocity": 0.4015748031496063,
                    "duration": 0.3260869999999727
                },
                {
                    "name": "D6",
                    "midi": 86,
                    "time": 328.04352199999886,
                    "velocity": 0.4409448818897638,
                    "duration": 0.6521740000000023
                },
                {
                    "name": "D5",
                    "midi": 74,
                    "time": 328.04352199999886,
                    "velocity": 0.3937007874015748,
                    "duration": 0.6521740000000023
                },
                {
                    "name": "B5",
                    "midi": 83,
                    "time": 328.69569599999886,
                    "velocity": 0.4409448818897638,
                    "duration": 1.3043480000000045
                },
                {
                    "name": "B4",
                    "midi": 71,
                    "time": 328.69569599999886,
                    "velocity": 0.3700787401574803,
                    "duration": 1.3043480000000045
                },
                {
                    "name": "G#4",
                    "midi": 68,
                    "time": 330.00004399999887,
                    "velocity": 0.33070866141732286,
                    "duration": 0.6521740000000023
                },
                {
                    "name": "G#5",
                    "midi": 80,
                    "time": 330.00004399999887,
                    "velocity": 0.3937007874015748,
                    "duration": 0.6521740000000023
                },
                {
                    "name": "F5",
                    "midi": 77,
                    "time": 330.65221799999887,
                    "velocity": 0.36220472440944884,
                    "duration": 1.3043480000000045
                },
                {
                    "name": "F4",
                    "midi": 65,
                    "time": 330.65221799999887,
                    "velocity": 0.30708661417322836,
                    "duration": 1.3043480000000045
                },
                {
                    "name": "D5",
                    "midi": 74,
                    "time": 331.9565659999989,
                    "velocity": 0.3464566929133858,
                    "duration": 0.6467392166666741
                },
                {
                    "name": "F4",
                    "midi": 65,
                    "time": 331.9565659999989,
                    "velocity": 0.29133858267716534,
                    "duration": 0.6467392166666741
                },
                {
                    "name": "G#4",
                    "midi": 68,
                    "time": 331.9565659999989,
                    "velocity": 0.29133858267716534,
                    "duration": 0.6467392166666741
                },
                {
                    "name": "B4",
                    "midi": 71,
                    "time": 331.9565659999989,
                    "velocity": 0.29133858267716534,
                    "duration": 0.6467392166666741
                },
                {
                    "name": "B4",
                    "midi": 71,
                    "time": 332.6087399999989,
                    "velocity": 0.30708661417322836,
                    "duration": 1.2907610416666557
                },
                {
                    "name": "F4",
                    "midi": 65,
                    "time": 332.6087399999989,
                    "velocity": 0.2125984251968504,
                    "duration": 1.2907610416666557
                },
                {
                    "name": "D4",
                    "midi": 62,
                    "time": 332.6087399999989,
                    "velocity": 0.2125984251968504,
                    "duration": 1.2907610416666557
                },
                {
                    "name": "G#4",
                    "midi": 68,
                    "time": 332.6087399999989,
                    "velocity": 0.2125984251968504,
                    "duration": 1.2907610416666557
                },
                {
                    "name": "G#4",
                    "midi": 68,
                    "time": 333.9130879999989,
                    "velocity": 0.28346456692913385,
                    "duration": 0.6467392166666741
                },
                {
                    "name": "B3",
                    "midi": 59,
                    "time": 333.9130879999989,
                    "velocity": 0.1968503937007874,
                    "duration": 0.6467392166666741
                },
                {
                    "name": "D4",
                    "midi": 62,
                    "time": 333.9130879999989,
                    "velocity": 0.1968503937007874,
                    "duration": 0.6467392166666741
                },
                {
                    "name": "F4",
                    "midi": 65,
                    "time": 333.9130879999989,
                    "velocity": 0.1968503937007874,
                    "duration": 0.6467392166666741
                },
                {
                    "name": "F4",
                    "midi": 65,
                    "time": 334.5652619999989,
                    "velocity": 0.2677165354330709,
                    "duration": 1.2907610416666557
                },
                {
                    "name": "G#3",
                    "midi": 56,
                    "time": 334.5652619999989,
                    "velocity": 0.1889763779527559,
                    "duration": 1.2907610416666557
                },
                {
                    "name": "B3",
                    "midi": 59,
                    "time": 334.5652619999989,
                    "velocity": 0.1889763779527559,
                    "duration": 1.2907610416666557
                },
                {
                    "name": "D4",
                    "midi": 62,
                    "time": 334.5652619999989,
                    "velocity": 0.1889763779527559,
                    "duration": 1.2907610416666557
                },
                {
                    "name": "D4",
                    "midi": 62,
                    "time": 335.8696099999989,
                    "velocity": 0.23622047244094488,
                    "duration": 0.815217500000017
                },
                {
                    "name": "F3",
                    "midi": 53,
                    "time": 335.8696099999989,
                    "velocity": 0.16535433070866143,
                    "duration": 0.815217500000017
                },
                {
                    "name": "G#3",
                    "midi": 56,
                    "time": 335.8696099999989,
                    "velocity": 0.16535433070866143,
                    "duration": 0.815217500000017
                },
                {
                    "name": "B3",
                    "midi": 59,
                    "time": 335.8696099999989,
                    "velocity": 0.16535433070866143,
                    "duration": 0.815217500000017
                },
                {
                    "name": "B3",
                    "midi": 59,
                    "time": 336.6848274999989,
                    "velocity": 0.23622047244094488,
                    "duration": 0.16304350000001477
                },
                {
                    "name": "G#3",
                    "midi": 56,
                    "time": 336.8478709999989,
                    "velocity": 0.23622047244094488,
                    "duration": 0.16304350000001477
                },
                {
                    "name": "F3",
                    "midi": 53,
                    "time": 337.01091449999893,
                    "velocity": 0.23622047244094488,
                    "duration": 0.16304350000001477
                },
                {
                    "name": "D3",
                    "midi": 50,
                    "time": 337.17395799999895,
                    "velocity": 0.23622047244094488,
                    "duration": 0.16304350000001477
                },
                {
                    "name": "B2",
                    "midi": 47,
                    "time": 337.33700149999896,
                    "velocity": 0.23622047244094488,
                    "duration": 0.16304350000001477
                },
                {
                    "name": "G#2",
                    "midi": 44,
                    "time": 337.500044999999,
                    "velocity": 0.23622047244094488,
                    "duration": 0.16304350000001477
                },
                {
                    "name": "B2",
                    "midi": 47,
                    "time": 337.663088499999,
                    "velocity": 0.23622047244094488,
                    "duration": 0.16304350000001477
                },
                {
                    "name": "D3",
                    "midi": 50,
                    "time": 337.826131999999,
                    "velocity": 0.2755905511811024,
                    "duration": 0.16304350000001477
                },
                {
                    "name": "F3",
                    "midi": 53,
                    "time": 337.989175499999,
                    "velocity": 0.23622047244094488,
                    "duration": 0.16304350000001477
                },
                {
                    "name": "G#3",
                    "midi": 56,
                    "time": 338.15221899999904,
                    "velocity": 0.23622047244094488,
                    "duration": 0.16304350000001477
                },
                {
                    "name": "B3",
                    "midi": 59,
                    "time": 338.31526249999905,
                    "velocity": 0.23622047244094488,
                    "duration": 0.16304350000001477
                },
                {
                    "name": "B3",
                    "midi": 59,
                    "time": 338.47830599999907,
                    "velocity": 0.23622047244094488,
                    "duration": 0.16304350000001477
                },
                {
                    "name": "D4",
                    "midi": 62,
                    "time": 338.47830599999907,
                    "velocity": 0.28346456692913385,
                    "duration": 0.16304350000001477
                },
                {
                    "name": "F4",
                    "midi": 65,
                    "time": 338.6413494999991,
                    "velocity": 0.23622047244094488,
                    "duration": 0.16304350000001477
                },
                {
                    "name": "G#4",
                    "midi": 68,
                    "time": 338.8043929999991,
                    "velocity": 0.23622047244094488,
                    "duration": 0.16304350000001477
                },
                {
                    "name": "B4",
                    "midi": 71,
                    "time": 338.9674364999991,
                    "velocity": 0.23622047244094488,
                    "duration": 0.16304350000001477
                },
                {
                    "name": "D5",
                    "midi": 74,
                    "time": 339.1304799999991,
                    "velocity": 0.2755905511811024,
                    "duration": 0.16304350000001477
                },
                {
                    "name": "B4",
                    "midi": 71,
                    "time": 339.1304799999991,
                    "velocity": 0.2283464566929134,
                    "duration": 0.16304350000001477
                },
                {
                    "name": "F5",
                    "midi": 77,
                    "time": 339.29352349999914,
                    "velocity": 0.23622047244094488,
                    "duration": 0.16304350000001477
                },
                {
                    "name": "G#5",
                    "midi": 80,
                    "time": 339.45656699999915,
                    "velocity": 0.23622047244094488,
                    "duration": 0.16304350000001477
                },
                {
                    "name": "B5",
                    "midi": 83,
                    "time": 339.61961049999917,
                    "velocity": 0.23622047244094488,
                    "duration": 0.16304350000001477
                },
                {
                    "name": "A5",
                    "midi": 81,
                    "time": 339.7826539999992,
                    "velocity": 0.1732283464566929,
                    "duration": 0.6521740000000591
                },
                {
                    "name": "D6",
                    "midi": 86,
                    "time": 339.7826539999992,
                    "velocity": 0.25196850393700787,
                    "duration": 0.16304350000001477
                },
                {
                    "name": "C6",
                    "midi": 84,
                    "time": 339.9456974999992,
                    "velocity": 0.2204724409448819,
                    "duration": 0.16304350000001477
                },
                {
                    "name": "D6",
                    "midi": 86,
                    "time": 340.1087409999992,
                    "velocity": 0.2204724409448819,
                    "duration": 0.16304350000001477
                },
                {
                    "name": "C#6",
                    "midi": 85,
                    "time": 340.2717844999992,
                    "velocity": 0.2204724409448819,
                    "duration": 0.16304350000001477
                },
                {
                    "name": "A5",
                    "midi": 81,
                    "time": 340.43482799999924,
                    "velocity": 0.1889763779527559,
                    "duration": 0.6521740000000591
                },
                {
                    "name": "D6",
                    "midi": 86,
                    "time": 340.43482799999924,
                    "velocity": 0.2755905511811024,
                    "duration": 0.16304350000001477
                },
                {
                    "name": "C#5",
                    "midi": 73,
                    "time": 340.59787149999926,
                    "velocity": 0.1889763779527559,
                    "duration": 0.16304350000001477
                },
                {
                    "name": "D6",
                    "midi": 86,
                    "time": 340.7609149999993,
                    "velocity": 0.2204724409448819,
                    "duration": 0.16304350000001477
                },
                {
                    "name": "C#6",
                    "midi": 85,
                    "time": 340.9239584999993,
                    "velocity": 0.2204724409448819,
                    "duration": 0.16304350000001477
                },
                {
                    "name": "C#5",
                    "midi": 73,
                    "time": 341.0870019999993,
                    "velocity": 0.1732283464566929,
                    "duration": 0.16304350000001477
                },
                {
                    "name": "A5",
                    "midi": 81,
                    "time": 341.0870019999993,
                    "velocity": 0.25196850393700787,
                    "duration": 0.6521740000000591
                },
                {
                    "name": "C#6",
                    "midi": 85,
                    "time": 341.2500454999993,
                    "velocity": 0.2204724409448819,
                    "duration": 0.16304350000001477
                },
                {
                    "name": "D6",
                    "midi": 86,
                    "time": 341.41308899999933,
                    "velocity": 0.2204724409448819,
                    "duration": 0.16304350000001477
                },
                {
                    "name": "C#6",
                    "midi": 85,
                    "time": 341.57613249999935,
                    "velocity": 0.2204724409448819,
                    "duration": 0.16304350000001477
                },
                {
                    "name": "B5",
                    "midi": 83,
                    "time": 341.73917599999936,
                    "velocity": 0.2204724409448819,
                    "duration": 0.16304350000001477
                },
                {
                    "name": "A4",
                    "midi": 69,
                    "time": 341.9022194999994,
                    "velocity": 0.1889763779527559,
                    "duration": 0.16304350000001477
                },
                {
                    "name": "B5",
                    "midi": 83,
                    "time": 342.0652629999994,
                    "velocity": 0.2204724409448819,
                    "duration": 0.16304350000001477
                },
                {
                    "name": "A5",
                    "midi": 81,
                    "time": 342.2283064999994,
                    "velocity": 0.2047244094488189,
                    "duration": 0.16304350000001477
                },
                {
                    "name": "A4",
                    "midi": 69,
                    "time": 342.3913499999994,
                    "velocity": 0.2204724409448819,
                    "duration": 0.16304350000001477
                },
                {
                    "name": "A5",
                    "midi": 81,
                    "time": 342.55439349999943,
                    "velocity": 0.2204724409448819,
                    "duration": 0.16304350000001477
                },
                {
                    "name": "B5",
                    "midi": 83,
                    "time": 342.71743699999945,
                    "velocity": 0.2204724409448819,
                    "duration": 0.16304350000001477
                },
                {
                    "name": "A5",
                    "midi": 81,
                    "time": 342.88048049999946,
                    "velocity": 0.2204724409448819,
                    "duration": 0.16304350000001477
                },
                {
                    "name": "G#5",
                    "midi": 80,
                    "time": 343.0435239999995,
                    "velocity": 0.2677165354330709,
                    "duration": 0.16304350000001477
                },
                {
                    "name": "F#4",
                    "midi": 66,
                    "time": 343.2065674999995,
                    "velocity": 0.1889763779527559,
                    "duration": 0.16304350000001477
                },
                {
                    "name": "G#5",
                    "midi": 80,
                    "time": 343.3696109999995,
                    "velocity": 0.2204724409448819,
                    "duration": 0.16304350000001477
                },
                {
                    "name": "F#5",
                    "midi": 78,
                    "time": 343.5326544999995,
                    "velocity": 0.2204724409448819,
                    "duration": 0.16304350000001477
                },
                {
                    "name": "G#4",
                    "midi": 68,
                    "time": 343.69569799999954,
                    "velocity": 0.2204724409448819,
                    "duration": 0.16304350000001477
                },
                {
                    "name": "G#5",
                    "midi": 80,
                    "time": 343.85874149999955,
                    "velocity": 0.2204724409448819,
                    "duration": 0.16304350000001477
                },
                {
                    "name": "A5",
                    "midi": 81,
                    "time": 344.02178499999957,
                    "velocity": 0.2047244094488189,
                    "duration": 0.16304350000001477
                },
                {
                    "name": "G#5",
                    "midi": 80,
                    "time": 344.1848284999996,
                    "velocity": 0.2047244094488189,
                    "duration": 0.16304350000001477
                },
                {
                    "name": "A4",
                    "midi": 69,
                    "time": 344.3478719999996,
                    "velocity": 0.2440944881889764,
                    "duration": 0.16304350000001477
                },
                {
                    "name": "A5",
                    "midi": 81,
                    "time": 344.5109154999996,
                    "velocity": 0.2440944881889764,
                    "duration": 0.16304350000001477
                },
                {
                    "name": "B5",
                    "midi": 83,
                    "time": 344.6739589999996,
                    "velocity": 0.2283464566929134,
                    "duration": 0.16304350000001477
                },
                {
                    "name": "A5",
                    "midi": 81,
                    "time": 344.83700249999964,
                    "velocity": 0.23622047244094488,
                    "duration": 0.16304350000001477
                },
                {
                    "name": "B5",
                    "midi": 83,
                    "time": 345.00004599999966,
                    "velocity": 0.30708661417322836,
                    "duration": 0.16304350000001477
                },
                {
                    "name": "A#4",
                    "midi": 70,
                    "time": 345.16308949999967,
                    "velocity": 0.2204724409448819,
                    "duration": 0.16304350000001477
                },
                {
                    "name": "B5",
                    "midi": 83,
                    "time": 345.3261329999997,
                    "velocity": 0.2755905511811024,
                    "duration": 0.16304350000001477
                },
                {
                    "name": "A#5",
                    "midi": 82,
                    "time": 345.4891764999997,
                    "velocity": 0.2755905511811024,
                    "duration": 0.16304350000001477
                },
                {
                    "name": "B4",
                    "midi": 71,
                    "time": 345.6522199999997,
                    "velocity": 0.28346456692913385,
                    "duration": 0.16304350000001477
                },
                {
                    "name": "B5",
                    "midi": 83,
                    "time": 345.81526349999973,
                    "velocity": 0.29133858267716534,
                    "duration": 0.16304350000001477
                },
                {
                    "name": "C#6",
                    "midi": 85,
                    "time": 345.97830699999975,
                    "velocity": 0.29133858267716534,
                    "duration": 0.16304350000001477
                },
                {
                    "name": "B5",
                    "midi": 83,
                    "time": 346.14135049999976,
                    "velocity": 0.2992125984251969,
                    "duration": 0.16304350000001477
                },
                {
                    "name": "C#6",
                    "midi": 85,
                    "time": 346.3043939999998,
                    "velocity": 0.3858267716535433,
                    "duration": 0.16304350000001477
                },
                {
                    "name": "B5",
                    "midi": 83,
                    "time": 346.4674374999998,
                    "velocity": 0.31496062992125984,
                    "duration": 0.16304350000001477
                },
                {
                    "name": "B4",
                    "midi": 71,
                    "time": 346.6304809999998,
                    "velocity": 0.2677165354330709,
                    "duration": 0.16304350000001477
                },
                {
                    "name": "B5",
                    "midi": 83,
                    "time": 346.7935244999998,
                    "velocity": 0.33070866141732286,
                    "duration": 0.16304350000001477
                },
                {
                    "name": "B4",
                    "midi": 71,
                    "time": 346.95656799999983,
                    "velocity": 0.33070866141732286,
                    "duration": 0.16304350000001477
                },
                {
                    "name": "B5",
                    "midi": 83,
                    "time": 347.11961149999985,
                    "velocity": 0.3464566929133858,
                    "duration": 0.16304350000001477
                },
                {
                    "name": "C#6",
                    "midi": 85,
                    "time": 347.28265499999986,
                    "velocity": 0.33070866141732286,
                    "duration": 0.16304350000001477
                },
                {
                    "name": "B5",
                    "midi": 83,
                    "time": 347.4456984999999,
                    "velocity": 0.33070866141732286,
                    "duration": 0.16304350000001477
                },
                {
                    "name": "E6",
                    "midi": 88,
                    "time": 347.6087419999999,
                    "velocity": 0.4330708661417323,
                    "duration": 0.16304350000001477
                },
                {
                    "name": "D6",
                    "midi": 86,
                    "time": 347.7717854999999,
                    "velocity": 0.36220472440944884,
                    "duration": 0.16304350000001477
                },
                {
                    "name": "D5",
                    "midi": 74,
                    "time": 347.9348289999999,
                    "velocity": 0.31496062992125984,
                    "duration": 0.16304350000001477
                },
                {
                    "name": "D6",
                    "midi": 86,
                    "time": 348.09787249999994,
                    "velocity": 0.3779527559055118,
                    "duration": 0.16304350000001477
                },
                {
                    "name": "D5",
                    "midi": 74,
                    "time": 348.26091599999995,
                    "velocity": 0.3937007874015748,
                    "duration": 0.16304350000001477
                },
                {
                    "name": "D6",
                    "midi": 86,
                    "time": 348.42395949999997,
                    "velocity": 0.3937007874015748,
                    "duration": 0.16304350000001477
                },
                {
                    "name": "E6",
                    "midi": 88,
                    "time": 348.587003,
                    "velocity": 0.4015748031496063,
                    "duration": 0.16304350000001477
                },
                {
                    "name": "D6",
                    "midi": 86,
                    "time": 348.7500465,
                    "velocity": 0.4015748031496063,
                    "duration": 0.16304350000001477
                },
                {
                    "name": "E6",
                    "midi": 88,
                    "time": 348.91309,
                    "velocity": 0.47244094488188976,
                    "duration": 0.16304350000001477
                },
                {
                    "name": "D6",
                    "midi": 86,
                    "time": 349.0761335,
                    "velocity": 0.33858267716535434,
                    "duration": 0.16304350000001477
                },
                {
                    "name": "D5",
                    "midi": 74,
                    "time": 349.23917700000004,
                    "velocity": 0.4094488188976378,
                    "duration": 0.16304350000001477
                },
                {
                    "name": "D6",
                    "midi": 86,
                    "time": 349.40222050000006,
                    "velocity": 0.41732283464566927,
                    "duration": 0.16304350000001477
                },
                {
                    "name": "C#5",
                    "midi": 73,
                    "time": 349.56526400000007,
                    "velocity": 0.4094488188976378,
                    "duration": 0.16304350000001477
                },
                {
                    "name": "C#6",
                    "midi": 85,
                    "time": 349.7283075000001,
                    "velocity": 0.4251968503937008,
                    "duration": 0.16304350000001477
                },
                {
                    "name": "D6",
                    "midi": 86,
                    "time": 349.8913510000001,
                    "velocity": 0.4251968503937008,
                    "duration": 0.16304350000001477
                },
                {
                    "name": "C#6",
                    "midi": 85,
                    "time": 350.0543945000001,
                    "velocity": 0.4330708661417323,
                    "duration": 0.16304350000001477
                },
                {
                    "name": "D6",
                    "midi": 86,
                    "time": 350.21743800000013,
                    "velocity": 0.5354330708661418,
                    "duration": 0.16304350000001477
                },
                {
                    "name": "C#6",
                    "midi": 85,
                    "time": 350.38048150000014,
                    "velocity": 0.4409448818897638,
                    "duration": 0.16304350000001477
                },
                {
                    "name": "C#5",
                    "midi": 73,
                    "time": 350.54352500000016,
                    "velocity": 0.3700787401574803,
                    "duration": 0.16304350000001477
                },
                {
                    "name": "C#6",
                    "midi": 85,
                    "time": 350.7065685000002,
                    "velocity": 0.4409448818897638,
                    "duration": 0.16304350000001477
                },
                {
                    "name": "F5",
                    "midi": 77,
                    "time": 350.8696120000002,
                    "velocity": 0.33858267716535434,
                    "duration": 0.16304350000001477
                },
                {
                    "name": "B5",
                    "midi": 83,
                    "time": 350.8696120000002,
                    "velocity": 0.44881889763779526,
                    "duration": 0.16304350000001477
                },
                {
                    "name": "F6",
                    "midi": 89,
                    "time": 351.0326555000002,
                    "velocity": 0.44881889763779526,
                    "duration": 0.16304350000001477
                },
                {
                    "name": "F#6",
                    "midi": 90,
                    "time": 351.1956990000002,
                    "velocity": 0.4566929133858268,
                    "duration": 0.16304350000001477
                },
                {
                    "name": "F6",
                    "midi": 89,
                    "time": 351.35874250000023,
                    "velocity": 0.4566929133858268,
                    "duration": 0.16304350000001477
                },
                {
                    "name": "G#6",
                    "midi": 92,
                    "time": 351.52178600000025,
                    "velocity": 0.5511811023622047,
                    "duration": 0.16304350000001477
                },
                {
                    "name": "F#6",
                    "midi": 90,
                    "time": 351.68482950000026,
                    "velocity": 0.4645669291338583,
                    "duration": 0.16304350000001477
                },
                {
                    "name": "A5",
                    "midi": 81,
                    "time": 351.8478730000003,
                    "velocity": 0.3937007874015748,
                    "duration": 0.16304350000001477
                },
                {
                    "name": "F#5",
                    "midi": 78,
                    "time": 351.8478730000003,
                    "velocity": 0.3937007874015748,
                    "duration": 0.16304350000001477
                },
                {
                    "name": "F#6",
                    "midi": 90,
                    "time": 352.0109165000003,
                    "velocity": 0.47244094488188976,
                    "duration": 0.16304350000001477
                },
                {
                    "name": "A6",
                    "midi": 93,
                    "time": 352.1739600000003,
                    "velocity": 0.5354330708661418,
                    "duration": 0.16304350000001477
                },
                {
                    "name": "G#6",
                    "midi": 92,
                    "time": 352.3370035000003,
                    "velocity": 0.48031496062992124,
                    "duration": 0.16304350000001477
                },
                {
                    "name": "G#5",
                    "midi": 80,
                    "time": 352.50004700000034,
                    "velocity": 0.48031496062992124,
                    "duration": 0.16304350000001477
                },
                {
                    "name": "G#6",
                    "midi": 92,
                    "time": 352.66309050000035,
                    "velocity": 0.48031496062992124,
                    "duration": 0.16304350000001477
                },
                {
                    "name": "G#6",
                    "midi": 92,
                    "time": 352.9891775000004,
                    "velocity": 0.4015748031496063,
                    "duration": 0.16304350000001477
                },
                {
                    "name": "G#5",
                    "midi": 80,
                    "time": 353.1522210000004,
                    "velocity": 0.47244094488188976,
                    "duration": 0.16304350000001477
                },
                {
                    "name": "G#6",
                    "midi": 92,
                    "time": 353.3152645000004,
                    "velocity": 0.4330708661417323,
                    "duration": 0.16304350000001477
                },
                {
                    "name": "G#6",
                    "midi": 92,
                    "time": 353.64135150000044,
                    "velocity": 0.4251968503937008,
                    "duration": 0.16304350000001477
                },
                {
                    "name": "G#5",
                    "midi": 80,
                    "time": 353.80439500000045,
                    "velocity": 0.4645669291338583,
                    "duration": 0.16304350000001477
                },
                {
                    "name": "G#6",
                    "midi": 92,
                    "time": 353.96743850000047,
                    "velocity": 0.4330708661417323,
                    "duration": 0.16304350000001477
                },
                {
                    "name": "G#5",
                    "midi": 80,
                    "time": 354.2935255000005,
                    "velocity": 0.41732283464566927,
                    "duration": 0.16304350000001477
                },
                {
                    "name": "E6",
                    "midi": 88,
                    "time": 354.4565690000005,
                    "velocity": 0.5039370078740157,
                    "duration": 0.16304350000001477
                },
                {
                    "name": "D6",
                    "midi": 86,
                    "time": 354.6196125000005,
                    "velocity": 0.41732283464566927,
                    "duration": 0.16304350000001477
                },
                {
                    "name": "C#6",
                    "midi": 85,
                    "time": 354.78265600000054,
                    "velocity": 0.48031496062992124,
                    "duration": 0.16304350000001477
                },
                {
                    "name": "D6",
                    "midi": 86,
                    "time": 354.94569950000056,
                    "velocity": 0.48031496062992124,
                    "duration": 0.16304350000001477
                },
                {
                    "name": "G#5",
                    "midi": 80,
                    "time": 355.1087430000006,
                    "velocity": 0.44881889763779526,
                    "duration": 0.16304350000001477
                },
                {
                    "name": "D6",
                    "midi": 86,
                    "time": 355.2717865000006,
                    "velocity": 0.44881889763779526,
                    "duration": 0.16304350000001477
                },
                {
                    "name": "D6",
                    "midi": 86,
                    "time": 355.5978735000006,
                    "velocity": 0.4409448818897638,
                    "duration": 0.16304350000001477
                },
                {
                    "name": "G#5",
                    "midi": 80,
                    "time": 355.76091700000063,
                    "velocity": 0.5039370078740157,
                    "duration": 0.16304350000001477
                },
                {
                    "name": "D6",
                    "midi": 86,
                    "time": 355.92396050000065,
                    "velocity": 0.4409448818897638,
                    "duration": 0.16304350000001477
                },
                {
                    "name": "D5",
                    "midi": 74,
                    "time": 356.08700400000066,
                    "velocity": 0.48031496062992124,
                    "duration": 0.16304350000001477
                },
                {
                    "name": "C#6",
                    "midi": 85,
                    "time": 356.2500475000007,
                    "velocity": 0.4251968503937008,
                    "duration": 0.16304350000001477
                },
                {
                    "name": "E6",
                    "midi": 88,
                    "time": 356.4130910000007,
                    "velocity": 0.4566929133858268,
                    "duration": 0.16304350000001477
                },
                {
                    "name": "D6",
                    "midi": 86,
                    "time": 356.5761345000007,
                    "velocity": 0.41732283464566927,
                    "duration": 0.16304350000001477
                },
                {
                    "name": "C#6",
                    "midi": 85,
                    "time": 356.7391780000007,
                    "velocity": 0.5196850393700787,
                    "duration": 0.16304350000001477
                },
                {
                    "name": "D6",
                    "midi": 86,
                    "time": 356.90222150000073,
                    "velocity": 0.4015748031496063,
                    "duration": 0.16304350000001477
                },
                {
                    "name": "D5",
                    "midi": 74,
                    "time": 357.06526500000075,
                    "velocity": 0.48031496062992124,
                    "duration": 0.16304350000001477
                },
                {
                    "name": "D6",
                    "midi": 86,
                    "time": 357.22830850000076,
                    "velocity": 0.4251968503937008,
                    "duration": 0.16304350000001477
                },
                {
                    "name": "D5",
                    "midi": 74,
                    "time": 357.3913520000008,
                    "velocity": 0.49606299212598426,
                    "duration": 0.16304350000001477
                },
                {
                    "name": "D6",
                    "midi": 86,
                    "time": 357.5543955000008,
                    "velocity": 0.44881889763779526,
                    "duration": 0.16304350000001477
                },
                {
                    "name": "E6",
                    "midi": 88,
                    "time": 357.7174390000008,
                    "velocity": 0.5039370078740157,
                    "duration": 0.16304350000001477
                },
                {
                    "name": "D6",
                    "midi": 86,
                    "time": 357.8804825000008,
                    "velocity": 0.44881889763779526,
                    "duration": 0.15760871666668663
                },
                {
                    "name": "D6",
                    "midi": 86,
                    "time": 358.04352600000084,
                    "velocity": 0.5196850393700787,
                    "duration": 0.16304350000001477
                },
                {
                    "name": "C#6",
                    "midi": 85,
                    "time": 358.20656950000085,
                    "velocity": 0.41732283464566927,
                    "duration": 0.16304350000001477
                },
                {
                    "name": "C#5",
                    "midi": 73,
                    "time": 358.36961300000087,
                    "velocity": 0.4645669291338583,
                    "duration": 0.16304350000001477
                },
                {
                    "name": "C#6",
                    "midi": 85,
                    "time": 358.5326565000009,
                    "velocity": 0.4015748031496063,
                    "duration": 0.16304350000001477
                },
                {
                    "name": "C6",
                    "midi": 84,
                    "time": 358.6957000000009,
                    "velocity": 0.3937007874015748,
                    "duration": 0.16304350000001477
                },
                {
                    "name": "C#6",
                    "midi": 85,
                    "time": 358.8587435000009,
                    "velocity": 0.3858267716535433,
                    "duration": 0.16304350000001477
                },
                {
                    "name": "C#5",
                    "midi": 73,
                    "time": 359.0217870000009,
                    "velocity": 0.3779527559055118,
                    "duration": 0.16304350000001477
                },
                {
                    "name": "C#6",
                    "midi": 85,
                    "time": 359.18483050000094,
                    "velocity": 0.3700787401574803,
                    "duration": 0.16304350000001477
                },
                {
                    "name": "A#5",
                    "midi": 82,
                    "time": 359.34787400000096,
                    "velocity": 0.4330708661417323,
                    "duration": 0.16304350000001477
                },
                {
                    "name": "B5",
                    "midi": 83,
                    "time": 359.51091750000097,
                    "velocity": 0.36220472440944884,
                    "duration": 0.16304350000001477
                },
                {
                    "name": "B4",
                    "midi": 71,
                    "time": 359.673961000001,
                    "velocity": 0.29133858267716534,
                    "duration": 0.16304350000001477
                },
                {
                    "name": "B5",
                    "midi": 83,
                    "time": 359.837004500001,
                    "velocity": 0.3464566929133858,
                    "duration": 0.16304350000001477
                },
                {
                    "name": "B4",
                    "midi": 71,
                    "time": 360.000048000001,
                    "velocity": 0.3937007874015748,
                    "duration": 0.16304350000001477
                },
                {
                    "name": "B5",
                    "midi": 83,
                    "time": 360.16309150000103,
                    "velocity": 0.3464566929133858,
                    "duration": 0.16304350000001477
                },
                {
                    "name": "C#6",
                    "midi": 85,
                    "time": 360.32613500000105,
                    "velocity": 0.3543307086614173,
                    "duration": 0.16304350000001477
                },
                {
                    "name": "B5",
                    "midi": 83,
                    "time": 360.48917850000106,
                    "velocity": 0.36220472440944884,
                    "duration": 0.16304350000001477
                },
                {
                    "name": "A#5",
                    "midi": 82,
                    "time": 360.6522220000011,
                    "velocity": 0.4330708661417323,
                    "duration": 0.16304350000001477
                },
                {
                    "name": "B5",
                    "midi": 83,
                    "time": 360.8152655000011,
                    "velocity": 0.3779527559055118,
                    "duration": 0.16304350000001477
                },
                {
                    "name": "B4",
                    "midi": 71,
                    "time": 360.9783090000011,
                    "velocity": 0.33858267716535434,
                    "duration": 0.16304350000001477
                },
                {
                    "name": "B5",
                    "midi": 83,
                    "time": 361.1413525000011,
                    "velocity": 0.4015748031496063,
                    "duration": 0.16304350000001477
                },
                {
                    "name": "B4",
                    "midi": 71,
                    "time": 361.30439600000113,
                    "velocity": 0.4409448818897638,
                    "duration": 0.16304350000001477
                },
                {
                    "name": "B5",
                    "midi": 83,
                    "time": 361.46743950000115,
                    "velocity": 0.4251968503937008,
                    "duration": 0.16304350000001477
                },
                {
                    "name": "C#6",
                    "midi": 85,
                    "time": 361.63048300000116,
                    "velocity": 0.4330708661417323,
                    "duration": 0.16304350000001477
                },
                {
                    "name": "B5",
                    "midi": 83,
                    "time": 361.7935265000012,
                    "velocity": 0.4409448818897638,
                    "duration": 0.16304350000001477
                },
                {
                    "name": "C#6",
                    "midi": 85,
                    "time": 362.1196135000012,
                    "velocity": 0.3858267716535433,
                    "duration": 0.16304350000001477
                },
                {
                    "name": "B4",
                    "midi": 71,
                    "time": 362.2826570000012,
                    "velocity": 0.33858267716535434,
                    "duration": 0.16304350000001477
                },
                {
                    "name": "B5",
                    "midi": 83,
                    "time": 362.44570050000124,
                    "velocity": 0.3858267716535433,
                    "duration": 0.16304350000001477
                },
                {
                    "name": "B5",
                    "midi": 83,
                    "time": 362.77178750000127,
                    "velocity": 0.3543307086614173,
                    "duration": 0.16304350000001477
                },
                {
                    "name": "A4",
                    "midi": 69,
                    "time": 362.9348310000013,
                    "velocity": 0.33858267716535434,
                    "duration": 0.16304350000001477
                },
                {
                    "name": "A5",
                    "midi": 81,
                    "time": 363.0978745000013,
                    "velocity": 0.33858267716535434,
                    "duration": 0.16304350000001477
                },
                {
                    "name": "A5",
                    "midi": 81,
                    "time": 363.4239615000013,
                    "velocity": 0.3858267716535433,
                    "duration": 0.16304350000001477
                },
                {
                    "name": "G#4",
                    "midi": 68,
                    "time": 363.58700500000134,
                    "velocity": 0.3700787401574803,
                    "duration": 0.16304350000001477
                },
                {
                    "name": "G#5",
                    "midi": 80,
                    "time": 363.75004850000136,
                    "velocity": 0.4251968503937008,
                    "duration": 0.16304350000001477
                },
                {
                    "name": "G#4",
                    "midi": 68,
                    "time": 363.91309200000137,
                    "velocity": 0.4251968503937008,
                    "duration": 0.16304350000001477
                },
                {
                    "name": "G#5",
                    "midi": 80,
                    "time": 364.0761355000014,
                    "velocity": 0.4251968503937008,
                    "duration": 0.16304350000001477
                },
                {
                    "name": "G5",
                    "midi": 79,
                    "time": 364.2391790000014,
                    "velocity": 0.4015748031496063,
                    "duration": 0.16304350000001477
                },
                {
                    "name": "G#5",
                    "midi": 80,
                    "time": 364.4022225000014,
                    "velocity": 0.4015748031496063,
                    "duration": 0.16304350000001477
                },
                {
                    "name": "A5",
                    "midi": 81,
                    "time": 364.56526600000143,
                    "velocity": 0.48031496062992124,
                    "duration": 0.16304350000001477
                },
                {
                    "name": "G#5",
                    "midi": 80,
                    "time": 364.72830950000144,
                    "velocity": 0.33858267716535434,
                    "duration": 0.16304350000001477
                },
                {
                    "name": "G#4",
                    "midi": 68,
                    "time": 364.89135300000146,
                    "velocity": 0.4094488188976378,
                    "duration": 0.16304350000001477
                },
                {
                    "name": "G#5",
                    "midi": 80,
                    "time": 365.0543965000015,
                    "velocity": 0.4094488188976378,
                    "duration": 0.16304350000001477
                },
                {
                    "name": "G#4",
                    "midi": 68,
                    "time": 365.2174400000015,
                    "velocity": 0.3937007874015748,
                    "duration": 0.16304350000001477
                },
                {
                    "name": "G#5",
                    "midi": 80,
                    "time": 365.3804835000015,
                    "velocity": 0.4015748031496063,
                    "duration": 0.16304350000001477
                },
                {
                    "name": "A5",
                    "midi": 81,
                    "time": 365.5435270000015,
                    "velocity": 0.4015748031496063,
                    "duration": 0.16304350000001477
                },
                {
                    "name": "G#5",
                    "midi": 80,
                    "time": 365.70657050000153,
                    "velocity": 0.3937007874015748,
                    "duration": 0.16304350000001477
                },
                {
                    "name": "A5",
                    "midi": 81,
                    "time": 365.86961400000155,
                    "velocity": 0.48031496062992124,
                    "duration": 0.16304350000001477
                },
                {
                    "name": "G#5",
                    "midi": 80,
                    "time": 366.03265750000156,
                    "velocity": 0.3937007874015748,
                    "duration": 0.16304350000001477
                },
                {
                    "name": "G#4",
                    "midi": 68,
                    "time": 366.1957010000016,
                    "velocity": 0.3228346456692913,
                    "duration": 0.16304350000001477
                },
                {
                    "name": "G#5",
                    "midi": 80,
                    "time": 366.3587445000016,
                    "velocity": 0.3858267716535433,
                    "duration": 0.16304350000001477
                },
                {
                    "name": "A4",
                    "midi": 69,
                    "time": 366.5217880000016,
                    "velocity": 0.3858267716535433,
                    "duration": 0.16304350000001477
                },
                {
                    "name": "A5",
                    "midi": 81,
                    "time": 366.6848315000016,
                    "velocity": 0.3779527559055118,
                    "duration": 0.16304350000001477
                },
                {
                    "name": "B5",
                    "midi": 83,
                    "time": 366.84787500000164,
                    "velocity": 0.3779527559055118,
                    "duration": 0.16304350000001477
                },
                {
                    "name": "A5",
                    "midi": 81,
                    "time": 367.01091850000165,
                    "velocity": 0.3779527559055118,
                    "duration": 0.16304350000001477
                },
                {
                    "name": "G#5",
                    "midi": 80,
                    "time": 367.17396200000167,
                    "velocity": 0.44881889763779526,
                    "duration": 0.16304350000001477
                },
                {
                    "name": "F#5",
                    "midi": 78,
                    "time": 367.3370055000017,
                    "velocity": 0.3700787401574803,
                    "duration": 0.16304350000001477
                },
                {
                    "name": "F#4",
                    "midi": 66,
                    "time": 367.5000490000017,
                    "velocity": 0.30708661417322836,
                    "duration": 0.16304350000001477
                },
                {
                    "name": "F#5",
                    "midi": 78,
                    "time": 367.6630925000017,
                    "velocity": 0.3700787401574803,
                    "duration": 0.16304350000001477
                },
                {
                    "name": "F5",
                    "midi": 77,
                    "time": 367.8261360000017,
                    "velocity": 0.41732283464566927,
                    "duration": 0.16304350000001477
                },
                {
                    "name": "F#5",
                    "midi": 78,
                    "time": 367.98917950000174,
                    "velocity": 0.36220472440944884,
                    "duration": 0.16304350000001477
                },
                {
                    "name": "F#4",
                    "midi": 66,
                    "time": 368.15222300000175,
                    "velocity": 0.3543307086614173,
                    "duration": 0.16304350000001477
                },
                {
                    "name": "F#5",
                    "midi": 78,
                    "time": 368.31526650000177,
                    "velocity": 0.36220472440944884,
                    "duration": 0.16304350000001477
                },
                {
                    "name": "G#5",
                    "midi": 80,
                    "time": 368.4783100000018,
                    "velocity": 0.4251968503937008,
                    "duration": 0.16304350000001477
                },
                {
                    "name": "F#5",
                    "midi": 78,
                    "time": 368.6413535000018,
                    "velocity": 0.30708661417322836,
                    "duration": 0.16304350000001477
                },
                {
                    "name": "F#4",
                    "midi": 66,
                    "time": 368.8043970000018,
                    "velocity": 0.36220472440944884,
                    "duration": 0.16304350000001477
                },
                {
                    "name": "F#5",
                    "midi": 78,
                    "time": 368.9674405000018,
                    "velocity": 0.36220472440944884,
                    "duration": 0.16304350000001477
                },
                {
                    "name": "F5",
                    "midi": 77,
                    "time": 369.13048400000184,
                    "velocity": 0.3543307086614173,
                    "duration": 0.16304350000001477
                },
                {
                    "name": "F#5",
                    "midi": 78,
                    "time": 369.29352750000186,
                    "velocity": 0.3228346456692913,
                    "duration": 0.16304350000001477
                },
                {
                    "name": "F#4",
                    "midi": 66,
                    "time": 369.4565710000019,
                    "velocity": 0.36220472440944884,
                    "duration": 0.16304350000001477
                },
                {
                    "name": "F#5",
                    "midi": 78,
                    "time": 369.6196145000019,
                    "velocity": 0.31496062992125984,
                    "duration": 0.16304350000001477
                },
                {
                    "name": "F#5",
                    "midi": 78,
                    "time": 369.9457015000019,
                    "velocity": 0.36220472440944884,
                    "duration": 0.16304350000001477
                },
                {
                    "name": "F4",
                    "midi": 65,
                    "time": 370.10874500000193,
                    "velocity": 0.30708661417322836,
                    "duration": 0.16304350000001477
                },
                {
                    "name": "F5",
                    "midi": 77,
                    "time": 370.27178850000195,
                    "velocity": 0.36220472440944884,
                    "duration": 0.16304350000001477
                },
                {
                    "name": "A5",
                    "midi": 81,
                    "time": 370.597875500002,
                    "velocity": 0.36220472440944884,
                    "duration": 0.16304350000001477
                },
                {
                    "name": "G#4",
                    "midi": 68,
                    "time": 370.760919000002,
                    "velocity": 0.33070866141732286,
                    "duration": 0.16304350000001477
                },
                {
                    "name": "G#5",
                    "midi": 80,
                    "time": 370.923962500002,
                    "velocity": 0.36220472440944884,
                    "duration": 0.16304350000001477
                },
                {
                    "name": "C#6",
                    "midi": 85,
                    "time": 371.25004950000204,
                    "velocity": 0.36220472440944884,
                    "duration": 0.16304350000001477
                },
                {
                    "name": "B4",
                    "midi": 71,
                    "time": 371.41309300000205,
                    "velocity": 0.30708661417322836,
                    "duration": 0.16304350000001477
                },
                {
                    "name": "B5",
                    "midi": 83,
                    "time": 371.57613650000206,
                    "velocity": 0.36220472440944884,
                    "duration": 0.16304350000001477
                },
                {
                    "name": "C#6",
                    "midi": 85,
                    "time": 371.7391800000021,
                    "velocity": 0.36220472440944884,
                    "duration": 0.16304350000001477
                },
                {
                    "name": "B4",
                    "midi": 71,
                    "time": 371.9022235000021,
                    "velocity": 0.30708661417322836,
                    "duration": 0.16304350000001477
                },
                {
                    "name": "C#6",
                    "midi": 85,
                    "time": 372.0652670000021,
                    "velocity": 0.36220472440944884,
                    "duration": 0.16304350000001477
                },
                {
                    "name": "B5",
                    "midi": 83,
                    "time": 372.2283105000021,
                    "velocity": 0.36220472440944884,
                    "duration": 0.16304350000001477
                },
                {
                    "name": "A#5",
                    "midi": 82,
                    "time": 372.39135400000214,
                    "velocity": 0.4251968503937008,
                    "duration": 0.16304350000001477
                },
                {
                    "name": "B5",
                    "midi": 83,
                    "time": 372.55439750000215,
                    "velocity": 0.36220472440944884,
                    "duration": 0.16304350000001477
                },
                {
                    "name": "B4",
                    "midi": 71,
                    "time": 372.71744100000217,
                    "velocity": 0.29133858267716534,
                    "duration": 0.16304350000001477
                },
                {
                    "name": "B5",
                    "midi": 83,
                    "time": 372.8804845000022,
                    "velocity": 0.36220472440944884,
                    "duration": 0.15760871666668663
                },
                {
                    "name": "B5",
                    "midi": 83,
                    "time": 373.0435280000022,
                    "velocity": 0.3543307086614173,
                    "duration": 0.16304350000001477
                },
                {
                    "name": "A5",
                    "midi": 81,
                    "time": 373.2065715000022,
                    "velocity": 0.36220472440944884,
                    "duration": 0.16304350000001477
                },
                {
                    "name": "A4",
                    "midi": 69,
                    "time": 373.3696150000022,
                    "velocity": 0.3228346456692913,
                    "duration": 0.16304350000001477
                },
                {
                    "name": "A5",
                    "midi": 81,
                    "time": 373.53265850000224,
                    "velocity": 0.36220472440944884,
                    "duration": 0.16304350000001477
                },
                {
                    "name": "B5",
                    "midi": 83,
                    "time": 373.69570200000226,
                    "velocity": 0.44881889763779526,
                    "duration": 0.16304350000001477
                },
                {
                    "name": "A4",
                    "midi": 69,
                    "time": 373.85874550000227,
                    "velocity": 0.30708661417322836,
                    "duration": 0.16304350000001477
                },
                {
                    "name": "B5",
                    "midi": 83,
                    "time": 374.0217890000023,
                    "velocity": 0.3464566929133858,
                    "duration": 0.16304350000001477
                },
                {
                    "name": "A5",
                    "midi": 81,
                    "time": 374.1848325000023,
                    "velocity": 0.36220472440944884,
                    "duration": 0.15760871666668663
                },
                {
                    "name": "A5",
                    "midi": 81,
                    "time": 374.3478760000023,
                    "velocity": 0.36220472440944884,
                    "duration": 0.16304350000001477
                },
                {
                    "name": "G#4",
                    "midi": 68,
                    "time": 374.51091950000233,
                    "velocity": 0.30708661417322836,
                    "duration": 0.16304350000001477
                },
                {
                    "name": "A5",
                    "midi": 81,
                    "time": 374.67396300000235,
                    "velocity": 0.33858267716535434,
                    "duration": 0.16304350000001477
                },
                {
                    "name": "G#5",
                    "midi": 80,
                    "time": 374.83700650000236,
                    "velocity": 0.33858267716535434,
                    "duration": 0.15760871666668663
                },
                {
                    "name": "G#5",
                    "midi": 80,
                    "time": 375.0000500000024,
                    "velocity": 0.4330708661417323,
                    "duration": 0.16304350000001477
                },
                {
                    "name": "F#4",
                    "midi": 66,
                    "time": 375.1630935000024,
                    "velocity": 0.2992125984251969,
                    "duration": 0.16304350000001477
                },
                {
                    "name": "G#5",
                    "midi": 80,
                    "time": 375.3261370000024,
                    "velocity": 0.30708661417322836,
                    "duration": 0.16304350000001477
                },
                {
                    "name": "F#5",
                    "midi": 78,
                    "time": 375.4891805000024,
                    "velocity": 0.36220472440944884,
                    "duration": 0.16304350000001477
                },
                {
                    "name": "F5",
                    "midi": 77,
                    "time": 375.65222400000243,
                    "velocity": 0.36220472440944884,
                    "duration": 0.16304350000001477
                },
                {
                    "name": "F#5",
                    "midi": 78,
                    "time": 375.81526750000245,
                    "velocity": 0.36220472440944884,
                    "duration": 0.16304350000001477
                },
                {
                    "name": "F#4",
                    "midi": 66,
                    "time": 375.97831100000246,
                    "velocity": 0.3228346456692913,
                    "duration": 0.16304350000001477
                },
                {
                    "name": "F#5",
                    "midi": 78,
                    "time": 376.1413545000025,
                    "velocity": 0.36220472440944884,
                    "duration": 0.16304350000001477
                },
                {
                    "name": "G#5",
                    "midi": 80,
                    "time": 376.3043980000025,
                    "velocity": 0.4251968503937008,
                    "duration": 0.16304350000001477
                },
                {
                    "name": "F#5",
                    "midi": 78,
                    "time": 376.4674415000025,
                    "velocity": 0.3543307086614173,
                    "duration": 0.16304350000001477
                },
                {
                    "name": "F#4",
                    "midi": 66,
                    "time": 376.6304850000025,
                    "velocity": 0.2992125984251969,
                    "duration": 0.16304350000001477
                },
                {
                    "name": "F#5",
                    "midi": 78,
                    "time": 376.79352850000254,
                    "velocity": 0.36220472440944884,
                    "duration": 0.16304350000001477
                },
                {
                    "name": "F4",
                    "midi": 65,
                    "time": 376.95657200000255,
                    "velocity": 0.3543307086614173,
                    "duration": 0.16304350000001477
                },
                {
                    "name": "F5",
                    "midi": 77,
                    "time": 377.11961550000257,
                    "velocity": 0.33070866141732286,
                    "duration": 0.16304350000001477
                },
                {
                    "name": "F#5",
                    "midi": 78,
                    "time": 377.2826590000026,
                    "velocity": 0.36220472440944884,
                    "duration": 0.16304350000001477
                },
                {
                    "name": "F5",
                    "midi": 77,
                    "time": 377.4457025000026,
                    "velocity": 0.36220472440944884,
                    "duration": 0.16304350000001477
                },
                {
                    "name": "F#5",
                    "midi": 78,
                    "time": 377.6087460000026,
                    "velocity": 0.44881889763779526,
                    "duration": 0.16304350000001477
                },
                {
                    "name": "F4",
                    "midi": 65,
                    "time": 377.7717895000026,
                    "velocity": 0.30708661417322836,
                    "duration": 0.16304350000001477
                },
                {
                    "name": "F#5",
                    "midi": 78,
                    "time": 377.93483300000264,
                    "velocity": 0.3543307086614173,
                    "duration": 0.16304350000001477
                },
                {
                    "name": "F5",
                    "midi": 77,
                    "time": 378.09787650000266,
                    "velocity": 0.36220472440944884,
                    "duration": 0.16304350000001477
                },
                {
                    "name": "G#4",
                    "midi": 68,
                    "time": 378.26092000000267,
                    "velocity": 0.4015748031496063,
                    "duration": 0.16304350000001477
                },
                {
                    "name": "G#5",
                    "midi": 80,
                    "time": 378.4239635000027,
                    "velocity": 0.3700787401574803,
                    "duration": 0.16304350000001477
                },
                {
                    "name": "A5",
                    "midi": 81,
                    "time": 378.5870070000027,
                    "velocity": 0.3700787401574803,
                    "duration": 0.16304350000001477
                },
                {
                    "name": "G#5",
                    "midi": 80,
                    "time": 378.7500505000027,
                    "velocity": 0.3779527559055118,
                    "duration": 0.16304350000001477
                },
                {
                    "name": "B5",
                    "midi": 83,
                    "time": 378.91309400000273,
                    "velocity": 0.4645669291338583,
                    "duration": 0.16304350000001477
                },
                {
                    "name": "B4",
                    "midi": 71,
                    "time": 379.07613750000274,
                    "velocity": 0.33070866141732286,
                    "duration": 0.16304350000001477
                },
                {
                    "name": "D5",
                    "midi": 74,
                    "time": 379.23918100000276,
                    "velocity": 0.4015748031496063,
                    "duration": 0.16304350000001477
                },
                {
                    "name": "D6",
                    "midi": 86,
                    "time": 379.4022245000028,
                    "velocity": 0.41732283464566927,
                    "duration": 0.16304350000001477
                },
                {
                    "name": "C#6",
                    "midi": 85,
                    "time": 379.5652680000028,
                    "velocity": 0.4566929133858268,
                    "duration": 0.16304350000001477
                },
                {
                    "name": "D6",
                    "midi": 86,
                    "time": 379.7283115000028,
                    "velocity": 0.4330708661417323,
                    "duration": 0.16304350000001477
                },
                {
                    "name": "D5",
                    "midi": 74,
                    "time": 379.8913550000028,
                    "velocity": 0.3937007874015748,
                    "duration": 0.16304350000001477
                },
                {
                    "name": "D6",
                    "midi": 86,
                    "time": 380.05439850000283,
                    "velocity": 0.44881889763779526,
                    "duration": 0.16304350000001477
                },
                {
                    "name": "E6",
                    "midi": 88,
                    "time": 380.21744200000285,
                    "velocity": 0.5354330708661418,
                    "duration": 0.16304350000001477
                },
                {
                    "name": "D6",
                    "midi": 86,
                    "time": 380.38048550000286,
                    "velocity": 0.4566929133858268,
                    "duration": 0.16304350000001477
                },
                {
                    "name": "D5",
                    "midi": 74,
                    "time": 380.5435290000029,
                    "velocity": 0.3937007874015748,
                    "duration": 0.16304350000001477
                },
                {
                    "name": "D6",
                    "midi": 86,
                    "time": 380.7065725000029,
                    "velocity": 0.48031496062992124,
                    "duration": 0.15760871666668663
                },
                {
                    "name": "D6",
                    "midi": 86,
                    "time": 380.8696160000029,
                    "velocity": 0.47244094488188976,
                    "duration": 0.16304350000001477
                },
                {
                    "name": "C#5",
                    "midi": 73,
                    "time": 381.0326595000029,
                    "velocity": 0.4094488188976378,
                    "duration": 0.16304350000001477
                },
                {
                    "name": "D6",
                    "midi": 86,
                    "time": 381.19570300000294,
                    "velocity": 0.4645669291338583,
                    "duration": 0.16304350000001477
                },
                {
                    "name": "C#6",
                    "midi": 85,
                    "time": 381.35874650000295,
                    "velocity": 0.4566929133858268,
                    "duration": 0.16304350000001477
                },
                {
                    "name": "D6",
                    "midi": 86,
                    "time": 381.684833500003,
                    "velocity": 0.4881889763779528,
                    "duration": 0.16304350000001477
                },
                {
                    "name": "C#5",
                    "midi": 73,
                    "time": 381.847877000003,
                    "velocity": 0.3937007874015748,
                    "duration": 0.16304350000001477
                },
                {
                    "name": "C#6",
                    "midi": 85,
                    "time": 382.010920500003,
                    "velocity": 0.4251968503937008,
                    "duration": 0.16304350000001477
                },
                {
                    "name": "C#6",
                    "midi": 85,
                    "time": 382.33700750000304,
                    "velocity": 0.4409448818897638,
                    "duration": 0.16304350000001477
                },
                {
                    "name": "B4",
                    "midi": 71,
                    "time": 382.50005100000305,
                    "velocity": 0.3543307086614173,
                    "duration": 0.16304350000001477
                },
                {
                    "name": "B5",
                    "midi": 83,
                    "time": 382.66309450000307,
                    "velocity": 0.3858267716535433,
                    "duration": 0.16304350000001477
                },
                {
                    "name": "B5",
                    "midi": 83,
                    "time": 382.9891815000031,
                    "velocity": 0.3937007874015748,
                    "duration": 0.16304350000001477
                },
                {
                    "name": "A4",
                    "midi": 69,
                    "time": 383.1522250000031,
                    "velocity": 0.31496062992125984,
                    "duration": 0.16304350000001477
                },
                {
                    "name": "A5",
                    "midi": 81,
                    "time": 383.3152685000031,
                    "velocity": 0.3700787401574803,
                    "duration": 0.16304350000001477
                },
                {
                    "name": "B5",
                    "midi": 83,
                    "time": 383.47831200000314,
                    "velocity": 0.44881889763779526,
                    "duration": 0.16304350000001477
                },
                {
                    "name": "A4",
                    "midi": 69,
                    "time": 383.64135550000316,
                    "velocity": 0.3543307086614173,
                    "duration": 0.16304350000001477
                },
                {
                    "name": "B5",
                    "midi": 83,
                    "time": 383.8043990000032,
                    "velocity": 0.4251968503937008,
                    "duration": 0.16304350000001477
                },
                {
                    "name": "A5",
                    "midi": 81,
                    "time": 383.9674425000032,
                    "velocity": 0.4015748031496063,
                    "duration": 0.16304350000001477
                },
                {
                    "name": "G#5",
                    "midi": 80,
                    "time": 384.1304860000032,
                    "velocity": 0.49606299212598426,
                    "duration": 0.16304350000001477
                },
                {
                    "name": "A5",
                    "midi": 81,
                    "time": 384.2935295000032,
                    "velocity": 0.4094488188976378,
                    "duration": 0.16304350000001477
                },
                {
                    "name": "A4",
                    "midi": 69,
                    "time": 384.45657300000323,
                    "velocity": 0.33070866141732286,
                    "duration": 0.16304350000001477
                },
                {
                    "name": "A5",
                    "midi": 81,
                    "time": 384.61961650000325,
                    "velocity": 0.4015748031496063,
                    "duration": 0.16304350000001477
                },
                {
                    "name": "A5",
                    "midi": 81,
                    "time": 384.78266000000326,
                    "velocity": 0.3858267716535433,
                    "duration": 0.16304350000001477
                },
                {
                    "name": "G#4",
                    "midi": 68,
                    "time": 384.9457035000033,
                    "velocity": 0.33070866141732286,
                    "duration": 0.16304350000001477
                },
                {
                    "name": "A5",
                    "midi": 81,
                    "time": 385.1087470000033,
                    "velocity": 0.3779527559055118,
                    "duration": 0.16304350000001477
                },
                {
                    "name": "G#5",
                    "midi": 80,
                    "time": 385.2717905000033,
                    "velocity": 0.3700787401574803,
                    "duration": 0.16304350000001477
                },
                {
                    "name": "G#5",
                    "midi": 80,
                    "time": 385.59787750000334,
                    "velocity": 0.3937007874015748,
                    "duration": 0.16304350000001477
                },
                {
                    "name": "G#4",
                    "midi": 68,
                    "time": 385.76092100000335,
                    "velocity": 0.3228346456692913,
                    "duration": 0.16304350000001477
                },
                {
                    "name": "G#5",
                    "midi": 80,
                    "time": 385.92396450000336,
                    "velocity": 0.3858267716535433,
                    "duration": 0.16304350000001477
                },
                {
                    "name": "G#6",
                    "midi": 92,
                    "time": 386.2500515000034,
                    "velocity": 0.3779527559055118,
                    "duration": 0.16304350000001477
                },
                {
                    "name": "G#5",
                    "midi": 80,
                    "time": 386.4130950000034,
                    "velocity": 0.41732283464566927,
                    "duration": 0.16304350000001477
                },
                {
                    "name": "G#6",
                    "midi": 92,
                    "time": 386.5761385000034,
                    "velocity": 0.3779527559055118,
                    "duration": 0.16304350000001477
                },
                {
                    "name": "G6",
                    "midi": 91,
                    "time": 386.90222550000345,
                    "velocity": 0.3464566929133858,
                    "duration": 0.16304350000001477
                },
                {
                    "name": "G5",
                    "midi": 79,
                    "time": 387.06526900000347,
                    "velocity": 0.4015748031496063,
                    "duration": 0.16304350000001477
                },
                {
                    "name": "G6",
                    "midi": 91,
                    "time": 387.2283125000035,
                    "velocity": 0.3700787401574803,
                    "duration": 0.16304350000001477
                },
                {
                    "name": "G6",
                    "midi": 91,
                    "time": 387.5543995000035,
                    "velocity": 0.36220472440944884,
                    "duration": 0.16304350000001477
                },
                {
                    "name": "G5",
                    "midi": 79,
                    "time": 387.7174430000035,
                    "velocity": 0.4094488188976378,
                    "duration": 0.16304350000001477
                },
                {
                    "name": "G6",
                    "midi": 91,
                    "time": 387.88048650000354,
                    "velocity": 0.36220472440944884,
                    "duration": 0.16304350000001477
                },
                {
                    "name": "G6",
                    "midi": 91,
                    "time": 388.20657350000357,
                    "velocity": 0.3543307086614173,
                    "duration": 0.16304350000001477
                },
                {
                    "name": "B5",
                    "midi": 83,
                    "time": 388.3696170000036,
                    "velocity": 0.4015748031496063,
                    "duration": 0.16304350000001477
                },
                {
                    "name": "B6",
                    "midi": 95,
                    "time": 388.5326605000036,
                    "velocity": 0.3543307086614173,
                    "duration": 0.16304350000001477
                },
                {
                    "name": "B6",
                    "midi": 95,
                    "time": 388.85874750000363,
                    "velocity": 0.3464566929133858,
                    "duration": 0.16304350000001477
                },
                {
                    "name": "A5",
                    "midi": 81,
                    "time": 389.02179100000365,
                    "velocity": 0.3779527559055118,
                    "duration": 0.16304350000001477
                },
                {
                    "name": "A6",
                    "midi": 93,
                    "time": 389.18483450000366,
                    "velocity": 0.33858267716535434,
                    "duration": 0.16304350000001477
                },
                {
                    "name": "A6",
                    "midi": 93,
                    "time": 389.5109215000037,
                    "velocity": 0.33858267716535434,
                    "duration": 0.16304350000001477
                },
                {
                    "name": "G5",
                    "midi": 79,
                    "time": 389.6739650000037,
                    "velocity": 0.3858267716535433,
                    "duration": 0.16304350000001477
                },
                {
                    "name": "G6",
                    "midi": 91,
                    "time": 389.8370085000037,
                    "velocity": 0.3543307086614173,
                    "duration": 0.16304350000001477
                },
                {
                    "name": "G6",
                    "midi": 91,
                    "time": 390.16309550000375,
                    "velocity": 0.3779527559055118,
                    "duration": 0.16304350000001477
                },
                {
                    "name": "G5",
                    "midi": 79,
                    "time": 390.32613900000376,
                    "velocity": 0.44881889763779526,
                    "duration": 0.16304350000001477
                },
                {
                    "name": "G6",
                    "midi": 91,
                    "time": 390.4891825000038,
                    "velocity": 0.4015748031496063,
                    "duration": 0.16304350000001477
                },
                {
                    "name": "G6",
                    "midi": 91,
                    "time": 390.8152695000038,
                    "velocity": 0.4330708661417323,
                    "duration": 0.16304350000001477
                },
                {
                    "name": "G5",
                    "midi": 79,
                    "time": 390.9783130000038,
                    "velocity": 0.48031496062992124,
                    "duration": 0.16304350000001477
                },
                {
                    "name": "F#5",
                    "midi": 78,
                    "time": 391.14135650000384,
                    "velocity": 0.44881889763779526,
                    "duration": 0.16304350000001477
                },
                {
                    "name": "F#6",
                    "midi": 90,
                    "time": 391.14135650000384,
                    "velocity": 0.44881889763779526,
                    "duration": 0.16304350000001477
                },
                {
                    "name": "F#6",
                    "midi": 90,
                    "time": 391.46744350000387,
                    "velocity": 0.47244094488188976,
                    "duration": 0.16304350000001477
                },
                {
                    "name": "E5",
                    "midi": 76,
                    "time": 391.6304870000039,
                    "velocity": 0.4330708661417323,
                    "duration": 0.16304350000001477
                },
                {
                    "name": "E6",
                    "midi": 88,
                    "time": 391.7935305000039,
                    "velocity": 0.49606299212598426,
                    "duration": 0.16304350000001477
                },
                {
                    "name": "E6",
                    "midi": 88,
                    "time": 392.1196175000039,
                    "velocity": 0.47244094488188976,
                    "duration": 0.16304350000001477
                },
                {
                    "name": "E5",
                    "midi": 76,
                    "time": 392.28266100000394,
                    "velocity": 0.41732283464566927,
                    "duration": 0.16304350000001477
                },
                {
                    "name": "E6",
                    "midi": 88,
                    "time": 392.44570450000396,
                    "velocity": 0.44881889763779526,
                    "duration": 0.16304350000001477
                },
                {
                    "name": "E6",
                    "midi": 88,
                    "time": 392.771791500004,
                    "velocity": 0.41732283464566927,
                    "duration": 0.16304350000001477
                },
                {
                    "name": "E5",
                    "midi": 76,
                    "time": 392.934835000004,
                    "velocity": 0.44881889763779526,
                    "duration": 0.16304350000001477
                },
                {
                    "name": "F#5",
                    "midi": 78,
                    "time": 393.097878500004,
                    "velocity": 0.3937007874015748,
                    "duration": 0.16304350000001477
                },
                {
                    "name": "F#6",
                    "midi": 90,
                    "time": 393.097878500004,
                    "velocity": 0.3937007874015748,
                    "duration": 0.16304350000001477
                },
                {
                    "name": "F#6",
                    "midi": 90,
                    "time": 393.42396550000404,
                    "velocity": 0.3700787401574803,
                    "duration": 0.16304350000001477
                },
                {
                    "name": "G5",
                    "midi": 79,
                    "time": 393.58700900000406,
                    "velocity": 0.4251968503937008,
                    "duration": 0.16304350000001477
                },
                {
                    "name": "G6",
                    "midi": 91,
                    "time": 393.7500525000041,
                    "velocity": 0.3464566929133858,
                    "duration": 0.16304350000001477
                },
                {
                    "name": "G6",
                    "midi": 91,
                    "time": 394.0761395000041,
                    "velocity": 0.33858267716535434,
                    "duration": 0.16304350000001477
                },
                {
                    "name": "G5",
                    "midi": 79,
                    "time": 394.2391830000041,
                    "velocity": 0.3937007874015748,
                    "duration": 0.16304350000001477
                },
                {
                    "name": "G6",
                    "midi": 91,
                    "time": 394.40222650000413,
                    "velocity": 0.33858267716535434,
                    "duration": 0.16304350000001477
                },
                {
                    "name": "G6",
                    "midi": 91,
                    "time": 394.72831350000416,
                    "velocity": 0.33858267716535434,
                    "duration": 0.16304350000001477
                },
                {
                    "name": "G5",
                    "midi": 79,
                    "time": 394.8913570000042,
                    "velocity": 0.4015748031496063,
                    "duration": 0.16304350000001477
                },
                {
                    "name": "F#5",
                    "midi": 78,
                    "time": 395.0544005000042,
                    "velocity": 0.33858267716535434,
                    "duration": 0.16304350000001477
                },
                {
                    "name": "F#6",
                    "midi": 90,
                    "time": 395.0544005000042,
                    "velocity": 0.33858267716535434,
                    "duration": 0.16304350000001477
                },
                {
                    "name": "F#6",
                    "midi": 90,
                    "time": 395.2174440000042,
                    "velocity": 0.4094488188976378,
                    "duration": 0.16304350000001477
                },
                {
                    "name": "F#5",
                    "midi": 78,
                    "time": 395.3804875000042,
                    "velocity": 0.33858267716535434,
                    "duration": 0.16304350000001477
                },
                {
                    "name": "F#5",
                    "midi": 78,
                    "time": 395.54353100000424,
                    "velocity": 0.33858267716535434,
                    "duration": 0.16304350000001477
                },
                {
                    "name": "F#6",
                    "midi": 90,
                    "time": 395.70657450000425,
                    "velocity": 0.33858267716535434,
                    "duration": 0.16304350000001477
                },
                {
                    "name": "A6",
                    "midi": 93,
                    "time": 395.86961800000427,
                    "velocity": 0.3937007874015748,
                    "duration": 0.16304350000001477
                },
                {
                    "name": "A5",
                    "midi": 81,
                    "time": 396.0326615000043,
                    "velocity": 0.28346456692913385,
                    "duration": 0.16304350000001477
                },
                {
                    "name": "A5",
                    "midi": 81,
                    "time": 396.1957050000043,
                    "velocity": 0.33858267716535434,
                    "duration": 0.16304350000001477
                },
                {
                    "name": "A6",
                    "midi": 93,
                    "time": 396.3587485000043,
                    "velocity": 0.33858267716535434,
                    "duration": 0.16304350000001477
                },
                {
                    "name": "C#7",
                    "midi": 97,
                    "time": 396.5217920000043,
                    "velocity": 0.3937007874015748,
                    "duration": 0.16304350000001477
                },
                {
                    "name": "C#6",
                    "midi": 85,
                    "time": 396.68483550000434,
                    "velocity": 0.33858267716535434,
                    "duration": 0.16304350000001477
                },
                {
                    "name": "C#6",
                    "midi": 85,
                    "time": 396.84787900000435,
                    "velocity": 0.3858267716535433,
                    "duration": 0.16304350000001477
                },
                {
                    "name": "C#7",
                    "midi": 97,
                    "time": 397.01092250000437,
                    "velocity": 0.33858267716535434,
                    "duration": 0.16304350000001477
                },
                {
                    "name": "C#7",
                    "midi": 97,
                    "time": 397.3370095000044,
                    "velocity": 0.33858267716535434,
                    "duration": 0.16304350000001477
                },
                {
                    "name": "C#6",
                    "midi": 85,
                    "time": 397.5000530000044,
                    "velocity": 0.3858267716535433,
                    "duration": 0.16304350000001477
                },
                {
                    "name": "C#7",
                    "midi": 97,
                    "time": 397.66309650000443,
                    "velocity": 0.3543307086614173,
                    "duration": 0.16304350000001477
                },
                {
                    "name": "C#6",
                    "midi": 85,
                    "time": 397.98918350000446,
                    "velocity": 0.3779527559055118,
                    "duration": 0.16304350000001477
                },
                {
                    "name": "C#5",
                    "midi": 73,
                    "time": 398.1522270000045,
                    "velocity": 0.3543307086614173,
                    "duration": 0.16304350000001477
                },
                {
                    "name": "C#6",
                    "midi": 85,
                    "time": 398.3152705000045,
                    "velocity": 0.4015748031496063,
                    "duration": 0.16304350000001477
                },
                {
                    "name": "C#7",
                    "midi": 97,
                    "time": 398.6413575000045,
                    "velocity": 0.4330708661417323,
                    "duration": 0.16304350000001477
                },
                {
                    "name": "C#6",
                    "midi": 85,
                    "time": 398.80440100000453,
                    "velocity": 0.5118110236220472,
                    "duration": 0.16304350000001477
                },
                {
                    "name": "C#7",
                    "midi": 97,
                    "time": 398.96744450000455,
                    "velocity": 0.44881889763779526,
                    "duration": 0.16304350000001477
                },
                {
                    "name": "C#6",
                    "midi": 85,
                    "time": 399.2935315000046,
                    "velocity": 0.47244094488188976,
                    "duration": 0.16304350000001477
                },
                {
                    "name": "C#5",
                    "midi": 73,
                    "time": 399.4565750000046,
                    "velocity": 0.3779527559055118,
                    "duration": 0.16304350000001477
                },
                {
                    "name": "C#6",
                    "midi": 85,
                    "time": 399.6196185000046,
                    "velocity": 0.49606299212598426,
                    "duration": 0.16304350000001477
                },
                {
                    "name": "C#7",
                    "midi": 97,
                    "time": 399.94570550000464,
                    "velocity": 0.41732283464566927,
                    "duration": 0.16304350000001477
                },
                {
                    "name": "C#6",
                    "midi": 85,
                    "time": 400.10874900000465,
                    "velocity": 0.48031496062992124,
                    "duration": 0.16304350000001477
                },
                {
                    "name": "C#7",
                    "midi": 97,
                    "time": 400.27179250000466,
                    "velocity": 0.4645669291338583,
                    "duration": 0.16304350000001477
                },
                {
                    "name": "A6",
                    "midi": 93,
                    "time": 400.4348360000047,
                    "velocity": 0.4330708661417323,
                    "duration": 0.16304350000001477
                },
                {
                    "name": "A5",
                    "midi": 81,
                    "time": 400.5978795000047,
                    "velocity": 0.4251968503937008,
                    "duration": 0.16304350000001477
                },
                {
                    "name": "A5",
                    "midi": 81,
                    "time": 400.7609230000047,
                    "velocity": 0.4094488188976378,
                    "duration": 0.16304350000001477
                },
                {
                    "name": "A6",
                    "midi": 93,
                    "time": 400.9239665000047,
                    "velocity": 0.3858267716535433,
                    "duration": 0.16304350000001477
                },
                {
                    "name": "A6",
                    "midi": 93,
                    "time": 401.08701000000474,
                    "velocity": 0.4094488188976378,
                    "duration": 0.16304350000001477
                },
                {
                    "name": "A5",
                    "midi": 81,
                    "time": 401.25005350000475,
                    "velocity": 0.3228346456692913,
                    "duration": 0.16304350000001477
                },
                {
                    "name": "A5",
                    "midi": 81,
                    "time": 401.41309700000477,
                    "velocity": 0.3700787401574803,
                    "duration": 0.16304350000001477
                },
                {
                    "name": "A6",
                    "midi": 93,
                    "time": 401.5761405000048,
                    "velocity": 0.3464566929133858,
                    "duration": 0.16304350000001477
                },
                {
                    "name": "F#6",
                    "midi": 90,
                    "time": 401.7391840000048,
                    "velocity": 0.4094488188976378,
                    "duration": 0.16304350000001477
                },
                {
                    "name": "F#5",
                    "midi": 78,
                    "time": 401.9022275000048,
                    "velocity": 0.3700787401574803,
                    "duration": 0.16304350000001477
                },
                {
                    "name": "F#5",
                    "midi": 78,
                    "time": 402.0652710000048,
                    "velocity": 0.3700787401574803,
                    "duration": 0.16304350000001477
                },
                {
                    "name": "F#4",
                    "midi": 66,
                    "time": 402.22831450000484,
                    "velocity": 0.36220472440944884,
                    "duration": 0.16304350000001477
                },
                {
                    "name": "F5",
                    "midi": 77,
                    "time": 402.39135800000486,
                    "velocity": 0.3937007874015748,
                    "duration": 0.16304350000001477
                },
                {
                    "name": "G#5",
                    "midi": 80,
                    "time": 402.39135800000486,
                    "velocity": 0.4645669291338583,
                    "duration": 0.16304350000001477
                },
                {
                    "name": "B4",
                    "midi": 71,
                    "time": 402.39135800000486,
                    "velocity": 0.3937007874015748,
                    "duration": 0.16304350000001477
                },
                {
                    "name": "G#4",
                    "midi": 68,
                    "time": 402.5544015000049,
                    "velocity": 0.4409448818897638,
                    "duration": 0.16304350000001477
                },
                {
                    "name": "F#5",
                    "midi": 78,
                    "time": 402.7174450000049,
                    "velocity": 0.3937007874015748,
                    "duration": 0.16304350000001477
                },
                {
                    "name": "A5",
                    "midi": 81,
                    "time": 402.7174450000049,
                    "velocity": 0.4645669291338583,
                    "duration": 0.16304350000001477
                },
                {
                    "name": "C#5",
                    "midi": 73,
                    "time": 402.7174450000049,
                    "velocity": 0.3937007874015748,
                    "duration": 0.16304350000001477
                },
                {
                    "name": "A4",
                    "midi": 69,
                    "time": 402.8804885000049,
                    "velocity": 0.4881889763779528,
                    "duration": 0.16304350000001477
                },
                {
                    "name": "G#5",
                    "midi": 80,
                    "time": 403.0435320000049,
                    "velocity": 0.4330708661417323,
                    "duration": 0.6521740000000023
                },
                {
                    "name": "B5",
                    "midi": 83,
                    "time": 403.0435320000049,
                    "velocity": 0.5118110236220472,
                    "duration": 0.6521740000000023
                },
                {
                    "name": "B4",
                    "midi": 71,
                    "time": 403.0435320000049,
                    "velocity": 0.4330708661417323,
                    "duration": 0.6521740000000023
                },
                {
                    "name": "G#4",
                    "midi": 68,
                    "time": 403.6957060000049,
                    "velocity": 0.3937007874015748,
                    "duration": 0.6521740000000023
                },
                {
                    "name": "B4",
                    "midi": 71,
                    "time": 403.6957060000049,
                    "velocity": 0.4645669291338583,
                    "duration": 0.6521740000000023
                },
                {
                    "name": "D4",
                    "midi": 62,
                    "time": 403.6957060000049,
                    "velocity": 0.3937007874015748,
                    "duration": 0.6521740000000023
                },
                {
                    "name": "C#4",
                    "midi": 61,
                    "time": 404.3478800000049,
                    "velocity": 0.3937007874015748,
                    "duration": 0.6521740000000023
                },
                {
                    "name": "F#4",
                    "midi": 66,
                    "time": 404.3478800000049,
                    "velocity": 0.3937007874015748,
                    "duration": 0.6521740000000023
                },
                {
                    "name": "A4",
                    "midi": 69,
                    "time": 404.3478800000049,
                    "velocity": 0.4645669291338583,
                    "duration": 0.6521740000000023
                },
                {
                    "name": "B3",
                    "midi": 59,
                    "time": 405.0000540000049,
                    "velocity": 0.4015748031496063,
                    "duration": 0.6521740000000023
                },
                {
                    "name": "D4",
                    "midi": 62,
                    "time": 405.0000540000049,
                    "velocity": 0.4015748031496063,
                    "duration": 0.6521740000000023
                },
                {
                    "name": "A4",
                    "midi": 69,
                    "time": 405.0000540000049,
                    "velocity": 0.5118110236220472,
                    "duration": 0.6521740000000023
                },
                {
                    "name": "F4",
                    "midi": 65,
                    "time": 405.0000540000049,
                    "velocity": 0.4330708661417323,
                    "duration": 0.6521740000000023
                },
                {
                    "name": "D4",
                    "midi": 62,
                    "time": 405.6522280000049,
                    "velocity": 0.3937007874015748,
                    "duration": 0.6521740000000023
                },
                {
                    "name": "B3",
                    "midi": 59,
                    "time": 405.6522280000049,
                    "velocity": 0.3937007874015748,
                    "duration": 0.6521740000000023
                },
                {
                    "name": "G#4",
                    "midi": 68,
                    "time": 405.6522280000049,
                    "velocity": 0.4645669291338583,
                    "duration": 0.6521740000000023
                },
                {
                    "name": "F4",
                    "midi": 65,
                    "time": 405.6522280000049,
                    "velocity": 0.4645669291338583,
                    "duration": 0.6521740000000023
                },
                {
                    "name": "D#4",
                    "midi": 63,
                    "time": 406.3044020000049,
                    "velocity": 0.3937007874015748,
                    "duration": 0.6521740000000023
                },
                {
                    "name": "A3",
                    "midi": 57,
                    "time": 406.3044020000049,
                    "velocity": 0.3937007874015748,
                    "duration": 0.6521740000000023
                },
                {
                    "name": "F#4",
                    "midi": 66,
                    "time": 406.3044020000049,
                    "velocity": 0.4645669291338583,
                    "duration": 0.6521740000000023
                },
                {
                    "name": "D#4",
                    "midi": 63,
                    "time": 406.95657600000493,
                    "velocity": 0.4409448818897638,
                    "duration": 0.978260999999975
                },
                {
                    "name": "F#4",
                    "midi": 66,
                    "time": 406.95657600000493,
                    "velocity": 0.5196850393700787,
                    "duration": 1.956521999999893
                },
                {
                    "name": "A3",
                    "midi": 57,
                    "time": 406.95657600000493,
                    "velocity": 0.4409448818897638,
                    "duration": 1.956521999999893
                },
                {
                    "name": "C4",
                    "midi": 60,
                    "time": 407.9348370000049,
                    "velocity": 0.4330708661417323,
                    "duration": 0.3260869999999727
                },
                {
                    "name": "C#4",
                    "midi": 61,
                    "time": 408.2609240000049,
                    "velocity": 0.4330708661417323,
                    "duration": 0.3260869999999727
                },
                {
                    "name": "C4",
                    "midi": 60,
                    "time": 408.58701100000485,
                    "velocity": 0.4330708661417323,
                    "duration": 0.3260869999999727
                },
                {
                    "name": "G#3",
                    "midi": 56,
                    "time": 408.9130980000048,
                    "velocity": 0.3937007874015748,
                    "duration": 1.956521999999893
                },
                {
                    "name": "F4",
                    "midi": 65,
                    "time": 408.9130980000048,
                    "velocity": 0.4645669291338583,
                    "duration": 1.956521999999893
                },
                {
                    "name": "C#4",
                    "midi": 61,
                    "time": 408.9130980000048,
                    "velocity": 0.3937007874015748,
                    "duration": 1.956521999999893
                },
                {
                    "name": "G#4",
                    "midi": 68,
                    "time": 409.8913590000048,
                    "velocity": 0.44881889763779526,
                    "duration": 0.3260869999999727
                },
                {
                    "name": "B4",
                    "midi": 71,
                    "time": 410.21744600000477,
                    "velocity": 0.47244094488188976,
                    "duration": 0.3260869999999727
                },
                {
                    "name": "D5",
                    "midi": 74,
                    "time": 410.54353300000474,
                    "velocity": 0.49606299212598426,
                    "duration": 0.3260869999999727
                },
                {
                    "name": "G#4",
                    "midi": 68,
                    "time": 410.8696200000047,
                    "velocity": 0.4330708661417323,
                    "duration": 0.6467392166666741
                },
                {
                    "name": "D4",
                    "midi": 62,
                    "time": 410.8696200000047,
                    "velocity": 0.36220472440944884,
                    "duration": 0.6467392166666741
                },
                {
                    "name": "D5",
                    "midi": 74,
                    "time": 410.8696200000047,
                    "velocity": 0.5118110236220472,
                    "duration": 0.6467392166666741
                },
                {
                    "name": "F4",
                    "midi": 65,
                    "time": 410.8696200000047,
                    "velocity": 0.36220472440944884,
                    "duration": 0.6467392166666741
                },
                {
                    "name": "B4",
                    "midi": 71,
                    "time": 410.8696200000047,
                    "velocity": 0.4330708661417323,
                    "duration": 0.6467392166666741
                },
                {
                    "name": "G#4",
                    "midi": 68,
                    "time": 411.5217940000047,
                    "velocity": 0.3937007874015748,
                    "duration": 0.6467392166666741
                },
                {
                    "name": "D5",
                    "midi": 74,
                    "time": 411.5217940000047,
                    "velocity": 0.4645669291338583,
                    "duration": 0.6467392166666741
                },
                {
                    "name": "D4",
                    "midi": 62,
                    "time": 411.5217940000047,
                    "velocity": 0.3937007874015748,
                    "duration": 0.6467392166666741
                },
                {
                    "name": "B4",
                    "midi": 71,
                    "time": 411.5217940000047,
                    "velocity": 0.3937007874015748,
                    "duration": 0.6467392166666741
                },
                {
                    "name": "C#4",
                    "midi": 61,
                    "time": 412.1739680000047,
                    "velocity": 0.3937007874015748,
                    "duration": 0.6467392166666741
                },
                {
                    "name": "C#5",
                    "midi": 73,
                    "time": 412.1739680000047,
                    "velocity": 0.4645669291338583,
                    "duration": 0.6467392166666741
                },
                {
                    "name": "A4",
                    "midi": 69,
                    "time": 412.1739680000047,
                    "velocity": 0.3937007874015748,
                    "duration": 0.6467392166666741
                },
                {
                    "name": "G#4",
                    "midi": 68,
                    "time": 412.8261420000047,
                    "velocity": 0.4330708661417323,
                    "duration": 0.6467392166666741
                },
                {
                    "name": "C#5",
                    "midi": 73,
                    "time": 412.8261420000047,
                    "velocity": 0.5118110236220472,
                    "duration": 0.6467392166666741
                },
                {
                    "name": "F4",
                    "midi": 65,
                    "time": 412.8261420000047,
                    "velocity": 0.4330708661417323,
                    "duration": 0.6467392166666741
                },
                {
                    "name": "D4",
                    "midi": 62,
                    "time": 412.8261420000047,
                    "velocity": 0.4330708661417323,
                    "duration": 0.6467392166666741
                },
                {
                    "name": "G#4",
                    "midi": 68,
                    "time": 413.4783160000047,
                    "velocity": 0.3937007874015748,
                    "duration": 0.6467392166666741
                },
                {
                    "name": "B4",
                    "midi": 71,
                    "time": 413.4783160000047,
                    "velocity": 0.4645669291338583,
                    "duration": 0.6467392166666741
                },
                {
                    "name": "F4",
                    "midi": 65,
                    "time": 413.4783160000047,
                    "velocity": 0.4645669291338583,
                    "duration": 0.6467392166666741
                },
                {
                    "name": "D4",
                    "midi": 62,
                    "time": 413.4783160000047,
                    "velocity": 0.3937007874015748,
                    "duration": 0.6467392166666741
                },
                {
                    "name": "D#4",
                    "midi": 63,
                    "time": 414.1304900000047,
                    "velocity": 0.3937007874015748,
                    "duration": 0.6467392166666741
                },
                {
                    "name": "F#4",
                    "midi": 66,
                    "time": 414.1304900000047,
                    "velocity": 0.3937007874015748,
                    "duration": 0.6467392166666741
                },
                {
                    "name": "A4",
                    "midi": 69,
                    "time": 414.1304900000047,
                    "velocity": 0.4645669291338583,
                    "duration": 0.6467392166666741
                },
                {
                    "name": "F#4",
                    "midi": 66,
                    "time": 414.78266400000473,
                    "velocity": 0.4409448818897638,
                    "duration": 1.3043479999999477
                },
                {
                    "name": "A4",
                    "midi": 69,
                    "time": 414.78266400000473,
                    "velocity": 0.5196850393700787,
                    "duration": 1.3043479999999477
                },
                {
                    "name": "C4",
                    "midi": 60,
                    "time": 415.43483800000473,
                    "velocity": 0.4330708661417323,
                    "duration": 0.3260869999999727
                },
                {
                    "name": "C#4",
                    "midi": 61,
                    "time": 415.7609250000047,
                    "velocity": 0.4330708661417323,
                    "duration": 0.3260869999999727
                },
                {
                    "name": "F4",
                    "midi": 65,
                    "time": 416.0870120000047,
                    "velocity": 0.4015748031496063,
                    "duration": 0.6521739999999454
                },
                {
                    "name": "G#4",
                    "midi": 68,
                    "time": 416.0870120000047,
                    "velocity": 0.4015748031496063,
                    "duration": 0.6521739999999454
                },
                {
                    "name": "C4",
                    "midi": 60,
                    "time": 416.0870120000047,
                    "velocity": 0.4330708661417323,
                    "duration": 0.3260869999999727
                },
                {
                    "name": "C#4",
                    "midi": 61,
                    "time": 416.41309900000465,
                    "velocity": 0.4330708661417323,
                    "duration": 0.3260869999999727
                },
                {
                    "name": "C#4",
                    "midi": 61,
                    "time": 416.7391860000046,
                    "velocity": 0.3937007874015748,
                    "duration": 0.6521740000000023
                },
                {
                    "name": "G#3",
                    "midi": 56,
                    "time": 416.7391860000046,
                    "velocity": 0.3937007874015748,
                    "duration": 0.6521740000000023
                },
                {
                    "name": "F4",
                    "midi": 65,
                    "time": 416.7391860000046,
                    "velocity": 0.3937007874015748,
                    "duration": 0.6521740000000023
                },
                {
                    "name": "G#4",
                    "midi": 68,
                    "time": 416.7391860000046,
                    "velocity": 0.4645669291338583,
                    "duration": 0.6521740000000023
                },
                {
                    "name": "G3",
                    "midi": 55,
                    "time": 417.3913600000046,
                    "velocity": 0.25984251968503935,
                    "duration": 0.6521740000000023
                },
                {
                    "name": "A#3",
                    "midi": 58,
                    "time": 417.3913600000046,
                    "velocity": 0.25984251968503935,
                    "duration": 0.6521740000000023
                },
                {
                    "name": "E4",
                    "midi": 64,
                    "time": 417.3913600000046,
                    "velocity": 0.30708661417322836,
                    "duration": 0.6521740000000023
                },
                {
                    "name": "G4",
                    "midi": 67,
                    "time": 417.3913600000046,
                    "velocity": 0.3779527559055118,
                    "duration": 1.1413044999999897
                },
                {
                    "name": "G3",
                    "midi": 55,
                    "time": 418.0435340000046,
                    "velocity": 0.25984251968503935,
                    "duration": 0.6521740000000023
                },
                {
                    "name": "B3",
                    "midi": 59,
                    "time": 418.0435340000046,
                    "velocity": 0.25984251968503935,
                    "duration": 0.6521740000000023
                },
                {
                    "name": "D4",
                    "midi": 62,
                    "time": 418.0435340000046,
                    "velocity": 0.30708661417322836,
                    "duration": 0.6521740000000023
                },
                {
                    "name": "G4",
                    "midi": 67,
                    "time": 418.5326645000046,
                    "velocity": 0.3700787401574803,
                    "duration": 0.16304350000001477
                },
                {
                    "name": "B5",
                    "midi": 83,
                    "time": 418.69570800000463,
                    "velocity": 0.49606299212598426,
                    "duration": 1.3043480000000045
                },
                {
                    "name": "B4",
                    "midi": 71,
                    "time": 419.34788200000463,
                    "velocity": 0.3700787401574803,
                    "duration": 0.6521740000000023
                },
                {
                    "name": "A4",
                    "midi": 69,
                    "time": 420.00005600000463,
                    "velocity": 0.29133858267716534,
                    "duration": 0.6467392166666741
                },
                {
                    "name": "A5",
                    "midi": 81,
                    "time": 420.00005600000463,
                    "velocity": 0.3937007874015748,
                    "duration": 0.6467392166666741
                },
                {
                    "name": "A4",
                    "midi": 69,
                    "time": 420.65223000000464,
                    "velocity": 0.31496062992125984,
                    "duration": 0.6521740000000023
                },
                {
                    "name": "A5",
                    "midi": 81,
                    "time": 420.65223000000464,
                    "velocity": 0.4330708661417323,
                    "duration": 0.6521740000000023
                },
                {
                    "name": "G4",
                    "midi": 67,
                    "time": 421.30440400000464,
                    "velocity": 0.2755905511811024,
                    "duration": 0.6521740000000023
                },
                {
                    "name": "G5",
                    "midi": 79,
                    "time": 421.30440400000464,
                    "velocity": 0.3779527559055118,
                    "duration": 0.6521740000000023
                },
                {
                    "name": "G4",
                    "midi": 67,
                    "time": 421.95657800000464,
                    "velocity": 0.28346456692913385,
                    "duration": 0.6521739999999454
                },
                {
                    "name": "B4",
                    "midi": 71,
                    "time": 421.95657800000464,
                    "velocity": 0.28346456692913385,
                    "duration": 0.3260869999999727
                },
                {
                    "name": "G5",
                    "midi": 79,
                    "time": 421.95657800000464,
                    "velocity": 0.3858267716535433,
                    "duration": 0.3260869999999727
                },
                {
                    "name": "D5",
                    "midi": 74,
                    "time": 422.2826650000046,
                    "velocity": 0.25984251968503935,
                    "duration": 0.3260869999999727
                },
                {
                    "name": "F#5",
                    "midi": 78,
                    "time": 422.2826650000046,
                    "velocity": 0.3464566929133858,
                    "duration": 0.3260869999999727
                },
                {
                    "name": "G4",
                    "midi": 67,
                    "time": 422.6087520000046,
                    "velocity": 0.31496062992125984,
                    "duration": 0.6521740000000023
                },
                {
                    "name": "D5",
                    "midi": 74,
                    "time": 422.6087520000046,
                    "velocity": 0.3779527559055118,
                    "duration": 0.6521740000000023
                },
                {
                    "name": "F#5",
                    "midi": 78,
                    "time": 422.6087520000046,
                    "velocity": 0.4330708661417323,
                    "duration": 0.6521740000000023
                },
                {
                    "name": "G4",
                    "midi": 67,
                    "time": 423.2609260000046,
                    "velocity": 0.28346456692913385,
                    "duration": 0.6521740000000023
                },
                {
                    "name": "C5",
                    "midi": 72,
                    "time": 423.2609260000046,
                    "velocity": 0.28346456692913385,
                    "duration": 0.6521740000000023
                },
                {
                    "name": "E5",
                    "midi": 76,
                    "time": 423.2609260000046,
                    "velocity": 0.3858267716535433,
                    "duration": 0.6521740000000023
                },
                {
                    "name": "E5",
                    "midi": 76,
                    "time": 423.9131000000046,
                    "velocity": 0.3779527559055118,
                    "duration": 0.3260869999999727
                },
                {
                    "name": "C5",
                    "midi": 72,
                    "time": 423.9131000000046,
                    "velocity": 0.2755905511811024,
                    "duration": 0.3260869999999727
                },
                {
                    "name": "G4",
                    "midi": 67,
                    "time": 423.9131000000046,
                    "velocity": 0.2755905511811024,
                    "duration": 0.3260869999999727
                },
                {
                    "name": "D#5",
                    "midi": 75,
                    "time": 424.23918700000456,
                    "velocity": 0.2992125984251969,
                    "duration": 0.3260869999999727
                },
                {
                    "name": "F#5",
                    "midi": 78,
                    "time": 424.23918700000456,
                    "velocity": 0.4015748031496063,
                    "duration": 0.3260869999999727
                },
                {
                    "name": "A4",
                    "midi": 69,
                    "time": 424.23918700000456,
                    "velocity": 0.2992125984251969,
                    "duration": 0.3260869999999727
                },
                {
                    "name": "C5",
                    "midi": 72,
                    "time": 424.23918700000456,
                    "velocity": 0.2992125984251969,
                    "duration": 0.3260869999999727
                },
                {
                    "name": "D#5",
                    "midi": 75,
                    "time": 424.56527400000454,
                    "velocity": 0.31496062992125984,
                    "duration": 0.3260869999999727
                },
                {
                    "name": "F#5",
                    "midi": 78,
                    "time": 424.56527400000454,
                    "velocity": 0.4330708661417323,
                    "duration": 0.3260869999999727
                },
                {
                    "name": "A4",
                    "midi": 69,
                    "time": 424.56527400000454,
                    "velocity": 0.31496062992125984,
                    "duration": 0.3260869999999727
                },
                {
                    "name": "C5",
                    "midi": 72,
                    "time": 424.56527400000454,
                    "velocity": 0.31496062992125984,
                    "duration": 0.3260869999999727
                },
                {
                    "name": "G5",
                    "midi": 79,
                    "time": 424.8913610000045,
                    "velocity": 0.3937007874015748,
                    "duration": 0.3260869999999727
                },
                {
                    "name": "D5",
                    "midi": 74,
                    "time": 424.8913610000045,
                    "velocity": 0.29133858267716534,
                    "duration": 0.3260869999999727
                },
                {
                    "name": "B4",
                    "midi": 71,
                    "time": 424.8913610000045,
                    "velocity": 0.29133858267716534,
                    "duration": 0.3260869999999727
                },
                {
                    "name": "B4",
                    "midi": 71,
                    "time": 425.2174480000045,
                    "velocity": 0.29133858267716534,
                    "duration": 0.6521740000000023
                },
                {
                    "name": "D5",
                    "midi": 74,
                    "time": 425.2174480000045,
                    "velocity": 0.29133858267716534,
                    "duration": 0.6521740000000023
                },
                {
                    "name": "G5",
                    "midi": 79,
                    "time": 425.2174480000045,
                    "velocity": 0.3937007874015748,
                    "duration": 0.6521740000000023
                },
                {
                    "name": "G4",
                    "midi": 67,
                    "time": 425.8696220000045,
                    "velocity": 0.31496062992125984,
                    "duration": 0.3260869999999727
                },
                {
                    "name": "F#3",
                    "midi": 54,
                    "time": 426.19570900000446,
                    "velocity": 0.23622047244094488,
                    "duration": 0.3260869999999727
                },
                {
                    "name": "F#4",
                    "midi": 66,
                    "time": 426.19570900000446,
                    "velocity": 0.28346456692913385,
                    "duration": 0.3260869999999727
                },
                {
                    "name": "F#3",
                    "midi": 54,
                    "time": 426.52179600000443,
                    "velocity": 0.2677165354330709,
                    "duration": 0.6467392166666741
                },
                {
                    "name": "F#4",
                    "midi": 66,
                    "time": 426.52179600000443,
                    "velocity": 0.31496062992125984,
                    "duration": 0.6467392166666741
                },
                {
                    "name": "A3",
                    "midi": 57,
                    "time": 427.17397000000443,
                    "velocity": 0.2440944881889764,
                    "duration": 0.6467392166666741
                },
                {
                    "name": "A4",
                    "midi": 69,
                    "time": 427.17397000000443,
                    "velocity": 0.29133858267716534,
                    "duration": 0.6467392166666741
                },
                {
                    "name": "F#4",
                    "midi": 66,
                    "time": 427.17397000000443,
                    "velocity": 0.2440944881889764,
                    "duration": 0.6467392166666741
                },
                {
                    "name": "C#4",
                    "midi": 61,
                    "time": 427.17397000000443,
                    "velocity": 0.2440944881889764,
                    "duration": 0.6467392166666741
                },
                {
                    "name": "C#4",
                    "midi": 61,
                    "time": 427.82614400000443,
                    "velocity": 0.2440944881889764,
                    "duration": 0.6467392166666741
                },
                {
                    "name": "C#5",
                    "midi": 73,
                    "time": 427.82614400000443,
                    "velocity": 0.29133858267716534,
                    "duration": 0.6467392166666741
                },
                {
                    "name": "A4",
                    "midi": 69,
                    "time": 427.82614400000443,
                    "velocity": 0.2440944881889764,
                    "duration": 0.6467392166666741
                },
                {
                    "name": "F#4",
                    "midi": 66,
                    "time": 427.82614400000443,
                    "velocity": 0.2440944881889764,
                    "duration": 0.6467392166666741
                },
                {
                    "name": "C#4",
                    "midi": 61,
                    "time": 428.47831800000444,
                    "velocity": 0.2677165354330709,
                    "duration": 1.2907610416666557
                },
                {
                    "name": "C#5",
                    "midi": 73,
                    "time": 428.47831800000444,
                    "velocity": 0.3228346456692913,
                    "duration": 1.2907610416666557
                },
                {
                    "name": "G#4",
                    "midi": 68,
                    "time": 428.47831800000444,
                    "velocity": 0.2677165354330709,
                    "duration": 1.2907610416666557
                },
                {
                    "name": "F4",
                    "midi": 65,
                    "time": 428.47831800000444,
                    "velocity": 0.2677165354330709,
                    "duration": 1.2907610416666557
                },
                {
                    "name": "C#4",
                    "midi": 61,
                    "time": 429.78266600000444,
                    "velocity": 0.2283464566929134,
                    "duration": 0.6467392166666741
                },
                {
                    "name": "C#5",
                    "midi": 73,
                    "time": 429.78266600000444,
                    "velocity": 0.2755905511811024,
                    "duration": 0.6467392166666741
                },
                {
                    "name": "A4",
                    "midi": 69,
                    "time": 429.78266600000444,
                    "velocity": 0.2283464566929134,
                    "duration": 0.6467392166666741
                },
                {
                    "name": "F#4",
                    "midi": 66,
                    "time": 429.78266600000444,
                    "velocity": 0.2283464566929134,
                    "duration": 0.6467392166666741
                },
                {
                    "name": "C#4",
                    "midi": 61,
                    "time": 430.43484000000444,
                    "velocity": 0.28346456692913385,
                    "duration": 0.6521740000000023
                },
                {
                    "name": "A4",
                    "midi": 69,
                    "time": 430.43484000000444,
                    "velocity": 0.28346456692913385,
                    "duration": 0.6521740000000023
                },
                {
                    "name": "C#5",
                    "midi": 73,
                    "time": 430.43484000000444,
                    "velocity": 0.33858267716535434,
                    "duration": 0.6521740000000023
                },
                {
                    "name": "D4",
                    "midi": 62,
                    "time": 431.08701400000444,
                    "velocity": 0.2677165354330709,
                    "duration": 0.6521740000000023
                },
                {
                    "name": "G4",
                    "midi": 67,
                    "time": 431.08701400000444,
                    "velocity": 0.2677165354330709,
                    "duration": 0.6521740000000023
                },
                {
                    "name": "D5",
                    "midi": 74,
                    "time": 431.08701400000444,
                    "velocity": 0.31496062992125984,
                    "duration": 0.6521740000000023
                },
                {
                    "name": "G3",
                    "midi": 55,
                    "time": 431.73918800000445,
                    "velocity": 0.23622047244094488,
                    "duration": 0.6521740000000023
                },
                {
                    "name": "G4",
                    "midi": 67,
                    "time": 431.73918800000445,
                    "velocity": 0.28346456692913385,
                    "duration": 0.6521740000000023
                },
                {
                    "name": "B3",
                    "midi": 59,
                    "time": 432.39136200000445,
                    "velocity": 0.2440944881889764,
                    "duration": 0.6521740000000023
                },
                {
                    "name": "B4",
                    "midi": 71,
                    "time": 432.39136200000445,
                    "velocity": 0.29133858267716534,
                    "duration": 0.6521740000000023
                },
                {
                    "name": "C#4",
                    "midi": 61,
                    "time": 433.04353600000445,
                    "velocity": 0.29133858267716534,
                    "duration": 0.6521740000000023
                },
                {
                    "name": "F4",
                    "midi": 65,
                    "time": 433.69571000000445,
                    "velocity": 0.2440944881889764,
                    "duration": 0.6521740000000023
                },
                {
                    "name": "F3",
                    "midi": 53,
                    "time": 433.69571000000445,
                    "velocity": 0.2047244094488189,
                    "duration": 0.6521740000000023
                },
                {
                    "name": "F#4",
                    "midi": 66,
                    "time": 434.34788400000446,
                    "velocity": 0.2992125984251969,
                    "duration": 0.6521740000000023
                },
                {
                    "name": "F#3",
                    "midi": 54,
                    "time": 434.34788400000446,
                    "velocity": 0.25196850393700787,
                    "duration": 0.6521740000000023
                },
                {
                    "name": "C#5",
                    "midi": 73,
                    "time": 435.00005800000446,
                    "velocity": 0.3228346456692913,
                    "duration": 0.978260999999975
                },
                {
                    "name": "C#4",
                    "midi": 61,
                    "time": 435.00005800000446,
                    "velocity": 0.2677165354330709,
                    "duration": 0.978260999999975
                },
                {
                    "name": "G#4",
                    "midi": 68,
                    "time": 435.97831900000443,
                    "velocity": 0.2283464566929134,
                    "duration": 0.3260869999999727
                },
                {
                    "name": "G#3",
                    "midi": 56,
                    "time": 435.97831900000443,
                    "velocity": 0.1889763779527559,
                    "duration": 0.3260869999999727
                },
                {
                    "name": "A4",
                    "midi": 69,
                    "time": 436.3044060000044,
                    "velocity": 0.2440944881889764,
                    "duration": 0.6521740000000023
                },
                {
                    "name": "A3",
                    "midi": 57,
                    "time": 436.3044060000044,
                    "velocity": 0.2047244094488189,
                    "duration": 0.6521740000000023
                },
                {
                    "name": "A5",
                    "midi": 81,
                    "time": 436.9565800000044,
                    "velocity": 0.33070866141732286,
                    "duration": 0.978260999999975
                },
                {
                    "name": "A4",
                    "midi": 69,
                    "time": 436.9565800000044,
                    "velocity": 0.2677165354330709,
                    "duration": 0.978260999999975
                },
                {
                    "name": "F5",
                    "midi": 77,
                    "time": 437.9348410000044,
                    "velocity": 0.1968503937007874,
                    "duration": 0.3260869999999727
                },
                {
                    "name": "F4",
                    "midi": 65,
                    "time": 437.9348410000044,
                    "velocity": 0.16535433070866143,
                    "duration": 0.3260869999999727
                },
                {
                    "name": "F#5",
                    "midi": 78,
                    "time": 441.52179800000437,
                    "velocity": 0.33858267716535434,
                    "duration": 0.9701088250000112
                },
                {
                    "name": "F#5",
                    "midi": 78,
                    "time": 442.5000590000044,
                    "velocity": 0.3464566929133858,
                    "duration": 0.6467392166666741
                },
                {
                    "name": "F#5",
                    "midi": 78,
                    "time": 443.1522330000044,
                    "velocity": 0.3464566929133858,
                    "duration": 0.6467392166666173
                },
                {
                    "name": "A5",
                    "midi": 81,
                    "time": 443.4783200000044,
                    "velocity": 0.48031496062992124,
                    "duration": 0.6467392166666173
                },
                {
                    "name": "F#5",
                    "midi": 78,
                    "time": 443.80440700000435,
                    "velocity": 0.3858267716535433,
                    "duration": 0.6467392166666173
                },
                {
                    "name": "D6",
                    "midi": 86,
                    "time": 444.1304940000043,
                    "velocity": 0.5826771653543307,
                    "duration": 0.6521739999999454
                },
                {
                    "name": "F#5",
                    "midi": 78,
                    "time": 444.4565810000043,
                    "velocity": 0.4251968503937008,
                    "duration": 0.6467392166666173
                },
                {
                    "name": "E6",
                    "midi": 88,
                    "time": 444.78266800000426,
                    "velocity": 0.5590551181102362,
                    "duration": 0.6521739999999454
                },
                {
                    "name": "F#5",
                    "midi": 78,
                    "time": 445.10875500000424,
                    "velocity": 0.4094488188976378,
                    "duration": 0.6467392166666173
                },
                {
                    "name": "F#6",
                    "midi": 90,
                    "time": 445.4348420000042,
                    "velocity": 0.5590551181102362,
                    "duration": 0.6521739999999454
                },
                {
                    "name": "F#5",
                    "midi": 78,
                    "time": 445.7609290000042,
                    "velocity": 0.3543307086614173,
                    "duration": 0.3260869999999727
                },
                {
                    "name": "F#6",
                    "midi": 90,
                    "time": 446.08701600000416,
                    "velocity": 0.5433070866141733,
                    "duration": 0.08152174999997897
                },
                {
                    "name": "G6",
                    "midi": 91,
                    "time": 446.16853775000413,
                    "velocity": 0.48031496062992124,
                    "duration": 0.08152174999997897
                },
                {
                    "name": "F#6",
                    "midi": 90,
                    "time": 446.2500595000041,
                    "velocity": 0.5275590551181102,
                    "duration": 0.08152174999997897
                },
                {
                    "name": "G6",
                    "midi": 91,
                    "time": 446.3315812500041,
                    "velocity": 0.49606299212598426,
                    "duration": 0.08152174999997897
                },
                {
                    "name": "F#6",
                    "midi": 90,
                    "time": 446.41310300000407,
                    "velocity": 0.49606299212598426,
                    "duration": 0.08152174999997897
                },
                {
                    "name": "G6",
                    "midi": 91,
                    "time": 446.49462475000405,
                    "velocity": 0.5590551181102362,
                    "duration": 0.08152174999997897
                },
                {
                    "name": "F#6",
                    "midi": 90,
                    "time": 446.57614650000403,
                    "velocity": 0.5433070866141733,
                    "duration": 0.08152174999997897
                },
                {
                    "name": "G6",
                    "midi": 91,
                    "time": 446.657668250004,
                    "velocity": 0.6141732283464567,
                    "duration": 0.08152174999997897
                },
                {
                    "name": "A6",
                    "midi": 93,
                    "time": 446.739190000004,
                    "velocity": 0.6535433070866141,
                    "duration": 0.6521739999999454
                },
                {
                    "name": "A5",
                    "midi": 81,
                    "time": 447.06527700000396,
                    "velocity": 0.44881889763779526,
                    "duration": 1.2907610416666557
                },
                {
                    "name": "G6",
                    "midi": 91,
                    "time": 447.39136400000393,
                    "velocity": 0.5905511811023622,
                    "duration": 0.6521740000000023
                },
                {
                    "name": "G6",
                    "midi": 91,
                    "time": 448.04353800000393,
                    "velocity": 0.6062992125984252,
                    "duration": 0.8695653333333553
                },
                {
                    "name": "A5",
                    "midi": 81,
                    "time": 448.36962500000396,
                    "velocity": 0.4409448818897638,
                    "duration": 0.6521740000000023
                },
                {
                    "name": "E6",
                    "midi": 88,
                    "time": 449.02179900000397,
                    "velocity": 0.5354330708661418,
                    "duration": 0.3260869999999727
                },
                {
                    "name": "C#6",
                    "midi": 85,
                    "time": 449.34788600000394,
                    "velocity": 0.4881889763779528,
                    "duration": 0.3260869999999727
                },
                {
                    "name": "D6",
                    "midi": 86,
                    "time": 449.6739730000039,
                    "velocity": 0.5118110236220472,
                    "duration": 0.3260869999999727
                },
                {
                    "name": "D#6",
                    "midi": 87,
                    "time": 450.0000600000039,
                    "velocity": 0.5826771653543307,
                    "duration": 0.3260869999999727
                },
                {
                    "name": "E6",
                    "midi": 88,
                    "time": 450.32614700000386,
                    "velocity": 0.5039370078740157,
                    "duration": 0.5434783333333257
                },
                {
                    "name": "G5",
                    "midi": 79,
                    "time": 450.8696253333372,
                    "velocity": 0.49606299212598426,
                    "duration": 0.21739133333335303
                },
                {
                    "name": "F#5",
                    "midi": 78,
                    "time": 451.08701666667054,
                    "velocity": 0.5039370078740157,
                    "duration": 0.21739133333335303
                },
                {
                    "name": "G5",
                    "midi": 79,
                    "time": 451.3044080000039,
                    "velocity": 0.5039370078740157,
                    "duration": 0.21739133333335303
                },
                {
                    "name": "A5",
                    "midi": 81,
                    "time": 451.52179933333724,
                    "velocity": 0.5196850393700787,
                    "duration": 0.21739133333335303
                },
                {
                    "name": "A#5",
                    "midi": 82,
                    "time": 451.7391906666706,
                    "velocity": 0.5354330708661418,
                    "duration": 0.21739133333335303
                },
                {
                    "name": "C#6",
                    "midi": 85,
                    "time": 451.95658200000395,
                    "velocity": 0.5511811023622047,
                    "duration": 0.21739133333335303
                },
                {
                    "name": "B5",
                    "midi": 83,
                    "time": 452.1739733333373,
                    "velocity": 0.5354330708661418,
                    "duration": 0.21739133333335303
                },
                {
                    "name": "A5",
                    "midi": 81,
                    "time": 452.39136466667065,
                    "velocity": 0.5196850393700787,
                    "duration": 0.21739133333335303
                },
                {
                    "name": "G5",
                    "midi": 79,
                    "time": 452.608756000004,
                    "velocity": 0.5433070866141733,
                    "duration": 0.21739133333335303
                },
                {
                    "name": "F#5",
                    "midi": 78,
                    "time": 452.82614733333736,
                    "velocity": 0.5118110236220472,
                    "duration": 0.21739133333335303
                },
                {
                    "name": "G5",
                    "midi": 79,
                    "time": 453.0435386666707,
                    "velocity": 0.47244094488188976,
                    "duration": 0.21739133333335303
                },
                {
                    "name": "G#5",
                    "midi": 80,
                    "time": 453.26093000000407,
                    "velocity": 0.5433070866141733,
                    "duration": 0.21739133333335303
                },
                {
                    "name": "A5",
                    "midi": 81,
                    "time": 453.4783213333374,
                    "velocity": 0.5039370078740157,
                    "duration": 0.21739133333335303
                },
                {
                    "name": "E5",
                    "midi": 76,
                    "time": 453.6957126666708,
                    "velocity": 0.4645669291338583,
                    "duration": 0.21739133333335303
                },
                {
                    "name": "G5",
                    "midi": 79,
                    "time": 453.9131040000041,
                    "velocity": 0.5511811023622047,
                    "duration": 0.3260869999999727
                },
                {
                    "name": "F#5",
                    "midi": 78,
                    "time": 454.2391910000041,
                    "velocity": 0.5039370078740157,
                    "duration": 0.6521740000000023
                },
                {
                    "name": "A5",
                    "midi": 81,
                    "time": 454.8913650000041,
                    "velocity": 0.5433070866141733,
                    "duration": 0.6521740000000023
                },
                {
                    "name": "D6",
                    "midi": 86,
                    "time": 455.5435390000041,
                    "velocity": 0.5984251968503937,
                    "duration": 0.6467392166666741
                },
                {
                    "name": "D6",
                    "midi": 86,
                    "time": 456.1957130000041,
                    "velocity": 0.5826771653543307,
                    "duration": 0.6521740000000023
                },
                {
                    "name": "E6",
                    "midi": 88,
                    "time": 456.8478870000041,
                    "velocity": 0.6141732283464567,
                    "duration": 0.6521740000000023
                },
                {
                    "name": "F#6",
                    "midi": 90,
                    "time": 457.5000610000041,
                    "velocity": 0.5354330708661418,
                    "duration": 0.32336960833333706
                },
                {
                    "name": "F#6",
                    "midi": 90,
                    "time": 457.82614800000414,
                    "velocity": 0.4881889763779528,
                    "duration": 0.08152174999997897
                },
                {
                    "name": "G6",
                    "midi": 91,
                    "time": 457.9076697500041,
                    "velocity": 0.4645669291338583,
                    "duration": 0.08152174999997897
                },
                {
                    "name": "F#6",
                    "midi": 90,
                    "time": 457.9891915000041,
                    "velocity": 0.5039370078740157,
                    "duration": 0.08152174999997897
                },
                {
                    "name": "G6",
                    "midi": 91,
                    "time": 458.0707132500041,
                    "velocity": 0.47244094488188976,
                    "duration": 0.08152174999997897
                },
                {
                    "name": "F#6",
                    "midi": 90,
                    "time": 458.15223500000405,
                    "velocity": 0.5275590551181102,
                    "duration": 0.08152174999997897
                },
                {
                    "name": "G6",
                    "midi": 91,
                    "time": 458.23375675000403,
                    "velocity": 0.4881889763779528,
                    "duration": 0.08152174999997897
                },
                {
                    "name": "F#6",
                    "midi": 90,
                    "time": 458.315278500004,
                    "velocity": 0.5433070866141733,
                    "duration": 0.08152174999997897
                },
                {
                    "name": "G6",
                    "midi": 91,
                    "time": 458.396800250004,
                    "velocity": 0.5118110236220472,
                    "duration": 0.08152174999997897
                },
                {
                    "name": "F#6",
                    "midi": 90,
                    "time": 458.47832200000397,
                    "velocity": 0.5669291338582677,
                    "duration": 0.08152174999997897
                },
                {
                    "name": "G6",
                    "midi": 91,
                    "time": 458.55984375000395,
                    "velocity": 0.5196850393700787,
                    "duration": 0.08152174999997897
                },
                {
                    "name": "F#6",
                    "midi": 90,
                    "time": 458.64136550000393,
                    "velocity": 0.5826771653543307,
                    "duration": 0.08152174999997897
                },
                {
                    "name": "G6",
                    "midi": 91,
                    "time": 458.7228872500039,
                    "velocity": 0.5511811023622047,
                    "duration": 0.08152174999997897
                },
                {
                    "name": "F#6",
                    "midi": 90,
                    "time": 458.8044090000039,
                    "velocity": 0.6062992125984252,
                    "duration": 0.10869566666667652
                },
                {
                    "name": "F6",
                    "midi": 89,
                    "time": 458.91310466667056,
                    "velocity": 0.6220472440944882,
                    "duration": 0.10869566666667652
                },
                {
                    "name": "F#6",
                    "midi": 90,
                    "time": 459.02180033333724,
                    "velocity": 0.5905511811023622,
                    "duration": 0.10869566666667652
                },
                {
                    "name": "A6",
                    "midi": 93,
                    "time": 459.1304960000039,
                    "velocity": 0.6614173228346457,
                    "duration": 0.3260869999999727
                },
                {
                    "name": "G6",
                    "midi": 91,
                    "time": 459.4565830000039,
                    "velocity": 0.5275590551181102,
                    "duration": 0.3260869999999727
                },
                {
                    "name": "G6",
                    "midi": 91,
                    "time": 459.78267000000386,
                    "velocity": 0.5669291338582677,
                    "duration": 0.8695653333333553
                },
                {
                    "name": "D#6",
                    "midi": 87,
                    "time": 460.6522353333372,
                    "velocity": 0.5433070866141733,
                    "duration": 0.21739133333335303
                },
                {
                    "name": "E6",
                    "midi": 88,
                    "time": 460.86962666667057,
                    "velocity": 0.5669291338582677,
                    "duration": 0.21739133333335303
                },
                {
                    "name": "G6",
                    "midi": 91,
                    "time": 461.0870180000039,
                    "velocity": 0.5669291338582677,
                    "duration": 0.21739133333335303
                },
                {
                    "name": "F#6",
                    "midi": 90,
                    "time": 461.3044093333373,
                    "velocity": 0.5275590551181102,
                    "duration": 0.21739133333335303
                },
                {
                    "name": "E6",
                    "midi": 88,
                    "time": 461.52180066667063,
                    "velocity": 0.5039370078740157,
                    "duration": 0.2119565500000249
                },
                {
                    "name": "E6",
                    "midi": 88,
                    "time": 461.739192000004,
                    "velocity": 0.6062992125984252,
                    "duration": 0.8695653333333553
                },
                {
                    "name": "C6",
                    "midi": 84,
                    "time": 462.60875733333734,
                    "velocity": 0.5275590551181102,
                    "duration": 0.21739133333335303
                },
                {
                    "name": "C#6",
                    "midi": 85,
                    "time": 462.8261486666707,
                    "velocity": 0.5039370078740157,
                    "duration": 0.21739133333335303
                },
                {
                    "name": "E6",
                    "midi": 88,
                    "time": 463.04354000000404,
                    "velocity": 0.5984251968503937,
                    "duration": 0.21739133333335303
                },
                {
                    "name": "D6",
                    "midi": 86,
                    "time": 463.2609313333374,
                    "velocity": 0.5275590551181102,
                    "duration": 0.21739133333335303
                },
                {
                    "name": "C#6",
                    "midi": 85,
                    "time": 463.47832266667075,
                    "velocity": 0.5118110236220472,
                    "duration": 0.21739133333335303
                },
                {
                    "name": "B5",
                    "midi": 83,
                    "time": 463.6957140000041,
                    "velocity": 0.5669291338582677,
                    "duration": 0.16304350000001477
                },
                {
                    "name": "A#5",
                    "midi": 82,
                    "time": 463.8587575000041,
                    "velocity": 0.4881889763779528,
                    "duration": 0.16304350000001477
                },
                {
                    "name": "D6",
                    "midi": 86,
                    "time": 464.02180100000413,
                    "velocity": 0.5196850393700787,
                    "duration": 0.16304350000001477
                },
                {
                    "name": "C#6",
                    "midi": 85,
                    "time": 464.18484450000415,
                    "velocity": 0.49606299212598426,
                    "duration": 0.16304350000001477
                },
                {
                    "name": "C6",
                    "midi": 84,
                    "time": 464.34788800000416,
                    "velocity": 0.5669291338582677,
                    "duration": 0.16304350000001477
                },
                {
                    "name": "C#6",
                    "midi": 85,
                    "time": 464.5109315000042,
                    "velocity": 0.49606299212598426,
                    "duration": 0.16304350000001477
                },
                {
                    "name": "E5",
                    "midi": 76,
                    "time": 464.6739750000042,
                    "velocity": 0.5196850393700787,
                    "duration": 0.16304350000001477
                },
                {
                    "name": "G5",
                    "midi": 79,
                    "time": 464.8370185000042,
                    "velocity": 0.47244094488188976,
                    "duration": 0.16304350000001477
                },
                {
                    "name": "F5",
                    "midi": 77,
                    "time": 465.0000620000042,
                    "velocity": 0.5669291338582677,
                    "duration": 0.16304350000001477
                },
                {
                    "name": "F#5",
                    "midi": 78,
                    "time": 465.16310550000424,
                    "velocity": 0.4881889763779528,
                    "duration": 0.16304350000001477
                },
                {
                    "name": "C#5",
                    "midi": 73,
                    "time": 465.32614900000425,
                    "velocity": 0.5196850393700787,
                    "duration": 0.16304350000001477
                },
                {
                    "name": "E5",
                    "midi": 76,
                    "time": 465.48919250000426,
                    "velocity": 0.48031496062992124,
                    "duration": 0.16304350000001477
                },
                {
                    "name": "D5",
                    "midi": 74,
                    "time": 465.6522360000043,
                    "velocity": 0.5196850393700787,
                    "duration": 0.6521740000000023
                },
                {
                    "name": "B5",
                    "midi": 83,
                    "time": 466.3044100000043,
                    "velocity": 0.5511811023622047,
                    "duration": 0.978260999999975
                },
                {
                    "name": "F#5",
                    "midi": 78,
                    "time": 467.28267100000426,
                    "velocity": 0.4645669291338583,
                    "duration": 0.3260869999999727
                },
                {
                    "name": "G5",
                    "midi": 79,
                    "time": 467.60875800000423,
                    "velocity": 0.5196850393700787,
                    "duration": 1.3043479999999477
                },
                {
                    "name": "A#4",
                    "midi": 70,
                    "time": 467.9348450000042,
                    "velocity": 0.30708661417322836,
                    "duration": 0.6467392166666741
                },
                {
                    "name": "E5",
                    "midi": 76,
                    "time": 467.9348450000042,
                    "velocity": 0.36220472440944884,
                    "duration": 0.6467392166666741
                },
                {
                    "name": "A#4",
                    "midi": 70,
                    "time": 468.5870190000042,
                    "velocity": 0.29133858267716534,
                    "duration": 0.6467392166666173
                },
                {
                    "name": "E5",
                    "midi": 76,
                    "time": 468.5870190000042,
                    "velocity": 0.3464566929133858,
                    "duration": 0.6467392166666173
                },
                {
                    "name": "F#5",
                    "midi": 78,
                    "time": 468.9131060000042,
                    "velocity": 0.5039370078740157,
                    "duration": 0.6521739999999454
                },
                {
                    "name": "A#4",
                    "midi": 70,
                    "time": 469.23919300000415,
                    "velocity": 0.30708661417322836,
                    "duration": 0.3260869999999727
                },
                {
                    "name": "E5",
                    "midi": 76,
                    "time": 469.23919300000415,
                    "velocity": 0.36220472440944884,
                    "duration": 0.3260869999999727
                },
                {
                    "name": "B4",
                    "midi": 71,
                    "time": 469.5652800000041,
                    "velocity": 0.33858267716535434,
                    "duration": 0.6521740000000591
                },
                {
                    "name": "D5",
                    "midi": 74,
                    "time": 469.5652800000041,
                    "velocity": 0.33858267716535434,
                    "duration": 0.6521740000000591
                },
                {
                    "name": "F#5",
                    "midi": 78,
                    "time": 469.5652800000041,
                    "velocity": 0.5196850393700787,
                    "duration": 0.16304350000001477
                },
                {
                    "name": "F#6",
                    "midi": 90,
                    "time": 469.72832350000414,
                    "velocity": 0.4409448818897638,
                    "duration": 0.16304350000001477
                },
                {
                    "name": "C#6",
                    "midi": 85,
                    "time": 469.89136700000415,
                    "velocity": 0.4645669291338583,
                    "duration": 0.16304350000001477
                },
                {
                    "name": "D6",
                    "midi": 86,
                    "time": 470.05441050000417,
                    "velocity": 0.4330708661417323,
                    "duration": 0.16304350000001477
                },
                {
                    "name": "E6",
                    "midi": 88,
                    "time": 470.2174540000042,
                    "velocity": 0.5196850393700787,
                    "duration": 0.16304350000001477
                },
                {
                    "name": "D6",
                    "midi": 86,
                    "time": 470.3804975000042,
                    "velocity": 0.44881889763779526,
                    "duration": 0.16304350000001477
                },
                {
                    "name": "A#5",
                    "midi": 82,
                    "time": 470.5435410000042,
                    "velocity": 0.4645669291338583,
                    "duration": 0.16304350000001477
                },
                {
                    "name": "B5",
                    "midi": 83,
                    "time": 470.7065845000042,
                    "velocity": 0.4330708661417323,
                    "duration": 0.16304350000001477
                },
                {
                    "name": "C#6",
                    "midi": 85,
                    "time": 470.86962800000424,
                    "velocity": 0.5196850393700787,
                    "duration": 0.16304350000001477
                },
                {
                    "name": "B5",
                    "midi": 83,
                    "time": 471.03267150000426,
                    "velocity": 0.47244094488188976,
                    "duration": 0.16304350000001477
                },
                {
                    "name": "D6",
                    "midi": 86,
                    "time": 471.19571500000427,
                    "velocity": 0.5196850393700787,
                    "duration": 0.10869566666667652
                },
                {
                    "name": "B5",
                    "midi": 83,
                    "time": 471.30441066667095,
                    "velocity": 0.44881889763779526,
                    "duration": 0.10869566666667652
                },
                {
                    "name": "F#5",
                    "midi": 78,
                    "time": 471.4158237250043,
                    "velocity": 0.3937007874015748,
                    "duration": 0.10869566666667652
                },
                {
                    "name": "A5",
                    "midi": 81,
                    "time": 471.5218020000043,
                    "velocity": 0.5196850393700787,
                    "duration": 0.32608700000002955
                },
                {
                    "name": "G5",
                    "midi": 79,
                    "time": 471.84788900000433,
                    "velocity": 0.47244094488188976,
                    "duration": 0.6467392166666741
                },
                {
                    "name": "A#4",
                    "midi": 70,
                    "time": 471.84788900000433,
                    "velocity": 0.2440944881889764,
                    "duration": 0.6467392166666741
                },
                {
                    "name": "E5",
                    "midi": 76,
                    "time": 471.84788900000433,
                    "velocity": 0.2440944881889764,
                    "duration": 0.6467392166666741
                },
                {
                    "name": "E5",
                    "midi": 76,
                    "time": 472.50006300000433,
                    "velocity": 0.2440944881889764,
                    "duration": 0.6467392166666741
                },
                {
                    "name": "A#4",
                    "midi": 70,
                    "time": 472.50006300000433,
                    "velocity": 0.2440944881889764,
                    "duration": 0.6467392166666741
                },
                {
                    "name": "G5",
                    "midi": 79,
                    "time": 472.50006300000433,
                    "velocity": 0.47244094488188976,
                    "duration": 0.6467392166666741
                },
                {
                    "name": "F#5",
                    "midi": 78,
                    "time": 473.15223700000433,
                    "velocity": 0.5039370078740157,
                    "duration": 0.3260869999999727
                },
                {
                    "name": "A#4",
                    "midi": 70,
                    "time": 473.15223700000433,
                    "velocity": 0.2440944881889764,
                    "duration": 0.3260869999999727
                },
                {
                    "name": "E5",
                    "midi": 76,
                    "time": 473.15223700000433,
                    "velocity": 0.29133858267716534,
                    "duration": 0.3260869999999727
                },
                {
                    "name": "F#5",
                    "midi": 78,
                    "time": 473.4783240000043,
                    "velocity": 0.5669291338582677,
                    "duration": 0.9701088250000112
                },
                {
                    "name": "D5",
                    "midi": 74,
                    "time": 473.4783240000043,
                    "velocity": 0.48031496062992124,
                    "duration": 0.32336960833333706
                },
                {
                    "name": "B4",
                    "midi": 71,
                    "time": 473.4783240000043,
                    "velocity": 0.48031496062992124,
                    "duration": 0.32336960833333706
                },
                {
                    "name": "F#4",
                    "midi": 66,
                    "time": 473.80441100000434,
                    "velocity": 0.41732283464566927,
                    "duration": 0.6467392166666741
                },
                {
                    "name": "F#4",
                    "midi": 66,
                    "time": 474.45658500000434,
                    "velocity": 0.4645669291338583,
                    "duration": 0.6467392166666741
                },
                {
                    "name": "D5",
                    "midi": 74,
                    "time": 474.45658500000434,
                    "velocity": 0.3779527559055118,
                    "duration": 0.32336960833333706
                },
                {
                    "name": "B4",
                    "midi": 71,
                    "time": 474.45658500000434,
                    "velocity": 0.36220472440944884,
                    "duration": 0.32336960833333706
                },
                {
                    "name": "F#5",
                    "midi": 78,
                    "time": 474.45658500000434,
                    "velocity": 0.5590551181102362,
                    "duration": 0.6467392166666741
                },
                {
                    "name": "A#4",
                    "midi": 70,
                    "time": 474.78267200000437,
                    "velocity": 0.4566929133858268,
                    "duration": 0.32336960833333706
                },
                {
                    "name": "E5",
                    "midi": 76,
                    "time": 474.78267200000437,
                    "velocity": 0.3858267716535433,
                    "duration": 0.32336960833333706
                },
                {
                    "name": "A#4",
                    "midi": 70,
                    "time": 475.1087590000044,
                    "velocity": 0.4251968503937008,
                    "duration": 0.32336960833333706
                },
                {
                    "name": "F#5",
                    "midi": 78,
                    "time": 475.1087590000044,
                    "velocity": 0.5511811023622047,
                    "duration": 0.32336960833333706
                },
                {
                    "name": "F#4",
                    "midi": 66,
                    "time": 475.1087590000044,
                    "velocity": 0.4645669291338583,
                    "duration": 0.32336960833333706
                },
                {
                    "name": "E5",
                    "midi": 76,
                    "time": 475.1087590000044,
                    "velocity": 0.3858267716535433,
                    "duration": 0.32336960833333706
                },
                {
                    "name": "B4",
                    "midi": 71,
                    "time": 475.4348460000044,
                    "velocity": 0.5118110236220472,
                    "duration": 0.32336960833333706
                },
                {
                    "name": "F#4",
                    "midi": 66,
                    "time": 475.4348460000044,
                    "velocity": 0.5118110236220472,
                    "duration": 0.32336960833333706
                },
                {
                    "name": "D5",
                    "midi": 74,
                    "time": 475.4348460000044,
                    "velocity": 0.5118110236220472,
                    "duration": 0.32336960833333706
                },
                {
                    "name": "F#5",
                    "midi": 78,
                    "time": 475.4348460000044,
                    "velocity": 0.6062992125984252,
                    "duration": 0.9701088250000112
                },
                {
                    "name": "B4",
                    "midi": 71,
                    "time": 475.76093300000446,
                    "velocity": 0.4409448818897638,
                    "duration": 0.6467392166666741
                },
                {
                    "name": "D5",
                    "midi": 74,
                    "time": 476.41310700000446,
                    "velocity": 0.48031496062992124,
                    "duration": 0.32336960833333706
                },
                {
                    "name": "B4",
                    "midi": 71,
                    "time": 476.41310700000446,
                    "velocity": 0.49606299212598426,
                    "duration": 0.6467392166666741
                },
                {
                    "name": "B5",
                    "midi": 83,
                    "time": 476.41310700000446,
                    "velocity": 0.5905511811023622,
                    "duration": 0.6467392166666741
                },
                {
                    "name": "F#5",
                    "midi": 78,
                    "time": 476.41310700000446,
                    "velocity": 0.4015748031496063,
                    "duration": 0.32336960833333706
                },
                {
                    "name": "D#5",
                    "midi": 75,
                    "time": 476.7391940000045,
                    "velocity": 0.4881889763779528,
                    "duration": 0.32336960833333706
                },
                {
                    "name": "F#5",
                    "midi": 78,
                    "time": 476.7391940000045,
                    "velocity": 0.4094488188976378,
                    "duration": 0.32336960833333706
                },
                {
                    "name": "D#5",
                    "midi": 75,
                    "time": 477.0652810000045,
                    "velocity": 0.4881889763779528,
                    "duration": 0.32336960833333706
                },
                {
                    "name": "B4",
                    "midi": 71,
                    "time": 477.0652810000045,
                    "velocity": 0.4881889763779528,
                    "duration": 0.32336960833333706
                },
                {
                    "name": "F#5",
                    "midi": 78,
                    "time": 477.0652810000045,
                    "velocity": 0.4094488188976378,
                    "duration": 0.32336960833333706
                },
                {
                    "name": "B5",
                    "midi": 83,
                    "time": 477.0652810000045,
                    "velocity": 0.5905511811023622,
                    "duration": 0.32336960833333706
                },
                {
                    "name": "C5",
                    "midi": 72,
                    "time": 477.39136800000455,
                    "velocity": 0.49606299212598426,
                    "duration": 0.32336960833333706
                },
                {
                    "name": "F#5",
                    "midi": 78,
                    "time": 477.39136800000455,
                    "velocity": 0.49606299212598426,
                    "duration": 0.32336960833333706
                },
                {
                    "name": "D#5",
                    "midi": 75,
                    "time": 477.39136800000455,
                    "velocity": 0.49606299212598426,
                    "duration": 0.32336960833333706
                },
                {
                    "name": "C6",
                    "midi": 84,
                    "time": 477.39136800000455,
                    "velocity": 0.5905511811023622,
                    "duration": 0.32336960833333706
                },
                {
                    "name": "C5",
                    "midi": 72,
                    "time": 477.7174550000046,
                    "velocity": 0.49606299212598426,
                    "duration": 0.6467392166666741
                },
                {
                    "name": "F#5",
                    "midi": 78,
                    "time": 477.7174550000046,
                    "velocity": 0.49606299212598426,
                    "duration": 0.6467392166666741
                },
                {
                    "name": "D#5",
                    "midi": 75,
                    "time": 477.7174550000046,
                    "velocity": 0.49606299212598426,
                    "duration": 0.6467392166666741
                },
                {
                    "name": "C6",
                    "midi": 84,
                    "time": 477.7174550000046,
                    "velocity": 0.5984251968503937,
                    "duration": 0.6467392166666741
                },
                {
                    "name": "C5",
                    "midi": 72,
                    "time": 478.3696290000046,
                    "velocity": 0.5118110236220472,
                    "duration": 0.6467392166666741
                },
                {
                    "name": "F#5",
                    "midi": 78,
                    "time": 478.3696290000046,
                    "velocity": 0.6141732283464567,
                    "duration": 0.32336960833333706
                },
                {
                    "name": "D#5",
                    "midi": 75,
                    "time": 478.3696290000046,
                    "velocity": 0.5118110236220472,
                    "duration": 0.32336960833333706
                },
                {
                    "name": "C6",
                    "midi": 84,
                    "time": 478.3696290000046,
                    "velocity": 0.6141732283464567,
                    "duration": 0.6467392166666741
                },
                {
                    "name": "D#5",
                    "midi": 75,
                    "time": 478.6957160000046,
                    "velocity": 0.5118110236220472,
                    "duration": 0.32336960833333706
                },
                {
                    "name": "A5",
                    "midi": 81,
                    "time": 478.6957160000046,
                    "velocity": 0.6141732283464567,
                    "duration": 0.32336960833333706
                },
                {
                    "name": "C5",
                    "midi": 72,
                    "time": 479.02180300000464,
                    "velocity": 0.5196850393700787,
                    "duration": 0.32336960833333706
                },
                {
                    "name": "A5",
                    "midi": 81,
                    "time": 479.02180300000464,
                    "velocity": 0.5196850393700787,
                    "duration": 0.32336960833333706
                },
                {
                    "name": "C6",
                    "midi": 84,
                    "time": 479.02180300000464,
                    "velocity": 0.6220472440944882,
                    "duration": 0.32336960833333706
                },
                {
                    "name": "D#5",
                    "midi": 75,
                    "time": 479.02180300000464,
                    "velocity": 0.5196850393700787,
                    "duration": 0.32336960833333706
                },
                {
                    "name": "C#5",
                    "midi": 73,
                    "time": 479.34789000000467,
                    "velocity": 0.5196850393700787,
                    "duration": 0.32336960833333706
                },
                {
                    "name": "C#6",
                    "midi": 85,
                    "time": 479.34789000000467,
                    "velocity": 0.6220472440944882,
                    "duration": 0.32336960833333706
                },
                {
                    "name": "G#5",
                    "midi": 80,
                    "time": 479.34789000000467,
                    "velocity": 0.5196850393700787,
                    "duration": 0.32336960833333706
                },
                {
                    "name": "G#5",
                    "midi": 80,
                    "time": 479.6739770000047,
                    "velocity": 0.5275590551181102,
                    "duration": 0.6467392166666741
                },
                {
                    "name": "C#5",
                    "midi": 73,
                    "time": 479.6739770000047,
                    "velocity": 0.5275590551181102,
                    "duration": 0.6467392166666741
                },
                {
                    "name": "C#6",
                    "midi": 85,
                    "time": 479.6739770000047,
                    "velocity": 0.6299212598425197,
                    "duration": 0.6467392166666741
                },
                {
                    "name": "C#5",
                    "midi": 73,
                    "time": 480.3261510000047,
                    "velocity": 0.5354330708661418,
                    "duration": 0.32336960833333706
                },
                {
                    "name": "C#6",
                    "midi": 85,
                    "time": 480.3261510000047,
                    "velocity": 0.6456692913385826,
                    "duration": 0.6467392166666741
                },
                {
                    "name": "G#5",
                    "midi": 80,
                    "time": 480.3261510000047,
                    "velocity": 0.6456692913385826,
                    "duration": 0.32336960833333706
                },
                {
                    "name": "F#5",
                    "midi": 78,
                    "time": 480.65223800000473,
                    "velocity": 0.6456692913385826,
                    "duration": 0.32336960833333706
                },
                {
                    "name": "C#5",
                    "midi": 73,
                    "time": 480.65223800000473,
                    "velocity": 0.5433070866141733,
                    "duration": 0.32336960833333706
                },
                {
                    "name": "F#5",
                    "midi": 78,
                    "time": 480.97832500000476,
                    "velocity": 0.5433070866141733,
                    "duration": 0.32336960833333706
                },
                {
                    "name": "C#5",
                    "midi": 73,
                    "time": 480.97832500000476,
                    "velocity": 0.5433070866141733,
                    "duration": 0.6467392166666741
                },
                {
                    "name": "C#6",
                    "midi": 85,
                    "time": 480.97832500000476,
                    "velocity": 0.6535433070866141,
                    "duration": 0.6467392166666741
                },
                {
                    "name": "F5",
                    "midi": 77,
                    "time": 481.3044120000048,
                    "velocity": 0.5275590551181102,
                    "duration": 0.3260869999999727
                },
                {
                    "name": "C6",
                    "midi": 84,
                    "time": 481.63049900000476,
                    "velocity": 0.5118110236220472,
                    "duration": 0.3260869999999727
                },
                {
                    "name": "C5",
                    "midi": 72,
                    "time": 481.63049900000476,
                    "velocity": 0.47244094488188976,
                    "duration": 0.3260869999999727
                },
                {
                    "name": "D#6",
                    "midi": 87,
                    "time": 481.95658600000473,
                    "velocity": 0.4645669291338583,
                    "duration": 0.3260869999999727
                },
                {
                    "name": "D#5",
                    "midi": 75,
                    "time": 481.95658600000473,
                    "velocity": 0.4645669291338583,
                    "duration": 0.3260869999999727
                },
                {
                    "name": "C#6",
                    "midi": 85,
                    "time": 482.2826730000047,
                    "velocity": 0.4645669291338583,
                    "duration": 0.3260869999999727
                },
                {
                    "name": "C#5",
                    "midi": 73,
                    "time": 482.2826730000047,
                    "velocity": 0.4645669291338583,
                    "duration": 0.3260869999999727
                },
                {
                    "name": "C6",
                    "midi": 84,
                    "time": 482.6087600000047,
                    "velocity": 0.4566929133858268,
                    "duration": 0.3260869999999727
                },
                {
                    "name": "C5",
                    "midi": 72,
                    "time": 482.6087600000047,
                    "velocity": 0.4566929133858268,
                    "duration": 0.3260869999999727
                },
                {
                    "name": "C#5",
                    "midi": 73,
                    "time": 482.93484700000465,
                    "velocity": 0.44881889763779526,
                    "duration": 0.3260869999999727
                },
                {
                    "name": "C#6",
                    "midi": 85,
                    "time": 482.93484700000465,
                    "velocity": 0.44881889763779526,
                    "duration": 0.3260869999999727
                },
                {
                    "name": "E5",
                    "midi": 76,
                    "time": 483.2609340000046,
                    "velocity": 0.4409448818897638,
                    "duration": 0.6521740000000023
                },
                {
                    "name": "E6",
                    "midi": 88,
                    "time": 483.2609340000046,
                    "velocity": 0.4409448818897638,
                    "duration": 0.6521740000000023
                },
                {
                    "name": "D#5",
                    "midi": 75,
                    "time": 483.9131080000046,
                    "velocity": 0.4330708661417323,
                    "duration": 1.6304349999999772
                },
                {
                    "name": "D#6",
                    "midi": 87,
                    "time": 483.9131080000046,
                    "velocity": 0.4330708661417323,
                    "duration": 1.6304349999999772
                },
                {
                    "name": "C6",
                    "midi": 84,
                    "time": 485.5435430000046,
                    "velocity": 0.4330708661417323,
                    "duration": 0.3260869999999727
                },
                {
                    "name": "C5",
                    "midi": 72,
                    "time": 485.5435430000046,
                    "velocity": 0.36220472440944884,
                    "duration": 0.3260869999999727
                },
                {
                    "name": "D#6",
                    "midi": 87,
                    "time": 485.8696300000046,
                    "velocity": 0.49606299212598426,
                    "duration": 0.3260869999999727
                },
                {
                    "name": "D#5",
                    "midi": 75,
                    "time": 485.8696300000046,
                    "velocity": 0.41732283464566927,
                    "duration": 0.3260869999999727
                },
                {
                    "name": "C#6",
                    "midi": 85,
                    "time": 486.19571700000455,
                    "velocity": 0.4330708661417323,
                    "duration": 0.3260869999999727
                },
                {
                    "name": "C#5",
                    "midi": 73,
                    "time": 486.19571700000455,
                    "velocity": 0.36220472440944884,
                    "duration": 0.3260869999999727
                },
                {
                    "name": "C6",
                    "midi": 84,
                    "time": 486.5218040000045,
                    "velocity": 0.47244094488188976,
                    "duration": 0.3260869999999727
                },
                {
                    "name": "C5",
                    "midi": 72,
                    "time": 486.5218040000045,
                    "velocity": 0.4015748031496063,
                    "duration": 0.3260869999999727
                },
                {
                    "name": "C#5",
                    "midi": 73,
                    "time": 486.8478910000045,
                    "velocity": 0.3543307086614173,
                    "duration": 0.3260869999999727
                },
                {
                    "name": "C#6",
                    "midi": 85,
                    "time": 486.8478910000045,
                    "velocity": 0.41732283464566927,
                    "duration": 0.3260869999999727
                },
                {
                    "name": "D#5",
                    "midi": 75,
                    "time": 487.17397800000447,
                    "velocity": 0.3937007874015748,
                    "duration": 0.6521740000000023
                },
                {
                    "name": "D#6",
                    "midi": 87,
                    "time": 487.17397800000447,
                    "velocity": 0.4645669291338583,
                    "duration": 0.6521740000000023
                },
                {
                    "name": "C#6",
                    "midi": 85,
                    "time": 487.82615200000447,
                    "velocity": 0.4330708661417323,
                    "duration": 1.6304349999999772
                },
                {
                    "name": "C#5",
                    "midi": 73,
                    "time": 487.82615200000447,
                    "velocity": 0.36220472440944884,
                    "duration": 1.6304349999999772
                },
                {
                    "name": "A#4",
                    "midi": 70,
                    "time": 489.45658700000445,
                    "velocity": 0.3700787401574803,
                    "duration": 0.3260869999999727
                },
                {
                    "name": "A#5",
                    "midi": 82,
                    "time": 489.45658700000445,
                    "velocity": 0.4409448818897638,
                    "duration": 0.3260869999999727
                },
                {
                    "name": "C#5",
                    "midi": 73,
                    "time": 489.7826740000044,
                    "velocity": 0.4409448818897638,
                    "duration": 0.3260869999999727
                },
                {
                    "name": "C#6",
                    "midi": 85,
                    "time": 489.7826740000044,
                    "velocity": 0.5196850393700787,
                    "duration": 0.3260869999999727
                },
                {
                    "name": "B4",
                    "midi": 71,
                    "time": 490.1087610000044,
                    "velocity": 0.3937007874015748,
                    "duration": 0.3260869999999727
                },
                {
                    "name": "B5",
                    "midi": 83,
                    "time": 490.1087610000044,
                    "velocity": 0.4645669291338583,
                    "duration": 0.3260869999999727
                },
                {
                    "name": "A#4",
                    "midi": 70,
                    "time": 490.43484800000437,
                    "velocity": 0.4409448818897638,
                    "duration": 0.3260869999999727
                },
                {
                    "name": "A#5",
                    "midi": 82,
                    "time": 490.43484800000437,
                    "velocity": 0.5275590551181102,
                    "duration": 0.3260869999999727
                },
                {
                    "name": "B5",
                    "midi": 83,
                    "time": 490.76093500000434,
                    "velocity": 0.47244094488188976,
                    "duration": 0.32336960833333706
                },
                {
                    "name": "B4",
                    "midi": 71,
                    "time": 490.76093500000434,
                    "velocity": 0.4015748031496063,
                    "duration": 0.32336960833333706
                },
                {
                    "name": "B4",
                    "midi": 71,
                    "time": 491.08702200000437,
                    "velocity": 0.4409448818897638,
                    "duration": 0.3260869999999727
                },
                {
                    "name": "B5",
                    "midi": 83,
                    "time": 491.08702200000437,
                    "velocity": 0.5275590551181102,
                    "duration": 0.3260869999999727
                },
                {
                    "name": "G#4",
                    "midi": 68,
                    "time": 491.41310900000434,
                    "velocity": 0.4015748031496063,
                    "duration": 0.3260869999999727
                },
                {
                    "name": "G#5",
                    "midi": 80,
                    "time": 491.41310900000434,
                    "velocity": 0.48031496062992124,
                    "duration": 0.3260869999999727
                },
                {
                    "name": "B4",
                    "midi": 71,
                    "time": 491.7391960000043,
                    "velocity": 0.44881889763779526,
                    "duration": 0.3260869999999727
                },
                {
                    "name": "B5",
                    "midi": 83,
                    "time": 491.7391960000043,
                    "velocity": 0.5354330708661418,
                    "duration": 0.3260869999999727
                },
                {
                    "name": "A#4",
                    "midi": 70,
                    "time": 492.0652830000043,
                    "velocity": 0.4094488188976378,
                    "duration": 0.3260869999999727
                },
                {
                    "name": "A#5",
                    "midi": 82,
                    "time": 492.0652830000043,
                    "velocity": 0.4881889763779528,
                    "duration": 0.3260869999999727
                },
                {
                    "name": "G#4",
                    "midi": 68,
                    "time": 492.39137000000426,
                    "velocity": 0.4409448818897638,
                    "duration": 0.3260869999999727
                },
                {
                    "name": "G#5",
                    "midi": 80,
                    "time": 492.39137000000426,
                    "velocity": 0.5275590551181102,
                    "duration": 0.3260869999999727
                },
                {
                    "name": "A4",
                    "midi": 69,
                    "time": 492.71745700000423,
                    "velocity": 0.4094488188976378,
                    "duration": 0.3179348250000089
                },
                {
                    "name": "A5",
                    "midi": 81,
                    "time": 492.71745700000423,
                    "velocity": 0.4881889763779528,
                    "duration": 0.3179348250000089
                },
                {
                    "name": "A4",
                    "midi": 69,
                    "time": 493.04354400000426,
                    "velocity": 0.4881889763779528,
                    "duration": 0.6521740000000023
                },
                {
                    "name": "A5",
                    "midi": 81,
                    "time": 493.04354400000426,
                    "velocity": 0.5826771653543307,
                    "duration": 0.6521740000000023
                },
                {
                    "name": "G#5",
                    "midi": 80,
                    "time": 493.69571800000426,
                    "velocity": 0.5433070866141733,
                    "duration": 0.6521740000000023
                },
                {
                    "name": "C#5",
                    "midi": 73,
                    "time": 493.69571800000426,
                    "velocity": 0.4566929133858268,
                    "duration": 0.6521740000000023
                },
                {
                    "name": "G#4",
                    "midi": 68,
                    "time": 493.69571800000426,
                    "velocity": 0.4566929133858268,
                    "duration": 0.6521740000000023
                },
                {
                    "name": "C#5",
                    "midi": 73,
                    "time": 494.34789200000426,
                    "velocity": 0.49606299212598426,
                    "duration": 0.978260999999975
                },
                {
                    "name": "F#5",
                    "midi": 78,
                    "time": 494.34789200000426,
                    "velocity": 0.5905511811023622,
                    "duration": 0.6521740000000023
                },
                {
                    "name": "B5",
                    "midi": 83,
                    "time": 495.00006600000427,
                    "velocity": 0.6141732283464567,
                    "duration": 0.6521739999999454
                },
                {
                    "name": "C#5",
                    "midi": 73,
                    "time": 495.32615300000424,
                    "velocity": 0.5275590551181102,
                    "duration": 0.3260869999999727
                },
                {
                    "name": "G#5",
                    "midi": 80,
                    "time": 495.6522400000042,
                    "velocity": 0.5275590551181102,
                    "duration": 0.3260869999999727
                },
                {
                    "name": "A#5",
                    "midi": 82,
                    "time": 495.6522400000042,
                    "velocity": 0.6220472440944882,
                    "duration": 0.6521739999999454
                },
                {
                    "name": "F#5",
                    "midi": 78,
                    "time": 495.9783270000042,
                    "velocity": 0.5275590551181102,
                    "duration": 0.3260869999999727
                },
                {
                    "name": "F5",
                    "midi": 77,
                    "time": 496.30441400000416,
                    "velocity": 0.5433070866141733,
                    "duration": 0.3260869999999727
                },
                {
                    "name": "D#6",
                    "midi": 87,
                    "time": 496.30441400000416,
                    "velocity": 0.6456692913385826,
                    "duration": 1.3043479999999477
                },
                {
                    "name": "F#5",
                    "midi": 78,
                    "time": 496.63050100000413,
                    "velocity": 0.5511811023622047,
                    "duration": 0.3260869999999727
                },
                {
                    "name": "D#5",
                    "midi": 75,
                    "time": 496.9565880000041,
                    "velocity": 0.5748031496062992,
                    "duration": 0.6521740000000023
                },
                {
                    "name": "F#5",
                    "midi": 78,
                    "time": 496.9565880000041,
                    "velocity": 0.6850393700787402,
                    "duration": 0.6521740000000023
                },
                {
                    "name": "F#5",
                    "midi": 78,
                    "time": 497.6087620000041,
                    "velocity": 0.5354330708661418,
                    "duration": 0.6521740000000023
                },
                {
                    "name": "C#6",
                    "midi": 85,
                    "time": 497.6087620000041,
                    "velocity": 0.6299212598425197,
                    "duration": 0.6521740000000023
                },
                {
                    "name": "C#5",
                    "midi": 73,
                    "time": 497.6087620000041,
                    "velocity": 0.5354330708661418,
                    "duration": 0.6521740000000023
                },
                {
                    "name": "F#6",
                    "midi": 90,
                    "time": 498.2609360000041,
                    "velocity": 0.7401574803149606,
                    "duration": 1.3043480000000045
                },
                {
                    "name": "F#5",
                    "midi": 78,
                    "time": 498.2609360000041,
                    "velocity": 0.6220472440944882,
                    "duration": 1.3043480000000045
                },
                {
                    "name": "F6",
                    "midi": 89,
                    "time": 499.5652840000041,
                    "velocity": 0.7086614173228346,
                    "duration": 0.6521740000000023
                },
                {
                    "name": "F5",
                    "midi": 77,
                    "time": 499.5652840000041,
                    "velocity": 0.5984251968503937,
                    "duration": 0.6521740000000023
                },
                {
                    "name": "B6",
                    "midi": 95,
                    "time": 500.2174580000041,
                    "velocity": 0.7322834645669292,
                    "duration": 1.6304349999999772
                },
                {
                    "name": "B5",
                    "midi": 83,
                    "time": 500.2174580000041,
                    "velocity": 0.6535433070866141,
                    "duration": 1.6304349999999772
                },
                {
                    "name": "F6",
                    "midi": 89,
                    "time": 500.2174580000041,
                    "velocity": 0.6535433070866141,
                    "duration": 1.6304349999999772
                },
                {
                    "name": "G#6",
                    "midi": 92,
                    "time": 500.2174580000041,
                    "velocity": 0.6535433070866141,
                    "duration": 1.6304349999999772
                },
                {
                    "name": "B4",
                    "midi": 71,
                    "time": 501.8478930000041,
                    "velocity": 0.28346456692913385,
                    "duration": 0.3260869999999727
                },
                {
                    "name": "G#4",
                    "midi": 68,
                    "time": 502.17398000000406,
                    "velocity": 0.31496062992125984,
                    "duration": 0.3260869999999727
                },
                {
                    "name": "D5",
                    "midi": 74,
                    "time": 502.50006700000404,
                    "velocity": 0.28346456692913385,
                    "duration": 0.3260869999999727
                },
                {
                    "name": "C5",
                    "midi": 72,
                    "time": 502.826154000004,
                    "velocity": 0.31496062992125984,
                    "duration": 0.3260869999999727
                },
                {
                    "name": "C#5",
                    "midi": 73,
                    "time": 503.152241000004,
                    "velocity": 0.28346456692913385,
                    "duration": 0.3260869999999727
                },
                {
                    "name": "G#4",
                    "midi": 68,
                    "time": 503.47832800000396,
                    "velocity": 0.31496062992125984,
                    "duration": 0.3260869999999727
                },
                {
                    "name": "D#5",
                    "midi": 75,
                    "time": 503.8044150000039,
                    "velocity": 0.28346456692913385,
                    "duration": 0.3260869999999727
                },
                {
                    "name": "C#5",
                    "midi": 73,
                    "time": 504.1305020000039,
                    "velocity": 0.31496062992125984,
                    "duration": 0.3260869999999727
                },
                {
                    "name": "B4",
                    "midi": 71,
                    "time": 504.4565890000039,
                    "velocity": 0.2755905511811024,
                    "duration": 0.3260869999999727
                },
                {
                    "name": "A#4",
                    "midi": 70,
                    "time": 504.78267600000385,
                    "velocity": 0.3858267716535433,
                    "duration": 0.6521740000000023
                },
                {
                    "name": "F#2",
                    "midi": 42,
                    "time": 506.08702400000385,
                    "velocity": 0.4566929133858268,
                    "duration": 1.9565220000000068
                },
                {
                    "name": "F#2",
                    "midi": 42,
                    "time": 508.04354600000386,
                    "velocity": 0.4094488188976378,
                    "duration": 0.3260869999999727
                },
                {
                    "name": "C#2",
                    "midi": 37,
                    "time": 508.36963300000383,
                    "velocity": 0.36220472440944884,
                    "duration": 0.32065221666664456
                },
                {
                    "name": "C#2",
                    "midi": 37,
                    "time": 508.6957200000038,
                    "velocity": 0.4094488188976378,
                    "duration": 1.9510872166666786
                },
                {
                    "name": "C#2",
                    "midi": 37,
                    "time": 510.6522420000038,
                    "velocity": 0.4094488188976378,
                    "duration": 1.2989132166666764
                },
                {
                    "name": "C#2",
                    "midi": 37,
                    "time": 511.9565900000038,
                    "velocity": 0.4094488188976378,
                    "duration": 0.6467392166666173
                },
                {
                    "name": "A#1",
                    "midi": 34,
                    "time": 512.6087640000038,
                    "velocity": 0.4094488188976378,
                    "duration": 0.6521739999999454
                },
                {
                    "name": "F#6",
                    "midi": 90,
                    "time": 513.9131120000037,
                    "velocity": 0.48031496062992124,
                    "duration": 1.9483698249999861
                },
                {
                    "name": "F#5",
                    "midi": 78,
                    "time": 513.9131120000037,
                    "velocity": 0.41732283464566927,
                    "duration": 1.9483698249999861
                },
                {
                    "name": "F#6",
                    "midi": 90,
                    "time": 515.8696340000037,
                    "velocity": 0.4330708661417323,
                    "duration": 0.32336960833333706
                },
                {
                    "name": "F#5",
                    "midi": 78,
                    "time": 515.8696340000037,
                    "velocity": 0.3779527559055118,
                    "duration": 0.32336960833333706
                },
                {
                    "name": "C#6",
                    "midi": 85,
                    "time": 516.1957210000037,
                    "velocity": 0.3779527559055118,
                    "duration": 0.32336960833333706
                },
                {
                    "name": "C#5",
                    "midi": 73,
                    "time": 516.1957210000037,
                    "velocity": 0.33070866141732286,
                    "duration": 0.32336960833333706
                },
                {
                    "name": "C#6",
                    "midi": 85,
                    "time": 516.5218080000037,
                    "velocity": 0.4330708661417323,
                    "duration": 1.9375002583333298
                },
                {
                    "name": "C#5",
                    "midi": 73,
                    "time": 516.5218080000037,
                    "velocity": 0.3779527559055118,
                    "duration": 1.9375002583333298
                },
                {
                    "name": "C#6",
                    "midi": 85,
                    "time": 518.4783300000037,
                    "velocity": 0.4330708661417323,
                    "duration": 1.2907610416666557
                },
                {
                    "name": "C#5",
                    "midi": 73,
                    "time": 518.4783300000037,
                    "velocity": 0.3779527559055118,
                    "duration": 1.2907610416666557
                },
                {
                    "name": "C#6",
                    "midi": 85,
                    "time": 519.7826780000037,
                    "velocity": 0.4330708661417323,
                    "duration": 0.6467392166666741
                },
                {
                    "name": "C#5",
                    "midi": 73,
                    "time": 519.7826780000037,
                    "velocity": 0.3779527559055118,
                    "duration": 0.6467392166666741
                },
                {
                    "name": "A#5",
                    "midi": 82,
                    "time": 520.4348520000037,
                    "velocity": 0.41732283464566927,
                    "duration": 0.6521739999999454
                },
                {
                    "name": "A#4",
                    "midi": 70,
                    "time": 520.4348520000037,
                    "velocity": 0.3543307086614173,
                    "duration": 0.6521739999999454
                },
                {
                    "name": "F#2",
                    "midi": 42,
                    "time": 521.7392000000036,
                    "velocity": 0.4566929133858268,
                    "duration": 1.2907610416666557
                },
                {
                    "name": "F#2",
                    "midi": 42,
                    "time": 523.0435480000036,
                    "velocity": 0.4566929133858268,
                    "duration": 0.6467392166666741
                },
                {
                    "name": "F#2",
                    "midi": 42,
                    "time": 523.6957220000037,
                    "velocity": 0.4409448818897638,
                    "duration": 0.21739133333335303
                },
                {
                    "name": "F2",
                    "midi": 41,
                    "time": 523.913113333337,
                    "velocity": 0.3937007874015748,
                    "duration": 0.21739133333335303
                },
                {
                    "name": "F#2",
                    "midi": 42,
                    "time": 524.1305046666704,
                    "velocity": 0.3937007874015748,
                    "duration": 0.16304349999995793
                },
                {
                    "name": "C#2",
                    "midi": 37,
                    "time": 524.3478960000036,
                    "velocity": 0.4094488188976378,
                    "duration": 1.2907610416666557
                },
                {
                    "name": "C#2",
                    "midi": 37,
                    "time": 525.6522440000036,
                    "velocity": 0.4094488188976378,
                    "duration": 1.2907610416666557
                },
                {
                    "name": "C#2",
                    "midi": 37,
                    "time": 526.9565920000036,
                    "velocity": 0.4094488188976378,
                    "duration": 1.2907610416666557
                },
                {
                    "name": "A#1",
                    "midi": 34,
                    "time": 528.2609400000036,
                    "velocity": 0.4094488188976378,
                    "duration": 0.6521739999999454
                },
                {
                    "name": "F#6",
                    "midi": 90,
                    "time": 529.5652880000035,
                    "velocity": 0.5275590551181102,
                    "duration": 1.9375002583333298
                },
                {
                    "name": "F#5",
                    "midi": 78,
                    "time": 529.5652880000035,
                    "velocity": 0.4645669291338583,
                    "duration": 1.9375002583333298
                },
                {
                    "name": "F#6",
                    "midi": 90,
                    "time": 531.5218100000035,
                    "velocity": 0.5118110236220472,
                    "duration": 0.22010872500004552
                },
                {
                    "name": "F#5",
                    "midi": 78,
                    "time": 531.5218100000035,
                    "velocity": 0.44881889763779526,
                    "duration": 0.22010872500004552
                },
                {
                    "name": "F5",
                    "midi": 77,
                    "time": 531.7392013333368,
                    "velocity": 0.4015748031496063,
                    "duration": 0.21739133333335303
                },
                {
                    "name": "F6",
                    "midi": 89,
                    "time": 531.7392013333368,
                    "velocity": 0.4566929133858268,
                    "duration": 0.21739133333335303
                },
                {
                    "name": "F#5",
                    "midi": 78,
                    "time": 531.9565926666702,
                    "velocity": 0.4015748031496063,
                    "duration": 0.21739133333323934
                },
                {
                    "name": "F#6",
                    "midi": 90,
                    "time": 531.9565926666702,
                    "velocity": 0.4566929133858268,
                    "duration": 0.16304349999995793
                },
                {
                    "name": "C#6",
                    "midi": 85,
                    "time": 532.1739840000034,
                    "velocity": 0.5275590551181102,
                    "duration": 1.2907610416666557
                },
                {
                    "name": "C#5",
                    "midi": 73,
                    "time": 532.1739840000034,
                    "velocity": 0.4645669291338583,
                    "duration": 1.2907610416666557
                },
                {
                    "name": "C#5",
                    "midi": 73,
                    "time": 533.4783320000034,
                    "velocity": 0.4881889763779528,
                    "duration": 1.2907610416666557
                },
                {
                    "name": "C#6",
                    "midi": 85,
                    "time": 533.4783320000034,
                    "velocity": 0.5511811023622047,
                    "duration": 1.2907610416666557
                },
                {
                    "name": "C#5",
                    "midi": 73,
                    "time": 534.7826800000034,
                    "velocity": 0.49606299212598426,
                    "duration": 1.0869566666666515
                },
                {
                    "name": "C#6",
                    "midi": 85,
                    "time": 534.7826800000034,
                    "velocity": 0.5669291338582677,
                    "duration": 1.0869566666666515
                },
                {
                    "name": "B4",
                    "midi": 71,
                    "time": 535.8696366666701,
                    "velocity": 0.3543307086614173,
                    "duration": 0.21739133333335303
                },
                {
                    "name": "B5",
                    "midi": 83,
                    "time": 535.8696366666701,
                    "velocity": 0.3937007874015748,
                    "duration": 0.21739133333335303
                },
                {
                    "name": "A#4",
                    "midi": 70,
                    "time": 536.0870280000034,
                    "velocity": 0.3937007874015748,
                    "duration": 0.6521739999999454
                },
                {
                    "name": "A#5",
                    "midi": 82,
                    "time": 536.0870280000034,
                    "velocity": 0.3937007874015748,
                    "duration": 0.6521739999999454
                },
                {
                    "name": "A#4",
                    "midi": 70,
                    "time": 536.7392020000034,
                    "velocity": 0.31496062992125984,
                    "duration": 0.21739133333335303
                },
                {
                    "name": "A#5",
                    "midi": 82,
                    "time": 536.7392020000034,
                    "velocity": 0.4330708661417323,
                    "duration": 1.3043480000001182
                },
                {
                    "name": "G#5",
                    "midi": 80,
                    "time": 536.9565933333367,
                    "velocity": 0.31496062992125984,
                    "duration": 0.21739133333335303
                },
                {
                    "name": "F#5",
                    "midi": 78,
                    "time": 537.1739846666701,
                    "velocity": 0.31496062992125984,
                    "duration": 0.21739133333335303
                },
                {
                    "name": "F5",
                    "midi": 77,
                    "time": 537.3913760000034,
                    "velocity": 0.3937007874015748,
                    "duration": 0.21739133333335303
                },
                {
                    "name": "D#5",
                    "midi": 75,
                    "time": 537.6087673333368,
                    "velocity": 0.3228346456692913,
                    "duration": 0.21739133333335303
                },
                {
                    "name": "C#5",
                    "midi": 73,
                    "time": 537.8261586666702,
                    "velocity": 0.33858267716535434,
                    "duration": 0.21739133333335303
                },
                {
                    "name": "B4",
                    "midi": 71,
                    "time": 538.0435500000035,
                    "velocity": 0.3937007874015748,
                    "duration": 0.21739133333335303
                },
                {
                    "name": "B5",
                    "midi": 83,
                    "time": 538.0435500000035,
                    "velocity": 0.4330708661417323,
                    "duration": 1.9565220000001773
                },
                {
                    "name": "C#5",
                    "midi": 73,
                    "time": 538.2609413333369,
                    "velocity": 0.33070866141732286,
                    "duration": 0.21739133333335303
                },
                {
                    "name": "A#4",
                    "midi": 70,
                    "time": 538.4783326666702,
                    "velocity": 0.33070866141732286,
                    "duration": 0.21739133333335303
                },
                {
                    "name": "B4",
                    "midi": 71,
                    "time": 538.6957240000036,
                    "velocity": 0.3937007874015748,
                    "duration": 0.21739133333335303
                },
                {
                    "name": "C#5",
                    "midi": 73,
                    "time": 538.9131153333369,
                    "velocity": 0.31496062992125984,
                    "duration": 0.21739133333335303
                },
                {
                    "name": "D#5",
                    "midi": 75,
                    "time": 539.1305066666703,
                    "velocity": 0.31496062992125984,
                    "duration": 0.21739133333335303
                },
                {
                    "name": "F5",
                    "midi": 77,
                    "time": 539.3478980000036,
                    "velocity": 0.3937007874015748,
                    "duration": 0.21739133333335303
                },
                {
                    "name": "F#5",
                    "midi": 78,
                    "time": 539.565289333337,
                    "velocity": 0.3228346456692913,
                    "duration": 0.21739133333335303
                },
                {
                    "name": "G#5",
                    "midi": 80,
                    "time": 539.7826806666703,
                    "velocity": 0.3228346456692913,
                    "duration": 0.21739133333335303
                },
                {
                    "name": "C#5",
                    "midi": 73,
                    "time": 540.0000720000037,
                    "velocity": 0.3937007874015748,
                    "duration": 0.6521739999999454
                },
                {
                    "name": "C#6",
                    "midi": 85,
                    "time": 540.0000720000037,
                    "velocity": 0.4330708661417323,
                    "duration": 0.6521739999999454
                },
                {
                    "name": "A#5",
                    "midi": 82,
                    "time": 540.6522460000036,
                    "velocity": 0.33070866141732286,
                    "duration": 0.21739133333335303
                },
                {
                    "name": "C#6",
                    "midi": 85,
                    "time": 540.6522460000036,
                    "velocity": 0.44881889763779526,
                    "duration": 1.3043480000001182
                },
                {
                    "name": "G#5",
                    "midi": 80,
                    "time": 540.869637333337,
                    "velocity": 0.33070866141732286,
                    "duration": 0.21739133333335303
                },
                {
                    "name": "F#5",
                    "midi": 78,
                    "time": 541.0870286666703,
                    "velocity": 0.33858267716535434,
                    "duration": 0.21739133333335303
                },
                {
                    "name": "E5",
                    "midi": 76,
                    "time": 541.3044200000037,
                    "velocity": 0.4330708661417323,
                    "duration": 0.21739133333335303
                },
                {
                    "name": "D#5",
                    "midi": 75,
                    "time": 541.521811333337,
                    "velocity": 0.3543307086614173,
                    "duration": 0.21739133333335303
                },
                {
                    "name": "C#5",
                    "midi": 73,
                    "time": 541.7392026666704,
                    "velocity": 0.3779527559055118,
                    "duration": 0.43478266666670606
                },
                {
                    "name": "D#6",
                    "midi": 87,
                    "time": 541.9565940000037,
                    "velocity": 0.5275590551181102,
                    "duration": 1.9565220000001773
                },
                {
                    "name": "D#5",
                    "midi": 75,
                    "time": 542.1739853333371,
                    "velocity": 0.3779527559055118,
                    "duration": 0.21739133333335303
                },
                {
                    "name": "E5",
                    "midi": 76,
                    "time": 542.3913766666705,
                    "velocity": 0.3858267716535433,
                    "duration": 0.21739133333335303
                },
                {
                    "name": "D#5",
                    "midi": 75,
                    "time": 542.6087680000038,
                    "velocity": 0.47244094488188976,
                    "duration": 0.21739133333335303
                },
                {
                    "name": "F5",
                    "midi": 77,
                    "time": 542.8261593333372,
                    "velocity": 0.3779527559055118,
                    "duration": 0.21739133333335303
                },
                {
                    "name": "F#5",
                    "midi": 78,
                    "time": 543.0435506666705,
                    "velocity": 0.3858267716535433,
                    "duration": 0.21739133333335303
                },
                {
                    "name": "G#5",
                    "midi": 80,
                    "time": 543.2609420000039,
                    "velocity": 0.4881889763779528,
                    "duration": 0.21739133333335303
                },
                {
                    "name": "A#5",
                    "midi": 82,
                    "time": 543.4783333333372,
                    "velocity": 0.4015748031496063,
                    "duration": 0.21739133333335303
                },
                {
                    "name": "B5",
                    "midi": 83,
                    "time": 543.6957246666706,
                    "velocity": 0.4094488188976378,
                    "duration": 0.43478266666670606
                },
                {
                    "name": "F6",
                    "midi": 89,
                    "time": 543.9131160000039,
                    "velocity": 0.5590551181102362,
                    "duration": 0.6521740000000591
                },
                {
                    "name": "B5",
                    "midi": 83,
                    "time": 544.1305073333373,
                    "velocity": 0.41732283464566927,
                    "duration": 0.21739133333335303
                },
                {
                    "name": "A#5",
                    "midi": 82,
                    "time": 544.3478986666706,
                    "velocity": 0.4251968503937008,
                    "duration": 0.21739133333335303
                },
                {
                    "name": "G#5",
                    "midi": 80,
                    "time": 544.565290000004,
                    "velocity": 0.4251968503937008,
                    "duration": 0.21739133333335303
                },
                {
                    "name": "F#5",
                    "midi": 78,
                    "time": 544.7826813333373,
                    "velocity": 0.4251968503937008,
                    "duration": 0.21739133333335303
                },
                {
                    "name": "F5",
                    "midi": 77,
                    "time": 545.0000726666707,
                    "velocity": 0.4330708661417323,
                    "duration": 0.21739133333335303
                },
                {
                    "name": "F#6",
                    "midi": 90,
                    "time": 545.217464000004,
                    "velocity": 0.6062992125984252,
                    "duration": 0.6521740000000591
                },
                {
                    "name": "F#5",
                    "midi": 78,
                    "time": 545.217464000004,
                    "velocity": 0.5511811023622047,
                    "duration": 0.21739133333335303
                },
                {
                    "name": "G#5",
                    "midi": 80,
                    "time": 545.4348553333374,
                    "velocity": 0.44881889763779526,
                    "duration": 0.21739133333335303
                },
                {
                    "name": "A#5",
                    "midi": 82,
                    "time": 545.6522466666707,
                    "velocity": 0.48031496062992124,
                    "duration": 0.21739133333335303
                },
                {
                    "name": "G#5",
                    "midi": 80,
                    "time": 545.8696380000041,
                    "velocity": 0.5669291338582677,
                    "duration": 0.21739133333335303
                },
                {
                    "name": "G#6",
                    "midi": 92,
                    "time": 545.8696380000041,
                    "velocity": 0.6614173228346457,
                    "duration": 1.3043480000001182
                },
                {
                    "name": "B5",
                    "midi": 83,
                    "time": 546.0870293333375,
                    "velocity": 0.48031496062992124,
                    "duration": 0.21739133333335303
                },
                {
                    "name": "A#5",
                    "midi": 82,
                    "time": 546.3044206666708,
                    "velocity": 0.4881889763779528,
                    "duration": 0.21739133333335303
                },
                {
                    "name": "G#5",
                    "midi": 80,
                    "time": 546.5218120000042,
                    "velocity": 0.5905511811023622,
                    "duration": 0.21739133333335303
                },
                {
                    "name": "A#5",
                    "midi": 82,
                    "time": 546.7392033333375,
                    "velocity": 0.47244094488188976,
                    "duration": 0.21739133333335303
                },
                {
                    "name": "B5",
                    "midi": 83,
                    "time": 546.9565946666709,
                    "velocity": 0.48031496062992124,
                    "duration": 0.21739133333335303
                },
                {
                    "name": "A#6",
                    "midi": 94,
                    "time": 547.1739860000042,
                    "velocity": 0.7165354330708661,
                    "duration": 0.6521740000000591
                },
                {
                    "name": "A#5",
                    "midi": 82,
                    "time": 547.1739860000042,
                    "velocity": 0.6062992125984252,
                    "duration": 0.21739133333335303
                },
                {
                    "name": "B5",
                    "midi": 83,
                    "time": 547.3913773333376,
                    "velocity": 0.49606299212598426,
                    "duration": 0.21739133333335303
                },
                {
                    "name": "C#6",
                    "midi": 85,
                    "time": 547.6087686666709,
                    "velocity": 0.5039370078740157,
                    "duration": 0.43478266666670606
                },
                {
                    "name": "B6",
                    "midi": 95,
                    "time": 547.8261600000043,
                    "velocity": 0.7559055118110236,
                    "duration": 0.6521740000000591
                },
                {
                    "name": "A#5",
                    "midi": 82,
                    "time": 548.0435513333376,
                    "velocity": 0.48031496062992124,
                    "duration": 0.21739133333335303
                },
                {
                    "name": "B5",
                    "midi": 83,
                    "time": 548.260942666671,
                    "velocity": 0.4881889763779528,
                    "duration": 0.21739133333335303
                },
                {
                    "name": "C#6",
                    "midi": 85,
                    "time": 548.4783340000043,
                    "velocity": 0.5826771653543307,
                    "duration": 0.6521740000000591
                },
                {
                    "name": "G5",
                    "midi": 79,
                    "time": 548.4783340000043,
                    "velocity": 0.49606299212598426,
                    "duration": 0.21739133333335303
                },
                {
                    "name": "F#5",
                    "midi": 78,
                    "time": 548.6957253333377,
                    "velocity": 0.4015748031496063,
                    "duration": 0.21739133333335303
                },
                {
                    "name": "E5",
                    "midi": 76,
                    "time": 548.913116666671,
                    "velocity": 0.4015748031496063,
                    "duration": 0.21739133333335303
                },
                {
                    "name": "D#6",
                    "midi": 87,
                    "time": 549.1305080000044,
                    "velocity": 0.5511811023622047,
                    "duration": 0.6521740000000591
                },
                {
                    "name": "D#5",
                    "midi": 75,
                    "time": 549.1305080000044,
                    "velocity": 0.5118110236220472,
                    "duration": 0.21739133333335303
                },
                {
                    "name": "E5",
                    "midi": 76,
                    "time": 549.3478993333378,
                    "velocity": 0.41732283464566927,
                    "duration": 0.21739133333335303
                },
                {
                    "name": "F#5",
                    "midi": 78,
                    "time": 549.5652906666711,
                    "velocity": 0.4251968503937008,
                    "duration": 0.43478266666670606
                },
                {
                    "name": "A5",
                    "midi": 81,
                    "time": 549.7826820000045,
                    "velocity": 0.5511811023622047,
                    "duration": 1.3043480000001182
                },
                {
                    "name": "F5",
                    "midi": 77,
                    "time": 550.0000733333378,
                    "velocity": 0.3779527559055118,
                    "duration": 0.21739133333335303
                },
                {
                    "name": "D#5",
                    "midi": 75,
                    "time": 550.2174646666712,
                    "velocity": 0.3700787401574803,
                    "duration": 0.21739133333335303
                },
                {
                    "name": "C5",
                    "midi": 72,
                    "time": 550.4348560000045,
                    "velocity": 0.4094488188976378,
                    "duration": 0.21739133333335303
                },
                {
                    "name": "C#5",
                    "midi": 73,
                    "time": 550.6522473333379,
                    "velocity": 0.36220472440944884,
                    "duration": 0.21739133333335303
                },
                {
                    "name": "D#5",
                    "midi": 75,
                    "time": 550.8696386666712,
                    "velocity": 0.3543307086614173,
                    "duration": 0.21739133333335303
                },
                {
                    "name": "F5",
                    "midi": 77,
                    "time": 551.0870300000046,
                    "velocity": 0.3700787401574803,
                    "duration": 0.21739133333335303
                },
                {
                    "name": "G#5",
                    "midi": 80,
                    "time": 551.0870300000046,
                    "velocity": 0.4566929133858268,
                    "duration": 0.6521740000000591
                },
                {
                    "name": "D5",
                    "midi": 74,
                    "time": 551.3044213333379,
                    "velocity": 0.3464566929133858,
                    "duration": 0.21739133333335303
                },
                {
                    "name": "C#5",
                    "midi": 73,
                    "time": 551.5218126666713,
                    "velocity": 0.33858267716535434,
                    "duration": 0.21739133333335303
                },
                {
                    "name": "E5",
                    "midi": 76,
                    "time": 551.7392040000046,
                    "velocity": 0.4015748031496063,
                    "duration": 1.3043480000000045
                },
                {
                    "name": "G5",
                    "midi": 79,
                    "time": 551.7392040000046,
                    "velocity": 0.4015748031496063,
                    "duration": 1.95652199999995
                },
                {
                    "name": "C#6",
                    "midi": 85,
                    "time": 551.7392040000046,
                    "velocity": 0.48031496062992124,
                    "duration": 1.95652199999995
                },
                {
                    "name": "D#5",
                    "midi": 75,
                    "time": 553.0435520000046,
                    "velocity": 0.4015748031496063,
                    "duration": 0.6521739999999454
                },
                {
                    "name": "D#6",
                    "midi": 87,
                    "time": 553.6957260000046,
                    "velocity": 0.4094488188976378,
                    "duration": 1.3043480000000045
                },
                {
                    "name": "A#5",
                    "midi": 82,
                    "time": 553.6957260000046,
                    "velocity": 0.3464566929133858,
                    "duration": 1.3043480000000045
                },
                {
                    "name": "D#5",
                    "midi": 75,
                    "time": 553.6957260000046,
                    "velocity": 0.3464566929133858,
                    "duration": 1.3043480000000045
                },
                {
                    "name": "C#5",
                    "midi": 73,
                    "time": 555.0000740000046,
                    "velocity": 0.33858267716535434,
                    "duration": 0.6521739999999454
                },
                {
                    "name": "D#5",
                    "midi": 75,
                    "time": 555.0000740000046,
                    "velocity": 0.33858267716535434,
                    "duration": 0.6521739999999454
                },
                {
                    "name": "A#5",
                    "midi": 82,
                    "time": 555.0000740000046,
                    "velocity": 0.4015748031496063,
                    "duration": 0.6521739999999454
                },
                {
                    "name": "C#5",
                    "midi": 73,
                    "time": 555.6522480000045,
                    "velocity": 0.4015748031496063,
                    "duration": 0.32608700000002955
                },
                {
                    "name": "C#6",
                    "midi": 85,
                    "time": 555.6522480000045,
                    "velocity": 0.48031496062992124,
                    "duration": 0.32608700000002955
                },
                {
                    "name": "A#4",
                    "midi": 70,
                    "time": 555.9783350000046,
                    "velocity": 0.3779527559055118,
                    "duration": 0.32608700000002955
                },
                {
                    "name": "A#5",
                    "midi": 82,
                    "time": 555.9783350000046,
                    "velocity": 0.44881889763779526,
                    "duration": 0.32608700000002955
                },
                {
                    "name": "B5",
                    "midi": 83,
                    "time": 556.3044220000046,
                    "velocity": 0.5826771653543307,
                    "duration": 0.32608700000002955
                },
                {
                    "name": "B4",
                    "midi": 71,
                    "time": 556.3044220000046,
                    "velocity": 0.4881889763779528,
                    "duration": 0.32608700000002955
                },
                {
                    "name": "D#5",
                    "midi": 75,
                    "time": 556.6305090000046,
                    "velocity": 0.47244094488188976,
                    "duration": 0.32608700000002955
                },
                {
                    "name": "D#6",
                    "midi": 87,
                    "time": 556.6305090000046,
                    "velocity": 0.5590551181102362,
                    "duration": 0.32608700000002955
                },
                {
                    "name": "A#6",
                    "midi": 94,
                    "time": 556.9565960000047,
                    "velocity": 0.6220472440944882,
                    "duration": 0.32608700000002955
                },
                {
                    "name": "A#5",
                    "midi": 82,
                    "time": 556.9565960000047,
                    "velocity": 0.5275590551181102,
                    "duration": 0.32608700000002955
                },
                {
                    "name": "G#6",
                    "midi": 92,
                    "time": 557.2826830000047,
                    "velocity": 0.5748031496062992,
                    "duration": 0.6521739999999454
                },
                {
                    "name": "G#5",
                    "midi": 80,
                    "time": 557.2826830000047,
                    "velocity": 0.4881889763779528,
                    "duration": 0.6521739999999454
                },
                {
                    "name": "F#6",
                    "midi": 90,
                    "time": 557.9348570000046,
                    "velocity": 0.5669291338582677,
                    "duration": 0.6521739999999454
                },
                {
                    "name": "F#5",
                    "midi": 78,
                    "time": 557.9348570000046,
                    "velocity": 0.48031496062992124,
                    "duration": 0.6521739999999454
                },
                {
                    "name": "F#4",
                    "midi": 66,
                    "time": 558.5870310000046,
                    "velocity": 0.4409448818897638,
                    "duration": 0.32608700000002955
                },
                {
                    "name": "A#4",
                    "midi": 70,
                    "time": 558.5870310000046,
                    "velocity": 0.4409448818897638,
                    "duration": 0.32608700000002955
                },
                {
                    "name": "F#5",
                    "midi": 78,
                    "time": 558.5870310000046,
                    "velocity": 0.5275590551181102,
                    "duration": 0.32608700000002955
                },
                {
                    "name": "F4",
                    "midi": 65,
                    "time": 558.9131180000046,
                    "velocity": 0.4566929133858268,
                    "duration": 0.32608700000002955
                },
                {
                    "name": "F5",
                    "midi": 77,
                    "time": 558.9131180000046,
                    "velocity": 0.5433070866141733,
                    "duration": 0.32608700000002955
                },
                {
                    "name": "G#4",
                    "midi": 68,
                    "time": 558.9131180000046,
                    "velocity": 0.4566929133858268,
                    "duration": 0.32608700000002955
                },
                {
                    "name": "C#5",
                    "midi": 73,
                    "time": 559.2392050000046,
                    "velocity": 0.5039370078740157,
                    "duration": 0.32608700000002955
                },
                {
                    "name": "E4",
                    "midi": 64,
                    "time": 559.2392050000046,
                    "velocity": 0.5039370078740157,
                    "duration": 0.32608700000002955
                },
                {
                    "name": "E5",
                    "midi": 76,
                    "time": 559.2392050000046,
                    "velocity": 0.5984251968503937,
                    "duration": 0.32608700000002955
                },
                {
                    "name": "G4",
                    "midi": 67,
                    "time": 559.2392050000046,
                    "velocity": 0.5039370078740157,
                    "duration": 0.32608700000002955
                },
                {
                    "name": "E4",
                    "midi": 64,
                    "time": 559.5652920000047,
                    "velocity": 0.36220472440944884,
                    "duration": 1.3043480000000045
                },
                {
                    "name": "G4",
                    "midi": 67,
                    "time": 559.5652920000047,
                    "velocity": 0.36220472440944884,
                    "duration": 1.3043480000000045
                },
                {
                    "name": "C#5",
                    "midi": 73,
                    "time": 559.5652920000047,
                    "velocity": 0.36220472440944884,
                    "duration": 1.3043480000000045
                },
                {
                    "name": "E5",
                    "midi": 76,
                    "time": 559.5652920000047,
                    "velocity": 0.4330708661417323,
                    "duration": 1.3043480000000045
                },
                {
                    "name": "C#5",
                    "midi": 73,
                    "time": 560.8696400000047,
                    "velocity": 0.31496062992125984,
                    "duration": 0.16304349999995793
                },
                {
                    "name": "E5",
                    "midi": 76,
                    "time": 560.8696400000047,
                    "velocity": 0.4015748031496063,
                    "duration": 0.32608699999991586
                },
                {
                    "name": "G4",
                    "midi": 67,
                    "time": 561.0326835000046,
                    "velocity": 0.31496062992125984,
                    "duration": 0.16304349999995793
                },
                {
                    "name": "D#5",
                    "midi": 75,
                    "time": 561.1957270000046,
                    "velocity": 0.31496062992125984,
                    "duration": 0.32608699999991586
                },
                {
                    "name": "B4",
                    "midi": 71,
                    "time": 561.1957270000046,
                    "velocity": 0.31496062992125984,
                    "duration": 0.16304349999995793
                },
                {
                    "name": "F#4",
                    "midi": 66,
                    "time": 561.3587705000045,
                    "velocity": 0.31496062992125984,
                    "duration": 0.16304349999995793
                },
                {
                    "name": "D4",
                    "midi": 62,
                    "time": 561.5218140000045,
                    "velocity": 0.2283464566929134,
                    "duration": 1.3043480000000045
                },
                {
                    "name": "F#4",
                    "midi": 66,
                    "time": 561.5218140000045,
                    "velocity": 0.2283464566929134,
                    "duration": 1.3043480000000045
                },
                {
                    "name": "A#4",
                    "midi": 70,
                    "time": 561.5218140000045,
                    "velocity": 0.2283464566929134,
                    "duration": 1.3043480000000045
                },
                {
                    "name": "D5",
                    "midi": 74,
                    "time": 561.5218140000045,
                    "velocity": 0.2677165354330709,
                    "duration": 1.3043480000000045
                },
                {
                    "name": "F#4",
                    "midi": 66,
                    "time": 563.4783360000044,
                    "velocity": 0.4015748031496063,
                    "duration": 1.3043480000000045
                },
                {
                    "name": "A#4",
                    "midi": 70,
                    "time": 563.4783360000044,
                    "velocity": 0.4015748031496063,
                    "duration": 1.3043480000000045
                },
                {
                    "name": "C#5",
                    "midi": 73,
                    "time": 563.4783360000044,
                    "velocity": 0.48031496062992124,
                    "duration": 1.6304349999999204
                },
                {
                    "name": "C#4",
                    "midi": 61,
                    "time": 563.4783360000044,
                    "velocity": 0.4015748031496063,
                    "duration": 1.3043480000000045
                },
                {
                    "name": "A#4",
                    "midi": 70,
                    "time": 564.7826840000045,
                    "velocity": 0.31496062992125984,
                    "duration": 0.16304349999995793
                },
                {
                    "name": "F#4",
                    "midi": 66,
                    "time": 564.9457275000044,
                    "velocity": 0.31496062992125984,
                    "duration": 0.16304349999995793
                },
                {
                    "name": "A4",
                    "midi": 69,
                    "time": 565.1087710000044,
                    "velocity": 0.31496062992125984,
                    "duration": 0.16304349999995793
                },
                {
                    "name": "C5",
                    "midi": 72,
                    "time": 565.1087710000044,
                    "velocity": 0.31496062992125984,
                    "duration": 0.32608699999991586
                },
                {
                    "name": "F#4",
                    "midi": 66,
                    "time": 565.2718145000043,
                    "velocity": 0.31496062992125984,
                    "duration": 0.16304349999995793
                },
                {
                    "name": "F4",
                    "midi": 65,
                    "time": 565.4348580000043,
                    "velocity": 0.31496062992125984,
                    "duration": 0.6521739999999454
                },
                {
                    "name": "B4",
                    "midi": 71,
                    "time": 565.4348580000043,
                    "velocity": 0.3779527559055118,
                    "duration": 0.6521739999999454
                },
                {
                    "name": "G#4",
                    "midi": 68,
                    "time": 565.4348580000043,
                    "velocity": 0.31496062992125984,
                    "duration": 0.6521739999999454
                },
                {
                    "name": "D4",
                    "midi": 62,
                    "time": 565.4348580000043,
                    "velocity": 0.31496062992125984,
                    "duration": 0.6521739999999454
                },
                {
                    "name": "G4",
                    "midi": 67,
                    "time": 569.3479020000042,
                    "velocity": 0.2992125984251969,
                    "duration": 1.2907610416666557
                },
                {
                    "name": "A#4",
                    "midi": 70,
                    "time": 569.3479020000042,
                    "velocity": 0.3543307086614173,
                    "duration": 1.2907610416666557
                },
                {
                    "name": "G4",
                    "midi": 67,
                    "time": 570.6522500000042,
                    "velocity": 0.28346456692913385,
                    "duration": 0.6521739999999454
                },
                {
                    "name": "A#4",
                    "midi": 70,
                    "time": 570.6522500000042,
                    "velocity": 0.28346456692913385,
                    "duration": 0.6521739999999454
                },
                {
                    "name": "D#5",
                    "midi": 75,
                    "time": 570.6522500000042,
                    "velocity": 0.33070866141732286,
                    "duration": 0.6521739999999454
                },
                {
                    "name": "G4",
                    "midi": 67,
                    "time": 571.3044240000041,
                    "velocity": 0.2992125984251969,
                    "duration": 1.3043480000000045
                },
                {
                    "name": "D#4",
                    "midi": 63,
                    "time": 571.3044240000041,
                    "velocity": 0.2992125984251969,
                    "duration": 1.3043480000000045
                },
                {
                    "name": "A#4",
                    "midi": 70,
                    "time": 571.3044240000041,
                    "velocity": 0.2992125984251969,
                    "duration": 1.3043480000000045
                },
                {
                    "name": "D#5",
                    "midi": 75,
                    "time": 571.3044240000041,
                    "velocity": 0.3543307086614173,
                    "duration": 1.3043480000000045
                },
                {
                    "name": "D#4",
                    "midi": 63,
                    "time": 572.6087720000041,
                    "velocity": 0.28346456692913385,
                    "duration": 0.6521739999999454
                },
                {
                    "name": "D#5",
                    "midi": 75,
                    "time": 572.6087720000041,
                    "velocity": 0.3464566929133858,
                    "duration": 0.6521739999999454
                },
                {
                    "name": "G4",
                    "midi": 67,
                    "time": 572.6087720000041,
                    "velocity": 0.28346456692913385,
                    "duration": 0.6521739999999454
                },
                {
                    "name": "D#4",
                    "midi": 63,
                    "time": 573.2609460000041,
                    "velocity": 0.2992125984251969,
                    "duration": 0.6521739999999454
                },
                {
                    "name": "F#4",
                    "midi": 66,
                    "time": 573.2609460000041,
                    "velocity": 0.2992125984251969,
                    "duration": 0.6521739999999454
                },
                {
                    "name": "D#5",
                    "midi": 75,
                    "time": 573.2609460000041,
                    "velocity": 0.3543307086614173,
                    "duration": 0.6521739999999454
                },
                {
                    "name": "C#4",
                    "midi": 61,
                    "time": 573.913120000004,
                    "velocity": 0.2755905511811024,
                    "duration": 1.3043480000000045
                },
                {
                    "name": "C#5",
                    "midi": 73,
                    "time": 573.913120000004,
                    "velocity": 0.3228346456692913,
                    "duration": 1.3043480000000045
                },
                {
                    "name": "F4",
                    "midi": 65,
                    "time": 573.913120000004,
                    "velocity": 0.2755905511811024,
                    "duration": 1.3043480000000045
                },
                {
                    "name": "C#4",
                    "midi": 61,
                    "time": 575.217468000004,
                    "velocity": 0.2755905511811024,
                    "duration": 1.3043480000000045
                },
                {
                    "name": "F#4",
                    "midi": 66,
                    "time": 575.217468000004,
                    "velocity": 0.2755905511811024,
                    "duration": 1.3043480000000045
                },
                {
                    "name": "A#4",
                    "midi": 70,
                    "time": 575.217468000004,
                    "velocity": 0.2755905511811024,
                    "duration": 1.3043480000000045
                },
                {
                    "name": "C#5",
                    "midi": 73,
                    "time": 575.217468000004,
                    "velocity": 0.3228346456692913,
                    "duration": 1.3043480000000045
                },
                {
                    "name": "A#4",
                    "midi": 70,
                    "time": 576.521816000004,
                    "velocity": 0.25984251968503935,
                    "duration": 0.6521739999999454
                },
                {
                    "name": "C#4",
                    "midi": 61,
                    "time": 577.173990000004,
                    "velocity": 0.33070866141732286,
                    "duration": 1.3043480000000045
                },
                {
                    "name": "C#5",
                    "midi": 73,
                    "time": 578.478338000004,
                    "velocity": 0.28346456692913385,
                    "duration": 0.6521739999999454
                },
                {
                    "name": "A#4",
                    "midi": 70,
                    "time": 579.1305120000039,
                    "velocity": 0.31496062992125984,
                    "duration": 1.3043480000000045
                },
                {
                    "name": "A#5",
                    "midi": 82,
                    "time": 580.4348600000039,
                    "velocity": 0.4645669291338583,
                    "duration": 0.6521739999999454
                },
                {
                    "name": "C#5",
                    "midi": 73,
                    "time": 580.4348600000039,
                    "velocity": 0.3858267716535433,
                    "duration": 0.6521739999999454
                },
                {
                    "name": "A#4",
                    "midi": 70,
                    "time": 580.4348600000039,
                    "velocity": 0.3858267716535433,
                    "duration": 0.6521739999999454
                },
                {
                    "name": "G#4",
                    "midi": 68,
                    "time": 581.0870340000039,
                    "velocity": 0.41732283464566927,
                    "duration": 1.3043480000000045
                },
                {
                    "name": "G#5",
                    "midi": 80,
                    "time": 581.0870340000039,
                    "velocity": 0.49606299212598426,
                    "duration": 1.3043480000000045
                },
                {
                    "name": "B4",
                    "midi": 71,
                    "time": 581.0870340000039,
                    "velocity": 0.41732283464566927,
                    "duration": 1.3043480000000045
                },
                {
                    "name": "C#5",
                    "midi": 73,
                    "time": 582.3913820000039,
                    "velocity": 0.4015748031496063,
                    "duration": 0.6521739999999454
                },
                {
                    "name": "B4",
                    "midi": 71,
                    "time": 582.3913820000039,
                    "velocity": 0.33858267716535434,
                    "duration": 0.6521739999999454
                },
                {
                    "name": "G#4",
                    "midi": 68,
                    "time": 582.3913820000039,
                    "velocity": 0.33858267716535434,
                    "duration": 0.6521739999999454
                },
                {
                    "name": "C#4",
                    "midi": 61,
                    "time": 582.3913820000039,
                    "velocity": 0.33858267716535434,
                    "duration": 0.6521739999999454
                },
                {
                    "name": "C#5",
                    "midi": 73,
                    "time": 583.0435560000038,
                    "velocity": 0.4251968503937008,
                    "duration": 1.3043480000000045
                },
                {
                    "name": "C#4",
                    "midi": 61,
                    "time": 583.0435560000038,
                    "velocity": 0.3543307086614173,
                    "duration": 1.3043480000000045
                },
                {
                    "name": "A#4",
                    "midi": 70,
                    "time": 583.0435560000038,
                    "velocity": 0.3543307086614173,
                    "duration": 1.3043480000000045
                },
                {
                    "name": "A#5",
                    "midi": 82,
                    "time": 584.3479040000038,
                    "velocity": 0.4015748031496063,
                    "duration": 0.6521739999999454
                },
                {
                    "name": "C#5",
                    "midi": 73,
                    "time": 585.0000780000038,
                    "velocity": 0.3937007874015748,
                    "duration": 1.3043480000000045
                },
                {
                    "name": "C#6",
                    "midi": 85,
                    "time": 586.3044260000038,
                    "velocity": 0.4566929133858268,
                    "duration": 0.6521739999999454
                },
                {
                    "name": "C#5",
                    "midi": 73,
                    "time": 586.3044260000038,
                    "velocity": 0.3858267716535433,
                    "duration": 0.6521739999999454
                },
                {
                    "name": "A#4",
                    "midi": 70,
                    "time": 586.9566000000037,
                    "velocity": 0.4251968503937008,
                    "duration": 1.3043480000000045
                },
                {
                    "name": "A#5",
                    "midi": 82,
                    "time": 586.9566000000037,
                    "velocity": 0.5039370078740157,
                    "duration": 1.3043480000000045
                },
                {
                    "name": "C#5",
                    "midi": 73,
                    "time": 588.2609480000037,
                    "velocity": 0.4094488188976378,
                    "duration": 1.3043480000000045
                },
                {
                    "name": "C#6",
                    "midi": 85,
                    "time": 588.2609480000037,
                    "velocity": 0.4881889763779528,
                    "duration": 1.3043480000000045
                },
                {
                    "name": "C#6",
                    "midi": 85,
                    "time": 589.5652960000037,
                    "velocity": 0.4409448818897638,
                    "duration": 0.32608700000002955
                },
                {
                    "name": "D#5",
                    "midi": 75,
                    "time": 589.5652960000037,
                    "velocity": 0.4409448818897638,
                    "duration": 0.6521740000000591
                },
                {
                    "name": "D#6",
                    "midi": 87,
                    "time": 589.5652960000037,
                    "velocity": 0.5275590551181102,
                    "duration": 0.6521740000000591
                },
                {
                    "name": "B5",
                    "midi": 83,
                    "time": 589.8913830000038,
                    "velocity": 0.48031496062992124,
                    "duration": 0.32608700000002955
                },
                {
                    "name": "A#5",
                    "midi": 82,
                    "time": 590.2174700000038,
                    "velocity": 0.5275590551181102,
                    "duration": 0.32608700000002955
                },
                {
                    "name": "F6",
                    "midi": 89,
                    "time": 590.2174700000038,
                    "velocity": 0.5275590551181102,
                    "duration": 0.6521740000000591
                },
                {
                    "name": "F5",
                    "midi": 77,
                    "time": 590.2174700000038,
                    "velocity": 0.4409448818897638,
                    "duration": 0.6521740000000591
                },
                {
                    "name": "B5",
                    "midi": 83,
                    "time": 590.5435570000038,
                    "velocity": 0.47244094488188976,
                    "duration": 0.32608700000002955
                },
                {
                    "name": "A#5",
                    "midi": 82,
                    "time": 590.8696440000039,
                    "velocity": 0.4409448818897638,
                    "duration": 1.95652199999995
                },
                {
                    "name": "F#6",
                    "midi": 90,
                    "time": 590.8696440000039,
                    "velocity": 0.5275590551181102,
                    "duration": 1.95652199999995
                },
                {
                    "name": "F#5",
                    "midi": 78,
                    "time": 590.8696440000039,
                    "velocity": 0.4409448818897638,
                    "duration": 1.95652199999995
                },
                {
                    "name": "G#5",
                    "midi": 80,
                    "time": 592.8261660000038,
                    "velocity": 0.3779527559055118,
                    "duration": 1.95652199999995
                },
                {
                    "name": "F6",
                    "midi": 89,
                    "time": 592.8261660000038,
                    "velocity": 0.3779527559055118,
                    "duration": 1.95652199999995
                },
                {
                    "name": "G#6",
                    "midi": 92,
                    "time": 592.8261660000038,
                    "velocity": 0.44881889763779526,
                    "duration": 1.95652199999995
                },
                {
                    "name": "C#6",
                    "midi": 85,
                    "time": 594.1305140000038,
                    "velocity": 0.4094488188976378,
                    "duration": 0.6521739999999454
                },
                {
                    "name": "A#6",
                    "midi": 94,
                    "time": 594.7826880000038,
                    "velocity": 0.33858267716535434,
                    "duration": 1.3043480000000045
                },
                {
                    "name": "F#6",
                    "midi": 90,
                    "time": 594.7826880000038,
                    "velocity": 0.28346456692913385,
                    "duration": 1.3043480000000045
                },
                {
                    "name": "C#6",
                    "midi": 85,
                    "time": 594.7826880000038,
                    "velocity": 0.28346456692913385,
                    "duration": 1.3043480000000045
                },
                {
                    "name": "A#5",
                    "midi": 82,
                    "time": 594.7826880000038,
                    "velocity": 0.28346456692913385,
                    "duration": 1.3043480000000045
                },
                {
                    "name": "A#4",
                    "midi": 70,
                    "time": 596.0870360000038,
                    "velocity": 0.28346456692913385,
                    "duration": 0.6467392166666741
                },
                {
                    "name": "C#5",
                    "midi": 73,
                    "time": 596.0870360000038,
                    "velocity": 0.28346456692913385,
                    "duration": 0.6467392166666741
                },
                {
                    "name": "A#5",
                    "midi": 82,
                    "time": 596.0870360000038,
                    "velocity": 0.33858267716535434,
                    "duration": 0.6467392166666741
                },
                {
                    "name": "C#6",
                    "midi": 85,
                    "time": 596.7392100000038,
                    "velocity": 0.47244094488188976,
                    "duration": 0.978260999999975
                },
                {
                    "name": "A#5",
                    "midi": 82,
                    "time": 596.7392100000038,
                    "velocity": 0.4015748031496063,
                    "duration": 0.978260999999975
                },
                {
                    "name": "C#5",
                    "midi": 73,
                    "time": 596.7392100000038,
                    "velocity": 0.4015748031496063,
                    "duration": 0.978260999999975
                },
                {
                    "name": "D6",
                    "midi": 86,
                    "time": 597.7174710000038,
                    "velocity": 0.5275590551181102,
                    "duration": 0.32608700000002955
                },
                {
                    "name": "B5",
                    "midi": 83,
                    "time": 597.7174710000038,
                    "velocity": 0.44881889763779526,
                    "duration": 0.32608700000002955
                },
                {
                    "name": "D5",
                    "midi": 74,
                    "time": 597.7174710000038,
                    "velocity": 0.44881889763779526,
                    "duration": 0.32608700000002955
                },
                {
                    "name": "E6",
                    "midi": 88,
                    "time": 598.0435580000038,
                    "velocity": 0.5669291338582677,
                    "duration": 0.32608700000002955
                },
                {
                    "name": "C#6",
                    "midi": 85,
                    "time": 598.0435580000038,
                    "velocity": 0.47244094488188976,
                    "duration": 0.32608700000002955
                },
                {
                    "name": "E5",
                    "midi": 76,
                    "time": 598.0435580000038,
                    "velocity": 0.47244094488188976,
                    "duration": 0.32608700000002955
                },
                {
                    "name": "F#6",
                    "midi": 90,
                    "time": 598.3696450000039,
                    "velocity": 0.4409448818897638,
                    "duration": 0.32336960833333706
                },
                {
                    "name": "D6",
                    "midi": 86,
                    "time": 598.3696450000039,
                    "velocity": 0.3700787401574803,
                    "duration": 0.32336960833333706
                },
                {
                    "name": "F#5",
                    "midi": 78,
                    "time": 598.3696450000039,
                    "velocity": 0.3700787401574803,
                    "duration": 0.32336960833333706
                },
                {
                    "name": "F#6",
                    "midi": 90,
                    "time": 598.6957320000039,
                    "velocity": 0.4015748031496063,
                    "duration": 1.3043480000000045
                },
                {
                    "name": "F#5",
                    "midi": 78,
                    "time": 598.6957320000039,
                    "velocity": 0.33858267716535434,
                    "duration": 1.3043480000000045
                },
                {
                    "name": "D6",
                    "midi": 86,
                    "time": 600.0000800000039,
                    "velocity": 0.31496062992125984,
                    "duration": 0.6413044333332891
                },
                {
                    "name": "D5",
                    "midi": 74,
                    "time": 600.0000800000039,
                    "velocity": 0.2677165354330709,
                    "duration": 0.6413044333332891
                },
                {
                    "name": "D6",
                    "midi": 86,
                    "time": 600.6522540000038,
                    "velocity": 0.36220472440944884,
                    "duration": 0.6521739999999454
                },
                {
                    "name": "D5",
                    "midi": 74,
                    "time": 600.6522540000038,
                    "velocity": 0.30708661417322836,
                    "duration": 0.6521739999999454
                },
                {
                    "name": "B5",
                    "midi": 83,
                    "time": 601.3044280000038,
                    "velocity": 0.33858267716535434,
                    "duration": 0.6521739999999454
                },
                {
                    "name": "B4",
                    "midi": 71,
                    "time": 601.3044280000038,
                    "velocity": 0.28346456692913385,
                    "duration": 0.6521739999999454
                },
                {
                    "name": "C#5",
                    "midi": 73,
                    "time": 601.9566020000037,
                    "velocity": 0.28346456692913385,
                    "duration": 0.6521739999999454
                },
                {
                    "name": "C#6",
                    "midi": 85,
                    "time": 601.9566020000037,
                    "velocity": 0.33858267716535434,
                    "duration": 0.6521739999999454
                },
                {
                    "name": "D5",
                    "midi": 74,
                    "time": 602.6087760000037,
                    "velocity": 0.30708661417322836,
                    "duration": 1.3043480000000045
                },
                {
                    "name": "D6",
                    "midi": 86,
                    "time": 602.6087760000037,
                    "velocity": 0.3700787401574803,
                    "duration": 1.3043480000000045
                },
                {
                    "name": "B4",
                    "midi": 71,
                    "time": 606.5218200000037,
                    "velocity": 0.30708661417322836,
                    "duration": 1.95652199999995
                },
                {
                    "name": "B5",
                    "midi": 83,
                    "time": 606.5218200000037,
                    "velocity": 0.3700787401574803,
                    "duration": 1.95652199999995
                },
                {
                    "name": "D5",
                    "midi": 74,
                    "time": 608.4783420000036,
                    "velocity": 0.30708661417322836,
                    "duration": 1.95652199999995
                },
                {
                    "name": "D6",
                    "midi": 86,
                    "time": 608.4783420000036,
                    "velocity": 0.3700787401574803,
                    "duration": 1.95652199999995
                },
                {
                    "name": "G6",
                    "midi": 91,
                    "time": 610.4348640000036,
                    "velocity": 0.6299212598425197,
                    "duration": 2.608696000000009
                },
                {
                    "name": "G5",
                    "midi": 79,
                    "time": 610.4348640000036,
                    "velocity": 0.5275590551181102,
                    "duration": 2.608696000000009
                },
                {
                    "name": "B4",
                    "midi": 71,
                    "time": 613.0435600000036,
                    "velocity": 0.3543307086614173,
                    "duration": 0.6521739999999454
                },
                {
                    "name": "D5",
                    "midi": 74,
                    "time": 613.0435600000036,
                    "velocity": 0.4251968503937008,
                    "duration": 0.6521739999999454
                },
                {
                    "name": "F#4",
                    "midi": 66,
                    "time": 613.6957340000035,
                    "velocity": 0.3464566929133858,
                    "duration": 0.32608700000002955
                },
                {
                    "name": "C5",
                    "midi": 72,
                    "time": 613.6957340000035,
                    "velocity": 0.4094488188976378,
                    "duration": 0.32608700000002955
                },
                {
                    "name": "G4",
                    "midi": 67,
                    "time": 614.0218210000036,
                    "velocity": 0.31496062992125984,
                    "duration": 0.32608700000002955
                },
                {
                    "name": "B4",
                    "midi": 71,
                    "time": 614.0218210000036,
                    "velocity": 0.3700787401574803,
                    "duration": 0.32608700000002955
                },
                {
                    "name": "G4",
                    "midi": 67,
                    "time": 614.3479080000036,
                    "velocity": 0.33858267716535434,
                    "duration": 0.6521739999999454
                },
                {
                    "name": "B4",
                    "midi": 71,
                    "time": 614.3479080000036,
                    "velocity": 0.4015748031496063,
                    "duration": 0.6521739999999454
                },
                {
                    "name": "G2",
                    "midi": 43,
                    "time": 615.6522560000035,
                    "velocity": 0.4566929133858268,
                    "duration": 1.2907610416666557
                },
                {
                    "name": "G2",
                    "midi": 43,
                    "time": 616.9566040000035,
                    "velocity": 0.4566929133858268,
                    "duration": 0.6467392166666741
                },
                {
                    "name": "G2",
                    "midi": 43,
                    "time": 617.6087780000036,
                    "velocity": 0.4409448818897638,
                    "duration": 0.21739133333335303
                },
                {
                    "name": "F#2",
                    "midi": 42,
                    "time": 617.8261693333369,
                    "velocity": 0.3937007874015748,
                    "duration": 0.21739133333335303
                },
                {
                    "name": "G2",
                    "midi": 43,
                    "time": 618.0435606666703,
                    "velocity": 0.3937007874015748,
                    "duration": 0.16304349999995793
                },
                {
                    "name": "D2",
                    "midi": 38,
                    "time": 618.2609520000035,
                    "velocity": 0.4094488188976378,
                    "duration": 1.2907610416666557
                },
                {
                    "name": "D2",
                    "midi": 38,
                    "time": 619.5653000000035,
                    "velocity": 0.4094488188976378,
                    "duration": 1.2907610416666557
                },
                {
                    "name": "D2",
                    "midi": 38,
                    "time": 620.8696480000035,
                    "velocity": 0.4094488188976378,
                    "duration": 1.3043480000000045
                },
                {
                    "name": "B1",
                    "midi": 35,
                    "time": 622.1739960000035,
                    "velocity": 0.3779527559055118,
                    "duration": 0.6521739999999454
                },
                {
                    "name": "G6",
                    "midi": 91,
                    "time": 623.4783440000034,
                    "velocity": 0.5275590551181102,
                    "duration": 1.2907610416666557
                },
                {
                    "name": "G5",
                    "midi": 79,
                    "time": 623.4783440000034,
                    "velocity": 0.4645669291338583,
                    "duration": 1.2907610416666557
                },
                {
                    "name": "G5",
                    "midi": 79,
                    "time": 624.7826920000034,
                    "velocity": 0.4645669291338583,
                    "duration": 0.6467392166666741
                },
                {
                    "name": "G6",
                    "midi": 91,
                    "time": 624.7826920000034,
                    "velocity": 0.5275590551181102,
                    "duration": 0.6467392166666741
                },
                {
                    "name": "G6",
                    "midi": 91,
                    "time": 625.4348660000035,
                    "velocity": 0.5118110236220472,
                    "duration": 0.22010872500004552
                },
                {
                    "name": "G5",
                    "midi": 79,
                    "time": 625.4348660000035,
                    "velocity": 0.44881889763779526,
                    "duration": 0.22010872500004552
                },
                {
                    "name": "F#5",
                    "midi": 78,
                    "time": 625.6522573333368,
                    "velocity": 0.4015748031496063,
                    "duration": 0.21739133333335303
                },
                {
                    "name": "F#6",
                    "midi": 90,
                    "time": 625.6522573333368,
                    "velocity": 0.4566929133858268,
                    "duration": 0.21739133333335303
                },
                {
                    "name": "G5",
                    "midi": 79,
                    "time": 625.8696486666702,
                    "velocity": 0.36220472440944884,
                    "duration": 0.21739133333323934
                },
                {
                    "name": "G6",
                    "midi": 91,
                    "time": 625.8696486666702,
                    "velocity": 0.4330708661417323,
                    "duration": 0.16304349999995793
                },
                {
                    "name": "D6",
                    "midi": 86,
                    "time": 626.0870400000034,
                    "velocity": 0.5275590551181102,
                    "duration": 1.2907610416666557
                },
                {
                    "name": "D5",
                    "midi": 74,
                    "time": 626.0870400000034,
                    "velocity": 0.4645669291338583,
                    "duration": 1.2907610416666557
                },
                {
                    "name": "D5",
                    "midi": 74,
                    "time": 627.3913880000034,
                    "velocity": 0.4881889763779528,
                    "duration": 1.2907610416666557
                },
                {
                    "name": "D6",
                    "midi": 86,
                    "time": 627.3913880000034,
                    "velocity": 0.5511811023622047,
                    "duration": 1.2907610416666557
                },
                {
                    "name": "D5",
                    "midi": 74,
                    "time": 628.6957360000034,
                    "velocity": 0.49606299212598426,
                    "duration": 1.2907610416666557
                },
                {
                    "name": "D6",
                    "midi": 86,
                    "time": 628.6957360000034,
                    "velocity": 0.5669291338582677,
                    "duration": 1.2907610416666557
                },
                {
                    "name": "D6",
                    "midi": 86,
                    "time": 630.0000840000034,
                    "velocity": 0.5748031496062992,
                    "duration": 1.2907610416666557
                },
                {
                    "name": "D5",
                    "midi": 74,
                    "time": 630.0000840000034,
                    "velocity": 0.5039370078740157,
                    "duration": 1.2907610416666557
                },
                {
                    "name": "D5",
                    "midi": 74,
                    "time": 631.3044320000034,
                    "velocity": 0.5590551181102362,
                    "duration": 1.2907610416666557
                },
                {
                    "name": "D6",
                    "midi": 86,
                    "time": 631.3044320000034,
                    "velocity": 0.6299212598425197,
                    "duration": 1.2907610416666557
                },
                {
                    "name": "D5",
                    "midi": 74,
                    "time": 632.6087800000034,
                    "velocity": 0.5905511811023622,
                    "duration": 0.8695653333332984
                },
                {
                    "name": "D6",
                    "midi": 86,
                    "time": 632.6087800000034,
                    "velocity": 0.6614173228346457,
                    "duration": 0.8695653333332984
                },
                {
                    "name": "C#5",
                    "midi": 73,
                    "time": 633.4783453333367,
                    "velocity": 0.49606299212598426,
                    "duration": 0.21739133333335303
                },
                {
                    "name": "C#6",
                    "midi": 85,
                    "time": 633.4783453333367,
                    "velocity": 0.5669291338582677,
                    "duration": 0.21739133333335303
                },
                {
                    "name": "D5",
                    "midi": 74,
                    "time": 633.6957366666701,
                    "velocity": 0.5039370078740157,
                    "duration": 0.21195654999996805
                },
                {
                    "name": "D6",
                    "midi": 86,
                    "time": 633.6957366666701,
                    "velocity": 0.5748031496062992,
                    "duration": 0.21195654999996805
                },
                {
                    "name": "F#5",
                    "midi": 78,
                    "time": 633.9131280000034,
                    "velocity": 0.5826771653543307,
                    "duration": 1.2907610416666557
                },
                {
                    "name": "D6",
                    "midi": 86,
                    "time": 633.9131280000034,
                    "velocity": 0.6692913385826772,
                    "duration": 1.2907610416666557
                },
                {
                    "name": "D5",
                    "midi": 74,
                    "time": 633.9131280000034,
                    "velocity": 0.5826771653543307,
                    "duration": 1.2907610416666557
                },
                {
                    "name": "F#5",
                    "midi": 78,
                    "time": 635.2174760000034,
                    "velocity": 0.6456692913385826,
                    "duration": 1.2907610416666557
                },
                {
                    "name": "D5",
                    "midi": 74,
                    "time": 635.2174760000034,
                    "velocity": 0.6456692913385826,
                    "duration": 1.2907610416666557
                },
                {
                    "name": "D6",
                    "midi": 86,
                    "time": 635.2174760000034,
                    "velocity": 0.7322834645669292,
                    "duration": 1.2907610416666557
                },
                {
                    "name": "F#5",
                    "midi": 78,
                    "time": 636.5218240000034,
                    "velocity": 0.6771653543307087,
                    "duration": 0.8695653333332984
                },
                {
                    "name": "F#6",
                    "midi": 90,
                    "time": 636.5218240000034,
                    "velocity": 0.7637795275590551,
                    "duration": 0.8695653333332984
                },
                {
                    "name": "F5",
                    "midi": 77,
                    "time": 637.3913893333367,
                    "velocity": 0.5669291338582677,
                    "duration": 0.21739133333335303
                },
                {
                    "name": "F6",
                    "midi": 89,
                    "time": 637.3913893333367,
                    "velocity": 0.6456692913385826,
                    "duration": 0.21739133333335303
                },
                {
                    "name": "F#5",
                    "midi": 78,
                    "time": 637.6087806666701,
                    "velocity": 0.5748031496062992,
                    "duration": 0.21195654999996805
                },
                {
                    "name": "F#6",
                    "midi": 90,
                    "time": 637.6087806666701,
                    "velocity": 0.6535433070866141,
                    "duration": 0.21195654999996805
                },
                {
                    "name": "F#5",
                    "midi": 78,
                    "time": 637.8261720000035,
                    "velocity": 0.6692913385826772,
                    "duration": 1.2907610416666557
                },
                {
                    "name": "F#6",
                    "midi": 90,
                    "time": 637.8261720000035,
                    "velocity": 0.7637795275590551,
                    "duration": 1.2907610416666557
                },
                {
                    "name": "F#5",
                    "midi": 78,
                    "time": 639.1305200000035,
                    "velocity": 0.8110236220472441,
                    "duration": 0.978260999999975
                },
                {
                    "name": "F#6",
                    "midi": 90,
                    "time": 639.1305200000035,
                    "velocity": 0.8110236220472441,
                    "duration": 0.978260999999975
                },
                {
                    "name": "F#5",
                    "midi": 78,
                    "time": 640.4348680000035,
                    "velocity": 0.8110236220472441,
                    "duration": 0.978260999999975
                },
                {
                    "name": "F#6",
                    "midi": 90,
                    "time": 640.4348680000035,
                    "velocity": 0.8110236220472441,
                    "duration": 0.978260999999975
                },
                {
                    "name": "F#6",
                    "midi": 90,
                    "time": 641.7392160000035,
                    "velocity": 0.8031496062992126,
                    "duration": 0.32336960833333706
                },
                {
                    "name": "F#5",
                    "midi": 78,
                    "time": 641.7392160000035,
                    "velocity": 0.8031496062992126,
                    "duration": 0.32336960833333706
                },
                {
                    "name": "F#6",
                    "midi": 90,
                    "time": 642.0653030000035,
                    "velocity": 0.8031496062992126,
                    "duration": 0.6467392166666741
                },
                {
                    "name": "F#6",
                    "midi": 90,
                    "time": 642.7174770000036,
                    "velocity": 0.8110236220472441,
                    "duration": 0.6467392166666741
                },
                {
                    "name": "F#6",
                    "midi": 90,
                    "time": 643.3696510000036,
                    "velocity": 0.8188976377952756,
                    "duration": 0.6467392166666741
                },
                {
                    "name": "F#6",
                    "midi": 90,
                    "time": 644.0218250000037,
                    "velocity": 0.8346456692913385,
                    "duration": 0.6467392166666741
                },
                {
                    "name": "F#6",
                    "midi": 90,
                    "time": 644.6739990000037,
                    "velocity": 0.84251968503937,
                    "duration": 0.6467392166666741
                },
                {
                    "name": "F#6",
                    "midi": 90,
                    "time": 645.3261730000038,
                    "velocity": 0.8503937007874016,
                    "duration": 0.32608700000002955
                },
                {
                    "name": "C#5",
                    "midi": 73,
                    "time": 645.6522600000038,
                    "velocity": 0.3779527559055118,
                    "duration": 1.3043480000000045
                },
                {
                    "name": "A4",
                    "midi": 69,
                    "time": 646.9566080000038,
                    "velocity": 0.33070866141732286,
                    "duration": 0.6467392166666741
                },
                {
                    "name": "A4",
                    "midi": 69,
                    "time": 647.6087820000039,
                    "velocity": 0.3700787401574803,
                    "duration": 0.6521739999999454
                },
                {
                    "name": "F#4",
                    "midi": 66,
                    "time": 648.2609560000038,
                    "velocity": 0.3228346456692913,
                    "duration": 0.6521739999999454
                },
                {
                    "name": "F4",
                    "midi": 65,
                    "time": 648.9131300000038,
                    "velocity": 0.2677165354330709,
                    "duration": 0.6521739999999454
                },
                {
                    "name": "G#4",
                    "midi": 68,
                    "time": 648.9131300000038,
                    "velocity": 0.3228346456692913,
                    "duration": 0.6521739999999454
                },
                {
                    "name": "C#4",
                    "midi": 61,
                    "time": 648.9131300000038,
                    "velocity": 0.2677165354330709,
                    "duration": 0.6521739999999454
                },
                {
                    "name": "A3",
                    "midi": 57,
                    "time": 649.5653040000037,
                    "velocity": 0.33070866141732286,
                    "duration": 1.3043480000000045
                },
                {
                    "name": "F#4",
                    "midi": 66,
                    "time": 649.5653040000037,
                    "velocity": 0.33070866141732286,
                    "duration": 1.3043480000000045
                },
                {
                    "name": "A4",
                    "midi": 69,
                    "time": 649.5653040000037,
                    "velocity": 0.3937007874015748,
                    "duration": 1.3043480000000045
                },
                {
                    "name": "C#4",
                    "midi": 61,
                    "time": 649.5653040000037,
                    "velocity": 0.33070866141732286,
                    "duration": 1.3043480000000045
                },
                {
                    "name": "A#3",
                    "midi": 58,
                    "time": 650.8696520000037,
                    "velocity": 0.3700787401574803,
                    "duration": 0.6521739999999454
                },
                {
                    "name": "C#4",
                    "midi": 61,
                    "time": 650.8696520000037,
                    "velocity": 0.3700787401574803,
                    "duration": 0.6521739999999454
                },
                {
                    "name": "F#4",
                    "midi": 66,
                    "time": 650.8696520000037,
                    "velocity": 0.3700787401574803,
                    "duration": 0.6521739999999454
                },
                {
                    "name": "A#4",
                    "midi": 70,
                    "time": 650.8696520000037,
                    "velocity": 0.4409448818897638,
                    "duration": 0.6521739999999454
                },
                {
                    "name": "D4",
                    "midi": 62,
                    "time": 651.5218260000037,
                    "velocity": 0.4015748031496063,
                    "duration": 1.3043480000000045
                },
                {
                    "name": "B3",
                    "midi": 59,
                    "time": 651.5218260000037,
                    "velocity": 0.4015748031496063,
                    "duration": 1.3043480000000045
                },
                {
                    "name": "B4",
                    "midi": 71,
                    "time": 651.5218260000037,
                    "velocity": 0.48031496062992124,
                    "duration": 1.3043480000000045
                },
                {
                    "name": "F#4",
                    "midi": 66,
                    "time": 651.5218260000037,
                    "velocity": 0.4015748031496063,
                    "duration": 1.3043480000000045
                },
                {
                    "name": "B4",
                    "midi": 71,
                    "time": 652.8261740000037,
                    "velocity": 0.4330708661417323,
                    "duration": 0.6521739999999454
                },
                {
                    "name": "F#4",
                    "midi": 66,
                    "time": 652.8261740000037,
                    "velocity": 0.4330708661417323,
                    "duration": 0.6521739999999454
                },
                {
                    "name": "D4",
                    "midi": 62,
                    "time": 652.8261740000037,
                    "velocity": 0.4330708661417323,
                    "duration": 0.6521739999999454
                },
                {
                    "name": "D5",
                    "midi": 74,
                    "time": 652.8261740000037,
                    "velocity": 0.5196850393700787,
                    "duration": 0.6521739999999454
                },
                {
                    "name": "B4",
                    "midi": 71,
                    "time": 653.4783480000036,
                    "velocity": 0.5275590551181102,
                    "duration": 1.3043480000000045
                },
                {
                    "name": "D4",
                    "midi": 62,
                    "time": 653.4783480000036,
                    "velocity": 0.5275590551181102,
                    "duration": 1.3043480000000045
                },
                {
                    "name": "D5",
                    "midi": 74,
                    "time": 653.4783480000036,
                    "velocity": 0.6220472440944882,
                    "duration": 1.3043480000000045
                },
                {
                    "name": "F4",
                    "midi": 65,
                    "time": 653.4783480000036,
                    "velocity": 0.5275590551181102,
                    "duration": 1.3043480000000045
                },
                {
                    "name": "A4",
                    "midi": 69,
                    "time": 654.7826960000036,
                    "velocity": 0.4330708661417323,
                    "duration": 0.6467392166666741
                },
                {
                    "name": "F#4",
                    "midi": 66,
                    "time": 654.7826960000036,
                    "velocity": 0.4330708661417323,
                    "duration": 0.6467392166666741
                },
                {
                    "name": "C#5",
                    "midi": 73,
                    "time": 654.7826960000036,
                    "velocity": 0.5118110236220472,
                    "duration": 0.6467392166666741
                },
                {
                    "name": "C#4",
                    "midi": 61,
                    "time": 654.7826960000036,
                    "velocity": 0.4330708661417323,
                    "duration": 0.6467392166666741
                },
                {
                    "name": "A4",
                    "midi": 69,
                    "time": 655.4348700000037,
                    "velocity": 0.49606299212598426,
                    "duration": 0.6521739999999454
                },
                {
                    "name": "F#4",
                    "midi": 66,
                    "time": 655.4348700000037,
                    "velocity": 0.49606299212598426,
                    "duration": 0.6521739999999454
                },
                {
                    "name": "C#5",
                    "midi": 73,
                    "time": 655.4348700000037,
                    "velocity": 0.5984251968503937,
                    "duration": 0.6521739999999454
                },
                {
                    "name": "C#4",
                    "midi": 61,
                    "time": 655.4348700000037,
                    "velocity": 0.49606299212598426,
                    "duration": 0.6521739999999454
                },
                {
                    "name": "B3",
                    "midi": 59,
                    "time": 656.0870440000036,
                    "velocity": 0.4330708661417323,
                    "duration": 0.6521739999999454
                },
                {
                    "name": "D4",
                    "midi": 62,
                    "time": 656.0870440000036,
                    "velocity": 0.4330708661417323,
                    "duration": 0.6521739999999454
                },
                {
                    "name": "G#4",
                    "midi": 68,
                    "time": 656.0870440000036,
                    "velocity": 0.4330708661417323,
                    "duration": 0.6521739999999454
                },
                {
                    "name": "B4",
                    "midi": 71,
                    "time": 656.0870440000036,
                    "velocity": 0.5354330708661418,
                    "duration": 0.6521739999999454
                },
                {
                    "name": "F#4",
                    "midi": 66,
                    "time": 656.7392180000036,
                    "velocity": 0.4330708661417323,
                    "duration": 0.6521739999999454
                },
                {
                    "name": "D#4",
                    "midi": 63,
                    "time": 656.7392180000036,
                    "velocity": 0.4330708661417323,
                    "duration": 0.6521739999999454
                },
                {
                    "name": "A3",
                    "midi": 57,
                    "time": 656.7392180000036,
                    "velocity": 0.4330708661417323,
                    "duration": 0.6521739999999454
                },
                {
                    "name": "A4",
                    "midi": 69,
                    "time": 656.7392180000036,
                    "velocity": 0.5275590551181102,
                    "duration": 0.6521739999999454
                },
                {
                    "name": "F#4",
                    "midi": 66,
                    "time": 657.3913920000035,
                    "velocity": 0.3779527559055118,
                    "duration": 1.3043479999998908
                },
                {
                    "name": "A3",
                    "midi": 57,
                    "time": 657.3913920000035,
                    "velocity": 0.3779527559055118,
                    "duration": 1.3043479999998908
                },
                {
                    "name": "A4",
                    "midi": 69,
                    "time": 657.3913920000035,
                    "velocity": 0.44881889763779526,
                    "duration": 1.3043479999998908
                },
                {
                    "name": "D#4",
                    "midi": 63,
                    "time": 657.3913920000035,
                    "velocity": 0.3779527559055118,
                    "duration": 1.3043479999998908
                },
                {
                    "name": "C#4",
                    "midi": 61,
                    "time": 658.0435660000035,
                    "velocity": 0.36220472440944884,
                    "duration": 1.3043479999998908
                },
                {
                    "name": "F4",
                    "midi": 65,
                    "time": 658.6957400000034,
                    "velocity": 0.36220472440944884,
                    "duration": 0.6521739999999454
                },
                {
                    "name": "G#3",
                    "midi": 56,
                    "time": 658.6957400000034,
                    "velocity": 0.36220472440944884,
                    "duration": 0.6521739999999454
                },
                {
                    "name": "G#4",
                    "midi": 68,
                    "time": 658.6957400000034,
                    "velocity": 0.4330708661417323,
                    "duration": 0.6521739999999454
                },
                {
                    "name": "F4",
                    "midi": 65,
                    "time": 659.3479140000034,
                    "velocity": 0.41732283464566927,
                    "duration": 0.6521739999999454
                },
                {
                    "name": "C#4",
                    "midi": 61,
                    "time": 659.3479140000034,
                    "velocity": 0.41732283464566927,
                    "duration": 0.6521739999999454
                },
                {
                    "name": "G#4",
                    "midi": 68,
                    "time": 659.3479140000034,
                    "velocity": 0.5039370078740157,
                    "duration": 0.6521739999999454
                },
                {
                    "name": "G#3",
                    "midi": 56,
                    "time": 659.3479140000034,
                    "velocity": 0.41732283464566927,
                    "duration": 0.6521739999999454
                },
                {
                    "name": "G3",
                    "midi": 55,
                    "time": 660.0000880000033,
                    "velocity": 0.3858267716535433,
                    "duration": 0.6521739999999454
                },
                {
                    "name": "A#3",
                    "midi": 58,
                    "time": 660.0000880000033,
                    "velocity": 0.3858267716535433,
                    "duration": 0.6521739999999454
                },
                {
                    "name": "E4",
                    "midi": 64,
                    "time": 660.0000880000033,
                    "velocity": 0.3858267716535433,
                    "duration": 0.6521739999999454
                },
                {
                    "name": "G4",
                    "midi": 67,
                    "time": 660.0000880000033,
                    "velocity": 0.47244094488188976,
                    "duration": 1.3043479999998908
                },
                {
                    "name": "D4",
                    "midi": 62,
                    "time": 660.6522620000032,
                    "velocity": 0.4094488188976378,
                    "duration": 0.4891304999999875
                },
                {
                    "name": "B3",
                    "midi": 59,
                    "time": 660.6522620000032,
                    "velocity": 0.4094488188976378,
                    "duration": 0.4891304999999875
                },
                {
                    "name": "G3",
                    "midi": 55,
                    "time": 660.6522620000032,
                    "velocity": 0.4094488188976378,
                    "duration": 0.4891304999999875
                },
                {
                    "name": "G4",
                    "midi": 67,
                    "time": 661.1413925000032,
                    "velocity": 0.41732283464566927,
                    "duration": 0.16304349999995793
                },
                {
                    "name": "B5",
                    "midi": 83,
                    "time": 661.3044360000032,
                    "velocity": 0.5118110236220472,
                    "duration": 1.3043479999998908
                },
                {
                    "name": "B4",
                    "midi": 71,
                    "time": 661.9566100000031,
                    "velocity": 0.4330708661417323,
                    "duration": 0.6521739999999454
                },
                {
                    "name": "A4",
                    "midi": 69,
                    "time": 662.6087840000031,
                    "velocity": 0.4094488188976378,
                    "duration": 0.6467392166666741
                },
                {
                    "name": "A5",
                    "midi": 81,
                    "time": 662.6087840000031,
                    "velocity": 0.4881889763779528,
                    "duration": 0.6467392166666741
                },
                {
                    "name": "A4",
                    "midi": 69,
                    "time": 663.2609580000031,
                    "velocity": 0.4330708661417323,
                    "duration": 0.6521739999999454
                },
                {
                    "name": "A5",
                    "midi": 81,
                    "time": 663.2609580000031,
                    "velocity": 0.5118110236220472,
                    "duration": 0.6521739999999454
                },
                {
                    "name": "G4",
                    "midi": 67,
                    "time": 663.9131320000031,
                    "velocity": 0.4015748031496063,
                    "duration": 0.6521739999999454
                },
                {
                    "name": "G5",
                    "midi": 79,
                    "time": 663.9131320000031,
                    "velocity": 0.44881889763779526,
                    "duration": 0.6521739999999454
                },
                {
                    "name": "F#4",
                    "midi": 66,
                    "time": 664.565306000003,
                    "velocity": 0.3937007874015748,
                    "duration": 0.6467392166666741
                },
                {
                    "name": "F#5",
                    "midi": 78,
                    "time": 664.565306000003,
                    "velocity": 0.44881889763779526,
                    "duration": 0.6467392166666741
                },
                {
                    "name": "F#4",
                    "midi": 66,
                    "time": 665.2174800000031,
                    "velocity": 0.4330708661417323,
                    "duration": 0.6521739999999454
                },
                {
                    "name": "F#5",
                    "midi": 78,
                    "time": 665.2174800000031,
                    "velocity": 0.5118110236220472,
                    "duration": 0.6521739999999454
                },
                {
                    "name": "E4",
                    "midi": 64,
                    "time": 665.869654000003,
                    "velocity": 0.4094488188976378,
                    "duration": 0.6521739999999454
                },
                {
                    "name": "E5",
                    "midi": 76,
                    "time": 665.869654000003,
                    "velocity": 0.4409448818897638,
                    "duration": 0.6521739999999454
                },
                {
                    "name": "F#4",
                    "midi": 66,
                    "time": 666.521828000003,
                    "velocity": 0.4094488188976378,
                    "duration": 0.6467392166666741
                },
                {
                    "name": "F#5",
                    "midi": 78,
                    "time": 666.521828000003,
                    "velocity": 0.4409448818897638,
                    "duration": 0.6467392166666741
                },
                {
                    "name": "F#4",
                    "midi": 66,
                    "time": 667.174002000003,
                    "velocity": 0.4094488188976378,
                    "duration": 0.6521739999999454
                },
                {
                    "name": "F#5",
                    "midi": 78,
                    "time": 667.174002000003,
                    "velocity": 0.48031496062992124,
                    "duration": 0.6521739999999454
                },
                {
                    "name": "G4",
                    "midi": 67,
                    "time": 667.826176000003,
                    "velocity": 0.4330708661417323,
                    "duration": 0.978260999999975
                },
                {
                    "name": "G5",
                    "midi": 79,
                    "time": 667.826176000003,
                    "velocity": 0.4645669291338583,
                    "duration": 0.978260999999975
                },
                {
                    "name": "F#3",
                    "midi": 54,
                    "time": 668.804437000003,
                    "velocity": 0.33858267716535434,
                    "duration": 0.32336960833333706
                },
                {
                    "name": "F#4",
                    "midi": 66,
                    "time": 668.804437000003,
                    "velocity": 0.36220472440944884,
                    "duration": 0.32336960833333706
                },
                {
                    "name": "F#3",
                    "midi": 54,
                    "time": 669.130524000003,
                    "velocity": 0.3543307086614173,
                    "duration": 0.6521739999999454
                },
                {
                    "name": "F#4",
                    "midi": 66,
                    "time": 669.130524000003,
                    "velocity": 0.47244094488188976,
                    "duration": 0.6521739999999454
                },
                {
                    "name": "A3",
                    "midi": 57,
                    "time": 669.7826980000029,
                    "velocity": 0.3543307086614173,
                    "duration": 0.6521739999999454
                },
                {
                    "name": "A4",
                    "midi": 69,
                    "time": 669.7826980000029,
                    "velocity": 0.41732283464566927,
                    "duration": 0.6521739999999454
                },
                {
                    "name": "C#4",
                    "midi": 61,
                    "time": 670.4348720000029,
                    "velocity": 0.33858267716535434,
                    "duration": 0.6467392166666741
                },
                {
                    "name": "F#4",
                    "midi": 66,
                    "time": 670.4348720000029,
                    "velocity": 0.33858267716535434,
                    "duration": 0.6467392166666741
                },
                {
                    "name": "A4",
                    "midi": 69,
                    "time": 670.4348720000029,
                    "velocity": 0.33858267716535434,
                    "duration": 0.6467392166666741
                },
                {
                    "name": "C#5",
                    "midi": 73,
                    "time": 670.4348720000029,
                    "velocity": 0.4015748031496063,
                    "duration": 0.6467392166666741
                },
                {
                    "name": "C#4",
                    "midi": 61,
                    "time": 671.0870460000029,
                    "velocity": 0.3543307086614173,
                    "duration": 1.3043480000000045
                },
                {
                    "name": "C#5",
                    "midi": 73,
                    "time": 671.0870460000029,
                    "velocity": 0.4251968503937008,
                    "duration": 1.3043480000000045
                },
                {
                    "name": "F4",
                    "midi": 65,
                    "time": 671.0870460000029,
                    "velocity": 0.3543307086614173,
                    "duration": 1.3043480000000045
                },
                {
                    "name": "G#4",
                    "midi": 68,
                    "time": 671.0870460000029,
                    "velocity": 0.3543307086614173,
                    "duration": 1.3043480000000045
                },
                {
                    "name": "C#4",
                    "midi": 61,
                    "time": 672.391394000003,
                    "velocity": 0.28346456692913385,
                    "duration": 0.6467392166666741
                },
                {
                    "name": "C#5",
                    "midi": 73,
                    "time": 672.391394000003,
                    "velocity": 0.33858267716535434,
                    "duration": 0.6467392166666741
                },
                {
                    "name": "A4",
                    "midi": 69,
                    "time": 672.391394000003,
                    "velocity": 0.28346456692913385,
                    "duration": 0.6467392166666741
                },
                {
                    "name": "F#4",
                    "midi": 66,
                    "time": 672.391394000003,
                    "velocity": 0.28346456692913385,
                    "duration": 0.6467392166666741
                },
                {
                    "name": "A4",
                    "midi": 69,
                    "time": 673.043568000003,
                    "velocity": 0.31496062992125984,
                    "duration": 0.6521739999999454
                },
                {
                    "name": "C#4",
                    "midi": 61,
                    "time": 673.043568000003,
                    "velocity": 0.31496062992125984,
                    "duration": 0.6521739999999454
                },
                {
                    "name": "C#5",
                    "midi": 73,
                    "time": 673.043568000003,
                    "velocity": 0.3779527559055118,
                    "duration": 0.6521739999999454
                },
                {
                    "name": "D4",
                    "midi": 62,
                    "time": 673.695742000003,
                    "velocity": 0.28346456692913385,
                    "duration": 0.6521739999999454
                },
                {
                    "name": "D5",
                    "midi": 74,
                    "time": 673.695742000003,
                    "velocity": 0.33858267716535434,
                    "duration": 0.6521739999999454
                },
                {
                    "name": "G4",
                    "midi": 67,
                    "time": 673.695742000003,
                    "velocity": 0.28346456692913385,
                    "duration": 0.6521739999999454
                },
                {
                    "name": "G3",
                    "midi": 55,
                    "time": 674.3479160000029,
                    "velocity": 0.28346456692913385,
                    "duration": 0.6521739999999454
                },
                {
                    "name": "G4",
                    "midi": 67,
                    "time": 674.3479160000029,
                    "velocity": 0.33858267716535434,
                    "duration": 0.6521739999999454
                },
                {
                    "name": "B3",
                    "midi": 59,
                    "time": 675.0000900000028,
                    "velocity": 0.29133858267716534,
                    "duration": 0.6521739999999454
                },
                {
                    "name": "B4",
                    "midi": 71,
                    "time": 675.0000900000028,
                    "velocity": 0.3700787401574803,
                    "duration": 0.6521739999999454
                },
                {
                    "name": "C#3",
                    "midi": 49,
                    "time": 675.6522640000028,
                    "velocity": 0.29133858267716534,
                    "duration": 0.6521739999999454
                },
                {
                    "name": "C#4",
                    "midi": 61,
                    "time": 675.6522640000028,
                    "velocity": 0.3543307086614173,
                    "duration": 0.6521739999999454
                },
                {
                    "name": "F4",
                    "midi": 65,
                    "time": 676.3044380000027,
                    "velocity": 0.3464566929133858,
                    "duration": 0.32608700000002955
                },
                {
                    "name": "F3",
                    "midi": 53,
                    "time": 676.3044380000027,
                    "velocity": 0.29133858267716534,
                    "duration": 0.32608700000002955
                },
                {
                    "name": "F#3",
                    "midi": 54,
                    "time": 676.6305250000028,
                    "velocity": 0.25196850393700787,
                    "duration": 0.32608700000002955
                },
                {
                    "name": "F#4",
                    "midi": 66,
                    "time": 676.6305250000028,
                    "velocity": 0.2992125984251969,
                    "duration": 0.32608700000002955
                },
                {
                    "name": "F#3",
                    "midi": 54,
                    "time": 676.9566120000028,
                    "velocity": 0.1968503937007874,
                    "duration": 0.978260999999975
                },
                {
                    "name": "A#3",
                    "midi": 58,
                    "time": 676.9566120000028,
                    "velocity": 0.1968503937007874,
                    "duration": 0.978260999999975
                },
                {
                    "name": "E4",
                    "midi": 64,
                    "time": 676.9566120000028,
                    "velocity": 0.1968503937007874,
                    "duration": 0.978260999999975
                },
                {
                    "name": "F#4",
                    "midi": 66,
                    "time": 676.9566120000028,
                    "velocity": 0.4094488188976378,
                    "duration": 1.3043480000000045
                },
                {
                    "name": "F#4",
                    "midi": 66,
                    "time": 677.9348730000028,
                    "velocity": 0.1968503937007874,
                    "duration": 0.6467392166666741
                },
                {
                    "name": "F#5",
                    "midi": 78,
                    "time": 678.2609600000028,
                    "velocity": 0.44881889763779526,
                    "duration": 0.6521740000000591
                },
                {
                    "name": "F#4",
                    "midi": 66,
                    "time": 678.5870470000028,
                    "velocity": 0.1968503937007874,
                    "duration": 0.6467392166666741
                },
                {
                    "name": "F#5",
                    "midi": 78,
                    "time": 678.9131340000029,
                    "velocity": 0.44881889763779526,
                    "duration": 1.3043480000001182
                },
                {
                    "name": "F#4",
                    "midi": 66,
                    "time": 679.2392210000029,
                    "velocity": 0.1968503937007874,
                    "duration": 0.6467392166666741
                },
                {
                    "name": "F#4",
                    "midi": 66,
                    "time": 679.891395000003,
                    "velocity": 0.1968503937007874,
                    "duration": 0.6467392166666741
                },
                {
                    "name": "C#5",
                    "midi": 73,
                    "time": 680.217482000003,
                    "velocity": 0.3937007874015748,
                    "duration": 0.6521740000000591
                },
                {
                    "name": "F#4",
                    "midi": 66,
                    "time": 680.543569000003,
                    "velocity": 0.1968503937007874,
                    "duration": 0.6467392166666741
                },
                {
                    "name": "E5",
                    "midi": 76,
                    "time": 680.869656000003,
                    "velocity": 0.44881889763779526,
                    "duration": 0.6521740000000591
                },
                {
                    "name": "F#4",
                    "midi": 66,
                    "time": 681.1957430000031,
                    "velocity": 0.1968503937007874,
                    "duration": 0.6467392166666741
                },
                {
                    "name": "D5",
                    "midi": 74,
                    "time": 681.5218300000031,
                    "velocity": 0.4015748031496063,
                    "duration": 0.6521740000000591
                },
                {
                    "name": "D4",
                    "midi": 62,
                    "time": 681.8479170000031,
                    "velocity": 0.1968503937007874,
                    "duration": 0.6467392166666741
                },
                {
                    "name": "G#4",
                    "midi": 68,
                    "time": 681.8479170000031,
                    "velocity": 0.1968503937007874,
                    "duration": 0.6467392166666741
                },
                {
                    "name": "F4",
                    "midi": 65,
                    "time": 681.8479170000031,
                    "velocity": 0.1968503937007874,
                    "duration": 0.6467392166666741
                },
                {
                    "name": "B4",
                    "midi": 71,
                    "time": 682.1740040000032,
                    "velocity": 0.4015748031496063,
                    "duration": 1.3043480000001182
                },
                {
                    "name": "D4",
                    "midi": 62,
                    "time": 682.5000910000032,
                    "velocity": 0.1968503937007874,
                    "duration": 0.6467392166666741
                },
                {
                    "name": "F4",
                    "midi": 65,
                    "time": 682.5000910000032,
                    "velocity": 0.1968503937007874,
                    "duration": 0.6467392166666741
                },
                {
                    "name": "G#4",
                    "midi": 68,
                    "time": 682.5000910000032,
                    "velocity": 0.1968503937007874,
                    "duration": 0.6467392166666741
                },
                {
                    "name": "D4",
                    "midi": 62,
                    "time": 683.1522650000032,
                    "velocity": 0.1968503937007874,
                    "duration": 0.6467392166666741
                },
                {
                    "name": "F4",
                    "midi": 65,
                    "time": 683.1522650000032,
                    "velocity": 0.1968503937007874,
                    "duration": 0.6467392166666741
                },
                {
                    "name": "G#4",
                    "midi": 68,
                    "time": 683.1522650000032,
                    "velocity": 0.1968503937007874,
                    "duration": 0.6467392166666741
                },
                {
                    "name": "D5",
                    "midi": 74,
                    "time": 683.4783520000033,
                    "velocity": 0.4409448818897638,
                    "duration": 0.6521740000000591
                },
                {
                    "name": "D4",
                    "midi": 62,
                    "time": 683.8044390000033,
                    "velocity": 0.1968503937007874,
                    "duration": 0.6467392166666741
                },
                {
                    "name": "F4",
                    "midi": 65,
                    "time": 683.8044390000033,
                    "velocity": 0.1968503937007874,
                    "duration": 0.6467392166666741
                },
                {
                    "name": "G#4",
                    "midi": 68,
                    "time": 683.8044390000033,
                    "velocity": 0.1968503937007874,
                    "duration": 0.6467392166666741
                },
                {
                    "name": "B4",
                    "midi": 71,
                    "time": 684.1305260000033,
                    "velocity": 0.41732283464566927,
                    "duration": 0.6521740000000591
                },
                {
                    "name": "D4",
                    "midi": 62,
                    "time": 684.4566130000034,
                    "velocity": 0.1968503937007874,
                    "duration": 0.32336960833333706
                },
                {
                    "name": "F4",
                    "midi": 65,
                    "time": 684.4566130000034,
                    "velocity": 0.1968503937007874,
                    "duration": 0.32336960833333706
                },
                {
                    "name": "G#4",
                    "midi": 68,
                    "time": 684.4566130000034,
                    "velocity": 0.1968503937007874,
                    "duration": 0.32336960833333706
                },
                {
                    "name": "C#4",
                    "midi": 61,
                    "time": 684.7827000000034,
                    "velocity": 0.2677165354330709,
                    "duration": 0.6521740000000591
                },
                {
                    "name": "F#4",
                    "midi": 66,
                    "time": 684.7827000000034,
                    "velocity": 0.2677165354330709,
                    "duration": 0.6521740000000591
                },
                {
                    "name": "A#4",
                    "midi": 70,
                    "time": 684.7827000000034,
                    "velocity": 0.3779527559055118,
                    "duration": 0.21739133333335303
                },
                {
                    "name": "F#5",
                    "midi": 78,
                    "time": 685.0000913333367,
                    "velocity": 0.3543307086614173,
                    "duration": 0.21739133333335303
                },
                {
                    "name": "C#5",
                    "midi": 73,
                    "time": 685.2174826666701,
                    "velocity": 0.3779527559055118,
                    "duration": 0.21739133333335303
                },
                {
                    "name": "A#5",
                    "midi": 82,
                    "time": 685.4348740000034,
                    "velocity": 0.4251968503937008,
                    "duration": 0.21739133333335303
                },
                {
                    "name": "F#5",
                    "midi": 78,
                    "time": 685.6522653333368,
                    "velocity": 0.4015748031496063,
                    "duration": 0.21739133333335303
                },
                {
                    "name": "C#6",
                    "midi": 85,
                    "time": 685.8696566666702,
                    "velocity": 0.4015748031496063,
                    "duration": 0.21739133333335303
                },
                {
                    "name": "F#5",
                    "midi": 78,
                    "time": 686.0870480000035,
                    "velocity": 0.44881889763779526,
                    "duration": 0.21739133333335303
                },
                {
                    "name": "G6",
                    "midi": 91,
                    "time": 686.3044393333369,
                    "velocity": 0.49606299212598426,
                    "duration": 0.21739133333335303
                },
                {
                    "name": "F#6",
                    "midi": 90,
                    "time": 686.5218306666702,
                    "velocity": 0.4645669291338583,
                    "duration": 0.21739133333335303
                },
                {
                    "name": "F6",
                    "midi": 89,
                    "time": 686.7392220000036,
                    "velocity": 0.5039370078740157,
                    "duration": 0.21739133333335303
                },
                {
                    "name": "F#6",
                    "midi": 90,
                    "time": 686.9566133333369,
                    "velocity": 0.4645669291338583,
                    "duration": 0.21739133333335303
                },
                {
                    "name": "E6",
                    "midi": 88,
                    "time": 687.1740046666703,
                    "velocity": 0.4645669291338583,
                    "duration": 0.43478266666670606
                },
                {
                    "name": "C#6",
                    "midi": 85,
                    "time": 687.608787333337,
                    "velocity": 0.44881889763779526,
                    "duration": 0.21739133333335303
                },
                {
                    "name": "A#5",
                    "midi": 82,
                    "time": 687.8261786666703,
                    "velocity": 0.44881889763779526,
                    "duration": 0.21739133333335303
                },
                {
                    "name": "C#5",
                    "midi": 73,
                    "time": 688.0435700000037,
                    "velocity": 0.2677165354330709,
                    "duration": 0.6521740000000591
                },
                {
                    "name": "G5",
                    "midi": 79,
                    "time": 688.0435700000037,
                    "velocity": 0.4881889763779528,
                    "duration": 0.21739133333335303
                },
                {
                    "name": "F#5",
                    "midi": 78,
                    "time": 688.260961333337,
                    "velocity": 0.47244094488188976,
                    "duration": 0.21739133333335303
                },
                {
                    "name": "E5",
                    "midi": 76,
                    "time": 688.4783526666704,
                    "velocity": 0.47244094488188976,
                    "duration": 0.43478266666670606
                },
                {
                    "name": "C#5",
                    "midi": 73,
                    "time": 688.9131353333371,
                    "velocity": 0.4645669291338583,
                    "duration": 0.21739133333335303
                },
                {
                    "name": "D5",
                    "midi": 74,
                    "time": 689.1305266666704,
                    "velocity": 0.4645669291338583,
                    "duration": 0.21739133333335303
                },
                {
                    "name": "B5",
                    "midi": 83,
                    "time": 689.3479180000038,
                    "velocity": 0.49606299212598426,
                    "duration": 0.21739133333335303
                },
                {
                    "name": "G#5",
                    "midi": 80,
                    "time": 689.5653093333372,
                    "velocity": 0.41732283464566927,
                    "duration": 0.21739133333335303
                },
                {
                    "name": "D6",
                    "midi": 86,
                    "time": 689.7827006666705,
                    "velocity": 0.4566929133858268,
                    "duration": 0.43478266666670606
                },
                {
                    "name": "C#6",
                    "midi": 85,
                    "time": 690.2174833333372,
                    "velocity": 0.41732283464566927,
                    "duration": 0.21739133333335303
                },
                {
                    "name": "B5",
                    "midi": 83,
                    "time": 690.4348746666706,
                    "velocity": 0.3937007874015748,
                    "duration": 0.21195654999996805
                },
                {
                    "name": "B4",
                    "midi": 71,
                    "time": 690.6522660000039,
                    "velocity": 0.33070866141732286,
                    "duration": 1.2907610416666557
                },
                {
                    "name": "D5",
                    "midi": 74,
                    "time": 690.6522660000039,
                    "velocity": 0.33070866141732286,
                    "duration": 1.2907610416666557
                },
                {
                    "name": "F5",
                    "midi": 77,
                    "time": 690.6522660000039,
                    "velocity": 0.33070866141732286,
                    "duration": 1.2907610416666557
                },
                {
                    "name": "G#5",
                    "midi": 80,
                    "time": 690.6522660000039,
                    "velocity": 0.33070866141732286,
                    "duration": 1.2907610416666557
                },
                {
                    "name": "B5",
                    "midi": 83,
                    "time": 690.6522660000039,
                    "velocity": 0.4094488188976378,
                    "duration": 1.2907610416666557
                },
                {
                    "name": "B4",
                    "midi": 71,
                    "time": 691.9566140000039,
                    "velocity": 0.3464566929133858,
                    "duration": 0.6521739999999454
                },
                {
                    "name": "D5",
                    "midi": 74,
                    "time": 691.9566140000039,
                    "velocity": 0.3464566929133858,
                    "duration": 0.6521739999999454
                },
                {
                    "name": "F5",
                    "midi": 77,
                    "time": 691.9566140000039,
                    "velocity": 0.3464566929133858,
                    "duration": 0.6521739999999454
                },
                {
                    "name": "G#5",
                    "midi": 80,
                    "time": 691.9566140000039,
                    "velocity": 0.3464566929133858,
                    "duration": 0.6521739999999454
                },
                {
                    "name": "B5",
                    "midi": 83,
                    "time": 691.9566140000039,
                    "velocity": 0.4409448818897638,
                    "duration": 0.6521739999999454
                },
                {
                    "name": "A#4",
                    "midi": 70,
                    "time": 692.6087880000039,
                    "velocity": 0.33858267716535434,
                    "duration": 3.255435216666683
                },
                {
                    "name": "C#5",
                    "midi": 73,
                    "time": 692.6087880000039,
                    "velocity": 0.33858267716535434,
                    "duration": 3.255435216666683
                },
                {
                    "name": "F#5",
                    "midi": 78,
                    "time": 692.6087880000039,
                    "velocity": 0.33858267716535434,
                    "duration": 3.255435216666683
                },
                {
                    "name": "A#5",
                    "midi": 82,
                    "time": 692.6087880000039,
                    "velocity": 0.4251968503937008,
                    "duration": 3.255435216666683
                },
                {
                    "name": "A#4",
                    "midi": 70,
                    "time": 695.8696580000039,
                    "velocity": 0.33070866141732286,
                    "duration": 1.9510872166666786
                },
                {
                    "name": "C#5",
                    "midi": 73,
                    "time": 695.8696580000039,
                    "velocity": 0.33070866141732286,
                    "duration": 1.9510872166666786
                },
                {
                    "name": "F#5",
                    "midi": 78,
                    "time": 695.8696580000039,
                    "velocity": 0.33070866141732286,
                    "duration": 1.9510872166666786
                },
                {
                    "name": "A#5",
                    "midi": 82,
                    "time": 695.8696580000039,
                    "velocity": 0.41732283464566927,
                    "duration": 1.9510872166666786
                },
                {
                    "name": "F#6",
                    "midi": 90,
                    "time": 697.826180000004,
                    "velocity": 0.3937007874015748,
                    "duration": 1.9510872166666786
                },
                {
                    "name": "A#5",
                    "midi": 82,
                    "time": 697.826180000004,
                    "velocity": 0.31496062992125984,
                    "duration": 1.9510872166666786
                },
                {
                    "name": "F#5",
                    "midi": 78,
                    "time": 697.826180000004,
                    "velocity": 0.31496062992125984,
                    "duration": 1.9510872166666786
                },
                {
                    "name": "F#5",
                    "midi": 78,
                    "time": 699.7827020000041,
                    "velocity": 0.28346456692913385,
                    "duration": 1.2907610416666557
                },
                {
                    "name": "A#5",
                    "midi": 82,
                    "time": 699.7827020000041,
                    "velocity": 0.28346456692913385,
                    "duration": 1.2907610416666557
                },
                {
                    "name": "F#6",
                    "midi": 90,
                    "time": 699.7827020000041,
                    "velocity": 0.36220472440944884,
                    "duration": 1.2907610416666557
                },
                {
                    "name": "A#6",
                    "midi": 94,
                    "time": 701.0870500000041,
                    "velocity": 0.3464566929133858,
                    "duration": 2.584239475000004
                },
                {
                    "name": "C#6",
                    "midi": 85,
                    "time": 701.0870500000041,
                    "velocity": 0.2755905511811024,
                    "duration": 2.584239475000004
                },
                {
                    "name": "A#5",
                    "midi": 82,
                    "time": 701.0870500000041,
                    "velocity": 0.2755905511811024,
                    "duration": 2.584239475000004
                },
                {
                    "name": "C#5",
                    "midi": 73,
                    "time": 703.6957460000041,
                    "velocity": 0.2755905511811024,
                    "duration": 0.6521739999999454
                },
                {
                    "name": "C#5",
                    "midi": 73,
                    "time": 704.347920000004,
                    "velocity": 0.2992125984251969,
                    "duration": 1.3043480000000045
                },
                {
                    "name": "A4",
                    "midi": 69,
                    "time": 705.652268000004,
                    "velocity": 0.25984251968503935,
                    "duration": 0.6467392166666741
                },
                {
                    "name": "A4",
                    "midi": 69,
                    "time": 706.3044420000041,
                    "velocity": 0.29133858267716534,
                    "duration": 0.6521739999999454
                },
                {
                    "name": "F#4",
                    "midi": 66,
                    "time": 706.956616000004,
                    "velocity": 0.25196850393700787,
                    "duration": 0.6521739999999454
                },
                {
                    "name": "F4",
                    "midi": 65,
                    "time": 707.608790000004,
                    "velocity": 0.2125984251968504,
                    "duration": 0.6521739999999454
                },
                {
                    "name": "G#4",
                    "midi": 68,
                    "time": 707.608790000004,
                    "velocity": 0.25196850393700787,
                    "duration": 0.6521739999999454
                },
                {
                    "name": "C#4",
                    "midi": 61,
                    "time": 707.608790000004,
                    "velocity": 0.2125984251968504,
                    "duration": 0.6521739999999454
                },
                {
                    "name": "F#4",
                    "midi": 66,
                    "time": 708.2609640000039,
                    "velocity": 0.25984251968503935,
                    "duration": 1.3043480000000045
                },
                {
                    "name": "A4",
                    "midi": 69,
                    "time": 708.2609640000039,
                    "velocity": 0.31496062992125984,
                    "duration": 1.3043480000000045
                },
                {
                    "name": "C#4",
                    "midi": 61,
                    "time": 708.2609640000039,
                    "velocity": 0.25984251968503935,
                    "duration": 1.3043480000000045
                },
                {
                    "name": "A#3",
                    "midi": 58,
                    "time": 709.5653120000039,
                    "velocity": 0.2283464566929134,
                    "duration": 0.6521739999999454
                },
                {
                    "name": "C#4",
                    "midi": 61,
                    "time": 709.5653120000039,
                    "velocity": 0.2283464566929134,
                    "duration": 0.6521739999999454
                },
                {
                    "name": "F#4",
                    "midi": 66,
                    "time": 709.5653120000039,
                    "velocity": 0.2283464566929134,
                    "duration": 0.6521739999999454
                },
                {
                    "name": "A#4",
                    "midi": 70,
                    "time": 709.5653120000039,
                    "velocity": 0.29133858267716534,
                    "duration": 0.6521739999999454
                },
                {
                    "name": "D4",
                    "midi": 62,
                    "time": 710.2174860000039,
                    "velocity": 0.28346456692913385,
                    "duration": 1.3043480000000045
                },
                {
                    "name": "B3",
                    "midi": 59,
                    "time": 710.2174860000039,
                    "velocity": 0.28346456692913385,
                    "duration": 1.3043480000000045
                },
                {
                    "name": "B4",
                    "midi": 71,
                    "time": 710.2174860000039,
                    "velocity": 0.36220472440944884,
                    "duration": 1.3043480000000045
                },
                {
                    "name": "F#4",
                    "midi": 66,
                    "time": 710.2174860000039,
                    "velocity": 0.28346456692913385,
                    "duration": 1.3043480000000045
                },
                {
                    "name": "A#4",
                    "midi": 70,
                    "time": 711.5218340000039,
                    "velocity": 0.30708661417322836,
                    "duration": 0.6521739999999454
                },
                {
                    "name": "F#4",
                    "midi": 66,
                    "time": 711.5218340000039,
                    "velocity": 0.30708661417322836,
                    "duration": 0.6521739999999454
                },
                {
                    "name": "C#4",
                    "midi": 61,
                    "time": 711.5218340000039,
                    "velocity": 0.30708661417322836,
                    "duration": 0.6521739999999454
                },
                {
                    "name": "C#5",
                    "midi": 73,
                    "time": 711.5218340000039,
                    "velocity": 0.3858267716535433,
                    "duration": 0.6521739999999454
                },
                {
                    "name": "B4",
                    "midi": 71,
                    "time": 712.1740080000038,
                    "velocity": 0.3464566929133858,
                    "duration": 0.6467392166666741
                },
                {
                    "name": "D4",
                    "midi": 62,
                    "time": 712.1740080000038,
                    "velocity": 0.3464566929133858,
                    "duration": 0.6467392166666741
                },
                {
                    "name": "D5",
                    "midi": 74,
                    "time": 712.1740080000038,
                    "velocity": 0.4409448818897638,
                    "duration": 0.6467392166666741
                },
                {
                    "name": "F#4",
                    "midi": 66,
                    "time": 712.1740080000038,
                    "velocity": 0.3464566929133858,
                    "duration": 0.6467392166666741
                },
                {
                    "name": "B4",
                    "midi": 71,
                    "time": 712.8261820000039,
                    "velocity": 0.2204724409448819,
                    "duration": 1.2907610416666557
                },
                {
                    "name": "G#4",
                    "midi": 68,
                    "time": 712.8261820000039,
                    "velocity": 0.2204724409448819,
                    "duration": 1.2907610416666557
                },
                {
                    "name": "D5",
                    "midi": 74,
                    "time": 712.8261820000039,
                    "velocity": 0.2755905511811024,
                    "duration": 1.2907610416666557
                },
                {
                    "name": "D4",
                    "midi": 62,
                    "time": 712.8261820000039,
                    "velocity": 0.2204724409448819,
                    "duration": 1.2907610416666557
                },
                {
                    "name": "B4",
                    "midi": 71,
                    "time": 714.1305300000039,
                    "velocity": 0.25984251968503935,
                    "duration": 1.2907610416666557
                },
                {
                    "name": "G#4",
                    "midi": 68,
                    "time": 714.1305300000039,
                    "velocity": 0.25984251968503935,
                    "duration": 1.2907610416666557
                },
                {
                    "name": "D5",
                    "midi": 74,
                    "time": 714.1305300000039,
                    "velocity": 0.33070866141732286,
                    "duration": 1.2907610416666557
                },
                {
                    "name": "D4",
                    "midi": 62,
                    "time": 714.1305300000039,
                    "velocity": 0.25984251968503935,
                    "duration": 1.2907610416666557
                },
                {
                    "name": "D4",
                    "midi": 62,
                    "time": 715.4348780000039,
                    "velocity": 0.1968503937007874,
                    "duration": 0.32608700000002955
                },
                {
                    "name": "G#4",
                    "midi": 68,
                    "time": 715.4348780000039,
                    "velocity": 0.1968503937007874,
                    "duration": 0.32608700000002955
                },
                {
                    "name": "B4",
                    "midi": 71,
                    "time": 715.4348780000039,
                    "velocity": 0.1968503937007874,
                    "duration": 0.32608700000002955
                },
                {
                    "name": "D5",
                    "midi": 74,
                    "time": 715.4348780000039,
                    "velocity": 0.25196850393700787,
                    "duration": 0.32608700000002955
                },
                {
                    "name": "A#4",
                    "midi": 70,
                    "time": 715.7609650000039,
                    "velocity": 0.1968503937007874,
                    "duration": 0.31793482499995207
                },
                {
                    "name": "C#4",
                    "midi": 61,
                    "time": 715.7609650000039,
                    "velocity": 0.1968503937007874,
                    "duration": 0.31793482499995207
                },
                {
                    "name": "C#5",
                    "midi": 73,
                    "time": 715.7609650000039,
                    "velocity": 0.25196850393700787,
                    "duration": 0.31793482499995207
                },
                {
                    "name": "C#4",
                    "midi": 61,
                    "time": 716.0870520000038,
                    "velocity": 0.25984251968503935,
                    "duration": 3.9130440000000135
                },
                {
                    "name": "A#4",
                    "midi": 70,
                    "time": 716.0870520000038,
                    "velocity": 0.25984251968503935,
                    "duration": 3.9130440000000135
                },
                {
                    "name": "C#5",
                    "midi": 73,
                    "time": 716.0870520000038,
                    "velocity": 0.30708661417322836,
                    "duration": 3.9130440000000135
                },
                {
                    "name": "A#4",
                    "midi": 70,
                    "time": 720.0000960000039,
                    "velocity": 0.2204724409448819,
                    "duration": 3.9076092166666285
                },
                {
                    "name": "F#5",
                    "midi": 78,
                    "time": 720.0000960000039,
                    "velocity": 0.2204724409448819,
                    "duration": 3.9076092166666285
                },
                {
                    "name": "C#6",
                    "midi": 85,
                    "time": 720.0000960000039,
                    "velocity": 0.25984251968503935,
                    "duration": 3.9076092166666285
                },
                {
                    "name": "A#4",
                    "midi": 70,
                    "time": 723.9131400000039,
                    "velocity": 0.2204724409448819,
                    "duration": 1.95652199999995
                },
                {
                    "name": "F#5",
                    "midi": 78,
                    "time": 723.9131400000039,
                    "velocity": 0.2204724409448819,
                    "duration": 1.95652199999995
                },
                {
                    "name": "C#6",
                    "midi": 85,
                    "time": 723.9131400000039,
                    "velocity": 0.25984251968503935,
                    "duration": 1.95652199999995
                },
                {
                    "name": "A#3",
                    "midi": 58,
                    "time": 725.8696620000038,
                    "velocity": 0.2204724409448819,
                    "duration": 1.95652199999995
                },
                {
                    "name": "F#4",
                    "midi": 66,
                    "time": 725.8696620000038,
                    "velocity": 0.2204724409448819,
                    "duration": 1.95652199999995
                },
                {
                    "name": "C#5",
                    "midi": 73,
                    "time": 725.8696620000038,
                    "velocity": 0.25984251968503935,
                    "duration": 1.95652199999995
                },
                {
                    "name": "A#3",
                    "midi": 58,
                    "time": 728.3153145000038,
                    "velocity": 0.1889763779527559,
                    "duration": 0.8152174999999033
                },
                {
                    "name": "F#4",
                    "midi": 66,
                    "time": 728.4783580000037,
                    "velocity": 0.1889763779527559,
                    "duration": 0.6521739999999454
                },
                {
                    "name": "C#5",
                    "midi": 73,
                    "time": 728.6414015000037,
                    "velocity": 0.25984251968503935,
                    "duration": 0.4891304999999875
                }
            ],
            "controlChanges": {},
            "id": 1,
            "name": "Piano right",
            "instrumentNumber": 0,
            "instrument": "acoustic grand piano",
            "instrumentFamily": "piano",
            "channelNumber": 0,
            "isPercussion": false
        },
        {
            "startTime": 0,
            "duration": 729.130531999984,
            "length": 2723,
            "notes": [
                {
                    "name": "A1",
                    "midi": 33,
                    "time": 0,
                    "velocity": 0.18110236220472442,
                    "duration": 1.9565219999999997
                },
                {
                    "name": "A2",
                    "midi": 45,
                    "time": 0,
                    "velocity": 0.2204724409448819,
                    "duration": 1.9565219999999997
                },
                {
                    "name": "C#2",
                    "midi": 37,
                    "time": 1.9565219999999997,
                    "velocity": 0.16535433070866143,
                    "duration": 1.9565219999999997
                },
                {
                    "name": "C#3",
                    "midi": 49,
                    "time": 1.9565219999999997,
                    "velocity": 0.23622047244094488,
                    "duration": 1.9565219999999997
                },
                {
                    "name": "F#2",
                    "midi": 42,
                    "time": 3.9130439999999993,
                    "velocity": 0.2283464566929134,
                    "duration": 1.9565219999999997
                },
                {
                    "name": "C#3",
                    "midi": 49,
                    "time": 3.9130439999999993,
                    "velocity": 0.2283464566929134,
                    "duration": 1.9565219999999997
                },
                {
                    "name": "F#3",
                    "midi": 54,
                    "time": 3.9130439999999993,
                    "velocity": 0.2755905511811024,
                    "duration": 1.9565219999999997
                },
                {
                    "name": "F#2",
                    "midi": 42,
                    "time": 5.869565999999999,
                    "velocity": 0.2283464566929134,
                    "duration": 0.6521739999999996
                },
                {
                    "name": "C#3",
                    "midi": 49,
                    "time": 5.869565999999999,
                    "velocity": 0.2283464566929134,
                    "duration": 0.6521739999999996
                },
                {
                    "name": "F#3",
                    "midi": 54,
                    "time": 5.869565999999999,
                    "velocity": 0.2755905511811024,
                    "duration": 0.6521739999999996
                },
                {
                    "name": "A2",
                    "midi": 45,
                    "time": 6.5217399999999985,
                    "velocity": 0.2047244094488189,
                    "duration": 0.6521739999999996
                },
                {
                    "name": "C#3",
                    "midi": 49,
                    "time": 6.5217399999999985,
                    "velocity": 0.2047244094488189,
                    "duration": 0.6521739999999996
                },
                {
                    "name": "A3",
                    "midi": 57,
                    "time": 6.5217399999999985,
                    "velocity": 0.2440944881889764,
                    "duration": 0.6521739999999996
                },
                {
                    "name": "G#2",
                    "midi": 44,
                    "time": 7.173913999999998,
                    "velocity": 0.2047244094488189,
                    "duration": 0.6521739999999996
                },
                {
                    "name": "C#3",
                    "midi": 49,
                    "time": 7.173913999999998,
                    "velocity": 0.2047244094488189,
                    "duration": 0.6521739999999996
                },
                {
                    "name": "G#3",
                    "midi": 56,
                    "time": 7.173913999999998,
                    "velocity": 0.2440944881889764,
                    "duration": 0.6521739999999996
                },
                {
                    "name": "F#2",
                    "midi": 42,
                    "time": 7.826087999999998,
                    "velocity": 0.2204724409448819,
                    "duration": 1.9565220000000005
                },
                {
                    "name": "C#3",
                    "midi": 49,
                    "time": 7.826087999999998,
                    "velocity": 0.2204724409448819,
                    "duration": 1.9565220000000005
                },
                {
                    "name": "F#3",
                    "midi": 54,
                    "time": 7.826087999999998,
                    "velocity": 0.2677165354330709,
                    "duration": 1.9565220000000005
                },
                {
                    "name": "D2",
                    "midi": 38,
                    "time": 9.782609999999998,
                    "velocity": 0.25984251968503935,
                    "duration": 1.3043479999999992
                },
                {
                    "name": "D3",
                    "midi": 50,
                    "time": 9.782609999999998,
                    "velocity": 0.30708661417322836,
                    "duration": 1.3043479999999992
                },
                {
                    "name": "B1",
                    "midi": 35,
                    "time": 11.086957999999997,
                    "velocity": 0.2677165354330709,
                    "duration": 0.646739216666667
                },
                {
                    "name": "B2",
                    "midi": 47,
                    "time": 11.086957999999997,
                    "velocity": 0.31496062992125984,
                    "duration": 0.646739216666667
                },
                {
                    "name": "B1",
                    "midi": 35,
                    "time": 11.739131999999998,
                    "velocity": 0.29133858267716534,
                    "duration": 1.3043479999999992
                },
                {
                    "name": "B2",
                    "midi": 47,
                    "time": 11.739131999999998,
                    "velocity": 0.36220472440944884,
                    "duration": 1.3043479999999992
                },
                {
                    "name": "A1",
                    "midi": 33,
                    "time": 13.043479999999997,
                    "velocity": 0.2755905511811024,
                    "duration": 0.646739216666667
                },
                {
                    "name": "A2",
                    "midi": 45,
                    "time": 13.043479999999997,
                    "velocity": 0.33070866141732286,
                    "duration": 0.646739216666667
                },
                {
                    "name": "A1",
                    "midi": 33,
                    "time": 13.695653999999998,
                    "velocity": 0.30708661417322836,
                    "duration": 0.6521740000000005
                },
                {
                    "name": "A2",
                    "midi": 45,
                    "time": 13.695653999999998,
                    "velocity": 0.3779527559055118,
                    "duration": 0.6521740000000005
                },
                {
                    "name": "G#1",
                    "midi": 32,
                    "time": 14.347827999999998,
                    "velocity": 0.2992125984251969,
                    "duration": 0.6521740000000005
                },
                {
                    "name": "G#2",
                    "midi": 44,
                    "time": 14.347827999999998,
                    "velocity": 0.3543307086614173,
                    "duration": 0.6521740000000005
                },
                {
                    "name": "F#1",
                    "midi": 30,
                    "time": 15.000001999999999,
                    "velocity": 0.31496062992125984,
                    "duration": 0.6521740000000005
                },
                {
                    "name": "F#2",
                    "midi": 42,
                    "time": 15.000001999999999,
                    "velocity": 0.3779527559055118,
                    "duration": 0.6521740000000005
                },
                {
                    "name": "F1",
                    "midi": 29,
                    "time": 15.652175999999999,
                    "velocity": 0.30708661417322836,
                    "duration": 1.9565219999999979
                },
                {
                    "name": "F2",
                    "midi": 41,
                    "time": 15.652175999999999,
                    "velocity": 0.3779527559055118,
                    "duration": 1.9565219999999979
                },
                {
                    "name": "B3",
                    "midi": 59,
                    "time": 17.608697999999997,
                    "velocity": 0.23622047244094488,
                    "duration": 1.9565219999999997
                },
                {
                    "name": "G#3",
                    "midi": 56,
                    "time": 17.608697999999997,
                    "velocity": 0.23622047244094488,
                    "duration": 1.9565219999999997
                },
                {
                    "name": "F3",
                    "midi": 53,
                    "time": 17.608697999999997,
                    "velocity": 0.23622047244094488,
                    "duration": 1.9565219999999997
                },
                {
                    "name": "D4",
                    "midi": 62,
                    "time": 17.608697999999997,
                    "velocity": 0.28346456692913385,
                    "duration": 1.9565219999999997
                },
                {
                    "name": "F1",
                    "midi": 29,
                    "time": 19.565219999999997,
                    "velocity": 0.2204724409448819,
                    "duration": 1.9565219999999997
                },
                {
                    "name": "F2",
                    "midi": 41,
                    "time": 19.565219999999997,
                    "velocity": 0.2677165354330709,
                    "duration": 1.9565219999999997
                },
                {
                    "name": "F#1",
                    "midi": 30,
                    "time": 21.521741999999996,
                    "velocity": 0.1968503937007874,
                    "duration": 1.304348000000001
                },
                {
                    "name": "F#2",
                    "midi": 42,
                    "time": 21.521741999999996,
                    "velocity": 0.23622047244094488,
                    "duration": 1.304348000000001
                },
                {
                    "name": "G#1",
                    "midi": 32,
                    "time": 22.826089999999997,
                    "velocity": 0.2047244094488189,
                    "duration": 0.646739216666667
                },
                {
                    "name": "G#2",
                    "midi": 44,
                    "time": 22.826089999999997,
                    "velocity": 0.2440944881889764,
                    "duration": 0.646739216666667
                },
                {
                    "name": "G#1",
                    "midi": 32,
                    "time": 23.478263999999996,
                    "velocity": 0.2283464566929134,
                    "duration": 1.9375002583333334
                },
                {
                    "name": "G#2",
                    "midi": 44,
                    "time": 23.478263999999996,
                    "velocity": 0.2755905511811024,
                    "duration": 1.9375002583333334
                },
                {
                    "name": "G#1",
                    "midi": 32,
                    "time": 25.434785999999995,
                    "velocity": 0.2283464566929134,
                    "duration": 0.6521739999999987
                },
                {
                    "name": "G#2",
                    "midi": 44,
                    "time": 25.434785999999995,
                    "velocity": 0.2755905511811024,
                    "duration": 0.6521739999999987
                },
                {
                    "name": "A1",
                    "midi": 33,
                    "time": 26.086959999999994,
                    "velocity": 0.2047244094488189,
                    "duration": 0.6521739999999987
                },
                {
                    "name": "A2",
                    "midi": 45,
                    "time": 26.086959999999994,
                    "velocity": 0.2440944881889764,
                    "duration": 0.6521739999999987
                },
                {
                    "name": "B1",
                    "midi": 35,
                    "time": 26.739133999999993,
                    "velocity": 0.2047244094488189,
                    "duration": 0.6521739999999987
                },
                {
                    "name": "B2",
                    "midi": 47,
                    "time": 26.739133999999993,
                    "velocity": 0.2440944881889764,
                    "duration": 0.6521739999999987
                },
                {
                    "name": "C2",
                    "midi": 36,
                    "time": 27.39130799999999,
                    "velocity": 0.2283464566929134,
                    "duration": 1.2907610416666664
                },
                {
                    "name": "C3",
                    "midi": 48,
                    "time": 27.39130799999999,
                    "velocity": 0.2755905511811024,
                    "duration": 1.2907610416666664
                },
                {
                    "name": "C2",
                    "midi": 36,
                    "time": 28.695655999999993,
                    "velocity": 0.2125984251968504,
                    "duration": 0.646739216666667
                },
                {
                    "name": "C3",
                    "midi": 48,
                    "time": 28.695655999999993,
                    "velocity": 0.25196850393700787,
                    "duration": 0.646739216666667
                },
                {
                    "name": "C2",
                    "midi": 36,
                    "time": 29.34782999999999,
                    "velocity": 0.25984251968503935,
                    "duration": 0.646739216666667
                },
                {
                    "name": "C3",
                    "midi": 48,
                    "time": 29.34782999999999,
                    "velocity": 0.31496062992125984,
                    "duration": 0.646739216666667
                },
                {
                    "name": "C2",
                    "midi": 36,
                    "time": 30.00000399999999,
                    "velocity": 0.2440944881889764,
                    "duration": 0.646739216666667
                },
                {
                    "name": "C3",
                    "midi": 48,
                    "time": 30.00000399999999,
                    "velocity": 0.29133858267716534,
                    "duration": 0.646739216666667
                },
                {
                    "name": "C2",
                    "midi": 36,
                    "time": 30.65217799999999,
                    "velocity": 0.25196850393700787,
                    "duration": 0.6521739999999987
                },
                {
                    "name": "C3",
                    "midi": 48,
                    "time": 30.65217799999999,
                    "velocity": 0.30708661417322836,
                    "duration": 0.6521739999999987
                },
                {
                    "name": "C#2",
                    "midi": 37,
                    "time": 31.304351999999987,
                    "velocity": 0.25196850393700787,
                    "duration": 1.9565219999999997
                },
                {
                    "name": "C#3",
                    "midi": 49,
                    "time": 31.304351999999987,
                    "velocity": 0.30708661417322836,
                    "duration": 1.9565219999999997
                },
                {
                    "name": "C#2",
                    "midi": 37,
                    "time": 33.26087399999999,
                    "velocity": 0.2125984251968504,
                    "duration": 0.6521740000000023
                },
                {
                    "name": "C#3",
                    "midi": 49,
                    "time": 33.26087399999999,
                    "velocity": 0.25196850393700787,
                    "duration": 0.6521740000000023
                },
                {
                    "name": "C#3",
                    "midi": 49,
                    "time": 33.91304799999999,
                    "velocity": 0.2440944881889764,
                    "duration": 0.6521740000000023
                },
                {
                    "name": "F3",
                    "midi": 53,
                    "time": 33.91304799999999,
                    "velocity": 0.2440944881889764,
                    "duration": 0.6521740000000023
                },
                {
                    "name": "G#3",
                    "midi": 56,
                    "time": 33.91304799999999,
                    "velocity": 0.29133858267716534,
                    "duration": 0.6521740000000023
                },
                {
                    "name": "C#3",
                    "midi": 49,
                    "time": 34.56522199999999,
                    "velocity": 0.2440944881889764,
                    "duration": 0.6521740000000023
                },
                {
                    "name": "G#3",
                    "midi": 56,
                    "time": 34.56522199999999,
                    "velocity": 0.2440944881889764,
                    "duration": 0.6521740000000023
                },
                {
                    "name": "B3",
                    "midi": 59,
                    "time": 34.56522199999999,
                    "velocity": 0.29133858267716534,
                    "duration": 0.6521740000000023
                },
                {
                    "name": "C#3",
                    "midi": 49,
                    "time": 35.217395999999994,
                    "velocity": 0.28346456692913385,
                    "duration": 1.3043479999999974
                },
                {
                    "name": "B3",
                    "midi": 59,
                    "time": 35.217395999999994,
                    "velocity": 0.33858267716535434,
                    "duration": 1.3043479999999974
                },
                {
                    "name": "C#3",
                    "midi": 49,
                    "time": 36.52174399999999,
                    "velocity": 0.2204724409448819,
                    "duration": 0.646739216666667
                },
                {
                    "name": "A3",
                    "midi": 57,
                    "time": 36.52174399999999,
                    "velocity": 0.2677165354330709,
                    "duration": 0.646739216666667
                },
                {
                    "name": "C#3",
                    "midi": 49,
                    "time": 37.17391799999999,
                    "velocity": 0.28346456692913385,
                    "duration": 0.6521740000000023
                },
                {
                    "name": "A3",
                    "midi": 57,
                    "time": 37.17391799999999,
                    "velocity": 0.33858267716535434,
                    "duration": 0.6521740000000023
                },
                {
                    "name": "C#3",
                    "midi": 49,
                    "time": 37.826091999999996,
                    "velocity": 0.25196850393700787,
                    "duration": 0.6521740000000023
                },
                {
                    "name": "G#3",
                    "midi": 56,
                    "time": 37.826091999999996,
                    "velocity": 0.2992125984251969,
                    "duration": 0.6521740000000023
                },
                {
                    "name": "C#3",
                    "midi": 49,
                    "time": 38.478266,
                    "velocity": 0.25196850393700787,
                    "duration": 0.6521740000000023
                },
                {
                    "name": "F#3",
                    "midi": 54,
                    "time": 38.478266,
                    "velocity": 0.2992125984251969,
                    "duration": 0.6521740000000023
                },
                {
                    "name": "C#3",
                    "midi": 49,
                    "time": 39.13044,
                    "velocity": 0.28346456692913385,
                    "duration": 1.3043479999999974
                },
                {
                    "name": "F#3",
                    "midi": 54,
                    "time": 39.13044,
                    "velocity": 0.33858267716535434,
                    "duration": 1.3043479999999974
                },
                {
                    "name": "C#3",
                    "midi": 49,
                    "time": 40.434788,
                    "velocity": 0.2204724409448819,
                    "duration": 0.6521740000000023
                },
                {
                    "name": "F3",
                    "midi": 53,
                    "time": 40.434788,
                    "velocity": 0.2677165354330709,
                    "duration": 0.6521740000000023
                },
                {
                    "name": "C#3",
                    "midi": 49,
                    "time": 41.086962,
                    "velocity": 0.28346456692913385,
                    "duration": 1.3043480000000045
                },
                {
                    "name": "F3",
                    "midi": 53,
                    "time": 41.086962,
                    "velocity": 0.3858267716535433,
                    "duration": 0.6521740000000023
                },
                {
                    "name": "G#3",
                    "midi": 56,
                    "time": 41.739136,
                    "velocity": 0.3543307086614173,
                    "duration": 0.6521740000000023
                },
                {
                    "name": "G#3",
                    "midi": 56,
                    "time": 42.391310000000004,
                    "velocity": 0.25196850393700787,
                    "duration": 0.6521739999999951
                },
                {
                    "name": "C#3",
                    "midi": 49,
                    "time": 42.391310000000004,
                    "velocity": 0.25196850393700787,
                    "duration": 0.6521739999999951
                },
                {
                    "name": "B3",
                    "midi": 59,
                    "time": 42.391310000000004,
                    "velocity": 0.2992125984251969,
                    "duration": 0.3260870000000011
                },
                {
                    "name": "D4",
                    "midi": 62,
                    "time": 42.717397000000005,
                    "velocity": 0.2992125984251969,
                    "duration": 0.32336960833332995
                },
                {
                    "name": "B3",
                    "midi": 59,
                    "time": 43.043484,
                    "velocity": 0.28346456692913385,
                    "duration": 1.3043479999999974
                },
                {
                    "name": "C#3",
                    "midi": 49,
                    "time": 43.043484,
                    "velocity": 0.28346456692913385,
                    "duration": 1.3043479999999974
                },
                {
                    "name": "D4",
                    "midi": 62,
                    "time": 43.043484,
                    "velocity": 0.33858267716535434,
                    "duration": 1.3043479999999974
                },
                {
                    "name": "A3",
                    "midi": 57,
                    "time": 44.347832,
                    "velocity": 0.2440944881889764,
                    "duration": 0.646739216666667
                },
                {
                    "name": "C#3",
                    "midi": 49,
                    "time": 44.347832,
                    "velocity": 0.2440944881889764,
                    "duration": 0.646739216666667
                },
                {
                    "name": "C#4",
                    "midi": 61,
                    "time": 44.347832,
                    "velocity": 0.29133858267716534,
                    "duration": 0.646739216666667
                },
                {
                    "name": "C#3",
                    "midi": 49,
                    "time": 45.000006,
                    "velocity": 0.2677165354330709,
                    "duration": 0.6521740000000023
                },
                {
                    "name": "C#4",
                    "midi": 61,
                    "time": 45.000006,
                    "velocity": 0.3228346456692913,
                    "duration": 0.6521740000000023
                },
                {
                    "name": "A3",
                    "midi": 57,
                    "time": 45.000006,
                    "velocity": 0.2677165354330709,
                    "duration": 0.6521740000000023
                },
                {
                    "name": "C#3",
                    "midi": 49,
                    "time": 45.65218,
                    "velocity": 0.23622047244094488,
                    "duration": 0.6521740000000023
                },
                {
                    "name": "B3",
                    "midi": 59,
                    "time": 45.65218,
                    "velocity": 0.28346456692913385,
                    "duration": 0.6521740000000023
                },
                {
                    "name": "G#3",
                    "midi": 56,
                    "time": 45.65218,
                    "velocity": 0.23622047244094488,
                    "duration": 0.6521740000000023
                },
                {
                    "name": "C#3",
                    "midi": 49,
                    "time": 46.304354000000004,
                    "velocity": 0.2283464566929134,
                    "duration": 0.646739216666667
                },
                {
                    "name": "A3",
                    "midi": 57,
                    "time": 46.304354000000004,
                    "velocity": 0.2755905511811024,
                    "duration": 0.646739216666667
                },
                {
                    "name": "F#3",
                    "midi": 54,
                    "time": 46.304354000000004,
                    "velocity": 0.2283464566929134,
                    "duration": 0.646739216666667
                },
                {
                    "name": "F#3",
                    "midi": 54,
                    "time": 46.956528000000006,
                    "velocity": 0.25196850393700787,
                    "duration": 1.3043479999999974
                },
                {
                    "name": "C#3",
                    "midi": 49,
                    "time": 46.956528000000006,
                    "velocity": 0.25196850393700787,
                    "duration": 1.3043479999999974
                },
                {
                    "name": "A3",
                    "midi": 57,
                    "time": 46.956528000000006,
                    "velocity": 0.30708661417322836,
                    "duration": 1.3043479999999974
                },
                {
                    "name": "F3",
                    "midi": 53,
                    "time": 48.260876,
                    "velocity": 0.1968503937007874,
                    "duration": 0.646739216666667
                },
                {
                    "name": "C#3",
                    "midi": 49,
                    "time": 48.260876,
                    "velocity": 0.1968503937007874,
                    "duration": 0.646739216666667
                },
                {
                    "name": "G#3",
                    "midi": 56,
                    "time": 48.260876,
                    "velocity": 0.2283464566929134,
                    "duration": 0.646739216666667
                },
                {
                    "name": "F3",
                    "midi": 53,
                    "time": 48.913050000000005,
                    "velocity": 0.2047244094488189,
                    "duration": 1.3043479999999974
                },
                {
                    "name": "C#3",
                    "midi": 49,
                    "time": 48.913050000000005,
                    "velocity": 0.2047244094488189,
                    "duration": 1.3043479999999974
                },
                {
                    "name": "G#3",
                    "midi": 56,
                    "time": 48.913050000000005,
                    "velocity": 0.2440944881889764,
                    "duration": 1.3043479999999974
                },
                {
                    "name": "G3",
                    "midi": 55,
                    "time": 50.217398,
                    "velocity": 0.16535433070866143,
                    "duration": 0.4891305000000017
                },
                {
                    "name": "E3",
                    "midi": 52,
                    "time": 50.217398,
                    "velocity": 0.16535433070866143,
                    "duration": 0.4891305000000017
                },
                {
                    "name": "C#3",
                    "midi": 49,
                    "time": 50.217398,
                    "velocity": 0.16535433070866143,
                    "duration": 0.4891305000000017
                },
                {
                    "name": "A#3",
                    "midi": 58,
                    "time": 50.217398,
                    "velocity": 0.2047244094488189,
                    "duration": 0.4891305000000017
                },
                {
                    "name": "D3",
                    "midi": 50,
                    "time": 50.869572000000005,
                    "velocity": 0.25196850393700787,
                    "duration": 1.9565219999999997
                },
                {
                    "name": "G3",
                    "midi": 55,
                    "time": 50.869572000000005,
                    "velocity": 0.25196850393700787,
                    "duration": 1.9565219999999997
                },
                {
                    "name": "B3",
                    "midi": 59,
                    "time": 50.896745916666674,
                    "velocity": 0.33858267716535434,
                    "duration": 1.9565219999999997
                },
                {
                    "name": "B3",
                    "midi": 59,
                    "time": 52.826094000000005,
                    "velocity": 0.23622047244094488,
                    "duration": 1.3043480000000045
                },
                {
                    "name": "G3",
                    "midi": 55,
                    "time": 52.826094000000005,
                    "velocity": 0.23622047244094488,
                    "duration": 1.9565220000000068
                },
                {
                    "name": "D4",
                    "midi": 62,
                    "time": 52.826094000000005,
                    "velocity": 0.28346456692913385,
                    "duration": 1.3043480000000045
                },
                {
                    "name": "D4",
                    "midi": 62,
                    "time": 54.13044200000001,
                    "velocity": 0.23622047244094488,
                    "duration": 0.6521740000000023
                },
                {
                    "name": "E4",
                    "midi": 64,
                    "time": 54.78261600000001,
                    "velocity": 0.30708661417322836,
                    "duration": 1.9565219999999997
                },
                {
                    "name": "C4",
                    "midi": 60,
                    "time": 54.78261600000001,
                    "velocity": 0.25984251968503935,
                    "duration": 1.9565219999999997
                },
                {
                    "name": "B3",
                    "midi": 59,
                    "time": 56.73913800000001,
                    "velocity": 0.2283464566929134,
                    "duration": 1.3043479999999974
                },
                {
                    "name": "D4",
                    "midi": 62,
                    "time": 56.73913800000001,
                    "velocity": 0.2755905511811024,
                    "duration": 1.3043479999999974
                },
                {
                    "name": "D4",
                    "midi": 62,
                    "time": 58.04348600000001,
                    "velocity": 0.25196850393700787,
                    "duration": 0.646739216666667
                },
                {
                    "name": "D4",
                    "midi": 62,
                    "time": 58.69566000000001,
                    "velocity": 0.2755905511811024,
                    "duration": 0.6521740000000023
                },
                {
                    "name": "C#4",
                    "midi": 61,
                    "time": 59.34783400000001,
                    "velocity": 0.2440944881889764,
                    "duration": 0.6521740000000023
                },
                {
                    "name": "C#3",
                    "midi": 49,
                    "time": 60.000008000000015,
                    "velocity": 0.2047244094488189,
                    "duration": 0.6521740000000023
                },
                {
                    "name": "F#3",
                    "midi": 54,
                    "time": 60.000008000000015,
                    "velocity": 0.2047244094488189,
                    "duration": 0.6521740000000023
                },
                {
                    "name": "A3",
                    "midi": 57,
                    "time": 60.000008000000015,
                    "velocity": 0.2047244094488189,
                    "duration": 0.6521740000000023
                },
                {
                    "name": "C#4",
                    "midi": 61,
                    "time": 60.000008000000015,
                    "velocity": 0.2440944881889764,
                    "duration": 0.6521740000000023
                },
                {
                    "name": "C#3",
                    "midi": 49,
                    "time": 60.65218200000002,
                    "velocity": 0.2283464566929134,
                    "duration": 1.29076104166667
                },
                {
                    "name": "F3",
                    "midi": 53,
                    "time": 60.65218200000002,
                    "velocity": 0.2283464566929134,
                    "duration": 1.29076104166667
                },
                {
                    "name": "G#3",
                    "midi": 56,
                    "time": 60.65218200000002,
                    "velocity": 0.2283464566929134,
                    "duration": 1.29076104166667
                },
                {
                    "name": "C#4",
                    "midi": 61,
                    "time": 60.65218200000002,
                    "velocity": 0.2755905511811024,
                    "duration": 1.29076104166667
                },
                {
                    "name": "C#3",
                    "midi": 49,
                    "time": 61.95653000000002,
                    "velocity": 0.2125984251968504,
                    "duration": 0.646739216666667
                },
                {
                    "name": "F3",
                    "midi": 53,
                    "time": 61.95653000000002,
                    "velocity": 0.2125984251968504,
                    "duration": 0.646739216666667
                },
                {
                    "name": "G#3",
                    "midi": 56,
                    "time": 61.95653000000002,
                    "velocity": 0.2125984251968504,
                    "duration": 0.646739216666667
                },
                {
                    "name": "C#4",
                    "midi": 61,
                    "time": 61.95653000000002,
                    "velocity": 0.25196850393700787,
                    "duration": 0.646739216666667
                },
                {
                    "name": "C#3",
                    "midi": 49,
                    "time": 62.608704000000024,
                    "velocity": 0.2283464566929134,
                    "duration": 1.3043479999999974
                },
                {
                    "name": "F3",
                    "midi": 53,
                    "time": 62.608704000000024,
                    "velocity": 0.2283464566929134,
                    "duration": 1.3043479999999974
                },
                {
                    "name": "G#3",
                    "midi": 56,
                    "time": 62.608704000000024,
                    "velocity": 0.2283464566929134,
                    "duration": 1.3043479999999974
                },
                {
                    "name": "C#4",
                    "midi": 61,
                    "time": 62.608704000000024,
                    "velocity": 0.2755905511811024,
                    "duration": 1.3043479999999974
                },
                {
                    "name": "F#3",
                    "midi": 54,
                    "time": 63.91305200000002,
                    "velocity": 0.2125984251968504,
                    "duration": 0.6467392166666599
                },
                {
                    "name": "A3",
                    "midi": 57,
                    "time": 63.91305200000002,
                    "velocity": 0.2125984251968504,
                    "duration": 0.6467392166666599
                },
                {
                    "name": "C#4",
                    "midi": 61,
                    "time": 63.91305200000002,
                    "velocity": 0.25196850393700787,
                    "duration": 0.6467392166666599
                },
                {
                    "name": "F#3",
                    "midi": 54,
                    "time": 64.56522600000001,
                    "velocity": 0.2125984251968504,
                    "duration": 0.6467392166666599
                },
                {
                    "name": "A3",
                    "midi": 57,
                    "time": 64.56522600000001,
                    "velocity": 0.2125984251968504,
                    "duration": 0.6467392166666599
                },
                {
                    "name": "C#4",
                    "midi": 61,
                    "time": 64.56522600000001,
                    "velocity": 0.2755905511811024,
                    "duration": 0.6467392166666599
                },
                {
                    "name": "A3",
                    "midi": 57,
                    "time": 65.2174,
                    "velocity": 0.2677165354330709,
                    "duration": 0.6521740000000023
                },
                {
                    "name": "G#3",
                    "midi": 56,
                    "time": 65.869574,
                    "velocity": 0.25984251968503935,
                    "duration": 0.3260870000000011
                },
                {
                    "name": "B3",
                    "midi": 59,
                    "time": 65.869574,
                    "velocity": 0.25984251968503935,
                    "duration": 0.3260870000000011
                },
                {
                    "name": "F#3",
                    "midi": 54,
                    "time": 66.195661,
                    "velocity": 0.2992125984251969,
                    "duration": 0.3260870000000011
                },
                {
                    "name": "A3",
                    "midi": 57,
                    "time": 66.195661,
                    "velocity": 0.2992125984251969,
                    "duration": 0.3260870000000011
                },
                {
                    "name": "C#2",
                    "midi": 37,
                    "time": 66.521748,
                    "velocity": 0.33858267716535434,
                    "duration": 3.9130440000000135
                },
                {
                    "name": "F2",
                    "midi": 41,
                    "time": 67.173922,
                    "velocity": 0.2992125984251969,
                    "duration": 0.6521740000000023
                },
                {
                    "name": "F#2",
                    "midi": 42,
                    "time": 67.826096,
                    "velocity": 0.30708661417322836,
                    "duration": 0.6521740000000023
                },
                {
                    "name": "G#2",
                    "midi": 44,
                    "time": 68.47827000000001,
                    "velocity": 0.33070866141732286,
                    "duration": 0.9782610000000034
                },
                {
                    "name": "A2",
                    "midi": 45,
                    "time": 69.45653100000001,
                    "velocity": 0.3543307086614173,
                    "duration": 0.3260870000000011
                },
                {
                    "name": "B2",
                    "midi": 47,
                    "time": 69.78261800000001,
                    "velocity": 0.3779527559055118,
                    "duration": 0.3260870000000011
                },
                {
                    "name": "C3",
                    "midi": 48,
                    "time": 70.10870500000001,
                    "velocity": 0.3937007874015748,
                    "duration": 0.3260870000000011
                },
                {
                    "name": "C#2",
                    "midi": 37,
                    "time": 70.43479200000002,
                    "velocity": 0.28346456692913385,
                    "duration": 2.2826089999999937
                },
                {
                    "name": "C#3",
                    "midi": 49,
                    "time": 70.43479200000002,
                    "velocity": 0.33858267716535434,
                    "duration": 2.2826089999999937
                },
                {
                    "name": "C#3",
                    "midi": 49,
                    "time": 72.71740100000001,
                    "velocity": 0.3543307086614173,
                    "duration": 0.3260870000000011
                },
                {
                    "name": "F3",
                    "midi": 53,
                    "time": 73.04348800000001,
                    "velocity": 0.3543307086614173,
                    "duration": 0.3260870000000011
                },
                {
                    "name": "G#3",
                    "midi": 56,
                    "time": 73.36957500000001,
                    "velocity": 0.3543307086614173,
                    "duration": 0.3260870000000011
                },
                {
                    "name": "B3",
                    "midi": 59,
                    "time": 73.69566200000001,
                    "velocity": 0.2992125984251969,
                    "duration": 0.3260870000000011
                },
                {
                    "name": "D4",
                    "midi": 62,
                    "time": 74.02174900000001,
                    "velocity": 0.2992125984251969,
                    "duration": 0.32336960833333706
                },
                {
                    "name": "C#2",
                    "midi": 37,
                    "time": 74.34783600000002,
                    "velocity": 0.28346456692913385,
                    "duration": 0.6521740000000023
                },
                {
                    "name": "C#3",
                    "midi": 49,
                    "time": 74.36685774166668,
                    "velocity": 0.33858267716535434,
                    "duration": 0.6521740000000023
                },
                {
                    "name": "F2",
                    "midi": 41,
                    "time": 75.00001000000002,
                    "velocity": 0.2440944881889764,
                    "duration": 0.6521740000000023
                },
                {
                    "name": "C#3",
                    "midi": 49,
                    "time": 75.00001000000002,
                    "velocity": 0.2440944881889764,
                    "duration": 0.6521740000000023
                },
                {
                    "name": "F3",
                    "midi": 53,
                    "time": 75.00001000000002,
                    "velocity": 0.29133858267716534,
                    "duration": 0.6521740000000023
                },
                {
                    "name": "C#3",
                    "midi": 49,
                    "time": 75.65218400000002,
                    "velocity": 0.2440944881889764,
                    "duration": 0.6521740000000023
                },
                {
                    "name": "F#2",
                    "midi": 42,
                    "time": 75.65218400000002,
                    "velocity": 0.2440944881889764,
                    "duration": 0.6521740000000023
                },
                {
                    "name": "F#3",
                    "midi": 54,
                    "time": 75.65218400000002,
                    "velocity": 0.29133858267716534,
                    "duration": 0.6521740000000023
                },
                {
                    "name": "G#2",
                    "midi": 44,
                    "time": 76.30435800000002,
                    "velocity": 0.2677165354330709,
                    "duration": 0.9782610000000034
                },
                {
                    "name": "G#3",
                    "midi": 56,
                    "time": 76.30435800000002,
                    "velocity": 0.3228346456692913,
                    "duration": 0.9782610000000034
                },
                {
                    "name": "C#3",
                    "midi": 49,
                    "time": 76.30435800000002,
                    "velocity": 0.2677165354330709,
                    "duration": 0.9782610000000034
                },
                {
                    "name": "A3",
                    "midi": 57,
                    "time": 77.28261900000003,
                    "velocity": 0.3543307086614173,
                    "duration": 0.3260870000000011
                },
                {
                    "name": "A2",
                    "midi": 45,
                    "time": 77.28261900000003,
                    "velocity": 0.2992125984251969,
                    "duration": 0.3260870000000011
                },
                {
                    "name": "B3",
                    "midi": 59,
                    "time": 77.60870600000003,
                    "velocity": 0.3779527559055118,
                    "duration": 0.3260870000000011
                },
                {
                    "name": "B2",
                    "midi": 47,
                    "time": 77.60870600000003,
                    "velocity": 0.31496062992125984,
                    "duration": 0.3260870000000011
                },
                {
                    "name": "C4",
                    "midi": 60,
                    "time": 77.93479300000003,
                    "velocity": 0.3937007874015748,
                    "duration": 0.3260870000000011
                },
                {
                    "name": "C3",
                    "midi": 48,
                    "time": 77.93479300000003,
                    "velocity": 0.33070866141732286,
                    "duration": 0.3260870000000011
                },
                {
                    "name": "C#3",
                    "midi": 49,
                    "time": 78.26088000000003,
                    "velocity": 0.25196850393700787,
                    "duration": 1.3043480000000045
                },
                {
                    "name": "F#3",
                    "midi": 54,
                    "time": 78.91305400000003,
                    "velocity": 0.2204724409448819,
                    "duration": 0.6521740000000023
                },
                {
                    "name": "A3",
                    "midi": 57,
                    "time": 78.91305400000003,
                    "velocity": 0.2755905511811024,
                    "duration": 0.6521740000000023
                },
                {
                    "name": "F3",
                    "midi": 53,
                    "time": 79.56522800000003,
                    "velocity": 0.1968503937007874,
                    "duration": 0.6521740000000023
                },
                {
                    "name": "C#3",
                    "midi": 49,
                    "time": 79.56522800000003,
                    "velocity": 0.1968503937007874,
                    "duration": 0.6521740000000023
                },
                {
                    "name": "G#3",
                    "midi": 56,
                    "time": 79.56522800000003,
                    "velocity": 0.2283464566929134,
                    "duration": 0.6521740000000023
                },
                {
                    "name": "F3",
                    "midi": 53,
                    "time": 80.21740200000004,
                    "velocity": 0.2047244094488189,
                    "duration": 0.6521740000000023
                },
                {
                    "name": "C#3",
                    "midi": 49,
                    "time": 80.21740200000004,
                    "velocity": 0.2047244094488189,
                    "duration": 0.6521740000000023
                },
                {
                    "name": "G#3",
                    "midi": 56,
                    "time": 80.21740200000004,
                    "velocity": 0.2440944881889764,
                    "duration": 0.6521740000000023
                },
                {
                    "name": "A#3",
                    "midi": 58,
                    "time": 80.86957600000004,
                    "velocity": 0.2047244094488189,
                    "duration": 0.6521740000000023
                },
                {
                    "name": "E3",
                    "midi": 52,
                    "time": 80.86957600000004,
                    "velocity": 0.16535433070866143,
                    "duration": 0.6521740000000023
                },
                {
                    "name": "C#3",
                    "midi": 49,
                    "time": 80.86957600000004,
                    "velocity": 0.16535433070866143,
                    "duration": 0.6521740000000023
                },
                {
                    "name": "G3",
                    "midi": 55,
                    "time": 80.86957600000004,
                    "velocity": 0.16535433070866143,
                    "duration": 0.6521740000000023
                },
                {
                    "name": "D3",
                    "midi": 50,
                    "time": 81.52175000000004,
                    "velocity": 0.16535433070866143,
                    "duration": 0.6521740000000023
                },
                {
                    "name": "G3",
                    "midi": 55,
                    "time": 81.52175000000004,
                    "velocity": 0.16535433070866143,
                    "duration": 0.6521740000000023
                },
                {
                    "name": "B3",
                    "midi": 59,
                    "time": 81.52175000000004,
                    "velocity": 0.2047244094488189,
                    "duration": 0.6521740000000023
                },
                {
                    "name": "B3",
                    "midi": 59,
                    "time": 82.17392400000004,
                    "velocity": 0.33858267716535434,
                    "duration": 1.9565219999999925
                },
                {
                    "name": "G2",
                    "midi": 43,
                    "time": 82.17392400000004,
                    "velocity": 0.25196850393700787,
                    "duration": 1.9565219999999925
                },
                {
                    "name": "D3",
                    "midi": 50,
                    "time": 82.17392400000004,
                    "velocity": 0.25196850393700787,
                    "duration": 1.9565219999999925
                },
                {
                    "name": "G3",
                    "midi": 55,
                    "time": 84.13044600000003,
                    "velocity": 0.23622047244094488,
                    "duration": 1.9565220000000068
                },
                {
                    "name": "B2",
                    "midi": 47,
                    "time": 84.13044600000003,
                    "velocity": 0.23622047244094488,
                    "duration": 1.9565220000000068
                },
                {
                    "name": "D4",
                    "midi": 62,
                    "time": 84.13044600000003,
                    "velocity": 0.28346456692913385,
                    "duration": 1.9565220000000068
                },
                {
                    "name": "C3",
                    "midi": 48,
                    "time": 86.08696800000004,
                    "velocity": 0.23622047244094488,
                    "duration": 1.9565220000000068
                },
                {
                    "name": "E4",
                    "midi": 64,
                    "time": 86.08696800000004,
                    "velocity": 0.33070866141732286,
                    "duration": 1.9565220000000068
                },
                {
                    "name": "G3",
                    "midi": 55,
                    "time": 86.08696800000004,
                    "velocity": 0.23622047244094488,
                    "duration": 1.9565220000000068
                },
                {
                    "name": "B2",
                    "midi": 47,
                    "time": 88.04349000000005,
                    "velocity": 0.30708661417322836,
                    "duration": 1.3043480000000045
                },
                {
                    "name": "G3",
                    "midi": 55,
                    "time": 88.04349000000005,
                    "velocity": 0.30708661417322836,
                    "duration": 0.6521740000000023
                },
                {
                    "name": "D4",
                    "midi": 62,
                    "time": 88.04349000000005,
                    "velocity": 0.3700787401574803,
                    "duration": 0.6521740000000023
                },
                {
                    "name": "G3",
                    "midi": 55,
                    "time": 88.69566400000005,
                    "velocity": 0.2755905511811024,
                    "duration": 0.6521740000000023
                },
                {
                    "name": "D3",
                    "midi": 50,
                    "time": 89.34783800000005,
                    "velocity": 0.28346456692913385,
                    "duration": 0.6521740000000023
                },
                {
                    "name": "F#3",
                    "midi": 54,
                    "time": 89.34783800000005,
                    "velocity": 0.33858267716535434,
                    "duration": 0.6521740000000023
                },
                {
                    "name": "D3",
                    "midi": 50,
                    "time": 90.00001200000005,
                    "velocity": 0.2755905511811024,
                    "duration": 0.6521740000000023
                },
                {
                    "name": "F#3",
                    "midi": 54,
                    "time": 90.00001200000005,
                    "velocity": 0.2755905511811024,
                    "duration": 0.6521740000000023
                },
                {
                    "name": "C#3",
                    "midi": 49,
                    "time": 90.65218600000006,
                    "velocity": 0.2440944881889764,
                    "duration": 0.6521740000000023
                },
                {
                    "name": "F#3",
                    "midi": 54,
                    "time": 90.65218600000006,
                    "velocity": 0.2440944881889764,
                    "duration": 0.6521740000000023
                },
                {
                    "name": "A3",
                    "midi": 57,
                    "time": 90.65218600000006,
                    "velocity": 0.2440944881889764,
                    "duration": 0.6521740000000023
                },
                {
                    "name": "C#3",
                    "midi": 49,
                    "time": 91.30436000000006,
                    "velocity": 0.2047244094488189,
                    "duration": 0.6467392166666599
                },
                {
                    "name": "F#3",
                    "midi": 54,
                    "time": 91.30436000000006,
                    "velocity": 0.2047244094488189,
                    "duration": 0.6467392166666599
                },
                {
                    "name": "A3",
                    "midi": 57,
                    "time": 91.30436000000006,
                    "velocity": 0.2047244094488189,
                    "duration": 0.6467392166666599
                },
                {
                    "name": "C#4",
                    "midi": 61,
                    "time": 91.30436000000006,
                    "velocity": 0.2440944881889764,
                    "duration": 0.6467392166666599
                },
                {
                    "name": "C#3",
                    "midi": 49,
                    "time": 91.95653400000005,
                    "velocity": 0.2440944881889764,
                    "duration": 1.3043480000000045
                },
                {
                    "name": "F3",
                    "midi": 53,
                    "time": 91.95653400000005,
                    "velocity": 0.2440944881889764,
                    "duration": 1.3043480000000045
                },
                {
                    "name": "G#3",
                    "midi": 56,
                    "time": 91.95653400000005,
                    "velocity": 0.2440944881889764,
                    "duration": 1.3043480000000045
                },
                {
                    "name": "C#4",
                    "midi": 61,
                    "time": 91.95653400000005,
                    "velocity": 0.2992125984251969,
                    "duration": 1.3043480000000045
                },
                {
                    "name": "F#3",
                    "midi": 54,
                    "time": 93.26088200000005,
                    "velocity": 0.2125984251968504,
                    "duration": 0.6467392166666599
                },
                {
                    "name": "A3",
                    "midi": 57,
                    "time": 93.26088200000005,
                    "velocity": 0.2125984251968504,
                    "duration": 0.6467392166666599
                },
                {
                    "name": "C#4",
                    "midi": 61,
                    "time": 93.26088200000005,
                    "velocity": 0.25196850393700787,
                    "duration": 0.6467392166666599
                },
                {
                    "name": "A3",
                    "midi": 57,
                    "time": 93.91305600000004,
                    "velocity": 0.25984251968503935,
                    "duration": 0.6521740000000023
                },
                {
                    "name": "F#3",
                    "midi": 54,
                    "time": 93.91305600000004,
                    "velocity": 0.25984251968503935,
                    "duration": 0.6521740000000023
                },
                {
                    "name": "C#4",
                    "midi": 61,
                    "time": 93.91305600000004,
                    "velocity": 0.30708661417322836,
                    "duration": 0.6521740000000023
                },
                {
                    "name": "B2",
                    "midi": 47,
                    "time": 94.56523000000004,
                    "velocity": 0.2047244094488189,
                    "duration": 1.3043480000000045
                },
                {
                    "name": "D4",
                    "midi": 62,
                    "time": 94.56523000000004,
                    "velocity": 0.2677165354330709,
                    "duration": 0.6521740000000023
                },
                {
                    "name": "G3",
                    "midi": 55,
                    "time": 95.21740400000004,
                    "velocity": 0.2440944881889764,
                    "duration": 0.6521740000000023
                },
                {
                    "name": "B3",
                    "midi": 59,
                    "time": 95.86957800000005,
                    "velocity": 0.30708661417322836,
                    "duration": 0.6521740000000023
                },
                {
                    "name": "C#2",
                    "midi": 37,
                    "time": 96.52175200000005,
                    "velocity": 0.2047244094488189,
                    "duration": 0.6521740000000023
                },
                {
                    "name": "C#3",
                    "midi": 49,
                    "time": 96.52175200000005,
                    "velocity": 0.2440944881889764,
                    "duration": 1.3043480000000045
                },
                {
                    "name": "F3",
                    "midi": 53,
                    "time": 97.17392600000005,
                    "velocity": 0.2440944881889764,
                    "duration": 0.6521740000000023
                },
                {
                    "name": "C#3",
                    "midi": 49,
                    "time": 97.82610000000005,
                    "velocity": 0.25984251968503935,
                    "duration": 0.6521740000000023
                },
                {
                    "name": "F#2",
                    "midi": 42,
                    "time": 97.82610000000005,
                    "velocity": 0.25984251968503935,
                    "duration": 0.6521740000000023
                },
                {
                    "name": "F#3",
                    "midi": 54,
                    "time": 97.82610000000005,
                    "velocity": 0.30708661417322836,
                    "duration": 0.6521740000000023
                },
                {
                    "name": "C#3",
                    "midi": 49,
                    "time": 98.47827400000006,
                    "velocity": 0.2440944881889764,
                    "duration": 1.3043480000000045
                },
                {
                    "name": "F2",
                    "midi": 41,
                    "time": 98.47827400000006,
                    "velocity": 0.2440944881889764,
                    "duration": 1.3043480000000045
                },
                {
                    "name": "G#3",
                    "midi": 56,
                    "time": 98.47827400000006,
                    "velocity": 0.29133858267716534,
                    "duration": 1.3043480000000045
                },
                {
                    "name": "C#3",
                    "midi": 49,
                    "time": 99.78262200000006,
                    "velocity": 0.2204724409448819,
                    "duration": 0.6521740000000023
                },
                {
                    "name": "F#2",
                    "midi": 42,
                    "time": 99.78262200000006,
                    "velocity": 0.2204724409448819,
                    "duration": 0.6521740000000023
                },
                {
                    "name": "F#3",
                    "midi": 54,
                    "time": 99.78262200000006,
                    "velocity": 0.25984251968503935,
                    "duration": 0.6521740000000023
                },
                {
                    "name": "C#3",
                    "midi": 49,
                    "time": 100.43479600000006,
                    "velocity": 0.15748031496062992,
                    "duration": 1.3043480000000045
                },
                {
                    "name": "A3",
                    "midi": 57,
                    "time": 100.43479600000006,
                    "velocity": 0.25196850393700787,
                    "duration": 0.9782610000000034
                },
                {
                    "name": "F3",
                    "midi": 53,
                    "time": 101.41305700000007,
                    "velocity": 0.1732283464566929,
                    "duration": 0.3260870000000011
                },
                {
                    "name": "F#2",
                    "midi": 42,
                    "time": 102.39131800000007,
                    "velocity": 0.2047244094488189,
                    "duration": 0.3260870000000011
                },
                {
                    "name": "C#4",
                    "midi": 61,
                    "time": 103.04349200000007,
                    "velocity": 0.2047244094488189,
                    "duration": 0.3260870000000011
                },
                {
                    "name": "A3",
                    "midi": 57,
                    "time": 103.04349200000007,
                    "velocity": 0.15748031496062992,
                    "duration": 0.3260870000000011
                },
                {
                    "name": "F#3",
                    "midi": 54,
                    "time": 103.04349200000007,
                    "velocity": 0.15748031496062992,
                    "duration": 0.3260870000000011
                },
                {
                    "name": "C#3",
                    "midi": 49,
                    "time": 103.04349200000007,
                    "velocity": 0.15748031496062992,
                    "duration": 0.3260870000000011
                },
                {
                    "name": "C#4",
                    "midi": 61,
                    "time": 103.69566600000007,
                    "velocity": 0.2440944881889764,
                    "duration": 0.3260870000000011
                },
                {
                    "name": "A3",
                    "midi": 57,
                    "time": 103.69566600000007,
                    "velocity": 0.1889763779527559,
                    "duration": 0.3260870000000011
                },
                {
                    "name": "F#3",
                    "midi": 54,
                    "time": 103.69566600000007,
                    "velocity": 0.1889763779527559,
                    "duration": 0.3260870000000011
                },
                {
                    "name": "C#3",
                    "midi": 49,
                    "time": 103.69566600000007,
                    "velocity": 0.1889763779527559,
                    "duration": 0.3260870000000011
                },
                {
                    "name": "F#2",
                    "midi": 42,
                    "time": 104.34784000000008,
                    "velocity": 0.2047244094488189,
                    "duration": 0.3260870000000011
                },
                {
                    "name": "C#4",
                    "midi": 61,
                    "time": 105.00001400000008,
                    "velocity": 0.2047244094488189,
                    "duration": 0.3260870000000011
                },
                {
                    "name": "A3",
                    "midi": 57,
                    "time": 105.00001400000008,
                    "velocity": 0.15748031496062992,
                    "duration": 0.3260870000000011
                },
                {
                    "name": "F#3",
                    "midi": 54,
                    "time": 105.00001400000008,
                    "velocity": 0.15748031496062992,
                    "duration": 0.3260870000000011
                },
                {
                    "name": "C#3",
                    "midi": 49,
                    "time": 105.00001400000008,
                    "velocity": 0.15748031496062992,
                    "duration": 0.3260870000000011
                },
                {
                    "name": "C#3",
                    "midi": 49,
                    "time": 105.65218800000008,
                    "velocity": 0.18110236220472442,
                    "duration": 0.3260870000000011
                },
                {
                    "name": "F#3",
                    "midi": 54,
                    "time": 105.65218800000008,
                    "velocity": 0.18110236220472442,
                    "duration": 0.3260870000000011
                },
                {
                    "name": "A3",
                    "midi": 57,
                    "time": 105.65218800000008,
                    "velocity": 0.18110236220472442,
                    "duration": 0.3260870000000011
                },
                {
                    "name": "C#4",
                    "midi": 61,
                    "time": 105.65218800000008,
                    "velocity": 0.2283464566929134,
                    "duration": 0.3260870000000011
                },
                {
                    "name": "F#2",
                    "midi": 42,
                    "time": 106.30436200000008,
                    "velocity": 0.2047244094488189,
                    "duration": 0.3260870000000011
                },
                {
                    "name": "C#4",
                    "midi": 61,
                    "time": 106.95653600000009,
                    "velocity": 0.2047244094488189,
                    "duration": 0.3260870000000011
                },
                {
                    "name": "A3",
                    "midi": 57,
                    "time": 106.95653600000009,
                    "velocity": 0.15748031496062992,
                    "duration": 0.3260870000000011
                },
                {
                    "name": "F#3",
                    "midi": 54,
                    "time": 106.95653600000009,
                    "velocity": 0.15748031496062992,
                    "duration": 0.3260870000000011
                },
                {
                    "name": "C#3",
                    "midi": 49,
                    "time": 106.95653600000009,
                    "velocity": 0.15748031496062992,
                    "duration": 0.3260870000000011
                },
                {
                    "name": "C#3",
                    "midi": 49,
                    "time": 107.60871000000009,
                    "velocity": 0.1889763779527559,
                    "duration": 0.3260870000000011
                },
                {
                    "name": "F#3",
                    "midi": 54,
                    "time": 107.60871000000009,
                    "velocity": 0.1889763779527559,
                    "duration": 0.3260870000000011
                },
                {
                    "name": "A3",
                    "midi": 57,
                    "time": 107.60871000000009,
                    "velocity": 0.1889763779527559,
                    "duration": 0.3260870000000011
                },
                {
                    "name": "C#4",
                    "midi": 61,
                    "time": 107.60871000000009,
                    "velocity": 0.23622047244094488,
                    "duration": 0.3260870000000011
                },
                {
                    "name": "F#2",
                    "midi": 42,
                    "time": 108.26088400000009,
                    "velocity": 0.2047244094488189,
                    "duration": 0.3260870000000011
                },
                {
                    "name": "C#4",
                    "midi": 61,
                    "time": 108.91305800000009,
                    "velocity": 0.2047244094488189,
                    "duration": 0.3260870000000011
                },
                {
                    "name": "A3",
                    "midi": 57,
                    "time": 108.91305800000009,
                    "velocity": 0.15748031496062992,
                    "duration": 0.3260870000000011
                },
                {
                    "name": "F#3",
                    "midi": 54,
                    "time": 108.91305800000009,
                    "velocity": 0.15748031496062992,
                    "duration": 0.3260870000000011
                },
                {
                    "name": "C#3",
                    "midi": 49,
                    "time": 108.91305800000009,
                    "velocity": 0.15748031496062992,
                    "duration": 0.3260870000000011
                },
                {
                    "name": "F3",
                    "midi": 53,
                    "time": 109.5652320000001,
                    "velocity": 0.18110236220472442,
                    "duration": 0.3260870000000011
                },
                {
                    "name": "C#3",
                    "midi": 49,
                    "time": 109.5652320000001,
                    "velocity": 0.18110236220472442,
                    "duration": 0.3260870000000011
                },
                {
                    "name": "G#3",
                    "midi": 56,
                    "time": 109.5652320000001,
                    "velocity": 0.18110236220472442,
                    "duration": 0.3260870000000011
                },
                {
                    "name": "B3",
                    "midi": 59,
                    "time": 109.5652320000001,
                    "velocity": 0.18110236220472442,
                    "duration": 0.3260870000000011
                },
                {
                    "name": "C#4",
                    "midi": 61,
                    "time": 109.5652320000001,
                    "velocity": 0.2283464566929134,
                    "duration": 0.3260870000000011
                },
                {
                    "name": "G#2",
                    "midi": 44,
                    "time": 110.2174060000001,
                    "velocity": 0.2047244094488189,
                    "duration": 0.3260870000000011
                },
                {
                    "name": "D4",
                    "midi": 62,
                    "time": 110.8695800000001,
                    "velocity": 0.2047244094488189,
                    "duration": 0.3260870000000011
                },
                {
                    "name": "B3",
                    "midi": 59,
                    "time": 110.8695800000001,
                    "velocity": 0.15748031496062992,
                    "duration": 0.3260870000000011
                },
                {
                    "name": "G#3",
                    "midi": 56,
                    "time": 110.8695800000001,
                    "velocity": 0.15748031496062992,
                    "duration": 0.3260870000000011
                },
                {
                    "name": "F3",
                    "midi": 53,
                    "time": 110.8695800000001,
                    "velocity": 0.15748031496062992,
                    "duration": 0.3260870000000011
                },
                {
                    "name": "F3",
                    "midi": 53,
                    "time": 111.5217540000001,
                    "velocity": 0.1889763779527559,
                    "duration": 0.3260870000000011
                },
                {
                    "name": "G#3",
                    "midi": 56,
                    "time": 111.5217540000001,
                    "velocity": 0.1889763779527559,
                    "duration": 0.3260870000000011
                },
                {
                    "name": "B3",
                    "midi": 59,
                    "time": 111.5217540000001,
                    "velocity": 0.1889763779527559,
                    "duration": 0.3260870000000011
                },
                {
                    "name": "D4",
                    "midi": 62,
                    "time": 111.5217540000001,
                    "velocity": 0.23622047244094488,
                    "duration": 0.3260870000000011
                },
                {
                    "name": "G#2",
                    "midi": 44,
                    "time": 112.1739280000001,
                    "velocity": 0.2047244094488189,
                    "duration": 0.3260870000000011
                },
                {
                    "name": "D4",
                    "midi": 62,
                    "time": 112.8261020000001,
                    "velocity": 0.2047244094488189,
                    "duration": 0.3260870000000011
                },
                {
                    "name": "B3",
                    "midi": 59,
                    "time": 112.8261020000001,
                    "velocity": 0.15748031496062992,
                    "duration": 0.3260870000000011
                },
                {
                    "name": "G#3",
                    "midi": 56,
                    "time": 112.8261020000001,
                    "velocity": 0.15748031496062992,
                    "duration": 0.3260870000000011
                },
                {
                    "name": "F3",
                    "midi": 53,
                    "time": 112.8261020000001,
                    "velocity": 0.15748031496062992,
                    "duration": 0.3260870000000011
                },
                {
                    "name": "F3",
                    "midi": 53,
                    "time": 113.47827600000011,
                    "velocity": 0.18110236220472442,
                    "duration": 0.3260870000000011
                },
                {
                    "name": "G#3",
                    "midi": 56,
                    "time": 113.47827600000011,
                    "velocity": 0.18110236220472442,
                    "duration": 0.3260870000000011
                },
                {
                    "name": "B3",
                    "midi": 59,
                    "time": 113.47827600000011,
                    "velocity": 0.18110236220472442,
                    "duration": 0.3260870000000011
                },
                {
                    "name": "D4",
                    "midi": 62,
                    "time": 113.47827600000011,
                    "velocity": 0.2283464566929134,
                    "duration": 0.3260870000000011
                },
                {
                    "name": "G#2",
                    "midi": 44,
                    "time": 114.13045000000011,
                    "velocity": 0.2047244094488189,
                    "duration": 0.3260870000000011
                },
                {
                    "name": "D4",
                    "midi": 62,
                    "time": 114.78262400000011,
                    "velocity": 0.2047244094488189,
                    "duration": 0.3260870000000011
                },
                {
                    "name": "B3",
                    "midi": 59,
                    "time": 114.78262400000011,
                    "velocity": 0.15748031496062992,
                    "duration": 0.3260870000000011
                },
                {
                    "name": "G#3",
                    "midi": 56,
                    "time": 114.78262400000011,
                    "velocity": 0.15748031496062992,
                    "duration": 0.3260870000000011
                },
                {
                    "name": "F3",
                    "midi": 53,
                    "time": 114.78262400000011,
                    "velocity": 0.15748031496062992,
                    "duration": 0.3260870000000011
                },
                {
                    "name": "F3",
                    "midi": 53,
                    "time": 115.43479800000011,
                    "velocity": 0.1889763779527559,
                    "duration": 0.3260870000000011
                },
                {
                    "name": "G#3",
                    "midi": 56,
                    "time": 115.43479800000011,
                    "velocity": 0.1889763779527559,
                    "duration": 0.3260870000000011
                },
                {
                    "name": "B3",
                    "midi": 59,
                    "time": 115.43479800000011,
                    "velocity": 0.1889763779527559,
                    "duration": 0.3260870000000011
                },
                {
                    "name": "D4",
                    "midi": 62,
                    "time": 115.43479800000011,
                    "velocity": 0.23622047244094488,
                    "duration": 0.3260870000000011
                },
                {
                    "name": "G#2",
                    "midi": 44,
                    "time": 116.08697200000012,
                    "velocity": 0.2047244094488189,
                    "duration": 0.3260870000000011
                },
                {
                    "name": "C#4",
                    "midi": 61,
                    "time": 116.73914600000012,
                    "velocity": 0.2047244094488189,
                    "duration": 0.3260870000000011
                },
                {
                    "name": "B3",
                    "midi": 59,
                    "time": 116.73914600000012,
                    "velocity": 0.15748031496062992,
                    "duration": 0.3260870000000011
                },
                {
                    "name": "G#3",
                    "midi": 56,
                    "time": 116.73914600000012,
                    "velocity": 0.15748031496062992,
                    "duration": 0.3260870000000011
                },
                {
                    "name": "F3",
                    "midi": 53,
                    "time": 116.73914600000012,
                    "velocity": 0.15748031496062992,
                    "duration": 0.3260870000000011
                },
                {
                    "name": "C#3",
                    "midi": 49,
                    "time": 117.39132000000012,
                    "velocity": 0.18110236220472442,
                    "duration": 0.3260870000000011
                },
                {
                    "name": "F#3",
                    "midi": 54,
                    "time": 117.39132000000012,
                    "velocity": 0.18110236220472442,
                    "duration": 0.3260870000000011
                },
                {
                    "name": "A3",
                    "midi": 57,
                    "time": 117.39132000000012,
                    "velocity": 0.18110236220472442,
                    "duration": 0.3260870000000011
                },
                {
                    "name": "C#4",
                    "midi": 61,
                    "time": 117.39132000000012,
                    "velocity": 0.2283464566929134,
                    "duration": 0.3260870000000011
                },
                {
                    "name": "F#2",
                    "midi": 42,
                    "time": 118.04349400000012,
                    "velocity": 0.2047244094488189,
                    "duration": 0.3260870000000011
                },
                {
                    "name": "C#4",
                    "midi": 61,
                    "time": 118.69566800000013,
                    "velocity": 0.2047244094488189,
                    "duration": 0.3260870000000011
                },
                {
                    "name": "A3",
                    "midi": 57,
                    "time": 118.69566800000013,
                    "velocity": 0.15748031496062992,
                    "duration": 0.3260870000000011
                },
                {
                    "name": "F#3",
                    "midi": 54,
                    "time": 118.69566800000013,
                    "velocity": 0.15748031496062992,
                    "duration": 0.3260870000000011
                },
                {
                    "name": "C#3",
                    "midi": 49,
                    "time": 118.69566800000013,
                    "velocity": 0.15748031496062992,
                    "duration": 0.3260870000000011
                },
                {
                    "name": "C#3",
                    "midi": 49,
                    "time": 119.34784200000013,
                    "velocity": 0.1889763779527559,
                    "duration": 0.3260870000000011
                },
                {
                    "name": "F#3",
                    "midi": 54,
                    "time": 119.34784200000013,
                    "velocity": 0.1889763779527559,
                    "duration": 0.3260870000000011
                },
                {
                    "name": "A3",
                    "midi": 57,
                    "time": 119.34784200000013,
                    "velocity": 0.1889763779527559,
                    "duration": 0.3260870000000011
                },
                {
                    "name": "C#4",
                    "midi": 61,
                    "time": 119.34784200000013,
                    "velocity": 0.23622047244094488,
                    "duration": 0.3260870000000011
                },
                {
                    "name": "F#2",
                    "midi": 42,
                    "time": 120.00001600000013,
                    "velocity": 0.2047244094488189,
                    "duration": 0.3260870000000011
                },
                {
                    "name": "C#4",
                    "midi": 61,
                    "time": 120.65219000000013,
                    "velocity": 0.2047244094488189,
                    "duration": 0.3260870000000011
                },
                {
                    "name": "A3",
                    "midi": 57,
                    "time": 120.65219000000013,
                    "velocity": 0.15748031496062992,
                    "duration": 0.3260870000000011
                },
                {
                    "name": "F#3",
                    "midi": 54,
                    "time": 120.65219000000013,
                    "velocity": 0.15748031496062992,
                    "duration": 0.3260870000000011
                },
                {
                    "name": "C#3",
                    "midi": 49,
                    "time": 120.65219000000013,
                    "velocity": 0.15748031496062992,
                    "duration": 0.3260870000000011
                },
                {
                    "name": "F3",
                    "midi": 53,
                    "time": 121.30436400000013,
                    "velocity": 0.1968503937007874,
                    "duration": 0.3260870000000011
                },
                {
                    "name": "C#3",
                    "midi": 49,
                    "time": 121.30436400000013,
                    "velocity": 0.1968503937007874,
                    "duration": 0.3260870000000011
                },
                {
                    "name": "G#3",
                    "midi": 56,
                    "time": 121.30436400000013,
                    "velocity": 0.1968503937007874,
                    "duration": 0.3260870000000011
                },
                {
                    "name": "B3",
                    "midi": 59,
                    "time": 121.30436400000013,
                    "velocity": 0.1968503937007874,
                    "duration": 0.3260870000000011
                },
                {
                    "name": "C#4",
                    "midi": 61,
                    "time": 121.30436400000013,
                    "velocity": 0.25196850393700787,
                    "duration": 0.3260870000000011
                },
                {
                    "name": "G#2",
                    "midi": 44,
                    "time": 121.95653800000014,
                    "velocity": 0.23622047244094488,
                    "duration": 0.3260870000000011
                },
                {
                    "name": "D4",
                    "midi": 62,
                    "time": 122.60871200000014,
                    "velocity": 0.25196850393700787,
                    "duration": 0.3260870000000011
                },
                {
                    "name": "B3",
                    "midi": 59,
                    "time": 122.60871200000014,
                    "velocity": 0.1889763779527559,
                    "duration": 0.3260870000000011
                },
                {
                    "name": "G#3",
                    "midi": 56,
                    "time": 122.60871200000014,
                    "velocity": 0.1889763779527559,
                    "duration": 0.3260870000000011
                },
                {
                    "name": "F3",
                    "midi": 53,
                    "time": 122.60871200000014,
                    "velocity": 0.1889763779527559,
                    "duration": 0.3260870000000011
                },
                {
                    "name": "F3",
                    "midi": 53,
                    "time": 123.26088600000014,
                    "velocity": 0.2204724409448819,
                    "duration": 0.3260870000000011
                },
                {
                    "name": "G#3",
                    "midi": 56,
                    "time": 123.26088600000014,
                    "velocity": 0.2204724409448819,
                    "duration": 0.3260870000000011
                },
                {
                    "name": "B3",
                    "midi": 59,
                    "time": 123.26088600000014,
                    "velocity": 0.2204724409448819,
                    "duration": 0.3260870000000011
                },
                {
                    "name": "D4",
                    "midi": 62,
                    "time": 123.26088600000014,
                    "velocity": 0.2755905511811024,
                    "duration": 0.3260870000000011
                },
                {
                    "name": "G#2",
                    "midi": 44,
                    "time": 123.91306000000014,
                    "velocity": 0.2283464566929134,
                    "duration": 0.3260870000000011
                },
                {
                    "name": "D4",
                    "midi": 62,
                    "time": 124.56523400000015,
                    "velocity": 0.2204724409448819,
                    "duration": 0.3260870000000011
                },
                {
                    "name": "B3",
                    "midi": 59,
                    "time": 124.56523400000015,
                    "velocity": 0.16535433070866143,
                    "duration": 0.3260870000000011
                },
                {
                    "name": "G#3",
                    "midi": 56,
                    "time": 124.56523400000015,
                    "velocity": 0.16535433070866143,
                    "duration": 0.3260870000000011
                },
                {
                    "name": "F3",
                    "midi": 53,
                    "time": 124.56523400000015,
                    "velocity": 0.16535433070866143,
                    "duration": 0.3260870000000011
                },
                {
                    "name": "F3",
                    "midi": 53,
                    "time": 125.21740800000015,
                    "velocity": 0.18110236220472442,
                    "duration": 0.3260870000000011
                },
                {
                    "name": "G#3",
                    "midi": 56,
                    "time": 125.21740800000015,
                    "velocity": 0.18110236220472442,
                    "duration": 0.3260870000000011
                },
                {
                    "name": "B3",
                    "midi": 59,
                    "time": 125.21740800000015,
                    "velocity": 0.18110236220472442,
                    "duration": 0.3260870000000011
                },
                {
                    "name": "D4",
                    "midi": 62,
                    "time": 125.21740800000015,
                    "velocity": 0.2283464566929134,
                    "duration": 0.3260870000000011
                },
                {
                    "name": "G#2",
                    "midi": 44,
                    "time": 125.86958200000015,
                    "velocity": 0.2283464566929134,
                    "duration": 0.3260870000000011
                },
                {
                    "name": "D4",
                    "midi": 62,
                    "time": 126.52175600000015,
                    "velocity": 0.2440944881889764,
                    "duration": 0.3260870000000011
                },
                {
                    "name": "B3",
                    "midi": 59,
                    "time": 126.52175600000015,
                    "velocity": 0.1889763779527559,
                    "duration": 0.3260870000000011
                },
                {
                    "name": "G#3",
                    "midi": 56,
                    "time": 126.52175600000015,
                    "velocity": 0.1889763779527559,
                    "duration": 0.3260870000000011
                },
                {
                    "name": "F3",
                    "midi": 53,
                    "time": 126.52175600000015,
                    "velocity": 0.1889763779527559,
                    "duration": 0.3260870000000011
                },
                {
                    "name": "F3",
                    "midi": 53,
                    "time": 127.17393000000015,
                    "velocity": 0.2204724409448819,
                    "duration": 0.3260870000000011
                },
                {
                    "name": "G#3",
                    "midi": 56,
                    "time": 127.17393000000015,
                    "velocity": 0.2204724409448819,
                    "duration": 0.3260870000000011
                },
                {
                    "name": "B3",
                    "midi": 59,
                    "time": 127.17393000000015,
                    "velocity": 0.2204724409448819,
                    "duration": 0.3260870000000011
                },
                {
                    "name": "D4",
                    "midi": 62,
                    "time": 127.17393000000015,
                    "velocity": 0.2755905511811024,
                    "duration": 0.3260870000000011
                },
                {
                    "name": "G#2",
                    "midi": 44,
                    "time": 127.82610400000016,
                    "velocity": 0.25196850393700787,
                    "duration": 0.3260870000000011
                },
                {
                    "name": "C#4",
                    "midi": 61,
                    "time": 128.47827800000016,
                    "velocity": 0.25196850393700787,
                    "duration": 0.3260870000000011
                },
                {
                    "name": "B3",
                    "midi": 59,
                    "time": 128.47827800000016,
                    "velocity": 0.1968503937007874,
                    "duration": 0.3260870000000011
                },
                {
                    "name": "G#3",
                    "midi": 56,
                    "time": 128.47827800000016,
                    "velocity": 0.1968503937007874,
                    "duration": 0.3260870000000011
                },
                {
                    "name": "F3",
                    "midi": 53,
                    "time": 128.47827800000016,
                    "velocity": 0.1968503937007874,
                    "duration": 0.3260870000000011
                },
                {
                    "name": "F#3",
                    "midi": 54,
                    "time": 129.13045200000016,
                    "velocity": 0.2204724409448819,
                    "duration": 0.3260870000000011
                },
                {
                    "name": "A3",
                    "midi": 57,
                    "time": 129.13045200000016,
                    "velocity": 0.2204724409448819,
                    "duration": 0.3260870000000011
                },
                {
                    "name": "C#4",
                    "midi": 61,
                    "time": 129.13045200000016,
                    "velocity": 0.28346456692913385,
                    "duration": 0.3260870000000011
                },
                {
                    "name": "A2",
                    "midi": 45,
                    "time": 129.78262600000016,
                    "velocity": 0.25196850393700787,
                    "duration": 0.3260870000000011
                },
                {
                    "name": "C#4",
                    "midi": 61,
                    "time": 130.43480000000017,
                    "velocity": 0.25196850393700787,
                    "duration": 0.3260870000000011
                },
                {
                    "name": "A3",
                    "midi": 57,
                    "time": 130.43480000000017,
                    "velocity": 0.1968503937007874,
                    "duration": 0.3260870000000011
                },
                {
                    "name": "F#3",
                    "midi": 54,
                    "time": 130.43480000000017,
                    "velocity": 0.1968503937007874,
                    "duration": 0.3260870000000011
                },
                {
                    "name": "F3",
                    "midi": 53,
                    "time": 131.08697400000017,
                    "velocity": 0.23622047244094488,
                    "duration": 0.3260870000000011
                },
                {
                    "name": "G#3",
                    "midi": 56,
                    "time": 131.08697400000017,
                    "velocity": 0.23622047244094488,
                    "duration": 0.3260870000000011
                },
                {
                    "name": "B3",
                    "midi": 59,
                    "time": 131.08697400000017,
                    "velocity": 0.23622047244094488,
                    "duration": 0.3260870000000011
                },
                {
                    "name": "D4",
                    "midi": 62,
                    "time": 131.08697400000017,
                    "velocity": 0.29133858267716534,
                    "duration": 0.3260870000000011
                },
                {
                    "name": "G#2",
                    "midi": 44,
                    "time": 131.73914800000017,
                    "velocity": 0.25196850393700787,
                    "duration": 0.3260870000000011
                },
                {
                    "name": "C#4",
                    "midi": 61,
                    "time": 132.39132200000017,
                    "velocity": 0.25196850393700787,
                    "duration": 0.3260870000000011
                },
                {
                    "name": "B3",
                    "midi": 59,
                    "time": 132.39132200000017,
                    "velocity": 0.1968503937007874,
                    "duration": 0.3260870000000011
                },
                {
                    "name": "G#3",
                    "midi": 56,
                    "time": 132.39132200000017,
                    "velocity": 0.1968503937007874,
                    "duration": 0.3260870000000011
                },
                {
                    "name": "F3",
                    "midi": 53,
                    "time": 132.39132200000017,
                    "velocity": 0.1968503937007874,
                    "duration": 0.3260870000000011
                },
                {
                    "name": "F#3",
                    "midi": 54,
                    "time": 133.04349600000018,
                    "velocity": 0.2204724409448819,
                    "duration": 0.3260870000000011
                },
                {
                    "name": "A3",
                    "midi": 57,
                    "time": 133.04349600000018,
                    "velocity": 0.2204724409448819,
                    "duration": 0.3260870000000011
                },
                {
                    "name": "C#4",
                    "midi": 61,
                    "time": 133.04349600000018,
                    "velocity": 0.28346456692913385,
                    "duration": 0.3260870000000011
                },
                {
                    "name": "A2",
                    "midi": 45,
                    "time": 133.69567000000018,
                    "velocity": 0.25196850393700787,
                    "duration": 0.3260870000000011
                },
                {
                    "name": "C#3",
                    "midi": 49,
                    "time": 134.34784400000018,
                    "velocity": 0.1968503937007874,
                    "duration": 0.3260870000000011
                },
                {
                    "name": "C#4",
                    "midi": 61,
                    "time": 134.34784400000018,
                    "velocity": 0.25196850393700787,
                    "duration": 0.3260870000000011
                },
                {
                    "name": "A3",
                    "midi": 57,
                    "time": 134.34784400000018,
                    "velocity": 0.1968503937007874,
                    "duration": 0.3260870000000011
                },
                {
                    "name": "F#3",
                    "midi": 54,
                    "time": 134.34784400000018,
                    "velocity": 0.1968503937007874,
                    "duration": 0.3260870000000011
                },
                {
                    "name": "C#3",
                    "midi": 49,
                    "time": 135.00001800000018,
                    "velocity": 0.23622047244094488,
                    "duration": 0.3260870000000011
                },
                {
                    "name": "F3",
                    "midi": 53,
                    "time": 135.00001800000018,
                    "velocity": 0.23622047244094488,
                    "duration": 0.3260870000000011
                },
                {
                    "name": "G#3",
                    "midi": 56,
                    "time": 135.00001800000018,
                    "velocity": 0.23622047244094488,
                    "duration": 0.3260870000000011
                },
                {
                    "name": "B3",
                    "midi": 59,
                    "time": 135.00001800000018,
                    "velocity": 0.23622047244094488,
                    "duration": 0.3260870000000011
                },
                {
                    "name": "C#4",
                    "midi": 61,
                    "time": 135.00001800000018,
                    "velocity": 0.29133858267716534,
                    "duration": 0.3260870000000011
                },
                {
                    "name": "G#2",
                    "midi": 44,
                    "time": 135.65219200000018,
                    "velocity": 0.25196850393700787,
                    "duration": 0.3260870000000011
                },
                {
                    "name": "C#4",
                    "midi": 61,
                    "time": 136.3043660000002,
                    "velocity": 0.25196850393700787,
                    "duration": 0.3260870000000011
                },
                {
                    "name": "B3",
                    "midi": 59,
                    "time": 136.3043660000002,
                    "velocity": 0.1968503937007874,
                    "duration": 0.3260870000000011
                },
                {
                    "name": "G#3",
                    "midi": 56,
                    "time": 136.3043660000002,
                    "velocity": 0.1968503937007874,
                    "duration": 0.3260870000000011
                },
                {
                    "name": "A3",
                    "midi": 57,
                    "time": 136.9565400000002,
                    "velocity": 0.23622047244094488,
                    "duration": 0.3260870000000011
                },
                {
                    "name": "C#4",
                    "midi": 61,
                    "time": 136.9565400000002,
                    "velocity": 0.30708661417322836,
                    "duration": 0.3260870000000011
                },
                {
                    "name": "A2",
                    "midi": 45,
                    "time": 137.6087140000002,
                    "velocity": 0.2755905511811024,
                    "duration": 0.3260870000000011
                },
                {
                    "name": "C#4",
                    "midi": 61,
                    "time": 138.2608880000002,
                    "velocity": 0.28346456692913385,
                    "duration": 0.3260870000000011
                },
                {
                    "name": "A#3",
                    "midi": 58,
                    "time": 138.2608880000002,
                    "velocity": 0.2204724409448819,
                    "duration": 0.3260870000000011
                },
                {
                    "name": "A#3",
                    "midi": 58,
                    "time": 138.9130620000002,
                    "velocity": 0.2677165354330709,
                    "duration": 0.3260870000000011
                },
                {
                    "name": "C#4",
                    "midi": 61,
                    "time": 138.9130620000002,
                    "velocity": 0.33070866141732286,
                    "duration": 0.3260870000000011
                },
                {
                    "name": "A#2",
                    "midi": 46,
                    "time": 139.5652360000002,
                    "velocity": 0.31496062992125984,
                    "duration": 0.3260870000000011
                },
                {
                    "name": "D#4",
                    "midi": 63,
                    "time": 140.2174100000002,
                    "velocity": 0.31496062992125984,
                    "duration": 0.3260870000000011
                },
                {
                    "name": "B3",
                    "midi": 59,
                    "time": 140.2174100000002,
                    "velocity": 0.2440944881889764,
                    "duration": 0.3260870000000011
                },
                {
                    "name": "B3",
                    "midi": 59,
                    "time": 140.8695840000002,
                    "velocity": 0.28346456692913385,
                    "duration": 0.3260870000000011
                },
                {
                    "name": "D#4",
                    "midi": 63,
                    "time": 140.8695840000002,
                    "velocity": 0.3700787401574803,
                    "duration": 0.3260870000000011
                },
                {
                    "name": "B2",
                    "midi": 47,
                    "time": 141.5217580000002,
                    "velocity": 0.33070866141732286,
                    "duration": 0.3260870000000011
                },
                {
                    "name": "E4",
                    "midi": 64,
                    "time": 142.1739320000002,
                    "velocity": 0.33070866141732286,
                    "duration": 0.3260870000000011
                },
                {
                    "name": "C#4",
                    "midi": 61,
                    "time": 142.1739320000002,
                    "velocity": 0.25984251968503935,
                    "duration": 0.3260870000000011
                },
                {
                    "name": "C#4",
                    "midi": 61,
                    "time": 142.8261060000002,
                    "velocity": 0.31496062992125984,
                    "duration": 0.3260870000000011
                },
                {
                    "name": "E4",
                    "midi": 64,
                    "time": 142.8261060000002,
                    "velocity": 0.3937007874015748,
                    "duration": 0.3260870000000011
                },
                {
                    "name": "C#3",
                    "midi": 49,
                    "time": 143.4782800000002,
                    "velocity": 0.3464566929133858,
                    "duration": 0.3260870000000011
                },
                {
                    "name": "F#4",
                    "midi": 66,
                    "time": 144.1304540000002,
                    "velocity": 0.3464566929133858,
                    "duration": 0.3260870000000011
                },
                {
                    "name": "D#4",
                    "midi": 63,
                    "time": 144.1304540000002,
                    "velocity": 0.2755905511811024,
                    "duration": 0.3260870000000011
                },
                {
                    "name": "F#4",
                    "midi": 66,
                    "time": 144.78262800000022,
                    "velocity": 0.3858267716535433,
                    "duration": 0.3260870000000011
                },
                {
                    "name": "D#4",
                    "midi": 63,
                    "time": 144.78262800000022,
                    "velocity": 0.3228346456692913,
                    "duration": 0.3260870000000011
                },
                {
                    "name": "D#3",
                    "midi": 51,
                    "time": 145.10871500000022,
                    "velocity": 0.3228346456692913,
                    "duration": 0.3260870000000011
                },
                {
                    "name": "G4",
                    "midi": 67,
                    "time": 145.43480200000022,
                    "velocity": 0.3858267716535433,
                    "duration": 0.3260870000000011
                },
                {
                    "name": "E4",
                    "midi": 64,
                    "time": 145.43480200000022,
                    "velocity": 0.3228346456692913,
                    "duration": 0.3260870000000011
                },
                {
                    "name": "E3",
                    "midi": 52,
                    "time": 145.76088900000022,
                    "velocity": 0.33070866141732286,
                    "duration": 0.3260870000000011
                },
                {
                    "name": "A4",
                    "midi": 69,
                    "time": 146.08697600000022,
                    "velocity": 0.4015748031496063,
                    "duration": 0.3260870000000011
                },
                {
                    "name": "F#4",
                    "midi": 66,
                    "time": 146.08697600000022,
                    "velocity": 0.33070866141732286,
                    "duration": 0.3260870000000011
                },
                {
                    "name": "F#3",
                    "midi": 54,
                    "time": 146.41306300000022,
                    "velocity": 0.3228346456692913,
                    "duration": 0.3260870000000011
                },
                {
                    "name": "G4",
                    "midi": 67,
                    "time": 146.73915000000022,
                    "velocity": 0.3700787401574803,
                    "duration": 0.3260870000000011
                },
                {
                    "name": "B4",
                    "midi": 71,
                    "time": 146.73915000000022,
                    "velocity": 0.4409448818897638,
                    "duration": 0.3260870000000011
                },
                {
                    "name": "G3",
                    "midi": 55,
                    "time": 147.06523700000022,
                    "velocity": 0.3464566929133858,
                    "duration": 0.3260870000000011
                },
                {
                    "name": "G#4",
                    "midi": 68,
                    "time": 147.39132400000022,
                    "velocity": 0.3779527559055118,
                    "duration": 0.3260870000000011
                },
                {
                    "name": "B4",
                    "midi": 71,
                    "time": 147.39132400000022,
                    "velocity": 0.44881889763779526,
                    "duration": 0.3260870000000011
                },
                {
                    "name": "G#3",
                    "midi": 56,
                    "time": 147.71741100000023,
                    "velocity": 0.4015748031496063,
                    "duration": 0.3260870000000011
                },
                {
                    "name": "A4",
                    "midi": 69,
                    "time": 148.04349800000023,
                    "velocity": 0.4094488188976378,
                    "duration": 0.3260870000000011
                },
                {
                    "name": "C#5",
                    "midi": 73,
                    "time": 148.04349800000023,
                    "velocity": 0.4881889763779528,
                    "duration": 0.3260870000000011
                },
                {
                    "name": "A3",
                    "midi": 57,
                    "time": 148.36958500000023,
                    "velocity": 0.3858267716535433,
                    "duration": 0.3260870000000011
                },
                {
                    "name": "A4",
                    "midi": 69,
                    "time": 148.69567200000023,
                    "velocity": 0.31496062992125984,
                    "duration": 0.6521740000000023
                },
                {
                    "name": "C#5",
                    "midi": 73,
                    "time": 148.69567200000023,
                    "velocity": 0.3779527559055118,
                    "duration": 0.6521740000000023
                },
                {
                    "name": "C#4",
                    "midi": 61,
                    "time": 149.34784600000023,
                    "velocity": 0.31496062992125984,
                    "duration": 0.6521740000000023
                },
                {
                    "name": "A3",
                    "midi": 57,
                    "time": 149.34784600000023,
                    "velocity": 0.2677165354330709,
                    "duration": 1.3043480000000045
                },
                {
                    "name": "D#4",
                    "midi": 63,
                    "time": 150.00002000000023,
                    "velocity": 0.2755905511811024,
                    "duration": 0.9782610000000034
                },
                {
                    "name": "A3",
                    "midi": 57,
                    "time": 150.65219400000024,
                    "velocity": 0.25984251968503935,
                    "duration": 1.9565220000000068
                },
                {
                    "name": "D#4",
                    "midi": 63,
                    "time": 150.97828100000024,
                    "velocity": 0.25196850393700787,
                    "duration": 0.3260870000000011
                },
                {
                    "name": "F#4",
                    "midi": 66,
                    "time": 151.30436800000024,
                    "velocity": 0.2992125984251969,
                    "duration": 0.3260870000000011
                },
                {
                    "name": "E4",
                    "midi": 64,
                    "time": 151.63045500000024,
                    "velocity": 0.2677165354330709,
                    "duration": 0.3260870000000011
                },
                {
                    "name": "D#4",
                    "midi": 63,
                    "time": 151.95654200000024,
                    "velocity": 0.30708661417322836,
                    "duration": 0.3260870000000011
                },
                {
                    "name": "E4",
                    "midi": 64,
                    "time": 152.28262900000024,
                    "velocity": 0.2755905511811024,
                    "duration": 0.3260870000000011
                },
                {
                    "name": "A3",
                    "midi": 57,
                    "time": 152.60871600000024,
                    "velocity": 0.2677165354330709,
                    "duration": 1.9565220000000068
                },
                {
                    "name": "D4",
                    "midi": 62,
                    "time": 152.60871600000024,
                    "velocity": 0.3779527559055118,
                    "duration": 0.6521740000000023
                },
                {
                    "name": "C#4",
                    "midi": 61,
                    "time": 153.26089000000024,
                    "velocity": 0.31496062992125984,
                    "duration": 1.6304350000000056
                },
                {
                    "name": "A3",
                    "midi": 57,
                    "time": 154.56523800000025,
                    "velocity": 0.25984251968503935,
                    "duration": 1.9565220000000068
                },
                {
                    "name": "C#4",
                    "midi": 61,
                    "time": 154.89132500000025,
                    "velocity": 0.25196850393700787,
                    "duration": 0.3260870000000011
                },
                {
                    "name": "E4",
                    "midi": 64,
                    "time": 155.21741200000025,
                    "velocity": 0.2992125984251969,
                    "duration": 0.3260870000000011
                },
                {
                    "name": "D4",
                    "midi": 62,
                    "time": 155.54349900000025,
                    "velocity": 0.2677165354330709,
                    "duration": 0.3260870000000011
                },
                {
                    "name": "C#4",
                    "midi": 61,
                    "time": 155.86958600000025,
                    "velocity": 0.30708661417322836,
                    "duration": 0.3260870000000011
                },
                {
                    "name": "D4",
                    "midi": 62,
                    "time": 156.19567300000026,
                    "velocity": 0.2755905511811024,
                    "duration": 0.3260870000000011
                },
                {
                    "name": "A3",
                    "midi": 57,
                    "time": 156.52176000000026,
                    "velocity": 0.25984251968503935,
                    "duration": 1.3043480000000045
                },
                {
                    "name": "D#4",
                    "midi": 63,
                    "time": 156.52176000000026,
                    "velocity": 0.30708661417322836,
                    "duration": 0.6521740000000023
                },
                {
                    "name": "C4",
                    "midi": 60,
                    "time": 156.52176000000026,
                    "velocity": 0.30708661417322836,
                    "duration": 0.6521740000000023
                },
                {
                    "name": "E4",
                    "midi": 64,
                    "time": 157.17393400000026,
                    "velocity": 0.30708661417322836,
                    "duration": 0.6521740000000023
                },
                {
                    "name": "C#4",
                    "midi": 61,
                    "time": 157.17393400000026,
                    "velocity": 0.25984251968503935,
                    "duration": 0.6521740000000023
                },
                {
                    "name": "D#4",
                    "midi": 63,
                    "time": 157.82610800000026,
                    "velocity": 0.30708661417322836,
                    "duration": 0.3260870000000011
                },
                {
                    "name": "A#3",
                    "midi": 58,
                    "time": 157.82610800000026,
                    "velocity": 0.25984251968503935,
                    "duration": 0.6521740000000023
                },
                {
                    "name": "E4",
                    "midi": 64,
                    "time": 158.15219500000026,
                    "velocity": 0.30708661417322836,
                    "duration": 0.32336960833333706
                },
                {
                    "name": "E4",
                    "midi": 64,
                    "time": 158.47828200000026,
                    "velocity": 0.3543307086614173,
                    "duration": 0.3260870000000011
                },
                {
                    "name": "A#3",
                    "midi": 58,
                    "time": 158.47828200000026,
                    "velocity": 0.2992125984251969,
                    "duration": 0.6521740000000023
                },
                {
                    "name": "C#4",
                    "midi": 61,
                    "time": 158.80436900000026,
                    "velocity": 0.30708661417322836,
                    "duration": 0.3260870000000011
                },
                {
                    "name": "E4",
                    "midi": 64,
                    "time": 159.13045600000027,
                    "velocity": 0.3464566929133858,
                    "duration": 0.3260870000000011
                },
                {
                    "name": "B3",
                    "midi": 59,
                    "time": 159.13045600000027,
                    "velocity": 0.29133858267716534,
                    "duration": 0.6521740000000023
                },
                {
                    "name": "D4",
                    "midi": 62,
                    "time": 159.45654300000027,
                    "velocity": 0.30708661417322836,
                    "duration": 0.3260870000000011
                },
                {
                    "name": "C#4",
                    "midi": 61,
                    "time": 159.78263000000027,
                    "velocity": 0.33858267716535434,
                    "duration": 0.3260870000000011
                },
                {
                    "name": "G#3",
                    "midi": 56,
                    "time": 159.78263000000027,
                    "velocity": 0.28346456692913385,
                    "duration": 0.6521740000000023
                },
                {
                    "name": "D4",
                    "midi": 62,
                    "time": 160.10871700000027,
                    "velocity": 0.30708661417322836,
                    "duration": 0.32336960833333706
                },
                {
                    "name": "G#3",
                    "midi": 56,
                    "time": 160.43480400000027,
                    "velocity": 0.30708661417322836,
                    "duration": 0.6521740000000023
                },
                {
                    "name": "D4",
                    "midi": 62,
                    "time": 160.43480400000027,
                    "velocity": 0.36220472440944884,
                    "duration": 0.6521740000000023
                },
                {
                    "name": "C#4",
                    "midi": 61,
                    "time": 161.08697800000027,
                    "velocity": 0.33070866141732286,
                    "duration": 0.6521740000000023
                },
                {
                    "name": "G3",
                    "midi": 55,
                    "time": 161.08697800000027,
                    "velocity": 0.2755905511811024,
                    "duration": 0.6521740000000023
                },
                {
                    "name": "A3",
                    "midi": 57,
                    "time": 161.73915200000027,
                    "velocity": 0.25984251968503935,
                    "duration": 0.6521740000000023
                },
                {
                    "name": "F#3",
                    "midi": 54,
                    "time": 161.73915200000027,
                    "velocity": 0.25984251968503935,
                    "duration": 0.6521740000000023
                },
                {
                    "name": "D4",
                    "midi": 62,
                    "time": 161.73915200000027,
                    "velocity": 0.30708661417322836,
                    "duration": 0.6521740000000023
                },
                {
                    "name": "E3",
                    "midi": 52,
                    "time": 162.39132600000028,
                    "velocity": 0.3543307086614173,
                    "duration": 0.3260870000000011
                },
                {
                    "name": "A2",
                    "midi": 45,
                    "time": 162.39132600000028,
                    "velocity": 0.2992125984251969,
                    "duration": 0.6521740000000023
                },
                {
                    "name": "C#3",
                    "midi": 49,
                    "time": 162.71741300000028,
                    "velocity": 0.30708661417322836,
                    "duration": 0.3260870000000011
                },
                {
                    "name": "E3",
                    "midi": 52,
                    "time": 163.04350000000028,
                    "velocity": 0.44881889763779526,
                    "duration": 0.3260870000000011
                },
                {
                    "name": "B2",
                    "midi": 47,
                    "time": 163.04350000000028,
                    "velocity": 0.33858267716535434,
                    "duration": 0.6521740000000023
                },
                {
                    "name": "D3",
                    "midi": 50,
                    "time": 163.36958700000028,
                    "velocity": 0.3779527559055118,
                    "duration": 0.3260870000000011
                },
                {
                    "name": "C#3",
                    "midi": 49,
                    "time": 163.69567400000028,
                    "velocity": 0.44881889763779526,
                    "duration": 0.3260870000000011
                },
                {
                    "name": "G#2",
                    "midi": 44,
                    "time": 163.69567400000028,
                    "velocity": 0.3779527559055118,
                    "duration": 0.6521740000000023
                },
                {
                    "name": "D3",
                    "midi": 50,
                    "time": 164.02176100000028,
                    "velocity": 0.41732283464566927,
                    "duration": 0.3260870000000011
                },
                {
                    "name": "F2",
                    "midi": 41,
                    "time": 164.34784800000028,
                    "velocity": 0.4015748031496063,
                    "duration": 0.6521740000000023
                },
                {
                    "name": "D3",
                    "midi": 50,
                    "time": 164.34784800000028,
                    "velocity": 0.5275590551181102,
                    "duration": 0.3260870000000011
                },
                {
                    "name": "G#2",
                    "midi": 44,
                    "time": 164.67393500000028,
                    "velocity": 0.4645669291338583,
                    "duration": 0.3260870000000011
                },
                {
                    "name": "F#2",
                    "midi": 42,
                    "time": 165.00002200000029,
                    "velocity": 0.41732283464566927,
                    "duration": 0.9782610000000034
                },
                {
                    "name": "B2",
                    "midi": 47,
                    "time": 165.00002200000029,
                    "velocity": 0.5433070866141733,
                    "duration": 0.3260870000000011
                },
                {
                    "name": "A2",
                    "midi": 45,
                    "time": 165.3261090000003,
                    "velocity": 0.4566929133858268,
                    "duration": 0.3260870000000011
                },
                {
                    "name": "G#2",
                    "midi": 44,
                    "time": 165.6521960000003,
                    "velocity": 0.5433070866141733,
                    "duration": 0.3260870000000011
                },
                {
                    "name": "F2",
                    "midi": 41,
                    "time": 165.9782830000003,
                    "velocity": 0.3543307086614173,
                    "duration": 0.3260870000000011
                },
                {
                    "name": "A2",
                    "midi": 45,
                    "time": 165.9782830000003,
                    "velocity": 0.4566929133858268,
                    "duration": 0.3260870000000011
                },
                {
                    "name": "E2",
                    "midi": 40,
                    "time": 166.3043700000003,
                    "velocity": 0.44881889763779526,
                    "duration": 0.3260870000000011
                },
                {
                    "name": "A2",
                    "midi": 45,
                    "time": 166.3043700000003,
                    "velocity": 0.5354330708661418,
                    "duration": 0.3260870000000011
                },
                {
                    "name": "G#1",
                    "midi": 32,
                    "time": 166.6304570000003,
                    "velocity": 0.48031496062992124,
                    "duration": 0.3260870000000011
                },
                {
                    "name": "A#1",
                    "midi": 34,
                    "time": 166.9565440000003,
                    "velocity": 0.5669291338582677,
                    "duration": 0.3260870000000011
                },
                {
                    "name": "A1",
                    "midi": 33,
                    "time": 167.2826310000003,
                    "velocity": 0.49606299212598426,
                    "duration": 0.3260870000000011
                },
                {
                    "name": "G#1",
                    "midi": 32,
                    "time": 167.6087180000003,
                    "velocity": 0.5669291338582677,
                    "duration": 0.3260870000000011
                },
                {
                    "name": "A1",
                    "midi": 33,
                    "time": 167.9348050000003,
                    "velocity": 0.4881889763779528,
                    "duration": 0.298913083333332
                },
                {
                    "name": "A1",
                    "midi": 33,
                    "time": 168.2608920000003,
                    "velocity": 0.6377952755905512,
                    "duration": 0.3260870000000011
                },
                {
                    "name": "E3",
                    "midi": 52,
                    "time": 168.5869790000003,
                    "velocity": 0.33858267716535434,
                    "duration": 0.3260870000000011
                },
                {
                    "name": "C#3",
                    "midi": 49,
                    "time": 168.9130660000003,
                    "velocity": 0.3700787401574803,
                    "duration": 0.3260870000000011
                },
                {
                    "name": "G3",
                    "midi": 55,
                    "time": 169.2391530000003,
                    "velocity": 0.33858267716535434,
                    "duration": 0.3260870000000011
                },
                {
                    "name": "E3",
                    "midi": 52,
                    "time": 169.5652400000003,
                    "velocity": 0.3779527559055118,
                    "duration": 0.3260870000000011
                },
                {
                    "name": "A#3",
                    "midi": 58,
                    "time": 169.8913270000003,
                    "velocity": 0.33858267716535434,
                    "duration": 0.3260870000000011
                },
                {
                    "name": "G#3",
                    "midi": 56,
                    "time": 170.2174140000003,
                    "velocity": 0.3700787401574803,
                    "duration": 0.3260870000000011
                },
                {
                    "name": "A3",
                    "midi": 57,
                    "time": 170.5435010000003,
                    "velocity": 0.33858267716535434,
                    "duration": 0.3260870000000011
                },
                {
                    "name": "E3",
                    "midi": 52,
                    "time": 170.8695880000003,
                    "velocity": 0.36220472440944884,
                    "duration": 0.3260870000000011
                },
                {
                    "name": "B3",
                    "midi": 59,
                    "time": 171.1956750000003,
                    "velocity": 0.30708661417322836,
                    "duration": 0.3260870000000011
                },
                {
                    "name": "A3",
                    "midi": 57,
                    "time": 171.5217620000003,
                    "velocity": 0.3543307086614173,
                    "duration": 0.3260870000000011
                },
                {
                    "name": "G3",
                    "midi": 55,
                    "time": 171.8478490000003,
                    "velocity": 0.31496062992125984,
                    "duration": 0.3260870000000011
                },
                {
                    "name": "D3",
                    "midi": 50,
                    "time": 172.1739360000003,
                    "velocity": 0.25196850393700787,
                    "duration": 3.2608700000000113
                },
                {
                    "name": "F#3",
                    "midi": 54,
                    "time": 172.1739360000003,
                    "velocity": 0.2992125984251969,
                    "duration": 0.3260870000000011
                },
                {
                    "name": "B3",
                    "midi": 59,
                    "time": 172.5000230000003,
                    "velocity": 0.25984251968503935,
                    "duration": 0.3260870000000011
                },
                {
                    "name": "G#3",
                    "midi": 56,
                    "time": 172.8261100000003,
                    "velocity": 0.2992125984251969,
                    "duration": 0.3260870000000011
                },
                {
                    "name": "A3",
                    "midi": 57,
                    "time": 173.1521970000003,
                    "velocity": 0.2677165354330709,
                    "duration": 0.3260870000000011
                },
                {
                    "name": "F#3",
                    "midi": 54,
                    "time": 173.47828400000031,
                    "velocity": 0.2992125984251969,
                    "duration": 0.3260870000000011
                },
                {
                    "name": "B3",
                    "midi": 59,
                    "time": 173.80437100000032,
                    "velocity": 0.25984251968503935,
                    "duration": 0.3260870000000011
                },
                {
                    "name": "G#3",
                    "midi": 56,
                    "time": 174.13045800000032,
                    "velocity": 0.2992125984251969,
                    "duration": 0.3260870000000011
                },
                {
                    "name": "A3",
                    "midi": 57,
                    "time": 174.45654500000032,
                    "velocity": 0.25984251968503935,
                    "duration": 0.3260870000000011
                },
                {
                    "name": "F#3",
                    "midi": 54,
                    "time": 174.78263200000032,
                    "velocity": 0.25196850393700787,
                    "duration": 0.3260870000000011
                },
                {
                    "name": "B3",
                    "midi": 59,
                    "time": 175.10871900000032,
                    "velocity": 0.2204724409448819,
                    "duration": 0.3260870000000011
                },
                {
                    "name": "D3",
                    "midi": 50,
                    "time": 175.43480600000032,
                    "velocity": 0.2125984251968504,
                    "duration": 0.6521740000000023
                },
                {
                    "name": "F#3",
                    "midi": 54,
                    "time": 175.43480600000032,
                    "velocity": 0.25196850393700787,
                    "duration": 0.3260870000000011
                },
                {
                    "name": "A3",
                    "midi": 57,
                    "time": 175.76089300000032,
                    "velocity": 0.2204724409448819,
                    "duration": 0.3260870000000011
                },
                {
                    "name": "C#3",
                    "midi": 49,
                    "time": 176.08698000000032,
                    "velocity": 0.25196850393700787,
                    "duration": 0.6521740000000023
                },
                {
                    "name": "E3",
                    "midi": 52,
                    "time": 176.08698000000032,
                    "velocity": 0.2992125984251969,
                    "duration": 0.3260870000000011
                },
                {
                    "name": "A3",
                    "midi": 57,
                    "time": 176.41306700000032,
                    "velocity": 0.25984251968503935,
                    "duration": 0.3260870000000011
                },
                {
                    "name": "D3",
                    "midi": 50,
                    "time": 176.73915400000033,
                    "velocity": 0.25196850393700787,
                    "duration": 0.6521740000000023
                },
                {
                    "name": "F#3",
                    "midi": 54,
                    "time": 176.73915400000033,
                    "velocity": 0.2992125984251969,
                    "duration": 0.3260870000000011
                },
                {
                    "name": "A3",
                    "midi": 57,
                    "time": 177.06524100000033,
                    "velocity": 0.2677165354330709,
                    "duration": 0.3260870000000011
                },
                {
                    "name": "E3",
                    "midi": 52,
                    "time": 177.39132800000033,
                    "velocity": 0.2677165354330709,
                    "duration": 0.6467392166666741
                },
                {
                    "name": "G3",
                    "midi": 55,
                    "time": 177.39132800000033,
                    "velocity": 0.3228346456692913,
                    "duration": 0.3260870000000011
                },
                {
                    "name": "A3",
                    "midi": 57,
                    "time": 177.71741500000033,
                    "velocity": 0.28346456692913385,
                    "duration": 0.3260870000000011
                },
                {
                    "name": "E3",
                    "midi": 52,
                    "time": 178.04350200000033,
                    "velocity": 0.2677165354330709,
                    "duration": 0.6521740000000023
                },
                {
                    "name": "G3",
                    "midi": 55,
                    "time": 178.04350200000033,
                    "velocity": 0.31496062992125984,
                    "duration": 0.3260870000000011
                },
                {
                    "name": "A3",
                    "midi": 57,
                    "time": 178.36958900000033,
                    "velocity": 0.2677165354330709,
                    "duration": 0.3260870000000011
                },
                {
                    "name": "D3",
                    "midi": 50,
                    "time": 178.69567600000033,
                    "velocity": 0.25196850393700787,
                    "duration": 0.6521740000000023
                },
                {
                    "name": "F#3",
                    "midi": 54,
                    "time": 178.69567600000033,
                    "velocity": 0.2992125984251969,
                    "duration": 0.3260870000000011
                },
                {
                    "name": "A3",
                    "midi": 57,
                    "time": 179.02176300000033,
                    "velocity": 0.25196850393700787,
                    "duration": 0.3260870000000011
                },
                {
                    "name": "C#3",
                    "midi": 49,
                    "time": 179.34785000000034,
                    "velocity": 0.2440944881889764,
                    "duration": 0.6521740000000023
                },
                {
                    "name": "E3",
                    "midi": 52,
                    "time": 179.34785000000034,
                    "velocity": 0.29133858267716534,
                    "duration": 0.3260870000000011
                },
                {
                    "name": "A3",
                    "midi": 57,
                    "time": 179.67393700000034,
                    "velocity": 0.2677165354330709,
                    "duration": 0.3260870000000011
                },
                {
                    "name": "D3",
                    "midi": 50,
                    "time": 180.00002400000034,
                    "velocity": 0.25196850393700787,
                    "duration": 3.2608700000000113
                },
                {
                    "name": "F#3",
                    "midi": 54,
                    "time": 180.00002400000034,
                    "velocity": 0.2992125984251969,
                    "duration": 0.3260870000000011
                },
                {
                    "name": "B3",
                    "midi": 59,
                    "time": 180.32611100000034,
                    "velocity": 0.25984251968503935,
                    "duration": 0.3260870000000011
                },
                {
                    "name": "G#3",
                    "midi": 56,
                    "time": 180.65219800000034,
                    "velocity": 0.2992125984251969,
                    "duration": 0.3260870000000011
                },
                {
                    "name": "A3",
                    "midi": 57,
                    "time": 180.97828500000034,
                    "velocity": 0.2677165354330709,
                    "duration": 0.3260870000000011
                },
                {
                    "name": "F#3",
                    "midi": 54,
                    "time": 181.30437200000034,
                    "velocity": 0.2992125984251969,
                    "duration": 0.3260870000000011
                },
                {
                    "name": "B3",
                    "midi": 59,
                    "time": 181.63045900000034,
                    "velocity": 0.25984251968503935,
                    "duration": 0.3260870000000011
                },
                {
                    "name": "G#3",
                    "midi": 56,
                    "time": 181.95654600000034,
                    "velocity": 0.2992125984251969,
                    "duration": 0.3260870000000011
                },
                {
                    "name": "A3",
                    "midi": 57,
                    "time": 182.28263300000035,
                    "velocity": 0.25984251968503935,
                    "duration": 0.3260870000000011
                },
                {
                    "name": "F#3",
                    "midi": 54,
                    "time": 182.60872000000035,
                    "velocity": 0.2992125984251969,
                    "duration": 0.3260870000000011
                },
                {
                    "name": "B3",
                    "midi": 59,
                    "time": 182.93480700000035,
                    "velocity": 0.25196850393700787,
                    "duration": 0.3260870000000011
                },
                {
                    "name": "D3",
                    "midi": 50,
                    "time": 183.26089400000035,
                    "velocity": 0.2283464566929134,
                    "duration": 0.6521740000000023
                },
                {
                    "name": "F#3",
                    "midi": 54,
                    "time": 183.26089400000035,
                    "velocity": 0.2677165354330709,
                    "duration": 0.3260870000000011
                },
                {
                    "name": "A3",
                    "midi": 57,
                    "time": 183.58698100000035,
                    "velocity": 0.2283464566929134,
                    "duration": 0.3260870000000011
                },
                {
                    "name": "C#3",
                    "midi": 49,
                    "time": 183.91306800000035,
                    "velocity": 0.2125984251968504,
                    "duration": 0.6521740000000023
                },
                {
                    "name": "E3",
                    "midi": 52,
                    "time": 183.91306800000035,
                    "velocity": 0.25196850393700787,
                    "duration": 0.3260870000000011
                },
                {
                    "name": "A3",
                    "midi": 57,
                    "time": 184.23915500000035,
                    "velocity": 0.2204724409448819,
                    "duration": 0.3260870000000011
                },
                {
                    "name": "D3",
                    "midi": 50,
                    "time": 184.56524200000035,
                    "velocity": 0.2204724409448819,
                    "duration": 0.6521740000000023
                },
                {
                    "name": "F#3",
                    "midi": 54,
                    "time": 184.56524200000035,
                    "velocity": 0.2677165354330709,
                    "duration": 0.3260870000000011
                },
                {
                    "name": "A3",
                    "midi": 57,
                    "time": 184.89132900000035,
                    "velocity": 0.2440944881889764,
                    "duration": 0.3260870000000011
                },
                {
                    "name": "E3",
                    "midi": 52,
                    "time": 185.21741600000036,
                    "velocity": 0.25196850393700787,
                    "duration": 0.6467392166666741
                },
                {
                    "name": "G3",
                    "midi": 55,
                    "time": 185.21741600000036,
                    "velocity": 0.30708661417322836,
                    "duration": 0.3260870000000011
                },
                {
                    "name": "A3",
                    "midi": 57,
                    "time": 185.54350300000036,
                    "velocity": 0.2755905511811024,
                    "duration": 0.3260870000000011
                },
                {
                    "name": "E3",
                    "midi": 52,
                    "time": 185.86959000000036,
                    "velocity": 0.2677165354330709,
                    "duration": 0.6521740000000023
                },
                {
                    "name": "G3",
                    "midi": 55,
                    "time": 185.86959000000036,
                    "velocity": 0.31496062992125984,
                    "duration": 0.3260870000000011
                },
                {
                    "name": "A3",
                    "midi": 57,
                    "time": 186.19567700000036,
                    "velocity": 0.2677165354330709,
                    "duration": 0.3260870000000011
                },
                {
                    "name": "D3",
                    "midi": 50,
                    "time": 186.52176400000036,
                    "velocity": 0.25196850393700787,
                    "duration": 0.6521740000000023
                },
                {
                    "name": "F#3",
                    "midi": 54,
                    "time": 186.52176400000036,
                    "velocity": 0.2992125984251969,
                    "duration": 0.3260870000000011
                },
                {
                    "name": "A3",
                    "midi": 57,
                    "time": 186.84785100000036,
                    "velocity": 0.25196850393700787,
                    "duration": 0.3260870000000011
                },
                {
                    "name": "C#3",
                    "midi": 49,
                    "time": 187.17393800000036,
                    "velocity": 0.2440944881889764,
                    "duration": 0.6521740000000023
                },
                {
                    "name": "E3",
                    "midi": 52,
                    "time": 187.17393800000036,
                    "velocity": 0.29133858267716534,
                    "duration": 0.3260870000000011
                },
                {
                    "name": "A3",
                    "midi": 57,
                    "time": 187.50002500000036,
                    "velocity": 0.2677165354330709,
                    "duration": 0.3260870000000011
                },
                {
                    "name": "D3",
                    "midi": 50,
                    "time": 187.82611200000036,
                    "velocity": 0.25196850393700787,
                    "duration": 3.260869999999869
                },
                {
                    "name": "F#3",
                    "midi": 54,
                    "time": 187.82611200000036,
                    "velocity": 0.2992125984251969,
                    "duration": 0.22010872499998868
                },
                {
                    "name": "B3",
                    "midi": 59,
                    "time": 188.04622072500035,
                    "velocity": 0.25984251968503935,
                    "duration": 0.2173913333333246
                },
                {
                    "name": "A3",
                    "midi": 57,
                    "time": 188.260894666667,
                    "velocity": 0.25984251968503935,
                    "duration": 0.2173913333333246
                },
                {
                    "name": "G#3",
                    "midi": 56,
                    "time": 188.47828600000034,
                    "velocity": 0.2992125984251969,
                    "duration": 0.22010872499998868
                },
                {
                    "name": "B3",
                    "midi": 59,
                    "time": 188.69567733333366,
                    "velocity": 0.2677165354330709,
                    "duration": 0.2173913333333246
                },
                {
                    "name": "A3",
                    "midi": 57,
                    "time": 188.913068666667,
                    "velocity": 0.2677165354330709,
                    "duration": 0.16304349999998635
                },
                {
                    "name": "F#3",
                    "midi": 54,
                    "time": 189.1304600000003,
                    "velocity": 0.2992125984251969,
                    "duration": 0.22010872499998868
                },
                {
                    "name": "B3",
                    "midi": 59,
                    "time": 189.3505687250003,
                    "velocity": 0.25984251968503935,
                    "duration": 0.2173913333333246
                },
                {
                    "name": "A3",
                    "midi": 57,
                    "time": 189.56524266666696,
                    "velocity": 0.25984251968503935,
                    "duration": 0.16304349999998635
                },
                {
                    "name": "G#3",
                    "midi": 56,
                    "time": 189.7826340000003,
                    "velocity": 0.2992125984251969,
                    "duration": 0.22010872499998868
                },
                {
                    "name": "B3",
                    "midi": 59,
                    "time": 190.0000253333336,
                    "velocity": 0.25984251968503935,
                    "duration": 0.2173913333333246
                },
                {
                    "name": "A3",
                    "midi": 57,
                    "time": 190.21741666666694,
                    "velocity": 0.25984251968503935,
                    "duration": 0.16304349999998635
                },
                {
                    "name": "F#3",
                    "midi": 54,
                    "time": 190.43480800000026,
                    "velocity": 0.2992125984251969,
                    "duration": 0.22010872499998868
                },
                {
                    "name": "B3",
                    "midi": 59,
                    "time": 190.65491672500025,
                    "velocity": 0.2677165354330709,
                    "duration": 0.2173913333333246
                },
                {
                    "name": "A3",
                    "midi": 57,
                    "time": 190.8695906666669,
                    "velocity": 0.2677165354330709,
                    "duration": 0.16304349999998635
                },
                {
                    "name": "D3",
                    "midi": 50,
                    "time": 191.08698200000023,
                    "velocity": 0.25196850393700787,
                    "duration": 0.6521739999999738
                },
                {
                    "name": "F#3",
                    "midi": 54,
                    "time": 191.08698200000023,
                    "velocity": 0.2992125984251969,
                    "duration": 0.22010872499998868
                },
                {
                    "name": "A#3",
                    "midi": 58,
                    "time": 191.30437333333356,
                    "velocity": 0.2677165354330709,
                    "duration": 0.2173913333333246
                },
                {
                    "name": "A3",
                    "midi": 57,
                    "time": 191.52176466666688,
                    "velocity": 0.2677165354330709,
                    "duration": 0.16304349999998635
                },
                {
                    "name": "C#3",
                    "midi": 49,
                    "time": 191.7391560000002,
                    "velocity": 0.25196850393700787,
                    "duration": 0.6521739999999738
                },
                {
                    "name": "E3",
                    "midi": 52,
                    "time": 191.7391560000002,
                    "velocity": 0.2992125984251969,
                    "duration": 0.22010872499998868
                },
                {
                    "name": "B3",
                    "midi": 59,
                    "time": 191.95654733333353,
                    "velocity": 0.25984251968503935,
                    "duration": 0.2173913333333246
                },
                {
                    "name": "A3",
                    "midi": 57,
                    "time": 192.17393866666686,
                    "velocity": 0.25984251968503935,
                    "duration": 0.16304349999998635
                },
                {
                    "name": "D3",
                    "midi": 50,
                    "time": 192.39133000000018,
                    "velocity": 0.25196850393700787,
                    "duration": 0.6521739999999738
                },
                {
                    "name": "F#3",
                    "midi": 54,
                    "time": 192.39133000000018,
                    "velocity": 0.2992125984251969,
                    "duration": 0.22010872499998868
                },
                {
                    "name": "B3",
                    "midi": 59,
                    "time": 192.6087213333335,
                    "velocity": 0.2677165354330709,
                    "duration": 0.2173913333333246
                },
                {
                    "name": "A3",
                    "midi": 57,
                    "time": 192.82611266666683,
                    "velocity": 0.2677165354330709,
                    "duration": 0.16304349999998635
                },
                {
                    "name": "E3",
                    "midi": 52,
                    "time": 193.04350400000015,
                    "velocity": 0.2677165354330709,
                    "duration": 0.6467392166666457
                },
                {
                    "name": "G3",
                    "midi": 55,
                    "time": 193.04350400000015,
                    "velocity": 0.3228346456692913,
                    "duration": 0.22010872499998868
                },
                {
                    "name": "B3",
                    "midi": 59,
                    "time": 193.26089533333348,
                    "velocity": 0.28346456692913385,
                    "duration": 0.2173913333333246
                },
                {
                    "name": "A3",
                    "midi": 57,
                    "time": 193.4782866666668,
                    "velocity": 0.28346456692913385,
                    "duration": 0.16304349999998635
                },
                {
                    "name": "E3",
                    "midi": 52,
                    "time": 193.69567800000013,
                    "velocity": 0.2677165354330709,
                    "duration": 0.6521739999999738
                },
                {
                    "name": "G3",
                    "midi": 55,
                    "time": 193.69567800000013,
                    "velocity": 0.31496062992125984,
                    "duration": 0.22010872499998868
                },
                {
                    "name": "B3",
                    "midi": 59,
                    "time": 193.91306933333345,
                    "velocity": 0.2677165354330709,
                    "duration": 0.2173913333333246
                },
                {
                    "name": "A3",
                    "midi": 57,
                    "time": 194.13046066666678,
                    "velocity": 0.2677165354330709,
                    "duration": 0.16304349999998635
                },
                {
                    "name": "D3",
                    "midi": 50,
                    "time": 194.3478520000001,
                    "velocity": 0.25196850393700787,
                    "duration": 0.6521739999999738
                },
                {
                    "name": "F#3",
                    "midi": 54,
                    "time": 194.3478520000001,
                    "velocity": 0.2992125984251969,
                    "duration": 0.22010872499998868
                },
                {
                    "name": "B3",
                    "midi": 59,
                    "time": 194.56524333333343,
                    "velocity": 0.25196850393700787,
                    "duration": 0.2173913333333246
                },
                {
                    "name": "A3",
                    "midi": 57,
                    "time": 194.78263466666675,
                    "velocity": 0.25196850393700787,
                    "duration": 0.16304349999998635
                },
                {
                    "name": "C#3",
                    "midi": 49,
                    "time": 195.00002600000008,
                    "velocity": 0.2440944881889764,
                    "duration": 0.6521739999999738
                },
                {
                    "name": "E3",
                    "midi": 52,
                    "time": 195.00002600000008,
                    "velocity": 0.29133858267716534,
                    "duration": 0.22010872499998868
                },
                {
                    "name": "B3",
                    "midi": 59,
                    "time": 195.2174173333334,
                    "velocity": 0.2677165354330709,
                    "duration": 0.2173913333333246
                },
                {
                    "name": "A3",
                    "midi": 57,
                    "time": 195.43480866666673,
                    "velocity": 0.2677165354330709,
                    "duration": 0.16304349999998635
                },
                {
                    "name": "D3",
                    "midi": 50,
                    "time": 195.65220000000005,
                    "velocity": 0.25196850393700787,
                    "duration": 3.260869999999869
                },
                {
                    "name": "F#3",
                    "midi": 54,
                    "time": 195.65220000000005,
                    "velocity": 0.2992125984251969,
                    "duration": 0.22010872499998868
                },
                {
                    "name": "B3",
                    "midi": 59,
                    "time": 195.87230872500004,
                    "velocity": 0.30708661417322836,
                    "duration": 0.2173913333333246
                },
                {
                    "name": "A3",
                    "midi": 57,
                    "time": 196.0869826666667,
                    "velocity": 0.30708661417322836,
                    "duration": 0.2173913333333246
                },
                {
                    "name": "G#3",
                    "midi": 56,
                    "time": 196.30437400000002,
                    "velocity": 0.36220472440944884,
                    "duration": 0.22010872499998868
                },
                {
                    "name": "B3",
                    "midi": 59,
                    "time": 196.52176533333335,
                    "velocity": 0.3228346456692913,
                    "duration": 0.2173913333333246
                },
                {
                    "name": "A3",
                    "midi": 57,
                    "time": 196.73915666666667,
                    "velocity": 0.33070866141732286,
                    "duration": 0.16304349999998635
                },
                {
                    "name": "F#3",
                    "midi": 54,
                    "time": 196.956548,
                    "velocity": 0.3700787401574803,
                    "duration": 0.22010872499998868
                },
                {
                    "name": "B3",
                    "midi": 59,
                    "time": 197.176656725,
                    "velocity": 0.3228346456692913,
                    "duration": 0.2173913333333246
                },
                {
                    "name": "A3",
                    "midi": 57,
                    "time": 197.39133066666665,
                    "velocity": 0.33070866141732286,
                    "duration": 0.16304349999998635
                },
                {
                    "name": "G#3",
                    "midi": 56,
                    "time": 197.60872199999997,
                    "velocity": 0.3858267716535433,
                    "duration": 0.22010872499998868
                },
                {
                    "name": "B3",
                    "midi": 59,
                    "time": 197.8261133333333,
                    "velocity": 0.33070866141732286,
                    "duration": 0.2173913333333246
                },
                {
                    "name": "A3",
                    "midi": 57,
                    "time": 198.04350466666662,
                    "velocity": 0.33858267716535434,
                    "duration": 0.16304349999998635
                },
                {
                    "name": "F#3",
                    "midi": 54,
                    "time": 198.26089599999995,
                    "velocity": 0.3937007874015748,
                    "duration": 0.22010872499998868
                },
                {
                    "name": "B3",
                    "midi": 59,
                    "time": 198.48100472499993,
                    "velocity": 0.3543307086614173,
                    "duration": 0.2173913333333246
                },
                {
                    "name": "A3",
                    "midi": 57,
                    "time": 198.6956786666666,
                    "velocity": 0.3543307086614173,
                    "duration": 0.16304349999998635
                },
                {
                    "name": "D3",
                    "midi": 50,
                    "time": 198.91306999999992,
                    "velocity": 0.33858267716535434,
                    "duration": 0.6521739999999738
                },
                {
                    "name": "F#3",
                    "midi": 54,
                    "time": 198.91306999999992,
                    "velocity": 0.4015748031496063,
                    "duration": 0.22010872499998868
                },
                {
                    "name": "A#3",
                    "midi": 58,
                    "time": 199.13046133333324,
                    "velocity": 0.3937007874015748,
                    "duration": 0.2173913333333246
                },
                {
                    "name": "A3",
                    "midi": 57,
                    "time": 199.34785266666657,
                    "velocity": 0.3937007874015748,
                    "duration": 0.16304349999998635
                },
                {
                    "name": "C#3",
                    "midi": 49,
                    "time": 199.5652439999999,
                    "velocity": 0.3464566929133858,
                    "duration": 0.6521739999999738
                },
                {
                    "name": "E3",
                    "midi": 52,
                    "time": 199.5652439999999,
                    "velocity": 0.41732283464566927,
                    "duration": 0.22010872499998868
                },
                {
                    "name": "B3",
                    "midi": 59,
                    "time": 199.78263533333322,
                    "velocity": 0.36220472440944884,
                    "duration": 0.2173913333333246
                },
                {
                    "name": "A3",
                    "midi": 57,
                    "time": 200.00002666666654,
                    "velocity": 0.36220472440944884,
                    "duration": 0.16304349999998635
                },
                {
                    "name": "D3",
                    "midi": 50,
                    "time": 200.21741799999987,
                    "velocity": 0.3543307086614173,
                    "duration": 0.6521739999999738
                },
                {
                    "name": "F#3",
                    "midi": 54,
                    "time": 200.21741799999987,
                    "velocity": 0.4251968503937008,
                    "duration": 0.22010872499998868
                },
                {
                    "name": "B3",
                    "midi": 59,
                    "time": 200.4348093333332,
                    "velocity": 0.3779527559055118,
                    "duration": 0.2173913333333246
                },
                {
                    "name": "A3",
                    "midi": 57,
                    "time": 200.65220066666652,
                    "velocity": 0.3858267716535433,
                    "duration": 0.16304349999998635
                },
                {
                    "name": "E3",
                    "midi": 52,
                    "time": 200.86959199999984,
                    "velocity": 0.3937007874015748,
                    "duration": 0.6521739999999738
                },
                {
                    "name": "G3",
                    "midi": 55,
                    "time": 200.86959199999984,
                    "velocity": 0.47244094488188976,
                    "duration": 0.22010872499998868
                },
                {
                    "name": "B3",
                    "midi": 59,
                    "time": 201.08698333333317,
                    "velocity": 0.41732283464566927,
                    "duration": 0.2173913333333246
                },
                {
                    "name": "A3",
                    "midi": 57,
                    "time": 201.3043746666665,
                    "velocity": 0.4251968503937008,
                    "duration": 0.16304349999998635
                },
                {
                    "name": "E3",
                    "midi": 52,
                    "time": 201.52176599999981,
                    "velocity": 0.3937007874015748,
                    "duration": 0.6521739999999738
                },
                {
                    "name": "G3",
                    "midi": 55,
                    "time": 201.52176599999981,
                    "velocity": 0.47244094488188976,
                    "duration": 0.22010872499998868
                },
                {
                    "name": "B3",
                    "midi": 59,
                    "time": 201.73915733333314,
                    "velocity": 0.4015748031496063,
                    "duration": 0.2173913333333246
                },
                {
                    "name": "A3",
                    "midi": 57,
                    "time": 201.95654866666646,
                    "velocity": 0.4015748031496063,
                    "duration": 0.16304349999998635
                },
                {
                    "name": "D3",
                    "midi": 50,
                    "time": 202.1739399999998,
                    "velocity": 0.3858267716535433,
                    "duration": 0.6521739999999738
                },
                {
                    "name": "F#3",
                    "midi": 54,
                    "time": 202.1739399999998,
                    "velocity": 0.4566929133858268,
                    "duration": 0.22010872499998868
                },
                {
                    "name": "B3",
                    "midi": 59,
                    "time": 202.3913313333331,
                    "velocity": 0.3858267716535433,
                    "duration": 0.2173913333333246
                },
                {
                    "name": "A3",
                    "midi": 57,
                    "time": 202.60872266666644,
                    "velocity": 0.3937007874015748,
                    "duration": 0.16304349999998635
                },
                {
                    "name": "C#3",
                    "midi": 49,
                    "time": 202.82611399999976,
                    "velocity": 0.3858267716535433,
                    "duration": 0.6521739999999738
                },
                {
                    "name": "E3",
                    "midi": 52,
                    "time": 202.82611399999976,
                    "velocity": 0.4566929133858268,
                    "duration": 0.22010872499998868
                },
                {
                    "name": "A3",
                    "midi": 57,
                    "time": 203.0435053333331,
                    "velocity": 0.41732283464566927,
                    "duration": 0.2173913333333246
                },
                {
                    "name": "G3",
                    "midi": 55,
                    "time": 203.2608966666664,
                    "velocity": 0.31496062992125984,
                    "duration": 0.16304349999998635
                },
                {
                    "name": "F#3",
                    "midi": 54,
                    "time": 203.47828799999974,
                    "velocity": 0.31496062992125984,
                    "duration": 0.2173913333333246
                },
                {
                    "name": "D3",
                    "midi": 50,
                    "time": 203.47828799999974,
                    "velocity": 0.3937007874015748,
                    "duration": 1.9565219999999215
                },
                {
                    "name": "A3",
                    "midi": 57,
                    "time": 203.69567933333306,
                    "velocity": 0.28346456692913385,
                    "duration": 0.2173913333333246
                },
                {
                    "name": "G3",
                    "midi": 55,
                    "time": 203.91307066666639,
                    "velocity": 0.28346456692913385,
                    "duration": 0.2173913333333246
                },
                {
                    "name": "F#3",
                    "midi": 54,
                    "time": 204.1304619999997,
                    "velocity": 0.31496062992125984,
                    "duration": 0.2173913333333246
                },
                {
                    "name": "G3",
                    "midi": 55,
                    "time": 204.34785333333303,
                    "velocity": 0.2992125984251969,
                    "duration": 0.2173913333333246
                },
                {
                    "name": "A3",
                    "midi": 57,
                    "time": 204.56524466666636,
                    "velocity": 0.2992125984251969,
                    "duration": 0.2173913333333246
                },
                {
                    "name": "B3",
                    "midi": 59,
                    "time": 204.78263599999968,
                    "velocity": 0.31496062992125984,
                    "duration": 0.2173913333333246
                },
                {
                    "name": "C#4",
                    "midi": 61,
                    "time": 205.000027333333,
                    "velocity": 0.29133858267716534,
                    "duration": 0.2173913333333246
                },
                {
                    "name": "D4",
                    "midi": 62,
                    "time": 205.21741866666633,
                    "velocity": 0.29133858267716534,
                    "duration": 0.2173913333333246
                },
                {
                    "name": "E4",
                    "midi": 64,
                    "time": 205.43480999999966,
                    "velocity": 0.31496062992125984,
                    "duration": 0.6521740000000023
                },
                {
                    "name": "E3",
                    "midi": 52,
                    "time": 205.43480999999966,
                    "velocity": 0.3937007874015748,
                    "duration": 1.95652199999995
                },
                {
                    "name": "E4",
                    "midi": 64,
                    "time": 206.08698399999966,
                    "velocity": 0.31496062992125984,
                    "duration": 0.2173913333333246
                },
                {
                    "name": "D4",
                    "midi": 62,
                    "time": 206.30437533333298,
                    "velocity": 0.28346456692913385,
                    "duration": 0.2173913333333246
                },
                {
                    "name": "C#4",
                    "midi": 61,
                    "time": 206.5217666666663,
                    "velocity": 0.28346456692913385,
                    "duration": 0.2173913333333246
                },
                {
                    "name": "B3",
                    "midi": 59,
                    "time": 206.73915799999963,
                    "velocity": 0.31496062992125984,
                    "duration": 0.2173913333333246
                },
                {
                    "name": "A3",
                    "midi": 57,
                    "time": 206.95654933333296,
                    "velocity": 0.2755905511811024,
                    "duration": 0.2173913333333246
                },
                {
                    "name": "G3",
                    "midi": 55,
                    "time": 207.17394066666628,
                    "velocity": 0.2755905511811024,
                    "duration": 0.2173913333333246
                },
                {
                    "name": "C#4",
                    "midi": 61,
                    "time": 207.3913319999996,
                    "velocity": 0.31496062992125984,
                    "duration": 0.2173913333333246
                },
                {
                    "name": "F#3",
                    "midi": 54,
                    "time": 207.3913319999996,
                    "velocity": 0.3937007874015748,
                    "duration": 1.9565219999999215
                },
                {
                    "name": "D4",
                    "midi": 62,
                    "time": 207.60872333333293,
                    "velocity": 0.28346456692913385,
                    "duration": 0.2173913333333246
                },
                {
                    "name": "C#4",
                    "midi": 61,
                    "time": 207.82611466666626,
                    "velocity": 0.29133858267716534,
                    "duration": 0.2173913333333246
                },
                {
                    "name": "A3",
                    "midi": 57,
                    "time": 208.04350599999958,
                    "velocity": 0.33070866141732286,
                    "duration": 0.2173913333333246
                },
                {
                    "name": "B3",
                    "midi": 59,
                    "time": 208.2608973333329,
                    "velocity": 0.31496062992125984,
                    "duration": 0.2173913333333246
                },
                {
                    "name": "C4",
                    "midi": 60,
                    "time": 208.47828866666623,
                    "velocity": 0.3228346456692913,
                    "duration": 0.2173913333333246
                },
                {
                    "name": "D4",
                    "midi": 62,
                    "time": 208.69567999999956,
                    "velocity": 0.3464566929133858,
                    "duration": 0.2173913333333246
                },
                {
                    "name": "E4",
                    "midi": 64,
                    "time": 208.91307133333288,
                    "velocity": 0.3228346456692913,
                    "duration": 0.2173913333333246
                },
                {
                    "name": "F#4",
                    "midi": 66,
                    "time": 209.1304626666662,
                    "velocity": 0.3228346456692913,
                    "duration": 0.2173913333333246
                },
                {
                    "name": "G4",
                    "midi": 67,
                    "time": 209.34785399999953,
                    "velocity": 0.36220472440944884,
                    "duration": 0.8695653333333269
                },
                {
                    "name": "G3",
                    "midi": 55,
                    "time": 209.34785399999953,
                    "velocity": 0.44881889763779526,
                    "duration": 1.95652199999995
                },
                {
                    "name": "F#4",
                    "midi": 66,
                    "time": 210.21741933333286,
                    "velocity": 0.33858267716535434,
                    "duration": 0.2173913333333246
                },
                {
                    "name": "E4",
                    "midi": 64,
                    "time": 210.43481066666618,
                    "velocity": 0.3464566929133858,
                    "duration": 0.2173913333333246
                },
                {
                    "name": "D4",
                    "midi": 62,
                    "time": 210.6522019999995,
                    "velocity": 0.3937007874015748,
                    "duration": 0.2173913333333246
                },
                {
                    "name": "C4",
                    "midi": 60,
                    "time": 210.86959333333283,
                    "velocity": 0.3464566929133858,
                    "duration": 0.2173913333333246
                },
                {
                    "name": "B3",
                    "midi": 59,
                    "time": 211.08698466666615,
                    "velocity": 0.3464566929133858,
                    "duration": 0.2173913333333246
                },
                {
                    "name": "E4",
                    "midi": 64,
                    "time": 211.30437599999948,
                    "velocity": 0.4094488188976378,
                    "duration": 0.2173913333333246
                },
                {
                    "name": "A3",
                    "midi": 57,
                    "time": 211.30437599999948,
                    "velocity": 0.5118110236220472,
                    "duration": 1.3043479999999477
                },
                {
                    "name": "C#4",
                    "midi": 61,
                    "time": 211.5217673333328,
                    "velocity": 0.3700787401574803,
                    "duration": 0.2173913333333246
                },
                {
                    "name": "D4",
                    "midi": 62,
                    "time": 211.73915866666613,
                    "velocity": 0.3700787401574803,
                    "duration": 0.2173913333333246
                },
                {
                    "name": "E4",
                    "midi": 64,
                    "time": 211.95654999999945,
                    "velocity": 0.4251968503937008,
                    "duration": 0.2173913333333246
                },
                {
                    "name": "F#4",
                    "midi": 66,
                    "time": 212.17394133333278,
                    "velocity": 0.4015748031496063,
                    "duration": 0.2173913333333246
                },
                {
                    "name": "G4",
                    "midi": 67,
                    "time": 212.3913326666661,
                    "velocity": 0.4094488188976378,
                    "duration": 0.2173913333333246
                },
                {
                    "name": "B3",
                    "midi": 59,
                    "time": 212.60872399999943,
                    "velocity": 0.5511811023622047,
                    "duration": 0.6521739999999738
                },
                {
                    "name": "F#4",
                    "midi": 66,
                    "time": 212.60872399999943,
                    "velocity": 0.4409448818897638,
                    "duration": 0.2173913333333246
                },
                {
                    "name": "E4",
                    "midi": 64,
                    "time": 212.82611533333275,
                    "velocity": 0.4094488188976378,
                    "duration": 0.2173913333333246
                },
                {
                    "name": "D4",
                    "midi": 62,
                    "time": 213.04350666666608,
                    "velocity": 0.4094488188976378,
                    "duration": 0.2173913333333246
                },
                {
                    "name": "A#4",
                    "midi": 70,
                    "time": 213.2608979999994,
                    "velocity": 0.4566929133858268,
                    "duration": 0.2173913333333246
                },
                {
                    "name": "C#4",
                    "midi": 61,
                    "time": 213.2608979999994,
                    "velocity": 0.5669291338582677,
                    "duration": 1.3043479999999477
                },
                {
                    "name": "E4",
                    "midi": 64,
                    "time": 213.47828933333273,
                    "velocity": 0.4094488188976378,
                    "duration": 0.2173913333333246
                },
                {
                    "name": "F#4",
                    "midi": 66,
                    "time": 213.69568066666605,
                    "velocity": 0.41732283464566927,
                    "duration": 0.2173913333333246
                },
                {
                    "name": "G4",
                    "midi": 67,
                    "time": 213.91307199999937,
                    "velocity": 0.47244094488188976,
                    "duration": 0.2173913333333246
                },
                {
                    "name": "A4",
                    "midi": 69,
                    "time": 214.1304633333327,
                    "velocity": 0.44881889763779526,
                    "duration": 0.2173913333333246
                },
                {
                    "name": "A#4",
                    "midi": 70,
                    "time": 214.34785466666602,
                    "velocity": 0.4566929133858268,
                    "duration": 0.2173913333333246
                },
                {
                    "name": "D#4",
                    "midi": 63,
                    "time": 214.56524599999935,
                    "velocity": 0.6062992125984252,
                    "duration": 0.6521739999999738
                },
                {
                    "name": "A4",
                    "midi": 69,
                    "time": 214.56524599999935,
                    "velocity": 0.4881889763779528,
                    "duration": 0.2173913333333246
                },
                {
                    "name": "G4",
                    "midi": 67,
                    "time": 214.78263733333267,
                    "velocity": 0.44881889763779526,
                    "duration": 0.2173913333333246
                },
                {
                    "name": "F#4",
                    "midi": 66,
                    "time": 215.000028666666,
                    "velocity": 0.4566929133858268,
                    "duration": 0.2173913333333246
                },
                {
                    "name": "G4",
                    "midi": 67,
                    "time": 215.21741999999932,
                    "velocity": 0.4566929133858268,
                    "duration": 0.2173913333333246
                },
                {
                    "name": "E4",
                    "midi": 64,
                    "time": 215.21741999999932,
                    "velocity": 0.5669291338582677,
                    "duration": 0.6521739999999738
                },
                {
                    "name": "A#4",
                    "midi": 70,
                    "time": 215.43481133333265,
                    "velocity": 0.4094488188976378,
                    "duration": 0.2173913333333246
                },
                {
                    "name": "C#5",
                    "midi": 73,
                    "time": 215.65220266666597,
                    "velocity": 0.41732283464566927,
                    "duration": 0.2173913333333246
                },
                {
                    "name": "F#4",
                    "midi": 66,
                    "time": 215.8695939999993,
                    "velocity": 0.3937007874015748,
                    "duration": 0.6521739999999738
                },
                {
                    "name": "C5",
                    "midi": 72,
                    "time": 215.8695939999993,
                    "velocity": 0.4015748031496063,
                    "duration": 0.2173913333333246
                },
                {
                    "name": "B4",
                    "midi": 71,
                    "time": 216.08698533333262,
                    "velocity": 0.3779527559055118,
                    "duration": 0.2173913333333246
                },
                {
                    "name": "C5",
                    "midi": 72,
                    "time": 216.30437666666595,
                    "velocity": 0.3858267716535433,
                    "duration": 0.2173913333333246
                },
                {
                    "name": "G4",
                    "midi": 67,
                    "time": 216.52176799999927,
                    "velocity": 0.5118110236220472,
                    "duration": 0.4347826666666492
                },
                {
                    "name": "B4",
                    "midi": 71,
                    "time": 216.52176799999927,
                    "velocity": 0.4094488188976378,
                    "duration": 0.2173913333333246
                },
                {
                    "name": "A4",
                    "midi": 69,
                    "time": 216.7391593333326,
                    "velocity": 0.3779527559055118,
                    "duration": 0.2173913333333246
                },
                {
                    "name": "G3",
                    "midi": 55,
                    "time": 216.95655066666592,
                    "velocity": 0.4094488188976378,
                    "duration": 0.2173913333333246
                },
                {
                    "name": "G4",
                    "midi": 67,
                    "time": 216.95655066666592,
                    "velocity": 0.4094488188976378,
                    "duration": 0.2173913333333246
                },
                {
                    "name": "B3",
                    "midi": 59,
                    "time": 217.17394199999924,
                    "velocity": 0.3779527559055118,
                    "duration": 0.2173913333333246
                },
                {
                    "name": "G#3",
                    "midi": 56,
                    "time": 217.17394199999924,
                    "velocity": 0.4094488188976378,
                    "duration": 1.3043479999999477
                },
                {
                    "name": "C#4",
                    "midi": 61,
                    "time": 217.39133333333257,
                    "velocity": 0.3700787401574803,
                    "duration": 0.2173913333333246
                },
                {
                    "name": "D4",
                    "midi": 62,
                    "time": 217.6087246666659,
                    "velocity": 0.30708661417322836,
                    "duration": 0.2173913333333246
                },
                {
                    "name": "F4",
                    "midi": 65,
                    "time": 217.82611599999922,
                    "velocity": 0.3543307086614173,
                    "duration": 0.2173913333333246
                },
                {
                    "name": "E4",
                    "midi": 64,
                    "time": 218.04350733333254,
                    "velocity": 0.2992125984251969,
                    "duration": 0.2173913333333246
                },
                {
                    "name": "D4",
                    "midi": 62,
                    "time": 218.26089866666587,
                    "velocity": 0.29133858267716534,
                    "duration": 0.2173913333333246
                },
                {
                    "name": "C#4",
                    "midi": 61,
                    "time": 218.4782899999992,
                    "velocity": 0.33858267716535434,
                    "duration": 0.2173913333333246
                },
                {
                    "name": "G3",
                    "midi": 55,
                    "time": 218.4782899999992,
                    "velocity": 0.2992125984251969,
                    "duration": 0.6521739999999738
                },
                {
                    "name": "D#4",
                    "midi": 63,
                    "time": 218.69568133333252,
                    "velocity": 0.28346456692913385,
                    "duration": 0.2173913333333246
                },
                {
                    "name": "E4",
                    "midi": 64,
                    "time": 218.91307266666584,
                    "velocity": 0.2755905511811024,
                    "duration": 0.2173913333333246
                },
                {
                    "name": "F#4",
                    "midi": 66,
                    "time": 219.13046399999917,
                    "velocity": 0.30708661417322836,
                    "duration": 1.9565220000000068
                },
                {
                    "name": "A4",
                    "midi": 69,
                    "time": 219.13046399999917,
                    "velocity": 0.36220472440944884,
                    "duration": 1.9565220000000068
                },
                {
                    "name": "D#4",
                    "midi": 63,
                    "time": 221.08698599999917,
                    "velocity": 0.25196850393700787,
                    "duration": 1.2989132166666764
                },
                {
                    "name": "F#4",
                    "midi": 66,
                    "time": 221.08698599999917,
                    "velocity": 0.2992125984251969,
                    "duration": 1.2989132166666764
                },
                {
                    "name": "B3",
                    "midi": 59,
                    "time": 222.39133399999918,
                    "velocity": 0.2047244094488189,
                    "duration": 0.6521740000000023
                },
                {
                    "name": "D#4",
                    "midi": 63,
                    "time": 222.39133399999918,
                    "velocity": 0.2047244094488189,
                    "duration": 0.6521740000000023
                },
                {
                    "name": "F#4",
                    "midi": 66,
                    "time": 222.39133399999918,
                    "velocity": 0.2440944881889764,
                    "duration": 0.6521740000000023
                },
                {
                    "name": "E4",
                    "midi": 64,
                    "time": 223.04350799999918,
                    "velocity": 0.3228346456692913,
                    "duration": 0.9782610000000034
                },
                {
                    "name": "G4",
                    "midi": 67,
                    "time": 223.04350799999918,
                    "velocity": 0.3228346456692913,
                    "duration": 0.9782610000000034
                },
                {
                    "name": "G3",
                    "midi": 55,
                    "time": 224.02176899999918,
                    "velocity": 0.23622047244094488,
                    "duration": 0.3260870000000011
                },
                {
                    "name": "B3",
                    "midi": 59,
                    "time": 224.02176899999918,
                    "velocity": 0.28346456692913385,
                    "duration": 0.3260870000000011
                },
                {
                    "name": "G3",
                    "midi": 55,
                    "time": 224.34785599999918,
                    "velocity": 0.33858267716535434,
                    "duration": 0.6521740000000023
                },
                {
                    "name": "A4",
                    "midi": 69,
                    "time": 224.34785599999918,
                    "velocity": 0.33858267716535434,
                    "duration": 0.3260870000000011
                },
                {
                    "name": "G4",
                    "midi": 67,
                    "time": 224.67394299999918,
                    "velocity": 0.29133858267716534,
                    "duration": 0.3260870000000011
                },
                {
                    "name": "F#4",
                    "midi": 66,
                    "time": 225.00002999999919,
                    "velocity": 0.36220472440944884,
                    "duration": 0.3260870000000011
                },
                {
                    "name": "A3",
                    "midi": 57,
                    "time": 225.00002999999919,
                    "velocity": 0.30708661417322836,
                    "duration": 1.3043480000000045
                },
                {
                    "name": "G#4",
                    "midi": 68,
                    "time": 225.3261169999992,
                    "velocity": 0.30708661417322836,
                    "duration": 0.3260870000000011
                },
                {
                    "name": "B4",
                    "midi": 71,
                    "time": 225.6522039999992,
                    "velocity": 0.3464566929133858,
                    "duration": 0.3260870000000011
                },
                {
                    "name": "A4",
                    "midi": 69,
                    "time": 225.9782909999992,
                    "velocity": 0.31496062992125984,
                    "duration": 0.3260870000000011
                },
                {
                    "name": "A1",
                    "midi": 33,
                    "time": 226.3043779999992,
                    "velocity": 0.2992125984251969,
                    "duration": 0.3260870000000011
                },
                {
                    "name": "A2",
                    "midi": 45,
                    "time": 226.3043779999992,
                    "velocity": 0.3543307086614173,
                    "duration": 0.3260870000000011
                },
                {
                    "name": "G1",
                    "midi": 31,
                    "time": 226.6304649999992,
                    "velocity": 0.2992125984251969,
                    "duration": 0.16304349999998635
                },
                {
                    "name": "G2",
                    "midi": 43,
                    "time": 226.6304649999992,
                    "velocity": 0.3543307086614173,
                    "duration": 0.16304349999998635
                },
                {
                    "name": "F#1",
                    "midi": 30,
                    "time": 226.79350849999918,
                    "velocity": 0.30708661417322836,
                    "duration": 0.16304349999998635
                },
                {
                    "name": "F#2",
                    "midi": 42,
                    "time": 226.79350849999918,
                    "velocity": 0.36220472440944884,
                    "duration": 0.16304349999998635
                },
                {
                    "name": "F#1",
                    "midi": 30,
                    "time": 226.95655199999916,
                    "velocity": 0.4094488188976378,
                    "duration": 0.16304349999998635
                },
                {
                    "name": "A1",
                    "midi": 33,
                    "time": 227.11959549999915,
                    "velocity": 0.3464566929133858,
                    "duration": 0.16304349999998635
                },
                {
                    "name": "C2",
                    "midi": 36,
                    "time": 227.28263899999914,
                    "velocity": 0.33858267716535434,
                    "duration": 0.16304349999998635
                },
                {
                    "name": "D#2",
                    "midi": 39,
                    "time": 227.44568249999912,
                    "velocity": 0.33070866141732286,
                    "duration": 0.16304349999998635
                },
                {
                    "name": "F#2",
                    "midi": 42,
                    "time": 227.6087259999991,
                    "velocity": 0.3228346456692913,
                    "duration": 0.16304349999998635
                },
                {
                    "name": "A2",
                    "midi": 45,
                    "time": 227.7717694999991,
                    "velocity": 0.31496062992125984,
                    "duration": 0.16304349999998635
                },
                {
                    "name": "C3",
                    "midi": 48,
                    "time": 227.93481299999908,
                    "velocity": 0.30708661417322836,
                    "duration": 0.16304349999998635
                },
                {
                    "name": "D#3",
                    "midi": 51,
                    "time": 228.09785649999907,
                    "velocity": 0.2992125984251969,
                    "duration": 0.16304349999998635
                },
                {
                    "name": "F#3",
                    "midi": 54,
                    "time": 228.26089999999905,
                    "velocity": 0.28346456692913385,
                    "duration": 0.16304349999998635
                },
                {
                    "name": "C4",
                    "midi": 60,
                    "time": 228.42394349999904,
                    "velocity": 0.2125984251968504,
                    "duration": 0.16304349999998635
                },
                {
                    "name": "G3",
                    "midi": 55,
                    "time": 228.58698699999903,
                    "velocity": 0.2125984251968504,
                    "duration": 0.16304349999998635
                },
                {
                    "name": "B3",
                    "midi": 59,
                    "time": 228.750030499999,
                    "velocity": 0.2125984251968504,
                    "duration": 0.16304349999998635
                },
                {
                    "name": "G2",
                    "midi": 43,
                    "time": 228.913073999999,
                    "velocity": 0.1732283464566929,
                    "duration": 1.3043480000000045
                },
                {
                    "name": "G3",
                    "midi": 55,
                    "time": 228.913073999999,
                    "velocity": 0.2047244094488189,
                    "duration": 1.3043480000000045
                },
                {
                    "name": "A1",
                    "midi": 33,
                    "time": 230.869595999999,
                    "velocity": 0.30708661417322836,
                    "duration": 0.2173913333333246
                },
                {
                    "name": "D2",
                    "midi": 38,
                    "time": 231.08698733333233,
                    "velocity": 0.2677165354330709,
                    "duration": 0.2173913333333246
                },
                {
                    "name": "F#2",
                    "midi": 42,
                    "time": 231.30437866666566,
                    "velocity": 0.2677165354330709,
                    "duration": 0.2173913333333246
                },
                {
                    "name": "A2",
                    "midi": 45,
                    "time": 231.52176999999898,
                    "velocity": 0.30708661417322836,
                    "duration": 0.9782609999999181
                },
                {
                    "name": "D3",
                    "midi": 50,
                    "time": 231.68481349999897,
                    "velocity": 0.25196850393700787,
                    "duration": 0.16304349999998635
                },
                {
                    "name": "F#3",
                    "midi": 54,
                    "time": 231.84785699999895,
                    "velocity": 0.25196850393700787,
                    "duration": 0.16304349999998635
                },
                {
                    "name": "A3",
                    "midi": 57,
                    "time": 232.01090049999894,
                    "velocity": 0.25196850393700787,
                    "duration": 0.16304349999998635
                },
                {
                    "name": "D3",
                    "midi": 50,
                    "time": 232.17394399999893,
                    "velocity": 0.2992125984251969,
                    "duration": 0.16304349999998635
                },
                {
                    "name": "F#3",
                    "midi": 54,
                    "time": 232.3369874999989,
                    "velocity": 0.2677165354330709,
                    "duration": 0.16304349999998635
                },
                {
                    "name": "B2",
                    "midi": 47,
                    "time": 232.5000309999989,
                    "velocity": 0.2204724409448819,
                    "duration": 0.3260869999999727
                },
                {
                    "name": "D3",
                    "midi": 50,
                    "time": 232.5000309999989,
                    "velocity": 0.2677165354330709,
                    "duration": 0.16304349999998635
                },
                {
                    "name": "F3",
                    "midi": 53,
                    "time": 232.66307449999888,
                    "velocity": 0.2677165354330709,
                    "duration": 0.16304349999998635
                },
                {
                    "name": "C#3",
                    "midi": 49,
                    "time": 232.82611799999887,
                    "velocity": 0.25196850393700787,
                    "duration": 0.6467392166666741
                },
                {
                    "name": "E3",
                    "midi": 52,
                    "time": 232.82611799999887,
                    "velocity": 0.2992125984251969,
                    "duration": 0.6467392166666741
                },
                {
                    "name": "A#2",
                    "midi": 46,
                    "time": 233.47829199999887,
                    "velocity": 0.1968503937007874,
                    "duration": 0.9782610000000034
                },
                {
                    "name": "C#3",
                    "midi": 49,
                    "time": 233.47829199999887,
                    "velocity": 0.1968503937007874,
                    "duration": 0.9782610000000034
                },
                {
                    "name": "E3",
                    "midi": 52,
                    "time": 233.47829199999887,
                    "velocity": 0.1968503937007874,
                    "duration": 0.9782610000000034
                },
                {
                    "name": "G3",
                    "midi": 55,
                    "time": 233.47829199999887,
                    "velocity": 0.23622047244094488,
                    "duration": 0.9782610000000034
                },
                {
                    "name": "B2",
                    "midi": 47,
                    "time": 234.45655299999888,
                    "velocity": 0.1732283464566929,
                    "duration": 0.3260870000000011
                },
                {
                    "name": "D#3",
                    "midi": 51,
                    "time": 234.45655299999888,
                    "velocity": 0.1732283464566929,
                    "duration": 0.3260870000000011
                },
                {
                    "name": "F#3",
                    "midi": 54,
                    "time": 234.45655299999888,
                    "velocity": 0.2125984251968504,
                    "duration": 0.3260870000000011
                },
                {
                    "name": "B2",
                    "midi": 47,
                    "time": 234.78263999999888,
                    "velocity": 0.1968503937007874,
                    "duration": 1.2907610416666557
                },
                {
                    "name": "D#3",
                    "midi": 51,
                    "time": 234.78263999999888,
                    "velocity": 0.1968503937007874,
                    "duration": 1.2907610416666557
                },
                {
                    "name": "F#3",
                    "midi": 54,
                    "time": 234.78263999999888,
                    "velocity": 0.23622047244094488,
                    "duration": 1.2907610416666557
                },
                {
                    "name": "B2",
                    "midi": 47,
                    "time": 236.08698799999885,
                    "velocity": 0.1732283464566929,
                    "duration": 0.6467392166666741
                },
                {
                    "name": "D#3",
                    "midi": 51,
                    "time": 236.08698799999885,
                    "velocity": 0.1732283464566929,
                    "duration": 0.6467392166666741
                },
                {
                    "name": "F#3",
                    "midi": 54,
                    "time": 236.08698799999885,
                    "velocity": 0.1732283464566929,
                    "duration": 0.6467392166666741
                },
                {
                    "name": "B3",
                    "midi": 59,
                    "time": 236.08698799999885,
                    "velocity": 0.2125984251968504,
                    "duration": 0.6467392166666741
                },
                {
                    "name": "B2",
                    "midi": 47,
                    "time": 236.73916199999886,
                    "velocity": 0.1968503937007874,
                    "duration": 1.2907610416666557
                },
                {
                    "name": "D#3",
                    "midi": 51,
                    "time": 236.73916199999886,
                    "velocity": 0.1968503937007874,
                    "duration": 1.2907610416666557
                },
                {
                    "name": "F#3",
                    "midi": 54,
                    "time": 236.73916199999886,
                    "velocity": 0.1968503937007874,
                    "duration": 1.2907610416666557
                },
                {
                    "name": "B3",
                    "midi": 59,
                    "time": 236.73916199999886,
                    "velocity": 0.23622047244094488,
                    "duration": 1.2907610416666557
                },
                {
                    "name": "B2",
                    "midi": 47,
                    "time": 238.04350999999883,
                    "velocity": 0.1732283464566929,
                    "duration": 0.6467392166666741
                },
                {
                    "name": "D#3",
                    "midi": 51,
                    "time": 238.04350999999883,
                    "velocity": 0.1732283464566929,
                    "duration": 0.6467392166666741
                },
                {
                    "name": "F#3",
                    "midi": 54,
                    "time": 238.04350999999883,
                    "velocity": 0.1732283464566929,
                    "duration": 0.6467392166666741
                },
                {
                    "name": "B3",
                    "midi": 59,
                    "time": 238.04350999999883,
                    "velocity": 0.2125984251968504,
                    "duration": 0.6467392166666741
                },
                {
                    "name": "B1",
                    "midi": 35,
                    "time": 238.69568399999883,
                    "velocity": 0.1968503937007874,
                    "duration": 0.6467392166666741
                },
                {
                    "name": "B2",
                    "midi": 47,
                    "time": 238.69568399999883,
                    "velocity": 0.23622047244094488,
                    "duration": 0.6467392166666741
                },
                {
                    "name": "F#1",
                    "midi": 30,
                    "time": 239.34785799999884,
                    "velocity": 0.1968503937007874,
                    "duration": 1.2907610416666557
                },
                {
                    "name": "F#2",
                    "midi": 42,
                    "time": 239.34785799999884,
                    "velocity": 0.23622047244094488,
                    "duration": 1.2907610416666557
                },
                {
                    "name": "G1",
                    "midi": 31,
                    "time": 240.6522059999988,
                    "velocity": 0.1968503937007874,
                    "duration": 0.6467392166666741
                },
                {
                    "name": "G2",
                    "midi": 43,
                    "time": 240.6522059999988,
                    "velocity": 0.23622047244094488,
                    "duration": 0.6467392166666741
                },
                {
                    "name": "A1",
                    "midi": 33,
                    "time": 241.30437999999882,
                    "velocity": 0.16535433070866143,
                    "duration": 1.2907610416666557
                },
                {
                    "name": "A2",
                    "midi": 45,
                    "time": 241.30437999999882,
                    "velocity": 0.1968503937007874,
                    "duration": 1.2907610416666557
                },
                {
                    "name": "D1",
                    "midi": 26,
                    "time": 242.6087279999988,
                    "velocity": 0.15748031496062992,
                    "duration": 1.3043480000000045
                },
                {
                    "name": "D2",
                    "midi": 38,
                    "time": 242.6087279999988,
                    "velocity": 0.1889763779527559,
                    "duration": 1.3043480000000045
                },
                {
                    "name": "F#3",
                    "midi": 54,
                    "time": 243.9130759999988,
                    "velocity": 0.1732283464566929,
                    "duration": 0.6521740000000023
                },
                {
                    "name": "A2",
                    "midi": 45,
                    "time": 244.5652499999988,
                    "velocity": 0.1889763779527559,
                    "duration": 1.3043480000000045
                },
                {
                    "name": "A3",
                    "midi": 57,
                    "time": 245.8695979999988,
                    "velocity": 0.16535433070866143,
                    "duration": 0.6521740000000023
                },
                {
                    "name": "F#3",
                    "midi": 54,
                    "time": 246.5217719999988,
                    "velocity": 0.1889763779527559,
                    "duration": 1.3043480000000045
                },
                {
                    "name": "A1",
                    "midi": 33,
                    "time": 247.8261199999988,
                    "velocity": 0.2204724409448819,
                    "duration": 0.6521740000000023
                },
                {
                    "name": "A2",
                    "midi": 45,
                    "time": 247.8261199999988,
                    "velocity": 0.2677165354330709,
                    "duration": 0.6521740000000023
                },
                {
                    "name": "B2",
                    "midi": 47,
                    "time": 248.4782939999988,
                    "velocity": 0.31496062992125984,
                    "duration": 1.3043480000000045
                },
                {
                    "name": "B1",
                    "midi": 35,
                    "time": 248.4782939999988,
                    "velocity": 0.2125984251968504,
                    "duration": 1.3043480000000045
                },
                {
                    "name": "A2",
                    "midi": 45,
                    "time": 248.4782939999988,
                    "velocity": 0.2677165354330709,
                    "duration": 1.3043480000000045
                },
                {
                    "name": "C#2",
                    "midi": 37,
                    "time": 249.78264199999882,
                    "velocity": 0.2283464566929134,
                    "duration": 0.6467392166666741
                },
                {
                    "name": "C#3",
                    "midi": 49,
                    "time": 249.78264199999882,
                    "velocity": 0.2283464566929134,
                    "duration": 0.6467392166666741
                },
                {
                    "name": "A2",
                    "midi": 45,
                    "time": 249.78264199999882,
                    "velocity": 0.2283464566929134,
                    "duration": 0.6467392166666741
                },
                {
                    "name": "A2",
                    "midi": 45,
                    "time": 250.43481599999882,
                    "velocity": 0.23622047244094488,
                    "duration": 1.3043480000000045
                },
                {
                    "name": "D2",
                    "midi": 38,
                    "time": 250.43481599999882,
                    "velocity": 0.23622047244094488,
                    "duration": 1.3043480000000045
                },
                {
                    "name": "D3",
                    "midi": 50,
                    "time": 250.43481599999882,
                    "velocity": 0.28346456692913385,
                    "duration": 1.3043480000000045
                },
                {
                    "name": "F#4",
                    "midi": 66,
                    "time": 251.73916399999882,
                    "velocity": 0.25984251968503935,
                    "duration": 0.6521740000000023
                },
                {
                    "name": "A3",
                    "midi": 57,
                    "time": 252.39133799999883,
                    "velocity": 0.25984251968503935,
                    "duration": 1.3043480000000045
                },
                {
                    "name": "F#2",
                    "midi": 42,
                    "time": 253.69568599999883,
                    "velocity": 0.2047244094488189,
                    "duration": 0.6521740000000023
                },
                {
                    "name": "A2",
                    "midi": 45,
                    "time": 253.69568599999883,
                    "velocity": 0.2047244094488189,
                    "duration": 0.6521740000000023
                },
                {
                    "name": "F#3",
                    "midi": 54,
                    "time": 253.69568599999883,
                    "velocity": 0.2440944881889764,
                    "duration": 0.6521740000000023
                },
                {
                    "name": "A2",
                    "midi": 45,
                    "time": 254.34785999999883,
                    "velocity": 0.2204724409448819,
                    "duration": 1.3043480000000045
                },
                {
                    "name": "A3",
                    "midi": 57,
                    "time": 254.34785999999883,
                    "velocity": 0.25984251968503935,
                    "duration": 1.3043480000000045
                },
                {
                    "name": "F#2",
                    "midi": 42,
                    "time": 255.65220799999884,
                    "velocity": 0.2204724409448819,
                    "duration": 1.3043480000000045
                },
                {
                    "name": "A2",
                    "midi": 45,
                    "time": 255.65220799999884,
                    "velocity": 0.2204724409448819,
                    "duration": 1.3043480000000045
                },
                {
                    "name": "F#3",
                    "midi": 54,
                    "time": 255.65220799999884,
                    "velocity": 0.25984251968503935,
                    "duration": 1.3043480000000045
                },
                {
                    "name": "E2",
                    "midi": 40,
                    "time": 256.95655599999884,
                    "velocity": 0.2204724409448819,
                    "duration": 0.6521740000000023
                },
                {
                    "name": "A2",
                    "midi": 45,
                    "time": 256.95655599999884,
                    "velocity": 0.2204724409448819,
                    "duration": 0.6521740000000023
                },
                {
                    "name": "E3",
                    "midi": 52,
                    "time": 256.95655599999884,
                    "velocity": 0.2677165354330709,
                    "duration": 0.6521740000000023
                },
                {
                    "name": "A1",
                    "midi": 33,
                    "time": 257.60872999999884,
                    "velocity": 0.2283464566929134,
                    "duration": 0.6521740000000023
                },
                {
                    "name": "A2",
                    "midi": 45,
                    "time": 257.60872999999884,
                    "velocity": 0.2677165354330709,
                    "duration": 0.6521740000000023
                },
                {
                    "name": "D2",
                    "midi": 38,
                    "time": 258.26090399999885,
                    "velocity": 0.23622047244094488,
                    "duration": 1.9565220000000068
                },
                {
                    "name": "A2",
                    "midi": 45,
                    "time": 258.26090399999885,
                    "velocity": 0.28346456692913385,
                    "duration": 1.9565220000000068
                },
                {
                    "name": "A1",
                    "midi": 33,
                    "time": 260.21742599999885,
                    "velocity": 0.2440944881889764,
                    "duration": 1.9375002583333298
                },
                {
                    "name": "A2",
                    "midi": 45,
                    "time": 260.21742599999885,
                    "velocity": 0.29133858267716534,
                    "duration": 1.9375002583333298
                },
                {
                    "name": "A1",
                    "midi": 33,
                    "time": 262.17394799999886,
                    "velocity": 0.25196850393700787,
                    "duration": 1.3043480000000045
                },
                {
                    "name": "A2",
                    "midi": 45,
                    "time": 262.17394799999886,
                    "velocity": 0.2992125984251969,
                    "duration": 1.3043480000000045
                },
                {
                    "name": "G2",
                    "midi": 43,
                    "time": 263.47829599999886,
                    "velocity": 0.33858267716535434,
                    "duration": 0.3260869999999727
                },
                {
                    "name": "F#2",
                    "midi": 42,
                    "time": 263.80438299999884,
                    "velocity": 0.3543307086614173,
                    "duration": 0.3260869999999727
                },
                {
                    "name": "E2",
                    "midi": 40,
                    "time": 264.1304699999988,
                    "velocity": 0.41732283464566927,
                    "duration": 0.3260869999999727
                },
                {
                    "name": "D2",
                    "midi": 38,
                    "time": 264.4565569999988,
                    "velocity": 0.3779527559055118,
                    "duration": 0.3260869999999727
                },
                {
                    "name": "C#2",
                    "midi": 37,
                    "time": 264.78264399999875,
                    "velocity": 0.5039370078740157,
                    "duration": 0.21739133333335303
                },
                {
                    "name": "E2",
                    "midi": 40,
                    "time": 265.0000353333321,
                    "velocity": 0.41732283464566927,
                    "duration": 0.21739133333335303
                },
                {
                    "name": "A2",
                    "midi": 45,
                    "time": 265.21742666666546,
                    "velocity": 0.4330708661417323,
                    "duration": 0.21739133333335303
                },
                {
                    "name": "C#3",
                    "midi": 49,
                    "time": 265.4348179999988,
                    "velocity": 0.5118110236220472,
                    "duration": 0.21739133333335303
                },
                {
                    "name": "E3",
                    "midi": 52,
                    "time": 265.65220933333217,
                    "velocity": 0.4645669291338583,
                    "duration": 0.21739133333335303
                },
                {
                    "name": "A3",
                    "midi": 57,
                    "time": 265.8696006666655,
                    "velocity": 0.4645669291338583,
                    "duration": 0.21739133333335303
                },
                {
                    "name": "F#2",
                    "midi": 42,
                    "time": 266.0869919999989,
                    "velocity": 0.28346456692913385,
                    "duration": 1.9565220000000068
                },
                {
                    "name": "F#3",
                    "midi": 54,
                    "time": 266.0869919999989,
                    "velocity": 0.33858267716535434,
                    "duration": 1.9565220000000068
                },
                {
                    "name": "A2",
                    "midi": 45,
                    "time": 268.0435139999989,
                    "velocity": 0.28346456692913385,
                    "duration": 1.9565220000000068
                },
                {
                    "name": "A3",
                    "midi": 57,
                    "time": 268.0435139999989,
                    "velocity": 0.33858267716535434,
                    "duration": 1.9565220000000068
                },
                {
                    "name": "D3",
                    "midi": 50,
                    "time": 270.0000359999989,
                    "velocity": 0.28346456692913385,
                    "duration": 1.9565220000000068
                },
                {
                    "name": "D4",
                    "midi": 62,
                    "time": 270.0000359999989,
                    "velocity": 0.33858267716535434,
                    "duration": 1.9565220000000068
                },
                {
                    "name": "B2",
                    "midi": 47,
                    "time": 271.9565579999989,
                    "velocity": 0.28346456692913385,
                    "duration": 1.3043480000000045
                },
                {
                    "name": "B3",
                    "midi": 59,
                    "time": 271.9565579999989,
                    "velocity": 0.33858267716535434,
                    "duration": 1.3043480000000045
                },
                {
                    "name": "G2",
                    "midi": 43,
                    "time": 273.2609059999989,
                    "velocity": 0.23622047244094488,
                    "duration": 0.6521740000000023
                },
                {
                    "name": "G3",
                    "midi": 55,
                    "time": 273.2609059999989,
                    "velocity": 0.28346456692913385,
                    "duration": 0.6521740000000023
                },
                {
                    "name": "E2",
                    "midi": 40,
                    "time": 273.9130799999989,
                    "velocity": 0.30708661417322836,
                    "duration": 1.3043480000000045
                },
                {
                    "name": "E3",
                    "midi": 52,
                    "time": 273.9130799999989,
                    "velocity": 0.3700787401574803,
                    "duration": 1.3043480000000045
                },
                {
                    "name": "E3",
                    "midi": 52,
                    "time": 275.2174279999989,
                    "velocity": 0.28346456692913385,
                    "duration": 0.6467392166666741
                },
                {
                    "name": "G3",
                    "midi": 55,
                    "time": 275.2174279999989,
                    "velocity": 0.33858267716535434,
                    "duration": 0.6467392166666741
                },
                {
                    "name": "C#3",
                    "midi": 49,
                    "time": 275.8696019999989,
                    "velocity": 0.28346456692913385,
                    "duration": 1.3043480000000045
                },
                {
                    "name": "E3",
                    "midi": 52,
                    "time": 275.8696019999989,
                    "velocity": 0.33858267716535434,
                    "duration": 1.3043480000000045
                },
                {
                    "name": "B2",
                    "midi": 47,
                    "time": 277.1739499999989,
                    "velocity": 0.29133858267716534,
                    "duration": 0.3260869999999727
                },
                {
                    "name": "D3",
                    "midi": 50,
                    "time": 277.1739499999989,
                    "velocity": 0.3464566929133858,
                    "duration": 0.3260869999999727
                },
                {
                    "name": "A#2",
                    "midi": 46,
                    "time": 277.5000369999989,
                    "velocity": 0.2992125984251969,
                    "duration": 0.32336960833333706
                },
                {
                    "name": "C#3",
                    "midi": 49,
                    "time": 277.5000369999989,
                    "velocity": 0.3543307086614173,
                    "duration": 0.32336960833333706
                },
                {
                    "name": "A#2",
                    "midi": 46,
                    "time": 277.8261239999989,
                    "velocity": 0.3700787401574803,
                    "duration": 0.3260869999999727
                },
                {
                    "name": "C#3",
                    "midi": 49,
                    "time": 278.1522109999989,
                    "velocity": 0.3464566929133858,
                    "duration": 0.3260869999999727
                },
                {
                    "name": "F#3",
                    "midi": 54,
                    "time": 278.47829799999886,
                    "velocity": 0.3700787401574803,
                    "duration": 0.3260869999999727
                },
                {
                    "name": "A#3",
                    "midi": 58,
                    "time": 278.80438499999883,
                    "velocity": 0.3858267716535433,
                    "duration": 0.3260869999999727
                },
                {
                    "name": "C#4",
                    "midi": 61,
                    "time": 279.1304719999988,
                    "velocity": 0.4015748031496063,
                    "duration": 0.3260869999999727
                },
                {
                    "name": "F#4",
                    "midi": 66,
                    "time": 279.4565589999988,
                    "velocity": 0.41732283464566927,
                    "duration": 0.3260869999999727
                },
                {
                    "name": "G#4",
                    "midi": 68,
                    "time": 279.78264599999875,
                    "velocity": 0.4409448818897638,
                    "duration": 1.9565220000000068
                },
                {
                    "name": "F#4",
                    "midi": 66,
                    "time": 279.78264599999875,
                    "velocity": 0.3700787401574803,
                    "duration": 1.9565220000000068
                },
                {
                    "name": "D#4",
                    "midi": 63,
                    "time": 279.78264599999875,
                    "velocity": 0.3700787401574803,
                    "duration": 1.9565220000000068
                },
                {
                    "name": "C4",
                    "midi": 60,
                    "time": 279.78264599999875,
                    "velocity": 0.3700787401574803,
                    "duration": 1.9565220000000068
                },
                {
                    "name": "G#2",
                    "midi": 44,
                    "time": 281.73916799999876,
                    "velocity": 0.33070866141732286,
                    "duration": 1.3043480000000045
                },
                {
                    "name": "G#3",
                    "midi": 56,
                    "time": 281.73916799999876,
                    "velocity": 0.3937007874015748,
                    "duration": 1.3043480000000045
                },
                {
                    "name": "F2",
                    "midi": 41,
                    "time": 283.04351599999876,
                    "velocity": 0.2992125984251969,
                    "duration": 0.6467392166666741
                },
                {
                    "name": "F3",
                    "midi": 53,
                    "time": 283.04351599999876,
                    "velocity": 0.3543307086614173,
                    "duration": 0.6467392166666741
                },
                {
                    "name": "F2",
                    "midi": 41,
                    "time": 283.69568999999876,
                    "velocity": 0.33070866141732286,
                    "duration": 0.6521740000000023
                },
                {
                    "name": "F3",
                    "midi": 53,
                    "time": 283.69568999999876,
                    "velocity": 0.3937007874015748,
                    "duration": 0.6521740000000023
                },
                {
                    "name": "C#2",
                    "midi": 37,
                    "time": 284.34786399999876,
                    "velocity": 0.2992125984251969,
                    "duration": 0.6521740000000023
                },
                {
                    "name": "C#3",
                    "midi": 49,
                    "time": 284.34786399999876,
                    "velocity": 0.3543307086614173,
                    "duration": 0.6521740000000023
                },
                {
                    "name": "D#2",
                    "midi": 39,
                    "time": 285.00003799999877,
                    "velocity": 0.2992125984251969,
                    "duration": 0.6521740000000023
                },
                {
                    "name": "D#3",
                    "midi": 51,
                    "time": 285.00003799999877,
                    "velocity": 0.3543307086614173,
                    "duration": 0.6521740000000023
                },
                {
                    "name": "F2",
                    "midi": 41,
                    "time": 285.65221199999877,
                    "velocity": 0.33070866141732286,
                    "duration": 1.3043480000000045
                },
                {
                    "name": "F3",
                    "midi": 53,
                    "time": 285.65221199999877,
                    "velocity": 0.3937007874015748,
                    "duration": 1.3043480000000045
                },
                {
                    "name": "F3",
                    "midi": 53,
                    "time": 286.9565599999988,
                    "velocity": 0.2992125984251969,
                    "duration": 0.6521740000000023
                },
                {
                    "name": "G#3",
                    "midi": 56,
                    "time": 286.9565599999988,
                    "velocity": 0.3543307086614173,
                    "duration": 0.6521740000000023
                },
                {
                    "name": "F#3",
                    "midi": 54,
                    "time": 287.6087339999988,
                    "velocity": 0.33070866141732286,
                    "duration": 1.3043480000000045
                },
                {
                    "name": "A3",
                    "midi": 57,
                    "time": 287.6087339999988,
                    "velocity": 0.3937007874015748,
                    "duration": 1.3043480000000045
                },
                {
                    "name": "C#4",
                    "midi": 61,
                    "time": 288.9130819999988,
                    "velocity": 0.3779527559055118,
                    "duration": 0.6521740000000023
                },
                {
                    "name": "A3",
                    "midi": 57,
                    "time": 288.9130819999988,
                    "velocity": 0.31496062992125984,
                    "duration": 0.6521740000000023
                },
                {
                    "name": "C#4",
                    "midi": 61,
                    "time": 289.5652559999988,
                    "velocity": 0.3937007874015748,
                    "duration": 1.3043480000000045
                },
                {
                    "name": "A3",
                    "midi": 57,
                    "time": 289.5652559999988,
                    "velocity": 0.33070866141732286,
                    "duration": 1.3043480000000045
                },
                {
                    "name": "C4",
                    "midi": 60,
                    "time": 290.8696039999988,
                    "velocity": 0.36220472440944884,
                    "duration": 0.6467392166666741
                },
                {
                    "name": "G#3",
                    "midi": 56,
                    "time": 290.8696039999988,
                    "velocity": 0.30708661417322836,
                    "duration": 0.6467392166666741
                },
                {
                    "name": "G#3",
                    "midi": 56,
                    "time": 291.5217779999988,
                    "velocity": 0.33070866141732286,
                    "duration": 0.6521740000000023
                },
                {
                    "name": "C4",
                    "midi": 60,
                    "time": 291.5217779999988,
                    "velocity": 0.3937007874015748,
                    "duration": 0.6521740000000023
                },
                {
                    "name": "D#4",
                    "midi": 63,
                    "time": 292.1739519999988,
                    "velocity": 0.36220472440944884,
                    "duration": 0.6521740000000023
                },
                {
                    "name": "C4",
                    "midi": 60,
                    "time": 292.1739519999988,
                    "velocity": 0.30708661417322836,
                    "duration": 0.6521740000000023
                },
                {
                    "name": "F4",
                    "midi": 65,
                    "time": 292.8261259999988,
                    "velocity": 0.36220472440944884,
                    "duration": 0.6521740000000023
                },
                {
                    "name": "C#4",
                    "midi": 61,
                    "time": 292.8261259999988,
                    "velocity": 0.30708661417322836,
                    "duration": 0.6521740000000023
                },
                {
                    "name": "D4",
                    "midi": 62,
                    "time": 293.4782999999988,
                    "velocity": 0.3937007874015748,
                    "duration": 0.3260869999999727
                },
                {
                    "name": "F4",
                    "midi": 65,
                    "time": 293.80438699999877,
                    "velocity": 0.3543307086614173,
                    "duration": 0.3260869999999727
                },
                {
                    "name": "G#4",
                    "midi": 68,
                    "time": 294.13047399999874,
                    "velocity": 0.3779527559055118,
                    "duration": 0.3260869999999727
                },
                {
                    "name": "D5",
                    "midi": 74,
                    "time": 294.4565609999987,
                    "velocity": 0.4015748031496063,
                    "duration": 0.3260869999999727
                },
                {
                    "name": "F5",
                    "midi": 77,
                    "time": 294.7826479999987,
                    "velocity": 0.4094488188976378,
                    "duration": 0.298913083333332
                },
                {
                    "name": "G#5",
                    "midi": 80,
                    "time": 295.10873499999866,
                    "velocity": 0.3858267716535433,
                    "duration": 0.3260869999999727
                },
                {
                    "name": "D5",
                    "midi": 74,
                    "time": 295.43482199999863,
                    "velocity": 0.36220472440944884,
                    "duration": 1.3043480000000045
                },
                {
                    "name": "F5",
                    "midi": 77,
                    "time": 295.43482199999863,
                    "velocity": 0.36220472440944884,
                    "duration": 1.3043480000000045
                },
                {
                    "name": "G#5",
                    "midi": 80,
                    "time": 295.43482199999863,
                    "velocity": 0.36220472440944884,
                    "duration": 1.3043480000000045
                },
                {
                    "name": "A#5",
                    "midi": 82,
                    "time": 295.43482199999863,
                    "velocity": 0.4330708661417323,
                    "duration": 1.3043480000000045
                },
                {
                    "name": "G2",
                    "midi": 43,
                    "time": 297.39134399999864,
                    "velocity": 0.4881889763779528,
                    "duration": 0.3260869999999727
                },
                {
                    "name": "A#2",
                    "midi": 46,
                    "time": 297.7174309999986,
                    "velocity": 0.3937007874015748,
                    "duration": 0.3260869999999727
                },
                {
                    "name": "D#3",
                    "midi": 51,
                    "time": 298.0435179999986,
                    "velocity": 0.3937007874015748,
                    "duration": 0.3260869999999727
                },
                {
                    "name": "G3",
                    "midi": 55,
                    "time": 298.36960499999856,
                    "velocity": 0.3700787401574803,
                    "duration": 0.3260869999999727
                },
                {
                    "name": "A#3",
                    "midi": 58,
                    "time": 298.69569199999853,
                    "velocity": 0.4251968503937008,
                    "duration": 0.3260869999999727
                },
                {
                    "name": "D#4",
                    "midi": 63,
                    "time": 299.0217789999985,
                    "velocity": 0.3543307086614173,
                    "duration": 0.3260869999999727
                },
                {
                    "name": "A#2",
                    "midi": 46,
                    "time": 299.3478659999985,
                    "velocity": 0.41732283464566927,
                    "duration": 0.3260869999999727
                },
                {
                    "name": "D#3",
                    "midi": 51,
                    "time": 299.67395299999845,
                    "velocity": 0.3543307086614173,
                    "duration": 0.3260869999999727
                },
                {
                    "name": "G3",
                    "midi": 55,
                    "time": 300.0000399999984,
                    "velocity": 0.4015748031496063,
                    "duration": 0.3260869999999727
                },
                {
                    "name": "A#3",
                    "midi": 58,
                    "time": 300.3261269999984,
                    "velocity": 0.3543307086614173,
                    "duration": 0.3260869999999727
                },
                {
                    "name": "G#3",
                    "midi": 56,
                    "time": 300.65221399999837,
                    "velocity": 0.3543307086614173,
                    "duration": 0.3260869999999727
                },
                {
                    "name": "F3",
                    "midi": 53,
                    "time": 300.97830099999834,
                    "velocity": 0.3543307086614173,
                    "duration": 0.3260869999999727
                },
                {
                    "name": "D#3",
                    "midi": 51,
                    "time": 301.3043879999983,
                    "velocity": 0.4330708661417323,
                    "duration": 0.3260869999999727
                },
                {
                    "name": "G3",
                    "midi": 55,
                    "time": 301.6304749999983,
                    "velocity": 0.3858267716535433,
                    "duration": 0.3260869999999727
                },
                {
                    "name": "A#3",
                    "midi": 58,
                    "time": 301.95656199999826,
                    "velocity": 0.3858267716535433,
                    "duration": 0.3260869999999727
                },
                {
                    "name": "D#4",
                    "midi": 63,
                    "time": 302.28264899999823,
                    "velocity": 0.3858267716535433,
                    "duration": 0.3260869999999727
                },
                {
                    "name": "G#2",
                    "midi": 44,
                    "time": 302.6087359999982,
                    "velocity": 0.4251968503937008,
                    "duration": 0.3260869999999727
                },
                {
                    "name": "G#3",
                    "midi": 56,
                    "time": 302.9348229999982,
                    "velocity": 0.3700787401574803,
                    "duration": 0.3260869999999727
                },
                {
                    "name": "B2",
                    "midi": 47,
                    "time": 303.26090999999815,
                    "velocity": 0.4251968503937008,
                    "duration": 0.3260869999999727
                },
                {
                    "name": "D#3",
                    "midi": 51,
                    "time": 303.5869969999981,
                    "velocity": 0.3779527559055118,
                    "duration": 0.3260869999999727
                },
                {
                    "name": "G#3",
                    "midi": 56,
                    "time": 303.9130839999981,
                    "velocity": 0.4015748031496063,
                    "duration": 0.3260869999999727
                },
                {
                    "name": "B3",
                    "midi": 59,
                    "time": 304.23917099999807,
                    "velocity": 0.3543307086614173,
                    "duration": 0.3260869999999727
                },
                {
                    "name": "C#3",
                    "midi": 49,
                    "time": 304.56525799999804,
                    "velocity": 0.3543307086614173,
                    "duration": 0.3260869999999727
                },
                {
                    "name": "C#4",
                    "midi": 61,
                    "time": 304.891344999998,
                    "velocity": 0.3543307086614173,
                    "duration": 0.3260869999999727
                },
                {
                    "name": "A#2",
                    "midi": 46,
                    "time": 305.217431999998,
                    "velocity": 0.5118110236220472,
                    "duration": 0.3260869999999727
                },
                {
                    "name": "C#3",
                    "midi": 49,
                    "time": 305.54351899999796,
                    "velocity": 0.33070866141732286,
                    "duration": 0.3260869999999727
                },
                {
                    "name": "F#3",
                    "midi": 54,
                    "time": 305.86960599999793,
                    "velocity": 0.4015748031496063,
                    "duration": 0.3260869999999727
                },
                {
                    "name": "A#3",
                    "midi": 58,
                    "time": 306.1956929999979,
                    "velocity": 0.36220472440944884,
                    "duration": 0.3260869999999727
                },
                {
                    "name": "C#3",
                    "midi": 49,
                    "time": 306.5217799999979,
                    "velocity": 0.4566929133858268,
                    "duration": 0.3260869999999727
                },
                {
                    "name": "C#4",
                    "midi": 61,
                    "time": 306.84786699999785,
                    "velocity": 0.36220472440944884,
                    "duration": 0.3260869999999727
                },
                {
                    "name": "D#3",
                    "midi": 51,
                    "time": 307.1739539999978,
                    "velocity": 0.4566929133858268,
                    "duration": 0.3260869999999727
                },
                {
                    "name": "G3",
                    "midi": 55,
                    "time": 307.5000409999978,
                    "velocity": 0.3700787401574803,
                    "duration": 0.3260869999999727
                },
                {
                    "name": "A#3",
                    "midi": 58,
                    "time": 307.82612799999777,
                    "velocity": 0.4330708661417323,
                    "duration": 0.3260869999999727
                },
                {
                    "name": "C#4",
                    "midi": 61,
                    "time": 308.15221499999774,
                    "velocity": 0.3700787401574803,
                    "duration": 0.3260869999999727
                },
                {
                    "name": "G3",
                    "midi": 55,
                    "time": 308.4783019999977,
                    "velocity": 0.23622047244094488,
                    "duration": 0.3260869999999727
                },
                {
                    "name": "A#3",
                    "midi": 58,
                    "time": 308.8043889999977,
                    "velocity": 0.23622047244094488,
                    "duration": 0.3260869999999727
                },
                {
                    "name": "G#3",
                    "midi": 56,
                    "time": 309.13047599999766,
                    "velocity": 0.30708661417322836,
                    "duration": 0.3260869999999727
                },
                {
                    "name": "B3",
                    "midi": 59,
                    "time": 309.45656299999763,
                    "velocity": 0.2047244094488189,
                    "duration": 0.3260869999999727
                },
                {
                    "name": "D#4",
                    "midi": 63,
                    "time": 309.7826499999976,
                    "velocity": 0.2047244094488189,
                    "duration": 0.3260869999999727
                },
                {
                    "name": "G#4",
                    "midi": 68,
                    "time": 310.1087369999976,
                    "velocity": 0.2047244094488189,
                    "duration": 0.32065221666664456
                },
                {
                    "name": "C4",
                    "midi": 60,
                    "time": 310.43482399999755,
                    "velocity": 0.2440944881889764,
                    "duration": 0.3260869999999727
                },
                {
                    "name": "D#4",
                    "midi": 63,
                    "time": 310.7609109999975,
                    "velocity": 0.2440944881889764,
                    "duration": 0.3260869999999727
                },
                {
                    "name": "C#4",
                    "midi": 61,
                    "time": 311.0869979999975,
                    "velocity": 0.31496062992125984,
                    "duration": 0.3260869999999727
                },
                {
                    "name": "E4",
                    "midi": 64,
                    "time": 311.41308499999747,
                    "velocity": 0.2677165354330709,
                    "duration": 0.3260869999999727
                },
                {
                    "name": "G#4",
                    "midi": 68,
                    "time": 311.73917199999744,
                    "velocity": 0.2677165354330709,
                    "duration": 0.3260869999999727
                },
                {
                    "name": "C#5",
                    "midi": 73,
                    "time": 312.0652589999974,
                    "velocity": 0.2283464566929134,
                    "duration": 0.32065221666664456
                },
                {
                    "name": "F4",
                    "midi": 65,
                    "time": 312.3913459999974,
                    "velocity": 0.2677165354330709,
                    "duration": 0.3260869999999727
                },
                {
                    "name": "G#4",
                    "midi": 68,
                    "time": 312.71743299999736,
                    "velocity": 0.2440944881889764,
                    "duration": 0.3260869999999727
                },
                {
                    "name": "F#3",
                    "midi": 54,
                    "time": 313.04351999999733,
                    "velocity": 0.30708661417322836,
                    "duration": 0.3260869999999727
                },
                {
                    "name": "A#3",
                    "midi": 58,
                    "time": 313.3696069999973,
                    "velocity": 0.2440944881889764,
                    "duration": 0.3260869999999727
                },
                {
                    "name": "C#4",
                    "midi": 61,
                    "time": 313.6956939999973,
                    "velocity": 0.2440944881889764,
                    "duration": 0.3260869999999727
                },
                {
                    "name": "F#4",
                    "midi": 66,
                    "time": 314.02178099999725,
                    "velocity": 0.3543307086614173,
                    "duration": 0.3260869999999727
                },
                {
                    "name": "D#2",
                    "midi": 39,
                    "time": 314.3478679999972,
                    "velocity": 0.4645669291338583,
                    "duration": 0.3260869999999727
                },
                {
                    "name": "D#3",
                    "midi": 51,
                    "time": 314.6739549999972,
                    "velocity": 0.4094488188976378,
                    "duration": 0.3260869999999727
                },
                {
                    "name": "F#2",
                    "midi": 42,
                    "time": 315.00004199999717,
                    "velocity": 0.4566929133858268,
                    "duration": 0.3260869999999727
                },
                {
                    "name": "A#2",
                    "midi": 46,
                    "time": 315.32612899999714,
                    "velocity": 0.3858267716535433,
                    "duration": 0.3260869999999727
                },
                {
                    "name": "D#3",
                    "midi": 51,
                    "time": 315.6522159999971,
                    "velocity": 0.44881889763779526,
                    "duration": 0.3260869999999727
                },
                {
                    "name": "F#3",
                    "midi": 54,
                    "time": 315.9783029999971,
                    "velocity": 0.3858267716535433,
                    "duration": 0.3260869999999727
                },
                {
                    "name": "G#2",
                    "midi": 44,
                    "time": 316.30438999999706,
                    "velocity": 0.41732283464566927,
                    "duration": 0.3260869999999727
                },
                {
                    "name": "G#3",
                    "midi": 56,
                    "time": 316.63047699999703,
                    "velocity": 0.3858267716535433,
                    "duration": 0.3260869999999727
                },
                {
                    "name": "E2",
                    "midi": 40,
                    "time": 316.956563999997,
                    "velocity": 0.4645669291338583,
                    "duration": 0.3260869999999727
                },
                {
                    "name": "G#2",
                    "midi": 44,
                    "time": 317.282650999997,
                    "velocity": 0.4015748031496063,
                    "duration": 0.3260869999999727
                },
                {
                    "name": "C#3",
                    "midi": 49,
                    "time": 317.60873799999695,
                    "velocity": 0.4094488188976378,
                    "duration": 0.3260869999999727
                },
                {
                    "name": "E3",
                    "midi": 52,
                    "time": 317.9348249999969,
                    "velocity": 0.3937007874015748,
                    "duration": 0.3260869999999727
                },
                {
                    "name": "G#2",
                    "midi": 44,
                    "time": 318.2609119999969,
                    "velocity": 0.3937007874015748,
                    "duration": 0.3260869999999727
                },
                {
                    "name": "G#3",
                    "midi": 56,
                    "time": 318.58699899999687,
                    "velocity": 0.3543307086614173,
                    "duration": 0.3260869999999727
                },
                {
                    "name": "A2",
                    "midi": 45,
                    "time": 318.91308599999684,
                    "velocity": 0.4251968503937008,
                    "duration": 0.3260869999999727
                },
                {
                    "name": "C#3",
                    "midi": 49,
                    "time": 319.2391729999968,
                    "velocity": 0.3858267716535433,
                    "duration": 0.3260869999999727
                },
                {
                    "name": "E3",
                    "midi": 52,
                    "time": 319.5652599999968,
                    "velocity": 0.3858267716535433,
                    "duration": 0.3260869999999727
                },
                {
                    "name": "A3",
                    "midi": 57,
                    "time": 319.89134699999676,
                    "velocity": 0.3858267716535433,
                    "duration": 0.32065221666664456
                },
                {
                    "name": "C#3",
                    "midi": 49,
                    "time": 320.21743399999673,
                    "velocity": 0.29133858267716534,
                    "duration": 0.3260869999999727
                },
                {
                    "name": "C#4",
                    "midi": 61,
                    "time": 320.5435209999967,
                    "velocity": 0.2677165354330709,
                    "duration": 0.3260869999999727
                },
                {
                    "name": "D#3",
                    "midi": 51,
                    "time": 320.8696079999967,
                    "velocity": 0.30708661417322836,
                    "duration": 1.3043479999998908
                },
                {
                    "name": "F#3",
                    "midi": 54,
                    "time": 321.19569499999665,
                    "velocity": 0.2440944881889764,
                    "duration": 0.9782609999999181
                },
                {
                    "name": "A#3",
                    "midi": 58,
                    "time": 321.5217819999966,
                    "velocity": 0.2440944881889764,
                    "duration": 0.3260869999999727
                },
                {
                    "name": "D#4",
                    "midi": 63,
                    "time": 321.8478689999966,
                    "velocity": 0.2440944881889764,
                    "duration": 0.32065221666664456
                },
                {
                    "name": "G3",
                    "midi": 55,
                    "time": 322.17395599999656,
                    "velocity": 0.2755905511811024,
                    "duration": 0.3260869999999727
                },
                {
                    "name": "A#3",
                    "midi": 58,
                    "time": 322.50004299999654,
                    "velocity": 0.2440944881889764,
                    "duration": 0.3260869999999727
                },
                {
                    "name": "G#3",
                    "midi": 56,
                    "time": 322.8261299999965,
                    "velocity": 0.29133858267716534,
                    "duration": 0.3260869999999727
                },
                {
                    "name": "B3",
                    "midi": 59,
                    "time": 323.1522169999965,
                    "velocity": 0.2677165354330709,
                    "duration": 0.3260869999999727
                },
                {
                    "name": "D#4",
                    "midi": 63,
                    "time": 323.47830399999646,
                    "velocity": 0.2677165354330709,
                    "duration": 0.3260869999999727
                },
                {
                    "name": "G#4",
                    "midi": 68,
                    "time": 323.80439099999643,
                    "velocity": 0.2677165354330709,
                    "duration": 0.3260869999999727
                },
                {
                    "name": "C4",
                    "midi": 60,
                    "time": 324.1304779999964,
                    "velocity": 0.29133858267716534,
                    "duration": 0.3260869999999727
                },
                {
                    "name": "D#4",
                    "midi": 63,
                    "time": 324.4565649999964,
                    "velocity": 0.2677165354330709,
                    "duration": 0.3260869999999727
                },
                {
                    "name": "C#4",
                    "midi": 61,
                    "time": 324.78265199999635,
                    "velocity": 0.3228346456692913,
                    "duration": 0.3260869999999727
                },
                {
                    "name": "F4",
                    "midi": 65,
                    "time": 325.1087389999963,
                    "velocity": 0.2440944881889764,
                    "duration": 0.3260869999999727
                },
                {
                    "name": "G#4",
                    "midi": 68,
                    "time": 325.4348259999963,
                    "velocity": 0.2440944881889764,
                    "duration": 0.3260869999999727
                },
                {
                    "name": "C#5",
                    "midi": 73,
                    "time": 325.76091299999626,
                    "velocity": 0.2440944881889764,
                    "duration": 0.32065221666664456
                },
                {
                    "name": "F4",
                    "midi": 65,
                    "time": 326.08699999999624,
                    "velocity": 0.33070866141732286,
                    "duration": 0.3260869999999727
                },
                {
                    "name": "G#4",
                    "midi": 68,
                    "time": 326.4130869999962,
                    "velocity": 0.28346456692913385,
                    "duration": 0.3260869999999727
                },
                {
                    "name": "F#4",
                    "midi": 66,
                    "time": 326.7391739999962,
                    "velocity": 0.33070866141732286,
                    "duration": 0.3260869999999727
                },
                {
                    "name": "A4",
                    "midi": 69,
                    "time": 327.06526099999616,
                    "velocity": 0.2677165354330709,
                    "duration": 0.3260869999999727
                },
                {
                    "name": "C#5",
                    "midi": 73,
                    "time": 327.3913479999961,
                    "velocity": 0.2677165354330709,
                    "duration": 0.3260869999999727
                },
                {
                    "name": "F#5",
                    "midi": 78,
                    "time": 327.7174349999961,
                    "velocity": 0.2677165354330709,
                    "duration": 0.3260869999999727
                },
                {
                    "name": "B3",
                    "midi": 59,
                    "time": 328.0435219999961,
                    "velocity": 0.29133858267716534,
                    "duration": 0.3260869999999727
                },
                {
                    "name": "B4",
                    "midi": 71,
                    "time": 328.36960899999605,
                    "velocity": 0.2677165354330709,
                    "duration": 0.32065221666664456
                },
                {
                    "name": "B3",
                    "midi": 59,
                    "time": 328.36960899999605,
                    "velocity": 0.2677165354330709,
                    "duration": 0.3260869999999727
                },
                {
                    "name": "G#3",
                    "midi": 56,
                    "time": 329.021782999996,
                    "velocity": 0.2204724409448819,
                    "duration": 0.3260869999999727
                },
                {
                    "name": "G#4",
                    "midi": 68,
                    "time": 329.021782999996,
                    "velocity": 0.25984251968503935,
                    "duration": 0.3260869999999727
                },
                {
                    "name": "F4",
                    "midi": 65,
                    "time": 329.67395699999594,
                    "velocity": 0.25984251968503935,
                    "duration": 0.3260869999999727
                },
                {
                    "name": "F3",
                    "midi": 53,
                    "time": 329.67395699999594,
                    "velocity": 0.2204724409448819,
                    "duration": 0.3260869999999727
                },
                {
                    "name": "C#4",
                    "midi": 61,
                    "time": 330.9783049999959,
                    "velocity": 0.23622047244094488,
                    "duration": 0.3260869999999727
                },
                {
                    "name": "C#3",
                    "midi": 49,
                    "time": 330.9783049999959,
                    "velocity": 0.1968503937007874,
                    "duration": 0.3260869999999727
                },
                {
                    "name": "C#2",
                    "midi": 37,
                    "time": 331.63047899999583,
                    "velocity": 0.1968503937007874,
                    "duration": 0.3260869999999727
                },
                {
                    "name": "C#3",
                    "midi": 49,
                    "time": 331.63047899999583,
                    "velocity": 0.23622047244094488,
                    "duration": 0.3260869999999727
                },
                {
                    "name": "C#2",
                    "midi": 37,
                    "time": 332.9348269999958,
                    "velocity": 0.1732283464566929,
                    "duration": 0.3260869999999727
                },
                {
                    "name": "C#3",
                    "midi": 49,
                    "time": 332.9348269999958,
                    "velocity": 0.2047244094488189,
                    "duration": 0.3260869999999727
                },
                {
                    "name": "C#2",
                    "midi": 37,
                    "time": 333.5870009999957,
                    "velocity": 0.1968503937007874,
                    "duration": 0.3260869999999727
                },
                {
                    "name": "C#2",
                    "midi": 37,
                    "time": 334.89134899999567,
                    "velocity": 0.1732283464566929,
                    "duration": 0.3260869999999727
                },
                {
                    "name": "C#2",
                    "midi": 37,
                    "time": 335.5435229999956,
                    "velocity": 0.16535433070866143,
                    "duration": 0.3260869999999727
                },
                {
                    "name": "C#2",
                    "midi": 37,
                    "time": 335.8696099999956,
                    "velocity": 0.16535433070866143,
                    "duration": 0.6521740000000023
                },
                {
                    "name": "C#2",
                    "midi": 37,
                    "time": 336.5217839999956,
                    "velocity": 0.23622047244094488,
                    "duration": 0.6467392166666741
                },
                {
                    "name": "C#2",
                    "midi": 37,
                    "time": 337.1739579999956,
                    "velocity": 0.1889763779527559,
                    "duration": 0.6467392166666741
                },
                {
                    "name": "G#2",
                    "midi": 44,
                    "time": 337.8261319999956,
                    "velocity": 0.1889763779527559,
                    "duration": 0.6467392166666741
                },
                {
                    "name": "C#2",
                    "midi": 37,
                    "time": 337.8261319999956,
                    "velocity": 0.15748031496062992,
                    "duration": 0.6467392166666741
                },
                {
                    "name": "C#2",
                    "midi": 37,
                    "time": 338.4783059999956,
                    "velocity": 0.15748031496062992,
                    "duration": 0.6467392166666741
                },
                {
                    "name": "G#2",
                    "midi": 44,
                    "time": 338.4783059999956,
                    "velocity": 0.1889763779527559,
                    "duration": 0.6467392166666741
                },
                {
                    "name": "C#2",
                    "midi": 37,
                    "time": 339.1304799999956,
                    "velocity": 0.15748031496062992,
                    "duration": 0.6467392166666741
                },
                {
                    "name": "G#2",
                    "midi": 44,
                    "time": 339.1304799999956,
                    "velocity": 0.1889763779527559,
                    "duration": 0.6467392166666741
                },
                {
                    "name": "F#1",
                    "midi": 30,
                    "time": 339.7826539999956,
                    "velocity": 0.15748031496062992,
                    "duration": 0.6467392166666741
                },
                {
                    "name": "C#2",
                    "midi": 37,
                    "time": 339.7826539999956,
                    "velocity": 0.15748031496062992,
                    "duration": 0.6467392166666741
                },
                {
                    "name": "F#2",
                    "midi": 42,
                    "time": 339.7826539999956,
                    "velocity": 0.1889763779527559,
                    "duration": 0.6467392166666741
                },
                {
                    "name": "F#1",
                    "midi": 30,
                    "time": 340.4348279999956,
                    "velocity": 0.15748031496062992,
                    "duration": 0.6467392166666741
                },
                {
                    "name": "C#2",
                    "midi": 37,
                    "time": 340.4348279999956,
                    "velocity": 0.15748031496062992,
                    "duration": 0.6467392166666741
                },
                {
                    "name": "F#2",
                    "midi": 42,
                    "time": 340.4348279999956,
                    "velocity": 0.1889763779527559,
                    "duration": 0.6467392166666741
                },
                {
                    "name": "C#2",
                    "midi": 37,
                    "time": 341.0870019999956,
                    "velocity": 0.15748031496062992,
                    "duration": 0.6467392166666741
                },
                {
                    "name": "F#2",
                    "midi": 42,
                    "time": 341.0870019999956,
                    "velocity": 0.15748031496062992,
                    "duration": 0.6467392166666741
                },
                {
                    "name": "C#3",
                    "midi": 49,
                    "time": 341.0870019999956,
                    "velocity": 0.1889763779527559,
                    "duration": 0.6467392166666741
                },
                {
                    "name": "C#2",
                    "midi": 37,
                    "time": 341.7391759999956,
                    "velocity": 0.15748031496062992,
                    "duration": 0.6467392166666741
                },
                {
                    "name": "F#2",
                    "midi": 42,
                    "time": 341.7391759999956,
                    "velocity": 0.15748031496062992,
                    "duration": 0.6467392166666741
                },
                {
                    "name": "C#3",
                    "midi": 49,
                    "time": 341.7391759999956,
                    "velocity": 0.1889763779527559,
                    "duration": 0.6467392166666741
                },
                {
                    "name": "C#2",
                    "midi": 37,
                    "time": 342.3913499999956,
                    "velocity": 0.15748031496062992,
                    "duration": 0.6467392166666741
                },
                {
                    "name": "F#2",
                    "midi": 42,
                    "time": 342.3913499999956,
                    "velocity": 0.15748031496062992,
                    "duration": 0.6467392166666741
                },
                {
                    "name": "C#3",
                    "midi": 49,
                    "time": 342.3913499999956,
                    "velocity": 0.1889763779527559,
                    "duration": 0.6467392166666741
                },
                {
                    "name": "C#2",
                    "midi": 37,
                    "time": 343.0435239999956,
                    "velocity": 0.15748031496062992,
                    "duration": 0.6467392166666741
                },
                {
                    "name": "F#2",
                    "midi": 42,
                    "time": 343.0435239999956,
                    "velocity": 0.15748031496062992,
                    "duration": 0.6467392166666741
                },
                {
                    "name": "C#3",
                    "midi": 49,
                    "time": 343.0435239999956,
                    "velocity": 0.1889763779527559,
                    "duration": 0.6467392166666741
                },
                {
                    "name": "C#2",
                    "midi": 37,
                    "time": 343.6956979999956,
                    "velocity": 0.15748031496062992,
                    "duration": 0.6467392166666741
                },
                {
                    "name": "F2",
                    "midi": 41,
                    "time": 343.6956979999956,
                    "velocity": 0.15748031496062992,
                    "duration": 0.6467392166666741
                },
                {
                    "name": "C#3",
                    "midi": 49,
                    "time": 343.6956979999956,
                    "velocity": 0.1889763779527559,
                    "duration": 0.6467392166666741
                },
                {
                    "name": "C#2",
                    "midi": 37,
                    "time": 344.3478719999956,
                    "velocity": 0.2204724409448819,
                    "duration": 0.6467392166666741
                },
                {
                    "name": "F#2",
                    "midi": 42,
                    "time": 344.3478719999956,
                    "velocity": 0.2204724409448819,
                    "duration": 0.6467392166666741
                },
                {
                    "name": "C#3",
                    "midi": 49,
                    "time": 344.3478719999956,
                    "velocity": 0.2677165354330709,
                    "duration": 0.6467392166666741
                },
                {
                    "name": "C#2",
                    "midi": 37,
                    "time": 345.0000459999956,
                    "velocity": 0.18110236220472442,
                    "duration": 0.6467392166666741
                },
                {
                    "name": "F#2",
                    "midi": 42,
                    "time": 345.0000459999956,
                    "velocity": 0.18110236220472442,
                    "duration": 0.6467392166666741
                },
                {
                    "name": "C#3",
                    "midi": 49,
                    "time": 345.0000459999956,
                    "velocity": 0.2125984251968504,
                    "duration": 0.6467392166666741
                },
                {
                    "name": "D2",
                    "midi": 38,
                    "time": 345.6522199999956,
                    "velocity": 0.1889763779527559,
                    "duration": 0.6467392166666741
                },
                {
                    "name": "F#2",
                    "midi": 42,
                    "time": 345.6522199999956,
                    "velocity": 0.1889763779527559,
                    "duration": 0.6467392166666741
                },
                {
                    "name": "D3",
                    "midi": 50,
                    "time": 345.6522199999956,
                    "velocity": 0.2204724409448819,
                    "duration": 0.6467392166666741
                },
                {
                    "name": "D2",
                    "midi": 38,
                    "time": 346.3043939999956,
                    "velocity": 0.1968503937007874,
                    "duration": 0.6467392166666741
                },
                {
                    "name": "F#2",
                    "midi": 42,
                    "time": 346.3043939999956,
                    "velocity": 0.1968503937007874,
                    "duration": 0.6467392166666741
                },
                {
                    "name": "D3",
                    "midi": 50,
                    "time": 346.3043939999956,
                    "velocity": 0.23622047244094488,
                    "duration": 0.6467392166666741
                },
                {
                    "name": "D2",
                    "midi": 38,
                    "time": 346.9565679999956,
                    "velocity": 0.2047244094488189,
                    "duration": 0.6467392166666741
                },
                {
                    "name": "F#2",
                    "midi": 42,
                    "time": 346.9565679999956,
                    "velocity": 0.2047244094488189,
                    "duration": 0.6467392166666741
                },
                {
                    "name": "D3",
                    "midi": 50,
                    "time": 346.9565679999956,
                    "velocity": 0.2440944881889764,
                    "duration": 0.6467392166666741
                },
                {
                    "name": "B1",
                    "midi": 35,
                    "time": 347.60874199999563,
                    "velocity": 0.2125984251968504,
                    "duration": 0.6467392166666741
                },
                {
                    "name": "F#2",
                    "midi": 42,
                    "time": 347.60874199999563,
                    "velocity": 0.2125984251968504,
                    "duration": 0.6467392166666741
                },
                {
                    "name": "B2",
                    "midi": 47,
                    "time": 347.60874199999563,
                    "velocity": 0.25196850393700787,
                    "duration": 0.6467392166666741
                },
                {
                    "name": "B1",
                    "midi": 35,
                    "time": 348.26091599999563,
                    "velocity": 0.2283464566929134,
                    "duration": 0.6467392166666741
                },
                {
                    "name": "F#2",
                    "midi": 42,
                    "time": 348.26091599999563,
                    "velocity": 0.2283464566929134,
                    "duration": 0.6467392166666741
                },
                {
                    "name": "B2",
                    "midi": 47,
                    "time": 348.26091599999563,
                    "velocity": 0.2755905511811024,
                    "duration": 0.6467392166666741
                },
                {
                    "name": "B2",
                    "midi": 47,
                    "time": 348.91308999999563,
                    "velocity": 0.2283464566929134,
                    "duration": 0.6467392166666741
                },
                {
                    "name": "F#3",
                    "midi": 54,
                    "time": 348.91308999999563,
                    "velocity": 0.2283464566929134,
                    "duration": 0.6467392166666741
                },
                {
                    "name": "B3",
                    "midi": 59,
                    "time": 348.91308999999563,
                    "velocity": 0.2677165354330709,
                    "duration": 0.6467392166666741
                },
                {
                    "name": "A2",
                    "midi": 45,
                    "time": 349.56526399999564,
                    "velocity": 0.23622047244094488,
                    "duration": 0.6467392166666741
                },
                {
                    "name": "F#3",
                    "midi": 54,
                    "time": 349.56526399999564,
                    "velocity": 0.23622047244094488,
                    "duration": 0.6467392166666741
                },
                {
                    "name": "A3",
                    "midi": 57,
                    "time": 349.56526399999564,
                    "velocity": 0.28346456692913385,
                    "duration": 0.6467392166666741
                },
                {
                    "name": "A2",
                    "midi": 45,
                    "time": 350.21743799999564,
                    "velocity": 0.2440944881889764,
                    "duration": 0.6467392166666741
                },
                {
                    "name": "F#3",
                    "midi": 54,
                    "time": 350.21743799999564,
                    "velocity": 0.2440944881889764,
                    "duration": 0.6467392166666741
                },
                {
                    "name": "A3",
                    "midi": 57,
                    "time": 350.21743799999564,
                    "velocity": 0.29133858267716534,
                    "duration": 0.6467392166666741
                },
                {
                    "name": "G#2",
                    "midi": 44,
                    "time": 350.86961199999564,
                    "velocity": 0.25196850393700787,
                    "duration": 0.6467392166666741
                },
                {
                    "name": "C#3",
                    "midi": 49,
                    "time": 350.86961199999564,
                    "velocity": 0.25196850393700787,
                    "duration": 0.6467392166666741
                },
                {
                    "name": "G#3",
                    "midi": 56,
                    "time": 350.86961199999564,
                    "velocity": 0.2992125984251969,
                    "duration": 0.6467392166666741
                },
                {
                    "name": "F#2",
                    "midi": 42,
                    "time": 351.52178599999564,
                    "velocity": 0.25984251968503935,
                    "duration": 0.6467392166666741
                },
                {
                    "name": "C#3",
                    "midi": 49,
                    "time": 351.52178599999564,
                    "velocity": 0.25984251968503935,
                    "duration": 0.6467392166666741
                },
                {
                    "name": "F#3",
                    "midi": 54,
                    "time": 351.52178599999564,
                    "velocity": 0.30708661417322836,
                    "duration": 0.6467392166666741
                },
                {
                    "name": "F2",
                    "midi": 41,
                    "time": 352.17395999999565,
                    "velocity": 0.2755905511811024,
                    "duration": 0.6467392166666741
                },
                {
                    "name": "C#3",
                    "midi": 49,
                    "time": 352.17395999999565,
                    "velocity": 0.2755905511811024,
                    "duration": 0.6467392166666741
                },
                {
                    "name": "G#3",
                    "midi": 56,
                    "time": 352.17395999999565,
                    "velocity": 0.33070866141732286,
                    "duration": 0.6467392166666741
                },
                {
                    "name": "F2",
                    "midi": 41,
                    "time": 352.82613399999565,
                    "velocity": 0.2677165354330709,
                    "duration": 0.6467392166666741
                },
                {
                    "name": "C#3",
                    "midi": 49,
                    "time": 352.82613399999565,
                    "velocity": 0.2677165354330709,
                    "duration": 0.6467392166666741
                },
                {
                    "name": "G#3",
                    "midi": 56,
                    "time": 352.82613399999565,
                    "velocity": 0.31496062992125984,
                    "duration": 0.6467392166666741
                },
                {
                    "name": "F3",
                    "midi": 53,
                    "time": 353.47830799999565,
                    "velocity": 0.2677165354330709,
                    "duration": 0.6467392166666741
                },
                {
                    "name": "G#3",
                    "midi": 56,
                    "time": 353.47830799999565,
                    "velocity": 0.2677165354330709,
                    "duration": 0.6467392166666741
                },
                {
                    "name": "B3",
                    "midi": 59,
                    "time": 353.47830799999565,
                    "velocity": 0.2677165354330709,
                    "duration": 0.6467392166666741
                },
                {
                    "name": "C#4",
                    "midi": 61,
                    "time": 353.47830799999565,
                    "velocity": 0.31496062992125984,
                    "duration": 0.6467392166666741
                },
                {
                    "name": "F3",
                    "midi": 53,
                    "time": 354.13048199999565,
                    "velocity": 0.2677165354330709,
                    "duration": 0.6467392166666741
                },
                {
                    "name": "G#3",
                    "midi": 56,
                    "time": 354.13048199999565,
                    "velocity": 0.2677165354330709,
                    "duration": 0.6467392166666741
                },
                {
                    "name": "B3",
                    "midi": 59,
                    "time": 354.13048199999565,
                    "velocity": 0.2677165354330709,
                    "duration": 0.6467392166666741
                },
                {
                    "name": "D4",
                    "midi": 62,
                    "time": 354.13048199999565,
                    "velocity": 0.31496062992125984,
                    "duration": 0.6467392166666741
                },
                {
                    "name": "F3",
                    "midi": 53,
                    "time": 354.78265599999565,
                    "velocity": 0.2677165354330709,
                    "duration": 0.6467392166666741
                },
                {
                    "name": "G#3",
                    "midi": 56,
                    "time": 354.78265599999565,
                    "velocity": 0.2677165354330709,
                    "duration": 0.6467392166666741
                },
                {
                    "name": "B3",
                    "midi": 59,
                    "time": 354.78265599999565,
                    "velocity": 0.2677165354330709,
                    "duration": 0.6467392166666741
                },
                {
                    "name": "D4",
                    "midi": 62,
                    "time": 354.78265599999565,
                    "velocity": 0.31496062992125984,
                    "duration": 0.6467392166666741
                },
                {
                    "name": "F3",
                    "midi": 53,
                    "time": 355.43482999999566,
                    "velocity": 0.2677165354330709,
                    "duration": 0.6467392166666741
                },
                {
                    "name": "G#3",
                    "midi": 56,
                    "time": 355.43482999999566,
                    "velocity": 0.2677165354330709,
                    "duration": 0.6467392166666741
                },
                {
                    "name": "B3",
                    "midi": 59,
                    "time": 355.43482999999566,
                    "velocity": 0.2677165354330709,
                    "duration": 0.6467392166666741
                },
                {
                    "name": "D4",
                    "midi": 62,
                    "time": 355.43482999999566,
                    "velocity": 0.31496062992125984,
                    "duration": 0.6467392166666741
                },
                {
                    "name": "F3",
                    "midi": 53,
                    "time": 356.08700399999566,
                    "velocity": 0.2755905511811024,
                    "duration": 0.6467392166666741
                },
                {
                    "name": "G#3",
                    "midi": 56,
                    "time": 356.08700399999566,
                    "velocity": 0.2755905511811024,
                    "duration": 0.6467392166666741
                },
                {
                    "name": "B3",
                    "midi": 59,
                    "time": 356.08700399999566,
                    "velocity": 0.2755905511811024,
                    "duration": 0.6467392166666741
                },
                {
                    "name": "D4",
                    "midi": 62,
                    "time": 356.08700399999566,
                    "velocity": 0.33070866141732286,
                    "duration": 0.6467392166666741
                },
                {
                    "name": "F2",
                    "midi": 41,
                    "time": 356.73917799999566,
                    "velocity": 0.2677165354330709,
                    "duration": 0.6467392166666741
                },
                {
                    "name": "G#2",
                    "midi": 44,
                    "time": 356.73917799999566,
                    "velocity": 0.2677165354330709,
                    "duration": 0.6467392166666741
                },
                {
                    "name": "F3",
                    "midi": 53,
                    "time": 356.73917799999566,
                    "velocity": 0.31496062992125984,
                    "duration": 0.6467392166666741
                },
                {
                    "name": "F2",
                    "midi": 41,
                    "time": 357.39135199999566,
                    "velocity": 0.2677165354330709,
                    "duration": 0.6467392166666741
                },
                {
                    "name": "G#2",
                    "midi": 44,
                    "time": 357.39135199999566,
                    "velocity": 0.2677165354330709,
                    "duration": 0.6467392166666741
                },
                {
                    "name": "F3",
                    "midi": 53,
                    "time": 357.39135199999566,
                    "velocity": 0.31496062992125984,
                    "duration": 0.6467392166666741
                },
                {
                    "name": "F2",
                    "midi": 41,
                    "time": 358.04352599999567,
                    "velocity": 0.23622047244094488,
                    "duration": 0.6467392166666741
                },
                {
                    "name": "G#2",
                    "midi": 44,
                    "time": 358.04352599999567,
                    "velocity": 0.23622047244094488,
                    "duration": 0.6467392166666741
                },
                {
                    "name": "F3",
                    "midi": 53,
                    "time": 358.04352599999567,
                    "velocity": 0.28346456692913385,
                    "duration": 0.6467392166666741
                },
                {
                    "name": "F#2",
                    "midi": 42,
                    "time": 358.69569999999567,
                    "velocity": 0.2204724409448819,
                    "duration": 0.6467392166666741
                },
                {
                    "name": "A2",
                    "midi": 45,
                    "time": 358.69569999999567,
                    "velocity": 0.2204724409448819,
                    "duration": 0.6467392166666741
                },
                {
                    "name": "F#3",
                    "midi": 54,
                    "time": 358.69569999999567,
                    "velocity": 0.25984251968503935,
                    "duration": 0.6467392166666741
                },
                {
                    "name": "G#2",
                    "midi": 44,
                    "time": 359.34787399999567,
                    "velocity": 0.2047244094488189,
                    "duration": 0.6467392166666741
                },
                {
                    "name": "B2",
                    "midi": 47,
                    "time": 359.34787399999567,
                    "velocity": 0.2047244094488189,
                    "duration": 0.6467392166666741
                },
                {
                    "name": "G#3",
                    "midi": 56,
                    "time": 359.34787399999567,
                    "velocity": 0.2440944881889764,
                    "duration": 0.6467392166666741
                },
                {
                    "name": "G#2",
                    "midi": 44,
                    "time": 360.0000479999957,
                    "velocity": 0.1968503937007874,
                    "duration": 0.6467392166666741
                },
                {
                    "name": "B2",
                    "midi": 47,
                    "time": 360.0000479999957,
                    "velocity": 0.1968503937007874,
                    "duration": 0.6467392166666741
                },
                {
                    "name": "G#3",
                    "midi": 56,
                    "time": 360.0000479999957,
                    "velocity": 0.23622047244094488,
                    "duration": 0.6467392166666741
                },
                {
                    "name": "G#3",
                    "midi": 56,
                    "time": 360.6522219999957,
                    "velocity": 0.2047244094488189,
                    "duration": 0.6467392166666741
                },
                {
                    "name": "B3",
                    "midi": 59,
                    "time": 360.6522219999957,
                    "velocity": 0.2047244094488189,
                    "duration": 0.6467392166666741
                },
                {
                    "name": "D4",
                    "midi": 62,
                    "time": 360.6522219999957,
                    "velocity": 0.2047244094488189,
                    "duration": 0.6467392166666741
                },
                {
                    "name": "F4",
                    "midi": 65,
                    "time": 360.6522219999957,
                    "velocity": 0.2440944881889764,
                    "duration": 0.6467392166666741
                },
                {
                    "name": "G#3",
                    "midi": 56,
                    "time": 361.3043959999957,
                    "velocity": 0.2283464566929134,
                    "duration": 0.6467392166666741
                },
                {
                    "name": "B3",
                    "midi": 59,
                    "time": 361.3043959999957,
                    "velocity": 0.2283464566929134,
                    "duration": 0.6467392166666741
                },
                {
                    "name": "D4",
                    "midi": 62,
                    "time": 361.3043959999957,
                    "velocity": 0.2283464566929134,
                    "duration": 0.6467392166666741
                },
                {
                    "name": "F4",
                    "midi": 65,
                    "time": 361.3043959999957,
                    "velocity": 0.2755905511811024,
                    "duration": 0.6467392166666741
                },
                {
                    "name": "B3",
                    "midi": 59,
                    "time": 361.9565699999957,
                    "velocity": 0.25196850393700787,
                    "duration": 0.6467392166666741
                },
                {
                    "name": "G#3",
                    "midi": 56,
                    "time": 361.9565699999957,
                    "velocity": 0.25196850393700787,
                    "duration": 0.6467392166666741
                },
                {
                    "name": "D4",
                    "midi": 62,
                    "time": 361.9565699999957,
                    "velocity": 0.25196850393700787,
                    "duration": 0.6467392166666741
                },
                {
                    "name": "F4",
                    "midi": 65,
                    "time": 361.9565699999957,
                    "velocity": 0.2992125984251969,
                    "duration": 0.6467392166666741
                },
                {
                    "name": "A3",
                    "midi": 57,
                    "time": 362.6087439999957,
                    "velocity": 0.2440944881889764,
                    "duration": 0.6467392166666741
                },
                {
                    "name": "C#4",
                    "midi": 61,
                    "time": 362.6087439999957,
                    "velocity": 0.2440944881889764,
                    "duration": 0.6467392166666741
                },
                {
                    "name": "F#4",
                    "midi": 66,
                    "time": 362.6087439999957,
                    "velocity": 0.29133858267716534,
                    "duration": 0.6467392166666741
                },
                {
                    "name": "B3",
                    "midi": 59,
                    "time": 363.2609179999957,
                    "velocity": 0.23622047244094488,
                    "duration": 0.32336960833333706
                },
                {
                    "name": "D4",
                    "midi": 62,
                    "time": 363.2609179999957,
                    "velocity": 0.23622047244094488,
                    "duration": 0.32336960833333706
                },
                {
                    "name": "F#4",
                    "midi": 66,
                    "time": 363.2609179999957,
                    "velocity": 0.28346456692913385,
                    "duration": 0.32336960833333706
                },
                {
                    "name": "C4",
                    "midi": 60,
                    "time": 363.5870049999957,
                    "velocity": 0.23622047244094488,
                    "duration": 0.3260869999999727
                },
                {
                    "name": "D#4",
                    "midi": 63,
                    "time": 363.5870049999957,
                    "velocity": 0.23622047244094488,
                    "duration": 0.3260869999999727
                },
                {
                    "name": "F#4",
                    "midi": 66,
                    "time": 363.5870049999957,
                    "velocity": 0.28346456692913385,
                    "duration": 0.3260869999999727
                },
                {
                    "name": "C4",
                    "midi": 60,
                    "time": 364.23917899999566,
                    "velocity": 0.2440944881889764,
                    "duration": 0.3260869999999727
                },
                {
                    "name": "D#4",
                    "midi": 63,
                    "time": 364.23917899999566,
                    "velocity": 0.2440944881889764,
                    "duration": 0.3260869999999727
                },
                {
                    "name": "F#4",
                    "midi": 66,
                    "time": 364.23917899999566,
                    "velocity": 0.2440944881889764,
                    "duration": 0.3260869999999727
                },
                {
                    "name": "G#4",
                    "midi": 68,
                    "time": 364.23917899999566,
                    "velocity": 0.29133858267716534,
                    "duration": 0.3260869999999727
                },
                {
                    "name": "C4",
                    "midi": 60,
                    "time": 364.8913529999956,
                    "velocity": 0.2283464566929134,
                    "duration": 0.3260869999999727
                },
                {
                    "name": "D#4",
                    "midi": 63,
                    "time": 364.8913529999956,
                    "velocity": 0.2283464566929134,
                    "duration": 0.3260869999999727
                },
                {
                    "name": "F#4",
                    "midi": 66,
                    "time": 364.8913529999956,
                    "velocity": 0.2677165354330709,
                    "duration": 0.3260869999999727
                },
                {
                    "name": "F#4",
                    "midi": 66,
                    "time": 365.54352699999555,
                    "velocity": 0.2204724409448819,
                    "duration": 0.3260869999999727
                },
                {
                    "name": "C4",
                    "midi": 60,
                    "time": 365.54352699999555,
                    "velocity": 0.2204724409448819,
                    "duration": 0.3260869999999727
                },
                {
                    "name": "D#4",
                    "midi": 63,
                    "time": 365.54352699999555,
                    "velocity": 0.2204724409448819,
                    "duration": 0.3260869999999727
                },
                {
                    "name": "G#4",
                    "midi": 68,
                    "time": 365.54352699999555,
                    "velocity": 0.2677165354330709,
                    "duration": 0.3260869999999727
                },
                {
                    "name": "C4",
                    "midi": 60,
                    "time": 366.1957009999955,
                    "velocity": 0.2125984251968504,
                    "duration": 0.3260869999999727
                },
                {
                    "name": "D#4",
                    "midi": 63,
                    "time": 366.1957009999955,
                    "velocity": 0.2125984251968504,
                    "duration": 0.3260869999999727
                },
                {
                    "name": "F#4",
                    "midi": 66,
                    "time": 366.1957009999955,
                    "velocity": 0.25984251968503935,
                    "duration": 0.3260869999999727
                },
                {
                    "name": "C4",
                    "midi": 60,
                    "time": 366.84787499999544,
                    "velocity": 0.2125984251968504,
                    "duration": 0.3260869999999727
                },
                {
                    "name": "D#4",
                    "midi": 63,
                    "time": 366.84787499999544,
                    "velocity": 0.2125984251968504,
                    "duration": 0.3260869999999727
                },
                {
                    "name": "F#4",
                    "midi": 66,
                    "time": 366.84787499999544,
                    "velocity": 0.2125984251968504,
                    "duration": 0.3260869999999727
                },
                {
                    "name": "A4",
                    "midi": 69,
                    "time": 366.84787499999544,
                    "velocity": 0.25196850393700787,
                    "duration": 0.3260869999999727
                },
                {
                    "name": "F#3",
                    "midi": 54,
                    "time": 367.5000489999954,
                    "velocity": 0.2047244094488189,
                    "duration": 0.3260869999999727
                },
                {
                    "name": "C3",
                    "midi": 48,
                    "time": 367.5000489999954,
                    "velocity": 0.2047244094488189,
                    "duration": 0.3260869999999727
                },
                {
                    "name": "D#3",
                    "midi": 51,
                    "time": 367.5000489999954,
                    "velocity": 0.2047244094488189,
                    "duration": 0.3260869999999727
                },
                {
                    "name": "A3",
                    "midi": 57,
                    "time": 367.5000489999954,
                    "velocity": 0.2440944881889764,
                    "duration": 0.3260869999999727
                },
                {
                    "name": "C#3",
                    "midi": 49,
                    "time": 368.15222299999533,
                    "velocity": 0.2125984251968504,
                    "duration": 0.3260869999999727
                },
                {
                    "name": "F#3",
                    "midi": 54,
                    "time": 368.15222299999533,
                    "velocity": 0.2125984251968504,
                    "duration": 0.3260869999999727
                },
                {
                    "name": "A3",
                    "midi": 57,
                    "time": 368.15222299999533,
                    "velocity": 0.25196850393700787,
                    "duration": 0.3260869999999727
                },
                {
                    "name": "A3",
                    "midi": 57,
                    "time": 368.8043969999953,
                    "velocity": 0.1732283464566929,
                    "duration": 0.3260869999999727
                },
                {
                    "name": "C#3",
                    "midi": 49,
                    "time": 368.8043969999953,
                    "velocity": 0.1732283464566929,
                    "duration": 0.3260869999999727
                },
                {
                    "name": "F#3",
                    "midi": 54,
                    "time": 368.8043969999953,
                    "velocity": 0.1732283464566929,
                    "duration": 0.3260869999999727
                },
                {
                    "name": "C4",
                    "midi": 60,
                    "time": 368.8043969999953,
                    "velocity": 0.2047244094488189,
                    "duration": 0.3260869999999727
                },
                {
                    "name": "A3",
                    "midi": 57,
                    "time": 369.4565709999952,
                    "velocity": 0.2047244094488189,
                    "duration": 0.3260869999999727
                },
                {
                    "name": "C#3",
                    "midi": 49,
                    "time": 369.4565709999952,
                    "velocity": 0.2047244094488189,
                    "duration": 0.3260869999999727
                },
                {
                    "name": "F#3",
                    "midi": 54,
                    "time": 369.4565709999952,
                    "velocity": 0.2047244094488189,
                    "duration": 0.3260869999999727
                },
                {
                    "name": "C#4",
                    "midi": 61,
                    "time": 369.4565709999952,
                    "velocity": 0.2440944881889764,
                    "duration": 0.3260869999999727
                },
                {
                    "name": "F3",
                    "midi": 53,
                    "time": 369.7826579999952,
                    "velocity": 0.2047244094488189,
                    "duration": 0.6521740000000023
                },
                {
                    "name": "C#3",
                    "midi": 49,
                    "time": 369.7826579999952,
                    "velocity": 0.2047244094488189,
                    "duration": 0.6521740000000023
                },
                {
                    "name": "G#3",
                    "midi": 56,
                    "time": 369.7826579999952,
                    "velocity": 0.2047244094488189,
                    "duration": 0.6521740000000023
                },
                {
                    "name": "C#4",
                    "midi": 61,
                    "time": 369.7826579999952,
                    "velocity": 0.2440944881889764,
                    "duration": 0.6521740000000023
                },
                {
                    "name": "C#3",
                    "midi": 49,
                    "time": 370.4348319999952,
                    "velocity": 0.2047244094488189,
                    "duration": 0.6521740000000023
                },
                {
                    "name": "F3",
                    "midi": 53,
                    "time": 370.4348319999952,
                    "velocity": 0.2047244094488189,
                    "duration": 0.6521740000000023
                },
                {
                    "name": "G#3",
                    "midi": 56,
                    "time": 370.4348319999952,
                    "velocity": 0.2440944881889764,
                    "duration": 0.6521740000000023
                },
                {
                    "name": "C#3",
                    "midi": 49,
                    "time": 371.0870059999952,
                    "velocity": 0.2047244094488189,
                    "duration": 0.6521740000000023
                },
                {
                    "name": "G#3",
                    "midi": 56,
                    "time": 371.0870059999952,
                    "velocity": 0.2047244094488189,
                    "duration": 0.6521740000000023
                },
                {
                    "name": "B3",
                    "midi": 59,
                    "time": 371.0870059999952,
                    "velocity": 0.2440944881889764,
                    "duration": 0.6521740000000023
                },
                {
                    "name": "C#3",
                    "midi": 49,
                    "time": 371.7391799999952,
                    "velocity": 0.2125984251968504,
                    "duration": 0.6521740000000023
                },
                {
                    "name": "G#3",
                    "midi": 56,
                    "time": 371.7391799999952,
                    "velocity": 0.2125984251968504,
                    "duration": 0.6521740000000023
                },
                {
                    "name": "B3",
                    "midi": 59,
                    "time": 371.7391799999952,
                    "velocity": 0.25196850393700787,
                    "duration": 0.6521740000000023
                },
                {
                    "name": "C#3",
                    "midi": 49,
                    "time": 372.3913539999952,
                    "velocity": 0.18110236220472442,
                    "duration": 0.6521740000000023
                },
                {
                    "name": "G#3",
                    "midi": 56,
                    "time": 372.3913539999952,
                    "velocity": 0.18110236220472442,
                    "duration": 0.6521740000000023
                },
                {
                    "name": "B3",
                    "midi": 59,
                    "time": 372.3913539999952,
                    "velocity": 0.2125984251968504,
                    "duration": 0.6521740000000023
                },
                {
                    "name": "C#3",
                    "midi": 49,
                    "time": 373.0435279999952,
                    "velocity": 0.2047244094488189,
                    "duration": 0.6521740000000023
                },
                {
                    "name": "F#3",
                    "midi": 54,
                    "time": 373.0435279999952,
                    "velocity": 0.2047244094488189,
                    "duration": 0.6521740000000023
                },
                {
                    "name": "A3",
                    "midi": 57,
                    "time": 373.0435279999952,
                    "velocity": 0.2440944881889764,
                    "duration": 0.6521740000000023
                },
                {
                    "name": "C#3",
                    "midi": 49,
                    "time": 373.6957019999952,
                    "velocity": 0.18110236220472442,
                    "duration": 0.6521740000000023
                },
                {
                    "name": "F#3",
                    "midi": 54,
                    "time": 373.6957019999952,
                    "velocity": 0.18110236220472442,
                    "duration": 0.6521740000000023
                },
                {
                    "name": "A3",
                    "midi": 57,
                    "time": 373.6957019999952,
                    "velocity": 0.2125984251968504,
                    "duration": 0.6521740000000023
                },
                {
                    "name": "B2",
                    "midi": 47,
                    "time": 374.3478759999952,
                    "velocity": 0.2047244094488189,
                    "duration": 0.6521740000000023
                },
                {
                    "name": "D3",
                    "midi": 50,
                    "time": 374.3478759999952,
                    "velocity": 0.2047244094488189,
                    "duration": 0.6521740000000023
                },
                {
                    "name": "F3",
                    "midi": 53,
                    "time": 374.3478759999952,
                    "velocity": 0.2047244094488189,
                    "duration": 0.6521740000000023
                },
                {
                    "name": "G#3",
                    "midi": 56,
                    "time": 374.3478759999952,
                    "velocity": 0.2440944881889764,
                    "duration": 0.6521740000000023
                },
                {
                    "name": "A2",
                    "midi": 45,
                    "time": 375.0000499999952,
                    "velocity": 0.2047244094488189,
                    "duration": 0.6521740000000023
                },
                {
                    "name": "C3",
                    "midi": 48,
                    "time": 375.0000499999952,
                    "velocity": 0.2047244094488189,
                    "duration": 0.6521740000000023
                },
                {
                    "name": "D#3",
                    "midi": 51,
                    "time": 375.0000499999952,
                    "velocity": 0.2047244094488189,
                    "duration": 0.6521740000000023
                },
                {
                    "name": "F#3",
                    "midi": 54,
                    "time": 375.0000499999952,
                    "velocity": 0.2440944881889764,
                    "duration": 0.6521740000000023
                },
                {
                    "name": "D#3",
                    "midi": 51,
                    "time": 375.6522239999952,
                    "velocity": 0.2125984251968504,
                    "duration": 0.6521740000000023
                },
                {
                    "name": "A#2",
                    "midi": 46,
                    "time": 375.6522239999952,
                    "velocity": 0.2125984251968504,
                    "duration": 0.6521740000000023
                },
                {
                    "name": "B2",
                    "midi": 47,
                    "time": 375.6522239999952,
                    "velocity": 0.2125984251968504,
                    "duration": 0.6521740000000023
                },
                {
                    "name": "F#3",
                    "midi": 54,
                    "time": 375.6522239999952,
                    "velocity": 0.25196850393700787,
                    "duration": 0.6521740000000023
                },
                {
                    "name": "D#3",
                    "midi": 51,
                    "time": 376.3043979999952,
                    "velocity": 0.18110236220472442,
                    "duration": 0.6521740000000023
                },
                {
                    "name": "A#2",
                    "midi": 46,
                    "time": 376.3043979999952,
                    "velocity": 0.18110236220472442,
                    "duration": 0.6521740000000023
                },
                {
                    "name": "B2",
                    "midi": 47,
                    "time": 376.3043979999952,
                    "velocity": 0.18110236220472442,
                    "duration": 0.6521740000000023
                },
                {
                    "name": "F#3",
                    "midi": 54,
                    "time": 376.3043979999952,
                    "velocity": 0.2125984251968504,
                    "duration": 0.6521740000000023
                },
                {
                    "name": "G#2",
                    "midi": 44,
                    "time": 376.9565719999952,
                    "velocity": 0.2047244094488189,
                    "duration": 0.6521740000000023
                },
                {
                    "name": "C#3",
                    "midi": 49,
                    "time": 376.9565719999952,
                    "velocity": 0.2047244094488189,
                    "duration": 0.6521740000000023
                },
                {
                    "name": "F3",
                    "midi": 53,
                    "time": 376.9565719999952,
                    "velocity": 0.2440944881889764,
                    "duration": 0.6521740000000023
                },
                {
                    "name": "G#2",
                    "midi": 44,
                    "time": 377.6087459999952,
                    "velocity": 0.18110236220472442,
                    "duration": 0.6521740000000023
                },
                {
                    "name": "C#3",
                    "midi": 49,
                    "time": 377.6087459999952,
                    "velocity": 0.18110236220472442,
                    "duration": 0.6521740000000023
                },
                {
                    "name": "F3",
                    "midi": 53,
                    "time": 377.6087459999952,
                    "velocity": 0.2125984251968504,
                    "duration": 0.6521740000000023
                },
                {
                    "name": "C#3",
                    "midi": 49,
                    "time": 378.2609199999952,
                    "velocity": 0.2047244094488189,
                    "duration": 0.6521739999999454
                },
                {
                    "name": "F3",
                    "midi": 53,
                    "time": 378.2609199999952,
                    "velocity": 0.2440944881889764,
                    "duration": 0.3260869999999727
                },
                {
                    "name": "F3",
                    "midi": 53,
                    "time": 378.5870069999952,
                    "velocity": 0.2440944881889764,
                    "duration": 0.3260869999999727
                },
                {
                    "name": "G#3",
                    "midi": 56,
                    "time": 378.5870069999952,
                    "velocity": 0.2440944881889764,
                    "duration": 0.3260869999999727
                },
                {
                    "name": "B3",
                    "midi": 59,
                    "time": 378.91309399999517,
                    "velocity": 0.25196850393700787,
                    "duration": 0.3260869999999727
                },
                {
                    "name": "C#3",
                    "midi": 49,
                    "time": 378.91309399999517,
                    "velocity": 0.2125984251968504,
                    "duration": 0.6521739999999454
                },
                {
                    "name": "G#3",
                    "midi": 56,
                    "time": 378.91309399999517,
                    "velocity": 0.25196850393700787,
                    "duration": 0.3260869999999727
                },
                {
                    "name": "D4",
                    "midi": 62,
                    "time": 379.23918099999514,
                    "velocity": 0.2677165354330709,
                    "duration": 0.3260869999999727
                },
                {
                    "name": "B3",
                    "midi": 59,
                    "time": 379.23918099999514,
                    "velocity": 0.2677165354330709,
                    "duration": 0.3260869999999727
                },
                {
                    "name": "C#3",
                    "midi": 49,
                    "time": 379.5652679999951,
                    "velocity": 0.2440944881889764,
                    "duration": 0.6467392166666741
                },
                {
                    "name": "B3",
                    "midi": 59,
                    "time": 379.5652679999951,
                    "velocity": 0.2440944881889764,
                    "duration": 0.6467392166666741
                },
                {
                    "name": "D4",
                    "midi": 62,
                    "time": 379.5652679999951,
                    "velocity": 0.29133858267716534,
                    "duration": 0.6467392166666741
                },
                {
                    "name": "C#3",
                    "midi": 49,
                    "time": 380.2174419999951,
                    "velocity": 0.25196850393700787,
                    "duration": 0.6467392166666741
                },
                {
                    "name": "B3",
                    "midi": 59,
                    "time": 380.2174419999951,
                    "velocity": 0.25196850393700787,
                    "duration": 0.6467392166666741
                },
                {
                    "name": "D4",
                    "midi": 62,
                    "time": 380.2174419999951,
                    "velocity": 0.2992125984251969,
                    "duration": 0.6467392166666741
                },
                {
                    "name": "C#3",
                    "midi": 49,
                    "time": 380.8696159999951,
                    "velocity": 0.2677165354330709,
                    "duration": 0.6467392166666741
                },
                {
                    "name": "A3",
                    "midi": 57,
                    "time": 380.8696159999951,
                    "velocity": 0.2677165354330709,
                    "duration": 0.6467392166666741
                },
                {
                    "name": "C#4",
                    "midi": 61,
                    "time": 380.8696159999951,
                    "velocity": 0.3228346456692913,
                    "duration": 0.6467392166666741
                },
                {
                    "name": "C#3",
                    "midi": 49,
                    "time": 381.5217899999951,
                    "velocity": 0.2755905511811024,
                    "duration": 0.6467392166666741
                },
                {
                    "name": "A3",
                    "midi": 57,
                    "time": 381.5217899999951,
                    "velocity": 0.2755905511811024,
                    "duration": 0.6467392166666741
                },
                {
                    "name": "C#4",
                    "midi": 61,
                    "time": 381.5217899999951,
                    "velocity": 0.33070866141732286,
                    "duration": 0.6467392166666741
                },
                {
                    "name": "C#3",
                    "midi": 49,
                    "time": 382.1739639999951,
                    "velocity": 0.25196850393700787,
                    "duration": 0.6467392166666741
                },
                {
                    "name": "G#3",
                    "midi": 56,
                    "time": 382.1739639999951,
                    "velocity": 0.25196850393700787,
                    "duration": 0.6467392166666741
                },
                {
                    "name": "B3",
                    "midi": 59,
                    "time": 382.1739639999951,
                    "velocity": 0.2992125984251969,
                    "duration": 0.6467392166666741
                },
                {
                    "name": "C#3",
                    "midi": 49,
                    "time": 382.8261379999951,
                    "velocity": 0.2283464566929134,
                    "duration": 0.6467392166666741
                },
                {
                    "name": "F#3",
                    "midi": 54,
                    "time": 382.8261379999951,
                    "velocity": 0.2283464566929134,
                    "duration": 0.6467392166666741
                },
                {
                    "name": "A3",
                    "midi": 57,
                    "time": 382.8261379999951,
                    "velocity": 0.2677165354330709,
                    "duration": 0.6467392166666741
                },
                {
                    "name": "C#3",
                    "midi": 49,
                    "time": 383.4783119999951,
                    "velocity": 0.25984251968503935,
                    "duration": 0.6467392166666741
                },
                {
                    "name": "F#3",
                    "midi": 54,
                    "time": 383.4783119999951,
                    "velocity": 0.25984251968503935,
                    "duration": 0.6467392166666741
                },
                {
                    "name": "A3",
                    "midi": 57,
                    "time": 383.4783119999951,
                    "velocity": 0.31496062992125984,
                    "duration": 0.6467392166666741
                },
                {
                    "name": "A3",
                    "midi": 57,
                    "time": 384.13048599999513,
                    "velocity": 0.23622047244094488,
                    "duration": 0.6467392166666741
                },
                {
                    "name": "C#3",
                    "midi": 49,
                    "time": 384.13048599999513,
                    "velocity": 0.23622047244094488,
                    "duration": 0.6467392166666741
                },
                {
                    "name": "F#3",
                    "midi": 54,
                    "time": 384.13048599999513,
                    "velocity": 0.23622047244094488,
                    "duration": 0.6467392166666741
                },
                {
                    "name": "C4",
                    "midi": 60,
                    "time": 384.13048599999513,
                    "velocity": 0.28346456692913385,
                    "duration": 0.6467392166666741
                },
                {
                    "name": "F3",
                    "midi": 53,
                    "time": 384.78265999999513,
                    "velocity": 0.2204724409448819,
                    "duration": 0.6467392166666741
                },
                {
                    "name": "C#3",
                    "midi": 49,
                    "time": 384.78265999999513,
                    "velocity": 0.2204724409448819,
                    "duration": 0.6467392166666741
                },
                {
                    "name": "G#3",
                    "midi": 56,
                    "time": 384.78265999999513,
                    "velocity": 0.2204724409448819,
                    "duration": 0.6467392166666741
                },
                {
                    "name": "C#4",
                    "midi": 61,
                    "time": 384.78265999999513,
                    "velocity": 0.25984251968503935,
                    "duration": 0.6467392166666741
                },
                {
                    "name": "F3",
                    "midi": 53,
                    "time": 385.43483399999513,
                    "velocity": 0.2204724409448819,
                    "duration": 0.6467392166666741
                },
                {
                    "name": "C#3",
                    "midi": 49,
                    "time": 385.43483399999513,
                    "velocity": 0.2204724409448819,
                    "duration": 0.6467392166666741
                },
                {
                    "name": "G#3",
                    "midi": 56,
                    "time": 385.43483399999513,
                    "velocity": 0.2204724409448819,
                    "duration": 0.6467392166666741
                },
                {
                    "name": "C#4",
                    "midi": 61,
                    "time": 385.43483399999513,
                    "velocity": 0.25984251968503935,
                    "duration": 0.6467392166666741
                },
                {
                    "name": "F3",
                    "midi": 53,
                    "time": 386.08700799999514,
                    "velocity": 0.2125984251968504,
                    "duration": 0.6467392166666741
                },
                {
                    "name": "C#3",
                    "midi": 49,
                    "time": 386.08700799999514,
                    "velocity": 0.2125984251968504,
                    "duration": 0.6467392166666741
                },
                {
                    "name": "G#3",
                    "midi": 56,
                    "time": 386.08700799999514,
                    "velocity": 0.2125984251968504,
                    "duration": 0.6467392166666741
                },
                {
                    "name": "C#4",
                    "midi": 61,
                    "time": 386.08700799999514,
                    "velocity": 0.25196850393700787,
                    "duration": 0.6467392166666741
                },
                {
                    "name": "E3",
                    "midi": 52,
                    "time": 386.73918199999514,
                    "velocity": 0.2047244094488189,
                    "duration": 0.6467392166666741
                },
                {
                    "name": "A#3",
                    "midi": 58,
                    "time": 386.73918199999514,
                    "velocity": 0.2047244094488189,
                    "duration": 0.6467392166666741
                },
                {
                    "name": "C#3",
                    "midi": 49,
                    "time": 386.73918199999514,
                    "velocity": 0.2047244094488189,
                    "duration": 0.6467392166666741
                },
                {
                    "name": "G3",
                    "midi": 55,
                    "time": 386.73918199999514,
                    "velocity": 0.2047244094488189,
                    "duration": 0.6467392166666741
                },
                {
                    "name": "C#4",
                    "midi": 61,
                    "time": 386.73918199999514,
                    "velocity": 0.25196850393700787,
                    "duration": 0.6467392166666741
                },
                {
                    "name": "G3",
                    "midi": 55,
                    "time": 387.39135599999514,
                    "velocity": 0.2047244094488189,
                    "duration": 0.6467392166666741
                },
                {
                    "name": "D3",
                    "midi": 50,
                    "time": 387.39135599999514,
                    "velocity": 0.2047244094488189,
                    "duration": 0.6467392166666741
                },
                {
                    "name": "B3",
                    "midi": 59,
                    "time": 387.39135599999514,
                    "velocity": 0.2047244094488189,
                    "duration": 0.6467392166666741
                },
                {
                    "name": "D4",
                    "midi": 62,
                    "time": 387.39135599999514,
                    "velocity": 0.2440944881889764,
                    "duration": 0.6467392166666741
                },
                {
                    "name": "G3",
                    "midi": 55,
                    "time": 388.04352999999514,
                    "velocity": 0.1968503937007874,
                    "duration": 0.6467392166666741
                },
                {
                    "name": "D3",
                    "midi": 50,
                    "time": 388.04352999999514,
                    "velocity": 0.1968503937007874,
                    "duration": 0.6467392166666741
                },
                {
                    "name": "B3",
                    "midi": 59,
                    "time": 388.04352999999514,
                    "velocity": 0.1968503937007874,
                    "duration": 0.6467392166666741
                },
                {
                    "name": "D4",
                    "midi": 62,
                    "time": 388.04352999999514,
                    "velocity": 0.23622047244094488,
                    "duration": 0.6467392166666741
                },
                {
                    "name": "D3",
                    "midi": 50,
                    "time": 388.69570399999515,
                    "velocity": 0.1889763779527559,
                    "duration": 0.6467392166666741
                },
                {
                    "name": "B3",
                    "midi": 59,
                    "time": 388.69570399999515,
                    "velocity": 0.1889763779527559,
                    "duration": 0.6467392166666741
                },
                {
                    "name": "G3",
                    "midi": 55,
                    "time": 388.69570399999515,
                    "velocity": 0.1889763779527559,
                    "duration": 0.6467392166666741
                },
                {
                    "name": "D4",
                    "midi": 62,
                    "time": 388.69570399999515,
                    "velocity": 0.2283464566929134,
                    "duration": 0.6467392166666741
                },
                {
                    "name": "G3",
                    "midi": 55,
                    "time": 389.34787799999515,
                    "velocity": 0.1889763779527559,
                    "duration": 0.6467392166666741
                },
                {
                    "name": "D3",
                    "midi": 50,
                    "time": 389.34787799999515,
                    "velocity": 0.1889763779527559,
                    "duration": 0.6467392166666741
                },
                {
                    "name": "B3",
                    "midi": 59,
                    "time": 389.34787799999515,
                    "velocity": 0.1889763779527559,
                    "duration": 0.6467392166666741
                },
                {
                    "name": "D4",
                    "midi": 62,
                    "time": 389.34787799999515,
                    "velocity": 0.2204724409448819,
                    "duration": 0.6467392166666741
                },
                {
                    "name": "G3",
                    "midi": 55,
                    "time": 390.00005199999515,
                    "velocity": 0.2047244094488189,
                    "duration": 0.6467392166666741
                },
                {
                    "name": "B3",
                    "midi": 59,
                    "time": 390.00005199999515,
                    "velocity": 0.2047244094488189,
                    "duration": 0.6467392166666741
                },
                {
                    "name": "D4",
                    "midi": 62,
                    "time": 390.00005199999515,
                    "velocity": 0.2440944881889764,
                    "duration": 0.6467392166666741
                },
                {
                    "name": "B3",
                    "midi": 59,
                    "time": 390.65222599999515,
                    "velocity": 0.2283464566929134,
                    "duration": 0.6467392166666741
                },
                {
                    "name": "G3",
                    "midi": 55,
                    "time": 390.65222599999515,
                    "velocity": 0.2283464566929134,
                    "duration": 0.6467392166666741
                },
                {
                    "name": "D4",
                    "midi": 62,
                    "time": 390.65222599999515,
                    "velocity": 0.2755905511811024,
                    "duration": 0.6467392166666741
                },
                {
                    "name": "G3",
                    "midi": 55,
                    "time": 391.30439999999516,
                    "velocity": 0.25984251968503935,
                    "duration": 0.6467392166666741
                },
                {
                    "name": "C4",
                    "midi": 60,
                    "time": 391.30439999999516,
                    "velocity": 0.25984251968503935,
                    "duration": 0.6467392166666741
                },
                {
                    "name": "E4",
                    "midi": 64,
                    "time": 391.30439999999516,
                    "velocity": 0.30708661417322836,
                    "duration": 0.6467392166666741
                },
                {
                    "name": "G3",
                    "midi": 55,
                    "time": 391.95657399999516,
                    "velocity": 0.2677165354330709,
                    "duration": 0.6467392166666741
                },
                {
                    "name": "C4",
                    "midi": 60,
                    "time": 391.95657399999516,
                    "velocity": 0.2677165354330709,
                    "duration": 0.6467392166666741
                },
                {
                    "name": "E4",
                    "midi": 64,
                    "time": 391.95657399999516,
                    "velocity": 0.3228346456692913,
                    "duration": 0.6467392166666741
                },
                {
                    "name": "C4",
                    "midi": 60,
                    "time": 392.60874799999516,
                    "velocity": 0.23622047244094488,
                    "duration": 0.6467392166666741
                },
                {
                    "name": "G3",
                    "midi": 55,
                    "time": 392.60874799999516,
                    "velocity": 0.23622047244094488,
                    "duration": 0.6467392166666741
                },
                {
                    "name": "E4",
                    "midi": 64,
                    "time": 392.60874799999516,
                    "velocity": 0.28346456692913385,
                    "duration": 0.6467392166666741
                },
                {
                    "name": "G3",
                    "midi": 55,
                    "time": 393.26092199999516,
                    "velocity": 0.2125984251968504,
                    "duration": 0.6467392166666741
                },
                {
                    "name": "B3",
                    "midi": 59,
                    "time": 393.26092199999516,
                    "velocity": 0.2125984251968504,
                    "duration": 0.6467392166666741
                },
                {
                    "name": "D4",
                    "midi": 62,
                    "time": 393.26092199999516,
                    "velocity": 0.25196850393700787,
                    "duration": 0.6467392166666741
                },
                {
                    "name": "D3",
                    "midi": 50,
                    "time": 393.91309599999516,
                    "velocity": 0.1889763779527559,
                    "duration": 0.6467392166666741
                },
                {
                    "name": "G3",
                    "midi": 55,
                    "time": 393.91309599999516,
                    "velocity": 0.1889763779527559,
                    "duration": 0.6467392166666741
                },
                {
                    "name": "B3",
                    "midi": 59,
                    "time": 393.91309599999516,
                    "velocity": 0.1889763779527559,
                    "duration": 0.6467392166666741
                },
                {
                    "name": "D4",
                    "midi": 62,
                    "time": 393.91309599999516,
                    "velocity": 0.2204724409448819,
                    "duration": 0.6467392166666741
                },
                {
                    "name": "D3",
                    "midi": 50,
                    "time": 394.56526999999517,
                    "velocity": 0.1889763779527559,
                    "duration": 0.6467392166666741
                },
                {
                    "name": "A3",
                    "midi": 57,
                    "time": 394.56526999999517,
                    "velocity": 0.1889763779527559,
                    "duration": 0.6467392166666741
                },
                {
                    "name": "F#3",
                    "midi": 54,
                    "time": 394.56526999999517,
                    "velocity": 0.1889763779527559,
                    "duration": 0.6467392166666741
                },
                {
                    "name": "D4",
                    "midi": 62,
                    "time": 394.56526999999517,
                    "velocity": 0.2204724409448819,
                    "duration": 0.6467392166666741
                },
                {
                    "name": "F#3",
                    "midi": 54,
                    "time": 395.21744399999517,
                    "velocity": 0.1968503937007874,
                    "duration": 0.6467392166666741
                },
                {
                    "name": "D3",
                    "midi": 50,
                    "time": 395.21744399999517,
                    "velocity": 0.1968503937007874,
                    "duration": 0.6467392166666741
                },
                {
                    "name": "A3",
                    "midi": 57,
                    "time": 395.21744399999517,
                    "velocity": 0.1968503937007874,
                    "duration": 0.6467392166666741
                },
                {
                    "name": "D4",
                    "midi": 62,
                    "time": 395.21744399999517,
                    "velocity": 0.23622047244094488,
                    "duration": 0.6467392166666741
                },
                {
                    "name": "F#3",
                    "midi": 54,
                    "time": 395.86961799999517,
                    "velocity": 0.1889763779527559,
                    "duration": 0.6467392166666741
                },
                {
                    "name": "C#3",
                    "midi": 49,
                    "time": 395.86961799999517,
                    "velocity": 0.1889763779527559,
                    "duration": 0.6467392166666741
                },
                {
                    "name": "A3",
                    "midi": 57,
                    "time": 395.86961799999517,
                    "velocity": 0.1889763779527559,
                    "duration": 0.6467392166666741
                },
                {
                    "name": "C#4",
                    "midi": 61,
                    "time": 395.86961799999517,
                    "velocity": 0.2204724409448819,
                    "duration": 0.6467392166666741
                },
                {
                    "name": "F#3",
                    "midi": 54,
                    "time": 396.5217919999952,
                    "velocity": 0.1889763779527559,
                    "duration": 0.6467392166666741
                },
                {
                    "name": "C#3",
                    "midi": 49,
                    "time": 396.5217919999952,
                    "velocity": 0.1889763779527559,
                    "duration": 0.6467392166666741
                },
                {
                    "name": "A3",
                    "midi": 57,
                    "time": 396.5217919999952,
                    "velocity": 0.1889763779527559,
                    "duration": 0.6467392166666741
                },
                {
                    "name": "C#4",
                    "midi": 61,
                    "time": 396.5217919999952,
                    "velocity": 0.2204724409448819,
                    "duration": 0.6467392166666741
                },
                {
                    "name": "F3",
                    "midi": 53,
                    "time": 397.1739659999952,
                    "velocity": 0.1889763779527559,
                    "duration": 0.6467392166666741
                },
                {
                    "name": "C#3",
                    "midi": 49,
                    "time": 397.1739659999952,
                    "velocity": 0.1889763779527559,
                    "duration": 0.6467392166666741
                },
                {
                    "name": "G#3",
                    "midi": 56,
                    "time": 397.1739659999952,
                    "velocity": 0.1889763779527559,
                    "duration": 0.6467392166666741
                },
                {
                    "name": "C#4",
                    "midi": 61,
                    "time": 397.1739659999952,
                    "velocity": 0.2204724409448819,
                    "duration": 0.6467392166666741
                },
                {
                    "name": "C#3",
                    "midi": 49,
                    "time": 397.8261399999952,
                    "velocity": 0.2047244094488189,
                    "duration": 0.6467392166666741
                },
                {
                    "name": "F3",
                    "midi": 53,
                    "time": 397.8261399999952,
                    "velocity": 0.2047244094488189,
                    "duration": 0.6467392166666741
                },
                {
                    "name": "G#3",
                    "midi": 56,
                    "time": 397.8261399999952,
                    "velocity": 0.2047244094488189,
                    "duration": 0.6467392166666741
                },
                {
                    "name": "C#4",
                    "midi": 61,
                    "time": 397.8261399999952,
                    "velocity": 0.2440944881889764,
                    "duration": 0.6467392166666741
                },
                {
                    "name": "C#3",
                    "midi": 49,
                    "time": 398.4783139999952,
                    "velocity": 0.2283464566929134,
                    "duration": 0.6467392166666741
                },
                {
                    "name": "F3",
                    "midi": 53,
                    "time": 398.4783139999952,
                    "velocity": 0.2283464566929134,
                    "duration": 0.6467392166666741
                },
                {
                    "name": "G#3",
                    "midi": 56,
                    "time": 398.4783139999952,
                    "velocity": 0.2283464566929134,
                    "duration": 0.6467392166666741
                },
                {
                    "name": "C#4",
                    "midi": 61,
                    "time": 398.4783139999952,
                    "velocity": 0.2755905511811024,
                    "duration": 0.6467392166666741
                },
                {
                    "name": "F3",
                    "midi": 53,
                    "time": 399.1304879999952,
                    "velocity": 0.2677165354330709,
                    "duration": 0.6467392166666741
                },
                {
                    "name": "C#3",
                    "midi": 49,
                    "time": 399.1304879999952,
                    "velocity": 0.2677165354330709,
                    "duration": 0.6467392166666741
                },
                {
                    "name": "G#3",
                    "midi": 56,
                    "time": 399.1304879999952,
                    "velocity": 0.2677165354330709,
                    "duration": 0.6467392166666741
                },
                {
                    "name": "C#4",
                    "midi": 61,
                    "time": 399.1304879999952,
                    "velocity": 0.3228346456692913,
                    "duration": 0.6467392166666741
                },
                {
                    "name": "F3",
                    "midi": 53,
                    "time": 399.7826619999952,
                    "velocity": 0.28346456692913385,
                    "duration": 0.6467392166666741
                },
                {
                    "name": "C#3",
                    "midi": 49,
                    "time": 399.7826619999952,
                    "velocity": 0.28346456692913385,
                    "duration": 0.6467392166666741
                },
                {
                    "name": "G#3",
                    "midi": 56,
                    "time": 399.7826619999952,
                    "velocity": 0.28346456692913385,
                    "duration": 0.6467392166666741
                },
                {
                    "name": "C#4",
                    "midi": 61,
                    "time": 399.7826619999952,
                    "velocity": 0.33858267716535434,
                    "duration": 0.6467392166666741
                },
                {
                    "name": "F#3",
                    "midi": 54,
                    "time": 400.4348359999952,
                    "velocity": 0.2440944881889764,
                    "duration": 0.6467392166666741
                },
                {
                    "name": "A3",
                    "midi": 57,
                    "time": 400.4348359999952,
                    "velocity": 0.2440944881889764,
                    "duration": 0.6467392166666741
                },
                {
                    "name": "C#4",
                    "midi": 61,
                    "time": 400.4348359999952,
                    "velocity": 0.29133858267716534,
                    "duration": 0.6467392166666741
                },
                {
                    "name": "F#3",
                    "midi": 54,
                    "time": 401.0870099999952,
                    "velocity": 0.2047244094488189,
                    "duration": 0.6467392166666741
                },
                {
                    "name": "A3",
                    "midi": 57,
                    "time": 401.0870099999952,
                    "velocity": 0.2047244094488189,
                    "duration": 0.6467392166666741
                },
                {
                    "name": "C#4",
                    "midi": 61,
                    "time": 401.0870099999952,
                    "velocity": 0.25196850393700787,
                    "duration": 0.6467392166666741
                },
                {
                    "name": "C#4",
                    "midi": 61,
                    "time": 401.7391839999952,
                    "velocity": 0.25196850393700787,
                    "duration": 0.32336960833333706
                },
                {
                    "name": "A3",
                    "midi": 57,
                    "time": 401.7391839999952,
                    "velocity": 0.25196850393700787,
                    "duration": 0.32336960833333706
                },
                {
                    "name": "C#3",
                    "midi": 49,
                    "time": 402.0652709999952,
                    "velocity": 0.1968503937007874,
                    "duration": 0.3260869999999727
                },
                {
                    "name": "A2",
                    "midi": 45,
                    "time": 402.0652709999952,
                    "velocity": 0.1968503937007874,
                    "duration": 0.3260869999999727
                },
                {
                    "name": "A3",
                    "midi": 57,
                    "time": 402.0652709999952,
                    "velocity": 0.23622047244094488,
                    "duration": 0.3260869999999727
                },
                {
                    "name": "G#2",
                    "midi": 44,
                    "time": 402.3913579999952,
                    "velocity": 0.25196850393700787,
                    "duration": 0.3260869999999727
                },
                {
                    "name": "C#3",
                    "midi": 49,
                    "time": 402.3913579999952,
                    "velocity": 0.25196850393700787,
                    "duration": 0.3260869999999727
                },
                {
                    "name": "G#3",
                    "midi": 56,
                    "time": 402.3913579999952,
                    "velocity": 0.29133858267716534,
                    "duration": 0.3260869999999727
                },
                {
                    "name": "F#2",
                    "midi": 42,
                    "time": 402.71744499999517,
                    "velocity": 0.2677165354330709,
                    "duration": 0.3260869999999727
                },
                {
                    "name": "C#3",
                    "midi": 49,
                    "time": 402.71744499999517,
                    "velocity": 0.2677165354330709,
                    "duration": 0.3260869999999727
                },
                {
                    "name": "F#3",
                    "midi": 54,
                    "time": 402.71744499999517,
                    "velocity": 0.3228346456692913,
                    "duration": 0.3260869999999727
                },
                {
                    "name": "C#2",
                    "midi": 37,
                    "time": 403.04353199999514,
                    "velocity": 0.29133858267716534,
                    "duration": 0.32336960833333706
                },
                {
                    "name": "C#3",
                    "midi": 49,
                    "time": 403.04353199999514,
                    "velocity": 0.3464566929133858,
                    "duration": 0.32336960833333706
                },
                {
                    "name": "C#2",
                    "midi": 37,
                    "time": 403.36961899999517,
                    "velocity": 0.48031496062992124,
                    "duration": 0.6521740000000023
                },
                {
                    "name": "F1",
                    "midi": 29,
                    "time": 404.02179299999517,
                    "velocity": 0.30708661417322836,
                    "duration": 0.6521740000000023
                },
                {
                    "name": "F2",
                    "midi": 41,
                    "time": 404.02179299999517,
                    "velocity": 0.3700787401574803,
                    "duration": 0.6521740000000023
                },
                {
                    "name": "F#1",
                    "midi": 30,
                    "time": 404.6739669999952,
                    "velocity": 0.30708661417322836,
                    "duration": 0.6521740000000023
                },
                {
                    "name": "F#2",
                    "midi": 42,
                    "time": 404.6739669999952,
                    "velocity": 0.3700787401574803,
                    "duration": 0.6521740000000023
                },
                {
                    "name": "G#1",
                    "midi": 32,
                    "time": 405.3261409999952,
                    "velocity": 0.30708661417322836,
                    "duration": 0.6521740000000023
                },
                {
                    "name": "G#2",
                    "midi": 44,
                    "time": 405.3261409999952,
                    "velocity": 0.3700787401574803,
                    "duration": 0.6521740000000023
                },
                {
                    "name": "A1",
                    "midi": 33,
                    "time": 405.9783149999952,
                    "velocity": 0.3228346456692913,
                    "duration": 0.3260869999999727
                },
                {
                    "name": "A2",
                    "midi": 45,
                    "time": 405.9783149999952,
                    "velocity": 0.3858267716535433,
                    "duration": 0.3260869999999727
                },
                {
                    "name": "B1",
                    "midi": 35,
                    "time": 406.30440199999515,
                    "velocity": 0.3464566929133858,
                    "duration": 0.3260869999999727
                },
                {
                    "name": "B2",
                    "midi": 47,
                    "time": 406.30440199999515,
                    "velocity": 0.4094488188976378,
                    "duration": 0.3260869999999727
                },
                {
                    "name": "C2",
                    "midi": 36,
                    "time": 406.6304889999951,
                    "velocity": 0.36220472440944884,
                    "duration": 0.3260869999999727
                },
                {
                    "name": "C3",
                    "midi": 48,
                    "time": 406.6304889999951,
                    "velocity": 0.4330708661417323,
                    "duration": 0.3260869999999727
                },
                {
                    "name": "C#2",
                    "midi": 37,
                    "time": 406.9565759999951,
                    "velocity": 0.33070866141732286,
                    "duration": 0.3260869999999727
                },
                {
                    "name": "C#3",
                    "midi": 49,
                    "time": 406.9565759999951,
                    "velocity": 0.3937007874015748,
                    "duration": 0.3260869999999727
                },
                {
                    "name": "C2",
                    "midi": 36,
                    "time": 407.28266299999507,
                    "velocity": 0.28346456692913385,
                    "duration": 0.3260869999999727
                },
                {
                    "name": "C3",
                    "midi": 48,
                    "time": 407.28266299999507,
                    "velocity": 0.33858267716535434,
                    "duration": 0.3260869999999727
                },
                {
                    "name": "C#2",
                    "midi": 37,
                    "time": 407.60874999999504,
                    "velocity": 0.3228346456692913,
                    "duration": 0.3260869999999727
                },
                {
                    "name": "C#3",
                    "midi": 49,
                    "time": 407.60874999999504,
                    "velocity": 0.3858267716535433,
                    "duration": 0.3260869999999727
                },
                {
                    "name": "C2",
                    "midi": 36,
                    "time": 407.934836999995,
                    "velocity": 0.28346456692913385,
                    "duration": 0.3260869999999727
                },
                {
                    "name": "C3",
                    "midi": 48,
                    "time": 407.934836999995,
                    "velocity": 0.33858267716535434,
                    "duration": 0.3260869999999727
                },
                {
                    "name": "C#2",
                    "midi": 37,
                    "time": 408.260923999995,
                    "velocity": 0.30708661417322836,
                    "duration": 0.3260869999999727
                },
                {
                    "name": "C#3",
                    "midi": 49,
                    "time": 408.260923999995,
                    "velocity": 0.36220472440944884,
                    "duration": 0.3260869999999727
                },
                {
                    "name": "C2",
                    "midi": 36,
                    "time": 408.58701099999496,
                    "velocity": 0.2755905511811024,
                    "duration": 0.3260869999999727
                },
                {
                    "name": "C3",
                    "midi": 48,
                    "time": 408.58701099999496,
                    "velocity": 0.33070866141732286,
                    "duration": 0.3260869999999727
                },
                {
                    "name": "C#2",
                    "midi": 37,
                    "time": 408.91309799999493,
                    "velocity": 0.31496062992125984,
                    "duration": 0.3260869999999727
                },
                {
                    "name": "C#3",
                    "midi": 49,
                    "time": 408.91309799999493,
                    "velocity": 0.3779527559055118,
                    "duration": 0.3260869999999727
                },
                {
                    "name": "F3",
                    "midi": 53,
                    "time": 409.2391849999949,
                    "velocity": 0.28346456692913385,
                    "duration": 0.3260869999999727
                },
                {
                    "name": "G#3",
                    "midi": 56,
                    "time": 409.5652719999949,
                    "velocity": 0.36220472440944884,
                    "duration": 0.3260869999999727
                },
                {
                    "name": "F3",
                    "midi": 53,
                    "time": 409.89135899999485,
                    "velocity": 0.28346456692913385,
                    "duration": 0.3260869999999727
                },
                {
                    "name": "G#3",
                    "midi": 56,
                    "time": 410.2174459999948,
                    "velocity": 0.3464566929133858,
                    "duration": 0.3260869999999727
                },
                {
                    "name": "B3",
                    "midi": 59,
                    "time": 410.5435329999948,
                    "velocity": 0.28346456692913385,
                    "duration": 0.3260869999999727
                },
                {
                    "name": "C#3",
                    "midi": 49,
                    "time": 410.86961999999477,
                    "velocity": 0.2440944881889764,
                    "duration": 0.3260869999999727
                },
                {
                    "name": "F3",
                    "midi": 53,
                    "time": 410.86961999999477,
                    "velocity": 0.2440944881889764,
                    "duration": 0.3260869999999727
                },
                {
                    "name": "G#3",
                    "midi": 56,
                    "time": 410.86961999999477,
                    "velocity": 0.29133858267716534,
                    "duration": 0.3260869999999727
                },
                {
                    "name": "B3",
                    "midi": 59,
                    "time": 410.86961999999477,
                    "velocity": 0.3464566929133858,
                    "duration": 0.3260869999999727
                },
                {
                    "name": "C#2",
                    "midi": 37,
                    "time": 411.19570699999474,
                    "velocity": 0.4015748031496063,
                    "duration": 0.6521740000000023
                },
                {
                    "name": "C#3",
                    "midi": 49,
                    "time": 411.19570699999474,
                    "velocity": 0.48031496062992124,
                    "duration": 0.6521740000000023
                },
                {
                    "name": "F2",
                    "midi": 41,
                    "time": 411.84788099999474,
                    "velocity": 0.30708661417322836,
                    "duration": 0.6521740000000023
                },
                {
                    "name": "F3",
                    "midi": 53,
                    "time": 411.84788099999474,
                    "velocity": 0.3700787401574803,
                    "duration": 0.6521740000000023
                },
                {
                    "name": "F#2",
                    "midi": 42,
                    "time": 412.50005499999475,
                    "velocity": 0.30708661417322836,
                    "duration": 0.6521740000000023
                },
                {
                    "name": "F#3",
                    "midi": 54,
                    "time": 412.50005499999475,
                    "velocity": 0.3700787401574803,
                    "duration": 0.6521740000000023
                },
                {
                    "name": "G#2",
                    "midi": 44,
                    "time": 413.15222899999475,
                    "velocity": 0.30708661417322836,
                    "duration": 0.6521740000000023
                },
                {
                    "name": "G#3",
                    "midi": 56,
                    "time": 413.15222899999475,
                    "velocity": 0.3700787401574803,
                    "duration": 0.6521740000000023
                },
                {
                    "name": "A2",
                    "midi": 45,
                    "time": 413.80440299999475,
                    "velocity": 0.3228346456692913,
                    "duration": 0.3260869999999727
                },
                {
                    "name": "A3",
                    "midi": 57,
                    "time": 413.80440299999475,
                    "velocity": 0.3858267716535433,
                    "duration": 0.3260869999999727
                },
                {
                    "name": "B2",
                    "midi": 47,
                    "time": 414.1304899999947,
                    "velocity": 0.3464566929133858,
                    "duration": 0.3260869999999727
                },
                {
                    "name": "B3",
                    "midi": 59,
                    "time": 414.1304899999947,
                    "velocity": 0.4094488188976378,
                    "duration": 0.3260869999999727
                },
                {
                    "name": "C3",
                    "midi": 48,
                    "time": 414.4565769999947,
                    "velocity": 0.36220472440944884,
                    "duration": 0.6521740000000023
                },
                {
                    "name": "C4",
                    "midi": 60,
                    "time": 414.4565769999947,
                    "velocity": 0.4330708661417323,
                    "duration": 0.6521740000000023
                },
                {
                    "name": "C#3",
                    "midi": 49,
                    "time": 415.1087509999947,
                    "velocity": 0.28346456692913385,
                    "duration": 0.3260869999999727
                },
                {
                    "name": "C#4",
                    "midi": 61,
                    "time": 415.1087509999947,
                    "velocity": 0.33858267716535434,
                    "duration": 0.3260869999999727
                },
                {
                    "name": "C2",
                    "midi": 36,
                    "time": 415.43483799999467,
                    "velocity": 0.3228346456692913,
                    "duration": 0.3260869999999727
                },
                {
                    "name": "C3",
                    "midi": 48,
                    "time": 415.43483799999467,
                    "velocity": 0.3858267716535433,
                    "duration": 0.3260869999999727
                },
                {
                    "name": "C#2",
                    "midi": 37,
                    "time": 415.76092499999464,
                    "velocity": 0.28346456692913385,
                    "duration": 0.3260869999999727
                },
                {
                    "name": "C#3",
                    "midi": 49,
                    "time": 415.76092499999464,
                    "velocity": 0.33858267716535434,
                    "duration": 0.3260869999999727
                },
                {
                    "name": "C2",
                    "midi": 36,
                    "time": 416.0870119999946,
                    "velocity": 0.30708661417322836,
                    "duration": 0.3260869999999727
                },
                {
                    "name": "C3",
                    "midi": 48,
                    "time": 416.0870119999946,
                    "velocity": 0.36220472440944884,
                    "duration": 0.3260869999999727
                },
                {
                    "name": "C#2",
                    "midi": 37,
                    "time": 416.4130989999946,
                    "velocity": 0.2755905511811024,
                    "duration": 0.3260869999999727
                },
                {
                    "name": "C#3",
                    "midi": 49,
                    "time": 416.4130989999946,
                    "velocity": 0.33070866141732286,
                    "duration": 0.3260869999999727
                },
                {
                    "name": "C3",
                    "midi": 48,
                    "time": 416.73918599999456,
                    "velocity": 0.36220472440944884,
                    "duration": 0.3260869999999727
                },
                {
                    "name": "C2",
                    "midi": 36,
                    "time": 416.73918599999456,
                    "velocity": 0.30708661417322836,
                    "duration": 0.3260869999999727
                },
                {
                    "name": "C#2",
                    "midi": 37,
                    "time": 417.06527299999453,
                    "velocity": 0.2755905511811024,
                    "duration": 0.3260869999999727
                },
                {
                    "name": "C#3",
                    "midi": 49,
                    "time": 417.06527299999453,
                    "velocity": 0.33070866141732286,
                    "duration": 0.3260869999999727
                },
                {
                    "name": "C#2",
                    "midi": 37,
                    "time": 417.3913599999945,
                    "velocity": 0.2677165354330709,
                    "duration": 0.3260869999999727
                },
                {
                    "name": "A#2",
                    "midi": 46,
                    "time": 417.7174469999945,
                    "velocity": 0.23622047244094488,
                    "duration": 0.3260869999999727
                },
                {
                    "name": "D2",
                    "midi": 38,
                    "time": 418.04353399999445,
                    "velocity": 0.25984251968503935,
                    "duration": 0.3260869999999727
                },
                {
                    "name": "B2",
                    "midi": 47,
                    "time": 418.3696209999944,
                    "velocity": 0.23622047244094488,
                    "duration": 0.3260869999999727
                },
                {
                    "name": "G1",
                    "midi": 31,
                    "time": 418.6957079999944,
                    "velocity": 0.25984251968503935,
                    "duration": 0.3260869999999727
                },
                {
                    "name": "G2",
                    "midi": 43,
                    "time": 419.02179499999437,
                    "velocity": 0.2204724409448819,
                    "duration": 0.3260869999999727
                },
                {
                    "name": "D3",
                    "midi": 50,
                    "time": 419.34788199999434,
                    "velocity": 0.2204724409448819,
                    "duration": 0.3260869999999727
                },
                {
                    "name": "G2",
                    "midi": 43,
                    "time": 419.6739689999943,
                    "velocity": 0.2204724409448819,
                    "duration": 0.3260869999999727
                },
                {
                    "name": "D3",
                    "midi": 50,
                    "time": 420.0000559999943,
                    "velocity": 0.2204724409448819,
                    "duration": 0.3260869999999727
                },
                {
                    "name": "G2",
                    "midi": 43,
                    "time": 420.32614299999426,
                    "velocity": 0.2204724409448819,
                    "duration": 0.3260869999999727
                },
                {
                    "name": "B1",
                    "midi": 35,
                    "time": 420.65222999999423,
                    "velocity": 0.25984251968503935,
                    "duration": 0.3260869999999727
                },
                {
                    "name": "G2",
                    "midi": 43,
                    "time": 420.9783169999942,
                    "velocity": 0.2204724409448819,
                    "duration": 0.3260869999999727
                },
                {
                    "name": "G3",
                    "midi": 55,
                    "time": 421.3044039999942,
                    "velocity": 0.2204724409448819,
                    "duration": 0.3260869999999727
                },
                {
                    "name": "G2",
                    "midi": 43,
                    "time": 421.63049099999415,
                    "velocity": 0.2204724409448819,
                    "duration": 0.3260869999999727
                },
                {
                    "name": "G3",
                    "midi": 55,
                    "time": 421.9565779999941,
                    "velocity": 0.2204724409448819,
                    "duration": 0.3260869999999727
                },
                {
                    "name": "G2",
                    "midi": 43,
                    "time": 422.2826649999941,
                    "velocity": 0.2204724409448819,
                    "duration": 0.3260869999999727
                },
                {
                    "name": "C2",
                    "midi": 36,
                    "time": 422.60875199999407,
                    "velocity": 0.25984251968503935,
                    "duration": 0.3260869999999727
                },
                {
                    "name": "G2",
                    "midi": 43,
                    "time": 422.93483899999404,
                    "velocity": 0.2283464566929134,
                    "duration": 0.3260869999999727
                },
                {
                    "name": "G3",
                    "midi": 55,
                    "time": 423.260925999994,
                    "velocity": 0.2283464566929134,
                    "duration": 0.3260869999999727
                },
                {
                    "name": "G2",
                    "midi": 43,
                    "time": 423.587012999994,
                    "velocity": 0.2283464566929134,
                    "duration": 0.3260869999999727
                },
                {
                    "name": "G3",
                    "midi": 55,
                    "time": 423.91309999999396,
                    "velocity": 0.2283464566929134,
                    "duration": 0.3260869999999727
                },
                {
                    "name": "G2",
                    "midi": 43,
                    "time": 424.23918699999393,
                    "velocity": 0.2283464566929134,
                    "duration": 0.3260869999999727
                },
                {
                    "name": "G1",
                    "midi": 31,
                    "time": 424.5652739999939,
                    "velocity": 0.25984251968503935,
                    "duration": 0.3260869999999727
                },
                {
                    "name": "G2",
                    "midi": 43,
                    "time": 424.8913609999939,
                    "velocity": 0.2204724409448819,
                    "duration": 0.3260869999999727
                },
                {
                    "name": "G3",
                    "midi": 55,
                    "time": 425.21744799999385,
                    "velocity": 0.2204724409448819,
                    "duration": 0.3260869999999727
                },
                {
                    "name": "G2",
                    "midi": 43,
                    "time": 425.5435349999938,
                    "velocity": 0.2204724409448819,
                    "duration": 0.3260869999999727
                },
                {
                    "name": "G3",
                    "midi": 55,
                    "time": 425.8696219999938,
                    "velocity": 0.2204724409448819,
                    "duration": 0.16304350000001477
                },
                {
                    "name": "G2",
                    "midi": 43,
                    "time": 426.0326654999938,
                    "velocity": 0.1889763779527559,
                    "duration": 0.16304350000001477
                },
                {
                    "name": "D2",
                    "midi": 38,
                    "time": 426.1957089999938,
                    "velocity": 0.18110236220472442,
                    "duration": 0.3260869999999727
                },
                {
                    "name": "F#2",
                    "midi": 42,
                    "time": 426.1957089999938,
                    "velocity": 0.2204724409448819,
                    "duration": 0.3260869999999727
                },
                {
                    "name": "D2",
                    "midi": 38,
                    "time": 426.5217959999938,
                    "velocity": 0.1968503937007874,
                    "duration": 0.3260869999999727
                },
                {
                    "name": "F#2",
                    "midi": 42,
                    "time": 426.5217959999938,
                    "velocity": 0.23622047244094488,
                    "duration": 0.3260869999999727
                },
                {
                    "name": "A2",
                    "midi": 45,
                    "time": 426.8478829999938,
                    "velocity": 0.2125984251968504,
                    "duration": 0.3260869999999727
                },
                {
                    "name": "C#2",
                    "midi": 37,
                    "time": 427.17396999999374,
                    "velocity": 0.1732283464566929,
                    "duration": 0.3260869999999727
                },
                {
                    "name": "F#2",
                    "midi": 42,
                    "time": 427.17396999999374,
                    "velocity": 0.1732283464566929,
                    "duration": 0.3260869999999727
                },
                {
                    "name": "A2",
                    "midi": 45,
                    "time": 427.17396999999374,
                    "velocity": 0.2125984251968504,
                    "duration": 0.3260869999999727
                },
                {
                    "name": "C#3",
                    "midi": 49,
                    "time": 427.5000569999937,
                    "velocity": 0.2125984251968504,
                    "duration": 0.3260869999999727
                },
                {
                    "name": "C#2",
                    "midi": 37,
                    "time": 427.8261439999937,
                    "velocity": 0.1732283464566929,
                    "duration": 0.3260869999999727
                },
                {
                    "name": "F#2",
                    "midi": 42,
                    "time": 427.8261439999937,
                    "velocity": 0.1732283464566929,
                    "duration": 0.3260869999999727
                },
                {
                    "name": "A2",
                    "midi": 45,
                    "time": 427.8261439999937,
                    "velocity": 0.2125984251968504,
                    "duration": 0.3260869999999727
                },
                {
                    "name": "C#3",
                    "midi": 49,
                    "time": 428.15223099999366,
                    "velocity": 0.2125984251968504,
                    "duration": 0.3260869999999727
                },
                {
                    "name": "C#2",
                    "midi": 37,
                    "time": 428.47831799999364,
                    "velocity": 0.2204724409448819,
                    "duration": 0.3260869999999727
                },
                {
                    "name": "F2",
                    "midi": 41,
                    "time": 428.47831799999364,
                    "velocity": 0.2204724409448819,
                    "duration": 0.3260869999999727
                },
                {
                    "name": "G#2",
                    "midi": 44,
                    "time": 428.47831799999364,
                    "velocity": 0.25984251968503935,
                    "duration": 0.3260869999999727
                },
                {
                    "name": "C#3",
                    "midi": 49,
                    "time": 428.8044049999936,
                    "velocity": 0.2204724409448819,
                    "duration": 0.3260869999999727
                },
                {
                    "name": "C#2",
                    "midi": 37,
                    "time": 429.1304919999936,
                    "velocity": 0.18110236220472442,
                    "duration": 0.3260869999999727
                },
                {
                    "name": "F2",
                    "midi": 41,
                    "time": 429.1304919999936,
                    "velocity": 0.18110236220472442,
                    "duration": 0.3260869999999727
                },
                {
                    "name": "G#2",
                    "midi": 44,
                    "time": 429.1304919999936,
                    "velocity": 0.2204724409448819,
                    "duration": 0.3260869999999727
                },
                {
                    "name": "C#3",
                    "midi": 49,
                    "time": 429.45657899999355,
                    "velocity": 0.2204724409448819,
                    "duration": 0.3260869999999727
                },
                {
                    "name": "F#2",
                    "midi": 42,
                    "time": 429.7826659999935,
                    "velocity": 0.2204724409448819,
                    "duration": 0.3260869999999727
                },
                {
                    "name": "A2",
                    "midi": 45,
                    "time": 429.7826659999935,
                    "velocity": 0.2204724409448819,
                    "duration": 0.3260869999999727
                },
                {
                    "name": "C#3",
                    "midi": 49,
                    "time": 430.1087529999935,
                    "velocity": 0.2204724409448819,
                    "duration": 0.3260869999999727
                },
                {
                    "name": "F#2",
                    "midi": 42,
                    "time": 430.43483999999347,
                    "velocity": 0.2047244094488189,
                    "duration": 0.3260869999999727
                },
                {
                    "name": "A2",
                    "midi": 45,
                    "time": 430.43483999999347,
                    "velocity": 0.2440944881889764,
                    "duration": 0.3260869999999727
                },
                {
                    "name": "C#3",
                    "midi": 49,
                    "time": 430.76092699999344,
                    "velocity": 0.2047244094488189,
                    "duration": 0.3260869999999727
                },
                {
                    "name": "B1",
                    "midi": 35,
                    "time": 431.0870139999934,
                    "velocity": 0.1732283464566929,
                    "duration": 0.3260869999999727
                },
                {
                    "name": "B2",
                    "midi": 47,
                    "time": 431.0870139999934,
                    "velocity": 0.2047244094488189,
                    "duration": 0.3260869999999727
                },
                {
                    "name": "D3",
                    "midi": 50,
                    "time": 431.4131009999934,
                    "velocity": 0.2047244094488189,
                    "duration": 0.3260869999999727
                },
                {
                    "name": "B1",
                    "midi": 35,
                    "time": 431.73918799999336,
                    "velocity": 0.1732283464566929,
                    "duration": 0.3260869999999727
                },
                {
                    "name": "G2",
                    "midi": 43,
                    "time": 431.73918799999336,
                    "velocity": 0.2047244094488189,
                    "duration": 0.3260869999999727
                },
                {
                    "name": "B2",
                    "midi": 47,
                    "time": 432.06527499999333,
                    "velocity": 0.2047244094488189,
                    "duration": 0.32065221666664456
                },
                {
                    "name": "B1",
                    "midi": 35,
                    "time": 432.3913619999933,
                    "velocity": 0.2047244094488189,
                    "duration": 0.3260869999999727
                },
                {
                    "name": "B2",
                    "midi": 47,
                    "time": 432.3913619999933,
                    "velocity": 0.2440944881889764,
                    "duration": 0.3260869999999727
                },
                {
                    "name": "B2",
                    "midi": 47,
                    "time": 432.7174489999933,
                    "velocity": 0.1889763779527559,
                    "duration": 0.3260869999999727
                },
                {
                    "name": "C#2",
                    "midi": 37,
                    "time": 433.04353599999325,
                    "velocity": 0.15748031496062992,
                    "duration": 0.3260869999999727
                },
                {
                    "name": "C#3",
                    "midi": 49,
                    "time": 433.04353599999325,
                    "velocity": 0.1889763779527559,
                    "duration": 0.3260869999999727
                },
                {
                    "name": "C#3",
                    "midi": 49,
                    "time": 433.3696229999932,
                    "velocity": 0.1889763779527559,
                    "duration": 0.3260869999999727
                },
                {
                    "name": "C#2",
                    "midi": 37,
                    "time": 433.6957099999932,
                    "velocity": 0.1889763779527559,
                    "duration": 0.3260869999999727
                },
                {
                    "name": "F2",
                    "midi": 41,
                    "time": 434.02179699999317,
                    "velocity": 0.1889763779527559,
                    "duration": 0.3260869999999727
                },
                {
                    "name": "F#1",
                    "midi": 30,
                    "time": 434.34788399999314,
                    "velocity": 0.2283464566929134,
                    "duration": 0.3260869999999727
                },
                {
                    "name": "C#2",
                    "midi": 37,
                    "time": 434.6739709999931,
                    "velocity": 0.1732283464566929,
                    "duration": 0.3260869999999727
                },
                {
                    "name": "F#2",
                    "midi": 42,
                    "time": 434.6739709999931,
                    "velocity": 0.2047244094488189,
                    "duration": 0.3260869999999727
                },
                {
                    "name": "F1",
                    "midi": 29,
                    "time": 435.0000579999931,
                    "velocity": 0.2047244094488189,
                    "duration": 0.3260869999999727
                },
                {
                    "name": "C#2",
                    "midi": 37,
                    "time": 435.32614499999306,
                    "velocity": 0.16535433070866143,
                    "duration": 0.3260869999999727
                },
                {
                    "name": "G#2",
                    "midi": 44,
                    "time": 435.32614499999306,
                    "velocity": 0.1889763779527559,
                    "duration": 0.3260869999999727
                },
                {
                    "name": "F1",
                    "midi": 29,
                    "time": 435.65223199999303,
                    "velocity": 0.18110236220472442,
                    "duration": 0.3260869999999727
                },
                {
                    "name": "C#2",
                    "midi": 37,
                    "time": 435.978318999993,
                    "velocity": 0.14960629921259844,
                    "duration": 0.3260869999999727
                },
                {
                    "name": "G#2",
                    "midi": 44,
                    "time": 435.978318999993,
                    "velocity": 0.1732283464566929,
                    "duration": 0.3260869999999727
                },
                {
                    "name": "F#1",
                    "midi": 30,
                    "time": 436.304405999993,
                    "velocity": 0.1889763779527559,
                    "duration": 0.3260869999999727
                },
                {
                    "name": "C#2",
                    "midi": 37,
                    "time": 436.63049299999295,
                    "velocity": 0.14960629921259844,
                    "duration": 0.3260869999999727
                },
                {
                    "name": "A2",
                    "midi": 45,
                    "time": 436.63049299999295,
                    "velocity": 0.18110236220472442,
                    "duration": 0.3260869999999727
                },
                {
                    "name": "C#2",
                    "midi": 37,
                    "time": 436.9565799999929,
                    "velocity": 0.14173228346456693,
                    "duration": 0.3260869999999727
                },
                {
                    "name": "C#3",
                    "midi": 49,
                    "time": 437.2826669999929,
                    "velocity": 0.14173228346456693,
                    "duration": 0.3260869999999727
                },
                {
                    "name": "F#2",
                    "midi": 42,
                    "time": 437.2826669999929,
                    "velocity": 0.11811023622047244,
                    "duration": 0.3260869999999727
                },
                {
                    "name": "C#2",
                    "midi": 37,
                    "time": 437.60875399999287,
                    "velocity": 0.14173228346456693,
                    "duration": 0.3260869999999727
                },
                {
                    "name": "C#3",
                    "midi": 49,
                    "time": 437.93484099999284,
                    "velocity": 0.14173228346456693,
                    "duration": 0.3260869999999727
                },
                {
                    "name": "D2",
                    "midi": 38,
                    "time": 438.9131019999928,
                    "velocity": 0.1889763779527559,
                    "duration": 0.3260869999999727
                },
                {
                    "name": "D3",
                    "midi": 50,
                    "time": 438.9131019999928,
                    "velocity": 0.2283464566929134,
                    "duration": 0.3260869999999727
                },
                {
                    "name": "A4",
                    "midi": 69,
                    "time": 439.56527599999276,
                    "velocity": 0.18110236220472442,
                    "duration": 0.3260869999999727
                },
                {
                    "name": "F#4",
                    "midi": 66,
                    "time": 439.56527599999276,
                    "velocity": 0.14960629921259844,
                    "duration": 0.3260869999999727
                },
                {
                    "name": "D4",
                    "midi": 62,
                    "time": 439.56527599999276,
                    "velocity": 0.14960629921259844,
                    "duration": 0.3260869999999727
                },
                {
                    "name": "A3",
                    "midi": 57,
                    "time": 439.56527599999276,
                    "velocity": 0.14960629921259844,
                    "duration": 0.3260869999999727
                },
                {
                    "name": "A4",
                    "midi": 69,
                    "time": 440.2174499999927,
                    "velocity": 0.18110236220472442,
                    "duration": 0.3260869999999727
                },
                {
                    "name": "F#4",
                    "midi": 66,
                    "time": 440.2174499999927,
                    "velocity": 0.14960629921259844,
                    "duration": 0.3260869999999727
                },
                {
                    "name": "D4",
                    "midi": 62,
                    "time": 440.2174499999927,
                    "velocity": 0.14960629921259844,
                    "duration": 0.3260869999999727
                },
                {
                    "name": "A3",
                    "midi": 57,
                    "time": 440.2174499999927,
                    "velocity": 0.14960629921259844,
                    "duration": 0.3260869999999727
                },
                {
                    "name": "D2",
                    "midi": 38,
                    "time": 440.86962399999265,
                    "velocity": 0.18110236220472442,
                    "duration": 0.3260869999999727
                },
                {
                    "name": "D3",
                    "midi": 50,
                    "time": 440.86962399999265,
                    "velocity": 0.2204724409448819,
                    "duration": 0.3260869999999727
                },
                {
                    "name": "A4",
                    "midi": 69,
                    "time": 441.5217979999926,
                    "velocity": 0.18110236220472442,
                    "duration": 0.3260869999999727
                },
                {
                    "name": "F#4",
                    "midi": 66,
                    "time": 441.5217979999926,
                    "velocity": 0.14960629921259844,
                    "duration": 0.3260869999999727
                },
                {
                    "name": "D4",
                    "midi": 62,
                    "time": 441.5217979999926,
                    "velocity": 0.14960629921259844,
                    "duration": 0.3260869999999727
                },
                {
                    "name": "A3",
                    "midi": 57,
                    "time": 441.5217979999926,
                    "velocity": 0.14960629921259844,
                    "duration": 0.3260869999999727
                },
                {
                    "name": "A4",
                    "midi": 69,
                    "time": 442.17397199999255,
                    "velocity": 0.18110236220472442,
                    "duration": 0.3260869999999727
                },
                {
                    "name": "F#4",
                    "midi": 66,
                    "time": 442.17397199999255,
                    "velocity": 0.14960629921259844,
                    "duration": 0.3260869999999727
                },
                {
                    "name": "D4",
                    "midi": 62,
                    "time": 442.17397199999255,
                    "velocity": 0.14960629921259844,
                    "duration": 0.3260869999999727
                },
                {
                    "name": "A3",
                    "midi": 57,
                    "time": 442.17397199999255,
                    "velocity": 0.14960629921259844,
                    "duration": 0.3260869999999727
                },
                {
                    "name": "D2",
                    "midi": 38,
                    "time": 442.8261459999925,
                    "velocity": 0.1732283464566929,
                    "duration": 0.3260869999999727
                },
                {
                    "name": "D3",
                    "midi": 50,
                    "time": 442.8261459999925,
                    "velocity": 0.2125984251968504,
                    "duration": 0.3260869999999727
                },
                {
                    "name": "A4",
                    "midi": 69,
                    "time": 443.47831999999244,
                    "velocity": 0.18110236220472442,
                    "duration": 0.3260869999999727
                },
                {
                    "name": "F#4",
                    "midi": 66,
                    "time": 443.47831999999244,
                    "velocity": 0.14960629921259844,
                    "duration": 0.3260869999999727
                },
                {
                    "name": "D4",
                    "midi": 62,
                    "time": 443.47831999999244,
                    "velocity": 0.14960629921259844,
                    "duration": 0.3260869999999727
                },
                {
                    "name": "A3",
                    "midi": 57,
                    "time": 443.47831999999244,
                    "velocity": 0.14960629921259844,
                    "duration": 0.3260869999999727
                },
                {
                    "name": "A4",
                    "midi": 69,
                    "time": 444.1304939999924,
                    "velocity": 0.18110236220472442,
                    "duration": 0.3260869999999727
                },
                {
                    "name": "F#4",
                    "midi": 66,
                    "time": 444.1304939999924,
                    "velocity": 0.14960629921259844,
                    "duration": 0.3260869999999727
                },
                {
                    "name": "D4",
                    "midi": 62,
                    "time": 444.1304939999924,
                    "velocity": 0.14960629921259844,
                    "duration": 0.3260869999999727
                },
                {
                    "name": "A3",
                    "midi": 57,
                    "time": 444.1304939999924,
                    "velocity": 0.14960629921259844,
                    "duration": 0.3260869999999727
                },
                {
                    "name": "D2",
                    "midi": 38,
                    "time": 444.7826679999923,
                    "velocity": 0.1732283464566929,
                    "duration": 0.3260869999999727
                },
                {
                    "name": "D3",
                    "midi": 50,
                    "time": 444.7826679999923,
                    "velocity": 0.2047244094488189,
                    "duration": 0.3260869999999727
                },
                {
                    "name": "A4",
                    "midi": 69,
                    "time": 445.4348419999923,
                    "velocity": 0.18110236220472442,
                    "duration": 0.3260869999999727
                },
                {
                    "name": "F#4",
                    "midi": 66,
                    "time": 445.4348419999923,
                    "velocity": 0.14960629921259844,
                    "duration": 0.3260869999999727
                },
                {
                    "name": "D4",
                    "midi": 62,
                    "time": 445.4348419999923,
                    "velocity": 0.14960629921259844,
                    "duration": 0.3260869999999727
                },
                {
                    "name": "A3",
                    "midi": 57,
                    "time": 445.4348419999923,
                    "velocity": 0.14960629921259844,
                    "duration": 0.3260869999999727
                },
                {
                    "name": "A4",
                    "midi": 69,
                    "time": 446.0870159999922,
                    "velocity": 0.18110236220472442,
                    "duration": 0.3260869999999727
                },
                {
                    "name": "E4",
                    "midi": 64,
                    "time": 446.0870159999922,
                    "velocity": 0.14960629921259844,
                    "duration": 0.3260869999999727
                },
                {
                    "name": "C#4",
                    "midi": 61,
                    "time": 446.0870159999922,
                    "velocity": 0.14960629921259844,
                    "duration": 0.3260869999999727
                },
                {
                    "name": "A3",
                    "midi": 57,
                    "time": 446.0870159999922,
                    "velocity": 0.14960629921259844,
                    "duration": 0.3260869999999727
                },
                {
                    "name": "C#2",
                    "midi": 37,
                    "time": 446.73918999999216,
                    "velocity": 0.1732283464566929,
                    "duration": 0.3260869999999727
                },
                {
                    "name": "C#3",
                    "midi": 49,
                    "time": 446.73918999999216,
                    "velocity": 0.2125984251968504,
                    "duration": 0.3260869999999727
                },
                {
                    "name": "A4",
                    "midi": 69,
                    "time": 447.3913639999921,
                    "velocity": 0.18110236220472442,
                    "duration": 0.3260869999999727
                },
                {
                    "name": "E4",
                    "midi": 64,
                    "time": 447.3913639999921,
                    "velocity": 0.14960629921259844,
                    "duration": 0.3260869999999727
                },
                {
                    "name": "C#4",
                    "midi": 61,
                    "time": 447.3913639999921,
                    "velocity": 0.14960629921259844,
                    "duration": 0.3260869999999727
                },
                {
                    "name": "A3",
                    "midi": 57,
                    "time": 447.3913639999921,
                    "velocity": 0.14960629921259844,
                    "duration": 0.3260869999999727
                },
                {
                    "name": "A4",
                    "midi": 69,
                    "time": 448.04353799999205,
                    "velocity": 0.18110236220472442,
                    "duration": 0.3260869999999727
                },
                {
                    "name": "E4",
                    "midi": 64,
                    "time": 448.04353799999205,
                    "velocity": 0.14960629921259844,
                    "duration": 0.3260869999999727
                },
                {
                    "name": "C#4",
                    "midi": 61,
                    "time": 448.04353799999205,
                    "velocity": 0.14960629921259844,
                    "duration": 0.3260869999999727
                },
                {
                    "name": "A3",
                    "midi": 57,
                    "time": 448.04353799999205,
                    "velocity": 0.14960629921259844,
                    "duration": 0.3260869999999727
                },
                {
                    "name": "C#2",
                    "midi": 37,
                    "time": 448.695711999992,
                    "velocity": 0.1732283464566929,
                    "duration": 0.3260869999999727
                },
                {
                    "name": "C#3",
                    "midi": 49,
                    "time": 448.695711999992,
                    "velocity": 0.2047244094488189,
                    "duration": 0.3260869999999727
                },
                {
                    "name": "A4",
                    "midi": 69,
                    "time": 449.34788599999195,
                    "velocity": 0.18110236220472442,
                    "duration": 0.3260869999999727
                },
                {
                    "name": "E4",
                    "midi": 64,
                    "time": 449.34788599999195,
                    "velocity": 0.14960629921259844,
                    "duration": 0.3260869999999727
                },
                {
                    "name": "C#4",
                    "midi": 61,
                    "time": 449.34788599999195,
                    "velocity": 0.14960629921259844,
                    "duration": 0.3260869999999727
                },
                {
                    "name": "A3",
                    "midi": 57,
                    "time": 449.34788599999195,
                    "velocity": 0.14960629921259844,
                    "duration": 0.3260869999999727
                },
                {
                    "name": "A4",
                    "midi": 69,
                    "time": 450.0000599999919,
                    "velocity": 0.18110236220472442,
                    "duration": 0.3260869999999727
                },
                {
                    "name": "E4",
                    "midi": 64,
                    "time": 450.0000599999919,
                    "velocity": 0.14960629921259844,
                    "duration": 0.3260869999999727
                },
                {
                    "name": "C#4",
                    "midi": 61,
                    "time": 450.0000599999919,
                    "velocity": 0.14960629921259844,
                    "duration": 0.3260869999999727
                },
                {
                    "name": "A3",
                    "midi": 57,
                    "time": 450.0000599999919,
                    "velocity": 0.14960629921259844,
                    "duration": 0.3260869999999727
                },
                {
                    "name": "C#2",
                    "midi": 37,
                    "time": 450.65223399999184,
                    "velocity": 0.1732283464566929,
                    "duration": 0.3260869999999727
                },
                {
                    "name": "C#3",
                    "midi": 49,
                    "time": 450.65223399999184,
                    "velocity": 0.2125984251968504,
                    "duration": 0.3260869999999727
                },
                {
                    "name": "A4",
                    "midi": 69,
                    "time": 451.3044079999918,
                    "velocity": 0.18110236220472442,
                    "duration": 0.3260869999999727
                },
                {
                    "name": "E4",
                    "midi": 64,
                    "time": 451.3044079999918,
                    "velocity": 0.14960629921259844,
                    "duration": 0.3260869999999727
                },
                {
                    "name": "C#4",
                    "midi": 61,
                    "time": 451.3044079999918,
                    "velocity": 0.14960629921259844,
                    "duration": 0.3260869999999727
                },
                {
                    "name": "A3",
                    "midi": 57,
                    "time": 451.3044079999918,
                    "velocity": 0.14960629921259844,
                    "duration": 0.3260869999999727
                },
                {
                    "name": "A4",
                    "midi": 69,
                    "time": 451.9565819999917,
                    "velocity": 0.18110236220472442,
                    "duration": 0.3260869999999727
                },
                {
                    "name": "E4",
                    "midi": 64,
                    "time": 451.9565819999917,
                    "velocity": 0.14960629921259844,
                    "duration": 0.3260869999999727
                },
                {
                    "name": "C#4",
                    "midi": 61,
                    "time": 451.9565819999917,
                    "velocity": 0.14960629921259844,
                    "duration": 0.3260869999999727
                },
                {
                    "name": "A3",
                    "midi": 57,
                    "time": 451.9565819999917,
                    "velocity": 0.14960629921259844,
                    "duration": 0.3260869999999727
                },
                {
                    "name": "C#2",
                    "midi": 37,
                    "time": 452.6087559999917,
                    "velocity": 0.1732283464566929,
                    "duration": 0.3260869999999727
                },
                {
                    "name": "C#3",
                    "midi": 49,
                    "time": 452.6087559999917,
                    "velocity": 0.2047244094488189,
                    "duration": 0.3260869999999727
                },
                {
                    "name": "A4",
                    "midi": 69,
                    "time": 453.2609299999916,
                    "velocity": 0.18110236220472442,
                    "duration": 0.3260869999999727
                },
                {
                    "name": "E4",
                    "midi": 64,
                    "time": 453.2609299999916,
                    "velocity": 0.14960629921259844,
                    "duration": 0.3260869999999727
                },
                {
                    "name": "C#4",
                    "midi": 61,
                    "time": 453.2609299999916,
                    "velocity": 0.14960629921259844,
                    "duration": 0.3260869999999727
                },
                {
                    "name": "A3",
                    "midi": 57,
                    "time": 453.2609299999916,
                    "velocity": 0.14960629921259844,
                    "duration": 0.3260869999999727
                },
                {
                    "name": "A4",
                    "midi": 69,
                    "time": 453.91310399999156,
                    "velocity": 0.2047244094488189,
                    "duration": 0.3260869999999727
                },
                {
                    "name": "F#4",
                    "midi": 66,
                    "time": 453.91310399999156,
                    "velocity": 0.16535433070866143,
                    "duration": 0.3260869999999727
                },
                {
                    "name": "D4",
                    "midi": 62,
                    "time": 453.91310399999156,
                    "velocity": 0.16535433070866143,
                    "duration": 0.3260869999999727
                },
                {
                    "name": "A3",
                    "midi": 57,
                    "time": 453.91310399999156,
                    "velocity": 0.16535433070866143,
                    "duration": 0.3260869999999727
                },
                {
                    "name": "D2",
                    "midi": 38,
                    "time": 454.5652779999915,
                    "velocity": 0.1968503937007874,
                    "duration": 0.3260869999999727
                },
                {
                    "name": "D3",
                    "midi": 50,
                    "time": 454.5652779999915,
                    "velocity": 0.2440944881889764,
                    "duration": 0.3260869999999727
                },
                {
                    "name": "F#4",
                    "midi": 66,
                    "time": 455.21745199999145,
                    "velocity": 0.2047244094488189,
                    "duration": 0.3260869999999727
                },
                {
                    "name": "D4",
                    "midi": 62,
                    "time": 455.21745199999145,
                    "velocity": 0.16535433070866143,
                    "duration": 0.3260869999999727
                },
                {
                    "name": "A3",
                    "midi": 57,
                    "time": 455.21745199999145,
                    "velocity": 0.16535433070866143,
                    "duration": 0.3260869999999727
                },
                {
                    "name": "F#3",
                    "midi": 54,
                    "time": 455.21745199999145,
                    "velocity": 0.16535433070866143,
                    "duration": 0.3260869999999727
                },
                {
                    "name": "F#4",
                    "midi": 66,
                    "time": 455.8696259999914,
                    "velocity": 0.2047244094488189,
                    "duration": 0.3260869999999727
                },
                {
                    "name": "D4",
                    "midi": 62,
                    "time": 455.8696259999914,
                    "velocity": 0.16535433070866143,
                    "duration": 0.3260869999999727
                },
                {
                    "name": "B3",
                    "midi": 59,
                    "time": 455.8696259999914,
                    "velocity": 0.16535433070866143,
                    "duration": 0.3260869999999727
                },
                {
                    "name": "F#3",
                    "midi": 54,
                    "time": 455.8696259999914,
                    "velocity": 0.16535433070866143,
                    "duration": 0.3260869999999727
                },
                {
                    "name": "B1",
                    "midi": 35,
                    "time": 456.52179999999134,
                    "velocity": 0.1968503937007874,
                    "duration": 0.3260869999999727
                },
                {
                    "name": "B2",
                    "midi": 47,
                    "time": 456.52179999999134,
                    "velocity": 0.2283464566929134,
                    "duration": 0.3260869999999727
                },
                {
                    "name": "F#4",
                    "midi": 66,
                    "time": 457.1739739999913,
                    "velocity": 0.2047244094488189,
                    "duration": 0.3260869999999727
                },
                {
                    "name": "D4",
                    "midi": 62,
                    "time": 457.1739739999913,
                    "velocity": 0.16535433070866143,
                    "duration": 0.3260869999999727
                },
                {
                    "name": "B3",
                    "midi": 59,
                    "time": 457.1739739999913,
                    "velocity": 0.16535433070866143,
                    "duration": 0.3260869999999727
                },
                {
                    "name": "F#3",
                    "midi": 54,
                    "time": 457.1739739999913,
                    "velocity": 0.16535433070866143,
                    "duration": 0.3260869999999727
                },
                {
                    "name": "C#4",
                    "midi": 61,
                    "time": 457.82614799999124,
                    "velocity": 0.16535433070866143,
                    "duration": 0.3260869999999727
                },
                {
                    "name": "F#4",
                    "midi": 66,
                    "time": 457.82614799999124,
                    "velocity": 0.2047244094488189,
                    "duration": 0.3260869999999727
                },
                {
                    "name": "E4",
                    "midi": 64,
                    "time": 457.82614799999124,
                    "velocity": 0.16535433070866143,
                    "duration": 0.3260869999999727
                },
                {
                    "name": "A#3",
                    "midi": 58,
                    "time": 457.82614799999124,
                    "velocity": 0.16535433070866143,
                    "duration": 0.3260869999999727
                },
                {
                    "name": "F#3",
                    "midi": 54,
                    "time": 457.82614799999124,
                    "velocity": 0.16535433070866143,
                    "duration": 0.3260869999999727
                },
                {
                    "name": "A#1",
                    "midi": 34,
                    "time": 458.4783219999912,
                    "velocity": 0.1968503937007874,
                    "duration": 0.3260869999999727
                },
                {
                    "name": "A#2",
                    "midi": 46,
                    "time": 458.4783219999912,
                    "velocity": 0.2440944881889764,
                    "duration": 0.3260869999999727
                },
                {
                    "name": "G3",
                    "midi": 55,
                    "time": 459.1304959999911,
                    "velocity": 0.16535433070866143,
                    "duration": 0.3260869999999727
                },
                {
                    "name": "G4",
                    "midi": 67,
                    "time": 459.1304959999911,
                    "velocity": 0.2047244094488189,
                    "duration": 0.3260869999999727
                },
                {
                    "name": "E4",
                    "midi": 64,
                    "time": 459.1304959999911,
                    "velocity": 0.16535433070866143,
                    "duration": 0.3260869999999727
                },
                {
                    "name": "C#4",
                    "midi": 61,
                    "time": 459.1304959999911,
                    "velocity": 0.16535433070866143,
                    "duration": 0.3260869999999727
                },
                {
                    "name": "A#3",
                    "midi": 58,
                    "time": 459.1304959999911,
                    "velocity": 0.16535433070866143,
                    "duration": 0.3260869999999727
                },
                {
                    "name": "G3",
                    "midi": 55,
                    "time": 459.78266999999107,
                    "velocity": 0.16535433070866143,
                    "duration": 0.3260869999999727
                },
                {
                    "name": "G4",
                    "midi": 67,
                    "time": 459.78266999999107,
                    "velocity": 0.2047244094488189,
                    "duration": 0.3260869999999727
                },
                {
                    "name": "E4",
                    "midi": 64,
                    "time": 459.78266999999107,
                    "velocity": 0.16535433070866143,
                    "duration": 0.3260869999999727
                },
                {
                    "name": "C#4",
                    "midi": 61,
                    "time": 459.78266999999107,
                    "velocity": 0.16535433070866143,
                    "duration": 0.3260869999999727
                },
                {
                    "name": "A#3",
                    "midi": 58,
                    "time": 459.78266999999107,
                    "velocity": 0.16535433070866143,
                    "duration": 0.3260869999999727
                },
                {
                    "name": "A#1",
                    "midi": 34,
                    "time": 460.434843999991,
                    "velocity": 0.1968503937007874,
                    "duration": 0.3260869999999727
                },
                {
                    "name": "A#2",
                    "midi": 46,
                    "time": 460.434843999991,
                    "velocity": 0.2283464566929134,
                    "duration": 0.3260869999999727
                },
                {
                    "name": "G3",
                    "midi": 55,
                    "time": 461.08701799999096,
                    "velocity": 0.16535433070866143,
                    "duration": 0.3260869999999727
                },
                {
                    "name": "G4",
                    "midi": 67,
                    "time": 461.08701799999096,
                    "velocity": 0.2047244094488189,
                    "duration": 0.3260869999999727
                },
                {
                    "name": "E4",
                    "midi": 64,
                    "time": 461.08701799999096,
                    "velocity": 0.16535433070866143,
                    "duration": 0.3260869999999727
                },
                {
                    "name": "C#4",
                    "midi": 61,
                    "time": 461.08701799999096,
                    "velocity": 0.16535433070866143,
                    "duration": 0.3260869999999727
                },
                {
                    "name": "A#3",
                    "midi": 58,
                    "time": 461.08701799999096,
                    "velocity": 0.16535433070866143,
                    "duration": 0.3260869999999727
                },
                {
                    "name": "C#4",
                    "midi": 61,
                    "time": 461.7391919999909,
                    "velocity": 0.16535433070866143,
                    "duration": 0.3260869999999727
                },
                {
                    "name": "G4",
                    "midi": 67,
                    "time": 461.7391919999909,
                    "velocity": 0.2047244094488189,
                    "duration": 0.3260869999999727
                },
                {
                    "name": "E4",
                    "midi": 64,
                    "time": 461.7391919999909,
                    "velocity": 0.16535433070866143,
                    "duration": 0.3260869999999727
                },
                {
                    "name": "A#3",
                    "midi": 58,
                    "time": 461.7391919999909,
                    "velocity": 0.16535433070866143,
                    "duration": 0.3260869999999727
                },
                {
                    "name": "G3",
                    "midi": 55,
                    "time": 461.7391919999909,
                    "velocity": 0.16535433070866143,
                    "duration": 0.3260869999999727
                },
                {
                    "name": "A#1",
                    "midi": 34,
                    "time": 462.39136599999085,
                    "velocity": 0.1968503937007874,
                    "duration": 0.3260869999999727
                },
                {
                    "name": "A#2",
                    "midi": 46,
                    "time": 462.39136599999085,
                    "velocity": 0.2440944881889764,
                    "duration": 0.3260869999999727
                },
                {
                    "name": "G3",
                    "midi": 55,
                    "time": 463.0435399999908,
                    "velocity": 0.16535433070866143,
                    "duration": 0.3260869999999727
                },
                {
                    "name": "G4",
                    "midi": 67,
                    "time": 463.0435399999908,
                    "velocity": 0.2047244094488189,
                    "duration": 0.3260869999999727
                },
                {
                    "name": "E4",
                    "midi": 64,
                    "time": 463.0435399999908,
                    "velocity": 0.16535433070866143,
                    "duration": 0.3260869999999727
                },
                {
                    "name": "C#4",
                    "midi": 61,
                    "time": 463.0435399999908,
                    "velocity": 0.16535433070866143,
                    "duration": 0.3260869999999727
                },
                {
                    "name": "A#3",
                    "midi": 58,
                    "time": 463.0435399999908,
                    "velocity": 0.16535433070866143,
                    "duration": 0.3260869999999727
                },
                {
                    "name": "F#3",
                    "midi": 54,
                    "time": 463.69571399999074,
                    "velocity": 0.16535433070866143,
                    "duration": 0.3260869999999727
                },
                {
                    "name": "F#4",
                    "midi": 66,
                    "time": 463.69571399999074,
                    "velocity": 0.2047244094488189,
                    "duration": 0.3260869999999727
                },
                {
                    "name": "E4",
                    "midi": 64,
                    "time": 463.69571399999074,
                    "velocity": 0.16535433070866143,
                    "duration": 0.3260869999999727
                },
                {
                    "name": "C#4",
                    "midi": 61,
                    "time": 463.69571399999074,
                    "velocity": 0.16535433070866143,
                    "duration": 0.3260869999999727
                },
                {
                    "name": "A#3",
                    "midi": 58,
                    "time": 463.69571399999074,
                    "velocity": 0.16535433070866143,
                    "duration": 0.3260869999999727
                },
                {
                    "name": "A#1",
                    "midi": 34,
                    "time": 464.3478879999907,
                    "velocity": 0.1968503937007874,
                    "duration": 0.3260869999999727
                },
                {
                    "name": "A#2",
                    "midi": 46,
                    "time": 464.3478879999907,
                    "velocity": 0.2283464566929134,
                    "duration": 0.3260869999999727
                },
                {
                    "name": "F#4",
                    "midi": 66,
                    "time": 465.00006199999063,
                    "velocity": 0.2047244094488189,
                    "duration": 0.3260869999999727
                },
                {
                    "name": "F#3",
                    "midi": 54,
                    "time": 465.00006199999063,
                    "velocity": 0.16535433070866143,
                    "duration": 0.3260869999999727
                },
                {
                    "name": "E4",
                    "midi": 64,
                    "time": 465.00006199999063,
                    "velocity": 0.16535433070866143,
                    "duration": 0.3260869999999727
                },
                {
                    "name": "C#4",
                    "midi": 61,
                    "time": 465.00006199999063,
                    "velocity": 0.16535433070866143,
                    "duration": 0.3260869999999727
                },
                {
                    "name": "A#3",
                    "midi": 58,
                    "time": 465.00006199999063,
                    "velocity": 0.16535433070866143,
                    "duration": 0.3260869999999727
                },
                {
                    "name": "B3",
                    "midi": 59,
                    "time": 465.6522359999906,
                    "velocity": 0.16535433070866143,
                    "duration": 0.3260869999999727
                },
                {
                    "name": "F#4",
                    "midi": 66,
                    "time": 465.6522359999906,
                    "velocity": 0.2047244094488189,
                    "duration": 0.3260869999999727
                },
                {
                    "name": "D4",
                    "midi": 62,
                    "time": 465.6522359999906,
                    "velocity": 0.16535433070866143,
                    "duration": 0.3260869999999727
                },
                {
                    "name": "F#3",
                    "midi": 54,
                    "time": 465.6522359999906,
                    "velocity": 0.16535433070866143,
                    "duration": 0.3260869999999727
                },
                {
                    "name": "B1",
                    "midi": 35,
                    "time": 466.3044099999905,
                    "velocity": 0.1968503937007874,
                    "duration": 0.3260869999999727
                },
                {
                    "name": "B2",
                    "midi": 47,
                    "time": 466.3044099999905,
                    "velocity": 0.2440944881889764,
                    "duration": 0.3260869999999727
                },
                {
                    "name": "F#4",
                    "midi": 66,
                    "time": 466.95658399999047,
                    "velocity": 0.2047244094488189,
                    "duration": 0.3260869999999727
                },
                {
                    "name": "D4",
                    "midi": 62,
                    "time": 466.95658399999047,
                    "velocity": 0.16535433070866143,
                    "duration": 0.3260869999999727
                },
                {
                    "name": "B3",
                    "midi": 59,
                    "time": 466.95658399999047,
                    "velocity": 0.16535433070866143,
                    "duration": 0.3260869999999727
                },
                {
                    "name": "F#3",
                    "midi": 54,
                    "time": 466.95658399999047,
                    "velocity": 0.16535433070866143,
                    "duration": 0.3260869999999727
                },
                {
                    "name": "F#4",
                    "midi": 66,
                    "time": 467.6087579999904,
                    "velocity": 0.2047244094488189,
                    "duration": 0.3260869999999727
                },
                {
                    "name": "E4",
                    "midi": 64,
                    "time": 467.6087579999904,
                    "velocity": 0.16535433070866143,
                    "duration": 0.3260869999999727
                },
                {
                    "name": "F#3",
                    "midi": 54,
                    "time": 467.6087579999904,
                    "velocity": 0.16535433070866143,
                    "duration": 0.3260869999999727
                },
                {
                    "name": "A#3",
                    "midi": 58,
                    "time": 467.6087579999904,
                    "velocity": 0.16535433070866143,
                    "duration": 0.3260869999999727
                },
                {
                    "name": "C#2",
                    "midi": 37,
                    "time": 468.26093199999036,
                    "velocity": 0.1968503937007874,
                    "duration": 0.3260869999999727
                },
                {
                    "name": "C#3",
                    "midi": 49,
                    "time": 468.26093199999036,
                    "velocity": 0.2283464566929134,
                    "duration": 0.3260869999999727
                },
                {
                    "name": "F#4",
                    "midi": 66,
                    "time": 468.9131059999903,
                    "velocity": 0.2047244094488189,
                    "duration": 0.3260869999999727
                },
                {
                    "name": "E4",
                    "midi": 64,
                    "time": 468.9131059999903,
                    "velocity": 0.16535433070866143,
                    "duration": 0.3260869999999727
                },
                {
                    "name": "F#3",
                    "midi": 54,
                    "time": 468.9131059999903,
                    "velocity": 0.16535433070866143,
                    "duration": 0.3260869999999727
                },
                {
                    "name": "A#3",
                    "midi": 58,
                    "time": 468.9131059999903,
                    "velocity": 0.16535433070866143,
                    "duration": 0.3260869999999727
                },
                {
                    "name": "B3",
                    "midi": 59,
                    "time": 469.56527999999025,
                    "velocity": 0.18110236220472442,
                    "duration": 0.3260869999999727
                },
                {
                    "name": "F#4",
                    "midi": 66,
                    "time": 469.56527999999025,
                    "velocity": 0.2204724409448819,
                    "duration": 0.3260869999999727
                },
                {
                    "name": "D4",
                    "midi": 62,
                    "time": 469.56527999999025,
                    "velocity": 0.18110236220472442,
                    "duration": 0.3260869999999727
                },
                {
                    "name": "F#3",
                    "midi": 54,
                    "time": 469.56527999999025,
                    "velocity": 0.18110236220472442,
                    "duration": 0.3260869999999727
                },
                {
                    "name": "B1",
                    "midi": 35,
                    "time": 470.2174539999902,
                    "velocity": 0.2125984251968504,
                    "duration": 0.3260869999999727
                },
                {
                    "name": "B2",
                    "midi": 47,
                    "time": 470.2174539999902,
                    "velocity": 0.2677165354330709,
                    "duration": 0.3260869999999727
                },
                {
                    "name": "F#4",
                    "midi": 66,
                    "time": 470.86962799999014,
                    "velocity": 0.2283464566929134,
                    "duration": 0.3260869999999727
                },
                {
                    "name": "D4",
                    "midi": 62,
                    "time": 470.86962799999014,
                    "velocity": 0.18110236220472442,
                    "duration": 0.3260869999999727
                },
                {
                    "name": "B3",
                    "midi": 59,
                    "time": 470.86962799999014,
                    "velocity": 0.18110236220472442,
                    "duration": 0.3260869999999727
                },
                {
                    "name": "F#3",
                    "midi": 54,
                    "time": 470.86962799999014,
                    "velocity": 0.18110236220472442,
                    "duration": 0.3260869999999727
                },
                {
                    "name": "F#4",
                    "midi": 66,
                    "time": 471.5218019999901,
                    "velocity": 0.2283464566929134,
                    "duration": 0.3260869999999727
                },
                {
                    "name": "E4",
                    "midi": 64,
                    "time": 471.5218019999901,
                    "velocity": 0.1889763779527559,
                    "duration": 0.3260869999999727
                },
                {
                    "name": "F#3",
                    "midi": 54,
                    "time": 471.5218019999901,
                    "velocity": 0.1889763779527559,
                    "duration": 0.3260869999999727
                },
                {
                    "name": "A#3",
                    "midi": 58,
                    "time": 471.5218019999901,
                    "velocity": 0.1889763779527559,
                    "duration": 0.3260869999999727
                },
                {
                    "name": "C#2",
                    "midi": 37,
                    "time": 472.17397599999003,
                    "velocity": 0.2283464566929134,
                    "duration": 0.3260869999999727
                },
                {
                    "name": "C#3",
                    "midi": 49,
                    "time": 472.17397599999003,
                    "velocity": 0.25984251968503935,
                    "duration": 0.3260869999999727
                },
                {
                    "name": "F#4",
                    "midi": 66,
                    "time": 472.82614999999,
                    "velocity": 0.23622047244094488,
                    "duration": 0.3260869999999727
                },
                {
                    "name": "E4",
                    "midi": 64,
                    "time": 472.82614999999,
                    "velocity": 0.1889763779527559,
                    "duration": 0.3260869999999727
                },
                {
                    "name": "F#3",
                    "midi": 54,
                    "time": 472.82614999999,
                    "velocity": 0.1889763779527559,
                    "duration": 0.3260869999999727
                },
                {
                    "name": "A#3",
                    "midi": 58,
                    "time": 472.82614999999,
                    "velocity": 0.1889763779527559,
                    "duration": 0.3260869999999727
                },
                {
                    "name": "B3",
                    "midi": 59,
                    "time": 473.4783239999899,
                    "velocity": 0.2283464566929134,
                    "duration": 0.3260869999999727
                },
                {
                    "name": "F#4",
                    "midi": 66,
                    "time": 473.4783239999899,
                    "velocity": 0.28346456692913385,
                    "duration": 0.3260869999999727
                },
                {
                    "name": "D4",
                    "midi": 62,
                    "time": 473.4783239999899,
                    "velocity": 0.2283464566929134,
                    "duration": 0.3260869999999727
                },
                {
                    "name": "F#3",
                    "midi": 54,
                    "time": 473.4783239999899,
                    "velocity": 0.2283464566929134,
                    "duration": 0.3260869999999727
                },
                {
                    "name": "D2",
                    "midi": 38,
                    "time": 474.13049799998987,
                    "velocity": 0.36220472440944884,
                    "duration": 0.3260869999999727
                },
                {
                    "name": "D3",
                    "midi": 50,
                    "time": 474.13049799998987,
                    "velocity": 0.4566929133858268,
                    "duration": 0.3260869999999727
                },
                {
                    "name": "C#4",
                    "midi": 61,
                    "time": 474.7826719999898,
                    "velocity": 0.30708661417322836,
                    "duration": 0.3260869999999727
                },
                {
                    "name": "F#3",
                    "midi": 54,
                    "time": 474.7826719999898,
                    "velocity": 0.2440944881889764,
                    "duration": 0.3260869999999727
                },
                {
                    "name": "C#3",
                    "midi": 49,
                    "time": 474.7826719999898,
                    "velocity": 0.2440944881889764,
                    "duration": 0.3260869999999727
                },
                {
                    "name": "B3",
                    "midi": 59,
                    "time": 475.43484599998976,
                    "velocity": 0.30708661417322836,
                    "duration": 0.3260869999999727
                },
                {
                    "name": "F#3",
                    "midi": 54,
                    "time": 475.43484599998976,
                    "velocity": 0.2440944881889764,
                    "duration": 0.3260869999999727
                },
                {
                    "name": "B2",
                    "midi": 47,
                    "time": 475.43484599998976,
                    "velocity": 0.2440944881889764,
                    "duration": 0.3260869999999727
                },
                {
                    "name": "B1",
                    "midi": 35,
                    "time": 476.0870199999897,
                    "velocity": 0.3937007874015748,
                    "duration": 0.3260869999999727
                },
                {
                    "name": "B2",
                    "midi": 47,
                    "time": 476.0870199999897,
                    "velocity": 0.4881889763779528,
                    "duration": 0.3260869999999727
                },
                {
                    "name": "A3",
                    "midi": 57,
                    "time": 476.73919399998965,
                    "velocity": 0.3228346456692913,
                    "duration": 0.3260869999999727
                },
                {
                    "name": "A2",
                    "midi": 45,
                    "time": 476.73919399998965,
                    "velocity": 0.25984251968503935,
                    "duration": 0.3260869999999727
                },
                {
                    "name": "G#3",
                    "midi": 56,
                    "time": 477.3913679999896,
                    "velocity": 0.33070866141732286,
                    "duration": 0.3260869999999727
                },
                {
                    "name": "G#2",
                    "midi": 44,
                    "time": 477.3913679999896,
                    "velocity": 0.25984251968503935,
                    "duration": 0.3260869999999727
                },
                {
                    "name": "G#1",
                    "midi": 32,
                    "time": 478.04354199998954,
                    "velocity": 0.41732283464566927,
                    "duration": 0.3260869999999727
                },
                {
                    "name": "G#2",
                    "midi": 44,
                    "time": 478.04354199998954,
                    "velocity": 0.5275590551181102,
                    "duration": 0.3260869999999727
                },
                {
                    "name": "F#3",
                    "midi": 54,
                    "time": 478.6957159999895,
                    "velocity": 0.3464566929133858,
                    "duration": 0.3260869999999727
                },
                {
                    "name": "F#2",
                    "midi": 42,
                    "time": 478.6957159999895,
                    "velocity": 0.28346456692913385,
                    "duration": 0.3260869999999727
                },
                {
                    "name": "F3",
                    "midi": 53,
                    "time": 479.34788999998943,
                    "velocity": 0.4251968503937008,
                    "duration": 0.3260869999999727
                },
                {
                    "name": "F2",
                    "midi": 41,
                    "time": 479.34788999998943,
                    "velocity": 0.33858267716535434,
                    "duration": 0.3260869999999727
                },
                {
                    "name": "F3",
                    "midi": 53,
                    "time": 479.6739769999894,
                    "velocity": 0.3464566929133858,
                    "duration": 0.3260869999999727
                },
                {
                    "name": "F4",
                    "midi": 65,
                    "time": 479.6739769999894,
                    "velocity": 0.4330708661417323,
                    "duration": 0.3260869999999727
                },
                {
                    "name": "F2",
                    "midi": 41,
                    "time": 480.0000639999894,
                    "velocity": 0.4251968503937008,
                    "duration": 0.3260869999999727
                },
                {
                    "name": "F3",
                    "midi": 53,
                    "time": 480.0000639999894,
                    "velocity": 0.5196850393700787,
                    "duration": 0.3260869999999727
                },
                {
                    "name": "F3",
                    "midi": 53,
                    "time": 480.32615099998935,
                    "velocity": 0.4251968503937008,
                    "duration": 0.3260869999999727
                },
                {
                    "name": "F4",
                    "midi": 65,
                    "time": 480.32615099998935,
                    "velocity": 0.5354330708661418,
                    "duration": 0.3260869999999727
                },
                {
                    "name": "D#3",
                    "midi": 51,
                    "time": 480.6522379999893,
                    "velocity": 0.44881889763779526,
                    "duration": 0.3260869999999727
                },
                {
                    "name": "D#2",
                    "midi": 39,
                    "time": 480.6522379999893,
                    "velocity": 0.36220472440944884,
                    "duration": 0.3260869999999727
                },
                {
                    "name": "D#3",
                    "midi": 51,
                    "time": 480.9783249999893,
                    "velocity": 0.36220472440944884,
                    "duration": 0.3260869999999727
                },
                {
                    "name": "D#4",
                    "midi": 63,
                    "time": 480.9783249999893,
                    "velocity": 0.44881889763779526,
                    "duration": 0.3260869999999727
                },
                {
                    "name": "C#2",
                    "midi": 37,
                    "time": 481.30441199998927,
                    "velocity": 0.3464566929133858,
                    "duration": 0.6521740000000023
                },
                {
                    "name": "C#3",
                    "midi": 49,
                    "time": 481.30441199998927,
                    "velocity": 0.3464566929133858,
                    "duration": 0.6521740000000023
                },
                {
                    "name": "C#4",
                    "midi": 61,
                    "time": 481.9565859999893,
                    "velocity": 0.1968503937007874,
                    "duration": 1.3043480000000045
                },
                {
                    "name": "F4",
                    "midi": 65,
                    "time": 481.9565859999893,
                    "velocity": 0.1968503937007874,
                    "duration": 0.6521740000000023
                },
                {
                    "name": "G#4",
                    "midi": 68,
                    "time": 481.9565859999893,
                    "velocity": 0.23622047244094488,
                    "duration": 0.6521740000000023
                },
                {
                    "name": "F#4",
                    "midi": 66,
                    "time": 482.6087599999893,
                    "velocity": 0.1889763779527559,
                    "duration": 0.6521740000000023
                },
                {
                    "name": "A#4",
                    "midi": 70,
                    "time": 482.6087599999893,
                    "velocity": 0.2283464566929134,
                    "duration": 0.978260999999975
                },
                {
                    "name": "G4",
                    "midi": 67,
                    "time": 483.2609339999893,
                    "velocity": 0.1968503937007874,
                    "duration": 0.3260869999999727
                },
                {
                    "name": "C#4",
                    "midi": 61,
                    "time": 483.2609339999893,
                    "velocity": 0.1968503937007874,
                    "duration": 1.9565219999998362
                },
                {
                    "name": "A#4",
                    "midi": 70,
                    "time": 483.58702099998925,
                    "velocity": 0.23622047244094488,
                    "duration": 0.3260869999999727
                },
                {
                    "name": "G4",
                    "midi": 67,
                    "time": 483.58702099998925,
                    "velocity": 0.1968503937007874,
                    "duration": 0.3260869999999727
                },
                {
                    "name": "A#4",
                    "midi": 70,
                    "time": 483.9131079999892,
                    "velocity": 0.1968503937007874,
                    "duration": 0.3260869999999727
                },
                {
                    "name": "C#5",
                    "midi": 73,
                    "time": 483.9131079999892,
                    "velocity": 0.23622047244094488,
                    "duration": 0.3260869999999727
                },
                {
                    "name": "G#4",
                    "midi": 68,
                    "time": 484.2391949999892,
                    "velocity": 0.1889763779527559,
                    "duration": 0.3260869999999727
                },
                {
                    "name": "B4",
                    "midi": 71,
                    "time": 484.2391949999892,
                    "velocity": 0.2283464566929134,
                    "duration": 0.3260869999999727
                },
                {
                    "name": "G4",
                    "midi": 67,
                    "time": 484.56528199998917,
                    "velocity": 0.1889763779527559,
                    "duration": 0.3260869999999727
                },
                {
                    "name": "A#4",
                    "midi": 70,
                    "time": 484.56528199998917,
                    "velocity": 0.2283464566929134,
                    "duration": 0.3260869999999727
                },
                {
                    "name": "G#4",
                    "midi": 68,
                    "time": 484.89136899998914,
                    "velocity": 0.1889763779527559,
                    "duration": 0.3260869999999727
                },
                {
                    "name": "B4",
                    "midi": 71,
                    "time": 484.89136899998914,
                    "velocity": 0.2283464566929134,
                    "duration": 0.3260869999999727
                },
                {
                    "name": "F#4",
                    "midi": 66,
                    "time": 485.2174559999891,
                    "velocity": 0.2125984251968504,
                    "duration": 0.3260869999999727
                },
                {
                    "name": "A#4",
                    "midi": 70,
                    "time": 485.2174559999891,
                    "velocity": 0.25984251968503935,
                    "duration": 0.3260869999999727
                },
                {
                    "name": "C#4",
                    "midi": 61,
                    "time": 485.2174559999891,
                    "velocity": 0.2125984251968504,
                    "duration": 1.95652199999995
                },
                {
                    "name": "F#4",
                    "midi": 66,
                    "time": 485.5435429999891,
                    "velocity": 0.2125984251968504,
                    "duration": 0.3260869999999727
                },
                {
                    "name": "A4",
                    "midi": 69,
                    "time": 485.5435429999891,
                    "velocity": 0.25984251968503935,
                    "duration": 0.3260869999999727
                },
                {
                    "name": "F4",
                    "midi": 65,
                    "time": 485.86962999998906,
                    "velocity": 0.2125984251968504,
                    "duration": 1.6304349999999772
                },
                {
                    "name": "G#4",
                    "midi": 68,
                    "time": 485.86962999998906,
                    "velocity": 0.25984251968503935,
                    "duration": 1.6304349999999772
                },
                {
                    "name": "C#4",
                    "midi": 61,
                    "time": 487.17397799998906,
                    "velocity": 0.1968503937007874,
                    "duration": 1.9565219999998362
                },
                {
                    "name": "G#4",
                    "midi": 68,
                    "time": 487.50006499998904,
                    "velocity": 0.23622047244094488,
                    "duration": 0.3260869999999727
                },
                {
                    "name": "F4",
                    "midi": 65,
                    "time": 487.50006499998904,
                    "velocity": 0.1968503937007874,
                    "duration": 0.3260869999999727
                },
                {
                    "name": "G#4",
                    "midi": 68,
                    "time": 487.826151999989,
                    "velocity": 0.1968503937007874,
                    "duration": 0.3260869999999727
                },
                {
                    "name": "B4",
                    "midi": 71,
                    "time": 487.826151999989,
                    "velocity": 0.23622047244094488,
                    "duration": 0.3260869999999727
                },
                {
                    "name": "F#4",
                    "midi": 66,
                    "time": 488.152238999989,
                    "velocity": 0.1889763779527559,
                    "duration": 0.3260869999999727
                },
                {
                    "name": "A#4",
                    "midi": 70,
                    "time": 488.152238999989,
                    "velocity": 0.2283464566929134,
                    "duration": 0.3260869999999727
                },
                {
                    "name": "F4",
                    "midi": 65,
                    "time": 488.47832599998895,
                    "velocity": 0.1889763779527559,
                    "duration": 0.3260869999999727
                },
                {
                    "name": "G#4",
                    "midi": 68,
                    "time": 488.47832599998895,
                    "velocity": 0.2283464566929134,
                    "duration": 0.3260869999999727
                },
                {
                    "name": "F#4",
                    "midi": 66,
                    "time": 488.8044129999889,
                    "velocity": 0.1889763779527559,
                    "duration": 0.3260869999999727
                },
                {
                    "name": "A#4",
                    "midi": 70,
                    "time": 488.8044129999889,
                    "velocity": 0.2283464566929134,
                    "duration": 0.3260869999999727
                },
                {
                    "name": "E4",
                    "midi": 64,
                    "time": 489.1304999999889,
                    "velocity": 0.2204724409448819,
                    "duration": 0.6521740000000023
                },
                {
                    "name": "G4",
                    "midi": 67,
                    "time": 489.1304999999889,
                    "velocity": 0.2677165354330709,
                    "duration": 0.6521740000000023
                },
                {
                    "name": "C#4",
                    "midi": 61,
                    "time": 489.1304999999889,
                    "velocity": 0.2204724409448819,
                    "duration": 1.3043480000000045
                },
                {
                    "name": "F4",
                    "midi": 65,
                    "time": 489.7826739999889,
                    "velocity": 0.1889763779527559,
                    "duration": 0.6521740000000023
                },
                {
                    "name": "G#4",
                    "midi": 68,
                    "time": 489.7826739999889,
                    "velocity": 0.2283464566929134,
                    "duration": 0.6521740000000023
                },
                {
                    "name": "D4",
                    "midi": 62,
                    "time": 490.4348479999889,
                    "velocity": 0.25984251968503935,
                    "duration": 0.6521740000000023
                },
                {
                    "name": "F4",
                    "midi": 65,
                    "time": 490.4348479999889,
                    "velocity": 0.25984251968503935,
                    "duration": 0.6521740000000023
                },
                {
                    "name": "G#4",
                    "midi": 68,
                    "time": 490.4348479999889,
                    "velocity": 0.30708661417322836,
                    "duration": 0.6521740000000023
                },
                {
                    "name": "G#4",
                    "midi": 68,
                    "time": 491.0870219999889,
                    "velocity": 0.2755905511811024,
                    "duration": 0.3260869999999727
                },
                {
                    "name": "D4",
                    "midi": 62,
                    "time": 491.0870219999889,
                    "velocity": 0.2283464566929134,
                    "duration": 0.6521739999999454
                },
                {
                    "name": "F4",
                    "midi": 65,
                    "time": 491.4131089999889,
                    "velocity": 0.2440944881889764,
                    "duration": 0.3260869999999727
                },
                {
                    "name": "D#4",
                    "midi": 63,
                    "time": 491.73919599998885,
                    "velocity": 0.25984251968503935,
                    "duration": 0.6521739999999454
                },
                {
                    "name": "G#4",
                    "midi": 68,
                    "time": 491.73919599998885,
                    "velocity": 0.30708661417322836,
                    "duration": 0.3260869999999727
                },
                {
                    "name": "F#4",
                    "midi": 66,
                    "time": 492.0652829999888,
                    "velocity": 0.2677165354330709,
                    "duration": 0.3260869999999727
                },
                {
                    "name": "C4",
                    "midi": 60,
                    "time": 492.3913699999888,
                    "velocity": 0.2677165354330709,
                    "duration": 0.6521739999999454
                },
                {
                    "name": "F4",
                    "midi": 65,
                    "time": 492.3913699999888,
                    "velocity": 0.31496062992125984,
                    "duration": 0.3260869999999727
                },
                {
                    "name": "F#4",
                    "midi": 66,
                    "time": 492.71745699998877,
                    "velocity": 0.2755905511811024,
                    "duration": 0.3260869999999727
                },
                {
                    "name": "C4",
                    "midi": 60,
                    "time": 493.04354399998874,
                    "velocity": 0.30708661417322836,
                    "duration": 0.6521739999999454
                },
                {
                    "name": "F#4",
                    "midi": 66,
                    "time": 493.04354399998874,
                    "velocity": 0.36220472440944884,
                    "duration": 0.3260869999999727
                },
                {
                    "name": "D#4",
                    "midi": 63,
                    "time": 493.3696309999887,
                    "velocity": 0.31496062992125984,
                    "duration": 0.3260869999999727
                },
                {
                    "name": "B3",
                    "midi": 59,
                    "time": 493.6957179999887,
                    "velocity": 0.2992125984251969,
                    "duration": 0.6521739999999454
                },
                {
                    "name": "F#4",
                    "midi": 66,
                    "time": 493.6957179999887,
                    "velocity": 0.3543307086614173,
                    "duration": 0.3260869999999727
                },
                {
                    "name": "F4",
                    "midi": 65,
                    "time": 494.02180499998866,
                    "velocity": 0.31496062992125984,
                    "duration": 0.3260869999999727
                },
                {
                    "name": "A#3",
                    "midi": 58,
                    "time": 494.34789199998863,
                    "velocity": 0.33070866141732286,
                    "duration": 0.6521739999999454
                },
                {
                    "name": "F#4",
                    "midi": 66,
                    "time": 494.34789199998863,
                    "velocity": 0.3937007874015748,
                    "duration": 0.3260869999999727
                },
                {
                    "name": "C#4",
                    "midi": 61,
                    "time": 494.6739789999886,
                    "velocity": 0.31496062992125984,
                    "duration": 0.3260869999999727
                },
                {
                    "name": "G#3",
                    "midi": 56,
                    "time": 495.0000659999886,
                    "velocity": 0.33070866141732286,
                    "duration": 0.6521739999999454
                },
                {
                    "name": "C#4",
                    "midi": 61,
                    "time": 495.0000659999886,
                    "velocity": 0.33070866141732286,
                    "duration": 0.6521739999999454
                },
                {
                    "name": "F#4",
                    "midi": 66,
                    "time": 495.0000659999886,
                    "velocity": 0.3937007874015748,
                    "duration": 0.3260869999999727
                },
                {
                    "name": "F4",
                    "midi": 65,
                    "time": 495.32615299998855,
                    "velocity": 0.31496062992125984,
                    "duration": 0.3260869999999727
                },
                {
                    "name": "F#3",
                    "midi": 54,
                    "time": 495.6522399999885,
                    "velocity": 0.3464566929133858,
                    "duration": 0.6521740000000023
                },
                {
                    "name": "C#4",
                    "midi": 61,
                    "time": 495.6522399999885,
                    "velocity": 0.3464566929133858,
                    "duration": 0.6521740000000023
                },
                {
                    "name": "F#4",
                    "midi": 66,
                    "time": 495.6522399999885,
                    "velocity": 0.4094488188976378,
                    "duration": 0.6521740000000023
                },
                {
                    "name": "B2",
                    "midi": 47,
                    "time": 496.3044139999885,
                    "velocity": 0.30708661417322836,
                    "duration": 0.6521740000000023
                },
                {
                    "name": "B3",
                    "midi": 59,
                    "time": 496.3044139999885,
                    "velocity": 0.3700787401574803,
                    "duration": 0.6521740000000023
                },
                {
                    "name": "B2",
                    "midi": 47,
                    "time": 496.9565879999885,
                    "velocity": 0.36220472440944884,
                    "duration": 0.6521739999999454
                },
                {
                    "name": "B3",
                    "midi": 59,
                    "time": 496.9565879999885,
                    "velocity": 0.4330708661417323,
                    "duration": 0.3260869999999727
                },
                {
                    "name": "F3",
                    "midi": 53,
                    "time": 497.2826749999885,
                    "velocity": 0.3700787401574803,
                    "duration": 0.3260869999999727
                },
                {
                    "name": "A#2",
                    "midi": 46,
                    "time": 497.6087619999885,
                    "velocity": 0.3543307086614173,
                    "duration": 0.6521739999999454
                },
                {
                    "name": "G#3",
                    "midi": 56,
                    "time": 497.6087619999885,
                    "velocity": 0.4251968503937008,
                    "duration": 0.3260869999999727
                },
                {
                    "name": "F#3",
                    "midi": 54,
                    "time": 497.93484899998845,
                    "velocity": 0.3858267716535433,
                    "duration": 0.3260869999999727
                },
                {
                    "name": "A2",
                    "midi": 45,
                    "time": 498.2609359999884,
                    "velocity": 0.36220472440944884,
                    "duration": 0.6521739999999454
                },
                {
                    "name": "F3",
                    "midi": 53,
                    "time": 498.2609359999884,
                    "velocity": 0.4330708661417323,
                    "duration": 0.3260869999999727
                },
                {
                    "name": "D#3",
                    "midi": 51,
                    "time": 498.5870229999884,
                    "velocity": 0.3937007874015748,
                    "duration": 0.3260869999999727
                },
                {
                    "name": "C3",
                    "midi": 48,
                    "time": 498.91310999998836,
                    "velocity": 0.44881889763779526,
                    "duration": 0.3260869999999727
                },
                {
                    "name": "G#2",
                    "midi": 44,
                    "time": 498.91310999998836,
                    "velocity": 0.3779527559055118,
                    "duration": 0.6521739999999454
                },
                {
                    "name": "C#3",
                    "midi": 49,
                    "time": 499.23919699998834,
                    "velocity": 0.4094488188976378,
                    "duration": 0.3260869999999727
                },
                {
                    "name": "D#2",
                    "midi": 39,
                    "time": 499.5652839999883,
                    "velocity": 0.48031496062992124,
                    "duration": 0.3260869999999727
                },
                {
                    "name": "C#2",
                    "midi": 37,
                    "time": 499.8913709999883,
                    "velocity": 0.4015748031496063,
                    "duration": 0.3260869999999727
                },
                {
                    "name": "C2",
                    "midi": 36,
                    "time": 500.21745799998826,
                    "velocity": 0.5039370078740157,
                    "duration": 0.3260869999999727
                },
                {
                    "name": "C#2",
                    "midi": 37,
                    "time": 500.5435449999882,
                    "velocity": 0.4566929133858268,
                    "duration": 0.3260869999999727
                },
                {
                    "name": "C#2",
                    "midi": 37,
                    "time": 500.8696319999882,
                    "velocity": 0.5669291338582677,
                    "duration": 0.3260869999999727
                },
                {
                    "name": "G#3",
                    "midi": 56,
                    "time": 501.1957189999882,
                    "velocity": 0.25196850393700787,
                    "duration": 0.3260869999999727
                },
                {
                    "name": "F3",
                    "midi": 53,
                    "time": 501.52180599998815,
                    "velocity": 0.28346456692913385,
                    "duration": 0.3260869999999727
                },
                {
                    "name": "B3",
                    "midi": 59,
                    "time": 501.8478929999881,
                    "velocity": 0.2440944881889764,
                    "duration": 0.3260869999999727
                },
                {
                    "name": "G#3",
                    "midi": 56,
                    "time": 502.1739799999881,
                    "velocity": 0.28346456692913385,
                    "duration": 0.3260869999999727
                },
                {
                    "name": "D4",
                    "midi": 62,
                    "time": 502.50006699998806,
                    "velocity": 0.2204724409448819,
                    "duration": 0.3260869999999727
                },
                {
                    "name": "C4",
                    "midi": 60,
                    "time": 502.82615399998804,
                    "velocity": 0.2677165354330709,
                    "duration": 0.3260869999999727
                },
                {
                    "name": "C#4",
                    "midi": 61,
                    "time": 503.152240999988,
                    "velocity": 0.23622047244094488,
                    "duration": 0.3260869999999727
                },
                {
                    "name": "G#3",
                    "midi": 56,
                    "time": 503.478327999988,
                    "velocity": 0.2677165354330709,
                    "duration": 0.3260869999999727
                },
                {
                    "name": "D#4",
                    "midi": 63,
                    "time": 503.80441499998796,
                    "velocity": 0.2283464566929134,
                    "duration": 0.3260869999999727
                },
                {
                    "name": "C#4",
                    "midi": 61,
                    "time": 504.1305019999879,
                    "velocity": 0.2677165354330709,
                    "duration": 0.3260869999999727
                },
                {
                    "name": "B3",
                    "midi": 59,
                    "time": 504.4565889999879,
                    "velocity": 0.23622047244094488,
                    "duration": 0.3260869999999727
                },
                {
                    "name": "F#3",
                    "midi": 54,
                    "time": 504.7826759999879,
                    "velocity": 0.25196850393700787,
                    "duration": 3.260869999999727
                },
                {
                    "name": "A#3",
                    "midi": 58,
                    "time": 504.7826759999879,
                    "velocity": 0.2992125984251969,
                    "duration": 0.3260869999999727
                },
                {
                    "name": "D#4",
                    "midi": 63,
                    "time": 505.10876299998785,
                    "velocity": 0.25984251968503935,
                    "duration": 0.3260869999999727
                },
                {
                    "name": "C4",
                    "midi": 60,
                    "time": 505.4348499999878,
                    "velocity": 0.2992125984251969,
                    "duration": 0.3260869999999727
                },
                {
                    "name": "C#4",
                    "midi": 61,
                    "time": 505.7609369999878,
                    "velocity": 0.2677165354330709,
                    "duration": 0.3260869999999727
                },
                {
                    "name": "A#3",
                    "midi": 58,
                    "time": 506.08702399998776,
                    "velocity": 0.2992125984251969,
                    "duration": 0.3260869999999727
                },
                {
                    "name": "D#4",
                    "midi": 63,
                    "time": 506.41311099998774,
                    "velocity": 0.25984251968503935,
                    "duration": 0.3260869999999727
                },
                {
                    "name": "C4",
                    "midi": 60,
                    "time": 506.7391979999877,
                    "velocity": 0.2992125984251969,
                    "duration": 0.3260869999999727
                },
                {
                    "name": "C#4",
                    "midi": 61,
                    "time": 507.0652849999877,
                    "velocity": 0.25984251968503935,
                    "duration": 0.3260869999999727
                },
                {
                    "name": "A#3",
                    "midi": 58,
                    "time": 507.39137199998765,
                    "velocity": 0.2992125984251969,
                    "duration": 0.3260869999999727
                },
                {
                    "name": "D#4",
                    "midi": 63,
                    "time": 507.7174589999876,
                    "velocity": 0.2677165354330709,
                    "duration": 0.3260869999999727
                },
                {
                    "name": "F#3",
                    "midi": 54,
                    "time": 508.0435459999876,
                    "velocity": 0.25196850393700787,
                    "duration": 0.6521739999999454
                },
                {
                    "name": "A#3",
                    "midi": 58,
                    "time": 508.0435459999876,
                    "velocity": 0.2992125984251969,
                    "duration": 0.3260869999999727
                },
                {
                    "name": "C#4",
                    "midi": 61,
                    "time": 508.3696329999876,
                    "velocity": 0.2677165354330709,
                    "duration": 0.3260869999999727
                },
                {
                    "name": "F3",
                    "midi": 53,
                    "time": 508.69571999998755,
                    "velocity": 0.25196850393700787,
                    "duration": 0.6521739999999454
                },
                {
                    "name": "G#3",
                    "midi": 56,
                    "time": 508.69571999998755,
                    "velocity": 0.2992125984251969,
                    "duration": 0.3260869999999727
                },
                {
                    "name": "C#4",
                    "midi": 61,
                    "time": 509.0218069999875,
                    "velocity": 0.25984251968503935,
                    "duration": 0.3260869999999727
                },
                {
                    "name": "F#3",
                    "midi": 54,
                    "time": 509.3478939999875,
                    "velocity": 0.25196850393700787,
                    "duration": 0.6521739999999454
                },
                {
                    "name": "A#3",
                    "midi": 58,
                    "time": 509.3478939999875,
                    "velocity": 0.2992125984251969,
                    "duration": 0.3260869999999727
                },
                {
                    "name": "C#4",
                    "midi": 61,
                    "time": 509.67398099998746,
                    "velocity": 0.2677165354330709,
                    "duration": 0.3260869999999727
                },
                {
                    "name": "G#3",
                    "midi": 56,
                    "time": 510.00006799998744,
                    "velocity": 0.2677165354330709,
                    "duration": 0.6521739999999454
                },
                {
                    "name": "B3",
                    "midi": 59,
                    "time": 510.00006799998744,
                    "velocity": 0.3228346456692913,
                    "duration": 0.3260869999999727
                },
                {
                    "name": "C#4",
                    "midi": 61,
                    "time": 510.3261549999874,
                    "velocity": 0.28346456692913385,
                    "duration": 0.3260869999999727
                },
                {
                    "name": "G#3",
                    "midi": 56,
                    "time": 510.6522419999874,
                    "velocity": 0.2677165354330709,
                    "duration": 0.6521739999999454
                },
                {
                    "name": "B3",
                    "midi": 59,
                    "time": 510.6522419999874,
                    "velocity": 0.31496062992125984,
                    "duration": 0.3260869999999727
                },
                {
                    "name": "C#4",
                    "midi": 61,
                    "time": 510.97832899998735,
                    "velocity": 0.2677165354330709,
                    "duration": 0.3260869999999727
                },
                {
                    "name": "F#3",
                    "midi": 54,
                    "time": 511.3044159999873,
                    "velocity": 0.25196850393700787,
                    "duration": 0.6521739999999454
                },
                {
                    "name": "A#3",
                    "midi": 58,
                    "time": 511.3044159999873,
                    "velocity": 0.2992125984251969,
                    "duration": 0.3260869999999727
                },
                {
                    "name": "C#4",
                    "midi": 61,
                    "time": 511.6305029999873,
                    "velocity": 0.25196850393700787,
                    "duration": 0.3260869999999727
                },
                {
                    "name": "F3",
                    "midi": 53,
                    "time": 511.9565899999873,
                    "velocity": 0.2440944881889764,
                    "duration": 0.6521740000000591
                },
                {
                    "name": "G#3",
                    "midi": 56,
                    "time": 511.9565899999873,
                    "velocity": 0.29133858267716534,
                    "duration": 0.32608700000002955
                },
                {
                    "name": "C#4",
                    "midi": 61,
                    "time": 512.2826769999873,
                    "velocity": 0.2677165354330709,
                    "duration": 0.32608700000002955
                },
                {
                    "name": "F#3",
                    "midi": 54,
                    "time": 512.6087639999873,
                    "velocity": 0.25196850393700787,
                    "duration": 3.2608700000002955
                },
                {
                    "name": "A#3",
                    "midi": 58,
                    "time": 512.6087639999873,
                    "velocity": 0.2992125984251969,
                    "duration": 0.32608700000002955
                },
                {
                    "name": "D#4",
                    "midi": 63,
                    "time": 512.9348509999874,
                    "velocity": 0.25984251968503935,
                    "duration": 0.32608700000002955
                },
                {
                    "name": "C4",
                    "midi": 60,
                    "time": 513.2609379999874,
                    "velocity": 0.2992125984251969,
                    "duration": 0.32608700000002955
                },
                {
                    "name": "C#4",
                    "midi": 61,
                    "time": 513.5870249999874,
                    "velocity": 0.2677165354330709,
                    "duration": 0.32608700000002955
                },
                {
                    "name": "A#3",
                    "midi": 58,
                    "time": 513.9131119999874,
                    "velocity": 0.2992125984251969,
                    "duration": 0.32608700000002955
                },
                {
                    "name": "D#4",
                    "midi": 63,
                    "time": 514.2391989999875,
                    "velocity": 0.25984251968503935,
                    "duration": 0.32608700000002955
                },
                {
                    "name": "C4",
                    "midi": 60,
                    "time": 514.5652859999875,
                    "velocity": 0.2992125984251969,
                    "duration": 0.32608700000002955
                },
                {
                    "name": "C#4",
                    "midi": 61,
                    "time": 514.8913729999875,
                    "velocity": 0.25984251968503935,
                    "duration": 0.32608700000002955
                },
                {
                    "name": "A#3",
                    "midi": 58,
                    "time": 515.2174599999876,
                    "velocity": 0.2992125984251969,
                    "duration": 0.32608700000002955
                },
                {
                    "name": "D#4",
                    "midi": 63,
                    "time": 515.5435469999876,
                    "velocity": 0.2204724409448819,
                    "duration": 0.32608700000002955
                },
                {
                    "name": "F#3",
                    "midi": 54,
                    "time": 515.8696339999876,
                    "velocity": 0.2125984251968504,
                    "duration": 0.6521740000000591
                },
                {
                    "name": "A#3",
                    "midi": 58,
                    "time": 515.8696339999876,
                    "velocity": 0.25196850393700787,
                    "duration": 0.32608700000002955
                },
                {
                    "name": "C#4",
                    "midi": 61,
                    "time": 516.1957209999877,
                    "velocity": 0.2204724409448819,
                    "duration": 0.32608700000002955
                },
                {
                    "name": "F3",
                    "midi": 53,
                    "time": 516.5218079999877,
                    "velocity": 0.25196850393700787,
                    "duration": 0.6521740000000591
                },
                {
                    "name": "G#3",
                    "midi": 56,
                    "time": 516.5218079999877,
                    "velocity": 0.2992125984251969,
                    "duration": 0.32608700000002955
                },
                {
                    "name": "C#4",
                    "midi": 61,
                    "time": 516.8478949999877,
                    "velocity": 0.25984251968503935,
                    "duration": 0.32608700000002955
                },
                {
                    "name": "F#3",
                    "midi": 54,
                    "time": 517.1739819999877,
                    "velocity": 0.25196850393700787,
                    "duration": 0.6521740000000591
                },
                {
                    "name": "A#3",
                    "midi": 58,
                    "time": 517.1739819999877,
                    "velocity": 0.2992125984251969,
                    "duration": 0.32608700000002955
                },
                {
                    "name": "C#4",
                    "midi": 61,
                    "time": 517.5000689999878,
                    "velocity": 0.2677165354330709,
                    "duration": 0.32608700000002955
                },
                {
                    "name": "G#3",
                    "midi": 56,
                    "time": 517.8261559999878,
                    "velocity": 0.2677165354330709,
                    "duration": 0.6521740000000591
                },
                {
                    "name": "B3",
                    "midi": 59,
                    "time": 517.8261559999878,
                    "velocity": 0.3228346456692913,
                    "duration": 0.32608700000002955
                },
                {
                    "name": "C#4",
                    "midi": 61,
                    "time": 518.1522429999878,
                    "velocity": 0.28346456692913385,
                    "duration": 0.32608700000002955
                },
                {
                    "name": "G#3",
                    "midi": 56,
                    "time": 518.4783299999879,
                    "velocity": 0.2677165354330709,
                    "duration": 0.6521740000000591
                },
                {
                    "name": "B3",
                    "midi": 59,
                    "time": 518.4783299999879,
                    "velocity": 0.31496062992125984,
                    "duration": 0.32608700000002955
                },
                {
                    "name": "C#4",
                    "midi": 61,
                    "time": 518.8044169999879,
                    "velocity": 0.2677165354330709,
                    "duration": 0.32608700000002955
                },
                {
                    "name": "F#3",
                    "midi": 54,
                    "time": 519.1305039999879,
                    "velocity": 0.25196850393700787,
                    "duration": 0.6521740000000591
                },
                {
                    "name": "A#3",
                    "midi": 58,
                    "time": 519.1305039999879,
                    "velocity": 0.2992125984251969,
                    "duration": 0.32608700000002955
                },
                {
                    "name": "C#4",
                    "midi": 61,
                    "time": 519.456590999988,
                    "velocity": 0.25196850393700787,
                    "duration": 0.32608700000002955
                },
                {
                    "name": "F3",
                    "midi": 53,
                    "time": 519.782677999988,
                    "velocity": 0.2047244094488189,
                    "duration": 0.6521740000000591
                },
                {
                    "name": "G#3",
                    "midi": 56,
                    "time": 519.782677999988,
                    "velocity": 0.2440944881889764,
                    "duration": 0.32608700000002955
                },
                {
                    "name": "C#4",
                    "midi": 61,
                    "time": 520.108764999988,
                    "velocity": 0.2204724409448819,
                    "duration": 0.32608700000002955
                },
                {
                    "name": "F#3",
                    "midi": 54,
                    "time": 520.434851999988,
                    "velocity": 0.25196850393700787,
                    "duration": 3.260870000000068
                },
                {
                    "name": "A#3",
                    "midi": 58,
                    "time": 520.434851999988,
                    "velocity": 0.2992125984251969,
                    "duration": 0.22010872500004552
                },
                {
                    "name": "D#4",
                    "midi": 63,
                    "time": 520.6549607249881,
                    "velocity": 0.25984251968503935,
                    "duration": 0.21739133333335303
                },
                {
                    "name": "C#4",
                    "midi": 61,
                    "time": 520.8696346666547,
                    "velocity": 0.25984251968503935,
                    "duration": 0.21739133333335303
                },
                {
                    "name": "C4",
                    "midi": 60,
                    "time": 521.0870259999881,
                    "velocity": 0.2992125984251969,
                    "duration": 0.22010872500004552
                },
                {
                    "name": "D#4",
                    "midi": 63,
                    "time": 521.3044173333215,
                    "velocity": 0.2677165354330709,
                    "duration": 0.21739133333335303
                },
                {
                    "name": "C#4",
                    "midi": 61,
                    "time": 521.5218086666548,
                    "velocity": 0.2677165354330709,
                    "duration": 0.16304349999995793
                },
                {
                    "name": "A#3",
                    "midi": 58,
                    "time": 521.739199999988,
                    "velocity": 0.2992125984251969,
                    "duration": 0.22010872500004552
                },
                {
                    "name": "D#4",
                    "midi": 63,
                    "time": 521.9593087249881,
                    "velocity": 0.25984251968503935,
                    "duration": 0.21739133333335303
                },
                {
                    "name": "C#4",
                    "midi": 61,
                    "time": 522.1739826666548,
                    "velocity": 0.25984251968503935,
                    "duration": 0.16304350000007162
                },
                {
                    "name": "C4",
                    "midi": 60,
                    "time": 522.3913739999881,
                    "velocity": 0.2992125984251969,
                    "duration": 0.22010872500004552
                },
                {
                    "name": "D#4",
                    "midi": 63,
                    "time": 522.6087653333215,
                    "velocity": 0.25984251968503935,
                    "duration": 0.21739133333335303
                },
                {
                    "name": "C#4",
                    "midi": 61,
                    "time": 522.8261566666548,
                    "velocity": 0.25984251968503935,
                    "duration": 0.16304349999995793
                },
                {
                    "name": "A#3",
                    "midi": 58,
                    "time": 523.043547999988,
                    "velocity": 0.2992125984251969,
                    "duration": 0.22010872500004552
                },
                {
                    "name": "D#4",
                    "midi": 63,
                    "time": 523.2636567249881,
                    "velocity": 0.2677165354330709,
                    "duration": 0.21739133333335303
                },
                {
                    "name": "C#4",
                    "midi": 61,
                    "time": 523.4783306666548,
                    "velocity": 0.2677165354330709,
                    "duration": 0.16304350000007162
                },
                {
                    "name": "F#3",
                    "midi": 54,
                    "time": 523.6957219999881,
                    "velocity": 0.25196850393700787,
                    "duration": 0.6521739999999454
                },
                {
                    "name": "A#3",
                    "midi": 58,
                    "time": 523.6957219999881,
                    "velocity": 0.2992125984251969,
                    "duration": 0.22010872500004552
                },
                {
                    "name": "D4",
                    "midi": 62,
                    "time": 523.9131133333215,
                    "velocity": 0.2677165354330709,
                    "duration": 0.21739133333335303
                },
                {
                    "name": "C#4",
                    "midi": 61,
                    "time": 524.1305046666548,
                    "velocity": 0.2677165354330709,
                    "duration": 0.16304349999995793
                },
                {
                    "name": "F3",
                    "midi": 53,
                    "time": 524.347895999988,
                    "velocity": 0.25196850393700787,
                    "duration": 0.6521739999999454
                },
                {
                    "name": "G#3",
                    "midi": 56,
                    "time": 524.347895999988,
                    "velocity": 0.2992125984251969,
                    "duration": 0.22010872500004552
                },
                {
                    "name": "D#4",
                    "midi": 63,
                    "time": 524.5652873333214,
                    "velocity": 0.25984251968503935,
                    "duration": 0.21739133333335303
                },
                {
                    "name": "C#4",
                    "midi": 61,
                    "time": 524.7826786666548,
                    "velocity": 0.25984251968503935,
                    "duration": 0.16304349999995793
                },
                {
                    "name": "F#3",
                    "midi": 54,
                    "time": 525.000069999988,
                    "velocity": 0.25196850393700787,
                    "duration": 0.6521739999999454
                },
                {
                    "name": "A#3",
                    "midi": 58,
                    "time": 525.000069999988,
                    "velocity": 0.2992125984251969,
                    "duration": 0.22010872500004552
                },
                {
                    "name": "D#4",
                    "midi": 63,
                    "time": 525.2174613333214,
                    "velocity": 0.2677165354330709,
                    "duration": 0.21739133333335303
                },
                {
                    "name": "C#4",
                    "midi": 61,
                    "time": 525.4348526666547,
                    "velocity": 0.2677165354330709,
                    "duration": 0.16304349999995793
                },
                {
                    "name": "G#3",
                    "midi": 56,
                    "time": 525.652243999988,
                    "velocity": 0.2677165354330709,
                    "duration": 0.6521739999999454
                },
                {
                    "name": "B3",
                    "midi": 59,
                    "time": 525.652243999988,
                    "velocity": 0.3228346456692913,
                    "duration": 0.22010872500004552
                },
                {
                    "name": "D#4",
                    "midi": 63,
                    "time": 525.8696353333213,
                    "velocity": 0.28346456692913385,
                    "duration": 0.21739133333335303
                },
                {
                    "name": "C#4",
                    "midi": 61,
                    "time": 526.0870266666547,
                    "velocity": 0.28346456692913385,
                    "duration": 0.16304349999995793
                },
                {
                    "name": "G#3",
                    "midi": 56,
                    "time": 526.3044179999879,
                    "velocity": 0.2677165354330709,
                    "duration": 0.6521739999999454
                },
                {
                    "name": "B3",
                    "midi": 59,
                    "time": 526.3044179999879,
                    "velocity": 0.31496062992125984,
                    "duration": 0.22010872500004552
                },
                {
                    "name": "D#4",
                    "midi": 63,
                    "time": 526.5218093333212,
                    "velocity": 0.2677165354330709,
                    "duration": 0.21739133333335303
                },
                {
                    "name": "C#4",
                    "midi": 61,
                    "time": 526.7392006666546,
                    "velocity": 0.2677165354330709,
                    "duration": 0.16304349999995793
                },
                {
                    "name": "F#3",
                    "midi": 54,
                    "time": 526.9565919999878,
                    "velocity": 0.25196850393700787,
                    "duration": 0.6521739999999454
                },
                {
                    "name": "A#3",
                    "midi": 58,
                    "time": 526.9565919999878,
                    "velocity": 0.2992125984251969,
                    "duration": 0.22010872500004552
                },
                {
                    "name": "D#4",
                    "midi": 63,
                    "time": 527.1739833333212,
                    "velocity": 0.25196850393700787,
                    "duration": 0.21739133333335303
                },
                {
                    "name": "C#4",
                    "midi": 61,
                    "time": 527.3913746666545,
                    "velocity": 0.25196850393700787,
                    "duration": 0.16304349999995793
                },
                {
                    "name": "F3",
                    "midi": 53,
                    "time": 527.6087659999878,
                    "velocity": 0.2440944881889764,
                    "duration": 0.6521739999999454
                },
                {
                    "name": "G#3",
                    "midi": 56,
                    "time": 527.6087659999878,
                    "velocity": 0.29133858267716534,
                    "duration": 0.22010872500004552
                },
                {
                    "name": "D#4",
                    "midi": 63,
                    "time": 527.8261573333211,
                    "velocity": 0.2677165354330709,
                    "duration": 0.21739133333335303
                },
                {
                    "name": "C#4",
                    "midi": 61,
                    "time": 528.0435486666545,
                    "velocity": 0.2677165354330709,
                    "duration": 0.16304349999995793
                },
                {
                    "name": "F#3",
                    "midi": 54,
                    "time": 528.2609399999877,
                    "velocity": 0.25196850393700787,
                    "duration": 3.260870000000068
                },
                {
                    "name": "A#3",
                    "midi": 58,
                    "time": 528.2609399999877,
                    "velocity": 0.2992125984251969,
                    "duration": 0.22010872500004552
                },
                {
                    "name": "D#4",
                    "midi": 63,
                    "time": 528.4810487249878,
                    "velocity": 0.25984251968503935,
                    "duration": 0.21739133333335303
                },
                {
                    "name": "C#4",
                    "midi": 61,
                    "time": 528.6957226666544,
                    "velocity": 0.25984251968503935,
                    "duration": 0.21739133333335303
                },
                {
                    "name": "C4",
                    "midi": 60,
                    "time": 528.9131139999878,
                    "velocity": 0.30708661417322836,
                    "duration": 0.22010872500004552
                },
                {
                    "name": "D#4",
                    "midi": 63,
                    "time": 529.1305053333211,
                    "velocity": 0.2677165354330709,
                    "duration": 0.21739133333335303
                },
                {
                    "name": "C#4",
                    "midi": 61,
                    "time": 529.3478966666545,
                    "velocity": 0.2755905511811024,
                    "duration": 0.16304349999995793
                },
                {
                    "name": "A#3",
                    "midi": 58,
                    "time": 529.5652879999877,
                    "velocity": 0.30708661417322836,
                    "duration": 0.22010872500004552
                },
                {
                    "name": "D#4",
                    "midi": 63,
                    "time": 529.7853967249878,
                    "velocity": 0.2677165354330709,
                    "duration": 0.21739133333335303
                },
                {
                    "name": "C#4",
                    "midi": 61,
                    "time": 530.0000706666544,
                    "velocity": 0.2755905511811024,
                    "duration": 0.16304350000007162
                },
                {
                    "name": "C4",
                    "midi": 60,
                    "time": 530.2174619999878,
                    "velocity": 0.3228346456692913,
                    "duration": 0.22010872500004552
                },
                {
                    "name": "D#4",
                    "midi": 63,
                    "time": 530.4348533333211,
                    "velocity": 0.2755905511811024,
                    "duration": 0.21739133333335303
                },
                {
                    "name": "C#4",
                    "midi": 61,
                    "time": 530.6522446666545,
                    "velocity": 0.28346456692913385,
                    "duration": 0.16304349999995793
                },
                {
                    "name": "A#3",
                    "midi": 58,
                    "time": 530.8696359999877,
                    "velocity": 0.33070866141732286,
                    "duration": 0.22010872500004552
                },
                {
                    "name": "D#4",
                    "midi": 63,
                    "time": 531.0897447249878,
                    "velocity": 0.2992125984251969,
                    "duration": 0.21739133333335303
                },
                {
                    "name": "C#4",
                    "midi": 61,
                    "time": 531.3044186666544,
                    "velocity": 0.2677165354330709,
                    "duration": 0.16304350000007162
                },
                {
                    "name": "F#3",
                    "midi": 54,
                    "time": 531.5218099999878,
                    "velocity": 0.25196850393700787,
                    "duration": 0.6521739999999454
                },
                {
                    "name": "A#3",
                    "midi": 58,
                    "time": 531.5218099999878,
                    "velocity": 0.2992125984251969,
                    "duration": 0.22010872500004552
                },
                {
                    "name": "D4",
                    "midi": 62,
                    "time": 531.7392013333211,
                    "velocity": 0.2677165354330709,
                    "duration": 0.21739133333335303
                },
                {
                    "name": "C#4",
                    "midi": 61,
                    "time": 531.9565926666545,
                    "velocity": 0.2677165354330709,
                    "duration": 0.16304349999995793
                },
                {
                    "name": "F3",
                    "midi": 53,
                    "time": 532.1739839999877,
                    "velocity": 0.30708661417322836,
                    "duration": 0.6521739999999454
                },
                {
                    "name": "G#3",
                    "midi": 56,
                    "time": 532.1739839999877,
                    "velocity": 0.3700787401574803,
                    "duration": 0.22010872500004552
                },
                {
                    "name": "D#4",
                    "midi": 63,
                    "time": 532.3913753333211,
                    "velocity": 0.3228346456692913,
                    "duration": 0.21739133333335303
                },
                {
                    "name": "C#4",
                    "midi": 61,
                    "time": 532.6087666666544,
                    "velocity": 0.3228346456692913,
                    "duration": 0.16304349999995793
                },
                {
                    "name": "F#3",
                    "midi": 54,
                    "time": 532.8261579999877,
                    "velocity": 0.31496062992125984,
                    "duration": 0.6521739999999454
                },
                {
                    "name": "A#3",
                    "midi": 58,
                    "time": 532.8261579999877,
                    "velocity": 0.3858267716535433,
                    "duration": 0.22010872500004552
                },
                {
                    "name": "D#4",
                    "midi": 63,
                    "time": 533.043549333321,
                    "velocity": 0.3464566929133858,
                    "duration": 0.21739133333335303
                },
                {
                    "name": "C#4",
                    "midi": 61,
                    "time": 533.2609406666544,
                    "velocity": 0.36220472440944884,
                    "duration": 0.16304349999995793
                },
                {
                    "name": "G#3",
                    "midi": 56,
                    "time": 533.4783319999876,
                    "velocity": 0.3700787401574803,
                    "duration": 0.6521739999999454
                },
                {
                    "name": "B3",
                    "midi": 59,
                    "time": 533.4783319999876,
                    "velocity": 0.44881889763779526,
                    "duration": 0.22010872500004552
                },
                {
                    "name": "D#4",
                    "midi": 63,
                    "time": 533.695723333321,
                    "velocity": 0.4015748031496063,
                    "duration": 0.21739133333335303
                },
                {
                    "name": "C#4",
                    "midi": 61,
                    "time": 533.9131146666543,
                    "velocity": 0.41732283464566927,
                    "duration": 0.16304349999995793
                },
                {
                    "name": "G#3",
                    "midi": 56,
                    "time": 534.1305059999876,
                    "velocity": 0.3937007874015748,
                    "duration": 0.6521739999999454
                },
                {
                    "name": "B3",
                    "midi": 59,
                    "time": 534.1305059999876,
                    "velocity": 0.47244094488188976,
                    "duration": 0.22010872500004552
                },
                {
                    "name": "D#4",
                    "midi": 63,
                    "time": 534.3478973333209,
                    "velocity": 0.4015748031496063,
                    "duration": 0.21739133333335303
                },
                {
                    "name": "C#4",
                    "midi": 61,
                    "time": 534.5652886666543,
                    "velocity": 0.4015748031496063,
                    "duration": 0.16304349999995793
                },
                {
                    "name": "F#3",
                    "midi": 54,
                    "time": 534.7826799999875,
                    "velocity": 0.3858267716535433,
                    "duration": 0.6521739999999454
                },
                {
                    "name": "A#3",
                    "midi": 58,
                    "time": 534.7826799999875,
                    "velocity": 0.4566929133858268,
                    "duration": 0.22010872500004552
                },
                {
                    "name": "D#4",
                    "midi": 63,
                    "time": 535.0000713333209,
                    "velocity": 0.3858267716535433,
                    "duration": 0.21739133333335303
                },
                {
                    "name": "C#4",
                    "midi": 61,
                    "time": 535.2174626666542,
                    "velocity": 0.3937007874015748,
                    "duration": 0.16304349999995793
                },
                {
                    "name": "F3",
                    "midi": 53,
                    "time": 535.4348539999875,
                    "velocity": 0.3858267716535433,
                    "duration": 0.6521739999999454
                },
                {
                    "name": "G#3",
                    "midi": 56,
                    "time": 535.4348539999875,
                    "velocity": 0.4566929133858268,
                    "duration": 0.22010872500004552
                },
                {
                    "name": "C#4",
                    "midi": 61,
                    "time": 535.6522453333208,
                    "velocity": 0.41732283464566927,
                    "duration": 0.21739133333335303
                },
                {
                    "name": "B3",
                    "midi": 59,
                    "time": 535.8696366666542,
                    "velocity": 0.31496062992125984,
                    "duration": 0.16304349999995793
                },
                {
                    "name": "A#3",
                    "midi": 58,
                    "time": 536.0870279999874,
                    "velocity": 0.31496062992125984,
                    "duration": 0.21739133333335303
                },
                {
                    "name": "F#3",
                    "midi": 54,
                    "time": 536.0870279999874,
                    "velocity": 0.3937007874015748,
                    "duration": 1.9565220000001773
                },
                {
                    "name": "C#4",
                    "midi": 61,
                    "time": 536.3044193333208,
                    "velocity": 0.28346456692913385,
                    "duration": 0.21739133333335303
                },
                {
                    "name": "B3",
                    "midi": 59,
                    "time": 536.5218106666541,
                    "velocity": 0.28346456692913385,
                    "duration": 0.21739133333335303
                },
                {
                    "name": "A#3",
                    "midi": 58,
                    "time": 536.7392019999875,
                    "velocity": 0.31496062992125984,
                    "duration": 0.21739133333335303
                },
                {
                    "name": "B3",
                    "midi": 59,
                    "time": 536.9565933333208,
                    "velocity": 0.2992125984251969,
                    "duration": 0.21739133333335303
                },
                {
                    "name": "C#4",
                    "midi": 61,
                    "time": 537.1739846666542,
                    "velocity": 0.2992125984251969,
                    "duration": 0.21739133333335303
                },
                {
                    "name": "D#4",
                    "midi": 63,
                    "time": 537.3913759999875,
                    "velocity": 0.31496062992125984,
                    "duration": 0.21739133333335303
                },
                {
                    "name": "F4",
                    "midi": 65,
                    "time": 537.6087673333209,
                    "velocity": 0.29133858267716534,
                    "duration": 0.21739133333335303
                },
                {
                    "name": "F#4",
                    "midi": 66,
                    "time": 537.8261586666542,
                    "velocity": 0.29133858267716534,
                    "duration": 0.21739133333335303
                },
                {
                    "name": "G#4",
                    "midi": 68,
                    "time": 538.0435499999876,
                    "velocity": 0.31496062992125984,
                    "duration": 0.8695653333332984
                },
                {
                    "name": "G#3",
                    "midi": 56,
                    "time": 538.0435499999876,
                    "velocity": 0.3937007874015748,
                    "duration": 1.9565220000000636
                },
                {
                    "name": "F#4",
                    "midi": 66,
                    "time": 538.9131153333209,
                    "velocity": 0.28346456692913385,
                    "duration": 0.21739133333335303
                },
                {
                    "name": "F4",
                    "midi": 65,
                    "time": 539.1305066666542,
                    "velocity": 0.28346456692913385,
                    "duration": 0.21739133333335303
                },
                {
                    "name": "D#4",
                    "midi": 63,
                    "time": 539.3478979999876,
                    "velocity": 0.31496062992125984,
                    "duration": 0.21739133333335303
                },
                {
                    "name": "C#4",
                    "midi": 61,
                    "time": 539.565289333321,
                    "velocity": 0.2755905511811024,
                    "duration": 0.21739133333335303
                },
                {
                    "name": "B3",
                    "midi": 59,
                    "time": 539.7826806666543,
                    "velocity": 0.2755905511811024,
                    "duration": 0.21739133333335303
                },
                {
                    "name": "F4",
                    "midi": 65,
                    "time": 540.0000719999877,
                    "velocity": 0.31496062992125984,
                    "duration": 0.21739133333335303
                },
                {
                    "name": "A#3",
                    "midi": 58,
                    "time": 540.0000719999877,
                    "velocity": 0.3937007874015748,
                    "duration": 1.9565220000001773
                },
                {
                    "name": "F#4",
                    "midi": 66,
                    "time": 540.217463333321,
                    "velocity": 0.28346456692913385,
                    "duration": 0.21739133333335303
                },
                {
                    "name": "F4",
                    "midi": 65,
                    "time": 540.4348546666544,
                    "velocity": 0.29133858267716534,
                    "duration": 0.21739133333335303
                },
                {
                    "name": "C#4",
                    "midi": 61,
                    "time": 540.6522459999877,
                    "velocity": 0.33070866141732286,
                    "duration": 0.21739133333335303
                },
                {
                    "name": "D#4",
                    "midi": 63,
                    "time": 540.8696373333211,
                    "velocity": 0.31496062992125984,
                    "duration": 0.21739133333335303
                },
                {
                    "name": "E4",
                    "midi": 64,
                    "time": 541.0870286666544,
                    "velocity": 0.3228346456692913,
                    "duration": 0.21739133333335303
                },
                {
                    "name": "F#4",
                    "midi": 66,
                    "time": 541.3044199999878,
                    "velocity": 0.3464566929133858,
                    "duration": 0.21739133333335303
                },
                {
                    "name": "G#4",
                    "midi": 68,
                    "time": 541.5218113333211,
                    "velocity": 0.3228346456692913,
                    "duration": 0.21739133333335303
                },
                {
                    "name": "A#4",
                    "midi": 70,
                    "time": 541.7392026666545,
                    "velocity": 0.3228346456692913,
                    "duration": 0.21739133333335303
                },
                {
                    "name": "B4",
                    "midi": 71,
                    "time": 541.9565939999878,
                    "velocity": 0.36220472440944884,
                    "duration": 0.6521739999999454
                },
                {
                    "name": "B3",
                    "midi": 59,
                    "time": 541.9565939999878,
                    "velocity": 0.44881889763779526,
                    "duration": 1.9565220000000636
                },
                {
                    "name": "B4",
                    "midi": 71,
                    "time": 542.6087679999878,
                    "velocity": 0.3779527559055118,
                    "duration": 0.21739133333335303
                },
                {
                    "name": "A#4",
                    "midi": 70,
                    "time": 542.8261593333211,
                    "velocity": 0.33858267716535434,
                    "duration": 0.21739133333335303
                },
                {
                    "name": "G#4",
                    "midi": 68,
                    "time": 543.0435506666545,
                    "velocity": 0.3464566929133858,
                    "duration": 0.21739133333335303
                },
                {
                    "name": "F#4",
                    "midi": 66,
                    "time": 543.2609419999878,
                    "velocity": 0.3937007874015748,
                    "duration": 0.21739133333335303
                },
                {
                    "name": "F4",
                    "midi": 65,
                    "time": 543.4783333333212,
                    "velocity": 0.3464566929133858,
                    "duration": 0.21739133333335303
                },
                {
                    "name": "D#4",
                    "midi": 63,
                    "time": 543.6957246666545,
                    "velocity": 0.3464566929133858,
                    "duration": 0.21739133333335303
                },
                {
                    "name": "C#4",
                    "midi": 61,
                    "time": 543.9131159999879,
                    "velocity": 0.5118110236220472,
                    "duration": 1.3043480000001182
                },
                {
                    "name": "F4",
                    "midi": 65,
                    "time": 544.1305073333212,
                    "velocity": 0.3700787401574803,
                    "duration": 0.21739133333335303
                },
                {
                    "name": "F#4",
                    "midi": 66,
                    "time": 544.3478986666546,
                    "velocity": 0.3700787401574803,
                    "duration": 0.21739133333335303
                },
                {
                    "name": "G#4",
                    "midi": 68,
                    "time": 544.565289999988,
                    "velocity": 0.4251968503937008,
                    "duration": 0.21739133333335303
                },
                {
                    "name": "A#4",
                    "midi": 70,
                    "time": 544.7826813333213,
                    "velocity": 0.4015748031496063,
                    "duration": 0.21739133333335303
                },
                {
                    "name": "B4",
                    "midi": 71,
                    "time": 545.0000726666547,
                    "velocity": 0.4094488188976378,
                    "duration": 0.21739133333335303
                },
                {
                    "name": "D#4",
                    "midi": 63,
                    "time": 545.217463999988,
                    "velocity": 0.5511811023622047,
                    "duration": 0.6521740000000591
                },
                {
                    "name": "A#4",
                    "midi": 70,
                    "time": 545.217463999988,
                    "velocity": 0.4409448818897638,
                    "duration": 0.21739133333335303
                },
                {
                    "name": "G#4",
                    "midi": 68,
                    "time": 545.4348553333214,
                    "velocity": 0.4094488188976378,
                    "duration": 0.21739133333335303
                },
                {
                    "name": "F#4",
                    "midi": 66,
                    "time": 545.6522466666547,
                    "velocity": 0.4094488188976378,
                    "duration": 0.21739133333335303
                },
                {
                    "name": "F4",
                    "midi": 65,
                    "time": 545.8696379999881,
                    "velocity": 0.5669291338582677,
                    "duration": 1.3043480000001182
                },
                {
                    "name": "G#4",
                    "midi": 68,
                    "time": 546.0870293333214,
                    "velocity": 0.4094488188976378,
                    "duration": 0.21739133333335303
                },
                {
                    "name": "A#4",
                    "midi": 70,
                    "time": 546.3044206666548,
                    "velocity": 0.41732283464566927,
                    "duration": 0.21739133333335303
                },
                {
                    "name": "B4",
                    "midi": 71,
                    "time": 546.5218119999881,
                    "velocity": 0.47244094488188976,
                    "duration": 0.21739133333335303
                },
                {
                    "name": "C#5",
                    "midi": 73,
                    "time": 546.7392033333215,
                    "velocity": 0.44881889763779526,
                    "duration": 0.21739133333335303
                },
                {
                    "name": "D#5",
                    "midi": 75,
                    "time": 546.9565946666548,
                    "velocity": 0.4566929133858268,
                    "duration": 0.21739133333335303
                },
                {
                    "name": "F#4",
                    "midi": 66,
                    "time": 547.1739859999882,
                    "velocity": 0.6062992125984252,
                    "duration": 0.6521740000000591
                },
                {
                    "name": "C#5",
                    "midi": 73,
                    "time": 547.1739859999882,
                    "velocity": 0.4881889763779528,
                    "duration": 0.21739133333335303
                },
                {
                    "name": "B4",
                    "midi": 71,
                    "time": 547.3913773333215,
                    "velocity": 0.44881889763779526,
                    "duration": 0.21739133333335303
                },
                {
                    "name": "A#4",
                    "midi": 70,
                    "time": 547.6087686666549,
                    "velocity": 0.4566929133858268,
                    "duration": 0.21739133333335303
                },
                {
                    "name": "E5",
                    "midi": 76,
                    "time": 547.8261599999882,
                    "velocity": 0.4566929133858268,
                    "duration": 0.21739133333335303
                },
                {
                    "name": "G#4",
                    "midi": 68,
                    "time": 547.8261599999882,
                    "velocity": 0.5669291338582677,
                    "duration": 0.6521740000000591
                },
                {
                    "name": "C#5",
                    "midi": 73,
                    "time": 548.0435513333216,
                    "velocity": 0.4094488188976378,
                    "duration": 0.21739133333335303
                },
                {
                    "name": "D#5",
                    "midi": 75,
                    "time": 548.260942666655,
                    "velocity": 0.41732283464566927,
                    "duration": 0.21739133333335303
                },
                {
                    "name": "A#4",
                    "midi": 70,
                    "time": 548.4783339999883,
                    "velocity": 0.48031496062992124,
                    "duration": 0.6521740000000591
                },
                {
                    "name": "E5",
                    "midi": 76,
                    "time": 548.4783339999883,
                    "velocity": 0.4015748031496063,
                    "duration": 0.21739133333335303
                },
                {
                    "name": "A#3",
                    "midi": 58,
                    "time": 548.6957253333217,
                    "velocity": 0.3779527559055118,
                    "duration": 0.43478266666670606
                },
                {
                    "name": "F#4",
                    "midi": 66,
                    "time": 548.6957253333217,
                    "velocity": 0.3779527559055118,
                    "duration": 0.21739133333335303
                },
                {
                    "name": "G4",
                    "midi": 67,
                    "time": 548.913116666655,
                    "velocity": 0.3858267716535433,
                    "duration": 0.21739133333335303
                },
                {
                    "name": "B3",
                    "midi": 59,
                    "time": 549.1305079999884,
                    "velocity": 0.5118110236220472,
                    "duration": 0.6521740000000591
                },
                {
                    "name": "F#4",
                    "midi": 66,
                    "time": 549.1305079999884,
                    "velocity": 0.4094488188976378,
                    "duration": 0.21739133333335303
                },
                {
                    "name": "E4",
                    "midi": 64,
                    "time": 549.3478993333217,
                    "velocity": 0.3779527559055118,
                    "duration": 0.21739133333335303
                },
                {
                    "name": "D#4",
                    "midi": 63,
                    "time": 549.5652906666551,
                    "velocity": 0.4094488188976378,
                    "duration": 0.21739133333335303
                },
                {
                    "name": "D#4",
                    "midi": 63,
                    "time": 549.7826819999884,
                    "velocity": 0.3779527559055118,
                    "duration": 0.21739133333335303
                },
                {
                    "name": "C4",
                    "midi": 60,
                    "time": 549.7826819999884,
                    "velocity": 0.4094488188976378,
                    "duration": 1.3043480000001182
                },
                {
                    "name": "F4",
                    "midi": 65,
                    "time": 550.0000733333218,
                    "velocity": 0.3700787401574803,
                    "duration": 0.21739133333335303
                },
                {
                    "name": "F#4",
                    "midi": 66,
                    "time": 550.2174646666551,
                    "velocity": 0.30708661417322836,
                    "duration": 0.21739133333335303
                },
                {
                    "name": "A4",
                    "midi": 69,
                    "time": 550.4348559999885,
                    "velocity": 0.3543307086614173,
                    "duration": 0.21739133333335303
                },
                {
                    "name": "G#4",
                    "midi": 68,
                    "time": 550.6522473333218,
                    "velocity": 0.2992125984251969,
                    "duration": 0.21739133333335303
                },
                {
                    "name": "F#4",
                    "midi": 66,
                    "time": 550.8696386666552,
                    "velocity": 0.29133858267716534,
                    "duration": 0.21739133333335303
                },
                {
                    "name": "C#4",
                    "midi": 61,
                    "time": 551.0870299999885,
                    "velocity": 0.33858267716535434,
                    "duration": 0.21739133333335303
                },
                {
                    "name": "B3",
                    "midi": 59,
                    "time": 551.0870299999885,
                    "velocity": 0.2992125984251969,
                    "duration": 0.6521740000000591
                },
                {
                    "name": "F4",
                    "midi": 65,
                    "time": 551.3044213333219,
                    "velocity": 0.28346456692913385,
                    "duration": 0.21739133333335303
                },
                {
                    "name": "G#4",
                    "midi": 68,
                    "time": 551.5218126666553,
                    "velocity": 0.2755905511811024,
                    "duration": 0.21739133333335303
                },
                {
                    "name": "A#4",
                    "midi": 70,
                    "time": 551.7392039999886,
                    "velocity": 0.30708661417322836,
                    "duration": 1.95652199999995
                },
                {
                    "name": "C#5",
                    "midi": 73,
                    "time": 551.7392039999886,
                    "velocity": 0.36220472440944884,
                    "duration": 1.95652199999995
                },
                {
                    "name": "G4",
                    "midi": 67,
                    "time": 553.6957259999886,
                    "velocity": 0.25196850393700787,
                    "duration": 1.3043480000000045
                },
                {
                    "name": "A#4",
                    "midi": 70,
                    "time": 553.6957259999886,
                    "velocity": 0.2992125984251969,
                    "duration": 1.3043480000000045
                },
                {
                    "name": "D#4",
                    "midi": 63,
                    "time": 555.0000739999886,
                    "velocity": 0.2047244094488189,
                    "duration": 0.6521739999999454
                },
                {
                    "name": "G4",
                    "midi": 67,
                    "time": 555.0000739999886,
                    "velocity": 0.2440944881889764,
                    "duration": 0.6521739999999454
                },
                {
                    "name": "A#4",
                    "midi": 70,
                    "time": 555.6522479999885,
                    "velocity": 0.3228346456692913,
                    "duration": 0.32608700000002955
                },
                {
                    "name": "G4",
                    "midi": 67,
                    "time": 555.9783349999885,
                    "velocity": 0.29133858267716534,
                    "duration": 0.32608700000002955
                },
                {
                    "name": "G#3",
                    "midi": 56,
                    "time": 556.3044219999886,
                    "velocity": 0.28346456692913385,
                    "duration": 0.6521740000000591
                },
                {
                    "name": "G#4",
                    "midi": 68,
                    "time": 556.3044219999886,
                    "velocity": 0.36220472440944884,
                    "duration": 0.32608700000002955
                },
                {
                    "name": "D#4",
                    "midi": 63,
                    "time": 556.6305089999886,
                    "velocity": 0.29133858267716534,
                    "duration": 0.32608700000002955
                },
                {
                    "name": "B2",
                    "midi": 47,
                    "time": 556.9565959999886,
                    "velocity": 0.3858267716535433,
                    "duration": 0.6521740000000591
                },
                {
                    "name": "C#4",
                    "midi": 61,
                    "time": 556.9565959999886,
                    "velocity": 0.3858267716535433,
                    "duration": 0.32608700000002955
                },
                {
                    "name": "B3",
                    "midi": 59,
                    "time": 557.2826829999887,
                    "velocity": 0.3700787401574803,
                    "duration": 0.32608700000002955
                },
                {
                    "name": "C#3",
                    "midi": 49,
                    "time": 557.6087699999887,
                    "velocity": 0.3543307086614173,
                    "duration": 0.6521739999999454
                },
                {
                    "name": "A#3",
                    "midi": 58,
                    "time": 557.6087699999887,
                    "velocity": 0.4251968503937008,
                    "duration": 0.6521739999999454
                },
                {
                    "name": "C#2",
                    "midi": 37,
                    "time": 558.2609439999886,
                    "velocity": 0.28346456692913385,
                    "duration": 0.32608700000002955
                },
                {
                    "name": "A#2",
                    "midi": 46,
                    "time": 558.2609439999886,
                    "velocity": 0.33858267716535434,
                    "duration": 0.32608700000002955
                },
                {
                    "name": "C#2",
                    "midi": 37,
                    "time": 558.5870309999887,
                    "velocity": 0.25984251968503935,
                    "duration": 0.4891304999999875
                },
                {
                    "name": "C#3",
                    "midi": 49,
                    "time": 558.5870309999887,
                    "velocity": 0.36220472440944884,
                    "duration": 0.4891304999999875
                },
                {
                    "name": "B1",
                    "midi": 35,
                    "time": 559.0761614999886,
                    "velocity": 0.3543307086614173,
                    "duration": 0.16304349999995793
                },
                {
                    "name": "B2",
                    "midi": 47,
                    "time": 559.0761614999886,
                    "velocity": 0.41732283464566927,
                    "duration": 0.16304349999995793
                },
                {
                    "name": "A#1",
                    "midi": 34,
                    "time": 559.2392049999886,
                    "velocity": 0.36220472440944884,
                    "duration": 0.16304349999995793
                },
                {
                    "name": "A#2",
                    "midi": 46,
                    "time": 559.2392049999886,
                    "velocity": 0.4330708661417323,
                    "duration": 0.16304349999995793
                },
                {
                    "name": "B1",
                    "midi": 35,
                    "time": 559.4022484999886,
                    "velocity": 0.3779527559055118,
                    "duration": 0.16304349999995793
                },
                {
                    "name": "B2",
                    "midi": 47,
                    "time": 559.4022484999886,
                    "velocity": 0.44881889763779526,
                    "duration": 0.16304349999995793
                },
                {
                    "name": "A#1",
                    "midi": 34,
                    "time": 559.5652919999885,
                    "velocity": 0.4094488188976378,
                    "duration": 0.16304349999995793
                },
                {
                    "name": "C#2",
                    "midi": 37,
                    "time": 559.7283354999885,
                    "velocity": 0.3464566929133858,
                    "duration": 0.16304349999995793
                },
                {
                    "name": "E2",
                    "midi": 40,
                    "time": 559.8913789999884,
                    "velocity": 0.33858267716535434,
                    "duration": 0.16304349999995793
                },
                {
                    "name": "G2",
                    "midi": 43,
                    "time": 560.0544224999884,
                    "velocity": 0.33070866141732286,
                    "duration": 0.16304349999995793
                },
                {
                    "name": "A#2",
                    "midi": 46,
                    "time": 560.2174659999883,
                    "velocity": 0.3228346456692913,
                    "duration": 0.16304349999995793
                },
                {
                    "name": "C#3",
                    "midi": 49,
                    "time": 560.3805094999883,
                    "velocity": 0.31496062992125984,
                    "duration": 0.16304349999995793
                },
                {
                    "name": "E3",
                    "midi": 52,
                    "time": 560.5435529999883,
                    "velocity": 0.30708661417322836,
                    "duration": 0.16304349999995793
                },
                {
                    "name": "G3",
                    "midi": 55,
                    "time": 560.7065964999882,
                    "velocity": 0.2992125984251969,
                    "duration": 0.16304349999995793
                },
                {
                    "name": "A#3",
                    "midi": 58,
                    "time": 560.8696399999882,
                    "velocity": 0.28346456692913385,
                    "duration": 0.16304349999995793
                },
                {
                    "name": "C#4",
                    "midi": 61,
                    "time": 560.8696399999882,
                    "velocity": 0.28346456692913385,
                    "duration": 0.16304349999995793
                },
                {
                    "name": "E4",
                    "midi": 64,
                    "time": 561.0326834999881,
                    "velocity": 0.2125984251968504,
                    "duration": 0.16304349999995793
                },
                {
                    "name": "B3",
                    "midi": 59,
                    "time": 561.1957269999881,
                    "velocity": 0.2125984251968504,
                    "duration": 0.16304349999995793
                },
                {
                    "name": "D#4",
                    "midi": 63,
                    "time": 561.358770499988,
                    "velocity": 0.2125984251968504,
                    "duration": 0.16304349999995793
                },
                {
                    "name": "B2",
                    "midi": 47,
                    "time": 561.521813999988,
                    "velocity": 0.1732283464566929,
                    "duration": 1.3043480000000045
                },
                {
                    "name": "B3",
                    "midi": 59,
                    "time": 561.521813999988,
                    "velocity": 0.2047244094488189,
                    "duration": 1.3043480000000045
                },
                {
                    "name": "C#2",
                    "midi": 37,
                    "time": 563.478335999988,
                    "velocity": 0.30708661417322836,
                    "duration": 0.21739133333335303
                },
                {
                    "name": "F#2",
                    "midi": 42,
                    "time": 563.6957273333213,
                    "velocity": 0.2677165354330709,
                    "duration": 0.21739133333335303
                },
                {
                    "name": "A#2",
                    "midi": 46,
                    "time": 563.9131186666547,
                    "velocity": 0.2677165354330709,
                    "duration": 0.21739133333335303
                },
                {
                    "name": "C#3",
                    "midi": 49,
                    "time": 564.130509999988,
                    "velocity": 0.2440944881889764,
                    "duration": 0.21739133333335303
                },
                {
                    "name": "F#3",
                    "midi": 54,
                    "time": 564.3479013333214,
                    "velocity": 0.2440944881889764,
                    "duration": 0.21739133333335303
                },
                {
                    "name": "A#3",
                    "midi": 58,
                    "time": 564.5652926666547,
                    "velocity": 0.2440944881889764,
                    "duration": 0.21739133333335303
                },
                {
                    "name": "C#3",
                    "midi": 49,
                    "time": 564.7826839999881,
                    "velocity": 0.30708661417322836,
                    "duration": 0.32608699999991586
                },
                {
                    "name": "F#3",
                    "midi": 54,
                    "time": 564.7826839999881,
                    "velocity": 0.2992125984251969,
                    "duration": 0.16304349999995793
                },
                {
                    "name": "A#3",
                    "midi": 58,
                    "time": 564.945727499988,
                    "velocity": 0.2677165354330709,
                    "duration": 0.16304349999995793
                },
                {
                    "name": "D#3",
                    "midi": 51,
                    "time": 565.108770999988,
                    "velocity": 0.2204724409448819,
                    "duration": 0.32608699999991586
                },
                {
                    "name": "F#3",
                    "midi": 54,
                    "time": 565.108770999988,
                    "velocity": 0.2677165354330709,
                    "duration": 0.16304349999995793
                },
                {
                    "name": "A3",
                    "midi": 57,
                    "time": 565.271814499988,
                    "velocity": 0.2677165354330709,
                    "duration": 0.16304349999995793
                },
                {
                    "name": "D3",
                    "midi": 50,
                    "time": 565.4348579999879,
                    "velocity": 0.25196850393700787,
                    "duration": 0.6521739999999454
                },
                {
                    "name": "F3",
                    "midi": 53,
                    "time": 565.4348579999879,
                    "velocity": 0.25196850393700787,
                    "duration": 0.6521739999999454
                },
                {
                    "name": "G#3",
                    "midi": 56,
                    "time": 565.4348579999879,
                    "velocity": 0.25196850393700787,
                    "duration": 0.6521739999999454
                },
                {
                    "name": "B3",
                    "midi": 59,
                    "time": 565.4348579999879,
                    "velocity": 0.2992125984251969,
                    "duration": 0.6521739999999454
                },
                {
                    "name": "D3",
                    "midi": 50,
                    "time": 566.0870319999879,
                    "velocity": 0.1968503937007874,
                    "duration": 0.978260999999975
                },
                {
                    "name": "F3",
                    "midi": 53,
                    "time": 566.0870319999879,
                    "velocity": 0.1968503937007874,
                    "duration": 0.978260999999975
                },
                {
                    "name": "G#3",
                    "midi": 56,
                    "time": 566.0870319999879,
                    "velocity": 0.1968503937007874,
                    "duration": 0.978260999999975
                },
                {
                    "name": "B3",
                    "midi": 59,
                    "time": 566.0870319999879,
                    "velocity": 0.23622047244094488,
                    "duration": 0.978260999999975
                },
                {
                    "name": "D#3",
                    "midi": 51,
                    "time": 567.0652929999878,
                    "velocity": 0.1732283464566929,
                    "duration": 0.32608700000002955
                },
                {
                    "name": "G3",
                    "midi": 55,
                    "time": 567.0652929999878,
                    "velocity": 0.1732283464566929,
                    "duration": 0.32608700000002955
                },
                {
                    "name": "A#3",
                    "midi": 58,
                    "time": 567.0652929999878,
                    "velocity": 0.2125984251968504,
                    "duration": 0.32608700000002955
                },
                {
                    "name": "D#3",
                    "midi": 51,
                    "time": 567.3913799999879,
                    "velocity": 0.1968503937007874,
                    "duration": 1.2907610416666557
                },
                {
                    "name": "G3",
                    "midi": 55,
                    "time": 567.3913799999879,
                    "velocity": 0.1968503937007874,
                    "duration": 1.2907610416666557
                },
                {
                    "name": "A#3",
                    "midi": 58,
                    "time": 567.3913799999879,
                    "velocity": 0.23622047244094488,
                    "duration": 1.2907610416666557
                },
                {
                    "name": "D#3",
                    "midi": 51,
                    "time": 568.6957279999879,
                    "velocity": 0.1732283464566929,
                    "duration": 0.6467392166666741
                },
                {
                    "name": "G3",
                    "midi": 55,
                    "time": 568.6957279999879,
                    "velocity": 0.1732283464566929,
                    "duration": 0.6467392166666741
                },
                {
                    "name": "A#3",
                    "midi": 58,
                    "time": 568.6957279999879,
                    "velocity": 0.1732283464566929,
                    "duration": 0.6467392166666741
                },
                {
                    "name": "D#4",
                    "midi": 63,
                    "time": 568.6957279999879,
                    "velocity": 0.2125984251968504,
                    "duration": 0.6467392166666741
                },
                {
                    "name": "D#3",
                    "midi": 51,
                    "time": 569.3479019999879,
                    "velocity": 0.1968503937007874,
                    "duration": 1.2907610416666557
                },
                {
                    "name": "G3",
                    "midi": 55,
                    "time": 569.3479019999879,
                    "velocity": 0.1968503937007874,
                    "duration": 1.2907610416666557
                },
                {
                    "name": "A#3",
                    "midi": 58,
                    "time": 569.3479019999879,
                    "velocity": 0.1968503937007874,
                    "duration": 1.2907610416666557
                },
                {
                    "name": "D#4",
                    "midi": 63,
                    "time": 569.3479019999879,
                    "velocity": 0.23622047244094488,
                    "duration": 1.2907610416666557
                },
                {
                    "name": "D#3",
                    "midi": 51,
                    "time": 570.6522499999879,
                    "velocity": 0.1732283464566929,
                    "duration": 0.6467392166666741
                },
                {
                    "name": "G3",
                    "midi": 55,
                    "time": 570.6522499999879,
                    "velocity": 0.1732283464566929,
                    "duration": 0.6467392166666741
                },
                {
                    "name": "A#3",
                    "midi": 58,
                    "time": 570.6522499999879,
                    "velocity": 0.1732283464566929,
                    "duration": 0.6467392166666741
                },
                {
                    "name": "D#4",
                    "midi": 63,
                    "time": 570.6522499999879,
                    "velocity": 0.2125984251968504,
                    "duration": 0.6467392166666741
                },
                {
                    "name": "D#2",
                    "midi": 39,
                    "time": 571.304423999988,
                    "velocity": 0.1968503937007874,
                    "duration": 0.6521739999999454
                },
                {
                    "name": "D#3",
                    "midi": 51,
                    "time": 571.304423999988,
                    "velocity": 0.23622047244094488,
                    "duration": 0.6521739999999454
                },
                {
                    "name": "A#1",
                    "midi": 34,
                    "time": 571.9565979999879,
                    "velocity": 0.1968503937007874,
                    "duration": 1.3043480000000045
                },
                {
                    "name": "A#2",
                    "midi": 46,
                    "time": 571.9565979999879,
                    "velocity": 0.23622047244094488,
                    "duration": 1.3043480000000045
                },
                {
                    "name": "B1",
                    "midi": 35,
                    "time": 573.2609459999879,
                    "velocity": 0.1968503937007874,
                    "duration": 0.6521739999999454
                },
                {
                    "name": "B2",
                    "midi": 47,
                    "time": 573.2609459999879,
                    "velocity": 0.23622047244094488,
                    "duration": 0.6521739999999454
                },
                {
                    "name": "C#2",
                    "midi": 37,
                    "time": 573.9131199999879,
                    "velocity": 0.16535433070866143,
                    "duration": 1.3043480000000045
                },
                {
                    "name": "C#3",
                    "midi": 49,
                    "time": 573.9131199999879,
                    "velocity": 0.1968503937007874,
                    "duration": 1.3043480000000045
                },
                {
                    "name": "F#1",
                    "midi": 30,
                    "time": 575.2174679999879,
                    "velocity": 0.15748031496062992,
                    "duration": 1.3043480000000045
                },
                {
                    "name": "F#2",
                    "midi": 42,
                    "time": 575.2174679999879,
                    "velocity": 0.1889763779527559,
                    "duration": 1.3043480000000045
                },
                {
                    "name": "A#3",
                    "midi": 58,
                    "time": 576.5218159999879,
                    "velocity": 0.1732283464566929,
                    "duration": 0.6521739999999454
                },
                {
                    "name": "C#3",
                    "midi": 49,
                    "time": 577.1739899999878,
                    "velocity": 0.1889763779527559,
                    "duration": 1.3043480000000045
                },
                {
                    "name": "C#4",
                    "midi": 61,
                    "time": 578.4783379999878,
                    "velocity": 0.16535433070866143,
                    "duration": 0.6521739999999454
                },
                {
                    "name": "A#3",
                    "midi": 58,
                    "time": 579.1305119999878,
                    "velocity": 0.1889763779527559,
                    "duration": 1.3043480000000045
                },
                {
                    "name": "C#2",
                    "midi": 37,
                    "time": 580.4348599999878,
                    "velocity": 0.2204724409448819,
                    "duration": 1.3043480000000045
                },
                {
                    "name": "C#3",
                    "midi": 49,
                    "time": 580.4348599999878,
                    "velocity": 0.2677165354330709,
                    "duration": 1.3043480000000045
                },
                {
                    "name": "D#2",
                    "midi": 39,
                    "time": 581.7392079999878,
                    "velocity": 0.2125984251968504,
                    "duration": 0.32608700000002955
                },
                {
                    "name": "D#3",
                    "midi": 51,
                    "time": 581.7392079999878,
                    "velocity": 0.31496062992125984,
                    "duration": 0.32608700000002955
                },
                {
                    "name": "C#2",
                    "midi": 37,
                    "time": 582.0652949999878,
                    "velocity": 0.2125984251968504,
                    "duration": 0.32608700000002955
                },
                {
                    "name": "C#3",
                    "midi": 49,
                    "time": 582.0652949999878,
                    "velocity": 0.31496062992125984,
                    "duration": 0.32608700000002955
                },
                {
                    "name": "D#3",
                    "midi": 51,
                    "time": 582.3913819999879,
                    "velocity": 0.2283464566929134,
                    "duration": 0.32608700000002955
                },
                {
                    "name": "C#3",
                    "midi": 49,
                    "time": 582.3913819999879,
                    "velocity": 0.2283464566929134,
                    "duration": 0.32608700000002955
                },
                {
                    "name": "D#2",
                    "midi": 39,
                    "time": 582.3913819999879,
                    "velocity": 0.2283464566929134,
                    "duration": 0.32608700000002955
                },
                {
                    "name": "F2",
                    "midi": 41,
                    "time": 582.7174689999879,
                    "velocity": 0.2283464566929134,
                    "duration": 0.32608700000002955
                },
                {
                    "name": "C#3",
                    "midi": 49,
                    "time": 582.7174689999879,
                    "velocity": 0.2283464566929134,
                    "duration": 0.32608700000002955
                },
                {
                    "name": "F3",
                    "midi": 53,
                    "time": 582.7174689999879,
                    "velocity": 0.2283464566929134,
                    "duration": 0.32608700000002955
                },
                {
                    "name": "C#3",
                    "midi": 49,
                    "time": 583.0435559999879,
                    "velocity": 0.23622047244094488,
                    "duration": 1.3043480000000045
                },
                {
                    "name": "F#2",
                    "midi": 42,
                    "time": 583.0435559999879,
                    "velocity": 0.23622047244094488,
                    "duration": 1.3043480000000045
                },
                {
                    "name": "F#3",
                    "midi": 54,
                    "time": 583.0435559999879,
                    "velocity": 0.28346456692913385,
                    "duration": 1.3043480000000045
                },
                {
                    "name": "A#4",
                    "midi": 70,
                    "time": 584.3479039999879,
                    "velocity": 0.25984251968503935,
                    "duration": 0.6521739999999454
                },
                {
                    "name": "C#4",
                    "midi": 61,
                    "time": 585.0000779999879,
                    "velocity": 0.29133858267716534,
                    "duration": 1.3043480000000045
                },
                {
                    "name": "A#1",
                    "midi": 34,
                    "time": 586.3044259999879,
                    "velocity": 0.2204724409448819,
                    "duration": 0.6521739999999454
                },
                {
                    "name": "A#2",
                    "midi": 46,
                    "time": 586.3044259999879,
                    "velocity": 0.2677165354330709,
                    "duration": 0.6521739999999454
                },
                {
                    "name": "C#2",
                    "midi": 37,
                    "time": 586.9565999999878,
                    "velocity": 0.2677165354330709,
                    "duration": 0.6521739999999454
                },
                {
                    "name": "C#3",
                    "midi": 49,
                    "time": 586.9565999999878,
                    "velocity": 0.31496062992125984,
                    "duration": 0.6521739999999454
                },
                {
                    "name": "C#3",
                    "midi": 49,
                    "time": 587.6087739999878,
                    "velocity": 0.2204724409448819,
                    "duration": 0.6521739999999454
                },
                {
                    "name": "C#4",
                    "midi": 61,
                    "time": 587.6087739999878,
                    "velocity": 0.2677165354330709,
                    "duration": 0.6521739999999454
                },
                {
                    "name": "A#2",
                    "midi": 46,
                    "time": 588.2609479999877,
                    "velocity": 0.23622047244094488,
                    "duration": 0.6521739999999454
                },
                {
                    "name": "C#3",
                    "midi": 49,
                    "time": 588.2609479999877,
                    "velocity": 0.23622047244094488,
                    "duration": 0.6521739999999454
                },
                {
                    "name": "A#3",
                    "midi": 58,
                    "time": 588.2609479999877,
                    "velocity": 0.28346456692913385,
                    "duration": 0.6521739999999454
                },
                {
                    "name": "G#2",
                    "midi": 44,
                    "time": 588.9131219999877,
                    "velocity": 0.28346456692913385,
                    "duration": 1.3043480000000045
                },
                {
                    "name": "C#3",
                    "midi": 49,
                    "time": 588.9131219999877,
                    "velocity": 0.28346456692913385,
                    "duration": 1.3043480000000045
                },
                {
                    "name": "G#3",
                    "midi": 56,
                    "time": 588.9131219999877,
                    "velocity": 0.33858267716535434,
                    "duration": 1.3043480000000045
                },
                {
                    "name": "C#2",
                    "midi": 37,
                    "time": 590.2174699999877,
                    "velocity": 0.2677165354330709,
                    "duration": 0.6521739999999454
                },
                {
                    "name": "C#3",
                    "midi": 49,
                    "time": 590.2174699999877,
                    "velocity": 0.31496062992125984,
                    "duration": 0.6521739999999454
                },
                {
                    "name": "F#2",
                    "midi": 42,
                    "time": 590.8696439999876,
                    "velocity": 0.28346456692913385,
                    "duration": 1.95652199999995
                },
                {
                    "name": "C#3",
                    "midi": 49,
                    "time": 590.8696439999876,
                    "velocity": 0.28346456692913385,
                    "duration": 1.95652199999995
                },
                {
                    "name": "F#3",
                    "midi": 54,
                    "time": 590.8696439999876,
                    "velocity": 0.33858267716535434,
                    "duration": 1.95652199999995
                },
                {
                    "name": "C#2",
                    "midi": 37,
                    "time": 592.8261659999876,
                    "velocity": 0.2204724409448819,
                    "duration": 1.95652199999995
                },
                {
                    "name": "C#3",
                    "midi": 49,
                    "time": 592.8261659999876,
                    "velocity": 0.25984251968503935,
                    "duration": 1.95652199999995
                },
                {
                    "name": "F#1",
                    "midi": 30,
                    "time": 594.7826879999875,
                    "velocity": 0.1732283464566929,
                    "duration": 1.3043480000000045
                },
                {
                    "name": "F#2",
                    "midi": 42,
                    "time": 594.7826879999875,
                    "velocity": 0.2047244094488189,
                    "duration": 1.3043480000000045
                },
                {
                    "name": "F#2",
                    "midi": 42,
                    "time": 596.0870359999875,
                    "velocity": 0.1732283464566929,
                    "duration": 0.6467392166666741
                },
                {
                    "name": "F#3",
                    "midi": 54,
                    "time": 596.0870359999875,
                    "velocity": 0.2047244094488189,
                    "duration": 0.6467392166666741
                },
                {
                    "name": "F#2",
                    "midi": 42,
                    "time": 596.7392099999876,
                    "velocity": 0.1968503937007874,
                    "duration": 1.3043480000000045
                },
                {
                    "name": "F#3",
                    "midi": 54,
                    "time": 596.7392099999876,
                    "velocity": 0.2283464566929134,
                    "duration": 1.3043480000000045
                },
                {
                    "name": "F#2",
                    "midi": 42,
                    "time": 598.0435579999876,
                    "velocity": 0.28346456692913385,
                    "duration": 0.4891304999999875
                },
                {
                    "name": "F#3",
                    "midi": 54,
                    "time": 598.0435579999876,
                    "velocity": 0.33858267716535434,
                    "duration": 0.4891304999999875
                },
                {
                    "name": "E2",
                    "midi": 40,
                    "time": 598.5326884999876,
                    "velocity": 0.2440944881889764,
                    "duration": 0.16304349999995793
                },
                {
                    "name": "E3",
                    "midi": 52,
                    "time": 598.5326884999876,
                    "velocity": 0.28346456692913385,
                    "duration": 0.16304349999995793
                },
                {
                    "name": "D2",
                    "midi": 38,
                    "time": 598.6957319999875,
                    "velocity": 0.2204724409448819,
                    "duration": 1.95652199999995
                },
                {
                    "name": "D3",
                    "midi": 50,
                    "time": 598.6957319999875,
                    "velocity": 0.25984251968503935,
                    "duration": 1.95652199999995
                },
                {
                    "name": "F#2",
                    "midi": 42,
                    "time": 600.6522539999875,
                    "velocity": 0.1968503937007874,
                    "duration": 1.95652199999995
                },
                {
                    "name": "F#3",
                    "midi": 54,
                    "time": 600.6522539999875,
                    "velocity": 0.23622047244094488,
                    "duration": 1.95652199999995
                },
                {
                    "name": "B2",
                    "midi": 47,
                    "time": 602.6087759999874,
                    "velocity": 0.2047244094488189,
                    "duration": 1.3043480000000045
                },
                {
                    "name": "B3",
                    "midi": 59,
                    "time": 602.6087759999874,
                    "velocity": 0.2440944881889764,
                    "duration": 1.3043480000000045
                },
                {
                    "name": "B2",
                    "midi": 47,
                    "time": 605.2174719999874,
                    "velocity": 0.2047244094488189,
                    "duration": 0.6521739999999454
                },
                {
                    "name": "B3",
                    "midi": 59,
                    "time": 605.2174719999874,
                    "velocity": 0.2440944881889764,
                    "duration": 0.6521739999999454
                },
                {
                    "name": "G2",
                    "midi": 43,
                    "time": 605.8696459999874,
                    "velocity": 0.1732283464566929,
                    "duration": 0.32608700000002955
                },
                {
                    "name": "G3",
                    "midi": 55,
                    "time": 605.8696459999874,
                    "velocity": 0.2047244094488189,
                    "duration": 0.32608700000002955
                },
                {
                    "name": "D2",
                    "midi": 38,
                    "time": 606.1957329999874,
                    "velocity": 0.1732283464566929,
                    "duration": 0.31793482499995207
                },
                {
                    "name": "D3",
                    "midi": 50,
                    "time": 606.1957329999874,
                    "velocity": 0.2047244094488189,
                    "duration": 0.31793482499995207
                },
                {
                    "name": "D2",
                    "midi": 38,
                    "time": 606.5218199999873,
                    "velocity": 0.2047244094488189,
                    "duration": 1.3043480000000045
                },
                {
                    "name": "D3",
                    "midi": 50,
                    "time": 606.5218199999873,
                    "velocity": 0.2440944881889764,
                    "duration": 1.3043480000000045
                },
                {
                    "name": "B1",
                    "midi": 35,
                    "time": 607.8261679999873,
                    "velocity": 0.1732283464566929,
                    "duration": 0.6467392166666741
                },
                {
                    "name": "B2",
                    "midi": 47,
                    "time": 607.8261679999873,
                    "velocity": 0.2047244094488189,
                    "duration": 0.6467392166666741
                },
                {
                    "name": "B1",
                    "midi": 35,
                    "time": 608.4783419999874,
                    "velocity": 0.2047244094488189,
                    "duration": 0.6521739999999454
                },
                {
                    "name": "B2",
                    "midi": 47,
                    "time": 608.4783419999874,
                    "velocity": 0.2440944881889764,
                    "duration": 0.6521739999999454
                },
                {
                    "name": "G1",
                    "midi": 31,
                    "time": 609.1305159999873,
                    "velocity": 0.1732283464566929,
                    "duration": 0.6521739999999454
                },
                {
                    "name": "G2",
                    "midi": 43,
                    "time": 609.1305159999873,
                    "velocity": 0.2125984251968504,
                    "duration": 0.6521739999999454
                },
                {
                    "name": "A1",
                    "midi": 33,
                    "time": 609.7826899999873,
                    "velocity": 0.1732283464566929,
                    "duration": 0.6521739999999454
                },
                {
                    "name": "A2",
                    "midi": 45,
                    "time": 609.7826899999873,
                    "velocity": 0.2125984251968504,
                    "duration": 0.6521739999999454
                },
                {
                    "name": "B1",
                    "midi": 35,
                    "time": 610.4348639999872,
                    "velocity": 0.36220472440944884,
                    "duration": 0.6521739999999454
                },
                {
                    "name": "B2",
                    "midi": 47,
                    "time": 610.4348639999872,
                    "velocity": 0.4330708661417323,
                    "duration": 0.6521739999999454
                },
                {
                    "name": "B2",
                    "midi": 47,
                    "time": 611.0870379999872,
                    "velocity": 0.3858267716535433,
                    "duration": 0.6521739999999454
                },
                {
                    "name": "G3",
                    "midi": 55,
                    "time": 611.0870379999872,
                    "velocity": 0.4566929133858268,
                    "duration": 0.6521739999999454
                },
                {
                    "name": "C3",
                    "midi": 48,
                    "time": 611.7392119999871,
                    "velocity": 0.4094488188976378,
                    "duration": 0.6521739999999454
                },
                {
                    "name": "A3",
                    "midi": 57,
                    "time": 611.7392119999871,
                    "velocity": 0.4881889763779528,
                    "duration": 0.6521739999999454
                },
                {
                    "name": "D3",
                    "midi": 50,
                    "time": 612.391385999987,
                    "velocity": 0.4251968503937008,
                    "duration": 0.6521739999999454
                },
                {
                    "name": "B3",
                    "midi": 59,
                    "time": 612.391385999987,
                    "velocity": 0.5118110236220472,
                    "duration": 0.6521739999999454
                },
                {
                    "name": "B3",
                    "midi": 59,
                    "time": 613.043559999987,
                    "velocity": 0.3543307086614173,
                    "duration": 0.6521739999999454
                },
                {
                    "name": "G3",
                    "midi": 55,
                    "time": 613.043559999987,
                    "velocity": 0.2992125984251969,
                    "duration": 0.6521739999999454
                },
                {
                    "name": "D3",
                    "midi": 50,
                    "time": 613.6957339999869,
                    "velocity": 0.25984251968503935,
                    "duration": 0.32608700000002955
                },
                {
                    "name": "C4",
                    "midi": 60,
                    "time": 613.6957339999869,
                    "velocity": 0.30708661417322836,
                    "duration": 0.32608700000002955
                },
                {
                    "name": "A3",
                    "midi": 57,
                    "time": 613.6957339999869,
                    "velocity": 0.25984251968503935,
                    "duration": 0.32608700000002955
                },
                {
                    "name": "B3",
                    "midi": 59,
                    "time": 614.021820999987,
                    "velocity": 0.2677165354330709,
                    "duration": 0.32608700000002955
                },
                {
                    "name": "G3",
                    "midi": 55,
                    "time": 614.021820999987,
                    "velocity": 0.2204724409448819,
                    "duration": 0.32608700000002955
                },
                {
                    "name": "G3",
                    "midi": 55,
                    "time": 614.347907999987,
                    "velocity": 0.28346456692913385,
                    "duration": 3.260870000000068
                },
                {
                    "name": "B3",
                    "midi": 59,
                    "time": 614.347907999987,
                    "velocity": 0.33070866141732286,
                    "duration": 0.22010872500004552
                },
                {
                    "name": "E4",
                    "midi": 64,
                    "time": 614.568016724987,
                    "velocity": 0.29133858267716534,
                    "duration": 0.21739133333335303
                },
                {
                    "name": "D4",
                    "midi": 62,
                    "time": 614.7826906666537,
                    "velocity": 0.29133858267716534,
                    "duration": 0.21739133333335303
                },
                {
                    "name": "C#4",
                    "midi": 61,
                    "time": 615.0000819999871,
                    "velocity": 0.33070866141732286,
                    "duration": 0.22010872500004552
                },
                {
                    "name": "E4",
                    "midi": 64,
                    "time": 615.2174733333204,
                    "velocity": 0.2992125984251969,
                    "duration": 0.21739133333335303
                },
                {
                    "name": "D4",
                    "midi": 62,
                    "time": 615.4348646666538,
                    "velocity": 0.2992125984251969,
                    "duration": 0.16304349999995793
                },
                {
                    "name": "B3",
                    "midi": 59,
                    "time": 615.652255999987,
                    "velocity": 0.33070866141732286,
                    "duration": 0.22010872500004552
                },
                {
                    "name": "E4",
                    "midi": 64,
                    "time": 615.872364724987,
                    "velocity": 0.29133858267716534,
                    "duration": 0.21739133333335303
                },
                {
                    "name": "D4",
                    "midi": 62,
                    "time": 616.0870386666537,
                    "velocity": 0.29133858267716534,
                    "duration": 0.16304350000007162
                },
                {
                    "name": "C#4",
                    "midi": 61,
                    "time": 616.3044299999871,
                    "velocity": 0.33070866141732286,
                    "duration": 0.22010872500004552
                },
                {
                    "name": "E4",
                    "midi": 64,
                    "time": 616.5218213333204,
                    "velocity": 0.29133858267716534,
                    "duration": 0.21739133333335303
                },
                {
                    "name": "D4",
                    "midi": 62,
                    "time": 616.7392126666538,
                    "velocity": 0.29133858267716534,
                    "duration": 0.16304349999995793
                },
                {
                    "name": "B3",
                    "midi": 59,
                    "time": 616.956603999987,
                    "velocity": 0.33070866141732286,
                    "duration": 0.22010872500004552
                },
                {
                    "name": "E4",
                    "midi": 64,
                    "time": 617.176712724987,
                    "velocity": 0.2992125984251969,
                    "duration": 0.21739133333335303
                },
                {
                    "name": "D4",
                    "midi": 62,
                    "time": 617.3913866666537,
                    "velocity": 0.2992125984251969,
                    "duration": 0.16304350000007162
                },
                {
                    "name": "G3",
                    "midi": 55,
                    "time": 617.6087779999871,
                    "velocity": 0.28346456692913385,
                    "duration": 0.6521739999999454
                },
                {
                    "name": "B3",
                    "midi": 59,
                    "time": 617.6087779999871,
                    "velocity": 0.33070866141732286,
                    "duration": 0.22010872500004552
                },
                {
                    "name": "D#4",
                    "midi": 63,
                    "time": 617.8261693333204,
                    "velocity": 0.2992125984251969,
                    "duration": 0.21739133333335303
                },
                {
                    "name": "D4",
                    "midi": 62,
                    "time": 618.0435606666538,
                    "velocity": 0.2992125984251969,
                    "duration": 0.16304349999995793
                },
                {
                    "name": "F#3",
                    "midi": 54,
                    "time": 618.260951999987,
                    "velocity": 0.28346456692913385,
                    "duration": 0.6521739999999454
                },
                {
                    "name": "A3",
                    "midi": 57,
                    "time": 618.260951999987,
                    "velocity": 0.33070866141732286,
                    "duration": 0.22010872500004552
                },
                {
                    "name": "E4",
                    "midi": 64,
                    "time": 618.4783433333204,
                    "velocity": 0.29133858267716534,
                    "duration": 0.21739133333335303
                },
                {
                    "name": "D4",
                    "midi": 62,
                    "time": 618.6957346666537,
                    "velocity": 0.29133858267716534,
                    "duration": 0.16304349999995793
                },
                {
                    "name": "G3",
                    "midi": 55,
                    "time": 618.913125999987,
                    "velocity": 0.28346456692913385,
                    "duration": 0.6521739999999454
                },
                {
                    "name": "B3",
                    "midi": 59,
                    "time": 618.913125999987,
                    "velocity": 0.33070866141732286,
                    "duration": 0.22010872500004552
                },
                {
                    "name": "E4",
                    "midi": 64,
                    "time": 619.1305173333203,
                    "velocity": 0.2992125984251969,
                    "duration": 0.21739133333335303
                },
                {
                    "name": "D4",
                    "midi": 62,
                    "time": 619.3479086666537,
                    "velocity": 0.2992125984251969,
                    "duration": 0.16304349999995793
                },
                {
                    "name": "A3",
                    "midi": 57,
                    "time": 619.5652999999869,
                    "velocity": 0.2992125984251969,
                    "duration": 0.6521739999999454
                },
                {
                    "name": "C4",
                    "midi": 60,
                    "time": 619.5652999999869,
                    "velocity": 0.36220472440944884,
                    "duration": 0.22010872500004552
                },
                {
                    "name": "E4",
                    "midi": 64,
                    "time": 619.7826913333203,
                    "velocity": 0.31496062992125984,
                    "duration": 0.21739133333335303
                },
                {
                    "name": "D4",
                    "midi": 62,
                    "time": 620.0000826666536,
                    "velocity": 0.31496062992125984,
                    "duration": 0.16304349999995793
                },
                {
                    "name": "A3",
                    "midi": 57,
                    "time": 620.2174739999869,
                    "velocity": 0.2992125984251969,
                    "duration": 0.6521739999999454
                },
                {
                    "name": "C4",
                    "midi": 60,
                    "time": 620.2174739999869,
                    "velocity": 0.3543307086614173,
                    "duration": 0.22010872500004552
                },
                {
                    "name": "E4",
                    "midi": 64,
                    "time": 620.4348653333202,
                    "velocity": 0.2992125984251969,
                    "duration": 0.21739133333335303
                },
                {
                    "name": "D4",
                    "midi": 62,
                    "time": 620.6522566666536,
                    "velocity": 0.2992125984251969,
                    "duration": 0.16304349999995793
                },
                {
                    "name": "G3",
                    "midi": 55,
                    "time": 620.8696479999868,
                    "velocity": 0.28346456692913385,
                    "duration": 0.6521739999999454
                },
                {
                    "name": "B3",
                    "midi": 59,
                    "time": 620.8696479999868,
                    "velocity": 0.33070866141732286,
                    "duration": 0.22010872500004552
                },
                {
                    "name": "E4",
                    "midi": 64,
                    "time": 621.0870393333201,
                    "velocity": 0.28346456692913385,
                    "duration": 0.21739133333335303
                },
                {
                    "name": "D4",
                    "midi": 62,
                    "time": 621.3044306666535,
                    "velocity": 0.28346456692913385,
                    "duration": 0.16304349999995793
                },
                {
                    "name": "F#3",
                    "midi": 54,
                    "time": 621.5218219999867,
                    "velocity": 0.2755905511811024,
                    "duration": 0.6521739999999454
                },
                {
                    "name": "A#3",
                    "midi": 58,
                    "time": 621.5218219999867,
                    "velocity": 0.3228346456692913,
                    "duration": 0.21739133333335303
                },
                {
                    "name": "E4",
                    "midi": 64,
                    "time": 621.7392133333201,
                    "velocity": 0.2992125984251969,
                    "duration": 0.21739133333335303
                },
                {
                    "name": "D4",
                    "midi": 62,
                    "time": 621.9566046666534,
                    "velocity": 0.2992125984251969,
                    "duration": 0.16304349999995793
                },
                {
                    "name": "G3",
                    "midi": 55,
                    "time": 622.1739959999867,
                    "velocity": 0.28346456692913385,
                    "duration": 3.260870000000068
                },
                {
                    "name": "B3",
                    "midi": 59,
                    "time": 622.1739959999867,
                    "velocity": 0.33070866141732286,
                    "duration": 0.22010872500004552
                },
                {
                    "name": "E4",
                    "midi": 64,
                    "time": 622.3941047249867,
                    "velocity": 0.29133858267716534,
                    "duration": 0.21739133333335303
                },
                {
                    "name": "D4",
                    "midi": 62,
                    "time": 622.6087786666534,
                    "velocity": 0.29133858267716534,
                    "duration": 0.21739133333335303
                },
                {
                    "name": "C#4",
                    "midi": 61,
                    "time": 622.8261699999867,
                    "velocity": 0.33858267716535434,
                    "duration": 0.22010872500004552
                },
                {
                    "name": "E4",
                    "midi": 64,
                    "time": 623.0435613333201,
                    "velocity": 0.2992125984251969,
                    "duration": 0.21739133333335303
                },
                {
                    "name": "D4",
                    "midi": 62,
                    "time": 623.2609526666535,
                    "velocity": 0.30708661417322836,
                    "duration": 0.16304349999995793
                },
                {
                    "name": "B3",
                    "midi": 59,
                    "time": 623.4783439999867,
                    "velocity": 0.3464566929133858,
                    "duration": 0.22010872500004552
                },
                {
                    "name": "E4",
                    "midi": 64,
                    "time": 623.6984527249867,
                    "velocity": 0.2992125984251969,
                    "duration": 0.21739133333335303
                },
                {
                    "name": "D4",
                    "midi": 62,
                    "time": 623.9131266666534,
                    "velocity": 0.30708661417322836,
                    "duration": 0.16304350000007162
                },
                {
                    "name": "C#4",
                    "midi": 61,
                    "time": 624.1305179999868,
                    "velocity": 0.36220472440944884,
                    "duration": 0.22010872500004552
                },
                {
                    "name": "E4",
                    "midi": 64,
                    "time": 624.3479093333201,
                    "velocity": 0.30708661417322836,
                    "duration": 0.21739133333335303
                },
                {
                    "name": "D4",
                    "midi": 62,
                    "time": 624.5653006666535,
                    "velocity": 0.31496062992125984,
                    "duration": 0.16304349999995793
                },
                {
                    "name": "B3",
                    "midi": 59,
                    "time": 624.7826919999867,
                    "velocity": 0.3700787401574803,
                    "duration": 0.22010872500004552
                },
                {
                    "name": "E4",
                    "midi": 64,
                    "time": 625.0028007249867,
                    "velocity": 0.33070866141732286,
                    "duration": 0.21739133333335303
                },
                {
                    "name": "D4",
                    "midi": 62,
                    "time": 625.2174746666534,
                    "velocity": 0.33070866141732286,
                    "duration": 0.16304350000007162
                },
                {
                    "name": "G3",
                    "midi": 55,
                    "time": 625.4348659999868,
                    "velocity": 0.31496062992125984,
                    "duration": 0.6521739999999454
                },
                {
                    "name": "B3",
                    "midi": 59,
                    "time": 625.4348659999868,
                    "velocity": 0.3779527559055118,
                    "duration": 0.22010872500004552
                },
                {
                    "name": "D#4",
                    "midi": 63,
                    "time": 625.6522573333201,
                    "velocity": 0.33858267716535434,
                    "duration": 0.21739133333335303
                },
                {
                    "name": "D4",
                    "midi": 62,
                    "time": 625.8696486666535,
                    "velocity": 0.33858267716535434,
                    "duration": 0.16304349999995793
                },
                {
                    "name": "F#3",
                    "midi": 54,
                    "time": 626.0870399999867,
                    "velocity": 0.3228346456692913,
                    "duration": 0.6521739999999454
                },
                {
                    "name": "A3",
                    "midi": 57,
                    "time": 626.0870399999867,
                    "velocity": 0.3937007874015748,
                    "duration": 0.22010872500004552
                },
                {
                    "name": "E4",
                    "midi": 64,
                    "time": 626.30443133332,
                    "velocity": 0.33858267716535434,
                    "duration": 0.21739133333335303
                },
                {
                    "name": "D4",
                    "midi": 62,
                    "time": 626.5218226666534,
                    "velocity": 0.33858267716535434,
                    "duration": 0.16304349999995793
                },
                {
                    "name": "G3",
                    "midi": 55,
                    "time": 626.7392139999866,
                    "velocity": 0.33070866141732286,
                    "duration": 0.6521739999999454
                },
                {
                    "name": "B3",
                    "midi": 59,
                    "time": 626.7392139999866,
                    "velocity": 0.4015748031496063,
                    "duration": 0.22010872500004552
                },
                {
                    "name": "E4",
                    "midi": 64,
                    "time": 626.95660533332,
                    "velocity": 0.3543307086614173,
                    "duration": 0.21739133333335303
                },
                {
                    "name": "D4",
                    "midi": 62,
                    "time": 627.1739966666534,
                    "velocity": 0.36220472440944884,
                    "duration": 0.16304349999995793
                },
                {
                    "name": "A3",
                    "midi": 57,
                    "time": 627.3913879999866,
                    "velocity": 0.3700787401574803,
                    "duration": 0.6521739999999454
                },
                {
                    "name": "C4",
                    "midi": 60,
                    "time": 627.3913879999866,
                    "velocity": 0.44881889763779526,
                    "duration": 0.22010872500004552
                },
                {
                    "name": "E4",
                    "midi": 64,
                    "time": 627.60877933332,
                    "velocity": 0.3937007874015748,
                    "duration": 0.21739133333335303
                },
                {
                    "name": "D4",
                    "midi": 62,
                    "time": 627.8261706666533,
                    "velocity": 0.4015748031496063,
                    "duration": 0.16304349999995793
                },
                {
                    "name": "A3",
                    "midi": 57,
                    "time": 628.0435619999865,
                    "velocity": 0.3700787401574803,
                    "duration": 0.6521739999999454
                },
                {
                    "name": "C4",
                    "midi": 60,
                    "time": 628.0435619999865,
                    "velocity": 0.44881889763779526,
                    "duration": 0.22010872500004552
                },
                {
                    "name": "E4",
                    "midi": 64,
                    "time": 628.2609533333199,
                    "velocity": 0.3779527559055118,
                    "duration": 0.21739133333335303
                },
                {
                    "name": "D4",
                    "midi": 62,
                    "time": 628.4783446666532,
                    "velocity": 0.3779527559055118,
                    "duration": 0.16304349999995793
                },
                {
                    "name": "G3",
                    "midi": 55,
                    "time": 628.6957359999865,
                    "velocity": 0.36220472440944884,
                    "duration": 0.6521739999999454
                },
                {
                    "name": "B3",
                    "midi": 59,
                    "time": 628.6957359999865,
                    "velocity": 0.4330708661417323,
                    "duration": 0.22010872500004552
                },
                {
                    "name": "E4",
                    "midi": 64,
                    "time": 628.9131273333198,
                    "velocity": 0.36220472440944884,
                    "duration": 0.21739133333335303
                },
                {
                    "name": "D4",
                    "midi": 62,
                    "time": 629.1305186666532,
                    "velocity": 0.3700787401574803,
                    "duration": 0.16304349999995793
                },
                {
                    "name": "F#3",
                    "midi": 54,
                    "time": 629.3479099999864,
                    "velocity": 0.36220472440944884,
                    "duration": 0.6521739999999454
                },
                {
                    "name": "A#3",
                    "midi": 58,
                    "time": 629.3479099999864,
                    "velocity": 0.4330708661417323,
                    "duration": 0.21739133333335303
                },
                {
                    "name": "E4",
                    "midi": 64,
                    "time": 629.5653013333198,
                    "velocity": 0.3937007874015748,
                    "duration": 0.21739133333335303
                },
                {
                    "name": "D4",
                    "midi": 62,
                    "time": 629.7826926666531,
                    "velocity": 0.2992125984251969,
                    "duration": 0.16304349999995793
                },
                {
                    "name": "F#3",
                    "midi": 54,
                    "time": 630.0000839999864,
                    "velocity": 0.3543307086614173,
                    "duration": 0.6521739999999454
                },
                {
                    "name": "A#3",
                    "midi": 58,
                    "time": 630.0000839999864,
                    "velocity": 0.4330708661417323,
                    "duration": 0.21739133333335303
                },
                {
                    "name": "E4",
                    "midi": 64,
                    "time": 630.2174753333197,
                    "velocity": 0.3937007874015748,
                    "duration": 0.21739133333335303
                },
                {
                    "name": "D4",
                    "midi": 62,
                    "time": 630.4348666666531,
                    "velocity": 0.4015748031496063,
                    "duration": 0.16304349999995793
                },
                {
                    "name": "G3",
                    "midi": 55,
                    "time": 630.6522579999863,
                    "velocity": 0.3937007874015748,
                    "duration": 0.6521739999999454
                },
                {
                    "name": "B3",
                    "midi": 59,
                    "time": 630.6522579999863,
                    "velocity": 0.47244094488188976,
                    "duration": 0.22010872500004552
                },
                {
                    "name": "E4",
                    "midi": 64,
                    "time": 630.8696493333197,
                    "velocity": 0.4251968503937008,
                    "duration": 0.21739133333335303
                },
                {
                    "name": "D4",
                    "midi": 62,
                    "time": 631.087040666653,
                    "velocity": 0.4330708661417323,
                    "duration": 0.16304349999995793
                },
                {
                    "name": "G#3",
                    "midi": 56,
                    "time": 631.3044319999863,
                    "velocity": 0.44881889763779526,
                    "duration": 0.6521739999999454
                },
                {
                    "name": "B3",
                    "midi": 59,
                    "time": 631.3044319999863,
                    "velocity": 0.5433070866141733,
                    "duration": 0.22010872500004552
                },
                {
                    "name": "E4",
                    "midi": 64,
                    "time": 631.5218233333196,
                    "velocity": 0.48031496062992124,
                    "duration": 0.21739133333335303
                },
                {
                    "name": "D4",
                    "midi": 62,
                    "time": 631.739214666653,
                    "velocity": 0.49606299212598426,
                    "duration": 0.16304349999995793
                },
                {
                    "name": "G#3",
                    "midi": 56,
                    "time": 631.9566059999862,
                    "velocity": 0.4645669291338583,
                    "duration": 0.6521739999999454
                },
                {
                    "name": "B3",
                    "midi": 59,
                    "time": 631.9566059999862,
                    "velocity": 0.5511811023622047,
                    "duration": 0.21739133333335303
                },
                {
                    "name": "E4",
                    "midi": 64,
                    "time": 632.1739973333196,
                    "velocity": 0.47244094488188976,
                    "duration": 0.21739133333335303
                },
                {
                    "name": "D4",
                    "midi": 62,
                    "time": 632.3913886666529,
                    "velocity": 0.48031496062992124,
                    "duration": 0.16304349999995793
                },
                {
                    "name": "G#3",
                    "midi": 56,
                    "time": 632.6087799999862,
                    "velocity": 0.4251968503937008,
                    "duration": 0.6521739999999454
                },
                {
                    "name": "B3",
                    "midi": 59,
                    "time": 632.6087799999862,
                    "velocity": 0.47244094488188976,
                    "duration": 0.22010872500004552
                },
                {
                    "name": "F4",
                    "midi": 65,
                    "time": 632.8261713333195,
                    "velocity": 0.4251968503937008,
                    "duration": 0.21739133333335303
                },
                {
                    "name": "D4",
                    "midi": 62,
                    "time": 633.0435626666529,
                    "velocity": 0.4330708661417323,
                    "duration": 0.16304349999995793
                },
                {
                    "name": "G#3",
                    "midi": 56,
                    "time": 633.2609539999861,
                    "velocity": 0.41732283464566927,
                    "duration": 0.6521739999999454
                },
                {
                    "name": "B3",
                    "midi": 59,
                    "time": 633.2609539999861,
                    "velocity": 0.49606299212598426,
                    "duration": 0.22010872500004552
                },
                {
                    "name": "F4",
                    "midi": 65,
                    "time": 633.4783453333195,
                    "velocity": 0.44881889763779526,
                    "duration": 0.21739133333335303
                },
                {
                    "name": "D4",
                    "midi": 62,
                    "time": 633.6957366666528,
                    "velocity": 0.44881889763779526,
                    "duration": 0.16304349999995793
                },
                {
                    "name": "A3",
                    "midi": 57,
                    "time": 633.913127999986,
                    "velocity": 0.4330708661417323,
                    "duration": 0.6521739999999454
                },
                {
                    "name": "D4",
                    "midi": 62,
                    "time": 633.913127999986,
                    "velocity": 0.5275590551181102,
                    "duration": 0.21739133333335303
                },
                {
                    "name": "F#4",
                    "midi": 66,
                    "time": 634.1305193333194,
                    "velocity": 0.4566929133858268,
                    "duration": 0.21739133333335303
                },
                {
                    "name": "E4",
                    "midi": 64,
                    "time": 634.3479106666528,
                    "velocity": 0.4645669291338583,
                    "duration": 0.16304349999995793
                },
                {
                    "name": "A#3",
                    "midi": 58,
                    "time": 634.565301999986,
                    "velocity": 0.4566929133858268,
                    "duration": 0.6521739999999454
                },
                {
                    "name": "D4",
                    "midi": 62,
                    "time": 634.565301999986,
                    "velocity": 0.5511811023622047,
                    "duration": 0.22010872500004552
                },
                {
                    "name": "F#4",
                    "midi": 66,
                    "time": 634.7826933333193,
                    "velocity": 0.4881889763779528,
                    "duration": 0.21739133333335303
                },
                {
                    "name": "E4",
                    "midi": 64,
                    "time": 635.0000846666527,
                    "velocity": 0.5039370078740157,
                    "duration": 0.16304349999995793
                },
                {
                    "name": "B3",
                    "midi": 59,
                    "time": 635.2174759999859,
                    "velocity": 0.5196850393700787,
                    "duration": 0.6521739999999454
                },
                {
                    "name": "D4",
                    "midi": 62,
                    "time": 635.2174759999859,
                    "velocity": 0.6220472440944882,
                    "duration": 0.22010872500004552
                },
                {
                    "name": "F#4",
                    "midi": 66,
                    "time": 635.4348673333193,
                    "velocity": 0.5590551181102362,
                    "duration": 0.21739133333335303
                },
                {
                    "name": "E4",
                    "midi": 64,
                    "time": 635.6522586666526,
                    "velocity": 0.5669291338582677,
                    "duration": 0.16304349999995793
                },
                {
                    "name": "B3",
                    "midi": 59,
                    "time": 635.8696499999859,
                    "velocity": 0.5354330708661418,
                    "duration": 0.6521739999999454
                },
                {
                    "name": "D4",
                    "midi": 62,
                    "time": 635.8696499999859,
                    "velocity": 0.6377952755905512,
                    "duration": 0.21739133333335303
                },
                {
                    "name": "F#4",
                    "midi": 66,
                    "time": 636.0870413333192,
                    "velocity": 0.5433070866141733,
                    "duration": 0.21739133333335303
                },
                {
                    "name": "E4",
                    "midi": 64,
                    "time": 636.3044326666526,
                    "velocity": 0.5511811023622047,
                    "duration": 0.16304349999995793
                },
                {
                    "name": "B3",
                    "midi": 59,
                    "time": 636.5218239999858,
                    "velocity": 0.4881889763779528,
                    "duration": 0.6521739999999454
                },
                {
                    "name": "D4",
                    "midi": 62,
                    "time": 636.5218239999858,
                    "velocity": 0.5433070866141733,
                    "duration": 0.22010872500004552
                },
                {
                    "name": "F#4",
                    "midi": 66,
                    "time": 636.7392153333192,
                    "velocity": 0.49606299212598426,
                    "duration": 0.21739133333335303
                },
                {
                    "name": "E4",
                    "midi": 64,
                    "time": 636.9566066666525,
                    "velocity": 0.49606299212598426,
                    "duration": 0.16304349999995793
                },
                {
                    "name": "B3",
                    "midi": 59,
                    "time": 637.1739979999858,
                    "velocity": 0.48031496062992124,
                    "duration": 0.6521739999999454
                },
                {
                    "name": "D4",
                    "midi": 62,
                    "time": 637.1739979999858,
                    "velocity": 0.5669291338582677,
                    "duration": 0.22010872500004552
                },
                {
                    "name": "F4",
                    "midi": 65,
                    "time": 637.3913893333191,
                    "velocity": 0.5118110236220472,
                    "duration": 0.21739133333335303
                },
                {
                    "name": "F#4",
                    "midi": 66,
                    "time": 637.6087806666525,
                    "velocity": 0.5196850393700787,
                    "duration": 0.16304349999995793
                },
                {
                    "name": "B3",
                    "midi": 59,
                    "time": 637.8261719999857,
                    "velocity": 0.49606299212598426,
                    "duration": 0.6521739999999454
                },
                {
                    "name": "D4",
                    "midi": 62,
                    "time": 637.8261719999857,
                    "velocity": 0.5984251968503937,
                    "duration": 0.21739133333335303
                },
                {
                    "name": "G4",
                    "midi": 67,
                    "time": 638.0435633333191,
                    "velocity": 0.5196850393700787,
                    "duration": 0.21739133333335303
                },
                {
                    "name": "F#4",
                    "midi": 66,
                    "time": 638.2609546666524,
                    "velocity": 0.5275590551181102,
                    "duration": 0.16304349999995793
                },
                {
                    "name": "C4",
                    "midi": 60,
                    "time": 638.4783459999857,
                    "velocity": 0.5196850393700787,
                    "duration": 0.6521739999999454
                },
                {
                    "name": "D#4",
                    "midi": 63,
                    "time": 638.4783459999857,
                    "velocity": 0.6220472440944882,
                    "duration": 0.21739133333335303
                },
                {
                    "name": "G#4",
                    "midi": 68,
                    "time": 638.695737333319,
                    "velocity": 0.5590551181102362,
                    "duration": 0.21739133333335303
                },
                {
                    "name": "F#4",
                    "midi": 66,
                    "time": 638.9131286666524,
                    "velocity": 0.5748031496062992,
                    "duration": 0.16304349999995793
                },
                {
                    "name": "C4",
                    "midi": 60,
                    "time": 639.1305199999856,
                    "velocity": 0.5590551181102362,
                    "duration": 0.6521739999999454
                },
                {
                    "name": "D#4",
                    "midi": 63,
                    "time": 639.1305199999856,
                    "velocity": 0.6614173228346457,
                    "duration": 0.21739133333335303
                },
                {
                    "name": "A4",
                    "midi": 69,
                    "time": 639.347911333319,
                    "velocity": 0.5669291338582677,
                    "duration": 0.21739133333335303
                },
                {
                    "name": "F#4",
                    "midi": 66,
                    "time": 639.5653026666523,
                    "velocity": 0.5669291338582677,
                    "duration": 0.16304349999995793
                },
                {
                    "name": "C3",
                    "midi": 48,
                    "time": 639.7826939999856,
                    "velocity": 0.5748031496062992,
                    "duration": 0.6521739999999454
                },
                {
                    "name": "D#3",
                    "midi": 51,
                    "time": 639.7826939999856,
                    "velocity": 0.6771653543307087,
                    "duration": 0.21739133333335303
                },
                {
                    "name": "A3",
                    "midi": 57,
                    "time": 640.0000853333189,
                    "velocity": 0.5826771653543307,
                    "duration": 0.21739133333335303
                },
                {
                    "name": "F#3",
                    "midi": 54,
                    "time": 640.2174766666523,
                    "velocity": 0.5826771653543307,
                    "duration": 0.16304349999995793
                },
                {
                    "name": "C4",
                    "midi": 60,
                    "time": 640.4348679999855,
                    "velocity": 0.5433070866141733,
                    "duration": 0.6521739999999454
                },
                {
                    "name": "D#4",
                    "midi": 63,
                    "time": 640.4348679999855,
                    "velocity": 0.6456692913385826,
                    "duration": 0.21739133333335303
                },
                {
                    "name": "A4",
                    "midi": 69,
                    "time": 640.6522593333189,
                    "velocity": 0.5748031496062992,
                    "duration": 0.21739133333335303
                },
                {
                    "name": "F#4",
                    "midi": 66,
                    "time": 640.8696506666522,
                    "velocity": 0.5748031496062992,
                    "duration": 0.16304349999995793
                },
                {
                    "name": "C3",
                    "midi": 48,
                    "time": 641.0870419999854,
                    "velocity": 0.5590551181102362,
                    "duration": 0.6521739999999454
                },
                {
                    "name": "D#3",
                    "midi": 51,
                    "time": 641.0870419999854,
                    "velocity": 0.6614173228346457,
                    "duration": 0.21739133333335303
                },
                {
                    "name": "A3",
                    "midi": 57,
                    "time": 641.3044333333188,
                    "velocity": 0.5984251968503937,
                    "duration": 0.21739133333335303
                },
                {
                    "name": "F#3",
                    "midi": 54,
                    "time": 641.5218246666522,
                    "velocity": 0.5984251968503937,
                    "duration": 0.16304349999995793
                },
                {
                    "name": "C4",
                    "midi": 60,
                    "time": 641.7392159999854,
                    "velocity": 0.6377952755905512,
                    "duration": 0.09782610000002023
                },
                {
                    "name": "A4",
                    "midi": 69,
                    "time": 641.9022594999855,
                    "velocity": 0.5826771653543307,
                    "duration": 0.16304349999995793
                },
                {
                    "name": "F#4",
                    "midi": 66,
                    "time": 642.0653029999854,
                    "velocity": 0.5826771653543307,
                    "duration": 0.16304349999995793
                },
                {
                    "name": "D#4",
                    "midi": 63,
                    "time": 642.0653029999854,
                    "velocity": 0.4881889763779528,
                    "duration": 0.16304349999995793
                },
                {
                    "name": "A4",
                    "midi": 69,
                    "time": 642.2283464999854,
                    "velocity": 0.5826771653543307,
                    "duration": 0.16304349999995793
                },
                {
                    "name": "C3",
                    "midi": 48,
                    "time": 642.3913899999853,
                    "velocity": 0.6377952755905512,
                    "duration": 0.09782610000002023
                },
                {
                    "name": "A3",
                    "midi": 57,
                    "time": 642.5544334999854,
                    "velocity": 0.5905511811023622,
                    "duration": 0.16304349999995793
                },
                {
                    "name": "D#3",
                    "midi": 51,
                    "time": 642.7174769999854,
                    "velocity": 0.49606299212598426,
                    "duration": 0.16304349999995793
                },
                {
                    "name": "F#3",
                    "midi": 54,
                    "time": 642.7174769999854,
                    "velocity": 0.5905511811023622,
                    "duration": 0.16304349999995793
                },
                {
                    "name": "A3",
                    "midi": 57,
                    "time": 642.8805204999853,
                    "velocity": 0.5905511811023622,
                    "duration": 0.16304349999995793
                },
                {
                    "name": "C4",
                    "midi": 60,
                    "time": 643.0435639999853,
                    "velocity": 0.6377952755905512,
                    "duration": 0.09782610000002023
                },
                {
                    "name": "A4",
                    "midi": 69,
                    "time": 643.2066074999854,
                    "velocity": 0.5826771653543307,
                    "duration": 0.16304349999995793
                },
                {
                    "name": "F#4",
                    "midi": 66,
                    "time": 643.3696509999853,
                    "velocity": 0.5826771653543307,
                    "duration": 0.16304349999995793
                },
                {
                    "name": "D#4",
                    "midi": 63,
                    "time": 643.3696509999853,
                    "velocity": 0.4881889763779528,
                    "duration": 0.16304349999995793
                },
                {
                    "name": "A4",
                    "midi": 69,
                    "time": 643.5326944999853,
                    "velocity": 0.5826771653543307,
                    "duration": 0.16304349999995793
                },
                {
                    "name": "C3",
                    "midi": 48,
                    "time": 643.6957379999852,
                    "velocity": 0.6377952755905512,
                    "duration": 0.06521740000005138
                },
                {
                    "name": "A3",
                    "midi": 57,
                    "time": 643.8044336666519,
                    "velocity": 0.5748031496062992,
                    "duration": 0.10869566666667652
                },
                {
                    "name": "D#3",
                    "midi": 51,
                    "time": 643.9131293333186,
                    "velocity": 0.5748031496062992,
                    "duration": 0.10869566666667652
                },
                {
                    "name": "F#3",
                    "midi": 54,
                    "time": 643.9158467249853,
                    "velocity": 0.5748031496062992,
                    "duration": 0.10869566666667652
                },
                {
                    "name": "A3",
                    "midi": 57,
                    "time": 644.024542391652,
                    "velocity": 0.5748031496062992,
                    "duration": 0.10869566666667652
                },
                {
                    "name": "D#3",
                    "midi": 51,
                    "time": 644.1305206666519,
                    "velocity": 0.4881889763779528,
                    "duration": 0.10869566666667652
                },
                {
                    "name": "F#3",
                    "midi": 54,
                    "time": 644.1305206666519,
                    "velocity": 0.5748031496062992,
                    "duration": 0.10869566666667652
                },
                {
                    "name": "A3",
                    "midi": 57,
                    "time": 644.2392163333186,
                    "velocity": 0.5748031496062992,
                    "duration": 0.10869566666667652
                },
                {
                    "name": "C4",
                    "midi": 60,
                    "time": 644.3479119999853,
                    "velocity": 0.6377952755905512,
                    "duration": 0.06521740000005138
                },
                {
                    "name": "A4",
                    "midi": 69,
                    "time": 644.456607666652,
                    "velocity": 0.5748031496062992,
                    "duration": 0.10869566666667652
                },
                {
                    "name": "D#4",
                    "midi": 63,
                    "time": 644.5653033333186,
                    "velocity": 0.5748031496062992,
                    "duration": 0.10869566666667652
                },
                {
                    "name": "F#4",
                    "midi": 66,
                    "time": 644.5680207249853,
                    "velocity": 0.5748031496062992,
                    "duration": 0.10869566666667652
                },
                {
                    "name": "A4",
                    "midi": 69,
                    "time": 644.676716391652,
                    "velocity": 0.5748031496062992,
                    "duration": 0.10869566666667652
                },
                {
                    "name": "D#4",
                    "midi": 63,
                    "time": 644.782694666652,
                    "velocity": 0.4881889763779528,
                    "duration": 0.10869566666667652
                },
                {
                    "name": "F#4",
                    "midi": 66,
                    "time": 644.782694666652,
                    "velocity": 0.5748031496062992,
                    "duration": 0.10869566666667652
                },
                {
                    "name": "A4",
                    "midi": 69,
                    "time": 644.8913903333187,
                    "velocity": 0.5748031496062992,
                    "duration": 0.10869566666667652
                },
                {
                    "name": "C3",
                    "midi": 48,
                    "time": 645.0000859999853,
                    "velocity": 0.6377952755905512,
                    "duration": 0.06521740000005138
                },
                {
                    "name": "A3",
                    "midi": 57,
                    "time": 645.108781666652,
                    "velocity": 0.5826771653543307,
                    "duration": 0.10869566666667652
                },
                {
                    "name": "D#3",
                    "midi": 51,
                    "time": 645.2174773333187,
                    "velocity": 0.5826771653543307,
                    "duration": 0.10869566666667652
                },
                {
                    "name": "F#3",
                    "midi": 54,
                    "time": 645.2201947249854,
                    "velocity": 0.5826771653543307,
                    "duration": 0.10869566666667652
                },
                {
                    "name": "A3",
                    "midi": 57,
                    "time": 645.3288903916521,
                    "velocity": 0.5826771653543307,
                    "duration": 0.10869566666667652
                },
                {
                    "name": "D#3",
                    "midi": 51,
                    "time": 645.434868666652,
                    "velocity": 0.4881889763779528,
                    "duration": 0.10869566666667652
                },
                {
                    "name": "F#3",
                    "midi": 54,
                    "time": 645.434868666652,
                    "velocity": 0.5826771653543307,
                    "duration": 0.10869566666667652
                },
                {
                    "name": "A3",
                    "midi": 57,
                    "time": 645.5435643333187,
                    "velocity": 0.5826771653543307,
                    "duration": 0.10869566666667652
                },
                {
                    "name": "C#4",
                    "midi": 61,
                    "time": 645.6522599999854,
                    "velocity": 0.2992125984251969,
                    "duration": 1.3043480000000045
                },
                {
                    "name": "A3",
                    "midi": 57,
                    "time": 646.9566079999854,
                    "velocity": 0.25984251968503935,
                    "duration": 0.6467392166666741
                },
                {
                    "name": "A3",
                    "midi": 57,
                    "time": 647.6087819999855,
                    "velocity": 0.2755905511811024,
                    "duration": 0.6521739999999454
                },
                {
                    "name": "F#3",
                    "midi": 54,
                    "time": 648.2609559999854,
                    "velocity": 0.2440944881889764,
                    "duration": 0.6521739999999454
                },
                {
                    "name": "C#3",
                    "midi": 49,
                    "time": 648.9131299999854,
                    "velocity": 0.2047244094488189,
                    "duration": 0.6521739999999454
                },
                {
                    "name": "G#3",
                    "midi": 56,
                    "time": 648.9131299999854,
                    "velocity": 0.2440944881889764,
                    "duration": 0.6521739999999454
                },
                {
                    "name": "F#2",
                    "midi": 42,
                    "time": 649.5653039999853,
                    "velocity": 0.2204724409448819,
                    "duration": 1.3043480000000045
                },
                {
                    "name": "F#3",
                    "midi": 54,
                    "time": 649.5653039999853,
                    "velocity": 0.2677165354330709,
                    "duration": 1.3043480000000045
                },
                {
                    "name": "F#2",
                    "midi": 42,
                    "time": 650.8696519999853,
                    "velocity": 0.2755905511811024,
                    "duration": 0.6521739999999454
                },
                {
                    "name": "F#3",
                    "midi": 54,
                    "time": 650.8696519999853,
                    "velocity": 0.3228346456692913,
                    "duration": 0.6521739999999454
                },
                {
                    "name": "B1",
                    "midi": 35,
                    "time": 651.5218259999853,
                    "velocity": 0.28346456692913385,
                    "duration": 1.3043480000000045
                },
                {
                    "name": "B2",
                    "midi": 47,
                    "time": 651.5218259999853,
                    "velocity": 0.33858267716535434,
                    "duration": 1.3043480000000045
                },
                {
                    "name": "B1",
                    "midi": 35,
                    "time": 652.8261739999853,
                    "velocity": 0.3228346456692913,
                    "duration": 0.6521739999999454
                },
                {
                    "name": "B2",
                    "midi": 47,
                    "time": 652.8261739999853,
                    "velocity": 0.3858267716535433,
                    "duration": 0.6521739999999454
                },
                {
                    "name": "G#1",
                    "midi": 32,
                    "time": 653.4783479999852,
                    "velocity": 0.3700787401574803,
                    "duration": 1.3043480000000045
                },
                {
                    "name": "G#2",
                    "midi": 44,
                    "time": 653.4783479999852,
                    "velocity": 0.4566929133858268,
                    "duration": 1.3043480000000045
                },
                {
                    "name": "A1",
                    "midi": 33,
                    "time": 654.7826959999852,
                    "velocity": 0.31496062992125984,
                    "duration": 0.6467392166666741
                },
                {
                    "name": "A2",
                    "midi": 45,
                    "time": 654.7826959999852,
                    "velocity": 0.3700787401574803,
                    "duration": 0.6467392166666741
                },
                {
                    "name": "A1",
                    "midi": 33,
                    "time": 655.4348699999853,
                    "velocity": 0.36220472440944884,
                    "duration": 0.6521739999999454
                },
                {
                    "name": "A2",
                    "midi": 45,
                    "time": 655.4348699999853,
                    "velocity": 0.44881889763779526,
                    "duration": 0.6521739999999454
                },
                {
                    "name": "B1",
                    "midi": 35,
                    "time": 656.0870439999852,
                    "velocity": 0.33858267716535434,
                    "duration": 0.6521739999999454
                },
                {
                    "name": "B2",
                    "midi": 47,
                    "time": 656.0870439999852,
                    "velocity": 0.4015748031496063,
                    "duration": 0.6521739999999454
                },
                {
                    "name": "C3",
                    "midi": 48,
                    "time": 656.7392179999852,
                    "velocity": 0.4015748031496063,
                    "duration": 0.6521739999999454
                },
                {
                    "name": "C2",
                    "midi": 36,
                    "time": 656.7392179999852,
                    "velocity": 0.33070866141732286,
                    "duration": 0.6521739999999454
                },
                {
                    "name": "C2",
                    "midi": 36,
                    "time": 657.3913919999851,
                    "velocity": 0.2677165354330709,
                    "duration": 0.6521739999999454
                },
                {
                    "name": "C3",
                    "midi": 48,
                    "time": 657.3913919999851,
                    "velocity": 0.33070866141732286,
                    "duration": 0.6521739999999454
                },
                {
                    "name": "C#2",
                    "midi": 37,
                    "time": 658.043565999985,
                    "velocity": 0.2992125984251969,
                    "duration": 0.978260999999975
                },
                {
                    "name": "C#3",
                    "midi": 49,
                    "time": 658.043565999985,
                    "velocity": 0.3543307086614173,
                    "duration": 0.978260999999975
                },
                {
                    "name": "C2",
                    "midi": 36,
                    "time": 659.021826999985,
                    "velocity": 0.2677165354330709,
                    "duration": 0.32608700000002955
                },
                {
                    "name": "C3",
                    "midi": 48,
                    "time": 659.021826999985,
                    "velocity": 0.31496062992125984,
                    "duration": 0.32608700000002955
                },
                {
                    "name": "C#2",
                    "midi": 37,
                    "time": 659.347913999985,
                    "velocity": 0.30708661417322836,
                    "duration": 0.6521739999999454
                },
                {
                    "name": "C#3",
                    "midi": 49,
                    "time": 659.347913999985,
                    "velocity": 0.3779527559055118,
                    "duration": 0.6521739999999454
                },
                {
                    "name": "C#2",
                    "midi": 37,
                    "time": 660.000087999985,
                    "velocity": 0.2992125984251969,
                    "duration": 0.6521739999999454
                },
                {
                    "name": "C#3",
                    "midi": 49,
                    "time": 660.000087999985,
                    "velocity": 0.3543307086614173,
                    "duration": 0.6521739999999454
                },
                {
                    "name": "D3",
                    "midi": 50,
                    "time": 660.652261999985,
                    "velocity": 0.3779527559055118,
                    "duration": 0.6521739999999454
                },
                {
                    "name": "D2",
                    "midi": 38,
                    "time": 660.652261999985,
                    "velocity": 0.31496062992125984,
                    "duration": 0.6521739999999454
                },
                {
                    "name": "G2",
                    "midi": 43,
                    "time": 661.3044359999849,
                    "velocity": 0.33858267716535434,
                    "duration": 1.95652199999995
                },
                {
                    "name": "G1",
                    "midi": 31,
                    "time": 661.3044359999849,
                    "velocity": 0.25196850393700787,
                    "duration": 1.95652199999995
                },
                {
                    "name": "D2",
                    "midi": 38,
                    "time": 661.3044359999849,
                    "velocity": 0.25196850393700787,
                    "duration": 1.95652199999995
                },
                {
                    "name": "G2",
                    "midi": 43,
                    "time": 663.2609579999848,
                    "velocity": 0.23622047244094488,
                    "duration": 1.95652199999995
                },
                {
                    "name": "B1",
                    "midi": 35,
                    "time": 663.2609579999848,
                    "velocity": 0.23622047244094488,
                    "duration": 1.95652199999995
                },
                {
                    "name": "D3",
                    "midi": 50,
                    "time": 663.2609579999848,
                    "velocity": 0.28346456692913385,
                    "duration": 1.95652199999995
                },
                {
                    "name": "C2",
                    "midi": 36,
                    "time": 665.2174799999848,
                    "velocity": 0.25984251968503935,
                    "duration": 1.95652199999995
                },
                {
                    "name": "E3",
                    "midi": 52,
                    "time": 665.2174799999848,
                    "velocity": 0.30708661417322836,
                    "duration": 1.95652199999995
                },
                {
                    "name": "G2",
                    "midi": 43,
                    "time": 665.2174799999848,
                    "velocity": 0.25984251968503935,
                    "duration": 1.95652199999995
                },
                {
                    "name": "B1",
                    "midi": 35,
                    "time": 667.1740019999847,
                    "velocity": 0.2283464566929134,
                    "duration": 0.6521739999999454
                },
                {
                    "name": "G2",
                    "midi": 43,
                    "time": 667.1740019999847,
                    "velocity": 0.2283464566929134,
                    "duration": 0.6521739999999454
                },
                {
                    "name": "D3",
                    "midi": 50,
                    "time": 667.1740019999847,
                    "velocity": 0.2755905511811024,
                    "duration": 0.6521739999999454
                },
                {
                    "name": "G2",
                    "midi": 43,
                    "time": 667.8261759999847,
                    "velocity": 0.36220472440944884,
                    "duration": 0.978260999999975
                },
                {
                    "name": "D2",
                    "midi": 38,
                    "time": 668.4783499999846,
                    "velocity": 0.25196850393700787,
                    "duration": 0.6521740000000591
                },
                {
                    "name": "F#2",
                    "midi": 42,
                    "time": 668.8044369999847,
                    "velocity": 0.2992125984251969,
                    "duration": 0.32336960833333706
                },
                {
                    "name": "D2",
                    "midi": 38,
                    "time": 669.1305239999847,
                    "velocity": 0.2283464566929134,
                    "duration": 0.6521739999999454
                },
                {
                    "name": "F#2",
                    "midi": 42,
                    "time": 669.1305239999847,
                    "velocity": 0.2755905511811024,
                    "duration": 0.6521739999999454
                },
                {
                    "name": "C#2",
                    "midi": 37,
                    "time": 669.7826979999846,
                    "velocity": 0.2283464566929134,
                    "duration": 0.6521739999999454
                },
                {
                    "name": "A2",
                    "midi": 45,
                    "time": 669.7826979999846,
                    "velocity": 0.2440944881889764,
                    "duration": 0.6521739999999454
                },
                {
                    "name": "C#2",
                    "midi": 37,
                    "time": 670.4348719999846,
                    "velocity": 0.2047244094488189,
                    "duration": 0.6467392166666741
                },
                {
                    "name": "C#3",
                    "midi": 49,
                    "time": 670.4348719999846,
                    "velocity": 0.2440944881889764,
                    "duration": 0.6467392166666741
                },
                {
                    "name": "C#2",
                    "midi": 37,
                    "time": 671.0870459999846,
                    "velocity": 0.2283464566929134,
                    "duration": 1.3043480000000045
                },
                {
                    "name": "C#3",
                    "midi": 49,
                    "time": 671.0870459999846,
                    "velocity": 0.2755905511811024,
                    "duration": 1.3043480000000045
                },
                {
                    "name": "F#2",
                    "midi": 42,
                    "time": 672.3913939999846,
                    "velocity": 0.2125984251968504,
                    "duration": 0.6467392166666741
                },
                {
                    "name": "C#3",
                    "midi": 49,
                    "time": 672.3913939999846,
                    "velocity": 0.25196850393700787,
                    "duration": 0.6467392166666741
                },
                {
                    "name": "F#2",
                    "midi": 42,
                    "time": 673.0435679999847,
                    "velocity": 0.2283464566929134,
                    "duration": 0.6521739999999454
                },
                {
                    "name": "C#3",
                    "midi": 49,
                    "time": 673.0435679999847,
                    "velocity": 0.2755905511811024,
                    "duration": 0.6766305249999505
                },
                {
                    "name": "B1",
                    "midi": 35,
                    "time": 673.6957419999846,
                    "velocity": 0.2125984251968504,
                    "duration": 1.95652199999995
                },
                {
                    "name": "D3",
                    "midi": 50,
                    "time": 673.6957419999846,
                    "velocity": 0.25196850393700787,
                    "duration": 0.6521740000000591
                },
                {
                    "name": "G2",
                    "midi": 43,
                    "time": 674.3479159999847,
                    "velocity": 0.25196850393700787,
                    "duration": 0.6521739999999454
                },
                {
                    "name": "B2",
                    "midi": 47,
                    "time": 675.0000899999847,
                    "velocity": 0.2755905511811024,
                    "duration": 0.6521739999999454
                },
                {
                    "name": "C#2",
                    "midi": 37,
                    "time": 675.6522639999846,
                    "velocity": 0.2755905511811024,
                    "duration": 0.6521739999999454
                },
                {
                    "name": "C#2",
                    "midi": 37,
                    "time": 676.3044379999845,
                    "velocity": 0.25984251968503935,
                    "duration": 0.6521740000000591
                },
                {
                    "name": "F2",
                    "midi": 41,
                    "time": 676.3044379999845,
                    "velocity": 0.25984251968503935,
                    "duration": 0.32608700000002955
                },
                {
                    "name": "F#2",
                    "midi": 42,
                    "time": 676.6305249999846,
                    "velocity": 0.23622047244094488,
                    "duration": 0.32608700000002955
                },
                {
                    "name": "C#2",
                    "midi": 37,
                    "time": 676.9566119999846,
                    "velocity": 0.2283464566929134,
                    "duration": 0.6521739999999454
                },
                {
                    "name": "F#2",
                    "midi": 42,
                    "time": 676.9566119999846,
                    "velocity": 0.2755905511811024,
                    "duration": 0.6521739999999454
                },
                {
                    "name": "F#1",
                    "midi": 30,
                    "time": 677.6087859999845,
                    "velocity": 0.18110236220472442,
                    "duration": 0.6521739999999454
                },
                {
                    "name": "F#2",
                    "midi": 42,
                    "time": 677.6087859999845,
                    "velocity": 0.2204724409448819,
                    "duration": 0.6521739999999454
                },
                {
                    "name": "A#1",
                    "midi": 34,
                    "time": 678.2609599999845,
                    "velocity": 0.18110236220472442,
                    "duration": 0.6521739999999454
                },
                {
                    "name": "A#2",
                    "midi": 46,
                    "time": 678.2609599999845,
                    "velocity": 0.2204724409448819,
                    "duration": 0.6521739999999454
                },
                {
                    "name": "C#2",
                    "midi": 37,
                    "time": 678.9131339999844,
                    "velocity": 0.2283464566929134,
                    "duration": 0.6521739999999454
                },
                {
                    "name": "C#3",
                    "midi": 49,
                    "time": 678.9131339999844,
                    "velocity": 0.2755905511811024,
                    "duration": 0.6521739999999454
                },
                {
                    "name": "F#1",
                    "midi": 30,
                    "time": 679.5653079999844,
                    "velocity": 0.18110236220472442,
                    "duration": 0.6521739999999454
                },
                {
                    "name": "F#2",
                    "midi": 42,
                    "time": 679.5653079999844,
                    "velocity": 0.2204724409448819,
                    "duration": 0.6521739999999454
                },
                {
                    "name": "A#1",
                    "midi": 34,
                    "time": 680.2174819999843,
                    "velocity": 0.18110236220472442,
                    "duration": 0.6521739999999454
                },
                {
                    "name": "A#2",
                    "midi": 46,
                    "time": 680.2174819999843,
                    "velocity": 0.2204724409448819,
                    "duration": 0.6521739999999454
                },
                {
                    "name": "B1",
                    "midi": 35,
                    "time": 680.8696559999843,
                    "velocity": 0.2047244094488189,
                    "duration": 0.6521739999999454
                },
                {
                    "name": "B2",
                    "midi": 47,
                    "time": 680.8696559999843,
                    "velocity": 0.2440944881889764,
                    "duration": 0.6521739999999454
                },
                {
                    "name": "F#1",
                    "midi": 30,
                    "time": 681.5218299999842,
                    "velocity": 0.1732283464566929,
                    "duration": 0.6521739999999454
                },
                {
                    "name": "F#2",
                    "midi": 42,
                    "time": 681.5218299999842,
                    "velocity": 0.2125984251968504,
                    "duration": 0.6521739999999454
                },
                {
                    "name": "B1",
                    "midi": 35,
                    "time": 682.1740039999842,
                    "velocity": 0.1732283464566929,
                    "duration": 0.6521739999999454
                },
                {
                    "name": "B2",
                    "midi": 47,
                    "time": 682.1740039999842,
                    "velocity": 0.2125984251968504,
                    "duration": 0.6521739999999454
                },
                {
                    "name": "D2",
                    "midi": 38,
                    "time": 682.8261779999841,
                    "velocity": 0.2047244094488189,
                    "duration": 0.6521739999999454
                },
                {
                    "name": "D3",
                    "midi": 50,
                    "time": 682.8261779999841,
                    "velocity": 0.2440944881889764,
                    "duration": 0.6521739999999454
                },
                {
                    "name": "F#1",
                    "midi": 30,
                    "time": 683.478351999984,
                    "velocity": 0.16535433070866143,
                    "duration": 0.6521739999999454
                },
                {
                    "name": "F#2",
                    "midi": 42,
                    "time": 683.478351999984,
                    "velocity": 0.1968503937007874,
                    "duration": 0.6521739999999454
                },
                {
                    "name": "B1",
                    "midi": 35,
                    "time": 684.130525999984,
                    "velocity": 0.16535433070866143,
                    "duration": 0.6521739999999454
                },
                {
                    "name": "B2",
                    "midi": 47,
                    "time": 684.130525999984,
                    "velocity": 0.1968503937007874,
                    "duration": 0.6521739999999454
                },
                {
                    "name": "C#2",
                    "midi": 37,
                    "time": 684.782699999984,
                    "velocity": 0.1889763779527559,
                    "duration": 0.6521739999999454
                },
                {
                    "name": "C#3",
                    "midi": 49,
                    "time": 684.782699999984,
                    "velocity": 0.2283464566929134,
                    "duration": 0.6521739999999454
                },
                {
                    "name": "F#1",
                    "midi": 30,
                    "time": 685.4348739999839,
                    "velocity": 0.14960629921259844,
                    "duration": 0.6521739999999454
                },
                {
                    "name": "F#2",
                    "midi": 42,
                    "time": 685.4348739999839,
                    "velocity": 0.18110236220472442,
                    "duration": 0.6521739999999454
                },
                {
                    "name": "A#1",
                    "midi": 34,
                    "time": 686.0870479999838,
                    "velocity": 0.15748031496062992,
                    "duration": 0.6521739999999454
                },
                {
                    "name": "A#2",
                    "midi": 46,
                    "time": 686.0870479999838,
                    "velocity": 0.1889763779527559,
                    "duration": 0.6521739999999454
                },
                {
                    "name": "C#2",
                    "midi": 37,
                    "time": 686.7392219999838,
                    "velocity": 0.2047244094488189,
                    "duration": 0.6521739999999454
                },
                {
                    "name": "C#3",
                    "midi": 49,
                    "time": 686.7392219999838,
                    "velocity": 0.25196850393700787,
                    "duration": 0.6521739999999454
                },
                {
                    "name": "F#1",
                    "midi": 30,
                    "time": 687.3913959999837,
                    "velocity": 0.1732283464566929,
                    "duration": 0.6521739999999454
                },
                {
                    "name": "F#2",
                    "midi": 42,
                    "time": 687.3913959999837,
                    "velocity": 0.2047244094488189,
                    "duration": 0.6521739999999454
                },
                {
                    "name": "A#1",
                    "midi": 34,
                    "time": 688.0435699999837,
                    "velocity": 0.1732283464566929,
                    "duration": 0.6521739999999454
                },
                {
                    "name": "A#2",
                    "midi": 46,
                    "time": 688.0435699999837,
                    "velocity": 0.2125984251968504,
                    "duration": 0.6521739999999454
                },
                {
                    "name": "B1",
                    "midi": 35,
                    "time": 688.6957439999836,
                    "velocity": 0.23622047244094488,
                    "duration": 0.6521739999999454
                },
                {
                    "name": "B2",
                    "midi": 47,
                    "time": 688.6957439999836,
                    "velocity": 0.28346456692913385,
                    "duration": 0.6521739999999454
                },
                {
                    "name": "F#1",
                    "midi": 30,
                    "time": 689.3479179999836,
                    "velocity": 0.1889763779527559,
                    "duration": 0.6521739999999454
                },
                {
                    "name": "F#2",
                    "midi": 42,
                    "time": 689.3479179999836,
                    "velocity": 0.2283464566929134,
                    "duration": 0.6521739999999454
                },
                {
                    "name": "B1",
                    "midi": 35,
                    "time": 690.0000919999835,
                    "velocity": 0.1732283464566929,
                    "duration": 0.6521739999999454
                },
                {
                    "name": "B2",
                    "midi": 47,
                    "time": 690.0000919999835,
                    "velocity": 0.2125984251968504,
                    "duration": 0.6521739999999454
                },
                {
                    "name": "D2",
                    "midi": 38,
                    "time": 690.6522659999835,
                    "velocity": 0.2283464566929134,
                    "duration": 0.21739133333335303
                },
                {
                    "name": "D3",
                    "midi": 50,
                    "time": 690.6522659999835,
                    "velocity": 0.2755905511811024,
                    "duration": 0.21739133333335303
                },
                {
                    "name": "F#1",
                    "midi": 30,
                    "time": 690.8696573333168,
                    "velocity": 0.25984251968503935,
                    "duration": 0.21739133333335303
                },
                {
                    "name": "B1",
                    "midi": 35,
                    "time": 691.0870486666502,
                    "velocity": 0.2755905511811024,
                    "duration": 0.21739133333335303
                },
                {
                    "name": "D2",
                    "midi": 38,
                    "time": 691.3044399999835,
                    "velocity": 0.33070866141732286,
                    "duration": 0.21739133333335303
                },
                {
                    "name": "F#2",
                    "midi": 42,
                    "time": 691.5218313333169,
                    "velocity": 0.31496062992125984,
                    "duration": 0.21739133333335303
                },
                {
                    "name": "B2",
                    "midi": 47,
                    "time": 691.7392226666502,
                    "velocity": 0.2992125984251969,
                    "duration": 0.21739133333335303
                },
                {
                    "name": "D3",
                    "midi": 50,
                    "time": 691.9566139999836,
                    "velocity": 0.2755905511811024,
                    "duration": 0.21739133333335303
                },
                {
                    "name": "F#2",
                    "midi": 42,
                    "time": 692.1740053333169,
                    "velocity": 0.25984251968503935,
                    "duration": 0.21739133333335303
                },
                {
                    "name": "D3",
                    "midi": 50,
                    "time": 692.3913966666503,
                    "velocity": 0.2440944881889764,
                    "duration": 0.21739133333335303
                },
                {
                    "name": "F#2",
                    "midi": 42,
                    "time": 692.6087879999836,
                    "velocity": 0.2125984251968504,
                    "duration": 0.21739133333335303
                },
                {
                    "name": "C#3",
                    "midi": 49,
                    "time": 692.826179333317,
                    "velocity": 0.15748031496062992,
                    "duration": 0.21739133333335303
                },
                {
                    "name": "F#2",
                    "midi": 42,
                    "time": 693.0435706666503,
                    "velocity": 0.15748031496062992,
                    "duration": 0.21739133333335303
                },
                {
                    "name": "F#3",
                    "midi": 54,
                    "time": 693.2609619999837,
                    "velocity": 0.2125984251968504,
                    "duration": 0.21739133333335303
                },
                {
                    "name": "C#3",
                    "midi": 49,
                    "time": 693.478353333317,
                    "velocity": 0.1732283464566929,
                    "duration": 0.21739133333335303
                },
                {
                    "name": "F#3",
                    "midi": 54,
                    "time": 693.6957446666504,
                    "velocity": 0.1732283464566929,
                    "duration": 0.21739133333335303
                },
                {
                    "name": "F#2",
                    "midi": 42,
                    "time": 693.9131359999838,
                    "velocity": 0.2125984251968504,
                    "duration": 0.21739133333335303
                },
                {
                    "name": "C#3",
                    "midi": 49,
                    "time": 694.1305273333171,
                    "velocity": 0.18110236220472442,
                    "duration": 0.21739133333335303
                },
                {
                    "name": "F#2",
                    "midi": 42,
                    "time": 694.3479186666505,
                    "velocity": 0.18110236220472442,
                    "duration": 0.21739133333335303
                },
                {
                    "name": "F#3",
                    "midi": 54,
                    "time": 694.5653099999838,
                    "velocity": 0.2125984251968504,
                    "duration": 0.21739133333335303
                },
                {
                    "name": "C#3",
                    "midi": 49,
                    "time": 694.7827013333172,
                    "velocity": 0.18110236220472442,
                    "duration": 0.21739133333335303
                },
                {
                    "name": "F#3",
                    "midi": 54,
                    "time": 695.0000926666505,
                    "velocity": 0.18110236220472442,
                    "duration": 0.21739133333335303
                },
                {
                    "name": "C#3",
                    "midi": 49,
                    "time": 695.2174839999839,
                    "velocity": 0.2125984251968504,
                    "duration": 0.21739133333335303
                },
                {
                    "name": "F#2",
                    "midi": 42,
                    "time": 695.4348753333172,
                    "velocity": 0.16535433070866143,
                    "duration": 0.21739133333335303
                },
                {
                    "name": "C#3",
                    "midi": 49,
                    "time": 695.6522666666506,
                    "velocity": 0.16535433070866143,
                    "duration": 0.21739133333335303
                },
                {
                    "name": "F#3",
                    "midi": 54,
                    "time": 695.8696579999839,
                    "velocity": 0.2125984251968504,
                    "duration": 0.21739133333335303
                },
                {
                    "name": "C#3",
                    "midi": 49,
                    "time": 696.0870493333173,
                    "velocity": 0.1732283464566929,
                    "duration": 0.21739133333335303
                },
                {
                    "name": "F#3",
                    "midi": 54,
                    "time": 696.3044406666506,
                    "velocity": 0.1732283464566929,
                    "duration": 0.21739133333335303
                },
                {
                    "name": "C#2",
                    "midi": 37,
                    "time": 696.521831999984,
                    "velocity": 0.2125984251968504,
                    "duration": 0.21739133333335303
                },
                {
                    "name": "F#2",
                    "midi": 42,
                    "time": 696.7392233333173,
                    "velocity": 0.18110236220472442,
                    "duration": 0.21739133333335303
                },
                {
                    "name": "C#2",
                    "midi": 37,
                    "time": 696.9566146666507,
                    "velocity": 0.18110236220472442,
                    "duration": 0.21739133333335303
                },
                {
                    "name": "C#3",
                    "midi": 49,
                    "time": 697.174005999984,
                    "velocity": 0.2125984251968504,
                    "duration": 0.21739133333335303
                },
                {
                    "name": "F#2",
                    "midi": 42,
                    "time": 697.3913973333174,
                    "velocity": 0.18110236220472442,
                    "duration": 0.21739133333335303
                },
                {
                    "name": "C#3",
                    "midi": 49,
                    "time": 697.6087886666508,
                    "velocity": 0.18110236220472442,
                    "duration": 0.21739133333335303
                },
                {
                    "name": "C#2",
                    "midi": 37,
                    "time": 697.8261799999841,
                    "velocity": 0.2047244094488189,
                    "duration": 0.21739133333335303
                },
                {
                    "name": "F#2",
                    "midi": 42,
                    "time": 698.0435713333175,
                    "velocity": 0.1732283464566929,
                    "duration": 0.21739133333335303
                },
                {
                    "name": "C#2",
                    "midi": 37,
                    "time": 698.2609626666508,
                    "velocity": 0.1732283464566929,
                    "duration": 0.21739133333335303
                },
                {
                    "name": "C#3",
                    "midi": 49,
                    "time": 698.4783539999842,
                    "velocity": 0.2125984251968504,
                    "duration": 0.21739133333335303
                },
                {
                    "name": "F#2",
                    "midi": 42,
                    "time": 698.6957453333175,
                    "velocity": 0.18110236220472442,
                    "duration": 0.21739133333335303
                },
                {
                    "name": "C#3",
                    "midi": 49,
                    "time": 698.9131366666509,
                    "velocity": 0.18110236220472442,
                    "duration": 0.21739133333335303
                },
                {
                    "name": "C#2",
                    "midi": 37,
                    "time": 699.1305279999842,
                    "velocity": 0.2125984251968504,
                    "duration": 0.21739133333335303
                },
                {
                    "name": "F#2",
                    "midi": 42,
                    "time": 699.3479193333176,
                    "velocity": 0.18110236220472442,
                    "duration": 0.21739133333335303
                },
                {
                    "name": "C#2",
                    "midi": 37,
                    "time": 699.5653106666509,
                    "velocity": 0.18110236220472442,
                    "duration": 0.21739133333335303
                },
                {
                    "name": "C#3",
                    "midi": 49,
                    "time": 699.7827019999843,
                    "velocity": 0.2125984251968504,
                    "duration": 0.21739133333335303
                },
                {
                    "name": "F#2",
                    "midi": 42,
                    "time": 700.0000933333176,
                    "velocity": 0.1889763779527559,
                    "duration": 0.21739133333335303
                },
                {
                    "name": "C#3",
                    "midi": 49,
                    "time": 700.217484666651,
                    "velocity": 0.1889763779527559,
                    "duration": 0.21739133333335303
                },
                {
                    "name": "F#2",
                    "midi": 42,
                    "time": 700.4348759999843,
                    "velocity": 0.2125984251968504,
                    "duration": 0.21739133333335303
                },
                {
                    "name": "C#2",
                    "midi": 37,
                    "time": 700.6522673333177,
                    "velocity": 0.18110236220472442,
                    "duration": 0.21739133333335303
                },
                {
                    "name": "F#2",
                    "midi": 42,
                    "time": 700.869658666651,
                    "velocity": 0.18110236220472442,
                    "duration": 0.21739133333335303
                },
                {
                    "name": "F#1",
                    "midi": 30,
                    "time": 701.0870499999844,
                    "velocity": 0.2125984251968504,
                    "duration": 0.21739133333335303
                },
                {
                    "name": "C#2",
                    "midi": 37,
                    "time": 701.3044413333178,
                    "velocity": 0.18110236220472442,
                    "duration": 0.21739133333335303
                },
                {
                    "name": "F#1",
                    "midi": 30,
                    "time": 701.5218326666511,
                    "velocity": 0.18110236220472442,
                    "duration": 0.21739133333335303
                },
                {
                    "name": "F#2",
                    "midi": 42,
                    "time": 701.7392239999845,
                    "velocity": 0.2125984251968504,
                    "duration": 0.21739133333335303
                },
                {
                    "name": "C#2",
                    "midi": 37,
                    "time": 701.9566153333178,
                    "velocity": 0.1889763779527559,
                    "duration": 0.21739133333335303
                },
                {
                    "name": "F#2",
                    "midi": 42,
                    "time": 702.1740066666512,
                    "velocity": 0.1889763779527559,
                    "duration": 0.21739133333335303
                },
                {
                    "name": "F#1",
                    "midi": 30,
                    "time": 702.3913979999845,
                    "velocity": 0.2125984251968504,
                    "duration": 0.21739133333335303
                },
                {
                    "name": "C#2",
                    "midi": 37,
                    "time": 702.6087893333179,
                    "velocity": 0.1889763779527559,
                    "duration": 0.21739133333335303
                },
                {
                    "name": "F#1",
                    "midi": 30,
                    "time": 702.8261806666512,
                    "velocity": 0.1889763779527559,
                    "duration": 0.21739133333335303
                },
                {
                    "name": "F#2",
                    "midi": 42,
                    "time": 703.0435719999846,
                    "velocity": 0.2125984251968504,
                    "duration": 0.21739133333335303
                },
                {
                    "name": "C#2",
                    "midi": 37,
                    "time": 703.2609633333179,
                    "velocity": 0.18110236220472442,
                    "duration": 0.21739133333335303
                },
                {
                    "name": "F#2",
                    "midi": 42,
                    "time": 703.4783546666513,
                    "velocity": 0.18110236220472442,
                    "duration": 0.21739133333335303
                },
                {
                    "name": "C#2",
                    "midi": 37,
                    "time": 703.6957459999846,
                    "velocity": 0.2125984251968504,
                    "duration": 0.21739133333335303
                },
                {
                    "name": "F#2",
                    "midi": 42,
                    "time": 703.913137333318,
                    "velocity": 0.1889763779527559,
                    "duration": 0.21739133333335303
                },
                {
                    "name": "C#2",
                    "midi": 37,
                    "time": 704.1305286666513,
                    "velocity": 0.1889763779527559,
                    "duration": 0.21739133333335303
                },
                {
                    "name": "C#3",
                    "midi": 49,
                    "time": 704.3479199999847,
                    "velocity": 0.23622047244094488,
                    "duration": 0.6521739999999454
                },
                {
                    "name": "C#4",
                    "midi": 61,
                    "time": 705.0000939999846,
                    "velocity": 0.2047244094488189,
                    "duration": 0.6521739999999454
                },
                {
                    "name": "A3",
                    "midi": 57,
                    "time": 705.6522679999846,
                    "velocity": 0.2047244094488189,
                    "duration": 0.6467392166666741
                },
                {
                    "name": "A3",
                    "midi": 57,
                    "time": 706.3044419999846,
                    "velocity": 0.2204724409448819,
                    "duration": 0.6521739999999454
                },
                {
                    "name": "F#3",
                    "midi": 54,
                    "time": 706.9566159999846,
                    "velocity": 0.1889763779527559,
                    "duration": 0.6521739999999454
                },
                {
                    "name": "F3",
                    "midi": 53,
                    "time": 707.6087899999845,
                    "velocity": 0.15748031496062992,
                    "duration": 0.6521739999999454
                },
                {
                    "name": "C#3",
                    "midi": 49,
                    "time": 707.6087899999845,
                    "velocity": 0.15748031496062992,
                    "duration": 0.6521739999999454
                },
                {
                    "name": "G#3",
                    "midi": 56,
                    "time": 707.6087899999845,
                    "velocity": 0.1889763779527559,
                    "duration": 0.6521739999999454
                },
                {
                    "name": "A3",
                    "midi": 57,
                    "time": 708.2609639999845,
                    "velocity": 0.25984251968503935,
                    "duration": 0.6521739999999454
                },
                {
                    "name": "F#3",
                    "midi": 54,
                    "time": 708.2609639999845,
                    "velocity": 0.2125984251968504,
                    "duration": 0.6521739999999454
                },
                {
                    "name": "F#2",
                    "midi": 42,
                    "time": 708.9131379999844,
                    "velocity": 0.2204724409448819,
                    "duration": 1.95652199999995
                },
                {
                    "name": "F#3",
                    "midi": 54,
                    "time": 708.9131379999844,
                    "velocity": 0.25196850393700787,
                    "duration": 1.95652199999995
                },
                {
                    "name": "B1",
                    "midi": 35,
                    "time": 710.8696599999844,
                    "velocity": 0.2204724409448819,
                    "duration": 0.6521739999999454
                },
                {
                    "name": "B2",
                    "midi": 47,
                    "time": 710.8696599999844,
                    "velocity": 0.2677165354330709,
                    "duration": 0.6521739999999454
                },
                {
                    "name": "F#1",
                    "midi": 30,
                    "time": 711.5218339999843,
                    "velocity": 0.25196850393700787,
                    "duration": 0.6521739999999454
                },
                {
                    "name": "F#2",
                    "midi": 42,
                    "time": 711.5218339999843,
                    "velocity": 0.30708661417322836,
                    "duration": 0.6521739999999454
                },
                {
                    "name": "B1",
                    "midi": 35,
                    "time": 712.1740079999843,
                    "velocity": 0.33070866141732286,
                    "duration": 0.6521739999999454
                },
                {
                    "name": "F1",
                    "midi": 29,
                    "time": 712.8261819999842,
                    "velocity": 0.2204724409448819,
                    "duration": 1.2907610416666557
                },
                {
                    "name": "F2",
                    "midi": 41,
                    "time": 712.8261819999842,
                    "velocity": 0.2677165354330709,
                    "duration": 1.2907610416666557
                },
                {
                    "name": "F1",
                    "midi": 29,
                    "time": 714.1305299999842,
                    "velocity": 0.2204724409448819,
                    "duration": 1.2907610416666557
                },
                {
                    "name": "F2",
                    "midi": 41,
                    "time": 714.1305299999842,
                    "velocity": 0.2677165354330709,
                    "duration": 1.2907610416666557
                },
                {
                    "name": "F2",
                    "midi": 41,
                    "time": 715.4348779999842,
                    "velocity": 0.23622047244094488,
                    "duration": 0.32608700000002955
                },
                {
                    "name": "F1",
                    "midi": 29,
                    "time": 715.4348779999842,
                    "velocity": 0.1968503937007874,
                    "duration": 0.32608700000002955
                },
                {
                    "name": "F#1",
                    "midi": 30,
                    "time": 715.7609649999843,
                    "velocity": 0.2047244094488189,
                    "duration": 0.31793482499995207
                },
                {
                    "name": "F#2",
                    "midi": 42,
                    "time": 715.7609649999843,
                    "velocity": 0.2440944881889764,
                    "duration": 0.31793482499995207
                },
                {
                    "name": "F#1",
                    "midi": 30,
                    "time": 716.0870519999842,
                    "velocity": 0.2204724409448819,
                    "duration": 1.95652199999995
                },
                {
                    "name": "F#2",
                    "midi": 42,
                    "time": 716.0870519999842,
                    "velocity": 0.2677165354330709,
                    "duration": 1.95652199999995
                },
                {
                    "name": "F#2",
                    "midi": 42,
                    "time": 718.0435739999841,
                    "velocity": 0.1889763779527559,
                    "duration": 3.9130440000000135
                },
                {
                    "name": "C#3",
                    "midi": 49,
                    "time": 718.0435739999841,
                    "velocity": 0.1889763779527559,
                    "duration": 3.9130440000000135
                },
                {
                    "name": "A#3",
                    "midi": 58,
                    "time": 718.0435739999841,
                    "velocity": 0.2283464566929134,
                    "duration": 3.9130440000000135
                },
                {
                    "name": "F#1",
                    "midi": 30,
                    "time": 721.9566179999841,
                    "velocity": 0.14960629921259844,
                    "duration": 3.9130440000000135
                },
                {
                    "name": "C#2",
                    "midi": 37,
                    "time": 721.9566179999841,
                    "velocity": 0.14960629921259844,
                    "duration": 3.9130440000000135
                },
                {
                    "name": "A#2",
                    "midi": 46,
                    "time": 721.9566179999841,
                    "velocity": 0.18110236220472442,
                    "duration": 3.9130440000000135
                },
                {
                    "name": "F#1",
                    "midi": 30,
                    "time": 725.8696619999841,
                    "velocity": 0.14960629921259844,
                    "duration": 1.95652199999995
                },
                {
                    "name": "C#2",
                    "midi": 37,
                    "time": 725.8696619999841,
                    "velocity": 0.14960629921259844,
                    "duration": 1.95652199999995
                },
                {
                    "name": "A#2",
                    "midi": 46,
                    "time": 725.8696619999841,
                    "velocity": 0.18110236220472442,
                    "duration": 1.95652199999995
                },
                {
                    "name": "F#1",
                    "midi": 30,
                    "time": 727.8261839999841,
                    "velocity": 0.12598425196850394,
                    "duration": 1.3043479999998908
                },
                {
                    "name": "C#2",
                    "midi": 37,
                    "time": 727.989227499984,
                    "velocity": 0.14173228346456693,
                    "duration": 1.1413044999999329
                },
                {
                    "name": "A#2",
                    "midi": 46,
                    "time": 728.152270999984,
                    "velocity": 0.15748031496062992,
                    "duration": 0.978260999999975
                }
            ],
            "controlChanges": {},
            "id": 2,
            "name": "Piano left",
            "instrumentNumber": 0,
            "instrument": "acoustic grand piano",
            "instrumentFamily": "piano",
            "channelNumber": 0,
            "isPercussion": false
        },
        {
            "startTime": 0,
            "duration": 0,
            "length": 0,
            "notes": [],
            "controlChanges": {
                "64": [
                    {
                        "number": 64,
                        "time": 0,
                        "value": 1
                    },
                    {
                        "number": 64,
                        "time": 1.9918480916666665,
                        "value": 0
                    },
                    {
                        "number": 64,
                        "time": 2.247282908333333,
                        "value": 1
                    },
                    {
                        "number": 64,
                        "time": 3.9130439999999997,
                        "value": 0
                    },
                    {
                        "number": 64,
                        "time": 4.2065223,
                        "value": 1
                    },
                    {
                        "number": 64,
                        "time": 5.711957283333333,
                        "value": 0
                    },
                    {
                        "number": 64,
                        "time": 5.959239924999999,
                        "value": 1
                    },
                    {
                        "number": 64,
                        "time": 7.0407618083333325,
                        "value": 0
                    },
                    {
                        "number": 64,
                        "time": 7.331522716666666,
                        "value": 1
                    },
                    {
                        "number": 64,
                        "time": 7.842392349999999,
                        "value": 0
                    },
                    {
                        "number": 64,
                        "time": 8.334240241666665,
                        "value": 1
                    },
                    {
                        "number": 64,
                        "time": 9.815218699999997,
                        "value": 0
                    },
                    {
                        "number": 64,
                        "time": 10.326088333333331,
                        "value": 1
                    },
                    {
                        "number": 64,
                        "time": 11.739131999999998,
                        "value": 0
                    },
                    {
                        "number": 64,
                        "time": 12.100545091666664,
                        "value": 1
                    },
                    {
                        "number": 64,
                        "time": 13.076088699999998,
                        "value": 0
                    },
                    {
                        "number": 64,
                        "time": 13.315219166666665,
                        "value": 1
                    },
                    {
                        "number": 64,
                        "time": 13.733697483333332,
                        "value": 0
                    },
                    {
                        "number": 64,
                        "time": 13.967393166666666,
                        "value": 1
                    },
                    {
                        "number": 64,
                        "time": 14.380436699999999,
                        "value": 0
                    },
                    {
                        "number": 64,
                        "time": 14.595110641666665,
                        "value": 1
                    },
                    {
                        "number": 64,
                        "time": 15.032610699999998,
                        "value": 0
                    },
                    {
                        "number": 64,
                        "time": 15.203806374999997,
                        "value": 1
                    },
                    {
                        "number": 64,
                        "time": 15.652175999999997,
                        "value": 0
                    },
                    {
                        "number": 64,
                        "time": 15.978262999999997,
                        "value": 1
                    },
                    {
                        "number": 64,
                        "time": 17.635871916666662,
                        "value": 0
                    },
                    {
                        "number": 64,
                        "time": 18.11685024166666,
                        "value": 1
                    },
                    {
                        "number": 64,
                        "time": 21.543481133333326,
                        "value": 0
                    },
                    {
                        "number": 64,
                        "time": 21.85869856666666,
                        "value": 1
                    },
                    {
                        "number": 64,
                        "time": 22.847829133333327,
                        "value": 0
                    },
                    {
                        "number": 64,
                        "time": 23.029894374999994,
                        "value": 1
                    },
                    {
                        "number": 64,
                        "time": 23.48913356666666,
                        "value": 0
                    },
                    {
                        "number": 64,
                        "time": 23.891307533333325,
                        "value": 1
                    },
                    {
                        "number": 64,
                        "time": 25.467394699999993,
                        "value": 0
                    },
                    {
                        "number": 64,
                        "time": 25.81250344166666,
                        "value": 1
                    },
                    {
                        "number": 64,
                        "time": 26.119568699999995,
                        "value": 0
                    },
                    {
                        "number": 64,
                        "time": 26.43206874166666,
                        "value": 1
                    },
                    {
                        "number": 64,
                        "time": 26.76902530833333,
                        "value": 0
                    },
                    {
                        "number": 64,
                        "time": 27.048916649999995,
                        "value": 1
                    },
                    {
                        "number": 64,
                        "time": 27.39674278333333,
                        "value": 0
                    },
                    {
                        "number": 64,
                        "time": 27.769025441666663,
                        "value": 1
                    },
                    {
                        "number": 64,
                        "time": 30.027177916666663,
                        "value": 0
                    },
                    {
                        "number": 64,
                        "time": 30.34511274166666,
                        "value": 1
                    },
                    {
                        "number": 64,
                        "time": 30.684786699999993,
                        "value": 0
                    },
                    {
                        "number": 64,
                        "time": 30.926634558333326,
                        "value": 1
                    },
                    {
                        "number": 64,
                        "time": 31.304351999999994,
                        "value": 0
                    },
                    {
                        "number": 64,
                        "time": 31.646743349999994,
                        "value": 1
                    },
                    {
                        "number": 64,
                        "time": 33.28261313333333,
                        "value": 0
                    },
                    {
                        "number": 64,
                        "time": 33.72826536666666,
                        "value": 1
                    },
                    {
                        "number": 64,
                        "time": 35.217395999999994,
                        "value": 0
                    },
                    {
                        "number": 64,
                        "time": 35.46739603333333,
                        "value": 1
                    },
                    {
                        "number": 64,
                        "time": 36.55163530833333,
                        "value": 0
                    },
                    {
                        "number": 64,
                        "time": 36.73913533333333,
                        "value": 1
                    },
                    {
                        "number": 64,
                        "time": 37.2065267,
                        "value": 0
                    },
                    {
                        "number": 64,
                        "time": 37.361418025,
                        "value": 1
                    },
                    {
                        "number": 64,
                        "time": 37.853265916666665,
                        "value": 0
                    },
                    {
                        "number": 64,
                        "time": 38.029896375,
                        "value": 1
                    },
                    {
                        "number": 64,
                        "time": 38.49457035,
                        "value": 0
                    },
                    {
                        "number": 64,
                        "time": 38.633157325,
                        "value": 1
                    },
                    {
                        "number": 64,
                        "time": 39.13044,
                        "value": 0
                    },
                    {
                        "number": 64,
                        "time": 39.34239655,
                        "value": 1
                    },
                    {
                        "number": 64,
                        "time": 40.451092349999996,
                        "value": 0
                    },
                    {
                        "number": 64,
                        "time": 40.74185325833333,
                        "value": 1
                    },
                    {
                        "number": 64,
                        "time": 41.1195707,
                        "value": 0
                    },
                    {
                        "number": 64,
                        "time": 41.37500551666666,
                        "value": 1
                    },
                    {
                        "number": 64,
                        "time": 42.41304913333333,
                        "value": 0
                    },
                    {
                        "number": 64,
                        "time": 42.60326655,
                        "value": 1
                    },
                    {
                        "number": 64,
                        "time": 43.043484,
                        "value": 0
                    },
                    {
                        "number": 64,
                        "time": 43.255440549999996,
                        "value": 1
                    },
                    {
                        "number": 64,
                        "time": 44.38587548333333,
                        "value": 0
                    },
                    {
                        "number": 64,
                        "time": 44.57881029166666,
                        "value": 1
                    },
                    {
                        "number": 64,
                        "time": 45.69022348333333,
                        "value": 0
                    },
                    {
                        "number": 64,
                        "time": 45.90218003333332,
                        "value": 1
                    },
                    {
                        "number": 64,
                        "time": 46.33968009166666,
                        "value": 0
                    },
                    {
                        "number": 64,
                        "time": 46.51631054999999,
                        "value": 1
                    },
                    {
                        "number": 64,
                        "time": 46.95652799999999,
                        "value": 0
                    },
                    {
                        "number": 64,
                        "time": 47.391310666666655,
                        "value": 1
                    },
                    {
                        "number": 64,
                        "time": 48.293484699999986,
                        "value": 0
                    },
                    {
                        "number": 64,
                        "time": 48.60326734999999,
                        "value": 1
                    },
                    {
                        "number": 64,
                        "time": 50.23641974166666,
                        "value": 0
                    },
                    {
                        "number": 64,
                        "time": 50.49728934166666,
                        "value": 1
                    },
                    {
                        "number": 64,
                        "time": 50.73641980833332,
                        "value": 0
                    },
                    {
                        "number": 64,
                        "time": 50.81522416666666,
                        "value": 1
                    },
                    {
                        "number": 64,
                        "time": 52.858702699999995,
                        "value": 0
                    },
                    {
                        "number": 64,
                        "time": 53.298920149999994,
                        "value": 1
                    },
                    {
                        "number": 64,
                        "time": 54.788050783333325,
                        "value": 0
                    },
                    {
                        "number": 64,
                        "time": 55.27174649999999,
                        "value": 1
                    },
                    {
                        "number": 64,
                        "time": 56.771746699999994,
                        "value": 0
                    },
                    {
                        "number": 64,
                        "time": 57.21196414999999,
                        "value": 1
                    },
                    {
                        "number": 64,
                        "time": 58.07609469999999,
                        "value": 0
                    },
                    {
                        "number": 64,
                        "time": 58.40761648333333,
                        "value": 1
                    },
                    {
                        "number": 64,
                        "time": 58.728268699999994,
                        "value": 0
                    },
                    {
                        "number": 64,
                        "time": 59.07337744166666,
                        "value": 1
                    },
                    {
                        "number": 64,
                        "time": 59.38044269999999,
                        "value": 0
                    },
                    {
                        "number": 64,
                        "time": 59.692942741666656,
                        "value": 1
                    },
                    {
                        "number": 64,
                        "time": 60.657616783333324,
                        "value": 0
                    },
                    {
                        "number": 64,
                        "time": 61.02989944166666,
                        "value": 1
                    },
                    {
                        "number": 64,
                        "time": 63.92392156666666,
                        "value": 0
                    },
                    {
                        "number": 64,
                        "time": 64.20109551666665,
                        "value": 1
                    },
                    {
                        "number": 64,
                        "time": 65.88316095833332,
                        "value": 0
                    },
                    {
                        "number": 64,
                        "time": 70.43479199999999,
                        "value": 0
                    },
                    {
                        "number": 64,
                        "time": 70.64674854999998,
                        "value": 1
                    },
                    {
                        "number": 64,
                        "time": 71.11685730833332,
                        "value": 0
                    },
                    {
                        "number": 64,
                        "time": 71.32066168333333,
                        "value": 1
                    },
                    {
                        "number": 64,
                        "time": 71.77174869999999,
                        "value": 0
                    },
                    {
                        "number": 64,
                        "time": 71.97283568333333,
                        "value": 1
                    },
                    {
                        "number": 64,
                        "time": 74.347836,
                        "value": 0
                    },
                    {
                        "number": 64,
                        "time": 74.55979255,
                        "value": 1
                    },
                    {
                        "number": 64,
                        "time": 75.69022748333333,
                        "value": 0
                    },
                    {
                        "number": 64,
                        "time": 75.88316229166666,
                        "value": 1
                    },
                    {
                        "number": 64,
                        "time": 76.33424930833333,
                        "value": 0
                    },
                    {
                        "number": 64,
                        "time": 76.630445,
                        "value": 1
                    },
                    {
                        "number": 64,
                        "time": 77.64403209166666,
                        "value": 0
                    },
                    {
                        "number": 64,
                        "time": 77.82066255,
                        "value": 1
                    },
                    {
                        "number": 64,
                        "time": 78.26088,
                        "value": 0
                    },
                    {
                        "number": 64,
                        "time": 78.69566266666666,
                        "value": 1
                    },
                    {
                        "number": 64,
                        "time": 79.5978367,
                        "value": 0
                    },
                    {
                        "number": 64,
                        "time": 79.78533672500001,
                        "value": 1
                    },
                    {
                        "number": 64,
                        "time": 80.88859774166667,
                        "value": 0
                    },
                    {
                        "number": 64,
                        "time": 81.1304456,
                        "value": 1
                    },
                    {
                        "number": 64,
                        "time": 81.5543587,
                        "value": 0
                    },
                    {
                        "number": 64,
                        "time": 81.67664132499999,
                        "value": 1
                    },
                    {
                        "number": 64,
                        "time": 84.16305469999999,
                        "value": 0
                    },
                    {
                        "number": 64,
                        "time": 84.60327215,
                        "value": 1
                    },
                    {
                        "number": 64,
                        "time": 86.09240278333333,
                        "value": 0
                    },
                    {
                        "number": 64,
                        "time": 86.5760985,
                        "value": 1
                    },
                    {
                        "number": 64,
                        "time": 88.0760987,
                        "value": 0
                    },
                    {
                        "number": 64,
                        "time": 88.90762055,
                        "value": 1
                    },
                    {
                        "number": 64,
                        "time": 90.03262070000001,
                        "value": 0
                    },
                    {
                        "number": 64,
                        "time": 90.37772944166667,
                        "value": 1
                    },
                    {
                        "number": 64,
                        "time": 90.68479470000001,
                        "value": 0
                    },
                    {
                        "number": 64,
                        "time": 90.99729474166668,
                        "value": 1
                    },
                    {
                        "number": 64,
                        "time": 91.96196878333335,
                        "value": 0
                    },
                    {
                        "number": 64,
                        "time": 92.33425144166668,
                        "value": 1
                    },
                    {
                        "number": 64,
                        "time": 93.26631678333335,
                        "value": 0
                    },
                    {
                        "number": 64,
                        "time": 93.94566470000002,
                        "value": 0
                    },
                    {
                        "number": 64,
                        "time": 94.29077344166669,
                        "value": 1
                    },
                    {
                        "number": 64,
                        "time": 94.59783870000003,
                        "value": 0
                    },
                    {
                        "number": 64,
                        "time": 94.91033874166669,
                        "value": 1
                    },
                    {
                        "number": 64,
                        "time": 95.90218670000003,
                        "value": 0
                    },
                    {
                        "number": 64,
                        "time": 96.2472954416667,
                        "value": 1
                    },
                    {
                        "number": 64,
                        "time": 96.55436070000003,
                        "value": 0
                    },
                    {
                        "number": 64,
                        "time": 96.8668607416667,
                        "value": 1
                    },
                    {
                        "number": 64,
                        "time": 97.85870870000004,
                        "value": 0
                    },
                    {
                        "number": 64,
                        "time": 98.2038174416667,
                        "value": 1
                    },
                    {
                        "number": 64,
                        "time": 98.51088270000004,
                        "value": 0
                    },
                    {
                        "number": 64,
                        "time": 98.8233827416667,
                        "value": 1
                    },
                    {
                        "number": 64,
                        "time": 99.81523070000004,
                        "value": 0
                    },
                    {
                        "number": 64,
                        "time": 100.16033944166671,
                        "value": 1
                    },
                    {
                        "number": 64,
                        "time": 100.46740470000005,
                        "value": 0
                    },
                    {
                        "number": 64,
                        "time": 100.77990474166671,
                        "value": 1
                    },
                    {
                        "number": 64,
                        "time": 101.73914400000004,
                        "value": 0
                    },
                    {
                        "number": 64,
                        "time": 102.48914410000003,
                        "value": 1
                    },
                    {
                        "number": 64,
                        "time": 105.65218800000004,
                        "value": 0
                    },
                    {
                        "number": 64,
                        "time": 105.86414455000003,
                        "value": 1
                    },
                    {
                        "number": 64,
                        "time": 109.56523200000004,
                        "value": 0
                    },
                    {
                        "number": 64,
                        "time": 109.82338420833337,
                        "value": 1
                    },
                    {
                        "number": 64,
                        "time": 110.90218870000004,
                        "value": 0
                    },
                    {
                        "number": 64,
                        "time": 110.98371045000003,
                        "value": 1
                    },
                    {
                        "number": 64,
                        "time": 111.54349313333337,
                        "value": 0
                    },
                    {
                        "number": 64,
                        "time": 111.69023228333337,
                        "value": 1
                    },
                    {
                        "number": 64,
                        "time": 113.47827600000004,
                        "value": 0
                    },
                    {
                        "number": 64,
                        "time": 113.72827603333337,
                        "value": 1
                    },
                    {
                        "number": 64,
                        "time": 115.46740670000004,
                        "value": 0
                    },
                    {
                        "number": 64,
                        "time": 115.65218933333337,
                        "value": 1
                    },
                    {
                        "number": 64,
                        "time": 116.77175470000003,
                        "value": 0
                    },
                    {
                        "number": 64,
                        "time": 116.92664602500003,
                        "value": 1
                    },
                    {
                        "number": 64,
                        "time": 117.39132000000002,
                        "value": 0
                    },
                    {
                        "number": 64,
                        "time": 117.57338524166668,
                        "value": 1
                    },
                    {
                        "number": 64,
                        "time": 119.36142895833335,
                        "value": 0
                    },
                    {
                        "number": 64,
                        "time": 119.47284201666668,
                        "value": 1
                    },
                    {
                        "number": 64,
                        "time": 121.304364,
                        "value": 0
                    },
                    {
                        "number": 64,
                        "time": 121.41305966666667,
                        "value": 1
                    },
                    {
                        "number": 64,
                        "time": 122.62229895833333,
                        "value": 0
                    },
                    {
                        "number": 64,
                        "time": 122.73371201666666,
                        "value": 1
                    },
                    {
                        "number": 64,
                        "time": 123.33153818333332,
                        "value": 0
                    },
                    {
                        "number": 64,
                        "time": 123.45653819999998,
                        "value": 1
                    },
                    {
                        "number": 64,
                        "time": 123.94566869999998,
                        "value": 0
                    },
                    {
                        "number": 64,
                        "time": 124.02175566666665,
                        "value": 1
                    },
                    {
                        "number": 64,
                        "time": 124.59784269999999,
                        "value": 0
                    },
                    {
                        "number": 64,
                        "time": 124.68208184166666,
                        "value": 1
                    },
                    {
                        "number": 64,
                        "time": 125.21740799999999,
                        "value": 0
                    },
                    {
                        "number": 64,
                        "time": 125.35871236666665,
                        "value": 1
                    },
                    {
                        "number": 64,
                        "time": 126.54077774166664,
                        "value": 0
                    },
                    {
                        "number": 64,
                        "time": 126.65490819166665,
                        "value": 1
                    },
                    {
                        "number": 64,
                        "time": 127.16577782499998,
                        "value": 0
                    },
                    {
                        "number": 64,
                        "time": 127.28262566666665,
                        "value": 1
                    },
                    {
                        "number": 64,
                        "time": 127.84512574166665,
                        "value": 0
                    },
                    {
                        "number": 64,
                        "time": 127.95110401666665,
                        "value": 1
                    },
                    {
                        "number": 64,
                        "time": 129.130452,
                        "value": 0
                    },
                    {
                        "number": 64,
                        "time": 129.334256375,
                        "value": 1
                    },
                    {
                        "number": 64,
                        "time": 131.11686530833333,
                        "value": 0
                    },
                    {
                        "number": 64,
                        "time": 131.36686534166665,
                        "value": 1
                    },
                    {
                        "number": 64,
                        "time": 132.42664809166666,
                        "value": 0
                    },
                    {
                        "number": 64,
                        "time": 132.595126375,
                        "value": 1
                    },
                    {
                        "number": 64,
                        "time": 133.043496,
                        "value": 0
                    },
                    {
                        "number": 64,
                        "time": 133.2065395,
                        "value": 1
                    },
                    {
                        "number": 64,
                        "time": 134.991865825,
                        "value": 0
                    },
                    {
                        "number": 64,
                        "time": 135.10871366666666,
                        "value": 1
                    },
                    {
                        "number": 64,
                        "time": 135.67936591666665,
                        "value": 0
                    },
                    {
                        "number": 64,
                        "time": 135.79349636666666,
                        "value": 1
                    },
                    {
                        "number": 64,
                        "time": 136.95654,
                        "value": 0
                    },
                    {
                        "number": 64,
                        "time": 137.19023568333333,
                        "value": 1
                    },
                    {
                        "number": 64,
                        "time": 138.27990974166667,
                        "value": 0
                    },
                    {
                        "number": 64,
                        "time": 138.57338804166668,
                        "value": 1
                    },
                    {
                        "number": 64,
                        "time": 140.24730130833333,
                        "value": 0
                    },
                    {
                        "number": 64,
                        "time": 140.48099699166667,
                        "value": 1
                    },
                    {
                        "number": 64,
                        "time": 142.2065407,
                        "value": 0
                    },
                    {
                        "number": 64,
                        "time": 142.377736375,
                        "value": 1
                    },
                    {
                        "number": 64,
                        "time": 144.171214875,
                        "value": 0
                    },
                    {
                        "number": 64,
                        "time": 144.41034534166667,
                        "value": 1
                    },
                    {
                        "number": 64,
                        "time": 144.78262800000002,
                        "value": 0
                    },
                    {
                        "number": 64,
                        "time": 144.970128025,
                        "value": 1
                    },
                    {
                        "number": 64,
                        "time": 145.45654113333333,
                        "value": 0
                    },
                    {
                        "number": 64,
                        "time": 145.58969332499998,
                        "value": 1
                    },
                    {
                        "number": 64,
                        "time": 146.12501948333332,
                        "value": 0
                    },
                    {
                        "number": 64,
                        "time": 146.25817167499997,
                        "value": 1
                    },
                    {
                        "number": 64,
                        "time": 146.77175869999996,
                        "value": 0
                    },
                    {
                        "number": 64,
                        "time": 146.9565413333333,
                        "value": 1
                    },
                    {
                        "number": 64,
                        "time": 147.42393269999997,
                        "value": 0
                    },
                    {
                        "number": 64,
                        "time": 147.57882402499996,
                        "value": 1
                    },
                    {
                        "number": 64,
                        "time": 148.05165017499996,
                        "value": 0
                    },
                    {
                        "number": 64,
                        "time": 148.21469367499995,
                        "value": 1
                    },
                    {
                        "number": 64,
                        "time": 148.70110678333327,
                        "value": 0
                    },
                    {
                        "number": 64,
                        "time": 148.92936768333328,
                        "value": 1
                    },
                    {
                        "number": 64,
                        "time": 149.38588948333327,
                        "value": 0
                    },
                    {
                        "number": 64,
                        "time": 149.53534602499994,
                        "value": 1
                    },
                    {
                        "number": 64,
                        "time": 150.03262869999995,
                        "value": 0
                    },
                    {
                        "number": 64,
                        "time": 150.18752002499994,
                        "value": 1
                    },
                    {
                        "number": 64,
                        "time": 150.6712157416666,
                        "value": 0
                    },
                    {
                        "number": 64,
                        "time": 150.86958533333328,
                        "value": 1
                    },
                    {
                        "number": 64,
                        "time": 151.33697669999995,
                        "value": 0
                    },
                    {
                        "number": 64,
                        "time": 151.52175933333328,
                        "value": 1
                    },
                    {
                        "number": 64,
                        "time": 151.98371591666663,
                        "value": 0
                    },
                    {
                        "number": 64,
                        "time": 152.16034637499996,
                        "value": 1
                    },
                    {
                        "number": 64,
                        "time": 152.6141507833333,
                        "value": 0
                    },
                    {
                        "number": 64,
                        "time": 152.8424116833333,
                        "value": 1
                    },
                    {
                        "number": 64,
                        "time": 153.2989334833333,
                        "value": 0
                    },
                    {
                        "number": 64,
                        "time": 153.44839002499995,
                        "value": 1
                    },
                    {
                        "number": 64,
                        "time": 153.94567269999996,
                        "value": 0
                    },
                    {
                        "number": 64,
                        "time": 154.10056402499995,
                        "value": 1
                    },
                    {
                        "number": 64,
                        "time": 154.5842597416666,
                        "value": 0
                    },
                    {
                        "number": 64,
                        "time": 154.7826293333333,
                        "value": 1
                    },
                    {
                        "number": 64,
                        "time": 155.25002069999996,
                        "value": 0
                    },
                    {
                        "number": 64,
                        "time": 155.4348033333333,
                        "value": 1
                    },
                    {
                        "number": 64,
                        "time": 155.89675991666664,
                        "value": 0
                    },
                    {
                        "number": 64,
                        "time": 156.07339037499997,
                        "value": 1
                    },
                    {
                        "number": 64,
                        "time": 156.52175999999997,
                        "value": 0
                    },
                    {
                        "number": 64,
                        "time": 156.72556437499998,
                        "value": 1
                    },
                    {
                        "number": 64,
                        "time": 157.20654269999997,
                        "value": 0
                    },
                    {
                        "number": 64,
                        "time": 157.37773837499998,
                        "value": 1
                    },
                    {
                        "number": 64,
                        "time": 157.83969495833333,
                        "value": 0
                    },
                    {
                        "number": 64,
                        "time": 157.96741236666665,
                        "value": 1
                    },
                    {
                        "number": 64,
                        "time": 158.48915156666666,
                        "value": 0
                    },
                    {
                        "number": 64,
                        "time": 158.74186899166665,
                        "value": 1
                    },
                    {
                        "number": 64,
                        "time": 159.16034730833331,
                        "value": 0
                    },
                    {
                        "number": 64,
                        "time": 159.31795602499997,
                        "value": 1
                    },
                    {
                        "number": 64,
                        "time": 159.81795609166664,
                        "value": 0
                    },
                    {
                        "number": 64,
                        "time": 160.0000213333333,
                        "value": 1
                    },
                    {
                        "number": 64,
                        "time": 160.43480399999999,
                        "value": 0
                    },
                    {
                        "number": 64,
                        "time": 160.6521953333333,
                        "value": 1
                    },
                    {
                        "number": 64,
                        "time": 161.11143452499996,
                        "value": 0
                    },
                    {
                        "number": 64,
                        "time": 161.29078237499996,
                        "value": 1
                    },
                    {
                        "number": 64,
                        "time": 161.7690433083333,
                        "value": 0
                    },
                    {
                        "number": 64,
                        "time": 161.91034767499997,
                        "value": 1
                    },
                    {
                        "number": 64,
                        "time": 162.4212173083333,
                        "value": 0
                    },
                    {
                        "number": 64,
                        "time": 162.6250216833333,
                        "value": 1
                    },
                    {
                        "number": 64,
                        "time": 163.07610869999996,
                        "value": 0
                    },
                    {
                        "number": 64,
                        "time": 163.32339134166662,
                        "value": 1
                    },
                    {
                        "number": 64,
                        "time": 163.72828269999997,
                        "value": 0
                    },
                    {
                        "number": 64,
                        "time": 163.88317402499996,
                        "value": 1
                    },
                    {
                        "number": 64,
                        "time": 164.3614349583333,
                        "value": 0
                    },
                    {
                        "number": 64,
                        "time": 164.53534802499996,
                        "value": 1
                    },
                    {
                        "number": 64,
                        "time": 165.01904374166662,
                        "value": 0
                    },
                    {
                        "number": 64,
                        "time": 165.18752202499996,
                        "value": 1
                    },
                    {
                        "number": 64,
                        "time": 165.66034817499997,
                        "value": 0
                    },
                    {
                        "number": 64,
                        "time": 165.8695873333333,
                        "value": 1
                    },
                    {
                        "number": 64,
                        "time": 166.30436999999998,
                        "value": 0
                    },
                    {
                        "number": 64,
                        "time": 166.5217613333333,
                        "value": 1
                    },
                    {
                        "number": 64,
                        "time": 166.9701309583333,
                        "value": 0
                    },
                    {
                        "number": 64,
                        "time": 167.1739353333333,
                        "value": 1
                    },
                    {
                        "number": 64,
                        "time": 167.6223049583333,
                        "value": 0
                    },
                    {
                        "number": 64,
                        "time": 167.79621802499997,
                        "value": 1
                    },
                    {
                        "number": 64,
                        "time": 168.92121817499998,
                        "value": 0
                    },
                    {
                        "number": 64,
                        "time": 169.10056602499998,
                        "value": 1
                    },
                    {
                        "number": 64,
                        "time": 169.59513130833332,
                        "value": 0
                    },
                    {
                        "number": 64,
                        "time": 169.8152400333333,
                        "value": 1
                    },
                    {
                        "number": 64,
                        "time": 170.2310009583333,
                        "value": 0
                    },
                    {
                        "number": 64,
                        "time": 170.37230532499999,
                        "value": 1
                    },
                    {
                        "number": 64,
                        "time": 170.88589234999998,
                        "value": 0
                    },
                    {
                        "number": 64,
                        "time": 171.01089236666664,
                        "value": 1
                    },
                    {
                        "number": 64,
                        "time": 171.53534895833332,
                        "value": 0
                    },
                    {
                        "number": 64,
                        "time": 171.709262025,
                        "value": 1
                    },
                    {
                        "number": 64,
                        "time": 172.173936,
                        "value": 0
                    },
                    {
                        "number": 64,
                        "time": 172.37502298333334,
                        "value": 1
                    },
                    {
                        "number": 64,
                        "time": 172.84784913333334,
                        "value": 0
                    },
                    {
                        "number": 64,
                        "time": 172.95111001666666,
                        "value": 1
                    },
                    {
                        "number": 64,
                        "time": 173.48915356666666,
                        "value": 0
                    },
                    {
                        "number": 64,
                        "time": 173.6413275,
                        "value": 1
                    },
                    {
                        "number": 64,
                        "time": 174.138610175,
                        "value": 0
                    },
                    {
                        "number": 64,
                        "time": 174.285349325,
                        "value": 1
                    },
                    {
                        "number": 64,
                        "time": 174.80980591666668,
                        "value": 0
                    },
                    {
                        "number": 64,
                        "time": 174.94567550000002,
                        "value": 1
                    },
                    {
                        "number": 64,
                        "time": 175.459262525,
                        "value": 0
                    },
                    {
                        "number": 64,
                        "time": 175.63589298333335,
                        "value": 1
                    },
                    {
                        "number": 64,
                        "time": 176.08698,
                        "value": 0
                    },
                    {
                        "number": 64,
                        "time": 176.28806698333335,
                        "value": 1
                    },
                    {
                        "number": 64,
                        "time": 176.76089313333335,
                        "value": 0
                    },
                    {
                        "number": 64,
                        "time": 176.86415401666667,
                        "value": 1
                    },
                    {
                        "number": 64,
                        "time": 177.40219756666667,
                        "value": 0
                    },
                    {
                        "number": 64,
                        "time": 177.5543715,
                        "value": 1
                    },
                    {
                        "number": 64,
                        "time": 178.051654175,
                        "value": 0
                    },
                    {
                        "number": 64,
                        "time": 178.198393325,
                        "value": 1
                    },
                    {
                        "number": 64,
                        "time": 178.7228499166667,
                        "value": 0
                    },
                    {
                        "number": 64,
                        "time": 178.85871950000003,
                        "value": 1
                    },
                    {
                        "number": 64,
                        "time": 179.37230652500003,
                        "value": 0
                    },
                    {
                        "number": 64,
                        "time": 179.54893698333336,
                        "value": 1
                    },
                    {
                        "number": 64,
                        "time": 180.00002400000002,
                        "value": 0
                    },
                    {
                        "number": 64,
                        "time": 180.20111098333336,
                        "value": 1
                    },
                    {
                        "number": 64,
                        "time": 180.67393713333337,
                        "value": 0
                    },
                    {
                        "number": 64,
                        "time": 180.7771980166667,
                        "value": 1
                    },
                    {
                        "number": 64,
                        "time": 181.31524156666669,
                        "value": 0
                    },
                    {
                        "number": 64,
                        "time": 181.46741550000002,
                        "value": 1
                    },
                    {
                        "number": 64,
                        "time": 181.96469817500002,
                        "value": 0
                    },
                    {
                        "number": 64,
                        "time": 182.11143732500003,
                        "value": 1
                    },
                    {
                        "number": 64,
                        "time": 182.6358939166667,
                        "value": 0
                    },
                    {
                        "number": 64,
                        "time": 182.77176350000005,
                        "value": 1
                    },
                    {
                        "number": 64,
                        "time": 183.28535052500004,
                        "value": 0
                    },
                    {
                        "number": 64,
                        "time": 183.46198098333338,
                        "value": 1
                    },
                    {
                        "number": 64,
                        "time": 183.91306800000004,
                        "value": 0
                    },
                    {
                        "number": 64,
                        "time": 184.11415498333338,
                        "value": 1
                    },
                    {
                        "number": 64,
                        "time": 184.58698113333338,
                        "value": 0
                    },
                    {
                        "number": 64,
                        "time": 184.6902420166667,
                        "value": 1
                    },
                    {
                        "number": 64,
                        "time": 185.2282855666667,
                        "value": 0
                    },
                    {
                        "number": 64,
                        "time": 185.38045950000003,
                        "value": 1
                    },
                    {
                        "number": 64,
                        "time": 185.87774217500004,
                        "value": 0
                    },
                    {
                        "number": 64,
                        "time": 186.02448132500004,
                        "value": 1
                    },
                    {
                        "number": 64,
                        "time": 186.54893791666672,
                        "value": 0
                    },
                    {
                        "number": 64,
                        "time": 186.68480750000006,
                        "value": 1
                    },
                    {
                        "number": 64,
                        "time": 187.19839452500005,
                        "value": 0
                    },
                    {
                        "number": 64,
                        "time": 187.3750249833334,
                        "value": 1
                    },
                    {
                        "number": 64,
                        "time": 187.82611200000005,
                        "value": 0
                    },
                    {
                        "number": 64,
                        "time": 188.0271989833334,
                        "value": 1
                    },
                    {
                        "number": 64,
                        "time": 188.5000251333334,
                        "value": 0
                    },
                    {
                        "number": 64,
                        "time": 188.60328601666671,
                        "value": 1
                    },
                    {
                        "number": 64,
                        "time": 189.1413295666667,
                        "value": 0
                    },
                    {
                        "number": 64,
                        "time": 189.29350350000004,
                        "value": 1
                    },
                    {
                        "number": 64,
                        "time": 189.79078617500005,
                        "value": 0
                    },
                    {
                        "number": 64,
                        "time": 189.93752532500005,
                        "value": 1
                    },
                    {
                        "number": 64,
                        "time": 190.46198191666673,
                        "value": 0
                    },
                    {
                        "number": 64,
                        "time": 190.59785150000008,
                        "value": 1
                    },
                    {
                        "number": 64,
                        "time": 191.11143852500007,
                        "value": 0
                    },
                    {
                        "number": 64,
                        "time": 191.2880689833334,
                        "value": 1
                    },
                    {
                        "number": 64,
                        "time": 191.73915600000007,
                        "value": 0
                    },
                    {
                        "number": 64,
                        "time": 191.9402429833334,
                        "value": 1
                    },
                    {
                        "number": 64,
                        "time": 192.4130691333334,
                        "value": 0
                    },
                    {
                        "number": 64,
                        "time": 192.51633001666673,
                        "value": 1
                    },
                    {
                        "number": 64,
                        "time": 193.05437356666673,
                        "value": 0
                    },
                    {
                        "number": 64,
                        "time": 193.20654750000006,
                        "value": 1
                    },
                    {
                        "number": 64,
                        "time": 193.70383017500006,
                        "value": 0
                    },
                    {
                        "number": 64,
                        "time": 193.85056932500007,
                        "value": 1
                    },
                    {
                        "number": 64,
                        "time": 194.37502591666674,
                        "value": 0
                    },
                    {
                        "number": 64,
                        "time": 194.5108955000001,
                        "value": 1
                    },
                    {
                        "number": 64,
                        "time": 195.02448252500008,
                        "value": 0
                    },
                    {
                        "number": 64,
                        "time": 195.15491732500007,
                        "value": 1
                    },
                    {
                        "number": 64,
                        "time": 195.65220000000008,
                        "value": 0
                    },
                    {
                        "number": 64,
                        "time": 195.78535219166673,
                        "value": 1
                    },
                    {
                        "number": 64,
                        "time": 196.3261131333334,
                        "value": 0
                    },
                    {
                        "number": 64,
                        "time": 196.4293740166667,
                        "value": 1
                    },
                    {
                        "number": 64,
                        "time": 196.9674175666667,
                        "value": 0
                    },
                    {
                        "number": 64,
                        "time": 197.11959150000004,
                        "value": 1
                    },
                    {
                        "number": 64,
                        "time": 197.61687417500005,
                        "value": 0
                    },
                    {
                        "number": 64,
                        "time": 197.76361332500005,
                        "value": 1
                    },
                    {
                        "number": 64,
                        "time": 198.28806991666673,
                        "value": 0
                    },
                    {
                        "number": 64,
                        "time": 198.42393950000007,
                        "value": 1
                    },
                    {
                        "number": 64,
                        "time": 198.93752652500007,
                        "value": 0
                    },
                    {
                        "number": 64,
                        "time": 199.1141569833334,
                        "value": 1
                    },
                    {
                        "number": 64,
                        "time": 199.56524400000006,
                        "value": 0
                    },
                    {
                        "number": 64,
                        "time": 199.69024401666672,
                        "value": 1
                    },
                    {
                        "number": 64,
                        "time": 200.23915713333338,
                        "value": 0
                    },
                    {
                        "number": 64,
                        "time": 200.3424180166667,
                        "value": 1
                    },
                    {
                        "number": 64,
                        "time": 200.8804615666667,
                        "value": 0
                    },
                    {
                        "number": 64,
                        "time": 201.03263550000003,
                        "value": 1
                    },
                    {
                        "number": 64,
                        "time": 201.52991817500003,
                        "value": 0
                    },
                    {
                        "number": 64,
                        "time": 201.67665732500004,
                        "value": 1
                    },
                    {
                        "number": 64,
                        "time": 202.2011139166667,
                        "value": 0
                    },
                    {
                        "number": 64,
                        "time": 202.33698350000006,
                        "value": 1
                    },
                    {
                        "number": 64,
                        "time": 202.85057052500005,
                        "value": 0
                    },
                    {
                        "number": 64,
                        "time": 203.0272009833334,
                        "value": 1
                    },
                    {
                        "number": 64,
                        "time": 203.50817930833338,
                        "value": 0
                    },
                    {
                        "number": 64,
                        "time": 203.61959236666672,
                        "value": 1
                    },
                    {
                        "number": 64,
                        "time": 204.14948374166673,
                        "value": 0
                    },
                    {
                        "number": 64,
                        "time": 204.27176636666672,
                        "value": 1
                    },
                    {
                        "number": 64,
                        "time": 204.79350556666674,
                        "value": 0
                    },
                    {
                        "number": 64,
                        "time": 204.89948384166675,
                        "value": 1
                    },
                    {
                        "number": 64,
                        "time": 205.45383174166676,
                        "value": 0
                    },
                    {
                        "number": 64,
                        "time": 205.56796219166677,
                        "value": 1
                    },
                    {
                        "number": 64,
                        "time": 206.1032883500001,
                        "value": 0
                    },
                    {
                        "number": 64,
                        "time": 206.21198401666678,
                        "value": 1
                    },
                    {
                        "number": 64,
                        "time": 206.75817974166677,
                        "value": 0
                    },
                    {
                        "number": 64,
                        "time": 206.88861454166675,
                        "value": 1
                    },
                    {
                        "number": 64,
                        "time": 207.42122330833342,
                        "value": 0
                    },
                    {
                        "number": 64,
                        "time": 207.53263636666676,
                        "value": 1
                    },
                    {
                        "number": 64,
                        "time": 208.06252774166677,
                        "value": 0
                    },
                    {
                        "number": 64,
                        "time": 208.18481036666677,
                        "value": 1
                    },
                    {
                        "number": 64,
                        "time": 208.70654956666678,
                        "value": 0
                    },
                    {
                        "number": 64,
                        "time": 208.8125278416668,
                        "value": 1
                    },
                    {
                        "number": 64,
                        "time": 209.3668757416668,
                        "value": 0
                    },
                    {
                        "number": 64,
                        "time": 209.4810061916668,
                        "value": 1
                    },
                    {
                        "number": 64,
                        "time": 210.01633235000014,
                        "value": 0
                    },
                    {
                        "number": 64,
                        "time": 210.12502801666682,
                        "value": 1
                    },
                    {
                        "number": 64,
                        "time": 210.6712237416668,
                        "value": 0
                    },
                    {
                        "number": 64,
                        "time": 210.8016585416668,
                        "value": 1
                    },
                    {
                        "number": 64,
                        "time": 211.33426730833347,
                        "value": 0
                    },
                    {
                        "number": 64,
                        "time": 211.4456803666668,
                        "value": 1
                    },
                    {
                        "number": 64,
                        "time": 211.9755717416668,
                        "value": 0
                    },
                    {
                        "number": 64,
                        "time": 212.0978543666668,
                        "value": 1
                    },
                    {
                        "number": 64,
                        "time": 212.61959356666682,
                        "value": 0
                    },
                    {
                        "number": 64,
                        "time": 212.72557184166683,
                        "value": 1
                    },
                    {
                        "number": 64,
                        "time": 213.27991974166684,
                        "value": 0
                    },
                    {
                        "number": 64,
                        "time": 213.39405019166685,
                        "value": 1
                    },
                    {
                        "number": 64,
                        "time": 213.92937635000018,
                        "value": 0
                    },
                    {
                        "number": 64,
                        "time": 214.03807201666686,
                        "value": 1
                    },
                    {
                        "number": 64,
                        "time": 214.58426774166685,
                        "value": 0
                    },
                    {
                        "number": 64,
                        "time": 214.71470254166684,
                        "value": 1
                    },
                    {
                        "number": 64,
                        "time": 215.23644174166685,
                        "value": 0
                    },
                    {
                        "number": 64,
                        "time": 215.35057219166686,
                        "value": 1
                    },
                    {
                        "number": 64,
                        "time": 215.8858983500002,
                        "value": 0
                    },
                    {
                        "number": 64,
                        "time": 215.99459401666687,
                        "value": 1
                    },
                    {
                        "number": 64,
                        "time": 216.54078974166686,
                        "value": 0
                    },
                    {
                        "number": 64,
                        "time": 216.67122454166685,
                        "value": 1
                    },
                    {
                        "number": 64,
                        "time": 217.1875289583335,
                        "value": 0
                    },
                    {
                        "number": 64,
                        "time": 217.28263766666683,
                        "value": 1
                    },
                    {
                        "number": 64,
                        "time": 217.8478551333335,
                        "value": 0
                    },
                    {
                        "number": 64,
                        "time": 217.92665949166684,
                        "value": 1
                    },
                    {
                        "number": 64,
                        "time": 218.49731174166683,
                        "value": 0
                    },
                    {
                        "number": 64,
                        "time": 218.57883349166684,
                        "value": 1
                    },
                    {
                        "number": 64,
                        "time": 219.13861617500018,
                        "value": 0
                    },
                    {
                        "number": 64,
                        "time": 219.49459448333351,
                        "value": 1
                    },
                    {
                        "number": 64,
                        "time": 221.12502948333352,
                        "value": 0
                    },
                    {
                        "number": 64,
                        "time": 221.5598121500002,
                        "value": 1
                    },
                    {
                        "number": 64,
                        "time": 223.1168775750002,
                        "value": 0
                    },
                    {
                        "number": 64,
                        "time": 223.2065515000002,
                        "value": 1
                    },
                    {
                        "number": 64,
                        "time": 224.38589948333353,
                        "value": 0
                    },
                    {
                        "number": 64,
                        "time": 224.52176906666688,
                        "value": 1
                    },
                    {
                        "number": 64,
                        "time": 225.0244865250002,
                        "value": 0
                    },
                    {
                        "number": 64,
                        "time": 225.20111698333355,
                        "value": 1
                    },
                    {
                        "number": 64,
                        "time": 225.66850835000022,
                        "value": 0
                    },
                    {
                        "number": 64,
                        "time": 225.78807358333356,
                        "value": 1
                    },
                    {
                        "number": 64,
                        "time": 226.31796495833356,
                        "value": 0
                    },
                    {
                        "number": 64,
                        "time": 226.63046500000024,
                        "value": 1
                    },
                    {
                        "number": 64,
                        "time": 226.95655200000024,
                        "value": 0
                    },
                    {
                        "number": 64,
                        "time": 227.05166070833357,
                        "value": 1
                    },
                    {
                        "number": 64,
                        "time": 227.6277477416669,
                        "value": 0
                    },
                    {
                        "number": 64,
                        "time": 227.7092694916669,
                        "value": 1
                    },
                    {
                        "number": 64,
                        "time": 228.29079130833358,
                        "value": 0
                    },
                    {
                        "number": 64,
                        "time": 228.37774784166692,
                        "value": 1
                    },
                    {
                        "number": 64,
                        "time": 228.60057395833357,
                        "value": 0
                    },
                    {
                        "number": 64,
                        "time": 228.66579135833356,
                        "value": 1
                    },
                    {
                        "number": 64,
                        "time": 228.9402479166669,
                        "value": 0
                    },
                    {
                        "number": 64,
                        "time": 229.0625305416669,
                        "value": 1
                    },
                    {
                        "number": 64,
                        "time": 230.3804655000002,
                        "value": 0
                    },
                    {
                        "number": 64,
                        "time": 230.93209600833356,
                        "value": 1
                    },
                    {
                        "number": 64,
                        "time": 231.5570960916669,
                        "value": 0
                    },
                    {
                        "number": 64,
                        "time": 231.69296567500024,
                        "value": 1
                    },
                    {
                        "number": 64,
                        "time": 232.19024835000025,
                        "value": 0
                    },
                    {
                        "number": 64,
                        "time": 232.25274835833358,
                        "value": 1
                    },
                    {
                        "number": 64,
                        "time": 232.51361795833358,
                        "value": 0
                    },
                    {
                        "number": 64,
                        "time": 232.60057449166692,
                        "value": 1
                    },
                    {
                        "number": 64,
                        "time": 232.8451397416669,
                        "value": 0
                    },
                    {
                        "number": 64,
                        "time": 233.10600934166692,
                        "value": 1
                    },
                    {
                        "number": 64,
                        "time": 234.46470517500026,
                        "value": 0
                    },
                    {
                        "number": 64,
                        "time": 235.0000313333336,
                        "value": 1
                    },
                    {
                        "number": 64,
                        "time": 240.68753209166692,
                        "value": 0
                    },
                    {
                        "number": 64,
                        "time": 242.86416281666692,
                        "value": 1
                    },
                    {
                        "number": 64,
                        "time": 247.57340257500024,
                        "value": 0
                    },
                    {
                        "number": 64,
                        "time": 249.13046800000023,
                        "value": 1
                    },
                    {
                        "number": 64,
                        "time": 249.8179680916669,
                        "value": 0
                    },
                    {
                        "number": 64,
                        "time": 250.6902508166669,
                        "value": 1
                    },
                    {
                        "number": 64,
                        "time": 254.5299252416669,
                        "value": 0
                    },
                    {
                        "number": 64,
                        "time": 254.92938181666688,
                        "value": 1
                    },
                    {
                        "number": 64,
                        "time": 256.33699070000023,
                        "value": 0
                    },
                    {
                        "number": 64,
                        "time": 256.63046900000023,
                        "value": 1
                    },
                    {
                        "number": 64,
                        "time": 257.6440560916669,
                        "value": 0
                    },
                    {
                        "number": 64,
                        "time": 257.8994909083336,
                        "value": 1
                    },
                    {
                        "number": 64,
                        "time": 258.26090400000027,
                        "value": 0
                    },
                    {
                        "number": 64,
                        "time": 258.73373015000027,
                        "value": 1
                    },
                    {
                        "number": 64,
                        "time": 260.2445999166669,
                        "value": 0
                    },
                    {
                        "number": 64,
                        "time": 260.5815564833336,
                        "value": 1
                    },
                    {
                        "number": 64,
                        "time": 263.5163394833336,
                        "value": 0
                    },
                    {
                        "number": 64,
                        "time": 263.6712308083336,
                        "value": 1
                    },
                    {
                        "number": 64,
                        "time": 264.1413395666669,
                        "value": 0
                    },
                    {
                        "number": 64,
                        "time": 264.2282961000002,
                        "value": 1
                    },
                    {
                        "number": 64,
                        "time": 264.80166574166685,
                        "value": 0
                    },
                    {
                        "number": 64,
                        "time": 264.90764401666684,
                        "value": 1
                    },
                    {
                        "number": 64,
                        "time": 265.46742670000015,
                        "value": 0
                    },
                    {
                        "number": 64,
                        "time": 265.5897093250002,
                        "value": 1
                    },
                    {
                        "number": 64,
                        "time": 266.0869920000002,
                        "value": 0
                    },
                    {
                        "number": 64,
                        "time": 266.59514424166684,
                        "value": 1
                    },
                    {
                        "number": 64,
                        "time": 270.0000360000002,
                        "value": 0
                    },
                    {
                        "number": 64,
                        "time": 270.50818824166686,
                        "value": 1
                    },
                    {
                        "number": 64,
                        "time": 271.99188409166686,
                        "value": 0
                    },
                    {
                        "number": 64,
                        "time": 272.39134066666685,
                        "value": 1
                    },
                    {
                        "number": 64,
                        "time": 273.9130800000002,
                        "value": 0
                    },
                    {
                        "number": 64,
                        "time": 274.1766669916669,
                        "value": 1
                    },
                    {
                        "number": 64,
                        "time": 275.25547148333357,
                        "value": 0
                    },
                    {
                        "number": 64,
                        "time": 275.45112368333355,
                        "value": 1
                    },
                    {
                        "number": 64,
                        "time": 275.9049280916669,
                        "value": 0
                    },
                    {
                        "number": 64,
                        "time": 276.0734063750002,
                        "value": 1
                    },
                    {
                        "number": 64,
                        "time": 277.2119934833336,
                        "value": 0
                    },
                    {
                        "number": 64,
                        "time": 277.3777543750002,
                        "value": 1
                    },
                    {
                        "number": 64,
                        "time": 277.8261240000002,
                        "value": 0
                    },
                    {
                        "number": 64,
                        "time": 278.01362402500024,
                        "value": 1
                    },
                    {
                        "number": 64,
                        "time": 279.8234068750002,
                        "value": 0
                    },
                    {
                        "number": 64,
                        "time": 280.01634168333356,
                        "value": 1
                    },
                    {
                        "number": 64,
                        "time": 281.7772114833336,
                        "value": 0
                    },
                    {
                        "number": 64,
                        "time": 282.08155935000025,
                        "value": 1
                    },
                    {
                        "number": 64,
                        "time": 283.7255813083336,
                        "value": 0
                    },
                    {
                        "number": 64,
                        "time": 284.1304726666669,
                        "value": 1
                    },
                    {
                        "number": 64,
                        "time": 285.01634235000023,
                        "value": 0
                    },
                    {
                        "number": 64,
                        "time": 285.25003803333357,
                        "value": 1
                    },
                    {
                        "number": 64,
                        "time": 285.66851635000023,
                        "value": 0
                    },
                    {
                        "number": 64,
                        "time": 285.9782990000002,
                        "value": 1
                    },
                    {
                        "number": 64,
                        "time": 287.6168861750002,
                        "value": 0
                    },
                    {
                        "number": 64,
                        "time": 288.0815601500002,
                        "value": 1
                    },
                    {
                        "number": 64,
                        "time": 289.5734081750002,
                        "value": 0
                    },
                    {
                        "number": 64,
                        "time": 290.0326473666669,
                        "value": 1
                    },
                    {
                        "number": 64,
                        "time": 290.9103648750002,
                        "value": 0
                    },
                    {
                        "number": 64,
                        "time": 291.1821040416669,
                        "value": 1
                    },
                    {
                        "number": 64,
                        "time": 291.5380823500002,
                        "value": 0
                    },
                    {
                        "number": 64,
                        "time": 291.86416935000017,
                        "value": 1
                    },
                    {
                        "number": 64,
                        "time": 292.21471287500015,
                        "value": 0
                    },
                    {
                        "number": 64,
                        "time": 292.5788433583335,
                        "value": 1
                    },
                    {
                        "number": 64,
                        "time": 292.8587347000001,
                        "value": 0
                    },
                    {
                        "number": 64,
                        "time": 293.1060173416668,
                        "value": 1
                    },
                    {
                        "number": 64,
                        "time": 293.47830000000016,
                        "value": 0
                    },
                    {
                        "number": 64,
                        "time": 293.7092782916668,
                        "value": 1
                    },
                    {
                        "number": 64,
                        "time": 295.4592785250001,
                        "value": 0
                    },
                    {
                        "number": 64,
                        "time": 295.66580029166676,
                        "value": 1
                    },
                    {
                        "number": 64,
                        "time": 297.4293874833334,
                        "value": 0
                    },
                    {
                        "number": 64,
                        "time": 297.67938751666674,
                        "value": 1
                    },
                    {
                        "number": 64,
                        "time": 299.36688774166674,
                        "value": 0
                    },
                    {
                        "number": 64,
                        "time": 299.5408008083334,
                        "value": 1
                    },
                    {
                        "number": 64,
                        "time": 301.31525756666673,
                        "value": 0
                    },
                    {
                        "number": 64,
                        "time": 301.49188802500004,
                        "value": 1
                    },
                    {
                        "number": 64,
                        "time": 302.6196055666667,
                        "value": 0
                    },
                    {
                        "number": 64,
                        "time": 302.779931675,
                        "value": 1
                    },
                    {
                        "number": 64,
                        "time": 303.29080130833336,
                        "value": 0
                    },
                    {
                        "number": 64,
                        "time": 303.51091003333335,
                        "value": 1
                    },
                    {
                        "number": 64,
                        "time": 304.58156235,
                        "value": 0
                    },
                    {
                        "number": 64,
                        "time": 304.752758025,
                        "value": 1
                    },
                    {
                        "number": 64,
                        "time": 305.217432,
                        "value": 0
                    },
                    {
                        "number": 64,
                        "time": 305.404932025,
                        "value": 1
                    },
                    {
                        "number": 64,
                        "time": 307.21199748333333,
                        "value": 0
                    },
                    {
                        "number": 64,
                        "time": 307.39134533333333,
                        "value": 1
                    },
                    {
                        "number": 64,
                        "time": 308.49460635,
                        "value": 0
                    },
                    {
                        "number": 64,
                        "time": 308.649497675,
                        "value": 1
                    },
                    {
                        "number": 64,
                        "time": 309.13047600000004,
                        "value": 0
                    },
                    {
                        "number": 64,
                        "time": 309.47286735000006,
                        "value": 1
                    },
                    {
                        "number": 64,
                        "time": 310.4565631333334,
                        "value": 0
                    },
                    {
                        "number": 64,
                        "time": 310.6522153333334,
                        "value": 1
                    },
                    {
                        "number": 64,
                        "time": 311.1196067000001,
                        "value": 0
                    },
                    {
                        "number": 64,
                        "time": 311.33699803333343,
                        "value": 1
                    },
                    {
                        "number": 64,
                        "time": 312.4049329583334,
                        "value": 0
                    },
                    {
                        "number": 64,
                        "time": 312.53265036666676,
                        "value": 1
                    },
                    {
                        "number": 64,
                        "time": 313.0435200000001,
                        "value": 0
                    },
                    {
                        "number": 64,
                        "time": 313.38591135000013,
                        "value": 1
                    },
                    {
                        "number": 64,
                        "time": 314.3696071333335,
                        "value": 0
                    },
                    {
                        "number": 64,
                        "time": 314.5652593333335,
                        "value": 1
                    },
                    {
                        "number": 64,
                        "time": 315.03265070000015,
                        "value": 0
                    },
                    {
                        "number": 64,
                        "time": 315.2500420333335,
                        "value": 1
                    },
                    {
                        "number": 64,
                        "time": 316.3179769583335,
                        "value": 0
                    },
                    {
                        "number": 64,
                        "time": 316.4456943666668,
                        "value": 1
                    },
                    {
                        "number": 64,
                        "time": 316.9565640000002,
                        "value": 0
                    },
                    {
                        "number": 64,
                        "time": 317.2989553500002,
                        "value": 1
                    },
                    {
                        "number": 64,
                        "time": 318.28265113333356,
                        "value": 0
                    },
                    {
                        "number": 64,
                        "time": 318.47830333333354,
                        "value": 1
                    },
                    {
                        "number": 64,
                        "time": 318.9456947000002,
                        "value": 0
                    },
                    {
                        "number": 64,
                        "time": 319.16308603333357,
                        "value": 1
                    },
                    {
                        "number": 64,
                        "time": 320.86960800000026,
                        "value": 0
                    },
                    {
                        "number": 64,
                        "time": 321.0571080250003,
                        "value": 1
                    },
                    {
                        "number": 64,
                        "time": 321.5272167833336,
                        "value": 0
                    },
                    {
                        "number": 64,
                        "time": 321.7554776833336,
                        "value": 1
                    },
                    {
                        "number": 64,
                        "time": 322.1956951333336,
                        "value": 0
                    },
                    {
                        "number": 64,
                        "time": 322.39134733333356,
                        "value": 1
                    },
                    {
                        "number": 64,
                        "time": 322.85873870000023,
                        "value": 0
                    },
                    {
                        "number": 64,
                        "time": 323.0761300333336,
                        "value": 1
                    },
                    {
                        "number": 64,
                        "time": 324.14406495833356,
                        "value": 0
                    },
                    {
                        "number": 64,
                        "time": 324.2717823666669,
                        "value": 1
                    },
                    {
                        "number": 64,
                        "time": 324.78265200000027,
                        "value": 0
                    },
                    {
                        "number": 64,
                        "time": 324.9701520250003,
                        "value": 1
                    },
                    {
                        "number": 64,
                        "time": 326.7717827000003,
                        "value": 0
                    },
                    {
                        "number": 64,
                        "time": 326.98917403333365,
                        "value": 1
                    },
                    {
                        "number": 64,
                        "time": 328.05710895833363,
                        "value": 0
                    },
                    {
                        "number": 64,
                        "time": 328.184826366667,
                        "value": 1
                    },
                    {
                        "number": 64,
                        "time": 328.69569600000034,
                        "value": 0
                    },
                    {
                        "number": 64,
                        "time": 328.975587341667,
                        "value": 1
                    },
                    {
                        "number": 64,
                        "time": 330.687544091667,
                        "value": 0
                    },
                    {
                        "number": 64,
                        "time": 331.05710935833366,
                        "value": 1
                    },
                    {
                        "number": 64,
                        "time": 336.5217840000003,
                        "value": 0
                    },
                    {
                        "number": 64,
                        "time": 336.66308836666695,
                        "value": 1
                    },
                    {
                        "number": 64,
                        "time": 337.20113191666695,
                        "value": 0
                    },
                    {
                        "number": 64,
                        "time": 337.323414541667,
                        "value": 1
                    },
                    {
                        "number": 64,
                        "time": 337.85330591666695,
                        "value": 0
                    },
                    {
                        "number": 64,
                        "time": 337.94297984166695,
                        "value": 1
                    },
                    {
                        "number": 64,
                        "time": 338.5081973083336,
                        "value": 0
                    },
                    {
                        "number": 64,
                        "time": 338.6196103666669,
                        "value": 1
                    },
                    {
                        "number": 64,
                        "time": 339.1603713083336,
                        "value": 0
                    },
                    {
                        "number": 64,
                        "time": 339.2473278416669,
                        "value": 1
                    },
                    {
                        "number": 64,
                        "time": 339.81254530833354,
                        "value": 0
                    },
                    {
                        "number": 64,
                        "time": 339.9158061916669,
                        "value": 1
                    },
                    {
                        "number": 64,
                        "time": 340.4348280000002,
                        "value": 0
                    },
                    {
                        "number": 64,
                        "time": 340.57613236666685,
                        "value": 1
                    },
                    {
                        "number": 64,
                        "time": 341.11417591666685,
                        "value": 0
                    },
                    {
                        "number": 64,
                        "time": 341.2364585416669,
                        "value": 1
                    },
                    {
                        "number": 64,
                        "time": 341.76634991666685,
                        "value": 0
                    },
                    {
                        "number": 64,
                        "time": 341.85602384166685,
                        "value": 1
                    },
                    {
                        "number": 64,
                        "time": 342.4212413083335,
                        "value": 0
                    },
                    {
                        "number": 64,
                        "time": 342.5326543666668,
                        "value": 1
                    },
                    {
                        "number": 64,
                        "time": 343.0734153083335,
                        "value": 0
                    },
                    {
                        "number": 64,
                        "time": 343.1603718416668,
                        "value": 1
                    },
                    {
                        "number": 64,
                        "time": 343.72558930833344,
                        "value": 0
                    },
                    {
                        "number": 64,
                        "time": 343.8288501916668,
                        "value": 1
                    },
                    {
                        "number": 64,
                        "time": 344.3478720000001,
                        "value": 0
                    },
                    {
                        "number": 64,
                        "time": 344.48917636666675,
                        "value": 1
                    },
                    {
                        "number": 64,
                        "time": 345.02721991666675,
                        "value": 0
                    },
                    {
                        "number": 64,
                        "time": 345.1495025416668,
                        "value": 1
                    },
                    {
                        "number": 64,
                        "time": 345.67939391666675,
                        "value": 0
                    },
                    {
                        "number": 64,
                        "time": 345.76906784166675,
                        "value": 1
                    },
                    {
                        "number": 64,
                        "time": 346.3342853083334,
                        "value": 0
                    },
                    {
                        "number": 64,
                        "time": 346.4456983666667,
                        "value": 1
                    },
                    {
                        "number": 64,
                        "time": 346.9864593083334,
                        "value": 0
                    },
                    {
                        "number": 64,
                        "time": 347.0734158416667,
                        "value": 1
                    },
                    {
                        "number": 64,
                        "time": 347.63863330833334,
                        "value": 0
                    },
                    {
                        "number": 64,
                        "time": 347.7418941916667,
                        "value": 1
                    },
                    {
                        "number": 64,
                        "time": 348.260916,
                        "value": 0
                    },
                    {
                        "number": 64,
                        "time": 348.40222036666665,
                        "value": 1
                    },
                    {
                        "number": 64,
                        "time": 348.94026391666665,
                        "value": 0
                    },
                    {
                        "number": 64,
                        "time": 349.0625465416667,
                        "value": 1
                    },
                    {
                        "number": 64,
                        "time": 349.59243791666665,
                        "value": 0
                    },
                    {
                        "number": 64,
                        "time": 349.68211184166665,
                        "value": 1
                    },
                    {
                        "number": 64,
                        "time": 350.2473293083333,
                        "value": 0
                    },
                    {
                        "number": 64,
                        "time": 350.3587423666666,
                        "value": 1
                    },
                    {
                        "number": 64,
                        "time": 350.8995033083333,
                        "value": 0
                    },
                    {
                        "number": 64,
                        "time": 350.9864598416666,
                        "value": 1
                    },
                    {
                        "number": 64,
                        "time": 351.55167730833324,
                        "value": 0
                    },
                    {
                        "number": 64,
                        "time": 351.6549381916666,
                        "value": 1
                    },
                    {
                        "number": 64,
                        "time": 352.1739599999999,
                        "value": 0
                    },
                    {
                        "number": 64,
                        "time": 352.31526436666655,
                        "value": 1
                    },
                    {
                        "number": 64,
                        "time": 352.85330791666655,
                        "value": 0
                    },
                    {
                        "number": 64,
                        "time": 352.9755905416666,
                        "value": 1
                    },
                    {
                        "number": 64,
                        "time": 353.50548191666655,
                        "value": 0
                    },
                    {
                        "number": 64,
                        "time": 353.59515584166655,
                        "value": 1
                    },
                    {
                        "number": 64,
                        "time": 354.1603733083332,
                        "value": 0
                    },
                    {
                        "number": 64,
                        "time": 354.2717863666665,
                        "value": 1
                    },
                    {
                        "number": 64,
                        "time": 354.8125473083332,
                        "value": 0
                    },
                    {
                        "number": 64,
                        "time": 354.8995038416665,
                        "value": 1
                    },
                    {
                        "number": 64,
                        "time": 355.46472130833314,
                        "value": 0
                    },
                    {
                        "number": 64,
                        "time": 355.5679821916665,
                        "value": 1
                    },
                    {
                        "number": 64,
                        "time": 356.0870039999998,
                        "value": 0
                    },
                    {
                        "number": 64,
                        "time": 356.22830836666645,
                        "value": 1
                    },
                    {
                        "number": 64,
                        "time": 356.76635191666645,
                        "value": 0
                    },
                    {
                        "number": 64,
                        "time": 356.8886345416665,
                        "value": 1
                    },
                    {
                        "number": 64,
                        "time": 357.41852591666645,
                        "value": 0
                    },
                    {
                        "number": 64,
                        "time": 357.50819984166645,
                        "value": 1
                    },
                    {
                        "number": 64,
                        "time": 358.0734173083331,
                        "value": 0
                    },
                    {
                        "number": 64,
                        "time": 358.1848303666664,
                        "value": 1
                    },
                    {
                        "number": 64,
                        "time": 358.7255913083331,
                        "value": 0
                    },
                    {
                        "number": 64,
                        "time": 358.8125478416664,
                        "value": 1
                    },
                    {
                        "number": 64,
                        "time": 359.37776530833304,
                        "value": 0
                    },
                    {
                        "number": 64,
                        "time": 359.4810261916664,
                        "value": 1
                    },
                    {
                        "number": 64,
                        "time": 360.0000479999997,
                        "value": 0
                    },
                    {
                        "number": 64,
                        "time": 360.14135236666635,
                        "value": 1
                    },
                    {
                        "number": 64,
                        "time": 360.67939591666635,
                        "value": 0
                    },
                    {
                        "number": 64,
                        "time": 360.8016785416664,
                        "value": 1
                    },
                    {
                        "number": 64,
                        "time": 361.33156991666635,
                        "value": 0
                    },
                    {
                        "number": 64,
                        "time": 361.42124384166635,
                        "value": 1
                    },
                    {
                        "number": 64,
                        "time": 361.986461308333,
                        "value": 0
                    },
                    {
                        "number": 64,
                        "time": 362.0978743666663,
                        "value": 1
                    },
                    {
                        "number": 64,
                        "time": 362.638635308333,
                        "value": 0
                    },
                    {
                        "number": 64,
                        "time": 362.7255918416663,
                        "value": 1
                    },
                    {
                        "number": 64,
                        "time": 363.29080930833294,
                        "value": 0
                    },
                    {
                        "number": 64,
                        "time": 363.3940701916663,
                        "value": 1
                    },
                    {
                        "number": 64,
                        "time": 363.9130919999996,
                        "value": 0
                    },
                    {
                        "number": 64,
                        "time": 364.05439636666625,
                        "value": 1
                    },
                    {
                        "number": 64,
                        "time": 364.59243991666625,
                        "value": 0
                    },
                    {
                        "number": 64,
                        "time": 364.7147225416663,
                        "value": 1
                    },
                    {
                        "number": 64,
                        "time": 365.24461391666625,
                        "value": 0
                    },
                    {
                        "number": 64,
                        "time": 365.33428784166625,
                        "value": 1
                    },
                    {
                        "number": 64,
                        "time": 365.8995053083329,
                        "value": 0
                    },
                    {
                        "number": 64,
                        "time": 366.0109183666662,
                        "value": 1
                    },
                    {
                        "number": 64,
                        "time": 366.5516793083329,
                        "value": 0
                    },
                    {
                        "number": 64,
                        "time": 366.6386358416662,
                        "value": 1
                    },
                    {
                        "number": 64,
                        "time": 367.20385330833284,
                        "value": 0
                    },
                    {
                        "number": 64,
                        "time": 367.3071141916662,
                        "value": 1
                    },
                    {
                        "number": 64,
                        "time": 367.8261359999995,
                        "value": 0
                    },
                    {
                        "number": 64,
                        "time": 367.96744036666615,
                        "value": 1
                    },
                    {
                        "number": 64,
                        "time": 368.50548391666615,
                        "value": 0
                    },
                    {
                        "number": 64,
                        "time": 368.6277665416662,
                        "value": 1
                    },
                    {
                        "number": 64,
                        "time": 369.15765791666615,
                        "value": 0
                    },
                    {
                        "number": 64,
                        "time": 369.24733184166615,
                        "value": 1
                    },
                    {
                        "number": 64,
                        "time": 369.8125493083328,
                        "value": 0
                    },
                    {
                        "number": 64,
                        "time": 369.9239623666661,
                        "value": 1
                    },
                    {
                        "number": 64,
                        "time": 370.4647233083328,
                        "value": 0
                    },
                    {
                        "number": 64,
                        "time": 370.5516798416661,
                        "value": 1
                    },
                    {
                        "number": 64,
                        "time": 371.11689730833274,
                        "value": 0
                    },
                    {
                        "number": 64,
                        "time": 371.2201581916661,
                        "value": 1
                    },
                    {
                        "number": 64,
                        "time": 371.7391799999994,
                        "value": 0
                    },
                    {
                        "number": 64,
                        "time": 371.88048436666605,
                        "value": 1
                    },
                    {
                        "number": 64,
                        "time": 372.41852791666605,
                        "value": 0
                    },
                    {
                        "number": 64,
                        "time": 372.5408105416661,
                        "value": 1
                    },
                    {
                        "number": 64,
                        "time": 373.07070191666605,
                        "value": 0
                    },
                    {
                        "number": 64,
                        "time": 373.16037584166605,
                        "value": 1
                    },
                    {
                        "number": 64,
                        "time": 373.7255933083327,
                        "value": 0
                    },
                    {
                        "number": 64,
                        "time": 373.837006366666,
                        "value": 1
                    },
                    {
                        "number": 64,
                        "time": 374.3777673083327,
                        "value": 0
                    },
                    {
                        "number": 64,
                        "time": 374.464723841666,
                        "value": 1
                    },
                    {
                        "number": 64,
                        "time": 375.02994130833264,
                        "value": 0
                    },
                    {
                        "number": 64,
                        "time": 375.133202191666,
                        "value": 1
                    },
                    {
                        "number": 64,
                        "time": 375.6522239999993,
                        "value": 0
                    },
                    {
                        "number": 64,
                        "time": 375.79352836666595,
                        "value": 1
                    },
                    {
                        "number": 64,
                        "time": 376.33157191666595,
                        "value": 0
                    },
                    {
                        "number": 64,
                        "time": 376.453854541666,
                        "value": 1
                    },
                    {
                        "number": 64,
                        "time": 376.98374591666595,
                        "value": 0
                    },
                    {
                        "number": 64,
                        "time": 377.07341984166595,
                        "value": 1
                    },
                    {
                        "number": 64,
                        "time": 377.6386373083326,
                        "value": 0
                    },
                    {
                        "number": 64,
                        "time": 377.7500503666659,
                        "value": 1
                    },
                    {
                        "number": 64,
                        "time": 378.2908113083326,
                        "value": 0
                    },
                    {
                        "number": 64,
                        "time": 378.3777678416659,
                        "value": 1
                    },
                    {
                        "number": 64,
                        "time": 378.94298530833254,
                        "value": 0
                    },
                    {
                        "number": 64,
                        "time": 379.0462461916659,
                        "value": 1
                    },
                    {
                        "number": 64,
                        "time": 379.5652679999992,
                        "value": 0
                    },
                    {
                        "number": 64,
                        "time": 379.70657236666585,
                        "value": 1
                    },
                    {
                        "number": 64,
                        "time": 380.24461591666585,
                        "value": 0
                    },
                    {
                        "number": 64,
                        "time": 380.3668985416659,
                        "value": 1
                    },
                    {
                        "number": 64,
                        "time": 380.89678991666585,
                        "value": 0
                    },
                    {
                        "number": 64,
                        "time": 380.98646384166585,
                        "value": 1
                    },
                    {
                        "number": 64,
                        "time": 381.5516813083325,
                        "value": 0
                    },
                    {
                        "number": 64,
                        "time": 381.6630943666658,
                        "value": 1
                    },
                    {
                        "number": 64,
                        "time": 382.2038553083325,
                        "value": 0
                    },
                    {
                        "number": 64,
                        "time": 382.2908118416658,
                        "value": 1
                    },
                    {
                        "number": 64,
                        "time": 382.85602930833244,
                        "value": 0
                    },
                    {
                        "number": 64,
                        "time": 382.9592901916658,
                        "value": 1
                    },
                    {
                        "number": 64,
                        "time": 383.4783119999991,
                        "value": 0
                    },
                    {
                        "number": 64,
                        "time": 383.61961636666575,
                        "value": 1
                    },
                    {
                        "number": 64,
                        "time": 384.15765991666575,
                        "value": 0
                    },
                    {
                        "number": 64,
                        "time": 384.2799425416658,
                        "value": 1
                    },
                    {
                        "number": 64,
                        "time": 384.80983391666575,
                        "value": 0
                    },
                    {
                        "number": 64,
                        "time": 384.89950784166575,
                        "value": 1
                    },
                    {
                        "number": 64,
                        "time": 385.4647253083324,
                        "value": 0
                    },
                    {
                        "number": 64,
                        "time": 385.5761383666657,
                        "value": 1
                    },
                    {
                        "number": 64,
                        "time": 386.1168993083324,
                        "value": 0
                    },
                    {
                        "number": 64,
                        "time": 386.2038558416657,
                        "value": 1
                    },
                    {
                        "number": 64,
                        "time": 386.76907330833234,
                        "value": 0
                    },
                    {
                        "number": 64,
                        "time": 386.8723341916657,
                        "value": 1
                    },
                    {
                        "number": 64,
                        "time": 387.391355999999,
                        "value": 0
                    },
                    {
                        "number": 64,
                        "time": 387.53266036666565,
                        "value": 1
                    },
                    {
                        "number": 64,
                        "time": 389.37776930833235,
                        "value": 0
                    },
                    {
                        "number": 64,
                        "time": 389.48918236666566,
                        "value": 1
                    },
                    {
                        "number": 64,
                        "time": 390.02994330833235,
                        "value": 0
                    },
                    {
                        "number": 64,
                        "time": 390.11689984166566,
                        "value": 1
                    },
                    {
                        "number": 64,
                        "time": 390.6821173083323,
                        "value": 0
                    },
                    {
                        "number": 64,
                        "time": 390.78537819166564,
                        "value": 1
                    },
                    {
                        "number": 64,
                        "time": 391.30439999999896,
                        "value": 0
                    },
                    {
                        "number": 64,
                        "time": 391.4457043666656,
                        "value": 1
                    },
                    {
                        "number": 64,
                        "time": 391.9837479166656,
                        "value": 0
                    },
                    {
                        "number": 64,
                        "time": 392.10603054166563,
                        "value": 1
                    },
                    {
                        "number": 64,
                        "time": 392.6359219166656,
                        "value": 0
                    },
                    {
                        "number": 64,
                        "time": 392.7255958416656,
                        "value": 1
                    },
                    {
                        "number": 64,
                        "time": 393.29081330833225,
                        "value": 0
                    },
                    {
                        "number": 64,
                        "time": 393.40222636666556,
                        "value": 1
                    },
                    {
                        "number": 64,
                        "time": 393.94298730833225,
                        "value": 0
                    },
                    {
                        "number": 64,
                        "time": 394.02994384166556,
                        "value": 1
                    },
                    {
                        "number": 64,
                        "time": 394.5951613083322,
                        "value": 0
                    },
                    {
                        "number": 64,
                        "time": 394.69842219166554,
                        "value": 1
                    },
                    {
                        "number": 64,
                        "time": 395.21744399999886,
                        "value": 0
                    },
                    {
                        "number": 64,
                        "time": 395.3587483666655,
                        "value": 1
                    },
                    {
                        "number": 64,
                        "time": 395.8967919166655,
                        "value": 0
                    },
                    {
                        "number": 64,
                        "time": 396.01907454166553,
                        "value": 1
                    },
                    {
                        "number": 64,
                        "time": 397.2038573083322,
                        "value": 0
                    },
                    {
                        "number": 64,
                        "time": 397.3152703666655,
                        "value": 1
                    },
                    {
                        "number": 64,
                        "time": 400.4620099166655,
                        "value": 0
                    },
                    {
                        "number": 64,
                        "time": 400.5516838416655,
                        "value": 1
                    },
                    {
                        "number": 64,
                        "time": 401.76907530833216,
                        "value": 0
                    },
                    {
                        "number": 64,
                        "time": 401.85603184166547,
                        "value": 1
                    },
                    {
                        "number": 64,
                        "time": 402.4212493083321,
                        "value": 0
                    },
                    {
                        "number": 64,
                        "time": 402.52451019166546,
                        "value": 1
                    },
                    {
                        "number": 64,
                        "time": 403.0435319999988,
                        "value": 0
                    },
                    {
                        "number": 64,
                        "time": 409.1304893333321,
                        "value": 1
                    },
                    {
                        "number": 64,
                        "time": 410.86961999999875,
                        "value": 0
                    },
                    {
                        "number": 64,
                        "time": 417.54625132499876,
                        "value": 1
                    },
                    {
                        "number": 64,
                        "time": 418.0734253083321,
                        "value": 0
                    },
                    {
                        "number": 64,
                        "time": 418.2772296833321,
                        "value": 1
                    },
                    {
                        "number": 64,
                        "time": 418.6957079999988,
                        "value": 0
                    },
                    {
                        "number": 64,
                        "time": 418.85059932499877,
                        "value": 1
                    },
                    {
                        "number": 64,
                        "time": 420.6794039166654,
                        "value": 0
                    },
                    {
                        "number": 64,
                        "time": 420.88592568333206,
                        "value": 1
                    },
                    {
                        "number": 64,
                        "time": 422.60875199999873,
                        "value": 0
                    },
                    {
                        "number": 64,
                        "time": 422.7419041916654,
                        "value": 1
                    },
                    {
                        "number": 64,
                        "time": 423.94570869999876,
                        "value": 0
                    },
                    {
                        "number": 64,
                        "time": 424.6440783583321,
                        "value": 1
                    },
                    {
                        "number": 64,
                        "time": 425.2473393083321,
                        "value": 0
                    },
                    {
                        "number": 64,
                        "time": 425.3587523666654,
                        "value": 1
                    },
                    {
                        "number": 64,
                        "time": 426.52179599999874,
                        "value": 0
                    },
                    {
                        "number": 64,
                        "time": 426.7853829916654,
                        "value": 1
                    },
                    {
                        "number": 64,
                        "time": 428.5082093083321,
                        "value": 0
                    },
                    {
                        "number": 64,
                        "time": 428.7745136916654,
                        "value": 1
                    },
                    {
                        "number": 64,
                        "time": 429.8152746999987,
                        "value": 0
                    },
                    {
                        "number": 64,
                        "time": 429.9864703749987,
                        "value": 1
                    },
                    {
                        "number": 64,
                        "time": 430.4348399999987,
                        "value": 0
                    },
                    {
                        "number": 64,
                        "time": 430.66853568333204,
                        "value": 1
                    },
                    {
                        "number": 64,
                        "time": 431.11962269999873,
                        "value": 0
                    },
                    {
                        "number": 64,
                        "time": 431.2908183749987,
                        "value": 1
                    },
                    {
                        "number": 64,
                        "time": 432.42397069999873,
                        "value": 0
                    },
                    {
                        "number": 64,
                        "time": 432.6712533416654,
                        "value": 1
                    },
                    {
                        "number": 64,
                        "time": 433.0707099166654,
                        "value": 0
                    },
                    {
                        "number": 64,
                        "time": 433.27723168333205,
                        "value": 1
                    },
                    {
                        "number": 64,
                        "time": 434.3478839999987,
                        "value": 0
                    },
                    {
                        "number": 64,
                        "time": 434.59788403333204,
                        "value": 1
                    },
                    {
                        "number": 64,
                        "time": 435.02994930833205,
                        "value": 0
                    },
                    {
                        "number": 64,
                        "time": 435.23375368333205,
                        "value": 1
                    },
                    {
                        "number": 64,
                        "time": 436.3397320916654,
                        "value": 0
                    },
                    {
                        "number": 64,
                        "time": 436.53810168333206,
                        "value": 1
                    },
                    {
                        "number": 64,
                        "time": 438.2609279999987,
                        "value": 0
                    },
                    {
                        "number": 64,
                        "time": 438.9891889666654,
                        "value": 1
                    },
                    {
                        "number": 64,
                        "time": 442.1821241749987,
                        "value": 0
                    },
                    {
                        "number": 64,
                        "time": 442.5190807416654,
                        "value": 1
                    },
                    {
                        "number": 64,
                        "time": 446.0870159999987,
                        "value": 0
                    },
                    {
                        "number": 64,
                        "time": 446.2500594999987,
                        "value": 1
                    },
                    {
                        "number": 64,
                        "time": 450.07071218333203,
                        "value": 0
                    },
                    {
                        "number": 64,
                        "time": 450.09516870833204,
                        "value": 1
                    },
                    {
                        "number": 64,
                        "time": 450.66582095833206,
                        "value": 0
                    },
                    {
                        "number": 64,
                        "time": 450.75277749166537,
                        "value": 1
                    },
                    {
                        "number": 64,
                        "time": 451.9728863499987,
                        "value": 0
                    },
                    {
                        "number": 64,
                        "time": 452.1196254999987,
                        "value": 1
                    },
                    {
                        "number": 64,
                        "time": 453.28266913333204,
                        "value": 0
                    },
                    {
                        "number": 64,
                        "time": 453.3614734916654,
                        "value": 1
                    },
                    {
                        "number": 64,
                        "time": 453.9131039999987,
                        "value": 0
                    },
                    {
                        "number": 64,
                        "time": 454.11690837499873,
                        "value": 1
                    },
                    {
                        "number": 64,
                        "time": 455.8967999166654,
                        "value": 0
                    },
                    {
                        "number": 64,
                        "time": 456.11962603333205,
                        "value": 1
                    },
                    {
                        "number": 64,
                        "time": 457.82614799999874,
                        "value": 0
                    },
                    {
                        "number": 64,
                        "time": 457.9321262749987,
                        "value": 1
                    },
                    {
                        "number": 64,
                        "time": 459.1468003499987,
                        "value": 0
                    },
                    {
                        "number": 64,
                        "time": 459.2228873166654,
                        "value": 1
                    },
                    {
                        "number": 64,
                        "time": 460.47017009166535,
                        "value": 0
                    },
                    {
                        "number": 64,
                        "time": 460.554409233332,
                        "value": 1
                    },
                    {
                        "number": 64,
                        "time": 461.7473441749987,
                        "value": 0
                    },
                    {
                        "number": 64,
                        "time": 461.8478876666654,
                        "value": 1
                    },
                    {
                        "number": 64,
                        "time": 463.72560530833204,
                        "value": 0
                    },
                    {
                        "number": 64,
                        "time": 463.84517054166537,
                        "value": 1
                    },
                    {
                        "number": 64,
                        "time": 465.03538809166537,
                        "value": 0
                    },
                    {
                        "number": 64,
                        "time": 465.14136636666535,
                        "value": 1
                    },
                    {
                        "number": 64,
                        "time": 465.6522359999987,
                        "value": 0
                    },
                    {
                        "number": 64,
                        "time": 465.8560403749987,
                        "value": 1
                    },
                    {
                        "number": 64,
                        "time": 467.6250623499987,
                        "value": 0
                    },
                    {
                        "number": 64,
                        "time": 467.92397543333203,
                        "value": 1
                    },
                    {
                        "number": 64,
                        "time": 469.5652799999987,
                        "value": 0
                    },
                    {
                        "number": 64,
                        "time": 469.6902800166654,
                        "value": 1
                    },
                    {
                        "number": 64,
                        "time": 471.5408237416654,
                        "value": 0
                    },
                    {
                        "number": 64,
                        "time": 471.6386498416654,
                        "value": 1
                    },
                    {
                        "number": 64,
                        "time": 473.47832399999874,
                        "value": 0
                    },
                    {
                        "number": 64,
                        "time": 473.68212837499874,
                        "value": 1
                    },
                    {
                        "number": 64,
                        "time": 474.80441113333205,
                        "value": 0
                    },
                    {
                        "number": 64,
                        "time": 474.97560680833203,
                        "value": 1
                    },
                    {
                        "number": 64,
                        "time": 475.45658513333206,
                        "value": 0
                    },
                    {
                        "number": 64,
                        "time": 475.60332428333203,
                        "value": 1
                    },
                    {
                        "number": 64,
                        "time": 476.77452009166535,
                        "value": 0
                    },
                    {
                        "number": 64,
                        "time": 476.95386794166535,
                        "value": 1
                    },
                    {
                        "number": 64,
                        "time": 477.47017235833204,
                        "value": 0
                    },
                    {
                        "number": 64,
                        "time": 477.60875933333205,
                        "value": 1
                    },
                    {
                        "number": 64,
                        "time": 479.3804986999987,
                        "value": 0
                    },
                    {
                        "number": 64,
                        "time": 479.6440856916654,
                        "value": 1
                    },
                    {
                        "number": 64,
                        "time": 480.6739771333321,
                        "value": 0
                    },
                    {
                        "number": 64,
                        "time": 480.9022380333321,
                        "value": 1
                    },
                    {
                        "number": 64,
                        "time": 481.30441199999876,
                        "value": 0
                    },
                    {
                        "number": 64,
                        "time": 481.56799899166543,
                        "value": 1
                    },
                    {
                        "number": 64,
                        "time": 481.9919120916654,
                        "value": 0
                    },
                    {
                        "number": 64,
                        "time": 482.1902816833321,
                        "value": 1
                    },
                    {
                        "number": 64,
                        "time": 482.64408609166543,
                        "value": 0
                    },
                    {
                        "number": 64,
                        "time": 482.7962600249988,
                        "value": 1
                    },
                    {
                        "number": 64,
                        "time": 483.29626009166543,
                        "value": 0
                    },
                    {
                        "number": 64,
                        "time": 483.4783253333321,
                        "value": 1
                    },
                    {
                        "number": 64,
                        "time": 483.9457166999988,
                        "value": 0
                    },
                    {
                        "number": 64,
                        "time": 484.1169123749988,
                        "value": 1
                    },
                    {
                        "number": 64,
                        "time": 484.5978906999988,
                        "value": 0
                    },
                    {
                        "number": 64,
                        "time": 484.7826733333321,
                        "value": 1
                    },
                    {
                        "number": 64,
                        "time": 485.2174559999988,
                        "value": 0
                    },
                    {
                        "number": 64,
                        "time": 485.48104299166545,
                        "value": 1
                    },
                    {
                        "number": 64,
                        "time": 485.90495609166544,
                        "value": 0
                    },
                    {
                        "number": 64,
                        "time": 486.1033256833321,
                        "value": 1
                    },
                    {
                        "number": 64,
                        "time": 486.55713009166544,
                        "value": 0
                    },
                    {
                        "number": 64,
                        "time": 486.7093040249988,
                        "value": 1
                    },
                    {
                        "number": 64,
                        "time": 487.20930409166544,
                        "value": 0
                    },
                    {
                        "number": 64,
                        "time": 487.39136933333214,
                        "value": 1
                    },
                    {
                        "number": 64,
                        "time": 487.8587606999988,
                        "value": 0
                    },
                    {
                        "number": 64,
                        "time": 488.0299563749988,
                        "value": 1
                    },
                    {
                        "number": 64,
                        "time": 488.5109346999988,
                        "value": 0
                    },
                    {
                        "number": 64,
                        "time": 488.69571733333214,
                        "value": 1
                    },
                    {
                        "number": 64,
                        "time": 489.1304999999988,
                        "value": 0
                    },
                    {
                        "number": 64,
                        "time": 489.39408699166546,
                        "value": 1
                    },
                    {
                        "number": 64,
                        "time": 489.81800009166545,
                        "value": 0
                    },
                    {
                        "number": 64,
                        "time": 490.01636968333213,
                        "value": 1
                    },
                    {
                        "number": 64,
                        "time": 490.47017409166546,
                        "value": 0
                    },
                    {
                        "number": 64,
                        "time": 490.6223480249988,
                        "value": 1
                    },
                    {
                        "number": 64,
                        "time": 491.12234809166546,
                        "value": 0
                    },
                    {
                        "number": 64,
                        "time": 491.30441333333215,
                        "value": 1
                    },
                    {
                        "number": 64,
                        "time": 491.7718046999988,
                        "value": 0
                    },
                    {
                        "number": 64,
                        "time": 491.9430003749988,
                        "value": 1
                    },
                    {
                        "number": 64,
                        "time": 492.4239786999988,
                        "value": 0
                    },
                    {
                        "number": 64,
                        "time": 492.60876133333215,
                        "value": 1
                    },
                    {
                        "number": 64,
                        "time": 493.0435439999988,
                        "value": 0
                    },
                    {
                        "number": 64,
                        "time": 493.3071309916655,
                        "value": 1
                    },
                    {
                        "number": 64,
                        "time": 493.73104409166547,
                        "value": 0
                    },
                    {
                        "number": 64,
                        "time": 493.92941368333214,
                        "value": 1
                    },
                    {
                        "number": 64,
                        "time": 494.38321809166547,
                        "value": 0
                    },
                    {
                        "number": 64,
                        "time": 494.5353920249988,
                        "value": 1
                    },
                    {
                        "number": 64,
                        "time": 495.03539209166547,
                        "value": 0
                    },
                    {
                        "number": 64,
                        "time": 495.21745733333216,
                        "value": 1
                    },
                    {
                        "number": 64,
                        "time": 495.68484869999884,
                        "value": 0
                    },
                    {
                        "number": 64,
                        "time": 495.8560443749988,
                        "value": 1
                    },
                    {
                        "number": 64,
                        "time": 496.33702269999884,
                        "value": 0
                    },
                    {
                        "number": 64,
                        "time": 496.52180533333217,
                        "value": 1
                    },
                    {
                        "number": 64,
                        "time": 496.9565879999988,
                        "value": 0
                    },
                    {
                        "number": 64,
                        "time": 497.2201749916655,
                        "value": 1
                    },
                    {
                        "number": 64,
                        "time": 497.6440880916655,
                        "value": 0
                    },
                    {
                        "number": 64,
                        "time": 497.84245768333216,
                        "value": 1
                    },
                    {
                        "number": 64,
                        "time": 498.2962620916655,
                        "value": 0
                    },
                    {
                        "number": 64,
                        "time": 498.44843602499884,
                        "value": 1
                    },
                    {
                        "number": 64,
                        "time": 498.9484360916655,
                        "value": 0
                    },
                    {
                        "number": 64,
                        "time": 499.1305013333322,
                        "value": 1
                    },
                    {
                        "number": 64,
                        "time": 499.59789269999885,
                        "value": 0
                    },
                    {
                        "number": 64,
                        "time": 499.76908837499883,
                        "value": 1
                    },
                    {
                        "number": 64,
                        "time": 500.25006669999885,
                        "value": 0
                    },
                    {
                        "number": 64,
                        "time": 500.4348493333322,
                        "value": 1
                    },
                    {
                        "number": 64,
                        "time": 500.86963199999883,
                        "value": 0
                    },
                    {
                        "number": 64,
                        "time": 504.78267599999884,
                        "value": 0
                    },
                    {
                        "number": 64,
                        "time": 504.98376298333216,
                        "value": 1
                    },
                    {
                        "number": 64,
                        "time": 505.45658913333216,
                        "value": 0
                    },
                    {
                        "number": 64,
                        "time": 505.5598500166655,
                        "value": 1
                    },
                    {
                        "number": 64,
                        "time": 506.0978935666655,
                        "value": 0
                    },
                    {
                        "number": 64,
                        "time": 506.25006749999886,
                        "value": 1
                    },
                    {
                        "number": 64,
                        "time": 506.74735017499887,
                        "value": 0
                    },
                    {
                        "number": 64,
                        "time": 506.89408932499884,
                        "value": 1
                    },
                    {
                        "number": 64,
                        "time": 507.4185459166655,
                        "value": 0
                    },
                    {
                        "number": 64,
                        "time": 507.5544154999988,
                        "value": 1
                    },
                    {
                        "number": 64,
                        "time": 508.0680025249988,
                        "value": 0
                    },
                    {
                        "number": 64,
                        "time": 508.2446329833321,
                        "value": 1
                    },
                    {
                        "number": 64,
                        "time": 508.6957199999988,
                        "value": 0
                    },
                    {
                        "number": 64,
                        "time": 508.8968069833321,
                        "value": 1
                    },
                    {
                        "number": 64,
                        "time": 509.3696331333321,
                        "value": 0
                    },
                    {
                        "number": 64,
                        "time": 509.47289401666546,
                        "value": 1
                    },
                    {
                        "number": 64,
                        "time": 510.01093756666546,
                        "value": 0
                    },
                    {
                        "number": 64,
                        "time": 510.1631114999988,
                        "value": 1
                    },
                    {
                        "number": 64,
                        "time": 510.6603941749988,
                        "value": 0
                    },
                    {
                        "number": 64,
                        "time": 510.8071333249988,
                        "value": 1
                    },
                    {
                        "number": 64,
                        "time": 511.33158991666545,
                        "value": 0
                    },
                    {
                        "number": 64,
                        "time": 511.46745949999877,
                        "value": 1
                    },
                    {
                        "number": 64,
                        "time": 511.98104652499876,
                        "value": 0
                    },
                    {
                        "number": 64,
                        "time": 512.1576769833321,
                        "value": 1
                    },
                    {
                        "number": 64,
                        "time": 512.6087639999987,
                        "value": 0
                    },
                    {
                        "number": 64,
                        "time": 512.809850983332,
                        "value": 1
                    },
                    {
                        "number": 64,
                        "time": 513.282677133332,
                        "value": 0
                    },
                    {
                        "number": 64,
                        "time": 513.3859380166652,
                        "value": 1
                    },
                    {
                        "number": 64,
                        "time": 513.9239815666652,
                        "value": 0
                    },
                    {
                        "number": 64,
                        "time": 514.0761554999985,
                        "value": 1
                    },
                    {
                        "number": 64,
                        "time": 514.5734381749985,
                        "value": 0
                    },
                    {
                        "number": 64,
                        "time": 514.7201773249985,
                        "value": 1
                    },
                    {
                        "number": 64,
                        "time": 515.2446339166652,
                        "value": 0
                    },
                    {
                        "number": 64,
                        "time": 515.3805034999986,
                        "value": 1
                    },
                    {
                        "number": 64,
                        "time": 515.8940905249985,
                        "value": 0
                    },
                    {
                        "number": 64,
                        "time": 516.0707209833319,
                        "value": 1
                    },
                    {
                        "number": 64,
                        "time": 516.5218079999985,
                        "value": 0
                    },
                    {
                        "number": 64,
                        "time": 516.7228949833318,
                        "value": 1
                    },
                    {
                        "number": 64,
                        "time": 517.1957211333317,
                        "value": 0
                    },
                    {
                        "number": 64,
                        "time": 517.298982016665,
                        "value": 1
                    },
                    {
                        "number": 64,
                        "time": 517.837025566665,
                        "value": 0
                    },
                    {
                        "number": 64,
                        "time": 517.9891994999983,
                        "value": 1
                    },
                    {
                        "number": 64,
                        "time": 518.4864821749983,
                        "value": 0
                    },
                    {
                        "number": 64,
                        "time": 518.6332213249983,
                        "value": 1
                    },
                    {
                        "number": 64,
                        "time": 519.157677916665,
                        "value": 0
                    },
                    {
                        "number": 64,
                        "time": 519.2935474999983,
                        "value": 1
                    },
                    {
                        "number": 64,
                        "time": 519.8071345249983,
                        "value": 0
                    },
                    {
                        "number": 64,
                        "time": 519.9837649833316,
                        "value": 1
                    },
                    {
                        "number": 64,
                        "time": 520.4348519999983,
                        "value": 0
                    },
                    {
                        "number": 64,
                        "time": 520.6359389833316,
                        "value": 1
                    },
                    {
                        "number": 64,
                        "time": 521.1087651333315,
                        "value": 0
                    },
                    {
                        "number": 64,
                        "time": 521.2120260166648,
                        "value": 1
                    },
                    {
                        "number": 64,
                        "time": 521.7500695666648,
                        "value": 0
                    },
                    {
                        "number": 64,
                        "time": 521.9022434999981,
                        "value": 1
                    },
                    {
                        "number": 64,
                        "time": 522.3995261749981,
                        "value": 0
                    },
                    {
                        "number": 64,
                        "time": 522.5462653249981,
                        "value": 1
                    },
                    {
                        "number": 64,
                        "time": 523.0707219166648,
                        "value": 0
                    },
                    {
                        "number": 64,
                        "time": 523.2065914999981,
                        "value": 1
                    },
                    {
                        "number": 64,
                        "time": 523.7201785249981,
                        "value": 0
                    },
                    {
                        "number": 64,
                        "time": 523.8968089833314,
                        "value": 1
                    },
                    {
                        "number": 64,
                        "time": 524.3478959999981,
                        "value": 0
                    },
                    {
                        "number": 64,
                        "time": 524.5489829833314,
                        "value": 1
                    },
                    {
                        "number": 64,
                        "time": 525.0218091333313,
                        "value": 0
                    },
                    {
                        "number": 64,
                        "time": 525.1250700166646,
                        "value": 1
                    },
                    {
                        "number": 64,
                        "time": 525.6631135666646,
                        "value": 0
                    },
                    {
                        "number": 64,
                        "time": 525.8152874999979,
                        "value": 1
                    },
                    {
                        "number": 64,
                        "time": 526.3125701749979,
                        "value": 0
                    },
                    {
                        "number": 64,
                        "time": 526.4593093249979,
                        "value": 1
                    },
                    {
                        "number": 64,
                        "time": 526.9837659166645,
                        "value": 0
                    },
                    {
                        "number": 64,
                        "time": 527.1196354999979,
                        "value": 1
                    },
                    {
                        "number": 64,
                        "time": 527.6332225249979,
                        "value": 0
                    },
                    {
                        "number": 64,
                        "time": 527.8098529833312,
                        "value": 1
                    },
                    {
                        "number": 64,
                        "time": 528.2609399999978,
                        "value": 0
                    },
                    {
                        "number": 64,
                        "time": 528.3940921916645,
                        "value": 1
                    },
                    {
                        "number": 64,
                        "time": 528.9348531333312,
                        "value": 0
                    },
                    {
                        "number": 64,
                        "time": 529.0381140166645,
                        "value": 1
                    },
                    {
                        "number": 64,
                        "time": 529.5761575666645,
                        "value": 0
                    },
                    {
                        "number": 64,
                        "time": 529.7283314999978,
                        "value": 1
                    },
                    {
                        "number": 64,
                        "time": 530.2256141749978,
                        "value": 0
                    },
                    {
                        "number": 64,
                        "time": 530.3723533249978,
                        "value": 1
                    },
                    {
                        "number": 64,
                        "time": 530.8968099166644,
                        "value": 0
                    },
                    {
                        "number": 64,
                        "time": 531.0326794999978,
                        "value": 1
                    },
                    {
                        "number": 64,
                        "time": 531.5462665249978,
                        "value": 0
                    },
                    {
                        "number": 64,
                        "time": 531.7228969833311,
                        "value": 1
                    },
                    {
                        "number": 64,
                        "time": 532.1739839999977,
                        "value": 0
                    },
                    {
                        "number": 64,
                        "time": 532.2989840166645,
                        "value": 1
                    },
                    {
                        "number": 64,
                        "time": 532.8478971333311,
                        "value": 0
                    },
                    {
                        "number": 64,
                        "time": 532.9511580166644,
                        "value": 1
                    },
                    {
                        "number": 64,
                        "time": 533.4892015666644,
                        "value": 0
                    },
                    {
                        "number": 64,
                        "time": 533.6413754999977,
                        "value": 1
                    },
                    {
                        "number": 64,
                        "time": 534.1386581749977,
                        "value": 0
                    },
                    {
                        "number": 64,
                        "time": 534.2853973249977,
                        "value": 1
                    },
                    {
                        "number": 64,
                        "time": 534.8098539166643,
                        "value": 0
                    },
                    {
                        "number": 64,
                        "time": 534.9457234999977,
                        "value": 1
                    },
                    {
                        "number": 64,
                        "time": 535.4593105249977,
                        "value": 0
                    },
                    {
                        "number": 64,
                        "time": 535.635940983331,
                        "value": 1
                    },
                    {
                        "number": 64,
                        "time": 536.116919308331,
                        "value": 0
                    },
                    {
                        "number": 64,
                        "time": 536.2283323666644,
                        "value": 1
                    },
                    {
                        "number": 64,
                        "time": 536.7582237416644,
                        "value": 0
                    },
                    {
                        "number": 64,
                        "time": 536.8805063666645,
                        "value": 1
                    },
                    {
                        "number": 64,
                        "time": 537.4022455666644,
                        "value": 0
                    },
                    {
                        "number": 64,
                        "time": 537.5082238416644,
                        "value": 1
                    },
                    {
                        "number": 64,
                        "time": 538.0625717416644,
                        "value": 0
                    },
                    {
                        "number": 64,
                        "time": 538.1767021916644,
                        "value": 1
                    },
                    {
                        "number": 64,
                        "time": 538.7120283499977,
                        "value": 0
                    },
                    {
                        "number": 64,
                        "time": 538.8207240166644,
                        "value": 1
                    },
                    {
                        "number": 64,
                        "time": 539.3669197416643,
                        "value": 0
                    },
                    {
                        "number": 64,
                        "time": 539.4973545416643,
                        "value": 1
                    },
                    {
                        "number": 64,
                        "time": 540.0299633083309,
                        "value": 0
                    },
                    {
                        "number": 64,
                        "time": 540.1413763666643,
                        "value": 1
                    },
                    {
                        "number": 64,
                        "time": 540.6712677416643,
                        "value": 0
                    },
                    {
                        "number": 64,
                        "time": 540.7935503666644,
                        "value": 1
                    },
                    {
                        "number": 64,
                        "time": 541.3152895666643,
                        "value": 0
                    },
                    {
                        "number": 64,
                        "time": 541.4212678416643,
                        "value": 1
                    },
                    {
                        "number": 64,
                        "time": 541.9756157416643,
                        "value": 0
                    },
                    {
                        "number": 64,
                        "time": 542.0897461916643,
                        "value": 1
                    },
                    {
                        "number": 64,
                        "time": 542.6250723499976,
                        "value": 0
                    },
                    {
                        "number": 64,
                        "time": 542.7337680166643,
                        "value": 1
                    },
                    {
                        "number": 64,
                        "time": 543.2799637416642,
                        "value": 0
                    },
                    {
                        "number": 64,
                        "time": 543.4103985416642,
                        "value": 1
                    },
                    {
                        "number": 64,
                        "time": 543.9430073083308,
                        "value": 0
                    },
                    {
                        "number": 64,
                        "time": 544.0544203666642,
                        "value": 1
                    },
                    {
                        "number": 64,
                        "time": 544.5843117416642,
                        "value": 0
                    },
                    {
                        "number": 64,
                        "time": 544.7065943666643,
                        "value": 1
                    },
                    {
                        "number": 64,
                        "time": 545.2283335666642,
                        "value": 0
                    },
                    {
                        "number": 64,
                        "time": 545.3343118416642,
                        "value": 1
                    },
                    {
                        "number": 64,
                        "time": 545.8886597416642,
                        "value": 0
                    },
                    {
                        "number": 64,
                        "time": 546.0027901916642,
                        "value": 1
                    },
                    {
                        "number": 64,
                        "time": 546.5381163499975,
                        "value": 0
                    },
                    {
                        "number": 64,
                        "time": 546.6468120166642,
                        "value": 1
                    },
                    {
                        "number": 64,
                        "time": 547.1930077416641,
                        "value": 0
                    },
                    {
                        "number": 64,
                        "time": 547.3234425416641,
                        "value": 1
                    },
                    {
                        "number": 64,
                        "time": 547.8451817416641,
                        "value": 0
                    },
                    {
                        "number": 64,
                        "time": 547.959312191664,
                        "value": 1
                    },
                    {
                        "number": 64,
                        "time": 548.4946383499973,
                        "value": 0
                    },
                    {
                        "number": 64,
                        "time": 548.603334016664,
                        "value": 1
                    },
                    {
                        "number": 64,
                        "time": 549.149529741664,
                        "value": 0
                    },
                    {
                        "number": 64,
                        "time": 549.279964541664,
                        "value": 1
                    },
                    {
                        "number": 64,
                        "time": 549.7962689583306,
                        "value": 0
                    },
                    {
                        "number": 64,
                        "time": 549.891377666664,
                        "value": 1
                    },
                    {
                        "number": 64,
                        "time": 550.4565951333307,
                        "value": 0
                    },
                    {
                        "number": 64,
                        "time": 550.535399491664,
                        "value": 1
                    },
                    {
                        "number": 64,
                        "time": 551.1060517416639,
                        "value": 0
                    },
                    {
                        "number": 64,
                        "time": 551.1875734916639,
                        "value": 1
                    },
                    {
                        "number": 64,
                        "time": 551.7473561749972,
                        "value": 0
                    },
                    {
                        "number": 64,
                        "time": 552.1033344833305,
                        "value": 1
                    },
                    {
                        "number": 64,
                        "time": 553.7337694833305,
                        "value": 0
                    },
                    {
                        "number": 64,
                        "time": 554.1685521499973,
                        "value": 1
                    },
                    {
                        "number": 64,
                        "time": 555.7256175749973,
                        "value": 0
                    },
                    {
                        "number": 64,
                        "time": 555.8152914999973,
                        "value": 1
                    },
                    {
                        "number": 64,
                        "time": 556.9946394833306,
                        "value": 0
                    },
                    {
                        "number": 64,
                        "time": 557.130509066664,
                        "value": 1
                    },
                    {
                        "number": 64,
                        "time": 557.6332265249973,
                        "value": 0
                    },
                    {
                        "number": 64,
                        "time": 557.8098569833306,
                        "value": 1
                    },
                    {
                        "number": 64,
                        "time": 558.2772483499973,
                        "value": 0
                    },
                    {
                        "number": 64,
                        "time": 558.3968135833306,
                        "value": 1
                    },
                    {
                        "number": 64,
                        "time": 558.9267049583307,
                        "value": 0
                    },
                    {
                        "number": 64,
                        "time": 559.2392049999974,
                        "value": 1
                    },
                    {
                        "number": 64,
                        "time": 559.5652919999974,
                        "value": 0
                    },
                    {
                        "number": 64,
                        "time": 559.6604007083307,
                        "value": 1
                    },
                    {
                        "number": 64,
                        "time": 560.8995313083307,
                        "value": 0
                    },
                    {
                        "number": 64,
                        "time": 560.986487841664,
                        "value": 1
                    },
                    {
                        "number": 64,
                        "time": 561.2093139583307,
                        "value": 0
                    },
                    {
                        "number": 64,
                        "time": 561.2745313583307,
                        "value": 1
                    },
                    {
                        "number": 64,
                        "time": 561.5381183499974,
                        "value": 0
                    },
                    {
                        "number": 64,
                        "time": 561.6712705416641,
                        "value": 1
                    },
                    {
                        "number": 64,
                        "time": 562.9892054999974,
                        "value": 0
                    },
                    {
                        "number": 64,
                        "time": 563.5408360083308,
                        "value": 1
                    },
                    {
                        "number": 64,
                        "time": 564.7989883499974,
                        "value": 0
                    },
                    {
                        "number": 64,
                        "time": 564.8614883583308,
                        "value": 1
                    },
                    {
                        "number": 64,
                        "time": 565.1223579583308,
                        "value": 0
                    },
                    {
                        "number": 64,
                        "time": 565.2093144916641,
                        "value": 1
                    },
                    {
                        "number": 64,
                        "time": 565.4538797416642,
                        "value": 0
                    },
                    {
                        "number": 64,
                        "time": 565.7147493416642,
                        "value": 1
                    },
                    {
                        "number": 64,
                        "time": 567.0734451749975,
                        "value": 0
                    },
                    {
                        "number": 64,
                        "time": 567.6087713333308,
                        "value": 1
                    },
                    {
                        "number": 64,
                        "time": 573.2962720916642,
                        "value": 0
                    },
                    {
                        "number": 64,
                        "time": 575.4729028166641,
                        "value": 1
                    },
                    {
                        "number": 64,
                        "time": 580.4674686999974,
                        "value": 0
                    },
                    {
                        "number": 64,
                        "time": 581.7392079999975,
                        "value": 1
                    },
                    {
                        "number": 64,
                        "time": 582.4267080916642,
                        "value": 0
                    },
                    {
                        "number": 64,
                        "time": 583.2989908166642,
                        "value": 1
                    },
                    {
                        "number": 64,
                        "time": 586.9946434833308,
                        "value": 0
                    },
                    {
                        "number": 64,
                        "time": 587.1685565499974,
                        "value": 1
                    },
                    {
                        "number": 64,
                        "time": 588.9892089666641,
                        "value": 0
                    },
                    {
                        "number": 64,
                        "time": 589.2392089999975,
                        "value": 1
                    },
                    {
                        "number": 64,
                        "time": 589.5979046999975,
                        "value": 0
                    },
                    {
                        "number": 64,
                        "time": 589.7962742916641,
                        "value": 1
                    },
                    {
                        "number": 64,
                        "time": 590.2500786999974,
                        "value": 0
                    },
                    {
                        "number": 64,
                        "time": 590.448448291664,
                        "value": 1
                    },
                    {
                        "number": 64,
                        "time": 590.8696439999974,
                        "value": 0
                    },
                    {
                        "number": 64,
                        "time": 591.5218179999973,
                        "value": 1
                    },
                    {
                        "number": 64,
                        "time": 596.0870359999973,
                        "value": 0
                    },
                    {
                        "number": 64,
                        "time": 596.2283403666639,
                        "value": 1
                    },
                    {
                        "number": 64,
                        "time": 597.7392101333306,
                        "value": 0
                    },
                    {
                        "number": 64,
                        "time": 597.834318841664,
                        "value": 1
                    },
                    {
                        "number": 64,
                        "time": 598.0816014833306,
                        "value": 0
                    },
                    {
                        "number": 64,
                        "time": 598.1522536666639,
                        "value": 1
                    },
                    {
                        "number": 64,
                        "time": 598.6957319999973,
                        "value": 0
                    },
                    {
                        "number": 64,
                        "time": 599.008232041664,
                        "value": 1
                    },
                    {
                        "number": 64,
                        "time": 600.6848626999973,
                        "value": 0
                    },
                    {
                        "number": 64,
                        "time": 601.119645366664,
                        "value": 1
                    },
                    {
                        "number": 64,
                        "time": 601.9892106999973,
                        "value": 0
                    },
                    {
                        "number": 64,
                        "time": 602.3288846583307,
                        "value": 1
                    },
                    {
                        "number": 64,
                        "time": 602.6821455749973,
                        "value": 0
                    },
                    {
                        "number": 64,
                        "time": 602.8587760333306,
                        "value": 1
                    },
                    {
                        "number": 64,
                        "time": 604.021819666664,
                        "value": 0
                    },
                    {
                        "number": 64,
                        "time": 605.2962763583306,
                        "value": 1
                    },
                    {
                        "number": 64,
                        "time": 606.5299721749973,
                        "value": 0
                    },
                    {
                        "number": 64,
                        "time": 606.9267113583306,
                        "value": 1
                    },
                    {
                        "number": 64,
                        "time": 608.3859506833306,
                        "value": 0
                    },
                    {
                        "number": 64,
                        "time": 608.6957333333306,
                        "value": 1
                    },
                    {
                        "number": 64,
                        "time": 609.7908421749972,
                        "value": 0
                    },
                    {
                        "number": 64,
                        "time": 610.0326900333306,
                        "value": 1
                    },
                    {
                        "number": 64,
                        "time": 610.4729074833306,
                        "value": 0
                    },
                    {
                        "number": 64,
                        "time": 610.7799727416639,
                        "value": 1
                    },
                    {
                        "number": 64,
                        "time": 612.4049729583305,
                        "value": 0
                    },
                    {
                        "number": 64,
                        "time": 612.6033425499971,
                        "value": 1
                    },
                    {
                        "number": 64,
                        "time": 613.0761686999971,
                        "value": 0
                    },
                    {
                        "number": 64,
                        "time": 613.2555165499971,
                        "value": 1
                    },
                    {
                        "number": 64,
                        "time": 613.7038861749971,
                        "value": 0
                    },
                    {
                        "number": 64,
                        "time": 613.8886688083305,
                        "value": 1
                    },
                    {
                        "number": 64,
                        "time": 614.3479079999972,
                        "value": 0
                    },
                    {
                        "number": 64,
                        "time": 614.5489949833305,
                        "value": 1
                    },
                    {
                        "number": 64,
                        "time": 615.0218211333305,
                        "value": 0
                    },
                    {
                        "number": 64,
                        "time": 615.1250820166638,
                        "value": 1
                    },
                    {
                        "number": 64,
                        "time": 615.6631255666638,
                        "value": 0
                    },
                    {
                        "number": 64,
                        "time": 615.8152994999971,
                        "value": 1
                    },
                    {
                        "number": 64,
                        "time": 616.312582174997,
                        "value": 0
                    },
                    {
                        "number": 64,
                        "time": 616.4593213249971,
                        "value": 1
                    },
                    {
                        "number": 64,
                        "time": 616.9837779166637,
                        "value": 0
                    },
                    {
                        "number": 64,
                        "time": 617.1196474999971,
                        "value": 1
                    },
                    {
                        "number": 64,
                        "time": 617.6332345249971,
                        "value": 0
                    },
                    {
                        "number": 64,
                        "time": 617.8098649833304,
                        "value": 1
                    },
                    {
                        "number": 64,
                        "time": 618.260951999997,
                        "value": 0
                    },
                    {
                        "number": 64,
                        "time": 618.4620389833303,
                        "value": 1
                    },
                    {
                        "number": 64,
                        "time": 618.9348651333303,
                        "value": 0
                    },
                    {
                        "number": 64,
                        "time": 619.0381260166636,
                        "value": 1
                    },
                    {
                        "number": 64,
                        "time": 619.5761695666636,
                        "value": 0
                    },
                    {
                        "number": 64,
                        "time": 619.7283434999969,
                        "value": 1
                    },
                    {
                        "number": 64,
                        "time": 620.2256261749968,
                        "value": 0
                    },
                    {
                        "number": 64,
                        "time": 620.3723653249968,
                        "value": 1
                    },
                    {
                        "number": 64,
                        "time": 620.8968219166635,
                        "value": 0
                    },
                    {
                        "number": 64,
                        "time": 621.0326914999969,
                        "value": 1
                    },
                    {
                        "number": 64,
                        "time": 621.5462785249969,
                        "value": 0
                    },
                    {
                        "number": 64,
                        "time": 621.7229089833302,
                        "value": 1
                    },
                    {
                        "number": 64,
                        "time": 622.1739959999968,
                        "value": 0
                    },
                    {
                        "number": 64,
                        "time": 622.3071481916635,
                        "value": 1
                    },
                    {
                        "number": 64,
                        "time": 622.8479091333302,
                        "value": 0
                    },
                    {
                        "number": 64,
                        "time": 622.9511700166635,
                        "value": 1
                    },
                    {
                        "number": 64,
                        "time": 623.4892135666635,
                        "value": 0
                    },
                    {
                        "number": 64,
                        "time": 623.6413874999968,
                        "value": 1
                    },
                    {
                        "number": 64,
                        "time": 624.1386701749967,
                        "value": 0
                    },
                    {
                        "number": 64,
                        "time": 624.2854093249967,
                        "value": 1
                    },
                    {
                        "number": 64,
                        "time": 624.8098659166634,
                        "value": 0
                    },
                    {
                        "number": 64,
                        "time": 624.9457354999968,
                        "value": 1
                    },
                    {
                        "number": 64,
                        "time": 625.4593225249968,
                        "value": 0
                    },
                    {
                        "number": 64,
                        "time": 625.6359529833301,
                        "value": 1
                    },
                    {
                        "number": 64,
                        "time": 626.0870399999967,
                        "value": 0
                    },
                    {
                        "number": 64,
                        "time": 626.2120400166634,
                        "value": 1
                    },
                    {
                        "number": 64,
                        "time": 626.7609531333301,
                        "value": 0
                    },
                    {
                        "number": 64,
                        "time": 626.8642140166634,
                        "value": 1
                    },
                    {
                        "number": 64,
                        "time": 627.4022575666634,
                        "value": 0
                    },
                    {
                        "number": 64,
                        "time": 627.5544314999967,
                        "value": 1
                    },
                    {
                        "number": 64,
                        "time": 628.0517141749966,
                        "value": 0
                    },
                    {
                        "number": 64,
                        "time": 628.1984533249966,
                        "value": 1
                    },
                    {
                        "number": 64,
                        "time": 628.7229099166633,
                        "value": 0
                    },
                    {
                        "number": 64,
                        "time": 628.8587794999967,
                        "value": 1
                    },
                    {
                        "number": 64,
                        "time": 629.3723665249967,
                        "value": 0
                    },
                    {
                        "number": 64,
                        "time": 629.54899698333,
                        "value": 1
                    },
                    {
                        "number": 64,
                        "time": 630.0000839999966,
                        "value": 0
                    },
                    {
                        "number": 64,
                        "time": 630.1250840166633,
                        "value": 1
                    },
                    {
                        "number": 64,
                        "time": 630.67399713333,
                        "value": 0
                    },
                    {
                        "number": 64,
                        "time": 630.7772580166633,
                        "value": 1
                    },
                    {
                        "number": 64,
                        "time": 631.3153015666633,
                        "value": 0
                    },
                    {
                        "number": 64,
                        "time": 631.4674754999966,
                        "value": 1
                    },
                    {
                        "number": 64,
                        "time": 631.9647581749965,
                        "value": 0
                    },
                    {
                        "number": 64,
                        "time": 632.1114973249965,
                        "value": 1
                    },
                    {
                        "number": 64,
                        "time": 632.6359539166632,
                        "value": 0
                    },
                    {
                        "number": 64,
                        "time": 632.7718234999966,
                        "value": 1
                    },
                    {
                        "number": 64,
                        "time": 633.2854105249966,
                        "value": 0
                    },
                    {
                        "number": 64,
                        "time": 633.4620409833299,
                        "value": 1
                    },
                    {
                        "number": 64,
                        "time": 633.9131279999965,
                        "value": 0
                    },
                    {
                        "number": 64,
                        "time": 634.0381280166632,
                        "value": 1
                    },
                    {
                        "number": 64,
                        "time": 634.5870411333299,
                        "value": 0
                    },
                    {
                        "number": 64,
                        "time": 634.6903020166632,
                        "value": 1
                    },
                    {
                        "number": 64,
                        "time": 635.2283455666632,
                        "value": 0
                    },
                    {
                        "number": 64,
                        "time": 635.3805194999965,
                        "value": 1
                    },
                    {
                        "number": 64,
                        "time": 635.8778021749964,
                        "value": 0
                    },
                    {
                        "number": 64,
                        "time": 636.0245413249964,
                        "value": 1
                    },
                    {
                        "number": 64,
                        "time": 636.5489979166631,
                        "value": 0
                    },
                    {
                        "number": 64,
                        "time": 636.6848674999965,
                        "value": 1
                    },
                    {
                        "number": 64,
                        "time": 637.1984545249965,
                        "value": 0
                    },
                    {
                        "number": 64,
                        "time": 637.3750849833298,
                        "value": 1
                    },
                    {
                        "number": 64,
                        "time": 637.8261719999964,
                        "value": 0
                    },
                    {
                        "number": 64,
                        "time": 637.9511720166631,
                        "value": 1
                    },
                    {
                        "number": 64,
                        "time": 638.5000851333298,
                        "value": 0
                    },
                    {
                        "number": 64,
                        "time": 638.6033460166631,
                        "value": 1
                    },
                    {
                        "number": 64,
                        "time": 639.1413895666631,
                        "value": 0
                    },
                    {
                        "number": 64,
                        "time": 639.2935634999964,
                        "value": 1
                    },
                    {
                        "number": 64,
                        "time": 639.7908461749963,
                        "value": 0
                    },
                    {
                        "number": 64,
                        "time": 639.9375853249963,
                        "value": 1
                    },
                    {
                        "number": 64,
                        "time": 640.462041916663,
                        "value": 0
                    },
                    {
                        "number": 64,
                        "time": 640.5979114999964,
                        "value": 1
                    },
                    {
                        "number": 64,
                        "time": 641.1114985249964,
                        "value": 0
                    },
                    {
                        "number": 64,
                        "time": 641.2881289833297,
                        "value": 1
                    },
                    {
                        "number": 64,
                        "time": 645.6522599999963,
                        "value": 0
                    },
                    {
                        "number": 64,
                        "time": 645.6522599999963,
                        "value": 0
                    },
                    {
                        "number": 64,
                        "time": 645.9457382999963,
                        "value": 1
                    },
                    {
                        "number": 64,
                        "time": 647.4511732833296,
                        "value": 0
                    },
                    {
                        "number": 64,
                        "time": 647.6984559249962,
                        "value": 1
                    },
                    {
                        "number": 64,
                        "time": 648.7799778083296,
                        "value": 0
                    },
                    {
                        "number": 64,
                        "time": 649.070738716663,
                        "value": 1
                    },
                    {
                        "number": 64,
                        "time": 649.5816083499963,
                        "value": 0
                    },
                    {
                        "number": 64,
                        "time": 650.0734562416629,
                        "value": 1
                    },
                    {
                        "number": 64,
                        "time": 650.9022606999963,
                        "value": 0
                    },
                    {
                        "number": 64,
                        "time": 651.2120433499963,
                        "value": 1
                    },
                    {
                        "number": 64,
                        "time": 651.5544346999962,
                        "value": 0
                    },
                    {
                        "number": 64,
                        "time": 652.0653043333295,
                        "value": 1
                    },
                    {
                        "number": 64,
                        "time": 653.4783479999962,
                        "value": 0
                    },
                    {
                        "number": 64,
                        "time": 653.8397610916629,
                        "value": 1
                    },
                    {
                        "number": 64,
                        "time": 654.8153046999962,
                        "value": 0
                    },
                    {
                        "number": 64,
                        "time": 655.0544351666629,
                        "value": 1
                    },
                    {
                        "number": 64,
                        "time": 655.4729134833295,
                        "value": 0
                    },
                    {
                        "number": 64,
                        "time": 655.7066091666628,
                        "value": 1
                    },
                    {
                        "number": 64,
                        "time": 656.1196526999961,
                        "value": 0
                    },
                    {
                        "number": 64,
                        "time": 656.3343266416628,
                        "value": 1
                    },
                    {
                        "number": 64,
                        "time": 656.771826699996,
                        "value": 0
                    },
                    {
                        "number": 64,
                        "time": 656.9430223749961,
                        "value": 1
                    },
                    {
                        "number": 64,
                        "time": 657.3913919999961,
                        "value": 0
                    },
                    {
                        "number": 64,
                        "time": 657.7528050916628,
                        "value": 1
                    },
                    {
                        "number": 64,
                        "time": 658.7283486999961,
                        "value": 0
                    },
                    {
                        "number": 64,
                        "time": 658.9674791666628,
                        "value": 1
                    },
                    {
                        "number": 64,
                        "time": 659.3859574833294,
                        "value": 0
                    },
                    {
                        "number": 64,
                        "time": 659.6196531666627,
                        "value": 1
                    },
                    {
                        "number": 64,
                        "time": 660.032696699996,
                        "value": 0
                    },
                    {
                        "number": 64,
                        "time": 660.2473706416627,
                        "value": 1
                    },
                    {
                        "number": 64,
                        "time": 660.6848706999959,
                        "value": 0
                    },
                    {
                        "number": 64,
                        "time": 660.856066374996,
                        "value": 1
                    },
                    {
                        "number": 64,
                        "time": 661.1712838083293,
                        "value": 0
                    },
                    {
                        "number": 64,
                        "time": 661.2500881666626,
                        "value": 1
                    },
                    {
                        "number": 64,
                        "time": 663.293566699996,
                        "value": 0
                    },
                    {
                        "number": 64,
                        "time": 663.7337841499959,
                        "value": 1
                    },
                    {
                        "number": 64,
                        "time": 665.2229147833293,
                        "value": 0
                    },
                    {
                        "number": 64,
                        "time": 665.706610499996,
                        "value": 1
                    },
                    {
                        "number": 64,
                        "time": 667.2066106999961,
                        "value": 0
                    },
                    {
                        "number": 64,
                        "time": 667.646828149996,
                        "value": 1
                    },
                    {
                        "number": 64,
                        "time": 668.5109586999961,
                        "value": 0
                    },
                    {
                        "number": 64,
                        "time": 668.8424804833294,
                        "value": 1
                    },
                    {
                        "number": 64,
                        "time": 669.163132699996,
                        "value": 0
                    },
                    {
                        "number": 64,
                        "time": 669.5082414416627,
                        "value": 1
                    },
                    {
                        "number": 64,
                        "time": 669.815306699996,
                        "value": 0
                    },
                    {
                        "number": 64,
                        "time": 670.1278067416627,
                        "value": 1
                    },
                    {
                        "number": 64,
                        "time": 671.0924807833293,
                        "value": 0
                    },
                    {
                        "number": 64,
                        "time": 671.4647634416626,
                        "value": 1
                    },
                    {
                        "number": 64,
                        "time": 672.4294374833293,
                        "value": 0
                    },
                    {
                        "number": 64,
                        "time": 672.6413940333292,
                        "value": 1
                    },
                    {
                        "number": 64,
                        "time": 673.0517201749959,
                        "value": 0
                    },
                    {
                        "number": 64,
                        "time": 673.2555245499959,
                        "value": 1
                    },
                    {
                        "number": 64,
                        "time": 673.7337854833293,
                        "value": 0
                    },
                    {
                        "number": 64,
                        "time": 673.9131333333293,
                        "value": 1
                    },
                    {
                        "number": 64,
                        "time": 675.6903074833292,
                        "value": 0
                    },
                    {
                        "number": 64,
                        "time": 675.9484596916625,
                        "value": 1
                    },
                    {
                        "number": 64,
                        "time": 676.3180249583291,
                        "value": 0
                    },
                    {
                        "number": 64,
                        "time": 676.9566119999959,
                        "value": 1
                    },
                    {
                        "number": 64,
                        "time": 678.9267209583292,
                        "value": 0
                    },
                    {
                        "number": 64,
                        "time": 679.2011775166625,
                        "value": 1
                    },
                    {
                        "number": 64,
                        "time": 680.8805255666625,
                        "value": 0
                    },
                    {
                        "number": 64,
                        "time": 681.0951995083292,
                        "value": 1
                    },
                    {
                        "number": 64,
                        "time": 681.5544386999959,
                        "value": 0
                    },
                    {
                        "number": 64,
                        "time": 681.7256343749959,
                        "value": 1
                    },
                    {
                        "number": 64,
                        "time": 684.7826999999959,
                        "value": 0
                    },
                    {
                        "number": 64,
                        "time": 684.8696565333292,
                        "value": 1
                    },
                    {
                        "number": 64,
                        "time": 686.7609611333293,
                        "value": 0
                    },
                    {
                        "number": 64,
                        "time": 686.8886785416626,
                        "value": 1
                    },
                    {
                        "number": 64,
                        "time": 688.6957439999959,
                        "value": 0
                    },
                    {
                        "number": 64,
                        "time": 688.8207440166626,
                        "value": 1
                    },
                    {
                        "number": 64,
                        "time": 690.6903094833293,
                        "value": 0
                    },
                    {
                        "number": 64,
                        "time": 690.8452008083293,
                        "value": 1
                    },
                    {
                        "number": 64,
                        "time": 691.9756357416626,
                        "value": 0
                    },
                    {
                        "number": 64,
                        "time": 692.1386792416625,
                        "value": 1
                    },
                    {
                        "number": 64,
                        "time": 692.6250923499958,
                        "value": 0
                    },
                    {
                        "number": 64,
                        "time": 692.7827010666625,
                        "value": 1
                    },
                    {
                        "number": 64,
                        "time": 704.5299852416625,
                        "value": 0
                    },
                    {
                        "number": 64,
                        "time": 704.8778113749959,
                        "value": 1
                    },
                    {
                        "number": 64,
                        "time": 706.1468332833292,
                        "value": 0
                    },
                    {
                        "number": 64,
                        "time": 706.3941159249958,
                        "value": 1
                    },
                    {
                        "number": 64,
                        "time": 707.4756378083292,
                        "value": 0
                    },
                    {
                        "number": 64,
                        "time": 707.7663987166626,
                        "value": 1
                    },
                    {
                        "number": 64,
                        "time": 708.2772683499959,
                        "value": 0
                    },
                    {
                        "number": 64,
                        "time": 708.7691162416626,
                        "value": 1
                    },
                    {
                        "number": 64,
                        "time": 709.5979206999959,
                        "value": 0
                    },
                    {
                        "number": 64,
                        "time": 709.9077033499959,
                        "value": 1
                    },
                    {
                        "number": 64,
                        "time": 710.2500946999959,
                        "value": 0
                    },
                    {
                        "number": 64,
                        "time": 710.7609643333292,
                        "value": 1
                    },
                    {
                        "number": 64,
                        "time": 711.5517253083292,
                        "value": 0
                    },
                    {
                        "number": 64,
                        "time": 711.8017253416625,
                        "value": 1
                    },
                    {
                        "number": 64,
                        "time": 712.1740079999959,
                        "value": 0
                    },
                    {
                        "number": 64,
                        "time": 712.3153123666625,
                        "value": 1
                    },
                    {
                        "number": 64,
                        "time": 712.8587906999959,
                        "value": 0
                    },
                    {
                        "number": 64,
                        "time": 713.0897689916626,
                        "value": 1
                    },
                    {
                        "number": 64,
                        "time": 715.4674866999959,
                        "value": 0
                    },
                    {
                        "number": 64,
                        "time": 716.5952042416626,
                        "value": 1
                    },
                    {
                        "number": 64,
                        "time": 730.0000973333292,
                        "value": 0
                    }
                ]
            },
            "id": 3,
            "name": "Pedale",
            "instrumentNumber": 0,
            "instrument": "acoustic grand piano",
            "instrumentFamily": "piano",
            "channelNumber": 0,
            "isPercussion": false
        },
        {
            "startTime": 0,
            "duration": 0,
            "length": 0,
            "notes": [],
            "controlChanges": {},
            "id": 4,
            "name": "Beethoven: Hammerklaviersonate - 3. Satz"
        },
        {
            "startTime": 0,
            "duration": 0,
            "length": 0,
            "notes": [],
            "controlChanges": {},
            "id": 5,
            "name": "Copyright  2008 by Bernd Krueger"
        },
        {
            "startTime": 0,
            "duration": 0,
            "length": 0,
            "notes": [],
            "controlChanges": {},
            "id": 6,
            "name": "http://www.piano-midi.de/"
        },
        {
            "startTime": 0,
            "duration": 0,
            "length": 0,
            "notes": [],
            "controlChanges": {},
            "id": 7,
            "name": "Edition: 2012-08-22"
        },
        {
            "startTime": 0,
            "duration": 0,
            "length": 0,
            "notes": [],
            "controlChanges": {},
            "id": 8,
            "name": "Spur 8"
        },
        {
            "startTime": 0,
            "duration": 0,
            "length": 0,
            "notes": [],
            "controlChanges": {},
            "id": 9,
            "name": "Spur 9"
        },
        {
            "startTime": 0,
            "duration": 0,
            "length": 0,
            "notes": [],
            "controlChanges": {},
            "id": 10,
            "name": "Spur 10"
        },
        {
            "startTime": 0,
            "duration": 0,
            "length": 0,
            "notes": [],
            "controlChanges": {},
            "id": 11,
            "name": "Spur 11"
        },
        {
            "startTime": 0,
            "duration": 0,
            "length": 0,
            "notes": [],
            "controlChanges": {},
            "id": 12,
            "name": "Spur 12"
        },
        {
            "startTime": 0,
            "duration": 0,
            "length": 0,
            "notes": [],
            "controlChanges": {},
            "id": 13,
            "name": "Spur 13"
        },
        {
            "startTime": 0,
            "duration": 0,
            "length": 0,
            "notes": [],
            "controlChanges": {},
            "id": 14,
            "name": "Spur 14"
        },
        {
            "startTime": 0,
            "duration": 0,
            "length": 0,
            "notes": [],
            "controlChanges": {},
            "id": 15,
            "name": "Spur 15"
        },
        {
            "startTime": 0,
            "duration": 0,
            "length": 0,
            "notes": [],
            "controlChanges": {},
            "id": 16,
            "name": "Spur 16"
        }
    ]
}