{
    "header": {
        "PPQ": 480,
        "timeSignature": [
            4,
            4
        ],
        "bpm": 203.5002035002035,
        "name": "Sonate Opus 10 No. 1 3. Satz"
    },
    "startTime": 0,
    "duration": 199.60668000000305,
    "tracks": [
        {
            "startTime": 0,
            "duration": 0,
            "length": 0,
            "notes": [],
            "controlChanges": {},
            "id": 0,
            "name": "Sonate Opus 10 No. 1 3. Satz"
        },
        {
            "startTime": 0.44226,
            "duration": 199.60668000000305,
            "length": 1514,
            "notes": [
                {
                    "name": "C4",
                    "midi": 60,
                    "time": 0.44226,
                    "velocity": 0.31496062992125984,
                    "duration": 0.14742
                },
                {
                    "name": "B3",
                    "midi": 59,
                    "time": 0.58968,
                    "velocity": 0.3543307086614173,
                    "duration": 0.14742
                },
                {
                    "name": "C4",
                    "midi": 60,
                    "time": 0.7371,
                    "velocity": 0.31496062992125984,
                    "duration": 0.14742
                },
                {
                    "name": "F4",
                    "midi": 65,
                    "time": 0.88452,
                    "velocity": 0.3543307086614173,
                    "duration": 0.07370999999999994
                },
                {
                    "name": "F4",
                    "midi": 65,
                    "time": 1.0319399999999999,
                    "velocity": 0.2992125984251969,
                    "duration": 0.07370999999999994
                },
                {
                    "name": "D#4",
                    "midi": 63,
                    "time": 1.1793599999999997,
                    "velocity": 0.3543307086614173,
                    "duration": 0.29484
                },
                {
                    "name": "C4",
                    "midi": 60,
                    "time": 1.6216199999999996,
                    "velocity": 0.31496062992125984,
                    "duration": 0.14741999999999988
                },
                {
                    "name": "B3",
                    "midi": 59,
                    "time": 1.7690399999999995,
                    "velocity": 0.3543307086614173,
                    "duration": 0.14741999999999988
                },
                {
                    "name": "C4",
                    "midi": 60,
                    "time": 1.9164599999999994,
                    "velocity": 0.31496062992125984,
                    "duration": 0.14741999999999988
                },
                {
                    "name": "G#4",
                    "midi": 68,
                    "time": 2.0638799999999993,
                    "velocity": 0.3543307086614173,
                    "duration": 0.07371000000000016
                },
                {
                    "name": "G#4",
                    "midi": 68,
                    "time": 2.2112999999999996,
                    "velocity": 0.2992125984251969,
                    "duration": 0.07371000000000016
                },
                {
                    "name": "G4",
                    "midi": 67,
                    "time": 2.35872,
                    "velocity": 0.3543307086614173,
                    "duration": 0.29483999999999977
                },
                {
                    "name": "C4",
                    "midi": 60,
                    "time": 2.8009799999999996,
                    "velocity": 0.31496062992125984,
                    "duration": 0.14741999999999988
                },
                {
                    "name": "B3",
                    "midi": 59,
                    "time": 2.9483999999999995,
                    "velocity": 0.3543307086614173,
                    "duration": 0.14741999999999988
                },
                {
                    "name": "C4",
                    "midi": 60,
                    "time": 3.0958199999999994,
                    "velocity": 0.31496062992125984,
                    "duration": 0.14741999999999988
                },
                {
                    "name": "C5",
                    "midi": 72,
                    "time": 3.2432399999999992,
                    "velocity": 0.3543307086614173,
                    "duration": 0.07371000000000016
                },
                {
                    "name": "C5",
                    "midi": 72,
                    "time": 3.3906599999999996,
                    "velocity": 0.2992125984251969,
                    "duration": 0.07371000000000016
                },
                {
                    "name": "C5",
                    "midi": 72,
                    "time": 3.53808,
                    "velocity": 0.3543307086614173,
                    "duration": 0.14741999999999988
                },
                {
                    "name": "D5",
                    "midi": 74,
                    "time": 3.6854999999999998,
                    "velocity": 0.3543307086614173,
                    "duration": 0.03685500000000008
                },
                {
                    "name": "C5",
                    "midi": 72,
                    "time": 3.722355,
                    "velocity": 0.3543307086614173,
                    "duration": 0.03685500000000008
                },
                {
                    "name": "B4",
                    "midi": 71,
                    "time": 3.75921,
                    "velocity": 0.31496062992125984,
                    "duration": 0.03685500000000008
                },
                {
                    "name": "C5",
                    "midi": 72,
                    "time": 3.796065,
                    "velocity": 0.3543307086614173,
                    "duration": 0.03685500000000008
                },
                {
                    "name": "D#5",
                    "midi": 75,
                    "time": 3.83292,
                    "velocity": 0.3937007874015748,
                    "duration": 0.14741999999999988
                },
                {
                    "name": "D5",
                    "midi": 74,
                    "time": 3.98034,
                    "velocity": 0.3543307086614173,
                    "duration": 0.14742000000000033
                },
                {
                    "name": "F5",
                    "midi": 77,
                    "time": 4.12776,
                    "velocity": 0.4409448818897638,
                    "duration": 0.14742000000000033
                },
                {
                    "name": "D#5",
                    "midi": 75,
                    "time": 4.275180000000001,
                    "velocity": 0.41732283464566927,
                    "duration": 0.14742000000000033
                },
                {
                    "name": "D5",
                    "midi": 74,
                    "time": 4.422600000000001,
                    "velocity": 0.3937007874015748,
                    "duration": 0.14742000000000033
                },
                {
                    "name": "C5",
                    "midi": 72,
                    "time": 4.570020000000001,
                    "velocity": 0.3700787401574803,
                    "duration": 0.14742000000000033
                },
                {
                    "name": "B4",
                    "midi": 71,
                    "time": 4.717440000000002,
                    "velocity": 0.4015748031496063,
                    "duration": 0.29483999999999977
                },
                {
                    "name": "G3",
                    "midi": 55,
                    "time": 5.159700000000002,
                    "velocity": 0.31496062992125984,
                    "duration": 0.14742000000000033
                },
                {
                    "name": "F#3",
                    "midi": 54,
                    "time": 5.307120000000002,
                    "velocity": 0.3543307086614173,
                    "duration": 0.14742000000000033
                },
                {
                    "name": "G3",
                    "midi": 55,
                    "time": 5.454540000000002,
                    "velocity": 0.31496062992125984,
                    "duration": 0.14742000000000033
                },
                {
                    "name": "C4",
                    "midi": 60,
                    "time": 5.601960000000003,
                    "velocity": 0.3543307086614173,
                    "duration": 0.07371000000000016
                },
                {
                    "name": "C4",
                    "midi": 60,
                    "time": 5.749380000000003,
                    "velocity": 0.2992125984251969,
                    "duration": 0.07371000000000016
                },
                {
                    "name": "B3",
                    "midi": 59,
                    "time": 5.896800000000003,
                    "velocity": 0.3543307086614173,
                    "duration": 0.29483999999999977
                },
                {
                    "name": "G3",
                    "midi": 55,
                    "time": 6.3390600000000035,
                    "velocity": 0.31496062992125984,
                    "duration": 0.14742000000000033
                },
                {
                    "name": "F#3",
                    "midi": 54,
                    "time": 6.486480000000004,
                    "velocity": 0.3543307086614173,
                    "duration": 0.14742000000000033
                },
                {
                    "name": "G3",
                    "midi": 55,
                    "time": 6.633900000000004,
                    "velocity": 0.31496062992125984,
                    "duration": 0.14742000000000033
                },
                {
                    "name": "D#4",
                    "midi": 63,
                    "time": 6.7813200000000045,
                    "velocity": 0.3543307086614173,
                    "duration": 0.07371000000000016
                },
                {
                    "name": "D#4",
                    "midi": 63,
                    "time": 6.928740000000005,
                    "velocity": 0.2992125984251969,
                    "duration": 0.07371000000000016
                },
                {
                    "name": "D4",
                    "midi": 62,
                    "time": 7.076160000000005,
                    "velocity": 0.3543307086614173,
                    "duration": 0.29483999999999977
                },
                {
                    "name": "G3",
                    "midi": 55,
                    "time": 7.518420000000005,
                    "velocity": 0.3543307086614173,
                    "duration": 0.07371000000000016
                },
                {
                    "name": "B3",
                    "midi": 59,
                    "time": 7.6658400000000055,
                    "velocity": 0.4015748031496063,
                    "duration": 0.07371000000000016
                },
                {
                    "name": "D4",
                    "midi": 62,
                    "time": 7.813260000000006,
                    "velocity": 0.3543307086614173,
                    "duration": 0.07371000000000016
                },
                {
                    "name": "F4",
                    "midi": 65,
                    "time": 7.960680000000006,
                    "velocity": 0.3543307086614173,
                    "duration": 0.07370999999999928
                },
                {
                    "name": "G#4",
                    "midi": 68,
                    "time": 8.108100000000006,
                    "velocity": 0.3543307086614173,
                    "duration": 0.07371000000000016
                },
                {
                    "name": "B4",
                    "midi": 71,
                    "time": 8.255520000000006,
                    "velocity": 0.4330708661417323,
                    "duration": 0.07371000000000016
                },
                {
                    "name": "D5",
                    "midi": 74,
                    "time": 8.402940000000006,
                    "velocity": 0.41732283464566927,
                    "duration": 0.07371000000000016
                },
                {
                    "name": "F5",
                    "midi": 77,
                    "time": 8.550360000000007,
                    "velocity": 0.4409448818897638,
                    "duration": 0.07371000000000016
                },
                {
                    "name": "G#5",
                    "midi": 80,
                    "time": 8.697780000000007,
                    "velocity": 0.47244094488188976,
                    "duration": 0.07371000000000016
                },
                {
                    "name": "G5",
                    "midi": 79,
                    "time": 8.845200000000007,
                    "velocity": 0.49606299212598426,
                    "duration": 0.07371000000000016
                },
                {
                    "name": "F5",
                    "midi": 77,
                    "time": 8.992620000000008,
                    "velocity": 0.4645669291338583,
                    "duration": 0.07371000000000016
                },
                {
                    "name": "D#5",
                    "midi": 75,
                    "time": 9.140040000000008,
                    "velocity": 0.4330708661417323,
                    "duration": 0.07371000000000016
                },
                {
                    "name": "D5",
                    "midi": 74,
                    "time": 9.287460000000008,
                    "velocity": 0.4251968503937008,
                    "duration": 0.07371000000000016
                },
                {
                    "name": "C5",
                    "midi": 72,
                    "time": 9.434880000000009,
                    "velocity": 0.4881889763779528,
                    "duration": 0.29484000000000066
                },
                {
                    "name": "C5",
                    "midi": 72,
                    "time": 9.87714000000001,
                    "velocity": 0.3937007874015748,
                    "duration": 0.14742000000000033
                },
                {
                    "name": "B4",
                    "midi": 71,
                    "time": 10.02456000000001,
                    "velocity": 0.44881889763779526,
                    "duration": 0.14742000000000033
                },
                {
                    "name": "C5",
                    "midi": 72,
                    "time": 10.17198000000001,
                    "velocity": 0.41732283464566927,
                    "duration": 0.14742000000000033
                },
                {
                    "name": "C6",
                    "midi": 84,
                    "time": 10.31940000000001,
                    "velocity": 0.47244094488188976,
                    "duration": 0.07371000000000016
                },
                {
                    "name": "C6",
                    "midi": 84,
                    "time": 10.466820000000011,
                    "velocity": 0.4094488188976378,
                    "duration": 0.07371000000000016
                },
                {
                    "name": "C6",
                    "midi": 84,
                    "time": 10.614240000000011,
                    "velocity": 0.47244094488188976,
                    "duration": 0.29484000000000066
                },
                {
                    "name": "F6",
                    "midi": 89,
                    "time": 11.056500000000012,
                    "velocity": 0.4645669291338583,
                    "duration": 0.14742000000000033
                },
                {
                    "name": "D#6",
                    "midi": 87,
                    "time": 11.203920000000013,
                    "velocity": 0.5118110236220472,
                    "duration": 0.14742000000000033
                },
                {
                    "name": "D6",
                    "midi": 86,
                    "time": 11.351340000000013,
                    "velocity": 0.47244094488188976,
                    "duration": 0.14742000000000033
                },
                {
                    "name": "C6",
                    "midi": 84,
                    "time": 11.498760000000013,
                    "velocity": 0.5196850393700787,
                    "duration": 0.14742000000000033
                },
                {
                    "name": "B5",
                    "midi": 83,
                    "time": 11.646180000000014,
                    "velocity": 0.47244094488188976,
                    "duration": 0.14742000000000033
                },
                {
                    "name": "D6",
                    "midi": 86,
                    "time": 11.793600000000014,
                    "velocity": 0.5433070866141733,
                    "duration": 0.14742000000000033
                },
                {
                    "name": "C6",
                    "midi": 84,
                    "time": 11.941020000000014,
                    "velocity": 0.47244094488188976,
                    "duration": 0.14742000000000033
                },
                {
                    "name": "C5",
                    "midi": 72,
                    "time": 12.235860000000015,
                    "velocity": 0.3937007874015748,
                    "duration": 0.14742000000000033
                },
                {
                    "name": "B4",
                    "midi": 71,
                    "time": 12.383280000000015,
                    "velocity": 0.44881889763779526,
                    "duration": 0.14742000000000033
                },
                {
                    "name": "C5",
                    "midi": 72,
                    "time": 12.530700000000015,
                    "velocity": 0.41732283464566927,
                    "duration": 0.14742000000000033
                },
                {
                    "name": "C6",
                    "midi": 84,
                    "time": 12.678120000000016,
                    "velocity": 0.47244094488188976,
                    "duration": 0.07371000000000016
                },
                {
                    "name": "C6",
                    "midi": 84,
                    "time": 12.825540000000016,
                    "velocity": 0.4094488188976378,
                    "duration": 0.07371000000000016
                },
                {
                    "name": "C6",
                    "midi": 84,
                    "time": 12.972960000000016,
                    "velocity": 0.47244094488188976,
                    "duration": 0.29484000000000066
                },
                {
                    "name": "D6",
                    "midi": 86,
                    "time": 13.267800000000017,
                    "velocity": 0.47244094488188976,
                    "duration": 0.036854999999999194
                },
                {
                    "name": "C6",
                    "midi": 84,
                    "time": 13.304655000000016,
                    "velocity": 0.47244094488188976,
                    "duration": 0.036854999999999194
                },
                {
                    "name": "B5",
                    "midi": 83,
                    "time": 13.341510000000016,
                    "velocity": 0.47244094488188976,
                    "duration": 0.036854999999999194
                },
                {
                    "name": "C6",
                    "midi": 84,
                    "time": 13.378365000000015,
                    "velocity": 0.47244094488188976,
                    "duration": 0.036854999999999194
                },
                {
                    "name": "F6",
                    "midi": 89,
                    "time": 13.415220000000014,
                    "velocity": 0.4645669291338583,
                    "duration": 0.14742000000000033
                },
                {
                    "name": "D#6",
                    "midi": 87,
                    "time": 13.562640000000014,
                    "velocity": 0.5118110236220472,
                    "duration": 0.14742000000000033
                },
                {
                    "name": "D6",
                    "midi": 86,
                    "time": 13.710060000000015,
                    "velocity": 0.47244094488188976,
                    "duration": 0.14742000000000033
                },
                {
                    "name": "C6",
                    "midi": 84,
                    "time": 13.857480000000015,
                    "velocity": 0.5196850393700787,
                    "duration": 0.14742000000000033
                },
                {
                    "name": "B5",
                    "midi": 83,
                    "time": 14.004900000000015,
                    "velocity": 0.47244094488188976,
                    "duration": 0.14742000000000033
                },
                {
                    "name": "C6",
                    "midi": 84,
                    "time": 14.152320000000016,
                    "velocity": 0.5433070866141733,
                    "duration": 0.07371000000000016
                },
                {
                    "name": "D6",
                    "midi": 86,
                    "time": 14.226030000000016,
                    "velocity": 0.49606299212598426,
                    "duration": 0.07371000000000016
                },
                {
                    "name": "C6",
                    "midi": 84,
                    "time": 14.299740000000016,
                    "velocity": 0.49606299212598426,
                    "duration": 0.07371000000000016
                },
                {
                    "name": "B5",
                    "midi": 83,
                    "time": 14.373450000000016,
                    "velocity": 0.49606299212598426,
                    "duration": 0.07371000000000016
                },
                {
                    "name": "C6",
                    "midi": 84,
                    "time": 14.447160000000016,
                    "velocity": 0.5433070866141733,
                    "duration": 0.07371000000000016
                },
                {
                    "name": "D#6",
                    "midi": 87,
                    "time": 14.520870000000016,
                    "velocity": 0.5748031496062992,
                    "duration": 0.07371000000000016
                },
                {
                    "name": "D6",
                    "midi": 86,
                    "time": 14.594580000000017,
                    "velocity": 0.5669291338582677,
                    "duration": 0.07371000000000016
                },
                {
                    "name": "C6",
                    "midi": 84,
                    "time": 14.668290000000017,
                    "velocity": 0.5590551181102362,
                    "duration": 0.07371000000000016
                },
                {
                    "name": "B5",
                    "midi": 83,
                    "time": 14.742000000000017,
                    "velocity": 0.5669291338582677,
                    "duration": 0.07371000000000016
                },
                {
                    "name": "C6",
                    "midi": 84,
                    "time": 14.815710000000017,
                    "velocity": 0.5118110236220472,
                    "duration": 0.07371000000000016
                },
                {
                    "name": "B5",
                    "midi": 83,
                    "time": 14.889420000000017,
                    "velocity": 0.5118110236220472,
                    "duration": 0.07371000000000016
                },
                {
                    "name": "G#5",
                    "midi": 80,
                    "time": 14.963130000000017,
                    "velocity": 0.5118110236220472,
                    "duration": 0.07371000000000016
                },
                {
                    "name": "G5",
                    "midi": 79,
                    "time": 15.036840000000018,
                    "velocity": 0.5433070866141733,
                    "duration": 0.07371000000000016
                },
                {
                    "name": "F5",
                    "midi": 77,
                    "time": 15.110550000000018,
                    "velocity": 0.49606299212598426,
                    "duration": 0.07371000000000016
                },
                {
                    "name": "D#5",
                    "midi": 75,
                    "time": 15.184260000000018,
                    "velocity": 0.49606299212598426,
                    "duration": 0.07371000000000016
                },
                {
                    "name": "D5",
                    "midi": 74,
                    "time": 15.257970000000018,
                    "velocity": 0.49606299212598426,
                    "duration": 0.07371000000000016
                },
                {
                    "name": "C5",
                    "midi": 72,
                    "time": 15.331680000000018,
                    "velocity": 0.5433070866141733,
                    "duration": 0.07371000000000016
                },
                {
                    "name": "D5",
                    "midi": 74,
                    "time": 15.405390000000018,
                    "velocity": 0.49606299212598426,
                    "duration": 0.07371000000000016
                },
                {
                    "name": "C5",
                    "midi": 72,
                    "time": 15.479100000000019,
                    "velocity": 0.49606299212598426,
                    "duration": 0.07371000000000016
                },
                {
                    "name": "B4",
                    "midi": 71,
                    "time": 15.552810000000019,
                    "velocity": 0.48031496062992124,
                    "duration": 0.07371000000000016
                },
                {
                    "name": "C5",
                    "midi": 72,
                    "time": 15.626520000000019,
                    "velocity": 0.5196850393700787,
                    "duration": 0.07371000000000016
                },
                {
                    "name": "D#5",
                    "midi": 75,
                    "time": 15.700230000000019,
                    "velocity": 0.5669291338582677,
                    "duration": 0.07371000000000016
                },
                {
                    "name": "D5",
                    "midi": 74,
                    "time": 15.77394000000002,
                    "velocity": 0.5511811023622047,
                    "duration": 0.07371000000000016
                },
                {
                    "name": "C5",
                    "midi": 72,
                    "time": 15.84765000000002,
                    "velocity": 0.5275590551181102,
                    "duration": 0.07371000000000016
                },
                {
                    "name": "B4",
                    "midi": 71,
                    "time": 15.92136000000002,
                    "velocity": 0.5433070866141733,
                    "duration": 0.07371000000000016
                },
                {
                    "name": "C5",
                    "midi": 72,
                    "time": 15.99507000000002,
                    "velocity": 0.49606299212598426,
                    "duration": 0.07370999999999839
                },
                {
                    "name": "B4",
                    "midi": 71,
                    "time": 16.068780000000018,
                    "velocity": 0.49606299212598426,
                    "duration": 0.07370999999999839
                },
                {
                    "name": "G#4",
                    "midi": 68,
                    "time": 16.142490000000016,
                    "velocity": 0.49606299212598426,
                    "duration": 0.07370999999999839
                },
                {
                    "name": "G4",
                    "midi": 67,
                    "time": 16.216200000000015,
                    "velocity": 0.5433070866141733,
                    "duration": 0.07370999999999839
                },
                {
                    "name": "F4",
                    "midi": 65,
                    "time": 16.289910000000013,
                    "velocity": 0.49606299212598426,
                    "duration": 0.07370999999999839
                },
                {
                    "name": "D#4",
                    "midi": 63,
                    "time": 16.36362000000001,
                    "velocity": 0.49606299212598426,
                    "duration": 0.07370999999999839
                },
                {
                    "name": "D4",
                    "midi": 62,
                    "time": 16.43733000000001,
                    "velocity": 0.49606299212598426,
                    "duration": 0.07370999999999839
                },
                {
                    "name": "C4",
                    "midi": 60,
                    "time": 16.51104000000001,
                    "velocity": 0.6062992125984252,
                    "duration": 0.07370999999999839
                },
                {
                    "name": "D4",
                    "midi": 62,
                    "time": 16.584750000000007,
                    "velocity": 0.5433070866141733,
                    "duration": 0.07370999999999839
                },
                {
                    "name": "C4",
                    "midi": 60,
                    "time": 16.658460000000005,
                    "velocity": 0.5433070866141733,
                    "duration": 0.07370999999999839
                },
                {
                    "name": "B3",
                    "midi": 59,
                    "time": 16.732170000000004,
                    "velocity": 0.5433070866141733,
                    "duration": 0.07370999999999839
                },
                {
                    "name": "C4",
                    "midi": 60,
                    "time": 16.805880000000002,
                    "velocity": 0.6062992125984252,
                    "duration": 0.07370999999999839
                },
                {
                    "name": "D#4",
                    "midi": 63,
                    "time": 16.87959,
                    "velocity": 0.5433070866141733,
                    "duration": 0.07370999999999839
                },
                {
                    "name": "D4",
                    "midi": 62,
                    "time": 16.9533,
                    "velocity": 0.5433070866141733,
                    "duration": 0.07370999999999839
                },
                {
                    "name": "C4",
                    "midi": 60,
                    "time": 17.027009999999997,
                    "velocity": 0.5433070866141733,
                    "duration": 0.07370999999999839
                },
                {
                    "name": "B3",
                    "midi": 59,
                    "time": 17.100719999999995,
                    "velocity": 0.6062992125984252,
                    "duration": 0.07370999999999839
                },
                {
                    "name": "G4",
                    "midi": 67,
                    "time": 17.174429999999994,
                    "velocity": 0.5433070866141733,
                    "duration": 0.07370999999999839
                },
                {
                    "name": "D4",
                    "midi": 62,
                    "time": 17.248139999999992,
                    "velocity": 0.5433070866141733,
                    "duration": 0.07370999999999839
                },
                {
                    "name": "B3",
                    "midi": 59,
                    "time": 17.32184999999999,
                    "velocity": 0.5433070866141733,
                    "duration": 0.07370999999999839
                },
                {
                    "name": "G3",
                    "midi": 55,
                    "time": 17.39555999999999,
                    "velocity": 0.6220472440944882,
                    "duration": 0.07370999999999839
                },
                {
                    "name": "G4",
                    "midi": 67,
                    "time": 17.469269999999987,
                    "velocity": 0.5433070866141733,
                    "duration": 0.07370999999999839
                },
                {
                    "name": "D#4",
                    "midi": 63,
                    "time": 17.542979999999986,
                    "velocity": 0.5433070866141733,
                    "duration": 0.07370999999999839
                },
                {
                    "name": "C4",
                    "midi": 60,
                    "time": 17.616689999999984,
                    "velocity": 0.5433070866141733,
                    "duration": 0.07370999999999839
                },
                {
                    "name": "G3",
                    "midi": 55,
                    "time": 17.690399999999983,
                    "velocity": 0.6377952755905512,
                    "duration": 0.07370999999999839
                },
                {
                    "name": "G4",
                    "midi": 67,
                    "time": 17.76410999999998,
                    "velocity": 0.5433070866141733,
                    "duration": 0.07370999999999839
                },
                {
                    "name": "D4",
                    "midi": 62,
                    "time": 17.83781999999998,
                    "velocity": 0.5433070866141733,
                    "duration": 0.07370999999999839
                },
                {
                    "name": "B3",
                    "midi": 59,
                    "time": 17.911529999999978,
                    "velocity": 0.5433070866141733,
                    "duration": 0.07370999999999839
                },
                {
                    "name": "G3",
                    "midi": 55,
                    "time": 17.985239999999976,
                    "velocity": 0.6299212598425197,
                    "duration": 0.07370999999999839
                },
                {
                    "name": "G4",
                    "midi": 67,
                    "time": 18.058949999999975,
                    "velocity": 0.5433070866141733,
                    "duration": 0.07370999999999839
                },
                {
                    "name": "D#4",
                    "midi": 63,
                    "time": 18.132659999999973,
                    "velocity": 0.5433070866141733,
                    "duration": 0.07370999999999839
                },
                {
                    "name": "C4",
                    "midi": 60,
                    "time": 18.20636999999997,
                    "velocity": 0.5433070866141733,
                    "duration": 0.07370999999999839
                },
                {
                    "name": "G3",
                    "midi": 55,
                    "time": 18.28007999999997,
                    "velocity": 0.6299212598425197,
                    "duration": 0.07370999999999839
                },
                {
                    "name": "G4",
                    "midi": 67,
                    "time": 18.353789999999968,
                    "velocity": 0.5433070866141733,
                    "duration": 0.07370999999999839
                },
                {
                    "name": "D4",
                    "midi": 62,
                    "time": 18.427499999999966,
                    "velocity": 0.5433070866141733,
                    "duration": 0.07370999999999839
                },
                {
                    "name": "B3",
                    "midi": 59,
                    "time": 18.501209999999965,
                    "velocity": 0.5433070866141733,
                    "duration": 0.07370999999999839
                },
                {
                    "name": "G3",
                    "midi": 55,
                    "time": 18.574919999999963,
                    "velocity": 0.6299212598425197,
                    "duration": 0.07370999999999839
                },
                {
                    "name": "G4",
                    "midi": 67,
                    "time": 18.64862999999996,
                    "velocity": 0.5433070866141733,
                    "duration": 0.07370999999999839
                },
                {
                    "name": "D#4",
                    "midi": 63,
                    "time": 18.72233999999996,
                    "velocity": 0.5433070866141733,
                    "duration": 0.07370999999999839
                },
                {
                    "name": "C4",
                    "midi": 60,
                    "time": 18.79604999999996,
                    "velocity": 0.5433070866141733,
                    "duration": 0.07370999999999839
                },
                {
                    "name": "G3",
                    "midi": 55,
                    "time": 18.869759999999957,
                    "velocity": 0.5826771653543307,
                    "duration": 0.5896800000000013
                },
                {
                    "name": "B3",
                    "midi": 59,
                    "time": 18.869759999999957,
                    "velocity": 0.5826771653543307,
                    "duration": 0.5896800000000013
                },
                {
                    "name": "D4",
                    "midi": 62,
                    "time": 18.869759999999957,
                    "velocity": 0.5826771653543307,
                    "duration": 0.5896800000000013
                },
                {
                    "name": "G4",
                    "midi": 67,
                    "time": 18.869759999999957,
                    "velocity": 0.7007874015748031,
                    "duration": 0.5896800000000013
                },
                {
                    "name": "A#3",
                    "midi": 58,
                    "time": 19.60685999999996,
                    "velocity": 0.31496062992125984,
                    "duration": 0.07370999999999839
                },
                {
                    "name": "C4",
                    "midi": 60,
                    "time": 19.754279999999955,
                    "velocity": 0.29133858267716534,
                    "duration": 0.07370999999999839
                },
                {
                    "name": "D4",
                    "midi": 62,
                    "time": 19.901699999999952,
                    "velocity": 0.29133858267716534,
                    "duration": 0.07370999999999839
                },
                {
                    "name": "G3",
                    "midi": 55,
                    "time": 20.04911999999995,
                    "velocity": 0.30708661417322836,
                    "duration": 0.5896799999999907
                },
                {
                    "name": "A#3",
                    "midi": 58,
                    "time": 20.04911999999995,
                    "velocity": 0.30708661417322836,
                    "duration": 0.5896799999999907
                },
                {
                    "name": "D#4",
                    "midi": 63,
                    "time": 20.04911999999995,
                    "velocity": 0.36220472440944884,
                    "duration": 0.07370999999999839
                },
                {
                    "name": "F4",
                    "midi": 65,
                    "time": 20.196539999999946,
                    "velocity": 0.31496062992125984,
                    "duration": 0.07370999999999839
                },
                {
                    "name": "G4",
                    "midi": 67,
                    "time": 20.343959999999942,
                    "velocity": 0.31496062992125984,
                    "duration": 0.07370999999999839
                },
                {
                    "name": "A#3",
                    "midi": 58,
                    "time": 20.63879999999994,
                    "velocity": 0.2992125984251969,
                    "duration": 0.07370999999999839
                },
                {
                    "name": "D4",
                    "midi": 62,
                    "time": 20.63879999999994,
                    "velocity": 0.2992125984251969,
                    "duration": 0.07370999999999839
                },
                {
                    "name": "F4",
                    "midi": 65,
                    "time": 20.63879999999994,
                    "velocity": 0.3543307086614173,
                    "duration": 0.07370999999999839
                },
                {
                    "name": "A#3",
                    "midi": 58,
                    "time": 20.933639999999937,
                    "velocity": 0.25984251968503935,
                    "duration": 0.07370999999999839
                },
                {
                    "name": "D#4",
                    "midi": 63,
                    "time": 20.933639999999937,
                    "velocity": 0.30708661417322836,
                    "duration": 0.07370999999999839
                },
                {
                    "name": "G#3",
                    "midi": 56,
                    "time": 21.228479999999934,
                    "velocity": 0.29133858267716534,
                    "duration": 0.5896800000000013
                },
                {
                    "name": "A#3",
                    "midi": 58,
                    "time": 21.228479999999934,
                    "velocity": 0.29133858267716534,
                    "duration": 0.5896800000000013
                },
                {
                    "name": "D4",
                    "midi": 62,
                    "time": 21.228479999999934,
                    "velocity": 0.29133858267716534,
                    "duration": 0.5896800000000013
                },
                {
                    "name": "G#4",
                    "midi": 68,
                    "time": 21.228479999999934,
                    "velocity": 0.3543307086614173,
                    "duration": 0.5896800000000013
                },
                {
                    "name": "A#3",
                    "midi": 58,
                    "time": 21.965579999999935,
                    "velocity": 0.31496062992125984,
                    "duration": 0.07370999999999839
                },
                {
                    "name": "C4",
                    "midi": 60,
                    "time": 22.112999999999932,
                    "velocity": 0.29133858267716534,
                    "duration": 0.07370999999999839
                },
                {
                    "name": "D4",
                    "midi": 62,
                    "time": 22.26041999999993,
                    "velocity": 0.29133858267716534,
                    "duration": 0.07370999999999839
                },
                {
                    "name": "G3",
                    "midi": 55,
                    "time": 22.407839999999926,
                    "velocity": 0.30708661417322836,
                    "duration": 0.5896799999999907
                },
                {
                    "name": "A#3",
                    "midi": 58,
                    "time": 22.407839999999926,
                    "velocity": 0.30708661417322836,
                    "duration": 0.5896799999999907
                },
                {
                    "name": "D#4",
                    "midi": 63,
                    "time": 22.407839999999926,
                    "velocity": 0.36220472440944884,
                    "duration": 0.07370999999999839
                },
                {
                    "name": "F4",
                    "midi": 65,
                    "time": 22.555259999999922,
                    "velocity": 0.31496062992125984,
                    "duration": 0.07370999999999839
                },
                {
                    "name": "G4",
                    "midi": 67,
                    "time": 22.70267999999992,
                    "velocity": 0.31496062992125984,
                    "duration": 0.07370999999999839
                },
                {
                    "name": "F3",
                    "midi": 53,
                    "time": 22.997519999999916,
                    "velocity": 0.2992125984251969,
                    "duration": 0.07370999999999839
                },
                {
                    "name": "C4",
                    "midi": 60,
                    "time": 22.997519999999916,
                    "velocity": 0.2992125984251969,
                    "duration": 0.07370999999999839
                },
                {
                    "name": "F4",
                    "midi": 65,
                    "time": 22.997519999999916,
                    "velocity": 0.3543307086614173,
                    "duration": 0.07370999999999839
                },
                {
                    "name": "C4",
                    "midi": 60,
                    "time": 23.292359999999913,
                    "velocity": 0.25984251968503935,
                    "duration": 0.07370999999999839
                },
                {
                    "name": "F3",
                    "midi": 53,
                    "time": 23.292359999999913,
                    "velocity": 0.25984251968503935,
                    "duration": 0.07370999999999839
                },
                {
                    "name": "D#4",
                    "midi": 63,
                    "time": 23.292359999999913,
                    "velocity": 0.30708661417322836,
                    "duration": 0.07370999999999839
                },
                {
                    "name": "D3",
                    "midi": 50,
                    "time": 23.58719999999991,
                    "velocity": 0.2440944881889764,
                    "duration": 0.5896800000000013
                },
                {
                    "name": "F3",
                    "midi": 53,
                    "time": 23.58719999999991,
                    "velocity": 0.2440944881889764,
                    "duration": 0.5896800000000013
                },
                {
                    "name": "A#3",
                    "midi": 58,
                    "time": 23.58719999999991,
                    "velocity": 0.29133858267716534,
                    "duration": 0.5896800000000013
                },
                {
                    "name": "A#3",
                    "midi": 58,
                    "time": 24.324299999999912,
                    "velocity": 0.31496062992125984,
                    "duration": 0.07370999999999839
                },
                {
                    "name": "C4",
                    "midi": 60,
                    "time": 24.47171999999991,
                    "velocity": 0.29133858267716534,
                    "duration": 0.07370999999999839
                },
                {
                    "name": "D4",
                    "midi": 62,
                    "time": 24.619139999999906,
                    "velocity": 0.29133858267716534,
                    "duration": 0.07370999999999839
                },
                {
                    "name": "G3",
                    "midi": 55,
                    "time": 24.766559999999902,
                    "velocity": 0.30708661417322836,
                    "duration": 0.5896799999999907
                },
                {
                    "name": "A#3",
                    "midi": 58,
                    "time": 24.766559999999902,
                    "velocity": 0.30708661417322836,
                    "duration": 0.5896799999999907
                },
                {
                    "name": "D#4",
                    "midi": 63,
                    "time": 24.766559999999902,
                    "velocity": 0.36220472440944884,
                    "duration": 0.07370999999999839
                },
                {
                    "name": "F4",
                    "midi": 65,
                    "time": 24.9139799999999,
                    "velocity": 0.31496062992125984,
                    "duration": 0.07370999999999839
                },
                {
                    "name": "G4",
                    "midi": 67,
                    "time": 25.061399999999896,
                    "velocity": 0.31496062992125984,
                    "duration": 0.07370999999999839
                },
                {
                    "name": "A#3",
                    "midi": 58,
                    "time": 25.356239999999893,
                    "velocity": 0.2992125984251969,
                    "duration": 0.07370999999999839
                },
                {
                    "name": "D4",
                    "midi": 62,
                    "time": 25.356239999999893,
                    "velocity": 0.2992125984251969,
                    "duration": 0.07370999999999839
                },
                {
                    "name": "F4",
                    "midi": 65,
                    "time": 25.356239999999893,
                    "velocity": 0.3543307086614173,
                    "duration": 0.07370999999999839
                },
                {
                    "name": "A#3",
                    "midi": 58,
                    "time": 25.65107999999989,
                    "velocity": 0.25984251968503935,
                    "duration": 0.07370999999999839
                },
                {
                    "name": "D#4",
                    "midi": 63,
                    "time": 25.65107999999989,
                    "velocity": 0.30708661417322836,
                    "duration": 0.07370999999999839
                },
                {
                    "name": "C4",
                    "midi": 60,
                    "time": 25.91827874999989,
                    "velocity": 0.3543307086614173,
                    "duration": 0.6173212500000034
                },
                {
                    "name": "D#4",
                    "midi": 63,
                    "time": 25.92749249999989,
                    "velocity": 0.3937007874015748,
                    "duration": 0.6081075000000027
                },
                {
                    "name": "G#4",
                    "midi": 68,
                    "time": 25.93670624999989,
                    "velocity": 0.49606299212598426,
                    "duration": 0.598893750000002
                },
                {
                    "name": "C5",
                    "midi": 72,
                    "time": 25.94591999999989,
                    "velocity": 0.5669291338582677,
                    "duration": 0.7371000000000016
                },
                {
                    "name": "C5",
                    "midi": 72,
                    "time": 26.683019999999892,
                    "velocity": 0.3779527559055118,
                    "duration": 0.07370999999999839
                },
                {
                    "name": "A#4",
                    "midi": 70,
                    "time": 26.83043999999989,
                    "velocity": 0.41732283464566927,
                    "duration": 0.07370999999999839
                },
                {
                    "name": "G#4",
                    "midi": 68,
                    "time": 26.977859999999886,
                    "velocity": 0.3937007874015748,
                    "duration": 0.07370999999999839
                },
                {
                    "name": "G4",
                    "midi": 67,
                    "time": 27.125279999999883,
                    "velocity": 0.41732283464566927,
                    "duration": 0.14742000000000033
                },
                {
                    "name": "F4",
                    "midi": 65,
                    "time": 27.272699999999883,
                    "velocity": 0.3779527559055118,
                    "duration": 0.14742000000000033
                },
                {
                    "name": "D#4",
                    "midi": 63,
                    "time": 27.420119999999883,
                    "velocity": 0.3779527559055118,
                    "duration": 0.07370999999999839
                },
                {
                    "name": "D4",
                    "midi": 62,
                    "time": 27.56753999999988,
                    "velocity": 0.3779527559055118,
                    "duration": 0.07370999999999839
                },
                {
                    "name": "F3",
                    "midi": 53,
                    "time": 27.714959999999877,
                    "velocity": 0.3543307086614173,
                    "duration": 0.5896800000000013
                },
                {
                    "name": "G#3",
                    "midi": 56,
                    "time": 27.714959999999877,
                    "velocity": 0.3543307086614173,
                    "duration": 0.5896800000000013
                },
                {
                    "name": "C4",
                    "midi": 60,
                    "time": 27.714959999999877,
                    "velocity": 0.41732283464566927,
                    "duration": 0.29484000000000066
                },
                {
                    "name": "A#3",
                    "midi": 58,
                    "time": 28.009799999999878,
                    "velocity": 0.3858267716535433,
                    "duration": 0.29484000000000066
                },
                {
                    "name": "D#3",
                    "midi": 51,
                    "time": 28.30463999999988,
                    "velocity": 0.3228346456692913,
                    "duration": 0.5896800000000013
                },
                {
                    "name": "G3",
                    "midi": 55,
                    "time": 28.30463999999988,
                    "velocity": 0.3228346456692913,
                    "duration": 0.5896800000000013
                },
                {
                    "name": "A#3",
                    "midi": 58,
                    "time": 28.30463999999988,
                    "velocity": 0.3858267716535433,
                    "duration": 0.5896800000000013
                },
                {
                    "name": "A#4",
                    "midi": 70,
                    "time": 29.04173999999988,
                    "velocity": 0.3779527559055118,
                    "duration": 0.07370999999999839
                },
                {
                    "name": "G#4",
                    "midi": 68,
                    "time": 29.189159999999877,
                    "velocity": 0.41732283464566927,
                    "duration": 0.07370999999999839
                },
                {
                    "name": "G4",
                    "midi": 67,
                    "time": 29.336579999999874,
                    "velocity": 0.3937007874015748,
                    "duration": 0.07370999999999839
                },
                {
                    "name": "G4",
                    "midi": 67,
                    "time": 29.48399999999987,
                    "velocity": 0.41732283464566927,
                    "duration": 0.14742000000000033
                },
                {
                    "name": "F4",
                    "midi": 65,
                    "time": 29.63141999999987,
                    "velocity": 0.3779527559055118,
                    "duration": 0.14742000000000033
                },
                {
                    "name": "D#4",
                    "midi": 63,
                    "time": 29.77883999999987,
                    "velocity": 0.3779527559055118,
                    "duration": 0.07370999999999839
                },
                {
                    "name": "D4",
                    "midi": 62,
                    "time": 29.926259999999868,
                    "velocity": 0.3779527559055118,
                    "duration": 0.07370999999999839
                },
                {
                    "name": "F3",
                    "midi": 53,
                    "time": 30.073679999999865,
                    "velocity": 0.3543307086614173,
                    "duration": 0.5896800000000013
                },
                {
                    "name": "G#3",
                    "midi": 56,
                    "time": 30.073679999999865,
                    "velocity": 0.3543307086614173,
                    "duration": 0.5896800000000013
                },
                {
                    "name": "C4",
                    "midi": 60,
                    "time": 30.073679999999865,
                    "velocity": 0.41732283464566927,
                    "duration": 0.29484000000000066
                },
                {
                    "name": "A#3",
                    "midi": 58,
                    "time": 30.368519999999865,
                    "velocity": 0.3858267716535433,
                    "duration": 0.29484000000000066
                },
                {
                    "name": "D#3",
                    "midi": 51,
                    "time": 30.663359999999866,
                    "velocity": 0.4251968503937008,
                    "duration": 0.5896800000000013
                },
                {
                    "name": "G3",
                    "midi": 55,
                    "time": 30.663359999999866,
                    "velocity": 0.4251968503937008,
                    "duration": 0.5896800000000013
                },
                {
                    "name": "A#3",
                    "midi": 58,
                    "time": 30.663359999999866,
                    "velocity": 0.4251968503937008,
                    "duration": 0.5896800000000013
                },
                {
                    "name": "A#5",
                    "midi": 82,
                    "time": 31.400459999999867,
                    "velocity": 0.3779527559055118,
                    "duration": 0.07370999999999839
                },
                {
                    "name": "A#4",
                    "midi": 70,
                    "time": 31.400459999999867,
                    "velocity": 0.3779527559055118,
                    "duration": 0.07370999999999839
                },
                {
                    "name": "G#5",
                    "midi": 80,
                    "time": 31.547879999999864,
                    "velocity": 0.41732283464566927,
                    "duration": 0.07370999999999839
                },
                {
                    "name": "G#4",
                    "midi": 68,
                    "time": 31.547879999999864,
                    "velocity": 0.41732283464566927,
                    "duration": 0.07370999999999839
                },
                {
                    "name": "G5",
                    "midi": 79,
                    "time": 31.69529999999986,
                    "velocity": 0.3937007874015748,
                    "duration": 0.07370999999999839
                },
                {
                    "name": "G4",
                    "midi": 67,
                    "time": 31.69529999999986,
                    "velocity": 0.3937007874015748,
                    "duration": 0.07370999999999839
                },
                {
                    "name": "G5",
                    "midi": 79,
                    "time": 31.842719999999858,
                    "velocity": 0.4330708661417323,
                    "duration": 0.14742000000000033
                },
                {
                    "name": "G4",
                    "midi": 67,
                    "time": 31.842719999999858,
                    "velocity": 0.4330708661417323,
                    "duration": 0.14742000000000033
                },
                {
                    "name": "F5",
                    "midi": 77,
                    "time": 31.990139999999858,
                    "velocity": 0.3779527559055118,
                    "duration": 0.14742000000000033
                },
                {
                    "name": "F4",
                    "midi": 65,
                    "time": 31.990139999999858,
                    "velocity": 0.3779527559055118,
                    "duration": 0.14742000000000033
                },
                {
                    "name": "D#5",
                    "midi": 75,
                    "time": 32.13755999999986,
                    "velocity": 0.3779527559055118,
                    "duration": 0.07370999999999839
                },
                {
                    "name": "D#4",
                    "midi": 63,
                    "time": 32.13755999999986,
                    "velocity": 0.3779527559055118,
                    "duration": 0.07370999999999839
                },
                {
                    "name": "D5",
                    "midi": 74,
                    "time": 32.284979999999855,
                    "velocity": 0.3779527559055118,
                    "duration": 0.07370999999999839
                },
                {
                    "name": "D4",
                    "midi": 62,
                    "time": 32.284979999999855,
                    "velocity": 0.3779527559055118,
                    "duration": 0.07370999999999839
                },
                {
                    "name": "C4",
                    "midi": 60,
                    "time": 32.43239999999985,
                    "velocity": 0.4330708661417323,
                    "duration": 0.07370999999999839
                },
                {
                    "name": "C5",
                    "midi": 72,
                    "time": 32.43239999999985,
                    "velocity": 0.4330708661417323,
                    "duration": 0.07370999999999839
                },
                {
                    "name": "A#3",
                    "midi": 58,
                    "time": 32.57981999999985,
                    "velocity": 0.3779527559055118,
                    "duration": 0.07370999999999839
                },
                {
                    "name": "A#4",
                    "midi": 70,
                    "time": 32.57981999999985,
                    "velocity": 0.3779527559055118,
                    "duration": 0.07370999999999839
                },
                {
                    "name": "C4",
                    "midi": 60,
                    "time": 32.727239999999846,
                    "velocity": 0.3779527559055118,
                    "duration": 0.07370999999999839
                },
                {
                    "name": "C5",
                    "midi": 72,
                    "time": 32.727239999999846,
                    "velocity": 0.3779527559055118,
                    "duration": 0.07370999999999839
                },
                {
                    "name": "D4",
                    "midi": 62,
                    "time": 32.87465999999984,
                    "velocity": 0.3779527559055118,
                    "duration": 0.07370999999999839
                },
                {
                    "name": "D5",
                    "midi": 74,
                    "time": 32.87465999999984,
                    "velocity": 0.3779527559055118,
                    "duration": 0.07370999999999839
                },
                {
                    "name": "D#4",
                    "midi": 63,
                    "time": 33.02207999999984,
                    "velocity": 0.3779527559055118,
                    "duration": 0.07370999999999839
                },
                {
                    "name": "D#5",
                    "midi": 75,
                    "time": 33.09578999999984,
                    "velocity": 0.33858267716535434,
                    "duration": 0.07370999999999839
                },
                {
                    "name": "D#4",
                    "midi": 63,
                    "time": 33.169499999999836,
                    "velocity": 0.3779527559055118,
                    "duration": 0.07370999999999839
                },
                {
                    "name": "D#5",
                    "midi": 75,
                    "time": 33.243209999999834,
                    "velocity": 0.33070866141732286,
                    "duration": 0.07370999999999839
                },
                {
                    "name": "D#4",
                    "midi": 63,
                    "time": 33.31691999999983,
                    "velocity": 0.3858267716535433,
                    "duration": 0.07370999999999839
                },
                {
                    "name": "D#5",
                    "midi": 75,
                    "time": 33.39062999999983,
                    "velocity": 0.33858267716535434,
                    "duration": 0.07370999999999839
                },
                {
                    "name": "D#4",
                    "midi": 63,
                    "time": 33.46433999999983,
                    "velocity": 0.3937007874015748,
                    "duration": 0.07370999999999839
                },
                {
                    "name": "D#5",
                    "midi": 75,
                    "time": 33.53804999999983,
                    "velocity": 0.3543307086614173,
                    "duration": 0.07370999999999839
                },
                {
                    "name": "D#4",
                    "midi": 63,
                    "time": 33.611759999999826,
                    "velocity": 0.4015748031496063,
                    "duration": 0.07370999999999839
                },
                {
                    "name": "D#5",
                    "midi": 75,
                    "time": 33.685469999999825,
                    "velocity": 0.3464566929133858,
                    "duration": 0.07370999999999839
                },
                {
                    "name": "D#4",
                    "midi": 63,
                    "time": 33.75917999999982,
                    "velocity": 0.4094488188976378,
                    "duration": 0.07370999999999839
                },
                {
                    "name": "D#5",
                    "midi": 75,
                    "time": 33.83288999999982,
                    "velocity": 0.3700787401574803,
                    "duration": 0.07370999999999839
                },
                {
                    "name": "D#4",
                    "midi": 63,
                    "time": 33.90659999999982,
                    "velocity": 0.41732283464566927,
                    "duration": 0.07370999999999839
                },
                {
                    "name": "D#5",
                    "midi": 75,
                    "time": 33.98030999999982,
                    "velocity": 0.3700787401574803,
                    "duration": 0.07370999999999839
                },
                {
                    "name": "D#4",
                    "midi": 63,
                    "time": 34.05401999999982,
                    "velocity": 0.41732283464566927,
                    "duration": 0.07370999999999839
                },
                {
                    "name": "D#5",
                    "midi": 75,
                    "time": 34.127729999999815,
                    "velocity": 0.3700787401574803,
                    "duration": 0.07370999999999839
                },
                {
                    "name": "D#4",
                    "midi": 63,
                    "time": 34.20143999999981,
                    "velocity": 0.4251968503937008,
                    "duration": 0.07370999999999839
                },
                {
                    "name": "D#5",
                    "midi": 75,
                    "time": 34.27514999999981,
                    "velocity": 0.3779527559055118,
                    "duration": 0.07370999999999839
                },
                {
                    "name": "D#4",
                    "midi": 63,
                    "time": 34.34885999999981,
                    "velocity": 0.4330708661417323,
                    "duration": 0.07370999999999839
                },
                {
                    "name": "D#5",
                    "midi": 75,
                    "time": 34.42256999999981,
                    "velocity": 0.3779527559055118,
                    "duration": 0.07370999999999839
                },
                {
                    "name": "D#4",
                    "midi": 63,
                    "time": 34.49627999999981,
                    "velocity": 0.4330708661417323,
                    "duration": 0.07370999999999839
                },
                {
                    "name": "D#5",
                    "midi": 75,
                    "time": 34.569989999999805,
                    "velocity": 0.3779527559055118,
                    "duration": 0.07370999999999839
                },
                {
                    "name": "D#4",
                    "midi": 63,
                    "time": 34.643699999999804,
                    "velocity": 0.4409448818897638,
                    "duration": 0.07370999999999839
                },
                {
                    "name": "D#5",
                    "midi": 75,
                    "time": 34.7174099999998,
                    "velocity": 0.4015748031496063,
                    "duration": 0.07370999999999839
                },
                {
                    "name": "D#4",
                    "midi": 63,
                    "time": 34.7911199999998,
                    "velocity": 0.44881889763779526,
                    "duration": 0.07370999999999839
                },
                {
                    "name": "D#5",
                    "midi": 75,
                    "time": 34.8648299999998,
                    "velocity": 0.3858267716535433,
                    "duration": 0.07370999999999839
                },
                {
                    "name": "D#4",
                    "midi": 63,
                    "time": 34.9385399999998,
                    "velocity": 0.4566929133858268,
                    "duration": 0.07370999999999839
                },
                {
                    "name": "D#5",
                    "midi": 75,
                    "time": 35.012249999999796,
                    "velocity": 0.41732283464566927,
                    "duration": 0.07370999999999839
                },
                {
                    "name": "D#4",
                    "midi": 63,
                    "time": 35.085959999999794,
                    "velocity": 0.4645669291338583,
                    "duration": 0.07370999999999839
                },
                {
                    "name": "D#5",
                    "midi": 75,
                    "time": 35.15966999999979,
                    "velocity": 0.4251968503937008,
                    "duration": 0.07370999999999839
                },
                {
                    "name": "D#4",
                    "midi": 63,
                    "time": 35.23337999999979,
                    "velocity": 0.47244094488188976,
                    "duration": 0.07370999999999839
                },
                {
                    "name": "D#5",
                    "midi": 75,
                    "time": 35.30708999999979,
                    "velocity": 0.4251968503937008,
                    "duration": 0.07370999999999839
                },
                {
                    "name": "D#4",
                    "midi": 63,
                    "time": 35.38079999999979,
                    "velocity": 0.5511811023622047,
                    "duration": 0.29484000000000066
                },
                {
                    "name": "D#5",
                    "midi": 75,
                    "time": 35.38079999999979,
                    "velocity": 0.5511811023622047,
                    "duration": 0.29484000000000066
                },
                {
                    "name": "D#5",
                    "midi": 75,
                    "time": 35.823059999999785,
                    "velocity": 0.5826771653543307,
                    "duration": 0.14741999999999678
                },
                {
                    "name": "D5",
                    "midi": 74,
                    "time": 35.97047999999978,
                    "velocity": 0.6614173228346457,
                    "duration": 0.14741999999999678
                },
                {
                    "name": "D#5",
                    "midi": 75,
                    "time": 36.11789999999978,
                    "velocity": 0.6062992125984252,
                    "duration": 0.14741999999999678
                },
                {
                    "name": "C6",
                    "midi": 84,
                    "time": 36.265319999999775,
                    "velocity": 0.6771653543307087,
                    "duration": 0.07370999999999839
                },
                {
                    "name": "G#5",
                    "midi": 80,
                    "time": 36.265319999999775,
                    "velocity": 0.6771653543307087,
                    "duration": 0.07370999999999839
                },
                {
                    "name": "G#5",
                    "midi": 80,
                    "time": 36.41273999999977,
                    "velocity": 0.6220472440944882,
                    "duration": 0.07370999999999839
                },
                {
                    "name": "C6",
                    "midi": 84,
                    "time": 36.41273999999977,
                    "velocity": 0.6220472440944882,
                    "duration": 0.07370999999999839
                },
                {
                    "name": "G#5",
                    "midi": 80,
                    "time": 36.56015999999977,
                    "velocity": 0.7244094488188977,
                    "duration": 0.29484000000000066
                },
                {
                    "name": "C6",
                    "midi": 84,
                    "time": 36.56015999999977,
                    "velocity": 0.7244094488188977,
                    "duration": 0.36854999999999905
                },
                {
                    "name": "A#5",
                    "midi": 82,
                    "time": 36.92870999999977,
                    "velocity": 0.5826771653543307,
                    "duration": 0.07370999999999839
                },
                {
                    "name": "G#5",
                    "midi": 80,
                    "time": 37.002419999999766,
                    "velocity": 0.5748031496062992,
                    "duration": 0.07370999999999839
                },
                {
                    "name": "G5",
                    "midi": 79,
                    "time": 37.076129999999765,
                    "velocity": 0.5669291338582677,
                    "duration": 0.07370999999999839
                },
                {
                    "name": "F5",
                    "midi": 77,
                    "time": 37.14983999999976,
                    "velocity": 0.5669291338582677,
                    "duration": 0.07370999999999839
                },
                {
                    "name": "D#5",
                    "midi": 75,
                    "time": 37.22354999999976,
                    "velocity": 0.5669291338582677,
                    "duration": 0.07370999999999839
                },
                {
                    "name": "D5",
                    "midi": 74,
                    "time": 37.29725999999976,
                    "velocity": 0.5590551181102362,
                    "duration": 0.07370999999999839
                },
                {
                    "name": "C5",
                    "midi": 72,
                    "time": 37.37096999999976,
                    "velocity": 0.5511811023622047,
                    "duration": 0.07370999999999839
                },
                {
                    "name": "B4",
                    "midi": 71,
                    "time": 37.44467999999976,
                    "velocity": 0.5433070866141733,
                    "duration": 0.07370999999999839
                },
                {
                    "name": "A#4",
                    "midi": 70,
                    "time": 37.518389999999755,
                    "velocity": 0.5354330708661418,
                    "duration": 0.07370999999999839
                },
                {
                    "name": "A4",
                    "midi": 69,
                    "time": 37.59209999999975,
                    "velocity": 0.5275590551181102,
                    "duration": 0.07370999999999839
                },
                {
                    "name": "G#4",
                    "midi": 68,
                    "time": 37.66580999999975,
                    "velocity": 0.5196850393700787,
                    "duration": 0.07370999999999839
                },
                {
                    "name": "G4",
                    "midi": 67,
                    "time": 37.73951999999975,
                    "velocity": 0.5196850393700787,
                    "duration": 0.09828000000000259
                },
                {
                    "name": "G#4",
                    "midi": 68,
                    "time": 37.83779999999975,
                    "velocity": 0.4881889763779528,
                    "duration": 0.09828000000000259
                },
                {
                    "name": "A#4",
                    "midi": 70,
                    "time": 37.936079999999755,
                    "velocity": 0.4881889763779528,
                    "duration": 0.09828000000000259
                },
                {
                    "name": "G#4",
                    "midi": 68,
                    "time": 38.03435999999976,
                    "velocity": 0.5196850393700787,
                    "duration": 0.09828000000000259
                },
                {
                    "name": "G4",
                    "midi": 67,
                    "time": 38.13263999999976,
                    "velocity": 0.4881889763779528,
                    "duration": 0.09828000000000259
                },
                {
                    "name": "F4",
                    "midi": 65,
                    "time": 38.23091999999976,
                    "velocity": 0.4881889763779528,
                    "duration": 0.09828000000000259
                },
                {
                    "name": "D#4",
                    "midi": 63,
                    "time": 38.329199999999766,
                    "velocity": 0.5196850393700787,
                    "duration": 0.09828000000000259
                },
                {
                    "name": "D4",
                    "midi": 62,
                    "time": 38.42747999999977,
                    "velocity": 0.4881889763779528,
                    "duration": 0.09828000000000259
                },
                {
                    "name": "C4",
                    "midi": 60,
                    "time": 38.52575999999977,
                    "velocity": 0.4881889763779528,
                    "duration": 0.09828000000000259
                },
                {
                    "name": "A#3",
                    "midi": 58,
                    "time": 38.62403999999977,
                    "velocity": 0.5196850393700787,
                    "duration": 0.09828000000000259
                },
                {
                    "name": "G#3",
                    "midi": 56,
                    "time": 38.722319999999776,
                    "velocity": 0.47244094488188976,
                    "duration": 0.09828000000000259
                },
                {
                    "name": "G3",
                    "midi": 55,
                    "time": 38.82059999999978,
                    "velocity": 0.49606299212598426,
                    "duration": 0.09828000000000259
                },
                {
                    "name": "F3",
                    "midi": 53,
                    "time": 38.99258999999978,
                    "velocity": 0.4645669291338583,
                    "duration": 0.07370999999999839
                },
                {
                    "name": "G#3",
                    "midi": 56,
                    "time": 39.06629999999978,
                    "velocity": 0.49606299212598426,
                    "duration": 0.07370999999999839
                },
                {
                    "name": "C4",
                    "midi": 60,
                    "time": 39.140009999999776,
                    "velocity": 0.5275590551181102,
                    "duration": 0.07370999999999839
                },
                {
                    "name": "F4",
                    "midi": 65,
                    "time": 39.213719999999775,
                    "velocity": 0.5669291338582677,
                    "duration": 0.14741999999999678
                },
                {
                    "name": "F3",
                    "midi": 53,
                    "time": 39.582269999999774,
                    "velocity": 0.49606299212598426,
                    "duration": 0.07370999999999839
                },
                {
                    "name": "G#3",
                    "midi": 56,
                    "time": 39.65597999999977,
                    "velocity": 0.5196850393700787,
                    "duration": 0.07370999999999839
                },
                {
                    "name": "A#3",
                    "midi": 58,
                    "time": 39.72968999999977,
                    "velocity": 0.5433070866141733,
                    "duration": 0.07370999999999839
                },
                {
                    "name": "D4",
                    "midi": 62,
                    "time": 39.80339999999977,
                    "velocity": 0.5669291338582677,
                    "duration": 0.14741999999999678
                },
                {
                    "name": "D5",
                    "midi": 74,
                    "time": 40.09823999999976,
                    "velocity": 0.5275590551181102,
                    "duration": 0.07370999999999839
                },
                {
                    "name": "D6",
                    "midi": 86,
                    "time": 40.17194999999976,
                    "velocity": 0.47244094488188976,
                    "duration": 0.07370999999999839
                },
                {
                    "name": "D5",
                    "midi": 74,
                    "time": 40.24565999999976,
                    "velocity": 0.5275590551181102,
                    "duration": 0.07370999999999839
                },
                {
                    "name": "D6",
                    "midi": 86,
                    "time": 40.31936999999976,
                    "velocity": 0.47244094488188976,
                    "duration": 0.07370999999999839
                },
                {
                    "name": "D5",
                    "midi": 74,
                    "time": 40.393079999999756,
                    "velocity": 0.5275590551181102,
                    "duration": 0.07370999999999839
                },
                {
                    "name": "D6",
                    "midi": 86,
                    "time": 40.466789999999754,
                    "velocity": 0.4645669291338583,
                    "duration": 0.07370999999999839
                },
                {
                    "name": "D5",
                    "midi": 74,
                    "time": 40.54049999999975,
                    "velocity": 0.5275590551181102,
                    "duration": 0.07370999999999839
                },
                {
                    "name": "D6",
                    "midi": 86,
                    "time": 40.61420999999975,
                    "velocity": 0.48031496062992124,
                    "duration": 0.07370999999999839
                },
                {
                    "name": "D5",
                    "midi": 74,
                    "time": 40.68791999999975,
                    "velocity": 0.5275590551181102,
                    "duration": 0.07370999999999839
                },
                {
                    "name": "D6",
                    "midi": 86,
                    "time": 40.76162999999975,
                    "velocity": 0.4645669291338583,
                    "duration": 0.07370999999999839
                },
                {
                    "name": "D5",
                    "midi": 74,
                    "time": 40.835339999999746,
                    "velocity": 0.5275590551181102,
                    "duration": 0.07370999999999839
                },
                {
                    "name": "D6",
                    "midi": 86,
                    "time": 40.909049999999745,
                    "velocity": 0.4645669291338583,
                    "duration": 0.07370999999999839
                },
                {
                    "name": "D5",
                    "midi": 74,
                    "time": 40.98275999999974,
                    "velocity": 0.5275590551181102,
                    "duration": 0.07370999999999839
                },
                {
                    "name": "D6",
                    "midi": 86,
                    "time": 41.05646999999974,
                    "velocity": 0.4645669291338583,
                    "duration": 0.07370999999999839
                },
                {
                    "name": "D5",
                    "midi": 74,
                    "time": 41.13017999999974,
                    "velocity": 0.5275590551181102,
                    "duration": 0.07370999999999839
                },
                {
                    "name": "D6",
                    "midi": 86,
                    "time": 41.20388999999974,
                    "velocity": 0.47244094488188976,
                    "duration": 0.07370999999999839
                },
                {
                    "name": "D#5",
                    "midi": 75,
                    "time": 41.27759999999974,
                    "velocity": 0.5275590551181102,
                    "duration": 0.07370999999999839
                },
                {
                    "name": "D#6",
                    "midi": 87,
                    "time": 41.351309999999735,
                    "velocity": 0.47244094488188976,
                    "duration": 0.07370999999999839
                },
                {
                    "name": "D#5",
                    "midi": 75,
                    "time": 41.42501999999973,
                    "velocity": 0.5433070866141733,
                    "duration": 0.07370999999999839
                },
                {
                    "name": "D#6",
                    "midi": 87,
                    "time": 41.49872999999973,
                    "velocity": 0.4881889763779528,
                    "duration": 0.07370999999999839
                },
                {
                    "name": "D#5",
                    "midi": 75,
                    "time": 41.57243999999973,
                    "velocity": 0.5590551181102362,
                    "duration": 0.07370999999999839
                },
                {
                    "name": "D#6",
                    "midi": 87,
                    "time": 41.64614999999973,
                    "velocity": 0.49606299212598426,
                    "duration": 0.07370999999999839
                },
                {
                    "name": "D#5",
                    "midi": 75,
                    "time": 41.71985999999973,
                    "velocity": 0.5669291338582677,
                    "duration": 0.07370999999999839
                },
                {
                    "name": "D#6",
                    "midi": 87,
                    "time": 41.793569999999725,
                    "velocity": 0.5275590551181102,
                    "duration": 0.07370999999999839
                },
                {
                    "name": "D#5",
                    "midi": 75,
                    "time": 41.867279999999724,
                    "velocity": 0.5905511811023622,
                    "duration": 0.07370999999999839
                },
                {
                    "name": "D#6",
                    "midi": 87,
                    "time": 41.94098999999972,
                    "velocity": 0.5275590551181102,
                    "duration": 0.07370999999999839
                },
                {
                    "name": "D#5",
                    "midi": 75,
                    "time": 42.01469999999972,
                    "velocity": 0.6062992125984252,
                    "duration": 0.07370999999999839
                },
                {
                    "name": "D#6",
                    "midi": 87,
                    "time": 42.08840999999972,
                    "velocity": 0.5433070866141733,
                    "duration": 0.07370999999999839
                },
                {
                    "name": "E5",
                    "midi": 76,
                    "time": 42.16211999999972,
                    "velocity": 0.6299212598425197,
                    "duration": 0.07370999999999839
                },
                {
                    "name": "E6",
                    "midi": 88,
                    "time": 42.235829999999716,
                    "velocity": 0.5590551181102362,
                    "duration": 0.07370999999999839
                },
                {
                    "name": "E5",
                    "midi": 76,
                    "time": 42.309539999999714,
                    "velocity": 0.6377952755905512,
                    "duration": 0.07370999999999839
                },
                {
                    "name": "E6",
                    "midi": 88,
                    "time": 42.38324999999971,
                    "velocity": 0.5748031496062992,
                    "duration": 0.07370999999999839
                },
                {
                    "name": "F5",
                    "midi": 77,
                    "time": 42.53066999999971,
                    "velocity": 0.5590551181102362,
                    "duration": 0.07370999999999839
                },
                {
                    "name": "G#5",
                    "midi": 80,
                    "time": 42.60437999999971,
                    "velocity": 0.5984251968503937,
                    "duration": 0.07370999999999839
                },
                {
                    "name": "C6",
                    "midi": 84,
                    "time": 42.678089999999706,
                    "velocity": 0.6377952755905512,
                    "duration": 0.07370999999999839
                },
                {
                    "name": "F6",
                    "midi": 89,
                    "time": 42.751799999999704,
                    "velocity": 0.6771653543307087,
                    "duration": 0.14741999999999678
                },
                {
                    "name": "D5",
                    "midi": 74,
                    "time": 43.1203499999997,
                    "velocity": 0.5905511811023622,
                    "duration": 0.07370999999999839
                },
                {
                    "name": "F5",
                    "midi": 77,
                    "time": 43.1940599999997,
                    "velocity": 0.6220472440944882,
                    "duration": 0.07370999999999839
                },
                {
                    "name": "G#5",
                    "midi": 80,
                    "time": 43.2677699999997,
                    "velocity": 0.6456692913385826,
                    "duration": 0.07370999999999839
                },
                {
                    "name": "D6",
                    "midi": 86,
                    "time": 43.3414799999997,
                    "velocity": 0.6771653543307087,
                    "duration": 0.14741999999999678
                },
                {
                    "name": "D#5",
                    "midi": 75,
                    "time": 43.63631999999969,
                    "velocity": 0.6299212598425197,
                    "duration": 0.29484000000000066
                },
                {
                    "name": "A#5",
                    "midi": 82,
                    "time": 43.63631999999969,
                    "velocity": 0.6299212598425197,
                    "duration": 0.29484000000000066
                },
                {
                    "name": "G5",
                    "midi": 79,
                    "time": 43.63631999999969,
                    "velocity": 0.6299212598425197,
                    "duration": 0.29484000000000066
                },
                {
                    "name": "D#6",
                    "midi": 87,
                    "time": 43.63631999999969,
                    "velocity": 0.7401574803149606,
                    "duration": 0.29484000000000066
                },
                {
                    "name": "A#5",
                    "midi": 82,
                    "time": 43.93115999999969,
                    "velocity": 0.49606299212598426,
                    "duration": 0.07370999999999839
                },
                {
                    "name": "A#5",
                    "midi": 82,
                    "time": 44.07857999999969,
                    "velocity": 0.49606299212598426,
                    "duration": 0.07370999999999839
                },
                {
                    "name": "A#5",
                    "midi": 82,
                    "time": 44.22599999999969,
                    "velocity": 0.5511811023622047,
                    "duration": 0.14741999999999678
                },
                {
                    "name": "A#5",
                    "midi": 82,
                    "time": 44.52083999999968,
                    "velocity": 0.49606299212598426,
                    "duration": 0.07370999999999839
                },
                {
                    "name": "A#5",
                    "midi": 82,
                    "time": 44.66825999999968,
                    "velocity": 0.49606299212598426,
                    "duration": 0.07370999999999839
                },
                {
                    "name": "A#5",
                    "midi": 82,
                    "time": 44.815679999999674,
                    "velocity": 0.5433070866141733,
                    "duration": 0.14741999999999678
                },
                {
                    "name": "F3",
                    "midi": 53,
                    "time": 45.11051999999967,
                    "velocity": 0.47244094488188976,
                    "duration": 0.14741999999999678
                },
                {
                    "name": "G#3",
                    "midi": 56,
                    "time": 45.11051999999967,
                    "velocity": 0.47244094488188976,
                    "duration": 0.14741999999999678
                },
                {
                    "name": "D4",
                    "midi": 62,
                    "time": 45.11051999999967,
                    "velocity": 0.5669291338582677,
                    "duration": 0.14741999999999678
                },
                {
                    "name": "F3",
                    "midi": 53,
                    "time": 45.70019999999966,
                    "velocity": 0.25984251968503935,
                    "duration": 0.07370999999999839
                },
                {
                    "name": "G#3",
                    "midi": 56,
                    "time": 45.70019999999966,
                    "velocity": 0.25984251968503935,
                    "duration": 0.07370999999999839
                },
                {
                    "name": "D4",
                    "midi": 62,
                    "time": 45.70019999999966,
                    "velocity": 0.30708661417322836,
                    "duration": 0.07370999999999839
                },
                {
                    "name": "G3",
                    "midi": 55,
                    "time": 45.99503999999966,
                    "velocity": 0.29133858267716534,
                    "duration": 0.07370999999999839
                },
                {
                    "name": "D#4",
                    "midi": 63,
                    "time": 45.99503999999966,
                    "velocity": 0.3543307086614173,
                    "duration": 0.07370999999999839
                },
                {
                    "name": "C4",
                    "midi": 60,
                    "time": 46.28987999999966,
                    "velocity": 0.2755905511811024,
                    "duration": 0.07370999999999839
                },
                {
                    "name": "D#4",
                    "midi": 63,
                    "time": 46.28987999999966,
                    "velocity": 0.2755905511811024,
                    "duration": 0.07370999999999839
                },
                {
                    "name": "F4",
                    "midi": 65,
                    "time": 46.28987999999966,
                    "velocity": 0.3228346456692913,
                    "duration": 0.07370999999999839
                },
                {
                    "name": "A#3",
                    "midi": 58,
                    "time": 46.58471999999966,
                    "velocity": 0.29133858267716534,
                    "duration": 0.07370999999999839
                },
                {
                    "name": "D#4",
                    "midi": 63,
                    "time": 46.58471999999966,
                    "velocity": 0.29133858267716534,
                    "duration": 0.07370999999999839
                },
                {
                    "name": "G4",
                    "midi": 67,
                    "time": 46.58471999999966,
                    "velocity": 0.3543307086614173,
                    "duration": 0.07370999999999839
                },
                {
                    "name": "G#3",
                    "midi": 56,
                    "time": 46.879559999999664,
                    "velocity": 0.25984251968503935,
                    "duration": 0.07370999999999839
                },
                {
                    "name": "D4",
                    "midi": 62,
                    "time": 46.879559999999664,
                    "velocity": 0.25984251968503935,
                    "duration": 0.07370999999999839
                },
                {
                    "name": "F4",
                    "midi": 65,
                    "time": 46.879559999999664,
                    "velocity": 0.30708661417322836,
                    "duration": 0.07370999999999839
                },
                {
                    "name": "G3",
                    "midi": 55,
                    "time": 47.174399999999665,
                    "velocity": 0.29133858267716534,
                    "duration": 0.07370999999999839
                },
                {
                    "name": "D#4",
                    "midi": 63,
                    "time": 47.174399999999665,
                    "velocity": 0.3543307086614173,
                    "duration": 0.07370999999999839
                },
                {
                    "name": "A#5",
                    "midi": 82,
                    "time": 47.469239999999665,
                    "velocity": 0.49606299212598426,
                    "duration": 0.07370999999999839
                },
                {
                    "name": "C6",
                    "midi": 84,
                    "time": 47.542949999999664,
                    "velocity": 0.4645669291338583,
                    "duration": 0.07370999999999839
                },
                {
                    "name": "A#5",
                    "midi": 82,
                    "time": 47.61665999999966,
                    "velocity": 0.49606299212598426,
                    "duration": 0.07370999999999839
                },
                {
                    "name": "A5",
                    "midi": 81,
                    "time": 47.69036999999966,
                    "velocity": 0.4645669291338583,
                    "duration": 0.07370999999999839
                },
                {
                    "name": "A#5",
                    "midi": 82,
                    "time": 47.76407999999966,
                    "velocity": 0.5511811023622047,
                    "duration": 0.14741999999999678
                },
                {
                    "name": "A#5",
                    "midi": 82,
                    "time": 48.05891999999965,
                    "velocity": 0.49606299212598426,
                    "duration": 0.07370999999999839
                },
                {
                    "name": "C6",
                    "midi": 84,
                    "time": 48.13262999999965,
                    "velocity": 0.4566929133858268,
                    "duration": 0.07370999999999839
                },
                {
                    "name": "A#5",
                    "midi": 82,
                    "time": 48.20633999999965,
                    "velocity": 0.49606299212598426,
                    "duration": 0.07370999999999839
                },
                {
                    "name": "A5",
                    "midi": 81,
                    "time": 48.28004999999965,
                    "velocity": 0.44881889763779526,
                    "duration": 0.07370999999999839
                },
                {
                    "name": "A#5",
                    "midi": 82,
                    "time": 48.353759999999646,
                    "velocity": 0.5433070866141733,
                    "duration": 0.14741999999999678
                },
                {
                    "name": "F3",
                    "midi": 53,
                    "time": 48.64859999999964,
                    "velocity": 0.47244094488188976,
                    "duration": 0.14741999999999678
                },
                {
                    "name": "G#3",
                    "midi": 56,
                    "time": 48.64859999999964,
                    "velocity": 0.47244094488188976,
                    "duration": 0.14741999999999678
                },
                {
                    "name": "D4",
                    "midi": 62,
                    "time": 48.64859999999964,
                    "velocity": 0.5669291338582677,
                    "duration": 0.14741999999999678
                },
                {
                    "name": "D#3",
                    "midi": 51,
                    "time": 49.238279999999634,
                    "velocity": 0.4330708661417323,
                    "duration": 0.5896800000000013
                },
                {
                    "name": "F#3",
                    "midi": 54,
                    "time": 49.238279999999634,
                    "velocity": 0.4330708661417323,
                    "duration": 0.5896800000000013
                },
                {
                    "name": "A3",
                    "midi": 57,
                    "time": 49.238279999999634,
                    "velocity": 0.4330708661417323,
                    "duration": 0.5896800000000013
                },
                {
                    "name": "D#4",
                    "midi": 63,
                    "time": 49.238279999999634,
                    "velocity": 0.5196850393700787,
                    "duration": 0.5896800000000013
                },
                {
                    "name": "C4",
                    "midi": 60,
                    "time": 49.827959999999635,
                    "velocity": 0.2755905511811024,
                    "duration": 0.07370999999999839
                },
                {
                    "name": "D#4",
                    "midi": 63,
                    "time": 49.827959999999635,
                    "velocity": 0.2755905511811024,
                    "duration": 0.07370999999999839
                },
                {
                    "name": "F4",
                    "midi": 65,
                    "time": 49.827959999999635,
                    "velocity": 0.3228346456692913,
                    "duration": 0.07370999999999839
                },
                {
                    "name": "A#3",
                    "midi": 58,
                    "time": 50.122799999999636,
                    "velocity": 0.29133858267716534,
                    "duration": 0.07370999999999839
                },
                {
                    "name": "D#4",
                    "midi": 63,
                    "time": 50.122799999999636,
                    "velocity": 0.29133858267716534,
                    "duration": 0.07370999999999839
                },
                {
                    "name": "G4",
                    "midi": 67,
                    "time": 50.122799999999636,
                    "velocity": 0.3543307086614173,
                    "duration": 0.07370999999999839
                },
                {
                    "name": "G#3",
                    "midi": 56,
                    "time": 50.417639999999636,
                    "velocity": 0.25984251968503935,
                    "duration": 0.07370999999999839
                },
                {
                    "name": "D4",
                    "midi": 62,
                    "time": 50.417639999999636,
                    "velocity": 0.25984251968503935,
                    "duration": 0.07370999999999839
                },
                {
                    "name": "F4",
                    "midi": 65,
                    "time": 50.417639999999636,
                    "velocity": 0.30708661417322836,
                    "duration": 0.07370999999999839
                },
                {
                    "name": "G3",
                    "midi": 55,
                    "time": 50.71247999999964,
                    "velocity": 0.29133858267716534,
                    "duration": 0.14741999999999678
                },
                {
                    "name": "D#4",
                    "midi": 63,
                    "time": 50.71247999999964,
                    "velocity": 0.3543307086614173,
                    "duration": 0.14741999999999678
                },
                {
                    "name": "D4",
                    "midi": 62,
                    "time": 51.00731999999963,
                    "velocity": 0.23622047244094488,
                    "duration": 0.14741999999999678
                },
                {
                    "name": "G#4",
                    "midi": 68,
                    "time": 51.00731999999963,
                    "velocity": 0.28346456692913385,
                    "duration": 0.14741999999999678
                },
                {
                    "name": "D#4",
                    "midi": 63,
                    "time": 51.15473999999963,
                    "velocity": 0.2125984251968504,
                    "duration": 0.14741999999999678
                },
                {
                    "name": "G4",
                    "midi": 67,
                    "time": 51.15473999999963,
                    "velocity": 0.25196850393700787,
                    "duration": 0.14741999999999678
                },
                {
                    "name": "G#4",
                    "midi": 68,
                    "time": 51.596999999999625,
                    "velocity": 0.2440944881889764,
                    "duration": 0.14741999999999678
                },
                {
                    "name": "D5",
                    "midi": 74,
                    "time": 51.596999999999625,
                    "velocity": 0.29133858267716534,
                    "duration": 0.14741999999999678
                },
                {
                    "name": "G4",
                    "midi": 67,
                    "time": 51.74441999999962,
                    "velocity": 0.2125984251968504,
                    "duration": 0.14741999999999678
                },
                {
                    "name": "D#5",
                    "midi": 75,
                    "time": 51.74441999999962,
                    "velocity": 0.25196850393700787,
                    "duration": 0.14741999999999678
                },
                {
                    "name": "G#5",
                    "midi": 80,
                    "time": 52.18667999999962,
                    "velocity": 0.29133858267716534,
                    "duration": 0.14741999999999678
                },
                {
                    "name": "D5",
                    "midi": 74,
                    "time": 52.18667999999962,
                    "velocity": 0.2440944881889764,
                    "duration": 0.14741999999999678
                },
                {
                    "name": "D#5",
                    "midi": 75,
                    "time": 52.334099999999616,
                    "velocity": 0.2125984251968504,
                    "duration": 0.14741999999999678
                },
                {
                    "name": "G5",
                    "midi": 79,
                    "time": 52.334099999999616,
                    "velocity": 0.25196850393700787,
                    "duration": 0.14741999999999678
                },
                {
                    "name": "D6",
                    "midi": 86,
                    "time": 52.77635999999961,
                    "velocity": 0.33858267716535434,
                    "duration": 0.14741999999999678
                },
                {
                    "name": "G#5",
                    "midi": 80,
                    "time": 52.77635999999961,
                    "velocity": 0.28346456692913385,
                    "duration": 0.14741999999999678
                },
                {
                    "name": "G5",
                    "midi": 79,
                    "time": 52.92377999999961,
                    "velocity": 0.23622047244094488,
                    "duration": 0.14741999999999678
                },
                {
                    "name": "D#6",
                    "midi": 87,
                    "time": 52.92377999999961,
                    "velocity": 0.28346456692913385,
                    "duration": 0.14741999999999678
                },
                {
                    "name": "G3",
                    "midi": 55,
                    "time": 53.36603999999961,
                    "velocity": 0.3779527559055118,
                    "duration": 0.29484000000000066
                },
                {
                    "name": "A#3",
                    "midi": 58,
                    "time": 53.36603999999961,
                    "velocity": 0.3779527559055118,
                    "duration": 0.29484000000000066
                },
                {
                    "name": "D#4",
                    "midi": 63,
                    "time": 53.36603999999961,
                    "velocity": 0.44881889763779526,
                    "duration": 0.29484000000000066
                },
                {
                    "name": "C4",
                    "midi": 60,
                    "time": 54.69281999999961,
                    "velocity": 0.31496062992125984,
                    "duration": 0.14741999999999678
                },
                {
                    "name": "B3",
                    "midi": 59,
                    "time": 54.8402399999996,
                    "velocity": 0.3543307086614173,
                    "duration": 0.14741999999999678
                },
                {
                    "name": "C4",
                    "midi": 60,
                    "time": 54.9876599999996,
                    "velocity": 0.31496062992125984,
                    "duration": 0.14741999999999678
                },
                {
                    "name": "F4",
                    "midi": 65,
                    "time": 55.1350799999996,
                    "velocity": 0.3543307086614173,
                    "duration": 0.07370999999999839
                },
                {
                    "name": "F4",
                    "midi": 65,
                    "time": 55.282499999999594,
                    "velocity": 0.2992125984251969,
                    "duration": 0.07370999999999839
                },
                {
                    "name": "D#4",
                    "midi": 63,
                    "time": 55.42991999999959,
                    "velocity": 0.3543307086614173,
                    "duration": 0.29484000000000066
                },
                {
                    "name": "C4",
                    "midi": 60,
                    "time": 55.87217999999959,
                    "velocity": 0.31496062992125984,
                    "duration": 0.14741999999999678
                },
                {
                    "name": "B3",
                    "midi": 59,
                    "time": 56.019599999999585,
                    "velocity": 0.3543307086614173,
                    "duration": 0.14741999999999678
                },
                {
                    "name": "C4",
                    "midi": 60,
                    "time": 56.16701999999958,
                    "velocity": 0.31496062992125984,
                    "duration": 0.14741999999999678
                },
                {
                    "name": "G#4",
                    "midi": 68,
                    "time": 56.31443999999958,
                    "velocity": 0.3543307086614173,
                    "duration": 0.07370999999999839
                },
                {
                    "name": "G#4",
                    "midi": 68,
                    "time": 56.461859999999575,
                    "velocity": 0.2992125984251969,
                    "duration": 0.07370999999999839
                },
                {
                    "name": "G4",
                    "midi": 67,
                    "time": 56.60927999999957,
                    "velocity": 0.3543307086614173,
                    "duration": 0.29484000000000066
                },
                {
                    "name": "C4",
                    "midi": 60,
                    "time": 57.05153999999957,
                    "velocity": 0.31496062992125984,
                    "duration": 0.14741999999999678
                },
                {
                    "name": "B3",
                    "midi": 59,
                    "time": 57.198959999999566,
                    "velocity": 0.3543307086614173,
                    "duration": 0.14741999999999678
                },
                {
                    "name": "C4",
                    "midi": 60,
                    "time": 57.34637999999956,
                    "velocity": 0.31496062992125984,
                    "duration": 0.14741999999999678
                },
                {
                    "name": "C5",
                    "midi": 72,
                    "time": 57.49379999999956,
                    "velocity": 0.3543307086614173,
                    "duration": 0.07370999999999839
                },
                {
                    "name": "C5",
                    "midi": 72,
                    "time": 57.64121999999956,
                    "velocity": 0.2992125984251969,
                    "duration": 0.07370999999999839
                },
                {
                    "name": "C5",
                    "midi": 72,
                    "time": 57.78863999999955,
                    "velocity": 0.3543307086614173,
                    "duration": 0.14741999999999678
                },
                {
                    "name": "D5",
                    "midi": 74,
                    "time": 57.93605999999955,
                    "velocity": 0.3543307086614173,
                    "duration": 0.03685500000000275
                },
                {
                    "name": "C5",
                    "midi": 72,
                    "time": 57.97291499999955,
                    "velocity": 0.3543307086614173,
                    "duration": 0.03685500000000275
                },
                {
                    "name": "B4",
                    "midi": 71,
                    "time": 58.009769999999556,
                    "velocity": 0.31496062992125984,
                    "duration": 0.03685500000000275
                },
                {
                    "name": "C5",
                    "midi": 72,
                    "time": 58.04662499999956,
                    "velocity": 0.3543307086614173,
                    "duration": 0.03685500000000275
                },
                {
                    "name": "D#5",
                    "midi": 75,
                    "time": 58.08347999999956,
                    "velocity": 0.3937007874015748,
                    "duration": 0.14741999999999678
                },
                {
                    "name": "D5",
                    "midi": 74,
                    "time": 58.23089999999956,
                    "velocity": 0.3543307086614173,
                    "duration": 0.14741999999999678
                },
                {
                    "name": "F5",
                    "midi": 77,
                    "time": 58.378319999999555,
                    "velocity": 0.4409448818897638,
                    "duration": 0.14741999999999678
                },
                {
                    "name": "D#5",
                    "midi": 75,
                    "time": 58.52573999999955,
                    "velocity": 0.41732283464566927,
                    "duration": 0.14741999999999678
                },
                {
                    "name": "D5",
                    "midi": 74,
                    "time": 58.67315999999955,
                    "velocity": 0.3937007874015748,
                    "duration": 0.14741999999999678
                },
                {
                    "name": "C5",
                    "midi": 72,
                    "time": 58.820579999999545,
                    "velocity": 0.3700787401574803,
                    "duration": 0.14741999999999678
                },
                {
                    "name": "B4",
                    "midi": 71,
                    "time": 58.96799999999954,
                    "velocity": 0.4015748031496063,
                    "duration": 0.29484000000000066
                },
                {
                    "name": "G3",
                    "midi": 55,
                    "time": 59.41025999999954,
                    "velocity": 0.31496062992125984,
                    "duration": 0.14741999999999678
                },
                {
                    "name": "F#3",
                    "midi": 54,
                    "time": 59.557679999999536,
                    "velocity": 0.3543307086614173,
                    "duration": 0.14741999999999678
                },
                {
                    "name": "G3",
                    "midi": 55,
                    "time": 59.70509999999953,
                    "velocity": 0.31496062992125984,
                    "duration": 0.14741999999999678
                },
                {
                    "name": "C4",
                    "midi": 60,
                    "time": 59.85251999999953,
                    "velocity": 0.3543307086614173,
                    "duration": 0.07370999999999839
                },
                {
                    "name": "C4",
                    "midi": 60,
                    "time": 59.999939999999526,
                    "velocity": 0.2992125984251969,
                    "duration": 0.07370999999999839
                },
                {
                    "name": "B3",
                    "midi": 59,
                    "time": 60.14735999999952,
                    "velocity": 0.3543307086614173,
                    "duration": 0.29484000000000066
                },
                {
                    "name": "G3",
                    "midi": 55,
                    "time": 60.58961999999952,
                    "velocity": 0.31496062992125984,
                    "duration": 0.14741999999999678
                },
                {
                    "name": "F#3",
                    "midi": 54,
                    "time": 60.73703999999952,
                    "velocity": 0.3543307086614173,
                    "duration": 0.14741999999999678
                },
                {
                    "name": "G3",
                    "midi": 55,
                    "time": 60.884459999999514,
                    "velocity": 0.31496062992125984,
                    "duration": 0.14741999999999678
                },
                {
                    "name": "D#4",
                    "midi": 63,
                    "time": 61.03187999999951,
                    "velocity": 0.3543307086614173,
                    "duration": 0.07370999999999839
                },
                {
                    "name": "D#4",
                    "midi": 63,
                    "time": 61.17929999999951,
                    "velocity": 0.2992125984251969,
                    "duration": 0.07370999999999839
                },
                {
                    "name": "D4",
                    "midi": 62,
                    "time": 61.326719999999504,
                    "velocity": 0.3543307086614173,
                    "duration": 0.29484000000000066
                },
                {
                    "name": "G3",
                    "midi": 55,
                    "time": 61.7689799999995,
                    "velocity": 0.3543307086614173,
                    "duration": 0.07370999999999839
                },
                {
                    "name": "B3",
                    "midi": 59,
                    "time": 61.9163999999995,
                    "velocity": 0.4015748031496063,
                    "duration": 0.07370999999999839
                },
                {
                    "name": "D4",
                    "midi": 62,
                    "time": 62.063819999999495,
                    "velocity": 0.3543307086614173,
                    "duration": 0.07370999999999839
                },
                {
                    "name": "F4",
                    "midi": 65,
                    "time": 62.21123999999949,
                    "velocity": 0.3543307086614173,
                    "duration": 0.07370999999999839
                },
                {
                    "name": "G#4",
                    "midi": 68,
                    "time": 62.35865999999949,
                    "velocity": 0.3543307086614173,
                    "duration": 0.07370999999999839
                },
                {
                    "name": "B4",
                    "midi": 71,
                    "time": 62.506079999999486,
                    "velocity": 0.4330708661417323,
                    "duration": 0.07370999999999839
                },
                {
                    "name": "D5",
                    "midi": 74,
                    "time": 62.65349999999948,
                    "velocity": 0.41732283464566927,
                    "duration": 0.07370999999999839
                },
                {
                    "name": "F5",
                    "midi": 77,
                    "time": 62.80091999999948,
                    "velocity": 0.4409448818897638,
                    "duration": 0.07370999999999839
                },
                {
                    "name": "G#5",
                    "midi": 80,
                    "time": 62.948339999999476,
                    "velocity": 0.47244094488188976,
                    "duration": 0.07370999999999839
                },
                {
                    "name": "G5",
                    "midi": 79,
                    "time": 63.09575999999947,
                    "velocity": 0.49606299212598426,
                    "duration": 0.07370999999999839
                },
                {
                    "name": "F5",
                    "midi": 77,
                    "time": 63.24317999999947,
                    "velocity": 0.4645669291338583,
                    "duration": 0.07370999999999839
                },
                {
                    "name": "D#5",
                    "midi": 75,
                    "time": 63.390599999999466,
                    "velocity": 0.4330708661417323,
                    "duration": 0.07370999999999839
                },
                {
                    "name": "D5",
                    "midi": 74,
                    "time": 63.53801999999946,
                    "velocity": 0.4251968503937008,
                    "duration": 0.07370999999999839
                },
                {
                    "name": "C5",
                    "midi": 72,
                    "time": 63.68543999999946,
                    "velocity": 0.4881889763779528,
                    "duration": 0.29484000000000066
                },
                {
                    "name": "C5",
                    "midi": 72,
                    "time": 64.12769999999946,
                    "velocity": 0.3937007874015748,
                    "duration": 0.14741999999999678
                },
                {
                    "name": "B4",
                    "midi": 71,
                    "time": 64.27511999999946,
                    "velocity": 0.44881889763779526,
                    "duration": 0.14741999999999678
                },
                {
                    "name": "C5",
                    "midi": 72,
                    "time": 64.42253999999946,
                    "velocity": 0.41732283464566927,
                    "duration": 0.14741999999999678
                },
                {
                    "name": "C6",
                    "midi": 84,
                    "time": 64.56995999999945,
                    "velocity": 0.47244094488188976,
                    "duration": 0.0737100000000055
                },
                {
                    "name": "C6",
                    "midi": 84,
                    "time": 64.71737999999947,
                    "velocity": 0.4094488188976378,
                    "duration": 0.0737100000000055
                },
                {
                    "name": "C6",
                    "midi": 84,
                    "time": 64.86479999999948,
                    "velocity": 0.47244094488188976,
                    "duration": 0.29483999999999355
                },
                {
                    "name": "F6",
                    "midi": 89,
                    "time": 65.30705999999947,
                    "velocity": 0.4645669291338583,
                    "duration": 0.14741999999999678
                },
                {
                    "name": "D#6",
                    "midi": 87,
                    "time": 65.45447999999946,
                    "velocity": 0.5118110236220472,
                    "duration": 0.14741999999999678
                },
                {
                    "name": "D6",
                    "midi": 86,
                    "time": 65.60189999999946,
                    "velocity": 0.47244094488188976,
                    "duration": 0.14741999999999678
                },
                {
                    "name": "C6",
                    "midi": 84,
                    "time": 65.74931999999946,
                    "velocity": 0.5196850393700787,
                    "duration": 0.14741999999999678
                },
                {
                    "name": "B5",
                    "midi": 83,
                    "time": 65.89673999999945,
                    "velocity": 0.47244094488188976,
                    "duration": 0.14741999999999678
                },
                {
                    "name": "D6",
                    "midi": 86,
                    "time": 66.04415999999945,
                    "velocity": 0.5433070866141733,
                    "duration": 0.14741999999999678
                },
                {
                    "name": "C6",
                    "midi": 84,
                    "time": 66.19157999999945,
                    "velocity": 0.47244094488188976,
                    "duration": 0.14741999999999678
                },
                {
                    "name": "C5",
                    "midi": 72,
                    "time": 66.48641999999944,
                    "velocity": 0.3937007874015748,
                    "duration": 0.14741999999999678
                },
                {
                    "name": "B4",
                    "midi": 71,
                    "time": 66.63383999999944,
                    "velocity": 0.44881889763779526,
                    "duration": 0.14741999999999678
                },
                {
                    "name": "C5",
                    "midi": 72,
                    "time": 66.78125999999943,
                    "velocity": 0.41732283464566927,
                    "duration": 0.14741999999999678
                },
                {
                    "name": "C6",
                    "midi": 84,
                    "time": 66.92867999999943,
                    "velocity": 0.47244094488188976,
                    "duration": 0.0737100000000055
                },
                {
                    "name": "C6",
                    "midi": 84,
                    "time": 67.07609999999944,
                    "velocity": 0.4094488188976378,
                    "duration": 0.0737100000000055
                },
                {
                    "name": "C6",
                    "midi": 84,
                    "time": 67.22351999999945,
                    "velocity": 0.47244094488188976,
                    "duration": 0.29483999999999355
                },
                {
                    "name": "D6",
                    "midi": 86,
                    "time": 67.51835999999945,
                    "velocity": 0.47244094488188976,
                    "duration": 0.03685500000000275
                },
                {
                    "name": "C6",
                    "midi": 84,
                    "time": 67.55521499999945,
                    "velocity": 0.47244094488188976,
                    "duration": 0.03685500000000275
                },
                {
                    "name": "B5",
                    "midi": 83,
                    "time": 67.59206999999945,
                    "velocity": 0.47244094488188976,
                    "duration": 0.03685500000000275
                },
                {
                    "name": "C6",
                    "midi": 84,
                    "time": 67.62892499999946,
                    "velocity": 0.47244094488188976,
                    "duration": 0.03685500000000275
                },
                {
                    "name": "F6",
                    "midi": 89,
                    "time": 67.66577999999946,
                    "velocity": 0.4645669291338583,
                    "duration": 0.14741999999999678
                },
                {
                    "name": "D#6",
                    "midi": 87,
                    "time": 67.81319999999945,
                    "velocity": 0.5118110236220472,
                    "duration": 0.14741999999999678
                },
                {
                    "name": "D6",
                    "midi": 86,
                    "time": 67.96061999999945,
                    "velocity": 0.47244094488188976,
                    "duration": 0.14741999999999678
                },
                {
                    "name": "C6",
                    "midi": 84,
                    "time": 68.10803999999945,
                    "velocity": 0.5196850393700787,
                    "duration": 0.14741999999999678
                },
                {
                    "name": "B5",
                    "midi": 83,
                    "time": 68.25545999999945,
                    "velocity": 0.47244094488188976,
                    "duration": 0.14741999999999678
                },
                {
                    "name": "C6",
                    "midi": 84,
                    "time": 68.40287999999944,
                    "velocity": 0.5433070866141733,
                    "duration": 0.0737100000000055
                },
                {
                    "name": "D6",
                    "midi": 86,
                    "time": 68.47658999999945,
                    "velocity": 0.49606299212598426,
                    "duration": 0.0737100000000055
                },
                {
                    "name": "C6",
                    "midi": 84,
                    "time": 68.55029999999945,
                    "velocity": 0.49606299212598426,
                    "duration": 0.0737100000000055
                },
                {
                    "name": "B5",
                    "midi": 83,
                    "time": 68.62400999999946,
                    "velocity": 0.49606299212598426,
                    "duration": 0.0737100000000055
                },
                {
                    "name": "C6",
                    "midi": 84,
                    "time": 68.69771999999946,
                    "velocity": 0.5433070866141733,
                    "duration": 0.0737100000000055
                },
                {
                    "name": "D#6",
                    "midi": 87,
                    "time": 68.77142999999947,
                    "velocity": 0.5748031496062992,
                    "duration": 0.0737100000000055
                },
                {
                    "name": "D6",
                    "midi": 86,
                    "time": 68.84513999999947,
                    "velocity": 0.5669291338582677,
                    "duration": 0.0737100000000055
                },
                {
                    "name": "C6",
                    "midi": 84,
                    "time": 68.91884999999948,
                    "velocity": 0.5590551181102362,
                    "duration": 0.0737100000000055
                },
                {
                    "name": "B5",
                    "midi": 83,
                    "time": 68.99255999999949,
                    "velocity": 0.5669291338582677,
                    "duration": 0.0737100000000055
                },
                {
                    "name": "C6",
                    "midi": 84,
                    "time": 69.06626999999949,
                    "velocity": 0.5118110236220472,
                    "duration": 0.0737100000000055
                },
                {
                    "name": "B5",
                    "midi": 83,
                    "time": 69.1399799999995,
                    "velocity": 0.5118110236220472,
                    "duration": 0.0737100000000055
                },
                {
                    "name": "G#5",
                    "midi": 80,
                    "time": 69.2136899999995,
                    "velocity": 0.5118110236220472,
                    "duration": 0.0737100000000055
                },
                {
                    "name": "G5",
                    "midi": 79,
                    "time": 69.28739999999951,
                    "velocity": 0.5433070866141733,
                    "duration": 0.0737100000000055
                },
                {
                    "name": "F5",
                    "midi": 77,
                    "time": 69.36110999999951,
                    "velocity": 0.49606299212598426,
                    "duration": 0.0737100000000055
                },
                {
                    "name": "D#5",
                    "midi": 75,
                    "time": 69.43481999999952,
                    "velocity": 0.49606299212598426,
                    "duration": 0.0737100000000055
                },
                {
                    "name": "D5",
                    "midi": 74,
                    "time": 69.50852999999952,
                    "velocity": 0.49606299212598426,
                    "duration": 0.0737100000000055
                },
                {
                    "name": "C5",
                    "midi": 72,
                    "time": 69.58223999999953,
                    "velocity": 0.5433070866141733,
                    "duration": 0.0737100000000055
                },
                {
                    "name": "D5",
                    "midi": 74,
                    "time": 69.65594999999954,
                    "velocity": 0.49606299212598426,
                    "duration": 0.0737100000000055
                },
                {
                    "name": "C5",
                    "midi": 72,
                    "time": 69.72965999999954,
                    "velocity": 0.49606299212598426,
                    "duration": 0.0737100000000055
                },
                {
                    "name": "B4",
                    "midi": 71,
                    "time": 69.80336999999955,
                    "velocity": 0.48031496062992124,
                    "duration": 0.0737100000000055
                },
                {
                    "name": "C5",
                    "midi": 72,
                    "time": 69.87707999999955,
                    "velocity": 0.5196850393700787,
                    "duration": 0.0737100000000055
                },
                {
                    "name": "D#5",
                    "midi": 75,
                    "time": 69.95078999999956,
                    "velocity": 0.5669291338582677,
                    "duration": 0.0737100000000055
                },
                {
                    "name": "D5",
                    "midi": 74,
                    "time": 70.02449999999956,
                    "velocity": 0.5511811023622047,
                    "duration": 0.0737100000000055
                },
                {
                    "name": "C5",
                    "midi": 72,
                    "time": 70.09820999999957,
                    "velocity": 0.5275590551181102,
                    "duration": 0.0737100000000055
                },
                {
                    "name": "B4",
                    "midi": 71,
                    "time": 70.17191999999957,
                    "velocity": 0.5433070866141733,
                    "duration": 0.0737100000000055
                },
                {
                    "name": "C5",
                    "midi": 72,
                    "time": 70.24562999999958,
                    "velocity": 0.49606299212598426,
                    "duration": 0.0737100000000055
                },
                {
                    "name": "B4",
                    "midi": 71,
                    "time": 70.31933999999958,
                    "velocity": 0.49606299212598426,
                    "duration": 0.0737100000000055
                },
                {
                    "name": "G#4",
                    "midi": 68,
                    "time": 70.39304999999959,
                    "velocity": 0.49606299212598426,
                    "duration": 0.0737100000000055
                },
                {
                    "name": "G4",
                    "midi": 67,
                    "time": 70.4667599999996,
                    "velocity": 0.5433070866141733,
                    "duration": 0.0737100000000055
                },
                {
                    "name": "F4",
                    "midi": 65,
                    "time": 70.5404699999996,
                    "velocity": 0.49606299212598426,
                    "duration": 0.0737100000000055
                },
                {
                    "name": "D#4",
                    "midi": 63,
                    "time": 70.6141799999996,
                    "velocity": 0.49606299212598426,
                    "duration": 0.0737100000000055
                },
                {
                    "name": "D4",
                    "midi": 62,
                    "time": 70.68788999999961,
                    "velocity": 0.49606299212598426,
                    "duration": 0.0737100000000055
                },
                {
                    "name": "C4",
                    "midi": 60,
                    "time": 70.76159999999962,
                    "velocity": 0.6062992125984252,
                    "duration": 0.0737100000000055
                },
                {
                    "name": "D4",
                    "midi": 62,
                    "time": 70.83530999999962,
                    "velocity": 0.5433070866141733,
                    "duration": 0.0737100000000055
                },
                {
                    "name": "C4",
                    "midi": 60,
                    "time": 70.90901999999963,
                    "velocity": 0.5433070866141733,
                    "duration": 0.0737100000000055
                },
                {
                    "name": "B3",
                    "midi": 59,
                    "time": 70.98272999999963,
                    "velocity": 0.5433070866141733,
                    "duration": 0.0737100000000055
                },
                {
                    "name": "C4",
                    "midi": 60,
                    "time": 71.05643999999964,
                    "velocity": 0.6062992125984252,
                    "duration": 0.0737100000000055
                },
                {
                    "name": "D#4",
                    "midi": 63,
                    "time": 71.13014999999965,
                    "velocity": 0.5433070866141733,
                    "duration": 0.0737100000000055
                },
                {
                    "name": "D4",
                    "midi": 62,
                    "time": 71.20385999999965,
                    "velocity": 0.5433070866141733,
                    "duration": 0.0737100000000055
                },
                {
                    "name": "C4",
                    "midi": 60,
                    "time": 71.27756999999966,
                    "velocity": 0.5433070866141733,
                    "duration": 0.0737100000000055
                },
                {
                    "name": "B3",
                    "midi": 59,
                    "time": 71.35127999999966,
                    "velocity": 0.6062992125984252,
                    "duration": 0.0737100000000055
                },
                {
                    "name": "G4",
                    "midi": 67,
                    "time": 71.42498999999967,
                    "velocity": 0.5433070866141733,
                    "duration": 0.0737100000000055
                },
                {
                    "name": "D4",
                    "midi": 62,
                    "time": 71.49869999999967,
                    "velocity": 0.5433070866141733,
                    "duration": 0.0737100000000055
                },
                {
                    "name": "B3",
                    "midi": 59,
                    "time": 71.57240999999968,
                    "velocity": 0.5433070866141733,
                    "duration": 0.0737100000000055
                },
                {
                    "name": "G3",
                    "midi": 55,
                    "time": 71.64611999999968,
                    "velocity": 0.6220472440944882,
                    "duration": 0.0737100000000055
                },
                {
                    "name": "G4",
                    "midi": 67,
                    "time": 71.71982999999969,
                    "velocity": 0.5433070866141733,
                    "duration": 0.0737100000000055
                },
                {
                    "name": "D#4",
                    "midi": 63,
                    "time": 71.7935399999997,
                    "velocity": 0.5433070866141733,
                    "duration": 0.0737100000000055
                },
                {
                    "name": "C4",
                    "midi": 60,
                    "time": 71.8672499999997,
                    "velocity": 0.5433070866141733,
                    "duration": 0.0737100000000055
                },
                {
                    "name": "G3",
                    "midi": 55,
                    "time": 71.9409599999997,
                    "velocity": 0.6377952755905512,
                    "duration": 0.0737100000000055
                },
                {
                    "name": "G4",
                    "midi": 67,
                    "time": 72.01466999999971,
                    "velocity": 0.5433070866141733,
                    "duration": 0.0737100000000055
                },
                {
                    "name": "D4",
                    "midi": 62,
                    "time": 72.08837999999972,
                    "velocity": 0.5433070866141733,
                    "duration": 0.0737100000000055
                },
                {
                    "name": "B3",
                    "midi": 59,
                    "time": 72.16208999999972,
                    "velocity": 0.5433070866141733,
                    "duration": 0.0737100000000055
                },
                {
                    "name": "G3",
                    "midi": 55,
                    "time": 72.23579999999973,
                    "velocity": 0.6299212598425197,
                    "duration": 0.0737100000000055
                },
                {
                    "name": "G4",
                    "midi": 67,
                    "time": 72.30950999999973,
                    "velocity": 0.5433070866141733,
                    "duration": 0.0737100000000055
                },
                {
                    "name": "D#4",
                    "midi": 63,
                    "time": 72.38321999999974,
                    "velocity": 0.5433070866141733,
                    "duration": 0.0737100000000055
                },
                {
                    "name": "C4",
                    "midi": 60,
                    "time": 72.45692999999974,
                    "velocity": 0.5433070866141733,
                    "duration": 0.0737100000000055
                },
                {
                    "name": "G3",
                    "midi": 55,
                    "time": 72.53063999999975,
                    "velocity": 0.6299212598425197,
                    "duration": 0.0737100000000055
                },
                {
                    "name": "G4",
                    "midi": 67,
                    "time": 72.60434999999976,
                    "velocity": 0.5433070866141733,
                    "duration": 0.0737100000000055
                },
                {
                    "name": "D4",
                    "midi": 62,
                    "time": 72.67805999999976,
                    "velocity": 0.5433070866141733,
                    "duration": 0.0737100000000055
                },
                {
                    "name": "B3",
                    "midi": 59,
                    "time": 72.75176999999977,
                    "velocity": 0.5433070866141733,
                    "duration": 0.0737100000000055
                },
                {
                    "name": "G3",
                    "midi": 55,
                    "time": 72.82547999999977,
                    "velocity": 0.6299212598425197,
                    "duration": 0.0737100000000055
                },
                {
                    "name": "G4",
                    "midi": 67,
                    "time": 72.89918999999978,
                    "velocity": 0.5433070866141733,
                    "duration": 0.0737100000000055
                },
                {
                    "name": "D#4",
                    "midi": 63,
                    "time": 72.97289999999978,
                    "velocity": 0.5433070866141733,
                    "duration": 0.0737100000000055
                },
                {
                    "name": "C4",
                    "midi": 60,
                    "time": 73.04660999999979,
                    "velocity": 0.5433070866141733,
                    "duration": 0.0737100000000055
                },
                {
                    "name": "G3",
                    "midi": 55,
                    "time": 73.1203199999998,
                    "velocity": 0.5826771653543307,
                    "duration": 0.5896800000000013
                },
                {
                    "name": "B3",
                    "midi": 59,
                    "time": 73.1203199999998,
                    "velocity": 0.5826771653543307,
                    "duration": 0.5896800000000013
                },
                {
                    "name": "D4",
                    "midi": 62,
                    "time": 73.1203199999998,
                    "velocity": 0.5826771653543307,
                    "duration": 0.5896800000000013
                },
                {
                    "name": "G4",
                    "midi": 67,
                    "time": 73.1203199999998,
                    "velocity": 0.7007874015748031,
                    "duration": 0.5896800000000013
                },
                {
                    "name": "A#3",
                    "midi": 58,
                    "time": 73.85741999999979,
                    "velocity": 0.31496062992125984,
                    "duration": 0.0737100000000055
                },
                {
                    "name": "C4",
                    "midi": 60,
                    "time": 74.0048399999998,
                    "velocity": 0.29133858267716534,
                    "duration": 0.0737100000000055
                },
                {
                    "name": "D4",
                    "midi": 62,
                    "time": 74.15225999999981,
                    "velocity": 0.29133858267716534,
                    "duration": 0.0737100000000055
                },
                {
                    "name": "G3",
                    "midi": 55,
                    "time": 74.29967999999982,
                    "velocity": 0.30708661417322836,
                    "duration": 0.5896800000000297
                },
                {
                    "name": "A#3",
                    "midi": 58,
                    "time": 74.29967999999982,
                    "velocity": 0.30708661417322836,
                    "duration": 0.5896800000000297
                },
                {
                    "name": "D#4",
                    "midi": 63,
                    "time": 74.29967999999982,
                    "velocity": 0.36220472440944884,
                    "duration": 0.0737100000000055
                },
                {
                    "name": "F4",
                    "midi": 65,
                    "time": 74.44709999999984,
                    "velocity": 0.31496062992125984,
                    "duration": 0.0737100000000055
                },
                {
                    "name": "G4",
                    "midi": 67,
                    "time": 74.59451999999985,
                    "velocity": 0.31496062992125984,
                    "duration": 0.0737100000000055
                },
                {
                    "name": "A#3",
                    "midi": 58,
                    "time": 74.88935999999985,
                    "velocity": 0.2992125984251969,
                    "duration": 0.0737100000000055
                },
                {
                    "name": "D4",
                    "midi": 62,
                    "time": 74.88935999999985,
                    "velocity": 0.2992125984251969,
                    "duration": 0.0737100000000055
                },
                {
                    "name": "F4",
                    "midi": 65,
                    "time": 74.88935999999985,
                    "velocity": 0.3543307086614173,
                    "duration": 0.0737100000000055
                },
                {
                    "name": "A#3",
                    "midi": 58,
                    "time": 75.18419999999986,
                    "velocity": 0.25984251968503935,
                    "duration": 0.0737100000000055
                },
                {
                    "name": "D#4",
                    "midi": 63,
                    "time": 75.18419999999986,
                    "velocity": 0.30708661417322836,
                    "duration": 0.0737100000000055
                },
                {
                    "name": "G#3",
                    "midi": 56,
                    "time": 75.47903999999987,
                    "velocity": 0.29133858267716534,
                    "duration": 0.5896800000000013
                },
                {
                    "name": "A#3",
                    "midi": 58,
                    "time": 75.47903999999987,
                    "velocity": 0.29133858267716534,
                    "duration": 0.5896800000000013
                },
                {
                    "name": "D4",
                    "midi": 62,
                    "time": 75.47903999999987,
                    "velocity": 0.29133858267716534,
                    "duration": 0.5896800000000013
                },
                {
                    "name": "G#4",
                    "midi": 68,
                    "time": 75.47903999999987,
                    "velocity": 0.3543307086614173,
                    "duration": 0.5896800000000013
                },
                {
                    "name": "A#3",
                    "midi": 58,
                    "time": 76.21613999999987,
                    "velocity": 0.31496062992125984,
                    "duration": 0.0737100000000055
                },
                {
                    "name": "C4",
                    "midi": 60,
                    "time": 76.36355999999988,
                    "velocity": 0.29133858267716534,
                    "duration": 0.0737100000000055
                },
                {
                    "name": "D4",
                    "midi": 62,
                    "time": 76.51097999999989,
                    "velocity": 0.29133858267716534,
                    "duration": 0.0737100000000055
                },
                {
                    "name": "G3",
                    "midi": 55,
                    "time": 76.6583999999999,
                    "velocity": 0.30708661417322836,
                    "duration": 0.5896800000000297
                },
                {
                    "name": "A#3",
                    "midi": 58,
                    "time": 76.6583999999999,
                    "velocity": 0.30708661417322836,
                    "duration": 0.5896800000000297
                },
                {
                    "name": "D#4",
                    "midi": 63,
                    "time": 76.6583999999999,
                    "velocity": 0.36220472440944884,
                    "duration": 0.0737100000000055
                },
                {
                    "name": "F4",
                    "midi": 65,
                    "time": 76.80581999999991,
                    "velocity": 0.31496062992125984,
                    "duration": 0.0737100000000055
                },
                {
                    "name": "G4",
                    "midi": 67,
                    "time": 76.95323999999992,
                    "velocity": 0.31496062992125984,
                    "duration": 0.0737100000000055
                },
                {
                    "name": "F3",
                    "midi": 53,
                    "time": 77.24807999999993,
                    "velocity": 0.2992125984251969,
                    "duration": 0.0737100000000055
                },
                {
                    "name": "C4",
                    "midi": 60,
                    "time": 77.24807999999993,
                    "velocity": 0.2992125984251969,
                    "duration": 0.0737100000000055
                },
                {
                    "name": "F4",
                    "midi": 65,
                    "time": 77.24807999999993,
                    "velocity": 0.3543307086614173,
                    "duration": 0.0737100000000055
                },
                {
                    "name": "C4",
                    "midi": 60,
                    "time": 77.54291999999994,
                    "velocity": 0.25984251968503935,
                    "duration": 0.0737100000000055
                },
                {
                    "name": "F3",
                    "midi": 53,
                    "time": 77.54291999999994,
                    "velocity": 0.25984251968503935,
                    "duration": 0.0737100000000055
                },
                {
                    "name": "D#4",
                    "midi": 63,
                    "time": 77.54291999999994,
                    "velocity": 0.30708661417322836,
                    "duration": 0.0737100000000055
                },
                {
                    "name": "D3",
                    "midi": 50,
                    "time": 77.83775999999995,
                    "velocity": 0.2440944881889764,
                    "duration": 0.5896800000000013
                },
                {
                    "name": "F3",
                    "midi": 53,
                    "time": 77.83775999999995,
                    "velocity": 0.2440944881889764,
                    "duration": 0.5896800000000013
                },
                {
                    "name": "A#3",
                    "midi": 58,
                    "time": 77.83775999999995,
                    "velocity": 0.29133858267716534,
                    "duration": 0.5896800000000013
                },
                {
                    "name": "A#3",
                    "midi": 58,
                    "time": 78.57485999999994,
                    "velocity": 0.31496062992125984,
                    "duration": 0.0737100000000055
                },
                {
                    "name": "C4",
                    "midi": 60,
                    "time": 78.72227999999996,
                    "velocity": 0.29133858267716534,
                    "duration": 0.0737100000000055
                },
                {
                    "name": "D4",
                    "midi": 62,
                    "time": 78.86969999999997,
                    "velocity": 0.29133858267716534,
                    "duration": 0.0737100000000055
                },
                {
                    "name": "G3",
                    "midi": 55,
                    "time": 79.01711999999998,
                    "velocity": 0.30708661417322836,
                    "duration": 0.5896800000000297
                },
                {
                    "name": "A#3",
                    "midi": 58,
                    "time": 79.01711999999998,
                    "velocity": 0.30708661417322836,
                    "duration": 0.5896800000000297
                },
                {
                    "name": "D#4",
                    "midi": 63,
                    "time": 79.01711999999998,
                    "velocity": 0.36220472440944884,
                    "duration": 0.0737100000000055
                },
                {
                    "name": "F4",
                    "midi": 65,
                    "time": 79.16453999999999,
                    "velocity": 0.31496062992125984,
                    "duration": 0.0737100000000055
                },
                {
                    "name": "G4",
                    "midi": 67,
                    "time": 79.31196,
                    "velocity": 0.31496062992125984,
                    "duration": 0.0737100000000055
                },
                {
                    "name": "A#3",
                    "midi": 58,
                    "time": 79.6068,
                    "velocity": 0.2992125984251969,
                    "duration": 0.0737100000000055
                },
                {
                    "name": "D4",
                    "midi": 62,
                    "time": 79.6068,
                    "velocity": 0.2992125984251969,
                    "duration": 0.0737100000000055
                },
                {
                    "name": "F4",
                    "midi": 65,
                    "time": 79.6068,
                    "velocity": 0.3543307086614173,
                    "duration": 0.0737100000000055
                },
                {
                    "name": "A#3",
                    "midi": 58,
                    "time": 79.90164000000001,
                    "velocity": 0.25984251968503935,
                    "duration": 0.0737100000000055
                },
                {
                    "name": "D#4",
                    "midi": 63,
                    "time": 79.90164000000001,
                    "velocity": 0.30708661417322836,
                    "duration": 0.0737100000000055
                },
                {
                    "name": "C4",
                    "midi": 60,
                    "time": 80.16883875000002,
                    "velocity": 0.3543307086614173,
                    "duration": 0.6173212500000034
                },
                {
                    "name": "D#4",
                    "midi": 63,
                    "time": 80.17805250000002,
                    "velocity": 0.3937007874015748,
                    "duration": 0.6081075000000027
                },
                {
                    "name": "G#4",
                    "midi": 68,
                    "time": 80.18726625000002,
                    "velocity": 0.49606299212598426,
                    "duration": 0.598893750000002
                },
                {
                    "name": "C5",
                    "midi": 72,
                    "time": 80.19648000000002,
                    "velocity": 0.5669291338582677,
                    "duration": 0.7370999999999981
                },
                {
                    "name": "C5",
                    "midi": 72,
                    "time": 80.93358000000002,
                    "velocity": 0.3779527559055118,
                    "duration": 0.0737100000000055
                },
                {
                    "name": "A#4",
                    "midi": 70,
                    "time": 81.08100000000003,
                    "velocity": 0.41732283464566927,
                    "duration": 0.0737100000000055
                },
                {
                    "name": "G#4",
                    "midi": 68,
                    "time": 81.22842000000004,
                    "velocity": 0.3937007874015748,
                    "duration": 0.0737100000000055
                },
                {
                    "name": "G4",
                    "midi": 67,
                    "time": 81.37584000000005,
                    "velocity": 0.41732283464566927,
                    "duration": 0.14741999999999678
                },
                {
                    "name": "F4",
                    "midi": 65,
                    "time": 81.52326000000005,
                    "velocity": 0.3779527559055118,
                    "duration": 0.14741999999999678
                },
                {
                    "name": "D#4",
                    "midi": 63,
                    "time": 81.67068000000005,
                    "velocity": 0.3779527559055118,
                    "duration": 0.0737100000000055
                },
                {
                    "name": "D4",
                    "midi": 62,
                    "time": 81.81810000000006,
                    "velocity": 0.3779527559055118,
                    "duration": 0.0737100000000055
                },
                {
                    "name": "F3",
                    "midi": 53,
                    "time": 81.96552000000007,
                    "velocity": 0.3543307086614173,
                    "duration": 0.5896799999999871
                },
                {
                    "name": "G#3",
                    "midi": 56,
                    "time": 81.96552000000007,
                    "velocity": 0.3543307086614173,
                    "duration": 0.5896799999999871
                },
                {
                    "name": "C4",
                    "midi": 60,
                    "time": 81.96552000000007,
                    "velocity": 0.41732283464566927,
                    "duration": 0.29483999999999355
                },
                {
                    "name": "A#3",
                    "midi": 58,
                    "time": 82.26036000000006,
                    "velocity": 0.3858267716535433,
                    "duration": 0.29483999999999355
                },
                {
                    "name": "D#3",
                    "midi": 51,
                    "time": 82.55520000000006,
                    "velocity": 0.3228346456692913,
                    "duration": 0.5896800000000013
                },
                {
                    "name": "G3",
                    "midi": 55,
                    "time": 82.55520000000006,
                    "velocity": 0.3228346456692913,
                    "duration": 0.5896800000000013
                },
                {
                    "name": "A#3",
                    "midi": 58,
                    "time": 82.55520000000006,
                    "velocity": 0.3858267716535433,
                    "duration": 0.5896800000000013
                },
                {
                    "name": "A#4",
                    "midi": 70,
                    "time": 83.29230000000005,
                    "velocity": 0.3779527559055118,
                    "duration": 0.0737100000000055
                },
                {
                    "name": "G#4",
                    "midi": 68,
                    "time": 83.43972000000007,
                    "velocity": 0.41732283464566927,
                    "duration": 0.0737100000000055
                },
                {
                    "name": "G4",
                    "midi": 67,
                    "time": 83.58714000000008,
                    "velocity": 0.3937007874015748,
                    "duration": 0.0737100000000055
                },
                {
                    "name": "G4",
                    "midi": 67,
                    "time": 83.73456000000009,
                    "velocity": 0.41732283464566927,
                    "duration": 0.14741999999999678
                },
                {
                    "name": "F4",
                    "midi": 65,
                    "time": 83.88198000000008,
                    "velocity": 0.3779527559055118,
                    "duration": 0.14741999999999678
                },
                {
                    "name": "D#4",
                    "midi": 63,
                    "time": 84.02940000000008,
                    "velocity": 0.3779527559055118,
                    "duration": 0.0737100000000055
                },
                {
                    "name": "D4",
                    "midi": 62,
                    "time": 84.17682000000009,
                    "velocity": 0.3779527559055118,
                    "duration": 0.0737100000000055
                },
                {
                    "name": "F3",
                    "midi": 53,
                    "time": 84.3242400000001,
                    "velocity": 0.3543307086614173,
                    "duration": 0.5896799999999871
                },
                {
                    "name": "G#3",
                    "midi": 56,
                    "time": 84.3242400000001,
                    "velocity": 0.3543307086614173,
                    "duration": 0.5896799999999871
                },
                {
                    "name": "C4",
                    "midi": 60,
                    "time": 84.3242400000001,
                    "velocity": 0.41732283464566927,
                    "duration": 0.29483999999999355
                },
                {
                    "name": "A#3",
                    "midi": 58,
                    "time": 84.6190800000001,
                    "velocity": 0.3858267716535433,
                    "duration": 0.29483999999999355
                },
                {
                    "name": "D#3",
                    "midi": 51,
                    "time": 84.91392000000009,
                    "velocity": 0.4251968503937008,
                    "duration": 0.5896800000000013
                },
                {
                    "name": "G3",
                    "midi": 55,
                    "time": 84.91392000000009,
                    "velocity": 0.4251968503937008,
                    "duration": 0.5896800000000013
                },
                {
                    "name": "A#3",
                    "midi": 58,
                    "time": 84.91392000000009,
                    "velocity": 0.4251968503937008,
                    "duration": 0.5896800000000013
                },
                {
                    "name": "A#5",
                    "midi": 82,
                    "time": 85.65102000000009,
                    "velocity": 0.3779527559055118,
                    "duration": 0.0737100000000055
                },
                {
                    "name": "A#4",
                    "midi": 70,
                    "time": 85.65102000000009,
                    "velocity": 0.3779527559055118,
                    "duration": 0.0737100000000055
                },
                {
                    "name": "G#5",
                    "midi": 80,
                    "time": 85.7984400000001,
                    "velocity": 0.41732283464566927,
                    "duration": 0.0737100000000055
                },
                {
                    "name": "G#4",
                    "midi": 68,
                    "time": 85.7984400000001,
                    "velocity": 0.41732283464566927,
                    "duration": 0.0737100000000055
                },
                {
                    "name": "G5",
                    "midi": 79,
                    "time": 85.94586000000011,
                    "velocity": 0.3937007874015748,
                    "duration": 0.0737100000000055
                },
                {
                    "name": "G4",
                    "midi": 67,
                    "time": 85.94586000000011,
                    "velocity": 0.3937007874015748,
                    "duration": 0.0737100000000055
                },
                {
                    "name": "G5",
                    "midi": 79,
                    "time": 86.09328000000012,
                    "velocity": 0.4330708661417323,
                    "duration": 0.14741999999999678
                },
                {
                    "name": "G4",
                    "midi": 67,
                    "time": 86.09328000000012,
                    "velocity": 0.4330708661417323,
                    "duration": 0.14741999999999678
                },
                {
                    "name": "F5",
                    "midi": 77,
                    "time": 86.24070000000012,
                    "velocity": 0.3779527559055118,
                    "duration": 0.14741999999999678
                },
                {
                    "name": "F4",
                    "midi": 65,
                    "time": 86.24070000000012,
                    "velocity": 0.3779527559055118,
                    "duration": 0.14741999999999678
                },
                {
                    "name": "D#5",
                    "midi": 75,
                    "time": 86.38812000000011,
                    "velocity": 0.3779527559055118,
                    "duration": 0.0737100000000055
                },
                {
                    "name": "D#4",
                    "midi": 63,
                    "time": 86.38812000000011,
                    "velocity": 0.3779527559055118,
                    "duration": 0.0737100000000055
                },
                {
                    "name": "D5",
                    "midi": 74,
                    "time": 86.53554000000013,
                    "velocity": 0.3779527559055118,
                    "duration": 0.0737100000000055
                },
                {
                    "name": "D4",
                    "midi": 62,
                    "time": 86.53554000000013,
                    "velocity": 0.3779527559055118,
                    "duration": 0.0737100000000055
                },
                {
                    "name": "C4",
                    "midi": 60,
                    "time": 86.68296000000014,
                    "velocity": 0.4330708661417323,
                    "duration": 0.0737100000000055
                },
                {
                    "name": "C5",
                    "midi": 72,
                    "time": 86.68296000000014,
                    "velocity": 0.4330708661417323,
                    "duration": 0.0737100000000055
                },
                {
                    "name": "A#3",
                    "midi": 58,
                    "time": 86.83038000000015,
                    "velocity": 0.3779527559055118,
                    "duration": 0.0737100000000055
                },
                {
                    "name": "A#4",
                    "midi": 70,
                    "time": 86.83038000000015,
                    "velocity": 0.3779527559055118,
                    "duration": 0.0737100000000055
                },
                {
                    "name": "C4",
                    "midi": 60,
                    "time": 86.97780000000016,
                    "velocity": 0.3779527559055118,
                    "duration": 0.0737100000000055
                },
                {
                    "name": "C5",
                    "midi": 72,
                    "time": 86.97780000000016,
                    "velocity": 0.3779527559055118,
                    "duration": 0.0737100000000055
                },
                {
                    "name": "D4",
                    "midi": 62,
                    "time": 87.12522000000017,
                    "velocity": 0.3779527559055118,
                    "duration": 0.0737100000000055
                },
                {
                    "name": "D5",
                    "midi": 74,
                    "time": 87.12522000000017,
                    "velocity": 0.3779527559055118,
                    "duration": 0.0737100000000055
                },
                {
                    "name": "D#4",
                    "midi": 63,
                    "time": 87.27264000000018,
                    "velocity": 0.3779527559055118,
                    "duration": 0.0737100000000055
                },
                {
                    "name": "D#5",
                    "midi": 75,
                    "time": 87.34635000000019,
                    "velocity": 0.33858267716535434,
                    "duration": 0.0737100000000055
                },
                {
                    "name": "D#4",
                    "midi": 63,
                    "time": 87.42006000000019,
                    "velocity": 0.3779527559055118,
                    "duration": 0.0737100000000055
                },
                {
                    "name": "D#5",
                    "midi": 75,
                    "time": 87.4937700000002,
                    "velocity": 0.33070866141732286,
                    "duration": 0.0737100000000055
                },
                {
                    "name": "D#4",
                    "midi": 63,
                    "time": 87.5674800000002,
                    "velocity": 0.3858267716535433,
                    "duration": 0.0737100000000055
                },
                {
                    "name": "D#5",
                    "midi": 75,
                    "time": 87.64119000000021,
                    "velocity": 0.33858267716535434,
                    "duration": 0.0737100000000055
                },
                {
                    "name": "D#4",
                    "midi": 63,
                    "time": 87.71490000000021,
                    "velocity": 0.3937007874015748,
                    "duration": 0.0737100000000055
                },
                {
                    "name": "D#5",
                    "midi": 75,
                    "time": 87.78861000000022,
                    "velocity": 0.3543307086614173,
                    "duration": 0.0737100000000055
                },
                {
                    "name": "D#4",
                    "midi": 63,
                    "time": 87.86232000000022,
                    "velocity": 0.4015748031496063,
                    "duration": 0.0737100000000055
                },
                {
                    "name": "D#5",
                    "midi": 75,
                    "time": 87.93603000000023,
                    "velocity": 0.3464566929133858,
                    "duration": 0.0737100000000055
                },
                {
                    "name": "D#4",
                    "midi": 63,
                    "time": 88.00974000000024,
                    "velocity": 0.4094488188976378,
                    "duration": 0.0737100000000055
                },
                {
                    "name": "D#5",
                    "midi": 75,
                    "time": 88.08345000000024,
                    "velocity": 0.3700787401574803,
                    "duration": 0.0737100000000055
                },
                {
                    "name": "D#4",
                    "midi": 63,
                    "time": 88.15716000000025,
                    "velocity": 0.41732283464566927,
                    "duration": 0.0737100000000055
                },
                {
                    "name": "D#5",
                    "midi": 75,
                    "time": 88.23087000000025,
                    "velocity": 0.3700787401574803,
                    "duration": 0.0737100000000055
                },
                {
                    "name": "D#4",
                    "midi": 63,
                    "time": 88.30458000000026,
                    "velocity": 0.41732283464566927,
                    "duration": 0.0737100000000055
                },
                {
                    "name": "D#5",
                    "midi": 75,
                    "time": 88.37829000000026,
                    "velocity": 0.3700787401574803,
                    "duration": 0.0737100000000055
                },
                {
                    "name": "D#4",
                    "midi": 63,
                    "time": 88.45200000000027,
                    "velocity": 0.4251968503937008,
                    "duration": 0.0737100000000055
                },
                {
                    "name": "D#5",
                    "midi": 75,
                    "time": 88.52571000000027,
                    "velocity": 0.3779527559055118,
                    "duration": 0.0737100000000055
                },
                {
                    "name": "D#4",
                    "midi": 63,
                    "time": 88.59942000000028,
                    "velocity": 0.4330708661417323,
                    "duration": 0.0737100000000055
                },
                {
                    "name": "D#5",
                    "midi": 75,
                    "time": 88.67313000000028,
                    "velocity": 0.3779527559055118,
                    "duration": 0.0737100000000055
                },
                {
                    "name": "D#4",
                    "midi": 63,
                    "time": 88.74684000000029,
                    "velocity": 0.4330708661417323,
                    "duration": 0.0737100000000055
                },
                {
                    "name": "D#5",
                    "midi": 75,
                    "time": 88.8205500000003,
                    "velocity": 0.3779527559055118,
                    "duration": 0.0737100000000055
                },
                {
                    "name": "D#4",
                    "midi": 63,
                    "time": 88.8942600000003,
                    "velocity": 0.4409448818897638,
                    "duration": 0.0737100000000055
                },
                {
                    "name": "D#5",
                    "midi": 75,
                    "time": 88.9679700000003,
                    "velocity": 0.4015748031496063,
                    "duration": 0.0737100000000055
                },
                {
                    "name": "D#4",
                    "midi": 63,
                    "time": 89.04168000000031,
                    "velocity": 0.44881889763779526,
                    "duration": 0.0737100000000055
                },
                {
                    "name": "D#5",
                    "midi": 75,
                    "time": 89.11539000000032,
                    "velocity": 0.3858267716535433,
                    "duration": 0.0737100000000055
                },
                {
                    "name": "D#4",
                    "midi": 63,
                    "time": 89.18910000000032,
                    "velocity": 0.4566929133858268,
                    "duration": 0.0737100000000055
                },
                {
                    "name": "D#5",
                    "midi": 75,
                    "time": 89.26281000000033,
                    "velocity": 0.41732283464566927,
                    "duration": 0.0737100000000055
                },
                {
                    "name": "D#4",
                    "midi": 63,
                    "time": 89.33652000000033,
                    "velocity": 0.4645669291338583,
                    "duration": 0.0737100000000055
                },
                {
                    "name": "D#5",
                    "midi": 75,
                    "time": 89.41023000000034,
                    "velocity": 0.4251968503937008,
                    "duration": 0.0737100000000055
                },
                {
                    "name": "D#4",
                    "midi": 63,
                    "time": 89.48394000000035,
                    "velocity": 0.47244094488188976,
                    "duration": 0.0737100000000055
                },
                {
                    "name": "D#5",
                    "midi": 75,
                    "time": 89.55765000000035,
                    "velocity": 0.4251968503937008,
                    "duration": 0.0737100000000055
                },
                {
                    "name": "D#4",
                    "midi": 63,
                    "time": 89.63136000000036,
                    "velocity": 0.5511811023622047,
                    "duration": 0.29483999999999355
                },
                {
                    "name": "D#5",
                    "midi": 75,
                    "time": 89.63136000000036,
                    "velocity": 0.5511811023622047,
                    "duration": 0.29483999999999355
                },
                {
                    "name": "D#5",
                    "midi": 75,
                    "time": 90.07362000000035,
                    "velocity": 0.5826771653543307,
                    "duration": 0.14741999999999678
                },
                {
                    "name": "D5",
                    "midi": 74,
                    "time": 90.22104000000034,
                    "velocity": 0.6614173228346457,
                    "duration": 0.14741999999999678
                },
                {
                    "name": "D#5",
                    "midi": 75,
                    "time": 90.36846000000034,
                    "velocity": 0.6062992125984252,
                    "duration": 0.14741999999999678
                },
                {
                    "name": "C6",
                    "midi": 84,
                    "time": 90.51588000000034,
                    "velocity": 0.6771653543307087,
                    "duration": 0.0737100000000055
                },
                {
                    "name": "G#5",
                    "midi": 80,
                    "time": 90.51588000000034,
                    "velocity": 0.6771653543307087,
                    "duration": 0.0737100000000055
                },
                {
                    "name": "G#5",
                    "midi": 80,
                    "time": 90.66330000000035,
                    "velocity": 0.6220472440944882,
                    "duration": 0.0737100000000055
                },
                {
                    "name": "C6",
                    "midi": 84,
                    "time": 90.66330000000035,
                    "velocity": 0.6220472440944882,
                    "duration": 0.0737100000000055
                },
                {
                    "name": "G#5",
                    "midi": 80,
                    "time": 90.81072000000036,
                    "velocity": 0.7244094488188977,
                    "duration": 0.29483999999999355
                },
                {
                    "name": "C6",
                    "midi": 84,
                    "time": 90.81072000000036,
                    "velocity": 0.7244094488188977,
                    "duration": 0.36854999999999905
                },
                {
                    "name": "A#5",
                    "midi": 82,
                    "time": 91.17927000000036,
                    "velocity": 0.5826771653543307,
                    "duration": 0.0737100000000055
                },
                {
                    "name": "G#5",
                    "midi": 80,
                    "time": 91.25298000000036,
                    "velocity": 0.5748031496062992,
                    "duration": 0.0737100000000055
                },
                {
                    "name": "G5",
                    "midi": 79,
                    "time": 91.32669000000037,
                    "velocity": 0.5669291338582677,
                    "duration": 0.0737100000000055
                },
                {
                    "name": "F5",
                    "midi": 77,
                    "time": 91.40040000000037,
                    "velocity": 0.5669291338582677,
                    "duration": 0.0737100000000055
                },
                {
                    "name": "D#5",
                    "midi": 75,
                    "time": 91.47411000000038,
                    "velocity": 0.5669291338582677,
                    "duration": 0.0737100000000055
                },
                {
                    "name": "D5",
                    "midi": 74,
                    "time": 91.54782000000039,
                    "velocity": 0.5590551181102362,
                    "duration": 0.0737100000000055
                },
                {
                    "name": "C5",
                    "midi": 72,
                    "time": 91.62153000000039,
                    "velocity": 0.5511811023622047,
                    "duration": 0.0737100000000055
                },
                {
                    "name": "B4",
                    "midi": 71,
                    "time": 91.6952400000004,
                    "velocity": 0.5433070866141733,
                    "duration": 0.0737100000000055
                },
                {
                    "name": "A#4",
                    "midi": 70,
                    "time": 91.7689500000004,
                    "velocity": 0.5354330708661418,
                    "duration": 0.0737100000000055
                },
                {
                    "name": "A4",
                    "midi": 69,
                    "time": 91.84266000000041,
                    "velocity": 0.5275590551181102,
                    "duration": 0.0737100000000055
                },
                {
                    "name": "G#4",
                    "midi": 68,
                    "time": 91.91637000000041,
                    "velocity": 0.5196850393700787,
                    "duration": 0.0737100000000055
                },
                {
                    "name": "G4",
                    "midi": 67,
                    "time": 91.99008000000042,
                    "velocity": 0.5196850393700787,
                    "duration": 0.09828000000000259
                },
                {
                    "name": "G#4",
                    "midi": 68,
                    "time": 92.08836000000042,
                    "velocity": 0.4881889763779528,
                    "duration": 0.09828000000000259
                },
                {
                    "name": "A#4",
                    "midi": 70,
                    "time": 92.18664000000042,
                    "velocity": 0.4881889763779528,
                    "duration": 0.09828000000000259
                },
                {
                    "name": "G#4",
                    "midi": 68,
                    "time": 92.28492000000043,
                    "velocity": 0.5196850393700787,
                    "duration": 0.09828000000000259
                },
                {
                    "name": "G4",
                    "midi": 67,
                    "time": 92.38320000000043,
                    "velocity": 0.4881889763779528,
                    "duration": 0.09828000000000259
                },
                {
                    "name": "F4",
                    "midi": 65,
                    "time": 92.48148000000043,
                    "velocity": 0.4881889763779528,
                    "duration": 0.09828000000000259
                },
                {
                    "name": "D#4",
                    "midi": 63,
                    "time": 92.57976000000043,
                    "velocity": 0.5196850393700787,
                    "duration": 0.09828000000000259
                },
                {
                    "name": "D4",
                    "midi": 62,
                    "time": 92.67804000000044,
                    "velocity": 0.4881889763779528,
                    "duration": 0.09828000000000259
                },
                {
                    "name": "C4",
                    "midi": 60,
                    "time": 92.77632000000044,
                    "velocity": 0.4881889763779528,
                    "duration": 0.09828000000000259
                },
                {
                    "name": "A#3",
                    "midi": 58,
                    "time": 92.87460000000044,
                    "velocity": 0.5196850393700787,
                    "duration": 0.09828000000000259
                },
                {
                    "name": "G#3",
                    "midi": 56,
                    "time": 92.97288000000044,
                    "velocity": 0.47244094488188976,
                    "duration": 0.09828000000000259
                },
                {
                    "name": "G3",
                    "midi": 55,
                    "time": 93.07116000000045,
                    "velocity": 0.49606299212598426,
                    "duration": 0.09828000000000259
                },
                {
                    "name": "F3",
                    "midi": 53,
                    "time": 93.24315000000045,
                    "velocity": 0.4645669291338583,
                    "duration": 0.0737100000000055
                },
                {
                    "name": "G#3",
                    "midi": 56,
                    "time": 93.31686000000046,
                    "velocity": 0.49606299212598426,
                    "duration": 0.0737100000000055
                },
                {
                    "name": "C4",
                    "midi": 60,
                    "time": 93.39057000000047,
                    "velocity": 0.5275590551181102,
                    "duration": 0.0737100000000055
                },
                {
                    "name": "F4",
                    "midi": 65,
                    "time": 93.46428000000047,
                    "velocity": 0.5669291338582677,
                    "duration": 0.14741999999999678
                },
                {
                    "name": "F3",
                    "midi": 53,
                    "time": 93.83283000000047,
                    "velocity": 0.49606299212598426,
                    "duration": 0.0737100000000055
                },
                {
                    "name": "G#3",
                    "midi": 56,
                    "time": 93.90654000000048,
                    "velocity": 0.5196850393700787,
                    "duration": 0.0737100000000055
                },
                {
                    "name": "A#3",
                    "midi": 58,
                    "time": 93.98025000000048,
                    "velocity": 0.5433070866141733,
                    "duration": 0.0737100000000055
                },
                {
                    "name": "D4",
                    "midi": 62,
                    "time": 94.05396000000049,
                    "velocity": 0.5669291338582677,
                    "duration": 0.14741999999999678
                },
                {
                    "name": "D5",
                    "midi": 74,
                    "time": 94.34880000000048,
                    "velocity": 0.5275590551181102,
                    "duration": 0.0737100000000055
                },
                {
                    "name": "D6",
                    "midi": 86,
                    "time": 94.42251000000049,
                    "velocity": 0.47244094488188976,
                    "duration": 0.0737100000000055
                },
                {
                    "name": "D5",
                    "midi": 74,
                    "time": 94.49622000000049,
                    "velocity": 0.5275590551181102,
                    "duration": 0.0737100000000055
                },
                {
                    "name": "D6",
                    "midi": 86,
                    "time": 94.5699300000005,
                    "velocity": 0.47244094488188976,
                    "duration": 0.0737100000000055
                },
                {
                    "name": "D5",
                    "midi": 74,
                    "time": 94.6436400000005,
                    "velocity": 0.5275590551181102,
                    "duration": 0.0737100000000055
                },
                {
                    "name": "D6",
                    "midi": 86,
                    "time": 94.71735000000051,
                    "velocity": 0.4645669291338583,
                    "duration": 0.0737100000000055
                },
                {
                    "name": "D5",
                    "midi": 74,
                    "time": 94.79106000000051,
                    "velocity": 0.5275590551181102,
                    "duration": 0.0737100000000055
                },
                {
                    "name": "D6",
                    "midi": 86,
                    "time": 94.86477000000052,
                    "velocity": 0.48031496062992124,
                    "duration": 0.0737100000000055
                },
                {
                    "name": "D5",
                    "midi": 74,
                    "time": 94.93848000000052,
                    "velocity": 0.5275590551181102,
                    "duration": 0.0737100000000055
                },
                {
                    "name": "D6",
                    "midi": 86,
                    "time": 95.01219000000053,
                    "velocity": 0.4645669291338583,
                    "duration": 0.0737100000000055
                },
                {
                    "name": "D5",
                    "midi": 74,
                    "time": 95.08590000000054,
                    "velocity": 0.5275590551181102,
                    "duration": 0.0737100000000055
                },
                {
                    "name": "D6",
                    "midi": 86,
                    "time": 95.15961000000054,
                    "velocity": 0.4645669291338583,
                    "duration": 0.0737100000000055
                },
                {
                    "name": "D5",
                    "midi": 74,
                    "time": 95.23332000000055,
                    "velocity": 0.5275590551181102,
                    "duration": 0.0737100000000055
                },
                {
                    "name": "D6",
                    "midi": 86,
                    "time": 95.30703000000055,
                    "velocity": 0.4645669291338583,
                    "duration": 0.0737100000000055
                },
                {
                    "name": "D5",
                    "midi": 74,
                    "time": 95.38074000000056,
                    "velocity": 0.5275590551181102,
                    "duration": 0.0737100000000055
                },
                {
                    "name": "D6",
                    "midi": 86,
                    "time": 95.45445000000056,
                    "velocity": 0.47244094488188976,
                    "duration": 0.0737100000000055
                },
                {
                    "name": "D#5",
                    "midi": 75,
                    "time": 95.52816000000057,
                    "velocity": 0.5275590551181102,
                    "duration": 0.0737100000000055
                },
                {
                    "name": "D#6",
                    "midi": 87,
                    "time": 95.60187000000057,
                    "velocity": 0.47244094488188976,
                    "duration": 0.0737100000000055
                },
                {
                    "name": "D#5",
                    "midi": 75,
                    "time": 95.67558000000058,
                    "velocity": 0.5433070866141733,
                    "duration": 0.0737100000000055
                },
                {
                    "name": "D#6",
                    "midi": 87,
                    "time": 95.74929000000058,
                    "velocity": 0.4881889763779528,
                    "duration": 0.0737100000000055
                },
                {
                    "name": "D#5",
                    "midi": 75,
                    "time": 95.82300000000059,
                    "velocity": 0.5590551181102362,
                    "duration": 0.0737100000000055
                },
                {
                    "name": "D#6",
                    "midi": 87,
                    "time": 95.8967100000006,
                    "velocity": 0.49606299212598426,
                    "duration": 0.0737100000000055
                },
                {
                    "name": "D#5",
                    "midi": 75,
                    "time": 95.9704200000006,
                    "velocity": 0.5669291338582677,
                    "duration": 0.0737100000000055
                },
                {
                    "name": "D#6",
                    "midi": 87,
                    "time": 96.0441300000006,
                    "velocity": 0.5275590551181102,
                    "duration": 0.0737100000000055
                },
                {
                    "name": "D#5",
                    "midi": 75,
                    "time": 96.11784000000061,
                    "velocity": 0.5905511811023622,
                    "duration": 0.0737100000000055
                },
                {
                    "name": "D#6",
                    "midi": 87,
                    "time": 96.19155000000062,
                    "velocity": 0.5275590551181102,
                    "duration": 0.0737100000000055
                },
                {
                    "name": "D#5",
                    "midi": 75,
                    "time": 96.26526000000062,
                    "velocity": 0.6062992125984252,
                    "duration": 0.0737100000000055
                },
                {
                    "name": "D#6",
                    "midi": 87,
                    "time": 96.33897000000063,
                    "velocity": 0.5433070866141733,
                    "duration": 0.0737100000000055
                },
                {
                    "name": "E5",
                    "midi": 76,
                    "time": 96.41268000000063,
                    "velocity": 0.6299212598425197,
                    "duration": 0.0737100000000055
                },
                {
                    "name": "E6",
                    "midi": 88,
                    "time": 96.48639000000064,
                    "velocity": 0.5590551181102362,
                    "duration": 0.0737100000000055
                },
                {
                    "name": "E5",
                    "midi": 76,
                    "time": 96.56010000000065,
                    "velocity": 0.6377952755905512,
                    "duration": 0.0737100000000055
                },
                {
                    "name": "E6",
                    "midi": 88,
                    "time": 96.63381000000065,
                    "velocity": 0.5748031496062992,
                    "duration": 0.0737100000000055
                },
                {
                    "name": "F5",
                    "midi": 77,
                    "time": 96.78123000000066,
                    "velocity": 0.5590551181102362,
                    "duration": 0.0737100000000055
                },
                {
                    "name": "G#5",
                    "midi": 80,
                    "time": 96.85494000000067,
                    "velocity": 0.5984251968503937,
                    "duration": 0.0737100000000055
                },
                {
                    "name": "C6",
                    "midi": 84,
                    "time": 96.92865000000067,
                    "velocity": 0.6377952755905512,
                    "duration": 0.0737100000000055
                },
                {
                    "name": "F6",
                    "midi": 89,
                    "time": 97.00236000000068,
                    "velocity": 0.6771653543307087,
                    "duration": 0.14741999999999678
                },
                {
                    "name": "D5",
                    "midi": 74,
                    "time": 97.37091000000068,
                    "velocity": 0.5905511811023622,
                    "duration": 0.0737100000000055
                },
                {
                    "name": "F5",
                    "midi": 77,
                    "time": 97.44462000000068,
                    "velocity": 0.6220472440944882,
                    "duration": 0.0737100000000055
                },
                {
                    "name": "G#5",
                    "midi": 80,
                    "time": 97.51833000000069,
                    "velocity": 0.6456692913385826,
                    "duration": 0.0737100000000055
                },
                {
                    "name": "D6",
                    "midi": 86,
                    "time": 97.5920400000007,
                    "velocity": 0.6771653543307087,
                    "duration": 0.14741999999999678
                },
                {
                    "name": "D#5",
                    "midi": 75,
                    "time": 97.88688000000069,
                    "velocity": 0.6299212598425197,
                    "duration": 0.29483999999999355
                },
                {
                    "name": "A#5",
                    "midi": 82,
                    "time": 97.88688000000069,
                    "velocity": 0.6299212598425197,
                    "duration": 0.29483999999999355
                },
                {
                    "name": "G5",
                    "midi": 79,
                    "time": 97.88688000000069,
                    "velocity": 0.6299212598425197,
                    "duration": 0.29483999999999355
                },
                {
                    "name": "D#6",
                    "midi": 87,
                    "time": 97.88688000000069,
                    "velocity": 0.7401574803149606,
                    "duration": 0.29483999999999355
                },
                {
                    "name": "A#5",
                    "midi": 82,
                    "time": 98.18172000000068,
                    "velocity": 0.49606299212598426,
                    "duration": 0.0737100000000055
                },
                {
                    "name": "A#5",
                    "midi": 82,
                    "time": 98.32914000000069,
                    "velocity": 0.49606299212598426,
                    "duration": 0.0737100000000055
                },
                {
                    "name": "A#5",
                    "midi": 82,
                    "time": 98.4765600000007,
                    "velocity": 0.5511811023622047,
                    "duration": 0.14741999999999678
                },
                {
                    "name": "A#5",
                    "midi": 82,
                    "time": 98.7714000000007,
                    "velocity": 0.49606299212598426,
                    "duration": 0.0737100000000055
                },
                {
                    "name": "A#5",
                    "midi": 82,
                    "time": 98.91882000000071,
                    "velocity": 0.49606299212598426,
                    "duration": 0.0737100000000055
                },
                {
                    "name": "A#5",
                    "midi": 82,
                    "time": 99.06624000000072,
                    "velocity": 0.5433070866141733,
                    "duration": 0.14741999999999678
                },
                {
                    "name": "F3",
                    "midi": 53,
                    "time": 99.36108000000071,
                    "velocity": 0.47244094488188976,
                    "duration": 0.14741999999999678
                },
                {
                    "name": "G#3",
                    "midi": 56,
                    "time": 99.36108000000071,
                    "velocity": 0.47244094488188976,
                    "duration": 0.14741999999999678
                },
                {
                    "name": "D4",
                    "midi": 62,
                    "time": 99.36108000000071,
                    "velocity": 0.5669291338582677,
                    "duration": 0.14741999999999678
                },
                {
                    "name": "F3",
                    "midi": 53,
                    "time": 99.95076000000071,
                    "velocity": 0.25984251968503935,
                    "duration": 0.0737100000000055
                },
                {
                    "name": "G#3",
                    "midi": 56,
                    "time": 99.95076000000071,
                    "velocity": 0.25984251968503935,
                    "duration": 0.0737100000000055
                },
                {
                    "name": "D4",
                    "midi": 62,
                    "time": 99.95076000000071,
                    "velocity": 0.30708661417322836,
                    "duration": 0.0737100000000055
                },
                {
                    "name": "G3",
                    "midi": 55,
                    "time": 100.24560000000072,
                    "velocity": 0.29133858267716534,
                    "duration": 0.0737100000000055
                },
                {
                    "name": "D#4",
                    "midi": 63,
                    "time": 100.24560000000072,
                    "velocity": 0.3543307086614173,
                    "duration": 0.0737100000000055
                },
                {
                    "name": "C4",
                    "midi": 60,
                    "time": 100.54044000000073,
                    "velocity": 0.2755905511811024,
                    "duration": 0.0737100000000055
                },
                {
                    "name": "D#4",
                    "midi": 63,
                    "time": 100.54044000000073,
                    "velocity": 0.2755905511811024,
                    "duration": 0.0737100000000055
                },
                {
                    "name": "F4",
                    "midi": 65,
                    "time": 100.54044000000073,
                    "velocity": 0.3228346456692913,
                    "duration": 0.0737100000000055
                },
                {
                    "name": "A#3",
                    "midi": 58,
                    "time": 100.83528000000074,
                    "velocity": 0.29133858267716534,
                    "duration": 0.0737100000000055
                },
                {
                    "name": "D#4",
                    "midi": 63,
                    "time": 100.83528000000074,
                    "velocity": 0.29133858267716534,
                    "duration": 0.0737100000000055
                },
                {
                    "name": "G4",
                    "midi": 67,
                    "time": 100.83528000000074,
                    "velocity": 0.3543307086614173,
                    "duration": 0.0737100000000055
                },
                {
                    "name": "G#3",
                    "midi": 56,
                    "time": 101.13012000000074,
                    "velocity": 0.25984251968503935,
                    "duration": 0.0737100000000055
                },
                {
                    "name": "D4",
                    "midi": 62,
                    "time": 101.13012000000074,
                    "velocity": 0.25984251968503935,
                    "duration": 0.0737100000000055
                },
                {
                    "name": "F4",
                    "midi": 65,
                    "time": 101.13012000000074,
                    "velocity": 0.30708661417322836,
                    "duration": 0.0737100000000055
                },
                {
                    "name": "G3",
                    "midi": 55,
                    "time": 101.42496000000075,
                    "velocity": 0.29133858267716534,
                    "duration": 0.0737100000000055
                },
                {
                    "name": "D#4",
                    "midi": 63,
                    "time": 101.42496000000075,
                    "velocity": 0.3543307086614173,
                    "duration": 0.0737100000000055
                },
                {
                    "name": "A#5",
                    "midi": 82,
                    "time": 101.71980000000076,
                    "velocity": 0.49606299212598426,
                    "duration": 0.0737100000000055
                },
                {
                    "name": "C6",
                    "midi": 84,
                    "time": 101.79351000000077,
                    "velocity": 0.4645669291338583,
                    "duration": 0.0737100000000055
                },
                {
                    "name": "A#5",
                    "midi": 82,
                    "time": 101.86722000000077,
                    "velocity": 0.49606299212598426,
                    "duration": 0.0737100000000055
                },
                {
                    "name": "A5",
                    "midi": 81,
                    "time": 101.94093000000078,
                    "velocity": 0.4645669291338583,
                    "duration": 0.0737100000000055
                },
                {
                    "name": "A#5",
                    "midi": 82,
                    "time": 102.01464000000078,
                    "velocity": 0.5511811023622047,
                    "duration": 0.14741999999999678
                },
                {
                    "name": "A#5",
                    "midi": 82,
                    "time": 102.30948000000078,
                    "velocity": 0.49606299212598426,
                    "duration": 0.0737100000000055
                },
                {
                    "name": "C6",
                    "midi": 84,
                    "time": 102.38319000000078,
                    "velocity": 0.4566929133858268,
                    "duration": 0.0737100000000055
                },
                {
                    "name": "A#5",
                    "midi": 82,
                    "time": 102.45690000000079,
                    "velocity": 0.49606299212598426,
                    "duration": 0.0737100000000055
                },
                {
                    "name": "A5",
                    "midi": 81,
                    "time": 102.53061000000079,
                    "velocity": 0.44881889763779526,
                    "duration": 0.0737100000000055
                },
                {
                    "name": "A#5",
                    "midi": 82,
                    "time": 102.6043200000008,
                    "velocity": 0.5433070866141733,
                    "duration": 0.14741999999999678
                },
                {
                    "name": "F3",
                    "midi": 53,
                    "time": 102.89916000000079,
                    "velocity": 0.47244094488188976,
                    "duration": 0.14741999999999678
                },
                {
                    "name": "G#3",
                    "midi": 56,
                    "time": 102.89916000000079,
                    "velocity": 0.47244094488188976,
                    "duration": 0.14741999999999678
                },
                {
                    "name": "D4",
                    "midi": 62,
                    "time": 102.89916000000079,
                    "velocity": 0.5669291338582677,
                    "duration": 0.14741999999999678
                },
                {
                    "name": "D#3",
                    "midi": 51,
                    "time": 103.48884000000079,
                    "velocity": 0.4330708661417323,
                    "duration": 0.5896800000000013
                },
                {
                    "name": "F#3",
                    "midi": 54,
                    "time": 103.48884000000079,
                    "velocity": 0.4330708661417323,
                    "duration": 0.5896800000000013
                },
                {
                    "name": "A3",
                    "midi": 57,
                    "time": 103.48884000000079,
                    "velocity": 0.4330708661417323,
                    "duration": 0.5896800000000013
                },
                {
                    "name": "D#4",
                    "midi": 63,
                    "time": 103.48884000000079,
                    "velocity": 0.5196850393700787,
                    "duration": 0.5896800000000013
                },
                {
                    "name": "C4",
                    "midi": 60,
                    "time": 104.0785200000008,
                    "velocity": 0.2755905511811024,
                    "duration": 0.0737100000000055
                },
                {
                    "name": "D#4",
                    "midi": 63,
                    "time": 104.0785200000008,
                    "velocity": 0.2755905511811024,
                    "duration": 0.0737100000000055
                },
                {
                    "name": "F4",
                    "midi": 65,
                    "time": 104.0785200000008,
                    "velocity": 0.3228346456692913,
                    "duration": 0.0737100000000055
                },
                {
                    "name": "A#3",
                    "midi": 58,
                    "time": 104.3733600000008,
                    "velocity": 0.29133858267716534,
                    "duration": 0.0737100000000055
                },
                {
                    "name": "D#4",
                    "midi": 63,
                    "time": 104.3733600000008,
                    "velocity": 0.29133858267716534,
                    "duration": 0.0737100000000055
                },
                {
                    "name": "G4",
                    "midi": 67,
                    "time": 104.3733600000008,
                    "velocity": 0.3543307086614173,
                    "duration": 0.0737100000000055
                },
                {
                    "name": "G#3",
                    "midi": 56,
                    "time": 104.66820000000081,
                    "velocity": 0.25984251968503935,
                    "duration": 0.0737100000000055
                },
                {
                    "name": "D4",
                    "midi": 62,
                    "time": 104.66820000000081,
                    "velocity": 0.25984251968503935,
                    "duration": 0.0737100000000055
                },
                {
                    "name": "F4",
                    "midi": 65,
                    "time": 104.66820000000081,
                    "velocity": 0.30708661417322836,
                    "duration": 0.0737100000000055
                },
                {
                    "name": "G3",
                    "midi": 55,
                    "time": 104.96304000000082,
                    "velocity": 0.29133858267716534,
                    "duration": 0.14741999999999678
                },
                {
                    "name": "D#4",
                    "midi": 63,
                    "time": 104.96304000000082,
                    "velocity": 0.3543307086614173,
                    "duration": 0.14741999999999678
                },
                {
                    "name": "D4",
                    "midi": 62,
                    "time": 105.25788000000081,
                    "velocity": 0.23622047244094488,
                    "duration": 0.14741999999999678
                },
                {
                    "name": "G#4",
                    "midi": 68,
                    "time": 105.25788000000081,
                    "velocity": 0.28346456692913385,
                    "duration": 0.14741999999999678
                },
                {
                    "name": "D#4",
                    "midi": 63,
                    "time": 105.4053000000008,
                    "velocity": 0.2125984251968504,
                    "duration": 0.14741999999999678
                },
                {
                    "name": "G4",
                    "midi": 67,
                    "time": 105.4053000000008,
                    "velocity": 0.25196850393700787,
                    "duration": 0.14741999999999678
                },
                {
                    "name": "G#4",
                    "midi": 68,
                    "time": 105.8475600000008,
                    "velocity": 0.2440944881889764,
                    "duration": 0.14741999999999678
                },
                {
                    "name": "D5",
                    "midi": 74,
                    "time": 105.8475600000008,
                    "velocity": 0.29133858267716534,
                    "duration": 0.14741999999999678
                },
                {
                    "name": "G4",
                    "midi": 67,
                    "time": 105.9949800000008,
                    "velocity": 0.2125984251968504,
                    "duration": 0.14741999999999678
                },
                {
                    "name": "D#5",
                    "midi": 75,
                    "time": 105.9949800000008,
                    "velocity": 0.25196850393700787,
                    "duration": 0.14741999999999678
                },
                {
                    "name": "G#5",
                    "midi": 80,
                    "time": 106.43724000000078,
                    "velocity": 0.29133858267716534,
                    "duration": 0.14741999999999678
                },
                {
                    "name": "D5",
                    "midi": 74,
                    "time": 106.43724000000078,
                    "velocity": 0.2440944881889764,
                    "duration": 0.14741999999999678
                },
                {
                    "name": "D#5",
                    "midi": 75,
                    "time": 106.58466000000078,
                    "velocity": 0.2125984251968504,
                    "duration": 0.14741999999999678
                },
                {
                    "name": "G5",
                    "midi": 79,
                    "time": 106.58466000000078,
                    "velocity": 0.25196850393700787,
                    "duration": 0.14741999999999678
                },
                {
                    "name": "D6",
                    "midi": 86,
                    "time": 107.02692000000077,
                    "velocity": 0.33858267716535434,
                    "duration": 0.14741999999999678
                },
                {
                    "name": "G#5",
                    "midi": 80,
                    "time": 107.02692000000077,
                    "velocity": 0.28346456692913385,
                    "duration": 0.14741999999999678
                },
                {
                    "name": "G5",
                    "midi": 79,
                    "time": 107.17434000000077,
                    "velocity": 0.23622047244094488,
                    "duration": 0.14741999999999678
                },
                {
                    "name": "D#6",
                    "midi": 87,
                    "time": 107.17434000000077,
                    "velocity": 0.28346456692913385,
                    "duration": 0.14741999999999678
                },
                {
                    "name": "G3",
                    "midi": 55,
                    "time": 107.61660000000076,
                    "velocity": 0.3779527559055118,
                    "duration": 0.29483999999999355
                },
                {
                    "name": "A#3",
                    "midi": 58,
                    "time": 107.61660000000076,
                    "velocity": 0.3779527559055118,
                    "duration": 0.29483999999999355
                },
                {
                    "name": "D#4",
                    "midi": 63,
                    "time": 107.61660000000076,
                    "velocity": 0.44881889763779526,
                    "duration": 0.29483999999999355
                },
                {
                    "name": "D#4",
                    "midi": 63,
                    "time": 110.12274000000075,
                    "velocity": 0.31496062992125984,
                    "duration": 0.14741999999999678
                },
                {
                    "name": "D4",
                    "midi": 62,
                    "time": 110.27016000000074,
                    "velocity": 0.3543307086614173,
                    "duration": 0.14741999999999678
                },
                {
                    "name": "D#4",
                    "midi": 63,
                    "time": 110.41758000000074,
                    "velocity": 0.31496062992125984,
                    "duration": 0.14741999999999678
                },
                {
                    "name": "A#4",
                    "midi": 70,
                    "time": 110.56500000000074,
                    "velocity": 0.3543307086614173,
                    "duration": 0.0737100000000055
                },
                {
                    "name": "A#4",
                    "midi": 70,
                    "time": 110.71242000000075,
                    "velocity": 0.2992125984251969,
                    "duration": 0.0737100000000055
                },
                {
                    "name": "C#4",
                    "midi": 61,
                    "time": 110.85984000000076,
                    "velocity": 0.3543307086614173,
                    "duration": 0.14741999999999678
                },
                {
                    "name": "D4",
                    "midi": 62,
                    "time": 111.00726000000076,
                    "velocity": 0.31496062992125984,
                    "duration": 0.14741999999999678
                },
                {
                    "name": "A#4",
                    "midi": 70,
                    "time": 111.15468000000075,
                    "velocity": 0.3543307086614173,
                    "duration": 0.0737100000000055
                },
                {
                    "name": "A#4",
                    "midi": 70,
                    "time": 111.30210000000076,
                    "velocity": 0.2992125984251969,
                    "duration": 0.0737100000000055
                },
                {
                    "name": "F4",
                    "midi": 65,
                    "time": 112.48146000000077,
                    "velocity": 0.31496062992125984,
                    "duration": 0.14741999999999678
                },
                {
                    "name": "E4",
                    "midi": 64,
                    "time": 112.62888000000076,
                    "velocity": 0.3543307086614173,
                    "duration": 0.14741999999999678
                },
                {
                    "name": "F4",
                    "midi": 65,
                    "time": 112.77630000000076,
                    "velocity": 0.31496062992125984,
                    "duration": 0.14741999999999678
                },
                {
                    "name": "A#4",
                    "midi": 70,
                    "time": 112.92372000000076,
                    "velocity": 0.3543307086614173,
                    "duration": 0.0737100000000055
                },
                {
                    "name": "A#4",
                    "midi": 70,
                    "time": 113.07114000000077,
                    "velocity": 0.2992125984251969,
                    "duration": 0.0737100000000055
                },
                {
                    "name": "D#4",
                    "midi": 63,
                    "time": 113.21856000000078,
                    "velocity": 0.3543307086614173,
                    "duration": 0.14741999999999678
                },
                {
                    "name": "E4",
                    "midi": 64,
                    "time": 113.36598000000077,
                    "velocity": 0.31496062992125984,
                    "duration": 0.14741999999999678
                },
                {
                    "name": "A#4",
                    "midi": 70,
                    "time": 113.51340000000077,
                    "velocity": 0.3543307086614173,
                    "duration": 0.0737100000000055
                },
                {
                    "name": "A#4",
                    "midi": 70,
                    "time": 113.66082000000078,
                    "velocity": 0.2992125984251969,
                    "duration": 0.0737100000000055
                },
                {
                    "name": "E4",
                    "midi": 64,
                    "time": 113.8082400000008,
                    "velocity": 0.3543307086614173,
                    "duration": 0.14741999999999678
                },
                {
                    "name": "F4",
                    "midi": 65,
                    "time": 113.95566000000079,
                    "velocity": 0.3228346456692913,
                    "duration": 0.14741999999999678
                },
                {
                    "name": "C#5",
                    "midi": 73,
                    "time": 114.10308000000079,
                    "velocity": 0.36220472440944884,
                    "duration": 0.0737100000000055
                },
                {
                    "name": "C#5",
                    "midi": 73,
                    "time": 114.2505000000008,
                    "velocity": 0.31496062992125984,
                    "duration": 0.0737100000000055
                },
                {
                    "name": "F#4",
                    "midi": 66,
                    "time": 114.39792000000081,
                    "velocity": 0.3700787401574803,
                    "duration": 0.14741999999999678
                },
                {
                    "name": "G4",
                    "midi": 67,
                    "time": 114.5453400000008,
                    "velocity": 0.33858267716535434,
                    "duration": 0.14741999999999678
                },
                {
                    "name": "C#5",
                    "midi": 73,
                    "time": 114.6927600000008,
                    "velocity": 0.3779527559055118,
                    "duration": 0.0737100000000055
                },
                {
                    "name": "C#5",
                    "midi": 73,
                    "time": 114.84018000000081,
                    "velocity": 0.3228346456692913,
                    "duration": 0.0737100000000055
                },
                {
                    "name": "C5",
                    "midi": 72,
                    "time": 114.98760000000082,
                    "velocity": 0.3858267716535433,
                    "duration": 0.14741999999999678
                },
                {
                    "name": "A#4",
                    "midi": 70,
                    "time": 115.13502000000082,
                    "velocity": 0.33070866141732286,
                    "duration": 0.14741999999999678
                },
                {
                    "name": "A4",
                    "midi": 69,
                    "time": 115.28244000000082,
                    "velocity": 0.3700787401574803,
                    "duration": 0.14741999999999678
                },
                {
                    "name": "A#4",
                    "midi": 70,
                    "time": 115.42986000000082,
                    "velocity": 0.33070866141732286,
                    "duration": 0.14741999999999678
                },
                {
                    "name": "G4",
                    "midi": 67,
                    "time": 115.57728000000081,
                    "velocity": 0.3858267716535433,
                    "duration": 0.14741999999999678
                },
                {
                    "name": "G#4",
                    "midi": 68,
                    "time": 115.72470000000081,
                    "velocity": 0.3464566929133858,
                    "duration": 0.14741999999999678
                },
                {
                    "name": "F5",
                    "midi": 77,
                    "time": 115.8721200000008,
                    "velocity": 0.3937007874015748,
                    "duration": 0.0737100000000055
                },
                {
                    "name": "F5",
                    "midi": 77,
                    "time": 116.01954000000082,
                    "velocity": 0.3464566929133858,
                    "duration": 0.0737100000000055
                },
                {
                    "name": "B4",
                    "midi": 71,
                    "time": 116.16696000000083,
                    "velocity": 0.4094488188976378,
                    "duration": 0.14741999999999678
                },
                {
                    "name": "C5",
                    "midi": 72,
                    "time": 116.31438000000082,
                    "velocity": 0.3700787401574803,
                    "duration": 0.14741999999999678
                },
                {
                    "name": "G#5",
                    "midi": 80,
                    "time": 116.46180000000082,
                    "velocity": 0.4251968503937008,
                    "duration": 0.0737100000000055
                },
                {
                    "name": "G#5",
                    "midi": 80,
                    "time": 116.60922000000083,
                    "velocity": 0.3700787401574803,
                    "duration": 0.0737100000000055
                },
                {
                    "name": "E5",
                    "midi": 76,
                    "time": 116.75664000000084,
                    "velocity": 0.4409448818897638,
                    "duration": 0.14741999999999678
                },
                {
                    "name": "F5",
                    "midi": 77,
                    "time": 116.90406000000084,
                    "velocity": 0.3937007874015748,
                    "duration": 0.14741999999999678
                },
                {
                    "name": "B5",
                    "midi": 83,
                    "time": 117.05148000000084,
                    "velocity": 0.44881889763779526,
                    "duration": 0.0737100000000055
                },
                {
                    "name": "B5",
                    "midi": 83,
                    "time": 117.19890000000085,
                    "velocity": 0.3937007874015748,
                    "duration": 0.0737100000000055
                },
                {
                    "name": "G5",
                    "midi": 79,
                    "time": 117.34632000000086,
                    "velocity": 0.49606299212598426,
                    "duration": 0.14741999999999678
                },
                {
                    "name": "G#5",
                    "midi": 80,
                    "time": 117.49374000000086,
                    "velocity": 0.4409448818897638,
                    "duration": 0.14741999999999678
                },
                {
                    "name": "D6",
                    "midi": 86,
                    "time": 117.64116000000085,
                    "velocity": 0.5196850393700787,
                    "duration": 0.0737100000000055
                },
                {
                    "name": "D6",
                    "midi": 86,
                    "time": 117.78858000000086,
                    "velocity": 0.47244094488188976,
                    "duration": 0.0737100000000055
                },
                {
                    "name": "C#6",
                    "midi": 85,
                    "time": 117.93600000000087,
                    "velocity": 0.6220472440944882,
                    "duration": 0.14741999999999678
                },
                {
                    "name": "D6",
                    "midi": 86,
                    "time": 118.08342000000087,
                    "velocity": 0.5669291338582677,
                    "duration": 0.14741999999999678
                },
                {
                    "name": "F6",
                    "midi": 89,
                    "time": 118.23084000000087,
                    "velocity": 0.5433070866141733,
                    "duration": 0.0737100000000055
                },
                {
                    "name": "F6",
                    "midi": 89,
                    "time": 118.37826000000088,
                    "velocity": 0.5039370078740157,
                    "duration": 0.0737100000000055
                },
                {
                    "name": "F6",
                    "midi": 89,
                    "time": 118.52568000000089,
                    "velocity": 0.5984251968503937,
                    "duration": 0.5896800000000013
                },
                {
                    "name": "G#4",
                    "midi": 68,
                    "time": 119.26278000000089,
                    "velocity": 0.5118110236220472,
                    "duration": 0.13267799999999852
                },
                {
                    "name": "G#4",
                    "midi": 68,
                    "time": 119.41020000000088,
                    "velocity": 0.5118110236220472,
                    "duration": 0.13267799999999852
                },
                {
                    "name": "G#4",
                    "midi": 68,
                    "time": 119.55762000000088,
                    "velocity": 0.5118110236220472,
                    "duration": 0.13267799999999852
                },
                {
                    "name": "B3",
                    "midi": 59,
                    "time": 119.70504000000088,
                    "velocity": 0.5826771653543307,
                    "duration": 0.5896800000000013
                },
                {
                    "name": "G#2",
                    "midi": 44,
                    "time": 120.44214000000088,
                    "velocity": 0.5039370078740157,
                    "duration": 0.13267799999999852
                },
                {
                    "name": "G#2",
                    "midi": 44,
                    "time": 120.58956000000087,
                    "velocity": 0.5039370078740157,
                    "duration": 0.13267799999999852
                },
                {
                    "name": "G#2",
                    "midi": 44,
                    "time": 120.73698000000087,
                    "velocity": 0.5039370078740157,
                    "duration": 0.13267799999999852
                },
                {
                    "name": "B1",
                    "midi": 35,
                    "time": 120.88440000000087,
                    "velocity": 0.6141732283464567,
                    "duration": 0.14741999999999678
                },
                {
                    "name": "G#2",
                    "midi": 44,
                    "time": 121.03182000000086,
                    "velocity": 0.5511811023622047,
                    "duration": 0.13267799999999852
                },
                {
                    "name": "G#2",
                    "midi": 44,
                    "time": 121.17924000000086,
                    "velocity": 0.5511811023622047,
                    "duration": 0.13267799999999852
                },
                {
                    "name": "G#2",
                    "midi": 44,
                    "time": 121.32666000000086,
                    "velocity": 0.5511811023622047,
                    "duration": 0.13267799999999852
                },
                {
                    "name": "B1",
                    "midi": 35,
                    "time": 121.47408000000085,
                    "velocity": 0.6771653543307087,
                    "duration": 0.4299749999999989
                },
                {
                    "name": "C4",
                    "midi": 60,
                    "time": 121.91634000000086,
                    "velocity": 0.31496062992125984,
                    "duration": 0.14741999999999678
                },
                {
                    "name": "B3",
                    "midi": 59,
                    "time": 122.06376000000085,
                    "velocity": 0.3543307086614173,
                    "duration": 0.14741999999999678
                },
                {
                    "name": "C4",
                    "midi": 60,
                    "time": 122.21118000000085,
                    "velocity": 0.31496062992125984,
                    "duration": 0.14741999999999678
                },
                {
                    "name": "F4",
                    "midi": 65,
                    "time": 122.35860000000085,
                    "velocity": 0.3543307086614173,
                    "duration": 0.0737100000000055
                },
                {
                    "name": "F4",
                    "midi": 65,
                    "time": 122.50602000000086,
                    "velocity": 0.2992125984251969,
                    "duration": 0.0737100000000055
                },
                {
                    "name": "D#4",
                    "midi": 63,
                    "time": 122.65344000000087,
                    "velocity": 0.3543307086614173,
                    "duration": 0.29483999999999355
                },
                {
                    "name": "C4",
                    "midi": 60,
                    "time": 123.09570000000086,
                    "velocity": 0.31496062992125984,
                    "duration": 0.14741999999999678
                },
                {
                    "name": "B3",
                    "midi": 59,
                    "time": 123.24312000000086,
                    "velocity": 0.3543307086614173,
                    "duration": 0.14741999999999678
                },
                {
                    "name": "C4",
                    "midi": 60,
                    "time": 123.39054000000085,
                    "velocity": 0.31496062992125984,
                    "duration": 0.14741999999999678
                },
                {
                    "name": "G#4",
                    "midi": 68,
                    "time": 123.53796000000085,
                    "velocity": 0.3543307086614173,
                    "duration": 0.0737100000000055
                },
                {
                    "name": "G#4",
                    "midi": 68,
                    "time": 123.68538000000086,
                    "velocity": 0.2992125984251969,
                    "duration": 0.0737100000000055
                },
                {
                    "name": "G4",
                    "midi": 67,
                    "time": 123.83280000000087,
                    "velocity": 0.3543307086614173,
                    "duration": 0.29483999999999355
                },
                {
                    "name": "C4",
                    "midi": 60,
                    "time": 124.27506000000086,
                    "velocity": 0.31496062992125984,
                    "duration": 0.14741999999999678
                },
                {
                    "name": "B3",
                    "midi": 59,
                    "time": 124.42248000000086,
                    "velocity": 0.3543307086614173,
                    "duration": 0.14741999999999678
                },
                {
                    "name": "C4",
                    "midi": 60,
                    "time": 124.56990000000086,
                    "velocity": 0.31496062992125984,
                    "duration": 0.14741999999999678
                },
                {
                    "name": "C5",
                    "midi": 72,
                    "time": 124.71732000000085,
                    "velocity": 0.3543307086614173,
                    "duration": 0.0737100000000055
                },
                {
                    "name": "C5",
                    "midi": 72,
                    "time": 124.86474000000086,
                    "velocity": 0.2992125984251969,
                    "duration": 0.0737100000000055
                },
                {
                    "name": "C5",
                    "midi": 72,
                    "time": 125.01216000000088,
                    "velocity": 0.3543307086614173,
                    "duration": 0.14741999999999678
                },
                {
                    "name": "D5",
                    "midi": 74,
                    "time": 125.15958000000087,
                    "velocity": 0.3543307086614173,
                    "duration": 0.03685500000000275
                },
                {
                    "name": "C5",
                    "midi": 72,
                    "time": 125.19643500000087,
                    "velocity": 0.3543307086614173,
                    "duration": 0.03685500000000275
                },
                {
                    "name": "B4",
                    "midi": 71,
                    "time": 125.23329000000088,
                    "velocity": 0.31496062992125984,
                    "duration": 0.03685500000000275
                },
                {
                    "name": "C5",
                    "midi": 72,
                    "time": 125.27014500000088,
                    "velocity": 0.3543307086614173,
                    "duration": 0.03685500000000275
                },
                {
                    "name": "D#5",
                    "midi": 75,
                    "time": 125.30700000000088,
                    "velocity": 0.3937007874015748,
                    "duration": 0.14741999999999678
                },
                {
                    "name": "D5",
                    "midi": 74,
                    "time": 125.45442000000088,
                    "velocity": 0.3543307086614173,
                    "duration": 0.14741999999999678
                },
                {
                    "name": "F5",
                    "midi": 77,
                    "time": 125.60184000000088,
                    "velocity": 0.4409448818897638,
                    "duration": 0.14741999999999678
                },
                {
                    "name": "D#5",
                    "midi": 75,
                    "time": 125.74926000000087,
                    "velocity": 0.41732283464566927,
                    "duration": 0.14741999999999678
                },
                {
                    "name": "D5",
                    "midi": 74,
                    "time": 125.89668000000087,
                    "velocity": 0.3937007874015748,
                    "duration": 0.14741999999999678
                },
                {
                    "name": "C5",
                    "midi": 72,
                    "time": 126.04410000000087,
                    "velocity": 0.3700787401574803,
                    "duration": 0.14741999999999678
                },
                {
                    "name": "B4",
                    "midi": 71,
                    "time": 126.19152000000086,
                    "velocity": 0.4015748031496063,
                    "duration": 0.29483999999999355
                },
                {
                    "name": "G3",
                    "midi": 55,
                    "time": 126.63378000000085,
                    "velocity": 0.31496062992125984,
                    "duration": 0.14741999999999678
                },
                {
                    "name": "F#3",
                    "midi": 54,
                    "time": 126.78120000000085,
                    "velocity": 0.3543307086614173,
                    "duration": 0.14741999999999678
                },
                {
                    "name": "G3",
                    "midi": 55,
                    "time": 126.92862000000085,
                    "velocity": 0.31496062992125984,
                    "duration": 0.14741999999999678
                },
                {
                    "name": "C4",
                    "midi": 60,
                    "time": 127.07604000000084,
                    "velocity": 0.3543307086614173,
                    "duration": 0.0737100000000055
                },
                {
                    "name": "C4",
                    "midi": 60,
                    "time": 127.22346000000086,
                    "velocity": 0.2992125984251969,
                    "duration": 0.0737100000000055
                },
                {
                    "name": "B3",
                    "midi": 59,
                    "time": 127.37088000000087,
                    "velocity": 0.3543307086614173,
                    "duration": 0.29483999999999355
                },
                {
                    "name": "G3",
                    "midi": 55,
                    "time": 127.81314000000086,
                    "velocity": 0.31496062992125984,
                    "duration": 0.14741999999999678
                },
                {
                    "name": "F#3",
                    "midi": 54,
                    "time": 127.96056000000085,
                    "velocity": 0.3543307086614173,
                    "duration": 0.14741999999999678
                },
                {
                    "name": "G3",
                    "midi": 55,
                    "time": 128.10798000000085,
                    "velocity": 0.31496062992125984,
                    "duration": 0.147420000000011
                },
                {
                    "name": "D#4",
                    "midi": 63,
                    "time": 128.25540000000086,
                    "velocity": 0.3543307086614173,
                    "duration": 0.0737100000000055
                },
                {
                    "name": "D#4",
                    "midi": 63,
                    "time": 128.40282000000087,
                    "velocity": 0.2992125984251969,
                    "duration": 0.0737100000000055
                },
                {
                    "name": "D4",
                    "midi": 62,
                    "time": 128.55024000000088,
                    "velocity": 0.3543307086614173,
                    "duration": 0.29483999999999355
                },
                {
                    "name": "G3",
                    "midi": 55,
                    "time": 128.9925000000009,
                    "velocity": 0.3543307086614173,
                    "duration": 0.0737100000000055
                },
                {
                    "name": "B3",
                    "midi": 59,
                    "time": 129.1399200000009,
                    "velocity": 0.4015748031496063,
                    "duration": 0.0737100000000055
                },
                {
                    "name": "D4",
                    "midi": 62,
                    "time": 129.2873400000009,
                    "velocity": 0.3543307086614173,
                    "duration": 0.0737100000000055
                },
                {
                    "name": "F4",
                    "midi": 65,
                    "time": 129.43476000000092,
                    "velocity": 0.3543307086614173,
                    "duration": 0.0737100000000055
                },
                {
                    "name": "G#4",
                    "midi": 68,
                    "time": 129.58218000000093,
                    "velocity": 0.3543307086614173,
                    "duration": 0.0737100000000055
                },
                {
                    "name": "B4",
                    "midi": 71,
                    "time": 129.72960000000094,
                    "velocity": 0.4330708661417323,
                    "duration": 0.0737100000000055
                },
                {
                    "name": "D5",
                    "midi": 74,
                    "time": 129.87702000000095,
                    "velocity": 0.41732283464566927,
                    "duration": 0.0737100000000055
                },
                {
                    "name": "F5",
                    "midi": 77,
                    "time": 130.02444000000096,
                    "velocity": 0.4409448818897638,
                    "duration": 0.0737100000000055
                },
                {
                    "name": "G#5",
                    "midi": 80,
                    "time": 130.17186000000098,
                    "velocity": 0.47244094488188976,
                    "duration": 0.0737100000000055
                },
                {
                    "name": "G5",
                    "midi": 79,
                    "time": 130.319280000001,
                    "velocity": 0.49606299212598426,
                    "duration": 0.0737100000000055
                },
                {
                    "name": "F5",
                    "midi": 77,
                    "time": 130.466700000001,
                    "velocity": 0.4645669291338583,
                    "duration": 0.0737100000000055
                },
                {
                    "name": "D#5",
                    "midi": 75,
                    "time": 130.614120000001,
                    "velocity": 0.4330708661417323,
                    "duration": 0.0737100000000055
                },
                {
                    "name": "D5",
                    "midi": 74,
                    "time": 130.76154000000102,
                    "velocity": 0.4251968503937008,
                    "duration": 0.0737100000000055
                },
                {
                    "name": "C5",
                    "midi": 72,
                    "time": 130.90896000000103,
                    "velocity": 0.4881889763779528,
                    "duration": 0.29483999999999355
                },
                {
                    "name": "C5",
                    "midi": 72,
                    "time": 131.35122000000104,
                    "velocity": 0.3937007874015748,
                    "duration": 0.147420000000011
                },
                {
                    "name": "B4",
                    "midi": 71,
                    "time": 131.49864000000105,
                    "velocity": 0.44881889763779526,
                    "duration": 0.147420000000011
                },
                {
                    "name": "C5",
                    "midi": 72,
                    "time": 131.64606000000106,
                    "velocity": 0.41732283464566927,
                    "duration": 0.147420000000011
                },
                {
                    "name": "C6",
                    "midi": 84,
                    "time": 131.79348000000107,
                    "velocity": 0.47244094488188976,
                    "duration": 0.0737100000000055
                },
                {
                    "name": "C6",
                    "midi": 84,
                    "time": 131.94090000000108,
                    "velocity": 0.4094488188976378,
                    "duration": 0.0737100000000055
                },
                {
                    "name": "C6",
                    "midi": 84,
                    "time": 132.0883200000011,
                    "velocity": 0.47244094488188976,
                    "duration": 0.29483999999999355
                },
                {
                    "name": "F6",
                    "midi": 89,
                    "time": 132.5305800000011,
                    "velocity": 0.4645669291338583,
                    "duration": 0.147420000000011
                },
                {
                    "name": "D#6",
                    "midi": 87,
                    "time": 132.6780000000011,
                    "velocity": 0.5118110236220472,
                    "duration": 0.147420000000011
                },
                {
                    "name": "D6",
                    "midi": 86,
                    "time": 132.82542000000112,
                    "velocity": 0.47244094488188976,
                    "duration": 0.147420000000011
                },
                {
                    "name": "C6",
                    "midi": 84,
                    "time": 132.97284000000113,
                    "velocity": 0.5196850393700787,
                    "duration": 0.147420000000011
                },
                {
                    "name": "B5",
                    "midi": 83,
                    "time": 133.12026000000114,
                    "velocity": 0.47244094488188976,
                    "duration": 0.147420000000011
                },
                {
                    "name": "D6",
                    "midi": 86,
                    "time": 133.26768000000115,
                    "velocity": 0.5433070866141733,
                    "duration": 0.147420000000011
                },
                {
                    "name": "C6",
                    "midi": 84,
                    "time": 133.41510000000116,
                    "velocity": 0.47244094488188976,
                    "duration": 0.147420000000011
                },
                {
                    "name": "C5",
                    "midi": 72,
                    "time": 133.70994000000118,
                    "velocity": 0.3937007874015748,
                    "duration": 0.147420000000011
                },
                {
                    "name": "B4",
                    "midi": 71,
                    "time": 133.8573600000012,
                    "velocity": 0.4251968503937008,
                    "duration": 0.058967999999993026
                },
                {
                    "name": "C5",
                    "midi": 72,
                    "time": 133.9163280000012,
                    "velocity": 0.4251968503937008,
                    "duration": 0.058967999999993026
                },
                {
                    "name": "C#5",
                    "midi": 73,
                    "time": 133.97529600000118,
                    "velocity": 0.4330708661417323,
                    "duration": 0.058967999999993026
                },
                {
                    "name": "D5",
                    "midi": 74,
                    "time": 134.03426400000117,
                    "velocity": 0.4409448818897638,
                    "duration": 0.058967999999993026
                },
                {
                    "name": "D#5",
                    "midi": 75,
                    "time": 134.09323200000117,
                    "velocity": 0.4409448818897638,
                    "duration": 0.058967999999993026
                },
                {
                    "name": "E5",
                    "midi": 76,
                    "time": 134.15220000000116,
                    "velocity": 0.44881889763779526,
                    "duration": 0.0737100000000055
                },
                {
                    "name": "F5",
                    "midi": 77,
                    "time": 134.22591000000116,
                    "velocity": 0.4566929133858268,
                    "duration": 0.0737100000000055
                },
                {
                    "name": "F#5",
                    "midi": 78,
                    "time": 134.29962000000117,
                    "velocity": 0.4645669291338583,
                    "duration": 0.0737100000000055
                },
                {
                    "name": "G5",
                    "midi": 79,
                    "time": 134.37333000000118,
                    "velocity": 0.4645669291338583,
                    "duration": 0.0737100000000055
                },
                {
                    "name": "G#5",
                    "midi": 80,
                    "time": 134.44704000000118,
                    "velocity": 0.47244094488188976,
                    "duration": 0.0737100000000055
                },
                {
                    "name": "A5",
                    "midi": 81,
                    "time": 134.5207500000012,
                    "velocity": 0.48031496062992124,
                    "duration": 0.0737100000000055
                },
                {
                    "name": "A#5",
                    "midi": 82,
                    "time": 134.5944600000012,
                    "velocity": 0.4881889763779528,
                    "duration": 0.0737100000000055
                },
                {
                    "name": "B5",
                    "midi": 83,
                    "time": 134.6681700000012,
                    "velocity": 0.4881889763779528,
                    "duration": 0.0737100000000055
                },
                {
                    "name": "C6",
                    "midi": 84,
                    "time": 134.7418800000012,
                    "velocity": 0.5354330708661418,
                    "duration": 0.147420000000011
                },
                {
                    "name": "F6",
                    "midi": 89,
                    "time": 134.8893000000012,
                    "velocity": 0.49606299212598426,
                    "duration": 0.147420000000011
                },
                {
                    "name": "D#6",
                    "midi": 87,
                    "time": 135.03672000000122,
                    "velocity": 0.5118110236220472,
                    "duration": 0.147420000000011
                },
                {
                    "name": "D6",
                    "midi": 86,
                    "time": 135.18414000000124,
                    "velocity": 0.47244094488188976,
                    "duration": 0.147420000000011
                },
                {
                    "name": "C6",
                    "midi": 84,
                    "time": 135.33156000000125,
                    "velocity": 0.5196850393700787,
                    "duration": 0.147420000000011
                },
                {
                    "name": "B5",
                    "midi": 83,
                    "time": 135.47898000000126,
                    "velocity": 0.47244094488188976,
                    "duration": 0.147420000000011
                },
                {
                    "name": "C6",
                    "midi": 84,
                    "time": 135.62640000000127,
                    "velocity": 0.5433070866141733,
                    "duration": 0.0737100000000055
                },
                {
                    "name": "D6",
                    "midi": 86,
                    "time": 135.70011000000127,
                    "velocity": 0.49606299212598426,
                    "duration": 0.0737100000000055
                },
                {
                    "name": "C6",
                    "midi": 84,
                    "time": 135.77382000000128,
                    "velocity": 0.49606299212598426,
                    "duration": 0.0737100000000055
                },
                {
                    "name": "B5",
                    "midi": 83,
                    "time": 135.84753000000129,
                    "velocity": 0.49606299212598426,
                    "duration": 0.0737100000000055
                },
                {
                    "name": "C6",
                    "midi": 84,
                    "time": 135.9212400000013,
                    "velocity": 0.5433070866141733,
                    "duration": 0.0737100000000055
                },
                {
                    "name": "D#6",
                    "midi": 87,
                    "time": 135.9949500000013,
                    "velocity": 0.5748031496062992,
                    "duration": 0.0737100000000055
                },
                {
                    "name": "D6",
                    "midi": 86,
                    "time": 136.0686600000013,
                    "velocity": 0.5669291338582677,
                    "duration": 0.0737100000000055
                },
                {
                    "name": "C6",
                    "midi": 84,
                    "time": 136.1423700000013,
                    "velocity": 0.5590551181102362,
                    "duration": 0.0737100000000055
                },
                {
                    "name": "B5",
                    "midi": 83,
                    "time": 136.2160800000013,
                    "velocity": 0.5669291338582677,
                    "duration": 0.0737100000000055
                },
                {
                    "name": "C6",
                    "midi": 84,
                    "time": 136.28979000000132,
                    "velocity": 0.5118110236220472,
                    "duration": 0.0737100000000055
                },
                {
                    "name": "B5",
                    "midi": 83,
                    "time": 136.36350000000132,
                    "velocity": 0.5118110236220472,
                    "duration": 0.0737100000000055
                },
                {
                    "name": "G#5",
                    "midi": 80,
                    "time": 136.43721000000133,
                    "velocity": 0.5118110236220472,
                    "duration": 0.0737100000000055
                },
                {
                    "name": "G5",
                    "midi": 79,
                    "time": 136.51092000000133,
                    "velocity": 0.5433070866141733,
                    "duration": 0.0737100000000055
                },
                {
                    "name": "F5",
                    "midi": 77,
                    "time": 136.58463000000134,
                    "velocity": 0.49606299212598426,
                    "duration": 0.0737100000000055
                },
                {
                    "name": "D#5",
                    "midi": 75,
                    "time": 136.65834000000135,
                    "velocity": 0.49606299212598426,
                    "duration": 0.0737100000000055
                },
                {
                    "name": "D5",
                    "midi": 74,
                    "time": 136.73205000000135,
                    "velocity": 0.49606299212598426,
                    "duration": 0.0737100000000055
                },
                {
                    "name": "C5",
                    "midi": 72,
                    "time": 136.80576000000136,
                    "velocity": 0.5433070866141733,
                    "duration": 0.0737100000000055
                },
                {
                    "name": "D5",
                    "midi": 74,
                    "time": 136.87947000000136,
                    "velocity": 0.49606299212598426,
                    "duration": 0.0737100000000055
                },
                {
                    "name": "C5",
                    "midi": 72,
                    "time": 136.95318000000137,
                    "velocity": 0.49606299212598426,
                    "duration": 0.0737100000000055
                },
                {
                    "name": "B4",
                    "midi": 71,
                    "time": 137.02689000000137,
                    "velocity": 0.48031496062992124,
                    "duration": 0.0737100000000055
                },
                {
                    "name": "C5",
                    "midi": 72,
                    "time": 137.10060000000138,
                    "velocity": 0.5196850393700787,
                    "duration": 0.0737100000000055
                },
                {
                    "name": "D#5",
                    "midi": 75,
                    "time": 137.17431000000138,
                    "velocity": 0.5669291338582677,
                    "duration": 0.0737100000000055
                },
                {
                    "name": "D5",
                    "midi": 74,
                    "time": 137.2480200000014,
                    "velocity": 0.5511811023622047,
                    "duration": 0.0737100000000055
                },
                {
                    "name": "C5",
                    "midi": 72,
                    "time": 137.3217300000014,
                    "velocity": 0.5275590551181102,
                    "duration": 0.0737100000000055
                },
                {
                    "name": "B4",
                    "midi": 71,
                    "time": 137.3954400000014,
                    "velocity": 0.5433070866141733,
                    "duration": 0.0737100000000055
                },
                {
                    "name": "C5",
                    "midi": 72,
                    "time": 137.4691500000014,
                    "velocity": 0.49606299212598426,
                    "duration": 0.0737100000000055
                },
                {
                    "name": "B4",
                    "midi": 71,
                    "time": 137.5428600000014,
                    "velocity": 0.49606299212598426,
                    "duration": 0.0737100000000055
                },
                {
                    "name": "G#4",
                    "midi": 68,
                    "time": 137.61657000000142,
                    "velocity": 0.49606299212598426,
                    "duration": 0.0737100000000055
                },
                {
                    "name": "G4",
                    "midi": 67,
                    "time": 137.69028000000142,
                    "velocity": 0.5433070866141733,
                    "duration": 0.0737100000000055
                },
                {
                    "name": "F4",
                    "midi": 65,
                    "time": 137.76399000000143,
                    "velocity": 0.49606299212598426,
                    "duration": 0.0737100000000055
                },
                {
                    "name": "D#4",
                    "midi": 63,
                    "time": 137.83770000000143,
                    "velocity": 0.49606299212598426,
                    "duration": 0.0737100000000055
                },
                {
                    "name": "D4",
                    "midi": 62,
                    "time": 137.91141000000144,
                    "velocity": 0.49606299212598426,
                    "duration": 0.0737100000000055
                },
                {
                    "name": "C4",
                    "midi": 60,
                    "time": 137.98512000000144,
                    "velocity": 0.6062992125984252,
                    "duration": 0.0737100000000055
                },
                {
                    "name": "D4",
                    "midi": 62,
                    "time": 138.05883000000145,
                    "velocity": 0.5433070866141733,
                    "duration": 0.0737100000000055
                },
                {
                    "name": "C4",
                    "midi": 60,
                    "time": 138.13254000000146,
                    "velocity": 0.5433070866141733,
                    "duration": 0.0737100000000055
                },
                {
                    "name": "B3",
                    "midi": 59,
                    "time": 138.20625000000146,
                    "velocity": 0.5433070866141733,
                    "duration": 0.0737100000000055
                },
                {
                    "name": "C4",
                    "midi": 60,
                    "time": 138.27996000000147,
                    "velocity": 0.6062992125984252,
                    "duration": 0.0737100000000055
                },
                {
                    "name": "D#4",
                    "midi": 63,
                    "time": 138.35367000000147,
                    "velocity": 0.5433070866141733,
                    "duration": 0.0737100000000055
                },
                {
                    "name": "D4",
                    "midi": 62,
                    "time": 138.42738000000148,
                    "velocity": 0.5433070866141733,
                    "duration": 0.0737100000000055
                },
                {
                    "name": "C4",
                    "midi": 60,
                    "time": 138.50109000000148,
                    "velocity": 0.5433070866141733,
                    "duration": 0.0737100000000055
                },
                {
                    "name": "B3",
                    "midi": 59,
                    "time": 138.5748000000015,
                    "velocity": 0.6062992125984252,
                    "duration": 0.0737100000000055
                },
                {
                    "name": "G4",
                    "midi": 67,
                    "time": 138.6485100000015,
                    "velocity": 0.5433070866141733,
                    "duration": 0.0737100000000055
                },
                {
                    "name": "D4",
                    "midi": 62,
                    "time": 138.7222200000015,
                    "velocity": 0.5433070866141733,
                    "duration": 0.0737100000000055
                },
                {
                    "name": "B3",
                    "midi": 59,
                    "time": 138.7959300000015,
                    "velocity": 0.5433070866141733,
                    "duration": 0.0737100000000055
                },
                {
                    "name": "G3",
                    "midi": 55,
                    "time": 138.8696400000015,
                    "velocity": 0.6220472440944882,
                    "duration": 0.0737100000000055
                },
                {
                    "name": "G4",
                    "midi": 67,
                    "time": 138.94335000000152,
                    "velocity": 0.5433070866141733,
                    "duration": 0.0737100000000055
                },
                {
                    "name": "D#4",
                    "midi": 63,
                    "time": 139.01706000000152,
                    "velocity": 0.5433070866141733,
                    "duration": 0.0737100000000055
                },
                {
                    "name": "C4",
                    "midi": 60,
                    "time": 139.09077000000153,
                    "velocity": 0.5433070866141733,
                    "duration": 0.0737100000000055
                },
                {
                    "name": "G3",
                    "midi": 55,
                    "time": 139.16448000000153,
                    "velocity": 0.6377952755905512,
                    "duration": 0.0737100000000055
                },
                {
                    "name": "G4",
                    "midi": 67,
                    "time": 139.23819000000154,
                    "velocity": 0.5433070866141733,
                    "duration": 0.0737100000000055
                },
                {
                    "name": "D4",
                    "midi": 62,
                    "time": 139.31190000000154,
                    "velocity": 0.5433070866141733,
                    "duration": 0.0737100000000055
                },
                {
                    "name": "B3",
                    "midi": 59,
                    "time": 139.38561000000155,
                    "velocity": 0.5433070866141733,
                    "duration": 0.0737100000000055
                },
                {
                    "name": "G3",
                    "midi": 55,
                    "time": 139.45932000000155,
                    "velocity": 0.6299212598425197,
                    "duration": 0.0737100000000055
                },
                {
                    "name": "G4",
                    "midi": 67,
                    "time": 139.53303000000156,
                    "velocity": 0.5433070866141733,
                    "duration": 0.0737100000000055
                },
                {
                    "name": "D#4",
                    "midi": 63,
                    "time": 139.60674000000157,
                    "velocity": 0.5433070866141733,
                    "duration": 0.0737100000000055
                },
                {
                    "name": "C4",
                    "midi": 60,
                    "time": 139.68045000000157,
                    "velocity": 0.5433070866141733,
                    "duration": 0.0737100000000055
                },
                {
                    "name": "G3",
                    "midi": 55,
                    "time": 139.75416000000158,
                    "velocity": 0.6299212598425197,
                    "duration": 0.0737100000000055
                },
                {
                    "name": "G4",
                    "midi": 67,
                    "time": 139.82787000000158,
                    "velocity": 0.5433070866141733,
                    "duration": 0.0737100000000055
                },
                {
                    "name": "D4",
                    "midi": 62,
                    "time": 139.9015800000016,
                    "velocity": 0.5433070866141733,
                    "duration": 0.0737100000000055
                },
                {
                    "name": "B3",
                    "midi": 59,
                    "time": 139.9752900000016,
                    "velocity": 0.5433070866141733,
                    "duration": 0.0737100000000055
                },
                {
                    "name": "G3",
                    "midi": 55,
                    "time": 140.0490000000016,
                    "velocity": 0.6299212598425197,
                    "duration": 0.0737100000000055
                },
                {
                    "name": "G4",
                    "midi": 67,
                    "time": 140.1227100000016,
                    "velocity": 0.5433070866141733,
                    "duration": 0.0737100000000055
                },
                {
                    "name": "D#4",
                    "midi": 63,
                    "time": 140.1964200000016,
                    "velocity": 0.5433070866141733,
                    "duration": 0.0737100000000055
                },
                {
                    "name": "C4",
                    "midi": 60,
                    "time": 140.27013000000161,
                    "velocity": 0.5433070866141733,
                    "duration": 0.0737100000000055
                },
                {
                    "name": "G3",
                    "midi": 55,
                    "time": 140.34384000000162,
                    "velocity": 0.5826771653543307,
                    "duration": 0.5896799999999871
                },
                {
                    "name": "B3",
                    "midi": 59,
                    "time": 140.34384000000162,
                    "velocity": 0.5826771653543307,
                    "duration": 0.5896799999999871
                },
                {
                    "name": "D4",
                    "midi": 62,
                    "time": 140.34384000000162,
                    "velocity": 0.5826771653543307,
                    "duration": 0.5896799999999871
                },
                {
                    "name": "G4",
                    "midi": 67,
                    "time": 140.34384000000162,
                    "velocity": 0.7007874015748031,
                    "duration": 0.5896799999999871
                },
                {
                    "name": "G4",
                    "midi": 67,
                    "time": 141.08094000000162,
                    "velocity": 0.31496062992125984,
                    "duration": 0.0737100000000055
                },
                {
                    "name": "A4",
                    "midi": 69,
                    "time": 141.22836000000163,
                    "velocity": 0.29133858267716534,
                    "duration": 0.0737100000000055
                },
                {
                    "name": "B4",
                    "midi": 71,
                    "time": 141.37578000000164,
                    "velocity": 0.29133858267716534,
                    "duration": 0.0737100000000055
                },
                {
                    "name": "E4",
                    "midi": 64,
                    "time": 141.52320000000165,
                    "velocity": 0.30708661417322836,
                    "duration": 0.5896800000000155
                },
                {
                    "name": "G4",
                    "midi": 67,
                    "time": 141.52320000000165,
                    "velocity": 0.30708661417322836,
                    "duration": 0.5896800000000155
                },
                {
                    "name": "C5",
                    "midi": 72,
                    "time": 141.52320000000165,
                    "velocity": 0.36220472440944884,
                    "duration": 0.0737100000000055
                },
                {
                    "name": "D5",
                    "midi": 74,
                    "time": 141.67062000000166,
                    "velocity": 0.31496062992125984,
                    "duration": 0.0737100000000055
                },
                {
                    "name": "E5",
                    "midi": 76,
                    "time": 141.81804000000167,
                    "velocity": 0.31496062992125984,
                    "duration": 0.0737100000000055
                },
                {
                    "name": "D4",
                    "midi": 62,
                    "time": 142.11288000000167,
                    "velocity": 0.2992125984251969,
                    "duration": 0.0737100000000055
                },
                {
                    "name": "G4",
                    "midi": 67,
                    "time": 142.11288000000167,
                    "velocity": 0.2992125984251969,
                    "duration": 0.0737100000000055
                },
                {
                    "name": "D5",
                    "midi": 74,
                    "time": 142.11288000000167,
                    "velocity": 0.3543307086614173,
                    "duration": 0.0737100000000055
                },
                {
                    "name": "E4",
                    "midi": 64,
                    "time": 142.40772000000166,
                    "velocity": 0.25984251968503935,
                    "duration": 0.0737100000000055
                },
                {
                    "name": "G4",
                    "midi": 67,
                    "time": 142.40772000000166,
                    "velocity": 0.25984251968503935,
                    "duration": 0.0737100000000055
                },
                {
                    "name": "C5",
                    "midi": 72,
                    "time": 142.40772000000166,
                    "velocity": 0.30708661417322836,
                    "duration": 0.0737100000000055
                },
                {
                    "name": "F4",
                    "midi": 65,
                    "time": 142.70256000000165,
                    "velocity": 0.29133858267716534,
                    "duration": 0.5896799999999871
                },
                {
                    "name": "G4",
                    "midi": 67,
                    "time": 142.70256000000165,
                    "velocity": 0.29133858267716534,
                    "duration": 0.5896799999999871
                },
                {
                    "name": "B4",
                    "midi": 71,
                    "time": 142.70256000000165,
                    "velocity": 0.29133858267716534,
                    "duration": 0.5896799999999871
                },
                {
                    "name": "F5",
                    "midi": 77,
                    "time": 142.70256000000165,
                    "velocity": 0.3543307086614173,
                    "duration": 0.5896799999999871
                },
                {
                    "name": "G4",
                    "midi": 67,
                    "time": 143.43966000000165,
                    "velocity": 0.31496062992125984,
                    "duration": 0.0737100000000055
                },
                {
                    "name": "A4",
                    "midi": 69,
                    "time": 143.58708000000166,
                    "velocity": 0.29133858267716534,
                    "duration": 0.0737100000000055
                },
                {
                    "name": "B4",
                    "midi": 71,
                    "time": 143.73450000000167,
                    "velocity": 0.29133858267716534,
                    "duration": 0.0737100000000055
                },
                {
                    "name": "E4",
                    "midi": 64,
                    "time": 143.88192000000168,
                    "velocity": 0.30708661417322836,
                    "duration": 0.5896800000000155
                },
                {
                    "name": "G4",
                    "midi": 67,
                    "time": 143.88192000000168,
                    "velocity": 0.30708661417322836,
                    "duration": 0.5896800000000155
                },
                {
                    "name": "C5",
                    "midi": 72,
                    "time": 143.88192000000168,
                    "velocity": 0.36220472440944884,
                    "duration": 0.0737100000000055
                },
                {
                    "name": "D5",
                    "midi": 74,
                    "time": 144.0293400000017,
                    "velocity": 0.31496062992125984,
                    "duration": 0.0737100000000055
                },
                {
                    "name": "E5",
                    "midi": 76,
                    "time": 144.1767600000017,
                    "velocity": 0.31496062992125984,
                    "duration": 0.0737100000000055
                },
                {
                    "name": "D4",
                    "midi": 62,
                    "time": 144.4716000000017,
                    "velocity": 0.2992125984251969,
                    "duration": 0.0737100000000055
                },
                {
                    "name": "A4",
                    "midi": 69,
                    "time": 144.4716000000017,
                    "velocity": 0.2992125984251969,
                    "duration": 0.0737100000000055
                },
                {
                    "name": "D5",
                    "midi": 74,
                    "time": 144.4716000000017,
                    "velocity": 0.3543307086614173,
                    "duration": 0.0737100000000055
                },
                {
                    "name": "A4",
                    "midi": 69,
                    "time": 144.7664400000017,
                    "velocity": 0.25984251968503935,
                    "duration": 0.0737100000000055
                },
                {
                    "name": "D4",
                    "midi": 62,
                    "time": 144.7664400000017,
                    "velocity": 0.25984251968503935,
                    "duration": 0.0737100000000055
                },
                {
                    "name": "C5",
                    "midi": 72,
                    "time": 144.7664400000017,
                    "velocity": 0.30708661417322836,
                    "duration": 0.0737100000000055
                },
                {
                    "name": "B3",
                    "midi": 59,
                    "time": 145.0612800000017,
                    "velocity": 0.2440944881889764,
                    "duration": 0.5896799999999871
                },
                {
                    "name": "D4",
                    "midi": 62,
                    "time": 145.0612800000017,
                    "velocity": 0.2440944881889764,
                    "duration": 0.5896799999999871
                },
                {
                    "name": "G4",
                    "midi": 67,
                    "time": 145.0612800000017,
                    "velocity": 0.29133858267716534,
                    "duration": 0.5896799999999871
                },
                {
                    "name": "G4",
                    "midi": 67,
                    "time": 145.79838000000169,
                    "velocity": 0.31496062992125984,
                    "duration": 0.0737100000000055
                },
                {
                    "name": "A4",
                    "midi": 69,
                    "time": 145.9458000000017,
                    "velocity": 0.29133858267716534,
                    "duration": 0.0737100000000055
                },
                {
                    "name": "B4",
                    "midi": 71,
                    "time": 146.0932200000017,
                    "velocity": 0.29133858267716534,
                    "duration": 0.0737100000000055
                },
                {
                    "name": "E4",
                    "midi": 64,
                    "time": 146.24064000000172,
                    "velocity": 0.30708661417322836,
                    "duration": 0.5896800000000155
                },
                {
                    "name": "G4",
                    "midi": 67,
                    "time": 146.24064000000172,
                    "velocity": 0.30708661417322836,
                    "duration": 0.5896800000000155
                },
                {
                    "name": "C5",
                    "midi": 72,
                    "time": 146.24064000000172,
                    "velocity": 0.36220472440944884,
                    "duration": 0.0737100000000055
                },
                {
                    "name": "D5",
                    "midi": 74,
                    "time": 146.38806000000173,
                    "velocity": 0.31496062992125984,
                    "duration": 0.0737100000000055
                },
                {
                    "name": "E5",
                    "midi": 76,
                    "time": 146.53548000000174,
                    "velocity": 0.31496062992125984,
                    "duration": 0.0737100000000055
                },
                {
                    "name": "D4",
                    "midi": 62,
                    "time": 146.83032000000173,
                    "velocity": 0.2992125984251969,
                    "duration": 0.0737100000000055
                },
                {
                    "name": "G4",
                    "midi": 67,
                    "time": 146.83032000000173,
                    "velocity": 0.2992125984251969,
                    "duration": 0.0737100000000055
                },
                {
                    "name": "D5",
                    "midi": 74,
                    "time": 146.83032000000173,
                    "velocity": 0.3543307086614173,
                    "duration": 0.0737100000000055
                },
                {
                    "name": "E4",
                    "midi": 64,
                    "time": 147.12516000000173,
                    "velocity": 0.25984251968503935,
                    "duration": 0.0737100000000055
                },
                {
                    "name": "G4",
                    "midi": 67,
                    "time": 147.12516000000173,
                    "velocity": 0.25984251968503935,
                    "duration": 0.0737100000000055
                },
                {
                    "name": "C5",
                    "midi": 72,
                    "time": 147.12516000000173,
                    "velocity": 0.30708661417322836,
                    "duration": 0.0737100000000055
                },
                {
                    "name": "A4",
                    "midi": 69,
                    "time": 147.39235875000173,
                    "velocity": 0.3543307086614173,
                    "duration": 0.6173212499999465
                },
                {
                    "name": "C5",
                    "midi": 72,
                    "time": 147.40157250000172,
                    "velocity": 0.3937007874015748,
                    "duration": 0.60810749999996
                },
                {
                    "name": "F5",
                    "midi": 77,
                    "time": 147.4107862500017,
                    "velocity": 0.5590551181102362,
                    "duration": 0.5988937499999736
                },
                {
                    "name": "A5",
                    "midi": 81,
                    "time": 147.4200000000017,
                    "velocity": 0.6299212598425197,
                    "duration": 0.7370999999999981
                },
                {
                    "name": "A5",
                    "midi": 81,
                    "time": 148.1571000000017,
                    "velocity": 0.3779527559055118,
                    "duration": 0.0737100000000055
                },
                {
                    "name": "G5",
                    "midi": 79,
                    "time": 148.3045200000017,
                    "velocity": 0.41732283464566927,
                    "duration": 0.0737100000000055
                },
                {
                    "name": "F5",
                    "midi": 77,
                    "time": 148.4519400000017,
                    "velocity": 0.3937007874015748,
                    "duration": 0.0737100000000055
                },
                {
                    "name": "E5",
                    "midi": 76,
                    "time": 148.59936000000172,
                    "velocity": 0.41732283464566927,
                    "duration": 0.147420000000011
                },
                {
                    "name": "D5",
                    "midi": 74,
                    "time": 148.74678000000173,
                    "velocity": 0.3779527559055118,
                    "duration": 0.147420000000011
                },
                {
                    "name": "C5",
                    "midi": 72,
                    "time": 148.89420000000175,
                    "velocity": 0.3779527559055118,
                    "duration": 0.0737100000000055
                },
                {
                    "name": "B4",
                    "midi": 71,
                    "time": 149.04162000000176,
                    "velocity": 0.3779527559055118,
                    "duration": 0.0737100000000055
                },
                {
                    "name": "D4",
                    "midi": 62,
                    "time": 149.18904000000177,
                    "velocity": 0.3543307086614173,
                    "duration": 0.5896799999999871
                },
                {
                    "name": "F4",
                    "midi": 65,
                    "time": 149.18904000000177,
                    "velocity": 0.3543307086614173,
                    "duration": 0.5896799999999871
                },
                {
                    "name": "A4",
                    "midi": 69,
                    "time": 149.18904000000177,
                    "velocity": 0.41732283464566927,
                    "duration": 0.29483999999999355
                },
                {
                    "name": "G4",
                    "midi": 67,
                    "time": 149.48388000000176,
                    "velocity": 0.3858267716535433,
                    "duration": 0.29483999999999355
                },
                {
                    "name": "C4",
                    "midi": 60,
                    "time": 149.77872000000175,
                    "velocity": 0.3228346456692913,
                    "duration": 0.5896799999999871
                },
                {
                    "name": "E4",
                    "midi": 64,
                    "time": 149.77872000000175,
                    "velocity": 0.3228346456692913,
                    "duration": 0.5896799999999871
                },
                {
                    "name": "G4",
                    "midi": 67,
                    "time": 149.77872000000175,
                    "velocity": 0.3858267716535433,
                    "duration": 0.5896799999999871
                },
                {
                    "name": "G5",
                    "midi": 79,
                    "time": 150.51582000000175,
                    "velocity": 0.3779527559055118,
                    "duration": 0.0737100000000055
                },
                {
                    "name": "F5",
                    "midi": 77,
                    "time": 150.66324000000176,
                    "velocity": 0.41732283464566927,
                    "duration": 0.0737100000000055
                },
                {
                    "name": "E5",
                    "midi": 76,
                    "time": 150.81066000000177,
                    "velocity": 0.3937007874015748,
                    "duration": 0.0737100000000055
                },
                {
                    "name": "E5",
                    "midi": 76,
                    "time": 150.9580800000018,
                    "velocity": 0.41732283464566927,
                    "duration": 0.147420000000011
                },
                {
                    "name": "D5",
                    "midi": 74,
                    "time": 151.1055000000018,
                    "velocity": 0.3779527559055118,
                    "duration": 0.147420000000011
                },
                {
                    "name": "C5",
                    "midi": 72,
                    "time": 151.2529200000018,
                    "velocity": 0.3779527559055118,
                    "duration": 0.0737100000000055
                },
                {
                    "name": "B4",
                    "midi": 71,
                    "time": 151.40034000000182,
                    "velocity": 0.3779527559055118,
                    "duration": 0.0737100000000055
                },
                {
                    "name": "D4",
                    "midi": 62,
                    "time": 151.54776000000183,
                    "velocity": 0.3543307086614173,
                    "duration": 0.5896799999999871
                },
                {
                    "name": "F4",
                    "midi": 65,
                    "time": 151.54776000000183,
                    "velocity": 0.3543307086614173,
                    "duration": 0.5896799999999871
                },
                {
                    "name": "G#4",
                    "midi": 68,
                    "time": 151.54776000000183,
                    "velocity": 0.41732283464566927,
                    "duration": 0.29483999999999355
                },
                {
                    "name": "G4",
                    "midi": 67,
                    "time": 151.84260000000182,
                    "velocity": 0.3858267716535433,
                    "duration": 0.29483999999999355
                },
                {
                    "name": "C4",
                    "midi": 60,
                    "time": 152.13744000000182,
                    "velocity": 0.4251968503937008,
                    "duration": 0.5896799999999871
                },
                {
                    "name": "D#4",
                    "midi": 63,
                    "time": 152.13744000000182,
                    "velocity": 0.4251968503937008,
                    "duration": 0.5896799999999871
                },
                {
                    "name": "G4",
                    "midi": 67,
                    "time": 152.13744000000182,
                    "velocity": 0.4251968503937008,
                    "duration": 0.5896799999999871
                },
                {
                    "name": "G5",
                    "midi": 79,
                    "time": 152.87454000000182,
                    "velocity": 0.3779527559055118,
                    "duration": 0.0737100000000055
                },
                {
                    "name": "G4",
                    "midi": 67,
                    "time": 152.87454000000182,
                    "velocity": 0.3779527559055118,
                    "duration": 0.0737100000000055
                },
                {
                    "name": "F5",
                    "midi": 77,
                    "time": 153.02196000000183,
                    "velocity": 0.41732283464566927,
                    "duration": 0.0737100000000055
                },
                {
                    "name": "F4",
                    "midi": 65,
                    "time": 153.02196000000183,
                    "velocity": 0.41732283464566927,
                    "duration": 0.0737100000000055
                },
                {
                    "name": "D#5",
                    "midi": 75,
                    "time": 153.16938000000184,
                    "velocity": 0.3937007874015748,
                    "duration": 0.0737100000000055
                },
                {
                    "name": "D#4",
                    "midi": 63,
                    "time": 153.16938000000184,
                    "velocity": 0.3937007874015748,
                    "duration": 0.0737100000000055
                },
                {
                    "name": "D#5",
                    "midi": 75,
                    "time": 153.31680000000185,
                    "velocity": 0.4330708661417323,
                    "duration": 0.147420000000011
                },
                {
                    "name": "D#4",
                    "midi": 63,
                    "time": 153.31680000000185,
                    "velocity": 0.4330708661417323,
                    "duration": 0.147420000000011
                },
                {
                    "name": "D5",
                    "midi": 74,
                    "time": 153.46422000000186,
                    "velocity": 0.3779527559055118,
                    "duration": 0.147420000000011
                },
                {
                    "name": "D4",
                    "midi": 62,
                    "time": 153.46422000000186,
                    "velocity": 0.3779527559055118,
                    "duration": 0.147420000000011
                },
                {
                    "name": "C5",
                    "midi": 72,
                    "time": 153.61164000000187,
                    "velocity": 0.3779527559055118,
                    "duration": 0.0737100000000055
                },
                {
                    "name": "C4",
                    "midi": 60,
                    "time": 153.61164000000187,
                    "velocity": 0.3779527559055118,
                    "duration": 0.0737100000000055
                },
                {
                    "name": "B4",
                    "midi": 71,
                    "time": 153.75906000000188,
                    "velocity": 0.3779527559055118,
                    "duration": 0.0737100000000055
                },
                {
                    "name": "B3",
                    "midi": 59,
                    "time": 153.75906000000188,
                    "velocity": 0.3779527559055118,
                    "duration": 0.0737100000000055
                },
                {
                    "name": "G#3",
                    "midi": 56,
                    "time": 153.9064800000019,
                    "velocity": 0.4330708661417323,
                    "duration": 0.0737100000000055
                },
                {
                    "name": "G#4",
                    "midi": 68,
                    "time": 153.9064800000019,
                    "velocity": 0.4330708661417323,
                    "duration": 0.0737100000000055
                },
                {
                    "name": "G3",
                    "midi": 55,
                    "time": 154.0539000000019,
                    "velocity": 0.3779527559055118,
                    "duration": 0.0737100000000055
                },
                {
                    "name": "G4",
                    "midi": 67,
                    "time": 154.0539000000019,
                    "velocity": 0.3779527559055118,
                    "duration": 0.0737100000000055
                },
                {
                    "name": "A3",
                    "midi": 57,
                    "time": 154.2013200000019,
                    "velocity": 0.3779527559055118,
                    "duration": 0.0737100000000055
                },
                {
                    "name": "A4",
                    "midi": 69,
                    "time": 154.2013200000019,
                    "velocity": 0.3779527559055118,
                    "duration": 0.0737100000000055
                },
                {
                    "name": "B3",
                    "midi": 59,
                    "time": 154.34874000000192,
                    "velocity": 0.3779527559055118,
                    "duration": 0.0737100000000055
                },
                {
                    "name": "B4",
                    "midi": 71,
                    "time": 154.34874000000192,
                    "velocity": 0.3779527559055118,
                    "duration": 0.0737100000000055
                },
                {
                    "name": "C4",
                    "midi": 60,
                    "time": 154.49616000000194,
                    "velocity": 0.3858267716535433,
                    "duration": 0.29483999999999355
                },
                {
                    "name": "C5",
                    "midi": 72,
                    "time": 154.49616000000194,
                    "velocity": 0.4566929133858268,
                    "duration": 0.29483999999999355
                },
                {
                    "name": "C5",
                    "midi": 72,
                    "time": 154.93842000000194,
                    "velocity": 0.4251968503937008,
                    "duration": 0.147420000000011
                },
                {
                    "name": "B4",
                    "midi": 71,
                    "time": 155.08584000000195,
                    "velocity": 0.47244094488188976,
                    "duration": 0.147420000000011
                },
                {
                    "name": "C5",
                    "midi": 72,
                    "time": 155.23326000000196,
                    "velocity": 0.4330708661417323,
                    "duration": 0.147420000000011
                },
                {
                    "name": "D5",
                    "midi": 74,
                    "time": 155.38068000000197,
                    "velocity": 0.4094488188976378,
                    "duration": 0.0737100000000055
                },
                {
                    "name": "F5",
                    "midi": 77,
                    "time": 155.38068000000197,
                    "velocity": 0.4881889763779528,
                    "duration": 0.0737100000000055
                },
                {
                    "name": "D5",
                    "midi": 74,
                    "time": 155.52810000000198,
                    "velocity": 0.3779527559055118,
                    "duration": 0.0737100000000055
                },
                {
                    "name": "F5",
                    "midi": 77,
                    "time": 155.52810000000198,
                    "velocity": 0.44881889763779526,
                    "duration": 0.0737100000000055
                },
                {
                    "name": "C5",
                    "midi": 72,
                    "time": 155.675520000002,
                    "velocity": 0.4330708661417323,
                    "duration": 0.29483999999999355
                },
                {
                    "name": "D#5",
                    "midi": 75,
                    "time": 155.675520000002,
                    "velocity": 0.5118110236220472,
                    "duration": 0.29483999999999355
                },
                {
                    "name": "C5",
                    "midi": 72,
                    "time": 156.117780000002,
                    "velocity": 0.48031496062992124,
                    "duration": 0.147420000000011
                },
                {
                    "name": "B4",
                    "midi": 71,
                    "time": 156.265200000002,
                    "velocity": 0.5354330708661418,
                    "duration": 0.147420000000011
                },
                {
                    "name": "C5",
                    "midi": 72,
                    "time": 156.41262000000202,
                    "velocity": 0.49606299212598426,
                    "duration": 0.147420000000011
                },
                {
                    "name": "F5",
                    "midi": 77,
                    "time": 156.56004000000203,
                    "velocity": 0.4566929133858268,
                    "duration": 0.0737100000000055
                },
                {
                    "name": "G#5",
                    "midi": 80,
                    "time": 156.56004000000203,
                    "velocity": 0.5433070866141733,
                    "duration": 0.0737100000000055
                },
                {
                    "name": "F5",
                    "midi": 77,
                    "time": 156.70746000000204,
                    "velocity": 0.4251968503937008,
                    "duration": 0.0737100000000055
                },
                {
                    "name": "G#5",
                    "midi": 80,
                    "time": 156.70746000000204,
                    "velocity": 0.5039370078740157,
                    "duration": 0.0737100000000055
                },
                {
                    "name": "D#5",
                    "midi": 75,
                    "time": 156.85488000000205,
                    "velocity": 0.5511811023622047,
                    "duration": 0.29483999999999355
                },
                {
                    "name": "G5",
                    "midi": 79,
                    "time": 156.85488000000205,
                    "velocity": 0.5511811023622047,
                    "duration": 0.29483999999999355
                },
                {
                    "name": "C6",
                    "midi": 84,
                    "time": 157.29714000000206,
                    "velocity": 0.5826771653543307,
                    "duration": 0.147420000000011
                },
                {
                    "name": "B5",
                    "midi": 83,
                    "time": 157.44456000000207,
                    "velocity": 0.6614173228346457,
                    "duration": 0.147420000000011
                },
                {
                    "name": "C6",
                    "midi": 84,
                    "time": 157.59198000000208,
                    "velocity": 0.6062992125984252,
                    "duration": 0.147420000000011
                },
                {
                    "name": "F6",
                    "midi": 89,
                    "time": 157.7394000000021,
                    "velocity": 0.7401574803149606,
                    "duration": 0.0737100000000055
                },
                {
                    "name": "D6",
                    "midi": 86,
                    "time": 157.7394000000021,
                    "velocity": 0.7401574803149606,
                    "duration": 0.0737100000000055
                },
                {
                    "name": "D6",
                    "midi": 86,
                    "time": 157.8868200000021,
                    "velocity": 0.6771653543307087,
                    "duration": 0.0737100000000055
                },
                {
                    "name": "F6",
                    "midi": 89,
                    "time": 157.8868200000021,
                    "velocity": 0.6771653543307087,
                    "duration": 0.0737100000000055
                },
                {
                    "name": "D6",
                    "midi": 86,
                    "time": 158.03424000000211,
                    "velocity": 0.7952755905511811,
                    "duration": 0.29483999999999355
                },
                {
                    "name": "F6",
                    "midi": 89,
                    "time": 158.03424000000211,
                    "velocity": 0.7952755905511811,
                    "duration": 0.36854999999999905
                },
                {
                    "name": "D#6",
                    "midi": 87,
                    "time": 158.4027900000021,
                    "velocity": 0.5826771653543307,
                    "duration": 0.0737100000000055
                },
                {
                    "name": "D6",
                    "midi": 86,
                    "time": 158.47650000000212,
                    "velocity": 0.5748031496062992,
                    "duration": 0.0737100000000055
                },
                {
                    "name": "C6",
                    "midi": 84,
                    "time": 158.55021000000212,
                    "velocity": 0.5669291338582677,
                    "duration": 0.0737100000000055
                },
                {
                    "name": "B5",
                    "midi": 83,
                    "time": 158.62392000000213,
                    "velocity": 0.5669291338582677,
                    "duration": 0.0737100000000055
                },
                {
                    "name": "C6",
                    "midi": 84,
                    "time": 158.69763000000214,
                    "velocity": 0.5669291338582677,
                    "duration": 0.0737100000000055
                },
                {
                    "name": "D6",
                    "midi": 86,
                    "time": 158.77134000000214,
                    "velocity": 0.5590551181102362,
                    "duration": 0.0737100000000055
                },
                {
                    "name": "C6",
                    "midi": 84,
                    "time": 158.84505000000215,
                    "velocity": 0.5511811023622047,
                    "duration": 0.0737100000000055
                },
                {
                    "name": "B5",
                    "midi": 83,
                    "time": 158.91876000000215,
                    "velocity": 0.5433070866141733,
                    "duration": 0.0737100000000055
                },
                {
                    "name": "G#5",
                    "midi": 80,
                    "time": 158.99247000000216,
                    "velocity": 0.5354330708661418,
                    "duration": 0.0737100000000055
                },
                {
                    "name": "G5",
                    "midi": 79,
                    "time": 159.06618000000216,
                    "velocity": 0.5275590551181102,
                    "duration": 0.0737100000000055
                },
                {
                    "name": "F5",
                    "midi": 77,
                    "time": 159.13989000000217,
                    "velocity": 0.5196850393700787,
                    "duration": 0.0737100000000055
                },
                {
                    "name": "D#5",
                    "midi": 75,
                    "time": 159.21360000000217,
                    "velocity": 0.5196850393700787,
                    "duration": 0.09827999999998838
                },
                {
                    "name": "F5",
                    "midi": 77,
                    "time": 159.31188000000216,
                    "velocity": 0.4881889763779528,
                    "duration": 0.09827999999998838
                },
                {
                    "name": "G5",
                    "midi": 79,
                    "time": 159.41016000000215,
                    "velocity": 0.4881889763779528,
                    "duration": 0.09827999999998838
                },
                {
                    "name": "F5",
                    "midi": 77,
                    "time": 159.50844000000214,
                    "velocity": 0.5196850393700787,
                    "duration": 0.09827999999998838
                },
                {
                    "name": "D#5",
                    "midi": 75,
                    "time": 159.60672000000213,
                    "velocity": 0.4881889763779528,
                    "duration": 0.09827999999998838
                },
                {
                    "name": "D5",
                    "midi": 74,
                    "time": 159.70500000000212,
                    "velocity": 0.4881889763779528,
                    "duration": 0.09827999999998838
                },
                {
                    "name": "C5",
                    "midi": 72,
                    "time": 159.8032800000021,
                    "velocity": 0.5196850393700787,
                    "duration": 0.09827999999998838
                },
                {
                    "name": "A#4",
                    "midi": 70,
                    "time": 159.9015600000021,
                    "velocity": 0.4881889763779528,
                    "duration": 0.09827999999998838
                },
                {
                    "name": "G#4",
                    "midi": 68,
                    "time": 159.99984000000208,
                    "velocity": 0.4881889763779528,
                    "duration": 0.09827999999998838
                },
                {
                    "name": "G4",
                    "midi": 67,
                    "time": 160.09812000000207,
                    "velocity": 0.5196850393700787,
                    "duration": 0.09827999999998838
                },
                {
                    "name": "F4",
                    "midi": 65,
                    "time": 160.19640000000206,
                    "velocity": 0.47244094488188976,
                    "duration": 0.09827999999998838
                },
                {
                    "name": "D#4",
                    "midi": 63,
                    "time": 160.29468000000205,
                    "velocity": 0.49606299212598426,
                    "duration": 0.09827999999998838
                },
                {
                    "name": "D4",
                    "midi": 62,
                    "time": 160.46667000000204,
                    "velocity": 0.4645669291338583,
                    "duration": 0.0737100000000055
                },
                {
                    "name": "F4",
                    "midi": 65,
                    "time": 160.54038000000205,
                    "velocity": 0.49606299212598426,
                    "duration": 0.0737100000000055
                },
                {
                    "name": "G#4",
                    "midi": 68,
                    "time": 160.61409000000205,
                    "velocity": 0.5275590551181102,
                    "duration": 0.0737100000000055
                },
                {
                    "name": "D5",
                    "midi": 74,
                    "time": 160.68780000000206,
                    "velocity": 0.5669291338582677,
                    "duration": 0.147420000000011
                },
                {
                    "name": "B3",
                    "midi": 59,
                    "time": 161.05635000000206,
                    "velocity": 0.49606299212598426,
                    "duration": 0.0737100000000055
                },
                {
                    "name": "D4",
                    "midi": 62,
                    "time": 161.13006000000206,
                    "velocity": 0.5196850393700787,
                    "duration": 0.0737100000000055
                },
                {
                    "name": "F4",
                    "midi": 65,
                    "time": 161.20377000000207,
                    "velocity": 0.5433070866141733,
                    "duration": 0.0737100000000055
                },
                {
                    "name": "B4",
                    "midi": 71,
                    "time": 161.27748000000207,
                    "velocity": 0.5669291338582677,
                    "duration": 0.147420000000011
                },
                {
                    "name": "B4",
                    "midi": 71,
                    "time": 161.5723200000021,
                    "velocity": 0.5275590551181102,
                    "duration": 0.0737100000000055
                },
                {
                    "name": "B5",
                    "midi": 83,
                    "time": 161.6460300000021,
                    "velocity": 0.47244094488188976,
                    "duration": 0.0737100000000055
                },
                {
                    "name": "B4",
                    "midi": 71,
                    "time": 161.7197400000021,
                    "velocity": 0.5275590551181102,
                    "duration": 0.0737100000000055
                },
                {
                    "name": "B5",
                    "midi": 83,
                    "time": 161.7934500000021,
                    "velocity": 0.47244094488188976,
                    "duration": 0.0737100000000055
                },
                {
                    "name": "B4",
                    "midi": 71,
                    "time": 161.86716000000212,
                    "velocity": 0.5275590551181102,
                    "duration": 0.0737100000000055
                },
                {
                    "name": "B5",
                    "midi": 83,
                    "time": 161.94087000000212,
                    "velocity": 0.4645669291338583,
                    "duration": 0.0737100000000055
                },
                {
                    "name": "B4",
                    "midi": 71,
                    "time": 162.01458000000213,
                    "velocity": 0.5275590551181102,
                    "duration": 0.0737100000000055
                },
                {
                    "name": "B5",
                    "midi": 83,
                    "time": 162.08829000000213,
                    "velocity": 0.48031496062992124,
                    "duration": 0.0737100000000055
                },
                {
                    "name": "B4",
                    "midi": 71,
                    "time": 162.16200000000214,
                    "velocity": 0.5275590551181102,
                    "duration": 0.0737100000000055
                },
                {
                    "name": "B5",
                    "midi": 83,
                    "time": 162.23571000000214,
                    "velocity": 0.4645669291338583,
                    "duration": 0.0737100000000055
                },
                {
                    "name": "B4",
                    "midi": 71,
                    "time": 162.30942000000215,
                    "velocity": 0.5275590551181102,
                    "duration": 0.0737100000000055
                },
                {
                    "name": "B5",
                    "midi": 83,
                    "time": 162.38313000000215,
                    "velocity": 0.4645669291338583,
                    "duration": 0.0737100000000055
                },
                {
                    "name": "B4",
                    "midi": 71,
                    "time": 162.45684000000216,
                    "velocity": 0.5275590551181102,
                    "duration": 0.0737100000000055
                },
                {
                    "name": "B5",
                    "midi": 83,
                    "time": 162.53055000000217,
                    "velocity": 0.4645669291338583,
                    "duration": 0.0737100000000055
                },
                {
                    "name": "B4",
                    "midi": 71,
                    "time": 162.60426000000217,
                    "velocity": 0.5275590551181102,
                    "duration": 0.0737100000000055
                },
                {
                    "name": "B5",
                    "midi": 83,
                    "time": 162.67797000000218,
                    "velocity": 0.47244094488188976,
                    "duration": 0.0737100000000055
                },
                {
                    "name": "C5",
                    "midi": 72,
                    "time": 162.75168000000218,
                    "velocity": 0.5275590551181102,
                    "duration": 0.0737100000000055
                },
                {
                    "name": "C6",
                    "midi": 84,
                    "time": 162.8253900000022,
                    "velocity": 0.47244094488188976,
                    "duration": 0.0737100000000055
                },
                {
                    "name": "C5",
                    "midi": 72,
                    "time": 162.8991000000022,
                    "velocity": 0.5433070866141733,
                    "duration": 0.0737100000000055
                },
                {
                    "name": "C6",
                    "midi": 84,
                    "time": 162.9728100000022,
                    "velocity": 0.4881889763779528,
                    "duration": 0.0737100000000055
                },
                {
                    "name": "C5",
                    "midi": 72,
                    "time": 163.0465200000022,
                    "velocity": 0.5590551181102362,
                    "duration": 0.0737100000000055
                },
                {
                    "name": "C6",
                    "midi": 84,
                    "time": 163.1202300000022,
                    "velocity": 0.49606299212598426,
                    "duration": 0.0737100000000055
                },
                {
                    "name": "C5",
                    "midi": 72,
                    "time": 163.19394000000221,
                    "velocity": 0.5669291338582677,
                    "duration": 0.0737100000000055
                },
                {
                    "name": "C6",
                    "midi": 84,
                    "time": 163.26765000000222,
                    "velocity": 0.5275590551181102,
                    "duration": 0.0737100000000055
                },
                {
                    "name": "C5",
                    "midi": 72,
                    "time": 163.34136000000223,
                    "velocity": 0.5905511811023622,
                    "duration": 0.0737100000000055
                },
                {
                    "name": "C6",
                    "midi": 84,
                    "time": 163.41507000000223,
                    "velocity": 0.5275590551181102,
                    "duration": 0.0737100000000055
                },
                {
                    "name": "C5",
                    "midi": 72,
                    "time": 163.48878000000224,
                    "velocity": 0.6062992125984252,
                    "duration": 0.0737100000000055
                },
                {
                    "name": "C6",
                    "midi": 84,
                    "time": 163.56249000000224,
                    "velocity": 0.5433070866141733,
                    "duration": 0.0737100000000055
                },
                {
                    "name": "C5",
                    "midi": 72,
                    "time": 163.63620000000225,
                    "velocity": 0.6299212598425197,
                    "duration": 0.0737100000000055
                },
                {
                    "name": "C6",
                    "midi": 84,
                    "time": 163.70991000000225,
                    "velocity": 0.5590551181102362,
                    "duration": 0.0737100000000055
                },
                {
                    "name": "C5",
                    "midi": 72,
                    "time": 163.78362000000226,
                    "velocity": 0.6377952755905512,
                    "duration": 0.0737100000000055
                },
                {
                    "name": "C6",
                    "midi": 84,
                    "time": 163.85733000000226,
                    "velocity": 0.5748031496062992,
                    "duration": 0.0737100000000055
                },
                {
                    "name": "F5",
                    "midi": 77,
                    "time": 164.00475000000228,
                    "velocity": 0.5590551181102362,
                    "duration": 0.0737100000000055
                },
                {
                    "name": "G#5",
                    "midi": 80,
                    "time": 164.07846000000228,
                    "velocity": 0.5984251968503937,
                    "duration": 0.0737100000000055
                },
                {
                    "name": "D6",
                    "midi": 86,
                    "time": 164.1521700000023,
                    "velocity": 0.6377952755905512,
                    "duration": 0.0737100000000055
                },
                {
                    "name": "F6",
                    "midi": 89,
                    "time": 164.2258800000023,
                    "velocity": 0.6771653543307087,
                    "duration": 0.147420000000011
                },
                {
                    "name": "D5",
                    "midi": 74,
                    "time": 164.5944300000023,
                    "velocity": 0.5905511811023622,
                    "duration": 0.0737100000000055
                },
                {
                    "name": "F5",
                    "midi": 77,
                    "time": 164.6681400000023,
                    "velocity": 0.6220472440944882,
                    "duration": 0.0737100000000055
                },
                {
                    "name": "B5",
                    "midi": 83,
                    "time": 164.7418500000023,
                    "velocity": 0.6456692913385826,
                    "duration": 0.0737100000000055
                },
                {
                    "name": "D6",
                    "midi": 86,
                    "time": 164.8155600000023,
                    "velocity": 0.6771653543307087,
                    "duration": 0.147420000000011
                },
                {
                    "name": "C5",
                    "midi": 72,
                    "time": 165.11040000000233,
                    "velocity": 0.6299212598425197,
                    "duration": 0.29483999999999355
                },
                {
                    "name": "G5",
                    "midi": 79,
                    "time": 165.11040000000233,
                    "velocity": 0.6299212598425197,
                    "duration": 0.29483999999999355
                },
                {
                    "name": "D#5",
                    "midi": 75,
                    "time": 165.11040000000233,
                    "velocity": 0.6299212598425197,
                    "duration": 0.29483999999999355
                },
                {
                    "name": "C6",
                    "midi": 84,
                    "time": 165.11040000000233,
                    "velocity": 0.7401574803149606,
                    "duration": 0.29483999999999355
                },
                {
                    "name": "G5",
                    "midi": 79,
                    "time": 165.40524000000232,
                    "velocity": 0.49606299212598426,
                    "duration": 0.0737100000000055
                },
                {
                    "name": "G5",
                    "midi": 79,
                    "time": 165.55266000000233,
                    "velocity": 0.49606299212598426,
                    "duration": 0.0737100000000055
                },
                {
                    "name": "G5",
                    "midi": 79,
                    "time": 165.70008000000234,
                    "velocity": 0.5511811023622047,
                    "duration": 0.147420000000011
                },
                {
                    "name": "G5",
                    "midi": 79,
                    "time": 165.99492000000237,
                    "velocity": 0.49606299212598426,
                    "duration": 0.0737100000000055
                },
                {
                    "name": "G5",
                    "midi": 79,
                    "time": 166.14234000000238,
                    "velocity": 0.49606299212598426,
                    "duration": 0.0737100000000055
                },
                {
                    "name": "G5",
                    "midi": 79,
                    "time": 166.2897600000024,
                    "velocity": 0.5433070866141733,
                    "duration": 0.147420000000011
                },
                {
                    "name": "D3",
                    "midi": 50,
                    "time": 166.5846000000024,
                    "velocity": 0.47244094488188976,
                    "duration": 0.147420000000011
                },
                {
                    "name": "F3",
                    "midi": 53,
                    "time": 166.5846000000024,
                    "velocity": 0.47244094488188976,
                    "duration": 0.147420000000011
                },
                {
                    "name": "B3",
                    "midi": 59,
                    "time": 166.5846000000024,
                    "velocity": 0.5669291338582677,
                    "duration": 0.147420000000011
                },
                {
                    "name": "D3",
                    "midi": 50,
                    "time": 167.17428000000243,
                    "velocity": 0.25984251968503935,
                    "duration": 0.0737100000000055
                },
                {
                    "name": "F3",
                    "midi": 53,
                    "time": 167.17428000000243,
                    "velocity": 0.25984251968503935,
                    "duration": 0.0737100000000055
                },
                {
                    "name": "B3",
                    "midi": 59,
                    "time": 167.17428000000243,
                    "velocity": 0.30708661417322836,
                    "duration": 0.0737100000000055
                },
                {
                    "name": "C3",
                    "midi": 48,
                    "time": 167.46912000000242,
                    "velocity": 0.29133858267716534,
                    "duration": 0.0737100000000055
                },
                {
                    "name": "D#3",
                    "midi": 51,
                    "time": 167.46912000000242,
                    "velocity": 0.29133858267716534,
                    "duration": 0.0737100000000055
                },
                {
                    "name": "C4",
                    "midi": 60,
                    "time": 167.46912000000242,
                    "velocity": 0.3543307086614173,
                    "duration": 0.0737100000000055
                },
                {
                    "name": "A3",
                    "midi": 57,
                    "time": 167.7639600000024,
                    "velocity": 0.2755905511811024,
                    "duration": 0.0737100000000055
                },
                {
                    "name": "C4",
                    "midi": 60,
                    "time": 167.7639600000024,
                    "velocity": 0.2755905511811024,
                    "duration": 0.0737100000000055
                },
                {
                    "name": "D4",
                    "midi": 62,
                    "time": 167.7639600000024,
                    "velocity": 0.3228346456692913,
                    "duration": 0.0737100000000055
                },
                {
                    "name": "G3",
                    "midi": 55,
                    "time": 168.0588000000024,
                    "velocity": 0.29133858267716534,
                    "duration": 0.0737100000000055
                },
                {
                    "name": "C4",
                    "midi": 60,
                    "time": 168.0588000000024,
                    "velocity": 0.29133858267716534,
                    "duration": 0.0737100000000055
                },
                {
                    "name": "D#4",
                    "midi": 63,
                    "time": 168.0588000000024,
                    "velocity": 0.3543307086614173,
                    "duration": 0.0737100000000055
                },
                {
                    "name": "F3",
                    "midi": 53,
                    "time": 168.3536400000024,
                    "velocity": 0.25984251968503935,
                    "duration": 0.0737100000000055
                },
                {
                    "name": "B3",
                    "midi": 59,
                    "time": 168.3536400000024,
                    "velocity": 0.25984251968503935,
                    "duration": 0.0737100000000055
                },
                {
                    "name": "D4",
                    "midi": 62,
                    "time": 168.3536400000024,
                    "velocity": 0.30708661417322836,
                    "duration": 0.0737100000000055
                },
                {
                    "name": "D#3",
                    "midi": 51,
                    "time": 168.6484800000024,
                    "velocity": 0.29133858267716534,
                    "duration": 0.0737100000000055
                },
                {
                    "name": "G3",
                    "midi": 55,
                    "time": 168.6484800000024,
                    "velocity": 0.29133858267716534,
                    "duration": 0.0737100000000055
                },
                {
                    "name": "C4",
                    "midi": 60,
                    "time": 168.6484800000024,
                    "velocity": 0.3543307086614173,
                    "duration": 0.0737100000000055
                },
                {
                    "name": "G5",
                    "midi": 79,
                    "time": 168.9433200000024,
                    "velocity": 0.49606299212598426,
                    "duration": 0.0737100000000055
                },
                {
                    "name": "G#5",
                    "midi": 80,
                    "time": 169.0170300000024,
                    "velocity": 0.4645669291338583,
                    "duration": 0.0737100000000055
                },
                {
                    "name": "G5",
                    "midi": 79,
                    "time": 169.0907400000024,
                    "velocity": 0.49606299212598426,
                    "duration": 0.0737100000000055
                },
                {
                    "name": "F#5",
                    "midi": 78,
                    "time": 169.1644500000024,
                    "velocity": 0.4645669291338583,
                    "duration": 0.0737100000000055
                },
                {
                    "name": "G5",
                    "midi": 79,
                    "time": 169.2381600000024,
                    "velocity": 0.5511811023622047,
                    "duration": 0.147420000000011
                },
                {
                    "name": "G5",
                    "midi": 79,
                    "time": 169.53300000000243,
                    "velocity": 0.49606299212598426,
                    "duration": 0.0737100000000055
                },
                {
                    "name": "G#5",
                    "midi": 80,
                    "time": 169.60671000000244,
                    "velocity": 0.4566929133858268,
                    "duration": 0.0737100000000055
                },
                {
                    "name": "G5",
                    "midi": 79,
                    "time": 169.68042000000244,
                    "velocity": 0.49606299212598426,
                    "duration": 0.0737100000000055
                },
                {
                    "name": "F#5",
                    "midi": 78,
                    "time": 169.75413000000245,
                    "velocity": 0.44881889763779526,
                    "duration": 0.0737100000000055
                },
                {
                    "name": "G5",
                    "midi": 79,
                    "time": 169.82784000000245,
                    "velocity": 0.5433070866141733,
                    "duration": 0.147420000000011
                },
                {
                    "name": "D3",
                    "midi": 50,
                    "time": 170.12268000000248,
                    "velocity": 0.47244094488188976,
                    "duration": 0.147420000000011
                },
                {
                    "name": "F3",
                    "midi": 53,
                    "time": 170.12268000000248,
                    "velocity": 0.47244094488188976,
                    "duration": 0.147420000000011
                },
                {
                    "name": "B3",
                    "midi": 59,
                    "time": 170.12268000000248,
                    "velocity": 0.5669291338582677,
                    "duration": 0.147420000000011
                },
                {
                    "name": "C3",
                    "midi": 48,
                    "time": 170.7123600000025,
                    "velocity": 0.4330708661417323,
                    "duration": 0.5896799999999871
                },
                {
                    "name": "D#3",
                    "midi": 51,
                    "time": 170.7123600000025,
                    "velocity": 0.4330708661417323,
                    "duration": 0.5896799999999871
                },
                {
                    "name": "F#3",
                    "midi": 54,
                    "time": 170.7123600000025,
                    "velocity": 0.4330708661417323,
                    "duration": 0.5896799999999871
                },
                {
                    "name": "C4",
                    "midi": 60,
                    "time": 170.7123600000025,
                    "velocity": 0.5196850393700787,
                    "duration": 0.5896799999999871
                },
                {
                    "name": "A3",
                    "midi": 57,
                    "time": 171.30204000000248,
                    "velocity": 0.2755905511811024,
                    "duration": 0.0737100000000055
                },
                {
                    "name": "C4",
                    "midi": 60,
                    "time": 171.30204000000248,
                    "velocity": 0.2755905511811024,
                    "duration": 0.0737100000000055
                },
                {
                    "name": "D4",
                    "midi": 62,
                    "time": 171.30204000000248,
                    "velocity": 0.3228346456692913,
                    "duration": 0.0737100000000055
                },
                {
                    "name": "G3",
                    "midi": 55,
                    "time": 171.59688000000247,
                    "velocity": 0.29133858267716534,
                    "duration": 0.0737100000000055
                },
                {
                    "name": "C4",
                    "midi": 60,
                    "time": 171.59688000000247,
                    "velocity": 0.29133858267716534,
                    "duration": 0.0737100000000055
                },
                {
                    "name": "D#4",
                    "midi": 63,
                    "time": 171.59688000000247,
                    "velocity": 0.3543307086614173,
                    "duration": 0.0737100000000055
                },
                {
                    "name": "F3",
                    "midi": 53,
                    "time": 171.89172000000246,
                    "velocity": 0.25984251968503935,
                    "duration": 0.0737100000000055
                },
                {
                    "name": "B3",
                    "midi": 59,
                    "time": 171.89172000000246,
                    "velocity": 0.25984251968503935,
                    "duration": 0.0737100000000055
                },
                {
                    "name": "D4",
                    "midi": 62,
                    "time": 171.89172000000246,
                    "velocity": 0.30708661417322836,
                    "duration": 0.0737100000000055
                },
                {
                    "name": "D#3",
                    "midi": 51,
                    "time": 172.18656000000246,
                    "velocity": 0.29133858267716534,
                    "duration": 0.147420000000011
                },
                {
                    "name": "G3",
                    "midi": 55,
                    "time": 172.18656000000246,
                    "velocity": 0.29133858267716534,
                    "duration": 0.147420000000011
                },
                {
                    "name": "C4",
                    "midi": 60,
                    "time": 172.18656000000246,
                    "velocity": 0.3543307086614173,
                    "duration": 0.147420000000011
                },
                {
                    "name": "B3",
                    "midi": 59,
                    "time": 172.48140000000248,
                    "velocity": 0.23622047244094488,
                    "duration": 0.147420000000011
                },
                {
                    "name": "F4",
                    "midi": 65,
                    "time": 172.48140000000248,
                    "velocity": 0.28346456692913385,
                    "duration": 0.147420000000011
                },
                {
                    "name": "C4",
                    "midi": 60,
                    "time": 172.6288200000025,
                    "velocity": 0.2125984251968504,
                    "duration": 0.147420000000011
                },
                {
                    "name": "D#4",
                    "midi": 63,
                    "time": 172.6288200000025,
                    "velocity": 0.25196850393700787,
                    "duration": 0.147420000000011
                },
                {
                    "name": "F4",
                    "midi": 65,
                    "time": 173.0710800000025,
                    "velocity": 0.2440944881889764,
                    "duration": 0.147420000000011
                },
                {
                    "name": "B4",
                    "midi": 71,
                    "time": 173.0710800000025,
                    "velocity": 0.29133858267716534,
                    "duration": 0.147420000000011
                },
                {
                    "name": "D#4",
                    "midi": 63,
                    "time": 173.2185000000025,
                    "velocity": 0.2125984251968504,
                    "duration": 0.147420000000011
                },
                {
                    "name": "C5",
                    "midi": 72,
                    "time": 173.2185000000025,
                    "velocity": 0.25196850393700787,
                    "duration": 0.147420000000011
                },
                {
                    "name": "F5",
                    "midi": 77,
                    "time": 173.6607600000025,
                    "velocity": 0.29133858267716534,
                    "duration": 0.147420000000011
                },
                {
                    "name": "B4",
                    "midi": 71,
                    "time": 173.6607600000025,
                    "velocity": 0.2440944881889764,
                    "duration": 0.147420000000011
                },
                {
                    "name": "C5",
                    "midi": 72,
                    "time": 173.80818000000252,
                    "velocity": 0.2125984251968504,
                    "duration": 0.147420000000011
                },
                {
                    "name": "D#5",
                    "midi": 75,
                    "time": 173.80818000000252,
                    "velocity": 0.25196850393700787,
                    "duration": 0.147420000000011
                },
                {
                    "name": "B5",
                    "midi": 83,
                    "time": 174.25044000000253,
                    "velocity": 0.33858267716535434,
                    "duration": 0.147420000000011
                },
                {
                    "name": "F5",
                    "midi": 77,
                    "time": 174.25044000000253,
                    "velocity": 0.28346456692913385,
                    "duration": 0.147420000000011
                },
                {
                    "name": "D#5",
                    "midi": 75,
                    "time": 174.39786000000254,
                    "velocity": 0.23622047244094488,
                    "duration": 0.147420000000011
                },
                {
                    "name": "C6",
                    "midi": 84,
                    "time": 174.39786000000254,
                    "velocity": 0.28346456692913385,
                    "duration": 0.147420000000011
                },
                {
                    "name": "C4",
                    "midi": 60,
                    "time": 174.84012000000254,
                    "velocity": 0.28346456692913385,
                    "duration": 0.147420000000011
                },
                {
                    "name": "F#4",
                    "midi": 66,
                    "time": 174.84012000000254,
                    "velocity": 0.3464566929133858,
                    "duration": 0.147420000000011
                },
                {
                    "name": "C#4",
                    "midi": 61,
                    "time": 174.98754000000255,
                    "velocity": 0.25984251968503935,
                    "duration": 0.147420000000011
                },
                {
                    "name": "F4",
                    "midi": 65,
                    "time": 174.98754000000255,
                    "velocity": 0.31496062992125984,
                    "duration": 0.147420000000011
                },
                {
                    "name": "F4",
                    "midi": 65,
                    "time": 175.42980000000256,
                    "velocity": 0.33858267716535434,
                    "duration": 0.147420000000011
                },
                {
                    "name": "C#5",
                    "midi": 73,
                    "time": 175.42980000000256,
                    "velocity": 0.4094488188976378,
                    "duration": 0.147420000000011
                },
                {
                    "name": "F#4",
                    "midi": 66,
                    "time": 175.57722000000257,
                    "velocity": 0.2992125984251969,
                    "duration": 0.147420000000011
                },
                {
                    "name": "C5",
                    "midi": 72,
                    "time": 175.57722000000257,
                    "velocity": 0.3543307086614173,
                    "duration": 0.147420000000011
                },
                {
                    "name": "F5",
                    "midi": 77,
                    "time": 176.01948000000257,
                    "velocity": 0.5118110236220472,
                    "duration": 0.147420000000011
                },
                {
                    "name": "C#5",
                    "midi": 73,
                    "time": 176.01948000000257,
                    "velocity": 0.4251968503937008,
                    "duration": 0.147420000000011
                },
                {
                    "name": "C5",
                    "midi": 72,
                    "time": 176.16690000000258,
                    "velocity": 0.3700787401574803,
                    "duration": 0.147420000000011
                },
                {
                    "name": "F#5",
                    "midi": 78,
                    "time": 176.16690000000258,
                    "velocity": 0.44881889763779526,
                    "duration": 0.147420000000011
                },
                {
                    "name": "C#6",
                    "midi": 85,
                    "time": 176.6091600000026,
                    "velocity": 0.5984251968503937,
                    "duration": 0.147420000000011
                },
                {
                    "name": "F5",
                    "midi": 77,
                    "time": 176.6091600000026,
                    "velocity": 0.49606299212598426,
                    "duration": 0.147420000000011
                },
                {
                    "name": "F#5",
                    "midi": 78,
                    "time": 176.7565800000026,
                    "velocity": 0.4330708661417323,
                    "duration": 0.147420000000011
                },
                {
                    "name": "C6",
                    "midi": 84,
                    "time": 176.7565800000026,
                    "velocity": 0.5118110236220472,
                    "duration": 0.147420000000011
                },
                {
                    "name": "D#6",
                    "midi": 87,
                    "time": 176.9040000000026,
                    "velocity": 0.6614173228346457,
                    "duration": 1.1793600000000026
                },
                {
                    "name": "F#5",
                    "midi": 78,
                    "time": 176.9040000000026,
                    "velocity": 0.6141732283464567,
                    "duration": 1.1793600000000026
                },
                {
                    "name": "C#6",
                    "midi": 85,
                    "time": 178.0833600000026,
                    "velocity": 0.4645669291338583,
                    "duration": 0.29483999999999355
                },
                {
                    "name": "D#5",
                    "midi": 75,
                    "time": 178.0833600000026,
                    "velocity": 0.31496062992125984,
                    "duration": 0.5896799999999871
                },
                {
                    "name": "C6",
                    "midi": 84,
                    "time": 178.3782000000026,
                    "velocity": 0.4251968503937008,
                    "duration": 0.29483999999999355
                },
                {
                    "name": "A#5",
                    "midi": 82,
                    "time": 178.6730400000026,
                    "velocity": 0.44881889763779526,
                    "duration": 0.29483999999999355
                },
                {
                    "name": "C5",
                    "midi": 72,
                    "time": 178.6730400000026,
                    "velocity": 0.31496062992125984,
                    "duration": 1.1793599999999742
                },
                {
                    "name": "G#5",
                    "midi": 80,
                    "time": 178.9678800000026,
                    "velocity": 0.3937007874015748,
                    "duration": 0.147420000000011
                },
                {
                    "name": "F5",
                    "midi": 77,
                    "time": 179.1153000000026,
                    "velocity": 0.3228346456692913,
                    "duration": 0.04913999999999419
                },
                {
                    "name": "F#5",
                    "midi": 78,
                    "time": 179.1644400000026,
                    "velocity": 0.28346456692913385,
                    "duration": 0.04913999999999419
                },
                {
                    "name": "G#5",
                    "midi": 80,
                    "time": 179.2135800000026,
                    "velocity": 0.28346456692913385,
                    "duration": 0.04913999999999419
                },
                {
                    "name": "F#5",
                    "midi": 78,
                    "time": 179.2627200000026,
                    "velocity": 0.3937007874015748,
                    "duration": 0.5896799999999871
                },
                {
                    "name": "G#3",
                    "midi": 56,
                    "time": 179.9998200000026,
                    "velocity": 0.2677165354330709,
                    "duration": 0.0737100000000055
                },
                {
                    "name": "A#3",
                    "midi": 58,
                    "time": 180.1472400000026,
                    "velocity": 0.2440944881889764,
                    "duration": 0.0737100000000055
                },
                {
                    "name": "C4",
                    "midi": 60,
                    "time": 180.2946600000026,
                    "velocity": 0.2440944881889764,
                    "duration": 0.0737100000000055
                },
                {
                    "name": "F3",
                    "midi": 53,
                    "time": 180.44208000000262,
                    "velocity": 0.25984251968503935,
                    "duration": 0.5896800000000155
                },
                {
                    "name": "G#3",
                    "midi": 56,
                    "time": 180.44208000000262,
                    "velocity": 0.25984251968503935,
                    "duration": 0.5896800000000155
                },
                {
                    "name": "C#4",
                    "midi": 61,
                    "time": 180.44208000000262,
                    "velocity": 0.30708661417322836,
                    "duration": 0.0737100000000055
                },
                {
                    "name": "D#4",
                    "midi": 63,
                    "time": 180.58950000000263,
                    "velocity": 0.2677165354330709,
                    "duration": 0.0737100000000055
                },
                {
                    "name": "F4",
                    "midi": 65,
                    "time": 180.73692000000264,
                    "velocity": 0.2677165354330709,
                    "duration": 0.0737100000000055
                },
                {
                    "name": "G#3",
                    "midi": 56,
                    "time": 181.03176000000263,
                    "velocity": 0.25196850393700787,
                    "duration": 0.0737100000000055
                },
                {
                    "name": "D#4",
                    "midi": 63,
                    "time": 181.03176000000263,
                    "velocity": 0.2992125984251969,
                    "duration": 0.0737100000000055
                },
                {
                    "name": "G#3",
                    "midi": 56,
                    "time": 181.32660000000263,
                    "velocity": 0.2125984251968504,
                    "duration": 0.0737100000000055
                },
                {
                    "name": "C#4",
                    "midi": 61,
                    "time": 181.32660000000263,
                    "velocity": 0.25984251968503935,
                    "duration": 0.0737100000000055
                },
                {
                    "name": "F#3",
                    "midi": 54,
                    "time": 181.62144000000262,
                    "velocity": 0.2440944881889764,
                    "duration": 0.7370999999999981
                },
                {
                    "name": "G#3",
                    "midi": 56,
                    "time": 181.62144000000262,
                    "velocity": 0.2440944881889764,
                    "duration": 0.7370999999999981
                },
                {
                    "name": "C4",
                    "midi": 60,
                    "time": 181.62144000000262,
                    "velocity": 0.2440944881889764,
                    "duration": 0.7370999999999981
                },
                {
                    "name": "F#4",
                    "midi": 66,
                    "time": 181.62144000000262,
                    "velocity": 0.29133858267716534,
                    "duration": 0.7370999999999981
                },
                {
                    "name": "G#3",
                    "midi": 56,
                    "time": 182.35854000000262,
                    "velocity": 0.2677165354330709,
                    "duration": 0.0737100000000055
                },
                {
                    "name": "A#3",
                    "midi": 58,
                    "time": 182.50596000000263,
                    "velocity": 0.2440944881889764,
                    "duration": 0.0737100000000055
                },
                {
                    "name": "C4",
                    "midi": 60,
                    "time": 182.65338000000264,
                    "velocity": 0.2440944881889764,
                    "duration": 0.0737100000000055
                },
                {
                    "name": "F3",
                    "midi": 53,
                    "time": 182.80080000000265,
                    "velocity": 0.25984251968503935,
                    "duration": 0.5896800000000155
                },
                {
                    "name": "G#3",
                    "midi": 56,
                    "time": 182.80080000000265,
                    "velocity": 0.25984251968503935,
                    "duration": 0.5896800000000155
                },
                {
                    "name": "C#4",
                    "midi": 61,
                    "time": 182.80080000000265,
                    "velocity": 0.30708661417322836,
                    "duration": 0.0737100000000055
                },
                {
                    "name": "D#4",
                    "midi": 63,
                    "time": 182.94822000000266,
                    "velocity": 0.2677165354330709,
                    "duration": 0.0737100000000055
                },
                {
                    "name": "F4",
                    "midi": 65,
                    "time": 183.09564000000267,
                    "velocity": 0.2677165354330709,
                    "duration": 0.0737100000000055
                },
                {
                    "name": "D#3",
                    "midi": 51,
                    "time": 183.39048000000267,
                    "velocity": 0.25196850393700787,
                    "duration": 0.0737100000000055
                },
                {
                    "name": "A#3",
                    "midi": 58,
                    "time": 183.39048000000267,
                    "velocity": 0.25196850393700787,
                    "duration": 0.0737100000000055
                },
                {
                    "name": "D#4",
                    "midi": 63,
                    "time": 183.39048000000267,
                    "velocity": 0.2992125984251969,
                    "duration": 0.0737100000000055
                },
                {
                    "name": "A#3",
                    "midi": 58,
                    "time": 183.68532000000266,
                    "velocity": 0.2125984251968504,
                    "duration": 0.0737100000000055
                },
                {
                    "name": "D#3",
                    "midi": 51,
                    "time": 183.68532000000266,
                    "velocity": 0.2125984251968504,
                    "duration": 0.0737100000000055
                },
                {
                    "name": "C#4",
                    "midi": 61,
                    "time": 183.68532000000266,
                    "velocity": 0.25984251968503935,
                    "duration": 0.0737100000000055
                },
                {
                    "name": "C3",
                    "midi": 48,
                    "time": 183.98016000000266,
                    "velocity": 0.2047244094488189,
                    "duration": 0.5896799999999871
                },
                {
                    "name": "D#3",
                    "midi": 51,
                    "time": 183.98016000000266,
                    "velocity": 0.2047244094488189,
                    "duration": 0.5896799999999871
                },
                {
                    "name": "G#3",
                    "midi": 56,
                    "time": 183.98016000000266,
                    "velocity": 0.2440944881889764,
                    "duration": 0.5896799999999871
                },
                {
                    "name": "G#3",
                    "midi": 56,
                    "time": 184.71726000000265,
                    "velocity": 0.2677165354330709,
                    "duration": 0.0737100000000055
                },
                {
                    "name": "A#3",
                    "midi": 58,
                    "time": 184.86468000000266,
                    "velocity": 0.2440944881889764,
                    "duration": 0.0737100000000055
                },
                {
                    "name": "C4",
                    "midi": 60,
                    "time": 185.01210000000268,
                    "velocity": 0.2440944881889764,
                    "duration": 0.0737100000000055
                },
                {
                    "name": "F3",
                    "midi": 53,
                    "time": 185.1595200000027,
                    "velocity": 0.25984251968503935,
                    "duration": 0.5896800000000155
                },
                {
                    "name": "G#3",
                    "midi": 56,
                    "time": 185.1595200000027,
                    "velocity": 0.25984251968503935,
                    "duration": 0.5896800000000155
                },
                {
                    "name": "C#4",
                    "midi": 61,
                    "time": 185.1595200000027,
                    "velocity": 0.30708661417322836,
                    "duration": 0.0737100000000055
                },
                {
                    "name": "D#4",
                    "midi": 63,
                    "time": 185.3069400000027,
                    "velocity": 0.2677165354330709,
                    "duration": 0.0737100000000055
                },
                {
                    "name": "F4",
                    "midi": 65,
                    "time": 185.4543600000027,
                    "velocity": 0.2677165354330709,
                    "duration": 0.0737100000000055
                },
                {
                    "name": "G#3",
                    "midi": 56,
                    "time": 185.7492000000027,
                    "velocity": 0.25196850393700787,
                    "duration": 0.0737100000000055
                },
                {
                    "name": "D#4",
                    "midi": 63,
                    "time": 185.7492000000027,
                    "velocity": 0.2992125984251969,
                    "duration": 0.0737100000000055
                },
                {
                    "name": "G#3",
                    "midi": 56,
                    "time": 186.0440400000027,
                    "velocity": 0.2125984251968504,
                    "duration": 0.0737100000000055
                },
                {
                    "name": "C#4",
                    "midi": 61,
                    "time": 186.0440400000027,
                    "velocity": 0.25984251968503935,
                    "duration": 0.0737100000000055
                },
                {
                    "name": "F#3",
                    "midi": 54,
                    "time": 186.3388800000027,
                    "velocity": 0.2204724409448819,
                    "duration": 1.1793599999999742
                },
                {
                    "name": "G#3",
                    "midi": 56,
                    "time": 186.3388800000027,
                    "velocity": 0.2204724409448819,
                    "duration": 1.1793599999999742
                },
                {
                    "name": "C4",
                    "midi": 60,
                    "time": 186.3388800000027,
                    "velocity": 0.2204724409448819,
                    "duration": 0.5884514999999908
                },
                {
                    "name": "F#4",
                    "midi": 66,
                    "time": 186.3388800000027,
                    "velocity": 0.2755905511811024,
                    "duration": 0.44226000000000454
                },
                {
                    "name": "D#4",
                    "midi": 63,
                    "time": 186.7811400000027,
                    "velocity": 0.23622047244094488,
                    "duration": 0.14741999999998256
                },
                {
                    "name": "C4",
                    "midi": 60,
                    "time": 186.92856000000268,
                    "velocity": 0.2677165354330709,
                    "duration": 0.5896799999999871
                },
                {
                    "name": "F#3",
                    "midi": 54,
                    "time": 187.91013150000268,
                    "velocity": 0.31496062992125984,
                    "duration": 1.377148500000004
                },
                {
                    "name": "A3",
                    "midi": 57,
                    "time": 187.97585625000266,
                    "velocity": 0.33858267716535434,
                    "duration": 1.3114237500000172
                },
                {
                    "name": "C4",
                    "midi": 60,
                    "time": 188.04096675000267,
                    "velocity": 0.36220472440944884,
                    "duration": 0.6547905000000185
                },
                {
                    "name": "F#4",
                    "midi": 66,
                    "time": 188.10792000000268,
                    "velocity": 0.3858267716535433,
                    "duration": 0.44226000000000454
                },
                {
                    "name": "D#4",
                    "midi": 63,
                    "time": 188.55018000000268,
                    "velocity": 0.23622047244094488,
                    "duration": 0.147420000000011
                },
                {
                    "name": "C4",
                    "midi": 60,
                    "time": 188.6976000000027,
                    "velocity": 0.2677165354330709,
                    "duration": 0.5896799999999871
                },
                {
                    "name": "G3",
                    "midi": 55,
                    "time": 189.67978575000268,
                    "velocity": 0.49606299212598426,
                    "duration": 0.06511050000000296
                },
                {
                    "name": "C4",
                    "midi": 60,
                    "time": 189.74489625000268,
                    "velocity": 0.5118110236220472,
                    "duration": 0.06572475000001532
                },
                {
                    "name": "D#4",
                    "midi": 63,
                    "time": 189.81000675000269,
                    "velocity": 0.5275590551181102,
                    "duration": 0.06695325000001162
                },
                {
                    "name": "G4",
                    "midi": 67,
                    "time": 189.8769600000027,
                    "velocity": 0.5511811023622047,
                    "duration": 0.0737100000000055
                },
                {
                    "name": "D#4",
                    "midi": 63,
                    "time": 190.0243800000027,
                    "velocity": 0.49606299212598426,
                    "duration": 0.0737100000000055
                },
                {
                    "name": "C4",
                    "midi": 60,
                    "time": 190.17180000000272,
                    "velocity": 0.5275590551181102,
                    "duration": 0.0737100000000055
                },
                {
                    "name": "G3",
                    "midi": 55,
                    "time": 190.31922000000273,
                    "velocity": 0.49606299212598426,
                    "duration": 0.0737100000000055
                },
                {
                    "name": "C4",
                    "midi": 60,
                    "time": 191.79342000000273,
                    "velocity": 0.3464566929133858,
                    "duration": 0.0737100000000055
                },
                {
                    "name": "D4",
                    "midi": 62,
                    "time": 191.94084000000274,
                    "velocity": 0.3700787401574803,
                    "duration": 0.0737100000000055
                },
                {
                    "name": "E4",
                    "midi": 64,
                    "time": 192.08826000000275,
                    "velocity": 0.4015748031496063,
                    "duration": 0.0737100000000055
                },
                {
                    "name": "F4",
                    "midi": 65,
                    "time": 192.23568000000276,
                    "velocity": 0.4251968503937008,
                    "duration": 0.0737100000000055
                },
                {
                    "name": "G4",
                    "midi": 67,
                    "time": 192.38310000000277,
                    "velocity": 0.36220472440944884,
                    "duration": 0.0737100000000055
                },
                {
                    "name": "G#4",
                    "midi": 68,
                    "time": 192.53052000000278,
                    "velocity": 0.3700787401574803,
                    "duration": 0.0737100000000055
                },
                {
                    "name": "C6",
                    "midi": 84,
                    "time": 192.6779400000028,
                    "velocity": 0.4409448818897638,
                    "duration": 0.147420000000011
                },
                {
                    "name": "B5",
                    "midi": 83,
                    "time": 192.8253600000028,
                    "velocity": 0.5118110236220472,
                    "duration": 0.147420000000011
                },
                {
                    "name": "C6",
                    "midi": 84,
                    "time": 192.9727800000028,
                    "velocity": 0.4330708661417323,
                    "duration": 0.147420000000011
                },
                {
                    "name": "F6",
                    "midi": 89,
                    "time": 193.12020000000282,
                    "velocity": 0.5196850393700787,
                    "duration": 0.0737100000000055
                },
                {
                    "name": "F6",
                    "midi": 89,
                    "time": 193.26762000000284,
                    "velocity": 0.4251968503937008,
                    "duration": 0.0737100000000055
                },
                {
                    "name": "E6",
                    "midi": 88,
                    "time": 193.41504000000285,
                    "velocity": 0.5196850393700787,
                    "duration": 0.29483999999999355
                },
                {
                    "name": "C4",
                    "midi": 60,
                    "time": 194.15214000000284,
                    "velocity": 0.3464566929133858,
                    "duration": 0.0737100000000055
                },
                {
                    "name": "D4",
                    "midi": 62,
                    "time": 194.29956000000286,
                    "velocity": 0.3700787401574803,
                    "duration": 0.0737100000000055
                },
                {
                    "name": "E4",
                    "midi": 64,
                    "time": 194.44698000000287,
                    "velocity": 0.4015748031496063,
                    "duration": 0.0737100000000055
                },
                {
                    "name": "F4",
                    "midi": 65,
                    "time": 194.59440000000288,
                    "velocity": 0.4251968503937008,
                    "duration": 0.0737100000000055
                },
                {
                    "name": "G4",
                    "midi": 67,
                    "time": 194.7418200000029,
                    "velocity": 0.36220472440944884,
                    "duration": 0.0737100000000055
                },
                {
                    "name": "G#4",
                    "midi": 68,
                    "time": 194.8892400000029,
                    "velocity": 0.3700787401574803,
                    "duration": 0.0737100000000055
                },
                {
                    "name": "C6",
                    "midi": 84,
                    "time": 195.0366600000029,
                    "velocity": 0.4409448818897638,
                    "duration": 0.147420000000011
                },
                {
                    "name": "B5",
                    "midi": 83,
                    "time": 195.18408000000292,
                    "velocity": 0.5118110236220472,
                    "duration": 0.147420000000011
                },
                {
                    "name": "C6",
                    "midi": 84,
                    "time": 195.33150000000293,
                    "velocity": 0.4330708661417323,
                    "duration": 0.147420000000011
                },
                {
                    "name": "F6",
                    "midi": 89,
                    "time": 195.47892000000294,
                    "velocity": 0.5196850393700787,
                    "duration": 0.0737100000000055
                },
                {
                    "name": "F6",
                    "midi": 89,
                    "time": 195.62634000000295,
                    "velocity": 0.4251968503937008,
                    "duration": 0.0737100000000055
                },
                {
                    "name": "E6",
                    "midi": 88,
                    "time": 195.77376000000297,
                    "velocity": 0.5196850393700787,
                    "duration": 0.29483999999999355
                },
                {
                    "name": "C5",
                    "midi": 72,
                    "time": 196.21602000000297,
                    "velocity": 0.3937007874015748,
                    "duration": 0.147420000000011
                },
                {
                    "name": "B4",
                    "midi": 71,
                    "time": 196.36344000000298,
                    "velocity": 0.44881889763779526,
                    "duration": 0.147420000000011
                },
                {
                    "name": "C5",
                    "midi": 72,
                    "time": 196.510860000003,
                    "velocity": 0.3700787401574803,
                    "duration": 0.147420000000011
                },
                {
                    "name": "F5",
                    "midi": 77,
                    "time": 196.658280000003,
                    "velocity": 0.44881889763779526,
                    "duration": 0.0737100000000055
                },
                {
                    "name": "F5",
                    "midi": 77,
                    "time": 196.80570000000301,
                    "velocity": 0.3543307086614173,
                    "duration": 0.0737100000000055
                },
                {
                    "name": "E5",
                    "midi": 76,
                    "time": 196.95312000000303,
                    "velocity": 0.4330708661417323,
                    "duration": 0.29483999999999355
                },
                {
                    "name": "C4",
                    "midi": 60,
                    "time": 197.39538000000303,
                    "velocity": 0.3543307086614173,
                    "duration": 0.147420000000011
                },
                {
                    "name": "B3",
                    "midi": 59,
                    "time": 197.54280000000304,
                    "velocity": 0.4015748031496063,
                    "duration": 0.14619149999998626
                },
                {
                    "name": "C4",
                    "midi": 60,
                    "time": 197.69022000000302,
                    "velocity": 0.33858267716535434,
                    "duration": 0.147420000000011
                },
                {
                    "name": "F4",
                    "midi": 65,
                    "time": 197.83764000000303,
                    "velocity": 0.4015748031496063,
                    "duration": 0.0737100000000055
                },
                {
                    "name": "F4",
                    "midi": 65,
                    "time": 197.98506000000305,
                    "velocity": 0.31496062992125984,
                    "duration": 0.0737100000000055
                },
                {
                    "name": "E4",
                    "midi": 64,
                    "time": 198.13248000000306,
                    "velocity": 0.3858267716535433,
                    "duration": 0.29483999999999355
                },
                {
                    "name": "C2",
                    "midi": 36,
                    "time": 198.57474000000306,
                    "velocity": 0.23622047244094488,
                    "duration": 0.14619149999998626
                },
                {
                    "name": "C2",
                    "midi": 36,
                    "time": 198.72216000000304,
                    "velocity": 0.31496062992125984,
                    "duration": 0.29483999999999355
                },
                {
                    "name": "C2",
                    "midi": 36,
                    "time": 199.16442000000305,
                    "velocity": 0.2047244094488189,
                    "duration": 0.147420000000011
                },
                {
                    "name": "C2",
                    "midi": 36,
                    "time": 199.31184000000306,
                    "velocity": 0.25984251968503935,
                    "duration": 0.29483999999999355
                }
            ],
            "controlChanges": {},
            "id": 1,
            "name": "Piano right",
            "instrumentNumber": 0,
            "instrument": "acoustic grand piano",
            "instrumentFamily": "piano",
            "channelNumber": 0,
            "isPercussion": false
        },
        {
            "startTime": 0.44226,
            "duration": 199.6066800000017,
            "length": 1251,
            "notes": [
                {
                    "name": "C3",
                    "midi": 48,
                    "time": 0.44226,
                    "velocity": 0.28346456692913385,
                    "duration": 0.14742
                },
                {
                    "name": "B2",
                    "midi": 47,
                    "time": 0.58968,
                    "velocity": 0.2992125984251969,
                    "duration": 0.14742
                },
                {
                    "name": "C3",
                    "midi": 48,
                    "time": 0.7371,
                    "velocity": 0.2755905511811024,
                    "duration": 0.14742
                },
                {
                    "name": "F3",
                    "midi": 53,
                    "time": 0.88452,
                    "velocity": 0.2992125984251969,
                    "duration": 0.07370999999999994
                },
                {
                    "name": "F3",
                    "midi": 53,
                    "time": 1.0319399999999999,
                    "velocity": 0.2677165354330709,
                    "duration": 0.07370999999999994
                },
                {
                    "name": "D#3",
                    "midi": 51,
                    "time": 1.1793599999999997,
                    "velocity": 0.2992125984251969,
                    "duration": 0.29484
                },
                {
                    "name": "C3",
                    "midi": 48,
                    "time": 1.6216199999999996,
                    "velocity": 0.28346456692913385,
                    "duration": 0.14741999999999988
                },
                {
                    "name": "B2",
                    "midi": 47,
                    "time": 1.7690399999999995,
                    "velocity": 0.2992125984251969,
                    "duration": 0.14741999999999988
                },
                {
                    "name": "C3",
                    "midi": 48,
                    "time": 1.9164599999999994,
                    "velocity": 0.2755905511811024,
                    "duration": 0.14741999999999988
                },
                {
                    "name": "G#3",
                    "midi": 56,
                    "time": 2.0638799999999993,
                    "velocity": 0.2992125984251969,
                    "duration": 0.07371000000000016
                },
                {
                    "name": "G#3",
                    "midi": 56,
                    "time": 2.2112999999999996,
                    "velocity": 0.2677165354330709,
                    "duration": 0.07371000000000016
                },
                {
                    "name": "G3",
                    "midi": 55,
                    "time": 2.35872,
                    "velocity": 0.2992125984251969,
                    "duration": 0.29483999999999977
                },
                {
                    "name": "G#3",
                    "midi": 56,
                    "time": 3.53808,
                    "velocity": 0.2992125984251969,
                    "duration": 1.17936
                },
                {
                    "name": "C4",
                    "midi": 60,
                    "time": 3.53808,
                    "velocity": 0.2992125984251969,
                    "duration": 1.17936
                },
                {
                    "name": "F#4",
                    "midi": 66,
                    "time": 3.53808,
                    "velocity": 0.2992125984251969,
                    "duration": 1.17936
                },
                {
                    "name": "G4",
                    "midi": 67,
                    "time": 4.71744,
                    "velocity": 0.2992125984251969,
                    "duration": 0.29483999999999977
                },
                {
                    "name": "D4",
                    "midi": 62,
                    "time": 4.71744,
                    "velocity": 0.25196850393700787,
                    "duration": 0.29483999999999977
                },
                {
                    "name": "G3",
                    "midi": 55,
                    "time": 4.71744,
                    "velocity": 0.25196850393700787,
                    "duration": 0.29483999999999977
                },
                {
                    "name": "G2",
                    "midi": 43,
                    "time": 5.1597,
                    "velocity": 0.28346456692913385,
                    "duration": 0.14742000000000033
                },
                {
                    "name": "F#2",
                    "midi": 42,
                    "time": 5.30712,
                    "velocity": 0.2992125984251969,
                    "duration": 0.14742000000000033
                },
                {
                    "name": "G2",
                    "midi": 43,
                    "time": 5.454540000000001,
                    "velocity": 0.2755905511811024,
                    "duration": 0.14742000000000033
                },
                {
                    "name": "C3",
                    "midi": 48,
                    "time": 5.601960000000001,
                    "velocity": 0.2992125984251969,
                    "duration": 0.07371000000000016
                },
                {
                    "name": "C3",
                    "midi": 48,
                    "time": 5.749380000000001,
                    "velocity": 0.2677165354330709,
                    "duration": 0.07371000000000016
                },
                {
                    "name": "B2",
                    "midi": 47,
                    "time": 5.896800000000002,
                    "velocity": 0.2992125984251969,
                    "duration": 0.29483999999999977
                },
                {
                    "name": "G2",
                    "midi": 43,
                    "time": 6.339060000000002,
                    "velocity": 0.28346456692913385,
                    "duration": 0.14742000000000033
                },
                {
                    "name": "F#2",
                    "midi": 42,
                    "time": 6.486480000000002,
                    "velocity": 0.2992125984251969,
                    "duration": 0.14742000000000033
                },
                {
                    "name": "G2",
                    "midi": 43,
                    "time": 6.633900000000002,
                    "velocity": 0.2755905511811024,
                    "duration": 0.14742000000000033
                },
                {
                    "name": "D#3",
                    "midi": 51,
                    "time": 6.781320000000003,
                    "velocity": 0.2992125984251969,
                    "duration": 0.07371000000000016
                },
                {
                    "name": "D#3",
                    "midi": 51,
                    "time": 6.928740000000003,
                    "velocity": 0.2677165354330709,
                    "duration": 0.07371000000000016
                },
                {
                    "name": "D3",
                    "midi": 50,
                    "time": 7.076160000000003,
                    "velocity": 0.2992125984251969,
                    "duration": 0.29483999999999977
                },
                {
                    "name": "G2",
                    "midi": 43,
                    "time": 7.518420000000003,
                    "velocity": 0.29133858267716534,
                    "duration": 0.07371000000000016
                },
                {
                    "name": "B2",
                    "midi": 47,
                    "time": 7.665840000000004,
                    "velocity": 0.33858267716535434,
                    "duration": 0.07371000000000016
                },
                {
                    "name": "D3",
                    "midi": 50,
                    "time": 7.813260000000004,
                    "velocity": 0.29133858267716534,
                    "duration": 0.07371000000000016
                },
                {
                    "name": "F3",
                    "midi": 53,
                    "time": 7.960680000000004,
                    "velocity": 0.29133858267716534,
                    "duration": 0.07370999999999928
                },
                {
                    "name": "G#3",
                    "midi": 56,
                    "time": 8.108100000000004,
                    "velocity": 0.29133858267716534,
                    "duration": 0.07371000000000016
                },
                {
                    "name": "B3",
                    "midi": 59,
                    "time": 8.255520000000004,
                    "velocity": 0.36220472440944884,
                    "duration": 0.07371000000000016
                },
                {
                    "name": "D4",
                    "midi": 62,
                    "time": 8.402940000000005,
                    "velocity": 0.3543307086614173,
                    "duration": 0.07371000000000016
                },
                {
                    "name": "F4",
                    "midi": 65,
                    "time": 8.550360000000005,
                    "velocity": 0.3700787401574803,
                    "duration": 0.07371000000000016
                },
                {
                    "name": "G#4",
                    "midi": 68,
                    "time": 8.697780000000005,
                    "velocity": 0.3937007874015748,
                    "duration": 0.07371000000000016
                },
                {
                    "name": "G4",
                    "midi": 67,
                    "time": 8.845200000000006,
                    "velocity": 0.41732283464566927,
                    "duration": 0.07371000000000016
                },
                {
                    "name": "F4",
                    "midi": 65,
                    "time": 8.992620000000006,
                    "velocity": 0.3937007874015748,
                    "duration": 0.07371000000000016
                },
                {
                    "name": "D#4",
                    "midi": 63,
                    "time": 9.140040000000006,
                    "velocity": 0.36220472440944884,
                    "duration": 0.07371000000000016
                },
                {
                    "name": "D4",
                    "midi": 62,
                    "time": 9.287460000000006,
                    "velocity": 0.3543307086614173,
                    "duration": 0.07371000000000016
                },
                {
                    "name": "C4",
                    "midi": 60,
                    "time": 9.434880000000007,
                    "velocity": 0.33070866141732286,
                    "duration": 0.07371000000000016
                },
                {
                    "name": "D#4",
                    "midi": 63,
                    "time": 9.582300000000007,
                    "velocity": 0.25196850393700787,
                    "duration": 0.07371000000000016
                },
                {
                    "name": "G4",
                    "midi": 67,
                    "time": 9.582300000000007,
                    "velocity": 0.2992125984251969,
                    "duration": 0.07371000000000016
                },
                {
                    "name": "D#4",
                    "midi": 63,
                    "time": 9.729720000000007,
                    "velocity": 0.25196850393700787,
                    "duration": 0.07371000000000016
                },
                {
                    "name": "G4",
                    "midi": 67,
                    "time": 9.729720000000007,
                    "velocity": 0.2992125984251969,
                    "duration": 0.07371000000000016
                },
                {
                    "name": "D#4",
                    "midi": 63,
                    "time": 9.877140000000008,
                    "velocity": 0.25196850393700787,
                    "duration": 0.07371000000000016
                },
                {
                    "name": "G4",
                    "midi": 67,
                    "time": 9.877140000000008,
                    "velocity": 0.2992125984251969,
                    "duration": 0.07371000000000016
                },
                {
                    "name": "C4",
                    "midi": 60,
                    "time": 10.024560000000008,
                    "velocity": 0.33070866141732286,
                    "duration": 0.07371000000000016
                },
                {
                    "name": "E4",
                    "midi": 64,
                    "time": 10.171980000000008,
                    "velocity": 0.2440944881889764,
                    "duration": 0.07371000000000016
                },
                {
                    "name": "G4",
                    "midi": 67,
                    "time": 10.171980000000008,
                    "velocity": 0.2440944881889764,
                    "duration": 0.07371000000000016
                },
                {
                    "name": "A#4",
                    "midi": 70,
                    "time": 10.171980000000008,
                    "velocity": 0.29133858267716534,
                    "duration": 0.07371000000000016
                },
                {
                    "name": "E4",
                    "midi": 64,
                    "time": 10.319400000000009,
                    "velocity": 0.2440944881889764,
                    "duration": 0.07371000000000016
                },
                {
                    "name": "G4",
                    "midi": 67,
                    "time": 10.319400000000009,
                    "velocity": 0.2440944881889764,
                    "duration": 0.07371000000000016
                },
                {
                    "name": "A#4",
                    "midi": 70,
                    "time": 10.319400000000009,
                    "velocity": 0.29133858267716534,
                    "duration": 0.07371000000000016
                },
                {
                    "name": "E4",
                    "midi": 64,
                    "time": 10.46682000000001,
                    "velocity": 0.2440944881889764,
                    "duration": 0.07371000000000016
                },
                {
                    "name": "G4",
                    "midi": 67,
                    "time": 10.46682000000001,
                    "velocity": 0.2440944881889764,
                    "duration": 0.07371000000000016
                },
                {
                    "name": "A#4",
                    "midi": 70,
                    "time": 10.46682000000001,
                    "velocity": 0.29133858267716534,
                    "duration": 0.07371000000000016
                },
                {
                    "name": "C4",
                    "midi": 60,
                    "time": 10.61424000000001,
                    "velocity": 0.33070866141732286,
                    "duration": 0.07371000000000016
                },
                {
                    "name": "F4",
                    "midi": 65,
                    "time": 10.76166000000001,
                    "velocity": 0.25196850393700787,
                    "duration": 0.07371000000000016
                },
                {
                    "name": "G#4",
                    "midi": 68,
                    "time": 10.76166000000001,
                    "velocity": 0.2992125984251969,
                    "duration": 0.07371000000000016
                },
                {
                    "name": "F4",
                    "midi": 65,
                    "time": 10.90908000000001,
                    "velocity": 0.25196850393700787,
                    "duration": 0.07371000000000016
                },
                {
                    "name": "G#4",
                    "midi": 68,
                    "time": 10.90908000000001,
                    "velocity": 0.2992125984251969,
                    "duration": 0.07371000000000016
                },
                {
                    "name": "F4",
                    "midi": 65,
                    "time": 11.05650000000001,
                    "velocity": 0.25196850393700787,
                    "duration": 0.07371000000000016
                },
                {
                    "name": "G#4",
                    "midi": 68,
                    "time": 11.05650000000001,
                    "velocity": 0.2992125984251969,
                    "duration": 0.07371000000000016
                },
                {
                    "name": "C4",
                    "midi": 60,
                    "time": 11.20392000000001,
                    "velocity": 0.33070866141732286,
                    "duration": 0.07371000000000016
                },
                {
                    "name": "F4",
                    "midi": 65,
                    "time": 11.351340000000011,
                    "velocity": 0.2440944881889764,
                    "duration": 0.07371000000000016
                },
                {
                    "name": "G#4",
                    "midi": 68,
                    "time": 11.351340000000011,
                    "velocity": 0.2440944881889764,
                    "duration": 0.07371000000000016
                },
                {
                    "name": "B4",
                    "midi": 71,
                    "time": 11.351340000000011,
                    "velocity": 0.29133858267716534,
                    "duration": 0.07371000000000016
                },
                {
                    "name": "F4",
                    "midi": 65,
                    "time": 11.498760000000011,
                    "velocity": 0.2440944881889764,
                    "duration": 0.07371000000000016
                },
                {
                    "name": "G#4",
                    "midi": 68,
                    "time": 11.498760000000011,
                    "velocity": 0.2440944881889764,
                    "duration": 0.07371000000000016
                },
                {
                    "name": "B4",
                    "midi": 71,
                    "time": 11.498760000000011,
                    "velocity": 0.29133858267716534,
                    "duration": 0.07371000000000016
                },
                {
                    "name": "F4",
                    "midi": 65,
                    "time": 11.646180000000012,
                    "velocity": 0.2440944881889764,
                    "duration": 0.07371000000000016
                },
                {
                    "name": "G#4",
                    "midi": 68,
                    "time": 11.646180000000012,
                    "velocity": 0.2440944881889764,
                    "duration": 0.07371000000000016
                },
                {
                    "name": "B4",
                    "midi": 71,
                    "time": 11.646180000000012,
                    "velocity": 0.29133858267716534,
                    "duration": 0.07371000000000016
                },
                {
                    "name": "C4",
                    "midi": 60,
                    "time": 11.793600000000012,
                    "velocity": 0.33070866141732286,
                    "duration": 0.07371000000000016
                },
                {
                    "name": "D#4",
                    "midi": 63,
                    "time": 11.941020000000012,
                    "velocity": 0.25196850393700787,
                    "duration": 0.07371000000000016
                },
                {
                    "name": "G4",
                    "midi": 67,
                    "time": 11.941020000000012,
                    "velocity": 0.2992125984251969,
                    "duration": 0.07371000000000016
                },
                {
                    "name": "D#4",
                    "midi": 63,
                    "time": 12.088440000000013,
                    "velocity": 0.25196850393700787,
                    "duration": 0.07371000000000016
                },
                {
                    "name": "G4",
                    "midi": 67,
                    "time": 12.088440000000013,
                    "velocity": 0.2992125984251969,
                    "duration": 0.07371000000000016
                },
                {
                    "name": "D#4",
                    "midi": 63,
                    "time": 12.235860000000013,
                    "velocity": 0.25196850393700787,
                    "duration": 0.07371000000000016
                },
                {
                    "name": "G4",
                    "midi": 67,
                    "time": 12.235860000000013,
                    "velocity": 0.2992125984251969,
                    "duration": 0.07371000000000016
                },
                {
                    "name": "C4",
                    "midi": 60,
                    "time": 12.383280000000013,
                    "velocity": 0.33070866141732286,
                    "duration": 0.07371000000000016
                },
                {
                    "name": "E4",
                    "midi": 64,
                    "time": 12.530700000000014,
                    "velocity": 0.2440944881889764,
                    "duration": 0.07371000000000016
                },
                {
                    "name": "G4",
                    "midi": 67,
                    "time": 12.530700000000014,
                    "velocity": 0.2440944881889764,
                    "duration": 0.07371000000000016
                },
                {
                    "name": "A#4",
                    "midi": 70,
                    "time": 12.530700000000014,
                    "velocity": 0.29133858267716534,
                    "duration": 0.07371000000000016
                },
                {
                    "name": "E4",
                    "midi": 64,
                    "time": 12.678120000000014,
                    "velocity": 0.2440944881889764,
                    "duration": 0.07371000000000016
                },
                {
                    "name": "G4",
                    "midi": 67,
                    "time": 12.678120000000014,
                    "velocity": 0.2440944881889764,
                    "duration": 0.07371000000000016
                },
                {
                    "name": "A#4",
                    "midi": 70,
                    "time": 12.678120000000014,
                    "velocity": 0.29133858267716534,
                    "duration": 0.07371000000000016
                },
                {
                    "name": "E4",
                    "midi": 64,
                    "time": 12.825540000000014,
                    "velocity": 0.2440944881889764,
                    "duration": 0.07371000000000016
                },
                {
                    "name": "G4",
                    "midi": 67,
                    "time": 12.825540000000014,
                    "velocity": 0.2440944881889764,
                    "duration": 0.07371000000000016
                },
                {
                    "name": "A#4",
                    "midi": 70,
                    "time": 12.825540000000014,
                    "velocity": 0.29133858267716534,
                    "duration": 0.07371000000000016
                },
                {
                    "name": "C4",
                    "midi": 60,
                    "time": 12.972960000000015,
                    "velocity": 0.33070866141732286,
                    "duration": 0.07371000000000016
                },
                {
                    "name": "F4",
                    "midi": 65,
                    "time": 13.120380000000015,
                    "velocity": 0.25196850393700787,
                    "duration": 0.07371000000000016
                },
                {
                    "name": "G#4",
                    "midi": 68,
                    "time": 13.120380000000015,
                    "velocity": 0.2992125984251969,
                    "duration": 0.07371000000000016
                },
                {
                    "name": "F4",
                    "midi": 65,
                    "time": 13.267800000000015,
                    "velocity": 0.25196850393700787,
                    "duration": 0.07371000000000016
                },
                {
                    "name": "G#4",
                    "midi": 68,
                    "time": 13.267800000000015,
                    "velocity": 0.2992125984251969,
                    "duration": 0.07371000000000016
                },
                {
                    "name": "F4",
                    "midi": 65,
                    "time": 13.415220000000016,
                    "velocity": 0.25196850393700787,
                    "duration": 0.07371000000000016
                },
                {
                    "name": "G#4",
                    "midi": 68,
                    "time": 13.415220000000016,
                    "velocity": 0.2992125984251969,
                    "duration": 0.07371000000000016
                },
                {
                    "name": "C4",
                    "midi": 60,
                    "time": 13.562640000000016,
                    "velocity": 0.33070866141732286,
                    "duration": 0.07371000000000016
                },
                {
                    "name": "F4",
                    "midi": 65,
                    "time": 13.710060000000016,
                    "velocity": 0.2440944881889764,
                    "duration": 0.07371000000000016
                },
                {
                    "name": "G#4",
                    "midi": 68,
                    "time": 13.710060000000016,
                    "velocity": 0.2440944881889764,
                    "duration": 0.07371000000000016
                },
                {
                    "name": "B4",
                    "midi": 71,
                    "time": 13.710060000000016,
                    "velocity": 0.29133858267716534,
                    "duration": 0.07371000000000016
                },
                {
                    "name": "F4",
                    "midi": 65,
                    "time": 13.857480000000017,
                    "velocity": 0.2440944881889764,
                    "duration": 0.07371000000000016
                },
                {
                    "name": "G#4",
                    "midi": 68,
                    "time": 13.857480000000017,
                    "velocity": 0.2440944881889764,
                    "duration": 0.07371000000000016
                },
                {
                    "name": "B4",
                    "midi": 71,
                    "time": 13.857480000000017,
                    "velocity": 0.29133858267716534,
                    "duration": 0.07371000000000016
                },
                {
                    "name": "F4",
                    "midi": 65,
                    "time": 14.004900000000017,
                    "velocity": 0.2440944881889764,
                    "duration": 0.07371000000000016
                },
                {
                    "name": "G#4",
                    "midi": 68,
                    "time": 14.004900000000017,
                    "velocity": 0.2440944881889764,
                    "duration": 0.07371000000000016
                },
                {
                    "name": "B4",
                    "midi": 71,
                    "time": 14.004900000000017,
                    "velocity": 0.29133858267716534,
                    "duration": 0.07371000000000016
                },
                {
                    "name": "C4",
                    "midi": 60,
                    "time": 14.152320000000017,
                    "velocity": 0.28346456692913385,
                    "duration": 0.2948399999999989
                },
                {
                    "name": "D#4",
                    "midi": 63,
                    "time": 14.152320000000017,
                    "velocity": 0.28346456692913385,
                    "duration": 0.2948399999999989
                },
                {
                    "name": "G4",
                    "midi": 67,
                    "time": 14.152320000000017,
                    "velocity": 0.28346456692913385,
                    "duration": 0.2948399999999989
                },
                {
                    "name": "C5",
                    "midi": 72,
                    "time": 14.156619750000017,
                    "velocity": 0.3464566929133858,
                    "duration": 0.2948399999999989
                },
                {
                    "name": "F#4",
                    "midi": 66,
                    "time": 14.594580000000017,
                    "velocity": 0.33070866141732286,
                    "duration": 0.14742000000000033
                },
                {
                    "name": "G4",
                    "midi": 67,
                    "time": 14.742000000000017,
                    "velocity": 0.4094488188976378,
                    "duration": 0.29484000000000066
                },
                {
                    "name": "B3",
                    "midi": 59,
                    "time": 15.184260000000018,
                    "velocity": 0.3779527559055118,
                    "duration": 0.14742000000000033
                },
                {
                    "name": "C4",
                    "midi": 60,
                    "time": 15.331680000000018,
                    "velocity": 0.44881889763779526,
                    "duration": 0.29484000000000066
                },
                {
                    "name": "F#3",
                    "midi": 54,
                    "time": 15.77394000000002,
                    "velocity": 0.4251968503937008,
                    "duration": 0.14742000000000033
                },
                {
                    "name": "G3",
                    "midi": 55,
                    "time": 15.92136000000002,
                    "velocity": 0.49606299212598426,
                    "duration": 0.2948399999999989
                },
                {
                    "name": "B2",
                    "midi": 47,
                    "time": 16.36362000000002,
                    "velocity": 0.44881889763779526,
                    "duration": 0.14742000000000033
                },
                {
                    "name": "C3",
                    "midi": 48,
                    "time": 16.51104000000002,
                    "velocity": 0.5196850393700787,
                    "duration": 0.29484000000000066
                },
                {
                    "name": "F#2",
                    "midi": 42,
                    "time": 16.95330000000002,
                    "velocity": 0.4566929133858268,
                    "duration": 0.14742000000000033
                },
                {
                    "name": "G2",
                    "midi": 43,
                    "time": 17.10072000000002,
                    "velocity": 0.5275590551181102,
                    "duration": 0.29484000000000066
                },
                {
                    "name": "C2",
                    "midi": 36,
                    "time": 17.39556000000002,
                    "velocity": 0.6456692913385826,
                    "duration": 0.14742000000000033
                },
                {
                    "name": "C3",
                    "midi": 48,
                    "time": 17.39556000000002,
                    "velocity": 0.7559055118110236,
                    "duration": 0.14742000000000033
                },
                {
                    "name": "G1",
                    "midi": 31,
                    "time": 17.69040000000002,
                    "velocity": 0.4330708661417323,
                    "duration": 0.14742000000000033
                },
                {
                    "name": "G2",
                    "midi": 43,
                    "time": 17.69040000000002,
                    "velocity": 0.5196850393700787,
                    "duration": 0.14742000000000033
                },
                {
                    "name": "C2",
                    "midi": 36,
                    "time": 17.985240000000022,
                    "velocity": 0.6456692913385826,
                    "duration": 0.14742000000000033
                },
                {
                    "name": "C3",
                    "midi": 48,
                    "time": 17.985240000000022,
                    "velocity": 0.7637795275590551,
                    "duration": 0.14742000000000033
                },
                {
                    "name": "G1",
                    "midi": 31,
                    "time": 18.280080000000023,
                    "velocity": 0.44881889763779526,
                    "duration": 0.14742000000000033
                },
                {
                    "name": "G2",
                    "midi": 43,
                    "time": 18.280080000000023,
                    "velocity": 0.5354330708661418,
                    "duration": 0.14742000000000033
                },
                {
                    "name": "C2",
                    "midi": 36,
                    "time": 18.574920000000024,
                    "velocity": 0.6456692913385826,
                    "duration": 0.14742000000000033
                },
                {
                    "name": "C3",
                    "midi": 48,
                    "time": 18.574920000000024,
                    "velocity": 0.7637795275590551,
                    "duration": 0.14742000000000033
                },
                {
                    "name": "G1",
                    "midi": 31,
                    "time": 18.869760000000024,
                    "velocity": 0.5196850393700787,
                    "duration": 0.5896800000000013
                },
                {
                    "name": "B1",
                    "midi": 35,
                    "time": 18.869760000000024,
                    "velocity": 0.5196850393700787,
                    "duration": 0.5896800000000013
                },
                {
                    "name": "D2",
                    "midi": 38,
                    "time": 18.869760000000024,
                    "velocity": 0.5196850393700787,
                    "duration": 0.5896800000000013
                },
                {
                    "name": "G2",
                    "midi": 43,
                    "time": 18.869760000000024,
                    "velocity": 0.6141732283464567,
                    "duration": 0.5896800000000013
                },
                {
                    "name": "D#2",
                    "midi": 39,
                    "time": 20.049120000000027,
                    "velocity": 0.2047244094488189,
                    "duration": 0.5896800000000013
                },
                {
                    "name": "D#3",
                    "midi": 51,
                    "time": 20.049120000000027,
                    "velocity": 0.2440944881889764,
                    "duration": 0.5896800000000013
                },
                {
                    "name": "G#2",
                    "midi": 44,
                    "time": 20.63880000000003,
                    "velocity": 0.1968503937007874,
                    "duration": 0.07370999999999839
                },
                {
                    "name": "G#3",
                    "midi": 56,
                    "time": 20.63880000000003,
                    "velocity": 0.23622047244094488,
                    "duration": 0.07370999999999839
                },
                {
                    "name": "G2",
                    "midi": 43,
                    "time": 20.933640000000025,
                    "velocity": 0.18110236220472442,
                    "duration": 0.07370999999999839
                },
                {
                    "name": "G3",
                    "midi": 55,
                    "time": 20.933640000000025,
                    "velocity": 0.2125984251968504,
                    "duration": 0.07370999999999839
                },
                {
                    "name": "A#2",
                    "midi": 46,
                    "time": 21.228480000000022,
                    "velocity": 0.2125984251968504,
                    "duration": 0.5896800000000013
                },
                {
                    "name": "F2",
                    "midi": 41,
                    "time": 21.228480000000022,
                    "velocity": 0.2125984251968504,
                    "duration": 0.5896800000000013
                },
                {
                    "name": "F3",
                    "midi": 53,
                    "time": 21.228480000000022,
                    "velocity": 0.25196850393700787,
                    "duration": 0.5896800000000013
                },
                {
                    "name": "D#2",
                    "midi": 39,
                    "time": 22.407840000000025,
                    "velocity": 0.2047244094488189,
                    "duration": 0.5896800000000013
                },
                {
                    "name": "D#3",
                    "midi": 51,
                    "time": 22.407840000000025,
                    "velocity": 0.2440944881889764,
                    "duration": 0.5896800000000013
                },
                {
                    "name": "G#1",
                    "midi": 32,
                    "time": 22.997520000000026,
                    "velocity": 0.1968503937007874,
                    "duration": 0.07370999999999839
                },
                {
                    "name": "G#2",
                    "midi": 44,
                    "time": 22.997520000000026,
                    "velocity": 0.23622047244094488,
                    "duration": 0.07370999999999839
                },
                {
                    "name": "A1",
                    "midi": 33,
                    "time": 23.292360000000023,
                    "velocity": 0.18110236220472442,
                    "duration": 0.07370999999999839
                },
                {
                    "name": "A2",
                    "midi": 45,
                    "time": 23.292360000000023,
                    "velocity": 0.2125984251968504,
                    "duration": 0.07370999999999839
                },
                {
                    "name": "A#1",
                    "midi": 34,
                    "time": 23.58720000000002,
                    "velocity": 0.1732283464566929,
                    "duration": 0.5896800000000013
                },
                {
                    "name": "A#2",
                    "midi": 46,
                    "time": 23.58720000000002,
                    "velocity": 0.2125984251968504,
                    "duration": 0.5896800000000013
                },
                {
                    "name": "D#2",
                    "midi": 39,
                    "time": 24.766560000000023,
                    "velocity": 0.2047244094488189,
                    "duration": 0.5896800000000013
                },
                {
                    "name": "D#3",
                    "midi": 51,
                    "time": 24.766560000000023,
                    "velocity": 0.2440944881889764,
                    "duration": 0.5896800000000013
                },
                {
                    "name": "G#2",
                    "midi": 44,
                    "time": 25.356240000000025,
                    "velocity": 0.1968503937007874,
                    "duration": 0.07370999999999839
                },
                {
                    "name": "G#3",
                    "midi": 56,
                    "time": 25.356240000000025,
                    "velocity": 0.23622047244094488,
                    "duration": 0.07370999999999839
                },
                {
                    "name": "G2",
                    "midi": 43,
                    "time": 25.65108000000002,
                    "velocity": 0.18110236220472442,
                    "duration": 0.07370999999999839
                },
                {
                    "name": "G3",
                    "midi": 55,
                    "time": 25.65108000000002,
                    "velocity": 0.2125984251968504,
                    "duration": 0.07370999999999839
                },
                {
                    "name": "G#2",
                    "midi": 44,
                    "time": 25.88142375000002,
                    "velocity": 0.2204724409448819,
                    "duration": 0.3593362500000019
                },
                {
                    "name": "C3",
                    "midi": 48,
                    "time": 25.89063750000002,
                    "velocity": 0.25196850393700787,
                    "duration": 0.3501225000000012
                },
                {
                    "name": "D#3",
                    "midi": 51,
                    "time": 25.899851250000022,
                    "velocity": 0.28346456692913385,
                    "duration": 0.34090875000000054
                },
                {
                    "name": "G#3",
                    "midi": 56,
                    "time": 25.909065000000023,
                    "velocity": 0.31496062992125984,
                    "duration": 0.33169499999999985
                },
                {
                    "name": "A#2",
                    "midi": 46,
                    "time": 27.12528000000002,
                    "velocity": 0.6299212598425197,
                    "duration": 2.358719999999984
                },
                {
                    "name": "A#1",
                    "midi": 34,
                    "time": 27.862380000000023,
                    "velocity": 0.3858267716535433,
                    "duration": 0.07370999999999839
                },
                {
                    "name": "C2",
                    "midi": 36,
                    "time": 28.00980000000002,
                    "velocity": 0.41732283464566927,
                    "duration": 0.07370999999999839
                },
                {
                    "name": "D2",
                    "midi": 38,
                    "time": 28.157220000000017,
                    "velocity": 0.3543307086614173,
                    "duration": 0.07370999999999839
                },
                {
                    "name": "D#2",
                    "midi": 39,
                    "time": 28.304640000000013,
                    "velocity": 0.41732283464566927,
                    "duration": 0.07370999999999839
                },
                {
                    "name": "F2",
                    "midi": 41,
                    "time": 28.45206000000001,
                    "velocity": 0.3858267716535433,
                    "duration": 0.07370999999999839
                },
                {
                    "name": "G2",
                    "midi": 43,
                    "time": 28.599480000000007,
                    "velocity": 0.4015748031496063,
                    "duration": 0.07370999999999839
                },
                {
                    "name": "F2",
                    "midi": 41,
                    "time": 28.894320000000004,
                    "velocity": 0.41732283464566927,
                    "duration": 0.29484000000000066
                },
                {
                    "name": "D#2",
                    "midi": 39,
                    "time": 29.189160000000005,
                    "velocity": 0.3937007874015748,
                    "duration": 0.29484000000000066
                },
                {
                    "name": "A#2",
                    "midi": 46,
                    "time": 29.484000000000005,
                    "velocity": 0.6299212598425197,
                    "duration": 2.358719999999984
                },
                {
                    "name": "A#1",
                    "midi": 34,
                    "time": 30.221100000000007,
                    "velocity": 0.3858267716535433,
                    "duration": 0.07370999999999839
                },
                {
                    "name": "C2",
                    "midi": 36,
                    "time": 30.368520000000004,
                    "velocity": 0.41732283464566927,
                    "duration": 0.07370999999999839
                },
                {
                    "name": "D2",
                    "midi": 38,
                    "time": 30.51594,
                    "velocity": 0.3543307086614173,
                    "duration": 0.07370999999999839
                },
                {
                    "name": "D#2",
                    "midi": 39,
                    "time": 30.663359999999997,
                    "velocity": 0.41732283464566927,
                    "duration": 0.07370999999999839
                },
                {
                    "name": "F2",
                    "midi": 41,
                    "time": 30.810779999999994,
                    "velocity": 0.3858267716535433,
                    "duration": 0.07370999999999839
                },
                {
                    "name": "G2",
                    "midi": 43,
                    "time": 30.95819999999999,
                    "velocity": 0.4015748031496063,
                    "duration": 0.07370999999999839
                },
                {
                    "name": "F2",
                    "midi": 41,
                    "time": 31.253039999999988,
                    "velocity": 0.41732283464566927,
                    "duration": 0.29484000000000066
                },
                {
                    "name": "D#2",
                    "midi": 39,
                    "time": 31.54787999999999,
                    "velocity": 0.3937007874015748,
                    "duration": 0.29484000000000066
                },
                {
                    "name": "G#2",
                    "midi": 44,
                    "time": 31.84271999999999,
                    "velocity": 0.3543307086614173,
                    "duration": 0.2948399999999971
                },
                {
                    "name": "C3",
                    "midi": 48,
                    "time": 31.84271999999999,
                    "velocity": 0.3543307086614173,
                    "duration": 0.2948399999999971
                },
                {
                    "name": "F3",
                    "midi": 53,
                    "time": 31.84271999999999,
                    "velocity": 0.41732283464566927,
                    "duration": 0.2948399999999971
                },
                {
                    "name": "A#2",
                    "midi": 46,
                    "time": 32.43239999999999,
                    "velocity": 0.33070866141732286,
                    "duration": 0.29484000000000066
                },
                {
                    "name": "F3",
                    "midi": 53,
                    "time": 32.43239999999999,
                    "velocity": 0.33070866141732286,
                    "duration": 0.29484000000000066
                },
                {
                    "name": "G#3",
                    "midi": 56,
                    "time": 32.43239999999999,
                    "velocity": 0.3937007874015748,
                    "duration": 0.29484000000000066
                },
                {
                    "name": "G3",
                    "midi": 55,
                    "time": 33.02207999999999,
                    "velocity": 0.4566929133858268,
                    "duration": 0.29484000000000066
                },
                {
                    "name": "D#3",
                    "midi": 51,
                    "time": 33.02207999999999,
                    "velocity": 0.3858267716535433,
                    "duration": 0.29484000000000066
                },
                {
                    "name": "D#3",
                    "midi": 51,
                    "time": 33.464339999999986,
                    "velocity": 0.4251968503937008,
                    "duration": 0.14741999999999678
                },
                {
                    "name": "D3",
                    "midi": 50,
                    "time": 33.61175999999998,
                    "velocity": 0.47244094488188976,
                    "duration": 0.14741999999999678
                },
                {
                    "name": "D#3",
                    "midi": 51,
                    "time": 33.75917999999998,
                    "velocity": 0.4330708661417323,
                    "duration": 0.14741999999999678
                },
                {
                    "name": "C3",
                    "midi": 48,
                    "time": 33.906599999999976,
                    "velocity": 0.4094488188976378,
                    "duration": 0.07370999999999839
                },
                {
                    "name": "G#3",
                    "midi": 56,
                    "time": 33.906599999999976,
                    "velocity": 0.4881889763779528,
                    "duration": 0.07370999999999839
                },
                {
                    "name": "C3",
                    "midi": 48,
                    "time": 34.05401999999997,
                    "velocity": 0.3779527559055118,
                    "duration": 0.07370999999999839
                },
                {
                    "name": "G#3",
                    "midi": 56,
                    "time": 34.05401999999997,
                    "velocity": 0.44881889763779526,
                    "duration": 0.07370999999999839
                },
                {
                    "name": "G3",
                    "midi": 55,
                    "time": 34.20143999999997,
                    "velocity": 0.5118110236220472,
                    "duration": 0.29484000000000066
                },
                {
                    "name": "A#2",
                    "midi": 46,
                    "time": 34.20143999999997,
                    "velocity": 0.4330708661417323,
                    "duration": 0.29484000000000066
                },
                {
                    "name": "D#3",
                    "midi": 51,
                    "time": 34.64369999999997,
                    "velocity": 0.48031496062992124,
                    "duration": 0.14741999999999678
                },
                {
                    "name": "D3",
                    "midi": 50,
                    "time": 34.791119999999964,
                    "velocity": 0.5354330708661418,
                    "duration": 0.14741999999999678
                },
                {
                    "name": "D#3",
                    "midi": 51,
                    "time": 34.93853999999996,
                    "velocity": 0.49606299212598426,
                    "duration": 0.14741999999999678
                },
                {
                    "name": "G#3",
                    "midi": 56,
                    "time": 35.08595999999996,
                    "velocity": 0.4566929133858268,
                    "duration": 0.07370999999999839
                },
                {
                    "name": "C4",
                    "midi": 60,
                    "time": 35.08595999999996,
                    "velocity": 0.5433070866141733,
                    "duration": 0.07370999999999839
                },
                {
                    "name": "G#3",
                    "midi": 56,
                    "time": 35.233379999999954,
                    "velocity": 0.4251968503937008,
                    "duration": 0.07370999999999839
                },
                {
                    "name": "C4",
                    "midi": 60,
                    "time": 35.233379999999954,
                    "velocity": 0.5039370078740157,
                    "duration": 0.07370999999999839
                },
                {
                    "name": "A#3",
                    "midi": 58,
                    "time": 35.38079999999995,
                    "velocity": 0.5590551181102362,
                    "duration": 0.14741999999999678
                },
                {
                    "name": "G3",
                    "midi": 55,
                    "time": 35.38079999999995,
                    "velocity": 0.5590551181102362,
                    "duration": 0.14741999999999678
                },
                {
                    "name": "D#3",
                    "midi": 51,
                    "time": 35.52821999999995,
                    "velocity": 0.4881889763779528,
                    "duration": 0.07370999999999839
                },
                {
                    "name": "D#4",
                    "midi": 63,
                    "time": 35.601929999999946,
                    "velocity": 0.4251968503937008,
                    "duration": 0.07370999999999839
                },
                {
                    "name": "D#3",
                    "midi": 51,
                    "time": 35.675639999999945,
                    "velocity": 0.49606299212598426,
                    "duration": 0.07370999999999839
                },
                {
                    "name": "D#4",
                    "midi": 63,
                    "time": 35.74934999999994,
                    "velocity": 0.4409448818897638,
                    "duration": 0.07370999999999839
                },
                {
                    "name": "D#3",
                    "midi": 51,
                    "time": 35.82305999999994,
                    "velocity": 0.49606299212598426,
                    "duration": 0.07370999999999839
                },
                {
                    "name": "D#4",
                    "midi": 63,
                    "time": 35.89676999999994,
                    "velocity": 0.44881889763779526,
                    "duration": 0.07370999999999839
                },
                {
                    "name": "D#3",
                    "midi": 51,
                    "time": 35.97047999999994,
                    "velocity": 0.49606299212598426,
                    "duration": 0.07370999999999839
                },
                {
                    "name": "D#4",
                    "midi": 63,
                    "time": 36.044189999999936,
                    "velocity": 0.4330708661417323,
                    "duration": 0.07370999999999839
                },
                {
                    "name": "D#3",
                    "midi": 51,
                    "time": 36.117899999999935,
                    "velocity": 0.5039370078740157,
                    "duration": 0.07370999999999839
                },
                {
                    "name": "D#4",
                    "midi": 63,
                    "time": 36.19160999999993,
                    "velocity": 0.4645669291338583,
                    "duration": 0.07370999999999839
                },
                {
                    "name": "D#3",
                    "midi": 51,
                    "time": 36.26531999999993,
                    "velocity": 0.5118110236220472,
                    "duration": 0.07370999999999839
                },
                {
                    "name": "D#4",
                    "midi": 63,
                    "time": 36.33902999999993,
                    "velocity": 0.4566929133858268,
                    "duration": 0.07370999999999839
                },
                {
                    "name": "D#3",
                    "midi": 51,
                    "time": 36.41273999999993,
                    "velocity": 0.5196850393700787,
                    "duration": 0.07370999999999839
                },
                {
                    "name": "D#4",
                    "midi": 63,
                    "time": 36.48644999999993,
                    "velocity": 0.48031496062992124,
                    "duration": 0.07370999999999839
                },
                {
                    "name": "D3",
                    "midi": 50,
                    "time": 36.560159999999925,
                    "velocity": 0.3858267716535433,
                    "duration": 1.1793600000000026
                },
                {
                    "name": "F3",
                    "midi": 53,
                    "time": 36.560159999999925,
                    "velocity": 0.3858267716535433,
                    "duration": 1.1793600000000026
                },
                {
                    "name": "G#3",
                    "midi": 56,
                    "time": 36.560159999999925,
                    "velocity": 0.3858267716535433,
                    "duration": 1.1793600000000026
                },
                {
                    "name": "A#3",
                    "midi": 58,
                    "time": 36.560159999999925,
                    "velocity": 0.3858267716535433,
                    "duration": 1.1793600000000026
                },
                {
                    "name": "D4",
                    "midi": 62,
                    "time": 36.576744749999925,
                    "velocity": 0.5196850393700787,
                    "duration": 1.1793600000000026
                },
                {
                    "name": "D#3",
                    "midi": 51,
                    "time": 37.73951999999993,
                    "velocity": 0.3858267716535433,
                    "duration": 0.29484000000000066
                },
                {
                    "name": "G3",
                    "midi": 55,
                    "time": 37.73951999999993,
                    "velocity": 0.3858267716535433,
                    "duration": 0.29484000000000066
                },
                {
                    "name": "A#3",
                    "midi": 58,
                    "time": 37.73951999999993,
                    "velocity": 0.3858267716535433,
                    "duration": 0.29484000000000066
                },
                {
                    "name": "D#4",
                    "midi": 63,
                    "time": 37.73951999999993,
                    "velocity": 0.5196850393700787,
                    "duration": 0.29484000000000066
                },
                {
                    "name": "G#1",
                    "midi": 32,
                    "time": 38.91887999999993,
                    "velocity": 0.5748031496062992,
                    "duration": 0.14741999999999678
                },
                {
                    "name": "G#2",
                    "midi": 44,
                    "time": 38.91887999999993,
                    "velocity": 0.5748031496062992,
                    "duration": 0.14741999999999678
                },
                {
                    "name": "G#1",
                    "midi": 32,
                    "time": 39.36113999999993,
                    "velocity": 0.49606299212598426,
                    "duration": 0.07370999999999839
                },
                {
                    "name": "G#2",
                    "midi": 44,
                    "time": 39.36113999999993,
                    "velocity": 0.49606299212598426,
                    "duration": 0.07370999999999839
                },
                {
                    "name": "A#1",
                    "midi": 34,
                    "time": 39.508559999999925,
                    "velocity": 0.5511811023622047,
                    "duration": 0.14741999999999678
                },
                {
                    "name": "A#2",
                    "midi": 46,
                    "time": 39.508559999999925,
                    "velocity": 0.5511811023622047,
                    "duration": 0.14741999999999678
                },
                {
                    "name": "A#1",
                    "midi": 34,
                    "time": 39.95081999999992,
                    "velocity": 0.49606299212598426,
                    "duration": 0.07370999999999839
                },
                {
                    "name": "A#2",
                    "midi": 46,
                    "time": 39.95081999999992,
                    "velocity": 0.49606299212598426,
                    "duration": 0.07370999999999839
                },
                {
                    "name": "G#4",
                    "midi": 68,
                    "time": 40.24565999999992,
                    "velocity": 0.49606299212598426,
                    "duration": 0.07370999999999839
                },
                {
                    "name": "A#4",
                    "midi": 70,
                    "time": 40.31936999999992,
                    "velocity": 0.5118110236220472,
                    "duration": 0.07370999999999839
                },
                {
                    "name": "C5",
                    "midi": 72,
                    "time": 40.39307999999992,
                    "velocity": 0.5433070866141733,
                    "duration": 0.07370999999999839
                },
                {
                    "name": "A#4",
                    "midi": 70,
                    "time": 40.46678999999992,
                    "velocity": 0.5275590551181102,
                    "duration": 0.07370999999999839
                },
                {
                    "name": "G#4",
                    "midi": 68,
                    "time": 40.540499999999916,
                    "velocity": 0.5118110236220472,
                    "duration": 0.07370999999999839
                },
                {
                    "name": "G4",
                    "midi": 67,
                    "time": 40.614209999999915,
                    "velocity": 0.5039370078740157,
                    "duration": 0.07370999999999839
                },
                {
                    "name": "F4",
                    "midi": 65,
                    "time": 40.68791999999991,
                    "velocity": 0.5275590551181102,
                    "duration": 0.09828000000000259
                },
                {
                    "name": "D#4",
                    "midi": 63,
                    "time": 40.786199999999916,
                    "velocity": 0.48031496062992124,
                    "duration": 0.09828000000000259
                },
                {
                    "name": "D4",
                    "midi": 62,
                    "time": 40.88447999999992,
                    "velocity": 0.48031496062992124,
                    "duration": 0.09828000000000259
                },
                {
                    "name": "C4",
                    "midi": 60,
                    "time": 40.98275999999992,
                    "velocity": 0.5275590551181102,
                    "duration": 0.09828000000000259
                },
                {
                    "name": "A#3",
                    "midi": 58,
                    "time": 41.08103999999992,
                    "velocity": 0.4881889763779528,
                    "duration": 0.09828000000000259
                },
                {
                    "name": "G#3",
                    "midi": 56,
                    "time": 41.179319999999926,
                    "velocity": 0.4881889763779528,
                    "duration": 0.09828000000000259
                },
                {
                    "name": "G3",
                    "midi": 55,
                    "time": 41.27759999999993,
                    "velocity": 0.5275590551181102,
                    "duration": 0.09828000000000259
                },
                {
                    "name": "G#3",
                    "midi": 56,
                    "time": 41.37587999999993,
                    "velocity": 0.49606299212598426,
                    "duration": 0.09828000000000259
                },
                {
                    "name": "A#3",
                    "midi": 58,
                    "time": 41.474159999999934,
                    "velocity": 0.49606299212598426,
                    "duration": 0.09828000000000259
                },
                {
                    "name": "G#3",
                    "midi": 56,
                    "time": 41.572439999999936,
                    "velocity": 0.5275590551181102,
                    "duration": 0.09828000000000259
                },
                {
                    "name": "G3",
                    "midi": 55,
                    "time": 41.67071999999994,
                    "velocity": 0.47244094488188976,
                    "duration": 0.09828000000000259
                },
                {
                    "name": "F3",
                    "midi": 53,
                    "time": 41.76899999999994,
                    "velocity": 0.47244094488188976,
                    "duration": 0.09828000000000259
                },
                {
                    "name": "D#3",
                    "midi": 51,
                    "time": 41.867279999999944,
                    "velocity": 0.5511811023622047,
                    "duration": 0.09828000000000259
                },
                {
                    "name": "D3",
                    "midi": 50,
                    "time": 41.96555999999995,
                    "velocity": 0.49606299212598426,
                    "duration": 0.09828000000000259
                },
                {
                    "name": "C3",
                    "midi": 48,
                    "time": 42.06383999999995,
                    "velocity": 0.5196850393700787,
                    "duration": 0.09828000000000259
                },
                {
                    "name": "A#2",
                    "midi": 46,
                    "time": 42.16211999999995,
                    "velocity": 0.5826771653543307,
                    "duration": 0.09828000000000259
                },
                {
                    "name": "G#2",
                    "midi": 44,
                    "time": 42.260399999999954,
                    "velocity": 0.5275590551181102,
                    "duration": 0.09828000000000259
                },
                {
                    "name": "G2",
                    "midi": 43,
                    "time": 42.35867999999996,
                    "velocity": 0.5275590551181102,
                    "duration": 0.09828000000000259
                },
                {
                    "name": "G#1",
                    "midi": 32,
                    "time": 42.45695999999996,
                    "velocity": 0.5748031496062992,
                    "duration": 0.14741999999999678
                },
                {
                    "name": "G#2",
                    "midi": 44,
                    "time": 42.45695999999996,
                    "velocity": 0.5748031496062992,
                    "duration": 0.14741999999999678
                },
                {
                    "name": "G#1",
                    "midi": 32,
                    "time": 42.89921999999996,
                    "velocity": 0.49606299212598426,
                    "duration": 0.07370999999999839
                },
                {
                    "name": "G#2",
                    "midi": 44,
                    "time": 42.89921999999996,
                    "velocity": 0.49606299212598426,
                    "duration": 0.07370999999999839
                },
                {
                    "name": "A#1",
                    "midi": 34,
                    "time": 43.046639999999954,
                    "velocity": 0.5511811023622047,
                    "duration": 0.14741999999999678
                },
                {
                    "name": "A#2",
                    "midi": 46,
                    "time": 43.046639999999954,
                    "velocity": 0.5511811023622047,
                    "duration": 0.14741999999999678
                },
                {
                    "name": "A#1",
                    "midi": 34,
                    "time": 43.48889999999995,
                    "velocity": 0.49606299212598426,
                    "duration": 0.07370999999999839
                },
                {
                    "name": "A#2",
                    "midi": 46,
                    "time": 43.48889999999995,
                    "velocity": 0.49606299212598426,
                    "duration": 0.07370999999999839
                },
                {
                    "name": "D#2",
                    "midi": 39,
                    "time": 43.63631999999995,
                    "velocity": 0.4645669291338583,
                    "duration": 0.29484000000000066
                },
                {
                    "name": "G2",
                    "midi": 43,
                    "time": 43.63631999999995,
                    "velocity": 0.4645669291338583,
                    "duration": 0.29484000000000066
                },
                {
                    "name": "A#2",
                    "midi": 46,
                    "time": 43.63631999999995,
                    "velocity": 0.4645669291338583,
                    "duration": 0.29484000000000066
                },
                {
                    "name": "D#3",
                    "midi": 51,
                    "time": 43.63631999999995,
                    "velocity": 0.5511811023622047,
                    "duration": 0.29484000000000066
                },
                {
                    "name": "E4",
                    "midi": 64,
                    "time": 43.93115999999995,
                    "velocity": 0.41732283464566927,
                    "duration": 0.07370999999999839
                },
                {
                    "name": "G4",
                    "midi": 67,
                    "time": 43.93115999999995,
                    "velocity": 0.49606299212598426,
                    "duration": 0.07370999999999839
                },
                {
                    "name": "E4",
                    "midi": 64,
                    "time": 44.078579999999945,
                    "velocity": 0.41732283464566927,
                    "duration": 0.07370999999999839
                },
                {
                    "name": "G4",
                    "midi": 67,
                    "time": 44.078579999999945,
                    "velocity": 0.49606299212598426,
                    "duration": 0.07370999999999839
                },
                {
                    "name": "F4",
                    "midi": 65,
                    "time": 44.22599999999994,
                    "velocity": 0.4645669291338583,
                    "duration": 0.14741999999999678
                },
                {
                    "name": "G#4",
                    "midi": 68,
                    "time": 44.22599999999994,
                    "velocity": 0.5511811023622047,
                    "duration": 0.14741999999999678
                },
                {
                    "name": "E4",
                    "midi": 64,
                    "time": 44.520839999999936,
                    "velocity": 0.41732283464566927,
                    "duration": 0.07370999999999839
                },
                {
                    "name": "G4",
                    "midi": 67,
                    "time": 44.520839999999936,
                    "velocity": 0.49606299212598426,
                    "duration": 0.07370999999999839
                },
                {
                    "name": "E4",
                    "midi": 64,
                    "time": 44.66825999999993,
                    "velocity": 0.41732283464566927,
                    "duration": 0.07370999999999839
                },
                {
                    "name": "G4",
                    "midi": 67,
                    "time": 44.66825999999993,
                    "velocity": 0.49606299212598426,
                    "duration": 0.07370999999999839
                },
                {
                    "name": "F4",
                    "midi": 65,
                    "time": 44.81567999999993,
                    "velocity": 0.4645669291338583,
                    "duration": 0.14741999999999678
                },
                {
                    "name": "G#4",
                    "midi": 68,
                    "time": 44.81567999999993,
                    "velocity": 0.5511811023622047,
                    "duration": 0.14741999999999678
                },
                {
                    "name": "A#1",
                    "midi": 34,
                    "time": 45.11051999999992,
                    "velocity": 0.49606299212598426,
                    "duration": 0.14741999999999678
                },
                {
                    "name": "A#2",
                    "midi": 46,
                    "time": 45.11051999999992,
                    "velocity": 0.5826771653543307,
                    "duration": 0.14741999999999678
                },
                {
                    "name": "B1",
                    "midi": 35,
                    "time": 45.70019999999992,
                    "velocity": 0.23622047244094488,
                    "duration": 0.07370999999999839
                },
                {
                    "name": "B2",
                    "midi": 47,
                    "time": 45.70019999999992,
                    "velocity": 0.28346456692913385,
                    "duration": 0.07370999999999839
                },
                {
                    "name": "C2",
                    "midi": 36,
                    "time": 45.99503999999992,
                    "velocity": 0.25196850393700787,
                    "duration": 0.07370999999999839
                },
                {
                    "name": "C3",
                    "midi": 48,
                    "time": 45.99503999999992,
                    "velocity": 0.2992125984251969,
                    "duration": 0.07370999999999839
                },
                {
                    "name": "A1",
                    "midi": 33,
                    "time": 46.28987999999992,
                    "velocity": 0.23622047244094488,
                    "duration": 0.07370999999999839
                },
                {
                    "name": "A2",
                    "midi": 45,
                    "time": 46.28987999999992,
                    "velocity": 0.28346456692913385,
                    "duration": 0.07370999999999839
                },
                {
                    "name": "A#1",
                    "midi": 34,
                    "time": 46.58471999999992,
                    "velocity": 0.25196850393700787,
                    "duration": 0.07370999999999839
                },
                {
                    "name": "A#2",
                    "midi": 46,
                    "time": 46.58471999999992,
                    "velocity": 0.2992125984251969,
                    "duration": 0.07370999999999839
                },
                {
                    "name": "A#1",
                    "midi": 34,
                    "time": 46.87955999999992,
                    "velocity": 0.2125984251968504,
                    "duration": 0.07370999999999839
                },
                {
                    "name": "A#2",
                    "midi": 46,
                    "time": 46.87955999999992,
                    "velocity": 0.25984251968503935,
                    "duration": 0.07370999999999839
                },
                {
                    "name": "D#2",
                    "midi": 39,
                    "time": 47.17439999999992,
                    "velocity": 0.25196850393700787,
                    "duration": 0.07370999999999839
                },
                {
                    "name": "D#3",
                    "midi": 51,
                    "time": 47.17439999999992,
                    "velocity": 0.2992125984251969,
                    "duration": 0.07370999999999839
                },
                {
                    "name": "E4",
                    "midi": 64,
                    "time": 47.46923999999992,
                    "velocity": 0.41732283464566927,
                    "duration": 0.07370999999999839
                },
                {
                    "name": "G4",
                    "midi": 67,
                    "time": 47.46923999999992,
                    "velocity": 0.49606299212598426,
                    "duration": 0.07370999999999839
                },
                {
                    "name": "E4",
                    "midi": 64,
                    "time": 47.61665999999992,
                    "velocity": 0.41732283464566927,
                    "duration": 0.07370999999999839
                },
                {
                    "name": "G4",
                    "midi": 67,
                    "time": 47.61665999999992,
                    "velocity": 0.49606299212598426,
                    "duration": 0.07370999999999839
                },
                {
                    "name": "F4",
                    "midi": 65,
                    "time": 47.764079999999915,
                    "velocity": 0.4645669291338583,
                    "duration": 0.14741999999999678
                },
                {
                    "name": "G#4",
                    "midi": 68,
                    "time": 47.764079999999915,
                    "velocity": 0.5511811023622047,
                    "duration": 0.14741999999999678
                },
                {
                    "name": "E4",
                    "midi": 64,
                    "time": 48.05891999999991,
                    "velocity": 0.41732283464566927,
                    "duration": 0.07370999999999839
                },
                {
                    "name": "G4",
                    "midi": 67,
                    "time": 48.05891999999991,
                    "velocity": 0.49606299212598426,
                    "duration": 0.07370999999999839
                },
                {
                    "name": "E4",
                    "midi": 64,
                    "time": 48.206339999999905,
                    "velocity": 0.41732283464566927,
                    "duration": 0.07370999999999839
                },
                {
                    "name": "G4",
                    "midi": 67,
                    "time": 48.206339999999905,
                    "velocity": 0.49606299212598426,
                    "duration": 0.07370999999999839
                },
                {
                    "name": "F4",
                    "midi": 65,
                    "time": 48.3537599999999,
                    "velocity": 0.4645669291338583,
                    "duration": 0.14741999999999678
                },
                {
                    "name": "G#4",
                    "midi": 68,
                    "time": 48.3537599999999,
                    "velocity": 0.5511811023622047,
                    "duration": 0.14741999999999678
                },
                {
                    "name": "A#1",
                    "midi": 34,
                    "time": 48.648599999999895,
                    "velocity": 0.49606299212598426,
                    "duration": 0.14741999999999678
                },
                {
                    "name": "A#2",
                    "midi": 46,
                    "time": 48.648599999999895,
                    "velocity": 0.5826771653543307,
                    "duration": 0.14741999999999678
                },
                {
                    "name": "B1",
                    "midi": 35,
                    "time": 49.23827999999989,
                    "velocity": 0.4330708661417323,
                    "duration": 0.5896800000000013
                },
                {
                    "name": "D#2",
                    "midi": 39,
                    "time": 49.23827999999989,
                    "velocity": 0.4330708661417323,
                    "duration": 0.5896800000000013
                },
                {
                    "name": "F#2",
                    "midi": 42,
                    "time": 49.23827999999989,
                    "velocity": 0.4330708661417323,
                    "duration": 0.5896800000000013
                },
                {
                    "name": "B2",
                    "midi": 47,
                    "time": 49.23827999999989,
                    "velocity": 0.5118110236220472,
                    "duration": 0.5896800000000013
                },
                {
                    "name": "A1",
                    "midi": 33,
                    "time": 49.82795999999989,
                    "velocity": 0.23622047244094488,
                    "duration": 0.07370999999999839
                },
                {
                    "name": "A2",
                    "midi": 45,
                    "time": 49.82795999999989,
                    "velocity": 0.28346456692913385,
                    "duration": 0.07370999999999839
                },
                {
                    "name": "A#1",
                    "midi": 34,
                    "time": 50.12279999999989,
                    "velocity": 0.25196850393700787,
                    "duration": 0.07370999999999839
                },
                {
                    "name": "A#2",
                    "midi": 46,
                    "time": 50.12279999999989,
                    "velocity": 0.2992125984251969,
                    "duration": 0.07370999999999839
                },
                {
                    "name": "A#1",
                    "midi": 34,
                    "time": 50.41763999999989,
                    "velocity": 0.2125984251968504,
                    "duration": 0.07370999999999839
                },
                {
                    "name": "A#2",
                    "midi": 46,
                    "time": 50.41763999999989,
                    "velocity": 0.25984251968503935,
                    "duration": 0.07370999999999839
                },
                {
                    "name": "D#2",
                    "midi": 39,
                    "time": 50.71247999999989,
                    "velocity": 0.25196850393700787,
                    "duration": 0.14741999999999678
                },
                {
                    "name": "D#3",
                    "midi": 51,
                    "time": 50.85989999999989,
                    "velocity": 0.2125984251968504,
                    "duration": 0.14741999999999678
                },
                {
                    "name": "D#2",
                    "midi": 39,
                    "time": 51.30215999999989,
                    "velocity": 0.25196850393700787,
                    "duration": 0.14741999999999678
                },
                {
                    "name": "D#3",
                    "midi": 51,
                    "time": 51.449579999999884,
                    "velocity": 0.2204724409448819,
                    "duration": 0.14741999999999678
                },
                {
                    "name": "D#2",
                    "midi": 39,
                    "time": 51.89183999999988,
                    "velocity": 0.25196850393700787,
                    "duration": 0.14741999999999678
                },
                {
                    "name": "D#3",
                    "midi": 51,
                    "time": 52.03925999999988,
                    "velocity": 0.2204724409448819,
                    "duration": 0.14741999999999678
                },
                {
                    "name": "D#2",
                    "midi": 39,
                    "time": 52.481519999999875,
                    "velocity": 0.25196850393700787,
                    "duration": 0.14741999999999678
                },
                {
                    "name": "D#3",
                    "midi": 51,
                    "time": 52.62893999999987,
                    "velocity": 0.2125984251968504,
                    "duration": 0.14741999999999678
                },
                {
                    "name": "D#2",
                    "midi": 39,
                    "time": 53.07119999999987,
                    "velocity": 0.25196850393700787,
                    "duration": 0.29484000000000066
                },
                {
                    "name": "C3",
                    "midi": 48,
                    "time": 54.69281999999987,
                    "velocity": 0.28346456692913385,
                    "duration": 0.14741999999999678
                },
                {
                    "name": "B2",
                    "midi": 47,
                    "time": 54.840239999999866,
                    "velocity": 0.2992125984251969,
                    "duration": 0.14741999999999678
                },
                {
                    "name": "C3",
                    "midi": 48,
                    "time": 54.98765999999986,
                    "velocity": 0.2755905511811024,
                    "duration": 0.14741999999999678
                },
                {
                    "name": "F3",
                    "midi": 53,
                    "time": 55.13507999999986,
                    "velocity": 0.2992125984251969,
                    "duration": 0.07370999999999839
                },
                {
                    "name": "F3",
                    "midi": 53,
                    "time": 55.28249999999986,
                    "velocity": 0.2677165354330709,
                    "duration": 0.07370999999999839
                },
                {
                    "name": "D#3",
                    "midi": 51,
                    "time": 55.42991999999985,
                    "velocity": 0.2992125984251969,
                    "duration": 0.29484000000000066
                },
                {
                    "name": "C3",
                    "midi": 48,
                    "time": 55.87217999999985,
                    "velocity": 0.28346456692913385,
                    "duration": 0.14741999999999678
                },
                {
                    "name": "B2",
                    "midi": 47,
                    "time": 56.01959999999985,
                    "velocity": 0.2992125984251969,
                    "duration": 0.14741999999999678
                },
                {
                    "name": "C3",
                    "midi": 48,
                    "time": 56.167019999999845,
                    "velocity": 0.2755905511811024,
                    "duration": 0.14741999999999678
                },
                {
                    "name": "G#3",
                    "midi": 56,
                    "time": 56.31443999999984,
                    "velocity": 0.2992125984251969,
                    "duration": 0.07370999999999839
                },
                {
                    "name": "G#3",
                    "midi": 56,
                    "time": 56.46185999999984,
                    "velocity": 0.2677165354330709,
                    "duration": 0.07370999999999839
                },
                {
                    "name": "G3",
                    "midi": 55,
                    "time": 56.609279999999835,
                    "velocity": 0.2992125984251969,
                    "duration": 0.29484000000000066
                },
                {
                    "name": "G#3",
                    "midi": 56,
                    "time": 57.78863999999984,
                    "velocity": 0.2992125984251969,
                    "duration": 1.1793600000000026
                },
                {
                    "name": "C4",
                    "midi": 60,
                    "time": 57.78863999999984,
                    "velocity": 0.2992125984251969,
                    "duration": 1.1793600000000026
                },
                {
                    "name": "F#4",
                    "midi": 66,
                    "time": 57.78863999999984,
                    "velocity": 0.2992125984251969,
                    "duration": 1.1793600000000026
                },
                {
                    "name": "G4",
                    "midi": 67,
                    "time": 58.96799999999984,
                    "velocity": 0.2992125984251969,
                    "duration": 0.29484000000000066
                },
                {
                    "name": "D4",
                    "midi": 62,
                    "time": 58.96799999999984,
                    "velocity": 0.25196850393700787,
                    "duration": 0.29484000000000066
                },
                {
                    "name": "G3",
                    "midi": 55,
                    "time": 58.96799999999984,
                    "velocity": 0.25196850393700787,
                    "duration": 0.29484000000000066
                },
                {
                    "name": "G2",
                    "midi": 43,
                    "time": 59.41025999999984,
                    "velocity": 0.28346456692913385,
                    "duration": 0.14741999999999678
                },
                {
                    "name": "F#2",
                    "midi": 42,
                    "time": 59.557679999999834,
                    "velocity": 0.2992125984251969,
                    "duration": 0.14741999999999678
                },
                {
                    "name": "G2",
                    "midi": 43,
                    "time": 59.70509999999983,
                    "velocity": 0.2755905511811024,
                    "duration": 0.14741999999999678
                },
                {
                    "name": "C3",
                    "midi": 48,
                    "time": 59.85251999999983,
                    "velocity": 0.2992125984251969,
                    "duration": 0.07370999999999839
                },
                {
                    "name": "C3",
                    "midi": 48,
                    "time": 59.999939999999825,
                    "velocity": 0.2677165354330709,
                    "duration": 0.07370999999999839
                },
                {
                    "name": "B2",
                    "midi": 47,
                    "time": 60.14735999999982,
                    "velocity": 0.2992125984251969,
                    "duration": 0.29484000000000066
                },
                {
                    "name": "G2",
                    "midi": 43,
                    "time": 60.58961999999982,
                    "velocity": 0.28346456692913385,
                    "duration": 0.14741999999999678
                },
                {
                    "name": "F#2",
                    "midi": 42,
                    "time": 60.737039999999816,
                    "velocity": 0.2992125984251969,
                    "duration": 0.14741999999999678
                },
                {
                    "name": "G2",
                    "midi": 43,
                    "time": 60.88445999999981,
                    "velocity": 0.2755905511811024,
                    "duration": 0.14741999999999678
                },
                {
                    "name": "D#3",
                    "midi": 51,
                    "time": 61.03187999999981,
                    "velocity": 0.2992125984251969,
                    "duration": 0.07370999999999839
                },
                {
                    "name": "D#3",
                    "midi": 51,
                    "time": 61.179299999999806,
                    "velocity": 0.2677165354330709,
                    "duration": 0.07370999999999839
                },
                {
                    "name": "D3",
                    "midi": 50,
                    "time": 61.3267199999998,
                    "velocity": 0.2992125984251969,
                    "duration": 0.29484000000000066
                },
                {
                    "name": "G2",
                    "midi": 43,
                    "time": 61.7689799999998,
                    "velocity": 0.29133858267716534,
                    "duration": 0.07370999999999839
                },
                {
                    "name": "B2",
                    "midi": 47,
                    "time": 61.9163999999998,
                    "velocity": 0.33858267716535434,
                    "duration": 0.07370999999999839
                },
                {
                    "name": "D3",
                    "midi": 50,
                    "time": 62.063819999999794,
                    "velocity": 0.29133858267716534,
                    "duration": 0.07370999999999839
                },
                {
                    "name": "F3",
                    "midi": 53,
                    "time": 62.21123999999979,
                    "velocity": 0.29133858267716534,
                    "duration": 0.07370999999999839
                },
                {
                    "name": "G#3",
                    "midi": 56,
                    "time": 62.35865999999979,
                    "velocity": 0.29133858267716534,
                    "duration": 0.07370999999999839
                },
                {
                    "name": "B3",
                    "midi": 59,
                    "time": 62.506079999999784,
                    "velocity": 0.36220472440944884,
                    "duration": 0.07370999999999839
                },
                {
                    "name": "D4",
                    "midi": 62,
                    "time": 62.65349999999978,
                    "velocity": 0.3543307086614173,
                    "duration": 0.07370999999999839
                },
                {
                    "name": "F4",
                    "midi": 65,
                    "time": 62.80091999999978,
                    "velocity": 0.3700787401574803,
                    "duration": 0.07370999999999839
                },
                {
                    "name": "G#4",
                    "midi": 68,
                    "time": 62.948339999999774,
                    "velocity": 0.3937007874015748,
                    "duration": 0.07370999999999839
                },
                {
                    "name": "G4",
                    "midi": 67,
                    "time": 63.09575999999977,
                    "velocity": 0.41732283464566927,
                    "duration": 0.07370999999999839
                },
                {
                    "name": "F4",
                    "midi": 65,
                    "time": 63.24317999999977,
                    "velocity": 0.3937007874015748,
                    "duration": 0.07370999999999839
                },
                {
                    "name": "D#4",
                    "midi": 63,
                    "time": 63.390599999999765,
                    "velocity": 0.36220472440944884,
                    "duration": 0.07370999999999839
                },
                {
                    "name": "D4",
                    "midi": 62,
                    "time": 63.53801999999976,
                    "velocity": 0.3543307086614173,
                    "duration": 0.07370999999999839
                },
                {
                    "name": "C4",
                    "midi": 60,
                    "time": 63.68543999999976,
                    "velocity": 0.33070866141732286,
                    "duration": 0.07370999999999839
                },
                {
                    "name": "D#4",
                    "midi": 63,
                    "time": 63.832859999999755,
                    "velocity": 0.25196850393700787,
                    "duration": 0.07370999999999839
                },
                {
                    "name": "G4",
                    "midi": 67,
                    "time": 63.832859999999755,
                    "velocity": 0.2992125984251969,
                    "duration": 0.07370999999999839
                },
                {
                    "name": "D#4",
                    "midi": 63,
                    "time": 63.98027999999975,
                    "velocity": 0.25196850393700787,
                    "duration": 0.0737100000000055
                },
                {
                    "name": "G4",
                    "midi": 67,
                    "time": 63.98027999999975,
                    "velocity": 0.2992125984251969,
                    "duration": 0.0737100000000055
                },
                {
                    "name": "D#4",
                    "midi": 63,
                    "time": 64.12769999999976,
                    "velocity": 0.25196850393700787,
                    "duration": 0.0737100000000055
                },
                {
                    "name": "G4",
                    "midi": 67,
                    "time": 64.12769999999976,
                    "velocity": 0.2992125984251969,
                    "duration": 0.0737100000000055
                },
                {
                    "name": "C4",
                    "midi": 60,
                    "time": 64.27511999999977,
                    "velocity": 0.33070866141732286,
                    "duration": 0.0737100000000055
                },
                {
                    "name": "E4",
                    "midi": 64,
                    "time": 64.42253999999978,
                    "velocity": 0.2440944881889764,
                    "duration": 0.0737100000000055
                },
                {
                    "name": "G4",
                    "midi": 67,
                    "time": 64.42253999999978,
                    "velocity": 0.2440944881889764,
                    "duration": 0.0737100000000055
                },
                {
                    "name": "A#4",
                    "midi": 70,
                    "time": 64.42253999999978,
                    "velocity": 0.29133858267716534,
                    "duration": 0.0737100000000055
                },
                {
                    "name": "E4",
                    "midi": 64,
                    "time": 64.5699599999998,
                    "velocity": 0.2440944881889764,
                    "duration": 0.0737100000000055
                },
                {
                    "name": "G4",
                    "midi": 67,
                    "time": 64.5699599999998,
                    "velocity": 0.2440944881889764,
                    "duration": 0.0737100000000055
                },
                {
                    "name": "A#4",
                    "midi": 70,
                    "time": 64.5699599999998,
                    "velocity": 0.29133858267716534,
                    "duration": 0.0737100000000055
                },
                {
                    "name": "E4",
                    "midi": 64,
                    "time": 64.7173799999998,
                    "velocity": 0.2440944881889764,
                    "duration": 0.0737100000000055
                },
                {
                    "name": "G4",
                    "midi": 67,
                    "time": 64.7173799999998,
                    "velocity": 0.2440944881889764,
                    "duration": 0.0737100000000055
                },
                {
                    "name": "A#4",
                    "midi": 70,
                    "time": 64.7173799999998,
                    "velocity": 0.29133858267716534,
                    "duration": 0.0737100000000055
                },
                {
                    "name": "C4",
                    "midi": 60,
                    "time": 64.86479999999982,
                    "velocity": 0.33070866141732286,
                    "duration": 0.0737100000000055
                },
                {
                    "name": "F4",
                    "midi": 65,
                    "time": 65.01221999999983,
                    "velocity": 0.25196850393700787,
                    "duration": 0.0737100000000055
                },
                {
                    "name": "G#4",
                    "midi": 68,
                    "time": 65.01221999999983,
                    "velocity": 0.2992125984251969,
                    "duration": 0.0737100000000055
                },
                {
                    "name": "F4",
                    "midi": 65,
                    "time": 65.15963999999984,
                    "velocity": 0.25196850393700787,
                    "duration": 0.0737100000000055
                },
                {
                    "name": "G#4",
                    "midi": 68,
                    "time": 65.15963999999984,
                    "velocity": 0.2992125984251969,
                    "duration": 0.0737100000000055
                },
                {
                    "name": "F4",
                    "midi": 65,
                    "time": 65.30705999999985,
                    "velocity": 0.25196850393700787,
                    "duration": 0.0737100000000055
                },
                {
                    "name": "G#4",
                    "midi": 68,
                    "time": 65.30705999999985,
                    "velocity": 0.2992125984251969,
                    "duration": 0.0737100000000055
                },
                {
                    "name": "C4",
                    "midi": 60,
                    "time": 65.45447999999986,
                    "velocity": 0.33070866141732286,
                    "duration": 0.0737100000000055
                },
                {
                    "name": "F4",
                    "midi": 65,
                    "time": 65.60189999999987,
                    "velocity": 0.2440944881889764,
                    "duration": 0.0737100000000055
                },
                {
                    "name": "G#4",
                    "midi": 68,
                    "time": 65.60189999999987,
                    "velocity": 0.2440944881889764,
                    "duration": 0.0737100000000055
                },
                {
                    "name": "B4",
                    "midi": 71,
                    "time": 65.60189999999987,
                    "velocity": 0.29133858267716534,
                    "duration": 0.0737100000000055
                },
                {
                    "name": "F4",
                    "midi": 65,
                    "time": 65.74931999999988,
                    "velocity": 0.2440944881889764,
                    "duration": 0.0737100000000055
                },
                {
                    "name": "G#4",
                    "midi": 68,
                    "time": 65.74931999999988,
                    "velocity": 0.2440944881889764,
                    "duration": 0.0737100000000055
                },
                {
                    "name": "B4",
                    "midi": 71,
                    "time": 65.74931999999988,
                    "velocity": 0.29133858267716534,
                    "duration": 0.0737100000000055
                },
                {
                    "name": "F4",
                    "midi": 65,
                    "time": 65.8967399999999,
                    "velocity": 0.2440944881889764,
                    "duration": 0.0737100000000055
                },
                {
                    "name": "G#4",
                    "midi": 68,
                    "time": 65.8967399999999,
                    "velocity": 0.2440944881889764,
                    "duration": 0.0737100000000055
                },
                {
                    "name": "B4",
                    "midi": 71,
                    "time": 65.8967399999999,
                    "velocity": 0.29133858267716534,
                    "duration": 0.0737100000000055
                },
                {
                    "name": "C4",
                    "midi": 60,
                    "time": 66.0441599999999,
                    "velocity": 0.33070866141732286,
                    "duration": 0.0737100000000055
                },
                {
                    "name": "D#4",
                    "midi": 63,
                    "time": 66.19157999999992,
                    "velocity": 0.25196850393700787,
                    "duration": 0.0737100000000055
                },
                {
                    "name": "G4",
                    "midi": 67,
                    "time": 66.19157999999992,
                    "velocity": 0.2992125984251969,
                    "duration": 0.0737100000000055
                },
                {
                    "name": "D#4",
                    "midi": 63,
                    "time": 66.33899999999993,
                    "velocity": 0.25196850393700787,
                    "duration": 0.0737100000000055
                },
                {
                    "name": "G4",
                    "midi": 67,
                    "time": 66.33899999999993,
                    "velocity": 0.2992125984251969,
                    "duration": 0.0737100000000055
                },
                {
                    "name": "D#4",
                    "midi": 63,
                    "time": 66.48641999999994,
                    "velocity": 0.25196850393700787,
                    "duration": 0.0737100000000055
                },
                {
                    "name": "G4",
                    "midi": 67,
                    "time": 66.48641999999994,
                    "velocity": 0.2992125984251969,
                    "duration": 0.0737100000000055
                },
                {
                    "name": "C4",
                    "midi": 60,
                    "time": 66.63383999999995,
                    "velocity": 0.33070866141732286,
                    "duration": 0.0737100000000055
                },
                {
                    "name": "E4",
                    "midi": 64,
                    "time": 66.78125999999996,
                    "velocity": 0.2440944881889764,
                    "duration": 0.0737100000000055
                },
                {
                    "name": "G4",
                    "midi": 67,
                    "time": 66.78125999999996,
                    "velocity": 0.2440944881889764,
                    "duration": 0.0737100000000055
                },
                {
                    "name": "A#4",
                    "midi": 70,
                    "time": 66.78125999999996,
                    "velocity": 0.29133858267716534,
                    "duration": 0.0737100000000055
                },
                {
                    "name": "E4",
                    "midi": 64,
                    "time": 66.92867999999997,
                    "velocity": 0.2440944881889764,
                    "duration": 0.0737100000000055
                },
                {
                    "name": "G4",
                    "midi": 67,
                    "time": 66.92867999999997,
                    "velocity": 0.2440944881889764,
                    "duration": 0.0737100000000055
                },
                {
                    "name": "A#4",
                    "midi": 70,
                    "time": 66.92867999999997,
                    "velocity": 0.29133858267716534,
                    "duration": 0.0737100000000055
                },
                {
                    "name": "E4",
                    "midi": 64,
                    "time": 67.07609999999998,
                    "velocity": 0.2440944881889764,
                    "duration": 0.0737100000000055
                },
                {
                    "name": "G4",
                    "midi": 67,
                    "time": 67.07609999999998,
                    "velocity": 0.2440944881889764,
                    "duration": 0.0737100000000055
                },
                {
                    "name": "A#4",
                    "midi": 70,
                    "time": 67.07609999999998,
                    "velocity": 0.29133858267716534,
                    "duration": 0.0737100000000055
                },
                {
                    "name": "C4",
                    "midi": 60,
                    "time": 67.22352,
                    "velocity": 0.33070866141732286,
                    "duration": 0.0737100000000055
                },
                {
                    "name": "F4",
                    "midi": 65,
                    "time": 67.37094,
                    "velocity": 0.25196850393700787,
                    "duration": 0.0737100000000055
                },
                {
                    "name": "G#4",
                    "midi": 68,
                    "time": 67.37094,
                    "velocity": 0.2992125984251969,
                    "duration": 0.0737100000000055
                },
                {
                    "name": "F4",
                    "midi": 65,
                    "time": 67.51836000000002,
                    "velocity": 0.25196850393700787,
                    "duration": 0.0737100000000055
                },
                {
                    "name": "G#4",
                    "midi": 68,
                    "time": 67.51836000000002,
                    "velocity": 0.2992125984251969,
                    "duration": 0.0737100000000055
                },
                {
                    "name": "F4",
                    "midi": 65,
                    "time": 67.66578000000003,
                    "velocity": 0.25196850393700787,
                    "duration": 0.0737100000000055
                },
                {
                    "name": "G#4",
                    "midi": 68,
                    "time": 67.66578000000003,
                    "velocity": 0.2992125984251969,
                    "duration": 0.0737100000000055
                },
                {
                    "name": "C4",
                    "midi": 60,
                    "time": 67.81320000000004,
                    "velocity": 0.33070866141732286,
                    "duration": 0.0737100000000055
                },
                {
                    "name": "F4",
                    "midi": 65,
                    "time": 67.96062000000005,
                    "velocity": 0.2440944881889764,
                    "duration": 0.0737100000000055
                },
                {
                    "name": "G#4",
                    "midi": 68,
                    "time": 67.96062000000005,
                    "velocity": 0.2440944881889764,
                    "duration": 0.0737100000000055
                },
                {
                    "name": "B4",
                    "midi": 71,
                    "time": 67.96062000000005,
                    "velocity": 0.29133858267716534,
                    "duration": 0.0737100000000055
                },
                {
                    "name": "F4",
                    "midi": 65,
                    "time": 68.10804000000006,
                    "velocity": 0.2440944881889764,
                    "duration": 0.0737100000000055
                },
                {
                    "name": "G#4",
                    "midi": 68,
                    "time": 68.10804000000006,
                    "velocity": 0.2440944881889764,
                    "duration": 0.0737100000000055
                },
                {
                    "name": "B4",
                    "midi": 71,
                    "time": 68.10804000000006,
                    "velocity": 0.29133858267716534,
                    "duration": 0.0737100000000055
                },
                {
                    "name": "F4",
                    "midi": 65,
                    "time": 68.25546000000007,
                    "velocity": 0.2440944881889764,
                    "duration": 0.0737100000000055
                },
                {
                    "name": "G#4",
                    "midi": 68,
                    "time": 68.25546000000007,
                    "velocity": 0.2440944881889764,
                    "duration": 0.0737100000000055
                },
                {
                    "name": "B4",
                    "midi": 71,
                    "time": 68.25546000000007,
                    "velocity": 0.29133858267716534,
                    "duration": 0.0737100000000055
                },
                {
                    "name": "C4",
                    "midi": 60,
                    "time": 68.40288000000008,
                    "velocity": 0.28346456692913385,
                    "duration": 0.29484000000000776
                },
                {
                    "name": "D#4",
                    "midi": 63,
                    "time": 68.40288000000008,
                    "velocity": 0.28346456692913385,
                    "duration": 0.29484000000000776
                },
                {
                    "name": "G4",
                    "midi": 67,
                    "time": 68.40288000000008,
                    "velocity": 0.28346456692913385,
                    "duration": 0.29484000000000776
                },
                {
                    "name": "C5",
                    "midi": 72,
                    "time": 68.40717975000008,
                    "velocity": 0.3464566929133858,
                    "duration": 0.29484000000000776
                },
                {
                    "name": "F#4",
                    "midi": 66,
                    "time": 68.84514000000009,
                    "velocity": 0.33070866141732286,
                    "duration": 0.14741999999999678
                },
                {
                    "name": "G4",
                    "midi": 67,
                    "time": 68.99256000000008,
                    "velocity": 0.4094488188976378,
                    "duration": 0.29483999999999355
                },
                {
                    "name": "B3",
                    "midi": 59,
                    "time": 69.43482000000007,
                    "velocity": 0.3779527559055118,
                    "duration": 0.14741999999999678
                },
                {
                    "name": "C4",
                    "midi": 60,
                    "time": 69.58224000000007,
                    "velocity": 0.44881889763779526,
                    "duration": 0.29483999999999355
                },
                {
                    "name": "F#3",
                    "midi": 54,
                    "time": 70.02450000000006,
                    "velocity": 0.4251968503937008,
                    "duration": 0.14741999999999678
                },
                {
                    "name": "G3",
                    "midi": 55,
                    "time": 70.17192000000006,
                    "velocity": 0.49606299212598426,
                    "duration": 0.29483999999999355
                },
                {
                    "name": "B2",
                    "midi": 47,
                    "time": 70.61418000000005,
                    "velocity": 0.44881889763779526,
                    "duration": 0.14741999999999678
                },
                {
                    "name": "C3",
                    "midi": 48,
                    "time": 70.76160000000004,
                    "velocity": 0.5196850393700787,
                    "duration": 0.29483999999999355
                },
                {
                    "name": "F#2",
                    "midi": 42,
                    "time": 71.20386000000003,
                    "velocity": 0.4566929133858268,
                    "duration": 0.14741999999999678
                },
                {
                    "name": "G2",
                    "midi": 43,
                    "time": 71.35128000000003,
                    "velocity": 0.5275590551181102,
                    "duration": 0.29483999999999355
                },
                {
                    "name": "C2",
                    "midi": 36,
                    "time": 71.64612000000002,
                    "velocity": 0.6456692913385826,
                    "duration": 0.14741999999999678
                },
                {
                    "name": "C3",
                    "midi": 48,
                    "time": 71.64612000000002,
                    "velocity": 0.7559055118110236,
                    "duration": 0.14741999999999678
                },
                {
                    "name": "G1",
                    "midi": 31,
                    "time": 71.94096000000002,
                    "velocity": 0.4330708661417323,
                    "duration": 0.14741999999999678
                },
                {
                    "name": "G2",
                    "midi": 43,
                    "time": 71.94096000000002,
                    "velocity": 0.5196850393700787,
                    "duration": 0.14741999999999678
                },
                {
                    "name": "C2",
                    "midi": 36,
                    "time": 72.23580000000001,
                    "velocity": 0.6456692913385826,
                    "duration": 0.14741999999999678
                },
                {
                    "name": "C3",
                    "midi": 48,
                    "time": 72.23580000000001,
                    "velocity": 0.7637795275590551,
                    "duration": 0.14741999999999678
                },
                {
                    "name": "G1",
                    "midi": 31,
                    "time": 72.53064,
                    "velocity": 0.44881889763779526,
                    "duration": 0.14741999999999678
                },
                {
                    "name": "G2",
                    "midi": 43,
                    "time": 72.53064,
                    "velocity": 0.5354330708661418,
                    "duration": 0.14741999999999678
                },
                {
                    "name": "C2",
                    "midi": 36,
                    "time": 72.82548,
                    "velocity": 0.6456692913385826,
                    "duration": 0.14741999999999678
                },
                {
                    "name": "C3",
                    "midi": 48,
                    "time": 72.82548,
                    "velocity": 0.7637795275590551,
                    "duration": 0.14741999999999678
                },
                {
                    "name": "G1",
                    "midi": 31,
                    "time": 73.12031999999999,
                    "velocity": 0.5196850393700787,
                    "duration": 0.5896800000000013
                },
                {
                    "name": "B1",
                    "midi": 35,
                    "time": 73.12031999999999,
                    "velocity": 0.5196850393700787,
                    "duration": 0.5896800000000013
                },
                {
                    "name": "D2",
                    "midi": 38,
                    "time": 73.12031999999999,
                    "velocity": 0.5196850393700787,
                    "duration": 0.5896800000000013
                },
                {
                    "name": "G2",
                    "midi": 43,
                    "time": 73.12031999999999,
                    "velocity": 0.6141732283464567,
                    "duration": 0.5896800000000013
                },
                {
                    "name": "D#2",
                    "midi": 39,
                    "time": 74.29968,
                    "velocity": 0.2047244094488189,
                    "duration": 0.5896800000000013
                },
                {
                    "name": "D#3",
                    "midi": 51,
                    "time": 74.29968,
                    "velocity": 0.2440944881889764,
                    "duration": 0.5896800000000013
                },
                {
                    "name": "G#2",
                    "midi": 44,
                    "time": 74.88936,
                    "velocity": 0.1968503937007874,
                    "duration": 0.0737100000000055
                },
                {
                    "name": "G#3",
                    "midi": 56,
                    "time": 74.88936,
                    "velocity": 0.23622047244094488,
                    "duration": 0.0737100000000055
                },
                {
                    "name": "G2",
                    "midi": 43,
                    "time": 75.1842,
                    "velocity": 0.18110236220472442,
                    "duration": 0.0737100000000055
                },
                {
                    "name": "G3",
                    "midi": 55,
                    "time": 75.1842,
                    "velocity": 0.2125984251968504,
                    "duration": 0.0737100000000055
                },
                {
                    "name": "A#2",
                    "midi": 46,
                    "time": 75.47904000000001,
                    "velocity": 0.2125984251968504,
                    "duration": 0.5896800000000013
                },
                {
                    "name": "F2",
                    "midi": 41,
                    "time": 75.47904000000001,
                    "velocity": 0.2125984251968504,
                    "duration": 0.5896800000000013
                },
                {
                    "name": "F3",
                    "midi": 53,
                    "time": 75.47904000000001,
                    "velocity": 0.25196850393700787,
                    "duration": 0.5896800000000013
                },
                {
                    "name": "D#2",
                    "midi": 39,
                    "time": 76.65840000000001,
                    "velocity": 0.2047244094488189,
                    "duration": 0.5896800000000013
                },
                {
                    "name": "D#3",
                    "midi": 51,
                    "time": 76.65840000000001,
                    "velocity": 0.2440944881889764,
                    "duration": 0.5896800000000013
                },
                {
                    "name": "G#1",
                    "midi": 32,
                    "time": 77.24808000000002,
                    "velocity": 0.1968503937007874,
                    "duration": 0.0737100000000055
                },
                {
                    "name": "G#2",
                    "midi": 44,
                    "time": 77.24808000000002,
                    "velocity": 0.23622047244094488,
                    "duration": 0.0737100000000055
                },
                {
                    "name": "A1",
                    "midi": 33,
                    "time": 77.54292000000002,
                    "velocity": 0.18110236220472442,
                    "duration": 0.0737100000000055
                },
                {
                    "name": "A2",
                    "midi": 45,
                    "time": 77.54292000000002,
                    "velocity": 0.2125984251968504,
                    "duration": 0.0737100000000055
                },
                {
                    "name": "A#1",
                    "midi": 34,
                    "time": 77.83776000000003,
                    "velocity": 0.1732283464566929,
                    "duration": 0.5896800000000013
                },
                {
                    "name": "A#2",
                    "midi": 46,
                    "time": 77.83776000000003,
                    "velocity": 0.2125984251968504,
                    "duration": 0.5896800000000013
                },
                {
                    "name": "D#2",
                    "midi": 39,
                    "time": 79.01712000000003,
                    "velocity": 0.2047244094488189,
                    "duration": 0.5896800000000013
                },
                {
                    "name": "D#3",
                    "midi": 51,
                    "time": 79.01712000000003,
                    "velocity": 0.2440944881889764,
                    "duration": 0.5896800000000013
                },
                {
                    "name": "G#2",
                    "midi": 44,
                    "time": 79.60680000000004,
                    "velocity": 0.1968503937007874,
                    "duration": 0.0737100000000055
                },
                {
                    "name": "G#3",
                    "midi": 56,
                    "time": 79.60680000000004,
                    "velocity": 0.23622047244094488,
                    "duration": 0.0737100000000055
                },
                {
                    "name": "G2",
                    "midi": 43,
                    "time": 79.90164000000004,
                    "velocity": 0.18110236220472442,
                    "duration": 0.0737100000000055
                },
                {
                    "name": "G3",
                    "midi": 55,
                    "time": 79.90164000000004,
                    "velocity": 0.2125984251968504,
                    "duration": 0.0737100000000055
                },
                {
                    "name": "G#2",
                    "midi": 44,
                    "time": 80.13198375000005,
                    "velocity": 0.2204724409448819,
                    "duration": 0.35933624999999836
                },
                {
                    "name": "C3",
                    "midi": 48,
                    "time": 80.14119750000005,
                    "velocity": 0.25196850393700787,
                    "duration": 0.35012249999999767
                },
                {
                    "name": "D#3",
                    "midi": 51,
                    "time": 80.15041125000005,
                    "velocity": 0.28346456692913385,
                    "duration": 0.340908749999997
                },
                {
                    "name": "G#3",
                    "midi": 56,
                    "time": 80.15962500000005,
                    "velocity": 0.31496062992125984,
                    "duration": 0.3316949999999963
                },
                {
                    "name": "A#2",
                    "midi": 46,
                    "time": 81.37584000000004,
                    "velocity": 0.6299212598425197,
                    "duration": 2.358720000000048
                },
                {
                    "name": "A#1",
                    "midi": 34,
                    "time": 82.11294000000004,
                    "velocity": 0.3858267716535433,
                    "duration": 0.0737100000000055
                },
                {
                    "name": "C2",
                    "midi": 36,
                    "time": 82.26036000000005,
                    "velocity": 0.41732283464566927,
                    "duration": 0.0737100000000055
                },
                {
                    "name": "D2",
                    "midi": 38,
                    "time": 82.40778000000006,
                    "velocity": 0.3543307086614173,
                    "duration": 0.0737100000000055
                },
                {
                    "name": "D#2",
                    "midi": 39,
                    "time": 82.55520000000007,
                    "velocity": 0.41732283464566927,
                    "duration": 0.0737100000000055
                },
                {
                    "name": "F2",
                    "midi": 41,
                    "time": 82.70262000000008,
                    "velocity": 0.3858267716535433,
                    "duration": 0.0737100000000055
                },
                {
                    "name": "G2",
                    "midi": 43,
                    "time": 82.85004000000009,
                    "velocity": 0.4015748031496063,
                    "duration": 0.0737100000000055
                },
                {
                    "name": "F2",
                    "midi": 41,
                    "time": 83.1448800000001,
                    "velocity": 0.41732283464566927,
                    "duration": 0.29483999999999355
                },
                {
                    "name": "D#2",
                    "midi": 39,
                    "time": 83.4397200000001,
                    "velocity": 0.3937007874015748,
                    "duration": 0.29483999999999355
                },
                {
                    "name": "A#2",
                    "midi": 46,
                    "time": 83.73456000000009,
                    "velocity": 0.6299212598425197,
                    "duration": 2.358720000000048
                },
                {
                    "name": "A#1",
                    "midi": 34,
                    "time": 84.47166000000009,
                    "velocity": 0.3858267716535433,
                    "duration": 0.0737100000000055
                },
                {
                    "name": "C2",
                    "midi": 36,
                    "time": 84.6190800000001,
                    "velocity": 0.41732283464566927,
                    "duration": 0.0737100000000055
                },
                {
                    "name": "D2",
                    "midi": 38,
                    "time": 84.76650000000011,
                    "velocity": 0.3543307086614173,
                    "duration": 0.0737100000000055
                },
                {
                    "name": "D#2",
                    "midi": 39,
                    "time": 84.91392000000012,
                    "velocity": 0.41732283464566927,
                    "duration": 0.0737100000000055
                },
                {
                    "name": "F2",
                    "midi": 41,
                    "time": 85.06134000000013,
                    "velocity": 0.3858267716535433,
                    "duration": 0.0737100000000055
                },
                {
                    "name": "G2",
                    "midi": 43,
                    "time": 85.20876000000014,
                    "velocity": 0.4015748031496063,
                    "duration": 0.0737100000000055
                },
                {
                    "name": "F2",
                    "midi": 41,
                    "time": 85.50360000000015,
                    "velocity": 0.41732283464566927,
                    "duration": 0.29483999999999355
                },
                {
                    "name": "D#2",
                    "midi": 39,
                    "time": 85.79844000000014,
                    "velocity": 0.3937007874015748,
                    "duration": 0.29483999999999355
                },
                {
                    "name": "G#2",
                    "midi": 44,
                    "time": 86.09328000000014,
                    "velocity": 0.3543307086614173,
                    "duration": 0.29483999999999355
                },
                {
                    "name": "C3",
                    "midi": 48,
                    "time": 86.09328000000014,
                    "velocity": 0.3543307086614173,
                    "duration": 0.29483999999999355
                },
                {
                    "name": "F3",
                    "midi": 53,
                    "time": 86.09328000000014,
                    "velocity": 0.41732283464566927,
                    "duration": 0.29483999999999355
                },
                {
                    "name": "F3",
                    "midi": 53,
                    "time": 86.68296000000012,
                    "velocity": 0.33070866141732286,
                    "duration": 0.29483999999999355
                },
                {
                    "name": "A#2",
                    "midi": 46,
                    "time": 86.68296000000012,
                    "velocity": 0.33070866141732286,
                    "duration": 0.29483999999999355
                },
                {
                    "name": "G#3",
                    "midi": 56,
                    "time": 86.68296000000012,
                    "velocity": 0.3937007874015748,
                    "duration": 0.29483999999999355
                },
                {
                    "name": "D#3",
                    "midi": 51,
                    "time": 87.27264000000011,
                    "velocity": 0.3858267716535433,
                    "duration": 0.29483999999999355
                },
                {
                    "name": "G3",
                    "midi": 55,
                    "time": 87.27264000000011,
                    "velocity": 0.4566929133858268,
                    "duration": 0.29483999999999355
                },
                {
                    "name": "D#3",
                    "midi": 51,
                    "time": 87.7149000000001,
                    "velocity": 0.4251968503937008,
                    "duration": 0.14741999999999678
                },
                {
                    "name": "D3",
                    "midi": 50,
                    "time": 87.8623200000001,
                    "velocity": 0.47244094488188976,
                    "duration": 0.14741999999999678
                },
                {
                    "name": "D#3",
                    "midi": 51,
                    "time": 88.0097400000001,
                    "velocity": 0.4330708661417323,
                    "duration": 0.14741999999999678
                },
                {
                    "name": "C3",
                    "midi": 48,
                    "time": 88.15716000000009,
                    "velocity": 0.4094488188976378,
                    "duration": 0.0737100000000055
                },
                {
                    "name": "G#3",
                    "midi": 56,
                    "time": 88.15716000000009,
                    "velocity": 0.4881889763779528,
                    "duration": 0.0737100000000055
                },
                {
                    "name": "G#3",
                    "midi": 56,
                    "time": 88.3045800000001,
                    "velocity": 0.44881889763779526,
                    "duration": 0.0737100000000055
                },
                {
                    "name": "C3",
                    "midi": 48,
                    "time": 88.3045800000001,
                    "velocity": 0.3779527559055118,
                    "duration": 0.0737100000000055
                },
                {
                    "name": "G3",
                    "midi": 55,
                    "time": 88.45200000000011,
                    "velocity": 0.5118110236220472,
                    "duration": 0.29483999999999355
                },
                {
                    "name": "A#2",
                    "midi": 46,
                    "time": 88.45200000000011,
                    "velocity": 0.4330708661417323,
                    "duration": 0.29483999999999355
                },
                {
                    "name": "D#3",
                    "midi": 51,
                    "time": 88.8942600000001,
                    "velocity": 0.48031496062992124,
                    "duration": 0.14741999999999678
                },
                {
                    "name": "D3",
                    "midi": 50,
                    "time": 89.0416800000001,
                    "velocity": 0.5354330708661418,
                    "duration": 0.14741999999999678
                },
                {
                    "name": "D#3",
                    "midi": 51,
                    "time": 89.1891000000001,
                    "velocity": 0.49606299212598426,
                    "duration": 0.14741999999999678
                },
                {
                    "name": "G#3",
                    "midi": 56,
                    "time": 89.33652000000009,
                    "velocity": 0.4566929133858268,
                    "duration": 0.0737100000000055
                },
                {
                    "name": "C4",
                    "midi": 60,
                    "time": 89.33652000000009,
                    "velocity": 0.5433070866141733,
                    "duration": 0.0737100000000055
                },
                {
                    "name": "G#3",
                    "midi": 56,
                    "time": 89.4839400000001,
                    "velocity": 0.4251968503937008,
                    "duration": 0.0737100000000055
                },
                {
                    "name": "C4",
                    "midi": 60,
                    "time": 89.4839400000001,
                    "velocity": 0.5039370078740157,
                    "duration": 0.0737100000000055
                },
                {
                    "name": "G3",
                    "midi": 55,
                    "time": 89.63136000000011,
                    "velocity": 0.5590551181102362,
                    "duration": 0.14741999999999678
                },
                {
                    "name": "A#3",
                    "midi": 58,
                    "time": 89.63136000000011,
                    "velocity": 0.5590551181102362,
                    "duration": 0.14741999999999678
                },
                {
                    "name": "D#3",
                    "midi": 51,
                    "time": 89.77878000000011,
                    "velocity": 0.4881889763779528,
                    "duration": 0.0737100000000055
                },
                {
                    "name": "D#4",
                    "midi": 63,
                    "time": 89.85249000000012,
                    "velocity": 0.4251968503937008,
                    "duration": 0.0737100000000055
                },
                {
                    "name": "D#3",
                    "midi": 51,
                    "time": 89.92620000000012,
                    "velocity": 0.49606299212598426,
                    "duration": 0.0737100000000055
                },
                {
                    "name": "D#4",
                    "midi": 63,
                    "time": 89.99991000000013,
                    "velocity": 0.4409448818897638,
                    "duration": 0.0737100000000055
                },
                {
                    "name": "D#3",
                    "midi": 51,
                    "time": 90.07362000000013,
                    "velocity": 0.49606299212598426,
                    "duration": 0.0737100000000055
                },
                {
                    "name": "D#4",
                    "midi": 63,
                    "time": 90.14733000000014,
                    "velocity": 0.44881889763779526,
                    "duration": 0.0737100000000055
                },
                {
                    "name": "D#3",
                    "midi": 51,
                    "time": 90.22104000000014,
                    "velocity": 0.49606299212598426,
                    "duration": 0.0737100000000055
                },
                {
                    "name": "D#4",
                    "midi": 63,
                    "time": 90.29475000000015,
                    "velocity": 0.4330708661417323,
                    "duration": 0.0737100000000055
                },
                {
                    "name": "D#3",
                    "midi": 51,
                    "time": 90.36846000000016,
                    "velocity": 0.5039370078740157,
                    "duration": 0.0737100000000055
                },
                {
                    "name": "D#4",
                    "midi": 63,
                    "time": 90.44217000000016,
                    "velocity": 0.4645669291338583,
                    "duration": 0.0737100000000055
                },
                {
                    "name": "D#3",
                    "midi": 51,
                    "time": 90.51588000000017,
                    "velocity": 0.5118110236220472,
                    "duration": 0.0737100000000055
                },
                {
                    "name": "D#4",
                    "midi": 63,
                    "time": 90.58959000000017,
                    "velocity": 0.4566929133858268,
                    "duration": 0.0737100000000055
                },
                {
                    "name": "D#3",
                    "midi": 51,
                    "time": 90.66330000000018,
                    "velocity": 0.5196850393700787,
                    "duration": 0.0737100000000055
                },
                {
                    "name": "D#4",
                    "midi": 63,
                    "time": 90.73701000000018,
                    "velocity": 0.48031496062992124,
                    "duration": 0.0737100000000055
                },
                {
                    "name": "F3",
                    "midi": 53,
                    "time": 90.81072000000019,
                    "velocity": 0.3858267716535433,
                    "duration": 1.1793600000000026
                },
                {
                    "name": "D3",
                    "midi": 50,
                    "time": 90.81072000000019,
                    "velocity": 0.3858267716535433,
                    "duration": 1.1793600000000026
                },
                {
                    "name": "G#3",
                    "midi": 56,
                    "time": 90.81072000000019,
                    "velocity": 0.3858267716535433,
                    "duration": 1.1793600000000026
                },
                {
                    "name": "A#3",
                    "midi": 58,
                    "time": 90.81072000000019,
                    "velocity": 0.3858267716535433,
                    "duration": 1.1793600000000026
                },
                {
                    "name": "D4",
                    "midi": 62,
                    "time": 90.8273047500002,
                    "velocity": 0.5196850393700787,
                    "duration": 1.1793600000000026
                },
                {
                    "name": "G3",
                    "midi": 55,
                    "time": 91.99008000000019,
                    "velocity": 0.3858267716535433,
                    "duration": 0.29484000000000776
                },
                {
                    "name": "D#3",
                    "midi": 51,
                    "time": 91.99008000000019,
                    "velocity": 0.3858267716535433,
                    "duration": 0.29484000000000776
                },
                {
                    "name": "D#4",
                    "midi": 63,
                    "time": 91.99008000000019,
                    "velocity": 0.5196850393700787,
                    "duration": 0.29484000000000776
                },
                {
                    "name": "A#3",
                    "midi": 58,
                    "time": 91.99008000000019,
                    "velocity": 0.3858267716535433,
                    "duration": 0.29484000000000776
                },
                {
                    "name": "G#2",
                    "midi": 44,
                    "time": 93.1694400000002,
                    "velocity": 0.5748031496062992,
                    "duration": 0.14741999999999678
                },
                {
                    "name": "G#1",
                    "midi": 32,
                    "time": 93.1694400000002,
                    "velocity": 0.5748031496062992,
                    "duration": 0.14741999999999678
                },
                {
                    "name": "G#2",
                    "midi": 44,
                    "time": 93.61170000000018,
                    "velocity": 0.49606299212598426,
                    "duration": 0.0737100000000055
                },
                {
                    "name": "G#1",
                    "midi": 32,
                    "time": 93.61170000000018,
                    "velocity": 0.49606299212598426,
                    "duration": 0.0737100000000055
                },
                {
                    "name": "A#1",
                    "midi": 34,
                    "time": 93.7591200000002,
                    "velocity": 0.5511811023622047,
                    "duration": 0.14741999999999678
                },
                {
                    "name": "A#2",
                    "midi": 46,
                    "time": 93.7591200000002,
                    "velocity": 0.5511811023622047,
                    "duration": 0.14741999999999678
                },
                {
                    "name": "A#2",
                    "midi": 46,
                    "time": 94.20138000000019,
                    "velocity": 0.49606299212598426,
                    "duration": 0.0737100000000055
                },
                {
                    "name": "A#1",
                    "midi": 34,
                    "time": 94.20138000000019,
                    "velocity": 0.49606299212598426,
                    "duration": 0.0737100000000055
                },
                {
                    "name": "G#4",
                    "midi": 68,
                    "time": 94.49622000000019,
                    "velocity": 0.49606299212598426,
                    "duration": 0.0737100000000055
                },
                {
                    "name": "A#4",
                    "midi": 70,
                    "time": 94.5699300000002,
                    "velocity": 0.5118110236220472,
                    "duration": 0.0737100000000055
                },
                {
                    "name": "C5",
                    "midi": 72,
                    "time": 94.6436400000002,
                    "velocity": 0.5433070866141733,
                    "duration": 0.0737100000000055
                },
                {
                    "name": "A#4",
                    "midi": 70,
                    "time": 94.71735000000021,
                    "velocity": 0.5275590551181102,
                    "duration": 0.0737100000000055
                },
                {
                    "name": "G#4",
                    "midi": 68,
                    "time": 94.79106000000021,
                    "velocity": 0.5118110236220472,
                    "duration": 0.0737100000000055
                },
                {
                    "name": "G4",
                    "midi": 67,
                    "time": 94.86477000000022,
                    "velocity": 0.5039370078740157,
                    "duration": 0.0737100000000055
                },
                {
                    "name": "F4",
                    "midi": 65,
                    "time": 94.93848000000023,
                    "velocity": 0.5275590551181102,
                    "duration": 0.09828000000000259
                },
                {
                    "name": "D#4",
                    "midi": 63,
                    "time": 95.03676000000023,
                    "velocity": 0.48031496062992124,
                    "duration": 0.09828000000000259
                },
                {
                    "name": "D4",
                    "midi": 62,
                    "time": 95.13504000000023,
                    "velocity": 0.48031496062992124,
                    "duration": 0.09828000000000259
                },
                {
                    "name": "C4",
                    "midi": 60,
                    "time": 95.23332000000023,
                    "velocity": 0.5275590551181102,
                    "duration": 0.09828000000000259
                },
                {
                    "name": "A#3",
                    "midi": 58,
                    "time": 95.33160000000024,
                    "velocity": 0.4881889763779528,
                    "duration": 0.09828000000000259
                },
                {
                    "name": "G#3",
                    "midi": 56,
                    "time": 95.42988000000024,
                    "velocity": 0.4881889763779528,
                    "duration": 0.09828000000000259
                },
                {
                    "name": "G3",
                    "midi": 55,
                    "time": 95.52816000000024,
                    "velocity": 0.5275590551181102,
                    "duration": 0.09828000000000259
                },
                {
                    "name": "G#3",
                    "midi": 56,
                    "time": 95.62644000000024,
                    "velocity": 0.49606299212598426,
                    "duration": 0.09828000000000259
                },
                {
                    "name": "A#3",
                    "midi": 58,
                    "time": 95.72472000000025,
                    "velocity": 0.49606299212598426,
                    "duration": 0.09828000000000259
                },
                {
                    "name": "G#3",
                    "midi": 56,
                    "time": 95.82300000000025,
                    "velocity": 0.5275590551181102,
                    "duration": 0.09828000000000259
                },
                {
                    "name": "G3",
                    "midi": 55,
                    "time": 95.92128000000025,
                    "velocity": 0.47244094488188976,
                    "duration": 0.09828000000000259
                },
                {
                    "name": "F3",
                    "midi": 53,
                    "time": 96.01956000000025,
                    "velocity": 0.47244094488188976,
                    "duration": 0.09828000000000259
                },
                {
                    "name": "D#3",
                    "midi": 51,
                    "time": 96.11784000000026,
                    "velocity": 0.5511811023622047,
                    "duration": 0.09828000000000259
                },
                {
                    "name": "D3",
                    "midi": 50,
                    "time": 96.21612000000026,
                    "velocity": 0.49606299212598426,
                    "duration": 0.09828000000000259
                },
                {
                    "name": "C3",
                    "midi": 48,
                    "time": 96.31440000000026,
                    "velocity": 0.5196850393700787,
                    "duration": 0.09828000000000259
                },
                {
                    "name": "A#2",
                    "midi": 46,
                    "time": 96.41268000000026,
                    "velocity": 0.5826771653543307,
                    "duration": 0.09828000000000259
                },
                {
                    "name": "G#2",
                    "midi": 44,
                    "time": 96.51096000000027,
                    "velocity": 0.5275590551181102,
                    "duration": 0.09828000000000259
                },
                {
                    "name": "G2",
                    "midi": 43,
                    "time": 96.60924000000027,
                    "velocity": 0.5275590551181102,
                    "duration": 0.09828000000000259
                },
                {
                    "name": "G#2",
                    "midi": 44,
                    "time": 96.70752000000027,
                    "velocity": 0.5748031496062992,
                    "duration": 0.14741999999999678
                },
                {
                    "name": "G#1",
                    "midi": 32,
                    "time": 96.70752000000027,
                    "velocity": 0.5748031496062992,
                    "duration": 0.14741999999999678
                },
                {
                    "name": "G#1",
                    "midi": 32,
                    "time": 97.14978000000026,
                    "velocity": 0.49606299212598426,
                    "duration": 0.0737100000000055
                },
                {
                    "name": "G#2",
                    "midi": 44,
                    "time": 97.14978000000026,
                    "velocity": 0.49606299212598426,
                    "duration": 0.0737100000000055
                },
                {
                    "name": "A#1",
                    "midi": 34,
                    "time": 97.29720000000027,
                    "velocity": 0.5511811023622047,
                    "duration": 0.14741999999999678
                },
                {
                    "name": "A#2",
                    "midi": 46,
                    "time": 97.29720000000027,
                    "velocity": 0.5511811023622047,
                    "duration": 0.14741999999999678
                },
                {
                    "name": "A#2",
                    "midi": 46,
                    "time": 97.73946000000026,
                    "velocity": 0.49606299212598426,
                    "duration": 0.0737100000000055
                },
                {
                    "name": "A#1",
                    "midi": 34,
                    "time": 97.73946000000026,
                    "velocity": 0.49606299212598426,
                    "duration": 0.0737100000000055
                },
                {
                    "name": "D#3",
                    "midi": 51,
                    "time": 97.88688000000028,
                    "velocity": 0.5511811023622047,
                    "duration": 0.29483999999999355
                },
                {
                    "name": "D#2",
                    "midi": 39,
                    "time": 97.88688000000028,
                    "velocity": 0.4645669291338583,
                    "duration": 0.29483999999999355
                },
                {
                    "name": "G2",
                    "midi": 43,
                    "time": 97.88688000000028,
                    "velocity": 0.4645669291338583,
                    "duration": 0.29483999999999355
                },
                {
                    "name": "A#2",
                    "midi": 46,
                    "time": 97.88688000000028,
                    "velocity": 0.4645669291338583,
                    "duration": 0.29483999999999355
                },
                {
                    "name": "G4",
                    "midi": 67,
                    "time": 98.18172000000027,
                    "velocity": 0.49606299212598426,
                    "duration": 0.0737100000000055
                },
                {
                    "name": "E4",
                    "midi": 64,
                    "time": 98.18172000000027,
                    "velocity": 0.41732283464566927,
                    "duration": 0.0737100000000055
                },
                {
                    "name": "E4",
                    "midi": 64,
                    "time": 98.32914000000028,
                    "velocity": 0.41732283464566927,
                    "duration": 0.0737100000000055
                },
                {
                    "name": "G4",
                    "midi": 67,
                    "time": 98.32914000000028,
                    "velocity": 0.49606299212598426,
                    "duration": 0.0737100000000055
                },
                {
                    "name": "G#4",
                    "midi": 68,
                    "time": 98.47656000000029,
                    "velocity": 0.5511811023622047,
                    "duration": 0.14741999999999678
                },
                {
                    "name": "F4",
                    "midi": 65,
                    "time": 98.47656000000029,
                    "velocity": 0.4645669291338583,
                    "duration": 0.14741999999999678
                },
                {
                    "name": "E4",
                    "midi": 64,
                    "time": 98.77140000000028,
                    "velocity": 0.41732283464566927,
                    "duration": 0.0737100000000055
                },
                {
                    "name": "G4",
                    "midi": 67,
                    "time": 98.77140000000028,
                    "velocity": 0.49606299212598426,
                    "duration": 0.0737100000000055
                },
                {
                    "name": "E4",
                    "midi": 64,
                    "time": 98.9188200000003,
                    "velocity": 0.41732283464566927,
                    "duration": 0.0737100000000055
                },
                {
                    "name": "G4",
                    "midi": 67,
                    "time": 98.9188200000003,
                    "velocity": 0.49606299212598426,
                    "duration": 0.0737100000000055
                },
                {
                    "name": "G#4",
                    "midi": 68,
                    "time": 99.0662400000003,
                    "velocity": 0.5511811023622047,
                    "duration": 0.14741999999999678
                },
                {
                    "name": "F4",
                    "midi": 65,
                    "time": 99.0662400000003,
                    "velocity": 0.4645669291338583,
                    "duration": 0.14741999999999678
                },
                {
                    "name": "A#1",
                    "midi": 34,
                    "time": 99.3610800000003,
                    "velocity": 0.49606299212598426,
                    "duration": 0.14741999999999678
                },
                {
                    "name": "A#2",
                    "midi": 46,
                    "time": 99.3610800000003,
                    "velocity": 0.5826771653543307,
                    "duration": 0.14741999999999678
                },
                {
                    "name": "B2",
                    "midi": 47,
                    "time": 99.9507600000003,
                    "velocity": 0.28346456692913385,
                    "duration": 0.0737100000000055
                },
                {
                    "name": "B1",
                    "midi": 35,
                    "time": 99.9507600000003,
                    "velocity": 0.23622047244094488,
                    "duration": 0.0737100000000055
                },
                {
                    "name": "C2",
                    "midi": 36,
                    "time": 100.24560000000031,
                    "velocity": 0.25196850393700787,
                    "duration": 0.0737100000000055
                },
                {
                    "name": "C3",
                    "midi": 48,
                    "time": 100.24560000000031,
                    "velocity": 0.2992125984251969,
                    "duration": 0.0737100000000055
                },
                {
                    "name": "A2",
                    "midi": 45,
                    "time": 100.54044000000032,
                    "velocity": 0.28346456692913385,
                    "duration": 0.0737100000000055
                },
                {
                    "name": "A1",
                    "midi": 33,
                    "time": 100.54044000000032,
                    "velocity": 0.23622047244094488,
                    "duration": 0.0737100000000055
                },
                {
                    "name": "A#2",
                    "midi": 46,
                    "time": 100.83528000000032,
                    "velocity": 0.2992125984251969,
                    "duration": 0.0737100000000055
                },
                {
                    "name": "A#1",
                    "midi": 34,
                    "time": 100.83528000000032,
                    "velocity": 0.25196850393700787,
                    "duration": 0.0737100000000055
                },
                {
                    "name": "A#1",
                    "midi": 34,
                    "time": 101.13012000000033,
                    "velocity": 0.2125984251968504,
                    "duration": 0.0737100000000055
                },
                {
                    "name": "A#2",
                    "midi": 46,
                    "time": 101.13012000000033,
                    "velocity": 0.25984251968503935,
                    "duration": 0.0737100000000055
                },
                {
                    "name": "D#2",
                    "midi": 39,
                    "time": 101.42496000000034,
                    "velocity": 0.25196850393700787,
                    "duration": 0.0737100000000055
                },
                {
                    "name": "D#3",
                    "midi": 51,
                    "time": 101.42496000000034,
                    "velocity": 0.2992125984251969,
                    "duration": 0.0737100000000055
                },
                {
                    "name": "G4",
                    "midi": 67,
                    "time": 101.71980000000035,
                    "velocity": 0.49606299212598426,
                    "duration": 0.0737100000000055
                },
                {
                    "name": "E4",
                    "midi": 64,
                    "time": 101.71980000000035,
                    "velocity": 0.41732283464566927,
                    "duration": 0.0737100000000055
                },
                {
                    "name": "E4",
                    "midi": 64,
                    "time": 101.86722000000036,
                    "velocity": 0.41732283464566927,
                    "duration": 0.0737100000000055
                },
                {
                    "name": "G4",
                    "midi": 67,
                    "time": 101.86722000000036,
                    "velocity": 0.49606299212598426,
                    "duration": 0.0737100000000055
                },
                {
                    "name": "G#4",
                    "midi": 68,
                    "time": 102.01464000000037,
                    "velocity": 0.5511811023622047,
                    "duration": 0.14741999999999678
                },
                {
                    "name": "F4",
                    "midi": 65,
                    "time": 102.01464000000037,
                    "velocity": 0.4645669291338583,
                    "duration": 0.14741999999999678
                },
                {
                    "name": "E4",
                    "midi": 64,
                    "time": 102.30948000000036,
                    "velocity": 0.41732283464566927,
                    "duration": 0.0737100000000055
                },
                {
                    "name": "G4",
                    "midi": 67,
                    "time": 102.30948000000036,
                    "velocity": 0.49606299212598426,
                    "duration": 0.0737100000000055
                },
                {
                    "name": "E4",
                    "midi": 64,
                    "time": 102.45690000000037,
                    "velocity": 0.41732283464566927,
                    "duration": 0.0737100000000055
                },
                {
                    "name": "G4",
                    "midi": 67,
                    "time": 102.45690000000037,
                    "velocity": 0.49606299212598426,
                    "duration": 0.0737100000000055
                },
                {
                    "name": "G#4",
                    "midi": 68,
                    "time": 102.60432000000038,
                    "velocity": 0.5511811023622047,
                    "duration": 0.14741999999999678
                },
                {
                    "name": "F4",
                    "midi": 65,
                    "time": 102.60432000000038,
                    "velocity": 0.4645669291338583,
                    "duration": 0.14741999999999678
                },
                {
                    "name": "A#2",
                    "midi": 46,
                    "time": 102.89916000000038,
                    "velocity": 0.5826771653543307,
                    "duration": 0.14741999999999678
                },
                {
                    "name": "A#1",
                    "midi": 34,
                    "time": 102.89916000000038,
                    "velocity": 0.49606299212598426,
                    "duration": 0.14741999999999678
                },
                {
                    "name": "D#2",
                    "midi": 39,
                    "time": 103.48884000000038,
                    "velocity": 0.4330708661417323,
                    "duration": 0.5896800000000013
                },
                {
                    "name": "F#2",
                    "midi": 42,
                    "time": 103.48884000000038,
                    "velocity": 0.4330708661417323,
                    "duration": 0.5896800000000013
                },
                {
                    "name": "B2",
                    "midi": 47,
                    "time": 103.48884000000038,
                    "velocity": 0.5118110236220472,
                    "duration": 0.5896800000000013
                },
                {
                    "name": "B1",
                    "midi": 35,
                    "time": 103.48884000000038,
                    "velocity": 0.4330708661417323,
                    "duration": 0.5896800000000013
                },
                {
                    "name": "A1",
                    "midi": 33,
                    "time": 104.07852000000038,
                    "velocity": 0.23622047244094488,
                    "duration": 0.0737100000000055
                },
                {
                    "name": "A2",
                    "midi": 45,
                    "time": 104.07852000000038,
                    "velocity": 0.28346456692913385,
                    "duration": 0.0737100000000055
                },
                {
                    "name": "A#2",
                    "midi": 46,
                    "time": 104.37336000000039,
                    "velocity": 0.2992125984251969,
                    "duration": 0.0737100000000055
                },
                {
                    "name": "A#1",
                    "midi": 34,
                    "time": 104.37336000000039,
                    "velocity": 0.25196850393700787,
                    "duration": 0.0737100000000055
                },
                {
                    "name": "A#1",
                    "midi": 34,
                    "time": 104.6682000000004,
                    "velocity": 0.2125984251968504,
                    "duration": 0.0737100000000055
                },
                {
                    "name": "A#2",
                    "midi": 46,
                    "time": 104.6682000000004,
                    "velocity": 0.25984251968503935,
                    "duration": 0.0737100000000055
                },
                {
                    "name": "D#2",
                    "midi": 39,
                    "time": 104.9630400000004,
                    "velocity": 0.25196850393700787,
                    "duration": 0.14741999999999678
                },
                {
                    "name": "D#3",
                    "midi": 51,
                    "time": 105.1104600000004,
                    "velocity": 0.2125984251968504,
                    "duration": 0.14741999999999678
                },
                {
                    "name": "D#2",
                    "midi": 39,
                    "time": 105.55272000000039,
                    "velocity": 0.25196850393700787,
                    "duration": 0.14741999999999678
                },
                {
                    "name": "D#3",
                    "midi": 51,
                    "time": 105.70014000000039,
                    "velocity": 0.2204724409448819,
                    "duration": 0.14741999999999678
                },
                {
                    "name": "D#2",
                    "midi": 39,
                    "time": 106.14240000000038,
                    "velocity": 0.25196850393700787,
                    "duration": 0.14741999999999678
                },
                {
                    "name": "D#3",
                    "midi": 51,
                    "time": 106.28982000000038,
                    "velocity": 0.2204724409448819,
                    "duration": 0.14741999999999678
                },
                {
                    "name": "D#2",
                    "midi": 39,
                    "time": 106.73208000000037,
                    "velocity": 0.25196850393700787,
                    "duration": 0.14741999999999678
                },
                {
                    "name": "D#3",
                    "midi": 51,
                    "time": 106.87950000000036,
                    "velocity": 0.2125984251968504,
                    "duration": 0.14741999999999678
                },
                {
                    "name": "D#2",
                    "midi": 39,
                    "time": 107.32176000000035,
                    "velocity": 0.25196850393700787,
                    "duration": 0.29483999999999355
                },
                {
                    "name": "C3",
                    "midi": 48,
                    "time": 108.94338000000035,
                    "velocity": 0.28346456692913385,
                    "duration": 0.14741999999999678
                },
                {
                    "name": "B2",
                    "midi": 47,
                    "time": 109.09080000000034,
                    "velocity": 0.33070866141732286,
                    "duration": 0.14741999999999678
                },
                {
                    "name": "C3",
                    "midi": 48,
                    "time": 109.23822000000034,
                    "velocity": 0.2755905511811024,
                    "duration": 0.14741999999999678
                },
                {
                    "name": "A#3",
                    "midi": 58,
                    "time": 109.38564000000034,
                    "velocity": 0.3543307086614173,
                    "duration": 0.0737100000000055
                },
                {
                    "name": "G3",
                    "midi": 55,
                    "time": 109.38564000000034,
                    "velocity": 0.29133858267716534,
                    "duration": 0.0737100000000055
                },
                {
                    "name": "A#3",
                    "midi": 58,
                    "time": 109.53306000000035,
                    "velocity": 0.33070866141732286,
                    "duration": 0.0737100000000055
                },
                {
                    "name": "G3",
                    "midi": 55,
                    "time": 109.53306000000035,
                    "velocity": 0.2755905511811024,
                    "duration": 0.0737100000000055
                },
                {
                    "name": "A#3",
                    "midi": 58,
                    "time": 109.68048000000036,
                    "velocity": 0.6062992125984252,
                    "duration": 1.1793600000000026
                },
                {
                    "name": "G3",
                    "midi": 55,
                    "time": 109.68048000000036,
                    "velocity": 0.5039370078740157,
                    "duration": 1.1793600000000026
                },
                {
                    "name": "A#3",
                    "midi": 58,
                    "time": 110.85984000000036,
                    "velocity": 0.2992125984251969,
                    "duration": 0.29483999999999355
                },
                {
                    "name": "G#3",
                    "midi": 56,
                    "time": 110.85984000000036,
                    "velocity": 0.25196850393700787,
                    "duration": 0.29483999999999355
                },
                {
                    "name": "A#2",
                    "midi": 46,
                    "time": 111.30210000000035,
                    "velocity": 0.28346456692913385,
                    "duration": 0.14741999999999678
                },
                {
                    "name": "A2",
                    "midi": 45,
                    "time": 111.44952000000035,
                    "velocity": 0.33070866141732286,
                    "duration": 0.14741999999999678
                },
                {
                    "name": "A#2",
                    "midi": 46,
                    "time": 111.59694000000034,
                    "velocity": 0.2755905511811024,
                    "duration": 0.14741999999999678
                },
                {
                    "name": "A#3",
                    "midi": 58,
                    "time": 111.74436000000034,
                    "velocity": 0.3543307086614173,
                    "duration": 0.0737100000000055
                },
                {
                    "name": "G#3",
                    "midi": 56,
                    "time": 111.74436000000034,
                    "velocity": 0.29133858267716534,
                    "duration": 0.0737100000000055
                },
                {
                    "name": "A#3",
                    "midi": 58,
                    "time": 111.89178000000035,
                    "velocity": 0.33070866141732286,
                    "duration": 0.0737100000000055
                },
                {
                    "name": "G#3",
                    "midi": 56,
                    "time": 111.89178000000035,
                    "velocity": 0.2755905511811024,
                    "duration": 0.0737100000000055
                },
                {
                    "name": "A#3",
                    "midi": 58,
                    "time": 112.03920000000036,
                    "velocity": 0.6062992125984252,
                    "duration": 1.1793600000000026
                },
                {
                    "name": "G#3",
                    "midi": 56,
                    "time": 112.03920000000036,
                    "velocity": 0.5039370078740157,
                    "duration": 1.1793600000000026
                },
                {
                    "name": "A#3",
                    "midi": 58,
                    "time": 113.21856000000037,
                    "velocity": 0.2992125984251969,
                    "duration": 0.29483999999999355
                },
                {
                    "name": "G3",
                    "midi": 55,
                    "time": 113.21856000000037,
                    "velocity": 0.25196850393700787,
                    "duration": 0.29483999999999355
                },
                {
                    "name": "A#3",
                    "midi": 58,
                    "time": 113.80824000000035,
                    "velocity": 0.25984251968503935,
                    "duration": 0.29483999999999355
                },
                {
                    "name": "C#4",
                    "midi": 61,
                    "time": 113.80824000000035,
                    "velocity": 0.30708661417322836,
                    "duration": 0.29483999999999355
                },
                {
                    "name": "F3",
                    "midi": 53,
                    "time": 113.80824000000035,
                    "velocity": 0.25984251968503935,
                    "duration": 0.29483999999999355
                },
                {
                    "name": "G3",
                    "midi": 55,
                    "time": 114.39792000000034,
                    "velocity": 0.2677165354330709,
                    "duration": 0.29483999999999355
                },
                {
                    "name": "A#3",
                    "midi": 58,
                    "time": 114.39792000000034,
                    "velocity": 0.2677165354330709,
                    "duration": 0.29483999999999355
                },
                {
                    "name": "C4",
                    "midi": 60,
                    "time": 114.39792000000034,
                    "velocity": 0.31496062992125984,
                    "duration": 0.29483999999999355
                },
                {
                    "name": "E3",
                    "midi": 52,
                    "time": 114.39792000000034,
                    "velocity": 0.2677165354330709,
                    "duration": 0.29483999999999355
                },
                {
                    "name": "F3",
                    "midi": 53,
                    "time": 115.57728000000033,
                    "velocity": 0.33858267716535434,
                    "duration": 0.29483999999999355
                },
                {
                    "name": "G#3",
                    "midi": 56,
                    "time": 115.57728000000033,
                    "velocity": 0.33858267716535434,
                    "duration": 0.29483999999999355
                },
                {
                    "name": "C4",
                    "midi": 60,
                    "time": 115.57728000000033,
                    "velocity": 0.41732283464566927,
                    "duration": 0.29483999999999355
                },
                {
                    "name": "D#3",
                    "midi": 51,
                    "time": 116.16696000000032,
                    "velocity": 0.3543307086614173,
                    "duration": 0.29483999999999355
                },
                {
                    "name": "F3",
                    "midi": 53,
                    "time": 116.16696000000032,
                    "velocity": 0.3543307086614173,
                    "duration": 0.29483999999999355
                },
                {
                    "name": "G#3",
                    "midi": 56,
                    "time": 116.16696000000032,
                    "velocity": 0.3543307086614173,
                    "duration": 0.29483999999999355
                },
                {
                    "name": "C4",
                    "midi": 60,
                    "time": 116.16696000000032,
                    "velocity": 0.4330708661417323,
                    "duration": 0.29483999999999355
                },
                {
                    "name": "D3",
                    "midi": 50,
                    "time": 116.7566400000003,
                    "velocity": 0.3858267716535433,
                    "duration": 0.29483999999999355
                },
                {
                    "name": "F3",
                    "midi": 53,
                    "time": 116.7566400000003,
                    "velocity": 0.3858267716535433,
                    "duration": 0.29483999999999355
                },
                {
                    "name": "G#3",
                    "midi": 56,
                    "time": 116.7566400000003,
                    "velocity": 0.3858267716535433,
                    "duration": 0.29483999999999355
                },
                {
                    "name": "B3",
                    "midi": 59,
                    "time": 116.7566400000003,
                    "velocity": 0.4566929133858268,
                    "duration": 0.29483999999999355
                },
                {
                    "name": "C3",
                    "midi": 48,
                    "time": 117.34632000000029,
                    "velocity": 0.4094488188976378,
                    "duration": 0.29483999999999355
                },
                {
                    "name": "D3",
                    "midi": 50,
                    "time": 117.34632000000029,
                    "velocity": 0.4094488188976378,
                    "duration": 0.29483999999999355
                },
                {
                    "name": "F3",
                    "midi": 53,
                    "time": 117.34632000000029,
                    "velocity": 0.4094488188976378,
                    "duration": 0.29483999999999355
                },
                {
                    "name": "G#3",
                    "midi": 56,
                    "time": 117.34632000000029,
                    "velocity": 0.49606299212598426,
                    "duration": 0.29483999999999355
                },
                {
                    "name": "B2",
                    "midi": 47,
                    "time": 117.93600000000028,
                    "velocity": 0.4566929133858268,
                    "duration": 0.29483999999999355
                },
                {
                    "name": "D3",
                    "midi": 50,
                    "time": 117.93600000000028,
                    "velocity": 0.4566929133858268,
                    "duration": 0.29483999999999355
                },
                {
                    "name": "F3",
                    "midi": 53,
                    "time": 117.93600000000028,
                    "velocity": 0.4566929133858268,
                    "duration": 0.29483999999999355
                },
                {
                    "name": "G#3",
                    "midi": 56,
                    "time": 117.93600000000028,
                    "velocity": 0.5511811023622047,
                    "duration": 0.29483999999999355
                },
                {
                    "name": "G#5",
                    "midi": 80,
                    "time": 118.67310000000028,
                    "velocity": 0.5118110236220472,
                    "duration": 0.13267799999999852
                },
                {
                    "name": "G#5",
                    "midi": 80,
                    "time": 118.82052000000027,
                    "velocity": 0.5118110236220472,
                    "duration": 0.13267799999999852
                },
                {
                    "name": "G#5",
                    "midi": 80,
                    "time": 118.96794000000027,
                    "velocity": 0.5118110236220472,
                    "duration": 0.13267799999999852
                },
                {
                    "name": "B4",
                    "midi": 71,
                    "time": 119.11536000000027,
                    "velocity": 0.5433070866141733,
                    "duration": 0.5896800000000013
                },
                {
                    "name": "G#3",
                    "midi": 56,
                    "time": 119.85246000000026,
                    "velocity": 0.5118110236220472,
                    "duration": 0.13267799999999852
                },
                {
                    "name": "G#3",
                    "midi": 56,
                    "time": 119.99988000000026,
                    "velocity": 0.5118110236220472,
                    "duration": 0.13267799999999852
                },
                {
                    "name": "G#3",
                    "midi": 56,
                    "time": 120.14730000000026,
                    "velocity": 0.5118110236220472,
                    "duration": 0.13267799999999852
                },
                {
                    "name": "B2",
                    "midi": 47,
                    "time": 120.29472000000025,
                    "velocity": 0.5433070866141733,
                    "duration": 0.14741999999999678
                },
                {
                    "name": "G#3",
                    "midi": 56,
                    "time": 120.44214000000025,
                    "velocity": 0.5039370078740157,
                    "duration": 0.13267799999999852
                },
                {
                    "name": "G#3",
                    "midi": 56,
                    "time": 120.58956000000025,
                    "velocity": 0.5039370078740157,
                    "duration": 0.13267799999999852
                },
                {
                    "name": "G#3",
                    "midi": 56,
                    "time": 120.73698000000024,
                    "velocity": 0.5039370078740157,
                    "duration": 0.14741999999999678
                },
                {
                    "name": "B2",
                    "midi": 47,
                    "time": 120.88440000000024,
                    "velocity": 0.5905511811023622,
                    "duration": 0.14741999999999678
                },
                {
                    "name": "G#3",
                    "midi": 56,
                    "time": 121.03182000000024,
                    "velocity": 0.5433070866141733,
                    "duration": 0.13267799999999852
                },
                {
                    "name": "G#3",
                    "midi": 56,
                    "time": 121.17924000000023,
                    "velocity": 0.5433070866141733,
                    "duration": 0.13267799999999852
                },
                {
                    "name": "G#3",
                    "midi": 56,
                    "time": 121.32666000000023,
                    "velocity": 0.5433070866141733,
                    "duration": 0.13267799999999852
                },
                {
                    "name": "B2",
                    "midi": 47,
                    "time": 121.47408000000023,
                    "velocity": 0.6929133858267716,
                    "duration": 0.4299749999999989
                },
                {
                    "name": "C3",
                    "midi": 48,
                    "time": 121.91634000000023,
                    "velocity": 0.28346456692913385,
                    "duration": 0.14741999999999678
                },
                {
                    "name": "B2",
                    "midi": 47,
                    "time": 122.06376000000023,
                    "velocity": 0.2992125984251969,
                    "duration": 0.14741999999999678
                },
                {
                    "name": "C3",
                    "midi": 48,
                    "time": 122.21118000000023,
                    "velocity": 0.2755905511811024,
                    "duration": 0.14741999999999678
                },
                {
                    "name": "F3",
                    "midi": 53,
                    "time": 122.35860000000022,
                    "velocity": 0.2992125984251969,
                    "duration": 0.0737100000000055
                },
                {
                    "name": "F3",
                    "midi": 53,
                    "time": 122.50602000000023,
                    "velocity": 0.2677165354330709,
                    "duration": 0.0737100000000055
                },
                {
                    "name": "D#3",
                    "midi": 51,
                    "time": 122.65344000000024,
                    "velocity": 0.2992125984251969,
                    "duration": 0.29483999999999355
                },
                {
                    "name": "C3",
                    "midi": 48,
                    "time": 123.09570000000024,
                    "velocity": 0.28346456692913385,
                    "duration": 0.14741999999999678
                },
                {
                    "name": "B2",
                    "midi": 47,
                    "time": 123.24312000000023,
                    "velocity": 0.2992125984251969,
                    "duration": 0.14741999999999678
                },
                {
                    "name": "C3",
                    "midi": 48,
                    "time": 123.39054000000023,
                    "velocity": 0.2755905511811024,
                    "duration": 0.14741999999999678
                },
                {
                    "name": "G#3",
                    "midi": 56,
                    "time": 123.53796000000023,
                    "velocity": 0.2992125984251969,
                    "duration": 0.0737100000000055
                },
                {
                    "name": "G#3",
                    "midi": 56,
                    "time": 123.68538000000024,
                    "velocity": 0.2677165354330709,
                    "duration": 0.0737100000000055
                },
                {
                    "name": "G3",
                    "midi": 55,
                    "time": 123.83280000000025,
                    "velocity": 0.2992125984251969,
                    "duration": 0.29483999999999355
                },
                {
                    "name": "G#3",
                    "midi": 56,
                    "time": 125.01216000000024,
                    "velocity": 0.2992125984251969,
                    "duration": 1.1793600000000026
                },
                {
                    "name": "C4",
                    "midi": 60,
                    "time": 125.01216000000024,
                    "velocity": 0.2992125984251969,
                    "duration": 1.1793600000000026
                },
                {
                    "name": "F#4",
                    "midi": 66,
                    "time": 125.01216000000024,
                    "velocity": 0.2992125984251969,
                    "duration": 1.1793600000000026
                },
                {
                    "name": "G4",
                    "midi": 67,
                    "time": 126.19152000000024,
                    "velocity": 0.2992125984251969,
                    "duration": 0.29483999999999355
                },
                {
                    "name": "D4",
                    "midi": 62,
                    "time": 126.19152000000024,
                    "velocity": 0.25196850393700787,
                    "duration": 0.29483999999999355
                },
                {
                    "name": "G3",
                    "midi": 55,
                    "time": 126.19152000000024,
                    "velocity": 0.25196850393700787,
                    "duration": 0.29483999999999355
                },
                {
                    "name": "G2",
                    "midi": 43,
                    "time": 126.63378000000023,
                    "velocity": 0.28346456692913385,
                    "duration": 0.14741999999999678
                },
                {
                    "name": "F#2",
                    "midi": 42,
                    "time": 126.78120000000023,
                    "velocity": 0.2992125984251969,
                    "duration": 0.14741999999999678
                },
                {
                    "name": "G2",
                    "midi": 43,
                    "time": 126.92862000000022,
                    "velocity": 0.2755905511811024,
                    "duration": 0.14741999999999678
                },
                {
                    "name": "C3",
                    "midi": 48,
                    "time": 127.07604000000022,
                    "velocity": 0.2992125984251969,
                    "duration": 0.0737100000000055
                },
                {
                    "name": "C3",
                    "midi": 48,
                    "time": 127.22346000000023,
                    "velocity": 0.2677165354330709,
                    "duration": 0.0737100000000055
                },
                {
                    "name": "B2",
                    "midi": 47,
                    "time": 127.37088000000024,
                    "velocity": 0.2992125984251969,
                    "duration": 0.29483999999999355
                },
                {
                    "name": "G2",
                    "midi": 43,
                    "time": 127.81314000000023,
                    "velocity": 0.28346456692913385,
                    "duration": 0.14741999999999678
                },
                {
                    "name": "F#2",
                    "midi": 42,
                    "time": 127.96056000000023,
                    "velocity": 0.2992125984251969,
                    "duration": 0.14741999999999678
                },
                {
                    "name": "G2",
                    "midi": 43,
                    "time": 128.10798000000023,
                    "velocity": 0.2755905511811024,
                    "duration": 0.147420000000011
                },
                {
                    "name": "D#3",
                    "midi": 51,
                    "time": 128.25540000000024,
                    "velocity": 0.2992125984251969,
                    "duration": 0.0737100000000055
                },
                {
                    "name": "D#3",
                    "midi": 51,
                    "time": 128.40282000000025,
                    "velocity": 0.2677165354330709,
                    "duration": 0.0737100000000055
                },
                {
                    "name": "D3",
                    "midi": 50,
                    "time": 128.55024000000026,
                    "velocity": 0.2992125984251969,
                    "duration": 0.29483999999999355
                },
                {
                    "name": "G2",
                    "midi": 43,
                    "time": 128.99250000000026,
                    "velocity": 0.29133858267716534,
                    "duration": 0.0737100000000055
                },
                {
                    "name": "B2",
                    "midi": 47,
                    "time": 129.13992000000027,
                    "velocity": 0.33858267716535434,
                    "duration": 0.0737100000000055
                },
                {
                    "name": "D3",
                    "midi": 50,
                    "time": 129.28734000000028,
                    "velocity": 0.29133858267716534,
                    "duration": 0.0737100000000055
                },
                {
                    "name": "F3",
                    "midi": 53,
                    "time": 129.4347600000003,
                    "velocity": 0.29133858267716534,
                    "duration": 0.0737100000000055
                },
                {
                    "name": "G#3",
                    "midi": 56,
                    "time": 129.5821800000003,
                    "velocity": 0.29133858267716534,
                    "duration": 0.0737100000000055
                },
                {
                    "name": "B3",
                    "midi": 59,
                    "time": 129.72960000000032,
                    "velocity": 0.36220472440944884,
                    "duration": 0.0737100000000055
                },
                {
                    "name": "D4",
                    "midi": 62,
                    "time": 129.87702000000033,
                    "velocity": 0.3543307086614173,
                    "duration": 0.0737100000000055
                },
                {
                    "name": "F4",
                    "midi": 65,
                    "time": 130.02444000000034,
                    "velocity": 0.3700787401574803,
                    "duration": 0.0737100000000055
                },
                {
                    "name": "G#4",
                    "midi": 68,
                    "time": 130.17186000000035,
                    "velocity": 0.3937007874015748,
                    "duration": 0.0737100000000055
                },
                {
                    "name": "G4",
                    "midi": 67,
                    "time": 130.31928000000036,
                    "velocity": 0.41732283464566927,
                    "duration": 0.0737100000000055
                },
                {
                    "name": "F4",
                    "midi": 65,
                    "time": 130.46670000000037,
                    "velocity": 0.3937007874015748,
                    "duration": 0.0737100000000055
                },
                {
                    "name": "D#4",
                    "midi": 63,
                    "time": 130.61412000000038,
                    "velocity": 0.36220472440944884,
                    "duration": 0.0737100000000055
                },
                {
                    "name": "D4",
                    "midi": 62,
                    "time": 130.7615400000004,
                    "velocity": 0.3543307086614173,
                    "duration": 0.0737100000000055
                },
                {
                    "name": "C4",
                    "midi": 60,
                    "time": 130.9089600000004,
                    "velocity": 0.33070866141732286,
                    "duration": 0.0737100000000055
                },
                {
                    "name": "D#4",
                    "midi": 63,
                    "time": 131.05638000000042,
                    "velocity": 0.25196850393700787,
                    "duration": 0.0737100000000055
                },
                {
                    "name": "G4",
                    "midi": 67,
                    "time": 131.05638000000042,
                    "velocity": 0.2992125984251969,
                    "duration": 0.0737100000000055
                },
                {
                    "name": "D#4",
                    "midi": 63,
                    "time": 131.20380000000043,
                    "velocity": 0.25196850393700787,
                    "duration": 0.0737100000000055
                },
                {
                    "name": "G4",
                    "midi": 67,
                    "time": 131.20380000000043,
                    "velocity": 0.2992125984251969,
                    "duration": 0.0737100000000055
                },
                {
                    "name": "D#4",
                    "midi": 63,
                    "time": 131.35122000000044,
                    "velocity": 0.25196850393700787,
                    "duration": 0.0737100000000055
                },
                {
                    "name": "G4",
                    "midi": 67,
                    "time": 131.35122000000044,
                    "velocity": 0.2992125984251969,
                    "duration": 0.0737100000000055
                },
                {
                    "name": "C4",
                    "midi": 60,
                    "time": 131.49864000000045,
                    "velocity": 0.33070866141732286,
                    "duration": 0.0737100000000055
                },
                {
                    "name": "E4",
                    "midi": 64,
                    "time": 131.64606000000046,
                    "velocity": 0.2440944881889764,
                    "duration": 0.0737100000000055
                },
                {
                    "name": "G4",
                    "midi": 67,
                    "time": 131.64606000000046,
                    "velocity": 0.2440944881889764,
                    "duration": 0.0737100000000055
                },
                {
                    "name": "A#4",
                    "midi": 70,
                    "time": 131.64606000000046,
                    "velocity": 0.29133858267716534,
                    "duration": 0.0737100000000055
                },
                {
                    "name": "E4",
                    "midi": 64,
                    "time": 131.79348000000047,
                    "velocity": 0.2440944881889764,
                    "duration": 0.0737100000000055
                },
                {
                    "name": "G4",
                    "midi": 67,
                    "time": 131.79348000000047,
                    "velocity": 0.2440944881889764,
                    "duration": 0.0737100000000055
                },
                {
                    "name": "A#4",
                    "midi": 70,
                    "time": 131.79348000000047,
                    "velocity": 0.29133858267716534,
                    "duration": 0.0737100000000055
                },
                {
                    "name": "E4",
                    "midi": 64,
                    "time": 131.94090000000048,
                    "velocity": 0.2440944881889764,
                    "duration": 0.0737100000000055
                },
                {
                    "name": "G4",
                    "midi": 67,
                    "time": 131.94090000000048,
                    "velocity": 0.2440944881889764,
                    "duration": 0.0737100000000055
                },
                {
                    "name": "A#4",
                    "midi": 70,
                    "time": 131.94090000000048,
                    "velocity": 0.29133858267716534,
                    "duration": 0.0737100000000055
                },
                {
                    "name": "C4",
                    "midi": 60,
                    "time": 132.0883200000005,
                    "velocity": 0.33070866141732286,
                    "duration": 0.0737100000000055
                },
                {
                    "name": "F4",
                    "midi": 65,
                    "time": 132.2357400000005,
                    "velocity": 0.25196850393700787,
                    "duration": 0.0737100000000055
                },
                {
                    "name": "G#4",
                    "midi": 68,
                    "time": 132.2357400000005,
                    "velocity": 0.2992125984251969,
                    "duration": 0.0737100000000055
                },
                {
                    "name": "F4",
                    "midi": 65,
                    "time": 132.38316000000052,
                    "velocity": 0.25196850393700787,
                    "duration": 0.0737100000000055
                },
                {
                    "name": "G#4",
                    "midi": 68,
                    "time": 132.38316000000052,
                    "velocity": 0.2992125984251969,
                    "duration": 0.0737100000000055
                },
                {
                    "name": "F4",
                    "midi": 65,
                    "time": 132.53058000000053,
                    "velocity": 0.25196850393700787,
                    "duration": 0.0737100000000055
                },
                {
                    "name": "G#4",
                    "midi": 68,
                    "time": 132.53058000000053,
                    "velocity": 0.2992125984251969,
                    "duration": 0.0737100000000055
                },
                {
                    "name": "C4",
                    "midi": 60,
                    "time": 132.67800000000054,
                    "velocity": 0.33070866141732286,
                    "duration": 0.0737100000000055
                },
                {
                    "name": "F4",
                    "midi": 65,
                    "time": 132.82542000000055,
                    "velocity": 0.2440944881889764,
                    "duration": 0.0737100000000055
                },
                {
                    "name": "G#4",
                    "midi": 68,
                    "time": 132.82542000000055,
                    "velocity": 0.2440944881889764,
                    "duration": 0.0737100000000055
                },
                {
                    "name": "B4",
                    "midi": 71,
                    "time": 132.82542000000055,
                    "velocity": 0.29133858267716534,
                    "duration": 0.0737100000000055
                },
                {
                    "name": "F4",
                    "midi": 65,
                    "time": 132.97284000000056,
                    "velocity": 0.2440944881889764,
                    "duration": 0.0737100000000055
                },
                {
                    "name": "G#4",
                    "midi": 68,
                    "time": 132.97284000000056,
                    "velocity": 0.2440944881889764,
                    "duration": 0.0737100000000055
                },
                {
                    "name": "B4",
                    "midi": 71,
                    "time": 132.97284000000056,
                    "velocity": 0.29133858267716534,
                    "duration": 0.0737100000000055
                },
                {
                    "name": "F4",
                    "midi": 65,
                    "time": 133.12026000000057,
                    "velocity": 0.2440944881889764,
                    "duration": 0.0737100000000055
                },
                {
                    "name": "G#4",
                    "midi": 68,
                    "time": 133.12026000000057,
                    "velocity": 0.2440944881889764,
                    "duration": 0.0737100000000055
                },
                {
                    "name": "B4",
                    "midi": 71,
                    "time": 133.12026000000057,
                    "velocity": 0.29133858267716534,
                    "duration": 0.0737100000000055
                },
                {
                    "name": "C4",
                    "midi": 60,
                    "time": 133.26768000000058,
                    "velocity": 0.33070866141732286,
                    "duration": 0.0737100000000055
                },
                {
                    "name": "D#4",
                    "midi": 63,
                    "time": 133.4151000000006,
                    "velocity": 0.25196850393700787,
                    "duration": 0.0737100000000055
                },
                {
                    "name": "G4",
                    "midi": 67,
                    "time": 133.4151000000006,
                    "velocity": 0.2992125984251969,
                    "duration": 0.0737100000000055
                },
                {
                    "name": "D#4",
                    "midi": 63,
                    "time": 133.5625200000006,
                    "velocity": 0.25196850393700787,
                    "duration": 0.0737100000000055
                },
                {
                    "name": "G4",
                    "midi": 67,
                    "time": 133.5625200000006,
                    "velocity": 0.2992125984251969,
                    "duration": 0.0737100000000055
                },
                {
                    "name": "D#4",
                    "midi": 63,
                    "time": 133.7099400000006,
                    "velocity": 0.25196850393700787,
                    "duration": 0.0737100000000055
                },
                {
                    "name": "G4",
                    "midi": 67,
                    "time": 133.7099400000006,
                    "velocity": 0.2992125984251969,
                    "duration": 0.0737100000000055
                },
                {
                    "name": "C4",
                    "midi": 60,
                    "time": 133.85736000000063,
                    "velocity": 0.33070866141732286,
                    "duration": 0.0737100000000055
                },
                {
                    "name": "E4",
                    "midi": 64,
                    "time": 134.00478000000064,
                    "velocity": 0.2440944881889764,
                    "duration": 0.0737100000000055
                },
                {
                    "name": "G4",
                    "midi": 67,
                    "time": 134.00478000000064,
                    "velocity": 0.2440944881889764,
                    "duration": 0.0737100000000055
                },
                {
                    "name": "A#4",
                    "midi": 70,
                    "time": 134.00478000000064,
                    "velocity": 0.29133858267716534,
                    "duration": 0.0737100000000055
                },
                {
                    "name": "E4",
                    "midi": 64,
                    "time": 134.15220000000065,
                    "velocity": 0.2440944881889764,
                    "duration": 0.0737100000000055
                },
                {
                    "name": "G4",
                    "midi": 67,
                    "time": 134.15220000000065,
                    "velocity": 0.2440944881889764,
                    "duration": 0.0737100000000055
                },
                {
                    "name": "A#4",
                    "midi": 70,
                    "time": 134.15220000000065,
                    "velocity": 0.29133858267716534,
                    "duration": 0.0737100000000055
                },
                {
                    "name": "E4",
                    "midi": 64,
                    "time": 134.29962000000066,
                    "velocity": 0.2440944881889764,
                    "duration": 0.0737100000000055
                },
                {
                    "name": "G4",
                    "midi": 67,
                    "time": 134.29962000000066,
                    "velocity": 0.2440944881889764,
                    "duration": 0.0737100000000055
                },
                {
                    "name": "A#4",
                    "midi": 70,
                    "time": 134.29962000000066,
                    "velocity": 0.29133858267716534,
                    "duration": 0.0737100000000055
                },
                {
                    "name": "C4",
                    "midi": 60,
                    "time": 134.44704000000067,
                    "velocity": 0.33070866141732286,
                    "duration": 0.0737100000000055
                },
                {
                    "name": "F4",
                    "midi": 65,
                    "time": 134.59446000000068,
                    "velocity": 0.25196850393700787,
                    "duration": 0.0737100000000055
                },
                {
                    "name": "G#4",
                    "midi": 68,
                    "time": 134.59446000000068,
                    "velocity": 0.2992125984251969,
                    "duration": 0.0737100000000055
                },
                {
                    "name": "F4",
                    "midi": 65,
                    "time": 134.7418800000007,
                    "velocity": 0.25196850393700787,
                    "duration": 0.0737100000000055
                },
                {
                    "name": "G#4",
                    "midi": 68,
                    "time": 134.7418800000007,
                    "velocity": 0.2992125984251969,
                    "duration": 0.0737100000000055
                },
                {
                    "name": "F4",
                    "midi": 65,
                    "time": 134.8893000000007,
                    "velocity": 0.25196850393700787,
                    "duration": 0.0737100000000055
                },
                {
                    "name": "G#4",
                    "midi": 68,
                    "time": 134.8893000000007,
                    "velocity": 0.2992125984251969,
                    "duration": 0.0737100000000055
                },
                {
                    "name": "C4",
                    "midi": 60,
                    "time": 135.0367200000007,
                    "velocity": 0.33070866141732286,
                    "duration": 0.0737100000000055
                },
                {
                    "name": "F4",
                    "midi": 65,
                    "time": 135.18414000000072,
                    "velocity": 0.2440944881889764,
                    "duration": 0.0737100000000055
                },
                {
                    "name": "G#4",
                    "midi": 68,
                    "time": 135.18414000000072,
                    "velocity": 0.2440944881889764,
                    "duration": 0.0737100000000055
                },
                {
                    "name": "B4",
                    "midi": 71,
                    "time": 135.18414000000072,
                    "velocity": 0.29133858267716534,
                    "duration": 0.0737100000000055
                },
                {
                    "name": "F4",
                    "midi": 65,
                    "time": 135.33156000000074,
                    "velocity": 0.2440944881889764,
                    "duration": 0.0737100000000055
                },
                {
                    "name": "G#4",
                    "midi": 68,
                    "time": 135.33156000000074,
                    "velocity": 0.2440944881889764,
                    "duration": 0.0737100000000055
                },
                {
                    "name": "B4",
                    "midi": 71,
                    "time": 135.33156000000074,
                    "velocity": 0.29133858267716534,
                    "duration": 0.0737100000000055
                },
                {
                    "name": "F4",
                    "midi": 65,
                    "time": 135.47898000000075,
                    "velocity": 0.2440944881889764,
                    "duration": 0.0737100000000055
                },
                {
                    "name": "G#4",
                    "midi": 68,
                    "time": 135.47898000000075,
                    "velocity": 0.2440944881889764,
                    "duration": 0.0737100000000055
                },
                {
                    "name": "B4",
                    "midi": 71,
                    "time": 135.47898000000075,
                    "velocity": 0.29133858267716534,
                    "duration": 0.0737100000000055
                },
                {
                    "name": "C4",
                    "midi": 60,
                    "time": 135.62640000000076,
                    "velocity": 0.28346456692913385,
                    "duration": 0.29483999999999355
                },
                {
                    "name": "D#4",
                    "midi": 63,
                    "time": 135.62640000000076,
                    "velocity": 0.28346456692913385,
                    "duration": 0.29483999999999355
                },
                {
                    "name": "G4",
                    "midi": 67,
                    "time": 135.62640000000076,
                    "velocity": 0.28346456692913385,
                    "duration": 0.29483999999999355
                },
                {
                    "name": "C5",
                    "midi": 72,
                    "time": 135.63069975000076,
                    "velocity": 0.3464566929133858,
                    "duration": 0.29483999999999355
                },
                {
                    "name": "F#4",
                    "midi": 66,
                    "time": 136.06866000000076,
                    "velocity": 0.33070866141732286,
                    "duration": 0.147420000000011
                },
                {
                    "name": "G4",
                    "midi": 67,
                    "time": 136.21608000000077,
                    "velocity": 0.4094488188976378,
                    "duration": 0.29483999999999355
                },
                {
                    "name": "B3",
                    "midi": 59,
                    "time": 136.65834000000078,
                    "velocity": 0.3779527559055118,
                    "duration": 0.147420000000011
                },
                {
                    "name": "C4",
                    "midi": 60,
                    "time": 136.8057600000008,
                    "velocity": 0.44881889763779526,
                    "duration": 0.29483999999999355
                },
                {
                    "name": "F#3",
                    "midi": 54,
                    "time": 137.2480200000008,
                    "velocity": 0.4251968503937008,
                    "duration": 0.147420000000011
                },
                {
                    "name": "G3",
                    "midi": 55,
                    "time": 137.3954400000008,
                    "velocity": 0.49606299212598426,
                    "duration": 0.29483999999999355
                },
                {
                    "name": "B2",
                    "midi": 47,
                    "time": 137.8377000000008,
                    "velocity": 0.44881889763779526,
                    "duration": 0.147420000000011
                },
                {
                    "name": "C3",
                    "midi": 48,
                    "time": 137.98512000000082,
                    "velocity": 0.5196850393700787,
                    "duration": 0.29483999999999355
                },
                {
                    "name": "F#2",
                    "midi": 42,
                    "time": 138.42738000000082,
                    "velocity": 0.4566929133858268,
                    "duration": 0.147420000000011
                },
                {
                    "name": "G2",
                    "midi": 43,
                    "time": 138.57480000000083,
                    "velocity": 0.5275590551181102,
                    "duration": 0.29483999999999355
                },
                {
                    "name": "C2",
                    "midi": 36,
                    "time": 138.86964000000083,
                    "velocity": 0.6456692913385826,
                    "duration": 0.147420000000011
                },
                {
                    "name": "C3",
                    "midi": 48,
                    "time": 138.86964000000083,
                    "velocity": 0.7559055118110236,
                    "duration": 0.147420000000011
                },
                {
                    "name": "G1",
                    "midi": 31,
                    "time": 139.16448000000085,
                    "velocity": 0.4330708661417323,
                    "duration": 0.147420000000011
                },
                {
                    "name": "G2",
                    "midi": 43,
                    "time": 139.16448000000085,
                    "velocity": 0.5196850393700787,
                    "duration": 0.147420000000011
                },
                {
                    "name": "C2",
                    "midi": 36,
                    "time": 139.45932000000087,
                    "velocity": 0.6456692913385826,
                    "duration": 0.147420000000011
                },
                {
                    "name": "C3",
                    "midi": 48,
                    "time": 139.45932000000087,
                    "velocity": 0.7637795275590551,
                    "duration": 0.147420000000011
                },
                {
                    "name": "G1",
                    "midi": 31,
                    "time": 139.7541600000009,
                    "velocity": 0.44881889763779526,
                    "duration": 0.147420000000011
                },
                {
                    "name": "G2",
                    "midi": 43,
                    "time": 139.7541600000009,
                    "velocity": 0.5354330708661418,
                    "duration": 0.147420000000011
                },
                {
                    "name": "C2",
                    "midi": 36,
                    "time": 140.04900000000092,
                    "velocity": 0.6456692913385826,
                    "duration": 0.147420000000011
                },
                {
                    "name": "C3",
                    "midi": 48,
                    "time": 140.04900000000092,
                    "velocity": 0.7637795275590551,
                    "duration": 0.147420000000011
                },
                {
                    "name": "G1",
                    "midi": 31,
                    "time": 140.34384000000094,
                    "velocity": 0.5196850393700787,
                    "duration": 0.5896799999999871
                },
                {
                    "name": "B1",
                    "midi": 35,
                    "time": 140.34384000000094,
                    "velocity": 0.5196850393700787,
                    "duration": 0.5896799999999871
                },
                {
                    "name": "D2",
                    "midi": 38,
                    "time": 140.34384000000094,
                    "velocity": 0.5196850393700787,
                    "duration": 0.5896799999999871
                },
                {
                    "name": "G2",
                    "midi": 43,
                    "time": 140.34384000000094,
                    "velocity": 0.6141732283464567,
                    "duration": 0.5896799999999871
                },
                {
                    "name": "G3",
                    "midi": 55,
                    "time": 141.5232000000009,
                    "velocity": 0.2047244094488189,
                    "duration": 0.5896799999999871
                },
                {
                    "name": "C3",
                    "midi": 48,
                    "time": 141.5232000000009,
                    "velocity": 0.2047244094488189,
                    "duration": 0.5896799999999871
                },
                {
                    "name": "C4",
                    "midi": 60,
                    "time": 141.5232000000009,
                    "velocity": 0.2440944881889764,
                    "duration": 0.5896799999999871
                },
                {
                    "name": "G3",
                    "midi": 55,
                    "time": 142.1128800000009,
                    "velocity": 0.1968503937007874,
                    "duration": 0.0737100000000055
                },
                {
                    "name": "F3",
                    "midi": 53,
                    "time": 142.1128800000009,
                    "velocity": 0.1968503937007874,
                    "duration": 0.0737100000000055
                },
                {
                    "name": "B3",
                    "midi": 59,
                    "time": 142.1128800000009,
                    "velocity": 0.23622047244094488,
                    "duration": 0.0737100000000055
                },
                {
                    "name": "E3",
                    "midi": 52,
                    "time": 142.4077200000009,
                    "velocity": 0.18110236220472442,
                    "duration": 0.0737100000000055
                },
                {
                    "name": "G3",
                    "midi": 55,
                    "time": 142.4077200000009,
                    "velocity": 0.18110236220472442,
                    "duration": 0.0737100000000055
                },
                {
                    "name": "C4",
                    "midi": 60,
                    "time": 142.4077200000009,
                    "velocity": 0.2125984251968504,
                    "duration": 0.0737100000000055
                },
                {
                    "name": "G3",
                    "midi": 55,
                    "time": 142.7025600000009,
                    "velocity": 0.2125984251968504,
                    "duration": 0.5896799999999871
                },
                {
                    "name": "D3",
                    "midi": 50,
                    "time": 142.7025600000009,
                    "velocity": 0.2125984251968504,
                    "duration": 0.5896799999999871
                },
                {
                    "name": "D4",
                    "midi": 62,
                    "time": 142.7025600000009,
                    "velocity": 0.25196850393700787,
                    "duration": 0.5896799999999871
                },
                {
                    "name": "G3",
                    "midi": 55,
                    "time": 143.88192000000086,
                    "velocity": 0.2047244094488189,
                    "duration": 0.5896799999999871
                },
                {
                    "name": "C3",
                    "midi": 48,
                    "time": 143.88192000000086,
                    "velocity": 0.2047244094488189,
                    "duration": 0.5896799999999871
                },
                {
                    "name": "C4",
                    "midi": 60,
                    "time": 143.88192000000086,
                    "velocity": 0.2440944881889764,
                    "duration": 0.5896799999999871
                },
                {
                    "name": "F3",
                    "midi": 53,
                    "time": 144.47160000000085,
                    "velocity": 0.1968503937007874,
                    "duration": 0.0737100000000055
                },
                {
                    "name": "A3",
                    "midi": 57,
                    "time": 144.47160000000085,
                    "velocity": 0.23622047244094488,
                    "duration": 0.0737100000000055
                },
                {
                    "name": "F#3",
                    "midi": 54,
                    "time": 144.76644000000084,
                    "velocity": 0.18110236220472442,
                    "duration": 0.0737100000000055
                },
                {
                    "name": "A3",
                    "midi": 57,
                    "time": 144.76644000000084,
                    "velocity": 0.2125984251968504,
                    "duration": 0.0737100000000055
                },
                {
                    "name": "G2",
                    "midi": 43,
                    "time": 145.06128000000083,
                    "velocity": 0.1732283464566929,
                    "duration": 0.5896799999999871
                },
                {
                    "name": "G3",
                    "midi": 55,
                    "time": 145.06128000000083,
                    "velocity": 0.2125984251968504,
                    "duration": 0.5896799999999871
                },
                {
                    "name": "G3",
                    "midi": 55,
                    "time": 146.2406400000008,
                    "velocity": 0.2047244094488189,
                    "duration": 0.5896799999999871
                },
                {
                    "name": "C3",
                    "midi": 48,
                    "time": 146.2406400000008,
                    "velocity": 0.2047244094488189,
                    "duration": 0.5896799999999871
                },
                {
                    "name": "C4",
                    "midi": 60,
                    "time": 146.2406400000008,
                    "velocity": 0.2440944881889764,
                    "duration": 0.5896799999999871
                },
                {
                    "name": "G3",
                    "midi": 55,
                    "time": 146.8303200000008,
                    "velocity": 0.1968503937007874,
                    "duration": 0.0737100000000055
                },
                {
                    "name": "F3",
                    "midi": 53,
                    "time": 146.8303200000008,
                    "velocity": 0.1968503937007874,
                    "duration": 0.0737100000000055
                },
                {
                    "name": "B3",
                    "midi": 59,
                    "time": 146.8303200000008,
                    "velocity": 0.23622047244094488,
                    "duration": 0.0737100000000055
                },
                {
                    "name": "G3",
                    "midi": 55,
                    "time": 147.1251600000008,
                    "velocity": 0.18110236220472442,
                    "duration": 0.0737100000000055
                },
                {
                    "name": "E3",
                    "midi": 52,
                    "time": 147.1251600000008,
                    "velocity": 0.18110236220472442,
                    "duration": 0.0737100000000055
                },
                {
                    "name": "C4",
                    "midi": 60,
                    "time": 147.1251600000008,
                    "velocity": 0.2125984251968504,
                    "duration": 0.0737100000000055
                },
                {
                    "name": "F3",
                    "midi": 53,
                    "time": 147.3555037500008,
                    "velocity": 0.2204724409448819,
                    "duration": 0.3593362499999557
                },
                {
                    "name": "A3",
                    "midi": 57,
                    "time": 147.36471750000078,
                    "velocity": 0.25196850393700787,
                    "duration": 0.35012249999996925
                },
                {
                    "name": "C4",
                    "midi": 60,
                    "time": 147.37393125000077,
                    "velocity": 0.28346456692913385,
                    "duration": 0.3409087499999828
                },
                {
                    "name": "F4",
                    "midi": 65,
                    "time": 147.38314500000075,
                    "velocity": 0.31496062992125984,
                    "duration": 0.3316949999999963
                },
                {
                    "name": "G3",
                    "midi": 55,
                    "time": 148.59936000000076,
                    "velocity": 0.6299212598425197,
                    "duration": 2.3587200000000337
                },
                {
                    "name": "G2",
                    "midi": 43,
                    "time": 149.33646000000076,
                    "velocity": 0.3858267716535433,
                    "duration": 0.0737100000000055
                },
                {
                    "name": "A2",
                    "midi": 45,
                    "time": 149.48388000000077,
                    "velocity": 0.41732283464566927,
                    "duration": 0.0737100000000055
                },
                {
                    "name": "B2",
                    "midi": 47,
                    "time": 149.63130000000078,
                    "velocity": 0.3543307086614173,
                    "duration": 0.0737100000000055
                },
                {
                    "name": "C3",
                    "midi": 48,
                    "time": 149.7787200000008,
                    "velocity": 0.41732283464566927,
                    "duration": 0.0737100000000055
                },
                {
                    "name": "D3",
                    "midi": 50,
                    "time": 149.9261400000008,
                    "velocity": 0.3858267716535433,
                    "duration": 0.0737100000000055
                },
                {
                    "name": "E3",
                    "midi": 52,
                    "time": 150.0735600000008,
                    "velocity": 0.4015748031496063,
                    "duration": 0.0737100000000055
                },
                {
                    "name": "D3",
                    "midi": 50,
                    "time": 150.3684000000008,
                    "velocity": 0.41732283464566927,
                    "duration": 0.29483999999999355
                },
                {
                    "name": "C3",
                    "midi": 48,
                    "time": 150.6632400000008,
                    "velocity": 0.3937007874015748,
                    "duration": 0.29483999999999355
                },
                {
                    "name": "G3",
                    "midi": 55,
                    "time": 150.9580800000008,
                    "velocity": 0.6299212598425197,
                    "duration": 2.3587200000000337
                },
                {
                    "name": "G2",
                    "midi": 43,
                    "time": 151.6951800000008,
                    "velocity": 0.3858267716535433,
                    "duration": 0.0737100000000055
                },
                {
                    "name": "A2",
                    "midi": 45,
                    "time": 151.8426000000008,
                    "velocity": 0.41732283464566927,
                    "duration": 0.0737100000000055
                },
                {
                    "name": "B2",
                    "midi": 47,
                    "time": 151.9900200000008,
                    "velocity": 0.3543307086614173,
                    "duration": 0.0737100000000055
                },
                {
                    "name": "C3",
                    "midi": 48,
                    "time": 152.13744000000082,
                    "velocity": 0.41732283464566927,
                    "duration": 0.0737100000000055
                },
                {
                    "name": "D3",
                    "midi": 50,
                    "time": 152.28486000000083,
                    "velocity": 0.3858267716535433,
                    "duration": 0.0737100000000055
                },
                {
                    "name": "D#3",
                    "midi": 51,
                    "time": 152.43228000000084,
                    "velocity": 0.4015748031496063,
                    "duration": 0.0737100000000055
                },
                {
                    "name": "D3",
                    "midi": 50,
                    "time": 152.72712000000084,
                    "velocity": 0.41732283464566927,
                    "duration": 0.29483999999999355
                },
                {
                    "name": "C3",
                    "midi": 48,
                    "time": 153.02196000000083,
                    "velocity": 0.3937007874015748,
                    "duration": 0.29483999999999355
                },
                {
                    "name": "D3",
                    "midi": 50,
                    "time": 153.31680000000082,
                    "velocity": 0.3543307086614173,
                    "duration": 0.29483999999999355
                },
                {
                    "name": "F3",
                    "midi": 53,
                    "time": 153.31680000000082,
                    "velocity": 0.41732283464566927,
                    "duration": 0.29483999999999355
                },
                {
                    "name": "F2",
                    "midi": 41,
                    "time": 153.31680000000082,
                    "velocity": 0.3543307086614173,
                    "duration": 0.29483999999999355
                },
                {
                    "name": "G#2",
                    "midi": 44,
                    "time": 153.31680000000082,
                    "velocity": 0.3543307086614173,
                    "duration": 0.29483999999999355
                },
                {
                    "name": "B2",
                    "midi": 47,
                    "time": 153.9064800000008,
                    "velocity": 0.33070866141732286,
                    "duration": 0.29483999999999355
                },
                {
                    "name": "G2",
                    "midi": 43,
                    "time": 153.9064800000008,
                    "velocity": 0.33070866141732286,
                    "duration": 0.29483999999999355
                },
                {
                    "name": "D3",
                    "midi": 50,
                    "time": 153.9064800000008,
                    "velocity": 0.33070866141732286,
                    "duration": 0.29483999999999355
                },
                {
                    "name": "F3",
                    "midi": 53,
                    "time": 153.9064800000008,
                    "velocity": 0.3937007874015748,
                    "duration": 0.29483999999999355
                },
                {
                    "name": "D#3",
                    "midi": 51,
                    "time": 154.4961600000008,
                    "velocity": 0.4566929133858268,
                    "duration": 0.147420000000011
                },
                {
                    "name": "C3",
                    "midi": 48,
                    "time": 154.4961600000008,
                    "velocity": 0.3858267716535433,
                    "duration": 0.147420000000011
                },
                {
                    "name": "G3",
                    "midi": 55,
                    "time": 154.6435800000008,
                    "velocity": 0.3779527559055118,
                    "duration": 0.0737100000000055
                },
                {
                    "name": "G3",
                    "midi": 55,
                    "time": 154.79100000000082,
                    "velocity": 0.3779527559055118,
                    "duration": 0.0737100000000055
                },
                {
                    "name": "G3",
                    "midi": 55,
                    "time": 154.93842000000083,
                    "velocity": 0.3779527559055118,
                    "duration": 0.0737100000000055
                },
                {
                    "name": "G3",
                    "midi": 55,
                    "time": 155.08584000000084,
                    "velocity": 0.4251968503937008,
                    "duration": 0.147420000000011
                },
                {
                    "name": "G3",
                    "midi": 55,
                    "time": 155.23326000000085,
                    "velocity": 0.3700787401574803,
                    "duration": 0.0737100000000055
                },
                {
                    "name": "B2",
                    "midi": 47,
                    "time": 155.38068000000086,
                    "velocity": 0.3700787401574803,
                    "duration": 0.0737100000000055
                },
                {
                    "name": "G3",
                    "midi": 55,
                    "time": 155.52810000000088,
                    "velocity": 0.3700787401574803,
                    "duration": 0.0737100000000055
                },
                {
                    "name": "C3",
                    "midi": 48,
                    "time": 155.6755200000009,
                    "velocity": 0.49606299212598426,
                    "duration": 0.147420000000011
                },
                {
                    "name": "G3",
                    "midi": 55,
                    "time": 155.8229400000009,
                    "velocity": 0.4094488188976378,
                    "duration": 0.0737100000000055
                },
                {
                    "name": "G3",
                    "midi": 55,
                    "time": 155.9703600000009,
                    "velocity": 0.4094488188976378,
                    "duration": 0.0737100000000055
                },
                {
                    "name": "G3",
                    "midi": 55,
                    "time": 156.11778000000092,
                    "velocity": 0.4094488188976378,
                    "duration": 0.0737100000000055
                },
                {
                    "name": "G3",
                    "midi": 55,
                    "time": 156.26520000000093,
                    "velocity": 0.4645669291338583,
                    "duration": 0.147420000000011
                },
                {
                    "name": "G3",
                    "midi": 55,
                    "time": 156.41262000000094,
                    "velocity": 0.4094488188976378,
                    "duration": 0.0737100000000055
                },
                {
                    "name": "B2",
                    "midi": 47,
                    "time": 156.56004000000095,
                    "velocity": 0.4094488188976378,
                    "duration": 0.0737100000000055
                },
                {
                    "name": "G3",
                    "midi": 55,
                    "time": 156.70746000000096,
                    "velocity": 0.4094488188976378,
                    "duration": 0.0737100000000055
                },
                {
                    "name": "C3",
                    "midi": 48,
                    "time": 156.85488000000097,
                    "velocity": 0.5433070866141733,
                    "duration": 0.147420000000011
                },
                {
                    "name": "G3",
                    "midi": 55,
                    "time": 157.002300000001,
                    "velocity": 0.4330708661417323,
                    "duration": 0.0737100000000055
                },
                {
                    "name": "G3",
                    "midi": 55,
                    "time": 157.149720000001,
                    "velocity": 0.4330708661417323,
                    "duration": 0.0737100000000055
                },
                {
                    "name": "G3",
                    "midi": 55,
                    "time": 157.297140000001,
                    "velocity": 0.4330708661417323,
                    "duration": 0.0737100000000055
                },
                {
                    "name": "G3",
                    "midi": 55,
                    "time": 157.44456000000102,
                    "velocity": 0.5590551181102362,
                    "duration": 0.147420000000011
                },
                {
                    "name": "G3",
                    "midi": 55,
                    "time": 157.59198000000103,
                    "velocity": 0.4881889763779528,
                    "duration": 0.0737100000000055
                },
                {
                    "name": "B2",
                    "midi": 47,
                    "time": 157.73940000000104,
                    "velocity": 0.44881889763779526,
                    "duration": 0.0737100000000055
                },
                {
                    "name": "D3",
                    "midi": 50,
                    "time": 157.73940000000104,
                    "velocity": 0.44881889763779526,
                    "duration": 0.0737100000000055
                },
                {
                    "name": "F3",
                    "midi": 53,
                    "time": 157.73940000000104,
                    "velocity": 0.44881889763779526,
                    "duration": 0.0737100000000055
                },
                {
                    "name": "G3",
                    "midi": 55,
                    "time": 157.73940000000104,
                    "velocity": 0.5354330708661418,
                    "duration": 0.0737100000000055
                },
                {
                    "name": "B2",
                    "midi": 47,
                    "time": 157.88682000000105,
                    "velocity": 0.4566929133858268,
                    "duration": 0.0737100000000055
                },
                {
                    "name": "D3",
                    "midi": 50,
                    "time": 157.88682000000105,
                    "velocity": 0.4566929133858268,
                    "duration": 0.0737100000000055
                },
                {
                    "name": "F3",
                    "midi": 53,
                    "time": 157.88682000000105,
                    "velocity": 0.4566929133858268,
                    "duration": 0.0737100000000055
                },
                {
                    "name": "G3",
                    "midi": 55,
                    "time": 157.88682000000105,
                    "velocity": 0.5433070866141733,
                    "duration": 0.0737100000000055
                },
                {
                    "name": "G3",
                    "midi": 55,
                    "time": 158.03424000000106,
                    "velocity": 0.5669291338582677,
                    "duration": 1.1793600000000026
                },
                {
                    "name": "B2",
                    "midi": 47,
                    "time": 158.03424000000106,
                    "velocity": 0.41732283464566927,
                    "duration": 1.1793600000000026
                },
                {
                    "name": "D3",
                    "midi": 50,
                    "time": 158.03424000000106,
                    "velocity": 0.41732283464566927,
                    "duration": 1.1793600000000026
                },
                {
                    "name": "F3",
                    "midi": 53,
                    "time": 158.03424000000106,
                    "velocity": 0.41732283464566927,
                    "duration": 1.1793600000000026
                },
                {
                    "name": "C3",
                    "midi": 48,
                    "time": 159.21360000000107,
                    "velocity": 0.3858267716535433,
                    "duration": 0.29483999999999355
                },
                {
                    "name": "D#3",
                    "midi": 51,
                    "time": 159.21360000000107,
                    "velocity": 0.3858267716535433,
                    "duration": 0.29483999999999355
                },
                {
                    "name": "G3",
                    "midi": 55,
                    "time": 159.21360000000107,
                    "velocity": 0.5196850393700787,
                    "duration": 0.29483999999999355
                },
                {
                    "name": "F2",
                    "midi": 41,
                    "time": 160.39296000000107,
                    "velocity": 0.5748031496062992,
                    "duration": 0.147420000000011
                },
                {
                    "name": "F3",
                    "midi": 53,
                    "time": 160.83522000000107,
                    "velocity": 0.49606299212598426,
                    "duration": 0.0737100000000055
                },
                {
                    "name": "G2",
                    "midi": 43,
                    "time": 160.98264000000108,
                    "velocity": 0.5511811023622047,
                    "duration": 0.147420000000011
                },
                {
                    "name": "G3",
                    "midi": 55,
                    "time": 161.4249000000011,
                    "velocity": 0.49606299212598426,
                    "duration": 0.0737100000000055
                },
                {
                    "name": "F4",
                    "midi": 65,
                    "time": 161.71974000000108,
                    "velocity": 0.49606299212598426,
                    "duration": 0.0737100000000055
                },
                {
                    "name": "G4",
                    "midi": 67,
                    "time": 161.7934500000011,
                    "velocity": 0.5118110236220472,
                    "duration": 0.0737100000000055
                },
                {
                    "name": "G#4",
                    "midi": 68,
                    "time": 161.8671600000011,
                    "velocity": 0.5433070866141733,
                    "duration": 0.0737100000000055
                },
                {
                    "name": "G4",
                    "midi": 67,
                    "time": 161.9408700000011,
                    "velocity": 0.5275590551181102,
                    "duration": 0.0737100000000055
                },
                {
                    "name": "F4",
                    "midi": 65,
                    "time": 162.0145800000011,
                    "velocity": 0.5118110236220472,
                    "duration": 0.0737100000000055
                },
                {
                    "name": "D#4",
                    "midi": 63,
                    "time": 162.0882900000011,
                    "velocity": 0.5039370078740157,
                    "duration": 0.0737100000000055
                },
                {
                    "name": "D4",
                    "midi": 62,
                    "time": 162.16200000000111,
                    "velocity": 0.5275590551181102,
                    "duration": 0.09827999999998838
                },
                {
                    "name": "C4",
                    "midi": 60,
                    "time": 162.2602800000011,
                    "velocity": 0.48031496062992124,
                    "duration": 0.09827999999998838
                },
                {
                    "name": "B3",
                    "midi": 59,
                    "time": 162.3585600000011,
                    "velocity": 0.48031496062992124,
                    "duration": 0.09827999999998838
                },
                {
                    "name": "G#3",
                    "midi": 56,
                    "time": 162.45684000000108,
                    "velocity": 0.5275590551181102,
                    "duration": 0.09827999999998838
                },
                {
                    "name": "G3",
                    "midi": 55,
                    "time": 162.55512000000107,
                    "velocity": 0.4881889763779528,
                    "duration": 0.09827999999998838
                },
                {
                    "name": "F3",
                    "midi": 53,
                    "time": 162.65340000000106,
                    "velocity": 0.4881889763779528,
                    "duration": 0.09827999999998838
                },
                {
                    "name": "D#3",
                    "midi": 51,
                    "time": 162.75168000000104,
                    "velocity": 0.5275590551181102,
                    "duration": 0.09827999999998838
                },
                {
                    "name": "F3",
                    "midi": 53,
                    "time": 162.84996000000103,
                    "velocity": 0.49606299212598426,
                    "duration": 0.09827999999998838
                },
                {
                    "name": "G3",
                    "midi": 55,
                    "time": 162.94824000000102,
                    "velocity": 0.49606299212598426,
                    "duration": 0.09827999999998838
                },
                {
                    "name": "F3",
                    "midi": 53,
                    "time": 163.046520000001,
                    "velocity": 0.5275590551181102,
                    "duration": 0.09827999999998838
                },
                {
                    "name": "D#3",
                    "midi": 51,
                    "time": 163.144800000001,
                    "velocity": 0.47244094488188976,
                    "duration": 0.09827999999998838
                },
                {
                    "name": "D3",
                    "midi": 50,
                    "time": 163.243080000001,
                    "velocity": 0.47244094488188976,
                    "duration": 0.09827999999998838
                },
                {
                    "name": "C3",
                    "midi": 48,
                    "time": 163.34136000000098,
                    "velocity": 0.5511811023622047,
                    "duration": 0.09827999999998838
                },
                {
                    "name": "A#2",
                    "midi": 46,
                    "time": 163.43964000000096,
                    "velocity": 0.49606299212598426,
                    "duration": 0.09827999999998838
                },
                {
                    "name": "G#2",
                    "midi": 44,
                    "time": 163.53792000000095,
                    "velocity": 0.5196850393700787,
                    "duration": 0.09827999999998838
                },
                {
                    "name": "G2",
                    "midi": 43,
                    "time": 163.63620000000094,
                    "velocity": 0.5826771653543307,
                    "duration": 0.09827999999998838
                },
                {
                    "name": "F2",
                    "midi": 41,
                    "time": 163.73448000000093,
                    "velocity": 0.5275590551181102,
                    "duration": 0.09827999999998838
                },
                {
                    "name": "D#2",
                    "midi": 39,
                    "time": 163.83276000000092,
                    "velocity": 0.5275590551181102,
                    "duration": 0.09827999999998838
                },
                {
                    "name": "F1",
                    "midi": 29,
                    "time": 163.9310400000009,
                    "velocity": 0.5748031496062992,
                    "duration": 0.147420000000011
                },
                {
                    "name": "F2",
                    "midi": 41,
                    "time": 163.9310400000009,
                    "velocity": 0.5748031496062992,
                    "duration": 0.147420000000011
                },
                {
                    "name": "F1",
                    "midi": 29,
                    "time": 164.3733000000009,
                    "velocity": 0.49606299212598426,
                    "duration": 0.0737100000000055
                },
                {
                    "name": "F2",
                    "midi": 41,
                    "time": 164.3733000000009,
                    "velocity": 0.49606299212598426,
                    "duration": 0.0737100000000055
                },
                {
                    "name": "G1",
                    "midi": 31,
                    "time": 164.52072000000092,
                    "velocity": 0.5511811023622047,
                    "duration": 0.147420000000011
                },
                {
                    "name": "G2",
                    "midi": 43,
                    "time": 164.52072000000092,
                    "velocity": 0.5511811023622047,
                    "duration": 0.147420000000011
                },
                {
                    "name": "G1",
                    "midi": 31,
                    "time": 164.96298000000093,
                    "velocity": 0.49606299212598426,
                    "duration": 0.0737100000000055
                },
                {
                    "name": "G2",
                    "midi": 43,
                    "time": 164.96298000000093,
                    "velocity": 0.49606299212598426,
                    "duration": 0.0737100000000055
                },
                {
                    "name": "C2",
                    "midi": 36,
                    "time": 165.11040000000094,
                    "velocity": 0.4645669291338583,
                    "duration": 0.29483999999999355
                },
                {
                    "name": "D#2",
                    "midi": 39,
                    "time": 165.11040000000094,
                    "velocity": 0.4645669291338583,
                    "duration": 0.29483999999999355
                },
                {
                    "name": "G2",
                    "midi": 43,
                    "time": 165.11040000000094,
                    "velocity": 0.4645669291338583,
                    "duration": 0.29483999999999355
                },
                {
                    "name": "C3",
                    "midi": 48,
                    "time": 165.11040000000094,
                    "velocity": 0.5511811023622047,
                    "duration": 0.29483999999999355
                },
                {
                    "name": "C#4",
                    "midi": 61,
                    "time": 165.40524000000093,
                    "velocity": 0.41732283464566927,
                    "duration": 0.0737100000000055
                },
                {
                    "name": "E4",
                    "midi": 64,
                    "time": 165.40524000000093,
                    "velocity": 0.49606299212598426,
                    "duration": 0.0737100000000055
                },
                {
                    "name": "C#4",
                    "midi": 61,
                    "time": 165.55266000000094,
                    "velocity": 0.41732283464566927,
                    "duration": 0.0737100000000055
                },
                {
                    "name": "E4",
                    "midi": 64,
                    "time": 165.55266000000094,
                    "velocity": 0.49606299212598426,
                    "duration": 0.0737100000000055
                },
                {
                    "name": "D4",
                    "midi": 62,
                    "time": 165.70008000000095,
                    "velocity": 0.4645669291338583,
                    "duration": 0.147420000000011
                },
                {
                    "name": "F4",
                    "midi": 65,
                    "time": 165.70008000000095,
                    "velocity": 0.5511811023622047,
                    "duration": 0.147420000000011
                },
                {
                    "name": "C#4",
                    "midi": 61,
                    "time": 165.99492000000097,
                    "velocity": 0.41732283464566927,
                    "duration": 0.0737100000000055
                },
                {
                    "name": "E4",
                    "midi": 64,
                    "time": 165.99492000000097,
                    "velocity": 0.49606299212598426,
                    "duration": 0.0737100000000055
                },
                {
                    "name": "C#4",
                    "midi": 61,
                    "time": 166.14234000000098,
                    "velocity": 0.41732283464566927,
                    "duration": 0.0737100000000055
                },
                {
                    "name": "E4",
                    "midi": 64,
                    "time": 166.14234000000098,
                    "velocity": 0.49606299212598426,
                    "duration": 0.0737100000000055
                },
                {
                    "name": "D4",
                    "midi": 62,
                    "time": 166.289760000001,
                    "velocity": 0.4645669291338583,
                    "duration": 0.147420000000011
                },
                {
                    "name": "F4",
                    "midi": 65,
                    "time": 166.289760000001,
                    "velocity": 0.5511811023622047,
                    "duration": 0.147420000000011
                },
                {
                    "name": "G1",
                    "midi": 31,
                    "time": 166.58460000000102,
                    "velocity": 0.49606299212598426,
                    "duration": 0.147420000000011
                },
                {
                    "name": "G2",
                    "midi": 43,
                    "time": 166.58460000000102,
                    "velocity": 0.5826771653543307,
                    "duration": 0.147420000000011
                },
                {
                    "name": "G1",
                    "midi": 31,
                    "time": 167.17428000000103,
                    "velocity": 0.23622047244094488,
                    "duration": 0.0737100000000055
                },
                {
                    "name": "G2",
                    "midi": 43,
                    "time": 167.17428000000103,
                    "velocity": 0.28346456692913385,
                    "duration": 0.0737100000000055
                },
                {
                    "name": "G#1",
                    "midi": 32,
                    "time": 167.46912000000103,
                    "velocity": 0.25196850393700787,
                    "duration": 0.0737100000000055
                },
                {
                    "name": "G#2",
                    "midi": 44,
                    "time": 167.46912000000103,
                    "velocity": 0.2992125984251969,
                    "duration": 0.0737100000000055
                },
                {
                    "name": "F#1",
                    "midi": 30,
                    "time": 167.76396000000102,
                    "velocity": 0.23622047244094488,
                    "duration": 0.0737100000000055
                },
                {
                    "name": "F#2",
                    "midi": 42,
                    "time": 167.76396000000102,
                    "velocity": 0.28346456692913385,
                    "duration": 0.0737100000000055
                },
                {
                    "name": "G1",
                    "midi": 31,
                    "time": 168.058800000001,
                    "velocity": 0.25196850393700787,
                    "duration": 0.0737100000000055
                },
                {
                    "name": "G2",
                    "midi": 43,
                    "time": 168.058800000001,
                    "velocity": 0.2992125984251969,
                    "duration": 0.0737100000000055
                },
                {
                    "name": "G1",
                    "midi": 31,
                    "time": 168.353640000001,
                    "velocity": 0.2125984251968504,
                    "duration": 0.0737100000000055
                },
                {
                    "name": "G2",
                    "midi": 43,
                    "time": 168.353640000001,
                    "velocity": 0.25984251968503935,
                    "duration": 0.0737100000000055
                },
                {
                    "name": "C2",
                    "midi": 36,
                    "time": 168.648480000001,
                    "velocity": 0.25196850393700787,
                    "duration": 0.0737100000000055
                },
                {
                    "name": "C3",
                    "midi": 48,
                    "time": 168.648480000001,
                    "velocity": 0.2992125984251969,
                    "duration": 0.0737100000000055
                },
                {
                    "name": "C#4",
                    "midi": 61,
                    "time": 168.943320000001,
                    "velocity": 0.41732283464566927,
                    "duration": 0.0737100000000055
                },
                {
                    "name": "E4",
                    "midi": 64,
                    "time": 168.943320000001,
                    "velocity": 0.49606299212598426,
                    "duration": 0.0737100000000055
                },
                {
                    "name": "C#4",
                    "midi": 61,
                    "time": 169.090740000001,
                    "velocity": 0.41732283464566927,
                    "duration": 0.0737100000000055
                },
                {
                    "name": "E4",
                    "midi": 64,
                    "time": 169.090740000001,
                    "velocity": 0.49606299212598426,
                    "duration": 0.0737100000000055
                },
                {
                    "name": "D4",
                    "midi": 62,
                    "time": 169.23816000000102,
                    "velocity": 0.4645669291338583,
                    "duration": 0.147420000000011
                },
                {
                    "name": "F4",
                    "midi": 65,
                    "time": 169.23816000000102,
                    "velocity": 0.5511811023622047,
                    "duration": 0.147420000000011
                },
                {
                    "name": "C#4",
                    "midi": 61,
                    "time": 169.53300000000104,
                    "velocity": 0.41732283464566927,
                    "duration": 0.0737100000000055
                },
                {
                    "name": "E4",
                    "midi": 64,
                    "time": 169.53300000000104,
                    "velocity": 0.49606299212598426,
                    "duration": 0.0737100000000055
                },
                {
                    "name": "E4",
                    "midi": 64,
                    "time": 169.68042000000105,
                    "velocity": 0.41732283464566927,
                    "duration": 0.0737100000000055
                },
                {
                    "name": "C#4",
                    "midi": 61,
                    "time": 169.68042000000105,
                    "velocity": 0.49606299212598426,
                    "duration": 0.0737100000000055
                },
                {
                    "name": "D4",
                    "midi": 62,
                    "time": 169.82784000000106,
                    "velocity": 0.4645669291338583,
                    "duration": 0.147420000000011
                },
                {
                    "name": "F4",
                    "midi": 65,
                    "time": 169.82784000000106,
                    "velocity": 0.5511811023622047,
                    "duration": 0.147420000000011
                },
                {
                    "name": "G1",
                    "midi": 31,
                    "time": 170.12268000000108,
                    "velocity": 0.49606299212598426,
                    "duration": 0.147420000000011
                },
                {
                    "name": "G2",
                    "midi": 43,
                    "time": 170.12268000000108,
                    "velocity": 0.5826771653543307,
                    "duration": 0.147420000000011
                },
                {
                    "name": "G#1",
                    "midi": 32,
                    "time": 170.7123600000011,
                    "velocity": 0.4330708661417323,
                    "duration": 0.5896799999999871
                },
                {
                    "name": "C2",
                    "midi": 36,
                    "time": 170.7123600000011,
                    "velocity": 0.4330708661417323,
                    "duration": 0.5896799999999871
                },
                {
                    "name": "D#2",
                    "midi": 39,
                    "time": 170.7123600000011,
                    "velocity": 0.4330708661417323,
                    "duration": 0.5896799999999871
                },
                {
                    "name": "G#2",
                    "midi": 44,
                    "time": 170.7123600000011,
                    "velocity": 0.5118110236220472,
                    "duration": 0.5896799999999871
                },
                {
                    "name": "F#1",
                    "midi": 30,
                    "time": 171.30204000000109,
                    "velocity": 0.23622047244094488,
                    "duration": 0.0737100000000055
                },
                {
                    "name": "F#2",
                    "midi": 42,
                    "time": 171.30204000000109,
                    "velocity": 0.28346456692913385,
                    "duration": 0.0737100000000055
                },
                {
                    "name": "G1",
                    "midi": 31,
                    "time": 171.59688000000108,
                    "velocity": 0.25196850393700787,
                    "duration": 0.0737100000000055
                },
                {
                    "name": "G2",
                    "midi": 43,
                    "time": 171.59688000000108,
                    "velocity": 0.2992125984251969,
                    "duration": 0.0737100000000055
                },
                {
                    "name": "G1",
                    "midi": 31,
                    "time": 171.89172000000107,
                    "velocity": 0.2125984251968504,
                    "duration": 0.0737100000000055
                },
                {
                    "name": "G2",
                    "midi": 43,
                    "time": 171.89172000000107,
                    "velocity": 0.25984251968503935,
                    "duration": 0.0737100000000055
                },
                {
                    "name": "C2",
                    "midi": 36,
                    "time": 172.18656000000107,
                    "velocity": 0.25196850393700787,
                    "duration": 0.147420000000011
                },
                {
                    "name": "C3",
                    "midi": 48,
                    "time": 172.33398000000108,
                    "velocity": 0.2125984251968504,
                    "duration": 0.147420000000011
                },
                {
                    "name": "C2",
                    "midi": 36,
                    "time": 172.77624000000108,
                    "velocity": 0.25196850393700787,
                    "duration": 0.147420000000011
                },
                {
                    "name": "C3",
                    "midi": 48,
                    "time": 172.9236600000011,
                    "velocity": 0.2204724409448819,
                    "duration": 0.147420000000011
                },
                {
                    "name": "C2",
                    "midi": 36,
                    "time": 173.3659200000011,
                    "velocity": 0.25196850393700787,
                    "duration": 0.147420000000011
                },
                {
                    "name": "C3",
                    "midi": 48,
                    "time": 173.5133400000011,
                    "velocity": 0.2204724409448819,
                    "duration": 0.147420000000011
                },
                {
                    "name": "C2",
                    "midi": 36,
                    "time": 173.9556000000011,
                    "velocity": 0.25196850393700787,
                    "duration": 0.147420000000011
                },
                {
                    "name": "C3",
                    "midi": 48,
                    "time": 174.10302000000112,
                    "velocity": 0.2125984251968504,
                    "duration": 0.147420000000011
                },
                {
                    "name": "G#1",
                    "midi": 32,
                    "time": 174.54528000000113,
                    "velocity": 0.28346456692913385,
                    "duration": 0.147420000000011
                },
                {
                    "name": "G#2",
                    "midi": 44,
                    "time": 174.69270000000114,
                    "velocity": 0.25196850393700787,
                    "duration": 0.147420000000011
                },
                {
                    "name": "G#1",
                    "midi": 32,
                    "time": 175.13496000000114,
                    "velocity": 0.33070866141732286,
                    "duration": 0.147420000000011
                },
                {
                    "name": "G#2",
                    "midi": 44,
                    "time": 175.28238000000115,
                    "velocity": 0.2992125984251969,
                    "duration": 0.147420000000011
                },
                {
                    "name": "G#1",
                    "midi": 32,
                    "time": 175.72464000000116,
                    "velocity": 0.4330708661417323,
                    "duration": 0.147420000000011
                },
                {
                    "name": "G#2",
                    "midi": 44,
                    "time": 175.87206000000117,
                    "velocity": 0.4015748031496063,
                    "duration": 0.147420000000011
                },
                {
                    "name": "G#1",
                    "midi": 32,
                    "time": 176.31432000000117,
                    "velocity": 0.5039370078740157,
                    "duration": 0.147420000000011
                },
                {
                    "name": "G#2",
                    "midi": 44,
                    "time": 176.46174000000119,
                    "velocity": 0.4409448818897638,
                    "duration": 0.147420000000011
                },
                {
                    "name": "G#1",
                    "midi": 32,
                    "time": 176.9040000000012,
                    "velocity": 0.5118110236220472,
                    "duration": 2.9483999999999924
                },
                {
                    "name": "G#2",
                    "midi": 44,
                    "time": 176.9040000000012,
                    "velocity": 0.5511811023622047,
                    "duration": 2.9483999999999924
                },
                {
                    "name": "C#2",
                    "midi": 37,
                    "time": 180.44208000000117,
                    "velocity": 0.16535433070866143,
                    "duration": 0.5896799999999871
                },
                {
                    "name": "C#3",
                    "midi": 49,
                    "time": 180.44208000000117,
                    "velocity": 0.2047244094488189,
                    "duration": 0.5896799999999871
                },
                {
                    "name": "F#2",
                    "midi": 42,
                    "time": 181.03176000000116,
                    "velocity": 0.15748031496062992,
                    "duration": 0.0737100000000055
                },
                {
                    "name": "C3",
                    "midi": 48,
                    "time": 181.03176000000116,
                    "velocity": 0.1968503937007874,
                    "duration": 0.0737100000000055
                },
                {
                    "name": "F2",
                    "midi": 41,
                    "time": 181.32660000000115,
                    "velocity": 0.14960629921259844,
                    "duration": 0.0737100000000055
                },
                {
                    "name": "C#3",
                    "midi": 49,
                    "time": 181.32660000000115,
                    "velocity": 0.18110236220472442,
                    "duration": 0.0737100000000055
                },
                {
                    "name": "G#2",
                    "midi": 44,
                    "time": 181.62144000000114,
                    "velocity": 0.1732283464566929,
                    "duration": 0.7370999999999981
                },
                {
                    "name": "D#3",
                    "midi": 51,
                    "time": 181.62144000000114,
                    "velocity": 0.2125984251968504,
                    "duration": 0.7370999999999981
                },
                {
                    "name": "C#2",
                    "midi": 37,
                    "time": 182.80080000000115,
                    "velocity": 0.16535433070866143,
                    "duration": 0.5896799999999871
                },
                {
                    "name": "C#3",
                    "midi": 49,
                    "time": 182.80080000000115,
                    "velocity": 0.2047244094488189,
                    "duration": 0.5896799999999871
                },
                {
                    "name": "F#1",
                    "midi": 30,
                    "time": 183.39048000000113,
                    "velocity": 0.15748031496062992,
                    "duration": 0.0737100000000055
                },
                {
                    "name": "F#2",
                    "midi": 42,
                    "time": 183.39048000000113,
                    "velocity": 0.1968503937007874,
                    "duration": 0.0737100000000055
                },
                {
                    "name": "G1",
                    "midi": 31,
                    "time": 183.68532000000113,
                    "velocity": 0.14960629921259844,
                    "duration": 0.0737100000000055
                },
                {
                    "name": "G2",
                    "midi": 43,
                    "time": 183.68532000000113,
                    "velocity": 0.18110236220472442,
                    "duration": 0.0737100000000055
                },
                {
                    "name": "G#1",
                    "midi": 32,
                    "time": 183.98016000000112,
                    "velocity": 0.14173228346456693,
                    "duration": 0.5896799999999871
                },
                {
                    "name": "G#2",
                    "midi": 44,
                    "time": 183.98016000000112,
                    "velocity": 0.1732283464566929,
                    "duration": 0.5896799999999871
                },
                {
                    "name": "C#2",
                    "midi": 37,
                    "time": 185.1595200000011,
                    "velocity": 0.16535433070866143,
                    "duration": 0.5896799999999871
                },
                {
                    "name": "C#3",
                    "midi": 49,
                    "time": 185.1595200000011,
                    "velocity": 0.2047244094488189,
                    "duration": 0.5896799999999871
                },
                {
                    "name": "F#2",
                    "midi": 42,
                    "time": 185.74920000000108,
                    "velocity": 0.15748031496062992,
                    "duration": 0.0737100000000055
                },
                {
                    "name": "C3",
                    "midi": 48,
                    "time": 185.74920000000108,
                    "velocity": 0.1968503937007874,
                    "duration": 0.0737100000000055
                },
                {
                    "name": "F2",
                    "midi": 41,
                    "time": 186.04404000000108,
                    "velocity": 0.14960629921259844,
                    "duration": 0.0737100000000055
                },
                {
                    "name": "C#3",
                    "midi": 49,
                    "time": 186.04404000000108,
                    "velocity": 0.18110236220472442,
                    "duration": 0.0737100000000055
                },
                {
                    "name": "G#2",
                    "midi": 44,
                    "time": 186.33888000000107,
                    "velocity": 0.1889763779527559,
                    "duration": 1.1793600000000026
                },
                {
                    "name": "C3",
                    "midi": 48,
                    "time": 186.33888000000107,
                    "velocity": 0.1889763779527559,
                    "duration": 1.1793600000000026
                },
                {
                    "name": "D#3",
                    "midi": 51,
                    "time": 186.33888000000107,
                    "velocity": 0.2204724409448819,
                    "duration": 1.1793600000000026
                },
                {
                    "name": "A1",
                    "midi": 33,
                    "time": 187.51824000000107,
                    "velocity": 0.23622047244094488,
                    "duration": 0.04913999999999419
                },
                {
                    "name": "C2",
                    "midi": 36,
                    "time": 187.56738000000107,
                    "velocity": 0.25196850393700787,
                    "duration": 0.04913999999999419
                },
                {
                    "name": "D#2",
                    "midi": 39,
                    "time": 187.61652000000106,
                    "velocity": 0.25984251968503935,
                    "duration": 0.04913999999999419
                },
                {
                    "name": "F#2",
                    "midi": 42,
                    "time": 187.66566000000105,
                    "velocity": 0.2677165354330709,
                    "duration": 0.04914000000002261
                },
                {
                    "name": "A2",
                    "midi": 45,
                    "time": 187.71418575000106,
                    "velocity": 0.28346456692913385,
                    "duration": 1.5694087499999796
                },
                {
                    "name": "C3",
                    "midi": 48,
                    "time": 187.77929625000107,
                    "velocity": 0.29133858267716534,
                    "duration": 1.5079837499999655
                },
                {
                    "name": "D#3",
                    "midi": 51,
                    "time": 187.84502100000105,
                    "velocity": 0.30708661417322836,
                    "duration": 1.4422589999999786
                },
                {
                    "name": "G1",
                    "midi": 31,
                    "time": 189.28728000000103,
                    "velocity": 0.47244094488188976,
                    "duration": 0.0657247499999869
                },
                {
                    "name": "C2",
                    "midi": 36,
                    "time": 189.35300475000102,
                    "velocity": 0.48031496062992124,
                    "duration": 0.06511050000000296
                },
                {
                    "name": "D#2",
                    "midi": 39,
                    "time": 189.41811525000102,
                    "velocity": 0.4881889763779528,
                    "duration": 0.06572475000001532
                },
                {
                    "name": "G2",
                    "midi": 43,
                    "time": 189.48322575000103,
                    "velocity": 0.49606299212598426,
                    "duration": 0.06572475000001532
                },
                {
                    "name": "C3",
                    "midi": 48,
                    "time": 189.54895050000104,
                    "velocity": 0.49606299212598426,
                    "duration": 0.06511050000000296
                },
                {
                    "name": "D#3",
                    "midi": 51,
                    "time": 189.61406100000104,
                    "velocity": 0.5039370078740157,
                    "duration": 0.0657247499999869
                },
                {
                    "name": "D#3",
                    "midi": 51,
                    "time": 190.46664000000104,
                    "velocity": 0.5511811023622047,
                    "duration": 0.0737100000000055
                },
                {
                    "name": "C3",
                    "midi": 48,
                    "time": 190.61406000000105,
                    "velocity": 0.44881889763779526,
                    "duration": 0.0737100000000055
                },
                {
                    "name": "G1",
                    "midi": 31,
                    "time": 190.76148000000106,
                    "velocity": 0.33070866141732286,
                    "duration": 0.294840000000022
                },
                {
                    "name": "G2",
                    "midi": 43,
                    "time": 190.76148000000106,
                    "velocity": 0.33070866141732286,
                    "duration": 0.294840000000022
                },
                {
                    "name": "B2",
                    "midi": 47,
                    "time": 190.76148000000106,
                    "velocity": 0.49606299212598426,
                    "duration": 0.0737100000000055
                },
                {
                    "name": "D3",
                    "midi": 50,
                    "time": 190.90890000000107,
                    "velocity": 0.41732283464566927,
                    "duration": 0.0737100000000055
                },
                {
                    "name": "C3",
                    "midi": 48,
                    "time": 191.05632000000108,
                    "velocity": 0.33858267716535434,
                    "duration": 0.147420000000011
                },
                {
                    "name": "C2",
                    "midi": 36,
                    "time": 191.05632000000108,
                    "velocity": 0.5039370078740157,
                    "duration": 0.0737100000000055
                },
                {
                    "name": "C3",
                    "midi": 48,
                    "time": 191.2037400000011,
                    "velocity": 0.2992125984251969,
                    "duration": 0.0737100000000055
                },
                {
                    "name": "C3",
                    "midi": 48,
                    "time": 191.3511600000011,
                    "velocity": 0.2992125984251969,
                    "duration": 0.0737100000000055
                },
                {
                    "name": "C3",
                    "midi": 48,
                    "time": 191.4985800000011,
                    "velocity": 0.2992125984251969,
                    "duration": 0.0737100000000055
                },
                {
                    "name": "C3",
                    "midi": 48,
                    "time": 191.64600000000112,
                    "velocity": 0.3228346456692913,
                    "duration": 0.0737100000000055
                },
                {
                    "name": "A#3",
                    "midi": 58,
                    "time": 191.79342000000113,
                    "velocity": 0.29133858267716534,
                    "duration": 0.0737100000000055
                },
                {
                    "name": "G3",
                    "midi": 55,
                    "time": 191.79342000000113,
                    "velocity": 0.2440944881889764,
                    "duration": 0.0737100000000055
                },
                {
                    "name": "A#3",
                    "midi": 58,
                    "time": 191.94084000000115,
                    "velocity": 0.29133858267716534,
                    "duration": 0.0737100000000055
                },
                {
                    "name": "G3",
                    "midi": 55,
                    "time": 191.94084000000115,
                    "velocity": 0.2440944881889764,
                    "duration": 0.0737100000000055
                },
                {
                    "name": "A#3",
                    "midi": 58,
                    "time": 192.08826000000116,
                    "velocity": 0.29133858267716534,
                    "duration": 0.0737100000000055
                },
                {
                    "name": "G3",
                    "midi": 55,
                    "time": 192.08826000000116,
                    "velocity": 0.2440944881889764,
                    "duration": 0.0737100000000055
                },
                {
                    "name": "C3",
                    "midi": 48,
                    "time": 192.23568000000117,
                    "velocity": 0.33858267716535434,
                    "duration": 0.0737100000000055
                },
                {
                    "name": "F3",
                    "midi": 53,
                    "time": 192.38310000000118,
                    "velocity": 0.2440944881889764,
                    "duration": 0.0737100000000055
                },
                {
                    "name": "G#3",
                    "midi": 56,
                    "time": 192.38310000000118,
                    "velocity": 0.28346456692913385,
                    "duration": 0.0737100000000055
                },
                {
                    "name": "F3",
                    "midi": 53,
                    "time": 192.5305200000012,
                    "velocity": 0.2440944881889764,
                    "duration": 0.0737100000000055
                },
                {
                    "name": "G#3",
                    "midi": 56,
                    "time": 192.5305200000012,
                    "velocity": 0.28346456692913385,
                    "duration": 0.0737100000000055
                },
                {
                    "name": "F3",
                    "midi": 53,
                    "time": 192.6779400000012,
                    "velocity": 0.2440944881889764,
                    "duration": 0.0737100000000055
                },
                {
                    "name": "G#3",
                    "midi": 56,
                    "time": 192.6779400000012,
                    "velocity": 0.28346456692913385,
                    "duration": 0.0737100000000055
                },
                {
                    "name": "C3",
                    "midi": 48,
                    "time": 192.8253600000012,
                    "velocity": 0.3228346456692913,
                    "duration": 0.0737100000000055
                },
                {
                    "name": "B3",
                    "midi": 59,
                    "time": 192.97278000000122,
                    "velocity": 0.28346456692913385,
                    "duration": 0.0737100000000055
                },
                {
                    "name": "G#3",
                    "midi": 56,
                    "time": 192.97278000000122,
                    "velocity": 0.2440944881889764,
                    "duration": 0.0737100000000055
                },
                {
                    "name": "F3",
                    "midi": 53,
                    "time": 192.97278000000122,
                    "velocity": 0.2440944881889764,
                    "duration": 0.0737100000000055
                },
                {
                    "name": "B3",
                    "midi": 59,
                    "time": 193.12020000000123,
                    "velocity": 0.28346456692913385,
                    "duration": 0.0737100000000055
                },
                {
                    "name": "G#3",
                    "midi": 56,
                    "time": 193.12020000000123,
                    "velocity": 0.2440944881889764,
                    "duration": 0.0737100000000055
                },
                {
                    "name": "F3",
                    "midi": 53,
                    "time": 193.12020000000123,
                    "velocity": 0.2440944881889764,
                    "duration": 0.0737100000000055
                },
                {
                    "name": "B3",
                    "midi": 59,
                    "time": 193.26762000000124,
                    "velocity": 0.28346456692913385,
                    "duration": 0.0737100000000055
                },
                {
                    "name": "G#3",
                    "midi": 56,
                    "time": 193.26762000000124,
                    "velocity": 0.2440944881889764,
                    "duration": 0.0737100000000055
                },
                {
                    "name": "F3",
                    "midi": 53,
                    "time": 193.26762000000124,
                    "velocity": 0.2440944881889764,
                    "duration": 0.0737100000000055
                },
                {
                    "name": "C3",
                    "midi": 48,
                    "time": 193.41504000000126,
                    "velocity": 0.33858267716535434,
                    "duration": 0.147420000000011
                },
                {
                    "name": "E3",
                    "midi": 52,
                    "time": 193.56246000000127,
                    "velocity": 0.25196850393700787,
                    "duration": 0.0737100000000055
                },
                {
                    "name": "G3",
                    "midi": 55,
                    "time": 193.56246000000127,
                    "velocity": 0.25196850393700787,
                    "duration": 0.0737100000000055
                },
                {
                    "name": "C4",
                    "midi": 60,
                    "time": 193.56246000000127,
                    "velocity": 0.2992125984251969,
                    "duration": 0.0737100000000055
                },
                {
                    "name": "E3",
                    "midi": 52,
                    "time": 193.70988000000128,
                    "velocity": 0.25196850393700787,
                    "duration": 0.0737100000000055
                },
                {
                    "name": "G3",
                    "midi": 55,
                    "time": 193.70988000000128,
                    "velocity": 0.25196850393700787,
                    "duration": 0.0737100000000055
                },
                {
                    "name": "C4",
                    "midi": 60,
                    "time": 193.70988000000128,
                    "velocity": 0.2992125984251969,
                    "duration": 0.0737100000000055
                },
                {
                    "name": "E3",
                    "midi": 52,
                    "time": 193.8573000000013,
                    "velocity": 0.25196850393700787,
                    "duration": 0.0737100000000055
                },
                {
                    "name": "G3",
                    "midi": 55,
                    "time": 193.8573000000013,
                    "velocity": 0.25196850393700787,
                    "duration": 0.0737100000000055
                },
                {
                    "name": "C4",
                    "midi": 60,
                    "time": 193.8573000000013,
                    "velocity": 0.2992125984251969,
                    "duration": 0.0737100000000055
                },
                {
                    "name": "C3",
                    "midi": 48,
                    "time": 194.0047200000013,
                    "velocity": 0.3228346456692913,
                    "duration": 0.0737100000000055
                },
                {
                    "name": "A#3",
                    "midi": 58,
                    "time": 194.1521400000013,
                    "velocity": 0.29133858267716534,
                    "duration": 0.0737100000000055
                },
                {
                    "name": "G3",
                    "midi": 55,
                    "time": 194.1521400000013,
                    "velocity": 0.2440944881889764,
                    "duration": 0.0737100000000055
                },
                {
                    "name": "A#3",
                    "midi": 58,
                    "time": 194.29956000000132,
                    "velocity": 0.29133858267716534,
                    "duration": 0.0737100000000055
                },
                {
                    "name": "G3",
                    "midi": 55,
                    "time": 194.29956000000132,
                    "velocity": 0.2440944881889764,
                    "duration": 0.0737100000000055
                },
                {
                    "name": "A#3",
                    "midi": 58,
                    "time": 194.44698000000133,
                    "velocity": 0.29133858267716534,
                    "duration": 0.0737100000000055
                },
                {
                    "name": "G3",
                    "midi": 55,
                    "time": 194.44698000000133,
                    "velocity": 0.2440944881889764,
                    "duration": 0.0737100000000055
                },
                {
                    "name": "C3",
                    "midi": 48,
                    "time": 194.59440000000134,
                    "velocity": 0.33858267716535434,
                    "duration": 0.0737100000000055
                },
                {
                    "name": "F3",
                    "midi": 53,
                    "time": 194.74182000000135,
                    "velocity": 0.2440944881889764,
                    "duration": 0.0737100000000055
                },
                {
                    "name": "G#3",
                    "midi": 56,
                    "time": 194.74182000000135,
                    "velocity": 0.28346456692913385,
                    "duration": 0.0737100000000055
                },
                {
                    "name": "F3",
                    "midi": 53,
                    "time": 194.88924000000137,
                    "velocity": 0.2440944881889764,
                    "duration": 0.0737100000000055
                },
                {
                    "name": "G#3",
                    "midi": 56,
                    "time": 194.88924000000137,
                    "velocity": 0.28346456692913385,
                    "duration": 0.0737100000000055
                },
                {
                    "name": "F3",
                    "midi": 53,
                    "time": 195.03666000000138,
                    "velocity": 0.2440944881889764,
                    "duration": 0.0737100000000055
                },
                {
                    "name": "G#3",
                    "midi": 56,
                    "time": 195.03666000000138,
                    "velocity": 0.28346456692913385,
                    "duration": 0.0737100000000055
                },
                {
                    "name": "C3",
                    "midi": 48,
                    "time": 195.1840800000014,
                    "velocity": 0.3228346456692913,
                    "duration": 0.0737100000000055
                },
                {
                    "name": "B3",
                    "midi": 59,
                    "time": 195.3315000000014,
                    "velocity": 0.28346456692913385,
                    "duration": 0.0737100000000055
                },
                {
                    "name": "G#3",
                    "midi": 56,
                    "time": 195.3315000000014,
                    "velocity": 0.2440944881889764,
                    "duration": 0.0737100000000055
                },
                {
                    "name": "F3",
                    "midi": 53,
                    "time": 195.3315000000014,
                    "velocity": 0.2440944881889764,
                    "duration": 0.0737100000000055
                },
                {
                    "name": "B3",
                    "midi": 59,
                    "time": 195.4789200000014,
                    "velocity": 0.28346456692913385,
                    "duration": 0.0737100000000055
                },
                {
                    "name": "G#3",
                    "midi": 56,
                    "time": 195.4789200000014,
                    "velocity": 0.2440944881889764,
                    "duration": 0.0737100000000055
                },
                {
                    "name": "F3",
                    "midi": 53,
                    "time": 195.4789200000014,
                    "velocity": 0.2440944881889764,
                    "duration": 0.0737100000000055
                },
                {
                    "name": "B3",
                    "midi": 59,
                    "time": 195.62634000000142,
                    "velocity": 0.28346456692913385,
                    "duration": 0.0737100000000055
                },
                {
                    "name": "G#3",
                    "midi": 56,
                    "time": 195.62634000000142,
                    "velocity": 0.2440944881889764,
                    "duration": 0.0737100000000055
                },
                {
                    "name": "F3",
                    "midi": 53,
                    "time": 195.62634000000142,
                    "velocity": 0.2440944881889764,
                    "duration": 0.0737100000000055
                },
                {
                    "name": "C3",
                    "midi": 48,
                    "time": 195.77376000000143,
                    "velocity": 0.33858267716535434,
                    "duration": 0.147420000000011
                },
                {
                    "name": "E3",
                    "midi": 52,
                    "time": 195.92118000000144,
                    "velocity": 0.25196850393700787,
                    "duration": 0.0737100000000055
                },
                {
                    "name": "G3",
                    "midi": 55,
                    "time": 195.92118000000144,
                    "velocity": 0.25196850393700787,
                    "duration": 0.0737100000000055
                },
                {
                    "name": "C4",
                    "midi": 60,
                    "time": 195.92118000000144,
                    "velocity": 0.2992125984251969,
                    "duration": 0.0737100000000055
                },
                {
                    "name": "E3",
                    "midi": 52,
                    "time": 196.06860000000145,
                    "velocity": 0.25196850393700787,
                    "duration": 0.0737100000000055
                },
                {
                    "name": "G3",
                    "midi": 55,
                    "time": 196.06860000000145,
                    "velocity": 0.25196850393700787,
                    "duration": 0.0737100000000055
                },
                {
                    "name": "C4",
                    "midi": 60,
                    "time": 196.06860000000145,
                    "velocity": 0.2992125984251969,
                    "duration": 0.0737100000000055
                },
                {
                    "name": "E3",
                    "midi": 52,
                    "time": 196.21602000000146,
                    "velocity": 0.25196850393700787,
                    "duration": 0.0737100000000055
                },
                {
                    "name": "G3",
                    "midi": 55,
                    "time": 196.21602000000146,
                    "velocity": 0.25196850393700787,
                    "duration": 0.0737100000000055
                },
                {
                    "name": "C4",
                    "midi": 60,
                    "time": 196.21602000000146,
                    "velocity": 0.2992125984251969,
                    "duration": 0.0737100000000055
                },
                {
                    "name": "C3",
                    "midi": 48,
                    "time": 196.36344000000148,
                    "velocity": 0.31496062992125984,
                    "duration": 0.0737100000000055
                },
                {
                    "name": "B3",
                    "midi": 59,
                    "time": 196.5108600000015,
                    "velocity": 0.28346456692913385,
                    "duration": 0.0737100000000055
                },
                {
                    "name": "G#3",
                    "midi": 56,
                    "time": 196.5108600000015,
                    "velocity": 0.23622047244094488,
                    "duration": 0.0737100000000055
                },
                {
                    "name": "F3",
                    "midi": 53,
                    "time": 196.5108600000015,
                    "velocity": 0.23622047244094488,
                    "duration": 0.0737100000000055
                },
                {
                    "name": "B3",
                    "midi": 59,
                    "time": 196.6582800000015,
                    "velocity": 0.2755905511811024,
                    "duration": 0.0737100000000055
                },
                {
                    "name": "G#3",
                    "midi": 56,
                    "time": 196.6582800000015,
                    "velocity": 0.2283464566929134,
                    "duration": 0.0737100000000055
                },
                {
                    "name": "F3",
                    "midi": 53,
                    "time": 196.6582800000015,
                    "velocity": 0.2283464566929134,
                    "duration": 0.0737100000000055
                },
                {
                    "name": "B3",
                    "midi": 59,
                    "time": 196.8057000000015,
                    "velocity": 0.2677165354330709,
                    "duration": 0.0737100000000055
                },
                {
                    "name": "G#3",
                    "midi": 56,
                    "time": 196.8057000000015,
                    "velocity": 0.2283464566929134,
                    "duration": 0.0737100000000055
                },
                {
                    "name": "F3",
                    "midi": 53,
                    "time": 196.8057000000015,
                    "velocity": 0.2283464566929134,
                    "duration": 0.0737100000000055
                },
                {
                    "name": "C3",
                    "midi": 48,
                    "time": 196.95312000000152,
                    "velocity": 0.31496062992125984,
                    "duration": 0.147420000000011
                },
                {
                    "name": "E3",
                    "midi": 52,
                    "time": 197.10054000000153,
                    "velocity": 0.2283464566929134,
                    "duration": 0.0737100000000055
                },
                {
                    "name": "G3",
                    "midi": 55,
                    "time": 197.10054000000153,
                    "velocity": 0.2283464566929134,
                    "duration": 0.0737100000000055
                },
                {
                    "name": "C4",
                    "midi": 60,
                    "time": 197.10054000000153,
                    "velocity": 0.2755905511811024,
                    "duration": 0.0737100000000055
                },
                {
                    "name": "E3",
                    "midi": 52,
                    "time": 197.24796000000154,
                    "velocity": 0.2283464566929134,
                    "duration": 0.0737100000000055
                },
                {
                    "name": "G3",
                    "midi": 55,
                    "time": 197.24796000000154,
                    "velocity": 0.2283464566929134,
                    "duration": 0.0737100000000055
                },
                {
                    "name": "C4",
                    "midi": 60,
                    "time": 197.24796000000154,
                    "velocity": 0.2755905511811024,
                    "duration": 0.0737100000000055
                },
                {
                    "name": "E3",
                    "midi": 52,
                    "time": 197.39538000000155,
                    "velocity": 0.2204724409448819,
                    "duration": 0.0737100000000055
                },
                {
                    "name": "G3",
                    "midi": 55,
                    "time": 197.39538000000155,
                    "velocity": 0.2204724409448819,
                    "duration": 0.0737100000000055
                },
                {
                    "name": "C4",
                    "midi": 60,
                    "time": 197.39538000000155,
                    "velocity": 0.2677165354330709,
                    "duration": 0.0737100000000055
                },
                {
                    "name": "C3",
                    "midi": 48,
                    "time": 197.54280000000156,
                    "velocity": 0.28346456692913385,
                    "duration": 0.0737100000000055
                },
                {
                    "name": "B3",
                    "midi": 59,
                    "time": 197.69022000000157,
                    "velocity": 0.25196850393700787,
                    "duration": 0.0737100000000055
                },
                {
                    "name": "G#3",
                    "midi": 56,
                    "time": 197.69022000000157,
                    "velocity": 0.2125984251968504,
                    "duration": 0.0737100000000055
                },
                {
                    "name": "F3",
                    "midi": 53,
                    "time": 197.69022000000157,
                    "velocity": 0.2125984251968504,
                    "duration": 0.0737100000000055
                },
                {
                    "name": "B3",
                    "midi": 59,
                    "time": 197.83764000000158,
                    "velocity": 0.2440944881889764,
                    "duration": 0.0737100000000055
                },
                {
                    "name": "G#3",
                    "midi": 56,
                    "time": 197.83764000000158,
                    "velocity": 0.2125984251968504,
                    "duration": 0.0737100000000055
                },
                {
                    "name": "F3",
                    "midi": 53,
                    "time": 197.83764000000158,
                    "velocity": 0.2125984251968504,
                    "duration": 0.0737100000000055
                },
                {
                    "name": "B3",
                    "midi": 59,
                    "time": 197.9850600000016,
                    "velocity": 0.23622047244094488,
                    "duration": 0.0737100000000055
                },
                {
                    "name": "G#3",
                    "midi": 56,
                    "time": 197.9850600000016,
                    "velocity": 0.2047244094488189,
                    "duration": 0.0737100000000055
                },
                {
                    "name": "F3",
                    "midi": 53,
                    "time": 197.9850600000016,
                    "velocity": 0.2047244094488189,
                    "duration": 0.0737100000000055
                },
                {
                    "name": "C3",
                    "midi": 48,
                    "time": 198.1324800000016,
                    "velocity": 0.25196850393700787,
                    "duration": 0.147420000000011
                },
                {
                    "name": "E3",
                    "midi": 52,
                    "time": 198.27990000000162,
                    "velocity": 0.18110236220472442,
                    "duration": 0.0737100000000055
                },
                {
                    "name": "G3",
                    "midi": 55,
                    "time": 198.27990000000162,
                    "velocity": 0.18110236220472442,
                    "duration": 0.0737100000000055
                },
                {
                    "name": "C4",
                    "midi": 60,
                    "time": 198.27990000000162,
                    "velocity": 0.2125984251968504,
                    "duration": 0.0737100000000055
                },
                {
                    "name": "E3",
                    "midi": 52,
                    "time": 198.42732000000163,
                    "velocity": 0.18110236220472442,
                    "duration": 0.0737100000000055
                },
                {
                    "name": "G3",
                    "midi": 55,
                    "time": 198.42732000000163,
                    "velocity": 0.18110236220472442,
                    "duration": 0.0737100000000055
                },
                {
                    "name": "C4",
                    "midi": 60,
                    "time": 198.42732000000163,
                    "velocity": 0.2125984251968504,
                    "duration": 0.0737100000000055
                },
                {
                    "name": "E3",
                    "midi": 52,
                    "time": 198.57474000000164,
                    "velocity": 0.1732283464566929,
                    "duration": 0.0737100000000055
                },
                {
                    "name": "G3",
                    "midi": 55,
                    "time": 198.57474000000164,
                    "velocity": 0.1732283464566929,
                    "duration": 0.0737100000000055
                },
                {
                    "name": "C4",
                    "midi": 60,
                    "time": 198.57474000000164,
                    "velocity": 0.2125984251968504,
                    "duration": 0.0737100000000055
                },
                {
                    "name": "C3",
                    "midi": 48,
                    "time": 198.72216000000165,
                    "velocity": 0.25196850393700787,
                    "duration": 0.147420000000011
                },
                {
                    "name": "E3",
                    "midi": 52,
                    "time": 198.86958000000166,
                    "velocity": 0.1732283464566929,
                    "duration": 0.0737100000000055
                },
                {
                    "name": "G3",
                    "midi": 55,
                    "time": 198.86958000000166,
                    "velocity": 0.1732283464566929,
                    "duration": 0.0737100000000055
                },
                {
                    "name": "C4",
                    "midi": 60,
                    "time": 198.86958000000166,
                    "velocity": 0.2047244094488189,
                    "duration": 0.0737100000000055
                },
                {
                    "name": "E3",
                    "midi": 52,
                    "time": 199.01700000000167,
                    "velocity": 0.16535433070866143,
                    "duration": 0.0737100000000055
                },
                {
                    "name": "G3",
                    "midi": 55,
                    "time": 199.01700000000167,
                    "velocity": 0.16535433070866143,
                    "duration": 0.0737100000000055
                },
                {
                    "name": "C4",
                    "midi": 60,
                    "time": 199.01700000000167,
                    "velocity": 0.2047244094488189,
                    "duration": 0.0737100000000055
                },
                {
                    "name": "E3",
                    "midi": 52,
                    "time": 199.16442000000168,
                    "velocity": 0.16535433070866143,
                    "duration": 0.0737100000000055
                },
                {
                    "name": "G3",
                    "midi": 55,
                    "time": 199.16442000000168,
                    "velocity": 0.16535433070866143,
                    "duration": 0.0737100000000055
                },
                {
                    "name": "C4",
                    "midi": 60,
                    "time": 199.16442000000168,
                    "velocity": 0.1968503937007874,
                    "duration": 0.0737100000000055
                },
                {
                    "name": "C3",
                    "midi": 48,
                    "time": 199.3118400000017,
                    "velocity": 0.15748031496062992,
                    "duration": 0.29483999999999355
                },
                {
                    "name": "E3",
                    "midi": 52,
                    "time": 199.3118400000017,
                    "velocity": 0.15748031496062992,
                    "duration": 0.29483999999999355
                },
                {
                    "name": "G3",
                    "midi": 55,
                    "time": 199.3118400000017,
                    "velocity": 0.1889763779527559,
                    "duration": 0.29483999999999355
                }
            ],
            "controlChanges": {},
            "id": 2,
            "name": "Piano left",
            "instrumentNumber": 0,
            "instrument": "acoustic grand piano",
            "instrumentFamily": "piano",
            "channelNumber": 0,
            "isPercussion": false
        },
        {
            "startTime": 0,
            "duration": 0,
            "length": 0,
            "notes": [],
            "controlChanges": {
                "64": [
                    {
                        "number": 64,
                        "time": 0.6375915,
                        "value": 1
                    },
                    {
                        "number": 64,
                        "time": 0.744471,
                        "value": 0
                    },
                    {
                        "number": 64,
                        "time": 1.8169515,
                        "value": 1
                    },
                    {
                        "number": 64,
                        "time": 1.9269022500000001,
                        "value": 0
                    },
                    {
                        "number": 64,
                        "time": 3.0006112500000004,
                        "value": 1
                    },
                    {
                        "number": 64,
                        "time": 3.1087192500000005,
                        "value": 0
                    },
                    {
                        "number": 64,
                        "time": 3.5399227500000006,
                        "value": 1
                    },
                    {
                        "number": 64,
                        "time": 3.8396767500000006,
                        "value": 0
                    },
                    {
                        "number": 64,
                        "time": 3.8734605000000006,
                        "value": 1
                    },
                    {
                        "number": 64,
                        "time": 4.14188775,
                        "value": 0
                    },
                    {
                        "number": 64,
                        "time": 4.1805855,
                        "value": 1
                    },
                    {
                        "number": 64,
                        "time": 4.42935675,
                        "value": 0
                    },
                    {
                        "number": 64,
                        "time": 4.44717,
                        "value": 1
                    },
                    {
                        "number": 64,
                        "time": 4.71744,
                        "value": 0
                    },
                    {
                        "number": 64,
                        "time": 5.37653025,
                        "value": 1
                    },
                    {
                        "number": 64,
                        "time": 5.46375375,
                        "value": 0
                    },
                    {
                        "number": 64,
                        "time": 6.5171925,
                        "value": 1
                    },
                    {
                        "number": 64,
                        "time": 6.643728,
                        "value": 0
                    },
                    {
                        "number": 64,
                        "time": 9.43488,
                        "value": 1
                    },
                    {
                        "number": 64,
                        "time": 10.02885975,
                        "value": 0
                    },
                    {
                        "number": 64,
                        "time": 10.070628750000001,
                        "value": 1
                    },
                    {
                        "number": 64,
                        "time": 10.17996525,
                        "value": 0
                    },
                    {
                        "number": 64,
                        "time": 10.62713925,
                        "value": 1
                    },
                    {
                        "number": 64,
                        "time": 11.21436225,
                        "value": 0
                    },
                    {
                        "number": 64,
                        "time": 11.25981675,
                        "value": 1
                    },
                    {
                        "number": 64,
                        "time": 11.5049025,
                        "value": 0
                    },
                    {
                        "number": 64,
                        "time": 11.54237175,
                        "value": 1
                    },
                    {
                        "number": 64,
                        "time": 11.804042249999998,
                        "value": 0
                    },
                    {
                        "number": 64,
                        "time": 11.832297749999999,
                        "value": 1
                    },
                    {
                        "number": 64,
                        "time": 11.9471625,
                        "value": 0
                    },
                    {
                        "number": 64,
                        "time": 12.415220999999999,
                        "value": 1
                    },
                    {
                        "number": 64,
                        "time": 12.536842499999999,
                        "value": 0
                    },
                    {
                        "number": 64,
                        "time": 12.985244999999999,
                        "value": 1
                    },
                    {
                        "number": 64,
                        "time": 13.277013749999998,
                        "value": 0
                    },
                    {
                        "number": 64,
                        "time": 13.297898249999998,
                        "value": 1
                    },
                    {
                        "number": 64,
                        "time": 13.574924999999997,
                        "value": 0
                    },
                    {
                        "number": 64,
                        "time": 13.606865999999997,
                        "value": 1
                    },
                    {
                        "number": 64,
                        "time": 13.862393999999997,
                        "value": 0
                    },
                    {
                        "number": 64,
                        "time": 13.892492249999997,
                        "value": 1
                    },
                    {
                        "number": 64,
                        "time": 14.152319999999996,
                        "value": 0
                    },
                    {
                        "number": 64,
                        "time": 14.208830999999996,
                        "value": 1
                    },
                    {
                        "number": 64,
                        "time": 14.447159999999997,
                        "value": 0
                    },
                    {
                        "number": 64,
                        "time": 14.633277749999996,
                        "value": 1
                    },
                    {
                        "number": 64,
                        "time": 14.747528249999997,
                        "value": 0
                    },
                    {
                        "number": 64,
                        "time": 14.794825499999996,
                        "value": 1
                    },
                    {
                        "number": 64,
                        "time": 15.005513249999996,
                        "value": 0
                    },
                    {
                        "number": 64,
                        "time": 15.219272249999996,
                        "value": 1
                    },
                    {
                        "number": 64,
                        "time": 15.331679999999995,
                        "value": 0
                    },
                    {
                        "number": 64,
                        "time": 15.380819999999995,
                        "value": 1
                    },
                    {
                        "number": 64,
                        "time": 15.485242499999995,
                        "value": 0
                    },
                    {
                        "number": 64,
                        "time": 15.794824499999995,
                        "value": 1
                    },
                    {
                        "number": 64,
                        "time": 15.926888249999996,
                        "value": 0
                    },
                    {
                        "number": 64,
                        "time": 16.005512249999995,
                        "value": 1
                    },
                    {
                        "number": 64,
                        "time": 16.074922499999996,
                        "value": 0
                    },
                    {
                        "number": 64,
                        "time": 16.406003249999998,
                        "value": 1
                    },
                    {
                        "number": 64,
                        "time": 16.52025375,
                        "value": 0
                    },
                    {
                        "number": 64,
                        "time": 16.57062225,
                        "value": 1
                    },
                    {
                        "number": 64,
                        "time": 16.66521675,
                        "value": 0
                    },
                    {
                        "number": 64,
                        "time": 16.9815555,
                        "value": 1
                    },
                    {
                        "number": 64,
                        "time": 17.11484775,
                        "value": 0
                    },
                    {
                        "number": 64,
                        "time": 17.17135875,
                        "value": 1
                    },
                    {
                        "number": 64,
                        "time": 17.3992455,
                        "value": 0
                    },
                    {
                        "number": 64,
                        "time": 17.4447,
                        "value": 1
                    },
                    {
                        "number": 64,
                        "time": 17.6904,
                        "value": 0
                    },
                    {
                        "number": 64,
                        "time": 17.73278325,
                        "value": 1
                    },
                    {
                        "number": 64,
                        "time": 17.8464195,
                        "value": 0
                    },
                    {
                        "number": 64,
                        "time": 17.87283225,
                        "value": 1
                    },
                    {
                        "number": 64,
                        "time": 17.996910749999998,
                        "value": 0
                    },
                    {
                        "number": 64,
                        "time": 18.0380655,
                        "value": 1
                    },
                    {
                        "number": 64,
                        "time": 18.14064525,
                        "value": 0
                    },
                    {
                        "number": 64,
                        "time": 18.1818,
                        "value": 1
                    },
                    {
                        "number": 64,
                        "time": 18.292365,
                        "value": 0
                    },
                    {
                        "number": 64,
                        "time": 18.32922,
                        "value": 1
                    },
                    {
                        "number": 64,
                        "time": 18.43794225,
                        "value": 0
                    },
                    {
                        "number": 64,
                        "time": 18.48708225,
                        "value": 1
                    },
                    {
                        "number": 64,
                        "time": 18.58536225,
                        "value": 0
                    },
                    {
                        "number": 64,
                        "time": 18.631431,
                        "value": 1
                    },
                    {
                        "number": 64,
                        "time": 18.73155375,
                        "value": 0
                    },
                    {
                        "number": 64,
                        "time": 18.79297875,
                        "value": 1
                    },
                    {
                        "number": 64,
                        "time": 18.86976,
                        "value": 0
                    },
                    {
                        "number": 64,
                        "time": 33.061392,
                        "value": 1
                    },
                    {
                        "number": 64,
                        "time": 33.61851675,
                        "value": 0
                    },
                    {
                        "number": 64,
                        "time": 33.668271,
                        "value": 1
                    },
                    {
                        "number": 64,
                        "time": 33.9127425,
                        "value": 0
                    },
                    {
                        "number": 64,
                        "time": 33.95021175,
                        "value": 1
                    },
                    {
                        "number": 64,
                        "time": 34.20144,
                        "value": 0
                    },
                    {
                        "number": 64,
                        "time": 34.312005,
                        "value": 1
                    },
                    {
                        "number": 64,
                        "time": 34.79787675,
                        "value": 0
                    },
                    {
                        "number": 64,
                        "time": 34.847631,
                        "value": 1
                    },
                    {
                        "number": 64,
                        "time": 35.0921025,
                        "value": 0
                    },
                    {
                        "number": 64,
                        "time": 35.129571750000004,
                        "value": 1
                    },
                    {
                        "number": 64,
                        "time": 35.3808,
                        "value": 0
                    },
                    {
                        "number": 64,
                        "time": 35.44161075,
                        "value": 1
                    },
                    {
                        "number": 64,
                        "time": 35.979079500000005,
                        "value": 0
                    },
                    {
                        "number": 64,
                        "time": 36.026991,
                        "value": 1
                    },
                    {
                        "number": 64,
                        "time": 36.269005500000006,
                        "value": 0
                    },
                    {
                        "number": 64,
                        "time": 36.31323150000001,
                        "value": 1
                    },
                    {
                        "number": 64,
                        "time": 36.56016000000001,
                        "value": 0
                    },
                    {
                        "number": 64,
                        "time": 36.68301000000001,
                        "value": 1
                    },
                    {
                        "number": 64,
                        "time": 37.73952000000001,
                        "value": 0
                    },
                    {
                        "number": 64,
                        "time": 37.852542000000014,
                        "value": 1
                    },
                    {
                        "number": 64,
                        "time": 38.33227125000001,
                        "value": 0
                    },
                    {
                        "number": 64,
                        "time": 38.37711150000001,
                        "value": 1
                    },
                    {
                        "number": 64,
                        "time": 38.918880000000016,
                        "value": 0
                    },
                    {
                        "number": 64,
                        "time": 38.975391000000016,
                        "value": 1
                    },
                    {
                        "number": 64,
                        "time": 39.223548000000015,
                        "value": 0
                    },
                    {
                        "number": 64,
                        "time": 39.556471500000015,
                        "value": 1
                    },
                    {
                        "number": 64,
                        "time": 39.81199950000001,
                        "value": 0
                    },
                    {
                        "number": 64,
                        "time": 40.09824000000001,
                        "value": 1
                    },
                    {
                        "number": 64,
                        "time": 41.28497100000001,
                        "value": 0
                    },
                    {
                        "number": 64,
                        "time": 41.334111000000014,
                        "value": 1
                    },
                    {
                        "number": 64,
                        "time": 41.878950750000016,
                        "value": 0
                    },
                    {
                        "number": 64,
                        "time": 41.93423325000001,
                        "value": 1
                    },
                    {
                        "number": 64,
                        "time": 42.174405000000014,
                        "value": 0
                    },
                    {
                        "number": 64,
                        "time": 42.235830000000014,
                        "value": 1
                    },
                    {
                        "number": 64,
                        "time": 42.45696000000002,
                        "value": 0
                    },
                    {
                        "number": 64,
                        "time": 42.51347100000002,
                        "value": 1
                    },
                    {
                        "number": 64,
                        "time": 42.761628000000016,
                        "value": 0
                    },
                    {
                        "number": 64,
                        "time": 43.094551500000016,
                        "value": 1
                    },
                    {
                        "number": 64,
                        "time": 43.350079500000014,
                        "value": 0
                    },
                    {
                        "number": 64,
                        "time": 50.72967900000001,
                        "value": 1
                    },
                    {
                        "number": 64,
                        "time": 51.01591950000001,
                        "value": 0
                    },
                    {
                        "number": 64,
                        "time": 51.12034200000001,
                        "value": 1
                    },
                    {
                        "number": 64,
                        "time": 51.30953100000001,
                        "value": 0
                    },
                    {
                        "number": 64,
                        "time": 51.397983,
                        "value": 1
                    },
                    {
                        "number": 64,
                        "time": 51.604371,
                        "value": 0
                    },
                    {
                        "number": 64,
                        "time": 51.68360925,
                        "value": 1
                    },
                    {
                        "number": 64,
                        "time": 51.894297,
                        "value": 0
                    },
                    {
                        "number": 64,
                        "time": 51.96984975,
                        "value": 1
                    },
                    {
                        "number": 64,
                        "time": 52.1952795,
                        "value": 0
                    },
                    {
                        "number": 64,
                        "time": 52.264689749999995,
                        "value": 1
                    },
                    {
                        "number": 64,
                        "time": 52.488890999999995,
                        "value": 0
                    },
                    {
                        "number": 64,
                        "time": 52.56812925,
                        "value": 1
                    },
                    {
                        "number": 64,
                        "time": 52.78065975,
                        "value": 0
                    },
                    {
                        "number": 64,
                        "time": 52.872183,
                        "value": 1
                    },
                    {
                        "number": 64,
                        "time": 53.0712,
                        "value": 0
                    },
                    {
                        "number": 64,
                        "time": 53.218619999999994,
                        "value": 1
                    },
                    {
                        "number": 64,
                        "time": 53.74318949999999,
                        "value": 0
                    },
                    {
                        "number": 64,
                        "time": 54.88815149999999,
                        "value": 1
                    },
                    {
                        "number": 64,
                        "time": 54.99503099999999,
                        "value": 0
                    },
                    {
                        "number": 64,
                        "time": 56.06751149999999,
                        "value": 1
                    },
                    {
                        "number": 64,
                        "time": 56.17746224999999,
                        "value": 0
                    },
                    {
                        "number": 64,
                        "time": 57.25117124999999,
                        "value": 1
                    },
                    {
                        "number": 64,
                        "time": 57.35927924999999,
                        "value": 0
                    },
                    {
                        "number": 64,
                        "time": 57.790482749999995,
                        "value": 1
                    },
                    {
                        "number": 64,
                        "time": 58.090236749999995,
                        "value": 0
                    },
                    {
                        "number": 64,
                        "time": 58.12402049999999,
                        "value": 1
                    },
                    {
                        "number": 64,
                        "time": 58.392447749999995,
                        "value": 0
                    },
                    {
                        "number": 64,
                        "time": 58.43114549999999,
                        "value": 1
                    },
                    {
                        "number": 64,
                        "time": 58.67991674999999,
                        "value": 0
                    },
                    {
                        "number": 64,
                        "time": 58.69772999999999,
                        "value": 1
                    },
                    {
                        "number": 64,
                        "time": 58.96799999999999,
                        "value": 0
                    },
                    {
                        "number": 64,
                        "time": 59.62709024999999,
                        "value": 1
                    },
                    {
                        "number": 64,
                        "time": 59.71431374999999,
                        "value": 0
                    },
                    {
                        "number": 64,
                        "time": 60.767752499999986,
                        "value": 1
                    },
                    {
                        "number": 64,
                        "time": 60.89428799999999,
                        "value": 0
                    },
                    {
                        "number": 64,
                        "time": 63.685439999999986,
                        "value": 1
                    },
                    {
                        "number": 64,
                        "time": 64.27941974999999,
                        "value": 0
                    },
                    {
                        "number": 64,
                        "time": 64.32118874999999,
                        "value": 1
                    },
                    {
                        "number": 64,
                        "time": 64.43052524999999,
                        "value": 0
                    },
                    {
                        "number": 64,
                        "time": 64.87769924999999,
                        "value": 1
                    },
                    {
                        "number": 64,
                        "time": 65.46492224999999,
                        "value": 0
                    },
                    {
                        "number": 64,
                        "time": 65.51037674999999,
                        "value": 1
                    },
                    {
                        "number": 64,
                        "time": 65.7554625,
                        "value": 0
                    },
                    {
                        "number": 64,
                        "time": 65.79293175,
                        "value": 1
                    },
                    {
                        "number": 64,
                        "time": 66.05460224999999,
                        "value": 0
                    },
                    {
                        "number": 64,
                        "time": 66.08285774999999,
                        "value": 1
                    },
                    {
                        "number": 64,
                        "time": 66.19772249999998,
                        "value": 0
                    },
                    {
                        "number": 64,
                        "time": 66.66578099999998,
                        "value": 1
                    },
                    {
                        "number": 64,
                        "time": 66.78740249999998,
                        "value": 0
                    },
                    {
                        "number": 64,
                        "time": 67.23580499999998,
                        "value": 1
                    },
                    {
                        "number": 64,
                        "time": 67.52757374999999,
                        "value": 0
                    },
                    {
                        "number": 64,
                        "time": 67.54845824999998,
                        "value": 1
                    },
                    {
                        "number": 64,
                        "time": 67.82548499999999,
                        "value": 0
                    },
                    {
                        "number": 64,
                        "time": 67.85742599999999,
                        "value": 1
                    },
                    {
                        "number": 64,
                        "time": 68.11295399999999,
                        "value": 0
                    },
                    {
                        "number": 64,
                        "time": 68.14305224999998,
                        "value": 1
                    },
                    {
                        "number": 64,
                        "time": 68.40287999999998,
                        "value": 0
                    },
                    {
                        "number": 64,
                        "time": 68.45939099999998,
                        "value": 1
                    },
                    {
                        "number": 64,
                        "time": 68.69771999999998,
                        "value": 0
                    },
                    {
                        "number": 64,
                        "time": 68.88383774999997,
                        "value": 1
                    },
                    {
                        "number": 64,
                        "time": 68.99808824999997,
                        "value": 0
                    },
                    {
                        "number": 64,
                        "time": 69.04538549999997,
                        "value": 1
                    },
                    {
                        "number": 64,
                        "time": 69.25607324999997,
                        "value": 0
                    },
                    {
                        "number": 64,
                        "time": 69.46983224999997,
                        "value": 1
                    },
                    {
                        "number": 64,
                        "time": 69.58223999999997,
                        "value": 0
                    },
                    {
                        "number": 64,
                        "time": 69.63137999999996,
                        "value": 1
                    },
                    {
                        "number": 64,
                        "time": 69.73580249999996,
                        "value": 0
                    },
                    {
                        "number": 64,
                        "time": 70.04538449999997,
                        "value": 1
                    },
                    {
                        "number": 64,
                        "time": 70.17744824999997,
                        "value": 0
                    },
                    {
                        "number": 64,
                        "time": 70.25607224999997,
                        "value": 1
                    },
                    {
                        "number": 64,
                        "time": 70.32548249999998,
                        "value": 0
                    },
                    {
                        "number": 64,
                        "time": 70.65656324999998,
                        "value": 1
                    },
                    {
                        "number": 64,
                        "time": 70.77081374999997,
                        "value": 0
                    },
                    {
                        "number": 64,
                        "time": 70.82118224999998,
                        "value": 1
                    },
                    {
                        "number": 64,
                        "time": 70.91577674999998,
                        "value": 0
                    },
                    {
                        "number": 64,
                        "time": 71.23211549999998,
                        "value": 1
                    },
                    {
                        "number": 64,
                        "time": 71.36540774999997,
                        "value": 0
                    },
                    {
                        "number": 64,
                        "time": 71.42191874999997,
                        "value": 1
                    },
                    {
                        "number": 64,
                        "time": 71.64980549999997,
                        "value": 0
                    },
                    {
                        "number": 64,
                        "time": 71.69525999999998,
                        "value": 1
                    },
                    {
                        "number": 64,
                        "time": 71.94095999999998,
                        "value": 0
                    },
                    {
                        "number": 64,
                        "time": 71.98334324999998,
                        "value": 1
                    },
                    {
                        "number": 64,
                        "time": 72.09697949999997,
                        "value": 0
                    },
                    {
                        "number": 64,
                        "time": 72.12339224999998,
                        "value": 1
                    },
                    {
                        "number": 64,
                        "time": 72.24747074999998,
                        "value": 0
                    },
                    {
                        "number": 64,
                        "time": 72.28862549999998,
                        "value": 1
                    },
                    {
                        "number": 64,
                        "time": 72.39120524999998,
                        "value": 0
                    },
                    {
                        "number": 64,
                        "time": 72.43235999999999,
                        "value": 1
                    },
                    {
                        "number": 64,
                        "time": 72.54292499999998,
                        "value": 0
                    },
                    {
                        "number": 64,
                        "time": 72.57977999999999,
                        "value": 1
                    },
                    {
                        "number": 64,
                        "time": 72.68850224999998,
                        "value": 0
                    },
                    {
                        "number": 64,
                        "time": 72.73764224999998,
                        "value": 1
                    },
                    {
                        "number": 64,
                        "time": 72.83592224999998,
                        "value": 0
                    },
                    {
                        "number": 64,
                        "time": 72.88199099999999,
                        "value": 1
                    },
                    {
                        "number": 64,
                        "time": 72.98211374999998,
                        "value": 0
                    },
                    {
                        "number": 64,
                        "time": 73.04353874999998,
                        "value": 1
                    },
                    {
                        "number": 64,
                        "time": 73.12031999999998,
                        "value": 0
                    },
                    {
                        "number": 64,
                        "time": 87.31195199999998,
                        "value": 1
                    },
                    {
                        "number": 64,
                        "time": 87.86907674999998,
                        "value": 0
                    },
                    {
                        "number": 64,
                        "time": 87.91883099999998,
                        "value": 1
                    },
                    {
                        "number": 64,
                        "time": 88.16330249999999,
                        "value": 0
                    },
                    {
                        "number": 64,
                        "time": 88.20077174999999,
                        "value": 1
                    },
                    {
                        "number": 64,
                        "time": 88.45199999999998,
                        "value": 0
                    },
                    {
                        "number": 64,
                        "time": 88.56256499999998,
                        "value": 1
                    },
                    {
                        "number": 64,
                        "time": 89.04843674999998,
                        "value": 0
                    },
                    {
                        "number": 64,
                        "time": 89.09819099999999,
                        "value": 1
                    },
                    {
                        "number": 64,
                        "time": 89.34266249999999,
                        "value": 0
                    },
                    {
                        "number": 64,
                        "time": 89.38013174999999,
                        "value": 1
                    },
                    {
                        "number": 64,
                        "time": 89.63135999999999,
                        "value": 0
                    },
                    {
                        "number": 64,
                        "time": 89.69217074999999,
                        "value": 1
                    },
                    {
                        "number": 64,
                        "time": 90.22963949999999,
                        "value": 0
                    },
                    {
                        "number": 64,
                        "time": 90.27755099999999,
                        "value": 1
                    },
                    {
                        "number": 64,
                        "time": 90.51956549999998,
                        "value": 0
                    },
                    {
                        "number": 64,
                        "time": 90.56379149999998,
                        "value": 1
                    },
                    {
                        "number": 64,
                        "time": 90.81071999999998,
                        "value": 0
                    },
                    {
                        "number": 64,
                        "time": 90.93725549999998,
                        "value": 1
                    },
                    {
                        "number": 64,
                        "time": 91.99007999999998,
                        "value": 0
                    },
                    {
                        "number": 64,
                        "time": 92.10310199999998,
                        "value": 1
                    },
                    {
                        "number": 64,
                        "time": 92.58283124999998,
                        "value": 0
                    },
                    {
                        "number": 64,
                        "time": 92.62767149999998,
                        "value": 1
                    },
                    {
                        "number": 64,
                        "time": 93.16943999999998,
                        "value": 0
                    },
                    {
                        "number": 64,
                        "time": 93.22595099999998,
                        "value": 1
                    },
                    {
                        "number": 64,
                        "time": 93.47410799999999,
                        "value": 0
                    },
                    {
                        "number": 64,
                        "time": 93.8070315,
                        "value": 1
                    },
                    {
                        "number": 64,
                        "time": 94.06255949999999,
                        "value": 0
                    },
                    {
                        "number": 64,
                        "time": 94.3488,
                        "value": 1
                    },
                    {
                        "number": 64,
                        "time": 95.53553099999999,
                        "value": 0
                    },
                    {
                        "number": 64,
                        "time": 95.58467099999999,
                        "value": 1
                    },
                    {
                        "number": 64,
                        "time": 96.12951074999998,
                        "value": 0
                    },
                    {
                        "number": 64,
                        "time": 96.18479324999998,
                        "value": 1
                    },
                    {
                        "number": 64,
                        "time": 96.42496499999999,
                        "value": 0
                    },
                    {
                        "number": 64,
                        "time": 96.48638999999999,
                        "value": 1
                    },
                    {
                        "number": 64,
                        "time": 96.70751999999999,
                        "value": 0
                    },
                    {
                        "number": 64,
                        "time": 96.76403099999999,
                        "value": 1
                    },
                    {
                        "number": 64,
                        "time": 97.012188,
                        "value": 0
                    },
                    {
                        "number": 64,
                        "time": 97.3451115,
                        "value": 1
                    },
                    {
                        "number": 64,
                        "time": 97.6006395,
                        "value": 0
                    },
                    {
                        "number": 64,
                        "time": 104.980239,
                        "value": 1
                    },
                    {
                        "number": 64,
                        "time": 105.2664795,
                        "value": 0
                    },
                    {
                        "number": 64,
                        "time": 105.370902,
                        "value": 1
                    },
                    {
                        "number": 64,
                        "time": 105.560091,
                        "value": 0
                    },
                    {
                        "number": 64,
                        "time": 105.648543,
                        "value": 1
                    },
                    {
                        "number": 64,
                        "time": 105.85493100000001,
                        "value": 0
                    },
                    {
                        "number": 64,
                        "time": 105.93416925000001,
                        "value": 1
                    },
                    {
                        "number": 64,
                        "time": 106.14485700000002,
                        "value": 0
                    },
                    {
                        "number": 64,
                        "time": 106.22040975000002,
                        "value": 1
                    },
                    {
                        "number": 64,
                        "time": 106.44583950000002,
                        "value": 0
                    },
                    {
                        "number": 64,
                        "time": 106.51524975000002,
                        "value": 1
                    },
                    {
                        "number": 64,
                        "time": 106.73945100000002,
                        "value": 0
                    },
                    {
                        "number": 64,
                        "time": 106.81868925000002,
                        "value": 1
                    },
                    {
                        "number": 64,
                        "time": 107.03121975000002,
                        "value": 0
                    },
                    {
                        "number": 64,
                        "time": 107.12274300000001,
                        "value": 1
                    },
                    {
                        "number": 64,
                        "time": 107.32176000000001,
                        "value": 0
                    },
                    {
                        "number": 64,
                        "time": 107.46918000000001,
                        "value": 1
                    },
                    {
                        "number": 64,
                        "time": 107.9937495,
                        "value": 0
                    },
                    {
                        "number": 64,
                        "time": 109.13871150000001,
                        "value": 1
                    },
                    {
                        "number": 64,
                        "time": 109.24559100000002,
                        "value": 0
                    },
                    {
                        "number": 64,
                        "time": 110.31807150000002,
                        "value": 1
                    },
                    {
                        "number": 64,
                        "time": 110.42802225000001,
                        "value": 0
                    },
                    {
                        "number": 64,
                        "time": 111.49743150000002,
                        "value": 1
                    },
                    {
                        "number": 64,
                        "time": 111.60431100000002,
                        "value": 0
                    },
                    {
                        "number": 64,
                        "time": 112.67679150000002,
                        "value": 1
                    },
                    {
                        "number": 64,
                        "time": 112.78674225000002,
                        "value": 0
                    },
                    {
                        "number": 64,
                        "time": 113.24067300000002,
                        "value": 1
                    },
                    {
                        "number": 64,
                        "time": 113.37703650000002,
                        "value": 0
                    },
                    {
                        "number": 64,
                        "time": 113.83035300000002,
                        "value": 1
                    },
                    {
                        "number": 64,
                        "time": 113.96671650000002,
                        "value": 0
                    },
                    {
                        "number": 64,
                        "time": 114.42003300000002,
                        "value": 1
                    },
                    {
                        "number": 64,
                        "time": 114.55639650000002,
                        "value": 0
                    },
                    {
                        "number": 64,
                        "time": 115.59939300000002,
                        "value": 1
                    },
                    {
                        "number": 64,
                        "time": 115.73575650000002,
                        "value": 0
                    },
                    {
                        "number": 64,
                        "time": 116.18907300000002,
                        "value": 1
                    },
                    {
                        "number": 64,
                        "time": 116.32543650000002,
                        "value": 0
                    },
                    {
                        "number": 64,
                        "time": 116.77875300000002,
                        "value": 1
                    },
                    {
                        "number": 64,
                        "time": 116.91511650000002,
                        "value": 0
                    },
                    {
                        "number": 64,
                        "time": 117.36843300000002,
                        "value": 1
                    },
                    {
                        "number": 64,
                        "time": 117.50479650000003,
                        "value": 0
                    },
                    {
                        "number": 64,
                        "time": 117.95811300000003,
                        "value": 1
                    },
                    {
                        "number": 64,
                        "time": 118.09447650000003,
                        "value": 0
                    },
                    {
                        "number": 64,
                        "time": 118.63010250000002,
                        "value": 1
                    },
                    {
                        "number": 64,
                        "time": 119.11536000000002,
                        "value": 0
                    },
                    {
                        "number": 64,
                        "time": 119.26278000000002,
                        "value": 1
                    },
                    {
                        "number": 64,
                        "time": 120.29472000000003,
                        "value": 0
                    },
                    {
                        "number": 64,
                        "time": 120.37211550000002,
                        "value": 1
                    },
                    {
                        "number": 64,
                        "time": 120.89115675000002,
                        "value": 0
                    },
                    {
                        "number": 64,
                        "time": 121.00417875000002,
                        "value": 1
                    },
                    {
                        "number": 64,
                        "time": 121.47408000000003,
                        "value": 0
                    },
                    {
                        "number": 64,
                        "time": 122.11167150000003,
                        "value": 1
                    },
                    {
                        "number": 64,
                        "time": 122.21855100000003,
                        "value": 0
                    },
                    {
                        "number": 64,
                        "time": 123.29103150000003,
                        "value": 1
                    },
                    {
                        "number": 64,
                        "time": 123.40098225000003,
                        "value": 0
                    },
                    {
                        "number": 64,
                        "time": 124.47469125000002,
                        "value": 1
                    },
                    {
                        "number": 64,
                        "time": 124.58279925000002,
                        "value": 0
                    },
                    {
                        "number": 64,
                        "time": 125.01400275000002,
                        "value": 1
                    },
                    {
                        "number": 64,
                        "time": 125.31375675000001,
                        "value": 0
                    },
                    {
                        "number": 64,
                        "time": 125.34754050000001,
                        "value": 1
                    },
                    {
                        "number": 64,
                        "time": 125.61596775000001,
                        "value": 0
                    },
                    {
                        "number": 64,
                        "time": 125.65466550000001,
                        "value": 1
                    },
                    {
                        "number": 64,
                        "time": 125.90343675000001,
                        "value": 0
                    },
                    {
                        "number": 64,
                        "time": 125.92125000000001,
                        "value": 1
                    },
                    {
                        "number": 64,
                        "time": 126.19152000000001,
                        "value": 0
                    },
                    {
                        "number": 64,
                        "time": 126.85061025000002,
                        "value": 1
                    },
                    {
                        "number": 64,
                        "time": 126.93783375000001,
                        "value": 0
                    },
                    {
                        "number": 64,
                        "time": 127.99127250000001,
                        "value": 1
                    },
                    {
                        "number": 64,
                        "time": 128.117808,
                        "value": 0
                    },
                    {
                        "number": 64,
                        "time": 130.90896,
                        "value": 1
                    },
                    {
                        "number": 64,
                        "time": 131.50293975,
                        "value": 0
                    },
                    {
                        "number": 64,
                        "time": 131.54470874999998,
                        "value": 1
                    },
                    {
                        "number": 64,
                        "time": 131.65404525,
                        "value": 0
                    },
                    {
                        "number": 64,
                        "time": 132.10121924999999,
                        "value": 1
                    },
                    {
                        "number": 64,
                        "time": 132.68844224999998,
                        "value": 0
                    },
                    {
                        "number": 64,
                        "time": 132.73389674999999,
                        "value": 1
                    },
                    {
                        "number": 64,
                        "time": 132.97898249999997,
                        "value": 0
                    },
                    {
                        "number": 64,
                        "time": 133.01645174999996,
                        "value": 1
                    },
                    {
                        "number": 64,
                        "time": 133.27812224999997,
                        "value": 0
                    },
                    {
                        "number": 64,
                        "time": 133.30637774999997,
                        "value": 1
                    },
                    {
                        "number": 64,
                        "time": 133.42124249999998,
                        "value": 0
                    },
                    {
                        "number": 64,
                        "time": 133.889301,
                        "value": 1
                    },
                    {
                        "number": 64,
                        "time": 134.1632565,
                        "value": 0
                    },
                    {
                        "number": 64,
                        "time": 134.19581175,
                        "value": 1
                    },
                    {
                        "number": 64,
                        "time": 134.44704,
                        "value": 0
                    },
                    {
                        "number": 64,
                        "time": 134.4802095,
                        "value": 1
                    },
                    {
                        "number": 64,
                        "time": 134.75109375,
                        "value": 0
                    },
                    {
                        "number": 64,
                        "time": 134.77197825,
                        "value": 1
                    },
                    {
                        "number": 64,
                        "time": 135.049005,
                        "value": 0
                    },
                    {
                        "number": 64,
                        "time": 135.08094599999998,
                        "value": 1
                    },
                    {
                        "number": 64,
                        "time": 135.33647399999998,
                        "value": 0
                    },
                    {
                        "number": 64,
                        "time": 135.36657225,
                        "value": 1
                    },
                    {
                        "number": 64,
                        "time": 135.6264,
                        "value": 0
                    },
                    {
                        "number": 64,
                        "time": 135.682911,
                        "value": 1
                    },
                    {
                        "number": 64,
                        "time": 135.92123999999998,
                        "value": 0
                    },
                    {
                        "number": 64,
                        "time": 136.10735774999998,
                        "value": 1
                    },
                    {
                        "number": 64,
                        "time": 136.22160824999997,
                        "value": 0
                    },
                    {
                        "number": 64,
                        "time": 136.2689055,
                        "value": 1
                    },
                    {
                        "number": 64,
                        "time": 136.47959325,
                        "value": 0
                    },
                    {
                        "number": 64,
                        "time": 136.69335225,
                        "value": 1
                    },
                    {
                        "number": 64,
                        "time": 136.80576,
                        "value": 0
                    },
                    {
                        "number": 64,
                        "time": 136.8549,
                        "value": 1
                    },
                    {
                        "number": 64,
                        "time": 136.95932249999998,
                        "value": 0
                    },
                    {
                        "number": 64,
                        "time": 137.2689045,
                        "value": 1
                    },
                    {
                        "number": 64,
                        "time": 137.40096824999998,
                        "value": 0
                    },
                    {
                        "number": 64,
                        "time": 137.47959224999997,
                        "value": 1
                    },
                    {
                        "number": 64,
                        "time": 137.54900249999997,
                        "value": 0
                    },
                    {
                        "number": 64,
                        "time": 137.88008324999998,
                        "value": 1
                    },
                    {
                        "number": 64,
                        "time": 137.99433374999998,
                        "value": 0
                    },
                    {
                        "number": 64,
                        "time": 138.04470224999997,
                        "value": 1
                    },
                    {
                        "number": 64,
                        "time": 138.13929674999997,
                        "value": 0
                    },
                    {
                        "number": 64,
                        "time": 138.45563549999997,
                        "value": 1
                    },
                    {
                        "number": 64,
                        "time": 138.58892774999998,
                        "value": 0
                    },
                    {
                        "number": 64,
                        "time": 138.64543874999998,
                        "value": 1
                    },
                    {
                        "number": 64,
                        "time": 138.8733255,
                        "value": 0
                    },
                    {
                        "number": 64,
                        "time": 138.91878,
                        "value": 1
                    },
                    {
                        "number": 64,
                        "time": 139.16448,
                        "value": 0
                    },
                    {
                        "number": 64,
                        "time": 139.20686325,
                        "value": 1
                    },
                    {
                        "number": 64,
                        "time": 139.3204995,
                        "value": 0
                    },
                    {
                        "number": 64,
                        "time": 139.34691225,
                        "value": 1
                    },
                    {
                        "number": 64,
                        "time": 139.47099075,
                        "value": 0
                    },
                    {
                        "number": 64,
                        "time": 139.5121455,
                        "value": 1
                    },
                    {
                        "number": 64,
                        "time": 139.61472525,
                        "value": 0
                    },
                    {
                        "number": 64,
                        "time": 139.65588,
                        "value": 1
                    },
                    {
                        "number": 64,
                        "time": 139.766445,
                        "value": 0
                    },
                    {
                        "number": 64,
                        "time": 139.8033,
                        "value": 1
                    },
                    {
                        "number": 64,
                        "time": 139.91202225,
                        "value": 0
                    },
                    {
                        "number": 64,
                        "time": 139.96116225,
                        "value": 1
                    },
                    {
                        "number": 64,
                        "time": 140.05944225,
                        "value": 0
                    },
                    {
                        "number": 64,
                        "time": 140.10551099999998,
                        "value": 1
                    },
                    {
                        "number": 64,
                        "time": 140.20563374999998,
                        "value": 0
                    },
                    {
                        "number": 64,
                        "time": 140.26705875,
                        "value": 1
                    },
                    {
                        "number": 64,
                        "time": 140.34384,
                        "value": 0
                    },
                    {
                        "number": 64,
                        "time": 154.54222875,
                        "value": 1
                    },
                    {
                        "number": 64,
                        "time": 155.09628225,
                        "value": 0
                    },
                    {
                        "number": 64,
                        "time": 155.13498,
                        "value": 1
                    },
                    {
                        "number": 64,
                        "time": 155.38252275000002,
                        "value": 0
                    },
                    {
                        "number": 64,
                        "time": 155.437191,
                        "value": 1
                    },
                    {
                        "number": 64,
                        "time": 155.67552,
                        "value": 0
                    },
                    {
                        "number": 64,
                        "time": 155.74923,
                        "value": 1
                    },
                    {
                        "number": 64,
                        "time": 156.26949975000002,
                        "value": 0
                    },
                    {
                        "number": 64,
                        "time": 156.29345550000002,
                        "value": 1
                    },
                    {
                        "number": 64,
                        "time": 156.56802525000003,
                        "value": 0
                    },
                    {
                        "number": 64,
                        "time": 156.61962225000002,
                        "value": 1
                    },
                    {
                        "number": 64,
                        "time": 156.85488,
                        "value": 0
                    },
                    {
                        "number": 64,
                        "time": 156.88804950000002,
                        "value": 1
                    },
                    {
                        "number": 64,
                        "time": 157.45561650000002,
                        "value": 0
                    },
                    {
                        "number": 64,
                        "time": 157.48264350000002,
                        "value": 1
                    },
                    {
                        "number": 64,
                        "time": 157.74431400000003,
                        "value": 0
                    },
                    {
                        "number": 64,
                        "time": 157.77748350000005,
                        "value": 1
                    },
                    {
                        "number": 64,
                        "time": 158.03424000000004,
                        "value": 0
                    },
                    {
                        "number": 64,
                        "time": 158.03424000000004,
                        "value": 0
                    },
                    {
                        "number": 64,
                        "time": 158.12576325000003,
                        "value": 1
                    },
                    {
                        "number": 64,
                        "time": 159.21360000000004,
                        "value": 0
                    },
                    {
                        "number": 64,
                        "time": 159.32662200000004,
                        "value": 1
                    },
                    {
                        "number": 64,
                        "time": 159.80635125000003,
                        "value": 0
                    },
                    {
                        "number": 64,
                        "time": 159.85119150000003,
                        "value": 1
                    },
                    {
                        "number": 64,
                        "time": 160.39296000000002,
                        "value": 0
                    },
                    {
                        "number": 64,
                        "time": 160.44947100000002,
                        "value": 1
                    },
                    {
                        "number": 64,
                        "time": 160.697628,
                        "value": 0
                    },
                    {
                        "number": 64,
                        "time": 161.0305515,
                        "value": 1
                    },
                    {
                        "number": 64,
                        "time": 161.2860795,
                        "value": 0
                    },
                    {
                        "number": 64,
                        "time": 161.57232,
                        "value": 1
                    },
                    {
                        "number": 64,
                        "time": 162.759051,
                        "value": 0
                    },
                    {
                        "number": 64,
                        "time": 162.808191,
                        "value": 1
                    },
                    {
                        "number": 64,
                        "time": 163.35303075,
                        "value": 0
                    },
                    {
                        "number": 64,
                        "time": 163.40831325,
                        "value": 1
                    },
                    {
                        "number": 64,
                        "time": 163.648485,
                        "value": 0
                    },
                    {
                        "number": 64,
                        "time": 163.70991,
                        "value": 1
                    },
                    {
                        "number": 64,
                        "time": 163.93104,
                        "value": 0
                    },
                    {
                        "number": 64,
                        "time": 163.987551,
                        "value": 1
                    },
                    {
                        "number": 64,
                        "time": 164.235708,
                        "value": 0
                    },
                    {
                        "number": 64,
                        "time": 164.56863149999998,
                        "value": 1
                    },
                    {
                        "number": 64,
                        "time": 164.82415949999998,
                        "value": 0
                    },
                    {
                        "number": 64,
                        "time": 172.203759,
                        "value": 1
                    },
                    {
                        "number": 64,
                        "time": 172.48999949999998,
                        "value": 0
                    },
                    {
                        "number": 64,
                        "time": 172.59442199999998,
                        "value": 1
                    },
                    {
                        "number": 64,
                        "time": 172.78361099999998,
                        "value": 0
                    },
                    {
                        "number": 64,
                        "time": 172.87206299999997,
                        "value": 1
                    },
                    {
                        "number": 64,
                        "time": 173.07845099999997,
                        "value": 0
                    },
                    {
                        "number": 64,
                        "time": 173.15768924999998,
                        "value": 1
                    },
                    {
                        "number": 64,
                        "time": 173.36837699999998,
                        "value": 0
                    },
                    {
                        "number": 64,
                        "time": 173.44392975,
                        "value": 1
                    },
                    {
                        "number": 64,
                        "time": 173.66935949999998,
                        "value": 0
                    },
                    {
                        "number": 64,
                        "time": 173.73876975,
                        "value": 1
                    },
                    {
                        "number": 64,
                        "time": 173.96297099999998,
                        "value": 0
                    },
                    {
                        "number": 64,
                        "time": 174.04220924999998,
                        "value": 1
                    },
                    {
                        "number": 64,
                        "time": 174.25473975,
                        "value": 0
                    },
                    {
                        "number": 64,
                        "time": 174.346263,
                        "value": 1
                    },
                    {
                        "number": 64,
                        "time": 174.54528,
                        "value": 0
                    },
                    {
                        "number": 64,
                        "time": 174.562479,
                        "value": 1
                    },
                    {
                        "number": 64,
                        "time": 174.8487195,
                        "value": 0
                    },
                    {
                        "number": 64,
                        "time": 174.95314199999999,
                        "value": 1
                    },
                    {
                        "number": 64,
                        "time": 175.14233099999998,
                        "value": 0
                    },
                    {
                        "number": 64,
                        "time": 175.23078299999997,
                        "value": 1
                    },
                    {
                        "number": 64,
                        "time": 175.43717099999998,
                        "value": 0
                    },
                    {
                        "number": 64,
                        "time": 175.51640924999998,
                        "value": 1
                    },
                    {
                        "number": 64,
                        "time": 175.727097,
                        "value": 0
                    },
                    {
                        "number": 64,
                        "time": 175.80264975,
                        "value": 1
                    },
                    {
                        "number": 64,
                        "time": 176.0280795,
                        "value": 0
                    },
                    {
                        "number": 64,
                        "time": 176.09748975,
                        "value": 1
                    },
                    {
                        "number": 64,
                        "time": 176.321691,
                        "value": 0
                    },
                    {
                        "number": 64,
                        "time": 176.40092925,
                        "value": 1
                    },
                    {
                        "number": 64,
                        "time": 176.61345975,
                        "value": 0
                    },
                    {
                        "number": 64,
                        "time": 176.704983,
                        "value": 1
                    },
                    {
                        "number": 64,
                        "time": 176.904,
                        "value": 0
                    },
                    {
                        "number": 64,
                        "time": 177.1497,
                        "value": 1
                    },
                    {
                        "number": 64,
                        "time": 178.08336,
                        "value": 0
                    },
                    {
                        "number": 64,
                        "time": 178.115301,
                        "value": 1
                    },
                    {
                        "number": 64,
                        "time": 178.68102524999998,
                        "value": 0
                    },
                    {
                        "number": 64,
                        "time": 178.709895,
                        "value": 1
                    },
                    {
                        "number": 64,
                        "time": 179.26272,
                        "value": 0
                    },
                    {
                        "number": 64,
                        "time": 179.42672475,
                        "value": 1
                    },
                    {
                        "number": 64,
                        "time": 179.85240000000002,
                        "value": 0
                    },
                    {
                        "number": 64,
                        "time": 186.33888000000002,
                        "value": 1
                    },
                    {
                        "number": 64,
                        "time": 187.51824000000002,
                        "value": 0
                    },
                    {
                        "number": 64,
                        "time": 187.54465275,
                        "value": 1
                    },
                    {
                        "number": 64,
                        "time": 189.28728,
                        "value": 0
                    },
                    {
                        "number": 64,
                        "time": 189.326592,
                        "value": 1
                    },
                    {
                        "number": 64,
                        "time": 189.884331,
                        "value": 0
                    },
                    {
                        "number": 64,
                        "time": 192.8536155,
                        "value": 1
                    },
                    {
                        "number": 64,
                        "time": 192.98015099999998,
                        "value": 0
                    },
                    {
                        "number": 64,
                        "time": 195.21233549999997,
                        "value": 1
                    },
                    {
                        "number": 64,
                        "time": 195.33887099999995,
                        "value": 0
                    },
                    {
                        "number": 64,
                        "time": 196.39169549999997,
                        "value": 1
                    },
                    {
                        "number": 64,
                        "time": 196.51823099999996,
                        "value": 0
                    },
                    {
                        "number": 64,
                        "time": 197.57105549999997,
                        "value": 1
                    },
                    {
                        "number": 64,
                        "time": 197.69759099999996,
                        "value": 0
                    },
                    {
                        "number": 64,
                        "time": 198.13247999999996,
                        "value": 1
                    },
                    {
                        "number": 64,
                        "time": 198.73137374999996,
                        "value": 0
                    },
                    {
                        "number": 64,
                        "time": 198.86282324999996,
                        "value": 1
                    },
                    {
                        "number": 64,
                        "time": 199.81736774999996,
                        "value": 0
                    }
                ]
            },
            "id": 3,
            "name": "Pedale",
            "instrumentNumber": 0,
            "instrument": "acoustic grand piano",
            "instrumentFamily": "piano",
            "channelNumber": 0,
            "isPercussion": false
        },
        {
            "startTime": 0,
            "duration": 0,
            "length": 0,
            "notes": [],
            "controlChanges": {},
            "id": 4,
            "name": "Beethoven: Sonate Nr. 5 3. Satz"
        },
        {
            "startTime": 0,
            "duration": 0,
            "length": 0,
            "notes": [],
            "controlChanges": {},
            "id": 5,
            "name": "Copyright  2008 by Bernd Krueger"
        },
        {
            "startTime": 0,
            "duration": 0,
            "length": 0,
            "notes": [],
            "controlChanges": {},
            "id": 6,
            "name": "http://www.piano-midi.de/"
        },
        {
            "startTime": 0,
            "duration": 0,
            "length": 0,
            "notes": [],
            "controlChanges": {},
            "id": 7,
            "name": "Edition: 1012-05-09"
        },
        {
            "startTime": 0,
            "duration": 0,
            "length": 0,
            "notes": [],
            "controlChanges": {},
            "id": 8,
            "name": "Spur 8"
        },
        {
            "startTime": 0,
            "duration": 0,
            "length": 0,
            "notes": [],
            "controlChanges": {},
            "id": 9,
            "name": "Spur 9"
        },
        {
            "startTime": 0,
            "duration": 0,
            "length": 0,
            "notes": [],
            "controlChanges": {},
            "id": 10,
            "name": "Spur 10"
        },
        {
            "startTime": 0,
            "duration": 0,
            "length": 0,
            "notes": [],
            "controlChanges": {},
            "id": 11,
            "name": "Spur 11"
        },
        {
            "startTime": 0,
            "duration": 0,
            "length": 0,
            "notes": [],
            "controlChanges": {},
            "id": 12,
            "name": "Spur 12"
        },
        {
            "startTime": 0,
            "duration": 0,
            "length": 0,
            "notes": [],
            "controlChanges": {},
            "id": 13,
            "name": "Spur 13"
        },
        {
            "startTime": 0,
            "duration": 0,
            "length": 0,
            "notes": [],
            "controlChanges": {},
            "id": 14,
            "name": "Spur 14"
        },
        {
            "startTime": 0,
            "duration": 0,
            "length": 0,
            "notes": [],
            "controlChanges": {},
            "id": 15,
            "name": "Spur 15"
        },
        {
            "startTime": 0,
            "duration": 0,
            "length": 0,
            "notes": [],
            "controlChanges": {},
            "id": 16,
            "name": "Spur 16"
        }
    ]
}