{
    "header": {
        "PPQ": 480,
        "timeSignature": [
            3,
            4
        ],
        "bpm": 149.80001697733525,
        "name": "Beethoven: Sonate Opus 90, 1. Satz"
    },
    "startTime": 0,
    "duration": 294.79302399999773,
    "tracks": [
        {
            "startTime": 0,
            "duration": 0,
            "length": 0,
            "notes": [],
            "controlChanges": {},
            "id": 0,
            "name": "Beethoven: Sonate Opus 90, 1. Satz"
        },
        {
            "startTime": 0.801068,
            "duration": 294.79302399999773,
            "length": 1320,
            "notes": [
                {
                    "name": "G4",
                    "midi": 67,
                    "time": 0.801068,
                    "velocity": 0.6141732283464567,
                    "duration": 0.10013349999999999
                },
                {
                    "name": "E4",
                    "midi": 64,
                    "time": 0.801068,
                    "velocity": 0.5196850393700787,
                    "duration": 0.10013349999999999
                },
                {
                    "name": "B3",
                    "midi": 59,
                    "time": 0.801068,
                    "velocity": 0.5196850393700787,
                    "duration": 0.10013349999999999
                },
                {
                    "name": "G3",
                    "midi": 55,
                    "time": 0.801068,
                    "velocity": 0.5196850393700787,
                    "duration": 0.10013349999999999
                },
                {
                    "name": "G3",
                    "midi": 55,
                    "time": 1.201602,
                    "velocity": 0.5511811023622047,
                    "duration": 0.8010680000000001
                },
                {
                    "name": "B3",
                    "midi": 59,
                    "time": 1.201602,
                    "velocity": 0.5511811023622047,
                    "duration": 0.8010680000000001
                },
                {
                    "name": "E4",
                    "midi": 64,
                    "time": 1.201602,
                    "velocity": 0.5511811023622047,
                    "duration": 0.8010680000000001
                },
                {
                    "name": "G4",
                    "midi": 67,
                    "time": 1.201602,
                    "velocity": 0.6614173228346457,
                    "duration": 0.6008009999999999
                },
                {
                    "name": "F#4",
                    "midi": 66,
                    "time": 1.802403,
                    "velocity": 0.6062992125984252,
                    "duration": 0.2002670000000002
                },
                {
                    "name": "E4",
                    "midi": 64,
                    "time": 2.00267,
                    "velocity": 0.5354330708661418,
                    "duration": 0.1001335000000001
                },
                {
                    "name": "G3",
                    "midi": 55,
                    "time": 2.00267,
                    "velocity": 0.44881889763779526,
                    "duration": 0.1001335000000001
                },
                {
                    "name": "A3",
                    "midi": 57,
                    "time": 2.403204,
                    "velocity": 0.5511811023622047,
                    "duration": 0.2002670000000002
                },
                {
                    "name": "F#4",
                    "midi": 66,
                    "time": 2.403204,
                    "velocity": 0.5511811023622047,
                    "duration": 0.2002670000000002
                },
                {
                    "name": "A4",
                    "midi": 69,
                    "time": 2.403204,
                    "velocity": 0.6614173228346457,
                    "duration": 0.2002670000000002
                },
                {
                    "name": "A4",
                    "midi": 69,
                    "time": 3.2042720000000005,
                    "velocity": 0.29133858267716534,
                    "duration": 0.40053399999999995
                },
                {
                    "name": "F#4",
                    "midi": 66,
                    "time": 3.2042720000000005,
                    "velocity": 0.2440944881889764,
                    "duration": 0.40053399999999995
                },
                {
                    "name": "F#4",
                    "midi": 66,
                    "time": 3.6048060000000004,
                    "velocity": 0.29133858267716534,
                    "duration": 0.6008010000000001
                },
                {
                    "name": "A4",
                    "midi": 69,
                    "time": 3.6048060000000004,
                    "velocity": 0.3543307086614173,
                    "duration": 0.6008010000000001
                },
                {
                    "name": "G4",
                    "midi": 67,
                    "time": 4.2056070000000005,
                    "velocity": 0.31496062992125984,
                    "duration": 0.2002670000000002
                },
                {
                    "name": "A4",
                    "midi": 69,
                    "time": 4.405874000000001,
                    "velocity": 0.3228346456692913,
                    "duration": 0.3004005000000003
                },
                {
                    "name": "F#4",
                    "midi": 66,
                    "time": 4.405874000000001,
                    "velocity": 0.2755905511811024,
                    "duration": 0.3004005000000003
                },
                {
                    "name": "B4",
                    "midi": 71,
                    "time": 4.806408000000001,
                    "velocity": 0.33858267716535434,
                    "duration": 0.3004005000000003
                },
                {
                    "name": "G4",
                    "midi": 67,
                    "time": 4.806408000000001,
                    "velocity": 0.28346456692913385,
                    "duration": 0.3004005000000003
                },
                {
                    "name": "B4",
                    "midi": 71,
                    "time": 5.607476000000002,
                    "velocity": 0.6141732283464567,
                    "duration": 0.1001335000000001
                },
                {
                    "name": "G4",
                    "midi": 67,
                    "time": 5.607476000000002,
                    "velocity": 0.5196850393700787,
                    "duration": 0.1001335000000001
                },
                {
                    "name": "D4",
                    "midi": 62,
                    "time": 5.607476000000002,
                    "velocity": 0.5196850393700787,
                    "duration": 0.1001335000000001
                },
                {
                    "name": "B3",
                    "midi": 59,
                    "time": 5.607476000000002,
                    "velocity": 0.5196850393700787,
                    "duration": 0.1001335000000001
                },
                {
                    "name": "D4",
                    "midi": 62,
                    "time": 6.008010000000002,
                    "velocity": 0.5511811023622047,
                    "duration": 0.8010679999999999
                },
                {
                    "name": "B3",
                    "midi": 59,
                    "time": 6.008010000000002,
                    "velocity": 0.5511811023622047,
                    "duration": 0.8010679999999999
                },
                {
                    "name": "G4",
                    "midi": 67,
                    "time": 6.008010000000002,
                    "velocity": 0.5511811023622047,
                    "duration": 0.8010679999999999
                },
                {
                    "name": "B4",
                    "midi": 71,
                    "time": 6.008010000000002,
                    "velocity": 0.6614173228346457,
                    "duration": 0.6008009999999997
                },
                {
                    "name": "A4",
                    "midi": 69,
                    "time": 6.608811000000002,
                    "velocity": 0.6062992125984252,
                    "duration": 0.2002670000000002
                },
                {
                    "name": "G4",
                    "midi": 67,
                    "time": 6.809078000000002,
                    "velocity": 0.5354330708661418,
                    "duration": 0.1001335000000001
                },
                {
                    "name": "B3",
                    "midi": 59,
                    "time": 6.809078000000002,
                    "velocity": 0.44881889763779526,
                    "duration": 0.1001335000000001
                },
                {
                    "name": "C#4",
                    "midi": 61,
                    "time": 7.209612000000003,
                    "velocity": 0.5511811023622047,
                    "duration": 0.2002670000000002
                },
                {
                    "name": "A#4",
                    "midi": 70,
                    "time": 7.209612000000003,
                    "velocity": 0.5511811023622047,
                    "duration": 0.2002670000000002
                },
                {
                    "name": "C#5",
                    "midi": 73,
                    "time": 7.209612000000003,
                    "velocity": 0.6614173228346457,
                    "duration": 0.2002670000000002
                },
                {
                    "name": "C#5",
                    "midi": 73,
                    "time": 8.010680000000002,
                    "velocity": 0.29133858267716534,
                    "duration": 0.4005340000000004
                },
                {
                    "name": "A#4",
                    "midi": 70,
                    "time": 8.010680000000002,
                    "velocity": 0.2440944881889764,
                    "duration": 0.4005340000000004
                },
                {
                    "name": "A#4",
                    "midi": 70,
                    "time": 8.411214000000003,
                    "velocity": 0.29133858267716534,
                    "duration": 0.6008010000000006
                },
                {
                    "name": "C#5",
                    "midi": 73,
                    "time": 8.411214000000003,
                    "velocity": 0.3543307086614173,
                    "duration": 0.6008010000000006
                },
                {
                    "name": "B4",
                    "midi": 71,
                    "time": 9.012015000000003,
                    "velocity": 0.31496062992125984,
                    "duration": 0.2002670000000002
                },
                {
                    "name": "C#5",
                    "midi": 73,
                    "time": 9.212282000000004,
                    "velocity": 0.3228346456692913,
                    "duration": 0.3004005000000003
                },
                {
                    "name": "A#4",
                    "midi": 70,
                    "time": 9.212282000000004,
                    "velocity": 0.2755905511811024,
                    "duration": 0.3004005000000003
                },
                {
                    "name": "D5",
                    "midi": 74,
                    "time": 9.612816000000004,
                    "velocity": 0.33858267716535434,
                    "duration": 0.3004005000000003
                },
                {
                    "name": "B4",
                    "midi": 71,
                    "time": 9.612816000000004,
                    "velocity": 0.28346456692913385,
                    "duration": 0.3004005000000003
                },
                {
                    "name": "D5",
                    "midi": 74,
                    "time": 10.413884000000005,
                    "velocity": 0.5511811023622047,
                    "duration": 0.8010680000000008
                },
                {
                    "name": "G5",
                    "midi": 79,
                    "time": 11.214952000000006,
                    "velocity": 0.5511811023622047,
                    "duration": 0.4005340000000004
                },
                {
                    "name": "E5",
                    "midi": 76,
                    "time": 11.615486000000006,
                    "velocity": 0.4881889763779528,
                    "duration": 0.4005340000000004
                },
                {
                    "name": "D5",
                    "midi": 74,
                    "time": 12.016020000000006,
                    "velocity": 0.5196850393700787,
                    "duration": 0.4005340000000004
                },
                {
                    "name": "C5",
                    "midi": 72,
                    "time": 12.416554000000007,
                    "velocity": 0.4409448818897638,
                    "duration": 0.38050729999999966
                },
                {
                    "name": "C5",
                    "midi": 72,
                    "time": 12.817088000000007,
                    "velocity": 0.48031496062992124,
                    "duration": 0.8010680000000008
                },
                {
                    "name": "A5",
                    "midi": 81,
                    "time": 13.618156000000008,
                    "velocity": 0.48031496062992124,
                    "duration": 0.4005340000000004
                },
                {
                    "name": "C5",
                    "midi": 72,
                    "time": 14.018690000000008,
                    "velocity": 0.4094488188976378,
                    "duration": 0.8010680000000008
                },
                {
                    "name": "B4",
                    "midi": 71,
                    "time": 14.819758000000009,
                    "velocity": 0.48031496062992124,
                    "duration": 0.38050729999999966
                },
                {
                    "name": "B4",
                    "midi": 71,
                    "time": 15.22029200000001,
                    "velocity": 0.4330708661417323,
                    "duration": 0.801067999999999
                },
                {
                    "name": "G4",
                    "midi": 67,
                    "time": 16.02136000000001,
                    "velocity": 0.3937007874015748,
                    "duration": 0.38050730000000144
                },
                {
                    "name": "G4",
                    "midi": 67,
                    "time": 16.42189400000001,
                    "velocity": 0.3464566929133858,
                    "duration": 0.8010680000000008
                },
                {
                    "name": "E4",
                    "midi": 64,
                    "time": 17.22296200000001,
                    "velocity": 0.33858267716535434,
                    "duration": 0.38050730000000144
                },
                {
                    "name": "E4",
                    "midi": 64,
                    "time": 17.62349600000001,
                    "velocity": 0.3228346456692913,
                    "duration": 0.8010680000000008
                },
                {
                    "name": "G3",
                    "midi": 55,
                    "time": 18.42456400000001,
                    "velocity": 0.28346456692913385,
                    "duration": 0.4005340000000004
                },
                {
                    "name": "E3",
                    "midi": 52,
                    "time": 18.82509800000001,
                    "velocity": 0.1889763779527559,
                    "duration": 0.4005340000000004
                },
                {
                    "name": "D#3",
                    "midi": 51,
                    "time": 19.22563200000001,
                    "velocity": 0.1889763779527559,
                    "duration": 0.7209612000000014
                },
                {
                    "name": "B3",
                    "midi": 59,
                    "time": 19.22563200000001,
                    "velocity": 0.2204724409448819,
                    "duration": 0.7209612000000014
                },
                {
                    "name": "E5",
                    "midi": 76,
                    "time": 20.026700000000012,
                    "velocity": 0.4015748031496063,
                    "duration": 1.001335000000001
                },
                {
                    "name": "E6",
                    "midi": 88,
                    "time": 20.026700000000012,
                    "velocity": 0.48031496062992124,
                    "duration": 1.001335000000001
                },
                {
                    "name": "D#5",
                    "midi": 75,
                    "time": 21.028035000000013,
                    "velocity": 0.3543307086614173,
                    "duration": 0.2002670000000002
                },
                {
                    "name": "D#6",
                    "midi": 87,
                    "time": 21.028035000000013,
                    "velocity": 0.41732283464566927,
                    "duration": 0.2002670000000002
                },
                {
                    "name": "E5",
                    "midi": 76,
                    "time": 21.228302000000014,
                    "velocity": 0.3779527559055118,
                    "duration": 0.4005340000000004
                },
                {
                    "name": "E6",
                    "midi": 88,
                    "time": 21.228302000000014,
                    "velocity": 0.44881889763779526,
                    "duration": 0.4005340000000004
                },
                {
                    "name": "C4",
                    "midi": 60,
                    "time": 21.628836000000014,
                    "velocity": 0.4015748031496063,
                    "duration": 0.8010680000000008
                },
                {
                    "name": "E4",
                    "midi": 64,
                    "time": 21.628836000000014,
                    "velocity": 0.4015748031496063,
                    "duration": 0.8010680000000008
                },
                {
                    "name": "F#4",
                    "midi": 66,
                    "time": 21.628836000000014,
                    "velocity": 0.48031496062992124,
                    "duration": 0.8010680000000008
                },
                {
                    "name": "F#4",
                    "midi": 66,
                    "time": 22.429904000000015,
                    "velocity": 0.5196850393700787,
                    "duration": 0.4005340000000004
                },
                {
                    "name": "E4",
                    "midi": 64,
                    "time": 22.429904000000015,
                    "velocity": 0.4409448818897638,
                    "duration": 0.4005340000000004
                },
                {
                    "name": "C#4",
                    "midi": 61,
                    "time": 22.429904000000015,
                    "velocity": 0.4409448818897638,
                    "duration": 0.4005340000000004
                },
                {
                    "name": "A3",
                    "midi": 57,
                    "time": 22.830438000000015,
                    "velocity": 0.47244094488188976,
                    "duration": 1.2016020000000012
                },
                {
                    "name": "D#4",
                    "midi": 63,
                    "time": 22.830438000000015,
                    "velocity": 0.47244094488188976,
                    "duration": 1.2016020000000012
                },
                {
                    "name": "F#4",
                    "midi": 66,
                    "time": 22.830438000000015,
                    "velocity": 0.5590551181102362,
                    "duration": 0.6008010000000006
                },
                {
                    "name": "G4",
                    "midi": 67,
                    "time": 23.431239000000016,
                    "velocity": 0.4015748031496063,
                    "duration": 0.2002670000000002
                },
                {
                    "name": "A4",
                    "midi": 69,
                    "time": 23.631506000000016,
                    "velocity": 0.4409448818897638,
                    "duration": 0.2002670000000002
                },
                {
                    "name": "G4",
                    "midi": 67,
                    "time": 23.831773000000016,
                    "velocity": 0.33858267716535434,
                    "duration": 0.2002670000000002
                },
                {
                    "name": "F#4",
                    "midi": 66,
                    "time": 24.032040000000016,
                    "velocity": 0.3700787401574803,
                    "duration": 0.4005340000000004
                },
                {
                    "name": "E4",
                    "midi": 64,
                    "time": 24.432574000000017,
                    "velocity": 0.30708661417322836,
                    "duration": 0.4005340000000004
                },
                {
                    "name": "E5",
                    "midi": 76,
                    "time": 24.833108000000017,
                    "velocity": 0.4015748031496063,
                    "duration": 1.001335000000001
                },
                {
                    "name": "E6",
                    "midi": 88,
                    "time": 24.833108000000017,
                    "velocity": 0.48031496062992124,
                    "duration": 1.001335000000001
                },
                {
                    "name": "D#5",
                    "midi": 75,
                    "time": 25.834443000000018,
                    "velocity": 0.4094488188976378,
                    "duration": 0.2002670000000002
                },
                {
                    "name": "D#6",
                    "midi": 87,
                    "time": 25.834443000000018,
                    "velocity": 0.48031496062992124,
                    "duration": 0.2002670000000002
                },
                {
                    "name": "E5",
                    "midi": 76,
                    "time": 26.03471000000002,
                    "velocity": 0.4409448818897638,
                    "duration": 0.4005340000000004
                },
                {
                    "name": "E6",
                    "midi": 88,
                    "time": 26.03471000000002,
                    "velocity": 0.5196850393700787,
                    "duration": 0.4005340000000004
                },
                {
                    "name": "C4",
                    "midi": 60,
                    "time": 26.43524400000002,
                    "velocity": 0.4015748031496063,
                    "duration": 0.8010680000000008
                },
                {
                    "name": "E4",
                    "midi": 64,
                    "time": 26.43524400000002,
                    "velocity": 0.4015748031496063,
                    "duration": 0.8010680000000008
                },
                {
                    "name": "F#4",
                    "midi": 66,
                    "time": 26.43524400000002,
                    "velocity": 0.48031496062992124,
                    "duration": 0.8010680000000008
                },
                {
                    "name": "F#4",
                    "midi": 66,
                    "time": 27.23631200000002,
                    "velocity": 0.4094488188976378,
                    "duration": 0.4005340000000004
                },
                {
                    "name": "E4",
                    "midi": 64,
                    "time": 27.23631200000002,
                    "velocity": 0.3464566929133858,
                    "duration": 0.4005340000000004
                },
                {
                    "name": "C#4",
                    "midi": 61,
                    "time": 27.23631200000002,
                    "velocity": 0.3464566929133858,
                    "duration": 0.4005340000000004
                },
                {
                    "name": "A3",
                    "midi": 57,
                    "time": 27.63684600000002,
                    "velocity": 0.36220472440944884,
                    "duration": 1.2016020000000012
                },
                {
                    "name": "D#4",
                    "midi": 63,
                    "time": 27.63684600000002,
                    "velocity": 0.36220472440944884,
                    "duration": 1.2016020000000012
                },
                {
                    "name": "F#4",
                    "midi": 66,
                    "time": 27.63684600000002,
                    "velocity": 0.4330708661417323,
                    "duration": 0.6008010000000006
                },
                {
                    "name": "A4",
                    "midi": 69,
                    "time": 28.23764700000002,
                    "velocity": 0.2992125984251969,
                    "duration": 0.2002670000000002
                },
                {
                    "name": "G4",
                    "midi": 67,
                    "time": 28.43791400000002,
                    "velocity": 0.3228346456692913,
                    "duration": 0.2002670000000002
                },
                {
                    "name": "F#4",
                    "midi": 66,
                    "time": 28.63818100000002,
                    "velocity": 0.25196850393700787,
                    "duration": 0.2002670000000002
                },
                {
                    "name": "G3",
                    "midi": 55,
                    "time": 28.83844800000002,
                    "velocity": 0.23622047244094488,
                    "duration": 0.4005340000000004
                },
                {
                    "name": "E4",
                    "midi": 64,
                    "time": 28.83844800000002,
                    "velocity": 0.28346456692913385,
                    "duration": 0.4005340000000004
                },
                {
                    "name": "B3",
                    "midi": 59,
                    "time": 29.63951600000002,
                    "velocity": 0.23622047244094488,
                    "duration": 0.10013349999999832
                },
                {
                    "name": "B4",
                    "midi": 71,
                    "time": 29.63951600000002,
                    "velocity": 0.28346456692913385,
                    "duration": 0.10013349999999832
                },
                {
                    "name": "B4",
                    "midi": 71,
                    "time": 30.04005000000002,
                    "velocity": 0.3228346456692913,
                    "duration": 0.8010680000000008
                },
                {
                    "name": "B3",
                    "midi": 59,
                    "time": 30.04005000000002,
                    "velocity": 0.2677165354330709,
                    "duration": 0.8010680000000008
                },
                {
                    "name": "E4",
                    "midi": 64,
                    "time": 30.84111800000002,
                    "velocity": 0.23622047244094488,
                    "duration": 0.10013349999999832
                },
                {
                    "name": "E5",
                    "midi": 76,
                    "time": 30.84111800000002,
                    "velocity": 0.28346456692913385,
                    "duration": 0.10013349999999832
                },
                {
                    "name": "E5",
                    "midi": 76,
                    "time": 31.241652000000016,
                    "velocity": 0.33070866141732286,
                    "duration": 0.8010680000000008
                },
                {
                    "name": "E4",
                    "midi": 64,
                    "time": 31.241652000000016,
                    "velocity": 0.2755905511811024,
                    "duration": 0.8010680000000008
                },
                {
                    "name": "B4",
                    "midi": 71,
                    "time": 32.04272000000002,
                    "velocity": 0.23622047244094488,
                    "duration": 0.10013349999999832
                },
                {
                    "name": "B5",
                    "midi": 83,
                    "time": 32.04272000000002,
                    "velocity": 0.28346456692913385,
                    "duration": 0.10013349999999832
                },
                {
                    "name": "B5",
                    "midi": 83,
                    "time": 32.44325400000002,
                    "velocity": 0.31496062992125984,
                    "duration": 0.8010680000000008
                },
                {
                    "name": "B4",
                    "midi": 71,
                    "time": 32.44325400000002,
                    "velocity": 0.2677165354330709,
                    "duration": 0.8010680000000008
                },
                {
                    "name": "E6",
                    "midi": 88,
                    "time": 33.24432200000002,
                    "velocity": 0.28346456692913385,
                    "duration": 0.10013349999999832
                },
                {
                    "name": "E5",
                    "midi": 76,
                    "time": 33.24432200000002,
                    "velocity": 0.23622047244094488,
                    "duration": 0.10013349999999832
                },
                {
                    "name": "E5",
                    "midi": 76,
                    "time": 33.64485600000002,
                    "velocity": 0.2677165354330709,
                    "duration": 0.8010680000000008
                },
                {
                    "name": "E6",
                    "midi": 88,
                    "time": 33.64485600000002,
                    "velocity": 0.3228346456692913,
                    "duration": 0.8010680000000008
                },
                {
                    "name": "F5",
                    "midi": 77,
                    "time": 34.44592400000002,
                    "velocity": 0.5511811023622047,
                    "duration": 0.10013349999999832
                },
                {
                    "name": "B5",
                    "midi": 83,
                    "time": 34.44592400000002,
                    "velocity": 0.5511811023622047,
                    "duration": 0.10013349999999832
                },
                {
                    "name": "D6",
                    "midi": 86,
                    "time": 34.44592400000002,
                    "velocity": 0.5511811023622047,
                    "duration": 0.10013349999999832
                },
                {
                    "name": "F6",
                    "midi": 89,
                    "time": 34.44592400000002,
                    "velocity": 0.6456692913385826,
                    "duration": 0.10013349999999832
                },
                {
                    "name": "F5",
                    "midi": 77,
                    "time": 34.84645800000002,
                    "velocity": 0.5984251968503937,
                    "duration": 0.600800999999997
                },
                {
                    "name": "B5",
                    "midi": 83,
                    "time": 34.84645800000002,
                    "velocity": 0.5984251968503937,
                    "duration": 0.600800999999997
                },
                {
                    "name": "D6",
                    "midi": 86,
                    "time": 34.84645800000002,
                    "velocity": 0.5984251968503937,
                    "duration": 0.600800999999997
                },
                {
                    "name": "F6",
                    "midi": 89,
                    "time": 34.84645800000002,
                    "velocity": 0.7086614173228346,
                    "duration": 0.600800999999997
                },
                {
                    "name": "E6",
                    "midi": 88,
                    "time": 35.44725900000002,
                    "velocity": 0.5511811023622047,
                    "duration": 0.11014684999999957
                },
                {
                    "name": "D6",
                    "midi": 86,
                    "time": 35.547392500000015,
                    "velocity": 0.5433070866141733,
                    "duration": 0.11014684999999957
                },
                {
                    "name": "C6",
                    "midi": 84,
                    "time": 35.64752600000001,
                    "velocity": 0.5354330708661418,
                    "duration": 0.11014684999999957
                },
                {
                    "name": "B5",
                    "midi": 83,
                    "time": 35.74765950000001,
                    "velocity": 0.5354330708661418,
                    "duration": 0.11014684999999957
                },
                {
                    "name": "A5",
                    "midi": 81,
                    "time": 35.84779300000001,
                    "velocity": 0.5354330708661418,
                    "duration": 0.11014684999999957
                },
                {
                    "name": "G5",
                    "midi": 79,
                    "time": 35.94792650000001,
                    "velocity": 0.5196850393700787,
                    "duration": 0.11014684999999957
                },
                {
                    "name": "F5",
                    "midi": 77,
                    "time": 36.04806000000001,
                    "velocity": 0.5039370078740157,
                    "duration": 0.11014684999999957
                },
                {
                    "name": "E5",
                    "midi": 76,
                    "time": 36.148193500000005,
                    "velocity": 0.5039370078740157,
                    "duration": 0.11014684999999957
                },
                {
                    "name": "D5",
                    "midi": 74,
                    "time": 36.248327,
                    "velocity": 0.5039370078740157,
                    "duration": 0.11014684999999957
                },
                {
                    "name": "C5",
                    "midi": 72,
                    "time": 36.3484605,
                    "velocity": 0.5039370078740157,
                    "duration": 0.11014684999999957
                },
                {
                    "name": "B4",
                    "midi": 71,
                    "time": 36.448594,
                    "velocity": 0.49606299212598426,
                    "duration": 0.07343123333333068
                },
                {
                    "name": "A4",
                    "midi": 69,
                    "time": 36.515349666666665,
                    "velocity": 0.49606299212598426,
                    "duration": 0.07343123333333068
                },
                {
                    "name": "G4",
                    "midi": 67,
                    "time": 36.58210533333333,
                    "velocity": 0.49606299212598426,
                    "duration": 0.07343123333333068
                },
                {
                    "name": "F4",
                    "midi": 65,
                    "time": 36.648861,
                    "velocity": 0.49606299212598426,
                    "duration": 0.07343123333333068
                },
                {
                    "name": "E4",
                    "midi": 64,
                    "time": 36.71561666666666,
                    "velocity": 0.49606299212598426,
                    "duration": 0.07343123333333068
                },
                {
                    "name": "D4",
                    "midi": 62,
                    "time": 36.78237233333333,
                    "velocity": 0.49606299212598426,
                    "duration": 0.07343123333333068
                },
                {
                    "name": "C4",
                    "midi": 60,
                    "time": 36.84912799999999,
                    "velocity": 0.49606299212598426,
                    "duration": 0.08845125833332901
                },
                {
                    "name": "B3",
                    "midi": 59,
                    "time": 36.92923479999999,
                    "velocity": 0.49606299212598426,
                    "duration": 0.08845125833333611
                },
                {
                    "name": "A3",
                    "midi": 57,
                    "time": 37.00934159999999,
                    "velocity": 0.49606299212598426,
                    "duration": 0.08845125833333611
                },
                {
                    "name": "G3",
                    "midi": 55,
                    "time": 37.089448399999995,
                    "velocity": 0.4881889763779528,
                    "duration": 0.08845125833333611
                },
                {
                    "name": "F#3",
                    "midi": 54,
                    "time": 37.1695552,
                    "velocity": 0.4881889763779528,
                    "duration": 0.08845125833333611
                },
                {
                    "name": "G3",
                    "midi": 55,
                    "time": 37.249662,
                    "velocity": 0.7007874015748031,
                    "duration": 0.20026699999999664
                },
                {
                    "name": "F4",
                    "midi": 65,
                    "time": 38.050729999999994,
                    "velocity": 0.31496062992125984,
                    "duration": 0.10013349999999832
                },
                {
                    "name": "D4",
                    "midi": 62,
                    "time": 38.050729999999994,
                    "velocity": 0.2677165354330709,
                    "duration": 0.10013349999999832
                },
                {
                    "name": "G3",
                    "midi": 55,
                    "time": 38.050729999999994,
                    "velocity": 0.2677165354330709,
                    "duration": 0.10013349999999832
                },
                {
                    "name": "E4",
                    "midi": 64,
                    "time": 38.451263999999995,
                    "velocity": 0.3543307086614173,
                    "duration": 0.20026699999999664
                },
                {
                    "name": "C4",
                    "midi": 60,
                    "time": 38.451263999999995,
                    "velocity": 0.2992125984251969,
                    "duration": 0.20026699999999664
                },
                {
                    "name": "G3",
                    "midi": 55,
                    "time": 38.451263999999995,
                    "velocity": 0.2992125984251969,
                    "duration": 0.20026699999999664
                },
                {
                    "name": "D5",
                    "midi": 74,
                    "time": 39.25233199999999,
                    "velocity": 0.5984251968503937,
                    "duration": 0.10013349999999832
                },
                {
                    "name": "G#5",
                    "midi": 80,
                    "time": 39.25233199999999,
                    "velocity": 0.5984251968503937,
                    "duration": 0.10013349999999832
                },
                {
                    "name": "B5",
                    "midi": 83,
                    "time": 39.25233199999999,
                    "velocity": 0.5984251968503937,
                    "duration": 0.10013349999999832
                },
                {
                    "name": "D6",
                    "midi": 86,
                    "time": 39.25233199999999,
                    "velocity": 0.7086614173228346,
                    "duration": 0.10013349999999832
                },
                {
                    "name": "D5",
                    "midi": 74,
                    "time": 39.65286599999999,
                    "velocity": 0.6614173228346457,
                    "duration": 0.600800999999997
                },
                {
                    "name": "G#5",
                    "midi": 80,
                    "time": 39.65286599999999,
                    "velocity": 0.6614173228346457,
                    "duration": 0.600800999999997
                },
                {
                    "name": "B5",
                    "midi": 83,
                    "time": 39.65286599999999,
                    "velocity": 0.6614173228346457,
                    "duration": 0.600800999999997
                },
                {
                    "name": "D6",
                    "midi": 86,
                    "time": 39.65286599999999,
                    "velocity": 0.7716535433070866,
                    "duration": 0.600800999999997
                },
                {
                    "name": "C6",
                    "midi": 84,
                    "time": 40.253666999999986,
                    "velocity": 0.5511811023622047,
                    "duration": 0.11014684999999957
                },
                {
                    "name": "B5",
                    "midi": 83,
                    "time": 40.353800499999984,
                    "velocity": 0.5433070866141733,
                    "duration": 0.11014684999999957
                },
                {
                    "name": "A5",
                    "midi": 81,
                    "time": 40.45393399999998,
                    "velocity": 0.5354330708661418,
                    "duration": 0.11014684999999957
                },
                {
                    "name": "G#5",
                    "midi": 80,
                    "time": 40.55406749999998,
                    "velocity": 0.5354330708661418,
                    "duration": 0.11014684999999957
                },
                {
                    "name": "F#5",
                    "midi": 78,
                    "time": 40.65420099999998,
                    "velocity": 0.5354330708661418,
                    "duration": 0.11014684999999957
                },
                {
                    "name": "E5",
                    "midi": 76,
                    "time": 40.75433449999998,
                    "velocity": 0.5196850393700787,
                    "duration": 0.11014684999999957
                },
                {
                    "name": "D5",
                    "midi": 74,
                    "time": 40.854467999999976,
                    "velocity": 0.5039370078740157,
                    "duration": 0.11014684999999957
                },
                {
                    "name": "C5",
                    "midi": 72,
                    "time": 40.954601499999974,
                    "velocity": 0.5039370078740157,
                    "duration": 0.11014684999999957
                },
                {
                    "name": "B4",
                    "midi": 71,
                    "time": 41.05473499999997,
                    "velocity": 0.5039370078740157,
                    "duration": 0.11014684999999957
                },
                {
                    "name": "A4",
                    "midi": 69,
                    "time": 41.15486849999997,
                    "velocity": 0.5039370078740157,
                    "duration": 0.11014684999999957
                },
                {
                    "name": "G#4",
                    "midi": 68,
                    "time": 41.25500199999997,
                    "velocity": 0.49606299212598426,
                    "duration": 0.07343123333333068
                },
                {
                    "name": "F#4",
                    "midi": 66,
                    "time": 41.321757666666635,
                    "velocity": 0.49606299212598426,
                    "duration": 0.07343123333333068
                },
                {
                    "name": "E4",
                    "midi": 64,
                    "time": 41.3885133333333,
                    "velocity": 0.49606299212598426,
                    "duration": 0.07343123333333068
                },
                {
                    "name": "D4",
                    "midi": 62,
                    "time": 41.455268999999966,
                    "velocity": 0.49606299212598426,
                    "duration": 0.07343123333333068
                },
                {
                    "name": "C4",
                    "midi": 60,
                    "time": 41.52202466666663,
                    "velocity": 0.49606299212598426,
                    "duration": 0.07343123333333068
                },
                {
                    "name": "B3",
                    "midi": 59,
                    "time": 41.5887803333333,
                    "velocity": 0.49606299212598426,
                    "duration": 0.07343123333333068
                },
                {
                    "name": "A3",
                    "midi": 57,
                    "time": 41.65553599999996,
                    "velocity": 0.49606299212598426,
                    "duration": 0.08845125833332901
                },
                {
                    "name": "G#3",
                    "midi": 56,
                    "time": 41.73564279999996,
                    "velocity": 0.49606299212598426,
                    "duration": 0.08845125833333611
                },
                {
                    "name": "F#3",
                    "midi": 54,
                    "time": 41.81574959999996,
                    "velocity": 0.49606299212598426,
                    "duration": 0.08845125833333611
                },
                {
                    "name": "E3",
                    "midi": 52,
                    "time": 41.895856399999964,
                    "velocity": 0.4881889763779528,
                    "duration": 0.08845125833333611
                },
                {
                    "name": "D#3",
                    "midi": 51,
                    "time": 41.97596319999997,
                    "velocity": 0.4881889763779528,
                    "duration": 0.08845125833333611
                },
                {
                    "name": "E3",
                    "midi": 52,
                    "time": 42.05606999999997,
                    "velocity": 0.7007874015748031,
                    "duration": 0.4005340000000004
                },
                {
                    "name": "D4",
                    "midi": 62,
                    "time": 42.85713799999997,
                    "velocity": 0.31496062992125984,
                    "duration": 0.10013349999999832
                },
                {
                    "name": "B3",
                    "midi": 59,
                    "time": 42.85713799999997,
                    "velocity": 0.2677165354330709,
                    "duration": 0.10013349999999832
                },
                {
                    "name": "E3",
                    "midi": 52,
                    "time": 42.85713799999997,
                    "velocity": 0.2677165354330709,
                    "duration": 0.10013349999999832
                },
                {
                    "name": "C4",
                    "midi": 60,
                    "time": 43.25767199999997,
                    "velocity": 0.3543307086614173,
                    "duration": 0.20026699999999664
                },
                {
                    "name": "A3",
                    "midi": 57,
                    "time": 43.25767199999997,
                    "velocity": 0.2992125984251969,
                    "duration": 0.20026699999999664
                },
                {
                    "name": "E3",
                    "midi": 52,
                    "time": 43.25767199999997,
                    "velocity": 0.2992125984251969,
                    "duration": 0.20026699999999664
                },
                {
                    "name": "A#5",
                    "midi": 82,
                    "time": 44.058739999999965,
                    "velocity": 0.44881889763779526,
                    "duration": 0.3755006250000008
                },
                {
                    "name": "A#5",
                    "midi": 82,
                    "time": 44.459273999999965,
                    "velocity": 0.47244094488188976,
                    "duration": 0.600800999999997
                },
                {
                    "name": "A5",
                    "midi": 81,
                    "time": 45.06007499999996,
                    "velocity": 0.41732283464566927,
                    "duration": 0.11014684999999957
                },
                {
                    "name": "G5",
                    "midi": 79,
                    "time": 45.16020849999996,
                    "velocity": 0.41732283464566927,
                    "duration": 0.11014684999999957
                },
                {
                    "name": "F5",
                    "midi": 77,
                    "time": 45.26034199999996,
                    "velocity": 0.4015748031496063,
                    "duration": 0.11014684999999957
                },
                {
                    "name": "D#5",
                    "midi": 75,
                    "time": 45.36047549999996,
                    "velocity": 0.4015748031496063,
                    "duration": 0.11014684999999957
                },
                {
                    "name": "D5",
                    "midi": 74,
                    "time": 45.460608999999955,
                    "velocity": 0.4015748031496063,
                    "duration": 0.11014684999999957
                },
                {
                    "name": "C5",
                    "midi": 72,
                    "time": 45.560742499999954,
                    "velocity": 0.4015748031496063,
                    "duration": 0.11014684999999957
                },
                {
                    "name": "A#4",
                    "midi": 70,
                    "time": 45.66087599999995,
                    "velocity": 0.4015748031496063,
                    "duration": 0.11014684999999957
                },
                {
                    "name": "A4",
                    "midi": 69,
                    "time": 45.76100949999995,
                    "velocity": 0.3937007874015748,
                    "duration": 0.11014684999999957
                },
                {
                    "name": "G4",
                    "midi": 67,
                    "time": 45.86114299999995,
                    "velocity": 0.3858267716535433,
                    "duration": 0.11014684999999957
                },
                {
                    "name": "F4",
                    "midi": 65,
                    "time": 45.96127649999995,
                    "velocity": 0.3858267716535433,
                    "duration": 0.11014684999999957
                },
                {
                    "name": "D#4",
                    "midi": 63,
                    "time": 46.061409999999945,
                    "velocity": 0.41732283464566927,
                    "duration": 0.14686246666666136
                },
                {
                    "name": "D4",
                    "midi": 62,
                    "time": 46.194921333333276,
                    "velocity": 0.3858267716535433,
                    "duration": 0.14686246666666136
                },
                {
                    "name": "C4",
                    "midi": 60,
                    "time": 46.32843266666661,
                    "velocity": 0.3464566929133858,
                    "duration": 0.14686246666666136
                },
                {
                    "name": "A#3",
                    "midi": 58,
                    "time": 46.46194399999994,
                    "velocity": 0.41732283464566927,
                    "duration": 0.3921895416666601
                },
                {
                    "name": "A#3",
                    "midi": 58,
                    "time": 46.86247799999993,
                    "velocity": 0.41732283464566927,
                    "duration": 2.002670000000002
                },
                {
                    "name": "G4",
                    "midi": 67,
                    "time": 48.865147999999934,
                    "velocity": 0.41732283464566927,
                    "duration": 0.3604806000000025
                },
                {
                    "name": "G4",
                    "midi": 67,
                    "time": 49.265681999999934,
                    "velocity": 0.4645669291338583,
                    "duration": 0.8010680000000008
                },
                {
                    "name": "G4",
                    "midi": 67,
                    "time": 50.066749999999935,
                    "velocity": 0.41732283464566927,
                    "duration": 0.3604806000000025
                },
                {
                    "name": "C#5",
                    "midi": 73,
                    "time": 50.066749999999935,
                    "velocity": 0.49606299212598426,
                    "duration": 0.3604806000000025
                },
                {
                    "name": "C#5",
                    "midi": 73,
                    "time": 50.467283999999935,
                    "velocity": 0.5354330708661418,
                    "duration": 0.8010680000000008
                },
                {
                    "name": "G4",
                    "midi": 67,
                    "time": 50.467283999999935,
                    "velocity": 0.44881889763779526,
                    "duration": 0.8010680000000008
                },
                {
                    "name": "C#5",
                    "midi": 73,
                    "time": 51.268351999999936,
                    "velocity": 0.4566929133858268,
                    "duration": 0.3604806000000025
                },
                {
                    "name": "E5",
                    "midi": 76,
                    "time": 51.268351999999936,
                    "velocity": 0.4566929133858268,
                    "duration": 0.3604806000000025
                },
                {
                    "name": "G5",
                    "midi": 79,
                    "time": 51.268351999999936,
                    "velocity": 0.5433070866141733,
                    "duration": 0.3604806000000025
                },
                {
                    "name": "C#5",
                    "midi": 73,
                    "time": 51.66888599999994,
                    "velocity": 0.5196850393700787,
                    "duration": 2.002670000000002
                },
                {
                    "name": "E5",
                    "midi": 76,
                    "time": 51.66888599999994,
                    "velocity": 0.5196850393700787,
                    "duration": 2.002670000000002
                },
                {
                    "name": "G5",
                    "midi": 79,
                    "time": 51.66888599999994,
                    "velocity": 0.6141732283464567,
                    "duration": 0.8010680000000008
                },
                {
                    "name": "F#5",
                    "midi": 78,
                    "time": 52.46995399999994,
                    "velocity": 0.6299212598425197,
                    "duration": 0.4005340000000004
                },
                {
                    "name": "F5",
                    "midi": 77,
                    "time": 52.87048799999994,
                    "velocity": 0.6614173228346457,
                    "duration": 0.8010680000000008
                },
                {
                    "name": "F#5",
                    "midi": 78,
                    "time": 53.67155599999994,
                    "velocity": 0.6456692913385826,
                    "duration": 0.3604806000000025
                },
                {
                    "name": "E5",
                    "midi": 76,
                    "time": 53.67155599999994,
                    "velocity": 0.5433070866141733,
                    "duration": 0.3604806000000025
                },
                {
                    "name": "C#5",
                    "midi": 73,
                    "time": 53.67155599999994,
                    "velocity": 0.5433070866141733,
                    "duration": 0.3604806000000025
                },
                {
                    "name": "B4",
                    "midi": 71,
                    "time": 54.07208999999994,
                    "velocity": 0.6299212598425197,
                    "duration": 1.2016020000000012
                },
                {
                    "name": "D5",
                    "midi": 74,
                    "time": 54.07208999999994,
                    "velocity": 0.6299212598425197,
                    "duration": 1.2016020000000012
                },
                {
                    "name": "F#5",
                    "midi": 78,
                    "time": 54.07208999999994,
                    "velocity": 0.7480314960629921,
                    "duration": 1.2016020000000012
                },
                {
                    "name": "B4",
                    "midi": 71,
                    "time": 55.27369199999994,
                    "velocity": 0.6299212598425197,
                    "duration": 1.2016020000000012
                },
                {
                    "name": "F#5",
                    "midi": 78,
                    "time": 55.27369199999994,
                    "velocity": 0.6299212598425197,
                    "duration": 1.2016020000000012
                },
                {
                    "name": "B5",
                    "midi": 83,
                    "time": 55.27369199999994,
                    "velocity": 0.7401574803149606,
                    "duration": 1.2016020000000012
                },
                {
                    "name": "F#4",
                    "midi": 66,
                    "time": 56.47529399999994,
                    "velocity": 0.3228346456692913,
                    "duration": 0.10013349999999832
                },
                {
                    "name": "B4",
                    "midi": 71,
                    "time": 56.47529399999994,
                    "velocity": 0.3858267716535433,
                    "duration": 0.10013349999999832
                },
                {
                    "name": "C5",
                    "midi": 72,
                    "time": 56.87582799999994,
                    "velocity": 0.4645669291338583,
                    "duration": 0.10013349999999832
                },
                {
                    "name": "C4",
                    "midi": 60,
                    "time": 56.87582799999994,
                    "velocity": 0.3858267716535433,
                    "duration": 0.10013349999999832
                },
                {
                    "name": "C5",
                    "midi": 72,
                    "time": 57.67689599999994,
                    "velocity": 0.4409448818897638,
                    "duration": 0.10013349999999832
                },
                {
                    "name": "G4",
                    "midi": 67,
                    "time": 57.67689599999994,
                    "velocity": 0.3700787401574803,
                    "duration": 0.10013349999999832
                },
                {
                    "name": "D#5",
                    "midi": 75,
                    "time": 58.07742999999994,
                    "velocity": 0.4645669291338583,
                    "duration": 0.10013349999999832
                },
                {
                    "name": "D#4",
                    "midi": 63,
                    "time": 58.07742999999994,
                    "velocity": 0.3858267716535433,
                    "duration": 0.10013349999999832
                },
                {
                    "name": "D#5",
                    "midi": 75,
                    "time": 58.878497999999944,
                    "velocity": 0.44881889763779526,
                    "duration": 0.10013349999999832
                },
                {
                    "name": "A4",
                    "midi": 69,
                    "time": 58.878497999999944,
                    "velocity": 0.3779527559055118,
                    "duration": 0.10013349999999832
                },
                {
                    "name": "E5",
                    "midi": 76,
                    "time": 59.279031999999944,
                    "velocity": 0.49606299212598426,
                    "duration": 0.10013349999999832
                },
                {
                    "name": "E4",
                    "midi": 64,
                    "time": 59.279031999999944,
                    "velocity": 0.41732283464566927,
                    "duration": 0.10013349999999832
                },
                {
                    "name": "E5",
                    "midi": 76,
                    "time": 60.080099999999945,
                    "velocity": 0.47244094488188976,
                    "duration": 0.10013349999999832
                },
                {
                    "name": "B4",
                    "midi": 71,
                    "time": 60.080099999999945,
                    "velocity": 0.3937007874015748,
                    "duration": 0.10013349999999832
                },
                {
                    "name": "F5",
                    "midi": 77,
                    "time": 60.480633999999945,
                    "velocity": 0.5039370078740157,
                    "duration": 0.10013349999999832
                },
                {
                    "name": "F4",
                    "midi": 65,
                    "time": 60.480633999999945,
                    "velocity": 0.4330708661417323,
                    "duration": 0.10013349999999832
                },
                {
                    "name": "G#4",
                    "midi": 68,
                    "time": 61.281701999999946,
                    "velocity": 0.30708661417322836,
                    "duration": 0.10013349999999832
                },
                {
                    "name": "B4",
                    "midi": 71,
                    "time": 61.281701999999946,
                    "velocity": 0.30708661417322836,
                    "duration": 0.10013349999999832
                },
                {
                    "name": "E5",
                    "midi": 76,
                    "time": 61.281701999999946,
                    "velocity": 0.36220472440944884,
                    "duration": 0.10013349999999832
                },
                {
                    "name": "F5",
                    "midi": 77,
                    "time": 61.48196899999994,
                    "velocity": 0.2992125984251969,
                    "duration": 0.10013349999999832
                },
                {
                    "name": "B4",
                    "midi": 71,
                    "time": 61.48196899999994,
                    "velocity": 0.25196850393700787,
                    "duration": 0.10013349999999832
                },
                {
                    "name": "G#4",
                    "midi": 68,
                    "time": 61.48196899999994,
                    "velocity": 0.25196850393700787,
                    "duration": 0.10013349999999832
                },
                {
                    "name": "F5",
                    "midi": 77,
                    "time": 61.68223599999994,
                    "velocity": 0.2992125984251969,
                    "duration": 0.10013349999999832
                },
                {
                    "name": "B4",
                    "midi": 71,
                    "time": 61.68223599999994,
                    "velocity": 0.25196850393700787,
                    "duration": 0.10013349999999832
                },
                {
                    "name": "G#4",
                    "midi": 68,
                    "time": 61.68223599999994,
                    "velocity": 0.25196850393700787,
                    "duration": 0.10013349999999832
                },
                {
                    "name": "F5",
                    "midi": 77,
                    "time": 61.882502999999936,
                    "velocity": 0.2992125984251969,
                    "duration": 0.10013349999999832
                },
                {
                    "name": "B4",
                    "midi": 71,
                    "time": 61.882502999999936,
                    "velocity": 0.25196850393700787,
                    "duration": 0.10013349999999832
                },
                {
                    "name": "G#4",
                    "midi": 68,
                    "time": 61.882502999999936,
                    "velocity": 0.25196850393700787,
                    "duration": 0.10013349999999832
                },
                {
                    "name": "F5",
                    "midi": 77,
                    "time": 62.08276999999993,
                    "velocity": 0.2992125984251969,
                    "duration": 0.10013349999999832
                },
                {
                    "name": "B4",
                    "midi": 71,
                    "time": 62.08276999999993,
                    "velocity": 0.25196850393700787,
                    "duration": 0.10013349999999832
                },
                {
                    "name": "G#4",
                    "midi": 68,
                    "time": 62.08276999999993,
                    "velocity": 0.25196850393700787,
                    "duration": 0.10013349999999832
                },
                {
                    "name": "F5",
                    "midi": 77,
                    "time": 62.28303699999993,
                    "velocity": 0.2992125984251969,
                    "duration": 0.10013349999999832
                },
                {
                    "name": "B4",
                    "midi": 71,
                    "time": 62.28303699999993,
                    "velocity": 0.25196850393700787,
                    "duration": 0.10013349999999832
                },
                {
                    "name": "G#4",
                    "midi": 68,
                    "time": 62.28303699999993,
                    "velocity": 0.25196850393700787,
                    "duration": 0.10013349999999832
                },
                {
                    "name": "G#4",
                    "midi": 68,
                    "time": 62.483303999999926,
                    "velocity": 0.30708661417322836,
                    "duration": 0.10013349999999832
                },
                {
                    "name": "B4",
                    "midi": 71,
                    "time": 62.483303999999926,
                    "velocity": 0.30708661417322836,
                    "duration": 0.10013349999999832
                },
                {
                    "name": "F5",
                    "midi": 77,
                    "time": 62.483303999999926,
                    "velocity": 0.36220472440944884,
                    "duration": 0.10013349999999832
                },
                {
                    "name": "F5",
                    "midi": 77,
                    "time": 62.68357099999992,
                    "velocity": 0.4094488188976378,
                    "duration": 0.10013349999999832
                },
                {
                    "name": "B4",
                    "midi": 71,
                    "time": 62.68357099999992,
                    "velocity": 0.3464566929133858,
                    "duration": 0.10013349999999832
                },
                {
                    "name": "G#4",
                    "midi": 68,
                    "time": 62.68357099999992,
                    "velocity": 0.3464566929133858,
                    "duration": 0.10013349999999832
                },
                {
                    "name": "F5",
                    "midi": 77,
                    "time": 62.88383799999992,
                    "velocity": 0.4566929133858268,
                    "duration": 0.10013349999999832
                },
                {
                    "name": "B4",
                    "midi": 71,
                    "time": 62.88383799999992,
                    "velocity": 0.3779527559055118,
                    "duration": 0.10013349999999832
                },
                {
                    "name": "G#4",
                    "midi": 68,
                    "time": 62.88383799999992,
                    "velocity": 0.3779527559055118,
                    "duration": 0.10013349999999832
                },
                {
                    "name": "F5",
                    "midi": 77,
                    "time": 63.084104999999916,
                    "velocity": 0.49606299212598426,
                    "duration": 0.10013349999999832
                },
                {
                    "name": "B4",
                    "midi": 71,
                    "time": 63.084104999999916,
                    "velocity": 0.41732283464566927,
                    "duration": 0.10013349999999832
                },
                {
                    "name": "G#4",
                    "midi": 68,
                    "time": 63.084104999999916,
                    "velocity": 0.41732283464566927,
                    "duration": 0.10013349999999832
                },
                {
                    "name": "F5",
                    "midi": 77,
                    "time": 63.28437199999991,
                    "velocity": 0.5433070866141733,
                    "duration": 0.10013349999999832
                },
                {
                    "name": "B4",
                    "midi": 71,
                    "time": 63.28437199999991,
                    "velocity": 0.4645669291338583,
                    "duration": 0.10013349999999832
                },
                {
                    "name": "G#4",
                    "midi": 68,
                    "time": 63.28437199999991,
                    "velocity": 0.4645669291338583,
                    "duration": 0.10013349999999832
                },
                {
                    "name": "F5",
                    "midi": 77,
                    "time": 63.48463899999991,
                    "velocity": 0.5905511811023622,
                    "duration": 0.10013349999999832
                },
                {
                    "name": "B4",
                    "midi": 71,
                    "time": 63.48463899999991,
                    "velocity": 0.49606299212598426,
                    "duration": 0.10013349999999832
                },
                {
                    "name": "G#4",
                    "midi": 68,
                    "time": 63.48463899999991,
                    "velocity": 0.49606299212598426,
                    "duration": 0.10013349999999832
                },
                {
                    "name": "F#5",
                    "midi": 78,
                    "time": 63.684905999999906,
                    "velocity": 0.6062992125984252,
                    "duration": 0.10013349999999832
                },
                {
                    "name": "A#5",
                    "midi": 82,
                    "time": 63.684905999999906,
                    "velocity": 0.6062992125984252,
                    "duration": 0.10013349999999832
                },
                {
                    "name": "C#6",
                    "midi": 85,
                    "time": 63.684905999999906,
                    "velocity": 0.6062992125984252,
                    "duration": 0.10013349999999832
                },
                {
                    "name": "E6",
                    "midi": 88,
                    "time": 63.684905999999906,
                    "velocity": 0.7165354330708661,
                    "duration": 0.10013349999999832
                },
                {
                    "name": "F#6",
                    "midi": 90,
                    "time": 63.684905999999906,
                    "velocity": 0.7165354330708661,
                    "duration": 0.10013349999999832
                },
                {
                    "name": "G5",
                    "midi": 79,
                    "time": 63.8851729999999,
                    "velocity": 0.5511811023622047,
                    "duration": 0.10013349999999832
                },
                {
                    "name": "A#5",
                    "midi": 82,
                    "time": 63.8851729999999,
                    "velocity": 0.5511811023622047,
                    "duration": 0.10013349999999832
                },
                {
                    "name": "C#6",
                    "midi": 85,
                    "time": 63.8851729999999,
                    "velocity": 0.5511811023622047,
                    "duration": 0.10013349999999832
                },
                {
                    "name": "E6",
                    "midi": 88,
                    "time": 63.8851729999999,
                    "velocity": 0.6535433070866141,
                    "duration": 0.10013349999999832
                },
                {
                    "name": "G6",
                    "midi": 91,
                    "time": 63.8851729999999,
                    "velocity": 0.6535433070866141,
                    "duration": 0.10013349999999832
                },
                {
                    "name": "G5",
                    "midi": 79,
                    "time": 64.0854399999999,
                    "velocity": 0.5511811023622047,
                    "duration": 0.10013349999999832
                },
                {
                    "name": "A#5",
                    "midi": 82,
                    "time": 64.0854399999999,
                    "velocity": 0.5511811023622047,
                    "duration": 0.10013349999999832
                },
                {
                    "name": "C#6",
                    "midi": 85,
                    "time": 64.0854399999999,
                    "velocity": 0.5511811023622047,
                    "duration": 0.10013349999999832
                },
                {
                    "name": "E6",
                    "midi": 88,
                    "time": 64.0854399999999,
                    "velocity": 0.6535433070866141,
                    "duration": 0.10013349999999832
                },
                {
                    "name": "G6",
                    "midi": 91,
                    "time": 64.0854399999999,
                    "velocity": 0.6535433070866141,
                    "duration": 0.10013349999999832
                },
                {
                    "name": "G5",
                    "midi": 79,
                    "time": 64.2857069999999,
                    "velocity": 0.5511811023622047,
                    "duration": 0.10013349999999832
                },
                {
                    "name": "A#5",
                    "midi": 82,
                    "time": 64.2857069999999,
                    "velocity": 0.5511811023622047,
                    "duration": 0.10013349999999832
                },
                {
                    "name": "C#6",
                    "midi": 85,
                    "time": 64.2857069999999,
                    "velocity": 0.5511811023622047,
                    "duration": 0.10013349999999832
                },
                {
                    "name": "E6",
                    "midi": 88,
                    "time": 64.2857069999999,
                    "velocity": 0.6535433070866141,
                    "duration": 0.10013349999999832
                },
                {
                    "name": "G6",
                    "midi": 91,
                    "time": 64.2857069999999,
                    "velocity": 0.6535433070866141,
                    "duration": 0.10013349999999832
                },
                {
                    "name": "G5",
                    "midi": 79,
                    "time": 64.4859739999999,
                    "velocity": 0.5511811023622047,
                    "duration": 0.10013349999999832
                },
                {
                    "name": "A#5",
                    "midi": 82,
                    "time": 64.4859739999999,
                    "velocity": 0.5511811023622047,
                    "duration": 0.10013349999999832
                },
                {
                    "name": "C#6",
                    "midi": 85,
                    "time": 64.4859739999999,
                    "velocity": 0.5511811023622047,
                    "duration": 0.10013349999999832
                },
                {
                    "name": "E6",
                    "midi": 88,
                    "time": 64.4859739999999,
                    "velocity": 0.6535433070866141,
                    "duration": 0.10013349999999832
                },
                {
                    "name": "G6",
                    "midi": 91,
                    "time": 64.4859739999999,
                    "velocity": 0.6535433070866141,
                    "duration": 0.10013349999999832
                },
                {
                    "name": "G5",
                    "midi": 79,
                    "time": 64.6862409999999,
                    "velocity": 0.5511811023622047,
                    "duration": 0.10013349999999832
                },
                {
                    "name": "A#5",
                    "midi": 82,
                    "time": 64.6862409999999,
                    "velocity": 0.5511811023622047,
                    "duration": 0.10013349999999832
                },
                {
                    "name": "C#6",
                    "midi": 85,
                    "time": 64.6862409999999,
                    "velocity": 0.5511811023622047,
                    "duration": 0.10013349999999832
                },
                {
                    "name": "E6",
                    "midi": 88,
                    "time": 64.6862409999999,
                    "velocity": 0.6535433070866141,
                    "duration": 0.10013349999999832
                },
                {
                    "name": "G6",
                    "midi": 91,
                    "time": 64.6862409999999,
                    "velocity": 0.6535433070866141,
                    "duration": 0.10013349999999832
                },
                {
                    "name": "G5",
                    "midi": 79,
                    "time": 64.88650799999989,
                    "velocity": 0.5590551181102362,
                    "duration": 0.10013349999999832
                },
                {
                    "name": "A#5",
                    "midi": 82,
                    "time": 64.88650799999989,
                    "velocity": 0.5590551181102362,
                    "duration": 0.10013349999999832
                },
                {
                    "name": "C#6",
                    "midi": 85,
                    "time": 64.88650799999989,
                    "velocity": 0.5590551181102362,
                    "duration": 0.10013349999999832
                },
                {
                    "name": "E6",
                    "midi": 88,
                    "time": 64.88650799999989,
                    "velocity": 0.6692913385826772,
                    "duration": 0.10013349999999832
                },
                {
                    "name": "G6",
                    "midi": 91,
                    "time": 64.88650799999989,
                    "velocity": 0.6692913385826772,
                    "duration": 0.10013349999999832
                },
                {
                    "name": "G5",
                    "midi": 79,
                    "time": 65.08677499999989,
                    "velocity": 0.5118110236220472,
                    "duration": 0.10013349999999832
                },
                {
                    "name": "A#5",
                    "midi": 82,
                    "time": 65.08677499999989,
                    "velocity": 0.5118110236220472,
                    "duration": 0.10013349999999832
                },
                {
                    "name": "C#6",
                    "midi": 85,
                    "time": 65.08677499999989,
                    "velocity": 0.5118110236220472,
                    "duration": 0.10013349999999832
                },
                {
                    "name": "E6",
                    "midi": 88,
                    "time": 65.08677499999989,
                    "velocity": 0.6062992125984252,
                    "duration": 0.10013349999999832
                },
                {
                    "name": "G6",
                    "midi": 91,
                    "time": 65.08677499999989,
                    "velocity": 0.6062992125984252,
                    "duration": 0.10013349999999832
                },
                {
                    "name": "G5",
                    "midi": 79,
                    "time": 65.28704199999989,
                    "velocity": 0.49606299212598426,
                    "duration": 0.10013349999999832
                },
                {
                    "name": "A#5",
                    "midi": 82,
                    "time": 65.28704199999989,
                    "velocity": 0.49606299212598426,
                    "duration": 0.10013349999999832
                },
                {
                    "name": "C#6",
                    "midi": 85,
                    "time": 65.28704199999989,
                    "velocity": 0.49606299212598426,
                    "duration": 0.10013349999999832
                },
                {
                    "name": "E6",
                    "midi": 88,
                    "time": 65.28704199999989,
                    "velocity": 0.5826771653543307,
                    "duration": 0.10013349999999832
                },
                {
                    "name": "G6",
                    "midi": 91,
                    "time": 65.28704199999989,
                    "velocity": 0.5826771653543307,
                    "duration": 0.10013349999999832
                },
                {
                    "name": "G5",
                    "midi": 79,
                    "time": 65.48730899999988,
                    "velocity": 0.44881889763779526,
                    "duration": 0.10013349999999832
                },
                {
                    "name": "A#5",
                    "midi": 82,
                    "time": 65.48730899999988,
                    "velocity": 0.44881889763779526,
                    "duration": 0.10013349999999832
                },
                {
                    "name": "C#6",
                    "midi": 85,
                    "time": 65.48730899999988,
                    "velocity": 0.44881889763779526,
                    "duration": 0.10013349999999832
                },
                {
                    "name": "E6",
                    "midi": 88,
                    "time": 65.48730899999988,
                    "velocity": 0.5275590551181102,
                    "duration": 0.10013349999999832
                },
                {
                    "name": "G6",
                    "midi": 91,
                    "time": 65.48730899999988,
                    "velocity": 0.5275590551181102,
                    "duration": 0.10013349999999832
                },
                {
                    "name": "G5",
                    "midi": 79,
                    "time": 65.68757599999988,
                    "velocity": 0.4015748031496063,
                    "duration": 0.10013349999999832
                },
                {
                    "name": "A#5",
                    "midi": 82,
                    "time": 65.68757599999988,
                    "velocity": 0.4015748031496063,
                    "duration": 0.10013349999999832
                },
                {
                    "name": "C#6",
                    "midi": 85,
                    "time": 65.68757599999988,
                    "velocity": 0.4015748031496063,
                    "duration": 0.10013349999999832
                },
                {
                    "name": "E6",
                    "midi": 88,
                    "time": 65.68757599999988,
                    "velocity": 0.47244094488188976,
                    "duration": 0.10013349999999832
                },
                {
                    "name": "G6",
                    "midi": 91,
                    "time": 65.68757599999988,
                    "velocity": 0.47244094488188976,
                    "duration": 0.10013349999999832
                },
                {
                    "name": "G5",
                    "midi": 79,
                    "time": 65.88784299999988,
                    "velocity": 0.3700787401574803,
                    "duration": 0.10013349999999832
                },
                {
                    "name": "A#5",
                    "midi": 82,
                    "time": 65.88784299999988,
                    "velocity": 0.3700787401574803,
                    "duration": 0.10013349999999832
                },
                {
                    "name": "C#6",
                    "midi": 85,
                    "time": 65.88784299999988,
                    "velocity": 0.3700787401574803,
                    "duration": 0.10013349999999832
                },
                {
                    "name": "E6",
                    "midi": 88,
                    "time": 65.88784299999988,
                    "velocity": 0.4409448818897638,
                    "duration": 0.10013349999999832
                },
                {
                    "name": "G6",
                    "midi": 91,
                    "time": 65.88784299999988,
                    "velocity": 0.4409448818897638,
                    "duration": 0.10013349999999832
                },
                {
                    "name": "G6",
                    "midi": 91,
                    "time": 66.08810999999987,
                    "velocity": 0.4409448818897638,
                    "duration": 0.4005339999999933
                },
                {
                    "name": "G5",
                    "midi": 79,
                    "time": 66.08810999999987,
                    "velocity": 0.4409448818897638,
                    "duration": 0.4005339999999933
                },
                {
                    "name": "F#6",
                    "midi": 90,
                    "time": 66.48864399999987,
                    "velocity": 0.4409448818897638,
                    "duration": 1.201601999999994
                },
                {
                    "name": "F#5",
                    "midi": 78,
                    "time": 66.48864399999987,
                    "velocity": 0.4409448818897638,
                    "duration": 1.201601999999994
                },
                {
                    "name": "B4",
                    "midi": 71,
                    "time": 67.69024599999986,
                    "velocity": 0.4409448818897638,
                    "duration": 1.201601999999994
                },
                {
                    "name": "B5",
                    "midi": 83,
                    "time": 67.69024599999986,
                    "velocity": 0.4409448818897638,
                    "duration": 1.201601999999994
                },
                {
                    "name": "F#4",
                    "midi": 66,
                    "time": 68.89184799999985,
                    "velocity": 0.4409448818897638,
                    "duration": 1.201601999999994
                },
                {
                    "name": "F#5",
                    "midi": 78,
                    "time": 68.89184799999985,
                    "velocity": 0.4409448818897638,
                    "duration": 1.201601999999994
                },
                {
                    "name": "B3",
                    "midi": 59,
                    "time": 70.09344999999985,
                    "velocity": 0.4409448818897638,
                    "duration": 0.8010680000000008
                },
                {
                    "name": "B4",
                    "midi": 71,
                    "time": 70.09344999999985,
                    "velocity": 0.4409448818897638,
                    "duration": 1.201601999999994
                },
                {
                    "name": "G4",
                    "midi": 67,
                    "time": 71.29505199999984,
                    "velocity": 0.49606299212598426,
                    "duration": 0.4005339999999933
                },
                {
                    "name": "F#4",
                    "midi": 66,
                    "time": 71.69558599999984,
                    "velocity": 0.44881889763779526,
                    "duration": 0.3921895416666672
                },
                {
                    "name": "F#4",
                    "midi": 66,
                    "time": 72.09611999999984,
                    "velocity": 0.5118110236220472,
                    "duration": 0.8010680000000008
                },
                {
                    "name": "A#4",
                    "midi": 70,
                    "time": 72.89718799999984,
                    "velocity": 0.4566929133858268,
                    "duration": 0.4005339999999933
                },
                {
                    "name": "B4",
                    "midi": 71,
                    "time": 73.29772199999984,
                    "velocity": 0.4409448818897638,
                    "duration": 0.20026699999999664
                },
                {
                    "name": "G5",
                    "midi": 79,
                    "time": 73.49798899999983,
                    "velocity": 0.5354330708661418,
                    "duration": 0.20026699999999664
                },
                {
                    "name": "G6",
                    "midi": 91,
                    "time": 73.69825599999983,
                    "velocity": 0.5826771653543307,
                    "duration": 0.6008010000000041
                },
                {
                    "name": "F#6",
                    "midi": 90,
                    "time": 74.29905699999983,
                    "velocity": 0.4409448818897638,
                    "duration": 0.20026699999999664
                },
                {
                    "name": "F#6",
                    "midi": 90,
                    "time": 74.69959099999983,
                    "velocity": 0.5433070866141733,
                    "duration": 0.20026699999999664
                },
                {
                    "name": "C#6",
                    "midi": 85,
                    "time": 74.89985799999982,
                    "velocity": 0.5196850393700787,
                    "duration": 0.6008010000000041
                },
                {
                    "name": "B5",
                    "midi": 83,
                    "time": 75.50065899999983,
                    "velocity": 0.4015748031496063,
                    "duration": 0.20026699999999664
                },
                {
                    "name": "B5",
                    "midi": 83,
                    "time": 75.90119299999982,
                    "velocity": 0.5748031496062992,
                    "duration": 0.20026699999999664
                },
                {
                    "name": "G5",
                    "midi": 79,
                    "time": 76.10145999999982,
                    "velocity": 0.5511811023622047,
                    "duration": 0.6008010000000041
                },
                {
                    "name": "F#5",
                    "midi": 78,
                    "time": 76.70226099999982,
                    "velocity": 0.41732283464566927,
                    "duration": 0.20026699999999664
                },
                {
                    "name": "F#5",
                    "midi": 78,
                    "time": 77.10279499999982,
                    "velocity": 0.5511811023622047,
                    "duration": 0.20026699999999664
                },
                {
                    "name": "C#5",
                    "midi": 73,
                    "time": 77.30306199999981,
                    "velocity": 0.5118110236220472,
                    "duration": 0.6008010000000041
                },
                {
                    "name": "B4",
                    "midi": 71,
                    "time": 77.90386299999982,
                    "velocity": 0.4409448818897638,
                    "duration": 0.19192254166667055
                },
                {
                    "name": "B4",
                    "midi": 71,
                    "time": 78.10412999999983,
                    "velocity": 0.49606299212598426,
                    "duration": 0.4005339999999933
                },
                {
                    "name": "G4",
                    "midi": 67,
                    "time": 78.50466399999982,
                    "velocity": 0.49606299212598426,
                    "duration": 0.4005339999999933
                },
                {
                    "name": "F#4",
                    "midi": 66,
                    "time": 78.90519799999981,
                    "velocity": 0.5118110236220472,
                    "duration": 0.3921895416666672
                },
                {
                    "name": "F#4",
                    "midi": 66,
                    "time": 79.30573199999982,
                    "velocity": 0.5590551181102362,
                    "duration": 0.20026699999999664
                },
                {
                    "name": "D4",
                    "midi": 62,
                    "time": 79.50599899999982,
                    "velocity": 0.5118110236220472,
                    "duration": 0.20026699999999664
                },
                {
                    "name": "B3",
                    "midi": 59,
                    "time": 79.70626599999981,
                    "velocity": 0.5590551181102362,
                    "duration": 0.20026699999999664
                },
                {
                    "name": "G3",
                    "midi": 55,
                    "time": 79.90653299999981,
                    "velocity": 0.5118110236220472,
                    "duration": 0.20026699999999664
                },
                {
                    "name": "F#3",
                    "midi": 54,
                    "time": 80.10679999999981,
                    "velocity": 0.5511811023622047,
                    "duration": 0.20026699999999664
                },
                {
                    "name": "A#3",
                    "midi": 58,
                    "time": 80.3070669999998,
                    "velocity": 0.5984251968503937,
                    "duration": 0.20026699999999664
                },
                {
                    "name": "B3",
                    "midi": 59,
                    "time": 80.5073339999998,
                    "velocity": 0.6299212598425197,
                    "duration": 0.4005339999999933
                },
                {
                    "name": "B3",
                    "midi": 59,
                    "time": 81.7089359999998,
                    "velocity": 0.6220472440944882,
                    "duration": 1.201601999999994
                },
                {
                    "name": "G3",
                    "midi": 55,
                    "time": 81.7089359999998,
                    "velocity": 0.5275590551181102,
                    "duration": 1.201601999999994
                },
                {
                    "name": "C4",
                    "midi": 60,
                    "time": 82.91053799999979,
                    "velocity": 0.2677165354330709,
                    "duration": 0.8010680000000008
                },
                {
                    "name": "G3",
                    "midi": 55,
                    "time": 82.91053799999979,
                    "velocity": 0.2204724409448819,
                    "duration": 1.201601999999994
                },
                {
                    "name": "G4",
                    "midi": 67,
                    "time": 83.71160599999979,
                    "velocity": 0.30708661417322836,
                    "duration": 1.201601999999994
                },
                {
                    "name": "E4",
                    "midi": 64,
                    "time": 84.11213999999978,
                    "velocity": 0.2125984251968504,
                    "duration": 1.2016020000000083
                },
                {
                    "name": "A#3",
                    "midi": 58,
                    "time": 84.11213999999978,
                    "velocity": 0.2125984251968504,
                    "duration": 1.2016020000000083
                },
                {
                    "name": "C#4",
                    "midi": 61,
                    "time": 84.11213999999978,
                    "velocity": 0.2125984251968504,
                    "duration": 1.2016020000000083
                },
                {
                    "name": "F#4",
                    "midi": 66,
                    "time": 84.91320799999978,
                    "velocity": 0.25984251968503935,
                    "duration": 0.3921895416666672
                },
                {
                    "name": "F#4",
                    "midi": 66,
                    "time": 85.31374199999979,
                    "velocity": 0.31496062992125984,
                    "duration": 0.4005339999999933
                },
                {
                    "name": "D4",
                    "midi": 62,
                    "time": 85.31374199999979,
                    "velocity": 0.2677165354330709,
                    "duration": 0.4005339999999933
                },
                {
                    "name": "B3",
                    "midi": 59,
                    "time": 85.31374199999979,
                    "velocity": 0.2677165354330709,
                    "duration": 0.4005339999999933
                },
                {
                    "name": "B3",
                    "midi": 59,
                    "time": 86.51534399999979,
                    "velocity": 0.6220472440944882,
                    "duration": 1.201601999999994
                },
                {
                    "name": "G3",
                    "midi": 55,
                    "time": 86.51534399999979,
                    "velocity": 0.5275590551181102,
                    "duration": 1.201601999999994
                },
                {
                    "name": "C4",
                    "midi": 60,
                    "time": 87.71694599999978,
                    "velocity": 0.2677165354330709,
                    "duration": 0.8010680000000008
                },
                {
                    "name": "G3",
                    "midi": 55,
                    "time": 87.71694599999978,
                    "velocity": 0.2204724409448819,
                    "duration": 1.201601999999994
                },
                {
                    "name": "G4",
                    "midi": 67,
                    "time": 88.51801399999978,
                    "velocity": 0.30708661417322836,
                    "duration": 1.201601999999994
                },
                {
                    "name": "E4",
                    "midi": 64,
                    "time": 88.91854799999977,
                    "velocity": 0.2125984251968504,
                    "duration": 1.2016020000000083
                },
                {
                    "name": "A#3",
                    "midi": 58,
                    "time": 88.91854799999977,
                    "velocity": 0.2125984251968504,
                    "duration": 1.2016020000000083
                },
                {
                    "name": "C#4",
                    "midi": 61,
                    "time": 88.91854799999977,
                    "velocity": 0.2125984251968504,
                    "duration": 1.2016020000000083
                },
                {
                    "name": "F#4",
                    "midi": 66,
                    "time": 89.71961599999977,
                    "velocity": 0.25984251968503935,
                    "duration": 0.3921895416666672
                },
                {
                    "name": "G4",
                    "midi": 67,
                    "time": 90.94374803749979,
                    "velocity": 0.30708661417322836,
                    "duration": 1.2016020000000083
                },
                {
                    "name": "B3",
                    "midi": 59,
                    "time": 91.32175199999979,
                    "velocity": 0.1889763779527559,
                    "duration": 1.2016020000000083
                },
                {
                    "name": "D4",
                    "midi": 62,
                    "time": 91.32175199999979,
                    "velocity": 0.1889763779527559,
                    "duration": 1.2016020000000083
                },
                {
                    "name": "F#4",
                    "midi": 66,
                    "time": 92.1453500374998,
                    "velocity": 0.25984251968503935,
                    "duration": 0.4005340000000075
                },
                {
                    "name": "G4",
                    "midi": 67,
                    "time": 93.3469520374998,
                    "velocity": 0.30708661417322836,
                    "duration": 1.2016020000000083
                },
                {
                    "name": "C#4",
                    "midi": 61,
                    "time": 93.7249559999998,
                    "velocity": 0.1889763779527559,
                    "duration": 1.2016020000000083
                },
                {
                    "name": "E4",
                    "midi": 64,
                    "time": 93.7249559999998,
                    "velocity": 0.1889763779527559,
                    "duration": 1.2016020000000083
                },
                {
                    "name": "A#4",
                    "midi": 70,
                    "time": 94.52602399999981,
                    "velocity": 0.25984251968503935,
                    "duration": 0.4005340000000075
                },
                {
                    "name": "B3",
                    "midi": 59,
                    "time": 94.92655799999982,
                    "velocity": 0.2204724409448819,
                    "duration": 0.4005339999999933
                },
                {
                    "name": "D4",
                    "midi": 62,
                    "time": 94.92655799999982,
                    "velocity": 0.2204724409448819,
                    "duration": 0.4005339999999933
                },
                {
                    "name": "B4",
                    "midi": 71,
                    "time": 94.92655799999982,
                    "velocity": 0.25984251968503935,
                    "duration": 0.4005339999999933
                },
                {
                    "name": "B3",
                    "midi": 59,
                    "time": 96.12815999999981,
                    "velocity": 0.2204724409448819,
                    "duration": 0.4005339999999933
                },
                {
                    "name": "D4",
                    "midi": 62,
                    "time": 96.12815999999981,
                    "velocity": 0.2204724409448819,
                    "duration": 0.4005339999999933
                },
                {
                    "name": "B4",
                    "midi": 71,
                    "time": 96.12815999999981,
                    "velocity": 0.25984251968503935,
                    "duration": 0.4005339999999933
                },
                {
                    "name": "B3",
                    "midi": 59,
                    "time": 97.3297619999998,
                    "velocity": 0.2204724409448819,
                    "duration": 0.4005339999999933
                },
                {
                    "name": "D4",
                    "midi": 62,
                    "time": 97.3297619999998,
                    "velocity": 0.2204724409448819,
                    "duration": 0.4005339999999933
                },
                {
                    "name": "B4",
                    "midi": 71,
                    "time": 97.3297619999998,
                    "velocity": 0.25984251968503935,
                    "duration": 0.4005339999999933
                },
                {
                    "name": "B4",
                    "midi": 71,
                    "time": 98.5313639999998,
                    "velocity": 0.25984251968503935,
                    "duration": 1.193257541666668
                },
                {
                    "name": "B4",
                    "midi": 71,
                    "time": 99.7329659999998,
                    "velocity": 0.25984251968503935,
                    "duration": 1.193257541666668
                },
                {
                    "name": "B4",
                    "midi": 71,
                    "time": 100.93456799999981,
                    "velocity": 0.25984251968503935,
                    "duration": 0.7927235416666605
                },
                {
                    "name": "A5",
                    "midi": 81,
                    "time": 101.73563599999981,
                    "velocity": 0.33070866141732286,
                    "duration": 0.10013349999999832
                },
                {
                    "name": "B4",
                    "midi": 71,
                    "time": 101.73563599999981,
                    "velocity": 0.2677165354330709,
                    "duration": 0.10013349999999832
                },
                {
                    "name": "B4",
                    "midi": 71,
                    "time": 101.93590299999981,
                    "velocity": 0.25984251968503935,
                    "duration": 0.10013349999999832
                },
                {
                    "name": "B4",
                    "midi": 71,
                    "time": 102.13616999999981,
                    "velocity": 0.2677165354330709,
                    "duration": 0.10013349999999832
                },
                {
                    "name": "A5",
                    "midi": 81,
                    "time": 102.13616999999981,
                    "velocity": 0.36220472440944884,
                    "duration": 0.6008009999999899
                },
                {
                    "name": "B4",
                    "midi": 71,
                    "time": 102.3364369999998,
                    "velocity": 0.23622047244094488,
                    "duration": 0.10013349999999832
                },
                {
                    "name": "B4",
                    "midi": 71,
                    "time": 102.5367039999998,
                    "velocity": 0.23622047244094488,
                    "duration": 0.10013349999999832
                },
                {
                    "name": "B4",
                    "midi": 71,
                    "time": 102.7369709999998,
                    "velocity": 0.23622047244094488,
                    "duration": 0.10013349999999832
                },
                {
                    "name": "G5",
                    "midi": 79,
                    "time": 102.7369709999998,
                    "velocity": 0.33070866141732286,
                    "duration": 0.20026699999999664
                },
                {
                    "name": "B4",
                    "midi": 71,
                    "time": 102.9372379999998,
                    "velocity": 0.23622047244094488,
                    "duration": 0.10013349999999832
                },
                {
                    "name": "F#5",
                    "midi": 78,
                    "time": 102.9372379999998,
                    "velocity": 0.29133858267716534,
                    "duration": 0.10013349999999832
                },
                {
                    "name": "B4",
                    "midi": 71,
                    "time": 103.13750499999979,
                    "velocity": 0.23622047244094488,
                    "duration": 0.10013349999999832
                },
                {
                    "name": "B4",
                    "midi": 71,
                    "time": 103.33777199999979,
                    "velocity": 0.2677165354330709,
                    "duration": 0.10013349999999832
                },
                {
                    "name": "B5",
                    "midi": 83,
                    "time": 103.33777199999979,
                    "velocity": 0.36220472440944884,
                    "duration": 0.20026699999999664
                },
                {
                    "name": "G5",
                    "midi": 79,
                    "time": 103.33777199999979,
                    "velocity": 0.36220472440944884,
                    "duration": 0.20026699999999664
                },
                {
                    "name": "B4",
                    "midi": 71,
                    "time": 103.53803899999978,
                    "velocity": 0.23622047244094488,
                    "duration": 0.10013349999999832
                },
                {
                    "name": "B4",
                    "midi": 71,
                    "time": 103.73830599999978,
                    "velocity": 0.23622047244094488,
                    "duration": 0.10013349999999832
                },
                {
                    "name": "B4",
                    "midi": 71,
                    "time": 103.93857299999978,
                    "velocity": 0.23622047244094488,
                    "duration": 0.10013349999999832
                },
                {
                    "name": "B4",
                    "midi": 71,
                    "time": 104.13883999999977,
                    "velocity": 0.23622047244094488,
                    "duration": 0.10013349999999832
                },
                {
                    "name": "B5",
                    "midi": 83,
                    "time": 104.13883999999977,
                    "velocity": 0.31496062992125984,
                    "duration": 0.4005339999999933
                },
                {
                    "name": "G5",
                    "midi": 79,
                    "time": 104.13883999999977,
                    "velocity": 0.1732283464566929,
                    "duration": 0.4005339999999933
                },
                {
                    "name": "B4",
                    "midi": 71,
                    "time": 104.33910699999977,
                    "velocity": 0.23622047244094488,
                    "duration": 0.10013349999999832
                },
                {
                    "name": "B4",
                    "midi": 71,
                    "time": 104.53937399999977,
                    "velocity": 0.2677165354330709,
                    "duration": 0.10013349999999832
                },
                {
                    "name": "B5",
                    "midi": 83,
                    "time": 104.53937399999977,
                    "velocity": 0.36220472440944884,
                    "duration": 0.6008009999999899
                },
                {
                    "name": "G#5",
                    "midi": 80,
                    "time": 104.53937399999977,
                    "velocity": 0.2125984251968504,
                    "duration": 0.6008009999999899
                },
                {
                    "name": "B4",
                    "midi": 71,
                    "time": 104.73964099999976,
                    "velocity": 0.23622047244094488,
                    "duration": 0.10013349999999832
                },
                {
                    "name": "B4",
                    "midi": 71,
                    "time": 104.93990799999976,
                    "velocity": 0.23622047244094488,
                    "duration": 0.10013349999999832
                },
                {
                    "name": "B4",
                    "midi": 71,
                    "time": 105.14017499999976,
                    "velocity": 0.23622047244094488,
                    "duration": 0.10013349999999832
                },
                {
                    "name": "A5",
                    "midi": 81,
                    "time": 105.14017499999976,
                    "velocity": 0.31496062992125984,
                    "duration": 0.20026699999999664
                },
                {
                    "name": "B4",
                    "midi": 71,
                    "time": 105.34044199999975,
                    "velocity": 0.23622047244094488,
                    "duration": 0.10013349999999832
                },
                {
                    "name": "B5",
                    "midi": 83,
                    "time": 105.34044199999975,
                    "velocity": 0.29133858267716534,
                    "duration": 0.20026699999999664
                },
                {
                    "name": "G#5",
                    "midi": 80,
                    "time": 105.34044199999975,
                    "velocity": 0.1889763779527559,
                    "duration": 0.20026699999999664
                },
                {
                    "name": "B4",
                    "midi": 71,
                    "time": 105.54070899999975,
                    "velocity": 0.23622047244094488,
                    "duration": 0.10013349999999832
                },
                {
                    "name": "C5",
                    "midi": 72,
                    "time": 105.74097599999975,
                    "velocity": 0.2677165354330709,
                    "duration": 0.4005339999999933
                },
                {
                    "name": "A5",
                    "midi": 81,
                    "time": 105.74097599999975,
                    "velocity": 0.36220472440944884,
                    "duration": 0.4005339999999933
                },
                {
                    "name": "C6",
                    "midi": 84,
                    "time": 105.74097599999975,
                    "velocity": 0.1968503937007874,
                    "duration": 0.4005339999999933
                },
                {
                    "name": "C5",
                    "midi": 72,
                    "time": 106.54204399999973,
                    "velocity": 0.3779527559055118,
                    "duration": 0.10013349999999832
                },
                {
                    "name": "C6",
                    "midi": 84,
                    "time": 106.54204399999973,
                    "velocity": 0.3779527559055118,
                    "duration": 0.10013349999999832
                },
                {
                    "name": "C5",
                    "midi": 72,
                    "time": 106.94257799999973,
                    "velocity": 0.4251968503937008,
                    "duration": 0.6008010000000041
                },
                {
                    "name": "C6",
                    "midi": 84,
                    "time": 106.94257799999973,
                    "velocity": 0.4251968503937008,
                    "duration": 0.6008010000000041
                },
                {
                    "name": "B4",
                    "midi": 71,
                    "time": 107.54337899999973,
                    "velocity": 0.4251968503937008,
                    "duration": 0.20026699999999664
                },
                {
                    "name": "B5",
                    "midi": 83,
                    "time": 107.54337899999973,
                    "velocity": 0.4251968503937008,
                    "duration": 0.20026699999999664
                },
                {
                    "name": "A4",
                    "midi": 69,
                    "time": 107.74364599999973,
                    "velocity": 0.3779527559055118,
                    "duration": 0.10013349999999832
                },
                {
                    "name": "A5",
                    "midi": 81,
                    "time": 107.74364599999973,
                    "velocity": 0.3779527559055118,
                    "duration": 0.10013349999999832
                },
                {
                    "name": "D6",
                    "midi": 86,
                    "time": 108.14417999999972,
                    "velocity": 0.5039370078740157,
                    "duration": 0.20026699999999664
                },
                {
                    "name": "D5",
                    "midi": 74,
                    "time": 108.14417999999972,
                    "velocity": 0.5039370078740157,
                    "duration": 0.20026699999999664
                },
                {
                    "name": "D5",
                    "midi": 74,
                    "time": 108.94524799999972,
                    "velocity": 0.5039370078740157,
                    "duration": 0.10013349999999832
                },
                {
                    "name": "D6",
                    "midi": 86,
                    "time": 108.94524799999972,
                    "velocity": 0.5039370078740157,
                    "duration": 0.10013349999999832
                },
                {
                    "name": "D5",
                    "midi": 74,
                    "time": 109.34578199999972,
                    "velocity": 0.5748031496062992,
                    "duration": 0.6008010000000041
                },
                {
                    "name": "D6",
                    "midi": 86,
                    "time": 109.34578199999972,
                    "velocity": 0.5748031496062992,
                    "duration": 0.6008010000000041
                },
                {
                    "name": "C5",
                    "midi": 72,
                    "time": 109.94658299999972,
                    "velocity": 0.5433070866141733,
                    "duration": 0.20026699999999664
                },
                {
                    "name": "C6",
                    "midi": 84,
                    "time": 109.94658299999972,
                    "velocity": 0.5433070866141733,
                    "duration": 0.20026699999999664
                },
                {
                    "name": "D5",
                    "midi": 74,
                    "time": 110.14684999999972,
                    "velocity": 0.5039370078740157,
                    "duration": 0.10013349999999832
                },
                {
                    "name": "D6",
                    "midi": 86,
                    "time": 110.14684999999972,
                    "velocity": 0.5039370078740157,
                    "duration": 0.10013349999999832
                },
                {
                    "name": "D#5",
                    "midi": 75,
                    "time": 110.54738399999971,
                    "velocity": 0.6377952755905512,
                    "duration": 0.6008010000000041
                },
                {
                    "name": "D#6",
                    "midi": 87,
                    "time": 110.54738399999971,
                    "velocity": 0.7637795275590551,
                    "duration": 0.6008010000000041
                },
                {
                    "name": "D5",
                    "midi": 74,
                    "time": 111.14818499999971,
                    "velocity": 0.4881889763779528,
                    "duration": 0.20026699999999664
                },
                {
                    "name": "D6",
                    "midi": 86,
                    "time": 111.14818499999971,
                    "velocity": 0.5826771653543307,
                    "duration": 0.20026699999999664
                },
                {
                    "name": "D#6",
                    "midi": 87,
                    "time": 111.34845199999971,
                    "velocity": 0.6614173228346457,
                    "duration": 0.20026699999999664
                },
                {
                    "name": "D#5",
                    "midi": 75,
                    "time": 111.34845199999971,
                    "velocity": 0.5590551181102362,
                    "duration": 0.20026699999999664
                },
                {
                    "name": "D#4",
                    "midi": 63,
                    "time": 111.7489859999997,
                    "velocity": 0.7007874015748031,
                    "duration": 0.6008010000000041
                },
                {
                    "name": "D4",
                    "midi": 62,
                    "time": 112.34978699999971,
                    "velocity": 0.4881889763779528,
                    "duration": 0.20026699999999664
                },
                {
                    "name": "D#4",
                    "midi": 63,
                    "time": 112.5500539999997,
                    "velocity": 0.5590551181102362,
                    "duration": 0.20026699999999664
                },
                {
                    "name": "D#4",
                    "midi": 63,
                    "time": 112.9505879999997,
                    "velocity": 0.5905511811023622,
                    "duration": 0.6008010000000041
                },
                {
                    "name": "F#4",
                    "midi": 66,
                    "time": 112.9555946749997,
                    "velocity": 0.7086614173228346,
                    "duration": 0.6008010000000041
                },
                {
                    "name": "F4",
                    "midi": 65,
                    "time": 113.5513889999997,
                    "velocity": 0.49606299212598426,
                    "duration": 0.20026700000001085
                },
                {
                    "name": "D4",
                    "midi": 62,
                    "time": 113.5513889999997,
                    "velocity": 0.41732283464566927,
                    "duration": 0.20026700000001085
                },
                {
                    "name": "F#4",
                    "midi": 66,
                    "time": 113.75165599999971,
                    "velocity": 0.5748031496062992,
                    "duration": 0.20026699999999664
                },
                {
                    "name": "D#4",
                    "midi": 63,
                    "time": 113.75165599999971,
                    "velocity": 0.4881889763779528,
                    "duration": 0.20026699999999664
                },
                {
                    "name": "F#5",
                    "midi": 78,
                    "time": 114.1521899999997,
                    "velocity": 0.7244094488188977,
                    "duration": 0.6008010000000041
                },
                {
                    "name": "D#5",
                    "midi": 75,
                    "time": 114.1521899999997,
                    "velocity": 0.6141732283464567,
                    "duration": 0.6008010000000041
                },
                {
                    "name": "F5",
                    "midi": 77,
                    "time": 114.75299099999971,
                    "velocity": 0.5118110236220472,
                    "duration": 0.20026699999999664
                },
                {
                    "name": "D5",
                    "midi": 74,
                    "time": 114.75299099999971,
                    "velocity": 0.4330708661417323,
                    "duration": 0.20026699999999664
                },
                {
                    "name": "F#5",
                    "midi": 78,
                    "time": 114.9532579999997,
                    "velocity": 0.5905511811023622,
                    "duration": 0.20026699999999664
                },
                {
                    "name": "D#5",
                    "midi": 75,
                    "time": 114.9532579999997,
                    "velocity": 0.49606299212598426,
                    "duration": 0.20026699999999664
                },
                {
                    "name": "C6",
                    "midi": 84,
                    "time": 115.3537919999997,
                    "velocity": 0.7401574803149606,
                    "duration": 0.6008010000000041
                },
                {
                    "name": "C5",
                    "midi": 72,
                    "time": 115.3537919999997,
                    "velocity": 0.6220472440944882,
                    "duration": 0.6008010000000041
                },
                {
                    "name": "B5",
                    "midi": 83,
                    "time": 115.9545929999997,
                    "velocity": 0.5196850393700787,
                    "duration": 0.20026699999999664
                },
                {
                    "name": "B4",
                    "midi": 71,
                    "time": 115.9545929999997,
                    "velocity": 0.4409448818897638,
                    "duration": 0.20026699999999664
                },
                {
                    "name": "C6",
                    "midi": 84,
                    "time": 116.1548599999997,
                    "velocity": 0.6062992125984252,
                    "duration": 0.20026699999999664
                },
                {
                    "name": "C5",
                    "midi": 72,
                    "time": 116.1548599999997,
                    "velocity": 0.5118110236220472,
                    "duration": 0.20026699999999664
                },
                {
                    "name": "A3",
                    "midi": 57,
                    "time": 116.5553939999997,
                    "velocity": 0.7637795275590551,
                    "duration": 0.6008010000000041
                },
                {
                    "name": "G#3",
                    "midi": 56,
                    "time": 117.1561949999997,
                    "velocity": 0.5354330708661418,
                    "duration": 0.20026699999999664
                },
                {
                    "name": "A3",
                    "midi": 57,
                    "time": 117.3564619999997,
                    "velocity": 0.6141732283464567,
                    "duration": 0.20026699999999664
                },
                {
                    "name": "F#6",
                    "midi": 90,
                    "time": 117.75699599999969,
                    "velocity": 0.7795275590551181,
                    "duration": 0.6008010000000041
                },
                {
                    "name": "F#5",
                    "midi": 78,
                    "time": 117.75699599999969,
                    "velocity": 0.6456692913385826,
                    "duration": 0.6008010000000041
                },
                {
                    "name": "F6",
                    "midi": 89,
                    "time": 118.35779699999969,
                    "velocity": 0.5511811023622047,
                    "duration": 0.20026699999999664
                },
                {
                    "name": "F5",
                    "midi": 77,
                    "time": 118.35779699999969,
                    "velocity": 0.4566929133858268,
                    "duration": 0.20026699999999664
                },
                {
                    "name": "F#6",
                    "midi": 90,
                    "time": 118.55806399999969,
                    "velocity": 0.6299212598425197,
                    "duration": 0.20026699999999664
                },
                {
                    "name": "F#5",
                    "midi": 78,
                    "time": 118.55806399999969,
                    "velocity": 0.5354330708661418,
                    "duration": 0.20026699999999664
                },
                {
                    "name": "F#4",
                    "midi": 66,
                    "time": 118.95859799999968,
                    "velocity": 0.5590551181102362,
                    "duration": 0.6008010000000041
                },
                {
                    "name": "C5",
                    "midi": 72,
                    "time": 118.95859799999968,
                    "velocity": 0.6692913385826772,
                    "duration": 0.6008010000000041
                },
                {
                    "name": "A4",
                    "midi": 69,
                    "time": 118.95859799999968,
                    "velocity": 0.5590551181102362,
                    "duration": 0.6008010000000041
                },
                {
                    "name": "F#4",
                    "midi": 66,
                    "time": 119.55939899999969,
                    "velocity": 0.4645669291338583,
                    "duration": 0.20026699999999664
                },
                {
                    "name": "B4",
                    "midi": 71,
                    "time": 119.55939899999969,
                    "velocity": 0.5590551181102362,
                    "duration": 0.20026699999999664
                },
                {
                    "name": "A4",
                    "midi": 69,
                    "time": 119.55939899999969,
                    "velocity": 0.4645669291338583,
                    "duration": 0.20026699999999664
                },
                {
                    "name": "F#4",
                    "midi": 66,
                    "time": 119.75966599999968,
                    "velocity": 0.5433070866141733,
                    "duration": 0.20026699999999664
                },
                {
                    "name": "C5",
                    "midi": 72,
                    "time": 119.75966599999968,
                    "velocity": 0.6377952755905512,
                    "duration": 0.20026699999999664
                },
                {
                    "name": "A4",
                    "midi": 69,
                    "time": 119.75966599999968,
                    "velocity": 0.5433070866141733,
                    "duration": 0.20026699999999664
                },
                {
                    "name": "B4",
                    "midi": 71,
                    "time": 120.16019999999968,
                    "velocity": 0.7322834645669292,
                    "duration": 0.4005339999999933
                },
                {
                    "name": "G#4",
                    "midi": 68,
                    "time": 120.16019999999968,
                    "velocity": 0.6299212598425197,
                    "duration": 0.4005339999999933
                },
                {
                    "name": "F4",
                    "midi": 65,
                    "time": 120.16019999999968,
                    "velocity": 0.6299212598425197,
                    "duration": 0.4005339999999933
                },
                {
                    "name": "A4",
                    "midi": 69,
                    "time": 120.76100099999967,
                    "velocity": 0.25196850393700787,
                    "duration": 0.10013349999999832
                },
                {
                    "name": "B4",
                    "midi": 71,
                    "time": 120.76100099999967,
                    "velocity": 0.25196850393700787,
                    "duration": 0.10013349999999832
                },
                {
                    "name": "F5",
                    "midi": 77,
                    "time": 120.76100099999967,
                    "velocity": 0.3543307086614173,
                    "duration": 0.10013349999999832
                },
                {
                    "name": "G4",
                    "midi": 67,
                    "time": 120.96126799999966,
                    "velocity": 0.25196850393700787,
                    "duration": 0.10013349999999832
                },
                {
                    "name": "C5",
                    "midi": 72,
                    "time": 120.96126799999966,
                    "velocity": 0.25196850393700787,
                    "duration": 0.10013349999999832
                },
                {
                    "name": "E5",
                    "midi": 76,
                    "time": 120.96126799999966,
                    "velocity": 0.3543307086614173,
                    "duration": 0.10013349999999832
                },
                {
                    "name": "D#5",
                    "midi": 75,
                    "time": 121.36180199999966,
                    "velocity": 0.4094488188976378,
                    "duration": 0.4005339999999933
                },
                {
                    "name": "A4",
                    "midi": 69,
                    "time": 121.36180199999966,
                    "velocity": 0.29133858267716534,
                    "duration": 0.4005339999999933
                },
                {
                    "name": "F#4",
                    "midi": 66,
                    "time": 121.36180199999966,
                    "velocity": 0.29133858267716534,
                    "duration": 0.4005339999999933
                },
                {
                    "name": "F#4",
                    "midi": 66,
                    "time": 121.96260299999965,
                    "velocity": 0.25196850393700787,
                    "duration": 0.10013349999999832
                },
                {
                    "name": "A4",
                    "midi": 69,
                    "time": 121.96260299999965,
                    "velocity": 0.25196850393700787,
                    "duration": 0.10013349999999832
                },
                {
                    "name": "D#5",
                    "midi": 75,
                    "time": 121.96260299999965,
                    "velocity": 0.3543307086614173,
                    "duration": 0.10013349999999832
                },
                {
                    "name": "F4",
                    "midi": 65,
                    "time": 122.16286999999964,
                    "velocity": 0.25196850393700787,
                    "duration": 0.10013349999999832
                },
                {
                    "name": "B4",
                    "midi": 71,
                    "time": 122.16286999999964,
                    "velocity": 0.25196850393700787,
                    "duration": 0.10013349999999832
                },
                {
                    "name": "D5",
                    "midi": 74,
                    "time": 122.16286999999964,
                    "velocity": 0.3543307086614173,
                    "duration": 0.10013349999999832
                },
                {
                    "name": "C#5",
                    "midi": 73,
                    "time": 122.56340399999964,
                    "velocity": 0.3937007874015748,
                    "duration": 0.4005339999999933
                },
                {
                    "name": "G4",
                    "midi": 67,
                    "time": 122.56340399999964,
                    "velocity": 0.2755905511811024,
                    "duration": 0.4005339999999933
                },
                {
                    "name": "E4",
                    "midi": 64,
                    "time": 122.56340399999964,
                    "velocity": 0.2755905511811024,
                    "duration": 0.4005339999999933
                },
                {
                    "name": "D#4",
                    "midi": 63,
                    "time": 123.16420499999963,
                    "velocity": 0.25196850393700787,
                    "duration": 0.10013349999999832
                },
                {
                    "name": "G4",
                    "midi": 67,
                    "time": 123.16420499999963,
                    "velocity": 0.25196850393700787,
                    "duration": 0.10013349999999832
                },
                {
                    "name": "C5",
                    "midi": 72,
                    "time": 123.16420499999963,
                    "velocity": 0.3543307086614173,
                    "duration": 0.10013349999999832
                },
                {
                    "name": "D4",
                    "midi": 62,
                    "time": 123.36447199999962,
                    "velocity": 0.25196850393700787,
                    "duration": 0.10013349999999832
                },
                {
                    "name": "G4",
                    "midi": 67,
                    "time": 123.36447199999962,
                    "velocity": 0.25196850393700787,
                    "duration": 0.10013349999999832
                },
                {
                    "name": "B4",
                    "midi": 71,
                    "time": 123.36447199999962,
                    "velocity": 0.3543307086614173,
                    "duration": 0.10013349999999832
                },
                {
                    "name": "C#4",
                    "midi": 61,
                    "time": 123.76500599999962,
                    "velocity": 0.33070866141732286,
                    "duration": 0.10013349999999832
                },
                {
                    "name": "E4",
                    "midi": 64,
                    "time": 123.76500599999962,
                    "velocity": 0.33070866141732286,
                    "duration": 0.10013349999999832
                },
                {
                    "name": "A#4",
                    "midi": 70,
                    "time": 123.76500599999962,
                    "velocity": 0.3937007874015748,
                    "duration": 0.10013349999999832
                },
                {
                    "name": "C4",
                    "midi": 60,
                    "time": 124.16553999999961,
                    "velocity": 0.33070866141732286,
                    "duration": 0.10013349999999832
                },
                {
                    "name": "E4",
                    "midi": 64,
                    "time": 124.16553999999961,
                    "velocity": 0.33070866141732286,
                    "duration": 0.10013349999999832
                },
                {
                    "name": "A4",
                    "midi": 69,
                    "time": 124.16553999999961,
                    "velocity": 0.3937007874015748,
                    "duration": 0.10013349999999832
                },
                {
                    "name": "C4",
                    "midi": 60,
                    "time": 124.5660739999996,
                    "velocity": 0.33070866141732286,
                    "duration": 0.10013349999999832
                },
                {
                    "name": "D#4",
                    "midi": 63,
                    "time": 124.5660739999996,
                    "velocity": 0.33070866141732286,
                    "duration": 0.10013349999999832
                },
                {
                    "name": "G#4",
                    "midi": 68,
                    "time": 124.5660739999996,
                    "velocity": 0.3937007874015748,
                    "duration": 0.10013349999999832
                },
                {
                    "name": "G4",
                    "midi": 67,
                    "time": 124.9666079999996,
                    "velocity": 0.4251968503937008,
                    "duration": 0.10013349999999832
                },
                {
                    "name": "F#4",
                    "midi": 66,
                    "time": 125.36714199999959,
                    "velocity": 0.4330708661417323,
                    "duration": 0.10013349999999832
                },
                {
                    "name": "F4",
                    "midi": 65,
                    "time": 125.76767599999958,
                    "velocity": 0.4566929133858268,
                    "duration": 0.10013349999999832
                },
                {
                    "name": "E4",
                    "midi": 64,
                    "time": 126.16820999999958,
                    "velocity": 0.47244094488188976,
                    "duration": 0.10013349999999832
                },
                {
                    "name": "D#4",
                    "midi": 63,
                    "time": 126.56874399999957,
                    "velocity": 0.47244094488188976,
                    "duration": 0.10013349999999832
                },
                {
                    "name": "D4",
                    "midi": 62,
                    "time": 126.96927799999956,
                    "velocity": 0.47244094488188976,
                    "duration": 0.10013349999999832
                },
                {
                    "name": "C#4",
                    "midi": 61,
                    "time": 127.36981199999956,
                    "velocity": 0.47244094488188976,
                    "duration": 0.10013349999999832
                },
                {
                    "name": "C4",
                    "midi": 60,
                    "time": 127.77034599999955,
                    "velocity": 0.5039370078740157,
                    "duration": 0.10013349999999832
                },
                {
                    "name": "B3",
                    "midi": 59,
                    "time": 128.17087999999956,
                    "velocity": 0.5354330708661418,
                    "duration": 0.10013349999999832
                },
                {
                    "name": "A#3",
                    "midi": 58,
                    "time": 128.57141399999955,
                    "velocity": 0.49606299212598426,
                    "duration": 0.10013349999999832
                },
                {
                    "name": "A3",
                    "midi": 57,
                    "time": 128.97194799999954,
                    "velocity": 0.3937007874015748,
                    "duration": 0.10013349999999832
                },
                {
                    "name": "G#3",
                    "midi": 56,
                    "time": 129.37248199999954,
                    "velocity": 0.36220472440944884,
                    "duration": 0.10013349999999832
                },
                {
                    "name": "G#3",
                    "midi": 56,
                    "time": 129.77301599999953,
                    "velocity": 0.33070866141732286,
                    "duration": 0.20026699999999664
                },
                {
                    "name": "G3",
                    "midi": 55,
                    "time": 129.97328299999953,
                    "velocity": 0.25984251968503935,
                    "duration": 0.20026699999999664
                },
                {
                    "name": "G4",
                    "midi": 67,
                    "time": 130.17354999999952,
                    "velocity": 0.33858267716535434,
                    "duration": 1.5937915416666613
                },
                {
                    "name": "G4",
                    "midi": 67,
                    "time": 131.77568599999952,
                    "velocity": 0.33858267716535434,
                    "duration": 0.8010679999999866
                },
                {
                    "name": "C5",
                    "midi": 72,
                    "time": 132.5767539999995,
                    "velocity": 0.3779527559055118,
                    "duration": 0.4005339999999933
                },
                {
                    "name": "A4",
                    "midi": 69,
                    "time": 132.9772879999995,
                    "velocity": 0.33858267716535434,
                    "duration": 0.4005339999999933
                },
                {
                    "name": "G4",
                    "midi": 67,
                    "time": 133.3778219999995,
                    "velocity": 0.3700787401574803,
                    "duration": 0.4005339999999933
                },
                {
                    "name": "F4",
                    "midi": 65,
                    "time": 133.7783559999995,
                    "velocity": 0.33858267716535434,
                    "duration": 0.392189541666653
                },
                {
                    "name": "F4",
                    "midi": 65,
                    "time": 134.17888999999948,
                    "velocity": 0.3543307086614173,
                    "duration": 0.8010679999999866
                },
                {
                    "name": "D5",
                    "midi": 74,
                    "time": 134.97995799999947,
                    "velocity": 0.4094488188976378,
                    "duration": 0.4005339999999933
                },
                {
                    "name": "F4",
                    "midi": 65,
                    "time": 135.38049199999946,
                    "velocity": 0.36220472440944884,
                    "duration": 0.8010679999999866
                },
                {
                    "name": "E4",
                    "midi": 64,
                    "time": 136.18155999999945,
                    "velocity": 0.33858267716535434,
                    "duration": 0.3755006250000008
                },
                {
                    "name": "E4",
                    "midi": 64,
                    "time": 136.58209399999944,
                    "velocity": 0.28346456692913385,
                    "duration": 0.10013349999999832
                },
                {
                    "name": "G4",
                    "midi": 67,
                    "time": 136.68222749999944,
                    "velocity": 0.2440944881889764,
                    "duration": 0.10013349999999832
                },
                {
                    "name": "C5",
                    "midi": 72,
                    "time": 136.78236099999944,
                    "velocity": 0.25196850393700787,
                    "duration": 0.10013349999999832
                },
                {
                    "name": "E5",
                    "midi": 76,
                    "time": 136.88249449999944,
                    "velocity": 0.2440944881889764,
                    "duration": 0.10013349999999832
                },
                {
                    "name": "F5",
                    "midi": 77,
                    "time": 136.98262799999944,
                    "velocity": 0.30708661417322836,
                    "duration": 0.10013349999999832
                },
                {
                    "name": "C5",
                    "midi": 72,
                    "time": 137.08276149999944,
                    "velocity": 0.2992125984251969,
                    "duration": 0.10013349999999832
                },
                {
                    "name": "A4",
                    "midi": 69,
                    "time": 137.18289499999943,
                    "velocity": 0.3228346456692913,
                    "duration": 0.10013349999999832
                },
                {
                    "name": "F4",
                    "midi": 65,
                    "time": 137.28302849999943,
                    "velocity": 0.3700787401574803,
                    "duration": 0.10013349999999832
                },
                {
                    "name": "A4",
                    "midi": 69,
                    "time": 137.38316199999943,
                    "velocity": 0.4094488188976378,
                    "duration": 0.10013349999999832
                },
                {
                    "name": "C5",
                    "midi": 72,
                    "time": 137.48329549999943,
                    "velocity": 0.3228346456692913,
                    "duration": 0.10013349999999832
                },
                {
                    "name": "F5",
                    "midi": 77,
                    "time": 137.58342899999943,
                    "velocity": 0.29133858267716534,
                    "duration": 0.10013349999999832
                },
                {
                    "name": "A5",
                    "midi": 81,
                    "time": 137.68356249999943,
                    "velocity": 0.2755905511811024,
                    "duration": 0.09178904166665802
                },
                {
                    "name": "A5",
                    "midi": 81,
                    "time": 137.78369599999942,
                    "velocity": 0.2992125984251969,
                    "duration": 0.10013349999999832
                },
                {
                    "name": "D5",
                    "midi": 74,
                    "time": 137.88382949999942,
                    "velocity": 0.25196850393700787,
                    "duration": 0.10013349999999832
                },
                {
                    "name": "A5",
                    "midi": 81,
                    "time": 137.98396299999942,
                    "velocity": 0.2755905511811024,
                    "duration": 0.10013349999999832
                },
                {
                    "name": "D6",
                    "midi": 86,
                    "time": 138.08409649999942,
                    "velocity": 0.2755905511811024,
                    "duration": 0.10013349999999832
                },
                {
                    "name": "A5",
                    "midi": 81,
                    "time": 138.18422999999942,
                    "velocity": 0.30708661417322836,
                    "duration": 0.10013349999999832
                },
                {
                    "name": "D5",
                    "midi": 74,
                    "time": 138.28436349999942,
                    "velocity": 0.2677165354330709,
                    "duration": 0.10013349999999832
                },
                {
                    "name": "A5",
                    "midi": 81,
                    "time": 138.3844969999994,
                    "velocity": 0.3228346456692913,
                    "duration": 0.10013349999999832
                },
                {
                    "name": "A#5",
                    "midi": 82,
                    "time": 138.4846304999994,
                    "velocity": 0.3779527559055118,
                    "duration": 0.10013349999999832
                },
                {
                    "name": "G5",
                    "midi": 79,
                    "time": 138.5847639999994,
                    "velocity": 0.4094488188976378,
                    "duration": 0.10013349999999832
                },
                {
                    "name": "D5",
                    "midi": 74,
                    "time": 138.6848974999994,
                    "velocity": 0.3228346456692913,
                    "duration": 0.10013349999999832
                },
                {
                    "name": "G5",
                    "midi": 79,
                    "time": 138.7850309999994,
                    "velocity": 0.29133858267716534,
                    "duration": 0.10013349999999832
                },
                {
                    "name": "A#5",
                    "midi": 82,
                    "time": 138.8851644999994,
                    "velocity": 0.2677165354330709,
                    "duration": 0.10013349999999832
                },
                {
                    "name": "G5",
                    "midi": 79,
                    "time": 138.9852979999994,
                    "velocity": 0.2992125984251969,
                    "duration": 0.10013349999999832
                },
                {
                    "name": "C#5",
                    "midi": 73,
                    "time": 139.0854314999994,
                    "velocity": 0.25196850393700787,
                    "duration": 0.10013349999999832
                },
                {
                    "name": "G5",
                    "midi": 79,
                    "time": 139.1855649999994,
                    "velocity": 0.2755905511811024,
                    "duration": 0.10013349999999832
                },
                {
                    "name": "A#5",
                    "midi": 82,
                    "time": 139.2856984999994,
                    "velocity": 0.2755905511811024,
                    "duration": 0.10013349999999832
                },
                {
                    "name": "G5",
                    "midi": 79,
                    "time": 139.3858319999994,
                    "velocity": 0.30708661417322836,
                    "duration": 0.10013349999999832
                },
                {
                    "name": "C5",
                    "midi": 72,
                    "time": 139.4859654999994,
                    "velocity": 0.2992125984251969,
                    "duration": 0.10013349999999832
                },
                {
                    "name": "G5",
                    "midi": 79,
                    "time": 139.5860989999994,
                    "velocity": 0.31496062992125984,
                    "duration": 0.10013349999999832
                },
                {
                    "name": "A#5",
                    "midi": 82,
                    "time": 139.6862324999994,
                    "velocity": 0.3700787401574803,
                    "duration": 0.10013349999999832
                },
                {
                    "name": "E5",
                    "midi": 76,
                    "time": 139.7863659999994,
                    "velocity": 0.4251968503937008,
                    "duration": 0.10013349999999832
                },
                {
                    "name": "C5",
                    "midi": 72,
                    "time": 139.8864994999994,
                    "velocity": 0.3700787401574803,
                    "duration": 0.10013349999999832
                },
                {
                    "name": "E5",
                    "midi": 76,
                    "time": 139.9866329999994,
                    "velocity": 0.3543307086614173,
                    "duration": 0.10013349999999832
                },
                {
                    "name": "G5",
                    "midi": 79,
                    "time": 140.08676649999938,
                    "velocity": 0.30708661417322836,
                    "duration": 0.09178904166665802
                },
                {
                    "name": "G5",
                    "midi": 79,
                    "time": 140.18689999999938,
                    "velocity": 0.2992125984251969,
                    "duration": 0.10013349999999832
                },
                {
                    "name": "E5",
                    "midi": 76,
                    "time": 140.28703349999938,
                    "velocity": 0.25196850393700787,
                    "duration": 0.10013349999999832
                },
                {
                    "name": "G5",
                    "midi": 79,
                    "time": 140.38716699999938,
                    "velocity": 0.2755905511811024,
                    "duration": 0.10013349999999832
                },
                {
                    "name": "C6",
                    "midi": 84,
                    "time": 140.48730049999938,
                    "velocity": 0.2755905511811024,
                    "duration": 0.10013349999999832
                },
                {
                    "name": "G5",
                    "midi": 79,
                    "time": 140.58743399999938,
                    "velocity": 0.30708661417322836,
                    "duration": 0.10013349999999832
                },
                {
                    "name": "E5",
                    "midi": 76,
                    "time": 140.68756749999937,
                    "velocity": 0.2755905511811024,
                    "duration": 0.10013349999999832
                },
                {
                    "name": "G5",
                    "midi": 79,
                    "time": 140.78770099999937,
                    "velocity": 0.28346456692913385,
                    "duration": 0.10013349999999832
                },
                {
                    "name": "C6",
                    "midi": 84,
                    "time": 140.88783449999937,
                    "velocity": 0.3228346456692913,
                    "duration": 0.10013349999999832
                },
                {
                    "name": "A5",
                    "midi": 81,
                    "time": 140.98796799999937,
                    "velocity": 0.36220472440944884,
                    "duration": 0.10013349999999832
                },
                {
                    "name": "F5",
                    "midi": 77,
                    "time": 141.08810149999937,
                    "velocity": 0.25196850393700787,
                    "duration": 0.10013349999999832
                },
                {
                    "name": "A5",
                    "midi": 81,
                    "time": 141.18823499999937,
                    "velocity": 0.25196850393700787,
                    "duration": 0.10013349999999832
                },
                {
                    "name": "C6",
                    "midi": 84,
                    "time": 141.28836849999936,
                    "velocity": 0.25196850393700787,
                    "duration": 0.10013349999999832
                },
                {
                    "name": "A5",
                    "midi": 81,
                    "time": 141.38850199999936,
                    "velocity": 0.2992125984251969,
                    "duration": 0.10013349999999832
                },
                {
                    "name": "F5",
                    "midi": 77,
                    "time": 141.48863549999936,
                    "velocity": 0.25196850393700787,
                    "duration": 0.10013349999999832
                },
                {
                    "name": "A5",
                    "midi": 81,
                    "time": 141.58876899999936,
                    "velocity": 0.2755905511811024,
                    "duration": 0.10013349999999832
                },
                {
                    "name": "C6",
                    "midi": 84,
                    "time": 141.68890249999936,
                    "velocity": 0.2755905511811024,
                    "duration": 0.10013349999999832
                },
                {
                    "name": "A5",
                    "midi": 81,
                    "time": 141.78903599999936,
                    "velocity": 0.36220472440944884,
                    "duration": 0.10013349999999832
                },
                {
                    "name": "F5",
                    "midi": 77,
                    "time": 141.88916949999935,
                    "velocity": 0.29133858267716534,
                    "duration": 0.10013349999999832
                },
                {
                    "name": "A5",
                    "midi": 81,
                    "time": 141.98930299999935,
                    "velocity": 0.2992125984251969,
                    "duration": 0.10013349999999832
                },
                {
                    "name": "D6",
                    "midi": 86,
                    "time": 142.08943649999935,
                    "velocity": 0.29133858267716534,
                    "duration": 0.10013349999999832
                },
                {
                    "name": "A5",
                    "midi": 81,
                    "time": 142.18956999999935,
                    "velocity": 0.3543307086614173,
                    "duration": 0.10013349999999832
                },
                {
                    "name": "F5",
                    "midi": 77,
                    "time": 142.28970349999935,
                    "velocity": 0.2992125984251969,
                    "duration": 0.10013349999999832
                },
                {
                    "name": "A5",
                    "midi": 81,
                    "time": 142.38983699999935,
                    "velocity": 0.2992125984251969,
                    "duration": 0.10013349999999832
                },
                {
                    "name": "D6",
                    "midi": 86,
                    "time": 142.48997049999934,
                    "velocity": 0.2992125984251969,
                    "duration": 0.10013349999999832
                },
                {
                    "name": "A#5",
                    "midi": 82,
                    "time": 142.59010399999934,
                    "velocity": 0.3543307086614173,
                    "duration": 0.10013349999999832
                },
                {
                    "name": "F5",
                    "midi": 77,
                    "time": 142.69023749999934,
                    "velocity": 0.30708661417322836,
                    "duration": 0.10013349999999832
                },
                {
                    "name": "A#5",
                    "midi": 82,
                    "time": 142.79037099999934,
                    "velocity": 0.33858267716535434,
                    "duration": 0.10013349999999832
                },
                {
                    "name": "D6",
                    "midi": 86,
                    "time": 142.89050449999934,
                    "velocity": 0.33858267716535434,
                    "duration": 0.10013349999999832
                },
                {
                    "name": "B5",
                    "midi": 83,
                    "time": 142.99063799999934,
                    "velocity": 0.3700787401574803,
                    "duration": 0.10013349999999832
                },
                {
                    "name": "F5",
                    "midi": 77,
                    "time": 143.09077149999933,
                    "velocity": 0.2992125984251969,
                    "duration": 0.10013349999999832
                },
                {
                    "name": "B5",
                    "midi": 83,
                    "time": 143.19090499999933,
                    "velocity": 0.30708661417322836,
                    "duration": 0.10013349999999832
                },
                {
                    "name": "D6",
                    "midi": 86,
                    "time": 143.29103849999933,
                    "velocity": 0.2992125984251969,
                    "duration": 0.10013349999999832
                },
                {
                    "name": "B5",
                    "midi": 83,
                    "time": 143.39117199999933,
                    "velocity": 0.3700787401574803,
                    "duration": 0.10013349999999832
                },
                {
                    "name": "E5",
                    "midi": 76,
                    "time": 143.49130549999933,
                    "velocity": 0.30708661417322836,
                    "duration": 0.10013349999999832
                },
                {
                    "name": "B5",
                    "midi": 83,
                    "time": 143.59143899999933,
                    "velocity": 0.31496062992125984,
                    "duration": 0.10013349999999832
                },
                {
                    "name": "D6",
                    "midi": 86,
                    "time": 143.69157249999932,
                    "velocity": 0.31496062992125984,
                    "duration": 0.10013349999999832
                },
                {
                    "name": "B5",
                    "midi": 83,
                    "time": 143.79170599999932,
                    "velocity": 0.3700787401574803,
                    "duration": 0.10013349999999832
                },
                {
                    "name": "E5",
                    "midi": 76,
                    "time": 143.89183949999932,
                    "velocity": 0.31496062992125984,
                    "duration": 0.10013349999999832
                },
                {
                    "name": "B5",
                    "midi": 83,
                    "time": 143.99197299999932,
                    "velocity": 0.3543307086614173,
                    "duration": 0.10013349999999832
                },
                {
                    "name": "D6",
                    "midi": 86,
                    "time": 144.09210649999932,
                    "velocity": 0.3543307086614173,
                    "duration": 0.10013349999999832
                },
                {
                    "name": "B5",
                    "midi": 83,
                    "time": 144.19223999999932,
                    "velocity": 0.3937007874015748,
                    "duration": 0.10013349999999832
                },
                {
                    "name": "E5",
                    "midi": 76,
                    "time": 144.29237349999931,
                    "velocity": 0.31496062992125984,
                    "duration": 0.10013349999999832
                },
                {
                    "name": "B5",
                    "midi": 83,
                    "time": 144.3925069999993,
                    "velocity": 0.33070866141732286,
                    "duration": 0.10013349999999832
                },
                {
                    "name": "D6",
                    "midi": 86,
                    "time": 144.4926404999993,
                    "velocity": 0.3228346456692913,
                    "duration": 0.10013349999999832
                },
                {
                    "name": "B5",
                    "midi": 83,
                    "time": 144.5927739999993,
                    "velocity": 0.3937007874015748,
                    "duration": 0.10013349999999832
                },
                {
                    "name": "E5",
                    "midi": 76,
                    "time": 144.6929074999993,
                    "velocity": 0.33070866141732286,
                    "duration": 0.10013349999999832
                },
                {
                    "name": "B5",
                    "midi": 83,
                    "time": 144.7930409999993,
                    "velocity": 0.33070866141732286,
                    "duration": 0.10013349999999832
                },
                {
                    "name": "D6",
                    "midi": 86,
                    "time": 144.8931744999993,
                    "velocity": 0.33070866141732286,
                    "duration": 0.10013349999999832
                },
                {
                    "name": "B5",
                    "midi": 83,
                    "time": 144.9933079999993,
                    "velocity": 0.3937007874015748,
                    "duration": 0.10013349999999832
                },
                {
                    "name": "E5",
                    "midi": 76,
                    "time": 145.0934414999993,
                    "velocity": 0.33858267716535434,
                    "duration": 0.10013349999999832
                },
                {
                    "name": "B5",
                    "midi": 83,
                    "time": 145.1935749999993,
                    "velocity": 0.3700787401574803,
                    "duration": 0.10013349999999832
                },
                {
                    "name": "D6",
                    "midi": 86,
                    "time": 145.2937084999993,
                    "velocity": 0.3779527559055118,
                    "duration": 0.10013349999999832
                },
                {
                    "name": "B5",
                    "midi": 83,
                    "time": 145.3938419999993,
                    "velocity": 0.41732283464566927,
                    "duration": 0.10013349999999832
                },
                {
                    "name": "E5",
                    "midi": 76,
                    "time": 145.4939754999993,
                    "velocity": 0.3464566929133858,
                    "duration": 0.10013349999999832
                },
                {
                    "name": "B5",
                    "midi": 83,
                    "time": 145.5941089999993,
                    "velocity": 0.4015748031496063,
                    "duration": 0.10013349999999832
                },
                {
                    "name": "C6",
                    "midi": 84,
                    "time": 145.6942424999993,
                    "velocity": 0.4330708661417323,
                    "duration": 0.10013349999999832
                },
                {
                    "name": "A5",
                    "midi": 81,
                    "time": 145.7943759999993,
                    "velocity": 0.4094488188976378,
                    "duration": 0.10013349999999832
                },
                {
                    "name": "E5",
                    "midi": 76,
                    "time": 145.8945094999993,
                    "velocity": 0.3937007874015748,
                    "duration": 0.10013349999999832
                },
                {
                    "name": "A5",
                    "midi": 81,
                    "time": 145.9946429999993,
                    "velocity": 0.3779527559055118,
                    "duration": 0.10013349999999832
                },
                {
                    "name": "C6",
                    "midi": 84,
                    "time": 146.09477649999928,
                    "velocity": 0.3700787401574803,
                    "duration": 0.10013349999999832
                },
                {
                    "name": "A5",
                    "midi": 81,
                    "time": 146.19490999999928,
                    "velocity": 0.4251968503937008,
                    "duration": 0.10013349999999832
                },
                {
                    "name": "E5",
                    "midi": 76,
                    "time": 146.29504349999928,
                    "velocity": 0.3543307086614173,
                    "duration": 0.10013349999999832
                },
                {
                    "name": "A5",
                    "midi": 81,
                    "time": 146.39517699999928,
                    "velocity": 0.3937007874015748,
                    "duration": 0.10013349999999832
                },
                {
                    "name": "C6",
                    "midi": 84,
                    "time": 146.49531049999928,
                    "velocity": 0.3779527559055118,
                    "duration": 0.10013349999999832
                },
                {
                    "name": "A5",
                    "midi": 81,
                    "time": 146.59544399999928,
                    "velocity": 0.4409448818897638,
                    "duration": 0.10013349999999832
                },
                {
                    "name": "D5",
                    "midi": 74,
                    "time": 146.69557749999927,
                    "velocity": 0.3779527559055118,
                    "duration": 0.10013349999999832
                },
                {
                    "name": "A5",
                    "midi": 81,
                    "time": 146.79571099999927,
                    "velocity": 0.4330708661417323,
                    "duration": 0.10013349999999832
                },
                {
                    "name": "B5",
                    "midi": 83,
                    "time": 146.89584449999927,
                    "velocity": 0.4409448818897638,
                    "duration": 0.10013349999999832
                },
                {
                    "name": "G#5",
                    "midi": 80,
                    "time": 146.99597799999927,
                    "velocity": 0.4645669291338583,
                    "duration": 0.10013349999999832
                },
                {
                    "name": "D5",
                    "midi": 74,
                    "time": 147.09611149999927,
                    "velocity": 0.4094488188976378,
                    "duration": 0.10013349999999832
                },
                {
                    "name": "G#5",
                    "midi": 80,
                    "time": 147.19624499999927,
                    "velocity": 0.4015748031496063,
                    "duration": 0.10013349999999832
                },
                {
                    "name": "B5",
                    "midi": 83,
                    "time": 147.29637849999926,
                    "velocity": 0.3779527559055118,
                    "duration": 0.10013349999999832
                },
                {
                    "name": "G#5",
                    "midi": 80,
                    "time": 147.39651199999926,
                    "velocity": 0.4409448818897638,
                    "duration": 0.10013349999999832
                },
                {
                    "name": "D5",
                    "midi": 74,
                    "time": 147.49664549999926,
                    "velocity": 0.3779527559055118,
                    "duration": 0.10013349999999832
                },
                {
                    "name": "G#5",
                    "midi": 80,
                    "time": 147.59677899999926,
                    "velocity": 0.4251968503937008,
                    "duration": 0.10013349999999832
                },
                {
                    "name": "B5",
                    "midi": 83,
                    "time": 147.69691249999926,
                    "velocity": 0.4015748031496063,
                    "duration": 0.10013349999999832
                },
                {
                    "name": "G#5",
                    "midi": 80,
                    "time": 147.79704599999926,
                    "velocity": 0.4645669291338583,
                    "duration": 0.10013349999999832
                },
                {
                    "name": "C5",
                    "midi": 72,
                    "time": 147.89717949999925,
                    "velocity": 0.4409448818897638,
                    "duration": 0.10013349999999832
                },
                {
                    "name": "G#5",
                    "midi": 80,
                    "time": 147.99731299999925,
                    "velocity": 0.4566929133858268,
                    "duration": 0.10013349999999832
                },
                {
                    "name": "B5",
                    "midi": 83,
                    "time": 148.09744649999925,
                    "velocity": 0.47244094488188976,
                    "duration": 0.10013349999999832
                },
                {
                    "name": "G#5",
                    "midi": 80,
                    "time": 148.19757999999925,
                    "velocity": 0.48031496062992124,
                    "duration": 0.10013349999999832
                },
                {
                    "name": "A5",
                    "midi": 81,
                    "time": 148.29771349999925,
                    "velocity": 0.4251968503937008,
                    "duration": 0.10013349999999832
                },
                {
                    "name": "C5",
                    "midi": 72,
                    "time": 148.39784699999925,
                    "velocity": 0.3937007874015748,
                    "duration": 0.10013349999999832
                },
                {
                    "name": "A5",
                    "midi": 81,
                    "time": 148.49798049999924,
                    "velocity": 0.3937007874015748,
                    "duration": 0.10013349999999832
                },
                {
                    "name": "G#5",
                    "midi": 80,
                    "time": 148.59811399999924,
                    "velocity": 0.4645669291338583,
                    "duration": 0.10013349999999832
                },
                {
                    "name": "A5",
                    "midi": 81,
                    "time": 148.69824749999924,
                    "velocity": 0.3937007874015748,
                    "duration": 0.10013349999999832
                },
                {
                    "name": "C5",
                    "midi": 72,
                    "time": 148.79838099999924,
                    "velocity": 0.4409448818897638,
                    "duration": 0.10013349999999832
                },
                {
                    "name": "A5",
                    "midi": 81,
                    "time": 148.89851449999924,
                    "velocity": 0.41732283464566927,
                    "duration": 0.09178904166665802
                },
                {
                    "name": "A5",
                    "midi": 81,
                    "time": 148.99864799999924,
                    "velocity": 0.4881889763779528,
                    "duration": 0.10013349999999832
                },
                {
                    "name": "B4",
                    "midi": 71,
                    "time": 149.09878149999923,
                    "velocity": 0.4094488188976378,
                    "duration": 0.10013349999999832
                },
                {
                    "name": "A5",
                    "midi": 81,
                    "time": 149.19891499999923,
                    "velocity": 0.41732283464566927,
                    "duration": 0.10013349999999832
                },
                {
                    "name": "B5",
                    "midi": 83,
                    "time": 149.29904849999923,
                    "velocity": 0.4330708661417323,
                    "duration": 0.10013349999999832
                },
                {
                    "name": "A5",
                    "midi": 81,
                    "time": 149.39918199999923,
                    "velocity": 0.47244094488188976,
                    "duration": 0.10013349999999832
                },
                {
                    "name": "B4",
                    "midi": 71,
                    "time": 149.49931549999923,
                    "velocity": 0.4409448818897638,
                    "duration": 0.10013349999999832
                },
                {
                    "name": "A5",
                    "midi": 81,
                    "time": 149.59944899999923,
                    "velocity": 0.3858267716535433,
                    "duration": 0.10013349999999832
                },
                {
                    "name": "B5",
                    "midi": 83,
                    "time": 149.69958249999922,
                    "velocity": 0.3858267716535433,
                    "duration": 0.10013349999999832
                },
                {
                    "name": "A5",
                    "midi": 81,
                    "time": 149.79971599999922,
                    "velocity": 0.49606299212598426,
                    "duration": 0.10013349999999832
                },
                {
                    "name": "B4",
                    "midi": 71,
                    "time": 149.89984949999922,
                    "velocity": 0.41732283464566927,
                    "duration": 0.10013349999999832
                },
                {
                    "name": "A5",
                    "midi": 81,
                    "time": 149.99998299999922,
                    "velocity": 0.4566929133858268,
                    "duration": 0.10013349999999832
                },
                {
                    "name": "B5",
                    "midi": 83,
                    "time": 150.10011649999922,
                    "velocity": 0.4566929133858268,
                    "duration": 0.10013349999999832
                },
                {
                    "name": "A5",
                    "midi": 81,
                    "time": 150.20024999999922,
                    "velocity": 0.5118110236220472,
                    "duration": 0.10013349999999832
                },
                {
                    "name": "B4",
                    "midi": 71,
                    "time": 150.3003834999992,
                    "velocity": 0.4251968503937008,
                    "duration": 0.10013349999999832
                },
                {
                    "name": "A5",
                    "midi": 81,
                    "time": 150.4005169999992,
                    "velocity": 0.4566929133858268,
                    "duration": 0.10013349999999832
                },
                {
                    "name": "B5",
                    "midi": 83,
                    "time": 150.5006504999992,
                    "velocity": 0.47244094488188976,
                    "duration": 0.10013349999999832
                },
                {
                    "name": "A5",
                    "midi": 81,
                    "time": 150.6007839999992,
                    "velocity": 0.4881889763779528,
                    "duration": 0.10013349999999832
                },
                {
                    "name": "B4",
                    "midi": 71,
                    "time": 150.7009174999992,
                    "velocity": 0.47244094488188976,
                    "duration": 0.10013349999999832
                },
                {
                    "name": "A5",
                    "midi": 81,
                    "time": 150.8010509999992,
                    "velocity": 0.4409448818897638,
                    "duration": 0.10013349999999832
                },
                {
                    "name": "B5",
                    "midi": 83,
                    "time": 150.9011844999992,
                    "velocity": 0.4251968503937008,
                    "duration": 0.10013349999999832
                },
                {
                    "name": "A5",
                    "midi": 81,
                    "time": 151.0013179999992,
                    "velocity": 0.5039370078740157,
                    "duration": 0.10013349999999832
                },
                {
                    "name": "B4",
                    "midi": 71,
                    "time": 151.1014514999992,
                    "velocity": 0.4409448818897638,
                    "duration": 0.10013349999999832
                },
                {
                    "name": "A5",
                    "midi": 81,
                    "time": 151.2015849999992,
                    "velocity": 0.4881889763779528,
                    "duration": 0.10013349999999832
                },
                {
                    "name": "B5",
                    "midi": 83,
                    "time": 151.3017184999992,
                    "velocity": 0.4566929133858268,
                    "duration": 0.10013349999999832
                },
                {
                    "name": "A5",
                    "midi": 81,
                    "time": 151.4018519999992,
                    "velocity": 0.5354330708661418,
                    "duration": 0.10013349999999832
                },
                {
                    "name": "B4",
                    "midi": 71,
                    "time": 151.5019854999992,
                    "velocity": 0.4645669291338583,
                    "duration": 0.10013349999999832
                },
                {
                    "name": "A5",
                    "midi": 81,
                    "time": 151.6021189999992,
                    "velocity": 0.4881889763779528,
                    "duration": 0.10013349999999832
                },
                {
                    "name": "B5",
                    "midi": 83,
                    "time": 151.7022524999992,
                    "velocity": 0.5039370078740157,
                    "duration": 0.10013349999999832
                },
                {
                    "name": "A5",
                    "midi": 81,
                    "time": 151.8023859999992,
                    "velocity": 0.5275590551181102,
                    "duration": 0.10013349999999832
                },
                {
                    "name": "B4",
                    "midi": 71,
                    "time": 151.9025194999992,
                    "velocity": 0.5039370078740157,
                    "duration": 0.10013349999999832
                },
                {
                    "name": "A5",
                    "midi": 81,
                    "time": 152.00265299999919,
                    "velocity": 0.4881889763779528,
                    "duration": 0.10013349999999832
                },
                {
                    "name": "B5",
                    "midi": 83,
                    "time": 152.10278649999918,
                    "velocity": 0.4881889763779528,
                    "duration": 0.10013349999999832
                },
                {
                    "name": "A5",
                    "midi": 81,
                    "time": 152.20291999999918,
                    "velocity": 0.5433070866141733,
                    "duration": 0.10013349999999832
                },
                {
                    "name": "B4",
                    "midi": 71,
                    "time": 152.30305349999918,
                    "velocity": 0.4566929133858268,
                    "duration": 0.10013349999999832
                },
                {
                    "name": "A5",
                    "midi": 81,
                    "time": 152.40318699999918,
                    "velocity": 0.5039370078740157,
                    "duration": 0.10013349999999832
                },
                {
                    "name": "B5",
                    "midi": 83,
                    "time": 152.50332049999918,
                    "velocity": 0.48031496062992124,
                    "duration": 0.10013349999999832
                },
                {
                    "name": "G5",
                    "midi": 79,
                    "time": 152.60345399999918,
                    "velocity": 0.5669291338582677,
                    "duration": 0.10013349999999832
                },
                {
                    "name": "B4",
                    "midi": 71,
                    "time": 152.70358749999917,
                    "velocity": 0.4881889763779528,
                    "duration": 0.10013349999999832
                },
                {
                    "name": "G5",
                    "midi": 79,
                    "time": 152.80372099999917,
                    "velocity": 0.5039370078740157,
                    "duration": 0.10013349999999832
                },
                {
                    "name": "B5",
                    "midi": 83,
                    "time": 152.90385449999917,
                    "velocity": 0.5118110236220472,
                    "duration": 0.10013349999999832
                },
                {
                    "name": "G5",
                    "midi": 79,
                    "time": 153.00398799999917,
                    "velocity": 0.5511811023622047,
                    "duration": 0.10013349999999832
                },
                {
                    "name": "B4",
                    "midi": 71,
                    "time": 153.10412149999917,
                    "velocity": 0.5275590551181102,
                    "duration": 0.10013349999999832
                },
                {
                    "name": "G5",
                    "midi": 79,
                    "time": 153.20425499999916,
                    "velocity": 0.5118110236220472,
                    "duration": 0.10013349999999832
                },
                {
                    "name": "B5",
                    "midi": 83,
                    "time": 153.30438849999916,
                    "velocity": 0.49606299212598426,
                    "duration": 0.09178904166665802
                },
                {
                    "name": "B5",
                    "midi": 83,
                    "time": 153.40452199999916,
                    "velocity": 0.5748031496062992,
                    "duration": 0.10013349999999832
                },
                {
                    "name": "E5",
                    "midi": 76,
                    "time": 153.50465549999916,
                    "velocity": 0.48031496062992124,
                    "duration": 0.10013349999999832
                },
                {
                    "name": "B5",
                    "midi": 83,
                    "time": 153.60478899999916,
                    "velocity": 0.5275590551181102,
                    "duration": 0.10013349999999832
                },
                {
                    "name": "E6",
                    "midi": 88,
                    "time": 153.70492249999916,
                    "velocity": 0.5039370078740157,
                    "duration": 0.10013349999999832
                },
                {
                    "name": "C6",
                    "midi": 84,
                    "time": 153.80505599999915,
                    "velocity": 0.5039370078740157,
                    "duration": 0.10013349999999832
                },
                {
                    "name": "E5",
                    "midi": 76,
                    "time": 153.90518949999915,
                    "velocity": 0.5196850393700787,
                    "duration": 0.10013349999999832
                },
                {
                    "name": "C6",
                    "midi": 84,
                    "time": 154.00532299999915,
                    "velocity": 0.5433070866141733,
                    "duration": 0.10013349999999832
                },
                {
                    "name": "E6",
                    "midi": 88,
                    "time": 154.10545649999915,
                    "velocity": 0.5669291338582677,
                    "duration": 0.10013349999999832
                },
                {
                    "name": "C6",
                    "midi": 84,
                    "time": 154.20558999999915,
                    "velocity": 0.6141732283464567,
                    "duration": 0.10013349999999832
                },
                {
                    "name": "E5",
                    "midi": 76,
                    "time": 154.30572349999915,
                    "velocity": 0.5826771653543307,
                    "duration": 0.10013349999999832
                },
                {
                    "name": "C6",
                    "midi": 84,
                    "time": 154.40585699999914,
                    "velocity": 0.5275590551181102,
                    "duration": 0.10013349999999832
                },
                {
                    "name": "E6",
                    "midi": 88,
                    "time": 154.50599049999914,
                    "velocity": 0.5275590551181102,
                    "duration": 0.10013349999999832
                },
                {
                    "name": "C6",
                    "midi": 84,
                    "time": 154.60612399999914,
                    "velocity": 0.5826771653543307,
                    "duration": 0.10013349999999832
                },
                {
                    "name": "E5",
                    "midi": 76,
                    "time": 154.70625749999914,
                    "velocity": 0.49606299212598426,
                    "duration": 0.10013349999999832
                },
                {
                    "name": "C6",
                    "midi": 84,
                    "time": 154.80639099999914,
                    "velocity": 0.5511811023622047,
                    "duration": 0.10013349999999832
                },
                {
                    "name": "E6",
                    "midi": 88,
                    "time": 154.90652449999914,
                    "velocity": 0.5275590551181102,
                    "duration": 0.10013349999999832
                },
                {
                    "name": "C#6",
                    "midi": 85,
                    "time": 155.00665799999913,
                    "velocity": 0.6062992125984252,
                    "duration": 0.10013349999999832
                },
                {
                    "name": "G5",
                    "midi": 79,
                    "time": 155.10679149999913,
                    "velocity": 0.5275590551181102,
                    "duration": 0.10013349999999832
                },
                {
                    "name": "C#6",
                    "midi": 85,
                    "time": 155.20692499999913,
                    "velocity": 0.5590551181102362,
                    "duration": 0.10013349999999832
                },
                {
                    "name": "E6",
                    "midi": 88,
                    "time": 155.30705849999913,
                    "velocity": 0.5905511811023622,
                    "duration": 0.10013349999999832
                },
                {
                    "name": "C#6",
                    "midi": 85,
                    "time": 155.40719199999913,
                    "velocity": 0.6062992125984252,
                    "duration": 0.10013349999999832
                },
                {
                    "name": "G5",
                    "midi": 79,
                    "time": 155.50732549999913,
                    "velocity": 0.5669291338582677,
                    "duration": 0.10013349999999832
                },
                {
                    "name": "C#6",
                    "midi": 85,
                    "time": 155.60745899999912,
                    "velocity": 0.5669291338582677,
                    "duration": 0.10013349999999832
                },
                {
                    "name": "E6",
                    "midi": 88,
                    "time": 155.70759249999912,
                    "velocity": 0.5275590551181102,
                    "duration": 0.10013349999999832
                },
                {
                    "name": "C#6",
                    "midi": 85,
                    "time": 155.80772599999912,
                    "velocity": 0.6141732283464567,
                    "duration": 0.10013349999999832
                },
                {
                    "name": "G5",
                    "midi": 79,
                    "time": 155.90785949999912,
                    "velocity": 0.5196850393700787,
                    "duration": 0.10013349999999832
                },
                {
                    "name": "C#6",
                    "midi": 85,
                    "time": 156.00799299999912,
                    "velocity": 0.5748031496062992,
                    "duration": 0.10013349999999832
                },
                {
                    "name": "E6",
                    "midi": 88,
                    "time": 156.10812649999912,
                    "velocity": 0.5196850393700787,
                    "duration": 0.10013349999999832
                },
                {
                    "name": "B5",
                    "midi": 83,
                    "time": 156.20825999999911,
                    "velocity": 0.6850393700787402,
                    "duration": 0.10013349999999832
                },
                {
                    "name": "G5",
                    "midi": 79,
                    "time": 156.3083934999991,
                    "velocity": 0.5826771653543307,
                    "duration": 0.10013349999999832
                },
                {
                    "name": "B5",
                    "midi": 83,
                    "time": 156.4085269999991,
                    "velocity": 0.6220472440944882,
                    "duration": 0.10013349999999832
                },
                {
                    "name": "E6",
                    "midi": 88,
                    "time": 156.5086604999991,
                    "velocity": 0.5826771653543307,
                    "duration": 0.10013349999999832
                },
                {
                    "name": "G6",
                    "midi": 91,
                    "time": 156.6087939999991,
                    "velocity": 0.6692913385826772,
                    "duration": 0.10013349999999832
                },
                {
                    "name": "F#6",
                    "midi": 90,
                    "time": 156.7089274999991,
                    "velocity": 0.5905511811023622,
                    "duration": 0.10013349999999832
                },
                {
                    "name": "E6",
                    "midi": 88,
                    "time": 156.8090609999991,
                    "velocity": 0.6220472440944882,
                    "duration": 0.10013349999999832
                },
                {
                    "name": "D#6",
                    "midi": 87,
                    "time": 156.9091944999991,
                    "velocity": 0.5905511811023622,
                    "duration": 0.10013349999999832
                },
                {
                    "name": "E6",
                    "midi": 88,
                    "time": 157.0093279999991,
                    "velocity": 0.6771653543307087,
                    "duration": 0.10013349999999832
                },
                {
                    "name": "D#6",
                    "midi": 87,
                    "time": 157.1094614999991,
                    "velocity": 0.5905511811023622,
                    "duration": 0.10013349999999832
                },
                {
                    "name": "E6",
                    "midi": 88,
                    "time": 157.2095949999991,
                    "velocity": 0.6220472440944882,
                    "duration": 0.10013349999999832
                },
                {
                    "name": "F#6",
                    "midi": 90,
                    "time": 157.3097284999991,
                    "velocity": 0.5984251968503937,
                    "duration": 0.10013349999999832
                },
                {
                    "name": "G6",
                    "midi": 91,
                    "time": 157.4098619999991,
                    "velocity": 0.6692913385826772,
                    "duration": 0.10013349999999832
                },
                {
                    "name": "F#6",
                    "midi": 90,
                    "time": 157.5099954999991,
                    "velocity": 0.6220472440944882,
                    "duration": 0.10013349999999832
                },
                {
                    "name": "E6",
                    "midi": 88,
                    "time": 157.6101289999991,
                    "velocity": 0.6220472440944882,
                    "duration": 0.10013349999999832
                },
                {
                    "name": "D#6",
                    "midi": 87,
                    "time": 157.7102624999991,
                    "velocity": 0.5905511811023622,
                    "duration": 0.10013349999999832
                },
                {
                    "name": "G6",
                    "midi": 91,
                    "time": 157.8103959999991,
                    "velocity": 0.6692913385826772,
                    "duration": 0.10013349999999832
                },
                {
                    "name": "F#6",
                    "midi": 90,
                    "time": 157.9105294999991,
                    "velocity": 0.6220472440944882,
                    "duration": 0.10013349999999832
                },
                {
                    "name": "E6",
                    "midi": 88,
                    "time": 158.01066299999908,
                    "velocity": 0.6220472440944882,
                    "duration": 0.10013349999999832
                },
                {
                    "name": "D#6",
                    "midi": 87,
                    "time": 158.11079649999908,
                    "velocity": 0.5905511811023622,
                    "duration": 0.10013349999999832
                },
                {
                    "name": "G6",
                    "midi": 91,
                    "time": 158.21092999999908,
                    "velocity": 0.6692913385826772,
                    "duration": 0.10013349999999832
                },
                {
                    "name": "F#6",
                    "midi": 90,
                    "time": 158.31106349999908,
                    "velocity": 0.6220472440944882,
                    "duration": 0.10013349999999832
                },
                {
                    "name": "E6",
                    "midi": 88,
                    "time": 158.41119699999908,
                    "velocity": 0.6220472440944882,
                    "duration": 0.10013349999999832
                },
                {
                    "name": "D#6",
                    "midi": 87,
                    "time": 158.51133049999908,
                    "velocity": 0.5984251968503937,
                    "duration": 0.10013349999999832
                },
                {
                    "name": "G6",
                    "midi": 91,
                    "time": 158.61146399999907,
                    "velocity": 0.6692913385826772,
                    "duration": 0.10013349999999832
                },
                {
                    "name": "F#6",
                    "midi": 90,
                    "time": 158.71159749999907,
                    "velocity": 0.6220472440944882,
                    "duration": 0.10013349999999832
                },
                {
                    "name": "E6",
                    "midi": 88,
                    "time": 158.81173099999907,
                    "velocity": 0.6220472440944882,
                    "duration": 0.10013349999999832
                },
                {
                    "name": "D#6",
                    "midi": 87,
                    "time": 158.91186449999907,
                    "velocity": 0.5984251968503937,
                    "duration": 0.10013349999999832
                },
                {
                    "name": "E6",
                    "midi": 88,
                    "time": 159.01199799999907,
                    "velocity": 0.6929133858267716,
                    "duration": 0.20026699999999664
                },
                {
                    "name": "G6",
                    "midi": 91,
                    "time": 159.81306599999905,
                    "velocity": 0.3937007874015748,
                    "duration": 0.20026699999999664
                },
                {
                    "name": "F#6",
                    "midi": 90,
                    "time": 160.01333299999905,
                    "velocity": 0.33070866141732286,
                    "duration": 0.20026699999999664
                },
                {
                    "name": "E6",
                    "midi": 88,
                    "time": 160.21359999999905,
                    "velocity": 0.36220472440944884,
                    "duration": 0.20026699999999664
                },
                {
                    "name": "D#6",
                    "midi": 87,
                    "time": 160.41386699999904,
                    "velocity": 0.36220472440944884,
                    "duration": 0.20026699999999664
                },
                {
                    "name": "E6",
                    "midi": 88,
                    "time": 160.61413399999904,
                    "velocity": 0.3937007874015748,
                    "duration": 0.4005339999999933
                },
                {
                    "name": "G6",
                    "midi": 91,
                    "time": 161.01466799999903,
                    "velocity": 0.3937007874015748,
                    "duration": 0.4005339999999933
                },
                {
                    "name": "F#6",
                    "midi": 90,
                    "time": 161.41520199999903,
                    "velocity": 0.3700787401574803,
                    "duration": 0.4005339999999933
                },
                {
                    "name": "E6",
                    "midi": 88,
                    "time": 161.81573599999902,
                    "velocity": 0.3937007874015748,
                    "duration": 0.4005339999999933
                },
                {
                    "name": "D#6",
                    "midi": 87,
                    "time": 162.216269999999,
                    "velocity": 0.4251968503937008,
                    "duration": 0.4005339999999933
                },
                {
                    "name": "E6",
                    "midi": 88,
                    "time": 162.616803999999,
                    "velocity": 0.3858267716535433,
                    "duration": 0.4005339999999933
                },
                {
                    "name": "G6",
                    "midi": 91,
                    "time": 163.417871999999,
                    "velocity": 0.3937007874015748,
                    "duration": 0.8010679999999866
                },
                {
                    "name": "F#6",
                    "midi": 90,
                    "time": 164.21893999999898,
                    "velocity": 0.3937007874015748,
                    "duration": 0.8010679999999866
                },
                {
                    "name": "E6",
                    "midi": 88,
                    "time": 165.02000799999897,
                    "velocity": 0.3937007874015748,
                    "duration": 0.4005339999999933
                },
                {
                    "name": "G4",
                    "midi": 67,
                    "time": 165.82107599999895,
                    "velocity": 0.3937007874015748,
                    "duration": 0.8010679999999866
                },
                {
                    "name": "F#4",
                    "midi": 66,
                    "time": 166.62214399999894,
                    "velocity": 0.4409448818897638,
                    "duration": 0.20026699999999664
                },
                {
                    "name": "E4",
                    "midi": 64,
                    "time": 166.82241099999894,
                    "velocity": 0.31496062992125984,
                    "duration": 0.19192254166665634
                },
                {
                    "name": "E4",
                    "midi": 64,
                    "time": 167.02267799999893,
                    "velocity": 0.3937007874015748,
                    "duration": 0.4005339999999933
                },
                {
                    "name": "G4",
                    "midi": 67,
                    "time": 168.62481399999893,
                    "velocity": 0.3937007874015748,
                    "duration": 0.392189541666653
                },
                {
                    "name": "F#4",
                    "midi": 66,
                    "time": 169.02534799999893,
                    "velocity": 0.36220472440944884,
                    "duration": 0.20026699999999664
                },
                {
                    "name": "E4",
                    "midi": 64,
                    "time": 169.22561499999892,
                    "velocity": 0.36220472440944884,
                    "duration": 0.19192254166665634
                },
                {
                    "name": "E4",
                    "midi": 64,
                    "time": 169.42588199999892,
                    "velocity": 0.3937007874015748,
                    "duration": 0.19192254166665634
                },
                {
                    "name": "G4",
                    "midi": 67,
                    "time": 170.0266829999989,
                    "velocity": 0.41732283464566927,
                    "duration": 0.20026699999999664
                },
                {
                    "name": "F#4",
                    "midi": 66,
                    "time": 170.2269499999989,
                    "velocity": 0.4409448818897638,
                    "duration": 0.20026699999999664
                },
                {
                    "name": "E4",
                    "midi": 64,
                    "time": 170.4272169999989,
                    "velocity": 0.44881889763779526,
                    "duration": 0.20026699999999664
                },
                {
                    "name": "G6",
                    "midi": 91,
                    "time": 170.8277509999989,
                    "velocity": 0.48031496062992124,
                    "duration": 0.20026699999999664
                },
                {
                    "name": "F#6",
                    "midi": 90,
                    "time": 171.0280179999989,
                    "velocity": 0.5196850393700787,
                    "duration": 0.20026699999999664
                },
                {
                    "name": "E6",
                    "midi": 88,
                    "time": 171.2282849999989,
                    "velocity": 0.49606299212598426,
                    "duration": 0.20026699999999664
                },
                {
                    "name": "G4",
                    "midi": 67,
                    "time": 171.62881899999888,
                    "velocity": 0.49606299212598426,
                    "duration": 0.20026699999999664
                },
                {
                    "name": "F#4",
                    "midi": 66,
                    "time": 171.82908599999888,
                    "velocity": 0.5826771653543307,
                    "duration": 0.20026699999999664
                },
                {
                    "name": "E4",
                    "midi": 64,
                    "time": 172.02935299999888,
                    "velocity": 0.5039370078740157,
                    "duration": 0.20026699999999664
                },
                {
                    "name": "G4",
                    "midi": 67,
                    "time": 172.63015399999887,
                    "velocity": 0.6141732283464567,
                    "duration": 0.10013349999999832
                },
                {
                    "name": "E4",
                    "midi": 64,
                    "time": 172.63015399999887,
                    "velocity": 0.5196850393700787,
                    "duration": 0.10013349999999832
                },
                {
                    "name": "B3",
                    "midi": 59,
                    "time": 172.63015399999887,
                    "velocity": 0.5196850393700787,
                    "duration": 0.10013349999999832
                },
                {
                    "name": "G3",
                    "midi": 55,
                    "time": 172.63015399999887,
                    "velocity": 0.5196850393700787,
                    "duration": 0.10013349999999832
                },
                {
                    "name": "G3",
                    "midi": 55,
                    "time": 173.03068799999886,
                    "velocity": 0.5511811023622047,
                    "duration": 0.8010679999999866
                },
                {
                    "name": "B3",
                    "midi": 59,
                    "time": 173.03068799999886,
                    "velocity": 0.5511811023622047,
                    "duration": 0.8010679999999866
                },
                {
                    "name": "E4",
                    "midi": 64,
                    "time": 173.03068799999886,
                    "velocity": 0.5511811023622047,
                    "duration": 0.8010679999999866
                },
                {
                    "name": "G4",
                    "midi": 67,
                    "time": 173.03068799999886,
                    "velocity": 0.6614173228346457,
                    "duration": 0.6008009999999899
                },
                {
                    "name": "F#4",
                    "midi": 66,
                    "time": 173.63148899999885,
                    "velocity": 0.6062992125984252,
                    "duration": 0.20026699999999664
                },
                {
                    "name": "E4",
                    "midi": 64,
                    "time": 173.83175599999885,
                    "velocity": 0.5354330708661418,
                    "duration": 0.10013349999999832
                },
                {
                    "name": "G3",
                    "midi": 55,
                    "time": 173.83175599999885,
                    "velocity": 0.44881889763779526,
                    "duration": 0.10013349999999832
                },
                {
                    "name": "A3",
                    "midi": 57,
                    "time": 174.23228999999884,
                    "velocity": 0.5511811023622047,
                    "duration": 0.20026699999999664
                },
                {
                    "name": "F#4",
                    "midi": 66,
                    "time": 174.23228999999884,
                    "velocity": 0.5511811023622047,
                    "duration": 0.20026699999999664
                },
                {
                    "name": "A4",
                    "midi": 69,
                    "time": 174.23228999999884,
                    "velocity": 0.6614173228346457,
                    "duration": 0.20026699999999664
                },
                {
                    "name": "A4",
                    "midi": 69,
                    "time": 175.03335799999883,
                    "velocity": 0.29133858267716534,
                    "duration": 0.4005339999999933
                },
                {
                    "name": "F#4",
                    "midi": 66,
                    "time": 175.03335799999883,
                    "velocity": 0.2440944881889764,
                    "duration": 0.4005339999999933
                },
                {
                    "name": "F#4",
                    "midi": 66,
                    "time": 175.43389199999882,
                    "velocity": 0.29133858267716534,
                    "duration": 0.6008009999999899
                },
                {
                    "name": "A4",
                    "midi": 69,
                    "time": 175.43389199999882,
                    "velocity": 0.3543307086614173,
                    "duration": 0.6008009999999899
                },
                {
                    "name": "G4",
                    "midi": 67,
                    "time": 176.0346929999988,
                    "velocity": 0.31496062992125984,
                    "duration": 0.20026699999999664
                },
                {
                    "name": "A4",
                    "midi": 69,
                    "time": 176.2349599999988,
                    "velocity": 0.3228346456692913,
                    "duration": 0.30040049999999496
                },
                {
                    "name": "F#4",
                    "midi": 66,
                    "time": 176.2349599999988,
                    "velocity": 0.2755905511811024,
                    "duration": 0.30040049999999496
                },
                {
                    "name": "B4",
                    "midi": 71,
                    "time": 176.6354939999988,
                    "velocity": 0.33858267716535434,
                    "duration": 0.30040049999999496
                },
                {
                    "name": "G4",
                    "midi": 67,
                    "time": 176.6354939999988,
                    "velocity": 0.28346456692913385,
                    "duration": 0.30040049999999496
                },
                {
                    "name": "B4",
                    "midi": 71,
                    "time": 177.4365619999988,
                    "velocity": 0.6141732283464567,
                    "duration": 0.10013349999999832
                },
                {
                    "name": "G4",
                    "midi": 67,
                    "time": 177.4365619999988,
                    "velocity": 0.5196850393700787,
                    "duration": 0.10013349999999832
                },
                {
                    "name": "D4",
                    "midi": 62,
                    "time": 177.4365619999988,
                    "velocity": 0.5196850393700787,
                    "duration": 0.10013349999999832
                },
                {
                    "name": "B3",
                    "midi": 59,
                    "time": 177.4365619999988,
                    "velocity": 0.5196850393700787,
                    "duration": 0.10013349999999832
                },
                {
                    "name": "D4",
                    "midi": 62,
                    "time": 177.83709599999878,
                    "velocity": 0.5511811023622047,
                    "duration": 0.8010679999999866
                },
                {
                    "name": "B3",
                    "midi": 59,
                    "time": 177.83709599999878,
                    "velocity": 0.5511811023622047,
                    "duration": 0.8010679999999866
                },
                {
                    "name": "G4",
                    "midi": 67,
                    "time": 177.83709599999878,
                    "velocity": 0.5511811023622047,
                    "duration": 0.8010679999999866
                },
                {
                    "name": "B4",
                    "midi": 71,
                    "time": 177.83709599999878,
                    "velocity": 0.6614173228346457,
                    "duration": 0.6008009999999899
                },
                {
                    "name": "A4",
                    "midi": 69,
                    "time": 178.43789699999877,
                    "velocity": 0.6062992125984252,
                    "duration": 0.20026699999999664
                },
                {
                    "name": "G4",
                    "midi": 67,
                    "time": 178.63816399999877,
                    "velocity": 0.5354330708661418,
                    "duration": 0.10013349999999832
                },
                {
                    "name": "B3",
                    "midi": 59,
                    "time": 178.63816399999877,
                    "velocity": 0.44881889763779526,
                    "duration": 0.10013349999999832
                },
                {
                    "name": "C#4",
                    "midi": 61,
                    "time": 179.03869799999876,
                    "velocity": 0.5511811023622047,
                    "duration": 0.20026699999999664
                },
                {
                    "name": "A#4",
                    "midi": 70,
                    "time": 179.03869799999876,
                    "velocity": 0.5511811023622047,
                    "duration": 0.20026699999999664
                },
                {
                    "name": "C#5",
                    "midi": 73,
                    "time": 179.03869799999876,
                    "velocity": 0.6614173228346457,
                    "duration": 0.20026699999999664
                },
                {
                    "name": "C#5",
                    "midi": 73,
                    "time": 179.83976599999875,
                    "velocity": 0.29133858267716534,
                    "duration": 0.4005339999999933
                },
                {
                    "name": "A#4",
                    "midi": 70,
                    "time": 179.83976599999875,
                    "velocity": 0.2440944881889764,
                    "duration": 0.4005339999999933
                },
                {
                    "name": "A#4",
                    "midi": 70,
                    "time": 180.24029999999874,
                    "velocity": 0.29133858267716534,
                    "duration": 0.6008009999999899
                },
                {
                    "name": "C#5",
                    "midi": 73,
                    "time": 180.24029999999874,
                    "velocity": 0.3543307086614173,
                    "duration": 0.6008009999999899
                },
                {
                    "name": "B4",
                    "midi": 71,
                    "time": 180.84110099999873,
                    "velocity": 0.31496062992125984,
                    "duration": 0.20026699999999664
                },
                {
                    "name": "C#5",
                    "midi": 73,
                    "time": 181.04136799999873,
                    "velocity": 0.3228346456692913,
                    "duration": 0.30040049999999496
                },
                {
                    "name": "A#4",
                    "midi": 70,
                    "time": 181.04136799999873,
                    "velocity": 0.2755905511811024,
                    "duration": 0.30040049999999496
                },
                {
                    "name": "D5",
                    "midi": 74,
                    "time": 181.44190199999872,
                    "velocity": 0.33858267716535434,
                    "duration": 0.30040049999999496
                },
                {
                    "name": "B4",
                    "midi": 71,
                    "time": 181.44190199999872,
                    "velocity": 0.28346456692913385,
                    "duration": 0.30040049999999496
                },
                {
                    "name": "D5",
                    "midi": 74,
                    "time": 182.2429699999987,
                    "velocity": 0.5511811023622047,
                    "duration": 0.8010679999999866
                },
                {
                    "name": "G5",
                    "midi": 79,
                    "time": 183.0440379999987,
                    "velocity": 0.5511811023622047,
                    "duration": 0.4005339999999933
                },
                {
                    "name": "E5",
                    "midi": 76,
                    "time": 183.4445719999987,
                    "velocity": 0.4881889763779528,
                    "duration": 0.4005339999999933
                },
                {
                    "name": "D5",
                    "midi": 74,
                    "time": 183.84510599999868,
                    "velocity": 0.5196850393700787,
                    "duration": 0.4005339999999933
                },
                {
                    "name": "C5",
                    "midi": 72,
                    "time": 184.24563999999867,
                    "velocity": 0.4409448818897638,
                    "duration": 0.380507300000005
                },
                {
                    "name": "C5",
                    "midi": 72,
                    "time": 184.64617399999867,
                    "velocity": 0.48031496062992124,
                    "duration": 0.8010679999999866
                },
                {
                    "name": "A5",
                    "midi": 81,
                    "time": 185.44724199999865,
                    "velocity": 0.48031496062992124,
                    "duration": 0.4005339999999933
                },
                {
                    "name": "C5",
                    "midi": 72,
                    "time": 185.84777599999865,
                    "velocity": 0.4094488188976378,
                    "duration": 0.8010679999999866
                },
                {
                    "name": "B4",
                    "midi": 71,
                    "time": 186.64884399999863,
                    "velocity": 0.48031496062992124,
                    "duration": 0.380507300000005
                },
                {
                    "name": "B4",
                    "midi": 71,
                    "time": 187.04937799999863,
                    "velocity": 0.4330708661417323,
                    "duration": 0.8010679999999866
                },
                {
                    "name": "G4",
                    "midi": 67,
                    "time": 187.8504459999986,
                    "velocity": 0.3937007874015748,
                    "duration": 0.380507300000005
                },
                {
                    "name": "G4",
                    "midi": 67,
                    "time": 188.2509799999986,
                    "velocity": 0.3464566929133858,
                    "duration": 0.8010679999999866
                },
                {
                    "name": "E4",
                    "midi": 64,
                    "time": 189.0520479999986,
                    "velocity": 0.33858267716535434,
                    "duration": 0.380507300000005
                },
                {
                    "name": "E4",
                    "midi": 64,
                    "time": 189.45258199999859,
                    "velocity": 0.31496062992125984,
                    "duration": 0.8010679999999866
                },
                {
                    "name": "G3",
                    "midi": 55,
                    "time": 190.25364999999857,
                    "velocity": 0.28346456692913385,
                    "duration": 0.4005339999999933
                },
                {
                    "name": "E3",
                    "midi": 52,
                    "time": 190.65418399999857,
                    "velocity": 0.1889763779527559,
                    "duration": 0.4005339999999933
                },
                {
                    "name": "D#3",
                    "midi": 51,
                    "time": 191.05471799999856,
                    "velocity": 0.1889763779527559,
                    "duration": 0.720961200000005
                },
                {
                    "name": "B3",
                    "midi": 59,
                    "time": 191.05471799999856,
                    "velocity": 0.2204724409448819,
                    "duration": 0.720961200000005
                },
                {
                    "name": "E5",
                    "midi": 76,
                    "time": 191.85578599999857,
                    "velocity": 0.4015748031496063,
                    "duration": 1.0013350000000116
                },
                {
                    "name": "E6",
                    "midi": 88,
                    "time": 191.85578599999857,
                    "velocity": 0.48031496062992124,
                    "duration": 1.0013350000000116
                },
                {
                    "name": "D#5",
                    "midi": 75,
                    "time": 192.85712099999859,
                    "velocity": 0.3543307086614173,
                    "duration": 0.20026699999999664
                },
                {
                    "name": "D#6",
                    "midi": 87,
                    "time": 192.85712099999859,
                    "velocity": 0.41732283464566927,
                    "duration": 0.20026699999999664
                },
                {
                    "name": "E5",
                    "midi": 76,
                    "time": 193.05738799999858,
                    "velocity": 0.3779527559055118,
                    "duration": 0.4005339999999933
                },
                {
                    "name": "E6",
                    "midi": 88,
                    "time": 193.05738799999858,
                    "velocity": 0.44881889763779526,
                    "duration": 0.4005339999999933
                },
                {
                    "name": "C4",
                    "midi": 60,
                    "time": 193.45792199999858,
                    "velocity": 0.4015748031496063,
                    "duration": 0.8010679999999866
                },
                {
                    "name": "E4",
                    "midi": 64,
                    "time": 193.45792199999858,
                    "velocity": 0.4015748031496063,
                    "duration": 0.8010679999999866
                },
                {
                    "name": "F#4",
                    "midi": 66,
                    "time": 193.45792199999858,
                    "velocity": 0.48031496062992124,
                    "duration": 0.8010679999999866
                },
                {
                    "name": "F#4",
                    "midi": 66,
                    "time": 194.25898999999856,
                    "velocity": 0.5196850393700787,
                    "duration": 0.4005339999999933
                },
                {
                    "name": "E4",
                    "midi": 64,
                    "time": 194.25898999999856,
                    "velocity": 0.4409448818897638,
                    "duration": 0.4005339999999933
                },
                {
                    "name": "C#4",
                    "midi": 61,
                    "time": 194.25898999999856,
                    "velocity": 0.4409448818897638,
                    "duration": 0.4005339999999933
                },
                {
                    "name": "A3",
                    "midi": 57,
                    "time": 194.65952399999856,
                    "velocity": 0.47244094488188976,
                    "duration": 1.2016019999999799
                },
                {
                    "name": "D#4",
                    "midi": 63,
                    "time": 194.65952399999856,
                    "velocity": 0.47244094488188976,
                    "duration": 1.2016019999999799
                },
                {
                    "name": "F#4",
                    "midi": 66,
                    "time": 194.65952399999856,
                    "velocity": 0.5590551181102362,
                    "duration": 0.6008009999999899
                },
                {
                    "name": "G4",
                    "midi": 67,
                    "time": 195.26032499999855,
                    "velocity": 0.4015748031496063,
                    "duration": 0.20026699999999664
                },
                {
                    "name": "A4",
                    "midi": 69,
                    "time": 195.46059199999854,
                    "velocity": 0.4409448818897638,
                    "duration": 0.20026699999999664
                },
                {
                    "name": "G4",
                    "midi": 67,
                    "time": 195.66085899999854,
                    "velocity": 0.33858267716535434,
                    "duration": 0.20026699999999664
                },
                {
                    "name": "F#4",
                    "midi": 66,
                    "time": 195.86112599999854,
                    "velocity": 0.3700787401574803,
                    "duration": 0.4005339999999933
                },
                {
                    "name": "E4",
                    "midi": 64,
                    "time": 196.26165999999853,
                    "velocity": 0.30708661417322836,
                    "duration": 0.4005339999999933
                },
                {
                    "name": "E5",
                    "midi": 76,
                    "time": 196.66219399999852,
                    "velocity": 0.4015748031496063,
                    "duration": 1.0013350000000116
                },
                {
                    "name": "E6",
                    "midi": 88,
                    "time": 196.66219399999852,
                    "velocity": 0.48031496062992124,
                    "duration": 1.0013350000000116
                },
                {
                    "name": "D#5",
                    "midi": 75,
                    "time": 197.66352899999853,
                    "velocity": 0.4094488188976378,
                    "duration": 0.20026699999999664
                },
                {
                    "name": "D#6",
                    "midi": 87,
                    "time": 197.66352899999853,
                    "velocity": 0.48031496062992124,
                    "duration": 0.20026699999999664
                },
                {
                    "name": "E5",
                    "midi": 76,
                    "time": 197.86379599999853,
                    "velocity": 0.4409448818897638,
                    "duration": 0.4005339999999933
                },
                {
                    "name": "E6",
                    "midi": 88,
                    "time": 197.86379599999853,
                    "velocity": 0.5196850393700787,
                    "duration": 0.4005339999999933
                },
                {
                    "name": "C4",
                    "midi": 60,
                    "time": 198.26432999999852,
                    "velocity": 0.4015748031496063,
                    "duration": 0.8010679999999866
                },
                {
                    "name": "E4",
                    "midi": 64,
                    "time": 198.26432999999852,
                    "velocity": 0.4015748031496063,
                    "duration": 0.8010679999999866
                },
                {
                    "name": "F#4",
                    "midi": 66,
                    "time": 198.26432999999852,
                    "velocity": 0.48031496062992124,
                    "duration": 0.8010679999999866
                },
                {
                    "name": "F#4",
                    "midi": 66,
                    "time": 199.0653979999985,
                    "velocity": 0.4094488188976378,
                    "duration": 0.4005339999999933
                },
                {
                    "name": "E4",
                    "midi": 64,
                    "time": 199.0653979999985,
                    "velocity": 0.3464566929133858,
                    "duration": 0.4005339999999933
                },
                {
                    "name": "C#4",
                    "midi": 61,
                    "time": 199.0653979999985,
                    "velocity": 0.3464566929133858,
                    "duration": 0.4005339999999933
                },
                {
                    "name": "A3",
                    "midi": 57,
                    "time": 199.4659319999985,
                    "velocity": 0.36220472440944884,
                    "duration": 1.2016019999999799
                },
                {
                    "name": "D#4",
                    "midi": 63,
                    "time": 199.4659319999985,
                    "velocity": 0.36220472440944884,
                    "duration": 1.2016019999999799
                },
                {
                    "name": "F#4",
                    "midi": 66,
                    "time": 199.4659319999985,
                    "velocity": 0.4330708661417323,
                    "duration": 0.6008009999999899
                },
                {
                    "name": "A4",
                    "midi": 69,
                    "time": 200.0667329999985,
                    "velocity": 0.2992125984251969,
                    "duration": 0.20026699999999664
                },
                {
                    "name": "G4",
                    "midi": 67,
                    "time": 200.2669999999985,
                    "velocity": 0.3228346456692913,
                    "duration": 0.20026699999999664
                },
                {
                    "name": "F#4",
                    "midi": 66,
                    "time": 200.4672669999985,
                    "velocity": 0.25196850393700787,
                    "duration": 0.20026699999999664
                },
                {
                    "name": "G3",
                    "midi": 55,
                    "time": 200.66753399999848,
                    "velocity": 0.23622047244094488,
                    "duration": 0.4005339999999933
                },
                {
                    "name": "E4",
                    "midi": 64,
                    "time": 200.66753399999848,
                    "velocity": 0.28346456692913385,
                    "duration": 0.4005339999999933
                },
                {
                    "name": "G3",
                    "midi": 55,
                    "time": 201.46860199999847,
                    "velocity": 0.23622047244094488,
                    "duration": 0.10013349999999832
                },
                {
                    "name": "G4",
                    "midi": 67,
                    "time": 201.46860199999847,
                    "velocity": 0.28346456692913385,
                    "duration": 0.10013349999999832
                },
                {
                    "name": "G4",
                    "midi": 67,
                    "time": 201.86913599999846,
                    "velocity": 0.3228346456692913,
                    "duration": 0.8010679999999866
                },
                {
                    "name": "G3",
                    "midi": 55,
                    "time": 201.86913599999846,
                    "velocity": 0.2677165354330709,
                    "duration": 0.8010679999999866
                },
                {
                    "name": "C4",
                    "midi": 60,
                    "time": 202.67020399999845,
                    "velocity": 0.23622047244094488,
                    "duration": 0.10013349999999832
                },
                {
                    "name": "C5",
                    "midi": 72,
                    "time": 202.67020399999845,
                    "velocity": 0.28346456692913385,
                    "duration": 0.10013349999999832
                },
                {
                    "name": "C5",
                    "midi": 72,
                    "time": 203.07073799999844,
                    "velocity": 0.33070866141732286,
                    "duration": 0.8010679999999866
                },
                {
                    "name": "C4",
                    "midi": 60,
                    "time": 203.07073799999844,
                    "velocity": 0.2755905511811024,
                    "duration": 0.8010679999999866
                },
                {
                    "name": "G4",
                    "midi": 67,
                    "time": 203.87180599999843,
                    "velocity": 0.23622047244094488,
                    "duration": 0.10013349999999832
                },
                {
                    "name": "G5",
                    "midi": 79,
                    "time": 203.87180599999843,
                    "velocity": 0.28346456692913385,
                    "duration": 0.10013349999999832
                },
                {
                    "name": "G5",
                    "midi": 79,
                    "time": 204.27233999999842,
                    "velocity": 0.31496062992125984,
                    "duration": 0.8010679999999866
                },
                {
                    "name": "G4",
                    "midi": 67,
                    "time": 204.27233999999842,
                    "velocity": 0.2677165354330709,
                    "duration": 0.8010679999999866
                },
                {
                    "name": "C6",
                    "midi": 84,
                    "time": 205.0734079999984,
                    "velocity": 0.28346456692913385,
                    "duration": 0.10013349999999832
                },
                {
                    "name": "C5",
                    "midi": 72,
                    "time": 205.0734079999984,
                    "velocity": 0.23622047244094488,
                    "duration": 0.10013349999999832
                },
                {
                    "name": "C5",
                    "midi": 72,
                    "time": 205.4739419999984,
                    "velocity": 0.2677165354330709,
                    "duration": 0.8010679999999866
                },
                {
                    "name": "C6",
                    "midi": 84,
                    "time": 205.4739419999984,
                    "velocity": 0.3228346456692913,
                    "duration": 0.8010679999999866
                },
                {
                    "name": "F5",
                    "midi": 77,
                    "time": 206.2750099999984,
                    "velocity": 0.5511811023622047,
                    "duration": 0.10013349999999832
                },
                {
                    "name": "D6",
                    "midi": 86,
                    "time": 206.2750099999984,
                    "velocity": 0.5511811023622047,
                    "duration": 0.10013349999999832
                },
                {
                    "name": "F6",
                    "midi": 89,
                    "time": 206.2750099999984,
                    "velocity": 0.6456692913385826,
                    "duration": 0.10013349999999832
                },
                {
                    "name": "F5",
                    "midi": 77,
                    "time": 206.67554399999838,
                    "velocity": 0.5984251968503937,
                    "duration": 0.6008009999999899
                },
                {
                    "name": "D6",
                    "midi": 86,
                    "time": 206.67554399999838,
                    "velocity": 0.5984251968503937,
                    "duration": 0.6008009999999899
                },
                {
                    "name": "F6",
                    "midi": 89,
                    "time": 206.67554399999838,
                    "velocity": 0.7086614173228346,
                    "duration": 0.6008009999999899
                },
                {
                    "name": "E6",
                    "midi": 88,
                    "time": 207.27634499999837,
                    "velocity": 0.5511811023622047,
                    "duration": 0.11014685000000668
                },
                {
                    "name": "D6",
                    "midi": 86,
                    "time": 207.37647849999837,
                    "velocity": 0.5433070866141733,
                    "duration": 0.11014685000000668
                },
                {
                    "name": "C6",
                    "midi": 84,
                    "time": 207.47661199999837,
                    "velocity": 0.5354330708661418,
                    "duration": 0.11014685000000668
                },
                {
                    "name": "B5",
                    "midi": 83,
                    "time": 207.57674549999837,
                    "velocity": 0.5354330708661418,
                    "duration": 0.11014685000000668
                },
                {
                    "name": "A5",
                    "midi": 81,
                    "time": 207.67687899999837,
                    "velocity": 0.5354330708661418,
                    "duration": 0.11014685000000668
                },
                {
                    "name": "G5",
                    "midi": 79,
                    "time": 207.77701249999836,
                    "velocity": 0.5196850393700787,
                    "duration": 0.11014685000000668
                },
                {
                    "name": "F5",
                    "midi": 77,
                    "time": 207.87714599999836,
                    "velocity": 0.5039370078740157,
                    "duration": 0.11014685000000668
                },
                {
                    "name": "E5",
                    "midi": 76,
                    "time": 207.97727949999836,
                    "velocity": 0.5039370078740157,
                    "duration": 0.11014685000000668
                },
                {
                    "name": "D5",
                    "midi": 74,
                    "time": 208.07741299999836,
                    "velocity": 0.5039370078740157,
                    "duration": 0.11014685000000668
                },
                {
                    "name": "C5",
                    "midi": 72,
                    "time": 208.17754649999836,
                    "velocity": 0.5039370078740157,
                    "duration": 0.11014685000000668
                },
                {
                    "name": "B4",
                    "midi": 71,
                    "time": 208.27767999999836,
                    "velocity": 0.49606299212598426,
                    "duration": 0.07343123333333779
                },
                {
                    "name": "A4",
                    "midi": 69,
                    "time": 208.34443566666502,
                    "velocity": 0.49606299212598426,
                    "duration": 0.07343123333333779
                },
                {
                    "name": "G4",
                    "midi": 67,
                    "time": 208.4111913333317,
                    "velocity": 0.49606299212598426,
                    "duration": 0.07343123333333779
                },
                {
                    "name": "F4",
                    "midi": 65,
                    "time": 208.47794699999835,
                    "velocity": 0.49606299212598426,
                    "duration": 0.07343123333333779
                },
                {
                    "name": "E4",
                    "midi": 64,
                    "time": 208.54470266666502,
                    "velocity": 0.49606299212598426,
                    "duration": 0.07343123333333779
                },
                {
                    "name": "D4",
                    "midi": 62,
                    "time": 208.61145833333168,
                    "velocity": 0.49606299212598426,
                    "duration": 0.07343123333333779
                },
                {
                    "name": "C4",
                    "midi": 60,
                    "time": 208.67821399999835,
                    "velocity": 0.49606299212598426,
                    "duration": 0.08845125833335032
                },
                {
                    "name": "B3",
                    "midi": 59,
                    "time": 208.75832079999836,
                    "velocity": 0.49606299212598426,
                    "duration": 0.08845125833335032
                },
                {
                    "name": "A3",
                    "midi": 57,
                    "time": 208.83842759999837,
                    "velocity": 0.49606299212598426,
                    "duration": 0.08845125833335032
                },
                {
                    "name": "G3",
                    "midi": 55,
                    "time": 208.91853439999838,
                    "velocity": 0.4881889763779528,
                    "duration": 0.08845125833335032
                },
                {
                    "name": "F#3",
                    "midi": 54,
                    "time": 208.9986411999984,
                    "velocity": 0.4881889763779528,
                    "duration": 0.08845125833335032
                },
                {
                    "name": "G3",
                    "midi": 55,
                    "time": 209.0787479999984,
                    "velocity": 0.7007874015748031,
                    "duration": 0.20026699999999664
                },
                {
                    "name": "F4",
                    "midi": 65,
                    "time": 209.87981599999839,
                    "velocity": 0.31496062992125984,
                    "duration": 0.10013349999999832
                },
                {
                    "name": "D4",
                    "midi": 62,
                    "time": 209.87981599999839,
                    "velocity": 0.2677165354330709,
                    "duration": 0.10013349999999832
                },
                {
                    "name": "G3",
                    "midi": 55,
                    "time": 209.87981599999839,
                    "velocity": 0.2677165354330709,
                    "duration": 0.10013349999999832
                },
                {
                    "name": "E4",
                    "midi": 64,
                    "time": 210.28034999999838,
                    "velocity": 0.3543307086614173,
                    "duration": 0.20026699999999664
                },
                {
                    "name": "C4",
                    "midi": 60,
                    "time": 210.28034999999838,
                    "velocity": 0.2992125984251969,
                    "duration": 0.20026699999999664
                },
                {
                    "name": "G3",
                    "midi": 55,
                    "time": 210.28034999999838,
                    "velocity": 0.2992125984251969,
                    "duration": 0.20026699999999664
                },
                {
                    "name": "D5",
                    "midi": 74,
                    "time": 211.08141799999837,
                    "velocity": 0.5984251968503937,
                    "duration": 0.10013349999999832
                },
                {
                    "name": "G#5",
                    "midi": 80,
                    "time": 211.08141799999837,
                    "velocity": 0.5984251968503937,
                    "duration": 0.10013349999999832
                },
                {
                    "name": "B5",
                    "midi": 83,
                    "time": 211.08141799999837,
                    "velocity": 0.5984251968503937,
                    "duration": 0.10013349999999832
                },
                {
                    "name": "D6",
                    "midi": 86,
                    "time": 211.08141799999837,
                    "velocity": 0.7086614173228346,
                    "duration": 0.10013349999999832
                },
                {
                    "name": "D5",
                    "midi": 74,
                    "time": 211.48195199999836,
                    "velocity": 0.6614173228346457,
                    "duration": 0.6008009999999899
                },
                {
                    "name": "G#5",
                    "midi": 80,
                    "time": 211.48195199999836,
                    "velocity": 0.6614173228346457,
                    "duration": 0.6008009999999899
                },
                {
                    "name": "B5",
                    "midi": 83,
                    "time": 211.48195199999836,
                    "velocity": 0.6614173228346457,
                    "duration": 0.6008009999999899
                },
                {
                    "name": "D6",
                    "midi": 86,
                    "time": 211.48195199999836,
                    "velocity": 0.7716535433070866,
                    "duration": 0.6008009999999899
                },
                {
                    "name": "C6",
                    "midi": 84,
                    "time": 212.08275299999835,
                    "velocity": 0.5511811023622047,
                    "duration": 0.11014685000000668
                },
                {
                    "name": "B5",
                    "midi": 83,
                    "time": 212.18288649999835,
                    "velocity": 0.5433070866141733,
                    "duration": 0.11014685000000668
                },
                {
                    "name": "A5",
                    "midi": 81,
                    "time": 212.28301999999834,
                    "velocity": 0.5354330708661418,
                    "duration": 0.11014685000000668
                },
                {
                    "name": "G#5",
                    "midi": 80,
                    "time": 212.38315349999834,
                    "velocity": 0.5354330708661418,
                    "duration": 0.11014685000000668
                },
                {
                    "name": "F#5",
                    "midi": 78,
                    "time": 212.48328699999834,
                    "velocity": 0.5354330708661418,
                    "duration": 0.11014685000000668
                },
                {
                    "name": "E5",
                    "midi": 76,
                    "time": 212.58342049999834,
                    "velocity": 0.5196850393700787,
                    "duration": 0.11014685000000668
                },
                {
                    "name": "D5",
                    "midi": 74,
                    "time": 212.68355399999834,
                    "velocity": 0.5039370078740157,
                    "duration": 0.11014685000000668
                },
                {
                    "name": "C5",
                    "midi": 72,
                    "time": 212.78368749999834,
                    "velocity": 0.5039370078740157,
                    "duration": 0.11014685000000668
                },
                {
                    "name": "B4",
                    "midi": 71,
                    "time": 212.88382099999833,
                    "velocity": 0.5039370078740157,
                    "duration": 0.11014685000000668
                },
                {
                    "name": "A4",
                    "midi": 69,
                    "time": 212.98395449999833,
                    "velocity": 0.5039370078740157,
                    "duration": 0.11014685000000668
                },
                {
                    "name": "G#4",
                    "midi": 68,
                    "time": 213.08408799999833,
                    "velocity": 0.49606299212598426,
                    "duration": 0.07343123333333779
                },
                {
                    "name": "F#4",
                    "midi": 66,
                    "time": 213.150843666665,
                    "velocity": 0.49606299212598426,
                    "duration": 0.07343123333333779
                },
                {
                    "name": "E4",
                    "midi": 64,
                    "time": 213.21759933333166,
                    "velocity": 0.49606299212598426,
                    "duration": 0.07343123333333779
                },
                {
                    "name": "D4",
                    "midi": 62,
                    "time": 213.28435499999833,
                    "velocity": 0.49606299212598426,
                    "duration": 0.07343123333333779
                },
                {
                    "name": "C4",
                    "midi": 60,
                    "time": 213.351110666665,
                    "velocity": 0.49606299212598426,
                    "duration": 0.07343123333333779
                },
                {
                    "name": "B3",
                    "midi": 59,
                    "time": 213.41786633333166,
                    "velocity": 0.49606299212598426,
                    "duration": 0.07343123333333779
                },
                {
                    "name": "A3",
                    "midi": 57,
                    "time": 213.48462199999832,
                    "velocity": 0.49606299212598426,
                    "duration": 0.08845125833335032
                },
                {
                    "name": "G#3",
                    "midi": 56,
                    "time": 213.56472879999833,
                    "velocity": 0.49606299212598426,
                    "duration": 0.08845125833335032
                },
                {
                    "name": "F#3",
                    "midi": 54,
                    "time": 213.64483559999834,
                    "velocity": 0.49606299212598426,
                    "duration": 0.08845125833335032
                },
                {
                    "name": "E3",
                    "midi": 52,
                    "time": 213.72494239999835,
                    "velocity": 0.4881889763779528,
                    "duration": 0.08845125833335032
                },
                {
                    "name": "D#3",
                    "midi": 51,
                    "time": 213.80504919999836,
                    "velocity": 0.4881889763779528,
                    "duration": 0.08845125833335032
                },
                {
                    "name": "E3",
                    "midi": 52,
                    "time": 213.88515599999837,
                    "velocity": 0.7007874015748031,
                    "duration": 0.4005339999999933
                },
                {
                    "name": "D4",
                    "midi": 62,
                    "time": 214.68622399999836,
                    "velocity": 0.31496062992125984,
                    "duration": 0.10013349999999832
                },
                {
                    "name": "B3",
                    "midi": 59,
                    "time": 214.68622399999836,
                    "velocity": 0.2677165354330709,
                    "duration": 0.10013349999999832
                },
                {
                    "name": "E3",
                    "midi": 52,
                    "time": 214.68622399999836,
                    "velocity": 0.2677165354330709,
                    "duration": 0.10013349999999832
                },
                {
                    "name": "C4",
                    "midi": 60,
                    "time": 215.08675799999835,
                    "velocity": 0.3543307086614173,
                    "duration": 0.20026699999999664
                },
                {
                    "name": "A3",
                    "midi": 57,
                    "time": 215.08675799999835,
                    "velocity": 0.2992125984251969,
                    "duration": 0.20026699999999664
                },
                {
                    "name": "E3",
                    "midi": 52,
                    "time": 215.08675799999835,
                    "velocity": 0.2992125984251969,
                    "duration": 0.20026699999999664
                },
                {
                    "name": "C6",
                    "midi": 84,
                    "time": 215.88782599999834,
                    "velocity": 0.33858267716535434,
                    "duration": 0.20026699999999664
                },
                {
                    "name": "C6",
                    "midi": 84,
                    "time": 216.28835999999833,
                    "velocity": 0.3543307086614173,
                    "duration": 0.6008009999999899
                },
                {
                    "name": "A#5",
                    "midi": 82,
                    "time": 216.88916099999832,
                    "velocity": 0.33070866141732286,
                    "duration": 0.10013349999999832
                },
                {
                    "name": "A5",
                    "midi": 81,
                    "time": 216.98929449999832,
                    "velocity": 0.33070866141732286,
                    "duration": 0.10013349999999832
                },
                {
                    "name": "G5",
                    "midi": 79,
                    "time": 217.08942799999832,
                    "velocity": 0.31496062992125984,
                    "duration": 0.10013349999999832
                },
                {
                    "name": "F5",
                    "midi": 77,
                    "time": 217.18956149999832,
                    "velocity": 0.31496062992125984,
                    "duration": 0.10013349999999832
                },
                {
                    "name": "E5",
                    "midi": 76,
                    "time": 217.28969499999832,
                    "velocity": 0.31496062992125984,
                    "duration": 0.10013349999999832
                },
                {
                    "name": "D5",
                    "midi": 74,
                    "time": 217.38982849999832,
                    "velocity": 0.31496062992125984,
                    "duration": 0.10013349999999832
                },
                {
                    "name": "C5",
                    "midi": 72,
                    "time": 217.48996199999831,
                    "velocity": 0.31496062992125984,
                    "duration": 0.10013349999999832
                },
                {
                    "name": "A#4",
                    "midi": 70,
                    "time": 217.5900954999983,
                    "velocity": 0.31496062992125984,
                    "duration": 0.10013349999999832
                },
                {
                    "name": "A4",
                    "midi": 69,
                    "time": 217.6902289999983,
                    "velocity": 0.30708661417322836,
                    "duration": 0.10013349999999832
                },
                {
                    "name": "G4",
                    "midi": 67,
                    "time": 217.7903624999983,
                    "velocity": 0.30708661417322836,
                    "duration": 0.10013349999999832
                },
                {
                    "name": "F#4",
                    "midi": 66,
                    "time": 217.8904959999983,
                    "velocity": 0.29133858267716534,
                    "duration": 0.08010680000001003
                },
                {
                    "name": "E4",
                    "midi": 64,
                    "time": 217.97060279999832,
                    "velocity": 0.28346456692913385,
                    "duration": 0.08010680000001003
                },
                {
                    "name": "D4",
                    "midi": 62,
                    "time": 218.05070959999833,
                    "velocity": 0.2755905511811024,
                    "duration": 0.08010680000001003
                },
                {
                    "name": "C4",
                    "midi": 60,
                    "time": 218.13081639999834,
                    "velocity": 0.2755905511811024,
                    "duration": 0.08010680000001003
                },
                {
                    "name": "A#3",
                    "midi": 58,
                    "time": 218.21092319999835,
                    "velocity": 0.31496062992125984,
                    "duration": 0.08010680000001003
                },
                {
                    "name": "A3",
                    "midi": 57,
                    "time": 218.29102999999836,
                    "velocity": 0.33070866141732286,
                    "duration": 0.392189541666653
                },
                {
                    "name": "A3",
                    "midi": 57,
                    "time": 218.69156399999835,
                    "velocity": 0.33070866141732286,
                    "duration": 0.8010679999999866
                },
                {
                    "name": "A3",
                    "midi": 57,
                    "time": 219.49263199999834,
                    "velocity": 0.3543307086614173,
                    "duration": 0.36048059999998827
                },
                {
                    "name": "D#4",
                    "midi": 63,
                    "time": 219.49263199999834,
                    "velocity": 0.41732283464566927,
                    "duration": 0.36048059999998827
                },
                {
                    "name": "A3",
                    "midi": 57,
                    "time": 219.89316599999833,
                    "velocity": 0.3543307086614173,
                    "duration": 0.8010679999999866
                },
                {
                    "name": "D#4",
                    "midi": 63,
                    "time": 219.89316599999833,
                    "velocity": 0.41732283464566927,
                    "duration": 0.8010679999999866
                },
                {
                    "name": "D#4",
                    "midi": 63,
                    "time": 220.69423399999832,
                    "velocity": 0.41732283464566927,
                    "duration": 0.36048059999998827
                },
                {
                    "name": "A4",
                    "midi": 69,
                    "time": 220.69423399999832,
                    "velocity": 0.41732283464566927,
                    "duration": 0.36048059999998827
                },
                {
                    "name": "D#4",
                    "midi": 63,
                    "time": 221.0947679999983,
                    "velocity": 0.4645669291338583,
                    "duration": 0.8010679999999866
                },
                {
                    "name": "A4",
                    "midi": 69,
                    "time": 221.0947679999983,
                    "velocity": 0.4645669291338583,
                    "duration": 0.8010679999999866
                },
                {
                    "name": "D#4",
                    "midi": 63,
                    "time": 221.8958359999983,
                    "velocity": 0.41732283464566927,
                    "duration": 0.36048059999998827
                },
                {
                    "name": "A4",
                    "midi": 69,
                    "time": 221.8958359999983,
                    "velocity": 0.41732283464566927,
                    "duration": 0.36048059999998827
                },
                {
                    "name": "D#5",
                    "midi": 75,
                    "time": 221.8958359999983,
                    "velocity": 0.49606299212598426,
                    "duration": 0.36048059999998827
                },
                {
                    "name": "D#4",
                    "midi": 63,
                    "time": 222.2963699999983,
                    "velocity": 0.44881889763779526,
                    "duration": 0.8010679999999866
                },
                {
                    "name": "D#5",
                    "midi": 75,
                    "time": 222.2963699999983,
                    "velocity": 0.5354330708661418,
                    "duration": 0.8010679999999866
                },
                {
                    "name": "A4",
                    "midi": 69,
                    "time": 222.2963699999983,
                    "velocity": 0.44881889763779526,
                    "duration": 0.8010679999999866
                },
                {
                    "name": "D#5",
                    "midi": 75,
                    "time": 223.09743799999828,
                    "velocity": 0.4566929133858268,
                    "duration": 0.36048059999998827
                },
                {
                    "name": "C5",
                    "midi": 72,
                    "time": 223.09743799999828,
                    "velocity": 0.4566929133858268,
                    "duration": 0.36048059999998827
                },
                {
                    "name": "A5",
                    "midi": 81,
                    "time": 223.09743799999828,
                    "velocity": 0.4566929133858268,
                    "duration": 0.36048059999998827
                },
                {
                    "name": "C6",
                    "midi": 84,
                    "time": 223.09743799999828,
                    "velocity": 0.5433070866141733,
                    "duration": 0.36048059999998827
                },
                {
                    "name": "C5",
                    "midi": 72,
                    "time": 223.49797199999827,
                    "velocity": 0.5196850393700787,
                    "duration": 0.8010679999999866
                },
                {
                    "name": "D#5",
                    "midi": 75,
                    "time": 223.49797199999827,
                    "velocity": 0.5196850393700787,
                    "duration": 0.8010679999999866
                },
                {
                    "name": "A5",
                    "midi": 81,
                    "time": 223.49797199999827,
                    "velocity": 0.5196850393700787,
                    "duration": 0.8010679999999866
                },
                {
                    "name": "C6",
                    "midi": 84,
                    "time": 223.49797199999827,
                    "velocity": 0.6141732283464567,
                    "duration": 0.8010679999999866
                },
                {
                    "name": "B4",
                    "midi": 71,
                    "time": 224.29903999999826,
                    "velocity": 0.5354330708661418,
                    "duration": 0.4005339999999933
                },
                {
                    "name": "D#5",
                    "midi": 75,
                    "time": 224.29903999999826,
                    "velocity": 0.5354330708661418,
                    "duration": 0.4005339999999933
                },
                {
                    "name": "A5",
                    "midi": 81,
                    "time": 224.29903999999826,
                    "velocity": 0.5354330708661418,
                    "duration": 0.4005339999999933
                },
                {
                    "name": "B5",
                    "midi": 83,
                    "time": 224.29903999999826,
                    "velocity": 0.6299212598425197,
                    "duration": 0.4005339999999933
                },
                {
                    "name": "A#4",
                    "midi": 70,
                    "time": 224.69957399999825,
                    "velocity": 0.5590551181102362,
                    "duration": 0.8010679999999866
                },
                {
                    "name": "D#5",
                    "midi": 75,
                    "time": 224.69957399999825,
                    "velocity": 0.5590551181102362,
                    "duration": 0.8010679999999866
                },
                {
                    "name": "A#5",
                    "midi": 82,
                    "time": 224.69957399999825,
                    "velocity": 0.6614173228346457,
                    "duration": 0.8010679999999866
                },
                {
                    "name": "B4",
                    "midi": 71,
                    "time": 225.50064199999824,
                    "velocity": 0.5433070866141733,
                    "duration": 0.36048059999998827
                },
                {
                    "name": "B5",
                    "midi": 83,
                    "time": 225.50064199999824,
                    "velocity": 0.6456692913385826,
                    "duration": 0.36048059999998827
                },
                {
                    "name": "A5",
                    "midi": 81,
                    "time": 225.50064199999824,
                    "velocity": 0.5433070866141733,
                    "duration": 0.36048059999998827
                },
                {
                    "name": "D#5",
                    "midi": 75,
                    "time": 225.50064199999824,
                    "velocity": 0.5433070866141733,
                    "duration": 0.36048059999998827
                },
                {
                    "name": "B4",
                    "midi": 71,
                    "time": 225.90117599999823,
                    "velocity": 0.6299212598425197,
                    "duration": 1.2016020000000083
                },
                {
                    "name": "E5",
                    "midi": 76,
                    "time": 225.90117599999823,
                    "velocity": 0.6299212598425197,
                    "duration": 1.2016020000000083
                },
                {
                    "name": "B5",
                    "midi": 83,
                    "time": 225.90117599999823,
                    "velocity": 0.7480314960629921,
                    "duration": 1.2016020000000083
                },
                {
                    "name": "E5",
                    "midi": 76,
                    "time": 227.10277799999824,
                    "velocity": 0.6299212598425197,
                    "duration": 1.2016020000000083
                },
                {
                    "name": "E6",
                    "midi": 88,
                    "time": 227.10277799999824,
                    "velocity": 0.7401574803149606,
                    "duration": 1.2016020000000083
                },
                {
                    "name": "B4",
                    "midi": 71,
                    "time": 228.30437999999825,
                    "velocity": 0.3228346456692913,
                    "duration": 0.10013349999999832
                },
                {
                    "name": "D5",
                    "midi": 74,
                    "time": 228.30437999999825,
                    "velocity": 0.3228346456692913,
                    "duration": 0.10013349999999832
                },
                {
                    "name": "E5",
                    "midi": 76,
                    "time": 228.30437999999825,
                    "velocity": 0.3858267716535433,
                    "duration": 0.10013349999999832
                },
                {
                    "name": "C5",
                    "midi": 72,
                    "time": 228.70491399999824,
                    "velocity": 0.3858267716535433,
                    "duration": 0.10013349999999832
                },
                {
                    "name": "F5",
                    "midi": 77,
                    "time": 228.70491399999824,
                    "velocity": 0.4645669291338583,
                    "duration": 0.10013349999999832
                },
                {
                    "name": "F4",
                    "midi": 65,
                    "time": 228.70491399999824,
                    "velocity": 0.3858267716535433,
                    "duration": 0.10013349999999832
                },
                {
                    "name": "E5",
                    "midi": 76,
                    "time": 229.50598199999823,
                    "velocity": 0.3700787401574803,
                    "duration": 0.10013349999999832
                },
                {
                    "name": "F5",
                    "midi": 77,
                    "time": 229.50598199999823,
                    "velocity": 0.4409448818897638,
                    "duration": 0.10013349999999832
                },
                {
                    "name": "C5",
                    "midi": 72,
                    "time": 229.50598199999823,
                    "velocity": 0.3700787401574803,
                    "duration": 0.10013349999999832
                },
                {
                    "name": "D5",
                    "midi": 74,
                    "time": 229.90651599999822,
                    "velocity": 0.3858267716535433,
                    "duration": 0.10013349999999832
                },
                {
                    "name": "G#5",
                    "midi": 80,
                    "time": 229.90651599999822,
                    "velocity": 0.4645669291338583,
                    "duration": 0.10013349999999832
                },
                {
                    "name": "G#4",
                    "midi": 68,
                    "time": 229.90651599999822,
                    "velocity": 0.3858267716535433,
                    "duration": 0.10013349999999832
                },
                {
                    "name": "E5",
                    "midi": 76,
                    "time": 230.7075839999982,
                    "velocity": 0.3779527559055118,
                    "duration": 0.10013349999999832
                },
                {
                    "name": "D5",
                    "midi": 74,
                    "time": 230.7075839999982,
                    "velocity": 0.3779527559055118,
                    "duration": 0.10013349999999832
                },
                {
                    "name": "G#5",
                    "midi": 80,
                    "time": 230.7075839999982,
                    "velocity": 0.44881889763779526,
                    "duration": 0.10013349999999832
                },
                {
                    "name": "G#4",
                    "midi": 68,
                    "time": 230.7075839999982,
                    "velocity": 0.3779527559055118,
                    "duration": 0.10013349999999832
                },
                {
                    "name": "E5",
                    "midi": 76,
                    "time": 231.1081179999982,
                    "velocity": 0.41732283464566927,
                    "duration": 0.10013349999999832
                },
                {
                    "name": "A5",
                    "midi": 81,
                    "time": 231.1081179999982,
                    "velocity": 0.49606299212598426,
                    "duration": 0.10013349999999832
                },
                {
                    "name": "A4",
                    "midi": 69,
                    "time": 231.1081179999982,
                    "velocity": 0.41732283464566927,
                    "duration": 0.10013349999999832
                },
                {
                    "name": "A5",
                    "midi": 81,
                    "time": 231.9091859999982,
                    "velocity": 0.47244094488188976,
                    "duration": 0.10013349999999832
                },
                {
                    "name": "E5",
                    "midi": 76,
                    "time": 231.9091859999982,
                    "velocity": 0.3937007874015748,
                    "duration": 0.10013349999999832
                },
                {
                    "name": "G5",
                    "midi": 79,
                    "time": 232.30971999999818,
                    "velocity": 0.4330708661417323,
                    "duration": 0.10013349999999832
                },
                {
                    "name": "E5",
                    "midi": 76,
                    "time": 232.30971999999818,
                    "velocity": 0.4330708661417323,
                    "duration": 0.10013349999999832
                },
                {
                    "name": "A#5",
                    "midi": 82,
                    "time": 232.30971999999818,
                    "velocity": 0.5039370078740157,
                    "duration": 0.10013349999999832
                },
                {
                    "name": "A#4",
                    "midi": 70,
                    "time": 232.30971999999818,
                    "velocity": 0.4330708661417323,
                    "duration": 0.10013349999999832
                },
                {
                    "name": "C#5",
                    "midi": 73,
                    "time": 233.11078799999817,
                    "velocity": 0.30708661417322836,
                    "duration": 0.10013349999999832
                },
                {
                    "name": "E5",
                    "midi": 76,
                    "time": 233.11078799999817,
                    "velocity": 0.30708661417322836,
                    "duration": 0.10013349999999832
                },
                {
                    "name": "A5",
                    "midi": 81,
                    "time": 233.11078799999817,
                    "velocity": 0.36220472440944884,
                    "duration": 0.10013349999999832
                },
                {
                    "name": "A#5",
                    "midi": 82,
                    "time": 233.31105499999816,
                    "velocity": 0.2992125984251969,
                    "duration": 0.10013349999999832
                },
                {
                    "name": "E5",
                    "midi": 76,
                    "time": 233.31105499999816,
                    "velocity": 0.25196850393700787,
                    "duration": 0.10013349999999832
                },
                {
                    "name": "C#5",
                    "midi": 73,
                    "time": 233.31105499999816,
                    "velocity": 0.25196850393700787,
                    "duration": 0.10013349999999832
                },
                {
                    "name": "A#5",
                    "midi": 82,
                    "time": 233.51132199999816,
                    "velocity": 0.2992125984251969,
                    "duration": 0.10013349999999832
                },
                {
                    "name": "E5",
                    "midi": 76,
                    "time": 233.51132199999816,
                    "velocity": 0.25196850393700787,
                    "duration": 0.10013349999999832
                },
                {
                    "name": "C#5",
                    "midi": 73,
                    "time": 233.51132199999816,
                    "velocity": 0.25196850393700787,
                    "duration": 0.10013349999999832
                },
                {
                    "name": "A#5",
                    "midi": 82,
                    "time": 233.71158899999816,
                    "velocity": 0.2992125984251969,
                    "duration": 0.10013349999999832
                },
                {
                    "name": "E5",
                    "midi": 76,
                    "time": 233.71158899999816,
                    "velocity": 0.25196850393700787,
                    "duration": 0.10013349999999832
                },
                {
                    "name": "C#5",
                    "midi": 73,
                    "time": 233.71158899999816,
                    "velocity": 0.25196850393700787,
                    "duration": 0.10013349999999832
                },
                {
                    "name": "A#5",
                    "midi": 82,
                    "time": 233.91185599999815,
                    "velocity": 0.2992125984251969,
                    "duration": 0.10013349999999832
                },
                {
                    "name": "E5",
                    "midi": 76,
                    "time": 233.91185599999815,
                    "velocity": 0.25196850393700787,
                    "duration": 0.10013349999999832
                },
                {
                    "name": "C#5",
                    "midi": 73,
                    "time": 233.91185599999815,
                    "velocity": 0.25196850393700787,
                    "duration": 0.10013349999999832
                },
                {
                    "name": "A#5",
                    "midi": 82,
                    "time": 234.11212299999815,
                    "velocity": 0.2992125984251969,
                    "duration": 0.10013349999999832
                },
                {
                    "name": "E5",
                    "midi": 76,
                    "time": 234.11212299999815,
                    "velocity": 0.25196850393700787,
                    "duration": 0.10013349999999832
                },
                {
                    "name": "C#5",
                    "midi": 73,
                    "time": 234.11212299999815,
                    "velocity": 0.25196850393700787,
                    "duration": 0.10013349999999832
                },
                {
                    "name": "C#5",
                    "midi": 73,
                    "time": 234.31238999999815,
                    "velocity": 0.30708661417322836,
                    "duration": 0.10013349999999832
                },
                {
                    "name": "E5",
                    "midi": 76,
                    "time": 234.31238999999815,
                    "velocity": 0.30708661417322836,
                    "duration": 0.10013349999999832
                },
                {
                    "name": "A#5",
                    "midi": 82,
                    "time": 234.31238999999815,
                    "velocity": 0.36220472440944884,
                    "duration": 0.10013349999999832
                },
                {
                    "name": "A#5",
                    "midi": 82,
                    "time": 234.51265699999814,
                    "velocity": 0.4094488188976378,
                    "duration": 0.10013349999999832
                },
                {
                    "name": "E5",
                    "midi": 76,
                    "time": 234.51265699999814,
                    "velocity": 0.3464566929133858,
                    "duration": 0.10013349999999832
                },
                {
                    "name": "C#5",
                    "midi": 73,
                    "time": 234.51265699999814,
                    "velocity": 0.3464566929133858,
                    "duration": 0.10013349999999832
                },
                {
                    "name": "A#5",
                    "midi": 82,
                    "time": 234.71292399999814,
                    "velocity": 0.4566929133858268,
                    "duration": 0.10013349999999832
                },
                {
                    "name": "E5",
                    "midi": 76,
                    "time": 234.71292399999814,
                    "velocity": 0.3779527559055118,
                    "duration": 0.10013349999999832
                },
                {
                    "name": "C#5",
                    "midi": 73,
                    "time": 234.71292399999814,
                    "velocity": 0.3779527559055118,
                    "duration": 0.10013349999999832
                },
                {
                    "name": "A#5",
                    "midi": 82,
                    "time": 234.91319099999814,
                    "velocity": 0.49606299212598426,
                    "duration": 0.10013349999999832
                },
                {
                    "name": "E5",
                    "midi": 76,
                    "time": 234.91319099999814,
                    "velocity": 0.41732283464566927,
                    "duration": 0.10013349999999832
                },
                {
                    "name": "C#5",
                    "midi": 73,
                    "time": 234.91319099999814,
                    "velocity": 0.41732283464566927,
                    "duration": 0.10013349999999832
                },
                {
                    "name": "A#5",
                    "midi": 82,
                    "time": 235.11345799999813,
                    "velocity": 0.5433070866141733,
                    "duration": 0.10013349999999832
                },
                {
                    "name": "E5",
                    "midi": 76,
                    "time": 235.11345799999813,
                    "velocity": 0.4645669291338583,
                    "duration": 0.10013349999999832
                },
                {
                    "name": "C#5",
                    "midi": 73,
                    "time": 235.11345799999813,
                    "velocity": 0.4645669291338583,
                    "duration": 0.10013349999999832
                },
                {
                    "name": "A#5",
                    "midi": 82,
                    "time": 235.31372499999813,
                    "velocity": 0.5905511811023622,
                    "duration": 0.10013349999999832
                },
                {
                    "name": "E5",
                    "midi": 76,
                    "time": 235.31372499999813,
                    "velocity": 0.49606299212598426,
                    "duration": 0.10013349999999832
                },
                {
                    "name": "C#5",
                    "midi": 73,
                    "time": 235.31372499999813,
                    "velocity": 0.49606299212598426,
                    "duration": 0.10013349999999832
                },
                {
                    "name": "B5",
                    "midi": 83,
                    "time": 235.51399199999813,
                    "velocity": 0.7165354330708661,
                    "duration": 0.10013349999999832
                },
                {
                    "name": "C6",
                    "midi": 84,
                    "time": 235.71425899999812,
                    "velocity": 0.5511811023622047,
                    "duration": 0.10013349999999832
                },
                {
                    "name": "C7",
                    "midi": 96,
                    "time": 235.71425899999812,
                    "velocity": 0.6535433070866141,
                    "duration": 0.10013349999999832
                },
                {
                    "name": "C6",
                    "midi": 84,
                    "time": 235.91452599999812,
                    "velocity": 0.5511811023622047,
                    "duration": 0.10013349999999832
                },
                {
                    "name": "C7",
                    "midi": 96,
                    "time": 235.91452599999812,
                    "velocity": 0.6535433070866141,
                    "duration": 0.10013349999999832
                },
                {
                    "name": "C6",
                    "midi": 84,
                    "time": 236.11479299999812,
                    "velocity": 0.5511811023622047,
                    "duration": 0.10013349999999832
                },
                {
                    "name": "C7",
                    "midi": 96,
                    "time": 236.11479299999812,
                    "velocity": 0.6535433070866141,
                    "duration": 0.10013349999999832
                },
                {
                    "name": "C6",
                    "midi": 84,
                    "time": 236.3150599999981,
                    "velocity": 0.5511811023622047,
                    "duration": 0.10013349999999832
                },
                {
                    "name": "C7",
                    "midi": 96,
                    "time": 236.3150599999981,
                    "velocity": 0.6535433070866141,
                    "duration": 0.10013349999999832
                },
                {
                    "name": "C6",
                    "midi": 84,
                    "time": 236.5153269999981,
                    "velocity": 0.5511811023622047,
                    "duration": 0.10013349999999832
                },
                {
                    "name": "C7",
                    "midi": 96,
                    "time": 236.5153269999981,
                    "velocity": 0.6535433070866141,
                    "duration": 0.10013349999999832
                },
                {
                    "name": "C6",
                    "midi": 84,
                    "time": 236.7155939999981,
                    "velocity": 0.5590551181102362,
                    "duration": 0.10013349999999832
                },
                {
                    "name": "C7",
                    "midi": 96,
                    "time": 236.7155939999981,
                    "velocity": 0.6692913385826772,
                    "duration": 0.10013349999999832
                },
                {
                    "name": "C6",
                    "midi": 84,
                    "time": 236.9158609999981,
                    "velocity": 0.5118110236220472,
                    "duration": 0.10013349999999832
                },
                {
                    "name": "C7",
                    "midi": 96,
                    "time": 236.9158609999981,
                    "velocity": 0.6062992125984252,
                    "duration": 0.10013349999999832
                },
                {
                    "name": "C6",
                    "midi": 84,
                    "time": 237.1161279999981,
                    "velocity": 0.49606299212598426,
                    "duration": 0.10013349999999832
                },
                {
                    "name": "C7",
                    "midi": 96,
                    "time": 237.1161279999981,
                    "velocity": 0.5826771653543307,
                    "duration": 0.10013349999999832
                },
                {
                    "name": "C6",
                    "midi": 84,
                    "time": 237.3163949999981,
                    "velocity": 0.44881889763779526,
                    "duration": 0.10013349999999832
                },
                {
                    "name": "C7",
                    "midi": 96,
                    "time": 237.3163949999981,
                    "velocity": 0.5275590551181102,
                    "duration": 0.10013349999999832
                },
                {
                    "name": "C6",
                    "midi": 84,
                    "time": 237.5166619999981,
                    "velocity": 0.4015748031496063,
                    "duration": 0.10013349999999832
                },
                {
                    "name": "C7",
                    "midi": 96,
                    "time": 237.5166619999981,
                    "velocity": 0.47244094488188976,
                    "duration": 0.10013349999999832
                },
                {
                    "name": "C6",
                    "midi": 84,
                    "time": 237.7169289999981,
                    "velocity": 0.3700787401574803,
                    "duration": 0.10013349999999832
                },
                {
                    "name": "C7",
                    "midi": 96,
                    "time": 237.7169289999981,
                    "velocity": 0.4409448818897638,
                    "duration": 0.10013349999999832
                },
                {
                    "name": "C7",
                    "midi": 96,
                    "time": 237.91719599999809,
                    "velocity": 0.4409448818897638,
                    "duration": 0.4005339999999933
                },
                {
                    "name": "C6",
                    "midi": 84,
                    "time": 237.91719599999809,
                    "velocity": 0.4409448818897638,
                    "duration": 0.4005339999999933
                },
                {
                    "name": "B6",
                    "midi": 95,
                    "time": 238.31772999999808,
                    "velocity": 0.4409448818897638,
                    "duration": 1.2016020000000083
                },
                {
                    "name": "B5",
                    "midi": 83,
                    "time": 238.31772999999808,
                    "velocity": 0.4409448818897638,
                    "duration": 1.2016020000000083
                },
                {
                    "name": "E5",
                    "midi": 76,
                    "time": 239.5193319999981,
                    "velocity": 0.4409448818897638,
                    "duration": 1.2016020000000083
                },
                {
                    "name": "E6",
                    "midi": 88,
                    "time": 239.5193319999981,
                    "velocity": 0.4409448818897638,
                    "duration": 1.2016020000000083
                },
                {
                    "name": "B4",
                    "midi": 71,
                    "time": 240.7209339999981,
                    "velocity": 0.4409448818897638,
                    "duration": 1.2016020000000083
                },
                {
                    "name": "B5",
                    "midi": 83,
                    "time": 240.7209339999981,
                    "velocity": 0.4409448818897638,
                    "duration": 1.2016020000000083
                },
                {
                    "name": "E4",
                    "midi": 64,
                    "time": 241.9225359999981,
                    "velocity": 0.4409448818897638,
                    "duration": 0.8010679999999866
                },
                {
                    "name": "E5",
                    "midi": 76,
                    "time": 241.9225359999981,
                    "velocity": 0.4409448818897638,
                    "duration": 1.2016019999999799
                },
                {
                    "name": "C5",
                    "midi": 72,
                    "time": 243.12413799999808,
                    "velocity": 0.49606299212598426,
                    "duration": 0.4005339999999933
                },
                {
                    "name": "B4",
                    "midi": 71,
                    "time": 243.52467199999808,
                    "velocity": 0.44881889763779526,
                    "duration": 0.392189541666653
                },
                {
                    "name": "B4",
                    "midi": 71,
                    "time": 243.92520599999807,
                    "velocity": 0.5118110236220472,
                    "duration": 0.8010679999999866
                },
                {
                    "name": "D#5",
                    "midi": 75,
                    "time": 244.72627399999806,
                    "velocity": 0.4566929133858268,
                    "duration": 0.4005339999999933
                },
                {
                    "name": "E5",
                    "midi": 76,
                    "time": 245.12680799999805,
                    "velocity": 0.4409448818897638,
                    "duration": 0.20026699999999664
                },
                {
                    "name": "C5",
                    "midi": 72,
                    "time": 245.32707499999805,
                    "velocity": 0.5433070866141733,
                    "duration": 0.20026699999999664
                },
                {
                    "name": "C6",
                    "midi": 84,
                    "time": 245.52734199999804,
                    "velocity": 0.5748031496062992,
                    "duration": 0.6008009999999899
                },
                {
                    "name": "B5",
                    "midi": 83,
                    "time": 246.12814299999803,
                    "velocity": 0.4409448818897638,
                    "duration": 0.20026699999999664
                },
                {
                    "name": "B5",
                    "midi": 83,
                    "time": 246.52867699999803,
                    "velocity": 0.5590551181102362,
                    "duration": 0.20026699999999664
                },
                {
                    "name": "F#5",
                    "midi": 78,
                    "time": 246.72894399999802,
                    "velocity": 0.5354330708661418,
                    "duration": 0.6008009999999899
                },
                {
                    "name": "E5",
                    "midi": 76,
                    "time": 247.329744999998,
                    "velocity": 0.4015748031496063,
                    "duration": 0.20026699999999664
                },
                {
                    "name": "E5",
                    "midi": 76,
                    "time": 247.730278999998,
                    "velocity": 0.5590551181102362,
                    "duration": 0.20026699999999664
                },
                {
                    "name": "C5",
                    "midi": 72,
                    "time": 247.930545999998,
                    "velocity": 0.5433070866141733,
                    "duration": 0.6008009999999899
                },
                {
                    "name": "B4",
                    "midi": 71,
                    "time": 248.531346999998,
                    "velocity": 0.41732283464566927,
                    "duration": 0.20026699999999664
                },
                {
                    "name": "B4",
                    "midi": 71,
                    "time": 248.931880999998,
                    "velocity": 0.5433070866141733,
                    "duration": 0.20026699999999664
                },
                {
                    "name": "F#4",
                    "midi": 66,
                    "time": 249.13214799999798,
                    "velocity": 0.49606299212598426,
                    "duration": 0.6008009999999899
                },
                {
                    "name": "E4",
                    "midi": 64,
                    "time": 249.73294899999797,
                    "velocity": 0.4409448818897638,
                    "duration": 0.19192254166665634
                },
                {
                    "name": "E4",
                    "midi": 64,
                    "time": 249.93321599999797,
                    "velocity": 0.49606299212598426,
                    "duration": 0.4005339999999933
                },
                {
                    "name": "C4",
                    "midi": 60,
                    "time": 250.33374999999796,
                    "velocity": 0.49606299212598426,
                    "duration": 0.4005339999999933
                },
                {
                    "name": "B3",
                    "midi": 59,
                    "time": 250.73428399999796,
                    "velocity": 0.5118110236220472,
                    "duration": 0.392189541666653
                },
                {
                    "name": "B3",
                    "midi": 59,
                    "time": 251.13481799999795,
                    "velocity": 0.5590551181102362,
                    "duration": 0.20026699999999664
                },
                {
                    "name": "G3",
                    "midi": 55,
                    "time": 251.33508499999795,
                    "velocity": 0.5118110236220472,
                    "duration": 0.20026699999999664
                },
                {
                    "name": "E3",
                    "midi": 52,
                    "time": 251.53535199999794,
                    "velocity": 0.5590551181102362,
                    "duration": 0.20026699999999664
                },
                {
                    "name": "C3",
                    "midi": 48,
                    "time": 251.73561899999794,
                    "velocity": 0.5118110236220472,
                    "duration": 0.20026699999999664
                },
                {
                    "name": "B2",
                    "midi": 47,
                    "time": 251.93588599999794,
                    "velocity": 0.5511811023622047,
                    "duration": 0.20026699999999664
                },
                {
                    "name": "D#3",
                    "midi": 51,
                    "time": 252.13615299999793,
                    "velocity": 0.5984251968503937,
                    "duration": 0.20026699999999664
                },
                {
                    "name": "E3",
                    "midi": 52,
                    "time": 252.33641999999793,
                    "velocity": 0.6299212598425197,
                    "duration": 0.4005339999999933
                },
                {
                    "name": "E4",
                    "midi": 64,
                    "time": 253.5380219999979,
                    "velocity": 0.6220472440944882,
                    "duration": 1.2016020000000083
                },
                {
                    "name": "C4",
                    "midi": 60,
                    "time": 253.5380219999979,
                    "velocity": 0.5275590551181102,
                    "duration": 1.2016020000000083
                },
                {
                    "name": "F4",
                    "midi": 65,
                    "time": 254.73962399999792,
                    "velocity": 0.2677165354330709,
                    "duration": 0.8010679999999866
                },
                {
                    "name": "C4",
                    "midi": 60,
                    "time": 254.73962399999792,
                    "velocity": 0.2204724409448819,
                    "duration": 1.2016019999999799
                },
                {
                    "name": "C5",
                    "midi": 72,
                    "time": 255.5406919999979,
                    "velocity": 0.30708661417322836,
                    "duration": 1.2016020000000083
                },
                {
                    "name": "A4",
                    "midi": 69,
                    "time": 255.9412259999979,
                    "velocity": 0.2125984251968504,
                    "duration": 1.2016020000000083
                },
                {
                    "name": "D#4",
                    "midi": 63,
                    "time": 255.9412259999979,
                    "velocity": 0.2125984251968504,
                    "duration": 1.2016020000000083
                },
                {
                    "name": "F#4",
                    "midi": 66,
                    "time": 255.9412259999979,
                    "velocity": 0.2125984251968504,
                    "duration": 1.2016020000000083
                },
                {
                    "name": "B4",
                    "midi": 71,
                    "time": 256.7422939999979,
                    "velocity": 0.25984251968503935,
                    "duration": 0.392189541666653
                },
                {
                    "name": "B4",
                    "midi": 71,
                    "time": 257.1428279999979,
                    "velocity": 0.31496062992125984,
                    "duration": 0.4005339999999933
                },
                {
                    "name": "G4",
                    "midi": 67,
                    "time": 257.1428279999979,
                    "velocity": 0.2677165354330709,
                    "duration": 0.4005339999999933
                },
                {
                    "name": "E4",
                    "midi": 64,
                    "time": 257.1428279999979,
                    "velocity": 0.2677165354330709,
                    "duration": 0.4005339999999933
                },
                {
                    "name": "E3",
                    "midi": 52,
                    "time": 258.3444299999979,
                    "velocity": 0.6220472440944882,
                    "duration": 1.2016019999999799
                },
                {
                    "name": "C3",
                    "midi": 48,
                    "time": 258.3444299999979,
                    "velocity": 0.5275590551181102,
                    "duration": 1.2016019999999799
                },
                {
                    "name": "F3",
                    "midi": 53,
                    "time": 259.54603199999787,
                    "velocity": 0.2677165354330709,
                    "duration": 0.8010679999999866
                },
                {
                    "name": "C3",
                    "midi": 48,
                    "time": 259.54603199999787,
                    "velocity": 0.2204724409448819,
                    "duration": 1.2016019999999799
                },
                {
                    "name": "C4",
                    "midi": 60,
                    "time": 260.34709999999785,
                    "velocity": 0.30708661417322836,
                    "duration": 1.2016019999999799
                },
                {
                    "name": "A3",
                    "midi": 57,
                    "time": 260.74763399999784,
                    "velocity": 0.2125984251968504,
                    "duration": 1.2016019999999799
                },
                {
                    "name": "D#3",
                    "midi": 51,
                    "time": 260.74763399999784,
                    "velocity": 0.2125984251968504,
                    "duration": 1.2016019999999799
                },
                {
                    "name": "F#3",
                    "midi": 54,
                    "time": 260.74763399999784,
                    "velocity": 0.2125984251968504,
                    "duration": 1.2016019999999799
                },
                {
                    "name": "B3",
                    "midi": 59,
                    "time": 261.54870199999783,
                    "velocity": 0.25984251968503935,
                    "duration": 0.392189541666653
                },
                {
                    "name": "C4",
                    "midi": 60,
                    "time": 262.77283403749783,
                    "velocity": 0.30708661417322836,
                    "duration": 1.2016019999999799
                },
                {
                    "name": "E3",
                    "midi": 52,
                    "time": 263.1508379999978,
                    "velocity": 0.1889763779527559,
                    "duration": 1.2016019999999799
                },
                {
                    "name": "G3",
                    "midi": 55,
                    "time": 263.1508379999978,
                    "velocity": 0.1889763779527559,
                    "duration": 1.2016019999999799
                },
                {
                    "name": "B3",
                    "midi": 59,
                    "time": 263.9744360374978,
                    "velocity": 0.25984251968503935,
                    "duration": 0.4005339999999933
                },
                {
                    "name": "C4",
                    "midi": 60,
                    "time": 265.1760380374978,
                    "velocity": 0.30708661417322836,
                    "duration": 1.2016019999999799
                },
                {
                    "name": "F#3",
                    "midi": 54,
                    "time": 265.55404199999776,
                    "velocity": 0.1889763779527559,
                    "duration": 1.2016019999999799
                },
                {
                    "name": "A3",
                    "midi": 57,
                    "time": 265.55404199999776,
                    "velocity": 0.1889763779527559,
                    "duration": 1.2016019999999799
                },
                {
                    "name": "D#4",
                    "midi": 63,
                    "time": 266.35510999999775,
                    "velocity": 0.25984251968503935,
                    "duration": 0.4005339999999933
                },
                {
                    "name": "G3",
                    "midi": 55,
                    "time": 266.75564399999774,
                    "velocity": 0.2204724409448819,
                    "duration": 0.4005339999999933
                },
                {
                    "name": "E4",
                    "midi": 64,
                    "time": 266.75564399999774,
                    "velocity": 0.25984251968503935,
                    "duration": 0.4005339999999933
                },
                {
                    "name": "C5",
                    "midi": 72,
                    "time": 267.57924203749775,
                    "velocity": 0.2755905511811024,
                    "duration": 1.2016019999999799
                },
                {
                    "name": "D#4",
                    "midi": 63,
                    "time": 267.9572459999977,
                    "velocity": 0.16535433070866143,
                    "duration": 1.2016019999999799
                },
                {
                    "name": "F#4",
                    "midi": 66,
                    "time": 267.9572459999977,
                    "velocity": 0.16535433070866143,
                    "duration": 1.2016019999999799
                },
                {
                    "name": "A4",
                    "midi": 69,
                    "time": 267.9572459999977,
                    "velocity": 0.16535433070866143,
                    "duration": 1.2016019999999799
                },
                {
                    "name": "B4",
                    "midi": 71,
                    "time": 268.78084403749773,
                    "velocity": 0.2283464566929134,
                    "duration": 0.4005339999999933
                },
                {
                    "name": "C5",
                    "midi": 72,
                    "time": 269.95991599999775,
                    "velocity": 0.2755905511811024,
                    "duration": 1.2016019999999799
                },
                {
                    "name": "G4",
                    "midi": 67,
                    "time": 270.36044999999774,
                    "velocity": 0.16535433070866143,
                    "duration": 1.2016019999999799
                },
                {
                    "name": "E4",
                    "midi": 64,
                    "time": 270.36044999999774,
                    "velocity": 0.16535433070866143,
                    "duration": 1.2016019999999799
                },
                {
                    "name": "B4",
                    "midi": 71,
                    "time": 271.1615179999977,
                    "velocity": 0.2283464566929134,
                    "duration": 0.4005339999999933
                },
                {
                    "name": "C5",
                    "midi": 72,
                    "time": 272.3856500374977,
                    "velocity": 0.2755905511811024,
                    "duration": 1.2016019999999799
                },
                {
                    "name": "F#4",
                    "midi": 66,
                    "time": 272.7636539999977,
                    "velocity": 0.16535433070866143,
                    "duration": 1.2016019999999799
                },
                {
                    "name": "A4",
                    "midi": 69,
                    "time": 272.7636539999977,
                    "velocity": 0.16535433070866143,
                    "duration": 1.2016019999999799
                },
                {
                    "name": "D#5",
                    "midi": 75,
                    "time": 273.5647219999977,
                    "velocity": 0.2283464566929134,
                    "duration": 0.4005339999999933
                },
                {
                    "name": "G4",
                    "midi": 67,
                    "time": 273.9652559999977,
                    "velocity": 0.1968503937007874,
                    "duration": 0.4005339999999933
                },
                {
                    "name": "E5",
                    "midi": 76,
                    "time": 273.9652559999977,
                    "velocity": 0.2283464566929134,
                    "duration": 0.4005339999999933
                },
                {
                    "name": "C6",
                    "midi": 84,
                    "time": 274.7888540374977,
                    "velocity": 0.2755905511811024,
                    "duration": 1.2016019999999799
                },
                {
                    "name": "D#5",
                    "midi": 75,
                    "time": 275.16685799999766,
                    "velocity": 0.16535433070866143,
                    "duration": 1.2016019999999799
                },
                {
                    "name": "F#5",
                    "midi": 78,
                    "time": 275.16685799999766,
                    "velocity": 0.16535433070866143,
                    "duration": 1.2016019999999799
                },
                {
                    "name": "A5",
                    "midi": 81,
                    "time": 275.16685799999766,
                    "velocity": 0.16535433070866143,
                    "duration": 1.2016019999999799
                },
                {
                    "name": "B5",
                    "midi": 83,
                    "time": 275.99045603749767,
                    "velocity": 0.2283464566929134,
                    "duration": 0.4005339999999933
                },
                {
                    "name": "F#5",
                    "midi": 78,
                    "time": 278.37112999999766,
                    "velocity": 0.2440944881889764,
                    "duration": 0.4005339999999933
                },
                {
                    "name": "D#5",
                    "midi": 75,
                    "time": 278.37112999999766,
                    "velocity": 0.2047244094488189,
                    "duration": 0.4005339999999933
                },
                {
                    "name": "E5",
                    "midi": 76,
                    "time": 278.77166399999766,
                    "velocity": 0.2440944881889764,
                    "duration": 0.6008009999999899
                },
                {
                    "name": "G5",
                    "midi": 79,
                    "time": 278.77166399999766,
                    "velocity": 0.2992125984251969,
                    "duration": 0.6008009999999899
                },
                {
                    "name": "D#5",
                    "midi": 75,
                    "time": 279.37246499999765,
                    "velocity": 0.2125984251968504,
                    "duration": 0.20026699999999664
                },
                {
                    "name": "F#5",
                    "midi": 78,
                    "time": 279.37246499999765,
                    "velocity": 0.2677165354330709,
                    "duration": 0.20026699999999664
                },
                {
                    "name": "E5",
                    "midi": 76,
                    "time": 279.57273199999764,
                    "velocity": 0.2677165354330709,
                    "duration": 0.3004005000000234
                },
                {
                    "name": "A5",
                    "midi": 81,
                    "time": 279.9732659999977,
                    "velocity": 0.28346456692913385,
                    "duration": 0.3004005000000234
                },
                {
                    "name": "F#5",
                    "midi": 78,
                    "time": 279.9732659999977,
                    "velocity": 0.23622047244094488,
                    "duration": 0.3004005000000234
                },
                {
                    "name": "A5",
                    "midi": 81,
                    "time": 280.77433399999774,
                    "velocity": 0.2440944881889764,
                    "duration": 0.38050729999997657
                },
                {
                    "name": "F#5",
                    "midi": 78,
                    "time": 280.77433399999774,
                    "velocity": 0.2047244094488189,
                    "duration": 0.38050729999997657
                },
                {
                    "name": "F#5",
                    "midi": 78,
                    "time": 281.17486799999773,
                    "velocity": 0.2440944881889764,
                    "duration": 0.6008009999999899
                },
                {
                    "name": "A5",
                    "midi": 81,
                    "time": 281.17486799999773,
                    "velocity": 0.2992125984251969,
                    "duration": 0.6008009999999899
                },
                {
                    "name": "G5",
                    "midi": 79,
                    "time": 281.7756689999977,
                    "velocity": 0.2677165354330709,
                    "duration": 0.20026699999999664
                },
                {
                    "name": "F#5",
                    "midi": 78,
                    "time": 281.9759359999977,
                    "velocity": 0.2440944881889764,
                    "duration": 0.3004005000000234
                },
                {
                    "name": "A5",
                    "midi": 81,
                    "time": 281.9759359999977,
                    "velocity": 0.2677165354330709,
                    "duration": 0.3004005000000234
                },
                {
                    "name": "B5",
                    "midi": 83,
                    "time": 282.37646999999777,
                    "velocity": 0.28346456692913385,
                    "duration": 0.3004005000000234
                },
                {
                    "name": "G5",
                    "midi": 79,
                    "time": 282.37646999999777,
                    "velocity": 0.23622047244094488,
                    "duration": 0.3004005000000234
                },
                {
                    "name": "B5",
                    "midi": 83,
                    "time": 283.1775379999978,
                    "velocity": 0.2125984251968504,
                    "duration": 0.38050729999997657
                },
                {
                    "name": "B5",
                    "midi": 83,
                    "time": 283.5780719999978,
                    "velocity": 0.2677165354330709,
                    "duration": 0.6008009999999899
                },
                {
                    "name": "A5",
                    "midi": 81,
                    "time": 284.1788729999978,
                    "velocity": 0.23622047244094488,
                    "duration": 0.20026699999999664
                },
                {
                    "name": "G5",
                    "midi": 79,
                    "time": 284.3791399999978,
                    "velocity": 0.2125984251968504,
                    "duration": 0.3004005000000234
                },
                {
                    "name": "B5",
                    "midi": 83,
                    "time": 284.3791399999978,
                    "velocity": 0.23622047244094488,
                    "duration": 0.3004005000000234
                },
                {
                    "name": "C6",
                    "midi": 84,
                    "time": 284.77967399999784,
                    "velocity": 0.25196850393700787,
                    "duration": 0.3004005000000234
                },
                {
                    "name": "A5",
                    "midi": 81,
                    "time": 284.77967399999784,
                    "velocity": 0.2125984251968504,
                    "duration": 0.3004005000000234
                },
                {
                    "name": "E5",
                    "midi": 76,
                    "time": 285.5807419999979,
                    "velocity": 0.4015748031496063,
                    "duration": 1.0013349999999832
                },
                {
                    "name": "E6",
                    "midi": 88,
                    "time": 285.5807419999979,
                    "velocity": 0.48031496062992124,
                    "duration": 1.0013349999999832
                },
                {
                    "name": "D#5",
                    "midi": 75,
                    "time": 286.58207699999787,
                    "velocity": 0.4015748031496063,
                    "duration": 0.20026699999999664
                },
                {
                    "name": "D#6",
                    "midi": 87,
                    "time": 286.58207699999787,
                    "velocity": 0.47244094488188976,
                    "duration": 0.20026699999999664
                },
                {
                    "name": "E5",
                    "midi": 76,
                    "time": 286.78234399999786,
                    "velocity": 0.4330708661417323,
                    "duration": 0.4005339999999933
                },
                {
                    "name": "E6",
                    "midi": 88,
                    "time": 286.78234399999786,
                    "velocity": 0.5118110236220472,
                    "duration": 0.4005339999999933
                },
                {
                    "name": "C4",
                    "midi": 60,
                    "time": 287.18287799999786,
                    "velocity": 0.3543307086614173,
                    "duration": 0.8010679999999866
                },
                {
                    "name": "E4",
                    "midi": 64,
                    "time": 287.18287799999786,
                    "velocity": 0.3543307086614173,
                    "duration": 0.8010679999999866
                },
                {
                    "name": "F#4",
                    "midi": 66,
                    "time": 287.18287799999786,
                    "velocity": 0.4251968503937008,
                    "duration": 0.8010679999999866
                },
                {
                    "name": "F#4",
                    "midi": 66,
                    "time": 287.98394599999784,
                    "velocity": 0.5196850393700787,
                    "duration": 0.4005339999999933
                },
                {
                    "name": "E4",
                    "midi": 64,
                    "time": 287.98394599999784,
                    "velocity": 0.4409448818897638,
                    "duration": 0.4005339999999933
                },
                {
                    "name": "C#4",
                    "midi": 61,
                    "time": 287.98394599999784,
                    "velocity": 0.4409448818897638,
                    "duration": 0.4005339999999933
                },
                {
                    "name": "A3",
                    "midi": 57,
                    "time": 288.38447999999784,
                    "velocity": 0.47244094488188976,
                    "duration": 1.2016019999999799
                },
                {
                    "name": "D#4",
                    "midi": 63,
                    "time": 288.38447999999784,
                    "velocity": 0.47244094488188976,
                    "duration": 1.2016019999999799
                },
                {
                    "name": "F#4",
                    "midi": 66,
                    "time": 288.38447999999784,
                    "velocity": 0.5590551181102362,
                    "duration": 0.6008009999999899
                },
                {
                    "name": "G4",
                    "midi": 67,
                    "time": 288.9852809999978,
                    "velocity": 0.4015748031496063,
                    "duration": 0.20026699999999664
                },
                {
                    "name": "A4",
                    "midi": 69,
                    "time": 289.1855479999978,
                    "velocity": 0.4409448818897638,
                    "duration": 0.20026699999999664
                },
                {
                    "name": "G4",
                    "midi": 67,
                    "time": 289.3858149999978,
                    "velocity": 0.33858267716535434,
                    "duration": 0.20026699999999664
                },
                {
                    "name": "F#4",
                    "midi": 66,
                    "time": 289.5860819999978,
                    "velocity": 0.3700787401574803,
                    "duration": 0.4005339999999933
                },
                {
                    "name": "E4",
                    "midi": 64,
                    "time": 289.9866159999978,
                    "velocity": 0.30708661417322836,
                    "duration": 0.4005339999999933
                },
                {
                    "name": "E5",
                    "midi": 76,
                    "time": 290.3871499999978,
                    "velocity": 0.41732283464566927,
                    "duration": 1.0013349999999832
                },
                {
                    "name": "E6",
                    "midi": 88,
                    "time": 290.3871499999978,
                    "velocity": 0.5039370078740157,
                    "duration": 1.0013349999999832
                },
                {
                    "name": "D#5",
                    "midi": 75,
                    "time": 291.3884849999978,
                    "velocity": 0.4251968503937008,
                    "duration": 0.20026699999999664
                },
                {
                    "name": "D#6",
                    "midi": 87,
                    "time": 291.3884849999978,
                    "velocity": 0.5039370078740157,
                    "duration": 0.20026699999999664
                },
                {
                    "name": "E5",
                    "midi": 76,
                    "time": 291.5887519999978,
                    "velocity": 0.4409448818897638,
                    "duration": 0.4005339999999933
                },
                {
                    "name": "E6",
                    "midi": 88,
                    "time": 291.5887519999978,
                    "velocity": 0.5196850393700787,
                    "duration": 0.4005339999999933
                },
                {
                    "name": "C4",
                    "midi": 60,
                    "time": 291.9892859999978,
                    "velocity": 0.31496062992125984,
                    "duration": 0.8010679999999866
                },
                {
                    "name": "E4",
                    "midi": 64,
                    "time": 291.9892859999978,
                    "velocity": 0.31496062992125984,
                    "duration": 0.8010679999999866
                },
                {
                    "name": "F#4",
                    "midi": 66,
                    "time": 291.9892859999978,
                    "velocity": 0.3779527559055118,
                    "duration": 0.8010679999999866
                },
                {
                    "name": "F#4",
                    "midi": 66,
                    "time": 292.79035399999776,
                    "velocity": 0.3228346456692913,
                    "duration": 0.4005339999999933
                },
                {
                    "name": "E4",
                    "midi": 64,
                    "time": 292.79035399999776,
                    "velocity": 0.2677165354330709,
                    "duration": 0.4005339999999933
                },
                {
                    "name": "C#4",
                    "midi": 61,
                    "time": 292.79035399999776,
                    "velocity": 0.2677165354330709,
                    "duration": 0.4005339999999933
                },
                {
                    "name": "A3",
                    "midi": 57,
                    "time": 293.19088799999776,
                    "velocity": 0.2677165354330709,
                    "duration": 1.2016019999999799
                },
                {
                    "name": "D#4",
                    "midi": 63,
                    "time": 293.19088799999776,
                    "velocity": 0.2677165354330709,
                    "duration": 1.2016019999999799
                },
                {
                    "name": "F#4",
                    "midi": 66,
                    "time": 293.19088799999776,
                    "velocity": 0.3228346456692913,
                    "duration": 0.6008009999999899
                },
                {
                    "name": "A4",
                    "midi": 69,
                    "time": 293.79168899999775,
                    "velocity": 0.2047244094488189,
                    "duration": 0.20026699999999664
                },
                {
                    "name": "G4",
                    "midi": 67,
                    "time": 293.99195599999774,
                    "velocity": 0.2204724409448819,
                    "duration": 0.20026699999999664
                },
                {
                    "name": "F#4",
                    "midi": 66,
                    "time": 294.19222299999774,
                    "velocity": 0.16535433070866143,
                    "duration": 0.20026699999999664
                },
                {
                    "name": "G3",
                    "midi": 55,
                    "time": 294.39248999999774,
                    "velocity": 0.15748031496062992,
                    "duration": 0.4005339999999933
                },
                {
                    "name": "E4",
                    "midi": 64,
                    "time": 294.39248999999774,
                    "velocity": 0.1889763779527559,
                    "duration": 0.4005339999999933
                }
            ],
            "controlChanges": {},
            "id": 1,
            "name": "Piano right",
            "instrumentNumber": 0,
            "instrument": "acoustic grand piano",
            "instrumentFamily": "piano",
            "channelNumber": 0,
            "isPercussion": false
        },
        {
            "startTime": 0.801068,
            "duration": 294.7930239999974,
            "length": 1313,
            "notes": [
                {
                    "name": "E3",
                    "midi": 52,
                    "time": 0.801068,
                    "velocity": 0.49606299212598426,
                    "duration": 0.10013349999999999
                },
                {
                    "name": "E2",
                    "midi": 40,
                    "time": 0.801068,
                    "velocity": 0.41732283464566927,
                    "duration": 0.10013349999999999
                },
                {
                    "name": "E2",
                    "midi": 40,
                    "time": 1.201602,
                    "velocity": 0.48031496062992124,
                    "duration": 0.8010680000000001
                },
                {
                    "name": "E3",
                    "midi": 52,
                    "time": 1.201602,
                    "velocity": 0.5669291338582677,
                    "duration": 0.8010680000000001
                },
                {
                    "name": "E3",
                    "midi": 52,
                    "time": 2.00267,
                    "velocity": 0.49606299212598426,
                    "duration": 0.1001335000000001
                },
                {
                    "name": "E2",
                    "midi": 40,
                    "time": 2.00267,
                    "velocity": 0.41732283464566927,
                    "duration": 0.1001335000000001
                },
                {
                    "name": "D2",
                    "midi": 38,
                    "time": 2.403204,
                    "velocity": 0.48031496062992124,
                    "duration": 0.2002670000000002
                },
                {
                    "name": "D3",
                    "midi": 50,
                    "time": 2.403204,
                    "velocity": 0.5669291338582677,
                    "duration": 0.2002670000000002
                },
                {
                    "name": "D4",
                    "midi": 62,
                    "time": 3.2042720000000005,
                    "velocity": 0.2283464566929134,
                    "duration": 0.40053399999999995
                },
                {
                    "name": "C4",
                    "midi": 60,
                    "time": 3.6048060000000004,
                    "velocity": 0.23622047244094488,
                    "duration": 0.6008010000000001
                },
                {
                    "name": "D4",
                    "midi": 62,
                    "time": 3.6048060000000004,
                    "velocity": 0.28346456692913385,
                    "duration": 0.6008010000000001
                },
                {
                    "name": "D4",
                    "midi": 62,
                    "time": 4.2056070000000005,
                    "velocity": 0.2440944881889764,
                    "duration": 0.2002670000000002
                },
                {
                    "name": "B3",
                    "midi": 59,
                    "time": 4.2056070000000005,
                    "velocity": 0.2047244094488189,
                    "duration": 0.2002670000000002
                },
                {
                    "name": "A3",
                    "midi": 57,
                    "time": 4.405874000000001,
                    "velocity": 0.1889763779527559,
                    "duration": 0.3004005000000003
                },
                {
                    "name": "C4",
                    "midi": 60,
                    "time": 4.405874000000001,
                    "velocity": 0.2204724409448819,
                    "duration": 0.3004005000000003
                },
                {
                    "name": "G3",
                    "midi": 55,
                    "time": 4.806408000000001,
                    "velocity": 0.23622047244094488,
                    "duration": 0.3004005000000003
                },
                {
                    "name": "B3",
                    "midi": 59,
                    "time": 4.806408000000001,
                    "velocity": 0.28346456692913385,
                    "duration": 0.3004005000000003
                },
                {
                    "name": "G3",
                    "midi": 55,
                    "time": 5.607476000000002,
                    "velocity": 0.49606299212598426,
                    "duration": 0.1001335000000001
                },
                {
                    "name": "G2",
                    "midi": 43,
                    "time": 5.607476000000002,
                    "velocity": 0.41732283464566927,
                    "duration": 0.1001335000000001
                },
                {
                    "name": "G2",
                    "midi": 43,
                    "time": 6.008010000000002,
                    "velocity": 0.48031496062992124,
                    "duration": 0.8010679999999999
                },
                {
                    "name": "G3",
                    "midi": 55,
                    "time": 6.008010000000002,
                    "velocity": 0.5669291338582677,
                    "duration": 0.8010679999999999
                },
                {
                    "name": "G2",
                    "midi": 43,
                    "time": 6.809078000000002,
                    "velocity": 0.49606299212598426,
                    "duration": 0.1001335000000001
                },
                {
                    "name": "G1",
                    "midi": 31,
                    "time": 6.809078000000002,
                    "velocity": 0.41732283464566927,
                    "duration": 0.1001335000000001
                },
                {
                    "name": "F#1",
                    "midi": 30,
                    "time": 7.209612000000003,
                    "velocity": 0.48031496062992124,
                    "duration": 0.2002670000000002
                },
                {
                    "name": "F#2",
                    "midi": 42,
                    "time": 7.209612000000003,
                    "velocity": 0.5669291338582677,
                    "duration": 0.2002670000000002
                },
                {
                    "name": "F#4",
                    "midi": 66,
                    "time": 8.010680000000002,
                    "velocity": 0.2283464566929134,
                    "duration": 0.4005340000000004
                },
                {
                    "name": "E4",
                    "midi": 64,
                    "time": 8.411214000000003,
                    "velocity": 0.23622047244094488,
                    "duration": 0.6008010000000006
                },
                {
                    "name": "F#4",
                    "midi": 66,
                    "time": 8.411214000000003,
                    "velocity": 0.28346456692913385,
                    "duration": 0.6008010000000006
                },
                {
                    "name": "F#4",
                    "midi": 66,
                    "time": 9.012015000000003,
                    "velocity": 0.2440944881889764,
                    "duration": 0.2002670000000002
                },
                {
                    "name": "D4",
                    "midi": 62,
                    "time": 9.012015000000003,
                    "velocity": 0.2047244094488189,
                    "duration": 0.2002670000000002
                },
                {
                    "name": "C#4",
                    "midi": 61,
                    "time": 9.212282000000004,
                    "velocity": 0.1889763779527559,
                    "duration": 0.3004005000000003
                },
                {
                    "name": "E4",
                    "midi": 64,
                    "time": 9.212282000000004,
                    "velocity": 0.2204724409448819,
                    "duration": 0.3004005000000003
                },
                {
                    "name": "B3",
                    "midi": 59,
                    "time": 9.612816000000004,
                    "velocity": 0.23622047244094488,
                    "duration": 0.3004005000000003
                },
                {
                    "name": "D4",
                    "midi": 62,
                    "time": 9.612816000000004,
                    "velocity": 0.28346456692913385,
                    "duration": 0.3004005000000003
                },
                {
                    "name": "D4",
                    "midi": 62,
                    "time": 10.814418000000003,
                    "velocity": 0.2992125984251969,
                    "duration": 0.8010680000000008
                },
                {
                    "name": "B3",
                    "midi": 59,
                    "time": 10.814418000000003,
                    "velocity": 0.2992125984251969,
                    "duration": 1.2016020000000012
                },
                {
                    "name": "G4",
                    "midi": 67,
                    "time": 10.814418000000003,
                    "velocity": 0.3543307086614173,
                    "duration": 2.002670000000002
                },
                {
                    "name": "E4",
                    "midi": 64,
                    "time": 11.615486000000004,
                    "velocity": 0.3937007874015748,
                    "duration": 1.2016020000000012
                },
                {
                    "name": "A3",
                    "midi": 57,
                    "time": 12.016020000000005,
                    "velocity": 0.30708661417322836,
                    "duration": 0.8010680000000008
                },
                {
                    "name": "F#4",
                    "midi": 66,
                    "time": 12.817088000000005,
                    "velocity": 0.2992125984251969,
                    "duration": 1.2016020000000012
                },
                {
                    "name": "D#4",
                    "midi": 63,
                    "time": 12.817088000000005,
                    "velocity": 0.25196850393700787,
                    "duration": 0.4005340000000004
                },
                {
                    "name": "D4",
                    "midi": 62,
                    "time": 13.217622000000006,
                    "velocity": 0.2677165354330709,
                    "duration": 0.8010680000000008
                },
                {
                    "name": "F#4",
                    "midi": 66,
                    "time": 14.018690000000007,
                    "velocity": 0.36220472440944884,
                    "duration": 0.4005340000000004
                },
                {
                    "name": "G4",
                    "midi": 67,
                    "time": 14.419224000000007,
                    "velocity": 0.36220472440944884,
                    "duration": 0.8010680000000008
                },
                {
                    "name": "G3",
                    "midi": 55,
                    "time": 15.220292000000008,
                    "velocity": 0.3543307086614173,
                    "duration": 0.4005340000000004
                },
                {
                    "name": "E3",
                    "midi": 52,
                    "time": 15.620826000000008,
                    "velocity": 0.3858267716535433,
                    "duration": 0.8010680000000008
                },
                {
                    "name": "E4",
                    "midi": 64,
                    "time": 16.42189400000001,
                    "velocity": 0.3228346456692913,
                    "duration": 0.4005340000000004
                },
                {
                    "name": "C4",
                    "midi": 60,
                    "time": 16.82242800000001,
                    "velocity": 0.31496062992125984,
                    "duration": 0.8010680000000008
                },
                {
                    "name": "C3",
                    "midi": 48,
                    "time": 17.62349600000001,
                    "velocity": 0.2204724409448819,
                    "duration": 1.6021360000000016
                },
                {
                    "name": "C2",
                    "midi": 36,
                    "time": 18.02403000000001,
                    "velocity": 0.2204724409448819,
                    "duration": 1.2016020000000012
                },
                {
                    "name": "B2",
                    "midi": 47,
                    "time": 19.22563200000001,
                    "velocity": 0.2204724409448819,
                    "duration": 0.7209612000000014
                },
                {
                    "name": "B1",
                    "midi": 35,
                    "time": 19.22563200000001,
                    "velocity": 0.1889763779527559,
                    "duration": 0.7209612000000014
                },
                {
                    "name": "B3",
                    "midi": 59,
                    "time": 20.427234000000013,
                    "velocity": 0.2677165354330709,
                    "duration": 1.2016020000000012
                },
                {
                    "name": "G2",
                    "midi": 43,
                    "time": 20.427234000000013,
                    "velocity": 0.2204724409448819,
                    "duration": 1.2016020000000012
                },
                {
                    "name": "E3",
                    "midi": 52,
                    "time": 20.427234000000013,
                    "velocity": 0.2204724409448819,
                    "duration": 2.4032040000000023
                },
                {
                    "name": "A2",
                    "midi": 45,
                    "time": 21.628836000000014,
                    "velocity": 0.30708661417322836,
                    "duration": 0.8010680000000008
                },
                {
                    "name": "A#2",
                    "midi": 46,
                    "time": 22.429904000000015,
                    "velocity": 0.33858267716535434,
                    "duration": 0.4005340000000004
                },
                {
                    "name": "B2",
                    "midi": 47,
                    "time": 22.830438000000015,
                    "velocity": 0.3858267716535433,
                    "duration": 1.2016020000000012
                },
                {
                    "name": "G3",
                    "midi": 55,
                    "time": 24.032040000000016,
                    "velocity": 0.2283464566929134,
                    "duration": 0.8010680000000008
                },
                {
                    "name": "C3",
                    "midi": 48,
                    "time": 24.032040000000016,
                    "velocity": 0.1889763779527559,
                    "duration": 0.8010680000000008
                },
                {
                    "name": "B2",
                    "midi": 47,
                    "time": 24.833108000000017,
                    "velocity": 0.25196850393700787,
                    "duration": 0.2002670000000002
                },
                {
                    "name": "A2",
                    "midi": 45,
                    "time": 25.033375000000017,
                    "velocity": 0.2755905511811024,
                    "duration": 0.2002670000000002
                },
                {
                    "name": "E3",
                    "midi": 52,
                    "time": 25.233642000000017,
                    "velocity": 0.30708661417322836,
                    "duration": 2.4032040000000023
                },
                {
                    "name": "G2",
                    "midi": 43,
                    "time": 25.233642000000017,
                    "velocity": 0.30708661417322836,
                    "duration": 0.8010680000000008
                },
                {
                    "name": "B3",
                    "midi": 59,
                    "time": 25.233642000000017,
                    "velocity": 0.30708661417322836,
                    "duration": 1.2016020000000012
                },
                {
                    "name": "G#2",
                    "midi": 44,
                    "time": 26.03471000000002,
                    "velocity": 0.29133858267716534,
                    "duration": 0.4005340000000004
                },
                {
                    "name": "A2",
                    "midi": 45,
                    "time": 26.43524400000002,
                    "velocity": 0.30708661417322836,
                    "duration": 0.8010680000000008
                },
                {
                    "name": "A#2",
                    "midi": 46,
                    "time": 27.23631200000002,
                    "velocity": 0.2677165354330709,
                    "duration": 0.4005340000000004
                },
                {
                    "name": "B1",
                    "midi": 35,
                    "time": 27.63684600000002,
                    "velocity": 0.2283464566929134,
                    "duration": 1.2016020000000012
                },
                {
                    "name": "B2",
                    "midi": 47,
                    "time": 27.63684600000002,
                    "velocity": 0.2992125984251969,
                    "duration": 1.2016020000000012
                },
                {
                    "name": "E3",
                    "midi": 52,
                    "time": 28.83844800000002,
                    "velocity": 0.1732283464566929,
                    "duration": 0.4005340000000004
                },
                {
                    "name": "E2",
                    "midi": 40,
                    "time": 28.83844800000002,
                    "velocity": 0.14173228346456693,
                    "duration": 0.4005340000000004
                },
                {
                    "name": "B1",
                    "midi": 35,
                    "time": 29.63951600000002,
                    "velocity": 0.1968503937007874,
                    "duration": 0.10013349999999832
                },
                {
                    "name": "B2",
                    "midi": 47,
                    "time": 29.63951600000002,
                    "velocity": 0.23622047244094488,
                    "duration": 0.10013349999999832
                },
                {
                    "name": "B1",
                    "midi": 35,
                    "time": 30.04005000000002,
                    "velocity": 0.2204724409448819,
                    "duration": 0.8010680000000008
                },
                {
                    "name": "B2",
                    "midi": 47,
                    "time": 30.04005000000002,
                    "velocity": 0.2677165354330709,
                    "duration": 0.8010680000000008
                },
                {
                    "name": "E2",
                    "midi": 40,
                    "time": 30.84111800000002,
                    "velocity": 0.1968503937007874,
                    "duration": 0.10013349999999832
                },
                {
                    "name": "E3",
                    "midi": 52,
                    "time": 30.84111800000002,
                    "velocity": 0.23622047244094488,
                    "duration": 0.10013349999999832
                },
                {
                    "name": "E2",
                    "midi": 40,
                    "time": 31.241652000000016,
                    "velocity": 0.2204724409448819,
                    "duration": 0.8010680000000008
                },
                {
                    "name": "E3",
                    "midi": 52,
                    "time": 31.241652000000016,
                    "velocity": 0.2677165354330709,
                    "duration": 0.8010680000000008
                },
                {
                    "name": "B2",
                    "midi": 47,
                    "time": 32.04272000000002,
                    "velocity": 0.1968503937007874,
                    "duration": 0.10013349999999832
                },
                {
                    "name": "B3",
                    "midi": 59,
                    "time": 32.04272000000002,
                    "velocity": 0.23622047244094488,
                    "duration": 0.10013349999999832
                },
                {
                    "name": "B2",
                    "midi": 47,
                    "time": 32.44325400000002,
                    "velocity": 0.2204724409448819,
                    "duration": 0.8010680000000008
                },
                {
                    "name": "B3",
                    "midi": 59,
                    "time": 32.44325400000002,
                    "velocity": 0.2677165354330709,
                    "duration": 0.8010680000000008
                },
                {
                    "name": "E3",
                    "midi": 52,
                    "time": 33.24432200000002,
                    "velocity": 0.1968503937007874,
                    "duration": 0.10013349999999832
                },
                {
                    "name": "E4",
                    "midi": 64,
                    "time": 33.24432200000002,
                    "velocity": 0.23622047244094488,
                    "duration": 0.10013349999999832
                },
                {
                    "name": "E3",
                    "midi": 52,
                    "time": 33.64485600000002,
                    "velocity": 0.2204724409448819,
                    "duration": 0.8010680000000008
                },
                {
                    "name": "E4",
                    "midi": 64,
                    "time": 33.64485600000002,
                    "velocity": 0.2677165354330709,
                    "duration": 0.8010680000000008
                },
                {
                    "name": "G3",
                    "midi": 55,
                    "time": 34.44592400000002,
                    "velocity": 0.4251968503937008,
                    "duration": 0.10013349999999832
                },
                {
                    "name": "B3",
                    "midi": 59,
                    "time": 34.44592400000002,
                    "velocity": 0.4251968503937008,
                    "duration": 0.10013349999999832
                },
                {
                    "name": "D4",
                    "midi": 62,
                    "time": 34.44592400000002,
                    "velocity": 0.4251968503937008,
                    "duration": 0.10013349999999832
                },
                {
                    "name": "F4",
                    "midi": 65,
                    "time": 34.44592400000002,
                    "velocity": 0.5118110236220472,
                    "duration": 0.10013349999999832
                },
                {
                    "name": "G3",
                    "midi": 55,
                    "time": 34.84645800000002,
                    "velocity": 0.4645669291338583,
                    "duration": 0.600800999999997
                },
                {
                    "name": "B3",
                    "midi": 59,
                    "time": 34.84645800000002,
                    "velocity": 0.4645669291338583,
                    "duration": 0.600800999999997
                },
                {
                    "name": "D4",
                    "midi": 62,
                    "time": 34.84645800000002,
                    "velocity": 0.4645669291338583,
                    "duration": 0.600800999999997
                },
                {
                    "name": "F4",
                    "midi": 65,
                    "time": 34.84645800000002,
                    "velocity": 0.5590551181102362,
                    "duration": 0.600800999999997
                },
                {
                    "name": "B2",
                    "midi": 47,
                    "time": 38.050730000000016,
                    "velocity": 0.2283464566929134,
                    "duration": 0.10013349999999832
                },
                {
                    "name": "B1",
                    "midi": 35,
                    "time": 38.050730000000016,
                    "velocity": 0.1889763779527559,
                    "duration": 0.10013349999999832
                },
                {
                    "name": "C2",
                    "midi": 36,
                    "time": 38.451264000000016,
                    "velocity": 0.2283464566929134,
                    "duration": 0.20026699999999664
                },
                {
                    "name": "C3",
                    "midi": 48,
                    "time": 38.451264000000016,
                    "velocity": 0.2755905511811024,
                    "duration": 0.20026699999999664
                },
                {
                    "name": "E3",
                    "midi": 52,
                    "time": 39.25233200000001,
                    "velocity": 0.4645669291338583,
                    "duration": 0.10013349999999832
                },
                {
                    "name": "G#3",
                    "midi": 56,
                    "time": 39.25233200000001,
                    "velocity": 0.4645669291338583,
                    "duration": 0.10013349999999832
                },
                {
                    "name": "B3",
                    "midi": 59,
                    "time": 39.25233200000001,
                    "velocity": 0.4645669291338583,
                    "duration": 0.10013349999999832
                },
                {
                    "name": "D4",
                    "midi": 62,
                    "time": 39.25233200000001,
                    "velocity": 0.5590551181102362,
                    "duration": 0.10013349999999832
                },
                {
                    "name": "E3",
                    "midi": 52,
                    "time": 39.65286600000001,
                    "velocity": 0.5118110236220472,
                    "duration": 0.600800999999997
                },
                {
                    "name": "G#3",
                    "midi": 56,
                    "time": 39.65286600000001,
                    "velocity": 0.5118110236220472,
                    "duration": 0.600800999999997
                },
                {
                    "name": "B3",
                    "midi": 59,
                    "time": 39.65286600000001,
                    "velocity": 0.5118110236220472,
                    "duration": 0.600800999999997
                },
                {
                    "name": "D4",
                    "midi": 62,
                    "time": 39.65286600000001,
                    "velocity": 0.6062992125984252,
                    "duration": 0.600800999999997
                },
                {
                    "name": "G#2",
                    "midi": 44,
                    "time": 42.857138000000006,
                    "velocity": 0.2283464566929134,
                    "duration": 0.10013349999999832
                },
                {
                    "name": "G#1",
                    "midi": 32,
                    "time": 42.857138000000006,
                    "velocity": 0.1889763779527559,
                    "duration": 0.10013349999999832
                },
                {
                    "name": "A1",
                    "midi": 33,
                    "time": 43.25767200000001,
                    "velocity": 0.2283464566929134,
                    "duration": 0.20026699999999664
                },
                {
                    "name": "A2",
                    "midi": 45,
                    "time": 43.25767200000001,
                    "velocity": 0.2755905511811024,
                    "duration": 0.20026699999999664
                },
                {
                    "name": "A#3",
                    "midi": 58,
                    "time": 44.05874,
                    "velocity": 0.3937007874015748,
                    "duration": 0.3755006250000008
                },
                {
                    "name": "A#3",
                    "midi": 58,
                    "time": 44.459274,
                    "velocity": 0.3937007874015748,
                    "duration": 1.6021360000000016
                },
                {
                    "name": "E4",
                    "midi": 64,
                    "time": 47.663546000000004,
                    "velocity": 0.41732283464566927,
                    "duration": 0.3604806000000025
                },
                {
                    "name": "E4",
                    "midi": 64,
                    "time": 48.064080000000004,
                    "velocity": 0.4881889763779528,
                    "duration": 0.8010680000000008
                },
                {
                    "name": "A#3",
                    "midi": 58,
                    "time": 48.865148000000005,
                    "velocity": 0.3543307086614173,
                    "duration": 0.3604806000000025
                },
                {
                    "name": "E4",
                    "midi": 64,
                    "time": 48.865148000000005,
                    "velocity": 0.41732283464566927,
                    "duration": 0.3604806000000025
                },
                {
                    "name": "E4",
                    "midi": 64,
                    "time": 49.265682000000005,
                    "velocity": 0.4645669291338583,
                    "duration": 0.8010680000000008
                },
                {
                    "name": "A#3",
                    "midi": 58,
                    "time": 49.265682000000005,
                    "velocity": 0.3937007874015748,
                    "duration": 0.8010680000000008
                },
                {
                    "name": "A#3",
                    "midi": 58,
                    "time": 50.066750000000006,
                    "velocity": 0.3543307086614173,
                    "duration": 0.3604806000000025
                },
                {
                    "name": "E4",
                    "midi": 64,
                    "time": 50.066750000000006,
                    "velocity": 0.41732283464566927,
                    "duration": 0.3604806000000025
                },
                {
                    "name": "E4",
                    "midi": 64,
                    "time": 50.46728400000001,
                    "velocity": 0.5039370078740157,
                    "duration": 0.8010680000000008
                },
                {
                    "name": "A#3",
                    "midi": 58,
                    "time": 50.46728400000001,
                    "velocity": 0.4251968503937008,
                    "duration": 0.8010680000000008
                },
                {
                    "name": "A#3",
                    "midi": 58,
                    "time": 51.26835200000001,
                    "velocity": 0.3858267716535433,
                    "duration": 0.3604806000000025
                },
                {
                    "name": "C#4",
                    "midi": 61,
                    "time": 51.26835200000001,
                    "velocity": 0.3858267716535433,
                    "duration": 0.3604806000000025
                },
                {
                    "name": "E4",
                    "midi": 64,
                    "time": 51.26835200000001,
                    "velocity": 0.3858267716535433,
                    "duration": 0.3604806000000025
                },
                {
                    "name": "G4",
                    "midi": 67,
                    "time": 51.26835200000001,
                    "velocity": 0.4645669291338583,
                    "duration": 0.3604806000000025
                },
                {
                    "name": "A#3",
                    "midi": 58,
                    "time": 51.66888600000001,
                    "velocity": 0.4566929133858268,
                    "duration": 2.002670000000002
                },
                {
                    "name": "C#4",
                    "midi": 61,
                    "time": 51.66888600000001,
                    "velocity": 0.4566929133858268,
                    "duration": 2.002670000000002
                },
                {
                    "name": "E4",
                    "midi": 64,
                    "time": 51.66888600000001,
                    "velocity": 0.4566929133858268,
                    "duration": 2.002670000000002
                },
                {
                    "name": "G4",
                    "midi": 67,
                    "time": 51.66888600000001,
                    "velocity": 0.5433070866141733,
                    "duration": 0.8010680000000008
                },
                {
                    "name": "F#4",
                    "midi": 66,
                    "time": 52.46995400000001,
                    "velocity": 0.49606299212598426,
                    "duration": 0.4005340000000004
                },
                {
                    "name": "F4",
                    "midi": 65,
                    "time": 52.87048800000001,
                    "velocity": 0.6062992125984252,
                    "duration": 0.8010680000000008
                },
                {
                    "name": "F#4",
                    "midi": 66,
                    "time": 53.67155600000001,
                    "velocity": 0.5905511811023622,
                    "duration": 0.3604806000000025
                },
                {
                    "name": "E4",
                    "midi": 64,
                    "time": 53.67155600000001,
                    "velocity": 0.49606299212598426,
                    "duration": 0.3604806000000025
                },
                {
                    "name": "C#4",
                    "midi": 61,
                    "time": 53.67155600000001,
                    "velocity": 0.49606299212598426,
                    "duration": 0.3604806000000025
                },
                {
                    "name": "A#3",
                    "midi": 58,
                    "time": 53.67155600000001,
                    "velocity": 0.49606299212598426,
                    "duration": 0.3604806000000025
                },
                {
                    "name": "F#4",
                    "midi": 66,
                    "time": 54.07209000000001,
                    "velocity": 0.3779527559055118,
                    "duration": 0.10013349999999832
                },
                {
                    "name": "D4",
                    "midi": 62,
                    "time": 54.07209000000001,
                    "velocity": 0.31496062992125984,
                    "duration": 0.10013349999999832
                },
                {
                    "name": "B3",
                    "midi": 59,
                    "time": 54.07209000000001,
                    "velocity": 0.31496062992125984,
                    "duration": 0.10013349999999832
                },
                {
                    "name": "B3",
                    "midi": 59,
                    "time": 54.27235700000001,
                    "velocity": 0.25984251968503935,
                    "duration": 0.10013349999999832
                },
                {
                    "name": "D4",
                    "midi": 62,
                    "time": 54.27235700000001,
                    "velocity": 0.25984251968503935,
                    "duration": 0.10013349999999832
                },
                {
                    "name": "F#4",
                    "midi": 66,
                    "time": 54.27235700000001,
                    "velocity": 0.31496062992125984,
                    "duration": 0.10013349999999832
                },
                {
                    "name": "B3",
                    "midi": 59,
                    "time": 54.472624,
                    "velocity": 0.25984251968503935,
                    "duration": 0.10013349999999832
                },
                {
                    "name": "D4",
                    "midi": 62,
                    "time": 54.472624,
                    "velocity": 0.25984251968503935,
                    "duration": 0.10013349999999832
                },
                {
                    "name": "F#4",
                    "midi": 66,
                    "time": 54.472624,
                    "velocity": 0.31496062992125984,
                    "duration": 0.10013349999999832
                },
                {
                    "name": "B3",
                    "midi": 59,
                    "time": 54.672891,
                    "velocity": 0.25984251968503935,
                    "duration": 0.10013349999999832
                },
                {
                    "name": "D4",
                    "midi": 62,
                    "time": 54.672891,
                    "velocity": 0.25984251968503935,
                    "duration": 0.10013349999999832
                },
                {
                    "name": "F#4",
                    "midi": 66,
                    "time": 54.672891,
                    "velocity": 0.31496062992125984,
                    "duration": 0.10013349999999832
                },
                {
                    "name": "B3",
                    "midi": 59,
                    "time": 54.873158,
                    "velocity": 0.25984251968503935,
                    "duration": 0.10013349999999832
                },
                {
                    "name": "D4",
                    "midi": 62,
                    "time": 54.873158,
                    "velocity": 0.25984251968503935,
                    "duration": 0.10013349999999832
                },
                {
                    "name": "F#4",
                    "midi": 66,
                    "time": 54.873158,
                    "velocity": 0.31496062992125984,
                    "duration": 0.10013349999999832
                },
                {
                    "name": "B3",
                    "midi": 59,
                    "time": 55.07342499999999,
                    "velocity": 0.25984251968503935,
                    "duration": 0.10013349999999832
                },
                {
                    "name": "D4",
                    "midi": 62,
                    "time": 55.07342499999999,
                    "velocity": 0.25984251968503935,
                    "duration": 0.10013349999999832
                },
                {
                    "name": "F#4",
                    "midi": 66,
                    "time": 55.07342499999999,
                    "velocity": 0.31496062992125984,
                    "duration": 0.10013349999999832
                },
                {
                    "name": "B3",
                    "midi": 59,
                    "time": 55.27369199999999,
                    "velocity": 0.3779527559055118,
                    "duration": 0.10013349999999832
                },
                {
                    "name": "F#3",
                    "midi": 54,
                    "time": 55.27369199999999,
                    "velocity": 0.31496062992125984,
                    "duration": 0.10013349999999832
                },
                {
                    "name": "D3",
                    "midi": 50,
                    "time": 55.27369199999999,
                    "velocity": 0.31496062992125984,
                    "duration": 0.10013349999999832
                },
                {
                    "name": "D3",
                    "midi": 50,
                    "time": 55.47395899999999,
                    "velocity": 0.2677165354330709,
                    "duration": 0.10013349999999832
                },
                {
                    "name": "F#3",
                    "midi": 54,
                    "time": 55.47395899999999,
                    "velocity": 0.2677165354330709,
                    "duration": 0.10013349999999832
                },
                {
                    "name": "B3",
                    "midi": 59,
                    "time": 55.47395899999999,
                    "velocity": 0.3228346456692913,
                    "duration": 0.10013349999999832
                },
                {
                    "name": "D3",
                    "midi": 50,
                    "time": 55.67422599999998,
                    "velocity": 0.2677165354330709,
                    "duration": 0.10013349999999832
                },
                {
                    "name": "F#3",
                    "midi": 54,
                    "time": 55.67422599999998,
                    "velocity": 0.2677165354330709,
                    "duration": 0.10013349999999832
                },
                {
                    "name": "B3",
                    "midi": 59,
                    "time": 55.67422599999998,
                    "velocity": 0.3228346456692913,
                    "duration": 0.10013349999999832
                },
                {
                    "name": "D3",
                    "midi": 50,
                    "time": 55.87449299999998,
                    "velocity": 0.2677165354330709,
                    "duration": 0.10013349999999832
                },
                {
                    "name": "F#3",
                    "midi": 54,
                    "time": 55.87449299999998,
                    "velocity": 0.2677165354330709,
                    "duration": 0.10013349999999832
                },
                {
                    "name": "B3",
                    "midi": 59,
                    "time": 55.87449299999998,
                    "velocity": 0.3228346456692913,
                    "duration": 0.10013349999999832
                },
                {
                    "name": "D3",
                    "midi": 50,
                    "time": 56.074759999999976,
                    "velocity": 0.2677165354330709,
                    "duration": 0.10013349999999832
                },
                {
                    "name": "F#3",
                    "midi": 54,
                    "time": 56.074759999999976,
                    "velocity": 0.2677165354330709,
                    "duration": 0.10013349999999832
                },
                {
                    "name": "B3",
                    "midi": 59,
                    "time": 56.074759999999976,
                    "velocity": 0.3228346456692913,
                    "duration": 0.10013349999999832
                },
                {
                    "name": "D3",
                    "midi": 50,
                    "time": 56.27502699999997,
                    "velocity": 0.2677165354330709,
                    "duration": 0.10013349999999832
                },
                {
                    "name": "F#3",
                    "midi": 54,
                    "time": 56.27502699999997,
                    "velocity": 0.2677165354330709,
                    "duration": 0.10013349999999832
                },
                {
                    "name": "B3",
                    "midi": 59,
                    "time": 56.27502699999997,
                    "velocity": 0.3228346456692913,
                    "duration": 0.10013349999999832
                },
                {
                    "name": "A3",
                    "midi": 57,
                    "time": 56.47529399999997,
                    "velocity": 0.3464566929133858,
                    "duration": 0.10013349999999832
                },
                {
                    "name": "F#3",
                    "midi": 54,
                    "time": 56.47529399999997,
                    "velocity": 0.29133858267716534,
                    "duration": 0.10013349999999832
                },
                {
                    "name": "D#3",
                    "midi": 51,
                    "time": 56.47529399999997,
                    "velocity": 0.29133858267716534,
                    "duration": 0.10013349999999832
                },
                {
                    "name": "D#3",
                    "midi": 51,
                    "time": 56.675560999999966,
                    "velocity": 0.2204724409448819,
                    "duration": 0.10013349999999832
                },
                {
                    "name": "F#3",
                    "midi": 54,
                    "time": 56.675560999999966,
                    "velocity": 0.2204724409448819,
                    "duration": 0.10013349999999832
                },
                {
                    "name": "A3",
                    "midi": 57,
                    "time": 56.675560999999966,
                    "velocity": 0.2677165354330709,
                    "duration": 0.10013349999999832
                },
                {
                    "name": "G3",
                    "midi": 55,
                    "time": 56.87582799999996,
                    "velocity": 0.3464566929133858,
                    "duration": 0.10013349999999832
                },
                {
                    "name": "E3",
                    "midi": 52,
                    "time": 56.87582799999996,
                    "velocity": 0.29133858267716534,
                    "duration": 0.10013349999999832
                },
                {
                    "name": "G3",
                    "midi": 55,
                    "time": 57.07609499999996,
                    "velocity": 0.29133858267716534,
                    "duration": 0.10013349999999832
                },
                {
                    "name": "E3",
                    "midi": 52,
                    "time": 57.07609499999996,
                    "velocity": 0.23622047244094488,
                    "duration": 0.10013349999999832
                },
                {
                    "name": "G3",
                    "midi": 55,
                    "time": 57.276361999999956,
                    "velocity": 0.29133858267716534,
                    "duration": 0.10013349999999832
                },
                {
                    "name": "E3",
                    "midi": 52,
                    "time": 57.276361999999956,
                    "velocity": 0.23622047244094488,
                    "duration": 0.10013349999999832
                },
                {
                    "name": "G3",
                    "midi": 55,
                    "time": 57.47662899999995,
                    "velocity": 0.29133858267716534,
                    "duration": 0.10013349999999832
                },
                {
                    "name": "E3",
                    "midi": 52,
                    "time": 57.47662899999995,
                    "velocity": 0.23622047244094488,
                    "duration": 0.10013349999999832
                },
                {
                    "name": "B3",
                    "midi": 59,
                    "time": 57.67689599999995,
                    "velocity": 0.3543307086614173,
                    "duration": 0.10013349999999832
                },
                {
                    "name": "G3",
                    "midi": 55,
                    "time": 57.67689599999995,
                    "velocity": 0.29133858267716534,
                    "duration": 0.10013349999999832
                },
                {
                    "name": "E3",
                    "midi": 52,
                    "time": 57.67689599999995,
                    "velocity": 0.29133858267716534,
                    "duration": 0.10013349999999832
                },
                {
                    "name": "B3",
                    "midi": 59,
                    "time": 57.877162999999946,
                    "velocity": 0.29133858267716534,
                    "duration": 0.10013349999999832
                },
                {
                    "name": "G3",
                    "midi": 55,
                    "time": 57.877162999999946,
                    "velocity": 0.23622047244094488,
                    "duration": 0.10013349999999832
                },
                {
                    "name": "E3",
                    "midi": 52,
                    "time": 57.877162999999946,
                    "velocity": 0.23622047244094488,
                    "duration": 0.10013349999999832
                },
                {
                    "name": "A3",
                    "midi": 57,
                    "time": 58.07742999999994,
                    "velocity": 0.3464566929133858,
                    "duration": 0.10013349999999832
                },
                {
                    "name": "F#3",
                    "midi": 54,
                    "time": 58.07742999999994,
                    "velocity": 0.29133858267716534,
                    "duration": 0.10013349999999832
                },
                {
                    "name": "F#3",
                    "midi": 54,
                    "time": 58.27769699999994,
                    "velocity": 0.2440944881889764,
                    "duration": 0.10013349999999832
                },
                {
                    "name": "A3",
                    "midi": 57,
                    "time": 58.27769699999994,
                    "velocity": 0.2992125984251969,
                    "duration": 0.10013349999999832
                },
                {
                    "name": "F#3",
                    "midi": 54,
                    "time": 58.477963999999936,
                    "velocity": 0.2440944881889764,
                    "duration": 0.10013349999999832
                },
                {
                    "name": "A3",
                    "midi": 57,
                    "time": 58.477963999999936,
                    "velocity": 0.2992125984251969,
                    "duration": 0.10013349999999832
                },
                {
                    "name": "F#3",
                    "midi": 54,
                    "time": 58.67823099999993,
                    "velocity": 0.2440944881889764,
                    "duration": 0.10013349999999832
                },
                {
                    "name": "A3",
                    "midi": 57,
                    "time": 58.67823099999993,
                    "velocity": 0.2992125984251969,
                    "duration": 0.10013349999999832
                },
                {
                    "name": "C4",
                    "midi": 60,
                    "time": 58.87849799999993,
                    "velocity": 0.3464566929133858,
                    "duration": 0.10013349999999832
                },
                {
                    "name": "A3",
                    "midi": 57,
                    "time": 58.87849799999993,
                    "velocity": 0.29133858267716534,
                    "duration": 0.10013349999999832
                },
                {
                    "name": "F#3",
                    "midi": 54,
                    "time": 58.87849799999993,
                    "velocity": 0.29133858267716534,
                    "duration": 0.10013349999999832
                },
                {
                    "name": "F#3",
                    "midi": 54,
                    "time": 59.078764999999926,
                    "velocity": 0.23622047244094488,
                    "duration": 0.10013349999999832
                },
                {
                    "name": "A3",
                    "midi": 57,
                    "time": 59.078764999999926,
                    "velocity": 0.23622047244094488,
                    "duration": 0.10013349999999832
                },
                {
                    "name": "C4",
                    "midi": 60,
                    "time": 59.078764999999926,
                    "velocity": 0.29133858267716534,
                    "duration": 0.10013349999999832
                },
                {
                    "name": "B3",
                    "midi": 59,
                    "time": 59.27903199999992,
                    "velocity": 0.3464566929133858,
                    "duration": 0.10013349999999832
                },
                {
                    "name": "G3",
                    "midi": 55,
                    "time": 59.27903199999992,
                    "velocity": 0.29133858267716534,
                    "duration": 0.10013349999999832
                },
                {
                    "name": "G3",
                    "midi": 55,
                    "time": 59.47929899999992,
                    "velocity": 0.25984251968503935,
                    "duration": 0.10013349999999832
                },
                {
                    "name": "B3",
                    "midi": 59,
                    "time": 59.47929899999992,
                    "velocity": 0.30708661417322836,
                    "duration": 0.10013349999999832
                },
                {
                    "name": "G3",
                    "midi": 55,
                    "time": 59.679565999999916,
                    "velocity": 0.25984251968503935,
                    "duration": 0.10013349999999832
                },
                {
                    "name": "B3",
                    "midi": 59,
                    "time": 59.679565999999916,
                    "velocity": 0.30708661417322836,
                    "duration": 0.10013349999999832
                },
                {
                    "name": "G3",
                    "midi": 55,
                    "time": 59.87983299999991,
                    "velocity": 0.25984251968503935,
                    "duration": 0.10013349999999832
                },
                {
                    "name": "B3",
                    "midi": 59,
                    "time": 59.87983299999991,
                    "velocity": 0.30708661417322836,
                    "duration": 0.10013349999999832
                },
                {
                    "name": "G#3",
                    "midi": 56,
                    "time": 60.08009999999991,
                    "velocity": 0.3228346456692913,
                    "duration": 0.10013349999999832
                },
                {
                    "name": "B3",
                    "midi": 59,
                    "time": 60.08009999999991,
                    "velocity": 0.3858267716535433,
                    "duration": 0.10013349999999832
                },
                {
                    "name": "G#3",
                    "midi": 56,
                    "time": 60.280366999999906,
                    "velocity": 0.29133858267716534,
                    "duration": 0.10013349999999832
                },
                {
                    "name": "B3",
                    "midi": 59,
                    "time": 60.280366999999906,
                    "velocity": 0.29133858267716534,
                    "duration": 0.10013349999999832
                },
                {
                    "name": "D4",
                    "midi": 62,
                    "time": 60.280366999999906,
                    "velocity": 0.3464566929133858,
                    "duration": 0.10013349999999832
                },
                {
                    "name": "G#3",
                    "midi": 56,
                    "time": 60.4806339999999,
                    "velocity": 0.30708661417322836,
                    "duration": 0.10013349999999832
                },
                {
                    "name": "B3",
                    "midi": 59,
                    "time": 60.4806339999999,
                    "velocity": 0.30708661417322836,
                    "duration": 0.10013349999999832
                },
                {
                    "name": "C#4",
                    "midi": 61,
                    "time": 60.4806339999999,
                    "velocity": 0.3700787401574803,
                    "duration": 0.10013349999999832
                },
                {
                    "name": "G#3",
                    "midi": 56,
                    "time": 60.6809009999999,
                    "velocity": 0.2755905511811024,
                    "duration": 0.10013349999999832
                },
                {
                    "name": "B3",
                    "midi": 59,
                    "time": 60.6809009999999,
                    "velocity": 0.2755905511811024,
                    "duration": 0.10013349999999832
                },
                {
                    "name": "C#4",
                    "midi": 61,
                    "time": 60.6809009999999,
                    "velocity": 0.3228346456692913,
                    "duration": 0.10013349999999832
                },
                {
                    "name": "G#3",
                    "midi": 56,
                    "time": 60.881167999999896,
                    "velocity": 0.28346456692913385,
                    "duration": 0.10013349999999832
                },
                {
                    "name": "B3",
                    "midi": 59,
                    "time": 60.881167999999896,
                    "velocity": 0.28346456692913385,
                    "duration": 0.10013349999999832
                },
                {
                    "name": "C#4",
                    "midi": 61,
                    "time": 60.881167999999896,
                    "velocity": 0.33070866141732286,
                    "duration": 0.10013349999999832
                },
                {
                    "name": "G#3",
                    "midi": 56,
                    "time": 61.08143499999989,
                    "velocity": 0.28346456692913385,
                    "duration": 0.10013349999999832
                },
                {
                    "name": "B3",
                    "midi": 59,
                    "time": 61.08143499999989,
                    "velocity": 0.28346456692913385,
                    "duration": 0.10013349999999832
                },
                {
                    "name": "C#4",
                    "midi": 61,
                    "time": 61.08143499999989,
                    "velocity": 0.33070866141732286,
                    "duration": 0.10013349999999832
                },
                {
                    "name": "C#4",
                    "midi": 61,
                    "time": 61.28170199999989,
                    "velocity": 0.2677165354330709,
                    "duration": 0.10013349999999832
                },
                {
                    "name": "C#4",
                    "midi": 61,
                    "time": 61.481968999999886,
                    "velocity": 0.25196850393700787,
                    "duration": 0.10013349999999832
                },
                {
                    "name": "C#4",
                    "midi": 61,
                    "time": 61.68223599999988,
                    "velocity": 0.25196850393700787,
                    "duration": 0.10013349999999832
                },
                {
                    "name": "C#4",
                    "midi": 61,
                    "time": 61.88250299999988,
                    "velocity": 0.25196850393700787,
                    "duration": 0.10013349999999832
                },
                {
                    "name": "C#4",
                    "midi": 61,
                    "time": 62.082769999999876,
                    "velocity": 0.25196850393700787,
                    "duration": 0.10013349999999832
                },
                {
                    "name": "C#4",
                    "midi": 61,
                    "time": 62.28303699999987,
                    "velocity": 0.25196850393700787,
                    "duration": 0.10013349999999832
                },
                {
                    "name": "C#4",
                    "midi": 61,
                    "time": 62.48330399999987,
                    "velocity": 0.31496062992125984,
                    "duration": 0.10013349999999832
                },
                {
                    "name": "C#4",
                    "midi": 61,
                    "time": 62.683570999999866,
                    "velocity": 0.3543307086614173,
                    "duration": 0.10013349999999832
                },
                {
                    "name": "C#4",
                    "midi": 61,
                    "time": 62.88383799999986,
                    "velocity": 0.3858267716535433,
                    "duration": 0.10013349999999832
                },
                {
                    "name": "C#4",
                    "midi": 61,
                    "time": 63.08410499999986,
                    "velocity": 0.4094488188976378,
                    "duration": 0.10013349999999832
                },
                {
                    "name": "C#4",
                    "midi": 61,
                    "time": 63.284371999999856,
                    "velocity": 0.4409448818897638,
                    "duration": 0.10013349999999832
                },
                {
                    "name": "C#4",
                    "midi": 61,
                    "time": 63.48463899999985,
                    "velocity": 0.4566929133858268,
                    "duration": 0.10013349999999832
                },
                {
                    "name": "F#3",
                    "midi": 54,
                    "time": 63.68490599999985,
                    "velocity": 0.47244094488188976,
                    "duration": 0.10013349999999832
                },
                {
                    "name": "A#3",
                    "midi": 58,
                    "time": 63.68490599999985,
                    "velocity": 0.47244094488188976,
                    "duration": 0.10013349999999832
                },
                {
                    "name": "C#4",
                    "midi": 61,
                    "time": 63.68490599999985,
                    "velocity": 0.47244094488188976,
                    "duration": 0.10013349999999832
                },
                {
                    "name": "E4",
                    "midi": 64,
                    "time": 63.68490599999985,
                    "velocity": 0.5590551181102362,
                    "duration": 0.10013349999999832
                },
                {
                    "name": "E4",
                    "midi": 64,
                    "time": 63.885172999999845,
                    "velocity": 0.4645669291338583,
                    "duration": 0.10013349999999832
                },
                {
                    "name": "C#4",
                    "midi": 61,
                    "time": 63.885172999999845,
                    "velocity": 0.3858267716535433,
                    "duration": 0.10013349999999832
                },
                {
                    "name": "A#3",
                    "midi": 58,
                    "time": 63.885172999999845,
                    "velocity": 0.3858267716535433,
                    "duration": 0.10013349999999832
                },
                {
                    "name": "F#3",
                    "midi": 54,
                    "time": 63.885172999999845,
                    "velocity": 0.3858267716535433,
                    "duration": 0.10013349999999832
                },
                {
                    "name": "E4",
                    "midi": 64,
                    "time": 64.08543999999985,
                    "velocity": 0.4645669291338583,
                    "duration": 0.10013349999999832
                },
                {
                    "name": "C#4",
                    "midi": 61,
                    "time": 64.08543999999985,
                    "velocity": 0.3858267716535433,
                    "duration": 0.10013349999999832
                },
                {
                    "name": "A#3",
                    "midi": 58,
                    "time": 64.08543999999985,
                    "velocity": 0.3858267716535433,
                    "duration": 0.10013349999999832
                },
                {
                    "name": "F#3",
                    "midi": 54,
                    "time": 64.08543999999985,
                    "velocity": 0.3858267716535433,
                    "duration": 0.10013349999999832
                },
                {
                    "name": "E4",
                    "midi": 64,
                    "time": 64.28570699999985,
                    "velocity": 0.4645669291338583,
                    "duration": 0.10013349999999832
                },
                {
                    "name": "C#4",
                    "midi": 61,
                    "time": 64.28570699999985,
                    "velocity": 0.3858267716535433,
                    "duration": 0.10013349999999832
                },
                {
                    "name": "A#3",
                    "midi": 58,
                    "time": 64.28570699999985,
                    "velocity": 0.3858267716535433,
                    "duration": 0.10013349999999832
                },
                {
                    "name": "F#3",
                    "midi": 54,
                    "time": 64.28570699999985,
                    "velocity": 0.3858267716535433,
                    "duration": 0.10013349999999832
                },
                {
                    "name": "E4",
                    "midi": 64,
                    "time": 64.48597399999984,
                    "velocity": 0.4645669291338583,
                    "duration": 0.10013349999999832
                },
                {
                    "name": "C#4",
                    "midi": 61,
                    "time": 64.48597399999984,
                    "velocity": 0.3858267716535433,
                    "duration": 0.10013349999999832
                },
                {
                    "name": "A#3",
                    "midi": 58,
                    "time": 64.48597399999984,
                    "velocity": 0.3858267716535433,
                    "duration": 0.10013349999999832
                },
                {
                    "name": "F#3",
                    "midi": 54,
                    "time": 64.48597399999984,
                    "velocity": 0.3858267716535433,
                    "duration": 0.10013349999999832
                },
                {
                    "name": "E4",
                    "midi": 64,
                    "time": 64.68624099999984,
                    "velocity": 0.4645669291338583,
                    "duration": 0.10013349999999832
                },
                {
                    "name": "C#4",
                    "midi": 61,
                    "time": 64.68624099999984,
                    "velocity": 0.3858267716535433,
                    "duration": 0.10013349999999832
                },
                {
                    "name": "A#3",
                    "midi": 58,
                    "time": 64.68624099999984,
                    "velocity": 0.3858267716535433,
                    "duration": 0.10013349999999832
                },
                {
                    "name": "F#3",
                    "midi": 54,
                    "time": 64.68624099999984,
                    "velocity": 0.3858267716535433,
                    "duration": 0.10013349999999832
                },
                {
                    "name": "E4",
                    "midi": 64,
                    "time": 64.88650799999984,
                    "velocity": 0.5039370078740157,
                    "duration": 0.10013349999999832
                },
                {
                    "name": "C#4",
                    "midi": 61,
                    "time": 64.88650799999984,
                    "velocity": 0.41732283464566927,
                    "duration": 0.10013349999999832
                },
                {
                    "name": "A#3",
                    "midi": 58,
                    "time": 64.88650799999984,
                    "velocity": 0.41732283464566927,
                    "duration": 0.10013349999999832
                },
                {
                    "name": "F#3",
                    "midi": 54,
                    "time": 64.88650799999984,
                    "velocity": 0.41732283464566927,
                    "duration": 0.10013349999999832
                },
                {
                    "name": "F#3",
                    "midi": 54,
                    "time": 65.08677499999983,
                    "velocity": 0.4015748031496063,
                    "duration": 0.10013349999999832
                },
                {
                    "name": "A#3",
                    "midi": 58,
                    "time": 65.08677499999983,
                    "velocity": 0.4015748031496063,
                    "duration": 0.10013349999999832
                },
                {
                    "name": "C#4",
                    "midi": 61,
                    "time": 65.08677499999983,
                    "velocity": 0.4015748031496063,
                    "duration": 0.10013349999999832
                },
                {
                    "name": "E4",
                    "midi": 64,
                    "time": 65.08677499999983,
                    "velocity": 0.47244094488188976,
                    "duration": 0.10013349999999832
                },
                {
                    "name": "F#3",
                    "midi": 54,
                    "time": 65.28704199999983,
                    "velocity": 0.3700787401574803,
                    "duration": 0.10013349999999832
                },
                {
                    "name": "A#3",
                    "midi": 58,
                    "time": 65.28704199999983,
                    "velocity": 0.3700787401574803,
                    "duration": 0.10013349999999832
                },
                {
                    "name": "C#4",
                    "midi": 61,
                    "time": 65.28704199999983,
                    "velocity": 0.3700787401574803,
                    "duration": 0.10013349999999832
                },
                {
                    "name": "E4",
                    "midi": 64,
                    "time": 65.28704199999983,
                    "velocity": 0.44881889763779526,
                    "duration": 0.10013349999999832
                },
                {
                    "name": "F#3",
                    "midi": 54,
                    "time": 65.48730899999983,
                    "velocity": 0.3464566929133858,
                    "duration": 0.10013349999999832
                },
                {
                    "name": "A#3",
                    "midi": 58,
                    "time": 65.48730899999983,
                    "velocity": 0.3464566929133858,
                    "duration": 0.10013349999999832
                },
                {
                    "name": "C#4",
                    "midi": 61,
                    "time": 65.48730899999983,
                    "velocity": 0.3464566929133858,
                    "duration": 0.10013349999999832
                },
                {
                    "name": "E4",
                    "midi": 64,
                    "time": 65.48730899999983,
                    "velocity": 0.4094488188976378,
                    "duration": 0.10013349999999832
                },
                {
                    "name": "F#3",
                    "midi": 54,
                    "time": 65.68757599999982,
                    "velocity": 0.30708661417322836,
                    "duration": 0.10013349999999832
                },
                {
                    "name": "A#3",
                    "midi": 58,
                    "time": 65.68757599999982,
                    "velocity": 0.30708661417322836,
                    "duration": 0.10013349999999832
                },
                {
                    "name": "C#4",
                    "midi": 61,
                    "time": 65.68757599999982,
                    "velocity": 0.30708661417322836,
                    "duration": 0.10013349999999832
                },
                {
                    "name": "E4",
                    "midi": 64,
                    "time": 65.68757599999982,
                    "velocity": 0.3700787401574803,
                    "duration": 0.10013349999999832
                },
                {
                    "name": "F#3",
                    "midi": 54,
                    "time": 65.88784299999982,
                    "velocity": 0.30708661417322836,
                    "duration": 0.10013349999999832
                },
                {
                    "name": "A#3",
                    "midi": 58,
                    "time": 65.88784299999982,
                    "velocity": 0.30708661417322836,
                    "duration": 0.10013349999999832
                },
                {
                    "name": "C#4",
                    "midi": 61,
                    "time": 65.88784299999982,
                    "velocity": 0.30708661417322836,
                    "duration": 0.10013349999999832
                },
                {
                    "name": "E4",
                    "midi": 64,
                    "time": 65.88784299999982,
                    "velocity": 0.36220472440944884,
                    "duration": 0.10013349999999832
                },
                {
                    "name": "B2",
                    "midi": 47,
                    "time": 66.08810999999982,
                    "velocity": 0.31496062992125984,
                    "duration": 0.10013349999999832
                },
                {
                    "name": "D4",
                    "midi": 62,
                    "time": 66.18824349999981,
                    "velocity": 0.2677165354330709,
                    "duration": 0.10013349999999832
                },
                {
                    "name": "F#3",
                    "midi": 54,
                    "time": 66.28837699999981,
                    "velocity": 0.29133858267716534,
                    "duration": 0.10013349999999832
                },
                {
                    "name": "D4",
                    "midi": 62,
                    "time": 66.38851049999981,
                    "velocity": 0.2677165354330709,
                    "duration": 0.10013349999999832
                },
                {
                    "name": "C#3",
                    "midi": 49,
                    "time": 66.48864399999981,
                    "velocity": 0.31496062992125984,
                    "duration": 0.10013349999999832
                },
                {
                    "name": "E4",
                    "midi": 64,
                    "time": 66.58877749999981,
                    "velocity": 0.2677165354330709,
                    "duration": 0.10013349999999832
                },
                {
                    "name": "F#3",
                    "midi": 54,
                    "time": 66.6889109999998,
                    "velocity": 0.29133858267716534,
                    "duration": 0.10013349999999832
                },
                {
                    "name": "E4",
                    "midi": 64,
                    "time": 66.7890444999998,
                    "velocity": 0.2677165354330709,
                    "duration": 0.10013349999999832
                },
                {
                    "name": "D3",
                    "midi": 50,
                    "time": 66.8891779999998,
                    "velocity": 0.31496062992125984,
                    "duration": 0.10013349999999832
                },
                {
                    "name": "F#4",
                    "midi": 66,
                    "time": 66.9893114999998,
                    "velocity": 0.2755905511811024,
                    "duration": 0.10013349999999832
                },
                {
                    "name": "F#3",
                    "midi": 54,
                    "time": 67.0894449999998,
                    "velocity": 0.2992125984251969,
                    "duration": 0.10013349999999832
                },
                {
                    "name": "F#4",
                    "midi": 66,
                    "time": 67.1895784999998,
                    "velocity": 0.2755905511811024,
                    "duration": 0.10013349999999832
                },
                {
                    "name": "B2",
                    "midi": 47,
                    "time": 67.2897119999998,
                    "velocity": 0.31496062992125984,
                    "duration": 0.10013349999999832
                },
                {
                    "name": "D4",
                    "midi": 62,
                    "time": 67.3898454999998,
                    "velocity": 0.2677165354330709,
                    "duration": 0.10013349999999832
                },
                {
                    "name": "F#3",
                    "midi": 54,
                    "time": 67.48997899999979,
                    "velocity": 0.29133858267716534,
                    "duration": 0.10013349999999832
                },
                {
                    "name": "D4",
                    "midi": 62,
                    "time": 67.59011249999979,
                    "velocity": 0.2677165354330709,
                    "duration": 0.10013349999999832
                },
                {
                    "name": "C#3",
                    "midi": 49,
                    "time": 67.69024599999979,
                    "velocity": 0.31496062992125984,
                    "duration": 0.10013349999999832
                },
                {
                    "name": "E4",
                    "midi": 64,
                    "time": 67.79037949999979,
                    "velocity": 0.2677165354330709,
                    "duration": 0.10013349999999832
                },
                {
                    "name": "F#3",
                    "midi": 54,
                    "time": 67.89051299999979,
                    "velocity": 0.29133858267716534,
                    "duration": 0.10013349999999832
                },
                {
                    "name": "E4",
                    "midi": 64,
                    "time": 67.99064649999978,
                    "velocity": 0.2677165354330709,
                    "duration": 0.10013349999999832
                },
                {
                    "name": "D3",
                    "midi": 50,
                    "time": 68.09077999999978,
                    "velocity": 0.31496062992125984,
                    "duration": 0.10013349999999832
                },
                {
                    "name": "F#4",
                    "midi": 66,
                    "time": 68.19091349999978,
                    "velocity": 0.2755905511811024,
                    "duration": 0.10013349999999832
                },
                {
                    "name": "F#3",
                    "midi": 54,
                    "time": 68.29104699999978,
                    "velocity": 0.2992125984251969,
                    "duration": 0.10013349999999832
                },
                {
                    "name": "F#4",
                    "midi": 66,
                    "time": 68.39118049999978,
                    "velocity": 0.2755905511811024,
                    "duration": 0.10013349999999832
                },
                {
                    "name": "B2",
                    "midi": 47,
                    "time": 68.49131399999978,
                    "velocity": 0.31496062992125984,
                    "duration": 0.10013349999999832
                },
                {
                    "name": "D4",
                    "midi": 62,
                    "time": 68.59144749999977,
                    "velocity": 0.2677165354330709,
                    "duration": 0.10013349999999832
                },
                {
                    "name": "F#3",
                    "midi": 54,
                    "time": 68.69158099999977,
                    "velocity": 0.29133858267716534,
                    "duration": 0.10013349999999832
                },
                {
                    "name": "D4",
                    "midi": 62,
                    "time": 68.79171449999977,
                    "velocity": 0.2677165354330709,
                    "duration": 0.10013349999999832
                },
                {
                    "name": "C#3",
                    "midi": 49,
                    "time": 68.89184799999977,
                    "velocity": 0.31496062992125984,
                    "duration": 0.10013349999999832
                },
                {
                    "name": "E4",
                    "midi": 64,
                    "time": 68.99198149999977,
                    "velocity": 0.2677165354330709,
                    "duration": 0.10013349999999832
                },
                {
                    "name": "F#3",
                    "midi": 54,
                    "time": 69.09211499999977,
                    "velocity": 0.29133858267716534,
                    "duration": 0.10013349999999832
                },
                {
                    "name": "E4",
                    "midi": 64,
                    "time": 69.19224849999976,
                    "velocity": 0.2677165354330709,
                    "duration": 0.10013349999999832
                },
                {
                    "name": "D3",
                    "midi": 50,
                    "time": 69.29238199999976,
                    "velocity": 0.31496062992125984,
                    "duration": 0.10013349999999832
                },
                {
                    "name": "F#4",
                    "midi": 66,
                    "time": 69.39251549999976,
                    "velocity": 0.2755905511811024,
                    "duration": 0.10013349999999832
                },
                {
                    "name": "F#3",
                    "midi": 54,
                    "time": 69.49264899999976,
                    "velocity": 0.2992125984251969,
                    "duration": 0.10013349999999832
                },
                {
                    "name": "F#4",
                    "midi": 66,
                    "time": 69.59278249999976,
                    "velocity": 0.2755905511811024,
                    "duration": 0.10013349999999832
                },
                {
                    "name": "B2",
                    "midi": 47,
                    "time": 69.69291599999976,
                    "velocity": 0.31496062992125984,
                    "duration": 0.10013349999999832
                },
                {
                    "name": "D4",
                    "midi": 62,
                    "time": 69.79304949999975,
                    "velocity": 0.2677165354330709,
                    "duration": 0.10013349999999832
                },
                {
                    "name": "F#3",
                    "midi": 54,
                    "time": 69.89318299999975,
                    "velocity": 0.29133858267716534,
                    "duration": 0.10013349999999832
                },
                {
                    "name": "D4",
                    "midi": 62,
                    "time": 69.99331649999975,
                    "velocity": 0.2677165354330709,
                    "duration": 0.10013349999999832
                },
                {
                    "name": "C#3",
                    "midi": 49,
                    "time": 70.09344999999975,
                    "velocity": 0.31496062992125984,
                    "duration": 0.10013349999999832
                },
                {
                    "name": "E4",
                    "midi": 64,
                    "time": 70.19358349999975,
                    "velocity": 0.2677165354330709,
                    "duration": 0.10013349999999832
                },
                {
                    "name": "F#3",
                    "midi": 54,
                    "time": 70.29371699999975,
                    "velocity": 0.29133858267716534,
                    "duration": 0.10013349999999832
                },
                {
                    "name": "E4",
                    "midi": 64,
                    "time": 70.39385049999974,
                    "velocity": 0.2677165354330709,
                    "duration": 0.10013349999999832
                },
                {
                    "name": "D3",
                    "midi": 50,
                    "time": 70.49398399999974,
                    "velocity": 0.31496062992125984,
                    "duration": 0.10013349999999832
                },
                {
                    "name": "F#4",
                    "midi": 66,
                    "time": 70.59411749999974,
                    "velocity": 0.2755905511811024,
                    "duration": 0.10013349999999832
                },
                {
                    "name": "F#3",
                    "midi": 54,
                    "time": 70.69425099999974,
                    "velocity": 0.2992125984251969,
                    "duration": 0.10013349999999832
                },
                {
                    "name": "F#4",
                    "midi": 66,
                    "time": 70.79438449999974,
                    "velocity": 0.2755905511811024,
                    "duration": 0.10013349999999832
                },
                {
                    "name": "E3",
                    "midi": 52,
                    "time": 70.89451799999974,
                    "velocity": 0.31496062992125984,
                    "duration": 0.10013349999999832
                },
                {
                    "name": "D4",
                    "midi": 62,
                    "time": 70.99465149999973,
                    "velocity": 0.2677165354330709,
                    "duration": 0.10013349999999832
                },
                {
                    "name": "B3",
                    "midi": 59,
                    "time": 71.09478499999973,
                    "velocity": 0.29133858267716534,
                    "duration": 0.10013349999999832
                },
                {
                    "name": "D4",
                    "midi": 62,
                    "time": 71.19491849999973,
                    "velocity": 0.2677165354330709,
                    "duration": 0.10013349999999832
                },
                {
                    "name": "F3",
                    "midi": 53,
                    "time": 71.29505199999973,
                    "velocity": 0.3858267716535433,
                    "duration": 0.10013349999999832
                },
                {
                    "name": "D4",
                    "midi": 62,
                    "time": 71.39518549999973,
                    "velocity": 0.2677165354330709,
                    "duration": 0.10013349999999832
                },
                {
                    "name": "B3",
                    "midi": 59,
                    "time": 71.49531899999972,
                    "velocity": 0.33070866141732286,
                    "duration": 0.10013349999999832
                },
                {
                    "name": "D4",
                    "midi": 62,
                    "time": 71.59545249999972,
                    "velocity": 0.2677165354330709,
                    "duration": 0.10013349999999832
                },
                {
                    "name": "F#3",
                    "midi": 54,
                    "time": 71.69558599999972,
                    "velocity": 0.3779527559055118,
                    "duration": 0.10013349999999832
                },
                {
                    "name": "D4",
                    "midi": 62,
                    "time": 71.79571949999972,
                    "velocity": 0.2755905511811024,
                    "duration": 0.10013349999999832
                },
                {
                    "name": "B3",
                    "midi": 59,
                    "time": 71.89585299999972,
                    "velocity": 0.2992125984251969,
                    "duration": 0.10013349999999832
                },
                {
                    "name": "D4",
                    "midi": 62,
                    "time": 71.99598649999972,
                    "velocity": 0.2992125984251969,
                    "duration": 0.10013349999999832
                },
                {
                    "name": "F#3",
                    "midi": 54,
                    "time": 72.09611999999971,
                    "velocity": 0.4015748031496063,
                    "duration": 0.10013349999999832
                },
                {
                    "name": "D4",
                    "midi": 62,
                    "time": 72.19625349999971,
                    "velocity": 0.30708661417322836,
                    "duration": 0.10013349999999832
                },
                {
                    "name": "B3",
                    "midi": 59,
                    "time": 72.29638699999971,
                    "velocity": 0.33070866141732286,
                    "duration": 0.10013349999999832
                },
                {
                    "name": "D4",
                    "midi": 62,
                    "time": 72.39652049999971,
                    "velocity": 0.30708661417322836,
                    "duration": 0.10013349999999832
                },
                {
                    "name": "F#3",
                    "midi": 54,
                    "time": 72.49665399999971,
                    "velocity": 0.3779527559055118,
                    "duration": 0.10013349999999832
                },
                {
                    "name": "D4",
                    "midi": 62,
                    "time": 72.5967874999997,
                    "velocity": 0.2992125984251969,
                    "duration": 0.10013349999999832
                },
                {
                    "name": "B3",
                    "midi": 59,
                    "time": 72.6969209999997,
                    "velocity": 0.30708661417322836,
                    "duration": 0.10013349999999832
                },
                {
                    "name": "D4",
                    "midi": 62,
                    "time": 72.7970544999997,
                    "velocity": 0.2992125984251969,
                    "duration": 0.10013349999999832
                },
                {
                    "name": "F#3",
                    "midi": 54,
                    "time": 72.8971879999997,
                    "velocity": 0.3543307086614173,
                    "duration": 0.10013349999999832
                },
                {
                    "name": "E4",
                    "midi": 64,
                    "time": 72.9973214999997,
                    "velocity": 0.3228346456692913,
                    "duration": 0.10013349999999832
                },
                {
                    "name": "C#4",
                    "midi": 61,
                    "time": 73.0974549999997,
                    "velocity": 0.3543307086614173,
                    "duration": 0.10013349999999832
                },
                {
                    "name": "E4",
                    "midi": 64,
                    "time": 73.1975884999997,
                    "velocity": 0.31496062992125984,
                    "duration": 0.10013349999999832
                },
                {
                    "name": "B2",
                    "midi": 47,
                    "time": 73.2977219999997,
                    "velocity": 0.31496062992125984,
                    "duration": 0.10013349999999832
                },
                {
                    "name": "D4",
                    "midi": 62,
                    "time": 73.3978554999997,
                    "velocity": 0.28346456692913385,
                    "duration": 0.10013349999999832
                },
                {
                    "name": "F#3",
                    "midi": 54,
                    "time": 73.49798899999969,
                    "velocity": 0.3228346456692913,
                    "duration": 0.10013349999999832
                },
                {
                    "name": "D4",
                    "midi": 62,
                    "time": 73.59812249999969,
                    "velocity": 0.31496062992125984,
                    "duration": 0.10013349999999832
                },
                {
                    "name": "C#3",
                    "midi": 49,
                    "time": 73.69825599999969,
                    "velocity": 0.3937007874015748,
                    "duration": 0.10013349999999832
                },
                {
                    "name": "E4",
                    "midi": 64,
                    "time": 73.79838949999969,
                    "velocity": 0.3228346456692913,
                    "duration": 0.10013349999999832
                },
                {
                    "name": "F#3",
                    "midi": 54,
                    "time": 73.89852299999968,
                    "velocity": 0.3464566929133858,
                    "duration": 0.10013349999999832
                },
                {
                    "name": "E4",
                    "midi": 64,
                    "time": 73.99865649999968,
                    "velocity": 0.30708661417322836,
                    "duration": 0.10013349999999832
                },
                {
                    "name": "D3",
                    "midi": 50,
                    "time": 74.09878999999968,
                    "velocity": 0.3543307086614173,
                    "duration": 0.10013349999999832
                },
                {
                    "name": "F#4",
                    "midi": 66,
                    "time": 74.19892349999968,
                    "velocity": 0.2992125984251969,
                    "duration": 0.10013349999999832
                },
                {
                    "name": "F#3",
                    "midi": 54,
                    "time": 74.29905699999968,
                    "velocity": 0.31496062992125984,
                    "duration": 0.10013349999999832
                },
                {
                    "name": "F#4",
                    "midi": 66,
                    "time": 74.39919049999968,
                    "velocity": 0.28346456692913385,
                    "duration": 0.10013349999999832
                },
                {
                    "name": "B2",
                    "midi": 47,
                    "time": 74.49932399999967,
                    "velocity": 0.31496062992125984,
                    "duration": 0.10013349999999832
                },
                {
                    "name": "D4",
                    "midi": 62,
                    "time": 74.59945749999967,
                    "velocity": 0.28346456692913385,
                    "duration": 0.10013349999999832
                },
                {
                    "name": "F#3",
                    "midi": 54,
                    "time": 74.69959099999967,
                    "velocity": 0.3228346456692913,
                    "duration": 0.10013349999999832
                },
                {
                    "name": "D4",
                    "midi": 62,
                    "time": 74.79972449999967,
                    "velocity": 0.31496062992125984,
                    "duration": 0.10013349999999832
                },
                {
                    "name": "C#3",
                    "midi": 49,
                    "time": 74.89985799999967,
                    "velocity": 0.3937007874015748,
                    "duration": 0.10013349999999832
                },
                {
                    "name": "E4",
                    "midi": 64,
                    "time": 74.99999149999967,
                    "velocity": 0.3228346456692913,
                    "duration": 0.10013349999999832
                },
                {
                    "name": "F#3",
                    "midi": 54,
                    "time": 75.10012499999966,
                    "velocity": 0.3464566929133858,
                    "duration": 0.10013349999999832
                },
                {
                    "name": "E4",
                    "midi": 64,
                    "time": 75.20025849999966,
                    "velocity": 0.30708661417322836,
                    "duration": 0.10013349999999832
                },
                {
                    "name": "D3",
                    "midi": 50,
                    "time": 75.30039199999966,
                    "velocity": 0.3543307086614173,
                    "duration": 0.10013349999999832
                },
                {
                    "name": "F#4",
                    "midi": 66,
                    "time": 75.40052549999966,
                    "velocity": 0.2992125984251969,
                    "duration": 0.10013349999999832
                },
                {
                    "name": "F#3",
                    "midi": 54,
                    "time": 75.50065899999966,
                    "velocity": 0.31496062992125984,
                    "duration": 0.10013349999999832
                },
                {
                    "name": "F#4",
                    "midi": 66,
                    "time": 75.60079249999966,
                    "velocity": 0.28346456692913385,
                    "duration": 0.10013349999999832
                },
                {
                    "name": "B2",
                    "midi": 47,
                    "time": 75.70092599999965,
                    "velocity": 0.31496062992125984,
                    "duration": 0.10013349999999832
                },
                {
                    "name": "D4",
                    "midi": 62,
                    "time": 75.80105949999965,
                    "velocity": 0.28346456692913385,
                    "duration": 0.10013349999999832
                },
                {
                    "name": "F#3",
                    "midi": 54,
                    "time": 75.90119299999965,
                    "velocity": 0.3228346456692913,
                    "duration": 0.10013349999999832
                },
                {
                    "name": "D4",
                    "midi": 62,
                    "time": 76.00132649999965,
                    "velocity": 0.31496062992125984,
                    "duration": 0.10013349999999832
                },
                {
                    "name": "C#3",
                    "midi": 49,
                    "time": 76.10145999999965,
                    "velocity": 0.3937007874015748,
                    "duration": 0.10013349999999832
                },
                {
                    "name": "E4",
                    "midi": 64,
                    "time": 76.20159349999965,
                    "velocity": 0.3228346456692913,
                    "duration": 0.10013349999999832
                },
                {
                    "name": "F#3",
                    "midi": 54,
                    "time": 76.30172699999964,
                    "velocity": 0.3464566929133858,
                    "duration": 0.10013349999999832
                },
                {
                    "name": "E4",
                    "midi": 64,
                    "time": 76.40186049999964,
                    "velocity": 0.30708661417322836,
                    "duration": 0.10013349999999832
                },
                {
                    "name": "D3",
                    "midi": 50,
                    "time": 76.50199399999964,
                    "velocity": 0.3543307086614173,
                    "duration": 0.10013349999999832
                },
                {
                    "name": "F#4",
                    "midi": 66,
                    "time": 76.60212749999964,
                    "velocity": 0.2992125984251969,
                    "duration": 0.10013349999999832
                },
                {
                    "name": "F#3",
                    "midi": 54,
                    "time": 76.70226099999964,
                    "velocity": 0.31496062992125984,
                    "duration": 0.10013349999999832
                },
                {
                    "name": "F#4",
                    "midi": 66,
                    "time": 76.80239449999964,
                    "velocity": 0.28346456692913385,
                    "duration": 0.10013349999999832
                },
                {
                    "name": "B2",
                    "midi": 47,
                    "time": 76.90252799999963,
                    "velocity": 0.31496062992125984,
                    "duration": 0.10013349999999832
                },
                {
                    "name": "D4",
                    "midi": 62,
                    "time": 77.00266149999963,
                    "velocity": 0.28346456692913385,
                    "duration": 0.10013349999999832
                },
                {
                    "name": "F#3",
                    "midi": 54,
                    "time": 77.10279499999963,
                    "velocity": 0.3228346456692913,
                    "duration": 0.10013349999999832
                },
                {
                    "name": "D4",
                    "midi": 62,
                    "time": 77.20292849999963,
                    "velocity": 0.31496062992125984,
                    "duration": 0.10013349999999832
                },
                {
                    "name": "C#3",
                    "midi": 49,
                    "time": 77.30306199999963,
                    "velocity": 0.3937007874015748,
                    "duration": 0.10013349999999832
                },
                {
                    "name": "E4",
                    "midi": 64,
                    "time": 77.40319549999963,
                    "velocity": 0.3228346456692913,
                    "duration": 0.10013349999999832
                },
                {
                    "name": "F#3",
                    "midi": 54,
                    "time": 77.50332899999962,
                    "velocity": 0.3464566929133858,
                    "duration": 0.10013349999999832
                },
                {
                    "name": "E4",
                    "midi": 64,
                    "time": 77.60346249999962,
                    "velocity": 0.30708661417322836,
                    "duration": 0.10013349999999832
                },
                {
                    "name": "D3",
                    "midi": 50,
                    "time": 77.70359599999962,
                    "velocity": 0.3543307086614173,
                    "duration": 0.10013349999999832
                },
                {
                    "name": "F#4",
                    "midi": 66,
                    "time": 77.80372949999962,
                    "velocity": 0.2992125984251969,
                    "duration": 0.10013349999999832
                },
                {
                    "name": "F#3",
                    "midi": 54,
                    "time": 77.90386299999962,
                    "velocity": 0.31496062992125984,
                    "duration": 0.10013349999999832
                },
                {
                    "name": "F#4",
                    "midi": 66,
                    "time": 78.00399649999962,
                    "velocity": 0.28346456692913385,
                    "duration": 0.10013349999999832
                },
                {
                    "name": "E3",
                    "midi": 52,
                    "time": 78.10412999999961,
                    "velocity": 0.31496062992125984,
                    "duration": 0.10013349999999832
                },
                {
                    "name": "D4",
                    "midi": 62,
                    "time": 78.20426349999961,
                    "velocity": 0.2677165354330709,
                    "duration": 0.10013349999999832
                },
                {
                    "name": "B3",
                    "midi": 59,
                    "time": 78.30439699999961,
                    "velocity": 0.29133858267716534,
                    "duration": 0.10013349999999832
                },
                {
                    "name": "D4",
                    "midi": 62,
                    "time": 78.40453049999961,
                    "velocity": 0.2677165354330709,
                    "duration": 0.10013349999999832
                },
                {
                    "name": "F3",
                    "midi": 53,
                    "time": 78.50466399999961,
                    "velocity": 0.3858267716535433,
                    "duration": 0.10013349999999832
                },
                {
                    "name": "D4",
                    "midi": 62,
                    "time": 78.6047974999996,
                    "velocity": 0.2677165354330709,
                    "duration": 0.10013349999999832
                },
                {
                    "name": "B3",
                    "midi": 59,
                    "time": 78.7049309999996,
                    "velocity": 0.33070866141732286,
                    "duration": 0.10013349999999832
                },
                {
                    "name": "D4",
                    "midi": 62,
                    "time": 78.8050644999996,
                    "velocity": 0.2677165354330709,
                    "duration": 0.10013349999999832
                },
                {
                    "name": "F#3",
                    "midi": 54,
                    "time": 78.9051979999996,
                    "velocity": 0.3779527559055118,
                    "duration": 0.10013349999999832
                },
                {
                    "name": "D4",
                    "midi": 62,
                    "time": 79.0053314999996,
                    "velocity": 0.2755905511811024,
                    "duration": 0.10013349999999832
                },
                {
                    "name": "B3",
                    "midi": 59,
                    "time": 79.1054649999996,
                    "velocity": 0.2992125984251969,
                    "duration": 0.10013349999999832
                },
                {
                    "name": "D4",
                    "midi": 62,
                    "time": 79.2055984999996,
                    "velocity": 0.2992125984251969,
                    "duration": 0.10013349999999832
                },
                {
                    "name": "F#3",
                    "midi": 54,
                    "time": 79.3057319999996,
                    "velocity": 0.41732283464566927,
                    "duration": 0.7927235416666605
                },
                {
                    "name": "F#2",
                    "midi": 42,
                    "time": 80.1067999999996,
                    "velocity": 0.44881889763779526,
                    "duration": 0.4005339999999933
                },
                {
                    "name": "F#1",
                    "midi": 30,
                    "time": 80.1067999999996,
                    "velocity": 0.3779527559055118,
                    "duration": 0.4005339999999933
                },
                {
                    "name": "B2",
                    "midi": 47,
                    "time": 80.50733399999959,
                    "velocity": 0.7322834645669292,
                    "duration": 0.10013349999999832
                },
                {
                    "name": "B1",
                    "midi": 35,
                    "time": 80.50733399999959,
                    "velocity": 0.6220472440944882,
                    "duration": 0.10013349999999832
                },
                {
                    "name": "C#3",
                    "midi": 49,
                    "time": 80.70760099999958,
                    "velocity": 0.6377952755905512,
                    "duration": 0.10013349999999832
                },
                {
                    "name": "C#2",
                    "midi": 37,
                    "time": 80.70760099999958,
                    "velocity": 0.5433070866141733,
                    "duration": 0.10013349999999832
                },
                {
                    "name": "D3",
                    "midi": 50,
                    "time": 80.90786799999958,
                    "velocity": 0.6377952755905512,
                    "duration": 0.10013349999999832
                },
                {
                    "name": "D2",
                    "midi": 38,
                    "time": 80.90786799999958,
                    "velocity": 0.5433070866141733,
                    "duration": 0.10013349999999832
                },
                {
                    "name": "E3",
                    "midi": 52,
                    "time": 81.10813499999958,
                    "velocity": 0.6929133858267716,
                    "duration": 0.10013349999999832
                },
                {
                    "name": "E2",
                    "midi": 40,
                    "time": 81.10813499999958,
                    "velocity": 0.5669291338582677,
                    "duration": 0.10013349999999832
                },
                {
                    "name": "F#3",
                    "midi": 54,
                    "time": 81.30840199999957,
                    "velocity": 0.7401574803149606,
                    "duration": 1.6021360000000016
                },
                {
                    "name": "F#2",
                    "midi": 42,
                    "time": 81.30840199999957,
                    "velocity": 0.6299212598425197,
                    "duration": 1.6021360000000016
                },
                {
                    "name": "E2",
                    "midi": 40,
                    "time": 82.91053799999958,
                    "velocity": 0.29133858267716534,
                    "duration": 1.201601999999994
                },
                {
                    "name": "E3",
                    "midi": 52,
                    "time": 82.91053799999958,
                    "velocity": 0.3464566929133858,
                    "duration": 1.201601999999994
                },
                {
                    "name": "F#3",
                    "midi": 54,
                    "time": 84.11213999999957,
                    "velocity": 0.33858267716535434,
                    "duration": 1.201601999999994
                },
                {
                    "name": "F#2",
                    "midi": 42,
                    "time": 84.11213999999957,
                    "velocity": 0.28346456692913385,
                    "duration": 1.201601999999994
                },
                {
                    "name": "B2",
                    "midi": 47,
                    "time": 85.31374199999956,
                    "velocity": 0.7322834645669292,
                    "duration": 0.10013349999999832
                },
                {
                    "name": "B1",
                    "midi": 35,
                    "time": 85.31374199999956,
                    "velocity": 0.6220472440944882,
                    "duration": 0.10013349999999832
                },
                {
                    "name": "C#3",
                    "midi": 49,
                    "time": 85.51400899999956,
                    "velocity": 0.6377952755905512,
                    "duration": 0.10013349999999832
                },
                {
                    "name": "C#2",
                    "midi": 37,
                    "time": 85.51400899999956,
                    "velocity": 0.5433070866141733,
                    "duration": 0.10013349999999832
                },
                {
                    "name": "D3",
                    "midi": 50,
                    "time": 85.71427599999956,
                    "velocity": 0.6377952755905512,
                    "duration": 0.10013349999999832
                },
                {
                    "name": "D2",
                    "midi": 38,
                    "time": 85.71427599999956,
                    "velocity": 0.5433070866141733,
                    "duration": 0.10013349999999832
                },
                {
                    "name": "E3",
                    "midi": 52,
                    "time": 85.91454299999955,
                    "velocity": 0.6929133858267716,
                    "duration": 0.10013349999999832
                },
                {
                    "name": "E2",
                    "midi": 40,
                    "time": 85.91454299999955,
                    "velocity": 0.5669291338582677,
                    "duration": 0.10013349999999832
                },
                {
                    "name": "F#3",
                    "midi": 54,
                    "time": 86.11480999999955,
                    "velocity": 0.7401574803149606,
                    "duration": 1.6021360000000016
                },
                {
                    "name": "F#2",
                    "midi": 42,
                    "time": 86.11480999999955,
                    "velocity": 0.6299212598425197,
                    "duration": 1.6021360000000016
                },
                {
                    "name": "E2",
                    "midi": 40,
                    "time": 87.71694599999955,
                    "velocity": 0.29133858267716534,
                    "duration": 1.201601999999994
                },
                {
                    "name": "E3",
                    "midi": 52,
                    "time": 87.71694599999955,
                    "velocity": 0.3464566929133858,
                    "duration": 1.201601999999994
                },
                {
                    "name": "F#2",
                    "midi": 42,
                    "time": 88.91854799999955,
                    "velocity": 0.1889763779527559,
                    "duration": 1.201601999999994
                },
                {
                    "name": "F#3",
                    "midi": 54,
                    "time": 88.91854799999955,
                    "velocity": 0.2283464566929134,
                    "duration": 1.201601999999994
                },
                {
                    "name": "B2",
                    "midi": 47,
                    "time": 91.32175199999953,
                    "velocity": 0.18110236220472442,
                    "duration": 1.201601999999994
                },
                {
                    "name": "B1",
                    "midi": 35,
                    "time": 91.32175199999953,
                    "velocity": 0.14960629921259844,
                    "duration": 1.201601999999994
                },
                {
                    "name": "F#2",
                    "midi": 42,
                    "time": 93.72495599999952,
                    "velocity": 0.18110236220472442,
                    "duration": 1.201601999999994
                },
                {
                    "name": "F#1",
                    "midi": 30,
                    "time": 93.72495599999952,
                    "velocity": 0.14960629921259844,
                    "duration": 1.201601999999994
                },
                {
                    "name": "B1",
                    "midi": 35,
                    "time": 94.92655799999952,
                    "velocity": 0.14960629921259844,
                    "duration": 0.4005339999999933
                },
                {
                    "name": "B2",
                    "midi": 47,
                    "time": 94.92655799999952,
                    "velocity": 0.18110236220472442,
                    "duration": 0.4005339999999933
                },
                {
                    "name": "B1",
                    "midi": 35,
                    "time": 96.12815999999951,
                    "velocity": 0.14960629921259844,
                    "duration": 0.4005339999999933
                },
                {
                    "name": "B2",
                    "midi": 47,
                    "time": 96.12815999999951,
                    "velocity": 0.18110236220472442,
                    "duration": 0.4005339999999933
                },
                {
                    "name": "B1",
                    "midi": 35,
                    "time": 97.3297619999995,
                    "velocity": 0.14960629921259844,
                    "duration": 0.4005339999999933
                },
                {
                    "name": "B2",
                    "midi": 47,
                    "time": 97.3297619999995,
                    "velocity": 0.18110236220472442,
                    "duration": 0.4005339999999933
                },
                {
                    "name": "A4",
                    "midi": 69,
                    "time": 101.7356359999995,
                    "velocity": 0.23622047244094488,
                    "duration": 0.10013349999999832
                },
                {
                    "name": "F#4",
                    "midi": 66,
                    "time": 101.7356359999995,
                    "velocity": 0.1968503937007874,
                    "duration": 0.10013349999999832
                },
                {
                    "name": "F#4",
                    "midi": 66,
                    "time": 102.1361699999995,
                    "velocity": 0.2204724409448819,
                    "duration": 0.4005339999999933
                },
                {
                    "name": "A4",
                    "midi": 69,
                    "time": 102.1361699999995,
                    "velocity": 0.2677165354330709,
                    "duration": 0.4005339999999933
                },
                {
                    "name": "A4",
                    "midi": 69,
                    "time": 102.93723799999948,
                    "velocity": 0.2440944881889764,
                    "duration": 0.10013349999999832
                },
                {
                    "name": "F#4",
                    "midi": 66,
                    "time": 102.93723799999948,
                    "velocity": 0.2047244094488189,
                    "duration": 0.10013349999999832
                },
                {
                    "name": "E4",
                    "midi": 64,
                    "time": 103.33777199999948,
                    "velocity": 0.2204724409448819,
                    "duration": 0.4005339999999933
                },
                {
                    "name": "G4",
                    "midi": 67,
                    "time": 103.33777199999948,
                    "velocity": 0.2677165354330709,
                    "duration": 0.4005339999999933
                },
                {
                    "name": "G4",
                    "midi": 67,
                    "time": 104.13883999999946,
                    "velocity": 0.2440944881889764,
                    "duration": 0.4005339999999933
                },
                {
                    "name": "E4",
                    "midi": 64,
                    "time": 104.13883999999946,
                    "velocity": 0.2047244094488189,
                    "duration": 0.4005339999999933
                },
                {
                    "name": "D4",
                    "midi": 62,
                    "time": 104.53937399999946,
                    "velocity": 0.2204724409448819,
                    "duration": 0.4005339999999933
                },
                {
                    "name": "F4",
                    "midi": 65,
                    "time": 104.53937399999946,
                    "velocity": 0.2677165354330709,
                    "duration": 0.4005339999999933
                },
                {
                    "name": "F4",
                    "midi": 65,
                    "time": 105.34044199999944,
                    "velocity": 0.23622047244094488,
                    "duration": 0.20026699999999664
                },
                {
                    "name": "D4",
                    "midi": 62,
                    "time": 105.34044199999944,
                    "velocity": 0.1968503937007874,
                    "duration": 0.20026699999999664
                },
                {
                    "name": "C4",
                    "midi": 60,
                    "time": 105.74097599999943,
                    "velocity": 0.2204724409448819,
                    "duration": 0.20026699999999664
                },
                {
                    "name": "E4",
                    "midi": 64,
                    "time": 105.74097599999943,
                    "velocity": 0.2677165354330709,
                    "duration": 0.20026699999999664
                },
                {
                    "name": "E4",
                    "midi": 64,
                    "time": 105.94124299999943,
                    "velocity": 0.23622047244094488,
                    "duration": 0.10013349999999832
                },
                {
                    "name": "E4",
                    "midi": 64,
                    "time": 106.14150999999943,
                    "velocity": 0.23622047244094488,
                    "duration": 0.10013349999999832
                },
                {
                    "name": "E4",
                    "midi": 64,
                    "time": 106.34177699999942,
                    "velocity": 0.23622047244094488,
                    "duration": 0.10013349999999832
                },
                {
                    "name": "E4",
                    "midi": 64,
                    "time": 106.54204399999942,
                    "velocity": 0.30708661417322836,
                    "duration": 0.10013349999999832
                },
                {
                    "name": "E4",
                    "midi": 64,
                    "time": 106.74231099999942,
                    "velocity": 0.29133858267716534,
                    "duration": 0.10013349999999832
                },
                {
                    "name": "E4",
                    "midi": 64,
                    "time": 106.94257799999941,
                    "velocity": 0.31496062992125984,
                    "duration": 0.10013349999999832
                },
                {
                    "name": "A3",
                    "midi": 57,
                    "time": 106.94257799999941,
                    "velocity": 0.25984251968503935,
                    "duration": 0.4005339999999933
                },
                {
                    "name": "C4",
                    "midi": 60,
                    "time": 106.94257799999941,
                    "velocity": 0.31496062992125984,
                    "duration": 0.4005339999999933
                },
                {
                    "name": "E4",
                    "midi": 64,
                    "time": 107.14284499999941,
                    "velocity": 0.28346456692913385,
                    "duration": 0.10013349999999832
                },
                {
                    "name": "E4",
                    "midi": 64,
                    "time": 107.34311199999941,
                    "velocity": 0.29133858267716534,
                    "duration": 0.10013349999999832
                },
                {
                    "name": "E4",
                    "midi": 64,
                    "time": 107.5433789999994,
                    "velocity": 0.2992125984251969,
                    "duration": 0.10013349999999832
                },
                {
                    "name": "E4",
                    "midi": 64,
                    "time": 107.7436459999994,
                    "velocity": 0.30708661417322836,
                    "duration": 0.10013349999999832
                },
                {
                    "name": "C4",
                    "midi": 60,
                    "time": 107.7436459999994,
                    "velocity": 0.3228346456692913,
                    "duration": 0.10013349999999832
                },
                {
                    "name": "A3",
                    "midi": 57,
                    "time": 107.7436459999994,
                    "velocity": 0.2677165354330709,
                    "duration": 0.10013349999999832
                },
                {
                    "name": "E4",
                    "midi": 64,
                    "time": 107.9439129999994,
                    "velocity": 0.31496062992125984,
                    "duration": 0.10013349999999832
                },
                {
                    "name": "F4",
                    "midi": 65,
                    "time": 108.1441799999994,
                    "velocity": 0.3700787401574803,
                    "duration": 0.10013349999999832
                },
                {
                    "name": "G#3",
                    "midi": 56,
                    "time": 108.1441799999994,
                    "velocity": 0.2992125984251969,
                    "duration": 0.4005339999999933
                },
                {
                    "name": "B3",
                    "midi": 59,
                    "time": 108.1441799999994,
                    "velocity": 0.3700787401574803,
                    "duration": 0.4005339999999933
                },
                {
                    "name": "F4",
                    "midi": 65,
                    "time": 108.34444699999939,
                    "velocity": 0.33070866141732286,
                    "duration": 0.10013349999999832
                },
                {
                    "name": "F4",
                    "midi": 65,
                    "time": 108.54471399999939,
                    "velocity": 0.33858267716535434,
                    "duration": 0.10013349999999832
                },
                {
                    "name": "F4",
                    "midi": 65,
                    "time": 108.74498099999938,
                    "velocity": 0.3543307086614173,
                    "duration": 0.10013349999999832
                },
                {
                    "name": "G#3",
                    "midi": 56,
                    "time": 108.94524799999938,
                    "velocity": 0.3700787401574803,
                    "duration": 0.10013349999999832
                },
                {
                    "name": "B3",
                    "midi": 59,
                    "time": 108.94524799999938,
                    "velocity": 0.3700787401574803,
                    "duration": 0.10013349999999832
                },
                {
                    "name": "F4",
                    "midi": 65,
                    "time": 108.94524799999938,
                    "velocity": 0.4094488188976378,
                    "duration": 0.10013349999999832
                },
                {
                    "name": "F4",
                    "midi": 65,
                    "time": 109.14551499999938,
                    "velocity": 0.3937007874015748,
                    "duration": 0.10013349999999832
                },
                {
                    "name": "F4",
                    "midi": 65,
                    "time": 109.34578199999937,
                    "velocity": 0.41732283464566927,
                    "duration": 0.10013349999999832
                },
                {
                    "name": "G#3",
                    "midi": 56,
                    "time": 109.34578199999937,
                    "velocity": 0.3543307086614173,
                    "duration": 0.4005339999999933
                },
                {
                    "name": "A#3",
                    "midi": 58,
                    "time": 109.34578199999937,
                    "velocity": 0.41732283464566927,
                    "duration": 0.4005339999999933
                },
                {
                    "name": "F4",
                    "midi": 65,
                    "time": 109.54604899999937,
                    "velocity": 0.3858267716535433,
                    "duration": 0.10013349999999832
                },
                {
                    "name": "F4",
                    "midi": 65,
                    "time": 109.74631599999937,
                    "velocity": 0.3858267716535433,
                    "duration": 0.10013349999999832
                },
                {
                    "name": "F4",
                    "midi": 65,
                    "time": 109.94658299999936,
                    "velocity": 0.3937007874015748,
                    "duration": 0.10013349999999832
                },
                {
                    "name": "F4",
                    "midi": 65,
                    "time": 110.14684999999936,
                    "velocity": 0.4015748031496063,
                    "duration": 0.10013349999999832
                },
                {
                    "name": "A#3",
                    "midi": 58,
                    "time": 110.14684999999936,
                    "velocity": 0.41732283464566927,
                    "duration": 0.10013349999999832
                },
                {
                    "name": "G#3",
                    "midi": 56,
                    "time": 110.14684999999936,
                    "velocity": 0.3464566929133858,
                    "duration": 0.10013349999999832
                },
                {
                    "name": "F4",
                    "midi": 65,
                    "time": 110.34711699999936,
                    "velocity": 0.4094488188976378,
                    "duration": 0.10013349999999832
                },
                {
                    "name": "G3",
                    "midi": 55,
                    "time": 110.54738399999935,
                    "velocity": 0.4409448818897638,
                    "duration": 0.10013349999999832
                },
                {
                    "name": "A#3",
                    "midi": 58,
                    "time": 110.54738399999935,
                    "velocity": 0.4409448818897638,
                    "duration": 0.10013349999999832
                },
                {
                    "name": "D#4",
                    "midi": 63,
                    "time": 110.54738399999935,
                    "velocity": 0.5275590551181102,
                    "duration": 0.10013349999999832
                },
                {
                    "name": "D#4",
                    "midi": 63,
                    "time": 110.74765099999935,
                    "velocity": 0.48031496062992124,
                    "duration": 0.10013349999999832
                },
                {
                    "name": "A#3",
                    "midi": 58,
                    "time": 110.74765099999935,
                    "velocity": 0.4015748031496063,
                    "duration": 0.10013349999999832
                },
                {
                    "name": "G3",
                    "midi": 55,
                    "time": 110.74765099999935,
                    "velocity": 0.4015748031496063,
                    "duration": 0.10013349999999832
                },
                {
                    "name": "D#4",
                    "midi": 63,
                    "time": 110.94791799999935,
                    "velocity": 0.48031496062992124,
                    "duration": 0.10013349999999832
                },
                {
                    "name": "A#3",
                    "midi": 58,
                    "time": 110.94791799999935,
                    "velocity": 0.4015748031496063,
                    "duration": 0.10013349999999832
                },
                {
                    "name": "G3",
                    "midi": 55,
                    "time": 110.94791799999935,
                    "velocity": 0.4015748031496063,
                    "duration": 0.10013349999999832
                },
                {
                    "name": "D#4",
                    "midi": 63,
                    "time": 111.14818499999934,
                    "velocity": 0.48031496062992124,
                    "duration": 0.10013349999999832
                },
                {
                    "name": "A#3",
                    "midi": 58,
                    "time": 111.14818499999934,
                    "velocity": 0.4015748031496063,
                    "duration": 0.10013349999999832
                },
                {
                    "name": "G3",
                    "midi": 55,
                    "time": 111.14818499999934,
                    "velocity": 0.4015748031496063,
                    "duration": 0.10013349999999832
                },
                {
                    "name": "D#4",
                    "midi": 63,
                    "time": 111.34845199999934,
                    "velocity": 0.48031496062992124,
                    "duration": 0.10013349999999832
                },
                {
                    "name": "A#3",
                    "midi": 58,
                    "time": 111.34845199999934,
                    "velocity": 0.4015748031496063,
                    "duration": 0.10013349999999832
                },
                {
                    "name": "G3",
                    "midi": 55,
                    "time": 111.34845199999934,
                    "velocity": 0.4015748031496063,
                    "duration": 0.10013349999999832
                },
                {
                    "name": "D#4",
                    "midi": 63,
                    "time": 111.54871899999934,
                    "velocity": 0.48031496062992124,
                    "duration": 0.10013349999999832
                },
                {
                    "name": "A#3",
                    "midi": 58,
                    "time": 111.54871899999934,
                    "velocity": 0.4015748031496063,
                    "duration": 0.10013349999999832
                },
                {
                    "name": "G3",
                    "midi": 55,
                    "time": 111.54871899999934,
                    "velocity": 0.4015748031496063,
                    "duration": 0.10013349999999832
                },
                {
                    "name": "F#3",
                    "midi": 54,
                    "time": 111.74898599999933,
                    "velocity": 0.4409448818897638,
                    "duration": 0.10013349999999832
                },
                {
                    "name": "A#3",
                    "midi": 58,
                    "time": 111.74898599999933,
                    "velocity": 0.4409448818897638,
                    "duration": 0.10013349999999832
                },
                {
                    "name": "A#3",
                    "midi": 58,
                    "time": 111.94925299999933,
                    "velocity": 0.4015748031496063,
                    "duration": 0.10013349999999832
                },
                {
                    "name": "F#3",
                    "midi": 54,
                    "time": 111.94925299999933,
                    "velocity": 0.4015748031496063,
                    "duration": 0.10013349999999832
                },
                {
                    "name": "A#3",
                    "midi": 58,
                    "time": 112.14951999999933,
                    "velocity": 0.4015748031496063,
                    "duration": 0.10013349999999832
                },
                {
                    "name": "F#3",
                    "midi": 54,
                    "time": 112.14951999999933,
                    "velocity": 0.4015748031496063,
                    "duration": 0.10013349999999832
                },
                {
                    "name": "A#3",
                    "midi": 58,
                    "time": 112.34978699999932,
                    "velocity": 0.4015748031496063,
                    "duration": 0.10013349999999832
                },
                {
                    "name": "F#3",
                    "midi": 54,
                    "time": 112.34978699999932,
                    "velocity": 0.4015748031496063,
                    "duration": 0.10013349999999832
                },
                {
                    "name": "A#3",
                    "midi": 58,
                    "time": 112.55005399999932,
                    "velocity": 0.4015748031496063,
                    "duration": 0.10013349999999832
                },
                {
                    "name": "F#3",
                    "midi": 54,
                    "time": 112.55005399999932,
                    "velocity": 0.4015748031496063,
                    "duration": 0.10013349999999832
                },
                {
                    "name": "A#3",
                    "midi": 58,
                    "time": 112.75032099999932,
                    "velocity": 0.4094488188976378,
                    "duration": 0.10013349999999832
                },
                {
                    "name": "F#3",
                    "midi": 54,
                    "time": 112.75032099999932,
                    "velocity": 0.4094488188976378,
                    "duration": 0.10013349999999832
                },
                {
                    "name": "D#3",
                    "midi": 51,
                    "time": 112.95058799999931,
                    "velocity": 0.3700787401574803,
                    "duration": 0.10013349999999832
                },
                {
                    "name": "F#3",
                    "midi": 54,
                    "time": 112.95058799999931,
                    "velocity": 0.44881889763779526,
                    "duration": 0.10013349999999832
                },
                {
                    "name": "F#3",
                    "midi": 54,
                    "time": 113.15085499999931,
                    "velocity": 0.4094488188976378,
                    "duration": 0.10013349999999832
                },
                {
                    "name": "D#3",
                    "midi": 51,
                    "time": 113.15085499999931,
                    "velocity": 0.33858267716535434,
                    "duration": 0.10013349999999832
                },
                {
                    "name": "F#3",
                    "midi": 54,
                    "time": 113.35112199999931,
                    "velocity": 0.4094488188976378,
                    "duration": 0.10013349999999832
                },
                {
                    "name": "D#3",
                    "midi": 51,
                    "time": 113.35112199999931,
                    "velocity": 0.3464566929133858,
                    "duration": 0.10013349999999832
                },
                {
                    "name": "F#3",
                    "midi": 54,
                    "time": 113.5513889999993,
                    "velocity": 0.4094488188976378,
                    "duration": 0.10013349999999832
                },
                {
                    "name": "D#3",
                    "midi": 51,
                    "time": 113.5513889999993,
                    "velocity": 0.3464566929133858,
                    "duration": 0.10013349999999832
                },
                {
                    "name": "F#3",
                    "midi": 54,
                    "time": 113.7516559999993,
                    "velocity": 0.41732283464566927,
                    "duration": 0.10013349999999832
                },
                {
                    "name": "D#3",
                    "midi": 51,
                    "time": 113.7516559999993,
                    "velocity": 0.3464566929133858,
                    "duration": 0.10013349999999832
                },
                {
                    "name": "F#3",
                    "midi": 54,
                    "time": 113.9519229999993,
                    "velocity": 0.41732283464566927,
                    "duration": 0.10013349999999832
                },
                {
                    "name": "D#3",
                    "midi": 51,
                    "time": 113.9519229999993,
                    "velocity": 0.3464566929133858,
                    "duration": 0.10013349999999832
                },
                {
                    "name": "D#3",
                    "midi": 51,
                    "time": 114.1521899999993,
                    "velocity": 0.4566929133858268,
                    "duration": 0.10013349999999832
                },
                {
                    "name": "C3",
                    "midi": 48,
                    "time": 114.1571966749993,
                    "velocity": 0.3858267716535433,
                    "duration": 0.10013349999999832
                },
                {
                    "name": "D#3",
                    "midi": 51,
                    "time": 114.35245699999929,
                    "velocity": 0.41732283464566927,
                    "duration": 0.10013349999999832
                },
                {
                    "name": "C3",
                    "midi": 48,
                    "time": 114.35245699999929,
                    "velocity": 0.3543307086614173,
                    "duration": 0.10013349999999832
                },
                {
                    "name": "D#3",
                    "midi": 51,
                    "time": 114.55272399999929,
                    "velocity": 0.41732283464566927,
                    "duration": 0.10013349999999832
                },
                {
                    "name": "C3",
                    "midi": 48,
                    "time": 114.55272399999929,
                    "velocity": 0.3543307086614173,
                    "duration": 0.10013349999999832
                },
                {
                    "name": "D#3",
                    "midi": 51,
                    "time": 114.75299099999928,
                    "velocity": 0.4251968503937008,
                    "duration": 0.10013349999999832
                },
                {
                    "name": "C3",
                    "midi": 48,
                    "time": 114.75299099999928,
                    "velocity": 0.3543307086614173,
                    "duration": 0.10013349999999832
                },
                {
                    "name": "D#3",
                    "midi": 51,
                    "time": 114.95325799999928,
                    "velocity": 0.4251968503937008,
                    "duration": 0.10013349999999832
                },
                {
                    "name": "C3",
                    "midi": 48,
                    "time": 114.95325799999928,
                    "velocity": 0.3543307086614173,
                    "duration": 0.10013349999999832
                },
                {
                    "name": "D#3",
                    "midi": 51,
                    "time": 115.15352499999928,
                    "velocity": 0.4251968503937008,
                    "duration": 0.10013349999999832
                },
                {
                    "name": "C3",
                    "midi": 48,
                    "time": 115.15352499999928,
                    "velocity": 0.36220472440944884,
                    "duration": 0.10013349999999832
                },
                {
                    "name": "A2",
                    "midi": 45,
                    "time": 115.35379199999927,
                    "velocity": 0.3937007874015748,
                    "duration": 0.10013349999999832
                },
                {
                    "name": "C3",
                    "midi": 48,
                    "time": 115.35379199999927,
                    "velocity": 0.4645669291338583,
                    "duration": 0.10013349999999832
                },
                {
                    "name": "C3",
                    "midi": 48,
                    "time": 115.55405899999927,
                    "velocity": 0.4251968503937008,
                    "duration": 0.10013349999999832
                },
                {
                    "name": "A2",
                    "midi": 45,
                    "time": 115.55405899999927,
                    "velocity": 0.36220472440944884,
                    "duration": 0.10013349999999832
                },
                {
                    "name": "C3",
                    "midi": 48,
                    "time": 115.75432599999927,
                    "velocity": 0.4330708661417323,
                    "duration": 0.10013349999999832
                },
                {
                    "name": "A2",
                    "midi": 45,
                    "time": 115.75432599999927,
                    "velocity": 0.36220472440944884,
                    "duration": 0.10013349999999832
                },
                {
                    "name": "C3",
                    "midi": 48,
                    "time": 115.95459299999926,
                    "velocity": 0.4330708661417323,
                    "duration": 0.10013349999999832
                },
                {
                    "name": "A2",
                    "midi": 45,
                    "time": 115.95459299999926,
                    "velocity": 0.36220472440944884,
                    "duration": 0.10013349999999832
                },
                {
                    "name": "C3",
                    "midi": 48,
                    "time": 116.15485999999926,
                    "velocity": 0.4330708661417323,
                    "duration": 0.10013349999999832
                },
                {
                    "name": "A2",
                    "midi": 45,
                    "time": 116.15485999999926,
                    "velocity": 0.36220472440944884,
                    "duration": 0.10013349999999832
                },
                {
                    "name": "C3",
                    "midi": 48,
                    "time": 116.35512699999926,
                    "velocity": 0.4330708661417323,
                    "duration": 0.10013349999999832
                },
                {
                    "name": "A2",
                    "midi": 45,
                    "time": 116.35512699999926,
                    "velocity": 0.36220472440944884,
                    "duration": 0.10013349999999832
                },
                {
                    "name": "F#2",
                    "midi": 42,
                    "time": 116.55539399999925,
                    "velocity": 0.48031496062992124,
                    "duration": 0.10013349999999832
                },
                {
                    "name": "A2",
                    "midi": 45,
                    "time": 116.55539399999925,
                    "velocity": 0.48031496062992124,
                    "duration": 0.10013349999999832
                },
                {
                    "name": "C3",
                    "midi": 48,
                    "time": 116.55539399999925,
                    "velocity": 0.48031496062992124,
                    "duration": 0.10013349999999832
                },
                {
                    "name": "F#2",
                    "midi": 42,
                    "time": 116.75566099999925,
                    "velocity": 0.4409448818897638,
                    "duration": 0.10013349999999832
                },
                {
                    "name": "C3",
                    "midi": 48,
                    "time": 116.75566099999925,
                    "velocity": 0.4409448818897638,
                    "duration": 0.10013349999999832
                },
                {
                    "name": "A2",
                    "midi": 45,
                    "time": 116.75566099999925,
                    "velocity": 0.4409448818897638,
                    "duration": 0.10013349999999832
                },
                {
                    "name": "F#2",
                    "midi": 42,
                    "time": 116.95592799999925,
                    "velocity": 0.4409448818897638,
                    "duration": 0.10013349999999832
                },
                {
                    "name": "C3",
                    "midi": 48,
                    "time": 116.95592799999925,
                    "velocity": 0.4409448818897638,
                    "duration": 0.10013349999999832
                },
                {
                    "name": "A2",
                    "midi": 45,
                    "time": 116.95592799999925,
                    "velocity": 0.4409448818897638,
                    "duration": 0.10013349999999832
                },
                {
                    "name": "F#2",
                    "midi": 42,
                    "time": 117.15619499999924,
                    "velocity": 0.4409448818897638,
                    "duration": 0.10013349999999832
                },
                {
                    "name": "C3",
                    "midi": 48,
                    "time": 117.15619499999924,
                    "velocity": 0.4409448818897638,
                    "duration": 0.10013349999999832
                },
                {
                    "name": "A2",
                    "midi": 45,
                    "time": 117.15619499999924,
                    "velocity": 0.4409448818897638,
                    "duration": 0.10013349999999832
                },
                {
                    "name": "F#2",
                    "midi": 42,
                    "time": 117.35646199999924,
                    "velocity": 0.4409448818897638,
                    "duration": 0.10013349999999832
                },
                {
                    "name": "C3",
                    "midi": 48,
                    "time": 117.35646199999924,
                    "velocity": 0.4409448818897638,
                    "duration": 0.10013349999999832
                },
                {
                    "name": "A2",
                    "midi": 45,
                    "time": 117.35646199999924,
                    "velocity": 0.4409448818897638,
                    "duration": 0.10013349999999832
                },
                {
                    "name": "F#2",
                    "midi": 42,
                    "time": 117.55672899999924,
                    "velocity": 0.44881889763779526,
                    "duration": 0.10013349999999832
                },
                {
                    "name": "C3",
                    "midi": 48,
                    "time": 117.55672899999924,
                    "velocity": 0.44881889763779526,
                    "duration": 0.10013349999999832
                },
                {
                    "name": "A2",
                    "midi": 45,
                    "time": 117.55672899999924,
                    "velocity": 0.44881889763779526,
                    "duration": 0.10013349999999832
                },
                {
                    "name": "D#2",
                    "midi": 39,
                    "time": 117.75699599999923,
                    "velocity": 0.4094488188976378,
                    "duration": 0.10013349999999832
                },
                {
                    "name": "F#2",
                    "midi": 42,
                    "time": 117.75699599999923,
                    "velocity": 0.4094488188976378,
                    "duration": 0.10013349999999832
                },
                {
                    "name": "A2",
                    "midi": 45,
                    "time": 117.75699599999923,
                    "velocity": 0.4094488188976378,
                    "duration": 0.10013349999999832
                },
                {
                    "name": "C3",
                    "midi": 48,
                    "time": 117.75699599999923,
                    "velocity": 0.4881889763779528,
                    "duration": 0.10013349999999832
                },
                {
                    "name": "D#2",
                    "midi": 39,
                    "time": 117.95726299999923,
                    "velocity": 0.3779527559055118,
                    "duration": 0.10013349999999832
                },
                {
                    "name": "F#2",
                    "midi": 42,
                    "time": 117.95726299999923,
                    "velocity": 0.3779527559055118,
                    "duration": 0.10013349999999832
                },
                {
                    "name": "C3",
                    "midi": 48,
                    "time": 117.95726299999923,
                    "velocity": 0.44881889763779526,
                    "duration": 0.10013349999999832
                },
                {
                    "name": "A2",
                    "midi": 45,
                    "time": 117.95726299999923,
                    "velocity": 0.3779527559055118,
                    "duration": 0.10013349999999832
                },
                {
                    "name": "D#2",
                    "midi": 39,
                    "time": 118.15752999999923,
                    "velocity": 0.3779527559055118,
                    "duration": 0.10013349999999832
                },
                {
                    "name": "F#2",
                    "midi": 42,
                    "time": 118.15752999999923,
                    "velocity": 0.3779527559055118,
                    "duration": 0.10013349999999832
                },
                {
                    "name": "C3",
                    "midi": 48,
                    "time": 118.15752999999923,
                    "velocity": 0.44881889763779526,
                    "duration": 0.10013349999999832
                },
                {
                    "name": "A2",
                    "midi": 45,
                    "time": 118.15752999999923,
                    "velocity": 0.3779527559055118,
                    "duration": 0.10013349999999832
                },
                {
                    "name": "D#2",
                    "midi": 39,
                    "time": 118.35779699999922,
                    "velocity": 0.3779527559055118,
                    "duration": 0.10013349999999832
                },
                {
                    "name": "F#2",
                    "midi": 42,
                    "time": 118.35779699999922,
                    "velocity": 0.3779527559055118,
                    "duration": 0.10013349999999832
                },
                {
                    "name": "C3",
                    "midi": 48,
                    "time": 118.35779699999922,
                    "velocity": 0.44881889763779526,
                    "duration": 0.10013349999999832
                },
                {
                    "name": "A2",
                    "midi": 45,
                    "time": 118.35779699999922,
                    "velocity": 0.3779527559055118,
                    "duration": 0.10013349999999832
                },
                {
                    "name": "D#2",
                    "midi": 39,
                    "time": 118.55806399999922,
                    "velocity": 0.3858267716535433,
                    "duration": 0.10013349999999832
                },
                {
                    "name": "F#2",
                    "midi": 42,
                    "time": 118.55806399999922,
                    "velocity": 0.3858267716535433,
                    "duration": 0.10013349999999832
                },
                {
                    "name": "C3",
                    "midi": 48,
                    "time": 118.55806399999922,
                    "velocity": 0.4566929133858268,
                    "duration": 0.10013349999999832
                },
                {
                    "name": "A2",
                    "midi": 45,
                    "time": 118.55806399999922,
                    "velocity": 0.3858267716535433,
                    "duration": 0.10013349999999832
                },
                {
                    "name": "D#2",
                    "midi": 39,
                    "time": 118.75833099999922,
                    "velocity": 0.3858267716535433,
                    "duration": 0.10013349999999832
                },
                {
                    "name": "F#2",
                    "midi": 42,
                    "time": 118.75833099999922,
                    "velocity": 0.3858267716535433,
                    "duration": 0.10013349999999832
                },
                {
                    "name": "C3",
                    "midi": 48,
                    "time": 118.75833099999922,
                    "velocity": 0.4566929133858268,
                    "duration": 0.10013349999999832
                },
                {
                    "name": "A2",
                    "midi": 45,
                    "time": 118.75833099999922,
                    "velocity": 0.3858267716535433,
                    "duration": 0.10013349999999832
                },
                {
                    "name": "D2",
                    "midi": 38,
                    "time": 118.95859799999921,
                    "velocity": 0.4251968503937008,
                    "duration": 0.10013349999999832
                },
                {
                    "name": "F#2",
                    "midi": 42,
                    "time": 118.95859799999921,
                    "velocity": 0.4251968503937008,
                    "duration": 0.10013349999999832
                },
                {
                    "name": "A2",
                    "midi": 45,
                    "time": 118.95859799999921,
                    "velocity": 0.4251968503937008,
                    "duration": 0.10013349999999832
                },
                {
                    "name": "C3",
                    "midi": 48,
                    "time": 118.95859799999921,
                    "velocity": 0.5039370078740157,
                    "duration": 0.10013349999999832
                },
                {
                    "name": "D2",
                    "midi": 38,
                    "time": 119.15886499999921,
                    "velocity": 0.3858267716535433,
                    "duration": 0.10013349999999832
                },
                {
                    "name": "F#2",
                    "midi": 42,
                    "time": 119.15886499999921,
                    "velocity": 0.3858267716535433,
                    "duration": 0.10013349999999832
                },
                {
                    "name": "C3",
                    "midi": 48,
                    "time": 119.15886499999921,
                    "velocity": 0.4566929133858268,
                    "duration": 0.10013349999999832
                },
                {
                    "name": "A2",
                    "midi": 45,
                    "time": 119.15886499999921,
                    "velocity": 0.3858267716535433,
                    "duration": 0.10013349999999832
                },
                {
                    "name": "D2",
                    "midi": 38,
                    "time": 119.3591319999992,
                    "velocity": 0.3858267716535433,
                    "duration": 0.10013349999999832
                },
                {
                    "name": "F#2",
                    "midi": 42,
                    "time": 119.3591319999992,
                    "velocity": 0.3858267716535433,
                    "duration": 0.10013349999999832
                },
                {
                    "name": "C3",
                    "midi": 48,
                    "time": 119.3591319999992,
                    "velocity": 0.4566929133858268,
                    "duration": 0.10013349999999832
                },
                {
                    "name": "A2",
                    "midi": 45,
                    "time": 119.3591319999992,
                    "velocity": 0.3858267716535433,
                    "duration": 0.10013349999999832
                },
                {
                    "name": "D2",
                    "midi": 38,
                    "time": 119.5593989999992,
                    "velocity": 0.3858267716535433,
                    "duration": 0.10013349999999832
                },
                {
                    "name": "F#2",
                    "midi": 42,
                    "time": 119.5593989999992,
                    "velocity": 0.3858267716535433,
                    "duration": 0.10013349999999832
                },
                {
                    "name": "C3",
                    "midi": 48,
                    "time": 119.5593989999992,
                    "velocity": 0.4566929133858268,
                    "duration": 0.10013349999999832
                },
                {
                    "name": "A2",
                    "midi": 45,
                    "time": 119.5593989999992,
                    "velocity": 0.3858267716535433,
                    "duration": 0.10013349999999832
                },
                {
                    "name": "D2",
                    "midi": 38,
                    "time": 119.7596659999992,
                    "velocity": 0.3858267716535433,
                    "duration": 0.10013349999999832
                },
                {
                    "name": "F#2",
                    "midi": 42,
                    "time": 119.7596659999992,
                    "velocity": 0.3858267716535433,
                    "duration": 0.10013349999999832
                },
                {
                    "name": "C3",
                    "midi": 48,
                    "time": 119.7596659999992,
                    "velocity": 0.4566929133858268,
                    "duration": 0.10013349999999832
                },
                {
                    "name": "A2",
                    "midi": 45,
                    "time": 119.7596659999992,
                    "velocity": 0.3858267716535433,
                    "duration": 0.10013349999999832
                },
                {
                    "name": "D2",
                    "midi": 38,
                    "time": 119.9599329999992,
                    "velocity": 0.3858267716535433,
                    "duration": 0.10013349999999832
                },
                {
                    "name": "F#2",
                    "midi": 42,
                    "time": 119.9599329999992,
                    "velocity": 0.3858267716535433,
                    "duration": 0.10013349999999832
                },
                {
                    "name": "C3",
                    "midi": 48,
                    "time": 119.9599329999992,
                    "velocity": 0.4566929133858268,
                    "duration": 0.10013349999999832
                },
                {
                    "name": "A2",
                    "midi": 45,
                    "time": 119.9599329999992,
                    "velocity": 0.3858267716535433,
                    "duration": 0.10013349999999832
                },
                {
                    "name": "G2",
                    "midi": 43,
                    "time": 120.1601999999992,
                    "velocity": 0.5748031496062992,
                    "duration": 0.10013349999999832
                },
                {
                    "name": "G1",
                    "midi": 31,
                    "time": 120.1601999999992,
                    "velocity": 0.44881889763779526,
                    "duration": 0.10013349999999832
                },
                {
                    "name": "G1",
                    "midi": 31,
                    "time": 120.36046699999919,
                    "velocity": 0.4251968503937008,
                    "duration": 0.10013349999999832
                },
                {
                    "name": "G2",
                    "midi": 43,
                    "time": 120.36046699999919,
                    "velocity": 0.5039370078740157,
                    "duration": 0.10013349999999832
                },
                {
                    "name": "G2",
                    "midi": 43,
                    "time": 120.56073399999919,
                    "velocity": 0.5433070866141733,
                    "duration": 0.10013349999999832
                },
                {
                    "name": "G1",
                    "midi": 31,
                    "time": 120.56073399999919,
                    "velocity": 0.4251968503937008,
                    "duration": 0.10013349999999832
                },
                {
                    "name": "G2",
                    "midi": 43,
                    "time": 121.56206899999918,
                    "velocity": 0.2440944881889764,
                    "duration": 0.10013349999999832
                },
                {
                    "name": "G1",
                    "midi": 31,
                    "time": 121.56206899999918,
                    "velocity": 0.1732283464566929,
                    "duration": 0.10013349999999832
                },
                {
                    "name": "G1",
                    "midi": 31,
                    "time": 121.76233599999918,
                    "velocity": 0.1889763779527559,
                    "duration": 0.10013349999999832
                },
                {
                    "name": "G2",
                    "midi": 43,
                    "time": 121.76233599999918,
                    "velocity": 0.2755905511811024,
                    "duration": 0.10013349999999832
                },
                {
                    "name": "G2",
                    "midi": 43,
                    "time": 122.76367099999918,
                    "velocity": 0.2440944881889764,
                    "duration": 0.10013349999999832
                },
                {
                    "name": "G1",
                    "midi": 31,
                    "time": 122.76367099999918,
                    "velocity": 0.1732283464566929,
                    "duration": 0.10013349999999832
                },
                {
                    "name": "G1",
                    "midi": 31,
                    "time": 122.96393799999917,
                    "velocity": 0.1889763779527559,
                    "duration": 0.10013349999999832
                },
                {
                    "name": "G2",
                    "midi": 43,
                    "time": 122.96393799999917,
                    "velocity": 0.2755905511811024,
                    "duration": 0.10013349999999832
                },
                {
                    "name": "G1",
                    "midi": 31,
                    "time": 123.96527299999917,
                    "velocity": 0.2047244094488189,
                    "duration": 0.10013349999999832
                },
                {
                    "name": "G2",
                    "midi": 43,
                    "time": 123.96527299999917,
                    "velocity": 0.2440944881889764,
                    "duration": 0.10013349999999832
                },
                {
                    "name": "G1",
                    "midi": 31,
                    "time": 124.36580699999917,
                    "velocity": 0.2047244094488189,
                    "duration": 0.10013349999999832
                },
                {
                    "name": "G2",
                    "midi": 43,
                    "time": 124.36580699999917,
                    "velocity": 0.2440944881889764,
                    "duration": 0.10013349999999832
                },
                {
                    "name": "G1",
                    "midi": 31,
                    "time": 124.76634099999916,
                    "velocity": 0.2047244094488189,
                    "duration": 0.10013349999999832
                },
                {
                    "name": "G2",
                    "midi": 43,
                    "time": 124.76634099999916,
                    "velocity": 0.2440944881889764,
                    "duration": 0.10013349999999832
                },
                {
                    "name": "G2",
                    "midi": 43,
                    "time": 125.16687499999915,
                    "velocity": 0.2677165354330709,
                    "duration": 0.10013349999999832
                },
                {
                    "name": "G1",
                    "midi": 31,
                    "time": 125.16687499999915,
                    "velocity": 0.2204724409448819,
                    "duration": 0.10013349999999832
                },
                {
                    "name": "A2",
                    "midi": 45,
                    "time": 125.56740899999915,
                    "velocity": 0.2992125984251969,
                    "duration": 0.10013349999999832
                },
                {
                    "name": "A1",
                    "midi": 33,
                    "time": 125.56740899999915,
                    "velocity": 0.25196850393700787,
                    "duration": 0.10013349999999832
                },
                {
                    "name": "B2",
                    "midi": 47,
                    "time": 125.96794299999914,
                    "velocity": 0.30708661417322836,
                    "duration": 0.10013349999999832
                },
                {
                    "name": "B1",
                    "midi": 35,
                    "time": 125.96794299999914,
                    "velocity": 0.25984251968503935,
                    "duration": 0.10013349999999832
                },
                {
                    "name": "C3",
                    "midi": 48,
                    "time": 126.36847699999913,
                    "velocity": 0.30708661417322836,
                    "duration": 0.10013349999999832
                },
                {
                    "name": "C2",
                    "midi": 36,
                    "time": 126.36847699999913,
                    "velocity": 0.25984251968503935,
                    "duration": 0.10013349999999832
                },
                {
                    "name": "C#2",
                    "midi": 37,
                    "time": 126.76901099999913,
                    "velocity": 0.2677165354330709,
                    "duration": 0.10013349999999832
                },
                {
                    "name": "C#3",
                    "midi": 49,
                    "time": 126.76901099999913,
                    "velocity": 0.31496062992125984,
                    "duration": 0.10013349999999832
                },
                {
                    "name": "D2",
                    "midi": 38,
                    "time": 127.16954499999912,
                    "velocity": 0.2677165354330709,
                    "duration": 0.10013349999999832
                },
                {
                    "name": "D3",
                    "midi": 50,
                    "time": 127.16954499999912,
                    "velocity": 0.3228346456692913,
                    "duration": 0.10013349999999832
                },
                {
                    "name": "D#2",
                    "midi": 39,
                    "time": 127.57007899999911,
                    "velocity": 0.2755905511811024,
                    "duration": 0.10013349999999832
                },
                {
                    "name": "D#3",
                    "midi": 51,
                    "time": 127.57007899999911,
                    "velocity": 0.33070866141732286,
                    "duration": 0.10013349999999832
                },
                {
                    "name": "E2",
                    "midi": 40,
                    "time": 127.9706129999991,
                    "velocity": 0.30708661417322836,
                    "duration": 0.10013349999999832
                },
                {
                    "name": "E3",
                    "midi": 52,
                    "time": 127.9706129999991,
                    "velocity": 0.36220472440944884,
                    "duration": 0.10013349999999832
                },
                {
                    "name": "F2",
                    "midi": 41,
                    "time": 128.3711469999991,
                    "velocity": 0.31496062992125984,
                    "duration": 0.10013349999999832
                },
                {
                    "name": "F3",
                    "midi": 53,
                    "time": 128.3711469999991,
                    "velocity": 0.3779527559055118,
                    "duration": 0.10013349999999832
                },
                {
                    "name": "F#3",
                    "midi": 54,
                    "time": 128.7716809999991,
                    "velocity": 0.2755905511811024,
                    "duration": 0.10013349999999832
                },
                {
                    "name": "F#2",
                    "midi": 42,
                    "time": 128.7716809999991,
                    "velocity": 0.2283464566929134,
                    "duration": 0.10013349999999832
                },
                {
                    "name": "G3",
                    "midi": 55,
                    "time": 129.17221499999908,
                    "velocity": 0.23622047244094488,
                    "duration": 0.10013349999999832
                },
                {
                    "name": "G2",
                    "midi": 43,
                    "time": 129.17221499999908,
                    "velocity": 0.1968503937007874,
                    "duration": 0.10013349999999832
                },
                {
                    "name": "G3",
                    "midi": 55,
                    "time": 129.57274899999908,
                    "velocity": 0.2047244094488189,
                    "duration": 0.10013349999999832
                },
                {
                    "name": "G2",
                    "midi": 43,
                    "time": 129.57274899999908,
                    "velocity": 0.1732283464566929,
                    "duration": 0.10013349999999832
                },
                {
                    "name": "F4",
                    "midi": 65,
                    "time": 130.97461799999908,
                    "velocity": 0.2047244094488189,
                    "duration": 0.7927235416666747
                },
                {
                    "name": "B3",
                    "midi": 59,
                    "time": 131.7756859999991,
                    "velocity": 0.2047244094488189,
                    "duration": 0.4005339999999933
                },
                {
                    "name": "F4",
                    "midi": 65,
                    "time": 131.7756859999991,
                    "velocity": 0.2047244094488189,
                    "duration": 0.4005339999999933
                },
                {
                    "name": "C4",
                    "midi": 60,
                    "time": 132.1762199999991,
                    "velocity": 0.25984251968503935,
                    "duration": 0.4005339999999933
                },
                {
                    "name": "E4",
                    "midi": 64,
                    "time": 132.1762199999991,
                    "velocity": 0.25984251968503935,
                    "duration": 0.4005339999999933
                },
                {
                    "name": "C4",
                    "midi": 60,
                    "time": 132.57675399999908,
                    "velocity": 0.2047244094488189,
                    "duration": 0.4005339999999933
                },
                {
                    "name": "C#4",
                    "midi": 61,
                    "time": 132.97728799999908,
                    "velocity": 0.2047244094488189,
                    "duration": 0.4005339999999933
                },
                {
                    "name": "D4",
                    "midi": 62,
                    "time": 133.37782199999907,
                    "velocity": 0.25984251968503935,
                    "duration": 0.4005339999999933
                },
                {
                    "name": "A3",
                    "midi": 57,
                    "time": 133.77835599999906,
                    "velocity": 0.2047244094488189,
                    "duration": 0.4005339999999933
                },
                {
                    "name": "A#3",
                    "midi": 58,
                    "time": 134.17888999999906,
                    "velocity": 0.2047244094488189,
                    "duration": 0.392189541666653
                },
                {
                    "name": "B3",
                    "midi": 59,
                    "time": 134.57942399999905,
                    "velocity": 0.25196850393700787,
                    "duration": 0.4005339999999933
                },
                {
                    "name": "G3",
                    "midi": 55,
                    "time": 134.97995799999904,
                    "velocity": 0.2047244094488189,
                    "duration": 0.4005339999999933
                },
                {
                    "name": "D4",
                    "midi": 62,
                    "time": 135.38049199999904,
                    "velocity": 0.2047244094488189,
                    "duration": 0.4005339999999933
                },
                {
                    "name": "C#4",
                    "midi": 61,
                    "time": 135.78102599999903,
                    "velocity": 0.2440944881889764,
                    "duration": 0.4005339999999933
                },
                {
                    "name": "C4",
                    "midi": 60,
                    "time": 136.18155999999902,
                    "velocity": 0.2047244094488189,
                    "duration": 0.3755006250000008
                },
                {
                    "name": "A#3",
                    "midi": 58,
                    "time": 136.58209399999902,
                    "velocity": 0.2047244094488189,
                    "duration": 0.4005339999999933
                },
                {
                    "name": "C4",
                    "midi": 60,
                    "time": 136.58209399999902,
                    "velocity": 0.2047244094488189,
                    "duration": 0.8010679999999866
                },
                {
                    "name": "A3",
                    "midi": 57,
                    "time": 136.982627999999,
                    "velocity": 0.33858267716535434,
                    "duration": 0.4005339999999933
                },
                {
                    "name": "F4",
                    "midi": 65,
                    "time": 137.383161999999,
                    "velocity": 0.3779527559055118,
                    "duration": 0.4005339999999933
                },
                {
                    "name": "F3",
                    "midi": 53,
                    "time": 137.383161999999,
                    "velocity": 0.3779527559055118,
                    "duration": 0.4005339999999933
                },
                {
                    "name": "D4",
                    "midi": 62,
                    "time": 137.783695999999,
                    "velocity": 0.33070866141732286,
                    "duration": 0.4005339999999933
                },
                {
                    "name": "F#3",
                    "midi": 54,
                    "time": 137.783695999999,
                    "velocity": 0.33070866141732286,
                    "duration": 0.4005339999999933
                },
                {
                    "name": "C4",
                    "midi": 60,
                    "time": 138.184229999999,
                    "velocity": 0.3700787401574803,
                    "duration": 0.4005339999999933
                },
                {
                    "name": "G3",
                    "midi": 55,
                    "time": 138.184229999999,
                    "velocity": 0.3700787401574803,
                    "duration": 0.4005339999999933
                },
                {
                    "name": "A#3",
                    "midi": 58,
                    "time": 138.58476399999898,
                    "velocity": 0.3700787401574803,
                    "duration": 0.392189541666653
                },
                {
                    "name": "D3",
                    "midi": 50,
                    "time": 138.58476399999898,
                    "velocity": 0.3700787401574803,
                    "duration": 0.392189541666653
                },
                {
                    "name": "F3",
                    "midi": 53,
                    "time": 138.98529799999898,
                    "velocity": 0.33858267716535434,
                    "duration": 0.4005339999999933
                },
                {
                    "name": "A#3",
                    "midi": 58,
                    "time": 138.98529799999898,
                    "velocity": 0.33858267716535434,
                    "duration": 0.8010679999999866
                },
                {
                    "name": "E3",
                    "midi": 52,
                    "time": 139.38583199999897,
                    "velocity": 0.3228346456692913,
                    "duration": 0.4005339999999933
                },
                {
                    "name": "G4",
                    "midi": 67,
                    "time": 139.78636599999896,
                    "velocity": 0.4015748031496063,
                    "duration": 0.4005339999999933
                },
                {
                    "name": "C3",
                    "midi": 48,
                    "time": 140.18689999999896,
                    "velocity": 0.3464566929133858,
                    "duration": 0.4005339999999933
                },
                {
                    "name": "A#3",
                    "midi": 58,
                    "time": 140.18689999999896,
                    "velocity": 0.3464566929133858,
                    "duration": 0.8010679999999866
                },
                {
                    "name": "F3",
                    "midi": 53,
                    "time": 140.58743399999895,
                    "velocity": 0.3858267716535433,
                    "duration": 0.4005339999999933
                },
                {
                    "name": "F3",
                    "midi": 53,
                    "time": 140.98796799999894,
                    "velocity": 0.3464566929133858,
                    "duration": 0.4005339999999933
                },
                {
                    "name": "A3",
                    "midi": 57,
                    "time": 140.98796799999894,
                    "velocity": 0.3464566929133858,
                    "duration": 0.4005339999999933
                },
                {
                    "name": "A2",
                    "midi": 45,
                    "time": 141.38850199999894,
                    "velocity": 0.3937007874015748,
                    "duration": 0.8010679999999866
                },
                {
                    "name": "D3",
                    "midi": 50,
                    "time": 142.18956999999892,
                    "velocity": 0.4409448818897638,
                    "duration": 0.4005339999999933
                },
                {
                    "name": "A#2",
                    "midi": 46,
                    "time": 142.59010399999892,
                    "velocity": 0.3779527559055118,
                    "duration": 0.4005339999999933
                },
                {
                    "name": "A2",
                    "midi": 45,
                    "time": 142.9906379999989,
                    "velocity": 0.4566929133858268,
                    "duration": 0.4005339999999933
                },
                {
                    "name": "G#2",
                    "midi": 44,
                    "time": 143.3911719999989,
                    "velocity": 0.3937007874015748,
                    "duration": 0.392189541666653
                },
                {
                    "name": "G#2",
                    "midi": 44,
                    "time": 143.7917059999989,
                    "velocity": 0.4566929133858268,
                    "duration": 0.8010679999999866
                },
                {
                    "name": "E3",
                    "midi": 52,
                    "time": 144.59277399999888,
                    "velocity": 0.44881889763779526,
                    "duration": 0.8010679999999866
                },
                {
                    "name": "G#2",
                    "midi": 44,
                    "time": 144.99330799999888,
                    "velocity": 0.3937007874015748,
                    "duration": 0.4005339999999933
                },
                {
                    "name": "A2",
                    "midi": 45,
                    "time": 145.39384199999887,
                    "velocity": 0.4330708661417323,
                    "duration": 0.4005339999999933
                },
                {
                    "name": "E3",
                    "midi": 52,
                    "time": 145.79437599999886,
                    "velocity": 0.4645669291338583,
                    "duration": 0.8010679999999866
                },
                {
                    "name": "A2",
                    "midi": 45,
                    "time": 146.19490999999886,
                    "velocity": 0.4015748031496063,
                    "duration": 0.4005339999999933
                },
                {
                    "name": "B2",
                    "midi": 47,
                    "time": 146.59544399999885,
                    "velocity": 0.4409448818897638,
                    "duration": 0.4005339999999933
                },
                {
                    "name": "E3",
                    "midi": 52,
                    "time": 146.99597799999884,
                    "velocity": 0.4881889763779528,
                    "duration": 0.8010679999999866
                },
                {
                    "name": "B2",
                    "midi": 47,
                    "time": 147.39651199999884,
                    "velocity": 0.44881889763779526,
                    "duration": 0.4005339999999933
                },
                {
                    "name": "C3",
                    "midi": 48,
                    "time": 147.79704599999883,
                    "velocity": 0.48031496062992124,
                    "duration": 0.4005339999999933
                },
                {
                    "name": "E3",
                    "midi": 52,
                    "time": 148.19757999999882,
                    "velocity": 0.5354330708661418,
                    "duration": 0.8010679999999866
                },
                {
                    "name": "C3",
                    "midi": 48,
                    "time": 148.59811399999882,
                    "velocity": 0.4645669291338583,
                    "duration": 0.4005339999999933
                },
                {
                    "name": "D#3",
                    "midi": 51,
                    "time": 148.9986479999988,
                    "velocity": 0.5039370078740157,
                    "duration": 0.4005339999999933
                },
                {
                    "name": "B3",
                    "midi": 59,
                    "time": 149.3991819999988,
                    "velocity": 0.5354330708661418,
                    "duration": 0.8010679999999866
                },
                {
                    "name": "D#3",
                    "midi": 51,
                    "time": 149.7997159999988,
                    "velocity": 0.49606299212598426,
                    "duration": 0.4005339999999933
                },
                {
                    "name": "E3",
                    "midi": 52,
                    "time": 150.2002499999988,
                    "velocity": 0.5275590551181102,
                    "duration": 0.4005339999999933
                },
                {
                    "name": "C4",
                    "midi": 60,
                    "time": 150.60078399999878,
                    "velocity": 0.5748031496062992,
                    "duration": 0.8010679999999866
                },
                {
                    "name": "E3",
                    "midi": 52,
                    "time": 151.00131799999878,
                    "velocity": 0.49606299212598426,
                    "duration": 0.4005339999999933
                },
                {
                    "name": "F#3",
                    "midi": 54,
                    "time": 151.40185199999877,
                    "velocity": 0.5354330708661418,
                    "duration": 0.4005339999999933
                },
                {
                    "name": "D#4",
                    "midi": 63,
                    "time": 151.80238599999876,
                    "velocity": 0.5984251968503937,
                    "duration": 0.8010679999999866
                },
                {
                    "name": "F#3",
                    "midi": 54,
                    "time": 152.20291999999876,
                    "velocity": 0.5511811023622047,
                    "duration": 0.4005339999999933
                },
                {
                    "name": "G3",
                    "midi": 55,
                    "time": 152.60345399999875,
                    "velocity": 0.5826771653543307,
                    "duration": 0.4005339999999933
                },
                {
                    "name": "E4",
                    "midi": 64,
                    "time": 153.00398799999874,
                    "velocity": 0.6141732283464567,
                    "duration": 0.8010679999999866
                },
                {
                    "name": "G3",
                    "midi": 55,
                    "time": 153.40452199999874,
                    "velocity": 0.5905511811023622,
                    "duration": 0.4005339999999933
                },
                {
                    "name": "A3",
                    "midi": 57,
                    "time": 153.80505599999873,
                    "velocity": 0.6062992125984252,
                    "duration": 0.4005339999999933
                },
                {
                    "name": "F#4",
                    "midi": 66,
                    "time": 154.20558999999872,
                    "velocity": 0.6692913385826772,
                    "duration": 0.8010679999999866
                },
                {
                    "name": "A3",
                    "midi": 57,
                    "time": 154.60612399999872,
                    "velocity": 0.6377952755905512,
                    "duration": 0.4005339999999933
                },
                {
                    "name": "A#3",
                    "midi": 58,
                    "time": 155.0066579999987,
                    "velocity": 0.6535433070866141,
                    "duration": 0.4005339999999933
                },
                {
                    "name": "G4",
                    "midi": 67,
                    "time": 155.4071919999987,
                    "velocity": 0.7086614173228346,
                    "duration": 0.8010679999999866
                },
                {
                    "name": "A#3",
                    "midi": 58,
                    "time": 155.8077259999987,
                    "velocity": 0.6929133858267716,
                    "duration": 0.4005339999999933
                },
                {
                    "name": "B3",
                    "midi": 59,
                    "time": 156.2082599999987,
                    "velocity": 0.7795275590551181,
                    "duration": 1.2016019999999799
                },
                {
                    "name": "E4",
                    "midi": 64,
                    "time": 156.60879399999868,
                    "velocity": 0.6692913385826772,
                    "duration": 0.4005339999999933
                },
                {
                    "name": "G4",
                    "midi": 67,
                    "time": 157.00932799999867,
                    "velocity": 0.6692913385826772,
                    "duration": 0.4005339999999933
                },
                {
                    "name": "B4",
                    "midi": 71,
                    "time": 157.40986199999867,
                    "velocity": 0.7559055118110236,
                    "duration": 0.4005339999999933
                },
                {
                    "name": "E5",
                    "midi": 76,
                    "time": 157.81039599999866,
                    "velocity": 0.6692913385826772,
                    "duration": 0.4005339999999933
                },
                {
                    "name": "G5",
                    "midi": 79,
                    "time": 158.21092999999865,
                    "velocity": 0.6692913385826772,
                    "duration": 0.4005339999999933
                },
                {
                    "name": "G5",
                    "midi": 79,
                    "time": 159.01199799999864,
                    "velocity": 0.6771653543307087,
                    "duration": 0.10013349999999832
                },
                {
                    "name": "F#5",
                    "midi": 78,
                    "time": 159.11213149999864,
                    "velocity": 0.6220472440944882,
                    "duration": 0.10013349999999832
                },
                {
                    "name": "E5",
                    "midi": 76,
                    "time": 159.21226499999864,
                    "velocity": 0.6220472440944882,
                    "duration": 0.10013349999999832
                },
                {
                    "name": "D#5",
                    "midi": 75,
                    "time": 159.31239849999864,
                    "velocity": 0.5826771653543307,
                    "duration": 0.10013349999999832
                },
                {
                    "name": "E5",
                    "midi": 76,
                    "time": 159.41253199999863,
                    "velocity": 0.6692913385826772,
                    "duration": 0.20026699999999664
                },
                {
                    "name": "G5",
                    "midi": 79,
                    "time": 160.21359999999862,
                    "velocity": 0.3937007874015748,
                    "duration": 0.20026699999999664
                },
                {
                    "name": "F#5",
                    "midi": 78,
                    "time": 160.41386699999862,
                    "velocity": 0.3228346456692913,
                    "duration": 0.20026699999999664
                },
                {
                    "name": "E5",
                    "midi": 76,
                    "time": 160.61413399999861,
                    "velocity": 0.3543307086614173,
                    "duration": 0.20026699999999664
                },
                {
                    "name": "D#5",
                    "midi": 75,
                    "time": 160.8144009999986,
                    "velocity": 0.33070866141732286,
                    "duration": 0.20026699999999664
                },
                {
                    "name": "E5",
                    "midi": 76,
                    "time": 161.0146679999986,
                    "velocity": 0.3937007874015748,
                    "duration": 0.4005339999999933
                },
                {
                    "name": "G5",
                    "midi": 79,
                    "time": 161.8157359999986,
                    "velocity": 0.3228346456692913,
                    "duration": 0.4005339999999933
                },
                {
                    "name": "F#5",
                    "midi": 78,
                    "time": 162.2162699999986,
                    "velocity": 0.36220472440944884,
                    "duration": 0.4005339999999933
                },
                {
                    "name": "E5",
                    "midi": 76,
                    "time": 162.61680399999858,
                    "velocity": 0.30708661417322836,
                    "duration": 0.4005339999999933
                },
                {
                    "name": "D#5",
                    "midi": 75,
                    "time": 163.01733799999857,
                    "velocity": 0.30708661417322836,
                    "duration": 0.4005339999999933
                },
                {
                    "name": "E5",
                    "midi": 76,
                    "time": 163.41787199999857,
                    "velocity": 0.3543307086614173,
                    "duration": 0.4005339999999933
                },
                {
                    "name": "G5",
                    "midi": 79,
                    "time": 164.61947399999855,
                    "velocity": 0.31496062992125984,
                    "duration": 0.8010679999999866
                },
                {
                    "name": "F#5",
                    "midi": 78,
                    "time": 165.42054199999853,
                    "velocity": 0.29133858267716534,
                    "duration": 0.8010679999999866
                },
                {
                    "name": "E5",
                    "midi": 76,
                    "time": 166.22160999999852,
                    "velocity": 0.3228346456692913,
                    "duration": 0.4005339999999933
                },
                {
                    "name": "G4",
                    "midi": 67,
                    "time": 167.0226779999985,
                    "velocity": 0.4015748031496063,
                    "duration": 0.8010679999999866
                },
                {
                    "name": "F#4",
                    "midi": 66,
                    "time": 167.8237459999985,
                    "velocity": 0.4645669291338583,
                    "duration": 0.20026699999999664
                },
                {
                    "name": "E4",
                    "midi": 64,
                    "time": 168.0240129999985,
                    "velocity": 0.33070866141732286,
                    "duration": 0.19192254166665634
                },
                {
                    "name": "E4",
                    "midi": 64,
                    "time": 168.2242799999985,
                    "velocity": 0.3937007874015748,
                    "duration": 0.4005339999999933
                },
                {
                    "name": "G4",
                    "midi": 67,
                    "time": 169.02534799999847,
                    "velocity": 0.30708661417322836,
                    "duration": 0.4005339999999933
                },
                {
                    "name": "F#4",
                    "midi": 66,
                    "time": 169.42588199999847,
                    "velocity": 0.30708661417322836,
                    "duration": 0.20026699999999664
                },
                {
                    "name": "E4",
                    "midi": 64,
                    "time": 169.62614899999846,
                    "velocity": 0.30708661417322836,
                    "duration": 0.19192254166665634
                },
                {
                    "name": "E4",
                    "midi": 64,
                    "time": 169.82641599999846,
                    "velocity": 0.30708661417322836,
                    "duration": 0.20026699999999664
                },
                {
                    "name": "G5",
                    "midi": 79,
                    "time": 170.42721699999845,
                    "velocity": 0.4330708661417323,
                    "duration": 0.20026699999999664
                },
                {
                    "name": "F#5",
                    "midi": 78,
                    "time": 170.62748399999845,
                    "velocity": 0.48031496062992124,
                    "duration": 0.20026699999999664
                },
                {
                    "name": "E5",
                    "midi": 76,
                    "time": 170.82775099999844,
                    "velocity": 0.4409448818897638,
                    "duration": 0.20026699999999664
                },
                {
                    "name": "G5",
                    "midi": 79,
                    "time": 171.22828499999844,
                    "velocity": 0.4566929133858268,
                    "duration": 0.20026699999999664
                },
                {
                    "name": "F#5",
                    "midi": 78,
                    "time": 171.42855199999843,
                    "velocity": 0.5118110236220472,
                    "duration": 0.20026699999999664
                },
                {
                    "name": "E5",
                    "midi": 76,
                    "time": 171.62881899999843,
                    "velocity": 0.48031496062992124,
                    "duration": 0.20026699999999664
                },
                {
                    "name": "G3",
                    "midi": 55,
                    "time": 172.02935299999842,
                    "velocity": 0.5590551181102362,
                    "duration": 0.20026699999999664
                },
                {
                    "name": "F#3",
                    "midi": 54,
                    "time": 172.22961999999842,
                    "velocity": 0.6062992125984252,
                    "duration": 0.20026699999999664
                },
                {
                    "name": "E3",
                    "midi": 52,
                    "time": 172.42988699999842,
                    "velocity": 0.5826771653543307,
                    "duration": 0.10013349999999832
                },
                {
                    "name": "E2",
                    "midi": 40,
                    "time": 172.6301539999984,
                    "velocity": 0.5511811023622047,
                    "duration": 0.10013349999999832
                },
                {
                    "name": "E3",
                    "midi": 52,
                    "time": 172.6301539999984,
                    "velocity": 0.5511811023622047,
                    "duration": 0.10013349999999832
                },
                {
                    "name": "E2",
                    "midi": 40,
                    "time": 173.0306879999984,
                    "velocity": 0.48031496062992124,
                    "duration": 0.8010679999999866
                },
                {
                    "name": "E3",
                    "midi": 52,
                    "time": 173.0306879999984,
                    "velocity": 0.5669291338582677,
                    "duration": 0.8010679999999866
                },
                {
                    "name": "E3",
                    "midi": 52,
                    "time": 173.8317559999984,
                    "velocity": 0.49606299212598426,
                    "duration": 0.10013349999999832
                },
                {
                    "name": "E2",
                    "midi": 40,
                    "time": 173.8317559999984,
                    "velocity": 0.41732283464566927,
                    "duration": 0.10013349999999832
                },
                {
                    "name": "D2",
                    "midi": 38,
                    "time": 174.2322899999984,
                    "velocity": 0.48031496062992124,
                    "duration": 0.20026699999999664
                },
                {
                    "name": "D3",
                    "midi": 50,
                    "time": 174.2322899999984,
                    "velocity": 0.5669291338582677,
                    "duration": 0.20026699999999664
                },
                {
                    "name": "D4",
                    "midi": 62,
                    "time": 175.03335799999837,
                    "velocity": 0.2283464566929134,
                    "duration": 0.4005339999999933
                },
                {
                    "name": "C4",
                    "midi": 60,
                    "time": 175.43389199999837,
                    "velocity": 0.23622047244094488,
                    "duration": 0.6008009999999899
                },
                {
                    "name": "D4",
                    "midi": 62,
                    "time": 175.43389199999837,
                    "velocity": 0.28346456692913385,
                    "duration": 0.6008009999999899
                },
                {
                    "name": "D4",
                    "midi": 62,
                    "time": 176.03469299999836,
                    "velocity": 0.2440944881889764,
                    "duration": 0.20026699999999664
                },
                {
                    "name": "B3",
                    "midi": 59,
                    "time": 176.03469299999836,
                    "velocity": 0.2047244094488189,
                    "duration": 0.20026699999999664
                },
                {
                    "name": "A3",
                    "midi": 57,
                    "time": 176.23495999999835,
                    "velocity": 0.1889763779527559,
                    "duration": 0.30040049999999496
                },
                {
                    "name": "C4",
                    "midi": 60,
                    "time": 176.23495999999835,
                    "velocity": 0.2204724409448819,
                    "duration": 0.30040049999999496
                },
                {
                    "name": "G3",
                    "midi": 55,
                    "time": 176.63549399999835,
                    "velocity": 0.23622047244094488,
                    "duration": 0.30040049999999496
                },
                {
                    "name": "B3",
                    "midi": 59,
                    "time": 176.63549399999835,
                    "velocity": 0.28346456692913385,
                    "duration": 0.30040049999999496
                },
                {
                    "name": "G3",
                    "midi": 55,
                    "time": 177.43656199999833,
                    "velocity": 0.49606299212598426,
                    "duration": 0.10013349999999832
                },
                {
                    "name": "G2",
                    "midi": 43,
                    "time": 177.43656199999833,
                    "velocity": 0.41732283464566927,
                    "duration": 0.10013349999999832
                },
                {
                    "name": "G2",
                    "midi": 43,
                    "time": 177.83709599999833,
                    "velocity": 0.48031496062992124,
                    "duration": 0.8010679999999866
                },
                {
                    "name": "G3",
                    "midi": 55,
                    "time": 177.83709599999833,
                    "velocity": 0.5669291338582677,
                    "duration": 0.8010679999999866
                },
                {
                    "name": "G2",
                    "midi": 43,
                    "time": 178.6381639999983,
                    "velocity": 0.49606299212598426,
                    "duration": 0.10013349999999832
                },
                {
                    "name": "G1",
                    "midi": 31,
                    "time": 178.6381639999983,
                    "velocity": 0.41732283464566927,
                    "duration": 0.10013349999999832
                },
                {
                    "name": "F#1",
                    "midi": 30,
                    "time": 179.0386979999983,
                    "velocity": 0.48031496062992124,
                    "duration": 0.20026699999999664
                },
                {
                    "name": "F#2",
                    "midi": 42,
                    "time": 179.0386979999983,
                    "velocity": 0.5669291338582677,
                    "duration": 0.20026699999999664
                },
                {
                    "name": "F#4",
                    "midi": 66,
                    "time": 179.8397659999983,
                    "velocity": 0.2283464566929134,
                    "duration": 0.4005339999999933
                },
                {
                    "name": "E4",
                    "midi": 64,
                    "time": 180.24029999999829,
                    "velocity": 0.23622047244094488,
                    "duration": 0.6008009999999899
                },
                {
                    "name": "F#4",
                    "midi": 66,
                    "time": 180.24029999999829,
                    "velocity": 0.28346456692913385,
                    "duration": 0.6008009999999899
                },
                {
                    "name": "F#4",
                    "midi": 66,
                    "time": 180.84110099999828,
                    "velocity": 0.2440944881889764,
                    "duration": 0.20026699999999664
                },
                {
                    "name": "D4",
                    "midi": 62,
                    "time": 180.84110099999828,
                    "velocity": 0.2047244094488189,
                    "duration": 0.20026699999999664
                },
                {
                    "name": "C#4",
                    "midi": 61,
                    "time": 181.04136799999827,
                    "velocity": 0.1889763779527559,
                    "duration": 0.30040049999999496
                },
                {
                    "name": "E4",
                    "midi": 64,
                    "time": 181.04136799999827,
                    "velocity": 0.2204724409448819,
                    "duration": 0.30040049999999496
                },
                {
                    "name": "B3",
                    "midi": 59,
                    "time": 181.44190199999827,
                    "velocity": 0.23622047244094488,
                    "duration": 0.30040049999999496
                },
                {
                    "name": "D4",
                    "midi": 62,
                    "time": 181.44190199999827,
                    "velocity": 0.28346456692913385,
                    "duration": 0.30040049999999496
                },
                {
                    "name": "D4",
                    "midi": 62,
                    "time": 182.64350399999827,
                    "velocity": 0.2992125984251969,
                    "duration": 0.8010679999999866
                },
                {
                    "name": "B3",
                    "midi": 59,
                    "time": 182.64350399999827,
                    "velocity": 0.2992125984251969,
                    "duration": 1.2016019999999799
                },
                {
                    "name": "G4",
                    "midi": 67,
                    "time": 182.64350399999827,
                    "velocity": 0.3543307086614173,
                    "duration": 2.0026699999999664
                },
                {
                    "name": "E4",
                    "midi": 64,
                    "time": 183.44457199999826,
                    "velocity": 0.3937007874015748,
                    "duration": 1.2016019999999799
                },
                {
                    "name": "A3",
                    "midi": 57,
                    "time": 183.84510599999825,
                    "velocity": 0.30708661417322836,
                    "duration": 0.8010679999999866
                },
                {
                    "name": "F#4",
                    "midi": 66,
                    "time": 184.64617399999824,
                    "velocity": 0.2992125984251969,
                    "duration": 1.2016019999999799
                },
                {
                    "name": "D#4",
                    "midi": 63,
                    "time": 184.64617399999824,
                    "velocity": 0.25196850393700787,
                    "duration": 0.4005339999999933
                },
                {
                    "name": "D4",
                    "midi": 62,
                    "time": 185.04670799999823,
                    "velocity": 0.2677165354330709,
                    "duration": 0.8010679999999866
                },
                {
                    "name": "F#4",
                    "midi": 66,
                    "time": 185.84777599999822,
                    "velocity": 0.36220472440944884,
                    "duration": 0.4005339999999933
                },
                {
                    "name": "G4",
                    "midi": 67,
                    "time": 186.2483099999982,
                    "velocity": 0.36220472440944884,
                    "duration": 0.8010679999999866
                },
                {
                    "name": "G3",
                    "midi": 55,
                    "time": 187.0493779999982,
                    "velocity": 0.3543307086614173,
                    "duration": 0.4005339999999933
                },
                {
                    "name": "E3",
                    "midi": 52,
                    "time": 187.4499119999982,
                    "velocity": 0.3858267716535433,
                    "duration": 0.8010679999999866
                },
                {
                    "name": "E4",
                    "midi": 64,
                    "time": 188.25097999999818,
                    "velocity": 0.3228346456692913,
                    "duration": 0.4005339999999933
                },
                {
                    "name": "C4",
                    "midi": 60,
                    "time": 188.65151399999817,
                    "velocity": 0.31496062992125984,
                    "duration": 0.8010679999999866
                },
                {
                    "name": "C3",
                    "midi": 48,
                    "time": 189.45258199999816,
                    "velocity": 0.2204724409448819,
                    "duration": 1.6021360000000016
                },
                {
                    "name": "C2",
                    "midi": 36,
                    "time": 189.85311599999815,
                    "velocity": 0.2204724409448819,
                    "duration": 1.2016020000000083
                },
                {
                    "name": "B2",
                    "midi": 47,
                    "time": 191.05471799999816,
                    "velocity": 0.2204724409448819,
                    "duration": 0.720961200000005
                },
                {
                    "name": "B1",
                    "midi": 35,
                    "time": 191.05471799999816,
                    "velocity": 0.1889763779527559,
                    "duration": 0.720961200000005
                },
                {
                    "name": "B3",
                    "midi": 59,
                    "time": 192.25631999999817,
                    "velocity": 0.2677165354330709,
                    "duration": 1.2016020000000083
                },
                {
                    "name": "G2",
                    "midi": 43,
                    "time": 192.25631999999817,
                    "velocity": 0.2204724409448819,
                    "duration": 1.2016020000000083
                },
                {
                    "name": "E3",
                    "midi": 52,
                    "time": 192.25631999999817,
                    "velocity": 0.2204724409448819,
                    "duration": 2.403203999999988
                },
                {
                    "name": "A2",
                    "midi": 45,
                    "time": 193.45792199999818,
                    "velocity": 0.30708661417322836,
                    "duration": 0.8010679999999866
                },
                {
                    "name": "A#2",
                    "midi": 46,
                    "time": 194.25898999999816,
                    "velocity": 0.33858267716535434,
                    "duration": 0.4005339999999933
                },
                {
                    "name": "B2",
                    "midi": 47,
                    "time": 194.65952399999816,
                    "velocity": 0.3858267716535433,
                    "duration": 1.2016020000000083
                },
                {
                    "name": "G3",
                    "midi": 55,
                    "time": 195.86112599999817,
                    "velocity": 0.2283464566929134,
                    "duration": 0.8010679999999866
                },
                {
                    "name": "C3",
                    "midi": 48,
                    "time": 195.86112599999817,
                    "velocity": 0.1889763779527559,
                    "duration": 0.8010679999999866
                },
                {
                    "name": "B2",
                    "midi": 47,
                    "time": 196.66219399999815,
                    "velocity": 0.25196850393700787,
                    "duration": 0.20026699999999664
                },
                {
                    "name": "A2",
                    "midi": 45,
                    "time": 196.86246099999815,
                    "velocity": 0.2755905511811024,
                    "duration": 0.20026699999999664
                },
                {
                    "name": "E3",
                    "midi": 52,
                    "time": 197.06272799999815,
                    "velocity": 0.30708661417322836,
                    "duration": 2.4032039999999597
                },
                {
                    "name": "G2",
                    "midi": 43,
                    "time": 197.06272799999815,
                    "velocity": 0.30708661417322836,
                    "duration": 0.8010679999999866
                },
                {
                    "name": "B3",
                    "midi": 59,
                    "time": 197.06272799999815,
                    "velocity": 0.30708661417322836,
                    "duration": 1.2016019999999799
                },
                {
                    "name": "G#2",
                    "midi": 44,
                    "time": 197.86379599999813,
                    "velocity": 0.29133858267716534,
                    "duration": 0.4005339999999933
                },
                {
                    "name": "A2",
                    "midi": 45,
                    "time": 198.26432999999813,
                    "velocity": 0.30708661417322836,
                    "duration": 0.8010679999999866
                },
                {
                    "name": "A#2",
                    "midi": 46,
                    "time": 199.0653979999981,
                    "velocity": 0.2677165354330709,
                    "duration": 0.4005339999999933
                },
                {
                    "name": "B1",
                    "midi": 35,
                    "time": 199.4659319999981,
                    "velocity": 0.2283464566929134,
                    "duration": 1.2016020000000083
                },
                {
                    "name": "B2",
                    "midi": 47,
                    "time": 199.4659319999981,
                    "velocity": 0.2992125984251969,
                    "duration": 1.2016020000000083
                },
                {
                    "name": "E3",
                    "midi": 52,
                    "time": 200.6675339999981,
                    "velocity": 0.1732283464566929,
                    "duration": 0.4005339999999933
                },
                {
                    "name": "E2",
                    "midi": 40,
                    "time": 200.6675339999981,
                    "velocity": 0.14173228346456693,
                    "duration": 0.4005339999999933
                },
                {
                    "name": "G1",
                    "midi": 31,
                    "time": 201.4686019999981,
                    "velocity": 0.1968503937007874,
                    "duration": 0.10013349999999832
                },
                {
                    "name": "G2",
                    "midi": 43,
                    "time": 201.4686019999981,
                    "velocity": 0.23622047244094488,
                    "duration": 0.10013349999999832
                },
                {
                    "name": "G1",
                    "midi": 31,
                    "time": 201.8691359999981,
                    "velocity": 0.2204724409448819,
                    "duration": 0.8010679999999866
                },
                {
                    "name": "G2",
                    "midi": 43,
                    "time": 201.8691359999981,
                    "velocity": 0.2677165354330709,
                    "duration": 0.8010679999999866
                },
                {
                    "name": "C2",
                    "midi": 36,
                    "time": 202.67020399999808,
                    "velocity": 0.1968503937007874,
                    "duration": 0.10013349999999832
                },
                {
                    "name": "C3",
                    "midi": 48,
                    "time": 202.67020399999808,
                    "velocity": 0.23622047244094488,
                    "duration": 0.10013349999999832
                },
                {
                    "name": "C2",
                    "midi": 36,
                    "time": 203.07073799999807,
                    "velocity": 0.2204724409448819,
                    "duration": 0.8010679999999866
                },
                {
                    "name": "C3",
                    "midi": 48,
                    "time": 203.07073799999807,
                    "velocity": 0.2677165354330709,
                    "duration": 0.8010679999999866
                },
                {
                    "name": "G2",
                    "midi": 43,
                    "time": 203.87180599999806,
                    "velocity": 0.1968503937007874,
                    "duration": 0.10013349999999832
                },
                {
                    "name": "G3",
                    "midi": 55,
                    "time": 203.87180599999806,
                    "velocity": 0.23622047244094488,
                    "duration": 0.10013349999999832
                },
                {
                    "name": "G2",
                    "midi": 43,
                    "time": 204.27233999999805,
                    "velocity": 0.2204724409448819,
                    "duration": 0.8010679999999866
                },
                {
                    "name": "G3",
                    "midi": 55,
                    "time": 204.27233999999805,
                    "velocity": 0.2677165354330709,
                    "duration": 0.8010679999999866
                },
                {
                    "name": "C3",
                    "midi": 48,
                    "time": 205.07340799999804,
                    "velocity": 0.1968503937007874,
                    "duration": 0.10013349999999832
                },
                {
                    "name": "C4",
                    "midi": 60,
                    "time": 205.07340799999804,
                    "velocity": 0.23622047244094488,
                    "duration": 0.10013349999999832
                },
                {
                    "name": "C3",
                    "midi": 48,
                    "time": 205.47394199999803,
                    "velocity": 0.2204724409448819,
                    "duration": 0.8010679999999866
                },
                {
                    "name": "C4",
                    "midi": 60,
                    "time": 205.47394199999803,
                    "velocity": 0.2677165354330709,
                    "duration": 0.8010679999999866
                },
                {
                    "name": "B3",
                    "midi": 59,
                    "time": 206.27500999999802,
                    "velocity": 0.4251968503937008,
                    "duration": 0.10013349999999832
                },
                {
                    "name": "D4",
                    "midi": 62,
                    "time": 206.27500999999802,
                    "velocity": 0.4251968503937008,
                    "duration": 0.10013349999999832
                },
                {
                    "name": "F4",
                    "midi": 65,
                    "time": 206.27500999999802,
                    "velocity": 0.4251968503937008,
                    "duration": 0.10013349999999832
                },
                {
                    "name": "G4",
                    "midi": 67,
                    "time": 206.27500999999802,
                    "velocity": 0.5118110236220472,
                    "duration": 0.10013349999999832
                },
                {
                    "name": "B3",
                    "midi": 59,
                    "time": 206.675543999998,
                    "velocity": 0.4645669291338583,
                    "duration": 0.6008009999999899
                },
                {
                    "name": "D4",
                    "midi": 62,
                    "time": 206.675543999998,
                    "velocity": 0.4645669291338583,
                    "duration": 0.6008009999999899
                },
                {
                    "name": "F4",
                    "midi": 65,
                    "time": 206.675543999998,
                    "velocity": 0.4645669291338583,
                    "duration": 0.6008009999999899
                },
                {
                    "name": "G4",
                    "midi": 67,
                    "time": 206.675543999998,
                    "velocity": 0.5590551181102362,
                    "duration": 0.6008009999999899
                },
                {
                    "name": "B2",
                    "midi": 47,
                    "time": 209.87981599999802,
                    "velocity": 0.2283464566929134,
                    "duration": 0.10013349999999832
                },
                {
                    "name": "B1",
                    "midi": 35,
                    "time": 209.87981599999802,
                    "velocity": 0.1889763779527559,
                    "duration": 0.10013349999999832
                },
                {
                    "name": "C2",
                    "midi": 36,
                    "time": 210.280349999998,
                    "velocity": 0.2283464566929134,
                    "duration": 0.20026699999999664
                },
                {
                    "name": "C3",
                    "midi": 48,
                    "time": 210.280349999998,
                    "velocity": 0.2755905511811024,
                    "duration": 0.20026699999999664
                },
                {
                    "name": "E3",
                    "midi": 52,
                    "time": 211.081417999998,
                    "velocity": 0.4645669291338583,
                    "duration": 0.10013349999999832
                },
                {
                    "name": "G#3",
                    "midi": 56,
                    "time": 211.081417999998,
                    "velocity": 0.4645669291338583,
                    "duration": 0.10013349999999832
                },
                {
                    "name": "B3",
                    "midi": 59,
                    "time": 211.081417999998,
                    "velocity": 0.4645669291338583,
                    "duration": 0.10013349999999832
                },
                {
                    "name": "D4",
                    "midi": 62,
                    "time": 211.081417999998,
                    "velocity": 0.5590551181102362,
                    "duration": 0.10013349999999832
                },
                {
                    "name": "E3",
                    "midi": 52,
                    "time": 211.481951999998,
                    "velocity": 0.5118110236220472,
                    "duration": 0.6008009999999899
                },
                {
                    "name": "G#3",
                    "midi": 56,
                    "time": 211.481951999998,
                    "velocity": 0.5118110236220472,
                    "duration": 0.6008009999999899
                },
                {
                    "name": "B3",
                    "midi": 59,
                    "time": 211.481951999998,
                    "velocity": 0.5118110236220472,
                    "duration": 0.6008009999999899
                },
                {
                    "name": "D4",
                    "midi": 62,
                    "time": 211.481951999998,
                    "velocity": 0.6062992125984252,
                    "duration": 0.6008009999999899
                },
                {
                    "name": "G#2",
                    "midi": 44,
                    "time": 214.686223999998,
                    "velocity": 0.2283464566929134,
                    "duration": 0.10013349999999832
                },
                {
                    "name": "G#1",
                    "midi": 32,
                    "time": 214.686223999998,
                    "velocity": 0.1889763779527559,
                    "duration": 0.10013349999999832
                },
                {
                    "name": "A1",
                    "midi": 33,
                    "time": 215.08675799999799,
                    "velocity": 0.2283464566929134,
                    "duration": 0.20026699999999664
                },
                {
                    "name": "A2",
                    "midi": 45,
                    "time": 215.08675799999799,
                    "velocity": 0.2755905511811024,
                    "duration": 0.20026699999999664
                },
                {
                    "name": "F2",
                    "midi": 41,
                    "time": 215.88782599999797,
                    "velocity": 0.2440944881889764,
                    "duration": 0.20026699999999664
                },
                {
                    "name": "C3",
                    "midi": 48,
                    "time": 215.88782599999797,
                    "velocity": 0.2440944881889764,
                    "duration": 0.20026699999999664
                },
                {
                    "name": "A3",
                    "midi": 57,
                    "time": 215.88782599999797,
                    "velocity": 0.29133858267716534,
                    "duration": 0.20026699999999664
                },
                {
                    "name": "F2",
                    "midi": 41,
                    "time": 216.28835999999797,
                    "velocity": 0.2440944881889764,
                    "duration": 1.9943255416666545
                },
                {
                    "name": "C3",
                    "midi": 48,
                    "time": 216.28835999999797,
                    "velocity": 0.2440944881889764,
                    "duration": 1.9943255416666545
                },
                {
                    "name": "A3",
                    "midi": 57,
                    "time": 216.28835999999797,
                    "velocity": 0.29133858267716534,
                    "duration": 1.9943255416666545
                },
                {
                    "name": "F2",
                    "midi": 41,
                    "time": 218.29102999999796,
                    "velocity": 0.2440944881889764,
                    "duration": 0.4005339999999933
                },
                {
                    "name": "C3",
                    "midi": 48,
                    "time": 218.29102999999796,
                    "velocity": 0.28346456692913385,
                    "duration": 0.4005339999999933
                },
                {
                    "name": "F2",
                    "midi": 41,
                    "time": 218.69156399999795,
                    "velocity": 0.2440944881889764,
                    "duration": 0.8010679999999866
                },
                {
                    "name": "C3",
                    "midi": 48,
                    "time": 218.69156399999795,
                    "velocity": 0.28346456692913385,
                    "duration": 0.8010679999999866
                },
                {
                    "name": "C3",
                    "midi": 48,
                    "time": 219.49263199999794,
                    "velocity": 0.31496062992125984,
                    "duration": 0.36048059999998827
                },
                {
                    "name": "F2",
                    "midi": 41,
                    "time": 219.49263199999794,
                    "velocity": 0.2677165354330709,
                    "duration": 0.36048059999998827
                },
                {
                    "name": "F2",
                    "midi": 41,
                    "time": 219.89316599999793,
                    "velocity": 0.30708661417322836,
                    "duration": 0.8010679999999866
                },
                {
                    "name": "C3",
                    "midi": 48,
                    "time": 219.89316599999793,
                    "velocity": 0.36220472440944884,
                    "duration": 0.8010679999999866
                },
                {
                    "name": "F#2",
                    "midi": 42,
                    "time": 220.69423399999792,
                    "velocity": 0.3543307086614173,
                    "duration": 0.36048059999998827
                },
                {
                    "name": "C3",
                    "midi": 48,
                    "time": 220.69423399999792,
                    "velocity": 0.3543307086614173,
                    "duration": 0.36048059999998827
                },
                {
                    "name": "A3",
                    "midi": 57,
                    "time": 220.69423399999792,
                    "velocity": 0.41732283464566927,
                    "duration": 0.36048059999998827
                },
                {
                    "name": "F#2",
                    "midi": 42,
                    "time": 221.0947679999979,
                    "velocity": 0.3937007874015748,
                    "duration": 0.8010679999999866
                },
                {
                    "name": "A3",
                    "midi": 57,
                    "time": 221.0947679999979,
                    "velocity": 0.4645669291338583,
                    "duration": 0.8010679999999866
                },
                {
                    "name": "C3",
                    "midi": 48,
                    "time": 221.0947679999979,
                    "velocity": 0.3937007874015748,
                    "duration": 0.8010679999999866
                },
                {
                    "name": "F#2",
                    "midi": 42,
                    "time": 221.8958359999979,
                    "velocity": 0.3543307086614173,
                    "duration": 0.36048059999998827
                },
                {
                    "name": "C3",
                    "midi": 48,
                    "time": 221.8958359999979,
                    "velocity": 0.3543307086614173,
                    "duration": 0.36048059999998827
                },
                {
                    "name": "A3",
                    "midi": 57,
                    "time": 221.8958359999979,
                    "velocity": 0.41732283464566927,
                    "duration": 0.36048059999998827
                },
                {
                    "name": "F#2",
                    "midi": 42,
                    "time": 222.2963699999979,
                    "velocity": 0.4251968503937008,
                    "duration": 0.8010679999999866
                },
                {
                    "name": "A3",
                    "midi": 57,
                    "time": 222.2963699999979,
                    "velocity": 0.5039370078740157,
                    "duration": 0.8010679999999866
                },
                {
                    "name": "C3",
                    "midi": 48,
                    "time": 222.2963699999979,
                    "velocity": 0.4251968503937008,
                    "duration": 0.8010679999999866
                },
                {
                    "name": "F#2",
                    "midi": 42,
                    "time": 223.09743799999788,
                    "velocity": 0.3858267716535433,
                    "duration": 0.36048059999998827
                },
                {
                    "name": "C3",
                    "midi": 48,
                    "time": 223.09743799999788,
                    "velocity": 0.3858267716535433,
                    "duration": 0.36048059999998827
                },
                {
                    "name": "A3",
                    "midi": 57,
                    "time": 223.09743799999788,
                    "velocity": 0.4645669291338583,
                    "duration": 0.36048059999998827
                },
                {
                    "name": "F#2",
                    "midi": 42,
                    "time": 223.49797199999787,
                    "velocity": 0.4566929133858268,
                    "duration": 2.002669999999995
                },
                {
                    "name": "B2",
                    "midi": 47,
                    "time": 223.49797199999787,
                    "velocity": 0.4566929133858268,
                    "duration": 2.002669999999995
                },
                {
                    "name": "A3",
                    "midi": 57,
                    "time": 223.49797199999787,
                    "velocity": 0.4566929133858268,
                    "duration": 2.002669999999995
                },
                {
                    "name": "A3",
                    "midi": 57,
                    "time": 225.50064199999787,
                    "velocity": 0.5905511811023622,
                    "duration": 0.36048059999998827
                },
                {
                    "name": "B2",
                    "midi": 47,
                    "time": 225.50064199999787,
                    "velocity": 0.49606299212598426,
                    "duration": 0.36048059999998827
                },
                {
                    "name": "F#2",
                    "midi": 42,
                    "time": 225.50064199999787,
                    "velocity": 0.49606299212598426,
                    "duration": 0.36048059999998827
                },
                {
                    "name": "G3",
                    "midi": 55,
                    "time": 225.90117599999786,
                    "velocity": 0.3779527559055118,
                    "duration": 0.10013349999999832
                },
                {
                    "name": "B2",
                    "midi": 47,
                    "time": 225.90117599999786,
                    "velocity": 0.31496062992125984,
                    "duration": 0.10013349999999832
                },
                {
                    "name": "G2",
                    "midi": 43,
                    "time": 225.90117599999786,
                    "velocity": 0.31496062992125984,
                    "duration": 0.10013349999999832
                },
                {
                    "name": "G3",
                    "midi": 55,
                    "time": 226.10144299999786,
                    "velocity": 0.25984251968503935,
                    "duration": 0.10013349999999832
                },
                {
                    "name": "B3",
                    "midi": 59,
                    "time": 226.10144299999786,
                    "velocity": 0.31496062992125984,
                    "duration": 0.10013349999999832
                },
                {
                    "name": "G3",
                    "midi": 55,
                    "time": 226.30170999999785,
                    "velocity": 0.25984251968503935,
                    "duration": 0.10013349999999832
                },
                {
                    "name": "B3",
                    "midi": 59,
                    "time": 226.30170999999785,
                    "velocity": 0.31496062992125984,
                    "duration": 0.10013349999999832
                },
                {
                    "name": "G3",
                    "midi": 55,
                    "time": 226.50197699999785,
                    "velocity": 0.25984251968503935,
                    "duration": 0.10013349999999832
                },
                {
                    "name": "B3",
                    "midi": 59,
                    "time": 226.50197699999785,
                    "velocity": 0.31496062992125984,
                    "duration": 0.10013349999999832
                },
                {
                    "name": "G3",
                    "midi": 55,
                    "time": 226.70224399999785,
                    "velocity": 0.25984251968503935,
                    "duration": 0.10013349999999832
                },
                {
                    "name": "B3",
                    "midi": 59,
                    "time": 226.70224399999785,
                    "velocity": 0.31496062992125984,
                    "duration": 0.10013349999999832
                },
                {
                    "name": "G3",
                    "midi": 55,
                    "time": 226.90251099999784,
                    "velocity": 0.25984251968503935,
                    "duration": 0.10013349999999832
                },
                {
                    "name": "B3",
                    "midi": 59,
                    "time": 226.90251099999784,
                    "velocity": 0.31496062992125984,
                    "duration": 0.10013349999999832
                },
                {
                    "name": "B3",
                    "midi": 59,
                    "time": 227.10277799999784,
                    "velocity": 0.3779527559055118,
                    "duration": 0.10013349999999832
                },
                {
                    "name": "G#3",
                    "midi": 56,
                    "time": 227.10277799999784,
                    "velocity": 0.31496062992125984,
                    "duration": 0.10013349999999832
                },
                {
                    "name": "G#3",
                    "midi": 56,
                    "time": 227.30304499999784,
                    "velocity": 0.2677165354330709,
                    "duration": 0.10013349999999832
                },
                {
                    "name": "B3",
                    "midi": 59,
                    "time": 227.30304499999784,
                    "velocity": 0.3228346456692913,
                    "duration": 0.10013349999999832
                },
                {
                    "name": "G#3",
                    "midi": 56,
                    "time": 227.50331199999783,
                    "velocity": 0.2677165354330709,
                    "duration": 0.10013349999999832
                },
                {
                    "name": "B3",
                    "midi": 59,
                    "time": 227.50331199999783,
                    "velocity": 0.3228346456692913,
                    "duration": 0.10013349999999832
                },
                {
                    "name": "G#3",
                    "midi": 56,
                    "time": 227.70357899999783,
                    "velocity": 0.2677165354330709,
                    "duration": 0.10013349999999832
                },
                {
                    "name": "B3",
                    "midi": 59,
                    "time": 227.70357899999783,
                    "velocity": 0.3228346456692913,
                    "duration": 0.10013349999999832
                },
                {
                    "name": "G#3",
                    "midi": 56,
                    "time": 227.90384599999783,
                    "velocity": 0.2677165354330709,
                    "duration": 0.10013349999999832
                },
                {
                    "name": "B3",
                    "midi": 59,
                    "time": 227.90384599999783,
                    "velocity": 0.3228346456692913,
                    "duration": 0.10013349999999832
                },
                {
                    "name": "G#3",
                    "midi": 56,
                    "time": 228.10411299999782,
                    "velocity": 0.2677165354330709,
                    "duration": 0.10013349999999832
                },
                {
                    "name": "B3",
                    "midi": 59,
                    "time": 228.10411299999782,
                    "velocity": 0.3228346456692913,
                    "duration": 0.10013349999999832
                },
                {
                    "name": "D4",
                    "midi": 62,
                    "time": 228.30437999999782,
                    "velocity": 0.3464566929133858,
                    "duration": 0.10013349999999832
                },
                {
                    "name": "B3",
                    "midi": 59,
                    "time": 228.30437999999782,
                    "velocity": 0.29133858267716534,
                    "duration": 0.10013349999999832
                },
                {
                    "name": "G#3",
                    "midi": 56,
                    "time": 228.30437999999782,
                    "velocity": 0.29133858267716534,
                    "duration": 0.10013349999999832
                },
                {
                    "name": "D4",
                    "midi": 62,
                    "time": 228.50047477083115,
                    "velocity": 0.2677165354330709,
                    "duration": 0.10013349999999832
                },
                {
                    "name": "G#3",
                    "midi": 56,
                    "time": 228.50464699999782,
                    "velocity": 0.2204724409448819,
                    "duration": 0.10013349999999832
                },
                {
                    "name": "B3",
                    "midi": 59,
                    "time": 228.50464699999782,
                    "velocity": 0.2204724409448819,
                    "duration": 0.10013349999999832
                },
                {
                    "name": "C4",
                    "midi": 60,
                    "time": 228.7049139999978,
                    "velocity": 0.3464566929133858,
                    "duration": 0.10013349999999832
                },
                {
                    "name": "A3",
                    "midi": 57,
                    "time": 228.7049139999978,
                    "velocity": 0.29133858267716534,
                    "duration": 0.10013349999999832
                },
                {
                    "name": "C4",
                    "midi": 60,
                    "time": 228.9051809999978,
                    "velocity": 0.29133858267716534,
                    "duration": 0.10013349999999832
                },
                {
                    "name": "A3",
                    "midi": 57,
                    "time": 228.9051809999978,
                    "velocity": 0.23622047244094488,
                    "duration": 0.10013349999999832
                },
                {
                    "name": "C4",
                    "midi": 60,
                    "time": 229.1054479999978,
                    "velocity": 0.29133858267716534,
                    "duration": 0.10013349999999832
                },
                {
                    "name": "A3",
                    "midi": 57,
                    "time": 229.1054479999978,
                    "velocity": 0.23622047244094488,
                    "duration": 0.10013349999999832
                },
                {
                    "name": "C4",
                    "midi": 60,
                    "time": 229.3057149999978,
                    "velocity": 0.29133858267716534,
                    "duration": 0.10013349999999832
                },
                {
                    "name": "A3",
                    "midi": 57,
                    "time": 229.3057149999978,
                    "velocity": 0.23622047244094488,
                    "duration": 0.10013349999999832
                },
                {
                    "name": "E4",
                    "midi": 64,
                    "time": 229.5059819999978,
                    "velocity": 0.3543307086614173,
                    "duration": 0.10013349999999832
                },
                {
                    "name": "C4",
                    "midi": 60,
                    "time": 229.5059819999978,
                    "velocity": 0.29133858267716534,
                    "duration": 0.10013349999999832
                },
                {
                    "name": "A3",
                    "midi": 57,
                    "time": 229.5059819999978,
                    "velocity": 0.29133858267716534,
                    "duration": 0.10013349999999832
                },
                {
                    "name": "E4",
                    "midi": 64,
                    "time": 229.7062489999978,
                    "velocity": 0.29133858267716534,
                    "duration": 0.10013349999999832
                },
                {
                    "name": "C4",
                    "midi": 60,
                    "time": 229.7062489999978,
                    "velocity": 0.23622047244094488,
                    "duration": 0.10013349999999832
                },
                {
                    "name": "A3",
                    "midi": 57,
                    "time": 229.7062489999978,
                    "velocity": 0.23622047244094488,
                    "duration": 0.10013349999999832
                },
                {
                    "name": "D4",
                    "midi": 62,
                    "time": 229.9065159999978,
                    "velocity": 0.3464566929133858,
                    "duration": 0.10013349999999832
                },
                {
                    "name": "B3",
                    "midi": 59,
                    "time": 229.9065159999978,
                    "velocity": 0.29133858267716534,
                    "duration": 0.10013349999999832
                },
                {
                    "name": "B3",
                    "midi": 59,
                    "time": 230.1067829999978,
                    "velocity": 0.2440944881889764,
                    "duration": 0.10013349999999832
                },
                {
                    "name": "D4",
                    "midi": 62,
                    "time": 230.1067829999978,
                    "velocity": 0.2992125984251969,
                    "duration": 0.10013349999999832
                },
                {
                    "name": "B3",
                    "midi": 59,
                    "time": 230.3070499999978,
                    "velocity": 0.2440944881889764,
                    "duration": 0.10013349999999832
                },
                {
                    "name": "D4",
                    "midi": 62,
                    "time": 230.3070499999978,
                    "velocity": 0.2992125984251969,
                    "duration": 0.10013349999999832
                },
                {
                    "name": "B3",
                    "midi": 59,
                    "time": 230.50731699999778,
                    "velocity": 0.2440944881889764,
                    "duration": 0.10013349999999832
                },
                {
                    "name": "D4",
                    "midi": 62,
                    "time": 230.50731699999778,
                    "velocity": 0.2992125984251969,
                    "duration": 0.10013349999999832
                },
                {
                    "name": "E4",
                    "midi": 64,
                    "time": 230.70758399999778,
                    "velocity": 0.3464566929133858,
                    "duration": 0.10013349999999832
                },
                {
                    "name": "D4",
                    "midi": 62,
                    "time": 230.70758399999778,
                    "velocity": 0.29133858267716534,
                    "duration": 0.10013349999999832
                },
                {
                    "name": "B3",
                    "midi": 59,
                    "time": 230.70758399999778,
                    "velocity": 0.29133858267716534,
                    "duration": 0.10013349999999832
                },
                {
                    "name": "B3",
                    "midi": 59,
                    "time": 230.90785099999778,
                    "velocity": 0.23622047244094488,
                    "duration": 0.10013349999999832
                },
                {
                    "name": "D4",
                    "midi": 62,
                    "time": 230.90785099999778,
                    "velocity": 0.23622047244094488,
                    "duration": 0.10013349999999832
                },
                {
                    "name": "E4",
                    "midi": 64,
                    "time": 230.90785099999778,
                    "velocity": 0.29133858267716534,
                    "duration": 0.10013349999999832
                },
                {
                    "name": "E4",
                    "midi": 64,
                    "time": 231.10811799999777,
                    "velocity": 0.3464566929133858,
                    "duration": 0.10013349999999832
                },
                {
                    "name": "C4",
                    "midi": 60,
                    "time": 231.10811799999777,
                    "velocity": 0.29133858267716534,
                    "duration": 0.10013349999999832
                },
                {
                    "name": "C4",
                    "midi": 60,
                    "time": 231.30838499999777,
                    "velocity": 0.25984251968503935,
                    "duration": 0.10013349999999832
                },
                {
                    "name": "E4",
                    "midi": 64,
                    "time": 231.30838499999777,
                    "velocity": 0.30708661417322836,
                    "duration": 0.10013349999999832
                },
                {
                    "name": "C4",
                    "midi": 60,
                    "time": 231.50865199999777,
                    "velocity": 0.25984251968503935,
                    "duration": 0.10013349999999832
                },
                {
                    "name": "E4",
                    "midi": 64,
                    "time": 231.50865199999777,
                    "velocity": 0.30708661417322836,
                    "duration": 0.10013349999999832
                },
                {
                    "name": "C4",
                    "midi": 60,
                    "time": 231.70891899999776,
                    "velocity": 0.25984251968503935,
                    "duration": 0.10013349999999832
                },
                {
                    "name": "E4",
                    "midi": 64,
                    "time": 231.70891899999776,
                    "velocity": 0.30708661417322836,
                    "duration": 0.10013349999999832
                },
                {
                    "name": "C4",
                    "midi": 60,
                    "time": 231.90918599999776,
                    "velocity": 0.3228346456692913,
                    "duration": 0.10013349999999832
                },
                {
                    "name": "E4",
                    "midi": 64,
                    "time": 231.90918599999776,
                    "velocity": 0.3858267716535433,
                    "duration": 0.10013349999999832
                },
                {
                    "name": "C#4",
                    "midi": 61,
                    "time": 232.10945299999776,
                    "velocity": 0.29133858267716534,
                    "duration": 0.10013349999999832
                },
                {
                    "name": "E4",
                    "midi": 64,
                    "time": 232.10945299999776,
                    "velocity": 0.3464566929133858,
                    "duration": 0.10013349999999832
                },
                {
                    "name": "C#4",
                    "midi": 61,
                    "time": 232.30971999999775,
                    "velocity": 0.30708661417322836,
                    "duration": 0.10013349999999832
                },
                {
                    "name": "E4",
                    "midi": 64,
                    "time": 232.30971999999775,
                    "velocity": 0.3700787401574803,
                    "duration": 0.10013349999999832
                },
                {
                    "name": "C#4",
                    "midi": 61,
                    "time": 232.50998699999775,
                    "velocity": 0.2755905511811024,
                    "duration": 0.10013349999999832
                },
                {
                    "name": "E4",
                    "midi": 64,
                    "time": 232.50998699999775,
                    "velocity": 0.3228346456692913,
                    "duration": 0.10013349999999832
                },
                {
                    "name": "C#4",
                    "midi": 61,
                    "time": 232.71025399999775,
                    "velocity": 0.28346456692913385,
                    "duration": 0.10013349999999832
                },
                {
                    "name": "E4",
                    "midi": 64,
                    "time": 232.71025399999775,
                    "velocity": 0.33070866141732286,
                    "duration": 0.10013349999999832
                },
                {
                    "name": "C#4",
                    "midi": 61,
                    "time": 232.91052099999774,
                    "velocity": 0.28346456692913385,
                    "duration": 0.10013349999999832
                },
                {
                    "name": "E4",
                    "midi": 64,
                    "time": 232.91052099999774,
                    "velocity": 0.33070866141732286,
                    "duration": 0.10013349999999832
                },
                {
                    "name": "F#4",
                    "midi": 66,
                    "time": 233.11078799999774,
                    "velocity": 0.2677165354330709,
                    "duration": 0.10013349999999832
                },
                {
                    "name": "F#4",
                    "midi": 66,
                    "time": 233.31105499999774,
                    "velocity": 0.25196850393700787,
                    "duration": 0.10013349999999832
                },
                {
                    "name": "F#4",
                    "midi": 66,
                    "time": 233.51132199999773,
                    "velocity": 0.25196850393700787,
                    "duration": 0.10013349999999832
                },
                {
                    "name": "F#4",
                    "midi": 66,
                    "time": 233.71158899999773,
                    "velocity": 0.25196850393700787,
                    "duration": 0.10013349999999832
                },
                {
                    "name": "F#4",
                    "midi": 66,
                    "time": 233.91185599999773,
                    "velocity": 0.25196850393700787,
                    "duration": 0.10013349999999832
                },
                {
                    "name": "F#4",
                    "midi": 66,
                    "time": 234.11212299999772,
                    "velocity": 0.25196850393700787,
                    "duration": 0.10013349999999832
                },
                {
                    "name": "F#4",
                    "midi": 66,
                    "time": 234.31238999999772,
                    "velocity": 0.31496062992125984,
                    "duration": 0.10013349999999832
                },
                {
                    "name": "F#4",
                    "midi": 66,
                    "time": 234.51265699999772,
                    "velocity": 0.3543307086614173,
                    "duration": 0.10013349999999832
                },
                {
                    "name": "F#4",
                    "midi": 66,
                    "time": 234.7129239999977,
                    "velocity": 0.3858267716535433,
                    "duration": 0.10013349999999832
                },
                {
                    "name": "F#4",
                    "midi": 66,
                    "time": 234.9131909999977,
                    "velocity": 0.4094488188976378,
                    "duration": 0.10013349999999832
                },
                {
                    "name": "F#4",
                    "midi": 66,
                    "time": 235.1134579999977,
                    "velocity": 0.4409448818897638,
                    "duration": 0.10013349999999832
                },
                {
                    "name": "F#4",
                    "midi": 66,
                    "time": 235.3137249999977,
                    "velocity": 0.4566929133858268,
                    "duration": 0.10013349999999832
                },
                {
                    "name": "B3",
                    "midi": 59,
                    "time": 235.5139919999977,
                    "velocity": 0.47244094488188976,
                    "duration": 0.10013349999999832
                },
                {
                    "name": "D#4",
                    "midi": 63,
                    "time": 235.5139919999977,
                    "velocity": 0.47244094488188976,
                    "duration": 0.10013349999999832
                },
                {
                    "name": "F#4",
                    "midi": 66,
                    "time": 235.5139919999977,
                    "velocity": 0.47244094488188976,
                    "duration": 0.10013349999999832
                },
                {
                    "name": "A4",
                    "midi": 69,
                    "time": 235.5139919999977,
                    "velocity": 0.5590551181102362,
                    "duration": 0.10013349999999832
                },
                {
                    "name": "A4",
                    "midi": 69,
                    "time": 235.7142589999977,
                    "velocity": 0.4645669291338583,
                    "duration": 0.10013349999999832
                },
                {
                    "name": "F#4",
                    "midi": 66,
                    "time": 235.7142589999977,
                    "velocity": 0.3858267716535433,
                    "duration": 0.10013349999999832
                },
                {
                    "name": "D#4",
                    "midi": 63,
                    "time": 235.7142589999977,
                    "velocity": 0.3858267716535433,
                    "duration": 0.10013349999999832
                },
                {
                    "name": "B3",
                    "midi": 59,
                    "time": 235.7142589999977,
                    "velocity": 0.3858267716535433,
                    "duration": 0.10013349999999832
                },
                {
                    "name": "A4",
                    "midi": 69,
                    "time": 235.9145259999977,
                    "velocity": 0.4645669291338583,
                    "duration": 0.10013349999999832
                },
                {
                    "name": "F#4",
                    "midi": 66,
                    "time": 235.9145259999977,
                    "velocity": 0.3858267716535433,
                    "duration": 0.10013349999999832
                },
                {
                    "name": "D#4",
                    "midi": 63,
                    "time": 235.9145259999977,
                    "velocity": 0.3858267716535433,
                    "duration": 0.10013349999999832
                },
                {
                    "name": "B3",
                    "midi": 59,
                    "time": 235.9145259999977,
                    "velocity": 0.3858267716535433,
                    "duration": 0.10013349999999832
                },
                {
                    "name": "A4",
                    "midi": 69,
                    "time": 236.1147929999977,
                    "velocity": 0.4645669291338583,
                    "duration": 0.10013349999999832
                },
                {
                    "name": "F#4",
                    "midi": 66,
                    "time": 236.1147929999977,
                    "velocity": 0.3858267716535433,
                    "duration": 0.10013349999999832
                },
                {
                    "name": "D#4",
                    "midi": 63,
                    "time": 236.1147929999977,
                    "velocity": 0.3858267716535433,
                    "duration": 0.10013349999999832
                },
                {
                    "name": "B3",
                    "midi": 59,
                    "time": 236.1147929999977,
                    "velocity": 0.3858267716535433,
                    "duration": 0.10013349999999832
                },
                {
                    "name": "A4",
                    "midi": 69,
                    "time": 236.3150599999977,
                    "velocity": 0.4645669291338583,
                    "duration": 0.10013349999999832
                },
                {
                    "name": "F#4",
                    "midi": 66,
                    "time": 236.3150599999977,
                    "velocity": 0.3858267716535433,
                    "duration": 0.10013349999999832
                },
                {
                    "name": "D#4",
                    "midi": 63,
                    "time": 236.3150599999977,
                    "velocity": 0.3858267716535433,
                    "duration": 0.10013349999999832
                },
                {
                    "name": "B3",
                    "midi": 59,
                    "time": 236.3150599999977,
                    "velocity": 0.3858267716535433,
                    "duration": 0.10013349999999832
                },
                {
                    "name": "A4",
                    "midi": 69,
                    "time": 236.51532699999768,
                    "velocity": 0.4645669291338583,
                    "duration": 0.10013349999999832
                },
                {
                    "name": "F#4",
                    "midi": 66,
                    "time": 236.51532699999768,
                    "velocity": 0.3858267716535433,
                    "duration": 0.10013349999999832
                },
                {
                    "name": "D#4",
                    "midi": 63,
                    "time": 236.51532699999768,
                    "velocity": 0.3858267716535433,
                    "duration": 0.10013349999999832
                },
                {
                    "name": "B3",
                    "midi": 59,
                    "time": 236.51532699999768,
                    "velocity": 0.3858267716535433,
                    "duration": 0.10013349999999832
                },
                {
                    "name": "A4",
                    "midi": 69,
                    "time": 236.71559399999768,
                    "velocity": 0.5039370078740157,
                    "duration": 0.10013349999999832
                },
                {
                    "name": "F#4",
                    "midi": 66,
                    "time": 236.71559399999768,
                    "velocity": 0.41732283464566927,
                    "duration": 0.10013349999999832
                },
                {
                    "name": "D#4",
                    "midi": 63,
                    "time": 236.71559399999768,
                    "velocity": 0.41732283464566927,
                    "duration": 0.10013349999999832
                },
                {
                    "name": "B3",
                    "midi": 59,
                    "time": 236.71559399999768,
                    "velocity": 0.41732283464566927,
                    "duration": 0.10013349999999832
                },
                {
                    "name": "B3",
                    "midi": 59,
                    "time": 236.91586099999768,
                    "velocity": 0.4015748031496063,
                    "duration": 0.10013349999999832
                },
                {
                    "name": "D#4",
                    "midi": 63,
                    "time": 236.91586099999768,
                    "velocity": 0.4015748031496063,
                    "duration": 0.10013349999999832
                },
                {
                    "name": "F#4",
                    "midi": 66,
                    "time": 236.91586099999768,
                    "velocity": 0.4015748031496063,
                    "duration": 0.10013349999999832
                },
                {
                    "name": "A4",
                    "midi": 69,
                    "time": 236.91586099999768,
                    "velocity": 0.47244094488188976,
                    "duration": 0.10013349999999832
                },
                {
                    "name": "B3",
                    "midi": 59,
                    "time": 237.11612799999767,
                    "velocity": 0.3700787401574803,
                    "duration": 0.10013349999999832
                },
                {
                    "name": "D#4",
                    "midi": 63,
                    "time": 237.11612799999767,
                    "velocity": 0.3700787401574803,
                    "duration": 0.10013349999999832
                },
                {
                    "name": "F#4",
                    "midi": 66,
                    "time": 237.11612799999767,
                    "velocity": 0.3700787401574803,
                    "duration": 0.10013349999999832
                },
                {
                    "name": "A4",
                    "midi": 69,
                    "time": 237.11612799999767,
                    "velocity": 0.44881889763779526,
                    "duration": 0.10013349999999832
                },
                {
                    "name": "B3",
                    "midi": 59,
                    "time": 237.31639499999767,
                    "velocity": 0.3464566929133858,
                    "duration": 0.10013349999999832
                },
                {
                    "name": "D#4",
                    "midi": 63,
                    "time": 237.31639499999767,
                    "velocity": 0.3464566929133858,
                    "duration": 0.10013349999999832
                },
                {
                    "name": "F#4",
                    "midi": 66,
                    "time": 237.31639499999767,
                    "velocity": 0.3464566929133858,
                    "duration": 0.10013349999999832
                },
                {
                    "name": "A4",
                    "midi": 69,
                    "time": 237.31639499999767,
                    "velocity": 0.4094488188976378,
                    "duration": 0.10013349999999832
                },
                {
                    "name": "B3",
                    "midi": 59,
                    "time": 237.51666199999767,
                    "velocity": 0.30708661417322836,
                    "duration": 0.10013349999999832
                },
                {
                    "name": "D#4",
                    "midi": 63,
                    "time": 237.51666199999767,
                    "velocity": 0.30708661417322836,
                    "duration": 0.10013349999999832
                },
                {
                    "name": "F#4",
                    "midi": 66,
                    "time": 237.51666199999767,
                    "velocity": 0.30708661417322836,
                    "duration": 0.10013349999999832
                },
                {
                    "name": "A4",
                    "midi": 69,
                    "time": 237.51666199999767,
                    "velocity": 0.3700787401574803,
                    "duration": 0.10013349999999832
                },
                {
                    "name": "B3",
                    "midi": 59,
                    "time": 237.71692899999766,
                    "velocity": 0.30708661417322836,
                    "duration": 0.10013349999999832
                },
                {
                    "name": "D#4",
                    "midi": 63,
                    "time": 237.71692899999766,
                    "velocity": 0.30708661417322836,
                    "duration": 0.10013349999999832
                },
                {
                    "name": "F#4",
                    "midi": 66,
                    "time": 237.71692899999766,
                    "velocity": 0.30708661417322836,
                    "duration": 0.10013349999999832
                },
                {
                    "name": "A4",
                    "midi": 69,
                    "time": 237.71692899999766,
                    "velocity": 0.36220472440944884,
                    "duration": 0.10013349999999832
                },
                {
                    "name": "E3",
                    "midi": 52,
                    "time": 237.91719599999766,
                    "velocity": 0.31496062992125984,
                    "duration": 0.10013349999999832
                },
                {
                    "name": "G4",
                    "midi": 67,
                    "time": 238.01732949999766,
                    "velocity": 0.2677165354330709,
                    "duration": 0.10013349999999832
                },
                {
                    "name": "B3",
                    "midi": 59,
                    "time": 238.11746299999766,
                    "velocity": 0.29133858267716534,
                    "duration": 0.10013349999999832
                },
                {
                    "name": "G4",
                    "midi": 67,
                    "time": 238.21759649999765,
                    "velocity": 0.2677165354330709,
                    "duration": 0.10013349999999832
                },
                {
                    "name": "F#3",
                    "midi": 54,
                    "time": 238.31772999999765,
                    "velocity": 0.31496062992125984,
                    "duration": 0.10013349999999832
                },
                {
                    "name": "A4",
                    "midi": 69,
                    "time": 238.41786349999765,
                    "velocity": 0.2677165354330709,
                    "duration": 0.10013349999999832
                },
                {
                    "name": "B3",
                    "midi": 59,
                    "time": 238.51799699999765,
                    "velocity": 0.29133858267716534,
                    "duration": 0.10013349999999832
                },
                {
                    "name": "A4",
                    "midi": 69,
                    "time": 238.61813049999765,
                    "velocity": 0.2677165354330709,
                    "duration": 0.10013349999999832
                },
                {
                    "name": "G3",
                    "midi": 55,
                    "time": 238.71826399999765,
                    "velocity": 0.31496062992125984,
                    "duration": 0.10013349999999832
                },
                {
                    "name": "B4",
                    "midi": 71,
                    "time": 238.81839749999764,
                    "velocity": 0.2755905511811024,
                    "duration": 0.10013349999999832
                },
                {
                    "name": "B3",
                    "midi": 59,
                    "time": 238.91853099999764,
                    "velocity": 0.2992125984251969,
                    "duration": 0.10013349999999832
                },
                {
                    "name": "B4",
                    "midi": 71,
                    "time": 239.01866449999764,
                    "velocity": 0.2755905511811024,
                    "duration": 0.10013349999999832
                },
                {
                    "name": "E3",
                    "midi": 52,
                    "time": 239.11879799999764,
                    "velocity": 0.31496062992125984,
                    "duration": 0.10013349999999832
                },
                {
                    "name": "G4",
                    "midi": 67,
                    "time": 239.21893149999764,
                    "velocity": 0.2677165354330709,
                    "duration": 0.10013349999999832
                },
                {
                    "name": "B3",
                    "midi": 59,
                    "time": 239.31906499999764,
                    "velocity": 0.29133858267716534,
                    "duration": 0.10013349999999832
                },
                {
                    "name": "G4",
                    "midi": 67,
                    "time": 239.41919849999763,
                    "velocity": 0.2677165354330709,
                    "duration": 0.10013349999999832
                },
                {
                    "name": "F#3",
                    "midi": 54,
                    "time": 239.51933199999763,
                    "velocity": 0.31496062992125984,
                    "duration": 0.10013349999999832
                },
                {
                    "name": "A4",
                    "midi": 69,
                    "time": 239.61946549999763,
                    "velocity": 0.2677165354330709,
                    "duration": 0.10013349999999832
                },
                {
                    "name": "B3",
                    "midi": 59,
                    "time": 239.71959899999763,
                    "velocity": 0.29133858267716534,
                    "duration": 0.10013349999999832
                },
                {
                    "name": "A4",
                    "midi": 69,
                    "time": 239.81973249999763,
                    "velocity": 0.2677165354330709,
                    "duration": 0.10013349999999832
                },
                {
                    "name": "G3",
                    "midi": 55,
                    "time": 239.91986599999763,
                    "velocity": 0.31496062992125984,
                    "duration": 0.10013349999999832
                },
                {
                    "name": "B4",
                    "midi": 71,
                    "time": 240.01999949999762,
                    "velocity": 0.2755905511811024,
                    "duration": 0.10013349999999832
                },
                {
                    "name": "B3",
                    "midi": 59,
                    "time": 240.12013299999762,
                    "velocity": 0.2992125984251969,
                    "duration": 0.10013349999999832
                },
                {
                    "name": "B4",
                    "midi": 71,
                    "time": 240.22026649999762,
                    "velocity": 0.2755905511811024,
                    "duration": 0.10013349999999832
                },
                {
                    "name": "E3",
                    "midi": 52,
                    "time": 240.32039999999762,
                    "velocity": 0.31496062992125984,
                    "duration": 0.10013349999999832
                },
                {
                    "name": "G4",
                    "midi": 67,
                    "time": 240.42053349999762,
                    "velocity": 0.2677165354330709,
                    "duration": 0.10013349999999832
                },
                {
                    "name": "B3",
                    "midi": 59,
                    "time": 240.52066699999762,
                    "velocity": 0.29133858267716534,
                    "duration": 0.10013349999999832
                },
                {
                    "name": "G4",
                    "midi": 67,
                    "time": 240.6208004999976,
                    "velocity": 0.2677165354330709,
                    "duration": 0.10013349999999832
                },
                {
                    "name": "F#3",
                    "midi": 54,
                    "time": 240.7209339999976,
                    "velocity": 0.31496062992125984,
                    "duration": 0.10013349999999832
                },
                {
                    "name": "A4",
                    "midi": 69,
                    "time": 240.8210674999976,
                    "velocity": 0.2677165354330709,
                    "duration": 0.10013349999999832
                },
                {
                    "name": "B3",
                    "midi": 59,
                    "time": 240.9212009999976,
                    "velocity": 0.29133858267716534,
                    "duration": 0.10013349999999832
                },
                {
                    "name": "A4",
                    "midi": 69,
                    "time": 241.0213344999976,
                    "velocity": 0.2677165354330709,
                    "duration": 0.10013349999999832
                },
                {
                    "name": "G3",
                    "midi": 55,
                    "time": 241.1214679999976,
                    "velocity": 0.31496062992125984,
                    "duration": 0.10013349999999832
                },
                {
                    "name": "B4",
                    "midi": 71,
                    "time": 241.2216014999976,
                    "velocity": 0.2755905511811024,
                    "duration": 0.10013349999999832
                },
                {
                    "name": "B3",
                    "midi": 59,
                    "time": 241.3217349999976,
                    "velocity": 0.2992125984251969,
                    "duration": 0.10013349999999832
                },
                {
                    "name": "B4",
                    "midi": 71,
                    "time": 241.4218684999976,
                    "velocity": 0.2755905511811024,
                    "duration": 0.10013349999999832
                },
                {
                    "name": "E3",
                    "midi": 52,
                    "time": 241.5220019999976,
                    "velocity": 0.31496062992125984,
                    "duration": 0.10013349999999832
                },
                {
                    "name": "G4",
                    "midi": 67,
                    "time": 241.6221354999976,
                    "velocity": 0.2677165354330709,
                    "duration": 0.10013349999999832
                },
                {
                    "name": "B3",
                    "midi": 59,
                    "time": 241.7222689999976,
                    "velocity": 0.29133858267716534,
                    "duration": 0.10013349999999832
                },
                {
                    "name": "G4",
                    "midi": 67,
                    "time": 241.8224024999976,
                    "velocity": 0.2677165354330709,
                    "duration": 0.10013349999999832
                },
                {
                    "name": "F#3",
                    "midi": 54,
                    "time": 241.9225359999976,
                    "velocity": 0.31496062992125984,
                    "duration": 0.10013349999999832
                },
                {
                    "name": "A4",
                    "midi": 69,
                    "time": 242.0226694999976,
                    "velocity": 0.2677165354330709,
                    "duration": 0.10013349999999832
                },
                {
                    "name": "B3",
                    "midi": 59,
                    "time": 242.1228029999976,
                    "velocity": 0.29133858267716534,
                    "duration": 0.10013349999999832
                },
                {
                    "name": "A4",
                    "midi": 69,
                    "time": 242.2229364999976,
                    "velocity": 0.2677165354330709,
                    "duration": 0.10013349999999832
                },
                {
                    "name": "G3",
                    "midi": 55,
                    "time": 242.32306999999759,
                    "velocity": 0.31496062992125984,
                    "duration": 0.10013349999999832
                },
                {
                    "name": "B4",
                    "midi": 71,
                    "time": 242.42320349999758,
                    "velocity": 0.2755905511811024,
                    "duration": 0.10013349999999832
                },
                {
                    "name": "B3",
                    "midi": 59,
                    "time": 242.52333699999758,
                    "velocity": 0.2992125984251969,
                    "duration": 0.10013349999999832
                },
                {
                    "name": "B4",
                    "midi": 71,
                    "time": 242.62347049999758,
                    "velocity": 0.2755905511811024,
                    "duration": 0.10013349999999832
                },
                {
                    "name": "A3",
                    "midi": 57,
                    "time": 242.72360399999758,
                    "velocity": 0.31496062992125984,
                    "duration": 0.10013349999999832
                },
                {
                    "name": "G4",
                    "midi": 67,
                    "time": 242.82373749999758,
                    "velocity": 0.2677165354330709,
                    "duration": 0.10013349999999832
                },
                {
                    "name": "E4",
                    "midi": 64,
                    "time": 242.92387099999758,
                    "velocity": 0.29133858267716534,
                    "duration": 0.10013349999999832
                },
                {
                    "name": "G4",
                    "midi": 67,
                    "time": 243.02400449999757,
                    "velocity": 0.2677165354330709,
                    "duration": 0.10013349999999832
                },
                {
                    "name": "A#3",
                    "midi": 58,
                    "time": 243.12413799999757,
                    "velocity": 0.3858267716535433,
                    "duration": 0.10013349999999832
                },
                {
                    "name": "G4",
                    "midi": 67,
                    "time": 243.22427149999757,
                    "velocity": 0.2677165354330709,
                    "duration": 0.10013349999999832
                },
                {
                    "name": "E4",
                    "midi": 64,
                    "time": 243.32440499999757,
                    "velocity": 0.33070866141732286,
                    "duration": 0.10013349999999832
                },
                {
                    "name": "G4",
                    "midi": 67,
                    "time": 243.42453849999757,
                    "velocity": 0.2677165354330709,
                    "duration": 0.10013349999999832
                },
                {
                    "name": "B3",
                    "midi": 59,
                    "time": 243.52467199999757,
                    "velocity": 0.3779527559055118,
                    "duration": 0.10013349999999832
                },
                {
                    "name": "G4",
                    "midi": 67,
                    "time": 243.62480549999756,
                    "velocity": 0.2755905511811024,
                    "duration": 0.10013349999999832
                },
                {
                    "name": "E4",
                    "midi": 64,
                    "time": 243.72493899999756,
                    "velocity": 0.2992125984251969,
                    "duration": 0.10013349999999832
                },
                {
                    "name": "G4",
                    "midi": 67,
                    "time": 243.82507249999756,
                    "velocity": 0.2992125984251969,
                    "duration": 0.10013349999999832
                },
                {
                    "name": "B3",
                    "midi": 59,
                    "time": 243.92520599999756,
                    "velocity": 0.4015748031496063,
                    "duration": 0.10013349999999832
                },
                {
                    "name": "G4",
                    "midi": 67,
                    "time": 244.02533949999756,
                    "velocity": 0.30708661417322836,
                    "duration": 0.10013349999999832
                },
                {
                    "name": "E4",
                    "midi": 64,
                    "time": 244.12547299999756,
                    "velocity": 0.33070866141732286,
                    "duration": 0.10013349999999832
                },
                {
                    "name": "G4",
                    "midi": 67,
                    "time": 244.22560649999755,
                    "velocity": 0.30708661417322836,
                    "duration": 0.10013349999999832
                },
                {
                    "name": "B3",
                    "midi": 59,
                    "time": 244.32573999999755,
                    "velocity": 0.3779527559055118,
                    "duration": 0.10013349999999832
                },
                {
                    "name": "G4",
                    "midi": 67,
                    "time": 244.42587349999755,
                    "velocity": 0.2992125984251969,
                    "duration": 0.10013349999999832
                },
                {
                    "name": "E4",
                    "midi": 64,
                    "time": 244.52600699999755,
                    "velocity": 0.30708661417322836,
                    "duration": 0.10013349999999832
                },
                {
                    "name": "G4",
                    "midi": 67,
                    "time": 244.62614049999755,
                    "velocity": 0.2992125984251969,
                    "duration": 0.10013349999999832
                },
                {
                    "name": "B3",
                    "midi": 59,
                    "time": 244.72627399999755,
                    "velocity": 0.3543307086614173,
                    "duration": 0.10013349999999832
                },
                {
                    "name": "A4",
                    "midi": 69,
                    "time": 244.82640749999754,
                    "velocity": 0.3228346456692913,
                    "duration": 0.10013349999999832
                },
                {
                    "name": "F#4",
                    "midi": 66,
                    "time": 244.92654099999754,
                    "velocity": 0.3543307086614173,
                    "duration": 0.10013349999999832
                },
                {
                    "name": "A4",
                    "midi": 69,
                    "time": 245.02667449999754,
                    "velocity": 0.28346456692913385,
                    "duration": 0.10013349999999832
                },
                {
                    "name": "E2",
                    "midi": 40,
                    "time": 245.12680799999754,
                    "velocity": 0.28346456692913385,
                    "duration": 0.10013349999999832
                },
                {
                    "name": "G3",
                    "midi": 55,
                    "time": 245.22694149999754,
                    "velocity": 0.2440944881889764,
                    "duration": 0.10013349999999832
                },
                {
                    "name": "B2",
                    "midi": 47,
                    "time": 245.32707499999754,
                    "velocity": 0.28346456692913385,
                    "duration": 0.10013349999999832
                },
                {
                    "name": "G3",
                    "midi": 55,
                    "time": 245.42720849999753,
                    "velocity": 0.2755905511811024,
                    "duration": 0.10013349999999832
                },
                {
                    "name": "F#2",
                    "midi": 42,
                    "time": 245.52734199999753,
                    "velocity": 0.3543307086614173,
                    "duration": 0.10013349999999832
                },
                {
                    "name": "A3",
                    "midi": 57,
                    "time": 245.62747549999753,
                    "velocity": 0.28346456692913385,
                    "duration": 0.10013349999999832
                },
                {
                    "name": "B2",
                    "midi": 47,
                    "time": 245.72760899999753,
                    "velocity": 0.30708661417322836,
                    "duration": 0.10013349999999832
                },
                {
                    "name": "A3",
                    "midi": 57,
                    "time": 245.82774249999753,
                    "velocity": 0.2677165354330709,
                    "duration": 0.10013349999999832
                },
                {
                    "name": "G2",
                    "midi": 43,
                    "time": 245.92787599999753,
                    "velocity": 0.31496062992125984,
                    "duration": 0.10013349999999832
                },
                {
                    "name": "B3",
                    "midi": 59,
                    "time": 246.02800949999752,
                    "velocity": 0.2677165354330709,
                    "duration": 0.10013349999999832
                },
                {
                    "name": "B2",
                    "midi": 47,
                    "time": 246.12814299999752,
                    "velocity": 0.28346456692913385,
                    "duration": 0.10013349999999832
                },
                {
                    "name": "B3",
                    "midi": 59,
                    "time": 246.22827649999752,
                    "velocity": 0.25196850393700787,
                    "duration": 0.10013349999999832
                },
                {
                    "name": "E2",
                    "midi": 40,
                    "time": 246.32840999999752,
                    "velocity": 0.28346456692913385,
                    "duration": 0.10013349999999832
                },
                {
                    "name": "G3",
                    "midi": 55,
                    "time": 246.42854349999752,
                    "velocity": 0.2440944881889764,
                    "duration": 0.10013349999999832
                },
                {
                    "name": "B2",
                    "midi": 47,
                    "time": 246.52867699999751,
                    "velocity": 0.28346456692913385,
                    "duration": 0.10013349999999832
                },
                {
                    "name": "G3",
                    "midi": 55,
                    "time": 246.6288104999975,
                    "velocity": 0.2755905511811024,
                    "duration": 0.10013349999999832
                },
                {
                    "name": "F#2",
                    "midi": 42,
                    "time": 246.7289439999975,
                    "velocity": 0.3543307086614173,
                    "duration": 0.10013349999999832
                },
                {
                    "name": "A3",
                    "midi": 57,
                    "time": 246.8290774999975,
                    "velocity": 0.28346456692913385,
                    "duration": 0.10013349999999832
                },
                {
                    "name": "B2",
                    "midi": 47,
                    "time": 246.9292109999975,
                    "velocity": 0.30708661417322836,
                    "duration": 0.10013349999999832
                },
                {
                    "name": "A3",
                    "midi": 57,
                    "time": 247.0293444999975,
                    "velocity": 0.2677165354330709,
                    "duration": 0.10013349999999832
                },
                {
                    "name": "G2",
                    "midi": 43,
                    "time": 247.1294779999975,
                    "velocity": 0.31496062992125984,
                    "duration": 0.10013349999999832
                },
                {
                    "name": "B3",
                    "midi": 59,
                    "time": 247.2296114999975,
                    "velocity": 0.2677165354330709,
                    "duration": 0.10013349999999832
                },
                {
                    "name": "B2",
                    "midi": 47,
                    "time": 247.3297449999975,
                    "velocity": 0.28346456692913385,
                    "duration": 0.10013349999999832
                },
                {
                    "name": "B3",
                    "midi": 59,
                    "time": 247.4298784999975,
                    "velocity": 0.25196850393700787,
                    "duration": 0.10013349999999832
                },
                {
                    "name": "E2",
                    "midi": 40,
                    "time": 247.5300119999975,
                    "velocity": 0.28346456692913385,
                    "duration": 0.10013349999999832
                },
                {
                    "name": "G3",
                    "midi": 55,
                    "time": 247.6301454999975,
                    "velocity": 0.2440944881889764,
                    "duration": 0.10013349999999832
                },
                {
                    "name": "B2",
                    "midi": 47,
                    "time": 247.7302789999975,
                    "velocity": 0.28346456692913385,
                    "duration": 0.10013349999999832
                },
                {
                    "name": "G3",
                    "midi": 55,
                    "time": 247.8304124999975,
                    "velocity": 0.2755905511811024,
                    "duration": 0.10013349999999832
                },
                {
                    "name": "F#2",
                    "midi": 42,
                    "time": 247.9305459999975,
                    "velocity": 0.3543307086614173,
                    "duration": 0.10013349999999832
                },
                {
                    "name": "A3",
                    "midi": 57,
                    "time": 248.0306794999975,
                    "velocity": 0.28346456692913385,
                    "duration": 0.10013349999999832
                },
                {
                    "name": "B2",
                    "midi": 47,
                    "time": 248.1308129999975,
                    "velocity": 0.30708661417322836,
                    "duration": 0.10013349999999832
                },
                {
                    "name": "A3",
                    "midi": 57,
                    "time": 248.2309464999975,
                    "velocity": 0.2677165354330709,
                    "duration": 0.10013349999999832
                },
                {
                    "name": "G2",
                    "midi": 43,
                    "time": 248.33107999999748,
                    "velocity": 0.31496062992125984,
                    "duration": 0.10013349999999832
                },
                {
                    "name": "B3",
                    "midi": 59,
                    "time": 248.43121349999748,
                    "velocity": 0.2677165354330709,
                    "duration": 0.10013349999999832
                },
                {
                    "name": "B2",
                    "midi": 47,
                    "time": 248.53134699999748,
                    "velocity": 0.28346456692913385,
                    "duration": 0.10013349999999832
                },
                {
                    "name": "B3",
                    "midi": 59,
                    "time": 248.63148049999748,
                    "velocity": 0.25196850393700787,
                    "duration": 0.10013349999999832
                },
                {
                    "name": "E2",
                    "midi": 40,
                    "time": 248.73161399999748,
                    "velocity": 0.28346456692913385,
                    "duration": 0.10013349999999832
                },
                {
                    "name": "G3",
                    "midi": 55,
                    "time": 248.83174749999748,
                    "velocity": 0.23622047244094488,
                    "duration": 0.10013349999999832
                },
                {
                    "name": "B2",
                    "midi": 47,
                    "time": 248.93188099999747,
                    "velocity": 0.25984251968503935,
                    "duration": 0.10013349999999832
                },
                {
                    "name": "G3",
                    "midi": 55,
                    "time": 249.03201449999747,
                    "velocity": 0.23622047244094488,
                    "duration": 0.10013349999999832
                },
                {
                    "name": "F#2",
                    "midi": 42,
                    "time": 249.13214799999747,
                    "velocity": 0.28346456692913385,
                    "duration": 0.10013349999999832
                },
                {
                    "name": "A3",
                    "midi": 57,
                    "time": 249.23228149999747,
                    "velocity": 0.23622047244094488,
                    "duration": 0.10013349999999832
                },
                {
                    "name": "B2",
                    "midi": 47,
                    "time": 249.33241499999747,
                    "velocity": 0.25984251968503935,
                    "duration": 0.10013349999999832
                },
                {
                    "name": "A3",
                    "midi": 57,
                    "time": 249.43254849999747,
                    "velocity": 0.23622047244094488,
                    "duration": 0.10013349999999832
                },
                {
                    "name": "G2",
                    "midi": 43,
                    "time": 249.53268199999746,
                    "velocity": 0.28346456692913385,
                    "duration": 0.10013349999999832
                },
                {
                    "name": "B3",
                    "midi": 59,
                    "time": 249.63281549999746,
                    "velocity": 0.2440944881889764,
                    "duration": 0.10013349999999832
                },
                {
                    "name": "B2",
                    "midi": 47,
                    "time": 249.73294899999746,
                    "velocity": 0.2677165354330709,
                    "duration": 0.10013349999999832
                },
                {
                    "name": "B3",
                    "midi": 59,
                    "time": 249.83308249999746,
                    "velocity": 0.2440944881889764,
                    "duration": 0.10013349999999832
                },
                {
                    "name": "A2",
                    "midi": 45,
                    "time": 249.93321599999746,
                    "velocity": 0.31496062992125984,
                    "duration": 0.10013349999999832
                },
                {
                    "name": "G3",
                    "midi": 55,
                    "time": 250.03334949999746,
                    "velocity": 0.2677165354330709,
                    "duration": 0.10013349999999832
                },
                {
                    "name": "E3",
                    "midi": 52,
                    "time": 250.13348299999745,
                    "velocity": 0.29133858267716534,
                    "duration": 0.10013349999999832
                },
                {
                    "name": "G3",
                    "midi": 55,
                    "time": 250.23361649999745,
                    "velocity": 0.2677165354330709,
                    "duration": 0.10013349999999832
                },
                {
                    "name": "A#2",
                    "midi": 46,
                    "time": 250.33374999999745,
                    "velocity": 0.3858267716535433,
                    "duration": 0.10013349999999832
                },
                {
                    "name": "G3",
                    "midi": 55,
                    "time": 250.43388349999745,
                    "velocity": 0.2677165354330709,
                    "duration": 0.10013349999999832
                },
                {
                    "name": "E3",
                    "midi": 52,
                    "time": 250.53401699999745,
                    "velocity": 0.33070866141732286,
                    "duration": 0.10013349999999832
                },
                {
                    "name": "G3",
                    "midi": 55,
                    "time": 250.63415049999745,
                    "velocity": 0.2677165354330709,
                    "duration": 0.10013349999999832
                },
                {
                    "name": "B2",
                    "midi": 47,
                    "time": 250.73428399999744,
                    "velocity": 0.3779527559055118,
                    "duration": 0.10013349999999832
                },
                {
                    "name": "G3",
                    "midi": 55,
                    "time": 250.83441749999744,
                    "velocity": 0.2755905511811024,
                    "duration": 0.10013349999999832
                },
                {
                    "name": "E3",
                    "midi": 52,
                    "time": 250.93455099999744,
                    "velocity": 0.2992125984251969,
                    "duration": 0.10013349999999832
                },
                {
                    "name": "G3",
                    "midi": 55,
                    "time": 251.03468449999744,
                    "velocity": 0.2992125984251969,
                    "duration": 0.10013349999999832
                },
                {
                    "name": "B2",
                    "midi": 47,
                    "time": 251.13481799999744,
                    "velocity": 0.41732283464566927,
                    "duration": 0.7927235416666747
                },
                {
                    "name": "B1",
                    "midi": 35,
                    "time": 251.93588599999745,
                    "velocity": 0.44881889763779526,
                    "duration": 0.4005339999999933
                },
                {
                    "name": "E2",
                    "midi": 40,
                    "time": 252.33641999999745,
                    "velocity": 0.6220472440944882,
                    "duration": 0.10013349999999832
                },
                {
                    "name": "F#3",
                    "midi": 54,
                    "time": 252.53668699999744,
                    "velocity": 0.6377952755905512,
                    "duration": 0.10013349999999832
                },
                {
                    "name": "F#2",
                    "midi": 42,
                    "time": 252.53668699999744,
                    "velocity": 0.5433070866141733,
                    "duration": 0.10013349999999832
                },
                {
                    "name": "G3",
                    "midi": 55,
                    "time": 252.73695399999744,
                    "velocity": 0.6377952755905512,
                    "duration": 0.10013349999999832
                },
                {
                    "name": "G2",
                    "midi": 43,
                    "time": 252.73695399999744,
                    "velocity": 0.5433070866141733,
                    "duration": 0.10013349999999832
                },
                {
                    "name": "A3",
                    "midi": 57,
                    "time": 252.93722099999744,
                    "velocity": 0.6929133858267716,
                    "duration": 0.10013349999999832
                },
                {
                    "name": "A2",
                    "midi": 45,
                    "time": 252.93722099999744,
                    "velocity": 0.5669291338582677,
                    "duration": 0.10013349999999832
                },
                {
                    "name": "B3",
                    "midi": 59,
                    "time": 253.13748799999743,
                    "velocity": 0.7401574803149606,
                    "duration": 1.6021360000000016
                },
                {
                    "name": "B2",
                    "midi": 47,
                    "time": 253.13748799999743,
                    "velocity": 0.6299212598425197,
                    "duration": 1.6021360000000016
                },
                {
                    "name": "A2",
                    "midi": 45,
                    "time": 254.73962399999743,
                    "velocity": 0.29133858267716534,
                    "duration": 1.2016020000000083
                },
                {
                    "name": "A3",
                    "midi": 57,
                    "time": 254.73962399999743,
                    "velocity": 0.3464566929133858,
                    "duration": 1.2016020000000083
                },
                {
                    "name": "B3",
                    "midi": 59,
                    "time": 255.94122599999744,
                    "velocity": 0.33858267716535434,
                    "duration": 1.2016020000000083
                },
                {
                    "name": "B2",
                    "midi": 47,
                    "time": 255.94122599999744,
                    "velocity": 0.28346456692913385,
                    "duration": 1.2016020000000083
                },
                {
                    "name": "E2",
                    "midi": 40,
                    "time": 257.14282799999745,
                    "velocity": 0.7322834645669292,
                    "duration": 0.10013350000002674
                },
                {
                    "name": "E1",
                    "midi": 28,
                    "time": 257.14282799999745,
                    "velocity": 0.6220472440944882,
                    "duration": 0.10013350000002674
                },
                {
                    "name": "F#2",
                    "midi": 42,
                    "time": 257.3430949999975,
                    "velocity": 0.6377952755905512,
                    "duration": 0.10013350000002674
                },
                {
                    "name": "F#1",
                    "midi": 30,
                    "time": 257.3430949999975,
                    "velocity": 0.5433070866141733,
                    "duration": 0.10013350000002674
                },
                {
                    "name": "G2",
                    "midi": 43,
                    "time": 257.54336199999756,
                    "velocity": 0.6377952755905512,
                    "duration": 0.10013350000002674
                },
                {
                    "name": "G1",
                    "midi": 31,
                    "time": 257.54336199999756,
                    "velocity": 0.5433070866141733,
                    "duration": 0.10013350000002674
                },
                {
                    "name": "A2",
                    "midi": 45,
                    "time": 257.7436289999976,
                    "velocity": 0.6929133858267716,
                    "duration": 0.10013350000002674
                },
                {
                    "name": "A1",
                    "midi": 33,
                    "time": 257.7436289999976,
                    "velocity": 0.5669291338582677,
                    "duration": 0.10013350000002674
                },
                {
                    "name": "B2",
                    "midi": 47,
                    "time": 257.94389599999766,
                    "velocity": 0.7401574803149606,
                    "duration": 1.6021359999999731
                },
                {
                    "name": "B1",
                    "midi": 35,
                    "time": 257.94389599999766,
                    "velocity": 0.6299212598425197,
                    "duration": 1.6021359999999731
                },
                {
                    "name": "A1",
                    "midi": 33,
                    "time": 259.54603199999764,
                    "velocity": 0.29133858267716534,
                    "duration": 1.2016019999999799
                },
                {
                    "name": "A2",
                    "midi": 45,
                    "time": 259.54603199999764,
                    "velocity": 0.3464566929133858,
                    "duration": 1.2016019999999799
                },
                {
                    "name": "B1",
                    "midi": 35,
                    "time": 260.7476339999976,
                    "velocity": 0.1889763779527559,
                    "duration": 1.2016019999999799
                },
                {
                    "name": "B2",
                    "midi": 47,
                    "time": 260.7476339999976,
                    "velocity": 0.2283464566929134,
                    "duration": 1.2016019999999799
                },
                {
                    "name": "B2",
                    "midi": 47,
                    "time": 263.1508379999976,
                    "velocity": 0.18110236220472442,
                    "duration": 1.2016019999999799
                },
                {
                    "name": "E2",
                    "midi": 40,
                    "time": 263.1508379999976,
                    "velocity": 0.14960629921259844,
                    "duration": 1.2016019999999799
                },
                {
                    "name": "B2",
                    "midi": 47,
                    "time": 265.55404199999754,
                    "velocity": 0.18110236220472442,
                    "duration": 1.2016019999999799
                },
                {
                    "name": "B1",
                    "midi": 35,
                    "time": 265.55404199999754,
                    "velocity": 0.14960629921259844,
                    "duration": 1.2016019999999799
                },
                {
                    "name": "E2",
                    "midi": 40,
                    "time": 266.7556439999975,
                    "velocity": 0.18110236220472442,
                    "duration": 0.4005339999999933
                },
                {
                    "name": "B3",
                    "midi": 59,
                    "time": 267.9572459999975,
                    "velocity": 0.15748031496062992,
                    "duration": 1.2016019999999799
                },
                {
                    "name": "B2",
                    "midi": 47,
                    "time": 267.9572459999975,
                    "velocity": 0.13385826771653545,
                    "duration": 1.2016019999999799
                },
                {
                    "name": "B3",
                    "midi": 59,
                    "time": 270.36044999999746,
                    "velocity": 0.15748031496062992,
                    "duration": 1.2016019999999799
                },
                {
                    "name": "E3",
                    "midi": 52,
                    "time": 270.36044999999746,
                    "velocity": 0.13385826771653545,
                    "duration": 1.2016019999999799
                },
                {
                    "name": "B3",
                    "midi": 59,
                    "time": 272.7636539999974,
                    "velocity": 0.15748031496062992,
                    "duration": 1.2016019999999799
                },
                {
                    "name": "B2",
                    "midi": 47,
                    "time": 272.7636539999974,
                    "velocity": 0.13385826771653545,
                    "duration": 1.2016019999999799
                },
                {
                    "name": "E3",
                    "midi": 52,
                    "time": 273.9652559999974,
                    "velocity": 0.15748031496062992,
                    "duration": 0.4005339999999933
                },
                {
                    "name": "B4",
                    "midi": 71,
                    "time": 275.1668579999974,
                    "velocity": 0.15748031496062992,
                    "duration": 1.2016019999999799
                },
                {
                    "name": "C5",
                    "midi": 72,
                    "time": 277.16952799999734,
                    "velocity": 0.2283464566929134,
                    "duration": 0.8010679999999866
                },
                {
                    "name": "B4",
                    "midi": 71,
                    "time": 277.97059599999733,
                    "velocity": 0.2992125984251969,
                    "duration": 0.4005339999999933
                },
                {
                    "name": "A4",
                    "midi": 69,
                    "time": 278.3711299999973,
                    "velocity": 0.1889763779527559,
                    "duration": 0.4005339999999933
                },
                {
                    "name": "F#4",
                    "midi": 66,
                    "time": 278.3711299999973,
                    "velocity": 0.14960629921259844,
                    "duration": 0.4005339999999933
                },
                {
                    "name": "E4",
                    "midi": 64,
                    "time": 278.7716639999973,
                    "velocity": 0.1968503937007874,
                    "duration": 0.6008009999999899
                },
                {
                    "name": "G4",
                    "midi": 67,
                    "time": 278.7716639999973,
                    "velocity": 0.23622047244094488,
                    "duration": 0.6008009999999899
                },
                {
                    "name": "A4",
                    "midi": 69,
                    "time": 279.3724649999973,
                    "velocity": 0.2047244094488189,
                    "duration": 0.20026699999999664
                },
                {
                    "name": "F#4",
                    "midi": 66,
                    "time": 279.3724649999973,
                    "velocity": 0.1732283464566929,
                    "duration": 0.20026699999999664
                },
                {
                    "name": "G4",
                    "midi": 67,
                    "time": 279.5727319999973,
                    "velocity": 0.18110236220472442,
                    "duration": 0.3004005000000234
                },
                {
                    "name": "D4",
                    "midi": 62,
                    "time": 279.97326599999735,
                    "velocity": 0.1968503937007874,
                    "duration": 0.3004005000000234
                },
                {
                    "name": "F#4",
                    "midi": 66,
                    "time": 279.97326599999735,
                    "velocity": 0.1968503937007874,
                    "duration": 0.3004005000000234
                },
                {
                    "name": "A4",
                    "midi": 69,
                    "time": 279.97326599999735,
                    "velocity": 0.23622047244094488,
                    "duration": 0.3004005000000234
                },
                {
                    "name": "D5",
                    "midi": 74,
                    "time": 280.7743339999974,
                    "velocity": 0.1889763779527559,
                    "duration": 0.38050729999997657
                },
                {
                    "name": "C5",
                    "midi": 72,
                    "time": 281.1748679999974,
                    "velocity": 0.1968503937007874,
                    "duration": 0.6008009999999899
                },
                {
                    "name": "D5",
                    "midi": 74,
                    "time": 281.1748679999974,
                    "velocity": 0.23622047244094488,
                    "duration": 0.6008009999999899
                },
                {
                    "name": "D5",
                    "midi": 74,
                    "time": 281.7756689999974,
                    "velocity": 0.2047244094488189,
                    "duration": 0.20026699999999664
                },
                {
                    "name": "B4",
                    "midi": 71,
                    "time": 281.7756689999974,
                    "velocity": 0.1732283464566929,
                    "duration": 0.20026699999999664
                },
                {
                    "name": "A4",
                    "midi": 69,
                    "time": 281.9759359999974,
                    "velocity": 0.15748031496062992,
                    "duration": 0.3004005000000234
                },
                {
                    "name": "C5",
                    "midi": 72,
                    "time": 281.9759359999974,
                    "velocity": 0.18110236220472442,
                    "duration": 0.3004005000000234
                },
                {
                    "name": "G4",
                    "midi": 67,
                    "time": 282.3764699999974,
                    "velocity": 0.1968503937007874,
                    "duration": 0.3004005000000234
                },
                {
                    "name": "B4",
                    "midi": 71,
                    "time": 282.3764699999974,
                    "velocity": 0.23622047244094488,
                    "duration": 0.3004005000000234
                },
                {
                    "name": "G5",
                    "midi": 79,
                    "time": 283.17753799999747,
                    "velocity": 0.16535433070866143,
                    "duration": 0.38050729999997657
                },
                {
                    "name": "G5",
                    "midi": 79,
                    "time": 283.57807199999746,
                    "velocity": 0.2125984251968504,
                    "duration": 0.6008009999999899
                },
                {
                    "name": "F#5",
                    "midi": 78,
                    "time": 284.17887299999745,
                    "velocity": 0.18110236220472442,
                    "duration": 0.20026699999999664
                },
                {
                    "name": "E5",
                    "midi": 76,
                    "time": 284.37913999999745,
                    "velocity": 0.15748031496062992,
                    "duration": 0.3004005000000234
                },
                {
                    "name": "D#5",
                    "midi": 75,
                    "time": 284.7796739999975,
                    "velocity": 0.2125984251968504,
                    "duration": 0.3004005000000234
                },
                {
                    "name": "B3",
                    "midi": 59,
                    "time": 285.98127599999754,
                    "velocity": 0.2677165354330709,
                    "duration": 1.2016019999999799
                },
                {
                    "name": "G2",
                    "midi": 43,
                    "time": 285.98127599999754,
                    "velocity": 0.2204724409448819,
                    "duration": 1.2016019999999799
                },
                {
                    "name": "E3",
                    "midi": 52,
                    "time": 285.98127599999754,
                    "velocity": 0.2204724409448819,
                    "duration": 1.2016019999999799
                },
                {
                    "name": "A2",
                    "midi": 45,
                    "time": 287.1828779999975,
                    "velocity": 0.2755905511811024,
                    "duration": 0.8010679999999866
                },
                {
                    "name": "A#2",
                    "midi": 46,
                    "time": 287.9839459999975,
                    "velocity": 0.33858267716535434,
                    "duration": 0.4005339999999933
                },
                {
                    "name": "B2",
                    "midi": 47,
                    "time": 288.3844799999975,
                    "velocity": 0.3858267716535433,
                    "duration": 1.2016019999999799
                },
                {
                    "name": "G3",
                    "midi": 55,
                    "time": 289.5860819999975,
                    "velocity": 0.2283464566929134,
                    "duration": 0.8010679999999866
                },
                {
                    "name": "C3",
                    "midi": 48,
                    "time": 289.5860819999975,
                    "velocity": 0.1889763779527559,
                    "duration": 0.8010679999999866
                },
                {
                    "name": "B1",
                    "midi": 35,
                    "time": 290.38714999999746,
                    "velocity": 0.2440944881889764,
                    "duration": 0.20026699999999664
                },
                {
                    "name": "B2",
                    "midi": 47,
                    "time": 290.38714999999746,
                    "velocity": 0.28346456692913385,
                    "duration": 0.20026699999999664
                },
                {
                    "name": "A1",
                    "midi": 33,
                    "time": 290.58741699999746,
                    "velocity": 0.25984251968503935,
                    "duration": 0.20026699999999664
                },
                {
                    "name": "A2",
                    "midi": 45,
                    "time": 290.58741699999746,
                    "velocity": 0.31496062992125984,
                    "duration": 0.20026699999999664
                },
                {
                    "name": "G1",
                    "midi": 31,
                    "time": 290.78768399999745,
                    "velocity": 0.29133858267716534,
                    "duration": 0.8010679999999866
                },
                {
                    "name": "G2",
                    "midi": 43,
                    "time": 290.78768399999745,
                    "velocity": 0.3464566929133858,
                    "duration": 0.8010679999999866
                },
                {
                    "name": "G#1",
                    "midi": 32,
                    "time": 291.58875199999744,
                    "velocity": 0.2440944881889764,
                    "duration": 0.4005339999999933
                },
                {
                    "name": "G#2",
                    "midi": 44,
                    "time": 291.58875199999744,
                    "velocity": 0.29133858267716534,
                    "duration": 0.4005339999999933
                },
                {
                    "name": "A1",
                    "midi": 33,
                    "time": 291.98928599999743,
                    "velocity": 0.2047244094488189,
                    "duration": 0.8010679999999866
                },
                {
                    "name": "A2",
                    "midi": 45,
                    "time": 291.98928599999743,
                    "velocity": 0.2440944881889764,
                    "duration": 0.8010679999999866
                },
                {
                    "name": "A#1",
                    "midi": 34,
                    "time": 292.7903539999974,
                    "velocity": 0.1732283464566929,
                    "duration": 0.4005339999999933
                },
                {
                    "name": "A#2",
                    "midi": 46,
                    "time": 292.7903539999974,
                    "velocity": 0.2047244094488189,
                    "duration": 0.4005339999999933
                },
                {
                    "name": "B1",
                    "midi": 35,
                    "time": 293.1908879999974,
                    "velocity": 0.1732283464566929,
                    "duration": 1.2016019999999799
                },
                {
                    "name": "B2",
                    "midi": 47,
                    "time": 293.1908879999974,
                    "velocity": 0.2204724409448819,
                    "duration": 1.2016019999999799
                },
                {
                    "name": "E2",
                    "midi": 40,
                    "time": 294.3924899999974,
                    "velocity": 0.11023622047244094,
                    "duration": 0.4005339999999933
                }
            ],
            "controlChanges": {},
            "id": 2,
            "name": "Piano left",
            "instrumentNumber": 0,
            "instrument": "acoustic grand piano",
            "instrumentFamily": "piano",
            "channelNumber": 0,
            "isPercussion": false
        },
        {
            "startTime": 0,
            "duration": 0,
            "length": 0,
            "notes": [],
            "controlChanges": {
                "64": [
                    {
                        "number": 64,
                        "time": 15.086780666666666,
                        "value": 1
                    },
                    {
                        "number": 64,
                        "time": 16.43023845833333,
                        "value": 0
                    },
                    {
                        "number": 64,
                        "time": 16.667221074999997,
                        "value": 1
                    },
                    {
                        "number": 64,
                        "time": 17.636012687499996,
                        "value": 0
                    },
                    {
                        "number": 64,
                        "time": 17.746159537499995,
                        "value": 1
                    },
                    {
                        "number": 64,
                        "time": 19.232307566666663,
                        "value": 0
                    },
                    {
                        "number": 64,
                        "time": 19.38167337083333,
                        "value": 1
                    },
                    {
                        "number": 64,
                        "time": 19.885678654166664,
                        "value": 0
                    },
                    {
                        "number": 64,
                        "time": 21.71228058333333,
                        "value": 1
                    },
                    {
                        "number": 64,
                        "time": 22.442420687499997,
                        "value": 0
                    },
                    {
                        "number": 64,
                        "time": 22.554236429166664,
                        "value": 1
                    },
                    {
                        "number": 64,
                        "time": 22.83878245833333,
                        "value": 0
                    },
                    {
                        "number": 64,
                        "time": 26.54622529583333,
                        "value": 1
                    },
                    {
                        "number": 64,
                        "time": 27.245490904166665,
                        "value": 0
                    },
                    {
                        "number": 64,
                        "time": 27.360644429166666,
                        "value": 1
                    },
                    {
                        "number": 64,
                        "time": 27.643521566666667,
                        "value": 0
                    },
                    {
                        "number": 64,
                        "time": 30.134342379166668,
                        "value": 1
                    },
                    {
                        "number": 64,
                        "time": 30.851965795833333,
                        "value": 0
                    },
                    {
                        "number": 64,
                        "time": 31.318421016666665,
                        "value": 1
                    },
                    {
                        "number": 64,
                        "time": 32.058574470833335,
                        "value": 0
                    },
                    {
                        "number": 64,
                        "time": 32.50249965416667,
                        "value": 1
                    },
                    {
                        "number": 64,
                        "time": 33.259342025,
                        "value": 0
                    },
                    {
                        "number": 64,
                        "time": 33.697426087500006,
                        "value": 1
                    },
                    {
                        "number": 64,
                        "time": 34.45677179583334,
                        "value": 0
                    },
                    {
                        "number": 64,
                        "time": 46.56207750000001,
                        "value": 1
                    },
                    {
                        "number": 64,
                        "time": 47.67439379583334,
                        "value": 0
                    },
                    {
                        "number": 64,
                        "time": 47.71695053333334,
                        "value": 1
                    },
                    {
                        "number": 64,
                        "time": 48.87599579583334,
                        "value": 0
                    },
                    {
                        "number": 64,
                        "time": 48.93857923333334,
                        "value": 1
                    },
                    {
                        "number": 64,
                        "time": 50.078432241666675,
                        "value": 0
                    },
                    {
                        "number": 64,
                        "time": 50.12265787083334,
                        "value": 1
                    },
                    {
                        "number": 64,
                        "time": 51.28003424166668,
                        "value": 0
                    },
                    {
                        "number": 64,
                        "time": 51.31591541250001,
                        "value": 1
                    },
                    {
                        "number": 64,
                        "time": 51.67556156666668,
                        "value": 0
                    },
                    {
                        "number": 64,
                        "time": 51.891683037500016,
                        "value": 1
                    },
                    {
                        "number": 64,
                        "time": 52.483305133333346,
                        "value": 0
                    },
                    {
                        "number": 64,
                        "time": 52.625995370833344,
                        "value": 1
                    },
                    {
                        "number": 64,
                        "time": 52.88050135000001,
                        "value": 0
                    },
                    {
                        "number": 64,
                        "time": 52.89969360416668,
                        "value": 1
                    },
                    {
                        "number": 64,
                        "time": 53.68907936250001,
                        "value": 0
                    },
                    {
                        "number": 64,
                        "time": 53.72412608750001,
                        "value": 1
                    },
                    {
                        "number": 64,
                        "time": 54.07793112083334,
                        "value": 0
                    },
                    {
                        "number": 64,
                        "time": 54.31741707500001,
                        "value": 1
                    },
                    {
                        "number": 64,
                        "time": 55.28120201250001,
                        "value": 0
                    },
                    {
                        "number": 64,
                        "time": 55.32125541250001,
                        "value": 1
                    },
                    {
                        "number": 64,
                        "time": 56.475294000000005,
                        "value": 0
                    },
                    {
                        "number": 64,
                        "time": 61.32509318333334,
                        "value": 1
                    },
                    {
                        "number": 64,
                        "time": 61.492816795833335,
                        "value": 0
                    },
                    {
                        "number": 64,
                        "time": 61.56791692083333,
                        "value": 1
                    },
                    {
                        "number": 64,
                        "time": 62.488310675,
                        "value": 0
                    },
                    {
                        "number": 64,
                        "time": 62.52669518333333,
                        "value": 1
                    },
                    {
                        "number": 64,
                        "time": 63.684906,
                        "value": 0
                    },
                    {
                        "number": 64,
                        "time": 63.92689529166667,
                        "value": 1
                    },
                    {
                        "number": 64,
                        "time": 66.08811,
                        "value": 0
                    },
                    {
                        "number": 64,
                        "time": 66.13150118333333,
                        "value": 1
                    },
                    {
                        "number": 64,
                        "time": 66.493650675,
                        "value": 0
                    },
                    {
                        "number": 64,
                        "time": 66.53203518333333,
                        "value": 1
                    },
                    {
                        "number": 64,
                        "time": 66.90336357916667,
                        "value": 0
                    },
                    {
                        "number": 64,
                        "time": 66.9417480875,
                        "value": 1
                    },
                    {
                        "number": 64,
                        "time": 67.73363718333333,
                        "value": 0
                    },
                    {
                        "number": 64,
                        "time": 67.78620727083333,
                        "value": 1
                    },
                    {
                        "number": 64,
                        "time": 68.10079335,
                        "value": 0
                    },
                    {
                        "number": 64,
                        "time": 68.1483567625,
                        "value": 1
                    },
                    {
                        "number": 64,
                        "time": 68.8993580125,
                        "value": 0
                    },
                    {
                        "number": 64,
                        "time": 68.97779592083333,
                        "value": 1
                    },
                    {
                        "number": 64,
                        "time": 69.3048986875,
                        "value": 0
                    },
                    {
                        "number": 64,
                        "time": 69.37332324583333,
                        "value": 1
                    },
                    {
                        "number": 64,
                        "time": 70.10763557916667,
                        "value": 0
                    },
                    {
                        "number": 64,
                        "time": 70.1510267625,
                        "value": 1
                    },
                    {
                        "number": 64,
                        "time": 70.50983847083333,
                        "value": 0
                    },
                    {
                        "number": 64,
                        "time": 70.56574634166667,
                        "value": 1
                    },
                    {
                        "number": 64,
                        "time": 70.894518,
                        "value": 0
                    },
                    {
                        "number": 64,
                        "time": 70.9571014375,
                        "value": 1
                    },
                    {
                        "number": 64,
                        "time": 71.31090647083333,
                        "value": 0
                    },
                    {
                        "number": 64,
                        "time": 71.3476220875,
                        "value": 1
                    },
                    {
                        "number": 64,
                        "time": 71.71144047083334,
                        "value": 0
                    },
                    {
                        "number": 64,
                        "time": 71.76234166666667,
                        "value": 1
                    },
                    {
                        "number": 64,
                        "time": 72.10863668750001,
                        "value": 0
                    },
                    {
                        "number": 64,
                        "time": 72.12949783333335,
                        "value": 1
                    },
                    {
                        "number": 64,
                        "time": 72.90887024166668,
                        "value": 0
                    },
                    {
                        "number": 64,
                        "time": 72.94975808750002,
                        "value": 1
                    },
                    {
                        "number": 64,
                        "time": 73.30773535000002,
                        "value": 0
                    },
                    {
                        "number": 64,
                        "time": 73.36030543750002,
                        "value": 1
                    },
                    {
                        "number": 64,
                        "time": 73.70743490416669,
                        "value": 0
                    },
                    {
                        "number": 64,
                        "time": 73.75583276250002,
                        "value": 1
                    },
                    {
                        "number": 64,
                        "time": 74.49932400000002,
                        "value": 0
                    },
                    {
                        "number": 64,
                        "time": 74.56190743750001,
                        "value": 1
                    },
                    {
                        "number": 64,
                        "time": 74.91404357916667,
                        "value": 0
                    },
                    {
                        "number": 64,
                        "time": 74.9574347625,
                        "value": 1
                    },
                    {
                        "number": 64,
                        "time": 75.7084360125,
                        "value": 0
                    },
                    {
                        "number": 64,
                        "time": 75.7635094375,
                        "value": 1
                    },
                    {
                        "number": 64,
                        "time": 76.11731447083334,
                        "value": 0
                    },
                    {
                        "number": 64,
                        "time": 76.16821566666667,
                        "value": 1
                    },
                    {
                        "number": 64,
                        "time": 76.90920356666666,
                        "value": 0
                    },
                    {
                        "number": 64,
                        "time": 76.9500914125,
                        "value": 1
                    },
                    {
                        "number": 64,
                        "time": 77.31891647083333,
                        "value": 0
                    },
                    {
                        "number": 64,
                        "time": 77.36731432916666,
                        "value": 1
                    },
                    {
                        "number": 64,
                        "time": 78.11414334999999,
                        "value": 0
                    },
                    {
                        "number": 64,
                        "time": 78.16170676249999,
                        "value": 1
                    },
                    {
                        "number": 64,
                        "time": 78.52051847083332,
                        "value": 0
                    },
                    {
                        "number": 64,
                        "time": 78.56724743749999,
                        "value": 1
                    },
                    {
                        "number": 64,
                        "time": 78.91604579583333,
                        "value": 0
                    },
                    {
                        "number": 64,
                        "time": 78.9577680875,
                        "value": 1
                    },
                    {
                        "number": 64,
                        "time": 79.31157312083333,
                        "value": 0
                    },
                    {
                        "number": 64,
                        "time": 79.43006442916666,
                        "value": 1
                    },
                    {
                        "number": 64,
                        "time": 80.507334,
                        "value": 0
                    },
                    {
                        "number": 64,
                        "time": 82.02101874166667,
                        "value": 1
                    },
                    {
                        "number": 64,
                        "time": 82.91721356666666,
                        "value": 0
                    },
                    {
                        "number": 64,
                        "time": 83.110805,
                        "value": 1
                    },
                    {
                        "number": 64,
                        "time": 84.1196500125,
                        "value": 0
                    },
                    {
                        "number": 64,
                        "time": 84.357467075,
                        "value": 1
                    },
                    {
                        "number": 64,
                        "time": 84.92739357916668,
                        "value": 0
                    },
                    {
                        "number": 64,
                        "time": 86.760671075,
                        "value": 1
                    },
                    {
                        "number": 64,
                        "time": 87.72779379583334,
                        "value": 0
                    },
                    {
                        "number": 64,
                        "time": 87.962273075,
                        "value": 1
                    },
                    {
                        "number": 64,
                        "time": 88.92856135,
                        "value": 0
                    },
                    {
                        "number": 64,
                        "time": 89.18557066666666,
                        "value": 1
                    },
                    {
                        "number": 64,
                        "time": 90.13016335,
                        "value": 0
                    },
                    {
                        "number": 64,
                        "time": 91.09978940833334,
                        "value": 1
                    },
                    {
                        "number": 64,
                        "time": 92.523354,
                        "value": 0
                    },
                    {
                        "number": 64,
                        "time": 93.50299340833332,
                        "value": 1
                    },
                    {
                        "number": 64,
                        "time": 94.92989578333332,
                        "value": 0
                    },
                    {
                        "number": 64,
                        "time": 95.12682499999998,
                        "value": 1
                    },
                    {
                        "number": 64,
                        "time": 95.41637770416665,
                        "value": 0
                    },
                    {
                        "number": 64,
                        "time": 96.12815999999998,
                        "value": 1
                    },
                    {
                        "number": 64,
                        "time": 96.55122403749998,
                        "value": 0
                    },
                    {
                        "number": 64,
                        "time": 97.32976199999997,
                        "value": 1
                    },
                    {
                        "number": 64,
                        "time": 97.74197824166664,
                        "value": 0
                    },
                    {
                        "number": 64,
                        "time": 98.77669107499997,
                        "value": 1
                    },
                    {
                        "number": 64,
                        "time": 101.74231156666664,
                        "value": 0
                    },
                    {
                        "number": 64,
                        "time": 102.27802579166665,
                        "value": 1
                    },
                    {
                        "number": 64,
                        "time": 103.00232477499998,
                        "value": 0
                    },
                    {
                        "number": 64,
                        "time": 104.59277853333332,
                        "value": 1
                    },
                    {
                        "number": 64,
                        "time": 105.35462757916665,
                        "value": 0
                    },
                    {
                        "number": 64,
                        "time": 107.08443379166664,
                        "value": 1
                    },
                    {
                        "number": 64,
                        "time": 107.80873277499997,
                        "value": 0
                    },
                    {
                        "number": 64,
                        "time": 109.43590214999996,
                        "value": 1
                    },
                    {
                        "number": 64,
                        "time": 110.21193677499996,
                        "value": 0
                    },
                    {
                        "number": 64,
                        "time": 110.57658960416663,
                        "value": 1
                    },
                    {
                        "number": 64,
                        "time": 111.3643064708333,
                        "value": 0
                    },
                    {
                        "number": 64,
                        "time": 111.77819160416664,
                        "value": 1
                    },
                    {
                        "number": 64,
                        "time": 112.5659084708333,
                        "value": 0
                    },
                    {
                        "number": 64,
                        "time": 112.97979360416664,
                        "value": 1
                    },
                    {
                        "number": 64,
                        "time": 113.76751047083332,
                        "value": 0
                    },
                    {
                        "number": 64,
                        "time": 114.18139560416665,
                        "value": 1
                    },
                    {
                        "number": 64,
                        "time": 114.96911247083332,
                        "value": 0
                    },
                    {
                        "number": 64,
                        "time": 115.38299760416666,
                        "value": 1
                    },
                    {
                        "number": 64,
                        "time": 116.17071447083333,
                        "value": 0
                    },
                    {
                        "number": 64,
                        "time": 116.58459960416667,
                        "value": 1
                    },
                    {
                        "number": 64,
                        "time": 117.37231647083334,
                        "value": 0
                    },
                    {
                        "number": 64,
                        "time": 117.78620160416668,
                        "value": 1
                    },
                    {
                        "number": 64,
                        "time": 118.57391847083335,
                        "value": 0
                    },
                    {
                        "number": 64,
                        "time": 118.98780360416669,
                        "value": 1
                    },
                    {
                        "number": 64,
                        "time": 119.77552047083336,
                        "value": 0
                    },
                    {
                        "number": 64,
                        "time": 120.20776341250003,
                        "value": 1
                    },
                    {
                        "number": 64,
                        "time": 120.7025897916667,
                        "value": 0
                    },
                    {
                        "number": 64,
                        "time": 121.60963241250003,
                        "value": 1
                    },
                    {
                        "number": 64,
                        "time": 121.87248285000004,
                        "value": 0
                    },
                    {
                        "number": 64,
                        "time": 122.83042666666671,
                        "value": 1
                    },
                    {
                        "number": 64,
                        "time": 122.99731583333337,
                        "value": 0
                    },
                    {
                        "number": 64,
                        "time": 136.63549853333336,
                        "value": 1
                    },
                    {
                        "number": 64,
                        "time": 136.9918069041667,
                        "value": 0
                    },
                    {
                        "number": 64,
                        "time": 137.03519808750005,
                        "value": 1
                    },
                    {
                        "number": 64,
                        "time": 137.79287490416672,
                        "value": 0
                    },
                    {
                        "number": 64,
                        "time": 137.85045166666671,
                        "value": 1
                    },
                    {
                        "number": 64,
                        "time": 138.19090556666671,
                        "value": 0
                    },
                    {
                        "number": 64,
                        "time": 138.2559923416667,
                        "value": 1
                    },
                    {
                        "number": 64,
                        "time": 138.59728068750005,
                        "value": 0
                    },
                    {
                        "number": 64,
                        "time": 138.67071192083338,
                        "value": 1
                    },
                    {
                        "number": 64,
                        "time": 138.99614579583337,
                        "value": 0
                    },
                    {
                        "number": 64,
                        "time": 139.04287476250005,
                        "value": 1
                    },
                    {
                        "number": 64,
                        "time": 139.40335536250004,
                        "value": 0
                    },
                    {
                        "number": 64,
                        "time": 139.43840208750004,
                        "value": 1
                    },
                    {
                        "number": 64,
                        "time": 139.79888268750003,
                        "value": 0
                    },
                    {
                        "number": 64,
                        "time": 139.84394276250003,
                        "value": 1
                    },
                    {
                        "number": 64,
                        "time": 140.6116329291667,
                        "value": 0
                    },
                    {
                        "number": 64,
                        "time": 140.62581850833337,
                        "value": 1
                    },
                    {
                        "number": 64,
                        "time": 141.00382247083337,
                        "value": 0
                    },
                    {
                        "number": 64,
                        "time": 141.05055143750005,
                        "value": 1
                    },
                    {
                        "number": 64,
                        "time": 141.79404267500004,
                        "value": 0
                    },
                    {
                        "number": 64,
                        "time": 141.84160608750005,
                        "value": 1
                    },
                    {
                        "number": 64,
                        "time": 142.60428957916673,
                        "value": 0
                    },
                    {
                        "number": 64,
                        "time": 142.65685966666672,
                        "value": 1
                    },
                    {
                        "number": 64,
                        "time": 142.99731356666672,
                        "value": 0
                    },
                    {
                        "number": 64,
                        "time": 143.05572477500004,
                        "value": 1
                    },
                    {
                        "number": 64,
                        "time": 143.40201979583338,
                        "value": 0
                    },
                    {
                        "number": 64,
                        "time": 143.45625877500004,
                        "value": 1
                    },
                    {
                        "number": 64,
                        "time": 145.39968312083337,
                        "value": 0
                    },
                    {
                        "number": 64,
                        "time": 145.4530876541667,
                        "value": 1
                    },
                    {
                        "number": 64,
                        "time": 145.81023047083337,
                        "value": 0
                    },
                    {
                        "number": 64,
                        "time": 145.86530389583336,
                        "value": 1
                    },
                    {
                        "number": 64,
                        "time": 146.60045067500002,
                        "value": 0
                    },
                    {
                        "number": 64,
                        "time": 146.64801408750003,
                        "value": 1
                    },
                    {
                        "number": 64,
                        "time": 147.01183247083335,
                        "value": 0
                    },
                    {
                        "number": 64,
                        "time": 147.04854808750002,
                        "value": 1
                    },
                    {
                        "number": 64,
                        "time": 147.80205267500003,
                        "value": 0
                    },
                    {
                        "number": 64,
                        "time": 147.85462276250001,
                        "value": 1
                    },
                    {
                        "number": 64,
                        "time": 149.0061580125,
                        "value": 0
                    },
                    {
                        "number": 64,
                        "time": 149.063734775,
                        "value": 1
                    },
                    {
                        "number": 64,
                        "time": 150.215270025,
                        "value": 0
                    },
                    {
                        "number": 64,
                        "time": 150.28870125833333,
                        "value": 1
                    },
                    {
                        "number": 64,
                        "time": 151.40769312083333,
                        "value": 0
                    },
                    {
                        "number": 64,
                        "time": 151.466938775,
                        "value": 1
                    },
                    {
                        "number": 64,
                        "time": 152.61096401249998,
                        "value": 0
                    },
                    {
                        "number": 64,
                        "time": 152.68606413749998,
                        "value": 1
                    },
                    {
                        "number": 64,
                        "time": 153.81423490416665,
                        "value": 0
                    },
                    {
                        "number": 64,
                        "time": 153.88182501666665,
                        "value": 1
                    },
                    {
                        "number": 64,
                        "time": 155.0141680125,
                        "value": 0
                    },
                    {
                        "number": 64,
                        "time": 155.06924143749998,
                        "value": 1
                    },
                    {
                        "number": 64,
                        "time": 156.2141011208333,
                        "value": 0
                    },
                    {
                        "number": 64,
                        "time": 156.26583676249996,
                        "value": 1
                    },
                    {
                        "number": 64,
                        "time": 158.61146399999996,
                        "value": 0
                    },
                    {
                        "number": 64,
                        "time": 158.65902741249997,
                        "value": 1
                    },
                    {
                        "number": 64,
                        "time": 159.02618357916663,
                        "value": 0
                    },
                    {
                        "number": 64,
                        "time": 159.08376034166662,
                        "value": 1
                    },
                    {
                        "number": 64,
                        "time": 159.42254534999995,
                        "value": 0
                    },
                    {
                        "number": 64,
                        "time": 187.09443807499994,
                        "value": 1
                    },
                    {
                        "number": 64,
                        "time": 188.26266224166662,
                        "value": 0
                    },
                    {
                        "number": 64,
                        "time": 188.49630707499995,
                        "value": 1
                    },
                    {
                        "number": 64,
                        "time": 189.46259534999996,
                        "value": 0
                    },
                    {
                        "number": 64,
                        "time": 189.6311534083333,
                        "value": 1
                    },
                    {
                        "number": 64,
                        "time": 191.06640024166663,
                        "value": 0
                    },
                    {
                        "number": 64,
                        "time": 191.2107593708333,
                        "value": 1
                    },
                    {
                        "number": 64,
                        "time": 191.84994487916663,
                        "value": 0
                    },
                    {
                        "number": 64,
                        "time": 193.55471771666663,
                        "value": 1
                    },
                    {
                        "number": 64,
                        "time": 194.27067224166663,
                        "value": 0
                    },
                    {
                        "number": 64,
                        "time": 194.38332242916664,
                        "value": 1
                    },
                    {
                        "number": 64,
                        "time": 194.66703401249998,
                        "value": 0
                    },
                    {
                        "number": 64,
                        "time": 198.41619914166665,
                        "value": 1
                    },
                    {
                        "number": 64,
                        "time": 199.07207356666666,
                        "value": 0
                    },
                    {
                        "number": 64,
                        "time": 199.16219371666665,
                        "value": 1
                    },
                    {
                        "number": 64,
                        "time": 199.47427645833332,
                        "value": 0
                    },
                    {
                        "number": 64,
                        "time": 201.94006389583333,
                        "value": 1
                    },
                    {
                        "number": 64,
                        "time": 202.68188624166666,
                        "value": 0
                    },
                    {
                        "number": 64,
                        "time": 203.20091155,
                        "value": 1
                    },
                    {
                        "number": 64,
                        "time": 203.8843226875,
                        "value": 0
                    },
                    {
                        "number": 64,
                        "time": 204.3724735,
                        "value": 1
                    },
                    {
                        "number": 64,
                        "time": 205.08008356666667,
                        "value": 0
                    },
                    {
                        "number": 64,
                        "time": 205.5415321125,
                        "value": 1
                    },
                    {
                        "number": 64,
                        "time": 206.28585779583332,
                        "value": 0
                    },
                    {
                        "number": 64,
                        "time": 218.691564,
                        "value": 1
                    },
                    {
                        "number": 64,
                        "time": 219.50347979583333,
                        "value": 0
                    },
                    {
                        "number": 64,
                        "time": 219.54603653333334,
                        "value": 1
                    },
                    {
                        "number": 64,
                        "time": 220.70508179583334,
                        "value": 0
                    },
                    {
                        "number": 64,
                        "time": 220.76766523333333,
                        "value": 1
                    },
                    {
                        "number": 64,
                        "time": 221.90751824166668,
                        "value": 0
                    },
                    {
                        "number": 64,
                        "time": 221.95174387083335,
                        "value": 1
                    },
                    {
                        "number": 64,
                        "time": 223.1091202416667,
                        "value": 0
                    },
                    {
                        "number": 64,
                        "time": 223.14500141250002,
                        "value": 1
                    },
                    {
                        "number": 64,
                        "time": 223.50464756666668,
                        "value": 0
                    },
                    {
                        "number": 64,
                        "time": 223.72076903750002,
                        "value": 1
                    },
                    {
                        "number": 64,
                        "time": 224.31239113333336,
                        "value": 0
                    },
                    {
                        "number": 64,
                        "time": 224.4634258291667,
                        "value": 1
                    },
                    {
                        "number": 64,
                        "time": 224.70958735000005,
                        "value": 0
                    },
                    {
                        "number": 64,
                        "time": 224.81055529583338,
                        "value": 1
                    },
                    {
                        "number": 64,
                        "time": 225.51816536250004,
                        "value": 0
                    },
                    {
                        "number": 64,
                        "time": 225.55321208750004,
                        "value": 1
                    },
                    {
                        "number": 64,
                        "time": 225.9070171208334,
                        "value": 0
                    },
                    {
                        "number": 64,
                        "time": 226.00130950000005,
                        "value": 1
                    },
                    {
                        "number": 64,
                        "time": 227.11028801250004,
                        "value": 0
                    },
                    {
                        "number": 64,
                        "time": 227.15034141250004,
                        "value": 1
                    },
                    {
                        "number": 64,
                        "time": 228.30438000000004,
                        "value": 0
                    },
                    {
                        "number": 64,
                        "time": 233.15417918333338,
                        "value": 1
                    },
                    {
                        "number": 64,
                        "time": 233.32190279583338,
                        "value": 0
                    },
                    {
                        "number": 64,
                        "time": 233.3970029208334,
                        "value": 1
                    },
                    {
                        "number": 64,
                        "time": 234.31739667500005,
                        "value": 0
                    },
                    {
                        "number": 64,
                        "time": 234.3557811833334,
                        "value": 1
                    },
                    {
                        "number": 64,
                        "time": 235.51399200000006,
                        "value": 0
                    },
                    {
                        "number": 64,
                        "time": 235.75598129166673,
                        "value": 1
                    },
                    {
                        "number": 64,
                        "time": 237.91719600000008,
                        "value": 0
                    },
                    {
                        "number": 64,
                        "time": 237.96058718333342,
                        "value": 1
                    },
                    {
                        "number": 64,
                        "time": 238.32273667500007,
                        "value": 0
                    },
                    {
                        "number": 64,
                        "time": 238.3611211833334,
                        "value": 1
                    },
                    {
                        "number": 64,
                        "time": 238.73244957916674,
                        "value": 0
                    },
                    {
                        "number": 64,
                        "time": 238.77083408750008,
                        "value": 1
                    },
                    {
                        "number": 64,
                        "time": 239.56272318333342,
                        "value": 0
                    },
                    {
                        "number": 64,
                        "time": 239.6152932708334,
                        "value": 1
                    },
                    {
                        "number": 64,
                        "time": 239.92987935000008,
                        "value": 0
                    },
                    {
                        "number": 64,
                        "time": 239.9774427625001,
                        "value": 1
                    },
                    {
                        "number": 64,
                        "time": 240.7284440125001,
                        "value": 0
                    },
                    {
                        "number": 64,
                        "time": 240.80688192083343,
                        "value": 1
                    },
                    {
                        "number": 64,
                        "time": 241.1339846875001,
                        "value": 0
                    },
                    {
                        "number": 64,
                        "time": 241.20240924583342,
                        "value": 1
                    },
                    {
                        "number": 64,
                        "time": 241.93672157916674,
                        "value": 0
                    },
                    {
                        "number": 64,
                        "time": 241.98011276250008,
                        "value": 1
                    },
                    {
                        "number": 64,
                        "time": 242.3389244708334,
                        "value": 0
                    },
                    {
                        "number": 64,
                        "time": 242.39483234166673,
                        "value": 1
                    },
                    {
                        "number": 64,
                        "time": 242.72360400000005,
                        "value": 0
                    },
                    {
                        "number": 64,
                        "time": 242.78618743750005,
                        "value": 1
                    },
                    {
                        "number": 64,
                        "time": 243.1399924708334,
                        "value": 0
                    },
                    {
                        "number": 64,
                        "time": 243.17670808750006,
                        "value": 1
                    },
                    {
                        "number": 64,
                        "time": 243.54052647083338,
                        "value": 0
                    },
                    {
                        "number": 64,
                        "time": 243.59142766666673,
                        "value": 1
                    },
                    {
                        "number": 64,
                        "time": 243.93772268750007,
                        "value": 0
                    },
                    {
                        "number": 64,
                        "time": 243.9585838333334,
                        "value": 1
                    },
                    {
                        "number": 64,
                        "time": 244.73795624166672,
                        "value": 0
                    },
                    {
                        "number": 64,
                        "time": 244.77884408750006,
                        "value": 1
                    },
                    {
                        "number": 64,
                        "time": 245.13682135000005,
                        "value": 0
                    },
                    {
                        "number": 64,
                        "time": 245.18939143750003,
                        "value": 1
                    },
                    {
                        "number": 64,
                        "time": 245.5365209041667,
                        "value": 0
                    },
                    {
                        "number": 64,
                        "time": 245.58491876250005,
                        "value": 1
                    },
                    {
                        "number": 64,
                        "time": 246.32841000000005,
                        "value": 0
                    },
                    {
                        "number": 64,
                        "time": 246.39099343750004,
                        "value": 1
                    },
                    {
                        "number": 64,
                        "time": 246.74312957916672,
                        "value": 0
                    },
                    {
                        "number": 64,
                        "time": 246.78652076250006,
                        "value": 1
                    },
                    {
                        "number": 64,
                        "time": 247.53752201250006,
                        "value": 0
                    },
                    {
                        "number": 64,
                        "time": 247.59259543750005,
                        "value": 1
                    },
                    {
                        "number": 64,
                        "time": 247.9464004708334,
                        "value": 0
                    },
                    {
                        "number": 64,
                        "time": 247.99730166666674,
                        "value": 1
                    },
                    {
                        "number": 64,
                        "time": 248.73828956666674,
                        "value": 0
                    },
                    {
                        "number": 64,
                        "time": 248.77917741250008,
                        "value": 1
                    },
                    {
                        "number": 64,
                        "time": 249.1480024708334,
                        "value": 0
                    },
                    {
                        "number": 64,
                        "time": 249.19640032916675,
                        "value": 1
                    },
                    {
                        "number": 64,
                        "time": 249.94322935000008,
                        "value": 0
                    },
                    {
                        "number": 64,
                        "time": 249.9907927625001,
                        "value": 1
                    },
                    {
                        "number": 64,
                        "time": 250.3496044708334,
                        "value": 0
                    },
                    {
                        "number": 64,
                        "time": 250.3963334375001,
                        "value": 1
                    },
                    {
                        "number": 64,
                        "time": 250.74513179583343,
                        "value": 0
                    },
                    {
                        "number": 64,
                        "time": 250.7868540875001,
                        "value": 1
                    },
                    {
                        "number": 64,
                        "time": 251.14065912083345,
                        "value": 0
                    },
                    {
                        "number": 64,
                        "time": 251.2591504291668,
                        "value": 1
                    },
                    {
                        "number": 64,
                        "time": 252.33642000000012,
                        "value": 0
                    },
                    {
                        "number": 64,
                        "time": 253.8501047416668,
                        "value": 1
                    },
                    {
                        "number": 64,
                        "time": 254.7462995666668,
                        "value": 0
                    },
                    {
                        "number": 64,
                        "time": 254.93989100000013,
                        "value": 1
                    },
                    {
                        "number": 64,
                        "time": 255.94873601250012,
                        "value": 0
                    },
                    {
                        "number": 64,
                        "time": 256.1865530750001,
                        "value": 1
                    },
                    {
                        "number": 64,
                        "time": 256.7564795791668,
                        "value": 0
                    },
                    {
                        "number": 64,
                        "time": 258.58975707500014,
                        "value": 1
                    },
                    {
                        "number": 64,
                        "time": 259.5568797958335,
                        "value": 0
                    },
                    {
                        "number": 64,
                        "time": 259.7913590750002,
                        "value": 1
                    },
                    {
                        "number": 64,
                        "time": 260.7576473500002,
                        "value": 0
                    },
                    {
                        "number": 64,
                        "time": 261.01465666666684,
                        "value": 1
                    },
                    {
                        "number": 64,
                        "time": 261.95924935000016,
                        "value": 0
                    },
                    {
                        "number": 64,
                        "time": 262.9288754083335,
                        "value": 1
                    },
                    {
                        "number": 64,
                        "time": 264.3524400000002,
                        "value": 0
                    },
                    {
                        "number": 64,
                        "time": 265.3320794083335,
                        "value": 1
                    },
                    {
                        "number": 64,
                        "time": 266.7589817833335,
                        "value": 0
                    },
                    {
                        "number": 64,
                        "time": 266.9559110000002,
                        "value": 1
                    },
                    {
                        "number": 64,
                        "time": 267.24546370416687,
                        "value": 0
                    },
                    {
                        "number": 64,
                        "time": 267.73528340833354,
                        "value": 1
                    },
                    {
                        "number": 64,
                        "time": 269.1588480000002,
                        "value": 0
                    },
                    {
                        "number": 64,
                        "time": 270.11595737083354,
                        "value": 1
                    },
                    {
                        "number": 64,
                        "time": 271.5620520000002,
                        "value": 0
                    },
                    {
                        "number": 64,
                        "time": 272.5416914083336,
                        "value": 1
                    },
                    {
                        "number": 64,
                        "time": 273.9685937833336,
                        "value": 0
                    },
                    {
                        "number": 64,
                        "time": 274.16552300000023,
                        "value": 1
                    },
                    {
                        "number": 64,
                        "time": 274.3824789166669,
                        "value": 0
                    },
                    {
                        "number": 64,
                        "time": 274.9448954083336,
                        "value": 1
                    },
                    {
                        "number": 64,
                        "time": 276.36846000000025,
                        "value": 0
                    },
                    {
                        "number": 64,
                        "time": 287.41819172500027,
                        "value": 1
                    },
                    {
                        "number": 64,
                        "time": 287.99312490416696,
                        "value": 0
                    },
                    {
                        "number": 64,
                        "time": 288.13581514166697,
                        "value": 1
                    },
                    {
                        "number": 64,
                        "time": 288.3894866750003,
                        "value": 0
                    },
                    {
                        "number": 64,
                        "time": 292.2379508583336,
                        "value": 1
                    },
                    {
                        "number": 64,
                        "time": 292.8053740250003,
                        "value": 0
                    },
                    {
                        "number": 64,
                        "time": 292.9288720083336,
                        "value": 1
                    },
                    {
                        "number": 64,
                        "time": 293.19756356666693,
                        "value": 0
                    },
                    {
                        "number": 64,
                        "time": 293.32106155000025,
                        "value": 1
                    },
                    {
                        "number": 64,
                        "time": 294.00447268750025,
                        "value": 0
                    },
                    {
                        "number": 64,
                        "time": 294.08624837916693,
                        "value": 1
                    },
                    {
                        "number": 64,
                        "time": 294.4033377958336,
                        "value": 0
                    },
                    {
                        "number": 64,
                        "time": 294.5485313708336,
                        "value": 1
                    },
                    {
                        "number": 64,
                        "time": 294.8597796666669,
                        "value": 0
                    }
                ]
            },
            "id": 3,
            "name": "Pedale",
            "instrumentNumber": 0,
            "instrument": "acoustic grand piano",
            "instrumentFamily": "piano",
            "channelNumber": 0,
            "isPercussion": false
        },
        {
            "startTime": 0,
            "duration": 0,
            "length": 0,
            "notes": [],
            "controlChanges": {},
            "id": 4,
            "name": "Beethoven: Sonatea Opus 90, 1. movement"
        },
        {
            "startTime": 0,
            "duration": 0,
            "length": 0,
            "notes": [],
            "controlChanges": {},
            "id": 5,
            "name": "Copyright  2010 by Bernd Krueger"
        },
        {
            "startTime": 0,
            "duration": 0,
            "length": 0,
            "notes": [],
            "controlChanges": {},
            "id": 6,
            "name": "http://www.piano-midi.de/"
        },
        {
            "startTime": 0,
            "duration": 0,
            "length": 0,
            "notes": [],
            "controlChanges": {},
            "id": 7,
            "name": "Edition: 2014-02-05"
        },
        {
            "startTime": 0,
            "duration": 0,
            "length": 0,
            "notes": [],
            "controlChanges": {},
            "id": 8,
            "name": "Spur 8"
        },
        {
            "startTime": 0,
            "duration": 0,
            "length": 0,
            "notes": [],
            "controlChanges": {},
            "id": 9,
            "name": "Spur 9"
        },
        {
            "startTime": 0,
            "duration": 0,
            "length": 0,
            "notes": [],
            "controlChanges": {},
            "id": 10,
            "name": "Spur 10"
        },
        {
            "startTime": 0,
            "duration": 0,
            "length": 0,
            "notes": [],
            "controlChanges": {},
            "id": 11,
            "name": "Spur 11"
        },
        {
            "startTime": 0,
            "duration": 0,
            "length": 0,
            "notes": [],
            "controlChanges": {},
            "id": 12,
            "name": "Spur 12"
        },
        {
            "startTime": 0,
            "duration": 0,
            "length": 0,
            "notes": [],
            "controlChanges": {},
            "id": 13,
            "name": "Spur 13"
        },
        {
            "startTime": 0,
            "duration": 0,
            "length": 0,
            "notes": [],
            "controlChanges": {},
            "id": 14,
            "name": "Spur 14"
        },
        {
            "startTime": 0,
            "duration": 0,
            "length": 0,
            "notes": [],
            "controlChanges": {},
            "id": 15,
            "name": "Spur 15"
        },
        {
            "startTime": 0,
            "duration": 0,
            "length": 0,
            "notes": [],
            "controlChanges": {},
            "id": 16,
            "name": "Spur 16"
        }
    ]
}