{
    "header": {
        "PPQ": 480,
        "timeSignature": [
            3,
            4
        ],
        "bpm": 68.3900191606037,
        "name": ""
    },
    "startTime": 0,
    "duration": 68.43103799999977,
    "tracks": [
        {
            "startTime": 0,
            "duration": 68.43103799999977,
            "length": 355,
            "notes": [
                {
                    "name": "C5",
                    "midi": 72,
                    "time": 0,
                    "velocity": 0.3937007874015748,
                    "duration": 1.754642
                },
                {
                    "name": "F3",
                    "midi": 53,
                    "time": 0,
                    "velocity": 0.1889763779527559,
                    "duration": 0.2924403333333333
                },
                {
                    "name": "A3",
                    "midi": 57,
                    "time": 0.2924403333333333,
                    "velocity": 0.15748031496062992,
                    "duration": 0.2924403333333333
                },
                {
                    "name": "C4",
                    "midi": 60,
                    "time": 0.5848806666666666,
                    "velocity": 0.15748031496062992,
                    "duration": 0.2924403333333333
                },
                {
                    "name": "F3",
                    "midi": 53,
                    "time": 0.8773209999999999,
                    "velocity": 0.1889763779527559,
                    "duration": 0.2924403333333333
                },
                {
                    "name": "A3",
                    "midi": 57,
                    "time": 1.1697613333333332,
                    "velocity": 0.15748031496062992,
                    "duration": 0.2924403333333334
                },
                {
                    "name": "C4",
                    "midi": 60,
                    "time": 1.4622016666666666,
                    "velocity": 0.15748031496062992,
                    "duration": 0.2924403333333334
                },
                {
                    "name": "F5",
                    "midi": 77,
                    "time": 1.754642,
                    "velocity": 0.3858267716535433,
                    "duration": 0.8773210000000002
                },
                {
                    "name": "F3",
                    "midi": 53,
                    "time": 1.754642,
                    "velocity": 0.1889763779527559,
                    "duration": 0.2924403333333334
                },
                {
                    "name": "A3",
                    "midi": 57,
                    "time": 2.0470823333333334,
                    "velocity": 0.15748031496062992,
                    "duration": 0.2924403333333334
                },
                {
                    "name": "C4",
                    "midi": 60,
                    "time": 2.339522666666667,
                    "velocity": 0.15748031496062992,
                    "duration": 0.2924403333333334
                },
                {
                    "name": "A4",
                    "midi": 69,
                    "time": 2.6319630000000003,
                    "velocity": 0.3937007874015748,
                    "duration": 1.754642
                },
                {
                    "name": "F3",
                    "midi": 53,
                    "time": 2.6319630000000003,
                    "velocity": 0.1889763779527559,
                    "duration": 0.29244033333333297
                },
                {
                    "name": "A3",
                    "midi": 57,
                    "time": 2.9244033333333332,
                    "velocity": 0.15748031496062992,
                    "duration": 0.2924403333333334
                },
                {
                    "name": "C4",
                    "midi": 60,
                    "time": 3.2168436666666667,
                    "velocity": 0.15748031496062992,
                    "duration": 0.2924403333333334
                },
                {
                    "name": "F3",
                    "midi": 53,
                    "time": 3.509284,
                    "velocity": 0.1889763779527559,
                    "duration": 0.2924403333333334
                },
                {
                    "name": "A3",
                    "midi": 57,
                    "time": 3.8017243333333335,
                    "velocity": 0.15748031496062992,
                    "duration": 0.2924403333333334
                },
                {
                    "name": "C4",
                    "midi": 60,
                    "time": 4.094164666666667,
                    "velocity": 0.15748031496062992,
                    "duration": 0.2924403333333334
                },
                {
                    "name": "C5",
                    "midi": 72,
                    "time": 4.386605,
                    "velocity": 0.3858267716535433,
                    "duration": 0.8773210000000002
                },
                {
                    "name": "F3",
                    "midi": 53,
                    "time": 4.386605,
                    "velocity": 0.1889763779527559,
                    "duration": 0.2924403333333334
                },
                {
                    "name": "A3",
                    "midi": 57,
                    "time": 4.679045333333334,
                    "velocity": 0.15748031496062992,
                    "duration": 0.2924403333333334
                },
                {
                    "name": "C4",
                    "midi": 60,
                    "time": 4.971485666666667,
                    "velocity": 0.15748031496062992,
                    "duration": 0.2924403333333334
                },
                {
                    "name": "F4",
                    "midi": 65,
                    "time": 5.2639260000000005,
                    "velocity": 0.3464566929133858,
                    "duration": 1.7546420000000005
                },
                {
                    "name": "C3",
                    "midi": 48,
                    "time": 5.2639260000000005,
                    "velocity": 0.1889763779527559,
                    "duration": 0.2924403333333334
                },
                {
                    "name": "F3",
                    "midi": 53,
                    "time": 5.556366333333334,
                    "velocity": 0.15748031496062992,
                    "duration": 0.2924403333333334
                },
                {
                    "name": "A3",
                    "midi": 57,
                    "time": 5.848806666666667,
                    "velocity": 0.15748031496062992,
                    "duration": 0.2924403333333334
                },
                {
                    "name": "C3",
                    "midi": 48,
                    "time": 6.141247000000001,
                    "velocity": 0.1889763779527559,
                    "duration": 0.2924403333333334
                },
                {
                    "name": "F3",
                    "midi": 53,
                    "time": 6.433687333333334,
                    "velocity": 0.16535433070866143,
                    "duration": 0.2924403333333334
                },
                {
                    "name": "A3",
                    "midi": 57,
                    "time": 6.726127666666668,
                    "velocity": 0.16535433070866143,
                    "duration": 0.2924403333333334
                },
                {
                    "name": "G4",
                    "midi": 67,
                    "time": 7.018568000000001,
                    "velocity": 0.25984251968503935,
                    "duration": 0.10966512500000025
                },
                {
                    "name": "C3",
                    "midi": 48,
                    "time": 7.018568000000001,
                    "velocity": 0.1889763779527559,
                    "duration": 0.2924403333333334
                },
                {
                    "name": "A4",
                    "midi": 69,
                    "time": 7.128233125000001,
                    "velocity": 0.23622047244094488,
                    "duration": 0.10966512500000025
                },
                {
                    "name": "G4",
                    "midi": 67,
                    "time": 7.2378982500000015,
                    "velocity": 0.2755905511811024,
                    "duration": 0.10966512499999936
                },
                {
                    "name": "E3",
                    "midi": 52,
                    "time": 7.311008333333334,
                    "velocity": 0.15748031496062992,
                    "duration": 0.2924403333333325
                },
                {
                    "name": "A4",
                    "midi": 69,
                    "time": 7.347563375000001,
                    "velocity": 0.25196850393700787,
                    "duration": 0.10966512500000025
                },
                {
                    "name": "G4",
                    "midi": 67,
                    "time": 7.457228500000001,
                    "velocity": 0.30708661417322836,
                    "duration": 0.07311008333333291
                },
                {
                    "name": "A4",
                    "midi": 69,
                    "time": 7.530338583333334,
                    "velocity": 0.25984251968503935,
                    "duration": 0.07311008333333291
                },
                {
                    "name": "G4",
                    "midi": 67,
                    "time": 7.603448666666667,
                    "velocity": 0.2992125984251969,
                    "duration": 0.0731100833333338
                },
                {
                    "name": "G3",
                    "midi": 55,
                    "time": 7.603448666666667,
                    "velocity": 0.15748031496062992,
                    "duration": 0.2924403333333325
                },
                {
                    "name": "A4",
                    "midi": 69,
                    "time": 7.676558750000001,
                    "velocity": 0.2755905511811024,
                    "duration": 0.05483256249999968
                },
                {
                    "name": "G4",
                    "midi": 67,
                    "time": 7.7313913125000004,
                    "velocity": 0.30708661417322836,
                    "duration": 0.05483256249999968
                },
                {
                    "name": "F4",
                    "midi": 65,
                    "time": 7.786223875,
                    "velocity": 0.2677165354330709,
                    "duration": 0.05483256249999968
                },
                {
                    "name": "G4",
                    "midi": 67,
                    "time": 7.8410564375,
                    "velocity": 0.2677165354330709,
                    "duration": 0.05483256249999968
                },
                {
                    "name": "A4",
                    "midi": 69,
                    "time": 7.8958889999999995,
                    "velocity": 0.3858267716535433,
                    "duration": 0.8773210000000011
                },
                {
                    "name": "F3",
                    "midi": 53,
                    "time": 7.8958889999999995,
                    "velocity": 0.1889763779527559,
                    "duration": 0.2924403333333343
                },
                {
                    "name": "A3",
                    "midi": 57,
                    "time": 8.188329333333334,
                    "velocity": 0.15748031496062992,
                    "duration": 0.2924403333333334
                },
                {
                    "name": "C4",
                    "midi": 60,
                    "time": 8.480769666666667,
                    "velocity": 0.15748031496062992,
                    "duration": 0.2924403333333334
                },
                {
                    "name": "F4",
                    "midi": 65,
                    "time": 8.77321,
                    "velocity": 0.2440944881889764,
                    "duration": 0.2924403333333334
                },
                {
                    "name": "A4",
                    "midi": 69,
                    "time": 9.065650333333334,
                    "velocity": 0.2677165354330709,
                    "duration": 0.2924403333333334
                },
                {
                    "name": "C5",
                    "midi": 72,
                    "time": 9.358090666666667,
                    "velocity": 0.29133858267716534,
                    "duration": 0.2924403333333334
                },
                {
                    "name": "F5",
                    "midi": 77,
                    "time": 9.650531,
                    "velocity": 0.33070866141732286,
                    "duration": 0.14622016666666582
                },
                {
                    "name": "F5",
                    "midi": 77,
                    "time": 9.942971333333332,
                    "velocity": 0.30708661417322836,
                    "duration": 0.14622016666666582
                },
                {
                    "name": "F5",
                    "midi": 77,
                    "time": 10.235411666666664,
                    "velocity": 0.2755905511811024,
                    "duration": 0.14622016666666582
                },
                {
                    "name": "D5",
                    "midi": 74,
                    "time": 10.527851999999996,
                    "velocity": 0.3858267716535433,
                    "duration": 0.8773210000000002
                },
                {
                    "name": "F3",
                    "midi": 53,
                    "time": 10.527851999999996,
                    "velocity": 0.1889763779527559,
                    "duration": 0.2924403333333334
                },
                {
                    "name": "A#3",
                    "midi": 58,
                    "time": 10.82029233333333,
                    "velocity": 0.15748031496062992,
                    "duration": 0.2924403333333334
                },
                {
                    "name": "D4",
                    "midi": 62,
                    "time": 11.112732666666663,
                    "velocity": 0.15748031496062992,
                    "duration": 0.2924403333333334
                },
                {
                    "name": "F4",
                    "midi": 65,
                    "time": 11.405172999999996,
                    "velocity": 0.2440944881889764,
                    "duration": 0.2924403333333334
                },
                {
                    "name": "A#4",
                    "midi": 70,
                    "time": 11.69761333333333,
                    "velocity": 0.2677165354330709,
                    "duration": 0.2924403333333334
                },
                {
                    "name": "D5",
                    "midi": 74,
                    "time": 11.990053666666663,
                    "velocity": 0.29133858267716534,
                    "duration": 0.2924403333333334
                },
                {
                    "name": "F5",
                    "midi": 77,
                    "time": 12.282493999999996,
                    "velocity": 0.33070866141732286,
                    "duration": 0.14622016666666582
                },
                {
                    "name": "F5",
                    "midi": 77,
                    "time": 12.574934333333328,
                    "velocity": 0.30708661417322836,
                    "duration": 0.14622016666666582
                },
                {
                    "name": "F5",
                    "midi": 77,
                    "time": 12.86737466666666,
                    "velocity": 0.2755905511811024,
                    "duration": 0.14622016666666582
                },
                {
                    "name": "C5",
                    "midi": 72,
                    "time": 13.159814999999991,
                    "velocity": 0.3858267716535433,
                    "duration": 0.8773210000000002
                },
                {
                    "name": "F3",
                    "midi": 53,
                    "time": 13.159814999999991,
                    "velocity": 0.1889763779527559,
                    "duration": 0.2924403333333334
                },
                {
                    "name": "A3",
                    "midi": 57,
                    "time": 13.452255333333325,
                    "velocity": 0.15748031496062992,
                    "duration": 0.2924403333333334
                },
                {
                    "name": "C4",
                    "midi": 60,
                    "time": 13.744695666666658,
                    "velocity": 0.15748031496062992,
                    "duration": 0.2924403333333334
                },
                {
                    "name": "A5",
                    "midi": 81,
                    "time": 14.037135999999991,
                    "velocity": 0.41732283464566927,
                    "duration": 0.2924403333333334
                },
                {
                    "name": "F3",
                    "midi": 53,
                    "time": 14.037135999999991,
                    "velocity": 0.1889763779527559,
                    "duration": 0.2924403333333334
                },
                {
                    "name": "G5",
                    "midi": 79,
                    "time": 14.329576333333325,
                    "velocity": 0.33070866141732286,
                    "duration": 0.2924403333333334
                },
                {
                    "name": "A3",
                    "midi": 57,
                    "time": 14.329576333333325,
                    "velocity": 0.15748031496062992,
                    "duration": 0.2924403333333334
                },
                {
                    "name": "F5",
                    "midi": 77,
                    "time": 14.622016666666658,
                    "velocity": 0.33070866141732286,
                    "duration": 0.2924403333333334
                },
                {
                    "name": "C4",
                    "midi": 60,
                    "time": 14.622016666666658,
                    "velocity": 0.18110236220472442,
                    "duration": 0.2924403333333334
                },
                {
                    "name": "E5",
                    "midi": 76,
                    "time": 14.914456999999992,
                    "velocity": 0.4015748031496063,
                    "duration": 0.2924403333333334
                },
                {
                    "name": "F3",
                    "midi": 53,
                    "time": 14.914456999999992,
                    "velocity": 0.1889763779527559,
                    "duration": 0.2924403333333334
                },
                {
                    "name": "D5",
                    "midi": 74,
                    "time": 15.206897333333325,
                    "velocity": 0.33070866141732286,
                    "duration": 0.2924403333333334
                },
                {
                    "name": "A3",
                    "midi": 57,
                    "time": 15.206897333333325,
                    "velocity": 0.16535433070866143,
                    "duration": 0.2924403333333334
                },
                {
                    "name": "C5",
                    "midi": 72,
                    "time": 15.499337666666658,
                    "velocity": 0.33070866141732286,
                    "duration": 0.2924403333333334
                },
                {
                    "name": "C4",
                    "midi": 60,
                    "time": 15.499337666666658,
                    "velocity": 0.16535433070866143,
                    "duration": 0.2924403333333334
                },
                {
                    "name": "C5",
                    "midi": 72,
                    "time": 15.791777999999992,
                    "velocity": 0.4015748031496063,
                    "duration": 0.2924403333333334
                },
                {
                    "name": "A#3",
                    "midi": 58,
                    "time": 15.791777999999992,
                    "velocity": 0.29133858267716534,
                    "duration": 0.8773209999999967
                },
                {
                    "name": "E4",
                    "midi": 64,
                    "time": 16.084218333333325,
                    "velocity": 0.36220472440944884,
                    "duration": 0.29244033333333164
                },
                {
                    "name": "G4",
                    "midi": 67,
                    "time": 16.376658666666657,
                    "velocity": 0.3700787401574803,
                    "duration": 0.29244033333333164
                },
                {
                    "name": "C5",
                    "midi": 72,
                    "time": 16.66909899999999,
                    "velocity": 0.44881889763779526,
                    "duration": 0.29244033333333164
                },
                {
                    "name": "A3",
                    "midi": 57,
                    "time": 16.66909899999999,
                    "velocity": 0.31496062992125984,
                    "duration": 0.8773209999999949
                },
                {
                    "name": "F4",
                    "midi": 65,
                    "time": 16.96153933333332,
                    "velocity": 0.3858267716535433,
                    "duration": 0.29244033333333164
                },
                {
                    "name": "A4",
                    "midi": 69,
                    "time": 17.253979666666652,
                    "velocity": 0.3858267716535433,
                    "duration": 0.29244033333333164
                },
                {
                    "name": "C5",
                    "midi": 72,
                    "time": 17.546419999999983,
                    "velocity": 0.4881889763779528,
                    "duration": 0.29244033333333164
                },
                {
                    "name": "F3",
                    "midi": 53,
                    "time": 17.546419999999983,
                    "velocity": 0.3543307086614173,
                    "duration": 0.8773209999999949
                },
                {
                    "name": "F4",
                    "midi": 65,
                    "time": 17.838860333333315,
                    "velocity": 0.41732283464566927,
                    "duration": 0.29244033333333164
                },
                {
                    "name": "A4",
                    "midi": 69,
                    "time": 18.131300666666647,
                    "velocity": 0.4015748031496063,
                    "duration": 0.29244033333333164
                },
                {
                    "name": "C5",
                    "midi": 72,
                    "time": 18.42374099999998,
                    "velocity": 0.4881889763779528,
                    "duration": 0.6579907499999997
                },
                {
                    "name": "C3",
                    "midi": 48,
                    "time": 18.42374099999998,
                    "velocity": 0.3543307086614173,
                    "duration": 0.2924403333333352
                },
                {
                    "name": "F3",
                    "midi": 53,
                    "time": 18.716181333333314,
                    "velocity": 0.30708661417322836,
                    "duration": 0.29244033333333164
                },
                {
                    "name": "A3",
                    "midi": 57,
                    "time": 19.008621666666645,
                    "velocity": 0.30708661417322836,
                    "duration": 0.29244033333333164
                },
                {
                    "name": "A4",
                    "midi": 69,
                    "time": 19.081731749999978,
                    "velocity": 0.3779527559055118,
                    "duration": 0.21933024999999873
                },
                {
                    "name": "G4",
                    "midi": 67,
                    "time": 19.301061999999977,
                    "velocity": 0.33858267716535434,
                    "duration": 0.8773209999999985
                },
                {
                    "name": "C3",
                    "midi": 48,
                    "time": 19.301061999999977,
                    "velocity": 0.2440944881889764,
                    "duration": 0.2924403333333352
                },
                {
                    "name": "E3",
                    "midi": 52,
                    "time": 19.593502333333312,
                    "velocity": 0.2047244094488189,
                    "duration": 0.29244033333333164
                },
                {
                    "name": "G3",
                    "midi": 55,
                    "time": 19.885942666666644,
                    "velocity": 0.2047244094488189,
                    "duration": 0.29244033333333164
                },
                {
                    "name": "C3",
                    "midi": 48,
                    "time": 20.178382999999975,
                    "velocity": 0.2440944881889764,
                    "duration": 0.29244033333333164
                },
                {
                    "name": "E3",
                    "midi": 52,
                    "time": 20.470823333333307,
                    "velocity": 0.2283464566929134,
                    "duration": 0.29244033333333164
                },
                {
                    "name": "G3",
                    "midi": 55,
                    "time": 20.76326366666664,
                    "velocity": 0.23622047244094488,
                    "duration": 0.29244033333333164
                },
                {
                    "name": "D5",
                    "midi": 74,
                    "time": 21.05570399999997,
                    "velocity": 0.33858267716535434,
                    "duration": 0.14622016666666582
                },
                {
                    "name": "F5",
                    "midi": 77,
                    "time": 21.05570399999997,
                    "velocity": 0.4015748031496063,
                    "duration": 0.14622016666666582
                },
                {
                    "name": "G2",
                    "midi": 43,
                    "time": 21.05570399999997,
                    "velocity": 0.31496062992125984,
                    "duration": 1.7546419999999898
                },
                {
                    "name": "F5",
                    "midi": 77,
                    "time": 21.348144333333302,
                    "velocity": 0.3779527559055118,
                    "duration": 0.14622016666666582
                },
                {
                    "name": "D5",
                    "midi": 74,
                    "time": 21.348144333333302,
                    "velocity": 0.31496062992125984,
                    "duration": 0.14622016666666582
                },
                {
                    "name": "F5",
                    "midi": 77,
                    "time": 21.640584666666633,
                    "velocity": 0.3779527559055118,
                    "duration": 0.14622016666666582
                },
                {
                    "name": "D5",
                    "midi": 74,
                    "time": 21.640584666666633,
                    "velocity": 0.31496062992125984,
                    "duration": 0.14622016666666582
                },
                {
                    "name": "C5",
                    "midi": 72,
                    "time": 21.933024999999965,
                    "velocity": 0.33858267716535434,
                    "duration": 0.14622016666666582
                },
                {
                    "name": "E5",
                    "midi": 76,
                    "time": 21.933024999999965,
                    "velocity": 0.4015748031496063,
                    "duration": 0.14622016666666582
                },
                {
                    "name": "E5",
                    "midi": 76,
                    "time": 22.225465333333297,
                    "velocity": 0.3543307086614173,
                    "duration": 0.14622016666666582
                },
                {
                    "name": "C5",
                    "midi": 72,
                    "time": 22.225465333333297,
                    "velocity": 0.2992125984251969,
                    "duration": 0.14622016666666582
                },
                {
                    "name": "E5",
                    "midi": 76,
                    "time": 22.51790566666663,
                    "velocity": 0.3543307086614173,
                    "duration": 0.14622016666666582
                },
                {
                    "name": "C5",
                    "midi": 72,
                    "time": 22.51790566666663,
                    "velocity": 0.2992125984251969,
                    "duration": 0.14622016666666582
                },
                {
                    "name": "B4",
                    "midi": 71,
                    "time": 22.81034599999996,
                    "velocity": 0.28346456692913385,
                    "duration": 0.14622016666666582
                },
                {
                    "name": "D5",
                    "midi": 74,
                    "time": 22.81034599999996,
                    "velocity": 0.33858267716535434,
                    "duration": 0.14622016666666582
                },
                {
                    "name": "F3",
                    "midi": 53,
                    "time": 22.81034599999996,
                    "velocity": 0.3543307086614173,
                    "duration": 0.8773209999999949
                },
                {
                    "name": "B4",
                    "midi": 71,
                    "time": 23.10278633333329,
                    "velocity": 0.33070866141732286,
                    "duration": 0.14622016666666582
                },
                {
                    "name": "D5",
                    "midi": 74,
                    "time": 23.10278633333329,
                    "velocity": 0.3937007874015748,
                    "duration": 0.14622016666666582
                },
                {
                    "name": "B4",
                    "midi": 71,
                    "time": 23.395226666666623,
                    "velocity": 0.3543307086614173,
                    "duration": 0.14622016666666582
                },
                {
                    "name": "D5",
                    "midi": 74,
                    "time": 23.395226666666623,
                    "velocity": 0.4251968503937008,
                    "duration": 0.14622016666666582
                },
                {
                    "name": "G5",
                    "midi": 79,
                    "time": 23.687666999999955,
                    "velocity": 0.5275590551181102,
                    "duration": 0.8773209999999985
                },
                {
                    "name": "E3",
                    "midi": 52,
                    "time": 23.687666999999955,
                    "velocity": 0.28346456692913385,
                    "duration": 0.2924403333333352
                },
                {
                    "name": "G3",
                    "midi": 55,
                    "time": 23.98010733333329,
                    "velocity": 0.2283464566929134,
                    "duration": 0.29244033333333164
                },
                {
                    "name": "C4",
                    "midi": 60,
                    "time": 24.272547666666622,
                    "velocity": 0.2283464566929134,
                    "duration": 0.29244033333333164
                },
                {
                    "name": "G4",
                    "midi": 67,
                    "time": 24.564987999999953,
                    "velocity": 0.4015748031496063,
                    "duration": 0.2924403333333352
                },
                {
                    "name": "E3",
                    "midi": 52,
                    "time": 24.564987999999953,
                    "velocity": 0.31496062992125984,
                    "duration": 1.7546419999999934
                },
                {
                    "name": "A4",
                    "midi": 69,
                    "time": 24.85742833333329,
                    "velocity": 0.3779527559055118,
                    "duration": 0.29244033333333164
                },
                {
                    "name": "B4",
                    "midi": 71,
                    "time": 25.14986866666662,
                    "velocity": 0.3779527559055118,
                    "duration": 0.29244033333333164
                },
                {
                    "name": "C5",
                    "midi": 72,
                    "time": 25.442308999999952,
                    "velocity": 0.4015748031496063,
                    "duration": 0.29244033333333164
                },
                {
                    "name": "D5",
                    "midi": 74,
                    "time": 25.734749333333284,
                    "velocity": 0.3700787401574803,
                    "duration": 0.29244033333333164
                },
                {
                    "name": "E5",
                    "midi": 76,
                    "time": 26.027189666666615,
                    "velocity": 0.3700787401574803,
                    "duration": 0.29244033333333164
                },
                {
                    "name": "A4",
                    "midi": 69,
                    "time": 26.319629999999947,
                    "velocity": 0.4015748031496063,
                    "duration": 0.29244033333333164
                },
                {
                    "name": "F3",
                    "midi": 53,
                    "time": 26.319629999999947,
                    "velocity": 0.31496062992125984,
                    "duration": 0.8773209999999949
                },
                {
                    "name": "F5",
                    "midi": 77,
                    "time": 26.61207033333328,
                    "velocity": 0.3700787401574803,
                    "duration": 0.29244033333333164
                },
                {
                    "name": "D5",
                    "midi": 74,
                    "time": 26.90451066666661,
                    "velocity": 0.36220472440944884,
                    "duration": 0.29244033333333164
                },
                {
                    "name": "C5",
                    "midi": 72,
                    "time": 27.19695099999994,
                    "velocity": 0.4330708661417323,
                    "duration": 0.14622016666666937
                },
                {
                    "name": "E4",
                    "midi": 64,
                    "time": 27.19695099999994,
                    "velocity": 0.36220472440944884,
                    "duration": 0.14622016666666937
                },
                {
                    "name": "G3",
                    "midi": 55,
                    "time": 27.19695099999994,
                    "velocity": 0.31496062992125984,
                    "duration": 0.8773209999999985
                },
                {
                    "name": "C5",
                    "midi": 72,
                    "time": 27.489391333333277,
                    "velocity": 0.3779527559055118,
                    "duration": 0.14622016666666582
                },
                {
                    "name": "E4",
                    "midi": 64,
                    "time": 27.489391333333277,
                    "velocity": 0.31496062992125984,
                    "duration": 0.14622016666666582
                },
                {
                    "name": "C5",
                    "midi": 72,
                    "time": 27.78183166666661,
                    "velocity": 0.36220472440944884,
                    "duration": 0.14622016666666582
                },
                {
                    "name": "E4",
                    "midi": 64,
                    "time": 27.78183166666661,
                    "velocity": 0.30708661417322836,
                    "duration": 0.14622016666666582
                },
                {
                    "name": "B4",
                    "midi": 71,
                    "time": 28.07427199999994,
                    "velocity": 0.4251968503937008,
                    "duration": 0.14622016666666582
                },
                {
                    "name": "D4",
                    "midi": 62,
                    "time": 28.07427199999994,
                    "velocity": 0.3543307086614173,
                    "duration": 0.14622016666666582
                },
                {
                    "name": "G2",
                    "midi": 43,
                    "time": 28.07427199999994,
                    "velocity": 0.2755905511811024,
                    "duration": 0.8773209999999949
                },
                {
                    "name": "B4",
                    "midi": 71,
                    "time": 28.366712333333272,
                    "velocity": 0.36220472440944884,
                    "duration": 0.14622016666666582
                },
                {
                    "name": "D4",
                    "midi": 62,
                    "time": 28.366712333333272,
                    "velocity": 0.30708661417322836,
                    "duration": 0.14622016666666582
                },
                {
                    "name": "B4",
                    "midi": 71,
                    "time": 28.659152666666603,
                    "velocity": 0.36220472440944884,
                    "duration": 0.14622016666666582
                },
                {
                    "name": "D4",
                    "midi": 62,
                    "time": 28.659152666666603,
                    "velocity": 0.30708661417322836,
                    "duration": 0.14622016666666582
                },
                {
                    "name": "D5",
                    "midi": 74,
                    "time": 28.951592999999935,
                    "velocity": 0.4566929133858268,
                    "duration": 1.754641999999997
                },
                {
                    "name": "F4",
                    "midi": 65,
                    "time": 28.951592999999935,
                    "velocity": 0.3858267716535433,
                    "duration": 1.754641999999997
                },
                {
                    "name": "C2",
                    "midi": 36,
                    "time": 28.951592999999935,
                    "velocity": 0.31496062992125984,
                    "duration": 0.8773209999999985
                },
                {
                    "name": "G2",
                    "midi": 43,
                    "time": 29.828913999999934,
                    "velocity": 0.2755905511811024,
                    "duration": 0.8773209999999985
                },
                {
                    "name": "E4",
                    "midi": 64,
                    "time": 30.706234999999932,
                    "velocity": 0.2992125984251969,
                    "duration": 0.8773209999999985
                },
                {
                    "name": "C5",
                    "midi": 72,
                    "time": 30.706234999999932,
                    "velocity": 0.3543307086614173,
                    "duration": 0.8773209999999985
                },
                {
                    "name": "C3",
                    "midi": 48,
                    "time": 30.706234999999932,
                    "velocity": 0.30708661417322836,
                    "duration": 0.8773209999999985
                },
                {
                    "name": "C5",
                    "midi": 72,
                    "time": 31.58355599999993,
                    "velocity": 0.33858267716535434,
                    "duration": 0.29244033333333164
                },
                {
                    "name": "C5",
                    "midi": 72,
                    "time": 31.875996333333262,
                    "velocity": 0.3543307086614173,
                    "duration": 0.29244033333333164
                },
                {
                    "name": "C5",
                    "midi": 72,
                    "time": 32.168436666666594,
                    "velocity": 0.3858267716535433,
                    "duration": 0.29244033333333164
                },
                {
                    "name": "D#5",
                    "midi": 75,
                    "time": 32.460876999999925,
                    "velocity": 0.4251968503937008,
                    "duration": 0.29244033333333164
                },
                {
                    "name": "D5",
                    "midi": 74,
                    "time": 32.75331733333326,
                    "velocity": 0.3858267716535433,
                    "duration": 0.29244033333333164
                },
                {
                    "name": "C5",
                    "midi": 72,
                    "time": 33.04575766666659,
                    "velocity": 0.3779527559055118,
                    "duration": 0.29244033333333164
                },
                {
                    "name": "A#4",
                    "midi": 70,
                    "time": 33.33819799999992,
                    "velocity": 0.33858267716535434,
                    "duration": 0.29244033333333164
                },
                {
                    "name": "A4",
                    "midi": 69,
                    "time": 33.63063833333325,
                    "velocity": 0.30708661417322836,
                    "duration": 0.29244033333333164
                },
                {
                    "name": "G4",
                    "midi": 67,
                    "time": 33.923078666666584,
                    "velocity": 0.30708661417322836,
                    "duration": 0.29244033333333164
                },
                {
                    "name": "F#4",
                    "midi": 66,
                    "time": 34.215518999999915,
                    "velocity": 0.3700787401574803,
                    "duration": 0.29244033333333164
                },
                {
                    "name": "C4",
                    "midi": 60,
                    "time": 34.215518999999915,
                    "velocity": 0.29133858267716534,
                    "duration": 0.8773209999999949
                },
                {
                    "name": "A4",
                    "midi": 69,
                    "time": 34.50795933333325,
                    "velocity": 0.3228346456692913,
                    "duration": 0.29244033333333164
                },
                {
                    "name": "D4",
                    "midi": 62,
                    "time": 34.80039966666658,
                    "velocity": 0.3228346456692913,
                    "duration": 0.29244033333333164
                },
                {
                    "name": "G4",
                    "midi": 67,
                    "time": 35.09283999999991,
                    "velocity": 0.3779527559055118,
                    "duration": 0.29244033333333164
                },
                {
                    "name": "A#3",
                    "midi": 58,
                    "time": 35.09283999999991,
                    "velocity": 0.2677165354330709,
                    "duration": 0.8773209999999949
                },
                {
                    "name": "A#4",
                    "midi": 70,
                    "time": 35.38528033333324,
                    "velocity": 0.30708661417322836,
                    "duration": 0.29244033333333164
                },
                {
                    "name": "D4",
                    "midi": 62,
                    "time": 35.67772066666657,
                    "velocity": 0.30708661417322836,
                    "duration": 0.29244033333333164
                },
                {
                    "name": "A4",
                    "midi": 69,
                    "time": 35.970160999999905,
                    "velocity": 0.4015748031496063,
                    "duration": 0.29244033333333164
                },
                {
                    "name": "F#3",
                    "midi": 54,
                    "time": 35.970160999999905,
                    "velocity": 0.2992125984251969,
                    "duration": 0.8773209999999949
                },
                {
                    "name": "C5",
                    "midi": 72,
                    "time": 36.26260133333324,
                    "velocity": 0.33858267716535434,
                    "duration": 0.29244033333333164
                },
                {
                    "name": "D4",
                    "midi": 62,
                    "time": 36.55504166666657,
                    "velocity": 0.33858267716535434,
                    "duration": 0.29244033333333164
                },
                {
                    "name": "A#4",
                    "midi": 70,
                    "time": 36.8474819999999,
                    "velocity": 0.33858267716535434,
                    "duration": 0.26319629999999705
                },
                {
                    "name": "A#4",
                    "midi": 70,
                    "time": 37.13992233333323,
                    "velocity": 0.3543307086614173,
                    "duration": 0.26319629999999705
                },
                {
                    "name": "A#4",
                    "midi": 70,
                    "time": 37.43236266666656,
                    "velocity": 0.3858267716535433,
                    "duration": 0.26319629999999705
                },
                {
                    "name": "D5",
                    "midi": 74,
                    "time": 37.73576951249989,
                    "velocity": 0.4251968503937008,
                    "duration": 0.29244033333333164
                },
                {
                    "name": "C5",
                    "midi": 72,
                    "time": 38.01724333333323,
                    "velocity": 0.3779527559055118,
                    "duration": 0.29244033333333164
                },
                {
                    "name": "A#4",
                    "midi": 70,
                    "time": 38.30968366666656,
                    "velocity": 0.3779527559055118,
                    "duration": 0.29244033333333164
                },
                {
                    "name": "A4",
                    "midi": 69,
                    "time": 38.60212399999989,
                    "velocity": 0.33858267716535434,
                    "duration": 0.29244033333333164
                },
                {
                    "name": "G4",
                    "midi": 67,
                    "time": 38.89456433333322,
                    "velocity": 0.30708661417322836,
                    "duration": 0.29244033333333164
                },
                {
                    "name": "F4",
                    "midi": 65,
                    "time": 39.18700466666655,
                    "velocity": 0.30708661417322836,
                    "duration": 0.29244033333333164
                },
                {
                    "name": "E4",
                    "midi": 64,
                    "time": 39.479444999999885,
                    "velocity": 0.3700787401574803,
                    "duration": 0.29244033333333164
                },
                {
                    "name": "A#3",
                    "midi": 58,
                    "time": 39.479444999999885,
                    "velocity": 0.29133858267716534,
                    "duration": 0.8773209999999949
                },
                {
                    "name": "G4",
                    "midi": 67,
                    "time": 39.771885333333216,
                    "velocity": 0.3228346456692913,
                    "duration": 0.29244033333333164
                },
                {
                    "name": "C4",
                    "midi": 60,
                    "time": 40.06432566666655,
                    "velocity": 0.3228346456692913,
                    "duration": 0.29244033333333164
                },
                {
                    "name": "F4",
                    "midi": 65,
                    "time": 40.35676599999988,
                    "velocity": 0.3779527559055118,
                    "duration": 0.29244033333333164
                },
                {
                    "name": "A3",
                    "midi": 57,
                    "time": 40.35676599999988,
                    "velocity": 0.2677165354330709,
                    "duration": 0.8773209999999949
                },
                {
                    "name": "A4",
                    "midi": 69,
                    "time": 40.64920633333321,
                    "velocity": 0.30708661417322836,
                    "duration": 0.29244033333333164
                },
                {
                    "name": "C5",
                    "midi": 72,
                    "time": 40.94164666666654,
                    "velocity": 0.30708661417322836,
                    "duration": 0.29244033333333164
                },
                {
                    "name": "A4",
                    "midi": 69,
                    "time": 41.234086999999874,
                    "velocity": 0.33858267716535434,
                    "duration": 0.29244033333333164
                },
                {
                    "name": "C5",
                    "midi": 72,
                    "time": 41.234086999999874,
                    "velocity": 0.4015748031496063,
                    "duration": 0.29244033333333164
                },
                {
                    "name": "F3",
                    "midi": 53,
                    "time": 41.234086999999874,
                    "velocity": 0.2992125984251969,
                    "duration": 0.8773209999999949
                },
                {
                    "name": "G4",
                    "midi": 67,
                    "time": 41.526527333333206,
                    "velocity": 0.29133858267716534,
                    "duration": 0.29244033333333164
                },
                {
                    "name": "A#4",
                    "midi": 70,
                    "time": 41.526527333333206,
                    "velocity": 0.33858267716535434,
                    "duration": 0.29244033333333164
                },
                {
                    "name": "F4",
                    "midi": 65,
                    "time": 41.81896766666654,
                    "velocity": 0.2755905511811024,
                    "duration": 0.29244033333333164
                },
                {
                    "name": "A4",
                    "midi": 69,
                    "time": 41.81896766666654,
                    "velocity": 0.33858267716535434,
                    "duration": 0.29244033333333164
                },
                {
                    "name": "F4",
                    "midi": 65,
                    "time": 42.11140799999987,
                    "velocity": 0.33858267716535434,
                    "duration": 0.8773209999999949
                },
                {
                    "name": "A4",
                    "midi": 69,
                    "time": 42.11140799999987,
                    "velocity": 0.4015748031496063,
                    "duration": 0.8773209999999949
                },
                {
                    "name": "C3",
                    "midi": 48,
                    "time": 42.11140799999987,
                    "velocity": 0.29133858267716534,
                    "duration": 0.29244033333333164
                },
                {
                    "name": "C4",
                    "midi": 60,
                    "time": 42.4038483333332,
                    "velocity": 0.2440944881889764,
                    "duration": 0.29244033333333164
                },
                {
                    "name": "C4",
                    "midi": 60,
                    "time": 42.69628866666653,
                    "velocity": 0.2440944881889764,
                    "duration": 0.29244033333333164
                },
                {
                    "name": "E4",
                    "midi": 64,
                    "time": 42.988728999999864,
                    "velocity": 0.2283464566929134,
                    "duration": 0.29244033333333164
                },
                {
                    "name": "G4",
                    "midi": 67,
                    "time": 42.988728999999864,
                    "velocity": 0.2755905511811024,
                    "duration": 0.29244033333333164
                },
                {
                    "name": "C4",
                    "midi": 60,
                    "time": 42.988728999999864,
                    "velocity": 0.29133858267716534,
                    "duration": 0.8773209999999949
                },
                {
                    "name": "A4",
                    "midi": 69,
                    "time": 43.281169333333196,
                    "velocity": 0.28346456692913385,
                    "duration": 0.21933024999999873
                },
                {
                    "name": "C5",
                    "midi": 72,
                    "time": 43.281169333333196,
                    "velocity": 0.33858267716535434,
                    "duration": 0.21933024999999873
                },
                {
                    "name": "A4",
                    "midi": 69,
                    "time": 43.57360966666653,
                    "velocity": 0.28346456692913385,
                    "duration": 0.21933024999999873
                },
                {
                    "name": "C5",
                    "midi": 72,
                    "time": 43.57360966666653,
                    "velocity": 0.33858267716535434,
                    "duration": 0.21933024999999873
                },
                {
                    "name": "A4",
                    "midi": 69,
                    "time": 43.86604999999986,
                    "velocity": 0.30708661417322836,
                    "duration": 0.29244033333333164
                },
                {
                    "name": "C5",
                    "midi": 72,
                    "time": 43.86604999999986,
                    "velocity": 0.3700787401574803,
                    "duration": 0.29244033333333164
                },
                {
                    "name": "A#4",
                    "midi": 70,
                    "time": 44.15849033333319,
                    "velocity": 0.33070866141732286,
                    "duration": 0.29244033333333874
                },
                {
                    "name": "G4",
                    "midi": 67,
                    "time": 44.15849033333319,
                    "velocity": 0.2755905511811024,
                    "duration": 0.29244033333333874
                },
                {
                    "name": "A4",
                    "midi": 69,
                    "time": 44.45093066666653,
                    "velocity": 0.3228346456692913,
                    "duration": 0.29244033333333164
                },
                {
                    "name": "F4",
                    "midi": 65,
                    "time": 44.45093066666653,
                    "velocity": 0.2677165354330709,
                    "duration": 0.29244033333333164
                },
                {
                    "name": "F4",
                    "midi": 65,
                    "time": 44.74337099999986,
                    "velocity": 0.33858267716535434,
                    "duration": 0.8773209999999949
                },
                {
                    "name": "A4",
                    "midi": 69,
                    "time": 44.74337099999986,
                    "velocity": 0.4015748031496063,
                    "duration": 0.8773209999999949
                },
                {
                    "name": "C3",
                    "midi": 48,
                    "time": 44.74337099999986,
                    "velocity": 0.29133858267716534,
                    "duration": 0.29244033333333164
                },
                {
                    "name": "C4",
                    "midi": 60,
                    "time": 45.03581133333319,
                    "velocity": 0.2440944881889764,
                    "duration": 0.29244033333333164
                },
                {
                    "name": "C4",
                    "midi": 60,
                    "time": 45.328251666666524,
                    "velocity": 0.2440944881889764,
                    "duration": 0.29244033333333164
                },
                {
                    "name": "E4",
                    "midi": 64,
                    "time": 45.620691999999856,
                    "velocity": 0.2283464566929134,
                    "duration": 0.8773209999999949
                },
                {
                    "name": "G4",
                    "midi": 67,
                    "time": 45.620691999999856,
                    "velocity": 0.2755905511811024,
                    "duration": 0.8773209999999949
                },
                {
                    "name": "C4",
                    "midi": 60,
                    "time": 45.620691999999856,
                    "velocity": 0.29133858267716534,
                    "duration": 0.29244033333333164
                },
                {
                    "name": "D4",
                    "midi": 62,
                    "time": 45.91313233333319,
                    "velocity": 0.25196850393700787,
                    "duration": 0.29244033333333164
                },
                {
                    "name": "C4",
                    "midi": 60,
                    "time": 46.20557266666652,
                    "velocity": 0.25196850393700787,
                    "duration": 0.29244033333333164
                },
                {
                    "name": "A#3",
                    "midi": 58,
                    "time": 46.49801299999985,
                    "velocity": 0.29133858267716534,
                    "duration": 0.29244033333333164
                },
                {
                    "name": "A3",
                    "midi": 57,
                    "time": 46.79045333333318,
                    "velocity": 0.2755905511811024,
                    "duration": 0.29244033333333164
                },
                {
                    "name": "G3",
                    "midi": 55,
                    "time": 47.082893666666514,
                    "velocity": 0.2440944881889764,
                    "duration": 0.29244033333333164
                },
                {
                    "name": "C5",
                    "midi": 72,
                    "time": 47.375333999999846,
                    "velocity": 0.4094488188976378,
                    "duration": 1.7546419999999898
                },
                {
                    "name": "F3",
                    "midi": 53,
                    "time": 47.375333999999846,
                    "velocity": 0.1889763779527559,
                    "duration": 0.29244033333333164
                },
                {
                    "name": "A3",
                    "midi": 57,
                    "time": 47.66777433333318,
                    "velocity": 0.15748031496062992,
                    "duration": 0.29244033333333164
                },
                {
                    "name": "C4",
                    "midi": 60,
                    "time": 47.96021466666651,
                    "velocity": 0.15748031496062992,
                    "duration": 0.29244033333333164
                },
                {
                    "name": "F3",
                    "midi": 53,
                    "time": 48.25265499999984,
                    "velocity": 0.1889763779527559,
                    "duration": 0.29244033333333164
                },
                {
                    "name": "A3",
                    "midi": 57,
                    "time": 48.54509533333317,
                    "velocity": 0.15748031496062992,
                    "duration": 0.29244033333333164
                },
                {
                    "name": "C4",
                    "midi": 60,
                    "time": 48.837535666666504,
                    "velocity": 0.15748031496062992,
                    "duration": 0.29244033333333164
                },
                {
                    "name": "F5",
                    "midi": 77,
                    "time": 49.129975999999836,
                    "velocity": 0.3937007874015748,
                    "duration": 0.8773209999999949
                },
                {
                    "name": "F3",
                    "midi": 53,
                    "time": 49.129975999999836,
                    "velocity": 0.1889763779527559,
                    "duration": 0.29244033333333164
                },
                {
                    "name": "A3",
                    "midi": 57,
                    "time": 49.42241633333317,
                    "velocity": 0.15748031496062992,
                    "duration": 0.29244033333333164
                },
                {
                    "name": "C4",
                    "midi": 60,
                    "time": 49.7148566666665,
                    "velocity": 0.15748031496062992,
                    "duration": 0.29244033333333164
                },
                {
                    "name": "A4",
                    "midi": 69,
                    "time": 50.00729699999983,
                    "velocity": 0.3464566929133858,
                    "duration": 1.7546419999999898
                },
                {
                    "name": "F3",
                    "midi": 53,
                    "time": 50.00729699999983,
                    "velocity": 0.1889763779527559,
                    "duration": 0.29244033333333164
                },
                {
                    "name": "A3",
                    "midi": 57,
                    "time": 50.29973733333316,
                    "velocity": 0.15748031496062992,
                    "duration": 0.29244033333333164
                },
                {
                    "name": "C4",
                    "midi": 60,
                    "time": 50.592177666666494,
                    "velocity": 0.15748031496062992,
                    "duration": 0.29244033333333164
                },
                {
                    "name": "F3",
                    "midi": 53,
                    "time": 50.884617999999826,
                    "velocity": 0.1889763779527559,
                    "duration": 0.29244033333333164
                },
                {
                    "name": "A3",
                    "midi": 57,
                    "time": 51.17705833333316,
                    "velocity": 0.15748031496062992,
                    "duration": 0.29244033333333164
                },
                {
                    "name": "C4",
                    "midi": 60,
                    "time": 51.46949866666649,
                    "velocity": 0.15748031496062992,
                    "duration": 0.29244033333333164
                },
                {
                    "name": "C5",
                    "midi": 72,
                    "time": 51.76193899999982,
                    "velocity": 0.36220472440944884,
                    "duration": 0.8773209999999949
                },
                {
                    "name": "F3",
                    "midi": 53,
                    "time": 51.76193899999982,
                    "velocity": 0.1889763779527559,
                    "duration": 0.29244033333333164
                },
                {
                    "name": "A3",
                    "midi": 57,
                    "time": 52.05437933333315,
                    "velocity": 0.15748031496062992,
                    "duration": 0.29244033333333164
                },
                {
                    "name": "C4",
                    "midi": 60,
                    "time": 52.346819666666484,
                    "velocity": 0.15748031496062992,
                    "duration": 0.29244033333333164
                },
                {
                    "name": "D#4",
                    "midi": 63,
                    "time": 52.639259999999815,
                    "velocity": 0.4251968503937008,
                    "duration": 1.754641999999997
                },
                {
                    "name": "F3",
                    "midi": 53,
                    "time": 52.639259999999815,
                    "velocity": 0.2047244094488189,
                    "duration": 0.29244033333333874
                },
                {
                    "name": "A3",
                    "midi": 57,
                    "time": 52.931700333333154,
                    "velocity": 0.1732283464566929,
                    "duration": 0.29244033333333164
                },
                {
                    "name": "C4",
                    "midi": 60,
                    "time": 53.224140666666486,
                    "velocity": 0.1732283464566929,
                    "duration": 0.29244033333333164
                },
                {
                    "name": "F3",
                    "midi": 53,
                    "time": 53.51658099999982,
                    "velocity": 0.2125984251968504,
                    "duration": 0.29244033333333164
                },
                {
                    "name": "A3",
                    "midi": 57,
                    "time": 53.80902133333315,
                    "velocity": 0.18110236220472442,
                    "duration": 0.29244033333333164
                },
                {
                    "name": "C4",
                    "midi": 60,
                    "time": 54.10146166666648,
                    "velocity": 0.1889763779527559,
                    "duration": 0.29244033333333164
                },
                {
                    "name": "D#4",
                    "midi": 63,
                    "time": 54.39390199999981,
                    "velocity": 0.25984251968503935,
                    "duration": 0.10966512499999936
                },
                {
                    "name": "F3",
                    "midi": 53,
                    "time": 54.39390199999981,
                    "velocity": 0.2125984251968504,
                    "duration": 0.29244033333333164
                },
                {
                    "name": "F4",
                    "midi": 65,
                    "time": 54.50356712499981,
                    "velocity": 0.23622047244094488,
                    "duration": 0.10966512499999936
                },
                {
                    "name": "D#4",
                    "midi": 63,
                    "time": 54.61323224999981,
                    "velocity": 0.28346456692913385,
                    "duration": 0.10966512499999936
                },
                {
                    "name": "A3",
                    "midi": 57,
                    "time": 54.686342333333144,
                    "velocity": 0.18110236220472442,
                    "duration": 0.29244033333333164
                },
                {
                    "name": "F4",
                    "midi": 65,
                    "time": 54.72289737499981,
                    "velocity": 0.25984251968503935,
                    "duration": 0.10966512499999936
                },
                {
                    "name": "D#4",
                    "midi": 63,
                    "time": 54.83256249999981,
                    "velocity": 0.3228346456692913,
                    "duration": 0.07311008333333291
                },
                {
                    "name": "F4",
                    "midi": 65,
                    "time": 54.90567258333314,
                    "velocity": 0.2755905511811024,
                    "duration": 0.07311008333333291
                },
                {
                    "name": "D#4",
                    "midi": 63,
                    "time": 54.978782666666476,
                    "velocity": 0.3228346456692913,
                    "duration": 0.07311008333333291
                },
                {
                    "name": "C4",
                    "midi": 60,
                    "time": 54.978782666666476,
                    "velocity": 0.1968503937007874,
                    "duration": 0.29244033333334585
                },
                {
                    "name": "F4",
                    "midi": 65,
                    "time": 55.05189274999981,
                    "velocity": 0.2992125984251969,
                    "duration": 0.054832562500003235
                },
                {
                    "name": "D#4",
                    "midi": 63,
                    "time": 55.10672531249981,
                    "velocity": 0.33858267716535434,
                    "duration": 0.054832562500003235
                },
                {
                    "name": "D4",
                    "midi": 62,
                    "time": 55.161557874999815,
                    "velocity": 0.2992125984251969,
                    "duration": 0.054832562500003235
                },
                {
                    "name": "D#4",
                    "midi": 63,
                    "time": 55.21639043749982,
                    "velocity": 0.2992125984251969,
                    "duration": 0.054832562500003235
                },
                {
                    "name": "D4",
                    "midi": 62,
                    "time": 55.27122299999982,
                    "velocity": 0.2755905511811024,
                    "duration": 0.29244033333333164
                },
                {
                    "name": "A#3",
                    "midi": 58,
                    "time": 55.27122299999982,
                    "velocity": 0.25984251968503935,
                    "duration": 1.7546419999999898
                },
                {
                    "name": "F4",
                    "midi": 65,
                    "time": 55.56366333333315,
                    "velocity": 0.2677165354330709,
                    "duration": 0.29244033333333164
                },
                {
                    "name": "A#4",
                    "midi": 70,
                    "time": 55.856103666666485,
                    "velocity": 0.29133858267716534,
                    "duration": 0.29244033333333164
                },
                {
                    "name": "D5",
                    "midi": 74,
                    "time": 56.148543999999816,
                    "velocity": 0.33070866141732286,
                    "duration": 0.14622016666666582
                },
                {
                    "name": "D5",
                    "midi": 74,
                    "time": 56.44098433333315,
                    "velocity": 0.30708661417322836,
                    "duration": 0.14622016666666582
                },
                {
                    "name": "D5",
                    "midi": 74,
                    "time": 56.73342466666648,
                    "velocity": 0.2755905511811024,
                    "duration": 0.14622016666666582
                },
                {
                    "name": "D5",
                    "midi": 74,
                    "time": 57.02586499999981,
                    "velocity": 0.33858267716535434,
                    "duration": 0.877321000000002
                },
                {
                    "name": "G4",
                    "midi": 67,
                    "time": 57.90318599999981,
                    "velocity": 0.33858267716535434,
                    "duration": 0.14622016666666582
                },
                {
                    "name": "A#4",
                    "midi": 70,
                    "time": 57.90318599999981,
                    "velocity": 0.4015748031496063,
                    "duration": 0.14622016666666582
                },
                {
                    "name": "C2",
                    "midi": 36,
                    "time": 57.90318599999981,
                    "velocity": 0.31496062992125984,
                    "duration": 1.7546419999999898
                },
                {
                    "name": "A#4",
                    "midi": 70,
                    "time": 58.195626333333145,
                    "velocity": 0.3779527559055118,
                    "duration": 0.14622016666666582
                },
                {
                    "name": "G4",
                    "midi": 67,
                    "time": 58.195626333333145,
                    "velocity": 0.31496062992125984,
                    "duration": 0.14622016666666582
                },
                {
                    "name": "A#4",
                    "midi": 70,
                    "time": 58.48806666666648,
                    "velocity": 0.3937007874015748,
                    "duration": 0.14622016666666582
                },
                {
                    "name": "G4",
                    "midi": 67,
                    "time": 58.48806666666648,
                    "velocity": 0.33070866141732286,
                    "duration": 0.14622016666666582
                },
                {
                    "name": "F4",
                    "midi": 65,
                    "time": 58.78050699999981,
                    "velocity": 0.36220472440944884,
                    "duration": 0.14622016666666582
                },
                {
                    "name": "A4",
                    "midi": 69,
                    "time": 58.78050699999981,
                    "velocity": 0.4330708661417323,
                    "duration": 0.14622016666666582
                },
                {
                    "name": "A4",
                    "midi": 69,
                    "time": 59.07294733333314,
                    "velocity": 0.3858267716535433,
                    "duration": 0.14622016666666582
                },
                {
                    "name": "F4",
                    "midi": 65,
                    "time": 59.07294733333314,
                    "velocity": 0.33070866141732286,
                    "duration": 0.14622016666666582
                },
                {
                    "name": "A4",
                    "midi": 69,
                    "time": 59.36538766666647,
                    "velocity": 0.3937007874015748,
                    "duration": 0.14622016666666582
                },
                {
                    "name": "F4",
                    "midi": 65,
                    "time": 59.36538766666647,
                    "velocity": 0.33070866141732286,
                    "duration": 0.14622016666666582
                },
                {
                    "name": "E4",
                    "midi": 64,
                    "time": 59.6578279999998,
                    "velocity": 0.28346456692913385,
                    "duration": 0.14622016666667292
                },
                {
                    "name": "G4",
                    "midi": 67,
                    "time": 59.6578279999998,
                    "velocity": 0.3464566929133858,
                    "duration": 0.14622016666667292
                },
                {
                    "name": "A#2",
                    "midi": 46,
                    "time": 59.6578279999998,
                    "velocity": 0.4094488188976378,
                    "duration": 0.877321000000002
                },
                {
                    "name": "E4",
                    "midi": 64,
                    "time": 59.95026833333314,
                    "velocity": 0.3464566929133858,
                    "duration": 0.14622016666666582
                },
                {
                    "name": "G4",
                    "midi": 67,
                    "time": 59.95026833333314,
                    "velocity": 0.41732283464566927,
                    "duration": 0.14622016666666582
                },
                {
                    "name": "E4",
                    "midi": 64,
                    "time": 60.24270866666647,
                    "velocity": 0.3779527559055118,
                    "duration": 0.14622016666666582
                },
                {
                    "name": "G4",
                    "midi": 67,
                    "time": 60.24270866666647,
                    "velocity": 0.4566929133858268,
                    "duration": 0.14622016666666582
                },
                {
                    "name": "C5",
                    "midi": 72,
                    "time": 60.535148999999805,
                    "velocity": 0.5748031496062992,
                    "duration": 0.6579907499999962
                },
                {
                    "name": "A2",
                    "midi": 45,
                    "time": 60.535148999999805,
                    "velocity": 0.3543307086614173,
                    "duration": 0.29244033333333164
                },
                {
                    "name": "C3",
                    "midi": 48,
                    "time": 60.82758933333314,
                    "velocity": 0.29133858267716534,
                    "duration": 0.29244033333333164
                },
                {
                    "name": "F3",
                    "midi": 53,
                    "time": 61.12002966666647,
                    "velocity": 0.29133858267716534,
                    "duration": 0.29244033333333164
                },
                {
                    "name": "F4",
                    "midi": 65,
                    "time": 61.1931397499998,
                    "velocity": 0.4566929133858268,
                    "duration": 0.21933024999999873
                },
                {
                    "name": "F5",
                    "midi": 77,
                    "time": 61.4124699999998,
                    "velocity": 0.5590551181102362,
                    "duration": 0.29244033333333164
                },
                {
                    "name": "A2",
                    "midi": 45,
                    "time": 61.4124699999998,
                    "velocity": 0.28346456692913385,
                    "duration": 0.29244033333333164
                },
                {
                    "name": "E5",
                    "midi": 76,
                    "time": 61.70491033333313,
                    "velocity": 0.44881889763779526,
                    "duration": 0.29244033333333164
                },
                {
                    "name": "C3",
                    "midi": 48,
                    "time": 61.70491033333313,
                    "velocity": 0.2440944881889764,
                    "duration": 0.29244033333333164
                },
                {
                    "name": "D5",
                    "midi": 74,
                    "time": 61.99735066666646,
                    "velocity": 0.41732283464566927,
                    "duration": 0.29244033333333164
                },
                {
                    "name": "F3",
                    "midi": 53,
                    "time": 61.99735066666646,
                    "velocity": 0.2440944881889764,
                    "duration": 0.29244033333333164
                },
                {
                    "name": "C5",
                    "midi": 72,
                    "time": 62.289790999999795,
                    "velocity": 0.49606299212598426,
                    "duration": 0.29244033333333164
                },
                {
                    "name": "A2",
                    "midi": 45,
                    "time": 62.289790999999795,
                    "velocity": 0.28346456692913385,
                    "duration": 0.29244033333333164
                },
                {
                    "name": "A#4",
                    "midi": 70,
                    "time": 62.58223133333313,
                    "velocity": 0.44881889763779526,
                    "duration": 0.29244033333333164
                },
                {
                    "name": "C3",
                    "midi": 48,
                    "time": 62.58223133333313,
                    "velocity": 0.2440944881889764,
                    "duration": 0.29244033333333164
                },
                {
                    "name": "A4",
                    "midi": 69,
                    "time": 62.87467166666646,
                    "velocity": 0.3858267716535433,
                    "duration": 0.29244033333333164
                },
                {
                    "name": "F3",
                    "midi": 53,
                    "time": 62.87467166666646,
                    "velocity": 0.2440944881889764,
                    "duration": 0.29244033333333164
                },
                {
                    "name": "G4",
                    "midi": 67,
                    "time": 63.16711199999979,
                    "velocity": 0.5118110236220472,
                    "duration": 0.29244033333333164
                },
                {
                    "name": "A#2",
                    "midi": 46,
                    "time": 63.16711199999979,
                    "velocity": 0.28346456692913385,
                    "duration": 0.29244033333333164
                },
                {
                    "name": "A#4",
                    "midi": 70,
                    "time": 63.45955233333312,
                    "velocity": 0.44881889763779526,
                    "duration": 0.29244033333333164
                },
                {
                    "name": "D3",
                    "midi": 50,
                    "time": 63.45955233333312,
                    "velocity": 0.2440944881889764,
                    "duration": 0.29244033333333164
                },
                {
                    "name": "D5",
                    "midi": 74,
                    "time": 63.75199266666645,
                    "velocity": 0.41732283464566927,
                    "duration": 0.29244033333333164
                },
                {
                    "name": "G3",
                    "midi": 55,
                    "time": 63.75199266666645,
                    "velocity": 0.2440944881889764,
                    "duration": 0.29244033333333164
                },
                {
                    "name": "F4",
                    "midi": 65,
                    "time": 64.04443299999978,
                    "velocity": 0.5118110236220472,
                    "duration": 0.8773209999999949
                },
                {
                    "name": "C3",
                    "midi": 48,
                    "time": 64.04443299999978,
                    "velocity": 0.28346456692913385,
                    "duration": 0.29244033333333164
                },
                {
                    "name": "F3",
                    "midi": 53,
                    "time": 64.33687333333312,
                    "velocity": 0.2440944881889764,
                    "duration": 0.29244033333333164
                },
                {
                    "name": "A3",
                    "midi": 57,
                    "time": 64.62931366666645,
                    "velocity": 0.2440944881889764,
                    "duration": 0.29244033333333164
                },
                {
                    "name": "G4",
                    "midi": 67,
                    "time": 64.92175399999978,
                    "velocity": 0.33070866141732286,
                    "duration": 0.10966512500000647
                },
                {
                    "name": "C3",
                    "midi": 48,
                    "time": 64.92175399999978,
                    "velocity": 0.2440944881889764,
                    "duration": 0.29244033333334585
                },
                {
                    "name": "A4",
                    "midi": 69,
                    "time": 65.03141912499979,
                    "velocity": 0.30708661417322836,
                    "duration": 0.10966512500000647
                },
                {
                    "name": "G4",
                    "midi": 67,
                    "time": 65.14108424999979,
                    "velocity": 0.3543307086614173,
                    "duration": 0.10966512500000647
                },
                {
                    "name": "E3",
                    "midi": 52,
                    "time": 65.21419433333313,
                    "velocity": 0.2047244094488189,
                    "duration": 0.29244033333334585
                },
                {
                    "name": "A4",
                    "midi": 69,
                    "time": 65.2507493749998,
                    "velocity": 0.3228346456692913,
                    "duration": 0.10966512500000647
                },
                {
                    "name": "G4",
                    "midi": 67,
                    "time": 65.3604144999998,
                    "velocity": 0.3937007874015748,
                    "duration": 0.07311008333333291
                },
                {
                    "name": "A4",
                    "midi": 69,
                    "time": 65.43352458333314,
                    "velocity": 0.33070866141732286,
                    "duration": 0.07311008333333291
                },
                {
                    "name": "G4",
                    "midi": 67,
                    "time": 65.50663466666647,
                    "velocity": 0.3858267716535433,
                    "duration": 0.07311008333333291
                },
                {
                    "name": "G3",
                    "midi": 55,
                    "time": 65.50663466666647,
                    "velocity": 0.2047244094488189,
                    "duration": 0.2924403333333174
                },
                {
                    "name": "A4",
                    "midi": 69,
                    "time": 65.5797447499998,
                    "velocity": 0.3543307086614173,
                    "duration": 0.05483256249999613
                },
                {
                    "name": "G4",
                    "midi": 67,
                    "time": 65.6345773124998,
                    "velocity": 0.3937007874015748,
                    "duration": 0.05483256249999613
                },
                {
                    "name": "F4",
                    "midi": 65,
                    "time": 65.6894098749998,
                    "velocity": 0.3464566929133858,
                    "duration": 0.05483256249999613
                },
                {
                    "name": "G4",
                    "midi": 67,
                    "time": 65.74424243749979,
                    "velocity": 0.3464566929133858,
                    "duration": 0.05483256249999613
                },
                {
                    "name": "F4",
                    "midi": 65,
                    "time": 65.79907499999979,
                    "velocity": 0.49606299212598426,
                    "duration": 2.6319629999999847
                },
                {
                    "name": "F2",
                    "midi": 41,
                    "time": 65.79907499999979,
                    "velocity": 0.28346456692913385,
                    "duration": 0.29244033333333164
                },
                {
                    "name": "A2",
                    "midi": 45,
                    "time": 66.09151533333312,
                    "velocity": 0.2283464566929134,
                    "duration": 0.29244033333333164
                },
                {
                    "name": "C3",
                    "midi": 48,
                    "time": 66.38395566666645,
                    "velocity": 0.2283464566929134,
                    "duration": 0.29244033333333164
                },
                {
                    "name": "F3",
                    "midi": 53,
                    "time": 66.67639599999978,
                    "velocity": 0.28346456692913385,
                    "duration": 0.29244033333333164
                },
                {
                    "name": "C3",
                    "midi": 48,
                    "time": 66.96883633333312,
                    "velocity": 0.28346456692913385,
                    "duration": 0.29244033333333164
                },
                {
                    "name": "A2",
                    "midi": 45,
                    "time": 67.26127666666645,
                    "velocity": 0.28346456692913385,
                    "duration": 0.29244033333333164
                },
                {
                    "name": "F2",
                    "midi": 41,
                    "time": 67.55371699999978,
                    "velocity": 0.28346456692913385,
                    "duration": 0.8773209999999949
                }
            ],
            "controlChanges": {
                "64": [
                    {
                        "number": 64,
                        "time": 0.1425646625,
                        "value": 1
                    },
                    {
                        "number": 64,
                        "time": 2.6831400583333336,
                        "value": 0
                    },
                    {
                        "number": 64,
                        "time": 2.8257047208333335,
                        "value": 1
                    },
                    {
                        "number": 64,
                        "time": 5.2639260000000005,
                        "value": 0
                    },
                    {
                        "number": 64,
                        "time": 5.444873456250001,
                        "value": 1
                    },
                    {
                        "number": 64,
                        "time": 7.045984281250001,
                        "value": 0
                    },
                    {
                        "number": 64,
                        "time": 7.128233125000001,
                        "value": 1
                    },
                    {
                        "number": 64,
                        "time": 7.8958889999999995,
                        "value": 0
                    },
                    {
                        "number": 64,
                        "time": 8.012865133333333,
                        "value": 1
                    },
                    {
                        "number": 64,
                        "time": 10.527851999999996,
                        "value": 0
                    },
                    {
                        "number": 64,
                        "time": 10.644828133333329,
                        "value": 1
                    },
                    {
                        "number": 64,
                        "time": 13.159814999999991,
                        "value": 0
                    },
                    {
                        "number": 64,
                        "time": 13.276791133333324,
                        "value": 1
                    },
                    {
                        "number": 64,
                        "time": 14.141317868749992,
                        "value": 0
                    },
                    {
                        "number": 64,
                        "time": 15.908754133333325,
                        "value": 1
                    },
                    {
                        "number": 64,
                        "time": 16.69285977708332,
                        "value": 0
                    },
                    {
                        "number": 64,
                        "time": 16.875634985416653,
                        "value": 1
                    },
                    {
                        "number": 64,
                        "time": 17.57200852916665,
                        "value": 0
                    },
                    {
                        "number": 64,
                        "time": 17.778544514583317,
                        "value": 1
                    },
                    {
                        "number": 64,
                        "time": 18.44201852083331,
                        "value": 0
                    },
                    {
                        "number": 64,
                        "time": 18.630276985416646,
                        "value": 1
                    },
                    {
                        "number": 64,
                        "time": 19.33030603333331,
                        "value": 0
                    },
                    {
                        "number": 64,
                        "time": 19.49480372083331,
                        "value": 1
                    },
                    {
                        "number": 64,
                        "time": 21.06118725624997,
                        "value": 0
                    },
                    {
                        "number": 64,
                        "time": 21.201924166666636,
                        "value": 1
                    },
                    {
                        "number": 64,
                        "time": 21.973235545833298,
                        "value": 0
                    },
                    {
                        "number": 64,
                        "time": 22.1103169520833,
                        "value": 1
                    },
                    {
                        "number": 64,
                        "time": 22.83227902499996,
                        "value": 0
                    },
                    {
                        "number": 64,
                        "time": 22.947427406249957,
                        "value": 1
                    },
                    {
                        "number": 64,
                        "time": 23.687666999999955,
                        "value": 0
                    },
                    {
                        "number": 64,
                        "time": 23.791848868749955,
                        "value": 1
                    },
                    {
                        "number": 64,
                        "time": 24.57961001666662,
                        "value": 0
                    },
                    {
                        "number": 64,
                        "time": 26.372634810416614,
                        "value": 1
                    },
                    {
                        "number": 64,
                        "time": 27.22802278541661,
                        "value": 0
                    },
                    {
                        "number": 64,
                        "time": 27.312099381249944,
                        "value": 1
                    },
                    {
                        "number": 64,
                        "time": 28.10717153749994,
                        "value": 0
                    },
                    {
                        "number": 64,
                        "time": 28.220492166666606,
                        "value": 1
                    },
                    {
                        "number": 64,
                        "time": 28.951592999999935,
                        "value": 0
                    },
                    {
                        "number": 64,
                        "time": 29.488952112499934,
                        "value": 1
                    },
                    {
                        "number": 64,
                        "time": 30.740962289583265,
                        "value": 0
                    },
                    {
                        "number": 64,
                        "time": 34.332495133333246,
                        "value": 1
                    },
                    {
                        "number": 64,
                        "time": 35.11660077708324,
                        "value": 0
                    },
                    {
                        "number": 64,
                        "time": 35.299375985416575,
                        "value": 1
                    },
                    {
                        "number": 64,
                        "time": 35.995749529166574,
                        "value": 0
                    },
                    {
                        "number": 64,
                        "time": 36.20228551458324,
                        "value": 1
                    },
                    {
                        "number": 64,
                        "time": 36.8474819999999,
                        "value": 0
                    },
                    {
                        "number": 64,
                        "time": 39.596421133333216,
                        "value": 1
                    },
                    {
                        "number": 64,
                        "time": 40.38052677708321,
                        "value": 0
                    },
                    {
                        "number": 64,
                        "time": 40.563301985416544,
                        "value": 1
                    },
                    {
                        "number": 64,
                        "time": 41.25967552916654,
                        "value": 0
                    },
                    {
                        "number": 64,
                        "time": 41.46621151458321,
                        "value": 1
                    },
                    {
                        "number": 64,
                        "time": 42.11140799999987,
                        "value": 0
                    },
                    {
                        "number": 64,
                        "time": 42.317943985416534,
                        "value": 1
                    },
                    {
                        "number": 64,
                        "time": 43.012489777083196,
                        "value": 0
                    },
                    {
                        "number": 64,
                        "time": 43.440183764583196,
                        "value": 1
                    },
                    {
                        "number": 64,
                        "time": 44.17676785416653,
                        "value": 0
                    },
                    {
                        "number": 64,
                        "time": 44.74337099999986,
                        "value": 0
                    },
                    {
                        "number": 64,
                        "time": 44.949906985416526,
                        "value": 1
                    },
                    {
                        "number": 64,
                        "time": 45.64445277708319,
                        "value": 0
                    },
                    {
                        "number": 64,
                        "time": 47.517898662499846,
                        "value": 1
                    },
                    {
                        "number": 64,
                        "time": 50.05847405833316,
                        "value": 0
                    },
                    {
                        "number": 64,
                        "time": 50.20103872083316,
                        "value": 1
                    },
                    {
                        "number": 64,
                        "time": 52.639259999999815,
                        "value": 0
                    },
                    {
                        "number": 64,
                        "time": 52.82020745624982,
                        "value": 1
                    },
                    {
                        "number": 64,
                        "time": 54.42131828124981,
                        "value": 0
                    },
                    {
                        "number": 64,
                        "time": 54.50356712499981,
                        "value": 1
                    },
                    {
                        "number": 64,
                        "time": 55.27122299999982,
                        "value": 0
                    },
                    {
                        "number": 64,
                        "time": 55.38819913333315,
                        "value": 1
                    },
                    {
                        "number": 64,
                        "time": 57.90318599999981,
                        "value": 0
                    },
                    {
                        "number": 64,
                        "time": 57.908669256249816,
                        "value": 0
                    },
                    {
                        "number": 64,
                        "time": 58.04940616666648,
                        "value": 1
                    },
                    {
                        "number": 64,
                        "time": 58.82071754583314,
                        "value": 0
                    },
                    {
                        "number": 64,
                        "time": 58.89017212499981,
                        "value": 1
                    },
                    {
                        "number": 64,
                        "time": 59.679761024999806,
                        "value": 0
                    },
                    {
                        "number": 64,
                        "time": 59.79490940624981,
                        "value": 1
                    },
                    {
                        "number": 64,
                        "time": 60.535148999999805,
                        "value": 0
                    },
                    {
                        "number": 64,
                        "time": 60.6393308687498,
                        "value": 1
                    },
                    {
                        "number": 64,
                        "time": 61.427092016666464,
                        "value": 0
                    },
                    {
                        "number": 64,
                        "time": 63.181734016666454,
                        "value": 0
                    },
                    {
                        "number": 64,
                        "time": 63.25484409999979,
                        "value": 1
                    },
                    {
                        "number": 64,
                        "time": 64.06271052083312,
                        "value": 0
                    },
                    {
                        "number": 64,
                        "time": 64.13216509999978,
                        "value": 1
                    },
                    {
                        "number": 64,
                        "time": 64.94917028124978,
                        "value": 0
                    },
                    {
                        "number": 64,
                        "time": 65.03141912499979,
                        "value": 1
                    },
                    {
                        "number": 64,
                        "time": 65.79907499999979,
                        "value": 0
                    },
                    {
                        "number": 64,
                        "time": 65.91605113333313,
                        "value": 1
                    },
                    {
                        "number": 64,
                        "time": 70.18567999999978,
                        "value": 0
                    }
                ]
            },
            "id": 0,
            "name": "Clementi: Sonatine Opus 36 Nr. 1, 2. Satz",
            "instrumentNumber": 0,
            "instrument": "acoustic grand piano",
            "instrumentFamily": "piano",
            "channelNumber": 0,
            "isPercussion": false
        }
    ]
}