{
    "header": {
        "PPQ": 480,
        "timeSignature": [
            3,
            4
        ],
        "bpm": 76.39001175133014,
        "name": ""
    },
    "startTime": 0,
    "duration": 65.97721199999981,
    "tracks": [
        {
            "startTime": 0,
            "duration": 65.97721199999981,
            "length": 253,
            "notes": [
                {
                    "name": "E4",
                    "midi": 64,
                    "time": 0,
                    "velocity": 0.3937007874015748,
                    "duration": 0.5890822500000001
                },
                {
                    "name": "C4",
                    "midi": 60,
                    "time": 0,
                    "velocity": 0.2755905511811024,
                    "duration": 1.5708860000000002
                },
                {
                    "name": "G4",
                    "midi": 67,
                    "time": 0.5890822500000001,
                    "velocity": 0.31496062992125984,
                    "duration": 0.19636074999999997
                },
                {
                    "name": "C5",
                    "midi": 72,
                    "time": 0.7854430000000001,
                    "velocity": 0.3937007874015748,
                    "duration": 0.5890822500000001
                },
                {
                    "name": "A4",
                    "midi": 69,
                    "time": 1.3745252500000003,
                    "velocity": 0.3228346456692913,
                    "duration": 0.19636074999999997
                },
                {
                    "name": "G4",
                    "midi": 67,
                    "time": 1.5708860000000002,
                    "velocity": 0.3700787401574803,
                    "duration": 0.5890822500000001
                },
                {
                    "name": "B3",
                    "midi": 59,
                    "time": 1.5708860000000002,
                    "velocity": 0.23622047244094488,
                    "duration": 0.7854430000000003
                },
                {
                    "name": "F4",
                    "midi": 65,
                    "time": 2.1599682500000004,
                    "velocity": 0.33070866141732286,
                    "duration": 0.1963607500000002
                },
                {
                    "name": "E4",
                    "midi": 64,
                    "time": 2.3563290000000006,
                    "velocity": 0.3937007874015748,
                    "duration": 0.5890822500000001
                },
                {
                    "name": "C4",
                    "midi": 60,
                    "time": 2.3563290000000006,
                    "velocity": 0.2755905511811024,
                    "duration": 1.5708860000000007
                },
                {
                    "name": "G4",
                    "midi": 67,
                    "time": 2.9454112500000007,
                    "velocity": 0.31496062992125984,
                    "duration": 0.1963607500000002
                },
                {
                    "name": "C5",
                    "midi": 72,
                    "time": 3.141772000000001,
                    "velocity": 0.3937007874015748,
                    "duration": 0.5890822500000001
                },
                {
                    "name": "A4",
                    "midi": 69,
                    "time": 3.730854250000001,
                    "velocity": 0.3228346456692913,
                    "duration": 0.1963607500000002
                },
                {
                    "name": "G4",
                    "midi": 67,
                    "time": 3.9272150000000012,
                    "velocity": 0.3700787401574803,
                    "duration": 0.5890822500000006
                },
                {
                    "name": "B3",
                    "midi": 59,
                    "time": 3.9272150000000012,
                    "velocity": 0.23622047244094488,
                    "duration": 0.7854430000000008
                },
                {
                    "name": "F4",
                    "midi": 65,
                    "time": 4.516297250000002,
                    "velocity": 0.33070866141732286,
                    "duration": 0.1963607500000002
                },
                {
                    "name": "E4",
                    "midi": 64,
                    "time": 4.712658000000002,
                    "velocity": 0.3937007874015748,
                    "duration": 0.5890822499999997
                },
                {
                    "name": "C4",
                    "midi": 60,
                    "time": 4.712658000000002,
                    "velocity": 0.2755905511811024,
                    "duration": 0.7854429999999999
                },
                {
                    "name": "G4",
                    "midi": 67,
                    "time": 5.301740250000002,
                    "velocity": 0.31496062992125984,
                    "duration": 0.1963607500000002
                },
                {
                    "name": "A4",
                    "midi": 69,
                    "time": 5.498101000000002,
                    "velocity": 0.3937007874015748,
                    "duration": 0.5890822500000006
                },
                {
                    "name": "F3",
                    "midi": 53,
                    "time": 5.498101000000002,
                    "velocity": 0.23622047244094488,
                    "duration": 1.5708860000000016
                },
                {
                    "name": "F4",
                    "midi": 65,
                    "time": 6.0871832500000025,
                    "velocity": 0.3228346456692913,
                    "duration": 0.1963607500000002
                },
                {
                    "name": "D4",
                    "midi": 62,
                    "time": 6.283544000000003,
                    "velocity": 0.3700787401574803,
                    "duration": 0.5890822500000006
                },
                {
                    "name": "C4",
                    "midi": 60,
                    "time": 6.872626250000003,
                    "velocity": 0.33070866141732286,
                    "duration": 0.1963607500000002
                },
                {
                    "name": "B3",
                    "midi": 59,
                    "time": 7.0689870000000035,
                    "velocity": 0.3700787401574803,
                    "duration": 0.5890822499999997
                },
                {
                    "name": "G3",
                    "midi": 55,
                    "time": 7.0689870000000035,
                    "velocity": 0.2755905511811024,
                    "duration": 0.7854429999999999
                },
                {
                    "name": "D4",
                    "midi": 62,
                    "time": 7.658069250000003,
                    "velocity": 0.33070866141732286,
                    "duration": 0.1963607500000002
                },
                {
                    "name": "C4",
                    "midi": 60,
                    "time": 7.854430000000003,
                    "velocity": 0.3700787401574803,
                    "duration": 0.7854429999999999
                },
                {
                    "name": "E3",
                    "midi": 52,
                    "time": 7.854430000000003,
                    "velocity": 0.3543307086614173,
                    "duration": 0.5890822499999997
                },
                {
                    "name": "G3",
                    "midi": 55,
                    "time": 8.443512250000003,
                    "velocity": 0.29133858267716534,
                    "duration": 0.1963607500000002
                },
                {
                    "name": "E3",
                    "midi": 52,
                    "time": 8.639873000000003,
                    "velocity": 0.3858267716535433,
                    "duration": 0.5890822500000006
                },
                {
                    "name": "C3",
                    "midi": 48,
                    "time": 9.228955250000004,
                    "velocity": 0.3543307086614173,
                    "duration": 0.1963607500000002
                },
                {
                    "name": "F4",
                    "midi": 65,
                    "time": 9.425316000000004,
                    "velocity": 0.48031496062992124,
                    "duration": 1.5708860000000016
                },
                {
                    "name": "D4",
                    "midi": 62,
                    "time": 9.425316000000004,
                    "velocity": 0.4015748031496063,
                    "duration": 1.5708860000000016
                },
                {
                    "name": "B2",
                    "midi": 47,
                    "time": 9.425316000000004,
                    "velocity": 0.48031496062992124,
                    "duration": 0.5890822500000006
                },
                {
                    "name": "D3",
                    "midi": 50,
                    "time": 10.014398250000005,
                    "velocity": 0.3700787401574803,
                    "duration": 0.1963607500000002
                },
                {
                    "name": "G2",
                    "midi": 43,
                    "time": 10.210759000000005,
                    "velocity": 0.4094488188976378,
                    "duration": 0.5890822500000006
                },
                {
                    "name": "B2",
                    "midi": 47,
                    "time": 10.799841250000005,
                    "velocity": 0.29133858267716534,
                    "duration": 0.1963607500000002
                },
                {
                    "name": "C4",
                    "midi": 60,
                    "time": 10.996202000000006,
                    "velocity": 0.30708661417322836,
                    "duration": 0.785442999999999
                },
                {
                    "name": "E4",
                    "midi": 64,
                    "time": 10.996202000000006,
                    "velocity": 0.3700787401574803,
                    "duration": 0.785442999999999
                },
                {
                    "name": "C3",
                    "midi": 48,
                    "time": 10.996202000000006,
                    "velocity": 0.33858267716535434,
                    "duration": 0.5890822499999988
                },
                {
                    "name": "E3",
                    "midi": 52,
                    "time": 11.585284250000004,
                    "velocity": 0.3228346456692913,
                    "duration": 0.1963607500000002
                },
                {
                    "name": "F4",
                    "midi": 65,
                    "time": 11.781645000000005,
                    "velocity": 0.48031496062992124,
                    "duration": 1.5708860000000016
                },
                {
                    "name": "D4",
                    "midi": 62,
                    "time": 11.781645000000005,
                    "velocity": 0.4015748031496063,
                    "duration": 1.5708860000000016
                },
                {
                    "name": "B2",
                    "midi": 47,
                    "time": 11.781645000000005,
                    "velocity": 0.48031496062992124,
                    "duration": 0.5890822500000006
                },
                {
                    "name": "D3",
                    "midi": 50,
                    "time": 12.370727250000005,
                    "velocity": 0.3700787401574803,
                    "duration": 0.1963607500000002
                },
                {
                    "name": "G2",
                    "midi": 43,
                    "time": 12.567088000000005,
                    "velocity": 0.4094488188976378,
                    "duration": 0.5890822500000006
                },
                {
                    "name": "B2",
                    "midi": 47,
                    "time": 13.156170250000006,
                    "velocity": 0.29133858267716534,
                    "duration": 0.1963607500000002
                },
                {
                    "name": "C4",
                    "midi": 60,
                    "time": 13.352531000000006,
                    "velocity": 0.30708661417322836,
                    "duration": 0.7854430000000008
                },
                {
                    "name": "E4",
                    "midi": 64,
                    "time": 13.352531000000006,
                    "velocity": 0.3700787401574803,
                    "duration": 0.7854430000000008
                },
                {
                    "name": "C3",
                    "midi": 48,
                    "time": 13.352531000000006,
                    "velocity": 0.33858267716535434,
                    "duration": 0.5890822500000006
                },
                {
                    "name": "E3",
                    "midi": 52,
                    "time": 13.941613250000007,
                    "velocity": 0.3228346456692913,
                    "duration": 0.1963607500000002
                },
                {
                    "name": "A3",
                    "midi": 57,
                    "time": 14.137974000000007,
                    "velocity": 0.3858267716535433,
                    "duration": 0.5890822499999988
                },
                {
                    "name": "F3",
                    "midi": 53,
                    "time": 14.137974000000007,
                    "velocity": 0.2755905511811024,
                    "duration": 0.785442999999999
                },
                {
                    "name": "D4",
                    "midi": 62,
                    "time": 14.727056250000006,
                    "velocity": 0.33070866141732286,
                    "duration": 0.1963607500000002
                },
                {
                    "name": "G3",
                    "midi": 55,
                    "time": 14.923417000000006,
                    "velocity": 0.3700787401574803,
                    "duration": 0.5890822499999988
                },
                {
                    "name": "G2",
                    "midi": 43,
                    "time": 14.923417000000006,
                    "velocity": 0.2755905511811024,
                    "duration": 0.785442999999999
                },
                {
                    "name": "E3",
                    "midi": 52,
                    "time": 14.923417000000006,
                    "velocity": 0.2755905511811024,
                    "duration": 0.785442999999999
                },
                {
                    "name": "C4",
                    "midi": 60,
                    "time": 15.512499250000005,
                    "velocity": 0.2992125984251969,
                    "duration": 0.1963607500000002
                },
                {
                    "name": "F3",
                    "midi": 53,
                    "time": 15.708860000000005,
                    "velocity": 0.3543307086614173,
                    "duration": 0.5890822500000006
                },
                {
                    "name": "D3",
                    "midi": 50,
                    "time": 15.708860000000005,
                    "velocity": 0.2204724409448819,
                    "duration": 0.7854430000000008
                },
                {
                    "name": "G2",
                    "midi": 43,
                    "time": 15.708860000000005,
                    "velocity": 0.2204724409448819,
                    "duration": 0.7854430000000008
                },
                {
                    "name": "B3",
                    "midi": 59,
                    "time": 16.297942250000006,
                    "velocity": 0.28346456692913385,
                    "duration": 0.1963607500000002
                },
                {
                    "name": "F3",
                    "midi": 53,
                    "time": 16.494303000000006,
                    "velocity": 0.25196850393700787,
                    "duration": 1.5708860000000016
                },
                {
                    "name": "B3",
                    "midi": 59,
                    "time": 16.494303000000006,
                    "velocity": 0.25196850393700787,
                    "duration": 1.5708860000000016
                },
                {
                    "name": "D4",
                    "midi": 62,
                    "time": 16.494303000000006,
                    "velocity": 0.2992125984251969,
                    "duration": 1.5708860000000016
                },
                {
                    "name": "C3",
                    "midi": 48,
                    "time": 16.494303000000006,
                    "velocity": 0.29133858267716534,
                    "duration": 0.7854430000000008
                },
                {
                    "name": "G2",
                    "midi": 43,
                    "time": 17.279746000000006,
                    "velocity": 0.2440944881889764,
                    "duration": 0.7854430000000008
                },
                {
                    "name": "E3",
                    "midi": 52,
                    "time": 18.065189000000007,
                    "velocity": 0.2283464566929134,
                    "duration": 0.7854430000000008
                },
                {
                    "name": "C4",
                    "midi": 60,
                    "time": 18.065189000000007,
                    "velocity": 0.2755905511811024,
                    "duration": 0.7854430000000008
                },
                {
                    "name": "C2",
                    "midi": 36,
                    "time": 18.065189000000007,
                    "velocity": 0.2283464566929134,
                    "duration": 0.7854430000000008
                },
                {
                    "name": "E4",
                    "midi": 64,
                    "time": 18.850632000000008,
                    "velocity": 0.3937007874015748,
                    "duration": 0.5890822500000006
                },
                {
                    "name": "G#3",
                    "midi": 56,
                    "time": 18.850632000000008,
                    "velocity": 0.2755905511811024,
                    "duration": 1.5708860000000016
                },
                {
                    "name": "E5",
                    "midi": 76,
                    "time": 19.43971425000001,
                    "velocity": 0.3464566929133858,
                    "duration": 0.1963607500000002
                },
                {
                    "name": "D5",
                    "midi": 74,
                    "time": 19.63607500000001,
                    "velocity": 0.3937007874015748,
                    "duration": 0.5890822500000006
                },
                {
                    "name": "B4",
                    "midi": 71,
                    "time": 20.22515725000001,
                    "velocity": 0.3543307086614173,
                    "duration": 0.1963607500000002
                },
                {
                    "name": "C5",
                    "midi": 72,
                    "time": 20.42151800000001,
                    "velocity": 0.3700787401574803,
                    "duration": 0.5890822500000006
                },
                {
                    "name": "A3",
                    "midi": 57,
                    "time": 20.42151800000001,
                    "velocity": 0.23622047244094488,
                    "duration": 0.7854430000000008
                },
                {
                    "name": "A4",
                    "midi": 69,
                    "time": 21.01060025000001,
                    "velocity": 0.33070866141732286,
                    "duration": 0.1963607500000002
                },
                {
                    "name": "G#4",
                    "midi": 68,
                    "time": 21.20696100000001,
                    "velocity": 0.3937007874015748,
                    "duration": 0.5890822500000006
                },
                {
                    "name": "D4",
                    "midi": 62,
                    "time": 21.20696100000001,
                    "velocity": 0.2755905511811024,
                    "duration": 1.5708860000000016
                },
                {
                    "name": "B4",
                    "midi": 71,
                    "time": 21.79604325000001,
                    "velocity": 0.31496062992125984,
                    "duration": 0.1963607500000002
                },
                {
                    "name": "E4",
                    "midi": 64,
                    "time": 21.99240400000001,
                    "velocity": 0.3937007874015748,
                    "duration": 0.5890822500000006
                },
                {
                    "name": "G#4",
                    "midi": 68,
                    "time": 22.58148625000001,
                    "velocity": 0.3228346456692913,
                    "duration": 0.1963607500000002
                },
                {
                    "name": "A4",
                    "midi": 69,
                    "time": 22.777847000000012,
                    "velocity": 0.3700787401574803,
                    "duration": 0.5890822500000006
                },
                {
                    "name": "C4",
                    "midi": 60,
                    "time": 22.777847000000012,
                    "velocity": 0.23622047244094488,
                    "duration": 0.7854430000000008
                },
                {
                    "name": "C5",
                    "midi": 72,
                    "time": 23.366929250000013,
                    "velocity": 0.33070866141732286,
                    "duration": 0.1963607500000002
                },
                {
                    "name": "D4",
                    "midi": 62,
                    "time": 23.563290000000013,
                    "velocity": 0.3937007874015748,
                    "duration": 0.5890822500000006
                },
                {
                    "name": "F#3",
                    "midi": 54,
                    "time": 23.563290000000013,
                    "velocity": 0.2755905511811024,
                    "duration": 1.5708860000000016
                },
                {
                    "name": "D5",
                    "midi": 74,
                    "time": 24.152372250000013,
                    "velocity": 0.31496062992125984,
                    "duration": 0.1963607500000002
                },
                {
                    "name": "C5",
                    "midi": 72,
                    "time": 24.348733000000014,
                    "velocity": 0.3937007874015748,
                    "duration": 0.5890822500000006
                },
                {
                    "name": "A4",
                    "midi": 69,
                    "time": 24.937815250000014,
                    "velocity": 0.3228346456692913,
                    "duration": 0.1963607500000002
                },
                {
                    "name": "B4",
                    "midi": 71,
                    "time": 25.134176000000014,
                    "velocity": 0.3700787401574803,
                    "duration": 0.5890822500000006
                },
                {
                    "name": "G3",
                    "midi": 55,
                    "time": 25.134176000000014,
                    "velocity": 0.23622047244094488,
                    "duration": 0.7854430000000008
                },
                {
                    "name": "G4",
                    "midi": 67,
                    "time": 25.723258250000015,
                    "velocity": 0.33070866141732286,
                    "duration": 0.1963607500000002
                },
                {
                    "name": "F#4",
                    "midi": 66,
                    "time": 25.919619000000015,
                    "velocity": 0.3937007874015748,
                    "duration": 0.5890822500000006
                },
                {
                    "name": "C4",
                    "midi": 60,
                    "time": 25.919619000000015,
                    "velocity": 0.2283464566929134,
                    "duration": 0.7854430000000008
                },
                {
                    "name": "D5",
                    "midi": 74,
                    "time": 26.508701250000016,
                    "velocity": 0.3858267716535433,
                    "duration": 0.1963607500000002
                },
                {
                    "name": "G4",
                    "midi": 67,
                    "time": 26.705062000000016,
                    "velocity": 0.44881889763779526,
                    "duration": 0.5890822500000006
                },
                {
                    "name": "B3",
                    "midi": 59,
                    "time": 26.705062000000016,
                    "velocity": 0.2677165354330709,
                    "duration": 0.7854430000000008
                },
                {
                    "name": "D5",
                    "midi": 74,
                    "time": 27.294144250000016,
                    "velocity": 0.4409448818897638,
                    "duration": 0.1963607500000002
                },
                {
                    "name": "A4",
                    "midi": 69,
                    "time": 27.490505000000017,
                    "velocity": 0.5039370078740157,
                    "duration": 0.589082249999997
                },
                {
                    "name": "F#3",
                    "midi": 54,
                    "time": 27.490505000000017,
                    "velocity": 0.31496062992125984,
                    "duration": 0.7854429999999972
                },
                {
                    "name": "D5",
                    "midi": 74,
                    "time": 28.079587250000014,
                    "velocity": 0.5039370078740157,
                    "duration": 0.1963607500000002
                },
                {
                    "name": "B4",
                    "midi": 71,
                    "time": 28.275948000000014,
                    "velocity": 0.5669291338582677,
                    "duration": 0.5890822500000006
                },
                {
                    "name": "G3",
                    "midi": 55,
                    "time": 28.275948000000014,
                    "velocity": 0.4251968503937008,
                    "duration": 0.7854430000000008
                },
                {
                    "name": "G5",
                    "midi": 79,
                    "time": 28.865030250000014,
                    "velocity": 0.4881889763779528,
                    "duration": 0.1963607500000002
                },
                {
                    "name": "C5",
                    "midi": 72,
                    "time": 29.061391000000015,
                    "velocity": 0.5354330708661418,
                    "duration": 0.5890822500000006
                },
                {
                    "name": "A3",
                    "midi": 57,
                    "time": 29.061391000000015,
                    "velocity": 0.3779527559055118,
                    "duration": 0.7854430000000008
                },
                {
                    "name": "G5",
                    "midi": 79,
                    "time": 29.650473250000015,
                    "velocity": 0.48031496062992124,
                    "duration": 0.1963607500000002
                },
                {
                    "name": "D5",
                    "midi": 74,
                    "time": 29.846834000000015,
                    "velocity": 0.5354330708661418,
                    "duration": 0.5890822500000006
                },
                {
                    "name": "B3",
                    "midi": 59,
                    "time": 29.846834000000015,
                    "velocity": 0.3937007874015748,
                    "duration": 0.7854430000000008
                },
                {
                    "name": "G5",
                    "midi": 79,
                    "time": 30.435916250000016,
                    "velocity": 0.49606299212598426,
                    "duration": 0.1963607500000002
                },
                {
                    "name": "E5",
                    "midi": 76,
                    "time": 30.632277000000016,
                    "velocity": 0.5354330708661418,
                    "duration": 0.5890822500000006
                },
                {
                    "name": "C4",
                    "midi": 60,
                    "time": 30.632277000000016,
                    "velocity": 0.4251968503937008,
                    "duration": 0.7854430000000008
                },
                {
                    "name": "C6",
                    "midi": 84,
                    "time": 31.221359250000017,
                    "velocity": 0.4409448818897638,
                    "duration": 0.1963607500000002
                },
                {
                    "name": "F#5",
                    "midi": 78,
                    "time": 31.417720000000017,
                    "velocity": 0.5118110236220472,
                    "duration": 0.589082249999997
                },
                {
                    "name": "A3",
                    "midi": 57,
                    "time": 31.417720000000017,
                    "velocity": 0.3779527559055118,
                    "duration": 0.7854429999999937
                },
                {
                    "name": "A5",
                    "midi": 81,
                    "time": 32.006802250000014,
                    "velocity": 0.4409448818897638,
                    "duration": 0.19636074999999664
                },
                {
                    "name": "G5",
                    "midi": 79,
                    "time": 32.20316300000001,
                    "velocity": 0.5118110236220472,
                    "duration": 0.589082249999997
                },
                {
                    "name": "B3",
                    "midi": 59,
                    "time": 32.20316300000001,
                    "velocity": 0.33070866141732286,
                    "duration": 0.7854429999999937
                },
                {
                    "name": "B4",
                    "midi": 71,
                    "time": 32.79224525000001,
                    "velocity": 0.33070866141732286,
                    "duration": 0.19636074999999664
                },
                {
                    "name": "D5",
                    "midi": 74,
                    "time": 32.79224525000001,
                    "velocity": 0.3937007874015748,
                    "duration": 0.19636074999999664
                },
                {
                    "name": "B4",
                    "midi": 71,
                    "time": 32.988606000000004,
                    "velocity": 0.4015748031496063,
                    "duration": 0.589082249999997
                },
                {
                    "name": "D5",
                    "midi": 74,
                    "time": 32.988606000000004,
                    "velocity": 0.48031496062992124,
                    "duration": 0.589082249999997
                },
                {
                    "name": "C3",
                    "midi": 48,
                    "time": 32.988606000000004,
                    "velocity": 0.41732283464566927,
                    "duration": 0.7854429999999937
                },
                {
                    "name": "A4",
                    "midi": 69,
                    "time": 33.57768825,
                    "velocity": 0.30708661417322836,
                    "duration": 0.19636074999999664
                },
                {
                    "name": "C5",
                    "midi": 72,
                    "time": 33.57768825,
                    "velocity": 0.3700787401574803,
                    "duration": 0.19636074999999664
                },
                {
                    "name": "B4",
                    "midi": 71,
                    "time": 33.774049,
                    "velocity": 0.4645669291338583,
                    "duration": 0.7854430000000008
                },
                {
                    "name": "G4",
                    "midi": 67,
                    "time": 33.774049,
                    "velocity": 0.3937007874015748,
                    "duration": 0.7854430000000008
                },
                {
                    "name": "D3",
                    "midi": 50,
                    "time": 33.774049,
                    "velocity": 0.33070866141732286,
                    "duration": 0.7854430000000008
                },
                {
                    "name": "A4",
                    "midi": 69,
                    "time": 34.559492,
                    "velocity": 0.3464566929133858,
                    "duration": 0.7854430000000008
                },
                {
                    "name": "F#4",
                    "midi": 66,
                    "time": 34.559492,
                    "velocity": 0.29133858267716534,
                    "duration": 0.7854430000000008
                },
                {
                    "name": "D2",
                    "midi": 38,
                    "time": 34.559492,
                    "velocity": 0.28346456692913385,
                    "duration": 0.7854430000000008
                },
                {
                    "name": "G4",
                    "midi": 67,
                    "time": 35.344935,
                    "velocity": 0.4251968503937008,
                    "duration": 0.7854430000000008
                },
                {
                    "name": "G2",
                    "midi": 43,
                    "time": 35.344935,
                    "velocity": 0.23622047244094488,
                    "duration": 0.5890822500000041
                },
                {
                    "name": "G3",
                    "midi": 55,
                    "time": 35.934017250000004,
                    "velocity": 0.2047244094488189,
                    "duration": 0.19636074999999664
                },
                {
                    "name": "F#4",
                    "midi": 66,
                    "time": 36.130378,
                    "velocity": 0.31496062992125984,
                    "duration": 0.7854429999999937
                },
                {
                    "name": "A2",
                    "midi": 45,
                    "time": 36.130378,
                    "velocity": 0.23622047244094488,
                    "duration": 0.589082249999997
                },
                {
                    "name": "G3",
                    "midi": 55,
                    "time": 36.71946025,
                    "velocity": 0.1968503937007874,
                    "duration": 0.19636074999999664
                },
                {
                    "name": "F4",
                    "midi": 65,
                    "time": 36.915820999999994,
                    "velocity": 0.2204724409448819,
                    "duration": 0.7854430000000008
                },
                {
                    "name": "B2",
                    "midi": 47,
                    "time": 36.915820999999994,
                    "velocity": 0.23622047244094488,
                    "duration": 0.5890822500000041
                },
                {
                    "name": "G3",
                    "midi": 55,
                    "time": 37.50490325,
                    "velocity": 0.15748031496062992,
                    "duration": 0.19636074999999664
                },
                {
                    "name": "E4",
                    "midi": 64,
                    "time": 37.701263999999995,
                    "velocity": 0.36220472440944884,
                    "duration": 0.589082249999997
                },
                {
                    "name": "C3",
                    "midi": 48,
                    "time": 37.701263999999995,
                    "velocity": 0.25984251968503935,
                    "duration": 1.5708859999999873
                },
                {
                    "name": "G4",
                    "midi": 67,
                    "time": 38.29034624999999,
                    "velocity": 0.31496062992125984,
                    "duration": 0.19636074999999664
                },
                {
                    "name": "C5",
                    "midi": 72,
                    "time": 38.48670699999999,
                    "velocity": 0.3937007874015748,
                    "duration": 0.589082249999997
                },
                {
                    "name": "A4",
                    "midi": 69,
                    "time": 39.075789249999985,
                    "velocity": 0.3228346456692913,
                    "duration": 0.19636074999999664
                },
                {
                    "name": "G4",
                    "midi": 67,
                    "time": 39.27214999999998,
                    "velocity": 0.3700787401574803,
                    "duration": 0.589082249999997
                },
                {
                    "name": "B2",
                    "midi": 47,
                    "time": 39.27214999999998,
                    "velocity": 0.23622047244094488,
                    "duration": 0.7854429999999937
                },
                {
                    "name": "F4",
                    "midi": 65,
                    "time": 39.86123224999998,
                    "velocity": 0.33070866141732286,
                    "duration": 0.19636074999999664
                },
                {
                    "name": "E4",
                    "midi": 64,
                    "time": 40.057592999999976,
                    "velocity": 0.3937007874015748,
                    "duration": 0.589082249999997
                },
                {
                    "name": "C3",
                    "midi": 48,
                    "time": 40.057592999999976,
                    "velocity": 0.2755905511811024,
                    "duration": 1.5708859999999873
                },
                {
                    "name": "G4",
                    "midi": 67,
                    "time": 40.64667524999997,
                    "velocity": 0.31496062992125984,
                    "duration": 0.19636074999999664
                },
                {
                    "name": "C5",
                    "midi": 72,
                    "time": 40.84303599999997,
                    "velocity": 0.3937007874015748,
                    "duration": 0.589082249999997
                },
                {
                    "name": "A4",
                    "midi": 69,
                    "time": 41.43211824999997,
                    "velocity": 0.3228346456692913,
                    "duration": 0.19636074999999664
                },
                {
                    "name": "G4",
                    "midi": 67,
                    "time": 41.62847899999996,
                    "velocity": 0.3700787401574803,
                    "duration": 0.589082249999997
                },
                {
                    "name": "B2",
                    "midi": 47,
                    "time": 41.62847899999996,
                    "velocity": 0.23622047244094488,
                    "duration": 0.7854429999999937
                },
                {
                    "name": "F4",
                    "midi": 65,
                    "time": 42.21756124999996,
                    "velocity": 0.33070866141732286,
                    "duration": 0.19636074999999664
                },
                {
                    "name": "E4",
                    "midi": 64,
                    "time": 42.41392199999996,
                    "velocity": 0.3937007874015748,
                    "duration": 0.589082249999997
                },
                {
                    "name": "C3",
                    "midi": 48,
                    "time": 42.41392199999996,
                    "velocity": 0.2755905511811024,
                    "duration": 0.7854429999999937
                },
                {
                    "name": "G4",
                    "midi": 67,
                    "time": 43.003004249999954,
                    "velocity": 0.31496062992125984,
                    "duration": 0.19636074999999664
                },
                {
                    "name": "A4",
                    "midi": 69,
                    "time": 43.19936499999995,
                    "velocity": 0.3937007874015748,
                    "duration": 0.589082249999997
                },
                {
                    "name": "F3",
                    "midi": 53,
                    "time": 43.19936499999995,
                    "velocity": 0.23622047244094488,
                    "duration": 1.5708859999999873
                },
                {
                    "name": "F4",
                    "midi": 65,
                    "time": 43.78844724999995,
                    "velocity": 0.3228346456692913,
                    "duration": 0.19636074999999664
                },
                {
                    "name": "D4",
                    "midi": 62,
                    "time": 43.984807999999944,
                    "velocity": 0.3700787401574803,
                    "duration": 0.589082249999997
                },
                {
                    "name": "C4",
                    "midi": 60,
                    "time": 44.57389024999994,
                    "velocity": 0.33070866141732286,
                    "duration": 0.19636074999999664
                },
                {
                    "name": "B3",
                    "midi": 59,
                    "time": 44.77025099999994,
                    "velocity": 0.3700787401574803,
                    "duration": 0.589082249999997
                },
                {
                    "name": "G3",
                    "midi": 55,
                    "time": 44.77025099999994,
                    "velocity": 0.2755905511811024,
                    "duration": 0.7854429999999937
                },
                {
                    "name": "D4",
                    "midi": 62,
                    "time": 45.359333249999935,
                    "velocity": 0.33070866141732286,
                    "duration": 0.19636074999999664
                },
                {
                    "name": "C4",
                    "midi": 60,
                    "time": 45.55569399999993,
                    "velocity": 0.3700787401574803,
                    "duration": 0.7854430000000008
                },
                {
                    "name": "E3",
                    "midi": 52,
                    "time": 45.55569399999993,
                    "velocity": 0.3543307086614173,
                    "duration": 0.5890822500000041
                },
                {
                    "name": "G3",
                    "midi": 55,
                    "time": 46.144776249999936,
                    "velocity": 0.29133858267716534,
                    "duration": 0.19636074999999664
                },
                {
                    "name": "E3",
                    "midi": 52,
                    "time": 46.34113699999993,
                    "velocity": 0.33858267716535434,
                    "duration": 0.589082249999997
                },
                {
                    "name": "C3",
                    "midi": 48,
                    "time": 46.93021924999993,
                    "velocity": 0.3228346456692913,
                    "duration": 0.19636074999999664
                },
                {
                    "name": "F4",
                    "midi": 65,
                    "time": 47.126579999999926,
                    "velocity": 0.48031496062992124,
                    "duration": 1.5708859999999873
                },
                {
                    "name": "D4",
                    "midi": 62,
                    "time": 47.126579999999926,
                    "velocity": 0.4015748031496063,
                    "duration": 1.5708859999999873
                },
                {
                    "name": "B2",
                    "midi": 47,
                    "time": 47.126579999999926,
                    "velocity": 0.48031496062992124,
                    "duration": 0.589082249999997
                },
                {
                    "name": "D3",
                    "midi": 50,
                    "time": 47.71566224999992,
                    "velocity": 0.3700787401574803,
                    "duration": 0.19636074999999664
                },
                {
                    "name": "G2",
                    "midi": 43,
                    "time": 47.91202299999992,
                    "velocity": 0.4094488188976378,
                    "duration": 0.589082249999997
                },
                {
                    "name": "B2",
                    "midi": 47,
                    "time": 48.50110524999992,
                    "velocity": 0.29133858267716534,
                    "duration": 0.19636074999999664
                },
                {
                    "name": "C4",
                    "midi": 60,
                    "time": 48.69746599999991,
                    "velocity": 0.30708661417322836,
                    "duration": 0.7854429999999866
                },
                {
                    "name": "E4",
                    "midi": 64,
                    "time": 48.69746599999991,
                    "velocity": 0.3700787401574803,
                    "duration": 0.7854429999999866
                },
                {
                    "name": "C3",
                    "midi": 48,
                    "time": 48.69746599999991,
                    "velocity": 0.33858267716535434,
                    "duration": 0.5890822499999899
                },
                {
                    "name": "E3",
                    "midi": 52,
                    "time": 49.2865482499999,
                    "velocity": 0.3228346456692913,
                    "duration": 0.19636074999999664
                },
                {
                    "name": "F4",
                    "midi": 65,
                    "time": 49.4829089999999,
                    "velocity": 0.48031496062992124,
                    "duration": 1.5708859999999873
                },
                {
                    "name": "D4",
                    "midi": 62,
                    "time": 49.4829089999999,
                    "velocity": 0.4015748031496063,
                    "duration": 1.5708859999999873
                },
                {
                    "name": "B2",
                    "midi": 47,
                    "time": 49.4829089999999,
                    "velocity": 0.48031496062992124,
                    "duration": 0.589082249999997
                },
                {
                    "name": "D3",
                    "midi": 50,
                    "time": 50.0719912499999,
                    "velocity": 0.3700787401574803,
                    "duration": 0.19636074999999664
                },
                {
                    "name": "G2",
                    "midi": 43,
                    "time": 50.268351999999894,
                    "velocity": 0.4094488188976378,
                    "duration": 0.589082249999997
                },
                {
                    "name": "B2",
                    "midi": 47,
                    "time": 50.85743424999989,
                    "velocity": 0.29133858267716534,
                    "duration": 0.19636074999999664
                },
                {
                    "name": "C4",
                    "midi": 60,
                    "time": 51.05379499999989,
                    "velocity": 0.30708661417322836,
                    "duration": 0.7854429999999937
                },
                {
                    "name": "E4",
                    "midi": 64,
                    "time": 51.05379499999989,
                    "velocity": 0.3700787401574803,
                    "duration": 0.7854429999999937
                },
                {
                    "name": "C3",
                    "midi": 48,
                    "time": 51.05379499999989,
                    "velocity": 0.33858267716535434,
                    "duration": 0.589082249999997
                },
                {
                    "name": "E3",
                    "midi": 52,
                    "time": 51.642877249999884,
                    "velocity": 0.3228346456692913,
                    "duration": 0.19636074999999664
                },
                {
                    "name": "A3",
                    "midi": 57,
                    "time": 51.83923799999988,
                    "velocity": 0.3858267716535433,
                    "duration": 0.589082249999997
                },
                {
                    "name": "F3",
                    "midi": 53,
                    "time": 51.83923799999988,
                    "velocity": 0.2755905511811024,
                    "duration": 0.7854429999999937
                },
                {
                    "name": "D4",
                    "midi": 62,
                    "time": 52.42832024999988,
                    "velocity": 0.33070866141732286,
                    "duration": 0.19636074999999664
                },
                {
                    "name": "G3",
                    "midi": 55,
                    "time": 52.624680999999875,
                    "velocity": 0.3700787401574803,
                    "duration": 0.589082249999997
                },
                {
                    "name": "G2",
                    "midi": 43,
                    "time": 52.624680999999875,
                    "velocity": 0.2755905511811024,
                    "duration": 0.7854429999999937
                },
                {
                    "name": "E3",
                    "midi": 52,
                    "time": 52.624680999999875,
                    "velocity": 0.2755905511811024,
                    "duration": 0.7854429999999937
                },
                {
                    "name": "C4",
                    "midi": 60,
                    "time": 53.21376324999987,
                    "velocity": 0.2992125984251969,
                    "duration": 0.19636074999999664
                },
                {
                    "name": "F3",
                    "midi": 53,
                    "time": 53.41012399999987,
                    "velocity": 0.3543307086614173,
                    "duration": 0.5890822500000041
                },
                {
                    "name": "D3",
                    "midi": 50,
                    "time": 53.41012399999987,
                    "velocity": 0.2204724409448819,
                    "duration": 0.7854430000000008
                },
                {
                    "name": "G2",
                    "midi": 43,
                    "time": 53.41012399999987,
                    "velocity": 0.2204724409448819,
                    "duration": 0.7854430000000008
                },
                {
                    "name": "B3",
                    "midi": 59,
                    "time": 53.99920624999987,
                    "velocity": 0.28346456692913385,
                    "duration": 0.19636074999999664
                },
                {
                    "name": "C4",
                    "midi": 60,
                    "time": 54.19556699999987,
                    "velocity": 0.2992125984251969,
                    "duration": 0.5890822500000041
                },
                {
                    "name": "E3",
                    "midi": 52,
                    "time": 54.19556699999987,
                    "velocity": 0.29133858267716534,
                    "duration": 0.7854430000000008
                },
                {
                    "name": "C3",
                    "midi": 48,
                    "time": 54.19556699999987,
                    "velocity": 0.29133858267716534,
                    "duration": 0.7854430000000008
                },
                {
                    "name": "C5",
                    "midi": 72,
                    "time": 54.78464924999987,
                    "velocity": 0.2992125984251969,
                    "duration": 0.19636074999999664
                },
                {
                    "name": "B4",
                    "midi": 71,
                    "time": 54.98100999999987,
                    "velocity": 0.36220472440944884,
                    "duration": 0.589082249999997
                },
                {
                    "name": "A4",
                    "midi": 69,
                    "time": 55.57009224999987,
                    "velocity": 0.3700787401574803,
                    "duration": 0.19636074999999664
                },
                {
                    "name": "G4",
                    "midi": 67,
                    "time": 55.76645299999986,
                    "velocity": 0.41732283464566927,
                    "duration": 0.589082249999997
                },
                {
                    "name": "F#4",
                    "midi": 66,
                    "time": 56.35553524999986,
                    "velocity": 0.3858267716535433,
                    "duration": 0.19636074999999664
                },
                {
                    "name": "F4",
                    "midi": 65,
                    "time": 56.55189599999986,
                    "velocity": 0.48031496062992124,
                    "duration": 1.5708859999999873
                },
                {
                    "name": "D4",
                    "midi": 62,
                    "time": 56.55189599999986,
                    "velocity": 0.4015748031496063,
                    "duration": 1.5708859999999873
                },
                {
                    "name": "B2",
                    "midi": 47,
                    "time": 56.55189599999986,
                    "velocity": 0.48031496062992124,
                    "duration": 0.589082249999997
                },
                {
                    "name": "D3",
                    "midi": 50,
                    "time": 57.140978249999854,
                    "velocity": 0.3700787401574803,
                    "duration": 0.19636074999999664
                },
                {
                    "name": "G2",
                    "midi": 43,
                    "time": 57.33733899999985,
                    "velocity": 0.4094488188976378,
                    "duration": 0.589082249999997
                },
                {
                    "name": "B2",
                    "midi": 47,
                    "time": 57.92642124999985,
                    "velocity": 0.29133858267716534,
                    "duration": 0.19636074999999664
                },
                {
                    "name": "C4",
                    "midi": 60,
                    "time": 58.122781999999845,
                    "velocity": 0.30708661417322836,
                    "duration": 0.7854429999999866
                },
                {
                    "name": "E4",
                    "midi": 64,
                    "time": 58.122781999999845,
                    "velocity": 0.3700787401574803,
                    "duration": 0.7854429999999866
                },
                {
                    "name": "C3",
                    "midi": 48,
                    "time": 58.122781999999845,
                    "velocity": 0.33858267716535434,
                    "duration": 0.5890822499999899
                },
                {
                    "name": "E3",
                    "midi": 52,
                    "time": 58.711864249999834,
                    "velocity": 0.3228346456692913,
                    "duration": 0.19636074999999664
                },
                {
                    "name": "F4",
                    "midi": 65,
                    "time": 58.90822499999983,
                    "velocity": 0.48031496062992124,
                    "duration": 1.5708859999999873
                },
                {
                    "name": "D4",
                    "midi": 62,
                    "time": 58.90822499999983,
                    "velocity": 0.4015748031496063,
                    "duration": 1.5708859999999873
                },
                {
                    "name": "B2",
                    "midi": 47,
                    "time": 58.90822499999983,
                    "velocity": 0.48031496062992124,
                    "duration": 0.589082249999997
                },
                {
                    "name": "D3",
                    "midi": 50,
                    "time": 59.49730724999983,
                    "velocity": 0.3700787401574803,
                    "duration": 0.19636074999999664
                },
                {
                    "name": "G2",
                    "midi": 43,
                    "time": 59.693667999999825,
                    "velocity": 0.4094488188976378,
                    "duration": 0.589082249999997
                },
                {
                    "name": "B2",
                    "midi": 47,
                    "time": 60.28275024999982,
                    "velocity": 0.29133858267716534,
                    "duration": 0.19636074999999664
                },
                {
                    "name": "C4",
                    "midi": 60,
                    "time": 60.47911099999982,
                    "velocity": 0.30708661417322836,
                    "duration": 0.7854429999999937
                },
                {
                    "name": "E4",
                    "midi": 64,
                    "time": 60.47911099999982,
                    "velocity": 0.3700787401574803,
                    "duration": 0.7854429999999937
                },
                {
                    "name": "C3",
                    "midi": 48,
                    "time": 60.47911099999982,
                    "velocity": 0.33858267716535434,
                    "duration": 0.589082249999997
                },
                {
                    "name": "E3",
                    "midi": 52,
                    "time": 61.068193249999815,
                    "velocity": 0.3228346456692913,
                    "duration": 0.19636074999999664
                },
                {
                    "name": "A3",
                    "midi": 57,
                    "time": 61.26455399999981,
                    "velocity": 0.3858267716535433,
                    "duration": 0.589082249999997
                },
                {
                    "name": "F3",
                    "midi": 53,
                    "time": 61.26455399999981,
                    "velocity": 0.2755905511811024,
                    "duration": 0.7854429999999937
                },
                {
                    "name": "D4",
                    "midi": 62,
                    "time": 61.85363624999981,
                    "velocity": 0.33070866141732286,
                    "duration": 0.19636074999999664
                },
                {
                    "name": "G3",
                    "midi": 55,
                    "time": 62.049996999999806,
                    "velocity": 0.3700787401574803,
                    "duration": 0.589082249999997
                },
                {
                    "name": "G2",
                    "midi": 43,
                    "time": 62.049996999999806,
                    "velocity": 0.2283464566929134,
                    "duration": 0.7854429999999937
                },
                {
                    "name": "E3",
                    "midi": 52,
                    "time": 62.049996999999806,
                    "velocity": 0.2755905511811024,
                    "duration": 0.7854429999999937
                },
                {
                    "name": "C4",
                    "midi": 60,
                    "time": 62.6390792499998,
                    "velocity": 0.2992125984251969,
                    "duration": 0.19636074999999664
                },
                {
                    "name": "F3",
                    "midi": 53,
                    "time": 62.8354399999998,
                    "velocity": 0.3543307086614173,
                    "duration": 0.5890822500000041
                },
                {
                    "name": "D3",
                    "midi": 50,
                    "time": 62.8354399999998,
                    "velocity": 0.2204724409448819,
                    "duration": 0.7854430000000008
                },
                {
                    "name": "G2",
                    "midi": 43,
                    "time": 62.8354399999998,
                    "velocity": 0.18110236220472442,
                    "duration": 0.7854430000000008
                },
                {
                    "name": "B3",
                    "midi": 59,
                    "time": 63.424522249999804,
                    "velocity": 0.28346456692913385,
                    "duration": 0.19636074999999664
                },
                {
                    "name": "F3",
                    "midi": 53,
                    "time": 63.6208829999998,
                    "velocity": 0.25196850393700787,
                    "duration": 1.5708860000000087
                },
                {
                    "name": "B3",
                    "midi": 59,
                    "time": 63.6208829999998,
                    "velocity": 0.25196850393700787,
                    "duration": 1.5708860000000087
                },
                {
                    "name": "D4",
                    "midi": 62,
                    "time": 63.6208829999998,
                    "velocity": 0.2992125984251969,
                    "duration": 1.5708860000000087
                },
                {
                    "name": "C3",
                    "midi": 48,
                    "time": 63.6208829999998,
                    "velocity": 0.29133858267716534,
                    "duration": 0.7854430000000079
                },
                {
                    "name": "G2",
                    "midi": 43,
                    "time": 64.40632599999981,
                    "velocity": 0.2440944881889764,
                    "duration": 0.7854430000000008
                },
                {
                    "name": "E3",
                    "midi": 52,
                    "time": 65.19176899999981,
                    "velocity": 0.2283464566929134,
                    "duration": 0.7854430000000008
                },
                {
                    "name": "C4",
                    "midi": 60,
                    "time": 65.19176899999981,
                    "velocity": 0.2755905511811024,
                    "duration": 0.7854430000000008
                },
                {
                    "name": "C2",
                    "midi": 36,
                    "time": 65.19176899999981,
                    "velocity": 0.2283464566929134,
                    "duration": 0.7854430000000008
                }
            ],
            "controlChanges": {
                "64": [
                    {
                        "number": 64,
                        "time": 7.311165258333337,
                        "value": 1
                    },
                    {
                        "number": 64,
                        "time": 7.88224777291667,
                        "value": 0
                    },
                    {
                        "number": 64,
                        "time": 9.518587356250004,
                        "value": 1
                    },
                    {
                        "number": 64,
                        "time": 11.019110754166672,
                        "value": 0
                    },
                    {
                        "number": 64,
                        "time": 11.204017127083338,
                        "value": 1
                    },
                    {
                        "number": 64,
                        "time": 11.80455375416667,
                        "value": 0
                    },
                    {
                        "number": 64,
                        "time": 11.943642618750005,
                        "value": 1
                    },
                    {
                        "number": 64,
                        "time": 13.377076093750006,
                        "value": 0
                    },
                    {
                        "number": 64,
                        "time": 13.583254881250006,
                        "value": 1
                    },
                    {
                        "number": 64,
                        "time": 14.157610075000006,
                        "value": 0
                    },
                    {
                        "number": 64,
                        "time": 14.38015225833334,
                        "value": 1
                    },
                    {
                        "number": 64,
                        "time": 14.946325754166672,
                        "value": 0
                    },
                    {
                        "number": 64,
                        "time": 15.096868995833338,
                        "value": 1
                    },
                    {
                        "number": 64,
                        "time": 15.730132414583338,
                        "value": 0
                    },
                    {
                        "number": 64,
                        "time": 15.893766372916671,
                        "value": 1
                    },
                    {
                        "number": 64,
                        "time": 16.507393716666673,
                        "value": 0
                    },
                    {
                        "number": 64,
                        "time": 17.017931666666673,
                        "value": 1
                    },
                    {
                        "number": 64,
                        "time": 18.08646141458334,
                        "value": 0
                    },
                    {
                        "number": 64,
                        "time": 26.138888504166683,
                        "value": 1
                    },
                    {
                        "number": 64,
                        "time": 26.732879772916682,
                        "value": 0
                    },
                    {
                        "number": 64,
                        "time": 26.901422750000016,
                        "value": 1
                    },
                    {
                        "number": 64,
                        "time": 27.51177741458335,
                        "value": 0
                    },
                    {
                        "number": 64,
                        "time": 27.67541137291668,
                        "value": 1
                    },
                    {
                        "number": 64,
                        "time": 28.29394773541668,
                        "value": 0
                    },
                    {
                        "number": 64,
                        "time": 28.483763127083346,
                        "value": 1
                    },
                    {
                        "number": 64,
                        "time": 29.092481452083348,
                        "value": 0
                    },
                    {
                        "number": 64,
                        "time": 29.280660504166683,
                        "value": 1
                    },
                    {
                        "number": 64,
                        "time": 29.868106414583348,
                        "value": 0
                    },
                    {
                        "number": 64,
                        "time": 30.043194750000016,
                        "value": 1
                    },
                    {
                        "number": 64,
                        "time": 30.661731112500018,
                        "value": 0
                    },
                    {
                        "number": 64,
                        "time": 30.828637750000016,
                        "value": 1
                    },
                    {
                        "number": 64,
                        "time": 31.44881045208335,
                        "value": 0
                    },
                    {
                        "number": 64,
                        "time": 31.65989825833335,
                        "value": 1
                    },
                    {
                        "number": 64,
                        "time": 32.23261711250001,
                        "value": 0
                    },
                    {
                        "number": 64,
                        "time": 32.388069372916675,
                        "value": 1
                    },
                    {
                        "number": 64,
                        "time": 33.01151475416667,
                        "value": 0
                    },
                    {
                        "number": 64,
                        "time": 33.150603618750004,
                        "value": 1
                    },
                    {
                        "number": 64,
                        "time": 33.80023043333333,
                        "value": 0
                    },
                    {
                        "number": 64,
                        "time": 33.94750099583333,
                        "value": 1
                    },
                    {
                        "number": 64,
                        "time": 34.59058245208333,
                        "value": 0
                    },
                    {
                        "number": 64,
                        "time": 34.79021588125,
                        "value": 1
                    },
                    {
                        "number": 64,
                        "time": 35.367843754166664,
                        "value": 0
                    },
                    {
                        "number": 64,
                        "time": 35.49547824166667,
                        "value": 1
                    },
                    {
                        "number": 64,
                        "time": 36.1598321125,
                        "value": 0
                    },
                    {
                        "number": 64,
                        "time": 36.33819312708333,
                        "value": 1
                    },
                    {
                        "number": 64,
                        "time": 36.943638772916664,
                        "value": 0
                    },
                    {
                        "number": 64,
                        "time": 37.11218175,
                        "value": 1
                    },
                    {
                        "number": 64,
                        "time": 37.71108203749999,
                        "value": 0
                    },
                    {
                        "number": 64,
                        "time": 45.01242925833327,
                        "value": 1
                    },
                    {
                        "number": 64,
                        "time": 45.5835117729166,
                        "value": 0
                    },
                    {
                        "number": 64,
                        "time": 47.219851356249926,
                        "value": 1
                    },
                    {
                        "number": 64,
                        "time": 48.72037475416658,
                        "value": 0
                    },
                    {
                        "number": 64,
                        "time": 48.90528112708324,
                        "value": 1
                    },
                    {
                        "number": 64,
                        "time": 49.505817754166564,
                        "value": 0
                    },
                    {
                        "number": 64,
                        "time": 49.6449066187499,
                        "value": 1
                    },
                    {
                        "number": 64,
                        "time": 51.07834009374989,
                        "value": 0
                    },
                    {
                        "number": 64,
                        "time": 51.28451888124989,
                        "value": 1
                    },
                    {
                        "number": 64,
                        "time": 51.85887407499988,
                        "value": 0
                    },
                    {
                        "number": 64,
                        "time": 52.08141625833321,
                        "value": 1
                    },
                    {
                        "number": 64,
                        "time": 52.64758975416654,
                        "value": 0
                    },
                    {
                        "number": 64,
                        "time": 52.79813299583321,
                        "value": 1
                    },
                    {
                        "number": 64,
                        "time": 53.431396414583205,
                        "value": 0
                    },
                    {
                        "number": 64,
                        "time": 53.59503037291654,
                        "value": 1
                    },
                    {
                        "number": 64,
                        "time": 54.208657716666536,
                        "value": 0
                    },
                    {
                        "number": 64,
                        "time": 56.64516735624986,
                        "value": 1
                    },
                    {
                        "number": 64,
                        "time": 58.14569075416651,
                        "value": 0
                    },
                    {
                        "number": 64,
                        "time": 58.33059712708317,
                        "value": 1
                    },
                    {
                        "number": 64,
                        "time": 58.931133754166495,
                        "value": 0
                    },
                    {
                        "number": 64,
                        "time": 59.07022261874983,
                        "value": 1
                    },
                    {
                        "number": 64,
                        "time": 60.50365609374982,
                        "value": 0
                    },
                    {
                        "number": 64,
                        "time": 60.70983488124982,
                        "value": 1
                    },
                    {
                        "number": 64,
                        "time": 61.28419007499981,
                        "value": 0
                    },
                    {
                        "number": 64,
                        "time": 61.506732258333145,
                        "value": 1
                    },
                    {
                        "number": 64,
                        "time": 62.07290575416647,
                        "value": 0
                    },
                    {
                        "number": 64,
                        "time": 62.22344899583314,
                        "value": 1
                    },
                    {
                        "number": 64,
                        "time": 62.856712414583136,
                        "value": 0
                    },
                    {
                        "number": 64,
                        "time": 63.02034637291647,
                        "value": 1
                    },
                    {
                        "number": 64,
                        "time": 63.63397371666647,
                        "value": 0
                    },
                    {
                        "number": 64,
                        "time": 64.14451166666647,
                        "value": 1
                    },
                    {
                        "number": 64,
                        "time": 65.21304141458315,
                        "value": 0
                    }
                ]
            },
            "id": 0,
            "name": "Clementi: Sonatine Opus 36 Nr. 2, 2. Satz",
            "instrumentNumber": 0,
            "instrument": "acoustic grand piano",
            "instrumentFamily": "piano",
            "channelNumber": 0,
            "isPercussion": false
        }
    ]
}