{
    "header": {
        "PPQ": 480,
        "timeSignature": [
            3,
            4
        ],
        "bpm": 100,
        "name": "Sonata Hoboken XVI:8 2. Satz"
    },
    "startTime": 0,
    "duration": 57.60000000000007,
    "tracks": [
        {
            "startTime": 0,
            "duration": 0,
            "length": 0,
            "notes": [],
            "controlChanges": {},
            "id": 0,
            "name": "Sonata Hoboken XVI:8 2. Satz"
        },
        {
            "startTime": 0,
            "duration": 56.99999999999997,
            "length": 192,
            "notes": [
                {
                    "name": "G4",
                    "midi": 67,
                    "time": 0,
                    "velocity": 0.3779527559055118,
                    "duration": 0.6
                },
                {
                    "name": "B4",
                    "midi": 71,
                    "time": 0.6,
                    "velocity": 0.3937007874015748,
                    "duration": 0.6
                },
                {
                    "name": "A4",
                    "midi": 69,
                    "time": 1.7999999999999998,
                    "velocity": 0.3937007874015748,
                    "duration": 0.1499999999999999
                },
                {
                    "name": "G4",
                    "midi": 67,
                    "time": 1.9499999999999997,
                    "velocity": 0.3543307086614173,
                    "duration": 0.1499999999999999
                },
                {
                    "name": "A4",
                    "midi": 69,
                    "time": 2.0999999999999996,
                    "velocity": 0.3543307086614173,
                    "duration": 0.1499999999999999
                },
                {
                    "name": "B4",
                    "midi": 71,
                    "time": 2.2499999999999996,
                    "velocity": 0.3543307086614173,
                    "duration": 0.1499999999999999
                },
                {
                    "name": "C5",
                    "midi": 72,
                    "time": 2.3999999999999995,
                    "velocity": 0.3937007874015748,
                    "duration": 0.6000000000000001
                },
                {
                    "name": "C5",
                    "midi": 72,
                    "time": 3.5999999999999996,
                    "velocity": 0.3937007874015748,
                    "duration": 0.2999999999999998
                },
                {
                    "name": "B4",
                    "midi": 71,
                    "time": 3.8999999999999995,
                    "velocity": 0.3858267716535433,
                    "duration": 0.2999999999999998
                },
                {
                    "name": "E5",
                    "midi": 76,
                    "time": 4.199999999999999,
                    "velocity": 0.4330708661417323,
                    "duration": 0.2999999999999998
                },
                {
                    "name": "D5",
                    "midi": 74,
                    "time": 4.499999999999999,
                    "velocity": 0.3937007874015748,
                    "duration": 0.2999999999999998
                },
                {
                    "name": "G5",
                    "midi": 79,
                    "time": 4.799999999999999,
                    "velocity": 0.4330708661417323,
                    "duration": 0.20000000000000018
                },
                {
                    "name": "F#5",
                    "midi": 78,
                    "time": 4.999999999999999,
                    "velocity": 0.3937007874015748,
                    "duration": 0.20000000000000018
                },
                {
                    "name": "E5",
                    "midi": 76,
                    "time": 5.199999999999999,
                    "velocity": 0.3937007874015748,
                    "duration": 0.20000000000000018
                },
                {
                    "name": "D5",
                    "midi": 74,
                    "time": 5.3999999999999995,
                    "velocity": 0.44881889763779526,
                    "duration": 0.5999999999999996
                },
                {
                    "name": "C5",
                    "midi": 72,
                    "time": 5.999999999999999,
                    "velocity": 0.4645669291338583,
                    "duration": 0.09999999999999964
                },
                {
                    "name": "D5",
                    "midi": 74,
                    "time": 6.099999999999999,
                    "velocity": 0.3937007874015748,
                    "duration": 0.09999999999999964
                },
                {
                    "name": "C5",
                    "midi": 72,
                    "time": 6.199999999999998,
                    "velocity": 0.3937007874015748,
                    "duration": 0.09999999999999964
                },
                {
                    "name": "B4",
                    "midi": 71,
                    "time": 6.299999999999998,
                    "velocity": 0.41732283464566927,
                    "duration": 0.15000000000000036
                },
                {
                    "name": "C5",
                    "midi": 72,
                    "time": 6.449999999999998,
                    "velocity": 0.3464566929133858,
                    "duration": 0.15000000000000036
                },
                {
                    "name": "B4",
                    "midi": 71,
                    "time": 6.599999999999999,
                    "velocity": 0.3937007874015748,
                    "duration": 0.5999999999999996
                },
                {
                    "name": "B5",
                    "midi": 83,
                    "time": 7.199999999999998,
                    "velocity": 0.5039370078740157,
                    "duration": 0.15000000000000036
                },
                {
                    "name": "A5",
                    "midi": 81,
                    "time": 7.349999999999999,
                    "velocity": 0.47244094488188976,
                    "duration": 0.15000000000000036
                },
                {
                    "name": "B5",
                    "midi": 83,
                    "time": 7.499999999999999,
                    "velocity": 0.4566929133858268,
                    "duration": 0.15000000000000036
                },
                {
                    "name": "C6",
                    "midi": 84,
                    "time": 7.6499999999999995,
                    "velocity": 0.47244094488188976,
                    "duration": 0.15000000000000036
                },
                {
                    "name": "D6",
                    "midi": 86,
                    "time": 7.8,
                    "velocity": 0.5039370078740157,
                    "duration": 0.2999999999999998
                },
                {
                    "name": "A5",
                    "midi": 81,
                    "time": 9,
                    "velocity": 0.5433070866141733,
                    "duration": 0.1999999999999993
                },
                {
                    "name": "B5",
                    "midi": 83,
                    "time": 9.2,
                    "velocity": 0.48031496062992124,
                    "duration": 0.1999999999999993
                },
                {
                    "name": "A5",
                    "midi": 81,
                    "time": 9.399999999999999,
                    "velocity": 0.48031496062992124,
                    "duration": 0.1999999999999993
                },
                {
                    "name": "D6",
                    "midi": 86,
                    "time": 9.599999999999998,
                    "velocity": 0.5669291338582677,
                    "duration": 0.1999999999999993
                },
                {
                    "name": "C#6",
                    "midi": 85,
                    "time": 9.799999999999997,
                    "velocity": 0.5039370078740157,
                    "duration": 0.1999999999999993
                },
                {
                    "name": "B5",
                    "midi": 83,
                    "time": 9.999999999999996,
                    "velocity": 0.5039370078740157,
                    "duration": 0.1999999999999993
                },
                {
                    "name": "A5",
                    "midi": 81,
                    "time": 10.199999999999996,
                    "velocity": 0.5433070866141733,
                    "duration": 0.1999999999999993
                },
                {
                    "name": "G5",
                    "midi": 79,
                    "time": 10.399999999999995,
                    "velocity": 0.4881889763779528,
                    "duration": 0.1999999999999993
                },
                {
                    "name": "F#5",
                    "midi": 78,
                    "time": 10.599999999999994,
                    "velocity": 0.4881889763779528,
                    "duration": 0.1999999999999993
                },
                {
                    "name": "E5",
                    "midi": 76,
                    "time": 10.799999999999994,
                    "velocity": 0.5433070866141733,
                    "duration": 0.1999999999999993
                },
                {
                    "name": "G5",
                    "midi": 79,
                    "time": 10.999999999999993,
                    "velocity": 0.47244094488188976,
                    "duration": 0.1999999999999993
                },
                {
                    "name": "B5",
                    "midi": 83,
                    "time": 11.199999999999992,
                    "velocity": 0.47244094488188976,
                    "duration": 0.1999999999999993
                },
                {
                    "name": "D5",
                    "midi": 74,
                    "time": 11.399999999999991,
                    "velocity": 0.5354330708661418,
                    "duration": 0.5999999999999996
                },
                {
                    "name": "C#5",
                    "midi": 73,
                    "time": 11.999999999999991,
                    "velocity": 0.5196850393700787,
                    "duration": 0.09999999999999964
                },
                {
                    "name": "D5",
                    "midi": 74,
                    "time": 12.09999999999999,
                    "velocity": 0.47244094488188976,
                    "duration": 0.09999999999999964
                },
                {
                    "name": "C#5",
                    "midi": 73,
                    "time": 12.19999999999999,
                    "velocity": 0.47244094488188976,
                    "duration": 0.09999999999999964
                },
                {
                    "name": "D5",
                    "midi": 74,
                    "time": 12.29999999999999,
                    "velocity": 0.5039370078740157,
                    "duration": 0.07499999999999929
                },
                {
                    "name": "C#5",
                    "midi": 73,
                    "time": 12.37499999999999,
                    "velocity": 0.4094488188976378,
                    "duration": 0.07499999999999929
                },
                {
                    "name": "B4",
                    "midi": 71,
                    "time": 12.449999999999989,
                    "velocity": 0.41732283464566927,
                    "duration": 0.07499999999999929
                },
                {
                    "name": "C#5",
                    "midi": 73,
                    "time": 12.524999999999988,
                    "velocity": 0.4645669291338583,
                    "duration": 0.07499999999999929
                },
                {
                    "name": "D5",
                    "midi": 74,
                    "time": 12.599999999999987,
                    "velocity": 0.5354330708661418,
                    "duration": 0.5999999999999996
                },
                {
                    "name": "G4",
                    "midi": 67,
                    "time": 14.399999999999986,
                    "velocity": 0.3779527559055118,
                    "duration": 0.5999999999999996
                },
                {
                    "name": "B4",
                    "midi": 71,
                    "time": 14.999999999999986,
                    "velocity": 0.3937007874015748,
                    "duration": 0.5999999999999996
                },
                {
                    "name": "A4",
                    "midi": 69,
                    "time": 16.199999999999985,
                    "velocity": 0.3937007874015748,
                    "duration": 0.14999999999999858
                },
                {
                    "name": "G4",
                    "midi": 67,
                    "time": 16.349999999999984,
                    "velocity": 0.3543307086614173,
                    "duration": 0.14999999999999858
                },
                {
                    "name": "A4",
                    "midi": 69,
                    "time": 16.499999999999982,
                    "velocity": 0.3543307086614173,
                    "duration": 0.14999999999999858
                },
                {
                    "name": "B4",
                    "midi": 71,
                    "time": 16.64999999999998,
                    "velocity": 0.3543307086614173,
                    "duration": 0.14999999999999858
                },
                {
                    "name": "C5",
                    "midi": 72,
                    "time": 16.79999999999998,
                    "velocity": 0.3937007874015748,
                    "duration": 0.6000000000000014
                },
                {
                    "name": "C5",
                    "midi": 72,
                    "time": 17.999999999999982,
                    "velocity": 0.3937007874015748,
                    "duration": 0.3000000000000007
                },
                {
                    "name": "B4",
                    "midi": 71,
                    "time": 18.299999999999983,
                    "velocity": 0.3858267716535433,
                    "duration": 0.3000000000000007
                },
                {
                    "name": "E5",
                    "midi": 76,
                    "time": 18.599999999999984,
                    "velocity": 0.4330708661417323,
                    "duration": 0.3000000000000007
                },
                {
                    "name": "D5",
                    "midi": 74,
                    "time": 18.899999999999984,
                    "velocity": 0.3937007874015748,
                    "duration": 0.3000000000000007
                },
                {
                    "name": "G5",
                    "midi": 79,
                    "time": 19.199999999999985,
                    "velocity": 0.4330708661417323,
                    "duration": 0.1999999999999993
                },
                {
                    "name": "F#5",
                    "midi": 78,
                    "time": 19.399999999999984,
                    "velocity": 0.3937007874015748,
                    "duration": 0.1999999999999993
                },
                {
                    "name": "E5",
                    "midi": 76,
                    "time": 19.599999999999984,
                    "velocity": 0.3937007874015748,
                    "duration": 0.1999999999999993
                },
                {
                    "name": "D5",
                    "midi": 74,
                    "time": 19.799999999999983,
                    "velocity": 0.44881889763779526,
                    "duration": 0.6000000000000014
                },
                {
                    "name": "C5",
                    "midi": 72,
                    "time": 20.399999999999984,
                    "velocity": 0.4645669291338583,
                    "duration": 0.10000000000000142
                },
                {
                    "name": "D5",
                    "midi": 74,
                    "time": 20.499999999999986,
                    "velocity": 0.3937007874015748,
                    "duration": 0.10000000000000142
                },
                {
                    "name": "C5",
                    "midi": 72,
                    "time": 20.599999999999987,
                    "velocity": 0.3937007874015748,
                    "duration": 0.10000000000000142
                },
                {
                    "name": "B4",
                    "midi": 71,
                    "time": 20.69999999999999,
                    "velocity": 0.41732283464566927,
                    "duration": 0.14999999999999858
                },
                {
                    "name": "C5",
                    "midi": 72,
                    "time": 20.849999999999987,
                    "velocity": 0.3464566929133858,
                    "duration": 0.14999999999999858
                },
                {
                    "name": "B4",
                    "midi": 71,
                    "time": 20.999999999999986,
                    "velocity": 0.3937007874015748,
                    "duration": 0.6000000000000014
                },
                {
                    "name": "B5",
                    "midi": 83,
                    "time": 21.599999999999987,
                    "velocity": 0.5039370078740157,
                    "duration": 0.14999999999999858
                },
                {
                    "name": "A5",
                    "midi": 81,
                    "time": 21.749999999999986,
                    "velocity": 0.47244094488188976,
                    "duration": 0.14999999999999858
                },
                {
                    "name": "B5",
                    "midi": 83,
                    "time": 21.899999999999984,
                    "velocity": 0.4566929133858268,
                    "duration": 0.14999999999999858
                },
                {
                    "name": "C6",
                    "midi": 84,
                    "time": 22.049999999999983,
                    "velocity": 0.47244094488188976,
                    "duration": 0.14999999999999858
                },
                {
                    "name": "D6",
                    "midi": 86,
                    "time": 22.19999999999998,
                    "velocity": 0.5039370078740157,
                    "duration": 0.3000000000000007
                },
                {
                    "name": "A5",
                    "midi": 81,
                    "time": 23.39999999999998,
                    "velocity": 0.5433070866141733,
                    "duration": 0.1999999999999993
                },
                {
                    "name": "B5",
                    "midi": 83,
                    "time": 23.59999999999998,
                    "velocity": 0.48031496062992124,
                    "duration": 0.1999999999999993
                },
                {
                    "name": "A5",
                    "midi": 81,
                    "time": 23.79999999999998,
                    "velocity": 0.48031496062992124,
                    "duration": 0.1999999999999993
                },
                {
                    "name": "D6",
                    "midi": 86,
                    "time": 23.99999999999998,
                    "velocity": 0.5669291338582677,
                    "duration": 0.1999999999999993
                },
                {
                    "name": "C#6",
                    "midi": 85,
                    "time": 24.199999999999978,
                    "velocity": 0.5039370078740157,
                    "duration": 0.1999999999999993
                },
                {
                    "name": "B5",
                    "midi": 83,
                    "time": 24.399999999999977,
                    "velocity": 0.5039370078740157,
                    "duration": 0.1999999999999993
                },
                {
                    "name": "A5",
                    "midi": 81,
                    "time": 24.599999999999977,
                    "velocity": 0.5433070866141733,
                    "duration": 0.1999999999999993
                },
                {
                    "name": "G5",
                    "midi": 79,
                    "time": 24.799999999999976,
                    "velocity": 0.4881889763779528,
                    "duration": 0.1999999999999993
                },
                {
                    "name": "F#5",
                    "midi": 78,
                    "time": 24.999999999999975,
                    "velocity": 0.4881889763779528,
                    "duration": 0.1999999999999993
                },
                {
                    "name": "E5",
                    "midi": 76,
                    "time": 25.199999999999974,
                    "velocity": 0.5433070866141733,
                    "duration": 0.1999999999999993
                },
                {
                    "name": "G5",
                    "midi": 79,
                    "time": 25.399999999999974,
                    "velocity": 0.47244094488188976,
                    "duration": 0.1999999999999993
                },
                {
                    "name": "B5",
                    "midi": 83,
                    "time": 25.599999999999973,
                    "velocity": 0.47244094488188976,
                    "duration": 0.1999999999999993
                },
                {
                    "name": "D5",
                    "midi": 74,
                    "time": 25.799999999999972,
                    "velocity": 0.5354330708661418,
                    "duration": 0.6000000000000014
                },
                {
                    "name": "C#5",
                    "midi": 73,
                    "time": 26.399999999999974,
                    "velocity": 0.5196850393700787,
                    "duration": 0.10000000000000142
                },
                {
                    "name": "D5",
                    "midi": 74,
                    "time": 26.499999999999975,
                    "velocity": 0.47244094488188976,
                    "duration": 0.10000000000000142
                },
                {
                    "name": "C#5",
                    "midi": 73,
                    "time": 26.599999999999977,
                    "velocity": 0.47244094488188976,
                    "duration": 0.10000000000000142
                },
                {
                    "name": "D5",
                    "midi": 74,
                    "time": 26.699999999999978,
                    "velocity": 0.5039370078740157,
                    "duration": 0.07499999999999929
                },
                {
                    "name": "C#5",
                    "midi": 73,
                    "time": 26.774999999999977,
                    "velocity": 0.4094488188976378,
                    "duration": 0.07499999999999929
                },
                {
                    "name": "B4",
                    "midi": 71,
                    "time": 26.849999999999977,
                    "velocity": 0.41732283464566927,
                    "duration": 0.07499999999999929
                },
                {
                    "name": "C#5",
                    "midi": 73,
                    "time": 26.924999999999976,
                    "velocity": 0.4645669291338583,
                    "duration": 0.07499999999999929
                },
                {
                    "name": "D5",
                    "midi": 74,
                    "time": 26.999999999999975,
                    "velocity": 0.5354330708661418,
                    "duration": 0.6000000000000014
                },
                {
                    "name": "D5",
                    "midi": 74,
                    "time": 28.799999999999976,
                    "velocity": 0.3779527559055118,
                    "duration": 0.6000000000000014
                },
                {
                    "name": "B4",
                    "midi": 71,
                    "time": 29.399999999999977,
                    "velocity": 0.3937007874015748,
                    "duration": 0.6000000000000014
                },
                {
                    "name": "C5",
                    "midi": 72,
                    "time": 30.59999999999998,
                    "velocity": 0.3937007874015748,
                    "duration": 0.14999999999999858
                },
                {
                    "name": "B4",
                    "midi": 71,
                    "time": 30.74999999999998,
                    "velocity": 0.3543307086614173,
                    "duration": 0.14999999999999858
                },
                {
                    "name": "C5",
                    "midi": 72,
                    "time": 30.899999999999977,
                    "velocity": 0.3543307086614173,
                    "duration": 0.14999999999999858
                },
                {
                    "name": "D5",
                    "midi": 74,
                    "time": 31.049999999999976,
                    "velocity": 0.3543307086614173,
                    "duration": 0.14999999999999858
                },
                {
                    "name": "E5",
                    "midi": 76,
                    "time": 31.199999999999974,
                    "velocity": 0.3937007874015748,
                    "duration": 0.6000000000000014
                },
                {
                    "name": "C5",
                    "midi": 72,
                    "time": 32.39999999999998,
                    "velocity": 0.3937007874015748,
                    "duration": 0.29999999999999716
                },
                {
                    "name": "A4",
                    "midi": 69,
                    "time": 32.699999999999974,
                    "velocity": 0.3858267716535433,
                    "duration": 0.29999999999999716
                },
                {
                    "name": "B4",
                    "midi": 71,
                    "time": 32.99999999999997,
                    "velocity": 0.4330708661417323,
                    "duration": 0.29999999999999716
                },
                {
                    "name": "G4",
                    "midi": 67,
                    "time": 33.29999999999997,
                    "velocity": 0.3937007874015748,
                    "duration": 0.29999999999999716
                },
                {
                    "name": "G5",
                    "midi": 79,
                    "time": 33.599999999999966,
                    "velocity": 0.5039370078740157,
                    "duration": 0.20000000000000284
                },
                {
                    "name": "F#5",
                    "midi": 78,
                    "time": 33.79999999999997,
                    "velocity": 0.44881889763779526,
                    "duration": 0.20000000000000284
                },
                {
                    "name": "E5",
                    "midi": 76,
                    "time": 33.99999999999997,
                    "velocity": 0.4409448818897638,
                    "duration": 0.20000000000000284
                },
                {
                    "name": "D5",
                    "midi": 74,
                    "time": 34.199999999999974,
                    "velocity": 0.5118110236220472,
                    "duration": 0.6000000000000014
                },
                {
                    "name": "C5",
                    "midi": 72,
                    "time": 34.799999999999976,
                    "velocity": 0.4645669291338583,
                    "duration": 0.10000000000000142
                },
                {
                    "name": "D5",
                    "midi": 74,
                    "time": 34.89999999999998,
                    "velocity": 0.3937007874015748,
                    "duration": 0.10000000000000142
                },
                {
                    "name": "C5",
                    "midi": 72,
                    "time": 34.99999999999998,
                    "velocity": 0.3937007874015748,
                    "duration": 0.10000000000000142
                },
                {
                    "name": "B4",
                    "midi": 71,
                    "time": 35.09999999999998,
                    "velocity": 0.41732283464566927,
                    "duration": 0.14999999999999858
                },
                {
                    "name": "C5",
                    "midi": 72,
                    "time": 35.24999999999998,
                    "velocity": 0.3464566929133858,
                    "duration": 0.14999999999999858
                },
                {
                    "name": "B4",
                    "midi": 71,
                    "time": 35.39999999999998,
                    "velocity": 0.3937007874015748,
                    "duration": 0.6000000000000014
                },
                {
                    "name": "E5",
                    "midi": 76,
                    "time": 35.99999999999998,
                    "velocity": 0.5039370078740157,
                    "duration": 0.14999999999999858
                },
                {
                    "name": "D5",
                    "midi": 74,
                    "time": 36.14999999999998,
                    "velocity": 0.47244094488188976,
                    "duration": 0.14999999999999858
                },
                {
                    "name": "E5",
                    "midi": 76,
                    "time": 36.299999999999976,
                    "velocity": 0.4566929133858268,
                    "duration": 0.14999999999999858
                },
                {
                    "name": "F#5",
                    "midi": 78,
                    "time": 36.449999999999974,
                    "velocity": 0.47244094488188976,
                    "duration": 0.14999999999999858
                },
                {
                    "name": "G5",
                    "midi": 79,
                    "time": 36.59999999999997,
                    "velocity": 0.5039370078740157,
                    "duration": 0.29999999999999716
                },
                {
                    "name": "G5",
                    "midi": 79,
                    "time": 36.89999999999997,
                    "velocity": 0.48031496062992124,
                    "duration": 0.14999999999999858
                },
                {
                    "name": "G5",
                    "midi": 79,
                    "time": 37.19999999999997,
                    "velocity": 0.48031496062992124,
                    "duration": 0.14999999999999858
                },
                {
                    "name": "G5",
                    "midi": 79,
                    "time": 37.499999999999964,
                    "velocity": 0.48031496062992124,
                    "duration": 0.14999999999999858
                },
                {
                    "name": "F#5",
                    "midi": 78,
                    "time": 37.79999999999996,
                    "velocity": 0.5354330708661418,
                    "duration": 0.14999999999999858
                },
                {
                    "name": "E5",
                    "midi": 76,
                    "time": 37.94999999999996,
                    "velocity": 0.5196850393700787,
                    "duration": 0.14999999999999858
                },
                {
                    "name": "F#5",
                    "midi": 78,
                    "time": 38.09999999999996,
                    "velocity": 0.4645669291338583,
                    "duration": 0.14999999999999858
                },
                {
                    "name": "G5",
                    "midi": 79,
                    "time": 38.24999999999996,
                    "velocity": 0.5118110236220472,
                    "duration": 0.14999999999999858
                },
                {
                    "name": "A5",
                    "midi": 81,
                    "time": 38.399999999999956,
                    "velocity": 0.5433070866141733,
                    "duration": 0.29999999999999716
                },
                {
                    "name": "C5",
                    "midi": 72,
                    "time": 38.69999999999995,
                    "velocity": 0.5118110236220472,
                    "duration": 0.14999999999999858
                },
                {
                    "name": "C5",
                    "midi": 72,
                    "time": 38.99999999999995,
                    "velocity": 0.5118110236220472,
                    "duration": 0.14999999999999858
                },
                {
                    "name": "B4",
                    "midi": 71,
                    "time": 39.29999999999995,
                    "velocity": 0.5118110236220472,
                    "duration": 0.14999999999999858
                },
                {
                    "name": "A4",
                    "midi": 69,
                    "time": 39.599999999999945,
                    "velocity": 0.5826771653543307,
                    "duration": 0.20000000000000284
                },
                {
                    "name": "C5",
                    "midi": 72,
                    "time": 39.79999999999995,
                    "velocity": 0.47244094488188976,
                    "duration": 0.20000000000000284
                },
                {
                    "name": "E5",
                    "midi": 76,
                    "time": 39.99999999999995,
                    "velocity": 0.47244094488188976,
                    "duration": 0.20000000000000284
                },
                {
                    "name": "G4",
                    "midi": 67,
                    "time": 40.19999999999995,
                    "velocity": 0.5354330708661418,
                    "duration": 0.6000000000000014
                },
                {
                    "name": "F#4",
                    "midi": 66,
                    "time": 40.799999999999955,
                    "velocity": 0.5196850393700787,
                    "duration": 0.10000000000000142
                },
                {
                    "name": "G4",
                    "midi": 67,
                    "time": 40.899999999999956,
                    "velocity": 0.47244094488188976,
                    "duration": 0.10000000000000142
                },
                {
                    "name": "F#4",
                    "midi": 66,
                    "time": 40.99999999999996,
                    "velocity": 0.47244094488188976,
                    "duration": 0.10000000000000142
                },
                {
                    "name": "G4",
                    "midi": 67,
                    "time": 41.09999999999996,
                    "velocity": 0.5039370078740157,
                    "duration": 0.07500000000000284
                },
                {
                    "name": "F#4",
                    "midi": 66,
                    "time": 41.17499999999996,
                    "velocity": 0.4094488188976378,
                    "duration": 0.07500000000000284
                },
                {
                    "name": "E4",
                    "midi": 64,
                    "time": 41.249999999999964,
                    "velocity": 0.41732283464566927,
                    "duration": 0.07500000000000284
                },
                {
                    "name": "F#4",
                    "midi": 66,
                    "time": 41.32499999999997,
                    "velocity": 0.4645669291338583,
                    "duration": 0.07500000000000284
                },
                {
                    "name": "G4",
                    "midi": 67,
                    "time": 41.39999999999997,
                    "velocity": 0.5354330708661418,
                    "duration": 1.2000000000000028
                },
                {
                    "name": "D5",
                    "midi": 74,
                    "time": 43.199999999999974,
                    "velocity": 0.3779527559055118,
                    "duration": 0.6000000000000014
                },
                {
                    "name": "B4",
                    "midi": 71,
                    "time": 43.799999999999976,
                    "velocity": 0.3937007874015748,
                    "duration": 0.6000000000000014
                },
                {
                    "name": "C5",
                    "midi": 72,
                    "time": 44.99999999999998,
                    "velocity": 0.3937007874015748,
                    "duration": 0.14999999999999858
                },
                {
                    "name": "B4",
                    "midi": 71,
                    "time": 45.14999999999998,
                    "velocity": 0.3543307086614173,
                    "duration": 0.14999999999999858
                },
                {
                    "name": "C5",
                    "midi": 72,
                    "time": 45.299999999999976,
                    "velocity": 0.3543307086614173,
                    "duration": 0.14999999999999858
                },
                {
                    "name": "D5",
                    "midi": 74,
                    "time": 45.449999999999974,
                    "velocity": 0.3543307086614173,
                    "duration": 0.14999999999999858
                },
                {
                    "name": "E5",
                    "midi": 76,
                    "time": 45.59999999999997,
                    "velocity": 0.3937007874015748,
                    "duration": 0.6000000000000014
                },
                {
                    "name": "C5",
                    "midi": 72,
                    "time": 46.799999999999976,
                    "velocity": 0.3937007874015748,
                    "duration": 0.29999999999999716
                },
                {
                    "name": "A4",
                    "midi": 69,
                    "time": 47.09999999999997,
                    "velocity": 0.3858267716535433,
                    "duration": 0.29999999999999716
                },
                {
                    "name": "B4",
                    "midi": 71,
                    "time": 47.39999999999997,
                    "velocity": 0.4330708661417323,
                    "duration": 0.29999999999999716
                },
                {
                    "name": "G4",
                    "midi": 67,
                    "time": 47.69999999999997,
                    "velocity": 0.3937007874015748,
                    "duration": 0.29999999999999716
                },
                {
                    "name": "G5",
                    "midi": 79,
                    "time": 47.999999999999964,
                    "velocity": 0.5039370078740157,
                    "duration": 0.20000000000000284
                },
                {
                    "name": "F#5",
                    "midi": 78,
                    "time": 48.19999999999997,
                    "velocity": 0.44881889763779526,
                    "duration": 0.20000000000000284
                },
                {
                    "name": "E5",
                    "midi": 76,
                    "time": 48.39999999999997,
                    "velocity": 0.4409448818897638,
                    "duration": 0.20000000000000284
                },
                {
                    "name": "D5",
                    "midi": 74,
                    "time": 48.59999999999997,
                    "velocity": 0.5118110236220472,
                    "duration": 0.6000000000000014
                },
                {
                    "name": "C5",
                    "midi": 72,
                    "time": 49.199999999999974,
                    "velocity": 0.4645669291338583,
                    "duration": 0.10000000000000142
                },
                {
                    "name": "D5",
                    "midi": 74,
                    "time": 49.299999999999976,
                    "velocity": 0.3937007874015748,
                    "duration": 0.10000000000000142
                },
                {
                    "name": "C5",
                    "midi": 72,
                    "time": 49.39999999999998,
                    "velocity": 0.3937007874015748,
                    "duration": 0.10000000000000142
                },
                {
                    "name": "B4",
                    "midi": 71,
                    "time": 49.49999999999998,
                    "velocity": 0.41732283464566927,
                    "duration": 0.14999999999999858
                },
                {
                    "name": "C5",
                    "midi": 72,
                    "time": 49.64999999999998,
                    "velocity": 0.3464566929133858,
                    "duration": 0.14999999999999858
                },
                {
                    "name": "B4",
                    "midi": 71,
                    "time": 49.799999999999976,
                    "velocity": 0.3937007874015748,
                    "duration": 0.6000000000000014
                },
                {
                    "name": "E5",
                    "midi": 76,
                    "time": 50.39999999999998,
                    "velocity": 0.5039370078740157,
                    "duration": 0.14999999999999858
                },
                {
                    "name": "D5",
                    "midi": 74,
                    "time": 50.549999999999976,
                    "velocity": 0.47244094488188976,
                    "duration": 0.14999999999999858
                },
                {
                    "name": "E5",
                    "midi": 76,
                    "time": 50.699999999999974,
                    "velocity": 0.4566929133858268,
                    "duration": 0.14999999999999858
                },
                {
                    "name": "F#5",
                    "midi": 78,
                    "time": 50.84999999999997,
                    "velocity": 0.47244094488188976,
                    "duration": 0.14999999999999858
                },
                {
                    "name": "G5",
                    "midi": 79,
                    "time": 50.99999999999997,
                    "velocity": 0.5039370078740157,
                    "duration": 0.29999999999999716
                },
                {
                    "name": "G5",
                    "midi": 79,
                    "time": 51.29999999999997,
                    "velocity": 0.48031496062992124,
                    "duration": 0.14999999999999858
                },
                {
                    "name": "G5",
                    "midi": 79,
                    "time": 51.599999999999966,
                    "velocity": 0.48031496062992124,
                    "duration": 0.14999999999999858
                },
                {
                    "name": "G5",
                    "midi": 79,
                    "time": 51.89999999999996,
                    "velocity": 0.48031496062992124,
                    "duration": 0.14999999999999858
                },
                {
                    "name": "F#5",
                    "midi": 78,
                    "time": 52.19999999999996,
                    "velocity": 0.5354330708661418,
                    "duration": 0.14999999999999858
                },
                {
                    "name": "E5",
                    "midi": 76,
                    "time": 52.34999999999996,
                    "velocity": 0.5196850393700787,
                    "duration": 0.14999999999999858
                },
                {
                    "name": "F#5",
                    "midi": 78,
                    "time": 52.49999999999996,
                    "velocity": 0.4645669291338583,
                    "duration": 0.14999999999999858
                },
                {
                    "name": "G5",
                    "midi": 79,
                    "time": 52.649999999999956,
                    "velocity": 0.5118110236220472,
                    "duration": 0.14999999999999858
                },
                {
                    "name": "A5",
                    "midi": 81,
                    "time": 52.799999999999955,
                    "velocity": 0.5511811023622047,
                    "duration": 0.29999999999999716
                },
                {
                    "name": "C5",
                    "midi": 72,
                    "time": 53.09999999999995,
                    "velocity": 0.5118110236220472,
                    "duration": 0.14999999999999858
                },
                {
                    "name": "C5",
                    "midi": 72,
                    "time": 53.39999999999995,
                    "velocity": 0.5118110236220472,
                    "duration": 0.14999999999999858
                },
                {
                    "name": "B4",
                    "midi": 71,
                    "time": 53.699999999999946,
                    "velocity": 0.5118110236220472,
                    "duration": 0.14999999999999858
                },
                {
                    "name": "A4",
                    "midi": 69,
                    "time": 53.99999999999994,
                    "velocity": 0.5826771653543307,
                    "duration": 0.20000000000000284
                },
                {
                    "name": "C5",
                    "midi": 72,
                    "time": 54.199999999999946,
                    "velocity": 0.47244094488188976,
                    "duration": 0.20000000000000284
                },
                {
                    "name": "E5",
                    "midi": 76,
                    "time": 54.39999999999995,
                    "velocity": 0.47244094488188976,
                    "duration": 0.20000000000000284
                },
                {
                    "name": "G4",
                    "midi": 67,
                    "time": 54.59999999999995,
                    "velocity": 0.5354330708661418,
                    "duration": 0.6000000000000014
                },
                {
                    "name": "F#4",
                    "midi": 66,
                    "time": 55.19999999999995,
                    "velocity": 0.5196850393700787,
                    "duration": 0.10000000000000142
                },
                {
                    "name": "G4",
                    "midi": 67,
                    "time": 55.299999999999955,
                    "velocity": 0.47244094488188976,
                    "duration": 0.10000000000000142
                },
                {
                    "name": "F#4",
                    "midi": 66,
                    "time": 55.399999999999956,
                    "velocity": 0.47244094488188976,
                    "duration": 0.10000000000000142
                },
                {
                    "name": "G4",
                    "midi": 67,
                    "time": 55.49999999999996,
                    "velocity": 0.5039370078740157,
                    "duration": 0.07500000000000284
                },
                {
                    "name": "F#4",
                    "midi": 66,
                    "time": 55.57499999999996,
                    "velocity": 0.4094488188976378,
                    "duration": 0.07500000000000284
                },
                {
                    "name": "E4",
                    "midi": 64,
                    "time": 55.64999999999996,
                    "velocity": 0.41732283464566927,
                    "duration": 0.07500000000000284
                },
                {
                    "name": "F#4",
                    "midi": 66,
                    "time": 55.724999999999966,
                    "velocity": 0.4645669291338583,
                    "duration": 0.07500000000000284
                },
                {
                    "name": "G4",
                    "midi": 67,
                    "time": 55.79999999999997,
                    "velocity": 0.5354330708661418,
                    "duration": 1.2000000000000028
                }
            ],
            "controlChanges": {},
            "id": 1,
            "name": "Piano right",
            "instrumentNumber": 0,
            "instrument": "acoustic grand piano",
            "instrumentFamily": "piano",
            "channelNumber": 0,
            "isPercussion": false
        },
        {
            "startTime": 0.6,
            "duration": 57.60000000000007,
            "length": 98,
            "notes": [
                {
                    "name": "G3",
                    "midi": 55,
                    "time": 0.6,
                    "velocity": 0.3228346456692913,
                    "duration": 0.6
                },
                {
                    "name": "G2",
                    "midi": 43,
                    "time": 1.2,
                    "velocity": 0.3228346456692913,
                    "duration": 0.5999999999999999
                },
                {
                    "name": "F#3",
                    "midi": 54,
                    "time": 2.4,
                    "velocity": 0.3228346456692913,
                    "duration": 0.6000000000000001
                },
                {
                    "name": "D3",
                    "midi": 50,
                    "time": 3,
                    "velocity": 0.28346456692913385,
                    "duration": 0.6000000000000001
                },
                {
                    "name": "G3",
                    "midi": 55,
                    "time": 3.6,
                    "velocity": 0.3228346456692913,
                    "duration": 0.6000000000000001
                },
                {
                    "name": "B3",
                    "midi": 59,
                    "time": 5.4,
                    "velocity": 0.3228346456692913,
                    "duration": 0.5999999999999996
                },
                {
                    "name": "D3",
                    "midi": 50,
                    "time": 6,
                    "velocity": 0.2755905511811024,
                    "duration": 0.5999999999999996
                },
                {
                    "name": "A3",
                    "midi": 57,
                    "time": 6,
                    "velocity": 0.33070866141732286,
                    "duration": 0.5999999999999996
                },
                {
                    "name": "G3",
                    "midi": 55,
                    "time": 6.6,
                    "velocity": 0.4015748031496063,
                    "duration": 0.5999999999999996
                },
                {
                    "name": "G3",
                    "midi": 55,
                    "time": 7.799999999999999,
                    "velocity": 0.33858267716535434,
                    "duration": 0.5999999999999996
                },
                {
                    "name": "B3",
                    "midi": 59,
                    "time": 7.799999999999999,
                    "velocity": 0.4015748031496063,
                    "duration": 0.5999999999999996
                },
                {
                    "name": "G3",
                    "midi": 55,
                    "time": 8.399999999999999,
                    "velocity": 0.28346456692913385,
                    "duration": 0.5999999999999996
                },
                {
                    "name": "B3",
                    "midi": 59,
                    "time": 8.399999999999999,
                    "velocity": 0.33858267716535434,
                    "duration": 0.5999999999999996
                },
                {
                    "name": "F#3",
                    "midi": 54,
                    "time": 8.999999999999998,
                    "velocity": 0.3700787401574803,
                    "duration": 0.5999999999999996
                },
                {
                    "name": "D4",
                    "midi": 62,
                    "time": 8.999999999999998,
                    "velocity": 0.4409448818897638,
                    "duration": 0.5999999999999996
                },
                {
                    "name": "G4",
                    "midi": 67,
                    "time": 10.799999999999997,
                    "velocity": 0.4566929133858268,
                    "duration": 0.5999999999999996
                },
                {
                    "name": "G3",
                    "midi": 55,
                    "time": 10.799999999999997,
                    "velocity": 0.3858267716535433,
                    "duration": 0.5999999999999996
                },
                {
                    "name": "F#4",
                    "midi": 66,
                    "time": 11.399999999999997,
                    "velocity": 0.4015748031496063,
                    "duration": 0.5999999999999996
                },
                {
                    "name": "A3",
                    "midi": 57,
                    "time": 11.399999999999997,
                    "velocity": 0.33858267716535434,
                    "duration": 1.1999999999999993
                },
                {
                    "name": "E4",
                    "midi": 64,
                    "time": 11.999999999999996,
                    "velocity": 0.4015748031496063,
                    "duration": 0.5999999999999996
                },
                {
                    "name": "D4",
                    "midi": 62,
                    "time": 12.599999999999996,
                    "velocity": 0.44881889763779526,
                    "duration": 0.5999999999999996
                },
                {
                    "name": "A3",
                    "midi": 57,
                    "time": 13.199999999999996,
                    "velocity": 0.3543307086614173,
                    "duration": 0.15000000000000036
                },
                {
                    "name": "D3",
                    "midi": 50,
                    "time": 13.799999999999995,
                    "velocity": 0.4015748031496063,
                    "duration": 0.3000000000000007
                },
                {
                    "name": "G3",
                    "midi": 55,
                    "time": 14.999999999999996,
                    "velocity": 0.3228346456692913,
                    "duration": 0.5999999999999996
                },
                {
                    "name": "G2",
                    "midi": 43,
                    "time": 15.599999999999996,
                    "velocity": 0.3228346456692913,
                    "duration": 0.5999999999999996
                },
                {
                    "name": "F#3",
                    "midi": 54,
                    "time": 16.799999999999997,
                    "velocity": 0.3228346456692913,
                    "duration": 0.6000000000000014
                },
                {
                    "name": "D3",
                    "midi": 50,
                    "time": 17.4,
                    "velocity": 0.28346456692913385,
                    "duration": 0.6000000000000014
                },
                {
                    "name": "G3",
                    "midi": 55,
                    "time": 18,
                    "velocity": 0.3228346456692913,
                    "duration": 0.6000000000000014
                },
                {
                    "name": "B3",
                    "midi": 59,
                    "time": 19.8,
                    "velocity": 0.3228346456692913,
                    "duration": 0.6000000000000014
                },
                {
                    "name": "D3",
                    "midi": 50,
                    "time": 20.400000000000002,
                    "velocity": 0.2755905511811024,
                    "duration": 0.6000000000000014
                },
                {
                    "name": "A3",
                    "midi": 57,
                    "time": 20.400000000000002,
                    "velocity": 0.33070866141732286,
                    "duration": 0.6000000000000014
                },
                {
                    "name": "G3",
                    "midi": 55,
                    "time": 21.000000000000004,
                    "velocity": 0.4015748031496063,
                    "duration": 0.6000000000000014
                },
                {
                    "name": "G3",
                    "midi": 55,
                    "time": 22.200000000000006,
                    "velocity": 0.33858267716535434,
                    "duration": 0.6000000000000014
                },
                {
                    "name": "B3",
                    "midi": 59,
                    "time": 22.200000000000006,
                    "velocity": 0.4015748031496063,
                    "duration": 0.6000000000000014
                },
                {
                    "name": "G3",
                    "midi": 55,
                    "time": 22.800000000000008,
                    "velocity": 0.28346456692913385,
                    "duration": 0.6000000000000014
                },
                {
                    "name": "B3",
                    "midi": 59,
                    "time": 22.800000000000008,
                    "velocity": 0.33858267716535434,
                    "duration": 0.6000000000000014
                },
                {
                    "name": "F#3",
                    "midi": 54,
                    "time": 23.40000000000001,
                    "velocity": 0.3700787401574803,
                    "duration": 0.6000000000000014
                },
                {
                    "name": "D4",
                    "midi": 62,
                    "time": 23.40000000000001,
                    "velocity": 0.4409448818897638,
                    "duration": 0.6000000000000014
                },
                {
                    "name": "G4",
                    "midi": 67,
                    "time": 25.20000000000001,
                    "velocity": 0.4566929133858268,
                    "duration": 0.6000000000000014
                },
                {
                    "name": "G3",
                    "midi": 55,
                    "time": 25.20000000000001,
                    "velocity": 0.3858267716535433,
                    "duration": 0.6000000000000014
                },
                {
                    "name": "F#4",
                    "midi": 66,
                    "time": 25.80000000000001,
                    "velocity": 0.4015748031496063,
                    "duration": 0.6000000000000014
                },
                {
                    "name": "A3",
                    "midi": 57,
                    "time": 25.80000000000001,
                    "velocity": 0.33858267716535434,
                    "duration": 1.2000000000000028
                },
                {
                    "name": "E4",
                    "midi": 64,
                    "time": 26.400000000000013,
                    "velocity": 0.4015748031496063,
                    "duration": 0.6000000000000014
                },
                {
                    "name": "D4",
                    "midi": 62,
                    "time": 27.000000000000014,
                    "velocity": 0.44881889763779526,
                    "duration": 0.6000000000000014
                },
                {
                    "name": "A3",
                    "midi": 57,
                    "time": 27.600000000000016,
                    "velocity": 0.3543307086614173,
                    "duration": 0.14999999999999858
                },
                {
                    "name": "D3",
                    "midi": 50,
                    "time": 28.200000000000014,
                    "velocity": 0.4015748031496063,
                    "duration": 0.3000000000000007
                },
                {
                    "name": "B3",
                    "midi": 59,
                    "time": 28.800000000000015,
                    "velocity": 0.3228346456692913,
                    "duration": 0.6000000000000014
                },
                {
                    "name": "G#3",
                    "midi": 56,
                    "time": 29.400000000000016,
                    "velocity": 0.3228346456692913,
                    "duration": 0.6000000000000014
                },
                {
                    "name": "E3",
                    "midi": 52,
                    "time": 30.000000000000018,
                    "velocity": 0.3228346456692913,
                    "duration": 0.6000000000000014
                },
                {
                    "name": "A3",
                    "midi": 57,
                    "time": 30.60000000000002,
                    "velocity": 0.3228346456692913,
                    "duration": 0.6000000000000014
                },
                {
                    "name": "C4",
                    "midi": 60,
                    "time": 31.20000000000002,
                    "velocity": 0.3228346456692913,
                    "duration": 0.6000000000000014
                },
                {
                    "name": "A3",
                    "midi": 57,
                    "time": 31.800000000000022,
                    "velocity": 0.28346456692913385,
                    "duration": 0.5999999999999979
                },
                {
                    "name": "F#3",
                    "midi": 54,
                    "time": 32.40000000000002,
                    "velocity": 0.3228346456692913,
                    "duration": 0.6000000000000014
                },
                {
                    "name": "G3",
                    "midi": 55,
                    "time": 33.00000000000002,
                    "velocity": 0.2677165354330709,
                    "duration": 0.6000000000000014
                },
                {
                    "name": "B3",
                    "midi": 59,
                    "time": 34.200000000000024,
                    "velocity": 0.3228346456692913,
                    "duration": 0.6000000000000014
                },
                {
                    "name": "D3",
                    "midi": 50,
                    "time": 34.800000000000026,
                    "velocity": 0.2755905511811024,
                    "duration": 0.6000000000000014
                },
                {
                    "name": "A3",
                    "midi": 57,
                    "time": 34.800000000000026,
                    "velocity": 0.33070866141732286,
                    "duration": 0.6000000000000014
                },
                {
                    "name": "G3",
                    "midi": 55,
                    "time": 35.40000000000003,
                    "velocity": 0.4015748031496063,
                    "duration": 0.6000000000000014
                },
                {
                    "name": "C4",
                    "midi": 60,
                    "time": 36.00000000000003,
                    "velocity": 0.4251968503937008,
                    "duration": 0.6000000000000014
                },
                {
                    "name": "B3",
                    "midi": 59,
                    "time": 36.60000000000003,
                    "velocity": 0.4015748031496063,
                    "duration": 0.6000000000000014
                },
                {
                    "name": "G3",
                    "midi": 55,
                    "time": 37.20000000000003,
                    "velocity": 0.4015748031496063,
                    "duration": 0.6000000000000014
                },
                {
                    "name": "A3",
                    "midi": 57,
                    "time": 37.80000000000003,
                    "velocity": 0.4645669291338583,
                    "duration": 0.6000000000000014
                },
                {
                    "name": "F#3",
                    "midi": 54,
                    "time": 38.400000000000034,
                    "velocity": 0.44881889763779526,
                    "duration": 0.6000000000000014
                },
                {
                    "name": "G3",
                    "midi": 55,
                    "time": 39.000000000000036,
                    "velocity": 0.4645669291338583,
                    "duration": 0.6000000000000014
                },
                {
                    "name": "C4",
                    "midi": 60,
                    "time": 39.60000000000004,
                    "velocity": 0.4566929133858268,
                    "duration": 0.6000000000000014
                },
                {
                    "name": "C3",
                    "midi": 48,
                    "time": 39.60000000000004,
                    "velocity": 0.3858267716535433,
                    "duration": 0.6000000000000014
                },
                {
                    "name": "D3",
                    "midi": 50,
                    "time": 40.20000000000004,
                    "velocity": 0.33858267716535434,
                    "duration": 1.2000000000000028
                },
                {
                    "name": "B3",
                    "midi": 59,
                    "time": 40.20000000000004,
                    "velocity": 0.4015748031496063,
                    "duration": 0.6000000000000014
                },
                {
                    "name": "A3",
                    "midi": 57,
                    "time": 40.80000000000004,
                    "velocity": 0.4015748031496063,
                    "duration": 0.6000000000000014
                },
                {
                    "name": "G3",
                    "midi": 55,
                    "time": 41.40000000000004,
                    "velocity": 0.44881889763779526,
                    "duration": 0.6000000000000014
                },
                {
                    "name": "D3",
                    "midi": 50,
                    "time": 42.00000000000004,
                    "velocity": 0.3543307086614173,
                    "duration": 0.14999999999999858
                },
                {
                    "name": "G2",
                    "midi": 43,
                    "time": 42.600000000000044,
                    "velocity": 0.4015748031496063,
                    "duration": 0.29999999999999716
                },
                {
                    "name": "B3",
                    "midi": 59,
                    "time": 43.20000000000004,
                    "velocity": 0.3228346456692913,
                    "duration": 0.6000000000000014
                },
                {
                    "name": "G#3",
                    "midi": 56,
                    "time": 43.80000000000004,
                    "velocity": 0.3228346456692913,
                    "duration": 0.6000000000000014
                },
                {
                    "name": "E3",
                    "midi": 52,
                    "time": 44.40000000000004,
                    "velocity": 0.3228346456692913,
                    "duration": 0.6000000000000014
                },
                {
                    "name": "A3",
                    "midi": 57,
                    "time": 45.00000000000004,
                    "velocity": 0.3228346456692913,
                    "duration": 0.6000000000000014
                },
                {
                    "name": "C4",
                    "midi": 60,
                    "time": 45.600000000000044,
                    "velocity": 0.3228346456692913,
                    "duration": 0.6000000000000014
                },
                {
                    "name": "A3",
                    "midi": 57,
                    "time": 46.200000000000045,
                    "velocity": 0.28346456692913385,
                    "duration": 0.6000000000000014
                },
                {
                    "name": "F#3",
                    "midi": 54,
                    "time": 46.80000000000005,
                    "velocity": 0.3228346456692913,
                    "duration": 0.6000000000000014
                },
                {
                    "name": "G3",
                    "midi": 55,
                    "time": 47.40000000000005,
                    "velocity": 0.2677165354330709,
                    "duration": 0.6000000000000014
                },
                {
                    "name": "B3",
                    "midi": 59,
                    "time": 48.60000000000005,
                    "velocity": 0.3228346456692913,
                    "duration": 0.6000000000000014
                },
                {
                    "name": "D3",
                    "midi": 50,
                    "time": 49.20000000000005,
                    "velocity": 0.2755905511811024,
                    "duration": 0.6000000000000014
                },
                {
                    "name": "A3",
                    "midi": 57,
                    "time": 49.20000000000005,
                    "velocity": 0.33070866141732286,
                    "duration": 0.6000000000000014
                },
                {
                    "name": "G3",
                    "midi": 55,
                    "time": 49.800000000000054,
                    "velocity": 0.4015748031496063,
                    "duration": 0.6000000000000014
                },
                {
                    "name": "C4",
                    "midi": 60,
                    "time": 50.400000000000055,
                    "velocity": 0.4251968503937008,
                    "duration": 0.6000000000000014
                },
                {
                    "name": "B3",
                    "midi": 59,
                    "time": 51.00000000000006,
                    "velocity": 0.4015748031496063,
                    "duration": 0.6000000000000014
                },
                {
                    "name": "G3",
                    "midi": 55,
                    "time": 51.60000000000006,
                    "velocity": 0.4015748031496063,
                    "duration": 0.6000000000000014
                },
                {
                    "name": "A3",
                    "midi": 57,
                    "time": 52.20000000000006,
                    "velocity": 0.4645669291338583,
                    "duration": 0.6000000000000014
                },
                {
                    "name": "F#3",
                    "midi": 54,
                    "time": 52.80000000000006,
                    "velocity": 0.44881889763779526,
                    "duration": 0.6000000000000014
                },
                {
                    "name": "G3",
                    "midi": 55,
                    "time": 53.40000000000006,
                    "velocity": 0.4645669291338583,
                    "duration": 0.6000000000000014
                },
                {
                    "name": "C4",
                    "midi": 60,
                    "time": 54.000000000000064,
                    "velocity": 0.4566929133858268,
                    "duration": 0.6000000000000014
                },
                {
                    "name": "C3",
                    "midi": 48,
                    "time": 54.000000000000064,
                    "velocity": 0.3858267716535433,
                    "duration": 0.6000000000000014
                },
                {
                    "name": "D3",
                    "midi": 50,
                    "time": 54.600000000000065,
                    "velocity": 0.33858267716535434,
                    "duration": 1.2000000000000028
                },
                {
                    "name": "B3",
                    "midi": 59,
                    "time": 54.600000000000065,
                    "velocity": 0.4015748031496063,
                    "duration": 0.6000000000000014
                },
                {
                    "name": "A3",
                    "midi": 57,
                    "time": 55.20000000000007,
                    "velocity": 0.4015748031496063,
                    "duration": 0.6000000000000014
                },
                {
                    "name": "G3",
                    "midi": 55,
                    "time": 55.80000000000007,
                    "velocity": 0.44881889763779526,
                    "duration": 0.6000000000000014
                },
                {
                    "name": "D3",
                    "midi": 50,
                    "time": 56.40000000000007,
                    "velocity": 0.3543307086614173,
                    "duration": 0.14999999999999858
                },
                {
                    "name": "G2",
                    "midi": 43,
                    "time": 57.00000000000007,
                    "velocity": 0.4015748031496063,
                    "duration": 0.6000000000000014
                }
            ],
            "controlChanges": {},
            "id": 2,
            "name": "Piano left",
            "instrumentNumber": 0,
            "instrument": "acoustic grand piano",
            "instrumentFamily": "piano",
            "channelNumber": 0,
            "isPercussion": false
        },
        {
            "startTime": 0,
            "duration": 0,
            "length": 0,
            "notes": [],
            "controlChanges": {
                "64": [
                    {
                        "number": 64,
                        "time": 0.2675,
                        "value": 1
                    },
                    {
                        "number": 64,
                        "time": 1.8,
                        "value": 0
                    },
                    {
                        "number": 64,
                        "time": 2.515,
                        "value": 1
                    },
                    {
                        "number": 64,
                        "time": 3.6,
                        "value": 0
                    },
                    {
                        "number": 64,
                        "time": 5.515000000000001,
                        "value": 1
                    },
                    {
                        "number": 64,
                        "time": 6.01125,
                        "value": 0
                    },
                    {
                        "number": 64,
                        "time": 6.08875,
                        "value": 1
                    },
                    {
                        "number": 64,
                        "time": 6.6175,
                        "value": 0
                    },
                    {
                        "number": 64,
                        "time": 7.976249999999999,
                        "value": 1
                    },
                    {
                        "number": 64,
                        "time": 9.036249999999999,
                        "value": 0
                    },
                    {
                        "number": 64,
                        "time": 10.84,
                        "value": 1
                    },
                    {
                        "number": 64,
                        "time": 11.41375,
                        "value": 0
                    },
                    {
                        "number": 64,
                        "time": 11.56875,
                        "value": 1
                    },
                    {
                        "number": 64,
                        "time": 12.022499999999999,
                        "value": 0
                    },
                    {
                        "number": 64,
                        "time": 12.0825,
                        "value": 1
                    },
                    {
                        "number": 64,
                        "time": 12.6,
                        "value": 0
                    },
                    {
                        "number": 64,
                        "time": 12.7675,
                        "value": 1
                    },
                    {
                        "number": 64,
                        "time": 13.2175,
                        "value": 0
                    },
                    {
                        "number": 64,
                        "time": 14.667499999999999,
                        "value": 1
                    },
                    {
                        "number": 64,
                        "time": 16.2,
                        "value": 0
                    },
                    {
                        "number": 64,
                        "time": 16.915,
                        "value": 1
                    },
                    {
                        "number": 64,
                        "time": 18,
                        "value": 0
                    },
                    {
                        "number": 64,
                        "time": 19.915,
                        "value": 1
                    },
                    {
                        "number": 64,
                        "time": 20.41125,
                        "value": 0
                    },
                    {
                        "number": 64,
                        "time": 20.48875,
                        "value": 1
                    },
                    {
                        "number": 64,
                        "time": 21.0175,
                        "value": 0
                    },
                    {
                        "number": 64,
                        "time": 22.37625,
                        "value": 1
                    },
                    {
                        "number": 64,
                        "time": 23.436249999999998,
                        "value": 0
                    },
                    {
                        "number": 64,
                        "time": 25.24,
                        "value": 1
                    },
                    {
                        "number": 64,
                        "time": 25.81375,
                        "value": 0
                    },
                    {
                        "number": 64,
                        "time": 25.96875,
                        "value": 1
                    },
                    {
                        "number": 64,
                        "time": 26.4225,
                        "value": 0
                    },
                    {
                        "number": 64,
                        "time": 26.482499999999998,
                        "value": 1
                    },
                    {
                        "number": 64,
                        "time": 26.999999999999996,
                        "value": 0
                    },
                    {
                        "number": 64,
                        "time": 27.167499999999997,
                        "value": 1
                    },
                    {
                        "number": 64,
                        "time": 27.617499999999996,
                        "value": 0
                    },
                    {
                        "number": 64,
                        "time": 29.543749999999996,
                        "value": 1
                    },
                    {
                        "number": 64,
                        "time": 30.599999999999994,
                        "value": 0
                    },
                    {
                        "number": 64,
                        "time": 31.314999999999994,
                        "value": 1
                    },
                    {
                        "number": 64,
                        "time": 32.39999999999999,
                        "value": 0
                    },
                    {
                        "number": 64,
                        "time": 34.31499999999999,
                        "value": 1
                    },
                    {
                        "number": 64,
                        "time": 34.811249999999994,
                        "value": 0
                    },
                    {
                        "number": 64,
                        "time": 34.888749999999995,
                        "value": 1
                    },
                    {
                        "number": 64,
                        "time": 35.4175,
                        "value": 0
                    },
                    {
                        "number": 64,
                        "time": 36.77625,
                        "value": 1
                    },
                    {
                        "number": 64,
                        "time": 37.83625,
                        "value": 0
                    },
                    {
                        "number": 64,
                        "time": 38.57625,
                        "value": 1
                    },
                    {
                        "number": 64,
                        "time": 39.018750000000004,
                        "value": 0
                    },
                    {
                        "number": 64,
                        "time": 39.688750000000006,
                        "value": 1
                    },
                    {
                        "number": 64,
                        "time": 40.213750000000005,
                        "value": 0
                    },
                    {
                        "number": 64,
                        "time": 40.368750000000006,
                        "value": 1
                    },
                    {
                        "number": 64,
                        "time": 40.822500000000005,
                        "value": 0
                    },
                    {
                        "number": 64,
                        "time": 40.88250000000001,
                        "value": 1
                    },
                    {
                        "number": 64,
                        "time": 41.400000000000006,
                        "value": 0
                    },
                    {
                        "number": 64,
                        "time": 41.5675,
                        "value": 1
                    },
                    {
                        "number": 64,
                        "time": 42.017500000000005,
                        "value": 0
                    },
                    {
                        "number": 64,
                        "time": 43.94375000000001,
                        "value": 1
                    },
                    {
                        "number": 64,
                        "time": 45.00000000000001,
                        "value": 0
                    },
                    {
                        "number": 64,
                        "time": 45.71500000000001,
                        "value": 1
                    },
                    {
                        "number": 64,
                        "time": 46.80000000000001,
                        "value": 0
                    },
                    {
                        "number": 64,
                        "time": 48.71500000000001,
                        "value": 1
                    },
                    {
                        "number": 64,
                        "time": 49.211250000000014,
                        "value": 0
                    },
                    {
                        "number": 64,
                        "time": 49.288750000000014,
                        "value": 1
                    },
                    {
                        "number": 64,
                        "time": 49.81750000000002,
                        "value": 0
                    },
                    {
                        "number": 64,
                        "time": 51.17625000000002,
                        "value": 1
                    },
                    {
                        "number": 64,
                        "time": 52.23625000000002,
                        "value": 0
                    },
                    {
                        "number": 64,
                        "time": 52.97625000000002,
                        "value": 1
                    },
                    {
                        "number": 64,
                        "time": 53.418750000000024,
                        "value": 0
                    },
                    {
                        "number": 64,
                        "time": 54.088750000000026,
                        "value": 1
                    },
                    {
                        "number": 64,
                        "time": 54.613750000000024,
                        "value": 0
                    },
                    {
                        "number": 64,
                        "time": 54.768750000000026,
                        "value": 1
                    },
                    {
                        "number": 64,
                        "time": 55.222500000000025,
                        "value": 0
                    },
                    {
                        "number": 64,
                        "time": 55.28250000000003,
                        "value": 1
                    },
                    {
                        "number": 64,
                        "time": 55.800000000000026,
                        "value": 0
                    },
                    {
                        "number": 64,
                        "time": 55.96750000000002,
                        "value": 1
                    },
                    {
                        "number": 64,
                        "time": 56.417500000000025,
                        "value": 0
                    }
                ]
            },
            "id": 3,
            "name": "Pedale",
            "instrumentNumber": 0,
            "instrument": "acoustic grand piano",
            "instrumentFamily": "piano",
            "channelNumber": 0,
            "isPercussion": false
        },
        {
            "startTime": 0,
            "duration": 0,
            "length": 0,
            "notes": [],
            "controlChanges": {},
            "id": 4,
            "name": "Haydn: Sonata Hoboken XVI:8 2. movement"
        },
        {
            "startTime": 0,
            "duration": 0,
            "length": 0,
            "notes": [],
            "controlChanges": {},
            "id": 5,
            "name": "Copyright  2009 by Bernd Krueger"
        },
        {
            "startTime": 0,
            "duration": 0,
            "length": 0,
            "notes": [],
            "controlChanges": {},
            "id": 6,
            "name": "http://www.piano-midi.de/"
        },
        {
            "startTime": 0,
            "duration": 0,
            "length": 0,
            "notes": [],
            "controlChanges": {},
            "id": 7,
            "name": "Edition: 2011-11-14"
        },
        {
            "startTime": 0,
            "duration": 0,
            "length": 0,
            "notes": [],
            "controlChanges": {},
            "id": 8,
            "name": "Spur 8"
        },
        {
            "startTime": 0,
            "duration": 0,
            "length": 0,
            "notes": [],
            "controlChanges": {},
            "id": 9,
            "name": "Spur 9"
        },
        {
            "startTime": 0,
            "duration": 0,
            "length": 0,
            "notes": [],
            "controlChanges": {},
            "id": 10,
            "name": "Spur 10"
        },
        {
            "startTime": 0,
            "duration": 0,
            "length": 0,
            "notes": [],
            "controlChanges": {},
            "id": 11,
            "name": "Spur 11"
        },
        {
            "startTime": 0,
            "duration": 0,
            "length": 0,
            "notes": [],
            "controlChanges": {},
            "id": 12,
            "name": "Spur 12"
        },
        {
            "startTime": 0,
            "duration": 0,
            "length": 0,
            "notes": [],
            "controlChanges": {},
            "id": 13,
            "name": "Spur 13"
        },
        {
            "startTime": 0,
            "duration": 0,
            "length": 0,
            "notes": [],
            "controlChanges": {},
            "id": 14,
            "name": "Spur 14"
        },
        {
            "startTime": 0,
            "duration": 0,
            "length": 0,
            "notes": [],
            "controlChanges": {},
            "id": 15,
            "name": "Spur 15"
        },
        {
            "startTime": 0,
            "duration": 0,
            "length": 0,
            "notes": [],
            "controlChanges": {},
            "id": 16,
            "name": "Spur 16"
        }
    ]
}