{
    "header": {
        "PPQ": 480,
        "timeSignature": [
            3,
            4
        ],
        "bpm": 199.4999202000319,
        "name": "Sonate XVI:35 3. Satz"
    },
    "startTime": 0,
    "duration": 141.95494399999941,
    "tracks": [
        {
            "startTime": 0,
            "duration": 0,
            "length": 0,
            "notes": [],
            "controlChanges": {},
            "id": 0,
            "name": "Sonate XVI:35 3. Satz"
        },
        {
            "startTime": 0,
            "duration": 141.95494399999856,
            "length": 714,
            "notes": [
                {
                    "name": "E5",
                    "midi": 76,
                    "time": 0,
                    "velocity": 0.3543307086614173,
                    "duration": 0.526316
                },
                {
                    "name": "F5",
                    "midi": 77,
                    "time": 0.526316,
                    "velocity": 0.3228346456692913,
                    "duration": 0.07518800000000003
                },
                {
                    "name": "D5",
                    "midi": 74,
                    "time": 0.601504,
                    "velocity": 0.3543307086614173,
                    "duration": 0.225564
                },
                {
                    "name": "E5",
                    "midi": 76,
                    "time": 0.827068,
                    "velocity": 0.3228346456692913,
                    "duration": 0.07518800000000003
                },
                {
                    "name": "C5",
                    "midi": 72,
                    "time": 0.9022560000000001,
                    "velocity": 0.3543307086614173,
                    "duration": 0.07518800000000003
                },
                {
                    "name": "G5",
                    "midi": 79,
                    "time": 1.203008,
                    "velocity": 0.33858267716535434,
                    "duration": 0.07518800000000003
                },
                {
                    "name": "G5",
                    "midi": 79,
                    "time": 1.5037600000000002,
                    "velocity": 0.33858267716535434,
                    "duration": 0.07518800000000003
                },
                {
                    "name": "G5",
                    "midi": 79,
                    "time": 1.8045120000000003,
                    "velocity": 0.3543307086614173,
                    "duration": 0.15037600000000007
                },
                {
                    "name": "F5",
                    "midi": 77,
                    "time": 1.9548880000000004,
                    "velocity": 0.3228346456692913,
                    "duration": 0.07518799999999981
                },
                {
                    "name": "F5",
                    "midi": 77,
                    "time": 2.105264,
                    "velocity": 0.3543307086614173,
                    "duration": 0.15037600000000007
                },
                {
                    "name": "E5",
                    "midi": 76,
                    "time": 2.25564,
                    "velocity": 0.3228346456692913,
                    "duration": 0.07518799999999981
                },
                {
                    "name": "E5",
                    "midi": 76,
                    "time": 2.4060159999999997,
                    "velocity": 0.3543307086614173,
                    "duration": 0.15037600000000007
                },
                {
                    "name": "D5",
                    "midi": 74,
                    "time": 2.5563919999999998,
                    "velocity": 0.31496062992125984,
                    "duration": 0.07518799999999981
                },
                {
                    "name": "D5",
                    "midi": 74,
                    "time": 2.7067679999999994,
                    "velocity": 0.3543307086614173,
                    "duration": 0.07518799999999981
                },
                {
                    "name": "B4",
                    "midi": 71,
                    "time": 3.007519999999999,
                    "velocity": 0.3228346456692913,
                    "duration": 0.07518799999999981
                },
                {
                    "name": "G4",
                    "midi": 67,
                    "time": 3.3082719999999988,
                    "velocity": 0.3228346456692913,
                    "duration": 0.07518799999999981
                },
                {
                    "name": "E5",
                    "midi": 76,
                    "time": 3.6090239999999985,
                    "velocity": 0.5669291338582677,
                    "duration": 0.526316
                },
                {
                    "name": "F5",
                    "midi": 77,
                    "time": 4.1353399999999985,
                    "velocity": 0.4645669291338583,
                    "duration": 0.07518799999999981
                },
                {
                    "name": "D5",
                    "midi": 74,
                    "time": 4.210527999999998,
                    "velocity": 0.5433070866141733,
                    "duration": 0.22556400000000032
                },
                {
                    "name": "E5",
                    "midi": 76,
                    "time": 4.436091999999999,
                    "velocity": 0.5039370078740157,
                    "duration": 0.07518799999999981
                },
                {
                    "name": "C5",
                    "midi": 72,
                    "time": 4.511279999999998,
                    "velocity": 0.5511811023622047,
                    "duration": 0.07518799999999981
                },
                {
                    "name": "C6",
                    "midi": 84,
                    "time": 4.8120319999999985,
                    "velocity": 0.5511811023622047,
                    "duration": 0.07518799999999981
                },
                {
                    "name": "C6",
                    "midi": 84,
                    "time": 5.112783999999999,
                    "velocity": 0.5511811023622047,
                    "duration": 0.07518799999999981
                },
                {
                    "name": "G#5",
                    "midi": 80,
                    "time": 5.413535999999999,
                    "velocity": 0.5275590551181102,
                    "duration": 0.07518799999999981
                },
                {
                    "name": "A5",
                    "midi": 81,
                    "time": 5.488723999999999,
                    "velocity": 0.4645669291338583,
                    "duration": 0.07518799999999981
                },
                {
                    "name": "E5",
                    "midi": 76,
                    "time": 5.714287999999998,
                    "velocity": 0.5354330708661418,
                    "duration": 0.07518799999999981
                },
                {
                    "name": "F5",
                    "midi": 77,
                    "time": 5.789475999999998,
                    "velocity": 0.4645669291338583,
                    "duration": 0.07518799999999981
                },
                {
                    "name": "D5",
                    "midi": 74,
                    "time": 6.015039999999997,
                    "velocity": 0.5511811023622047,
                    "duration": 0.07518799999999981
                },
                {
                    "name": "B4",
                    "midi": 71,
                    "time": 6.090227999999997,
                    "velocity": 0.4566929133858268,
                    "duration": 0.07518799999999981
                },
                {
                    "name": "C5",
                    "midi": 72,
                    "time": 6.3157919999999965,
                    "velocity": 0.5590551181102362,
                    "duration": 0.07518799999999981
                },
                {
                    "name": "E5",
                    "midi": 76,
                    "time": 7.218047999999996,
                    "velocity": 0.3543307086614173,
                    "duration": 0.5263159999999996
                },
                {
                    "name": "F5",
                    "midi": 77,
                    "time": 7.744363999999996,
                    "velocity": 0.3228346456692913,
                    "duration": 0.07518799999999981
                },
                {
                    "name": "D5",
                    "midi": 74,
                    "time": 7.819551999999995,
                    "velocity": 0.3543307086614173,
                    "duration": 0.22556399999999943
                },
                {
                    "name": "E5",
                    "midi": 76,
                    "time": 8.045115999999995,
                    "velocity": 0.3228346456692913,
                    "duration": 0.0751880000000007
                },
                {
                    "name": "C5",
                    "midi": 72,
                    "time": 8.120303999999996,
                    "velocity": 0.3543307086614173,
                    "duration": 0.0751880000000007
                },
                {
                    "name": "G5",
                    "midi": 79,
                    "time": 8.421055999999997,
                    "velocity": 0.33858267716535434,
                    "duration": 0.0751880000000007
                },
                {
                    "name": "G5",
                    "midi": 79,
                    "time": 8.721807999999998,
                    "velocity": 0.33858267716535434,
                    "duration": 0.0751880000000007
                },
                {
                    "name": "G5",
                    "midi": 79,
                    "time": 9.022559999999999,
                    "velocity": 0.3543307086614173,
                    "duration": 0.15037599999999962
                },
                {
                    "name": "F5",
                    "midi": 77,
                    "time": 9.172935999999998,
                    "velocity": 0.3228346456692913,
                    "duration": 0.0751880000000007
                },
                {
                    "name": "F5",
                    "midi": 77,
                    "time": 9.323312,
                    "velocity": 0.3543307086614173,
                    "duration": 0.15037599999999962
                },
                {
                    "name": "E5",
                    "midi": 76,
                    "time": 9.473688,
                    "velocity": 0.3228346456692913,
                    "duration": 0.0751880000000007
                },
                {
                    "name": "E5",
                    "midi": 76,
                    "time": 9.624064,
                    "velocity": 0.3543307086614173,
                    "duration": 0.15037599999999962
                },
                {
                    "name": "D5",
                    "midi": 74,
                    "time": 9.77444,
                    "velocity": 0.31496062992125984,
                    "duration": 0.0751880000000007
                },
                {
                    "name": "D5",
                    "midi": 74,
                    "time": 9.924816000000002,
                    "velocity": 0.3543307086614173,
                    "duration": 0.0751880000000007
                },
                {
                    "name": "B4",
                    "midi": 71,
                    "time": 10.225568000000003,
                    "velocity": 0.3228346456692913,
                    "duration": 0.0751880000000007
                },
                {
                    "name": "G4",
                    "midi": 67,
                    "time": 10.526320000000004,
                    "velocity": 0.3228346456692913,
                    "duration": 0.0751880000000007
                },
                {
                    "name": "E5",
                    "midi": 76,
                    "time": 10.827072000000005,
                    "velocity": 0.5669291338582677,
                    "duration": 0.5263159999999996
                },
                {
                    "name": "F5",
                    "midi": 77,
                    "time": 11.353388000000004,
                    "velocity": 0.4645669291338583,
                    "duration": 0.0751880000000007
                },
                {
                    "name": "D5",
                    "midi": 74,
                    "time": 11.428576000000005,
                    "velocity": 0.5433070866141733,
                    "duration": 0.22556400000000032
                },
                {
                    "name": "E5",
                    "midi": 76,
                    "time": 11.654140000000005,
                    "velocity": 0.5039370078740157,
                    "duration": 0.0751880000000007
                },
                {
                    "name": "C5",
                    "midi": 72,
                    "time": 11.729328000000006,
                    "velocity": 0.5511811023622047,
                    "duration": 0.0751880000000007
                },
                {
                    "name": "C6",
                    "midi": 84,
                    "time": 12.030080000000007,
                    "velocity": 0.5511811023622047,
                    "duration": 0.0751880000000007
                },
                {
                    "name": "C6",
                    "midi": 84,
                    "time": 12.330832000000008,
                    "velocity": 0.5511811023622047,
                    "duration": 0.0751880000000007
                },
                {
                    "name": "G#5",
                    "midi": 80,
                    "time": 12.631584000000009,
                    "velocity": 0.5275590551181102,
                    "duration": 0.0751880000000007
                },
                {
                    "name": "A5",
                    "midi": 81,
                    "time": 12.70677200000001,
                    "velocity": 0.4645669291338583,
                    "duration": 0.0751880000000007
                },
                {
                    "name": "E5",
                    "midi": 76,
                    "time": 12.93233600000001,
                    "velocity": 0.5354330708661418,
                    "duration": 0.0751880000000007
                },
                {
                    "name": "F5",
                    "midi": 77,
                    "time": 13.00752400000001,
                    "velocity": 0.4645669291338583,
                    "duration": 0.0751880000000007
                },
                {
                    "name": "D5",
                    "midi": 74,
                    "time": 13.233088000000011,
                    "velocity": 0.5511811023622047,
                    "duration": 0.0751880000000007
                },
                {
                    "name": "B4",
                    "midi": 71,
                    "time": 13.308276000000012,
                    "velocity": 0.4566929133858268,
                    "duration": 0.0751880000000007
                },
                {
                    "name": "C5",
                    "midi": 72,
                    "time": 13.533840000000012,
                    "velocity": 0.5590551181102362,
                    "duration": 0.0751880000000007
                },
                {
                    "name": "F5",
                    "midi": 77,
                    "time": 14.436096000000013,
                    "velocity": 0.3543307086614173,
                    "duration": 0.5263159999999996
                },
                {
                    "name": "G5",
                    "midi": 79,
                    "time": 14.962412000000013,
                    "velocity": 0.3228346456692913,
                    "duration": 0.0751880000000007
                },
                {
                    "name": "E5",
                    "midi": 76,
                    "time": 15.037600000000014,
                    "velocity": 0.3543307086614173,
                    "duration": 0.22556400000000032
                },
                {
                    "name": "F5",
                    "midi": 77,
                    "time": 15.263164000000014,
                    "velocity": 0.3228346456692913,
                    "duration": 0.0751880000000007
                },
                {
                    "name": "D5",
                    "midi": 74,
                    "time": 15.338352000000015,
                    "velocity": 0.3543307086614173,
                    "duration": 0.0751880000000007
                },
                {
                    "name": "B4",
                    "midi": 71,
                    "time": 15.639104000000016,
                    "velocity": 0.33858267716535434,
                    "duration": 0.0751880000000007
                },
                {
                    "name": "G4",
                    "midi": 67,
                    "time": 15.939856000000017,
                    "velocity": 0.33858267716535434,
                    "duration": 0.0751880000000007
                },
                {
                    "name": "C6",
                    "midi": 84,
                    "time": 16.240608000000016,
                    "velocity": 0.5118110236220472,
                    "duration": 0.5263160000000013
                },
                {
                    "name": "D6",
                    "midi": 86,
                    "time": 16.766924000000017,
                    "velocity": 0.44881889763779526,
                    "duration": 0.0751880000000007
                },
                {
                    "name": "B5",
                    "midi": 83,
                    "time": 16.842112000000018,
                    "velocity": 0.5196850393700787,
                    "duration": 0.22556399999999854
                },
                {
                    "name": "C6",
                    "midi": 84,
                    "time": 17.067676000000017,
                    "velocity": 0.44881889763779526,
                    "duration": 0.0751880000000007
                },
                {
                    "name": "A5",
                    "midi": 81,
                    "time": 17.142864000000017,
                    "velocity": 0.5118110236220472,
                    "duration": 0.5263160000000013
                },
                {
                    "name": "B5",
                    "midi": 83,
                    "time": 17.66918000000002,
                    "velocity": 0.44881889763779526,
                    "duration": 0.0751880000000007
                },
                {
                    "name": "G5",
                    "midi": 79,
                    "time": 17.74436800000002,
                    "velocity": 0.5196850393700787,
                    "duration": 0.22556399999999854
                },
                {
                    "name": "A5",
                    "midi": 81,
                    "time": 17.969932000000018,
                    "velocity": 0.44881889763779526,
                    "duration": 0.0751880000000007
                },
                {
                    "name": "F#5",
                    "midi": 78,
                    "time": 18.04512000000002,
                    "velocity": 0.5196850393700787,
                    "duration": 0.2255640000000021
                },
                {
                    "name": "A5",
                    "midi": 81,
                    "time": 18.253140133333353,
                    "velocity": 0.48031496062992124,
                    "duration": 0.0751880000000007
                },
                {
                    "name": "C6",
                    "midi": 84,
                    "time": 18.36341586666669,
                    "velocity": 0.5196850393700787,
                    "duration": 0.2255640000000021
                },
                {
                    "name": "A5",
                    "midi": 81,
                    "time": 18.571436000000023,
                    "velocity": 0.4881889763779528,
                    "duration": 0.0751880000000007
                },
                {
                    "name": "F#5",
                    "midi": 78,
                    "time": 18.646624000000024,
                    "velocity": 0.5196850393700787,
                    "duration": 0.22556399999999854
                },
                {
                    "name": "A5",
                    "midi": 81,
                    "time": 18.872188000000023,
                    "velocity": 0.49606299212598426,
                    "duration": 0.0751880000000007
                },
                {
                    "name": "G5",
                    "midi": 79,
                    "time": 18.947376000000023,
                    "velocity": 0.5590551181102362,
                    "duration": 0.0751880000000007
                },
                {
                    "name": "G5",
                    "midi": 79,
                    "time": 19.248128000000023,
                    "velocity": 0.5196850393700787,
                    "duration": 0.0751880000000007
                },
                {
                    "name": "G5",
                    "midi": 79,
                    "time": 19.548880000000022,
                    "velocity": 0.5196850393700787,
                    "duration": 0.0751880000000007
                },
                {
                    "name": "F#5",
                    "midi": 78,
                    "time": 19.84963200000002,
                    "velocity": 0.5196850393700787,
                    "duration": 0.2255640000000021
                },
                {
                    "name": "A5",
                    "midi": 81,
                    "time": 20.057652133333356,
                    "velocity": 0.48031496062992124,
                    "duration": 0.0751880000000007
                },
                {
                    "name": "C6",
                    "midi": 84,
                    "time": 20.16792786666669,
                    "velocity": 0.5196850393700787,
                    "duration": 0.2255640000000021
                },
                {
                    "name": "A5",
                    "midi": 81,
                    "time": 20.375948000000026,
                    "velocity": 0.4881889763779528,
                    "duration": 0.0751880000000007
                },
                {
                    "name": "F#5",
                    "midi": 78,
                    "time": 20.451136000000027,
                    "velocity": 0.5196850393700787,
                    "duration": 0.22556399999999854
                },
                {
                    "name": "A5",
                    "midi": 81,
                    "time": 20.676700000000025,
                    "velocity": 0.49606299212598426,
                    "duration": 0.0751880000000007
                },
                {
                    "name": "G5",
                    "midi": 79,
                    "time": 20.751888000000026,
                    "velocity": 0.5590551181102362,
                    "duration": 0.0751880000000007
                },
                {
                    "name": "G5",
                    "midi": 79,
                    "time": 21.052640000000025,
                    "velocity": 0.5196850393700787,
                    "duration": 0.0751880000000007
                },
                {
                    "name": "G5",
                    "midi": 79,
                    "time": 21.353392000000024,
                    "velocity": 0.5196850393700787,
                    "duration": 0.0751880000000007
                },
                {
                    "name": "G5",
                    "midi": 79,
                    "time": 21.654144000000024,
                    "velocity": 0.5590551181102362,
                    "duration": 0.5263160000000013
                },
                {
                    "name": "A5",
                    "midi": 81,
                    "time": 22.180460000000025,
                    "velocity": 0.3228346456692913,
                    "duration": 0.0751880000000007
                },
                {
                    "name": "F5",
                    "midi": 77,
                    "time": 22.255648000000026,
                    "velocity": 0.3543307086614173,
                    "duration": 0.22556399999999854
                },
                {
                    "name": "G5",
                    "midi": 79,
                    "time": 22.481212000000024,
                    "velocity": 0.3228346456692913,
                    "duration": 0.0751880000000007
                },
                {
                    "name": "E5",
                    "midi": 76,
                    "time": 22.556400000000025,
                    "velocity": 0.3543307086614173,
                    "duration": 0.5263160000000013
                },
                {
                    "name": "F5",
                    "midi": 77,
                    "time": 23.082716000000026,
                    "velocity": 0.3228346456692913,
                    "duration": 0.0751880000000007
                },
                {
                    "name": "D5",
                    "midi": 74,
                    "time": 23.157904000000027,
                    "velocity": 0.3543307086614173,
                    "duration": 0.22556399999999854
                },
                {
                    "name": "E5",
                    "midi": 76,
                    "time": 23.383468000000025,
                    "velocity": 0.3228346456692913,
                    "duration": 0.0751880000000007
                },
                {
                    "name": "C5",
                    "midi": 72,
                    "time": 23.458656000000026,
                    "velocity": 0.3543307086614173,
                    "duration": 0.0751880000000007
                },
                {
                    "name": "G5",
                    "midi": 79,
                    "time": 23.759408000000025,
                    "velocity": 0.33858267716535434,
                    "duration": 0.0751880000000007
                },
                {
                    "name": "G5",
                    "midi": 79,
                    "time": 24.060160000000025,
                    "velocity": 0.33858267716535434,
                    "duration": 0.0751880000000007
                },
                {
                    "name": "G5",
                    "midi": 79,
                    "time": 24.360912000000024,
                    "velocity": 0.3543307086614173,
                    "duration": 0.1503760000000014
                },
                {
                    "name": "F5",
                    "midi": 77,
                    "time": 24.511288000000025,
                    "velocity": 0.3228346456692913,
                    "duration": 0.0751880000000007
                },
                {
                    "name": "F5",
                    "midi": 77,
                    "time": 24.661664000000027,
                    "velocity": 0.3543307086614173,
                    "duration": 0.1503760000000014
                },
                {
                    "name": "E5",
                    "midi": 76,
                    "time": 24.812040000000028,
                    "velocity": 0.3228346456692913,
                    "duration": 0.0751880000000007
                },
                {
                    "name": "E5",
                    "midi": 76,
                    "time": 24.96241600000003,
                    "velocity": 0.3543307086614173,
                    "duration": 0.1503760000000014
                },
                {
                    "name": "D5",
                    "midi": 74,
                    "time": 25.11279200000003,
                    "velocity": 0.31496062992125984,
                    "duration": 0.0751880000000007
                },
                {
                    "name": "D5",
                    "midi": 74,
                    "time": 25.263168000000032,
                    "velocity": 0.3543307086614173,
                    "duration": 0.0751880000000007
                },
                {
                    "name": "B4",
                    "midi": 71,
                    "time": 25.56392000000003,
                    "velocity": 0.3228346456692913,
                    "duration": 0.0751880000000007
                },
                {
                    "name": "G4",
                    "midi": 67,
                    "time": 25.86467200000003,
                    "velocity": 0.3228346456692913,
                    "duration": 0.0751880000000007
                },
                {
                    "name": "E5",
                    "midi": 76,
                    "time": 26.16542400000003,
                    "velocity": 0.5669291338582677,
                    "duration": 0.5263160000000013
                },
                {
                    "name": "F5",
                    "midi": 77,
                    "time": 26.69174000000003,
                    "velocity": 0.4645669291338583,
                    "duration": 0.0751880000000007
                },
                {
                    "name": "D5",
                    "midi": 74,
                    "time": 26.766928000000032,
                    "velocity": 0.5433070866141733,
                    "duration": 0.22556399999999854
                },
                {
                    "name": "E5",
                    "midi": 76,
                    "time": 26.99249200000003,
                    "velocity": 0.5039370078740157,
                    "duration": 0.0751880000000007
                },
                {
                    "name": "C5",
                    "midi": 72,
                    "time": 27.06768000000003,
                    "velocity": 0.5511811023622047,
                    "duration": 0.0751880000000007
                },
                {
                    "name": "C6",
                    "midi": 84,
                    "time": 27.36843200000003,
                    "velocity": 0.5511811023622047,
                    "duration": 0.0751880000000007
                },
                {
                    "name": "C6",
                    "midi": 84,
                    "time": 27.66918400000003,
                    "velocity": 0.5511811023622047,
                    "duration": 0.0751880000000007
                },
                {
                    "name": "G#5",
                    "midi": 80,
                    "time": 27.96993600000003,
                    "velocity": 0.5275590551181102,
                    "duration": 0.0751880000000007
                },
                {
                    "name": "A5",
                    "midi": 81,
                    "time": 28.04512400000003,
                    "velocity": 0.4645669291338583,
                    "duration": 0.0751880000000007
                },
                {
                    "name": "E5",
                    "midi": 76,
                    "time": 28.270688000000032,
                    "velocity": 0.5354330708661418,
                    "duration": 0.0751880000000007
                },
                {
                    "name": "F5",
                    "midi": 77,
                    "time": 28.345876000000032,
                    "velocity": 0.4645669291338583,
                    "duration": 0.0751880000000007
                },
                {
                    "name": "D5",
                    "midi": 74,
                    "time": 28.571440000000035,
                    "velocity": 0.5511811023622047,
                    "duration": 0.0751880000000007
                },
                {
                    "name": "B4",
                    "midi": 71,
                    "time": 28.646628000000035,
                    "velocity": 0.4566929133858268,
                    "duration": 0.0751880000000007
                },
                {
                    "name": "C5",
                    "midi": 72,
                    "time": 28.872192000000037,
                    "velocity": 0.5590551181102362,
                    "duration": 0.0751880000000007
                },
                {
                    "name": "F5",
                    "midi": 77,
                    "time": 29.77444800000004,
                    "velocity": 0.3543307086614173,
                    "duration": 0.5263160000000013
                },
                {
                    "name": "G5",
                    "midi": 79,
                    "time": 30.30076400000004,
                    "velocity": 0.3228346456692913,
                    "duration": 0.0751880000000007
                },
                {
                    "name": "E5",
                    "midi": 76,
                    "time": 30.37595200000004,
                    "velocity": 0.3543307086614173,
                    "duration": 0.22556399999999854
                },
                {
                    "name": "F5",
                    "midi": 77,
                    "time": 30.60151600000004,
                    "velocity": 0.3228346456692913,
                    "duration": 0.0751880000000007
                },
                {
                    "name": "D5",
                    "midi": 74,
                    "time": 30.67670400000004,
                    "velocity": 0.3543307086614173,
                    "duration": 0.0751880000000007
                },
                {
                    "name": "B4",
                    "midi": 71,
                    "time": 30.97745600000004,
                    "velocity": 0.33858267716535434,
                    "duration": 0.0751880000000007
                },
                {
                    "name": "G4",
                    "midi": 67,
                    "time": 31.27820800000004,
                    "velocity": 0.33858267716535434,
                    "duration": 0.0751880000000007
                },
                {
                    "name": "C6",
                    "midi": 84,
                    "time": 31.578960000000038,
                    "velocity": 0.5118110236220472,
                    "duration": 0.5263160000000013
                },
                {
                    "name": "D6",
                    "midi": 86,
                    "time": 32.10527600000004,
                    "velocity": 0.44881889763779526,
                    "duration": 0.07518799999999715
                },
                {
                    "name": "B5",
                    "midi": 83,
                    "time": 32.180464000000036,
                    "velocity": 0.5196850393700787,
                    "duration": 0.22556399999999854
                },
                {
                    "name": "C6",
                    "midi": 84,
                    "time": 32.406028000000035,
                    "velocity": 0.44881889763779526,
                    "duration": 0.07518799999999715
                },
                {
                    "name": "A5",
                    "midi": 81,
                    "time": 32.48121600000003,
                    "velocity": 0.5118110236220472,
                    "duration": 0.5263160000000013
                },
                {
                    "name": "B5",
                    "midi": 83,
                    "time": 33.00753200000003,
                    "velocity": 0.44881889763779526,
                    "duration": 0.07518799999999715
                },
                {
                    "name": "G5",
                    "midi": 79,
                    "time": 33.08272000000003,
                    "velocity": 0.5196850393700787,
                    "duration": 0.22556399999999854
                },
                {
                    "name": "A5",
                    "midi": 81,
                    "time": 33.30828400000003,
                    "velocity": 0.44881889763779526,
                    "duration": 0.07518799999999715
                },
                {
                    "name": "F#5",
                    "midi": 78,
                    "time": 33.383472000000026,
                    "velocity": 0.5196850393700787,
                    "duration": 0.22556399999999854
                },
                {
                    "name": "A5",
                    "midi": 81,
                    "time": 33.59149213333336,
                    "velocity": 0.48031496062992124,
                    "duration": 0.07518799999999715
                },
                {
                    "name": "C6",
                    "midi": 84,
                    "time": 33.70176786666669,
                    "velocity": 0.5196850393700787,
                    "duration": 0.22556399999999854
                },
                {
                    "name": "A5",
                    "midi": 81,
                    "time": 33.90978800000003,
                    "velocity": 0.4881889763779528,
                    "duration": 0.07518799999999715
                },
                {
                    "name": "F#5",
                    "midi": 78,
                    "time": 33.984976000000024,
                    "velocity": 0.5196850393700787,
                    "duration": 0.22556399999999854
                },
                {
                    "name": "A5",
                    "midi": 81,
                    "time": 34.21054000000002,
                    "velocity": 0.49606299212598426,
                    "duration": 0.07518799999999715
                },
                {
                    "name": "G5",
                    "midi": 79,
                    "time": 34.28572800000002,
                    "velocity": 0.5590551181102362,
                    "duration": 0.07518799999999715
                },
                {
                    "name": "G5",
                    "midi": 79,
                    "time": 34.586480000000016,
                    "velocity": 0.5196850393700787,
                    "duration": 0.07518799999999715
                },
                {
                    "name": "G5",
                    "midi": 79,
                    "time": 34.88723200000001,
                    "velocity": 0.5196850393700787,
                    "duration": 0.07518799999999715
                },
                {
                    "name": "F#5",
                    "midi": 78,
                    "time": 35.18798400000001,
                    "velocity": 0.5196850393700787,
                    "duration": 0.22556399999999854
                },
                {
                    "name": "A5",
                    "midi": 81,
                    "time": 35.39600413333334,
                    "velocity": 0.48031496062992124,
                    "duration": 0.07518799999999715
                },
                {
                    "name": "C6",
                    "midi": 84,
                    "time": 35.506279866666674,
                    "velocity": 0.5196850393700787,
                    "duration": 0.22556399999999854
                },
                {
                    "name": "A5",
                    "midi": 81,
                    "time": 35.71430000000001,
                    "velocity": 0.4881889763779528,
                    "duration": 0.07518799999999715
                },
                {
                    "name": "F#5",
                    "midi": 78,
                    "time": 35.789488000000006,
                    "velocity": 0.5196850393700787,
                    "duration": 0.22556399999999854
                },
                {
                    "name": "A5",
                    "midi": 81,
                    "time": 36.015052000000004,
                    "velocity": 0.49606299212598426,
                    "duration": 0.07518799999999715
                },
                {
                    "name": "G5",
                    "midi": 79,
                    "time": 36.09024,
                    "velocity": 0.5590551181102362,
                    "duration": 0.07518799999999715
                },
                {
                    "name": "G5",
                    "midi": 79,
                    "time": 36.390992,
                    "velocity": 0.5196850393700787,
                    "duration": 0.07518799999999715
                },
                {
                    "name": "G5",
                    "midi": 79,
                    "time": 36.69174399999999,
                    "velocity": 0.5196850393700787,
                    "duration": 0.07518799999999715
                },
                {
                    "name": "G5",
                    "midi": 79,
                    "time": 36.99249599999999,
                    "velocity": 0.5590551181102362,
                    "duration": 0.5263160000000013
                },
                {
                    "name": "A5",
                    "midi": 81,
                    "time": 37.51881199999999,
                    "velocity": 0.3228346456692913,
                    "duration": 0.07518799999999715
                },
                {
                    "name": "F5",
                    "midi": 77,
                    "time": 37.59399999999999,
                    "velocity": 0.3543307086614173,
                    "duration": 0.22556399999999854
                },
                {
                    "name": "G5",
                    "midi": 79,
                    "time": 37.819563999999986,
                    "velocity": 0.3228346456692913,
                    "duration": 0.07518799999999715
                },
                {
                    "name": "E5",
                    "midi": 76,
                    "time": 37.89475199999998,
                    "velocity": 0.3543307086614173,
                    "duration": 0.5263160000000013
                },
                {
                    "name": "F5",
                    "midi": 77,
                    "time": 38.421067999999984,
                    "velocity": 0.3228346456692913,
                    "duration": 0.07518799999999715
                },
                {
                    "name": "D5",
                    "midi": 74,
                    "time": 38.49625599999998,
                    "velocity": 0.3543307086614173,
                    "duration": 0.22556399999999854
                },
                {
                    "name": "E5",
                    "midi": 76,
                    "time": 38.72181999999998,
                    "velocity": 0.3228346456692913,
                    "duration": 0.07518799999999715
                },
                {
                    "name": "C5",
                    "midi": 72,
                    "time": 38.79700799999998,
                    "velocity": 0.3543307086614173,
                    "duration": 0.07518799999999715
                },
                {
                    "name": "G5",
                    "midi": 79,
                    "time": 39.09775999999997,
                    "velocity": 0.33858267716535434,
                    "duration": 0.07518799999999715
                },
                {
                    "name": "G5",
                    "midi": 79,
                    "time": 39.39851199999997,
                    "velocity": 0.33858267716535434,
                    "duration": 0.07518799999999715
                },
                {
                    "name": "G5",
                    "midi": 79,
                    "time": 39.699263999999964,
                    "velocity": 0.3543307086614173,
                    "duration": 0.1503760000000014
                },
                {
                    "name": "F5",
                    "midi": 77,
                    "time": 39.849639999999965,
                    "velocity": 0.3228346456692913,
                    "duration": 0.07518799999999715
                },
                {
                    "name": "F5",
                    "midi": 77,
                    "time": 40.00001599999996,
                    "velocity": 0.3543307086614173,
                    "duration": 0.1503760000000014
                },
                {
                    "name": "E5",
                    "midi": 76,
                    "time": 40.15039199999996,
                    "velocity": 0.3228346456692913,
                    "duration": 0.07518799999999715
                },
                {
                    "name": "E5",
                    "midi": 76,
                    "time": 40.300767999999955,
                    "velocity": 0.3543307086614173,
                    "duration": 0.1503760000000014
                },
                {
                    "name": "D5",
                    "midi": 74,
                    "time": 40.45114399999996,
                    "velocity": 0.31496062992125984,
                    "duration": 0.07518799999999715
                },
                {
                    "name": "D5",
                    "midi": 74,
                    "time": 40.60151999999995,
                    "velocity": 0.3543307086614173,
                    "duration": 0.07518799999999715
                },
                {
                    "name": "B4",
                    "midi": 71,
                    "time": 40.90227199999995,
                    "velocity": 0.3228346456692913,
                    "duration": 0.07518799999999715
                },
                {
                    "name": "G4",
                    "midi": 67,
                    "time": 41.20302399999994,
                    "velocity": 0.3228346456692913,
                    "duration": 0.07518799999999715
                },
                {
                    "name": "E5",
                    "midi": 76,
                    "time": 41.50377599999994,
                    "velocity": 0.5669291338582677,
                    "duration": 0.5263160000000013
                },
                {
                    "name": "F5",
                    "midi": 77,
                    "time": 42.03009199999994,
                    "velocity": 0.4645669291338583,
                    "duration": 0.07518799999999715
                },
                {
                    "name": "D5",
                    "midi": 74,
                    "time": 42.10527999999994,
                    "velocity": 0.5433070866141733,
                    "duration": 0.22556399999999854
                },
                {
                    "name": "E5",
                    "midi": 76,
                    "time": 42.330843999999935,
                    "velocity": 0.5039370078740157,
                    "duration": 0.07518799999999715
                },
                {
                    "name": "C5",
                    "midi": 72,
                    "time": 42.40603199999993,
                    "velocity": 0.5511811023622047,
                    "duration": 0.07518799999999715
                },
                {
                    "name": "C6",
                    "midi": 84,
                    "time": 42.70678399999993,
                    "velocity": 0.5511811023622047,
                    "duration": 0.07518799999999715
                },
                {
                    "name": "C6",
                    "midi": 84,
                    "time": 43.007535999999924,
                    "velocity": 0.5511811023622047,
                    "duration": 0.07518799999999715
                },
                {
                    "name": "G#5",
                    "midi": 80,
                    "time": 43.30828799999992,
                    "velocity": 0.5275590551181102,
                    "duration": 0.07518799999999715
                },
                {
                    "name": "A5",
                    "midi": 81,
                    "time": 43.383475999999916,
                    "velocity": 0.4645669291338583,
                    "duration": 0.07518799999999715
                },
                {
                    "name": "E5",
                    "midi": 76,
                    "time": 43.609039999999915,
                    "velocity": 0.5354330708661418,
                    "duration": 0.07518799999999715
                },
                {
                    "name": "F5",
                    "midi": 77,
                    "time": 43.68422799999991,
                    "velocity": 0.4645669291338583,
                    "duration": 0.07518799999999715
                },
                {
                    "name": "D5",
                    "midi": 74,
                    "time": 43.90979199999991,
                    "velocity": 0.5511811023622047,
                    "duration": 0.07518799999999715
                },
                {
                    "name": "B4",
                    "midi": 71,
                    "time": 43.98497999999991,
                    "velocity": 0.4566929133858268,
                    "duration": 0.07518799999999715
                },
                {
                    "name": "C5",
                    "midi": 72,
                    "time": 44.210543999999906,
                    "velocity": 0.5590551181102362,
                    "duration": 0.07518799999999715
                },
                {
                    "name": "E5",
                    "midi": 76,
                    "time": 45.1127999999999,
                    "velocity": 0.3543307086614173,
                    "duration": 0.5263160000000013
                },
                {
                    "name": "G5",
                    "midi": 79,
                    "time": 45.6391159999999,
                    "velocity": 0.3228346456692913,
                    "duration": 0.07518799999999715
                },
                {
                    "name": "F#5",
                    "midi": 78,
                    "time": 45.7143039999999,
                    "velocity": 0.3543307086614173,
                    "duration": 0.22556399999999854
                },
                {
                    "name": "A5",
                    "midi": 81,
                    "time": 45.9398679999999,
                    "velocity": 0.3228346456692913,
                    "duration": 0.07518799999999715
                },
                {
                    "name": "G5",
                    "midi": 79,
                    "time": 46.015055999999895,
                    "velocity": 0.3543307086614173,
                    "duration": 0.07518799999999715
                },
                {
                    "name": "D6",
                    "midi": 86,
                    "time": 46.31580799999989,
                    "velocity": 0.3779527559055118,
                    "duration": 0.07518799999999715
                },
                {
                    "name": "D6",
                    "midi": 86,
                    "time": 46.616559999999886,
                    "velocity": 0.3779527559055118,
                    "duration": 0.07518799999999715
                },
                {
                    "name": "D6",
                    "midi": 86,
                    "time": 46.91731199999988,
                    "velocity": 0.4094488188976378,
                    "duration": 0.1503760000000014
                },
                {
                    "name": "C6",
                    "midi": 84,
                    "time": 47.06768799999988,
                    "velocity": 0.3543307086614173,
                    "duration": 0.07518799999999715
                },
                {
                    "name": "C6",
                    "midi": 84,
                    "time": 47.21806399999988,
                    "velocity": 0.4094488188976378,
                    "duration": 0.1503760000000014
                },
                {
                    "name": "B5",
                    "midi": 83,
                    "time": 47.36843999999988,
                    "velocity": 0.3543307086614173,
                    "duration": 0.07518799999999715
                },
                {
                    "name": "B5",
                    "midi": 83,
                    "time": 47.51881599999987,
                    "velocity": 0.4094488188976378,
                    "duration": 0.1503760000000014
                },
                {
                    "name": "A5",
                    "midi": 81,
                    "time": 47.669191999999875,
                    "velocity": 0.3464566929133858,
                    "duration": 0.07518799999999715
                },
                {
                    "name": "A5",
                    "midi": 81,
                    "time": 47.81956799999987,
                    "velocity": 0.41732283464566927,
                    "duration": 0.07518799999999715
                },
                {
                    "name": "F#5",
                    "midi": 78,
                    "time": 48.120319999999865,
                    "velocity": 0.3937007874015748,
                    "duration": 0.07518799999999715
                },
                {
                    "name": "D5",
                    "midi": 74,
                    "time": 48.42107199999986,
                    "velocity": 0.3779527559055118,
                    "duration": 0.07518799999999715
                },
                {
                    "name": "B5",
                    "midi": 83,
                    "time": 49.02257599999986,
                    "velocity": 0.3543307086614173,
                    "duration": 0.07518799999999715
                },
                {
                    "name": "G5",
                    "midi": 79,
                    "time": 49.02257599999986,
                    "velocity": 0.3543307086614173,
                    "duration": 0.07518799999999715
                },
                {
                    "name": "B5",
                    "midi": 83,
                    "time": 49.323327999999854,
                    "velocity": 0.3543307086614173,
                    "duration": 0.07518799999999715
                },
                {
                    "name": "G5",
                    "midi": 79,
                    "time": 49.323327999999854,
                    "velocity": 0.3543307086614173,
                    "duration": 0.07518799999999715
                },
                {
                    "name": "B5",
                    "midi": 83,
                    "time": 49.62407999999985,
                    "velocity": 0.3937007874015748,
                    "duration": 0.07518799999999715
                },
                {
                    "name": "G5",
                    "midi": 79,
                    "time": 49.62407999999985,
                    "velocity": 0.3937007874015748,
                    "duration": 0.07518799999999715
                },
                {
                    "name": "B5",
                    "midi": 83,
                    "time": 49.924831999999846,
                    "velocity": 0.3543307086614173,
                    "duration": 0.07518799999999715
                },
                {
                    "name": "G5",
                    "midi": 79,
                    "time": 49.924831999999846,
                    "velocity": 0.3543307086614173,
                    "duration": 0.07518799999999715
                },
                {
                    "name": "B5",
                    "midi": 83,
                    "time": 50.22558399999984,
                    "velocity": 0.3543307086614173,
                    "duration": 0.07518799999999715
                },
                {
                    "name": "G5",
                    "midi": 79,
                    "time": 50.22558399999984,
                    "velocity": 0.3543307086614173,
                    "duration": 0.07518799999999715
                },
                {
                    "name": "B5",
                    "midi": 83,
                    "time": 50.52633599999984,
                    "velocity": 0.4566929133858268,
                    "duration": 0.3007520000000028
                },
                {
                    "name": "G5",
                    "midi": 79,
                    "time": 50.52633599999984,
                    "velocity": 0.4566929133858268,
                    "duration": 0.3007520000000028
                },
                {
                    "name": "C6",
                    "midi": 84,
                    "time": 50.82708799999984,
                    "velocity": 0.3937007874015748,
                    "duration": 0.3007520000000028
                },
                {
                    "name": "A5",
                    "midi": 81,
                    "time": 50.82708799999984,
                    "velocity": 0.3937007874015748,
                    "duration": 0.3007520000000028
                },
                {
                    "name": "D6",
                    "midi": 86,
                    "time": 51.12783999999984,
                    "velocity": 0.3937007874015748,
                    "duration": 0.3007520000000028
                },
                {
                    "name": "B5",
                    "midi": 83,
                    "time": 51.12783999999984,
                    "velocity": 0.3937007874015748,
                    "duration": 0.3007520000000028
                },
                {
                    "name": "C6",
                    "midi": 84,
                    "time": 51.428591999999846,
                    "velocity": 0.47244094488188976,
                    "duration": 0.1002506666666676
                },
                {
                    "name": "A5",
                    "midi": 81,
                    "time": 51.52884266666651,
                    "velocity": 0.4015748031496063,
                    "duration": 0.1002506666666676
                },
                {
                    "name": "E5",
                    "midi": 76,
                    "time": 51.62909333333318,
                    "velocity": 0.4015748031496063,
                    "duration": 0.1002506666666676
                },
                {
                    "name": "B5",
                    "midi": 83,
                    "time": 51.72934399999985,
                    "velocity": 0.4645669291338583,
                    "duration": 0.1002506666666676
                },
                {
                    "name": "G5",
                    "midi": 79,
                    "time": 51.829594666666516,
                    "velocity": 0.3937007874015748,
                    "duration": 0.1002506666666676
                },
                {
                    "name": "D5",
                    "midi": 74,
                    "time": 51.92984533333318,
                    "velocity": 0.4015748031496063,
                    "duration": 0.1002506666666676
                },
                {
                    "name": "A5",
                    "midi": 81,
                    "time": 52.03009599999985,
                    "velocity": 0.4645669291338583,
                    "duration": 0.1002506666666676
                },
                {
                    "name": "F#5",
                    "midi": 78,
                    "time": 52.13034666666652,
                    "velocity": 0.4094488188976378,
                    "duration": 0.1002506666666676
                },
                {
                    "name": "C5",
                    "midi": 72,
                    "time": 52.230597333333186,
                    "velocity": 0.4094488188976378,
                    "duration": 0.1002506666666676
                },
                {
                    "name": "B5",
                    "midi": 83,
                    "time": 52.63159999999986,
                    "velocity": 0.47244094488188976,
                    "duration": 0.07518799999999715
                },
                {
                    "name": "G5",
                    "midi": 79,
                    "time": 52.63159999999986,
                    "velocity": 0.4015748031496063,
                    "duration": 0.07518799999999715
                },
                {
                    "name": "B5",
                    "midi": 83,
                    "time": 52.93235199999985,
                    "velocity": 0.4645669291338583,
                    "duration": 0.07518799999999715
                },
                {
                    "name": "G5",
                    "midi": 79,
                    "time": 52.93235199999985,
                    "velocity": 0.3937007874015748,
                    "duration": 0.07518799999999715
                },
                {
                    "name": "B5",
                    "midi": 83,
                    "time": 53.23310399999985,
                    "velocity": 0.5354330708661418,
                    "duration": 0.07518799999999715
                },
                {
                    "name": "G5",
                    "midi": 79,
                    "time": 53.23310399999985,
                    "velocity": 0.44881889763779526,
                    "duration": 0.07518799999999715
                },
                {
                    "name": "B5",
                    "midi": 83,
                    "time": 53.533855999999844,
                    "velocity": 0.47244094488188976,
                    "duration": 0.07518799999999715
                },
                {
                    "name": "G5",
                    "midi": 79,
                    "time": 53.533855999999844,
                    "velocity": 0.4015748031496063,
                    "duration": 0.07518799999999715
                },
                {
                    "name": "B5",
                    "midi": 83,
                    "time": 53.83460799999984,
                    "velocity": 0.4645669291338583,
                    "duration": 0.07518799999999715
                },
                {
                    "name": "G5",
                    "midi": 79,
                    "time": 53.83460799999984,
                    "velocity": 0.3937007874015748,
                    "duration": 0.07518799999999715
                },
                {
                    "name": "B5",
                    "midi": 83,
                    "time": 54.135359999999835,
                    "velocity": 0.5826771653543307,
                    "duration": 0.3007520000000028
                },
                {
                    "name": "G5",
                    "midi": 79,
                    "time": 54.135359999999835,
                    "velocity": 0.4881889763779528,
                    "duration": 0.3007520000000028
                },
                {
                    "name": "C6",
                    "midi": 84,
                    "time": 54.43611199999984,
                    "velocity": 0.5590551181102362,
                    "duration": 0.3007520000000028
                },
                {
                    "name": "A5",
                    "midi": 81,
                    "time": 54.43611199999984,
                    "velocity": 0.47244094488188976,
                    "duration": 0.3007520000000028
                },
                {
                    "name": "D6",
                    "midi": 86,
                    "time": 54.73686399999984,
                    "velocity": 0.5905511811023622,
                    "duration": 0.3007520000000028
                },
                {
                    "name": "B5",
                    "midi": 83,
                    "time": 54.73686399999984,
                    "velocity": 0.49606299212598426,
                    "duration": 0.3007520000000028
                },
                {
                    "name": "C6",
                    "midi": 84,
                    "time": 55.03761599999984,
                    "velocity": 0.5905511811023622,
                    "duration": 0.1002506666666676
                },
                {
                    "name": "A5",
                    "midi": 81,
                    "time": 55.13786666666651,
                    "velocity": 0.47244094488188976,
                    "duration": 0.1002506666666676
                },
                {
                    "name": "E5",
                    "midi": 76,
                    "time": 55.23811733333318,
                    "velocity": 0.47244094488188976,
                    "duration": 0.1002506666666676
                },
                {
                    "name": "B5",
                    "midi": 83,
                    "time": 55.338367999999846,
                    "velocity": 0.5669291338582677,
                    "duration": 0.1002506666666676
                },
                {
                    "name": "G5",
                    "midi": 79,
                    "time": 55.438618666666514,
                    "velocity": 0.44881889763779526,
                    "duration": 0.1002506666666676
                },
                {
                    "name": "D5",
                    "midi": 74,
                    "time": 55.53886933333318,
                    "velocity": 0.44881889763779526,
                    "duration": 0.1002506666666676
                },
                {
                    "name": "A5",
                    "midi": 81,
                    "time": 55.63911999999985,
                    "velocity": 0.5511811023622047,
                    "duration": 0.1002506666666676
                },
                {
                    "name": "F#5",
                    "midi": 78,
                    "time": 55.73937066666652,
                    "velocity": 0.4566929133858268,
                    "duration": 0.1002506666666676
                },
                {
                    "name": "C5",
                    "midi": 72,
                    "time": 55.839621333333184,
                    "velocity": 0.4566929133858268,
                    "duration": 0.1002506666666676
                },
                {
                    "name": "B4",
                    "midi": 71,
                    "time": 55.93987199999985,
                    "velocity": 0.5511811023622047,
                    "duration": 1.5037599999999998
                },
                {
                    "name": "G5",
                    "midi": 79,
                    "time": 55.93987199999985,
                    "velocity": 0.5511811023622047,
                    "duration": 1.8045120000000026
                },
                {
                    "name": "G5",
                    "midi": 79,
                    "time": 57.744383999999854,
                    "velocity": 0.4251968503937008,
                    "duration": 0.5263160000000013
                },
                {
                    "name": "A5",
                    "midi": 81,
                    "time": 58.270699999999856,
                    "velocity": 0.3858267716535433,
                    "duration": 0.07518799999999715
                },
                {
                    "name": "F5",
                    "midi": 77,
                    "time": 58.34588799999985,
                    "velocity": 0.4330708661417323,
                    "duration": 0.22556399999999854
                },
                {
                    "name": "G5",
                    "midi": 79,
                    "time": 58.57145199999985,
                    "velocity": 0.3937007874015748,
                    "duration": 0.07518799999999715
                },
                {
                    "name": "E5",
                    "midi": 76,
                    "time": 58.64663999999985,
                    "velocity": 0.4251968503937008,
                    "duration": 0.5263160000000013
                },
                {
                    "name": "F5",
                    "midi": 77,
                    "time": 59.17295599999985,
                    "velocity": 0.3858267716535433,
                    "duration": 0.07518799999999715
                },
                {
                    "name": "D5",
                    "midi": 74,
                    "time": 59.24814399999985,
                    "velocity": 0.4330708661417323,
                    "duration": 0.22556399999999854
                },
                {
                    "name": "E5",
                    "midi": 76,
                    "time": 59.473707999999846,
                    "velocity": 0.3937007874015748,
                    "duration": 0.07518799999999715
                },
                {
                    "name": "C#5",
                    "midi": 73,
                    "time": 59.54889599999984,
                    "velocity": 0.4330708661417323,
                    "duration": 0.3007520000000028
                },
                {
                    "name": "A#4",
                    "midi": 70,
                    "time": 59.849647999999846,
                    "velocity": 0.4330708661417323,
                    "duration": 0.3007520000000028
                },
                {
                    "name": "C#5",
                    "midi": 73,
                    "time": 59.849647999999846,
                    "velocity": 0.4330708661417323,
                    "duration": 0.3007520000000028
                },
                {
                    "name": "A4",
                    "midi": 69,
                    "time": 60.15039999999985,
                    "velocity": 0.4330708661417323,
                    "duration": 0.3007520000000028
                },
                {
                    "name": "D5",
                    "midi": 74,
                    "time": 60.15039999999985,
                    "velocity": 0.4330708661417323,
                    "duration": 0.3007520000000028
                },
                {
                    "name": "G4",
                    "midi": 67,
                    "time": 60.45115199999985,
                    "velocity": 0.4330708661417323,
                    "duration": 0.3007520000000028
                },
                {
                    "name": "E5",
                    "midi": 76,
                    "time": 60.45115199999985,
                    "velocity": 0.4330708661417323,
                    "duration": 0.3007520000000028
                },
                {
                    "name": "F5",
                    "midi": 77,
                    "time": 60.751903999999854,
                    "velocity": 0.4330708661417323,
                    "duration": 0.22556399999999854
                },
                {
                    "name": "F4",
                    "midi": 65,
                    "time": 60.751903999999854,
                    "velocity": 0.4330708661417323,
                    "duration": 0.3007519999999957
                },
                {
                    "name": "G5",
                    "midi": 79,
                    "time": 60.97746799999985,
                    "velocity": 0.3543307086614173,
                    "duration": 0.07518799999999715
                },
                {
                    "name": "E5",
                    "midi": 76,
                    "time": 61.05265599999985,
                    "velocity": 0.4330708661417323,
                    "duration": 0.22556399999999854
                },
                {
                    "name": "F5",
                    "midi": 77,
                    "time": 61.27821999999985,
                    "velocity": 0.3543307086614173,
                    "duration": 0.07518799999999715
                },
                {
                    "name": "D5",
                    "midi": 74,
                    "time": 61.353407999999845,
                    "velocity": 0.47244094488188976,
                    "duration": 0.5263160000000013
                },
                {
                    "name": "E5",
                    "midi": 76,
                    "time": 61.87972399999985,
                    "velocity": 0.3858267716535433,
                    "duration": 0.07518799999999715
                },
                {
                    "name": "C5",
                    "midi": 72,
                    "time": 61.954911999999844,
                    "velocity": 0.4409448818897638,
                    "duration": 0.22556399999999854
                },
                {
                    "name": "D5",
                    "midi": 74,
                    "time": 62.18047599999984,
                    "velocity": 0.3700787401574803,
                    "duration": 0.07518799999999715
                },
                {
                    "name": "G4",
                    "midi": 67,
                    "time": 62.25566399999984,
                    "velocity": 0.4330708661417323,
                    "duration": 0.3007519999999957
                },
                {
                    "name": "B4",
                    "midi": 71,
                    "time": 62.25566399999984,
                    "velocity": 0.4330708661417323,
                    "duration": 0.22556399999999854
                },
                {
                    "name": "D5",
                    "midi": 74,
                    "time": 62.48122799999984,
                    "velocity": 0.33858267716535434,
                    "duration": 0.07518799999999715
                },
                {
                    "name": "A4",
                    "midi": 69,
                    "time": 62.556415999999835,
                    "velocity": 0.4094488188976378,
                    "duration": 0.3007519999999957
                },
                {
                    "name": "C5",
                    "midi": 72,
                    "time": 62.556415999999835,
                    "velocity": 0.4094488188976378,
                    "duration": 0.22556399999999854
                },
                {
                    "name": "E5",
                    "midi": 76,
                    "time": 62.781979999999834,
                    "velocity": 0.28346456692913385,
                    "duration": 0.07518799999999715
                },
                {
                    "name": "B4",
                    "midi": 71,
                    "time": 62.85716799999983,
                    "velocity": 0.3464566929133858,
                    "duration": 0.3007519999999957
                },
                {
                    "name": "D5",
                    "midi": 74,
                    "time": 62.85716799999983,
                    "velocity": 0.3464566929133858,
                    "duration": 0.22556399999999854
                },
                {
                    "name": "F5",
                    "midi": 77,
                    "time": 63.08273199999983,
                    "velocity": 0.33070866141732286,
                    "duration": 0.07518799999999715
                },
                {
                    "name": "C5",
                    "midi": 72,
                    "time": 63.15791999999983,
                    "velocity": 0.31496062992125984,
                    "duration": 0.6015039999999985
                },
                {
                    "name": "E5",
                    "midi": 76,
                    "time": 63.15791999999983,
                    "velocity": 0.3779527559055118,
                    "duration": 0.5263160000000013
                },
                {
                    "name": "F5",
                    "midi": 77,
                    "time": 63.68423599999983,
                    "velocity": 0.3228346456692913,
                    "duration": 0.07518799999999715
                },
                {
                    "name": "B4",
                    "midi": 71,
                    "time": 63.759423999999825,
                    "velocity": 0.31496062992125984,
                    "duration": 0.3007520000000028
                },
                {
                    "name": "D5",
                    "midi": 74,
                    "time": 63.759423999999825,
                    "velocity": 0.3543307086614173,
                    "duration": 0.22556399999999854
                },
                {
                    "name": "E5",
                    "midi": 76,
                    "time": 63.984987999999824,
                    "velocity": 0.3228346456692913,
                    "duration": 0.07518800000000425
                },
                {
                    "name": "C5",
                    "midi": 72,
                    "time": 64.06017599999983,
                    "velocity": 0.3543307086614173,
                    "duration": 0.07518799999999715
                },
                {
                    "name": "G5",
                    "midi": 79,
                    "time": 64.36092799999983,
                    "velocity": 0.33858267716535434,
                    "duration": 0.07518799999999715
                },
                {
                    "name": "G5",
                    "midi": 79,
                    "time": 64.66167999999983,
                    "velocity": 0.33858267716535434,
                    "duration": 0.07518799999999715
                },
                {
                    "name": "G5",
                    "midi": 79,
                    "time": 64.96243199999984,
                    "velocity": 0.3543307086614173,
                    "duration": 0.1503759999999943
                },
                {
                    "name": "F5",
                    "midi": 77,
                    "time": 65.11280799999983,
                    "velocity": 0.3228346456692913,
                    "duration": 0.07518799999999715
                },
                {
                    "name": "F5",
                    "midi": 77,
                    "time": 65.26318399999982,
                    "velocity": 0.3543307086614173,
                    "duration": 0.1503759999999943
                },
                {
                    "name": "E5",
                    "midi": 76,
                    "time": 65.41355999999982,
                    "velocity": 0.3228346456692913,
                    "duration": 0.07518799999999715
                },
                {
                    "name": "E5",
                    "midi": 76,
                    "time": 65.56393599999981,
                    "velocity": 0.3543307086614173,
                    "duration": 0.1503759999999943
                },
                {
                    "name": "D5",
                    "midi": 74,
                    "time": 65.71431199999981,
                    "velocity": 0.31496062992125984,
                    "duration": 0.07518799999999715
                },
                {
                    "name": "D5",
                    "midi": 74,
                    "time": 65.8646879999998,
                    "velocity": 0.3543307086614173,
                    "duration": 0.07518799999999715
                },
                {
                    "name": "B4",
                    "midi": 71,
                    "time": 66.1654399999998,
                    "velocity": 0.3228346456692913,
                    "duration": 0.07518799999999715
                },
                {
                    "name": "G4",
                    "midi": 67,
                    "time": 66.46619199999981,
                    "velocity": 0.3228346456692913,
                    "duration": 0.07518799999999715
                },
                {
                    "name": "E5",
                    "midi": 76,
                    "time": 66.76694399999981,
                    "velocity": 0.5669291338582677,
                    "duration": 0.5263159999999942
                },
                {
                    "name": "F5",
                    "midi": 77,
                    "time": 67.2932599999998,
                    "velocity": 0.4645669291338583,
                    "duration": 0.07518799999999715
                },
                {
                    "name": "D5",
                    "midi": 74,
                    "time": 67.3684479999998,
                    "velocity": 0.5433070866141733,
                    "duration": 0.22556400000000565
                },
                {
                    "name": "E5",
                    "midi": 76,
                    "time": 67.59401199999981,
                    "velocity": 0.5039370078740157,
                    "duration": 0.07518799999999715
                },
                {
                    "name": "C5",
                    "midi": 72,
                    "time": 67.6691999999998,
                    "velocity": 0.5511811023622047,
                    "duration": 0.07518799999999715
                },
                {
                    "name": "C6",
                    "midi": 84,
                    "time": 67.96995199999981,
                    "velocity": 0.5511811023622047,
                    "duration": 0.07518799999999715
                },
                {
                    "name": "C6",
                    "midi": 84,
                    "time": 68.27070399999981,
                    "velocity": 0.5511811023622047,
                    "duration": 0.07518799999999715
                },
                {
                    "name": "G#5",
                    "midi": 80,
                    "time": 68.57145599999981,
                    "velocity": 0.5275590551181102,
                    "duration": 0.07518799999999715
                },
                {
                    "name": "A5",
                    "midi": 81,
                    "time": 68.64664399999981,
                    "velocity": 0.4645669291338583,
                    "duration": 0.07518799999999715
                },
                {
                    "name": "E5",
                    "midi": 76,
                    "time": 68.8722079999998,
                    "velocity": 0.5354330708661418,
                    "duration": 0.07518799999999715
                },
                {
                    "name": "F5",
                    "midi": 77,
                    "time": 68.9473959999998,
                    "velocity": 0.4645669291338583,
                    "duration": 0.07518799999999715
                },
                {
                    "name": "D5",
                    "midi": 74,
                    "time": 69.17295999999979,
                    "velocity": 0.5511811023622047,
                    "duration": 0.07518799999999715
                },
                {
                    "name": "B4",
                    "midi": 71,
                    "time": 69.24814799999979,
                    "velocity": 0.4566929133858268,
                    "duration": 0.07518799999999715
                },
                {
                    "name": "C5",
                    "midi": 72,
                    "time": 69.47371199999978,
                    "velocity": 0.5590551181102362,
                    "duration": 0.07518799999999715
                },
                {
                    "name": "E5",
                    "midi": 76,
                    "time": 70.37596799999977,
                    "velocity": 0.3543307086614173,
                    "duration": 0.5263159999999942
                },
                {
                    "name": "G5",
                    "midi": 79,
                    "time": 70.90228399999977,
                    "velocity": 0.3228346456692913,
                    "duration": 0.07518799999999715
                },
                {
                    "name": "F#5",
                    "midi": 78,
                    "time": 70.97747199999976,
                    "velocity": 0.3543307086614173,
                    "duration": 0.22556400000000565
                },
                {
                    "name": "A5",
                    "midi": 81,
                    "time": 71.20303599999977,
                    "velocity": 0.3228346456692913,
                    "duration": 0.07518799999999715
                },
                {
                    "name": "G5",
                    "midi": 79,
                    "time": 71.27822399999977,
                    "velocity": 0.3543307086614173,
                    "duration": 0.07518799999999715
                },
                {
                    "name": "D6",
                    "midi": 86,
                    "time": 71.57897599999977,
                    "velocity": 0.3779527559055118,
                    "duration": 0.07518799999999715
                },
                {
                    "name": "D6",
                    "midi": 86,
                    "time": 71.87972799999977,
                    "velocity": 0.3779527559055118,
                    "duration": 0.07518799999999715
                },
                {
                    "name": "D6",
                    "midi": 86,
                    "time": 72.18047999999978,
                    "velocity": 0.4094488188976378,
                    "duration": 0.1503759999999943
                },
                {
                    "name": "C6",
                    "midi": 84,
                    "time": 72.33085599999977,
                    "velocity": 0.3543307086614173,
                    "duration": 0.07518799999999715
                },
                {
                    "name": "C6",
                    "midi": 84,
                    "time": 72.48123199999976,
                    "velocity": 0.4094488188976378,
                    "duration": 0.1503759999999943
                },
                {
                    "name": "B5",
                    "midi": 83,
                    "time": 72.63160799999976,
                    "velocity": 0.3543307086614173,
                    "duration": 0.07518799999999715
                },
                {
                    "name": "B5",
                    "midi": 83,
                    "time": 72.78198399999975,
                    "velocity": 0.4094488188976378,
                    "duration": 0.1503759999999943
                },
                {
                    "name": "A5",
                    "midi": 81,
                    "time": 72.93235999999975,
                    "velocity": 0.3464566929133858,
                    "duration": 0.07518799999999715
                },
                {
                    "name": "A5",
                    "midi": 81,
                    "time": 73.08273599999974,
                    "velocity": 0.41732283464566927,
                    "duration": 0.07518799999999715
                },
                {
                    "name": "F#5",
                    "midi": 78,
                    "time": 73.38348799999974,
                    "velocity": 0.3937007874015748,
                    "duration": 0.07518799999999715
                },
                {
                    "name": "D5",
                    "midi": 74,
                    "time": 73.68423999999975,
                    "velocity": 0.3779527559055118,
                    "duration": 0.07518799999999715
                },
                {
                    "name": "B5",
                    "midi": 83,
                    "time": 74.28574399999974,
                    "velocity": 0.3543307086614173,
                    "duration": 0.07518799999999715
                },
                {
                    "name": "G5",
                    "midi": 79,
                    "time": 74.28574399999974,
                    "velocity": 0.3543307086614173,
                    "duration": 0.07518799999999715
                },
                {
                    "name": "B5",
                    "midi": 83,
                    "time": 74.58649599999974,
                    "velocity": 0.3543307086614173,
                    "duration": 0.07518799999999715
                },
                {
                    "name": "G5",
                    "midi": 79,
                    "time": 74.58649599999974,
                    "velocity": 0.3543307086614173,
                    "duration": 0.07518799999999715
                },
                {
                    "name": "B5",
                    "midi": 83,
                    "time": 74.88724799999974,
                    "velocity": 0.3937007874015748,
                    "duration": 0.07518799999999715
                },
                {
                    "name": "G5",
                    "midi": 79,
                    "time": 74.88724799999974,
                    "velocity": 0.3937007874015748,
                    "duration": 0.07518799999999715
                },
                {
                    "name": "B5",
                    "midi": 83,
                    "time": 75.18799999999975,
                    "velocity": 0.3543307086614173,
                    "duration": 0.07518799999999715
                },
                {
                    "name": "G5",
                    "midi": 79,
                    "time": 75.18799999999975,
                    "velocity": 0.3543307086614173,
                    "duration": 0.07518799999999715
                },
                {
                    "name": "B5",
                    "midi": 83,
                    "time": 75.48875199999975,
                    "velocity": 0.3543307086614173,
                    "duration": 0.07518799999999715
                },
                {
                    "name": "G5",
                    "midi": 79,
                    "time": 75.48875199999975,
                    "velocity": 0.3543307086614173,
                    "duration": 0.07518799999999715
                },
                {
                    "name": "B5",
                    "midi": 83,
                    "time": 75.78950399999975,
                    "velocity": 0.4566929133858268,
                    "duration": 0.3007520000000028
                },
                {
                    "name": "G5",
                    "midi": 79,
                    "time": 75.78950399999975,
                    "velocity": 0.4566929133858268,
                    "duration": 0.3007520000000028
                },
                {
                    "name": "C6",
                    "midi": 84,
                    "time": 76.09025599999975,
                    "velocity": 0.3937007874015748,
                    "duration": 0.3007520000000028
                },
                {
                    "name": "A5",
                    "midi": 81,
                    "time": 76.09025599999975,
                    "velocity": 0.3937007874015748,
                    "duration": 0.3007520000000028
                },
                {
                    "name": "D6",
                    "midi": 86,
                    "time": 76.39100799999976,
                    "velocity": 0.3937007874015748,
                    "duration": 0.3007520000000028
                },
                {
                    "name": "B5",
                    "midi": 83,
                    "time": 76.39100799999976,
                    "velocity": 0.3937007874015748,
                    "duration": 0.3007520000000028
                },
                {
                    "name": "C6",
                    "midi": 84,
                    "time": 76.69175999999976,
                    "velocity": 0.47244094488188976,
                    "duration": 0.1002506666666676
                },
                {
                    "name": "A5",
                    "midi": 81,
                    "time": 76.79201066666643,
                    "velocity": 0.4015748031496063,
                    "duration": 0.1002506666666676
                },
                {
                    "name": "E5",
                    "midi": 76,
                    "time": 76.8922613333331,
                    "velocity": 0.4015748031496063,
                    "duration": 0.1002506666666676
                },
                {
                    "name": "B5",
                    "midi": 83,
                    "time": 76.99251199999976,
                    "velocity": 0.4645669291338583,
                    "duration": 0.1002506666666676
                },
                {
                    "name": "G5",
                    "midi": 79,
                    "time": 77.09276266666643,
                    "velocity": 0.3937007874015748,
                    "duration": 0.1002506666666676
                },
                {
                    "name": "D5",
                    "midi": 74,
                    "time": 77.1930133333331,
                    "velocity": 0.4015748031496063,
                    "duration": 0.1002506666666676
                },
                {
                    "name": "A5",
                    "midi": 81,
                    "time": 77.29326399999977,
                    "velocity": 0.4645669291338583,
                    "duration": 0.1002506666666676
                },
                {
                    "name": "F#5",
                    "midi": 78,
                    "time": 77.39351466666643,
                    "velocity": 0.4094488188976378,
                    "duration": 0.1002506666666676
                },
                {
                    "name": "C5",
                    "midi": 72,
                    "time": 77.4937653333331,
                    "velocity": 0.4094488188976378,
                    "duration": 0.1002506666666676
                },
                {
                    "name": "B5",
                    "midi": 83,
                    "time": 77.89476799999977,
                    "velocity": 0.47244094488188976,
                    "duration": 0.07518799999999715
                },
                {
                    "name": "G5",
                    "midi": 79,
                    "time": 77.89476799999977,
                    "velocity": 0.4015748031496063,
                    "duration": 0.07518799999999715
                },
                {
                    "name": "B5",
                    "midi": 83,
                    "time": 78.19551999999977,
                    "velocity": 0.4645669291338583,
                    "duration": 0.07518799999999715
                },
                {
                    "name": "G5",
                    "midi": 79,
                    "time": 78.19551999999977,
                    "velocity": 0.3937007874015748,
                    "duration": 0.07518799999999715
                },
                {
                    "name": "G5",
                    "midi": 79,
                    "time": 78.49627199999978,
                    "velocity": 0.44881889763779526,
                    "duration": 0.07518799999999715
                },
                {
                    "name": "B5",
                    "midi": 83,
                    "time": 78.49627199999978,
                    "velocity": 0.5354330708661418,
                    "duration": 0.07518799999999715
                },
                {
                    "name": "B5",
                    "midi": 83,
                    "time": 78.79702399999978,
                    "velocity": 0.47244094488188976,
                    "duration": 0.07518799999999715
                },
                {
                    "name": "G5",
                    "midi": 79,
                    "time": 78.79702399999978,
                    "velocity": 0.4015748031496063,
                    "duration": 0.07518799999999715
                },
                {
                    "name": "G5",
                    "midi": 79,
                    "time": 79.09777599999978,
                    "velocity": 0.3937007874015748,
                    "duration": 0.07518799999999715
                },
                {
                    "name": "B5",
                    "midi": 83,
                    "time": 79.09777599999978,
                    "velocity": 0.4645669291338583,
                    "duration": 0.07518799999999715
                },
                {
                    "name": "B5",
                    "midi": 83,
                    "time": 79.39852799999979,
                    "velocity": 0.5826771653543307,
                    "duration": 0.3007520000000028
                },
                {
                    "name": "G5",
                    "midi": 79,
                    "time": 79.39852799999979,
                    "velocity": 0.4881889763779528,
                    "duration": 0.3007520000000028
                },
                {
                    "name": "A5",
                    "midi": 81,
                    "time": 79.69927999999979,
                    "velocity": 0.47244094488188976,
                    "duration": 0.3007520000000028
                },
                {
                    "name": "C6",
                    "midi": 84,
                    "time": 79.69927999999979,
                    "velocity": 0.5590551181102362,
                    "duration": 0.3007520000000028
                },
                {
                    "name": "D6",
                    "midi": 86,
                    "time": 80.00003199999979,
                    "velocity": 0.5905511811023622,
                    "duration": 0.3007520000000028
                },
                {
                    "name": "B5",
                    "midi": 83,
                    "time": 80.00003199999979,
                    "velocity": 0.49606299212598426,
                    "duration": 0.3007520000000028
                },
                {
                    "name": "C6",
                    "midi": 84,
                    "time": 80.3007839999998,
                    "velocity": 0.5905511811023622,
                    "duration": 0.1002506666666676
                },
                {
                    "name": "A5",
                    "midi": 81,
                    "time": 80.40103466666646,
                    "velocity": 0.47244094488188976,
                    "duration": 0.1002506666666676
                },
                {
                    "name": "E5",
                    "midi": 76,
                    "time": 80.50128533333313,
                    "velocity": 0.47244094488188976,
                    "duration": 0.1002506666666676
                },
                {
                    "name": "B5",
                    "midi": 83,
                    "time": 80.6015359999998,
                    "velocity": 0.5669291338582677,
                    "duration": 0.1002506666666676
                },
                {
                    "name": "G5",
                    "midi": 79,
                    "time": 80.70178666666646,
                    "velocity": 0.44881889763779526,
                    "duration": 0.1002506666666676
                },
                {
                    "name": "D5",
                    "midi": 74,
                    "time": 80.80203733333313,
                    "velocity": 0.44881889763779526,
                    "duration": 0.1002506666666676
                },
                {
                    "name": "A5",
                    "midi": 81,
                    "time": 80.9022879999998,
                    "velocity": 0.5511811023622047,
                    "duration": 0.1002506666666676
                },
                {
                    "name": "F#5",
                    "midi": 78,
                    "time": 81.00253866666647,
                    "velocity": 0.4566929133858268,
                    "duration": 0.1002506666666676
                },
                {
                    "name": "C5",
                    "midi": 72,
                    "time": 81.10278933333313,
                    "velocity": 0.4566929133858268,
                    "duration": 0.1002506666666676
                },
                {
                    "name": "G5",
                    "midi": 79,
                    "time": 81.2030399999998,
                    "velocity": 0.5511811023622047,
                    "duration": 1.8045120000000026
                },
                {
                    "name": "B4",
                    "midi": 71,
                    "time": 81.2030399999998,
                    "velocity": 0.5511811023622047,
                    "duration": 1.5037599999999998
                },
                {
                    "name": "G5",
                    "midi": 79,
                    "time": 83.0075519999998,
                    "velocity": 0.4251968503937008,
                    "duration": 0.5263159999999942
                },
                {
                    "name": "A5",
                    "midi": 81,
                    "time": 83.5338679999998,
                    "velocity": 0.3858267716535433,
                    "duration": 0.07518799999999715
                },
                {
                    "name": "F5",
                    "midi": 77,
                    "time": 83.6090559999998,
                    "velocity": 0.4330708661417323,
                    "duration": 0.22556400000000565
                },
                {
                    "name": "G5",
                    "midi": 79,
                    "time": 83.8346199999998,
                    "velocity": 0.3937007874015748,
                    "duration": 0.07518799999999715
                },
                {
                    "name": "E5",
                    "midi": 76,
                    "time": 83.9098079999998,
                    "velocity": 0.4251968503937008,
                    "duration": 0.5263159999999942
                },
                {
                    "name": "F5",
                    "midi": 77,
                    "time": 84.4361239999998,
                    "velocity": 0.3858267716535433,
                    "duration": 0.07518799999999715
                },
                {
                    "name": "D5",
                    "midi": 74,
                    "time": 84.51131199999979,
                    "velocity": 0.4330708661417323,
                    "duration": 0.22556400000000565
                },
                {
                    "name": "E5",
                    "midi": 76,
                    "time": 84.7368759999998,
                    "velocity": 0.3937007874015748,
                    "duration": 0.07518799999999715
                },
                {
                    "name": "C#5",
                    "midi": 73,
                    "time": 84.8120639999998,
                    "velocity": 0.4330708661417323,
                    "duration": 0.3007520000000028
                },
                {
                    "name": "A#4",
                    "midi": 70,
                    "time": 85.1128159999998,
                    "velocity": 0.4330708661417323,
                    "duration": 0.3007520000000028
                },
                {
                    "name": "C#5",
                    "midi": 73,
                    "time": 85.1128159999998,
                    "velocity": 0.4330708661417323,
                    "duration": 0.3007520000000028
                },
                {
                    "name": "D5",
                    "midi": 74,
                    "time": 85.4135679999998,
                    "velocity": 0.4330708661417323,
                    "duration": 0.3007520000000028
                },
                {
                    "name": "A4",
                    "midi": 69,
                    "time": 85.4135679999998,
                    "velocity": 0.4330708661417323,
                    "duration": 0.3007520000000028
                },
                {
                    "name": "G4",
                    "midi": 67,
                    "time": 85.7143199999998,
                    "velocity": 0.4330708661417323,
                    "duration": 0.3007520000000028
                },
                {
                    "name": "E5",
                    "midi": 76,
                    "time": 85.7143199999998,
                    "velocity": 0.4330708661417323,
                    "duration": 0.3007520000000028
                },
                {
                    "name": "F4",
                    "midi": 65,
                    "time": 86.0150719999998,
                    "velocity": 0.4330708661417323,
                    "duration": 0.3007520000000028
                },
                {
                    "name": "F5",
                    "midi": 77,
                    "time": 86.0150719999998,
                    "velocity": 0.4330708661417323,
                    "duration": 0.22556400000000565
                },
                {
                    "name": "G5",
                    "midi": 79,
                    "time": 86.24063599999981,
                    "velocity": 0.3543307086614173,
                    "duration": 0.07518799999999715
                },
                {
                    "name": "E5",
                    "midi": 76,
                    "time": 86.31582399999981,
                    "velocity": 0.4330708661417323,
                    "duration": 0.22556400000000565
                },
                {
                    "name": "F5",
                    "midi": 77,
                    "time": 86.54138799999981,
                    "velocity": 0.3543307086614173,
                    "duration": 0.07518799999999715
                },
                {
                    "name": "D5",
                    "midi": 74,
                    "time": 86.61657599999981,
                    "velocity": 0.47244094488188976,
                    "duration": 0.5263159999999942
                },
                {
                    "name": "E5",
                    "midi": 76,
                    "time": 87.1428919999998,
                    "velocity": 0.3858267716535433,
                    "duration": 0.07518799999999715
                },
                {
                    "name": "C5",
                    "midi": 72,
                    "time": 87.2180799999998,
                    "velocity": 0.4409448818897638,
                    "duration": 0.22556400000000565
                },
                {
                    "name": "D5",
                    "midi": 74,
                    "time": 87.44364399999981,
                    "velocity": 0.3700787401574803,
                    "duration": 0.07518799999999715
                },
                {
                    "name": "G4",
                    "midi": 67,
                    "time": 87.5188319999998,
                    "velocity": 0.4330708661417323,
                    "duration": 0.3007520000000028
                },
                {
                    "name": "B4",
                    "midi": 71,
                    "time": 87.5188319999998,
                    "velocity": 0.4330708661417323,
                    "duration": 0.22556400000000565
                },
                {
                    "name": "D5",
                    "midi": 74,
                    "time": 87.74439599999981,
                    "velocity": 0.33858267716535434,
                    "duration": 0.07518799999999715
                },
                {
                    "name": "A4",
                    "midi": 69,
                    "time": 87.81958399999981,
                    "velocity": 0.4094488188976378,
                    "duration": 0.3007520000000028
                },
                {
                    "name": "C5",
                    "midi": 72,
                    "time": 87.81958399999981,
                    "velocity": 0.4094488188976378,
                    "duration": 0.22556400000000565
                },
                {
                    "name": "E5",
                    "midi": 76,
                    "time": 88.04514799999981,
                    "velocity": 0.28346456692913385,
                    "duration": 0.07518799999999715
                },
                {
                    "name": "B4",
                    "midi": 71,
                    "time": 88.12033599999981,
                    "velocity": 0.3464566929133858,
                    "duration": 0.3007520000000028
                },
                {
                    "name": "D5",
                    "midi": 74,
                    "time": 88.12033599999981,
                    "velocity": 0.3464566929133858,
                    "duration": 0.22556400000000565
                },
                {
                    "name": "F5",
                    "midi": 77,
                    "time": 88.34589999999982,
                    "velocity": 0.33070866141732286,
                    "duration": 0.07518799999999715
                },
                {
                    "name": "C5",
                    "midi": 72,
                    "time": 88.42108799999981,
                    "velocity": 0.31496062992125984,
                    "duration": 0.6015039999999914
                },
                {
                    "name": "E5",
                    "midi": 76,
                    "time": 88.42108799999981,
                    "velocity": 0.3779527559055118,
                    "duration": 0.5263159999999942
                },
                {
                    "name": "F5",
                    "midi": 77,
                    "time": 88.9474039999998,
                    "velocity": 0.3228346456692913,
                    "duration": 0.07518799999999715
                },
                {
                    "name": "B4",
                    "midi": 71,
                    "time": 89.0225919999998,
                    "velocity": 0.31496062992125984,
                    "duration": 0.3007520000000028
                },
                {
                    "name": "D5",
                    "midi": 74,
                    "time": 89.0225919999998,
                    "velocity": 0.3543307086614173,
                    "duration": 0.22556400000000565
                },
                {
                    "name": "E5",
                    "midi": 76,
                    "time": 89.24815599999981,
                    "velocity": 0.3228346456692913,
                    "duration": 0.07518799999999715
                },
                {
                    "name": "C5",
                    "midi": 72,
                    "time": 89.3233439999998,
                    "velocity": 0.3543307086614173,
                    "duration": 0.07518799999999715
                },
                {
                    "name": "G5",
                    "midi": 79,
                    "time": 89.62409599999981,
                    "velocity": 0.33858267716535434,
                    "duration": 0.07518799999999715
                },
                {
                    "name": "G5",
                    "midi": 79,
                    "time": 89.92484799999981,
                    "velocity": 0.33858267716535434,
                    "duration": 0.07518799999999715
                },
                {
                    "name": "G5",
                    "midi": 79,
                    "time": 90.22559999999982,
                    "velocity": 0.3543307086614173,
                    "duration": 0.1503759999999943
                },
                {
                    "name": "F5",
                    "midi": 77,
                    "time": 90.37597599999981,
                    "velocity": 0.3228346456692913,
                    "duration": 0.07518799999999715
                },
                {
                    "name": "F5",
                    "midi": 77,
                    "time": 90.5263519999998,
                    "velocity": 0.3543307086614173,
                    "duration": 0.1503759999999943
                },
                {
                    "name": "E5",
                    "midi": 76,
                    "time": 90.6767279999998,
                    "velocity": 0.3228346456692913,
                    "duration": 0.07518799999999715
                },
                {
                    "name": "E5",
                    "midi": 76,
                    "time": 90.82710399999979,
                    "velocity": 0.3543307086614173,
                    "duration": 0.1503759999999943
                },
                {
                    "name": "D5",
                    "midi": 74,
                    "time": 90.97747999999979,
                    "velocity": 0.31496062992125984,
                    "duration": 0.07518799999999715
                },
                {
                    "name": "D5",
                    "midi": 74,
                    "time": 91.12785599999978,
                    "velocity": 0.3543307086614173,
                    "duration": 0.07518799999999715
                },
                {
                    "name": "B4",
                    "midi": 71,
                    "time": 91.42860799999978,
                    "velocity": 0.3228346456692913,
                    "duration": 0.07518799999999715
                },
                {
                    "name": "G4",
                    "midi": 67,
                    "time": 91.72935999999979,
                    "velocity": 0.3228346456692913,
                    "duration": 0.07518799999999715
                },
                {
                    "name": "E5",
                    "midi": 76,
                    "time": 92.03011199999979,
                    "velocity": 0.5669291338582677,
                    "duration": 0.5263159999999942
                },
                {
                    "name": "F5",
                    "midi": 77,
                    "time": 92.55642799999978,
                    "velocity": 0.4645669291338583,
                    "duration": 0.07518799999999715
                },
                {
                    "name": "D5",
                    "midi": 74,
                    "time": 92.63161599999978,
                    "velocity": 0.5433070866141733,
                    "duration": 0.22556400000000565
                },
                {
                    "name": "E5",
                    "midi": 76,
                    "time": 92.85717999999979,
                    "velocity": 0.5039370078740157,
                    "duration": 0.07518799999999715
                },
                {
                    "name": "C5",
                    "midi": 72,
                    "time": 92.93236799999978,
                    "velocity": 0.5511811023622047,
                    "duration": 0.07518799999999715
                },
                {
                    "name": "C6",
                    "midi": 84,
                    "time": 93.23311999999979,
                    "velocity": 0.5511811023622047,
                    "duration": 0.07518799999999715
                },
                {
                    "name": "C6",
                    "midi": 84,
                    "time": 93.53387199999979,
                    "velocity": 0.5511811023622047,
                    "duration": 0.07518799999999715
                },
                {
                    "name": "G#5",
                    "midi": 80,
                    "time": 93.83462399999979,
                    "velocity": 0.5275590551181102,
                    "duration": 0.07518799999999715
                },
                {
                    "name": "A5",
                    "midi": 81,
                    "time": 93.90981199999979,
                    "velocity": 0.4645669291338583,
                    "duration": 0.07518799999999715
                },
                {
                    "name": "E5",
                    "midi": 76,
                    "time": 94.13537599999978,
                    "velocity": 0.5354330708661418,
                    "duration": 0.07518799999999715
                },
                {
                    "name": "F5",
                    "midi": 77,
                    "time": 94.21056399999978,
                    "velocity": 0.4645669291338583,
                    "duration": 0.07518799999999715
                },
                {
                    "name": "D5",
                    "midi": 74,
                    "time": 94.43612799999977,
                    "velocity": 0.5511811023622047,
                    "duration": 0.07518799999999715
                },
                {
                    "name": "B4",
                    "midi": 71,
                    "time": 94.51131599999977,
                    "velocity": 0.4566929133858268,
                    "duration": 0.07518799999999715
                },
                {
                    "name": "C5",
                    "midi": 72,
                    "time": 94.73687999999976,
                    "velocity": 0.5590551181102362,
                    "duration": 0.07518799999999715
                },
                {
                    "name": "C5",
                    "midi": 72,
                    "time": 95.63913599999975,
                    "velocity": 0.3937007874015748,
                    "duration": 0.3007520000000028
                },
                {
                    "name": "B4",
                    "midi": 71,
                    "time": 95.93988799999975,
                    "velocity": 0.3779527559055118,
                    "duration": 0.3007520000000028
                },
                {
                    "name": "C5",
                    "midi": 72,
                    "time": 96.24063999999976,
                    "velocity": 0.3779527559055118,
                    "duration": 0.3007520000000028
                },
                {
                    "name": "C5",
                    "midi": 72,
                    "time": 96.54139199999976,
                    "velocity": 0.3937007874015748,
                    "duration": 0.9022560000000084
                },
                {
                    "name": "D5",
                    "midi": 74,
                    "time": 96.54139199999976,
                    "velocity": 0.3937007874015748,
                    "duration": 0.3007520000000028
                },
                {
                    "name": "D#5",
                    "midi": 75,
                    "time": 96.84214399999976,
                    "velocity": 0.3858267716535433,
                    "duration": 0.3007520000000028
                },
                {
                    "name": "F5",
                    "midi": 77,
                    "time": 97.14289599999977,
                    "velocity": 0.4251968503937008,
                    "duration": 0.3007520000000028
                },
                {
                    "name": "C5",
                    "midi": 72,
                    "time": 97.44364799999977,
                    "velocity": 0.4330708661417323,
                    "duration": 0.3007520000000028
                },
                {
                    "name": "D#5",
                    "midi": 75,
                    "time": 97.44364799999977,
                    "velocity": 0.4330708661417323,
                    "duration": 0.3007520000000028
                },
                {
                    "name": "B4",
                    "midi": 71,
                    "time": 97.74439999999977,
                    "velocity": 0.3543307086614173,
                    "duration": 0.3007520000000028
                },
                {
                    "name": "D5",
                    "midi": 74,
                    "time": 97.74439999999977,
                    "velocity": 0.3543307086614173,
                    "duration": 0.3007520000000028
                },
                {
                    "name": "G4",
                    "midi": 67,
                    "time": 98.04515199999977,
                    "velocity": 0.4251968503937008,
                    "duration": 0.3007520000000028
                },
                {
                    "name": "G5",
                    "midi": 79,
                    "time": 98.04515199999977,
                    "velocity": 0.4251968503937008,
                    "duration": 0.3007520000000028
                },
                {
                    "name": "D5",
                    "midi": 74,
                    "time": 98.34590399999978,
                    "velocity": 0.4094488188976378,
                    "duration": 0.3007520000000028
                },
                {
                    "name": "F5",
                    "midi": 77,
                    "time": 98.34590399999978,
                    "velocity": 0.4094488188976378,
                    "duration": 0.3007520000000028
                },
                {
                    "name": "C5",
                    "midi": 72,
                    "time": 98.64665599999978,
                    "velocity": 0.36220472440944884,
                    "duration": 0.3007520000000028
                },
                {
                    "name": "D#5",
                    "midi": 75,
                    "time": 98.64665599999978,
                    "velocity": 0.36220472440944884,
                    "duration": 0.3007520000000028
                },
                {
                    "name": "B4",
                    "midi": 71,
                    "time": 98.94740799999978,
                    "velocity": 0.36220472440944884,
                    "duration": 0.3007520000000028
                },
                {
                    "name": "D5",
                    "midi": 74,
                    "time": 98.94740799999978,
                    "velocity": 0.36220472440944884,
                    "duration": 0.3007520000000028
                },
                {
                    "name": "C5",
                    "midi": 72,
                    "time": 99.24815999999979,
                    "velocity": 0.4645669291338583,
                    "duration": 0.1503759999999943
                },
                {
                    "name": "F5",
                    "midi": 77,
                    "time": 99.39853599999978,
                    "velocity": 0.41732283464566927,
                    "duration": 0.1503759999999943
                },
                {
                    "name": "E5",
                    "midi": 76,
                    "time": 99.54891199999977,
                    "velocity": 0.44881889763779526,
                    "duration": 0.1503759999999943
                },
                {
                    "name": "G5",
                    "midi": 79,
                    "time": 99.69928799999977,
                    "velocity": 0.41732283464566927,
                    "duration": 0.1503759999999943
                },
                {
                    "name": "F5",
                    "midi": 77,
                    "time": 99.84966399999976,
                    "velocity": 0.44881889763779526,
                    "duration": 0.1503759999999943
                },
                {
                    "name": "C6",
                    "midi": 84,
                    "time": 100.00003999999976,
                    "velocity": 0.48031496062992124,
                    "duration": 0.1503759999999943
                },
                {
                    "name": "A#5",
                    "midi": 82,
                    "time": 100.15041599999975,
                    "velocity": 0.47244094488188976,
                    "duration": 0.1503759999999943
                },
                {
                    "name": "D5",
                    "midi": 74,
                    "time": 100.30079199999975,
                    "velocity": 0.41732283464566927,
                    "duration": 0.1503759999999943
                },
                {
                    "name": "D#5",
                    "midi": 75,
                    "time": 100.45116799999974,
                    "velocity": 0.4566929133858268,
                    "duration": 0.1503759999999943
                },
                {
                    "name": "D5",
                    "midi": 74,
                    "time": 100.60154399999973,
                    "velocity": 0.41732283464566927,
                    "duration": 0.1503759999999943
                },
                {
                    "name": "D#5",
                    "midi": 75,
                    "time": 100.75191999999973,
                    "velocity": 0.4566929133858268,
                    "duration": 0.1503759999999943
                },
                {
                    "name": "A#5",
                    "midi": 82,
                    "time": 100.90229599999972,
                    "velocity": 0.4881889763779528,
                    "duration": 0.1503759999999943
                },
                {
                    "name": "C5",
                    "midi": 72,
                    "time": 101.05267199999972,
                    "velocity": 0.48031496062992124,
                    "duration": 0.1503759999999943
                },
                {
                    "name": "G#5",
                    "midi": 80,
                    "time": 101.20304799999971,
                    "velocity": 0.41732283464566927,
                    "duration": 0.1503759999999943
                },
                {
                    "name": "G5",
                    "midi": 79,
                    "time": 101.3534239999997,
                    "velocity": 0.4566929133858268,
                    "duration": 0.1503759999999943
                },
                {
                    "name": "D#5",
                    "midi": 75,
                    "time": 101.5037999999997,
                    "velocity": 0.41732283464566927,
                    "duration": 0.1503759999999943
                },
                {
                    "name": "F5",
                    "midi": 77,
                    "time": 101.6541759999997,
                    "velocity": 0.4645669291338583,
                    "duration": 0.1503759999999943
                },
                {
                    "name": "D5",
                    "midi": 74,
                    "time": 101.80455199999969,
                    "velocity": 0.41732283464566927,
                    "duration": 0.1503759999999943
                },
                {
                    "name": "D#5",
                    "midi": 75,
                    "time": 101.95492799999968,
                    "velocity": 0.5039370078740157,
                    "duration": 0.3007520000000028
                },
                {
                    "name": "C5",
                    "midi": 72,
                    "time": 102.85718399999969,
                    "velocity": 0.3937007874015748,
                    "duration": 0.3007520000000028
                },
                {
                    "name": "B4",
                    "midi": 71,
                    "time": 103.1579359999997,
                    "velocity": 0.3779527559055118,
                    "duration": 0.3007520000000028
                },
                {
                    "name": "C5",
                    "midi": 72,
                    "time": 103.4586879999997,
                    "velocity": 0.3779527559055118,
                    "duration": 0.3007520000000028
                },
                {
                    "name": "C5",
                    "midi": 72,
                    "time": 103.7594399999997,
                    "velocity": 0.3937007874015748,
                    "duration": 0.9022560000000084
                },
                {
                    "name": "D5",
                    "midi": 74,
                    "time": 103.7594399999997,
                    "velocity": 0.3937007874015748,
                    "duration": 0.3007520000000028
                },
                {
                    "name": "D#5",
                    "midi": 75,
                    "time": 104.0601919999997,
                    "velocity": 0.3858267716535433,
                    "duration": 0.3007520000000028
                },
                {
                    "name": "F5",
                    "midi": 77,
                    "time": 104.3609439999997,
                    "velocity": 0.4251968503937008,
                    "duration": 0.3007520000000028
                },
                {
                    "name": "C5",
                    "midi": 72,
                    "time": 104.66169599999971,
                    "velocity": 0.4330708661417323,
                    "duration": 0.3007520000000028
                },
                {
                    "name": "D#5",
                    "midi": 75,
                    "time": 104.66169599999971,
                    "velocity": 0.4330708661417323,
                    "duration": 0.3007520000000028
                },
                {
                    "name": "B4",
                    "midi": 71,
                    "time": 104.96244799999971,
                    "velocity": 0.3543307086614173,
                    "duration": 0.3007520000000028
                },
                {
                    "name": "D5",
                    "midi": 74,
                    "time": 104.96244799999971,
                    "velocity": 0.3543307086614173,
                    "duration": 0.3007520000000028
                },
                {
                    "name": "G4",
                    "midi": 67,
                    "time": 105.26319999999971,
                    "velocity": 0.4251968503937008,
                    "duration": 0.3007520000000028
                },
                {
                    "name": "G5",
                    "midi": 79,
                    "time": 105.26319999999971,
                    "velocity": 0.4251968503937008,
                    "duration": 0.3007520000000028
                },
                {
                    "name": "D5",
                    "midi": 74,
                    "time": 105.56395199999972,
                    "velocity": 0.4094488188976378,
                    "duration": 0.3007520000000028
                },
                {
                    "name": "F5",
                    "midi": 77,
                    "time": 105.56395199999972,
                    "velocity": 0.4094488188976378,
                    "duration": 0.3007520000000028
                },
                {
                    "name": "C5",
                    "midi": 72,
                    "time": 105.86470399999972,
                    "velocity": 0.36220472440944884,
                    "duration": 0.3007520000000028
                },
                {
                    "name": "D#5",
                    "midi": 75,
                    "time": 105.86470399999972,
                    "velocity": 0.36220472440944884,
                    "duration": 0.3007520000000028
                },
                {
                    "name": "B4",
                    "midi": 71,
                    "time": 106.16545599999972,
                    "velocity": 0.36220472440944884,
                    "duration": 0.3007520000000028
                },
                {
                    "name": "D5",
                    "midi": 74,
                    "time": 106.16545599999972,
                    "velocity": 0.36220472440944884,
                    "duration": 0.3007520000000028
                },
                {
                    "name": "C5",
                    "midi": 72,
                    "time": 106.46620799999972,
                    "velocity": 0.4645669291338583,
                    "duration": 0.1503759999999943
                },
                {
                    "name": "F5",
                    "midi": 77,
                    "time": 106.61658399999972,
                    "velocity": 0.41732283464566927,
                    "duration": 0.1503759999999943
                },
                {
                    "name": "E5",
                    "midi": 76,
                    "time": 106.76695999999971,
                    "velocity": 0.44881889763779526,
                    "duration": 0.1503759999999943
                },
                {
                    "name": "G5",
                    "midi": 79,
                    "time": 106.91733599999971,
                    "velocity": 0.41732283464566927,
                    "duration": 0.1503759999999943
                },
                {
                    "name": "F5",
                    "midi": 77,
                    "time": 107.0677119999997,
                    "velocity": 0.44881889763779526,
                    "duration": 0.1503759999999943
                },
                {
                    "name": "C6",
                    "midi": 84,
                    "time": 107.2180879999997,
                    "velocity": 0.48031496062992124,
                    "duration": 0.1503759999999943
                },
                {
                    "name": "A#5",
                    "midi": 82,
                    "time": 107.36846399999969,
                    "velocity": 0.47244094488188976,
                    "duration": 0.1503759999999943
                },
                {
                    "name": "D5",
                    "midi": 74,
                    "time": 107.51883999999968,
                    "velocity": 0.41732283464566927,
                    "duration": 0.1503759999999943
                },
                {
                    "name": "D#5",
                    "midi": 75,
                    "time": 107.66921599999968,
                    "velocity": 0.4566929133858268,
                    "duration": 0.1503759999999943
                },
                {
                    "name": "D5",
                    "midi": 74,
                    "time": 107.81959199999967,
                    "velocity": 0.41732283464566927,
                    "duration": 0.1503759999999943
                },
                {
                    "name": "D#5",
                    "midi": 75,
                    "time": 107.96996799999967,
                    "velocity": 0.4566929133858268,
                    "duration": 0.1503759999999943
                },
                {
                    "name": "A#5",
                    "midi": 82,
                    "time": 108.12034399999966,
                    "velocity": 0.4881889763779528,
                    "duration": 0.1503759999999943
                },
                {
                    "name": "C5",
                    "midi": 72,
                    "time": 108.27071999999966,
                    "velocity": 0.48031496062992124,
                    "duration": 0.1503759999999943
                },
                {
                    "name": "G#5",
                    "midi": 80,
                    "time": 108.42109599999965,
                    "velocity": 0.41732283464566927,
                    "duration": 0.1503759999999943
                },
                {
                    "name": "G5",
                    "midi": 79,
                    "time": 108.57147199999964,
                    "velocity": 0.4566929133858268,
                    "duration": 0.1503759999999943
                },
                {
                    "name": "D#5",
                    "midi": 75,
                    "time": 108.72184799999964,
                    "velocity": 0.41732283464566927,
                    "duration": 0.1503759999999943
                },
                {
                    "name": "F5",
                    "midi": 77,
                    "time": 108.87222399999963,
                    "velocity": 0.4645669291338583,
                    "duration": 0.1503759999999943
                },
                {
                    "name": "D5",
                    "midi": 74,
                    "time": 109.02259999999963,
                    "velocity": 0.41732283464566927,
                    "duration": 0.1503759999999943
                },
                {
                    "name": "D#5",
                    "midi": 75,
                    "time": 109.17297599999962,
                    "velocity": 0.5039370078740157,
                    "duration": 0.3007520000000028
                },
                {
                    "name": "G4",
                    "midi": 67,
                    "time": 110.07523199999963,
                    "velocity": 0.4330708661417323,
                    "duration": 0.9022559999999658
                },
                {
                    "name": "G5",
                    "midi": 79,
                    "time": 110.07523199999963,
                    "velocity": 0.5275590551181102,
                    "duration": 0.1503759999999943
                },
                {
                    "name": "F#5",
                    "midi": 78,
                    "time": 110.22560799999962,
                    "velocity": 0.44881889763779526,
                    "duration": 0.1503759999999943
                },
                {
                    "name": "G5",
                    "midi": 79,
                    "time": 110.37598399999962,
                    "velocity": 0.5275590551181102,
                    "duration": 0.1503759999999943
                },
                {
                    "name": "D#5",
                    "midi": 75,
                    "time": 110.52635999999961,
                    "velocity": 0.44881889763779526,
                    "duration": 0.1503759999999943
                },
                {
                    "name": "D5",
                    "midi": 74,
                    "time": 110.67673599999961,
                    "velocity": 0.5275590551181102,
                    "duration": 0.1503759999999943
                },
                {
                    "name": "C5",
                    "midi": 72,
                    "time": 110.8271119999996,
                    "velocity": 0.47244094488188976,
                    "duration": 0.1503759999999943
                },
                {
                    "name": "B4",
                    "midi": 71,
                    "time": 110.9774879999996,
                    "velocity": 0.4330708661417323,
                    "duration": 0.9022559999999658
                },
                {
                    "name": "G#4",
                    "midi": 68,
                    "time": 110.9774879999996,
                    "velocity": 0.5275590551181102,
                    "duration": 0.1503759999999943
                },
                {
                    "name": "G4",
                    "midi": 67,
                    "time": 111.12786399999959,
                    "velocity": 0.4566929133858268,
                    "duration": 0.1503759999999943
                },
                {
                    "name": "G#4",
                    "midi": 68,
                    "time": 111.27823999999958,
                    "velocity": 0.5275590551181102,
                    "duration": 0.1503759999999943
                },
                {
                    "name": "F4",
                    "midi": 65,
                    "time": 111.42861599999958,
                    "velocity": 0.4566929133858268,
                    "duration": 0.1503759999999943
                },
                {
                    "name": "G4",
                    "midi": 67,
                    "time": 111.57899199999957,
                    "velocity": 0.5275590551181102,
                    "duration": 0.1503759999999943
                },
                {
                    "name": "G#4",
                    "midi": 68,
                    "time": 111.72936799999957,
                    "velocity": 0.4566929133858268,
                    "duration": 0.1503759999999943
                },
                {
                    "name": "G4",
                    "midi": 67,
                    "time": 111.87974399999956,
                    "velocity": 0.2992125984251969,
                    "duration": 0.9022559999999658
                },
                {
                    "name": "G5",
                    "midi": 79,
                    "time": 111.87974399999956,
                    "velocity": 0.36220472440944884,
                    "duration": 0.1503759999999943
                },
                {
                    "name": "F#5",
                    "midi": 78,
                    "time": 112.03011999999956,
                    "velocity": 0.30708661417322836,
                    "duration": 0.1503759999999943
                },
                {
                    "name": "G5",
                    "midi": 79,
                    "time": 112.18049599999955,
                    "velocity": 0.36220472440944884,
                    "duration": 0.1503759999999943
                },
                {
                    "name": "D#5",
                    "midi": 75,
                    "time": 112.33087199999954,
                    "velocity": 0.30708661417322836,
                    "duration": 0.1503759999999943
                },
                {
                    "name": "D5",
                    "midi": 74,
                    "time": 112.48124799999954,
                    "velocity": 0.36220472440944884,
                    "duration": 0.1503759999999943
                },
                {
                    "name": "C5",
                    "midi": 72,
                    "time": 112.63162399999953,
                    "velocity": 0.33070866141732286,
                    "duration": 0.1503759999999943
                },
                {
                    "name": "B4",
                    "midi": 71,
                    "time": 112.78199999999953,
                    "velocity": 0.2992125984251969,
                    "duration": 0.9022559999999658
                },
                {
                    "name": "G#4",
                    "midi": 68,
                    "time": 112.78199999999953,
                    "velocity": 0.36220472440944884,
                    "duration": 0.1503759999999943
                },
                {
                    "name": "G4",
                    "midi": 67,
                    "time": 112.93237599999952,
                    "velocity": 0.31496062992125984,
                    "duration": 0.1503759999999943
                },
                {
                    "name": "G#4",
                    "midi": 68,
                    "time": 113.08275199999952,
                    "velocity": 0.3700787401574803,
                    "duration": 0.1503759999999943
                },
                {
                    "name": "F4",
                    "midi": 65,
                    "time": 113.23312799999951,
                    "velocity": 0.33070866141732286,
                    "duration": 0.1503759999999943
                },
                {
                    "name": "G4",
                    "midi": 67,
                    "time": 113.3835039999995,
                    "velocity": 0.3858267716535433,
                    "duration": 0.1503759999999943
                },
                {
                    "name": "G#4",
                    "midi": 68,
                    "time": 113.5338799999995,
                    "velocity": 0.33858267716535434,
                    "duration": 0.1503759999999943
                },
                {
                    "name": "C5",
                    "midi": 72,
                    "time": 113.6842559999995,
                    "velocity": 0.33070866141732286,
                    "duration": 0.9022559999999658
                },
                {
                    "name": "G4",
                    "midi": 67,
                    "time": 113.6842559999995,
                    "velocity": 0.4015748031496063,
                    "duration": 0.1503759999999943
                },
                {
                    "name": "F4",
                    "midi": 65,
                    "time": 113.83463199999949,
                    "velocity": 0.3543307086614173,
                    "duration": 0.1503759999999943
                },
                {
                    "name": "G4",
                    "midi": 67,
                    "time": 113.98500799999948,
                    "velocity": 0.4094488188976378,
                    "duration": 0.1503759999999943
                },
                {
                    "name": "D#4",
                    "midi": 63,
                    "time": 114.13538399999948,
                    "velocity": 0.36220472440944884,
                    "duration": 0.1503759999999943
                },
                {
                    "name": "F4",
                    "midi": 65,
                    "time": 114.28575999999947,
                    "velocity": 0.4251968503937008,
                    "duration": 0.1503759999999943
                },
                {
                    "name": "G4",
                    "midi": 67,
                    "time": 114.43613599999946,
                    "velocity": 0.3779527559055118,
                    "duration": 0.1503759999999943
                },
                {
                    "name": "G4",
                    "midi": 67,
                    "time": 114.58651199999946,
                    "velocity": 0.36220472440944884,
                    "duration": 0.9022559999999658
                },
                {
                    "name": "D5",
                    "midi": 74,
                    "time": 114.58651199999946,
                    "velocity": 0.4409448818897638,
                    "duration": 0.1503759999999943
                },
                {
                    "name": "D#5",
                    "midi": 75,
                    "time": 114.73688799999945,
                    "velocity": 0.3937007874015748,
                    "duration": 0.1503759999999943
                },
                {
                    "name": "F5",
                    "midi": 77,
                    "time": 114.88726399999945,
                    "velocity": 0.4881889763779528,
                    "duration": 0.1503759999999943
                },
                {
                    "name": "D5",
                    "midi": 74,
                    "time": 115.03763999999944,
                    "velocity": 0.4409448818897638,
                    "duration": 0.1503759999999943
                },
                {
                    "name": "D#5",
                    "midi": 75,
                    "time": 115.18801599999944,
                    "velocity": 0.5275590551181102,
                    "duration": 0.1503759999999943
                },
                {
                    "name": "C5",
                    "midi": 72,
                    "time": 115.33839199999943,
                    "velocity": 0.49606299212598426,
                    "duration": 0.1503759999999943
                },
                {
                    "name": "G4",
                    "midi": 67,
                    "time": 115.48876799999942,
                    "velocity": 0.5748031496062992,
                    "duration": 1.203007999999997
                },
                {
                    "name": "G5",
                    "midi": 79,
                    "time": 115.48876799999942,
                    "velocity": 0.5748031496062992,
                    "duration": 1.4285720000000026
                },
                {
                    "name": "A5",
                    "midi": 81,
                    "time": 116.91733999999943,
                    "velocity": 0.3228346456692913,
                    "duration": 0.07518799999999715
                },
                {
                    "name": "F5",
                    "midi": 77,
                    "time": 116.99252799999942,
                    "velocity": 0.3543307086614173,
                    "duration": 0.22556400000000565
                },
                {
                    "name": "G5",
                    "midi": 79,
                    "time": 117.21809199999943,
                    "velocity": 0.3228346456692913,
                    "duration": 0.07518799999999715
                },
                {
                    "name": "E5",
                    "midi": 76,
                    "time": 117.29327999999943,
                    "velocity": 0.3543307086614173,
                    "duration": 0.5263159999999942
                },
                {
                    "name": "F5",
                    "midi": 77,
                    "time": 117.81959599999942,
                    "velocity": 0.3228346456692913,
                    "duration": 0.07518799999999715
                },
                {
                    "name": "D5",
                    "midi": 74,
                    "time": 117.89478399999942,
                    "velocity": 0.3543307086614173,
                    "duration": 0.22556400000000565
                },
                {
                    "name": "E5",
                    "midi": 76,
                    "time": 118.12034799999942,
                    "velocity": 0.3228346456692913,
                    "duration": 0.07518799999999715
                },
                {
                    "name": "C5",
                    "midi": 72,
                    "time": 118.19553599999942,
                    "velocity": 0.3543307086614173,
                    "duration": 0.07518799999999715
                },
                {
                    "name": "G5",
                    "midi": 79,
                    "time": 118.49628799999942,
                    "velocity": 0.33858267716535434,
                    "duration": 0.07518799999999715
                },
                {
                    "name": "G5",
                    "midi": 79,
                    "time": 118.79703999999943,
                    "velocity": 0.33858267716535434,
                    "duration": 0.07518799999999715
                },
                {
                    "name": "G5",
                    "midi": 79,
                    "time": 119.09779199999943,
                    "velocity": 0.3543307086614173,
                    "duration": 0.1503759999999943
                },
                {
                    "name": "F5",
                    "midi": 77,
                    "time": 119.24816799999942,
                    "velocity": 0.3228346456692913,
                    "duration": 0.07518799999999715
                },
                {
                    "name": "F5",
                    "midi": 77,
                    "time": 119.39854399999942,
                    "velocity": 0.3543307086614173,
                    "duration": 0.1503759999999943
                },
                {
                    "name": "E5",
                    "midi": 76,
                    "time": 119.54891999999941,
                    "velocity": 0.3228346456692913,
                    "duration": 0.07518799999999715
                },
                {
                    "name": "E5",
                    "midi": 76,
                    "time": 119.6992959999994,
                    "velocity": 0.3543307086614173,
                    "duration": 0.1503759999999943
                },
                {
                    "name": "D5",
                    "midi": 74,
                    "time": 119.8496719999994,
                    "velocity": 0.31496062992125984,
                    "duration": 0.07518799999999715
                },
                {
                    "name": "D5",
                    "midi": 74,
                    "time": 120.0000479999994,
                    "velocity": 0.3543307086614173,
                    "duration": 0.07518799999999715
                },
                {
                    "name": "B4",
                    "midi": 71,
                    "time": 120.3007999999994,
                    "velocity": 0.3228346456692913,
                    "duration": 0.07518799999999715
                },
                {
                    "name": "G4",
                    "midi": 67,
                    "time": 120.6015519999994,
                    "velocity": 0.3228346456692913,
                    "duration": 0.07518799999999715
                },
                {
                    "name": "E5",
                    "midi": 76,
                    "time": 120.9023039999994,
                    "velocity": 0.5669291338582677,
                    "duration": 0.5263159999999942
                },
                {
                    "name": "F5",
                    "midi": 77,
                    "time": 121.4286199999994,
                    "velocity": 0.4645669291338583,
                    "duration": 0.07518799999999715
                },
                {
                    "name": "D5",
                    "midi": 74,
                    "time": 121.5038079999994,
                    "velocity": 0.5433070866141733,
                    "duration": 0.22556400000000565
                },
                {
                    "name": "E5",
                    "midi": 76,
                    "time": 121.7293719999994,
                    "velocity": 0.5039370078740157,
                    "duration": 0.07518799999999715
                },
                {
                    "name": "C5",
                    "midi": 72,
                    "time": 121.8045599999994,
                    "velocity": 0.5511811023622047,
                    "duration": 0.07518799999999715
                },
                {
                    "name": "C6",
                    "midi": 84,
                    "time": 122.1053119999994,
                    "velocity": 0.5511811023622047,
                    "duration": 0.07518799999999715
                },
                {
                    "name": "C6",
                    "midi": 84,
                    "time": 122.4060639999994,
                    "velocity": 0.5511811023622047,
                    "duration": 0.07518799999999715
                },
                {
                    "name": "G#5",
                    "midi": 80,
                    "time": 122.7068159999994,
                    "velocity": 0.5275590551181102,
                    "duration": 0.07518799999999715
                },
                {
                    "name": "A5",
                    "midi": 81,
                    "time": 122.7820039999994,
                    "velocity": 0.4645669291338583,
                    "duration": 0.07518799999999715
                },
                {
                    "name": "E5",
                    "midi": 76,
                    "time": 123.0075679999994,
                    "velocity": 0.5354330708661418,
                    "duration": 0.07518799999999715
                },
                {
                    "name": "F5",
                    "midi": 77,
                    "time": 123.08275599999939,
                    "velocity": 0.4645669291338583,
                    "duration": 0.07518799999999715
                },
                {
                    "name": "D5",
                    "midi": 74,
                    "time": 123.30831999999938,
                    "velocity": 0.5511811023622047,
                    "duration": 0.07518799999999715
                },
                {
                    "name": "B4",
                    "midi": 71,
                    "time": 123.38350799999938,
                    "velocity": 0.4566929133858268,
                    "duration": 0.07518799999999715
                },
                {
                    "name": "C5",
                    "midi": 72,
                    "time": 123.60907199999937,
                    "velocity": 0.5590551181102362,
                    "duration": 0.07518799999999715
                },
                {
                    "name": "F5",
                    "midi": 77,
                    "time": 124.51132799999937,
                    "velocity": 0.3543307086614173,
                    "duration": 0.5263159999999942
                },
                {
                    "name": "G5",
                    "midi": 79,
                    "time": 125.03764399999936,
                    "velocity": 0.3228346456692913,
                    "duration": 0.07518799999999715
                },
                {
                    "name": "E5",
                    "midi": 76,
                    "time": 125.11283199999936,
                    "velocity": 0.3543307086614173,
                    "duration": 0.22556400000000565
                },
                {
                    "name": "F5",
                    "midi": 77,
                    "time": 125.33839599999936,
                    "velocity": 0.3228346456692913,
                    "duration": 0.07518799999999715
                },
                {
                    "name": "D5",
                    "midi": 74,
                    "time": 125.41358399999936,
                    "velocity": 0.3543307086614173,
                    "duration": 0.07518799999999715
                },
                {
                    "name": "B4",
                    "midi": 71,
                    "time": 125.71433599999936,
                    "velocity": 0.33858267716535434,
                    "duration": 0.07518799999999715
                },
                {
                    "name": "G4",
                    "midi": 67,
                    "time": 126.01508799999937,
                    "velocity": 0.33858267716535434,
                    "duration": 0.07518799999999715
                },
                {
                    "name": "C6",
                    "midi": 84,
                    "time": 126.31583999999937,
                    "velocity": 0.5118110236220472,
                    "duration": 0.5263159999999942
                },
                {
                    "name": "D6",
                    "midi": 86,
                    "time": 126.84215599999936,
                    "velocity": 0.44881889763779526,
                    "duration": 0.07518799999999715
                },
                {
                    "name": "B5",
                    "midi": 83,
                    "time": 126.91734399999936,
                    "velocity": 0.5196850393700787,
                    "duration": 0.22556400000000565
                },
                {
                    "name": "C6",
                    "midi": 84,
                    "time": 127.14290799999937,
                    "velocity": 0.44881889763779526,
                    "duration": 0.07518799999999715
                },
                {
                    "name": "A5",
                    "midi": 81,
                    "time": 127.21809599999936,
                    "velocity": 0.5118110236220472,
                    "duration": 0.5263159999999942
                },
                {
                    "name": "B5",
                    "midi": 83,
                    "time": 127.74441199999936,
                    "velocity": 0.44881889763779526,
                    "duration": 0.07518799999999715
                },
                {
                    "name": "G5",
                    "midi": 79,
                    "time": 127.81959999999935,
                    "velocity": 0.5196850393700787,
                    "duration": 0.22556399999999144
                },
                {
                    "name": "A5",
                    "midi": 81,
                    "time": 128.04516399999935,
                    "velocity": 0.44881889763779526,
                    "duration": 0.07518799999999715
                },
                {
                    "name": "F#5",
                    "midi": 78,
                    "time": 128.12035199999934,
                    "velocity": 0.5196850393700787,
                    "duration": 0.22556399999999144
                },
                {
                    "name": "A5",
                    "midi": 81,
                    "time": 128.32837213333266,
                    "velocity": 0.48031496062992124,
                    "duration": 0.07518799999999715
                },
                {
                    "name": "C6",
                    "midi": 84,
                    "time": 128.438647866666,
                    "velocity": 0.5196850393700787,
                    "duration": 0.22556399999999144
                },
                {
                    "name": "A5",
                    "midi": 81,
                    "time": 128.64666799999932,
                    "velocity": 0.4881889763779528,
                    "duration": 0.07518799999999715
                },
                {
                    "name": "F#5",
                    "midi": 78,
                    "time": 128.72185599999932,
                    "velocity": 0.5196850393700787,
                    "duration": 0.22556399999999144
                },
                {
                    "name": "A5",
                    "midi": 81,
                    "time": 128.9474199999993,
                    "velocity": 0.49606299212598426,
                    "duration": 0.07518799999999715
                },
                {
                    "name": "G5",
                    "midi": 79,
                    "time": 129.0226079999993,
                    "velocity": 0.5590551181102362,
                    "duration": 0.07518799999999715
                },
                {
                    "name": "G5",
                    "midi": 79,
                    "time": 129.3233599999993,
                    "velocity": 0.5196850393700787,
                    "duration": 0.07518799999999715
                },
                {
                    "name": "G5",
                    "midi": 79,
                    "time": 129.6241119999993,
                    "velocity": 0.5196850393700787,
                    "duration": 0.07518799999999715
                },
                {
                    "name": "F#5",
                    "midi": 78,
                    "time": 129.92486399999927,
                    "velocity": 0.5196850393700787,
                    "duration": 0.22556399999999144
                },
                {
                    "name": "A5",
                    "midi": 81,
                    "time": 130.1328841333326,
                    "velocity": 0.48031496062992124,
                    "duration": 0.07518799999999715
                },
                {
                    "name": "C6",
                    "midi": 84,
                    "time": 130.24315986666593,
                    "velocity": 0.5196850393700787,
                    "duration": 0.22556399999999144
                },
                {
                    "name": "A5",
                    "midi": 81,
                    "time": 130.45117999999925,
                    "velocity": 0.4881889763779528,
                    "duration": 0.07518799999999715
                },
                {
                    "name": "F#5",
                    "midi": 78,
                    "time": 130.52636799999925,
                    "velocity": 0.5196850393700787,
                    "duration": 0.22556399999999144
                },
                {
                    "name": "A5",
                    "midi": 81,
                    "time": 130.75193199999924,
                    "velocity": 0.49606299212598426,
                    "duration": 0.07518799999999715
                },
                {
                    "name": "G5",
                    "midi": 79,
                    "time": 130.82711999999924,
                    "velocity": 0.5590551181102362,
                    "duration": 0.07518799999999715
                },
                {
                    "name": "G5",
                    "midi": 79,
                    "time": 131.12787199999923,
                    "velocity": 0.5196850393700787,
                    "duration": 0.07518799999999715
                },
                {
                    "name": "G5",
                    "midi": 79,
                    "time": 131.42862399999922,
                    "velocity": 0.5196850393700787,
                    "duration": 0.07518799999999715
                },
                {
                    "name": "G5",
                    "midi": 79,
                    "time": 131.7293759999992,
                    "velocity": 0.5590551181102362,
                    "duration": 0.4010026666666704
                },
                {
                    "name": "A5",
                    "midi": 81,
                    "time": 132.13037866666588,
                    "velocity": 0.33070866141732286,
                    "duration": 0.10025066666665339
                },
                {
                    "name": "G5",
                    "midi": 79,
                    "time": 132.23062933333253,
                    "velocity": 0.33070866141732286,
                    "duration": 0.10025066666665339
                },
                {
                    "name": "F5",
                    "midi": 77,
                    "time": 132.33087999999918,
                    "velocity": 0.3543307086614173,
                    "duration": 0.10025066666665339
                },
                {
                    "name": "G5",
                    "midi": 79,
                    "time": 132.43113066666584,
                    "velocity": 0.31496062992125984,
                    "duration": 0.10025066666665339
                },
                {
                    "name": "F5",
                    "midi": 77,
                    "time": 132.5313813333325,
                    "velocity": 0.31496062992125984,
                    "duration": 0.10025066666665339
                },
                {
                    "name": "E5",
                    "midi": 76,
                    "time": 132.63163199999914,
                    "velocity": 0.3543307086614173,
                    "duration": 0.4010026666666704
                },
                {
                    "name": "F5",
                    "midi": 77,
                    "time": 133.0326346666658,
                    "velocity": 0.3228346456692913,
                    "duration": 0.10025066666665339
                },
                {
                    "name": "E5",
                    "midi": 76,
                    "time": 133.13288533333247,
                    "velocity": 0.3228346456692913,
                    "duration": 0.10025066666665339
                },
                {
                    "name": "D5",
                    "midi": 74,
                    "time": 133.23313599999912,
                    "velocity": 0.3543307086614173,
                    "duration": 0.10025066666665339
                },
                {
                    "name": "E5",
                    "midi": 76,
                    "time": 133.33338666666577,
                    "velocity": 0.3228346456692913,
                    "duration": 0.10025066666665339
                },
                {
                    "name": "D5",
                    "midi": 74,
                    "time": 133.43363733333243,
                    "velocity": 0.3228346456692913,
                    "duration": 0.10025066666665339
                },
                {
                    "name": "C5",
                    "midi": 72,
                    "time": 133.53388799999908,
                    "velocity": 0.3543307086614173,
                    "duration": 0.07518799999999715
                },
                {
                    "name": "G5",
                    "midi": 79,
                    "time": 133.68426399999908,
                    "velocity": 0.3464566929133858,
                    "duration": 0.07518799999999715
                },
                {
                    "name": "G5",
                    "midi": 79,
                    "time": 133.83463999999907,
                    "velocity": 0.36220472440944884,
                    "duration": 0.07518799999999715
                },
                {
                    "name": "G5",
                    "midi": 79,
                    "time": 133.98501599999906,
                    "velocity": 0.3779527559055118,
                    "duration": 0.07518799999999715
                },
                {
                    "name": "G5",
                    "midi": 79,
                    "time": 134.13539199999906,
                    "velocity": 0.4015748031496063,
                    "duration": 0.07518799999999715
                },
                {
                    "name": "G5",
                    "midi": 79,
                    "time": 134.28576799999905,
                    "velocity": 0.41732283464566927,
                    "duration": 0.07518799999999715
                },
                {
                    "name": "G5",
                    "midi": 79,
                    "time": 134.43614399999905,
                    "velocity": 0.4330708661417323,
                    "duration": 0.1503759999999943
                },
                {
                    "name": "F#5",
                    "midi": 78,
                    "time": 134.58651999999904,
                    "velocity": 0.3858267716535433,
                    "duration": 0.1503759999999943
                },
                {
                    "name": "F5",
                    "midi": 77,
                    "time": 134.73689599999904,
                    "velocity": 0.4094488188976378,
                    "duration": 0.1503759999999943
                },
                {
                    "name": "E5",
                    "midi": 76,
                    "time": 134.88727199999903,
                    "velocity": 0.3464566929133858,
                    "duration": 0.1503759999999943
                },
                {
                    "name": "D#5",
                    "midi": 75,
                    "time": 135.03764799999902,
                    "velocity": 0.3700787401574803,
                    "duration": 0.1503759999999943
                },
                {
                    "name": "D5",
                    "midi": 74,
                    "time": 135.18802399999902,
                    "velocity": 0.33858267716535434,
                    "duration": 0.1503759999999943
                },
                {
                    "name": "D5",
                    "midi": 74,
                    "time": 135.338399999999,
                    "velocity": 0.3937007874015748,
                    "duration": 0.07518799999999715
                },
                {
                    "name": "B4",
                    "midi": 71,
                    "time": 135.639151999999,
                    "velocity": 0.3228346456692913,
                    "duration": 0.07518799999999715
                },
                {
                    "name": "G4",
                    "midi": 67,
                    "time": 135.939903999999,
                    "velocity": 0.3228346456692913,
                    "duration": 0.07518799999999715
                },
                {
                    "name": "E5",
                    "midi": 76,
                    "time": 136.24065599999898,
                    "velocity": 0.5669291338582677,
                    "duration": 0.4010026666666704
                },
                {
                    "name": "F5",
                    "midi": 77,
                    "time": 136.64165866666565,
                    "velocity": 0.49606299212598426,
                    "duration": 0.10025066666665339
                },
                {
                    "name": "E5",
                    "midi": 76,
                    "time": 136.7419093333323,
                    "velocity": 0.49606299212598426,
                    "duration": 0.10025066666665339
                },
                {
                    "name": "D5",
                    "midi": 74,
                    "time": 136.84215999999896,
                    "velocity": 0.5433070866141733,
                    "duration": 0.10025066666665339
                },
                {
                    "name": "E5",
                    "midi": 76,
                    "time": 136.9424106666656,
                    "velocity": 0.5118110236220472,
                    "duration": 0.10025066666665339
                },
                {
                    "name": "D5",
                    "midi": 74,
                    "time": 137.04266133333226,
                    "velocity": 0.5196850393700787,
                    "duration": 0.10025066666665339
                },
                {
                    "name": "C5",
                    "midi": 72,
                    "time": 137.14291199999892,
                    "velocity": 0.5511811023622047,
                    "duration": 0.10025066666665339
                },
                {
                    "name": "E5",
                    "midi": 76,
                    "time": 137.24316266666557,
                    "velocity": 0.5039370078740157,
                    "duration": 0.10025066666665339
                },
                {
                    "name": "G5",
                    "midi": 79,
                    "time": 137.34341333333222,
                    "velocity": 0.5118110236220472,
                    "duration": 0.10025066666665339
                },
                {
                    "name": "E5",
                    "midi": 76,
                    "time": 137.44366399999888,
                    "velocity": 0.5511811023622047,
                    "duration": 0.10025066666665339
                },
                {
                    "name": "G5",
                    "midi": 79,
                    "time": 137.54391466666553,
                    "velocity": 0.5196850393700787,
                    "duration": 0.10025066666665339
                },
                {
                    "name": "C6",
                    "midi": 84,
                    "time": 137.64416533333218,
                    "velocity": 0.5196850393700787,
                    "duration": 0.10025066666665339
                },
                {
                    "name": "G5",
                    "midi": 79,
                    "time": 137.74441599999884,
                    "velocity": 0.5511811023622047,
                    "duration": 0.10025066666665339
                },
                {
                    "name": "C6",
                    "midi": 84,
                    "time": 137.8446666666655,
                    "velocity": 0.5118110236220472,
                    "duration": 0.10025066666665339
                },
                {
                    "name": "E6",
                    "midi": 88,
                    "time": 137.94491733333214,
                    "velocity": 0.5118110236220472,
                    "duration": 0.10025066666665339
                },
                {
                    "name": "D5",
                    "midi": 74,
                    "time": 138.0451679999988,
                    "velocity": 0.5984251968503937,
                    "duration": 0.3007519999999886
                },
                {
                    "name": "F5",
                    "midi": 77,
                    "time": 138.34591999999878,
                    "velocity": 0.5354330708661418,
                    "duration": 0.22556399999999144
                },
                {
                    "name": "D5",
                    "midi": 74,
                    "time": 138.57148399999878,
                    "velocity": 0.49606299212598426,
                    "duration": 0.07518799999999715
                },
                {
                    "name": "B4",
                    "midi": 71,
                    "time": 138.64667199999877,
                    "velocity": 0.5511811023622047,
                    "duration": 0.22556399999999144
                },
                {
                    "name": "D5",
                    "midi": 74,
                    "time": 138.87223599999876,
                    "velocity": 0.5039370078740157,
                    "duration": 0.07518799999999715
                },
                {
                    "name": "C5",
                    "midi": 72,
                    "time": 138.94742399999876,
                    "velocity": 0.5511811023622047,
                    "duration": 0.10025066666665339
                },
                {
                    "name": "E5",
                    "midi": 76,
                    "time": 139.04767466666542,
                    "velocity": 0.5039370078740157,
                    "duration": 0.10025066666665339
                },
                {
                    "name": "G5",
                    "midi": 79,
                    "time": 139.14792533333207,
                    "velocity": 0.5118110236220472,
                    "duration": 0.10025066666665339
                },
                {
                    "name": "E5",
                    "midi": 76,
                    "time": 139.24817599999872,
                    "velocity": 0.5511811023622047,
                    "duration": 0.10025066666665339
                },
                {
                    "name": "G5",
                    "midi": 79,
                    "time": 139.34842666666538,
                    "velocity": 0.5196850393700787,
                    "duration": 0.10025066666665339
                },
                {
                    "name": "C6",
                    "midi": 84,
                    "time": 139.44867733333203,
                    "velocity": 0.5196850393700787,
                    "duration": 0.10025066666665339
                },
                {
                    "name": "G5",
                    "midi": 79,
                    "time": 139.54892799999868,
                    "velocity": 0.5511811023622047,
                    "duration": 0.10025066666665339
                },
                {
                    "name": "C6",
                    "midi": 84,
                    "time": 139.64917866666534,
                    "velocity": 0.5118110236220472,
                    "duration": 0.10025066666665339
                },
                {
                    "name": "E6",
                    "midi": 88,
                    "time": 139.749429333332,
                    "velocity": 0.5118110236220472,
                    "duration": 0.10025066666665339
                },
                {
                    "name": "D5",
                    "midi": 74,
                    "time": 139.84967999999864,
                    "velocity": 0.5984251968503937,
                    "duration": 0.3007519999999886
                },
                {
                    "name": "F5",
                    "midi": 77,
                    "time": 140.15043199999863,
                    "velocity": 0.5354330708661418,
                    "duration": 0.22556399999999144
                },
                {
                    "name": "D5",
                    "midi": 74,
                    "time": 140.37599599999862,
                    "velocity": 0.49606299212598426,
                    "duration": 0.07518799999999715
                },
                {
                    "name": "B4",
                    "midi": 71,
                    "time": 140.45118399999862,
                    "velocity": 0.5511811023622047,
                    "duration": 0.22556399999999144
                },
                {
                    "name": "D5",
                    "midi": 74,
                    "time": 140.6767479999986,
                    "velocity": 0.5039370078740157,
                    "duration": 0.07518799999999715
                },
                {
                    "name": "C5",
                    "midi": 72,
                    "time": 140.7519359999986,
                    "velocity": 0.6062992125984252,
                    "duration": 0.07518799999999715
                },
                {
                    "name": "C6",
                    "midi": 84,
                    "time": 141.0526879999986,
                    "velocity": 0.6062992125984252,
                    "duration": 0.07518799999999715
                },
                {
                    "name": "E5",
                    "midi": 76,
                    "time": 141.0526879999986,
                    "velocity": 0.5118110236220472,
                    "duration": 0.07518799999999715
                },
                {
                    "name": "C6",
                    "midi": 84,
                    "time": 141.35343999999859,
                    "velocity": 0.5826771653543307,
                    "duration": 0.07518799999999715
                },
                {
                    "name": "E5",
                    "midi": 76,
                    "time": 141.35343999999859,
                    "velocity": 0.4881889763779528,
                    "duration": 0.07518799999999715
                },
                {
                    "name": "C6",
                    "midi": 84,
                    "time": 141.65419199999857,
                    "velocity": 0.5984251968503937,
                    "duration": 0.3007519999999886
                },
                {
                    "name": "E5",
                    "midi": 76,
                    "time": 141.65419199999857,
                    "velocity": 0.5039370078740157,
                    "duration": 0.3007519999999886
                }
            ],
            "controlChanges": {},
            "id": 1,
            "name": "Piano right",
            "instrumentNumber": 0,
            "instrument": "acoustic grand piano",
            "instrumentFamily": "piano",
            "channelNumber": 0,
            "isPercussion": false
        },
        {
            "startTime": 0.300752,
            "duration": 141.95494399999941,
            "length": 576,
            "notes": [
                {
                    "name": "C4",
                    "midi": 60,
                    "time": 0.300752,
                    "velocity": 0.2125984251968504,
                    "duration": 0.300752
                },
                {
                    "name": "G4",
                    "midi": 67,
                    "time": 0.300752,
                    "velocity": 0.25984251968503935,
                    "duration": 0.300752
                },
                {
                    "name": "G4",
                    "midi": 67,
                    "time": 0.601504,
                    "velocity": 0.25984251968503935,
                    "duration": 0.300752
                },
                {
                    "name": "F4",
                    "midi": 65,
                    "time": 0.601504,
                    "velocity": 0.2125984251968504,
                    "duration": 0.300752
                },
                {
                    "name": "E4",
                    "midi": 64,
                    "time": 0.9022560000000001,
                    "velocity": 0.23622047244094488,
                    "duration": 0.07518800000000003
                },
                {
                    "name": "G4",
                    "midi": 67,
                    "time": 0.9022560000000001,
                    "velocity": 0.28346456692913385,
                    "duration": 0.07518800000000003
                },
                {
                    "name": "B3",
                    "midi": 59,
                    "time": 1.8045120000000001,
                    "velocity": 0.23622047244094488,
                    "duration": 0.601504
                },
                {
                    "name": "G4",
                    "midi": 67,
                    "time": 1.8045120000000001,
                    "velocity": 0.28346456692913385,
                    "duration": 1.2030079999999999
                },
                {
                    "name": "C4",
                    "midi": 60,
                    "time": 2.406016,
                    "velocity": 0.25984251968503935,
                    "duration": 0.30075200000000013
                },
                {
                    "name": "G3",
                    "midi": 55,
                    "time": 2.7067680000000003,
                    "velocity": 0.28346456692913385,
                    "duration": 0.07518799999999981
                },
                {
                    "name": "C4",
                    "midi": 60,
                    "time": 3.909776,
                    "velocity": 0.31496062992125984,
                    "duration": 0.30075200000000013
                },
                {
                    "name": "G4",
                    "midi": 67,
                    "time": 3.909776,
                    "velocity": 0.3779527559055118,
                    "duration": 0.30075200000000013
                },
                {
                    "name": "G4",
                    "midi": 67,
                    "time": 4.210528,
                    "velocity": 0.3779527559055118,
                    "duration": 0.30075200000000013
                },
                {
                    "name": "F4",
                    "midi": 65,
                    "time": 4.210528,
                    "velocity": 0.31496062992125984,
                    "duration": 0.30075200000000013
                },
                {
                    "name": "E4",
                    "midi": 64,
                    "time": 4.51128,
                    "velocity": 0.3464566929133858,
                    "duration": 0.07518799999999981
                },
                {
                    "name": "G4",
                    "midi": 67,
                    "time": 4.51128,
                    "velocity": 0.4094488188976378,
                    "duration": 0.07518799999999981
                },
                {
                    "name": "C4",
                    "midi": 60,
                    "time": 5.1127839999999996,
                    "velocity": 0.3779527559055118,
                    "duration": 0.07518799999999981
                },
                {
                    "name": "E3",
                    "midi": 52,
                    "time": 5.1127839999999996,
                    "velocity": 0.31496062992125984,
                    "duration": 0.07518799999999981
                },
                {
                    "name": "F3",
                    "midi": 53,
                    "time": 5.413536,
                    "velocity": 0.3464566929133858,
                    "duration": 0.07518799999999981
                },
                {
                    "name": "C4",
                    "midi": 60,
                    "time": 5.413536,
                    "velocity": 0.4094488188976378,
                    "duration": 0.07518799999999981
                },
                {
                    "name": "G3",
                    "midi": 55,
                    "time": 6.015039999999999,
                    "velocity": 0.31496062992125984,
                    "duration": 0.07518799999999981
                },
                {
                    "name": "F4",
                    "midi": 65,
                    "time": 6.015039999999999,
                    "velocity": 0.3779527559055118,
                    "duration": 0.07518799999999981
                },
                {
                    "name": "E4",
                    "midi": 64,
                    "time": 6.315791999999999,
                    "velocity": 0.4094488188976378,
                    "duration": 0.07518799999999981
                },
                {
                    "name": "C4",
                    "midi": 60,
                    "time": 6.315791999999999,
                    "velocity": 0.3464566929133858,
                    "duration": 0.07518799999999981
                },
                {
                    "name": "C4",
                    "midi": 60,
                    "time": 7.518799999999999,
                    "velocity": 0.2125984251968504,
                    "duration": 0.30075200000000013
                },
                {
                    "name": "G4",
                    "midi": 67,
                    "time": 7.518799999999999,
                    "velocity": 0.25984251968503935,
                    "duration": 0.30075200000000013
                },
                {
                    "name": "G4",
                    "midi": 67,
                    "time": 7.819551999999999,
                    "velocity": 0.25984251968503935,
                    "duration": 0.30075200000000013
                },
                {
                    "name": "F4",
                    "midi": 65,
                    "time": 7.819551999999999,
                    "velocity": 0.2125984251968504,
                    "duration": 0.30075200000000013
                },
                {
                    "name": "E4",
                    "midi": 64,
                    "time": 8.120303999999999,
                    "velocity": 0.23622047244094488,
                    "duration": 0.0751880000000007
                },
                {
                    "name": "G4",
                    "midi": 67,
                    "time": 8.120303999999999,
                    "velocity": 0.28346456692913385,
                    "duration": 0.0751880000000007
                },
                {
                    "name": "B3",
                    "midi": 59,
                    "time": 9.02256,
                    "velocity": 0.23622047244094488,
                    "duration": 0.6015040000000003
                },
                {
                    "name": "G4",
                    "midi": 67,
                    "time": 9.02256,
                    "velocity": 0.28346456692913385,
                    "duration": 1.2030080000000005
                },
                {
                    "name": "C4",
                    "midi": 60,
                    "time": 9.624064,
                    "velocity": 0.25984251968503935,
                    "duration": 0.30075199999999924
                },
                {
                    "name": "G3",
                    "midi": 55,
                    "time": 9.924816,
                    "velocity": 0.28346456692913385,
                    "duration": 0.0751880000000007
                },
                {
                    "name": "C4",
                    "midi": 60,
                    "time": 11.127824,
                    "velocity": 0.31496062992125984,
                    "duration": 0.30075199999999924
                },
                {
                    "name": "G4",
                    "midi": 67,
                    "time": 11.127824,
                    "velocity": 0.3779527559055118,
                    "duration": 0.30075199999999924
                },
                {
                    "name": "G4",
                    "midi": 67,
                    "time": 11.428576,
                    "velocity": 0.3779527559055118,
                    "duration": 0.30075199999999924
                },
                {
                    "name": "F4",
                    "midi": 65,
                    "time": 11.428576,
                    "velocity": 0.31496062992125984,
                    "duration": 0.30075199999999924
                },
                {
                    "name": "E4",
                    "midi": 64,
                    "time": 11.729327999999999,
                    "velocity": 0.3464566929133858,
                    "duration": 0.0751880000000007
                },
                {
                    "name": "G4",
                    "midi": 67,
                    "time": 11.729327999999999,
                    "velocity": 0.4094488188976378,
                    "duration": 0.0751880000000007
                },
                {
                    "name": "C4",
                    "midi": 60,
                    "time": 12.330832,
                    "velocity": 0.3779527559055118,
                    "duration": 0.0751880000000007
                },
                {
                    "name": "E3",
                    "midi": 52,
                    "time": 12.330832,
                    "velocity": 0.31496062992125984,
                    "duration": 0.0751880000000007
                },
                {
                    "name": "F3",
                    "midi": 53,
                    "time": 12.631584,
                    "velocity": 0.3464566929133858,
                    "duration": 0.0751880000000007
                },
                {
                    "name": "C4",
                    "midi": 60,
                    "time": 12.631584,
                    "velocity": 0.4094488188976378,
                    "duration": 0.0751880000000007
                },
                {
                    "name": "G3",
                    "midi": 55,
                    "time": 13.233088,
                    "velocity": 0.31496062992125984,
                    "duration": 0.0751880000000007
                },
                {
                    "name": "F4",
                    "midi": 65,
                    "time": 13.233088,
                    "velocity": 0.3779527559055118,
                    "duration": 0.0751880000000007
                },
                {
                    "name": "E4",
                    "midi": 64,
                    "time": 13.533840000000001,
                    "velocity": 0.4094488188976378,
                    "duration": 0.0751880000000007
                },
                {
                    "name": "C4",
                    "midi": 60,
                    "time": 13.533840000000001,
                    "velocity": 0.3464566929133858,
                    "duration": 0.0751880000000007
                },
                {
                    "name": "B3",
                    "midi": 59,
                    "time": 14.736848000000002,
                    "velocity": 0.2125984251968504,
                    "duration": 0.30075199999999924
                },
                {
                    "name": "G4",
                    "midi": 67,
                    "time": 14.736848000000002,
                    "velocity": 0.25984251968503935,
                    "duration": 0.30075199999999924
                },
                {
                    "name": "G4",
                    "midi": 67,
                    "time": 15.037600000000001,
                    "velocity": 0.25984251968503935,
                    "duration": 0.30075199999999924
                },
                {
                    "name": "C4",
                    "midi": 60,
                    "time": 15.037600000000001,
                    "velocity": 0.2125984251968504,
                    "duration": 0.30075199999999924
                },
                {
                    "name": "G3",
                    "midi": 55,
                    "time": 15.338352,
                    "velocity": 0.23622047244094488,
                    "duration": 0.0751880000000007
                },
                {
                    "name": "G4",
                    "midi": 67,
                    "time": 15.338352,
                    "velocity": 0.28346456692913385,
                    "duration": 0.0751880000000007
                },
                {
                    "name": "E4",
                    "midi": 64,
                    "time": 16.54136,
                    "velocity": 0.29133858267716534,
                    "duration": 0.30075199999999924
                },
                {
                    "name": "G4",
                    "midi": 67,
                    "time": 16.54136,
                    "velocity": 0.36220472440944884,
                    "duration": 0.30075199999999924
                },
                {
                    "name": "F#4",
                    "midi": 66,
                    "time": 16.842112,
                    "velocity": 0.36220472440944884,
                    "duration": 0.30075199999999924
                },
                {
                    "name": "D4",
                    "midi": 62,
                    "time": 16.842112,
                    "velocity": 0.29133858267716534,
                    "duration": 0.30075199999999924
                },
                {
                    "name": "C4",
                    "midi": 60,
                    "time": 17.443616,
                    "velocity": 0.29133858267716534,
                    "duration": 0.30075199999999924
                },
                {
                    "name": "E4",
                    "midi": 64,
                    "time": 17.443616,
                    "velocity": 0.36220472440944884,
                    "duration": 0.30075199999999924
                },
                {
                    "name": "D4",
                    "midi": 62,
                    "time": 17.744367999999998,
                    "velocity": 0.36220472440944884,
                    "duration": 0.30075199999999924
                },
                {
                    "name": "B3",
                    "midi": 59,
                    "time": 17.744367999999998,
                    "velocity": 0.29133858267716534,
                    "duration": 0.30075199999999924
                },
                {
                    "name": "A3",
                    "midi": 57,
                    "time": 18.045119999999997,
                    "velocity": 0.3937007874015748,
                    "duration": 0.6015039999999985
                },
                {
                    "name": "C4",
                    "midi": 60,
                    "time": 18.045119999999997,
                    "velocity": 0.3937007874015748,
                    "duration": 0.6015039999999985
                },
                {
                    "name": "D3",
                    "midi": 50,
                    "time": 18.651009966666663,
                    "velocity": 0.3464566929133858,
                    "duration": 0.3007520000000028
                },
                {
                    "name": "G3",
                    "midi": 55,
                    "time": 18.947376,
                    "velocity": 0.4409448818897638,
                    "duration": 0.2255640000000021
                },
                {
                    "name": "B3",
                    "midi": 59,
                    "time": 19.17294,
                    "velocity": 0.3937007874015748,
                    "duration": 0.0751880000000007
                },
                {
                    "name": "D4",
                    "midi": 62,
                    "time": 19.248128,
                    "velocity": 0.44881889763779526,
                    "duration": 0.22556399999999854
                },
                {
                    "name": "G4",
                    "midi": 67,
                    "time": 19.473692,
                    "velocity": 0.3937007874015748,
                    "duration": 0.0751880000000007
                },
                {
                    "name": "B4",
                    "midi": 71,
                    "time": 19.54888,
                    "velocity": 0.44881889763779526,
                    "duration": 0.22556399999999854
                },
                {
                    "name": "G4",
                    "midi": 67,
                    "time": 19.774444,
                    "velocity": 0.41732283464566927,
                    "duration": 0.0751880000000007
                },
                {
                    "name": "A4",
                    "midi": 69,
                    "time": 19.849632,
                    "velocity": 0.3937007874015748,
                    "duration": 0.6015039999999985
                },
                {
                    "name": "C5",
                    "midi": 72,
                    "time": 19.849632,
                    "velocity": 0.3937007874015748,
                    "duration": 0.6015039999999985
                },
                {
                    "name": "D4",
                    "midi": 62,
                    "time": 20.455521966666666,
                    "velocity": 0.3464566929133858,
                    "duration": 0.3007520000000028
                },
                {
                    "name": "G3",
                    "midi": 55,
                    "time": 20.751888,
                    "velocity": 0.4409448818897638,
                    "duration": 0.2255640000000021
                },
                {
                    "name": "B3",
                    "midi": 59,
                    "time": 20.977452000000003,
                    "velocity": 0.3937007874015748,
                    "duration": 0.0751880000000007
                },
                {
                    "name": "D3",
                    "midi": 50,
                    "time": 21.052640000000004,
                    "velocity": 0.44881889763779526,
                    "duration": 0.22556399999999854
                },
                {
                    "name": "G3",
                    "midi": 55,
                    "time": 21.278204000000002,
                    "velocity": 0.3937007874015748,
                    "duration": 0.0751880000000007
                },
                {
                    "name": "B2",
                    "midi": 47,
                    "time": 21.353392000000003,
                    "velocity": 0.44881889763779526,
                    "duration": 0.2255640000000021
                },
                {
                    "name": "D3",
                    "midi": 50,
                    "time": 21.574570033333337,
                    "velocity": 0.41732283464566927,
                    "duration": 0.0751880000000007
                },
                {
                    "name": "G2",
                    "midi": 43,
                    "time": 21.654144000000006,
                    "velocity": 0.4409448818897638,
                    "duration": 0.30075199999999924
                },
                {
                    "name": "C4",
                    "midi": 60,
                    "time": 22.857152000000006,
                    "velocity": 0.2125984251968504,
                    "duration": 0.30075199999999924
                },
                {
                    "name": "G4",
                    "midi": 67,
                    "time": 22.857152000000006,
                    "velocity": 0.25984251968503935,
                    "duration": 0.30075199999999924
                },
                {
                    "name": "G4",
                    "midi": 67,
                    "time": 23.157904000000006,
                    "velocity": 0.25984251968503935,
                    "duration": 0.30075199999999924
                },
                {
                    "name": "F4",
                    "midi": 65,
                    "time": 23.157904000000006,
                    "velocity": 0.2125984251968504,
                    "duration": 0.30075199999999924
                },
                {
                    "name": "E4",
                    "midi": 64,
                    "time": 23.458656000000005,
                    "velocity": 0.23622047244094488,
                    "duration": 0.0751880000000007
                },
                {
                    "name": "G4",
                    "midi": 67,
                    "time": 23.458656000000005,
                    "velocity": 0.28346456692913385,
                    "duration": 0.0751880000000007
                },
                {
                    "name": "B3",
                    "midi": 59,
                    "time": 24.360912000000006,
                    "velocity": 0.23622047244094488,
                    "duration": 0.6015039999999985
                },
                {
                    "name": "G4",
                    "midi": 67,
                    "time": 24.360912000000006,
                    "velocity": 0.28346456692913385,
                    "duration": 1.203007999999997
                },
                {
                    "name": "C4",
                    "midi": 60,
                    "time": 24.962416000000005,
                    "velocity": 0.25984251968503935,
                    "duration": 0.30075199999999924
                },
                {
                    "name": "G3",
                    "midi": 55,
                    "time": 25.263168000000004,
                    "velocity": 0.28346456692913385,
                    "duration": 0.0751880000000007
                },
                {
                    "name": "C4",
                    "midi": 60,
                    "time": 26.466176000000004,
                    "velocity": 0.31496062992125984,
                    "duration": 0.30075199999999924
                },
                {
                    "name": "G4",
                    "midi": 67,
                    "time": 26.466176000000004,
                    "velocity": 0.3779527559055118,
                    "duration": 0.30075199999999924
                },
                {
                    "name": "G4",
                    "midi": 67,
                    "time": 26.766928000000004,
                    "velocity": 0.3779527559055118,
                    "duration": 0.30075199999999924
                },
                {
                    "name": "F4",
                    "midi": 65,
                    "time": 26.766928000000004,
                    "velocity": 0.31496062992125984,
                    "duration": 0.30075199999999924
                },
                {
                    "name": "E4",
                    "midi": 64,
                    "time": 27.067680000000003,
                    "velocity": 0.3464566929133858,
                    "duration": 0.0751880000000007
                },
                {
                    "name": "G4",
                    "midi": 67,
                    "time": 27.067680000000003,
                    "velocity": 0.4094488188976378,
                    "duration": 0.0751880000000007
                },
                {
                    "name": "C4",
                    "midi": 60,
                    "time": 27.669184000000005,
                    "velocity": 0.3779527559055118,
                    "duration": 0.0751880000000007
                },
                {
                    "name": "E3",
                    "midi": 52,
                    "time": 27.669184000000005,
                    "velocity": 0.31496062992125984,
                    "duration": 0.0751880000000007
                },
                {
                    "name": "F3",
                    "midi": 53,
                    "time": 27.969936000000004,
                    "velocity": 0.3464566929133858,
                    "duration": 0.0751880000000007
                },
                {
                    "name": "C4",
                    "midi": 60,
                    "time": 27.969936000000004,
                    "velocity": 0.4094488188976378,
                    "duration": 0.0751880000000007
                },
                {
                    "name": "G3",
                    "midi": 55,
                    "time": 28.571440000000006,
                    "velocity": 0.31496062992125984,
                    "duration": 0.0751880000000007
                },
                {
                    "name": "F4",
                    "midi": 65,
                    "time": 28.571440000000006,
                    "velocity": 0.3779527559055118,
                    "duration": 0.0751880000000007
                },
                {
                    "name": "E4",
                    "midi": 64,
                    "time": 28.872192000000005,
                    "velocity": 0.4094488188976378,
                    "duration": 0.0751880000000007
                },
                {
                    "name": "C4",
                    "midi": 60,
                    "time": 28.872192000000005,
                    "velocity": 0.3464566929133858,
                    "duration": 0.0751880000000007
                },
                {
                    "name": "B3",
                    "midi": 59,
                    "time": 30.075200000000006,
                    "velocity": 0.2125984251968504,
                    "duration": 0.30075199999999924
                },
                {
                    "name": "G4",
                    "midi": 67,
                    "time": 30.075200000000006,
                    "velocity": 0.25984251968503935,
                    "duration": 0.30075199999999924
                },
                {
                    "name": "G4",
                    "midi": 67,
                    "time": 30.375952000000005,
                    "velocity": 0.25984251968503935,
                    "duration": 0.30075199999999924
                },
                {
                    "name": "C4",
                    "midi": 60,
                    "time": 30.375952000000005,
                    "velocity": 0.2125984251968504,
                    "duration": 0.30075199999999924
                },
                {
                    "name": "G3",
                    "midi": 55,
                    "time": 30.676704000000004,
                    "velocity": 0.23622047244094488,
                    "duration": 0.0751880000000007
                },
                {
                    "name": "G4",
                    "midi": 67,
                    "time": 30.676704000000004,
                    "velocity": 0.28346456692913385,
                    "duration": 0.0751880000000007
                },
                {
                    "name": "E4",
                    "midi": 64,
                    "time": 31.879712000000005,
                    "velocity": 0.29133858267716534,
                    "duration": 0.3007520000000028
                },
                {
                    "name": "G4",
                    "midi": 67,
                    "time": 31.879712000000005,
                    "velocity": 0.36220472440944884,
                    "duration": 0.3007520000000028
                },
                {
                    "name": "F#4",
                    "midi": 66,
                    "time": 32.18046400000001,
                    "velocity": 0.36220472440944884,
                    "duration": 0.3007520000000028
                },
                {
                    "name": "D4",
                    "midi": 62,
                    "time": 32.18046400000001,
                    "velocity": 0.29133858267716534,
                    "duration": 0.3007520000000028
                },
                {
                    "name": "C4",
                    "midi": 60,
                    "time": 32.78196800000001,
                    "velocity": 0.29133858267716534,
                    "duration": 0.3007520000000028
                },
                {
                    "name": "E4",
                    "midi": 64,
                    "time": 32.78196800000001,
                    "velocity": 0.36220472440944884,
                    "duration": 0.3007520000000028
                },
                {
                    "name": "D4",
                    "midi": 62,
                    "time": 33.082720000000016,
                    "velocity": 0.36220472440944884,
                    "duration": 0.3007520000000028
                },
                {
                    "name": "B3",
                    "midi": 59,
                    "time": 33.082720000000016,
                    "velocity": 0.29133858267716534,
                    "duration": 0.3007520000000028
                },
                {
                    "name": "A3",
                    "midi": 57,
                    "time": 33.38347200000002,
                    "velocity": 0.3937007874015748,
                    "duration": 0.6015039999999985
                },
                {
                    "name": "C4",
                    "midi": 60,
                    "time": 33.38347200000002,
                    "velocity": 0.3937007874015748,
                    "duration": 0.6015039999999985
                },
                {
                    "name": "D3",
                    "midi": 50,
                    "time": 33.989361966666685,
                    "velocity": 0.3464566929133858,
                    "duration": 0.3007520000000028
                },
                {
                    "name": "G3",
                    "midi": 55,
                    "time": 34.28572800000002,
                    "velocity": 0.4409448818897638,
                    "duration": 0.22556399999999854
                },
                {
                    "name": "B3",
                    "midi": 59,
                    "time": 34.51129200000002,
                    "velocity": 0.3937007874015748,
                    "duration": 0.07518799999999715
                },
                {
                    "name": "D4",
                    "midi": 62,
                    "time": 34.586480000000016,
                    "velocity": 0.44881889763779526,
                    "duration": 0.22556399999999854
                },
                {
                    "name": "G4",
                    "midi": 67,
                    "time": 34.812044000000014,
                    "velocity": 0.3937007874015748,
                    "duration": 0.07518799999999715
                },
                {
                    "name": "B4",
                    "midi": 71,
                    "time": 34.88723200000001,
                    "velocity": 0.44881889763779526,
                    "duration": 0.22556399999999854
                },
                {
                    "name": "G4",
                    "midi": 67,
                    "time": 35.11279600000001,
                    "velocity": 0.41732283464566927,
                    "duration": 0.07518799999999715
                },
                {
                    "name": "A4",
                    "midi": 69,
                    "time": 35.18798400000001,
                    "velocity": 0.3937007874015748,
                    "duration": 0.6015039999999985
                },
                {
                    "name": "C5",
                    "midi": 72,
                    "time": 35.18798400000001,
                    "velocity": 0.3937007874015748,
                    "duration": 0.6015039999999985
                },
                {
                    "name": "D4",
                    "midi": 62,
                    "time": 35.79387396666667,
                    "velocity": 0.3464566929133858,
                    "duration": 0.3007520000000028
                },
                {
                    "name": "G3",
                    "midi": 55,
                    "time": 36.09024000000001,
                    "velocity": 0.4409448818897638,
                    "duration": 0.22556399999999854
                },
                {
                    "name": "B3",
                    "midi": 59,
                    "time": 36.31580400000001,
                    "velocity": 0.3937007874015748,
                    "duration": 0.07518799999999715
                },
                {
                    "name": "D3",
                    "midi": 50,
                    "time": 36.390992000000004,
                    "velocity": 0.44881889763779526,
                    "duration": 0.22556399999999854
                },
                {
                    "name": "G3",
                    "midi": 55,
                    "time": 36.616556,
                    "velocity": 0.3937007874015748,
                    "duration": 0.07518799999999715
                },
                {
                    "name": "B2",
                    "midi": 47,
                    "time": 36.691744,
                    "velocity": 0.44881889763779526,
                    "duration": 0.22556399999999854
                },
                {
                    "name": "D3",
                    "midi": 50,
                    "time": 36.91292203333333,
                    "velocity": 0.41732283464566927,
                    "duration": 0.07518800000000425
                },
                {
                    "name": "G2",
                    "midi": 43,
                    "time": 36.992496,
                    "velocity": 0.4409448818897638,
                    "duration": 0.3007520000000028
                },
                {
                    "name": "C4",
                    "midi": 60,
                    "time": 38.19550400000001,
                    "velocity": 0.2125984251968504,
                    "duration": 0.3007520000000028
                },
                {
                    "name": "G4",
                    "midi": 67,
                    "time": 38.19550400000001,
                    "velocity": 0.25984251968503935,
                    "duration": 0.3007520000000028
                },
                {
                    "name": "G4",
                    "midi": 67,
                    "time": 38.49625600000001,
                    "velocity": 0.25984251968503935,
                    "duration": 0.3007520000000028
                },
                {
                    "name": "F4",
                    "midi": 65,
                    "time": 38.49625600000001,
                    "velocity": 0.2125984251968504,
                    "duration": 0.3007520000000028
                },
                {
                    "name": "E4",
                    "midi": 64,
                    "time": 38.79700800000001,
                    "velocity": 0.23622047244094488,
                    "duration": 0.07518799999999715
                },
                {
                    "name": "G4",
                    "midi": 67,
                    "time": 38.79700800000001,
                    "velocity": 0.28346456692913385,
                    "duration": 0.07518799999999715
                },
                {
                    "name": "B3",
                    "midi": 59,
                    "time": 39.69926400000001,
                    "velocity": 0.23622047244094488,
                    "duration": 0.6015039999999985
                },
                {
                    "name": "G4",
                    "midi": 67,
                    "time": 39.69926400000001,
                    "velocity": 0.28346456692913385,
                    "duration": 1.203007999999997
                },
                {
                    "name": "C4",
                    "midi": 60,
                    "time": 40.300768000000005,
                    "velocity": 0.25984251968503935,
                    "duration": 0.3007520000000028
                },
                {
                    "name": "G3",
                    "midi": 55,
                    "time": 40.60152000000001,
                    "velocity": 0.28346456692913385,
                    "duration": 0.07518799999999715
                },
                {
                    "name": "C4",
                    "midi": 60,
                    "time": 41.804528000000005,
                    "velocity": 0.31496062992125984,
                    "duration": 0.3007520000000028
                },
                {
                    "name": "G4",
                    "midi": 67,
                    "time": 41.804528000000005,
                    "velocity": 0.3779527559055118,
                    "duration": 0.3007520000000028
                },
                {
                    "name": "G4",
                    "midi": 67,
                    "time": 42.10528000000001,
                    "velocity": 0.3779527559055118,
                    "duration": 0.3007520000000028
                },
                {
                    "name": "F4",
                    "midi": 65,
                    "time": 42.10528000000001,
                    "velocity": 0.31496062992125984,
                    "duration": 0.3007520000000028
                },
                {
                    "name": "E4",
                    "midi": 64,
                    "time": 42.40603200000001,
                    "velocity": 0.3464566929133858,
                    "duration": 0.07518799999999715
                },
                {
                    "name": "G4",
                    "midi": 67,
                    "time": 42.40603200000001,
                    "velocity": 0.4094488188976378,
                    "duration": 0.07518799999999715
                },
                {
                    "name": "C4",
                    "midi": 60,
                    "time": 43.00753600000001,
                    "velocity": 0.3779527559055118,
                    "duration": 0.07518799999999715
                },
                {
                    "name": "E3",
                    "midi": 52,
                    "time": 43.00753600000001,
                    "velocity": 0.31496062992125984,
                    "duration": 0.07518799999999715
                },
                {
                    "name": "F3",
                    "midi": 53,
                    "time": 43.308288000000005,
                    "velocity": 0.3464566929133858,
                    "duration": 0.07518799999999715
                },
                {
                    "name": "C4",
                    "midi": 60,
                    "time": 43.308288000000005,
                    "velocity": 0.4094488188976378,
                    "duration": 0.07518799999999715
                },
                {
                    "name": "G3",
                    "midi": 55,
                    "time": 43.909792,
                    "velocity": 0.31496062992125984,
                    "duration": 0.07518799999999715
                },
                {
                    "name": "F4",
                    "midi": 65,
                    "time": 43.909792,
                    "velocity": 0.3779527559055118,
                    "duration": 0.07518799999999715
                },
                {
                    "name": "E4",
                    "midi": 64,
                    "time": 44.210544,
                    "velocity": 0.4094488188976378,
                    "duration": 0.07518799999999715
                },
                {
                    "name": "C4",
                    "midi": 60,
                    "time": 44.210544,
                    "velocity": 0.3464566929133858,
                    "duration": 0.07518799999999715
                },
                {
                    "name": "C5",
                    "midi": 72,
                    "time": 45.413551999999996,
                    "velocity": 0.25984251968503935,
                    "duration": 0.07518799999999715
                },
                {
                    "name": "A4",
                    "midi": 69,
                    "time": 45.71430399999999,
                    "velocity": 0.25984251968503935,
                    "duration": 0.07518799999999715
                },
                {
                    "name": "B4",
                    "midi": 71,
                    "time": 46.01505599999999,
                    "velocity": 0.28346456692913385,
                    "duration": 0.07518799999999715
                },
                {
                    "name": "F#4",
                    "midi": 66,
                    "time": 46.91731199999998,
                    "velocity": 0.23622047244094488,
                    "duration": 0.6015039999999985
                },
                {
                    "name": "D5",
                    "midi": 74,
                    "time": 46.91731199999998,
                    "velocity": 0.28346456692913385,
                    "duration": 1.203007999999997
                },
                {
                    "name": "G4",
                    "midi": 67,
                    "time": 47.51881599999998,
                    "velocity": 0.25984251968503935,
                    "duration": 0.3007520000000028
                },
                {
                    "name": "D4",
                    "midi": 62,
                    "time": 47.81956799999998,
                    "velocity": 0.28346456692913385,
                    "duration": 0.07518799999999715
                },
                {
                    "name": "G4",
                    "midi": 67,
                    "time": 48.72182399999998,
                    "velocity": 0.4251968503937008,
                    "duration": 0.5263160000000013
                },
                {
                    "name": "A4",
                    "midi": 69,
                    "time": 49.24813999999998,
                    "velocity": 0.3858267716535433,
                    "duration": 0.07518799999999715
                },
                {
                    "name": "F#4",
                    "midi": 66,
                    "time": 49.323327999999975,
                    "velocity": 0.4330708661417323,
                    "duration": 0.22556399999999854
                },
                {
                    "name": "G4",
                    "midi": 67,
                    "time": 49.548891999999974,
                    "velocity": 0.3937007874015748,
                    "duration": 0.07518799999999715
                },
                {
                    "name": "E4",
                    "midi": 64,
                    "time": 49.62407999999997,
                    "velocity": 0.4409448818897638,
                    "duration": 0.22556399999999854
                },
                {
                    "name": "F#4",
                    "midi": 66,
                    "time": 49.84964399999997,
                    "velocity": 0.4094488188976378,
                    "duration": 0.07518799999999715
                },
                {
                    "name": "D4",
                    "midi": 62,
                    "time": 49.92483199999997,
                    "velocity": 0.44881889763779526,
                    "duration": 0.22556399999999854
                },
                {
                    "name": "E4",
                    "midi": 64,
                    "time": 50.150395999999965,
                    "velocity": 0.41732283464566927,
                    "duration": 0.07518799999999715
                },
                {
                    "name": "C4",
                    "midi": 60,
                    "time": 50.22558399999996,
                    "velocity": 0.4645669291338583,
                    "duration": 0.22556399999999854
                },
                {
                    "name": "D4",
                    "midi": 62,
                    "time": 50.45114799999996,
                    "velocity": 0.4251968503937008,
                    "duration": 0.07518799999999715
                },
                {
                    "name": "B3",
                    "midi": 59,
                    "time": 50.52633599999996,
                    "velocity": 0.48031496062992124,
                    "duration": 0.22556399999999854
                },
                {
                    "name": "C4",
                    "midi": 60,
                    "time": 50.75189999999996,
                    "velocity": 0.4409448818897638,
                    "duration": 0.07518799999999715
                },
                {
                    "name": "A3",
                    "midi": 57,
                    "time": 50.827087999999954,
                    "velocity": 0.4881889763779528,
                    "duration": 0.22556399999999854
                },
                {
                    "name": "B3",
                    "midi": 59,
                    "time": 51.05265199999995,
                    "velocity": 0.44881889763779526,
                    "duration": 0.07518799999999715
                },
                {
                    "name": "G3",
                    "midi": 55,
                    "time": 51.12783999999995,
                    "velocity": 0.49606299212598426,
                    "duration": 0.3007520000000028
                },
                {
                    "name": "C4",
                    "midi": 60,
                    "time": 51.42859199999995,
                    "velocity": 0.48031496062992124,
                    "duration": 0.3007520000000028
                },
                {
                    "name": "D4",
                    "midi": 62,
                    "time": 51.729343999999955,
                    "velocity": 0.49606299212598426,
                    "duration": 0.3007520000000028
                },
                {
                    "name": "D4",
                    "midi": 62,
                    "time": 52.03009599999996,
                    "velocity": 0.5118110236220472,
                    "duration": 0.3007520000000028
                },
                {
                    "name": "G4",
                    "midi": 67,
                    "time": 52.33084799999996,
                    "velocity": 0.5826771653543307,
                    "duration": 0.4010026666666633
                },
                {
                    "name": "A4",
                    "midi": 69,
                    "time": 52.731850666666624,
                    "velocity": 0.4409448818897638,
                    "duration": 0.1002506666666676
                },
                {
                    "name": "G4",
                    "midi": 67,
                    "time": 52.83210133333329,
                    "velocity": 0.4409448818897638,
                    "duration": 0.1002506666666676
                },
                {
                    "name": "F#4",
                    "midi": 66,
                    "time": 52.93235199999996,
                    "velocity": 0.5118110236220472,
                    "duration": 0.1002506666666676
                },
                {
                    "name": "G4",
                    "midi": 67,
                    "time": 53.03260266666663,
                    "velocity": 0.4409448818897638,
                    "duration": 0.1002506666666676
                },
                {
                    "name": "F#4",
                    "midi": 66,
                    "time": 53.132853333333294,
                    "velocity": 0.44881889763779526,
                    "duration": 0.1002506666666676
                },
                {
                    "name": "E4",
                    "midi": 64,
                    "time": 53.23310399999996,
                    "velocity": 0.5118110236220472,
                    "duration": 0.1002506666666676
                },
                {
                    "name": "F#4",
                    "midi": 66,
                    "time": 53.33335466666663,
                    "velocity": 0.44881889763779526,
                    "duration": 0.1002506666666676
                },
                {
                    "name": "E4",
                    "midi": 64,
                    "time": 53.4336053333333,
                    "velocity": 0.44881889763779526,
                    "duration": 0.1002506666666676
                },
                {
                    "name": "D4",
                    "midi": 62,
                    "time": 53.533855999999965,
                    "velocity": 0.5118110236220472,
                    "duration": 0.1002506666666676
                },
                {
                    "name": "E4",
                    "midi": 64,
                    "time": 53.63410666666663,
                    "velocity": 0.47244094488188976,
                    "duration": 0.1002506666666676
                },
                {
                    "name": "D4",
                    "midi": 62,
                    "time": 53.7343573333333,
                    "velocity": 0.47244094488188976,
                    "duration": 0.1002506666666676
                },
                {
                    "name": "C4",
                    "midi": 60,
                    "time": 53.83460799999997,
                    "velocity": 0.5118110236220472,
                    "duration": 0.1002506666666676
                },
                {
                    "name": "D4",
                    "midi": 62,
                    "time": 53.934858666666635,
                    "velocity": 0.4645669291338583,
                    "duration": 0.1002506666666676
                },
                {
                    "name": "C4",
                    "midi": 60,
                    "time": 54.0351093333333,
                    "velocity": 0.4645669291338583,
                    "duration": 0.1002506666666676
                },
                {
                    "name": "B3",
                    "midi": 59,
                    "time": 54.13535999999997,
                    "velocity": 0.5118110236220472,
                    "duration": 0.1002506666666676
                },
                {
                    "name": "C4",
                    "midi": 60,
                    "time": 54.23561066666664,
                    "velocity": 0.4566929133858268,
                    "duration": 0.1002506666666676
                },
                {
                    "name": "B3",
                    "midi": 59,
                    "time": 54.335861333333305,
                    "velocity": 0.4566929133858268,
                    "duration": 0.1002506666666676
                },
                {
                    "name": "A3",
                    "midi": 57,
                    "time": 54.43611199999997,
                    "velocity": 0.5118110236220472,
                    "duration": 0.1002506666666676
                },
                {
                    "name": "B3",
                    "midi": 59,
                    "time": 54.53636266666664,
                    "velocity": 0.4566929133858268,
                    "duration": 0.1002506666666676
                },
                {
                    "name": "A3",
                    "midi": 57,
                    "time": 54.63661333333331,
                    "velocity": 0.4566929133858268,
                    "duration": 0.1002506666666676
                },
                {
                    "name": "G3",
                    "midi": 55,
                    "time": 54.736863999999976,
                    "velocity": 0.5118110236220472,
                    "duration": 0.3007520000000028
                },
                {
                    "name": "C4",
                    "midi": 60,
                    "time": 55.03761599999998,
                    "velocity": 0.48031496062992124,
                    "duration": 0.3007520000000028
                },
                {
                    "name": "D4",
                    "midi": 62,
                    "time": 55.33836799999998,
                    "velocity": 0.49606299212598426,
                    "duration": 0.3007520000000028
                },
                {
                    "name": "D4",
                    "midi": 62,
                    "time": 55.639119999999984,
                    "velocity": 0.5118110236220472,
                    "duration": 0.3007520000000028
                },
                {
                    "name": "G3",
                    "midi": 55,
                    "time": 55.93987199999999,
                    "velocity": 0.48031496062992124,
                    "duration": 0.3007520000000028
                },
                {
                    "name": "G4",
                    "midi": 67,
                    "time": 56.84212799999999,
                    "velocity": 0.4251968503937008,
                    "duration": 0.5263160000000013
                },
                {
                    "name": "A4",
                    "midi": 69,
                    "time": 57.36844399999999,
                    "velocity": 0.36220472440944884,
                    "duration": 0.07518799999999715
                },
                {
                    "name": "F4",
                    "midi": 65,
                    "time": 57.44363199999999,
                    "velocity": 0.4094488188976378,
                    "duration": 0.22556399999999854
                },
                {
                    "name": "G4",
                    "midi": 67,
                    "time": 57.669195999999985,
                    "velocity": 0.3700787401574803,
                    "duration": 0.07518799999999715
                },
                {
                    "name": "E4",
                    "midi": 64,
                    "time": 57.74438399999998,
                    "velocity": 0.4251968503937008,
                    "duration": 1.203007999999997
                },
                {
                    "name": "A#4",
                    "midi": 70,
                    "time": 58.045135999999985,
                    "velocity": 0.41732283464566927,
                    "duration": 0.22556399999999854
                },
                {
                    "name": "C5",
                    "midi": 72,
                    "time": 58.270699999999984,
                    "velocity": 0.36220472440944884,
                    "duration": 0.07518799999999715
                },
                {
                    "name": "A4",
                    "midi": 69,
                    "time": 58.34588799999998,
                    "velocity": 0.4094488188976378,
                    "duration": 0.22556399999999854
                },
                {
                    "name": "A#4",
                    "midi": 70,
                    "time": 58.57145199999998,
                    "velocity": 0.4094488188976378,
                    "duration": 0.07518799999999715
                },
                {
                    "name": "G4",
                    "midi": 67,
                    "time": 58.64663999999998,
                    "velocity": 0.4251968503937008,
                    "duration": 0.3007520000000028
                },
                {
                    "name": "G4",
                    "midi": 67,
                    "time": 58.94739199999998,
                    "velocity": 0.36220472440944884,
                    "duration": 0.3007520000000028
                },
                {
                    "name": "A#4",
                    "midi": 70,
                    "time": 58.94739199999998,
                    "velocity": 0.36220472440944884,
                    "duration": 0.3007520000000028
                },
                {
                    "name": "F4",
                    "midi": 65,
                    "time": 59.24814399999998,
                    "velocity": 0.3779527559055118,
                    "duration": 0.3007520000000028
                },
                {
                    "name": "A4",
                    "midi": 69,
                    "time": 59.24814399999998,
                    "velocity": 0.3779527559055118,
                    "duration": 0.3007520000000028
                },
                {
                    "name": "E4",
                    "midi": 64,
                    "time": 59.548895999999985,
                    "velocity": 0.3779527559055118,
                    "duration": 0.3007520000000028
                },
                {
                    "name": "G4",
                    "midi": 67,
                    "time": 59.548895999999985,
                    "velocity": 0.3779527559055118,
                    "duration": 0.3007520000000028
                },
                {
                    "name": "G3",
                    "midi": 55,
                    "time": 59.84964799999999,
                    "velocity": 0.41732283464566927,
                    "duration": 0.22556399999999854
                },
                {
                    "name": "A3",
                    "midi": 57,
                    "time": 60.075211999999986,
                    "velocity": 0.33858267716535434,
                    "duration": 0.07518799999999715
                },
                {
                    "name": "F3",
                    "midi": 53,
                    "time": 60.15039999999998,
                    "velocity": 0.41732283464566927,
                    "duration": 0.22556399999999854
                },
                {
                    "name": "G3",
                    "midi": 55,
                    "time": 60.37596399999998,
                    "velocity": 0.33070866141732286,
                    "duration": 0.07518799999999715
                },
                {
                    "name": "E3",
                    "midi": 52,
                    "time": 60.45115199999998,
                    "velocity": 0.41732283464566927,
                    "duration": 0.22556399999999854
                },
                {
                    "name": "F3",
                    "midi": 53,
                    "time": 60.67671599999998,
                    "velocity": 0.33070866141732286,
                    "duration": 0.07518799999999715
                },
                {
                    "name": "D3",
                    "midi": 50,
                    "time": 60.751903999999975,
                    "velocity": 0.41732283464566927,
                    "duration": 0.3007520000000028
                },
                {
                    "name": "E3",
                    "midi": 52,
                    "time": 61.05265599999998,
                    "velocity": 0.41732283464566927,
                    "duration": 0.3007520000000028
                },
                {
                    "name": "G3",
                    "midi": 55,
                    "time": 61.05265599999998,
                    "velocity": 0.41732283464566927,
                    "duration": 0.3007520000000028
                },
                {
                    "name": "F3",
                    "midi": 53,
                    "time": 61.35340799999998,
                    "velocity": 0.41732283464566927,
                    "duration": 0.6015039999999985
                },
                {
                    "name": "A3",
                    "midi": 57,
                    "time": 61.35340799999998,
                    "velocity": 0.41732283464566927,
                    "duration": 0.9022560000000013
                },
                {
                    "name": "F#3",
                    "midi": 54,
                    "time": 61.95491199999998,
                    "velocity": 0.41732283464566927,
                    "duration": 0.3007520000000028
                },
                {
                    "name": "G3",
                    "midi": 55,
                    "time": 62.25566399999998,
                    "velocity": 0.41732283464566927,
                    "duration": 0.3007520000000028
                },
                {
                    "name": "E4",
                    "midi": 64,
                    "time": 63.458671999999986,
                    "velocity": 0.25984251968503935,
                    "duration": 0.3007520000000028
                },
                {
                    "name": "C4",
                    "midi": 60,
                    "time": 63.458671999999986,
                    "velocity": 0.2125984251968504,
                    "duration": 0.3007520000000028
                },
                {
                    "name": "G3",
                    "midi": 55,
                    "time": 63.75942399999999,
                    "velocity": 0.2125984251968504,
                    "duration": 0.3007519999999957
                },
                {
                    "name": "F4",
                    "midi": 65,
                    "time": 63.75942399999999,
                    "velocity": 0.25984251968503935,
                    "duration": 0.3007519999999957
                },
                {
                    "name": "C4",
                    "midi": 60,
                    "time": 64.06017599999998,
                    "velocity": 0.23622047244094488,
                    "duration": 0.07518799999999715
                },
                {
                    "name": "E4",
                    "midi": 64,
                    "time": 64.06017599999998,
                    "velocity": 0.28346456692913385,
                    "duration": 0.07518799999999715
                },
                {
                    "name": "B3",
                    "midi": 59,
                    "time": 64.96243199999998,
                    "velocity": 0.23622047244094488,
                    "duration": 0.6015040000000056
                },
                {
                    "name": "G4",
                    "midi": 67,
                    "time": 64.96243199999998,
                    "velocity": 0.28346456692913385,
                    "duration": 1.2030080000000112
                },
                {
                    "name": "C4",
                    "midi": 60,
                    "time": 65.56393599999998,
                    "velocity": 0.25984251968503935,
                    "duration": 0.3007520000000028
                },
                {
                    "name": "G3",
                    "midi": 55,
                    "time": 65.86468799999999,
                    "velocity": 0.28346456692913385,
                    "duration": 0.07518799999999715
                },
                {
                    "name": "C4",
                    "midi": 60,
                    "time": 67.06769599999998,
                    "velocity": 0.31496062992125984,
                    "duration": 0.3007520000000028
                },
                {
                    "name": "G4",
                    "midi": 67,
                    "time": 67.06769599999998,
                    "velocity": 0.3779527559055118,
                    "duration": 0.3007520000000028
                },
                {
                    "name": "G4",
                    "midi": 67,
                    "time": 67.36844799999999,
                    "velocity": 0.3779527559055118,
                    "duration": 0.3007520000000028
                },
                {
                    "name": "F4",
                    "midi": 65,
                    "time": 67.36844799999999,
                    "velocity": 0.31496062992125984,
                    "duration": 0.3007520000000028
                },
                {
                    "name": "E4",
                    "midi": 64,
                    "time": 67.66919999999999,
                    "velocity": 0.3464566929133858,
                    "duration": 0.07518799999999715
                },
                {
                    "name": "G4",
                    "midi": 67,
                    "time": 67.66919999999999,
                    "velocity": 0.4094488188976378,
                    "duration": 0.07518799999999715
                },
                {
                    "name": "C4",
                    "midi": 60,
                    "time": 68.27070399999998,
                    "velocity": 0.3779527559055118,
                    "duration": 0.07518799999999715
                },
                {
                    "name": "E3",
                    "midi": 52,
                    "time": 68.27070399999998,
                    "velocity": 0.31496062992125984,
                    "duration": 0.07518799999999715
                },
                {
                    "name": "F3",
                    "midi": 53,
                    "time": 68.57145599999998,
                    "velocity": 0.3464566929133858,
                    "duration": 0.07518799999999715
                },
                {
                    "name": "C4",
                    "midi": 60,
                    "time": 68.57145599999998,
                    "velocity": 0.4094488188976378,
                    "duration": 0.07518799999999715
                },
                {
                    "name": "G3",
                    "midi": 55,
                    "time": 69.17295999999997,
                    "velocity": 0.31496062992125984,
                    "duration": 0.07518799999999715
                },
                {
                    "name": "F4",
                    "midi": 65,
                    "time": 69.17295999999997,
                    "velocity": 0.3779527559055118,
                    "duration": 0.07518799999999715
                },
                {
                    "name": "E4",
                    "midi": 64,
                    "time": 69.47371199999998,
                    "velocity": 0.4094488188976378,
                    "duration": 0.07518799999999715
                },
                {
                    "name": "C4",
                    "midi": 60,
                    "time": 69.47371199999998,
                    "velocity": 0.3464566929133858,
                    "duration": 0.07518799999999715
                },
                {
                    "name": "C5",
                    "midi": 72,
                    "time": 70.67671999999997,
                    "velocity": 0.25984251968503935,
                    "duration": 0.07518799999999715
                },
                {
                    "name": "A4",
                    "midi": 69,
                    "time": 70.97747199999998,
                    "velocity": 0.25984251968503935,
                    "duration": 0.07518799999999715
                },
                {
                    "name": "B4",
                    "midi": 71,
                    "time": 71.27822399999998,
                    "velocity": 0.28346456692913385,
                    "duration": 0.07518799999999715
                },
                {
                    "name": "F#4",
                    "midi": 66,
                    "time": 72.18047999999997,
                    "velocity": 0.23622047244094488,
                    "duration": 0.6015040000000056
                },
                {
                    "name": "D5",
                    "midi": 74,
                    "time": 72.18047999999997,
                    "velocity": 0.28346456692913385,
                    "duration": 1.2030080000000112
                },
                {
                    "name": "G4",
                    "midi": 67,
                    "time": 72.78198399999998,
                    "velocity": 0.25984251968503935,
                    "duration": 0.3007520000000028
                },
                {
                    "name": "D4",
                    "midi": 62,
                    "time": 73.08273599999998,
                    "velocity": 0.28346456692913385,
                    "duration": 0.07518799999999715
                },
                {
                    "name": "G4",
                    "midi": 67,
                    "time": 73.98499199999999,
                    "velocity": 0.4251968503937008,
                    "duration": 0.5263159999999942
                },
                {
                    "name": "A4",
                    "midi": 69,
                    "time": 74.51130799999999,
                    "velocity": 0.3858267716535433,
                    "duration": 0.07518799999999715
                },
                {
                    "name": "F#4",
                    "midi": 66,
                    "time": 74.58649599999998,
                    "velocity": 0.4330708661417323,
                    "duration": 0.22556400000000565
                },
                {
                    "name": "G4",
                    "midi": 67,
                    "time": 74.81205999999999,
                    "velocity": 0.3937007874015748,
                    "duration": 0.07518799999999715
                },
                {
                    "name": "E4",
                    "midi": 64,
                    "time": 74.88724799999999,
                    "velocity": 0.4409448818897638,
                    "duration": 0.22556400000000565
                },
                {
                    "name": "F#4",
                    "midi": 66,
                    "time": 75.11281199999999,
                    "velocity": 0.4094488188976378,
                    "duration": 0.07518799999999715
                },
                {
                    "name": "D4",
                    "midi": 62,
                    "time": 75.18799999999999,
                    "velocity": 0.44881889763779526,
                    "duration": 0.22556400000000565
                },
                {
                    "name": "E4",
                    "midi": 64,
                    "time": 75.413564,
                    "velocity": 0.41732283464566927,
                    "duration": 0.07518799999999715
                },
                {
                    "name": "C4",
                    "midi": 60,
                    "time": 75.48875199999999,
                    "velocity": 0.4645669291338583,
                    "duration": 0.22556400000000565
                },
                {
                    "name": "D4",
                    "midi": 62,
                    "time": 75.714316,
                    "velocity": 0.4251968503937008,
                    "duration": 0.07518799999999715
                },
                {
                    "name": "B3",
                    "midi": 59,
                    "time": 75.789504,
                    "velocity": 0.48031496062992124,
                    "duration": 0.22556400000000565
                },
                {
                    "name": "C4",
                    "midi": 60,
                    "time": 76.015068,
                    "velocity": 0.4409448818897638,
                    "duration": 0.07518799999999715
                },
                {
                    "name": "A3",
                    "midi": 57,
                    "time": 76.090256,
                    "velocity": 0.4881889763779528,
                    "duration": 0.22556400000000565
                },
                {
                    "name": "B3",
                    "midi": 59,
                    "time": 76.31582,
                    "velocity": 0.44881889763779526,
                    "duration": 0.07518799999999715
                },
                {
                    "name": "G3",
                    "midi": 55,
                    "time": 76.391008,
                    "velocity": 0.49606299212598426,
                    "duration": 0.3007520000000028
                },
                {
                    "name": "C4",
                    "midi": 60,
                    "time": 76.69176,
                    "velocity": 0.48031496062992124,
                    "duration": 0.3007520000000028
                },
                {
                    "name": "D4",
                    "midi": 62,
                    "time": 76.992512,
                    "velocity": 0.49606299212598426,
                    "duration": 0.3007520000000028
                },
                {
                    "name": "D4",
                    "midi": 62,
                    "time": 77.29326400000001,
                    "velocity": 0.5118110236220472,
                    "duration": 0.3007520000000028
                },
                {
                    "name": "G4",
                    "midi": 67,
                    "time": 77.59401600000001,
                    "velocity": 0.5826771653543307,
                    "duration": 0.4010026666666704
                },
                {
                    "name": "A4",
                    "midi": 69,
                    "time": 77.99501866666668,
                    "velocity": 0.4409448818897638,
                    "duration": 0.1002506666666676
                },
                {
                    "name": "G4",
                    "midi": 67,
                    "time": 78.09526933333335,
                    "velocity": 0.4409448818897638,
                    "duration": 0.1002506666666676
                },
                {
                    "name": "F#4",
                    "midi": 66,
                    "time": 78.19552000000002,
                    "velocity": 0.5118110236220472,
                    "duration": 0.1002506666666676
                },
                {
                    "name": "G4",
                    "midi": 67,
                    "time": 78.29577066666668,
                    "velocity": 0.4409448818897638,
                    "duration": 0.1002506666666676
                },
                {
                    "name": "F#4",
                    "midi": 66,
                    "time": 78.39602133333335,
                    "velocity": 0.44881889763779526,
                    "duration": 0.1002506666666676
                },
                {
                    "name": "E4",
                    "midi": 64,
                    "time": 78.49627200000002,
                    "velocity": 0.5118110236220472,
                    "duration": 0.1002506666666676
                },
                {
                    "name": "F#4",
                    "midi": 66,
                    "time": 78.59652266666669,
                    "velocity": 0.44881889763779526,
                    "duration": 0.1002506666666676
                },
                {
                    "name": "E4",
                    "midi": 64,
                    "time": 78.69677333333335,
                    "velocity": 0.44881889763779526,
                    "duration": 0.1002506666666676
                },
                {
                    "name": "D4",
                    "midi": 62,
                    "time": 78.79702400000002,
                    "velocity": 0.5118110236220472,
                    "duration": 0.1002506666666676
                },
                {
                    "name": "E4",
                    "midi": 64,
                    "time": 78.89727466666669,
                    "velocity": 0.47244094488188976,
                    "duration": 0.1002506666666676
                },
                {
                    "name": "D4",
                    "midi": 62,
                    "time": 78.99752533333336,
                    "velocity": 0.47244094488188976,
                    "duration": 0.1002506666666676
                },
                {
                    "name": "C4",
                    "midi": 60,
                    "time": 79.09777600000002,
                    "velocity": 0.5118110236220472,
                    "duration": 0.1002506666666676
                },
                {
                    "name": "D4",
                    "midi": 62,
                    "time": 79.19802666666669,
                    "velocity": 0.4645669291338583,
                    "duration": 0.1002506666666676
                },
                {
                    "name": "C4",
                    "midi": 60,
                    "time": 79.29827733333336,
                    "velocity": 0.4645669291338583,
                    "duration": 0.1002506666666676
                },
                {
                    "name": "B3",
                    "midi": 59,
                    "time": 79.39852800000003,
                    "velocity": 0.5118110236220472,
                    "duration": 0.1002506666666676
                },
                {
                    "name": "C4",
                    "midi": 60,
                    "time": 79.4987786666667,
                    "velocity": 0.4566929133858268,
                    "duration": 0.1002506666666676
                },
                {
                    "name": "B3",
                    "midi": 59,
                    "time": 79.59902933333336,
                    "velocity": 0.4566929133858268,
                    "duration": 0.1002506666666676
                },
                {
                    "name": "A3",
                    "midi": 57,
                    "time": 79.69928000000003,
                    "velocity": 0.5118110236220472,
                    "duration": 0.1002506666666676
                },
                {
                    "name": "B3",
                    "midi": 59,
                    "time": 79.7995306666667,
                    "velocity": 0.4566929133858268,
                    "duration": 0.1002506666666676
                },
                {
                    "name": "A3",
                    "midi": 57,
                    "time": 79.89978133333337,
                    "velocity": 0.4566929133858268,
                    "duration": 0.1002506666666676
                },
                {
                    "name": "G3",
                    "midi": 55,
                    "time": 80.00003200000003,
                    "velocity": 0.5118110236220472,
                    "duration": 0.3007520000000028
                },
                {
                    "name": "C4",
                    "midi": 60,
                    "time": 80.30078400000004,
                    "velocity": 0.48031496062992124,
                    "duration": 0.3007520000000028
                },
                {
                    "name": "D4",
                    "midi": 62,
                    "time": 80.60153600000004,
                    "velocity": 0.49606299212598426,
                    "duration": 0.3007520000000028
                },
                {
                    "name": "D4",
                    "midi": 62,
                    "time": 80.90228800000004,
                    "velocity": 0.5118110236220472,
                    "duration": 0.3007520000000028
                },
                {
                    "name": "G3",
                    "midi": 55,
                    "time": 81.20304000000004,
                    "velocity": 0.48031496062992124,
                    "duration": 0.3007520000000028
                },
                {
                    "name": "G4",
                    "midi": 67,
                    "time": 82.10529600000005,
                    "velocity": 0.4251968503937008,
                    "duration": 0.5263159999999942
                },
                {
                    "name": "A4",
                    "midi": 69,
                    "time": 82.63161200000005,
                    "velocity": 0.36220472440944884,
                    "duration": 0.07518799999999715
                },
                {
                    "name": "F4",
                    "midi": 65,
                    "time": 82.70680000000004,
                    "velocity": 0.4094488188976378,
                    "duration": 0.22556400000000565
                },
                {
                    "name": "G4",
                    "midi": 67,
                    "time": 82.93236400000005,
                    "velocity": 0.3700787401574803,
                    "duration": 0.07518799999999715
                },
                {
                    "name": "E4",
                    "midi": 64,
                    "time": 83.00755200000005,
                    "velocity": 0.4251968503937008,
                    "duration": 1.2030080000000112
                },
                {
                    "name": "A#4",
                    "midi": 70,
                    "time": 83.30830400000005,
                    "velocity": 0.41732283464566927,
                    "duration": 0.22556400000000565
                },
                {
                    "name": "C5",
                    "midi": 72,
                    "time": 83.53386800000006,
                    "velocity": 0.36220472440944884,
                    "duration": 0.07518799999999715
                },
                {
                    "name": "A4",
                    "midi": 69,
                    "time": 83.60905600000005,
                    "velocity": 0.4094488188976378,
                    "duration": 0.22556400000000565
                },
                {
                    "name": "A#4",
                    "midi": 70,
                    "time": 83.83462000000006,
                    "velocity": 0.4094488188976378,
                    "duration": 0.07518799999999715
                },
                {
                    "name": "G4",
                    "midi": 67,
                    "time": 83.90980800000006,
                    "velocity": 0.4251968503937008,
                    "duration": 0.3007520000000028
                },
                {
                    "name": "G4",
                    "midi": 67,
                    "time": 84.21056000000006,
                    "velocity": 0.36220472440944884,
                    "duration": 0.3007520000000028
                },
                {
                    "name": "A#4",
                    "midi": 70,
                    "time": 84.21056000000006,
                    "velocity": 0.36220472440944884,
                    "duration": 0.3007520000000028
                },
                {
                    "name": "F4",
                    "midi": 65,
                    "time": 84.51131200000006,
                    "velocity": 0.3779527559055118,
                    "duration": 0.3007520000000028
                },
                {
                    "name": "A4",
                    "midi": 69,
                    "time": 84.51131200000006,
                    "velocity": 0.3779527559055118,
                    "duration": 0.3007520000000028
                },
                {
                    "name": "E4",
                    "midi": 64,
                    "time": 84.81206400000006,
                    "velocity": 0.3779527559055118,
                    "duration": 0.3007520000000028
                },
                {
                    "name": "G4",
                    "midi": 67,
                    "time": 84.81206400000006,
                    "velocity": 0.3779527559055118,
                    "duration": 0.3007520000000028
                },
                {
                    "name": "G3",
                    "midi": 55,
                    "time": 85.11281600000007,
                    "velocity": 0.41732283464566927,
                    "duration": 0.22556400000000565
                },
                {
                    "name": "A3",
                    "midi": 57,
                    "time": 85.33838000000007,
                    "velocity": 0.33858267716535434,
                    "duration": 0.07518799999999715
                },
                {
                    "name": "F3",
                    "midi": 53,
                    "time": 85.41356800000007,
                    "velocity": 0.41732283464566927,
                    "duration": 0.22556400000000565
                },
                {
                    "name": "G3",
                    "midi": 55,
                    "time": 85.63913200000007,
                    "velocity": 0.33070866141732286,
                    "duration": 0.07518799999999715
                },
                {
                    "name": "E3",
                    "midi": 52,
                    "time": 85.71432000000007,
                    "velocity": 0.41732283464566927,
                    "duration": 0.22556400000000565
                },
                {
                    "name": "F3",
                    "midi": 53,
                    "time": 85.93988400000008,
                    "velocity": 0.33070866141732286,
                    "duration": 0.07518799999999715
                },
                {
                    "name": "D3",
                    "midi": 50,
                    "time": 86.01507200000007,
                    "velocity": 0.41732283464566927,
                    "duration": 0.3007520000000028
                },
                {
                    "name": "E3",
                    "midi": 52,
                    "time": 86.31582400000008,
                    "velocity": 0.41732283464566927,
                    "duration": 0.3007520000000028
                },
                {
                    "name": "G3",
                    "midi": 55,
                    "time": 86.31582400000008,
                    "velocity": 0.41732283464566927,
                    "duration": 0.3007520000000028
                },
                {
                    "name": "F3",
                    "midi": 53,
                    "time": 86.61657600000008,
                    "velocity": 0.41732283464566927,
                    "duration": 0.6015040000000056
                },
                {
                    "name": "A3",
                    "midi": 57,
                    "time": 86.61657600000008,
                    "velocity": 0.41732283464566927,
                    "duration": 0.9022560000000084
                },
                {
                    "name": "F#3",
                    "midi": 54,
                    "time": 87.21808000000009,
                    "velocity": 0.41732283464566927,
                    "duration": 0.3007520000000028
                },
                {
                    "name": "G3",
                    "midi": 55,
                    "time": 87.51883200000009,
                    "velocity": 0.41732283464566927,
                    "duration": 0.3007520000000028
                },
                {
                    "name": "E4",
                    "midi": 64,
                    "time": 88.72184000000009,
                    "velocity": 0.25984251968503935,
                    "duration": 0.3007520000000028
                },
                {
                    "name": "C4",
                    "midi": 60,
                    "time": 88.72184000000009,
                    "velocity": 0.2125984251968504,
                    "duration": 0.3007520000000028
                },
                {
                    "name": "G3",
                    "midi": 55,
                    "time": 89.02259200000009,
                    "velocity": 0.2125984251968504,
                    "duration": 0.3007520000000028
                },
                {
                    "name": "F4",
                    "midi": 65,
                    "time": 89.02259200000009,
                    "velocity": 0.25984251968503935,
                    "duration": 0.3007520000000028
                },
                {
                    "name": "C4",
                    "midi": 60,
                    "time": 89.32334400000009,
                    "velocity": 0.23622047244094488,
                    "duration": 0.07518799999999715
                },
                {
                    "name": "E4",
                    "midi": 64,
                    "time": 89.32334400000009,
                    "velocity": 0.28346456692913385,
                    "duration": 0.07518799999999715
                },
                {
                    "name": "B3",
                    "midi": 59,
                    "time": 90.22560000000009,
                    "velocity": 0.23622047244094488,
                    "duration": 0.6015040000000056
                },
                {
                    "name": "G4",
                    "midi": 67,
                    "time": 90.22560000000009,
                    "velocity": 0.28346456692913385,
                    "duration": 1.2030080000000112
                },
                {
                    "name": "C4",
                    "midi": 60,
                    "time": 90.82710400000009,
                    "velocity": 0.25984251968503935,
                    "duration": 0.3007520000000028
                },
                {
                    "name": "G3",
                    "midi": 55,
                    "time": 91.1278560000001,
                    "velocity": 0.28346456692913385,
                    "duration": 0.07518799999999715
                },
                {
                    "name": "C4",
                    "midi": 60,
                    "time": 92.33086400000009,
                    "velocity": 0.31496062992125984,
                    "duration": 0.3007520000000028
                },
                {
                    "name": "G4",
                    "midi": 67,
                    "time": 92.33086400000009,
                    "velocity": 0.3779527559055118,
                    "duration": 0.3007520000000028
                },
                {
                    "name": "G4",
                    "midi": 67,
                    "time": 92.6316160000001,
                    "velocity": 0.3779527559055118,
                    "duration": 0.3007520000000028
                },
                {
                    "name": "F4",
                    "midi": 65,
                    "time": 92.6316160000001,
                    "velocity": 0.31496062992125984,
                    "duration": 0.3007520000000028
                },
                {
                    "name": "E4",
                    "midi": 64,
                    "time": 92.9323680000001,
                    "velocity": 0.3464566929133858,
                    "duration": 0.07518799999999715
                },
                {
                    "name": "G4",
                    "midi": 67,
                    "time": 92.9323680000001,
                    "velocity": 0.4094488188976378,
                    "duration": 0.07518799999999715
                },
                {
                    "name": "C4",
                    "midi": 60,
                    "time": 93.53387200000009,
                    "velocity": 0.3779527559055118,
                    "duration": 0.07518799999999715
                },
                {
                    "name": "E3",
                    "midi": 52,
                    "time": 93.53387200000009,
                    "velocity": 0.31496062992125984,
                    "duration": 0.07518799999999715
                },
                {
                    "name": "F3",
                    "midi": 53,
                    "time": 93.83462400000009,
                    "velocity": 0.3464566929133858,
                    "duration": 0.07518799999999715
                },
                {
                    "name": "C4",
                    "midi": 60,
                    "time": 93.83462400000009,
                    "velocity": 0.4094488188976378,
                    "duration": 0.07518799999999715
                },
                {
                    "name": "G3",
                    "midi": 55,
                    "time": 94.43612800000008,
                    "velocity": 0.31496062992125984,
                    "duration": 0.07518799999999715
                },
                {
                    "name": "F4",
                    "midi": 65,
                    "time": 94.43612800000008,
                    "velocity": 0.3779527559055118,
                    "duration": 0.07518799999999715
                },
                {
                    "name": "E4",
                    "midi": 64,
                    "time": 94.73688000000008,
                    "velocity": 0.4094488188976378,
                    "duration": 0.07518799999999715
                },
                {
                    "name": "C4",
                    "midi": 60,
                    "time": 94.73688000000008,
                    "velocity": 0.3464566929133858,
                    "duration": 0.07518799999999715
                },
                {
                    "name": "C2",
                    "midi": 36,
                    "time": 95.63913600000008,
                    "velocity": 0.31496062992125984,
                    "duration": 0.1503759999999943
                },
                {
                    "name": "C3",
                    "midi": 48,
                    "time": 95.78951200000007,
                    "velocity": 0.2204724409448819,
                    "duration": 0.1503759999999943
                },
                {
                    "name": "D2",
                    "midi": 38,
                    "time": 95.93988800000007,
                    "velocity": 0.25196850393700787,
                    "duration": 0.1503759999999943
                },
                {
                    "name": "D3",
                    "midi": 50,
                    "time": 96.09026400000006,
                    "velocity": 0.2204724409448819,
                    "duration": 0.1503759999999943
                },
                {
                    "name": "D#2",
                    "midi": 39,
                    "time": 96.24064000000006,
                    "velocity": 0.25196850393700787,
                    "duration": 0.1503759999999943
                },
                {
                    "name": "D#3",
                    "midi": 51,
                    "time": 96.39101600000005,
                    "velocity": 0.2204724409448819,
                    "duration": 0.1503759999999943
                },
                {
                    "name": "F2",
                    "midi": 41,
                    "time": 96.54139200000004,
                    "velocity": 0.31496062992125984,
                    "duration": 0.1503759999999943
                },
                {
                    "name": "F3",
                    "midi": 53,
                    "time": 96.69176800000004,
                    "velocity": 0.23622047244094488,
                    "duration": 0.1503759999999943
                },
                {
                    "name": "G2",
                    "midi": 43,
                    "time": 96.84214400000003,
                    "velocity": 0.2677165354330709,
                    "duration": 0.1503759999999943
                },
                {
                    "name": "G3",
                    "midi": 55,
                    "time": 96.99252000000003,
                    "velocity": 0.23622047244094488,
                    "duration": 0.1503759999999943
                },
                {
                    "name": "G#2",
                    "midi": 44,
                    "time": 97.14289600000002,
                    "velocity": 0.2677165354330709,
                    "duration": 0.1503759999999943
                },
                {
                    "name": "G#3",
                    "midi": 56,
                    "time": 97.29327200000002,
                    "velocity": 0.23622047244094488,
                    "duration": 0.1503759999999943
                },
                {
                    "name": "G2",
                    "midi": 43,
                    "time": 97.44364800000001,
                    "velocity": 0.31496062992125984,
                    "duration": 0.1503759999999943
                },
                {
                    "name": "G3",
                    "midi": 55,
                    "time": 97.594024,
                    "velocity": 0.25196850393700787,
                    "duration": 0.1503759999999943
                },
                {
                    "name": "A2",
                    "midi": 45,
                    "time": 97.7444,
                    "velocity": 0.29133858267716534,
                    "duration": 0.1503759999999943
                },
                {
                    "name": "A3",
                    "midi": 57,
                    "time": 97.894776,
                    "velocity": 0.2677165354330709,
                    "duration": 0.1503759999999943
                },
                {
                    "name": "B2",
                    "midi": 47,
                    "time": 98.04515199999999,
                    "velocity": 0.30708661417322836,
                    "duration": 0.1503759999999943
                },
                {
                    "name": "B3",
                    "midi": 59,
                    "time": 98.19552799999998,
                    "velocity": 0.2677165354330709,
                    "duration": 0.1503759999999943
                },
                {
                    "name": "C3",
                    "midi": 48,
                    "time": 98.34590399999998,
                    "velocity": 0.33858267716535434,
                    "duration": 0.1503759999999943
                },
                {
                    "name": "C4",
                    "midi": 60,
                    "time": 98.49627999999997,
                    "velocity": 0.2440944881889764,
                    "duration": 0.1503759999999943
                },
                {
                    "name": "D#3",
                    "midi": 51,
                    "time": 98.64665599999996,
                    "velocity": 0.28346456692913385,
                    "duration": 0.1503759999999943
                },
                {
                    "name": "D#4",
                    "midi": 63,
                    "time": 98.79703199999996,
                    "velocity": 0.2440944881889764,
                    "duration": 0.1503759999999943
                },
                {
                    "name": "G3",
                    "midi": 55,
                    "time": 98.94740799999995,
                    "velocity": 0.2440944881889764,
                    "duration": 0.1503759999999943
                },
                {
                    "name": "G4",
                    "midi": 67,
                    "time": 99.09778399999995,
                    "velocity": 0.2755905511811024,
                    "duration": 0.1503759999999943
                },
                {
                    "name": "G#3",
                    "midi": 56,
                    "time": 99.24815999999994,
                    "velocity": 0.2677165354330709,
                    "duration": 0.9022559999999942
                },
                {
                    "name": "G#4",
                    "midi": 68,
                    "time": 99.24815999999994,
                    "velocity": 0.31496062992125984,
                    "duration": 0.9022559999999942
                },
                {
                    "name": "A#3",
                    "midi": 58,
                    "time": 100.15041599999994,
                    "velocity": 0.25196850393700787,
                    "duration": 0.9022560000000084
                },
                {
                    "name": "G#3",
                    "midi": 56,
                    "time": 100.15041599999994,
                    "velocity": 0.25196850393700787,
                    "duration": 0.6015040000000056
                },
                {
                    "name": "F4",
                    "midi": 65,
                    "time": 100.15041599999994,
                    "velocity": 0.2992125984251969,
                    "duration": 0.6015040000000056
                },
                {
                    "name": "G3",
                    "midi": 55,
                    "time": 100.75191999999994,
                    "velocity": 0.2440944881889764,
                    "duration": 0.3007520000000028
                },
                {
                    "name": "D#4",
                    "midi": 63,
                    "time": 100.75191999999994,
                    "velocity": 0.29133858267716534,
                    "duration": 0.3007520000000028
                },
                {
                    "name": "G#3",
                    "midi": 56,
                    "time": 101.05267199999994,
                    "velocity": 0.36220472440944884,
                    "duration": 0.3007520000000028
                },
                {
                    "name": "A#3",
                    "midi": 58,
                    "time": 101.35342399999995,
                    "velocity": 0.33070866141732286,
                    "duration": 0.3007520000000028
                },
                {
                    "name": "A#2",
                    "midi": 46,
                    "time": 101.65417599999995,
                    "velocity": 0.3464566929133858,
                    "duration": 0.3007520000000028
                },
                {
                    "name": "D#3",
                    "midi": 51,
                    "time": 101.95492799999995,
                    "velocity": 0.3543307086614173,
                    "duration": 0.3007520000000028
                },
                {
                    "name": "G3",
                    "midi": 55,
                    "time": 102.25567999999996,
                    "velocity": 0.36220472440944884,
                    "duration": 0.1503759999999943
                },
                {
                    "name": "F3",
                    "midi": 53,
                    "time": 102.40605599999995,
                    "velocity": 0.3464566929133858,
                    "duration": 0.1503759999999943
                },
                {
                    "name": "D#3",
                    "midi": 51,
                    "time": 102.55643199999994,
                    "velocity": 0.31496062992125984,
                    "duration": 0.1503759999999943
                },
                {
                    "name": "D3",
                    "midi": 50,
                    "time": 102.70680799999994,
                    "velocity": 0.28346456692913385,
                    "duration": 0.1503759999999943
                },
                {
                    "name": "C2",
                    "midi": 36,
                    "time": 102.85718399999993,
                    "velocity": 0.31496062992125984,
                    "duration": 0.1503759999999943
                },
                {
                    "name": "C3",
                    "midi": 48,
                    "time": 103.00755999999993,
                    "velocity": 0.2204724409448819,
                    "duration": 0.1503759999999943
                },
                {
                    "name": "D2",
                    "midi": 38,
                    "time": 103.15793599999992,
                    "velocity": 0.25196850393700787,
                    "duration": 0.1503759999999943
                },
                {
                    "name": "D3",
                    "midi": 50,
                    "time": 103.30831199999992,
                    "velocity": 0.2204724409448819,
                    "duration": 0.1503759999999943
                },
                {
                    "name": "D#2",
                    "midi": 39,
                    "time": 103.45868799999991,
                    "velocity": 0.25196850393700787,
                    "duration": 0.1503759999999943
                },
                {
                    "name": "D#3",
                    "midi": 51,
                    "time": 103.6090639999999,
                    "velocity": 0.2204724409448819,
                    "duration": 0.1503759999999943
                },
                {
                    "name": "F2",
                    "midi": 41,
                    "time": 103.7594399999999,
                    "velocity": 0.31496062992125984,
                    "duration": 0.1503759999999943
                },
                {
                    "name": "F3",
                    "midi": 53,
                    "time": 103.90981599999989,
                    "velocity": 0.23622047244094488,
                    "duration": 0.1503759999999943
                },
                {
                    "name": "G2",
                    "midi": 43,
                    "time": 104.06019199999989,
                    "velocity": 0.2677165354330709,
                    "duration": 0.1503759999999943
                },
                {
                    "name": "G3",
                    "midi": 55,
                    "time": 104.21056799999988,
                    "velocity": 0.23622047244094488,
                    "duration": 0.1503759999999943
                },
                {
                    "name": "G#2",
                    "midi": 44,
                    "time": 104.36094399999988,
                    "velocity": 0.2677165354330709,
                    "duration": 0.1503759999999943
                },
                {
                    "name": "G#3",
                    "midi": 56,
                    "time": 104.51131999999987,
                    "velocity": 0.23622047244094488,
                    "duration": 0.1503759999999943
                },
                {
                    "name": "G2",
                    "midi": 43,
                    "time": 104.66169599999986,
                    "velocity": 0.31496062992125984,
                    "duration": 0.1503759999999943
                },
                {
                    "name": "G3",
                    "midi": 55,
                    "time": 104.81207199999986,
                    "velocity": 0.25196850393700787,
                    "duration": 0.1503759999999943
                },
                {
                    "name": "A2",
                    "midi": 45,
                    "time": 104.96244799999985,
                    "velocity": 0.29133858267716534,
                    "duration": 0.1503759999999943
                },
                {
                    "name": "A3",
                    "midi": 57,
                    "time": 105.11282399999985,
                    "velocity": 0.2677165354330709,
                    "duration": 0.1503759999999943
                },
                {
                    "name": "B2",
                    "midi": 47,
                    "time": 105.26319999999984,
                    "velocity": 0.30708661417322836,
                    "duration": 0.1503759999999943
                },
                {
                    "name": "B3",
                    "midi": 59,
                    "time": 105.41357599999984,
                    "velocity": 0.2677165354330709,
                    "duration": 0.1503759999999943
                },
                {
                    "name": "C3",
                    "midi": 48,
                    "time": 105.56395199999983,
                    "velocity": 0.33858267716535434,
                    "duration": 0.1503759999999943
                },
                {
                    "name": "C4",
                    "midi": 60,
                    "time": 105.71432799999982,
                    "velocity": 0.2440944881889764,
                    "duration": 0.1503759999999943
                },
                {
                    "name": "D#3",
                    "midi": 51,
                    "time": 105.86470399999982,
                    "velocity": 0.28346456692913385,
                    "duration": 0.1503759999999943
                },
                {
                    "name": "D#4",
                    "midi": 63,
                    "time": 106.01507999999981,
                    "velocity": 0.2440944881889764,
                    "duration": 0.1503759999999943
                },
                {
                    "name": "G3",
                    "midi": 55,
                    "time": 106.1654559999998,
                    "velocity": 0.2440944881889764,
                    "duration": 0.1503759999999943
                },
                {
                    "name": "G4",
                    "midi": 67,
                    "time": 106.3158319999998,
                    "velocity": 0.2755905511811024,
                    "duration": 0.1503759999999943
                },
                {
                    "name": "G#3",
                    "midi": 56,
                    "time": 106.4662079999998,
                    "velocity": 0.2677165354330709,
                    "duration": 0.9022559999999942
                },
                {
                    "name": "G#4",
                    "midi": 68,
                    "time": 106.4662079999998,
                    "velocity": 0.31496062992125984,
                    "duration": 0.9022559999999942
                },
                {
                    "name": "A#3",
                    "midi": 58,
                    "time": 107.36846399999979,
                    "velocity": 0.25196850393700787,
                    "duration": 0.9022560000000084
                },
                {
                    "name": "G#3",
                    "midi": 56,
                    "time": 107.36846399999979,
                    "velocity": 0.25196850393700787,
                    "duration": 0.6015040000000056
                },
                {
                    "name": "F4",
                    "midi": 65,
                    "time": 107.36846399999979,
                    "velocity": 0.2992125984251969,
                    "duration": 0.6015040000000056
                },
                {
                    "name": "G3",
                    "midi": 55,
                    "time": 107.9699679999998,
                    "velocity": 0.2440944881889764,
                    "duration": 0.3007520000000028
                },
                {
                    "name": "D#4",
                    "midi": 63,
                    "time": 107.9699679999998,
                    "velocity": 0.29133858267716534,
                    "duration": 0.3007520000000028
                },
                {
                    "name": "G#3",
                    "midi": 56,
                    "time": 108.2707199999998,
                    "velocity": 0.36220472440944884,
                    "duration": 0.3007520000000028
                },
                {
                    "name": "A#3",
                    "midi": 58,
                    "time": 108.5714719999998,
                    "velocity": 0.33070866141732286,
                    "duration": 0.3007520000000028
                },
                {
                    "name": "A#2",
                    "midi": 46,
                    "time": 108.8722239999998,
                    "velocity": 0.3464566929133858,
                    "duration": 0.3007520000000028
                },
                {
                    "name": "D#3",
                    "midi": 51,
                    "time": 109.1729759999998,
                    "velocity": 0.3543307086614173,
                    "duration": 0.3007520000000028
                },
                {
                    "name": "A#2",
                    "midi": 46,
                    "time": 109.47372799999981,
                    "velocity": 0.36220472440944884,
                    "duration": 0.3007520000000028
                },
                {
                    "name": "D#2",
                    "midi": 39,
                    "time": 109.77447999999981,
                    "velocity": 0.3228346456692913,
                    "duration": 0.3007520000000028
                },
                {
                    "name": "D#4",
                    "midi": 63,
                    "time": 110.07523199999982,
                    "velocity": 0.3779527559055118,
                    "duration": 0.1503759999999943
                },
                {
                    "name": "D4",
                    "midi": 62,
                    "time": 110.22560799999981,
                    "velocity": 0.33858267716535434,
                    "duration": 0.1503759999999943
                },
                {
                    "name": "D#4",
                    "midi": 63,
                    "time": 110.3759839999998,
                    "velocity": 0.3779527559055118,
                    "duration": 0.1503759999999943
                },
                {
                    "name": "C4",
                    "midi": 60,
                    "time": 110.5263599999998,
                    "velocity": 0.33858267716535434,
                    "duration": 0.1503759999999943
                },
                {
                    "name": "D4",
                    "midi": 62,
                    "time": 110.67673599999979,
                    "velocity": 0.3779527559055118,
                    "duration": 0.1503759999999943
                },
                {
                    "name": "D#4",
                    "midi": 63,
                    "time": 110.82711199999979,
                    "velocity": 0.33070866141732286,
                    "duration": 0.1503759999999943
                },
                {
                    "name": "F4",
                    "midi": 65,
                    "time": 110.97748799999978,
                    "velocity": 0.33858267716535434,
                    "duration": 0.1503759999999943
                },
                {
                    "name": "E4",
                    "midi": 64,
                    "time": 111.12786399999978,
                    "velocity": 0.28346456692913385,
                    "duration": 0.1503759999999943
                },
                {
                    "name": "F4",
                    "midi": 65,
                    "time": 111.27823999999977,
                    "velocity": 0.33858267716535434,
                    "duration": 0.14912286666667285
                },
                {
                    "name": "D4",
                    "midi": 62,
                    "time": 111.42861599999978,
                    "velocity": 0.2992125984251969,
                    "duration": 0.1503759999999943
                },
                {
                    "name": "D#4",
                    "midi": 63,
                    "time": 111.57899199999977,
                    "velocity": 0.33858267716535434,
                    "duration": 0.1503759999999943
                },
                {
                    "name": "F4",
                    "midi": 65,
                    "time": 111.72936799999977,
                    "velocity": 0.28346456692913385,
                    "duration": 0.1503759999999943
                },
                {
                    "name": "D#4",
                    "midi": 63,
                    "time": 111.87974399999976,
                    "velocity": 0.25984251968503935,
                    "duration": 0.1503759999999943
                },
                {
                    "name": "D4",
                    "midi": 62,
                    "time": 112.03011999999976,
                    "velocity": 0.23622047244094488,
                    "duration": 0.1503759999999943
                },
                {
                    "name": "D#4",
                    "midi": 63,
                    "time": 112.18049599999975,
                    "velocity": 0.25984251968503935,
                    "duration": 0.1503759999999943
                },
                {
                    "name": "C4",
                    "midi": 60,
                    "time": 112.33087199999974,
                    "velocity": 0.23622047244094488,
                    "duration": 0.1503759999999943
                },
                {
                    "name": "D4",
                    "midi": 62,
                    "time": 112.48124799999974,
                    "velocity": 0.25984251968503935,
                    "duration": 0.1503759999999943
                },
                {
                    "name": "D#4",
                    "midi": 63,
                    "time": 112.63162399999973,
                    "velocity": 0.2283464566929134,
                    "duration": 0.1503759999999943
                },
                {
                    "name": "F4",
                    "midi": 65,
                    "time": 112.78199999999973,
                    "velocity": 0.25984251968503935,
                    "duration": 0.1503759999999943
                },
                {
                    "name": "E4",
                    "midi": 64,
                    "time": 112.93237599999972,
                    "velocity": 0.2204724409448819,
                    "duration": 0.1503759999999943
                },
                {
                    "name": "F4",
                    "midi": 65,
                    "time": 113.08275199999972,
                    "velocity": 0.25984251968503935,
                    "duration": 0.14912286666667285
                },
                {
                    "name": "D4",
                    "midi": 62,
                    "time": 113.23312799999972,
                    "velocity": 0.2440944881889764,
                    "duration": 0.1503759999999943
                },
                {
                    "name": "D#4",
                    "midi": 63,
                    "time": 113.38350399999972,
                    "velocity": 0.2755905511811024,
                    "duration": 0.1503759999999943
                },
                {
                    "name": "F4",
                    "midi": 65,
                    "time": 113.53387999999971,
                    "velocity": 0.23622047244094488,
                    "duration": 0.1503759999999943
                },
                {
                    "name": "D#4",
                    "midi": 63,
                    "time": 113.6842559999997,
                    "velocity": 0.28346456692913385,
                    "duration": 0.1503759999999943
                },
                {
                    "name": "D4",
                    "midi": 62,
                    "time": 113.8346319999997,
                    "velocity": 0.2440944881889764,
                    "duration": 0.1503759999999943
                },
                {
                    "name": "D#4",
                    "midi": 63,
                    "time": 113.9850079999997,
                    "velocity": 0.29133858267716534,
                    "duration": 0.14912286666667285
                },
                {
                    "name": "C4",
                    "midi": 60,
                    "time": 114.1353839999997,
                    "velocity": 0.2755905511811024,
                    "duration": 0.1503759999999943
                },
                {
                    "name": "D4",
                    "midi": 62,
                    "time": 114.2857599999997,
                    "velocity": 0.30708661417322836,
                    "duration": 0.1503759999999943
                },
                {
                    "name": "D#4",
                    "midi": 63,
                    "time": 114.43613599999969,
                    "velocity": 0.25984251968503935,
                    "duration": 0.1503759999999943
                },
                {
                    "name": "B3",
                    "midi": 59,
                    "time": 114.58651199999969,
                    "velocity": 0.3464566929133858,
                    "duration": 0.1503759999999943
                },
                {
                    "name": "C4",
                    "midi": 60,
                    "time": 114.73688799999968,
                    "velocity": 0.2992125984251969,
                    "duration": 0.1503759999999943
                },
                {
                    "name": "D4",
                    "midi": 62,
                    "time": 114.88726399999967,
                    "velocity": 0.3779527559055118,
                    "duration": 0.1503759999999943
                },
                {
                    "name": "B3",
                    "midi": 59,
                    "time": 115.03763999999967,
                    "velocity": 0.3464566929133858,
                    "duration": 0.1503759999999943
                },
                {
                    "name": "C4",
                    "midi": 60,
                    "time": 115.18801599999966,
                    "velocity": 0.4251968503937008,
                    "duration": 0.1503759999999943
                },
                {
                    "name": "A3",
                    "midi": 57,
                    "time": 115.33839199999966,
                    "velocity": 0.3779527559055118,
                    "duration": 0.1503759999999943
                },
                {
                    "name": "G3",
                    "midi": 55,
                    "time": 115.48876799999965,
                    "velocity": 0.4881889763779528,
                    "duration": 1.203007999999997
                },
                {
                    "name": "C4",
                    "midi": 60,
                    "time": 117.59403199999964,
                    "velocity": 0.2125984251968504,
                    "duration": 0.3007520000000028
                },
                {
                    "name": "G4",
                    "midi": 67,
                    "time": 117.59403199999964,
                    "velocity": 0.25984251968503935,
                    "duration": 0.3007520000000028
                },
                {
                    "name": "G4",
                    "midi": 67,
                    "time": 117.89478399999965,
                    "velocity": 0.25984251968503935,
                    "duration": 0.3007520000000028
                },
                {
                    "name": "F4",
                    "midi": 65,
                    "time": 117.89478399999965,
                    "velocity": 0.2125984251968504,
                    "duration": 0.3007520000000028
                },
                {
                    "name": "E4",
                    "midi": 64,
                    "time": 118.19553599999965,
                    "velocity": 0.23622047244094488,
                    "duration": 0.07518799999999715
                },
                {
                    "name": "G4",
                    "midi": 67,
                    "time": 118.19553599999965,
                    "velocity": 0.28346456692913385,
                    "duration": 0.07518799999999715
                },
                {
                    "name": "B3",
                    "midi": 59,
                    "time": 119.09779199999964,
                    "velocity": 0.23622047244094488,
                    "duration": 0.6015040000000056
                },
                {
                    "name": "G4",
                    "midi": 67,
                    "time": 119.09779199999964,
                    "velocity": 0.28346456692913385,
                    "duration": 1.2030080000000112
                },
                {
                    "name": "C4",
                    "midi": 60,
                    "time": 119.69929599999965,
                    "velocity": 0.25984251968503935,
                    "duration": 0.3007520000000028
                },
                {
                    "name": "G3",
                    "midi": 55,
                    "time": 120.00004799999965,
                    "velocity": 0.28346456692913385,
                    "duration": 0.07518799999999715
                },
                {
                    "name": "C4",
                    "midi": 60,
                    "time": 121.20305599999965,
                    "velocity": 0.31496062992125984,
                    "duration": 0.3007520000000028
                },
                {
                    "name": "G4",
                    "midi": 67,
                    "time": 121.20305599999965,
                    "velocity": 0.3779527559055118,
                    "duration": 0.3007520000000028
                },
                {
                    "name": "G4",
                    "midi": 67,
                    "time": 121.50380799999965,
                    "velocity": 0.3779527559055118,
                    "duration": 0.3007520000000028
                },
                {
                    "name": "F4",
                    "midi": 65,
                    "time": 121.50380799999965,
                    "velocity": 0.31496062992125984,
                    "duration": 0.3007520000000028
                },
                {
                    "name": "E4",
                    "midi": 64,
                    "time": 121.80455999999965,
                    "velocity": 0.3464566929133858,
                    "duration": 0.07518799999999715
                },
                {
                    "name": "G4",
                    "midi": 67,
                    "time": 121.80455999999965,
                    "velocity": 0.4094488188976378,
                    "duration": 0.07518799999999715
                },
                {
                    "name": "F3",
                    "midi": 53,
                    "time": 122.70681599999965,
                    "velocity": 0.3464566929133858,
                    "duration": 0.07518799999999715
                },
                {
                    "name": "C4",
                    "midi": 60,
                    "time": 122.70681599999965,
                    "velocity": 0.4094488188976378,
                    "duration": 0.07518799999999715
                },
                {
                    "name": "G3",
                    "midi": 55,
                    "time": 123.30831999999964,
                    "velocity": 0.31496062992125984,
                    "duration": 0.07518799999999715
                },
                {
                    "name": "F4",
                    "midi": 65,
                    "time": 123.30831999999964,
                    "velocity": 0.3779527559055118,
                    "duration": 0.07518799999999715
                },
                {
                    "name": "E4",
                    "midi": 64,
                    "time": 123.60907199999964,
                    "velocity": 0.4094488188976378,
                    "duration": 0.07518799999999715
                },
                {
                    "name": "C4",
                    "midi": 60,
                    "time": 123.60907199999964,
                    "velocity": 0.3464566929133858,
                    "duration": 0.07518799999999715
                },
                {
                    "name": "B3",
                    "midi": 59,
                    "time": 124.81207999999964,
                    "velocity": 0.2125984251968504,
                    "duration": 0.3007520000000028
                },
                {
                    "name": "G4",
                    "midi": 67,
                    "time": 124.81207999999964,
                    "velocity": 0.25984251968503935,
                    "duration": 0.3007520000000028
                },
                {
                    "name": "G4",
                    "midi": 67,
                    "time": 125.11283199999964,
                    "velocity": 0.25984251968503935,
                    "duration": 0.3007520000000028
                },
                {
                    "name": "C4",
                    "midi": 60,
                    "time": 125.11283199999964,
                    "velocity": 0.2125984251968504,
                    "duration": 0.3007520000000028
                },
                {
                    "name": "G3",
                    "midi": 55,
                    "time": 125.41358399999964,
                    "velocity": 0.23622047244094488,
                    "duration": 0.07518799999999715
                },
                {
                    "name": "G4",
                    "midi": 67,
                    "time": 125.41358399999964,
                    "velocity": 0.28346456692913385,
                    "duration": 0.07518799999999715
                },
                {
                    "name": "E4",
                    "midi": 64,
                    "time": 126.61659199999964,
                    "velocity": 0.29133858267716534,
                    "duration": 0.3007520000000028
                },
                {
                    "name": "G4",
                    "midi": 67,
                    "time": 126.61659199999964,
                    "velocity": 0.36220472440944884,
                    "duration": 0.3007520000000028
                },
                {
                    "name": "F#4",
                    "midi": 66,
                    "time": 126.91734399999964,
                    "velocity": 0.36220472440944884,
                    "duration": 0.3007520000000028
                },
                {
                    "name": "D4",
                    "midi": 62,
                    "time": 126.91734399999964,
                    "velocity": 0.29133858267716534,
                    "duration": 0.3007520000000028
                },
                {
                    "name": "C4",
                    "midi": 60,
                    "time": 127.51884799999965,
                    "velocity": 0.29133858267716534,
                    "duration": 0.3007520000000028
                },
                {
                    "name": "E4",
                    "midi": 64,
                    "time": 127.51884799999965,
                    "velocity": 0.36220472440944884,
                    "duration": 0.3007520000000028
                },
                {
                    "name": "D4",
                    "midi": 62,
                    "time": 127.81959999999965,
                    "velocity": 0.36220472440944884,
                    "duration": 0.3007520000000028
                },
                {
                    "name": "B3",
                    "midi": 59,
                    "time": 127.81959999999965,
                    "velocity": 0.29133858267716534,
                    "duration": 0.3007520000000028
                },
                {
                    "name": "A3",
                    "midi": 57,
                    "time": 128.12035199999966,
                    "velocity": 0.3937007874015748,
                    "duration": 0.6015040000000056
                },
                {
                    "name": "C4",
                    "midi": 60,
                    "time": 128.12035199999966,
                    "velocity": 0.3937007874015748,
                    "duration": 0.6015040000000056
                },
                {
                    "name": "D3",
                    "midi": 50,
                    "time": 128.72624196666632,
                    "velocity": 0.3464566929133858,
                    "duration": 0.3007519999999886
                },
                {
                    "name": "G3",
                    "midi": 55,
                    "time": 129.02260799999965,
                    "velocity": 0.4409448818897638,
                    "duration": 0.22556399999999144
                },
                {
                    "name": "B3",
                    "midi": 59,
                    "time": 129.24817199999964,
                    "velocity": 0.3937007874015748,
                    "duration": 0.07518799999999715
                },
                {
                    "name": "D4",
                    "midi": 62,
                    "time": 129.32335999999964,
                    "velocity": 0.44881889763779526,
                    "duration": 0.22556399999999144
                },
                {
                    "name": "G4",
                    "midi": 67,
                    "time": 129.54892399999963,
                    "velocity": 0.3937007874015748,
                    "duration": 0.07518799999999715
                },
                {
                    "name": "B4",
                    "midi": 71,
                    "time": 129.62411199999963,
                    "velocity": 0.44881889763779526,
                    "duration": 0.22556399999999144
                },
                {
                    "name": "G4",
                    "midi": 67,
                    "time": 129.84967599999962,
                    "velocity": 0.41732283464566927,
                    "duration": 0.07518799999999715
                },
                {
                    "name": "A4",
                    "midi": 69,
                    "time": 129.92486399999962,
                    "velocity": 0.3937007874015748,
                    "duration": 0.6015040000000056
                },
                {
                    "name": "C5",
                    "midi": 72,
                    "time": 129.92486399999962,
                    "velocity": 0.3937007874015748,
                    "duration": 0.6015040000000056
                },
                {
                    "name": "D4",
                    "midi": 62,
                    "time": 130.53075396666628,
                    "velocity": 0.3464566929133858,
                    "duration": 0.3007519999999886
                },
                {
                    "name": "G3",
                    "midi": 55,
                    "time": 130.8271199999996,
                    "velocity": 0.4409448818897638,
                    "duration": 0.22556399999999144
                },
                {
                    "name": "B3",
                    "midi": 59,
                    "time": 131.0526839999996,
                    "velocity": 0.3937007874015748,
                    "duration": 0.07518799999999715
                },
                {
                    "name": "D3",
                    "midi": 50,
                    "time": 131.1278719999996,
                    "velocity": 0.44881889763779526,
                    "duration": 0.22556399999999144
                },
                {
                    "name": "G3",
                    "midi": 55,
                    "time": 131.3534359999996,
                    "velocity": 0.3937007874015748,
                    "duration": 0.07518799999999715
                },
                {
                    "name": "B2",
                    "midi": 47,
                    "time": 131.4286239999996,
                    "velocity": 0.44881889763779526,
                    "duration": 0.22556399999999144
                },
                {
                    "name": "D3",
                    "midi": 50,
                    "time": 131.64980203333292,
                    "velocity": 0.41732283464566927,
                    "duration": 0.07518799999999715
                },
                {
                    "name": "G2",
                    "midi": 43,
                    "time": 131.72937599999958,
                    "velocity": 0.4409448818897638,
                    "duration": 0.3007519999999886
                },
                {
                    "name": "C4",
                    "midi": 60,
                    "time": 132.93238399999956,
                    "velocity": 0.2125984251968504,
                    "duration": 0.3007519999999886
                },
                {
                    "name": "G4",
                    "midi": 67,
                    "time": 132.93238399999956,
                    "velocity": 0.25984251968503935,
                    "duration": 0.3007519999999886
                },
                {
                    "name": "G4",
                    "midi": 67,
                    "time": 133.23313599999955,
                    "velocity": 0.25984251968503935,
                    "duration": 0.3007519999999886
                },
                {
                    "name": "F4",
                    "midi": 65,
                    "time": 133.23313599999955,
                    "velocity": 0.2125984251968504,
                    "duration": 0.3007519999999886
                },
                {
                    "name": "E4",
                    "midi": 64,
                    "time": 133.53388799999954,
                    "velocity": 0.23622047244094488,
                    "duration": 0.07518799999999715
                },
                {
                    "name": "G4",
                    "midi": 67,
                    "time": 133.53388799999954,
                    "velocity": 0.28346456692913385,
                    "duration": 0.07518799999999715
                },
                {
                    "name": "B3",
                    "midi": 59,
                    "time": 134.43614399999953,
                    "velocity": 0.23622047244094488,
                    "duration": 0.6015040000000056
                },
                {
                    "name": "G4",
                    "midi": 67,
                    "time": 134.43614399999953,
                    "velocity": 0.28346456692913385,
                    "duration": 1.2030079999999828
                },
                {
                    "name": "C4",
                    "midi": 60,
                    "time": 135.03764799999954,
                    "velocity": 0.25984251968503935,
                    "duration": 0.3007519999999886
                },
                {
                    "name": "G3",
                    "midi": 55,
                    "time": 135.33839999999952,
                    "velocity": 0.28346456692913385,
                    "duration": 0.07518799999999715
                },
                {
                    "name": "C4",
                    "midi": 60,
                    "time": 136.5414079999995,
                    "velocity": 0.31496062992125984,
                    "duration": 0.3007519999999886
                },
                {
                    "name": "G4",
                    "midi": 67,
                    "time": 136.5414079999995,
                    "velocity": 0.3779527559055118,
                    "duration": 0.3007519999999886
                },
                {
                    "name": "G4",
                    "midi": 67,
                    "time": 136.8421599999995,
                    "velocity": 0.3779527559055118,
                    "duration": 0.3007519999999886
                },
                {
                    "name": "F4",
                    "midi": 65,
                    "time": 136.8421599999995,
                    "velocity": 0.31496062992125984,
                    "duration": 0.3007519999999886
                },
                {
                    "name": "E4",
                    "midi": 64,
                    "time": 137.14291199999948,
                    "velocity": 0.3464566929133858,
                    "duration": 0.07518799999999715
                },
                {
                    "name": "G4",
                    "midi": 67,
                    "time": 137.14291199999948,
                    "velocity": 0.4094488188976378,
                    "duration": 0.07518799999999715
                },
                {
                    "name": "G3",
                    "midi": 55,
                    "time": 137.7444159999995,
                    "velocity": 0.3779527559055118,
                    "duration": 0.07518799999999715
                },
                {
                    "name": "E3",
                    "midi": 52,
                    "time": 137.7444159999995,
                    "velocity": 0.31496062992125984,
                    "duration": 0.07518799999999715
                },
                {
                    "name": "F3",
                    "midi": 53,
                    "time": 138.04516799999948,
                    "velocity": 0.3464566929133858,
                    "duration": 0.07518799999999715
                },
                {
                    "name": "A3",
                    "midi": 57,
                    "time": 138.04516799999948,
                    "velocity": 0.4094488188976378,
                    "duration": 0.07518799999999715
                },
                {
                    "name": "G3",
                    "midi": 55,
                    "time": 138.64667199999948,
                    "velocity": 0.31496062992125984,
                    "duration": 0.07518799999999715
                },
                {
                    "name": "F4",
                    "midi": 65,
                    "time": 138.64667199999948,
                    "velocity": 0.3779527559055118,
                    "duration": 0.07518799999999715
                },
                {
                    "name": "E4",
                    "midi": 64,
                    "time": 138.94742399999947,
                    "velocity": 0.3464566929133858,
                    "duration": 0.07518799999999715
                },
                {
                    "name": "G4",
                    "midi": 67,
                    "time": 138.94742399999947,
                    "velocity": 0.4094488188976378,
                    "duration": 0.07518799999999715
                },
                {
                    "name": "G3",
                    "midi": 55,
                    "time": 139.54892799999948,
                    "velocity": 0.3779527559055118,
                    "duration": 0.07518799999999715
                },
                {
                    "name": "E3",
                    "midi": 52,
                    "time": 139.54892799999948,
                    "velocity": 0.31496062992125984,
                    "duration": 0.07518799999999715
                },
                {
                    "name": "F3",
                    "midi": 53,
                    "time": 139.84967999999947,
                    "velocity": 0.3464566929133858,
                    "duration": 0.07518799999999715
                },
                {
                    "name": "A3",
                    "midi": 57,
                    "time": 139.84967999999947,
                    "velocity": 0.4094488188976378,
                    "duration": 0.07518799999999715
                },
                {
                    "name": "G3",
                    "midi": 55,
                    "time": 140.45118399999947,
                    "velocity": 0.31496062992125984,
                    "duration": 0.07518799999999715
                },
                {
                    "name": "F4",
                    "midi": 65,
                    "time": 140.45118399999947,
                    "velocity": 0.3779527559055118,
                    "duration": 0.07518799999999715
                },
                {
                    "name": "E4",
                    "midi": 64,
                    "time": 140.75193599999946,
                    "velocity": 0.3858267716535433,
                    "duration": 0.07518799999999715
                },
                {
                    "name": "C4",
                    "midi": 60,
                    "time": 140.75193599999946,
                    "velocity": 0.3228346456692913,
                    "duration": 0.07518799999999715
                },
                {
                    "name": "C3",
                    "midi": 48,
                    "time": 141.05268799999945,
                    "velocity": 0.3543307086614173,
                    "duration": 0.07518799999999715
                },
                {
                    "name": "C4",
                    "midi": 60,
                    "time": 141.05268799999945,
                    "velocity": 0.41732283464566927,
                    "duration": 0.07518799999999715
                },
                {
                    "name": "C3",
                    "midi": 48,
                    "time": 141.35343999999944,
                    "velocity": 0.3464566929133858,
                    "duration": 0.07518799999999715
                },
                {
                    "name": "C4",
                    "midi": 60,
                    "time": 141.35343999999944,
                    "velocity": 0.4094488188976378,
                    "duration": 0.07518799999999715
                },
                {
                    "name": "C3",
                    "midi": 48,
                    "time": 141.65419199999943,
                    "velocity": 0.3543307086614173,
                    "duration": 0.3007519999999886
                },
                {
                    "name": "C4",
                    "midi": 60,
                    "time": 141.65419199999943,
                    "velocity": 0.41732283464566927,
                    "duration": 0.3007519999999886
                }
            ],
            "controlChanges": {},
            "id": 2,
            "name": "Piano left",
            "instrumentNumber": 0,
            "instrument": "acoustic grand piano",
            "instrumentFamily": "piano",
            "channelNumber": 0,
            "isPercussion": false
        },
        {
            "startTime": 0,
            "duration": 0,
            "length": 0,
            "notes": [],
            "controlChanges": {
                "64": [
                    {
                        "number": 64,
                        "time": 0.0357143,
                        "value": 1
                    },
                    {
                        "number": 64,
                        "time": 0.6077696666666667,
                        "value": 0
                    },
                    {
                        "number": 64,
                        "time": 0.7080203333333334,
                        "value": 1
                    },
                    {
                        "number": 64,
                        "time": 0.9066419666666667,
                        "value": 0
                    },
                    {
                        "number": 64,
                        "time": 1.8088979666666667,
                        "value": 1
                    },
                    {
                        "number": 64,
                        "time": 1.9642865,
                        "value": 0
                    },
                    {
                        "number": 64,
                        "time": 2.1672941,
                        "value": 1
                    },
                    {
                        "number": 64,
                        "time": 2.2619056666666664,
                        "value": 0
                    },
                    {
                        "number": 64,
                        "time": 2.4724320666666664,
                        "value": 1
                    },
                    {
                        "number": 64,
                        "time": 2.5639107999999995,
                        "value": 0
                    },
                    {
                        "number": 64,
                        "time": 3.6221818999999993,
                        "value": 1
                    },
                    {
                        "number": 64,
                        "time": 4.217420233333333,
                        "value": 0
                    },
                    {
                        "number": 64,
                        "time": 4.298873899999999,
                        "value": 1
                    },
                    {
                        "number": 64,
                        "time": 4.560152199999999,
                        "value": 0
                    },
                    {
                        "number": 64,
                        "time": 5.413535999999999,
                        "value": 1
                    },
                    {
                        "number": 64,
                        "time": 5.491856833333332,
                        "value": 0
                    },
                    {
                        "number": 64,
                        "time": 5.739350666666666,
                        "value": 1
                    },
                    {
                        "number": 64,
                        "time": 5.7957416666666655,
                        "value": 0
                    },
                    {
                        "number": 64,
                        "time": 6.043862066666666,
                        "value": 1
                    },
                    {
                        "number": 64,
                        "time": 6.0971202333333325,
                        "value": 0
                    },
                    {
                        "number": 64,
                        "time": 7.253762299999999,
                        "value": 1
                    },
                    {
                        "number": 64,
                        "time": 7.825817666666666,
                        "value": 0
                    },
                    {
                        "number": 64,
                        "time": 7.926068333333332,
                        "value": 1
                    },
                    {
                        "number": 64,
                        "time": 8.124689966666665,
                        "value": 0
                    },
                    {
                        "number": 64,
                        "time": 9.026945966666664,
                        "value": 1
                    },
                    {
                        "number": 64,
                        "time": 9.182334499999998,
                        "value": 0
                    },
                    {
                        "number": 64,
                        "time": 9.385342099999997,
                        "value": 1
                    },
                    {
                        "number": 64,
                        "time": 9.479953666666663,
                        "value": 0
                    },
                    {
                        "number": 64,
                        "time": 9.690480066666662,
                        "value": 1
                    },
                    {
                        "number": 64,
                        "time": 9.781958799999996,
                        "value": 0
                    },
                    {
                        "number": 64,
                        "time": 10.840229899999997,
                        "value": 1
                    },
                    {
                        "number": 64,
                        "time": 11.43546823333333,
                        "value": 0
                    },
                    {
                        "number": 64,
                        "time": 11.526320399999996,
                        "value": 1
                    },
                    {
                        "number": 64,
                        "time": 11.778200199999995,
                        "value": 0
                    },
                    {
                        "number": 64,
                        "time": 12.631583999999995,
                        "value": 1
                    },
                    {
                        "number": 64,
                        "time": 12.709904833333328,
                        "value": 0
                    },
                    {
                        "number": 64,
                        "time": 12.957398666666661,
                        "value": 1
                    },
                    {
                        "number": 64,
                        "time": 13.01378966666666,
                        "value": 0
                    },
                    {
                        "number": 64,
                        "time": 13.26191006666666,
                        "value": 1
                    },
                    {
                        "number": 64,
                        "time": 13.315168233333326,
                        "value": 0
                    },
                    {
                        "number": 64,
                        "time": 14.471810299999992,
                        "value": 1
                    },
                    {
                        "number": 64,
                        "time": 15.04386566666666,
                        "value": 0
                    },
                    {
                        "number": 64,
                        "time": 15.144116333333326,
                        "value": 1
                    },
                    {
                        "number": 64,
                        "time": 15.34273796666666,
                        "value": 0
                    },
                    {
                        "number": 64,
                        "time": 16.276322299999993,
                        "value": 1
                    },
                    {
                        "number": 64,
                        "time": 16.84837766666666,
                        "value": 0
                    },
                    {
                        "number": 64,
                        "time": 16.94862833333333,
                        "value": 1
                    },
                    {
                        "number": 64,
                        "time": 17.142863999999996,
                        "value": 0
                    },
                    {
                        "number": 64,
                        "time": 17.249380333333328,
                        "value": 1
                    },
                    {
                        "number": 64,
                        "time": 17.750633666666662,
                        "value": 0
                    },
                    {
                        "number": 64,
                        "time": 17.85088433333333,
                        "value": 1
                    },
                    {
                        "number": 64,
                        "time": 18.045119999999997,
                        "value": 0
                    },
                    {
                        "number": 64,
                        "time": 18.142864399999997,
                        "value": 1
                    },
                    {
                        "number": 64,
                        "time": 18.947376,
                        "value": 0
                    },
                    {
                        "number": 64,
                        "time": 19.03133593333333,
                        "value": 1
                    },
                    {
                        "number": 64,
                        "time": 19.849631999999996,
                        "value": 0
                    },
                    {
                        "number": 64,
                        "time": 19.947376399999996,
                        "value": 1
                    },
                    {
                        "number": 64,
                        "time": 20.751887999999997,
                        "value": 0
                    },
                    {
                        "number": 64,
                        "time": 20.83584793333333,
                        "value": 1
                    },
                    {
                        "number": 64,
                        "time": 21.954895999999998,
                        "value": 0
                    },
                    {
                        "number": 64,
                        "time": 22.330835999999998,
                        "value": 1
                    },
                    {
                        "number": 64,
                        "time": 22.560785966666664,
                        "value": 0
                    },
                    {
                        "number": 64,
                        "time": 22.62720203333333,
                        "value": 1
                    },
                    {
                        "number": 64,
                        "time": 23.164169666666663,
                        "value": 0
                    },
                    {
                        "number": 64,
                        "time": 23.26442033333333,
                        "value": 1
                    },
                    {
                        "number": 64,
                        "time": 23.463041966666662,
                        "value": 0
                    },
                    {
                        "number": 64,
                        "time": 24.365297966666663,
                        "value": 1
                    },
                    {
                        "number": 64,
                        "time": 24.520686499999996,
                        "value": 0
                    },
                    {
                        "number": 64,
                        "time": 24.723694099999996,
                        "value": 1
                    },
                    {
                        "number": 64,
                        "time": 24.818305666666664,
                        "value": 0
                    },
                    {
                        "number": 64,
                        "time": 25.028832066666663,
                        "value": 1
                    },
                    {
                        "number": 64,
                        "time": 25.120310799999995,
                        "value": 0
                    },
                    {
                        "number": 64,
                        "time": 26.178581899999994,
                        "value": 1
                    },
                    {
                        "number": 64,
                        "time": 26.77382023333333,
                        "value": 0
                    },
                    {
                        "number": 64,
                        "time": 26.890988199999995,
                        "value": 1
                    },
                    {
                        "number": 64,
                        "time": 27.116552199999994,
                        "value": 0
                    },
                    {
                        "number": 64,
                        "time": 27.969935999999993,
                        "value": 1
                    },
                    {
                        "number": 64,
                        "time": 28.048256833333326,
                        "value": 0
                    },
                    {
                        "number": 64,
                        "time": 28.29575066666666,
                        "value": 1
                    },
                    {
                        "number": 64,
                        "time": 28.35214166666666,
                        "value": 0
                    },
                    {
                        "number": 64,
                        "time": 28.600262066666662,
                        "value": 1
                    },
                    {
                        "number": 64,
                        "time": 28.653520233333328,
                        "value": 0
                    },
                    {
                        "number": 64,
                        "time": 29.810162299999995,
                        "value": 1
                    },
                    {
                        "number": 64,
                        "time": 30.382217666666662,
                        "value": 0
                    },
                    {
                        "number": 64,
                        "time": 30.48246833333333,
                        "value": 1
                    },
                    {
                        "number": 64,
                        "time": 30.68108996666666,
                        "value": 0
                    },
                    {
                        "number": 64,
                        "time": 31.614674299999994,
                        "value": 1
                    },
                    {
                        "number": 64,
                        "time": 32.18672966666666,
                        "value": 0
                    },
                    {
                        "number": 64,
                        "time": 32.286980333333325,
                        "value": 1
                    },
                    {
                        "number": 64,
                        "time": 32.48121599999999,
                        "value": 0
                    },
                    {
                        "number": 64,
                        "time": 32.54324609999999,
                        "value": 1
                    },
                    {
                        "number": 64,
                        "time": 33.08898566666666,
                        "value": 0
                    },
                    {
                        "number": 64,
                        "time": 33.18923633333333,
                        "value": 1
                    },
                    {
                        "number": 64,
                        "time": 33.38347199999999,
                        "value": 0
                    },
                    {
                        "number": 64,
                        "time": 33.481216399999994,
                        "value": 1
                    },
                    {
                        "number": 64,
                        "time": 34.28572799999999,
                        "value": 0
                    },
                    {
                        "number": 64,
                        "time": 34.369687933333324,
                        "value": 1
                    },
                    {
                        "number": 64,
                        "time": 35.18798399999999,
                        "value": 0
                    },
                    {
                        "number": 64,
                        "time": 35.285728399999996,
                        "value": 1
                    },
                    {
                        "number": 64,
                        "time": 36.090239999999994,
                        "value": 0
                    },
                    {
                        "number": 64,
                        "time": 36.17419993333333,
                        "value": 1
                    },
                    {
                        "number": 64,
                        "time": 37.29324799999999,
                        "value": 0
                    },
                    {
                        "number": 64,
                        "time": 37.66918799999999,
                        "value": 1
                    },
                    {
                        "number": 64,
                        "time": 37.89913796666666,
                        "value": 0
                    },
                    {
                        "number": 64,
                        "time": 37.965554033333326,
                        "value": 1
                    },
                    {
                        "number": 64,
                        "time": 38.50252166666666,
                        "value": 0
                    },
                    {
                        "number": 64,
                        "time": 38.60277233333333,
                        "value": 1
                    },
                    {
                        "number": 64,
                        "time": 38.80139396666666,
                        "value": 0
                    },
                    {
                        "number": 64,
                        "time": 39.70364996666666,
                        "value": 1
                    },
                    {
                        "number": 64,
                        "time": 39.8590385,
                        "value": 0
                    },
                    {
                        "number": 64,
                        "time": 40.062046099999996,
                        "value": 1
                    },
                    {
                        "number": 64,
                        "time": 40.15665766666666,
                        "value": 0
                    },
                    {
                        "number": 64,
                        "time": 40.36718406666666,
                        "value": 1
                    },
                    {
                        "number": 64,
                        "time": 40.45866279999999,
                        "value": 0
                    },
                    {
                        "number": 64,
                        "time": 41.51693389999999,
                        "value": 1
                    },
                    {
                        "number": 64,
                        "time": 42.112172233333325,
                        "value": 0
                    },
                    {
                        "number": 64,
                        "time": 42.20302439999999,
                        "value": 1
                    },
                    {
                        "number": 64,
                        "time": 42.45490419999999,
                        "value": 0
                    },
                    {
                        "number": 64,
                        "time": 43.30828799999999,
                        "value": 1
                    },
                    {
                        "number": 64,
                        "time": 43.38660883333333,
                        "value": 0
                    },
                    {
                        "number": 64,
                        "time": 43.63410266666666,
                        "value": 1
                    },
                    {
                        "number": 64,
                        "time": 43.690493666666654,
                        "value": 0
                    },
                    {
                        "number": 64,
                        "time": 43.93861406666665,
                        "value": 1
                    },
                    {
                        "number": 64,
                        "time": 43.99187223333332,
                        "value": 0
                    },
                    {
                        "number": 64,
                        "time": 45.14851429999999,
                        "value": 1
                    },
                    {
                        "number": 64,
                        "time": 45.720569666666655,
                        "value": 0
                    },
                    {
                        "number": 64,
                        "time": 45.82082033333332,
                        "value": 1
                    },
                    {
                        "number": 64,
                        "time": 46.019441966666655,
                        "value": 0
                    },
                    {
                        "number": 64,
                        "time": 46.921697966666656,
                        "value": 1
                    },
                    {
                        "number": 64,
                        "time": 47.07708649999999,
                        "value": 0
                    },
                    {
                        "number": 64,
                        "time": 47.28009409999999,
                        "value": 1
                    },
                    {
                        "number": 64,
                        "time": 47.37470566666666,
                        "value": 0
                    },
                    {
                        "number": 64,
                        "time": 47.585232066666656,
                        "value": 1
                    },
                    {
                        "number": 64,
                        "time": 47.67671079999999,
                        "value": 0
                    },
                    {
                        "number": 64,
                        "time": 49.04011986666666,
                        "value": 1
                    },
                    {
                        "number": 64,
                        "time": 49.332099933333325,
                        "value": 0
                    },
                    {
                        "number": 64,
                        "time": 49.398515999999994,
                        "value": 1
                    },
                    {
                        "number": 64,
                        "time": 49.62783939999999,
                        "value": 0
                    },
                    {
                        "number": 64,
                        "time": 49.677964733333326,
                        "value": 1
                    },
                    {
                        "number": 64,
                        "time": 49.93297736666666,
                        "value": 0
                    },
                    {
                        "number": 64,
                        "time": 49.9680651,
                        "value": 1
                    },
                    {
                        "number": 64,
                        "time": 50.23811533333333,
                        "value": 0
                    },
                    {
                        "number": 64,
                        "time": 50.29012036666666,
                        "value": 1
                    },
                    {
                        "number": 64,
                        "time": 50.55327836666666,
                        "value": 0
                    },
                    {
                        "number": 64,
                        "time": 50.610295933333326,
                        "value": 1
                    },
                    {
                        "number": 64,
                        "time": 50.83523336666666,
                        "value": 0
                    },
                    {
                        "number": 64,
                        "time": 50.88473213333332,
                        "value": 1
                    },
                    {
                        "number": 64,
                        "time": 51.13661193333332,
                        "value": 0
                    },
                    {
                        "number": 64,
                        "time": 51.194256066666654,
                        "value": 1
                    },
                    {
                        "number": 64,
                        "time": 51.43235139999999,
                        "value": 0
                    },
                    {
                        "number": 64,
                        "time": 51.48623613333332,
                        "value": 1
                    },
                    {
                        "number": 64,
                        "time": 51.73811593333332,
                        "value": 0
                    },
                    {
                        "number": 64,
                        "time": 51.79012096666665,
                        "value": 1
                    },
                    {
                        "number": 64,
                        "time": 52.03824136666665,
                        "value": 0
                    },
                    {
                        "number": 64,
                        "time": 52.06956969999998,
                        "value": 1
                    },
                    {
                        "number": 64,
                        "time": 52.33084799999998,
                        "value": 0
                    },
                    {
                        "number": 64,
                        "time": 52.64914386666665,
                        "value": 1
                    },
                    {
                        "number": 64,
                        "time": 52.941123933333316,
                        "value": 0
                    },
                    {
                        "number": 64,
                        "time": 53.007539999999985,
                        "value": 1
                    },
                    {
                        "number": 64,
                        "time": 53.23686339999998,
                        "value": 0
                    },
                    {
                        "number": 64,
                        "time": 53.28698873333332,
                        "value": 1
                    },
                    {
                        "number": 64,
                        "time": 53.54200136666665,
                        "value": 0
                    },
                    {
                        "number": 64,
                        "time": 53.57708909999999,
                        "value": 1
                    },
                    {
                        "number": 64,
                        "time": 53.847139333333324,
                        "value": 0
                    },
                    {
                        "number": 64,
                        "time": 53.899144366666654,
                        "value": 1
                    },
                    {
                        "number": 64,
                        "time": 54.16230236666665,
                        "value": 0
                    },
                    {
                        "number": 64,
                        "time": 54.21931993333332,
                        "value": 1
                    },
                    {
                        "number": 64,
                        "time": 54.44425736666665,
                        "value": 0
                    },
                    {
                        "number": 64,
                        "time": 54.493756133333314,
                        "value": 1
                    },
                    {
                        "number": 64,
                        "time": 54.74563593333331,
                        "value": 0
                    },
                    {
                        "number": 64,
                        "time": 54.803280066666645,
                        "value": 1
                    },
                    {
                        "number": 64,
                        "time": 55.04137539999998,
                        "value": 0
                    },
                    {
                        "number": 64,
                        "time": 55.09526013333331,
                        "value": 1
                    },
                    {
                        "number": 64,
                        "time": 55.34713993333331,
                        "value": 0
                    },
                    {
                        "number": 64,
                        "time": 55.39914496666664,
                        "value": 1
                    },
                    {
                        "number": 64,
                        "time": 55.64726536666664,
                        "value": 0
                    },
                    {
                        "number": 64,
                        "time": 55.699896966666635,
                        "value": 1
                    },
                    {
                        "number": 64,
                        "time": 55.939871999999966,
                        "value": 0
                    },
                    {
                        "number": 64,
                        "time": 57.16042386666663,
                        "value": 1
                    },
                    {
                        "number": 64,
                        "time": 57.4524039333333,
                        "value": 0
                    },
                    {
                        "number": 64,
                        "time": 57.51881999999997,
                        "value": 1
                    },
                    {
                        "number": 64,
                        "time": 57.752529366666636,
                        "value": 0
                    },
                    {
                        "number": 64,
                        "time": 58.10716609999997,
                        "value": 1
                    },
                    {
                        "number": 64,
                        "time": 58.35215366666664,
                        "value": 0
                    },
                    {
                        "number": 64,
                        "time": 58.434233899999974,
                        "value": 1
                    },
                    {
                        "number": 64,
                        "time": 58.655411933333305,
                        "value": 0
                    },
                    {
                        "number": 64,
                        "time": 59.00942209999997,
                        "value": 1
                    },
                    {
                        "number": 64,
                        "time": 59.25754249999997,
                        "value": 0
                    },
                    {
                        "number": 64,
                        "time": 59.3057881333333,
                        "value": 1
                    },
                    {
                        "number": 64,
                        "time": 59.5520288333333,
                        "value": 0
                    },
                    {
                        "number": 64,
                        "time": 59.9072921333333,
                        "value": 1
                    },
                    {
                        "number": 64,
                        "time": 60.15415939999997,
                        "value": 0
                    },
                    {
                        "number": 64,
                        "time": 60.221202033333306,
                        "value": 1
                    },
                    {
                        "number": 64,
                        "time": 60.45992393333331,
                        "value": 0
                    },
                    {
                        "number": 64,
                        "time": 60.526339999999976,
                        "value": 1
                    },
                    {
                        "number": 64,
                        "time": 60.76004936666664,
                        "value": 0
                    },
                    {
                        "number": 64,
                        "time": 60.84463586666664,
                        "value": 1
                    },
                    {
                        "number": 64,
                        "time": 61.06017479999998,
                        "value": 0
                    },
                    {
                        "number": 64,
                        "time": 61.145387866666645,
                        "value": 1
                    },
                    {
                        "number": 64,
                        "time": 61.36217993333331,
                        "value": 0
                    },
                    {
                        "number": 64,
                        "time": 61.415438099999974,
                        "value": 1
                    },
                    {
                        "number": 64,
                        "time": 61.95616513333331,
                        "value": 0
                    },
                    {
                        "number": 64,
                        "time": 62.01694209999997,
                        "value": 1
                    },
                    {
                        "number": 64,
                        "time": 62.259423399999974,
                        "value": 0
                    },
                    {
                        "number": 64,
                        "time": 62.32208006666664,
                        "value": 1
                    },
                    {
                        "number": 64,
                        "time": 62.56581449999997,
                        "value": 0
                    },
                    {
                        "number": 64,
                        "time": 62.63598996666664,
                        "value": 1
                    },
                    {
                        "number": 64,
                        "time": 62.86531336666664,
                        "value": 0
                    },
                    {
                        "number": 64,
                        "time": 62.919198099999974,
                        "value": 1
                    },
                    {
                        "number": 64,
                        "time": 63.157919999999976,
                        "value": 0
                    },
                    {
                        "number": 64,
                        "time": 63.27070199999998,
                        "value": 1
                    },
                    {
                        "number": 64,
                        "time": 63.765689666666646,
                        "value": 0
                    },
                    {
                        "number": 64,
                        "time": 63.86594033333331,
                        "value": 1
                    },
                    {
                        "number": 64,
                        "time": 64.06456196666664,
                        "value": 0
                    },
                    {
                        "number": 64,
                        "time": 64.96681796666664,
                        "value": 1
                    },
                    {
                        "number": 64,
                        "time": 65.12220649999998,
                        "value": 0
                    },
                    {
                        "number": 64,
                        "time": 65.32521409999998,
                        "value": 1
                    },
                    {
                        "number": 64,
                        "time": 65.41982566666665,
                        "value": 0
                    },
                    {
                        "number": 64,
                        "time": 65.63035206666666,
                        "value": 1
                    },
                    {
                        "number": 64,
                        "time": 65.72183079999999,
                        "value": 0
                    },
                    {
                        "number": 64,
                        "time": 66.78010189999999,
                        "value": 1
                    },
                    {
                        "number": 64,
                        "time": 67.37534023333332,
                        "value": 0
                    },
                    {
                        "number": 64,
                        "time": 67.46619239999998,
                        "value": 1
                    },
                    {
                        "number": 64,
                        "time": 67.71807219999998,
                        "value": 0
                    },
                    {
                        "number": 64,
                        "time": 68.57145599999998,
                        "value": 1
                    },
                    {
                        "number": 64,
                        "time": 68.64977683333332,
                        "value": 0
                    },
                    {
                        "number": 64,
                        "time": 68.89727066666666,
                        "value": 1
                    },
                    {
                        "number": 64,
                        "time": 68.95366166666666,
                        "value": 0
                    },
                    {
                        "number": 64,
                        "time": 69.20178206666667,
                        "value": 1
                    },
                    {
                        "number": 64,
                        "time": 69.25504023333333,
                        "value": 0
                    },
                    {
                        "number": 64,
                        "time": 70.4116823,
                        "value": 1
                    },
                    {
                        "number": 64,
                        "time": 70.98373766666666,
                        "value": 0
                    },
                    {
                        "number": 64,
                        "time": 71.08398833333332,
                        "value": 1
                    },
                    {
                        "number": 64,
                        "time": 71.28260996666666,
                        "value": 0
                    },
                    {
                        "number": 64,
                        "time": 72.18486596666665,
                        "value": 1
                    },
                    {
                        "number": 64,
                        "time": 72.34025449999999,
                        "value": 0
                    },
                    {
                        "number": 64,
                        "time": 72.54326209999999,
                        "value": 1
                    },
                    {
                        "number": 64,
                        "time": 72.63787366666666,
                        "value": 0
                    },
                    {
                        "number": 64,
                        "time": 72.84840006666667,
                        "value": 1
                    },
                    {
                        "number": 64,
                        "time": 72.9398788,
                        "value": 0
                    },
                    {
                        "number": 64,
                        "time": 74.30328786666666,
                        "value": 1
                    },
                    {
                        "number": 64,
                        "time": 74.59526793333333,
                        "value": 0
                    },
                    {
                        "number": 64,
                        "time": 74.661684,
                        "value": 1
                    },
                    {
                        "number": 64,
                        "time": 74.89100739999999,
                        "value": 0
                    },
                    {
                        "number": 64,
                        "time": 74.94113273333332,
                        "value": 1
                    },
                    {
                        "number": 64,
                        "time": 75.19614536666666,
                        "value": 0
                    },
                    {
                        "number": 64,
                        "time": 75.26694739999999,
                        "value": 1
                    },
                    {
                        "number": 64,
                        "time": 75.50128333333332,
                        "value": 0
                    },
                    {
                        "number": 64,
                        "time": 75.55328836666665,
                        "value": 1
                    },
                    {
                        "number": 64,
                        "time": 75.81644636666665,
                        "value": 0
                    },
                    {
                        "number": 64,
                        "time": 75.87346393333333,
                        "value": 1
                    },
                    {
                        "number": 64,
                        "time": 76.09840136666666,
                        "value": 0
                    },
                    {
                        "number": 64,
                        "time": 76.1786019,
                        "value": 1
                    },
                    {
                        "number": 64,
                        "time": 76.39977993333333,
                        "value": 0
                    },
                    {
                        "number": 64,
                        "time": 76.45742406666666,
                        "value": 1
                    },
                    {
                        "number": 64,
                        "time": 76.6955194,
                        "value": 0
                    },
                    {
                        "number": 64,
                        "time": 76.74940413333333,
                        "value": 1
                    },
                    {
                        "number": 64,
                        "time": 77.00128393333333,
                        "value": 0
                    },
                    {
                        "number": 64,
                        "time": 77.05328896666666,
                        "value": 1
                    },
                    {
                        "number": 64,
                        "time": 77.30140936666666,
                        "value": 0
                    },
                    {
                        "number": 64,
                        "time": 77.36531916666667,
                        "value": 1
                    },
                    {
                        "number": 64,
                        "time": 77.594016,
                        "value": 0
                    },
                    {
                        "number": 64,
                        "time": 77.91231186666667,
                        "value": 1
                    },
                    {
                        "number": 64,
                        "time": 78.20429193333334,
                        "value": 0
                    },
                    {
                        "number": 64,
                        "time": 78.270708,
                        "value": 1
                    },
                    {
                        "number": 64,
                        "time": 78.5000314,
                        "value": 0
                    },
                    {
                        "number": 64,
                        "time": 78.55015673333332,
                        "value": 1
                    },
                    {
                        "number": 64,
                        "time": 78.80516936666666,
                        "value": 0
                    },
                    {
                        "number": 64,
                        "time": 78.85466813333333,
                        "value": 1
                    },
                    {
                        "number": 64,
                        "time": 79.11030733333334,
                        "value": 0
                    },
                    {
                        "number": 64,
                        "time": 79.16231236666667,
                        "value": 1
                    },
                    {
                        "number": 64,
                        "time": 79.42547036666667,
                        "value": 0
                    },
                    {
                        "number": 64,
                        "time": 79.48248793333335,
                        "value": 1
                    },
                    {
                        "number": 64,
                        "time": 79.70742536666668,
                        "value": 0
                    },
                    {
                        "number": 64,
                        "time": 79.78762590000002,
                        "value": 1
                    },
                    {
                        "number": 64,
                        "time": 80.00880393333335,
                        "value": 0
                    },
                    {
                        "number": 64,
                        "time": 80.06644806666668,
                        "value": 1
                    },
                    {
                        "number": 64,
                        "time": 80.30454340000001,
                        "value": 0
                    },
                    {
                        "number": 64,
                        "time": 80.35842813333335,
                        "value": 1
                    },
                    {
                        "number": 64,
                        "time": 80.61030793333335,
                        "value": 0
                    },
                    {
                        "number": 64,
                        "time": 80.66231296666668,
                        "value": 1
                    },
                    {
                        "number": 64,
                        "time": 80.91043336666668,
                        "value": 0
                    },
                    {
                        "number": 64,
                        "time": 80.97058376666668,
                        "value": 1
                    },
                    {
                        "number": 64,
                        "time": 81.20304000000002,
                        "value": 0
                    },
                    {
                        "number": 64,
                        "time": 82.42359186666668,
                        "value": 1
                    },
                    {
                        "number": 64,
                        "time": 82.71557193333335,
                        "value": 0
                    },
                    {
                        "number": 64,
                        "time": 82.78198800000001,
                        "value": 1
                    },
                    {
                        "number": 64,
                        "time": 83.01569736666669,
                        "value": 0
                    },
                    {
                        "number": 64,
                        "time": 83.37033410000002,
                        "value": 1
                    },
                    {
                        "number": 64,
                        "time": 83.61532166666669,
                        "value": 0
                    },
                    {
                        "number": 64,
                        "time": 83.69301593333336,
                        "value": 1
                    },
                    {
                        "number": 64,
                        "time": 83.91857993333336,
                        "value": 0
                    },
                    {
                        "number": 64,
                        "time": 84.27259010000003,
                        "value": 1
                    },
                    {
                        "number": 64,
                        "time": 84.52071050000004,
                        "value": 0
                    },
                    {
                        "number": 64,
                        "time": 84.6040438666667,
                        "value": 1
                    },
                    {
                        "number": 64,
                        "time": 84.81519683333336,
                        "value": 0
                    },
                    {
                        "number": 64,
                        "time": 85.17046013333336,
                        "value": 1
                    },
                    {
                        "number": 64,
                        "time": 85.41732740000003,
                        "value": 0
                    },
                    {
                        "number": 64,
                        "time": 85.48437003333336,
                        "value": 1
                    },
                    {
                        "number": 64,
                        "time": 85.72309193333336,
                        "value": 0
                    },
                    {
                        "number": 64,
                        "time": 85.78950800000003,
                        "value": 1
                    },
                    {
                        "number": 64,
                        "time": 86.0232173666667,
                        "value": 0
                    },
                    {
                        "number": 64,
                        "time": 86.10341790000004,
                        "value": 1
                    },
                    {
                        "number": 64,
                        "time": 86.32334280000003,
                        "value": 0
                    },
                    {
                        "number": 64,
                        "time": 86.4085558666667,
                        "value": 1
                    },
                    {
                        "number": 64,
                        "time": 86.62534793333337,
                        "value": 0
                    },
                    {
                        "number": 64,
                        "time": 86.67860610000004,
                        "value": 1
                    },
                    {
                        "number": 64,
                        "time": 87.21933313333338,
                        "value": 0
                    },
                    {
                        "number": 64,
                        "time": 87.28011010000004,
                        "value": 1
                    },
                    {
                        "number": 64,
                        "time": 87.52259140000004,
                        "value": 0
                    },
                    {
                        "number": 64,
                        "time": 87.58524806666671,
                        "value": 1
                    },
                    {
                        "number": 64,
                        "time": 87.82898250000004,
                        "value": 0
                    },
                    {
                        "number": 64,
                        "time": 87.8991579666667,
                        "value": 1
                    },
                    {
                        "number": 64,
                        "time": 88.1284813666667,
                        "value": 0
                    },
                    {
                        "number": 64,
                        "time": 88.20429593333337,
                        "value": 1
                    },
                    {
                        "number": 64,
                        "time": 88.42108800000004,
                        "value": 0
                    },
                    {
                        "number": 64,
                        "time": 88.53387000000004,
                        "value": 1
                    },
                    {
                        "number": 64,
                        "time": 89.0288576666667,
                        "value": 0
                    },
                    {
                        "number": 64,
                        "time": 89.12910833333336,
                        "value": 1
                    },
                    {
                        "number": 64,
                        "time": 89.3277299666667,
                        "value": 0
                    },
                    {
                        "number": 64,
                        "time": 90.22998596666669,
                        "value": 1
                    },
                    {
                        "number": 64,
                        "time": 90.38537450000003,
                        "value": 0
                    },
                    {
                        "number": 64,
                        "time": 90.58838210000003,
                        "value": 1
                    },
                    {
                        "number": 64,
                        "time": 90.6829936666667,
                        "value": 0
                    },
                    {
                        "number": 64,
                        "time": 90.89352006666671,
                        "value": 1
                    },
                    {
                        "number": 64,
                        "time": 90.98499880000004,
                        "value": 0
                    },
                    {
                        "number": 64,
                        "time": 92.04326990000004,
                        "value": 1
                    },
                    {
                        "number": 64,
                        "time": 92.63850823333337,
                        "value": 0
                    },
                    {
                        "number": 64,
                        "time": 92.72936040000003,
                        "value": 1
                    },
                    {
                        "number": 64,
                        "time": 92.98124020000003,
                        "value": 0
                    },
                    {
                        "number": 64,
                        "time": 93.83462400000003,
                        "value": 1
                    },
                    {
                        "number": 64,
                        "time": 93.91294483333337,
                        "value": 0
                    },
                    {
                        "number": 64,
                        "time": 94.1604386666667,
                        "value": 1
                    },
                    {
                        "number": 64,
                        "time": 94.21682966666671,
                        "value": 0
                    },
                    {
                        "number": 64,
                        "time": 94.46495006666672,
                        "value": 1
                    },
                    {
                        "number": 64,
                        "time": 94.51820823333338,
                        "value": 0
                    },
                    {
                        "number": 64,
                        "time": 95.66607836666671,
                        "value": 1
                    },
                    {
                        "number": 64,
                        "time": 95.94928650000004,
                        "value": 0
                    },
                    {
                        "number": 64,
                        "time": 96.04640433333337,
                        "value": 1
                    },
                    {
                        "number": 64,
                        "time": 96.24815880000004,
                        "value": 0
                    },
                    {
                        "number": 64,
                        "time": 96.32898590000003,
                        "value": 1
                    },
                    {
                        "number": 64,
                        "time": 96.55016393333337,
                        "value": 0
                    },
                    {
                        "number": 64,
                        "time": 96.63913640000003,
                        "value": 1
                    },
                    {
                        "number": 64,
                        "time": 96.85091593333335,
                        "value": 0
                    },
                    {
                        "number": 64,
                        "time": 96.93048990000003,
                        "value": 1
                    },
                    {
                        "number": 64,
                        "time": 97.15229450000002,
                        "value": 0
                    },
                    {
                        "number": 64,
                        "time": 97.25818426666669,
                        "value": 1
                    },
                    {
                        "number": 64,
                        "time": 97.4461542666667,
                        "value": 0
                    },
                    {
                        "number": 64,
                        "time": 97.52259540000003,
                        "value": 1
                    },
                    {
                        "number": 64,
                        "time": 97.75003910000002,
                        "value": 0
                    },
                    {
                        "number": 64,
                        "time": 97.83775843333336,
                        "value": 1
                    },
                    {
                        "number": 64,
                        "time": 98.0514176666667,
                        "value": 0
                    },
                    {
                        "number": 64,
                        "time": 98.1529214666667,
                        "value": 1
                    },
                    {
                        "number": 64,
                        "time": 98.34590400000003,
                        "value": 0
                    },
                    {
                        "number": 64,
                        "time": 98.46996420000004,
                        "value": 1
                    },
                    {
                        "number": 64,
                        "time": 98.65605450000004,
                        "value": 0
                    },
                    {
                        "number": 64,
                        "time": 98.74440040000003,
                        "value": 1
                    },
                    {
                        "number": 64,
                        "time": 98.9536736666667,
                        "value": 0
                    },
                    {
                        "number": 64,
                        "time": 99.04515240000003,
                        "value": 1
                    },
                    {
                        "number": 64,
                        "time": 99.24816000000004,
                        "value": 0
                    },
                    {
                        "number": 64,
                        "time": 99.34151843333338,
                        "value": 1
                    },
                    {
                        "number": 64,
                        "time": 99.55831050000005,
                        "value": 0
                    },
                    {
                        "number": 64,
                        "time": 99.62096716666672,
                        "value": 1
                    },
                    {
                        "number": 64,
                        "time": 99.86031563333339,
                        "value": 0
                    },
                    {
                        "number": 64,
                        "time": 99.92171916666672,
                        "value": 1
                    },
                    {
                        "number": 64,
                        "time": 100.15041600000005,
                        "value": 0
                    },
                    {
                        "number": 64,
                        "time": 100.27447620000005,
                        "value": 1
                    },
                    {
                        "number": 64,
                        "time": 100.76069193333339,
                        "value": 0
                    },
                    {
                        "number": 64,
                        "time": 100.84966440000005,
                        "value": 1
                    },
                    {
                        "number": 64,
                        "time": 101.15918833333339,
                        "value": 0
                    },
                    {
                        "number": 64,
                        "time": 101.23876230000006,
                        "value": 1
                    },
                    {
                        "number": 64,
                        "time": 101.3621959333334,
                        "value": 0
                    },
                    {
                        "number": 64,
                        "time": 101.43299796666673,
                        "value": 1
                    },
                    {
                        "number": 64,
                        "time": 101.66545420000007,
                        "value": 0
                    },
                    {
                        "number": 64,
                        "time": 101.75192040000007,
                        "value": 1
                    },
                    {
                        "number": 64,
                        "time": 101.9636999333334,
                        "value": 0
                    },
                    {
                        "number": 64,
                        "time": 102.07898820000007,
                        "value": 1
                    },
                    {
                        "number": 64,
                        "time": 102.26633163333341,
                        "value": 0
                    },
                    {
                        "number": 64,
                        "time": 102.88412636666673,
                        "value": 1
                    },
                    {
                        "number": 64,
                        "time": 103.16733450000007,
                        "value": 0
                    },
                    {
                        "number": 64,
                        "time": 103.2644523333334,
                        "value": 1
                    },
                    {
                        "number": 64,
                        "time": 103.46620680000007,
                        "value": 0
                    },
                    {
                        "number": 64,
                        "time": 103.54703390000006,
                        "value": 1
                    },
                    {
                        "number": 64,
                        "time": 103.76821193333339,
                        "value": 0
                    },
                    {
                        "number": 64,
                        "time": 103.85718440000005,
                        "value": 1
                    },
                    {
                        "number": 64,
                        "time": 104.06896393333338,
                        "value": 0
                    },
                    {
                        "number": 64,
                        "time": 104.14853790000005,
                        "value": 1
                    },
                    {
                        "number": 64,
                        "time": 104.37034250000005,
                        "value": 0
                    },
                    {
                        "number": 64,
                        "time": 104.47623226666671,
                        "value": 1
                    },
                    {
                        "number": 64,
                        "time": 104.66420226666672,
                        "value": 0
                    },
                    {
                        "number": 64,
                        "time": 104.74064340000005,
                        "value": 1
                    },
                    {
                        "number": 64,
                        "time": 104.96808710000005,
                        "value": 0
                    },
                    {
                        "number": 64,
                        "time": 105.05580643333339,
                        "value": 1
                    },
                    {
                        "number": 64,
                        "time": 105.26946566666672,
                        "value": 0
                    },
                    {
                        "number": 64,
                        "time": 105.37096946666672,
                        "value": 1
                    },
                    {
                        "number": 64,
                        "time": 105.56395200000006,
                        "value": 0
                    },
                    {
                        "number": 64,
                        "time": 105.68801220000006,
                        "value": 1
                    },
                    {
                        "number": 64,
                        "time": 105.87410250000006,
                        "value": 0
                    },
                    {
                        "number": 64,
                        "time": 105.96244840000006,
                        "value": 1
                    },
                    {
                        "number": 64,
                        "time": 106.17172166666673,
                        "value": 0
                    },
                    {
                        "number": 64,
                        "time": 106.26320040000006,
                        "value": 1
                    },
                    {
                        "number": 64,
                        "time": 106.46620800000007,
                        "value": 0
                    },
                    {
                        "number": 64,
                        "time": 106.5595664333334,
                        "value": 1
                    },
                    {
                        "number": 64,
                        "time": 106.77635850000007,
                        "value": 0
                    },
                    {
                        "number": 64,
                        "time": 106.83901516666674,
                        "value": 1
                    },
                    {
                        "number": 64,
                        "time": 107.07836363333341,
                        "value": 0
                    },
                    {
                        "number": 64,
                        "time": 107.13976716666674,
                        "value": 1
                    },
                    {
                        "number": 64,
                        "time": 107.36846400000007,
                        "value": 0
                    },
                    {
                        "number": 64,
                        "time": 107.49252420000008,
                        "value": 1
                    },
                    {
                        "number": 64,
                        "time": 107.97873993333342,
                        "value": 0
                    },
                    {
                        "number": 64,
                        "time": 108.06771240000008,
                        "value": 1
                    },
                    {
                        "number": 64,
                        "time": 108.37723633333341,
                        "value": 0
                    },
                    {
                        "number": 64,
                        "time": 108.45681030000009,
                        "value": 1
                    },
                    {
                        "number": 64,
                        "time": 108.58024393333342,
                        "value": 0
                    },
                    {
                        "number": 64,
                        "time": 108.65104596666676,
                        "value": 1
                    },
                    {
                        "number": 64,
                        "time": 108.8835022000001,
                        "value": 0
                    },
                    {
                        "number": 64,
                        "time": 108.9699684000001,
                        "value": 1
                    },
                    {
                        "number": 64,
                        "time": 109.18174793333343,
                        "value": 0
                    },
                    {
                        "number": 64,
                        "time": 109.37347733333343,
                        "value": 1
                    },
                    {
                        "number": 64,
                        "time": 110.0752320000001,
                        "value": 0
                    },
                    {
                        "number": 64,
                        "time": 111.8797440000001,
                        "value": 0
                    },
                    {
                        "number": 64,
                        "time": 117.0677160000001,
                        "value": 1
                    },
                    {
                        "number": 64,
                        "time": 117.29328000000011,
                        "value": 0
                    },
                    {
                        "number": 64,
                        "time": 117.37285396666678,
                        "value": 1
                    },
                    {
                        "number": 64,
                        "time": 117.90104966666678,
                        "value": 0
                    },
                    {
                        "number": 64,
                        "time": 118.00130033333345,
                        "value": 1
                    },
                    {
                        "number": 64,
                        "time": 118.19992196666678,
                        "value": 0
                    },
                    {
                        "number": 64,
                        "time": 119.10217796666677,
                        "value": 1
                    },
                    {
                        "number": 64,
                        "time": 119.25756650000011,
                        "value": 0
                    },
                    {
                        "number": 64,
                        "time": 119.46057410000012,
                        "value": 1
                    },
                    {
                        "number": 64,
                        "time": 119.55518566666679,
                        "value": 0
                    },
                    {
                        "number": 64,
                        "time": 119.7657120666668,
                        "value": 1
                    },
                    {
                        "number": 64,
                        "time": 119.85719080000013,
                        "value": 0
                    },
                    {
                        "number": 64,
                        "time": 120.91546190000012,
                        "value": 1
                    },
                    {
                        "number": 64,
                        "time": 121.51070023333345,
                        "value": 0
                    },
                    {
                        "number": 64,
                        "time": 121.58776793333345,
                        "value": 1
                    },
                    {
                        "number": 64,
                        "time": 121.85343220000011,
                        "value": 0
                    },
                    {
                        "number": 64,
                        "time": 122.70681600000012,
                        "value": 1
                    },
                    {
                        "number": 64,
                        "time": 122.78513683333345,
                        "value": 0
                    },
                    {
                        "number": 64,
                        "time": 123.03263066666679,
                        "value": 1
                    },
                    {
                        "number": 64,
                        "time": 123.0890216666668,
                        "value": 0
                    },
                    {
                        "number": 64,
                        "time": 123.3371420666668,
                        "value": 1
                    },
                    {
                        "number": 64,
                        "time": 123.39040023333347,
                        "value": 0
                    },
                    {
                        "number": 64,
                        "time": 124.54704230000013,
                        "value": 1
                    },
                    {
                        "number": 64,
                        "time": 125.11909766666679,
                        "value": 0
                    },
                    {
                        "number": 64,
                        "time": 125.21934833333346,
                        "value": 1
                    },
                    {
                        "number": 64,
                        "time": 125.41796996666679,
                        "value": 0
                    },
                    {
                        "number": 64,
                        "time": 126.35155430000012,
                        "value": 1
                    },
                    {
                        "number": 64,
                        "time": 126.92360966666678,
                        "value": 0
                    },
                    {
                        "number": 64,
                        "time": 127.02386033333345,
                        "value": 1
                    },
                    {
                        "number": 64,
                        "time": 127.21809600000012,
                        "value": 0
                    },
                    {
                        "number": 64,
                        "time": 127.28012610000012,
                        "value": 1
                    },
                    {
                        "number": 64,
                        "time": 127.82586566666679,
                        "value": 0
                    },
                    {
                        "number": 64,
                        "time": 127.92611633333345,
                        "value": 1
                    },
                    {
                        "number": 64,
                        "time": 128.1203520000001,
                        "value": 0
                    },
                    {
                        "number": 64,
                        "time": 128.21809640000012,
                        "value": 1
                    },
                    {
                        "number": 64,
                        "time": 129.02260800000013,
                        "value": 0
                    },
                    {
                        "number": 64,
                        "time": 129.10656793333348,
                        "value": 1
                    },
                    {
                        "number": 64,
                        "time": 129.92486400000016,
                        "value": 0
                    },
                    {
                        "number": 64,
                        "time": 130.02260840000017,
                        "value": 1
                    },
                    {
                        "number": 64,
                        "time": 130.82712000000018,
                        "value": 0
                    },
                    {
                        "number": 64,
                        "time": 130.91107993333353,
                        "value": 1
                    },
                    {
                        "number": 64,
                        "time": 132.0301280000002,
                        "value": 0
                    },
                    {
                        "number": 64,
                        "time": 132.4060680000002,
                        "value": 1
                    },
                    {
                        "number": 64,
                        "time": 132.63601796666688,
                        "value": 0
                    },
                    {
                        "number": 64,
                        "time": 132.70243403333356,
                        "value": 1
                    },
                    {
                        "number": 64,
                        "time": 133.2394016666669,
                        "value": 0
                    },
                    {
                        "number": 64,
                        "time": 133.33965233333356,
                        "value": 1
                    },
                    {
                        "number": 64,
                        "time": 133.5382739666669,
                        "value": 0
                    },
                    {
                        "number": 64,
                        "time": 134.4405299666669,
                        "value": 1
                    },
                    {
                        "number": 64,
                        "time": 134.59591850000024,
                        "value": 0
                    },
                    {
                        "number": 64,
                        "time": 134.79892610000024,
                        "value": 1
                    },
                    {
                        "number": 64,
                        "time": 134.8935376666669,
                        "value": 0
                    },
                    {
                        "number": 64,
                        "time": 135.1040640666669,
                        "value": 1
                    },
                    {
                        "number": 64,
                        "time": 135.19554280000023,
                        "value": 0
                    },
                    {
                        "number": 64,
                        "time": 136.25381390000024,
                        "value": 1
                    },
                    {
                        "number": 64,
                        "time": 136.84905223333357,
                        "value": 0
                    },
                    {
                        "number": 64,
                        "time": 136.89980413333356,
                        "value": 1
                    },
                    {
                        "number": 64,
                        "time": 137.15168393333357,
                        "value": 0
                    },
                    {
                        "number": 64,
                        "time": 137.24065640000023,
                        "value": 1
                    },
                    {
                        "number": 64,
                        "time": 138.04516800000025,
                        "value": 0
                    },
                    {
                        "number": 64,
                        "time": 138.11597003333358,
                        "value": 1
                    },
                    {
                        "number": 64,
                        "time": 138.19554400000024,
                        "value": 0
                    },
                    {
                        "number": 64,
                        "time": 138.37098266666692,
                        "value": 1
                    },
                    {
                        "number": 64,
                        "time": 138.65293766666693,
                        "value": 0
                    },
                    {
                        "number": 64,
                        "time": 138.7663462333336,
                        "value": 1
                    },
                    {
                        "number": 64,
                        "time": 138.94742400000027,
                        "value": 0
                    },
                    {
                        "number": 64,
                        "time": 139.01384006666694,
                        "value": 1
                    },
                    {
                        "number": 64,
                        "time": 139.8496800000003,
                        "value": 0
                    },
                    {
                        "number": 64,
                        "time": 139.9380259000003,
                        "value": 1
                    },
                    {
                        "number": 64,
                        "time": 140.02699836666696,
                        "value": 0
                    },
                    {
                        "number": 64,
                        "time": 140.17549466666696,
                        "value": 1
                    },
                    {
                        "number": 64,
                        "time": 140.45556996666696,
                        "value": 0
                    },
                    {
                        "number": 64,
                        "time": 140.53075796666695,
                        "value": 1
                    },
                    {
                        "number": 64,
                        "time": 140.75193600000028,
                        "value": 0
                    },
                    {
                        "number": 64,
                        "time": 141.65419200000028,
                        "value": 1
                    },
                    {
                        "number": 64,
                        "time": 142.12223730000028,
                        "value": 0
                    }
                ]
            },
            "id": 3,
            "name": "Pedale",
            "instrumentNumber": 0,
            "instrument": "acoustic grand piano",
            "instrumentFamily": "piano",
            "channelNumber": 0,
            "isPercussion": false
        },
        {
            "startTime": 0,
            "duration": 0,
            "length": 0,
            "notes": [],
            "controlChanges": {},
            "id": 4,
            "name": "Haydn: Sonata Hoboken XVI:35 3. movement"
        },
        {
            "startTime": 0,
            "duration": 0,
            "length": 0,
            "notes": [],
            "controlChanges": {},
            "id": 5,
            "name": "Copyright  2009 by Bernd Krueger"
        },
        {
            "startTime": 0,
            "duration": 0,
            "length": 0,
            "notes": [],
            "controlChanges": {},
            "id": 6,
            "name": "http://www.piano-midi.de/"
        },
        {
            "startTime": 0,
            "duration": 0,
            "length": 0,
            "notes": [],
            "controlChanges": {},
            "id": 7,
            "name": "Edition: 2011-12-06"
        },
        {
            "startTime": 0,
            "duration": 0,
            "length": 0,
            "notes": [],
            "controlChanges": {},
            "id": 8,
            "name": "Spur 8"
        },
        {
            "startTime": 0,
            "duration": 0,
            "length": 0,
            "notes": [],
            "controlChanges": {},
            "id": 9,
            "name": "Spur 9"
        },
        {
            "startTime": 0,
            "duration": 0,
            "length": 0,
            "notes": [],
            "controlChanges": {},
            "id": 10,
            "name": "Spur 10"
        },
        {
            "startTime": 0,
            "duration": 0,
            "length": 0,
            "notes": [],
            "controlChanges": {},
            "id": 11,
            "name": "Spur 11"
        },
        {
            "startTime": 0,
            "duration": 0,
            "length": 0,
            "notes": [],
            "controlChanges": {},
            "id": 12,
            "name": "Spur 12"
        },
        {
            "startTime": 0,
            "duration": 0,
            "length": 0,
            "notes": [],
            "controlChanges": {},
            "id": 13,
            "name": "Spur 13"
        },
        {
            "startTime": 0,
            "duration": 0,
            "length": 0,
            "notes": [],
            "controlChanges": {},
            "id": 14,
            "name": "Spur 14"
        },
        {
            "startTime": 0,
            "duration": 0,
            "length": 0,
            "notes": [],
            "controlChanges": {},
            "id": 15,
            "name": "Spur 15"
        },
        {
            "startTime": 0,
            "duration": 0,
            "length": 0,
            "notes": [],
            "controlChanges": {},
            "id": 16,
            "name": "Spur 16"
        }
    ]
}