{
    "header": {
        "PPQ": 480,
        "timeSignature": [
            3,
            4
        ],
        "bpm": 119.23001257876632,
        "name": "Haydn: Klaviersonate Hoboken XVI: 43 2. Satz"
    },
    "startTime": 0,
    "duration": 154.4913030000006,
    "tracks": [
        {
            "startTime": 0,
            "duration": 0,
            "length": 0,
            "notes": [],
            "controlChanges": {},
            "id": 0,
            "name": "Haydn: Klaviersonate Hoboken XVI: 43 2. Satz"
        },
        {
            "startTime": 1.006458,
            "duration": 154.49130300000053,
            "length": 466,
            "notes": [
                {
                    "name": "D#5",
                    "midi": 75,
                    "time": 1.006458,
                    "velocity": 0.5669291338582677,
                    "duration": 0.12580725000000004
                },
                {
                    "name": "D#5",
                    "midi": 75,
                    "time": 1.3838797500000002,
                    "velocity": 0.48031496062992124,
                    "duration": 0.09435543749999997
                },
                {
                    "name": "D#5",
                    "midi": 75,
                    "time": 1.5096870000000002,
                    "velocity": 0.5669291338582677,
                    "duration": 0.5032289999999999
                },
                {
                    "name": "G#5",
                    "midi": 80,
                    "time": 2.5161450000000003,
                    "velocity": 0.5669291338582677,
                    "duration": 0.12580724999999982
                },
                {
                    "name": "G#5",
                    "midi": 80,
                    "time": 2.89356675,
                    "velocity": 0.5039370078740157,
                    "duration": 0.09435543749999997
                },
                {
                    "name": "G#5",
                    "midi": 80,
                    "time": 3.019374,
                    "velocity": 0.5669291338582677,
                    "duration": 0.5032290000000001
                },
                {
                    "name": "G#4",
                    "midi": 68,
                    "time": 4.025832,
                    "velocity": 0.48031496062992124,
                    "duration": 0.12580725000000026
                },
                {
                    "name": "C5",
                    "midi": 72,
                    "time": 4.025832,
                    "velocity": 0.5669291338582677,
                    "duration": 0.12580725000000026
                },
                {
                    "name": "G#4",
                    "midi": 68,
                    "time": 4.40325375,
                    "velocity": 0.4015748031496063,
                    "duration": 0.09435543749999997
                },
                {
                    "name": "C5",
                    "midi": 72,
                    "time": 4.40325375,
                    "velocity": 0.48031496062992124,
                    "duration": 0.09435543749999997
                },
                {
                    "name": "G#4",
                    "midi": 68,
                    "time": 4.5290610000000004,
                    "velocity": 0.48031496062992124,
                    "duration": 0.5032290000000001
                },
                {
                    "name": "C5",
                    "midi": 72,
                    "time": 4.5290610000000004,
                    "velocity": 0.5669291338582677,
                    "duration": 0.5032290000000001
                },
                {
                    "name": "C#5",
                    "midi": 73,
                    "time": 5.032290000000001,
                    "velocity": 0.5354330708661418,
                    "duration": 0.12580725000000026
                },
                {
                    "name": "A#4",
                    "midi": 70,
                    "time": 5.032290000000001,
                    "velocity": 0.44881889763779526,
                    "duration": 0.12580725000000026
                },
                {
                    "name": "C#5",
                    "midi": 73,
                    "time": 5.535519000000001,
                    "velocity": 0.4094488188976378,
                    "duration": 0.12580725000000026
                },
                {
                    "name": "F5",
                    "midi": 77,
                    "time": 5.535519000000001,
                    "velocity": 0.4881889763779528,
                    "duration": 0.12580725000000026
                },
                {
                    "name": "A#4",
                    "midi": 70,
                    "time": 6.038748000000001,
                    "velocity": 0.5039370078740157,
                    "duration": 0.9959740625000002
                },
                {
                    "name": "G4",
                    "midi": 67,
                    "time": 6.038748000000001,
                    "velocity": 0.4330708661417323,
                    "duration": 0.9959740625000002
                },
                {
                    "name": "D#4",
                    "midi": 63,
                    "time": 7.045206000000001,
                    "velocity": 0.5669291338582677,
                    "duration": 0.12580725000000026
                },
                {
                    "name": "D#4",
                    "midi": 63,
                    "time": 7.422627750000001,
                    "velocity": 0.4015748031496063,
                    "duration": 0.09435543749999997
                },
                {
                    "name": "G#4",
                    "midi": 68,
                    "time": 7.548435000000001,
                    "velocity": 0.5669291338582677,
                    "duration": 0.12580725000000026
                },
                {
                    "name": "G#4",
                    "midi": 68,
                    "time": 8.051664000000002,
                    "velocity": 0.5039370078740157,
                    "duration": 0.12580724999999937
                },
                {
                    "name": "G#4",
                    "midi": 68,
                    "time": 8.554893000000002,
                    "velocity": 0.5039370078740157,
                    "duration": 0.12580724999999937
                },
                {
                    "name": "A#4",
                    "midi": 70,
                    "time": 9.058122000000001,
                    "velocity": 0.5669291338582677,
                    "duration": 0.5032289999999993
                },
                {
                    "name": "A#4",
                    "midi": 70,
                    "time": 10.06458,
                    "velocity": 0.5669291338582677,
                    "duration": 0.12580724999999937
                },
                {
                    "name": "A#4",
                    "midi": 70,
                    "time": 10.44200175,
                    "velocity": 0.49606299212598426,
                    "duration": 0.09435543750000086
                },
                {
                    "name": "C5",
                    "midi": 72,
                    "time": 10.567809,
                    "velocity": 0.5669291338582677,
                    "duration": 0.12580724999999937
                },
                {
                    "name": "C5",
                    "midi": 72,
                    "time": 11.071038,
                    "velocity": 0.5433070866141733,
                    "duration": 0.12580724999999937
                },
                {
                    "name": "G#4",
                    "midi": 68,
                    "time": 11.574266999999999,
                    "velocity": 0.4881889763779528,
                    "duration": 0.12580724999999937
                },
                {
                    "name": "D5",
                    "midi": 74,
                    "time": 11.574266999999999,
                    "velocity": 0.5826771653543307,
                    "duration": 0.12580724999999937
                },
                {
                    "name": "D#5",
                    "midi": 75,
                    "time": 12.077495999999998,
                    "velocity": 0.6535433070866141,
                    "duration": 0.5032289999999993
                },
                {
                    "name": "G4",
                    "midi": 67,
                    "time": 12.077495999999998,
                    "velocity": 0.5511811023622047,
                    "duration": 0.5032289999999993
                },
                {
                    "name": "D#5",
                    "midi": 75,
                    "time": 13.083953999999997,
                    "velocity": 0.5669291338582677,
                    "duration": 0.12580724999999937
                },
                {
                    "name": "D#5",
                    "midi": 75,
                    "time": 13.461375749999997,
                    "velocity": 0.48031496062992124,
                    "duration": 0.09435543750000086
                },
                {
                    "name": "D#5",
                    "midi": 75,
                    "time": 13.587182999999998,
                    "velocity": 0.5669291338582677,
                    "duration": 0.5032289999999993
                },
                {
                    "name": "G#5",
                    "midi": 80,
                    "time": 14.593640999999996,
                    "velocity": 0.5669291338582677,
                    "duration": 0.12580724999999937
                },
                {
                    "name": "G#5",
                    "midi": 80,
                    "time": 14.971062749999996,
                    "velocity": 0.5039370078740157,
                    "duration": 0.09435543750000086
                },
                {
                    "name": "G#5",
                    "midi": 80,
                    "time": 15.096869999999997,
                    "velocity": 0.5669291338582677,
                    "duration": 0.5032289999999993
                },
                {
                    "name": "G#4",
                    "midi": 68,
                    "time": 16.103327999999998,
                    "velocity": 0.48031496062992124,
                    "duration": 0.12580725000000115
                },
                {
                    "name": "C5",
                    "midi": 72,
                    "time": 16.103327999999998,
                    "velocity": 0.5669291338582677,
                    "duration": 0.12580725000000115
                },
                {
                    "name": "G#4",
                    "midi": 68,
                    "time": 16.480749749999998,
                    "velocity": 0.4015748031496063,
                    "duration": 0.09435543749999908
                },
                {
                    "name": "C5",
                    "midi": 72,
                    "time": 16.480749749999998,
                    "velocity": 0.48031496062992124,
                    "duration": 0.09435543749999908
                },
                {
                    "name": "G#4",
                    "midi": 68,
                    "time": 16.606556999999995,
                    "velocity": 0.48031496062992124,
                    "duration": 0.503229000000001
                },
                {
                    "name": "C5",
                    "midi": 72,
                    "time": 16.606556999999995,
                    "velocity": 0.5669291338582677,
                    "duration": 0.503229000000001
                },
                {
                    "name": "C#5",
                    "midi": 73,
                    "time": 17.109785999999996,
                    "velocity": 0.5354330708661418,
                    "duration": 0.12580725000000115
                },
                {
                    "name": "A#4",
                    "midi": 70,
                    "time": 17.109785999999996,
                    "velocity": 0.44881889763779526,
                    "duration": 0.12580725000000115
                },
                {
                    "name": "C#5",
                    "midi": 73,
                    "time": 17.613014999999997,
                    "velocity": 0.4094488188976378,
                    "duration": 0.12580725000000115
                },
                {
                    "name": "F5",
                    "midi": 77,
                    "time": 17.613014999999997,
                    "velocity": 0.4881889763779528,
                    "duration": 0.12580725000000115
                },
                {
                    "name": "A#4",
                    "midi": 70,
                    "time": 18.116244,
                    "velocity": 0.5039370078740157,
                    "duration": 0.9959740625000002
                },
                {
                    "name": "G4",
                    "midi": 67,
                    "time": 18.116244,
                    "velocity": 0.4330708661417323,
                    "duration": 0.9959740625000002
                },
                {
                    "name": "D#4",
                    "midi": 63,
                    "time": 19.122701999999997,
                    "velocity": 0.5669291338582677,
                    "duration": 0.12580725000000115
                },
                {
                    "name": "D#4",
                    "midi": 63,
                    "time": 19.500123749999997,
                    "velocity": 0.4015748031496063,
                    "duration": 0.09435543749999908
                },
                {
                    "name": "G#4",
                    "midi": 68,
                    "time": 19.625930999999994,
                    "velocity": 0.5669291338582677,
                    "duration": 0.12580725000000115
                },
                {
                    "name": "G#4",
                    "midi": 68,
                    "time": 20.129159999999995,
                    "velocity": 0.5039370078740157,
                    "duration": 0.12580725000000115
                },
                {
                    "name": "G#4",
                    "midi": 68,
                    "time": 20.632388999999996,
                    "velocity": 0.5039370078740157,
                    "duration": 0.12580725000000115
                },
                {
                    "name": "A#4",
                    "midi": 70,
                    "time": 21.135617999999997,
                    "velocity": 0.5669291338582677,
                    "duration": 0.503229000000001
                },
                {
                    "name": "A#4",
                    "midi": 70,
                    "time": 22.142076,
                    "velocity": 0.5669291338582677,
                    "duration": 0.12580725000000115
                },
                {
                    "name": "A#4",
                    "midi": 70,
                    "time": 22.51949775,
                    "velocity": 0.49606299212598426,
                    "duration": 0.09435543749999908
                },
                {
                    "name": "C5",
                    "midi": 72,
                    "time": 22.645304999999997,
                    "velocity": 0.5669291338582677,
                    "duration": 0.12580725000000115
                },
                {
                    "name": "C5",
                    "midi": 72,
                    "time": 23.148533999999998,
                    "velocity": 0.5433070866141733,
                    "duration": 0.12580725000000115
                },
                {
                    "name": "G#4",
                    "midi": 68,
                    "time": 23.651763,
                    "velocity": 0.4881889763779528,
                    "duration": 0.12580725000000115
                },
                {
                    "name": "D5",
                    "midi": 74,
                    "time": 23.651763,
                    "velocity": 0.5826771653543307,
                    "duration": 0.12580725000000115
                },
                {
                    "name": "D#5",
                    "midi": 75,
                    "time": 24.154992,
                    "velocity": 0.6535433070866141,
                    "duration": 0.503229000000001
                },
                {
                    "name": "G4",
                    "midi": 67,
                    "time": 24.154992,
                    "velocity": 0.5511811023622047,
                    "duration": 0.503229000000001
                },
                {
                    "name": "D#5",
                    "midi": 75,
                    "time": 25.161450000000002,
                    "velocity": 0.5669291338582677,
                    "duration": 0.12580725000000115
                },
                {
                    "name": "D#5",
                    "midi": 75,
                    "time": 25.538871750000002,
                    "velocity": 0.48031496062992124,
                    "duration": 0.09435543749999908
                },
                {
                    "name": "D#5",
                    "midi": 75,
                    "time": 25.664679,
                    "velocity": 0.5669291338582677,
                    "duration": 0.12580725000000115
                },
                {
                    "name": "D#5",
                    "midi": 75,
                    "time": 26.167908,
                    "velocity": 0.47244094488188976,
                    "duration": 0.12580725000000115
                },
                {
                    "name": "F5",
                    "midi": 77,
                    "time": 26.671137,
                    "velocity": 0.5275590551181102,
                    "duration": 0.12580725000000115
                },
                {
                    "name": "F5",
                    "midi": 77,
                    "time": 27.04855875,
                    "velocity": 0.3937007874015748,
                    "duration": 0.09435543749999908
                },
                {
                    "name": "F5",
                    "midi": 77,
                    "time": 27.174366,
                    "velocity": 0.48031496062992124,
                    "duration": 0.503229000000001
                },
                {
                    "name": "A#5",
                    "midi": 82,
                    "time": 27.677595,
                    "velocity": 0.4645669291338583,
                    "duration": 0.3774217499999999
                },
                {
                    "name": "D#5",
                    "midi": 75,
                    "time": 28.180824,
                    "velocity": 0.5275590551181102,
                    "duration": 0.12580725000000115
                },
                {
                    "name": "D#5",
                    "midi": 75,
                    "time": 28.55824575,
                    "velocity": 0.3937007874015748,
                    "duration": 0.09435543749999908
                },
                {
                    "name": "D#5",
                    "midi": 75,
                    "time": 28.684053,
                    "velocity": 0.48031496062992124,
                    "duration": 0.503229000000001
                },
                {
                    "name": "G#5",
                    "midi": 80,
                    "time": 29.187282,
                    "velocity": 0.4645669291338583,
                    "duration": 0.3774217499999999
                },
                {
                    "name": "C5",
                    "midi": 72,
                    "time": 29.690511,
                    "velocity": 0.5275590551181102,
                    "duration": 0.12580725000000115
                },
                {
                    "name": "C5",
                    "midi": 72,
                    "time": 30.06793275,
                    "velocity": 0.3937007874015748,
                    "duration": 0.09435543749999908
                },
                {
                    "name": "C5",
                    "midi": 72,
                    "time": 30.19374,
                    "velocity": 0.48031496062992124,
                    "duration": 0.503229000000001
                },
                {
                    "name": "C#5",
                    "midi": 73,
                    "time": 30.696969,
                    "velocity": 0.44881889763779526,
                    "duration": 0.503229000000001
                },
                {
                    "name": "D5",
                    "midi": 74,
                    "time": 31.200198,
                    "velocity": 0.4645669291338583,
                    "duration": 0.503229000000001
                },
                {
                    "name": "D#5",
                    "midi": 75,
                    "time": 31.703427,
                    "velocity": 0.5669291338582677,
                    "duration": 0.12580725000000115
                },
                {
                    "name": "D#5",
                    "midi": 75,
                    "time": 32.206656,
                    "velocity": 0.47244094488188976,
                    "duration": 0.12580725000000115
                },
                {
                    "name": "F5",
                    "midi": 77,
                    "time": 32.70988500000001,
                    "velocity": 0.5275590551181102,
                    "duration": 0.37742175000000344
                },
                {
                    "name": "G5",
                    "midi": 79,
                    "time": 33.08730675000001,
                    "velocity": 0.3937007874015748,
                    "duration": 0.12580725000000115
                },
                {
                    "name": "D#5",
                    "midi": 75,
                    "time": 33.21311400000001,
                    "velocity": 0.5669291338582677,
                    "duration": 0.12580725000000115
                },
                {
                    "name": "D#5",
                    "midi": 75,
                    "time": 33.716343000000016,
                    "velocity": 0.47244094488188976,
                    "duration": 0.12580725000000115
                },
                {
                    "name": "A#5",
                    "midi": 82,
                    "time": 34.21957200000002,
                    "velocity": 0.5275590551181102,
                    "duration": 0.37742175000000344
                },
                {
                    "name": "A#5",
                    "midi": 82,
                    "time": 34.596993750000024,
                    "velocity": 0.3937007874015748,
                    "duration": 0.12580725000000115
                },
                {
                    "name": "D#5",
                    "midi": 75,
                    "time": 34.722801000000025,
                    "velocity": 0.5669291338582677,
                    "duration": 0.12580725000000115
                },
                {
                    "name": "D#5",
                    "midi": 75,
                    "time": 35.22603000000003,
                    "velocity": 0.47244094488188976,
                    "duration": 0.12580725000000115
                },
                {
                    "name": "A#5",
                    "midi": 82,
                    "time": 35.729259000000035,
                    "velocity": 0.4094488188976378,
                    "duration": 0.37742175000000344
                },
                {
                    "name": "A#5",
                    "midi": 82,
                    "time": 36.10668075000004,
                    "velocity": 0.30708661417322836,
                    "duration": 0.12580725000000115
                },
                {
                    "name": "D#5",
                    "midi": 75,
                    "time": 36.23248800000004,
                    "velocity": 0.44881889763779526,
                    "duration": 0.5032289999999975
                },
                {
                    "name": "D#4",
                    "midi": 63,
                    "time": 37.238946000000034,
                    "velocity": 0.6456692913385826,
                    "duration": 0.12580725000000115
                },
                {
                    "name": "C4",
                    "midi": 60,
                    "time": 37.238946000000034,
                    "velocity": 0.5433070866141733,
                    "duration": 0.12580725000000115
                },
                {
                    "name": "D#4",
                    "midi": 63,
                    "time": 37.61636775000004,
                    "velocity": 0.5905511811023622,
                    "duration": 0.09435543749999908
                },
                {
                    "name": "C4",
                    "midi": 60,
                    "time": 37.61636775000004,
                    "velocity": 0.49606299212598426,
                    "duration": 0.09435543749999908
                },
                {
                    "name": "D#4",
                    "midi": 63,
                    "time": 37.74217500000004,
                    "velocity": 0.6535433070866141,
                    "duration": 0.5032289999999975
                },
                {
                    "name": "C4",
                    "midi": 60,
                    "time": 37.74217500000004,
                    "velocity": 0.5511811023622047,
                    "duration": 0.5032289999999975
                },
                {
                    "name": "C6",
                    "midi": 84,
                    "time": 38.748633000000034,
                    "velocity": 0.7244094488188977,
                    "duration": 0.12580725000000115
                },
                {
                    "name": "G#5",
                    "midi": 80,
                    "time": 38.748633000000034,
                    "velocity": 0.6141732283464567,
                    "duration": 0.12580725000000115
                },
                {
                    "name": "G#5",
                    "midi": 80,
                    "time": 39.12605475000004,
                    "velocity": 0.5748031496062992,
                    "duration": 0.09435543749999908
                },
                {
                    "name": "C6",
                    "midi": 84,
                    "time": 39.12605475000004,
                    "velocity": 0.6771653543307087,
                    "duration": 0.09435543749999908
                },
                {
                    "name": "C6",
                    "midi": 84,
                    "time": 39.25186200000004,
                    "velocity": 0.7322834645669292,
                    "duration": 0.5032289999999975
                },
                {
                    "name": "G#5",
                    "midi": 80,
                    "time": 39.25186200000004,
                    "velocity": 0.6220472440944882,
                    "duration": 0.5032289999999975
                },
                {
                    "name": "A4",
                    "midi": 69,
                    "time": 40.25832000000003,
                    "velocity": 0.48031496062992124,
                    "duration": 0.12580725000000115
                },
                {
                    "name": "C5",
                    "midi": 72,
                    "time": 40.25832000000003,
                    "velocity": 0.5669291338582677,
                    "duration": 0.12580725000000115
                },
                {
                    "name": "A4",
                    "midi": 69,
                    "time": 40.63574175000004,
                    "velocity": 0.4015748031496063,
                    "duration": 0.09435543749999908
                },
                {
                    "name": "C5",
                    "midi": 72,
                    "time": 40.63574175000004,
                    "velocity": 0.48031496062992124,
                    "duration": 0.09435543749999908
                },
                {
                    "name": "A4",
                    "midi": 69,
                    "time": 40.76154900000004,
                    "velocity": 0.48031496062992124,
                    "duration": 0.5032289999999975
                },
                {
                    "name": "C5",
                    "midi": 72,
                    "time": 40.76154900000004,
                    "velocity": 0.5669291338582677,
                    "duration": 0.5032289999999975
                },
                {
                    "name": "C#5",
                    "midi": 73,
                    "time": 41.264778000000035,
                    "velocity": 0.5354330708661418,
                    "duration": 0.12580725000000115
                },
                {
                    "name": "A#4",
                    "midi": 70,
                    "time": 41.264778000000035,
                    "velocity": 0.44881889763779526,
                    "duration": 0.12580725000000115
                },
                {
                    "name": "G4",
                    "midi": 67,
                    "time": 41.76800700000004,
                    "velocity": 0.48031496062992124,
                    "duration": 0.12580725000000115
                },
                {
                    "name": "A#4",
                    "midi": 70,
                    "time": 41.76800700000004,
                    "velocity": 0.5669291338582677,
                    "duration": 0.12580725000000115
                },
                {
                    "name": "G4",
                    "midi": 67,
                    "time": 42.14542875000004,
                    "velocity": 0.4015748031496063,
                    "duration": 0.09435543749999908
                },
                {
                    "name": "A#4",
                    "midi": 70,
                    "time": 42.14542875000004,
                    "velocity": 0.48031496062992124,
                    "duration": 0.09435543749999908
                },
                {
                    "name": "G4",
                    "midi": 67,
                    "time": 42.271236000000044,
                    "velocity": 0.48031496062992124,
                    "duration": 0.5032289999999975
                },
                {
                    "name": "A#4",
                    "midi": 70,
                    "time": 42.271236000000044,
                    "velocity": 0.5669291338582677,
                    "duration": 0.5032289999999975
                },
                {
                    "name": "C5",
                    "midi": 72,
                    "time": 42.77446500000004,
                    "velocity": 0.5354330708661418,
                    "duration": 0.12580725000000115
                },
                {
                    "name": "G#4",
                    "midi": 68,
                    "time": 42.77446500000004,
                    "velocity": 0.44881889763779526,
                    "duration": 0.12580725000000115
                },
                {
                    "name": "C5",
                    "midi": 72,
                    "time": 43.27769400000005,
                    "velocity": 0.48031496062992124,
                    "duration": 0.12580725000000115
                },
                {
                    "name": "D#5",
                    "midi": 75,
                    "time": 43.27769400000005,
                    "velocity": 0.5669291338582677,
                    "duration": 0.12580725000000115
                },
                {
                    "name": "C5",
                    "midi": 72,
                    "time": 43.65511575000005,
                    "velocity": 0.4015748031496063,
                    "duration": 0.09435543749999908
                },
                {
                    "name": "D#5",
                    "midi": 75,
                    "time": 43.65511575000005,
                    "velocity": 0.48031496062992124,
                    "duration": 0.09435543749999908
                },
                {
                    "name": "C5",
                    "midi": 72,
                    "time": 43.78092300000005,
                    "velocity": 0.48031496062992124,
                    "duration": 0.5032289999999975
                },
                {
                    "name": "D#5",
                    "midi": 75,
                    "time": 43.78092300000005,
                    "velocity": 0.5669291338582677,
                    "duration": 0.5032289999999975
                },
                {
                    "name": "C#5",
                    "midi": 73,
                    "time": 44.28415200000005,
                    "velocity": 0.5354330708661418,
                    "duration": 0.12580725000000115
                },
                {
                    "name": "F5",
                    "midi": 77,
                    "time": 44.28415200000005,
                    "velocity": 0.44881889763779526,
                    "duration": 0.12580725000000115
                },
                {
                    "name": "C#4",
                    "midi": 61,
                    "time": 44.78738100000005,
                    "velocity": 0.4881889763779528,
                    "duration": 0.12580725000000115
                },
                {
                    "name": "G4",
                    "midi": 67,
                    "time": 44.78738100000005,
                    "velocity": 0.5826771653543307,
                    "duration": 0.12580725000000115
                },
                {
                    "name": "G#4",
                    "midi": 68,
                    "time": 45.29061000000006,
                    "velocity": 0.6535433070866141,
                    "duration": 0.5032289999999975
                },
                {
                    "name": "C4",
                    "midi": 60,
                    "time": 45.29061000000006,
                    "velocity": 0.5511811023622047,
                    "duration": 0.5032289999999975
                },
                {
                    "name": "D#5",
                    "midi": 75,
                    "time": 46.29706800000005,
                    "velocity": 0.5669291338582677,
                    "duration": 0.12580725000000115
                },
                {
                    "name": "D#5",
                    "midi": 75,
                    "time": 46.674489750000056,
                    "velocity": 0.48031496062992124,
                    "duration": 0.09435543749999908
                },
                {
                    "name": "D#5",
                    "midi": 75,
                    "time": 46.80029700000006,
                    "velocity": 0.5669291338582677,
                    "duration": 0.12580725000000115
                },
                {
                    "name": "D#5",
                    "midi": 75,
                    "time": 47.30352600000006,
                    "velocity": 0.47244094488188976,
                    "duration": 0.12580725000000115
                },
                {
                    "name": "F5",
                    "midi": 77,
                    "time": 47.80675500000007,
                    "velocity": 0.5275590551181102,
                    "duration": 0.12580725000000115
                },
                {
                    "name": "F5",
                    "midi": 77,
                    "time": 48.18417675000007,
                    "velocity": 0.3937007874015748,
                    "duration": 0.09435543749999908
                },
                {
                    "name": "F5",
                    "midi": 77,
                    "time": 48.30998400000007,
                    "velocity": 0.48031496062992124,
                    "duration": 0.5032289999999975
                },
                {
                    "name": "A#5",
                    "midi": 82,
                    "time": 48.81321300000007,
                    "velocity": 0.4645669291338583,
                    "duration": 0.37742175000000344
                },
                {
                    "name": "D#5",
                    "midi": 75,
                    "time": 49.31644200000007,
                    "velocity": 0.5275590551181102,
                    "duration": 0.12580725000000115
                },
                {
                    "name": "D#5",
                    "midi": 75,
                    "time": 49.69386375000008,
                    "velocity": 0.3937007874015748,
                    "duration": 0.09435543749999908
                },
                {
                    "name": "D#5",
                    "midi": 75,
                    "time": 49.81967100000008,
                    "velocity": 0.48031496062992124,
                    "duration": 0.5032289999999975
                },
                {
                    "name": "G#5",
                    "midi": 80,
                    "time": 50.322900000000075,
                    "velocity": 0.4645669291338583,
                    "duration": 0.37742175000000344
                },
                {
                    "name": "C5",
                    "midi": 72,
                    "time": 50.82612900000008,
                    "velocity": 0.5275590551181102,
                    "duration": 0.12580725000000115
                },
                {
                    "name": "C5",
                    "midi": 72,
                    "time": 51.20355075000008,
                    "velocity": 0.3937007874015748,
                    "duration": 0.09435543749999908
                },
                {
                    "name": "C5",
                    "midi": 72,
                    "time": 51.329358000000084,
                    "velocity": 0.48031496062992124,
                    "duration": 0.5032289999999975
                },
                {
                    "name": "C#5",
                    "midi": 73,
                    "time": 51.83258700000008,
                    "velocity": 0.44881889763779526,
                    "duration": 0.5032289999999975
                },
                {
                    "name": "D5",
                    "midi": 74,
                    "time": 52.33581600000008,
                    "velocity": 0.4645669291338583,
                    "duration": 0.5032289999999975
                },
                {
                    "name": "D#5",
                    "midi": 75,
                    "time": 52.83904500000008,
                    "velocity": 0.5669291338582677,
                    "duration": 0.12580725000000115
                },
                {
                    "name": "D#5",
                    "midi": 75,
                    "time": 53.34227400000008,
                    "velocity": 0.47244094488188976,
                    "duration": 0.12580725000000115
                },
                {
                    "name": "F5",
                    "midi": 77,
                    "time": 53.845503000000086,
                    "velocity": 0.5275590551181102,
                    "duration": 0.37742175000000344
                },
                {
                    "name": "G5",
                    "midi": 79,
                    "time": 54.22292475000009,
                    "velocity": 0.3937007874015748,
                    "duration": 0.12580725000000115
                },
                {
                    "name": "D#5",
                    "midi": 75,
                    "time": 54.34873200000009,
                    "velocity": 0.5669291338582677,
                    "duration": 0.12580725000000115
                },
                {
                    "name": "D#5",
                    "midi": 75,
                    "time": 54.851961000000095,
                    "velocity": 0.47244094488188976,
                    "duration": 0.12580725000000115
                },
                {
                    "name": "A#5",
                    "midi": 82,
                    "time": 55.3551900000001,
                    "velocity": 0.5275590551181102,
                    "duration": 0.37742175000000344
                },
                {
                    "name": "A#5",
                    "midi": 82,
                    "time": 55.7326117500001,
                    "velocity": 0.3937007874015748,
                    "duration": 0.12580725000000115
                },
                {
                    "name": "D#5",
                    "midi": 75,
                    "time": 55.858419000000104,
                    "velocity": 0.5669291338582677,
                    "duration": 0.12580725000000115
                },
                {
                    "name": "D#5",
                    "midi": 75,
                    "time": 56.36164800000011,
                    "velocity": 0.47244094488188976,
                    "duration": 0.12580725000000115
                },
                {
                    "name": "A#5",
                    "midi": 82,
                    "time": 56.864877000000114,
                    "velocity": 0.4094488188976378,
                    "duration": 0.37742175000000344
                },
                {
                    "name": "A#5",
                    "midi": 82,
                    "time": 57.24229875000012,
                    "velocity": 0.30708661417322836,
                    "duration": 0.12580725000000115
                },
                {
                    "name": "D#5",
                    "midi": 75,
                    "time": 57.36810600000012,
                    "velocity": 0.44881889763779526,
                    "duration": 0.5032289999999975
                },
                {
                    "name": "D#4",
                    "midi": 63,
                    "time": 58.37456400000011,
                    "velocity": 0.6456692913385826,
                    "duration": 0.12580725000000115
                },
                {
                    "name": "C4",
                    "midi": 60,
                    "time": 58.37456400000011,
                    "velocity": 0.5433070866141733,
                    "duration": 0.12580725000000115
                },
                {
                    "name": "D#4",
                    "midi": 63,
                    "time": 58.75198575000012,
                    "velocity": 0.5905511811023622,
                    "duration": 0.09435543749999908
                },
                {
                    "name": "C4",
                    "midi": 60,
                    "time": 58.75198575000012,
                    "velocity": 0.49606299212598426,
                    "duration": 0.09435543749999908
                },
                {
                    "name": "D#4",
                    "midi": 63,
                    "time": 58.87779300000012,
                    "velocity": 0.6535433070866141,
                    "duration": 0.5032289999999975
                },
                {
                    "name": "C4",
                    "midi": 60,
                    "time": 58.87779300000012,
                    "velocity": 0.5511811023622047,
                    "duration": 0.5032289999999975
                },
                {
                    "name": "C6",
                    "midi": 84,
                    "time": 59.88425100000011,
                    "velocity": 0.7244094488188977,
                    "duration": 0.12580725000000115
                },
                {
                    "name": "G#5",
                    "midi": 80,
                    "time": 59.88425100000011,
                    "velocity": 0.6141732283464567,
                    "duration": 0.12580725000000115
                },
                {
                    "name": "G#5",
                    "midi": 80,
                    "time": 60.261672750000116,
                    "velocity": 0.5748031496062992,
                    "duration": 0.09435543749999908
                },
                {
                    "name": "C6",
                    "midi": 84,
                    "time": 60.261672750000116,
                    "velocity": 0.6771653543307087,
                    "duration": 0.09435543749999908
                },
                {
                    "name": "C6",
                    "midi": 84,
                    "time": 60.38748000000012,
                    "velocity": 0.7322834645669292,
                    "duration": 0.5032289999999975
                },
                {
                    "name": "G#5",
                    "midi": 80,
                    "time": 60.38748000000012,
                    "velocity": 0.6220472440944882,
                    "duration": 0.5032289999999975
                },
                {
                    "name": "A4",
                    "midi": 69,
                    "time": 61.39393800000011,
                    "velocity": 0.48031496062992124,
                    "duration": 0.12580725000000115
                },
                {
                    "name": "C5",
                    "midi": 72,
                    "time": 61.39393800000011,
                    "velocity": 0.5669291338582677,
                    "duration": 0.12580725000000115
                },
                {
                    "name": "A4",
                    "midi": 69,
                    "time": 61.771359750000116,
                    "velocity": 0.4015748031496063,
                    "duration": 0.09435543749999908
                },
                {
                    "name": "C5",
                    "midi": 72,
                    "time": 61.771359750000116,
                    "velocity": 0.48031496062992124,
                    "duration": 0.09435543749999908
                },
                {
                    "name": "A4",
                    "midi": 69,
                    "time": 61.89716700000012,
                    "velocity": 0.48031496062992124,
                    "duration": 0.5032289999999975
                },
                {
                    "name": "C5",
                    "midi": 72,
                    "time": 61.89716700000012,
                    "velocity": 0.5669291338582677,
                    "duration": 0.5032289999999975
                },
                {
                    "name": "C#5",
                    "midi": 73,
                    "time": 62.400396000000114,
                    "velocity": 0.5354330708661418,
                    "duration": 0.12580725000000115
                },
                {
                    "name": "A#4",
                    "midi": 70,
                    "time": 62.400396000000114,
                    "velocity": 0.44881889763779526,
                    "duration": 0.12580725000000115
                },
                {
                    "name": "G4",
                    "midi": 67,
                    "time": 62.90362500000012,
                    "velocity": 0.48031496062992124,
                    "duration": 0.12580725000000115
                },
                {
                    "name": "A#4",
                    "midi": 70,
                    "time": 62.90362500000012,
                    "velocity": 0.5669291338582677,
                    "duration": 0.12580725000000115
                },
                {
                    "name": "G4",
                    "midi": 67,
                    "time": 63.28104675000012,
                    "velocity": 0.4015748031496063,
                    "duration": 0.09435543749999908
                },
                {
                    "name": "A#4",
                    "midi": 70,
                    "time": 63.28104675000012,
                    "velocity": 0.48031496062992124,
                    "duration": 0.09435543749999908
                },
                {
                    "name": "G4",
                    "midi": 67,
                    "time": 63.40685400000012,
                    "velocity": 0.48031496062992124,
                    "duration": 0.5032289999999975
                },
                {
                    "name": "A#4",
                    "midi": 70,
                    "time": 63.40685400000012,
                    "velocity": 0.5669291338582677,
                    "duration": 0.5032289999999975
                },
                {
                    "name": "C5",
                    "midi": 72,
                    "time": 63.91008300000012,
                    "velocity": 0.5354330708661418,
                    "duration": 0.12580725000000115
                },
                {
                    "name": "G#4",
                    "midi": 68,
                    "time": 63.91008300000012,
                    "velocity": 0.44881889763779526,
                    "duration": 0.12580725000000115
                },
                {
                    "name": "C5",
                    "midi": 72,
                    "time": 64.41331200000012,
                    "velocity": 0.48031496062992124,
                    "duration": 0.12580724999999404
                },
                {
                    "name": "D#5",
                    "midi": 75,
                    "time": 64.41331200000012,
                    "velocity": 0.5669291338582677,
                    "duration": 0.12580724999999404
                },
                {
                    "name": "C5",
                    "midi": 72,
                    "time": 64.79073375000011,
                    "velocity": 0.4015748031496063,
                    "duration": 0.09435543749999908
                },
                {
                    "name": "D#5",
                    "midi": 75,
                    "time": 64.79073375000011,
                    "velocity": 0.48031496062992124,
                    "duration": 0.09435543749999908
                },
                {
                    "name": "C5",
                    "midi": 72,
                    "time": 64.91654100000011,
                    "velocity": 0.48031496062992124,
                    "duration": 0.5032290000000046
                },
                {
                    "name": "D#5",
                    "midi": 75,
                    "time": 64.91654100000011,
                    "velocity": 0.5669291338582677,
                    "duration": 0.5032290000000046
                },
                {
                    "name": "C#5",
                    "midi": 73,
                    "time": 65.41977000000011,
                    "velocity": 0.5354330708661418,
                    "duration": 0.12580724999999404
                },
                {
                    "name": "F5",
                    "midi": 77,
                    "time": 65.41977000000011,
                    "velocity": 0.44881889763779526,
                    "duration": 0.12580724999999404
                },
                {
                    "name": "C#4",
                    "midi": 61,
                    "time": 65.9229990000001,
                    "velocity": 0.4881889763779528,
                    "duration": 0.12580724999999404
                },
                {
                    "name": "G4",
                    "midi": 67,
                    "time": 65.9229990000001,
                    "velocity": 0.5826771653543307,
                    "duration": 0.12580724999999404
                },
                {
                    "name": "G#4",
                    "midi": 68,
                    "time": 66.4262280000001,
                    "velocity": 0.6535433070866141,
                    "duration": 0.5032290000000046
                },
                {
                    "name": "C4",
                    "midi": 60,
                    "time": 66.4262280000001,
                    "velocity": 0.5511811023622047,
                    "duration": 0.5032290000000046
                },
                {
                    "name": "C5",
                    "midi": 72,
                    "time": 67.4326860000001,
                    "velocity": 0.47244094488188976,
                    "duration": 0.2516145000000023
                },
                {
                    "name": "C#5",
                    "midi": 73,
                    "time": 67.6843005000001,
                    "velocity": 0.4251968503937008,
                    "duration": 0.2516145000000023
                },
                {
                    "name": "F5",
                    "midi": 77,
                    "time": 67.93591500000011,
                    "velocity": 0.47244094488188976,
                    "duration": 0.2516145000000023
                },
                {
                    "name": "D#5",
                    "midi": 75,
                    "time": 68.18752950000011,
                    "velocity": 0.4330708661417323,
                    "duration": 0.2516145000000023
                },
                {
                    "name": "C#5",
                    "midi": 73,
                    "time": 68.43914400000011,
                    "velocity": 0.4566929133858268,
                    "duration": 0.2516145000000023
                },
                {
                    "name": "C5",
                    "midi": 72,
                    "time": 68.69075850000011,
                    "velocity": 0.41732283464566927,
                    "duration": 0.12580724999999404
                },
                {
                    "name": "C5",
                    "midi": 72,
                    "time": 68.9423730000001,
                    "velocity": 0.4330708661417323,
                    "duration": 0.49274506250000627
                },
                {
                    "name": "C5",
                    "midi": 72,
                    "time": 69.44560200000011,
                    "velocity": 0.47244094488188976,
                    "duration": 1.006457999999995
                },
                {
                    "name": "G5",
                    "midi": 79,
                    "time": 70.4520600000001,
                    "velocity": 0.47244094488188976,
                    "duration": 0.2516145000000023
                },
                {
                    "name": "G#5",
                    "midi": 80,
                    "time": 70.7036745000001,
                    "velocity": 0.4251968503937008,
                    "duration": 0.2516145000000023
                },
                {
                    "name": "C6",
                    "midi": 84,
                    "time": 70.9552890000001,
                    "velocity": 0.47244094488188976,
                    "duration": 0.2516145000000023
                },
                {
                    "name": "G#5",
                    "midi": 80,
                    "time": 71.20690350000011,
                    "velocity": 0.4330708661417323,
                    "duration": 0.2516145000000023
                },
                {
                    "name": "G5",
                    "midi": 79,
                    "time": 71.45851800000011,
                    "velocity": 0.4566929133858268,
                    "duration": 0.2516145000000023
                },
                {
                    "name": "F5",
                    "midi": 77,
                    "time": 71.71013250000011,
                    "velocity": 0.41732283464566927,
                    "duration": 0.2516145000000023
                },
                {
                    "name": "D#5",
                    "midi": 75,
                    "time": 71.96174700000012,
                    "velocity": 0.4330708661417323,
                    "duration": 0.24637253125000314
                },
                {
                    "name": "D#5",
                    "midi": 75,
                    "time": 72.46497600000012,
                    "velocity": 0.47244094488188976,
                    "duration": 1.006457999999995
                },
                {
                    "name": "G5",
                    "midi": 79,
                    "time": 73.47143400000012,
                    "velocity": 0.47244094488188976,
                    "duration": 0.2516145000000023
                },
                {
                    "name": "G#5",
                    "midi": 80,
                    "time": 73.72304850000012,
                    "velocity": 0.4251968503937008,
                    "duration": 0.2516145000000023
                },
                {
                    "name": "C6",
                    "midi": 84,
                    "time": 73.97466300000012,
                    "velocity": 0.47244094488188976,
                    "duration": 0.2516145000000023
                },
                {
                    "name": "G#5",
                    "midi": 80,
                    "time": 74.22627750000012,
                    "velocity": 0.4330708661417323,
                    "duration": 0.2516145000000023
                },
                {
                    "name": "G5",
                    "midi": 79,
                    "time": 74.47789200000012,
                    "velocity": 0.4566929133858268,
                    "duration": 0.2516145000000023
                },
                {
                    "name": "F5",
                    "midi": 77,
                    "time": 74.72950650000013,
                    "velocity": 0.41732283464566927,
                    "duration": 0.2516145000000023
                },
                {
                    "name": "D#5",
                    "midi": 75,
                    "time": 74.98112100000013,
                    "velocity": 0.4330708661417323,
                    "duration": 0.2516145000000023
                },
                {
                    "name": "D5",
                    "midi": 74,
                    "time": 75.23273550000013,
                    "velocity": 0.4094488188976378,
                    "duration": 0.2516145000000023
                },
                {
                    "name": "A#5",
                    "midi": 82,
                    "time": 75.48435000000013,
                    "velocity": 0.47244094488188976,
                    "duration": 1.006457999999995
                },
                {
                    "name": "G#5",
                    "midi": 80,
                    "time": 76.49080800000013,
                    "velocity": 0.47244094488188976,
                    "duration": 0.2516145000000023
                },
                {
                    "name": "G5",
                    "midi": 79,
                    "time": 76.74242250000013,
                    "velocity": 0.4251968503937008,
                    "duration": 0.11532331249999572
                },
                {
                    "name": "G5",
                    "midi": 79,
                    "time": 76.99403700000013,
                    "velocity": 0.47244094488188976,
                    "duration": 0.2516145000000023
                },
                {
                    "name": "F5",
                    "midi": 77,
                    "time": 77.24565150000014,
                    "velocity": 0.4330708661417323,
                    "duration": 0.09435543749999908
                },
                {
                    "name": "D#5",
                    "midi": 75,
                    "time": 77.49726600000014,
                    "velocity": 0.4566929133858268,
                    "duration": 0.2516145000000023
                },
                {
                    "name": "F5",
                    "midi": 77,
                    "time": 77.74888050000014,
                    "velocity": 0.4015748031496063,
                    "duration": 0.09435543749999908
                },
                {
                    "name": "D5",
                    "midi": 74,
                    "time": 78.00049500000014,
                    "velocity": 0.4330708661417323,
                    "duration": 0.2516145000000023
                },
                {
                    "name": "F5",
                    "midi": 77,
                    "time": 78.25210950000015,
                    "velocity": 0.3700787401574803,
                    "duration": 0.09435543749999908
                },
                {
                    "name": "D#5",
                    "midi": 75,
                    "time": 78.50372400000015,
                    "velocity": 0.47244094488188976,
                    "duration": 0.5032290000000046
                },
                {
                    "name": "C5",
                    "midi": 72,
                    "time": 79.51018200000016,
                    "velocity": 0.47244094488188976,
                    "duration": 0.2516145000000023
                },
                {
                    "name": "C#5",
                    "midi": 73,
                    "time": 79.76179650000016,
                    "velocity": 0.4251968503937008,
                    "duration": 0.2516145000000023
                },
                {
                    "name": "F5",
                    "midi": 77,
                    "time": 80.01341100000016,
                    "velocity": 0.47244094488188976,
                    "duration": 0.2516145000000023
                },
                {
                    "name": "D#5",
                    "midi": 75,
                    "time": 80.26502550000016,
                    "velocity": 0.4330708661417323,
                    "duration": 0.2516145000000023
                },
                {
                    "name": "C#5",
                    "midi": 73,
                    "time": 80.51664000000017,
                    "velocity": 0.4566929133858268,
                    "duration": 0.2516145000000023
                },
                {
                    "name": "C5",
                    "midi": 72,
                    "time": 80.76825450000017,
                    "velocity": 0.41732283464566927,
                    "duration": 0.11532331249999572
                },
                {
                    "name": "C5",
                    "midi": 72,
                    "time": 81.01986900000017,
                    "velocity": 0.4330708661417323,
                    "duration": 0.49274506250000627
                },
                {
                    "name": "C5",
                    "midi": 72,
                    "time": 81.52309800000018,
                    "velocity": 0.47244094488188976,
                    "duration": 1.006457999999995
                },
                {
                    "name": "G5",
                    "midi": 79,
                    "time": 82.52955600000017,
                    "velocity": 0.47244094488188976,
                    "duration": 0.2516145000000023
                },
                {
                    "name": "G#5",
                    "midi": 80,
                    "time": 82.78117050000017,
                    "velocity": 0.4251968503937008,
                    "duration": 0.2516145000000023
                },
                {
                    "name": "C6",
                    "midi": 84,
                    "time": 83.03278500000017,
                    "velocity": 0.47244094488188976,
                    "duration": 0.2516145000000023
                },
                {
                    "name": "G#5",
                    "midi": 80,
                    "time": 83.28439950000018,
                    "velocity": 0.4330708661417323,
                    "duration": 0.2516145000000023
                },
                {
                    "name": "G5",
                    "midi": 79,
                    "time": 83.53601400000018,
                    "velocity": 0.4566929133858268,
                    "duration": 0.2516145000000023
                },
                {
                    "name": "F5",
                    "midi": 77,
                    "time": 83.78762850000018,
                    "velocity": 0.41732283464566927,
                    "duration": 0.2516145000000023
                },
                {
                    "name": "D#5",
                    "midi": 75,
                    "time": 84.03924300000018,
                    "velocity": 0.4330708661417323,
                    "duration": 0.24637253125000314
                },
                {
                    "name": "D#5",
                    "midi": 75,
                    "time": 84.54247200000019,
                    "velocity": 0.47244094488188976,
                    "duration": 1.006457999999995
                },
                {
                    "name": "G5",
                    "midi": 79,
                    "time": 85.54893000000018,
                    "velocity": 0.47244094488188976,
                    "duration": 0.2516145000000023
                },
                {
                    "name": "G#5",
                    "midi": 80,
                    "time": 85.80054450000019,
                    "velocity": 0.4251968503937008,
                    "duration": 0.2516145000000023
                },
                {
                    "name": "C6",
                    "midi": 84,
                    "time": 86.05215900000019,
                    "velocity": 0.47244094488188976,
                    "duration": 0.2516145000000023
                },
                {
                    "name": "G#5",
                    "midi": 80,
                    "time": 86.30377350000019,
                    "velocity": 0.4330708661417323,
                    "duration": 0.2516145000000023
                },
                {
                    "name": "G5",
                    "midi": 79,
                    "time": 86.55538800000019,
                    "velocity": 0.4566929133858268,
                    "duration": 0.2516145000000023
                },
                {
                    "name": "F5",
                    "midi": 77,
                    "time": 86.8070025000002,
                    "velocity": 0.41732283464566927,
                    "duration": 0.2516145000000023
                },
                {
                    "name": "D#5",
                    "midi": 75,
                    "time": 87.0586170000002,
                    "velocity": 0.4330708661417323,
                    "duration": 0.2516145000000023
                },
                {
                    "name": "D5",
                    "midi": 74,
                    "time": 87.3102315000002,
                    "velocity": 0.4094488188976378,
                    "duration": 0.2516145000000023
                },
                {
                    "name": "A#5",
                    "midi": 82,
                    "time": 87.5618460000002,
                    "velocity": 0.47244094488188976,
                    "duration": 1.006457999999995
                },
                {
                    "name": "G#5",
                    "midi": 80,
                    "time": 88.5683040000002,
                    "velocity": 0.47244094488188976,
                    "duration": 0.2516145000000023
                },
                {
                    "name": "G5",
                    "midi": 79,
                    "time": 88.8199185000002,
                    "velocity": 0.4251968503937008,
                    "duration": 0.11532331249999572
                },
                {
                    "name": "G5",
                    "midi": 79,
                    "time": 89.0715330000002,
                    "velocity": 0.47244094488188976,
                    "duration": 0.2516145000000023
                },
                {
                    "name": "F5",
                    "midi": 77,
                    "time": 89.3231475000002,
                    "velocity": 0.4330708661417323,
                    "duration": 0.09435543749999908
                },
                {
                    "name": "D#5",
                    "midi": 75,
                    "time": 89.5747620000002,
                    "velocity": 0.4566929133858268,
                    "duration": 0.2516145000000023
                },
                {
                    "name": "F5",
                    "midi": 77,
                    "time": 89.82637650000021,
                    "velocity": 0.4015748031496063,
                    "duration": 0.09435543749999908
                },
                {
                    "name": "D5",
                    "midi": 74,
                    "time": 90.07799100000021,
                    "velocity": 0.4330708661417323,
                    "duration": 0.2516145000000023
                },
                {
                    "name": "F5",
                    "midi": 77,
                    "time": 90.32960550000021,
                    "velocity": 0.3700787401574803,
                    "duration": 0.09435543749999908
                },
                {
                    "name": "D#5",
                    "midi": 75,
                    "time": 90.58122000000022,
                    "velocity": 0.47244094488188976,
                    "duration": 0.5032290000000046
                },
                {
                    "name": "F5",
                    "midi": 77,
                    "time": 91.58767800000022,
                    "velocity": 0.47244094488188976,
                    "duration": 0.2516145000000023
                },
                {
                    "name": "D#5",
                    "midi": 75,
                    "time": 91.83929250000023,
                    "velocity": 0.4251968503937008,
                    "duration": 0.18871087499999817
                },
                {
                    "name": "D#5",
                    "midi": 75,
                    "time": 92.09090700000023,
                    "velocity": 0.47244094488188976,
                    "duration": 0.2516145000000023
                },
                {
                    "name": "C#5",
                    "midi": 73,
                    "time": 92.34252150000023,
                    "velocity": 0.4330708661417323,
                    "duration": 0.12580724999999404
                },
                {
                    "name": "C#5",
                    "midi": 73,
                    "time": 92.59413600000022,
                    "velocity": 0.4566929133858268,
                    "duration": 0.2516145000000023
                },
                {
                    "name": "D#5",
                    "midi": 75,
                    "time": 92.84575050000022,
                    "velocity": 0.4015748031496063,
                    "duration": 0.12580724999999404
                },
                {
                    "name": "C5",
                    "midi": 72,
                    "time": 93.09736500000021,
                    "velocity": 0.4330708661417323,
                    "duration": 0.2516145000000023
                },
                {
                    "name": "C#5",
                    "midi": 73,
                    "time": 93.34897950000021,
                    "velocity": 0.3700787401574803,
                    "duration": 0.12580724999999404
                },
                {
                    "name": "A#4",
                    "midi": 70,
                    "time": 93.6005940000002,
                    "velocity": 0.47244094488188976,
                    "duration": 1.006457999999995
                },
                {
                    "name": "C5",
                    "midi": 72,
                    "time": 94.6070520000002,
                    "velocity": 0.47244094488188976,
                    "duration": 0.2516145000000023
                },
                {
                    "name": "A#4",
                    "midi": 70,
                    "time": 94.8586665000002,
                    "velocity": 0.4251968503937008,
                    "duration": 0.18871087499999817
                },
                {
                    "name": "A#4",
                    "midi": 70,
                    "time": 95.1102810000002,
                    "velocity": 0.47244094488188976,
                    "duration": 0.2516145000000023
                },
                {
                    "name": "G#4",
                    "midi": 68,
                    "time": 95.3618955000002,
                    "velocity": 0.4330708661417323,
                    "duration": 0.2516145000000023
                },
                {
                    "name": "G4",
                    "midi": 67,
                    "time": 95.6135100000002,
                    "velocity": 0.4566929133858268,
                    "duration": 0.2516145000000023
                },
                {
                    "name": "G#4",
                    "midi": 68,
                    "time": 95.8651245000002,
                    "velocity": 0.4015748031496063,
                    "duration": 0.2516145000000023
                },
                {
                    "name": "G4",
                    "midi": 67,
                    "time": 96.11673900000021,
                    "velocity": 0.4330708661417323,
                    "duration": 0.2516145000000023
                },
                {
                    "name": "G#4",
                    "midi": 68,
                    "time": 96.36835350000021,
                    "velocity": 0.3700787401574803,
                    "duration": 0.2516145000000023
                },
                {
                    "name": "G#4",
                    "midi": 68,
                    "time": 96.61996800000021,
                    "velocity": 0.4015748031496063,
                    "duration": 0.5032290000000046
                },
                {
                    "name": "C5",
                    "midi": 72,
                    "time": 96.61996800000021,
                    "velocity": 0.47244094488188976,
                    "duration": 0.5032290000000046
                },
                {
                    "name": "G4",
                    "midi": 67,
                    "time": 97.12319700000022,
                    "velocity": 0.3858267716535433,
                    "duration": 0.5032290000000046
                },
                {
                    "name": "A#4",
                    "midi": 70,
                    "time": 97.12319700000022,
                    "velocity": 0.3858267716535433,
                    "duration": 0.5032290000000046
                },
                {
                    "name": "C5",
                    "midi": 72,
                    "time": 97.62642600000022,
                    "velocity": 0.44881889763779526,
                    "duration": 0.2516145000000023
                },
                {
                    "name": "C#5",
                    "midi": 73,
                    "time": 97.87804050000022,
                    "velocity": 0.3779527559055118,
                    "duration": 0.2516145000000023
                },
                {
                    "name": "F5",
                    "midi": 77,
                    "time": 98.12965500000023,
                    "velocity": 0.44881889763779526,
                    "duration": 0.2516145000000023
                },
                {
                    "name": "D#5",
                    "midi": 75,
                    "time": 98.38126950000023,
                    "velocity": 0.3700787401574803,
                    "duration": 0.2516145000000023
                },
                {
                    "name": "C#5",
                    "midi": 73,
                    "time": 98.63288400000023,
                    "velocity": 0.4409448818897638,
                    "duration": 0.2516145000000023
                },
                {
                    "name": "C5",
                    "midi": 72,
                    "time": 98.88449850000023,
                    "velocity": 0.3858267716535433,
                    "duration": 0.11532331249999572
                },
                {
                    "name": "C5",
                    "midi": 72,
                    "time": 99.13611300000024,
                    "velocity": 0.4330708661417323,
                    "duration": 0.49274506250000627
                },
                {
                    "name": "C5",
                    "midi": 72,
                    "time": 99.63934200000024,
                    "velocity": 0.47244094488188976,
                    "duration": 1.006457999999995
                },
                {
                    "name": "G5",
                    "midi": 79,
                    "time": 100.64580000000024,
                    "velocity": 0.47244094488188976,
                    "duration": 0.2516145000000023
                },
                {
                    "name": "G#5",
                    "midi": 80,
                    "time": 100.89741450000024,
                    "velocity": 0.4251968503937008,
                    "duration": 0.2516145000000023
                },
                {
                    "name": "C6",
                    "midi": 84,
                    "time": 101.14902900000024,
                    "velocity": 0.47244094488188976,
                    "duration": 0.2516145000000023
                },
                {
                    "name": "G#5",
                    "midi": 80,
                    "time": 101.40064350000024,
                    "velocity": 0.4330708661417323,
                    "duration": 0.2516145000000023
                },
                {
                    "name": "G5",
                    "midi": 79,
                    "time": 101.65225800000024,
                    "velocity": 0.4566929133858268,
                    "duration": 0.2516145000000023
                },
                {
                    "name": "F5",
                    "midi": 77,
                    "time": 101.90387250000025,
                    "velocity": 0.41732283464566927,
                    "duration": 0.2516145000000023
                },
                {
                    "name": "D#5",
                    "midi": 75,
                    "time": 102.15548700000025,
                    "velocity": 0.4330708661417323,
                    "duration": 0.24637253125000314
                },
                {
                    "name": "D#5",
                    "midi": 75,
                    "time": 102.65871600000025,
                    "velocity": 0.47244094488188976,
                    "duration": 1.006457999999995
                },
                {
                    "name": "C#5",
                    "midi": 73,
                    "time": 103.66517400000025,
                    "velocity": 0.47244094488188976,
                    "duration": 0.2516145000000023
                },
                {
                    "name": "C5",
                    "midi": 72,
                    "time": 103.91678850000025,
                    "velocity": 0.4251968503937008,
                    "duration": 0.11532331249999572
                },
                {
                    "name": "C5",
                    "midi": 72,
                    "time": 104.16840300000025,
                    "velocity": 0.47244094488188976,
                    "duration": 0.2516145000000023
                },
                {
                    "name": "A#4",
                    "midi": 70,
                    "time": 104.42001750000026,
                    "velocity": 0.4330708661417323,
                    "duration": 0.09435543749999908
                },
                {
                    "name": "G#4",
                    "midi": 68,
                    "time": 104.67163200000026,
                    "velocity": 0.4566929133858268,
                    "duration": 0.2516145000000023
                },
                {
                    "name": "A#4",
                    "midi": 70,
                    "time": 104.92324650000026,
                    "velocity": 0.4015748031496063,
                    "duration": 0.09435543749999908
                },
                {
                    "name": "G4",
                    "midi": 67,
                    "time": 105.17486100000026,
                    "velocity": 0.4330708661417323,
                    "duration": 0.2516145000000023
                },
                {
                    "name": "A#4",
                    "midi": 70,
                    "time": 105.42647550000027,
                    "velocity": 0.3700787401574803,
                    "duration": 0.09435543749999908
                },
                {
                    "name": "G#4",
                    "midi": 68,
                    "time": 105.67809000000027,
                    "velocity": 0.47244094488188976,
                    "duration": 0.5032290000000046
                },
                {
                    "name": "F5",
                    "midi": 77,
                    "time": 106.68454800000028,
                    "velocity": 0.47244094488188976,
                    "duration": 0.2516145000000023
                },
                {
                    "name": "D#5",
                    "midi": 75,
                    "time": 106.93616250000028,
                    "velocity": 0.4251968503937008,
                    "duration": 0.18871087499999817
                },
                {
                    "name": "D#5",
                    "midi": 75,
                    "time": 107.18777700000028,
                    "velocity": 0.47244094488188976,
                    "duration": 0.2516145000000023
                },
                {
                    "name": "C#5",
                    "midi": 73,
                    "time": 107.43939150000028,
                    "velocity": 0.4330708661417323,
                    "duration": 0.12580724999999404
                },
                {
                    "name": "C#5",
                    "midi": 73,
                    "time": 107.69100600000027,
                    "velocity": 0.4566929133858268,
                    "duration": 0.2516145000000023
                },
                {
                    "name": "D#5",
                    "midi": 75,
                    "time": 107.94262050000027,
                    "velocity": 0.4015748031496063,
                    "duration": 0.12580724999999404
                },
                {
                    "name": "C5",
                    "midi": 72,
                    "time": 108.19423500000026,
                    "velocity": 0.4330708661417323,
                    "duration": 0.2516145000000023
                },
                {
                    "name": "C#5",
                    "midi": 73,
                    "time": 108.44584950000026,
                    "velocity": 0.3700787401574803,
                    "duration": 0.12580724999999404
                },
                {
                    "name": "A#4",
                    "midi": 70,
                    "time": 108.69746400000025,
                    "velocity": 0.47244094488188976,
                    "duration": 1.006457999999995
                },
                {
                    "name": "C5",
                    "midi": 72,
                    "time": 109.70392200000025,
                    "velocity": 0.47244094488188976,
                    "duration": 0.2516145000000023
                },
                {
                    "name": "A#4",
                    "midi": 70,
                    "time": 109.95553650000025,
                    "velocity": 0.4251968503937008,
                    "duration": 0.18871087499999817
                },
                {
                    "name": "A#4",
                    "midi": 70,
                    "time": 110.20715100000025,
                    "velocity": 0.47244094488188976,
                    "duration": 0.2516145000000023
                },
                {
                    "name": "G#4",
                    "midi": 68,
                    "time": 110.45876550000025,
                    "velocity": 0.4330708661417323,
                    "duration": 0.2516145000000023
                },
                {
                    "name": "G4",
                    "midi": 67,
                    "time": 110.71038000000026,
                    "velocity": 0.4566929133858268,
                    "duration": 0.2516145000000023
                },
                {
                    "name": "G#4",
                    "midi": 68,
                    "time": 110.96199450000026,
                    "velocity": 0.4015748031496063,
                    "duration": 0.2516145000000023
                },
                {
                    "name": "G4",
                    "midi": 67,
                    "time": 111.21360900000026,
                    "velocity": 0.4330708661417323,
                    "duration": 0.2516145000000023
                },
                {
                    "name": "G#4",
                    "midi": 68,
                    "time": 111.46522350000026,
                    "velocity": 0.3700787401574803,
                    "duration": 0.2516145000000023
                },
                {
                    "name": "G#4",
                    "midi": 68,
                    "time": 111.71683800000027,
                    "velocity": 0.4015748031496063,
                    "duration": 0.5032290000000046
                },
                {
                    "name": "C5",
                    "midi": 72,
                    "time": 111.71683800000027,
                    "velocity": 0.47244094488188976,
                    "duration": 0.5032290000000046
                },
                {
                    "name": "A#4",
                    "midi": 70,
                    "time": 112.22006700000027,
                    "velocity": 0.4251968503937008,
                    "duration": 0.5032290000000046
                },
                {
                    "name": "G4",
                    "midi": 67,
                    "time": 112.22006700000027,
                    "velocity": 0.3543307086614173,
                    "duration": 0.5032290000000046
                },
                {
                    "name": "C5",
                    "midi": 72,
                    "time": 112.72329600000027,
                    "velocity": 0.3937007874015748,
                    "duration": 0.2516145000000023
                },
                {
                    "name": "C#5",
                    "midi": 73,
                    "time": 112.97491050000028,
                    "velocity": 0.3543307086614173,
                    "duration": 0.2516145000000023
                },
                {
                    "name": "F5",
                    "midi": 77,
                    "time": 113.22652500000028,
                    "velocity": 0.4330708661417323,
                    "duration": 0.2516145000000023
                },
                {
                    "name": "D#5",
                    "midi": 75,
                    "time": 113.47813950000028,
                    "velocity": 0.3779527559055118,
                    "duration": 0.2516145000000023
                },
                {
                    "name": "C#5",
                    "midi": 73,
                    "time": 113.72975400000028,
                    "velocity": 0.4251968503937008,
                    "duration": 0.2516145000000023
                },
                {
                    "name": "C5",
                    "midi": 72,
                    "time": 113.98136850000029,
                    "velocity": 0.3700787401574803,
                    "duration": 0.11532331249999572
                },
                {
                    "name": "C5",
                    "midi": 72,
                    "time": 114.23298300000029,
                    "velocity": 0.4330708661417323,
                    "duration": 0.49274506250000627
                },
                {
                    "name": "C5",
                    "midi": 72,
                    "time": 114.7362120000003,
                    "velocity": 0.47244094488188976,
                    "duration": 1.006457999999995
                },
                {
                    "name": "G5",
                    "midi": 79,
                    "time": 115.74267000000029,
                    "velocity": 0.47244094488188976,
                    "duration": 0.2516145000000023
                },
                {
                    "name": "G#5",
                    "midi": 80,
                    "time": 115.99428450000029,
                    "velocity": 0.4251968503937008,
                    "duration": 0.2516145000000023
                },
                {
                    "name": "C6",
                    "midi": 84,
                    "time": 116.24589900000029,
                    "velocity": 0.47244094488188976,
                    "duration": 0.2516145000000023
                },
                {
                    "name": "G#5",
                    "midi": 80,
                    "time": 116.4975135000003,
                    "velocity": 0.4330708661417323,
                    "duration": 0.2516145000000023
                },
                {
                    "name": "G5",
                    "midi": 79,
                    "time": 116.7491280000003,
                    "velocity": 0.4566929133858268,
                    "duration": 0.2516145000000023
                },
                {
                    "name": "F5",
                    "midi": 77,
                    "time": 117.0007425000003,
                    "velocity": 0.41732283464566927,
                    "duration": 0.2516145000000023
                },
                {
                    "name": "D#5",
                    "midi": 75,
                    "time": 117.2523570000003,
                    "velocity": 0.4330708661417323,
                    "duration": 0.24637253125000314
                },
                {
                    "name": "D#5",
                    "midi": 75,
                    "time": 117.7555860000003,
                    "velocity": 0.47244094488188976,
                    "duration": 1.006457999999995
                },
                {
                    "name": "C#5",
                    "midi": 73,
                    "time": 118.7620440000003,
                    "velocity": 0.47244094488188976,
                    "duration": 0.2516145000000023
                },
                {
                    "name": "C5",
                    "midi": 72,
                    "time": 119.0136585000003,
                    "velocity": 0.4251968503937008,
                    "duration": 0.11532331249999572
                },
                {
                    "name": "C5",
                    "midi": 72,
                    "time": 119.2652730000003,
                    "velocity": 0.47244094488188976,
                    "duration": 0.2516145000000023
                },
                {
                    "name": "A#4",
                    "midi": 70,
                    "time": 119.51688750000031,
                    "velocity": 0.4330708661417323,
                    "duration": 0.09435543749999908
                },
                {
                    "name": "G#4",
                    "midi": 68,
                    "time": 119.76850200000031,
                    "velocity": 0.4566929133858268,
                    "duration": 0.2516145000000023
                },
                {
                    "name": "A#4",
                    "midi": 70,
                    "time": 120.02011650000031,
                    "velocity": 0.4015748031496063,
                    "duration": 0.09435543749999908
                },
                {
                    "name": "G4",
                    "midi": 67,
                    "time": 120.27173100000032,
                    "velocity": 0.4330708661417323,
                    "duration": 0.2516145000000023
                },
                {
                    "name": "A#4",
                    "midi": 70,
                    "time": 120.52334550000032,
                    "velocity": 0.3700787401574803,
                    "duration": 0.09435543749999908
                },
                {
                    "name": "G#4",
                    "midi": 68,
                    "time": 120.77496000000032,
                    "velocity": 0.47244094488188976,
                    "duration": 0.5032290000000046
                },
                {
                    "name": "D#5",
                    "midi": 75,
                    "time": 121.78141800000033,
                    "velocity": 0.5669291338582677,
                    "duration": 0.12580724999999404
                },
                {
                    "name": "D#5",
                    "midi": 75,
                    "time": 122.15883975000033,
                    "velocity": 0.48031496062992124,
                    "duration": 0.09435543749999908
                },
                {
                    "name": "D#5",
                    "midi": 75,
                    "time": 122.28464700000032,
                    "velocity": 0.5669291338582677,
                    "duration": 0.5032290000000046
                },
                {
                    "name": "G#5",
                    "midi": 80,
                    "time": 123.29110500000033,
                    "velocity": 0.5669291338582677,
                    "duration": 0.12580724999999404
                },
                {
                    "name": "G#5",
                    "midi": 80,
                    "time": 123.66852675000032,
                    "velocity": 0.5039370078740157,
                    "duration": 0.09435543749999908
                },
                {
                    "name": "G#5",
                    "midi": 80,
                    "time": 123.79433400000032,
                    "velocity": 0.5669291338582677,
                    "duration": 0.5032290000000046
                },
                {
                    "name": "G#4",
                    "midi": 68,
                    "time": 124.80079200000033,
                    "velocity": 0.48031496062992124,
                    "duration": 0.12580724999999404
                },
                {
                    "name": "C5",
                    "midi": 72,
                    "time": 124.80079200000033,
                    "velocity": 0.5669291338582677,
                    "duration": 0.12580724999999404
                },
                {
                    "name": "G#4",
                    "midi": 68,
                    "time": 125.17821375000032,
                    "velocity": 0.4015748031496063,
                    "duration": 0.09435543749999908
                },
                {
                    "name": "C5",
                    "midi": 72,
                    "time": 125.17821375000032,
                    "velocity": 0.48031496062992124,
                    "duration": 0.09435543749999908
                },
                {
                    "name": "G#4",
                    "midi": 68,
                    "time": 125.30402100000032,
                    "velocity": 0.48031496062992124,
                    "duration": 0.5032290000000046
                },
                {
                    "name": "C5",
                    "midi": 72,
                    "time": 125.30402100000032,
                    "velocity": 0.5669291338582677,
                    "duration": 0.5032290000000046
                },
                {
                    "name": "C#5",
                    "midi": 73,
                    "time": 125.80725000000032,
                    "velocity": 0.5354330708661418,
                    "duration": 0.12580724999999404
                },
                {
                    "name": "A#4",
                    "midi": 70,
                    "time": 125.80725000000032,
                    "velocity": 0.44881889763779526,
                    "duration": 0.12580724999999404
                },
                {
                    "name": "C#5",
                    "midi": 73,
                    "time": 126.31047900000031,
                    "velocity": 0.4094488188976378,
                    "duration": 0.12580724999999404
                },
                {
                    "name": "F5",
                    "midi": 77,
                    "time": 126.31047900000031,
                    "velocity": 0.4881889763779528,
                    "duration": 0.12580724999999404
                },
                {
                    "name": "A#4",
                    "midi": 70,
                    "time": 126.8137080000003,
                    "velocity": 0.5039370078740157,
                    "duration": 0.9959740624999966
                },
                {
                    "name": "G4",
                    "midi": 67,
                    "time": 126.8137080000003,
                    "velocity": 0.4330708661417323,
                    "duration": 0.9959740624999966
                },
                {
                    "name": "D#4",
                    "midi": 63,
                    "time": 127.8201660000003,
                    "velocity": 0.5669291338582677,
                    "duration": 0.12580724999999404
                },
                {
                    "name": "D#4",
                    "midi": 63,
                    "time": 128.19758775000028,
                    "velocity": 0.4015748031496063,
                    "duration": 0.0943554375000133
                },
                {
                    "name": "G#4",
                    "midi": 68,
                    "time": 128.3233950000003,
                    "velocity": 0.5669291338582677,
                    "duration": 0.12580725000000825
                },
                {
                    "name": "G#4",
                    "midi": 68,
                    "time": 128.8266240000003,
                    "velocity": 0.5039370078740157,
                    "duration": 0.12580725000000825
                },
                {
                    "name": "G#4",
                    "midi": 68,
                    "time": 129.3298530000003,
                    "velocity": 0.5039370078740157,
                    "duration": 0.12580725000000825
                },
                {
                    "name": "A#4",
                    "midi": 70,
                    "time": 129.8330820000003,
                    "velocity": 0.5669291338582677,
                    "duration": 0.5032290000000046
                },
                {
                    "name": "A#4",
                    "midi": 70,
                    "time": 130.8395400000003,
                    "velocity": 0.5669291338582677,
                    "duration": 0.12580725000000825
                },
                {
                    "name": "A#4",
                    "midi": 70,
                    "time": 131.2169617500003,
                    "velocity": 0.49606299212598426,
                    "duration": 0.0943554375000133
                },
                {
                    "name": "C5",
                    "midi": 72,
                    "time": 131.34276900000032,
                    "velocity": 0.5669291338582677,
                    "duration": 0.12580725000000825
                },
                {
                    "name": "C5",
                    "midi": 72,
                    "time": 131.84599800000032,
                    "velocity": 0.5433070866141733,
                    "duration": 0.12580725000000825
                },
                {
                    "name": "G#4",
                    "midi": 68,
                    "time": 132.34922700000033,
                    "velocity": 0.4881889763779528,
                    "duration": 0.12580725000000825
                },
                {
                    "name": "D5",
                    "midi": 74,
                    "time": 132.34922700000033,
                    "velocity": 0.5826771653543307,
                    "duration": 0.12580725000000825
                },
                {
                    "name": "D#5",
                    "midi": 75,
                    "time": 132.85245600000033,
                    "velocity": 0.6535433070866141,
                    "duration": 0.5032290000000046
                },
                {
                    "name": "G4",
                    "midi": 67,
                    "time": 132.85245600000033,
                    "velocity": 0.5511811023622047,
                    "duration": 0.5032290000000046
                },
                {
                    "name": "D#5",
                    "midi": 75,
                    "time": 133.85891400000034,
                    "velocity": 0.5669291338582677,
                    "duration": 0.12580725000000825
                },
                {
                    "name": "D#5",
                    "midi": 75,
                    "time": 134.23633575000034,
                    "velocity": 0.48031496062992124,
                    "duration": 0.0943554375000133
                },
                {
                    "name": "D#5",
                    "midi": 75,
                    "time": 134.36214300000034,
                    "velocity": 0.5669291338582677,
                    "duration": 0.12580725000000825
                },
                {
                    "name": "D#5",
                    "midi": 75,
                    "time": 134.86537200000035,
                    "velocity": 0.47244094488188976,
                    "duration": 0.12580725000000825
                },
                {
                    "name": "F5",
                    "midi": 77,
                    "time": 135.36860100000035,
                    "velocity": 0.5275590551181102,
                    "duration": 0.12580725000000825
                },
                {
                    "name": "F5",
                    "midi": 77,
                    "time": 135.74602275000035,
                    "velocity": 0.3937007874015748,
                    "duration": 0.0943554375000133
                },
                {
                    "name": "F5",
                    "midi": 77,
                    "time": 135.87183000000036,
                    "velocity": 0.48031496062992124,
                    "duration": 0.5032290000000046
                },
                {
                    "name": "A#5",
                    "midi": 82,
                    "time": 136.37505900000036,
                    "velocity": 0.4645669291338583,
                    "duration": 0.37742174999999634
                },
                {
                    "name": "D#5",
                    "midi": 75,
                    "time": 136.87828800000037,
                    "velocity": 0.5275590551181102,
                    "duration": 0.12580725000000825
                },
                {
                    "name": "D#5",
                    "midi": 75,
                    "time": 137.25570975000036,
                    "velocity": 0.3937007874015748,
                    "duration": 0.0943554375000133
                },
                {
                    "name": "D#5",
                    "midi": 75,
                    "time": 137.38151700000037,
                    "velocity": 0.48031496062992124,
                    "duration": 0.5032290000000046
                },
                {
                    "name": "G#5",
                    "midi": 80,
                    "time": 137.88474600000038,
                    "velocity": 0.4645669291338583,
                    "duration": 0.37742174999999634
                },
                {
                    "name": "C5",
                    "midi": 72,
                    "time": 138.38797500000038,
                    "velocity": 0.5275590551181102,
                    "duration": 0.12580725000000825
                },
                {
                    "name": "C5",
                    "midi": 72,
                    "time": 138.76539675000038,
                    "velocity": 0.3937007874015748,
                    "duration": 0.0943554375000133
                },
                {
                    "name": "C5",
                    "midi": 72,
                    "time": 138.89120400000039,
                    "velocity": 0.48031496062992124,
                    "duration": 0.5032290000000046
                },
                {
                    "name": "C#5",
                    "midi": 73,
                    "time": 139.3944330000004,
                    "velocity": 0.44881889763779526,
                    "duration": 0.5032290000000046
                },
                {
                    "name": "D5",
                    "midi": 74,
                    "time": 139.8976620000004,
                    "velocity": 0.4645669291338583,
                    "duration": 0.5032290000000046
                },
                {
                    "name": "D#5",
                    "midi": 75,
                    "time": 140.4008910000004,
                    "velocity": 0.5669291338582677,
                    "duration": 0.12580725000000825
                },
                {
                    "name": "D#5",
                    "midi": 75,
                    "time": 140.9041200000004,
                    "velocity": 0.47244094488188976,
                    "duration": 0.12580725000000825
                },
                {
                    "name": "F5",
                    "midi": 77,
                    "time": 141.4073490000004,
                    "velocity": 0.5275590551181102,
                    "duration": 0.37742174999999634
                },
                {
                    "name": "G5",
                    "midi": 79,
                    "time": 141.7847707500004,
                    "velocity": 0.3937007874015748,
                    "duration": 0.12580725000000825
                },
                {
                    "name": "D#5",
                    "midi": 75,
                    "time": 141.9105780000004,
                    "velocity": 0.5669291338582677,
                    "duration": 0.12580725000000825
                },
                {
                    "name": "D#5",
                    "midi": 75,
                    "time": 142.41380700000042,
                    "velocity": 0.47244094488188976,
                    "duration": 0.12580725000000825
                },
                {
                    "name": "A#5",
                    "midi": 82,
                    "time": 142.91703600000042,
                    "velocity": 0.5275590551181102,
                    "duration": 0.37742174999999634
                },
                {
                    "name": "A#5",
                    "midi": 82,
                    "time": 143.29445775000042,
                    "velocity": 0.3937007874015748,
                    "duration": 0.12580725000000825
                },
                {
                    "name": "D#5",
                    "midi": 75,
                    "time": 143.42026500000043,
                    "velocity": 0.5669291338582677,
                    "duration": 0.12580725000000825
                },
                {
                    "name": "D#5",
                    "midi": 75,
                    "time": 143.92349400000043,
                    "velocity": 0.47244094488188976,
                    "duration": 0.12580725000000825
                },
                {
                    "name": "A#5",
                    "midi": 82,
                    "time": 144.42672300000044,
                    "velocity": 0.4094488188976378,
                    "duration": 0.37742174999999634
                },
                {
                    "name": "A#5",
                    "midi": 82,
                    "time": 144.80414475000043,
                    "velocity": 0.30708661417322836,
                    "duration": 0.12580725000000825
                },
                {
                    "name": "D#5",
                    "midi": 75,
                    "time": 144.92995200000044,
                    "velocity": 0.44881889763779526,
                    "duration": 0.5032290000000046
                },
                {
                    "name": "D#4",
                    "midi": 63,
                    "time": 145.93641000000045,
                    "velocity": 0.6456692913385826,
                    "duration": 0.12580725000000825
                },
                {
                    "name": "C4",
                    "midi": 60,
                    "time": 145.93641000000045,
                    "velocity": 0.5433070866141733,
                    "duration": 0.12580725000000825
                },
                {
                    "name": "D#4",
                    "midi": 63,
                    "time": 146.31383175000045,
                    "velocity": 0.5905511811023622,
                    "duration": 0.0943554375000133
                },
                {
                    "name": "C4",
                    "midi": 60,
                    "time": 146.31383175000045,
                    "velocity": 0.49606299212598426,
                    "duration": 0.0943554375000133
                },
                {
                    "name": "D#4",
                    "midi": 63,
                    "time": 146.43963900000045,
                    "velocity": 0.6535433070866141,
                    "duration": 0.5032290000000046
                },
                {
                    "name": "C4",
                    "midi": 60,
                    "time": 146.43963900000045,
                    "velocity": 0.5511811023622047,
                    "duration": 0.5032290000000046
                },
                {
                    "name": "C6",
                    "midi": 84,
                    "time": 147.44609700000046,
                    "velocity": 0.7244094488188977,
                    "duration": 0.12580725000000825
                },
                {
                    "name": "G#5",
                    "midi": 80,
                    "time": 147.44609700000046,
                    "velocity": 0.6141732283464567,
                    "duration": 0.12580725000000825
                },
                {
                    "name": "G#5",
                    "midi": 80,
                    "time": 147.82351875000046,
                    "velocity": 0.5748031496062992,
                    "duration": 0.0943554375000133
                },
                {
                    "name": "C6",
                    "midi": 84,
                    "time": 147.82351875000046,
                    "velocity": 0.6771653543307087,
                    "duration": 0.0943554375000133
                },
                {
                    "name": "C6",
                    "midi": 84,
                    "time": 147.94932600000047,
                    "velocity": 0.7322834645669292,
                    "duration": 0.5032290000000046
                },
                {
                    "name": "G#5",
                    "midi": 80,
                    "time": 147.94932600000047,
                    "velocity": 0.6220472440944882,
                    "duration": 0.5032290000000046
                },
                {
                    "name": "A4",
                    "midi": 69,
                    "time": 148.95578400000048,
                    "velocity": 0.48031496062992124,
                    "duration": 0.12580725000000825
                },
                {
                    "name": "C5",
                    "midi": 72,
                    "time": 148.95578400000048,
                    "velocity": 0.5669291338582677,
                    "duration": 0.12580725000000825
                },
                {
                    "name": "A4",
                    "midi": 69,
                    "time": 149.33320575000047,
                    "velocity": 0.4015748031496063,
                    "duration": 0.0943554375000133
                },
                {
                    "name": "C5",
                    "midi": 72,
                    "time": 149.33320575000047,
                    "velocity": 0.48031496062992124,
                    "duration": 0.0943554375000133
                },
                {
                    "name": "A4",
                    "midi": 69,
                    "time": 149.45901300000048,
                    "velocity": 0.48031496062992124,
                    "duration": 0.5032290000000046
                },
                {
                    "name": "C5",
                    "midi": 72,
                    "time": 149.45901300000048,
                    "velocity": 0.5669291338582677,
                    "duration": 0.5032290000000046
                },
                {
                    "name": "C#5",
                    "midi": 73,
                    "time": 149.9622420000005,
                    "velocity": 0.5354330708661418,
                    "duration": 0.12580725000000825
                },
                {
                    "name": "A#4",
                    "midi": 70,
                    "time": 149.9622420000005,
                    "velocity": 0.44881889763779526,
                    "duration": 0.12580725000000825
                },
                {
                    "name": "G4",
                    "midi": 67,
                    "time": 150.4654710000005,
                    "velocity": 0.48031496062992124,
                    "duration": 0.12580725000000825
                },
                {
                    "name": "A#4",
                    "midi": 70,
                    "time": 150.4654710000005,
                    "velocity": 0.5669291338582677,
                    "duration": 0.12580725000000825
                },
                {
                    "name": "G4",
                    "midi": 67,
                    "time": 150.8428927500005,
                    "velocity": 0.4015748031496063,
                    "duration": 0.0943554375000133
                },
                {
                    "name": "A#4",
                    "midi": 70,
                    "time": 150.8428927500005,
                    "velocity": 0.48031496062992124,
                    "duration": 0.0943554375000133
                },
                {
                    "name": "G4",
                    "midi": 67,
                    "time": 150.9687000000005,
                    "velocity": 0.48031496062992124,
                    "duration": 0.5032290000000046
                },
                {
                    "name": "A#4",
                    "midi": 70,
                    "time": 150.9687000000005,
                    "velocity": 0.5669291338582677,
                    "duration": 0.5032290000000046
                },
                {
                    "name": "C5",
                    "midi": 72,
                    "time": 151.4719290000005,
                    "velocity": 0.5354330708661418,
                    "duration": 0.12580725000000825
                },
                {
                    "name": "G#4",
                    "midi": 68,
                    "time": 151.4719290000005,
                    "velocity": 0.44881889763779526,
                    "duration": 0.12580725000000825
                },
                {
                    "name": "C5",
                    "midi": 72,
                    "time": 151.9751580000005,
                    "velocity": 0.48031496062992124,
                    "duration": 0.12580725000000825
                },
                {
                    "name": "D#5",
                    "midi": 75,
                    "time": 151.9751580000005,
                    "velocity": 0.5669291338582677,
                    "duration": 0.12580725000000825
                },
                {
                    "name": "C5",
                    "midi": 72,
                    "time": 152.3525797500005,
                    "velocity": 0.4015748031496063,
                    "duration": 0.0943554375000133
                },
                {
                    "name": "D#5",
                    "midi": 75,
                    "time": 152.3525797500005,
                    "velocity": 0.48031496062992124,
                    "duration": 0.0943554375000133
                },
                {
                    "name": "C5",
                    "midi": 72,
                    "time": 152.4783870000005,
                    "velocity": 0.48031496062992124,
                    "duration": 0.5032290000000046
                },
                {
                    "name": "D#5",
                    "midi": 75,
                    "time": 152.4783870000005,
                    "velocity": 0.5669291338582677,
                    "duration": 0.5032290000000046
                },
                {
                    "name": "C#5",
                    "midi": 73,
                    "time": 152.9816160000005,
                    "velocity": 0.5354330708661418,
                    "duration": 0.12580725000000825
                },
                {
                    "name": "F5",
                    "midi": 77,
                    "time": 152.9816160000005,
                    "velocity": 0.44881889763779526,
                    "duration": 0.12580725000000825
                },
                {
                    "name": "C#4",
                    "midi": 61,
                    "time": 153.48484500000052,
                    "velocity": 0.4881889763779528,
                    "duration": 0.12580725000000825
                },
                {
                    "name": "G4",
                    "midi": 67,
                    "time": 153.48484500000052,
                    "velocity": 0.5826771653543307,
                    "duration": 0.12580725000000825
                },
                {
                    "name": "G#4",
                    "midi": 68,
                    "time": 153.98807400000052,
                    "velocity": 0.6535433070866141,
                    "duration": 0.5032290000000046
                },
                {
                    "name": "C4",
                    "midi": 60,
                    "time": 153.98807400000052,
                    "velocity": 0.5511811023622047,
                    "duration": 0.5032290000000046
                }
            ],
            "controlChanges": {},
            "id": 1,
            "name": "Piano right",
            "instrumentNumber": 0,
            "instrument": "acoustic grand piano",
            "instrumentFamily": "piano",
            "channelNumber": 0,
            "isPercussion": false
        },
        {
            "startTime": 2.012916,
            "duration": 154.4913030000006,
            "length": 379,
            "notes": [
                {
                    "name": "C4",
                    "midi": 60,
                    "time": 2.012916,
                    "velocity": 0.4409448818897638,
                    "duration": 0.5032290000000001
                },
                {
                    "name": "G#3",
                    "midi": 56,
                    "time": 2.012916,
                    "velocity": 0.36220472440944884,
                    "duration": 0.5032290000000001
                },
                {
                    "name": "D#4",
                    "midi": 63,
                    "time": 3.522603,
                    "velocity": 0.44881889763779526,
                    "duration": 0.5032290000000001
                },
                {
                    "name": "C4",
                    "midi": 60,
                    "time": 3.522603,
                    "velocity": 0.3779527559055118,
                    "duration": 0.5032290000000001
                },
                {
                    "name": "F4",
                    "midi": 65,
                    "time": 4.025832,
                    "velocity": 0.4015748031496063,
                    "duration": 0.12580725000000026
                },
                {
                    "name": "F4",
                    "midi": 65,
                    "time": 4.40325375,
                    "velocity": 0.33070866141732286,
                    "duration": 0.09435543749999997
                },
                {
                    "name": "F4",
                    "midi": 65,
                    "time": 4.5290610000000004,
                    "velocity": 0.4015748031496063,
                    "duration": 0.5032290000000001
                },
                {
                    "name": "C#4",
                    "midi": 61,
                    "time": 5.032290000000001,
                    "velocity": 0.3779527559055118,
                    "duration": 0.12580725000000026
                },
                {
                    "name": "A#3",
                    "midi": 58,
                    "time": 5.535519000000001,
                    "velocity": 0.3464566929133858,
                    "duration": 0.12580725000000026
                },
                {
                    "name": "D#4",
                    "midi": 63,
                    "time": 6.038748000000001,
                    "velocity": 0.36220472440944884,
                    "duration": 0.9959740625000002
                },
                {
                    "name": "C#4",
                    "midi": 61,
                    "time": 7.045206000000001,
                    "velocity": 0.36220472440944884,
                    "duration": 0.5032290000000001
                },
                {
                    "name": "D#4",
                    "midi": 63,
                    "time": 7.548435000000001,
                    "velocity": 0.4094488188976378,
                    "duration": 0.12580725000000026
                },
                {
                    "name": "C4",
                    "midi": 60,
                    "time": 7.548435000000001,
                    "velocity": 0.3464566929133858,
                    "duration": 0.12580725000000026
                },
                {
                    "name": "A#3",
                    "midi": 58,
                    "time": 8.051664000000002,
                    "velocity": 0.2992125984251969,
                    "duration": 0.12580724999999937
                },
                {
                    "name": "C#4",
                    "midi": 61,
                    "time": 8.051664000000002,
                    "velocity": 0.36220472440944884,
                    "duration": 0.12580724999999937
                },
                {
                    "name": "G#3",
                    "midi": 56,
                    "time": 8.554893000000002,
                    "velocity": 0.2992125984251969,
                    "duration": 0.12580724999999937
                },
                {
                    "name": "C4",
                    "midi": 60,
                    "time": 8.554893000000002,
                    "velocity": 0.36220472440944884,
                    "duration": 0.12580724999999937
                },
                {
                    "name": "G3",
                    "midi": 55,
                    "time": 9.058122000000001,
                    "velocity": 0.31496062992125984,
                    "duration": 0.5032289999999993
                },
                {
                    "name": "A#3",
                    "midi": 58,
                    "time": 9.058122000000001,
                    "velocity": 0.3779527559055118,
                    "duration": 0.5032289999999993
                },
                {
                    "name": "G#3",
                    "midi": 56,
                    "time": 9.561351,
                    "velocity": 0.3543307086614173,
                    "duration": 0.12580724999999937
                },
                {
                    "name": "F3",
                    "midi": 53,
                    "time": 9.561351,
                    "velocity": 0.29133858267716534,
                    "duration": 0.12580724999999937
                },
                {
                    "name": "G3",
                    "midi": 55,
                    "time": 10.06458,
                    "velocity": 0.3543307086614173,
                    "duration": 0.12580724999999937
                },
                {
                    "name": "D#3",
                    "midi": 51,
                    "time": 10.06458,
                    "velocity": 0.29133858267716534,
                    "duration": 0.12580724999999937
                },
                {
                    "name": "G#3",
                    "midi": 56,
                    "time": 10.567808999999999,
                    "velocity": 0.4094488188976378,
                    "duration": 0.12580724999999937
                },
                {
                    "name": "F3",
                    "midi": 53,
                    "time": 11.071037999999998,
                    "velocity": 0.36220472440944884,
                    "duration": 0.12580724999999937
                },
                {
                    "name": "A#3",
                    "midi": 58,
                    "time": 11.574266999999997,
                    "velocity": 0.4409448818897638,
                    "duration": 0.12580724999999937
                },
                {
                    "name": "D#3",
                    "midi": 51,
                    "time": 12.077495999999996,
                    "velocity": 0.47244094488188976,
                    "duration": 0.5032289999999993
                },
                {
                    "name": "C4",
                    "midi": 60,
                    "time": 14.090411999999995,
                    "velocity": 0.4409448818897638,
                    "duration": 0.5032289999999993
                },
                {
                    "name": "G#3",
                    "midi": 56,
                    "time": 14.090411999999995,
                    "velocity": 0.36220472440944884,
                    "duration": 0.5032289999999993
                },
                {
                    "name": "D#4",
                    "midi": 63,
                    "time": 15.600098999999995,
                    "velocity": 0.44881889763779526,
                    "duration": 0.5032289999999993
                },
                {
                    "name": "C4",
                    "midi": 60,
                    "time": 15.600098999999995,
                    "velocity": 0.3779527559055118,
                    "duration": 0.5032289999999993
                },
                {
                    "name": "F4",
                    "midi": 65,
                    "time": 16.103327999999994,
                    "velocity": 0.4015748031496063,
                    "duration": 0.12580725000000115
                },
                {
                    "name": "F4",
                    "midi": 65,
                    "time": 16.480749749999994,
                    "velocity": 0.33070866141732286,
                    "duration": 0.09435543749999908
                },
                {
                    "name": "F4",
                    "midi": 65,
                    "time": 16.60655699999999,
                    "velocity": 0.4015748031496063,
                    "duration": 0.503229000000001
                },
                {
                    "name": "C#4",
                    "midi": 61,
                    "time": 17.109785999999993,
                    "velocity": 0.3779527559055118,
                    "duration": 0.12580725000000115
                },
                {
                    "name": "A#3",
                    "midi": 58,
                    "time": 17.613014999999994,
                    "velocity": 0.3464566929133858,
                    "duration": 0.12580725000000115
                },
                {
                    "name": "D#4",
                    "midi": 63,
                    "time": 18.116243999999995,
                    "velocity": 0.36220472440944884,
                    "duration": 0.9959740625000002
                },
                {
                    "name": "C#4",
                    "midi": 61,
                    "time": 19.122701999999993,
                    "velocity": 0.36220472440944884,
                    "duration": 0.503229000000001
                },
                {
                    "name": "D#4",
                    "midi": 63,
                    "time": 19.625930999999994,
                    "velocity": 0.4094488188976378,
                    "duration": 0.12580725000000115
                },
                {
                    "name": "C4",
                    "midi": 60,
                    "time": 19.625930999999994,
                    "velocity": 0.3464566929133858,
                    "duration": 0.12580725000000115
                },
                {
                    "name": "A#3",
                    "midi": 58,
                    "time": 20.129159999999995,
                    "velocity": 0.2992125984251969,
                    "duration": 0.12580725000000115
                },
                {
                    "name": "C#4",
                    "midi": 61,
                    "time": 20.129159999999995,
                    "velocity": 0.36220472440944884,
                    "duration": 0.12580725000000115
                },
                {
                    "name": "G#3",
                    "midi": 56,
                    "time": 20.632388999999996,
                    "velocity": 0.2992125984251969,
                    "duration": 0.12580725000000115
                },
                {
                    "name": "C4",
                    "midi": 60,
                    "time": 20.632388999999996,
                    "velocity": 0.36220472440944884,
                    "duration": 0.12580725000000115
                },
                {
                    "name": "G3",
                    "midi": 55,
                    "time": 21.135617999999997,
                    "velocity": 0.31496062992125984,
                    "duration": 0.503229000000001
                },
                {
                    "name": "A#3",
                    "midi": 58,
                    "time": 21.135617999999997,
                    "velocity": 0.3779527559055118,
                    "duration": 0.503229000000001
                },
                {
                    "name": "G#3",
                    "midi": 56,
                    "time": 21.638847,
                    "velocity": 0.3543307086614173,
                    "duration": 0.12580725000000115
                },
                {
                    "name": "F3",
                    "midi": 53,
                    "time": 21.638847,
                    "velocity": 0.29133858267716534,
                    "duration": 0.12580725000000115
                },
                {
                    "name": "G3",
                    "midi": 55,
                    "time": 22.142076,
                    "velocity": 0.3543307086614173,
                    "duration": 0.12580725000000115
                },
                {
                    "name": "D#3",
                    "midi": 51,
                    "time": 22.142076,
                    "velocity": 0.29133858267716534,
                    "duration": 0.12580725000000115
                },
                {
                    "name": "G#3",
                    "midi": 56,
                    "time": 22.645305,
                    "velocity": 0.4094488188976378,
                    "duration": 0.12580725000000115
                },
                {
                    "name": "F3",
                    "midi": 53,
                    "time": 23.148534,
                    "velocity": 0.36220472440944884,
                    "duration": 0.12580725000000115
                },
                {
                    "name": "A#3",
                    "midi": 58,
                    "time": 23.651763000000003,
                    "velocity": 0.4409448818897638,
                    "duration": 0.12580725000000115
                },
                {
                    "name": "D#3",
                    "midi": 51,
                    "time": 24.154992000000004,
                    "velocity": 0.47244094488188976,
                    "duration": 0.503229000000001
                },
                {
                    "name": "A4",
                    "midi": 69,
                    "time": 26.671137000000005,
                    "velocity": 0.2992125984251969,
                    "duration": 0.503229000000001
                },
                {
                    "name": "D#5",
                    "midi": 75,
                    "time": 26.671137000000005,
                    "velocity": 0.36220472440944884,
                    "duration": 1.006458000000002
                },
                {
                    "name": "A#4",
                    "midi": 70,
                    "time": 27.174366000000006,
                    "velocity": 0.3937007874015748,
                    "duration": 1.006458000000002
                },
                {
                    "name": "D5",
                    "midi": 74,
                    "time": 27.677595000000007,
                    "velocity": 0.36220472440944884,
                    "duration": 0.3774217499999999
                },
                {
                    "name": "G4",
                    "midi": 67,
                    "time": 28.18082400000001,
                    "velocity": 0.2992125984251969,
                    "duration": 0.503229000000001
                },
                {
                    "name": "C#5",
                    "midi": 73,
                    "time": 28.18082400000001,
                    "velocity": 0.36220472440944884,
                    "duration": 1.006458000000002
                },
                {
                    "name": "G#4",
                    "midi": 68,
                    "time": 28.68405300000001,
                    "velocity": 0.3937007874015748,
                    "duration": 1.006458000000002
                },
                {
                    "name": "C5",
                    "midi": 72,
                    "time": 29.18728200000001,
                    "velocity": 0.36220472440944884,
                    "duration": 0.3774217499999999
                },
                {
                    "name": "F4",
                    "midi": 65,
                    "time": 30.193740000000012,
                    "velocity": 0.2992125984251969,
                    "duration": 1.5096869999999996
                },
                {
                    "name": "G#4",
                    "midi": 68,
                    "time": 30.193740000000012,
                    "velocity": 0.36220472440944884,
                    "duration": 1.5096869999999996
                },
                {
                    "name": "D#4",
                    "midi": 63,
                    "time": 31.703427000000012,
                    "velocity": 0.2992125984251969,
                    "duration": 0.12580725000000115
                },
                {
                    "name": "G4",
                    "midi": 67,
                    "time": 31.703427000000012,
                    "velocity": 0.36220472440944884,
                    "duration": 0.12580725000000115
                },
                {
                    "name": "A#3",
                    "midi": 58,
                    "time": 32.709885000000014,
                    "velocity": 0.2992125984251969,
                    "duration": 0.5032289999999975
                },
                {
                    "name": "D4",
                    "midi": 62,
                    "time": 32.709885000000014,
                    "velocity": 0.2992125984251969,
                    "duration": 0.5032289999999975
                },
                {
                    "name": "G#4",
                    "midi": 68,
                    "time": 32.709885000000014,
                    "velocity": 0.36220472440944884,
                    "duration": 0.5032289999999975
                },
                {
                    "name": "D#4",
                    "midi": 63,
                    "time": 33.21311400000001,
                    "velocity": 0.2992125984251969,
                    "duration": 0.12580725000000115
                },
                {
                    "name": "G4",
                    "midi": 67,
                    "time": 33.21311400000001,
                    "velocity": 0.36220472440944884,
                    "duration": 0.12580725000000115
                },
                {
                    "name": "A#3",
                    "midi": 58,
                    "time": 34.219572000000014,
                    "velocity": 0.2992125984251969,
                    "duration": 0.5032289999999975
                },
                {
                    "name": "D4",
                    "midi": 62,
                    "time": 34.219572000000014,
                    "velocity": 0.2992125984251969,
                    "duration": 0.5032289999999975
                },
                {
                    "name": "G#4",
                    "midi": 68,
                    "time": 34.219572000000014,
                    "velocity": 0.36220472440944884,
                    "duration": 0.5032289999999975
                },
                {
                    "name": "D#4",
                    "midi": 63,
                    "time": 34.72280100000001,
                    "velocity": 0.2992125984251969,
                    "duration": 0.12580725000000115
                },
                {
                    "name": "G4",
                    "midi": 67,
                    "time": 34.72280100000001,
                    "velocity": 0.36220472440944884,
                    "duration": 0.12580725000000115
                },
                {
                    "name": "A#3",
                    "midi": 58,
                    "time": 35.72925900000001,
                    "velocity": 0.23622047244094488,
                    "duration": 0.5032289999999975
                },
                {
                    "name": "D4",
                    "midi": 62,
                    "time": 35.72925900000001,
                    "velocity": 0.23622047244094488,
                    "duration": 0.5032289999999975
                },
                {
                    "name": "G#4",
                    "midi": 68,
                    "time": 35.72925900000001,
                    "velocity": 0.28346456692913385,
                    "duration": 0.5032289999999975
                },
                {
                    "name": "D#4",
                    "midi": 63,
                    "time": 36.23248800000001,
                    "velocity": 0.23622047244094488,
                    "duration": 0.5032289999999975
                },
                {
                    "name": "G4",
                    "midi": 67,
                    "time": 36.23248800000001,
                    "velocity": 0.28346456692913385,
                    "duration": 0.5032289999999975
                },
                {
                    "name": "G#2",
                    "midi": 44,
                    "time": 38.24540400000001,
                    "velocity": 0.4566929133858268,
                    "duration": 0.5032289999999975
                },
                {
                    "name": "G#3",
                    "midi": 56,
                    "time": 38.24540400000001,
                    "velocity": 0.5433070866141733,
                    "duration": 0.5032289999999975
                },
                {
                    "name": "D#4",
                    "midi": 63,
                    "time": 40.258320000000005,
                    "velocity": 0.33070866141732286,
                    "duration": 0.12580725000000115
                },
                {
                    "name": "F#4",
                    "midi": 66,
                    "time": 40.258320000000005,
                    "velocity": 0.4015748031496063,
                    "duration": 0.12580725000000115
                },
                {
                    "name": "D#4",
                    "midi": 63,
                    "time": 40.63574175000001,
                    "velocity": 0.28346456692913385,
                    "duration": 0.09435543749999908
                },
                {
                    "name": "F#4",
                    "midi": 66,
                    "time": 40.63574175000001,
                    "velocity": 0.33070866141732286,
                    "duration": 0.09435543749999908
                },
                {
                    "name": "D#4",
                    "midi": 63,
                    "time": 40.76154900000001,
                    "velocity": 0.33070866141732286,
                    "duration": 0.5032289999999975
                },
                {
                    "name": "F#4",
                    "midi": 66,
                    "time": 40.76154900000001,
                    "velocity": 0.4015748031496063,
                    "duration": 0.5032289999999975
                },
                {
                    "name": "C#4",
                    "midi": 61,
                    "time": 41.26477800000001,
                    "velocity": 0.31496062992125984,
                    "duration": 0.12580725000000115
                },
                {
                    "name": "F4",
                    "midi": 65,
                    "time": 41.26477800000001,
                    "velocity": 0.3779527559055118,
                    "duration": 0.12580725000000115
                },
                {
                    "name": "C#4",
                    "midi": 61,
                    "time": 41.76800700000001,
                    "velocity": 0.33070866141732286,
                    "duration": 0.12580725000000115
                },
                {
                    "name": "D#4",
                    "midi": 63,
                    "time": 41.76800700000001,
                    "velocity": 0.4015748031496063,
                    "duration": 0.12580725000000115
                },
                {
                    "name": "C#4",
                    "midi": 61,
                    "time": 42.145428750000015,
                    "velocity": 0.28346456692913385,
                    "duration": 0.09435543749999908
                },
                {
                    "name": "D#4",
                    "midi": 63,
                    "time": 42.145428750000015,
                    "velocity": 0.33070866141732286,
                    "duration": 0.09435543749999908
                },
                {
                    "name": "C#4",
                    "midi": 61,
                    "time": 42.271236000000016,
                    "velocity": 0.33070866141732286,
                    "duration": 0.5032289999999975
                },
                {
                    "name": "D#4",
                    "midi": 63,
                    "time": 42.271236000000016,
                    "velocity": 0.4015748031496063,
                    "duration": 0.6290362499999986
                },
                {
                    "name": "C4",
                    "midi": 60,
                    "time": 42.77446500000001,
                    "velocity": 0.31496062992125984,
                    "duration": 0.12580725000000115
                },
                {
                    "name": "D#3",
                    "midi": 51,
                    "time": 44.78738100000002,
                    "velocity": 0.3700787401574803,
                    "duration": 0.12580725000000115
                },
                {
                    "name": "A#3",
                    "midi": 58,
                    "time": 44.78738100000002,
                    "velocity": 0.4409448818897638,
                    "duration": 0.12580725000000115
                },
                {
                    "name": "G#2",
                    "midi": 44,
                    "time": 45.29061000000002,
                    "velocity": 0.3937007874015748,
                    "duration": 0.5032289999999975
                },
                {
                    "name": "G#3",
                    "midi": 56,
                    "time": 45.29061000000002,
                    "velocity": 0.47244094488188976,
                    "duration": 0.5032289999999975
                },
                {
                    "name": "A4",
                    "midi": 69,
                    "time": 47.80675500000002,
                    "velocity": 0.2992125984251969,
                    "duration": 0.5032289999999975
                },
                {
                    "name": "D#5",
                    "midi": 75,
                    "time": 47.80675500000002,
                    "velocity": 0.36220472440944884,
                    "duration": 1.006457999999995
                },
                {
                    "name": "A#4",
                    "midi": 70,
                    "time": 48.309984000000014,
                    "velocity": 0.3937007874015748,
                    "duration": 1.006458000000002
                },
                {
                    "name": "D5",
                    "midi": 74,
                    "time": 48.81321300000001,
                    "velocity": 0.36220472440944884,
                    "duration": 0.37742175000000344
                },
                {
                    "name": "G4",
                    "midi": 67,
                    "time": 49.316442000000016,
                    "velocity": 0.2992125984251969,
                    "duration": 0.5032289999999975
                },
                {
                    "name": "C#5",
                    "midi": 73,
                    "time": 49.316442000000016,
                    "velocity": 0.36220472440944884,
                    "duration": 1.006457999999995
                },
                {
                    "name": "G#4",
                    "midi": 68,
                    "time": 49.819671000000014,
                    "velocity": 0.3937007874015748,
                    "duration": 1.006458000000002
                },
                {
                    "name": "C5",
                    "midi": 72,
                    "time": 50.32290000000001,
                    "velocity": 0.36220472440944884,
                    "duration": 0.37742175000000344
                },
                {
                    "name": "F4",
                    "midi": 65,
                    "time": 51.32935800000001,
                    "velocity": 0.2992125984251969,
                    "duration": 1.5096869999999996
                },
                {
                    "name": "G#4",
                    "midi": 68,
                    "time": 51.32935800000001,
                    "velocity": 0.36220472440944884,
                    "duration": 1.5096869999999996
                },
                {
                    "name": "D#4",
                    "midi": 63,
                    "time": 52.83904500000001,
                    "velocity": 0.2992125984251969,
                    "duration": 0.12580725000000115
                },
                {
                    "name": "G4",
                    "midi": 67,
                    "time": 52.83904500000001,
                    "velocity": 0.36220472440944884,
                    "duration": 0.12580725000000115
                },
                {
                    "name": "A#3",
                    "midi": 58,
                    "time": 53.845503000000015,
                    "velocity": 0.2992125984251969,
                    "duration": 0.5032289999999975
                },
                {
                    "name": "D4",
                    "midi": 62,
                    "time": 53.845503000000015,
                    "velocity": 0.2992125984251969,
                    "duration": 0.5032289999999975
                },
                {
                    "name": "G#4",
                    "midi": 68,
                    "time": 53.845503000000015,
                    "velocity": 0.36220472440944884,
                    "duration": 0.5032289999999975
                },
                {
                    "name": "D#4",
                    "midi": 63,
                    "time": 54.34873200000001,
                    "velocity": 0.2992125984251969,
                    "duration": 0.12580725000000115
                },
                {
                    "name": "G4",
                    "midi": 67,
                    "time": 54.34873200000001,
                    "velocity": 0.36220472440944884,
                    "duration": 0.12580725000000115
                },
                {
                    "name": "A#3",
                    "midi": 58,
                    "time": 55.355190000000015,
                    "velocity": 0.2992125984251969,
                    "duration": 0.5032289999999975
                },
                {
                    "name": "D4",
                    "midi": 62,
                    "time": 55.355190000000015,
                    "velocity": 0.2992125984251969,
                    "duration": 0.5032289999999975
                },
                {
                    "name": "G#4",
                    "midi": 68,
                    "time": 55.355190000000015,
                    "velocity": 0.36220472440944884,
                    "duration": 0.5032289999999975
                },
                {
                    "name": "D#4",
                    "midi": 63,
                    "time": 55.85841900000001,
                    "velocity": 0.2992125984251969,
                    "duration": 0.12580725000000115
                },
                {
                    "name": "G4",
                    "midi": 67,
                    "time": 55.85841900000001,
                    "velocity": 0.36220472440944884,
                    "duration": 0.12580725000000115
                },
                {
                    "name": "A#3",
                    "midi": 58,
                    "time": 56.864877000000014,
                    "velocity": 0.23622047244094488,
                    "duration": 0.5032289999999975
                },
                {
                    "name": "D4",
                    "midi": 62,
                    "time": 56.864877000000014,
                    "velocity": 0.23622047244094488,
                    "duration": 0.5032289999999975
                },
                {
                    "name": "G#4",
                    "midi": 68,
                    "time": 56.864877000000014,
                    "velocity": 0.28346456692913385,
                    "duration": 0.5032289999999975
                },
                {
                    "name": "D#4",
                    "midi": 63,
                    "time": 57.36810600000001,
                    "velocity": 0.23622047244094488,
                    "duration": 0.5032289999999975
                },
                {
                    "name": "G4",
                    "midi": 67,
                    "time": 57.36810600000001,
                    "velocity": 0.28346456692913385,
                    "duration": 0.5032289999999975
                },
                {
                    "name": "G#2",
                    "midi": 44,
                    "time": 59.38102200000001,
                    "velocity": 0.4566929133858268,
                    "duration": 0.5032289999999975
                },
                {
                    "name": "G#3",
                    "midi": 56,
                    "time": 59.38102200000001,
                    "velocity": 0.5433070866141733,
                    "duration": 0.5032289999999975
                },
                {
                    "name": "D#4",
                    "midi": 63,
                    "time": 61.393938000000006,
                    "velocity": 0.33070866141732286,
                    "duration": 0.12580725000000115
                },
                {
                    "name": "F#4",
                    "midi": 66,
                    "time": 61.393938000000006,
                    "velocity": 0.4015748031496063,
                    "duration": 0.12580725000000115
                },
                {
                    "name": "D#4",
                    "midi": 63,
                    "time": 61.77135975000001,
                    "velocity": 0.28346456692913385,
                    "duration": 0.09435543749999908
                },
                {
                    "name": "F#4",
                    "midi": 66,
                    "time": 61.77135975000001,
                    "velocity": 0.33070866141732286,
                    "duration": 0.09435543749999908
                },
                {
                    "name": "D#4",
                    "midi": 63,
                    "time": 61.89716700000001,
                    "velocity": 0.33070866141732286,
                    "duration": 0.5032289999999975
                },
                {
                    "name": "F#4",
                    "midi": 66,
                    "time": 61.89716700000001,
                    "velocity": 0.4015748031496063,
                    "duration": 0.5032289999999975
                },
                {
                    "name": "C#4",
                    "midi": 61,
                    "time": 62.40039600000001,
                    "velocity": 0.31496062992125984,
                    "duration": 0.12580725000000115
                },
                {
                    "name": "F4",
                    "midi": 65,
                    "time": 62.40039600000001,
                    "velocity": 0.3779527559055118,
                    "duration": 0.12580725000000115
                },
                {
                    "name": "C#4",
                    "midi": 61,
                    "time": 62.90362500000001,
                    "velocity": 0.33070866141732286,
                    "duration": 0.12580725000000115
                },
                {
                    "name": "D#4",
                    "midi": 63,
                    "time": 62.90362500000001,
                    "velocity": 0.4015748031496063,
                    "duration": 0.12580725000000115
                },
                {
                    "name": "C#4",
                    "midi": 61,
                    "time": 63.281046750000016,
                    "velocity": 0.28346456692913385,
                    "duration": 0.09435543749999908
                },
                {
                    "name": "D#4",
                    "midi": 63,
                    "time": 63.281046750000016,
                    "velocity": 0.33070866141732286,
                    "duration": 0.09435543749999908
                },
                {
                    "name": "C#4",
                    "midi": 61,
                    "time": 63.40685400000002,
                    "velocity": 0.33070866141732286,
                    "duration": 0.5032289999999975
                },
                {
                    "name": "D#4",
                    "midi": 63,
                    "time": 63.40685400000002,
                    "velocity": 0.4015748031496063,
                    "duration": 0.6290362499999915
                },
                {
                    "name": "C4",
                    "midi": 60,
                    "time": 63.910083000000014,
                    "velocity": 0.31496062992125984,
                    "duration": 0.12580724999999404
                },
                {
                    "name": "D#3",
                    "midi": 51,
                    "time": 65.922999,
                    "velocity": 0.3700787401574803,
                    "duration": 0.12580724999999404
                },
                {
                    "name": "A#3",
                    "midi": 58,
                    "time": 65.922999,
                    "velocity": 0.4409448818897638,
                    "duration": 0.12580724999999404
                },
                {
                    "name": "G#2",
                    "midi": 44,
                    "time": 66.426228,
                    "velocity": 0.3937007874015748,
                    "duration": 0.5032290000000046
                },
                {
                    "name": "G#3",
                    "midi": 56,
                    "time": 66.426228,
                    "velocity": 0.47244094488188976,
                    "duration": 0.5032290000000046
                },
                {
                    "name": "G#3",
                    "midi": 56,
                    "time": 67.935915,
                    "velocity": 0.2677165354330709,
                    "duration": 0.2516145000000023
                },
                {
                    "name": "D#4",
                    "midi": 63,
                    "time": 68.1875295,
                    "velocity": 0.2204724409448819,
                    "duration": 0.2516145000000023
                },
                {
                    "name": "C4",
                    "midi": 60,
                    "time": 68.439144,
                    "velocity": 0.25196850393700787,
                    "duration": 0.2516145000000023
                },
                {
                    "name": "D#4",
                    "midi": 63,
                    "time": 68.6907585,
                    "velocity": 0.2204724409448819,
                    "duration": 0.2516145000000023
                },
                {
                    "name": "G#3",
                    "midi": 56,
                    "time": 68.942373,
                    "velocity": 0.25196850393700787,
                    "duration": 0.2516145000000023
                },
                {
                    "name": "D#4",
                    "midi": 63,
                    "time": 69.1939875,
                    "velocity": 0.2204724409448819,
                    "duration": 0.2516145000000023
                },
                {
                    "name": "G#3",
                    "midi": 56,
                    "time": 69.44560200000001,
                    "velocity": 0.2677165354330709,
                    "duration": 0.2516145000000023
                },
                {
                    "name": "D#4",
                    "midi": 63,
                    "time": 69.69721650000001,
                    "velocity": 0.1889763779527559,
                    "duration": 0.2516145000000023
                },
                {
                    "name": "C4",
                    "midi": 60,
                    "time": 69.94883100000001,
                    "velocity": 0.2204724409448819,
                    "duration": 0.2516145000000023
                },
                {
                    "name": "D#4",
                    "midi": 63,
                    "time": 70.20044550000001,
                    "velocity": 0.1889763779527559,
                    "duration": 0.2516145000000023
                },
                {
                    "name": "G#3",
                    "midi": 56,
                    "time": 70.45206000000002,
                    "velocity": 0.2204724409448819,
                    "duration": 0.2516145000000023
                },
                {
                    "name": "D#4",
                    "midi": 63,
                    "time": 70.70367450000002,
                    "velocity": 0.1889763779527559,
                    "duration": 0.2516145000000023
                },
                {
                    "name": "G#3",
                    "midi": 56,
                    "time": 70.95528900000002,
                    "velocity": 0.2677165354330709,
                    "duration": 0.2516145000000023
                },
                {
                    "name": "D#4",
                    "midi": 63,
                    "time": 71.20690350000002,
                    "velocity": 0.2204724409448819,
                    "duration": 0.2516145000000023
                },
                {
                    "name": "C4",
                    "midi": 60,
                    "time": 71.45851800000003,
                    "velocity": 0.25196850393700787,
                    "duration": 0.2516145000000023
                },
                {
                    "name": "D#4",
                    "midi": 63,
                    "time": 71.71013250000003,
                    "velocity": 0.2204724409448819,
                    "duration": 0.2516145000000023
                },
                {
                    "name": "G#3",
                    "midi": 56,
                    "time": 71.96174700000003,
                    "velocity": 0.25196850393700787,
                    "duration": 0.2516145000000023
                },
                {
                    "name": "D#4",
                    "midi": 63,
                    "time": 72.21336150000003,
                    "velocity": 0.2204724409448819,
                    "duration": 0.2516145000000023
                },
                {
                    "name": "G#3",
                    "midi": 56,
                    "time": 72.46497600000004,
                    "velocity": 0.2677165354330709,
                    "duration": 0.2516145000000023
                },
                {
                    "name": "D#4",
                    "midi": 63,
                    "time": 72.71659050000004,
                    "velocity": 0.1889763779527559,
                    "duration": 0.2516145000000023
                },
                {
                    "name": "C4",
                    "midi": 60,
                    "time": 72.96820500000004,
                    "velocity": 0.2204724409448819,
                    "duration": 0.2516145000000023
                },
                {
                    "name": "D#4",
                    "midi": 63,
                    "time": 73.21981950000004,
                    "velocity": 0.1889763779527559,
                    "duration": 0.2516145000000023
                },
                {
                    "name": "G#3",
                    "midi": 56,
                    "time": 73.47143400000004,
                    "velocity": 0.2204724409448819,
                    "duration": 0.2516145000000023
                },
                {
                    "name": "D#4",
                    "midi": 63,
                    "time": 73.72304850000005,
                    "velocity": 0.1889763779527559,
                    "duration": 0.2516145000000023
                },
                {
                    "name": "G#3",
                    "midi": 56,
                    "time": 73.97466300000005,
                    "velocity": 0.2677165354330709,
                    "duration": 0.2516145000000023
                },
                {
                    "name": "D4",
                    "midi": 62,
                    "time": 74.22627750000005,
                    "velocity": 0.2204724409448819,
                    "duration": 0.2516145000000023
                },
                {
                    "name": "A#3",
                    "midi": 58,
                    "time": 74.47789200000005,
                    "velocity": 0.25196850393700787,
                    "duration": 0.2516145000000023
                },
                {
                    "name": "D4",
                    "midi": 62,
                    "time": 74.72950650000006,
                    "velocity": 0.2204724409448819,
                    "duration": 0.2516145000000023
                },
                {
                    "name": "G#3",
                    "midi": 56,
                    "time": 74.98112100000006,
                    "velocity": 0.25196850393700787,
                    "duration": 0.2516145000000023
                },
                {
                    "name": "D4",
                    "midi": 62,
                    "time": 75.23273550000006,
                    "velocity": 0.2204724409448819,
                    "duration": 0.2516145000000023
                },
                {
                    "name": "G3",
                    "midi": 55,
                    "time": 75.48435000000006,
                    "velocity": 0.2677165354330709,
                    "duration": 0.2516145000000023
                },
                {
                    "name": "D#4",
                    "midi": 63,
                    "time": 75.73596450000007,
                    "velocity": 0.1889763779527559,
                    "duration": 0.2516145000000023
                },
                {
                    "name": "A#3",
                    "midi": 58,
                    "time": 75.98757900000007,
                    "velocity": 0.2204724409448819,
                    "duration": 0.2516145000000023
                },
                {
                    "name": "D#4",
                    "midi": 63,
                    "time": 76.23919350000007,
                    "velocity": 0.1889763779527559,
                    "duration": 0.2516145000000023
                },
                {
                    "name": "G3",
                    "midi": 55,
                    "time": 76.49080800000007,
                    "velocity": 0.2204724409448819,
                    "duration": 0.2516145000000023
                },
                {
                    "name": "D#4",
                    "midi": 63,
                    "time": 76.74242250000007,
                    "velocity": 0.1889763779527559,
                    "duration": 0.2516145000000023
                },
                {
                    "name": "G#3",
                    "midi": 56,
                    "time": 76.99403700000008,
                    "velocity": 0.31496062992125984,
                    "duration": 0.5032290000000046
                },
                {
                    "name": "A#3",
                    "midi": 58,
                    "time": 78.00049500000009,
                    "velocity": 0.28346456692913385,
                    "duration": 0.5032290000000046
                },
                {
                    "name": "D#3",
                    "midi": 51,
                    "time": 78.50372400000009,
                    "velocity": 0.31496062992125984,
                    "duration": 0.5032290000000046
                },
                {
                    "name": "G#3",
                    "midi": 56,
                    "time": 80.01341100000009,
                    "velocity": 0.2677165354330709,
                    "duration": 0.2516145000000023
                },
                {
                    "name": "D#4",
                    "midi": 63,
                    "time": 80.26502550000009,
                    "velocity": 0.2204724409448819,
                    "duration": 0.2516145000000023
                },
                {
                    "name": "C4",
                    "midi": 60,
                    "time": 80.5166400000001,
                    "velocity": 0.25196850393700787,
                    "duration": 0.2516145000000023
                },
                {
                    "name": "D#4",
                    "midi": 63,
                    "time": 80.7682545000001,
                    "velocity": 0.2204724409448819,
                    "duration": 0.2516145000000023
                },
                {
                    "name": "G#3",
                    "midi": 56,
                    "time": 81.0198690000001,
                    "velocity": 0.25196850393700787,
                    "duration": 0.2516145000000023
                },
                {
                    "name": "D#4",
                    "midi": 63,
                    "time": 81.2714835000001,
                    "velocity": 0.2204724409448819,
                    "duration": 0.2516145000000023
                },
                {
                    "name": "G#3",
                    "midi": 56,
                    "time": 81.5230980000001,
                    "velocity": 0.2677165354330709,
                    "duration": 0.2516145000000023
                },
                {
                    "name": "D#4",
                    "midi": 63,
                    "time": 81.7747125000001,
                    "velocity": 0.1889763779527559,
                    "duration": 0.2516145000000023
                },
                {
                    "name": "C4",
                    "midi": 60,
                    "time": 82.02632700000011,
                    "velocity": 0.2204724409448819,
                    "duration": 0.2516145000000023
                },
                {
                    "name": "D#4",
                    "midi": 63,
                    "time": 82.27794150000011,
                    "velocity": 0.1889763779527559,
                    "duration": 0.2516145000000023
                },
                {
                    "name": "G#3",
                    "midi": 56,
                    "time": 82.52955600000011,
                    "velocity": 0.2204724409448819,
                    "duration": 0.2516145000000023
                },
                {
                    "name": "D#4",
                    "midi": 63,
                    "time": 82.78117050000012,
                    "velocity": 0.1889763779527559,
                    "duration": 0.2516145000000023
                },
                {
                    "name": "G#3",
                    "midi": 56,
                    "time": 83.03278500000012,
                    "velocity": 0.2677165354330709,
                    "duration": 0.2516145000000023
                },
                {
                    "name": "D#4",
                    "midi": 63,
                    "time": 83.28439950000012,
                    "velocity": 0.2204724409448819,
                    "duration": 0.2516145000000023
                },
                {
                    "name": "C4",
                    "midi": 60,
                    "time": 83.53601400000012,
                    "velocity": 0.25196850393700787,
                    "duration": 0.2516145000000023
                },
                {
                    "name": "D#4",
                    "midi": 63,
                    "time": 83.78762850000012,
                    "velocity": 0.2204724409448819,
                    "duration": 0.2516145000000023
                },
                {
                    "name": "G#3",
                    "midi": 56,
                    "time": 84.03924300000013,
                    "velocity": 0.25196850393700787,
                    "duration": 0.2516145000000023
                },
                {
                    "name": "D#4",
                    "midi": 63,
                    "time": 84.29085750000013,
                    "velocity": 0.2204724409448819,
                    "duration": 0.2516145000000023
                },
                {
                    "name": "G#3",
                    "midi": 56,
                    "time": 84.54247200000013,
                    "velocity": 0.2677165354330709,
                    "duration": 0.2516145000000023
                },
                {
                    "name": "D#4",
                    "midi": 63,
                    "time": 84.79408650000013,
                    "velocity": 0.1889763779527559,
                    "duration": 0.2516145000000023
                },
                {
                    "name": "C4",
                    "midi": 60,
                    "time": 85.04570100000014,
                    "velocity": 0.2204724409448819,
                    "duration": 0.2516145000000023
                },
                {
                    "name": "D#4",
                    "midi": 63,
                    "time": 85.29731550000014,
                    "velocity": 0.1889763779527559,
                    "duration": 0.2516145000000023
                },
                {
                    "name": "G#3",
                    "midi": 56,
                    "time": 85.54893000000014,
                    "velocity": 0.2204724409448819,
                    "duration": 0.2516145000000023
                },
                {
                    "name": "D#4",
                    "midi": 63,
                    "time": 85.80054450000014,
                    "velocity": 0.1889763779527559,
                    "duration": 0.2516145000000023
                },
                {
                    "name": "G#3",
                    "midi": 56,
                    "time": 86.05215900000015,
                    "velocity": 0.2677165354330709,
                    "duration": 0.2516145000000023
                },
                {
                    "name": "D4",
                    "midi": 62,
                    "time": 86.30377350000015,
                    "velocity": 0.2204724409448819,
                    "duration": 0.2516145000000023
                },
                {
                    "name": "A#3",
                    "midi": 58,
                    "time": 86.55538800000015,
                    "velocity": 0.25196850393700787,
                    "duration": 0.2516145000000023
                },
                {
                    "name": "D4",
                    "midi": 62,
                    "time": 86.80700250000015,
                    "velocity": 0.2204724409448819,
                    "duration": 0.2516145000000023
                },
                {
                    "name": "G#3",
                    "midi": 56,
                    "time": 87.05861700000015,
                    "velocity": 0.25196850393700787,
                    "duration": 0.2516145000000023
                },
                {
                    "name": "D4",
                    "midi": 62,
                    "time": 87.31023150000016,
                    "velocity": 0.2204724409448819,
                    "duration": 0.2516145000000023
                },
                {
                    "name": "G3",
                    "midi": 55,
                    "time": 87.56184600000016,
                    "velocity": 0.2677165354330709,
                    "duration": 0.2516145000000023
                },
                {
                    "name": "D#4",
                    "midi": 63,
                    "time": 87.81346050000016,
                    "velocity": 0.1889763779527559,
                    "duration": 0.2516145000000023
                },
                {
                    "name": "A#3",
                    "midi": 58,
                    "time": 88.06507500000016,
                    "velocity": 0.2204724409448819,
                    "duration": 0.2516145000000023
                },
                {
                    "name": "D#4",
                    "midi": 63,
                    "time": 88.31668950000017,
                    "velocity": 0.1889763779527559,
                    "duration": 0.2516145000000023
                },
                {
                    "name": "G3",
                    "midi": 55,
                    "time": 88.56830400000017,
                    "velocity": 0.2204724409448819,
                    "duration": 0.2516145000000023
                },
                {
                    "name": "D#4",
                    "midi": 63,
                    "time": 88.81991850000017,
                    "velocity": 0.1889763779527559,
                    "duration": 0.2516145000000023
                },
                {
                    "name": "G#3",
                    "midi": 56,
                    "time": 89.07153300000017,
                    "velocity": 0.31496062992125984,
                    "duration": 0.5032290000000046
                },
                {
                    "name": "A#3",
                    "midi": 58,
                    "time": 90.07799100000018,
                    "velocity": 0.28346456692913385,
                    "duration": 0.5032290000000046
                },
                {
                    "name": "D#3",
                    "midi": 51,
                    "time": 90.58122000000019,
                    "velocity": 0.31496062992125984,
                    "duration": 0.5032290000000046
                },
                {
                    "name": "D#4",
                    "midi": 63,
                    "time": 92.09090700000019,
                    "velocity": 0.31496062992125984,
                    "duration": 0.5032290000000046
                },
                {
                    "name": "G4",
                    "midi": 67,
                    "time": 92.59413600000019,
                    "velocity": 0.28346456692913385,
                    "duration": 0.5032290000000046
                },
                {
                    "name": "G#4",
                    "midi": 68,
                    "time": 93.0973650000002,
                    "velocity": 0.28346456692913385,
                    "duration": 0.5032290000000046
                },
                {
                    "name": "G4",
                    "midi": 67,
                    "time": 93.6005940000002,
                    "velocity": 0.31496062992125984,
                    "duration": 0.5032290000000046
                },
                {
                    "name": "D#4",
                    "midi": 63,
                    "time": 94.1038230000002,
                    "velocity": 0.29133858267716534,
                    "duration": 0.5032290000000046
                },
                {
                    "name": "F3",
                    "midi": 53,
                    "time": 95.11028100000021,
                    "velocity": 0.31496062992125984,
                    "duration": 1.5096870000000138
                },
                {
                    "name": "D4",
                    "midi": 62,
                    "time": 95.61351000000022,
                    "velocity": 0.28346456692913385,
                    "duration": 0.5032290000000046
                },
                {
                    "name": "D4",
                    "midi": 62,
                    "time": 96.11673900000022,
                    "velocity": 0.28346456692913385,
                    "duration": 1.0064580000000092
                },
                {
                    "name": "D#3",
                    "midi": 51,
                    "time": 96.61996800000023,
                    "velocity": 0.31496062992125984,
                    "duration": 1.0064580000000092
                },
                {
                    "name": "D#4",
                    "midi": 63,
                    "time": 97.12319700000023,
                    "velocity": 0.29133858267716534,
                    "duration": 0.5032290000000046
                },
                {
                    "name": "G#3",
                    "midi": 56,
                    "time": 98.12965500000024,
                    "velocity": 0.2677165354330709,
                    "duration": 0.2516145000000023
                },
                {
                    "name": "D#4",
                    "midi": 63,
                    "time": 98.38126950000024,
                    "velocity": 0.2204724409448819,
                    "duration": 0.2516145000000023
                },
                {
                    "name": "C4",
                    "midi": 60,
                    "time": 98.63288400000025,
                    "velocity": 0.25196850393700787,
                    "duration": 0.2516145000000023
                },
                {
                    "name": "D#4",
                    "midi": 63,
                    "time": 98.88449850000025,
                    "velocity": 0.2204724409448819,
                    "duration": 0.2516145000000023
                },
                {
                    "name": "G#3",
                    "midi": 56,
                    "time": 99.13611300000025,
                    "velocity": 0.25196850393700787,
                    "duration": 0.2516145000000023
                },
                {
                    "name": "D#4",
                    "midi": 63,
                    "time": 99.38772750000025,
                    "velocity": 0.2204724409448819,
                    "duration": 0.2516145000000023
                },
                {
                    "name": "G#3",
                    "midi": 56,
                    "time": 99.63934200000025,
                    "velocity": 0.2677165354330709,
                    "duration": 0.2516145000000023
                },
                {
                    "name": "D#4",
                    "midi": 63,
                    "time": 99.89095650000026,
                    "velocity": 0.1889763779527559,
                    "duration": 0.2516145000000023
                },
                {
                    "name": "C4",
                    "midi": 60,
                    "time": 100.14257100000026,
                    "velocity": 0.2204724409448819,
                    "duration": 0.2516145000000023
                },
                {
                    "name": "D#4",
                    "midi": 63,
                    "time": 100.39418550000026,
                    "velocity": 0.1889763779527559,
                    "duration": 0.2516145000000023
                },
                {
                    "name": "G#3",
                    "midi": 56,
                    "time": 100.64580000000026,
                    "velocity": 0.2204724409448819,
                    "duration": 0.2516145000000023
                },
                {
                    "name": "D#4",
                    "midi": 63,
                    "time": 100.89741450000027,
                    "velocity": 0.1889763779527559,
                    "duration": 0.2516145000000023
                },
                {
                    "name": "C3",
                    "midi": 48,
                    "time": 101.14902900000027,
                    "velocity": 0.2677165354330709,
                    "duration": 0.2516145000000023
                },
                {
                    "name": "G#3",
                    "midi": 56,
                    "time": 101.40064350000027,
                    "velocity": 0.2204724409448819,
                    "duration": 0.2516145000000023
                },
                {
                    "name": "D#3",
                    "midi": 51,
                    "time": 101.65225800000027,
                    "velocity": 0.25196850393700787,
                    "duration": 0.2516145000000023
                },
                {
                    "name": "G#3",
                    "midi": 56,
                    "time": 101.90387250000028,
                    "velocity": 0.2204724409448819,
                    "duration": 0.2516145000000023
                },
                {
                    "name": "C3",
                    "midi": 48,
                    "time": 102.15548700000028,
                    "velocity": 0.25196850393700787,
                    "duration": 0.2516145000000023
                },
                {
                    "name": "G#3",
                    "midi": 56,
                    "time": 102.40710150000028,
                    "velocity": 0.2204724409448819,
                    "duration": 0.2516145000000023
                },
                {
                    "name": "C3",
                    "midi": 48,
                    "time": 102.65871600000028,
                    "velocity": 0.2677165354330709,
                    "duration": 0.2516145000000023
                },
                {
                    "name": "G#3",
                    "midi": 56,
                    "time": 102.91033050000028,
                    "velocity": 0.1889763779527559,
                    "duration": 0.2516145000000023
                },
                {
                    "name": "D#3",
                    "midi": 51,
                    "time": 103.16194500000029,
                    "velocity": 0.2204724409448819,
                    "duration": 0.2516145000000023
                },
                {
                    "name": "G#3",
                    "midi": 56,
                    "time": 103.41355950000029,
                    "velocity": 0.1889763779527559,
                    "duration": 0.2516145000000023
                },
                {
                    "name": "C3",
                    "midi": 48,
                    "time": 103.66517400000029,
                    "velocity": 0.2204724409448819,
                    "duration": 0.2516145000000023
                },
                {
                    "name": "G#3",
                    "midi": 56,
                    "time": 103.9167885000003,
                    "velocity": 0.1889763779527559,
                    "duration": 0.2516145000000023
                },
                {
                    "name": "C#3",
                    "midi": 49,
                    "time": 104.1684030000003,
                    "velocity": 0.31496062992125984,
                    "duration": 0.5032290000000046
                },
                {
                    "name": "D#3",
                    "midi": 51,
                    "time": 105.1748610000003,
                    "velocity": 0.28346456692913385,
                    "duration": 0.5032290000000046
                },
                {
                    "name": "G#3",
                    "midi": 56,
                    "time": 105.67809000000031,
                    "velocity": 0.31496062992125984,
                    "duration": 0.5032290000000046
                },
                {
                    "name": "G#2",
                    "midi": 44,
                    "time": 105.67809000000031,
                    "velocity": 0.25196850393700787,
                    "duration": 0.5032290000000046
                },
                {
                    "name": "D#4",
                    "midi": 63,
                    "time": 107.18777700000031,
                    "velocity": 0.31496062992125984,
                    "duration": 0.5032290000000046
                },
                {
                    "name": "G4",
                    "midi": 67,
                    "time": 107.69100600000031,
                    "velocity": 0.28346456692913385,
                    "duration": 0.5032290000000046
                },
                {
                    "name": "G#4",
                    "midi": 68,
                    "time": 108.19423500000032,
                    "velocity": 0.28346456692913385,
                    "duration": 0.5032290000000046
                },
                {
                    "name": "G4",
                    "midi": 67,
                    "time": 108.69746400000032,
                    "velocity": 0.31496062992125984,
                    "duration": 0.5032290000000046
                },
                {
                    "name": "D#4",
                    "midi": 63,
                    "time": 109.20069300000033,
                    "velocity": 0.29133858267716534,
                    "duration": 0.5032290000000046
                },
                {
                    "name": "F3",
                    "midi": 53,
                    "time": 110.20715100000034,
                    "velocity": 0.31496062992125984,
                    "duration": 1.5096870000000138
                },
                {
                    "name": "D4",
                    "midi": 62,
                    "time": 110.71038000000034,
                    "velocity": 0.28346456692913385,
                    "duration": 0.5032290000000046
                },
                {
                    "name": "D4",
                    "midi": 62,
                    "time": 111.21360900000035,
                    "velocity": 0.28346456692913385,
                    "duration": 1.0064580000000092
                },
                {
                    "name": "D#3",
                    "midi": 51,
                    "time": 111.71683800000035,
                    "velocity": 0.31496062992125984,
                    "duration": 1.0064580000000092
                },
                {
                    "name": "D#4",
                    "midi": 63,
                    "time": 112.22006700000036,
                    "velocity": 0.29133858267716534,
                    "duration": 0.5032290000000046
                },
                {
                    "name": "G#3",
                    "midi": 56,
                    "time": 113.22652500000036,
                    "velocity": 0.2677165354330709,
                    "duration": 0.2516145000000023
                },
                {
                    "name": "D#4",
                    "midi": 63,
                    "time": 113.47813950000037,
                    "velocity": 0.2204724409448819,
                    "duration": 0.2516145000000023
                },
                {
                    "name": "C4",
                    "midi": 60,
                    "time": 113.72975400000037,
                    "velocity": 0.25196850393700787,
                    "duration": 0.2516145000000023
                },
                {
                    "name": "D#4",
                    "midi": 63,
                    "time": 113.98136850000037,
                    "velocity": 0.2204724409448819,
                    "duration": 0.2516145000000023
                },
                {
                    "name": "G#3",
                    "midi": 56,
                    "time": 114.23298300000037,
                    "velocity": 0.25196850393700787,
                    "duration": 0.2516145000000023
                },
                {
                    "name": "D#4",
                    "midi": 63,
                    "time": 114.48459750000038,
                    "velocity": 0.2204724409448819,
                    "duration": 0.2516145000000023
                },
                {
                    "name": "G#3",
                    "midi": 56,
                    "time": 114.73621200000038,
                    "velocity": 0.2677165354330709,
                    "duration": 0.2516145000000023
                },
                {
                    "name": "D#4",
                    "midi": 63,
                    "time": 114.98782650000038,
                    "velocity": 0.1889763779527559,
                    "duration": 0.2516145000000023
                },
                {
                    "name": "C4",
                    "midi": 60,
                    "time": 115.23944100000038,
                    "velocity": 0.2204724409448819,
                    "duration": 0.2516145000000023
                },
                {
                    "name": "D#4",
                    "midi": 63,
                    "time": 115.49105550000039,
                    "velocity": 0.1889763779527559,
                    "duration": 0.2516145000000023
                },
                {
                    "name": "G#3",
                    "midi": 56,
                    "time": 115.74267000000039,
                    "velocity": 0.2204724409448819,
                    "duration": 0.2516145000000023
                },
                {
                    "name": "D#4",
                    "midi": 63,
                    "time": 115.99428450000039,
                    "velocity": 0.1889763779527559,
                    "duration": 0.2516145000000023
                },
                {
                    "name": "C3",
                    "midi": 48,
                    "time": 116.24589900000039,
                    "velocity": 0.2677165354330709,
                    "duration": 0.2516145000000023
                },
                {
                    "name": "G#3",
                    "midi": 56,
                    "time": 116.4975135000004,
                    "velocity": 0.2204724409448819,
                    "duration": 0.2516145000000023
                },
                {
                    "name": "D#3",
                    "midi": 51,
                    "time": 116.7491280000004,
                    "velocity": 0.25196850393700787,
                    "duration": 0.2516145000000023
                },
                {
                    "name": "G#3",
                    "midi": 56,
                    "time": 117.0007425000004,
                    "velocity": 0.2204724409448819,
                    "duration": 0.2516145000000023
                },
                {
                    "name": "C3",
                    "midi": 48,
                    "time": 117.2523570000004,
                    "velocity": 0.25196850393700787,
                    "duration": 0.2516145000000023
                },
                {
                    "name": "G#3",
                    "midi": 56,
                    "time": 117.5039715000004,
                    "velocity": 0.2204724409448819,
                    "duration": 0.2516145000000023
                },
                {
                    "name": "C3",
                    "midi": 48,
                    "time": 117.7555860000004,
                    "velocity": 0.2677165354330709,
                    "duration": 0.2516145000000023
                },
                {
                    "name": "G#3",
                    "midi": 56,
                    "time": 118.00720050000041,
                    "velocity": 0.1889763779527559,
                    "duration": 0.2516145000000023
                },
                {
                    "name": "D#3",
                    "midi": 51,
                    "time": 118.25881500000041,
                    "velocity": 0.2204724409448819,
                    "duration": 0.2516145000000023
                },
                {
                    "name": "G#3",
                    "midi": 56,
                    "time": 118.51042950000041,
                    "velocity": 0.1889763779527559,
                    "duration": 0.2516145000000023
                },
                {
                    "name": "C3",
                    "midi": 48,
                    "time": 118.76204400000042,
                    "velocity": 0.2204724409448819,
                    "duration": 0.2516145000000023
                },
                {
                    "name": "G#3",
                    "midi": 56,
                    "time": 119.01365850000042,
                    "velocity": 0.1889763779527559,
                    "duration": 0.2516145000000023
                },
                {
                    "name": "C#3",
                    "midi": 49,
                    "time": 119.26527300000042,
                    "velocity": 0.31496062992125984,
                    "duration": 0.5032290000000046
                },
                {
                    "name": "D#3",
                    "midi": 51,
                    "time": 120.27173100000043,
                    "velocity": 0.28346456692913385,
                    "duration": 0.5032290000000046
                },
                {
                    "name": "G#3",
                    "midi": 56,
                    "time": 120.77496000000043,
                    "velocity": 0.31496062992125984,
                    "duration": 0.5032290000000046
                },
                {
                    "name": "G#2",
                    "midi": 44,
                    "time": 120.77496000000043,
                    "velocity": 0.25196850393700787,
                    "duration": 0.5032290000000046
                },
                {
                    "name": "C4",
                    "midi": 60,
                    "time": 122.78787600000044,
                    "velocity": 0.4409448818897638,
                    "duration": 0.5032290000000046
                },
                {
                    "name": "G#3",
                    "midi": 56,
                    "time": 122.78787600000044,
                    "velocity": 0.36220472440944884,
                    "duration": 0.5032290000000046
                },
                {
                    "name": "D#4",
                    "midi": 63,
                    "time": 124.29756300000044,
                    "velocity": 0.44881889763779526,
                    "duration": 0.5032290000000046
                },
                {
                    "name": "C4",
                    "midi": 60,
                    "time": 124.29756300000044,
                    "velocity": 0.3779527559055118,
                    "duration": 0.5032290000000046
                },
                {
                    "name": "F4",
                    "midi": 65,
                    "time": 124.80079200000044,
                    "velocity": 0.4015748031496063,
                    "duration": 0.12580724999999404
                },
                {
                    "name": "F4",
                    "midi": 65,
                    "time": 125.17821375000044,
                    "velocity": 0.33070866141732286,
                    "duration": 0.09435543749999908
                },
                {
                    "name": "F4",
                    "midi": 65,
                    "time": 125.30402100000043,
                    "velocity": 0.4015748031496063,
                    "duration": 0.5032290000000046
                },
                {
                    "name": "C#4",
                    "midi": 61,
                    "time": 125.80725000000044,
                    "velocity": 0.3779527559055118,
                    "duration": 0.12580724999999404
                },
                {
                    "name": "A#3",
                    "midi": 58,
                    "time": 126.31047900000043,
                    "velocity": 0.3464566929133858,
                    "duration": 0.12580724999999404
                },
                {
                    "name": "D#4",
                    "midi": 63,
                    "time": 126.81370800000042,
                    "velocity": 0.36220472440944884,
                    "duration": 0.9959740624999966
                },
                {
                    "name": "C#4",
                    "midi": 61,
                    "time": 127.82016600000041,
                    "velocity": 0.36220472440944884,
                    "duration": 0.5032289999999904
                },
                {
                    "name": "D#4",
                    "midi": 63,
                    "time": 128.3233950000004,
                    "velocity": 0.4094488188976378,
                    "duration": 0.12580725000000825
                },
                {
                    "name": "C4",
                    "midi": 60,
                    "time": 128.3233950000004,
                    "velocity": 0.3464566929133858,
                    "duration": 0.12580725000000825
                },
                {
                    "name": "A#3",
                    "midi": 58,
                    "time": 128.8266240000004,
                    "velocity": 0.2992125984251969,
                    "duration": 0.12580725000000825
                },
                {
                    "name": "C#4",
                    "midi": 61,
                    "time": 128.8266240000004,
                    "velocity": 0.36220472440944884,
                    "duration": 0.12580725000000825
                },
                {
                    "name": "G#3",
                    "midi": 56,
                    "time": 129.3298530000004,
                    "velocity": 0.2992125984251969,
                    "duration": 0.12580725000000825
                },
                {
                    "name": "C4",
                    "midi": 60,
                    "time": 129.3298530000004,
                    "velocity": 0.36220472440944884,
                    "duration": 0.12580725000000825
                },
                {
                    "name": "G3",
                    "midi": 55,
                    "time": 129.83308200000042,
                    "velocity": 0.31496062992125984,
                    "duration": 0.5032290000000046
                },
                {
                    "name": "A#3",
                    "midi": 58,
                    "time": 129.83308200000042,
                    "velocity": 0.3779527559055118,
                    "duration": 0.5032290000000046
                },
                {
                    "name": "G#3",
                    "midi": 56,
                    "time": 130.33631100000042,
                    "velocity": 0.3543307086614173,
                    "duration": 0.12580725000000825
                },
                {
                    "name": "F3",
                    "midi": 53,
                    "time": 130.33631100000042,
                    "velocity": 0.29133858267716534,
                    "duration": 0.12580725000000825
                },
                {
                    "name": "G3",
                    "midi": 55,
                    "time": 130.83954000000043,
                    "velocity": 0.3543307086614173,
                    "duration": 0.12580725000000825
                },
                {
                    "name": "D#3",
                    "midi": 51,
                    "time": 130.83954000000043,
                    "velocity": 0.29133858267716534,
                    "duration": 0.12580725000000825
                },
                {
                    "name": "G#3",
                    "midi": 56,
                    "time": 131.34276900000043,
                    "velocity": 0.4094488188976378,
                    "duration": 0.12580725000000825
                },
                {
                    "name": "F3",
                    "midi": 53,
                    "time": 131.84599800000044,
                    "velocity": 0.36220472440944884,
                    "duration": 0.12580725000000825
                },
                {
                    "name": "A#3",
                    "midi": 58,
                    "time": 132.34922700000044,
                    "velocity": 0.4409448818897638,
                    "duration": 0.12580725000000825
                },
                {
                    "name": "D#3",
                    "midi": 51,
                    "time": 132.85245600000044,
                    "velocity": 0.47244094488188976,
                    "duration": 0.5032290000000046
                },
                {
                    "name": "A4",
                    "midi": 69,
                    "time": 135.36860100000044,
                    "velocity": 0.2992125984251969,
                    "duration": 0.5032290000000046
                },
                {
                    "name": "D#5",
                    "midi": 75,
                    "time": 135.36860100000044,
                    "velocity": 0.36220472440944884,
                    "duration": 1.0064580000000092
                },
                {
                    "name": "A#4",
                    "midi": 70,
                    "time": 135.87183000000044,
                    "velocity": 0.3937007874015748,
                    "duration": 1.0064580000000092
                },
                {
                    "name": "D5",
                    "midi": 74,
                    "time": 136.37505900000045,
                    "velocity": 0.36220472440944884,
                    "duration": 0.37742174999999634
                },
                {
                    "name": "G4",
                    "midi": 67,
                    "time": 136.87828800000045,
                    "velocity": 0.2992125984251969,
                    "duration": 0.5032290000000046
                },
                {
                    "name": "C#5",
                    "midi": 73,
                    "time": 136.87828800000045,
                    "velocity": 0.36220472440944884,
                    "duration": 1.0064580000000092
                },
                {
                    "name": "G#4",
                    "midi": 68,
                    "time": 137.38151700000046,
                    "velocity": 0.3937007874015748,
                    "duration": 1.0064580000000092
                },
                {
                    "name": "C5",
                    "midi": 72,
                    "time": 137.88474600000046,
                    "velocity": 0.36220472440944884,
                    "duration": 0.37742174999999634
                },
                {
                    "name": "F4",
                    "midi": 65,
                    "time": 138.89120400000047,
                    "velocity": 0.2992125984251969,
                    "duration": 1.5096870000000138
                },
                {
                    "name": "G#4",
                    "midi": 68,
                    "time": 138.89120400000047,
                    "velocity": 0.36220472440944884,
                    "duration": 1.5096870000000138
                },
                {
                    "name": "D#4",
                    "midi": 63,
                    "time": 140.40089100000048,
                    "velocity": 0.2992125984251969,
                    "duration": 0.12580725000000825
                },
                {
                    "name": "G4",
                    "midi": 67,
                    "time": 140.40089100000048,
                    "velocity": 0.36220472440944884,
                    "duration": 0.12580725000000825
                },
                {
                    "name": "A#3",
                    "midi": 58,
                    "time": 141.4073490000005,
                    "velocity": 0.2992125984251969,
                    "duration": 0.5032290000000046
                },
                {
                    "name": "D4",
                    "midi": 62,
                    "time": 141.4073490000005,
                    "velocity": 0.2992125984251969,
                    "duration": 0.5032290000000046
                },
                {
                    "name": "G#4",
                    "midi": 68,
                    "time": 141.4073490000005,
                    "velocity": 0.36220472440944884,
                    "duration": 0.5032290000000046
                },
                {
                    "name": "D#4",
                    "midi": 63,
                    "time": 141.9105780000005,
                    "velocity": 0.2992125984251969,
                    "duration": 0.12580725000000825
                },
                {
                    "name": "G4",
                    "midi": 67,
                    "time": 141.9105780000005,
                    "velocity": 0.36220472440944884,
                    "duration": 0.12580725000000825
                },
                {
                    "name": "A#3",
                    "midi": 58,
                    "time": 142.9170360000005,
                    "velocity": 0.2992125984251969,
                    "duration": 0.5032290000000046
                },
                {
                    "name": "D4",
                    "midi": 62,
                    "time": 142.9170360000005,
                    "velocity": 0.2992125984251969,
                    "duration": 0.5032290000000046
                },
                {
                    "name": "G#4",
                    "midi": 68,
                    "time": 142.9170360000005,
                    "velocity": 0.36220472440944884,
                    "duration": 0.5032290000000046
                },
                {
                    "name": "D#4",
                    "midi": 63,
                    "time": 143.4202650000005,
                    "velocity": 0.2992125984251969,
                    "duration": 0.12580725000000825
                },
                {
                    "name": "G4",
                    "midi": 67,
                    "time": 143.4202650000005,
                    "velocity": 0.36220472440944884,
                    "duration": 0.12580725000000825
                },
                {
                    "name": "A#3",
                    "midi": 58,
                    "time": 144.42672300000052,
                    "velocity": 0.23622047244094488,
                    "duration": 0.5032290000000046
                },
                {
                    "name": "D4",
                    "midi": 62,
                    "time": 144.42672300000052,
                    "velocity": 0.23622047244094488,
                    "duration": 0.5032290000000046
                },
                {
                    "name": "G#4",
                    "midi": 68,
                    "time": 144.42672300000052,
                    "velocity": 0.28346456692913385,
                    "duration": 0.5032290000000046
                },
                {
                    "name": "D#4",
                    "midi": 63,
                    "time": 144.92995200000053,
                    "velocity": 0.23622047244094488,
                    "duration": 0.5032290000000046
                },
                {
                    "name": "G4",
                    "midi": 67,
                    "time": 144.92995200000053,
                    "velocity": 0.28346456692913385,
                    "duration": 0.5032290000000046
                },
                {
                    "name": "G#2",
                    "midi": 44,
                    "time": 146.94286800000054,
                    "velocity": 0.4566929133858268,
                    "duration": 0.5032290000000046
                },
                {
                    "name": "G#3",
                    "midi": 56,
                    "time": 146.94286800000054,
                    "velocity": 0.5433070866141733,
                    "duration": 0.5032290000000046
                },
                {
                    "name": "D#4",
                    "midi": 63,
                    "time": 148.95578400000056,
                    "velocity": 0.33070866141732286,
                    "duration": 0.12580725000000825
                },
                {
                    "name": "F#4",
                    "midi": 66,
                    "time": 148.95578400000056,
                    "velocity": 0.4015748031496063,
                    "duration": 0.12580725000000825
                },
                {
                    "name": "D#4",
                    "midi": 63,
                    "time": 149.33320575000056,
                    "velocity": 0.28346456692913385,
                    "duration": 0.0943554375000133
                },
                {
                    "name": "F#4",
                    "midi": 66,
                    "time": 149.33320575000056,
                    "velocity": 0.33070866141732286,
                    "duration": 0.0943554375000133
                },
                {
                    "name": "D#4",
                    "midi": 63,
                    "time": 149.45901300000057,
                    "velocity": 0.33070866141732286,
                    "duration": 0.5032290000000046
                },
                {
                    "name": "F#4",
                    "midi": 66,
                    "time": 149.45901300000057,
                    "velocity": 0.4015748031496063,
                    "duration": 0.5032290000000046
                },
                {
                    "name": "C#4",
                    "midi": 61,
                    "time": 149.96224200000057,
                    "velocity": 0.31496062992125984,
                    "duration": 0.12580725000000825
                },
                {
                    "name": "F4",
                    "midi": 65,
                    "time": 149.96224200000057,
                    "velocity": 0.3779527559055118,
                    "duration": 0.12580725000000825
                },
                {
                    "name": "C#4",
                    "midi": 61,
                    "time": 150.46547100000058,
                    "velocity": 0.33070866141732286,
                    "duration": 0.12580725000000825
                },
                {
                    "name": "D#4",
                    "midi": 63,
                    "time": 150.46547100000058,
                    "velocity": 0.4015748031496063,
                    "duration": 0.12580725000000825
                },
                {
                    "name": "C#4",
                    "midi": 61,
                    "time": 150.84289275000057,
                    "velocity": 0.28346456692913385,
                    "duration": 0.0943554375000133
                },
                {
                    "name": "D#4",
                    "midi": 63,
                    "time": 150.84289275000057,
                    "velocity": 0.33070866141732286,
                    "duration": 0.0943554375000133
                },
                {
                    "name": "C#4",
                    "midi": 61,
                    "time": 150.96870000000058,
                    "velocity": 0.33070866141732286,
                    "duration": 0.5032290000000046
                },
                {
                    "name": "D#4",
                    "midi": 63,
                    "time": 150.96870000000058,
                    "velocity": 0.4015748031496063,
                    "duration": 0.6290362500000128
                },
                {
                    "name": "C4",
                    "midi": 60,
                    "time": 151.47192900000059,
                    "velocity": 0.31496062992125984,
                    "duration": 0.12580725000000825
                },
                {
                    "name": "D#3",
                    "midi": 51,
                    "time": 153.4848450000006,
                    "velocity": 0.3700787401574803,
                    "duration": 0.12580725000000825
                },
                {
                    "name": "A#3",
                    "midi": 58,
                    "time": 153.4848450000006,
                    "velocity": 0.4409448818897638,
                    "duration": 0.12580725000000825
                },
                {
                    "name": "G#2",
                    "midi": 44,
                    "time": 153.9880740000006,
                    "velocity": 0.3937007874015748,
                    "duration": 0.5032290000000046
                },
                {
                    "name": "G#3",
                    "midi": 56,
                    "time": 153.9880740000006,
                    "velocity": 0.47244094488188976,
                    "duration": 0.5032290000000046
                }
            ],
            "controlChanges": {},
            "id": 2,
            "name": "Piano left",
            "instrumentNumber": 0,
            "instrument": "acoustic grand piano",
            "instrumentFamily": "piano",
            "channelNumber": 0,
            "isPercussion": false
        },
        {
            "startTime": 0,
            "duration": 0,
            "length": 0,
            "notes": [],
            "controlChanges": {
                "64": [
                    {
                        "number": 64,
                        "time": 27.196382268750003,
                        "value": 1
                    },
                    {
                        "number": 64,
                        "time": 27.701708056250002,
                        "value": 0
                    },
                    {
                        "number": 64,
                        "time": 28.787843981250003,
                        "value": 1
                    },
                    {
                        "number": 64,
                        "time": 29.206153087500002,
                        "value": 0
                    },
                    {
                        "number": 64,
                        "time": 30.290192225000002,
                        "value": 1
                    },
                    {
                        "number": 64,
                        "time": 30.7137433,
                        "value": 0
                    },
                    {
                        "number": 64,
                        "time": 30.98527728125,
                        "value": 1
                    },
                    {
                        "number": 64,
                        "time": 31.21802069375,
                        "value": 0
                    },
                    {
                        "number": 64,
                        "time": 31.511570943749998,
                        "value": 1
                    },
                    {
                        "number": 64,
                        "time": 31.71181415,
                        "value": 0
                    },
                    {
                        "number": 64,
                        "time": 32.806337225,
                        "value": 1
                    },
                    {
                        "number": 64,
                        "time": 33.22254954375,
                        "value": 0
                    },
                    {
                        "number": 64,
                        "time": 34.34537925,
                        "value": 1
                    },
                    {
                        "number": 64,
                        "time": 34.73643011875,
                        "value": 0
                    },
                    {
                        "number": 64,
                        "time": 35.85506625,
                        "value": 1
                    },
                    {
                        "number": 64,
                        "time": 36.2513590875,
                        "value": 0
                    },
                    {
                        "number": 64,
                        "time": 37.21692973125,
                        "value": 1
                    },
                    {
                        "number": 64,
                        "time": 38.245404,
                        "value": 0
                    },
                    {
                        "number": 64,
                        "time": 38.87444025,
                        "value": 1
                    },
                    {
                        "number": 64,
                        "time": 39.77920405625,
                        "value": 0
                    },
                    {
                        "number": 64,
                        "time": 48.33200026875,
                        "value": 1
                    },
                    {
                        "number": 64,
                        "time": 48.83732605625,
                        "value": 0
                    },
                    {
                        "number": 64,
                        "time": 49.92346198125,
                        "value": 1
                    },
                    {
                        "number": 64,
                        "time": 50.3417710875,
                        "value": 0
                    },
                    {
                        "number": 64,
                        "time": 51.425810225,
                        "value": 1
                    },
                    {
                        "number": 64,
                        "time": 51.8493613,
                        "value": 0
                    },
                    {
                        "number": 64,
                        "time": 52.12089528125,
                        "value": 1
                    },
                    {
                        "number": 64,
                        "time": 52.35363869375,
                        "value": 0
                    },
                    {
                        "number": 64,
                        "time": 52.64718894375,
                        "value": 1
                    },
                    {
                        "number": 64,
                        "time": 52.84743215,
                        "value": 0
                    },
                    {
                        "number": 64,
                        "time": 53.941955225,
                        "value": 1
                    },
                    {
                        "number": 64,
                        "time": 54.35816754375,
                        "value": 0
                    },
                    {
                        "number": 64,
                        "time": 55.48099725,
                        "value": 1
                    },
                    {
                        "number": 64,
                        "time": 55.87204811875,
                        "value": 0
                    },
                    {
                        "number": 64,
                        "time": 56.99068425,
                        "value": 1
                    },
                    {
                        "number": 64,
                        "time": 57.3869770875,
                        "value": 0
                    },
                    {
                        "number": 64,
                        "time": 58.35254773125,
                        "value": 1
                    },
                    {
                        "number": 64,
                        "time": 59.381022,
                        "value": 0
                    },
                    {
                        "number": 64,
                        "time": 60.0247357625,
                        "value": 1
                    },
                    {
                        "number": 64,
                        "time": 60.91482205625,
                        "value": 0
                    },
                    {
                        "number": 64,
                        "time": 69.1205999375,
                        "value": 1
                    },
                    {
                        "number": 64,
                        "time": 69.44560200000001,
                        "value": 0
                    },
                    {
                        "number": 64,
                        "time": 69.63850645000001,
                        "value": 1
                    },
                    {
                        "number": 64,
                        "time": 70.4709310875,
                        "value": 0
                    },
                    {
                        "number": 64,
                        "time": 72.1399739375,
                        "value": 1
                    },
                    {
                        "number": 64,
                        "time": 72.46497600000001,
                        "value": 0
                    },
                    {
                        "number": 64,
                        "time": 72.65788045000001,
                        "value": 1
                    },
                    {
                        "number": 64,
                        "time": 73.4861115125,
                        "value": 0
                    },
                    {
                        "number": 64,
                        "time": 73.4903050875,
                        "value": 0
                    },
                    {
                        "number": 64,
                        "time": 75.67725445,
                        "value": 1
                    },
                    {
                        "number": 64,
                        "time": 76.5054855125,
                        "value": 0
                    },
                    {
                        "number": 64,
                        "time": 76.5096790875,
                        "value": 0
                    },
                    {
                        "number": 64,
                        "time": 81.1980959375,
                        "value": 1
                    },
                    {
                        "number": 64,
                        "time": 81.523098,
                        "value": 0
                    },
                    {
                        "number": 64,
                        "time": 81.71600245,
                        "value": 1
                    },
                    {
                        "number": 64,
                        "time": 82.5484270875,
                        "value": 0
                    },
                    {
                        "number": 64,
                        "time": 84.2174699375,
                        "value": 1
                    },
                    {
                        "number": 64,
                        "time": 84.542472,
                        "value": 0
                    },
                    {
                        "number": 64,
                        "time": 84.73537645,
                        "value": 1
                    },
                    {
                        "number": 64,
                        "time": 85.5636075125,
                        "value": 0
                    },
                    {
                        "number": 64,
                        "time": 85.5678010875,
                        "value": 0
                    },
                    {
                        "number": 64,
                        "time": 87.75475045,
                        "value": 1
                    },
                    {
                        "number": 64,
                        "time": 88.5829815125,
                        "value": 0
                    },
                    {
                        "number": 64,
                        "time": 88.5871750875,
                        "value": 0
                    },
                    {
                        "number": 64,
                        "time": 91.6023555125,
                        "value": 0
                    },
                    {
                        "number": 64,
                        "time": 91.6065490875,
                        "value": 0
                    },
                    {
                        "number": 64,
                        "time": 94.6217295125,
                        "value": 0
                    },
                    {
                        "number": 64,
                        "time": 94.6259230875,
                        "value": 0
                    },
                    {
                        "number": 64,
                        "time": 99.3143399375,
                        "value": 1
                    },
                    {
                        "number": 64,
                        "time": 99.639342,
                        "value": 0
                    },
                    {
                        "number": 64,
                        "time": 99.83224645,
                        "value": 1
                    },
                    {
                        "number": 64,
                        "time": 100.6646710875,
                        "value": 0
                    },
                    {
                        "number": 64,
                        "time": 102.3337139375,
                        "value": 1
                    },
                    {
                        "number": 64,
                        "time": 102.658716,
                        "value": 0
                    },
                    {
                        "number": 64,
                        "time": 102.85162045,
                        "value": 1
                    },
                    {
                        "number": 64,
                        "time": 102.85162045,
                        "value": 1
                    },
                    {
                        "number": 64,
                        "time": 103.6798515125,
                        "value": 0
                    },
                    {
                        "number": 64,
                        "time": 103.6840450875,
                        "value": 0
                    },
                    {
                        "number": 64,
                        "time": 106.69922551249999,
                        "value": 0
                    },
                    {
                        "number": 64,
                        "time": 106.7034190875,
                        "value": 0
                    },
                    {
                        "number": 64,
                        "time": 109.71859951249999,
                        "value": 0
                    },
                    {
                        "number": 64,
                        "time": 109.7227930875,
                        "value": 0
                    },
                    {
                        "number": 64,
                        "time": 114.41120993749999,
                        "value": 1
                    },
                    {
                        "number": 64,
                        "time": 114.736212,
                        "value": 0
                    },
                    {
                        "number": 64,
                        "time": 114.92911645,
                        "value": 1
                    },
                    {
                        "number": 64,
                        "time": 115.76154108749999,
                        "value": 0
                    },
                    {
                        "number": 64,
                        "time": 117.43058393749999,
                        "value": 1
                    },
                    {
                        "number": 64,
                        "time": 117.755586,
                        "value": 0
                    },
                    {
                        "number": 64,
                        "time": 117.94849045,
                        "value": 1
                    },
                    {
                        "number": 64,
                        "time": 117.94849045,
                        "value": 1
                    },
                    {
                        "number": 64,
                        "time": 118.77672151249999,
                        "value": 0
                    },
                    {
                        "number": 64,
                        "time": 118.78091508749999,
                        "value": 0
                    },
                    {
                        "number": 64,
                        "time": 135.89384626875,
                        "value": 1
                    },
                    {
                        "number": 64,
                        "time": 136.39917205625,
                        "value": 0
                    },
                    {
                        "number": 64,
                        "time": 137.48530798125,
                        "value": 1
                    },
                    {
                        "number": 64,
                        "time": 137.9036170875,
                        "value": 0
                    },
                    {
                        "number": 64,
                        "time": 138.98765622500002,
                        "value": 1
                    },
                    {
                        "number": 64,
                        "time": 139.41120730000003,
                        "value": 0
                    },
                    {
                        "number": 64,
                        "time": 139.68274128125003,
                        "value": 1
                    },
                    {
                        "number": 64,
                        "time": 139.91548469375005,
                        "value": 0
                    },
                    {
                        "number": 64,
                        "time": 140.20903494375005,
                        "value": 1
                    },
                    {
                        "number": 64,
                        "time": 140.40927815000006,
                        "value": 0
                    },
                    {
                        "number": 64,
                        "time": 141.50380122500007,
                        "value": 1
                    },
                    {
                        "number": 64,
                        "time": 141.9200135437501,
                        "value": 0
                    },
                    {
                        "number": 64,
                        "time": 143.0428432500001,
                        "value": 1
                    },
                    {
                        "number": 64,
                        "time": 143.4338941187501,
                        "value": 0
                    },
                    {
                        "number": 64,
                        "time": 144.5525302500001,
                        "value": 1
                    },
                    {
                        "number": 64,
                        "time": 144.9488230875001,
                        "value": 0
                    },
                    {
                        "number": 64,
                        "time": 145.9143937312501,
                        "value": 1
                    },
                    {
                        "number": 64,
                        "time": 146.9428680000001,
                        "value": 0
                    },
                    {
                        "number": 64,
                        "time": 147.5719042500001,
                        "value": 1
                    },
                    {
                        "number": 64,
                        "time": 148.4766680562501,
                        "value": 0
                    }
                ]
            },
            "id": 3,
            "name": "Pedale",
            "instrumentNumber": 0,
            "instrument": "acoustic grand piano",
            "instrumentFamily": "piano",
            "channelNumber": 0,
            "isPercussion": false
        },
        {
            "startTime": 0,
            "duration": 0,
            "length": 0,
            "notes": [],
            "controlChanges": {},
            "id": 4,
            "name": "Haydn: Sonata Hoboken XVI:43 2. movement"
        },
        {
            "startTime": 0,
            "duration": 0,
            "length": 0,
            "notes": [],
            "controlChanges": {},
            "id": 5,
            "name": "Copyright  2010 by Bernd Krueger"
        },
        {
            "startTime": 0,
            "duration": 0,
            "length": 0,
            "notes": [],
            "controlChanges": {},
            "id": 6,
            "name": "http://www.piano-midi.de/"
        },
        {
            "startTime": 0,
            "duration": 0,
            "length": 0,
            "notes": [],
            "controlChanges": {},
            "id": 7,
            "name": "Edition: 2012-01-13"
        },
        {
            "startTime": 0,
            "duration": 0,
            "length": 0,
            "notes": [],
            "controlChanges": {},
            "id": 8,
            "name": "Spur 8"
        },
        {
            "startTime": 0,
            "duration": 0,
            "length": 0,
            "notes": [],
            "controlChanges": {},
            "id": 9,
            "name": "Spur 9"
        },
        {
            "startTime": 0,
            "duration": 0,
            "length": 0,
            "notes": [],
            "controlChanges": {},
            "id": 10,
            "name": "Spur 10"
        },
        {
            "startTime": 0,
            "duration": 0,
            "length": 0,
            "notes": [],
            "controlChanges": {},
            "id": 11,
            "name": "Spur 11"
        },
        {
            "startTime": 0,
            "duration": 0,
            "length": 0,
            "notes": [],
            "controlChanges": {},
            "id": 12,
            "name": "Spur 12"
        },
        {
            "startTime": 0,
            "duration": 0,
            "length": 0,
            "notes": [],
            "controlChanges": {},
            "id": 13,
            "name": "Spur 13"
        },
        {
            "startTime": 0,
            "duration": 0,
            "length": 0,
            "notes": [],
            "controlChanges": {},
            "id": 14,
            "name": "Spur 14"
        },
        {
            "startTime": 0,
            "duration": 0,
            "length": 0,
            "notes": [],
            "controlChanges": {},
            "id": 15,
            "name": "Spur 15"
        },
        {
            "startTime": 0,
            "duration": 0,
            "length": 0,
            "notes": [],
            "controlChanges": {},
            "id": 16,
            "name": "Spur 16"
        }
    ]
}