{
    "header": {
        "PPQ": 480,
        "timeSignature": [
            4,
            4
        ],
        "bpm": 74.66001694782385,
        "name": "Klaviersonate Nr. 12 KV 332 2. Satz"
    },
    "startTime": 0,
    "duration": 256.36211700000126,
    "tracks": [
        {
            "startTime": 0,
            "duration": 0,
            "length": 0,
            "notes": [],
            "controlChanges": {},
            "id": 0,
            "name": "Klaviersonate Nr. 12 KV 332 2. Satz"
        },
        {
            "startTime": 0,
            "duration": 256.36211700000047,
            "length": 732,
            "notes": [
                {
                    "name": "A#4",
                    "midi": 70,
                    "time": 0,
                    "velocity": 0.3937007874015748,
                    "duration": 1.607286
                },
                {
                    "name": "D5",
                    "midi": 74,
                    "time": 1.607286,
                    "velocity": 0.3937007874015748,
                    "duration": 0.40182149999999983
                },
                {
                    "name": "D#5",
                    "midi": 75,
                    "time": 2.0091075,
                    "velocity": 0.36220472440944884,
                    "duration": 0.13394050000000002
                },
                {
                    "name": "D5",
                    "midi": 74,
                    "time": 2.143048,
                    "velocity": 0.3228346456692913,
                    "duration": 0.13394050000000002
                },
                {
                    "name": "C5",
                    "midi": 72,
                    "time": 2.2769885,
                    "velocity": 0.33070866141732286,
                    "duration": 0.13394050000000002
                },
                {
                    "name": "D5",
                    "midi": 74,
                    "time": 2.410929,
                    "velocity": 0.3937007874015748,
                    "duration": 0.40182150000000005
                },
                {
                    "name": "D#5",
                    "midi": 75,
                    "time": 2.8127505,
                    "velocity": 0.3937007874015748,
                    "duration": 0.40182150000000005
                },
                {
                    "name": "E5",
                    "midi": 76,
                    "time": 3.214572,
                    "velocity": 0.4330708661417323,
                    "duration": 1.2054645000000002
                },
                {
                    "name": "F5",
                    "midi": 77,
                    "time": 4.4200365,
                    "velocity": 0.3858267716535433,
                    "duration": 0.4018214999999996
                },
                {
                    "name": "C5",
                    "midi": 72,
                    "time": 4.821858,
                    "velocity": 0.33070866141732286,
                    "duration": 0.4018214999999996
                },
                {
                    "name": "D#5",
                    "midi": 75,
                    "time": 6.429143999999999,
                    "velocity": 0.3937007874015748,
                    "duration": 0.4018214999999996
                },
                {
                    "name": "F5",
                    "midi": 77,
                    "time": 6.830965499999999,
                    "velocity": 0.36220472440944884,
                    "duration": 0.13394049999999957
                },
                {
                    "name": "D#5",
                    "midi": 75,
                    "time": 6.964905999999998,
                    "velocity": 0.33070866141732286,
                    "duration": 0.13394049999999957
                },
                {
                    "name": "D5",
                    "midi": 74,
                    "time": 7.098846499999998,
                    "velocity": 0.3464566929133858,
                    "duration": 0.13394049999999957
                },
                {
                    "name": "D#5",
                    "midi": 75,
                    "time": 7.232786999999997,
                    "velocity": 0.3937007874015748,
                    "duration": 0.4018214999999996
                },
                {
                    "name": "F5",
                    "midi": 77,
                    "time": 7.634608499999997,
                    "velocity": 0.3937007874015748,
                    "duration": 0.4018215000000005
                },
                {
                    "name": "G5",
                    "midi": 79,
                    "time": 8.036429999999998,
                    "velocity": 0.4094488188976378,
                    "duration": 0.4018215000000005
                },
                {
                    "name": "A5",
                    "midi": 81,
                    "time": 8.438251499999998,
                    "velocity": 0.3858267716535433,
                    "duration": 0.13394049999999957
                },
                {
                    "name": "G5",
                    "midi": 79,
                    "time": 8.572191999999998,
                    "velocity": 0.3858267716535433,
                    "duration": 0.13394049999999957
                },
                {
                    "name": "F5",
                    "midi": 77,
                    "time": 8.706132499999997,
                    "velocity": 0.3858267716535433,
                    "duration": 0.13394049999999957
                },
                {
                    "name": "G5",
                    "midi": 79,
                    "time": 8.840072999999997,
                    "velocity": 0.44881889763779526,
                    "duration": 0.4018215000000005
                },
                {
                    "name": "A5",
                    "midi": 81,
                    "time": 9.241894499999997,
                    "velocity": 0.4645669291338583,
                    "duration": 0.3917759625000006
                },
                {
                    "name": "A5",
                    "midi": 81,
                    "time": 9.643715999999998,
                    "velocity": 0.5354330708661418,
                    "duration": 1.2054644999999997
                },
                {
                    "name": "A#5",
                    "midi": 82,
                    "time": 10.849180499999997,
                    "velocity": 0.4251968503937008,
                    "duration": 0.4018215000000005
                },
                {
                    "name": "F5",
                    "midi": 77,
                    "time": 11.251001999999998,
                    "velocity": 0.4251968503937008,
                    "duration": 0.4018215000000005
                },
                {
                    "name": "G5",
                    "midi": 79,
                    "time": 12.858287999999998,
                    "velocity": 0.4645669291338583,
                    "duration": 1.2054644999999997
                },
                {
                    "name": "G#5",
                    "midi": 80,
                    "time": 14.063752499999998,
                    "velocity": 0.3937007874015748,
                    "duration": 0.20091075000000025
                },
                {
                    "name": "G5",
                    "midi": 79,
                    "time": 14.264663249999998,
                    "velocity": 0.3937007874015748,
                    "duration": 0.20091075000000025
                },
                {
                    "name": "F5",
                    "midi": 77,
                    "time": 14.465573999999998,
                    "velocity": 0.4330708661417323,
                    "duration": 0.4018215000000005
                },
                {
                    "name": "D#5",
                    "midi": 75,
                    "time": 14.867395499999999,
                    "velocity": 0.4094488188976378,
                    "duration": 0.4018215000000005
                },
                {
                    "name": "D5",
                    "midi": 74,
                    "time": 15.269217,
                    "velocity": 0.3779527559055118,
                    "duration": 0.4018215000000005
                },
                {
                    "name": "C5",
                    "midi": 72,
                    "time": 15.6710385,
                    "velocity": 0.3779527559055118,
                    "duration": 0.4018214999999987
                },
                {
                    "name": "E5",
                    "midi": 76,
                    "time": 16.07286,
                    "velocity": 0.4566929133858268,
                    "duration": 0.4018215000000005
                },
                {
                    "name": "F5",
                    "midi": 77,
                    "time": 16.4746815,
                    "velocity": 0.4015748031496063,
                    "duration": 0.803643000000001
                },
                {
                    "name": "G5",
                    "midi": 79,
                    "time": 17.2783245,
                    "velocity": 0.4330708661417323,
                    "duration": 0.20091074999999847
                },
                {
                    "name": "F5",
                    "midi": 77,
                    "time": 17.47923525,
                    "velocity": 0.4094488188976378,
                    "duration": 0.20091074999999847
                },
                {
                    "name": "D#5",
                    "midi": 75,
                    "time": 17.680145999999997,
                    "velocity": 0.4251968503937008,
                    "duration": 0.4018215000000005
                },
                {
                    "name": "D5",
                    "midi": 74,
                    "time": 18.081967499999998,
                    "velocity": 0.4330708661417323,
                    "duration": 0.3214572000000011
                },
                {
                    "name": "C5",
                    "midi": 72,
                    "time": 18.483788999999998,
                    "velocity": 0.4409448818897638,
                    "duration": 0.3214572000000011
                },
                {
                    "name": "A#4",
                    "midi": 70,
                    "time": 18.8856105,
                    "velocity": 0.4645669291338583,
                    "duration": 0.3214572000000011
                },
                {
                    "name": "F5",
                    "midi": 77,
                    "time": 19.287432,
                    "velocity": 0.5196850393700787,
                    "duration": 0.4018215000000005
                },
                {
                    "name": "D#5",
                    "midi": 75,
                    "time": 19.6892535,
                    "velocity": 0.4251968503937008,
                    "duration": 0.803643000000001
                },
                {
                    "name": "C5",
                    "midi": 72,
                    "time": 20.4928965,
                    "velocity": 0.4015748031496063,
                    "duration": 0.4018215000000005
                },
                {
                    "name": "D#5",
                    "midi": 75,
                    "time": 20.894718,
                    "velocity": 0.5118110236220472,
                    "duration": 0.4018215000000005
                },
                {
                    "name": "D5",
                    "midi": 74,
                    "time": 21.2965395,
                    "velocity": 0.4251968503937008,
                    "duration": 0.803643000000001
                },
                {
                    "name": "A#4",
                    "midi": 70,
                    "time": 22.100182500000003,
                    "velocity": 0.4251968503937008,
                    "duration": 0.4018215000000005
                },
                {
                    "name": "D5",
                    "midi": 74,
                    "time": 22.502004000000003,
                    "velocity": 0.4645669291338583,
                    "duration": 1.2054645000000015
                },
                {
                    "name": "D#5",
                    "midi": 75,
                    "time": 23.707468500000004,
                    "velocity": 0.33858267716535434,
                    "duration": 0.20091074999999847
                },
                {
                    "name": "D5",
                    "midi": 74,
                    "time": 23.908379250000003,
                    "velocity": 0.33858267716535434,
                    "duration": 0.20091074999999847
                },
                {
                    "name": "C5",
                    "midi": 72,
                    "time": 24.10929,
                    "velocity": 0.3937007874015748,
                    "duration": 0.4018215000000005
                },
                {
                    "name": "F5",
                    "midi": 77,
                    "time": 24.511111500000002,
                    "velocity": 0.41732283464566927,
                    "duration": 0.4018215000000005
                },
                {
                    "name": "D#5",
                    "midi": 75,
                    "time": 24.912933000000002,
                    "velocity": 0.3858267716535433,
                    "duration": 0.4018215000000005
                },
                {
                    "name": "C5",
                    "midi": 72,
                    "time": 25.314754500000003,
                    "velocity": 0.3700787401574803,
                    "duration": 0.4018215000000005
                },
                {
                    "name": "A#4",
                    "midi": 70,
                    "time": 25.716576000000003,
                    "velocity": 0.3937007874015748,
                    "duration": 0.4018215000000005
                },
                {
                    "name": "C5",
                    "midi": 72,
                    "time": 26.118397500000004,
                    "velocity": 0.33858267716535434,
                    "duration": 0.13394050000000135
                },
                {
                    "name": "A#4",
                    "midi": 70,
                    "time": 26.252338000000005,
                    "velocity": 0.2992125984251969,
                    "duration": 0.13394050000000135
                },
                {
                    "name": "A4",
                    "midi": 69,
                    "time": 26.386278500000007,
                    "velocity": 0.2992125984251969,
                    "duration": 0.13394050000000135
                },
                {
                    "name": "A#4",
                    "midi": 70,
                    "time": 26.520219000000008,
                    "velocity": 0.3543307086614173,
                    "duration": 0.4018215000000005
                },
                {
                    "name": "C5",
                    "midi": 72,
                    "time": 26.92204050000001,
                    "velocity": 0.3937007874015748,
                    "duration": 0.4018215000000005
                },
                {
                    "name": "C#5",
                    "midi": 73,
                    "time": 27.32386200000001,
                    "velocity": 0.3937007874015748,
                    "duration": 0.4018215000000005
                },
                {
                    "name": "D#5",
                    "midi": 75,
                    "time": 27.72568350000001,
                    "velocity": 0.3464566929133858,
                    "duration": 0.13394050000000135
                },
                {
                    "name": "C#5",
                    "midi": 73,
                    "time": 27.85962400000001,
                    "velocity": 0.31496062992125984,
                    "duration": 0.13394050000000135
                },
                {
                    "name": "C5",
                    "midi": 72,
                    "time": 27.993564500000012,
                    "velocity": 0.3228346456692913,
                    "duration": 0.13394050000000135
                },
                {
                    "name": "C#5",
                    "midi": 73,
                    "time": 28.127505000000014,
                    "velocity": 0.3937007874015748,
                    "duration": 0.4018215000000005
                },
                {
                    "name": "D#5",
                    "midi": 75,
                    "time": 28.529326500000014,
                    "velocity": 0.3937007874015748,
                    "duration": 0.4018215000000005
                },
                {
                    "name": "E5",
                    "midi": 76,
                    "time": 28.931148000000015,
                    "velocity": 0.4330708661417323,
                    "duration": 1.2054645000000015
                },
                {
                    "name": "F5",
                    "midi": 77,
                    "time": 30.136612500000016,
                    "velocity": 0.3858267716535433,
                    "duration": 0.4018215000000005
                },
                {
                    "name": "C5",
                    "midi": 72,
                    "time": 30.538434000000017,
                    "velocity": 0.3858267716535433,
                    "duration": 0.4018215000000005
                },
                {
                    "name": "D#5",
                    "midi": 75,
                    "time": 32.14572000000002,
                    "velocity": 0.4330708661417323,
                    "duration": 0.40182149999999695
                },
                {
                    "name": "F5",
                    "midi": 77,
                    "time": 32.547541500000015,
                    "velocity": 0.3858267716535433,
                    "duration": 0.13394050000000135
                },
                {
                    "name": "D#5",
                    "midi": 75,
                    "time": 32.68148200000002,
                    "velocity": 0.3464566929133858,
                    "duration": 0.13394050000000135
                },
                {
                    "name": "D5",
                    "midi": 74,
                    "time": 32.81542250000002,
                    "velocity": 0.3464566929133858,
                    "duration": 0.13394050000000135
                },
                {
                    "name": "D#5",
                    "midi": 75,
                    "time": 32.94936300000002,
                    "velocity": 0.4645669291338583,
                    "duration": 0.40182149999999695
                },
                {
                    "name": "F5",
                    "midi": 77,
                    "time": 33.351184500000016,
                    "velocity": 0.41732283464566927,
                    "duration": 0.40182149999999695
                },
                {
                    "name": "F#5",
                    "midi": 78,
                    "time": 33.75300600000001,
                    "velocity": 0.4409448818897638,
                    "duration": 0.40182149999999695
                },
                {
                    "name": "G#5",
                    "midi": 80,
                    "time": 34.15482750000001,
                    "velocity": 0.4330708661417323,
                    "duration": 0.13394050000000135
                },
                {
                    "name": "F#5",
                    "midi": 78,
                    "time": 34.28876800000001,
                    "velocity": 0.4409448818897638,
                    "duration": 0.13394050000000135
                },
                {
                    "name": "F5",
                    "midi": 77,
                    "time": 34.42270850000001,
                    "velocity": 0.4409448818897638,
                    "duration": 0.13394050000000135
                },
                {
                    "name": "F#5",
                    "midi": 78,
                    "time": 34.556649000000014,
                    "velocity": 0.49606299212598426,
                    "duration": 0.40182149999999695
                },
                {
                    "name": "G#5",
                    "midi": 80,
                    "time": 34.95847050000001,
                    "velocity": 0.48031496062992124,
                    "duration": 0.40182149999999695
                },
                {
                    "name": "A5",
                    "midi": 81,
                    "time": 35.36029200000001,
                    "velocity": 0.5354330708661418,
                    "duration": 1.205464499999998
                },
                {
                    "name": "A#5",
                    "midi": 82,
                    "time": 36.565756500000006,
                    "velocity": 0.5039370078740157,
                    "duration": 0.40182149999999695
                },
                {
                    "name": "F5",
                    "midi": 77,
                    "time": 36.967578,
                    "velocity": 0.4645669291338583,
                    "duration": 0.40182149999999695
                },
                {
                    "name": "E5",
                    "midi": 76,
                    "time": 38.37395325,
                    "velocity": 0.5433070866141733,
                    "duration": 0.20091074999999847
                },
                {
                    "name": "C#6",
                    "midi": 85,
                    "time": 38.574864,
                    "velocity": 0.7401574803149606,
                    "duration": 2.009107499999999
                },
                {
                    "name": "C6",
                    "midi": 84,
                    "time": 40.5839715,
                    "velocity": 0.47244094488188976,
                    "duration": 0.20091074999999847
                },
                {
                    "name": "A#5",
                    "midi": 82,
                    "time": 40.784882249999995,
                    "velocity": 0.4330708661417323,
                    "duration": 0.20091074999999847
                },
                {
                    "name": "G#5",
                    "midi": 80,
                    "time": 40.985792999999994,
                    "velocity": 0.44881889763779526,
                    "duration": 0.20091074999999847
                },
                {
                    "name": "G5",
                    "midi": 79,
                    "time": 41.18670374999999,
                    "velocity": 0.4015748031496063,
                    "duration": 0.20091074999999847
                },
                {
                    "name": "F5",
                    "midi": 77,
                    "time": 41.38761449999999,
                    "velocity": 0.4251968503937008,
                    "duration": 0.20091074999999847
                },
                {
                    "name": "E5",
                    "midi": 76,
                    "time": 41.58852524999999,
                    "velocity": 0.3937007874015748,
                    "duration": 0.20091074999999847
                },
                {
                    "name": "G5",
                    "midi": 79,
                    "time": 41.78943599999999,
                    "velocity": 0.44881889763779526,
                    "duration": 0.803643000000001
                },
                {
                    "name": "F5",
                    "midi": 77,
                    "time": 42.59307899999999,
                    "velocity": 0.4881889763779528,
                    "duration": 1.205464499999998
                },
                {
                    "name": "D#5",
                    "midi": 75,
                    "time": 43.79854349999999,
                    "velocity": 0.4330708661417323,
                    "duration": 0.803643000000001
                },
                {
                    "name": "C#5",
                    "midi": 73,
                    "time": 44.60218649999999,
                    "velocity": 0.4409448818897638,
                    "duration": 0.40182149999999695
                },
                {
                    "name": "C5",
                    "midi": 72,
                    "time": 45.004007999999985,
                    "velocity": 0.3937007874015748,
                    "duration": 0.40182149999999695
                },
                {
                    "name": "C#5",
                    "midi": 73,
                    "time": 45.40582949999998,
                    "velocity": 0.33858267716535434,
                    "duration": 0.13394050000000135
                },
                {
                    "name": "C5",
                    "midi": 72,
                    "time": 45.53976999999998,
                    "velocity": 0.3464566929133858,
                    "duration": 0.13394050000000135
                },
                {
                    "name": "A#4",
                    "midi": 70,
                    "time": 45.673710499999984,
                    "velocity": 0.3464566929133858,
                    "duration": 0.13394050000000135
                },
                {
                    "name": "C5",
                    "midi": 72,
                    "time": 45.807650999999986,
                    "velocity": 0.3543307086614173,
                    "duration": 0.40182149999999695
                },
                {
                    "name": "C#5",
                    "midi": 73,
                    "time": 46.20947249999998,
                    "velocity": 0.3937007874015748,
                    "duration": 0.40182149999999695
                },
                {
                    "name": "F4",
                    "midi": 65,
                    "time": 46.61129399999998,
                    "velocity": 0.3937007874015748,
                    "duration": 0.803643000000001
                },
                {
                    "name": "G#4",
                    "midi": 68,
                    "time": 47.41493699999998,
                    "velocity": 0.3937007874015748,
                    "duration": 0.40182149999999695
                },
                {
                    "name": "E4",
                    "midi": 64,
                    "time": 47.41493699999998,
                    "velocity": 0.2992125984251969,
                    "duration": 0.8036429999999939
                },
                {
                    "name": "G4",
                    "midi": 67,
                    "time": 47.81675849999998,
                    "velocity": 0.36220472440944884,
                    "duration": 0.40182149999999695
                },
                {
                    "name": "F4",
                    "midi": 65,
                    "time": 48.218579999999974,
                    "velocity": 0.41732283464566927,
                    "duration": 1.607286000000002
                },
                {
                    "name": "A#4",
                    "midi": 70,
                    "time": 51.43315199999998,
                    "velocity": 0.3543307086614173,
                    "duration": 0.803643000000001
                },
                {
                    "name": "G4",
                    "midi": 67,
                    "time": 53.04043799999998,
                    "velocity": 0.3543307086614173,
                    "duration": 0.40182149999999695
                },
                {
                    "name": "E4",
                    "midi": 64,
                    "time": 53.844080999999974,
                    "velocity": 0.33070866141732286,
                    "duration": 0.40182149999999695
                },
                {
                    "name": "C5",
                    "midi": 72,
                    "time": 54.64772399999997,
                    "velocity": 0.41732283464566927,
                    "duration": 0.6027322500000025
                },
                {
                    "name": "A4",
                    "midi": 69,
                    "time": 55.25045624999997,
                    "velocity": 0.3858267716535433,
                    "duration": 0.20091074999999847
                },
                {
                    "name": "C5",
                    "midi": 72,
                    "time": 55.45136699999997,
                    "velocity": 0.41732283464566927,
                    "duration": 0.40182149999999695
                },
                {
                    "name": "A#4",
                    "midi": 70,
                    "time": 57.862295999999965,
                    "velocity": 0.3543307086614173,
                    "duration": 0.803643000000001
                },
                {
                    "name": "G4",
                    "midi": 67,
                    "time": 59.46958199999997,
                    "velocity": 0.3543307086614173,
                    "duration": 0.40182149999999695
                },
                {
                    "name": "E4",
                    "midi": 64,
                    "time": 60.27322499999996,
                    "velocity": 0.33070866141732286,
                    "duration": 0.40182149999999695
                },
                {
                    "name": "C5",
                    "midi": 72,
                    "time": 61.076867999999955,
                    "velocity": 0.41732283464566927,
                    "duration": 0.6027322500000025
                },
                {
                    "name": "A4",
                    "midi": 69,
                    "time": 61.67960024999996,
                    "velocity": 0.3937007874015748,
                    "duration": 0.20091074999999847
                },
                {
                    "name": "C5",
                    "midi": 72,
                    "time": 61.880510999999956,
                    "velocity": 0.41732283464566927,
                    "duration": 0.40182149999999695
                },
                {
                    "name": "F5",
                    "midi": 77,
                    "time": 62.68415399999995,
                    "velocity": 0.4645669291338583,
                    "duration": 0.40182149999999695
                },
                {
                    "name": "A5",
                    "midi": 81,
                    "time": 62.68415399999995,
                    "velocity": 0.5511811023622047,
                    "duration": 0.40182149999999695
                },
                {
                    "name": "G5",
                    "midi": 79,
                    "time": 63.08597549999995,
                    "velocity": 0.5039370078740157,
                    "duration": 0.40182149999999695
                },
                {
                    "name": "E5",
                    "midi": 76,
                    "time": 63.08597549999995,
                    "velocity": 0.4251968503937008,
                    "duration": 0.40182149999999695
                },
                {
                    "name": "D5",
                    "midi": 74,
                    "time": 63.487796999999944,
                    "velocity": 0.3779527559055118,
                    "duration": 0.36163934999999725
                },
                {
                    "name": "F5",
                    "midi": 77,
                    "time": 63.487796999999944,
                    "velocity": 0.44881889763779526,
                    "duration": 0.36163934999999725
                },
                {
                    "name": "C#5",
                    "midi": 73,
                    "time": 63.88961849999994,
                    "velocity": 0.3779527559055118,
                    "duration": 0.36163935000000436
                },
                {
                    "name": "E5",
                    "midi": 76,
                    "time": 63.88961849999994,
                    "velocity": 0.44881889763779526,
                    "duration": 0.36163935000000436
                },
                {
                    "name": "F5",
                    "midi": 77,
                    "time": 64.29143999999995,
                    "velocity": 0.5511811023622047,
                    "duration": 0.40182149999999695
                },
                {
                    "name": "D5",
                    "midi": 74,
                    "time": 64.29143999999995,
                    "velocity": 0.4645669291338583,
                    "duration": 0.40182149999999695
                },
                {
                    "name": "C5",
                    "midi": 72,
                    "time": 64.69326149999995,
                    "velocity": 0.4251968503937008,
                    "duration": 0.40182149999999695
                },
                {
                    "name": "E5",
                    "midi": 76,
                    "time": 64.69326149999995,
                    "velocity": 0.5039370078740157,
                    "duration": 0.40182149999999695
                },
                {
                    "name": "A#4",
                    "midi": 70,
                    "time": 65.09508299999995,
                    "velocity": 0.3937007874015748,
                    "duration": 0.36163935000000436
                },
                {
                    "name": "D5",
                    "midi": 74,
                    "time": 65.09508299999995,
                    "velocity": 0.4645669291338583,
                    "duration": 0.36163935000000436
                },
                {
                    "name": "C#5",
                    "midi": 73,
                    "time": 65.49690449999996,
                    "velocity": 0.4645669291338583,
                    "duration": 0.36163935000000436
                },
                {
                    "name": "A4",
                    "midi": 69,
                    "time": 65.49690449999996,
                    "velocity": 0.3937007874015748,
                    "duration": 0.36163935000000436
                },
                {
                    "name": "A#4",
                    "midi": 70,
                    "time": 65.89872599999997,
                    "velocity": 0.4645669291338583,
                    "duration": 0.40182149999999695
                },
                {
                    "name": "D5",
                    "midi": 74,
                    "time": 65.89872599999997,
                    "velocity": 0.5511811023622047,
                    "duration": 0.40182149999999695
                },
                {
                    "name": "A4",
                    "midi": 69,
                    "time": 66.30054749999996,
                    "velocity": 0.41732283464566927,
                    "duration": 0.40182149999999695
                },
                {
                    "name": "C5",
                    "midi": 72,
                    "time": 66.30054749999996,
                    "velocity": 0.49606299212598426,
                    "duration": 0.40182149999999695
                },
                {
                    "name": "G4",
                    "midi": 67,
                    "time": 66.70236899999996,
                    "velocity": 0.3937007874015748,
                    "duration": 0.36163935000000436
                },
                {
                    "name": "A#4",
                    "midi": 70,
                    "time": 66.70236899999996,
                    "velocity": 0.4645669291338583,
                    "duration": 0.36163935000000436
                },
                {
                    "name": "A4",
                    "midi": 69,
                    "time": 67.10419049999997,
                    "velocity": 0.4566929133858268,
                    "duration": 0.36163935000000436
                },
                {
                    "name": "F#4",
                    "midi": 66,
                    "time": 67.10419049999997,
                    "velocity": 0.3858267716535433,
                    "duration": 0.36163935000000436
                },
                {
                    "name": "D4",
                    "midi": 62,
                    "time": 67.50601199999998,
                    "velocity": 0.3858267716535433,
                    "duration": 2.009107499999999
                },
                {
                    "name": "F#4",
                    "midi": 66,
                    "time": 67.50601199999998,
                    "velocity": 0.4566929133858268,
                    "duration": 1.607286000000002
                },
                {
                    "name": "A4",
                    "midi": 69,
                    "time": 67.50601199999998,
                    "velocity": 0.4566929133858268,
                    "duration": 1.607286000000002
                },
                {
                    "name": "A#4",
                    "midi": 70,
                    "time": 69.11329799999999,
                    "velocity": 0.3858267716535433,
                    "duration": 0.6027322500000025
                },
                {
                    "name": "G4",
                    "midi": 67,
                    "time": 69.11329799999999,
                    "velocity": 0.3228346456692913,
                    "duration": 0.40182149999999695
                },
                {
                    "name": "C5",
                    "midi": 72,
                    "time": 69.71603024999999,
                    "velocity": 0.3543307086614173,
                    "duration": 0.05022768749999784
                },
                {
                    "name": "A#4",
                    "midi": 70,
                    "time": 69.76625793749999,
                    "velocity": 0.3543307086614173,
                    "duration": 0.05022768749999784
                },
                {
                    "name": "A4",
                    "midi": 69,
                    "time": 69.81648562499998,
                    "velocity": 0.3543307086614173,
                    "duration": 0.05022768749999784
                },
                {
                    "name": "A#4",
                    "midi": 70,
                    "time": 69.86671331249998,
                    "velocity": 0.3543307086614173,
                    "duration": 0.05022768749999784
                },
                {
                    "name": "C5",
                    "midi": 72,
                    "time": 69.91694099999998,
                    "velocity": 0.3937007874015748,
                    "duration": 0.40182149999999695
                },
                {
                    "name": "D5",
                    "midi": 74,
                    "time": 70.31876249999998,
                    "velocity": 0.3779527559055118,
                    "duration": 0.40182149999999695
                },
                {
                    "name": "C5",
                    "midi": 72,
                    "time": 70.72058399999997,
                    "velocity": 0.3858267716535433,
                    "duration": 0.2678810000000027
                },
                {
                    "name": "A#4",
                    "midi": 70,
                    "time": 70.98846499999998,
                    "velocity": 0.3543307086614173,
                    "duration": 0.2678810000000027
                },
                {
                    "name": "A4",
                    "midi": 69,
                    "time": 71.25634599999998,
                    "velocity": 0.3543307086614173,
                    "duration": 0.2678810000000027
                },
                {
                    "name": "G4",
                    "midi": 67,
                    "time": 71.52422699999998,
                    "velocity": 0.3779527559055118,
                    "duration": 0.2678810000000027
                },
                {
                    "name": "A#4",
                    "midi": 70,
                    "time": 71.79210799999998,
                    "velocity": 0.3543307086614173,
                    "duration": 0.2678810000000027
                },
                {
                    "name": "D5",
                    "midi": 74,
                    "time": 72.05998899999999,
                    "velocity": 0.3543307086614173,
                    "duration": 0.2678810000000027
                },
                {
                    "name": "F4",
                    "midi": 65,
                    "time": 72.32786999999999,
                    "velocity": 0.3937007874015748,
                    "duration": 0.8036429999999939
                },
                {
                    "name": "E4",
                    "midi": 64,
                    "time": 73.13151299999998,
                    "velocity": 0.2992125984251969,
                    "duration": 0.8036429999999939
                },
                {
                    "name": "G4",
                    "midi": 67,
                    "time": 73.13151299999998,
                    "velocity": 0.3543307086614173,
                    "duration": 0.8036429999999939
                },
                {
                    "name": "G4",
                    "midi": 67,
                    "time": 73.93515599999998,
                    "velocity": 0.3779527559055118,
                    "duration": 0.6027322500000025
                },
                {
                    "name": "E4",
                    "midi": 64,
                    "time": 73.93515599999998,
                    "velocity": 0.31496062992125984,
                    "duration": 0.8036430000000081
                },
                {
                    "name": "G#4",
                    "midi": 68,
                    "time": 74.53788824999998,
                    "velocity": 0.2755905511811024,
                    "duration": 0.20091075000000558
                },
                {
                    "name": "A4",
                    "midi": 69,
                    "time": 74.73879899999999,
                    "velocity": 0.3464566929133858,
                    "duration": 0.8036429999999939
                },
                {
                    "name": "F4",
                    "midi": 65,
                    "time": 74.73879899999999,
                    "velocity": 0.2992125984251969,
                    "duration": 0.8036429999999939
                },
                {
                    "name": "A#4",
                    "midi": 70,
                    "time": 77.14972799999998,
                    "velocity": 0.3543307086614173,
                    "duration": 0.8036429999999939
                },
                {
                    "name": "G4",
                    "midi": 67,
                    "time": 78.75701399999997,
                    "velocity": 0.3543307086614173,
                    "duration": 0.40182149999999695
                },
                {
                    "name": "E4",
                    "midi": 64,
                    "time": 79.56065699999996,
                    "velocity": 0.33070866141732286,
                    "duration": 0.40182149999999695
                },
                {
                    "name": "C5",
                    "midi": 72,
                    "time": 80.36429999999996,
                    "velocity": 0.41732283464566927,
                    "duration": 0.6027322500000025
                },
                {
                    "name": "A4",
                    "midi": 69,
                    "time": 80.96703224999996,
                    "velocity": 0.3858267716535433,
                    "duration": 0.20091075000000558
                },
                {
                    "name": "C5",
                    "midi": 72,
                    "time": 81.16794299999997,
                    "velocity": 0.41732283464566927,
                    "duration": 0.40182149999999695
                },
                {
                    "name": "A#4",
                    "midi": 70,
                    "time": 83.57887199999996,
                    "velocity": 0.3543307086614173,
                    "duration": 0.8036429999999939
                },
                {
                    "name": "G4",
                    "midi": 67,
                    "time": 85.18615799999995,
                    "velocity": 0.3543307086614173,
                    "duration": 0.40182149999999695
                },
                {
                    "name": "E4",
                    "midi": 64,
                    "time": 85.98980099999994,
                    "velocity": 0.33070866141732286,
                    "duration": 0.40182149999999695
                },
                {
                    "name": "C5",
                    "midi": 72,
                    "time": 86.79344399999994,
                    "velocity": 0.41732283464566927,
                    "duration": 0.6027322500000025
                },
                {
                    "name": "F5",
                    "midi": 77,
                    "time": 87.39617624999994,
                    "velocity": 0.3937007874015748,
                    "duration": 0.20091075000000558
                },
                {
                    "name": "C5",
                    "midi": 72,
                    "time": 87.59708699999995,
                    "velocity": 0.41732283464566927,
                    "duration": 0.40182149999999695
                },
                {
                    "name": "A5",
                    "midi": 81,
                    "time": 88.40072999999994,
                    "velocity": 0.5511811023622047,
                    "duration": 0.40182149999999695
                },
                {
                    "name": "F5",
                    "midi": 77,
                    "time": 88.40072999999994,
                    "velocity": 0.4645669291338583,
                    "duration": 0.40182149999999695
                },
                {
                    "name": "E5",
                    "midi": 76,
                    "time": 88.80255149999994,
                    "velocity": 0.4251968503937008,
                    "duration": 0.40182149999999695
                },
                {
                    "name": "G5",
                    "midi": 79,
                    "time": 88.80255149999994,
                    "velocity": 0.5039370078740157,
                    "duration": 0.40182149999999695
                },
                {
                    "name": "D5",
                    "midi": 74,
                    "time": 89.20437299999993,
                    "velocity": 0.3779527559055118,
                    "duration": 0.36163935000000436
                },
                {
                    "name": "F5",
                    "midi": 77,
                    "time": 89.20437299999993,
                    "velocity": 0.44881889763779526,
                    "duration": 0.36163935000000436
                },
                {
                    "name": "C#5",
                    "midi": 73,
                    "time": 89.60619449999994,
                    "velocity": 0.3779527559055118,
                    "duration": 0.36163935000000436
                },
                {
                    "name": "E5",
                    "midi": 76,
                    "time": 89.60619449999994,
                    "velocity": 0.44881889763779526,
                    "duration": 0.36163935000000436
                },
                {
                    "name": "D5",
                    "midi": 74,
                    "time": 90.00801599999996,
                    "velocity": 0.4645669291338583,
                    "duration": 0.40182149999999695
                },
                {
                    "name": "F5",
                    "midi": 77,
                    "time": 90.00801599999996,
                    "velocity": 0.5511811023622047,
                    "duration": 0.40182149999999695
                },
                {
                    "name": "C5",
                    "midi": 72,
                    "time": 90.40983749999995,
                    "velocity": 0.4251968503937008,
                    "duration": 0.40182149999999695
                },
                {
                    "name": "E5",
                    "midi": 76,
                    "time": 90.40983749999995,
                    "velocity": 0.5039370078740157,
                    "duration": 0.40182149999999695
                },
                {
                    "name": "A#4",
                    "midi": 70,
                    "time": 90.81165899999995,
                    "velocity": 0.3937007874015748,
                    "duration": 0.36163935000000436
                },
                {
                    "name": "D5",
                    "midi": 74,
                    "time": 90.81165899999995,
                    "velocity": 0.4645669291338583,
                    "duration": 0.36163935000000436
                },
                {
                    "name": "C#5",
                    "midi": 73,
                    "time": 91.21348049999996,
                    "velocity": 0.4645669291338583,
                    "duration": 0.36163935000000436
                },
                {
                    "name": "A4",
                    "midi": 69,
                    "time": 91.21348049999996,
                    "velocity": 0.3937007874015748,
                    "duration": 0.36163935000000436
                },
                {
                    "name": "A#4",
                    "midi": 70,
                    "time": 91.61530199999997,
                    "velocity": 0.4645669291338583,
                    "duration": 0.40182149999999695
                },
                {
                    "name": "D5",
                    "midi": 74,
                    "time": 91.61530199999997,
                    "velocity": 0.5511811023622047,
                    "duration": 0.40182149999999695
                },
                {
                    "name": "C5",
                    "midi": 72,
                    "time": 92.01712349999997,
                    "velocity": 0.49606299212598426,
                    "duration": 0.40182149999999695
                },
                {
                    "name": "A4",
                    "midi": 69,
                    "time": 92.01712349999997,
                    "velocity": 0.41732283464566927,
                    "duration": 0.40182149999999695
                },
                {
                    "name": "A#4",
                    "midi": 70,
                    "time": 92.41894499999997,
                    "velocity": 0.4645669291338583,
                    "duration": 0.36163935000000436
                },
                {
                    "name": "G4",
                    "midi": 67,
                    "time": 92.41894499999997,
                    "velocity": 0.3937007874015748,
                    "duration": 0.36163935000000436
                },
                {
                    "name": "F#4",
                    "midi": 66,
                    "time": 92.82076649999998,
                    "velocity": 0.3858267716535433,
                    "duration": 0.36163935000000436
                },
                {
                    "name": "A4",
                    "midi": 69,
                    "time": 92.82076649999998,
                    "velocity": 0.4566929133858268,
                    "duration": 0.36163935000000436
                },
                {
                    "name": "A4",
                    "midi": 69,
                    "time": 93.22258799999999,
                    "velocity": 0.4566929133858268,
                    "duration": 1.607286000000002
                },
                {
                    "name": "D4",
                    "midi": 62,
                    "time": 93.22258799999999,
                    "velocity": 0.3858267716535433,
                    "duration": 2.009107499999999
                },
                {
                    "name": "F#4",
                    "midi": 66,
                    "time": 93.22258799999999,
                    "velocity": 0.4566929133858268,
                    "duration": 1.607286000000002
                },
                {
                    "name": "G4",
                    "midi": 67,
                    "time": 94.82987399999999,
                    "velocity": 0.3228346456692913,
                    "duration": 0.40182149999999695
                },
                {
                    "name": "A#4",
                    "midi": 70,
                    "time": 94.82987399999999,
                    "velocity": 0.3858267716535433,
                    "duration": 0.6027322500000025
                },
                {
                    "name": "C5",
                    "midi": 72,
                    "time": 95.43260624999999,
                    "velocity": 0.3543307086614173,
                    "duration": 0.05022768749999784
                },
                {
                    "name": "A#4",
                    "midi": 70,
                    "time": 95.48283393749999,
                    "velocity": 0.3543307086614173,
                    "duration": 0.05022768749999784
                },
                {
                    "name": "A4",
                    "midi": 69,
                    "time": 95.53306162499999,
                    "velocity": 0.3543307086614173,
                    "duration": 0.05022768749999784
                },
                {
                    "name": "A#4",
                    "midi": 70,
                    "time": 95.58328931249999,
                    "velocity": 0.3543307086614173,
                    "duration": 0.05022768749999784
                },
                {
                    "name": "C5",
                    "midi": 72,
                    "time": 95.63351699999998,
                    "velocity": 0.3937007874015748,
                    "duration": 0.40182149999999695
                },
                {
                    "name": "D5",
                    "midi": 74,
                    "time": 96.03533849999998,
                    "velocity": 0.3779527559055118,
                    "duration": 0.40182149999999695
                },
                {
                    "name": "C5",
                    "midi": 72,
                    "time": 96.43715999999998,
                    "velocity": 0.3858267716535433,
                    "duration": 0.2678810000000027
                },
                {
                    "name": "F5",
                    "midi": 77,
                    "time": 96.70504099999998,
                    "velocity": 0.3543307086614173,
                    "duration": 0.2678810000000027
                },
                {
                    "name": "A4",
                    "midi": 69,
                    "time": 96.97292199999998,
                    "velocity": 0.33070866141732286,
                    "duration": 0.2678810000000027
                },
                {
                    "name": "G4",
                    "midi": 67,
                    "time": 97.24080299999999,
                    "velocity": 0.3779527559055118,
                    "duration": 0.2678810000000027
                },
                {
                    "name": "A#4",
                    "midi": 70,
                    "time": 97.50868399999999,
                    "velocity": 0.3543307086614173,
                    "duration": 0.2678810000000027
                },
                {
                    "name": "D5",
                    "midi": 74,
                    "time": 97.77656499999999,
                    "velocity": 0.33858267716535434,
                    "duration": 0.2678810000000027
                },
                {
                    "name": "F4",
                    "midi": 65,
                    "time": 98.044446,
                    "velocity": 0.3937007874015748,
                    "duration": 0.8036429999999939
                },
                {
                    "name": "E4",
                    "midi": 64,
                    "time": 98.84808899999999,
                    "velocity": 0.3543307086614173,
                    "duration": 0.753415312499996
                },
                {
                    "name": "A4",
                    "midi": 69,
                    "time": 99.60150431249998,
                    "velocity": 0.4409448818897638,
                    "duration": 0.05022768749999784
                },
                {
                    "name": "A5",
                    "midi": 81,
                    "time": 99.65173199999998,
                    "velocity": 0.5748031496062992,
                    "duration": 1.1050091249999952
                },
                {
                    "name": "F5",
                    "midi": 77,
                    "time": 100.75674112499998,
                    "velocity": 0.3858267716535433,
                    "duration": 0.10045537499999568
                },
                {
                    "name": "F5",
                    "midi": 77,
                    "time": 100.85719649999997,
                    "velocity": 0.41732283464566927,
                    "duration": 0.08036429999999939
                },
                {
                    "name": "G5",
                    "midi": 79,
                    "time": 100.93756079999997,
                    "velocity": 0.3937007874015748,
                    "duration": 0.08036429999999939
                },
                {
                    "name": "F5",
                    "midi": 77,
                    "time": 101.01792509999997,
                    "velocity": 0.4251968503937008,
                    "duration": 0.08036429999999939
                },
                {
                    "name": "E5",
                    "midi": 76,
                    "time": 101.09828939999997,
                    "velocity": 0.4094488188976378,
                    "duration": 0.08036429999999939
                },
                {
                    "name": "F5",
                    "midi": 77,
                    "time": 101.17865369999997,
                    "velocity": 0.4251968503937008,
                    "duration": 0.08036429999999939
                },
                {
                    "name": "A#4",
                    "midi": 70,
                    "time": 101.25901799999997,
                    "velocity": 0.47244094488188976,
                    "duration": 0.10045537499999568
                },
                {
                    "name": "A#5",
                    "midi": 82,
                    "time": 101.30924568749997,
                    "velocity": 0.5826771653543307,
                    "duration": 1.0547814374999973
                },
                {
                    "name": "G5",
                    "midi": 79,
                    "time": 102.36402712499996,
                    "velocity": 0.4409448818897638,
                    "duration": 0.10045537499999568
                },
                {
                    "name": "G5",
                    "midi": 79,
                    "time": 102.46448249999996,
                    "velocity": 0.4409448818897638,
                    "duration": 0.08036429999999939
                },
                {
                    "name": "A5",
                    "midi": 81,
                    "time": 102.54484679999996,
                    "velocity": 0.4094488188976378,
                    "duration": 0.08036429999999939
                },
                {
                    "name": "G5",
                    "midi": 79,
                    "time": 102.62521109999996,
                    "velocity": 0.4409448818897638,
                    "duration": 0.08036429999999939
                },
                {
                    "name": "F#5",
                    "midi": 78,
                    "time": 102.70557539999996,
                    "velocity": 0.4251968503937008,
                    "duration": 0.08036429999999939
                },
                {
                    "name": "G5",
                    "midi": 79,
                    "time": 102.78593969999996,
                    "velocity": 0.4409448818897638,
                    "duration": 0.08036429999999939
                },
                {
                    "name": "C6",
                    "midi": 84,
                    "time": 102.86630399999996,
                    "velocity": 0.5826771653543307,
                    "duration": 0.6027322500000025
                },
                {
                    "name": "A5",
                    "midi": 81,
                    "time": 103.46903624999996,
                    "velocity": 0.48031496062992124,
                    "duration": 0.20091075000000558
                },
                {
                    "name": "F5",
                    "midi": 77,
                    "time": 103.66994699999996,
                    "velocity": 0.5433070866141733,
                    "duration": 1.205464500000005
                },
                {
                    "name": "D#5",
                    "midi": 75,
                    "time": 104.87541149999997,
                    "velocity": 0.4881889763779528,
                    "duration": 0.40182149999999695
                },
                {
                    "name": "D5",
                    "midi": 74,
                    "time": 105.27723299999997,
                    "velocity": 0.5275590551181102,
                    "duration": 0.40182149999999695
                },
                {
                    "name": "C#5",
                    "midi": 73,
                    "time": 105.67905449999996,
                    "velocity": 0.4881889763779528,
                    "duration": 0.40182149999999695
                },
                {
                    "name": "D5",
                    "midi": 74,
                    "time": 106.08087599999996,
                    "velocity": 0.5433070866141733,
                    "duration": 0.40182149999999695
                },
                {
                    "name": "E5",
                    "midi": 76,
                    "time": 106.48269749999996,
                    "velocity": 0.4881889763779528,
                    "duration": 0.10045537499999568
                },
                {
                    "name": "F#5",
                    "midi": 78,
                    "time": 106.68360824999995,
                    "velocity": 0.49606299212598426,
                    "duration": 0.10045537499999568
                },
                {
                    "name": "G5",
                    "midi": 79,
                    "time": 106.88451899999994,
                    "velocity": 0.5039370078740157,
                    "duration": 0.10045537499999568
                },
                {
                    "name": "A5",
                    "midi": 81,
                    "time": 107.08542974999993,
                    "velocity": 0.5118110236220472,
                    "duration": 0.10045537499999568
                },
                {
                    "name": "A#5",
                    "midi": 82,
                    "time": 107.28634049999992,
                    "velocity": 0.5196850393700787,
                    "duration": 0.10045537499999568
                },
                {
                    "name": "C#6",
                    "midi": 85,
                    "time": 107.48725124999991,
                    "velocity": 0.5275590551181102,
                    "duration": 0.21765331250000486
                },
                {
                    "name": "D6",
                    "midi": 86,
                    "time": 107.68816199999992,
                    "velocity": 0.5354330708661418,
                    "duration": 0.10045537499999568
                },
                {
                    "name": "C6",
                    "midi": 84,
                    "time": 107.88907274999991,
                    "velocity": 0.5196850393700787,
                    "duration": 0.21765331250000486
                },
                {
                    "name": "A#5",
                    "midi": 82,
                    "time": 108.08998349999992,
                    "velocity": 0.5118110236220472,
                    "duration": 0.10045537499999568
                },
                {
                    "name": "A5",
                    "midi": 81,
                    "time": 108.29089424999991,
                    "velocity": 0.5039370078740157,
                    "duration": 0.21765331250000486
                },
                {
                    "name": "G5",
                    "midi": 79,
                    "time": 108.49180499999991,
                    "velocity": 0.49606299212598426,
                    "duration": 0.10045537499999568
                },
                {
                    "name": "F5",
                    "midi": 77,
                    "time": 108.6927157499999,
                    "velocity": 0.4881889763779528,
                    "duration": 0.21765331250000486
                },
                {
                    "name": "E5",
                    "midi": 76,
                    "time": 108.89362649999991,
                    "velocity": 0.48031496062992124,
                    "duration": 0.10045537499999568
                },
                {
                    "name": "D5",
                    "midi": 74,
                    "time": 109.0945372499999,
                    "velocity": 0.47244094488188976,
                    "duration": 0.20091075000000558
                },
                {
                    "name": "C5",
                    "midi": 72,
                    "time": 109.29544799999991,
                    "velocity": 0.47244094488188976,
                    "duration": 0.8036429999999939
                },
                {
                    "name": "C6",
                    "midi": 84,
                    "time": 110.0990909999999,
                    "velocity": 0.5039370078740157,
                    "duration": 1.0715239999999966
                },
                {
                    "name": "A5",
                    "midi": 81,
                    "time": 111.1706149999999,
                    "velocity": 0.4330708661417323,
                    "duration": 0.2678810000000027
                },
                {
                    "name": "F5",
                    "midi": 77,
                    "time": 111.4384959999999,
                    "velocity": 0.4015748031496063,
                    "duration": 0.2678810000000027
                },
                {
                    "name": "C5",
                    "midi": 72,
                    "time": 111.7063769999999,
                    "velocity": 0.4566929133858268,
                    "duration": 0.20091075000000558
                },
                {
                    "name": "A4",
                    "midi": 69,
                    "time": 111.90728774999991,
                    "velocity": 0.4015748031496063,
                    "duration": 0.20091075000000558
                },
                {
                    "name": "F5",
                    "midi": 77,
                    "time": 112.10819849999992,
                    "velocity": 0.4409448818897638,
                    "duration": 0.20091075000000558
                },
                {
                    "name": "F4",
                    "midi": 65,
                    "time": 112.40956462499992,
                    "velocity": 0.3464566929133858,
                    "duration": 0.10045537499999568
                },
                {
                    "name": "G4",
                    "midi": 67,
                    "time": 112.51001999999991,
                    "velocity": 0.3464566929133858,
                    "duration": 0.08538706874999491
                },
                {
                    "name": "A4",
                    "midi": 69,
                    "time": 112.5954070687499,
                    "velocity": 0.3228346456692913,
                    "duration": 0.0837128124999964
                },
                {
                    "name": "G4",
                    "midi": 67,
                    "time": 112.6791198812499,
                    "velocity": 0.3464566929133858,
                    "duration": 0.08538706874999491
                },
                {
                    "name": "A4",
                    "midi": 69,
                    "time": 112.7628326937499,
                    "velocity": 0.30708661417322836,
                    "duration": 0.08538706874999491
                },
                {
                    "name": "G4",
                    "midi": 67,
                    "time": 112.8482197624999,
                    "velocity": 0.3464566929133858,
                    "duration": 0.0837128124999964
                },
                {
                    "name": "A4",
                    "midi": 69,
                    "time": 112.93193257499989,
                    "velocity": 0.30708661417322836,
                    "duration": 0.08538706874999491
                },
                {
                    "name": "G4",
                    "midi": 67,
                    "time": 113.01731964374989,
                    "velocity": 0.3464566929133858,
                    "duration": 0.0837128124999964
                },
                {
                    "name": "A4",
                    "midi": 69,
                    "time": 113.10103245624988,
                    "velocity": 0.30708661417322836,
                    "duration": 0.08538706874999491
                },
                {
                    "name": "G4",
                    "midi": 67,
                    "time": 113.18474526874988,
                    "velocity": 0.3464566929133858,
                    "duration": 0.08538706874999491
                },
                {
                    "name": "A4",
                    "midi": 69,
                    "time": 113.27013233749987,
                    "velocity": 0.30708661417322836,
                    "duration": 0.0837128124999964
                },
                {
                    "name": "G4",
                    "midi": 67,
                    "time": 113.35384514999987,
                    "velocity": 0.3464566929133858,
                    "duration": 0.08538706874999491
                },
                {
                    "name": "A4",
                    "midi": 69,
                    "time": 113.43923221874986,
                    "velocity": 0.2992125984251969,
                    "duration": 0.0837128124999964
                },
                {
                    "name": "G4",
                    "midi": 67,
                    "time": 113.52294503124986,
                    "velocity": 0.3464566929133858,
                    "duration": 0.08538706874999491
                },
                {
                    "name": "A4",
                    "midi": 69,
                    "time": 113.60665784374986,
                    "velocity": 0.2992125984251969,
                    "duration": 0.08538706874999491
                },
                {
                    "name": "G4",
                    "midi": 67,
                    "time": 113.69204491249985,
                    "velocity": 0.3464566929133858,
                    "duration": 0.0837128124999964
                },
                {
                    "name": "A4",
                    "midi": 69,
                    "time": 113.77575772499985,
                    "velocity": 0.2992125984251969,
                    "duration": 0.08538706874999491
                },
                {
                    "name": "G4",
                    "midi": 67,
                    "time": 113.86114479374984,
                    "velocity": 0.33858267716535434,
                    "duration": 0.0837128124999964
                },
                {
                    "name": "A4",
                    "midi": 69,
                    "time": 113.94485760624984,
                    "velocity": 0.2992125984251969,
                    "duration": 0.08538706874999491
                },
                {
                    "name": "G4",
                    "midi": 67,
                    "time": 114.02857041874984,
                    "velocity": 0.33858267716535434,
                    "duration": 0.08538706874999491
                },
                {
                    "name": "A4",
                    "midi": 69,
                    "time": 114.11395748749983,
                    "velocity": 0.28346456692913385,
                    "duration": 0.0837128124999964
                },
                {
                    "name": "G4",
                    "midi": 67,
                    "time": 114.19767029999983,
                    "velocity": 0.33070866141732286,
                    "duration": 0.08538706874999491
                },
                {
                    "name": "A4",
                    "midi": 69,
                    "time": 114.28305736874982,
                    "velocity": 0.28346456692913385,
                    "duration": 0.0837128124999964
                },
                {
                    "name": "G4",
                    "midi": 67,
                    "time": 114.36677018124982,
                    "velocity": 0.33070866141732286,
                    "duration": 0.08538706874999491
                },
                {
                    "name": "A4",
                    "midi": 69,
                    "time": 114.45048299374982,
                    "velocity": 0.28346456692913385,
                    "duration": 0.08538706874999491
                },
                {
                    "name": "G4",
                    "midi": 67,
                    "time": 114.51912749999981,
                    "velocity": 0.33070866141732286,
                    "duration": 0.10045537499999568
                },
                {
                    "name": "A4",
                    "midi": 69,
                    "time": 114.61958287499981,
                    "velocity": 0.28346456692913385,
                    "duration": 0.10045537499999568
                },
                {
                    "name": "G4",
                    "midi": 67,
                    "time": 114.7200382499998,
                    "velocity": 0.33070866141732286,
                    "duration": 0.10045537499999568
                },
                {
                    "name": "A4",
                    "midi": 69,
                    "time": 114.8204936249998,
                    "velocity": 0.29133858267716534,
                    "duration": 0.10045537499999568
                },
                {
                    "name": "G4",
                    "midi": 67,
                    "time": 114.9209489999998,
                    "velocity": 0.33070866141732286,
                    "duration": 0.10045537499999568
                },
                {
                    "name": "A4",
                    "midi": 69,
                    "time": 115.02140437499979,
                    "velocity": 0.28346456692913385,
                    "duration": 0.10045537499999568
                },
                {
                    "name": "G4",
                    "midi": 67,
                    "time": 115.12185974999979,
                    "velocity": 0.33070866141732286,
                    "duration": 0.10045537499999568
                },
                {
                    "name": "A4",
                    "midi": 69,
                    "time": 115.22231512499978,
                    "velocity": 0.29133858267716534,
                    "duration": 0.10045537499999568
                },
                {
                    "name": "G4",
                    "midi": 67,
                    "time": 115.32277049999978,
                    "velocity": 0.2992125984251969,
                    "duration": 0.13394049999999424
                },
                {
                    "name": "F4",
                    "midi": 65,
                    "time": 115.45671099999977,
                    "velocity": 0.3779527559055118,
                    "duration": 0.13394049999999424
                },
                {
                    "name": "G4",
                    "midi": 67,
                    "time": 115.59065149999977,
                    "velocity": 0.33070866141732286,
                    "duration": 0.13394049999999424
                },
                {
                    "name": "F4",
                    "midi": 65,
                    "time": 115.72459199999976,
                    "velocity": 0.41732283464566927,
                    "duration": 0.8036429999999939
                },
                {
                    "name": "F5",
                    "midi": 77,
                    "time": 116.82960112499975,
                    "velocity": 0.3858267716535433,
                    "duration": 0.10045537499999568
                },
                {
                    "name": "F5",
                    "midi": 77,
                    "time": 116.93005649999975,
                    "velocity": 0.3937007874015748,
                    "duration": 0.08036429999999939
                },
                {
                    "name": "G5",
                    "midi": 79,
                    "time": 117.01042079999975,
                    "velocity": 0.3779527559055118,
                    "duration": 0.08036429999999939
                },
                {
                    "name": "F5",
                    "midi": 77,
                    "time": 117.09078509999975,
                    "velocity": 0.4015748031496063,
                    "duration": 0.08036429999999939
                },
                {
                    "name": "E5",
                    "midi": 76,
                    "time": 117.17114939999975,
                    "velocity": 0.3937007874015748,
                    "duration": 0.08036429999999939
                },
                {
                    "name": "F5",
                    "midi": 77,
                    "time": 117.25151369999975,
                    "velocity": 0.4251968503937008,
                    "duration": 0.08036429999999939
                },
                {
                    "name": "C6",
                    "midi": 84,
                    "time": 117.33187799999975,
                    "velocity": 0.49606299212598426,
                    "duration": 0.40182149999999695
                },
                {
                    "name": "A#5",
                    "midi": 82,
                    "time": 117.73369949999974,
                    "velocity": 0.4566929133858268,
                    "duration": 0.40182149999999695
                },
                {
                    "name": "A5",
                    "midi": 81,
                    "time": 118.13552099999974,
                    "velocity": 0.41732283464566927,
                    "duration": 0.40182149999999695
                },
                {
                    "name": "G5",
                    "midi": 79,
                    "time": 118.53734249999974,
                    "velocity": 0.41732283464566927,
                    "duration": 0.40182149999999695
                },
                {
                    "name": "G5",
                    "midi": 79,
                    "time": 118.93916399999974,
                    "velocity": 0.4881889763779528,
                    "duration": 0.40182149999999695
                },
                {
                    "name": "F5",
                    "midi": 77,
                    "time": 119.34098549999973,
                    "velocity": 0.4015748031496063,
                    "duration": 0.40182149999999695
                },
                {
                    "name": "F5",
                    "midi": 77,
                    "time": 120.04417312499973,
                    "velocity": 0.3858267716535433,
                    "duration": 0.10045537499999568
                },
                {
                    "name": "F5",
                    "midi": 77,
                    "time": 120.14462849999973,
                    "velocity": 0.3937007874015748,
                    "duration": 0.08036429999999939
                },
                {
                    "name": "G5",
                    "midi": 79,
                    "time": 120.22499279999973,
                    "velocity": 0.3779527559055118,
                    "duration": 0.08036429999999939
                },
                {
                    "name": "F5",
                    "midi": 77,
                    "time": 120.30535709999972,
                    "velocity": 0.4015748031496063,
                    "duration": 0.08036429999999939
                },
                {
                    "name": "E5",
                    "midi": 76,
                    "time": 120.38572139999972,
                    "velocity": 0.4015748031496063,
                    "duration": 0.08036429999999939
                },
                {
                    "name": "F5",
                    "midi": 77,
                    "time": 120.46608569999972,
                    "velocity": 0.4251968503937008,
                    "duration": 0.08036429999999939
                },
                {
                    "name": "C6",
                    "midi": 84,
                    "time": 120.54644999999972,
                    "velocity": 0.49606299212598426,
                    "duration": 0.40182149999999695
                },
                {
                    "name": "A#5",
                    "midi": 82,
                    "time": 120.94827149999972,
                    "velocity": 0.4566929133858268,
                    "duration": 0.40182149999999695
                },
                {
                    "name": "A5",
                    "midi": 81,
                    "time": 121.35009299999972,
                    "velocity": 0.41732283464566927,
                    "duration": 0.40182149999999695
                },
                {
                    "name": "G5",
                    "midi": 79,
                    "time": 121.75191449999971,
                    "velocity": 0.41732283464566927,
                    "duration": 0.40182149999999695
                },
                {
                    "name": "G5",
                    "midi": 79,
                    "time": 122.15373599999971,
                    "velocity": 0.4409448818897638,
                    "duration": 0.40182149999999695
                },
                {
                    "name": "F5",
                    "midi": 77,
                    "time": 122.55555749999971,
                    "velocity": 0.3937007874015748,
                    "duration": 0.40182149999999695
                },
                {
                    "name": "F5",
                    "midi": 77,
                    "time": 122.9573789999997,
                    "velocity": 0.41732283464566927,
                    "duration": 0.40182149999999695
                },
                {
                    "name": "F5",
                    "midi": 77,
                    "time": 123.7610219999997,
                    "velocity": 0.41732283464566927,
                    "duration": 0.40182149999999695
                },
                {
                    "name": "F5",
                    "midi": 77,
                    "time": 124.56466499999969,
                    "velocity": 0.4881889763779528,
                    "duration": 0.40182149999999695
                },
                {
                    "name": "F5",
                    "midi": 77,
                    "time": 125.36830799999969,
                    "velocity": 0.5118110236220472,
                    "duration": 1.607286000000002
                },
                {
                    "name": "E5",
                    "midi": 76,
                    "time": 126.97559399999969,
                    "velocity": 0.4330708661417323,
                    "duration": 0.21765331250000486
                },
                {
                    "name": "F5",
                    "midi": 77,
                    "time": 127.1765047499997,
                    "velocity": 0.41732283464566927,
                    "duration": 0.21765331250000486
                },
                {
                    "name": "G5",
                    "midi": 79,
                    "time": 127.3774154999997,
                    "velocity": 0.4409448818897638,
                    "duration": 0.21765331250000486
                },
                {
                    "name": "F5",
                    "midi": 77,
                    "time": 127.5783262499997,
                    "velocity": 0.4015748031496063,
                    "duration": 0.19253946874999883
                },
                {
                    "name": "F5",
                    "midi": 77,
                    "time": 127.77923699999971,
                    "velocity": 0.4330708661417323,
                    "duration": 0.21765331250000486
                },
                {
                    "name": "D#5",
                    "midi": 75,
                    "time": 127.98014774999972,
                    "velocity": 0.3858267716535433,
                    "duration": 0.21765331250001907
                },
                {
                    "name": "D5",
                    "midi": 74,
                    "time": 128.18105849999972,
                    "velocity": 0.3937007874015748,
                    "duration": 0.21765331250003328
                },
                {
                    "name": "C5",
                    "midi": 72,
                    "time": 128.38196924999974,
                    "velocity": 0.3700787401574803,
                    "duration": 0.2009107500000198
                },
                {
                    "name": "A#4",
                    "midi": 70,
                    "time": 128.58287999999976,
                    "velocity": 0.3937007874015748,
                    "duration": 0.40182150000001116
                },
                {
                    "name": "C5",
                    "midi": 72,
                    "time": 128.98470149999977,
                    "velocity": 0.36220472440944884,
                    "duration": 0.13394049999999424
                },
                {
                    "name": "A#4",
                    "midi": 70,
                    "time": 129.11864199999977,
                    "velocity": 0.36220472440944884,
                    "duration": 0.13394049999999424
                },
                {
                    "name": "A4",
                    "midi": 69,
                    "time": 129.25258249999976,
                    "velocity": 0.36220472440944884,
                    "duration": 0.13394049999999424
                },
                {
                    "name": "A#4",
                    "midi": 70,
                    "time": 129.38652299999976,
                    "velocity": 0.3937007874015748,
                    "duration": 0.40182150000001116
                },
                {
                    "name": "C5",
                    "midi": 72,
                    "time": 129.78834449999977,
                    "velocity": 0.3937007874015748,
                    "duration": 0.40182150000001116
                },
                {
                    "name": "D5",
                    "midi": 74,
                    "time": 130.19016599999978,
                    "velocity": 0.3937007874015748,
                    "duration": 0.40182150000001116
                },
                {
                    "name": "D#5",
                    "midi": 75,
                    "time": 130.5919874999998,
                    "velocity": 0.36220472440944884,
                    "duration": 0.13394049999999424
                },
                {
                    "name": "D5",
                    "midi": 74,
                    "time": 130.72592799999978,
                    "velocity": 0.36220472440944884,
                    "duration": 0.13394049999999424
                },
                {
                    "name": "C5",
                    "midi": 72,
                    "time": 130.85986849999978,
                    "velocity": 0.36220472440944884,
                    "duration": 0.13394049999999424
                },
                {
                    "name": "D5",
                    "midi": 74,
                    "time": 130.99380899999977,
                    "velocity": 0.3937007874015748,
                    "duration": 0.40182150000001116
                },
                {
                    "name": "D#5",
                    "midi": 75,
                    "time": 131.39563049999978,
                    "velocity": 0.3937007874015748,
                    "duration": 0.40182150000001116
                },
                {
                    "name": "E5",
                    "midi": 76,
                    "time": 131.7974519999998,
                    "velocity": 0.4330708661417323,
                    "duration": 1.205464500000005
                },
                {
                    "name": "F5",
                    "midi": 77,
                    "time": 133.0029164999998,
                    "velocity": 0.3858267716535433,
                    "duration": 0.40182150000001116
                },
                {
                    "name": "C5",
                    "midi": 72,
                    "time": 133.4047379999998,
                    "velocity": 0.3858267716535433,
                    "duration": 0.40182150000001116
                },
                {
                    "name": "D#5",
                    "midi": 75,
                    "time": 135.01202399999983,
                    "velocity": 0.3937007874015748,
                    "duration": 0.40182150000001116
                },
                {
                    "name": "F5",
                    "midi": 77,
                    "time": 135.41384549999984,
                    "velocity": 0.36220472440944884,
                    "duration": 0.13394049999999424
                },
                {
                    "name": "D#5",
                    "midi": 75,
                    "time": 135.54778599999983,
                    "velocity": 0.3464566929133858,
                    "duration": 0.13394049999999424
                },
                {
                    "name": "D5",
                    "midi": 74,
                    "time": 135.68172649999983,
                    "velocity": 0.33858267716535434,
                    "duration": 0.13394049999999424
                },
                {
                    "name": "D#5",
                    "midi": 75,
                    "time": 135.81566699999982,
                    "velocity": 0.3937007874015748,
                    "duration": 0.40182150000001116
                },
                {
                    "name": "F5",
                    "midi": 77,
                    "time": 136.21748849999983,
                    "velocity": 0.3937007874015748,
                    "duration": 0.40182150000001116
                },
                {
                    "name": "G5",
                    "midi": 79,
                    "time": 136.61930999999984,
                    "velocity": 0.4094488188976378,
                    "duration": 0.40182150000001116
                },
                {
                    "name": "A5",
                    "midi": 81,
                    "time": 137.02113149999985,
                    "velocity": 0.3858267716535433,
                    "duration": 0.13394049999999424
                },
                {
                    "name": "G5",
                    "midi": 79,
                    "time": 137.15507199999985,
                    "velocity": 0.36220472440944884,
                    "duration": 0.13394049999999424
                },
                {
                    "name": "F5",
                    "midi": 77,
                    "time": 137.28901249999984,
                    "velocity": 0.3464566929133858,
                    "duration": 0.13394049999999424
                },
                {
                    "name": "G5",
                    "midi": 79,
                    "time": 137.42295299999984,
                    "velocity": 0.44881889763779526,
                    "duration": 0.40182150000001116
                },
                {
                    "name": "A5",
                    "midi": 81,
                    "time": 137.82477449999985,
                    "velocity": 0.4645669291338583,
                    "duration": 0.38507893749999766
                },
                {
                    "name": "A5",
                    "midi": 81,
                    "time": 138.22659599999986,
                    "velocity": 0.5354330708661418,
                    "duration": 1.205464500000005
                },
                {
                    "name": "A#5",
                    "midi": 82,
                    "time": 139.43206049999986,
                    "velocity": 0.4251968503937008,
                    "duration": 0.40182150000001116
                },
                {
                    "name": "F5",
                    "midi": 77,
                    "time": 139.83388199999987,
                    "velocity": 0.4094488188976378,
                    "duration": 0.40182150000001116
                },
                {
                    "name": "F#5",
                    "midi": 78,
                    "time": 141.4411679999999,
                    "velocity": 0.4409448818897638,
                    "duration": 0.40182150000001116
                },
                {
                    "name": "G5",
                    "midi": 79,
                    "time": 141.8429894999999,
                    "velocity": 0.4645669291338583,
                    "duration": 0.8036429999999939
                },
                {
                    "name": "G#5",
                    "midi": 80,
                    "time": 142.6466324999999,
                    "velocity": 0.3937007874015748,
                    "duration": 0.20091074999999137
                },
                {
                    "name": "G5",
                    "midi": 79,
                    "time": 142.8475432499999,
                    "velocity": 0.3937007874015748,
                    "duration": 0.20091074999999137
                },
                {
                    "name": "F5",
                    "midi": 77,
                    "time": 143.04845399999988,
                    "velocity": 0.4330708661417323,
                    "duration": 0.40182150000001116
                },
                {
                    "name": "D#5",
                    "midi": 75,
                    "time": 143.4502754999999,
                    "velocity": 0.4094488188976378,
                    "duration": 0.32145719999999756
                },
                {
                    "name": "D5",
                    "midi": 74,
                    "time": 143.8520969999999,
                    "velocity": 0.41732283464566927,
                    "duration": 0.32145719999999756
                },
                {
                    "name": "C5",
                    "midi": 72,
                    "time": 144.2539184999999,
                    "velocity": 0.41732283464566927,
                    "duration": 0.32145719999999756
                },
                {
                    "name": "G5",
                    "midi": 79,
                    "time": 144.65573999999992,
                    "velocity": 0.4645669291338583,
                    "duration": 0.40182150000001116
                },
                {
                    "name": "F5",
                    "midi": 77,
                    "time": 145.05756149999993,
                    "velocity": 0.4251968503937008,
                    "duration": 0.8036429999999939
                },
                {
                    "name": "G5",
                    "midi": 79,
                    "time": 145.86120449999993,
                    "velocity": 0.4330708661417323,
                    "duration": 0.20091074999999137
                },
                {
                    "name": "F5",
                    "midi": 77,
                    "time": 146.06211524999992,
                    "velocity": 0.4094488188976378,
                    "duration": 0.1841681875000063
                },
                {
                    "name": "F5",
                    "midi": 77,
                    "time": 146.26302599999994,
                    "velocity": 0.4251968503937008,
                    "duration": 0.20091074999999137
                },
                {
                    "name": "D#5",
                    "midi": 75,
                    "time": 146.46393674999993,
                    "velocity": 0.4015748031496063,
                    "duration": 0.1841681875000063
                },
                {
                    "name": "D#5",
                    "midi": 75,
                    "time": 146.66484749999995,
                    "velocity": 0.4330708661417323,
                    "duration": 0.20091074999999137
                },
                {
                    "name": "D5",
                    "midi": 74,
                    "time": 146.86575824999994,
                    "velocity": 0.3937007874015748,
                    "duration": 0.1841681875000063
                },
                {
                    "name": "D5",
                    "midi": 74,
                    "time": 147.06666899999996,
                    "velocity": 0.4409448818897638,
                    "duration": 0.20091074999999137
                },
                {
                    "name": "C5",
                    "midi": 72,
                    "time": 147.26757974999995,
                    "velocity": 0.41732283464566927,
                    "duration": 0.1841681875000063
                },
                {
                    "name": "C5",
                    "midi": 72,
                    "time": 147.46849049999997,
                    "velocity": 0.4645669291338583,
                    "duration": 0.20091074999999137
                },
                {
                    "name": "A#4",
                    "midi": 70,
                    "time": 147.66940124999996,
                    "velocity": 0.4645669291338583,
                    "duration": 0.1841681875000063
                },
                {
                    "name": "F5",
                    "midi": 77,
                    "time": 147.87031199999998,
                    "velocity": 0.4566929133858268,
                    "duration": 0.10045537499999568
                },
                {
                    "name": "E5",
                    "midi": 76,
                    "time": 148.07122274999998,
                    "velocity": 0.4409448818897638,
                    "duration": 0.10045537499999568
                },
                {
                    "name": "D#5",
                    "midi": 75,
                    "time": 148.27213349999997,
                    "velocity": 0.4645669291338583,
                    "duration": 0.8036429999999939
                },
                {
                    "name": "C5",
                    "midi": 72,
                    "time": 149.07577649999996,
                    "velocity": 0.4015748031496063,
                    "duration": 0.40182150000001116
                },
                {
                    "name": "D#5",
                    "midi": 75,
                    "time": 149.47759799999997,
                    "velocity": 0.4566929133858268,
                    "duration": 0.10045537499999568
                },
                {
                    "name": "C#5",
                    "midi": 73,
                    "time": 149.67850874999996,
                    "velocity": 0.4330708661417323,
                    "duration": 0.10045537499999568
                },
                {
                    "name": "D5",
                    "midi": 74,
                    "time": 149.87941949999995,
                    "velocity": 0.4566929133858268,
                    "duration": 0.8036429999999939
                },
                {
                    "name": "A#4",
                    "midi": 70,
                    "time": 150.68306249999995,
                    "velocity": 0.4251968503937008,
                    "duration": 0.40182150000001116
                },
                {
                    "name": "D5",
                    "midi": 74,
                    "time": 151.08488399999996,
                    "velocity": 0.4645669291338583,
                    "duration": 1.205464500000005
                },
                {
                    "name": "D#5",
                    "midi": 75,
                    "time": 152.29034849999996,
                    "velocity": 0.33858267716535434,
                    "duration": 0.20091074999999137
                },
                {
                    "name": "D5",
                    "midi": 74,
                    "time": 152.49125924999996,
                    "velocity": 0.33858267716535434,
                    "duration": 0.20091074999999137
                },
                {
                    "name": "C5",
                    "midi": 72,
                    "time": 152.69216999999995,
                    "velocity": 0.3937007874015748,
                    "duration": 0.20091074999999137
                },
                {
                    "name": "F5",
                    "midi": 77,
                    "time": 152.96005099999994,
                    "velocity": 0.3543307086614173,
                    "duration": 0.20091074999999137
                },
                {
                    "name": "D#5",
                    "midi": 75,
                    "time": 153.22793199999992,
                    "velocity": 0.33070866141732286,
                    "duration": 0.20091074999999137
                },
                {
                    "name": "D#5",
                    "midi": 75,
                    "time": 153.4958129999999,
                    "velocity": 0.3937007874015748,
                    "duration": 0.20091074999999137
                },
                {
                    "name": "D5",
                    "midi": 74,
                    "time": 153.6967237499999,
                    "velocity": 0.33858267716535434,
                    "duration": 0.20091074999999137
                },
                {
                    "name": "D#5",
                    "midi": 75,
                    "time": 153.8976344999999,
                    "velocity": 0.31496062992125984,
                    "duration": 0.20091074999999137
                },
                {
                    "name": "C5",
                    "midi": 72,
                    "time": 154.0985452499999,
                    "velocity": 0.3228346456692913,
                    "duration": 0.20091074999999137
                },
                {
                    "name": "A#4",
                    "midi": 70,
                    "time": 154.29945599999988,
                    "velocity": 0.3937007874015748,
                    "duration": 0.40182150000001116
                },
                {
                    "name": "C5",
                    "midi": 72,
                    "time": 154.7012774999999,
                    "velocity": 0.33858267716535434,
                    "duration": 0.13394049999999424
                },
                {
                    "name": "A#4",
                    "midi": 70,
                    "time": 154.83521799999988,
                    "velocity": 0.3464566929133858,
                    "duration": 0.13394049999999424
                },
                {
                    "name": "A4",
                    "midi": 69,
                    "time": 154.96915849999988,
                    "velocity": 0.3228346456692913,
                    "duration": 0.13394049999999424
                },
                {
                    "name": "A#4",
                    "midi": 70,
                    "time": 155.10309899999987,
                    "velocity": 0.3543307086614173,
                    "duration": 0.40182150000001116
                },
                {
                    "name": "C5",
                    "midi": 72,
                    "time": 155.50492049999988,
                    "velocity": 0.3937007874015748,
                    "duration": 0.40182150000001116
                },
                {
                    "name": "C#5",
                    "midi": 73,
                    "time": 155.9067419999999,
                    "velocity": 0.41732283464566927,
                    "duration": 0.40182150000001116
                },
                {
                    "name": "D#5",
                    "midi": 75,
                    "time": 156.3085634999999,
                    "velocity": 0.3464566929133858,
                    "duration": 0.13394049999999424
                },
                {
                    "name": "C#5",
                    "midi": 73,
                    "time": 156.4425039999999,
                    "velocity": 0.3464566929133858,
                    "duration": 0.13394049999999424
                },
                {
                    "name": "C5",
                    "midi": 72,
                    "time": 156.5764444999999,
                    "velocity": 0.3228346456692913,
                    "duration": 0.13394049999999424
                },
                {
                    "name": "C#5",
                    "midi": 73,
                    "time": 156.7103849999999,
                    "velocity": 0.4015748031496063,
                    "duration": 0.40182150000001116
                },
                {
                    "name": "D#5",
                    "midi": 75,
                    "time": 157.1122064999999,
                    "velocity": 0.4094488188976378,
                    "duration": 0.40182150000001116
                },
                {
                    "name": "E5",
                    "midi": 76,
                    "time": 157.5140279999999,
                    "velocity": 0.48031496062992124,
                    "duration": 1.205464500000005
                },
                {
                    "name": "F5",
                    "midi": 77,
                    "time": 158.71949249999992,
                    "velocity": 0.4409448818897638,
                    "duration": 0.40182150000001116
                },
                {
                    "name": "C5",
                    "midi": 72,
                    "time": 159.12131399999993,
                    "velocity": 0.4409448818897638,
                    "duration": 0.40182150000001116
                },
                {
                    "name": "D#4",
                    "midi": 63,
                    "time": 160.72859999999994,
                    "velocity": 0.5748031496062992,
                    "duration": 0.917492425000006
                },
                {
                    "name": "F4",
                    "midi": 65,
                    "time": 161.64776668124995,
                    "velocity": 0.3543307086614173,
                    "duration": 0.11384942500001216
                },
                {
                    "name": "D#4",
                    "midi": 63,
                    "time": 161.76161610624996,
                    "velocity": 0.36220472440944884,
                    "duration": 0.11552368125001067
                },
                {
                    "name": "D4",
                    "midi": 62,
                    "time": 161.87546553124997,
                    "velocity": 0.3700787401574803,
                    "duration": 0.11552368125001067
                },
                {
                    "name": "D#4",
                    "midi": 63,
                    "time": 161.99098921249998,
                    "velocity": 0.3700787401574803,
                    "duration": 0.11384942500001216
                },
                {
                    "name": "E4",
                    "midi": 64,
                    "time": 162.1048386375,
                    "velocity": 0.3779527559055118,
                    "duration": 0.11552368125001067
                },
                {
                    "name": "F4",
                    "midi": 65,
                    "time": 162.2186880625,
                    "velocity": 0.3858267716535433,
                    "duration": 0.11719793750000917
                },
                {
                    "name": "F#4",
                    "midi": 66,
                    "time": 162.33588600000002,
                    "velocity": 0.3858267716535433,
                    "duration": 0.10045537499999568
                },
                {
                    "name": "G4",
                    "midi": 67,
                    "time": 162.436341375,
                    "velocity": 0.4015748031496063,
                    "duration": 0.10045537499999568
                },
                {
                    "name": "G#4",
                    "midi": 68,
                    "time": 162.53679675,
                    "velocity": 0.4094488188976378,
                    "duration": 0.10045537499999568
                },
                {
                    "name": "A4",
                    "midi": 69,
                    "time": 162.637252125,
                    "velocity": 0.41732283464566927,
                    "duration": 0.10045537499999568
                },
                {
                    "name": "A#4",
                    "midi": 70,
                    "time": 162.7377075,
                    "velocity": 0.4330708661417323,
                    "duration": 0.10045537499999568
                },
                {
                    "name": "B4",
                    "midi": 71,
                    "time": 162.838162875,
                    "velocity": 0.4409448818897638,
                    "duration": 0.10045537499999568
                },
                {
                    "name": "C5",
                    "midi": 72,
                    "time": 162.93861825,
                    "velocity": 0.44881889763779526,
                    "duration": 0.10045537499999568
                },
                {
                    "name": "C#5",
                    "midi": 73,
                    "time": 163.039073625,
                    "velocity": 0.4566929133858268,
                    "duration": 0.10045537499999568
                },
                {
                    "name": "D5",
                    "midi": 74,
                    "time": 163.13952899999998,
                    "velocity": 0.47244094488188976,
                    "duration": 0.10045537499999568
                },
                {
                    "name": "D#5",
                    "midi": 75,
                    "time": 163.23998437499998,
                    "velocity": 0.48031496062992124,
                    "duration": 0.10045537499999568
                },
                {
                    "name": "E5",
                    "midi": 76,
                    "time": 163.34043974999997,
                    "velocity": 0.4881889763779528,
                    "duration": 0.10045537499999568
                },
                {
                    "name": "F5",
                    "midi": 77,
                    "time": 163.44089512499997,
                    "velocity": 0.5039370078740157,
                    "duration": 0.10045537499999568
                },
                {
                    "name": "F#5",
                    "midi": 78,
                    "time": 163.54135049999996,
                    "velocity": 0.5118110236220472,
                    "duration": 0.10045537499999568
                },
                {
                    "name": "G5",
                    "midi": 79,
                    "time": 163.64180587499996,
                    "velocity": 0.5196850393700787,
                    "duration": 0.10045537499999568
                },
                {
                    "name": "G#5",
                    "midi": 80,
                    "time": 163.74226124999996,
                    "velocity": 0.5275590551181102,
                    "duration": 0.10045537499999568
                },
                {
                    "name": "A5",
                    "midi": 81,
                    "time": 163.84271662499995,
                    "velocity": 0.5433070866141733,
                    "duration": 0.10045537499999568
                },
                {
                    "name": "A5",
                    "midi": 81,
                    "time": 163.94317199999995,
                    "velocity": 0.5748031496062992,
                    "duration": 0.40182150000001116
                },
                {
                    "name": "A#5",
                    "midi": 82,
                    "time": 164.34499349999996,
                    "velocity": 0.49606299212598426,
                    "duration": 0.13394049999999424
                },
                {
                    "name": "A5",
                    "midi": 81,
                    "time": 164.47893399999995,
                    "velocity": 0.48031496062992124,
                    "duration": 0.13394049999999424
                },
                {
                    "name": "G5",
                    "midi": 79,
                    "time": 164.61287449999995,
                    "velocity": 0.48031496062992124,
                    "duration": 0.13394049999999424
                },
                {
                    "name": "A5",
                    "midi": 81,
                    "time": 164.74681499999994,
                    "velocity": 0.47244094488188976,
                    "duration": 0.40182150000001116
                },
                {
                    "name": "A#5",
                    "midi": 82,
                    "time": 165.14863649999995,
                    "velocity": 0.5039370078740157,
                    "duration": 0.40182150000001116
                },
                {
                    "name": "F5",
                    "midi": 77,
                    "time": 165.55045799999996,
                    "velocity": 0.4645669291338583,
                    "duration": 0.40182150000001116
                },
                {
                    "name": "E5",
                    "midi": 76,
                    "time": 166.95683325,
                    "velocity": 0.5433070866141733,
                    "duration": 0.20091074999999137
                },
                {
                    "name": "C#6",
                    "midi": 85,
                    "time": 167.15774399999998,
                    "velocity": 0.7322834645669292,
                    "duration": 2.009107499999999
                },
                {
                    "name": "C6",
                    "midi": 84,
                    "time": 169.16685149999998,
                    "velocity": 0.47244094488188976,
                    "duration": 0.20091074999999137
                },
                {
                    "name": "A#5",
                    "midi": 82,
                    "time": 169.36776224999997,
                    "velocity": 0.4566929133858268,
                    "duration": 0.20091074999999137
                },
                {
                    "name": "G#5",
                    "midi": 80,
                    "time": 169.56867299999996,
                    "velocity": 0.44881889763779526,
                    "duration": 0.20091074999999137
                },
                {
                    "name": "G5",
                    "midi": 79,
                    "time": 169.76958374999995,
                    "velocity": 0.4409448818897638,
                    "duration": 0.20091074999999137
                },
                {
                    "name": "F5",
                    "midi": 77,
                    "time": 169.97049449999994,
                    "velocity": 0.4251968503937008,
                    "duration": 0.20091074999999137
                },
                {
                    "name": "E5",
                    "midi": 76,
                    "time": 170.17140524999994,
                    "velocity": 0.3937007874015748,
                    "duration": 0.20091074999999137
                },
                {
                    "name": "G5",
                    "midi": 79,
                    "time": 170.37231599999993,
                    "velocity": 0.44881889763779526,
                    "duration": 0.8036429999999939
                },
                {
                    "name": "F5",
                    "midi": 77,
                    "time": 171.17595899999992,
                    "velocity": 0.4881889763779528,
                    "duration": 1.205464500000005
                },
                {
                    "name": "E5",
                    "midi": 76,
                    "time": 172.38142349999993,
                    "velocity": 0.41732283464566927,
                    "duration": 0.40182150000001116
                },
                {
                    "name": "D#5",
                    "midi": 75,
                    "time": 172.78324499999994,
                    "velocity": 0.4330708661417323,
                    "duration": 0.2678809999999885
                },
                {
                    "name": "D5",
                    "midi": 74,
                    "time": 173.05112599999993,
                    "velocity": 0.4094488188976378,
                    "duration": 0.2678809999999885
                },
                {
                    "name": "C#5",
                    "midi": 73,
                    "time": 173.3190069999999,
                    "velocity": 0.4094488188976378,
                    "duration": 0.2678809999999885
                },
                {
                    "name": "C5",
                    "midi": 72,
                    "time": 173.5868879999999,
                    "velocity": 0.3937007874015748,
                    "duration": 0.40182150000001116
                },
                {
                    "name": "C#5",
                    "midi": 73,
                    "time": 173.9887094999999,
                    "velocity": 0.33858267716535434,
                    "duration": 0.13394049999999424
                },
                {
                    "name": "C5",
                    "midi": 72,
                    "time": 174.1226499999999,
                    "velocity": 0.3464566929133858,
                    "duration": 0.13394049999999424
                },
                {
                    "name": "A#4",
                    "midi": 70,
                    "time": 174.2565904999999,
                    "velocity": 0.3464566929133858,
                    "duration": 0.13394049999999424
                },
                {
                    "name": "C5",
                    "midi": 72,
                    "time": 174.3905309999999,
                    "velocity": 0.3543307086614173,
                    "duration": 0.40182150000001116
                },
                {
                    "name": "C#5",
                    "midi": 73,
                    "time": 174.7923524999999,
                    "velocity": 0.3937007874015748,
                    "duration": 0.40182150000001116
                },
                {
                    "name": "F4",
                    "midi": 65,
                    "time": 175.19417399999992,
                    "velocity": 0.3937007874015748,
                    "duration": 0.8036429999999939
                },
                {
                    "name": "G#4",
                    "midi": 68,
                    "time": 175.9978169999999,
                    "velocity": 0.3937007874015748,
                    "duration": 0.40182150000001116
                },
                {
                    "name": "E4",
                    "midi": 64,
                    "time": 175.9978169999999,
                    "velocity": 0.3464566929133858,
                    "duration": 0.8036430000000223
                },
                {
                    "name": "G4",
                    "midi": 67,
                    "time": 176.39963849999992,
                    "velocity": 0.3937007874015748,
                    "duration": 0.40182150000001116
                },
                {
                    "name": "F4",
                    "midi": 65,
                    "time": 176.80145999999993,
                    "velocity": 0.41732283464566927,
                    "duration": 0.39847298750001414
                },
                {
                    "name": "D#5",
                    "midi": 75,
                    "time": 180.01603199999994,
                    "velocity": 0.3543307086614173,
                    "duration": 0.8036429999999939
                },
                {
                    "name": "C5",
                    "midi": 72,
                    "time": 181.62331799999993,
                    "velocity": 0.3543307086614173,
                    "duration": 0.40182150000001116
                },
                {
                    "name": "A4",
                    "midi": 69,
                    "time": 182.42696099999995,
                    "velocity": 0.33070866141732286,
                    "duration": 0.40182150000001116
                },
                {
                    "name": "F5",
                    "midi": 77,
                    "time": 183.23060399999997,
                    "velocity": 0.41732283464566927,
                    "duration": 0.6027322500000025
                },
                {
                    "name": "D5",
                    "midi": 74,
                    "time": 183.83333624999997,
                    "velocity": 0.3858267716535433,
                    "duration": 0.20091074999999137
                },
                {
                    "name": "F5",
                    "midi": 77,
                    "time": 184.03424699999997,
                    "velocity": 0.41732283464566927,
                    "duration": 0.40182150000001116
                },
                {
                    "name": "F5",
                    "midi": 77,
                    "time": 186.44517599999998,
                    "velocity": 0.3858267716535433,
                    "duration": 0.40182150000001116
                },
                {
                    "name": "D#5",
                    "midi": 75,
                    "time": 186.8469975,
                    "velocity": 0.3543307086614173,
                    "duration": 0.40182150000001116
                },
                {
                    "name": "D5",
                    "midi": 74,
                    "time": 188.052462,
                    "velocity": 0.3543307086614173,
                    "duration": 0.40182150000001116
                },
                {
                    "name": "C5",
                    "midi": 72,
                    "time": 188.4542835,
                    "velocity": 0.3228346456692913,
                    "duration": 0.20091074999999137
                },
                {
                    "name": "A#4",
                    "midi": 70,
                    "time": 188.85610499999999,
                    "velocity": 0.33070866141732286,
                    "duration": 0.40182150000001116
                },
                {
                    "name": "A4",
                    "midi": 69,
                    "time": 189.2579265,
                    "velocity": 0.30708661417322836,
                    "duration": 0.20091074999999137
                },
                {
                    "name": "F5",
                    "midi": 77,
                    "time": 189.65974799999998,
                    "velocity": 0.41732283464566927,
                    "duration": 0.6027322500000025
                },
                {
                    "name": "D5",
                    "midi": 74,
                    "time": 190.26248024999998,
                    "velocity": 0.3937007874015748,
                    "duration": 0.20091074999999137
                },
                {
                    "name": "F5",
                    "midi": 77,
                    "time": 190.46339099999997,
                    "velocity": 0.41732283464566927,
                    "duration": 0.40182150000001116
                },
                {
                    "name": "D6",
                    "midi": 86,
                    "time": 191.267034,
                    "velocity": 0.5511811023622047,
                    "duration": 0.40182150000001116
                },
                {
                    "name": "A#5",
                    "midi": 82,
                    "time": 191.267034,
                    "velocity": 0.4645669291338583,
                    "duration": 0.40182150000001116
                },
                {
                    "name": "A5",
                    "midi": 81,
                    "time": 191.6688555,
                    "velocity": 0.4251968503937008,
                    "duration": 0.40182150000001116
                },
                {
                    "name": "C6",
                    "midi": 84,
                    "time": 191.6688555,
                    "velocity": 0.5039370078740157,
                    "duration": 0.40182150000001116
                },
                {
                    "name": "A#5",
                    "midi": 82,
                    "time": 192.07067700000002,
                    "velocity": 0.44881889763779526,
                    "duration": 0.36163934999999015
                },
                {
                    "name": "G5",
                    "midi": 79,
                    "time": 192.07067700000002,
                    "velocity": 0.3779527559055118,
                    "duration": 0.36163934999999015
                },
                {
                    "name": "F#5",
                    "midi": 78,
                    "time": 192.4724985,
                    "velocity": 0.3779527559055118,
                    "duration": 0.36163934999999015
                },
                {
                    "name": "A5",
                    "midi": 81,
                    "time": 192.4724985,
                    "velocity": 0.44881889763779526,
                    "duration": 0.36163934999999015
                },
                {
                    "name": "A#5",
                    "midi": 82,
                    "time": 192.87431999999998,
                    "velocity": 0.5511811023622047,
                    "duration": 0.40182150000001116
                },
                {
                    "name": "G5",
                    "midi": 79,
                    "time": 192.87431999999998,
                    "velocity": 0.4645669291338583,
                    "duration": 0.40182150000001116
                },
                {
                    "name": "A5",
                    "midi": 81,
                    "time": 193.2761415,
                    "velocity": 0.5039370078740157,
                    "duration": 0.40182150000001116
                },
                {
                    "name": "F5",
                    "midi": 77,
                    "time": 193.2761415,
                    "velocity": 0.4251968503937008,
                    "duration": 0.40182150000001116
                },
                {
                    "name": "G5",
                    "midi": 79,
                    "time": 193.677963,
                    "velocity": 0.4645669291338583,
                    "duration": 0.36163934999999015
                },
                {
                    "name": "D#5",
                    "midi": 75,
                    "time": 193.677963,
                    "velocity": 0.3937007874015748,
                    "duration": 0.36163934999999015
                },
                {
                    "name": "D5",
                    "midi": 74,
                    "time": 194.0797845,
                    "velocity": 0.3937007874015748,
                    "duration": 0.36163934999999015
                },
                {
                    "name": "F#5",
                    "midi": 78,
                    "time": 194.0797845,
                    "velocity": 0.4645669291338583,
                    "duration": 0.36163934999999015
                },
                {
                    "name": "D#5",
                    "midi": 75,
                    "time": 194.48160599999997,
                    "velocity": 0.4645669291338583,
                    "duration": 0.40182150000001116
                },
                {
                    "name": "G5",
                    "midi": 79,
                    "time": 194.48160599999997,
                    "velocity": 0.5511811023622047,
                    "duration": 0.40182150000001116
                },
                {
                    "name": "D5",
                    "midi": 74,
                    "time": 194.88342749999998,
                    "velocity": 0.41732283464566927,
                    "duration": 0.40182150000001116
                },
                {
                    "name": "F5",
                    "midi": 77,
                    "time": 194.88342749999998,
                    "velocity": 0.49606299212598426,
                    "duration": 0.40182150000001116
                },
                {
                    "name": "D#5",
                    "midi": 75,
                    "time": 195.285249,
                    "velocity": 0.4645669291338583,
                    "duration": 0.36163934999999015
                },
                {
                    "name": "C5",
                    "midi": 72,
                    "time": 195.285249,
                    "velocity": 0.3937007874015748,
                    "duration": 0.36163934999999015
                },
                {
                    "name": "B4",
                    "midi": 71,
                    "time": 195.68707049999998,
                    "velocity": 0.3858267716535433,
                    "duration": 0.36163934999999015
                },
                {
                    "name": "D5",
                    "midi": 74,
                    "time": 195.68707049999998,
                    "velocity": 0.4566929133858268,
                    "duration": 0.36163934999999015
                },
                {
                    "name": "G4",
                    "midi": 67,
                    "time": 196.08889199999996,
                    "velocity": 0.3858267716535433,
                    "duration": 2.009107499999999
                },
                {
                    "name": "D5",
                    "midi": 74,
                    "time": 196.08889199999996,
                    "velocity": 0.5275590551181102,
                    "duration": 1.6072859999999878
                },
                {
                    "name": "B4",
                    "midi": 71,
                    "time": 196.08889199999996,
                    "velocity": 0.3858267716535433,
                    "duration": 1.6072859999999878
                },
                {
                    "name": "C5",
                    "midi": 72,
                    "time": 197.69617799999995,
                    "velocity": 0.3228346456692913,
                    "duration": 0.40182150000001116
                },
                {
                    "name": "D#5",
                    "midi": 75,
                    "time": 197.69617799999995,
                    "velocity": 0.3858267716535433,
                    "duration": 0.6027322500000025
                },
                {
                    "name": "G5",
                    "midi": 79,
                    "time": 198.29891024999995,
                    "velocity": 0.3543307086614173,
                    "duration": 0.06697024999999712
                },
                {
                    "name": "F5",
                    "midi": 77,
                    "time": 198.36588049999995,
                    "velocity": 0.3543307086614173,
                    "duration": 0.06697024999999712
                },
                {
                    "name": "D#5",
                    "midi": 75,
                    "time": 198.43285074999994,
                    "velocity": 0.3543307086614173,
                    "duration": 0.06697024999999712
                },
                {
                    "name": "F5",
                    "midi": 77,
                    "time": 198.49982099999994,
                    "velocity": 0.3937007874015748,
                    "duration": 0.40182150000001116
                },
                {
                    "name": "G5",
                    "midi": 79,
                    "time": 198.90164249999995,
                    "velocity": 0.3779527559055118,
                    "duration": 0.40182150000001116
                },
                {
                    "name": "G5",
                    "midi": 79,
                    "time": 199.30346399999996,
                    "velocity": 0.3858267716535433,
                    "duration": 0.20091074999999137
                },
                {
                    "name": "F5",
                    "midi": 77,
                    "time": 199.50437474999995,
                    "velocity": 0.3543307086614173,
                    "duration": 0.20091074999999137
                },
                {
                    "name": "D#5",
                    "midi": 75,
                    "time": 199.70528549999995,
                    "velocity": 0.3543307086614173,
                    "duration": 0.20091074999999137
                },
                {
                    "name": "D5",
                    "midi": 74,
                    "time": 199.90619624999994,
                    "velocity": 0.3543307086614173,
                    "duration": 0.20091074999999137
                },
                {
                    "name": "B4",
                    "midi": 71,
                    "time": 200.10710699999993,
                    "velocity": 0.3858267716535433,
                    "duration": 0.20091074999999137
                },
                {
                    "name": "C5",
                    "midi": 72,
                    "time": 200.30801774999992,
                    "velocity": 0.33070866141732286,
                    "duration": 0.20091074999999137
                },
                {
                    "name": "D#5",
                    "midi": 75,
                    "time": 200.5089284999999,
                    "velocity": 0.33070866141732286,
                    "duration": 0.20091074999999137
                },
                {
                    "name": "G5",
                    "midi": 79,
                    "time": 200.7098392499999,
                    "velocity": 0.33070866141732286,
                    "duration": 0.20091074999999137
                },
                {
                    "name": "A#4",
                    "midi": 70,
                    "time": 200.9107499999999,
                    "velocity": 0.3937007874015748,
                    "duration": 0.8036429999999939
                },
                {
                    "name": "C5",
                    "midi": 72,
                    "time": 201.7143929999999,
                    "velocity": 0.3543307086614173,
                    "duration": 0.8036429999999939
                },
                {
                    "name": "A4",
                    "midi": 69,
                    "time": 201.7143929999999,
                    "velocity": 0.2992125984251969,
                    "duration": 0.8036429999999939
                },
                {
                    "name": "A4",
                    "midi": 69,
                    "time": 202.51803599999988,
                    "velocity": 0.2992125984251969,
                    "duration": 0.8036429999999939
                },
                {
                    "name": "C5",
                    "midi": 72,
                    "time": 202.51803599999988,
                    "velocity": 0.3779527559055118,
                    "duration": 0.6027322500000025
                },
                {
                    "name": "C#5",
                    "midi": 73,
                    "time": 203.12076824999988,
                    "velocity": 0.2755905511811024,
                    "duration": 0.20091074999999137
                },
                {
                    "name": "D5",
                    "midi": 74,
                    "time": 203.32167899999988,
                    "velocity": 0.3464566929133858,
                    "duration": 0.8036429999999939
                },
                {
                    "name": "A#4",
                    "midi": 70,
                    "time": 203.32167899999988,
                    "velocity": 0.2992125984251969,
                    "duration": 0.8036429999999939
                },
                {
                    "name": "F5",
                    "midi": 77,
                    "time": 205.73260799999986,
                    "velocity": 0.3543307086614173,
                    "duration": 0.40182150000001116
                },
                {
                    "name": "D#5",
                    "midi": 75,
                    "time": 206.13442949999987,
                    "velocity": 0.3543307086614173,
                    "duration": 0.40182150000001116
                },
                {
                    "name": "D5",
                    "midi": 74,
                    "time": 207.33989399999987,
                    "velocity": 0.3543307086614173,
                    "duration": 0.40182150000001116
                },
                {
                    "name": "C5",
                    "midi": 72,
                    "time": 207.74171549999988,
                    "velocity": 0.33858267716535434,
                    "duration": 0.40182150000001116
                },
                {
                    "name": "A#4",
                    "midi": 70,
                    "time": 208.1435369999999,
                    "velocity": 0.33070866141732286,
                    "duration": 0.40182150000001116
                },
                {
                    "name": "A4",
                    "midi": 69,
                    "time": 208.5453584999999,
                    "velocity": 0.31496062992125984,
                    "duration": 0.40182150000001116
                },
                {
                    "name": "F5",
                    "midi": 77,
                    "time": 208.94717999999992,
                    "velocity": 0.41732283464566927,
                    "duration": 0.6027322500000025
                },
                {
                    "name": "D5",
                    "midi": 74,
                    "time": 209.54991224999992,
                    "velocity": 0.3858267716535433,
                    "duration": 0.20091074999999137
                },
                {
                    "name": "F5",
                    "midi": 77,
                    "time": 209.7508229999999,
                    "velocity": 0.41732283464566927,
                    "duration": 0.40182150000001116
                },
                {
                    "name": "F5",
                    "midi": 77,
                    "time": 212.16175199999992,
                    "velocity": 0.3937007874015748,
                    "duration": 0.10045537499999568
                },
                {
                    "name": "E5",
                    "midi": 76,
                    "time": 212.3626627499999,
                    "velocity": 0.3779527559055118,
                    "duration": 0.10045537499999568
                },
                {
                    "name": "D#5",
                    "midi": 75,
                    "time": 212.5635734999999,
                    "velocity": 0.3543307086614173,
                    "duration": 0.40182150000001116
                },
                {
                    "name": "D5",
                    "midi": 74,
                    "time": 213.7690379999999,
                    "velocity": 0.3858267716535433,
                    "duration": 0.10045537499999568
                },
                {
                    "name": "D5",
                    "midi": 74,
                    "time": 213.9699487499999,
                    "velocity": 0.33858267716535434,
                    "duration": 0.20091074999999137
                },
                {
                    "name": "D#5",
                    "midi": 75,
                    "time": 214.1708594999999,
                    "velocity": 0.3543307086614173,
                    "duration": 0.20091074999999137
                },
                {
                    "name": "C5",
                    "midi": 72,
                    "time": 214.37177024999988,
                    "velocity": 0.31496062992125984,
                    "duration": 0.20091074999999137
                },
                {
                    "name": "A#4",
                    "midi": 70,
                    "time": 214.57268099999987,
                    "velocity": 0.3700787401574803,
                    "duration": 0.10045537499999568
                },
                {
                    "name": "A#4",
                    "midi": 70,
                    "time": 214.77359174999987,
                    "velocity": 0.3228346456692913,
                    "duration": 0.20091074999999137
                },
                {
                    "name": "C5",
                    "midi": 72,
                    "time": 214.97450249999986,
                    "velocity": 0.36220472440944884,
                    "duration": 0.20091074999999137
                },
                {
                    "name": "A4",
                    "midi": 69,
                    "time": 215.17541324999985,
                    "velocity": 0.31496062992125984,
                    "duration": 0.20091074999999137
                },
                {
                    "name": "F5",
                    "midi": 77,
                    "time": 215.37632399999984,
                    "velocity": 0.41732283464566927,
                    "duration": 0.20091074999999137
                },
                {
                    "name": "G5",
                    "midi": 79,
                    "time": 215.57723474999983,
                    "velocity": 0.3700787401574803,
                    "duration": 0.06697024999999712
                },
                {
                    "name": "F5",
                    "midi": 77,
                    "time": 215.64420499999983,
                    "velocity": 0.3700787401574803,
                    "duration": 0.06697024999999712
                },
                {
                    "name": "E5",
                    "midi": 76,
                    "time": 215.71117524999983,
                    "velocity": 0.36220472440944884,
                    "duration": 0.06697024999999712
                },
                {
                    "name": "F5",
                    "midi": 77,
                    "time": 215.77814549999982,
                    "velocity": 0.41732283464566927,
                    "duration": 0.20091074999999137
                },
                {
                    "name": "A#5",
                    "midi": 82,
                    "time": 215.97905624999981,
                    "velocity": 0.3937007874015748,
                    "duration": 0.20091074999999137
                },
                {
                    "name": "F5",
                    "midi": 77,
                    "time": 216.1799669999998,
                    "velocity": 0.41732283464566927,
                    "duration": 0.40182150000001116
                },
                {
                    "name": "A#5",
                    "midi": 82,
                    "time": 217.18452074999982,
                    "velocity": 0.3937007874015748,
                    "duration": 0.40182150000001116
                },
                {
                    "name": "D6",
                    "midi": 86,
                    "time": 217.18452074999982,
                    "velocity": 0.4645669291338583,
                    "duration": 0.40182150000001116
                },
                {
                    "name": "C6",
                    "midi": 84,
                    "time": 217.58634224999983,
                    "velocity": 0.4251968503937008,
                    "duration": 0.40182150000001116
                },
                {
                    "name": "A5",
                    "midi": 81,
                    "time": 217.58634224999983,
                    "velocity": 0.3543307086614173,
                    "duration": 0.40182150000001116
                },
                {
                    "name": "G5",
                    "midi": 79,
                    "time": 217.98816374999984,
                    "velocity": 0.31496062992125984,
                    "duration": 0.40182150000001116
                },
                {
                    "name": "A#5",
                    "midi": 82,
                    "time": 217.98816374999984,
                    "velocity": 0.3779527559055118,
                    "duration": 0.40182150000001116
                },
                {
                    "name": "A5",
                    "midi": 81,
                    "time": 218.38998524999985,
                    "velocity": 0.3779527559055118,
                    "duration": 0.40182150000001116
                },
                {
                    "name": "F#5",
                    "midi": 78,
                    "time": 218.38998524999985,
                    "velocity": 0.31496062992125984,
                    "duration": 0.40182150000001116
                },
                {
                    "name": "A#5",
                    "midi": 82,
                    "time": 218.79180674999986,
                    "velocity": 0.4645669291338583,
                    "duration": 0.40182150000001116
                },
                {
                    "name": "G5",
                    "midi": 79,
                    "time": 218.79180674999986,
                    "velocity": 0.3937007874015748,
                    "duration": 0.40182150000001116
                },
                {
                    "name": "F5",
                    "midi": 77,
                    "time": 219.19362824999988,
                    "velocity": 0.3543307086614173,
                    "duration": 0.40182150000001116
                },
                {
                    "name": "A5",
                    "midi": 81,
                    "time": 219.19362824999988,
                    "velocity": 0.4251968503937008,
                    "duration": 0.40182150000001116
                },
                {
                    "name": "G5",
                    "midi": 79,
                    "time": 219.5954497499999,
                    "velocity": 0.3937007874015748,
                    "duration": 0.40182150000001116
                },
                {
                    "name": "D#5",
                    "midi": 75,
                    "time": 219.5954497499999,
                    "velocity": 0.33070866141732286,
                    "duration": 0.40182150000001116
                },
                {
                    "name": "F#5",
                    "midi": 78,
                    "time": 219.9972712499999,
                    "velocity": 0.3937007874015748,
                    "duration": 0.40182150000001116
                },
                {
                    "name": "D5",
                    "midi": 74,
                    "time": 219.9972712499999,
                    "velocity": 0.33070866141732286,
                    "duration": 0.40182150000001116
                },
                {
                    "name": "D#5",
                    "midi": 75,
                    "time": 220.3990927499999,
                    "velocity": 0.3937007874015748,
                    "duration": 0.40182150000001116
                },
                {
                    "name": "G5",
                    "midi": 79,
                    "time": 220.3990927499999,
                    "velocity": 0.4645669291338583,
                    "duration": 0.40182150000001116
                },
                {
                    "name": "D5",
                    "midi": 74,
                    "time": 220.80091424999992,
                    "velocity": 0.3543307086614173,
                    "duration": 0.40182150000001116
                },
                {
                    "name": "F5",
                    "midi": 77,
                    "time": 220.80091424999992,
                    "velocity": 0.41732283464566927,
                    "duration": 0.40182150000001116
                },
                {
                    "name": "D#5",
                    "midi": 75,
                    "time": 221.20273574999993,
                    "velocity": 0.3937007874015748,
                    "duration": 0.40182150000001116
                },
                {
                    "name": "C5",
                    "midi": 72,
                    "time": 221.20273574999993,
                    "velocity": 0.33070866141732286,
                    "duration": 0.40182150000001116
                },
                {
                    "name": "B4",
                    "midi": 71,
                    "time": 221.60455724999994,
                    "velocity": 0.3228346456692913,
                    "duration": 0.1841681875000063
                },
                {
                    "name": "D5",
                    "midi": 74,
                    "time": 221.60455724999994,
                    "velocity": 0.3858267716535433,
                    "duration": 0.1841681875000063
                },
                {
                    "name": "D5",
                    "midi": 74,
                    "time": 221.80546799999996,
                    "velocity": 0.4566929133858268,
                    "duration": 1.6072859999999878
                },
                {
                    "name": "B4",
                    "midi": 71,
                    "time": 221.80546799999996,
                    "velocity": 0.3858267716535433,
                    "duration": 1.6072859999999878
                },
                {
                    "name": "G4",
                    "midi": 67,
                    "time": 221.80546799999996,
                    "velocity": 0.3858267716535433,
                    "duration": 2.009107499999999
                },
                {
                    "name": "D#5",
                    "midi": 75,
                    "time": 223.41275399999995,
                    "velocity": 0.3858267716535433,
                    "duration": 0.6027322500000025
                },
                {
                    "name": "C5",
                    "midi": 72,
                    "time": 223.41275399999995,
                    "velocity": 0.3228346456692913,
                    "duration": 0.40182150000001116
                },
                {
                    "name": "G5",
                    "midi": 79,
                    "time": 224.01548624999995,
                    "velocity": 0.3543307086614173,
                    "duration": 0.06697024999999712
                },
                {
                    "name": "F5",
                    "midi": 77,
                    "time": 224.08245649999995,
                    "velocity": 0.3228346456692913,
                    "duration": 0.06697024999999712
                },
                {
                    "name": "D#5",
                    "midi": 75,
                    "time": 224.14942674999995,
                    "velocity": 0.3228346456692913,
                    "duration": 0.06697024999999712
                },
                {
                    "name": "F5",
                    "midi": 77,
                    "time": 224.21639699999994,
                    "velocity": 0.3937007874015748,
                    "duration": 0.40182150000001116
                },
                {
                    "name": "G5",
                    "midi": 79,
                    "time": 224.61821849999995,
                    "velocity": 0.3779527559055118,
                    "duration": 0.40182150000001116
                },
                {
                    "name": "F5",
                    "midi": 77,
                    "time": 225.02003999999997,
                    "velocity": 0.3858267716535433,
                    "duration": 0.2678809999999885
                },
                {
                    "name": "A#5",
                    "midi": 82,
                    "time": 225.28792099999995,
                    "velocity": 0.3543307086614173,
                    "duration": 0.2678809999999885
                },
                {
                    "name": "D5",
                    "midi": 74,
                    "time": 225.55580199999994,
                    "velocity": 0.3543307086614173,
                    "duration": 0.2678809999999885
                },
                {
                    "name": "C5",
                    "midi": 72,
                    "time": 225.82368299999993,
                    "velocity": 0.3779527559055118,
                    "duration": 0.2678809999999885
                },
                {
                    "name": "D#5",
                    "midi": 75,
                    "time": 226.09156399999992,
                    "velocity": 0.3543307086614173,
                    "duration": 0.2678809999999885
                },
                {
                    "name": "G5",
                    "midi": 79,
                    "time": 226.3594449999999,
                    "velocity": 0.3543307086614173,
                    "duration": 0.2678809999999885
                },
                {
                    "name": "A#4",
                    "midi": 70,
                    "time": 226.6273259999999,
                    "velocity": 0.3937007874015748,
                    "duration": 0.8036429999999939
                },
                {
                    "name": "A4",
                    "midi": 69,
                    "time": 227.4309689999999,
                    "velocity": 0.3543307086614173,
                    "duration": 0.7534153125000103
                },
                {
                    "name": "D4",
                    "midi": 62,
                    "time": 228.1843843124999,
                    "velocity": 0.4409448818897638,
                    "duration": 0.05022768750001205
                },
                {
                    "name": "D5",
                    "midi": 74,
                    "time": 228.2346119999999,
                    "velocity": 0.5748031496062992,
                    "duration": 1.1050091250000094
                },
                {
                    "name": "A#4",
                    "midi": 70,
                    "time": 229.33962112499992,
                    "velocity": 0.3858267716535433,
                    "duration": 0.10045537499999568
                },
                {
                    "name": "A#4",
                    "midi": 70,
                    "time": 229.44007649999992,
                    "velocity": 0.41732283464566927,
                    "duration": 0.0803643000000136
                },
                {
                    "name": "C5",
                    "midi": 72,
                    "time": 229.52044079999993,
                    "velocity": 0.3937007874015748,
                    "duration": 0.0803643000000136
                },
                {
                    "name": "A#4",
                    "midi": 70,
                    "time": 229.60080509999995,
                    "velocity": 0.4251968503937008,
                    "duration": 0.0803643000000136
                },
                {
                    "name": "A4",
                    "midi": 69,
                    "time": 229.68116939999996,
                    "velocity": 0.4015748031496063,
                    "duration": 0.0803643000000136
                },
                {
                    "name": "A#4",
                    "midi": 70,
                    "time": 229.76153369999997,
                    "velocity": 0.4251968503937008,
                    "duration": 0.0803643000000136
                },
                {
                    "name": "D#4",
                    "midi": 63,
                    "time": 229.841898,
                    "velocity": 0.47244094488188976,
                    "duration": 0.1004553750000241
                },
                {
                    "name": "D#5",
                    "midi": 75,
                    "time": 229.8921256875,
                    "velocity": 0.5826771653543307,
                    "duration": 1.0547814375000257
                },
                {
                    "name": "C5",
                    "midi": 72,
                    "time": 230.94690712500002,
                    "velocity": 0.41732283464566927,
                    "duration": 0.10045537499999568
                },
                {
                    "name": "C5",
                    "midi": 72,
                    "time": 231.04736250000002,
                    "velocity": 0.4409448818897638,
                    "duration": 0.0803643000000136
                },
                {
                    "name": "D5",
                    "midi": 74,
                    "time": 231.12772680000003,
                    "velocity": 0.4251968503937008,
                    "duration": 0.0803643000000136
                },
                {
                    "name": "C5",
                    "midi": 72,
                    "time": 231.20809110000005,
                    "velocity": 0.4409448818897638,
                    "duration": 0.0803643000000136
                },
                {
                    "name": "B4",
                    "midi": 71,
                    "time": 231.28845540000006,
                    "velocity": 0.41732283464566927,
                    "duration": 0.0803643000000136
                },
                {
                    "name": "C5",
                    "midi": 72,
                    "time": 231.36881970000007,
                    "velocity": 0.4409448818897638,
                    "duration": 0.0803643000000136
                },
                {
                    "name": "F5",
                    "midi": 77,
                    "time": 231.4491840000001,
                    "velocity": 0.5826771653543307,
                    "duration": 0.6027322500000025
                },
                {
                    "name": "D5",
                    "midi": 74,
                    "time": 232.0519162500001,
                    "velocity": 0.48031496062992124,
                    "duration": 0.20091074999999137
                },
                {
                    "name": "A#5",
                    "midi": 82,
                    "time": 232.25282700000008,
                    "velocity": 0.5433070866141733,
                    "duration": 1.205464500000005
                },
                {
                    "name": "G#5",
                    "midi": 80,
                    "time": 233.4582915000001,
                    "velocity": 0.4881889763779528,
                    "duration": 0.40182150000001116
                },
                {
                    "name": "G5",
                    "midi": 79,
                    "time": 233.8601130000001,
                    "velocity": 0.5275590551181102,
                    "duration": 0.40182150000001116
                },
                {
                    "name": "F#5",
                    "midi": 78,
                    "time": 234.2619345000001,
                    "velocity": 0.4881889763779528,
                    "duration": 0.6027322500000025
                },
                {
                    "name": "G5",
                    "midi": 79,
                    "time": 234.8646667500001,
                    "velocity": 0.5433070866141733,
                    "duration": 0.20091074999999137
                },
                {
                    "name": "A#5",
                    "midi": 82,
                    "time": 235.0655775000001,
                    "velocity": 0.4881889763779528,
                    "duration": 0.20091074999999137
                },
                {
                    "name": "G5",
                    "midi": 79,
                    "time": 235.2664882500001,
                    "velocity": 0.49606299212598426,
                    "duration": 0.20091074999999137
                },
                {
                    "name": "D5",
                    "midi": 74,
                    "time": 235.46739900000009,
                    "velocity": 0.5039370078740157,
                    "duration": 0.20091074999999137
                },
                {
                    "name": "D#5",
                    "midi": 75,
                    "time": 235.66830975000008,
                    "velocity": 0.47244094488188976,
                    "duration": 0.20091074999999137
                },
                {
                    "name": "G5",
                    "midi": 79,
                    "time": 235.86922050000007,
                    "velocity": 0.47244094488188976,
                    "duration": 0.20091074999999137
                },
                {
                    "name": "D#5",
                    "midi": 75,
                    "time": 236.07013125000006,
                    "velocity": 0.47244094488188976,
                    "duration": 0.21765331250000486
                },
                {
                    "name": "B4",
                    "midi": 71,
                    "time": 236.27104200000005,
                    "velocity": 0.5354330708661418,
                    "duration": 0.2009107500000198
                },
                {
                    "name": "C5",
                    "midi": 72,
                    "time": 236.47195275000007,
                    "velocity": 0.47244094488188976,
                    "duration": 0.21765331250000486
                },
                {
                    "name": "D#5",
                    "midi": 75,
                    "time": 236.67286350000006,
                    "velocity": 0.47244094488188976,
                    "duration": 0.2009107500000198
                },
                {
                    "name": "D5",
                    "midi": 74,
                    "time": 236.87377425000008,
                    "velocity": 0.47244094488188976,
                    "duration": 0.21765331250000486
                },
                {
                    "name": "F5",
                    "midi": 77,
                    "time": 237.07468500000007,
                    "velocity": 0.49606299212598426,
                    "duration": 0.2009107500000198
                },
                {
                    "name": "D#5",
                    "midi": 75,
                    "time": 237.2755957500001,
                    "velocity": 0.4881889763779528,
                    "duration": 0.21765331250000486
                },
                {
                    "name": "D5",
                    "midi": 74,
                    "time": 237.47650650000008,
                    "velocity": 0.47244094488188976,
                    "duration": 0.2009107500000198
                },
                {
                    "name": "C5",
                    "midi": 72,
                    "time": 237.6774172500001,
                    "velocity": 0.4566929133858268,
                    "duration": 0.10045537499999568
                },
                {
                    "name": "F4",
                    "midi": 65,
                    "time": 237.7778726250001,
                    "velocity": 0.36220472440944884,
                    "duration": 0.10045537499999568
                },
                {
                    "name": "F5",
                    "midi": 77,
                    "time": 237.8783280000001,
                    "velocity": 0.47244094488188976,
                    "duration": 0.40182150000001116
                },
                {
                    "name": "F5",
                    "midi": 77,
                    "time": 238.2801495000001,
                    "velocity": 0.47244094488188976,
                    "duration": 0.8036429999999939
                },
                {
                    "name": "F5",
                    "midi": 77,
                    "time": 239.0837925000001,
                    "velocity": 0.5039370078740157,
                    "duration": 0.6027322500000025
                },
                {
                    "name": "D#5",
                    "midi": 75,
                    "time": 239.6865247500001,
                    "velocity": 0.47244094488188976,
                    "duration": 0.20091074999999137
                },
                {
                    "name": "D5",
                    "midi": 74,
                    "time": 239.8874355000001,
                    "velocity": 0.47244094488188976,
                    "duration": 0.20091074999999137
                },
                {
                    "name": "D#5",
                    "midi": 75,
                    "time": 240.0883462500001,
                    "velocity": 0.47244094488188976,
                    "duration": 0.20091074999999137
                },
                {
                    "name": "F5",
                    "midi": 77,
                    "time": 240.28925700000008,
                    "velocity": 0.47244094488188976,
                    "duration": 0.20091074999999137
                },
                {
                    "name": "G5",
                    "midi": 79,
                    "time": 240.49016775000007,
                    "velocity": 0.48031496062992124,
                    "duration": 0.20091074999999137
                },
                {
                    "name": "A5",
                    "midi": 81,
                    "time": 240.69107850000006,
                    "velocity": 0.4881889763779528,
                    "duration": 0.20091074999999137
                },
                {
                    "name": "A#5",
                    "midi": 82,
                    "time": 240.89198925000005,
                    "velocity": 0.49606299212598426,
                    "duration": 0.10045537499999568
                },
                {
                    "name": "A#4",
                    "midi": 70,
                    "time": 240.99244462500005,
                    "velocity": 0.3464566929133858,
                    "duration": 0.03348512499999856
                },
                {
                    "name": "C5",
                    "midi": 72,
                    "time": 241.02592975000005,
                    "velocity": 0.3464566929133858,
                    "duration": 0.03348512499999856
                },
                {
                    "name": "D5",
                    "midi": 74,
                    "time": 241.05941487500004,
                    "velocity": 0.3464566929133858,
                    "duration": 0.03348512499999856
                },
                {
                    "name": "C5",
                    "midi": 72,
                    "time": 241.09290000000004,
                    "velocity": 0.3464566929133858,
                    "duration": 0.08538706875000912
                },
                {
                    "name": "D5",
                    "midi": 74,
                    "time": 241.17828706875005,
                    "velocity": 0.3228346456692913,
                    "duration": 0.08371281250001061
                },
                {
                    "name": "C5",
                    "midi": 72,
                    "time": 241.26199988125006,
                    "velocity": 0.3464566929133858,
                    "duration": 0.08538706875000912
                },
                {
                    "name": "D5",
                    "midi": 74,
                    "time": 241.34571269375007,
                    "velocity": 0.30708661417322836,
                    "duration": 0.08538706875000912
                },
                {
                    "name": "C5",
                    "midi": 72,
                    "time": 241.43109976250008,
                    "velocity": 0.3464566929133858,
                    "duration": 0.08371281250001061
                },
                {
                    "name": "D5",
                    "midi": 74,
                    "time": 241.5148125750001,
                    "velocity": 0.30708661417322836,
                    "duration": 0.08538706875000912
                },
                {
                    "name": "C5",
                    "midi": 72,
                    "time": 241.6001996437501,
                    "velocity": 0.3464566929133858,
                    "duration": 0.08371281250001061
                },
                {
                    "name": "D5",
                    "midi": 74,
                    "time": 241.6839124562501,
                    "velocity": 0.30708661417322836,
                    "duration": 0.08538706875000912
                },
                {
                    "name": "C5",
                    "midi": 72,
                    "time": 241.76762526875012,
                    "velocity": 0.3464566929133858,
                    "duration": 0.08538706875000912
                },
                {
                    "name": "D5",
                    "midi": 74,
                    "time": 241.85301233750013,
                    "velocity": 0.30708661417322836,
                    "duration": 0.08371281250001061
                },
                {
                    "name": "C5",
                    "midi": 72,
                    "time": 241.93672515000014,
                    "velocity": 0.3464566929133858,
                    "duration": 0.08538706875000912
                },
                {
                    "name": "D5",
                    "midi": 74,
                    "time": 242.02211221875015,
                    "velocity": 0.2992125984251969,
                    "duration": 0.08371281250001061
                },
                {
                    "name": "C5",
                    "midi": 72,
                    "time": 242.10582503125016,
                    "velocity": 0.3464566929133858,
                    "duration": 0.08538706875000912
                },
                {
                    "name": "D5",
                    "midi": 74,
                    "time": 242.18953784375017,
                    "velocity": 0.2992125984251969,
                    "duration": 0.08538706875000912
                },
                {
                    "name": "C5",
                    "midi": 72,
                    "time": 242.27492491250018,
                    "velocity": 0.3464566929133858,
                    "duration": 0.08371281250001061
                },
                {
                    "name": "D5",
                    "midi": 74,
                    "time": 242.3586377250002,
                    "velocity": 0.2992125984251969,
                    "duration": 0.08538706875000912
                },
                {
                    "name": "C5",
                    "midi": 72,
                    "time": 242.4440247937502,
                    "velocity": 0.33858267716535434,
                    "duration": 0.08371281250001061
                },
                {
                    "name": "D5",
                    "midi": 74,
                    "time": 242.5277376062502,
                    "velocity": 0.2992125984251969,
                    "duration": 0.08538706875000912
                },
                {
                    "name": "C5",
                    "midi": 72,
                    "time": 242.61145041875022,
                    "velocity": 0.33858267716535434,
                    "duration": 0.08538706875000912
                },
                {
                    "name": "D5",
                    "midi": 74,
                    "time": 242.69683748750023,
                    "velocity": 0.28346456692913385,
                    "duration": 0.08371281250001061
                },
                {
                    "name": "C5",
                    "midi": 72,
                    "time": 242.78055030000024,
                    "velocity": 0.33070866141732286,
                    "duration": 0.08538706875000912
                },
                {
                    "name": "D5",
                    "midi": 74,
                    "time": 242.86593736875025,
                    "velocity": 0.28346456692913385,
                    "duration": 0.08371281250001061
                },
                {
                    "name": "C5",
                    "midi": 72,
                    "time": 242.94965018125026,
                    "velocity": 0.33070866141732286,
                    "duration": 0.08538706875000912
                },
                {
                    "name": "D5",
                    "midi": 74,
                    "time": 243.03336299375027,
                    "velocity": 0.28346456692913385,
                    "duration": 0.08538706875000912
                },
                {
                    "name": "C5",
                    "midi": 72,
                    "time": 243.10200750000027,
                    "velocity": 0.33070866141732286,
                    "duration": 0.1004553750000241
                },
                {
                    "name": "D5",
                    "midi": 74,
                    "time": 243.2024628750003,
                    "velocity": 0.31496062992125984,
                    "duration": 0.10045537499999568
                },
                {
                    "name": "C5",
                    "midi": 72,
                    "time": 243.3029182500003,
                    "velocity": 0.33070866141732286,
                    "duration": 0.10045537499999568
                },
                {
                    "name": "D5",
                    "midi": 74,
                    "time": 243.40337362500028,
                    "velocity": 0.30708661417322836,
                    "duration": 0.10045537499999568
                },
                {
                    "name": "C5",
                    "midi": 72,
                    "time": 243.50382900000028,
                    "velocity": 0.33070866141732286,
                    "duration": 0.10045537499999568
                },
                {
                    "name": "D5",
                    "midi": 74,
                    "time": 243.60428437500028,
                    "velocity": 0.28346456692913385,
                    "duration": 0.10045537499999568
                },
                {
                    "name": "C5",
                    "midi": 72,
                    "time": 243.70473975000027,
                    "velocity": 0.33070866141732286,
                    "duration": 0.10045537499999568
                },
                {
                    "name": "D5",
                    "midi": 74,
                    "time": 243.80519512500027,
                    "velocity": 0.29133858267716534,
                    "duration": 0.10045537499999568
                },
                {
                    "name": "C5",
                    "midi": 72,
                    "time": 243.90565050000026,
                    "velocity": 0.2992125984251969,
                    "duration": 0.13394049999999424
                },
                {
                    "name": "A#4",
                    "midi": 70,
                    "time": 244.03959100000026,
                    "velocity": 0.3779527559055118,
                    "duration": 0.13394049999999424
                },
                {
                    "name": "C5",
                    "midi": 72,
                    "time": 244.17353150000025,
                    "velocity": 0.33070866141732286,
                    "duration": 0.13394049999999424
                },
                {
                    "name": "A#4",
                    "midi": 70,
                    "time": 244.30747200000025,
                    "velocity": 0.41732283464566927,
                    "duration": 0.8036429999999939
                },
                {
                    "name": "A#4",
                    "midi": 70,
                    "time": 245.41248112500023,
                    "velocity": 0.3858267716535433,
                    "duration": 0.10045537499999568
                },
                {
                    "name": "A#4",
                    "midi": 70,
                    "time": 245.51293650000022,
                    "velocity": 0.3937007874015748,
                    "duration": 0.0803643000000136
                },
                {
                    "name": "C5",
                    "midi": 72,
                    "time": 245.59330080000024,
                    "velocity": 0.4015748031496063,
                    "duration": 0.0803643000000136
                },
                {
                    "name": "A#4",
                    "midi": 70,
                    "time": 245.67366510000025,
                    "velocity": 0.4015748031496063,
                    "duration": 0.0803643000000136
                },
                {
                    "name": "A4",
                    "midi": 69,
                    "time": 245.75402940000026,
                    "velocity": 0.4251968503937008,
                    "duration": 0.0803643000000136
                },
                {
                    "name": "A#4",
                    "midi": 70,
                    "time": 245.83439370000028,
                    "velocity": 0.4251968503937008,
                    "duration": 0.0803643000000136
                },
                {
                    "name": "F5",
                    "midi": 77,
                    "time": 245.9147580000003,
                    "velocity": 0.49606299212598426,
                    "duration": 0.40182150000001116
                },
                {
                    "name": "D#5",
                    "midi": 75,
                    "time": 246.3165795000003,
                    "velocity": 0.4566929133858268,
                    "duration": 0.40182150000001116
                },
                {
                    "name": "D5",
                    "midi": 74,
                    "time": 246.7184010000003,
                    "velocity": 0.41732283464566927,
                    "duration": 0.40182150000001116
                },
                {
                    "name": "C5",
                    "midi": 72,
                    "time": 247.12022250000032,
                    "velocity": 0.41732283464566927,
                    "duration": 0.38507893749999766
                },
                {
                    "name": "C5",
                    "midi": 72,
                    "time": 247.52204400000034,
                    "velocity": 0.4881889763779528,
                    "duration": 0.40182150000001116
                },
                {
                    "name": "A#4",
                    "midi": 70,
                    "time": 247.92386550000035,
                    "velocity": 0.4015748031496063,
                    "duration": 0.40182150000001116
                },
                {
                    "name": "A#4",
                    "midi": 70,
                    "time": 248.62705312500034,
                    "velocity": 0.3858267716535433,
                    "duration": 0.10045537499999568
                },
                {
                    "name": "A#4",
                    "midi": 70,
                    "time": 248.72750850000034,
                    "velocity": 0.3937007874015748,
                    "duration": 0.0803643000000136
                },
                {
                    "name": "C5",
                    "midi": 72,
                    "time": 248.80787280000035,
                    "velocity": 0.4015748031496063,
                    "duration": 0.0803643000000136
                },
                {
                    "name": "A#4",
                    "midi": 70,
                    "time": 248.88823710000037,
                    "velocity": 0.4015748031496063,
                    "duration": 0.0803643000000136
                },
                {
                    "name": "A4",
                    "midi": 69,
                    "time": 248.96860140000038,
                    "velocity": 0.4251968503937008,
                    "duration": 0.0803643000000136
                },
                {
                    "name": "A#4",
                    "midi": 70,
                    "time": 249.0489657000004,
                    "velocity": 0.4251968503937008,
                    "duration": 0.0803643000000136
                },
                {
                    "name": "F5",
                    "midi": 77,
                    "time": 249.1293300000004,
                    "velocity": 0.49606299212598426,
                    "duration": 0.40182150000001116
                },
                {
                    "name": "D#5",
                    "midi": 75,
                    "time": 249.53115150000042,
                    "velocity": 0.4566929133858268,
                    "duration": 0.40182150000001116
                },
                {
                    "name": "D5",
                    "midi": 74,
                    "time": 249.93297300000043,
                    "velocity": 0.41732283464566927,
                    "duration": 0.40182150000001116
                },
                {
                    "name": "C5",
                    "midi": 72,
                    "time": 250.33479450000044,
                    "velocity": 0.41732283464566927,
                    "duration": 0.40182150000001116
                },
                {
                    "name": "A#4",
                    "midi": 70,
                    "time": 250.73661600000045,
                    "velocity": 0.4645669291338583,
                    "duration": 0.40182150000001116
                },
                {
                    "name": "D#5",
                    "midi": 75,
                    "time": 251.54025900000047,
                    "velocity": 0.3779527559055118,
                    "duration": 0.6027322500000025
                },
                {
                    "name": "A4",
                    "midi": 69,
                    "time": 252.14299125000048,
                    "velocity": 0.3937007874015748,
                    "duration": 0.20091074999999137
                },
                {
                    "name": "A#4",
                    "midi": 70,
                    "time": 252.34390200000047,
                    "velocity": 0.4409448818897638,
                    "duration": 0.40182150000001116
                },
                {
                    "name": "G5",
                    "midi": 79,
                    "time": 253.1475450000005,
                    "velocity": 0.5039370078740157,
                    "duration": 0.6027322500000025
                },
                {
                    "name": "A4",
                    "midi": 69,
                    "time": 253.7502772500005,
                    "velocity": 0.3543307086614173,
                    "duration": 0.20091074999999137
                },
                {
                    "name": "F4",
                    "midi": 65,
                    "time": 253.95118800000049,
                    "velocity": 0.28346456692913385,
                    "duration": 2.4109289999999817
                },
                {
                    "name": "C4",
                    "midi": 60,
                    "time": 253.95118800000049,
                    "velocity": 0.28346456692913385,
                    "duration": 1.6072859999999878
                },
                {
                    "name": "A4",
                    "midi": 69,
                    "time": 253.95118800000049,
                    "velocity": 0.3543307086614173,
                    "duration": 1.6072859999999878
                },
                {
                    "name": "D#4",
                    "midi": 63,
                    "time": 253.95118800000049,
                    "velocity": 0.28346456692913385,
                    "duration": 1.6072859999999878
                },
                {
                    "name": "D4",
                    "midi": 62,
                    "time": 255.55847400000047,
                    "velocity": 0.1889763779527559,
                    "duration": 0.8036429999999939
                },
                {
                    "name": "A#4",
                    "midi": 70,
                    "time": 255.55847400000047,
                    "velocity": 0.2440944881889764,
                    "duration": 0.8036429999999939
                }
            ],
            "controlChanges": {
                "7": [
                    {
                        "number": 7,
                        "time": 0,
                        "value": 0.7874015748031497
                    }
                ],
                "10": [
                    {
                        "number": 10,
                        "time": 0,
                        "value": 0.5039370078740157
                    }
                ],
                "91": [
                    {
                        "number": 91,
                        "time": 0,
                        "value": 1
                    }
                ]
            },
            "id": 1,
            "name": "Piano right",
            "instrumentNumber": 0,
            "instrument": "acoustic grand piano",
            "instrumentFamily": "piano",
            "channelNumber": 0,
            "isPercussion": false
        },
        {
            "startTime": 0,
            "duration": 256.36211700000126,
            "length": 655,
            "notes": [
                {
                    "name": "A#3",
                    "midi": 58,
                    "time": 0,
                    "velocity": 0.28346456692913385,
                    "duration": 0.4018215
                },
                {
                    "name": "F4",
                    "midi": 65,
                    "time": 0.4018215,
                    "velocity": 0.2125984251968504,
                    "duration": 0.4018215
                },
                {
                    "name": "D4",
                    "midi": 62,
                    "time": 0.803643,
                    "velocity": 0.2125984251968504,
                    "duration": 0.40182149999999994
                },
                {
                    "name": "F4",
                    "midi": 65,
                    "time": 1.2054645,
                    "velocity": 0.2125984251968504,
                    "duration": 0.40182150000000005
                },
                {
                    "name": "A#3",
                    "midi": 58,
                    "time": 1.607286,
                    "velocity": 0.28346456692913385,
                    "duration": 0.40182149999999983
                },
                {
                    "name": "F4",
                    "midi": 65,
                    "time": 2.0091075,
                    "velocity": 0.2204724409448819,
                    "duration": 0.40182150000000005
                },
                {
                    "name": "D4",
                    "midi": 62,
                    "time": 2.410929,
                    "velocity": 0.2204724409448819,
                    "duration": 0.40182150000000005
                },
                {
                    "name": "F4",
                    "midi": 65,
                    "time": 2.8127505,
                    "velocity": 0.2204724409448819,
                    "duration": 0.40182150000000005
                },
                {
                    "name": "A3",
                    "midi": 57,
                    "time": 3.214572,
                    "velocity": 0.28346456692913385,
                    "duration": 0.40182150000000005
                },
                {
                    "name": "F4",
                    "midi": 65,
                    "time": 3.6163935,
                    "velocity": 0.1968503937007874,
                    "duration": 0.4018214999999996
                },
                {
                    "name": "C4",
                    "midi": 60,
                    "time": 4.018215,
                    "velocity": 0.2125984251968504,
                    "duration": 0.4018214999999996
                },
                {
                    "name": "F4",
                    "midi": 65,
                    "time": 4.420036499999999,
                    "velocity": 0.1889763779527559,
                    "duration": 0.4018214999999996
                },
                {
                    "name": "A3",
                    "midi": 57,
                    "time": 4.821857999999999,
                    "velocity": 0.23622047244094488,
                    "duration": 0.4018214999999996
                },
                {
                    "name": "F4",
                    "midi": 65,
                    "time": 5.2236794999999985,
                    "velocity": 0.1732283464566929,
                    "duration": 0.4018214999999996
                },
                {
                    "name": "C4",
                    "midi": 60,
                    "time": 5.625500999999998,
                    "velocity": 0.2125984251968504,
                    "duration": 0.4018214999999996
                },
                {
                    "name": "F4",
                    "midi": 65,
                    "time": 6.027322499999998,
                    "velocity": 0.18110236220472442,
                    "duration": 0.4018214999999996
                },
                {
                    "name": "G3",
                    "midi": 55,
                    "time": 6.429143999999997,
                    "velocity": 0.28346456692913385,
                    "duration": 0.4018214999999996
                },
                {
                    "name": "D#4",
                    "midi": 63,
                    "time": 6.830965499999997,
                    "velocity": 0.25196850393700787,
                    "duration": 0.4018214999999996
                },
                {
                    "name": "A#3",
                    "midi": 58,
                    "time": 7.2327869999999965,
                    "velocity": 0.25196850393700787,
                    "duration": 0.4018214999999996
                },
                {
                    "name": "D#4",
                    "midi": 63,
                    "time": 7.634608499999996,
                    "velocity": 0.25196850393700787,
                    "duration": 0.4018214999999996
                },
                {
                    "name": "D#3",
                    "midi": 51,
                    "time": 8.036429999999996,
                    "velocity": 0.28346456692913385,
                    "duration": 0.4018215000000005
                },
                {
                    "name": "A#3",
                    "midi": 58,
                    "time": 8.438251499999996,
                    "velocity": 0.25984251968503935,
                    "duration": 0.4018215000000005
                },
                {
                    "name": "G3",
                    "midi": 55,
                    "time": 8.840072999999997,
                    "velocity": 0.2755905511811024,
                    "duration": 0.4018215000000005
                },
                {
                    "name": "A#3",
                    "midi": 58,
                    "time": 9.241894499999997,
                    "velocity": 0.28346456692913385,
                    "duration": 0.4018215000000005
                },
                {
                    "name": "D3",
                    "midi": 50,
                    "time": 9.643715999999998,
                    "velocity": 0.3228346456692913,
                    "duration": 0.4018215000000005
                },
                {
                    "name": "A#3",
                    "midi": 58,
                    "time": 10.045537499999998,
                    "velocity": 0.23622047244094488,
                    "duration": 0.4018215000000005
                },
                {
                    "name": "F3",
                    "midi": 53,
                    "time": 10.447358999999999,
                    "velocity": 0.2755905511811024,
                    "duration": 0.4018215000000005
                },
                {
                    "name": "A#3",
                    "midi": 58,
                    "time": 10.8491805,
                    "velocity": 0.2204724409448819,
                    "duration": 0.4018215000000005
                },
                {
                    "name": "D3",
                    "midi": 50,
                    "time": 11.251002,
                    "velocity": 0.28346456692913385,
                    "duration": 0.4018215000000005
                },
                {
                    "name": "A#3",
                    "midi": 58,
                    "time": 11.6528235,
                    "velocity": 0.2047244094488189,
                    "duration": 0.4018215000000005
                },
                {
                    "name": "F3",
                    "midi": 53,
                    "time": 12.054645,
                    "velocity": 0.2440944881889764,
                    "duration": 0.4018215000000005
                },
                {
                    "name": "A#3",
                    "midi": 58,
                    "time": 12.456466500000001,
                    "velocity": 0.2125984251968504,
                    "duration": 0.4018215000000005
                },
                {
                    "name": "D#3",
                    "midi": 51,
                    "time": 12.858288000000002,
                    "velocity": 0.28346456692913385,
                    "duration": 0.4018215000000005
                },
                {
                    "name": "G3",
                    "midi": 55,
                    "time": 13.260109500000002,
                    "velocity": 0.2125984251968504,
                    "duration": 0.4018215000000005
                },
                {
                    "name": "D#3",
                    "midi": 51,
                    "time": 13.661931000000003,
                    "velocity": 0.2440944881889764,
                    "duration": 0.4018215000000005
                },
                {
                    "name": "B3",
                    "midi": 59,
                    "time": 14.063752500000003,
                    "velocity": 0.2125984251968504,
                    "duration": 0.4018215000000005
                },
                {
                    "name": "D#3",
                    "midi": 51,
                    "time": 14.465574000000004,
                    "velocity": 0.2677165354330709,
                    "duration": 0.4018215000000005
                },
                {
                    "name": "C4",
                    "midi": 60,
                    "time": 14.867395500000004,
                    "velocity": 0.2125984251968504,
                    "duration": 0.4018215000000005
                },
                {
                    "name": "D#3",
                    "midi": 51,
                    "time": 15.269217000000005,
                    "velocity": 0.2125984251968504,
                    "duration": 0.4018215000000005
                },
                {
                    "name": "D#4",
                    "midi": 63,
                    "time": 15.671038500000005,
                    "velocity": 0.2125984251968504,
                    "duration": 0.4018215000000005
                },
                {
                    "name": "D3",
                    "midi": 50,
                    "time": 16.072860000000006,
                    "velocity": 0.28346456692913385,
                    "duration": 0.4018215000000005
                },
                {
                    "name": "F3",
                    "midi": 53,
                    "time": 16.474681500000006,
                    "velocity": 0.2283464566929134,
                    "duration": 0.4018215000000005
                },
                {
                    "name": "D3",
                    "midi": 50,
                    "time": 16.876503000000007,
                    "velocity": 0.25984251968503935,
                    "duration": 0.4018215000000005
                },
                {
                    "name": "A3",
                    "midi": 57,
                    "time": 17.278324500000007,
                    "velocity": 0.25984251968503935,
                    "duration": 0.4018215000000005
                },
                {
                    "name": "D3",
                    "midi": 50,
                    "time": 17.680146000000008,
                    "velocity": 0.28346456692913385,
                    "duration": 0.4018215000000005
                },
                {
                    "name": "A#3",
                    "midi": 58,
                    "time": 18.081967500000008,
                    "velocity": 0.23622047244094488,
                    "duration": 0.4018215000000005
                },
                {
                    "name": "D3",
                    "midi": 50,
                    "time": 18.48378900000001,
                    "velocity": 0.2440944881889764,
                    "duration": 0.4018215000000005
                },
                {
                    "name": "D4",
                    "midi": 62,
                    "time": 18.88561050000001,
                    "velocity": 0.25984251968503935,
                    "duration": 0.4018215000000005
                },
                {
                    "name": "F3",
                    "midi": 53,
                    "time": 19.28743200000001,
                    "velocity": 0.28346456692913385,
                    "duration": 0.4018215000000005
                },
                {
                    "name": "F4",
                    "midi": 65,
                    "time": 19.68925350000001,
                    "velocity": 0.23622047244094488,
                    "duration": 0.4018215000000005
                },
                {
                    "name": "C4",
                    "midi": 60,
                    "time": 20.09107500000001,
                    "velocity": 0.23622047244094488,
                    "duration": 0.4018215000000005
                },
                {
                    "name": "F4",
                    "midi": 65,
                    "time": 20.49289650000001,
                    "velocity": 0.1968503937007874,
                    "duration": 0.4018215000000005
                },
                {
                    "name": "A#3",
                    "midi": 58,
                    "time": 20.89471800000001,
                    "velocity": 0.28346456692913385,
                    "duration": 0.4018215000000005
                },
                {
                    "name": "F4",
                    "midi": 65,
                    "time": 21.296539500000012,
                    "velocity": 0.2204724409448819,
                    "duration": 0.4018215000000005
                },
                {
                    "name": "D4",
                    "midi": 62,
                    "time": 21.698361000000013,
                    "velocity": 0.2440944881889764,
                    "duration": 0.4018215000000005
                },
                {
                    "name": "F4",
                    "midi": 65,
                    "time": 22.100182500000013,
                    "velocity": 0.23622047244094488,
                    "duration": 0.4018215000000005
                },
                {
                    "name": "F3",
                    "midi": 53,
                    "time": 22.502004000000014,
                    "velocity": 0.28346456692913385,
                    "duration": 0.4018215000000005
                },
                {
                    "name": "D4",
                    "midi": 62,
                    "time": 22.903825500000014,
                    "velocity": 0.1968503937007874,
                    "duration": 0.4018215000000005
                },
                {
                    "name": "A#3",
                    "midi": 58,
                    "time": 23.305647000000015,
                    "velocity": 0.1968503937007874,
                    "duration": 0.4018215000000005
                },
                {
                    "name": "D4",
                    "midi": 62,
                    "time": 23.707468500000015,
                    "velocity": 0.1968503937007874,
                    "duration": 0.4018215000000005
                },
                {
                    "name": "F3",
                    "midi": 53,
                    "time": 24.109290000000016,
                    "velocity": 0.28346456692913385,
                    "duration": 0.803643000000001
                },
                {
                    "name": "C4",
                    "midi": 60,
                    "time": 24.109290000000016,
                    "velocity": 0.28346456692913385,
                    "duration": 0.803643000000001
                },
                {
                    "name": "A3",
                    "midi": 57,
                    "time": 24.109290000000016,
                    "velocity": 0.28346456692913385,
                    "duration": 0.803643000000001
                },
                {
                    "name": "A#3",
                    "midi": 58,
                    "time": 25.716576000000018,
                    "velocity": 0.28346456692913385,
                    "duration": 0.4018215000000005
                },
                {
                    "name": "F4",
                    "midi": 65,
                    "time": 26.118397500000018,
                    "velocity": 0.2440944881889764,
                    "duration": 0.4018215000000005
                },
                {
                    "name": "C#4",
                    "midi": 61,
                    "time": 26.52021900000002,
                    "velocity": 0.2440944881889764,
                    "duration": 0.4018215000000005
                },
                {
                    "name": "F4",
                    "midi": 65,
                    "time": 26.92204050000002,
                    "velocity": 0.2440944881889764,
                    "duration": 0.4018215000000005
                },
                {
                    "name": "A#3",
                    "midi": 58,
                    "time": 27.32386200000002,
                    "velocity": 0.28346456692913385,
                    "duration": 0.4018215000000005
                },
                {
                    "name": "F4",
                    "midi": 65,
                    "time": 27.72568350000002,
                    "velocity": 0.2440944881889764,
                    "duration": 0.4018215000000005
                },
                {
                    "name": "C#4",
                    "midi": 61,
                    "time": 28.12750500000002,
                    "velocity": 0.2440944881889764,
                    "duration": 0.4018215000000005
                },
                {
                    "name": "F4",
                    "midi": 65,
                    "time": 28.52932650000002,
                    "velocity": 0.2440944881889764,
                    "duration": 0.4018215000000005
                },
                {
                    "name": "G#3",
                    "midi": 56,
                    "time": 28.93114800000002,
                    "velocity": 0.28346456692913385,
                    "duration": 0.4018215000000005
                },
                {
                    "name": "F4",
                    "midi": 65,
                    "time": 29.332969500000022,
                    "velocity": 0.2125984251968504,
                    "duration": 0.4018215000000005
                },
                {
                    "name": "C4",
                    "midi": 60,
                    "time": 29.734791000000023,
                    "velocity": 0.2283464566929134,
                    "duration": 0.4018215000000005
                },
                {
                    "name": "F4",
                    "midi": 65,
                    "time": 30.136612500000023,
                    "velocity": 0.2125984251968504,
                    "duration": 0.4018215000000005
                },
                {
                    "name": "G#3",
                    "midi": 56,
                    "time": 30.538434000000024,
                    "velocity": 0.28346456692913385,
                    "duration": 0.4018215000000005
                },
                {
                    "name": "F4",
                    "midi": 65,
                    "time": 30.940255500000024,
                    "velocity": 0.2125984251968504,
                    "duration": 0.4018215000000005
                },
                {
                    "name": "C4",
                    "midi": 60,
                    "time": 31.342077000000025,
                    "velocity": 0.23622047244094488,
                    "duration": 0.4018215000000005
                },
                {
                    "name": "F4",
                    "midi": 65,
                    "time": 31.743898500000025,
                    "velocity": 0.2047244094488189,
                    "duration": 0.4018215000000005
                },
                {
                    "name": "F#3",
                    "midi": 54,
                    "time": 32.145720000000026,
                    "velocity": 0.28346456692913385,
                    "duration": 0.40182149999999695
                },
                {
                    "name": "D#4",
                    "midi": 63,
                    "time": 32.54754150000002,
                    "velocity": 0.25196850393700787,
                    "duration": 0.40182149999999695
                },
                {
                    "name": "A#3",
                    "midi": 58,
                    "time": 32.94936300000002,
                    "velocity": 0.25196850393700787,
                    "duration": 0.40182149999999695
                },
                {
                    "name": "D#4",
                    "midi": 63,
                    "time": 33.351184500000016,
                    "velocity": 0.25196850393700787,
                    "duration": 0.40182149999999695
                },
                {
                    "name": "D#3",
                    "midi": 51,
                    "time": 33.75300600000001,
                    "velocity": 0.30708661417322836,
                    "duration": 0.40182149999999695
                },
                {
                    "name": "A#3",
                    "midi": 58,
                    "time": 34.15482750000001,
                    "velocity": 0.25984251968503935,
                    "duration": 0.40182149999999695
                },
                {
                    "name": "F#3",
                    "midi": 54,
                    "time": 34.55664900000001,
                    "velocity": 0.28346456692913385,
                    "duration": 0.40182149999999695
                },
                {
                    "name": "A#3",
                    "midi": 58,
                    "time": 34.958470500000004,
                    "velocity": 0.28346456692913385,
                    "duration": 0.40182149999999695
                },
                {
                    "name": "D3",
                    "midi": 50,
                    "time": 35.360292,
                    "velocity": 0.3464566929133858,
                    "duration": 0.40182149999999695
                },
                {
                    "name": "A#3",
                    "midi": 58,
                    "time": 35.7621135,
                    "velocity": 0.2755905511811024,
                    "duration": 0.40182149999999695
                },
                {
                    "name": "F3",
                    "midi": 53,
                    "time": 36.163934999999995,
                    "velocity": 0.33070866141732286,
                    "duration": 0.40182149999999695
                },
                {
                    "name": "A#3",
                    "midi": 58,
                    "time": 36.56575649999999,
                    "velocity": 0.31496062992125984,
                    "duration": 0.40182149999999695
                },
                {
                    "name": "C#3",
                    "midi": 49,
                    "time": 36.96757799999999,
                    "velocity": 0.36220472440944884,
                    "duration": 0.40182149999999695
                },
                {
                    "name": "A#3",
                    "midi": 58,
                    "time": 37.369399499999986,
                    "velocity": 0.3543307086614173,
                    "duration": 0.40182149999999695
                },
                {
                    "name": "F3",
                    "midi": 53,
                    "time": 37.77122099999998,
                    "velocity": 0.3937007874015748,
                    "duration": 0.40182149999999695
                },
                {
                    "name": "A#3",
                    "midi": 58,
                    "time": 38.17304249999998,
                    "velocity": 0.3543307086614173,
                    "duration": 0.40182149999999695
                },
                {
                    "name": "C3",
                    "midi": 48,
                    "time": 38.57486399999998,
                    "velocity": 0.4251968503937008,
                    "duration": 0.40182149999999695
                },
                {
                    "name": "A#3",
                    "midi": 58,
                    "time": 38.976685499999974,
                    "velocity": 0.28346456692913385,
                    "duration": 0.40182149999999695
                },
                {
                    "name": "G3",
                    "midi": 55,
                    "time": 39.37850699999997,
                    "velocity": 0.28346456692913385,
                    "duration": 0.40182149999999695
                },
                {
                    "name": "A#3",
                    "midi": 58,
                    "time": 39.78032849999997,
                    "velocity": 0.28346456692913385,
                    "duration": 0.40182149999999695
                },
                {
                    "name": "C3",
                    "midi": 48,
                    "time": 40.182149999999965,
                    "velocity": 0.29133858267716534,
                    "duration": 0.40182149999999695
                },
                {
                    "name": "A#3",
                    "midi": 58,
                    "time": 40.58397149999996,
                    "velocity": 0.1889763779527559,
                    "duration": 0.40182149999999695
                },
                {
                    "name": "G3",
                    "midi": 55,
                    "time": 40.98579299999996,
                    "velocity": 0.2125984251968504,
                    "duration": 0.40182149999999695
                },
                {
                    "name": "A#3",
                    "midi": 58,
                    "time": 41.387614499999955,
                    "velocity": 0.18110236220472442,
                    "duration": 0.40182149999999695
                },
                {
                    "name": "C#3",
                    "midi": 49,
                    "time": 41.78943599999995,
                    "velocity": 0.2677165354330709,
                    "duration": 0.40182149999999695
                },
                {
                    "name": "G#3",
                    "midi": 56,
                    "time": 42.19125749999995,
                    "velocity": 0.1732283464566929,
                    "duration": 0.40182149999999695
                },
                {
                    "name": "F3",
                    "midi": 53,
                    "time": 42.593078999999946,
                    "velocity": 0.2125984251968504,
                    "duration": 0.40182149999999695
                },
                {
                    "name": "G#3",
                    "midi": 56,
                    "time": 42.99490049999994,
                    "velocity": 0.18110236220472442,
                    "duration": 0.40182149999999695
                },
                {
                    "name": "A#2",
                    "midi": 46,
                    "time": 43.39672199999994,
                    "velocity": 0.2283464566929134,
                    "duration": 0.40182149999999695
                },
                {
                    "name": "G3",
                    "midi": 55,
                    "time": 43.79854349999994,
                    "velocity": 0.1732283464566929,
                    "duration": 0.40182149999999695
                },
                {
                    "name": "C#3",
                    "midi": 49,
                    "time": 44.200364999999934,
                    "velocity": 0.18110236220472442,
                    "duration": 0.40182149999999695
                },
                {
                    "name": "G3",
                    "midi": 55,
                    "time": 44.60218649999993,
                    "velocity": 0.1732283464566929,
                    "duration": 0.40182149999999695
                },
                {
                    "name": "C3",
                    "midi": 48,
                    "time": 45.00400799999993,
                    "velocity": 0.23622047244094488,
                    "duration": 0.40182149999999695
                },
                {
                    "name": "G#3",
                    "midi": 56,
                    "time": 45.405829499999925,
                    "velocity": 0.2047244094488189,
                    "duration": 0.40182149999999695
                },
                {
                    "name": "F3",
                    "midi": 53,
                    "time": 45.80765099999992,
                    "velocity": 0.2047244094488189,
                    "duration": 0.40182149999999695
                },
                {
                    "name": "G#3",
                    "midi": 56,
                    "time": 46.20947249999992,
                    "velocity": 0.2047244094488189,
                    "duration": 0.40182149999999695
                },
                {
                    "name": "C3",
                    "midi": 48,
                    "time": 46.611293999999916,
                    "velocity": 0.23622047244094488,
                    "duration": 0.40182149999999695
                },
                {
                    "name": "A#3",
                    "midi": 58,
                    "time": 47.01311549999991,
                    "velocity": 0.2047244094488189,
                    "duration": 0.40182149999999695
                },
                {
                    "name": "G3",
                    "midi": 55,
                    "time": 47.41493699999991,
                    "velocity": 0.2047244094488189,
                    "duration": 0.40182149999999695
                },
                {
                    "name": "A#3",
                    "midi": 58,
                    "time": 47.81675849999991,
                    "velocity": 0.2047244094488189,
                    "duration": 0.40182149999999695
                },
                {
                    "name": "F3",
                    "midi": 53,
                    "time": 48.2185799999999,
                    "velocity": 0.2125984251968504,
                    "duration": 0.8036429999999939
                },
                {
                    "name": "A3",
                    "midi": 57,
                    "time": 48.2185799999999,
                    "velocity": 0.2992125984251969,
                    "duration": 0.40182149999999695
                },
                {
                    "name": "C4",
                    "midi": 60,
                    "time": 48.6204014999999,
                    "velocity": 0.23622047244094488,
                    "duration": 0.20091074999999847
                },
                {
                    "name": "C4",
                    "midi": 60,
                    "time": 49.0222229999999,
                    "velocity": 0.23622047244094488,
                    "duration": 0.20091074999999847
                },
                {
                    "name": "C4",
                    "midi": 60,
                    "time": 49.424044499999894,
                    "velocity": 0.23622047244094488,
                    "duration": 0.20091074999999847
                },
                {
                    "name": "F3",
                    "midi": 53,
                    "time": 49.82586599999989,
                    "velocity": 0.25196850393700787,
                    "duration": 0.8036429999999939
                },
                {
                    "name": "A3",
                    "midi": 57,
                    "time": 49.82586599999989,
                    "velocity": 0.2992125984251969,
                    "duration": 0.40182149999999695
                },
                {
                    "name": "C4",
                    "midi": 60,
                    "time": 50.22768749999989,
                    "velocity": 0.2204724409448819,
                    "duration": 0.40182149999999695
                },
                {
                    "name": "A#3",
                    "midi": 58,
                    "time": 50.629508999999885,
                    "velocity": 0.2204724409448819,
                    "duration": 0.40182149999999695
                },
                {
                    "name": "G3",
                    "midi": 55,
                    "time": 50.629508999999885,
                    "velocity": 0.18110236220472442,
                    "duration": 0.8036429999999939
                },
                {
                    "name": "C4",
                    "midi": 60,
                    "time": 51.03133049999988,
                    "velocity": 0.2204724409448819,
                    "duration": 0.40182149999999695
                },
                {
                    "name": "E3",
                    "midi": 52,
                    "time": 51.43315199999988,
                    "velocity": 0.2283464566929134,
                    "duration": 0.8036429999999939
                },
                {
                    "name": "G3",
                    "midi": 55,
                    "time": 51.43315199999988,
                    "velocity": 0.2755905511811024,
                    "duration": 0.40182149999999695
                },
                {
                    "name": "C4",
                    "midi": 60,
                    "time": 51.834973499999876,
                    "velocity": 0.23622047244094488,
                    "duration": 0.20091074999999847
                },
                {
                    "name": "C4",
                    "midi": 60,
                    "time": 52.23679499999987,
                    "velocity": 0.23622047244094488,
                    "duration": 0.20091074999999847
                },
                {
                    "name": "C4",
                    "midi": 60,
                    "time": 52.63861649999987,
                    "velocity": 0.23622047244094488,
                    "duration": 0.20091074999999847
                },
                {
                    "name": "C3",
                    "midi": 48,
                    "time": 53.04043799999987,
                    "velocity": 0.2204724409448819,
                    "duration": 0.8036429999999939
                },
                {
                    "name": "E3",
                    "midi": 52,
                    "time": 53.04043799999987,
                    "velocity": 0.2677165354330709,
                    "duration": 0.40182149999999695
                },
                {
                    "name": "C4",
                    "midi": 60,
                    "time": 53.442259499999864,
                    "velocity": 0.2440944881889764,
                    "duration": 0.40182149999999695
                },
                {
                    "name": "A#3",
                    "midi": 58,
                    "time": 53.84408099999986,
                    "velocity": 0.2440944881889764,
                    "duration": 0.40182149999999695
                },
                {
                    "name": "G3",
                    "midi": 55,
                    "time": 53.84408099999986,
                    "velocity": 0.2047244094488189,
                    "duration": 0.8036429999999939
                },
                {
                    "name": "C4",
                    "midi": 60,
                    "time": 54.24590249999986,
                    "velocity": 0.2440944881889764,
                    "duration": 0.40182149999999695
                },
                {
                    "name": "F3",
                    "midi": 53,
                    "time": 54.647723999999855,
                    "velocity": 0.25196850393700787,
                    "duration": 0.8036429999999939
                },
                {
                    "name": "A3",
                    "midi": 57,
                    "time": 54.647723999999855,
                    "velocity": 0.2992125984251969,
                    "duration": 0.40182149999999695
                },
                {
                    "name": "C4",
                    "midi": 60,
                    "time": 55.04954549999985,
                    "velocity": 0.23622047244094488,
                    "duration": 0.20091074999999847
                },
                {
                    "name": "C4",
                    "midi": 60,
                    "time": 55.45136699999985,
                    "velocity": 0.23622047244094488,
                    "duration": 0.20091074999999847
                },
                {
                    "name": "C4",
                    "midi": 60,
                    "time": 55.853188499999845,
                    "velocity": 0.23622047244094488,
                    "duration": 0.20091074999999847
                },
                {
                    "name": "A3",
                    "midi": 57,
                    "time": 56.25500999999984,
                    "velocity": 0.2992125984251969,
                    "duration": 0.40182149999999695
                },
                {
                    "name": "F3",
                    "midi": 53,
                    "time": 56.25500999999984,
                    "velocity": 0.25196850393700787,
                    "duration": 0.8036429999999939
                },
                {
                    "name": "C4",
                    "midi": 60,
                    "time": 56.65683149999984,
                    "velocity": 0.2204724409448819,
                    "duration": 0.40182149999999695
                },
                {
                    "name": "G3",
                    "midi": 55,
                    "time": 57.058652999999836,
                    "velocity": 0.18110236220472442,
                    "duration": 0.8036429999999939
                },
                {
                    "name": "A#3",
                    "midi": 58,
                    "time": 57.058652999999836,
                    "velocity": 0.2204724409448819,
                    "duration": 0.40182149999999695
                },
                {
                    "name": "C4",
                    "midi": 60,
                    "time": 57.46047449999983,
                    "velocity": 0.2204724409448819,
                    "duration": 0.40182149999999695
                },
                {
                    "name": "G3",
                    "midi": 55,
                    "time": 57.86229599999983,
                    "velocity": 0.2755905511811024,
                    "duration": 0.40182149999999695
                },
                {
                    "name": "E3",
                    "midi": 52,
                    "time": 57.86229599999983,
                    "velocity": 0.2283464566929134,
                    "duration": 0.8036429999999939
                },
                {
                    "name": "C4",
                    "midi": 60,
                    "time": 58.26411749999983,
                    "velocity": 0.23622047244094488,
                    "duration": 0.20091074999999847
                },
                {
                    "name": "C4",
                    "midi": 60,
                    "time": 58.665938999999824,
                    "velocity": 0.23622047244094488,
                    "duration": 0.20091074999999847
                },
                {
                    "name": "C4",
                    "midi": 60,
                    "time": 59.06776049999982,
                    "velocity": 0.23622047244094488,
                    "duration": 0.20091074999999847
                },
                {
                    "name": "C3",
                    "midi": 48,
                    "time": 59.46958199999982,
                    "velocity": 0.2204724409448819,
                    "duration": 0.8036429999999939
                },
                {
                    "name": "E3",
                    "midi": 52,
                    "time": 59.46958199999982,
                    "velocity": 0.2677165354330709,
                    "duration": 0.40182149999999695
                },
                {
                    "name": "C4",
                    "midi": 60,
                    "time": 59.871403499999815,
                    "velocity": 0.2440944881889764,
                    "duration": 0.40182149999999695
                },
                {
                    "name": "G3",
                    "midi": 55,
                    "time": 60.27322499999981,
                    "velocity": 0.2047244094488189,
                    "duration": 0.8036429999999939
                },
                {
                    "name": "A#3",
                    "midi": 58,
                    "time": 60.27322499999981,
                    "velocity": 0.2440944881889764,
                    "duration": 0.40182149999999695
                },
                {
                    "name": "C4",
                    "midi": 60,
                    "time": 60.67504649999981,
                    "velocity": 0.2440944881889764,
                    "duration": 0.40182149999999695
                },
                {
                    "name": "A3",
                    "midi": 57,
                    "time": 61.076867999999806,
                    "velocity": 0.2992125984251969,
                    "duration": 0.803643000000001
                },
                {
                    "name": "F3",
                    "midi": 53,
                    "time": 61.076867999999806,
                    "velocity": 0.25196850393700787,
                    "duration": 0.803643000000001
                },
                {
                    "name": "F#3",
                    "midi": 54,
                    "time": 67.5060119999998,
                    "velocity": 0.2125984251968504,
                    "duration": 1.607286000000002
                },
                {
                    "name": "D3",
                    "midi": 50,
                    "time": 67.5060119999998,
                    "velocity": 0.2125984251968504,
                    "duration": 1.607286000000002
                },
                {
                    "name": "C4",
                    "midi": 60,
                    "time": 67.5060119999998,
                    "velocity": 0.25196850393700787,
                    "duration": 1.607286000000002
                },
                {
                    "name": "A3",
                    "midi": 57,
                    "time": 67.5060119999998,
                    "velocity": 0.2125984251968504,
                    "duration": 1.607286000000002
                },
                {
                    "name": "G3",
                    "midi": 55,
                    "time": 69.1132979999998,
                    "velocity": 0.2755905511811024,
                    "duration": 1.6072859999999878
                },
                {
                    "name": "A#3",
                    "midi": 58,
                    "time": 69.1132979999998,
                    "velocity": 0.33070866141732286,
                    "duration": 0.8036429999999939
                },
                {
                    "name": "E4",
                    "midi": 64,
                    "time": 69.9169409999998,
                    "velocity": 0.3464566929133858,
                    "duration": 0.8036429999999939
                },
                {
                    "name": "A3",
                    "midi": 57,
                    "time": 70.72058399999979,
                    "velocity": 0.31496062992125984,
                    "duration": 0.8036429999999939
                },
                {
                    "name": "F4",
                    "midi": 65,
                    "time": 70.72058399999979,
                    "velocity": 0.3779527559055118,
                    "duration": 0.8036429999999939
                },
                {
                    "name": "A#3",
                    "midi": 58,
                    "time": 71.52422699999978,
                    "velocity": 0.2992125984251969,
                    "duration": 0.8036429999999939
                },
                {
                    "name": "D4",
                    "midi": 62,
                    "time": 71.52422699999978,
                    "velocity": 0.3543307086614173,
                    "duration": 0.8036429999999939
                },
                {
                    "name": "A3",
                    "midi": 57,
                    "time": 72.32786999999978,
                    "velocity": 0.3464566929133858,
                    "duration": 0.8036429999999939
                },
                {
                    "name": "C3",
                    "midi": 48,
                    "time": 72.32786999999978,
                    "velocity": 0.29133858267716534,
                    "duration": 1.6072859999999878
                },
                {
                    "name": "A#3",
                    "midi": 58,
                    "time": 73.13151299999977,
                    "velocity": 0.31496062992125984,
                    "duration": 0.8036429999999939
                },
                {
                    "name": "A3",
                    "midi": 57,
                    "time": 73.93515599999976,
                    "velocity": 0.2992125984251969,
                    "duration": 0.40182149999999695
                },
                {
                    "name": "F3",
                    "midi": 53,
                    "time": 73.93515599999976,
                    "velocity": 0.25196850393700787,
                    "duration": 0.8036430000000081
                },
                {
                    "name": "C4",
                    "midi": 60,
                    "time": 74.33697749999976,
                    "velocity": 0.23622047244094488,
                    "duration": 0.20091075000000558
                },
                {
                    "name": "C4",
                    "midi": 60,
                    "time": 74.73879899999977,
                    "velocity": 0.23622047244094488,
                    "duration": 0.20091075000000558
                },
                {
                    "name": "C4",
                    "midi": 60,
                    "time": 75.14062049999978,
                    "velocity": 0.23622047244094488,
                    "duration": 0.20091075000000558
                },
                {
                    "name": "F3",
                    "midi": 53,
                    "time": 75.5424419999998,
                    "velocity": 0.2204724409448819,
                    "duration": 0.8036429999999939
                },
                {
                    "name": "A3",
                    "midi": 57,
                    "time": 75.5424419999998,
                    "velocity": 0.25984251968503935,
                    "duration": 0.40182149999999695
                },
                {
                    "name": "C4",
                    "midi": 60,
                    "time": 75.94426349999979,
                    "velocity": 0.2125984251968504,
                    "duration": 0.40182149999999695
                },
                {
                    "name": "A#3",
                    "midi": 58,
                    "time": 76.34608499999979,
                    "velocity": 0.2125984251968504,
                    "duration": 0.40182149999999695
                },
                {
                    "name": "G3",
                    "midi": 55,
                    "time": 76.34608499999979,
                    "velocity": 0.1732283464566929,
                    "duration": 0.8036429999999939
                },
                {
                    "name": "C4",
                    "midi": 60,
                    "time": 76.74790649999979,
                    "velocity": 0.2125984251968504,
                    "duration": 0.40182149999999695
                },
                {
                    "name": "E3",
                    "midi": 52,
                    "time": 77.14972799999978,
                    "velocity": 0.2283464566929134,
                    "duration": 0.8036430000000081
                },
                {
                    "name": "G3",
                    "midi": 55,
                    "time": 77.14972799999978,
                    "velocity": 0.2755905511811024,
                    "duration": 0.40182149999999695
                },
                {
                    "name": "C4",
                    "midi": 60,
                    "time": 77.55154949999978,
                    "velocity": 0.23622047244094488,
                    "duration": 0.20091075000000558
                },
                {
                    "name": "C4",
                    "midi": 60,
                    "time": 77.95337099999979,
                    "velocity": 0.23622047244094488,
                    "duration": 0.20091075000000558
                },
                {
                    "name": "C4",
                    "midi": 60,
                    "time": 78.3551924999998,
                    "velocity": 0.23622047244094488,
                    "duration": 0.20091075000000558
                },
                {
                    "name": "C3",
                    "midi": 48,
                    "time": 78.75701399999981,
                    "velocity": 0.2204724409448819,
                    "duration": 0.8036429999999939
                },
                {
                    "name": "E3",
                    "midi": 52,
                    "time": 78.75701399999981,
                    "velocity": 0.2677165354330709,
                    "duration": 0.40182149999999695
                },
                {
                    "name": "C4",
                    "midi": 60,
                    "time": 79.15883549999981,
                    "velocity": 0.2440944881889764,
                    "duration": 0.40182149999999695
                },
                {
                    "name": "A#3",
                    "midi": 58,
                    "time": 79.56065699999981,
                    "velocity": 0.2440944881889764,
                    "duration": 0.40182149999999695
                },
                {
                    "name": "G3",
                    "midi": 55,
                    "time": 79.56065699999981,
                    "velocity": 0.2047244094488189,
                    "duration": 0.8036429999999939
                },
                {
                    "name": "C4",
                    "midi": 60,
                    "time": 79.9624784999998,
                    "velocity": 0.2440944881889764,
                    "duration": 0.40182149999999695
                },
                {
                    "name": "F3",
                    "midi": 53,
                    "time": 80.3642999999998,
                    "velocity": 0.25196850393700787,
                    "duration": 0.8036430000000081
                },
                {
                    "name": "A3",
                    "midi": 57,
                    "time": 80.3642999999998,
                    "velocity": 0.2992125984251969,
                    "duration": 0.40182149999999695
                },
                {
                    "name": "C4",
                    "midi": 60,
                    "time": 80.7661214999998,
                    "velocity": 0.23622047244094488,
                    "duration": 0.20091075000000558
                },
                {
                    "name": "C4",
                    "midi": 60,
                    "time": 81.16794299999981,
                    "velocity": 0.23622047244094488,
                    "duration": 0.20091075000000558
                },
                {
                    "name": "C4",
                    "midi": 60,
                    "time": 81.56976449999982,
                    "velocity": 0.23622047244094488,
                    "duration": 0.20091075000000558
                },
                {
                    "name": "F3",
                    "midi": 53,
                    "time": 81.97158599999983,
                    "velocity": 0.25196850393700787,
                    "duration": 0.8036429999999939
                },
                {
                    "name": "A3",
                    "midi": 57,
                    "time": 81.97158599999983,
                    "velocity": 0.2992125984251969,
                    "duration": 0.40182149999999695
                },
                {
                    "name": "C4",
                    "midi": 60,
                    "time": 82.37340749999983,
                    "velocity": 0.2204724409448819,
                    "duration": 0.40182149999999695
                },
                {
                    "name": "A#3",
                    "midi": 58,
                    "time": 82.77522899999983,
                    "velocity": 0.2204724409448819,
                    "duration": 0.40182149999999695
                },
                {
                    "name": "G3",
                    "midi": 55,
                    "time": 82.77522899999983,
                    "velocity": 0.18110236220472442,
                    "duration": 0.8036429999999939
                },
                {
                    "name": "C4",
                    "midi": 60,
                    "time": 83.17705049999982,
                    "velocity": 0.2204724409448819,
                    "duration": 0.40182149999999695
                },
                {
                    "name": "E3",
                    "midi": 52,
                    "time": 83.57887199999982,
                    "velocity": 0.2283464566929134,
                    "duration": 0.8036430000000081
                },
                {
                    "name": "G3",
                    "midi": 55,
                    "time": 83.57887199999982,
                    "velocity": 0.2755905511811024,
                    "duration": 0.40182149999999695
                },
                {
                    "name": "C4",
                    "midi": 60,
                    "time": 83.98069349999982,
                    "velocity": 0.23622047244094488,
                    "duration": 0.20091075000000558
                },
                {
                    "name": "C4",
                    "midi": 60,
                    "time": 84.38251499999983,
                    "velocity": 0.23622047244094488,
                    "duration": 0.20091075000000558
                },
                {
                    "name": "C4",
                    "midi": 60,
                    "time": 84.78433649999984,
                    "velocity": 0.23622047244094488,
                    "duration": 0.20091075000000558
                },
                {
                    "name": "C3",
                    "midi": 48,
                    "time": 85.18615799999985,
                    "velocity": 0.2204724409448819,
                    "duration": 0.8036429999999939
                },
                {
                    "name": "E3",
                    "midi": 52,
                    "time": 85.18615799999985,
                    "velocity": 0.2677165354330709,
                    "duration": 0.40182149999999695
                },
                {
                    "name": "C4",
                    "midi": 60,
                    "time": 85.58797949999985,
                    "velocity": 0.2440944881889764,
                    "duration": 0.40182149999999695
                },
                {
                    "name": "G3",
                    "midi": 55,
                    "time": 85.98980099999984,
                    "velocity": 0.2047244094488189,
                    "duration": 0.8036429999999939
                },
                {
                    "name": "A#3",
                    "midi": 58,
                    "time": 85.98980099999984,
                    "velocity": 0.2440944881889764,
                    "duration": 0.40182149999999695
                },
                {
                    "name": "C4",
                    "midi": 60,
                    "time": 86.39162249999984,
                    "velocity": 0.2440944881889764,
                    "duration": 0.40182149999999695
                },
                {
                    "name": "F3",
                    "midi": 53,
                    "time": 86.79344399999984,
                    "velocity": 0.25196850393700787,
                    "duration": 0.8036429999999939
                },
                {
                    "name": "A3",
                    "midi": 57,
                    "time": 86.79344399999984,
                    "velocity": 0.2992125984251969,
                    "duration": 0.8036429999999939
                },
                {
                    "name": "C4",
                    "midi": 60,
                    "time": 93.22258799999983,
                    "velocity": 0.2677165354330709,
                    "duration": 1.607286000000002
                },
                {
                    "name": "F#3",
                    "midi": 54,
                    "time": 93.22258799999983,
                    "velocity": 0.2283464566929134,
                    "duration": 1.607286000000002
                },
                {
                    "name": "A3",
                    "midi": 57,
                    "time": 93.22258799999983,
                    "velocity": 0.2283464566929134,
                    "duration": 1.607286000000002
                },
                {
                    "name": "D3",
                    "midi": 50,
                    "time": 93.22258799999983,
                    "velocity": 0.2283464566929134,
                    "duration": 1.607286000000002
                },
                {
                    "name": "G3",
                    "midi": 55,
                    "time": 94.82987399999983,
                    "velocity": 0.2755905511811024,
                    "duration": 1.6072859999999878
                },
                {
                    "name": "A#3",
                    "midi": 58,
                    "time": 94.82987399999983,
                    "velocity": 0.33070866141732286,
                    "duration": 0.8036429999999939
                },
                {
                    "name": "E4",
                    "midi": 64,
                    "time": 95.63351699999983,
                    "velocity": 0.3464566929133858,
                    "duration": 0.8036429999999939
                },
                {
                    "name": "F4",
                    "midi": 65,
                    "time": 96.43715999999982,
                    "velocity": 0.3779527559055118,
                    "duration": 0.8036429999999939
                },
                {
                    "name": "A3",
                    "midi": 57,
                    "time": 96.43715999999982,
                    "velocity": 0.31496062992125984,
                    "duration": 0.8036429999999939
                },
                {
                    "name": "D4",
                    "midi": 62,
                    "time": 97.24080299999981,
                    "velocity": 0.3543307086614173,
                    "duration": 0.8036429999999939
                },
                {
                    "name": "A#3",
                    "midi": 58,
                    "time": 97.24080299999981,
                    "velocity": 0.2992125984251969,
                    "duration": 0.8036429999999939
                },
                {
                    "name": "A3",
                    "midi": 57,
                    "time": 98.04444599999981,
                    "velocity": 0.33070866141732286,
                    "duration": 0.8036429999999939
                },
                {
                    "name": "C3",
                    "midi": 48,
                    "time": 98.04444599999981,
                    "velocity": 0.25984251968503935,
                    "duration": 1.6072859999999878
                },
                {
                    "name": "G3",
                    "midi": 55,
                    "time": 98.8480889999998,
                    "velocity": 0.31496062992125984,
                    "duration": 0.8036429999999939
                },
                {
                    "name": "F3",
                    "midi": 53,
                    "time": 100.0535534999998,
                    "velocity": 0.3937007874015748,
                    "duration": 0.40182149999999695
                },
                {
                    "name": "A3",
                    "midi": 57,
                    "time": 100.45537499999979,
                    "velocity": 0.4251968503937008,
                    "duration": 0.40182149999999695
                },
                {
                    "name": "D4",
                    "midi": 62,
                    "time": 100.85719649999979,
                    "velocity": 0.3937007874015748,
                    "duration": 0.40182149999999695
                },
                {
                    "name": "G3",
                    "midi": 55,
                    "time": 101.66083949999978,
                    "velocity": 0.3937007874015748,
                    "duration": 0.40182149999999695
                },
                {
                    "name": "A#3",
                    "midi": 58,
                    "time": 102.06266099999978,
                    "velocity": 0.4251968503937008,
                    "duration": 0.40182149999999695
                },
                {
                    "name": "E4",
                    "midi": 64,
                    "time": 102.46448249999978,
                    "velocity": 0.3937007874015748,
                    "duration": 0.40182149999999695
                },
                {
                    "name": "A3",
                    "midi": 57,
                    "time": 103.26812549999977,
                    "velocity": 0.3937007874015748,
                    "duration": 0.40182149999999695
                },
                {
                    "name": "C4",
                    "midi": 60,
                    "time": 103.66994699999977,
                    "velocity": 0.4251968503937008,
                    "duration": 0.40182149999999695
                },
                {
                    "name": "F4",
                    "midi": 65,
                    "time": 104.07176849999976,
                    "velocity": 0.3543307086614173,
                    "duration": 1.2054644999999908
                },
                {
                    "name": "A3",
                    "midi": 57,
                    "time": 104.47358999999976,
                    "velocity": 0.3858267716535433,
                    "duration": 1.6072859999999878
                },
                {
                    "name": "D#4",
                    "midi": 63,
                    "time": 105.27723299999975,
                    "velocity": 0.3700787401574803,
                    "duration": 0.8036429999999939
                },
                {
                    "name": "F4",
                    "midi": 65,
                    "time": 106.08087599999975,
                    "velocity": 0.3779527559055118,
                    "duration": 0.8036429999999939
                },
                {
                    "name": "D4",
                    "midi": 62,
                    "time": 106.08087599999975,
                    "velocity": 0.31496062992125984,
                    "duration": 0.8036429999999939
                },
                {
                    "name": "A#3",
                    "midi": 58,
                    "time": 106.08087599999975,
                    "velocity": 0.31496062992125984,
                    "duration": 0.8036429999999939
                },
                {
                    "name": "D4",
                    "midi": 62,
                    "time": 107.68816199999974,
                    "velocity": 0.31496062992125984,
                    "duration": 0.8036429999999939
                },
                {
                    "name": "G4",
                    "midi": 67,
                    "time": 107.68816199999974,
                    "velocity": 0.3779527559055118,
                    "duration": 0.8036429999999939
                },
                {
                    "name": "A#3",
                    "midi": 58,
                    "time": 107.68816199999974,
                    "velocity": 0.31496062992125984,
                    "duration": 0.8036429999999939
                },
                {
                    "name": "C3",
                    "midi": 48,
                    "time": 109.29544799999972,
                    "velocity": 0.3937007874015748,
                    "duration": 0.40182149999999695
                },
                {
                    "name": "A3",
                    "midi": 57,
                    "time": 109.69726949999972,
                    "velocity": 0.33858267716535434,
                    "duration": 0.40182149999999695
                },
                {
                    "name": "F3",
                    "midi": 53,
                    "time": 110.09909099999972,
                    "velocity": 0.3937007874015748,
                    "duration": 0.40182149999999695
                },
                {
                    "name": "A3",
                    "midi": 57,
                    "time": 110.50091249999971,
                    "velocity": 0.2992125984251969,
                    "duration": 0.40182149999999695
                },
                {
                    "name": "C3",
                    "midi": 48,
                    "time": 110.90273399999971,
                    "velocity": 0.33858267716535434,
                    "duration": 0.40182149999999695
                },
                {
                    "name": "A3",
                    "midi": 57,
                    "time": 111.30455549999971,
                    "velocity": 0.2440944881889764,
                    "duration": 0.40182149999999695
                },
                {
                    "name": "F3",
                    "midi": 53,
                    "time": 111.7063769999997,
                    "velocity": 0.2755905511811024,
                    "duration": 0.40182149999999695
                },
                {
                    "name": "A3",
                    "midi": 57,
                    "time": 112.1081984999997,
                    "velocity": 0.25984251968503935,
                    "duration": 0.40182149999999695
                },
                {
                    "name": "C3",
                    "midi": 48,
                    "time": 112.5100199999997,
                    "velocity": 0.2992125984251969,
                    "duration": 0.40182149999999695
                },
                {
                    "name": "A#3",
                    "midi": 58,
                    "time": 112.9118414999997,
                    "velocity": 0.2440944881889764,
                    "duration": 0.40182149999999695
                },
                {
                    "name": "E3",
                    "midi": 52,
                    "time": 113.31366299999969,
                    "velocity": 0.25984251968503935,
                    "duration": 0.40182149999999695
                },
                {
                    "name": "A#3",
                    "midi": 58,
                    "time": 113.71548449999969,
                    "velocity": 0.2440944881889764,
                    "duration": 0.40182149999999695
                },
                {
                    "name": "C3",
                    "midi": 48,
                    "time": 114.11730599999969,
                    "velocity": 0.29133858267716534,
                    "duration": 0.40182149999999695
                },
                {
                    "name": "A#3",
                    "midi": 58,
                    "time": 114.51912749999968,
                    "velocity": 0.25196850393700787,
                    "duration": 0.40182149999999695
                },
                {
                    "name": "E3",
                    "midi": 52,
                    "time": 114.92094899999968,
                    "velocity": 0.25196850393700787,
                    "duration": 0.40182149999999695
                },
                {
                    "name": "A#3",
                    "midi": 58,
                    "time": 115.32277049999968,
                    "velocity": 0.25196850393700787,
                    "duration": 0.40182149999999695
                },
                {
                    "name": "F3",
                    "midi": 53,
                    "time": 115.72459199999967,
                    "velocity": 0.29133858267716534,
                    "duration": 3.2145719999999756
                },
                {
                    "name": "C4",
                    "midi": 60,
                    "time": 116.12641349999967,
                    "velocity": 0.2755905511811024,
                    "duration": 0.40182149999999695
                },
                {
                    "name": "F4",
                    "midi": 65,
                    "time": 116.52823499999967,
                    "velocity": 0.30708661417322836,
                    "duration": 0.40182149999999695
                },
                {
                    "name": "D#4",
                    "midi": 63,
                    "time": 116.93005649999967,
                    "velocity": 0.2755905511811024,
                    "duration": 0.40182149999999695
                },
                {
                    "name": "D4",
                    "midi": 62,
                    "time": 117.33187799999966,
                    "velocity": 0.29133858267716534,
                    "duration": 0.8036429999999939
                },
                {
                    "name": "C4",
                    "midi": 60,
                    "time": 118.13552099999966,
                    "velocity": 0.2677165354330709,
                    "duration": 0.8036429999999939
                },
                {
                    "name": "A3",
                    "midi": 57,
                    "time": 118.93916399999965,
                    "velocity": 0.2755905511811024,
                    "duration": 0.40182149999999695
                },
                {
                    "name": "F3",
                    "midi": 53,
                    "time": 118.93916399999965,
                    "velocity": 0.29133858267716534,
                    "duration": 3.2145719999999756
                },
                {
                    "name": "C4",
                    "midi": 60,
                    "time": 119.34098549999965,
                    "velocity": 0.2755905511811024,
                    "duration": 0.40182149999999695
                },
                {
                    "name": "F4",
                    "midi": 65,
                    "time": 119.74280699999964,
                    "velocity": 0.30708661417322836,
                    "duration": 0.40182149999999695
                },
                {
                    "name": "D#4",
                    "midi": 63,
                    "time": 120.14462849999964,
                    "velocity": 0.2755905511811024,
                    "duration": 0.40182149999999695
                },
                {
                    "name": "D4",
                    "midi": 62,
                    "time": 120.54644999999964,
                    "velocity": 0.29133858267716534,
                    "duration": 0.8036429999999939
                },
                {
                    "name": "A#3",
                    "midi": 58,
                    "time": 121.35009299999963,
                    "velocity": 0.2677165354330709,
                    "duration": 0.8036429999999939
                },
                {
                    "name": "F3",
                    "midi": 53,
                    "time": 122.15373599999963,
                    "velocity": 0.3228346456692913,
                    "duration": 4.8218579999999776
                },
                {
                    "name": "A3",
                    "midi": 57,
                    "time": 122.15373599999963,
                    "velocity": 0.3228346456692913,
                    "duration": 0.40182149999999695
                },
                {
                    "name": "G3",
                    "midi": 55,
                    "time": 122.55555749999962,
                    "velocity": 0.29133858267716534,
                    "duration": 0.40182149999999695
                },
                {
                    "name": "A#3",
                    "midi": 58,
                    "time": 122.55555749999962,
                    "velocity": 0.29133858267716534,
                    "duration": 0.40182149999999695
                },
                {
                    "name": "C4",
                    "midi": 60,
                    "time": 122.95737899999962,
                    "velocity": 0.31496062992125984,
                    "duration": 0.40182149999999695
                },
                {
                    "name": "A3",
                    "midi": 57,
                    "time": 122.95737899999962,
                    "velocity": 0.31496062992125984,
                    "duration": 0.40182149999999695
                },
                {
                    "name": "D4",
                    "midi": 62,
                    "time": 123.35920049999962,
                    "velocity": 0.29133858267716534,
                    "duration": 0.40182149999999695
                },
                {
                    "name": "A#3",
                    "midi": 58,
                    "time": 123.35920049999962,
                    "velocity": 0.29133858267716534,
                    "duration": 0.40182149999999695
                },
                {
                    "name": "D#4",
                    "midi": 63,
                    "time": 123.76102199999961,
                    "velocity": 0.2992125984251969,
                    "duration": 0.40182149999999695
                },
                {
                    "name": "C4",
                    "midi": 60,
                    "time": 123.76102199999961,
                    "velocity": 0.2992125984251969,
                    "duration": 0.40182149999999695
                },
                {
                    "name": "D4",
                    "midi": 62,
                    "time": 124.16284349999961,
                    "velocity": 0.3228346456692913,
                    "duration": 0.40182149999999695
                },
                {
                    "name": "B3",
                    "midi": 59,
                    "time": 124.16284349999961,
                    "velocity": 0.3228346456692913,
                    "duration": 0.40182149999999695
                },
                {
                    "name": "C4",
                    "midi": 60,
                    "time": 124.56466499999961,
                    "velocity": 0.3464566929133858,
                    "duration": 0.40182149999999695
                },
                {
                    "name": "D#4",
                    "midi": 63,
                    "time": 124.56466499999961,
                    "velocity": 0.3464566929133858,
                    "duration": 0.40182149999999695
                },
                {
                    "name": "B3",
                    "midi": 59,
                    "time": 124.9664864999996,
                    "velocity": 0.3700787401574803,
                    "duration": 0.40182149999999695
                },
                {
                    "name": "D4",
                    "midi": 62,
                    "time": 124.9664864999996,
                    "velocity": 0.3700787401574803,
                    "duration": 0.40182149999999695
                },
                {
                    "name": "C4",
                    "midi": 60,
                    "time": 125.3683079999996,
                    "velocity": 0.41732283464566927,
                    "duration": 1.607286000000002
                },
                {
                    "name": "D#4",
                    "midi": 63,
                    "time": 125.3683079999996,
                    "velocity": 0.41732283464566927,
                    "duration": 1.607286000000002
                },
                {
                    "name": "A#3",
                    "midi": 58,
                    "time": 128.5828799999996,
                    "velocity": 0.28346456692913385,
                    "duration": 0.40182150000001116
                },
                {
                    "name": "F4",
                    "midi": 65,
                    "time": 128.9847014999996,
                    "velocity": 0.2125984251968504,
                    "duration": 0.40182150000001116
                },
                {
                    "name": "D4",
                    "midi": 62,
                    "time": 129.3865229999996,
                    "velocity": 0.2125984251968504,
                    "duration": 0.40182150000001116
                },
                {
                    "name": "F4",
                    "midi": 65,
                    "time": 129.78834449999962,
                    "velocity": 0.2125984251968504,
                    "duration": 0.40182150000001116
                },
                {
                    "name": "A#3",
                    "midi": 58,
                    "time": 130.19016599999964,
                    "velocity": 0.28346456692913385,
                    "duration": 0.40182150000001116
                },
                {
                    "name": "F4",
                    "midi": 65,
                    "time": 130.59198749999965,
                    "velocity": 0.2204724409448819,
                    "duration": 0.40182150000001116
                },
                {
                    "name": "D4",
                    "midi": 62,
                    "time": 130.99380899999966,
                    "velocity": 0.2204724409448819,
                    "duration": 0.40182150000001116
                },
                {
                    "name": "F4",
                    "midi": 65,
                    "time": 131.39563049999967,
                    "velocity": 0.2204724409448819,
                    "duration": 0.40182150000001116
                },
                {
                    "name": "A3",
                    "midi": 57,
                    "time": 131.79745199999968,
                    "velocity": 0.28346456692913385,
                    "duration": 0.40182150000001116
                },
                {
                    "name": "F4",
                    "midi": 65,
                    "time": 132.1992734999997,
                    "velocity": 0.1968503937007874,
                    "duration": 0.40182150000001116
                },
                {
                    "name": "C4",
                    "midi": 60,
                    "time": 132.6010949999997,
                    "velocity": 0.2125984251968504,
                    "duration": 0.40182150000001116
                },
                {
                    "name": "F4",
                    "midi": 65,
                    "time": 133.0029164999997,
                    "velocity": 0.1889763779527559,
                    "duration": 0.40182150000001116
                },
                {
                    "name": "A3",
                    "midi": 57,
                    "time": 133.40473799999972,
                    "velocity": 0.28346456692913385,
                    "duration": 0.40182150000001116
                },
                {
                    "name": "F4",
                    "midi": 65,
                    "time": 133.80655949999974,
                    "velocity": 0.18110236220472442,
                    "duration": 0.40182150000001116
                },
                {
                    "name": "C4",
                    "midi": 60,
                    "time": 134.20838099999975,
                    "velocity": 0.2283464566929134,
                    "duration": 0.40182150000001116
                },
                {
                    "name": "F4",
                    "midi": 65,
                    "time": 134.61020249999976,
                    "velocity": 0.18110236220472442,
                    "duration": 0.40182150000001116
                },
                {
                    "name": "G3",
                    "midi": 55,
                    "time": 135.01202399999977,
                    "velocity": 0.28346456692913385,
                    "duration": 0.40182150000001116
                },
                {
                    "name": "D#4",
                    "midi": 63,
                    "time": 135.41384549999978,
                    "velocity": 0.25196850393700787,
                    "duration": 0.40182150000001116
                },
                {
                    "name": "A#3",
                    "midi": 58,
                    "time": 135.8156669999998,
                    "velocity": 0.25196850393700787,
                    "duration": 0.40182150000001116
                },
                {
                    "name": "D#4",
                    "midi": 63,
                    "time": 136.2174884999998,
                    "velocity": 0.25196850393700787,
                    "duration": 0.40182150000001116
                },
                {
                    "name": "D#3",
                    "midi": 51,
                    "time": 136.6193099999998,
                    "velocity": 0.28346456692913385,
                    "duration": 0.40182150000001116
                },
                {
                    "name": "A#3",
                    "midi": 58,
                    "time": 137.02113149999983,
                    "velocity": 0.25984251968503935,
                    "duration": 0.40182150000001116
                },
                {
                    "name": "G3",
                    "midi": 55,
                    "time": 137.42295299999984,
                    "velocity": 0.2755905511811024,
                    "duration": 0.40182150000001116
                },
                {
                    "name": "A#3",
                    "midi": 58,
                    "time": 137.82477449999985,
                    "velocity": 0.28346456692913385,
                    "duration": 0.40182150000001116
                },
                {
                    "name": "D3",
                    "midi": 50,
                    "time": 138.22659599999986,
                    "velocity": 0.3228346456692913,
                    "duration": 0.40182150000001116
                },
                {
                    "name": "A#3",
                    "midi": 58,
                    "time": 138.62841749999987,
                    "velocity": 0.23622047244094488,
                    "duration": 0.40182150000001116
                },
                {
                    "name": "F3",
                    "midi": 53,
                    "time": 139.03023899999988,
                    "velocity": 0.2755905511811024,
                    "duration": 0.40182150000001116
                },
                {
                    "name": "A#3",
                    "midi": 58,
                    "time": 139.4320604999999,
                    "velocity": 0.2204724409448819,
                    "duration": 0.40182150000001116
                },
                {
                    "name": "D3",
                    "midi": 50,
                    "time": 139.8338819999999,
                    "velocity": 0.28346456692913385,
                    "duration": 0.40182150000001116
                },
                {
                    "name": "A#3",
                    "midi": 58,
                    "time": 140.23570349999991,
                    "velocity": 0.1968503937007874,
                    "duration": 0.40182150000001116
                },
                {
                    "name": "F3",
                    "midi": 53,
                    "time": 140.63752499999993,
                    "velocity": 0.2283464566929134,
                    "duration": 0.40182150000001116
                },
                {
                    "name": "A#3",
                    "midi": 58,
                    "time": 141.03934649999994,
                    "velocity": 0.2047244094488189,
                    "duration": 0.40182150000001116
                },
                {
                    "name": "D#3",
                    "midi": 51,
                    "time": 141.44116799999995,
                    "velocity": 0.28346456692913385,
                    "duration": 0.40182150000001116
                },
                {
                    "name": "G3",
                    "midi": 55,
                    "time": 141.84298949999996,
                    "velocity": 0.2125984251968504,
                    "duration": 0.40182150000001116
                },
                {
                    "name": "D#3",
                    "midi": 51,
                    "time": 142.24481099999997,
                    "velocity": 0.2440944881889764,
                    "duration": 0.40182150000001116
                },
                {
                    "name": "B3",
                    "midi": 59,
                    "time": 142.64663249999998,
                    "velocity": 0.2125984251968504,
                    "duration": 0.40182150000001116
                },
                {
                    "name": "D#3",
                    "midi": 51,
                    "time": 143.048454,
                    "velocity": 0.2677165354330709,
                    "duration": 0.40182150000001116
                },
                {
                    "name": "C4",
                    "midi": 60,
                    "time": 143.4502755,
                    "velocity": 0.2125984251968504,
                    "duration": 0.40182150000001116
                },
                {
                    "name": "D#3",
                    "midi": 51,
                    "time": 143.85209700000001,
                    "velocity": 0.2125984251968504,
                    "duration": 0.40182150000001116
                },
                {
                    "name": "D#4",
                    "midi": 63,
                    "time": 144.25391850000003,
                    "velocity": 0.2125984251968504,
                    "duration": 0.40182150000001116
                },
                {
                    "name": "D3",
                    "midi": 50,
                    "time": 144.65574000000004,
                    "velocity": 0.28346456692913385,
                    "duration": 0.40182150000001116
                },
                {
                    "name": "F3",
                    "midi": 53,
                    "time": 145.05756150000005,
                    "velocity": 0.2440944881889764,
                    "duration": 0.40182150000001116
                },
                {
                    "name": "D3",
                    "midi": 50,
                    "time": 145.45938300000006,
                    "velocity": 0.25984251968503935,
                    "duration": 0.40182150000001116
                },
                {
                    "name": "A3",
                    "midi": 57,
                    "time": 145.86120450000007,
                    "velocity": 0.25984251968503935,
                    "duration": 0.40182150000001116
                },
                {
                    "name": "D3",
                    "midi": 50,
                    "time": 146.26302600000008,
                    "velocity": 0.28346456692913385,
                    "duration": 0.40182150000001116
                },
                {
                    "name": "A#3",
                    "midi": 58,
                    "time": 146.6648475000001,
                    "velocity": 0.23622047244094488,
                    "duration": 0.40182150000001116
                },
                {
                    "name": "D3",
                    "midi": 50,
                    "time": 147.0666690000001,
                    "velocity": 0.2440944881889764,
                    "duration": 0.40182150000001116
                },
                {
                    "name": "D4",
                    "midi": 62,
                    "time": 147.46849050000012,
                    "velocity": 0.25984251968503935,
                    "duration": 0.40182150000001116
                },
                {
                    "name": "F3",
                    "midi": 53,
                    "time": 147.87031200000013,
                    "velocity": 0.28346456692913385,
                    "duration": 0.40182150000001116
                },
                {
                    "name": "F4",
                    "midi": 65,
                    "time": 148.27213350000014,
                    "velocity": 0.23622047244094488,
                    "duration": 0.40182150000001116
                },
                {
                    "name": "C4",
                    "midi": 60,
                    "time": 148.67395500000015,
                    "velocity": 0.23622047244094488,
                    "duration": 0.40182150000001116
                },
                {
                    "name": "F4",
                    "midi": 65,
                    "time": 149.07577650000016,
                    "velocity": 0.23622047244094488,
                    "duration": 0.40182150000001116
                },
                {
                    "name": "A#3",
                    "midi": 58,
                    "time": 149.47759800000017,
                    "velocity": 0.28346456692913385,
                    "duration": 0.40182150000001116
                },
                {
                    "name": "F4",
                    "midi": 65,
                    "time": 149.87941950000018,
                    "velocity": 0.23622047244094488,
                    "duration": 0.40182150000001116
                },
                {
                    "name": "D4",
                    "midi": 62,
                    "time": 150.2812410000002,
                    "velocity": 0.2440944881889764,
                    "duration": 0.40182150000001116
                },
                {
                    "name": "F4",
                    "midi": 65,
                    "time": 150.6830625000002,
                    "velocity": 0.23622047244094488,
                    "duration": 0.40182150000001116
                },
                {
                    "name": "F3",
                    "midi": 53,
                    "time": 151.08488400000022,
                    "velocity": 0.28346456692913385,
                    "duration": 0.40182150000001116
                },
                {
                    "name": "D4",
                    "midi": 62,
                    "time": 151.48670550000023,
                    "velocity": 0.1968503937007874,
                    "duration": 0.40182150000001116
                },
                {
                    "name": "A#3",
                    "midi": 58,
                    "time": 151.88852700000024,
                    "velocity": 0.1968503937007874,
                    "duration": 0.40182150000001116
                },
                {
                    "name": "D4",
                    "midi": 62,
                    "time": 152.29034850000025,
                    "velocity": 0.1968503937007874,
                    "duration": 0.40182150000001116
                },
                {
                    "name": "C4",
                    "midi": 60,
                    "time": 152.69217000000026,
                    "velocity": 0.28346456692913385,
                    "duration": 0.8036429999999939
                },
                {
                    "name": "A3",
                    "midi": 57,
                    "time": 152.69217000000026,
                    "velocity": 0.28346456692913385,
                    "duration": 0.8036429999999939
                },
                {
                    "name": "F3",
                    "midi": 53,
                    "time": 152.69217000000026,
                    "velocity": 0.28346456692913385,
                    "duration": 0.8036429999999939
                },
                {
                    "name": "A#3",
                    "midi": 58,
                    "time": 154.29945600000025,
                    "velocity": 0.28346456692913385,
                    "duration": 0.40182150000001116
                },
                {
                    "name": "F4",
                    "midi": 65,
                    "time": 154.70127750000026,
                    "velocity": 0.2440944881889764,
                    "duration": 0.40182150000001116
                },
                {
                    "name": "C#4",
                    "midi": 61,
                    "time": 155.10309900000027,
                    "velocity": 0.2755905511811024,
                    "duration": 0.40182150000001116
                },
                {
                    "name": "F4",
                    "midi": 65,
                    "time": 155.50492050000028,
                    "velocity": 0.2440944881889764,
                    "duration": 0.40182150000001116
                },
                {
                    "name": "A#3",
                    "midi": 58,
                    "time": 155.9067420000003,
                    "velocity": 0.31496062992125984,
                    "duration": 0.40182150000001116
                },
                {
                    "name": "F4",
                    "midi": 65,
                    "time": 156.3085635000003,
                    "velocity": 0.28346456692913385,
                    "duration": 0.40182150000001116
                },
                {
                    "name": "C#4",
                    "midi": 61,
                    "time": 156.71038500000031,
                    "velocity": 0.2992125984251969,
                    "duration": 0.40182150000001116
                },
                {
                    "name": "F4",
                    "midi": 65,
                    "time": 157.11220650000033,
                    "velocity": 0.2440944881889764,
                    "duration": 0.40182150000001116
                },
                {
                    "name": "G#3",
                    "midi": 56,
                    "time": 157.51402800000034,
                    "velocity": 0.36220472440944884,
                    "duration": 0.40182150000001116
                },
                {
                    "name": "F4",
                    "midi": 65,
                    "time": 157.91584950000035,
                    "velocity": 0.28346456692913385,
                    "duration": 0.40182150000001116
                },
                {
                    "name": "C4",
                    "midi": 60,
                    "time": 158.31767100000036,
                    "velocity": 0.3228346456692913,
                    "duration": 0.40182150000001116
                },
                {
                    "name": "F4",
                    "midi": 65,
                    "time": 158.71949250000037,
                    "velocity": 0.2440944881889764,
                    "duration": 0.40182150000001116
                },
                {
                    "name": "G#3",
                    "midi": 56,
                    "time": 159.12131400000038,
                    "velocity": 0.3228346456692913,
                    "duration": 0.40182150000001116
                },
                {
                    "name": "F4",
                    "midi": 65,
                    "time": 159.5231355000004,
                    "velocity": 0.2440944881889764,
                    "duration": 0.40182150000001116
                },
                {
                    "name": "C4",
                    "midi": 60,
                    "time": 159.9249570000004,
                    "velocity": 0.31496062992125984,
                    "duration": 0.40182150000001116
                },
                {
                    "name": "F4",
                    "midi": 65,
                    "time": 160.32677850000042,
                    "velocity": 0.25196850393700787,
                    "duration": 0.40182150000001116
                },
                {
                    "name": "F#3",
                    "midi": 54,
                    "time": 160.72860000000043,
                    "velocity": 0.28346456692913385,
                    "duration": 0.40182150000001116
                },
                {
                    "name": "A#3",
                    "midi": 58,
                    "time": 161.13042150000044,
                    "velocity": 0.25196850393700787,
                    "duration": 0.40182150000001116
                },
                {
                    "name": "F#3",
                    "midi": 54,
                    "time": 161.53224300000045,
                    "velocity": 0.30708661417322836,
                    "duration": 0.40182150000001116
                },
                {
                    "name": "A#3",
                    "midi": 58,
                    "time": 161.93406450000046,
                    "velocity": 0.2992125984251969,
                    "duration": 0.40182150000001116
                },
                {
                    "name": "D#3",
                    "midi": 51,
                    "time": 162.33588600000047,
                    "velocity": 0.41732283464566927,
                    "duration": 0.40182150000001116
                },
                {
                    "name": "A#3",
                    "midi": 58,
                    "time": 162.73770750000048,
                    "velocity": 0.3543307086614173,
                    "duration": 0.40182150000001116
                },
                {
                    "name": "F#3",
                    "midi": 54,
                    "time": 163.1395290000005,
                    "velocity": 0.44881889763779526,
                    "duration": 0.40182150000001116
                },
                {
                    "name": "A#3",
                    "midi": 58,
                    "time": 163.5413505000005,
                    "velocity": 0.4094488188976378,
                    "duration": 0.40182150000001116
                },
                {
                    "name": "D3",
                    "midi": 50,
                    "time": 163.94317200000052,
                    "velocity": 0.49606299212598426,
                    "duration": 0.40182150000001116
                },
                {
                    "name": "A#3",
                    "midi": 58,
                    "time": 164.34499350000053,
                    "velocity": 0.4251968503937008,
                    "duration": 0.40182150000001116
                },
                {
                    "name": "F3",
                    "midi": 53,
                    "time": 164.74681500000054,
                    "velocity": 0.47244094488188976,
                    "duration": 0.40182150000001116
                },
                {
                    "name": "A#3",
                    "midi": 58,
                    "time": 165.14863650000055,
                    "velocity": 0.4015748031496063,
                    "duration": 0.40182150000001116
                },
                {
                    "name": "C#3",
                    "midi": 49,
                    "time": 165.55045800000056,
                    "velocity": 0.49606299212598426,
                    "duration": 0.40182150000001116
                },
                {
                    "name": "A#3",
                    "midi": 58,
                    "time": 165.95227950000057,
                    "velocity": 0.4330708661417323,
                    "duration": 0.40182150000001116
                },
                {
                    "name": "F3",
                    "midi": 53,
                    "time": 166.35410100000058,
                    "velocity": 0.4881889763779528,
                    "duration": 0.40182150000001116
                },
                {
                    "name": "A#3",
                    "midi": 58,
                    "time": 166.7559225000006,
                    "velocity": 0.44881889763779526,
                    "duration": 0.40182150000001116
                },
                {
                    "name": "C3",
                    "midi": 48,
                    "time": 167.1577440000006,
                    "velocity": 0.5433070866141733,
                    "duration": 0.40182150000001116
                },
                {
                    "name": "A#3",
                    "midi": 58,
                    "time": 167.55956550000062,
                    "velocity": 0.41732283464566927,
                    "duration": 0.40182150000001116
                },
                {
                    "name": "G3",
                    "midi": 55,
                    "time": 167.96138700000063,
                    "velocity": 0.4881889763779528,
                    "duration": 0.40182150000001116
                },
                {
                    "name": "A#3",
                    "midi": 58,
                    "time": 168.36320850000064,
                    "velocity": 0.3779527559055118,
                    "duration": 0.40182150000001116
                },
                {
                    "name": "C3",
                    "midi": 48,
                    "time": 168.76503000000065,
                    "velocity": 0.3464566929133858,
                    "duration": 0.40182150000001116
                },
                {
                    "name": "A#3",
                    "midi": 58,
                    "time": 169.16685150000066,
                    "velocity": 0.2283464566929134,
                    "duration": 0.40182150000001116
                },
                {
                    "name": "G3",
                    "midi": 55,
                    "time": 169.56867300000067,
                    "velocity": 0.25196850393700787,
                    "duration": 0.40182150000001116
                },
                {
                    "name": "A#3",
                    "midi": 58,
                    "time": 169.97049450000068,
                    "velocity": 0.2204724409448819,
                    "duration": 0.40182150000001116
                },
                {
                    "name": "C#3",
                    "midi": 49,
                    "time": 170.3723160000007,
                    "velocity": 0.3228346456692913,
                    "duration": 0.40182150000001116
                },
                {
                    "name": "G#3",
                    "midi": 56,
                    "time": 170.7741375000007,
                    "velocity": 0.2125984251968504,
                    "duration": 0.40182150000001116
                },
                {
                    "name": "F3",
                    "midi": 53,
                    "time": 171.17595900000072,
                    "velocity": 0.25196850393700787,
                    "duration": 0.40182150000001116
                },
                {
                    "name": "G#3",
                    "midi": 56,
                    "time": 171.57778050000073,
                    "velocity": 0.2204724409448819,
                    "duration": 0.40182150000001116
                },
                {
                    "name": "A#2",
                    "midi": 46,
                    "time": 171.97960200000074,
                    "velocity": 0.28346456692913385,
                    "duration": 0.40182150000001116
                },
                {
                    "name": "G3",
                    "midi": 55,
                    "time": 172.38142350000075,
                    "velocity": 0.2125984251968504,
                    "duration": 0.40182150000001116
                },
                {
                    "name": "C#3",
                    "midi": 49,
                    "time": 172.78324500000076,
                    "velocity": 0.2204724409448819,
                    "duration": 0.40182150000001116
                },
                {
                    "name": "G3",
                    "midi": 55,
                    "time": 173.18506650000077,
                    "velocity": 0.2125984251968504,
                    "duration": 0.40182150000001116
                },
                {
                    "name": "C3",
                    "midi": 48,
                    "time": 173.58688800000078,
                    "velocity": 0.28346456692913385,
                    "duration": 0.40182150000001116
                },
                {
                    "name": "G#3",
                    "midi": 56,
                    "time": 173.9887095000008,
                    "velocity": 0.2440944881889764,
                    "duration": 0.40182150000001116
                },
                {
                    "name": "F3",
                    "midi": 53,
                    "time": 174.3905310000008,
                    "velocity": 0.2440944881889764,
                    "duration": 0.40182150000001116
                },
                {
                    "name": "G#3",
                    "midi": 56,
                    "time": 174.79235250000082,
                    "velocity": 0.2440944881889764,
                    "duration": 0.40182150000001116
                },
                {
                    "name": "C3",
                    "midi": 48,
                    "time": 175.19417400000083,
                    "velocity": 0.28346456692913385,
                    "duration": 0.40182150000001116
                },
                {
                    "name": "A#3",
                    "midi": 58,
                    "time": 175.59599550000084,
                    "velocity": 0.2440944881889764,
                    "duration": 0.40182150000001116
                },
                {
                    "name": "G3",
                    "midi": 55,
                    "time": 175.99781700000085,
                    "velocity": 0.2440944881889764,
                    "duration": 0.40182150000001116
                },
                {
                    "name": "A#3",
                    "midi": 58,
                    "time": 176.39963850000086,
                    "velocity": 0.2440944881889764,
                    "duration": 0.40182150000001116
                },
                {
                    "name": "A3",
                    "midi": 57,
                    "time": 176.80146000000087,
                    "velocity": 0.2992125984251969,
                    "duration": 0.40182150000001116
                },
                {
                    "name": "F3",
                    "midi": 53,
                    "time": 176.80146000000087,
                    "velocity": 0.25196850393700787,
                    "duration": 0.8036429999999939
                },
                {
                    "name": "F4",
                    "midi": 65,
                    "time": 177.20328150000088,
                    "velocity": 0.23622047244094488,
                    "duration": 0.20091074999999137
                },
                {
                    "name": "F4",
                    "midi": 65,
                    "time": 177.60510300000087,
                    "velocity": 0.23622047244094488,
                    "duration": 0.20091074999999137
                },
                {
                    "name": "F4",
                    "midi": 65,
                    "time": 178.00692450000085,
                    "velocity": 0.23622047244094488,
                    "duration": 0.20091074999999137
                },
                {
                    "name": "D4",
                    "midi": 62,
                    "time": 178.40874600000083,
                    "velocity": 0.2992125984251969,
                    "duration": 0.40182150000001116
                },
                {
                    "name": "A#3",
                    "midi": 58,
                    "time": 178.40874600000083,
                    "velocity": 0.25196850393700787,
                    "duration": 0.8036430000000223
                },
                {
                    "name": "F4",
                    "midi": 65,
                    "time": 178.81056750000084,
                    "velocity": 0.2204724409448819,
                    "duration": 0.40182150000001116
                },
                {
                    "name": "D#4",
                    "midi": 63,
                    "time": 179.21238900000085,
                    "velocity": 0.2204724409448819,
                    "duration": 0.40182150000001116
                },
                {
                    "name": "C4",
                    "midi": 60,
                    "time": 179.21238900000085,
                    "velocity": 0.18110236220472442,
                    "duration": 0.8036430000000223
                },
                {
                    "name": "F4",
                    "midi": 65,
                    "time": 179.61421050000087,
                    "velocity": 0.2204724409448819,
                    "duration": 0.40182150000001116
                },
                {
                    "name": "A3",
                    "midi": 57,
                    "time": 180.01603200000088,
                    "velocity": 0.2283464566929134,
                    "duration": 0.8036429999999939
                },
                {
                    "name": "C4",
                    "midi": 60,
                    "time": 180.01603200000088,
                    "velocity": 0.2755905511811024,
                    "duration": 0.40182150000001116
                },
                {
                    "name": "F4",
                    "midi": 65,
                    "time": 180.4178535000009,
                    "velocity": 0.23622047244094488,
                    "duration": 0.20091074999999137
                },
                {
                    "name": "F4",
                    "midi": 65,
                    "time": 180.81967500000087,
                    "velocity": 0.2204724409448819,
                    "duration": 0.20091074999999137
                },
                {
                    "name": "F4",
                    "midi": 65,
                    "time": 181.22149650000085,
                    "velocity": 0.2204724409448819,
                    "duration": 0.20091074999999137
                },
                {
                    "name": "A3",
                    "midi": 57,
                    "time": 181.62331800000084,
                    "velocity": 0.2677165354330709,
                    "duration": 0.40182150000001116
                },
                {
                    "name": "F3",
                    "midi": 53,
                    "time": 181.62331800000084,
                    "velocity": 0.2204724409448819,
                    "duration": 0.8036430000000223
                },
                {
                    "name": "F4",
                    "midi": 65,
                    "time": 182.02513950000085,
                    "velocity": 0.2440944881889764,
                    "duration": 0.40182150000001116
                },
                {
                    "name": "C4",
                    "midi": 60,
                    "time": 182.42696100000086,
                    "velocity": 0.2125984251968504,
                    "duration": 0.8036430000000223
                },
                {
                    "name": "D#4",
                    "midi": 63,
                    "time": 182.42696100000086,
                    "velocity": 0.2125984251968504,
                    "duration": 0.40182150000001116
                },
                {
                    "name": "F4",
                    "midi": 65,
                    "time": 182.82878250000087,
                    "velocity": 0.2125984251968504,
                    "duration": 0.40182150000001116
                },
                {
                    "name": "A#3",
                    "midi": 58,
                    "time": 183.23060400000088,
                    "velocity": 0.25196850393700787,
                    "duration": 0.8036429999999939
                },
                {
                    "name": "D4",
                    "midi": 62,
                    "time": 183.23060400000088,
                    "velocity": 0.2992125984251969,
                    "duration": 0.40182150000001116
                },
                {
                    "name": "F4",
                    "midi": 65,
                    "time": 183.6324255000009,
                    "velocity": 0.23622047244094488,
                    "duration": 0.20091074999999137
                },
                {
                    "name": "F4",
                    "midi": 65,
                    "time": 184.03424700000087,
                    "velocity": 0.2283464566929134,
                    "duration": 0.20091074999999137
                },
                {
                    "name": "F4",
                    "midi": 65,
                    "time": 184.43606850000086,
                    "velocity": 0.23622047244094488,
                    "duration": 0.20091074999999137
                },
                {
                    "name": "D4",
                    "midi": 62,
                    "time": 184.83789000000084,
                    "velocity": 0.2992125984251969,
                    "duration": 0.40182150000001116
                },
                {
                    "name": "A#3",
                    "midi": 58,
                    "time": 184.83789000000084,
                    "velocity": 0.25196850393700787,
                    "duration": 0.8036430000000223
                },
                {
                    "name": "F4",
                    "midi": 65,
                    "time": 185.23971150000085,
                    "velocity": 0.2204724409448819,
                    "duration": 0.40182150000001116
                },
                {
                    "name": "D#4",
                    "midi": 63,
                    "time": 185.64153300000086,
                    "velocity": 0.2204724409448819,
                    "duration": 0.40182150000001116
                },
                {
                    "name": "C4",
                    "midi": 60,
                    "time": 185.64153300000086,
                    "velocity": 0.18110236220472442,
                    "duration": 0.8036430000000223
                },
                {
                    "name": "F4",
                    "midi": 65,
                    "time": 186.04335450000087,
                    "velocity": 0.2204724409448819,
                    "duration": 0.40182150000001116
                },
                {
                    "name": "C4",
                    "midi": 60,
                    "time": 186.44517600000088,
                    "velocity": 0.2755905511811024,
                    "duration": 0.40182150000001116
                },
                {
                    "name": "A3",
                    "midi": 57,
                    "time": 186.44517600000088,
                    "velocity": 0.2283464566929134,
                    "duration": 0.8036429999999939
                },
                {
                    "name": "F4",
                    "midi": 65,
                    "time": 186.8469975000009,
                    "velocity": 0.23622047244094488,
                    "duration": 0.20091074999999137
                },
                {
                    "name": "F4",
                    "midi": 65,
                    "time": 187.24881900000088,
                    "velocity": 0.2125984251968504,
                    "duration": 0.20091074999999137
                },
                {
                    "name": "F4",
                    "midi": 65,
                    "time": 187.65064050000086,
                    "velocity": 0.2125984251968504,
                    "duration": 0.20091074999999137
                },
                {
                    "name": "F3",
                    "midi": 53,
                    "time": 188.05246200000084,
                    "velocity": 0.2204724409448819,
                    "duration": 0.8036430000000223
                },
                {
                    "name": "A3",
                    "midi": 57,
                    "time": 188.05246200000084,
                    "velocity": 0.2677165354330709,
                    "duration": 0.40182150000001116
                },
                {
                    "name": "F4",
                    "midi": 65,
                    "time": 188.45428350000086,
                    "velocity": 0.2440944881889764,
                    "duration": 0.40182150000001116
                },
                {
                    "name": "C4",
                    "midi": 60,
                    "time": 188.85610500000087,
                    "velocity": 0.2283464566929134,
                    "duration": 0.8036430000000223
                },
                {
                    "name": "D#4",
                    "midi": 63,
                    "time": 188.85610500000087,
                    "velocity": 0.2283464566929134,
                    "duration": 0.40182150000001116
                },
                {
                    "name": "F4",
                    "midi": 65,
                    "time": 189.25792650000088,
                    "velocity": 0.2283464566929134,
                    "duration": 0.40182150000001116
                },
                {
                    "name": "D4",
                    "midi": 62,
                    "time": 189.6597480000009,
                    "velocity": 0.2992125984251969,
                    "duration": 0.8036429999999939
                },
                {
                    "name": "A#3",
                    "midi": 58,
                    "time": 189.6597480000009,
                    "velocity": 0.25196850393700787,
                    "duration": 0.8036429999999939
                },
                {
                    "name": "A#4",
                    "midi": 70,
                    "time": 191.26703400000088,
                    "velocity": 0.3700787401574803,
                    "duration": 0.40182150000001116
                },
                {
                    "name": "D5",
                    "midi": 74,
                    "time": 191.26703400000088,
                    "velocity": 0.4409448818897638,
                    "duration": 0.40182150000001116
                },
                {
                    "name": "A4",
                    "midi": 69,
                    "time": 191.6688555000009,
                    "velocity": 0.33858267716535434,
                    "duration": 0.40182150000001116
                },
                {
                    "name": "C5",
                    "midi": 72,
                    "time": 191.6688555000009,
                    "velocity": 0.4015748031496063,
                    "duration": 0.40182150000001116
                },
                {
                    "name": "A#4",
                    "midi": 70,
                    "time": 192.0706770000009,
                    "velocity": 0.3543307086614173,
                    "duration": 0.36163934999999015
                },
                {
                    "name": "G4",
                    "midi": 67,
                    "time": 192.0706770000009,
                    "velocity": 0.2992125984251969,
                    "duration": 0.36163934999999015
                },
                {
                    "name": "F#4",
                    "midi": 66,
                    "time": 192.47249850000088,
                    "velocity": 0.2992125984251969,
                    "duration": 0.36163934999999015
                },
                {
                    "name": "A4",
                    "midi": 69,
                    "time": 192.47249850000088,
                    "velocity": 0.3543307086614173,
                    "duration": 0.36163934999999015
                },
                {
                    "name": "G4",
                    "midi": 67,
                    "time": 192.87432000000086,
                    "velocity": 0.3700787401574803,
                    "duration": 0.40182150000001116
                },
                {
                    "name": "A#4",
                    "midi": 70,
                    "time": 192.87432000000086,
                    "velocity": 0.4409448818897638,
                    "duration": 0.40182150000001116
                },
                {
                    "name": "F4",
                    "midi": 65,
                    "time": 193.27614150000088,
                    "velocity": 0.33858267716535434,
                    "duration": 0.40182150000001116
                },
                {
                    "name": "A4",
                    "midi": 69,
                    "time": 193.27614150000088,
                    "velocity": 0.4015748031496063,
                    "duration": 0.40182150000001116
                },
                {
                    "name": "D#4",
                    "midi": 63,
                    "time": 193.6779630000009,
                    "velocity": 0.31496062992125984,
                    "duration": 0.36163934999999015
                },
                {
                    "name": "G4",
                    "midi": 67,
                    "time": 193.6779630000009,
                    "velocity": 0.3700787401574803,
                    "duration": 0.36163934999999015
                },
                {
                    "name": "F#4",
                    "midi": 66,
                    "time": 194.07978450000087,
                    "velocity": 0.3700787401574803,
                    "duration": 0.36163934999999015
                },
                {
                    "name": "D4",
                    "midi": 62,
                    "time": 194.07978450000087,
                    "velocity": 0.31496062992125984,
                    "duration": 0.36163934999999015
                },
                {
                    "name": "D#4",
                    "midi": 63,
                    "time": 194.48160600000085,
                    "velocity": 0.3700787401574803,
                    "duration": 0.40182150000001116
                },
                {
                    "name": "G4",
                    "midi": 67,
                    "time": 194.48160600000085,
                    "velocity": 0.4409448818897638,
                    "duration": 0.40182150000001116
                },
                {
                    "name": "D4",
                    "midi": 62,
                    "time": 194.88342750000086,
                    "velocity": 0.33070866141732286,
                    "duration": 0.40182150000001116
                },
                {
                    "name": "F4",
                    "midi": 65,
                    "time": 194.88342750000086,
                    "velocity": 0.3937007874015748,
                    "duration": 0.40182150000001116
                },
                {
                    "name": "C4",
                    "midi": 60,
                    "time": 195.28524900000087,
                    "velocity": 0.31496062992125984,
                    "duration": 0.36163934999999015
                },
                {
                    "name": "D#4",
                    "midi": 63,
                    "time": 195.28524900000087,
                    "velocity": 0.3700787401574803,
                    "duration": 0.36163934999999015
                },
                {
                    "name": "D4",
                    "midi": 62,
                    "time": 195.68707050000086,
                    "velocity": 0.36220472440944884,
                    "duration": 0.36163934999999015
                },
                {
                    "name": "B3",
                    "midi": 59,
                    "time": 195.68707050000086,
                    "velocity": 0.30708661417322836,
                    "duration": 0.36163934999999015
                },
                {
                    "name": "D4",
                    "midi": 62,
                    "time": 196.08889200000084,
                    "velocity": 0.25984251968503935,
                    "duration": 1.6072859999999878
                },
                {
                    "name": "F4",
                    "midi": 65,
                    "time": 196.08889200000084,
                    "velocity": 0.30708661417322836,
                    "duration": 1.6072859999999878
                },
                {
                    "name": "G3",
                    "midi": 55,
                    "time": 196.08889200000084,
                    "velocity": 0.23622047244094488,
                    "duration": 1.6072859999999878
                },
                {
                    "name": "B3",
                    "midi": 59,
                    "time": 196.08889200000084,
                    "velocity": 0.25984251968503935,
                    "duration": 1.6072859999999878
                },
                {
                    "name": "C4",
                    "midi": 60,
                    "time": 197.69617800000083,
                    "velocity": 0.2755905511811024,
                    "duration": 1.6072859999999878
                },
                {
                    "name": "D#4",
                    "midi": 63,
                    "time": 197.69617800000083,
                    "velocity": 0.33070866141732286,
                    "duration": 0.8036429999999939
                },
                {
                    "name": "A4",
                    "midi": 69,
                    "time": 198.49982100000082,
                    "velocity": 0.3464566929133858,
                    "duration": 0.8036429999999939
                },
                {
                    "name": "A#4",
                    "midi": 70,
                    "time": 199.30346400000082,
                    "velocity": 0.3464566929133858,
                    "duration": 0.8036429999999939
                },
                {
                    "name": "D4",
                    "midi": 62,
                    "time": 199.30346400000082,
                    "velocity": 0.25984251968503935,
                    "duration": 0.8036429999999939
                },
                {
                    "name": "D#4",
                    "midi": 63,
                    "time": 200.1071070000008,
                    "velocity": 0.2755905511811024,
                    "duration": 0.8036429999999939
                },
                {
                    "name": "G4",
                    "midi": 67,
                    "time": 200.1071070000008,
                    "velocity": 0.33858267716535434,
                    "duration": 0.8036429999999939
                },
                {
                    "name": "D4",
                    "midi": 62,
                    "time": 200.9107500000008,
                    "velocity": 0.3464566929133858,
                    "duration": 0.8036429999999939
                },
                {
                    "name": "F3",
                    "midi": 53,
                    "time": 200.9107500000008,
                    "velocity": 0.29133858267716534,
                    "duration": 1.6072859999999878
                },
                {
                    "name": "D#4",
                    "midi": 63,
                    "time": 201.7143930000008,
                    "velocity": 0.28346456692913385,
                    "duration": 0.8036429999999939
                },
                {
                    "name": "D4",
                    "midi": 62,
                    "time": 202.5180360000008,
                    "velocity": 0.2992125984251969,
                    "duration": 0.40182150000001116
                },
                {
                    "name": "A#3",
                    "midi": 58,
                    "time": 202.5180360000008,
                    "velocity": 0.23622047244094488,
                    "duration": 0.8036429999999939
                },
                {
                    "name": "F4",
                    "midi": 65,
                    "time": 202.9198575000008,
                    "velocity": 0.23622047244094488,
                    "duration": 0.20091074999999137
                },
                {
                    "name": "F4",
                    "midi": 65,
                    "time": 203.32167900000078,
                    "velocity": 0.23622047244094488,
                    "duration": 0.20091074999999137
                },
                {
                    "name": "F4",
                    "midi": 65,
                    "time": 203.72350050000077,
                    "velocity": 0.23622047244094488,
                    "duration": 0.20091074999999137
                },
                {
                    "name": "A#3",
                    "midi": 58,
                    "time": 204.12532200000075,
                    "velocity": 0.2204724409448819,
                    "duration": 0.8036430000000223
                },
                {
                    "name": "D4",
                    "midi": 62,
                    "time": 204.12532200000075,
                    "velocity": 0.25984251968503935,
                    "duration": 0.40182150000001116
                },
                {
                    "name": "F4",
                    "midi": 65,
                    "time": 204.52714350000076,
                    "velocity": 0.2125984251968504,
                    "duration": 0.40182150000001116
                },
                {
                    "name": "D#4",
                    "midi": 63,
                    "time": 204.92896500000077,
                    "velocity": 0.2125984251968504,
                    "duration": 0.40182150000001116
                },
                {
                    "name": "C4",
                    "midi": 60,
                    "time": 204.92896500000077,
                    "velocity": 0.1732283464566929,
                    "duration": 0.8036430000000223
                },
                {
                    "name": "F4",
                    "midi": 65,
                    "time": 205.33078650000078,
                    "velocity": 0.2125984251968504,
                    "duration": 0.40182150000001116
                },
                {
                    "name": "C4",
                    "midi": 60,
                    "time": 205.7326080000008,
                    "velocity": 0.25984251968503935,
                    "duration": 0.40182150000001116
                },
                {
                    "name": "A3",
                    "midi": 57,
                    "time": 205.7326080000008,
                    "velocity": 0.25984251968503935,
                    "duration": 0.8036429999999939
                },
                {
                    "name": "F4",
                    "midi": 65,
                    "time": 206.1344295000008,
                    "velocity": 0.2047244094488189,
                    "duration": 0.20091074999999137
                },
                {
                    "name": "F4",
                    "midi": 65,
                    "time": 206.5362510000008,
                    "velocity": 0.23622047244094488,
                    "duration": 0.20091074999999137
                },
                {
                    "name": "F4",
                    "midi": 65,
                    "time": 206.93807250000077,
                    "velocity": 0.2047244094488189,
                    "duration": 0.20091074999999137
                },
                {
                    "name": "F3",
                    "midi": 53,
                    "time": 207.33989400000075,
                    "velocity": 0.2204724409448819,
                    "duration": 0.8036430000000223
                },
                {
                    "name": "A3",
                    "midi": 57,
                    "time": 207.33989400000075,
                    "velocity": 0.2677165354330709,
                    "duration": 0.40182150000001116
                },
                {
                    "name": "F4",
                    "midi": 65,
                    "time": 207.74171550000077,
                    "velocity": 0.2440944881889764,
                    "duration": 0.40182150000001116
                },
                {
                    "name": "D#4",
                    "midi": 63,
                    "time": 208.14353700000078,
                    "velocity": 0.2440944881889764,
                    "duration": 0.40182150000001116
                },
                {
                    "name": "C4",
                    "midi": 60,
                    "time": 208.14353700000078,
                    "velocity": 0.2047244094488189,
                    "duration": 0.8036430000000223
                },
                {
                    "name": "F4",
                    "midi": 65,
                    "time": 208.5453585000008,
                    "velocity": 0.2440944881889764,
                    "duration": 0.40182150000001116
                },
                {
                    "name": "D4",
                    "midi": 62,
                    "time": 208.9471800000008,
                    "velocity": 0.2992125984251969,
                    "duration": 0.40182150000001116
                },
                {
                    "name": "A#3",
                    "midi": 58,
                    "time": 208.9471800000008,
                    "velocity": 0.25196850393700787,
                    "duration": 0.8036429999999939
                },
                {
                    "name": "F4",
                    "midi": 65,
                    "time": 209.3490015000008,
                    "velocity": 0.23622047244094488,
                    "duration": 0.20091074999999137
                },
                {
                    "name": "F4",
                    "midi": 65,
                    "time": 209.7508230000008,
                    "velocity": 0.23622047244094488,
                    "duration": 0.20091074999999137
                },
                {
                    "name": "F4",
                    "midi": 65,
                    "time": 210.15264450000078,
                    "velocity": 0.23622047244094488,
                    "duration": 0.20091074999999137
                },
                {
                    "name": "D4",
                    "midi": 62,
                    "time": 210.55446600000076,
                    "velocity": 0.2992125984251969,
                    "duration": 0.40182150000001116
                },
                {
                    "name": "A#3",
                    "midi": 58,
                    "time": 210.55446600000076,
                    "velocity": 0.25196850393700787,
                    "duration": 0.8036430000000223
                },
                {
                    "name": "F4",
                    "midi": 65,
                    "time": 210.95628750000077,
                    "velocity": 0.2204724409448819,
                    "duration": 0.40182150000001116
                },
                {
                    "name": "D#4",
                    "midi": 63,
                    "time": 211.35810900000078,
                    "velocity": 0.2204724409448819,
                    "duration": 0.40182150000001116
                },
                {
                    "name": "C4",
                    "midi": 60,
                    "time": 211.35810900000078,
                    "velocity": 0.18110236220472442,
                    "duration": 0.8036430000000223
                },
                {
                    "name": "F4",
                    "midi": 65,
                    "time": 211.7599305000008,
                    "velocity": 0.2204724409448819,
                    "duration": 0.40182150000001116
                },
                {
                    "name": "C4",
                    "midi": 60,
                    "time": 212.1617520000008,
                    "velocity": 0.2755905511811024,
                    "duration": 0.40182150000001116
                },
                {
                    "name": "A3",
                    "midi": 57,
                    "time": 212.1617520000008,
                    "velocity": 0.2283464566929134,
                    "duration": 0.8036429999999939
                },
                {
                    "name": "F4",
                    "midi": 65,
                    "time": 212.5635735000008,
                    "velocity": 0.2204724409448819,
                    "duration": 0.20091074999999137
                },
                {
                    "name": "F4",
                    "midi": 65,
                    "time": 212.9653950000008,
                    "velocity": 0.23622047244094488,
                    "duration": 0.20091074999999137
                },
                {
                    "name": "F4",
                    "midi": 65,
                    "time": 213.36721650000078,
                    "velocity": 0.2047244094488189,
                    "duration": 0.20091074999999137
                },
                {
                    "name": "A3",
                    "midi": 57,
                    "time": 213.76903800000076,
                    "velocity": 0.2677165354330709,
                    "duration": 0.40182150000001116
                },
                {
                    "name": "F3",
                    "midi": 53,
                    "time": 213.76903800000076,
                    "velocity": 0.2204724409448819,
                    "duration": 0.8036430000000223
                },
                {
                    "name": "F4",
                    "midi": 65,
                    "time": 214.17085950000077,
                    "velocity": 0.1968503937007874,
                    "duration": 0.40182150000001116
                },
                {
                    "name": "D#4",
                    "midi": 63,
                    "time": 214.57268100000078,
                    "velocity": 0.2440944881889764,
                    "duration": 0.40182150000001116
                },
                {
                    "name": "C4",
                    "midi": 60,
                    "time": 214.57268100000078,
                    "velocity": 0.2047244094488189,
                    "duration": 0.8036430000000223
                },
                {
                    "name": "F4",
                    "midi": 65,
                    "time": 214.9745025000008,
                    "velocity": 0.2047244094488189,
                    "duration": 0.40182150000001116
                },
                {
                    "name": "D4",
                    "midi": 62,
                    "time": 215.3763240000008,
                    "velocity": 0.2992125984251969,
                    "duration": 0.8036429999999939
                },
                {
                    "name": "A#3",
                    "midi": 58,
                    "time": 215.3763240000008,
                    "velocity": 0.25196850393700787,
                    "duration": 0.8036429999999939
                },
                {
                    "name": "D5",
                    "midi": 74,
                    "time": 216.9836100000008,
                    "velocity": 0.4409448818897638,
                    "duration": 0.40182150000001116
                },
                {
                    "name": "A#4",
                    "midi": 70,
                    "time": 216.9836100000008,
                    "velocity": 0.3700787401574803,
                    "duration": 0.40182150000001116
                },
                {
                    "name": "C5",
                    "midi": 72,
                    "time": 217.3854315000008,
                    "velocity": 0.4015748031496063,
                    "duration": 0.40182150000001116
                },
                {
                    "name": "A4",
                    "midi": 69,
                    "time": 217.3854315000008,
                    "velocity": 0.33858267716535434,
                    "duration": 0.40182150000001116
                },
                {
                    "name": "G4",
                    "midi": 67,
                    "time": 217.78725300000082,
                    "velocity": 0.2992125984251969,
                    "duration": 0.40182150000001116
                },
                {
                    "name": "A#4",
                    "midi": 70,
                    "time": 217.78725300000082,
                    "velocity": 0.3543307086614173,
                    "duration": 0.40182150000001116
                },
                {
                    "name": "A4",
                    "midi": 69,
                    "time": 218.18907450000083,
                    "velocity": 0.3543307086614173,
                    "duration": 0.40182150000001116
                },
                {
                    "name": "F#4",
                    "midi": 66,
                    "time": 218.18907450000083,
                    "velocity": 0.2992125984251969,
                    "duration": 0.40182150000001116
                },
                {
                    "name": "G4",
                    "midi": 67,
                    "time": 218.59089600000084,
                    "velocity": 0.3700787401574803,
                    "duration": 0.40182150000001116
                },
                {
                    "name": "A#4",
                    "midi": 70,
                    "time": 218.59089600000084,
                    "velocity": 0.4409448818897638,
                    "duration": 0.40182150000001116
                },
                {
                    "name": "F4",
                    "midi": 65,
                    "time": 218.99271750000085,
                    "velocity": 0.33858267716535434,
                    "duration": 0.40182150000001116
                },
                {
                    "name": "A4",
                    "midi": 69,
                    "time": 218.99271750000085,
                    "velocity": 0.4015748031496063,
                    "duration": 0.40182150000001116
                },
                {
                    "name": "D#4",
                    "midi": 63,
                    "time": 219.39453900000086,
                    "velocity": 0.31496062992125984,
                    "duration": 0.40182150000001116
                },
                {
                    "name": "G4",
                    "midi": 67,
                    "time": 219.39453900000086,
                    "velocity": 0.3700787401574803,
                    "duration": 0.40182150000001116
                },
                {
                    "name": "F#4",
                    "midi": 66,
                    "time": 219.79636050000087,
                    "velocity": 0.3700787401574803,
                    "duration": 0.40182150000001116
                },
                {
                    "name": "D4",
                    "midi": 62,
                    "time": 219.79636050000087,
                    "velocity": 0.31496062992125984,
                    "duration": 0.40182150000001116
                },
                {
                    "name": "D#4",
                    "midi": 63,
                    "time": 220.19818200000088,
                    "velocity": 0.3700787401574803,
                    "duration": 0.40182150000001116
                },
                {
                    "name": "G4",
                    "midi": 67,
                    "time": 220.19818200000088,
                    "velocity": 0.4409448818897638,
                    "duration": 0.40182150000001116
                },
                {
                    "name": "F4",
                    "midi": 65,
                    "time": 220.6000035000009,
                    "velocity": 0.3937007874015748,
                    "duration": 0.40182150000001116
                },
                {
                    "name": "D4",
                    "midi": 62,
                    "time": 220.6000035000009,
                    "velocity": 0.33070866141732286,
                    "duration": 0.40182150000001116
                },
                {
                    "name": "C4",
                    "midi": 60,
                    "time": 221.0018250000009,
                    "velocity": 0.31496062992125984,
                    "duration": 0.40182150000001116
                },
                {
                    "name": "D#4",
                    "midi": 63,
                    "time": 221.0018250000009,
                    "velocity": 0.3700787401574803,
                    "duration": 0.40182150000001116
                },
                {
                    "name": "D4",
                    "midi": 62,
                    "time": 221.40364650000092,
                    "velocity": 0.36220472440944884,
                    "duration": 0.38507893749999766
                },
                {
                    "name": "B3",
                    "midi": 59,
                    "time": 221.40364650000092,
                    "velocity": 0.30708661417322836,
                    "duration": 0.38507893749999766
                },
                {
                    "name": "F4",
                    "midi": 65,
                    "time": 221.80546800000093,
                    "velocity": 0.36220472440944884,
                    "duration": 1.6072859999999878
                },
                {
                    "name": "B3",
                    "midi": 59,
                    "time": 221.80546800000093,
                    "velocity": 0.2755905511811024,
                    "duration": 1.6072859999999878
                },
                {
                    "name": "D4",
                    "midi": 62,
                    "time": 221.80546800000093,
                    "velocity": 0.28346456692913385,
                    "duration": 1.6072859999999878
                },
                {
                    "name": "G3",
                    "midi": 55,
                    "time": 221.80546800000093,
                    "velocity": 0.25984251968503935,
                    "duration": 1.6072859999999878
                },
                {
                    "name": "C4",
                    "midi": 60,
                    "time": 223.41275400000092,
                    "velocity": 0.2755905511811024,
                    "duration": 1.6072859999999878
                },
                {
                    "name": "D#4",
                    "midi": 63,
                    "time": 223.41275400000092,
                    "velocity": 0.33070866141732286,
                    "duration": 0.8036429999999939
                },
                {
                    "name": "A4",
                    "midi": 69,
                    "time": 224.2163970000009,
                    "velocity": 0.3464566929133858,
                    "duration": 0.8036429999999939
                },
                {
                    "name": "A#4",
                    "midi": 70,
                    "time": 225.0200400000009,
                    "velocity": 0.3779527559055118,
                    "duration": 0.8036429999999939
                },
                {
                    "name": "D4",
                    "midi": 62,
                    "time": 225.0200400000009,
                    "velocity": 0.31496062992125984,
                    "duration": 0.8036429999999939
                },
                {
                    "name": "D#4",
                    "midi": 63,
                    "time": 225.8236830000009,
                    "velocity": 0.2992125984251969,
                    "duration": 0.8036429999999939
                },
                {
                    "name": "G4",
                    "midi": 67,
                    "time": 225.8236830000009,
                    "velocity": 0.3543307086614173,
                    "duration": 0.8036429999999939
                },
                {
                    "name": "F3",
                    "midi": 53,
                    "time": 226.6273260000009,
                    "velocity": 0.29133858267716534,
                    "duration": 1.6072859999999878
                },
                {
                    "name": "D4",
                    "midi": 62,
                    "time": 226.6273260000009,
                    "velocity": 0.3464566929133858,
                    "duration": 0.8036429999999939
                },
                {
                    "name": "C4",
                    "midi": 60,
                    "time": 227.43096900000089,
                    "velocity": 0.31496062992125984,
                    "duration": 0.8036429999999939
                },
                {
                    "name": "A#2",
                    "midi": 46,
                    "time": 228.6364335000009,
                    "velocity": 0.3937007874015748,
                    "duration": 0.40182150000001116
                },
                {
                    "name": "D3",
                    "midi": 50,
                    "time": 229.0382550000009,
                    "velocity": 0.4251968503937008,
                    "duration": 0.40182150000001116
                },
                {
                    "name": "G3",
                    "midi": 55,
                    "time": 229.4400765000009,
                    "velocity": 0.3937007874015748,
                    "duration": 0.40182150000001116
                },
                {
                    "name": "C3",
                    "midi": 48,
                    "time": 230.24371950000094,
                    "velocity": 0.3937007874015748,
                    "duration": 0.40182150000001116
                },
                {
                    "name": "D#3",
                    "midi": 51,
                    "time": 230.64554100000095,
                    "velocity": 0.4251968503937008,
                    "duration": 0.40182150000001116
                },
                {
                    "name": "A3",
                    "midi": 57,
                    "time": 231.04736250000096,
                    "velocity": 0.3937007874015748,
                    "duration": 0.40182150000001116
                },
                {
                    "name": "D3",
                    "midi": 50,
                    "time": 231.85100550000098,
                    "velocity": 0.3937007874015748,
                    "duration": 0.40182150000001116
                },
                {
                    "name": "F3",
                    "midi": 53,
                    "time": 232.252827000001,
                    "velocity": 0.4251968503937008,
                    "duration": 0.40182150000001116
                },
                {
                    "name": "A#3",
                    "midi": 58,
                    "time": 232.654648500001,
                    "velocity": 0.3543307086614173,
                    "duration": 1.205464500000005
                },
                {
                    "name": "D3",
                    "midi": 50,
                    "time": 233.056470000001,
                    "velocity": 0.3858267716535433,
                    "duration": 1.6072859999999878
                },
                {
                    "name": "G#3",
                    "midi": 56,
                    "time": 233.860113000001,
                    "velocity": 0.3700787401574803,
                    "duration": 0.8036429999999939
                },
                {
                    "name": "G3",
                    "midi": 55,
                    "time": 234.663756000001,
                    "velocity": 0.31496062992125984,
                    "duration": 0.8036429999999939
                },
                {
                    "name": "D#3",
                    "midi": 51,
                    "time": 234.663756000001,
                    "velocity": 0.31496062992125984,
                    "duration": 0.8036429999999939
                },
                {
                    "name": "A#3",
                    "midi": 58,
                    "time": 234.663756000001,
                    "velocity": 0.3779527559055118,
                    "duration": 0.8036429999999939
                },
                {
                    "name": "D#3",
                    "midi": 51,
                    "time": 236.271042000001,
                    "velocity": 0.31496062992125984,
                    "duration": 0.8036429999999939
                },
                {
                    "name": "G3",
                    "midi": 55,
                    "time": 236.271042000001,
                    "velocity": 0.31496062992125984,
                    "duration": 0.8036429999999939
                },
                {
                    "name": "C4",
                    "midi": 60,
                    "time": 236.271042000001,
                    "velocity": 0.3779527559055118,
                    "duration": 0.8036429999999939
                },
                {
                    "name": "F3",
                    "midi": 53,
                    "time": 237.87832800000098,
                    "velocity": 0.3937007874015748,
                    "duration": 0.40182150000001116
                },
                {
                    "name": "D4",
                    "midi": 62,
                    "time": 238.280149500001,
                    "velocity": 0.33858267716535434,
                    "duration": 0.40182150000001116
                },
                {
                    "name": "A#3",
                    "midi": 58,
                    "time": 238.681971000001,
                    "velocity": 0.3937007874015748,
                    "duration": 0.40182150000001116
                },
                {
                    "name": "D4",
                    "midi": 62,
                    "time": 239.083792500001,
                    "velocity": 0.2992125984251969,
                    "duration": 0.40182150000001116
                },
                {
                    "name": "F3",
                    "midi": 53,
                    "time": 239.48561400000102,
                    "velocity": 0.33858267716535434,
                    "duration": 0.40182150000001116
                },
                {
                    "name": "D4",
                    "midi": 62,
                    "time": 239.88743550000103,
                    "velocity": 0.2755905511811024,
                    "duration": 0.40182150000001116
                },
                {
                    "name": "A#3",
                    "midi": 58,
                    "time": 240.28925700000104,
                    "velocity": 0.2755905511811024,
                    "duration": 0.40182150000001116
                },
                {
                    "name": "D4",
                    "midi": 62,
                    "time": 240.69107850000105,
                    "velocity": 0.2755905511811024,
                    "duration": 0.40182150000001116
                },
                {
                    "name": "F3",
                    "midi": 53,
                    "time": 241.09290000000107,
                    "velocity": 0.2992125984251969,
                    "duration": 0.40182150000001116
                },
                {
                    "name": "D#4",
                    "midi": 63,
                    "time": 241.49472150000108,
                    "velocity": 0.25984251968503935,
                    "duration": 0.40182150000001116
                },
                {
                    "name": "A3",
                    "midi": 57,
                    "time": 241.8965430000011,
                    "velocity": 0.25984251968503935,
                    "duration": 0.40182150000001116
                },
                {
                    "name": "D#4",
                    "midi": 63,
                    "time": 242.2983645000011,
                    "velocity": 0.25984251968503935,
                    "duration": 0.40182150000001116
                },
                {
                    "name": "F3",
                    "midi": 53,
                    "time": 242.7001860000011,
                    "velocity": 0.29133858267716534,
                    "duration": 0.40182150000001116
                },
                {
                    "name": "D#4",
                    "midi": 63,
                    "time": 243.10200750000112,
                    "velocity": 0.25196850393700787,
                    "duration": 0.40182150000001116
                },
                {
                    "name": "A3",
                    "midi": 57,
                    "time": 243.50382900000113,
                    "velocity": 0.25196850393700787,
                    "duration": 0.40182150000001116
                },
                {
                    "name": "D#4",
                    "midi": 63,
                    "time": 243.90565050000114,
                    "velocity": 0.25196850393700787,
                    "duration": 0.40182150000001116
                },
                {
                    "name": "A#3",
                    "midi": 58,
                    "time": 244.30747200000116,
                    "velocity": 0.29133858267716534,
                    "duration": 3.2145720000000324
                },
                {
                    "name": "D4",
                    "midi": 62,
                    "time": 244.70929350000117,
                    "velocity": 0.2755905511811024,
                    "duration": 0.40182150000001116
                },
                {
                    "name": "F4",
                    "midi": 65,
                    "time": 245.11111500000118,
                    "velocity": 0.30708661417322836,
                    "duration": 0.40182150000001116
                },
                {
                    "name": "G#4",
                    "midi": 68,
                    "time": 245.5129365000012,
                    "velocity": 0.2755905511811024,
                    "duration": 0.40182150000001116
                },
                {
                    "name": "G4",
                    "midi": 67,
                    "time": 245.9147580000012,
                    "velocity": 0.29133858267716534,
                    "duration": 0.8036429999999939
                },
                {
                    "name": "D#4",
                    "midi": 63,
                    "time": 246.7184010000012,
                    "velocity": 0.2677165354330709,
                    "duration": 0.8036429999999939
                },
                {
                    "name": "D4",
                    "midi": 62,
                    "time": 247.5220440000012,
                    "velocity": 0.2755905511811024,
                    "duration": 0.40182150000001116
                },
                {
                    "name": "A#3",
                    "midi": 58,
                    "time": 247.5220440000012,
                    "velocity": 0.29133858267716534,
                    "duration": 3.2145720000000324
                },
                {
                    "name": "F4",
                    "midi": 65,
                    "time": 247.9238655000012,
                    "velocity": 0.2755905511811024,
                    "duration": 0.40182150000001116
                },
                {
                    "name": "G#4",
                    "midi": 68,
                    "time": 248.3256870000012,
                    "velocity": 0.30708661417322836,
                    "duration": 0.40182150000001116
                },
                {
                    "name": "F#4",
                    "midi": 66,
                    "time": 248.72750850000122,
                    "velocity": 0.2755905511811024,
                    "duration": 0.40182150000001116
                },
                {
                    "name": "G4",
                    "midi": 67,
                    "time": 249.12933000000123,
                    "velocity": 0.29133858267716534,
                    "duration": 0.8036429999999939
                },
                {
                    "name": "D#4",
                    "midi": 63,
                    "time": 249.93297300000123,
                    "velocity": 0.2677165354330709,
                    "duration": 0.8036429999999939
                },
                {
                    "name": "A#3",
                    "midi": 58,
                    "time": 250.73661600000122,
                    "velocity": 0.25196850393700787,
                    "duration": 0.8036430000000223
                },
                {
                    "name": "D4",
                    "midi": 62,
                    "time": 251.13843750000123,
                    "velocity": 0.2047244094488189,
                    "duration": 0.40182150000001116
                },
                {
                    "name": "F4",
                    "midi": 65,
                    "time": 251.13843750000123,
                    "velocity": 0.2755905511811024,
                    "duration": 0.40182150000001116
                },
                {
                    "name": "G4",
                    "midi": 67,
                    "time": 251.54025900000124,
                    "velocity": 0.31496062992125984,
                    "duration": 0.40182150000001116
                },
                {
                    "name": "D#4",
                    "midi": 63,
                    "time": 251.54025900000124,
                    "velocity": 0.25196850393700787,
                    "duration": 0.40182150000001116
                },
                {
                    "name": "D#4",
                    "midi": 63,
                    "time": 251.94208050000125,
                    "velocity": 0.29133858267716534,
                    "duration": 0.40182150000001116
                },
                {
                    "name": "C4",
                    "midi": 60,
                    "time": 251.94208050000125,
                    "velocity": 0.2283464566929134,
                    "duration": 0.40182150000001116
                },
                {
                    "name": "A#3",
                    "midi": 58,
                    "time": 252.34390200000126,
                    "velocity": 0.25196850393700787,
                    "duration": 0.8036430000000223
                },
                {
                    "name": "D4",
                    "midi": 62,
                    "time": 252.34390200000126,
                    "velocity": 0.2992125984251969,
                    "duration": 0.40182150000001116
                },
                {
                    "name": "F4",
                    "midi": 65,
                    "time": 252.74572350000128,
                    "velocity": 0.28346456692913385,
                    "duration": 0.40182150000001116
                },
                {
                    "name": "D4",
                    "midi": 62,
                    "time": 252.74572350000128,
                    "velocity": 0.2204724409448819,
                    "duration": 0.40182150000001116
                },
                {
                    "name": "G4",
                    "midi": 67,
                    "time": 253.1475450000013,
                    "velocity": 0.31496062992125984,
                    "duration": 0.40182150000001116
                },
                {
                    "name": "D#4",
                    "midi": 63,
                    "time": 253.1475450000013,
                    "velocity": 0.25196850393700787,
                    "duration": 0.40182150000001116
                },
                {
                    "name": "D#4",
                    "midi": 63,
                    "time": 253.5493665000013,
                    "velocity": 0.23622047244094488,
                    "duration": 0.40182149999998273
                },
                {
                    "name": "C4",
                    "midi": 60,
                    "time": 253.5493665000013,
                    "velocity": 0.1889763779527559,
                    "duration": 0.3934502187499902
                },
                {
                    "name": "A#3",
                    "midi": 58,
                    "time": 253.95118800000128,
                    "velocity": 0.2125984251968504,
                    "duration": 2.4109289999999817
                },
                {
                    "name": "A#2",
                    "midi": 46,
                    "time": 253.95118800000128,
                    "velocity": 0.16535433070866143,
                    "duration": 2.4109289999999817
                },
                {
                    "name": "D3",
                    "midi": 50,
                    "time": 255.55847400000127,
                    "velocity": 0.14173228346456693,
                    "duration": 0.8036429999999939
                },
                {
                    "name": "F3",
                    "midi": 53,
                    "time": 255.55847400000127,
                    "velocity": 0.15748031496062992,
                    "duration": 0.8036429999999939
                }
            ],
            "controlChanges": {
                "7": [
                    {
                        "number": 7,
                        "time": 0,
                        "value": 0.7874015748031497
                    }
                ],
                "10": [
                    {
                        "number": 10,
                        "time": 0,
                        "value": 0.5039370078740157
                    }
                ]
            },
            "id": 2,
            "name": "Piano left",
            "instrumentNumber": 0,
            "instrument": "acoustic grand piano",
            "instrumentFamily": "piano",
            "channelNumber": 0,
            "isPercussion": false
        },
        {
            "startTime": 0,
            "duration": 0,
            "length": 0,
            "notes": [],
            "controlChanges": {
                "64": [
                    {
                        "number": 64,
                        "time": 0.06529599375,
                        "value": 1
                    },
                    {
                        "number": 64,
                        "time": 1.63574835625,
                        "value": 0
                    },
                    {
                        "number": 64,
                        "time": 1.7144384,
                        "value": 1
                    },
                    {
                        "number": 64,
                        "time": 2.4276715624999996,
                        "value": 0
                    },
                    {
                        "number": 64,
                        "time": 2.5298011937499996,
                        "value": 1
                    },
                    {
                        "number": 64,
                        "time": 3.2329888187499995,
                        "value": 0
                    },
                    {
                        "number": 64,
                        "time": 3.3100046062499997,
                        "value": 1
                    },
                    {
                        "number": 64,
                        "time": 4.841949075,
                        "value": 0
                    },
                    {
                        "number": 64,
                        "time": 4.99430639375,
                        "value": 1
                    },
                    {
                        "number": 64,
                        "time": 6.46430338125,
                        "value": 0
                    },
                    {
                        "number": 64,
                        "time": 6.529599375,
                        "value": 1
                    },
                    {
                        "number": 64,
                        "time": 7.2562265875000005,
                        "value": 0
                    },
                    {
                        "number": 64,
                        "time": 7.316499812500001,
                        "value": 1
                    },
                    {
                        "number": 64,
                        "time": 8.056521075000001,
                        "value": 0
                    },
                    {
                        "number": 64,
                        "time": 8.197158600000002,
                        "value": 1
                    },
                    {
                        "number": 64,
                        "time": 8.845095768750001,
                        "value": 0
                    },
                    {
                        "number": 64,
                        "time": 8.93550560625,
                        "value": 1
                    },
                    {
                        "number": 64,
                        "time": 9.66213281875,
                        "value": 0
                    },
                    {
                        "number": 64,
                        "time": 9.750868400000002,
                        "value": 1
                    },
                    {
                        "number": 64,
                        "time": 11.269418818750001,
                        "value": 0
                    },
                    {
                        "number": 64,
                        "time": 11.374896962500001,
                        "value": 1
                    },
                    {
                        "number": 64,
                        "time": 12.876704818750001,
                        "value": 0
                    },
                    {
                        "number": 64,
                        "time": 12.983857218750002,
                        "value": 1
                    },
                    {
                        "number": 64,
                        "time": 14.485665075000002,
                        "value": 0
                    },
                    {
                        "number": 64,
                        "time": 14.638022393750001,
                        "value": 1
                    },
                    {
                        "number": 64,
                        "time": 16.092951075000002,
                        "value": 0
                    },
                    {
                        "number": 64,
                        "time": 16.226891575000003,
                        "value": 1
                    },
                    {
                        "number": 64,
                        "time": 16.481378525000004,
                        "value": 0
                    },
                    {
                        "number": 64,
                        "time": 16.657175431250003,
                        "value": 1
                    },
                    {
                        "number": 64,
                        "time": 17.708608356250004,
                        "value": 0
                    },
                    {
                        "number": 64,
                        "time": 17.814086500000002,
                        "value": 1
                    },
                    {
                        "number": 64,
                        "time": 19.287432000000003,
                        "value": 0
                    },
                    {
                        "number": 64,
                        "time": 19.47662295625,
                        "value": 1
                    },
                    {
                        "number": 64,
                        "time": 20.914809075,
                        "value": 0
                    },
                    {
                        "number": 64,
                        "time": 21.13078813125,
                        "value": 1
                    },
                    {
                        "number": 64,
                        "time": 22.522095075,
                        "value": 0
                    },
                    {
                        "number": 64,
                        "time": 22.691194956249998,
                        "value": 1
                    },
                    {
                        "number": 64,
                        "time": 24.129381074999998,
                        "value": 0
                    },
                    {
                        "number": 64,
                        "time": 24.382193768749996,
                        "value": 1
                    },
                    {
                        "number": 64,
                        "time": 25.716575999999996,
                        "value": 0
                    },
                    {
                        "number": 64,
                        "time": 25.812008606249996,
                        "value": 1
                    },
                    {
                        "number": 64,
                        "time": 26.525241768749996,
                        "value": 0
                    },
                    {
                        "number": 64,
                        "time": 26.567098174999998,
                        "value": 1
                    },
                    {
                        "number": 64,
                        "time": 27.340604562499998,
                        "value": 0
                    },
                    {
                        "number": 64,
                        "time": 27.412597581249997,
                        "value": 1
                    },
                    {
                        "number": 64,
                        "time": 28.1442475625,
                        "value": 0
                    },
                    {
                        "number": 64,
                        "time": 28.21624058125,
                        "value": 1
                    },
                    {
                        "number": 64,
                        "time": 28.949564818749998,
                        "value": 0
                    },
                    {
                        "number": 64,
                        "time": 29.257627968749997,
                        "value": 1
                    },
                    {
                        "number": 64,
                        "time": 30.556850818749997,
                        "value": 0
                    },
                    {
                        "number": 64,
                        "time": 30.826406074999998,
                        "value": 1
                    },
                    {
                        "number": 64,
                        "time": 32.16078830625,
                        "value": 0
                    },
                    {
                        "number": 64,
                        "time": 32.26124368125,
                        "value": 1
                    },
                    {
                        "number": 64,
                        "time": 32.96275705,
                        "value": 0
                    },
                    {
                        "number": 64,
                        "time": 33.03140155625,
                        "value": 1
                    },
                    {
                        "number": 64,
                        "time": 33.75802876875,
                        "value": 0
                    },
                    {
                        "number": 64,
                        "time": 33.82499901875,
                        "value": 1
                    },
                    {
                        "number": 64,
                        "time": 34.56502028125,
                        "value": 0
                    },
                    {
                        "number": 64,
                        "time": 34.62864201875,
                        "value": 1
                    },
                    {
                        "number": 64,
                        "time": 35.3770345625,
                        "value": 0
                    },
                    {
                        "number": 64,
                        "time": 35.460747375000004,
                        "value": 1
                    },
                    {
                        "number": 64,
                        "time": 36.9843205625,
                        "value": 0
                    },
                    {
                        "number": 64,
                        "time": 37.093147218750005,
                        "value": 1
                    },
                    {
                        "number": 64,
                        "time": 38.59328081875,
                        "value": 0
                    },
                    {
                        "number": 64,
                        "time": 38.69038768125,
                        "value": 1
                    },
                    {
                        "number": 64,
                        "time": 40.202241075,
                        "value": 0
                    },
                    {
                        "number": 64,
                        "time": 40.297673681250004,
                        "value": 1
                    },
                    {
                        "number": 64,
                        "time": 41.801155793750006,
                        "value": 0
                    },
                    {
                        "number": 64,
                        "time": 41.89491414375001,
                        "value": 1
                    },
                    {
                        "number": 64,
                        "time": 42.61149581875001,
                        "value": 0
                    },
                    {
                        "number": 64,
                        "time": 42.70860268125001,
                        "value": 1
                    },
                    {
                        "number": 64,
                        "time": 43.810263293750005,
                        "value": 0
                    },
                    {
                        "number": 64,
                        "time": 43.932484,
                        "value": 1
                    },
                    {
                        "number": 64,
                        "time": 44.6122320375,
                        "value": 0
                    },
                    {
                        "number": 64,
                        "time": 44.689247825,
                        "value": 1
                    },
                    {
                        "number": 64,
                        "time": 45.004008,
                        "value": 0
                    },
                    {
                        "number": 64,
                        "time": 45.09944060625,
                        "value": 1
                    },
                    {
                        "number": 64,
                        "time": 45.81267376875,
                        "value": 0
                    },
                    {
                        "number": 64,
                        "time": 45.854530175,
                        "value": 1
                    },
                    {
                        "number": 64,
                        "time": 46.6280365625,
                        "value": 0
                    },
                    {
                        "number": 64,
                        "time": 46.70002958125,
                        "value": 1
                    },
                    {
                        "number": 64,
                        "time": 47.4316795625,
                        "value": 0
                    },
                    {
                        "number": 64,
                        "time": 47.50367258125,
                        "value": 1
                    },
                    {
                        "number": 64,
                        "time": 48.2353225625,
                        "value": 0
                    },
                    {
                        "number": 64,
                        "time": 48.550082737500006,
                        "value": 1
                    },
                    {
                        "number": 64,
                        "time": 49.84763133125001,
                        "value": 0
                    },
                    {
                        "number": 64,
                        "time": 50.02677675,
                        "value": 1
                    },
                    {
                        "number": 64,
                        "time": 50.647925818750004,
                        "value": 0
                    },
                    {
                        "number": 64,
                        "time": 50.806980162500004,
                        "value": 1
                    },
                    {
                        "number": 64,
                        "time": 51.43315200000001,
                        "value": 0
                    },
                    {
                        "number": 64,
                        "time": 51.57546378125001,
                        "value": 1
                    },
                    {
                        "number": 64,
                        "time": 53.04880928125001,
                        "value": 0
                    },
                    {
                        "number": 64,
                        "time": 53.21790916250001,
                        "value": 1
                    },
                    {
                        "number": 64,
                        "time": 53.86249781875001,
                        "value": 0
                    },
                    {
                        "number": 64,
                        "time": 54.033271956250005,
                        "value": 1
                    },
                    {
                        "number": 64,
                        "time": 54.6644665625,
                        "value": 0
                    },
                    {
                        "number": 64,
                        "time": 54.790035781250005,
                        "value": 1
                    },
                    {
                        "number": 64,
                        "time": 56.27677533125001,
                        "value": 0
                    },
                    {
                        "number": 64,
                        "time": 56.36216240000001,
                        "value": 1
                    },
                    {
                        "number": 64,
                        "time": 57.075395562500006,
                        "value": 0
                    },
                    {
                        "number": 64,
                        "time": 57.17752519375001,
                        "value": 1
                    },
                    {
                        "number": 64,
                        "time": 57.86229600000001,
                        "value": 0
                    },
                    {
                        "number": 64,
                        "time": 58.00460778125001,
                        "value": 1
                    },
                    {
                        "number": 64,
                        "time": 59.47795328125001,
                        "value": 0
                    },
                    {
                        "number": 64,
                        "time": 59.64705316250001,
                        "value": 1
                    },
                    {
                        "number": 64,
                        "time": 60.29164181875001,
                        "value": 0
                    },
                    {
                        "number": 64,
                        "time": 60.462415956250005,
                        "value": 1
                    },
                    {
                        "number": 64,
                        "time": 61.093610562500004,
                        "value": 0
                    },
                    {
                        "number": 64,
                        "time": 61.219179781250006,
                        "value": 1
                    },
                    {
                        "number": 64,
                        "time": 62.270612706250006,
                        "value": 0
                    },
                    {
                        "number": 64,
                        "time": 62.814745987500004,
                        "value": 1
                    },
                    {
                        "number": 64,
                        "time": 63.497842537500006,
                        "value": 0
                    },
                    {
                        "number": 64,
                        "time": 64.445471575,
                        "value": 1
                    },
                    {
                        "number": 64,
                        "time": 65.11349981875,
                        "value": 0
                    },
                    {
                        "number": 64,
                        "time": 66.05443183125,
                        "value": 1
                    },
                    {
                        "number": 64,
                        "time": 66.72078581875,
                        "value": 0
                    },
                    {
                        "number": 64,
                        "time": 67.64832378125,
                        "value": 1
                    },
                    {
                        "number": 64,
                        "time": 69.1233435375,
                        "value": 0
                    },
                    {
                        "number": 64,
                        "time": 70.04920724375,
                        "value": 1
                    },
                    {
                        "number": 64,
                        "time": 70.73900081875,
                        "value": 0
                    },
                    {
                        "number": 64,
                        "time": 70.92149475,
                        "value": 1
                    },
                    {
                        "number": 64,
                        "time": 71.55603786875,
                        "value": 0
                    },
                    {
                        "number": 64,
                        "time": 71.76029713125,
                        "value": 1
                    },
                    {
                        "number": 64,
                        "time": 72.34293830625,
                        "value": 0
                    },
                    {
                        "number": 64,
                        "time": 72.49362136875,
                        "value": 1
                    },
                    {
                        "number": 64,
                        "time": 73.1482555625,
                        "value": 0
                    },
                    {
                        "number": 64,
                        "time": 73.33242375,
                        "value": 1
                    },
                    {
                        "number": 64,
                        "time": 73.935156,
                        "value": 0
                    },
                    {
                        "number": 64,
                        "time": 74.0690965,
                        "value": 1
                    },
                    {
                        "number": 64,
                        "time": 74.7555415625,
                        "value": 0
                    },
                    {
                        "number": 64,
                        "time": 74.93970975,
                        "value": 1
                    },
                    {
                        "number": 64,
                        "time": 75.55918456250001,
                        "value": 0
                    },
                    {
                        "number": 64,
                        "time": 75.68642803750001,
                        "value": 1
                    },
                    {
                        "number": 64,
                        "time": 76.3628275625,
                        "value": 0
                    },
                    {
                        "number": 64,
                        "time": 76.45156314375001,
                        "value": 1
                    },
                    {
                        "number": 64,
                        "time": 77.14972800000001,
                        "value": 0
                    },
                    {
                        "number": 64,
                        "time": 77.29203978125001,
                        "value": 1
                    },
                    {
                        "number": 64,
                        "time": 78.76538528125,
                        "value": 0
                    },
                    {
                        "number": 64,
                        "time": 78.93448516250001,
                        "value": 1
                    },
                    {
                        "number": 64,
                        "time": 79.57907381875,
                        "value": 0
                    },
                    {
                        "number": 64,
                        "time": 79.74984795625001,
                        "value": 1
                    },
                    {
                        "number": 64,
                        "time": 80.38104256250001,
                        "value": 0
                    },
                    {
                        "number": 64,
                        "time": 80.50661178125002,
                        "value": 1
                    },
                    {
                        "number": 64,
                        "time": 81.99335133125001,
                        "value": 0
                    },
                    {
                        "number": 64,
                        "time": 82.0787384,
                        "value": 1
                    },
                    {
                        "number": 64,
                        "time": 82.79197156250001,
                        "value": 0
                    },
                    {
                        "number": 64,
                        "time": 82.89410119375,
                        "value": 1
                    },
                    {
                        "number": 64,
                        "time": 83.578872,
                        "value": 0
                    },
                    {
                        "number": 64,
                        "time": 83.72118378125,
                        "value": 1
                    },
                    {
                        "number": 64,
                        "time": 85.19452928125,
                        "value": 0
                    },
                    {
                        "number": 64,
                        "time": 85.3636291625,
                        "value": 1
                    },
                    {
                        "number": 64,
                        "time": 86.00821781875,
                        "value": 0
                    },
                    {
                        "number": 64,
                        "time": 86.17899195625,
                        "value": 1
                    },
                    {
                        "number": 64,
                        "time": 86.81018656250001,
                        "value": 0
                    },
                    {
                        "number": 64,
                        "time": 86.93575578125001,
                        "value": 1
                    },
                    {
                        "number": 64,
                        "time": 87.98718870625001,
                        "value": 0
                    },
                    {
                        "number": 64,
                        "time": 88.53132198750001,
                        "value": 1
                    },
                    {
                        "number": 64,
                        "time": 89.21441853750001,
                        "value": 0
                    },
                    {
                        "number": 64,
                        "time": 90.162047575,
                        "value": 1
                    },
                    {
                        "number": 64,
                        "time": 90.83007581875,
                        "value": 0
                    },
                    {
                        "number": 64,
                        "time": 91.77100783125,
                        "value": 1
                    },
                    {
                        "number": 64,
                        "time": 92.43736181875,
                        "value": 0
                    },
                    {
                        "number": 64,
                        "time": 93.36489978125,
                        "value": 1
                    },
                    {
                        "number": 64,
                        "time": 94.83991953750001,
                        "value": 0
                    },
                    {
                        "number": 64,
                        "time": 95.76578324375001,
                        "value": 1
                    },
                    {
                        "number": 64,
                        "time": 96.45557681875,
                        "value": 0
                    },
                    {
                        "number": 64,
                        "time": 96.57947178125,
                        "value": 1
                    },
                    {
                        "number": 64,
                        "time": 97.27261386875,
                        "value": 0
                    },
                    {
                        "number": 64,
                        "time": 97.47687313125,
                        "value": 1
                    },
                    {
                        "number": 64,
                        "time": 98.05951430625001,
                        "value": 0
                    },
                    {
                        "number": 64,
                        "time": 98.21019736875,
                        "value": 1
                    },
                    {
                        "number": 64,
                        "time": 98.8648315625,
                        "value": 0
                    },
                    {
                        "number": 64,
                        "time": 99.04899975000001,
                        "value": 1
                    },
                    {
                        "number": 64,
                        "time": 99.60987559375,
                        "value": 0
                    },
                    {
                        "number": 64,
                        "time": 99.76223291250001,
                        "value": 1
                    },
                    {
                        "number": 64,
                        "time": 101.26738928125,
                        "value": 0
                    },
                    {
                        "number": 64,
                        "time": 101.346079325,
                        "value": 1
                    },
                    {
                        "number": 64,
                        "time": 102.8830465625,
                        "value": 0
                    },
                    {
                        "number": 64,
                        "time": 102.9968959875,
                        "value": 1
                    },
                    {
                        "number": 64,
                        "time": 104.4903325625,
                        "value": 0
                    },
                    {
                        "number": 64,
                        "time": 104.66278095625,
                        "value": 1
                    },
                    {
                        "number": 64,
                        "time": 105.29564981875001,
                        "value": 0
                    },
                    {
                        "number": 64,
                        "time": 105.44298436875,
                        "value": 1
                    },
                    {
                        "number": 64,
                        "time": 106.080876,
                        "value": 0
                    },
                    {
                        "number": 64,
                        "time": 106.2148165,
                        "value": 1
                    },
                    {
                        "number": 64,
                        "time": 106.4994400625,
                        "value": 0
                    },
                    {
                        "number": 64,
                        "time": 109.295448,
                        "value": 1
                    },
                    {
                        "number": 64,
                        "time": 110.91445379375,
                        "value": 0
                    },
                    {
                        "number": 64,
                        "time": 110.9864468125,
                        "value": 1
                    },
                    {
                        "number": 64,
                        "time": 112.51002000000001,
                        "value": 0
                    },
                    {
                        "number": 64,
                        "time": 112.58703578750001,
                        "value": 1
                    },
                    {
                        "number": 64,
                        "time": 115.80830481250001,
                        "value": 0
                    },
                    {
                        "number": 64,
                        "time": 115.86857803750001,
                        "value": 1
                    },
                    {
                        "number": 64,
                        "time": 117.34862056250002,
                        "value": 0
                    },
                    {
                        "number": 64,
                        "time": 117.43735614375002,
                        "value": 1
                    },
                    {
                        "number": 64,
                        "time": 118.15561207500002,
                        "value": 0
                    },
                    {
                        "number": 64,
                        "time": 118.25606745000002,
                        "value": 1
                    },
                    {
                        "number": 64,
                        "time": 119.02287681250002,
                        "value": 0
                    },
                    {
                        "number": 64,
                        "time": 119.08315003750002,
                        "value": 1
                    },
                    {
                        "number": 64,
                        "time": 120.56319256250002,
                        "value": 0
                    },
                    {
                        "number": 64,
                        "time": 120.65192814375003,
                        "value": 1
                    },
                    {
                        "number": 64,
                        "time": 121.37018407500003,
                        "value": 0
                    },
                    {
                        "number": 64,
                        "time": 121.47063945000002,
                        "value": 1
                    },
                    {
                        "number": 64,
                        "time": 122.15373600000002,
                        "value": 0
                    },
                    {
                        "number": 64,
                        "time": 122.34627546875002,
                        "value": 1
                    },
                    {
                        "number": 64,
                        "time": 122.97077305000002,
                        "value": 0
                    },
                    {
                        "number": 64,
                        "time": 123.11141057500002,
                        "value": 1
                    },
                    {
                        "number": 64,
                        "time": 123.77943881875002,
                        "value": 0
                    },
                    {
                        "number": 64,
                        "time": 123.95356146875002,
                        "value": 1
                    },
                    {
                        "number": 64,
                        "time": 124.58308181875003,
                        "value": 0
                    },
                    {
                        "number": 64,
                        "time": 124.73711339375004,
                        "value": 1
                    },
                    {
                        "number": 64,
                        "time": 125.36830800000004,
                        "value": 0
                    },
                    {
                        "number": 64,
                        "time": 125.53071085625004,
                        "value": 1
                    },
                    {
                        "number": 64,
                        "time": 126.98898805000005,
                        "value": 0
                    },
                    {
                        "number": 64,
                        "time": 128.68333537500004,
                        "value": 1
                    },
                    {
                        "number": 64,
                        "time": 129.40493981875005,
                        "value": 0
                    },
                    {
                        "number": 64,
                        "time": 129.49869816875005,
                        "value": 1
                    },
                    {
                        "number": 64,
                        "time": 130.21862835625006,
                        "value": 0
                    },
                    {
                        "number": 64,
                        "time": 130.29731840000005,
                        "value": 1
                    },
                    {
                        "number": 64,
                        "time": 131.01055156250004,
                        "value": 0
                    },
                    {
                        "number": 64,
                        "time": 131.11268119375003,
                        "value": 1
                    },
                    {
                        "number": 64,
                        "time": 131.81586881875003,
                        "value": 0
                    },
                    {
                        "number": 64,
                        "time": 131.89288460625002,
                        "value": 1
                    },
                    {
                        "number": 64,
                        "time": 133.42482907500002,
                        "value": 0
                    },
                    {
                        "number": 64,
                        "time": 133.57718639375003,
                        "value": 1
                    },
                    {
                        "number": 64,
                        "time": 135.04718338125002,
                        "value": 0
                    },
                    {
                        "number": 64,
                        "time": 135.11247937500002,
                        "value": 1
                    },
                    {
                        "number": 64,
                        "time": 135.83910658750003,
                        "value": 0
                    },
                    {
                        "number": 64,
                        "time": 135.89937981250003,
                        "value": 1
                    },
                    {
                        "number": 64,
                        "time": 136.63940107500002,
                        "value": 0
                    },
                    {
                        "number": 64,
                        "time": 136.7800386,
                        "value": 1
                    },
                    {
                        "number": 64,
                        "time": 137.42797576875,
                        "value": 0
                    },
                    {
                        "number": 64,
                        "time": 137.51838560625,
                        "value": 1
                    },
                    {
                        "number": 64,
                        "time": 138.24501281875,
                        "value": 0
                    },
                    {
                        "number": 64,
                        "time": 138.33374840000002,
                        "value": 1
                    },
                    {
                        "number": 64,
                        "time": 139.85229881875003,
                        "value": 0
                    },
                    {
                        "number": 64,
                        "time": 139.95777696250002,
                        "value": 1
                    },
                    {
                        "number": 64,
                        "time": 141.45958481875002,
                        "value": 0
                    },
                    {
                        "number": 64,
                        "time": 141.56673721875,
                        "value": 1
                    },
                    {
                        "number": 64,
                        "time": 141.85470929375,
                        "value": 0
                    },
                    {
                        "number": 64,
                        "time": 141.95516466875,
                        "value": 1
                    },
                    {
                        "number": 64,
                        "time": 143.068545075,
                        "value": 0
                    },
                    {
                        "number": 64,
                        "time": 143.22090239375,
                        "value": 1
                    },
                    {
                        "number": 64,
                        "time": 144.67583107500002,
                        "value": 0
                    },
                    {
                        "number": 64,
                        "time": 144.809771575,
                        "value": 1
                    },
                    {
                        "number": 64,
                        "time": 145.064258525,
                        "value": 0
                    },
                    {
                        "number": 64,
                        "time": 145.24005543125003,
                        "value": 1
                    },
                    {
                        "number": 64,
                        "time": 146.29148835625003,
                        "value": 0
                    },
                    {
                        "number": 64,
                        "time": 146.39696650000002,
                        "value": 1
                    },
                    {
                        "number": 64,
                        "time": 147.870312,
                        "value": 0
                    },
                    {
                        "number": 64,
                        "time": 148.26376221875,
                        "value": 1
                    },
                    {
                        "number": 64,
                        "time": 149.497689075,
                        "value": 0
                    },
                    {
                        "number": 64,
                        "time": 149.89951057500002,
                        "value": 1
                    },
                    {
                        "number": 64,
                        "time": 151.10497507500003,
                        "value": 0
                    },
                    {
                        "number": 64,
                        "time": 151.27407495625002,
                        "value": 1
                    },
                    {
                        "number": 64,
                        "time": 152.71226107500001,
                        "value": 0
                    },
                    {
                        "number": 64,
                        "time": 152.96507376875002,
                        "value": 1
                    },
                    {
                        "number": 64,
                        "time": 153.515904075,
                        "value": 0
                    },
                    {
                        "number": 64,
                        "time": 153.64314755,
                        "value": 1
                    },
                    {
                        "number": 64,
                        "time": 154.29945600000002,
                        "value": 0
                    },
                    {
                        "number": 64,
                        "time": 154.39488860625002,
                        "value": 1
                    },
                    {
                        "number": 64,
                        "time": 155.10812176875,
                        "value": 0
                    },
                    {
                        "number": 64,
                        "time": 155.149978175,
                        "value": 1
                    },
                    {
                        "number": 64,
                        "time": 155.9234845625,
                        "value": 0
                    },
                    {
                        "number": 64,
                        "time": 155.99547758125,
                        "value": 1
                    },
                    {
                        "number": 64,
                        "time": 156.7271275625,
                        "value": 0
                    },
                    {
                        "number": 64,
                        "time": 156.79912058124998,
                        "value": 1
                    },
                    {
                        "number": 64,
                        "time": 157.4905884125,
                        "value": 0
                    },
                    {
                        "number": 64,
                        "time": 157.56090717499998,
                        "value": 1
                    },
                    {
                        "number": 64,
                        "time": 159.14307933125,
                        "value": 0
                    },
                    {
                        "number": 64,
                        "time": 159.24018619375,
                        "value": 1
                    },
                    {
                        "number": 64,
                        "time": 160.76710789375,
                        "value": 0
                    },
                    {
                        "number": 64,
                        "time": 160.84412368124998,
                        "value": 1
                    },
                    {
                        "number": 64,
                        "time": 161.54563704999998,
                        "value": 0
                    },
                    {
                        "number": 64,
                        "time": 161.61428155624998,
                        "value": 1
                    },
                    {
                        "number": 64,
                        "time": 162.34090876874998,
                        "value": 0
                    },
                    {
                        "number": 64,
                        "time": 162.40787901874998,
                        "value": 1
                    },
                    {
                        "number": 64,
                        "time": 163.9599145625,
                        "value": 0
                    },
                    {
                        "number": 64,
                        "time": 164.043627375,
                        "value": 1
                    },
                    {
                        "number": 64,
                        "time": 165.5672005625,
                        "value": 0
                    },
                    {
                        "number": 64,
                        "time": 165.67602721875,
                        "value": 1
                    },
                    {
                        "number": 64,
                        "time": 167.17616081875,
                        "value": 0
                    },
                    {
                        "number": 64,
                        "time": 167.27326768125,
                        "value": 1
                    },
                    {
                        "number": 64,
                        "time": 168.78512107499998,
                        "value": 0
                    },
                    {
                        "number": 64,
                        "time": 168.88055368124998,
                        "value": 1
                    },
                    {
                        "number": 64,
                        "time": 170.38403579374997,
                        "value": 0
                    },
                    {
                        "number": 64,
                        "time": 170.47779414374997,
                        "value": 1
                    },
                    {
                        "number": 64,
                        "time": 171.19437581874996,
                        "value": 0
                    },
                    {
                        "number": 64,
                        "time": 171.29148268124996,
                        "value": 1
                    },
                    {
                        "number": 64,
                        "time": 172.79831330624995,
                        "value": 0
                    },
                    {
                        "number": 64,
                        "time": 172.85523801874996,
                        "value": 1
                    },
                    {
                        "number": 64,
                        "time": 173.19511203749997,
                        "value": 0
                    },
                    {
                        "number": 64,
                        "time": 173.27212782499996,
                        "value": 1
                    },
                    {
                        "number": 64,
                        "time": 173.58688799999996,
                        "value": 0
                    },
                    {
                        "number": 64,
                        "time": 173.68232060624996,
                        "value": 1
                    },
                    {
                        "number": 64,
                        "time": 174.39555376874995,
                        "value": 0
                    },
                    {
                        "number": 64,
                        "time": 174.43741017499994,
                        "value": 1
                    },
                    {
                        "number": 64,
                        "time": 175.21091656249993,
                        "value": 0
                    },
                    {
                        "number": 64,
                        "time": 175.28290958124992,
                        "value": 1
                    },
                    {
                        "number": 64,
                        "time": 176.01455956249993,
                        "value": 0
                    },
                    {
                        "number": 64,
                        "time": 176.08655258124992,
                        "value": 1
                    },
                    {
                        "number": 64,
                        "time": 176.81820256249992,
                        "value": 0
                    },
                    {
                        "number": 64,
                        "time": 177.13296273749992,
                        "value": 1
                    },
                    {
                        "number": 64,
                        "time": 178.43051133124993,
                        "value": 0
                    },
                    {
                        "number": 64,
                        "time": 178.60965674999994,
                        "value": 1
                    },
                    {
                        "number": 64,
                        "time": 179.23080581874993,
                        "value": 0
                    },
                    {
                        "number": 64,
                        "time": 179.38986016249993,
                        "value": 1
                    },
                    {
                        "number": 64,
                        "time": 180.01603199999994,
                        "value": 0
                    },
                    {
                        "number": 64,
                        "time": 180.15834378124993,
                        "value": 1
                    },
                    {
                        "number": 64,
                        "time": 181.63168928124992,
                        "value": 0
                    },
                    {
                        "number": 64,
                        "time": 181.8007891624999,
                        "value": 1
                    },
                    {
                        "number": 64,
                        "time": 182.4453778187499,
                        "value": 0
                    },
                    {
                        "number": 64,
                        "time": 182.6161519562499,
                        "value": 1
                    },
                    {
                        "number": 64,
                        "time": 183.2473465624999,
                        "value": 0
                    },
                    {
                        "number": 64,
                        "time": 183.3729157812499,
                        "value": 1
                    },
                    {
                        "number": 64,
                        "time": 184.8596553312499,
                        "value": 0
                    },
                    {
                        "number": 64,
                        "time": 184.94504239999992,
                        "value": 1
                    },
                    {
                        "number": 64,
                        "time": 185.6582755624999,
                        "value": 0
                    },
                    {
                        "number": 64,
                        "time": 185.7604051937499,
                        "value": 1
                    },
                    {
                        "number": 64,
                        "time": 186.4451759999999,
                        "value": 0
                    },
                    {
                        "number": 64,
                        "time": 186.58748778124988,
                        "value": 1
                    },
                    {
                        "number": 64,
                        "time": 188.06083328124987,
                        "value": 0
                    },
                    {
                        "number": 64,
                        "time": 188.22993316249986,
                        "value": 1
                    },
                    {
                        "number": 64,
                        "time": 188.87452181874986,
                        "value": 0
                    },
                    {
                        "number": 64,
                        "time": 189.04529595624984,
                        "value": 1
                    },
                    {
                        "number": 64,
                        "time": 189.67649056249985,
                        "value": 0
                    },
                    {
                        "number": 64,
                        "time": 189.80205978124985,
                        "value": 1
                    },
                    {
                        "number": 64,
                        "time": 190.85349270624985,
                        "value": 0
                    },
                    {
                        "number": 64,
                        "time": 191.39762598749985,
                        "value": 1
                    },
                    {
                        "number": 64,
                        "time": 192.08072253749984,
                        "value": 0
                    },
                    {
                        "number": 64,
                        "time": 193.02835157499985,
                        "value": 1
                    },
                    {
                        "number": 64,
                        "time": 193.69637981874985,
                        "value": 0
                    },
                    {
                        "number": 64,
                        "time": 194.63731183124986,
                        "value": 1
                    },
                    {
                        "number": 64,
                        "time": 195.30366581874986,
                        "value": 0
                    },
                    {
                        "number": 64,
                        "time": 196.23120378124986,
                        "value": 1
                    },
                    {
                        "number": 64,
                        "time": 197.70622353749985,
                        "value": 0
                    },
                    {
                        "number": 64,
                        "time": 198.63208724374985,
                        "value": 1
                    },
                    {
                        "number": 64,
                        "time": 199.31685804999984,
                        "value": 0
                    },
                    {
                        "number": 64,
                        "time": 199.46586685624985,
                        "value": 1
                    },
                    {
                        "number": 64,
                        "time": 200.13891786874984,
                        "value": 0
                    },
                    {
                        "number": 64,
                        "time": 200.34317713124983,
                        "value": 1
                    },
                    {
                        "number": 64,
                        "time": 200.92581830624982,
                        "value": 0
                    },
                    {
                        "number": 64,
                        "time": 201.07650136874983,
                        "value": 1
                    },
                    {
                        "number": 64,
                        "time": 201.73113556249984,
                        "value": 0
                    },
                    {
                        "number": 64,
                        "time": 201.91530374999985,
                        "value": 1
                    },
                    {
                        "number": 64,
                        "time": 202.51803599999985,
                        "value": 0
                    },
                    {
                        "number": 64,
                        "time": 202.65197649999985,
                        "value": 1
                    },
                    {
                        "number": 64,
                        "time": 203.33842156249986,
                        "value": 0
                    },
                    {
                        "number": 64,
                        "time": 203.52258974999987,
                        "value": 1
                    },
                    {
                        "number": 64,
                        "time": 204.14206456249985,
                        "value": 0
                    },
                    {
                        "number": 64,
                        "time": 204.26930803749985,
                        "value": 1
                    },
                    {
                        "number": 64,
                        "time": 204.94570756249985,
                        "value": 0
                    },
                    {
                        "number": 64,
                        "time": 205.03444314374985,
                        "value": 1
                    },
                    {
                        "number": 64,
                        "time": 205.73260799999986,
                        "value": 0
                    },
                    {
                        "number": 64,
                        "time": 205.87491978124984,
                        "value": 1
                    },
                    {
                        "number": 64,
                        "time": 207.34826528124984,
                        "value": 0
                    },
                    {
                        "number": 64,
                        "time": 207.51736516249983,
                        "value": 1
                    },
                    {
                        "number": 64,
                        "time": 208.16195381874982,
                        "value": 0
                    },
                    {
                        "number": 64,
                        "time": 208.3327279562498,
                        "value": 1
                    },
                    {
                        "number": 64,
                        "time": 208.96392256249982,
                        "value": 0
                    },
                    {
                        "number": 64,
                        "time": 209.08949178124982,
                        "value": 1
                    },
                    {
                        "number": 64,
                        "time": 210.57623133124983,
                        "value": 0
                    },
                    {
                        "number": 64,
                        "time": 210.66161839999984,
                        "value": 1
                    },
                    {
                        "number": 64,
                        "time": 211.37485156249983,
                        "value": 0
                    },
                    {
                        "number": 64,
                        "time": 211.47698119374982,
                        "value": 1
                    },
                    {
                        "number": 64,
                        "time": 212.1617519999998,
                        "value": 0
                    },
                    {
                        "number": 64,
                        "time": 212.69249123124982,
                        "value": 1
                    },
                    {
                        "number": 64,
                        "time": 213.77740928124982,
                        "value": 0
                    },
                    {
                        "number": 64,
                        "time": 213.9465091624998,
                        "value": 1
                    },
                    {
                        "number": 64,
                        "time": 214.5910978187498,
                        "value": 0
                    },
                    {
                        "number": 64,
                        "time": 214.7618719562498,
                        "value": 1
                    },
                    {
                        "number": 64,
                        "time": 215.3930665624998,
                        "value": 0
                    },
                    {
                        "number": 64,
                        "time": 215.5186357812498,
                        "value": 1
                    },
                    {
                        "number": 64,
                        "time": 216.2385659687498,
                        "value": 0
                    },
                    {
                        "number": 64,
                        "time": 217.1142019874998,
                        "value": 1
                    },
                    {
                        "number": 64,
                        "time": 217.79729853749978,
                        "value": 0
                    },
                    {
                        "number": 64,
                        "time": 218.7449275749998,
                        "value": 1
                    },
                    {
                        "number": 64,
                        "time": 219.4129558187498,
                        "value": 0
                    },
                    {
                        "number": 64,
                        "time": 220.3538878312498,
                        "value": 1
                    },
                    {
                        "number": 64,
                        "time": 221.0202418187498,
                        "value": 0
                    },
                    {
                        "number": 64,
                        "time": 221.9477797812498,
                        "value": 1
                    },
                    {
                        "number": 64,
                        "time": 223.4227995374998,
                        "value": 0
                    },
                    {
                        "number": 64,
                        "time": 224.3486632437498,
                        "value": 1
                    },
                    {
                        "number": 64,
                        "time": 225.03175979374979,
                        "value": 0
                    },
                    {
                        "number": 64,
                        "time": 225.19751116249978,
                        "value": 1
                    },
                    {
                        "number": 64,
                        "time": 225.8554938687498,
                        "value": 0
                    },
                    {
                        "number": 64,
                        "time": 226.05975313124978,
                        "value": 1
                    },
                    {
                        "number": 64,
                        "time": 226.64239430624977,
                        "value": 0
                    },
                    {
                        "number": 64,
                        "time": 226.79307736874978,
                        "value": 1
                    },
                    {
                        "number": 64,
                        "time": 227.4477115624998,
                        "value": 0
                    },
                    {
                        "number": 64,
                        "time": 227.6318797499998,
                        "value": 1
                    },
                    {
                        "number": 64,
                        "time": 228.1927555937498,
                        "value": 0
                    },
                    {
                        "number": 64,
                        "time": 228.2078238999998,
                        "value": 1
                    },
                    {
                        "number": 64,
                        "time": 229.8502692812498,
                        "value": 0
                    },
                    {
                        "number": 64,
                        "time": 229.9289593249998,
                        "value": 1
                    },
                    {
                        "number": 64,
                        "time": 231.4659265624998,
                        "value": 0
                    },
                    {
                        "number": 64,
                        "time": 231.5797759874998,
                        "value": 1
                    },
                    {
                        "number": 64,
                        "time": 233.0732125624998,
                        "value": 0
                    },
                    {
                        "number": 64,
                        "time": 233.2456609562498,
                        "value": 1
                    },
                    {
                        "number": 64,
                        "time": 233.8785298187498,
                        "value": 0
                    },
                    {
                        "number": 64,
                        "time": 234.0258643687498,
                        "value": 1
                    },
                    {
                        "number": 64,
                        "time": 234.6637559999998,
                        "value": 0
                    },
                    {
                        "number": 64,
                        "time": 234.7976964999998,
                        "value": 1
                    },
                    {
                        "number": 64,
                        "time": 235.0823200624998,
                        "value": 0
                    },
                    {
                        "number": 64,
                        "time": 237.9436239937498,
                        "value": 1
                    },
                    {
                        "number": 64,
                        "time": 239.49733379374982,
                        "value": 0
                    },
                    {
                        "number": 64,
                        "time": 239.5693268124998,
                        "value": 1
                    },
                    {
                        "number": 64,
                        "time": 241.09289999999982,
                        "value": 0
                    },
                    {
                        "number": 64,
                        "time": 241.1699157874998,
                        "value": 1
                    },
                    {
                        "number": 64,
                        "time": 244.3242145624998,
                        "value": 0
                    },
                    {
                        "number": 64,
                        "time": 244.5083827499998,
                        "value": 1
                    },
                    {
                        "number": 64,
                        "time": 245.93150056249982,
                        "value": 0
                    },
                    {
                        "number": 64,
                        "time": 246.02023614374983,
                        "value": 1
                    },
                    {
                        "number": 64,
                        "time": 246.73849207499984,
                        "value": 0
                    },
                    {
                        "number": 64,
                        "time": 246.83894744999984,
                        "value": 1
                    },
                    {
                        "number": 64,
                        "time": 247.53878656249984,
                        "value": 0
                    },
                    {
                        "number": 64,
                        "time": 247.66603003749984,
                        "value": 1
                    },
                    {
                        "number": 64,
                        "time": 249.14607256249982,
                        "value": 0
                    },
                    {
                        "number": 64,
                        "time": 249.23480814374983,
                        "value": 1
                    },
                    {
                        "number": 64,
                        "time": 249.95306407499984,
                        "value": 0
                    },
                    {
                        "number": 64,
                        "time": 250.05351944999984,
                        "value": 1
                    },
                    {
                        "number": 64,
                        "time": 250.73661599999983,
                        "value": 0
                    },
                    {
                        "number": 64,
                        "time": 250.86720798749982,
                        "value": 1
                    },
                    {
                        "number": 64,
                        "time": 251.55700156249983,
                        "value": 0
                    },
                    {
                        "number": 64,
                        "time": 251.70601036874984,
                        "value": 1
                    },
                    {
                        "number": 64,
                        "time": 252.36064456249986,
                        "value": 0
                    },
                    {
                        "number": 64,
                        "time": 252.47449398749987,
                        "value": 1
                    },
                    {
                        "number": 64,
                        "time": 253.16596181874988,
                        "value": 0
                    },
                    {
                        "number": 64,
                        "time": 253.30157657499987,
                        "value": 1
                    },
                    {
                        "number": 64,
                        "time": 253.95621076874988,
                        "value": 0
                    },
                    {
                        "number": 64,
                        "time": 254.53215491874988,
                        "value": 1
                    },
                    {
                        "number": 64,
                        "time": 255.5768908187499,
                        "value": 0
                    },
                    {
                        "number": 64,
                        "time": 255.8598401249999,
                        "value": 1
                    },
                    {
                        "number": 64,
                        "time": 257.16575999999986,
                        "value": 0
                    }
                ]
            },
            "id": 3,
            "name": "Pedal",
            "instrumentNumber": 0,
            "instrument": "acoustic grand piano",
            "instrumentFamily": "piano",
            "channelNumber": 0,
            "isPercussion": false
        },
        {
            "startTime": 0,
            "duration": 0,
            "length": 0,
            "notes": [],
            "controlChanges": {},
            "id": 4,
            "name": "Mozart: Sonate KV 332"
        },
        {
            "startTime": 0,
            "duration": 0,
            "length": 0,
            "notes": [],
            "controlChanges": {},
            "id": 5,
            "name": "Copyright  2006 by Bernd Krger"
        },
        {
            "startTime": 0,
            "duration": 0,
            "length": 0,
            "notes": [],
            "controlChanges": {},
            "id": 6,
            "name": "http://www.piano-midi.de"
        },
        {
            "startTime": 0,
            "duration": 0,
            "length": 0,
            "notes": [],
            "controlChanges": {},
            "id": 7,
            "name": "Edition: 2013-07-25"
        },
        {
            "startTime": 0,
            "duration": 0,
            "length": 0,
            "notes": [],
            "controlChanges": {},
            "id": 8,
            "name": "Spur 8"
        },
        {
            "startTime": 0,
            "duration": 0,
            "length": 0,
            "notes": [],
            "controlChanges": {},
            "id": 9,
            "name": "Spur 9"
        }
    ]
}